<?xml version="1.0" encoding="UTF-8" standalone="no"?>
<!DOCTYPE svg PUBLIC "-//W3C//DTD SVG 1.1//EN"
 "http://www.w3.org/Graphics/SVG/1.1/DTD/svg11.dtd">
<!-- Generated by graphviz version 14.1.1 (0)
 -->
<!-- Title: mqttbridge/lib/BridgeStore.h Pages: 1 -->
<svg width="487pt" height="98pt"
 viewBox="0.00 0.00 487.00 98.00" xmlns="http://www.w3.org/2000/svg" xmlns:xlink="http://www.w3.org/1999/xlink">
<g id="graph0" class="graph" transform="scale(1 1) rotate(0) translate(4 94.25)">
<title>mqttbridge/lib/BridgeStore.h</title>
<!-- Node1 -->
<g id="Node000001" class="node">
<title>Node1</title>
<g id="a_Node000001"><a xlink:title=" ">
<polygon fill="#999999" stroke="#666666" points="333.62,-90.25 179.62,-90.25 179.62,-69.5 333.62,-69.5 333.62,-90.25"/>
<text xml:space="preserve" text-anchor="middle" x="256.62" y="-76.75" font-family="Helvetica,sans-Serif" font-size="10.00">mqttbridge/lib/BridgeStore.h</text>
</a>
</g>
</g>
<!-- Node2 -->
<g id="Node000002" class="node">
<title>Node2</title>
<g id="a_Node000002"><a xlink:href="BridgeStore_8cpp.html" target="_top" xlink:title=" ">
<polygon fill="white" stroke="#666666" points="165.25,-27.12 0,-27.12 0,-6.38 165.25,-6.38 165.25,-27.12"/>
<text xml:space="preserve" text-anchor="middle" x="82.62" y="-13.62" font-family="Helvetica,sans-Serif" font-size="10.00">mqttbridge/lib/BridgeStore.cpp</text>
</a>
</g>
</g>
<!-- Node1&#45;&gt;Node2 -->
<g id="edge1_Node000001_Node000002" class="edge">
<title>Node1&#45;&gt;Node2</title>
<g id="a_edge1_Node000001_Node000002"><a xlink:title=" ">
<path fill="none" stroke="#63b8ff" d="M218.18,-65.37C185.6,-53.92 139.66,-37.79 110.51,-27.55"/>
<polygon fill="#63b8ff" stroke="#63b8ff" points="216.65,-68.54 227.24,-68.55 218.97,-61.94 216.65,-68.54"/>
</a>
</g>
</g>
<!-- Node3 -->
<g id="Node000003" class="node">
<title>Node3</title>
<g id="a_Node000003"><a xlink:href="mqttbridge_8cpp.html" target="_top" xlink:title=" ">
<polygon fill="white" stroke="#666666" points="330.25,-27.12 183,-27.12 183,-6.38 330.25,-6.38 330.25,-27.12"/>
<text xml:space="preserve" text-anchor="middle" x="256.62" y="-13.62" font-family="Helvetica,sans-Serif" font-size="10.00">mqttbridge/mqttbridge.cpp</text>
</a>
</g>
</g>
<!-- Node1&#45;&gt;Node3 -->
<g id="edge2_Node000001_Node000003" class="edge">
<title>Node1&#45;&gt;Node3</title>
<g id="a_edge2_Node000001_Node000003"><a xlink:title=" ">
<path fill="none" stroke="#63b8ff" d="M256.62,-57.61C256.62,-47.3 256.62,-35.43 256.62,-27.34"/>
<polygon fill="#63b8ff" stroke="#63b8ff" points="253.13,-57.54 256.63,-67.54 260.13,-57.54 253.13,-57.54"/>
</a>
</g>
</g>
<!-- Node4 -->
<g id="Node000004" class="node">
<title>Node4</title>
<g id="a_Node000004"><a xlink:href="mqttbridge_2websocket_2SubProtocolFactory_8cpp.html" target="_top" xlink:title=" ">
<polygon fill="white" stroke="#666666" points="479.38,-33.5 347.88,-33.5 347.88,0 479.38,0 479.38,-33.5"/>
<text xml:space="preserve" text-anchor="start" x="355.88" y="-20" font-family="Helvetica,sans-Serif" font-size="10.00">mqttbridge/websocket</text>
<text xml:space="preserve" text-anchor="middle" x="413.62" y="-7.25" font-family="Helvetica,sans-Serif" font-size="10.00">/SubProtocolFactory.cpp</text>
</a>
</g>
</g>
<!-- Node1&#45;&gt;Node4 -->
<g id="edge3_Node000001_Node000004" class="edge">
<title>Node1&#45;&gt;Node4</title>
<g id="a_edge3_Node000001_Node000004"><a xlink:title=" ">
<path fill="none" stroke="#63b8ff" d="M292.47,-64.92C316.12,-55.71 347.17,-43.62 371.93,-33.98"/>
<polygon fill="#63b8ff" stroke="#63b8ff" points="291.31,-61.62 283.26,-68.51 293.85,-68.14 291.31,-61.62"/>
</a>
</g>
</g>
</g>
</svg>
