<?xml version="1.0" encoding="UTF-8" standalone="no"?>
<!DOCTYPE svg PUBLIC "-//W3C//DTD SVG 1.1//EN"
 "http://www.w3.org/Graphics/SVG/1.1/DTD/svg11.dtd">
<!-- Generated by graphviz version 14.1.2 (0)
 -->
<!-- Title: mqttbridge/lib/BridgeStore.h Pages: 1 -->
<svg width="162pt" height="199pt"
 viewBox="0.00 0.00 162.00 199.00" xmlns="http://www.w3.org/2000/svg" xmlns:xlink="http://www.w3.org/1999/xlink">
<g id="graph0" class="graph" transform="scale(1 1) rotate(0) translate(4 195)">
<title>mqttbridge/lib/BridgeStore.h</title>
<!-- Node1 -->
<g id="Node000001" class="node">
<title>Node1</title>
<g id="a_Node000001"><a xlink:title=" ">
<polygon fill="#999999" stroke="#666666" points="154,-191 0,-191 0,-170.25 154,-170.25 154,-191"/>
<text xml:space="preserve" text-anchor="middle" x="77" y="-177.5" font-family="Helvetica,sans-Serif" font-size="10.00">mqttbridge/lib/BridgeStore.h</text>
</a>
</g>
</g>
<!-- Node2 -->
<g id="Node000002" class="node">
<title>Node2</title>
<g id="a_Node000002"><a xlink:href="Bridge_8h.html" target="_top" xlink:title=" ">
<polygon fill="white" stroke="#666666" points="112.75,-134.25 41.25,-134.25 41.25,-113.5 112.75,-113.5 112.75,-134.25"/>
<text xml:space="preserve" text-anchor="middle" x="77" y="-120.75" font-family="Helvetica,sans-Serif" font-size="10.00">lib/Bridge.h</text>
</a>
</g>
</g>
<!-- Node1&#45;&gt;Node2 -->
<g id="edge1_Node000001_Node000002" class="edge">
<title>Node1&#45;&gt;Node2</title>
<g id="a_edge1_Node000001_Node000002"><a xlink:title=" ">
<path fill="none" stroke="#63b8ff" d="M77,-169.84C77,-163.22 77,-154.22 77,-146.02"/>
<polygon fill="#63b8ff" stroke="#63b8ff" points="80.5,-146.09 77,-136.09 73.5,-146.09 80.5,-146.09"/>
</a>
</g>
</g>
<!-- Node3 -->
<g id="Node000003" class="node">
<title>Node3</title>
<g id="a_Node000003"><a xlink:href="Broker_8h.html" target="_top" xlink:title=" ">
<polygon fill="white" stroke="#666666" points="112.75,-77.5 41.25,-77.5 41.25,-56.75 112.75,-56.75 112.75,-77.5"/>
<text xml:space="preserve" text-anchor="middle" x="77" y="-64" font-family="Helvetica,sans-Serif" font-size="10.00">lib/Broker.h</text>
</a>
</g>
</g>
<!-- Node2&#45;&gt;Node3 -->
<g id="edge2_Node000002_Node000003" class="edge">
<title>Node2&#45;&gt;Node3</title>
<g id="a_edge2_Node000002_Node000003"><a xlink:title=" ">
<path fill="none" stroke="#63b8ff" d="M77,-113.09C77,-106.47 77,-97.47 77,-89.27"/>
<polygon fill="#63b8ff" stroke="#63b8ff" points="80.5,-89.34 77,-79.34 73.5,-89.34 80.5,-89.34"/>
</a>
</g>
</g>
<!-- Node4 -->
<g id="Node000004" class="node">
<title>Node4</title>
<g id="a_Node000004"><a xlink:title=" ">
<polygon fill="#e0e0e0" stroke="#999999" points="122.88,-20.75 31.12,-20.75 31.12,0 122.88,0 122.88,-20.75"/>
<text xml:space="preserve" text-anchor="middle" x="77" y="-7.25" font-family="Helvetica,sans-Serif" font-size="10.00">iot/mqtt/Topic.h</text>
</a>
</g>
</g>
<!-- Node3&#45;&gt;Node4 -->
<g id="edge3_Node000003_Node000004" class="edge">
<title>Node3&#45;&gt;Node4</title>
<g id="a_edge3_Node000003_Node000004"><a xlink:title=" ">
<path fill="none" stroke="#63b8ff" d="M77,-56.34C77,-49.72 77,-40.72 77,-32.52"/>
<polygon fill="#63b8ff" stroke="#63b8ff" points="80.5,-32.59 77,-22.59 73.5,-32.59 80.5,-32.59"/>
</a>
</g>
</g>
</g>
</svg>
