<?xml version="1.0" encoding="UTF-8" standalone="no"?>
<!DOCTYPE svg PUBLIC "-//W3C//DTD SVG 1.1//EN"
 "http://www.w3.org/Graphics/SVG/1.1/DTD/svg11.dtd">
<!-- Generated by graphviz version 2.42.4 (0)
 -->
<!-- Title: nlohmann::json_uri::fragment Pages: 1 -->
<svg width="1504pt" height="540pt"
 viewBox="0.00 0.00 1504.00 540.00" xmlns="http://www.w3.org/2000/svg" xmlns:xlink="http://www.w3.org/1999/xlink">
<g id="graph0" class="graph" transform="scale(1 1) rotate(0) translate(4 536)">
<title>nlohmann::json_uri::fragment</title>
<!-- Node1 -->
<g id="Node000001" class="node">
<title>Node1</title>
<g id="a_Node000001"><a xlink:title=" ">
<polygon fill="#999999" stroke="#666666" points="1496,-244.5 1386,-244.5 1386,-214.5 1496,-214.5 1496,-244.5"/>
<text text-anchor="start" x="1394" y="-232.5" font-family="Helvetica,sans-Serif" font-size="10.00">nlohmann::json_uri</text>
<text text-anchor="middle" x="1441" y="-221.5" font-family="Helvetica,sans-Serif" font-size="10.00">::fragment</text>
</a>
</g>
</g>
<!-- Node2 -->
<g id="Node000002" class="node">
<title>Node2</title>
<g id="a_Node000002"><a xlink:href="classnlohmann_1_1json__schema_1_1root__schema.html#a7e890c03f941280b76fbdb4d5bb73065" target="_top" xlink:title=" ">
<polygon fill="white" stroke="#666666" points="1350,-250 1215,-250 1215,-209 1350,-209 1350,-250"/>
<text text-anchor="start" x="1223" y="-238" font-family="Helvetica,sans-Serif" font-size="10.00">nlohmann::json_schema</text>
<text text-anchor="start" x="1223" y="-227" font-family="Helvetica,sans-Serif" font-size="10.00">::root_schema::get_or</text>
<text text-anchor="middle" x="1282.5" y="-216" font-family="Helvetica,sans-Serif" font-size="10.00">_create_ref</text>
</a>
</g>
</g>
<!-- Node1&#45;&gt;Node2 -->
<g id="edge1_Node000001_Node000002" class="edge">
<title>Node1&#45;&gt;Node2</title>
<g id="a_edge1_Node000001_Node000002"><a xlink:title=" ">
<path fill="none" stroke="#63b8ff" d="M1375.59,-229.5C1367.18,-229.5 1358.56,-229.5 1350.12,-229.5"/>
<polygon fill="#63b8ff" stroke="#63b8ff" points="1375.7,-233 1385.7,-229.5 1375.7,-226 1375.7,-233"/>
</a>
</g>
</g>
<!-- Node33 -->
<g id="Node000033" class="node">
<title>Node33</title>
<g id="a_Node000033"><a xlink:href="classnlohmann_1_1json__schema_1_1root__schema.html#a685904131f0693e56f14a9e9db5f044e" target="_top" xlink:title=" ">
<polygon fill="white" stroke="#666666" points="1350,-298.5 1215,-298.5 1215,-268.5 1350,-268.5 1350,-298.5"/>
<text text-anchor="start" x="1223" y="-286.5" font-family="Helvetica,sans-Serif" font-size="10.00">nlohmann::json_schema</text>
<text text-anchor="middle" x="1282.5" y="-275.5" font-family="Helvetica,sans-Serif" font-size="10.00">::root_schema::insert</text>
</a>
</g>
</g>
<!-- Node1&#45;&gt;Node33 -->
<g id="edge38_Node000001_Node000033" class="edge">
<title>Node1&#45;&gt;Node33</title>
<g id="a_edge38_Node000001_Node000033"><a xlink:title=" ">
<path fill="none" stroke="#63b8ff" d="M1386.78,-247.86C1367.36,-254.57 1345.63,-262.06 1327.13,-268.45"/>
<polygon fill="#63b8ff" stroke="#63b8ff" points="1388.09,-251.11 1396.41,-244.54 1385.81,-244.5 1388.09,-251.11"/>
</a>
</g>
</g>
<!-- Node34 -->
<g id="Node000034" class="node">
<title>Node34</title>
<g id="a_Node000034"><a xlink:href="classnlohmann_1_1json__schema_1_1root__schema.html#a32f6012c2d81f29ca16e4409dd2b5ea3" target="_top" xlink:title=" ">
<polygon fill="white" stroke="#666666" points="1179,-192.5 1044,-192.5 1044,-162.5 1179,-162.5 1179,-192.5"/>
<text text-anchor="start" x="1052" y="-180.5" font-family="Helvetica,sans-Serif" font-size="10.00">nlohmann::json_schema</text>
<text text-anchor="middle" x="1111.5" y="-169.5" font-family="Helvetica,sans-Serif" font-size="10.00">::root_schema::validate</text>
</a>
</g>
</g>
<!-- Node1&#45;&gt;Node34 -->
<g id="edge40_Node000001_Node000034" class="edge">
<title>Node1&#45;&gt;Node34</title>
<g id="a_edge40_Node000001_Node000034"><a xlink:title=" ">
<path fill="none" stroke="#63b8ff" d="M1391.27,-211C1378.04,-206.6 1363.62,-202.36 1350,-199.5 1293.06,-187.54 1227.09,-182.08 1179.14,-179.59"/>
<polygon fill="#63b8ff" stroke="#63b8ff" points="1390.52,-214.44 1401.11,-214.37 1392.78,-207.82 1390.52,-214.44"/>
</a>
</g>
</g>
<!-- Node3 -->
<g id="Node000003" class="node">
<title>Node3</title>
<g id="a_Node000003"><a xlink:href="classanonymous__namespace_02json-validator_8cpp_03_1_1schema.html#aafee860997369c77204d5b1a7d095c3f" target="_top" xlink:title=" ">
<polygon fill="white" stroke="#666666" points="1179,-278 1044,-278 1044,-237 1179,-237 1179,-278"/>
<text text-anchor="start" x="1052" y="-266" font-family="Helvetica,sans-Serif" font-size="10.00">anonymous_namespace</text>
<text text-anchor="start" x="1052" y="-255" font-family="Helvetica,sans-Serif" font-size="10.00">{json&#45;validator::cpp}</text>
<text text-anchor="middle" x="1111.5" y="-244" font-family="Helvetica,sans-Serif" font-size="10.00">::schema::make</text>
</a>
</g>
</g>
<!-- Node2&#45;&gt;Node3 -->
<g id="edge2_Node000002_Node000003" class="edge">
<title>Node2&#45;&gt;Node3</title>
<g id="a_edge2_Node000002_Node000003"><a xlink:title=" ">
<path fill="none" stroke="#63b8ff" d="M1204.73,-235.49C1196.17,-236.86 1187.5,-238.33 1179.08,-239.85"/>
<polygon fill="#63b8ff" stroke="#63b8ff" points="1205.36,-238.94 1214.71,-233.95 1204.29,-232.02 1205.36,-238.94"/>
</a>
</g>
</g>
<!-- Node3&#45;&gt;Node2 -->
<g id="edge4_Node000003_Node000002" class="edge">
<title>Node3&#45;&gt;Node2</title>
<g id="a_edge4_Node000003_Node000002"><a xlink:title=" ">
<path fill="none" stroke="#63b8ff" d="M1189.06,-251.54C1197.62,-250.18 1206.28,-248.71 1214.71,-247.18"/>
<polygon fill="#63b8ff" stroke="#63b8ff" points="1188.43,-248.09 1179.08,-253.08 1189.5,-255.01 1188.43,-248.09"/>
</a>
</g>
</g>
<!-- Node3&#45;&gt;Node3 -->
<g id="edge10_Node000003_Node000003" class="edge">
<title>Node3&#45;&gt;Node3</title>
<g id="a_edge10_Node000003_Node000003"><a xlink:title=" ">
<path fill="none" stroke="#63b8ff" d="M1140.75,-287.96C1136.4,-292.74 1126.65,-296 1111.5,-296 1087.26,-296 1076.85,-287.65 1080.26,-278.1"/>
<polygon fill="#63b8ff" stroke="#63b8ff" points="1144.19,-288.59 1142.74,-278.1 1137.33,-287.2 1144.19,-288.59"/>
</a>
</g>
</g>
<!-- Node4 -->
<g id="Node000004" class="node">
<title>Node4</title>
<g id="a_Node000004"><a xlink:href="classanonymous__namespace_02json-validator_8cpp_03_1_1array.html#ad16bb35faff550ae0c7014de82822e71" target="_top" xlink:title=" ">
<polygon fill="white" stroke="#666666" points="996,-355 861,-355 861,-314 996,-314 996,-355"/>
<text text-anchor="start" x="869" y="-343" font-family="Helvetica,sans-Serif" font-size="10.00">anonymous_namespace</text>
<text text-anchor="start" x="869" y="-332" font-family="Helvetica,sans-Serif" font-size="10.00">{json&#45;validator::cpp}</text>
<text text-anchor="middle" x="928.5" y="-321" font-family="Helvetica,sans-Serif" font-size="10.00">::array::array</text>
</a>
</g>
</g>
<!-- Node3&#45;&gt;Node4 -->
<g id="edge3_Node000003_Node000004" class="edge">
<title>Node3&#45;&gt;Node4</title>
<g id="a_edge3_Node000003_Node000004"><a xlink:title=" ">
<path fill="none" stroke="#63b8ff" d="M1058.18,-282.28C1042.17,-289.65 1024.45,-297.6 1008,-304.5 1000.47,-307.66 992.47,-310.88 984.58,-313.97"/>
<polygon fill="#63b8ff" stroke="#63b8ff" points="1059.78,-285.4 1067.38,-278.02 1056.84,-279.05 1059.78,-285.4"/>
</a>
</g>
</g>
<!-- Node5 -->
<g id="Node000005" class="node">
<title>Node5</title>
<g id="a_Node000005"><a xlink:href="classnlohmann_1_1json__schema_1_1root__schema.html#a4c543fe7b89e76b3fdd17a6883696238" target="_top" xlink:title=" ">
<polygon fill="white" stroke="#666666" points="996,-278 861,-278 861,-237 996,-237 996,-278"/>
<text text-anchor="start" x="869" y="-266" font-family="Helvetica,sans-Serif" font-size="10.00">nlohmann::json_schema</text>
<text text-anchor="start" x="869" y="-255" font-family="Helvetica,sans-Serif" font-size="10.00">::root_schema::insert</text>
<text text-anchor="middle" x="928.5" y="-244" font-family="Helvetica,sans-Serif" font-size="10.00">_unknown_keyword</text>
</a>
</g>
</g>
<!-- Node3&#45;&gt;Node5 -->
<g id="edge5_Node000003_Node000005" class="edge">
<title>Node3&#45;&gt;Node5</title>
<g id="a_edge5_Node000003_Node000005"><a xlink:title=" ">
<path fill="none" stroke="#63b8ff" d="M1033.56,-250.82C1021.17,-250.69 1008.42,-250.74 996.29,-250.96"/>
<polygon fill="#63b8ff" stroke="#63b8ff" points="1033.82,-254.32 1043.87,-250.96 1033.92,-247.32 1033.82,-254.32"/>
</a>
</g>
</g>
<!-- Node6 -->
<g id="Node000006" class="node">
<title>Node6</title>
<g id="a_Node000006"><a xlink:href="classanonymous__namespace_02json-validator_8cpp_03_1_1logical__combination.html#af6e410a20a726f16733df11cfa9f8ff5" target="_top" xlink:title=" ">
<polygon fill="white" stroke="#666666" points="996,-218.5 861,-218.5 861,-166.5 996,-166.5 996,-218.5"/>
<text text-anchor="start" x="869" y="-206.5" font-family="Helvetica,sans-Serif" font-size="10.00">anonymous_namespace</text>
<text text-anchor="start" x="869" y="-195.5" font-family="Helvetica,sans-Serif" font-size="10.00">{json&#45;validator::cpp}</text>
<text text-anchor="start" x="869" y="-184.5" font-family="Helvetica,sans-Serif" font-size="10.00">::logical_combination</text>
<text text-anchor="middle" x="928.5" y="-173.5" font-family="Helvetica,sans-Serif" font-size="10.00">::logical_combination</text>
</a>
</g>
</g>
<!-- Node3&#45;&gt;Node6 -->
<g id="edge8_Node000003_Node000006" class="edge">
<title>Node3&#45;&gt;Node6</title>
<g id="a_edge8_Node000003_Node000006"><a xlink:title=" ">
<path fill="none" stroke="#63b8ff" d="M1043.72,-233.52C1028.21,-227.95 1011.7,-222.02 996.19,-216.45"/>
<polygon fill="#63b8ff" stroke="#63b8ff" points="1042.64,-236.85 1053.23,-236.93 1045,-230.26 1042.64,-236.85"/>
</a>
</g>
</g>
<!-- Node7 -->
<g id="Node000007" class="node">
<title>Node7</title>
<g id="a_Node000007"><a xlink:href="classanonymous__namespace_02json-validator_8cpp_03_1_1logical__not.html#a5ac57fd40f4d28a3def56b84a8e8cd4f" target="_top" xlink:title=" ">
<polygon fill="white" stroke="#666666" points="996,-148 861,-148 861,-107 996,-107 996,-148"/>
<text text-anchor="start" x="869" y="-136" font-family="Helvetica,sans-Serif" font-size="10.00">anonymous_namespace</text>
<text text-anchor="start" x="869" y="-125" font-family="Helvetica,sans-Serif" font-size="10.00">{json&#45;validator::cpp}</text>
<text text-anchor="middle" x="928.5" y="-114" font-family="Helvetica,sans-Serif" font-size="10.00">::logical_not::logical_not</text>
</a>
</g>
</g>
<!-- Node3&#45;&gt;Node7 -->
<g id="edge9_Node000003_Node000007" class="edge">
<title>Node3&#45;&gt;Node7</title>
<g id="a_edge9_Node000003_Node000007"><a xlink:title=" ">
<path fill="none" stroke="#63b8ff" d="M1075.75,-230.3C1065.19,-221.5 1053.8,-211.44 1044,-201.5 1026.26,-183.51 1028.49,-172.28 1008,-157.5 1003.15,-154 997.84,-150.85 992.34,-148.03"/>
<polygon fill="#63b8ff" stroke="#63b8ff" points="1073.67,-233.12 1083.62,-236.76 1078.11,-227.71 1073.67,-233.12"/>
</a>
</g>
</g>
<!-- Node8 -->
<g id="Node000008" class="node">
<title>Node8</title>
<g id="a_Node000008"><a xlink:href="classanonymous__namespace_02json-validator_8cpp_03_1_1object.html#a51137ac019fc30c7ab57f839cd9a3638" target="_top" xlink:title=" ">
<polygon fill="white" stroke="#666666" points="996,-532 861,-532 861,-491 996,-491 996,-532"/>
<text text-anchor="start" x="869" y="-520" font-family="Helvetica,sans-Serif" font-size="10.00">anonymous_namespace</text>
<text text-anchor="start" x="869" y="-509" font-family="Helvetica,sans-Serif" font-size="10.00">{json&#45;validator::cpp}</text>
<text text-anchor="middle" x="928.5" y="-498" font-family="Helvetica,sans-Serif" font-size="10.00">::object::object</text>
</a>
</g>
</g>
<!-- Node3&#45;&gt;Node8 -->
<g id="edge11_Node000003_Node000008" class="edge">
<title>Node3&#45;&gt;Node8</title>
<g id="a_edge11_Node000003_Node000008"><a xlink:title=" ">
<path fill="none" stroke="#63b8ff" d="M1104.48,-288.06C1093.52,-335.95 1065.89,-428.72 1008,-482.5 1004.38,-485.86 1000.34,-488.84 996.05,-491.48"/>
<polygon fill="#63b8ff" stroke="#63b8ff" points="1107.96,-288.52 1106.69,-278.01 1101.13,-287.02 1107.96,-288.52"/>
</a>
</g>
</g>
<!-- Node9 -->
<g id="Node000009" class="node">
<title>Node9</title>
<g id="a_Node000009"><a xlink:href="classnlohmann_1_1json__schema_1_1root__schema.html#aa92bf9509db49548416a244fb4528e3c" target="_top" xlink:title=" ">
<polygon fill="white" stroke="#666666" points="996,-473 861,-473 861,-432 996,-432 996,-473"/>
<text text-anchor="start" x="869" y="-461" font-family="Helvetica,sans-Serif" font-size="10.00">nlohmann::json_schema</text>
<text text-anchor="start" x="869" y="-450" font-family="Helvetica,sans-Serif" font-size="10.00">::root_schema::set_root</text>
<text text-anchor="middle" x="928.5" y="-439" font-family="Helvetica,sans-Serif" font-size="10.00">_schema</text>
</a>
</g>
</g>
<!-- Node3&#45;&gt;Node9 -->
<g id="edge12_Node000003_Node000009" class="edge">
<title>Node3&#45;&gt;Node9</title>
<g id="a_edge12_Node000003_Node000009"><a xlink:title=" ">
<path fill="none" stroke="#63b8ff" d="M1099.03,-287.87C1083.64,-324.8 1052.93,-386.74 1008,-423.5 1004.18,-426.63 999.98,-429.44 995.59,-431.96"/>
<polygon fill="#63b8ff" stroke="#63b8ff" points="1102.46,-288.74 1102.97,-278.16 1095.97,-286.11 1102.46,-288.74"/>
</a>
</g>
</g>
<!-- Node32 -->
<g id="Node000032" class="node">
<title>Node32</title>
<g id="a_Node000032"><a xlink:href="classanonymous__namespace_02json-validator_8cpp_03_1_1type__schema.html#a72ff3c13768d129592b9d088316d0d99" target="_top" xlink:title=" ">
<polygon fill="white" stroke="#666666" points="1008,-414 849,-414 849,-373 1008,-373 1008,-414"/>
<text text-anchor="start" x="857" y="-402" font-family="Helvetica,sans-Serif" font-size="10.00">anonymous_namespace</text>
<text text-anchor="start" x="857" y="-391" font-family="Helvetica,sans-Serif" font-size="10.00">{json&#45;validator::cpp}</text>
<text text-anchor="middle" x="928.5" y="-380" font-family="Helvetica,sans-Serif" font-size="10.00">::type_schema::type_schema</text>
</a>
</g>
</g>
<!-- Node3&#45;&gt;Node32 -->
<g id="edge37_Node000003_Node000032" class="edge">
<title>Node3&#45;&gt;Node32</title>
<g id="a_edge37_Node000003_Node000032"><a xlink:title=" ">
<path fill="none" stroke="#63b8ff" d="M1089.04,-286.33C1070.02,-310.12 1040.33,-343.3 1008,-364.5 1003.38,-367.53 998.41,-370.29 993.28,-372.81"/>
<polygon fill="#63b8ff" stroke="#63b8ff" points="1091.89,-288.37 1095.3,-278.34 1086.38,-284.05 1091.89,-288.37"/>
</a>
</g>
</g>
<!-- Node5&#45;&gt;Node3 -->
<g id="edge7_Node000005_Node000003" class="edge">
<title>Node5&#45;&gt;Node3</title>
<g id="a_edge7_Node000005_Node000003"><a xlink:title=" ">
<path fill="none" stroke="#63b8ff" d="M1006.6,-264.18C1019,-264.31 1031.75,-264.26 1043.87,-264.04"/>
<polygon fill="#63b8ff" stroke="#63b8ff" points="1006.34,-260.68 996.29,-264.04 1006.24,-267.68 1006.34,-260.68"/>
</a>
</g>
</g>
<!-- Node5&#45;&gt;Node5 -->
<g id="edge6_Node000005_Node000005" class="edge">
<title>Node5&#45;&gt;Node5</title>
<g id="a_edge6_Node000005_Node000005"><a xlink:title=" ">
<path fill="none" stroke="#63b8ff" d="M959.81,-287.96C955.16,-292.74 944.72,-296 928.5,-296 902.55,-296 891.4,-287.65 895.05,-278.1"/>
<polygon fill="#63b8ff" stroke="#63b8ff" points="963.25,-288.61 961.95,-278.1 956.41,-287.13 963.25,-288.61"/>
</a>
</g>
</g>
<!-- Node10 -->
<g id="Node000010" class="node">
<title>Node10</title>
<g id="a_Node000010"><a xlink:href="classnlohmann_1_1json__schema_1_1json__validator.html#a13e1d3029c8953bb9c7d1879382edb03" target="_top" xlink:title=" ">
<polygon fill="white" stroke="#666666" points="812,-224 677,-224 677,-183 812,-183 812,-224"/>
<text text-anchor="start" x="685" y="-212" font-family="Helvetica,sans-Serif" font-size="10.00">nlohmann::json_schema</text>
<text text-anchor="start" x="685" y="-201" font-family="Helvetica,sans-Serif" font-size="10.00">::json_validator::set</text>
<text text-anchor="middle" x="744.5" y="-190" font-family="Helvetica,sans-Serif" font-size="10.00">_root_schema</text>
</a>
</g>
</g>
<!-- Node9&#45;&gt;Node10 -->
<g id="edge13_Node000009_Node000010" class="edge">
<title>Node9&#45;&gt;Node10</title>
<g id="a_edge13_Node000009_Node000010"><a xlink:title=" ">
<path fill="none" stroke="#63b8ff" d="M852.53,-426.52C851.32,-425.55 850.14,-424.54 849,-423.5 787.73,-367.28 759.47,-267.31 749.7,-224.21"/>
<polygon fill="#63b8ff" stroke="#63b8ff" points="850.79,-429.58 861,-432.43 854.8,-423.84 850.79,-429.58"/>
</a>
</g>
</g>
<!-- Node30 -->
<g id="Node000030" class="node">
<title>Node30</title>
<g id="a_Node000030"><a xlink:href="classnlohmann_1_1json__schema_1_1json__validator.html#a48f742fda328ff2dc2de223e9452c4d1" target="_top" xlink:title=" ">
<polygon fill="white" stroke="#666666" points="812,-473 677,-473 677,-432 812,-432 812,-473"/>
<text text-anchor="start" x="685" y="-461" font-family="Helvetica,sans-Serif" font-size="10.00">nlohmann::json_schema</text>
<text text-anchor="start" x="685" y="-450" font-family="Helvetica,sans-Serif" font-size="10.00">::json_validator::set</text>
<text text-anchor="middle" x="744.5" y="-439" font-family="Helvetica,sans-Serif" font-size="10.00">_root_schema</text>
</a>
</g>
</g>
<!-- Node9&#45;&gt;Node30 -->
<g id="edge34_Node000009_Node000030" class="edge">
<title>Node9&#45;&gt;Node30</title>
<g id="a_edge34_Node000009_Node000030"><a xlink:title=" ">
<path fill="none" stroke="#63b8ff" d="M850.63,-452.5C837.86,-452.5 824.72,-452.5 812.23,-452.5"/>
<polygon fill="#63b8ff" stroke="#63b8ff" points="850.76,-456 860.76,-452.5 850.76,-449 850.76,-456"/>
</a>
</g>
</g>
<!-- Node11 -->
<g id="Node000011" class="node">
<title>Node11</title>
<g id="a_Node000011"><a xlink:href="classnlohmann_1_1json__schema_1_1json__validator.html#ad8f46dfed69afe463732ae335879dabb" target="_top" xlink:title=" ">
<polygon fill="white" stroke="#666666" points="639,-316 504,-316 504,-275 639,-275 639,-316"/>
<text text-anchor="start" x="512" y="-304" font-family="Helvetica,sans-Serif" font-size="10.00">nlohmann::json_schema</text>
<text text-anchor="start" x="512" y="-293" font-family="Helvetica,sans-Serif" font-size="10.00">::json_validator::json</text>
<text text-anchor="middle" x="571.5" y="-282" font-family="Helvetica,sans-Serif" font-size="10.00">_validator</text>
</a>
</g>
</g>
<!-- Node10&#45;&gt;Node11 -->
<g id="edge14_Node000010_Node000011" class="edge">
<title>Node10&#45;&gt;Node11</title>
<g id="a_edge14_Node000010_Node000011"><a xlink:title=" ">
<path fill="none" stroke="#63b8ff" d="M697.65,-229.07C679.72,-238.99 658.95,-250.37 640,-260.5 631.15,-265.23 621.61,-270.24 612.56,-274.94"/>
<polygon fill="#63b8ff" stroke="#63b8ff" points="699.69,-231.95 706.74,-224.04 696.29,-225.82 699.69,-231.95"/>
</a>
</g>
</g>
<!-- Node23 -->
<g id="Node000023" class="node">
<title>Node23</title>
<g id="a_Node000023"><a xlink:href="format_8cpp.html#ae66f6b31b5ad750f1fe042a706a4e3d4" target="_top" xlink:title=" ">
<polygon fill="white" stroke="#666666" points="399,-213 358,-213 358,-194 399,-194 399,-213"/>
<text text-anchor="middle" x="378.5" y="-201" font-family="Helvetica,sans-Serif" font-size="10.00">main</text>
</a>
</g>
</g>
<!-- Node10&#45;&gt;Node23 -->
<g id="edge26_Node000010_Node000023" class="edge">
<title>Node10&#45;&gt;Node23</title>
<g id="a_edge26_Node000010_Node000023"><a xlink:title=" ">
<path fill="none" stroke="#63b8ff" d="M666.74,-223.34C657.78,-225.05 648.72,-226.5 640,-227.5 579.51,-234.42 563.61,-233.33 503,-227.5 483.11,-225.58 428.55,-214.14 399.05,-207.77"/>
<polygon fill="#63b8ff" stroke="#63b8ff" points="667.69,-226.72 676.8,-221.31 666.31,-219.85 667.69,-226.72"/>
</a>
</g>
</g>
<!-- Node24 -->
<g id="Node000024" class="node">
<title>Node24</title>
<g id="a_Node000024"><a xlink:href="json-schema-validate_8cpp.html#a0ddf1224851353fc92bfbff6f499fa97" target="_top" xlink:title=" ">
<polygon fill="white" stroke="#666666" points="592,-132 551,-132 551,-113 592,-113 592,-132"/>
<text text-anchor="middle" x="571.5" y="-120" font-family="Helvetica,sans-Serif" font-size="10.00">main</text>
</a>
</g>
</g>
<!-- Node10&#45;&gt;Node24 -->
<g id="edge27_Node000010_Node000024" class="edge">
<title>Node10&#45;&gt;Node24</title>
<g id="a_edge27_Node000010_Node000024"><a xlink:title=" ">
<path fill="none" stroke="#63b8ff" d="M700.56,-177.81C682.24,-167.39 660.42,-155.68 640,-146.5 624.23,-139.41 605.69,-132.94 592.03,-128.51"/>
<polygon fill="#63b8ff" stroke="#63b8ff" points="698.83,-180.86 709.24,-182.8 702.32,-174.79 698.83,-180.86"/>
</a>
</g>
</g>
<!-- Node25 -->
<g id="Node000025" class="node">
<title>Node25</title>
<g id="a_Node000025"><a xlink:href="errors_8cpp.html#a840291bc02cba5474a4cb46a9b9566fe" target="_top" xlink:title=" ">
<polygon fill="white" stroke="#666666" points="592,-95 551,-95 551,-76 592,-76 592,-95"/>
<text text-anchor="middle" x="571.5" y="-83" font-family="Helvetica,sans-Serif" font-size="10.00">main</text>
</a>
</g>
</g>
<!-- Node10&#45;&gt;Node25 -->
<g id="edge28_Node000010_Node000025" class="edge">
<title>Node10&#45;&gt;Node25</title>
<g id="a_edge28_Node000010_Node000025"><a xlink:title=" ">
<path fill="none" stroke="#63b8ff" d="M720.91,-174.77C701.69,-152.21 672.16,-121.67 640,-103.5 625.11,-95.09 606.15,-90.48 592.11,-88.04"/>
<polygon fill="#63b8ff" stroke="#63b8ff" points="718.41,-177.24 727.51,-182.68 723.79,-172.76 718.41,-177.24"/>
</a>
</g>
</g>
<!-- Node26 -->
<g id="Node000026" class="node">
<title>Node26</title>
<g id="a_Node000026"><a xlink:href="namespaceanonymous__namespace_02issue-105-verbose-combination-errors_8cpp_03.html#a5d2fa2fa048e5520dbcbad50438526ad" target="_top" xlink:title=" ">
<polygon fill="white" stroke="#666666" points="467,-139 290,-139 290,-98 467,-98 467,-139"/>
<text text-anchor="start" x="298" y="-127" font-family="Helvetica,sans-Serif" font-size="10.00">anonymous_namespace</text>
<text text-anchor="start" x="298" y="-116" font-family="Helvetica,sans-Serif" font-size="10.00">{issue&#45;105&#45;verbose&#45;combination</text>
<text text-anchor="middle" x="378.5" y="-105" font-family="Helvetica,sans-Serif" font-size="10.00">&#45;errors::cpp}::validate</text>
</a>
</g>
</g>
<!-- Node10&#45;&gt;Node26 -->
<g id="edge29_Node000010_Node000026" class="edge">
<title>Node10&#45;&gt;Node26</title>
<g id="a_edge29_Node000010_Node000026"><a xlink:title=" ">
<path fill="none" stroke="#63b8ff" d="M666.84,-185.6C608.46,-171.97 528.05,-153.19 467.13,-138.96"/>
<polygon fill="#63b8ff" stroke="#63b8ff" points="666.2,-189.04 676.74,-187.91 667.79,-182.23 666.2,-189.04"/>
</a>
</g>
</g>
<!-- Node12 -->
<g id="Node000012" class="node">
<title>Node12</title>
<g id="a_Node000012"><a xlink:href="classmqtt_1_1bridge_1_1lib_1_1BridgeStore.html#ab8ade196caaa4d233f8dc1625619ed9a" target="_top" xlink:title=" ">
<polygon fill="white" stroke="#666666" points="458.5,-261.5 298.5,-261.5 298.5,-231.5 458.5,-231.5 458.5,-261.5"/>
<text text-anchor="start" x="306.5" y="-249.5" font-family="Helvetica,sans-Serif" font-size="10.00">mqtt::bridge::lib::</text>
<text text-anchor="middle" x="378.5" y="-238.5" font-family="Helvetica,sans-Serif" font-size="10.00">BridgeStore::loadAndValidate</text>
</a>
</g>
</g>
<!-- Node11&#45;&gt;Node12 -->
<g id="edge15_Node000011_Node000012" class="edge">
<title>Node11&#45;&gt;Node12</title>
<g id="a_edge15_Node000011_Node000012"><a xlink:title=" ">
<path fill="none" stroke="#63b8ff" d="M494.04,-275.89C475.42,-271.11 455.8,-266.07 438.15,-261.55"/>
<polygon fill="#63b8ff" stroke="#63b8ff" points="493.41,-279.34 503.97,-278.43 495.15,-272.56 493.41,-279.34"/>
</a>
</g>
</g>
<!-- Node13 -->
<g id="Node000013" class="node">
<title>Node13</title>
<g id="a_Node000013"><a xlink:href="classmqtt_1_1lib_1_1JsonMappingReader.html#a77231994bd3ef854feb2db79dd71746b" target="_top" xlink:title=" ">
<polygon fill="white" stroke="#666666" points="459,-358.5 298,-358.5 298,-328.5 459,-328.5 459,-358.5"/>
<text text-anchor="start" x="306" y="-346.5" font-family="Helvetica,sans-Serif" font-size="10.00">mqtt::lib::JsonMappingReader</text>
<text text-anchor="middle" x="378.5" y="-335.5" font-family="Helvetica,sans-Serif" font-size="10.00">::readMappingFromFile</text>
</a>
</g>
</g>
<!-- Node11&#45;&gt;Node13 -->
<g id="edge16_Node000011_Node000013" class="edge">
<title>Node11&#45;&gt;Node13</title>
<g id="a_edge16_Node000011_Node000013"><a xlink:title=" ">
<path fill="none" stroke="#63b8ff" d="M494.24,-314.66C476.01,-319.25 456.79,-324.08 439.41,-328.44"/>
<polygon fill="#63b8ff" stroke="#63b8ff" points="495.12,-318.05 503.97,-312.22 493.41,-311.26 495.12,-318.05"/>
</a>
</g>
</g>
<!-- Node17 -->
<g id="Node000017" class="node">
<title>Node17</title>
<g id="a_Node000017"><a xlink:href="issue-293_8cpp.html#a8ee39622edc153e58dfa5711984ac185" target="_top" xlink:title=" ">
<polygon fill="white" stroke="#666666" points="419.5,-410 337.5,-410 337.5,-391 419.5,-391 419.5,-410"/>
<text text-anchor="middle" x="378.5" y="-398" font-family="Helvetica,sans-Serif" font-size="10.00">should_throw</text>
</a>
</g>
</g>
<!-- Node11&#45;&gt;Node17 -->
<g id="edge20_Node000011_Node000017" class="edge">
<title>Node11&#45;&gt;Node17</title>
<g id="a_edge20_Node000011_Node000017"><a xlink:title=" ">
<path fill="none" stroke="#63b8ff" d="M536.83,-322.11C517.22,-336.77 491.58,-354.57 467,-367.5 448.9,-377.02 427.42,-385.17 410.27,-390.98"/>
<polygon fill="#63b8ff" stroke="#63b8ff" points="538.98,-324.86 544.84,-316.04 534.76,-319.28 538.98,-324.86"/>
</a>
</g>
</g>
<!-- Node19 -->
<g id="Node000019" class="node">
<title>Node19</title>
<g id="a_Node000019"><a xlink:href="classnlohmann_1_1json__patch.html#ac7aea9496e07beb821fb9e5423fb76f5" target="_top" xlink:title=" ">
<polygon fill="white" stroke="#666666" points="440.5,-309.5 316.5,-309.5 316.5,-279.5 440.5,-279.5 440.5,-309.5"/>
<text text-anchor="start" x="324.5" y="-297.5" font-family="Helvetica,sans-Serif" font-size="10.00">nlohmann::json_patch</text>
<text text-anchor="middle" x="378.5" y="-286.5" font-family="Helvetica,sans-Serif" font-size="10.00">::validateJsonPatch</text>
</a>
</g>
</g>
<!-- Node11&#45;&gt;Node19 -->
<g id="edge22_Node000011_Node000019" class="edge">
<title>Node11&#45;&gt;Node19</title>
<g id="a_edge22_Node000011_Node000019"><a xlink:title=" ">
<path fill="none" stroke="#63b8ff" d="M493.7,-295.1C476.07,-295.01 457.55,-294.91 440.68,-294.82"/>
<polygon fill="#63b8ff" stroke="#63b8ff" points="493.95,-298.6 503.97,-295.15 493.98,-291.6 493.95,-298.6"/>
</a>
</g>
</g>
<!-- Node14 -->
<g id="Node000014" class="node">
<title>Node14</title>
<g id="a_Node000014"><a xlink:href="classmqtt_1_1mqttintegrator_1_1SocketContextFactory.html#a0667981d3feaa8d66a6ba2ecb81dc900" target="_top" xlink:title=" ">
<polygon fill="white" stroke="#666666" points="230,-366 101,-366 101,-325 230,-325 230,-366"/>
<text text-anchor="start" x="109" y="-354" font-family="Helvetica,sans-Serif" font-size="10.00">mqtt::mqttintegrator</text>
<text text-anchor="start" x="109" y="-343" font-family="Helvetica,sans-Serif" font-size="10.00">::SocketContextFactory</text>
<text text-anchor="middle" x="165.5" y="-332" font-family="Helvetica,sans-Serif" font-size="10.00">::create</text>
</a>
</g>
</g>
<!-- Node13&#45;&gt;Node14 -->
<g id="edge17_Node000013_Node000014" class="edge">
<title>Node13&#45;&gt;Node14</title>
<g id="a_edge17_Node000013_Node000014"><a xlink:title=" ">
<path fill="none" stroke="#63b8ff" d="M287.71,-344.35C268.4,-344.53 248.37,-344.72 230.28,-344.9"/>
<polygon fill="#63b8ff" stroke="#63b8ff" points="287.76,-347.85 297.73,-344.26 287.7,-340.85 287.76,-347.85"/>
</a>
</g>
</g>
<!-- Node15 -->
<g id="Node000015" class="node">
<title>Node15</title>
<g id="a_Node000015"><a xlink:href="classmqtt_1_1mqttbroker_1_1SocketContextFactory.html#a84a300c6ea4e8fc1e0370f5460a64e9a" target="_top" xlink:title=" ">
<polygon fill="white" stroke="#666666" points="234.5,-306.5 96.5,-306.5 96.5,-276.5 234.5,-276.5 234.5,-306.5"/>
<text text-anchor="start" x="104.5" y="-294.5" font-family="Helvetica,sans-Serif" font-size="10.00">mqtt::mqttbroker::Socket</text>
<text text-anchor="middle" x="165.5" y="-283.5" font-family="Helvetica,sans-Serif" font-size="10.00">ContextFactory::create</text>
</a>
</g>
</g>
<!-- Node13&#45;&gt;Node15 -->
<g id="edge18_Node000013_Node000015" class="edge">
<title>Node13&#45;&gt;Node15</title>
<g id="a_edge18_Node000013_Node000015"><a xlink:title=" ">
<path fill="none" stroke="#63b8ff" d="M306.43,-325.99C280.79,-319.67 252.09,-312.59 227.39,-306.51"/>
<polygon fill="#63b8ff" stroke="#63b8ff" points="305.92,-329.46 316.47,-328.46 307.6,-322.67 305.92,-329.46"/>
</a>
</g>
</g>
<!-- Node16 -->
<g id="Node000016" class="node">
<title>Node16</title>
<g id="a_Node000016"><a xlink:href="classmqtt_1_1mqttintegrator_1_1websocket_1_1SubProtocolFactory.html#ae88373a69cdee4d08cf58c4c618041d6" target="_top" xlink:title=" ">
<polygon fill="white" stroke="#666666" points="252.5,-425 78.5,-425 78.5,-384 252.5,-384 252.5,-425"/>
<text text-anchor="start" x="86.5" y="-413" font-family="Helvetica,sans-Serif" font-size="10.00">mqtt::mqttintegrator</text>
<text text-anchor="start" x="86.5" y="-402" font-family="Helvetica,sans-Serif" font-size="10.00">::websocket::SubProtocolFactory</text>
<text text-anchor="middle" x="165.5" y="-391" font-family="Helvetica,sans-Serif" font-size="10.00">::create</text>
</a>
</g>
</g>
<!-- Node13&#45;&gt;Node16 -->
<g id="edge19_Node000013_Node000016" class="edge">
<title>Node13&#45;&gt;Node16</title>
<g id="a_edge19_Node000013_Node000016"><a xlink:title=" ">
<path fill="none" stroke="#63b8ff" d="M315.74,-361.35C291.29,-368.42 263.03,-376.59 237.73,-383.91"/>
<polygon fill="#63b8ff" stroke="#63b8ff" points="316.98,-364.64 325.61,-358.5 315.03,-357.92 316.98,-364.64"/>
</a>
</g>
</g>
<!-- Node18 -->
<g id="Node000018" class="node">
<title>Node18</title>
<g id="a_Node000018"><a xlink:href="issue-293_8cpp.html#a840291bc02cba5474a4cb46a9b9566fe" target="_top" xlink:title=" ">
<polygon fill="white" stroke="#666666" points="186,-462 145,-462 145,-443 186,-443 186,-462"/>
<text text-anchor="middle" x="165.5" y="-450" font-family="Helvetica,sans-Serif" font-size="10.00">main</text>
</a>
</g>
</g>
<!-- Node17&#45;&gt;Node18 -->
<g id="edge21_Node000017_Node000018" class="edge">
<title>Node17&#45;&gt;Node18</title>
<g id="a_edge21_Node000017_Node000018"><a xlink:title=" ">
<path fill="none" stroke="#63b8ff" d="M335.38,-412.83C311.59,-419.62 281.25,-427.95 254,-434.5 230.78,-440.08 203.83,-445.46 186.04,-448.86"/>
<polygon fill="#63b8ff" stroke="#63b8ff" points="336.5,-416.15 345.15,-410.03 334.57,-409.43 336.5,-416.15"/>
</a>
</g>
</g>
<!-- Node20 -->
<g id="Node000020" class="node">
<title>Node20</title>
<g id="a_Node000020"><a xlink:href="classnlohmann_1_1json__patch.html#ae61d410c3afe7cf9b7a9589819e8f94a" target="_top" xlink:title=" ">
<polygon fill="white" stroke="#666666" points="227.5,-258.5 103.5,-258.5 103.5,-228.5 227.5,-228.5 227.5,-258.5"/>
<text text-anchor="start" x="111.5" y="-246.5" font-family="Helvetica,sans-Serif" font-size="10.00">nlohmann::json_patch</text>
<text text-anchor="middle" x="165.5" y="-235.5" font-family="Helvetica,sans-Serif" font-size="10.00">::json_patch</text>
</a>
</g>
</g>
<!-- Node19&#45;&gt;Node20 -->
<g id="edge23_Node000019_Node000020" class="edge">
<title>Node19&#45;&gt;Node20</title>
<g id="a_edge23_Node000019_Node000020"><a xlink:title=" ">
<path fill="none" stroke="#63b8ff" d="M306.48,-277.33C280.95,-271.16 252.39,-264.26 227.76,-258.31"/>
<polygon fill="#63b8ff" stroke="#63b8ff" points="305.93,-280.8 316.47,-279.75 307.57,-274 305.93,-280.8"/>
</a>
</g>
</g>
<!-- Node21 -->
<g id="Node000021" class="node">
<title>Node21</title>
<g id="a_Node000021"><a xlink:href="classnlohmann_1_1json__patch.html#a9ed4f8e610b70b973f9fd59696d5c10b" target="_top" xlink:title=" ">
<polygon fill="white" stroke="#666666" points="227.5,-210.5 103.5,-210.5 103.5,-180.5 227.5,-180.5 227.5,-210.5"/>
<text text-anchor="start" x="111.5" y="-198.5" font-family="Helvetica,sans-Serif" font-size="10.00">nlohmann::json_patch</text>
<text text-anchor="middle" x="165.5" y="-187.5" font-family="Helvetica,sans-Serif" font-size="10.00">::json_patch</text>
</a>
</g>
</g>
<!-- Node19&#45;&gt;Node21 -->
<g id="edge24_Node000019_Node000021" class="edge">
<title>Node19&#45;&gt;Node21</title>
<g id="a_edge24_Node000019_Node000021"><a xlink:title=" ">
<path fill="none" stroke="#63b8ff" d="M306.77,-279.81C300.85,-277.2 295.16,-274.12 290,-270.5 267.29,-254.56 276.71,-235.44 254,-219.5 246.13,-213.98 237.05,-209.73 227.77,-206.45"/>
<polygon fill="#63b8ff" stroke="#63b8ff" points="305.64,-283.13 316.23,-283.55 308.21,-276.62 305.64,-283.13"/>
</a>
</g>
</g>
<!-- Node22 -->
<g id="Node000022" class="node">
<title>Node22</title>
<g id="a_Node000022"><a xlink:href="test_2json-patch_8cpp.html#a840291bc02cba5474a4cb46a9b9566fe" target="_top" xlink:title=" ">
<polygon fill="white" stroke="#666666" points="41,-205 0,-205 0,-186 41,-186 41,-205"/>
<text text-anchor="middle" x="20.5" y="-193" font-family="Helvetica,sans-Serif" font-size="10.00">main</text>
</a>
</g>
</g>
<!-- Node21&#45;&gt;Node22 -->
<g id="edge25_Node000021_Node000022" class="edge">
<title>Node21&#45;&gt;Node22</title>
<g id="a_edge25_Node000021_Node000022"><a xlink:title=" ">
<path fill="none" stroke="#63b8ff" d="M93.44,-195.5C74.25,-195.5 55.02,-195.5 41.28,-195.5"/>
<polygon fill="#63b8ff" stroke="#63b8ff" points="93.44,-199 103.44,-195.5 93.44,-192 93.44,-199"/>
</a>
</g>
</g>
<!-- Node27 -->
<g id="Node000027" class="node">
<title>Node27</title>
<g id="a_Node000027"><a xlink:href="namespaceanonymous__namespace_02issue-105-verbose-combination-errors_8cpp_03.html#a4b7578a08dda4165bf9c386de4bc2bed" target="_top" xlink:title=" ">
<polygon fill="white" stroke="#666666" points="254,-151 77,-151 77,-110 254,-110 254,-151"/>
<text text-anchor="start" x="85" y="-139" font-family="Helvetica,sans-Serif" font-size="10.00">anonymous_namespace</text>
<text text-anchor="start" x="85" y="-128" font-family="Helvetica,sans-Serif" font-size="10.00">{issue&#45;105&#45;verbose&#45;combination</text>
<text text-anchor="middle" x="165.5" y="-117" font-family="Helvetica,sans-Serif" font-size="10.00">&#45;errors::cpp}::simpleTest</text>
</a>
</g>
</g>
<!-- Node26&#45;&gt;Node27 -->
<g id="edge30_Node000026_Node000027" class="edge">
<title>Node26&#45;&gt;Node27</title>
<g id="a_edge30_Node000026_Node000027"><a xlink:title=" ">
<path fill="none" stroke="#63b8ff" d="M279.86,-124.05C271.3,-124.54 262.68,-125.03 254.22,-125.51"/>
<polygon fill="#63b8ff" stroke="#63b8ff" points="280.06,-127.55 289.85,-123.48 279.67,-120.56 280.06,-127.55"/>
</a>
</g>
</g>
<!-- Node29 -->
<g id="Node000029" class="node">
<title>Node29</title>
<g id="a_Node000029"><a xlink:href="namespaceanonymous__namespace_02issue-105-verbose-combination-errors_8cpp_03.html#a6c5072c56623259eab0124fc223a4bfc" target="_top" xlink:title=" ">
<polygon fill="white" stroke="#666666" points="254,-92 77,-92 77,-51 254,-51 254,-92"/>
<text text-anchor="start" x="85" y="-80" font-family="Helvetica,sans-Serif" font-size="10.00">anonymous_namespace</text>
<text text-anchor="start" x="85" y="-69" font-family="Helvetica,sans-Serif" font-size="10.00">{issue&#45;105&#45;verbose&#45;combination</text>
<text text-anchor="middle" x="165.5" y="-58" font-family="Helvetica,sans-Serif" font-size="10.00">&#45;errors::cpp}::verboseTest</text>
</a>
</g>
</g>
<!-- Node26&#45;&gt;Node29 -->
<g id="edge32_Node000026_Node000029" class="edge">
<title>Node26&#45;&gt;Node29</title>
<g id="a_edge32_Node000026_Node000029"><a xlink:title=" ">
<path fill="none" stroke="#63b8ff" d="M279.86,-96.75C271.3,-94.84 262.68,-92.92 254.22,-91.04"/>
<polygon fill="#63b8ff" stroke="#63b8ff" points="279.33,-100.22 289.85,-98.98 280.85,-93.39 279.33,-100.22"/>
</a>
</g>
</g>
<!-- Node28 -->
<g id="Node000028" class="node">
<title>Node28</title>
<g id="a_Node000028"><a xlink:href="issue-105-verbose-combination-errors_8cpp.html#a8216c1645620cdb2f629cde3ac02ffef" target="_top" xlink:title=" ">
<polygon fill="white" stroke="#666666" points="41,-111 0,-111 0,-92 41,-92 41,-111"/>
<text text-anchor="middle" x="20.5" y="-99" font-family="Helvetica,sans-Serif" font-size="10.00">main</text>
</a>
</g>
</g>
<!-- Node27&#45;&gt;Node28 -->
<g id="edge31_Node000027_Node000028" class="edge">
<title>Node27&#45;&gt;Node28</title>
<g id="a_edge31_Node000027_Node000028"><a xlink:title=" ">
<path fill="none" stroke="#63b8ff" d="M66.69,-110.67C57.23,-108.74 48.47,-106.97 41.24,-105.5"/>
<polygon fill="#63b8ff" stroke="#63b8ff" points="66.29,-114.15 76.79,-112.71 67.68,-107.29 66.29,-114.15"/>
</a>
</g>
</g>
<!-- Node29&#45;&gt;Node28 -->
<g id="edge33_Node000029_Node000028" class="edge">
<title>Node29&#45;&gt;Node28</title>
<g id="a_edge33_Node000029_Node000028"><a xlink:title=" ">
<path fill="none" stroke="#63b8ff" d="M66.99,-91.96C57.41,-93.97 48.55,-95.83 41.24,-97.36"/>
<polygon fill="#63b8ff" stroke="#63b8ff" points="67.72,-95.38 76.79,-89.9 66.28,-88.53 67.72,-95.38"/>
</a>
</g>
</g>
<!-- Node31 -->
<g id="Node000031" class="node">
<title>Node31</title>
<g id="a_Node000031"><a xlink:href="classnlohmann_1_1json__schema_1_1json__validator.html#a9b658ef82ef777074679e2a60d539821" target="_top" xlink:title=" ">
<polygon fill="white" stroke="#666666" points="639,-473 504,-473 504,-432 639,-432 639,-473"/>
<text text-anchor="start" x="512" y="-461" font-family="Helvetica,sans-Serif" font-size="10.00">nlohmann::json_schema</text>
<text text-anchor="start" x="512" y="-450" font-family="Helvetica,sans-Serif" font-size="10.00">::json_validator::json</text>
<text text-anchor="middle" x="571.5" y="-439" font-family="Helvetica,sans-Serif" font-size="10.00">_validator</text>
</a>
</g>
</g>
<!-- Node30&#45;&gt;Node31 -->
<g id="edge35_Node000030_Node000031" class="edge">
<title>Node30&#45;&gt;Node31</title>
<g id="a_edge35_Node000030_Node000031"><a xlink:title=" ">
<path fill="none" stroke="#63b8ff" d="M666.64,-452.5C657.49,-452.5 648.2,-452.5 639.2,-452.5"/>
<polygon fill="#63b8ff" stroke="#63b8ff" points="666.9,-456 676.9,-452.5 666.9,-449 666.9,-456"/>
</a>
</g>
</g>
<!-- Node31&#45;&gt;Node18 -->
<g id="edge36_Node000031_Node000018" class="edge">
<title>Node31&#45;&gt;Node18</title>
<g id="a_edge36_Node000031_Node000018"><a xlink:title=" ">
<path fill="none" stroke="#63b8ff" d="M493.6,-452.5C398.08,-452.5 241,-452.5 186.14,-452.5"/>
<polygon fill="#63b8ff" stroke="#63b8ff" points="493.79,-456 503.79,-452.5 493.79,-449 493.79,-456"/>
</a>
</g>
</g>
<!-- Node33&#45;&gt;Node3 -->
<g id="edge39_Node000033_Node000003" class="edge">
<title>Node33&#45;&gt;Node3</title>
<g id="a_edge39_Node000033_Node000003"><a xlink:title=" ">
<path fill="none" stroke="#63b8ff" d="M1204.73,-271.69C1196.17,-270.37 1187.5,-269.04 1179.08,-267.74"/>
<polygon fill="#63b8ff" stroke="#63b8ff" points="1204.29,-275.16 1214.71,-273.22 1205.36,-268.24 1204.29,-275.16"/>
</a>
</g>
</g>
<!-- Node35 -->
<g id="Node000035" class="node">
<title>Node35</title>
<g id="a_Node000035"><a xlink:href="classnlohmann_1_1json__schema_1_1json__validator.html#ae330a21f43f257fec1d8109f51827706" target="_top" xlink:title=" ">
<polygon fill="white" stroke="#666666" points="813,-98.5 676,-98.5 676,-68.5 813,-68.5 813,-98.5"/>
<text text-anchor="start" x="684" y="-86.5" font-family="Helvetica,sans-Serif" font-size="10.00">nlohmann::json_schema</text>
<text text-anchor="middle" x="744.5" y="-75.5" font-family="Helvetica,sans-Serif" font-size="10.00">::json_validator::validate</text>
</a>
</g>
</g>
<!-- Node34&#45;&gt;Node35 -->
<g id="edge41_Node000034_Node000035" class="edge">
<title>Node34&#45;&gt;Node35</title>
<g id="a_edge41_Node000034_Node000035"><a xlink:title=" ">
<path fill="none" stroke="#63b8ff" d="M1090.01,-155.18C1070.88,-136.02 1040.48,-109.65 1008,-97.5 944.95,-73.91 867.41,-72.86 813.01,-76.2"/>
<polygon fill="#63b8ff" stroke="#63b8ff" points="1087.53,-157.64 1097.01,-162.37 1092.55,-152.76 1087.53,-157.64"/>
</a>
</g>
</g>
<!-- Node35&#45;&gt;Node24 -->
<g id="edge43_Node000035_Node000024" class="edge">
<title>Node35&#45;&gt;Node24</title>
<g id="a_edge43_Node000035_Node000024"><a xlink:title=" ">
<path fill="none" stroke="#63b8ff" d="M667.29,-100.88C639.67,-107.18 610.75,-113.78 592.22,-118"/>
<polygon fill="#63b8ff" stroke="#63b8ff" points="668.42,-104.21 677.39,-98.58 666.86,-97.39 668.42,-104.21"/>
</a>
</g>
</g>
<!-- Node35&#45;&gt;Node25 -->
<g id="edge44_Node000035_Node000025" class="edge">
<title>Node35&#45;&gt;Node25</title>
<g id="a_edge44_Node000035_Node000025"><a xlink:title=" ">
<path fill="none" stroke="#63b8ff" d="M665.6,-84.41C638.51,-84.73 610.38,-85.06 592.24,-85.27"/>
<polygon fill="#63b8ff" stroke="#63b8ff" points="665.96,-87.91 675.92,-84.29 665.88,-80.91 665.96,-87.91"/>
</a>
</g>
</g>
<!-- Node35&#45;&gt;Node26 -->
<g id="edge51_Node000035_Node000026" class="edge">
<title>Node35&#45;&gt;Node26</title>
<g id="a_edge51_Node000035_Node000026"><a xlink:title=" ">
<path fill="none" stroke="#63b8ff" d="M665.85,-67.52C618.41,-60.35 556.72,-55.65 503,-66.5 472.9,-72.58 441,-86.21 417.17,-98"/>
<polygon fill="#63b8ff" stroke="#63b8ff" points="665.33,-70.99 675.75,-69.09 666.42,-64.07 665.33,-70.99"/>
</a>
</g>
</g>
<!-- Node36 -->
<g id="Node000036" class="node">
<title>Node36</title>
<g id="a_Node000036"><a xlink:href="readme_8cpp.html#ae66f6b31b5ad750f1fe042a706a4e3d4" target="_top" xlink:title=" ">
<polygon fill="white" stroke="#666666" points="592,-19 551,-19 551,0 592,0 592,-19"/>
<text text-anchor="middle" x="571.5" y="-7" font-family="Helvetica,sans-Serif" font-size="10.00">main</text>
</a>
</g>
</g>
<!-- Node35&#45;&gt;Node36 -->
<g id="edge42_Node000035_Node000036" class="edge">
<title>Node35&#45;&gt;Node36</title>
<g id="a_edge42_Node000035_Node000036"><a xlink:title=" ">
<path fill="none" stroke="#63b8ff" d="M705.35,-63.84C686,-54.19 661.99,-42.69 640,-33.5 624.16,-26.88 605.79,-20.43 592.21,-15.88"/>
<polygon fill="#63b8ff" stroke="#63b8ff" points="703.94,-67.05 714.44,-68.42 707.08,-60.8 703.94,-67.05"/>
</a>
</g>
</g>
<!-- Node37 -->
<g id="Node000037" class="node">
<title>Node37</title>
<g id="a_Node000037"><a xlink:href="classnlohmann_1_1json__schema_1_1json__validator.html#affff379ae30b7ab48c81d5b65e34f613" target="_top" xlink:title=" ">
<polygon fill="white" stroke="#666666" points="640,-218.5 503,-218.5 503,-188.5 640,-188.5 640,-218.5"/>
<text text-anchor="start" x="511" y="-206.5" font-family="Helvetica,sans-Serif" font-size="10.00">nlohmann::json_schema</text>
<text text-anchor="middle" x="571.5" y="-195.5" font-family="Helvetica,sans-Serif" font-size="10.00">::json_validator::validate</text>
</a>
</g>
</g>
<!-- Node35&#45;&gt;Node37 -->
<g id="edge45_Node000035_Node000037" class="edge">
<title>Node35&#45;&gt;Node37</title>
<g id="a_edge45_Node000035_Node000037"><a xlink:title=" ">
<path fill="none" stroke="#63b8ff" d="M713.63,-104.46C679.41,-128.47 624.21,-167.21 593.98,-188.43"/>
<polygon fill="#63b8ff" stroke="#63b8ff" points="715.67,-107.31 721.84,-98.7 711.65,-101.58 715.67,-107.31"/>
</a>
</g>
</g>
<!-- Node37&#45;&gt;Node12 -->
<g id="edge46_Node000037_Node000012" class="edge">
<title>Node37&#45;&gt;Node12</title>
<g id="a_edge46_Node000037_Node000012"><a xlink:title=" ">
<path fill="none" stroke="#63b8ff" d="M493.53,-220.83C477.87,-224.35 461.53,-228.03 446.26,-231.47"/>
<polygon fill="#63b8ff" stroke="#63b8ff" points="494.71,-224.15 503.7,-218.54 493.17,-217.32 494.71,-224.15"/>
</a>
</g>
</g>
<!-- Node37&#45;&gt;Node19 -->
<g id="edge50_Node000037_Node000019" class="edge">
<title>Node37&#45;&gt;Node19</title>
<g id="a_edge50_Node000037_Node000019"><a xlink:title=" ">
<path fill="none" stroke="#63b8ff" d="M543.23,-224.48C523.09,-239.12 494.52,-258.17 467,-270.5 458.66,-274.23 449.61,-277.51 440.6,-280.34"/>
<polygon fill="#63b8ff" stroke="#63b8ff" points="545.35,-227.27 551.31,-218.51 541.19,-221.64 545.35,-227.27"/>
</a>
</g>
</g>
<!-- Node37&#45;&gt;Node23 -->
<g id="edge47_Node000037_Node000023" class="edge">
<title>Node37&#45;&gt;Node23</title>
<g id="a_edge47_Node000037_Node000023"><a xlink:title=" ">
<path fill="none" stroke="#63b8ff" d="M492.87,-203.5C458.66,-203.5 421.28,-203.5 399.14,-203.5"/>
<polygon fill="#63b8ff" stroke="#63b8ff" points="492.89,-207 502.89,-203.5 492.89,-200 492.89,-207"/>
</a>
</g>
</g>
<!-- Node37&#45;&gt;Node26 -->
<g id="edge49_Node000037_Node000026" class="edge">
<title>Node37&#45;&gt;Node26</title>
<g id="a_edge49_Node000037_Node000026"><a xlink:title=" ">
<path fill="none" stroke="#63b8ff" d="M521.79,-184.23C515.35,-181.2 508.93,-177.93 503,-174.5 485.69,-164.48 484.72,-156.77 467,-147.5 461.19,-144.46 454.99,-141.65 448.68,-139.07"/>
<polygon fill="#63b8ff" stroke="#63b8ff" points="520.62,-187.54 531.18,-188.47 523.51,-181.16 520.62,-187.54"/>
</a>
</g>
</g>
<!-- Node38 -->
<g id="Node000038" class="node">
<title>Node38</title>
<g id="a_Node000038"><a xlink:href="issue-189-default-values_8cpp.html#a840291bc02cba5474a4cb46a9b9566fe" target="_top" xlink:title=" ">
<polygon fill="white" stroke="#666666" points="399,-176 358,-176 358,-157 399,-157 399,-176"/>
<text text-anchor="middle" x="378.5" y="-164" font-family="Helvetica,sans-Serif" font-size="10.00">main</text>
</a>
</g>
</g>
<!-- Node37&#45;&gt;Node38 -->
<g id="edge48_Node000037_Node000038" class="edge">
<title>Node37&#45;&gt;Node38</title>
<g id="a_edge48_Node000037_Node000038"><a xlink:title=" ">
<path fill="none" stroke="#63b8ff" d="M492.87,-188.46C458.66,-181.83 421.28,-174.59 399.14,-170.3"/>
<polygon fill="#63b8ff" stroke="#63b8ff" points="492.41,-191.94 502.89,-190.4 493.74,-185.07 492.41,-191.94"/>
</a>
</g>
</g>
</g>
</svg>
