<?xml version="1.0" encoding="UTF-8" standalone="no"?>
<!DOCTYPE svg PUBLIC "-//W3C//DTD SVG 1.1//EN"
 "http://www.w3.org/Graphics/SVG/1.1/DTD/svg11.dtd">
<!-- Generated by graphviz version 2.42.4 (0)
 -->
<!-- Title: mqtt::bridge::lib::Mqtt::onConnected Pages: 1 -->
<!--zoomable 470 -->

<svg id="main" version="1.1" xmlns="http://www.w3.org/2000/svg" xmlns:xlink="http://www.w3.org/1999/xlink" xml:space="preserve" onload="init(evt)">
<style type="text/css"><![CDATA[
.node, .edge {opacity: 0.7;}
.node.selected, .edge.selected {opacity: 1;}
.edge:hover path { stroke: red; }
.edge:hover polygon { stroke: red; fill: red; }
]]></style>

<defs>
  <circle id="rim" cx="0" cy="0" r="7"/>
  <circle id="rim2" cx="0" cy="0" r="3.5"/>
  <g id="zoomPlus">
    <use xlink:href="#rim" fill="#404040"><set attributeName="fill" to="#808080" begin="zoomplus.mouseover" end="zoomplus.mouseout"/></use>
    <path d="M-4,0h8M0,-4v8" fill="none" stroke="white" stroke-width="1.5" pointer-events="none"/>
  </g>
  <g id="zoomMin">
    <use xlink:href="#rim" fill="#404040"><set attributeName="fill" to="#808080" begin="zoomminus.mouseover" end="zoomminus.mouseout"/></use>
    <path d="M-4,0h8" fill="none" stroke="white" stroke-width="1.5" pointer-events="none"/>
  </g>
  <g id="arrowUp" transform="translate(30 24)">
    <use xlink:href="#rim"/>
    <path pointer-events="none" fill="none" stroke="white" stroke-width="1.5" d="M0,-3.0v7 M-2.5,-0.5L0,-3.0L2.5,-0.5"/>
  </g>
  <g id="arrowRight" transform="rotate(90) translate(36 -43)">
    <use xlink:href="#rim"/>
    <path pointer-events="none" fill="none" stroke="white" stroke-width="1.5" d="M0,-3.0v7 M-2.5,-0.5L0,-3.0L2.5,-0.5"/>
  </g>
  <g id="arrowDown" transform="rotate(180) translate(-30 -48)">
    <use xlink:href="#rim"/>
    <path pointer-events="none" fill="none" stroke="white" stroke-width="1.5" d="M0,-3.0v7 M-2.5,-0.5L0,-3.0L2.5,-0.5"/>
  </g>
  <g id="arrowLeft" transform="rotate(270) translate(-36 17)">
    <use xlink:href="#rim"/>
    <path pointer-events="none" fill="none" stroke="white" stroke-width="1.5" d="M0,-3.0v7 M-2.5,-0.5L0,-3.0L2.5,-0.5"/>
  </g>
  <g id="resetDef">
    <use xlink:href="#rim2" fill="#404040"><set attributeName="fill" to="#808080" begin="reset.mouseover" end="reset.mouseout"/></use>
  </g>
</defs>
<script type="application/ecmascript">
var viewWidth = 299;
var viewHeight = 470;
var sectionId = 'dynsection-5';
</script>
<script type="application/ecmascript" xlink:href="svg.min.js"/>
<svg id="graph" class="graph">
<g id="viewport">
<title>mqtt::bridge::lib::Mqtt::onConnected</title>
<!-- Node1 -->
<g id="Node000001" class="node">
<title>Node1</title>
<g id="a_Node000001"><a xlink:title=" ">
<polygon fill="#999999" stroke="#666666" points="109,-246 0,-246 0,-216 109,-216 109,-246"/>
<text text-anchor="start" x="8" y="-234" font-family="Helvetica,sans-Serif" font-size="10.00">mqtt::bridge::lib::</text>
<text text-anchor="middle" x="54.5" y="-223" font-family="Helvetica,sans-Serif" font-size="10.00">Mqtt::onConnected</text>
</a>
</g>
</g>
<!-- Node2 -->
<g id="Node000002" class="node">
<title>Node2</title>
<g id="a_Node000002"><a xlink:href="classmqtt_1_1bridge_1_1lib_1_1Broker.html#a7ef2ec65092282a8690a4c1f6ddeba8b" target="_top" xlink:title=" ">
<polygon fill="white" stroke="#666666" points="285.5,-462 150.5,-462 150.5,-432 285.5,-432 285.5,-462"/>
<text text-anchor="start" x="158.5" y="-450" font-family="Helvetica,sans-Serif" font-size="10.00">mqtt::bridge::lib::</text>
<text text-anchor="middle" x="218" y="-439" font-family="Helvetica,sans-Serif" font-size="10.00">Broker::getCleanSession</text>
</a>
</g>
</g>
<!-- Node1&#45;&gt;Node2 -->
<g id="edge1_Node000001_Node000002" class="edge">
<title>Node1&#45;&gt;Node2</title>
<g id="a_edge1_Node000001_Node000002"><a xlink:title=" ">
<path fill="none" stroke="#63b8ff" d="M58.31,-246.16C65.77,-282.15 89.41,-373.44 145,-423 146.32,-424.18 147.7,-425.29 149.12,-426.36"/>
<polygon fill="#63b8ff" stroke="#63b8ff" points="147.46,-429.45 157.77,-431.87 151.22,-423.54 147.46,-429.45"/>
</a>
</g>
</g>
<!-- Node3 -->
<g id="Node000003" class="node">
<title>Node3</title>
<g id="a_Node000003"><a xlink:href="classmqtt_1_1bridge_1_1lib_1_1Broker.html#a6d2569d96d1c3c9775d3094a57d298e0" target="_top" xlink:title=" ">
<polygon fill="white" stroke="#666666" points="271.5,-414 164.5,-414 164.5,-384 271.5,-384 271.5,-414"/>
<text text-anchor="start" x="172.5" y="-402" font-family="Helvetica,sans-Serif" font-size="10.00">mqtt::bridge::lib::</text>
<text text-anchor="middle" x="218" y="-391" font-family="Helvetica,sans-Serif" font-size="10.00">Broker::getClientId</text>
</a>
</g>
</g>
<!-- Node1&#45;&gt;Node3 -->
<g id="edge2_Node000001_Node000003" class="edge">
<title>Node1&#45;&gt;Node3</title>
<g id="a_edge2_Node000001_Node000003"><a xlink:title=" ">
<path fill="none" stroke="#63b8ff" d="M60.82,-246.02C71.89,-275.17 100.18,-339.62 145,-375 148.17,-377.5 151.61,-379.75 155.21,-381.76"/>
<polygon fill="#63b8ff" stroke="#63b8ff" points="153.92,-385.03 164.43,-386.31 157.02,-378.75 153.92,-385.03"/>
</a>
</g>
</g>
<!-- Node4 -->
<g id="Node000004" class="node">
<title>Node4</title>
<g id="a_Node000004"><a xlink:href="classmqtt_1_1bridge_1_1lib_1_1Broker.html#a537a5d925a917be20f784ac106bc7d2e" target="_top" xlink:title=" ">
<polygon fill="white" stroke="#666666" points="277.5,-366 158.5,-366 158.5,-336 277.5,-336 277.5,-366"/>
<text text-anchor="start" x="166.5" y="-354" font-family="Helvetica,sans-Serif" font-size="10.00">mqtt::bridge::lib::</text>
<text text-anchor="middle" x="218" y="-343" font-family="Helvetica,sans-Serif" font-size="10.00">Broker::getKeepAlive</text>
</a>
</g>
</g>
<!-- Node1&#45;&gt;Node4 -->
<g id="edge3_Node000001_Node000004" class="edge">
<title>Node1&#45;&gt;Node4</title>
<g id="a_edge3_Node000001_Node000004"><a xlink:title=" ">
<path fill="none" stroke="#63b8ff" d="M65.86,-246.2C80.94,-267.23 110.88,-305.08 145,-327 147.58,-328.66 150.28,-330.21 153.07,-331.66"/>
<polygon fill="#63b8ff" stroke="#63b8ff" points="151.65,-334.87 162.18,-335.99 154.64,-328.54 151.65,-334.87"/>
</a>
</g>
</g>
<!-- Node5 -->
<g id="Node000005" class="node">
<title>Node5</title>
<g id="a_Node000005"><a xlink:href="classmqtt_1_1bridge_1_1lib_1_1Broker.html#a12c314cbad6137819c767bc6ead98d3e" target="_top" xlink:title=" ">
<polygon fill="white" stroke="#666666" points="291,-318 145,-318 145,-288 291,-288 291,-318"/>
<text text-anchor="start" x="153" y="-306" font-family="Helvetica,sans-Serif" font-size="10.00">mqtt::bridge::lib::</text>
<text text-anchor="middle" x="218" y="-295" font-family="Helvetica,sans-Serif" font-size="10.00">Broker::getLoopPrevention</text>
</a>
</g>
</g>
<!-- Node1&#45;&gt;Node5 -->
<g id="edge4_Node000001_Node000005" class="edge">
<title>Node1&#45;&gt;Node5</title>
<g id="a_edge4_Node000001_Node000005"><a xlink:title=" ">
<path fill="none" stroke="#63b8ff" d="M80.77,-246.05C98.39,-256.17 122.66,-269.37 145,-279 149.38,-280.89 153.97,-282.72 158.61,-284.48"/>
<polygon fill="#63b8ff" stroke="#63b8ff" points="157.57,-287.83 168.16,-287.98 159.97,-281.26 157.57,-287.83"/>
</a>
</g>
</g>
<!-- Node6 -->
<g id="Node000006" class="node">
<title>Node6</title>
<g id="a_Node000006"><a xlink:href="classmqtt_1_1bridge_1_1lib_1_1Broker.html#a8b0a98fcc637171cc995cee2a8bd5685" target="_top" xlink:title=" ">
<polygon fill="white" stroke="#666666" points="276,-270 160,-270 160,-240 276,-240 276,-270"/>
<text text-anchor="start" x="168" y="-258" font-family="Helvetica,sans-Serif" font-size="10.00">mqtt::bridge::lib::</text>
<text text-anchor="middle" x="218" y="-247" font-family="Helvetica,sans-Serif" font-size="10.00">Broker::getPassword</text>
</a>
</g>
</g>
<!-- Node1&#45;&gt;Node6 -->
<g id="edge5_Node000001_Node000006" class="edge">
<title>Node1&#45;&gt;Node6</title>
<g id="a_edge5_Node000001_Node000006"><a xlink:title=" ">
<path fill="none" stroke="#63b8ff" d="M109.28,-238.99C122.22,-240.91 136.21,-242.99 149.68,-245"/>
<polygon fill="#63b8ff" stroke="#63b8ff" points="149.45,-248.5 159.86,-246.51 150.48,-241.58 149.45,-248.5"/>
</a>
</g>
</g>
<!-- Node7 -->
<g id="Node000007" class="node">
<title>Node7</title>
<g id="a_Node000007"><a xlink:href="classmqtt_1_1bridge_1_1lib_1_1Broker.html#a750e20fe14960d3a5944ecb03bf7e269" target="_top" xlink:title=" ">
<polygon fill="white" stroke="#666666" points="278,-222 158,-222 158,-192 278,-192 278,-222"/>
<text text-anchor="start" x="166" y="-210" font-family="Helvetica,sans-Serif" font-size="10.00">mqtt::bridge::lib::</text>
<text text-anchor="middle" x="218" y="-199" font-family="Helvetica,sans-Serif" font-size="10.00">Broker::getUsername</text>
</a>
</g>
</g>
<!-- Node1&#45;&gt;Node7 -->
<g id="edge6_Node000001_Node000007" class="edge">
<title>Node1&#45;&gt;Node7</title>
<g id="a_edge6_Node000001_Node000007"><a xlink:title=" ">
<path fill="none" stroke="#63b8ff" d="M109.28,-223.01C121.59,-221.18 134.84,-219.21 147.7,-217.3"/>
<polygon fill="#63b8ff" stroke="#63b8ff" points="148.52,-220.71 157.9,-215.78 147.49,-213.79 148.52,-220.71"/>
</a>
</g>
</g>
<!-- Node8 -->
<g id="Node000008" class="node">
<title>Node8</title>
<g id="a_Node000008"><a xlink:href="classmqtt_1_1bridge_1_1lib_1_1Broker.html#a6403697d2031730753912aaaf47cb1f4" target="_top" xlink:title=" ">
<polygon fill="white" stroke="#666666" points="284,-174 152,-174 152,-144 284,-144 284,-174"/>
<text text-anchor="start" x="160" y="-162" font-family="Helvetica,sans-Serif" font-size="10.00">mqtt::bridge::lib::</text>
<text text-anchor="middle" x="218" y="-151" font-family="Helvetica,sans-Serif" font-size="10.00">Broker::getWillMessage</text>
</a>
</g>
</g>
<!-- Node1&#45;&gt;Node8 -->
<g id="edge7_Node000001_Node000008" class="edge">
<title>Node1&#45;&gt;Node8</title>
<g id="a_edge7_Node000001_Node000008"><a xlink:title=" ">
<path fill="none" stroke="#63b8ff" d="M80.77,-215.95C98.39,-205.83 122.66,-192.63 145,-183 149.38,-181.11 153.97,-179.28 158.61,-177.52"/>
<polygon fill="#63b8ff" stroke="#63b8ff" points="159.97,-180.74 168.16,-174.02 157.57,-174.17 159.97,-180.74"/>
</a>
</g>
</g>
<!-- Node9 -->
<g id="Node000009" class="node">
<title>Node9</title>
<g id="a_Node000009"><a xlink:href="classmqtt_1_1bridge_1_1lib_1_1Broker.html#ae421318ee7d0d6287cdb43d605277a5b" target="_top" xlink:title=" ">
<polygon fill="white" stroke="#666666" points="272,-126 164,-126 164,-96 272,-96 272,-126"/>
<text text-anchor="start" x="172" y="-114" font-family="Helvetica,sans-Serif" font-size="10.00">mqtt::bridge::lib::</text>
<text text-anchor="middle" x="218" y="-103" font-family="Helvetica,sans-Serif" font-size="10.00">Broker::getWillQoS</text>
</a>
</g>
</g>
<!-- Node1&#45;&gt;Node9 -->
<g id="edge8_Node000001_Node000009" class="edge">
<title>Node1&#45;&gt;Node9</title>
<g id="a_edge8_Node000001_Node000009"><a xlink:title=" ">
<path fill="none" stroke="#63b8ff" d="M65.86,-215.8C80.94,-194.77 110.88,-156.92 145,-135 147.97,-133.09 151.11,-131.32 154.35,-129.67"/>
<polygon fill="#63b8ff" stroke="#63b8ff" points="156.07,-132.74 163.69,-125.38 153.14,-126.38 156.07,-132.74"/>
</a>
</g>
</g>
<!-- Node10 -->
<g id="Node000010" class="node">
<title>Node10</title>
<g id="a_Node000010"><a xlink:href="classmqtt_1_1bridge_1_1lib_1_1Broker.html#a41d9b2f5e10294198b45d1e217574f60" target="_top" xlink:title=" ">
<polygon fill="white" stroke="#666666" points="278,-78 158,-78 158,-48 278,-48 278,-78"/>
<text text-anchor="start" x="166" y="-66" font-family="Helvetica,sans-Serif" font-size="10.00">mqtt::bridge::lib::</text>
<text text-anchor="middle" x="218" y="-55" font-family="Helvetica,sans-Serif" font-size="10.00">Broker::getWillRetain</text>
</a>
</g>
</g>
<!-- Node1&#45;&gt;Node10 -->
<g id="edge9_Node000001_Node000010" class="edge">
<title>Node1&#45;&gt;Node10</title>
<g id="a_edge9_Node000001_Node000010"><a xlink:title=" ">
<path fill="none" stroke="#63b8ff" d="M60.82,-215.98C71.89,-186.83 100.18,-122.38 145,-87 146.76,-85.61 148.61,-84.29 150.53,-83.05"/>
<polygon fill="#63b8ff" stroke="#63b8ff" points="152.31,-86.07 159.28,-78.09 148.86,-79.98 152.31,-86.07"/>
</a>
</g>
</g>
<!-- Node11 -->
<g id="Node000011" class="node">
<title>Node11</title>
<g id="a_Node000011"><a xlink:href="classmqtt_1_1bridge_1_1lib_1_1Broker.html#a345589d52b437b118f272a50df7b4b7d" target="_top" xlink:title=" ">
<polygon fill="white" stroke="#666666" points="274.5,-30 161.5,-30 161.5,0 274.5,0 274.5,-30"/>
<text text-anchor="start" x="169.5" y="-18" font-family="Helvetica,sans-Serif" font-size="10.00">mqtt::bridge::lib::</text>
<text text-anchor="middle" x="218" y="-7" font-family="Helvetica,sans-Serif" font-size="10.00">Broker::getWillTopic</text>
</a>
</g>
</g>
<!-- Node1&#45;&gt;Node11 -->
<g id="edge10_Node000001_Node000011" class="edge">
<title>Node1&#45;&gt;Node11</title>
<g id="a_edge10_Node000001_Node000011"><a xlink:title=" ">
<path fill="none" stroke="#63b8ff" d="M58.31,-215.84C65.77,-179.85 89.41,-88.56 145,-39 147.33,-36.92 149.85,-35.02 152.51,-33.28"/>
<polygon fill="#63b8ff" stroke="#63b8ff" points="154.38,-36.24 161.36,-28.27 150.93,-30.15 154.38,-36.24"/>
</a>
</g>
</g>
</g>
</svg>

<g id="navigator" transform="translate(0 0)" fill="#404254">
  <rect fill="#f2f5e9" fill-opacity="0.5" stroke="#606060" stroke-width=".5" x="0" y="0" width="60" height="60"/>
  <use id="zoomplus" xlink:href="#zoomPlus" x="17" y="9" onmousedown="handleZoom(evt,'in')"/>
  <use id="zoomminus" xlink:href="#zoomMin" x="42" y="9" onmousedown="handleZoom(evt,'out')"/>
  <use id="reset" xlink:href="#resetDef" x="30" y="36" onmousedown="handleReset()"/>
   <use id="arrowup" xlink:href="#arrowUp" x="0" y="0" onmousedown="handlePan(0,-1)"/>
  <use id="arrowright" xlink:href="#arrowRight" x="0" y="0" onmousedown="handlePan(1,0)"/>
  <use id="arrowdown" xlink:href="#arrowDown" x="0" y="0" onmousedown="handlePan(0,1)"/>
  <use id="arrowleft" xlink:href="#arrowLeft" x="0" y="0" onmousedown="handlePan(-1,0)"/>
</g>
<svg viewBox="0 0 15 15" width="100%" height="30px" preserveAspectRatio="xMaxYMin meet">
 <g id="arrow_out" transform="scale(0.3 0.3)">
  <a xlink:href="classmqtt_1_1bridge_1_1lib_1_1Mqtt_a5847611e17b94be67e5cf9743fb03a58_cgraph_org.svg" target="_base">
   <rect id="button" ry="5" rx="5" y="6" x="6" height="38" width="38"
        fill="#f2f5e9" fill-opacity="0.5" stroke="#606060" stroke-width="1.0"/>
   <path id="arrow"
     d="M 11.500037,31.436501 C 11.940474,20.09759 22.043105,11.32322 32.158766,21.979434 L 37.068811,17.246167 C 37.068811,17.246167 37.088388,32 37.088388,32 L 22.160133,31.978069 C 22.160133,31.978069 26.997745,27.140456 26.997745,27.140456 C 18.528582,18.264221 13.291696,25.230495 11.500037,31.436501 z"
     style="fill:#404040;"/>
  </a>
 </g>
</svg>

<style type='text/css'>
<![CDATA[
[data-mouse-over-selected='false'] { opacity: 0.7; }
[data-mouse-over-selected='true']  { opacity: 1.0; }
]]>
</style>
<script type="application/ecmascript"><![CDATA[
document.addEventListener('DOMContentLoaded', (event) => {
  highlightEdges();
  highlightAdjacentNodes();
});
]]></script>
</svg>
