<?xml version="1.0" encoding="UTF-8" standalone="no"?>
<!DOCTYPE svg PUBLIC "-//W3C//DTD SVG 1.1//EN"
 "http://www.w3.org/Graphics/SVG/1.1/DTD/svg11.dtd">
<!-- Generated by graphviz version 14.1.2 (0)
 -->
<!-- Title: inja::Renderer::render_to Pages: 1 -->
<!--zoomable 355 -->

<svg id="main" version="1.1" xmlns="http://www.w3.org/2000/svg" xmlns:xlink="http://www.w3.org/1999/xlink" xml:space="preserve" onload="init(evt)">

<style type="text/css"><![CDATA[
.node, .edge {opacity: 0.7;}
.node.selected, .edge.selected {opacity: 1;}
.edge:hover path { stroke: red; }
.edge:hover polygon { stroke: red; fill: red; }
]]></style>

<defs>
  <circle id="rim" cx="0" cy="0" r="7"/>
  <circle id="rim2" cx="0" cy="0" r="3.5"/>
  <g id="zoomPlus">
    <use xlink:href="#rim" fill="#404040"><set attributeName="fill" to="#808080" begin="zoomplus.mouseover" end="zoomplus.mouseout"/></use>
    <path d="M-4,0h8M0,-4v8" fill="none" stroke="white" stroke-width="1.5" pointer-events="none"/>
  </g>
  <g id="zoomMin">
    <use xlink:href="#rim" fill="#404040"><set attributeName="fill" to="#808080" begin="zoomminus.mouseover" end="zoomminus.mouseout"/></use>
    <path d="M-4,0h8" fill="none" stroke="white" stroke-width="1.5" pointer-events="none"/>
  </g>
  <g id="arrowUp" transform="translate(30 24)">
    <use xlink:href="#rim"/>
    <path pointer-events="none" fill="none" stroke="white" stroke-width="1.5" d="M0,-3.0v7 M-2.5,-0.5L0,-3.0L2.5,-0.5"/>
  </g>
  <g id="arrowRight" transform="rotate(90) translate(36 -43)">
    <use xlink:href="#rim"/>
    <path pointer-events="none" fill="none" stroke="white" stroke-width="1.5" d="M0,-3.0v7 M-2.5,-0.5L0,-3.0L2.5,-0.5"/>
  </g>
  <g id="arrowDown" transform="rotate(180) translate(-30 -48)">
    <use xlink:href="#rim"/>
    <path pointer-events="none" fill="none" stroke="white" stroke-width="1.5" d="M0,-3.0v7 M-2.5,-0.5L0,-3.0L2.5,-0.5"/>
  </g>
  <g id="arrowLeft" transform="rotate(270) translate(-36 17)">
    <use xlink:href="#rim"/>
    <path pointer-events="none" fill="none" stroke="white" stroke-width="1.5" d="M0,-3.0v7 M-2.5,-0.5L0,-3.0L2.5,-0.5"/>
  </g>
  <g id="resetDef">
    <use xlink:href="#rim2" fill="#404040"><set attributeName="fill" to="#808080" begin="reset.mouseover" end="reset.mouseout"/></use>
  </g>
</defs>
<script type="application/ecmascript">
var viewWidth = 1711;
var viewHeight = 355;
var sectionId = 'dynsection-13';
</script>
<script type="application/ecmascript" xlink:href="svg.min.js"/>
<svg id="graph" class="graph">
<g id="viewport">
<title>inja::Renderer::render_to</title>
<!-- Node1 -->
<g id="Node000001" class="node">
<title>Node1</title>
<g id="a_Node000001"><a xlink:title=" ">
<polygon fill="#999999" stroke="#666666" points="1703,-59.75 1566.25,-59.75 1566.25,-39 1703,-39 1703,-59.75"/>
<text xml:space="preserve" text-anchor="middle" x="1634.62" y="-46.25" font-family="Helvetica,sans-Serif" font-size="10.00">inja::Renderer::render_to</text>
</a>
</g>
</g>
<!-- Node2 -->
<g id="Node000002" class="node">
<title>Node2</title>
<g id="a_Node000002"><a xlink:href="classinja_1_1Environment.html#a269f21ddbdd107bf0dd9e4a0bc80e249" target="_top" xlink:title=" ">
<polygon fill="white" stroke="#666666" points="1528.75,-111.12 1420.5,-111.12 1420.5,-77.62 1528.75,-77.62 1528.75,-111.12"/>
<text xml:space="preserve" text-anchor="start" x="1428.5" y="-97.62" font-family="Helvetica,sans-Serif" font-size="10.00">inja::Environment::</text>
<text xml:space="preserve" text-anchor="middle" x="1474.62" y="-84.88" font-family="Helvetica,sans-Serif" font-size="10.00">render_to</text>
</a>
</g>
</g>
<!-- Node1&#45;&gt;Node2 -->
<g id="edge1_Node000001_Node000002" class="edge">
<title>Node1&#45;&gt;Node2</title>
<g id="a_edge1_Node000001_Node000002"><a xlink:title=" ">
<path fill="none" stroke="#63b8ff" d="M1584.83,-63.27C1567.13,-68.31 1547.06,-74.03 1528.99,-79.18"/>
<polygon fill="#63b8ff" stroke="#63b8ff" points="1585.67,-66.67 1594.32,-60.57 1583.75,-59.94 1585.67,-66.67"/>
</a>
</g>
</g>
<!-- Node22 -->
<g id="Node000022" class="node">
<title>Node22</title>
<g id="a_Node000022"><a xlink:href="classinja_1_1Renderer.html#aed5d4de516e9aad1801df4ccb53fd52c" target="_top" xlink:title=" ">
<polygon fill="white" stroke="#666666" points="1530.25,-59.75 1419,-59.75 1419,-39 1530.25,-39 1530.25,-59.75"/>
<text xml:space="preserve" text-anchor="middle" x="1474.62" y="-46.25" font-family="Helvetica,sans-Serif" font-size="10.00">inja::Renderer::visit</text>
</a>
</g>
</g>
<!-- Node1&#45;&gt;Node22 -->
<g id="edge24_Node000001_Node000022" class="edge">
<title>Node1&#45;&gt;Node22</title>
<g id="a_edge24_Node000001_Node000022"><a xlink:title=" ">
<path fill="none" stroke="#63b8ff" d="M1554.92,-49.38C1546.66,-49.38 1538.39,-49.38 1530.47,-49.38"/>
<polygon fill="#63b8ff" stroke="#63b8ff" points="1554.65,-52.88 1564.65,-49.38 1554.65,-45.88 1554.65,-52.88"/>
</a>
</g>
</g>
<!-- Node23 -->
<g id="Node000023" class="node">
<title>Node23</title>
<g id="a_Node000023"><a xlink:href="classinja_1_1Renderer.html#a997785e97e17d8c3d6ce3015382adfb6" target="_top" xlink:title=" ">
<polygon fill="white" stroke="#666666" points="1530.25,-20.75 1419,-20.75 1419,0 1530.25,0 1530.25,-20.75"/>
<text xml:space="preserve" text-anchor="middle" x="1474.62" y="-7.25" font-family="Helvetica,sans-Serif" font-size="10.00">inja::Renderer::visit</text>
</a>
</g>
</g>
<!-- Node1&#45;&gt;Node23 -->
<g id="edge25_Node000001_Node000023" class="edge">
<title>Node1&#45;&gt;Node23</title>
<g id="a_edge25_Node000001_Node000023"><a xlink:title=" ">
<path fill="none" stroke="#63b8ff" d="M1578.55,-35.78C1559.28,-31.03 1537.92,-25.75 1519.67,-21.25"/>
<polygon fill="#63b8ff" stroke="#63b8ff" points="1577.6,-39.15 1588.14,-38.15 1579.27,-32.35 1577.6,-39.15"/>
</a>
</g>
</g>
<!-- Node3 -->
<g id="Node000003" class="node">
<title>Node3</title>
<g id="a_Node000003"><a xlink:href="classinja_1_1Environment.html#a3e4c7b484618c69656f6af463d6f775e" target="_top" xlink:title=" ">
<polygon fill="white" stroke="#666666" points="1383,-163.12 1274.75,-163.12 1274.75,-129.62 1383,-129.62 1383,-163.12"/>
<text xml:space="preserve" text-anchor="start" x="1282.75" y="-149.62" font-family="Helvetica,sans-Serif" font-size="10.00">inja::Environment::</text>
<text xml:space="preserve" text-anchor="middle" x="1328.88" y="-136.88" font-family="Helvetica,sans-Serif" font-size="10.00">render</text>
</a>
</g>
</g>
<!-- Node2&#45;&gt;Node3 -->
<g id="edge2_Node000002_Node000003" class="edge">
<title>Node2&#45;&gt;Node3</title>
<g id="a_edge2_Node000002_Node000003"><a xlink:title=" ">
<path fill="none" stroke="#63b8ff" d="M1415.64,-115.35C1402.9,-119.96 1389.56,-124.79 1377.29,-129.22"/>
<polygon fill="#63b8ff" stroke="#63b8ff" points="1416.52,-118.75 1424.73,-112.06 1414.14,-112.17 1416.52,-118.75"/>
</a>
</g>
</g>
<!-- Node20 -->
<g id="Node000020" class="node">
<title>Node20</title>
<g id="a_Node000020"><a xlink:href="classinja_1_1Environment.html#ad00da8b535e5c5633ed2adec622e6cf4" target="_top" xlink:title=" ">
<polygon fill="white" stroke="#666666" points="1383,-111.12 1274.75,-111.12 1274.75,-77.62 1383,-77.62 1383,-111.12"/>
<text xml:space="preserve" text-anchor="start" x="1282.75" y="-97.62" font-family="Helvetica,sans-Serif" font-size="10.00">inja::Environment::</text>
<text xml:space="preserve" text-anchor="middle" x="1328.88" y="-84.88" font-family="Helvetica,sans-Serif" font-size="10.00">render_to</text>
</a>
</g>
</g>
<!-- Node2&#45;&gt;Node20 -->
<g id="edge22_Node000002_Node000020" class="edge">
<title>Node2&#45;&gt;Node20</title>
<g id="a_edge22_Node000002_Node000020"><a xlink:title=" ">
<path fill="none" stroke="#63b8ff" d="M1408.7,-94.38C1400.26,-94.38 1391.68,-94.38 1383.45,-94.38"/>
<polygon fill="#63b8ff" stroke="#63b8ff" points="1408.58,-97.88 1418.58,-94.38 1408.58,-90.88 1408.58,-97.88"/>
</a>
</g>
</g>
<!-- Node21 -->
<g id="Node000021" class="node">
<title>Node21</title>
<g id="a_Node000021"><a xlink:href="namespaceinja.html#a996f16f78b37d05e19cf44ac74d83e7e" target="_top" xlink:title="render with default settings to the given output stream">
<polygon fill="white" stroke="#666666" points="1372.12,-59.75 1285.62,-59.75 1285.62,-39 1372.12,-39 1372.12,-59.75"/>
<text xml:space="preserve" text-anchor="middle" x="1328.88" y="-46.25" font-family="Helvetica,sans-Serif" font-size="10.00">inja::render_to</text>
</a>
</g>
</g>
<!-- Node2&#45;&gt;Node21 -->
<g id="edge23_Node000002_Node000021" class="edge">
<title>Node2&#45;&gt;Node21</title>
<g id="a_edge23_Node000002_Node000021"><a xlink:title=" ">
<path fill="none" stroke="#63b8ff" d="M1409.44,-74.28C1393.88,-69.41 1377.84,-64.39 1364.27,-60.14"/>
<polygon fill="#63b8ff" stroke="#63b8ff" points="1408.06,-77.52 1418.65,-77.17 1410.16,-70.84 1408.06,-77.52"/>
</a>
</g>
</g>
<!-- Node4 -->
<g id="Node000004" class="node">
<title>Node4</title>
<g id="a_Node000004"><a xlink:href="classinja_1_1Environment.html#aac36e0cfdc9e7926914e46c0cd1caada" target="_top" xlink:title=" ">
<polygon fill="white" stroke="#666666" points="1238.75,-226.12 1130.5,-226.12 1130.5,-192.62 1238.75,-192.62 1238.75,-226.12"/>
<text xml:space="preserve" text-anchor="start" x="1138.5" y="-212.62" font-family="Helvetica,sans-Serif" font-size="10.00">inja::Environment::</text>
<text xml:space="preserve" text-anchor="middle" x="1184.62" y="-199.88" font-family="Helvetica,sans-Serif" font-size="10.00">render</text>
</a>
</g>
</g>
<!-- Node3&#45;&gt;Node4 -->
<g id="edge3_Node000003_Node000004" class="edge">
<title>Node3&#45;&gt;Node4</title>
<g id="a_edge3_Node000003_Node000004"><a xlink:title=" ">
<path fill="none" stroke="#63b8ff" d="M1278.81,-168.1C1261.04,-175.98 1241.22,-184.75 1224.45,-192.18"/>
<polygon fill="#63b8ff" stroke="#63b8ff" points="1279.89,-171.45 1287.62,-164.2 1277.06,-165.05 1279.89,-171.45"/>
</a>
</g>
</g>
<!-- Node14 -->
<g id="Node000014" class="node">
<title>Node14</title>
<g id="a_Node000014"><a xlink:href="classinja_1_1Environment.html#a3e30972fab0a5962c232f4c0f7002845" target="_top" xlink:title=" ">
<polygon fill="white" stroke="#666666" points="1238.75,-163.12 1130.5,-163.12 1130.5,-129.62 1238.75,-129.62 1238.75,-163.12"/>
<text xml:space="preserve" text-anchor="start" x="1138.5" y="-149.62" font-family="Helvetica,sans-Serif" font-size="10.00">inja::Environment::</text>
<text xml:space="preserve" text-anchor="middle" x="1184.62" y="-136.88" font-family="Helvetica,sans-Serif" font-size="10.00">render_file</text>
</a>
</g>
</g>
<!-- Node3&#45;&gt;Node14 -->
<g id="edge16_Node000003_Node000014" class="edge">
<title>Node3&#45;&gt;Node14</title>
<g id="a_edge16_Node000003_Node000014"><a xlink:title=" ">
<path fill="none" stroke="#63b8ff" d="M1263.13,-146.38C1254.99,-146.38 1246.75,-146.38 1238.82,-146.38"/>
<polygon fill="#63b8ff" stroke="#63b8ff" points="1262.99,-149.88 1272.99,-146.38 1262.99,-142.88 1262.99,-149.88"/>
</a>
</g>
</g>
<!-- Node18 -->
<g id="Node000018" class="node">
<title>Node18</title>
<g id="a_Node000018"><a xlink:href="classinja_1_1Environment.html#a832e72bad384f9c59f587ff73eb9a235" target="_top" xlink:title=" ">
<polygon fill="white" stroke="#666666" points="1238.75,-89.12 1130.5,-89.12 1130.5,-55.62 1238.75,-55.62 1238.75,-89.12"/>
<text xml:space="preserve" text-anchor="start" x="1138.5" y="-75.62" font-family="Helvetica,sans-Serif" font-size="10.00">inja::Environment::</text>
<text xml:space="preserve" text-anchor="middle" x="1184.62" y="-62.88" font-family="Helvetica,sans-Serif" font-size="10.00">write</text>
</a>
</g>
</g>
<!-- Node3&#45;&gt;Node18 -->
<g id="edge20_Node000003_Node000018" class="edge">
<title>Node3&#45;&gt;Node18</title>
<g id="a_edge20_Node000003_Node000018"><a xlink:title=" ">
<path fill="none" stroke="#63b8ff" d="M1282.08,-124.1C1279.59,-122.85 1277.14,-121.6 1274.75,-120.38 1255.37,-110.42 1233.85,-98.84 1216.81,-89.56"/>
<polygon fill="#63b8ff" stroke="#63b8ff" points="1280.48,-127.22 1290.99,-128.55 1283.6,-120.95 1280.48,-127.22"/>
</a>
</g>
</g>
<!-- Node5 -->
<g id="Node000005" class="node">
<title>Node5</title>
<g id="a_Node000005"><a xlink:href="classmqtt_1_1lib_1_1MqttMapper.html#acf8390856383106d469d448b358d3f17" target="_top" xlink:title=" ">
<polygon fill="white" stroke="#666666" points="1085.12,-271.12 962.62,-271.12 962.62,-237.62 1085.12,-237.62 1085.12,-271.12"/>
<text xml:space="preserve" text-anchor="start" x="970.62" y="-257.62" font-family="Helvetica,sans-Serif" font-size="10.00">mqtt::lib::MqttMapper</text>
<text xml:space="preserve" text-anchor="middle" x="1023.88" y="-244.88" font-family="Helvetica,sans-Serif" font-size="10.00">::getMappedTemplate</text>
</a>
</g>
</g>
<!-- Node4&#45;&gt;Node5 -->
<g id="edge4_Node000004_Node000005" class="edge">
<title>Node4&#45;&gt;Node5</title>
<g id="a_edge4_Node000004_Node000005"><a xlink:title=" ">
<path fill="none" stroke="#63b8ff" d="M1119.31,-227.61C1108.12,-230.78 1096.51,-234.07 1085.43,-237.21"/>
<polygon fill="#63b8ff" stroke="#63b8ff" points="1120.2,-230.99 1128.87,-224.9 1118.29,-224.26 1120.2,-230.99"/>
</a>
</g>
</g>
<!-- Node13 -->
<g id="Node000013" class="node">
<title>Node13</title>
<g id="a_Node000013"><a xlink:href="namespaceinja.html#a539106781b52cc6117fc132f927a9dec" target="_top" xlink:title="render with default settings to a string">
<polygon fill="white" stroke="#666666" points="1059.62,-219.75 988.12,-219.75 988.12,-199 1059.62,-199 1059.62,-219.75"/>
<text xml:space="preserve" text-anchor="middle" x="1023.88" y="-206.25" font-family="Helvetica,sans-Serif" font-size="10.00">inja::render</text>
</a>
</g>
</g>
<!-- Node4&#45;&gt;Node13 -->
<g id="edge15_Node000004_Node000013" class="edge">
<title>Node4&#45;&gt;Node13</title>
<g id="a_edge15_Node000004_Node000013"><a xlink:title=" ">
<path fill="none" stroke="#63b8ff" d="M1118.94,-209.38C1098.72,-209.38 1077.18,-209.38 1059.82,-209.38"/>
<polygon fill="#63b8ff" stroke="#63b8ff" points="1118.81,-212.88 1128.81,-209.38 1118.81,-205.88 1118.81,-212.88"/>
</a>
</g>
</g>
<!-- Node6 -->
<g id="Node000006" class="node">
<title>Node6</title>
<g id="a_Node000006"><a xlink:href="classmqtt_1_1lib_1_1MqttMapper.html#a120ac05abf400a4f1c4a5758ecd99f74" target="_top" xlink:title=" ">
<polygon fill="white" stroke="#666666" points="917.25,-271.12 787.25,-271.12 787.25,-237.62 917.25,-237.62 917.25,-271.12"/>
<text xml:space="preserve" text-anchor="start" x="795.25" y="-257.62" font-family="Helvetica,sans-Serif" font-size="10.00">mqtt::lib::MqttMapper</text>
<text xml:space="preserve" text-anchor="middle" x="852.25" y="-244.88" font-family="Helvetica,sans-Serif" font-size="10.00">::getTemplateMappings</text>
</a>
</g>
</g>
<!-- Node5&#45;&gt;Node6 -->
<g id="edge5_Node000005_Node000006" class="edge">
<title>Node5&#45;&gt;Node6</title>
<g id="a_edge5_Node000005_Node000006"><a xlink:title=" ">
<path fill="none" stroke="#63b8ff" d="M951.15,-254.38C940.03,-254.38 928.6,-254.38 917.65,-254.38"/>
<polygon fill="#63b8ff" stroke="#63b8ff" points="951.08,-257.88 961.08,-254.38 951.08,-250.88 951.08,-257.88"/>
</a>
</g>
</g>
<!-- Node7 -->
<g id="Node000007" class="node">
<title>Node7</title>
<g id="a_Node000007"><a xlink:href="classmqtt_1_1lib_1_1MqttMapper.html#a542c86edf273308138357e4773c55d3c" target="_top" xlink:title=" ">
<polygon fill="white" stroke="#666666" points="751.25,-271.12 628.75,-271.12 628.75,-237.62 751.25,-237.62 751.25,-271.12"/>
<text xml:space="preserve" text-anchor="start" x="636.75" y="-257.62" font-family="Helvetica,sans-Serif" font-size="10.00">mqtt::lib::MqttMapper</text>
<text xml:space="preserve" text-anchor="middle" x="690" y="-244.88" font-family="Helvetica,sans-Serif" font-size="10.00">::getMappings</text>
</a>
</g>
</g>
<!-- Node6&#45;&gt;Node7 -->
<g id="edge6_Node000006_Node000007" class="edge">
<title>Node6&#45;&gt;Node7</title>
<g id="a_edge6_Node000006_Node000007"><a xlink:title=" ">
<path fill="none" stroke="#63b8ff" d="M775.67,-254.38C767.61,-254.38 759.49,-254.38 751.63,-254.38"/>
<polygon fill="#63b8ff" stroke="#63b8ff" points="775.48,-257.88 785.48,-254.38 775.48,-250.88 775.48,-257.88"/>
</a>
</g>
</g>
<!-- Node8 -->
<g id="Node000008" class="node">
<title>Node8</title>
<g id="a_Node000008"><a xlink:href="classmqtt_1_1mqttbroker_1_1lib_1_1Mqtt.html#a35dd670ca3b7d67cffbbce1cf7c71ffb" target="_top" xlink:title=" ">
<polygon fill="white" stroke="#666666" points="592.75,-297.12 475.5,-297.12 475.5,-263.62 592.75,-263.62 592.75,-297.12"/>
<text xml:space="preserve" text-anchor="start" x="483.5" y="-283.62" font-family="Helvetica,sans-Serif" font-size="10.00">mqtt::mqttbroker::lib</text>
<text xml:space="preserve" text-anchor="middle" x="534.12" y="-270.88" font-family="Helvetica,sans-Serif" font-size="10.00">::Mqtt::onPublish</text>
</a>
</g>
</g>
<!-- Node7&#45;&gt;Node8 -->
<g id="edge7_Node000007_Node000008" class="edge">
<title>Node7&#45;&gt;Node8</title>
<g id="a_edge7_Node000007_Node000008"><a xlink:title=" ">
<path fill="none" stroke="#63b8ff" d="M617.53,-266.45C609.33,-267.84 601.05,-269.24 593.06,-270.59"/>
<polygon fill="#63b8ff" stroke="#63b8ff" points="617.86,-269.95 627.13,-264.83 616.69,-263.04 617.86,-269.95"/>
</a>
</g>
</g>
<!-- Node12 -->
<g id="Node000012" class="node">
<title>Node12</title>
<g id="a_Node000012"><a xlink:href="classmqtt_1_1mqttintegrator_1_1lib_1_1Mqtt.html#a211408365844787ce77340f454b9cbd0" target="_top" xlink:title=" ">
<polygon fill="white" stroke="#666666" points="592.38,-245.12 475.88,-245.12 475.88,-211.62 592.38,-211.62 592.38,-245.12"/>
<text xml:space="preserve" text-anchor="start" x="483.88" y="-231.62" font-family="Helvetica,sans-Serif" font-size="10.00">mqtt::mqttintegrator</text>
<text xml:space="preserve" text-anchor="middle" x="534.12" y="-218.88" font-family="Helvetica,sans-Serif" font-size="10.00">::lib::Mqtt::onPublish</text>
</a>
</g>
</g>
<!-- Node7&#45;&gt;Node12 -->
<g id="edge14_Node000007_Node000012" class="edge">
<title>Node7&#45;&gt;Node12</title>
<g id="a_edge14_Node000007_Node000012"><a xlink:title=" ">
<path fill="none" stroke="#63b8ff" d="M617.45,-242.29C609.19,-240.89 600.85,-239.48 592.81,-238.12"/>
<polygon fill="#63b8ff" stroke="#63b8ff" points="616.69,-245.71 627.13,-243.92 617.86,-238.8 616.69,-245.71"/>
</a>
</g>
</g>
<!-- Node8&#45;&gt;Node8 -->
<g id="edge8_Node000008_Node000008" class="edge">
<title>Node8&#45;&gt;Node8</title>
<g id="a_edge8_Node000008_Node000008"><a xlink:title=" ">
<path fill="none" stroke="#63b8ff" d="M560.3,-308.51C556.04,-312.47 547.31,-315.12 534.12,-315.12 510.68,-315.12 501.34,-306.74 506.1,-297.54"/>
<polygon fill="#63b8ff" stroke="#63b8ff" points="563.69,-309.47 561.89,-299.03 556.78,-308.31 563.69,-309.47"/>
</a>
</g>
</g>
<!-- Node9 -->
<g id="Node000009" class="node">
<title>Node9</title>
<g id="a_Node000009"><a xlink:href="classmqtt_1_1mqttbroker_1_1lib_1_1Mqtt_1_1DelayedQueue.html#abe935c28141087ad3eadf41acab44702" target="_top" xlink:title=" ">
<polygon fill="white" stroke="#666666" points="439.5,-328.5 317,-328.5 317,-282.25 439.5,-282.25 439.5,-328.5"/>
<text xml:space="preserve" text-anchor="start" x="325" y="-315" font-family="Helvetica,sans-Serif" font-size="10.00">mqtt::mqttbroker::lib</text>
<text xml:space="preserve" text-anchor="start" x="325" y="-302.25" font-family="Helvetica,sans-Serif" font-size="10.00">::Mqtt::DelayedQueue</text>
<text xml:space="preserve" text-anchor="middle" x="378.25" y="-289.5" font-family="Helvetica,sans-Serif" font-size="10.00">::processDue</text>
</a>
</g>
</g>
<!-- Node8&#45;&gt;Node9 -->
<g id="edge9_Node000008_Node000009" class="edge">
<title>Node8&#45;&gt;Node9</title>
<g id="a_edge9_Node000008_Node000009"><a xlink:title=" ">
<path fill="none" stroke="#63b8ff" d="M464.09,-291.59C456.02,-292.9 447.83,-294.23 439.88,-295.52"/>
<polygon fill="#63b8ff" stroke="#63b8ff" points="464.59,-295.06 473.9,-290 463.46,-288.15 464.59,-295.06"/>
</a>
</g>
</g>
<!-- Node10 -->
<g id="Node000010" class="node">
<title>Node10</title>
<g id="a_Node000010"><a xlink:href="classmqtt_1_1mqttbroker_1_1lib_1_1Mqtt_1_1DelayedQueue.html#a8becf2d97fc0f71a12ae5e84ea8b2a66" target="_top" xlink:title=" ">
<polygon fill="white" stroke="#666666" points="281,-328.5 158.5,-328.5 158.5,-282.25 281,-282.25 281,-328.5"/>
<text xml:space="preserve" text-anchor="start" x="166.5" y="-315" font-family="Helvetica,sans-Serif" font-size="10.00">mqtt::mqttbroker::lib</text>
<text xml:space="preserve" text-anchor="start" x="166.5" y="-302.25" font-family="Helvetica,sans-Serif" font-size="10.00">::Mqtt::DelayedQueue</text>
<text xml:space="preserve" text-anchor="middle" x="219.75" y="-289.5" font-family="Helvetica,sans-Serif" font-size="10.00">::armDelayTimer</text>
</a>
</g>
</g>
<!-- Node9&#45;&gt;Node10 -->
<g id="edge10_Node000009_Node000010" class="edge">
<title>Node9&#45;&gt;Node10</title>
<g id="a_edge10_Node000009_Node000010"><a xlink:title=" ">
<path fill="none" stroke="#63b8ff" d="M305.45,-305.38C297.4,-305.38 289.25,-305.38 281.35,-305.38"/>
<polygon fill="#63b8ff" stroke="#63b8ff" points="305.23,-308.88 315.23,-305.38 305.23,-301.88 305.23,-308.88"/>
</a>
</g>
</g>
<!-- Node10&#45;&gt;Node10 -->
<g id="edge11_Node000010_Node000010" class="edge">
<title>Node10&#45;&gt;Node10</title>
<g id="a_edge11_Node000010_Node000010"><a xlink:title=" ">
<path fill="none" stroke="#63b8ff" d="M245.82,-339.24C241.31,-343.61 232.62,-346.5 219.75,-346.5 198.08,-346.5 188.26,-338.3 190.29,-328.63"/>
<polygon fill="#63b8ff" stroke="#63b8ff" points="249.04,-340.66 248.75,-330.07 242.37,-338.53 249.04,-340.66"/>
</a>
</g>
</g>
<!-- Node11 -->
<g id="Node000011" class="node">
<title>Node11</title>
<g id="a_Node000011"><a xlink:href="classmqtt_1_1mqttbroker_1_1lib_1_1Mqtt_1_1DelayedQueue.html#a0cea5b90a1434e82da43bd2f4c6dd47c" target="_top" xlink:title=" ">
<polygon fill="white" stroke="#666666" points="122.5,-302.5 0,-302.5 0,-256.25 122.5,-256.25 122.5,-302.5"/>
<text xml:space="preserve" text-anchor="start" x="8" y="-289" font-family="Helvetica,sans-Serif" font-size="10.00">mqtt::mqttbroker::lib</text>
<text xml:space="preserve" text-anchor="start" x="8" y="-276.25" font-family="Helvetica,sans-Serif" font-size="10.00">::Mqtt::DelayedQueue</text>
<text xml:space="preserve" text-anchor="middle" x="61.25" y="-263.5" font-family="Helvetica,sans-Serif" font-size="10.00">::delayPublish</text>
</a>
</g>
</g>
<!-- Node10&#45;&gt;Node11 -->
<g id="edge12_Node000010_Node000011" class="edge">
<title>Node10&#45;&gt;Node11</title>
<g id="a_edge12_Node000010_Node000011"><a xlink:title=" ">
<path fill="none" stroke="#63b8ff" d="M146.95,-293.45C138.9,-292.11 130.75,-290.75 122.85,-289.44"/>
<polygon fill="#63b8ff" stroke="#63b8ff" points="146.31,-296.89 156.75,-295.07 147.46,-289.98 146.31,-296.89"/>
</a>
</g>
</g>
<!-- Node11&#45;&gt;Node8 -->
<g id="edge13_Node000011_Node000008" class="edge">
<title>Node11&#45;&gt;Node8</title>
<g id="a_edge13_Node000011_Node000008"><a xlink:title=" ">
<path fill="none" stroke="#63b8ff" d="M134.28,-274.39C142.45,-273.98 150.65,-273.62 158.5,-273.38 283.33,-269.49 314.7,-268.72 439.5,-273.38 451.06,-273.81 463.42,-274.54 475.23,-275.37"/>
<polygon fill="#63b8ff" stroke="#63b8ff" points="134.11,-270.9 124.32,-274.94 134.5,-277.89 134.11,-270.9"/>
</a>
</g>
</g>
<!-- Node15 -->
<g id="Node000015" class="node">
<title>Node15</title>
<g id="a_Node000015"><a xlink:href="classinja_1_1Environment.html#a815d87f3fb622a7639691803ff9a123b" target="_top" xlink:title=" ">
<polygon fill="white" stroke="#666666" points="1094.5,-181.12 953.25,-181.12 953.25,-147.62 1094.5,-147.62 1094.5,-181.12"/>
<text xml:space="preserve" text-anchor="start" x="961.25" y="-167.62" font-family="Helvetica,sans-Serif" font-size="10.00">inja::Environment::</text>
<text xml:space="preserve" text-anchor="middle" x="1023.88" y="-154.88" font-family="Helvetica,sans-Serif" font-size="10.00">render_file_with_json_file</text>
</a>
</g>
</g>
<!-- Node14&#45;&gt;Node15 -->
<g id="edge17_Node000014_Node000015" class="edge">
<title>Node14&#45;&gt;Node15</title>
<g id="a_edge17_Node000014_Node000015"><a xlink:title=" ">
<path fill="none" stroke="#63b8ff" d="M1118.93,-153.71C1111.03,-154.61 1102.93,-155.52 1094.95,-156.43"/>
<polygon fill="#63b8ff" stroke="#63b8ff" points="1119.28,-157.19 1128.82,-152.59 1118.49,-150.24 1119.28,-157.19"/>
</a>
</g>
</g>
<!-- Node16 -->
<g id="Node000016" class="node">
<title>Node16</title>
<g id="a_Node000016"><a xlink:href="classinja_1_1Environment.html#ae64c18f23f81e8ee787d406ccd4d35dc" target="_top" xlink:title=" ">
<polygon fill="white" stroke="#666666" points="1078,-129.12 969.75,-129.12 969.75,-95.62 1078,-95.62 1078,-129.12"/>
<text xml:space="preserve" text-anchor="start" x="977.75" y="-115.62" font-family="Helvetica,sans-Serif" font-size="10.00">inja::Environment::</text>
<text xml:space="preserve" text-anchor="middle" x="1023.88" y="-102.88" font-family="Helvetica,sans-Serif" font-size="10.00">write</text>
</a>
</g>
</g>
<!-- Node14&#45;&gt;Node16 -->
<g id="edge18_Node000014_Node000016" class="edge">
<title>Node14&#45;&gt;Node16</title>
<g id="a_edge18_Node000014_Node000016"><a xlink:title=" ">
<path fill="none" stroke="#63b8ff" d="M1119.11,-132.56C1105.56,-129.66 1091.4,-126.62 1078.31,-123.82"/>
<polygon fill="#63b8ff" stroke="#63b8ff" points="1118.33,-135.97 1128.84,-134.64 1119.8,-129.13 1118.33,-135.97"/>
</a>
</g>
</g>
<!-- Node17 -->
<g id="Node000017" class="node">
<title>Node17</title>
<g id="a_Node000017"><a xlink:href="classinja_1_1Environment.html#ad6a6b713e78516f4f6fd68c58f309f3c" target="_top" xlink:title=" ">
<polygon fill="white" stroke="#666666" points="909,-129.12 795.5,-129.12 795.5,-95.62 909,-95.62 909,-129.12"/>
<text xml:space="preserve" text-anchor="start" x="803.5" y="-115.62" font-family="Helvetica,sans-Serif" font-size="10.00">inja::Environment::</text>
<text xml:space="preserve" text-anchor="middle" x="852.25" y="-102.88" font-family="Helvetica,sans-Serif" font-size="10.00">write_with_json_file</text>
</a>
</g>
</g>
<!-- Node16&#45;&gt;Node17 -->
<g id="edge19_Node000016_Node000017" class="edge">
<title>Node16&#45;&gt;Node17</title>
<g id="a_edge19_Node000016_Node000017"><a xlink:title=" ">
<path fill="none" stroke="#63b8ff" d="M958.2,-112.38C942.16,-112.38 925.1,-112.38 909.49,-112.38"/>
<polygon fill="#63b8ff" stroke="#63b8ff" points="958.16,-115.88 968.16,-112.38 958.16,-108.88 958.16,-115.88"/>
</a>
</g>
</g>
<!-- Node19 -->
<g id="Node000019" class="node">
<title>Node19</title>
<g id="a_Node000019"><a xlink:href="classinja_1_1Environment.html#a9c6eb9a291cf99615991f999128248a7" target="_top" xlink:title=" ">
<polygon fill="white" stroke="#666666" points="1080.62,-77.12 967.12,-77.12 967.12,-43.62 1080.62,-43.62 1080.62,-77.12"/>
<text xml:space="preserve" text-anchor="start" x="975.12" y="-63.62" font-family="Helvetica,sans-Serif" font-size="10.00">inja::Environment::</text>
<text xml:space="preserve" text-anchor="middle" x="1023.88" y="-50.88" font-family="Helvetica,sans-Serif" font-size="10.00">write_with_json_file</text>
</a>
</g>
</g>
<!-- Node18&#45;&gt;Node19 -->
<g id="edge21_Node000018_Node000019" class="edge">
<title>Node18&#45;&gt;Node19</title>
<g id="a_edge21_Node000018_Node000019"><a xlink:title=" ">
<path fill="none" stroke="#63b8ff" d="M1118.96,-67.49C1106.38,-66.54 1093.3,-65.55 1081.03,-64.62"/>
<polygon fill="#63b8ff" stroke="#63b8ff" points="1118.58,-70.97 1128.81,-68.23 1119.1,-63.99 1118.58,-70.97"/>
</a>
</g>
</g>
</g>
</svg>

<g id="navigator" transform="translate(0 0)" fill="#404254">
  <rect fill="#f2f5e9" fill-opacity="0.5" stroke="#606060" stroke-width=".5" x="0" y="0" width="60" height="60"/>
  <use id="zoomplus" xlink:href="#zoomPlus" x="17" y="9" onmousedown="handleZoom(evt,'in')"/>
  <use id="zoomminus" xlink:href="#zoomMin" x="42" y="9" onmousedown="handleZoom(evt,'out')"/>
  <use id="reset" xlink:href="#resetDef" x="30" y="36" onmousedown="handleReset()"/>
   <use id="arrowup" xlink:href="#arrowUp" x="0" y="0" onmousedown="handlePan(0,-1)"/>
  <use id="arrowright" xlink:href="#arrowRight" x="0" y="0" onmousedown="handlePan(1,0)"/>
  <use id="arrowdown" xlink:href="#arrowDown" x="0" y="0" onmousedown="handlePan(0,1)"/>
  <use id="arrowleft" xlink:href="#arrowLeft" x="0" y="0" onmousedown="handlePan(-1,0)"/>
</g>
<svg viewBox="0 0 15 15" width="100%" height="30px" preserveAspectRatio="xMaxYMin meet">
 <g id="arrow_out" transform="scale(0.3 0.3)">
  <a xlink:href="classinja_1_1Renderer_ace82a1b1e1db796e94c7a346c71defa2_icgraph_org.svg" target="_base">
   <rect id="button" ry="5" rx="5" y="6" x="6" height="38" width="38"
        fill="#f2f5e9" fill-opacity="0.5" stroke="#606060" stroke-width="1.0"/>
   <path id="arrow"
     d="M 11.500037,31.436501 C 11.940474,20.09759 22.043105,11.32322 32.158766,21.979434 L 37.068811,17.246167 C 37.068811,17.246167 37.088388,32 37.088388,32 L 22.160133,31.978069 C 22.160133,31.978069 26.997745,27.140456 26.997745,27.140456 C 18.528582,18.264221 13.291696,25.230495 11.500037,31.436501 z"
     style="fill:#404040;"/>
  </a>
 </g>
</svg>

<style type='text/css'>
<![CDATA[
[data-mouse-over-selected='false'] { opacity: 0.7; }
[data-mouse-over-selected='true']  { opacity: 1.0; }
]]>
</style>
<script type="application/ecmascript"><![CDATA[
document.addEventListener('DOMContentLoaded', (event) => {
  highlightEdges();
  highlightAdjacentNodes();
});
]]></script>
</svg>
