<?xml version="1.0" encoding="UTF-8" standalone="no"?>
<!DOCTYPE svg PUBLIC "-//W3C//DTD SVG 1.1//EN"
 "http://www.w3.org/Graphics/SVG/1.1/DTD/svg11.dtd">
<!-- Generated by graphviz version 14.1.2 (0)
 -->
<!-- Title: mqtt::lib::MqttMapper::publishMapping Pages: 1 -->
<!--zoomable 198 -->

<svg id="main" version="1.1" xmlns="http://www.w3.org/2000/svg" xmlns:xlink="http://www.w3.org/1999/xlink" xml:space="preserve" onload="init(evt)">

<style type="text/css"><![CDATA[
.node, .edge {opacity: 0.7;}
.node.selected, .edge.selected {opacity: 1;}
.edge:hover path { stroke: red; }
.edge:hover polygon { stroke: red; fill: red; }
]]></style>

<defs>
  <circle id="rim" cx="0" cy="0" r="7"/>
  <circle id="rim2" cx="0" cy="0" r="3.5"/>
  <g id="zoomPlus">
    <use xlink:href="#rim" fill="#404040"><set attributeName="fill" to="#808080" begin="zoomplus.mouseover" end="zoomplus.mouseout"/></use>
    <path d="M-4,0h8M0,-4v8" fill="none" stroke="white" stroke-width="1.5" pointer-events="none"/>
  </g>
  <g id="zoomMin">
    <use xlink:href="#rim" fill="#404040"><set attributeName="fill" to="#808080" begin="zoomminus.mouseover" end="zoomminus.mouseout"/></use>
    <path d="M-4,0h8" fill="none" stroke="white" stroke-width="1.5" pointer-events="none"/>
  </g>
  <g id="arrowUp" transform="translate(30 24)">
    <use xlink:href="#rim"/>
    <path pointer-events="none" fill="none" stroke="white" stroke-width="1.5" d="M0,-3.0v7 M-2.5,-0.5L0,-3.0L2.5,-0.5"/>
  </g>
  <g id="arrowRight" transform="rotate(90) translate(36 -43)">
    <use xlink:href="#rim"/>
    <path pointer-events="none" fill="none" stroke="white" stroke-width="1.5" d="M0,-3.0v7 M-2.5,-0.5L0,-3.0L2.5,-0.5"/>
  </g>
  <g id="arrowDown" transform="rotate(180) translate(-30 -48)">
    <use xlink:href="#rim"/>
    <path pointer-events="none" fill="none" stroke="white" stroke-width="1.5" d="M0,-3.0v7 M-2.5,-0.5L0,-3.0L2.5,-0.5"/>
  </g>
  <g id="arrowLeft" transform="rotate(270) translate(-36 17)">
    <use xlink:href="#rim"/>
    <path pointer-events="none" fill="none" stroke="white" stroke-width="1.5" d="M0,-3.0v7 M-2.5,-0.5L0,-3.0L2.5,-0.5"/>
  </g>
  <g id="resetDef">
    <use xlink:href="#rim2" fill="#404040"><set attributeName="fill" to="#808080" begin="reset.mouseover" end="reset.mouseout"/></use>
  </g>
</defs>
<script type="application/ecmascript">
var viewWidth = 901;
var viewHeight = 198;
var sectionId = 'dynsection-23';
</script>
<script type="application/ecmascript" xlink:href="svg.min.js"/>
<svg id="graph" class="graph">
<g id="viewport">
<title>mqtt::lib::MqttMapper::publishMapping</title>
<!-- Node1 -->
<g id="Node000001" class="node">
<title>Node1</title>
<g id="a_Node000001"><a xlink:title=" ">
<polygon fill="#999999" stroke="#666666" points="122.5,-62.5 0,-62.5 0,-29 122.5,-29 122.5,-62.5"/>
<text xml:space="preserve" text-anchor="start" x="8" y="-49" font-family="Helvetica,sans-Serif" font-size="10.00">mqtt::lib::MqttMapper</text>
<text xml:space="preserve" text-anchor="middle" x="61.25" y="-36.25" font-family="Helvetica,sans-Serif" font-size="10.00">::publishMapping</text>
</a>
</g>
</g>
<!-- Node2 -->
<g id="Node000002" class="node">
<title>Node2</title>
<g id="a_Node000002"><a xlink:href="classmqtt_1_1lib_1_1MqttMapper_1_1DelayedQueue.html#af183e96fd1a65a4b2257038f2c5b1dfe" target="_top" xlink:title=" ">
<polygon fill="white" stroke="#666666" points="320.75,-85.5 158.5,-85.5 158.5,-52 320.75,-52 320.75,-85.5"/>
<text xml:space="preserve" text-anchor="start" x="166.5" y="-72" font-family="Helvetica,sans-Serif" font-size="10.00">mqtt::lib::MqttMapper</text>
<text xml:space="preserve" text-anchor="middle" x="239.62" y="-59.25" font-family="Helvetica,sans-Serif" font-size="10.00">::DelayedQueue::delayPublish</text>
</a>
</g>
</g>
<!-- Node1&#45;&gt;Node2 -->
<g id="edge1_Node000001_Node000002" class="edge">
<title>Node1&#45;&gt;Node2</title>
<g id="a_edge1_Node000001_Node000002"><a xlink:title=" ">
<path fill="none" stroke="#63b8ff" d="M122.95,-53.67C130.67,-54.67 138.7,-55.72 146.78,-56.77"/>
<polygon fill="#63b8ff" stroke="#63b8ff" points="146.32,-60.24 156.69,-58.07 147.23,-53.3 146.32,-60.24"/>
</a>
</g>
</g>
<!-- Node7 -->
<g id="Node000007" class="node">
<title>Node7</title>
<g id="a_Node000007"><a xlink:href="classmqtt_1_1lib_1_1MqttMapper.html#a621835aa27e24b3893052ef5227f6deb" target="_top" xlink:title=" ">
<polygon fill="white" stroke="#666666" points="888.5,-33.5 766,-33.5 766,0 888.5,0 888.5,-33.5"/>
<text xml:space="preserve" text-anchor="start" x="774" y="-20" font-family="Helvetica,sans-Serif" font-size="10.00">mqtt::lib::MqttMapper</text>
<text xml:space="preserve" text-anchor="middle" x="827.25" y="-7.25" font-family="Helvetica,sans-Serif" font-size="10.00">::publishMapping</text>
</a>
</g>
</g>
<!-- Node1&#45;&gt;Node7 -->
<g id="edge11_Node000001_Node000007" class="edge">
<title>Node1&#45;&gt;Node7</title>
<g id="a_edge11_Node000001_Node000007"><a xlink:title=" ">
<path fill="none" stroke="#63b8ff" d="M122.84,-43.45C262.15,-38.16 604.72,-25.16 754.36,-19.48"/>
<polygon fill="#63b8ff" stroke="#63b8ff" points="754.28,-22.98 764.14,-19.11 754.02,-15.99 754.28,-22.98"/>
</a>
</g>
</g>
<!-- Node3 -->
<g id="Node000003" class="node">
<title>Node3</title>
<g id="a_Node000003"><a xlink:href="classmqtt_1_1lib_1_1MqttMapper_1_1DelayedQueue.html#a723e5d4f86c96845c8d24f4d9c740329" target="_top" xlink:title=" ">
<polygon fill="white" stroke="#666666" points="532.5,-114.5 356.75,-114.5 356.75,-81 532.5,-81 532.5,-114.5"/>
<text xml:space="preserve" text-anchor="start" x="364.75" y="-101" font-family="Helvetica,sans-Serif" font-size="10.00">mqtt::lib::MqttMapper</text>
<text xml:space="preserve" text-anchor="middle" x="444.62" y="-88.25" font-family="Helvetica,sans-Serif" font-size="10.00">::DelayedQueue::armDelayTimer</text>
</a>
</g>
</g>
<!-- Node2&#45;&gt;Node3 -->
<g id="edge2_Node000002_Node000003" class="edge">
<title>Node2&#45;&gt;Node3</title>
<g id="a_edge2_Node000002_Node000003"><a xlink:title=" ">
<path fill="none" stroke="#63b8ff" d="M321.15,-80.25C329.05,-81.38 337.12,-82.54 345.18,-83.69"/>
<polygon fill="#63b8ff" stroke="#63b8ff" points="344.63,-87.14 355.02,-85.09 345.62,-80.21 344.63,-87.14"/>
</a>
</g>
</g>
<!-- Node3&#45;&gt;Node3 -->
<g id="edge3_Node000003_Node000003" class="edge">
<title>Node3&#45;&gt;Node3</title>
<g id="a_edge3_Node000003_Node000003"><a xlink:title=" ">
<path fill="none" stroke="#63b8ff" d="M408.25,-114.91C402.06,-124.12 414.19,-132.5 444.62,-132.5 461.51,-132.5 472.76,-129.92 478.37,-126.05"/>
<polygon fill="#63b8ff" stroke="#63b8ff" points="481.76,-126.92 480.66,-116.39 474.95,-125.31 481.76,-126.92"/>
</a>
</g>
</g>
<!-- Node4 -->
<g id="Node000004" class="node">
<title>Node4</title>
<g id="a_Node000004"><a xlink:href="classmqtt_1_1lib_1_1MqttMapper_1_1DelayedQueue.html#af8185ba5f4ce04c0273618bc6d85faa9" target="_top" xlink:title=" ">
<polygon fill="white" stroke="#666666" points="893,-189.5 761.5,-189.5 761.5,-156 893,-156 893,-189.5"/>
<text xml:space="preserve" text-anchor="start" x="769.5" y="-176" font-family="Helvetica,sans-Serif" font-size="10.00">mqtt::lib::MqttMapper</text>
<text xml:space="preserve" text-anchor="middle" x="827.25" y="-163.25" font-family="Helvetica,sans-Serif" font-size="10.00">::DelayedQueue::empty</text>
</a>
</g>
</g>
<!-- Node3&#45;&gt;Node4 -->
<g id="edge4_Node000003_Node000004" class="edge">
<title>Node3&#45;&gt;Node4</title>
<g id="a_edge4_Node000003_Node000004"><a xlink:title=" ">
<path fill="none" stroke="#63b8ff" d="M525.88,-114.98C540.07,-117.96 554.71,-120.98 568.5,-123.75 629.45,-135.99 698.68,-149.11 750.03,-158.69"/>
<polygon fill="#63b8ff" stroke="#63b8ff" points="749.07,-162.07 759.54,-160.46 750.35,-155.19 749.07,-162.07"/>
</a>
</g>
</g>
<!-- Node5 -->
<g id="Node000005" class="node">
<title>Node5</title>
<g id="a_Node000005"><a xlink:href="classmqtt_1_1lib_1_1MqttMapper_1_1DelayedQueue.html#a57de7ad3bb5718b911b078d9c5b26896" target="_top" xlink:title=" ">
<polygon fill="white" stroke="#666666" points="725.5,-92.5 568.5,-92.5 568.5,-59 725.5,-59 725.5,-92.5"/>
<text xml:space="preserve" text-anchor="start" x="576.5" y="-79" font-family="Helvetica,sans-Serif" font-size="10.00">mqtt::lib::MqttMapper</text>
<text xml:space="preserve" text-anchor="middle" x="647" y="-66.25" font-family="Helvetica,sans-Serif" font-size="10.00">::DelayedQueue::processDue</text>
</a>
</g>
</g>
<!-- Node3&#45;&gt;Node5 -->
<g id="edge5_Node000003_Node000005" class="edge">
<title>Node3&#45;&gt;Node5</title>
<g id="a_edge5_Node000003_Node000005"><a xlink:title=" ">
<path fill="none" stroke="#63b8ff" d="M532.93,-88.16C540.89,-87.29 548.95,-86.41 556.92,-85.53"/>
<polygon fill="#63b8ff" stroke="#63b8ff" points="557.05,-89.04 566.61,-84.47 556.28,-82.08 557.05,-89.04"/>
</a>
</g>
</g>
<!-- Node8 -->
<g id="Node000008" class="node">
<title>Node8</title>
<g id="a_Node000008"><a xlink:href="classmqtt_1_1lib_1_1MqttMapper_1_1DelayedQueue.html#ac00c125d33f2cb820d4117e12c100528" target="_top" xlink:title=" ">
<polygon fill="white" stroke="#666666" points="888.5,-137.5 766,-137.5 766,-104 888.5,-104 888.5,-137.5"/>
<text xml:space="preserve" text-anchor="start" x="774" y="-124" font-family="Helvetica,sans-Serif" font-size="10.00">mqtt::lib::MqttMapper</text>
<text xml:space="preserve" text-anchor="middle" x="827.25" y="-111.25" font-family="Helvetica,sans-Serif" font-size="10.00">::DelayedQueue::top</text>
</a>
</g>
</g>
<!-- Node3&#45;&gt;Node8 -->
<g id="edge10_Node000003_Node000008" class="edge">
<title>Node3&#45;&gt;Node8</title>
<g id="a_edge10_Node000003_Node000008"><a xlink:title=" ">
<path fill="none" stroke="#63b8ff" d="M532.95,-103.03C600,-107.08 691.45,-112.6 754.32,-116.4"/>
<polygon fill="#63b8ff" stroke="#63b8ff" points="754.01,-119.89 764.2,-117 754.43,-112.9 754.01,-119.89"/>
</a>
</g>
</g>
<!-- Node5&#45;&gt;Node4 -->
<g id="edge6_Node000005_Node000004" class="edge">
<title>Node5&#45;&gt;Node4</title>
<g id="a_edge6_Node000005_Node000004"><a xlink:title=" ">
<path fill="none" stroke="#63b8ff" d="M672.5,-92.86C695,-108.13 729.59,-130.53 761.5,-146.75 764.33,-148.19 767.27,-149.61 770.25,-151"/>
<polygon fill="#63b8ff" stroke="#63b8ff" points="768.57,-154.08 779.13,-154.95 771.42,-147.69 768.57,-154.08"/>
</a>
</g>
</g>
<!-- Node6 -->
<g id="Node000006" class="node">
<title>Node6</title>
<g id="a_Node000006"><a xlink:href="classmqtt_1_1lib_1_1MqttMapper_1_1DelayedQueue.html#aa7caaffc26d0138ebb78fe90519c47c1" target="_top" xlink:title=" ">
<polygon fill="white" stroke="#666666" points="888.5,-85.5 766,-85.5 766,-52 888.5,-52 888.5,-85.5"/>
<text xml:space="preserve" text-anchor="start" x="774" y="-72" font-family="Helvetica,sans-Serif" font-size="10.00">mqtt::lib::MqttMapper</text>
<text xml:space="preserve" text-anchor="middle" x="827.25" y="-59.25" font-family="Helvetica,sans-Serif" font-size="10.00">::DelayedQueue::pop</text>
</a>
</g>
</g>
<!-- Node5&#45;&gt;Node6 -->
<g id="edge7_Node000005_Node000006" class="edge">
<title>Node5&#45;&gt;Node6</title>
<g id="a_edge7_Node000005_Node000006"><a xlink:title=" ">
<path fill="none" stroke="#63b8ff" d="M725.92,-72.69C735.38,-72.32 745.01,-71.94 754.37,-71.57"/>
<polygon fill="#63b8ff" stroke="#63b8ff" points="754.27,-75.08 764.12,-71.19 753.99,-68.08 754.27,-75.08"/>
</a>
</g>
</g>
<!-- Node5&#45;&gt;Node7 -->
<g id="edge8_Node000005_Node000007" class="edge">
<title>Node5&#45;&gt;Node7</title>
<g id="a_edge8_Node000005_Node000007"><a xlink:title=" ">
<path fill="none" stroke="#63b8ff" d="M700.04,-58.53C719.81,-51.98 742.55,-44.46 763.23,-37.61"/>
<polygon fill="#63b8ff" stroke="#63b8ff" points="764.32,-40.94 772.71,-34.47 762.12,-34.29 764.32,-40.94"/>
</a>
</g>
</g>
<!-- Node5&#45;&gt;Node8 -->
<g id="edge9_Node000005_Node000008" class="edge">
<title>Node5&#45;&gt;Node8</title>
<g id="a_edge9_Node000005_Node000008"><a xlink:title=" ">
<path fill="none" stroke="#63b8ff" d="M716.15,-92.96C728.77,-96.14 741.98,-99.48 754.7,-102.69"/>
<polygon fill="#63b8ff" stroke="#63b8ff" points="753.7,-106.04 764.25,-105.1 755.41,-99.26 753.7,-106.04"/>
</a>
</g>
</g>
</g>
</svg>

<g id="navigator" transform="translate(0 0)" fill="#404254">
  <rect fill="#f2f5e9" fill-opacity="0.5" stroke="#606060" stroke-width=".5" x="0" y="0" width="60" height="60"/>
  <use id="zoomplus" xlink:href="#zoomPlus" x="17" y="9" onmousedown="handleZoom(evt,'in')"/>
  <use id="zoomminus" xlink:href="#zoomMin" x="42" y="9" onmousedown="handleZoom(evt,'out')"/>
  <use id="reset" xlink:href="#resetDef" x="30" y="36" onmousedown="handleReset()"/>
   <use id="arrowup" xlink:href="#arrowUp" x="0" y="0" onmousedown="handlePan(0,-1)"/>
  <use id="arrowright" xlink:href="#arrowRight" x="0" y="0" onmousedown="handlePan(1,0)"/>
  <use id="arrowdown" xlink:href="#arrowDown" x="0" y="0" onmousedown="handlePan(0,1)"/>
  <use id="arrowleft" xlink:href="#arrowLeft" x="0" y="0" onmousedown="handlePan(-1,0)"/>
</g>
<svg viewBox="0 0 15 15" width="100%" height="30px" preserveAspectRatio="xMaxYMin meet">
 <g id="arrow_out" transform="scale(0.3 0.3)">
  <a xlink:href="classmqtt_1_1lib_1_1MqttMapper_a51ecf5386a6ec6529b293a0f06d0a9a7_cgraph_org.svg" target="_base">
   <rect id="button" ry="5" rx="5" y="6" x="6" height="38" width="38"
        fill="#f2f5e9" fill-opacity="0.5" stroke="#606060" stroke-width="1.0"/>
   <path id="arrow"
     d="M 11.500037,31.436501 C 11.940474,20.09759 22.043105,11.32322 32.158766,21.979434 L 37.068811,17.246167 C 37.068811,17.246167 37.088388,32 37.088388,32 L 22.160133,31.978069 C 22.160133,31.978069 26.997745,27.140456 26.997745,27.140456 C 18.528582,18.264221 13.291696,25.230495 11.500037,31.436501 z"
     style="fill:#404040;"/>
  </a>
 </g>
</svg>

<style type='text/css'>
<![CDATA[
[data-mouse-over-selected='false'] { opacity: 0.7; }
[data-mouse-over-selected='true']  { opacity: 1.0; }
]]>
</style>
<script type="application/ecmascript"><![CDATA[
document.addEventListener('DOMContentLoaded', (event) => {
  highlightEdges();
  highlightAdjacentNodes();
});
]]></script>
</svg>
