<?xml version="1.0" encoding="UTF-8" standalone="no"?>
<!DOCTYPE svg PUBLIC "-//W3C//DTD SVG 1.1//EN"
 "http://www.w3.org/Graphics/SVG/1.1/DTD/svg11.dtd">
<!-- Generated by graphviz version 2.42.4 (0)
 -->
<!-- Title: mqtt::bridge::SocketContextFactory Pages: 1 -->
<svg width="358pt" height="438pt"
 viewBox="0.00 0.00 358.00 438.00" xmlns="http://www.w3.org/2000/svg" xmlns:xlink="http://www.w3.org/1999/xlink">

<svg id="main" version="1.1" xmlns="http://www.w3.org/2000/svg" xmlns:xlink="http://www.w3.org/1999/xlink" xml:space="preserve" onload="init(evt)">
<style type="text/css"><![CDATA[
.node, .edge {opacity: 0.7;}
.node.selected, .edge.selected {opacity: 1;}
.edge:hover path { stroke: red; }
.edge:hover polygon { stroke: red; fill: red; }
]]></style>
<script type="application/ecmascript" xlink:href="svg.min.js"/>
<svg id="graph" class="graph">
<g id="graph0" class="graph" transform="scale(1 1) rotate(0) translate(4 434)">
<title>mqtt::bridge::SocketContextFactory</title>
<!-- Node1 -->
<g id="Node000001" class="node">
<title>Node1</title>
<g id="a_Node000001"><a xlink:title=" ">
<polygon fill="#999999" stroke="transparent" points="173,-30 27,-30 27,0 173,0 173,-30"/>
<text text-anchor="start" x="31.5" y="-18" font-family="Helvetica,sans-Serif" font-size="10.00">mqtt::bridge::SocketContext</text>
<text text-anchor="start" x="81.5" y="-7" font-family="Helvetica,sans-Serif" font-size="10.00">Factory</text>
<polygon fill="none" stroke="#666666" points="27,0 27,-30 173,-30 173,0 27,0"/>
</a>
</g>
</g>
<!-- Node2 -->
<g id="Node000002" class="node">
<title>Node2</title>
<g id="a_Node000002"><a xlink:title=" ">
<polygon fill="white" stroke="transparent" points="122,-107 0,-107 0,-77 122,-77 122,-107"/>
<text text-anchor="start" x="4.5" y="-95" font-family="Helvetica,sans-Serif" font-size="10.00">core::socket::stream</text>
<text text-anchor="start" x="4.5" y="-84" font-family="Helvetica,sans-Serif" font-size="10.00">::SocketContextFactory</text>
<polygon fill="none" stroke="#666666" points="0,-77 0,-107 122,-107 122,-77 0,-77"/>
</a>
</g>
</g>
<!-- Node2&#45;&gt;Node1 -->
<g id="edge1_Node000001_Node000002" class="edge">
<title>Node2&#45;&gt;Node1</title>
<g id="a_edge1_Node000001_Node000002"><a xlink:title=" ">
<path fill="none" stroke="#63b8ff" d="M72.95,-68.01C79.4,-55.61 87.15,-40.71 92.7,-30.04"/>
<polygon fill="none" stroke="#63b8ff" points="69.84,-66.41 68.34,-76.89 76.05,-69.64 69.84,-66.41"/>
</a>
</g>
</g>
<!-- Node3 -->
<g id="Node000003" class="node">
<title>Node3</title>
<g id="a_Node000003"><a xlink:href="classmqtt_1_1bridge_1_1lib_1_1Broker.html" target="_top" xlink:title=" ">
<polygon fill="white" stroke="transparent" points="234,-107 140,-107 140,-77 234,-77 234,-107"/>
<text text-anchor="start" x="144.5" y="-95" font-family="Helvetica,sans-Serif" font-size="10.00">mqtt::bridge::lib::</text>
<text text-anchor="start" x="171" y="-84" font-family="Helvetica,sans-Serif" font-size="10.00">Broker</text>
<polygon fill="none" stroke="#666666" points="140,-77 140,-107 234,-107 234,-77 140,-77"/>
</a>
</g>
</g>
<!-- Node3&#45;&gt;Node1 -->
<g id="edge2_Node000001_Node000003" class="edge">
<title>Node3&#45;&gt;Node1</title>
<g id="a_edge2_Node000001_Node000003"><a xlink:title=" ">
<path fill="none" stroke="#63b8ff" d="M170.64,-76.89C158,-66 140.27,-50.72 125.74,-38.19"/>
<polygon fill="none" stroke="#63b8ff" points="125.38,-37.88 118.22,-36.99 116.29,-30.04 123.45,-30.93 125.38,-37.88"/>
</a>
</g>
<text text-anchor="middle" x="168" y="-51" font-family="Helvetica,sans-Serif" font-size="10.00" fill="grey"> &#45;broker</text>
</g>
<!-- Node4 -->
<g id="Node000004" class="node">
<title>Node4</title>
<g id="a_Node000004"><a xlink:href="classmqtt_1_1bridge_1_1lib_1_1Bridge.html" target="_top" xlink:title=" ">
<polygon fill="white" stroke="transparent" points="234,-235 140,-235 140,-205 234,-205 234,-235"/>
<text text-anchor="start" x="144.5" y="-223" font-family="Helvetica,sans-Serif" font-size="10.00">mqtt::bridge::lib::</text>
<text text-anchor="start" x="171" y="-212" font-family="Helvetica,sans-Serif" font-size="10.00">Bridge</text>
<polygon fill="none" stroke="#666666" points="140,-205 140,-235 234,-235 234,-205 140,-205"/>
</a>
</g>
</g>
<!-- Node4&#45;&gt;Node3 -->
<g id="edge3_Node000003_Node000004" class="edge">
<title>Node4&#45;&gt;Node3</title>
<g id="a_edge3_Node000003_Node000004"><a xlink:title=" ">
<path fill="none" stroke="#63b8ff" d="M187,-204.55C187,-183.85 187,-145.41 187,-119.52"/>
<polygon fill="none" stroke="#63b8ff" points="187,-119.29 183,-113.29 187,-107.29 191,-113.29 187,-119.29"/>
</a>
</g>
<text text-anchor="middle" x="206" y="-128" font-family="Helvetica,sans-Serif" font-size="10.00" fill="grey"> &#45;bridge</text>
</g>
<!-- Node5 -->
<g id="Node000005" class="node">
<title>Node5</title>
<g id="a_Node000005"><a xlink:title=" ">
<polygon fill="white" stroke="transparent" points="94,-357.5 36,-357.5 36,-338.5 94,-338.5 94,-357.5"/>
<text text-anchor="start" x="40.5" y="-345" font-family="Helvetica,sans-Serif" font-size="10.00">std::string</text>
<polygon fill="none" stroke="#666666" points="36,-338.5 36,-357.5 94,-357.5 94,-338.5 36,-338.5"/>
</a>
</g>
</g>
<!-- Node5&#45;&gt;Node3 -->
<g id="edge7_Node000003_Node000005" class="edge">
<title>Node5&#45;&gt;Node3</title>
<g id="a_edge7_Node000003_Node000005"><a xlink:title=" ">
<path fill="none" stroke="#63b8ff" d="M60.79,-338.39C47.32,-309.52 8.45,-214.55 48,-154 57.7,-139.15 95.64,-123.05 129.43,-111.12"/>
<polygon fill="none" stroke="#63b8ff" points="129.82,-110.99 134.19,-105.25 141.16,-107.08 136.79,-112.82 129.82,-110.99"/>
</a>
</g>
<text text-anchor="middle" x="89.5" y="-278" font-family="Helvetica,sans-Serif" font-size="10.00" fill="grey"> &#45;clientId</text>
<text text-anchor="middle" x="89.5" y="-267" font-family="Helvetica,sans-Serif" font-size="10.00" fill="grey">&#45;encryption</text>
<text text-anchor="middle" x="89.5" y="-256" font-family="Helvetica,sans-Serif" font-size="10.00" fill="grey">&#45;instanceName</text>
<text text-anchor="middle" x="89.5" y="-245" font-family="Helvetica,sans-Serif" font-size="10.00" fill="grey">&#45;password</text>
<text text-anchor="middle" x="89.5" y="-234" font-family="Helvetica,sans-Serif" font-size="10.00" fill="grey">&#45;protocol</text>
<text text-anchor="start" x="48" y="-223" font-family="Helvetica,sans-Serif" font-size="10.00" fill="grey">&#45;sessionStoreFile</text>
<text text-anchor="middle" x="89.5" y="-212" font-family="Helvetica,sans-Serif" font-size="10.00" fill="grey">Name</text>
<text text-anchor="middle" x="89.5" y="-201" font-family="Helvetica,sans-Serif" font-size="10.00" fill="grey">&#45;transport</text>
<text text-anchor="middle" x="89.5" y="-190" font-family="Helvetica,sans-Serif" font-size="10.00" fill="grey">&#45;username</text>
<text text-anchor="middle" x="89.5" y="-179" font-family="Helvetica,sans-Serif" font-size="10.00" fill="grey">&#45;willMessage</text>
<text text-anchor="middle" x="89.5" y="-168" font-family="Helvetica,sans-Serif" font-size="10.00" fill="grey">&#45;willTopic</text>
<text text-anchor="middle" x="89.5" y="-157" font-family="Helvetica,sans-Serif" font-size="10.00" fill="grey">...</text>
</g>
<!-- Node5&#45;&gt;Node4 -->
<g id="edge4_Node000004_Node000005" class="edge">
<title>Node5&#45;&gt;Node4</title>
<g id="a_edge4_Node000004_Node000005"><a xlink:title=" ">
<path fill="none" stroke="#63b8ff" d="M73.77,-338.4C85.7,-326.66 107.66,-304.93 126,-286 139.39,-272.18 154.16,-256.46 165.81,-243.94"/>
<polygon fill="none" stroke="#63b8ff" points="165.87,-243.86 167.02,-236.75 174.04,-235.07 172.89,-242.19 165.87,-243.86"/>
</a>
</g>
<text text-anchor="middle" x="125.5" y="-307" font-family="Helvetica,sans-Serif" font-size="10.00" fill="grey"> &#45;name</text>
</g>
<!-- Node6 -->
<g id="Node000006" class="node">
<title>Node6</title>
<g id="a_Node000006"><a xlink:title=" ">
<polygon fill="white" stroke="transparent" points="113,-430 17,-430 17,-400 113,-400 113,-430"/>
<text text-anchor="start" x="21" y="-418" font-family="Helvetica,sans-Serif" font-size="10.00">std::basic_string&lt;</text>
<text text-anchor="start" x="46.5" y="-407" font-family="Helvetica,sans-Serif" font-size="10.00"> Char &gt;</text>
<polygon fill="none" stroke="#666666" points="17,-400 17,-430 113,-430 113,-400 17,-400"/>
</a>
</g>
</g>
<!-- Node6&#45;&gt;Node5 -->
<g id="edge5_Node000005_Node000006" class="edge">
<title>Node6&#45;&gt;Node5</title>
<g id="a_edge5_Node000005_Node000006"><a xlink:title=" ">
<path fill="none" stroke="#63b8ff" d="M65,-389.75C65,-378.52 65,-365.88 65,-357.69"/>
<polygon fill="none" stroke="#63b8ff" points="61.5,-389.9 65,-399.9 68.5,-389.9 61.5,-389.9"/>
</a>
</g>
</g>
<!-- Node7 -->
<g id="Node000007" class="node">
<title>Node7</title>
<g id="a_Node000007"><a xlink:title=" ">
<polygon fill="white" stroke="transparent" points="236,-363 138,-363 138,-333 236,-333 236,-363"/>
<text text-anchor="start" x="142" y="-351" font-family="Helvetica,sans-Serif" font-size="10.00">std::list&lt; iot::mqtt</text>
<text text-anchor="start" x="162.5" y="-340" font-family="Helvetica,sans-Serif" font-size="10.00">::Mqtt * &gt;</text>
<polygon fill="none" stroke="#666666" points="138,-333 138,-363 236,-363 236,-333 138,-333"/>
</a>
</g>
</g>
<!-- Node7&#45;&gt;Node4 -->
<g id="edge6_Node000004_Node000007" class="edge">
<title>Node7&#45;&gt;Node4</title>
<g id="a_edge6_Node000004_Node000007"><a xlink:title=" ">
<path fill="none" stroke="#63b8ff" d="M187,-332.55C187,-311.85 187,-273.41 187,-247.52"/>
<polygon fill="none" stroke="#63b8ff" points="187,-247.29 183,-241.29 187,-235.29 191,-241.29 187,-247.29"/>
</a>
</g>
<text text-anchor="middle" x="211" y="-307" font-family="Helvetica,sans-Serif" font-size="10.00" fill="grey"> &#45;mqttList</text>
</g>
<!-- Node8 -->
<g id="Node000008" class="node">
<title>Node8</title>
<g id="a_Node000008"><a xlink:title=" ">
<polygon fill="white" stroke="transparent" points="350,-235 252,-235 252,-205 350,-205 350,-235"/>
<text text-anchor="start" x="256" y="-223" font-family="Helvetica,sans-Serif" font-size="10.00">std::list&lt; iot::mqtt</text>
<text text-anchor="start" x="279.5" y="-212" font-family="Helvetica,sans-Serif" font-size="10.00">::Topic &gt;</text>
<polygon fill="none" stroke="#666666" points="252,-205 252,-235 350,-235 350,-205 252,-205"/>
</a>
</g>
</g>
<!-- Node8&#45;&gt;Node3 -->
<g id="edge8_Node000003_Node000008" class="edge">
<title>Node8&#45;&gt;Node3</title>
<g id="a_edge8_Node000003_Node000008"><a xlink:title=" ">
<path fill="none" stroke="#63b8ff" d="M291.81,-204.68C279.04,-185.4 254.62,-150.55 229,-125 225.52,-121.53 221.66,-118.11 217.73,-114.87"/>
<polygon fill="none" stroke="#63b8ff" points="217.44,-114.65 210.25,-114.12 207.98,-107.27 215.17,-107.81 217.44,-114.65"/>
</a>
</g>
<text text-anchor="middle" x="255.5" y="-128" font-family="Helvetica,sans-Serif" font-size="10.00" fill="grey"> &#45;topics</text>
</g>
</g>
</svg>
</svg>

<style type='text/css'>
<![CDATA[
[data-mouse-over-selected='false'] { opacity: 0.7; }
[data-mouse-over-selected='true']  { opacity: 1.0; }
]]>
</style>
<script type="application/ecmascript"><![CDATA[
document.addEventListener('DOMContentLoaded', (event) => {
  highlightEdges();
  highlightAdjacentNodes();
});
]]></script>
</svg>
