<?xml version="1.0" encoding="UTF-8" standalone="no"?>
<!DOCTYPE svg PUBLIC "-//W3C//DTD SVG 1.1//EN"
 "http://www.w3.org/Graphics/SVG/1.1/DTD/svg11.dtd">
<!-- Generated by graphviz version 2.42.4 (0)
 -->
<!-- Title: inja::NodeVisitor::visit Pages: 1 -->
<svg width="452pt" height="457pt"
 viewBox="0.00 0.00 452.00 456.50" xmlns="http://www.w3.org/2000/svg" xmlns:xlink="http://www.w3.org/1999/xlink">
<g id="graph0" class="graph" transform="scale(1 1) rotate(0) translate(4 452.5)">
<title>inja::NodeVisitor::visit</title>
<!-- Node1 -->
<g id="Node000001" class="node">
<title>Node1</title>
<g id="a_Node000001"><a xlink:title=" ">
<polygon fill="#999999" stroke="#666666" points="444,-233.5 340,-233.5 340,-203.5 444,-203.5 444,-233.5"/>
<text text-anchor="start" x="348" y="-221.5" font-family="Helvetica,sans-Serif" font-size="10.00">inja::NodeVisitor::</text>
<text text-anchor="middle" x="392" y="-210.5" font-family="Helvetica,sans-Serif" font-size="10.00">visit</text>
</a>
</g>
</g>
<!-- Node2 -->
<g id="Node000002" class="node">
<title>Node2</title>
<g id="a_Node000002"><a xlink:href="classinja_1_1BlockNode.html#afa264eaa0a42e9f38086e93530b164be" target="_top" xlink:title=" ">
<polygon fill="white" stroke="#666666" points="304,-228 173,-228 173,-209 304,-209 304,-228"/>
<text text-anchor="middle" x="238.5" y="-216" font-family="Helvetica,sans-Serif" font-size="10.00">inja::BlockNode::accept</text>
</a>
</g>
</g>
<!-- Node1&#45;&gt;Node2 -->
<g id="edge1_Node000001_Node000002" class="edge">
<title>Node1&#45;&gt;Node2</title>
<g id="a_edge1_Node000001_Node000002"><a xlink:title=" ">
<path fill="none" stroke="#63b8ff" d="M329.63,-218.5C321.24,-218.5 312.61,-218.5 304.17,-218.5"/>
<polygon fill="#63b8ff" stroke="#63b8ff" points="329.71,-222 339.71,-218.5 329.71,-215 329.71,-222"/>
</a>
</g>
</g>
<!-- Node3 -->
<g id="Node000003" class="node">
<title>Node3</title>
<g id="a_Node000003"><a xlink:href="structinja_1_1Template.html#a5ed9be92ca21ce5be6ea7973acf40665" target="_top" xlink:title="Return number of variables (total number, not distinct ones) in the template.">
<polygon fill="white" stroke="#666666" points="128,-448.5 9,-448.5 9,-418.5 128,-418.5 128,-448.5"/>
<text text-anchor="start" x="17" y="-436.5" font-family="Helvetica,sans-Serif" font-size="10.00">inja::Template::count</text>
<text text-anchor="middle" x="68.5" y="-425.5" font-family="Helvetica,sans-Serif" font-size="10.00">_variables</text>
</a>
</g>
</g>
<!-- Node2&#45;&gt;Node3 -->
<g id="edge2_Node000002_Node000003" class="edge">
<title>Node2&#45;&gt;Node3</title>
<g id="a_edge2_Node000002_Node000003"><a xlink:title=" ">
<path fill="none" stroke="#63b8ff" d="M232.31,-238.39C221.28,-276.87 191.9,-361.93 137,-409.5 133.05,-412.92 128.58,-415.87 123.87,-418.4"/>
<polygon fill="#63b8ff" stroke="#63b8ff" points="235.78,-239 235.05,-228.43 229.03,-237.15 235.78,-239"/>
</a>
</g>
</g>
<!-- Node4 -->
<g id="Node000004" class="node">
<title>Node4</title>
<g id="a_Node000004"><a xlink:href="classinja_1_1Renderer.html#ace82a1b1e1db796e94c7a346c71defa2" target="_top" xlink:title=" ">
<polygon fill="white" stroke="#666666" points="137,-400 0,-400 0,-381 137,-381 137,-400"/>
<text text-anchor="middle" x="68.5" y="-388" font-family="Helvetica,sans-Serif" font-size="10.00">inja::Renderer::render_to</text>
</a>
</g>
</g>
<!-- Node2&#45;&gt;Node4 -->
<g id="edge3_Node000002_Node000004" class="edge">
<title>Node2&#45;&gt;Node4</title>
<g id="a_edge3_Node000002_Node000004"><a xlink:title=" ">
<path fill="none" stroke="#63b8ff" d="M230.15,-237.8C216.73,-270.39 185.15,-336.25 137,-371.5 131.7,-375.38 125.63,-378.47 119.35,-380.93"/>
<polygon fill="#63b8ff" stroke="#63b8ff" points="233.56,-238.7 234,-228.11 227.05,-236.11 233.56,-238.7"/>
</a>
</g>
</g>
<!-- Node5 -->
<g id="Node000005" class="node">
<title>Node5</title>
<g id="a_Node000005"><a xlink:href="classinja_1_1StatisticsVisitor.html#af890621926899d8dc0a038655710700c" target="_top" xlink:title=" ">
<polygon fill="white" stroke="#666666" points="127,-362.5 10,-362.5 10,-332.5 127,-332.5 127,-362.5"/>
<text text-anchor="start" x="18" y="-350.5" font-family="Helvetica,sans-Serif" font-size="10.00">inja::StatisticsVisitor</text>
<text text-anchor="middle" x="68.5" y="-339.5" font-family="Helvetica,sans-Serif" font-size="10.00">::visit</text>
</a>
</g>
</g>
<!-- Node2&#45;&gt;Node5 -->
<g id="edge4_Node000002_Node000005" class="edge">
<title>Node2&#45;&gt;Node5</title>
<g id="a_edge4_Node000002_Node000005"><a xlink:title=" ">
<path fill="none" stroke="#63b8ff" d="M224.76,-236.26C207.35,-259.34 174.03,-299.53 137,-323.5 131.78,-326.88 126.02,-329.85 120.14,-332.45"/>
<polygon fill="#63b8ff" stroke="#63b8ff" points="227.69,-238.17 230.82,-228.05 222.06,-234.01 227.69,-238.17"/>
</a>
</g>
</g>
<!-- Node6 -->
<g id="Node000006" class="node">
<title>Node6</title>
<g id="a_Node000006"><a xlink:href="classinja_1_1Renderer.html#af7bb5be190648a8b55d7de709af08e81" target="_top" xlink:title=" ">
<polygon fill="white" stroke="#666666" points="124.5,-314 12.5,-314 12.5,-295 124.5,-295 124.5,-314"/>
<text text-anchor="middle" x="68.5" y="-302" font-family="Helvetica,sans-Serif" font-size="10.00">inja::Renderer::visit</text>
</a>
</g>
</g>
<!-- Node2&#45;&gt;Node6 -->
<g id="edge5_Node000002_Node000006" class="edge">
<title>Node2&#45;&gt;Node6</title>
<g id="a_edge5_Node000002_Node000006"><a xlink:title=" ">
<path fill="none" stroke="#63b8ff" d="M217.76,-234.4C198.26,-249.42 167.07,-271.67 137,-285.5 128.93,-289.21 119.97,-292.36 111.29,-294.95"/>
<polygon fill="#63b8ff" stroke="#63b8ff" points="220.14,-236.98 225.85,-228.06 215.82,-231.47 220.14,-236.98"/>
</a>
</g>
</g>
<!-- Node7 -->
<g id="Node000007" class="node">
<title>Node7</title>
<g id="a_Node000007"><a xlink:href="classinja_1_1StatisticsVisitor.html#a512d075817e4b9b9eb846d46c4c8bf26" target="_top" xlink:title=" ">
<polygon fill="white" stroke="#666666" points="127,-276.5 10,-276.5 10,-246.5 127,-246.5 127,-276.5"/>
<text text-anchor="start" x="18" y="-264.5" font-family="Helvetica,sans-Serif" font-size="10.00">inja::StatisticsVisitor</text>
<text text-anchor="middle" x="68.5" y="-253.5" font-family="Helvetica,sans-Serif" font-size="10.00">::visit</text>
</a>
</g>
</g>
<!-- Node2&#45;&gt;Node7 -->
<g id="edge6_Node000002_Node000007" class="edge">
<title>Node2&#45;&gt;Node7</title>
<g id="a_edge6_Node000002_Node000007"><a xlink:title=" ">
<path fill="none" stroke="#63b8ff" d="M190.29,-230.58C170.68,-235.6 147.74,-241.47 127.15,-246.75"/>
<polygon fill="#63b8ff" stroke="#63b8ff" points="191.4,-233.91 200.22,-228.04 189.66,-227.13 191.4,-233.91"/>
</a>
</g>
</g>
<!-- Node8 -->
<g id="Node000008" class="node">
<title>Node8</title>
<g id="a_Node000008"><a xlink:href="classinja_1_1Renderer.html#abcbf6282e8229df9163c06687d57a5d1" target="_top" xlink:title=" ">
<polygon fill="white" stroke="#666666" points="124.5,-228 12.5,-228 12.5,-209 124.5,-209 124.5,-228"/>
<text text-anchor="middle" x="68.5" y="-216" font-family="Helvetica,sans-Serif" font-size="10.00">inja::Renderer::visit</text>
</a>
</g>
</g>
<!-- Node2&#45;&gt;Node8 -->
<g id="edge7_Node000002_Node000008" class="edge">
<title>Node2&#45;&gt;Node8</title>
<g id="a_edge7_Node000002_Node000008"><a xlink:title=" ">
<path fill="none" stroke="#63b8ff" d="M162.45,-218.5C149.76,-218.5 136.8,-218.5 124.73,-218.5"/>
<polygon fill="#63b8ff" stroke="#63b8ff" points="162.55,-222 172.55,-218.5 162.55,-215 162.55,-222"/>
</a>
</g>
</g>
<!-- Node9 -->
<g id="Node000009" class="node">
<title>Node9</title>
<g id="a_Node000009"><a xlink:href="classinja_1_1StatisticsVisitor.html#ad68df356c297c751b84b7eee63315dfa" target="_top" xlink:title=" ">
<polygon fill="white" stroke="#666666" points="127,-190.5 10,-190.5 10,-160.5 127,-160.5 127,-190.5"/>
<text text-anchor="start" x="18" y="-178.5" font-family="Helvetica,sans-Serif" font-size="10.00">inja::StatisticsVisitor</text>
<text text-anchor="middle" x="68.5" y="-167.5" font-family="Helvetica,sans-Serif" font-size="10.00">::visit</text>
</a>
</g>
</g>
<!-- Node2&#45;&gt;Node9 -->
<g id="edge8_Node000002_Node000009" class="edge">
<title>Node2&#45;&gt;Node9</title>
<g id="a_edge8_Node000002_Node000009"><a xlink:title=" ">
<path fill="none" stroke="#63b8ff" d="M190.29,-206.42C170.68,-201.4 147.74,-195.53 127.15,-190.25"/>
<polygon fill="#63b8ff" stroke="#63b8ff" points="189.66,-209.87 200.22,-208.96 191.4,-203.09 189.66,-209.87"/>
</a>
</g>
</g>
<!-- Node10 -->
<g id="Node000010" class="node">
<title>Node10</title>
<g id="a_Node000010"><a xlink:href="classinja_1_1Renderer.html#aeea5720f92af93c088719a981769db3b" target="_top" xlink:title=" ">
<polygon fill="white" stroke="#666666" points="124.5,-142 12.5,-142 12.5,-123 124.5,-123 124.5,-142"/>
<text text-anchor="middle" x="68.5" y="-130" font-family="Helvetica,sans-Serif" font-size="10.00">inja::Renderer::visit</text>
</a>
</g>
</g>
<!-- Node2&#45;&gt;Node10 -->
<g id="edge9_Node000002_Node000010" class="edge">
<title>Node2&#45;&gt;Node10</title>
<g id="a_edge9_Node000002_Node000010"><a xlink:title=" ">
<path fill="none" stroke="#63b8ff" d="M217.76,-202.6C198.26,-187.58 167.07,-165.33 137,-151.5 128.93,-147.79 119.97,-144.64 111.29,-142.05"/>
<polygon fill="#63b8ff" stroke="#63b8ff" points="215.82,-205.53 225.85,-208.94 220.14,-200.02 215.82,-205.53"/>
</a>
</g>
</g>
<!-- Node11 -->
<g id="Node000011" class="node">
<title>Node11</title>
<g id="a_Node000011"><a xlink:href="classinja_1_1Renderer.html#a14531f0d69386b4494646f8680fdd905" target="_top" xlink:title=" ">
<polygon fill="white" stroke="#666666" points="124.5,-105 12.5,-105 12.5,-86 124.5,-86 124.5,-105"/>
<text text-anchor="middle" x="68.5" y="-93" font-family="Helvetica,sans-Serif" font-size="10.00">inja::Renderer::visit</text>
</a>
</g>
</g>
<!-- Node2&#45;&gt;Node11 -->
<g id="edge10_Node000002_Node000011" class="edge">
<title>Node2&#45;&gt;Node11</title>
<g id="a_edge10_Node000002_Node000011"><a xlink:title=" ">
<path fill="none" stroke="#63b8ff" d="M224.95,-200.54C207.76,-177.26 174.68,-137.01 137,-114.5 130.52,-110.63 123.22,-107.52 115.88,-105.03"/>
<polygon fill="#63b8ff" stroke="#63b8ff" points="222.24,-202.77 230.93,-208.83 227.92,-198.67 222.24,-202.77"/>
</a>
</g>
</g>
<!-- Node12 -->
<g id="Node000012" class="node">
<title>Node12</title>
<g id="a_Node000012"><a xlink:href="classinja_1_1StatisticsVisitor.html#a23051da528903f46f16d25f0003a5c03" target="_top" xlink:title=" ">
<polygon fill="white" stroke="#666666" points="127,-67.5 10,-67.5 10,-37.5 127,-37.5 127,-67.5"/>
<text text-anchor="start" x="18" y="-55.5" font-family="Helvetica,sans-Serif" font-size="10.00">inja::StatisticsVisitor</text>
<text text-anchor="middle" x="68.5" y="-44.5" font-family="Helvetica,sans-Serif" font-size="10.00">::visit</text>
</a>
</g>
</g>
<!-- Node2&#45;&gt;Node12 -->
<g id="edge11_Node000002_Node000012" class="edge">
<title>Node2&#45;&gt;Node12</title>
<g id="a_edge11_Node000002_Node000012"><a xlink:title=" ">
<path fill="none" stroke="#63b8ff" d="M228.61,-199.42C213.73,-169.42 180.99,-111.16 137,-77.5 132.04,-73.7 126.44,-70.44 120.64,-67.64"/>
<polygon fill="#63b8ff" stroke="#63b8ff" points="225.63,-201.29 233.12,-208.77 231.93,-198.24 225.63,-201.29"/>
</a>
</g>
</g>
<!-- Node13 -->
<g id="Node000013" class="node">
<title>Node13</title>
<g id="a_Node000013"><a xlink:href="classinja_1_1Renderer.html#ac3e86b9ee2504155fddc1cf3d64f7398" target="_top" xlink:title=" ">
<polygon fill="white" stroke="#666666" points="124.5,-19 12.5,-19 12.5,0 124.5,0 124.5,-19"/>
<text text-anchor="middle" x="68.5" y="-7" font-family="Helvetica,sans-Serif" font-size="10.00">inja::Renderer::visit</text>
</a>
</g>
</g>
<!-- Node2&#45;&gt;Node13 -->
<g id="edge12_Node000002_Node000013" class="edge">
<title>Node2&#45;&gt;Node13</title>
<g id="a_edge12_Node000002_Node000013"><a xlink:title=" ">
<path fill="none" stroke="#63b8ff" d="M232.71,-198.93C222.22,-160.33 193.55,-74.16 137,-28.5 132.17,-24.6 126.58,-21.5 120.74,-19.03"/>
<polygon fill="#63b8ff" stroke="#63b8ff" points="229.39,-200.09 235.29,-208.89 236.17,-198.33 229.39,-200.09"/>
</a>
</g>
</g>
</g>
</svg>
