<?xml version="1.0" encoding="UTF-8" standalone="no"?>
<!DOCTYPE svg PUBLIC "-//W3C//DTD SVG 1.1//EN"
 "http://www.w3.org/Graphics/SVG/1.1/DTD/svg11.dtd">
<!-- Generated by graphviz version 14.1.2 (0)
 -->
<!-- Title: mqtt::lib::MqttMapper::DelayedQueue::delayPublish Pages: 1 -->
<svg width="743pt" height="198pt"
 viewBox="0.00 0.00 743.00 198.00" xmlns="http://www.w3.org/2000/svg" xmlns:xlink="http://www.w3.org/1999/xlink">
<g id="graph0" class="graph" transform="scale(1 1) rotate(0) translate(4 193.5)">
<title>mqtt::lib::MqttMapper::DelayedQueue::delayPublish</title>
<!-- Node1 -->
<g id="Node000001" class="node">
<title>Node1</title>
<g id="a_Node000001"><a xlink:title=" ">
<polygon fill="#999999" stroke="#666666" points="162.25,-100.5 0,-100.5 0,-67 162.25,-67 162.25,-100.5"/>
<text xml:space="preserve" text-anchor="start" x="8" y="-87" font-family="Helvetica,sans-Serif" font-size="10.00">mqtt::lib::MqttMapper</text>
<text xml:space="preserve" text-anchor="middle" x="81.12" y="-74.25" font-family="Helvetica,sans-Serif" font-size="10.00">::DelayedQueue::delayPublish</text>
</a>
</g>
</g>
<!-- Node2 -->
<g id="Node000002" class="node">
<title>Node2</title>
<g id="a_Node000002"><a xlink:href="classmqtt_1_1lib_1_1MqttMapper_1_1DelayedQueue.html#a723e5d4f86c96845c8d24f4d9c740329" target="_top" xlink:title=" ">
<polygon fill="white" stroke="#666666" points="374,-100.5 198.25,-100.5 198.25,-67 374,-67 374,-100.5"/>
<text xml:space="preserve" text-anchor="start" x="206.25" y="-87" font-family="Helvetica,sans-Serif" font-size="10.00">mqtt::lib::MqttMapper</text>
<text xml:space="preserve" text-anchor="middle" x="286.12" y="-74.25" font-family="Helvetica,sans-Serif" font-size="10.00">::DelayedQueue::armDelayTimer</text>
</a>
</g>
</g>
<!-- Node1&#45;&gt;Node2 -->
<g id="edge1_Node000001_Node000002" class="edge">
<title>Node1&#45;&gt;Node2</title>
<g id="a_edge1_Node000001_Node000002"><a xlink:title=" ">
<path fill="none" stroke="#63b8ff" d="M162.65,-83.75C170.55,-83.75 178.62,-83.75 186.68,-83.75"/>
<polygon fill="#63b8ff" stroke="#63b8ff" points="186.51,-87.25 196.51,-83.75 186.51,-80.25 186.51,-87.25"/>
</a>
</g>
</g>
<!-- Node2&#45;&gt;Node2 -->
<g id="edge2_Node000002_Node000002" class="edge">
<title>Node2&#45;&gt;Node2</title>
<g id="a_edge2_Node000002_Node000002"><a xlink:title=" ">
<path fill="none" stroke="#63b8ff" d="M249.75,-100.91C243.56,-110.12 255.69,-118.5 286.12,-118.5 303.01,-118.5 314.26,-115.92 319.87,-112.05"/>
<polygon fill="#63b8ff" stroke="#63b8ff" points="323.26,-112.92 322.16,-102.39 316.45,-111.31 323.26,-112.92"/>
</a>
</g>
</g>
<!-- Node3 -->
<g id="Node000003" class="node">
<title>Node3</title>
<g id="a_Node000003"><a xlink:href="classmqtt_1_1lib_1_1MqttMapper_1_1DelayedQueue.html#af8185ba5f4ce04c0273618bc6d85faa9" target="_top" xlink:title=" ">
<polygon fill="white" stroke="#666666" points="734.5,-189.5 603,-189.5 603,-156 734.5,-156 734.5,-189.5"/>
<text xml:space="preserve" text-anchor="start" x="611" y="-176" font-family="Helvetica,sans-Serif" font-size="10.00">mqtt::lib::MqttMapper</text>
<text xml:space="preserve" text-anchor="middle" x="668.75" y="-163.25" font-family="Helvetica,sans-Serif" font-size="10.00">::DelayedQueue::empty</text>
</a>
</g>
</g>
<!-- Node2&#45;&gt;Node3 -->
<g id="edge3_Node000002_Node000003" class="edge">
<title>Node2&#45;&gt;Node3</title>
<g id="a_edge3_Node000002_Node000003"><a xlink:title=" ">
<path fill="none" stroke="#63b8ff" d="M360.51,-100.91C426.92,-116.44 524.33,-139.21 591.58,-154.94"/>
<polygon fill="#63b8ff" stroke="#63b8ff" points="590.51,-158.28 601.05,-157.15 592.11,-151.47 590.51,-158.28"/>
</a>
</g>
</g>
<!-- Node4 -->
<g id="Node000004" class="node">
<title>Node4</title>
<g id="a_Node000004"><a xlink:href="classmqtt_1_1lib_1_1MqttMapper_1_1DelayedQueue.html#a57de7ad3bb5718b911b078d9c5b26896" target="_top" xlink:title=" ">
<polygon fill="white" stroke="#666666" points="567,-100.5 410,-100.5 410,-67 567,-67 567,-100.5"/>
<text xml:space="preserve" text-anchor="start" x="418" y="-87" font-family="Helvetica,sans-Serif" font-size="10.00">mqtt::lib::MqttMapper</text>
<text xml:space="preserve" text-anchor="middle" x="488.5" y="-74.25" font-family="Helvetica,sans-Serif" font-size="10.00">::DelayedQueue::processDue</text>
</a>
</g>
</g>
<!-- Node2&#45;&gt;Node4 -->
<g id="edge4_Node000002_Node000004" class="edge">
<title>Node2&#45;&gt;Node4</title>
<g id="a_edge4_Node000002_Node000004"><a xlink:title=" ">
<path fill="none" stroke="#63b8ff" d="M374.43,-83.75C382.29,-83.75 390.27,-83.75 398.15,-83.75"/>
<polygon fill="#63b8ff" stroke="#63b8ff" points="398.1,-87.25 408.1,-83.75 398.1,-80.25 398.1,-87.25"/>
</a>
</g>
</g>
<!-- Node7 -->
<g id="Node000007" class="node">
<title>Node7</title>
<g id="a_Node000007"><a xlink:href="classmqtt_1_1lib_1_1MqttMapper_1_1DelayedQueue.html#ac00c125d33f2cb820d4117e12c100528" target="_top" xlink:title=" ">
<polygon fill="white" stroke="#666666" points="730,-33.5 607.5,-33.5 607.5,0 730,0 730,-33.5"/>
<text xml:space="preserve" text-anchor="start" x="615.5" y="-20" font-family="Helvetica,sans-Serif" font-size="10.00">mqtt::lib::MqttMapper</text>
<text xml:space="preserve" text-anchor="middle" x="668.75" y="-7.25" font-family="Helvetica,sans-Serif" font-size="10.00">::DelayedQueue::top</text>
</a>
</g>
</g>
<!-- Node2&#45;&gt;Node7 -->
<g id="edge9_Node000002_Node000007" class="edge">
<title>Node2&#45;&gt;Node7</title>
<g id="a_edge9_Node000002_Node000007"><a xlink:title=" ">
<path fill="none" stroke="#63b8ff" d="M365.67,-66.51C380.37,-63.46 395.64,-60.41 410,-57.75 472.68,-46.14 544.3,-34.91 596.12,-27.15"/>
<polygon fill="#63b8ff" stroke="#63b8ff" points="596.32,-30.66 605.69,-25.72 595.29,-23.73 596.32,-30.66"/>
</a>
</g>
</g>
<!-- Node4&#45;&gt;Node3 -->
<g id="edge5_Node000004_Node000003" class="edge">
<title>Node4&#45;&gt;Node3</title>
<g id="a_edge5_Node000004_Node000003"><a xlink:title=" ">
<path fill="none" stroke="#63b8ff" d="M517.9,-100.82C540.55,-114.11 573.29,-132.61 603,-146.75 606.07,-148.21 609.25,-149.67 612.47,-151.1"/>
<polygon fill="#63b8ff" stroke="#63b8ff" points="610.89,-154.23 621.46,-154.97 613.66,-147.8 610.89,-154.23"/>
</a>
</g>
</g>
<!-- Node5 -->
<g id="Node000005" class="node">
<title>Node5</title>
<g id="a_Node000005"><a xlink:href="classmqtt_1_1lib_1_1MqttMapper_1_1DelayedQueue.html#aa7caaffc26d0138ebb78fe90519c47c1" target="_top" xlink:title=" ">
<polygon fill="white" stroke="#666666" points="730,-137.5 607.5,-137.5 607.5,-104 730,-104 730,-137.5"/>
<text xml:space="preserve" text-anchor="start" x="615.5" y="-124" font-family="Helvetica,sans-Serif" font-size="10.00">mqtt::lib::MqttMapper</text>
<text xml:space="preserve" text-anchor="middle" x="668.75" y="-111.25" font-family="Helvetica,sans-Serif" font-size="10.00">::DelayedQueue::pop</text>
</a>
</g>
</g>
<!-- Node4&#45;&gt;Node5 -->
<g id="edge6_Node000004_Node000005" class="edge">
<title>Node4&#45;&gt;Node5</title>
<g id="a_edge6_Node000004_Node000005"><a xlink:title=" ">
<path fill="none" stroke="#63b8ff" d="M567.42,-99.92C576.88,-101.89 586.51,-103.89 595.87,-105.83"/>
<polygon fill="#63b8ff" stroke="#63b8ff" points="595.15,-109.25 605.65,-107.86 596.57,-102.4 595.15,-109.25"/>
</a>
</g>
</g>
<!-- Node6 -->
<g id="Node000006" class="node">
<title>Node6</title>
<g id="a_Node000006"><a xlink:href="classmqtt_1_1lib_1_1MqttMapper.html#a621835aa27e24b3893052ef5227f6deb" target="_top" xlink:title=" ">
<polygon fill="white" stroke="#666666" points="730,-85.5 607.5,-85.5 607.5,-52 730,-52 730,-85.5"/>
<text xml:space="preserve" text-anchor="start" x="615.5" y="-72" font-family="Helvetica,sans-Serif" font-size="10.00">mqtt::lib::MqttMapper</text>
<text xml:space="preserve" text-anchor="middle" x="668.75" y="-59.25" font-family="Helvetica,sans-Serif" font-size="10.00">::publishMapping</text>
</a>
</g>
</g>
<!-- Node4&#45;&gt;Node6 -->
<g id="edge7_Node000004_Node000006" class="edge">
<title>Node4&#45;&gt;Node6</title>
<g id="a_edge7_Node000004_Node000006"><a xlink:title=" ">
<path fill="none" stroke="#63b8ff" d="M567.42,-77.19C576.88,-76.4 586.51,-75.59 595.87,-74.8"/>
<polygon fill="#63b8ff" stroke="#63b8ff" points="595.96,-78.3 605.63,-73.98 595.37,-71.33 595.96,-78.3"/>
</a>
</g>
</g>
<!-- Node4&#45;&gt;Node7 -->
<g id="edge8_Node000004_Node000007" class="edge">
<title>Node4&#45;&gt;Node7</title>
<g id="a_edge8_Node000004_Node000007"><a xlink:title=" ">
<path fill="none" stroke="#63b8ff" d="M534.94,-66.67C558.21,-57.92 586.76,-47.19 611.42,-37.92"/>
<polygon fill="#63b8ff" stroke="#63b8ff" points="612.54,-41.24 620.67,-34.45 610.07,-34.69 612.54,-41.24"/>
</a>
</g>
</g>
</g>
</svg>
