<?xml version="1.0" encoding="UTF-8" standalone="no"?>
<!DOCTYPE svg PUBLIC "-//W3C//DTD SVG 1.1//EN"
 "http://www.w3.org/Graphics/SVG/1.1/DTD/svg11.dtd">
<!-- Generated by graphviz version 2.42.4 (0)
 -->
<!-- Title: inja::StatementNode::StatementNode Pages: 1 -->
<!--zoomable 398 -->

<svg id="main" version="1.1" xmlns="http://www.w3.org/2000/svg" xmlns:xlink="http://www.w3.org/1999/xlink" xml:space="preserve" onload="init(evt)">
<style type="text/css"><![CDATA[
.node, .edge {opacity: 0.7;}
.node.selected, .edge.selected {opacity: 1;}
.edge:hover path { stroke: red; }
.edge:hover polygon { stroke: red; fill: red; }
]]></style>

<defs>
  <circle id="rim" cx="0" cy="0" r="7"/>
  <circle id="rim2" cx="0" cy="0" r="3.5"/>
  <g id="zoomPlus">
    <use xlink:href="#rim" fill="#404040"><set attributeName="fill" to="#808080" begin="zoomplus.mouseover" end="zoomplus.mouseout"/></use>
    <path d="M-4,0h8M0,-4v8" fill="none" stroke="white" stroke-width="1.5" pointer-events="none"/>
  </g>
  <g id="zoomMin">
    <use xlink:href="#rim" fill="#404040"><set attributeName="fill" to="#808080" begin="zoomminus.mouseover" end="zoomminus.mouseout"/></use>
    <path d="M-4,0h8" fill="none" stroke="white" stroke-width="1.5" pointer-events="none"/>
  </g>
  <g id="arrowUp" transform="translate(30 24)">
    <use xlink:href="#rim"/>
    <path pointer-events="none" fill="none" stroke="white" stroke-width="1.5" d="M0,-3.0v7 M-2.5,-0.5L0,-3.0L2.5,-0.5"/>
  </g>
  <g id="arrowRight" transform="rotate(90) translate(36 -43)">
    <use xlink:href="#rim"/>
    <path pointer-events="none" fill="none" stroke="white" stroke-width="1.5" d="M0,-3.0v7 M-2.5,-0.5L0,-3.0L2.5,-0.5"/>
  </g>
  <g id="arrowDown" transform="rotate(180) translate(-30 -48)">
    <use xlink:href="#rim"/>
    <path pointer-events="none" fill="none" stroke="white" stroke-width="1.5" d="M0,-3.0v7 M-2.5,-0.5L0,-3.0L2.5,-0.5"/>
  </g>
  <g id="arrowLeft" transform="rotate(270) translate(-36 17)">
    <use xlink:href="#rim"/>
    <path pointer-events="none" fill="none" stroke="white" stroke-width="1.5" d="M0,-3.0v7 M-2.5,-0.5L0,-3.0L2.5,-0.5"/>
  </g>
  <g id="resetDef">
    <use xlink:href="#rim2" fill="#404040"><set attributeName="fill" to="#808080" begin="reset.mouseover" end="reset.mouseout"/></use>
  </g>
</defs>
<script type="application/ecmascript">
var viewWidth = 524;
var viewHeight = 398;
var sectionId = 'dynsection-3';
</script>
<script type="application/ecmascript" xlink:href="svg.min.js"/>
<svg id="graph" class="graph">
<g id="viewport">
<title>inja::StatementNode::StatementNode</title>
<!-- Node1 -->
<g id="Node000001" class="node">
<title>Node1</title>
<g id="a_Node000001"><a xlink:title=" ">
<polygon fill="#999999" stroke="#666666" points="516,-210 399,-210 399,-180 516,-180 516,-210"/>
<text text-anchor="start" x="407" y="-198" font-family="Helvetica,sans-Serif" font-size="10.00">inja::StatementNode</text>
<text text-anchor="middle" x="457.5" y="-187" font-family="Helvetica,sans-Serif" font-size="10.00">::StatementNode</text>
</a>
</g>
</g>
<!-- Node2 -->
<g id="Node000002" class="node">
<title>Node2</title>
<g id="a_Node000002"><a xlink:href="classinja_1_1BlockStatementNode.html#a84c02d2cc82e9088d9881c236f7e6ebb" target="_top" xlink:title=" ">
<polygon fill="white" stroke="#666666" points="357,-372 213,-372 213,-342 357,-342 357,-372"/>
<text text-anchor="start" x="221" y="-360" font-family="Helvetica,sans-Serif" font-size="10.00">inja::BlockStatementNode</text>
<text text-anchor="middle" x="285" y="-349" font-family="Helvetica,sans-Serif" font-size="10.00">::BlockStatementNode</text>
</a>
</g>
</g>
<!-- Node1&#45;&gt;Node2 -->
<g id="edge1_Node000001_Node000002" class="edge">
<title>Node1&#45;&gt;Node2</title>
<g id="a_edge1_Node000001_Node000002"><a xlink:title=" ">
<path fill="none" stroke="#63b8ff" d="M446.13,-219.57C431.85,-250.47 403.25,-303.11 363,-333 358.39,-336.42 353.28,-339.36 347.95,-341.89"/>
<polygon fill="#63b8ff" stroke="#63b8ff" points="449.36,-220.91 450.25,-210.35 442.97,-218.05 449.36,-220.91"/>
</a>
</g>
</g>
<!-- Node3 -->
<g id="Node000003" class="node">
<title>Node3</title>
<g id="a_Node000003"><a xlink:href="classinja_1_1ExtendsStatementNode.html#a3d637e7f9b2fcd603508d00b5c73b758" target="_top" xlink:title=" ">
<polygon fill="white" stroke="#666666" points="363,-306 207,-306 207,-276 363,-276 363,-306"/>
<text text-anchor="start" x="215" y="-294" font-family="Helvetica,sans-Serif" font-size="10.00">inja::ExtendsStatementNode</text>
<text text-anchor="middle" x="285" y="-283" font-family="Helvetica,sans-Serif" font-size="10.00">::ExtendsStatementNode</text>
</a>
</g>
</g>
<!-- Node1&#45;&gt;Node3 -->
<g id="edge3_Node000001_Node000003" class="edge">
<title>Node1&#45;&gt;Node3</title>
<g id="a_edge3_Node000001_Node000003"><a xlink:title=" ">
<path fill="none" stroke="#63b8ff" d="M432.83,-217.06C414.84,-232.84 388.86,-253.57 363,-267 356.54,-270.36 349.53,-273.34 342.45,-275.96"/>
<polygon fill="#63b8ff" stroke="#63b8ff" points="435.38,-219.48 440.5,-210.21 430.71,-214.26 435.38,-219.48"/>
</a>
</g>
</g>
<!-- Node4 -->
<g id="Node000004" class="node">
<title>Node4</title>
<g id="a_Node000004"><a xlink:href="classinja_1_1ForStatementNode.html#ac25033c5f8e4fd975a619ccde75ae5a9" target="_top" xlink:title=" ">
<polygon fill="white" stroke="#666666" points="351,-258 219,-258 219,-228 351,-228 351,-258"/>
<text text-anchor="start" x="227" y="-246" font-family="Helvetica,sans-Serif" font-size="10.00">inja::ForStatementNode</text>
<text text-anchor="middle" x="285" y="-235" font-family="Helvetica,sans-Serif" font-size="10.00">::ForStatementNode</text>
</a>
</g>
</g>
<!-- Node1&#45;&gt;Node4 -->
<g id="edge5_Node000001_Node000004" class="edge">
<title>Node1&#45;&gt;Node4</title>
<g id="a_edge5_Node000001_Node000004"><a xlink:title=" ">
<path fill="none" stroke="#63b8ff" d="M393.31,-212.79C375.55,-217.79 356.41,-223.18 339.29,-228"/>
<polygon fill="#63b8ff" stroke="#63b8ff" points="394.34,-216.13 403.02,-210.06 392.45,-209.4 394.34,-216.13"/>
</a>
</g>
</g>
<!-- Node7 -->
<g id="Node000007" class="node">
<title>Node7</title>
<g id="a_Node000007"><a xlink:href="classinja_1_1IfStatementNode.html#af8eee57ca3fe0fe521fa9fb1dc59abe3" target="_top" xlink:title=" ">
<polygon fill="white" stroke="#666666" points="347,-210 223,-210 223,-180 347,-180 347,-210"/>
<text text-anchor="start" x="231" y="-198" font-family="Helvetica,sans-Serif" font-size="10.00">inja::IfStatementNode</text>
<text text-anchor="middle" x="285" y="-187" font-family="Helvetica,sans-Serif" font-size="10.00">::IfStatementNode</text>
</a>
</g>
</g>
<!-- Node1&#45;&gt;Node7 -->
<g id="edge10_Node000001_Node000007" class="edge">
<title>Node1&#45;&gt;Node7</title>
<g id="a_edge10_Node000001_Node000007"><a xlink:title=" ">
<path fill="none" stroke="#63b8ff" d="M388.48,-195C374.83,-195 360.56,-195 347.16,-195"/>
<polygon fill="#63b8ff" stroke="#63b8ff" points="388.78,-198.5 398.78,-195 388.78,-191.5 388.78,-198.5"/>
</a>
</g>
</g>
<!-- Node8 -->
<g id="Node000008" class="node">
<title>Node8</title>
<g id="a_Node000008"><a xlink:href="classinja_1_1IfStatementNode.html#afe2510abab7f2718760b470d90a45e74" target="_top" xlink:title=" ">
<polygon fill="white" stroke="#666666" points="347,-162 223,-162 223,-132 347,-132 347,-162"/>
<text text-anchor="start" x="231" y="-150" font-family="Helvetica,sans-Serif" font-size="10.00">inja::IfStatementNode</text>
<text text-anchor="middle" x="285" y="-139" font-family="Helvetica,sans-Serif" font-size="10.00">::IfStatementNode</text>
</a>
</g>
</g>
<!-- Node1&#45;&gt;Node8 -->
<g id="edge11_Node000001_Node000008" class="edge">
<title>Node1&#45;&gt;Node8</title>
<g id="a_edge11_Node000001_Node000008"><a xlink:title=" ">
<path fill="none" stroke="#63b8ff" d="M393.31,-177.21C375.55,-172.21 356.41,-166.82 339.29,-162"/>
<polygon fill="#63b8ff" stroke="#63b8ff" points="392.45,-180.6 403.02,-179.94 394.34,-173.87 392.45,-180.6"/>
</a>
</g>
</g>
<!-- Node9 -->
<g id="Node000009" class="node">
<title>Node9</title>
<g id="a_Node000009"><a xlink:href="classinja_1_1IncludeStatementNode.html#abfed0418c8b9b33a2ff414a6ebbcfa36" target="_top" xlink:title=" ">
<polygon fill="white" stroke="#666666" points="361,-96 209,-96 209,-66 361,-66 361,-96"/>
<text text-anchor="start" x="217" y="-84" font-family="Helvetica,sans-Serif" font-size="10.00">inja::IncludeStatementNode</text>
<text text-anchor="middle" x="285" y="-73" font-family="Helvetica,sans-Serif" font-size="10.00">::IncludeStatementNode</text>
</a>
</g>
</g>
<!-- Node1&#45;&gt;Node9 -->
<g id="edge12_Node000001_Node000009" class="edge">
<title>Node1&#45;&gt;Node9</title>
<g id="a_edge12_Node000001_Node000009"><a xlink:title=" ">
<path fill="none" stroke="#63b8ff" d="M430.61,-173.3C412.28,-158.37 386.81,-138.53 363,-123 348.08,-113.27 330.71,-103.66 316.25,-96.09"/>
<polygon fill="#63b8ff" stroke="#63b8ff" points="428.55,-176.13 438.5,-179.77 432.99,-170.72 428.55,-176.13"/>
</a>
</g>
</g>
<!-- Node10 -->
<g id="Node000010" class="node">
<title>Node10</title>
<g id="a_Node000010"><a xlink:href="classinja_1_1SetStatementNode.html#a9d391abda6352fbaf14c3b6cdca8b226" target="_top" xlink:title=" ">
<polygon fill="white" stroke="#666666" points="351.5,-30 218.5,-30 218.5,0 351.5,0 351.5,-30"/>
<text text-anchor="start" x="226.5" y="-18" font-family="Helvetica,sans-Serif" font-size="10.00">inja::SetStatementNode</text>
<text text-anchor="middle" x="285" y="-7" font-family="Helvetica,sans-Serif" font-size="10.00">::SetStatementNode</text>
</a>
</g>
</g>
<!-- Node1&#45;&gt;Node10 -->
<g id="edge14_Node000001_Node000010" class="edge">
<title>Node1&#45;&gt;Node10</title>
<g id="a_edge14_Node000001_Node000010"><a xlink:title=" ">
<path fill="none" stroke="#63b8ff" d="M444.46,-170.31C428.94,-140.49 399.57,-90.21 363,-57 351.05,-46.15 335.8,-37.08 322.02,-30.18"/>
<polygon fill="#63b8ff" stroke="#63b8ff" points="441.52,-172.26 449.18,-179.58 447.76,-169.08 441.52,-172.26"/>
</a>
</g>
</g>
<!-- Node2&#45;&gt;Node2 -->
<g id="edge2_Node000002_Node000002" class="edge">
<title>Node2&#45;&gt;Node2</title>
<g id="a_edge2_Node000002_Node000002"><a xlink:title=" ">
<path fill="none" stroke="#63b8ff" d="M315.11,-382.6C310.99,-386.97 300.96,-390 285,-390 258.12,-390 248.05,-381.41 254.77,-372.28"/>
<polygon fill="#63b8ff" stroke="#63b8ff" points="318.61,-382.32 315.23,-372.28 311.61,-382.23 318.61,-382.32"/>
</a>
</g>
</g>
<!-- Node3&#45;&gt;Node3 -->
<g id="edge4_Node000003_Node000003" class="edge">
<title>Node3&#45;&gt;Node3</title>
<g id="a_edge4_Node000003_Node000003"><a xlink:title=" ">
<path fill="none" stroke="#63b8ff" d="M315.11,-316.6C310.99,-320.97 300.96,-324 285,-324 258.12,-324 248.05,-315.41 254.77,-306.28"/>
<polygon fill="#63b8ff" stroke="#63b8ff" points="318.61,-316.32 315.23,-306.28 311.61,-316.23 318.61,-316.32"/>
</a>
</g>
</g>
<!-- Node5 -->
<g id="Node000005" class="node">
<title>Node5</title>
<g id="a_Node000005"><a xlink:href="classinja_1_1ForArrayStatementNode.html#a0f40b1eb08e0f9bedbc7b4e106669748" target="_top" xlink:title=" ">
<polygon fill="white" stroke="#666666" points="164.5,-291 6.5,-291 6.5,-261 164.5,-261 164.5,-291"/>
<text text-anchor="start" x="14.5" y="-279" font-family="Helvetica,sans-Serif" font-size="10.00">inja::ForArrayStatementNode</text>
<text text-anchor="middle" x="85.5" y="-268" font-family="Helvetica,sans-Serif" font-size="10.00">::ForArrayStatementNode</text>
</a>
</g>
</g>
<!-- Node4&#45;&gt;Node5 -->
<g id="edge6_Node000004_Node000005" class="edge">
<title>Node4&#45;&gt;Node5</title>
<g id="a_edge6_Node000004_Node000005"><a xlink:title=" ">
<path fill="none" stroke="#63b8ff" d="M208.9,-255.55C194.44,-257.96 179.26,-260.5 164.7,-262.93"/>
<polygon fill="#63b8ff" stroke="#63b8ff" points="209.5,-259 218.78,-253.9 208.34,-252.09 209.5,-259"/>
</a>
</g>
</g>
<!-- Node6 -->
<g id="Node000006" class="node">
<title>Node6</title>
<g id="a_Node000006"><a xlink:href="classinja_1_1ForObjectStatementNode.html#a32564b751a7442108fddc2d0ecc53bb4" target="_top" xlink:title=" ">
<polygon fill="white" stroke="#666666" points="171,-225 0,-225 0,-195 171,-195 171,-225"/>
<text text-anchor="start" x="8" y="-213" font-family="Helvetica,sans-Serif" font-size="10.00">inja::ForObjectStatement</text>
<text text-anchor="middle" x="85.5" y="-202" font-family="Helvetica,sans-Serif" font-size="10.00">Node::ForObjectStatementNode</text>
</a>
</g>
</g>
<!-- Node4&#45;&gt;Node6 -->
<g id="edge8_Node000004_Node000006" class="edge">
<title>Node4&#45;&gt;Node6</title>
<g id="a_edge8_Node000004_Node000006"><a xlink:title=" ">
<path fill="none" stroke="#63b8ff" d="M208.6,-230.4C196.31,-228.35 183.51,-226.21 171.02,-224.12"/>
<polygon fill="#63b8ff" stroke="#63b8ff" points="208.34,-233.91 218.78,-232.1 209.5,-227 208.34,-233.91"/>
</a>
</g>
</g>
<!-- Node5&#45;&gt;Node5 -->
<g id="edge7_Node000005_Node000005" class="edge">
<title>Node5&#45;&gt;Node5</title>
<g id="a_edge7_Node000005_Node000005"><a xlink:title=" ">
<path fill="none" stroke="#63b8ff" d="M120.16,-301.6C115.42,-305.97 103.87,-309 85.5,-309 54.56,-309 42.96,-300.41 50.7,-291.28"/>
<polygon fill="#63b8ff" stroke="#63b8ff" points="123.66,-301.32 120.3,-291.28 116.66,-301.22 123.66,-301.32"/>
</a>
</g>
</g>
<!-- Node6&#45;&gt;Node6 -->
<g id="edge9_Node000006_Node000006" class="edge">
<title>Node6&#45;&gt;Node6</title>
<g id="a_edge9_Node000006_Node000006"><a xlink:title=" ">
<path fill="none" stroke="#63b8ff" d="M120.16,-235.6C115.42,-239.97 103.87,-243 85.5,-243 54.56,-243 42.96,-234.41 50.7,-225.28"/>
<polygon fill="#63b8ff" stroke="#63b8ff" points="123.66,-235.32 120.3,-225.28 116.66,-235.22 123.66,-235.32"/>
</a>
</g>
</g>
<!-- Node9&#45;&gt;Node9 -->
<g id="edge13_Node000009_Node000009" class="edge">
<title>Node9&#45;&gt;Node9</title>
<g id="a_edge13_Node000009_Node000009"><a xlink:title=" ">
<path fill="none" stroke="#63b8ff" d="M315.11,-106.6C310.99,-110.97 300.96,-114 285,-114 258.12,-114 248.05,-105.41 254.77,-96.28"/>
<polygon fill="#63b8ff" stroke="#63b8ff" points="318.61,-106.32 315.23,-96.28 311.61,-106.23 318.61,-106.32"/>
</a>
</g>
</g>
<!-- Node10&#45;&gt;Node10 -->
<g id="edge15_Node000010_Node000010" class="edge">
<title>Node10&#45;&gt;Node10</title>
<g id="a_edge15_Node000010_Node000010"><a xlink:title=" ">
<path fill="none" stroke="#63b8ff" d="M315.11,-40.6C310.99,-44.97 300.96,-48 285,-48 258.12,-48 248.05,-39.41 254.77,-30.28"/>
<polygon fill="#63b8ff" stroke="#63b8ff" points="318.61,-40.32 315.23,-30.28 311.61,-40.23 318.61,-40.32"/>
</a>
</g>
</g>
</g>
</svg>

<g id="navigator" transform="translate(0 0)" fill="#404254">
  <rect fill="#f2f5e9" fill-opacity="0.5" stroke="#606060" stroke-width=".5" x="0" y="0" width="60" height="60"/>
  <use id="zoomplus" xlink:href="#zoomPlus" x="17" y="9" onmousedown="handleZoom(evt,'in')"/>
  <use id="zoomminus" xlink:href="#zoomMin" x="42" y="9" onmousedown="handleZoom(evt,'out')"/>
  <use id="reset" xlink:href="#resetDef" x="30" y="36" onmousedown="handleReset()"/>
   <use id="arrowup" xlink:href="#arrowUp" x="0" y="0" onmousedown="handlePan(0,-1)"/>
  <use id="arrowright" xlink:href="#arrowRight" x="0" y="0" onmousedown="handlePan(1,0)"/>
  <use id="arrowdown" xlink:href="#arrowDown" x="0" y="0" onmousedown="handlePan(0,1)"/>
  <use id="arrowleft" xlink:href="#arrowLeft" x="0" y="0" onmousedown="handlePan(-1,0)"/>
</g>
<svg viewBox="0 0 15 15" width="100%" height="30px" preserveAspectRatio="xMaxYMin meet">
 <g id="arrow_out" transform="scale(0.3 0.3)">
  <a xlink:href="classinja_1_1StatementNode_a0bba1af707ebbe637bcfe3e1684f63d6_icgraph_org.svg" target="_base">
   <rect id="button" ry="5" rx="5" y="6" x="6" height="38" width="38"
        fill="#f2f5e9" fill-opacity="0.5" stroke="#606060" stroke-width="1.0"/>
   <path id="arrow"
     d="M 11.500037,31.436501 C 11.940474,20.09759 22.043105,11.32322 32.158766,21.979434 L 37.068811,17.246167 C 37.068811,17.246167 37.088388,32 37.088388,32 L 22.160133,31.978069 C 22.160133,31.978069 26.997745,27.140456 26.997745,27.140456 C 18.528582,18.264221 13.291696,25.230495 11.500037,31.436501 z"
     style="fill:#404040;"/>
  </a>
 </g>
</svg>

<style type='text/css'>
<![CDATA[
[data-mouse-over-selected='false'] { opacity: 0.7; }
[data-mouse-over-selected='true']  { opacity: 1.0; }
]]>
</style>
<script type="application/ecmascript"><![CDATA[
document.addEventListener('DOMContentLoaded', (event) => {
  highlightEdges();
  highlightAdjacentNodes();
});
]]></script>
</svg>
