<?xml version="1.0" encoding="UTF-8" standalone="no"?>
<!DOCTYPE svg PUBLIC "-//W3C//DTD SVG 1.1//EN"
 "http://www.w3.org/Graphics/SVG/1.1/DTD/svg11.dtd">
<!-- Generated by graphviz version 2.42.4 (0)
 -->
<!-- Title: inja::Parser::parse_expression Pages: 1 -->
<svg width="1309pt" height="474pt"
 viewBox="0.00 0.00 1309.00 473.77" xmlns="http://www.w3.org/2000/svg" xmlns:xlink="http://www.w3.org/1999/xlink">
<g id="graph0" class="graph" transform="scale(1 1) rotate(0) translate(4 469.77)">
<title>inja::Parser::parse_expression</title>
<!-- Node1 -->
<g id="Node000001" class="node">
<title>Node1</title>
<g id="a_Node000001"><a xlink:title=" ">
<polygon fill="#999999" stroke="#666666" points="104,-336.77 0,-336.77 0,-306.77 104,-306.77 104,-336.77"/>
<text text-anchor="start" x="8" y="-324.77" font-family="Helvetica,sans-Serif" font-size="10.00">inja::Parser::parse</text>
<text text-anchor="middle" x="52" y="-313.77" font-family="Helvetica,sans-Serif" font-size="10.00">_expression</text>
</a>
</g>
</g>
<!-- Node2 -->
<g id="Node000002" class="node">
<title>Node2</title>
<g id="a_Node000002"><a xlink:href="classinja_1_1Parser.html#a7dda6b9f4295c215e097f45d573d8d69" target="_top" xlink:title=" ">
<polygon fill="white" stroke="#666666" points="244,-336.77 140,-336.77 140,-306.77 244,-306.77 244,-336.77"/>
<text text-anchor="start" x="148" y="-324.77" font-family="Helvetica,sans-Serif" font-size="10.00">inja::Parser::parse</text>
<text text-anchor="middle" x="192" y="-313.77" font-family="Helvetica,sans-Serif" font-size="10.00">_expression</text>
</a>
</g>
</g>
<!-- Node1&#45;&gt;Node2 -->
<g id="edge1_Node000001_Node000002" class="edge">
<title>Node1&#45;&gt;Node2</title>
<g id="a_edge1_Node000001_Node000002"><a xlink:title=" ">
<path fill="none" stroke="#63b8ff" d="M104.39,-321.77C112.56,-321.77 121.08,-321.77 129.46,-321.77"/>
<polygon fill="#63b8ff" stroke="#63b8ff" points="129.57,-325.27 139.57,-321.77 129.57,-318.27 129.57,-325.27"/>
</a>
</g>
</g>
<!-- Node2&#45;&gt;Node2 -->
<g id="edge36_Node000002_Node000002" class="edge">
<title>Node2&#45;&gt;Node2</title>
<g id="a_edge36_Node000002_Node000002"><a xlink:title=" ">
<path fill="none" stroke="#63b8ff" d="M167.39,-337.05C161.92,-346.18 170.12,-354.77 192,-354.77 204.99,-354.77 213.16,-351.74 216.51,-347.37"/>
<polygon fill="#63b8ff" stroke="#63b8ff" points="220.01,-347.08 216.61,-337.05 213.01,-347.01 220.01,-347.08"/>
</a>
</g>
</g>
<!-- Node3 -->
<g id="Node000003" class="node">
<title>Node3</title>
<g id="a_Node000003"><a xlink:href="classinja_1_1Parser.html#ae7a1d8abdffac091becd3f59924a67a5" target="_top" xlink:title=" ">
<polygon fill="white" stroke="#666666" points="415.5,-449.27 286.5,-449.27 286.5,-430.27 415.5,-430.27 415.5,-449.27"/>
<text text-anchor="middle" x="351" y="-437.27" font-family="Helvetica,sans-Serif" font-size="10.00">inja::Parser::add_literal</text>
</a>
</g>
</g>
<!-- Node2&#45;&gt;Node3 -->
<g id="edge2_Node000002_Node000003" class="edge">
<title>Node2&#45;&gt;Node3</title>
<g id="a_edge2_Node000002_Node000003"><a xlink:title=" ">
<path fill="none" stroke="#63b8ff" d="M201.9,-336.86C215.74,-358.96 244.56,-399.89 280,-421.77 282.78,-423.49 285.71,-425.04 288.74,-426.44"/>
<polygon fill="#63b8ff" stroke="#63b8ff" points="287.49,-429.71 298.07,-430.23 290.12,-423.22 287.49,-429.71"/>
</a>
</g>
</g>
<!-- Node4 -->
<g id="Node000004" class="node">
<title>Node4</title>
<g id="a_Node000004"><a xlink:href="classinja_1_1Parser.html#a34dbff50fadd5a8089c2f55a7438ad55" target="_top" xlink:title=" ">
<polygon fill="white" stroke="#666666" points="422,-412.27 280,-412.27 280,-393.27 422,-393.27 422,-412.27"/>
<text text-anchor="middle" x="351" y="-400.27" font-family="Helvetica,sans-Serif" font-size="10.00">inja::Parser::add_operator</text>
</a>
</g>
</g>
<!-- Node2&#45;&gt;Node4 -->
<g id="edge3_Node000002_Node000004" class="edge">
<title>Node2&#45;&gt;Node4</title>
<g id="a_edge3_Node000002_Node000004"><a xlink:title=" ">
<path fill="none" stroke="#63b8ff" d="M212.88,-336.87C229.98,-349.34 255.67,-366.87 280,-378.77 288.47,-382.92 297.85,-386.66 306.91,-389.89"/>
<polygon fill="#63b8ff" stroke="#63b8ff" points="305.96,-393.27 316.55,-393.19 308.22,-386.64 305.96,-393.27"/>
</a>
</g>
</g>
<!-- Node5 -->
<g id="Node000005" class="node">
<title>Node5</title>
<g id="a_Node000005"><a xlink:href="classinja_1_1Parser.html#a1b11e4984c1934c4e670a609f728ceee" target="_top" xlink:title=" ">
<polygon fill="white" stroke="#666666" points="589.5,-417.77 484.5,-417.77 484.5,-387.77 589.5,-387.77 589.5,-417.77"/>
<text text-anchor="start" x="492.5" y="-405.77" font-family="Helvetica,sans-Serif" font-size="10.00">inja::Parser::throw</text>
<text text-anchor="middle" x="537" y="-394.77" font-family="Helvetica,sans-Serif" font-size="10.00">_parser_error</text>
</a>
</g>
</g>
<!-- Node2&#45;&gt;Node5 -->
<g id="edge37_Node000002_Node000005" class="edge">
<title>Node2&#45;&gt;Node5</title>
<g id="a_edge37_Node000002_Node000005"><a xlink:title=" ">
<path fill="none" stroke="#63b8ff" d="M244.41,-336.41C256.08,-339.61 268.45,-342.89 280,-345.77 346.07,-362.23 422.3,-378.91 474.27,-389.93"/>
<polygon fill="#63b8ff" stroke="#63b8ff" points="473.83,-393.42 484.34,-392.06 475.28,-386.57 473.83,-393.42"/>
</a>
</g>
</g>
<!-- Node11 -->
<g id="Node000011" class="node">
<title>Node11</title>
<g id="a_Node000011"><a xlink:href="structinja_1_1Token.html#adc8c0a84e2d4ce0a3625c399bd259f1f" target="_top" xlink:title=" ">
<polygon fill="white" stroke="#666666" points="409,-240.27 293,-240.27 293,-221.27 409,-221.27 409,-240.27"/>
<text text-anchor="middle" x="351" y="-228.27" font-family="Helvetica,sans-Serif" font-size="10.00">inja::Token::describe</text>
</a>
</g>
</g>
<!-- Node2&#45;&gt;Node11 -->
<g id="edge10_Node000002_Node000011" class="edge">
<title>Node2&#45;&gt;Node11</title>
<g id="a_edge10_Node000002_Node000011"><a xlink:title=" ">
<path fill="none" stroke="#63b8ff" d="M207.28,-306.59C223.44,-290.27 251.28,-264.66 280,-249.77 284.5,-247.44 289.31,-245.37 294.22,-243.55"/>
<polygon fill="#63b8ff" stroke="#63b8ff" points="295.41,-246.84 303.75,-240.31 293.16,-240.21 295.41,-246.84"/>
</a>
</g>
</g>
<!-- Node12 -->
<g id="Node000012" class="node">
<title>Node12</title>
<g id="a_Node000012"><a xlink:href="classinja_1_1FunctionStorage.html#af382c6fe227c69fa5cc36703a655912c" target="_top" xlink:title=" ">
<polygon fill="white" stroke="#666666" points="410.5,-202.77 291.5,-202.77 291.5,-172.77 410.5,-172.77 410.5,-202.77"/>
<text text-anchor="start" x="299.5" y="-190.77" font-family="Helvetica,sans-Serif" font-size="10.00">inja::FunctionStorage</text>
<text text-anchor="middle" x="351" y="-179.77" font-family="Helvetica,sans-Serif" font-size="10.00">::find_function</text>
</a>
</g>
</g>
<!-- Node2&#45;&gt;Node12 -->
<g id="edge11_Node000002_Node000012" class="edge">
<title>Node2&#45;&gt;Node12</title>
<g id="a_edge11_Node000002_Node000012"><a xlink:title=" ">
<path fill="none" stroke="#63b8ff" d="M201.1,-306.71C214.49,-283.16 243.43,-237.66 280,-211.77 282.11,-210.28 284.32,-208.87 286.6,-207.55"/>
<polygon fill="#63b8ff" stroke="#63b8ff" points="288.44,-210.54 295.71,-202.83 285.22,-204.32 288.44,-210.54"/>
</a>
</g>
</g>
<!-- Node14 -->
<g id="Node000014" class="node">
<title>Node14</title>
<g id="a_Node000014"><a xlink:href="classinja_1_1Parser.html#ab8bb45bc1eeead74f630efa420ee6212" target="_top" xlink:title=" ">
<polygon fill="white" stroke="#666666" points="411,-288.77 291,-288.77 291,-258.77 411,-258.77 411,-288.77"/>
<text text-anchor="start" x="299" y="-276.77" font-family="Helvetica,sans-Serif" font-size="10.00">inja::Parser::get_next</text>
<text text-anchor="middle" x="351" y="-265.77" font-family="Helvetica,sans-Serif" font-size="10.00">_token</text>
</a>
</g>
</g>
<!-- Node2&#45;&gt;Node14 -->
<g id="edge13_Node000002_Node000014" class="edge">
<title>Node2&#45;&gt;Node14</title>
<g id="a_edge13_Node000002_Node000014"><a xlink:title=" ">
<path fill="none" stroke="#63b8ff" d="M242.25,-306.72C257.74,-301.98 275,-296.7 291.09,-291.78"/>
<polygon fill="#63b8ff" stroke="#63b8ff" points="292.39,-295.05 300.93,-288.77 290.34,-288.35 292.39,-295.05"/>
</a>
</g>
</g>
<!-- Node26 -->
<g id="Node000026" class="node">
<title>Node26</title>
<g id="a_Node000026"><a xlink:href="classinja_1_1Parser.html#a16b5b7d40ed3e6a536194d1367626fd9" target="_top" xlink:title=" ">
<polygon fill="white" stroke="#666666" points="412,-336.77 290,-336.77 290,-306.77 412,-306.77 412,-336.77"/>
<text text-anchor="start" x="298" y="-324.77" font-family="Helvetica,sans-Serif" font-size="10.00">inja::Parser::get_peek</text>
<text text-anchor="middle" x="351" y="-313.77" font-family="Helvetica,sans-Serif" font-size="10.00">_token</text>
</a>
</g>
</g>
<!-- Node2&#45;&gt;Node26 -->
<g id="edge34_Node000002_Node000026" class="edge">
<title>Node2&#45;&gt;Node26</title>
<g id="a_edge34_Node000002_Node000026"><a xlink:title=" ">
<path fill="none" stroke="#63b8ff" d="M244.41,-321.77C255.61,-321.77 267.66,-321.77 279.46,-321.77"/>
<polygon fill="#63b8ff" stroke="#63b8ff" points="279.74,-325.27 289.74,-321.77 279.74,-318.27 279.74,-325.27"/>
</a>
</g>
</g>
<!-- Node4&#45;&gt;Node5 -->
<g id="edge4_Node000004_Node000005" class="edge">
<title>Node4&#45;&gt;Node5</title>
<g id="a_edge4_Node000004_Node000005"><a xlink:title=" ">
<path fill="none" stroke="#63b8ff" d="M422.09,-402.77C439.24,-402.77 457.48,-402.77 474.22,-402.77"/>
<polygon fill="#63b8ff" stroke="#63b8ff" points="474.42,-406.27 484.42,-402.77 474.42,-399.27 474.42,-406.27"/>
</a>
</g>
</g>
<!-- Node6 -->
<g id="Node000006" class="node">
<title>Node6</title>
<g id="a_Node000006"><a xlink:href="classinja_1_1Lexer.html#a0ec13f470ddcf0c1fb7466f6168451b2" target="_top" xlink:title=" ">
<polygon fill="white" stroke="#666666" points="776,-417.77 668,-417.77 668,-387.77 776,-387.77 776,-417.77"/>
<text text-anchor="start" x="676" y="-405.77" font-family="Helvetica,sans-Serif" font-size="10.00">inja::Lexer::current</text>
<text text-anchor="middle" x="722" y="-394.77" font-family="Helvetica,sans-Serif" font-size="10.00">_position</text>
</a>
</g>
</g>
<!-- Node5&#45;&gt;Node6 -->
<g id="edge5_Node000005_Node000006" class="edge">
<title>Node5&#45;&gt;Node6</title>
<g id="a_edge5_Node000005_Node000006"><a xlink:title=" ">
<path fill="none" stroke="#63b8ff" d="M589.95,-402.77C611.02,-402.77 635.56,-402.77 657.67,-402.77"/>
<polygon fill="#63b8ff" stroke="#63b8ff" points="657.97,-406.27 667.97,-402.77 657.97,-399.27 657.97,-406.27"/>
</a>
</g>
</g>
<!-- Node9 -->
<g id="Node000009" class="node">
<title>Node9</title>
<g id="a_Node000009"><a xlink:href="structinja_1_1ParserError.html#aa76b83dd1badd3fcf64aff6feee7583c" target="_top" xlink:title=" ">
<polygon fill="white" stroke="#666666" points="772.5,-465.77 671.5,-465.77 671.5,-435.77 772.5,-435.77 772.5,-465.77"/>
<text text-anchor="start" x="679.5" y="-453.77" font-family="Helvetica,sans-Serif" font-size="10.00">inja::ParserError::</text>
<text text-anchor="middle" x="722" y="-442.77" font-family="Helvetica,sans-Serif" font-size="10.00">ParserError</text>
</a>
</g>
</g>
<!-- Node5&#45;&gt;Node9 -->
<g id="edge8_Node000005_Node000009" class="edge">
<title>Node5&#45;&gt;Node9</title>
<g id="a_edge8_Node000005_Node000009"><a xlink:title=" ">
<path fill="none" stroke="#63b8ff" d="M589.95,-416.4C612.33,-422.27 638.61,-429.16 661.74,-435.23"/>
<polygon fill="#63b8ff" stroke="#63b8ff" points="660.88,-438.62 671.44,-437.77 662.66,-431.85 660.88,-438.62"/>
</a>
</g>
</g>
<!-- Node7 -->
<g id="Node000007" class="node">
<title>Node7</title>
<g id="a_Node000007"><a xlink:href="namespaceinja.html#ab7c8c54f2caeb72095cd78a7ff7b6c37" target="_top" xlink:title=" ">
<polygon fill="white" stroke="#666666" points="1162,-409.27 1024,-409.27 1024,-390.27 1162,-390.27 1162,-409.27"/>
<text text-anchor="middle" x="1093" y="-397.27" font-family="Helvetica,sans-Serif" font-size="10.00">inja::get_source_location</text>
</a>
</g>
</g>
<!-- Node6&#45;&gt;Node7 -->
<g id="edge6_Node000006_Node000007" class="edge">
<title>Node6&#45;&gt;Node7</title>
<g id="a_edge6_Node000006_Node000007"><a xlink:title=" ">
<path fill="none" stroke="#63b8ff" d="M776.26,-402.34C838.47,-401.83 941.94,-400.99 1013.39,-400.41"/>
<polygon fill="#63b8ff" stroke="#63b8ff" points="1013.71,-403.91 1023.69,-400.33 1013.66,-396.91 1013.71,-403.91"/>
</a>
</g>
</g>
<!-- Node8 -->
<g id="Node000008" class="node">
<title>Node8</title>
<g id="a_Node000008"><a xlink:href="namespaceinja_1_1string__view.html#a898871016595d8f34d1b4ea55b3e8684" target="_top" xlink:title=" ">
<polygon fill="white" stroke="#666666" points="1301,-374.77 1198,-374.77 1198,-344.77 1301,-344.77 1301,-374.77"/>
<text text-anchor="start" x="1206" y="-362.77" font-family="Helvetica,sans-Serif" font-size="10.00">inja::string_view::</text>
<text text-anchor="middle" x="1249.5" y="-351.77" font-family="Helvetica,sans-Serif" font-size="10.00">slice</text>
</a>
</g>
</g>
<!-- Node7&#45;&gt;Node8 -->
<g id="edge7_Node000007_Node000008" class="edge">
<title>Node7&#45;&gt;Node8</title>
<g id="a_edge7_Node000007_Node000008"><a xlink:title=" ">
<path fill="none" stroke="#63b8ff" d="M1131.01,-390.19C1148.04,-385.78 1168.68,-380.44 1187.89,-375.46"/>
<polygon fill="#63b8ff" stroke="#63b8ff" points="1188.97,-378.8 1197.78,-372.9 1187.22,-372.02 1188.97,-378.8"/>
</a>
</g>
</g>
<!-- Node10 -->
<g id="Node000010" class="node">
<title>Node10</title>
<g id="a_Node000010"><a xlink:href="structinja_1_1InjaError.html#a399b7d2f7c824c24b7794694711bafb7" target="_top" xlink:title=" ">
<polygon fill="white" stroke="#666666" points="972.5,-460.27 843.5,-460.27 843.5,-441.27 972.5,-441.27 972.5,-460.27"/>
<text text-anchor="middle" x="908" y="-448.27" font-family="Helvetica,sans-Serif" font-size="10.00">inja::InjaError::InjaError</text>
</a>
</g>
</g>
<!-- Node9&#45;&gt;Node10 -->
<g id="edge9_Node000009_Node000010" class="edge">
<title>Node9&#45;&gt;Node10</title>
<g id="a_edge9_Node000009_Node000010"><a xlink:title=" ">
<path fill="none" stroke="#63b8ff" d="M772.79,-450.77C791.37,-450.77 812.87,-450.77 833.15,-450.77"/>
<polygon fill="#63b8ff" stroke="#63b8ff" points="833.3,-454.27 843.3,-450.77 833.3,-447.27 833.3,-454.27"/>
</a>
</g>
</g>
<!-- Node13 -->
<g id="Node000013" class="node">
<title>Node13</title>
<g id="a_Node000013"><a xlink:href="structinja_1_1FunctionStorage_1_1FunctionData.html#a7e038999d61d736eb2868f64e4820ad7" target="_top" xlink:title=" ">
<polygon fill="white" stroke="#666666" points="616,-202.77 458,-202.77 458,-172.77 616,-172.77 616,-202.77"/>
<text text-anchor="start" x="466" y="-190.77" font-family="Helvetica,sans-Serif" font-size="10.00">inja::FunctionStorage</text>
<text text-anchor="middle" x="537" y="-179.77" font-family="Helvetica,sans-Serif" font-size="10.00">::FunctionData::FunctionData</text>
</a>
</g>
</g>
<!-- Node12&#45;&gt;Node13 -->
<g id="edge12_Node000012_Node000013" class="edge">
<title>Node12&#45;&gt;Node13</title>
<g id="a_edge12_Node000012_Node000013"><a xlink:title=" ">
<path fill="none" stroke="#63b8ff" d="M410.72,-187.77C422.51,-187.77 435.14,-187.77 447.67,-187.77"/>
<polygon fill="#63b8ff" stroke="#63b8ff" points="447.69,-191.27 457.69,-187.77 447.69,-184.27 447.69,-191.27"/>
</a>
</g>
</g>
<!-- Node15 -->
<g id="Node000015" class="node">
<title>Node15</title>
<g id="a_Node000015"><a xlink:href="classinja_1_1Lexer.html#a8c85efa9536869c371b8afb609e0d8d2" target="_top" xlink:title=" ">
<polygon fill="white" stroke="#666666" points="585,-283.27 489,-283.27 489,-264.27 585,-264.27 585,-283.27"/>
<text text-anchor="middle" x="537" y="-271.27" font-family="Helvetica,sans-Serif" font-size="10.00">inja::Lexer::scan</text>
</a>
</g>
</g>
<!-- Node14&#45;&gt;Node15 -->
<g id="edge14_Node000014_Node000015" class="edge">
<title>Node14&#45;&gt;Node15</title>
<g id="a_edge14_Node000014_Node000015"><a xlink:title=" ">
<path fill="none" stroke="#63b8ff" d="M411.23,-273.77C432.81,-273.77 457.15,-273.77 478.57,-273.77"/>
<polygon fill="#63b8ff" stroke="#63b8ff" points="478.83,-277.27 488.83,-273.77 478.83,-270.27 478.83,-277.27"/>
</a>
</g>
</g>
<!-- Node15&#45;&gt;Node8 -->
<g id="edge31_Node000015_Node000008" class="edge">
<title>Node15&#45;&gt;Node8</title>
<g id="a_edge31_Node000015_Node000008"><a xlink:title=" ">
<path fill="none" stroke="#63b8ff" d="M551.59,-283.31C572.18,-297.17 613.03,-322.35 652,-332.77 842.15,-383.64 1078.38,-373.9 1187.72,-365.48"/>
<polygon fill="#63b8ff" stroke="#63b8ff" points="1188.21,-368.95 1197.91,-364.67 1187.66,-361.97 1188.21,-368.95"/>
</a>
</g>
</g>
<!-- Node16 -->
<g id="Node000016" class="node">
<title>Node16</title>
<g id="a_Node000016"><a xlink:href="classinja_1_1Lexer.html#a0f4034e3151f72f121fb4f2b63374ce1" target="_top" xlink:title=" ">
<polygon fill="white" stroke="#666666" points="792,-170.77 652,-170.77 652,-140.77 792,-140.77 792,-170.77"/>
<text text-anchor="start" x="660" y="-158.77" font-family="Helvetica,sans-Serif" font-size="10.00">inja::Lexer::clear</text>
<text text-anchor="middle" x="722" y="-147.77" font-family="Helvetica,sans-Serif" font-size="10.00">_final_line_if_whitespace</text>
</a>
</g>
</g>
<!-- Node15&#45;&gt;Node16 -->
<g id="edge15_Node000015_Node000016" class="edge">
<title>Node15&#45;&gt;Node16</title>
<g id="a_edge15_Node000015_Node000016"><a xlink:title=" ">
<path fill="none" stroke="#63b8ff" d="M550.6,-264.1C566.16,-252.08 593.36,-230.81 616,-211.77 632.39,-198 633.54,-190.61 652,-179.77 654.84,-178.1 657.82,-176.53 660.88,-175.04"/>
<polygon fill="#63b8ff" stroke="#63b8ff" points="662.53,-178.13 670.22,-170.84 659.66,-171.75 662.53,-178.13"/>
</a>
</g>
</g>
<!-- Node17 -->
<g id="Node000017" class="node">
<title>Node17</title>
<g id="a_Node000017"><a xlink:href="classinja_1_1Lexer.html#a6088871283d1a03087b325b88c9396f4" target="_top" xlink:title=" ">
<polygon fill="white" stroke="#666666" points="1159.5,-208.27 1026.5,-208.27 1026.5,-189.27 1159.5,-189.27 1159.5,-208.27"/>
<text text-anchor="middle" x="1093" y="-196.27" font-family="Helvetica,sans-Serif" font-size="10.00">inja::Lexer::make_token</text>
</a>
</g>
</g>
<!-- Node15&#45;&gt;Node17 -->
<g id="edge16_Node000015_Node000017" class="edge">
<title>Node15&#45;&gt;Node17</title>
<g id="a_edge16_Node000015_Node000017"><a xlink:title=" ">
<path fill="none" stroke="#63b8ff" d="M564.43,-283.28C635.98,-307.41 838.1,-364.86 988,-302.77 1030.05,-285.36 1063.96,-241.78 1080.68,-216.91"/>
<polygon fill="#63b8ff" stroke="#63b8ff" points="1083.7,-218.68 1086.23,-208.39 1077.84,-214.86 1083.7,-218.68"/>
</a>
</g>
</g>
<!-- Node18 -->
<g id="Node000018" class="node">
<title>Node18</title>
<g id="a_Node000018"><a xlink:href="structinja_1_1Token.html#ae215b2b1e365fc7c4060895b604e2430" target="_top" xlink:title=" ">
<polygon fill="white" stroke="#666666" points="1300.5,-103.27 1198.5,-103.27 1198.5,-84.27 1300.5,-84.27 1300.5,-103.27"/>
<text text-anchor="middle" x="1249.5" y="-91.27" font-family="Helvetica,sans-Serif" font-size="10.00">inja::Token::Token</text>
</a>
</g>
</g>
<!-- Node15&#45;&gt;Node18 -->
<g id="edge33_Node000015_Node000018" class="edge">
<title>Node15&#45;&gt;Node18</title>
<g id="a_edge33_Node000015_Node000018"><a xlink:title=" ">
<path fill="none" stroke="#63b8ff" d="M556.12,-264.23C574.14,-253.79 601.17,-235.34 616,-211.77 654.36,-150.81 601.88,-105.5 652,-53.77 708.26,4.29 747.81,-18.08 828,-7.77 898.53,1.29 917.79,3.52 988,-7.77 1074.04,-21.61 1170.18,-59.6 1218.01,-80.15"/>
<polygon fill="#63b8ff" stroke="#63b8ff" points="1216.9,-83.48 1227.47,-84.26 1219.69,-77.06 1216.9,-83.48"/>
</a>
</g>
</g>
<!-- Node19 -->
<g id="Node000019" class="node">
<title>Node19</title>
<g id="a_Node000019"><a xlink:href="classinja_1_1Lexer.html#aa342980e23b7a9fa633e82cf38c3c682" target="_top" xlink:title=" ">
<polygon fill="white" stroke="#666666" points="784.5,-208.27 659.5,-208.27 659.5,-189.27 784.5,-189.27 784.5,-208.27"/>
<text text-anchor="middle" x="722" y="-196.27" font-family="Helvetica,sans-Serif" font-size="10.00">inja::Lexer::scan_body</text>
</a>
</g>
</g>
<!-- Node15&#45;&gt;Node19 -->
<g id="edge19_Node000015_Node000019" class="edge">
<title>Node15&#45;&gt;Node19</title>
<g id="a_edge19_Node000015_Node000019"><a xlink:title=" ">
<path fill="none" stroke="#63b8ff" d="M561.55,-264.12C593.67,-250.96 651.38,-227.31 687.85,-212.36"/>
<polygon fill="#63b8ff" stroke="#63b8ff" points="689.62,-215.42 697.54,-208.39 686.96,-208.94 689.62,-215.42"/>
</a>
</g>
</g>
<!-- Node23 -->
<g id="Node000023" class="node">
<title>Node23</title>
<g id="a_Node000023"><a xlink:href="classinja_1_1Lexer.html#ae4dcb266522442d430dcb8d381b5fdb1" target="_top" xlink:title=" ">
<polygon fill="white" stroke="#666666" points="988,-46.77 828,-46.77 828,-16.77 988,-16.77 988,-46.77"/>
<text text-anchor="start" x="836" y="-34.77" font-family="Helvetica,sans-Serif" font-size="10.00">inja::Lexer::skip_whitespaces</text>
<text text-anchor="middle" x="908" y="-23.77" font-family="Helvetica,sans-Serif" font-size="10.00">_and_first_newline</text>
</a>
</g>
</g>
<!-- Node15&#45;&gt;Node23 -->
<g id="edge30_Node000015_Node000023" class="edge">
<title>Node15&#45;&gt;Node23</title>
<g id="a_edge30_Node000015_Node000023"><a xlink:title=" ">
<path fill="none" stroke="#63b8ff" d="M554.23,-264.18C571.47,-253.31 598.58,-234.17 616,-211.77 639.94,-180.99 624.22,-159.13 652,-131.77 696.97,-87.48 763.86,-62.23 817.85,-48.19"/>
<polygon fill="#63b8ff" stroke="#63b8ff" points="818.93,-51.53 827.78,-45.7 817.23,-44.74 818.93,-51.53"/>
</a>
</g>
</g>
<!-- Node25 -->
<g id="Node000025" class="node">
<title>Node25</title>
<g id="a_Node000025"><a xlink:href="namespaceinja_1_1string__view.html#a78e9922c080101c22e54419f7caa83d8" target="_top" xlink:title=" ">
<polygon fill="white" stroke="#666666" points="959.5,-293.77 856.5,-293.77 856.5,-263.77 959.5,-263.77 959.5,-293.77"/>
<text text-anchor="start" x="864.5" y="-281.77" font-family="Helvetica,sans-Serif" font-size="10.00">inja::string_view::</text>
<text text-anchor="middle" x="908" y="-270.77" font-family="Helvetica,sans-Serif" font-size="10.00">starts_with</text>
</a>
</g>
</g>
<!-- Node15&#45;&gt;Node25 -->
<g id="edge32_Node000015_Node000025" class="edge">
<title>Node15&#45;&gt;Node25</title>
<g id="a_edge32_Node000015_Node000025"><a xlink:title=" ">
<path fill="none" stroke="#63b8ff" d="M585.11,-274.41C651.5,-275.31 772.64,-276.95 845.89,-277.94"/>
<polygon fill="#63b8ff" stroke="#63b8ff" points="846.29,-281.45 856.33,-278.09 846.38,-274.45 846.29,-281.45"/>
</a>
</g>
</g>
<!-- Node17&#45;&gt;Node8 -->
<g id="edge17_Node000017_Node000008" class="edge">
<title>Node17&#45;&gt;Node8</title>
<g id="a_edge17_Node000017_Node000008"><a xlink:title=" ">
<path fill="none" stroke="#63b8ff" d="M1103.2,-208.36C1127.24,-233.41 1192.42,-301.33 1226.72,-337.08"/>
<polygon fill="#63b8ff" stroke="#63b8ff" points="1224.49,-339.81 1233.94,-344.6 1229.54,-334.96 1224.49,-339.81"/>
</a>
</g>
</g>
<!-- Node17&#45;&gt;Node18 -->
<g id="edge18_Node000017_Node000018" class="edge">
<title>Node17&#45;&gt;Node18</title>
<g id="a_edge18_Node000017_Node000018"><a xlink:title=" ">
<path fill="none" stroke="#63b8ff" d="M1107.98,-189.27C1134.73,-171.09 1193.38,-131.23 1225.81,-109.19"/>
<polygon fill="#63b8ff" stroke="#63b8ff" points="1227.91,-112 1234.21,-103.48 1223.97,-106.21 1227.91,-112"/>
</a>
</g>
</g>
<!-- Node19&#45;&gt;Node17 -->
<g id="edge20_Node000019_Node000017" class="edge">
<title>Node19&#45;&gt;Node17</title>
<g id="a_edge20_Node000019_Node000017"><a xlink:title=" ">
<path fill="none" stroke="#63b8ff" d="M765.68,-189.26C784.65,-185.5 807.33,-181.63 828,-179.77 898.83,-173.42 917.18,-173.36 988,-179.77 1004.95,-181.31 1023.27,-184.22 1039.75,-187.32"/>
<polygon fill="#63b8ff" stroke="#63b8ff" points="1039.25,-190.79 1049.73,-189.26 1040.58,-183.92 1039.25,-190.79"/>
</a>
</g>
</g>
<!-- Node20 -->
<g id="Node000020" class="node">
<title>Node20</title>
<g id="a_Node000020"><a xlink:href="classinja_1_1Lexer.html#acb4ddc9702038530f73db97c701a60a5" target="_top" xlink:title=" ">
<polygon fill="white" stroke="#666666" points="963,-132.27 853,-132.27 853,-113.27 963,-113.27 963,-132.27"/>
<text text-anchor="middle" x="908" y="-120.27" font-family="Helvetica,sans-Serif" font-size="10.00">inja::Lexer::scan_id</text>
</a>
</g>
</g>
<!-- Node19&#45;&gt;Node20 -->
<g id="edge21_Node000019_Node000020" class="edge">
<title>Node19&#45;&gt;Node20</title>
<g id="a_edge21_Node000019_Node000020"><a xlink:title=" ">
<path fill="none" stroke="#63b8ff" d="M769.48,-189.24C777.25,-186.73 785.04,-183.62 792,-179.77 810.99,-169.26 809.15,-157.53 828,-146.77 835.78,-142.33 844.47,-138.63 853.16,-135.57"/>
<polygon fill="#63b8ff" stroke="#63b8ff" points="854.5,-138.82 862.92,-132.38 852.33,-132.16 854.5,-138.82"/>
</a>
</g>
</g>
<!-- Node21 -->
<g id="Node000021" class="node">
<title>Node21</title>
<g id="a_Node000021"><a xlink:href="classinja_1_1Lexer.html#ab9aa4522a541720d58268d7d3e27e63f" target="_top" xlink:title=" ">
<polygon fill="white" stroke="#666666" points="977.5,-245.27 838.5,-245.27 838.5,-226.27 977.5,-226.27 977.5,-245.27"/>
<text text-anchor="middle" x="908" y="-233.27" font-family="Helvetica,sans-Serif" font-size="10.00">inja::Lexer::scan_number</text>
</a>
</g>
</g>
<!-- Node19&#45;&gt;Node21 -->
<g id="edge23_Node000019_Node000021" class="edge">
<title>Node19&#45;&gt;Node21</title>
<g id="a_edge23_Node000019_Node000021"><a xlink:title=" ">
<path fill="none" stroke="#63b8ff" d="M770.38,-208.3C794.54,-213.16 824.12,-219.11 849.56,-224.22"/>
<polygon fill="#63b8ff" stroke="#63b8ff" points="848.96,-227.67 859.46,-226.21 850.34,-220.81 848.96,-227.67"/>
</a>
</g>
</g>
<!-- Node22 -->
<g id="Node000022" class="node">
<title>Node22</title>
<g id="a_Node000022"><a xlink:href="classinja_1_1Lexer.html#a3e8f3f7d8569fa5d781633b57a6bdcca" target="_top" xlink:title=" ">
<polygon fill="white" stroke="#666666" points="972.5,-208.27 843.5,-208.27 843.5,-189.27 972.5,-189.27 972.5,-208.27"/>
<text text-anchor="middle" x="908" y="-196.27" font-family="Helvetica,sans-Serif" font-size="10.00">inja::Lexer::scan_string</text>
</a>
</g>
</g>
<!-- Node19&#45;&gt;Node22 -->
<g id="edge25_Node000019_Node000022" class="edge">
<title>Node19&#45;&gt;Node22</title>
<g id="a_edge25_Node000019_Node000022"><a xlink:title=" ">
<path fill="none" stroke="#63b8ff" d="M784.53,-198.77C800.04,-198.77 816.85,-198.77 832.91,-198.77"/>
<polygon fill="#63b8ff" stroke="#63b8ff" points="833.33,-202.27 843.33,-198.77 833.33,-195.27 833.33,-202.27"/>
</a>
</g>
</g>
<!-- Node19&#45;&gt;Node23 -->
<g id="edge27_Node000019_Node000023" class="edge">
<title>Node19&#45;&gt;Node23</title>
<g id="a_edge27_Node000019_Node000023"><a xlink:title=" ">
<path fill="none" stroke="#63b8ff" d="M778.58,-189.16C783.51,-186.69 788.11,-183.61 792,-179.77 832.86,-139.48 787.67,-96.6 828,-55.77 829.07,-54.69 830.19,-53.65 831.35,-52.66"/>
<polygon fill="#63b8ff" stroke="#63b8ff" points="833.45,-55.46 839.54,-46.79 829.37,-49.78 833.45,-55.46"/>
</a>
</g>
</g>
<!-- Node24 -->
<g id="Node000024" class="node">
<title>Node24</title>
<g id="a_Node000024"><a xlink:href="classinja_1_1Lexer.html#a50d21b69bfa1cd5e6d2e9b5c1bd53c53" target="_top" xlink:title=" ">
<polygon fill="white" stroke="#666666" points="988,-94.77 828,-94.77 828,-64.77 988,-64.77 988,-94.77"/>
<text text-anchor="start" x="836" y="-82.77" font-family="Helvetica,sans-Serif" font-size="10.00">inja::Lexer::skip_whitespaces</text>
<text text-anchor="middle" x="908" y="-71.77" font-family="Helvetica,sans-Serif" font-size="10.00">_and_newlines</text>
</a>
</g>
</g>
<!-- Node19&#45;&gt;Node24 -->
<g id="edge28_Node000019_Node000024" class="edge">
<title>Node19&#45;&gt;Node24</title>
<g id="a_edge28_Node000019_Node000024"><a xlink:title=" ">
<path fill="none" stroke="#63b8ff" d="M776.59,-189.12C782.15,-186.67 787.43,-183.61 792,-179.77 820.62,-155.74 799.7,-128.18 828,-103.77 829.51,-102.47 831.08,-101.24 832.71,-100.08"/>
<polygon fill="#63b8ff" stroke="#63b8ff" points="834.61,-103.03 841.29,-94.81 830.94,-97.06 834.61,-103.03"/>
</a>
</g>
</g>
<!-- Node19&#45;&gt;Node25 -->
<g id="edge29_Node000019_Node000025" class="edge">
<title>Node19&#45;&gt;Node25</title>
<g id="a_edge29_Node000019_Node000025"><a xlink:title=" ">
<path fill="none" stroke="#63b8ff" d="M739.3,-208.46C759.58,-220.25 795.51,-240.25 828,-253.77 833.93,-256.24 840.19,-258.61 846.49,-260.83"/>
<polygon fill="#63b8ff" stroke="#63b8ff" points="845.78,-264.29 856.37,-264.21 848.04,-257.66 845.78,-264.29"/>
</a>
</g>
</g>
<!-- Node20&#45;&gt;Node17 -->
<g id="edge22_Node000020_Node000017" class="edge">
<title>Node20&#45;&gt;Node17</title>
<g id="a_edge22_Node000020_Node000017"><a xlink:title=" ">
<path fill="none" stroke="#63b8ff" d="M945.23,-132.38C958.82,-136.35 974.29,-141.31 988,-146.77 1015.48,-157.73 1045.58,-173.18 1066.3,-184.39"/>
<polygon fill="#63b8ff" stroke="#63b8ff" points="1064.66,-187.48 1075.11,-189.21 1068.02,-181.34 1064.66,-187.48"/>
</a>
</g>
</g>
<!-- Node21&#45;&gt;Node17 -->
<g id="edge24_Node000021_Node000017" class="edge">
<title>Node21&#45;&gt;Node17</title>
<g id="a_edge24_Node000021_Node000017"><a xlink:title=" ">
<path fill="none" stroke="#63b8ff" d="M956.13,-226.24C980.15,-221.39 1009.57,-215.44 1034.88,-210.32"/>
<polygon fill="#63b8ff" stroke="#63b8ff" points="1035.61,-213.74 1044.71,-208.33 1034.22,-206.88 1035.61,-213.74"/>
</a>
</g>
</g>
<!-- Node22&#45;&gt;Node17 -->
<g id="edge26_Node000022_Node000017" class="edge">
<title>Node22&#45;&gt;Node17</title>
<g id="a_edge26_Node000022_Node000017"><a xlink:title=" ">
<path fill="none" stroke="#63b8ff" d="M972.75,-198.77C986.69,-198.77 1001.59,-198.77 1015.96,-198.77"/>
<polygon fill="#63b8ff" stroke="#63b8ff" points="1016.31,-202.27 1026.31,-198.77 1016.31,-195.27 1016.31,-202.27"/>
</a>
</g>
</g>
<!-- Node26&#45;&gt;Node15 -->
<g id="edge35_Node000026_Node000015" class="edge">
<title>Node26&#45;&gt;Node15</title>
<g id="a_edge35_Node000026_Node000015"><a xlink:title=" ">
<path fill="none" stroke="#63b8ff" d="M409.71,-306.72C435.47,-300 465.4,-292.19 489.66,-285.86"/>
<polygon fill="#63b8ff" stroke="#63b8ff" points="490.54,-289.25 499.34,-283.34 488.78,-282.47 490.54,-289.25"/>
</a>
</g>
</g>
</g>
</svg>
