<?xml version="1.0" encoding="UTF-8" standalone="no"?>
<!DOCTYPE svg PUBLIC "-//W3C//DTD SVG 1.1//EN"
 "http://www.w3.org/Graphics/SVG/1.1/DTD/svg11.dtd">
<!-- Generated by graphviz version 14.1.2 (0)
 -->
<!-- Title: nlohmann::json_schema::json_validator::validate Pages: 1 -->
<svg width="631pt" height="248pt"
 viewBox="0.00 0.00 631.00 248.00" xmlns="http://www.w3.org/2000/svg" xmlns:xlink="http://www.w3.org/1999/xlink">
<g id="graph0" class="graph" transform="scale(1 1) rotate(0) translate(4 243.88)">
<title>nlohmann::json_schema::json_validator::validate</title>
<!-- Node1 -->
<g id="Node000001" class="node">
<title>Node1</title>
<g id="a_Node000001"><a xlink:title=" ">
<polygon fill="#999999" stroke="#666666" points="136.75,-142.88 0,-142.88 0,-109.38 136.75,-109.38 136.75,-142.88"/>
<text xml:space="preserve" text-anchor="start" x="8" y="-129.38" font-family="Helvetica,sans-Serif" font-size="10.00">nlohmann::json_schema</text>
<text xml:space="preserve" text-anchor="middle" x="68.38" y="-116.62" font-family="Helvetica,sans-Serif" font-size="10.00">::json_validator::validate</text>
</a>
</g>
</g>
<!-- Node2 -->
<g id="Node000002" class="node">
<title>Node2</title>
<g id="a_Node000002"><a xlink:href="classnlohmann_1_1json__schema_1_1root__schema.html#a32f6012c2d81f29ca16e4409dd2b5ea3" target="_top" xlink:title=" ">
<polygon fill="white" stroke="#666666" points="307.25,-142.88 172.75,-142.88 172.75,-109.38 307.25,-109.38 307.25,-142.88"/>
<text xml:space="preserve" text-anchor="start" x="180.75" y="-129.38" font-family="Helvetica,sans-Serif" font-size="10.00">nlohmann::json_schema</text>
<text xml:space="preserve" text-anchor="middle" x="240" y="-116.62" font-family="Helvetica,sans-Serif" font-size="10.00">::root_schema::validate</text>
</a>
</g>
</g>
<!-- Node1&#45;&gt;Node2 -->
<g id="edge1_Node000001_Node000002" class="edge">
<title>Node1&#45;&gt;Node2</title>
<g id="a_edge1_Node000001_Node000002"><a xlink:title=" ">
<path fill="none" stroke="#63b8ff" d="M136.9,-126.12C144.81,-126.12 152.94,-126.12 160.98,-126.12"/>
<polygon fill="#63b8ff" stroke="#63b8ff" points="160.74,-129.63 170.74,-126.13 160.74,-122.63 160.74,-129.63"/>
</a>
</g>
</g>
<!-- Node3 -->
<g id="Node000003" class="node">
<title>Node3</title>
<g id="a_Node000003"><a xlink:href="classnlohmann_1_1json__schema_1_1error__handler.html#a6518c4580b8dd8063000e183f1541650" target="_top" xlink:title=" ">
<polygon fill="white" stroke="#666666" points="477.75,-239.88 343.25,-239.88 343.25,-206.38 477.75,-206.38 477.75,-239.88"/>
<text xml:space="preserve" text-anchor="start" x="351.25" y="-226.38" font-family="Helvetica,sans-Serif" font-size="10.00">nlohmann::json_schema</text>
<text xml:space="preserve" text-anchor="middle" x="410.5" y="-213.62" font-family="Helvetica,sans-Serif" font-size="10.00">::error_handler::error</text>
</a>
</g>
</g>
<!-- Node2&#45;&gt;Node3 -->
<g id="edge2_Node000002_Node000003" class="edge">
<title>Node2&#45;&gt;Node3</title>
<g id="a_edge2_Node000002_Node000003"><a xlink:title=" ">
<path fill="none" stroke="#63b8ff" d="M262.39,-143.19C282.45,-158.65 313.7,-181.35 343.25,-197.12 345.92,-198.55 348.68,-199.94 351.49,-201.29"/>
<polygon fill="#63b8ff" stroke="#63b8ff" points="349.91,-204.41 360.46,-205.35 352.8,-198.04 349.91,-204.41"/>
</a>
</g>
</g>
<!-- Node4 -->
<g id="Node000004" class="node">
<title>Node4</title>
<g id="a_Node000004"><a xlink:href="classnlohmann_1_1json__uri.html#a21ba5d6a76804eabd867a2d03370c945" target="_top" xlink:title=" ">
<polygon fill="white" stroke="#666666" points="465,-187.88 356,-187.88 356,-154.38 465,-154.38 465,-187.88"/>
<text xml:space="preserve" text-anchor="start" x="364" y="-174.38" font-family="Helvetica,sans-Serif" font-size="10.00">nlohmann::json_uri</text>
<text xml:space="preserve" text-anchor="middle" x="410.5" y="-161.62" font-family="Helvetica,sans-Serif" font-size="10.00">::fragment</text>
</a>
</g>
</g>
<!-- Node2&#45;&gt;Node4 -->
<g id="edge3_Node000002_Node000004" class="edge">
<title>Node2&#45;&gt;Node4</title>
<g id="a_edge3_Node000002_Node000004"><a xlink:title=" ">
<path fill="none" stroke="#63b8ff" d="M305.18,-143.27C318.19,-146.74 331.87,-150.39 344.89,-153.87"/>
<polygon fill="#63b8ff" stroke="#63b8ff" points="343.62,-157.15 354.18,-156.35 345.42,-150.39 343.62,-157.15"/>
</a>
</g>
</g>
<!-- Node5 -->
<g id="Node000005" class="node">
<title>Node5</title>
<g id="a_Node000005"><a xlink:href="classnlohmann_1_1json__uri.html#a63674f908919cb2496e772e864be35de" target="_top" xlink:title=" ">
<polygon fill="white" stroke="#666666" points="622.75,-119.88 513.75,-119.88 513.75,-86.38 622.75,-86.38 622.75,-119.88"/>
<text xml:space="preserve" text-anchor="start" x="521.75" y="-106.38" font-family="Helvetica,sans-Serif" font-size="10.00">nlohmann::json_uri</text>
<text xml:space="preserve" text-anchor="middle" x="568.25" y="-93.62" font-family="Helvetica,sans-Serif" font-size="10.00">::location</text>
</a>
</g>
</g>
<!-- Node2&#45;&gt;Node5 -->
<g id="edge4_Node000002_Node000005" class="edge">
<title>Node2&#45;&gt;Node5</title>
<g id="a_edge4_Node000002_Node000005"><a xlink:title=" ">
<path fill="none" stroke="#63b8ff" d="M307.41,-121.44C364.24,-117.44 445.56,-111.7 502.04,-107.72"/>
<polygon fill="#63b8ff" stroke="#63b8ff" points="502.1,-111.23 511.83,-107.03 501.61,-104.24 502.1,-111.23"/>
</a>
</g>
</g>
<!-- Node6 -->
<g id="Node000006" class="node">
<title>Node6</title>
<g id="a_Node000006"><a xlink:href="classnlohmann_1_1json__uri.html#a416eb06b53676b215761f43200da309f" target="_top" xlink:title=" ">
<polygon fill="white" stroke="#666666" points="465,-97.88 356,-97.88 356,-64.38 465,-64.38 465,-97.88"/>
<text xml:space="preserve" text-anchor="start" x="364" y="-84.38" font-family="Helvetica,sans-Serif" font-size="10.00">nlohmann::json_uri</text>
<text xml:space="preserve" text-anchor="middle" x="410.5" y="-71.62" font-family="Helvetica,sans-Serif" font-size="10.00">::to_string</text>
</a>
</g>
</g>
<!-- Node2&#45;&gt;Node6 -->
<g id="edge5_Node000002_Node000006" class="edge">
<title>Node2&#45;&gt;Node6</title>
<g id="a_edge5_Node000002_Node000006"><a xlink:title=" ">
<path fill="none" stroke="#63b8ff" d="M305.18,-108.98C318.19,-105.51 331.87,-101.86 344.89,-98.38"/>
<polygon fill="#63b8ff" stroke="#63b8ff" points="345.42,-101.86 354.18,-95.9 343.62,-95.1 345.42,-101.86"/>
</a>
</g>
</g>
<!-- Node7 -->
<g id="Node000007" class="node">
<title>Node7</title>
<g id="a_Node000007"><a xlink:href="classanonymous__namespace_02json-validator_8cpp_03_1_1schema.html#a2509ace246d9dcec607e75377753a5ea" target="_top" xlink:title=" ">
<polygon fill="white" stroke="#666666" points="477.75,-46.25 343.25,-46.25 343.25,0 477.75,0 477.75,-46.25"/>
<text xml:space="preserve" text-anchor="start" x="351.25" y="-32.75" font-family="Helvetica,sans-Serif" font-size="10.00">anonymous_namespace</text>
<text xml:space="preserve" text-anchor="start" x="351.25" y="-20" font-family="Helvetica,sans-Serif" font-size="10.00">{json&#45;validator::cpp}</text>
<text xml:space="preserve" text-anchor="middle" x="410.5" y="-7.25" font-family="Helvetica,sans-Serif" font-size="10.00">::schema::validate</text>
</a>
</g>
</g>
<!-- Node2&#45;&gt;Node7 -->
<g id="edge7_Node000002_Node000007" class="edge">
<title>Node2&#45;&gt;Node7</title>
<g id="a_edge7_Node000002_Node000007"><a xlink:title=" ">
<path fill="none" stroke="#63b8ff" d="M263.47,-108.99C283.75,-93.9 314.69,-71.8 343.25,-55.12 345.11,-54.04 347.02,-52.96 348.95,-51.88"/>
<polygon fill="#63b8ff" stroke="#63b8ff" points="350.3,-55.13 357.45,-47.32 346.99,-48.96 350.3,-55.13"/>
</a>
</g>
</g>
<!-- Node6&#45;&gt;Node5 -->
<g id="edge6_Node000006_Node000005" class="edge">
<title>Node6&#45;&gt;Node5</title>
<g id="a_edge6_Node000006_Node000005"><a xlink:title=" ">
<path fill="none" stroke="#63b8ff" d="M465.1,-88.7C477.02,-90.38 489.79,-92.18 502.12,-93.93"/>
<polygon fill="#63b8ff" stroke="#63b8ff" points="501.4,-97.36 511.79,-95.29 502.38,-90.43 501.4,-97.36"/>
</a>
</g>
</g>
</g>
</svg>
