<?xml version="1.0" encoding="UTF-8" standalone="no"?>
<!DOCTYPE svg PUBLIC "-//W3C//DTD SVG 1.1//EN"
 "http://www.w3.org/Graphics/SVG/1.1/DTD/svg11.dtd">
<!-- Generated by graphviz version 14.1.2 (0)
 -->
<!-- Title: mqtt::mqttstore::lib::MariaDbStorage::quoteIdentifier Pages: 1 -->
<svg width="585pt" height="170pt"
 viewBox="0.00 0.00 585.00 170.00" xmlns="http://www.w3.org/2000/svg" xmlns:xlink="http://www.w3.org/1999/xlink">
<g id="graph0" class="graph" transform="scale(1 1) rotate(0) translate(4 166.25)">
<title>mqtt::mqttstore::lib::MariaDbStorage::quoteIdentifier</title>
<!-- Node1 -->
<g id="Node000001" class="node">
<title>Node1</title>
<g id="a_Node000001"><a xlink:title=" ">
<polygon fill="#999999" stroke="#666666" points="576.75,-97.88 398,-97.88 398,-64.38 576.75,-64.38 576.75,-97.88"/>
<text xml:space="preserve" text-anchor="start" x="406" y="-84.38" font-family="Helvetica,sans-Serif" font-size="10.00">mqtt::mqttstore::lib</text>
<text xml:space="preserve" text-anchor="middle" x="487.38" y="-71.62" font-family="Helvetica,sans-Serif" font-size="10.00">::MariaDbStorage::quoteIdentifier</text>
</a>
</g>
</g>
<!-- Node2 -->
<g id="Node000002" class="node">
<title>Node2</title>
<g id="a_Node000002"><a xlink:href="classmqtt_1_1mqttstore_1_1lib_1_1MariaDbStorage.html#ab11126ca2866b7dd2ed1ac5b7749b782" target="_top" xlink:title=" ">
<polygon fill="white" stroke="#666666" points="354.5,-162.25 175,-162.25 175,-116 354.5,-116 354.5,-162.25"/>
<text xml:space="preserve" text-anchor="start" x="183" y="-148.75" font-family="Helvetica,sans-Serif" font-size="10.00">mqtt::mqttstore::lib</text>
<text xml:space="preserve" text-anchor="start" x="183" y="-136" font-family="Helvetica,sans-Serif" font-size="10.00">::MariaDbStorage::buildProjection</text>
<text xml:space="preserve" text-anchor="middle" x="264.75" y="-123.25" font-family="Helvetica,sans-Serif" font-size="10.00">InsertSql</text>
</a>
</g>
</g>
<!-- Node1&#45;&gt;Node2 -->
<g id="edge1_Node000001_Node000002" class="edge">
<title>Node1&#45;&gt;Node2</title>
<g id="a_edge1_Node000001_Node000002"><a xlink:title=" ">
<path fill="none" stroke="#63b8ff" d="M409.64,-101.3C391.94,-105.95 372.96,-110.94 354.78,-115.72"/>
<polygon fill="#63b8ff" stroke="#63b8ff" points="410.53,-104.68 419.31,-98.75 408.75,-97.91 410.53,-104.68"/>
</a>
</g>
</g>
<!-- Node3 -->
<g id="Node000003" class="node">
<title>Node3</title>
<g id="a_Node000003"><a xlink:href="classmqtt_1_1mqttstore_1_1lib_1_1MariaDbStorage.html#a1ddca7b84419ddc7192a6518a83876d3" target="_top" xlink:title=" ">
<polygon fill="white" stroke="#666666" points="362,-97.88 167.5,-97.88 167.5,-64.38 362,-64.38 362,-97.88"/>
<text xml:space="preserve" text-anchor="start" x="175.5" y="-84.38" font-family="Helvetica,sans-Serif" font-size="10.00">mqtt::mqttstore::lib</text>
<text xml:space="preserve" text-anchor="middle" x="264.75" y="-71.62" font-family="Helvetica,sans-Serif" font-size="10.00">::MariaDbStorage::buildRawInsertSql</text>
</a>
</g>
</g>
<!-- Node1&#45;&gt;Node3 -->
<g id="edge2_Node000001_Node000003" class="edge">
<title>Node1&#45;&gt;Node3</title>
<g id="a_edge2_Node000001_Node000003"><a xlink:title=" ">
<path fill="none" stroke="#63b8ff" d="M386.35,-81.12C378.35,-81.12 370.27,-81.12 362.3,-81.12"/>
<polygon fill="#63b8ff" stroke="#63b8ff" points="386.08,-84.63 396.08,-81.13 386.08,-77.63 386.08,-84.63"/>
</a>
</g>
</g>
<!-- Node5 -->
<g id="Node000005" class="node">
<title>Node5</title>
<g id="a_Node000005"><a xlink:href="classmqtt_1_1mqttstore_1_1lib_1_1MariaDbStorage.html#a4fe98b8e664ae380092e746ed4cfe451" target="_top" xlink:title=" ">
<polygon fill="white" stroke="#666666" points="344,-46.25 185.5,-46.25 185.5,0 344,0 344,-46.25"/>
<text xml:space="preserve" text-anchor="start" x="193.5" y="-32.75" font-family="Helvetica,sans-Serif" font-size="10.00">mqtt::mqttstore::lib</text>
<text xml:space="preserve" text-anchor="start" x="193.5" y="-20" font-family="Helvetica,sans-Serif" font-size="10.00">::MariaDbStorage::createRaw</text>
<text xml:space="preserve" text-anchor="middle" x="264.75" y="-7.25" font-family="Helvetica,sans-Serif" font-size="10.00">Table</text>
</a>
</g>
</g>
<!-- Node1&#45;&gt;Node5 -->
<g id="edge4_Node000001_Node000005" class="edge">
<title>Node1&#45;&gt;Node5</title>
<g id="a_edge4_Node000001_Node000005"><a xlink:title=" ">
<path fill="none" stroke="#63b8ff" d="M409.88,-61.02C388.69,-55.44 365.65,-49.39 344.34,-43.78"/>
<polygon fill="#63b8ff" stroke="#63b8ff" points="408.75,-64.34 419.31,-63.5 410.53,-57.57 408.75,-64.34"/>
</a>
</g>
</g>
<!-- Node4 -->
<g id="Node000004" class="node">
<title>Node4</title>
<g id="a_Node000004"><a xlink:href="classmqtt_1_1mqttstore_1_1lib_1_1MariaDbStorage.html#aceee3945045177897027f526b7cdee60" target="_top" xlink:title=" ">
<polygon fill="white" stroke="#666666" points="131.5,-97.88 0,-97.88 0,-64.38 131.5,-64.38 131.5,-97.88"/>
<text xml:space="preserve" text-anchor="start" x="8" y="-84.38" font-family="Helvetica,sans-Serif" font-size="10.00">mqtt::mqttstore::lib</text>
<text xml:space="preserve" text-anchor="middle" x="65.75" y="-71.62" font-family="Helvetica,sans-Serif" font-size="10.00">::MariaDbStorage::store</text>
</a>
</g>
</g>
<!-- Node3&#45;&gt;Node4 -->
<g id="edge3_Node000003_Node000004" class="edge">
<title>Node3&#45;&gt;Node4</title>
<g id="a_edge3_Node000003_Node000004"><a xlink:title=" ">
<path fill="none" stroke="#63b8ff" d="M155.76,-81.12C147.64,-81.12 139.61,-81.12 131.89,-81.12"/>
<polygon fill="#63b8ff" stroke="#63b8ff" points="155.76,-84.63 165.76,-81.13 155.76,-77.63 155.76,-84.63"/>
</a>
</g>
</g>
</g>
</svg>
