<?xml version="1.0" encoding="UTF-8" standalone="no"?>
<!DOCTYPE svg PUBLIC "-//W3C//DTD SVG 1.1//EN"
 "http://www.w3.org/Graphics/SVG/1.1/DTD/svg11.dtd">
<!-- Generated by graphviz version 14.1.2 (0)
 -->
<!-- Title: mqtt::lib::ConfigMqttIntegrator Pages: 1 -->
<svg width="269pt" height="192pt"
 viewBox="0.00 0.00 269.00 192.00" xmlns="http://www.w3.org/2000/svg" xmlns:xlink="http://www.w3.org/1999/xlink">

<svg id="main" version="1.1" xmlns="http://www.w3.org/2000/svg" xmlns:xlink="http://www.w3.org/1999/xlink" xml:space="preserve">

<style type="text/css"><![CDATA[
.node, .edge {opacity: 0.7;}
.node.selected, .edge.selected {opacity: 1;}
.edge:hover path { stroke: red; }
.edge:hover polygon { stroke: red; fill: red; }
]]></style>
<script type="application/ecmascript" xlink:href="svg.min.js"/>
<svg id="graph" class="graph">
<g id="graph0" class="graph" transform="scale(1 1) rotate(0) translate(4 187.5)">
<title>mqtt::lib::ConfigMqttIntegrator</title>
<!-- Node1 -->
<g id="Node000001" class="node">
<title>Node1</title>
<g id="a_Node000001"><a xlink:title=" ">
<polygon fill="#999999" stroke="none" points="214.38,-20.75 57.12,-20.75 57.12,0 214.38,0 214.38,-20.75"/>
<text xml:space="preserve" text-anchor="start" x="61.12" y="-7.25" font-family="Helvetica,sans-Serif" font-size="10.00">mqtt::lib::ConfigMqttIntegrator</text>
<polygon fill="none" stroke="#666666" points="57.12,0 57.12,-20.75 214.38,-20.75 214.38,0 57.12,0"/>
</a>
</g>
</g>
<!-- Node2 -->
<g id="Node000002" class="node">
<title>Node2</title>
<g id="a_Node000002"><a xlink:href="classmqtt_1_1lib_1_1ConfigApplication.html" target="_top" xlink:title=" ">
<polygon fill="white" stroke="none" points="141.5,-113 0,-113 0,-92.25 141.5,-92.25 141.5,-113"/>
<text xml:space="preserve" text-anchor="start" x="4" y="-99.5" font-family="Helvetica,sans-Serif" font-size="10.00">mqtt::lib::ConfigApplication</text>
<polygon fill="none" stroke="#666666" points="0,-92.25 0,-113 141.5,-113 141.5,-92.25 0,-92.25"/>
</a>
</g>
</g>
<!-- Node2&#45;&gt;Node1 -->
<g id="edge1_Node000001_Node000002" class="edge">
<title>Node2&#45;&gt;Node1</title>
<g id="a_edge1_Node000001_Node000002"><a xlink:title=" ">
<path fill="none" stroke="#63b8ff" d="M84.07,-83.12C97.81,-64.06 118.65,-35.12 129.17,-20.51"/>
<polygon fill="none" stroke="#63b8ff" points="81.35,-80.92 78.35,-91.08 87.03,-85.01 81.35,-80.92"/>
</a>
</g>
</g>
<!-- Node3 -->
<g id="Node000003" class="node">
<title>Node3</title>
<g id="a_Node000003"><a xlink:title=" ">
<polygon fill="white" stroke="none" points="122.38,-177.12 19.12,-177.12 19.12,-156.38 122.38,-156.38 122.38,-177.12"/>
<text xml:space="preserve" text-anchor="start" x="23.12" y="-163.62" font-family="Helvetica,sans-Serif" font-size="10.00">utils::SubCommand</text>
<polygon fill="none" stroke="#666666" points="19.12,-156.38 19.12,-177.12 122.38,-177.12 122.38,-156.38 19.12,-156.38"/>
</a>
</g>
</g>
<!-- Node3&#45;&gt;Node2 -->
<g id="edge2_Node000002_Node000003" class="edge">
<title>Node3&#45;&gt;Node2</title>
<g id="a_edge2_Node000002_Node000003"><a xlink:title=" ">
<path fill="none" stroke="#63b8ff" d="M70.75,-145.39C70.75,-134.4 70.75,-121.38 70.75,-112.83"/>
<polygon fill="none" stroke="#63b8ff" points="67.25,-145.07 70.75,-155.07 74.25,-145.07 67.25,-145.07"/>
</a>
</g>
</g>
<!-- Node4 -->
<g id="Node000004" class="node">
<title>Node4</title>
<g id="a_Node000004"><a xlink:title=" ">
<polygon fill="white" stroke="none" points="244.38,-113 159.12,-113 159.12,-92.25 244.38,-92.25 244.38,-113"/>
<text xml:space="preserve" text-anchor="start" x="163.12" y="-99.5" font-family="Helvetica,sans-Serif" font-size="10.00">std::string_view</text>
<polygon fill="none" stroke="#666666" points="159.12,-92.25 159.12,-113 244.38,-113 244.38,-92.25 159.12,-92.25"/>
</a>
</g>
</g>
<!-- Node4&#45;&gt;Node1 -->
<g id="edge3_Node000001_Node000004" class="edge">
<title>Node4&#45;&gt;Node1</title>
<g id="a_edge3_Node000001_Node000004"><a xlink:title=" ">
<path fill="none" stroke="#63b8ff" d="M194.94,-92.31C184.41,-77.91 163.96,-49.94 150.08,-30.96"/>
<polygon fill="none" stroke="#63b8ff" points="150.04,-30.92 143.27,-28.44 142.96,-21.24 149.73,-23.72 150.04,-30.92"/>
</a>
</g>
<text xml:space="preserve" text-anchor="start" x="183.4" y="-61.75" font-family="Helvetica,sans-Serif" font-size="10.00" fill="grey">+DESCRIPTION</text>
<text xml:space="preserve" text-anchor="start" x="183.4" y="-45" font-family="Helvetica,sans-Serif" font-size="10.00" fill="grey">+NAME</text>
</g>
<!-- Node5 -->
<g id="Node000005" class="node">
<title>Node5</title>
<g id="a_Node000005"><a xlink:title=" ">
<polygon fill="white" stroke="none" points="259.75,-183.5 143.75,-183.5 143.75,-150 259.75,-150 259.75,-183.5"/>
<text xml:space="preserve" text-anchor="start" x="147.75" y="-170" font-family="Helvetica,sans-Serif" font-size="10.00">std::basic_string_view</text>
<text xml:space="preserve" text-anchor="start" x="179.25" y="-157.25" font-family="Helvetica,sans-Serif" font-size="10.00">&lt; Char &gt;</text>
<polygon fill="none" stroke="#666666" points="143.75,-150 143.75,-183.5 259.75,-183.5 259.75,-150 143.75,-150"/>
</a>
</g>
</g>
<!-- Node5&#45;&gt;Node4 -->
<g id="edge4_Node000004_Node000005" class="edge">
<title>Node5&#45;&gt;Node4</title>
<g id="a_edge4_Node000004_Node000005"><a xlink:title=" ">
<path fill="none" stroke="#63b8ff" d="M201.75,-138.79C201.75,-129.46 201.75,-119.63 201.75,-112.74"/>
<polygon fill="none" stroke="#63b8ff" points="198.25,-138.56 201.75,-148.56 205.25,-138.56 198.25,-138.56"/>
</a>
</g>
</g>
</g>
</svg>
</svg>

<style type='text/css'>
<![CDATA[
[data-mouse-over-selected='false'] { opacity: 0.7; }
[data-mouse-over-selected='true']  { opacity: 1.0; }
]]>
</style>
<script type="application/ecmascript"><![CDATA[
document.addEventListener('DOMContentLoaded', (event) => {
  highlightEdges();
  highlightAdjacentNodes();
});
]]></script>
</svg>
