<?xml version="1.0" encoding="UTF-8" standalone="no"?>
<!DOCTYPE svg PUBLIC "-//W3C//DTD SVG 1.1//EN"
 "http://www.w3.org/Graphics/SVG/1.1/DTD/svg11.dtd">
<!-- Generated by graphviz version 14.1.2 (0)
 -->
<!-- Title: mqtt::mqttstore::lib::MariaDbStorage::jsonValueForColumn Pages: 1 -->
<svg width="534pt" height="70pt"
 viewBox="0.00 0.00 534.00 70.00" xmlns="http://www.w3.org/2000/svg" xmlns:xlink="http://www.w3.org/1999/xlink">
<g id="graph0" class="graph" transform="scale(1 1) rotate(0) translate(4 65.88)">
<title>mqtt::mqttstore::lib::MariaDbStorage::jsonValueForColumn</title>
<!-- Node1 -->
<g id="Node000001" class="node">
<title>Node1</title>
<g id="a_Node000001"><a xlink:title=" ">
<polygon fill="#999999" stroke="#666666" points="154.75,-61.88 0,-61.88 0,-15.62 154.75,-15.62 154.75,-61.88"/>
<text xml:space="preserve" text-anchor="start" x="8" y="-48.38" font-family="Helvetica,sans-Serif" font-size="10.00">mqtt::mqttstore::lib</text>
<text xml:space="preserve" text-anchor="start" x="8" y="-35.62" font-family="Helvetica,sans-Serif" font-size="10.00">::MariaDbStorage::jsonValue</text>
<text xml:space="preserve" text-anchor="middle" x="77.38" y="-22.88" font-family="Helvetica,sans-Serif" font-size="10.00">ForColumn</text>
</a>
</g>
</g>
<!-- Node2 -->
<g id="Node000002" class="node">
<title>Node2</title>
<g id="a_Node000002"><a xlink:href="classmqtt_1_1mqttstore_1_1lib_1_1MariaDbStorage.html#af999173e84a729d1d001f0812a7ee44e" target="_top" xlink:title=" ">
<polygon fill="white" stroke="#666666" points="525.75,-55.5 375.5,-55.5 375.5,-22 525.75,-22 525.75,-55.5"/>
<text xml:space="preserve" text-anchor="start" x="383.5" y="-42" font-family="Helvetica,sans-Serif" font-size="10.00">mqtt::mqttstore::lib</text>
<text xml:space="preserve" text-anchor="middle" x="450.62" y="-29.25" font-family="Helvetica,sans-Serif" font-size="10.00">::MariaDbStorage::sqlQuote</text>
</a>
</g>
</g>
<!-- Node1&#45;&gt;Node2 -->
<g id="edge1_Node000001_Node000002" class="edge">
<title>Node1&#45;&gt;Node2</title>
<g id="a_edge1_Node000001_Node000002"><a xlink:title=" ">
<path fill="none" stroke="#63b8ff" d="M155.14,-41.85C167.06,-42.22 179.23,-42.55 190.75,-42.75 256.85,-43.93 273.4,-43.95 339.5,-42.75 347.46,-42.61 355.73,-42.4 364.02,-42.16"/>
<polygon fill="#63b8ff" stroke="#63b8ff" points="363.89,-45.67 373.78,-41.86 363.68,-38.67 363.89,-45.67"/>
</a>
</g>
</g>
<!-- Node3 -->
<g id="Node000003" class="node">
<title>Node3</title>
<g id="a_Node000003"><a xlink:href="classmqtt_1_1mqttstore_1_1lib_1_1MariaDbStorage.html#a5460811336e964c9ba121fa9c586bfa0" target="_top" xlink:title=" ">
<polygon fill="white" stroke="#666666" points="339.5,-33.5 190.75,-33.5 190.75,0 339.5,0 339.5,-33.5"/>
<text xml:space="preserve" text-anchor="start" x="198.75" y="-20" font-family="Helvetica,sans-Serif" font-size="10.00">mqtt::mqttstore::lib</text>
<text xml:space="preserve" text-anchor="middle" x="265.12" y="-7.25" font-family="Helvetica,sans-Serif" font-size="10.00">::MariaDbStorage::sqlValue</text>
</a>
</g>
</g>
<!-- Node1&#45;&gt;Node3 -->
<g id="edge2_Node000001_Node000003" class="edge">
<title>Node1&#45;&gt;Node3</title>
<g id="a_edge2_Node000001_Node000003"><a xlink:title=" ">
<path fill="none" stroke="#63b8ff" d="M155,-29.67C162.95,-28.73 171.06,-27.77 179.09,-26.82"/>
<polygon fill="#63b8ff" stroke="#63b8ff" points="179.35,-30.32 188.86,-25.66 178.52,-23.36 179.35,-30.32"/>
</a>
</g>
</g>
<!-- Node3&#45;&gt;Node2 -->
<g id="edge3_Node000003_Node000002" class="edge">
<title>Node3&#45;&gt;Node2</title>
<g id="a_edge3_Node000003_Node000002"><a xlink:title=" ">
<path fill="none" stroke="#63b8ff" d="M339.97,-25.6C347.82,-26.54 355.85,-27.51 363.83,-28.46"/>
<polygon fill="#63b8ff" stroke="#63b8ff" points="363.19,-31.91 373.53,-29.63 364.02,-24.96 363.19,-31.91"/>
</a>
</g>
</g>
</g>
</svg>
