<?xml version="1.0" encoding="UTF-8" standalone="no"?>
<!DOCTYPE svg PUBLIC "-//W3C//DTD SVG 1.1//EN"
 "http://www.w3.org/Graphics/SVG/1.1/DTD/svg11.dtd">
<!-- Generated by graphviz version 2.42.4 (0)
 -->
<!-- Title: inja::Renderer::get_arguments Pages: 1 -->
<svg width="609pt" height="126pt"
 viewBox="0.00 0.00 609.00 126.00" xmlns="http://www.w3.org/2000/svg" xmlns:xlink="http://www.w3.org/1999/xlink">
<g id="graph0" class="graph" transform="scale(1 1) rotate(0) translate(4 122)">
<title>inja::Renderer::get_arguments</title>
<!-- Node1 -->
<g id="Node000001" class="node">
<title>Node1</title>
<g id="a_Node000001"><a xlink:title=" ">
<polygon fill="#999999" stroke="#666666" points="107,-94 0,-94 0,-64 107,-64 107,-94"/>
<text text-anchor="start" x="8" y="-82" font-family="Helvetica,sans-Serif" font-size="10.00">inja::Renderer::get</text>
<text text-anchor="middle" x="53.5" y="-71" font-family="Helvetica,sans-Serif" font-size="10.00">_arguments</text>
</a>
</g>
</g>
<!-- Node2 -->
<g id="Node000002" class="node">
<title>Node2</title>
<g id="a_Node000002"><a xlink:href="classinja_1_1ExpressionNode.html#a67372edaf18af67e3c3ed0649323d829" target="_top" xlink:title=" ">
<polygon fill="white" stroke="#666666" points="262,-118 143,-118 143,-88 262,-88 262,-118"/>
<text text-anchor="start" x="151" y="-106" font-family="Helvetica,sans-Serif" font-size="10.00">inja::ExpressionNode</text>
<text text-anchor="middle" x="202.5" y="-95" font-family="Helvetica,sans-Serif" font-size="10.00">::accept</text>
</a>
</g>
</g>
<!-- Node1&#45;&gt;Node2 -->
<g id="edge1_Node000001_Node000002" class="edge">
<title>Node1&#45;&gt;Node2</title>
<g id="a_edge1_Node000001_Node000002"><a xlink:title=" ">
<path fill="none" stroke="#63b8ff" d="M107.16,-87.6C115.5,-88.96 124.24,-90.39 132.89,-91.8"/>
<polygon fill="#63b8ff" stroke="#63b8ff" points="132.54,-95.29 142.98,-93.45 133.67,-88.38 132.54,-95.29"/>
</a>
</g>
</g>
<!-- Node4 -->
<g id="Node000004" class="node">
<title>Node4</title>
<g id="a_Node000004"><a xlink:href="classinja_1_1Renderer.html#a30be8e7c30b1780ae45a5aa34aae98de" target="_top" xlink:title=" ">
<polygon fill="white" stroke="#666666" points="262,-70 143,-70 143,-40 262,-40 262,-70"/>
<text text-anchor="start" x="151" y="-58" font-family="Helvetica,sans-Serif" font-size="10.00">inja::Renderer::throw</text>
<text text-anchor="middle" x="202.5" y="-47" font-family="Helvetica,sans-Serif" font-size="10.00">_renderer_error</text>
</a>
</g>
</g>
<!-- Node1&#45;&gt;Node4 -->
<g id="edge3_Node000001_Node000004" class="edge">
<title>Node1&#45;&gt;Node4</title>
<g id="a_edge3_Node000001_Node000004"><a xlink:title=" ">
<path fill="none" stroke="#63b8ff" d="M107.16,-70.4C115.5,-69.04 124.24,-67.61 132.89,-66.2"/>
<polygon fill="#63b8ff" stroke="#63b8ff" points="133.67,-69.62 142.98,-64.55 132.54,-62.71 133.67,-69.62"/>
</a>
</g>
</g>
<!-- Node3 -->
<g id="Node000003" class="node">
<title>Node3</title>
<g id="a_Node000003"><a xlink:href="classinja_1_1NodeVisitor.html#ac1487c93e9e91cba1bf57741842ba6d3" target="_top" xlink:title=" ">
<polygon fill="white" stroke="#666666" points="419,-118 315,-118 315,-88 419,-88 419,-118"/>
<text text-anchor="start" x="323" y="-106" font-family="Helvetica,sans-Serif" font-size="10.00">inja::NodeVisitor::</text>
<text text-anchor="middle" x="367" y="-95" font-family="Helvetica,sans-Serif" font-size="10.00">visit</text>
</a>
</g>
</g>
<!-- Node2&#45;&gt;Node3 -->
<g id="edge2_Node000002_Node000003" class="edge">
<title>Node2&#45;&gt;Node3</title>
<g id="a_edge2_Node000002_Node000003"><a xlink:title=" ">
<path fill="none" stroke="#63b8ff" d="M262.17,-103C276.07,-103 290.92,-103 304.93,-103"/>
<polygon fill="#63b8ff" stroke="#63b8ff" points="304.95,-106.5 314.95,-103 304.95,-99.5 304.95,-106.5"/>
</a>
</g>
</g>
<!-- Node5 -->
<g id="Node000005" class="node">
<title>Node5</title>
<g id="a_Node000005"><a xlink:href="namespaceinja.html#ab7c8c54f2caeb72095cd78a7ff7b6c37" target="_top" xlink:title=" ">
<polygon fill="white" stroke="#666666" points="436,-67.5 298,-67.5 298,-48.5 436,-48.5 436,-67.5"/>
<text text-anchor="middle" x="367" y="-55.5" font-family="Helvetica,sans-Serif" font-size="10.00">inja::get_source_location</text>
</a>
</g>
</g>
<!-- Node4&#45;&gt;Node5 -->
<g id="edge4_Node000004_Node000005" class="edge">
<title>Node4&#45;&gt;Node5</title>
<g id="a_edge4_Node000004_Node000005"><a xlink:title=" ">
<path fill="none" stroke="#63b8ff" d="M262.17,-56.08C270.46,-56.24 279.1,-56.4 287.7,-56.55"/>
<polygon fill="#63b8ff" stroke="#63b8ff" points="287.68,-60.05 297.75,-56.74 287.81,-53.06 287.68,-60.05"/>
</a>
</g>
</g>
<!-- Node7 -->
<g id="Node000007" class="node">
<title>Node7</title>
<g id="a_Node000007"><a xlink:href="structinja_1_1RenderError.html#a24568cf50805c33dec821fb1edfb02f5" target="_top" xlink:title=" ">
<polygon fill="white" stroke="#666666" points="419,-30 315,-30 315,0 419,0 419,-30"/>
<text text-anchor="start" x="323" y="-18" font-family="Helvetica,sans-Serif" font-size="10.00">inja::RenderError::</text>
<text text-anchor="middle" x="367" y="-7" font-family="Helvetica,sans-Serif" font-size="10.00">RenderError</text>
</a>
</g>
</g>
<!-- Node4&#45;&gt;Node7 -->
<g id="edge6_Node000004_Node000007" class="edge">
<title>Node4&#45;&gt;Node7</title>
<g id="a_edge6_Node000004_Node000007"><a xlink:title=" ">
<path fill="none" stroke="#63b8ff" d="M262.17,-40.56C276.07,-37.14 290.92,-33.48 304.93,-30.03"/>
<polygon fill="#63b8ff" stroke="#63b8ff" points="306.07,-33.36 314.95,-27.57 304.4,-26.56 306.07,-33.36"/>
</a>
</g>
</g>
<!-- Node6 -->
<g id="Node000006" class="node">
<title>Node6</title>
<g id="a_Node000006"><a xlink:href="namespaceinja_1_1string__view.html#a898871016595d8f34d1b4ea55b3e8684" target="_top" xlink:title=" ">
<polygon fill="white" stroke="#666666" points="588,-73 485,-73 485,-43 588,-43 588,-73"/>
<text text-anchor="start" x="493" y="-61" font-family="Helvetica,sans-Serif" font-size="10.00">inja::string_view::</text>
<text text-anchor="middle" x="536.5" y="-50" font-family="Helvetica,sans-Serif" font-size="10.00">slice</text>
</a>
</g>
</g>
<!-- Node5&#45;&gt;Node6 -->
<g id="edge5_Node000005_Node000006" class="edge">
<title>Node5&#45;&gt;Node6</title>
<g id="a_edge5_Node000005_Node000006"><a xlink:title=" ">
<path fill="none" stroke="#63b8ff" d="M436.13,-58C448.87,-58 462.1,-58 474.6,-58"/>
<polygon fill="#63b8ff" stroke="#63b8ff" points="474.9,-61.5 484.9,-58 474.9,-54.5 474.9,-61.5"/>
</a>
</g>
</g>
<!-- Node8 -->
<g id="Node000008" class="node">
<title>Node8</title>
<g id="a_Node000008"><a xlink:href="structinja_1_1InjaError.html#a399b7d2f7c824c24b7794694711bafb7" target="_top" xlink:title=" ">
<polygon fill="white" stroke="#666666" points="601,-24.5 472,-24.5 472,-5.5 601,-5.5 601,-24.5"/>
<text text-anchor="middle" x="536.5" y="-12.5" font-family="Helvetica,sans-Serif" font-size="10.00">inja::InjaError::InjaError</text>
</a>
</g>
</g>
<!-- Node7&#45;&gt;Node8 -->
<g id="edge7_Node000007_Node000008" class="edge">
<title>Node7&#45;&gt;Node8</title>
<g id="a_edge7_Node000007_Node000008"><a xlink:title=" ">
<path fill="none" stroke="#63b8ff" d="M419.17,-15C432.56,-15 447.27,-15 461.59,-15"/>
<polygon fill="#63b8ff" stroke="#63b8ff" points="461.93,-18.5 471.93,-15 461.93,-11.5 461.93,-18.5"/>
</a>
</g>
</g>
</g>
</svg>
