<?xml version="1.0" encoding="UTF-8" standalone="no"?>
<!DOCTYPE svg PUBLIC "-//W3C//DTD SVG 1.1//EN"
 "http://www.w3.org/Graphics/SVG/1.1/DTD/svg11.dtd">
<!-- Generated by graphviz version 14.1.2 (0)
 -->
<!-- Title: nlohmann::json_schema::json_validator::json_validator Pages: 1 -->
<svg width="538pt" height="132pt"
 viewBox="0.00 0.00 538.00 132.00" xmlns="http://www.w3.org/2000/svg" xmlns:xlink="http://www.w3.org/1999/xlink">
<g id="graph0" class="graph" transform="scale(1 1) rotate(0) translate(4 128.12)">
<title>nlohmann::json_schema::json_validator::json_validator</title>
<!-- Node1 -->
<g id="Node000001" class="node">
<title>Node1</title>
<g id="a_Node000001"><a xlink:title=" ">
<polygon fill="#999999" stroke="#666666" points="529.75,-113.88 395.25,-113.88 395.25,-67.62 529.75,-67.62 529.75,-113.88"/>
<text xml:space="preserve" text-anchor="start" x="403.25" y="-100.38" font-family="Helvetica,sans-Serif" font-size="10.00">nlohmann::json_schema</text>
<text xml:space="preserve" text-anchor="start" x="403.25" y="-87.62" font-family="Helvetica,sans-Serif" font-size="10.00">::json_validator::json</text>
<text xml:space="preserve" text-anchor="middle" x="462.5" y="-74.88" font-family="Helvetica,sans-Serif" font-size="10.00">_validator</text>
</a>
</g>
</g>
<!-- Node2 -->
<g id="Node000002" class="node">
<title>Node2</title>
<g id="a_Node000002"><a xlink:href="issue-293_8cpp.html#a8ee39622edc153e58dfa5711984ac185" target="_top" xlink:title=" ">
<polygon fill="white" stroke="#666666" points="338.25,-124.12 257,-124.12 257,-103.38 338.25,-103.38 338.25,-124.12"/>
<text xml:space="preserve" text-anchor="middle" x="297.62" y="-110.62" font-family="Helvetica,sans-Serif" font-size="10.00">should_throw</text>
</a>
</g>
</g>
<!-- Node1&#45;&gt;Node2 -->
<g id="edge1_Node000001_Node000002" class="edge">
<title>Node1&#45;&gt;Node2</title>
<g id="a_edge1_Node000001_Node000002"><a xlink:title=" ">
<path fill="none" stroke="#63b8ff" d="M383.47,-101.77C367.84,-103.98 352.04,-106.21 338.39,-108.14"/>
<polygon fill="#63b8ff" stroke="#63b8ff" points="383.87,-105.25 393.28,-100.38 382.89,-98.32 383.87,-105.25"/>
</a>
</g>
</g>
<!-- Node4 -->
<g id="Node000004" class="node">
<title>Node4</title>
<g id="a_Node000004"><a xlink:href="classnlohmann_1_1json__patch.html#ac7aea9496e07beb821fb9e5423fb76f5" target="_top" xlink:title=" ">
<polygon fill="white" stroke="#666666" points="359.25,-85.5 236,-85.5 236,-52 359.25,-52 359.25,-85.5"/>
<text xml:space="preserve" text-anchor="start" x="244" y="-72" font-family="Helvetica,sans-Serif" font-size="10.00">nlohmann::json_patch</text>
<text xml:space="preserve" text-anchor="middle" x="297.62" y="-59.25" font-family="Helvetica,sans-Serif" font-size="10.00">::validateJsonPatch</text>
</a>
</g>
</g>
<!-- Node1&#45;&gt;Node4 -->
<g id="edge3_Node000001_Node000004" class="edge">
<title>Node1&#45;&gt;Node4</title>
<g id="a_edge3_Node000001_Node000004"><a xlink:title=" ">
<path fill="none" stroke="#63b8ff" d="M383.54,-80.22C375.55,-79.14 367.51,-78.06 359.74,-77.01"/>
<polygon fill="#63b8ff" stroke="#63b8ff" points="382.9,-83.67 393.28,-81.54 383.84,-76.73 382.9,-83.67"/>
</a>
</g>
</g>
<!-- Node3 -->
<g id="Node000003" class="node">
<title>Node3</title>
<g id="a_Node000003"><a xlink:href="issue-293_8cpp.html#a840291bc02cba5474a4cb46a9b9566fe" target="_top" xlink:title=" ">
<polygon fill="white" stroke="#666666" points="158.75,-124.12 118,-124.12 118,-103.38 158.75,-103.38 158.75,-124.12"/>
<text xml:space="preserve" text-anchor="middle" x="138.38" y="-110.62" font-family="Helvetica,sans-Serif" font-size="10.00">main</text>
</a>
</g>
</g>
<!-- Node2&#45;&gt;Node3 -->
<g id="edge2_Node000002_Node000003" class="edge">
<title>Node2&#45;&gt;Node3</title>
<g id="a_edge2_Node000002_Node000003"><a xlink:title=" ">
<path fill="none" stroke="#63b8ff" d="M245.13,-113.75C215.61,-113.75 180.26,-113.75 158.83,-113.75"/>
<polygon fill="#63b8ff" stroke="#63b8ff" points="245.02,-117.25 255.02,-113.75 245.02,-110.25 245.02,-117.25"/>
</a>
</g>
</g>
<!-- Node5 -->
<g id="Node000005" class="node">
<title>Node5</title>
<g id="a_Node000005"><a xlink:href="classnlohmann_1_1json__patch.html#ae61d410c3afe7cf9b7a9589819e8f94a" target="_top" xlink:title=" ">
<polygon fill="white" stroke="#666666" points="200,-85.5 76.75,-85.5 76.75,-52 200,-52 200,-85.5"/>
<text xml:space="preserve" text-anchor="start" x="84.75" y="-72" font-family="Helvetica,sans-Serif" font-size="10.00">nlohmann::json_patch</text>
<text xml:space="preserve" text-anchor="middle" x="138.38" y="-59.25" font-family="Helvetica,sans-Serif" font-size="10.00">::json_patch</text>
</a>
</g>
</g>
<!-- Node4&#45;&gt;Node5 -->
<g id="edge4_Node000004_Node000005" class="edge">
<title>Node4&#45;&gt;Node5</title>
<g id="a_edge4_Node000004_Node000005"><a xlink:title=" ">
<path fill="none" stroke="#63b8ff" d="M224.48,-68.75C216.39,-68.75 208.2,-68.75 200.27,-68.75"/>
<polygon fill="#63b8ff" stroke="#63b8ff" points="224.31,-72.25 234.31,-68.75 224.31,-65.25 224.31,-72.25"/>
</a>
</g>
</g>
<!-- Node6 -->
<g id="Node000006" class="node">
<title>Node6</title>
<g id="a_Node000006"><a xlink:href="classnlohmann_1_1json__patch.html#a9ed4f8e610b70b973f9fd59696d5c10b" target="_top" xlink:title=" ">
<polygon fill="white" stroke="#666666" points="200,-33.5 76.75,-33.5 76.75,0 200,0 200,-33.5"/>
<text xml:space="preserve" text-anchor="start" x="84.75" y="-20" font-family="Helvetica,sans-Serif" font-size="10.00">nlohmann::json_patch</text>
<text xml:space="preserve" text-anchor="middle" x="138.38" y="-7.25" font-family="Helvetica,sans-Serif" font-size="10.00">::json_patch</text>
</a>
</g>
</g>
<!-- Node4&#45;&gt;Node6 -->
<g id="edge5_Node000004_Node000006" class="edge">
<title>Node4&#45;&gt;Node6</title>
<g id="a_edge5_Node000004_Node000006"><a xlink:title=" ">
<path fill="none" stroke="#63b8ff" d="M234.08,-48.07C219.97,-43.4 205.14,-38.5 191.51,-33.99"/>
<polygon fill="#63b8ff" stroke="#63b8ff" points="232.67,-51.29 243.26,-51.1 234.87,-44.64 232.67,-51.29"/>
</a>
</g>
</g>
<!-- Node7 -->
<g id="Node000007" class="node">
<title>Node7</title>
<g id="a_Node000007"><a xlink:href="test_2json-patch_8cpp.html#a840291bc02cba5474a4cb46a9b9566fe" target="_top" xlink:title=" ">
<polygon fill="white" stroke="#666666" points="40.75,-27.12 0,-27.12 0,-6.38 40.75,-6.38 40.75,-27.12"/>
<text xml:space="preserve" text-anchor="middle" x="20.38" y="-13.62" font-family="Helvetica,sans-Serif" font-size="10.00">main</text>
</a>
</g>
</g>
<!-- Node6&#45;&gt;Node7 -->
<g id="edge6_Node000006_Node000007" class="edge">
<title>Node6&#45;&gt;Node7</title>
<g id="a_edge6_Node000006_Node000007"><a xlink:title=" ">
<path fill="none" stroke="#63b8ff" d="M65.06,-16.75C56.32,-16.75 48.04,-16.75 41.08,-16.75"/>
<polygon fill="#63b8ff" stroke="#63b8ff" points="64.8,-20.25 74.8,-16.75 64.8,-13.25 64.8,-20.25"/>
</a>
</g>
</g>
</g>
</svg>
