<?xml version="1.0" encoding="UTF-8" standalone="no"?>
<!DOCTYPE svg PUBLIC "-//W3C//DTD SVG 1.1//EN"
 "http://www.w3.org/Graphics/SVG/1.1/DTD/svg11.dtd">
<!-- Generated by graphviz version 2.42.4 (0)
 -->
<!-- Title: mqtt::mqttintegrator::lib::Mqtt Pages: 1 -->
<!--zoomable 1023 -->

<svg id="main" version="1.1" xmlns="http://www.w3.org/2000/svg" xmlns:xlink="http://www.w3.org/1999/xlink" xml:space="preserve" onload="init(evt)">
<style type="text/css"><![CDATA[
.node, .edge {opacity: 0.7;}
.node.selected, .edge.selected {opacity: 1;}
.edge:hover path { stroke: red; }
.edge:hover polygon { stroke: red; fill: red; }
]]></style>

<defs>
  <circle id="rim" cx="0" cy="0" r="7"/>
  <circle id="rim2" cx="0" cy="0" r="3.5"/>
  <g id="zoomPlus">
    <use xlink:href="#rim" fill="#404040"><set attributeName="fill" to="#808080" begin="zoomplus.mouseover" end="zoomplus.mouseout"/></use>
    <path d="M-4,0h8M0,-4v8" fill="none" stroke="white" stroke-width="1.5" pointer-events="none"/>
  </g>
  <g id="zoomMin">
    <use xlink:href="#rim" fill="#404040"><set attributeName="fill" to="#808080" begin="zoomminus.mouseover" end="zoomminus.mouseout"/></use>
    <path d="M-4,0h8" fill="none" stroke="white" stroke-width="1.5" pointer-events="none"/>
  </g>
  <g id="arrowUp" transform="translate(30 24)">
    <use xlink:href="#rim"/>
    <path pointer-events="none" fill="none" stroke="white" stroke-width="1.5" d="M0,-3.0v7 M-2.5,-0.5L0,-3.0L2.5,-0.5"/>
  </g>
  <g id="arrowRight" transform="rotate(90) translate(36 -43)">
    <use xlink:href="#rim"/>
    <path pointer-events="none" fill="none" stroke="white" stroke-width="1.5" d="M0,-3.0v7 M-2.5,-0.5L0,-3.0L2.5,-0.5"/>
  </g>
  <g id="arrowDown" transform="rotate(180) translate(-30 -48)">
    <use xlink:href="#rim"/>
    <path pointer-events="none" fill="none" stroke="white" stroke-width="1.5" d="M0,-3.0v7 M-2.5,-0.5L0,-3.0L2.5,-0.5"/>
  </g>
  <g id="arrowLeft" transform="rotate(270) translate(-36 17)">
    <use xlink:href="#rim"/>
    <path pointer-events="none" fill="none" stroke="white" stroke-width="1.5" d="M0,-3.0v7 M-2.5,-0.5L0,-3.0L2.5,-0.5"/>
  </g>
  <g id="resetDef">
    <use xlink:href="#rim2" fill="#404040"><set attributeName="fill" to="#808080" begin="reset.mouseover" end="reset.mouseout"/></use>
  </g>
</defs>
<script type="application/ecmascript">
var viewWidth = 980;
var viewHeight = 1023;
var sectionId = 'dynsection-1';
</script>
<script type="application/ecmascript" xlink:href="svg.min.js"/>
<svg id="graph" class="graph">
<g id="viewport">
<title>mqtt::mqttintegrator::lib::Mqtt</title>
<!-- Node1 -->
<g id="Node000001" class="node">
<title>Node1</title>
<g id="a_Node000001"><a xlink:title=" ">
<polygon fill="#999999" stroke="transparent" points="789,-30 679,-30 679,0 789,0 789,-30"/>
<text text-anchor="start" x="683.5" y="-18" font-family="Helvetica,sans-Serif" font-size="10.00">mqtt::mqttintegrator</text>
<text text-anchor="start" x="710.5" y="-7" font-family="Helvetica,sans-Serif" font-size="10.00">::lib::Mqtt</text>
<polygon fill="none" stroke="#666666" points="679,0 679,-30 789,-30 789,0 679,0"/>
</a>
</g>
</g>
<!-- Node2 -->
<g id="Node000002" class="node">
<title>Node2</title>
<g id="a_Node000002"><a xlink:title=" ">
<polygon fill="white" stroke="transparent" points="658,-86 546,-86 546,-67 658,-67 658,-86"/>
<text text-anchor="start" x="550" y="-73.5" font-family="Helvetica,sans-Serif" font-size="10.00">iot::mqtt::client::Mqtt</text>
<polygon fill="none" stroke="#666666" points="546,-67 546,-86 658,-86 658,-67 546,-67"/>
</a>
</g>
</g>
<!-- Node2&#45;&gt;Node1 -->
<g id="edge1_Node000001_Node000002" class="edge">
<title>Node2&#45;&gt;Node1</title>
<g id="a_edge1_Node000001_Node000002"><a xlink:title=" ">
<path fill="none" stroke="#63b8ff" d="M630.11,-62.83C651.46,-53.2 680.83,-39.97 702.89,-30.02"/>
<polygon fill="none" stroke="#63b8ff" points="628.59,-59.67 620.91,-66.98 631.47,-66.06 628.59,-59.67"/>
</a>
</g>
</g>
<!-- Node3 -->
<g id="Node000003" class="node">
<title>Node3</title>
<g id="a_Node000003"><a xlink:href="classmqtt_1_1lib_1_1MqttMapper.html" target="_top" xlink:title=" ">
<polygon fill="white" stroke="transparent" points="792,-86 676,-86 676,-67 792,-67 792,-86"/>
<text text-anchor="start" x="680.5" y="-73.5" font-family="Helvetica,sans-Serif" font-size="10.00">mqtt::lib::MqttMapper</text>
<polygon fill="none" stroke="#666666" points="676,-67 676,-86 792,-86 792,-67 676,-67"/>
</a>
</g>
</g>
<!-- Node3&#45;&gt;Node1 -->
<g id="edge2_Node000001_Node000003" class="edge">
<title>Node3&#45;&gt;Node1</title>
<g id="a_edge2_Node000001_Node000003"><a xlink:title=" ">
<path fill="none" stroke="#63b8ff" d="M734,-56.73C734,-48.09 734,-38 734,-30.02"/>
<polygon fill="none" stroke="#63b8ff" points="730.5,-56.98 734,-66.98 737.5,-56.98 730.5,-56.98"/>
</a>
</g>
</g>
<!-- Node4 -->
<g id="Node000004" class="node">
<title>Node4</title>
<g id="a_Node000004"><a xlink:title=" ">
<polygon fill="white" stroke="transparent" points="782,-152 686,-152 686,-133 782,-133 782,-152"/>
<text text-anchor="start" x="690" y="-139.5" font-family="Helvetica,sans-Serif" font-size="10.00">std::list&lt; void * &gt;</text>
<polygon fill="none" stroke="#666666" points="686,-133 686,-152 782,-152 782,-133 686,-133"/>
</a>
</g>
</g>
<!-- Node4&#45;&gt;Node3 -->
<g id="edge3_Node000003_Node000004" class="edge">
<title>Node4&#45;&gt;Node3</title>
<g id="a_edge3_Node000003_Node000004"><a xlink:title=" ">
<path fill="none" stroke="#63b8ff" d="M734,-132.87C734,-124.14 734,-110.31 734,-98.65"/>
<polygon fill="none" stroke="#63b8ff" points="734,-98.41 730,-92.41 734,-86.41 738,-92.41 734,-98.41"/>
</a>
</g>
<text text-anchor="middle" x="772.5" y="-107" font-family="Helvetica,sans-Serif" font-size="10.00" fill="grey"> &#45;pluginHandles</text>
</g>
<!-- Node5 -->
<g id="Node000005" class="node">
<title>Node5</title>
<g id="a_Node000005"><a xlink:href="classinja_1_1Environment.html" target="_top" xlink:title="Class for changing the configuration.">
<polygon fill="white" stroke="transparent" points="428,-152 332,-152 332,-133 428,-133 428,-152"/>
<text text-anchor="start" x="336.5" y="-139.5" font-family="Helvetica,sans-Serif" font-size="10.00">inja::Environment</text>
<polygon fill="none" stroke="#666666" points="332,-133 332,-152 428,-152 428,-133 332,-133"/>
</a>
</g>
</g>
<!-- Node5&#45;&gt;Node3 -->
<g id="edge4_Node000003_Node000005" class="edge">
<title>Node5&#45;&gt;Node3</title>
<g id="a_edge4_Node000003_Node000005"><a xlink:title=" ">
<path fill="none" stroke="#63b8ff" d="M427.37,-132.94C491.36,-121.37 605.37,-100.76 674.89,-88.19"/>
<polygon fill="none" stroke="#63b8ff" points="675.1,-88.15 680.29,-83.15 686.91,-86.01 681.71,-91.02 675.1,-88.15"/>
</a>
</g>
<text text-anchor="middle" x="622" y="-107" font-family="Helvetica,sans-Serif" font-size="10.00" fill="grey"> &#45;injaEnvironment</text>
</g>
<!-- Node6 -->
<g id="Node000006" class="node">
<title>Node6</title>
<g id="a_Node000006"><a xlink:href="structinja_1_1LexerConfig.html" target="_top" xlink:title="Class for lexer configuration.">
<polygon fill="white" stroke="transparent" points="845,-530 753,-530 753,-511 845,-511 845,-530"/>
<text text-anchor="start" x="757.5" y="-517.5" font-family="Helvetica,sans-Serif" font-size="10.00">inja::LexerConfig</text>
<polygon fill="none" stroke="#666666" points="753,-511 753,-530 845,-530 845,-511 753,-511"/>
</a>
</g>
</g>
<!-- Node6&#45;&gt;Node5 -->
<g id="edge5_Node000005_Node000006" class="edge">
<title>Node6&#45;&gt;Node5</title>
<g id="a_edge5_Node000005_Node000006"><a xlink:title=" ">
<path fill="none" stroke="#63b8ff" d="M799,-510.73C799,-496.15 799,-466.01 799,-440.5 799,-440.5 799,-440.5 799,-213 799,-177.07 556.14,-155.57 440.21,-147.35"/>
<polygon fill="none" stroke="#63b8ff" points="440.04,-147.34 433.77,-150.91 428.06,-146.5 434.33,-142.93 440.04,-147.34"/>
</a>
</g>
<text text-anchor="middle" x="832.5" y="-349" font-family="Helvetica,sans-Serif" font-size="10.00" fill="grey"> &#45;lexer_config</text>
</g>
<!-- Node7 -->
<g id="Node000007" class="node">
<title>Node7</title>
<g id="a_Node000007"><a xlink:title=" ">
<polygon fill="white" stroke="transparent" points="702,-787 644,-787 644,-768 702,-768 702,-787"/>
<text text-anchor="start" x="648.5" y="-774.5" font-family="Helvetica,sans-Serif" font-size="10.00">std::string</text>
<polygon fill="none" stroke="#666666" points="644,-768 644,-787 702,-787 702,-768 644,-768"/>
</a>
</g>
</g>
<!-- Node7&#45;&gt;Node1 -->
<g id="edge31_Node000001_Node000007" class="edge">
<title>Node7&#45;&gt;Node1</title>
<g id="a_edge31_Node000001_Node000007"><a xlink:title=" ">
<path fill="none" stroke="#63b8ff" d="M702.32,-775.01C759.18,-771.84 880.05,-763.57 893,-750 951.91,-688.26 907,-643.84 907,-558.5 907,-558.5 907,-558.5 907,-75.5 907,-52.1 849.68,-35.92 801.03,-26.41"/>
<polygon fill="none" stroke="#63b8ff" points="801.01,-26.41 794.37,-29.23 789.21,-24.19 795.85,-21.37 801.01,-26.41"/>
</a>
</g>
<text text-anchor="middle" x="939.5" y="-316" font-family="Helvetica,sans-Serif" font-size="10.00" fill="grey"> &#45;password</text>
<text text-anchor="middle" x="939.5" y="-305" font-family="Helvetica,sans-Serif" font-size="10.00" fill="grey">&#45;username</text>
<text text-anchor="middle" x="939.5" y="-294" font-family="Helvetica,sans-Serif" font-size="10.00" fill="grey">&#45;willMessage</text>
<text text-anchor="middle" x="939.5" y="-283" font-family="Helvetica,sans-Serif" font-size="10.00" fill="grey">&#45;willTopic</text>
</g>
<!-- Node7&#45;&gt;Node5 -->
<g id="edge30_Node000005_Node000007" class="edge">
<title>Node7&#45;&gt;Node5</title>
<g id="a_edge30_Node000005_Node000007"><a xlink:title=" ">
<path fill="none" stroke="#63b8ff" d="M652.53,-767.82C644.3,-763.48 635.29,-757.52 629,-750 567.37,-676.3 622.65,-613.11 552,-548 530.9,-528.56 514.27,-545.3 490,-530 433.65,-494.47 380,-362.19 380,-352.5 380,-352.5 380,-352.5 380,-213 380,-196.7 380,-178.25 380,-164.46"/>
<polygon fill="none" stroke="#63b8ff" points="380,-164.06 376,-158.06 380,-152.06 384,-158.06 380,-164.06"/>
</a>
</g>
<text text-anchor="middle" x="438.5" y="-398.5" font-family="Helvetica,sans-Serif" font-size="10.00" fill="grey"> #input_path</text>
<text text-anchor="middle" x="438.5" y="-387.5" font-family="Helvetica,sans-Serif" font-size="10.00" fill="grey">#output_path</text>
</g>
<!-- Node7&#45;&gt;Node6 -->
<g id="edge6_Node000006_Node000007" class="edge">
<title>Node7&#45;&gt;Node6</title>
<g id="a_edge6_Node000006_Node000007"><a xlink:title=" ">
<path fill="none" stroke="#63b8ff" d="M702,-774.16C719.1,-771.21 739.72,-764.62 752,-750 799.71,-693.21 759.23,-657.01 777,-585 780.65,-570.2 786.3,-553.97 790.97,-541.63"/>
<polygon fill="none" stroke="#63b8ff" points="790.99,-541.57 789.44,-534.53 795.34,-530.39 796.89,-537.43 790.99,-541.57"/>
</a>
</g>
<text text-anchor="middle" x="835" y="-742" font-family="Helvetica,sans-Serif" font-size="10.00" fill="grey"> +comment_close</text>
<text text-anchor="start" x="777" y="-731" font-family="Helvetica,sans-Serif" font-size="10.00" fill="grey">+comment_close_force</text>
<text text-anchor="middle" x="835" y="-720" font-family="Helvetica,sans-Serif" font-size="10.00" fill="grey">_rstrip</text>
<text text-anchor="middle" x="835" y="-709" font-family="Helvetica,sans-Serif" font-size="10.00" fill="grey">+comment_open</text>
<text text-anchor="start" x="777" y="-698" font-family="Helvetica,sans-Serif" font-size="10.00" fill="grey">+comment_open_force</text>
<text text-anchor="middle" x="835" y="-687" font-family="Helvetica,sans-Serif" font-size="10.00" fill="grey">_lstrip</text>
<text text-anchor="middle" x="835" y="-676" font-family="Helvetica,sans-Serif" font-size="10.00" fill="grey">+expression_close</text>
<text text-anchor="start" x="777" y="-665" font-family="Helvetica,sans-Serif" font-size="10.00" fill="grey">+expression_close</text>
<text text-anchor="middle" x="835" y="-654" font-family="Helvetica,sans-Serif" font-size="10.00" fill="grey">_force_rstrip</text>
<text text-anchor="middle" x="835" y="-643" font-family="Helvetica,sans-Serif" font-size="10.00" fill="grey">+expression_open</text>
<text text-anchor="start" x="777" y="-632" font-family="Helvetica,sans-Serif" font-size="10.00" fill="grey">+expression_open</text>
<text text-anchor="middle" x="835" y="-621" font-family="Helvetica,sans-Serif" font-size="10.00" fill="grey">_force_lstrip</text>
<text text-anchor="middle" x="835" y="-610" font-family="Helvetica,sans-Serif" font-size="10.00" fill="grey">+line_statement</text>
<text text-anchor="middle" x="835" y="-599" font-family="Helvetica,sans-Serif" font-size="10.00" fill="grey">+open_chars</text>
<text text-anchor="middle" x="835" y="-588" font-family="Helvetica,sans-Serif" font-size="10.00" fill="grey">...</text>
</g>
<!-- Node14 -->
<g id="Node000014" class="node">
<title>Node14</title>
<g id="a_Node000014"><a xlink:title=" ">
<polygon fill="white" stroke="transparent" points="631,-229 517,-229 517,-199 631,-199 631,-229"/>
<text text-anchor="start" x="521" y="-217" font-family="Helvetica,sans-Serif" font-size="10.00">std::map&lt; std::string,</text>
<text text-anchor="start" x="544" y="-206" font-family="Helvetica,sans-Serif" font-size="10.00"> Template &gt;</text>
<polygon fill="none" stroke="#666666" points="517,-199 517,-229 631,-229 631,-199 517,-199"/>
</a>
</g>
</g>
<!-- Node7&#45;&gt;Node14 -->
<g id="edge14_Node000014_Node000007" class="edge">
<title>Node7&#45;&gt;Node14</title>
<g id="a_edge14_Node000014_Node000007"><a xlink:title=" ">
<path fill="none" stroke="#63b8ff" d="M678.32,-767.95C681.26,-762.9 684.76,-756.27 687,-750 734.27,-617.82 750,-580.88 750,-440.5 750,-440.5 750,-440.5 750,-301 750,-251.2 692.42,-230.24 643.13,-221.41"/>
<polygon fill="none" stroke="#63b8ff" points="642.99,-221.39 636.42,-224.37 631.14,-219.47 637.71,-216.48 642.99,-221.39"/>
</a>
</g>
<text text-anchor="middle" x="767" y="-437" font-family="Helvetica,sans-Serif" font-size="10.00" fill="grey"> +keys</text>
</g>
<!-- Node15 -->
<g id="Node000015" class="node">
<title>Node15</title>
<g id="a_Node000015"><a xlink:href="structinja_1_1Template.html" target="_top" xlink:title="The main inja Template.">
<polygon fill="white" stroke="transparent" points="613,-311.5 535,-311.5 535,-292.5 613,-292.5 613,-311.5"/>
<text text-anchor="start" x="539" y="-299" font-family="Helvetica,sans-Serif" font-size="10.00">inja::Template</text>
<polygon fill="none" stroke="#666666" points="535,-292.5 535,-311.5 613,-311.5 613,-292.5 535,-292.5"/>
</a>
</g>
</g>
<!-- Node7&#45;&gt;Node15 -->
<g id="edge21_Node000015_Node000007" class="edge">
<title>Node7&#45;&gt;Node15</title>
<g id="a_edge21_Node000015_Node000007"><a xlink:title=" ">
<path fill="none" stroke="#63b8ff" d="M673,-767.78C673,-738.33 673,-639.87 673,-558.5 673,-558.5 673,-558.5 673,-394.5 673,-371.94 672.51,-363.27 658,-346 646.75,-332.61 630.27,-322.9 614.88,-316.15"/>
<polygon fill="none" stroke="#63b8ff" points="614.56,-316.02 607.5,-317.49 603.43,-311.54 610.49,-310.07 614.56,-316.02"/>
</a>
</g>
<text text-anchor="middle" x="697.5" y="-475.5" font-family="Helvetica,sans-Serif" font-size="10.00" fill="grey"> +content</text>
</g>
<!-- Node20 -->
<g id="Node000020" class="node">
<title>Node20</title>
<g id="a_Node000020"><a xlink:title=" ">
<polygon fill="white" stroke="transparent" points="645,-416 503,-416 503,-375 645,-375 645,-416"/>
<text text-anchor="start" x="507.5" y="-403.5" font-family="Helvetica,sans-Serif" font-size="10.00">std::map&lt; std::string,</text>
<text text-anchor="start" x="507.5" y="-392.5" font-family="Helvetica,sans-Serif" font-size="10.00"> std::shared_ptr&lt; inja</text>
<text text-anchor="start" x="507.5" y="-381.5" font-family="Helvetica,sans-Serif" font-size="10.00">::BlockStatementNode &gt; &gt;</text>
<polygon fill="none" stroke="#666666" points="503,-375 503,-416 645,-416 645,-375 503,-375"/>
</a>
</g>
</g>
<!-- Node7&#45;&gt;Node20 -->
<g id="edge23_Node000020_Node000007" class="edge">
<title>Node7&#45;&gt;Node20</title>
<g id="a_edge23_Node000020_Node000007"><a xlink:title=" ">
<path fill="none" stroke="#63b8ff" d="M667.57,-767.99C664.59,-762.95 661.09,-756.32 659,-750 658.65,-748.95 610.49,-435 610,-434 608.55,-431.07 606.79,-428.21 604.83,-425.48"/>
<polygon fill="none" stroke="#63b8ff" points="604.75,-425.38 597.85,-423.3 597.11,-416.13 604.02,-418.21 604.75,-425.38"/>
</a>
</g>
<text text-anchor="middle" x="641" y="-518" font-family="Helvetica,sans-Serif" font-size="10.00" fill="grey"> +keys</text>
</g>
<!-- Node22 -->
<g id="Node000022" class="node">
<title>Node22</title>
<g id="a_Node000022"><a xlink:href="classinja_1_1BlockStatementNode.html" target="_top" xlink:title=" ">
<polygon fill="white" stroke="transparent" points="543,-567 407,-567 407,-548 543,-548 543,-567"/>
<text text-anchor="start" x="411" y="-554.5" font-family="Helvetica,sans-Serif" font-size="10.00">inja::BlockStatementNode</text>
<polygon fill="none" stroke="#666666" points="407,-548 407,-567 543,-567 543,-548 407,-548"/>
</a>
</g>
</g>
<!-- Node7&#45;&gt;Node22 -->
<g id="edge28_Node000022_Node000007" class="edge">
<title>Node7&#45;&gt;Node22</title>
<g id="a_edge28_Node000022_Node000007"><a xlink:title=" ">
<path fill="none" stroke="#63b8ff" d="M643.87,-775.47C603.73,-773.42 534.38,-767.39 517,-750 464.41,-697.4 512.9,-655.44 489,-585 488.2,-582.63 487.2,-580.22 486.12,-577.87"/>
<polygon fill="none" stroke="#63b8ff" points="485.99,-577.63 479.66,-574.19 480.4,-567.02 486.73,-570.46 485.99,-577.63"/>
</a>
</g>
<text text-anchor="middle" x="537" y="-665" font-family="Helvetica,sans-Serif" font-size="10.00" fill="grey"> +name</text>
</g>
<!-- Node8 -->
<g id="Node000008" class="node">
<title>Node8</title>
<g id="a_Node000008"><a xlink:title=" ">
<polygon fill="white" stroke="transparent" points="721,-864 625,-864 625,-834 721,-834 721,-864"/>
<text text-anchor="start" x="629" y="-852" font-family="Helvetica,sans-Serif" font-size="10.00">std::basic_string&lt;</text>
<text text-anchor="start" x="654.5" y="-841" font-family="Helvetica,sans-Serif" font-size="10.00"> Char &gt;</text>
<polygon fill="none" stroke="#666666" points="625,-834 625,-864 721,-864 721,-834 625,-834"/>
</a>
</g>
</g>
<!-- Node8&#45;&gt;Node7 -->
<g id="edge7_Node000007_Node000008" class="edge">
<title>Node8&#45;&gt;Node7</title>
<g id="a_edge7_Node000007_Node000008"><a xlink:title=" ">
<path fill="none" stroke="#63b8ff" d="M673,-823.56C673,-810.95 673,-796.35 673,-787.27"/>
<polygon fill="none" stroke="#63b8ff" points="669.5,-823.94 673,-833.94 676.5,-823.94 669.5,-823.94"/>
</a>
</g>
</g>
<!-- Node9 -->
<g id="Node000009" class="node">
<title>Node9</title>
<g id="a_Node000009"><a xlink:href="structinja_1_1ParserConfig.html" target="_top" xlink:title="Class for parser configuration.">
<polygon fill="white" stroke="transparent" points="229,-223.5 133,-223.5 133,-204.5 229,-204.5 229,-223.5"/>
<text text-anchor="start" x="137.5" y="-211" font-family="Helvetica,sans-Serif" font-size="10.00">inja::ParserConfig</text>
<polygon fill="none" stroke="#666666" points="133,-204.5 133,-223.5 229,-223.5 229,-204.5 133,-204.5"/>
</a>
</g>
</g>
<!-- Node9&#45;&gt;Node5 -->
<g id="edge8_Node000005_Node000009" class="edge">
<title>Node9&#45;&gt;Node5</title>
<g id="a_edge8_Node000005_Node000009"><a xlink:title=" ">
<path fill="none" stroke="#63b8ff" d="M184.44,-204.48C188.95,-194.47 197.88,-178.2 211,-170 228.84,-158.85 278.7,-151.92 319.67,-147.96"/>
<polygon fill="none" stroke="#63b8ff" points="319.83,-147.95 325.44,-143.42 331.78,-146.85 326.17,-151.38 319.83,-147.95"/>
</a>
</g>
<text text-anchor="middle" x="247.5" y="-173" font-family="Helvetica,sans-Serif" font-size="10.00" fill="grey"> &#45;parser_config</text>
</g>
<!-- Node10 -->
<g id="Node000010" class="node">
<title>Node10</title>
<g id="a_Node000010"><a xlink:href="structinja_1_1RenderConfig.html" target="_top" xlink:title="Class for render configuration.">
<polygon fill="white" stroke="transparent" points="347,-223.5 247,-223.5 247,-204.5 347,-204.5 347,-223.5"/>
<text text-anchor="start" x="251.5" y="-211" font-family="Helvetica,sans-Serif" font-size="10.00">inja::RenderConfig</text>
<polygon fill="none" stroke="#666666" points="247,-204.5 247,-223.5 347,-223.5 347,-204.5 247,-204.5"/>
</a>
</g>
</g>
<!-- Node10&#45;&gt;Node5 -->
<g id="edge9_Node000005_Node000010" class="edge">
<title>Node10&#45;&gt;Node5</title>
<g id="a_edge9_Node000005_Node000010"><a xlink:title=" ">
<path fill="none" stroke="#63b8ff" d="M292.68,-204.16C288.77,-194.76 284.65,-179.89 292,-170 298.99,-160.59 309.22,-154.4 320.25,-150.35"/>
<polygon fill="none" stroke="#63b8ff" points="320.43,-150.3 325.04,-144.75 331.93,-146.87 327.33,-152.42 320.43,-150.3"/>
</a>
</g>
<text text-anchor="middle" x="329" y="-173" font-family="Helvetica,sans-Serif" font-size="10.00" fill="grey"> &#45;render_config</text>
</g>
<!-- Node11 -->
<g id="Node000011" class="node">
<title>Node11</title>
<g id="a_Node000011"><a xlink:href="classinja_1_1FunctionStorage.html" target="_top" xlink:title="Class for builtin functions and user&#45;defined callbacks.">
<polygon fill="white" stroke="transparent" points="115,-223.5 3,-223.5 3,-204.5 115,-204.5 115,-223.5"/>
<text text-anchor="start" x="7.5" y="-211" font-family="Helvetica,sans-Serif" font-size="10.00">inja::FunctionStorage</text>
<polygon fill="none" stroke="#666666" points="3,-204.5 3,-223.5 115,-223.5 115,-204.5 3,-204.5"/>
</a>
</g>
</g>
<!-- Node11&#45;&gt;Node5 -->
<g id="edge10_Node000005_Node000011" class="edge">
<title>Node11&#45;&gt;Node5</title>
<g id="a_edge10_Node000005_Node000011"><a xlink:title=" ">
<path fill="none" stroke="#63b8ff" d="M65.53,-204.29C73.73,-194.1 88.82,-177.64 106,-170 142.89,-153.58 250.47,-147.29 319.34,-144.91"/>
<polygon fill="none" stroke="#63b8ff" points="319.72,-144.9 325.59,-140.71 331.72,-144.51 325.85,-148.7 319.72,-144.9"/>
</a>
</g>
<text text-anchor="middle" x="150.5" y="-173" font-family="Helvetica,sans-Serif" font-size="10.00" fill="grey"> &#45;function_storage</text>
</g>
<!-- Node12 -->
<g id="Node000012" class="node">
<title>Node12</title>
<g id="a_Node000012"><a xlink:title=" ">
<polygon fill="white" stroke="transparent" points="118,-328 0,-328 0,-276 118,-276 118,-328"/>
<text text-anchor="start" x="4.5" y="-316" font-family="Helvetica,sans-Serif" font-size="10.00">std::map&lt; std::pair</text>
<text text-anchor="start" x="4.5" y="-305" font-family="Helvetica,sans-Serif" font-size="10.00">&lt; std::string, int &gt;</text>
<text text-anchor="start" x="4.5" y="-294" font-family="Helvetica,sans-Serif" font-size="10.00">, inja::FunctionStorage</text>
<text text-anchor="start" x="18" y="-283" font-family="Helvetica,sans-Serif" font-size="10.00">::FunctionData &gt;</text>
<polygon fill="none" stroke="#666666" points="0,-276 0,-328 118,-328 118,-276 0,-276"/>
</a>
</g>
</g>
<!-- Node12&#45;&gt;Node11 -->
<g id="edge11_Node000011_Node000012" class="edge">
<title>Node12&#45;&gt;Node11</title>
<g id="a_edge11_Node000011_Node000012"><a xlink:title=" ">
<path fill="none" stroke="#63b8ff" d="M59,-275.66C59,-262.98 59,-247.83 59,-235.84"/>
<polygon fill="none" stroke="#63b8ff" points="59,-235.55 55,-229.55 59,-223.55 63,-229.55 59,-235.55"/>
</a>
</g>
<text text-anchor="middle" x="103.5" y="-250" font-family="Helvetica,sans-Serif" font-size="10.00" fill="grey"> &#45;function_storage</text>
</g>
<!-- Node13 -->
<g id="Node000013" class="node">
<title>Node13</title>
<g id="a_Node000013"><a xlink:href="structinja_1_1FunctionStorage_1_1FunctionData.html" target="_top" xlink:title=" ">
<polygon fill="white" stroke="transparent" points="115,-410.5 3,-410.5 3,-380.5 115,-380.5 115,-410.5"/>
<text text-anchor="start" x="7.5" y="-398.5" font-family="Helvetica,sans-Serif" font-size="10.00">inja::FunctionStorage</text>
<text text-anchor="start" x="23.5" y="-387.5" font-family="Helvetica,sans-Serif" font-size="10.00">::FunctionData</text>
<polygon fill="none" stroke="#666666" points="3,-380.5 3,-410.5 115,-410.5 115,-380.5 3,-380.5"/>
</a>
</g>
</g>
<!-- Node13&#45;&gt;Node12 -->
<g id="edge12_Node000012_Node000013" class="edge">
<title>Node13&#45;&gt;Node12</title>
<g id="a_edge12_Node000012_Node000013"><a xlink:title=" ">
<path fill="none" stroke="#63b8ff" d="M59,-380.2C59,-369.58 59,-354.58 59,-340.62"/>
<polygon fill="none" stroke="#63b8ff" points="59,-340.24 55,-334.25 59,-328.24 63,-334.24 59,-340.24"/>
</a>
</g>
<text text-anchor="middle" x="88" y="-349" font-family="Helvetica,sans-Serif" font-size="10.00" fill="grey"> +elements</text>
</g>
<!-- Node14&#45;&gt;Node5 -->
<g id="edge13_Node000005_Node000014" class="edge">
<title>Node14&#45;&gt;Node5</title>
<g id="a_edge13_Node000005_Node000014"><a xlink:title=" ">
<path fill="none" stroke="#63b8ff" d="M534.74,-198.94C499.83,-186.43 449.24,-168.31 415.52,-156.22"/>
<polygon fill="none" stroke="#63b8ff" points="415.21,-156.11 408.22,-157.86 403.92,-152.07 410.91,-150.33 415.21,-156.11"/>
</a>
</g>
<text text-anchor="middle" x="529" y="-173" font-family="Helvetica,sans-Serif" font-size="10.00" fill="grey"> &#45;template_storage</text>
</g>
<!-- Node15&#45;&gt;Node14 -->
<g id="edge15_Node000014_Node000015" class="edge">
<title>Node15&#45;&gt;Node14</title>
<g id="a_edge15_Node000014_Node000015"><a xlink:title=" ">
<path fill="none" stroke="#63b8ff" d="M574,-292.44C574,-280.6 574,-258.71 574,-241.21"/>
<polygon fill="none" stroke="#63b8ff" points="574,-241.2 570,-235.2 574,-229.2 578,-235.2 574,-241.2"/>
</a>
</g>
<text text-anchor="middle" x="603" y="-250" font-family="Helvetica,sans-Serif" font-size="10.00" fill="grey"> +elements</text>
</g>
<!-- Node16 -->
<g id="Node000016" class="node">
<title>Node16</title>
<g id="a_Node000016"><a xlink:href="classinja_1_1BlockNode.html" target="_top" xlink:title=" ">
<polygon fill="white" stroke="transparent" points="434,-787 348,-787 348,-768 434,-768 434,-787"/>
<text text-anchor="start" x="352.5" y="-774.5" font-family="Helvetica,sans-Serif" font-size="10.00">inja::BlockNode</text>
<polygon fill="none" stroke="#666666" points="348,-768 348,-787 434,-787 434,-768 348,-768"/>
</a>
</g>
</g>
<!-- Node16&#45;&gt;Node15 -->
<g id="edge16_Node000015_Node000016" class="edge">
<title>Node16&#45;&gt;Node15</title>
<g id="a_edge16_Node000015_Node000016"><a xlink:title=" ">
<path fill="none" stroke="#63b8ff" d="M389.77,-767.85C384.75,-729.4 368.61,-571.11 426,-463 458.66,-401.48 520.87,-345.71 553.25,-319.22"/>
<polygon fill="none" stroke="#63b8ff" points="553.28,-319.2 555.46,-312.32 562.64,-311.68 560.47,-318.56 553.28,-319.2"/>
</a>
</g>
<text text-anchor="middle" x="441.5" y="-475.5" font-family="Helvetica,sans-Serif" font-size="10.00" fill="grey"> +root</text>
</g>
<!-- Node16&#45;&gt;Node22 -->
<g id="edge29_Node000022_Node000016" class="edge">
<title>Node16&#45;&gt;Node22</title>
<g id="a_edge29_Node000022_Node000016"><a xlink:title=" ">
<path fill="none" stroke="#63b8ff" d="M391.91,-767.58C395.63,-731.81 409.97,-599.97 421,-585 424.57,-580.16 429.26,-576.15 434.4,-572.85"/>
<polygon fill="none" stroke="#63b8ff" points="434.74,-572.67 438.16,-566.32 445.34,-567.03 441.92,-573.38 434.74,-572.67"/>
</a>
</g>
<text text-anchor="middle" x="441" y="-670.5" font-family="Helvetica,sans-Serif" font-size="10.00" fill="grey"> +block</text>
<text text-anchor="middle" x="441" y="-659.5" font-family="Helvetica,sans-Serif" font-size="10.00" fill="grey">+parent</text>
</g>
<!-- Node17 -->
<g id="Node000017" class="node">
<title>Node17</title>
<g id="a_Node000017"><a xlink:href="classinja_1_1AstNode.html" target="_top" xlink:title="Base node class for the abstract syntax tree (AST).">
<polygon fill="white" stroke="transparent" points="442,-1015 368,-1015 368,-996 442,-996 442,-1015"/>
<text text-anchor="start" x="372" y="-1002.5" font-family="Helvetica,sans-Serif" font-size="10.00">inja::AstNode</text>
<polygon fill="none" stroke="#666666" points="368,-996 368,-1015 442,-1015 442,-996 368,-996"/>
</a>
</g>
</g>
<!-- Node17&#45;&gt;Node16 -->
<g id="edge17_Node000016_Node000017" class="edge">
<title>Node17&#45;&gt;Node16</title>
<g id="a_edge17_Node000016_Node000017"><a xlink:title=" ">
<path fill="none" stroke="#63b8ff" d="M403.84,-985.77C400.96,-939.3 393.58,-820.11 391.53,-787.09"/>
<polygon fill="none" stroke="#63b8ff" points="400.36,-986.15 404.47,-995.92 407.34,-985.72 400.36,-986.15"/>
</a>
</g>
</g>
<!-- Node19 -->
<g id="Node000019" class="node">
<title>Node19</title>
<g id="a_Node000019"><a xlink:title=" ">
<polygon fill="white" stroke="transparent" points="375,-949 263,-949 263,-919 375,-919 375,-949"/>
<text text-anchor="start" x="267.5" y="-937" font-family="Helvetica,sans-Serif" font-size="10.00">std::shared_ptr&lt; inja</text>
<text text-anchor="start" x="289.5" y="-926" font-family="Helvetica,sans-Serif" font-size="10.00">::AstNode &gt;</text>
<polygon fill="none" stroke="#666666" points="263,-919 263,-949 375,-949 375,-919 263,-919"/>
</a>
</g>
</g>
<!-- Node17&#45;&gt;Node19 -->
<g id="edge20_Node000019_Node000017" class="edge">
<title>Node17&#45;&gt;Node19</title>
<g id="a_edge20_Node000019_Node000017"><a xlink:title=" ">
<path fill="none" stroke="#63b8ff" d="M391.3,-995.89C383.67,-990.92 374.09,-984.4 366,-978 357.95,-971.63 349.56,-964.23 342.13,-957.38"/>
<polygon fill="none" stroke="#63b8ff" points="342.08,-957.34 334.97,-956.14 333.34,-949.12 340.45,-950.31 342.08,-957.34"/>
</a>
</g>
<text text-anchor="middle" x="378.5" y="-970" font-family="Helvetica,sans-Serif" font-size="10.00" fill="grey"> +ptr</text>
</g>
<!-- Node23 -->
<g id="Node000023" class="node">
<title>Node23</title>
<g id="a_Node000023"><a xlink:href="classinja_1_1StatementNode.html" target="_top" xlink:title=" ">
<polygon fill="white" stroke="transparent" points="530,-901 420,-901 420,-882 530,-882 530,-901"/>
<text text-anchor="start" x="424.5" y="-888.5" font-family="Helvetica,sans-Serif" font-size="10.00">inja::StatementNode</text>
<polygon fill="none" stroke="#666666" points="420,-882 420,-901 530,-901 530,-882 420,-882"/>
</a>
</g>
</g>
<!-- Node17&#45;&gt;Node23 -->
<g id="edge27_Node000023_Node000017" class="edge">
<title>Node17&#45;&gt;Node23</title>
<g id="a_edge27_Node000023_Node000017"><a xlink:title=" ">
<path fill="none" stroke="#63b8ff" d="M415.85,-987.15C431.02,-962.88 458,-919.69 469.53,-901.25"/>
<polygon fill="none" stroke="#63b8ff" points="412.82,-985.38 410.49,-995.71 418.76,-989.09 412.82,-985.38"/>
</a>
</g>
</g>
<!-- Node18 -->
<g id="Node000018" class="node">
<title>Node18</title>
<g id="a_Node000018"><a xlink:title=" ">
<polygon fill="white" stroke="transparent" points="377,-864 251,-864 251,-834 377,-834 377,-864"/>
<text text-anchor="start" x="255" y="-852" font-family="Helvetica,sans-Serif" font-size="10.00">std::vector&lt; std::shared</text>
<text text-anchor="start" x="255" y="-841" font-family="Helvetica,sans-Serif" font-size="10.00">_ptr&lt; inja::AstNode &gt; &gt;</text>
<polygon fill="none" stroke="#666666" points="251,-834 251,-864 377,-864 377,-834 251,-834"/>
</a>
</g>
</g>
<!-- Node18&#45;&gt;Node16 -->
<g id="edge18_Node000016_Node000018" class="edge">
<title>Node18&#45;&gt;Node16</title>
<g id="a_edge18_Node000016_Node000018"><a xlink:title=" ">
<path fill="none" stroke="#63b8ff" d="M324.07,-833.9C330.82,-825.02 340.22,-813.64 350,-805 354.6,-800.93 359.88,-797.05 365.09,-793.56"/>
<polygon fill="none" stroke="#63b8ff" points="365.27,-793.45 368.22,-786.86 375.43,-787.05 372.48,-793.63 365.27,-793.45"/>
</a>
</g>
<text text-anchor="middle" x="370.5" y="-808" font-family="Helvetica,sans-Serif" font-size="10.00" fill="grey"> +nodes</text>
</g>
<!-- Node19&#45;&gt;Node18 -->
<g id="edge19_Node000018_Node000019" class="edge">
<title>Node19&#45;&gt;Node18</title>
<g id="a_edge19_Node000018_Node000019"><a xlink:title=" ">
<path fill="none" stroke="#63b8ff" d="M318.15,-918.92C317.45,-907.23 316.43,-890.3 315.57,-876.14"/>
<polygon fill="none" stroke="#63b8ff" points="315.57,-876.13 311.22,-870.38 314.85,-864.15 319.21,-869.9 315.57,-876.13"/>
</a>
</g>
<text text-anchor="middle" x="345" y="-889" font-family="Helvetica,sans-Serif" font-size="10.00" fill="grey"> +elements</text>
</g>
<!-- Node20&#45;&gt;Node15 -->
<g id="edge22_Node000015_Node000020" class="edge">
<title>Node20&#45;&gt;Node15</title>
<g id="a_edge22_Node000015_Node000020"><a xlink:title=" ">
<path fill="none" stroke="#63b8ff" d="M574,-374.65C574,-359.68 574,-339.19 574,-323.96"/>
<polygon fill="none" stroke="#63b8ff" points="574,-323.76 570,-317.76 574,-311.76 578,-317.76 574,-323.76"/>
</a>
</g>
<text text-anchor="middle" x="614" y="-349" font-family="Helvetica,sans-Serif" font-size="10.00" fill="grey"> +block_storage</text>
</g>
<!-- Node21 -->
<g id="Node000021" class="node">
<title>Node21</title>
<g id="a_Node000021"><a xlink:title=" ">
<polygon fill="white" stroke="transparent" points="596,-493 466,-493 466,-463 596,-463 596,-493"/>
<text text-anchor="start" x="470.5" y="-481" font-family="Helvetica,sans-Serif" font-size="10.00">std::shared_ptr&lt; inja</text>
<text text-anchor="start" x="470.5" y="-470" font-family="Helvetica,sans-Serif" font-size="10.00">::BlockStatementNode &gt;</text>
<polygon fill="none" stroke="#666666" points="466,-463 466,-493 596,-493 596,-463 466,-463"/>
</a>
</g>
</g>
<!-- Node21&#45;&gt;Node20 -->
<g id="edge24_Node000020_Node000021" class="edge">
<title>Node21&#45;&gt;Node20</title>
<g id="a_edge24_Node000020_Node000021"><a xlink:title=" ">
<path fill="none" stroke="#63b8ff" d="M537.54,-462.92C541.56,-454.46 546.89,-443.52 552,-434 553.28,-431.62 554.62,-429.18 556,-426.73"/>
<polygon fill="none" stroke="#63b8ff" points="556.08,-426.59 555.61,-419.39 562.07,-416.19 562.54,-423.39 556.08,-426.59"/>
</a>
</g>
<text text-anchor="middle" x="581" y="-437" font-family="Helvetica,sans-Serif" font-size="10.00" fill="grey"> +elements</text>
</g>
<!-- Node22&#45;&gt;Node21 -->
<g id="edge25_Node000021_Node000022" class="edge">
<title>Node22&#45;&gt;Node21</title>
<g id="a_edge25_Node000021_Node000022"><a xlink:title=" ">
<path fill="none" stroke="#63b8ff" d="M481.21,-547.91C488.98,-537.15 502.62,-518.27 513.66,-502.99"/>
<polygon fill="none" stroke="#63b8ff" points="513.76,-502.86 514.03,-495.66 520.79,-493.14 520.51,-500.34 513.76,-502.86"/>
</a>
</g>
<text text-anchor="middle" x="518.5" y="-518" font-family="Helvetica,sans-Serif" font-size="10.00" fill="grey"> +ptr</text>
</g>
<!-- Node23&#45;&gt;Node22 -->
<g id="edge26_Node000022_Node000023" class="edge">
<title>Node23&#45;&gt;Node22</title>
<g id="a_edge26_Node000022_Node000023"><a xlink:title=" ">
<path fill="none" stroke="#63b8ff" d="M475,-871.69C475,-809.42 475,-611.45 475,-567.29"/>
<polygon fill="none" stroke="#63b8ff" points="471.5,-871.96 475,-881.96 478.5,-871.96 471.5,-871.96"/>
</a>
</g>
</g>
</g>
</svg>

<g id="navigator" transform="translate(0 0)" fill="#404254">
  <rect fill="#f2f5e9" fill-opacity="0.5" stroke="#606060" stroke-width=".5" x="0" y="0" width="60" height="60"/>
  <use id="zoomplus" xlink:href="#zoomPlus" x="17" y="9" onmousedown="handleZoom(evt,'in')"/>
  <use id="zoomminus" xlink:href="#zoomMin" x="42" y="9" onmousedown="handleZoom(evt,'out')"/>
  <use id="reset" xlink:href="#resetDef" x="30" y="36" onmousedown="handleReset()"/>
   <use id="arrowup" xlink:href="#arrowUp" x="0" y="0" onmousedown="handlePan(0,-1)"/>
  <use id="arrowright" xlink:href="#arrowRight" x="0" y="0" onmousedown="handlePan(1,0)"/>
  <use id="arrowdown" xlink:href="#arrowDown" x="0" y="0" onmousedown="handlePan(0,1)"/>
  <use id="arrowleft" xlink:href="#arrowLeft" x="0" y="0" onmousedown="handlePan(-1,0)"/>
</g>
<svg viewBox="0 0 15 15" width="100%" height="30px" preserveAspectRatio="xMaxYMin meet">
 <g id="arrow_out" transform="scale(0.3 0.3)">
  <a xlink:href="classmqtt_1_1mqttintegrator_1_1lib_1_1Mqtt__coll__graph_org.svg" target="_base">
   <rect id="button" ry="5" rx="5" y="6" x="6" height="38" width="38"
        fill="#f2f5e9" fill-opacity="0.5" stroke="#606060" stroke-width="1.0"/>
   <path id="arrow"
     d="M 11.500037,31.436501 C 11.940474,20.09759 22.043105,11.32322 32.158766,21.979434 L 37.068811,17.246167 C 37.068811,17.246167 37.088388,32 37.088388,32 L 22.160133,31.978069 C 22.160133,31.978069 26.997745,27.140456 26.997745,27.140456 C 18.528582,18.264221 13.291696,25.230495 11.500037,31.436501 z"
     style="fill:#404040;"/>
  </a>
 </g>
</svg>

<style type='text/css'>
<![CDATA[
[data-mouse-over-selected='false'] { opacity: 0.7; }
[data-mouse-over-selected='true']  { opacity: 1.0; }
]]>
</style>
<script type="application/ecmascript"><![CDATA[
document.addEventListener('DOMContentLoaded', (event) => {
  highlightEdges();
  highlightAdjacentNodes();
});
]]></script>
</svg>
