<?xml version="1.0" encoding="UTF-8" standalone="no"?>
<!DOCTYPE svg PUBLIC "-//W3C//DTD SVG 1.1//EN"
 "http://www.w3.org/Graphics/SVG/1.1/DTD/svg11.dtd">
<!-- Generated by graphviz version 14.1.2 (0)
 -->
<!-- Title: mqtt::mqttcli::lib::Mqtt Pages: 1 -->
<svg width="360pt" height="345pt"
 viewBox="0.00 0.00 360.00 345.00" xmlns="http://www.w3.org/2000/svg" xmlns:xlink="http://www.w3.org/1999/xlink">

<svg id="main" version="1.1" xmlns="http://www.w3.org/2000/svg" xmlns:xlink="http://www.w3.org/1999/xlink" xml:space="preserve">

<style type="text/css"><![CDATA[
.node, .edge {opacity: 0.7;}
.node.selected, .edge.selected {opacity: 1;}
.edge:hover path { stroke: red; }
.edge:hover polygon { stroke: red; fill: red; }
]]></style>
<script type="application/ecmascript" xlink:href="svg.min.js"/>
<svg id="graph" class="graph">
<g id="graph0" class="graph" transform="scale(1 1) rotate(0) translate(4 340.75)">
<title>mqtt::mqttcli::lib::Mqtt</title>
<!-- Node1 -->
<g id="Node000001" class="node">
<title>Node1</title>
<g id="a_Node000001"><a xlink:title=" ">
<polygon fill="#999999" stroke="none" points="192.62,-33.5 102.88,-33.5 102.88,0 192.62,0 192.62,-33.5"/>
<text xml:space="preserve" text-anchor="start" x="106.88" y="-20" font-family="Helvetica,sans-Serif" font-size="10.00">mqtt::mqttcli::lib</text>
<text xml:space="preserve" text-anchor="start" x="133.5" y="-7.25" font-family="Helvetica,sans-Serif" font-size="10.00">::Mqtt</text>
<polygon fill="none" stroke="#666666" points="102.88,0 102.88,-33.5 192.62,-33.5 192.62,0 102.88,0"/>
</a>
</g>
</g>
<!-- Node2 -->
<g id="Node000002" class="node">
<title>Node2</title>
<g id="a_Node000002"><a xlink:title=" ">
<polygon fill="white" stroke="none" points="111.5,-149.88 0,-149.88 0,-129.12 111.5,-129.12 111.5,-149.88"/>
<text xml:space="preserve" text-anchor="start" x="4" y="-136.38" font-family="Helvetica,sans-Serif" font-size="10.00">iot::mqtt::client::Mqtt</text>
<polygon fill="none" stroke="#666666" points="0,-129.12 0,-149.88 111.5,-149.88 111.5,-129.12 0,-129.12"/>
</a>
</g>
</g>
<!-- Node2&#45;&gt;Node1 -->
<g id="edge1_Node000001_Node000002" class="edge">
<title>Node2&#45;&gt;Node1</title>
<g id="a_edge1_Node000001_Node000002"><a xlink:title=" ">
<path fill="none" stroke="#63b8ff" d="M69.5,-120.45C87.55,-96.76 118.92,-55.59 135.94,-33.24"/>
<polygon fill="none" stroke="#63b8ff" points="66.86,-118.14 63.58,-128.22 72.43,-122.39 66.86,-118.14"/>
</a>
</g>
</g>
<!-- Node3 -->
<g id="Node000003" class="node">
<title>Node3</title>
<g id="a_Node000003"><a xlink:title=" ">
<polygon fill="white" stroke="none" points="192.12,-266.25 135.38,-266.25 135.38,-245.5 192.12,-245.5 192.12,-266.25"/>
<text xml:space="preserve" text-anchor="start" x="139.38" y="-252.75" font-family="Helvetica,sans-Serif" font-size="10.00">std::string</text>
<polygon fill="none" stroke="#666666" points="135.38,-245.5 135.38,-266.25 192.12,-266.25 192.12,-245.5 135.38,-245.5"/>
</a>
</g>
</g>
<!-- Node3&#45;&gt;Node1 -->
<g id="edge2_Node000001_Node000003" class="edge">
<title>Node3&#45;&gt;Node1</title>
<g id="a_edge2_Node000001_Node000003"><a xlink:title=" ">
<path fill="none" stroke="#63b8ff" d="M162.54,-245.76C160.93,-233.34 158.11,-210.4 156.5,-190.75 152.32,-139.64 149.83,-79.87 148.63,-45.65"/>
<polygon fill="none" stroke="#63b8ff" points="148.64,-45.94 144.44,-40.08 148.24,-33.95 152.43,-39.81 148.64,-45.94"/>
</a>
</g>
<text xml:space="preserve" text-anchor="start" x="159.5" y="-178.25" font-family="Helvetica,sans-Serif" font-size="10.00" fill="grey">&#45;password</text>
<text xml:space="preserve" text-anchor="start" x="159.5" y="-161.5" font-family="Helvetica,sans-Serif" font-size="10.00" fill="grey">&#45;pubMessage</text>
<text xml:space="preserve" text-anchor="start" x="159.5" y="-144.75" font-family="Helvetica,sans-Serif" font-size="10.00" fill="grey">&#45;pubTopic</text>
<text xml:space="preserve" text-anchor="start" x="159.5" y="-128" font-family="Helvetica,sans-Serif" font-size="10.00" fill="grey">&#45;username</text>
<text xml:space="preserve" text-anchor="start" x="159.5" y="-111.25" font-family="Helvetica,sans-Serif" font-size="10.00" fill="grey">&#45;willMessage</text>
<text xml:space="preserve" text-anchor="start" x="159.5" y="-94.5" font-family="Helvetica,sans-Serif" font-size="10.00" fill="grey">&#45;willTopic</text>
</g>
<!-- Node5 -->
<g id="Node000005" class="node">
<title>Node5</title>
<g id="a_Node000005"><a xlink:title=" ">
<polygon fill="white" stroke="none" points="352.38,-149.88 237.12,-149.88 237.12,-129.12 352.38,-129.12 352.38,-149.88"/>
<text xml:space="preserve" text-anchor="start" x="241.12" y="-136.38" font-family="Helvetica,sans-Serif" font-size="10.00">std::list&lt; std::string &gt;</text>
<polygon fill="none" stroke="#666666" points="237.12,-129.12 237.12,-149.88 352.38,-149.88 352.38,-129.12 237.12,-129.12"/>
</a>
</g>
</g>
<!-- Node3&#45;&gt;Node5 -->
<g id="edge5_Node000005_Node000003" class="edge">
<title>Node3&#45;&gt;Node5</title>
<g id="a_edge5_Node000005_Node000003"><a xlink:title=" ">
<path fill="none" stroke="#63b8ff" d="M174.47,-245.52C196.36,-226.4 246.5,-182.63 274.64,-158.05"/>
<polygon fill="none" stroke="#63b8ff" points="274.53,-158.15 276.42,-151.2 283.57,-150.26 281.68,-157.22 274.53,-158.15"/>
</a>
</g>
<text xml:space="preserve" text-anchor="start" x="216.66" y="-215" font-family="Helvetica,sans-Serif" font-size="10.00" fill="grey">+elements</text>
</g>
<!-- Node4 -->
<g id="Node000004" class="node">
<title>Node4</title>
<g id="a_Node000004"><a xlink:title=" ">
<polygon fill="white" stroke="none" points="211.62,-336.75 115.88,-336.75 115.88,-303.25 211.62,-303.25 211.62,-336.75"/>
<text xml:space="preserve" text-anchor="start" x="119.88" y="-323.25" font-family="Helvetica,sans-Serif" font-size="10.00">std::basic_string&lt;</text>
<text xml:space="preserve" text-anchor="start" x="145.38" y="-310.5" font-family="Helvetica,sans-Serif" font-size="10.00"> Char &gt;</text>
<polygon fill="none" stroke="#666666" points="115.88,-303.25 115.88,-336.75 211.62,-336.75 211.62,-303.25 115.88,-303.25"/>
</a>
</g>
</g>
<!-- Node4&#45;&gt;Node3 -->
<g id="edge3_Node000003_Node000004" class="edge">
<title>Node4&#45;&gt;Node3</title>
<g id="a_edge3_Node000003_Node000004"><a xlink:title=" ">
<path fill="none" stroke="#63b8ff" d="M163.75,-292.04C163.75,-282.71 163.75,-272.88 163.75,-265.99"/>
<polygon fill="none" stroke="#63b8ff" points="160.25,-291.81 163.75,-301.81 167.25,-291.81 160.25,-291.81"/>
</a>
</g>
</g>
<!-- Node5&#45;&gt;Node1 -->
<g id="edge4_Node000001_Node000005" class="edge">
<title>Node5&#45;&gt;Node1</title>
<g id="a_edge4_Node000001_Node000005"><a xlink:title=" ">
<path fill="none" stroke="#63b8ff" d="M283.7,-129.42C261.23,-110.96 209.55,-68.52 176.78,-41.59"/>
<polygon fill="none" stroke="#63b8ff" points="176.83,-41.64 169.66,-40.92 167.56,-34.02 174.73,-34.74 176.83,-41.64"/>
</a>
</g>
<text xml:space="preserve" text-anchor="start" x="211.08" y="-57.75" font-family="Helvetica,sans-Serif" font-size="10.00" fill="grey">&#45;subTopics</text>
</g>
</g>
</svg>
</svg>

<style type='text/css'>
<![CDATA[
[data-mouse-over-selected='false'] { opacity: 0.7; }
[data-mouse-over-selected='true']  { opacity: 1.0; }
]]>
</style>
<script type="application/ecmascript"><![CDATA[
document.addEventListener('DOMContentLoaded', (event) => {
  highlightEdges();
  highlightAdjacentNodes();
});
]]></script>
</svg>
