<?xml version="1.0" encoding="UTF-8" standalone="no"?>
<!DOCTYPE svg PUBLIC "-//W3C//DTD SVG 1.1//EN"
 "http://www.w3.org/Graphics/SVG/1.1/DTD/svg11.dtd">
<!-- Generated by graphviz version 2.42.4 (0)
 -->
<!-- Title: mqtt::mqttintegrator::lib::Mqtt::onConnack Pages: 1 -->
<svg width="608pt" height="38pt"
 viewBox="0.00 0.00 608.00 38.00" xmlns="http://www.w3.org/2000/svg" xmlns:xlink="http://www.w3.org/1999/xlink">
<g id="graph0" class="graph" transform="scale(1 1) rotate(0) translate(4 34)">
<title>mqtt::mqttintegrator::lib::Mqtt::onConnack</title>
<!-- Node1 -->
<g id="Node000001" class="node">
<title>Node1</title>
<g id="a_Node000001"><a xlink:title=" ">
<polygon fill="#999999" stroke="#666666" points="123,-30 0,-30 0,0 123,0 123,-30"/>
<text text-anchor="start" x="8" y="-18" font-family="Helvetica,sans-Serif" font-size="10.00">mqtt::mqttintegrator</text>
<text text-anchor="middle" x="61.5" y="-7" font-family="Helvetica,sans-Serif" font-size="10.00">::lib::Mqtt::onConnack</text>
</a>
</g>
</g>
<!-- Node2 -->
<g id="Node000002" class="node">
<title>Node2</title>
<g id="a_Node000002"><a xlink:href="classmqtt_1_1lib_1_1MqttMapper.html#af7b7f3ea70079f2dce04cee40e737713" target="_top" xlink:title=" ">
<polygon fill="white" stroke="#666666" points="282,-30 159,-30 159,0 282,0 282,-30"/>
<text text-anchor="start" x="167" y="-18" font-family="Helvetica,sans-Serif" font-size="10.00">mqtt::lib::MqttMapper</text>
<text text-anchor="middle" x="220.5" y="-7" font-family="Helvetica,sans-Serif" font-size="10.00">::extractSubscriptions</text>
</a>
</g>
</g>
<!-- Node1&#45;&gt;Node2 -->
<g id="edge1_Node000001_Node000002" class="edge">
<title>Node1&#45;&gt;Node2</title>
<g id="a_edge1_Node000001_Node000002"><a xlink:title=" ">
<path fill="none" stroke="#63b8ff" d="M123.2,-15C131.64,-15 140.36,-15 148.95,-15"/>
<polygon fill="#63b8ff" stroke="#63b8ff" points="148.96,-18.5 158.96,-15 148.96,-11.5 148.96,-18.5"/>
</a>
</g>
</g>
<!-- Node3 -->
<g id="Node000003" class="node">
<title>Node3</title>
<g id="a_Node000003"><a xlink:href="classmqtt_1_1lib_1_1MqttMapper.html#afdb06854e763267e43a1a344535ce782" target="_top" xlink:title=" ">
<polygon fill="white" stroke="#666666" points="441,-30 318,-30 318,0 441,0 441,-30"/>
<text text-anchor="start" x="326" y="-18" font-family="Helvetica,sans-Serif" font-size="10.00">mqtt::lib::MqttMapper</text>
<text text-anchor="middle" x="379.5" y="-7" font-family="Helvetica,sans-Serif" font-size="10.00">::extractSubscriptions</text>
</a>
</g>
</g>
<!-- Node2&#45;&gt;Node3 -->
<g id="edge2_Node000002_Node000003" class="edge">
<title>Node2&#45;&gt;Node3</title>
<g id="a_edge2_Node000002_Node000003"><a xlink:title=" ">
<path fill="none" stroke="#63b8ff" d="M282.2,-15C290.64,-15 299.36,-15 307.95,-15"/>
<polygon fill="#63b8ff" stroke="#63b8ff" points="307.96,-18.5 317.96,-15 307.96,-11.5 307.96,-18.5"/>
</a>
</g>
</g>
<!-- Node4 -->
<g id="Node000004" class="node">
<title>Node4</title>
<g id="a_Node000004"><a xlink:href="classmqtt_1_1lib_1_1MqttMapper.html#a0aaa509065586f1c2cb1f2f453263eed" target="_top" xlink:title=" ">
<polygon fill="white" stroke="#666666" points="600,-30 477,-30 477,0 600,0 600,-30"/>
<text text-anchor="start" x="485" y="-18" font-family="Helvetica,sans-Serif" font-size="10.00">mqtt::lib::MqttMapper</text>
<text text-anchor="middle" x="538.5" y="-7" font-family="Helvetica,sans-Serif" font-size="10.00">::extractSubscription</text>
</a>
</g>
</g>
<!-- Node3&#45;&gt;Node4 -->
<g id="edge3_Node000003_Node000004" class="edge">
<title>Node3&#45;&gt;Node4</title>
<g id="a_edge3_Node000003_Node000004"><a xlink:title=" ">
<path fill="none" stroke="#63b8ff" d="M441.2,-8.41C449.64,-8.26 458.36,-8.21 466.95,-8.28"/>
<polygon fill="#63b8ff" stroke="#63b8ff" points="466.92,-11.78 476.96,-8.41 467.01,-4.78 466.92,-11.78"/>
</a>
</g>
</g>
<!-- Node4&#45;&gt;Node3 -->
<g id="edge4_Node000004_Node000003" class="edge">
<title>Node4&#45;&gt;Node3</title>
<g id="a_edge4_Node000004_Node000003"><a xlink:title=" ">
<path fill="none" stroke="#63b8ff" d="M476.96,-21.59C468.53,-21.74 459.81,-21.79 451.21,-21.72"/>
<polygon fill="#63b8ff" stroke="#63b8ff" points="451.24,-18.22 441.2,-21.59 451.16,-25.22 451.24,-18.22"/>
</a>
</g>
</g>
</g>
</svg>
