<?xml version="1.0" encoding="UTF-8" standalone="no"?>
<!DOCTYPE svg PUBLIC "-//W3C//DTD SVG 1.1//EN"
 "http://www.w3.org/Graphics/SVG/1.1/DTD/svg11.dtd">
<!-- Generated by graphviz version 14.1.1 (0)
 -->
<!-- Title: inja::Renderer::visit Pages: 1 -->
<svg width="774pt" height="135pt"
 viewBox="0.00 0.00 774.00 135.00" xmlns="http://www.w3.org/2000/svg" xmlns:xlink="http://www.w3.org/1999/xlink">
<g id="graph0" class="graph" transform="scale(1 1) rotate(0) translate(4 130.5)">
<title>inja::Renderer::visit</title>
<!-- Node1 -->
<g id="Node000001" class="node">
<title>Node1</title>
<g id="a_Node000001"><a xlink:title=" ">
<polygon fill="#999999" stroke="#666666" points="111.25,-71.12 0,-71.12 0,-50.38 111.25,-50.38 111.25,-71.12"/>
<text xml:space="preserve" text-anchor="middle" x="55.62" y="-57.62" font-family="Helvetica,sans-Serif" font-size="10.00">inja::Renderer::visit</text>
</a>
</g>
</g>
<!-- Node2 -->
<g id="Node000002" class="node">
<title>Node2</title>
<g id="a_Node000002"><a xlink:href="classinja_1_1Renderer.html#a1f914ffa16fd02743b3700b1390b41ab" target="_top" xlink:title=" ">
<polygon fill="white" stroke="#666666" points="266,-100.5 154.75,-100.5 154.75,-67 266,-67 266,-100.5"/>
<text xml:space="preserve" text-anchor="start" x="162.75" y="-87" font-family="Helvetica,sans-Serif" font-size="10.00">inja::Renderer::eval</text>
<text xml:space="preserve" text-anchor="middle" x="210.38" y="-74.25" font-family="Helvetica,sans-Serif" font-size="10.00">_expression_list</text>
</a>
</g>
</g>
<!-- Node1&#45;&gt;Node2 -->
<g id="edge1_Node000001_Node000002" class="edge">
<title>Node1&#45;&gt;Node2</title>
<g id="a_edge1_Node000001_Node000002"><a xlink:title=" ">
<path fill="none" stroke="#63b8ff" d="M111.34,-68.99C121.59,-70.53 132.4,-72.16 142.96,-73.75"/>
<polygon fill="#63b8ff" stroke="#63b8ff" points="142.37,-77.2 152.78,-75.23 143.41,-70.28 142.37,-77.2"/>
</a>
</g>
</g>
<!-- Node10 -->
<g id="Node000010" class="node">
<title>Node10</title>
<g id="a_Node000010"><a xlink:href="namespaceinja.html#a0d679f660536e174d17e3299bec96bd4" target="_top" xlink:title=" ">
<polygon fill="white" stroke="#666666" points="273.5,-49.12 147.25,-49.12 147.25,-28.38 273.5,-28.38 273.5,-49.12"/>
<text xml:space="preserve" text-anchor="middle" x="210.38" y="-35.62" font-family="Helvetica,sans-Serif" font-size="10.00">inja::replace_substring</text>
</a>
</g>
</g>
<!-- Node1&#45;&gt;Node10 -->
<g id="edge9_Node000001_Node000010" class="edge">
<title>Node1&#45;&gt;Node10</title>
<g id="a_edge9_Node000001_Node000010"><a xlink:title=" ">
<path fill="none" stroke="#63b8ff" d="M111.34,-52.87C119.29,-51.73 127.57,-50.53 135.81,-49.34"/>
<polygon fill="#63b8ff" stroke="#63b8ff" points="136.09,-52.84 145.49,-47.95 135.1,-45.91 136.09,-52.84"/>
</a>
</g>
</g>
<!-- Node3 -->
<g id="Node000003" class="node">
<title>Node3</title>
<g id="a_Node000003"><a xlink:href="classinja_1_1ExpressionNode.html#a67372edaf18af67e3c3ed0649323d829" target="_top" xlink:title=" ">
<polygon fill="white" stroke="#666666" points="428.25,-126.5 309.5,-126.5 309.5,-93 428.25,-93 428.25,-126.5"/>
<text xml:space="preserve" text-anchor="start" x="317.5" y="-113" font-family="Helvetica,sans-Serif" font-size="10.00">inja::ExpressionNode</text>
<text xml:space="preserve" text-anchor="middle" x="368.88" y="-100.25" font-family="Helvetica,sans-Serif" font-size="10.00">::accept</text>
</a>
</g>
</g>
<!-- Node2&#45;&gt;Node3 -->
<g id="edge2_Node000002_Node000003" class="edge">
<title>Node2&#45;&gt;Node3</title>
<g id="a_edge2_Node000002_Node000003"><a xlink:title=" ">
<path fill="none" stroke="#63b8ff" d="M266.11,-92.84C276.45,-94.56 287.39,-96.38 298.11,-98.16"/>
<polygon fill="#63b8ff" stroke="#63b8ff" points="297.24,-101.56 307.68,-99.75 298.39,-94.66 297.24,-101.56"/>
</a>
</g>
</g>
<!-- Node5 -->
<g id="Node000005" class="node">
<title>Node5</title>
<g id="a_Node000005"><a xlink:href="classinja_1_1Renderer.html#a30be8e7c30b1780ae45a5aa34aae98de" target="_top" xlink:title=" ">
<polygon fill="white" stroke="#666666" points="427.88,-74.5 309.88,-74.5 309.88,-41 427.88,-41 427.88,-74.5"/>
<text xml:space="preserve" text-anchor="start" x="317.88" y="-61" font-family="Helvetica,sans-Serif" font-size="10.00">inja::Renderer::throw</text>
<text xml:space="preserve" text-anchor="middle" x="368.88" y="-48.25" font-family="Helvetica,sans-Serif" font-size="10.00">_renderer_error</text>
</a>
</g>
</g>
<!-- Node2&#45;&gt;Node5 -->
<g id="edge4_Node000002_Node000005" class="edge">
<title>Node2&#45;&gt;Node5</title>
<g id="a_edge4_Node000002_Node000005"><a xlink:title=" ">
<path fill="none" stroke="#63b8ff" d="M266.11,-74.66C276.51,-72.93 287.53,-71.1 298.32,-69.31"/>
<polygon fill="#63b8ff" stroke="#63b8ff" points="298.66,-72.8 307.95,-67.71 297.51,-65.89 298.66,-72.8"/>
</a>
</g>
</g>
<!-- Node4 -->
<g id="Node000004" class="node">
<title>Node4</title>
<g id="a_Node000004"><a xlink:href="classinja_1_1NodeVisitor.html#ac1487c93e9e91cba1bf57741842ba6d3" target="_top" xlink:title=" ">
<polygon fill="white" stroke="#666666" points="584.5,-126.5 481.5,-126.5 481.5,-93 584.5,-93 584.5,-126.5"/>
<text xml:space="preserve" text-anchor="start" x="489.5" y="-113" font-family="Helvetica,sans-Serif" font-size="10.00">inja::NodeVisitor::</text>
<text xml:space="preserve" text-anchor="middle" x="533" y="-100.25" font-family="Helvetica,sans-Serif" font-size="10.00">visit</text>
</a>
</g>
</g>
<!-- Node3&#45;&gt;Node4 -->
<g id="edge3_Node000003_Node000004" class="edge">
<title>Node3&#45;&gt;Node4</title>
<g id="a_edge3_Node000003_Node000004"><a xlink:title=" ">
<path fill="none" stroke="#63b8ff" d="M428.41,-109.75C441.87,-109.75 456.23,-109.75 469.84,-109.75"/>
<polygon fill="#63b8ff" stroke="#63b8ff" points="469.55,-113.25 479.55,-109.75 469.55,-106.25 469.55,-113.25"/>
</a>
</g>
</g>
<!-- Node6 -->
<g id="Node000006" class="node">
<title>Node6</title>
<g id="a_Node000006"><a xlink:href="namespaceinja.html#ab7c8c54f2caeb72095cd78a7ff7b6c37" target="_top" xlink:title=" ">
<polygon fill="white" stroke="#666666" points="601.75,-72.12 464.25,-72.12 464.25,-51.38 601.75,-51.38 601.75,-72.12"/>
<text xml:space="preserve" text-anchor="middle" x="533" y="-58.62" font-family="Helvetica,sans-Serif" font-size="10.00">inja::get_source_location</text>
</a>
</g>
</g>
<!-- Node5&#45;&gt;Node6 -->
<g id="edge5_Node000005_Node000006" class="edge">
<title>Node5&#45;&gt;Node6</title>
<g id="a_edge5_Node000005_Node000006"><a xlink:title=" ">
<path fill="none" stroke="#63b8ff" d="M427.95,-59.18C435.94,-59.38 444.26,-59.59 452.56,-59.79"/>
<polygon fill="#63b8ff" stroke="#63b8ff" points="452.24,-63.28 462.32,-60.03 452.41,-56.29 452.24,-63.28"/>
</a>
</g>
</g>
<!-- Node8 -->
<g id="Node000008" class="node">
<title>Node8</title>
<g id="a_Node000008"><a xlink:href="structinja_1_1RenderError.html#a24568cf50805c33dec821fb1edfb02f5" target="_top" xlink:title=" ">
<polygon fill="white" stroke="#666666" points="584.88,-33.5 481.12,-33.5 481.12,0 584.88,0 584.88,-33.5"/>
<text xml:space="preserve" text-anchor="start" x="489.12" y="-20" font-family="Helvetica,sans-Serif" font-size="10.00">inja::RenderError::</text>
<text xml:space="preserve" text-anchor="middle" x="533" y="-7.25" font-family="Helvetica,sans-Serif" font-size="10.00">RenderError</text>
</a>
</g>
</g>
<!-- Node5&#45;&gt;Node8 -->
<g id="edge7_Node000005_Node000008" class="edge">
<title>Node5&#45;&gt;Node8</title>
<g id="a_edge7_Node000005_Node000008"><a xlink:title=" ">
<path fill="none" stroke="#63b8ff" d="M427.95,-43.06C441.57,-39.62 456.14,-35.94 469.93,-32.45"/>
<polygon fill="#63b8ff" stroke="#63b8ff" points="470.48,-35.92 479.32,-30.07 468.76,-29.13 470.48,-35.92"/>
</a>
</g>
</g>
<!-- Node7 -->
<g id="Node000007" class="node">
<title>Node7</title>
<g id="a_Node000007"><a xlink:href="namespaceinja_1_1string__view.html#a898871016595d8f34d1b4ea55b3e8684" target="_top" xlink:title=" ">
<polygon fill="white" stroke="#666666" points="753.12,-78.5 650.88,-78.5 650.88,-45 753.12,-45 753.12,-78.5"/>
<text xml:space="preserve" text-anchor="start" x="658.88" y="-65" font-family="Helvetica,sans-Serif" font-size="10.00">inja::string_view::</text>
<text xml:space="preserve" text-anchor="middle" x="702" y="-52.25" font-family="Helvetica,sans-Serif" font-size="10.00">slice</text>
</a>
</g>
</g>
<!-- Node6&#45;&gt;Node7 -->
<g id="edge6_Node000006_Node000007" class="edge">
<title>Node6&#45;&gt;Node7</title>
<g id="a_edge6_Node000006_Node000007"><a xlink:title=" ">
<path fill="none" stroke="#63b8ff" d="M601.93,-61.75C614.24,-61.75 627.03,-61.75 639.16,-61.75"/>
<polygon fill="#63b8ff" stroke="#63b8ff" points="639.04,-65.25 649.04,-61.75 639.04,-58.25 639.04,-65.25"/>
</a>
</g>
</g>
<!-- Node9 -->
<g id="Node000009" class="node">
<title>Node9</title>
<g id="a_Node000009"><a xlink:href="structinja_1_1InjaError.html#a399b7d2f7c824c24b7794694711bafb7" target="_top" xlink:title=" ">
<polygon fill="white" stroke="#666666" points="766.25,-27.12 637.75,-27.12 637.75,-6.38 766.25,-6.38 766.25,-27.12"/>
<text xml:space="preserve" text-anchor="middle" x="702" y="-13.62" font-family="Helvetica,sans-Serif" font-size="10.00">inja::InjaError::InjaError</text>
</a>
</g>
</g>
<!-- Node8&#45;&gt;Node9 -->
<g id="edge8_Node000008_Node000009" class="edge">
<title>Node8&#45;&gt;Node9</title>
<g id="a_edge8_Node000008_Node000009"><a xlink:title=" ">
<path fill="none" stroke="#63b8ff" d="M585.01,-16.75C597.9,-16.75 612.02,-16.75 625.82,-16.75"/>
<polygon fill="#63b8ff" stroke="#63b8ff" points="625.8,-20.25 635.8,-16.75 625.8,-13.25 625.8,-20.25"/>
</a>
</g>
</g>
</g>
</svg>
