<?xml version="1.0" encoding="UTF-8" standalone="no"?>
<!DOCTYPE svg PUBLIC "-//W3C//DTD SVG 1.1//EN"
 "http://www.w3.org/Graphics/SVG/1.1/DTD/svg11.dtd">
<!-- Generated by graphviz version 14.1.2 (0)
 -->
<!-- Title: mqtt::mqttstore::lib::anonymous_namespace{StoragePlan.cpp}::ProjectionValidationErrorHandler Pages: 1 -->
<svg width="162pt" height="206pt"
 viewBox="0.00 0.00 162.00 206.00" xmlns="http://www.w3.org/2000/svg" xmlns:xlink="http://www.w3.org/1999/xlink">

<svg id="main" version="1.1" xmlns="http://www.w3.org/2000/svg" xmlns:xlink="http://www.w3.org/1999/xlink" xml:space="preserve">

<style type="text/css"><![CDATA[
.node, .edge {opacity: 0.7;}
.node.selected, .edge.selected {opacity: 1;}
.edge:hover path { stroke: red; }
.edge:hover polygon { stroke: red; fill: red; }
]]></style>
<script type="application/ecmascript" xlink:href="svg.min.js"/>
<svg id="graph" class="graph">
<g id="graph0" class="graph" transform="scale(1 1) rotate(0) translate(4 202)">
<title>mqtt::mqttstore::lib::anonymous_namespace{StoragePlan.cpp}::ProjectionValidationErrorHandler</title>
<!-- Node1 -->
<g id="Node000001" class="node">
<title>Node1</title>
<g id="a_Node000001"><a xlink:title=" ">
<polygon fill="#999999" stroke="none" points="153.5,-59 0,-59 0,0 153.5,0 153.5,-59"/>
<text xml:space="preserve" text-anchor="start" x="4" y="-45.5" font-family="Helvetica,sans-Serif" font-size="10.00">mqtt::mqttstore::lib</text>
<text xml:space="preserve" text-anchor="start" x="4" y="-32.75" font-family="Helvetica,sans-Serif" font-size="10.00">::anonymous_namespace</text>
<text xml:space="preserve" text-anchor="start" x="4" y="-20" font-family="Helvetica,sans-Serif" font-size="10.00">{StoragePlan.cpp}::Projection</text>
<text xml:space="preserve" text-anchor="start" x="21.25" y="-7.25" font-family="Helvetica,sans-Serif" font-size="10.00">ValidationErrorHandler</text>
<polygon fill="none" stroke="#666666" points="0,0 0,-59 153.5,-59 153.5,0 0,0"/>
</a>
</g>
</g>
<!-- Node2 -->
<g id="Node000002" class="node">
<title>Node2</title>
<g id="a_Node000002"><a xlink:href="classnlohmann_1_1json__schema_1_1basic__error__handler.html" target="_top" xlink:title=" ">
<polygon fill="white" stroke="none" points="140,-128.5 13.5,-128.5 13.5,-95 140,-95 140,-128.5"/>
<text xml:space="preserve" text-anchor="start" x="17.5" y="-115" font-family="Helvetica,sans-Serif" font-size="10.00">nlohmann::json_schema</text>
<text xml:space="preserve" text-anchor="start" x="25.75" y="-102.25" font-family="Helvetica,sans-Serif" font-size="10.00">::basic_error_handler</text>
<polygon fill="none" stroke="#666666" points="13.5,-95 13.5,-128.5 140,-128.5 140,-95 13.5,-95"/>
</a>
</g>
</g>
<!-- Node2&#45;&gt;Node1 -->
<g id="edge1_Node000001_Node000002" class="edge">
<title>Node2&#45;&gt;Node1</title>
<g id="a_edge1_Node000001_Node000002"><a xlink:title=" ">
<path fill="none" stroke="#63b8ff" d="M70.34,-83.9C69.91,-75.87 69.89,-67.05 70.26,-58.92"/>
<polygon fill="none" stroke="#63b8ff" points="66.84,-84.1 71.17,-93.77 73.82,-83.51 66.84,-84.1"/>
</a>
</g>
</g>
<!-- Node2&#45;&gt;Node1 -->
<g id="edge3_Node000001_Node000002" class="edge">
<title>Node2&#45;&gt;Node1</title>
<g id="a_edge3_Node000001_Node000002"><a xlink:title=" ">
<path fill="none" stroke="#63b8ff" d="M83.16,-83.9C83.59,-75.87 83.61,-67.05 83.24,-58.92"/>
<polygon fill="none" stroke="#63b8ff" points="79.68,-83.51 82.33,-93.77 86.66,-84.1 79.68,-83.51"/>
</a>
</g>
</g>
<!-- Node3 -->
<g id="Node000003" class="node">
<title>Node3</title>
<g id="a_Node000003"><a xlink:href="classnlohmann_1_1json__schema_1_1error__handler.html" target="_top" xlink:title=" ">
<polygon fill="white" stroke="none" points="140,-198 13.5,-198 13.5,-164.5 140,-164.5 140,-198"/>
<text xml:space="preserve" text-anchor="start" x="17.5" y="-184.5" font-family="Helvetica,sans-Serif" font-size="10.00">nlohmann::json_schema</text>
<text xml:space="preserve" text-anchor="start" x="41.12" y="-171.75" font-family="Helvetica,sans-Serif" font-size="10.00">::error_handler</text>
<polygon fill="none" stroke="#666666" points="13.5,-164.5 13.5,-198 140,-198 140,-164.5 13.5,-164.5"/>
</a>
</g>
</g>
<!-- Node3&#45;&gt;Node2 -->
<g id="edge2_Node000002_Node000003" class="edge">
<title>Node3&#45;&gt;Node2</title>
<g id="a_edge2_Node000002_Node000003"><a xlink:title=" ">
<path fill="none" stroke="#63b8ff" d="M76.75,-153.25C76.75,-144.78 76.75,-135.72 76.75,-128.32"/>
<polygon fill="none" stroke="#63b8ff" points="73.25,-153.08 76.75,-163.08 80.25,-153.08 73.25,-153.08"/>
</a>
</g>
</g>
</g>
</svg>
</svg>

<style type='text/css'>
<![CDATA[
[data-mouse-over-selected='false'] { opacity: 0.7; }
[data-mouse-over-selected='true']  { opacity: 1.0; }
]]>
</style>
<script type="application/ecmascript"><![CDATA[
document.addEventListener('DOMContentLoaded', (event) => {
  highlightEdges();
  highlightAdjacentNodes();
});
]]></script>
</svg>
