<?xml version="1.0" encoding="UTF-8" standalone="no"?>
<!DOCTYPE svg PUBLIC "-//W3C//DTD SVG 1.1//EN"
 "http://www.w3.org/Graphics/SVG/1.1/DTD/svg11.dtd">
<!-- Generated by graphviz version 14.1.2 (0)
 -->
<!-- Title: inja::FunctionStorage::add_callback Pages: 1 -->
<svg width="727pt" height="170pt"
 viewBox="0.00 0.00 727.00 170.00" xmlns="http://www.w3.org/2000/svg" xmlns:xlink="http://www.w3.org/1999/xlink">
<g id="graph0" class="graph" transform="scale(1 1) rotate(0) translate(4 165.5)">
<title>inja::FunctionStorage::add_callback</title>
<!-- Node1 -->
<g id="Node000001" class="node">
<title>Node1</title>
<g id="a_Node000001"><a xlink:title=" ">
<polygon fill="#999999" stroke="#666666" points="719,-97.5 600.25,-97.5 600.25,-64 719,-64 719,-97.5"/>
<text xml:space="preserve" text-anchor="start" x="608.25" y="-84" font-family="Helvetica,sans-Serif" font-size="10.00">inja::FunctionStorage</text>
<text xml:space="preserve" text-anchor="middle" x="659.62" y="-71.25" font-family="Helvetica,sans-Serif" font-size="10.00">::add_callback</text>
</a>
</g>
</g>
<!-- Node2 -->
<g id="Node000002" class="node">
<title>Node2</title>
<g id="a_Node000002"><a xlink:href="classinja_1_1Environment.html#accda3196054131f8e8cd484ef92c0627" target="_top" xlink:title="Adds a callback with given number or arguments.">
<polygon fill="white" stroke="#666666" points="564.25,-123.5 456,-123.5 456,-90 564.25,-90 564.25,-123.5"/>
<text xml:space="preserve" text-anchor="start" x="464" y="-110" font-family="Helvetica,sans-Serif" font-size="10.00">inja::Environment::</text>
<text xml:space="preserve" text-anchor="middle" x="510.12" y="-97.25" font-family="Helvetica,sans-Serif" font-size="10.00">add_callback</text>
</a>
</g>
</g>
<!-- Node1&#45;&gt;Node2 -->
<g id="edge1_Node000001_Node000002" class="edge">
<title>Node1&#45;&gt;Node2</title>
<g id="a_edge1_Node000001_Node000002"><a xlink:title=" ">
<path fill="none" stroke="#63b8ff" d="M588.79,-93.06C580.58,-94.51 572.31,-95.96 564.38,-97.36"/>
<polygon fill="#63b8ff" stroke="#63b8ff" points="589.17,-96.55 598.41,-91.36 587.96,-89.65 589.17,-96.55"/>
</a>
</g>
</g>
<!-- Node7 -->
<g id="Node000007" class="node">
<title>Node7</title>
<g id="a_Node000007"><a xlink:href="classinja_1_1Environment.html#a3467986ae633a7c546a62c387b6c613f" target="_top" xlink:title="Adds a void callback with given number or arguments.">
<polygon fill="white" stroke="#666666" points="564.25,-71.5 456,-71.5 456,-38 564.25,-38 564.25,-71.5"/>
<text xml:space="preserve" text-anchor="start" x="464" y="-58" font-family="Helvetica,sans-Serif" font-size="10.00">inja::Environment::</text>
<text xml:space="preserve" text-anchor="middle" x="510.12" y="-45.25" font-family="Helvetica,sans-Serif" font-size="10.00">add_void_callback</text>
</a>
</g>
</g>
<!-- Node1&#45;&gt;Node7 -->
<g id="edge7_Node000001_Node000007" class="edge">
<title>Node1&#45;&gt;Node7</title>
<g id="a_edge7_Node000001_Node000007"><a xlink:title=" ">
<path fill="none" stroke="#63b8ff" d="M588.79,-68.44C580.58,-66.99 572.31,-65.54 564.38,-64.14"/>
<polygon fill="#63b8ff" stroke="#63b8ff" points="587.96,-71.85 598.41,-70.14 589.17,-64.95 587.96,-71.85"/>
</a>
</g>
</g>
<!-- Node3 -->
<g id="Node000003" class="node">
<title>Node3</title>
<g id="a_Node000003"><a xlink:href="classinja_1_1Environment.html#aacf2afb515ec7efb0b844174093fed6d" target="_top" xlink:title="Adds a variadic callback.">
<polygon fill="white" stroke="#666666" points="420,-161.5 311.75,-161.5 311.75,-128 420,-128 420,-161.5"/>
<text xml:space="preserve" text-anchor="start" x="319.75" y="-148" font-family="Helvetica,sans-Serif" font-size="10.00">inja::Environment::</text>
<text xml:space="preserve" text-anchor="middle" x="365.88" y="-135.25" font-family="Helvetica,sans-Serif" font-size="10.00">add_callback</text>
</a>
</g>
</g>
<!-- Node2&#45;&gt;Node3 -->
<g id="edge2_Node000002_Node000003" class="edge">
<title>Node2&#45;&gt;Node3</title>
<g id="a_edge2_Node000002_Node000003"><a xlink:title=" ">
<path fill="none" stroke="#63b8ff" d="M444.66,-123.97C436.43,-126.17 428.09,-128.4 420.07,-130.54"/>
<polygon fill="#63b8ff" stroke="#63b8ff" points="445.53,-127.36 454.29,-121.4 443.72,-120.6 445.53,-127.36"/>
</a>
</g>
</g>
<!-- Node4 -->
<g id="Node000004" class="node">
<title>Node4</title>
<g id="a_Node000004"><a xlink:href="classmqtt_1_1lib_1_1MqttMapper.html#ae244e3745588740bf513016cb0f06a74" target="_top" xlink:title=" ">
<polygon fill="white" stroke="#666666" points="275.75,-97.5 153.25,-97.5 153.25,-64 275.75,-64 275.75,-97.5"/>
<text xml:space="preserve" text-anchor="start" x="161.25" y="-84" font-family="Helvetica,sans-Serif" font-size="10.00">mqtt::lib::MqttMapper</text>
<text xml:space="preserve" text-anchor="middle" x="214.5" y="-71.25" font-family="Helvetica,sans-Serif" font-size="10.00">::MqttMapper</text>
</a>
</g>
</g>
<!-- Node2&#45;&gt;Node4 -->
<g id="edge6_Node000002_Node000004" class="edge">
<title>Node2&#45;&gt;Node4</title>
<g id="a_edge6_Node000002_Node000004"><a xlink:title=" ">
<path fill="none" stroke="#63b8ff" d="M444.26,-101.01C394.15,-96.57 325.29,-90.47 276.25,-86.13"/>
<polygon fill="#63b8ff" stroke="#63b8ff" points="443.83,-104.48 454.1,-101.88 444.45,-97.51 443.83,-104.48"/>
</a>
</g>
</g>
<!-- Node3&#45;&gt;Node4 -->
<g id="edge3_Node000003_Node000004" class="edge">
<title>Node3&#45;&gt;Node4</title>
<g id="a_edge3_Node000003_Node000004"><a xlink:title=" ">
<path fill="none" stroke="#63b8ff" d="M314.48,-123.16C295.31,-114.94 273.74,-105.7 255.64,-97.95"/>
<polygon fill="#63b8ff" stroke="#63b8ff" points="312.88,-126.28 323.45,-127 315.64,-119.85 312.88,-126.28"/>
</a>
</g>
</g>
<!-- Node5 -->
<g id="Node000005" class="node">
<title>Node5</title>
<g id="a_Node000005"><a xlink:href="classmqtt_1_1mqttbroker_1_1lib_1_1Mqtt.html#a183033437406ea7be6c978ab3153bad5" target="_top" xlink:title=" ">
<polygon fill="white" stroke="#666666" points="117.25,-123.5 0,-123.5 0,-90 117.25,-90 117.25,-123.5"/>
<text xml:space="preserve" text-anchor="start" x="8" y="-110" font-family="Helvetica,sans-Serif" font-size="10.00">mqtt::mqttbroker::lib</text>
<text xml:space="preserve" text-anchor="middle" x="58.62" y="-97.25" font-family="Helvetica,sans-Serif" font-size="10.00">::Mqtt::Mqtt</text>
</a>
</g>
</g>
<!-- Node4&#45;&gt;Node5 -->
<g id="edge4_Node000004_Node000005" class="edge">
<title>Node4&#45;&gt;Node5</title>
<g id="a_edge4_Node000004_Node000005"><a xlink:title=" ">
<path fill="none" stroke="#63b8ff" d="M142.03,-92.83C133.83,-94.21 125.55,-95.61 117.56,-96.96"/>
<polygon fill="#63b8ff" stroke="#63b8ff" points="142.36,-96.32 151.63,-91.2 141.19,-89.42 142.36,-96.32"/>
</a>
</g>
</g>
<!-- Node6 -->
<g id="Node000006" class="node">
<title>Node6</title>
<g id="a_Node000006"><a xlink:href="classmqtt_1_1mqttintegrator_1_1lib_1_1Mqtt.html#ad8c0b5a8b1ecd0e2eb8e54a2d186a5ae" target="_top" xlink:title=" ">
<polygon fill="white" stroke="#666666" points="116.88,-71.5 0.38,-71.5 0.38,-38 116.88,-38 116.88,-71.5"/>
<text xml:space="preserve" text-anchor="start" x="8.38" y="-58" font-family="Helvetica,sans-Serif" font-size="10.00">mqtt::mqttintegrator</text>
<text xml:space="preserve" text-anchor="middle" x="58.62" y="-45.25" font-family="Helvetica,sans-Serif" font-size="10.00">::lib::Mqtt::Mqtt</text>
</a>
</g>
</g>
<!-- Node4&#45;&gt;Node6 -->
<g id="edge5_Node000004_Node000006" class="edge">
<title>Node4&#45;&gt;Node6</title>
<g id="a_edge5_Node000004_Node000006"><a xlink:title=" ">
<path fill="none" stroke="#63b8ff" d="M141.95,-68.66C133.69,-67.27 125.35,-65.86 117.31,-64.5"/>
<polygon fill="#63b8ff" stroke="#63b8ff" points="141.19,-72.08 151.63,-70.3 142.36,-65.18 141.19,-72.08"/>
</a>
</g>
</g>
<!-- Node7&#45;&gt;Node4 -->
<g id="edge10_Node000007_Node000004" class="edge">
<title>Node7&#45;&gt;Node4</title>
<g id="a_edge10_Node000007_Node000004"><a xlink:title=" ">
<path fill="none" stroke="#63b8ff" d="M444.26,-60.49C394.15,-64.93 325.29,-71.03 276.25,-75.37"/>
<polygon fill="#63b8ff" stroke="#63b8ff" points="444.45,-63.99 454.1,-59.62 443.83,-57.02 444.45,-63.99"/>
</a>
</g>
</g>
<!-- Node8 -->
<g id="Node000008" class="node">
<title>Node8</title>
<g id="a_Node000008"><a xlink:href="classinja_1_1Environment.html#abf3676db94a59534d715e83f4d5e4940" target="_top" xlink:title="Adds a variadic void callback.">
<polygon fill="white" stroke="#666666" points="420,-33.5 311.75,-33.5 311.75,0 420,0 420,-33.5"/>
<text xml:space="preserve" text-anchor="start" x="319.75" y="-20" font-family="Helvetica,sans-Serif" font-size="10.00">inja::Environment::</text>
<text xml:space="preserve" text-anchor="middle" x="365.88" y="-7.25" font-family="Helvetica,sans-Serif" font-size="10.00">add_void_callback</text>
</a>
</g>
</g>
<!-- Node7&#45;&gt;Node8 -->
<g id="edge8_Node000007_Node000008" class="edge">
<title>Node7&#45;&gt;Node8</title>
<g id="a_edge8_Node000007_Node000008"><a xlink:title=" ">
<path fill="none" stroke="#63b8ff" d="M444.66,-37.53C436.43,-35.33 428.09,-33.1 420.07,-30.96"/>
<polygon fill="#63b8ff" stroke="#63b8ff" points="443.72,-40.9 454.29,-40.1 445.53,-34.14 443.72,-40.9"/>
</a>
</g>
</g>
<!-- Node8&#45;&gt;Node4 -->
<g id="edge9_Node000008_Node000004" class="edge">
<title>Node8&#45;&gt;Node4</title>
<g id="a_edge9_Node000008_Node000004"><a xlink:title=" ">
<path fill="none" stroke="#63b8ff" d="M314.48,-38.34C295.31,-46.56 273.74,-55.8 255.64,-63.55"/>
<polygon fill="#63b8ff" stroke="#63b8ff" points="315.64,-41.65 323.45,-34.5 312.88,-35.22 315.64,-41.65"/>
</a>
</g>
</g>
</g>
</svg>
