<?xml version="1.0" encoding="UTF-8" standalone="no"?>
<!DOCTYPE svg PUBLIC "-//W3C//DTD SVG 1.1//EN"
 "http://www.w3.org/Graphics/SVG/1.1/DTD/svg11.dtd">
<!-- Generated by graphviz version 14.1.2 (0)
 -->
<!-- Title: mqtt::mqttintegrator::lib::Mqtt::DelayedQueue::armDelayTimer Pages: 1 -->
<svg width="654pt" height="92pt"
 viewBox="0.00 0.00 654.00 92.00" xmlns="http://www.w3.org/2000/svg" xmlns:xlink="http://www.w3.org/1999/xlink">
<g id="graph0" class="graph" transform="scale(1 1) rotate(0) translate(4 87.88)">
<title>mqtt::mqttintegrator::lib::Mqtt::DelayedQueue::armDelayTimer</title>
<!-- Node1 -->
<g id="Node000001" class="node">
<title>Node1</title>
<g id="a_Node000001"><a xlink:title=" ">
<polygon fill="#999999" stroke="#666666" points="646,-49.25 505.5,-49.25 505.5,-3 646,-3 646,-49.25"/>
<text xml:space="preserve" text-anchor="start" x="513.5" y="-35.75" font-family="Helvetica,sans-Serif" font-size="10.00">mqtt::mqttintegrator</text>
<text xml:space="preserve" text-anchor="start" x="513.5" y="-23" font-family="Helvetica,sans-Serif" font-size="10.00">::lib::Mqtt::DelayedQueue</text>
<text xml:space="preserve" text-anchor="middle" x="575.75" y="-10.25" font-family="Helvetica,sans-Serif" font-size="10.00">::armDelayTimer</text>
</a>
</g>
</g>
<!-- Node1&#45;&gt;Node1 -->
<g id="edge1_Node000001_Node000001" class="edge">
<title>Node1&#45;&gt;Node1</title>
<g id="a_edge1_Node000001_Node000001"><a xlink:title=" ">
<path fill="none" stroke="#63b8ff" d="M604.78,-59.99C599.75,-64.36 590.08,-67.25 575.75,-67.25 551.62,-67.25 540.68,-59.05 542.95,-49.38"/>
<polygon fill="#63b8ff" stroke="#63b8ff" points="607.99,-61.4 608.05,-50.8 601.39,-59.05 607.99,-61.4"/>
</a>
</g>
</g>
<!-- Node2 -->
<g id="Node000002" class="node">
<title>Node2</title>
<g id="a_Node000002"><a xlink:href="classmqtt_1_1mqttintegrator_1_1lib_1_1Mqtt_1_1DelayedQueue.html#a95c8667b0cef676e6edcb1760ed4a7f9" target="_top" xlink:title=" ">
<polygon fill="white" stroke="#666666" points="469.5,-75.25 329,-75.25 329,-29 469.5,-29 469.5,-75.25"/>
<text xml:space="preserve" text-anchor="start" x="337" y="-61.75" font-family="Helvetica,sans-Serif" font-size="10.00">mqtt::mqttintegrator</text>
<text xml:space="preserve" text-anchor="start" x="337" y="-49" font-family="Helvetica,sans-Serif" font-size="10.00">::lib::Mqtt::DelayedQueue</text>
<text xml:space="preserve" text-anchor="middle" x="399.25" y="-36.25" font-family="Helvetica,sans-Serif" font-size="10.00">::delayPublish</text>
</a>
</g>
</g>
<!-- Node1&#45;&gt;Node2 -->
<g id="edge2_Node000001_Node000002" class="edge">
<title>Node1&#45;&gt;Node2</title>
<g id="a_edge2_Node000001_Node000002"><a xlink:title=" ">
<path fill="none" stroke="#63b8ff" d="M493.8,-38.19C485.8,-39.38 477.73,-40.58 469.86,-41.75"/>
<polygon fill="#63b8ff" stroke="#63b8ff" points="494.16,-41.67 503.53,-36.74 493.13,-34.75 494.16,-41.67"/>
</a>
</g>
</g>
<!-- Node3 -->
<g id="Node000003" class="node">
<title>Node3</title>
<g id="a_Node000003"><a xlink:href="classmqtt_1_1mqttintegrator_1_1lib_1_1Mqtt.html#a211408365844787ce77340f454b9cbd0" target="_top" xlink:title=" ">
<polygon fill="white" stroke="#666666" points="293,-65.88 176.5,-65.88 176.5,-32.38 293,-32.38 293,-65.88"/>
<text xml:space="preserve" text-anchor="start" x="184.5" y="-52.38" font-family="Helvetica,sans-Serif" font-size="10.00">mqtt::mqttintegrator</text>
<text xml:space="preserve" text-anchor="middle" x="234.75" y="-39.62" font-family="Helvetica,sans-Serif" font-size="10.00">::lib::Mqtt::onPublish</text>
</a>
</g>
</g>
<!-- Node2&#45;&gt;Node3 -->
<g id="edge3_Node000002_Node000003" class="edge">
<title>Node2&#45;&gt;Node3</title>
<g id="a_edge3_Node000002_Node000003"><a xlink:title=" ">
<path fill="none" stroke="#63b8ff" d="M317.44,-50.63C309.33,-50.48 301.21,-50.33 293.41,-50.19"/>
<polygon fill="#63b8ff" stroke="#63b8ff" points="317.29,-54.13 327.35,-50.82 317.42,-47.13 317.29,-54.13"/>
</a>
</g>
</g>
<!-- Node3&#45;&gt;Node3 -->
<g id="edge4_Node000003_Node000003" class="edge">
<title>Node3&#45;&gt;Node3</title>
<g id="a_edge4_Node000003_Node000003"><a xlink:title=" ">
<path fill="none" stroke="#63b8ff" d="M262.37,-77.26C257.87,-81.22 248.67,-83.88 234.75,-83.88 210.01,-83.88 200.15,-75.49 205.18,-66.29"/>
<polygon fill="#63b8ff" stroke="#63b8ff" points="265.75,-78.24 264.06,-67.78 258.86,-77.01 265.75,-78.24"/>
</a>
</g>
</g>
<!-- Node4 -->
<g id="Node000004" class="node">
<title>Node4</title>
<g id="a_Node000004"><a xlink:href="classmqtt_1_1mqttintegrator_1_1lib_1_1Mqtt_1_1DelayedQueue.html#ad8803a587bf94d106c9a501c01ac8ea8" target="_top" xlink:title=" ">
<polygon fill="white" stroke="#666666" points="140.5,-46.25 0,-46.25 0,0 140.5,0 140.5,-46.25"/>
<text xml:space="preserve" text-anchor="start" x="8" y="-32.75" font-family="Helvetica,sans-Serif" font-size="10.00">mqtt::mqttintegrator</text>
<text xml:space="preserve" text-anchor="start" x="8" y="-20" font-family="Helvetica,sans-Serif" font-size="10.00">::lib::Mqtt::DelayedQueue</text>
<text xml:space="preserve" text-anchor="middle" x="70.25" y="-7.25" font-family="Helvetica,sans-Serif" font-size="10.00">::processDue</text>
</a>
</g>
</g>
<!-- Node3&#45;&gt;Node4 -->
<g id="edge5_Node000003_Node000004" class="edge">
<title>Node3&#45;&gt;Node4</title>
<g id="a_edge5_Node000003_Node000004"><a xlink:title=" ">
<path fill="none" stroke="#63b8ff" d="M164.87,-38.1C156.89,-36.83 148.76,-35.53 140.77,-34.25"/>
<polygon fill="#63b8ff" stroke="#63b8ff" points="164.08,-41.52 174.51,-39.65 165.19,-34.61 164.08,-41.52"/>
</a>
</g>
</g>
<!-- Node4&#45;&gt;Node1 -->
<g id="edge6_Node000004_Node000001" class="edge">
<title>Node4&#45;&gt;Node1</title>
<g id="a_edge6_Node000004_Node000001"><a xlink:title=" ">
<path fill="none" stroke="#63b8ff" d="M151.73,-20.82C232.18,-18.92 359.43,-16.99 469.5,-20.12 481.03,-20.45 493.25,-20.98 505.14,-21.6"/>
<polygon fill="#63b8ff" stroke="#63b8ff" points="152.12,-17.31 142.2,-21.05 152.29,-24.31 152.12,-17.31"/>
</a>
</g>
</g>
</g>
</svg>
