<?xml version="1.0" encoding="UTF-8" standalone="no"?>
<!DOCTYPE svg PUBLIC "-//W3C//DTD SVG 1.1//EN"
 "http://www.w3.org/Graphics/SVG/1.1/DTD/svg11.dtd">
<!-- Generated by graphviz version 14.1.1 (0)
 -->
<!-- Title: inja::FunctionStorage::find_function Pages: 1 -->
<svg width="1007pt" height="293pt"
 viewBox="0.00 0.00 1007.00 293.00" xmlns="http://www.w3.org/2000/svg" xmlns:xlink="http://www.w3.org/1999/xlink">
<g id="graph0" class="graph" transform="scale(1 1) rotate(0) translate(4 289.12)">
<title>inja::FunctionStorage::find_function</title>
<!-- Node1 -->
<g id="Node000001" class="node">
<title>Node1</title>
<g id="a_Node000001"><a xlink:title=" ">
<polygon fill="#999999" stroke="#666666" points="999.25,-49.12 880.5,-49.12 880.5,-15.62 999.25,-15.62 999.25,-49.12"/>
<text xml:space="preserve" text-anchor="start" x="888.5" y="-35.62" font-family="Helvetica,sans-Serif" font-size="10.00">inja::FunctionStorage</text>
<text xml:space="preserve" text-anchor="middle" x="939.88" y="-22.88" font-family="Helvetica,sans-Serif" font-size="10.00">::find_function</text>
</a>
</g>
</g>
<!-- Node2 -->
<g id="Node000002" class="node">
<title>Node2</title>
<g id="a_Node000002"><a xlink:href="classinja_1_1Parser.html#a7dda6b9f4295c215e097f45d573d8d69" target="_top" xlink:title=" ">
<polygon fill="white" stroke="#666666" points="840.75,-72.12 737,-72.12 737,-38.62 840.75,-38.62 840.75,-72.12"/>
<text xml:space="preserve" text-anchor="start" x="745" y="-58.62" font-family="Helvetica,sans-Serif" font-size="10.00">inja::Parser::parse</text>
<text xml:space="preserve" text-anchor="middle" x="788.88" y="-45.88" font-family="Helvetica,sans-Serif" font-size="10.00">_expression</text>
</a>
</g>
</g>
<!-- Node1&#45;&gt;Node2 -->
<g id="edge1_Node000001_Node000002" class="edge">
<title>Node1&#45;&gt;Node2</title>
<g id="a_edge1_Node000001_Node000002"><a xlink:title=" ">
<path fill="none" stroke="#63b8ff" d="M869.28,-43.12C859.72,-44.59 850.06,-46.08 840.92,-47.5"/>
<polygon fill="#63b8ff" stroke="#63b8ff" points="869.57,-46.61 878.92,-41.63 868.5,-39.7 869.57,-46.61"/>
</a>
</g>
</g>
<!-- Node15 -->
<g id="Node000015" class="node">
<title>Node15</title>
<g id="a_Node000015"><a xlink:href="classinja_1_1Renderer.html#a27d4b44bb4ff03a84b1a86b6fcc0d9e5" target="_top" xlink:title=" ">
<polygon fill="white" stroke="#666666" points="844.5,-20.75 733.25,-20.75 733.25,0 844.5,0 844.5,-20.75"/>
<text xml:space="preserve" text-anchor="middle" x="788.88" y="-7.25" font-family="Helvetica,sans-Serif" font-size="10.00">inja::Renderer::visit</text>
</a>
</g>
</g>
<!-- Node1&#45;&gt;Node15 -->
<g id="edge17_Node000001_Node000015" class="edge">
<title>Node1&#45;&gt;Node15</title>
<g id="a_edge17_Node000001_Node000015"><a xlink:title=" ">
<path fill="none" stroke="#63b8ff" d="M869.28,-22.1C861.05,-20.88 852.75,-19.66 844.76,-18.48"/>
<polygon fill="#63b8ff" stroke="#63b8ff" points="868.51,-25.52 878.92,-23.52 869.54,-18.6 868.51,-25.52"/>
</a>
</g>
</g>
<!-- Node2&#45;&gt;Node2 -->
<g id="edge2_Node000002_Node000002" class="edge">
<title>Node2&#45;&gt;Node2</title>
<g id="a_edge2_Node000002_Node000002"><a xlink:title=" ">
<path fill="none" stroke="#63b8ff" d="M812.63,-83.84C808.6,-87.62 800.68,-90.12 788.88,-90.12 767.29,-90.12 758.7,-81.74 763.08,-72.54"/>
<polygon fill="#63b8ff" stroke="#63b8ff" points="816.07,-84.49 814.4,-74.03 809.18,-83.25 816.07,-84.49"/>
</a>
</g>
</g>
<!-- Node3 -->
<g id="Node000003" class="node">
<title>Node3</title>
<g id="a_Node000003"><a xlink:href="classinja_1_1Parser.html#aeb66164c89e8c71cae3c93c24d7c7be2" target="_top" xlink:title=" ">
<polygon fill="white" stroke="#666666" points="697.25,-72.12 593.5,-72.12 593.5,-38.62 697.25,-38.62 697.25,-72.12"/>
<text xml:space="preserve" text-anchor="start" x="601.5" y="-58.62" font-family="Helvetica,sans-Serif" font-size="10.00">inja::Parser::parse</text>
<text xml:space="preserve" text-anchor="middle" x="645.38" y="-45.88" font-family="Helvetica,sans-Serif" font-size="10.00">_expression</text>
</a>
</g>
</g>
<!-- Node2&#45;&gt;Node3 -->
<g id="edge3_Node000002_Node000003" class="edge">
<title>Node2&#45;&gt;Node3</title>
<g id="a_edge3_Node000002_Node000003"><a xlink:title=" ">
<path fill="none" stroke="#63b8ff" d="M725.48,-55.38C716.09,-55.38 706.5,-55.38 697.38,-55.38"/>
<polygon fill="#63b8ff" stroke="#63b8ff" points="725.28,-58.88 735.28,-55.38 725.28,-51.88 725.28,-58.88"/>
</a>
</g>
</g>
<!-- Node4 -->
<g id="Node000004" class="node">
<title>Node4</title>
<g id="a_Node000004"><a xlink:href="classinja_1_1Parser.html#a9a561141f71073df671b2b7ecb4608ba" target="_top" xlink:title=" ">
<polygon fill="white" stroke="#666666" points="557.5,-106.75 429.75,-106.75 429.75,-86 557.5,-86 557.5,-106.75"/>
<text xml:space="preserve" text-anchor="middle" x="493.62" y="-93.25" font-family="Helvetica,sans-Serif" font-size="10.00">inja::Parser::parse_into</text>
</a>
</g>
</g>
<!-- Node3&#45;&gt;Node4 -->
<g id="edge4_Node000003_Node000004" class="edge">
<title>Node3&#45;&gt;Node4</title>
<g id="a_edge4_Node000003_Node000004"><a xlink:title=" ">
<path fill="none" stroke="#63b8ff" d="M582.18,-72.4C565.94,-76.85 548.87,-81.52 534.17,-85.55"/>
<polygon fill="#63b8ff" stroke="#63b8ff" points="583.08,-75.79 591.8,-69.77 581.23,-69.03 583.08,-75.79"/>
</a>
</g>
</g>
<!-- Node11 -->
<g id="Node000011" class="node">
<title>Node11</title>
<g id="a_Node000011"><a xlink:href="classinja_1_1Parser.html#a5a26bdcce0ae076bf010ee7442d8928e" target="_top" xlink:title=" ">
<polygon fill="white" stroke="#666666" points="106,-91.12 2.25,-91.12 2.25,-57.62 106,-57.62 106,-91.12"/>
<text xml:space="preserve" text-anchor="start" x="10.25" y="-77.62" font-family="Helvetica,sans-Serif" font-size="10.00">inja::Parser::parse</text>
<text xml:space="preserve" text-anchor="middle" x="54.12" y="-64.88" font-family="Helvetica,sans-Serif" font-size="10.00">_statement</text>
</a>
</g>
</g>
<!-- Node3&#45;&gt;Node11 -->
<g id="edge16_Node000003_Node000011" class="edge">
<title>Node3&#45;&gt;Node11</title>
<g id="a_edge16_Node000003_Node000011"><a xlink:title=" ">
<path fill="none" stroke="#63b8ff" d="M581.86,-57.39C464.69,-61.17 214.15,-69.25 106.27,-72.73"/>
<polygon fill="#63b8ff" stroke="#63b8ff" points="581.72,-60.9 591.6,-57.08 581.49,-53.9 581.72,-60.9"/>
</a>
</g>
</g>
<!-- Node5 -->
<g id="Node000005" class="node">
<title>Node5</title>
<g id="a_Node000005"><a xlink:href="classinja_1_1Parser.html#a0f1312b0bf8691aba6cc4590169902fc" target="_top" xlink:title=" ">
<polygon fill="white" stroke="#666666" points="393.75,-203.75 290,-203.75 290,-183 393.75,-183 393.75,-203.75"/>
<text xml:space="preserve" text-anchor="middle" x="341.88" y="-190.25" font-family="Helvetica,sans-Serif" font-size="10.00">inja::Parser::parse</text>
</a>
</g>
</g>
<!-- Node4&#45;&gt;Node5 -->
<g id="edge5_Node000004_Node000005" class="edge">
<title>Node4&#45;&gt;Node5</title>
<g id="a_edge5_Node000004_Node000005"><a xlink:title=" ">
<path fill="none" stroke="#63b8ff" d="M466.39,-113.37C435.6,-133.32 385.46,-165.79 359.55,-182.58"/>
<polygon fill="#63b8ff" stroke="#63b8ff" points="468.27,-116.32 474.76,-107.95 464.46,-110.45 468.27,-116.32"/>
</a>
</g>
</g>
<!-- Node9 -->
<g id="Node000009" class="node">
<title>Node9</title>
<g id="a_Node000009"><a xlink:href="classinja_1_1Parser.html#a8c6a03b6665745f216ba86f5e514a913" target="_top" xlink:title=" ">
<polygon fill="white" stroke="#666666" points="393.75,-136.12 290,-136.12 290,-102.62 393.75,-102.62 393.75,-136.12"/>
<text xml:space="preserve" text-anchor="start" x="298" y="-122.62" font-family="Helvetica,sans-Serif" font-size="10.00">inja::Parser::parse</text>
<text xml:space="preserve" text-anchor="middle" x="341.88" y="-109.88" font-family="Helvetica,sans-Serif" font-size="10.00">_into_template</text>
</a>
</g>
</g>
<!-- Node4&#45;&gt;Node9 -->
<g id="edge9_Node000004_Node000009" class="edge">
<title>Node4&#45;&gt;Node9</title>
<g id="a_edge9_Node000004_Node000009"><a xlink:title=" ">
<path fill="none" stroke="#63b8ff" d="M418.38,-107.78C410.16,-109.04 401.92,-110.31 394.07,-111.51"/>
<polygon fill="#63b8ff" stroke="#63b8ff" points="418.7,-111.27 428.06,-106.29 417.64,-104.35 418.7,-111.27"/>
</a>
</g>
</g>
<!-- Node6 -->
<g id="Node000006" class="node">
<title>Node6</title>
<g id="a_Node000006"><a xlink:href="classinja_1_1Environment.html#a8421b8d61fc4de15f29c909bd7154f92" target="_top" xlink:title=" ">
<polygon fill="white" stroke="#666666" points="253.25,-240.12 145,-240.12 145,-206.62 253.25,-206.62 253.25,-240.12"/>
<text xml:space="preserve" text-anchor="start" x="153" y="-226.62" font-family="Helvetica,sans-Serif" font-size="10.00">inja::Environment::</text>
<text xml:space="preserve" text-anchor="middle" x="199.12" y="-213.88" font-family="Helvetica,sans-Serif" font-size="10.00">parse</text>
</a>
</g>
</g>
<!-- Node5&#45;&gt;Node6 -->
<g id="edge6_Node000005_Node000006" class="edge">
<title>Node5&#45;&gt;Node6</title>
<g id="a_edge6_Node000005_Node000006"><a xlink:title=" ">
<path fill="none" stroke="#63b8ff" d="M279.08,-206.55C270.63,-208.35 262.01,-210.19 253.71,-211.95"/>
<polygon fill="#63b8ff" stroke="#63b8ff" points="279.53,-210.03 288.58,-204.52 278.07,-203.18 279.53,-210.03"/>
</a>
</g>
</g>
<!-- Node7 -->
<g id="Node000007" class="node">
<title>Node7</title>
<g id="a_Node000007"><a xlink:href="classinja_1_1Environment.html#aac36e0cfdc9e7926914e46c0cd1caada" target="_top" xlink:title=" ">
<polygon fill="white" stroke="#666666" points="108.25,-285.12 0,-285.12 0,-251.62 108.25,-251.62 108.25,-285.12"/>
<text xml:space="preserve" text-anchor="start" x="8" y="-271.62" font-family="Helvetica,sans-Serif" font-size="10.00">inja::Environment::</text>
<text xml:space="preserve" text-anchor="middle" x="54.12" y="-258.88" font-family="Helvetica,sans-Serif" font-size="10.00">render</text>
</a>
</g>
</g>
<!-- Node6&#45;&gt;Node7 -->
<g id="edge7_Node000006_Node000007" class="edge">
<title>Node6&#45;&gt;Node7</title>
<g id="a_edge7_Node000006_Node000007"><a xlink:title=" ">
<path fill="none" stroke="#63b8ff" d="M134.12,-243.52C125.53,-246.22 116.79,-248.97 108.42,-251.6"/>
<polygon fill="#63b8ff" stroke="#63b8ff" points="134.95,-246.93 143.43,-240.59 132.84,-240.25 134.95,-246.93"/>
</a>
</g>
</g>
<!-- Node8 -->
<g id="Node000008" class="node">
<title>Node8</title>
<g id="a_Node000008"><a xlink:href="namespaceinja.html#a996f16f78b37d05e19cf44ac74d83e7e" target="_top" xlink:title="render with default settings to the given output stream">
<polygon fill="white" stroke="#666666" points="97.38,-233.75 10.88,-233.75 10.88,-213 97.38,-213 97.38,-233.75"/>
<text xml:space="preserve" text-anchor="middle" x="54.12" y="-220.25" font-family="Helvetica,sans-Serif" font-size="10.00">inja::render_to</text>
</a>
</g>
</g>
<!-- Node6&#45;&gt;Node8 -->
<g id="edge8_Node000006_Node000008" class="edge">
<title>Node6&#45;&gt;Node8</title>
<g id="a_edge8_Node000006_Node000008"><a xlink:title=" ">
<path fill="none" stroke="#63b8ff" d="M133.4,-223.38C121.29,-223.38 108.93,-223.38 97.7,-223.38"/>
<polygon fill="#63b8ff" stroke="#63b8ff" points="133.36,-226.88 143.36,-223.38 133.36,-219.88 133.36,-226.88"/>
</a>
</g>
</g>
<!-- Node10 -->
<g id="Node000010" class="node">
<title>Node10</title>
<g id="a_Node000010"><a xlink:href="classinja_1_1Parser.html#ae1cebbe51ef6a93fc3d448263f9bf1e3" target="_top" xlink:title=" ">
<polygon fill="white" stroke="#666666" points="254,-136.12 144.25,-136.12 144.25,-102.62 254,-102.62 254,-136.12"/>
<text xml:space="preserve" text-anchor="start" x="152.25" y="-122.62" font-family="Helvetica,sans-Serif" font-size="10.00">inja::Parser::add_to</text>
<text xml:space="preserve" text-anchor="middle" x="199.12" y="-109.88" font-family="Helvetica,sans-Serif" font-size="10.00">_template_storage</text>
</a>
</g>
</g>
<!-- Node9&#45;&gt;Node10 -->
<g id="edge10_Node000009_Node000010" class="edge">
<title>Node9&#45;&gt;Node10</title>
<g id="a_edge10_Node000009_Node000010"><a xlink:title=" ">
<path fill="none" stroke="#63b8ff" d="M278.18,-119.38C270.24,-119.38 262.17,-119.38 254.38,-119.38"/>
<polygon fill="#63b8ff" stroke="#63b8ff" points="278.15,-122.88 288.15,-119.38 278.15,-115.88 278.15,-122.88"/>
</a>
</g>
</g>
<!-- Node12 -->
<g id="Node000012" class="node">
<title>Node12</title>
<g id="a_Node000012"><a xlink:href="classinja_1_1Environment.html#aa46ccc27cc803933e0bfc9f58bba389c" target="_top" xlink:title=" ">
<polygon fill="white" stroke="#666666" points="253.25,-188.12 145,-188.12 145,-154.62 253.25,-154.62 253.25,-188.12"/>
<text xml:space="preserve" text-anchor="start" x="153" y="-174.62" font-family="Helvetica,sans-Serif" font-size="10.00">inja::Environment::</text>
<text xml:space="preserve" text-anchor="middle" x="199.12" y="-161.88" font-family="Helvetica,sans-Serif" font-size="10.00">parse_template</text>
</a>
</g>
</g>
<!-- Node9&#45;&gt;Node12 -->
<g id="edge13_Node000009_Node000012" class="edge">
<title>Node9&#45;&gt;Node12</title>
<g id="a_edge13_Node000009_Node000012"><a xlink:title=" ">
<path fill="none" stroke="#63b8ff" d="M283.72,-140.49C271.36,-145.06 258.44,-149.83 246.55,-154.22"/>
<polygon fill="#63b8ff" stroke="#63b8ff" points="284.81,-143.82 292.98,-137.07 282.39,-137.25 284.81,-143.82"/>
</a>
</g>
</g>
<!-- Node10&#45;&gt;Node11 -->
<g id="edge11_Node000010_Node000011" class="edge">
<title>Node10&#45;&gt;Node11</title>
<g id="a_edge11_Node000010_Node000011"><a xlink:title=" ">
<path fill="none" stroke="#63b8ff" d="M133.22,-98.95C124.24,-96.12 115.12,-93.25 106.43,-90.52"/>
<polygon fill="#63b8ff" stroke="#63b8ff" points="132.03,-102.24 142.62,-101.91 134.13,-95.57 132.03,-102.24"/>
</a>
</g>
</g>
<!-- Node11&#45;&gt;Node4 -->
<g id="edge12_Node000011_Node000004" class="edge">
<title>Node11&#45;&gt;Node4</title>
<g id="a_edge12_Node000011_Node000004"><a xlink:title=" ">
<path fill="none" stroke="#63b8ff" d="M117.58,-77.52C200.52,-81.69 346.19,-89.01 429.48,-93.2"/>
<polygon fill="#63b8ff" stroke="#63b8ff" points="117.99,-74.03 107.82,-77.02 117.63,-81.02 117.99,-74.03"/>
</a>
</g>
</g>
<!-- Node13 -->
<g id="Node000013" class="node">
<title>Node13</title>
<g id="a_Node000013"><a xlink:href="classinja_1_1Environment.html#a988701e4eb7fef51f2a3bd5ec74dd156" target="_top" xlink:title=" ">
<polygon fill="white" stroke="#666666" points="108.25,-195.12 0,-195.12 0,-161.62 108.25,-161.62 108.25,-195.12"/>
<text xml:space="preserve" text-anchor="start" x="8" y="-181.62" font-family="Helvetica,sans-Serif" font-size="10.00">inja::Environment::</text>
<text xml:space="preserve" text-anchor="middle" x="54.12" y="-168.88" font-family="Helvetica,sans-Serif" font-size="10.00">parse_file</text>
</a>
</g>
</g>
<!-- Node12&#45;&gt;Node13 -->
<g id="edge14_Node000012_Node000013" class="edge">
<title>Node12&#45;&gt;Node13</title>
<g id="a_edge14_Node000012_Node000013"><a xlink:title=" ">
<path fill="none" stroke="#63b8ff" d="M133.54,-174.54C125.14,-174.95 116.61,-175.37 108.42,-175.77"/>
<polygon fill="#63b8ff" stroke="#63b8ff" points="133.55,-178.04 143.37,-174.06 133.21,-171.05 133.55,-178.04"/>
</a>
</g>
</g>
<!-- Node14 -->
<g id="Node000014" class="node">
<title>Node14</title>
<g id="a_Node000014"><a xlink:href="classinja_1_1Environment.html#aaefdd9061b23f1764056689fe8c31e30" target="_top" xlink:title=" ">
<polygon fill="white" stroke="#666666" points="108.25,-143.12 0,-143.12 0,-109.62 108.25,-109.62 108.25,-143.12"/>
<text xml:space="preserve" text-anchor="start" x="8" y="-129.62" font-family="Helvetica,sans-Serif" font-size="10.00">inja::Environment::</text>
<text xml:space="preserve" text-anchor="middle" x="54.12" y="-116.88" font-family="Helvetica,sans-Serif" font-size="10.00">render_file</text>
</a>
</g>
</g>
<!-- Node12&#45;&gt;Node14 -->
<g id="edge15_Node000012_Node000014" class="edge">
<title>Node12&#45;&gt;Node14</title>
<g id="a_edge15_Node000012_Node000014"><a xlink:title=" ">
<path fill="none" stroke="#63b8ff" d="M134.12,-151.23C125.53,-148.53 116.79,-145.78 108.42,-143.15"/>
<polygon fill="#63b8ff" stroke="#63b8ff" points="132.84,-154.5 143.43,-154.16 134.95,-147.82 132.84,-154.5"/>
</a>
</g>
</g>
</g>
</svg>
