<?xml version="1.0" encoding="UTF-8" standalone="no"?>
<!DOCTYPE svg PUBLIC "-//W3C//DTD SVG 1.1//EN"
 "http://www.w3.org/Graphics/SVG/1.1/DTD/svg11.dtd">
<!-- Generated by graphviz version 14.1.2 (0)
 -->
<!-- Title: mqtt::bridge::lib::SSEDistributor::timePointToString Pages: 1 -->
<!--zoomable 742 -->

<svg id="main" version="1.1" xmlns="http://www.w3.org/2000/svg" xmlns:xlink="http://www.w3.org/1999/xlink" xml:space="preserve" onload="init(evt)">

<style type="text/css"><![CDATA[
.node, .edge {opacity: 0.7;}
.node.selected, .edge.selected {opacity: 1;}
.edge:hover path { stroke: red; }
.edge:hover polygon { stroke: red; fill: red; }
]]></style>

<defs>
  <circle id="rim" cx="0" cy="0" r="7"/>
  <circle id="rim2" cx="0" cy="0" r="3.5"/>
  <g id="zoomPlus">
    <use xlink:href="#rim" fill="#404040"><set attributeName="fill" to="#808080" begin="zoomplus.mouseover" end="zoomplus.mouseout"/></use>
    <path d="M-4,0h8M0,-4v8" fill="none" stroke="white" stroke-width="1.5" pointer-events="none"/>
  </g>
  <g id="zoomMin">
    <use xlink:href="#rim" fill="#404040"><set attributeName="fill" to="#808080" begin="zoomminus.mouseover" end="zoomminus.mouseout"/></use>
    <path d="M-4,0h8" fill="none" stroke="white" stroke-width="1.5" pointer-events="none"/>
  </g>
  <g id="arrowUp" transform="translate(30 24)">
    <use xlink:href="#rim"/>
    <path pointer-events="none" fill="none" stroke="white" stroke-width="1.5" d="M0,-3.0v7 M-2.5,-0.5L0,-3.0L2.5,-0.5"/>
  </g>
  <g id="arrowRight" transform="rotate(90) translate(36 -43)">
    <use xlink:href="#rim"/>
    <path pointer-events="none" fill="none" stroke="white" stroke-width="1.5" d="M0,-3.0v7 M-2.5,-0.5L0,-3.0L2.5,-0.5"/>
  </g>
  <g id="arrowDown" transform="rotate(180) translate(-30 -48)">
    <use xlink:href="#rim"/>
    <path pointer-events="none" fill="none" stroke="white" stroke-width="1.5" d="M0,-3.0v7 M-2.5,-0.5L0,-3.0L2.5,-0.5"/>
  </g>
  <g id="arrowLeft" transform="rotate(270) translate(-36 17)">
    <use xlink:href="#rim"/>
    <path pointer-events="none" fill="none" stroke="white" stroke-width="1.5" d="M0,-3.0v7 M-2.5,-0.5L0,-3.0L2.5,-0.5"/>
  </g>
  <g id="resetDef">
    <use xlink:href="#rim2" fill="#404040"><set attributeName="fill" to="#808080" begin="reset.mouseover" end="reset.mouseout"/></use>
  </g>
</defs>
<script type="application/ecmascript">
var viewWidth = 947;
var viewHeight = 742;
var sectionId = 'dynsection-33';
</script>
<script type="application/ecmascript" xlink:href="svg.min.js"/>
<svg id="graph" class="graph">
<g id="viewport">
<title>mqtt::bridge::lib::SSEDistributor::timePointToString</title>
<!-- Node1 -->
<g id="Node000001" class="node">
<title>Node1</title>
<g id="a_Node000001"><a xlink:title=" ">
<polygon fill="#999999" stroke="#666666" points="938.75,-389.88 789.25,-389.88 789.25,-343.62 938.75,-343.62 938.75,-389.88"/>
<text xml:space="preserve" text-anchor="start" x="797.25" y="-376.38" font-family="Helvetica,sans-Serif" font-size="10.00">mqtt::bridge::lib::</text>
<text xml:space="preserve" text-anchor="start" x="797.25" y="-363.62" font-family="Helvetica,sans-Serif" font-size="10.00">SSEDistributor::timePointTo</text>
<text xml:space="preserve" text-anchor="middle" x="864" y="-350.88" font-family="Helvetica,sans-Serif" font-size="10.00">String</text>
</a>
</g>
</g>
<!-- Node2 -->
<g id="Node000002" class="node">
<title>Node2</title>
<g id="a_Node000002"><a xlink:href="classmqtt_1_1bridge_1_1lib_1_1SSEDistributor.html#a92417b5c17494511d8e64c8f8c122ebf" target="_top" xlink:title=" ">
<polygon fill="white" stroke="#666666" points="740.12,-733.5 574.88,-733.5 574.88,-700 740.12,-700 740.12,-733.5"/>
<text xml:space="preserve" text-anchor="start" x="582.88" y="-720" font-family="Helvetica,sans-Serif" font-size="10.00">mqtt::bridge::lib::</text>
<text xml:space="preserve" text-anchor="middle" x="657.5" y="-707.25" font-family="Helvetica,sans-Serif" font-size="10.00">SSEDistributor::bridgeDisabled</text>
</a>
</g>
</g>
<!-- Node1&#45;&gt;Node2 -->
<g id="edge1_Node000001_Node000002" class="edge">
<title>Node1&#45;&gt;Node2</title>
<g id="a_edge1_Node000001_Node000002"><a xlink:title=" ">
<path fill="none" stroke="#63b8ff" d="M860.92,-401.27C855.16,-466.1 833.58,-606.63 753.25,-685.75 747.58,-691.34 740.88,-695.92 733.72,-699.67"/>
<polygon fill="#63b8ff" stroke="#63b8ff" points="864.39,-401.84 861.7,-391.59 857.41,-401.28 864.39,-401.84"/>
</a>
</g>
</g>
<!-- Node3 -->
<g id="Node000003" class="node">
<title>Node3</title>
<g id="a_Node000003"><a xlink:href="classmqtt_1_1bridge_1_1lib_1_1SSEDistributor.html#a92c4668cbdeebc4aecf11bbfed1f8228" target="_top" xlink:title=" ">
<polygon fill="white" stroke="#666666" points="525.75,-364.5 362.75,-364.5 362.75,-331 525.75,-331 525.75,-364.5"/>
<text xml:space="preserve" text-anchor="start" x="370.75" y="-351" font-family="Helvetica,sans-Serif" font-size="10.00">mqtt::bridge::lib::</text>
<text xml:space="preserve" text-anchor="middle" x="444.25" y="-338.25" font-family="Helvetica,sans-Serif" font-size="10.00">SSEDistributor::bridgesStarted</text>
</a>
</g>
</g>
<!-- Node1&#45;&gt;Node3 -->
<g id="edge2_Node000001_Node000003" class="edge">
<title>Node1&#45;&gt;Node3</title>
<g id="a_edge2_Node000001_Node000003"><a xlink:title=" ">
<path fill="none" stroke="#63b8ff" d="M777.82,-344.54C769.56,-343 761.27,-341.69 753.25,-340.75 676.48,-331.78 588.25,-335.17 525.95,-339.82"/>
<polygon fill="#63b8ff" stroke="#63b8ff" points="777.06,-347.95 787.55,-346.47 778.42,-341.09 777.06,-347.95"/>
</a>
</g>
</g>
<!-- Node6 -->
<g id="Node000006" class="node">
<title>Node6</title>
<g id="a_Node000006"><a xlink:href="classmqtt_1_1bridge_1_1lib_1_1SSEDistributor.html#a3f47e7576666040c3dfd635a7c83ee5e" target="_top" xlink:title=" ">
<polygon fill="white" stroke="#666666" points="744.25,-643.5 570.75,-643.5 570.75,-610 744.25,-610 744.25,-643.5"/>
<text xml:space="preserve" text-anchor="start" x="578.75" y="-630" font-family="Helvetica,sans-Serif" font-size="10.00">mqtt::bridge::lib::</text>
<text xml:space="preserve" text-anchor="middle" x="657.5" y="-617.25" font-family="Helvetica,sans-Serif" font-size="10.00">SSEDistributor::bridgesStartedAt</text>
</a>
</g>
</g>
<!-- Node1&#45;&gt;Node6 -->
<g id="edge5_Node000001_Node000006" class="edge">
<title>Node1&#45;&gt;Node6</title>
<g id="a_edge5_Node000001_Node000006"><a xlink:title=" ">
<path fill="none" stroke="#63b8ff" d="M856.33,-401.45C844.63,-452.72 815.49,-548.32 753.25,-600.75 749.21,-604.16 744.75,-607.12 740.05,-609.7"/>
<polygon fill="#63b8ff" stroke="#63b8ff" points="859.72,-402.31 858.43,-391.79 852.88,-400.82 859.72,-402.31"/>
</a>
</g>
</g>
<!-- Node7 -->
<g id="Node000007" class="node">
<title>Node7</title>
<g id="a_Node000007"><a xlink:href="classmqtt_1_1bridge_1_1lib_1_1SSEDistributor.html#a2b97b3e1b7139a536dc1d9a7192bb9de" target="_top" xlink:title=" ">
<polygon fill="white" stroke="#666666" points="740.5,-591.5 574.5,-591.5 574.5,-558 740.5,-558 740.5,-591.5"/>
<text xml:space="preserve" text-anchor="start" x="582.5" y="-578" font-family="Helvetica,sans-Serif" font-size="10.00">mqtt::bridge::lib::</text>
<text xml:space="preserve" text-anchor="middle" x="657.5" y="-565.25" font-family="Helvetica,sans-Serif" font-size="10.00">SSEDistributor::bridgesStarting</text>
</a>
</g>
</g>
<!-- Node1&#45;&gt;Node7 -->
<g id="edge6_Node000001_Node000007" class="edge">
<title>Node1&#45;&gt;Node7</title>
<g id="a_edge6_Node000001_Node000007"><a xlink:title=" ">
<path fill="none" stroke="#63b8ff" d="M851.46,-400.81C835.74,-442.02 803.64,-510.6 753.25,-548.75 748.76,-552.15 743.86,-555.1 738.72,-557.67"/>
<polygon fill="#63b8ff" stroke="#63b8ff" points="854.66,-402.22 854.84,-391.63 848.1,-399.8 854.66,-402.22"/>
</a>
</g>
</g>
<!-- Node12 -->
<g id="Node000012" class="node">
<title>Node12</title>
<g id="a_Node000012"><a xlink:href="classmqtt_1_1bridge_1_1lib_1_1SSEDistributor.html#a6163c6302162edf63fbfb851cf995bb0" target="_top" xlink:title=" ">
<polygon fill="white" stroke="#666666" points="326.38,-684.5 158.88,-684.5 158.88,-651 326.38,-651 326.38,-684.5"/>
<text xml:space="preserve" text-anchor="start" x="166.88" y="-671" font-family="Helvetica,sans-Serif" font-size="10.00">mqtt::bridge::lib::</text>
<text xml:space="preserve" text-anchor="middle" x="242.62" y="-658.25" font-family="Helvetica,sans-Serif" font-size="10.00">SSEDistributor::bridgesStopped</text>
</a>
</g>
</g>
<!-- Node1&#45;&gt;Node12 -->
<g id="edge11_Node000001_Node000012" class="edge">
<title>Node1&#45;&gt;Node12</title>
<g id="a_edge11_Node000001_Node000012"><a xlink:title=" ">
<path fill="none" stroke="#63b8ff" d="M861.41,-401.16C856.46,-463.46 836.18,-593.93 753.25,-652.75 686.92,-699.8 453.25,-687.03 326.64,-676.08"/>
<polygon fill="#63b8ff" stroke="#63b8ff" points="864.87,-401.73 862.08,-391.51 857.89,-401.24 864.87,-401.73"/>
</a>
</g>
</g>
<!-- Node13 -->
<g id="Node000013" class="node">
<title>Node13</title>
<g id="a_Node000013"><a xlink:href="classmqtt_1_1bridge_1_1lib_1_1SSEDistributor.html#a15b52ed6fe4ca6d0b94d15ec3a4cacb8" target="_top" xlink:title=" ">
<polygon fill="white" stroke="#666666" points="742.75,-435.5 572.25,-435.5 572.25,-402 742.75,-402 742.75,-435.5"/>
<text xml:space="preserve" text-anchor="start" x="580.25" y="-422" font-family="Helvetica,sans-Serif" font-size="10.00">mqtt::bridge::lib::</text>
<text xml:space="preserve" text-anchor="middle" x="657.5" y="-409.25" font-family="Helvetica,sans-Serif" font-size="10.00">SSEDistributor::bridgesStopping</text>
</a>
</g>
</g>
<!-- Node1&#45;&gt;Node13 -->
<g id="edge13_Node000001_Node000013" class="edge">
<title>Node1&#45;&gt;Node13</title>
<g id="a_edge13_Node000001_Node000013"><a xlink:title=" ">
<path fill="none" stroke="#63b8ff" d="M778.21,-388.31C760.89,-392.72 742.88,-397.29 726.25,-401.52"/>
<polygon fill="#63b8ff" stroke="#63b8ff" points="778.59,-391.83 787.41,-385.97 776.86,-385.04 778.59,-391.83"/>
</a>
</g>
</g>
<!-- Node15 -->
<g id="Node000015" class="node">
<title>Node15</title>
<g id="a_Node000015"><a xlink:href="classmqtt_1_1bridge_1_1lib_1_1SSEDistributor.html#ab3ae5e9780ecb99eb541615b86c28bce" target="_top" xlink:title=" ">
<polygon fill="white" stroke="#666666" points="736.38,-487.5 578.62,-487.5 578.62,-454 736.38,-454 736.38,-487.5"/>
<text xml:space="preserve" text-anchor="start" x="586.62" y="-474" font-family="Helvetica,sans-Serif" font-size="10.00">mqtt::bridge::lib::</text>
<text xml:space="preserve" text-anchor="middle" x="657.5" y="-461.25" font-family="Helvetica,sans-Serif" font-size="10.00">SSEDistributor::bridgeStarted</text>
</a>
</g>
</g>
<!-- Node1&#45;&gt;Node15 -->
<g id="edge15_Node000001_Node000015" class="edge">
<title>Node1&#45;&gt;Node15</title>
<g id="a_edge15_Node000001_Node000015"><a xlink:title=" ">
<path fill="none" stroke="#63b8ff" d="M826.87,-397.33C806.38,-413.38 779.62,-432.24 753.25,-444.75 746.31,-448.04 738.89,-450.98 731.36,-453.58"/>
<polygon fill="#63b8ff" stroke="#63b8ff" points="829.01,-400.11 834.64,-391.14 824.64,-394.64 829.01,-400.11"/>
</a>
</g>
</g>
<!-- Node17 -->
<g id="Node000017" class="node">
<title>Node17</title>
<g id="a_Node000017"><a xlink:href="classmqtt_1_1bridge_1_1lib_1_1SSEDistributor.html#aa3ec6c12c179ba7a9dcdf08da6e6e353" target="_top" xlink:title=" ">
<polygon fill="white" stroke="#666666" points="737.88,-383.5 577.12,-383.5 577.12,-350 737.88,-350 737.88,-383.5"/>
<text xml:space="preserve" text-anchor="start" x="585.12" y="-370" font-family="Helvetica,sans-Serif" font-size="10.00">mqtt::bridge::lib::</text>
<text xml:space="preserve" text-anchor="middle" x="657.5" y="-357.25" font-family="Helvetica,sans-Serif" font-size="10.00">SSEDistributor::bridgeStarting</text>
</a>
</g>
</g>
<!-- Node1&#45;&gt;Node17 -->
<g id="edge18_Node000001_Node000017" class="edge">
<title>Node1&#45;&gt;Node17</title>
<g id="a_edge18_Node000001_Node000017"><a xlink:title=" ">
<path fill="none" stroke="#63b8ff" d="M777.55,-366.75C764.53,-366.75 751.13,-366.75 738.23,-366.75"/>
<polygon fill="#63b8ff" stroke="#63b8ff" points="777.37,-370.25 787.37,-366.75 777.37,-363.25 777.37,-370.25"/>
</a>
</g>
</g>
<!-- Node18 -->
<g id="Node000018" class="node">
<title>Node18</title>
<g id="a_Node000018"><a xlink:href="classmqtt_1_1bridge_1_1lib_1_1SSEDistributor.html#a5b12dc07a03ac23f4cb046b00a06e0c7" target="_top" xlink:title=" ">
<polygon fill="white" stroke="#666666" points="738.62,-241.5 576.38,-241.5 576.38,-208 738.62,-208 738.62,-241.5"/>
<text xml:space="preserve" text-anchor="start" x="584.38" y="-228" font-family="Helvetica,sans-Serif" font-size="10.00">mqtt::bridge::lib::</text>
<text xml:space="preserve" text-anchor="middle" x="657.5" y="-215.25" font-family="Helvetica,sans-Serif" font-size="10.00">SSEDistributor::bridgeStopped</text>
</a>
</g>
</g>
<!-- Node1&#45;&gt;Node18 -->
<g id="edge19_Node000001_Node000018" class="edge">
<title>Node1&#45;&gt;Node18</title>
<g id="a_edge19_Node000001_Node000018"><a xlink:title=" ">
<path fill="none" stroke="#63b8ff" d="M840.32,-334.36C820.3,-308.11 788.82,-272.09 753.25,-250.75 747.69,-247.41 741.7,-244.5 735.52,-241.95"/>
<polygon fill="#63b8ff" stroke="#63b8ff" points="837.48,-336.41 846.26,-342.33 843.09,-332.22 837.48,-336.41"/>
</a>
</g>
</g>
<!-- Node22 -->
<g id="Node000022" class="node">
<title>Node22</title>
<g id="a_Node000022"><a xlink:href="classmqtt_1_1bridge_1_1lib_1_1SSEDistributor.html#aed21f539876af580bab05eb9d131256f" target="_top" xlink:title=" ">
<polygon fill="white" stroke="#666666" points="740.12,-293.5 574.88,-293.5 574.88,-260 740.12,-260 740.12,-293.5"/>
<text xml:space="preserve" text-anchor="start" x="582.88" y="-280" font-family="Helvetica,sans-Serif" font-size="10.00">mqtt::bridge::lib::</text>
<text xml:space="preserve" text-anchor="middle" x="657.5" y="-267.25" font-family="Helvetica,sans-Serif" font-size="10.00">SSEDistributor::bridgeStopping</text>
</a>
</g>
</g>
<!-- Node1&#45;&gt;Node22 -->
<g id="edge23_Node000001_Node000022" class="edge">
<title>Node1&#45;&gt;Node22</title>
<g id="a_edge23_Node000001_Node000022"><a xlink:title=" ">
<path fill="none" stroke="#63b8ff" d="M813.24,-337.59C794.76,-327.41 773.38,-316.37 753.25,-307.75 741.64,-302.77 728.94,-298.12 716.73,-294"/>
<polygon fill="#63b8ff" stroke="#63b8ff" points="811.43,-340.59 821.87,-342.41 814.84,-334.48 811.43,-340.59"/>
</a>
</g>
</g>
<!-- Node23 -->
<g id="Node000023" class="node">
<title>Node23</title>
<g id="a_Node000023"><a xlink:href="classmqtt_1_1bridge_1_1lib_1_1SSEDistributor.html#a65e615fcf8a78daab16cd91f5c219374" target="_top" xlink:title=" ">
<polygon fill="white" stroke="#666666" points="744.62,-539.5 570.38,-539.5 570.38,-506 744.62,-506 744.62,-539.5"/>
<text xml:space="preserve" text-anchor="start" x="578.38" y="-526" font-family="Helvetica,sans-Serif" font-size="10.00">mqtt::bridge::lib::</text>
<text xml:space="preserve" text-anchor="middle" x="657.5" y="-513.25" font-family="Helvetica,sans-Serif" font-size="10.00">SSEDistributor::brokerConnected</text>
</a>
</g>
</g>
<!-- Node1&#45;&gt;Node23 -->
<g id="edge24_Node000001_Node000023" class="edge">
<title>Node1&#45;&gt;Node23</title>
<g id="a_edge24_Node000001_Node000023"><a xlink:title=" ">
<path fill="none" stroke="#63b8ff" d="M843.4,-399.73C824.1,-429.4 791.93,-472.02 753.25,-496.75 747.93,-500.15 742.17,-503.11 736.21,-505.69"/>
<polygon fill="#63b8ff" stroke="#63b8ff" points="846.23,-401.8 848.64,-391.48 840.32,-398.05 846.23,-401.8"/>
</a>
</g>
</g>
<!-- Node24 -->
<g id="Node000024" class="node">
<title>Node24</title>
<g id="a_Node000024"><a xlink:href="classmqtt_1_1bridge_1_1lib_1_1SSEDistributor.html#a85e18d38f96cdd2ece8f48917dd8bfa7" target="_top" xlink:title=" ">
<polygon fill="white" stroke="#666666" points="746.12,-189.5 568.88,-189.5 568.88,-156 746.12,-156 746.12,-189.5"/>
<text xml:space="preserve" text-anchor="start" x="576.88" y="-176" font-family="Helvetica,sans-Serif" font-size="10.00">mqtt::bridge::lib::</text>
<text xml:space="preserve" text-anchor="middle" x="657.5" y="-163.25" font-family="Helvetica,sans-Serif" font-size="10.00">SSEDistributor::brokerConnecting</text>
</a>
</g>
</g>
<!-- Node1&#45;&gt;Node24 -->
<g id="edge26_Node000001_Node000024" class="edge">
<title>Node1&#45;&gt;Node24</title>
<g id="a_edge26_Node000001_Node000024"><a xlink:title=" ">
<path fill="none" stroke="#63b8ff" d="M849.83,-333.19C833.1,-294.94 800.6,-233.27 753.25,-198.75 748.56,-195.33 743.45,-192.37 738.11,-189.79"/>
<polygon fill="#63b8ff" stroke="#63b8ff" points="846.41,-334.09 853.54,-341.93 852.85,-331.35 846.41,-334.09"/>
</a>
</g>
</g>
<!-- Node25 -->
<g id="Node000025" class="node">
<title>Node25</title>
<g id="a_Node000025"><a xlink:href="classmqtt_1_1bridge_1_1lib_1_1SSEDistributor.html#a8b5d90f4d9ae6fa213aba6469f795f80" target="_top" xlink:title=" ">
<polygon fill="white" stroke="#666666" points="740.12,-137.5 574.88,-137.5 574.88,-104 740.12,-104 740.12,-137.5"/>
<text xml:space="preserve" text-anchor="start" x="582.88" y="-124" font-family="Helvetica,sans-Serif" font-size="10.00">mqtt::bridge::lib::</text>
<text xml:space="preserve" text-anchor="middle" x="657.5" y="-111.25" font-family="Helvetica,sans-Serif" font-size="10.00">SSEDistributor::brokerDisabled</text>
</a>
</g>
</g>
<!-- Node1&#45;&gt;Node25 -->
<g id="edge27_Node000001_Node000025" class="edge">
<title>Node1&#45;&gt;Node25</title>
<g id="a_edge27_Node000001_Node000025"><a xlink:title=" ">
<path fill="none" stroke="#63b8ff" d="M855.24,-332.29C842.46,-283.63 812.32,-195.3 753.25,-146.75 749.16,-143.39 744.68,-140.47 739.95,-137.92"/>
<polygon fill="#63b8ff" stroke="#63b8ff" points="851.77,-332.88 857.61,-341.72 858.56,-331.17 851.77,-332.88"/>
</a>
</g>
</g>
<!-- Node26 -->
<g id="Node000026" class="node">
<title>Node26</title>
<g id="a_Node000026"><a xlink:href="classmqtt_1_1bridge_1_1lib_1_1SSEDistributor.html#adcd994f13bb46f04949cd1e08db44f36" target="_top" xlink:title=" ">
<polygon fill="white" stroke="#666666" points="751.75,-85.5 563.25,-85.5 563.25,-52 751.75,-52 751.75,-85.5"/>
<text xml:space="preserve" text-anchor="start" x="571.25" y="-72" font-family="Helvetica,sans-Serif" font-size="10.00">mqtt::bridge::lib::</text>
<text xml:space="preserve" text-anchor="middle" x="657.5" y="-59.25" font-family="Helvetica,sans-Serif" font-size="10.00">SSEDistributor::brokerDisconnected</text>
</a>
</g>
</g>
<!-- Node1&#45;&gt;Node26 -->
<g id="edge28_Node000001_Node000026" class="edge">
<title>Node1&#45;&gt;Node26</title>
<g id="a_edge28_Node000001_Node000026"><a xlink:title=" ">
<path fill="none" stroke="#63b8ff" d="M858.96,-332.46C850.3,-274.74 824.58,-158.27 753.25,-94.75 749.43,-91.35 745.2,-88.38 740.72,-85.81"/>
<polygon fill="#63b8ff" stroke="#63b8ff" points="855.44,-332.6 860.3,-342.02 862.38,-331.63 855.44,-332.6"/>
</a>
</g>
</g>
<!-- Node27 -->
<g id="Node000027" class="node">
<title>Node27</title>
<g id="a_Node000027"><a xlink:href="classmqtt_1_1bridge_1_1lib_1_1SSEDistributor.html#adf0a983dc18c4aa42c477a3a295ce6fb" target="_top" xlink:title=" ">
<polygon fill="white" stroke="#666666" points="753.25,-33.5 561.75,-33.5 561.75,0 753.25,0 753.25,-33.5"/>
<text xml:space="preserve" text-anchor="start" x="569.75" y="-20" font-family="Helvetica,sans-Serif" font-size="10.00">mqtt::bridge::lib::</text>
<text xml:space="preserve" text-anchor="middle" x="657.5" y="-7.25" font-family="Helvetica,sans-Serif" font-size="10.00">SSEDistributor::brokerDisconnecting</text>
</a>
</g>
</g>
<!-- Node1&#45;&gt;Node27 -->
<g id="edge30_Node000001_Node000027" class="edge">
<title>Node1&#45;&gt;Node27</title>
<g id="a_edge30_Node000001_Node000027"><a xlink:title=" ">
<path fill="none" stroke="#63b8ff" d="M861.48,-331.82C856.67,-265.59 836.64,-121.38 753.25,-42.75 749.65,-39.36 745.65,-36.4 741.39,-33.82"/>
<polygon fill="#63b8ff" stroke="#63b8ff" points="857.99,-331.98 862.12,-341.73 864.97,-331.53 857.99,-331.98"/>
</a>
</g>
</g>
<!-- Node4 -->
<g id="Node000004" class="node">
<title>Node4</title>
<g id="a_Node000004"><a xlink:href="classmqtt_1_1bridge_1_1lib_1_1BridgeStore.html#a3e74b309f1d8aa60e4487e35abc1a8b1" target="_top" xlink:title=" ">
<polygon fill="white" stroke="#666666" points="319.62,-426.5 165.62,-426.5 165.62,-393 319.62,-393 319.62,-426.5"/>
<text xml:space="preserve" text-anchor="start" x="173.62" y="-413" font-family="Helvetica,sans-Serif" font-size="10.00">mqtt::bridge::lib::</text>
<text xml:space="preserve" text-anchor="middle" x="242.62" y="-400.25" font-family="Helvetica,sans-Serif" font-size="10.00">BridgeStore::mqttConnected</text>
</a>
</g>
</g>
<!-- Node3&#45;&gt;Node4 -->
<g id="edge3_Node000003_Node000004" class="edge">
<title>Node3&#45;&gt;Node4</title>
<g id="a_edge3_Node000003_Node000004"><a xlink:title=" ">
<path fill="none" stroke="#63b8ff" d="M376.94,-368.35C351.69,-376.19 323.21,-385.03 299.07,-392.53"/>
<polygon fill="#63b8ff" stroke="#63b8ff" points="377.95,-371.7 386.46,-365.39 375.87,-365.01 377.95,-371.7"/>
</a>
</g>
</g>
<!-- Node5 -->
<g id="Node000005" class="node">
<title>Node5</title>
<g id="a_Node000005"><a xlink:href="classmqtt_1_1bridge_1_1lib_1_1Mqtt.html#a695ccafca764022552d51da3faccbdac" target="_top" xlink:title=" ">
<polygon fill="white" stroke="#666666" points="111.25,-426.5 11.25,-426.5 11.25,-393 111.25,-393 111.25,-426.5"/>
<text xml:space="preserve" text-anchor="start" x="19.25" y="-413" font-family="Helvetica,sans-Serif" font-size="10.00">mqtt::bridge::lib::</text>
<text xml:space="preserve" text-anchor="middle" x="61.25" y="-400.25" font-family="Helvetica,sans-Serif" font-size="10.00">Mqtt::onConnack</text>
</a>
</g>
</g>
<!-- Node4&#45;&gt;Node5 -->
<g id="edge4_Node000004_Node000005" class="edge">
<title>Node4&#45;&gt;Node5</title>
<g id="a_edge4_Node000004_Node000005"><a xlink:title=" ">
<path fill="none" stroke="#63b8ff" d="M154.13,-409.75C139.47,-409.75 124.74,-409.75 111.5,-409.75"/>
<polygon fill="#63b8ff" stroke="#63b8ff" points="153.78,-413.25 163.78,-409.75 153.78,-406.25 153.78,-413.25"/>
</a>
</g>
</g>
<!-- Node8 -->
<g id="Node000008" class="node">
<title>Node8</title>
<g id="a_Node000008"><a xlink:href="mqttbridge_8cpp.html#ac4db1bc049804762ae0893100ec95dec" target="_top" xlink:title=" ">
<polygon fill="white" stroke="#666666" points="481.88,-588.12 406.62,-588.12 406.62,-567.38 481.88,-567.38 481.88,-588.12"/>
<text xml:space="preserve" text-anchor="middle" x="444.25" y="-574.62" font-family="Helvetica,sans-Serif" font-size="10.00">startBridges</text>
</a>
</g>
</g>
<!-- Node7&#45;&gt;Node8 -->
<g id="edge7_Node000007_Node000008" class="edge">
<title>Node7&#45;&gt;Node8</title>
<g id="a_edge7_Node000007_Node000008"><a xlink:title=" ">
<path fill="none" stroke="#63b8ff" d="M562.96,-576.08C534.47,-576.48 504.8,-576.9 482.37,-577.22"/>
<polygon fill="#63b8ff" stroke="#63b8ff" points="562.76,-579.58 572.71,-575.94 562.66,-572.58 562.76,-579.58"/>
</a>
</g>
</g>
<!-- Node9 -->
<g id="Node000009" class="node">
<title>Node9</title>
<g id="a_Node000009"><a xlink:href="mqttbridge_8cpp.html#a0ddf1224851353fc92bfbff6f499fa97" target="_top" xlink:title=" ">
<polygon fill="white" stroke="#666666" points="263,-627.12 222.25,-627.12 222.25,-606.38 263,-606.38 263,-627.12"/>
<text xml:space="preserve" text-anchor="middle" x="242.62" y="-613.62" font-family="Helvetica,sans-Serif" font-size="10.00">main</text>
</a>
</g>
</g>
<!-- Node8&#45;&gt;Node9 -->
<g id="edge8_Node000008_Node000009" class="edge">
<title>Node8&#45;&gt;Node9</title>
<g id="a_edge8_Node000008_Node000009"><a xlink:title=" ">
<path fill="none" stroke="#63b8ff" d="M395.05,-587.17C352.94,-595.39 293.92,-606.92 263.49,-612.87"/>
<polygon fill="#63b8ff" stroke="#63b8ff" points="395.54,-590.64 404.68,-585.28 394.2,-583.77 395.54,-590.64"/>
</a>
</g>
</g>
<!-- Node10 -->
<g id="Node000010" class="node">
<title>Node10</title>
<g id="a_Node000010"><a xlink:href="mqttbridge_8cpp.html#ad55d86bc4a27f17b5ccd51659519f60d" target="_top" xlink:title=" ">
<polygon fill="white" stroke="#666666" points="285.12,-588.12 200.12,-588.12 200.12,-567.38 285.12,-567.38 285.12,-588.12"/>
<text xml:space="preserve" text-anchor="middle" x="242.62" y="-574.62" font-family="Helvetica,sans-Serif" font-size="10.00">restartBridges</text>
</a>
</g>
</g>
<!-- Node8&#45;&gt;Node10 -->
<g id="edge9_Node000008_Node000010" class="edge">
<title>Node8&#45;&gt;Node10</title>
<g id="a_edge9_Node000008_Node000010"><a xlink:title=" ">
<path fill="none" stroke="#63b8ff" d="M394.81,-577.75C361.33,-577.75 317.25,-577.75 285.34,-577.75"/>
<polygon fill="#63b8ff" stroke="#63b8ff" points="394.66,-581.25 404.66,-577.75 394.66,-574.25 394.66,-581.25"/>
</a>
</g>
</g>
<!-- Node11 -->
<g id="Node000011" class="node">
<title>Node11</title>
<g id="a_Node000011"><a xlink:href="mqttbridge_8cpp.html#a950144f64b7a01a366fb06aecf986214" target="_top" xlink:title=" ">
<polygon fill="white" stroke="#666666" points="101.5,-630.12 21,-630.12 21,-609.38 101.5,-609.38 101.5,-630.12"/>
<text xml:space="preserve" text-anchor="middle" x="61.25" y="-616.62" font-family="Helvetica,sans-Serif" font-size="10.00">handleConfig</text>
</a>
</g>
</g>
<!-- Node10&#45;&gt;Node11 -->
<g id="edge10_Node000010_Node000011" class="edge">
<title>Node10&#45;&gt;Node11</title>
<g id="a_edge10_Node000010_Node000011"><a xlink:title=" ">
<path fill="none" stroke="#63b8ff" d="M188.87,-590.1C161,-596.63 127.38,-604.5 101.78,-610.49"/>
<polygon fill="#63b8ff" stroke="#63b8ff" points="189.61,-593.52 198.55,-587.84 188.01,-586.71 189.61,-593.52"/>
</a>
</g>
</g>
<!-- Node12&#45;&gt;Node11 -->
<g id="edge12_Node000012_Node000011" class="edge">
<title>Node12&#45;&gt;Node11</title>
<g id="a_edge12_Node000012_Node000011"><a xlink:title=" ">
<path fill="none" stroke="#63b8ff" d="M166.28,-647.59C144.13,-641.66 120.78,-635.41 101.83,-630.34"/>
<polygon fill="#63b8ff" stroke="#63b8ff" points="165.35,-650.96 175.91,-650.17 167.16,-644.2 165.35,-650.96"/>
</a>
</g>
</g>
<!-- Node14 -->
<g id="Node000014" class="node">
<title>Node14</title>
<g id="a_Node000014"><a xlink:href="mqttbridge_8cpp.html#a049ffc3274ea87fbe64bb3dede829cf4" target="_top" xlink:title=" ">
<polygon fill="white" stroke="#666666" points="483.38,-429.12 405.12,-429.12 405.12,-408.38 483.38,-408.38 483.38,-429.12"/>
<text xml:space="preserve" text-anchor="middle" x="444.25" y="-415.62" font-family="Helvetica,sans-Serif" font-size="10.00">closeBridges</text>
</a>
</g>
</g>
<!-- Node13&#45;&gt;Node14 -->
<g id="edge14_Node000013_Node000014" class="edge">
<title>Node13&#45;&gt;Node14</title>
<g id="a_edge14_Node000013_Node000014"><a xlink:title=" ">
<path fill="none" stroke="#63b8ff" d="M560.61,-418.75C533.4,-418.75 505.31,-418.75 483.67,-418.75"/>
<polygon fill="#63b8ff" stroke="#63b8ff" points="560.28,-422.25 570.28,-418.75 560.28,-415.25 560.28,-422.25"/>
</a>
</g>
</g>
<!-- Node16 -->
<g id="Node000016" class="node">
<title>Node16</title>
<g id="a_Node000016"><a xlink:href="classmqtt_1_1bridge_1_1lib_1_1Bridge.html#a3a4293a660369d5d5976c303eb5e7262" target="_top" xlink:title=" ">
<polygon fill="white" stroke="#666666" points="494.25,-487.5 394.25,-487.5 394.25,-454 494.25,-454 494.25,-487.5"/>
<text xml:space="preserve" text-anchor="start" x="402.25" y="-474" font-family="Helvetica,sans-Serif" font-size="10.00">mqtt::bridge::lib::</text>
<text xml:space="preserve" text-anchor="middle" x="444.25" y="-461.25" font-family="Helvetica,sans-Serif" font-size="10.00">Bridge::addMqtt</text>
</a>
</g>
</g>
<!-- Node15&#45;&gt;Node16 -->
<g id="edge16_Node000015_Node000016" class="edge">
<title>Node15&#45;&gt;Node16</title>
<g id="a_edge16_Node000015_Node000016"><a xlink:title=" ">
<path fill="none" stroke="#63b8ff" d="M566.88,-470.75C542.15,-470.75 516.21,-470.75 494.68,-470.75"/>
<polygon fill="#63b8ff" stroke="#63b8ff" points="566.62,-474.25 576.62,-470.75 566.62,-467.25 566.62,-474.25"/>
</a>
</g>
</g>
<!-- Node16&#45;&gt;Node4 -->
<g id="edge17_Node000016_Node000004" class="edge">
<title>Node16&#45;&gt;Node4</title>
<g id="a_edge17_Node000016_Node000004"><a xlink:title=" ">
<path fill="none" stroke="#63b8ff" d="M383.24,-452.41C356.77,-444.32 325.82,-434.87 299.81,-426.92"/>
<polygon fill="#63b8ff" stroke="#63b8ff" points="381.87,-455.65 392.46,-455.23 383.92,-448.96 381.87,-455.65"/>
</a>
</g>
</g>
<!-- Node19 -->
<g id="Node000019" class="node">
<title>Node19</title>
<g id="a_Node000019"><a xlink:href="classmqtt_1_1bridge_1_1lib_1_1Bridge.html#afa30b1de86ead152082545890c307400" target="_top" xlink:title=" ">
<polygon fill="white" stroke="#666666" points="501,-163.5 387.5,-163.5 387.5,-130 501,-130 501,-163.5"/>
<text xml:space="preserve" text-anchor="start" x="395.5" y="-150" font-family="Helvetica,sans-Serif" font-size="10.00">mqtt::bridge::lib::</text>
<text xml:space="preserve" text-anchor="middle" x="444.25" y="-137.25" font-family="Helvetica,sans-Serif" font-size="10.00">Bridge::removeMqtt</text>
</a>
</g>
</g>
<!-- Node18&#45;&gt;Node19 -->
<g id="edge20_Node000018_Node000019" class="edge">
<title>Node18&#45;&gt;Node19</title>
<g id="a_edge20_Node000018_Node000019"><a xlink:title=" ">
<path fill="none" stroke="#63b8ff" d="M578.08,-204.24C572.53,-202.48 567.03,-200.64 561.75,-198.75 533.7,-188.71 502.97,-174.86 480.11,-163.99"/>
<polygon fill="#63b8ff" stroke="#63b8ff" points="576.78,-207.5 587.37,-207.09 578.84,-200.81 576.78,-207.5"/>
</a>
</g>
</g>
<!-- Node20 -->
<g id="Node000020" class="node">
<title>Node20</title>
<g id="a_Node000020"><a xlink:href="classmqtt_1_1bridge_1_1lib_1_1BridgeStore.html#a9384b7d7ef7214dbe923d445e3201156" target="_top" xlink:title=" ">
<polygon fill="white" stroke="#666666" points="326.75,-163.5 158.5,-163.5 158.5,-130 326.75,-130 326.75,-163.5"/>
<text xml:space="preserve" text-anchor="start" x="166.5" y="-150" font-family="Helvetica,sans-Serif" font-size="10.00">mqtt::bridge::lib::</text>
<text xml:space="preserve" text-anchor="middle" x="242.62" y="-137.25" font-family="Helvetica,sans-Serif" font-size="10.00">BridgeStore::mqttDisconnected</text>
</a>
</g>
</g>
<!-- Node19&#45;&gt;Node20 -->
<g id="edge21_Node000019_Node000020" class="edge">
<title>Node19&#45;&gt;Node20</title>
<g id="a_edge21_Node000019_Node000020"><a xlink:title=" ">
<path fill="none" stroke="#63b8ff" d="M375.9,-146.75C360.17,-146.75 343.24,-146.75 326.92,-146.75"/>
<polygon fill="#63b8ff" stroke="#63b8ff" points="375.6,-150.25 385.6,-146.75 375.6,-143.25 375.6,-150.25"/>
</a>
</g>
</g>
<!-- Node21 -->
<g id="Node000021" class="node">
<title>Node21</title>
<g id="a_Node000021"><a xlink:href="classmqtt_1_1bridge_1_1lib_1_1Mqtt.html#a0628e4ad221204e943cdb08061c99e94" target="_top" xlink:title=" ">
<polygon fill="white" stroke="#666666" points="122.5,-163.5 0,-163.5 0,-130 122.5,-130 122.5,-163.5"/>
<text xml:space="preserve" text-anchor="start" x="8" y="-150" font-family="Helvetica,sans-Serif" font-size="10.00">mqtt::bridge::lib::</text>
<text xml:space="preserve" text-anchor="middle" x="61.25" y="-137.25" font-family="Helvetica,sans-Serif" font-size="10.00">Mqtt::onDisconnected</text>
</a>
</g>
</g>
<!-- Node20&#45;&gt;Node21 -->
<g id="edge22_Node000020_Node000021" class="edge">
<title>Node20&#45;&gt;Node21</title>
<g id="a_edge22_Node000020_Node000021"><a xlink:title=" ">
<path fill="none" stroke="#63b8ff" d="M146.79,-146.75C138.7,-146.75 130.67,-146.75 122.95,-146.75"/>
<polygon fill="#63b8ff" stroke="#63b8ff" points="146.73,-150.25 156.73,-146.75 146.73,-143.25 146.73,-150.25"/>
</a>
</g>
</g>
<!-- Node23&#45;&gt;Node16 -->
<g id="edge25_Node000023_Node000016" class="edge">
<title>Node23&#45;&gt;Node16</title>
<g id="a_edge25_Node000023_Node000016"><a xlink:title=" ">
<path fill="none" stroke="#63b8ff" d="M575.37,-502.78C548.2,-496.09 518.75,-488.84 494.74,-482.93"/>
<polygon fill="#63b8ff" stroke="#63b8ff" points="574.43,-506.15 584.98,-505.15 576.11,-499.36 574.43,-506.15"/>
</a>
</g>
</g>
<!-- Node26&#45;&gt;Node19 -->
<g id="edge29_Node000026_Node000019" class="edge">
<title>Node26&#45;&gt;Node19</title>
<g id="a_edge29_Node000026_Node000019"><a xlink:title=" ">
<path fill="none" stroke="#63b8ff" d="M578.08,-89.26C572.53,-91.02 567.03,-92.86 561.75,-94.75 533.7,-104.79 502.97,-118.64 480.11,-129.51"/>
<polygon fill="#63b8ff" stroke="#63b8ff" points="578.84,-92.69 587.37,-86.41 576.78,-86 578.84,-92.69"/>
</a>
</g>
</g>
</g>
</svg>

<g id="navigator" transform="translate(0 0)" fill="#404254">
  <rect fill="#f2f5e9" fill-opacity="0.5" stroke="#606060" stroke-width=".5" x="0" y="0" width="60" height="60"/>
  <use id="zoomplus" xlink:href="#zoomPlus" x="17" y="9" onmousedown="handleZoom(evt,'in')"/>
  <use id="zoomminus" xlink:href="#zoomMin" x="42" y="9" onmousedown="handleZoom(evt,'out')"/>
  <use id="reset" xlink:href="#resetDef" x="30" y="36" onmousedown="handleReset()"/>
   <use id="arrowup" xlink:href="#arrowUp" x="0" y="0" onmousedown="handlePan(0,-1)"/>
  <use id="arrowright" xlink:href="#arrowRight" x="0" y="0" onmousedown="handlePan(1,0)"/>
  <use id="arrowdown" xlink:href="#arrowDown" x="0" y="0" onmousedown="handlePan(0,1)"/>
  <use id="arrowleft" xlink:href="#arrowLeft" x="0" y="0" onmousedown="handlePan(-1,0)"/>
</g>
<svg viewBox="0 0 15 15" width="100%" height="30px" preserveAspectRatio="xMaxYMin meet">
 <g id="arrow_out" transform="scale(0.3 0.3)">
  <a xlink:href="classmqtt_1_1bridge_1_1lib_1_1SSEDistributor_ae175f78eb030a996687f4606171418f6_icgraph_org.svg" target="_base">
   <rect id="button" ry="5" rx="5" y="6" x="6" height="38" width="38"
        fill="#f2f5e9" fill-opacity="0.5" stroke="#606060" stroke-width="1.0"/>
   <path id="arrow"
     d="M 11.500037,31.436501 C 11.940474,20.09759 22.043105,11.32322 32.158766,21.979434 L 37.068811,17.246167 C 37.068811,17.246167 37.088388,32 37.088388,32 L 22.160133,31.978069 C 22.160133,31.978069 26.997745,27.140456 26.997745,27.140456 C 18.528582,18.264221 13.291696,25.230495 11.500037,31.436501 z"
     style="fill:#404040;"/>
  </a>
 </g>
</svg>

<style type='text/css'>
<![CDATA[
[data-mouse-over-selected='false'] { opacity: 0.7; }
[data-mouse-over-selected='true']  { opacity: 1.0; }
]]>
</style>
<script type="application/ecmascript"><![CDATA[
document.addEventListener('DOMContentLoaded', (event) => {
  highlightEdges();
  highlightAdjacentNodes();
});
]]></script>
</svg>
