<?xml version="1.0" encoding="UTF-8" standalone="no"?>
<!DOCTYPE svg PUBLIC "-//W3C//DTD SVG 1.1//EN"
 "http://www.w3.org/Graphics/SVG/1.1/DTD/svg11.dtd">
<!-- Generated by graphviz version 14.1.2 (0)
 -->
<!-- Title: mqtt::bridge::lib::SSEDistributor::bridgeStarting Pages: 1 -->
<svg width="745pt" height="141pt"
 viewBox="0.00 0.00 745.00 141.00" xmlns="http://www.w3.org/2000/svg" xmlns:xlink="http://www.w3.org/1999/xlink">
<g id="graph0" class="graph" transform="scale(1 1) rotate(0) translate(4 137.25)">
<title>mqtt::bridge::lib::SSEDistributor::bridgeStarting</title>
<!-- Node1 -->
<g id="Node000001" class="node">
<title>Node1</title>
<g id="a_Node000001"><a xlink:title=" ">
<polygon fill="#999999" stroke="#666666" points="160.75,-68.88 0,-68.88 0,-35.38 160.75,-35.38 160.75,-68.88"/>
<text xml:space="preserve" text-anchor="start" x="8" y="-55.38" font-family="Helvetica,sans-Serif" font-size="10.00">mqtt::bridge::lib::</text>
<text xml:space="preserve" text-anchor="middle" x="80.38" y="-42.62" font-family="Helvetica,sans-Serif" font-size="10.00">SSEDistributor::bridgeStarting</text>
</a>
</g>
</g>
<!-- Node2 -->
<g id="Node000002" class="node">
<title>Node2</title>
<g id="a_Node000002"><a xlink:href="classmqtt_1_1bridge_1_1lib_1_1SSEDistributor.html#ae352efe457441f0669d10132f46b514e" target="_top" xlink:title=" ">
<polygon fill="white" stroke="#666666" points="359.75,-97.88 196.75,-97.88 196.75,-64.38 359.75,-64.38 359.75,-97.88"/>
<text xml:space="preserve" text-anchor="start" x="204.75" y="-84.38" font-family="Helvetica,sans-Serif" font-size="10.00">mqtt::bridge::lib::</text>
<text xml:space="preserve" text-anchor="middle" x="278.25" y="-71.62" font-family="Helvetica,sans-Serif" font-size="10.00">SSEDistributor::sendJsonEvent</text>
</a>
</g>
</g>
<!-- Node1&#45;&gt;Node2 -->
<g id="edge1_Node000001_Node000002" class="edge">
<title>Node1&#45;&gt;Node2</title>
<g id="a_edge1_Node000001_Node000002"><a xlink:title=" ">
<path fill="none" stroke="#63b8ff" d="M161.04,-63.92C168.96,-65.09 177.05,-66.29 185.08,-67.48"/>
<polygon fill="#63b8ff" stroke="#63b8ff" points="184.48,-70.93 194.88,-68.93 185.5,-64 184.48,-70.93"/>
</a>
</g>
</g>
<!-- Node6 -->
<g id="Node000006" class="node">
<title>Node6</title>
<g id="a_Node000006"><a xlink:href="classmqtt_1_1bridge_1_1lib_1_1SSEDistributor.html#ae175f78eb030a996687f4606171418f6" target="_top" xlink:title=" ">
<polygon fill="white" stroke="#666666" points="353,-46.25 203.5,-46.25 203.5,0 353,0 353,-46.25"/>
<text xml:space="preserve" text-anchor="start" x="211.5" y="-32.75" font-family="Helvetica,sans-Serif" font-size="10.00">mqtt::bridge::lib::</text>
<text xml:space="preserve" text-anchor="start" x="211.5" y="-20" font-family="Helvetica,sans-Serif" font-size="10.00">SSEDistributor::timePointTo</text>
<text xml:space="preserve" text-anchor="middle" x="278.25" y="-7.25" font-family="Helvetica,sans-Serif" font-size="10.00">String</text>
</a>
</g>
</g>
<!-- Node1&#45;&gt;Node6 -->
<g id="edge5_Node000001_Node000006" class="edge">
<title>Node1&#45;&gt;Node6</title>
<g id="a_edge5_Node000001_Node000006"><a xlink:title=" ">
<path fill="none" stroke="#63b8ff" d="M161.04,-40.33C171.13,-38.84 181.47,-37.3 191.64,-35.8"/>
<polygon fill="#63b8ff" stroke="#63b8ff" points="192.15,-39.26 201.53,-34.34 191.12,-32.34 192.15,-39.26"/>
</a>
</g>
</g>
<!-- Node3 -->
<g id="Node000003" class="node">
<title>Node3</title>
<g id="a_Node000003"><a xlink:href="classmqtt_1_1bridge_1_1lib_1_1SSEDistributor.html#a33c28a238f0853d09effb76ed6c49d45" target="_top" xlink:title=" ">
<polygon fill="white" stroke="#666666" points="538.5,-97.88 395.75,-97.88 395.75,-64.38 538.5,-64.38 538.5,-97.88"/>
<text xml:space="preserve" text-anchor="start" x="403.75" y="-84.38" font-family="Helvetica,sans-Serif" font-size="10.00">mqtt::bridge::lib::</text>
<text xml:space="preserve" text-anchor="middle" x="467.12" y="-71.62" font-family="Helvetica,sans-Serif" font-size="10.00">SSEDistributor::sendEvent</text>
</a>
</g>
</g>
<!-- Node2&#45;&gt;Node3 -->
<g id="edge2_Node000002_Node000003" class="edge">
<title>Node2&#45;&gt;Node3</title>
<g id="a_edge2_Node000002_Node000003"><a xlink:title=" ">
<path fill="none" stroke="#63b8ff" d="M360.13,-81.12C368.02,-81.12 376.02,-81.12 383.92,-81.12"/>
<polygon fill="#63b8ff" stroke="#63b8ff" points="383.88,-84.63 393.88,-81.13 383.88,-77.63 383.88,-84.63"/>
</a>
</g>
</g>
<!-- Node4 -->
<g id="Node000004" class="node">
<title>Node4</title>
<g id="a_Node000004"><a xlink:href="classmqtt_1_1bridge_1_1lib_1_1SSEDistributor_1_1EventReceiver.html#ab7cf8f80c46f3ef696bf07dcb779255c" target="_top" xlink:title=" ">
<polygon fill="white" stroke="#666666" points="736.75,-133.25 574.5,-133.25 574.5,-87 736.75,-87 736.75,-133.25"/>
<text xml:space="preserve" text-anchor="start" x="582.5" y="-119.75" font-family="Helvetica,sans-Serif" font-size="10.00">mqtt::bridge::lib::</text>
<text xml:space="preserve" text-anchor="start" x="582.5" y="-107" font-family="Helvetica,sans-Serif" font-size="10.00">SSEDistributor::EventReceiver</text>
<text xml:space="preserve" text-anchor="middle" x="655.62" y="-94.25" font-family="Helvetica,sans-Serif" font-size="10.00">::getResponse</text>
</a>
</g>
</g>
<!-- Node3&#45;&gt;Node4 -->
<g id="edge3_Node000003_Node000004" class="edge">
<title>Node3&#45;&gt;Node4</title>
<g id="a_edge3_Node000003_Node000004"><a xlink:title=" ">
<path fill="none" stroke="#63b8ff" d="M538.9,-92.13C546.74,-93.35 554.81,-94.6 562.87,-95.86"/>
<polygon fill="#63b8ff" stroke="#63b8ff" points="562.31,-99.31 572.73,-97.39 563.38,-92.39 562.31,-99.31"/>
</a>
</g>
</g>
<!-- Node5 -->
<g id="Node000005" class="node">
<title>Node5</title>
<g id="a_Node000005"><a xlink:href="classmqtt_1_1bridge_1_1lib_1_1SSEDistributor.html#a9f5043f5f0189719413e23c74b3a55c2" target="_top" xlink:title=" ">
<polygon fill="white" stroke="#666666" points="727,-68.88 584.25,-68.88 584.25,-35.38 727,-35.38 727,-68.88"/>
<text xml:space="preserve" text-anchor="start" x="592.25" y="-55.38" font-family="Helvetica,sans-Serif" font-size="10.00">mqtt::bridge::lib::</text>
<text xml:space="preserve" text-anchor="middle" x="655.62" y="-42.62" font-family="Helvetica,sans-Serif" font-size="10.00">SSEDistributor::sendEvent</text>
</a>
</g>
</g>
<!-- Node3&#45;&gt;Node5 -->
<g id="edge4_Node000003_Node000005" class="edge">
<title>Node3&#45;&gt;Node5</title>
<g id="a_edge4_Node000003_Node000005"><a xlink:title=" ">
<path fill="none" stroke="#63b8ff" d="M538.9,-70.12C549.95,-68.4 561.45,-66.61 572.72,-64.86"/>
<polygon fill="#63b8ff" stroke="#63b8ff" points="573.06,-68.35 582.4,-63.36 571.99,-61.43 573.06,-68.35"/>
</a>
</g>
</g>
</g>
</svg>
