<?xml version="1.0" encoding="UTF-8" standalone="no"?>
<!DOCTYPE svg PUBLIC "-//W3C//DTD SVG 1.1//EN"
 "http://www.w3.org/Graphics/SVG/1.1/DTD/svg11.dtd">
<!-- Generated by graphviz version 14.1.2 (0)
 -->
<!-- Title: mqtt::bridge::SocketContextFactory::create Pages: 1 -->
<svg width="537pt" height="808pt"
 viewBox="0.00 0.00 537.00 808.00" xmlns="http://www.w3.org/2000/svg" xmlns:xlink="http://www.w3.org/1999/xlink">
<g id="graph0" class="graph" transform="scale(1 1) rotate(0) translate(4 803.5)">
<title>mqtt::bridge::SocketContextFactory::create</title>
<!-- Node1 -->
<g id="Node000001" class="node">
<title>Node1</title>
<g id="a_Node000001"><a xlink:title=" ">
<polygon fill="#999999" stroke="#666666" points="152.5,-553.5 0,-553.5 0,-520 152.5,-520 152.5,-553.5"/>
<text xml:space="preserve" text-anchor="start" x="8" y="-540" font-family="Helvetica,sans-Serif" font-size="10.00">mqtt::bridge::SocketContext</text>
<text xml:space="preserve" text-anchor="middle" x="76.25" y="-527.25" font-family="Helvetica,sans-Serif" font-size="10.00">Factory::create</text>
</a>
</g>
</g>
<!-- Node2 -->
<g id="Node000002" class="node">
<title>Node2</title>
<g id="a_Node000002"><a xlink:href="classmqtt_1_1bridge_1_1lib_1_1Broker.html#acff6cddc56c9cdc2b0688d6482034131" target="_top" xlink:title=" ">
<polygon fill="white" stroke="#666666" points="302,-799.5 201.25,-799.5 201.25,-766 302,-766 302,-799.5"/>
<text xml:space="preserve" text-anchor="start" x="209.25" y="-786" font-family="Helvetica,sans-Serif" font-size="10.00">mqtt::bridge::lib::</text>
<text xml:space="preserve" text-anchor="middle" x="251.62" y="-773.25" font-family="Helvetica,sans-Serif" font-size="10.00">Broker::getBridge</text>
</a>
</g>
</g>
<!-- Node1&#45;&gt;Node2 -->
<g id="edge1_Node000001_Node000002" class="edge">
<title>Node1&#45;&gt;Node2</title>
<g id="a_edge1_Node000001_Node000002"><a xlink:title=" ">
<path fill="none" stroke="#63b8ff" d="M81.48,-553.82C92.37,-594.42 125.05,-697.7 188.5,-756.75 189.54,-757.71 190.61,-758.64 191.72,-759.54"/>
<polygon fill="#63b8ff" stroke="#63b8ff" points="189.35,-762.16 199.57,-764.96 193.33,-756.4 189.35,-762.16"/>
</a>
</g>
</g>
<!-- Node3 -->
<g id="Node000003" class="node">
<title>Node3</title>
<g id="a_Node000003"><a xlink:href="classmqtt_1_1bridge_1_1lib_1_1BridgeStore.html#a4876aaa7576d0f1c707f2a070d3966cf" target="_top" xlink:title=" ">
<polygon fill="white" stroke="#666666" points="314.75,-747.5 188.5,-747.5 188.5,-714 314.75,-714 314.75,-747.5"/>
<text xml:space="preserve" text-anchor="start" x="196.5" y="-734" font-family="Helvetica,sans-Serif" font-size="10.00">mqtt::bridge::lib::</text>
<text xml:space="preserve" text-anchor="middle" x="251.62" y="-721.25" font-family="Helvetica,sans-Serif" font-size="10.00">BridgeStore::getBroker</text>
</a>
</g>
</g>
<!-- Node1&#45;&gt;Node3 -->
<g id="edge2_Node000001_Node000003" class="edge">
<title>Node1&#45;&gt;Node3</title>
<g id="a_edge2_Node000001_Node000003"><a xlink:title=" ">
<path fill="none" stroke="#63b8ff" d="M85.09,-553.61C100.74,-585.71 138.67,-656.28 188.5,-699.75 191.78,-702.61 195.37,-705.28 199.11,-707.76"/>
<polygon fill="#63b8ff" stroke="#63b8ff" points="197,-710.57 207.37,-712.73 200.61,-704.57 197,-710.57"/>
</a>
</g>
</g>
<!-- Node4 -->
<g id="Node000004" class="node">
<title>Node4</title>
<g id="a_Node000004"><a xlink:href="classmqtt_1_1bridge_1_1lib_1_1Broker.html#a6d2569d96d1c3c9775d3094a57d298e0" target="_top" xlink:title=" ">
<polygon fill="white" stroke="#666666" points="493.12,-654.5 386.38,-654.5 386.38,-621 493.12,-621 493.12,-654.5"/>
<text xml:space="preserve" text-anchor="start" x="394.38" y="-641" font-family="Helvetica,sans-Serif" font-size="10.00">mqtt::bridge::lib::</text>
<text xml:space="preserve" text-anchor="middle" x="439.75" y="-628.25" font-family="Helvetica,sans-Serif" font-size="10.00">Broker::getClientId</text>
</a>
</g>
</g>
<!-- Node1&#45;&gt;Node4 -->
<g id="edge3_Node000001_Node000004" class="edge">
<title>Node1&#45;&gt;Node4</title>
<g id="a_edge3_Node000001_Node000004"><a xlink:title=" ">
<path fill="none" stroke="#63b8ff" d="M85.64,-553.98C101.17,-583.6 137.5,-643.27 188.5,-666.75 252.67,-696.29 335.48,-677.02 387.86,-658.76"/>
<polygon fill="#63b8ff" stroke="#63b8ff" points="388.92,-662.1 397.14,-655.41 386.55,-655.51 388.92,-662.1"/>
</a>
</g>
</g>
<!-- Node5 -->
<g id="Node000005" class="node">
<title>Node5</title>
<g id="a_Node000005"><a xlink:href="classmqtt_1_1bridge_1_1lib_1_1Broker.html#a6eb76f6da39d0e64d2795ff275841042" target="_top" xlink:title=" ">
<polygon fill="white" stroke="#666666" points="312.12,-657.5 191.12,-657.5 191.12,-624 312.12,-624 312.12,-657.5"/>
<text xml:space="preserve" text-anchor="start" x="199.12" y="-644" font-family="Helvetica,sans-Serif" font-size="10.00">mqtt::bridge::lib::</text>
<text xml:space="preserve" text-anchor="middle" x="251.62" y="-631.25" font-family="Helvetica,sans-Serif" font-size="10.00">Broker::getEncryption</text>
</a>
</g>
</g>
<!-- Node1&#45;&gt;Node5 -->
<g id="edge4_Node000001_Node000005" class="edge">
<title>Node1&#45;&gt;Node5</title>
<g id="a_edge4_Node000001_Node000005"><a xlink:title=" ">
<path fill="none" stroke="#63b8ff" d="M98.51,-553.74C120.26,-570.61 155.45,-596.53 188.5,-614.75 190.96,-616.11 193.51,-617.44 196.11,-618.74"/>
<polygon fill="#63b8ff" stroke="#63b8ff" points="194.38,-621.8 204.92,-622.93 197.39,-615.47 194.38,-621.8"/>
</a>
</g>
</g>
<!-- Node6 -->
<g id="Node000006" class="node">
<title>Node6</title>
<g id="a_Node000006"><a xlink:href="classmqtt_1_1bridge_1_1lib_1_1Bridge.html#a4177e157e17db6dc673e9e49282a2842" target="_top" xlink:title=" ">
<polygon fill="white" stroke="#666666" points="301.62,-605.5 201.62,-605.5 201.62,-572 301.62,-572 301.62,-605.5"/>
<text xml:space="preserve" text-anchor="start" x="209.62" y="-592" font-family="Helvetica,sans-Serif" font-size="10.00">mqtt::bridge::lib::</text>
<text xml:space="preserve" text-anchor="middle" x="251.62" y="-579.25" font-family="Helvetica,sans-Serif" font-size="10.00">Bridge::getName</text>
</a>
</g>
</g>
<!-- Node1&#45;&gt;Node6 -->
<g id="edge5_Node000001_Node000006" class="edge">
<title>Node1&#45;&gt;Node6</title>
<g id="a_edge5_Node000001_Node000006"><a xlink:title=" ">
<path fill="none" stroke="#63b8ff" d="M134.5,-553.92C152.39,-559.29 172.17,-565.22 190.27,-570.65"/>
<polygon fill="#63b8ff" stroke="#63b8ff" points="189.25,-574 199.83,-573.52 191.26,-567.29 189.25,-574"/>
</a>
</g>
</g>
<!-- Node7 -->
<g id="Node000007" class="node">
<title>Node7</title>
<g id="a_Node000007"><a xlink:href="classmqtt_1_1bridge_1_1lib_1_1Broker.html#a0cb6a0b6686369928942a63621677fc7" target="_top" xlink:title=" ">
<polygon fill="white" stroke="#666666" points="301.62,-553.5 201.62,-553.5 201.62,-520 301.62,-520 301.62,-553.5"/>
<text xml:space="preserve" text-anchor="start" x="209.62" y="-540" font-family="Helvetica,sans-Serif" font-size="10.00">mqtt::bridge::lib::</text>
<text xml:space="preserve" text-anchor="middle" x="251.62" y="-527.25" font-family="Helvetica,sans-Serif" font-size="10.00">Broker::getName</text>
</a>
</g>
</g>
<!-- Node1&#45;&gt;Node7 -->
<g id="edge6_Node000001_Node000007" class="edge">
<title>Node1&#45;&gt;Node7</title>
<g id="a_edge6_Node000001_Node000007"><a xlink:title=" ">
<path fill="none" stroke="#63b8ff" d="M152.79,-536.75C165.24,-536.75 178,-536.75 190.02,-536.75"/>
<polygon fill="#63b8ff" stroke="#63b8ff" points="189.77,-540.25 199.77,-536.75 189.77,-533.25 189.77,-540.25"/>
</a>
</g>
</g>
<!-- Node8 -->
<g id="Node000008" class="node">
<title>Node8</title>
<g id="a_Node000008"><a xlink:href="classmqtt_1_1bridge_1_1lib_1_1Broker.html#a95796f4a7ef94d4ca6596fb436bb97ca" target="_top" xlink:title=" ">
<polygon fill="white" stroke="#666666" points="306.12,-501.5 197.12,-501.5 197.12,-468 306.12,-468 306.12,-501.5"/>
<text xml:space="preserve" text-anchor="start" x="205.12" y="-488" font-family="Helvetica,sans-Serif" font-size="10.00">mqtt::bridge::lib::</text>
<text xml:space="preserve" text-anchor="middle" x="251.62" y="-475.25" font-family="Helvetica,sans-Serif" font-size="10.00">Broker::getProtocol</text>
</a>
</g>
</g>
<!-- Node1&#45;&gt;Node8 -->
<g id="edge7_Node000001_Node000008" class="edge">
<title>Node1&#45;&gt;Node8</title>
<g id="a_edge7_Node000001_Node000008"><a xlink:title=" ">
<path fill="none" stroke="#63b8ff" d="M134.5,-519.58C150.92,-514.65 168.95,-509.25 185.8,-504.19"/>
<polygon fill="#63b8ff" stroke="#63b8ff" points="186.64,-507.59 195.22,-501.37 184.63,-500.89 186.64,-507.59"/>
</a>
</g>
</g>
<!-- Node9 -->
<g id="Node000009" class="node">
<title>Node9</title>
<g id="a_Node000009"><a xlink:href="classmqtt_1_1bridge_1_1lib_1_1Broker.html#a42387cd6087e5d11c2bc441a64dfaffc" target="_top" xlink:title=" ">
<polygon fill="white" stroke="#666666" points="301.62,-449.5 201.62,-449.5 201.62,-416 301.62,-416 301.62,-449.5"/>
<text xml:space="preserve" text-anchor="start" x="209.62" y="-436" font-family="Helvetica,sans-Serif" font-size="10.00">mqtt::bridge::lib::</text>
<text xml:space="preserve" text-anchor="middle" x="251.62" y="-423.25" font-family="Helvetica,sans-Serif" font-size="10.00">Broker::getTopics</text>
</a>
</g>
</g>
<!-- Node1&#45;&gt;Node9 -->
<g id="edge8_Node000001_Node000009" class="edge">
<title>Node1&#45;&gt;Node9</title>
<g id="a_edge8_Node000001_Node000009"><a xlink:title=" ">
<path fill="none" stroke="#63b8ff" d="M98.51,-519.76C120.26,-502.89 155.45,-476.97 188.5,-458.75 190.96,-457.39 193.51,-456.06 196.11,-454.76"/>
<polygon fill="#63b8ff" stroke="#63b8ff" points="197.39,-458.03 204.92,-450.57 194.38,-451.7 197.39,-458.03"/>
</a>
</g>
</g>
<!-- Node10 -->
<g id="Node000010" class="node">
<title>Node10</title>
<g id="a_Node000010"><a xlink:href="classmqtt_1_1bridge_1_1lib_1_1Broker.html#ab06b48a9b2540604ca385935b79aa351" target="_top" xlink:title=" ">
<polygon fill="white" stroke="#666666" points="309.12,-397.5 194.12,-397.5 194.12,-364 309.12,-364 309.12,-397.5"/>
<text xml:space="preserve" text-anchor="start" x="202.12" y="-384" font-family="Helvetica,sans-Serif" font-size="10.00">mqtt::bridge::lib::</text>
<text xml:space="preserve" text-anchor="middle" x="251.62" y="-371.25" font-family="Helvetica,sans-Serif" font-size="10.00">Broker::getTransport</text>
</a>
</g>
</g>
<!-- Node1&#45;&gt;Node10 -->
<g id="edge9_Node000001_Node000010" class="edge">
<title>Node1&#45;&gt;Node10</title>
<g id="a_edge9_Node000001_Node000010"><a xlink:title=" ">
<path fill="none" stroke="#63b8ff" d="M87.93,-519.77C105.76,-492.59 144.08,-439.11 188.5,-406.75 190.03,-405.64 191.61,-404.56 193.23,-403.52"/>
<polygon fill="#63b8ff" stroke="#63b8ff" points="194.65,-406.74 201.58,-398.73 191.17,-400.67 194.65,-406.74"/>
</a>
</g>
</g>
<!-- Node11 -->
<g id="Node000011" class="node">
<title>Node11</title>
<g id="a_Node000011"><a xlink:href="classmqtt_1_1bridge_1_1lib_1_1BridgeStore.html#a7b35204686d51d46798ecae6918527e1" target="_top" xlink:title=" ">
<polygon fill="white" stroke="#666666" points="311.75,-345.5 191.5,-345.5 191.5,-312 311.75,-312 311.75,-345.5"/>
<text xml:space="preserve" text-anchor="start" x="199.5" y="-332" font-family="Helvetica,sans-Serif" font-size="10.00">mqtt::bridge::lib::</text>
<text xml:space="preserve" text-anchor="middle" x="251.62" y="-319.25" font-family="Helvetica,sans-Serif" font-size="10.00">BridgeStore::instance</text>
</a>
</g>
</g>
<!-- Node1&#45;&gt;Node11 -->
<g id="edge10_Node000001_Node000011" class="edge">
<title>Node1&#45;&gt;Node11</title>
<g id="a_edge10_Node000001_Node000011"><a xlink:title=" ">
<path fill="none" stroke="#63b8ff" d="M83.54,-519.51C97.28,-484.01 133.28,-402.14 188.5,-354.75 189.57,-353.83 190.68,-352.94 191.82,-352.07"/>
<polygon fill="#63b8ff" stroke="#63b8ff" points="193.38,-355.24 199.83,-346.83 189.55,-349.38 193.38,-355.24"/>
</a>
</g>
</g>
<!-- Node12 -->
<g id="Node000012" class="node">
<title>Node12</title>
<g id="a_Node000012"><a xlink:href="classmqtt_1_1bridge_1_1lib_1_1Mqtt.html#a481f5663cbdc06d8f4d3fd5bc38481e0" target="_top" xlink:title=" ">
<polygon fill="white" stroke="#666666" points="301.62,-293.5 201.62,-293.5 201.62,-260 301.62,-260 301.62,-293.5"/>
<text xml:space="preserve" text-anchor="start" x="209.62" y="-280" font-family="Helvetica,sans-Serif" font-size="10.00">mqtt::bridge::lib::</text>
<text xml:space="preserve" text-anchor="middle" x="251.62" y="-267.25" font-family="Helvetica,sans-Serif" font-size="10.00">Mqtt::Mqtt</text>
</a>
</g>
</g>
<!-- Node1&#45;&gt;Node12 -->
<g id="edge11_Node000001_Node000012" class="edge">
<title>Node1&#45;&gt;Node12</title>
<g id="a_edge11_Node000001_Node000012"><a xlink:title=" ">
<path fill="none" stroke="#63b8ff" d="M80.94,-519.55C90.88,-477.07 122.09,-366.08 188.5,-302.75 189.69,-301.62 190.94,-300.53 192.23,-299.48"/>
<polygon fill="#63b8ff" stroke="#63b8ff" points="193.84,-302.63 200.1,-294.08 189.87,-296.86 193.84,-302.63"/>
</a>
</g>
</g>
<!-- Node12&#45;&gt;Node4 -->
<g id="edge13_Node000012_Node000004" class="edge">
<title>Node12&#45;&gt;Node4</title>
<g id="a_edge13_Node000012_Node000004"><a xlink:title=" ">
<path fill="none" stroke="#63b8ff" d="M301.94,-291.35C306.82,-294.46 311.26,-298.21 314.75,-302.75 385.91,-395.19 294.69,-460.44 350.75,-562.75 362.25,-583.74 382.12,-601.44 400.08,-614.37"/>
<polygon fill="#63b8ff" stroke="#63b8ff" points="397.77,-617.03 407.99,-619.83 401.75,-611.27 397.77,-617.03"/>
</a>
</g>
</g>
<!-- Node13 -->
<g id="Node000013" class="node">
<title>Node13</title>
<g id="a_Node000013"><a xlink:href="classmqtt_1_1bridge_1_1lib_1_1Broker.html#a7ef2ec65092282a8690a4c1f6ddeba8b" target="_top" xlink:title=" ">
<polygon fill="white" stroke="#666666" points="507,-553.5 372.5,-553.5 372.5,-520 507,-520 507,-553.5"/>
<text xml:space="preserve" text-anchor="start" x="380.5" y="-540" font-family="Helvetica,sans-Serif" font-size="10.00">mqtt::bridge::lib::</text>
<text xml:space="preserve" text-anchor="middle" x="439.75" y="-527.25" font-family="Helvetica,sans-Serif" font-size="10.00">Broker::getCleanSession</text>
</a>
</g>
</g>
<!-- Node12&#45;&gt;Node13 -->
<g id="edge12_Node000012_Node000013" class="edge">
<title>Node12&#45;&gt;Node13</title>
<g id="a_edge12_Node000012_Node000013"><a xlink:title=" ">
<path fill="none" stroke="#63b8ff" d="M302.09,-291.66C306.88,-294.7 311.25,-298.36 314.75,-302.75 373.22,-376.12 288.36,-440.68 350.75,-510.75 354.18,-514.6 358.15,-517.9 362.47,-520.71"/>
<polygon fill="#63b8ff" stroke="#63b8ff" points="360.62,-523.69 371.07,-525.41 363.98,-517.55 360.62,-523.69"/>
</a>
</g>
</g>
<!-- Node14 -->
<g id="Node000014" class="node">
<title>Node14</title>
<g id="a_Node000014"><a xlink:href="classmqtt_1_1bridge_1_1lib_1_1Broker.html#a537a5d925a917be20f784ac106bc7d2e" target="_top" xlink:title=" ">
<polygon fill="white" stroke="#666666" points="498.75,-501.5 380.75,-501.5 380.75,-468 498.75,-468 498.75,-501.5"/>
<text xml:space="preserve" text-anchor="start" x="388.75" y="-488" font-family="Helvetica,sans-Serif" font-size="10.00">mqtt::bridge::lib::</text>
<text xml:space="preserve" text-anchor="middle" x="439.75" y="-475.25" font-family="Helvetica,sans-Serif" font-size="10.00">Broker::getKeepAlive</text>
</a>
</g>
</g>
<!-- Node12&#45;&gt;Node14 -->
<g id="edge14_Node000012_Node000014" class="edge">
<title>Node12&#45;&gt;Node14</title>
<g id="a_edge14_Node000012_Node000014"><a xlink:title=" ">
<path fill="none" stroke="#63b8ff" d="M301.85,-291.85C306.69,-294.86 311.13,-298.46 314.75,-302.75 360.62,-357.14 301.98,-406.94 350.75,-458.75 356.23,-464.57 362.94,-469.11 370.2,-472.64"/>
<polygon fill="#63b8ff" stroke="#63b8ff" points="368.38,-475.68 378.96,-476.29 371.07,-469.22 368.38,-475.68"/>
</a>
</g>
</g>
<!-- Node15 -->
<g id="Node000015" class="node">
<title>Node15</title>
<g id="a_Node000015"><a xlink:href="classmqtt_1_1bridge_1_1lib_1_1Broker.html#a12c314cbad6137819c767bc6ead98d3e" target="_top" xlink:title=" ">
<polygon fill="white" stroke="#666666" points="512.25,-449.5 367.25,-449.5 367.25,-416 512.25,-416 512.25,-449.5"/>
<text xml:space="preserve" text-anchor="start" x="375.25" y="-436" font-family="Helvetica,sans-Serif" font-size="10.00">mqtt::bridge::lib::</text>
<text xml:space="preserve" text-anchor="middle" x="439.75" y="-423.25" font-family="Helvetica,sans-Serif" font-size="10.00">Broker::getLoopPrevention</text>
</a>
</g>
</g>
<!-- Node12&#45;&gt;Node15 -->
<g id="edge15_Node000012_Node000015" class="edge">
<title>Node12&#45;&gt;Node15</title>
<g id="a_edge15_Node000012_Node000015"><a xlink:title=" ">
<path fill="none" stroke="#63b8ff" d="M302.02,-292.62C306.7,-295.48 311.07,-298.83 314.75,-302.75 348.23,-338.41 315.38,-372.97 350.75,-406.75 352.82,-408.72 355.03,-410.55 357.35,-412.24"/>
<polygon fill="#63b8ff" stroke="#63b8ff" points="355.16,-415 365.51,-417.29 358.85,-409.05 355.16,-415"/>
</a>
</g>
</g>
<!-- Node16 -->
<g id="Node000016" class="node">
<title>Node16</title>
<g id="a_Node000016"><a xlink:href="classmqtt_1_1bridge_1_1lib_1_1Broker.html#a8b0a98fcc637171cc995cee2a8bd5685" target="_top" xlink:title=" ">
<polygon fill="white" stroke="#666666" points="497.62,-397.5 381.88,-397.5 381.88,-364 497.62,-364 497.62,-397.5"/>
<text xml:space="preserve" text-anchor="start" x="389.88" y="-384" font-family="Helvetica,sans-Serif" font-size="10.00">mqtt::bridge::lib::</text>
<text xml:space="preserve" text-anchor="middle" x="439.75" y="-371.25" font-family="Helvetica,sans-Serif" font-size="10.00">Broker::getPassword</text>
</a>
</g>
</g>
<!-- Node12&#45;&gt;Node16 -->
<g id="edge16_Node000012_Node000016" class="edge">
<title>Node12&#45;&gt;Node16</title>
<g id="a_edge16_Node000012_Node000016"><a xlink:title=" ">
<path fill="none" stroke="#63b8ff" d="M301.33,-293.87C306.09,-296.49 310.66,-299.44 314.75,-302.75 336.59,-320.44 327.98,-338.27 350.75,-354.75 356.91,-359.2 363.83,-362.9 371.01,-365.97"/>
<polygon fill="#63b8ff" stroke="#63b8ff" points="369.65,-369.2 380.25,-369.49 372.15,-362.66 369.65,-369.2"/>
</a>
</g>
</g>
<!-- Node17 -->
<g id="Node000017" class="node">
<title>Node17</title>
<g id="a_Node000017"><a xlink:href="classmqtt_1_1bridge_1_1lib_1_1Broker.html#ad86912ec39c5469f7847a254f9f722ae" target="_top" xlink:title=" ">
<polygon fill="white" stroke="#666666" points="489.75,-345.5 389.75,-345.5 389.75,-312 489.75,-312 489.75,-345.5"/>
<text xml:space="preserve" text-anchor="start" x="397.75" y="-332" font-family="Helvetica,sans-Serif" font-size="10.00">mqtt::bridge::lib::</text>
<text xml:space="preserve" text-anchor="middle" x="439.75" y="-319.25" font-family="Helvetica,sans-Serif" font-size="10.00">Broker::getPrefix</text>
</a>
</g>
</g>
<!-- Node12&#45;&gt;Node17 -->
<g id="edge17_Node000012_Node000017" class="edge">
<title>Node12&#45;&gt;Node17</title>
<g id="a_edge17_Node000012_Node000017"><a xlink:title=" ">
<path fill="none" stroke="#63b8ff" d="M302.01,-290.55C325.46,-297.1 353.68,-304.98 378.38,-311.88"/>
<polygon fill="#63b8ff" stroke="#63b8ff" points="377.42,-315.25 388,-314.57 379.31,-308.51 377.42,-315.25"/>
</a>
</g>
</g>
<!-- Node18 -->
<g id="Node000018" class="node">
<title>Node18</title>
<g id="a_Node000018"><a xlink:href="classmqtt_1_1bridge_1_1lib_1_1Broker.html#a684990f7a76ea49f37375d6f6c6d1ba4" target="_top" xlink:title=" ">
<polygon fill="white" stroke="#666666" points="528.75,-293.5 350.75,-293.5 350.75,-260 528.75,-260 528.75,-293.5"/>
<text xml:space="preserve" text-anchor="start" x="358.75" y="-280" font-family="Helvetica,sans-Serif" font-size="10.00">mqtt::bridge::lib::</text>
<text xml:space="preserve" text-anchor="middle" x="439.75" y="-267.25" font-family="Helvetica,sans-Serif" font-size="10.00">Broker::getSessionStoreFileName</text>
</a>
</g>
</g>
<!-- Node12&#45;&gt;Node18 -->
<g id="edge18_Node000012_Node000018" class="edge">
<title>Node12&#45;&gt;Node18</title>
<g id="a_edge18_Node000012_Node000018"><a xlink:title=" ">
<path fill="none" stroke="#63b8ff" d="M302.01,-276.75C313.51,-276.75 326.15,-276.75 338.97,-276.75"/>
<polygon fill="#63b8ff" stroke="#63b8ff" points="338.74,-280.25 348.74,-276.75 338.74,-273.25 338.74,-280.25"/>
</a>
</g>
</g>
<!-- Node19 -->
<g id="Node000019" class="node">
<title>Node19</title>
<g id="a_Node000019"><a xlink:href="classmqtt_1_1bridge_1_1lib_1_1Broker.html#a750e20fe14960d3a5944ecb03bf7e269" target="_top" xlink:title=" ">
<polygon fill="white" stroke="#666666" points="499.5,-241.5 380,-241.5 380,-208 499.5,-208 499.5,-241.5"/>
<text xml:space="preserve" text-anchor="start" x="388" y="-228" font-family="Helvetica,sans-Serif" font-size="10.00">mqtt::bridge::lib::</text>
<text xml:space="preserve" text-anchor="middle" x="439.75" y="-215.25" font-family="Helvetica,sans-Serif" font-size="10.00">Broker::getUsername</text>
</a>
</g>
</g>
<!-- Node12&#45;&gt;Node19 -->
<g id="edge19_Node000012_Node000019" class="edge">
<title>Node12&#45;&gt;Node19</title>
<g id="a_edge19_Node000012_Node000019"><a xlink:title=" ">
<path fill="none" stroke="#63b8ff" d="M302.01,-262.95C322.38,-257.26 346.34,-250.57 368.48,-244.38"/>
<polygon fill="#63b8ff" stroke="#63b8ff" points="369.37,-247.77 378.06,-241.71 367.48,-241.03 369.37,-247.77"/>
</a>
</g>
</g>
<!-- Node20 -->
<g id="Node000020" class="node">
<title>Node20</title>
<g id="a_Node000020"><a xlink:href="classmqtt_1_1bridge_1_1lib_1_1Broker.html#a6403697d2031730753912aaaf47cb1f4" target="_top" xlink:title=" ">
<polygon fill="white" stroke="#666666" points="505.5,-189.5 374,-189.5 374,-156 505.5,-156 505.5,-189.5"/>
<text xml:space="preserve" text-anchor="start" x="382" y="-176" font-family="Helvetica,sans-Serif" font-size="10.00">mqtt::bridge::lib::</text>
<text xml:space="preserve" text-anchor="middle" x="439.75" y="-163.25" font-family="Helvetica,sans-Serif" font-size="10.00">Broker::getWillMessage</text>
</a>
</g>
</g>
<!-- Node12&#45;&gt;Node20 -->
<g id="edge20_Node000012_Node000020" class="edge">
<title>Node12&#45;&gt;Node20</title>
<g id="a_edge20_Node000012_Node000020"><a xlink:title=" ">
<path fill="none" stroke="#63b8ff" d="M269.95,-259.5C288.48,-241.93 319.47,-215.01 350.75,-198.75 354.69,-196.7 358.82,-194.79 363.05,-193.01"/>
<polygon fill="#63b8ff" stroke="#63b8ff" points="364.25,-196.3 372.29,-189.41 361.7,-189.78 364.25,-196.3"/>
</a>
</g>
</g>
<!-- Node21 -->
<g id="Node000021" class="node">
<title>Node21</title>
<g id="a_Node000021"><a xlink:href="classmqtt_1_1bridge_1_1lib_1_1Broker.html#ae421318ee7d0d6287cdb43d605277a5b" target="_top" xlink:title=" ">
<polygon fill="white" stroke="#666666" points="493.5,-137.5 386,-137.5 386,-104 493.5,-104 493.5,-137.5"/>
<text xml:space="preserve" text-anchor="start" x="394" y="-124" font-family="Helvetica,sans-Serif" font-size="10.00">mqtt::bridge::lib::</text>
<text xml:space="preserve" text-anchor="middle" x="439.75" y="-111.25" font-family="Helvetica,sans-Serif" font-size="10.00">Broker::getWillQoS</text>
</a>
</g>
</g>
<!-- Node12&#45;&gt;Node21 -->
<g id="edge21_Node000012_Node000021" class="edge">
<title>Node12&#45;&gt;Node21</title>
<g id="a_edge21_Node000012_Node000021"><a xlink:title=" ">
<path fill="none" stroke="#63b8ff" d="M260.92,-259.62C275.31,-231.75 307.51,-176.7 350.75,-146.75 358.02,-141.71 366.29,-137.64 374.76,-134.34"/>
<polygon fill="#63b8ff" stroke="#63b8ff" points="375.84,-137.67 384.13,-131.07 373.53,-131.06 375.84,-137.67"/>
</a>
</g>
</g>
<!-- Node22 -->
<g id="Node000022" class="node">
<title>Node22</title>
<g id="a_Node000022"><a xlink:href="classmqtt_1_1bridge_1_1lib_1_1Broker.html#a41d9b2f5e10294198b45d1e217574f60" target="_top" xlink:title=" ">
<polygon fill="white" stroke="#666666" points="499.5,-85.5 380,-85.5 380,-52 499.5,-52 499.5,-85.5"/>
<text xml:space="preserve" text-anchor="start" x="388" y="-72" font-family="Helvetica,sans-Serif" font-size="10.00">mqtt::bridge::lib::</text>
<text xml:space="preserve" text-anchor="middle" x="439.75" y="-59.25" font-family="Helvetica,sans-Serif" font-size="10.00">Broker::getWillRetain</text>
</a>
</g>
</g>
<!-- Node12&#45;&gt;Node22 -->
<g id="edge22_Node000012_Node000022" class="edge">
<title>Node12&#45;&gt;Node22</title>
<g id="a_edge22_Node000012_Node000022"><a xlink:title=" ">
<path fill="none" stroke="#63b8ff" d="M257.03,-259.58C267.19,-223.49 295.7,-139.43 350.75,-94.75 356.27,-90.27 362.54,-86.56 369.13,-83.49"/>
<polygon fill="#63b8ff" stroke="#63b8ff" points="370.35,-86.77 378.29,-79.75 367.71,-80.29 370.35,-86.77"/>
</a>
</g>
</g>
<!-- Node23 -->
<g id="Node000023" class="node">
<title>Node23</title>
<g id="a_Node000023"><a xlink:href="classmqtt_1_1bridge_1_1lib_1_1Broker.html#a345589d52b437b118f272a50df7b4b7d" target="_top" xlink:title=" ">
<polygon fill="white" stroke="#666666" points="496.12,-33.5 383.38,-33.5 383.38,0 496.12,0 496.12,-33.5"/>
<text xml:space="preserve" text-anchor="start" x="391.38" y="-20" font-family="Helvetica,sans-Serif" font-size="10.00">mqtt::bridge::lib::</text>
<text xml:space="preserve" text-anchor="middle" x="439.75" y="-7.25" font-family="Helvetica,sans-Serif" font-size="10.00">Broker::getWillTopic</text>
</a>
</g>
</g>
<!-- Node12&#45;&gt;Node23 -->
<g id="edge23_Node000012_Node000023" class="edge">
<title>Node12&#45;&gt;Node23</title>
<g id="a_edge23_Node000012_Node000023"><a xlink:title=" ">
<path fill="none" stroke="#63b8ff" d="M254.75,-259.76C261.03,-216.81 283.49,-103.01 350.75,-42.75 357.1,-37.06 364.65,-32.61 372.61,-29.14"/>
<polygon fill="#63b8ff" stroke="#63b8ff" points="373.72,-32.46 381.83,-25.64 371.24,-25.91 373.72,-32.46"/>
</a>
</g>
</g>
</g>
</svg>
