<?xml version="1.0" encoding="UTF-8" standalone="no"?>
<!DOCTYPE svg PUBLIC "-//W3C//DTD SVG 1.1//EN"
 "http://www.w3.org/Graphics/SVG/1.1/DTD/svg11.dtd">
<!-- Generated by graphviz version 2.42.4 (0)
 -->
<!-- Title: mqtt::lib::plugins::storage_plugin::Storage::instance Pages: 1 -->
<svg width="494pt" height="290pt"
 viewBox="0.00 0.00 494.00 290.00" xmlns="http://www.w3.org/2000/svg" xmlns:xlink="http://www.w3.org/1999/xlink">
<g id="graph0" class="graph" transform="scale(1 1) rotate(0) translate(4 286)">
<title>mqtt::lib::plugins::storage_plugin::Storage::instance</title>
<!-- Node1 -->
<g id="Node000001" class="node">
<title>Node1</title>
<g id="a_Node000001"><a xlink:title=" ">
<polygon fill="#999999" stroke="#666666" points="486,-168 348,-168 348,-127 486,-127 486,-168"/>
<text text-anchor="start" x="356" y="-156" font-family="Helvetica,sans-Serif" font-size="10.00">mqtt::lib::plugins</text>
<text text-anchor="start" x="356" y="-145" font-family="Helvetica,sans-Serif" font-size="10.00">::storage_plugin::Storage</text>
<text text-anchor="middle" x="417" y="-134" font-family="Helvetica,sans-Serif" font-size="10.00">::instance</text>
</a>
</g>
</g>
<!-- Node2 -->
<g id="Node000002" class="node">
<title>Node2</title>
<g id="a_Node000002"><a xlink:href="classmqtt_1_1lib_1_1plugins_1_1storage__plugin_1_1Storage.html#a59cfa5e554e04283efd19b66e6f5d432" target="_top" xlink:title=" ">
<polygon fill="white" stroke="#666666" points="312,-236 174,-236 174,-195 312,-195 312,-236"/>
<text text-anchor="start" x="182" y="-224" font-family="Helvetica,sans-Serif" font-size="10.00">mqtt::lib::plugins</text>
<text text-anchor="start" x="182" y="-213" font-family="Helvetica,sans-Serif" font-size="10.00">::storage_plugin::Storage</text>
<text text-anchor="middle" x="243" y="-202" font-family="Helvetica,sans-Serif" font-size="10.00">::exists</text>
</a>
</g>
</g>
<!-- Node1&#45;&gt;Node2 -->
<g id="edge1_Node000001_Node000002" class="edge">
<title>Node1&#45;&gt;Node2</title>
<g id="a_edge1_Node000001_Node000002"><a xlink:title=" ">
<path fill="none" stroke="#63b8ff" d="M354.39,-171.86C335.23,-179.43 314.32,-187.7 295.9,-194.98"/>
<polygon fill="#63b8ff" stroke="#63b8ff" points="355.91,-175.02 363.93,-168.09 353.34,-168.51 355.91,-175.02"/>
</a>
</g>
</g>
<!-- Node3 -->
<g id="Node000003" class="node">
<title>Node3</title>
<g id="a_Node000003"><a xlink:href="classmqtt_1_1lib_1_1plugins_1_1storage__plugin_1_1Storage.html#a5d4c71bb66d3ca2fdc043a36fbb7e2aa" target="_top" xlink:title=" ">
<polygon fill="white" stroke="#666666" points="138,-282 0,-282 0,-241 138,-241 138,-282"/>
<text text-anchor="start" x="8" y="-270" font-family="Helvetica,sans-Serif" font-size="10.00">mqtt::lib::plugins</text>
<text text-anchor="start" x="8" y="-259" font-family="Helvetica,sans-Serif" font-size="10.00">::storage_plugin::Storage</text>
<text text-anchor="middle" x="69" y="-248" font-family="Helvetica,sans-Serif" font-size="10.00">::is_empty</text>
</a>
</g>
</g>
<!-- Node1&#45;&gt;Node3 -->
<g id="edge5_Node000001_Node000003" class="edge">
<title>Node1&#45;&gt;Node3</title>
<g id="a_edge5_Node000001_Node000003"><a xlink:title=" ">
<path fill="none" stroke="#63b8ff" d="M394.68,-176.52C375.81,-199.7 346.03,-230.67 312,-245.5 256.99,-269.46 188.24,-271.71 138.09,-268.99"/>
<polygon fill="#63b8ff" stroke="#63b8ff" points="397.66,-178.39 401.13,-168.38 392.18,-174.05 397.66,-178.39"/>
</a>
</g>
</g>
<!-- Node4 -->
<g id="Node000004" class="node">
<title>Node4</title>
<g id="a_Node000004"><a xlink:href="classmqtt_1_1lib_1_1plugins_1_1storage__plugin_1_1Storage.html#a50175b9a412c4088905279d60ff8a899" target="_top" xlink:title=" ">
<polygon fill="white" stroke="#666666" points="138,-221 0,-221 0,-180 138,-180 138,-221"/>
<text text-anchor="start" x="8" y="-209" font-family="Helvetica,sans-Serif" font-size="10.00">mqtt::lib::plugins</text>
<text text-anchor="start" x="8" y="-198" font-family="Helvetica,sans-Serif" font-size="10.00">::storage_plugin::Storage</text>
<text text-anchor="middle" x="69" y="-187" font-family="Helvetica,sans-Serif" font-size="10.00">::recall_as_float</text>
</a>
</g>
</g>
<!-- Node1&#45;&gt;Node4 -->
<g id="edge7_Node000001_Node000004" class="edge">
<title>Node1&#45;&gt;Node4</title>
<g id="a_edge7_Node000001_Node000004"><a xlink:title=" ">
<path fill="none" stroke="#63b8ff" d="M337.45,-159.53C277.42,-168.73 195.52,-181.27 138.22,-190.05"/>
<polygon fill="#63b8ff" stroke="#63b8ff" points="338.29,-162.94 347.64,-157.97 337.23,-156.03 338.29,-162.94"/>
</a>
</g>
</g>
<!-- Node5 -->
<g id="Node000005" class="node">
<title>Node5</title>
<g id="a_Node000005"><a xlink:href="classmqtt_1_1lib_1_1plugins_1_1storage__plugin_1_1Storage.html#a70768017593ed8cf0a8555c3ebebaa18" target="_top" xlink:title=" ">
<polygon fill="white" stroke="#666666" points="138,-158 0,-158 0,-117 138,-117 138,-158"/>
<text text-anchor="start" x="8" y="-146" font-family="Helvetica,sans-Serif" font-size="10.00">mqtt::lib::plugins</text>
<text text-anchor="start" x="8" y="-135" font-family="Helvetica,sans-Serif" font-size="10.00">::storage_plugin::Storage</text>
<text text-anchor="middle" x="69" y="-124" font-family="Helvetica,sans-Serif" font-size="10.00">::recall_as_int</text>
</a>
</g>
</g>
<!-- Node1&#45;&gt;Node5 -->
<g id="edge8_Node000001_Node000005" class="edge">
<title>Node1&#45;&gt;Node5</title>
<g id="a_edge8_Node000001_Node000005"><a xlink:title=" ">
<path fill="none" stroke="#63b8ff" d="M337.45,-145.23C277.42,-143.49 195.52,-141.13 138.22,-139.47"/>
<polygon fill="#63b8ff" stroke="#63b8ff" points="337.54,-148.73 347.64,-145.52 337.75,-141.74 337.54,-148.73"/>
</a>
</g>
</g>
<!-- Node6 -->
<g id="Node000006" class="node">
<title>Node6</title>
<g id="a_Node000006"><a xlink:href="classmqtt_1_1lib_1_1plugins_1_1storage__plugin_1_1Storage.html#a594347f9cee41b91bcb9da36dddfd1ec" target="_top" xlink:title=" ">
<polygon fill="white" stroke="#666666" points="312,-100 174,-100 174,-59 312,-59 312,-100"/>
<text text-anchor="start" x="182" y="-88" font-family="Helvetica,sans-Serif" font-size="10.00">mqtt::lib::plugins</text>
<text text-anchor="start" x="182" y="-77" font-family="Helvetica,sans-Serif" font-size="10.00">::storage_plugin::Storage</text>
<text text-anchor="middle" x="243" y="-66" font-family="Helvetica,sans-Serif" font-size="10.00">::recall</text>
</a>
</g>
</g>
<!-- Node1&#45;&gt;Node6 -->
<g id="edge6_Node000001_Node000006" class="edge">
<title>Node1&#45;&gt;Node6</title>
<g id="a_edge6_Node000001_Node000006"><a xlink:title=" ">
<path fill="none" stroke="#63b8ff" d="M354.39,-123.14C335.23,-115.57 314.32,-107.3 295.9,-100.02"/>
<polygon fill="#63b8ff" stroke="#63b8ff" points="353.34,-126.49 363.93,-126.91 355.91,-119.98 353.34,-126.49"/>
</a>
</g>
</g>
<!-- Node7 -->
<g id="Node000007" class="node">
<title>Node7</title>
<g id="a_Node000007"><a xlink:href="classmqtt_1_1lib_1_1plugins_1_1storage__plugin_1_1Storage.html#a0240da97e9fb3f6c9c5a13bf2b22bf69" target="_top" xlink:title=" ">
<polygon fill="white" stroke="#666666" points="312,-41 174,-41 174,0 312,0 312,-41"/>
<text text-anchor="start" x="182" y="-29" font-family="Helvetica,sans-Serif" font-size="10.00">mqtt::lib::plugins</text>
<text text-anchor="start" x="182" y="-18" font-family="Helvetica,sans-Serif" font-size="10.00">::storage_plugin::Storage</text>
<text text-anchor="middle" x="243" y="-7" font-family="Helvetica,sans-Serif" font-size="10.00">::store</text>
</a>
</g>
</g>
<!-- Node1&#45;&gt;Node7 -->
<g id="edge9_Node000001_Node000007" class="edge">
<title>Node1&#45;&gt;Node7</title>
<g id="a_edge9_Node000001_Node000007"><a xlink:title=" ">
<path fill="none" stroke="#63b8ff" d="M391.35,-119.39C371.54,-98.09 342.14,-69.22 312,-49.5 307.38,-46.48 302.4,-43.65 297.3,-41.04"/>
<polygon fill="#63b8ff" stroke="#63b8ff" points="388.86,-121.85 398.19,-126.86 394.02,-117.13 388.86,-121.85"/>
</a>
</g>
</g>
<!-- Node2&#45;&gt;Node3 -->
<g id="edge2_Node000002_Node000003" class="edge">
<title>Node2&#45;&gt;Node3</title>
<g id="a_edge2_Node000002_Node000003"><a xlink:title=" ">
<path fill="none" stroke="#63b8ff" d="M163.64,-236.46C155.16,-238.72 146.58,-241.02 138.24,-243.25"/>
<polygon fill="#63b8ff" stroke="#63b8ff" points="164.77,-239.78 173.53,-233.81 162.96,-233.02 164.77,-239.78"/>
</a>
</g>
</g>
<!-- Node2&#45;&gt;Node4 -->
<g id="edge3_Node000002_Node000004" class="edge">
<title>Node2&#45;&gt;Node4</title>
<g id="a_edge3_Node000002_Node000004"><a xlink:title=" ">
<path fill="none" stroke="#63b8ff" d="M163.36,-208.64C154.97,-207.91 146.49,-207.17 138.24,-206.45"/>
<polygon fill="#63b8ff" stroke="#63b8ff" points="163.26,-212.15 173.53,-209.53 163.87,-205.17 163.26,-212.15"/>
</a>
</g>
</g>
<!-- Node2&#45;&gt;Node5 -->
<g id="edge4_Node000002_Node000005" class="edge">
<title>Node2&#45;&gt;Node5</title>
<g id="a_edge4_Node000002_Node000005"><a xlink:title=" ">
<path fill="none" stroke="#63b8ff" d="M187.01,-190.56C163.86,-180.06 137.25,-168 115.26,-158.02"/>
<polygon fill="#63b8ff" stroke="#63b8ff" points="185.81,-193.86 196.36,-194.8 188.7,-187.48 185.81,-193.86"/>
</a>
</g>
</g>
</g>
</svg>
