<?xml version="1.0" encoding="UTF-8" standalone="no"?>
<!DOCTYPE svg PUBLIC "-//W3C//DTD SVG 1.1//EN"
 "http://www.w3.org/Graphics/SVG/1.1/DTD/svg11.dtd">
<!-- Generated by graphviz version 14.1.2 (0)
 -->
<!-- Title: mqtt::mqttstore::lib::StoragePlan::fromJson Pages: 1 -->
<!--zoomable 312 -->

<svg id="main" version="1.1" xmlns="http://www.w3.org/2000/svg" xmlns:xlink="http://www.w3.org/1999/xlink" xml:space="preserve" onload="init(evt)">

<style type="text/css"><![CDATA[
.node, .edge {opacity: 0.7;}
.node.selected, .edge.selected {opacity: 1;}
.edge:hover path { stroke: red; }
.edge:hover polygon { stroke: red; fill: red; }
]]></style>

<defs>
  <circle id="rim" cx="0" cy="0" r="7"/>
  <circle id="rim2" cx="0" cy="0" r="3.5"/>
  <g id="zoomPlus">
    <use xlink:href="#rim" fill="#404040"><set attributeName="fill" to="#808080" begin="zoomplus.mouseover" end="zoomplus.mouseout"/></use>
    <path d="M-4,0h8M0,-4v8" fill="none" stroke="white" stroke-width="1.5" pointer-events="none"/>
  </g>
  <g id="zoomMin">
    <use xlink:href="#rim" fill="#404040"><set attributeName="fill" to="#808080" begin="zoomminus.mouseover" end="zoomminus.mouseout"/></use>
    <path d="M-4,0h8" fill="none" stroke="white" stroke-width="1.5" pointer-events="none"/>
  </g>
  <g id="arrowUp" transform="translate(30 24)">
    <use xlink:href="#rim"/>
    <path pointer-events="none" fill="none" stroke="white" stroke-width="1.5" d="M0,-3.0v7 M-2.5,-0.5L0,-3.0L2.5,-0.5"/>
  </g>
  <g id="arrowRight" transform="rotate(90) translate(36 -43)">
    <use xlink:href="#rim"/>
    <path pointer-events="none" fill="none" stroke="white" stroke-width="1.5" d="M0,-3.0v7 M-2.5,-0.5L0,-3.0L2.5,-0.5"/>
  </g>
  <g id="arrowDown" transform="rotate(180) translate(-30 -48)">
    <use xlink:href="#rim"/>
    <path pointer-events="none" fill="none" stroke="white" stroke-width="1.5" d="M0,-3.0v7 M-2.5,-0.5L0,-3.0L2.5,-0.5"/>
  </g>
  <g id="arrowLeft" transform="rotate(270) translate(-36 17)">
    <use xlink:href="#rim"/>
    <path pointer-events="none" fill="none" stroke="white" stroke-width="1.5" d="M0,-3.0v7 M-2.5,-0.5L0,-3.0L2.5,-0.5"/>
  </g>
  <g id="resetDef">
    <use xlink:href="#rim2" fill="#404040"><set attributeName="fill" to="#808080" begin="reset.mouseover" end="reset.mouseout"/></use>
  </g>
</defs>
<script type="application/ecmascript">
var viewWidth = 1075;
var viewHeight = 312;
var sectionId = 'dynsection-3';
</script>
<script type="application/ecmascript" xlink:href="svg.min.js"/>
<svg id="graph" class="graph">
<g id="viewport">
<title>mqtt::mqttstore::lib::StoragePlan::fromJson</title>
<!-- Node1 -->
<g id="Node000001" class="node">
<title>Node1</title>
<g id="a_Node000001"><a xlink:title=" ">
<polygon fill="#999999" stroke="#666666" points="130,-145.88 0,-145.88 0,-112.38 130,-112.38 130,-145.88"/>
<text xml:space="preserve" text-anchor="start" x="8" y="-132.38" font-family="Helvetica,sans-Serif" font-size="10.00">mqtt::mqttstore::lib</text>
<text xml:space="preserve" text-anchor="middle" x="65" y="-119.62" font-family="Helvetica,sans-Serif" font-size="10.00">::StoragePlan::fromJson</text>
</a>
</g>
</g>
<!-- Node2 -->
<g id="Node000002" class="node">
<title>Node2</title>
<g id="a_Node000002"><a xlink:href="namespacemqtt_1_1mqttstore_1_1lib_1_1anonymous__namespace_02StoragePlan_8cpp_03.html#a98bde28ee9174aba6a9f109fd2918b87" target="_top" xlink:title=" ">
<polygon fill="white" stroke="#666666" points="321.5,-158.62 166,-158.62 166,-99.62 321.5,-99.62 321.5,-158.62"/>
<text xml:space="preserve" text-anchor="start" x="174" y="-145.12" font-family="Helvetica,sans-Serif" font-size="10.00">mqtt::mqttstore::lib</text>
<text xml:space="preserve" text-anchor="start" x="174" y="-132.38" font-family="Helvetica,sans-Serif" font-size="10.00">::anonymous_namespace</text>
<text xml:space="preserve" text-anchor="start" x="174" y="-119.62" font-family="Helvetica,sans-Serif" font-size="10.00">{StoragePlan::cpp}::validate</text>
<text xml:space="preserve" text-anchor="middle" x="243.75" y="-106.88" font-family="Helvetica,sans-Serif" font-size="10.00">ProjectionConfiguration</text>
</a>
</g>
</g>
<!-- Node1&#45;&gt;Node2 -->
<g id="edge1_Node000001_Node000002" class="edge">
<title>Node1&#45;&gt;Node2</title>
<g id="a_edge1_Node000001_Node000002"><a xlink:title=" ">
<path fill="none" stroke="#63b8ff" d="M130.31,-129.12C138.09,-129.12 146.14,-129.12 154.2,-129.12"/>
<polygon fill="#63b8ff" stroke="#63b8ff" points="154.04,-132.63 164.04,-129.13 154.04,-125.63 154.04,-132.63"/>
</a>
</g>
</g>
<!-- Node3 -->
<g id="Node000003" class="node">
<title>Node3</title>
<g id="a_Node000003"><a xlink:href="namespacenlohmann_1_1json__schema.html#aa85e264f222e36fe1108824f0699db71" target="_top" xlink:title=" ">
<polygon fill="white" stroke="#666666" points="526.88,-177.88 365.38,-177.88 365.38,-144.38 526.88,-144.38 526.88,-177.88"/>
<text xml:space="preserve" text-anchor="start" x="373.38" y="-164.38" font-family="Helvetica,sans-Serif" font-size="10.00">nlohmann::json_schema</text>
<text xml:space="preserve" text-anchor="middle" x="446.12" y="-151.62" font-family="Helvetica,sans-Serif" font-size="10.00">::default_string_format_check</text>
</a>
</g>
</g>
<!-- Node2&#45;&gt;Node3 -->
<g id="edge2_Node000002_Node000003" class="edge">
<title>Node2&#45;&gt;Node3</title>
<g id="a_edge2_Node000002_Node000003"><a xlink:title=" ">
<path fill="none" stroke="#63b8ff" d="M321.93,-141.45C332.41,-143.12 343.24,-144.85 353.93,-146.56"/>
<polygon fill="#63b8ff" stroke="#63b8ff" points="353.07,-149.97 363.5,-148.09 354.18,-143.06 353.07,-149.97"/>
</a>
</g>
</g>
<!-- Node11 -->
<g id="Node000011" class="node">
<title>Node11</title>
<g id="a_Node000011"><a xlink:href="classmqtt_1_1mqttstore_1_1lib_1_1anonymous__namespace_02StoragePlan_8cpp_03_1_1ProjectionValidationErrorHandler.html#a4ad111655d47dba4f064a22b83e119e4" target="_top" xlink:title=" ">
<polygon fill="white" stroke="#666666" points="534.75,-126.62 357.5,-126.62 357.5,-67.62 534.75,-67.62 534.75,-126.62"/>
<text xml:space="preserve" text-anchor="start" x="365.5" y="-113.12" font-family="Helvetica,sans-Serif" font-size="10.00">mqtt::mqttstore::lib</text>
<text xml:space="preserve" text-anchor="start" x="365.5" y="-100.38" font-family="Helvetica,sans-Serif" font-size="10.00">::anonymous_namespace</text>
<text xml:space="preserve" text-anchor="start" x="365.5" y="-87.62" font-family="Helvetica,sans-Serif" font-size="10.00">{StoragePlan::cpp}::Projection</text>
<text xml:space="preserve" text-anchor="middle" x="446.12" y="-74.88" font-family="Helvetica,sans-Serif" font-size="10.00">ValidationErrorHandler::message</text>
</a>
</g>
</g>
<!-- Node2&#45;&gt;Node11 -->
<g id="edge13_Node000002_Node000011" class="edge">
<title>Node2&#45;&gt;Node11</title>
<g id="a_edge13_Node000002_Node000011"><a xlink:title=" ">
<path fill="none" stroke="#63b8ff" d="M321.93,-116.8C329.8,-115.54 337.87,-114.25 345.93,-112.97"/>
<polygon fill="#63b8ff" stroke="#63b8ff" points="346.48,-116.42 355.8,-111.39 345.37,-109.51 346.48,-116.42"/>
</a>
</g>
</g>
<!-- Node4 -->
<g id="Node000004" class="node">
<title>Node4</title>
<g id="a_Node000004"><a xlink:href="smtp-address-validator_8cpp.html#a53806bb45aaea546415c64f8612328bf" target="_top" xlink:title=" ">
<polygon fill="white" stroke="#666666" points="674.5,-303.5 606.75,-303.5 606.75,-282.75 674.5,-282.75 674.5,-303.5"/>
<text xml:space="preserve" text-anchor="middle" x="640.62" y="-290" font-family="Helvetica,sans-Serif" font-size="10.00">is_address</text>
</a>
</g>
</g>
<!-- Node3&#45;&gt;Node4 -->
<g id="edge3_Node000003_Node000004" class="edge">
<title>Node3&#45;&gt;Node4</title>
<g id="a_edge3_Node000003_Node000004"><a xlink:title=" ">
<path fill="none" stroke="#63b8ff" d="M461.31,-178.16C482.61,-202.66 525.24,-247.71 570.75,-273.12 578.38,-277.39 587.01,-280.82 595.52,-283.55"/>
<polygon fill="#63b8ff" stroke="#63b8ff" points="594.49,-286.9 605.07,-286.33 596.45,-280.18 594.49,-286.9"/>
</a>
</g>
</g>
<!-- Node5 -->
<g id="Node000005" class="node">
<title>Node5</title>
<g id="a_Node000005"><a xlink:href="namespaceanonymous__namespace_02string-format-check_8cpp_03.html#a63b1fb98ca5a11d6c9c782a5f117d8bb" target="_top" xlink:title=" ">
<polygon fill="white" stroke="#666666" points="707.88,-264.25 573.38,-264.25 573.38,-218 707.88,-218 707.88,-264.25"/>
<text xml:space="preserve" text-anchor="start" x="581.38" y="-250.75" font-family="Helvetica,sans-Serif" font-size="10.00">anonymous_namespace</text>
<text xml:space="preserve" text-anchor="start" x="581.38" y="-238" font-family="Helvetica,sans-Serif" font-size="10.00">{string&#45;format&#45;check</text>
<text xml:space="preserve" text-anchor="middle" x="640.62" y="-225.25" font-family="Helvetica,sans-Serif" font-size="10.00">::cpp}::is_ascii</text>
</a>
</g>
</g>
<!-- Node3&#45;&gt;Node5 -->
<g id="edge4_Node000003_Node000005" class="edge">
<title>Node3&#45;&gt;Node5</title>
<g id="a_edge4_Node000003_Node000005"><a xlink:title=" ">
<path fill="none" stroke="#63b8ff" d="M488.42,-178.29C512.91,-188.46 544.54,-201.61 572.53,-213.24"/>
<polygon fill="#63b8ff" stroke="#63b8ff" points="571.09,-216.43 581.66,-217.04 573.77,-209.97 571.09,-216.43"/>
</a>
</g>
</g>
<!-- Node6 -->
<g id="Node000006" class="node">
<title>Node6</title>
<g id="a_Node000006"><a xlink:href="namespaceanonymous__namespace_02string-format-check_8cpp_03.html#abc6a6f514b36ca48ec57a49552b4a7ff" target="_top" xlink:title=" ">
<polygon fill="white" stroke="#666666" points="895.62,-187.25 746.88,-187.25 746.88,-141 895.62,-141 895.62,-187.25"/>
<text xml:space="preserve" text-anchor="start" x="754.88" y="-173.75" font-family="Helvetica,sans-Serif" font-size="10.00">anonymous_namespace</text>
<text xml:space="preserve" text-anchor="start" x="754.88" y="-161" font-family="Helvetica,sans-Serif" font-size="10.00">{string&#45;format&#45;check</text>
<text xml:space="preserve" text-anchor="middle" x="821.25" y="-148.25" font-family="Helvetica,sans-Serif" font-size="10.00">::cpp}::rfc3339_date_check</text>
</a>
</g>
</g>
<!-- Node3&#45;&gt;Node6 -->
<g id="edge5_Node000003_Node000006" class="edge">
<title>Node3&#45;&gt;Node6</title>
<g id="a_edge5_Node000003_Node000006"><a xlink:title=" ">
<path fill="none" stroke="#63b8ff" d="M527.2,-168.55C541.68,-169.62 556.66,-170.56 570.75,-171.12 632.81,-173.63 648.42,-173.1 710.5,-171.12 718.5,-170.87 726.83,-170.51 735.16,-170.09"/>
<polygon fill="#63b8ff" stroke="#63b8ff" points="735.18,-173.59 744.98,-169.56 734.8,-166.6 735.18,-173.59"/>
</a>
</g>
</g>
<!-- Node8 -->
<g id="Node000008" class="node">
<title>Node8</title>
<g id="a_Node000008"><a xlink:href="namespaceanonymous__namespace_02string-format-check_8cpp_03.html#a75d27cfe891533a99a33c21e2fcc8089" target="_top" xlink:title=" ">
<polygon fill="white" stroke="#666666" points="707.88,-161.62 573.38,-161.62 573.38,-102.62 707.88,-102.62 707.88,-161.62"/>
<text xml:space="preserve" text-anchor="start" x="581.38" y="-148.12" font-family="Helvetica,sans-Serif" font-size="10.00">anonymous_namespace</text>
<text xml:space="preserve" text-anchor="start" x="581.38" y="-135.38" font-family="Helvetica,sans-Serif" font-size="10.00">{string&#45;format&#45;check</text>
<text xml:space="preserve" text-anchor="start" x="581.38" y="-122.62" font-family="Helvetica,sans-Serif" font-size="10.00">::cpp}::rfc3339_date</text>
<text xml:space="preserve" text-anchor="middle" x="640.62" y="-109.88" font-family="Helvetica,sans-Serif" font-size="10.00">_time_check</text>
</a>
</g>
</g>
<!-- Node3&#45;&gt;Node8 -->
<g id="edge7_Node000003_Node000008" class="edge">
<title>Node3&#45;&gt;Node8</title>
<g id="a_edge7_Node000003_Node000008"><a xlink:title=" ">
<path fill="none" stroke="#63b8ff" d="M527.37,-149.04C538.74,-147.32 550.42,-145.56 561.75,-143.86"/>
<polygon fill="#63b8ff" stroke="#63b8ff" points="562.07,-147.35 571.44,-142.4 561.03,-140.43 562.07,-147.35"/>
</a>
</g>
</g>
<!-- Node9 -->
<g id="Node000009" class="node">
<title>Node9</title>
<g id="a_Node000009"><a xlink:href="namespaceanonymous__namespace_02string-format-check_8cpp_03.html#a94b42f28f7bbba3d1292744b2d3c4760" target="_top" xlink:title=" ">
<polygon fill="white" stroke="#666666" points="896,-123.25 746.5,-123.25 746.5,-77 896,-77 896,-123.25"/>
<text xml:space="preserve" text-anchor="start" x="754.5" y="-109.75" font-family="Helvetica,sans-Serif" font-size="10.00">anonymous_namespace</text>
<text xml:space="preserve" text-anchor="start" x="754.5" y="-97" font-family="Helvetica,sans-Serif" font-size="10.00">{string&#45;format&#45;check</text>
<text xml:space="preserve" text-anchor="middle" x="821.25" y="-84.25" font-family="Helvetica,sans-Serif" font-size="10.00">::cpp}::rfc3339_time_check</text>
</a>
</g>
</g>
<!-- Node3&#45;&gt;Node9 -->
<g id="edge11_Node000003_Node000009" class="edge">
<title>Node3&#45;&gt;Node9</title>
<g id="a_edge11_Node000003_Node000009"><a xlink:title=" ">
<path fill="none" stroke="#63b8ff" d="M520.31,-143.88C525.35,-141.6 530.22,-139.03 534.75,-136.12 555.45,-122.86 548.41,-104.4 570.75,-94.12 621.71,-70.69 684.94,-72.49 734.99,-80"/>
<polygon fill="#63b8ff" stroke="#63b8ff" points="734.18,-83.41 744.61,-81.55 735.3,-76.5 734.18,-83.41"/>
</a>
</g>
</g>
<!-- Node10 -->
<g id="Node000010" class="node">
<title>Node10</title>
<g id="a_Node000010"><a xlink:href="namespaceanonymous__namespace_02string-format-check_8cpp_03.html#ad0a9f022f6535a5a8b5357b284a039a9" target="_top" xlink:title=" ">
<polygon fill="white" stroke="#666666" points="710.5,-46.25 570.75,-46.25 570.75,0 710.5,0 710.5,-46.25"/>
<text xml:space="preserve" text-anchor="start" x="578.75" y="-32.75" font-family="Helvetica,sans-Serif" font-size="10.00">anonymous_namespace</text>
<text xml:space="preserve" text-anchor="start" x="578.75" y="-20" font-family="Helvetica,sans-Serif" font-size="10.00">{string&#45;format&#45;check</text>
<text xml:space="preserve" text-anchor="middle" x="640.62" y="-7.25" font-family="Helvetica,sans-Serif" font-size="10.00">::cpp}::rfc3986_uri_check</text>
</a>
</g>
</g>
<!-- Node3&#45;&gt;Node10 -->
<g id="edge12_Node000003_Node000010" class="edge">
<title>Node3&#45;&gt;Node10</title>
<g id="a_edge12_Node000003_Node000010"><a xlink:title=" ">
<path fill="none" stroke="#63b8ff" d="M523.38,-144.01C527.42,-141.71 531.25,-139.09 534.75,-136.12 563.26,-111.96 545,-87.21 570.75,-60.12 572.99,-57.77 575.4,-55.54 577.95,-53.42"/>
<polygon fill="#63b8ff" stroke="#63b8ff" points="579.89,-56.34 585.82,-47.56 575.71,-50.72 579.89,-56.34"/>
</a>
</g>
</g>
<!-- Node7 -->
<g id="Node000007" class="node">
<title>Node7</title>
<g id="a_Node000007"><a xlink:href="namespaceanonymous__namespace_02string-format-check_8cpp_03.html#a6340a152b415fab84af156f3afff080b" target="_top" xlink:title=" ">
<polygon fill="white" stroke="#666666" points="1066.5,-155.25 932,-155.25 932,-109 1066.5,-109 1066.5,-155.25"/>
<text xml:space="preserve" text-anchor="start" x="940" y="-141.75" font-family="Helvetica,sans-Serif" font-size="10.00">anonymous_namespace</text>
<text xml:space="preserve" text-anchor="start" x="940" y="-129" font-family="Helvetica,sans-Serif" font-size="10.00">{string&#45;format&#45;check</text>
<text xml:space="preserve" text-anchor="middle" x="999.25" y="-116.25" font-family="Helvetica,sans-Serif" font-size="10.00">::cpp}::range_check</text>
</a>
</g>
</g>
<!-- Node6&#45;&gt;Node7 -->
<g id="edge6_Node000006_Node000007" class="edge">
<title>Node6&#45;&gt;Node7</title>
<g id="a_edge6_Node000006_Node000007"><a xlink:title=" ">
<path fill="none" stroke="#63b8ff" d="M896.12,-150.69C904.12,-149.24 912.27,-147.76 920.31,-146.3"/>
<polygon fill="#63b8ff" stroke="#63b8ff" points="920.87,-149.75 930.08,-144.52 919.61,-142.87 920.87,-149.75"/>
</a>
</g>
</g>
<!-- Node8&#45;&gt;Node6 -->
<g id="edge8_Node000008_Node000006" class="edge">
<title>Node8&#45;&gt;Node6</title>
<g id="a_edge8_Node000008_Node000006"><a xlink:title=" ">
<path fill="none" stroke="#63b8ff" d="M708.14,-144.04C717.02,-145.63 726.23,-147.28 735.38,-148.92"/>
<polygon fill="#63b8ff" stroke="#63b8ff" points="734.53,-152.32 744.99,-150.64 735.76,-145.43 734.53,-152.32"/>
</a>
</g>
</g>
<!-- Node8&#45;&gt;Node9 -->
<g id="edge9_Node000008_Node000009" class="edge">
<title>Node8&#45;&gt;Node9</title>
<g id="a_edge9_Node000008_Node000009"><a xlink:title=" ">
<path fill="none" stroke="#63b8ff" d="M708.14,-120.21C716.86,-118.65 725.88,-117.03 734.86,-115.42"/>
<polygon fill="#63b8ff" stroke="#63b8ff" points="735.46,-118.87 744.68,-113.66 734.22,-111.98 735.46,-118.87"/>
</a>
</g>
</g>
<!-- Node9&#45;&gt;Node7 -->
<g id="edge10_Node000009_Node000007" class="edge">
<title>Node9&#45;&gt;Node7</title>
<g id="a_edge10_Node000009_Node000007"><a xlink:title=" ">
<path fill="none" stroke="#63b8ff" d="M896.38,-113.6C904.36,-115.05 912.5,-116.53 920.52,-117.99"/>
<polygon fill="#63b8ff" stroke="#63b8ff" points="919.8,-121.42 930.27,-119.76 921.06,-114.53 919.8,-121.42"/>
</a>
</g>
</g>
</g>
</svg>

<g id="navigator" transform="translate(0 0)" fill="#404254">
  <rect fill="#f2f5e9" fill-opacity="0.5" stroke="#606060" stroke-width=".5" x="0" y="0" width="60" height="60"/>
  <use id="zoomplus" xlink:href="#zoomPlus" x="17" y="9" onmousedown="handleZoom(evt,'in')"/>
  <use id="zoomminus" xlink:href="#zoomMin" x="42" y="9" onmousedown="handleZoom(evt,'out')"/>
  <use id="reset" xlink:href="#resetDef" x="30" y="36" onmousedown="handleReset()"/>
   <use id="arrowup" xlink:href="#arrowUp" x="0" y="0" onmousedown="handlePan(0,-1)"/>
  <use id="arrowright" xlink:href="#arrowRight" x="0" y="0" onmousedown="handlePan(1,0)"/>
  <use id="arrowdown" xlink:href="#arrowDown" x="0" y="0" onmousedown="handlePan(0,1)"/>
  <use id="arrowleft" xlink:href="#arrowLeft" x="0" y="0" onmousedown="handlePan(-1,0)"/>
</g>
<svg viewBox="0 0 15 15" width="100%" height="30px" preserveAspectRatio="xMaxYMin meet">
 <g id="arrow_out" transform="scale(0.3 0.3)">
  <a xlink:href="classmqtt_1_1mqttstore_1_1lib_1_1StoragePlan_a7c43d857a7aec16b02864f80f80dda05_cgraph_org.svg" target="_base">
   <rect id="button" ry="5" rx="5" y="6" x="6" height="38" width="38"
        fill="#f2f5e9" fill-opacity="0.5" stroke="#606060" stroke-width="1.0"/>
   <path id="arrow"
     d="M 11.500037,31.436501 C 11.940474,20.09759 22.043105,11.32322 32.158766,21.979434 L 37.068811,17.246167 C 37.068811,17.246167 37.088388,32 37.088388,32 L 22.160133,31.978069 C 22.160133,31.978069 26.997745,27.140456 26.997745,27.140456 C 18.528582,18.264221 13.291696,25.230495 11.500037,31.436501 z"
     style="fill:#404040;"/>
  </a>
 </g>
</svg>

<style type='text/css'>
<![CDATA[
[data-mouse-over-selected='false'] { opacity: 0.7; }
[data-mouse-over-selected='true']  { opacity: 1.0; }
]]>
</style>
<script type="application/ecmascript"><![CDATA[
document.addEventListener('DOMContentLoaded', (event) => {
  highlightEdges();
  highlightAdjacentNodes();
});
]]></script>
</svg>
