<?xml version="1.0" encoding="UTF-8" standalone="no"?>
<!DOCTYPE svg PUBLIC "-//W3C//DTD SVG 1.1//EN"
 "http://www.w3.org/Graphics/SVG/1.1/DTD/svg11.dtd">
<!-- Generated by graphviz version 2.42.4 (0)
 -->
<!-- Title: mqtt::bridge::lib::BridgeStore::loadAndValidate Pages: 1 -->
<!--zoomable 609 -->

<svg id="main" version="1.1" xmlns="http://www.w3.org/2000/svg" xmlns:xlink="http://www.w3.org/1999/xlink" xml:space="preserve" onload="init(evt)">
<style type="text/css"><![CDATA[
.node, .edge {opacity: 0.7;}
.node.selected, .edge.selected {opacity: 1;}
.edge:hover path { stroke: red; }
.edge:hover polygon { stroke: red; fill: red; }
]]></style>

<defs>
  <circle id="rim" cx="0" cy="0" r="7"/>
  <circle id="rim2" cx="0" cy="0" r="3.5"/>
  <g id="zoomPlus">
    <use xlink:href="#rim" fill="#404040"><set attributeName="fill" to="#808080" begin="zoomplus.mouseover" end="zoomplus.mouseout"/></use>
    <path d="M-4,0h8M0,-4v8" fill="none" stroke="white" stroke-width="1.5" pointer-events="none"/>
  </g>
  <g id="zoomMin">
    <use xlink:href="#rim" fill="#404040"><set attributeName="fill" to="#808080" begin="zoomminus.mouseover" end="zoomminus.mouseout"/></use>
    <path d="M-4,0h8" fill="none" stroke="white" stroke-width="1.5" pointer-events="none"/>
  </g>
  <g id="arrowUp" transform="translate(30 24)">
    <use xlink:href="#rim"/>
    <path pointer-events="none" fill="none" stroke="white" stroke-width="1.5" d="M0,-3.0v7 M-2.5,-0.5L0,-3.0L2.5,-0.5"/>
  </g>
  <g id="arrowRight" transform="rotate(90) translate(36 -43)">
    <use xlink:href="#rim"/>
    <path pointer-events="none" fill="none" stroke="white" stroke-width="1.5" d="M0,-3.0v7 M-2.5,-0.5L0,-3.0L2.5,-0.5"/>
  </g>
  <g id="arrowDown" transform="rotate(180) translate(-30 -48)">
    <use xlink:href="#rim"/>
    <path pointer-events="none" fill="none" stroke="white" stroke-width="1.5" d="M0,-3.0v7 M-2.5,-0.5L0,-3.0L2.5,-0.5"/>
  </g>
  <g id="arrowLeft" transform="rotate(270) translate(-36 17)">
    <use xlink:href="#rim"/>
    <path pointer-events="none" fill="none" stroke="white" stroke-width="1.5" d="M0,-3.0v7 M-2.5,-0.5L0,-3.0L2.5,-0.5"/>
  </g>
  <g id="resetDef">
    <use xlink:href="#rim2" fill="#404040"><set attributeName="fill" to="#808080" begin="reset.mouseover" end="reset.mouseout"/></use>
  </g>
</defs>
<script type="application/ecmascript">
var viewWidth = 1387;
var viewHeight = 609;
var sectionId = 'dynsection-2';
</script>
<script type="application/ecmascript" xlink:href="svg.min.js"/>
<svg id="graph" class="graph">
<g id="viewport">
<title>mqtt::bridge::lib::BridgeStore::loadAndValidate</title>
<!-- Node1 -->
<g id="Node000001" class="node">
<title>Node1</title>
<g id="a_Node000001"><a xlink:title=" ">
<polygon fill="#999999" stroke="#666666" points="160,-267 0,-267 0,-237 160,-237 160,-267"/>
<text text-anchor="start" x="8" y="-255" font-family="Helvetica,sans-Serif" font-size="10.00">mqtt::bridge::lib::</text>
<text text-anchor="middle" x="80" y="-244" font-family="Helvetica,sans-Serif" font-size="10.00">BridgeStore::loadAndValidate</text>
</a>
</g>
</g>
<!-- Node2 -->
<g id="Node000002" class="node">
<title>Node2</title>
<g id="a_Node000002"><a xlink:href="classnlohmann_1_1json__schema_1_1json__validator.html#ad8f46dfed69afe463732ae335879dabb" target="_top" xlink:title=" ">
<polygon fill="white" stroke="#666666" points="332,-299.5 197,-299.5 197,-258.5 332,-258.5 332,-299.5"/>
<text text-anchor="start" x="205" y="-287.5" font-family="Helvetica,sans-Serif" font-size="10.00">nlohmann::json_schema</text>
<text text-anchor="start" x="205" y="-276.5" font-family="Helvetica,sans-Serif" font-size="10.00">::json_validator::json</text>
<text text-anchor="middle" x="264.5" y="-265.5" font-family="Helvetica,sans-Serif" font-size="10.00">_validator</text>
</a>
</g>
</g>
<!-- Node1&#45;&gt;Node2 -->
<g id="edge1_Node000001_Node000002" class="edge">
<title>Node1&#45;&gt;Node2</title>
<g id="a_edge1_Node000001_Node000002"><a xlink:title=" ">
<path fill="none" stroke="#63b8ff" d="M160.25,-263.72C169.03,-265.02 177.96,-266.35 186.71,-267.64"/>
<polygon fill="#63b8ff" stroke="#63b8ff" points="186.48,-271.14 196.88,-269.14 187.5,-264.22 186.48,-271.14"/>
</a>
</g>
</g>
<!-- Node21 -->
<g id="Node000021" class="node">
<title>Node21</title>
<g id="a_Node000021"><a xlink:href="classnlohmann_1_1json__schema_1_1json__validator.html#affff379ae30b7ab48c81d5b65e34f613" target="_top" xlink:title=" ">
<polygon fill="white" stroke="#666666" points="333,-240 196,-240 196,-210 333,-210 333,-240"/>
<text text-anchor="start" x="204" y="-228" font-family="Helvetica,sans-Serif" font-size="10.00">nlohmann::json_schema</text>
<text text-anchor="middle" x="264.5" y="-217" font-family="Helvetica,sans-Serif" font-size="10.00">::json_validator::validate</text>
</a>
</g>
</g>
<!-- Node1&#45;&gt;Node21 -->
<g id="edge34_Node000001_Node000021" class="edge">
<title>Node1&#45;&gt;Node21</title>
<g id="a_edge34_Node000001_Node000021"><a xlink:title=" ">
<path fill="none" stroke="#63b8ff" d="M160.25,-240.28C168.66,-239.03 177.21,-237.77 185.61,-236.52"/>
<polygon fill="#63b8ff" stroke="#63b8ff" points="186.37,-239.95 195.75,-235.02 185.35,-233.02 186.37,-239.95"/>
</a>
</g>
</g>
<!-- Node3 -->
<g id="Node000003" class="node">
<title>Node3</title>
<g id="a_Node000003"><a xlink:href="classnlohmann_1_1json__schema_1_1json__validator.html#aa0aea93f3507f78008cba94fb7e81799" target="_top" xlink:title=" ">
<polygon fill="white" stroke="#666666" points="505,-299.5 370,-299.5 370,-258.5 505,-258.5 505,-299.5"/>
<text text-anchor="start" x="378" y="-287.5" font-family="Helvetica,sans-Serif" font-size="10.00">nlohmann::json_schema</text>
<text text-anchor="start" x="378" y="-276.5" font-family="Helvetica,sans-Serif" font-size="10.00">::json_validator::json</text>
<text text-anchor="middle" x="437.5" y="-265.5" font-family="Helvetica,sans-Serif" font-size="10.00">_validator</text>
</a>
</g>
</g>
<!-- Node2&#45;&gt;Node3 -->
<g id="edge2_Node000002_Node000003" class="edge">
<title>Node2&#45;&gt;Node3</title>
<g id="a_edge2_Node000002_Node000003"><a xlink:title=" ">
<path fill="none" stroke="#63b8ff" d="M332.1,-279C341.1,-279 350.38,-279 359.54,-279"/>
<polygon fill="#63b8ff" stroke="#63b8ff" points="359.8,-282.5 369.8,-279 359.8,-275.5 359.8,-282.5"/>
</a>
</g>
</g>
<!-- Node5 -->
<g id="Node000005" class="node">
<title>Node5</title>
<g id="a_Node000005"><a xlink:href="classnlohmann_1_1json__schema_1_1json__validator.html#a13e1d3029c8953bb9c7d1879382edb03" target="_top" xlink:title=" ">
<polygon fill="white" stroke="#666666" points="505,-374.5 370,-374.5 370,-333.5 505,-333.5 505,-374.5"/>
<text text-anchor="start" x="378" y="-362.5" font-family="Helvetica,sans-Serif" font-size="10.00">nlohmann::json_schema</text>
<text text-anchor="start" x="378" y="-351.5" font-family="Helvetica,sans-Serif" font-size="10.00">::json_validator::set</text>
<text text-anchor="middle" x="437.5" y="-340.5" font-family="Helvetica,sans-Serif" font-size="10.00">_root_schema</text>
</a>
</g>
</g>
<!-- Node2&#45;&gt;Node5 -->
<g id="edge4_Node000002_Node000005" class="edge">
<title>Node2&#45;&gt;Node5</title>
<g id="a_edge4_Node000002_Node000005"><a xlink:title=" ">
<path fill="none" stroke="#63b8ff" d="M312.68,-299.69C333.61,-308.87 358.41,-319.75 380.29,-329.35"/>
<polygon fill="#63b8ff" stroke="#63b8ff" points="378.91,-332.56 389.47,-333.37 381.72,-326.15 378.91,-332.56"/>
</a>
</g>
</g>
<!-- Node4 -->
<g id="Node000004" class="node">
<title>Node4</title>
<g id="a_Node000004"><a xlink:href="classnlohmann_1_1json__schema_1_1root__schema.html#a704eaa54aca1f78a311687562421829f" target="_top" xlink:title=" ">
<polygon fill="white" stroke="#666666" points="697,-294 542,-294 542,-264 697,-264 697,-294"/>
<text text-anchor="start" x="550" y="-282" font-family="Helvetica,sans-Serif" font-size="10.00">nlohmann::json_schema</text>
<text text-anchor="middle" x="619.5" y="-271" font-family="Helvetica,sans-Serif" font-size="10.00">::root_schema::root_schema</text>
</a>
</g>
</g>
<!-- Node3&#45;&gt;Node4 -->
<g id="edge3_Node000003_Node000004" class="edge">
<title>Node3&#45;&gt;Node4</title>
<g id="a_edge3_Node000003_Node000004"><a xlink:title=" ">
<path fill="none" stroke="#63b8ff" d="M505.01,-279C513.75,-279 522.79,-279 531.8,-279"/>
<polygon fill="#63b8ff" stroke="#63b8ff" points="531.93,-282.5 541.93,-279 531.93,-275.5 531.93,-282.5"/>
</a>
</g>
</g>
<!-- Node6 -->
<g id="Node000006" class="node">
<title>Node6</title>
<g id="a_Node000006"><a xlink:href="classnlohmann_1_1json__schema_1_1root__schema.html#aa92bf9509db49548416a244fb4528e3c" target="_top" xlink:title=" ">
<polygon fill="white" stroke="#666666" points="687,-382.5 552,-382.5 552,-341.5 687,-341.5 687,-382.5"/>
<text text-anchor="start" x="560" y="-370.5" font-family="Helvetica,sans-Serif" font-size="10.00">nlohmann::json_schema</text>
<text text-anchor="start" x="560" y="-359.5" font-family="Helvetica,sans-Serif" font-size="10.00">::root_schema::set_root</text>
<text text-anchor="middle" x="619.5" y="-348.5" font-family="Helvetica,sans-Serif" font-size="10.00">_schema</text>
</a>
</g>
</g>
<!-- Node5&#45;&gt;Node6 -->
<g id="edge5_Node000005_Node000006" class="edge">
<title>Node5&#45;&gt;Node6</title>
<g id="a_edge5_Node000005_Node000006"><a xlink:title=" ">
<path fill="none" stroke="#63b8ff" d="M505.01,-356.96C516.98,-357.49 529.55,-358.05 541.78,-358.59"/>
<polygon fill="#63b8ff" stroke="#63b8ff" points="541.81,-362.1 551.96,-359.04 542.12,-355.1 541.81,-362.1"/>
</a>
</g>
</g>
<!-- Node7 -->
<g id="Node000007" class="node">
<title>Node7</title>
<g id="a_Node000007"><a xlink:href="classanonymous__namespace_02json-validator_8cpp_03_1_1schema.html#aafee860997369c77204d5b1a7d095c3f" target="_top" xlink:title=" ">
<polygon fill="white" stroke="#666666" points="868,-386.5 733,-386.5 733,-345.5 868,-345.5 868,-386.5"/>
<text text-anchor="start" x="741" y="-374.5" font-family="Helvetica,sans-Serif" font-size="10.00">anonymous_namespace</text>
<text text-anchor="start" x="741" y="-363.5" font-family="Helvetica,sans-Serif" font-size="10.00">{json&#45;validator::cpp}</text>
<text text-anchor="middle" x="800.5" y="-352.5" font-family="Helvetica,sans-Serif" font-size="10.00">::schema::make</text>
</a>
</g>
</g>
<!-- Node6&#45;&gt;Node7 -->
<g id="edge6_Node000006_Node000007" class="edge">
<title>Node6&#45;&gt;Node7</title>
<g id="a_edge6_Node000006_Node000007"><a xlink:title=" ">
<path fill="none" stroke="#63b8ff" d="M687.15,-363.49C698.68,-363.75 710.76,-364.02 722.54,-364.28"/>
<polygon fill="#63b8ff" stroke="#63b8ff" points="722.72,-367.78 732.79,-364.51 722.87,-360.79 722.72,-367.78"/>
</a>
</g>
</g>
<!-- Node7&#45;&gt;Node7 -->
<g id="edge31_Node000007_Node000007" class="edge">
<title>Node7&#45;&gt;Node7</title>
<g id="a_edge31_Node000007_Node000007"><a xlink:title=" ">
<path fill="none" stroke="#63b8ff" d="M767.42,-386.6C763.81,-396.15 774.84,-404.5 800.5,-404.5 816.54,-404.5 826.86,-401.24 831.47,-396.46"/>
<polygon fill="#63b8ff" stroke="#63b8ff" points="834.91,-397.11 833.58,-386.6 828.06,-395.64 834.91,-397.11"/>
</a>
</g>
</g>
<!-- Node8 -->
<g id="Node000008" class="node">
<title>Node8</title>
<g id="a_Node000008"><a xlink:href="classnlohmann_1_1json__uri.html#acef9db8f1ac5317e1f124453d9587938" target="_top" xlink:title=" ">
<polygon fill="white" stroke="#666666" points="1220.5,-553 1110.5,-553 1110.5,-523 1220.5,-523 1220.5,-553"/>
<text text-anchor="start" x="1118.5" y="-541" font-family="Helvetica,sans-Serif" font-size="10.00">nlohmann::json_uri</text>
<text text-anchor="middle" x="1165.5" y="-530" font-family="Helvetica,sans-Serif" font-size="10.00">::append</text>
</a>
</g>
</g>
<!-- Node7&#45;&gt;Node8 -->
<g id="edge7_Node000007_Node000008" class="edge">
<title>Node7&#45;&gt;Node8</title>
<g id="a_edge7_Node000007_Node000008"><a xlink:title=" ">
<path fill="none" stroke="#63b8ff" d="M812.64,-386.79C828.82,-414.82 861.57,-464.09 904,-489 964.33,-524.43 1044.88,-535.06 1100.36,-537.85"/>
<polygon fill="#63b8ff" stroke="#63b8ff" points="1100.27,-541.35 1110.41,-538.28 1100.57,-534.36 1100.27,-541.35"/>
</a>
</g>
</g>
<!-- Node9 -->
<g id="Node000009" class="node">
<title>Node9</title>
<g id="a_Node000009"><a xlink:href="classnlohmann_1_1json__uri.html#ab601a9e32d487e9484f12c57ec1befc1" target="_top" xlink:title=" ">
<polygon fill="white" stroke="#666666" points="1038,-595 928,-595 928,-565 1038,-565 1038,-595"/>
<text text-anchor="start" x="936" y="-583" font-family="Helvetica,sans-Serif" font-size="10.00">nlohmann::json_uri</text>
<text text-anchor="middle" x="983" y="-572" font-family="Helvetica,sans-Serif" font-size="10.00">::derive</text>
</a>
</g>
</g>
<!-- Node7&#45;&gt;Node9 -->
<g id="edge8_Node000007_Node000009" class="edge">
<title>Node7&#45;&gt;Node9</title>
<g id="a_edge8_Node000007_Node000009"><a xlink:title=" ">
<path fill="none" stroke="#63b8ff" d="M809.2,-386.74C823.25,-422.14 856.05,-494.78 904,-540 912.48,-548 922.86,-554.79 933.25,-560.38"/>
<polygon fill="#63b8ff" stroke="#63b8ff" points="931.84,-563.58 942.34,-564.98 935,-557.34 931.84,-563.58"/>
</a>
</g>
</g>
<!-- Node11 -->
<g id="Node000011" class="node">
<title>Node11</title>
<g id="a_Node000011"><a xlink:href="classnlohmann_1_1json__schema_1_1root__schema.html#a7e890c03f941280b76fbdb4d5bb73065" target="_top" xlink:title=" ">
<polygon fill="white" stroke="#666666" points="1050.5,-386.5 915.5,-386.5 915.5,-345.5 1050.5,-345.5 1050.5,-386.5"/>
<text text-anchor="start" x="923.5" y="-374.5" font-family="Helvetica,sans-Serif" font-size="10.00">nlohmann::json_schema</text>
<text text-anchor="start" x="923.5" y="-363.5" font-family="Helvetica,sans-Serif" font-size="10.00">::root_schema::get_or</text>
<text text-anchor="middle" x="983" y="-352.5" font-family="Helvetica,sans-Serif" font-size="10.00">_create_ref</text>
</a>
</g>
</g>
<!-- Node7&#45;&gt;Node11 -->
<g id="edge10_Node000007_Node000011" class="edge">
<title>Node7&#45;&gt;Node11</title>
<g id="a_edge10_Node000007_Node000011"><a xlink:title=" ">
<path fill="none" stroke="#63b8ff" d="M868.2,-359.46C880.2,-359.24 892.8,-359.19 905.07,-359.32"/>
<polygon fill="#63b8ff" stroke="#63b8ff" points="905.23,-362.82 915.27,-359.46 905.32,-355.82 905.23,-362.82"/>
</a>
</g>
</g>
<!-- Node16 -->
<g id="Node000016" class="node">
<title>Node16</title>
<g id="a_Node000016"><a xlink:href="classnlohmann_1_1json__uri.html#a416eb06b53676b215761f43200da309f" target="_top" xlink:title=" ">
<polygon fill="white" stroke="#666666" points="1220.5,-176 1110.5,-176 1110.5,-146 1220.5,-146 1220.5,-176"/>
<text text-anchor="start" x="1118.5" y="-164" font-family="Helvetica,sans-Serif" font-size="10.00">nlohmann::json_uri</text>
<text text-anchor="middle" x="1165.5" y="-153" font-family="Helvetica,sans-Serif" font-size="10.00">::to_string</text>
</a>
</g>
</g>
<!-- Node7&#45;&gt;Node16 -->
<g id="edge33_Node000007_Node000016" class="edge">
<title>Node7&#45;&gt;Node16</title>
<g id="a_edge33_Node000007_Node000016"><a xlink:title=" ">
<path fill="none" stroke="#63b8ff" d="M810.84,-345.33C825.89,-314.44 858.49,-256.58 904,-226 963,-186.35 1044.16,-170.87 1100.13,-164.84"/>
<polygon fill="#63b8ff" stroke="#63b8ff" points="1100.68,-168.3 1110.28,-163.82 1099.98,-161.34 1100.68,-168.3"/>
</a>
</g>
</g>
<!-- Node17 -->
<g id="Node000017" class="node">
<title>Node17</title>
<g id="a_Node000017"><a xlink:href="classnlohmann_1_1json__schema_1_1root__schema.html#a685904131f0693e56f14a9e9db5f044e" target="_top" xlink:title=" ">
<polygon fill="white" stroke="#666666" points="1050.5,-265 915.5,-265 915.5,-235 1050.5,-235 1050.5,-265"/>
<text text-anchor="start" x="923.5" y="-253" font-family="Helvetica,sans-Serif" font-size="10.00">nlohmann::json_schema</text>
<text text-anchor="middle" x="983" y="-242" font-family="Helvetica,sans-Serif" font-size="10.00">::root_schema::insert</text>
</a>
</g>
</g>
<!-- Node7&#45;&gt;Node17 -->
<g id="edge18_Node000007_Node000017" class="edge">
<title>Node7&#45;&gt;Node17</title>
<g id="a_edge18_Node000007_Node000017"><a xlink:title=" ">
<path fill="none" stroke="#63b8ff" d="M820.52,-345.43C839.88,-325.54 871.56,-295.75 904,-277 909.09,-274.06 914.54,-271.37 920.12,-268.92"/>
<polygon fill="#63b8ff" stroke="#63b8ff" points="921.67,-272.07 929.59,-265.04 919.01,-265.6 921.67,-272.07"/>
</a>
</g>
</g>
<!-- Node19 -->
<g id="Node000019" class="node">
<title>Node19</title>
<g id="a_Node000019"><a xlink:href="classnlohmann_1_1json__schema_1_1root__schema.html#a4c543fe7b89e76b3fdd17a6883696238" target="_top" xlink:title=" ">
<polygon fill="white" stroke="#666666" points="1050.5,-461.5 915.5,-461.5 915.5,-420.5 1050.5,-420.5 1050.5,-461.5"/>
<text text-anchor="start" x="923.5" y="-449.5" font-family="Helvetica,sans-Serif" font-size="10.00">nlohmann::json_schema</text>
<text text-anchor="start" x="923.5" y="-438.5" font-family="Helvetica,sans-Serif" font-size="10.00">::root_schema::insert</text>
<text text-anchor="middle" x="983" y="-427.5" font-family="Helvetica,sans-Serif" font-size="10.00">_unknown_keyword</text>
</a>
</g>
</g>
<!-- Node7&#45;&gt;Node19 -->
<g id="edge24_Node000007_Node000019" class="edge">
<title>Node7&#45;&gt;Node19</title>
<g id="a_edge24_Node000007_Node000019"><a xlink:title=" ">
<path fill="none" stroke="#63b8ff" d="M866.66,-386.56C889.89,-395.76 915.52,-406.6 936.71,-416.24"/>
<polygon fill="#63b8ff" stroke="#63b8ff" points="935.25,-419.42 945.8,-420.43 938.18,-413.06 935.25,-419.42"/>
</a>
</g>
</g>
<!-- Node20 -->
<g id="Node000020" class="node">
<title>Node20</title>
<g id="a_Node000020"><a xlink:href="classanonymous__namespace_02json-validator_8cpp_03_1_1schema.html#a6ba2d224dd0a4372ac03f679de8316bd" target="_top" xlink:title=" ">
<polygon fill="white" stroke="#666666" points="1062,-327.5 904,-327.5 904,-286.5 1062,-286.5 1062,-327.5"/>
<text text-anchor="start" x="912" y="-315.5" font-family="Helvetica,sans-Serif" font-size="10.00">anonymous_namespace</text>
<text text-anchor="start" x="912" y="-304.5" font-family="Helvetica,sans-Serif" font-size="10.00">{json&#45;validator::cpp}</text>
<text text-anchor="middle" x="983" y="-293.5" font-family="Helvetica,sans-Serif" font-size="10.00">::schema::make_for_default_</text>
</a>
</g>
</g>
<!-- Node7&#45;&gt;Node20 -->
<g id="edge32_Node000007_Node000020" class="edge">
<title>Node7&#45;&gt;Node20</title>
<g id="a_edge32_Node000007_Node000020"><a xlink:title=" ">
<path fill="none" stroke="#63b8ff" d="M864.38,-345.45C878.9,-340.7 894.47,-335.61 909.37,-330.74"/>
<polygon fill="#63b8ff" stroke="#63b8ff" points="910.63,-334.01 919.04,-327.58 908.45,-327.36 910.63,-334.01"/>
</a>
</g>
</g>
<!-- Node10 -->
<g id="Node000010" class="node">
<title>Node10</title>
<g id="a_Node000010"><a xlink:href="classnlohmann_1_1json__uri.html#a6a73807e46532b22e02ae6602cdedcdc" target="_top" xlink:title=" ">
<polygon fill="white" stroke="#666666" points="1220.5,-601 1110.5,-601 1110.5,-571 1220.5,-571 1220.5,-601"/>
<text text-anchor="start" x="1118.5" y="-589" font-family="Helvetica,sans-Serif" font-size="10.00">nlohmann::json_uri</text>
<text text-anchor="middle" x="1165.5" y="-578" font-family="Helvetica,sans-Serif" font-size="10.00">::update</text>
</a>
</g>
</g>
<!-- Node9&#45;&gt;Node10 -->
<g id="edge9_Node000009_Node000010" class="edge">
<title>Node9&#45;&gt;Node10</title>
<g id="a_edge9_Node000009_Node000010"><a xlink:title=" ">
<path fill="none" stroke="#63b8ff" d="M1038.16,-581.8C1057.7,-582.45 1079.95,-583.19 1100.27,-583.86"/>
<polygon fill="#63b8ff" stroke="#63b8ff" points="1100.27,-587.37 1110.38,-584.2 1100.5,-580.37 1100.27,-587.37"/>
</a>
</g>
</g>
<!-- Node11&#45;&gt;Node7 -->
<g id="edge14_Node000011_Node000007" class="edge">
<title>Node11&#45;&gt;Node7</title>
<g id="a_edge14_Node000011_Node000007"><a xlink:title=" ">
<path fill="none" stroke="#63b8ff" d="M915.27,-372.54C903.27,-372.76 890.67,-372.81 878.4,-372.68"/>
<polygon fill="#63b8ff" stroke="#63b8ff" points="878.25,-369.18 868.2,-372.54 878.15,-376.18 878.25,-369.18"/>
</a>
</g>
</g>
<!-- Node12 -->
<g id="Node000012" class="node">
<title>Node12</title>
<g id="a_Node000012"><a xlink:href="classnlohmann_1_1json__uri.html#a21ba5d6a76804eabd867a2d03370c945" target="_top" xlink:title=" ">
<polygon fill="white" stroke="#666666" points="1220.5,-262 1110.5,-262 1110.5,-232 1220.5,-232 1220.5,-262"/>
<text text-anchor="start" x="1118.5" y="-250" font-family="Helvetica,sans-Serif" font-size="10.00">nlohmann::json_uri</text>
<text text-anchor="middle" x="1165.5" y="-239" font-family="Helvetica,sans-Serif" font-size="10.00">::fragment</text>
</a>
</g>
</g>
<!-- Node11&#45;&gt;Node12 -->
<g id="edge11_Node000011_Node000012" class="edge">
<title>Node11&#45;&gt;Node12</title>
<g id="a_edge11_Node000011_Node000012"><a xlink:title=" ">
<path fill="none" stroke="#63b8ff" d="M1050.24,-345.43C1054.42,-342.92 1058.4,-340.12 1062,-337 1087.26,-315.13 1072.64,-292.75 1098,-271 1099.5,-269.71 1101.08,-268.49 1102.72,-267.33"/>
<polygon fill="#63b8ff" stroke="#63b8ff" points="1104.62,-270.27 1111.32,-262.06 1100.96,-264.3 1104.62,-270.27"/>
</a>
</g>
</g>
<!-- Node13 -->
<g id="Node000013" class="node">
<title>Node13</title>
<g id="a_Node000013"><a xlink:href="classnlohmann_1_1json__schema_1_1root__schema.html#a4e3471b8e7c245a72c469b7695d2d327" target="_top" xlink:title=" ">
<polygon fill="white" stroke="#666666" points="1233,-380.5 1098,-380.5 1098,-339.5 1233,-339.5 1233,-380.5"/>
<text text-anchor="start" x="1106" y="-368.5" font-family="Helvetica,sans-Serif" font-size="10.00">nlohmann::json_schema</text>
<text text-anchor="start" x="1106" y="-357.5" font-family="Helvetica,sans-Serif" font-size="10.00">::root_schema::get_or</text>
<text text-anchor="middle" x="1165.5" y="-346.5" font-family="Helvetica,sans-Serif" font-size="10.00">_create_file</text>
</a>
</g>
</g>
<!-- Node11&#45;&gt;Node13 -->
<g id="edge12_Node000011_Node000013" class="edge">
<title>Node11&#45;&gt;Node13</title>
<g id="a_edge12_Node000011_Node000013"><a xlink:title=" ">
<path fill="none" stroke="#63b8ff" d="M1050.7,-363.78C1062.7,-363.38 1075.3,-362.96 1087.57,-362.56"/>
<polygon fill="#63b8ff" stroke="#63b8ff" points="1087.9,-366.05 1097.77,-362.22 1087.66,-359.05 1087.9,-366.05"/>
</a>
</g>
</g>
<!-- Node14 -->
<g id="Node000014" class="node">
<title>Node14</title>
<g id="a_Node000014"><a xlink:href="classnlohmann_1_1json__uri.html#a63674f908919cb2496e772e864be35de" target="_top" xlink:title=" ">
<polygon fill="white" stroke="#666666" points="1379,-219 1269,-219 1269,-189 1379,-189 1379,-219"/>
<text text-anchor="start" x="1277" y="-207" font-family="Helvetica,sans-Serif" font-size="10.00">nlohmann::json_uri</text>
<text text-anchor="middle" x="1324" y="-196" font-family="Helvetica,sans-Serif" font-size="10.00">::location</text>
</a>
</g>
</g>
<!-- Node11&#45;&gt;Node14 -->
<g id="edge13_Node000011_Node000014" class="edge">
<title>Node11&#45;&gt;Node14</title>
<g id="a_edge13_Node000011_Node000014"><a xlink:title=" ">
<path fill="none" stroke="#63b8ff" d="M1031.08,-386.66C1084.31,-406.58 1171.55,-428.53 1233,-390 1290.04,-354.24 1311.81,-270.95 1319.38,-229.04"/>
<polygon fill="#63b8ff" stroke="#63b8ff" points="1322.84,-229.53 1321.04,-219.09 1315.94,-228.38 1322.84,-229.53"/>
</a>
</g>
</g>
<!-- Node15 -->
<g id="Node000015" class="node">
<title>Node15</title>
<g id="a_Node000015"><a xlink:href="classnlohmann_1_1json__uri.html#ab01bdcb8bf65ee07703d1ccb69c9f3ee" target="_top" xlink:title=" ">
<polygon fill="white" stroke="#666666" points="1220.5,-467 1110.5,-467 1110.5,-437 1220.5,-437 1220.5,-467"/>
<text text-anchor="start" x="1118.5" y="-455" font-family="Helvetica,sans-Serif" font-size="10.00">nlohmann::json_uri</text>
<text text-anchor="middle" x="1165.5" y="-444" font-family="Helvetica,sans-Serif" font-size="10.00">::pointer</text>
</a>
</g>
</g>
<!-- Node11&#45;&gt;Node15 -->
<g id="edge15_Node000011_Node000015" class="edge">
<title>Node11&#45;&gt;Node15</title>
<g id="a_edge15_Node000011_Node000015"><a xlink:title=" ">
<path fill="none" stroke="#63b8ff" d="M1023.85,-386.56C1045.62,-397.64 1073.15,-411.38 1098,-423 1105.06,-426.3 1112.59,-429.7 1119.95,-432.96"/>
<polygon fill="#63b8ff" stroke="#63b8ff" points="1118.58,-436.18 1129.14,-436.99 1121.39,-429.77 1118.58,-436.18"/>
</a>
</g>
</g>
<!-- Node11&#45;&gt;Node16 -->
<g id="edge16_Node000011_Node000016" class="edge">
<title>Node11&#45;&gt;Node16</title>
<g id="a_edge16_Node000011_Node000016"><a xlink:title=" ">
<path fill="none" stroke="#63b8ff" d="M1050.6,-346.43C1054.75,-343.68 1058.61,-340.56 1062,-337 1098.62,-298.5 1069.64,-267.93 1098,-223 1107.77,-207.53 1122.33,-193.35 1135.34,-182.47"/>
<polygon fill="#63b8ff" stroke="#63b8ff" points="1137.6,-185.15 1143.18,-176.14 1133.2,-179.7 1137.6,-185.15"/>
</a>
</g>
</g>
<!-- Node16&#45;&gt;Node14 -->
<g id="edge17_Node000016_Node000014" class="edge">
<title>Node16&#45;&gt;Node14</title>
<g id="a_edge17_Node000016_Node000014"><a xlink:title=" ">
<path fill="none" stroke="#63b8ff" d="M1220.8,-175.92C1233.06,-179.29 1246.19,-182.89 1258.81,-186.36"/>
<polygon fill="#63b8ff" stroke="#63b8ff" points="1258.23,-189.83 1268.8,-189.11 1260.08,-183.08 1258.23,-189.83"/>
</a>
</g>
</g>
<!-- Node17&#45;&gt;Node12 -->
<g id="edge19_Node000017_Node000012" class="edge">
<title>Node17&#45;&gt;Node12</title>
<g id="a_edge19_Node000017_Node000012"><a xlink:title=" ">
<path fill="none" stroke="#63b8ff" d="M1050.7,-248.89C1066.85,-248.62 1084.07,-248.34 1100.11,-248.07"/>
<polygon fill="#63b8ff" stroke="#63b8ff" points="1100.51,-251.56 1110.45,-247.9 1100.4,-244.57 1100.51,-251.56"/>
</a>
</g>
</g>
<!-- Node17&#45;&gt;Node13 -->
<g id="edge20_Node000017_Node000013" class="edge">
<title>Node17&#45;&gt;Node13</title>
<g id="a_edge20_Node000017_Node000013"><a xlink:title=" ">
<path fill="none" stroke="#63b8ff" d="M1041.62,-265.06C1048.87,-268.33 1055.88,-272.27 1062,-277 1084.82,-294.64 1075.88,-312.48 1098,-331 1099.15,-331.96 1100.33,-332.89 1101.54,-333.8"/>
<polygon fill="#63b8ff" stroke="#63b8ff" points="1099.68,-336.77 1109.94,-339.41 1103.57,-330.95 1099.68,-336.77"/>
</a>
</g>
</g>
<!-- Node17&#45;&gt;Node14 -->
<g id="edge21_Node000017_Node000014" class="edge">
<title>Node17&#45;&gt;Node14</title>
<g id="a_edge21_Node000017_Node000014"><a xlink:title=" ">
<path fill="none" stroke="#63b8ff" d="M1040.2,-234.94C1058.52,-230.5 1079.02,-226.03 1098,-223 1151.69,-214.42 1213.25,-209.56 1258.39,-206.91"/>
<polygon fill="#63b8ff" stroke="#63b8ff" points="1258.84,-210.39 1268.63,-206.33 1258.44,-203.4 1258.84,-210.39"/>
</a>
</g>
</g>
<!-- Node17&#45;&gt;Node16 -->
<g id="edge23_Node000017_Node000016" class="edge">
<title>Node17&#45;&gt;Node16</title>
<g id="a_edge23_Node000017_Node000016"><a xlink:title=" ">
<path fill="none" stroke="#63b8ff" d="M1011.36,-234.88C1034.27,-222.39 1067.96,-204.43 1098,-190 1104.79,-186.74 1112.04,-183.42 1119.16,-180.24"/>
<polygon fill="#63b8ff" stroke="#63b8ff" points="1120.99,-183.26 1128.73,-176.02 1118.17,-176.85 1120.99,-183.26"/>
</a>
</g>
</g>
<!-- Node18 -->
<g id="Node000018" class="node">
<title>Node18</title>
<g id="a_Node000018"><a xlink:href="classanonymous__namespace_02json-validator_8cpp_03_1_1schema__ref.html#ae191a0c47357ebad5942fbab77135375" target="_top" xlink:title=" ">
<polygon fill="white" stroke="#666666" points="1233,-321.5 1098,-321.5 1098,-280.5 1233,-280.5 1233,-321.5"/>
<text text-anchor="start" x="1106" y="-309.5" font-family="Helvetica,sans-Serif" font-size="10.00">anonymous_namespace</text>
<text text-anchor="start" x="1106" y="-298.5" font-family="Helvetica,sans-Serif" font-size="10.00">{json&#45;validator::cpp}</text>
<text text-anchor="middle" x="1165.5" y="-287.5" font-family="Helvetica,sans-Serif" font-size="10.00">::schema_ref::set_target</text>
</a>
</g>
</g>
<!-- Node17&#45;&gt;Node18 -->
<g id="edge22_Node000017_Node000018" class="edge">
<title>Node17&#45;&gt;Node18</title>
<g id="a_edge22_Node000017_Node000018"><a xlink:title=" ">
<path fill="none" stroke="#63b8ff" d="M1037.18,-265.03C1053.09,-269.52 1070.86,-274.54 1087.95,-279.37"/>
<polygon fill="#63b8ff" stroke="#63b8ff" points="1087.35,-282.84 1097.92,-282.19 1089.25,-276.1 1087.35,-282.84"/>
</a>
</g>
</g>
<!-- Node19&#45;&gt;Node7 -->
<g id="edge29_Node000019_Node000007" class="edge">
<title>Node19&#45;&gt;Node7</title>
<g id="a_edge29_Node000019_Node000007"><a xlink:title=" ">
<path fill="none" stroke="#63b8ff" d="M916.75,-420.4C893.51,-411.19 867.87,-400.35 846.68,-390.71"/>
<polygon fill="#63b8ff" stroke="#63b8ff" points="848.14,-387.53 837.59,-386.52 845.21,-393.89 848.14,-387.53"/>
</a>
</g>
</g>
<!-- Node19&#45;&gt;Node8 -->
<g id="edge25_Node000019_Node000008" class="edge">
<title>Node19&#45;&gt;Node8</title>
<g id="a_edge25_Node000019_Node000008"><a xlink:title=" ">
<path fill="none" stroke="#63b8ff" d="M1016.3,-461.76C1038.79,-475.84 1069.71,-494.47 1098,-509 1104.47,-512.32 1111.41,-515.62 1118.27,-518.74"/>
<polygon fill="#63b8ff" stroke="#63b8ff" points="1116.97,-521.99 1127.53,-522.86 1119.81,-515.6 1116.97,-521.99"/>
</a>
</g>
</g>
<!-- Node19&#45;&gt;Node13 -->
<g id="edge26_Node000019_Node000013" class="edge">
<title>Node19&#45;&gt;Node13</title>
<g id="a_edge26_Node000019_Node000013"><a xlink:title=" ">
<path fill="none" stroke="#63b8ff" d="M1030.01,-420.35C1054.2,-409.5 1084.02,-396.12 1109.43,-384.71"/>
<polygon fill="#63b8ff" stroke="#63b8ff" points="1110.88,-387.9 1118.57,-380.61 1108.01,-381.51 1110.88,-387.9"/>
</a>
</g>
</g>
<!-- Node19&#45;&gt;Node14 -->
<g id="edge28_Node000019_Node000014" class="edge">
<title>Node19&#45;&gt;Node14</title>
<g id="a_edge28_Node000019_Node000014"><a xlink:title=" ">
<path fill="none" stroke="#63b8ff" d="M1022.16,-461.65C1074.77,-487 1170.19,-521.38 1233,-476 1313.51,-417.83 1323.18,-284.91 1323.54,-229.25"/>
<polygon fill="#63b8ff" stroke="#63b8ff" points="1327.04,-229.18 1323.5,-219.19 1320.04,-229.2 1327.04,-229.18"/>
</a>
</g>
</g>
<!-- Node19&#45;&gt;Node15 -->
<g id="edge30_Node000019_Node000015" class="edge">
<title>Node19&#45;&gt;Node15</title>
<g id="a_edge30_Node000019_Node000015"><a xlink:title=" ">
<path fill="none" stroke="#63b8ff" d="M1050.7,-445.06C1066.85,-446.05 1084.07,-447.1 1100.11,-448.08"/>
<polygon fill="#63b8ff" stroke="#63b8ff" points="1100.26,-451.59 1110.45,-448.71 1100.69,-444.6 1100.26,-451.59"/>
</a>
</g>
</g>
<!-- Node19&#45;&gt;Node19 -->
<g id="edge27_Node000019_Node000019" class="edge">
<title>Node19&#45;&gt;Node19</title>
<g id="a_edge27_Node000019_Node000019"><a xlink:title=" ">
<path fill="none" stroke="#63b8ff" d="M949.55,-461.6C945.9,-471.15 957.05,-479.5 983,-479.5 999.22,-479.5 1009.66,-476.24 1014.31,-471.46"/>
<polygon fill="#63b8ff" stroke="#63b8ff" points="1017.75,-472.11 1016.45,-461.6 1010.91,-470.63 1017.75,-472.11"/>
</a>
</g>
</g>
<!-- Node22 -->
<g id="Node000022" class="node">
<title>Node22</title>
<g id="a_Node000022"><a xlink:href="classnlohmann_1_1json__schema_1_1json__validator.html#ae330a21f43f257fec1d8109f51827706" target="_top" xlink:title=" ">
<polygon fill="white" stroke="#666666" points="506,-208 369,-208 369,-178 506,-178 506,-208"/>
<text text-anchor="start" x="377" y="-196" font-family="Helvetica,sans-Serif" font-size="10.00">nlohmann::json_schema</text>
<text text-anchor="middle" x="437.5" y="-185" font-family="Helvetica,sans-Serif" font-size="10.00">::json_validator::validate</text>
</a>
</g>
</g>
<!-- Node21&#45;&gt;Node22 -->
<g id="edge35_Node000021_Node000022" class="edge">
<title>Node21&#45;&gt;Node22</title>
<g id="a_edge35_Node000021_Node000022"><a xlink:title=" ">
<path fill="none" stroke="#63b8ff" d="M333.08,-212.35C341.54,-210.77 350.24,-209.14 358.83,-207.53"/>
<polygon fill="#63b8ff" stroke="#63b8ff" points="359.66,-210.94 368.85,-205.66 358.37,-204.06 359.66,-210.94"/>
</a>
</g>
</g>
<!-- Node23 -->
<g id="Node000023" class="node">
<title>Node23</title>
<g id="a_Node000023"><a xlink:href="classnlohmann_1_1json__schema_1_1root__schema.html#a32f6012c2d81f29ca16e4409dd2b5ea3" target="_top" xlink:title=" ">
<polygon fill="white" stroke="#666666" points="1050.5,-138 915.5,-138 915.5,-108 1050.5,-108 1050.5,-138"/>
<text text-anchor="start" x="923.5" y="-126" font-family="Helvetica,sans-Serif" font-size="10.00">nlohmann::json_schema</text>
<text text-anchor="middle" x="983" y="-115" font-family="Helvetica,sans-Serif" font-size="10.00">::root_schema::validate</text>
</a>
</g>
</g>
<!-- Node22&#45;&gt;Node23 -->
<g id="edge36_Node000022_Node000023" class="edge">
<title>Node22&#45;&gt;Node23</title>
<g id="a_edge36_Node000022_Node000023"><a xlink:title=" ">
<path fill="none" stroke="#63b8ff" d="M506.24,-184.28C607.68,-171.21 798.52,-146.63 905.07,-132.91"/>
<polygon fill="#63b8ff" stroke="#63b8ff" points="905.65,-136.36 915.12,-131.61 904.75,-129.42 905.65,-136.36"/>
</a>
</g>
</g>
<!-- Node23&#45;&gt;Node12 -->
<g id="edge38_Node000023_Node000012" class="edge">
<title>Node23&#45;&gt;Node12</title>
<g id="a_edge38_Node000023_Node000012"><a xlink:title=" ">
<path fill="none" stroke="#63b8ff" d="M1006.13,-138.2C1038.16,-160.2 1097.53,-201 1133.78,-225.9"/>
<polygon fill="#63b8ff" stroke="#63b8ff" points="1132.24,-229.09 1142.47,-231.86 1136.21,-223.32 1132.24,-229.09"/>
</a>
</g>
</g>
<!-- Node23&#45;&gt;Node14 -->
<g id="edge39_Node000023_Node000014" class="edge">
<title>Node23&#45;&gt;Node14</title>
<g id="a_edge39_Node000023_Node000014"><a xlink:title=" ">
<path fill="none" stroke="#63b8ff" d="M1050.56,-116.54C1101.94,-113.94 1173.98,-115.59 1233,-137 1258.96,-146.42 1283.78,-165.96 1300.75,-181.52"/>
<polygon fill="#63b8ff" stroke="#63b8ff" points="1298.75,-184.45 1308.42,-188.78 1303.56,-179.36 1298.75,-184.45"/>
</a>
</g>
</g>
<!-- Node23&#45;&gt;Node16 -->
<g id="edge40_Node000023_Node000016" class="edge">
<title>Node23&#45;&gt;Node16</title>
<g id="a_edge40_Node000023_Node000016"><a xlink:title=" ">
<path fill="none" stroke="#63b8ff" d="M1050.7,-137.04C1067,-140.47 1084.4,-144.14 1100.57,-147.54"/>
<polygon fill="#63b8ff" stroke="#63b8ff" points="1099.95,-150.99 1110.45,-149.62 1101.39,-144.14 1099.95,-150.99"/>
</a>
</g>
</g>
<!-- Node24 -->
<g id="Node000024" class="node">
<title>Node24</title>
<g id="a_Node000024"><a xlink:href="classnlohmann_1_1json__schema_1_1error__handler.html#a6518c4580b8dd8063000e183f1541650" target="_top" xlink:title=" ">
<polygon fill="white" stroke="#666666" points="1233,-30 1098,-30 1098,0 1233,0 1233,-30"/>
<text text-anchor="start" x="1106" y="-18" font-family="Helvetica,sans-Serif" font-size="10.00">nlohmann::json_schema</text>
<text text-anchor="middle" x="1165.5" y="-7" font-family="Helvetica,sans-Serif" font-size="10.00">::error_handler::error</text>
</a>
</g>
</g>
<!-- Node23&#45;&gt;Node24 -->
<g id="edge37_Node000023_Node000024" class="edge">
<title>Node23&#45;&gt;Node24</title>
<g id="a_edge37_Node000023_Node000024"><a xlink:title=" ">
<path fill="none" stroke="#63b8ff" d="M1001.09,-107.92C1022.51,-89.63 1060.92,-58.81 1098,-39 1101.22,-37.28 1104.59,-35.63 1108.03,-34.07"/>
<polygon fill="#63b8ff" stroke="#63b8ff" points="1109.44,-37.28 1117.25,-30.13 1106.68,-30.84 1109.44,-37.28"/>
</a>
</g>
</g>
<!-- Node25 -->
<g id="Node000025" class="node">
<title>Node25</title>
<g id="a_Node000025"><a xlink:href="classanonymous__namespace_02json-validator_8cpp_03_1_1schema.html#a2509ace246d9dcec607e75377753a5ea" target="_top" xlink:title=" ">
<polygon fill="white" stroke="#666666" points="1233,-89.5 1098,-89.5 1098,-48.5 1233,-48.5 1233,-89.5"/>
<text text-anchor="start" x="1106" y="-77.5" font-family="Helvetica,sans-Serif" font-size="10.00">anonymous_namespace</text>
<text text-anchor="start" x="1106" y="-66.5" font-family="Helvetica,sans-Serif" font-size="10.00">{json&#45;validator::cpp}</text>
<text text-anchor="middle" x="1165.5" y="-55.5" font-family="Helvetica,sans-Serif" font-size="10.00">::schema::validate</text>
</a>
</g>
</g>
<!-- Node23&#45;&gt;Node25 -->
<g id="edge41_Node000023_Node000025" class="edge">
<title>Node23&#45;&gt;Node25</title>
<g id="a_edge41_Node000023_Node000025"><a xlink:title=" ">
<path fill="none" stroke="#63b8ff" d="M1034.28,-107.96C1050.99,-102.96 1069.99,-97.27 1088.22,-91.82"/>
<polygon fill="#63b8ff" stroke="#63b8ff" points="1089.37,-95.13 1097.95,-88.91 1087.37,-88.42 1089.37,-95.13"/>
</a>
</g>
</g>
</g>
</svg>

<g id="navigator" transform="translate(0 0)" fill="#404254">
  <rect fill="#f2f5e9" fill-opacity="0.5" stroke="#606060" stroke-width=".5" x="0" y="0" width="60" height="60"/>
  <use id="zoomplus" xlink:href="#zoomPlus" x="17" y="9" onmousedown="handleZoom(evt,'in')"/>
  <use id="zoomminus" xlink:href="#zoomMin" x="42" y="9" onmousedown="handleZoom(evt,'out')"/>
  <use id="reset" xlink:href="#resetDef" x="30" y="36" onmousedown="handleReset()"/>
   <use id="arrowup" xlink:href="#arrowUp" x="0" y="0" onmousedown="handlePan(0,-1)"/>
  <use id="arrowright" xlink:href="#arrowRight" x="0" y="0" onmousedown="handlePan(1,0)"/>
  <use id="arrowdown" xlink:href="#arrowDown" x="0" y="0" onmousedown="handlePan(0,1)"/>
  <use id="arrowleft" xlink:href="#arrowLeft" x="0" y="0" onmousedown="handlePan(-1,0)"/>
</g>
<svg viewBox="0 0 15 15" width="100%" height="30px" preserveAspectRatio="xMaxYMin meet">
 <g id="arrow_out" transform="scale(0.3 0.3)">
  <a xlink:href="classmqtt_1_1bridge_1_1lib_1_1BridgeStore_ab8ade196caaa4d233f8dc1625619ed9a_cgraph_org.svg" target="_base">
   <rect id="button" ry="5" rx="5" y="6" x="6" height="38" width="38"
        fill="#f2f5e9" fill-opacity="0.5" stroke="#606060" stroke-width="1.0"/>
   <path id="arrow"
     d="M 11.500037,31.436501 C 11.940474,20.09759 22.043105,11.32322 32.158766,21.979434 L 37.068811,17.246167 C 37.068811,17.246167 37.088388,32 37.088388,32 L 22.160133,31.978069 C 22.160133,31.978069 26.997745,27.140456 26.997745,27.140456 C 18.528582,18.264221 13.291696,25.230495 11.500037,31.436501 z"
     style="fill:#404040;"/>
  </a>
 </g>
</svg>

<style type='text/css'>
<![CDATA[
[data-mouse-over-selected='false'] { opacity: 0.7; }
[data-mouse-over-selected='true']  { opacity: 1.0; }
]]>
</style>
<script type="application/ecmascript"><![CDATA[
document.addEventListener('DOMContentLoaded', (event) => {
  highlightEdges();
  highlightAdjacentNodes();
});
]]></script>
</svg>
