<?xml version="1.0" encoding="UTF-8" standalone="no"?>
<!DOCTYPE svg PUBLIC "-//W3C//DTD SVG 1.1//EN"
 "http://www.w3.org/Graphics/SVG/1.1/DTD/svg11.dtd">
<!-- Generated by graphviz version 14.1.2 (0)
 -->
<!-- Title: mqtt::mqttintegrator::lib::Mqtt::DelayedQueue Pages: 1 -->
<svg width="1153pt" height="1346pt"
 viewBox="0.00 0.00 1153.00 1346.00" xmlns="http://www.w3.org/2000/svg" xmlns:xlink="http://www.w3.org/1999/xlink">
<g id="graph0" class="graph" transform="scale(1 1) rotate(0) translate(4 1341.75)">
<title>mqtt::mqttintegrator::lib::Mqtt::DelayedQueue</title>
<!-- Node1 -->
<g id="Node000001" class="node">
<title>Node1</title>
<g id="a_Node000001"><a xlink:title=" ">
<polygon fill="#999999" stroke="none" points="1124,-210 991.5,-210 991.5,-176.5 1124,-176.5 1124,-210"/>
<text xml:space="preserve" text-anchor="start" x="995.5" y="-196.5" font-family="Helvetica,sans-Serif" font-size="10.00">mqtt::mqttintegrator</text>
<text xml:space="preserve" text-anchor="start" x="995.5" y="-183.75" font-family="Helvetica,sans-Serif" font-size="10.00">::lib::Mqtt::DelayedQueue</text>
<polygon fill="none" stroke="#666666" points="991.5,-176.5 991.5,-210 1124,-210 1124,-176.5 991.5,-176.5"/>
</a>
</g>
</g>
<!-- Node2 -->
<g id="Node000002" class="node">
<title>Node2</title>
<g id="a_Node000002"><a xlink:href="classmqtt_1_1mqttintegrator_1_1lib_1_1Mqtt.html" target="_top" xlink:title=" ">
<polygon fill="white" stroke="none" points="913,-121.75 804.5,-121.75 804.5,-88.25 913,-88.25 913,-121.75"/>
<text xml:space="preserve" text-anchor="start" x="808.5" y="-108.25" font-family="Helvetica,sans-Serif" font-size="10.00">mqtt::mqttintegrator</text>
<text xml:space="preserve" text-anchor="start" x="835.5" y="-95.5" font-family="Helvetica,sans-Serif" font-size="10.00">::lib::Mqtt</text>
<polygon fill="none" stroke="#666666" points="804.5,-88.25 804.5,-121.75 913,-121.75 913,-88.25 804.5,-88.25"/>
</a>
</g>
</g>
<!-- Node1&#45;&gt;Node2 -->
<g id="edge33_Node000002_Node000001" class="edge">
<title>Node1&#45;&gt;Node2</title>
<g id="a_edge33_Node000002_Node000001"><a xlink:title=" ">
<path fill="none" stroke="#63b8ff" d="M1019.8,-176.55C1009.26,-171.46 998.08,-165.33 988.5,-158.5 978.9,-151.66 979.86,-145.81 969.75,-139.75 956.12,-131.57 940.35,-125.23 925.05,-120.37"/>
<polygon fill="none" stroke="#63b8ff" points="925.3,-120.45 918.41,-122.58 913.79,-117.04 920.68,-114.91 925.3,-120.45"/>
</a>
</g>
<text xml:space="preserve" text-anchor="start" x="991.5" y="-146" font-family="Helvetica,sans-Serif" font-size="10.00" fill="grey">&#45;delayedQueue</text>
</g>
<!-- Node2&#45;&gt;Node1 -->
<g id="edge1_Node000001_Node000002" class="edge">
<title>Node2&#45;&gt;Node1</title>
<g id="a_edge1_Node000001_Node000002"><a xlink:title=" ">
<path fill="none" stroke="#63b8ff" d="M912.75,-106.81C969.27,-108.94 1052.56,-116.13 1072.75,-139.75 1078.85,-146.88 1077.99,-156.35 1074.63,-165.28"/>
<polygon fill="none" stroke="#63b8ff" points="1074.64,-165.28 1075.58,-172.43 1069.34,-176.05 1068.4,-168.9 1074.64,-165.28"/>
</a>
</g>
<text xml:space="preserve" text-anchor="start" x="1080.24" y="-146" font-family="Helvetica,sans-Serif" font-size="10.00" fill="grey">&#45;mqtt</text>
</g>
<!-- Node28 -->
<g id="Node000028" class="node">
<title>Node28</title>
<g id="a_Node000028"><a xlink:title=" ">
<polygon fill="white" stroke="none" points="936.62,-33.5 780.88,-33.5 780.88,0 936.62,0 936.62,-33.5"/>
<text xml:space="preserve" text-anchor="start" x="784.88" y="-20" font-family="Helvetica,sans-Serif" font-size="10.00">std::set&lt; mqtt::mqttintegrator</text>
<text xml:space="preserve" text-anchor="start" x="825.75" y="-7.25" font-family="Helvetica,sans-Serif" font-size="10.00">::lib::Mqtt * &gt;</text>
<polygon fill="none" stroke="#666666" points="780.88,0 780.88,-33.5 936.62,-33.5 936.62,0 780.88,0"/>
</a>
</g>
</g>
<!-- Node2&#45;&gt;Node28 -->
<g id="edge35_Node000028_Node000002" class="edge">
<title>Node2&#45;&gt;Node28</title>
<g id="a_edge35_Node000028_Node000002"><a xlink:title=" ">
<path fill="none" stroke="#63b8ff" d="M838.78,-88.42C833.63,-83.25 828.76,-77.06 826,-70.25 822.87,-62.53 822.87,-59.22 826,-51.5 827.16,-48.63 828.7,-45.86 830.48,-43.24"/>
<polygon fill="none" stroke="#63b8ff" points="830.5,-43.22 831.28,-36.05 838.2,-34.02 837.42,-41.19 830.5,-43.22"/>
</a>
</g>
<text xml:space="preserve" text-anchor="start" x="829" y="-57.75" font-family="Helvetica,sans-Serif" font-size="10.00" fill="grey">+keys</text>
</g>
<!-- Node3 -->
<g id="Node000003" class="node">
<title>Node3</title>
<g id="a_Node000003"><a xlink:title=" ">
<polygon fill="white" stroke="none" points="667.5,-203.62 556,-203.62 556,-182.88 667.5,-182.88 667.5,-203.62"/>
<text xml:space="preserve" text-anchor="start" x="560" y="-190.12" font-family="Helvetica,sans-Serif" font-size="10.00">iot::mqtt::client::Mqtt</text>
<polygon fill="none" stroke="#666666" points="556,-182.88 556,-203.62 667.5,-203.62 667.5,-182.88 556,-182.88"/>
</a>
</g>
</g>
<!-- Node3&#45;&gt;Node2 -->
<g id="edge2_Node000002_Node000003" class="edge">
<title>Node3&#45;&gt;Node2</title>
<g id="a_edge2_Node000002_Node000003"><a xlink:title=" ">
<path fill="none" stroke="#63b8ff" d="M649,-179.24C693.1,-163.84 766.52,-138.21 813.76,-121.71"/>
<polygon fill="none" stroke="#63b8ff" points="647.9,-175.92 639.61,-182.52 650.21,-182.53 647.9,-175.92"/>
</a>
</g>
</g>
<!-- Node4 -->
<g id="Node000004" class="node">
<title>Node4</title>
<g id="a_Node000004"><a xlink:title=" ">
<polygon fill="white" stroke="none" points="800.38,-210 685.12,-210 685.12,-176.5 800.38,-176.5 800.38,-210"/>
<text xml:space="preserve" text-anchor="start" x="689.12" y="-196.5" font-family="Helvetica,sans-Serif" font-size="10.00">std::shared_ptr&lt; mqtt</text>
<text xml:space="preserve" text-anchor="start" x="695.5" y="-183.75" font-family="Helvetica,sans-Serif" font-size="10.00">::lib::MqttMapper &gt;</text>
<polygon fill="none" stroke="#666666" points="685.12,-176.5 685.12,-210 800.38,-210 800.38,-176.5 685.12,-176.5"/>
</a>
</g>
</g>
<!-- Node4&#45;&gt;Node2 -->
<g id="edge3_Node000002_Node000004" class="edge">
<title>Node4&#45;&gt;Node2</title>
<g id="a_edge3_Node000002_Node000004"><a xlink:title=" ">
<path fill="none" stroke="#63b8ff" d="M752.3,-176.84C760,-165.41 771.7,-150.09 785,-139.75 790.91,-135.15 797.55,-131.01 804.35,-127.33"/>
<polygon fill="none" stroke="#63b8ff" points="804.33,-127.34 807.91,-121.08 815.06,-121.98 811.48,-128.24 804.33,-127.34"/>
</a>
</g>
<text xml:space="preserve" text-anchor="start" x="788" y="-146" font-family="Helvetica,sans-Serif" font-size="10.00" fill="grey">&#45;mqttMapper</text>
</g>
<!-- Node5 -->
<g id="Node000005" class="node">
<title>Node5</title>
<g id="a_Node000005"><a xlink:href="classmqtt_1_1lib_1_1MqttMapper.html" target="_top" xlink:title=" ">
<polygon fill="white" stroke="none" points="800,-323.75 685.5,-323.75 685.5,-303 800,-303 800,-323.75"/>
<text xml:space="preserve" text-anchor="start" x="689.5" y="-310.25" font-family="Helvetica,sans-Serif" font-size="10.00">mqtt::lib::MqttMapper</text>
<polygon fill="none" stroke="#666666" points="685.5,-303 685.5,-323.75 800,-323.75 800,-303 685.5,-303"/>
</a>
</g>
</g>
<!-- Node5&#45;&gt;Node4 -->
<g id="edge4_Node000004_Node000005" class="edge">
<title>Node5&#45;&gt;Node4</title>
<g id="a_edge4_Node000004_Node000005"><a xlink:title=" ">
<path fill="none" stroke="#63b8ff" d="M742.75,-303.11C742.75,-285.96 742.75,-248.64 742.75,-222.5"/>
<polygon fill="none" stroke="#63b8ff" points="742.75,-222.58 738.75,-216.58 742.75,-210.58 746.75,-216.58 742.75,-222.58"/>
</a>
</g>
<text xml:space="preserve" text-anchor="start" x="745.75" y="-234.25" font-family="Helvetica,sans-Serif" font-size="10.00" fill="grey">+ptr</text>
</g>
<!-- Node6 -->
<g id="Node000006" class="node">
<title>Node6</title>
<g id="a_Node000006"><a xlink:title=" ">
<polygon fill="white" stroke="none" points="801.62,-443.88 705.88,-443.88 705.88,-423.12 801.62,-423.12 801.62,-443.88"/>
<text xml:space="preserve" text-anchor="start" x="709.88" y="-430.38" font-family="Helvetica,sans-Serif" font-size="10.00">std::list&lt; void * &gt;</text>
<polygon fill="none" stroke="#666666" points="705.88,-423.12 705.88,-443.88 801.62,-443.88 801.62,-423.12 705.88,-423.12"/>
</a>
</g>
</g>
<!-- Node6&#45;&gt;Node5 -->
<g id="edge5_Node000005_Node000006" class="edge">
<title>Node6&#45;&gt;Node5</title>
<g id="a_edge5_Node000005_Node000006"><a xlink:title=" ">
<path fill="none" stroke="#63b8ff" d="M752.89,-423.23C751.16,-404.69 747.24,-362.56 744.81,-336.49"/>
<polygon fill="none" stroke="#63b8ff" points="744.81,-336.45 740.27,-330.84 743.69,-324.5 748.23,-330.1 744.81,-336.45"/>
</a>
</g>
<text xml:space="preserve" text-anchor="start" x="753.5" y="-386.25" font-family="Helvetica,sans-Serif" font-size="10.00" fill="grey">&#45;pluginHandles</text>
</g>
<!-- Node7 -->
<g id="Node000007" class="node">
<title>Node7</title>
<g id="a_Node000007"><a xlink:href="classinja_1_1Environment.html" target="_top" xlink:title="Class for changing the configuration.">
<polygon fill="white" stroke="none" points="724.88,-620.38 630.62,-620.38 630.62,-599.62 724.88,-599.62 724.88,-620.38"/>
<text xml:space="preserve" text-anchor="start" x="634.62" y="-606.88" font-family="Helvetica,sans-Serif" font-size="10.00">inja::Environment</text>
<polygon fill="none" stroke="#666666" points="630.62,-599.62 630.62,-620.38 724.88,-620.38 724.88,-599.62 630.62,-599.62"/>
</a>
</g>
</g>
<!-- Node7&#45;&gt;Node5 -->
<g id="edge6_Node000005_Node000007" class="edge">
<title>Node7&#45;&gt;Node5</title>
<g id="a_edge6_Node000005_Node000007"><a xlink:title=" ">
<path fill="none" stroke="#63b8ff" d="M677.62,-600C677.43,-572.21 678.44,-485.46 696.75,-416.75 704.65,-387.1 720.24,-355.18 731.07,-335.01"/>
<polygon fill="none" stroke="#63b8ff" points="731.14,-334.89 730.53,-327.7 736.93,-324.38 737.54,-331.57 731.14,-334.89"/>
</a>
</g>
<text xml:space="preserve" text-anchor="start" x="689.29" y="-474.5" font-family="Helvetica,sans-Serif" font-size="10.00" fill="grey">&#45;injaEnvironment</text>
</g>
<!-- Node8 -->
<g id="Node000008" class="node">
<title>Node8</title>
<g id="a_Node000008"><a xlink:href="classinja_1_1FunctionStorage.html" target="_top" xlink:title="Class for builtin functions and user&#45;defined callbacks.">
<polygon fill="white" stroke="none" points="623.12,-715 512.38,-715 512.38,-694.25 623.12,-694.25 623.12,-715"/>
<text xml:space="preserve" text-anchor="start" x="516.38" y="-701.5" font-family="Helvetica,sans-Serif" font-size="10.00">inja::FunctionStorage</text>
<polygon fill="none" stroke="#666666" points="512.38,-694.25 512.38,-715 623.12,-715 623.12,-694.25 512.38,-694.25"/>
</a>
</g>
</g>
<!-- Node8&#45;&gt;Node7 -->
<g id="edge7_Node000007_Node000008" class="edge">
<title>Node8&#45;&gt;Node7</title>
<g id="a_edge7_Node000007_Node000008"><a xlink:title=" ">
<path fill="none" stroke="#63b8ff" d="M567.28,-694.43C567.14,-681.69 568.8,-658.66 581.25,-644.75 591.14,-633.7 604.84,-626.27 618.83,-621.27"/>
<polygon fill="none" stroke="#63b8ff" points="618.77,-621.29 623.32,-615.69 630.24,-617.74 625.69,-623.34 618.77,-621.29"/>
</a>
</g>
<text xml:space="preserve" text-anchor="start" x="584.25" y="-651" font-family="Helvetica,sans-Serif" font-size="10.00" fill="grey">&#45;function_storage</text>
</g>
<!-- Node9 -->
<g id="Node000009" class="node">
<title>Node9</title>
<g id="a_Node000009"><a xlink:title=" ">
<polygon fill="white" stroke="none" points="634.12,-841.5 517.38,-841.5 517.38,-782.5 634.12,-782.5 634.12,-841.5"/>
<text xml:space="preserve" text-anchor="start" x="521.38" y="-828" font-family="Helvetica,sans-Serif" font-size="10.00">std::map&lt; std::pair</text>
<text xml:space="preserve" text-anchor="start" x="521.38" y="-815.25" font-family="Helvetica,sans-Serif" font-size="10.00">&lt; std::string, int &gt;</text>
<text xml:space="preserve" text-anchor="start" x="521.38" y="-802.5" font-family="Helvetica,sans-Serif" font-size="10.00">, inja::FunctionStorage</text>
<text xml:space="preserve" text-anchor="start" x="534.88" y="-789.75" font-family="Helvetica,sans-Serif" font-size="10.00">::FunctionData &gt;</text>
<polygon fill="none" stroke="#666666" points="517.38,-782.5 517.38,-841.5 634.12,-841.5 634.12,-782.5 517.38,-782.5"/>
</a>
</g>
</g>
<!-- Node9&#45;&gt;Node8 -->
<g id="edge8_Node000008_Node000009" class="edge">
<title>Node9&#45;&gt;Node8</title>
<g id="a_edge8_Node000008_Node000009"><a xlink:title=" ">
<path fill="none" stroke="#63b8ff" d="M573.61,-782.76C572.29,-765.4 570.62,-743.48 569.41,-727.45"/>
<polygon fill="none" stroke="#63b8ff" points="569.41,-727.55 564.97,-721.87 568.51,-715.58 572.95,-721.26 569.41,-727.55"/>
</a>
</g>
<text xml:space="preserve" text-anchor="start" x="574.99" y="-752" font-family="Helvetica,sans-Serif" font-size="10.00" fill="grey">&#45;function_storage</text>
</g>
<!-- Node10 -->
<g id="Node000010" class="node">
<title>Node10</title>
<g id="a_Node000010"><a xlink:title=" ">
<polygon fill="white" stroke="none" points="628.12,-938.12 517.38,-938.12 517.38,-904.62 628.12,-904.62 628.12,-938.12"/>
<text xml:space="preserve" text-anchor="start" x="521.38" y="-924.62" font-family="Helvetica,sans-Serif" font-size="10.00">std::pair&lt; std::string,</text>
<text xml:space="preserve" text-anchor="start" x="559.25" y="-911.88" font-family="Helvetica,sans-Serif" font-size="10.00"> int &gt;</text>
<polygon fill="none" stroke="#666666" points="517.38,-904.62 517.38,-938.12 628.12,-938.12 628.12,-904.62 517.38,-904.62"/>
</a>
</g>
</g>
<!-- Node10&#45;&gt;Node9 -->
<g id="edge9_Node000009_Node000010" class="edge">
<title>Node10&#45;&gt;Node9</title>
<g id="a_edge9_Node000009_Node000010"><a xlink:title=" ">
<path fill="none" stroke="#63b8ff" d="M573.18,-904.99C573.55,-891.71 574.1,-871.9 574.6,-854.07"/>
<polygon fill="none" stroke="#63b8ff" points="574.6,-854.15 570.77,-848.04 574.94,-842.15 578.77,-848.26 574.6,-854.15"/>
</a>
</g>
<text xml:space="preserve" text-anchor="start" x="577.43" y="-866.75" font-family="Helvetica,sans-Serif" font-size="10.00" fill="grey">+keys</text>
</g>
<!-- Node11 -->
<g id="Node000011" class="node">
<title>Node11</title>
<g id="a_Node000011"><a xlink:title=" ">
<polygon fill="white" stroke="none" points="549.12,-1260.88 492.38,-1260.88 492.38,-1240.12 549.12,-1240.12 549.12,-1260.88"/>
<text xml:space="preserve" text-anchor="start" x="496.38" y="-1247.38" font-family="Helvetica,sans-Serif" font-size="10.00">std::string</text>
<polygon fill="none" stroke="#666666" points="492.38,-1240.12 492.38,-1260.88 549.12,-1260.88 549.12,-1240.12 492.38,-1240.12"/>
</a>
</g>
</g>
<!-- Node11&#45;&gt;Node5 -->
<g id="edge31_Node000005_Node000011" class="edge">
<title>Node11&#45;&gt;Node5</title>
<g id="a_edge31_Node000005_Node000011"><a xlink:title=" ">
<path fill="none" stroke="#63b8ff" d="M548.96,-1248.92C631.57,-1246.94 868.76,-1239.24 893.75,-1215.75 989.87,-1125.41 938.75,-1054.29 938.75,-922.38 938.75,-922.38 938.75,-922.38 938.75,-432.5 938.75,-371.56 868.38,-341.23 811.96,-326.72"/>
<polygon fill="none" stroke="#63b8ff" points="811.98,-326.72 805.21,-329.2 800.32,-323.9 807.09,-321.43 811.98,-326.72"/>
</a>
</g>
<text xml:space="preserve" text-anchor="start" x="941.75" y="-651" font-family="Helvetica,sans-Serif" font-size="10.00" fill="grey">&#45;mappingJsonSchemaString</text>
</g>
<!-- Node11&#45;&gt;Node10 -->
<g id="edge10_Node000010_Node000011" class="edge">
<title>Node11&#45;&gt;Node10</title>
<g id="a_edge10_Node000010_Node000011"><a xlink:title=" ">
<path fill="none" stroke="#63b8ff" d="M522.2,-1240.41C528.9,-1198.22 557.13,-1020.63 568.24,-950.77"/>
<polygon fill="none" stroke="#63b8ff" points="568.25,-950.69 565.24,-944.13 570.13,-938.84 573.14,-945.39 568.25,-950.69"/>
</a>
</g>
<text xml:space="preserve" text-anchor="start" x="569.31" y="-1086" font-family="Helvetica,sans-Serif" font-size="10.00" fill="grey">+first_type</text>
</g>
<!-- Node15 -->
<g id="Node000015" class="node">
<title>Node15</title>
<g id="a_Node000015"><a xlink:href="structinja_1_1LexerConfig.html" target="_top" xlink:title="Class for lexer configuration.">
<polygon fill="white" stroke="none" points="834,-880.25 743.5,-880.25 743.5,-859.5 834,-859.5 834,-880.25"/>
<text xml:space="preserve" text-anchor="start" x="747.5" y="-866.75" font-family="Helvetica,sans-Serif" font-size="10.00">inja::LexerConfig</text>
<polygon fill="none" stroke="#666666" points="743.5,-859.5 743.5,-880.25 834,-880.25 834,-859.5 743.5,-859.5"/>
</a>
</g>
</g>
<!-- Node11&#45;&gt;Node15 -->
<g id="edge15_Node000015_Node000011" class="edge">
<title>Node11&#45;&gt;Node15</title>
<g id="a_edge15_Node000015_Node000011"><a xlink:title=" ">
<path fill="none" stroke="#63b8ff" d="M549,-1247.04C573.16,-1243.6 607.59,-1235.39 630.75,-1215.75 735.62,-1126.82 774.53,-953.55 785.31,-892.67"/>
<polygon fill="none" stroke="#63b8ff" points="785.3,-892.73 782.34,-886.16 787.28,-880.9 790.23,-887.47 785.3,-892.73"/>
</a>
</g>
<text xml:space="preserve" text-anchor="start" x="771.64" y="-1203.25" font-family="Helvetica,sans-Serif" font-size="10.00" fill="grey">+comment_close</text>
<text xml:space="preserve" text-anchor="start" x="771.64" y="-1186.5" font-family="Helvetica,sans-Serif" font-size="10.00" fill="grey">+comment_close_force</text>
<text xml:space="preserve" text-anchor="start" x="771.64" y="-1169.75" font-family="Helvetica,sans-Serif" font-size="10.00" fill="grey">  _rstrip</text>
<text xml:space="preserve" text-anchor="start" x="771.64" y="-1153" font-family="Helvetica,sans-Serif" font-size="10.00" fill="grey">+comment_open</text>
<text xml:space="preserve" text-anchor="start" x="771.64" y="-1136.25" font-family="Helvetica,sans-Serif" font-size="10.00" fill="grey">+comment_open_force</text>
<text xml:space="preserve" text-anchor="start" x="771.64" y="-1119.5" font-family="Helvetica,sans-Serif" font-size="10.00" fill="grey">  _lstrip</text>
<text xml:space="preserve" text-anchor="start" x="771.64" y="-1102.75" font-family="Helvetica,sans-Serif" font-size="10.00" fill="grey">+expression_close</text>
<text xml:space="preserve" text-anchor="start" x="771.64" y="-1086" font-family="Helvetica,sans-Serif" font-size="10.00" fill="grey">+expression_close</text>
<text xml:space="preserve" text-anchor="start" x="771.64" y="-1069.25" font-family="Helvetica,sans-Serif" font-size="10.00" fill="grey">  _force_rstrip</text>
<text xml:space="preserve" text-anchor="start" x="771.64" y="-1052.5" font-family="Helvetica,sans-Serif" font-size="10.00" fill="grey">+expression_open</text>
<text xml:space="preserve" text-anchor="start" x="771.64" y="-1035.75" font-family="Helvetica,sans-Serif" font-size="10.00" fill="grey">+expression_open</text>
<text xml:space="preserve" text-anchor="start" x="771.64" y="-1019" font-family="Helvetica,sans-Serif" font-size="10.00" fill="grey">  _force_lstrip</text>
<text xml:space="preserve" text-anchor="start" x="771.64" y="-1002.25" font-family="Helvetica,sans-Serif" font-size="10.00" fill="grey">+line_statement</text>
<text xml:space="preserve" text-anchor="start" x="771.64" y="-985.5" font-family="Helvetica,sans-Serif" font-size="10.00" fill="grey">+open_chars</text>
<text xml:space="preserve" text-anchor="start" x="771.64" y="-968.75" font-family="Helvetica,sans-Serif" font-size="10.00" fill="grey"> &#160;...</text>
</g>
<!-- Node22 -->
<g id="Node000022" class="node">
<title>Node22</title>
<g id="a_Node000022"><a xlink:title=" ">
<polygon fill="white" stroke="none" points="378.5,-727.75 225,-727.75 225,-681.5 378.5,-681.5 378.5,-727.75"/>
<text xml:space="preserve" text-anchor="start" x="229" y="-714.25" font-family="Helvetica,sans-Serif" font-size="10.00">std::map&lt; std::string,</text>
<text xml:space="preserve" text-anchor="start" x="229" y="-701.5" font-family="Helvetica,sans-Serif" font-size="10.00"> nlohmann::json_schema</text>
<text xml:space="preserve" text-anchor="start" x="229" y="-688.75" font-family="Helvetica,sans-Serif" font-size="10.00">::root_schema::schema_file &gt;</text>
<polygon fill="none" stroke="#666666" points="225,-681.5 225,-727.75 378.5,-727.75 378.5,-681.5 225,-681.5"/>
</a>
</g>
</g>
<!-- Node11&#45;&gt;Node22 -->
<g id="edge23_Node000022_Node000011" class="edge">
<title>Node11&#45;&gt;Node22</title>
<g id="a_edge23_Node000022_Node000011"><a xlink:title=" ">
<path fill="none" stroke="#63b8ff" d="M520.82,-1240.15C520.81,-1198.53 517.55,-1026.45 466.75,-898.25 436.8,-822.67 423.95,-802.51 365.75,-745.75 361.89,-741.99 357.63,-738.4 353.19,-735.03"/>
<polygon fill="none" stroke="#63b8ff" points="353.15,-735.01 345.94,-734.82 343.34,-728.09 350.55,-728.28 353.15,-735.01"/>
</a>
</g>
<text xml:space="preserve" text-anchor="start" x="462.48" y="-866.75" font-family="Helvetica,sans-Serif" font-size="10.00" fill="grey">+keys</text>
</g>
<!-- Node24 -->
<g id="Node000024" class="node">
<title>Node24</title>
<g id="a_Node000024"><a xlink:title=" ">
<polygon fill="white" stroke="none" points="457.62,-938.12 301.88,-938.12 301.88,-904.62 457.62,-904.62 457.62,-938.12"/>
<text xml:space="preserve" text-anchor="start" x="305.88" y="-924.62" font-family="Helvetica,sans-Serif" font-size="10.00">std::map&lt; std::string,</text>
<text xml:space="preserve" text-anchor="start" x="305.88" y="-911.88" font-family="Helvetica,sans-Serif" font-size="10.00"> std::shared_ptr&lt; schema &gt; &gt;</text>
<polygon fill="none" stroke="#666666" points="301.88,-904.62 301.88,-938.12 457.62,-938.12 457.62,-904.62 301.88,-904.62"/>
</a>
</g>
</g>
<!-- Node11&#45;&gt;Node24 -->
<g id="edge26_Node000024_Node000011" class="edge">
<title>Node11&#45;&gt;Node24</title>
<g id="a_edge26_Node000024_Node000011"><a xlink:title=" ">
<path fill="none" stroke="#63b8ff" d="M492.56,-1245.09C474.82,-1240.75 453.06,-1232.26 441,-1215.75 407.66,-1170.12 441.05,-1013.99 417.75,-962.5 415.33,-957.14 411.89,-952.05 408.05,-947.41"/>
<polygon fill="none" stroke="#63b8ff" points="408.09,-947.44 401.07,-945.79 399.9,-938.67 406.92,-940.33 408.09,-947.44"/>
</a>
</g>
<text xml:space="preserve" text-anchor="start" x="444" y="-1086" font-family="Helvetica,sans-Serif" font-size="10.00" fill="grey">+keys</text>
</g>
<!-- Node25 -->
<g id="Node000025" class="node">
<title>Node25</title>
<g id="a_Node000025"><a xlink:title=" ">
<polygon fill="white" stroke="none" points="283.38,-944.5 150.12,-944.5 150.12,-898.25 283.38,-898.25 283.38,-944.5"/>
<text xml:space="preserve" text-anchor="start" x="154.12" y="-931" font-family="Helvetica,sans-Serif" font-size="10.00">std::map&lt; std::string,</text>
<text xml:space="preserve" text-anchor="start" x="154.12" y="-918.25" font-family="Helvetica,sans-Serif" font-size="10.00"> std::shared_ptr&lt; schema</text>
<text xml:space="preserve" text-anchor="start" x="196.12" y="-905.5" font-family="Helvetica,sans-Serif" font-size="10.00">_ref &gt; &gt;</text>
<polygon fill="none" stroke="#666666" points="150.12,-898.25 150.12,-944.5 283.38,-944.5 283.38,-898.25 150.12,-898.25"/>
</a>
</g>
</g>
<!-- Node11&#45;&gt;Node25 -->
<g id="edge29_Node000025_Node000011" class="edge">
<title>Node11&#45;&gt;Node25</title>
<g id="a_edge29_Node000025_Node000011"><a xlink:title=" ">
<path fill="none" stroke="#63b8ff" d="M492.66,-1246.8C455.18,-1242.57 391.8,-1233.03 377,-1215.75 340.29,-1172.88 393.6,-1006.09 357.75,-962.5 340.94,-942.06 325.63,-950.06 295.76,-944.68"/>
<polygon fill="none" stroke="#63b8ff" points="295.62,-944.65 288.87,-947.19 283.93,-941.94 290.68,-939.4 295.62,-944.65"/>
</a>
</g>
<text xml:space="preserve" text-anchor="start" x="380" y="-1086" font-family="Helvetica,sans-Serif" font-size="10.00" fill="grey">+keys</text>
</g>
<!-- Node12 -->
<g id="Node000012" class="node">
<title>Node12</title>
<g id="a_Node000012"><a xlink:title=" ">
<polygon fill="white" stroke="none" points="568.62,-1337.75 472.88,-1337.75 472.88,-1304.25 568.62,-1304.25 568.62,-1337.75"/>
<text xml:space="preserve" text-anchor="start" x="476.88" y="-1324.25" font-family="Helvetica,sans-Serif" font-size="10.00">std::basic_string&lt;</text>
<text xml:space="preserve" text-anchor="start" x="502.38" y="-1311.5" font-family="Helvetica,sans-Serif" font-size="10.00"> Char &gt;</text>
<polygon fill="none" stroke="#666666" points="472.88,-1304.25 472.88,-1337.75 568.62,-1337.75 568.62,-1304.25 472.88,-1304.25"/>
</a>
</g>
</g>
<!-- Node12&#45;&gt;Node11 -->
<g id="edge11_Node000011_Node000012" class="edge">
<title>Node12&#45;&gt;Node11</title>
<g id="a_edge11_Node000011_Node000012"><a xlink:title=" ">
<path fill="none" stroke="#63b8ff" d="M520.75,-1293.2C520.75,-1281.78 520.75,-1269.19 520.75,-1260.87"/>
<polygon fill="none" stroke="#63b8ff" points="517.25,-1292.94 520.75,-1302.94 524.25,-1292.94 517.25,-1292.94"/>
</a>
</g>
</g>
<!-- Node13 -->
<g id="Node000013" class="node">
<title>Node13</title>
<g id="a_Node000013"><a xlink:href="structinja_1_1FunctionStorage_1_1FunctionData.html" target="_top" xlink:title=" ">
<polygon fill="white" stroke="none" points="757.12,-938.12 646.38,-938.12 646.38,-904.62 757.12,-904.62 757.12,-938.12"/>
<text xml:space="preserve" text-anchor="start" x="650.38" y="-924.62" font-family="Helvetica,sans-Serif" font-size="10.00">inja::FunctionStorage</text>
<text xml:space="preserve" text-anchor="start" x="666.5" y="-911.88" font-family="Helvetica,sans-Serif" font-size="10.00">::FunctionData</text>
<polygon fill="none" stroke="#666666" points="646.38,-904.62 646.38,-938.12 757.12,-938.12 757.12,-904.62 646.38,-904.62"/>
</a>
</g>
</g>
<!-- Node13&#45;&gt;Node9 -->
<g id="edge12_Node000009_Node000013" class="edge">
<title>Node13&#45;&gt;Node9</title>
<g id="a_edge12_Node000009_Node000013"><a xlink:title=" ">
<path fill="none" stroke="#63b8ff" d="M683.43,-904.76C666.56,-890.39 640.89,-868.51 618.84,-849.72"/>
<polygon fill="none" stroke="#63b8ff" points="618.83,-849.71 611.67,-848.86 609.69,-841.93 616.86,-842.77 618.83,-849.71"/>
</a>
</g>
<text xml:space="preserve" text-anchor="start" x="656.74" y="-866.75" font-family="Helvetica,sans-Serif" font-size="10.00" fill="grey">+elements</text>
</g>
<!-- Node14 -->
<g id="Node000014" class="node">
<title>Node14</title>
<g id="a_Node000014"><a xlink:title=" ">
<polygon fill="white" stroke="none" points="754.62,-721.38 640.88,-721.38 640.88,-687.88 754.62,-687.88 754.62,-721.38"/>
<text xml:space="preserve" text-anchor="start" x="644.88" y="-707.88" font-family="Helvetica,sans-Serif" font-size="10.00">std::map&lt; std::string,</text>
<text xml:space="preserve" text-anchor="start" x="668.12" y="-695.12" font-family="Helvetica,sans-Serif" font-size="10.00"> Template &gt;</text>
<polygon fill="none" stroke="#666666" points="640.88,-687.88 640.88,-721.38 754.62,-721.38 754.62,-687.88 640.88,-687.88"/>
</a>
</g>
</g>
<!-- Node14&#45;&gt;Node7 -->
<g id="edge13_Node000007_Node000014" class="edge">
<title>Node14&#45;&gt;Node7</title>
<g id="a_edge13_Node000007_Node000014"><a xlink:title=" ">
<path fill="none" stroke="#63b8ff" d="M688.55,-688.18C684.75,-680.95 680.76,-672.05 678.75,-663.5 676.43,-653.6 675.94,-642.36 676.13,-632.82"/>
<polygon fill="none" stroke="#63b8ff" points="676.12,-632.94 672.43,-626.75 676.74,-620.96 680.42,-627.16 676.12,-632.94"/>
</a>
</g>
<text xml:space="preserve" text-anchor="start" x="681.75" y="-651" font-family="Helvetica,sans-Serif" font-size="10.00" fill="grey">&#45;template_storage</text>
</g>
<!-- Node15&#45;&gt;Node7 -->
<g id="edge14_Node000007_Node000015" class="edge">
<title>Node15&#45;&gt;Node7</title>
<g id="a_edge14_Node000007_Node000015"><a xlink:title=" ">
<path fill="none" stroke="#63b8ff" d="M791.44,-859.55C800.39,-826.32 825.89,-712.14 774.75,-644.75 765.49,-632.54 751.51,-624.73 737.03,-619.73"/>
<polygon fill="none" stroke="#63b8ff" points="737.23,-619.79 730.34,-621.94 725.71,-616.42 732.59,-614.27 737.23,-619.79"/>
</a>
</g>
<text xml:space="preserve" text-anchor="start" x="808.75" y="-752" font-family="Helvetica,sans-Serif" font-size="10.00" fill="grey">#lexer_config</text>
</g>
<!-- Node16 -->
<g id="Node000016" class="node">
<title>Node16</title>
<g id="a_Node000016"><a xlink:href="structinja_1_1ParserConfig.html" target="_top" xlink:title="Class for parser configuration.">
<polygon fill="white" stroke="none" points="910.88,-715 816.62,-715 816.62,-694.25 910.88,-694.25 910.88,-715"/>
<text xml:space="preserve" text-anchor="start" x="820.62" y="-701.5" font-family="Helvetica,sans-Serif" font-size="10.00">inja::ParserConfig</text>
<polygon fill="none" stroke="#666666" points="816.62,-694.25 816.62,-715 910.88,-715 910.88,-694.25 816.62,-694.25"/>
</a>
</g>
</g>
<!-- Node16&#45;&gt;Node7 -->
<g id="edge16_Node000007_Node000016" class="edge">
<title>Node16&#45;&gt;Node7</title>
<g id="a_edge16_Node000007_Node000016"><a xlink:title=" ">
<path fill="none" stroke="#63b8ff" d="M856.91,-694.59C846.59,-681.61 825.8,-657.81 802.75,-644.75 782.82,-633.45 758.94,-625.8 737.42,-620.68"/>
<polygon fill="none" stroke="#63b8ff" points="737.33,-620.66 730.61,-623.28 725.61,-618.08 732.33,-615.46 737.33,-620.66"/>
</a>
</g>
<text xml:space="preserve" text-anchor="start" x="829.98" y="-651" font-family="Helvetica,sans-Serif" font-size="10.00" fill="grey">#parser_config</text>
</g>
<!-- Node17 -->
<g id="Node000017" class="node">
<title>Node17</title>
<g id="a_Node000017"><a xlink:href="structinja_1_1RenderConfig.html" target="_top" xlink:title="Class for render configuration.">
<polygon fill="white" stroke="none" points="494.75,-715 396.75,-715 396.75,-694.25 494.75,-694.25 494.75,-715"/>
<text xml:space="preserve" text-anchor="start" x="400.75" y="-701.5" font-family="Helvetica,sans-Serif" font-size="10.00">inja::RenderConfig</text>
<polygon fill="none" stroke="#666666" points="396.75,-694.25 396.75,-715 494.75,-715 494.75,-694.25 396.75,-694.25"/>
</a>
</g>
</g>
<!-- Node17&#45;&gt;Node7 -->
<g id="edge17_Node000007_Node000017" class="edge">
<title>Node17&#45;&gt;Node7</title>
<g id="a_edge17_Node000007_Node000017"><a xlink:title=" ">
<path fill="none" stroke="#63b8ff" d="M449.45,-694.33C455.26,-681.03 467.86,-656.82 486.75,-644.75 508.13,-631.09 570.51,-621.82 618.23,-616.5"/>
<polygon fill="none" stroke="#63b8ff" points="618.11,-616.51 623.65,-611.89 630.04,-615.23 624.5,-619.85 618.11,-616.51"/>
</a>
</g>
<text xml:space="preserve" text-anchor="start" x="489.75" y="-651" font-family="Helvetica,sans-Serif" font-size="10.00" fill="grey">#render_config</text>
</g>
<!-- Node18 -->
<g id="Node000018" class="node">
<title>Node18</title>
<g id="a_Node000018"><a xlink:href="classnlohmann_1_1json__schema_1_1json__validator.html" target="_top" xlink:title=" ">
<polygon fill="white" stroke="none" points="646,-450.25 519.5,-450.25 519.5,-416.75 646,-416.75 646,-450.25"/>
<text xml:space="preserve" text-anchor="start" x="523.5" y="-436.75" font-family="Helvetica,sans-Serif" font-size="10.00">nlohmann::json_schema</text>
<text xml:space="preserve" text-anchor="start" x="545.25" y="-424" font-family="Helvetica,sans-Serif" font-size="10.00">::json_validator</text>
<polygon fill="none" stroke="#666666" points="519.5,-416.75 519.5,-450.25 646,-450.25 646,-416.75 519.5,-416.75"/>
</a>
</g>
</g>
<!-- Node18&#45;&gt;Node5 -->
<g id="edge18_Node000005_Node000018" class="edge">
<title>Node18&#45;&gt;Node5</title>
<g id="a_edge18_Node000005_Node000018"><a xlink:title=" ">
<path fill="none" stroke="#63b8ff" d="M587.93,-417.1C592.42,-405.68 599.87,-390.36 610.5,-380 635.41,-355.72 671.08,-338.74 699.09,-328.14"/>
<polygon fill="none" stroke="#63b8ff" points="699.23,-328.1 703.51,-322.3 710.52,-324.03 706.23,-329.82 699.23,-328.1"/>
</a>
</g>
<text xml:space="preserve" text-anchor="start" x="613.5" y="-386.25" font-family="Helvetica,sans-Serif" font-size="10.00" fill="grey">&#45;validator</text>
</g>
<!-- Node19 -->
<g id="Node000019" class="node">
<title>Node19</title>
<g id="a_Node000019"><a xlink:title=" ">
<polygon fill="white" stroke="none" points="581.75,-538.5 423.75,-538.5 423.75,-505 581.75,-505 581.75,-538.5"/>
<text xml:space="preserve" text-anchor="start" x="427.75" y="-525" font-family="Helvetica,sans-Serif" font-size="10.00">std::unique_ptr&lt; nlohmann</text>
<text xml:space="preserve" text-anchor="start" x="427.75" y="-512.25" font-family="Helvetica,sans-Serif" font-size="10.00">::json_schema::root_schema &gt;</text>
<polygon fill="none" stroke="#666666" points="423.75,-505 423.75,-538.5 581.75,-538.5 581.75,-505 423.75,-505"/>
</a>
</g>
</g>
<!-- Node19&#45;&gt;Node18 -->
<g id="edge19_Node000018_Node000019" class="edge">
<title>Node19&#45;&gt;Node18</title>
<g id="a_edge19_Node000018_Node000019"><a xlink:title=" ">
<path fill="none" stroke="#63b8ff" d="M517.05,-505.33C528.92,-492.53 546.03,-474.09 559.81,-459.23"/>
<polygon fill="none" stroke="#63b8ff" points="559.53,-459.54 560.68,-452.42 567.69,-450.74 566.54,-457.86 559.53,-459.54"/>
</a>
</g>
<text xml:space="preserve" text-anchor="start" x="552.92" y="-474.5" font-family="Helvetica,sans-Serif" font-size="10.00" fill="grey">&#45;root_</text>
</g>
<!-- Node20 -->
<g id="Node000020" class="node">
<title>Node20</title>
<g id="a_Node000020"><a xlink:href="classnlohmann_1_1json__schema_1_1root__schema.html" target="_top" xlink:title=" ">
<polygon fill="white" stroke="none" points="365,-626.75 238.5,-626.75 238.5,-593.25 365,-593.25 365,-626.75"/>
<text xml:space="preserve" text-anchor="start" x="242.5" y="-613.25" font-family="Helvetica,sans-Serif" font-size="10.00">nlohmann::json_schema</text>
<text xml:space="preserve" text-anchor="start" x="267.25" y="-600.5" font-family="Helvetica,sans-Serif" font-size="10.00">::root_schema</text>
<polygon fill="none" stroke="#666666" points="238.5,-593.25 238.5,-626.75 365,-626.75 365,-593.25 238.5,-593.25"/>
</a>
</g>
</g>
<!-- Node20&#45;&gt;Node19 -->
<g id="edge20_Node000019_Node000020" class="edge">
<title>Node20&#45;&gt;Node19</title>
<g id="a_edge20_Node000019_Node000020"><a xlink:title=" ">
<path fill="none" stroke="#63b8ff" d="M338.15,-593.38C370.78,-579.38 418.87,-558.74 454.66,-543.39"/>
<polygon fill="none" stroke="#63b8ff" points="454.43,-543.49 458.36,-537.44 465.45,-538.75 461.52,-544.8 454.43,-543.49"/>
</a>
</g>
<text xml:space="preserve" text-anchor="start" x="423.25" y="-562.75" font-family="Helvetica,sans-Serif" font-size="10.00" fill="grey">+ptr</text>
</g>
<!-- Node21 -->
<g id="Node000021" class="node">
<title>Node21</title>
<g id="a_Node000021"><a xlink:title=" ">
<polygon fill="white" stroke="none" points="141.5,-1260.88 0,-1260.88 0,-1240.12 141.5,-1240.12 141.5,-1260.88"/>
<text xml:space="preserve" text-anchor="start" x="4" y="-1247.38" font-family="Helvetica,sans-Serif" font-size="10.00">std::shared_ptr&lt; schema &gt;</text>
<polygon fill="none" stroke="#666666" points="0,-1240.12 0,-1260.88 141.5,-1260.88 141.5,-1240.12 0,-1240.12"/>
</a>
</g>
</g>
<!-- Node21&#45;&gt;Node20 -->
<g id="edge21_Node000020_Node000021" class="edge">
<title>Node21&#45;&gt;Node20</title>
<g id="a_edge21_Node000020_Node000021"><a xlink:title=" ">
<path fill="none" stroke="#63b8ff" d="M72.44,-1240.17C79.3,-1201.36 104.75,-1048.85 104.75,-922.38 104.75,-922.38 104.75,-922.38 104.75,-703.62 104.75,-647.79 170.36,-625.55 225.86,-616.73"/>
<polygon fill="none" stroke="#63b8ff" points="225.83,-616.73 231.21,-611.92 237.71,-615.03 232.34,-619.84 225.83,-616.73"/>
</a>
</g>
<text xml:space="preserve" text-anchor="start" x="107.75" y="-808.88" font-family="Helvetica,sans-Serif" font-size="10.00" fill="grey">&#45;root_</text>
</g>
<!-- Node21&#45;&gt;Node24 -->
<g id="edge27_Node000024_Node000021" class="edge">
<title>Node21&#45;&gt;Node24</title>
<g id="a_edge27_Node000024_Node000021"><a xlink:title=" ">
<path fill="none" stroke="#63b8ff" d="M115.95,-1240.19C127.29,-1237.97 139.45,-1235.68 150.75,-1233.75 178.2,-1229.06 255.75,-1236.11 274.75,-1215.75 313.25,-1174.49 261.67,-1008.93 293.75,-962.5 298.72,-955.31 305.33,-949.37 312.68,-944.48"/>
<polygon fill="none" stroke="#63b8ff" points="312.69,-944.47 315.9,-938.01 323.09,-938.49 319.89,-944.95 312.69,-944.47"/>
</a>
</g>
<text xml:space="preserve" text-anchor="start" x="296.75" y="-1086" font-family="Helvetica,sans-Serif" font-size="10.00" fill="grey">+elements</text>
</g>
<!-- Node22&#45;&gt;Node20 -->
<g id="edge22_Node000020_Node000022" class="edge">
<title>Node22&#45;&gt;Node20</title>
<g id="a_edge22_Node000020_Node000022"><a xlink:title=" ">
<path fill="none" stroke="#63b8ff" d="M301.75,-681.67C301.75,-669.13 301.75,-653.25 301.75,-639.72"/>
<polygon fill="none" stroke="#63b8ff" points="301.75,-639.61 297.75,-633.61 301.75,-627.61 305.75,-633.61 301.75,-639.61"/>
</a>
</g>
<text xml:space="preserve" text-anchor="start" x="304.75" y="-651" font-family="Helvetica,sans-Serif" font-size="10.00" fill="grey">&#45;files_</text>
</g>
<!-- Node23 -->
<g id="Node000023" class="node">
<title>Node23</title>
<g id="a_Node000023"><a xlink:href="structnlohmann_1_1json__schema_1_1root__schema_1_1schema__file.html" target="_top" xlink:title=" ">
<polygon fill="white" stroke="none" points="372.88,-828.75 230.62,-828.75 230.62,-795.25 372.88,-795.25 372.88,-828.75"/>
<text xml:space="preserve" text-anchor="start" x="234.62" y="-815.25" font-family="Helvetica,sans-Serif" font-size="10.00">nlohmann::json_schema</text>
<text xml:space="preserve" text-anchor="start" x="234.62" y="-802.5" font-family="Helvetica,sans-Serif" font-size="10.00">::root_schema::schema_file</text>
<polygon fill="none" stroke="#666666" points="230.62,-795.25 230.62,-828.75 372.88,-828.75 372.88,-795.25 230.62,-795.25"/>
</a>
</g>
</g>
<!-- Node23&#45;&gt;Node22 -->
<g id="edge24_Node000022_Node000023" class="edge">
<title>Node23&#45;&gt;Node22</title>
<g id="a_edge24_Node000022_Node000023"><a xlink:title=" ">
<path fill="none" stroke="#63b8ff" d="M301.75,-795.45C301.75,-780.99 301.75,-758.92 301.75,-740.28"/>
<polygon fill="none" stroke="#63b8ff" points="301.75,-740.37 297.75,-734.37 301.75,-728.37 305.75,-734.37 301.75,-740.37"/>
</a>
</g>
<text xml:space="preserve" text-anchor="start" x="304.75" y="-752" font-family="Helvetica,sans-Serif" font-size="10.00" fill="grey">+elements</text>
</g>
<!-- Node24&#45;&gt;Node23 -->
<g id="edge25_Node000023_Node000024" class="edge">
<title>Node24&#45;&gt;Node23</title>
<g id="a_edge25_Node000023_Node000024"><a xlink:title=" ">
<path fill="none" stroke="#63b8ff" d="M368.57,-904.99C356.08,-887.79 335.63,-859.63 320.63,-839"/>
<polygon fill="none" stroke="#63b8ff" points="320.74,-839.14 313.98,-836.64 313.69,-829.43 320.45,-831.94 320.74,-839.14"/>
</a>
</g>
<text xml:space="preserve" text-anchor="start" x="353.03" y="-866.75" font-family="Helvetica,sans-Serif" font-size="10.00" fill="grey">+schemas</text>
</g>
<!-- Node25&#45;&gt;Node23 -->
<g id="edge28_Node000023_Node000025" class="edge">
<title>Node25&#45;&gt;Node23</title>
<g id="a_edge28_Node000023_Node000025"><a xlink:title=" ">
<path fill="none" stroke="#63b8ff" d="M233.45,-898.26C242.29,-886.65 253.38,-872.23 263.5,-859.5 269.09,-852.46 275.25,-844.91 280.95,-837.97"/>
<polygon fill="none" stroke="#63b8ff" points="280.65,-838.34 281.39,-831.16 288.3,-829.09 287.55,-836.26 280.65,-838.34"/>
</a>
</g>
<text xml:space="preserve" text-anchor="start" x="266.5" y="-866.75" font-family="Helvetica,sans-Serif" font-size="10.00" fill="grey">+unresolved</text>
</g>
<!-- Node26 -->
<g id="Node000026" class="node">
<title>Node26</title>
<g id="a_Node000026"><a xlink:title=" ">
<polygon fill="white" stroke="none" points="289.88,-1267.25 159.62,-1267.25 159.62,-1233.75 289.88,-1233.75 289.88,-1267.25"/>
<text xml:space="preserve" text-anchor="start" x="163.62" y="-1253.75" font-family="Helvetica,sans-Serif" font-size="10.00">std::shared_ptr&lt; schema</text>
<text xml:space="preserve" text-anchor="start" x="209.75" y="-1241" font-family="Helvetica,sans-Serif" font-size="10.00">_ref &gt;</text>
<polygon fill="none" stroke="#666666" points="159.62,-1233.75 159.62,-1267.25 289.88,-1267.25 289.88,-1233.75 159.62,-1233.75"/>
</a>
</g>
</g>
<!-- Node26&#45;&gt;Node25 -->
<g id="edge30_Node000025_Node000026" class="edge">
<title>Node26&#45;&gt;Node25</title>
<g id="a_edge30_Node000025_Node000026"><a xlink:title=" ">
<path fill="none" stroke="#63b8ff" d="M219.11,-1233.91C217.34,-1228.27 215.63,-1221.8 214.75,-1215.75 198.59,-1104.36 211.95,-1075.02 214.75,-962.5 214.79,-960.85 214.84,-959.17 214.9,-957.47"/>
<polygon fill="none" stroke="#63b8ff" points="214.9,-957.33 211.16,-951.17 215.41,-945.34 219.16,-951.51 214.9,-957.33"/>
</a>
</g>
<text xml:space="preserve" text-anchor="start" x="217.75" y="-1086" font-family="Helvetica,sans-Serif" font-size="10.00" fill="grey">+elements</text>
</g>
<!-- Node27 -->
<g id="Node000027" class="node">
<title>Node27</title>
<g id="a_Node000027"><a xlink:title=" ">
<polygon fill="white" stroke="none" points="915.38,-210 818.12,-210 818.12,-176.5 915.38,-176.5 915.38,-210"/>
<text xml:space="preserve" text-anchor="start" x="822.12" y="-196.5" font-family="Helvetica,sans-Serif" font-size="10.00">std::list&lt; iot::mqtt</text>
<text xml:space="preserve" text-anchor="start" x="845.75" y="-183.75" font-family="Helvetica,sans-Serif" font-size="10.00">::Topic &gt;</text>
<polygon fill="none" stroke="#666666" points="818.12,-176.5 818.12,-210 915.38,-210 915.38,-176.5 818.12,-176.5"/>
</a>
</g>
</g>
<!-- Node27&#45;&gt;Node2 -->
<g id="edge32_Node000002_Node000027" class="edge">
<title>Node27&#45;&gt;Node2</title>
<g id="a_edge32_Node000002_Node000027"><a xlink:title=" ">
<path fill="none" stroke="#63b8ff" d="M863.18,-176.53C862.04,-170.88 860.9,-164.43 860.25,-158.5 859.4,-150.8 858.95,-142.42 858.73,-134.67"/>
<polygon fill="none" stroke="#63b8ff" points="858.73,-134.57 854.64,-128.63 858.55,-122.57 862.64,-128.51 858.73,-134.57"/>
</a>
</g>
<text xml:space="preserve" text-anchor="start" x="863.25" y="-146" font-family="Helvetica,sans-Serif" font-size="10.00" fill="grey">&#45;currentSubscriptions</text>
</g>
<!-- Node28&#45;&gt;Node2 -->
<g id="edge34_Node000002_Node000028" class="edge">
<title>Node28&#45;&gt;Node2</title>
<g id="a_edge34_Node000002_Node000028"><a xlink:title=" ">
<path fill="none" stroke="#63b8ff" d="M863.26,-33.41C864.68,-39.06 866.05,-45.52 866.75,-51.5 867.72,-59.78 867.72,-61.97 866.75,-70.25 866.54,-72.03 866.28,-73.84 865.97,-75.67"/>
<polygon fill="none" stroke="#63b8ff" points="865.95,-75.72 868.61,-82.42 863.45,-87.46 860.79,-80.76 865.95,-75.72"/>
</a>
</g>
<text xml:space="preserve" text-anchor="start" x="870.48" y="-57.75" font-family="Helvetica,sans-Serif" font-size="10.00" fill="grey">&#45;mqttInstances</text>
</g>
<!-- Node29 -->
<g id="Node000029" class="node">
<title>Node29</title>
<g id="a_Node000029"><a xlink:title=" ">
<polygon fill="white" stroke="none" points="1145,-362 970.5,-362 970.5,-264.75 1145,-264.75 1145,-362"/>
<text xml:space="preserve" text-anchor="start" x="974.5" y="-348.5" font-family="Helvetica,sans-Serif" font-size="10.00">std::priority_queue</text>
<text xml:space="preserve" text-anchor="start" x="974.5" y="-335.75" font-family="Helvetica,sans-Serif" font-size="10.00">&lt; mqtt::mqttintegrator</text>
<text xml:space="preserve" text-anchor="start" x="974.5" y="-323" font-family="Helvetica,sans-Serif" font-size="10.00">::lib::Mqtt::ScheduledPublish,</text>
<text xml:space="preserve" text-anchor="start" x="974.5" y="-310.25" font-family="Helvetica,sans-Serif" font-size="10.00"> std::vector&lt; mqtt::mqttintegrator</text>
<text xml:space="preserve" text-anchor="start" x="974.5" y="-297.5" font-family="Helvetica,sans-Serif" font-size="10.00">::lib::Mqtt::ScheduledPublish &gt;,</text>
<text xml:space="preserve" text-anchor="start" x="974.5" y="-284.75" font-family="Helvetica,sans-Serif" font-size="10.00"> mqtt::mqttintegrator::lib::Mqtt</text>
<text xml:space="preserve" text-anchor="start" x="984.25" y="-272" font-family="Helvetica,sans-Serif" font-size="10.00">::DelayedQueue::EarlierFirst &gt;</text>
<polygon fill="none" stroke="#666666" points="970.5,-264.75 970.5,-362 1145,-362 1145,-264.75 970.5,-264.75"/>
</a>
</g>
</g>
<!-- Node29&#45;&gt;Node1 -->
<g id="edge36_Node000001_Node000029" class="edge">
<title>Node29&#45;&gt;Node1</title>
<g id="a_edge36_Node000001_Node000029"><a xlink:title=" ">
<path fill="none" stroke="#63b8ff" d="M1057.75,-265.01C1057.75,-250.74 1057.75,-235.52 1057.75,-222.87"/>
<polygon fill="none" stroke="#63b8ff" points="1057.75,-222.76 1053.75,-216.76 1057.75,-210.76 1061.75,-216.76 1057.75,-222.76"/>
</a>
</g>
<text xml:space="preserve" text-anchor="start" x="1060.75" y="-234.25" font-family="Helvetica,sans-Serif" font-size="10.00" fill="grey">&#45;minHeap</text>
</g>
<!-- Node30 -->
<g id="Node000030" class="node">
<title>Node30</title>
<g id="a_Node000030"><a xlink:href="structmqtt_1_1mqttintegrator_1_1lib_1_1Mqtt_1_1ScheduledPublish.html" target="_top" xlink:title=" ">
<polygon fill="white" stroke="none" points="1130.75,-450.25 984.75,-450.25 984.75,-416.75 1130.75,-416.75 1130.75,-450.25"/>
<text xml:space="preserve" text-anchor="start" x="988.75" y="-436.75" font-family="Helvetica,sans-Serif" font-size="10.00">mqtt::mqttintegrator</text>
<text xml:space="preserve" text-anchor="start" x="988.75" y="-424" font-family="Helvetica,sans-Serif" font-size="10.00">::lib::Mqtt::ScheduledPublish</text>
<polygon fill="none" stroke="#666666" points="984.75,-416.75 984.75,-450.25 1130.75,-450.25 1130.75,-416.75 984.75,-416.75"/>
</a>
</g>
</g>
<!-- Node30&#45;&gt;Node29 -->
<g id="edge37_Node000029_Node000030" class="edge">
<title>Node30&#45;&gt;Node29</title>
<g id="a_edge37_Node000029_Node000030"><a xlink:title=" ">
<path fill="none" stroke="#63b8ff" d="M1057.75,-417.06C1057.75,-406.11 1057.75,-390.65 1057.75,-375.05"/>
<polygon fill="none" stroke="#63b8ff" points="1057.75,-374.9 1053.75,-368.9 1057.75,-362.9 1061.75,-368.9 1057.75,-374.9"/>
</a>
</g>
<text xml:space="preserve" text-anchor="start" x="1060.75" y="-386.25" font-family="Helvetica,sans-Serif" font-size="10.00" fill="grey">+elements</text>
</g>
</g>
</svg>
