<?xml version="1.0" encoding="UTF-8" standalone="no"?>
<!DOCTYPE svg PUBLIC "-//W3C//DTD SVG 1.1//EN"
 "http://www.w3.org/Graphics/SVG/1.1/DTD/svg11.dtd">
<!-- Generated by graphviz version 14.1.2 (0)
 -->
<!-- Title: mqtt::bridge::lib::SSEDistributor::sendEvent Pages: 1 -->
<!--zoomable 146 -->

<svg id="main" version="1.1" xmlns="http://www.w3.org/2000/svg" xmlns:xlink="http://www.w3.org/1999/xlink" xml:space="preserve" onload="init(evt)">

<style type="text/css"><![CDATA[
.node, .edge {opacity: 0.7;}
.node.selected, .edge.selected {opacity: 1;}
.edge:hover path { stroke: red; }
.edge:hover polygon { stroke: red; fill: red; }
]]></style>

<defs>
  <circle id="rim" cx="0" cy="0" r="7"/>
  <circle id="rim2" cx="0" cy="0" r="3.5"/>
  <g id="zoomPlus">
    <use xlink:href="#rim" fill="#404040"><set attributeName="fill" to="#808080" begin="zoomplus.mouseover" end="zoomplus.mouseout"/></use>
    <path d="M-4,0h8M0,-4v8" fill="none" stroke="white" stroke-width="1.5" pointer-events="none"/>
  </g>
  <g id="zoomMin">
    <use xlink:href="#rim" fill="#404040"><set attributeName="fill" to="#808080" begin="zoomminus.mouseover" end="zoomminus.mouseout"/></use>
    <path d="M-4,0h8" fill="none" stroke="white" stroke-width="1.5" pointer-events="none"/>
  </g>
  <g id="arrowUp" transform="translate(30 24)">
    <use xlink:href="#rim"/>
    <path pointer-events="none" fill="none" stroke="white" stroke-width="1.5" d="M0,-3.0v7 M-2.5,-0.5L0,-3.0L2.5,-0.5"/>
  </g>
  <g id="arrowRight" transform="rotate(90) translate(36 -43)">
    <use xlink:href="#rim"/>
    <path pointer-events="none" fill="none" stroke="white" stroke-width="1.5" d="M0,-3.0v7 M-2.5,-0.5L0,-3.0L2.5,-0.5"/>
  </g>
  <g id="arrowDown" transform="rotate(180) translate(-30 -48)">
    <use xlink:href="#rim"/>
    <path pointer-events="none" fill="none" stroke="white" stroke-width="1.5" d="M0,-3.0v7 M-2.5,-0.5L0,-3.0L2.5,-0.5"/>
  </g>
  <g id="arrowLeft" transform="rotate(270) translate(-36 17)">
    <use xlink:href="#rim"/>
    <path pointer-events="none" fill="none" stroke="white" stroke-width="1.5" d="M0,-3.0v7 M-2.5,-0.5L0,-3.0L2.5,-0.5"/>
  </g>
  <g id="resetDef">
    <use xlink:href="#rim2" fill="#404040"><set attributeName="fill" to="#808080" begin="reset.mouseover" end="reset.mouseout"/></use>
  </g>
</defs>
<script type="application/ecmascript">
var viewWidth = 566;
var viewHeight = 146;
var sectionId = 'dynsection-12';
</script>
<script type="application/ecmascript" xlink:href="svg.min.js"/>
<svg id="graph" class="graph">
<g id="viewport">
<title>mqtt::bridge::lib::SSEDistributor::sendEvent</title>
<!-- Node1 -->
<g id="Node000001" class="node">
<title>Node1</title>
<g id="a_Node000001"><a xlink:title=" ">
<polygon fill="#999999" stroke="#666666" points="558,-85.5 415.25,-85.5 415.25,-52 558,-52 558,-85.5"/>
<text xml:space="preserve" text-anchor="start" x="423.25" y="-72" font-family="Helvetica,sans-Serif" font-size="10.00">mqtt::bridge::lib::</text>
<text xml:space="preserve" text-anchor="middle" x="486.62" y="-59.25" font-family="Helvetica,sans-Serif" font-size="10.00">SSEDistributor::sendEvent</text>
</a>
</g>
</g>
<!-- Node2 -->
<g id="Node000002" class="node">
<title>Node2</title>
<g id="a_Node000002"><a xlink:href="classmqtt_1_1bridge_1_1lib_1_1SSEDistributor.html#a5f477f1ef99152b7d2cb547ac4cec934" target="_top" xlink:title=" ">
<polygon fill="white" stroke="#666666" points="379.25,-137.5 199,-137.5 199,-104 379.25,-104 379.25,-137.5"/>
<text xml:space="preserve" text-anchor="start" x="207" y="-124" font-family="Helvetica,sans-Serif" font-size="10.00">mqtt::bridge::lib::</text>
<text xml:space="preserve" text-anchor="middle" x="289.12" y="-111.25" font-family="Helvetica,sans-Serif" font-size="10.00">SSEDistributor::addEventReceiver</text>
</a>
</g>
</g>
<!-- Node1&#45;&gt;Node2 -->
<g id="edge1_Node000001_Node000002" class="edge">
<title>Node1&#45;&gt;Node2</title>
<g id="a_edge1_Node000001_Node000002"><a xlink:title=" ">
<path fill="none" stroke="#63b8ff" d="M409.92,-88.89C391.72,-93.73 372.43,-98.86 354.78,-103.55"/>
<polygon fill="#63b8ff" stroke="#63b8ff" points="410.57,-92.34 419.34,-86.38 408.77,-85.57 410.57,-92.34"/>
</a>
</g>
</g>
<!-- Node4 -->
<g id="Node000004" class="node">
<title>Node4</title>
<g id="a_Node000004"><a xlink:href="classmqtt_1_1bridge_1_1lib_1_1SSEDistributor.html#a33c28a238f0853d09effb76ed6c49d45" target="_top" xlink:title=" ">
<polygon fill="white" stroke="#666666" points="360.5,-85.5 217.75,-85.5 217.75,-52 360.5,-52 360.5,-85.5"/>
<text xml:space="preserve" text-anchor="start" x="225.75" y="-72" font-family="Helvetica,sans-Serif" font-size="10.00">mqtt::bridge::lib::</text>
<text xml:space="preserve" text-anchor="middle" x="289.12" y="-59.25" font-family="Helvetica,sans-Serif" font-size="10.00">SSEDistributor::sendEvent</text>
</a>
</g>
</g>
<!-- Node1&#45;&gt;Node4 -->
<g id="edge3_Node000001_Node000004" class="edge">
<title>Node1&#45;&gt;Node4</title>
<g id="a_edge3_Node000001_Node000004"><a xlink:title=" ">
<path fill="none" stroke="#63b8ff" d="M403.49,-68.75C389.28,-68.75 374.61,-68.75 360.74,-68.75"/>
<polygon fill="#63b8ff" stroke="#63b8ff" points="403.26,-72.25 413.26,-68.75 403.26,-65.25 403.26,-72.25"/>
</a>
</g>
</g>
<!-- Node6 -->
<g id="Node000006" class="node">
<title>Node6</title>
<g id="a_Node000006"><a xlink:href="classmqtt_1_1bridge_1_1lib_1_1SSEDistributor.html#a8ee49146118a6d1016311f388061ecc3" target="_top" xlink:title=" ">
<polygon fill="white" stroke="#666666" points="370.62,-33.5 207.62,-33.5 207.62,0 370.62,0 370.62,-33.5"/>
<text xml:space="preserve" text-anchor="start" x="215.62" y="-20" font-family="Helvetica,sans-Serif" font-size="10.00">mqtt::bridge::lib::</text>
<text xml:space="preserve" text-anchor="middle" x="289.12" y="-7.25" font-family="Helvetica,sans-Serif" font-size="10.00">SSEDistributor::sendJsonEvent</text>
</a>
</g>
</g>
<!-- Node1&#45;&gt;Node6 -->
<g id="edge5_Node000001_Node000006" class="edge">
<title>Node1&#45;&gt;Node6</title>
<g id="a_edge5_Node000001_Node000006"><a xlink:title=" ">
<path fill="none" stroke="#63b8ff" d="M409.92,-48.61C391.72,-43.77 372.43,-38.64 354.78,-33.95"/>
<polygon fill="#63b8ff" stroke="#63b8ff" points="408.77,-51.93 419.34,-51.12 410.57,-45.16 408.77,-51.93"/>
</a>
</g>
</g>
<!-- Node3 -->
<g id="Node000003" class="node">
<title>Node3</title>
<g id="a_Node000003"><a xlink:href="mqttbridge_8cpp.html#a0ddf1224851353fc92bfbff6f499fa97" target="_top" xlink:title=" ">
<polygon fill="white" stroke="#666666" points="101.88,-131.12 61.12,-131.12 61.12,-110.38 101.88,-110.38 101.88,-131.12"/>
<text xml:space="preserve" text-anchor="middle" x="81.5" y="-117.62" font-family="Helvetica,sans-Serif" font-size="10.00">main</text>
</a>
</g>
</g>
<!-- Node2&#45;&gt;Node3 -->
<g id="edge2_Node000002_Node000003" class="edge">
<title>Node2&#45;&gt;Node3</title>
<g id="a_edge2_Node000002_Node000003"><a xlink:title=" ">
<path fill="none" stroke="#63b8ff" d="M187.11,-120.75C154.74,-120.75 122.12,-120.75 102.12,-120.75"/>
<polygon fill="#63b8ff" stroke="#63b8ff" points="187.02,-124.25 197.02,-120.75 187.02,-117.25 187.02,-124.25"/>
</a>
</g>
</g>
<!-- Node5 -->
<g id="Node000005" class="node">
<title>Node5</title>
<g id="a_Node000005"><a xlink:href="classmqtt_1_1bridge_1_1lib_1_1SSEDistributor.html#ae352efe457441f0669d10132f46b514e" target="_top" xlink:title=" ">
<polygon fill="white" stroke="#666666" points="163,-85.5 0,-85.5 0,-52 163,-52 163,-85.5"/>
<text xml:space="preserve" text-anchor="start" x="8" y="-72" font-family="Helvetica,sans-Serif" font-size="10.00">mqtt::bridge::lib::</text>
<text xml:space="preserve" text-anchor="middle" x="81.5" y="-59.25" font-family="Helvetica,sans-Serif" font-size="10.00">SSEDistributor::sendJsonEvent</text>
</a>
</g>
</g>
<!-- Node4&#45;&gt;Node5 -->
<g id="edge4_Node000004_Node000005" class="edge">
<title>Node4&#45;&gt;Node5</title>
<g id="a_edge4_Node000004_Node000005"><a xlink:title=" ">
<path fill="none" stroke="#63b8ff" d="M206.17,-68.75C192.05,-68.75 177.38,-68.75 163.28,-68.75"/>
<polygon fill="#63b8ff" stroke="#63b8ff" points="205.85,-72.25 215.85,-68.75 205.85,-65.25 205.85,-72.25"/>
</a>
</g>
</g>
</g>
</svg>

<g id="navigator" transform="translate(0 0)" fill="#404254">
  <rect fill="#f2f5e9" fill-opacity="0.5" stroke="#606060" stroke-width=".5" x="0" y="0" width="60" height="60"/>
  <use id="zoomplus" xlink:href="#zoomPlus" x="17" y="9" onmousedown="handleZoom(evt,'in')"/>
  <use id="zoomminus" xlink:href="#zoomMin" x="42" y="9" onmousedown="handleZoom(evt,'out')"/>
  <use id="reset" xlink:href="#resetDef" x="30" y="36" onmousedown="handleReset()"/>
   <use id="arrowup" xlink:href="#arrowUp" x="0" y="0" onmousedown="handlePan(0,-1)"/>
  <use id="arrowright" xlink:href="#arrowRight" x="0" y="0" onmousedown="handlePan(1,0)"/>
  <use id="arrowdown" xlink:href="#arrowDown" x="0" y="0" onmousedown="handlePan(0,1)"/>
  <use id="arrowleft" xlink:href="#arrowLeft" x="0" y="0" onmousedown="handlePan(-1,0)"/>
</g>
<svg viewBox="0 0 15 15" width="100%" height="30px" preserveAspectRatio="xMaxYMin meet">
 <g id="arrow_out" transform="scale(0.3 0.3)">
  <a xlink:href="classmqtt_1_1bridge_1_1lib_1_1SSEDistributor_a9f5043f5f0189719413e23c74b3a55c2_icgraph_org.svg" target="_base">
   <rect id="button" ry="5" rx="5" y="6" x="6" height="38" width="38"
        fill="#f2f5e9" fill-opacity="0.5" stroke="#606060" stroke-width="1.0"/>
   <path id="arrow"
     d="M 11.500037,31.436501 C 11.940474,20.09759 22.043105,11.32322 32.158766,21.979434 L 37.068811,17.246167 C 37.068811,17.246167 37.088388,32 37.088388,32 L 22.160133,31.978069 C 22.160133,31.978069 26.997745,27.140456 26.997745,27.140456 C 18.528582,18.264221 13.291696,25.230495 11.500037,31.436501 z"
     style="fill:#404040;"/>
  </a>
 </g>
</svg>

<style type='text/css'>
<![CDATA[
[data-mouse-over-selected='false'] { opacity: 0.7; }
[data-mouse-over-selected='true']  { opacity: 1.0; }
]]>
</style>
<script type="application/ecmascript"><![CDATA[
document.addEventListener('DOMContentLoaded', (event) => {
  highlightEdges();
  highlightAdjacentNodes();
});
]]></script>
</svg>
