<?xml version="1.0" encoding="UTF-8" standalone="no"?>
<!DOCTYPE svg PUBLIC "-//W3C//DTD SVG 1.1//EN"
 "http://www.w3.org/Graphics/SVG/1.1/DTD/svg11.dtd">
<!-- Generated by graphviz version 2.42.4 (0)
 -->
<!-- Title: inja::Environment::render Pages: 1 -->
<!--zoomable 596 -->

<svg id="main" version="1.1" xmlns="http://www.w3.org/2000/svg" xmlns:xlink="http://www.w3.org/1999/xlink" xml:space="preserve" onload="init(evt)">

<style type="text/css"><![CDATA[
.node, .edge {opacity: 0.7;}
.node.selected, .edge.selected {opacity: 1;}
.edge:hover path { stroke: red; }
.edge:hover polygon { stroke: red; fill: red; }
]]></style>

<defs>
  <circle id="rim" cx="0" cy="0" r="7"/>
  <circle id="rim2" cx="0" cy="0" r="3.5"/>
  <g id="zoomPlus">
    <use xlink:href="#rim" fill="#404040"><set attributeName="fill" to="#808080" begin="zoomplus.mouseover" end="zoomplus.mouseout"/></use>
    <path d="M-4,0h8M0,-4v8" fill="none" stroke="white" stroke-width="1.5" pointer-events="none"/>
  </g>
  <g id="zoomMin">
    <use xlink:href="#rim" fill="#404040"><set attributeName="fill" to="#808080" begin="zoomminus.mouseover" end="zoomminus.mouseout"/></use>
    <path d="M-4,0h8" fill="none" stroke="white" stroke-width="1.5" pointer-events="none"/>
  </g>
  <g id="arrowUp" transform="translate(30 24)">
    <use xlink:href="#rim"/>
    <path pointer-events="none" fill="none" stroke="white" stroke-width="1.5" d="M0,-3.0v7 M-2.5,-0.5L0,-3.0L2.5,-0.5"/>
  </g>
  <g id="arrowRight" transform="rotate(90) translate(36 -43)">
    <use xlink:href="#rim"/>
    <path pointer-events="none" fill="none" stroke="white" stroke-width="1.5" d="M0,-3.0v7 M-2.5,-0.5L0,-3.0L2.5,-0.5"/>
  </g>
  <g id="arrowDown" transform="rotate(180) translate(-30 -48)">
    <use xlink:href="#rim"/>
    <path pointer-events="none" fill="none" stroke="white" stroke-width="1.5" d="M0,-3.0v7 M-2.5,-0.5L0,-3.0L2.5,-0.5"/>
  </g>
  <g id="arrowLeft" transform="rotate(270) translate(-36 17)">
    <use xlink:href="#rim"/>
    <path pointer-events="none" fill="none" stroke="white" stroke-width="1.5" d="M0,-3.0v7 M-2.5,-0.5L0,-3.0L2.5,-0.5"/>
  </g>
  <g id="resetDef">
    <use xlink:href="#rim2" fill="#404040"><set attributeName="fill" to="#808080" begin="reset.mouseover" end="reset.mouseout"/></use>
  </g>
</defs>
<script type="application/ecmascript">
var viewWidth = 2019;
var viewHeight = 596;
var sectionId = 'dynsection-12';
</script>
<script type="application/ecmascript" xlink:href="svg.min.js"/>
<svg id="graph" class="graph">
<g id="viewport">
<title>inja::Environment::render</title>
<!-- Node1 -->
<g id="Node000001" class="node">
<title>Node1</title>
<g id="a_Node000001"><a xlink:title=" ">
<polygon fill="#999999" stroke="#666666" points="109,-145.5 0,-145.5 0,-115.5 109,-115.5 109,-145.5"/>
<text text-anchor="start" x="8" y="-133.5" font-family="Helvetica,sans-Serif" font-size="10.00">inja::Environment::</text>
<text text-anchor="middle" x="54.5" y="-122.5" font-family="Helvetica,sans-Serif" font-size="10.00">render</text>
</a>
</g>
</g>
<!-- Node2 -->
<g id="Node000002" class="node">
<title>Node2</title>
<g id="a_Node000002"><a xlink:href="classinja_1_1Environment.html#a8421b8d61fc4de15f29c909bd7154f92" target="_top" xlink:title=" ">
<polygon fill="white" stroke="#666666" points="254,-145.5 145,-145.5 145,-115.5 254,-115.5 254,-145.5"/>
<text text-anchor="start" x="153" y="-133.5" font-family="Helvetica,sans-Serif" font-size="10.00">inja::Environment::</text>
<text text-anchor="middle" x="199.5" y="-122.5" font-family="Helvetica,sans-Serif" font-size="10.00">parse</text>
</a>
</g>
</g>
<!-- Node1&#45;&gt;Node2 -->
<g id="edge1_Node000001_Node000002" class="edge">
<title>Node1&#45;&gt;Node2</title>
<g id="a_edge1_Node000001_Node000002"><a xlink:title=" ">
<path fill="none" stroke="#63b8ff" d="M109.15,-130.5C117.38,-130.5 125.94,-130.5 134.37,-130.5"/>
<polygon fill="#63b8ff" stroke="#63b8ff" points="134.54,-134 144.54,-130.5 134.54,-127 134.54,-134"/>
</a>
</g>
</g>
<!-- Node3 -->
<g id="Node000003" class="node">
<title>Node3</title>
<g id="a_Node000003"><a xlink:href="classinja_1_1Parser.html#a0f1312b0bf8691aba6cc4590169902fc" target="_top" xlink:title=" ">
<polygon fill="white" stroke="#666666" points="394,-140 290,-140 290,-121 394,-121 394,-140"/>
<text text-anchor="middle" x="342" y="-128" font-family="Helvetica,sans-Serif" font-size="10.00">inja::Parser::parse</text>
</a>
</g>
</g>
<!-- Node2&#45;&gt;Node3 -->
<g id="edge2_Node000002_Node000003" class="edge">
<title>Node2&#45;&gt;Node3</title>
<g id="a_edge2_Node000002_Node000003"><a xlink:title=" ">
<path fill="none" stroke="#63b8ff" d="M254.02,-130.5C262.49,-130.5 271.31,-130.5 279.94,-130.5"/>
<polygon fill="#63b8ff" stroke="#63b8ff" points="279.95,-134 289.95,-130.5 279.95,-127 279.95,-134"/>
</a>
</g>
</g>
<!-- Node4 -->
<g id="Node000004" class="node">
<title>Node4</title>
<g id="a_Node000004"><a xlink:href="classinja_1_1Parser.html#a9a561141f71073df671b2b7ecb4608ba" target="_top" xlink:title=" ">
<polygon fill="white" stroke="#666666" points="558,-283 430,-283 430,-264 558,-264 558,-283"/>
<text text-anchor="middle" x="494" y="-271" font-family="Helvetica,sans-Serif" font-size="10.00">inja::Parser::parse_into</text>
</a>
</g>
</g>
<!-- Node3&#45;&gt;Node4 -->
<g id="edge3_Node000003_Node000004" class="edge">
<title>Node3&#45;&gt;Node4</title>
<g id="a_edge3_Node000003_Node000004"><a xlink:title=" ">
<path fill="none" stroke="#63b8ff" d="M353.31,-140.33C378.59,-164.43 443.87,-226.66 475.42,-256.74"/>
<polygon fill="#63b8ff" stroke="#63b8ff" points="473.36,-259.61 483.01,-263.98 478.19,-254.55 473.36,-259.61"/>
</a>
</g>
</g>
<!-- Node34 -->
<g id="Node000034" class="node">
<title>Node34</title>
<g id="a_Node000034"><a xlink:href="structinja_1_1Template.html#a0f073d8168095f8ce86d0c7ac9060948" target="_top" xlink:title=" ">
<polygon fill="white" stroke="#666666" points="1017,-19 880,-19 880,0 1017,0 1017,-19"/>
<text text-anchor="middle" x="948.5" y="-7" font-family="Helvetica,sans-Serif" font-size="10.00">inja::Template::Template</text>
</a>
</g>
</g>
<!-- Node3&#45;&gt;Node34 -->
<g id="edge58_Node000003_Node000034" class="edge">
<title>Node3&#45;&gt;Node34</title>
<g id="a_edge58_Node000003_Node000034"><a xlink:title=" ">
<path fill="none" stroke="#63b8ff" d="M376.48,-120.97C424.4,-107.57 515.43,-82.94 594,-66.5 655.72,-53.59 671.75,-53.57 734,-43.5 781.75,-35.78 835.53,-27.21 877.17,-20.61"/>
<polygon fill="#63b8ff" stroke="#63b8ff" points="877.88,-24.04 887.21,-19.02 876.79,-17.13 877.88,-24.04"/>
</a>
</g>
</g>
<!-- Node5 -->
<g id="Node000005" class="node">
<title>Node5</title>
<g id="a_Node000005"><a xlink:href="structinja_1_1Token.html#adc8c0a84e2d4ce0a3625c399bd259f1f" target="_top" xlink:title=" ">
<polygon fill="white" stroke="#666666" points="1175.5,-198 1059.5,-198 1059.5,-179 1175.5,-179 1175.5,-198"/>
<text text-anchor="middle" x="1117.5" y="-186" font-family="Helvetica,sans-Serif" font-size="10.00">inja::Token::describe</text>
</a>
</g>
</g>
<!-- Node4&#45;&gt;Node5 -->
<g id="edge4_Node000004_Node000005" class="edge">
<title>Node4&#45;&gt;Node5</title>
<g id="a_edge4_Node000004_Node000005"><a xlink:title=" ">
<path fill="none" stroke="#63b8ff" d="M513.57,-263.87C533.17,-253.99 565.16,-238.68 594,-228.5 772.43,-165.55 827.95,-172.91 1017,-180.5 1027.43,-180.92 1038.46,-181.58 1049.24,-182.36"/>
<polygon fill="#63b8ff" stroke="#63b8ff" points="1049.22,-185.86 1059.46,-183.12 1049.75,-178.88 1049.22,-185.86"/>
</a>
</g>
</g>
<!-- Node6 -->
<g id="Node000006" class="node">
<title>Node6</title>
<g id="a_Node000006"><a xlink:href="classinja_1_1Parser.html#ab8bb45bc1eeead74f630efa420ee6212" target="_top" xlink:title=" ">
<polygon fill="white" stroke="#666666" points="1177.5,-420.5 1057.5,-420.5 1057.5,-390.5 1177.5,-390.5 1177.5,-420.5"/>
<text text-anchor="start" x="1065.5" y="-408.5" font-family="Helvetica,sans-Serif" font-size="10.00">inja::Parser::get_next</text>
<text text-anchor="middle" x="1117.5" y="-397.5" font-family="Helvetica,sans-Serif" font-size="10.00">_token</text>
</a>
</g>
</g>
<!-- Node4&#45;&gt;Node6 -->
<g id="edge5_Node000004_Node000006" class="edge">
<title>Node4&#45;&gt;Node6</title>
<g id="a_edge5_Node000004_Node000006"><a xlink:title=" ">
<path fill="none" stroke="#63b8ff" d="M505.89,-283.03C537.97,-310.32 636.04,-388.17 734,-409.5 841.44,-432.89 969.9,-424.35 1047.25,-415.4"/>
<polygon fill="#63b8ff" stroke="#63b8ff" points="1047.84,-418.86 1057.35,-414.2 1047.01,-411.91 1047.84,-418.86"/>
</a>
</g>
</g>
<!-- Node19 -->
<g id="Node000019" class="node">
<title>Node19</title>
<g id="a_Node000019"><a xlink:href="classinja_1_1Parser.html#aeb66164c89e8c71cae3c93c24d7c7be2" target="_top" xlink:title=" ">
<polygon fill="white" stroke="#666666" points="841,-400.5 737,-400.5 737,-370.5 841,-370.5 841,-400.5"/>
<text text-anchor="start" x="745" y="-388.5" font-family="Helvetica,sans-Serif" font-size="10.00">inja::Parser::parse</text>
<text text-anchor="middle" x="789" y="-377.5" font-family="Helvetica,sans-Serif" font-size="10.00">_expression</text>
</a>
</g>
</g>
<!-- Node4&#45;&gt;Node19 -->
<g id="edge26_Node000004_Node000019" class="edge">
<title>Node4&#45;&gt;Node19</title>
<g id="a_edge26_Node000004_Node000019"><a xlink:title=" ">
<path fill="none" stroke="#63b8ff" d="M519.98,-283.05C568.42,-301.57 675.9,-342.65 739.05,-366.79"/>
<polygon fill="#63b8ff" stroke="#63b8ff" points="737.82,-370.06 748.41,-370.37 740.32,-363.53 737.82,-370.06"/>
</a>
</g>
</g>
<!-- Node23 -->
<g id="Node000023" class="node">
<title>Node23</title>
<g id="a_Node000023"><a xlink:href="classinja_1_1Parser.html#a1b11e4984c1934c4e670a609f728ceee" target="_top" xlink:title=" ">
<polygon fill="white" stroke="#666666" points="1170,-266.5 1065,-266.5 1065,-236.5 1170,-236.5 1170,-266.5"/>
<text text-anchor="start" x="1073" y="-254.5" font-family="Helvetica,sans-Serif" font-size="10.00">inja::Parser::throw</text>
<text text-anchor="middle" x="1117.5" y="-243.5" font-family="Helvetica,sans-Serif" font-size="10.00">_parser_error</text>
</a>
</g>
</g>
<!-- Node4&#45;&gt;Node23 -->
<g id="edge57_Node000004_Node000023" class="edge">
<title>Node4&#45;&gt;Node23</title>
<g id="a_edge57_Node000004_Node000023"><a xlink:title=" ">
<path fill="none" stroke="#63b8ff" d="M558.24,-275.78C656.59,-278.63 852.05,-281.47 1017,-266.5 1029.36,-265.38 1042.51,-263.73 1055.08,-261.92"/>
<polygon fill="#63b8ff" stroke="#63b8ff" points="1055.62,-265.38 1065,-260.45 1054.59,-258.46 1055.62,-265.38"/>
</a>
</g>
</g>
<!-- Node28 -->
<g id="Node000028" class="node">
<title>Node28</title>
<g id="a_Node000028"><a xlink:href="classinja_1_1Parser.html#a5a26bdcce0ae076bf010ee7442d8928e" target="_top" xlink:title=" ">
<polygon fill="white" stroke="#666666" points="698,-267.5 594,-267.5 594,-237.5 698,-237.5 698,-267.5"/>
<text text-anchor="start" x="602" y="-255.5" font-family="Helvetica,sans-Serif" font-size="10.00">inja::Parser::parse</text>
<text text-anchor="middle" x="646" y="-244.5" font-family="Helvetica,sans-Serif" font-size="10.00">_statement</text>
</a>
</g>
</g>
<!-- Node4&#45;&gt;Node28 -->
<g id="edge40_Node000004_Node000028" class="edge">
<title>Node4&#45;&gt;Node28</title>
<g id="a_edge40_Node000004_Node000028"><a xlink:title=" ">
<path fill="none" stroke="#63b8ff" d="M558.18,-264.65C566.6,-263.48 575.23,-262.27 583.62,-261.09"/>
<polygon fill="#63b8ff" stroke="#63b8ff" points="584.3,-264.53 593.72,-259.68 583.33,-257.6 584.3,-264.53"/>
</a>
</g>
</g>
<!-- Node36 -->
<g id="Node000036" class="node">
<title>Node36</title>
<g id="a_Node000036"><a xlink:href="classinja_1_1Lexer.html#afab5a4a53539d89c7441f249a751da01" target="_top" xlink:title=" ">
<polygon fill="white" stroke="#666666" points="694,-530 598,-530 598,-511 694,-511 694,-530"/>
<text text-anchor="middle" x="646" y="-518" font-family="Helvetica,sans-Serif" font-size="10.00">inja::Lexer::start</text>
</a>
</g>
</g>
<!-- Node4&#45;&gt;Node36 -->
<g id="edge55_Node000004_Node000036" class="edge">
<title>Node4&#45;&gt;Node36</title>
<g id="a_edge55_Node000004_Node000036"><a xlink:title=" ">
<path fill="none" stroke="#63b8ff" d="M499.74,-283.01C513.32,-310.04 553.99,-389.36 594,-451.5 605.64,-469.58 620.37,-489.22 631.01,-502.9"/>
<polygon fill="#63b8ff" stroke="#63b8ff" points="628.4,-505.25 637.33,-510.95 633.91,-500.93 628.4,-505.25"/>
</a>
</g>
</g>
<!-- Node7 -->
<g id="Node000007" class="node">
<title>Node7</title>
<g id="a_Node000007"><a xlink:href="classinja_1_1Lexer.html#a8c85efa9536869c371b8afb609e0d8d2" target="_top" xlink:title=" ">
<polygon fill="white" stroke="#666666" points="1320,-415 1224,-415 1224,-396 1320,-396 1320,-415"/>
<text text-anchor="middle" x="1272" y="-403" font-family="Helvetica,sans-Serif" font-size="10.00">inja::Lexer::scan</text>
</a>
</g>
</g>
<!-- Node6&#45;&gt;Node7 -->
<g id="edge6_Node000006_Node000007" class="edge">
<title>Node6&#45;&gt;Node7</title>
<g id="a_edge6_Node000006_Node000007"><a xlink:title=" ">
<path fill="none" stroke="#63b8ff" d="M1177.9,-405.5C1189.67,-405.5 1202.01,-405.5 1213.71,-405.5"/>
<polygon fill="#63b8ff" stroke="#63b8ff" points="1213.8,-409 1223.8,-405.5 1213.8,-402 1213.8,-409"/>
</a>
</g>
</g>
<!-- Node8 -->
<g id="Node000008" class="node">
<title>Node8</title>
<g id="a_Node000008"><a xlink:href="classinja_1_1Lexer.html#a0f4034e3151f72f121fb4f2b63374ce1" target="_top" xlink:title=" ">
<polygon fill="white" stroke="#666666" points="1502,-349.5 1362,-349.5 1362,-319.5 1502,-319.5 1502,-349.5"/>
<text text-anchor="start" x="1370" y="-337.5" font-family="Helvetica,sans-Serif" font-size="10.00">inja::Lexer::clear</text>
<text text-anchor="middle" x="1432" y="-326.5" font-family="Helvetica,sans-Serif" font-size="10.00">_final_line_if_whitespace</text>
</a>
</g>
</g>
<!-- Node7&#45;&gt;Node8 -->
<g id="edge7_Node000007_Node000008" class="edge">
<title>Node7&#45;&gt;Node8</title>
<g id="a_edge7_Node000007_Node000008"><a xlink:title=" ">
<path fill="none" stroke="#63b8ff" d="M1289.36,-395.9C1306.94,-385.81 1335.88,-369.86 1362,-358.5 1366.17,-356.69 1370.52,-354.91 1374.93,-353.2"/>
<polygon fill="#63b8ff" stroke="#63b8ff" points="1376.48,-356.35 1384.6,-349.55 1374.01,-349.8 1376.48,-356.35"/>
</a>
</g>
</g>
<!-- Node9 -->
<g id="Node000009" class="node">
<title>Node9</title>
<g id="a_Node000009"><a xlink:href="classinja_1_1Lexer.html#a6088871283d1a03087b325b88c9396f4" target="_top" xlink:title=" ">
<polygon fill="white" stroke="#666666" points="1869.5,-349 1736.5,-349 1736.5,-330 1869.5,-330 1869.5,-349"/>
<text text-anchor="middle" x="1803" y="-337" font-family="Helvetica,sans-Serif" font-size="10.00">inja::Lexer::make_token</text>
</a>
</g>
</g>
<!-- Node7&#45;&gt;Node9 -->
<g id="edge8_Node000007_Node000009" class="edge">
<title>Node7&#45;&gt;Node9</title>
<g id="a_edge8_Node000007_Node000009"><a xlink:title=" ">
<path fill="none" stroke="#63b8ff" d="M1287.54,-415.02C1343.89,-450.6 1551.9,-569.85 1698,-492.5 1752.04,-463.89 1783.23,-393.21 1795.66,-358.86"/>
<polygon fill="#63b8ff" stroke="#63b8ff" points="1799.08,-359.68 1799.04,-349.08 1792.46,-357.39 1799.08,-359.68"/>
</a>
</g>
</g>
<!-- Node10 -->
<g id="Node000010" class="node">
<title>Node10</title>
<g id="a_Node000010"><a xlink:href="namespaceinja_1_1string__view.html#a898871016595d8f34d1b4ea55b3e8684" target="_top" xlink:title=" ">
<polygon fill="white" stroke="#666666" points="2011,-194.5 1908,-194.5 1908,-164.5 2011,-164.5 2011,-194.5"/>
<text text-anchor="start" x="1916" y="-182.5" font-family="Helvetica,sans-Serif" font-size="10.00">inja::string_view::</text>
<text text-anchor="middle" x="1959.5" y="-171.5" font-family="Helvetica,sans-Serif" font-size="10.00">slice</text>
</a>
</g>
</g>
<!-- Node7&#45;&gt;Node10 -->
<g id="edge23_Node000007_Node000010" class="edge">
<title>Node7&#45;&gt;Node10</title>
<g id="a_edge23_Node000007_Node000010"><a xlink:title=" ">
<path fill="none" stroke="#63b8ff" d="M1280.76,-395.7C1309.81,-359.99 1416.64,-236.83 1538,-198.5 1661.09,-159.62 1814.5,-165.35 1897.8,-172.64"/>
<polygon fill="#63b8ff" stroke="#63b8ff" points="1897.57,-176.13 1907.85,-173.55 1898.21,-169.16 1897.57,-176.13"/>
</a>
</g>
</g>
<!-- Node11 -->
<g id="Node000011" class="node">
<title>Node11</title>
<g id="a_Node000011"><a xlink:href="structinja_1_1Token.html#ae215b2b1e365fc7c4060895b604e2430" target="_top" xlink:title=" ">
<polygon fill="white" stroke="#666666" points="2010.5,-454 1908.5,-454 1908.5,-435 2010.5,-435 2010.5,-454"/>
<text text-anchor="middle" x="1959.5" y="-442" font-family="Helvetica,sans-Serif" font-size="10.00">inja::Token::Token</text>
</a>
</g>
</g>
<!-- Node7&#45;&gt;Node11 -->
<g id="edge25_Node000007_Node000011" class="edge">
<title>Node7&#45;&gt;Node11</title>
<g id="a_edge25_Node000007_Node000011"><a xlink:title=" ">
<path fill="none" stroke="#63b8ff" d="M1278.95,-415.09C1291.56,-434.45 1323.03,-478.04 1362,-497.5 1495.89,-564.36 1549.81,-540.41 1698,-519.5 1781.27,-507.75 1875.21,-475.86 1924.36,-457.67"/>
<polygon fill="#63b8ff" stroke="#63b8ff" points="1925.72,-460.9 1933.86,-454.12 1923.27,-454.35 1925.72,-460.9"/>
</a>
</g>
</g>
<!-- Node12 -->
<g id="Node000012" class="node">
<title>Node12</title>
<g id="a_Node000012"><a xlink:href="classinja_1_1Lexer.html#aa342980e23b7a9fa633e82cf38c3c682" target="_top" xlink:title=" ">
<polygon fill="white" stroke="#666666" points="1494.5,-387 1369.5,-387 1369.5,-368 1494.5,-368 1494.5,-387"/>
<text text-anchor="middle" x="1432" y="-375" font-family="Helvetica,sans-Serif" font-size="10.00">inja::Lexer::scan_body</text>
</a>
</g>
</g>
<!-- Node7&#45;&gt;Node12 -->
<g id="edge11_Node000007_Node000012" class="edge">
<title>Node7&#45;&gt;Node12</title>
<g id="a_edge11_Node000007_Node000012"><a xlink:title=" ">
<path fill="none" stroke="#63b8ff" d="M1320.41,-397.1C1335.09,-394.5 1351.53,-391.58 1367.14,-388.82"/>
<polygon fill="#63b8ff" stroke="#63b8ff" points="1368.02,-392.22 1377.26,-387.02 1366.8,-385.32 1368.02,-392.22"/>
</a>
</g>
</g>
<!-- Node16 -->
<g id="Node000016" class="node">
<title>Node16</title>
<g id="a_Node000016"><a xlink:href="classinja_1_1Lexer.html#ae4dcb266522442d430dcb8d381b5fdb1" target="_top" xlink:title=" ">
<polygon fill="white" stroke="#666666" points="1698,-435.5 1538,-435.5 1538,-405.5 1698,-405.5 1698,-435.5"/>
<text text-anchor="start" x="1546" y="-423.5" font-family="Helvetica,sans-Serif" font-size="10.00">inja::Lexer::skip_whitespaces</text>
<text text-anchor="middle" x="1618" y="-412.5" font-family="Helvetica,sans-Serif" font-size="10.00">_and_first_newline</text>
</a>
</g>
</g>
<!-- Node7&#45;&gt;Node16 -->
<g id="edge22_Node000007_Node000016" class="edge">
<title>Node7&#45;&gt;Node16</title>
<g id="a_edge22_Node000007_Node000016"><a xlink:title=" ">
<path fill="none" stroke="#63b8ff" d="M1320.11,-407.55C1373.41,-409.88 1461.41,-413.72 1527.8,-416.61"/>
<polygon fill="#63b8ff" stroke="#63b8ff" points="1527.7,-420.11 1537.84,-417.05 1528.01,-413.12 1527.7,-420.11"/>
</a>
</g>
</g>
<!-- Node18 -->
<g id="Node000018" class="node">
<title>Node18</title>
<g id="a_Node000018"><a xlink:href="namespaceinja_1_1string__view.html#a78e9922c080101c22e54419f7caa83d8" target="_top" xlink:title=" ">
<polygon fill="white" stroke="#666666" points="1669.5,-483.5 1566.5,-483.5 1566.5,-453.5 1669.5,-453.5 1669.5,-483.5"/>
<text text-anchor="start" x="1574.5" y="-471.5" font-family="Helvetica,sans-Serif" font-size="10.00">inja::string_view::</text>
<text text-anchor="middle" x="1618" y="-460.5" font-family="Helvetica,sans-Serif" font-size="10.00">starts_with</text>
</a>
</g>
</g>
<!-- Node7&#45;&gt;Node18 -->
<g id="edge24_Node000007_Node000018" class="edge">
<title>Node7&#45;&gt;Node18</title>
<g id="a_edge24_Node000007_Node000018"><a xlink:title=" ">
<path fill="none" stroke="#63b8ff" d="M1310.99,-415.07C1326.72,-418.87 1345.19,-423.14 1362,-426.5 1428.2,-439.75 1504.67,-451.93 1556.48,-459.73"/>
<polygon fill="#63b8ff" stroke="#63b8ff" points="1556.09,-463.21 1566.5,-461.22 1557.12,-456.28 1556.09,-463.21"/>
</a>
</g>
</g>
<!-- Node9&#45;&gt;Node10 -->
<g id="edge9_Node000009_Node000010" class="edge">
<title>Node9&#45;&gt;Node10</title>
<g id="a_edge9_Node000009_Node000010"><a xlink:title=" ">
<path fill="none" stroke="#63b8ff" d="M1813.2,-329.97C1837.24,-305.08 1902.42,-237.58 1936.72,-202.05"/>
<polygon fill="#63b8ff" stroke="#63b8ff" points="1939.51,-204.2 1943.94,-194.57 1934.48,-199.34 1939.51,-204.2"/>
</a>
</g>
</g>
<!-- Node9&#45;&gt;Node11 -->
<g id="edge10_Node000009_Node000011" class="edge">
<title>Node9&#45;&gt;Node11</title>
<g id="a_edge10_Node000009_Node000011"><a xlink:title=" ">
<path fill="none" stroke="#63b8ff" d="M1817.98,-349C1844.73,-367.18 1903.38,-407.04 1935.81,-429.08"/>
<polygon fill="#63b8ff" stroke="#63b8ff" points="1933.97,-432.06 1944.21,-434.79 1937.91,-426.27 1933.97,-432.06"/>
</a>
</g>
</g>
<!-- Node12&#45;&gt;Node9 -->
<g id="edge12_Node000012_Node000009" class="edge">
<title>Node12&#45;&gt;Node9</title>
<g id="a_edge12_Node000012_Node000009"><a xlink:title=" ">
<path fill="none" stroke="#63b8ff" d="M1494.74,-374.52C1548.56,-371.53 1628.63,-366.1 1698,-357.5 1712.55,-355.7 1728.17,-353.26 1742.77,-350.76"/>
<polygon fill="#63b8ff" stroke="#63b8ff" points="1743.43,-354.2 1752.68,-349.03 1742.23,-347.31 1743.43,-354.2"/>
</a>
</g>
</g>
<!-- Node13 -->
<g id="Node000013" class="node">
<title>Node13</title>
<g id="a_Node000013"><a xlink:href="classinja_1_1Lexer.html#acb4ddc9702038530f73db97c701a60a5" target="_top" xlink:title=" ">
<polygon fill="white" stroke="#666666" points="1673,-349 1563,-349 1563,-330 1673,-330 1673,-349"/>
<text text-anchor="middle" x="1618" y="-337" font-family="Helvetica,sans-Serif" font-size="10.00">inja::Lexer::scan_id</text>
</a>
</g>
</g>
<!-- Node12&#45;&gt;Node13 -->
<g id="edge13_Node000012_Node000013" class="edge">
<title>Node12&#45;&gt;Node13</title>
<g id="a_edge13_Node000012_Node000013"><a xlink:title=" ">
<path fill="none" stroke="#63b8ff" d="M1479.43,-367.91C1504.15,-362.81 1534.74,-356.49 1560.79,-351.11"/>
<polygon fill="#63b8ff" stroke="#63b8ff" points="1561.82,-354.47 1570.9,-349.02 1560.4,-347.61 1561.82,-354.47"/>
</a>
</g>
</g>
<!-- Node14 -->
<g id="Node000014" class="node">
<title>Node14</title>
<g id="a_Node000014"><a xlink:href="classinja_1_1Lexer.html#ab9aa4522a541720d58268d7d3e27e63f" target="_top" xlink:title=" ">
<polygon fill="white" stroke="#666666" points="1687.5,-312 1548.5,-312 1548.5,-293 1687.5,-293 1687.5,-312"/>
<text text-anchor="middle" x="1618" y="-300" font-family="Helvetica,sans-Serif" font-size="10.00">inja::Lexer::scan_number</text>
</a>
</g>
</g>
<!-- Node12&#45;&gt;Node14 -->
<g id="edge15_Node000012_Node000014" class="edge">
<title>Node12&#45;&gt;Node14</title>
<g id="a_edge15_Node000012_Node000014"><a xlink:title=" ">
<path fill="none" stroke="#63b8ff" d="M1481.17,-367.89C1488.42,-365.42 1495.61,-362.34 1502,-358.5 1521.95,-346.53 1517.79,-332.02 1538,-320.5 1541.09,-318.74 1544.33,-317.15 1547.68,-315.72"/>
<polygon fill="#63b8ff" stroke="#63b8ff" points="1549.2,-318.89 1557.32,-312.08 1546.73,-312.34 1549.2,-318.89"/>
</a>
</g>
</g>
<!-- Node15 -->
<g id="Node000015" class="node">
<title>Node15</title>
<g id="a_Node000015"><a xlink:href="classinja_1_1Lexer.html#a3e8f3f7d8569fa5d781633b57a6bdcca" target="_top" xlink:title=" ">
<polygon fill="white" stroke="#666666" points="1682.5,-275 1553.5,-275 1553.5,-256 1682.5,-256 1682.5,-275"/>
<text text-anchor="middle" x="1618" y="-263" font-family="Helvetica,sans-Serif" font-size="10.00">inja::Lexer::scan_string</text>
</a>
</g>
</g>
<!-- Node12&#45;&gt;Node15 -->
<g id="edge17_Node000012_Node000015" class="edge">
<title>Node12&#45;&gt;Node15</title>
<g id="a_edge17_Node000012_Node000015"><a xlink:title=" ">
<path fill="none" stroke="#63b8ff" d="M1486.22,-367.98C1491.92,-365.51 1497.33,-362.4 1502,-358.5 1530.37,-334.79 1509.1,-306.57 1538,-283.5 1540.02,-281.89 1542.16,-280.41 1544.38,-279.07"/>
<polygon fill="#63b8ff" stroke="#63b8ff" points="1546.05,-282.15 1553.36,-274.48 1542.86,-275.91 1546.05,-282.15"/>
</a>
</g>
</g>
<!-- Node12&#45;&gt;Node16 -->
<g id="edge19_Node000012_Node000016" class="edge">
<title>Node12&#45;&gt;Node16</title>
<g id="a_edge19_Node000012_Node000016"><a xlink:title=" ">
<path fill="none" stroke="#63b8ff" d="M1473.84,-387.04C1494.12,-391.78 1519.28,-397.66 1542.82,-403.16"/>
<polygon fill="#63b8ff" stroke="#63b8ff" points="1542.25,-406.63 1552.79,-405.49 1543.85,-399.81 1542.25,-406.63"/>
</a>
</g>
</g>
<!-- Node17 -->
<g id="Node000017" class="node">
<title>Node17</title>
<g id="a_Node000017"><a xlink:href="classinja_1_1Lexer.html#a50d21b69bfa1cd5e6d2e9b5c1bd53c53" target="_top" xlink:title=" ">
<polygon fill="white" stroke="#666666" points="1698,-237.5 1538,-237.5 1538,-207.5 1698,-207.5 1698,-237.5"/>
<text text-anchor="start" x="1546" y="-225.5" font-family="Helvetica,sans-Serif" font-size="10.00">inja::Lexer::skip_whitespaces</text>
<text text-anchor="middle" x="1618" y="-214.5" font-family="Helvetica,sans-Serif" font-size="10.00">_and_newlines</text>
</a>
</g>
</g>
<!-- Node12&#45;&gt;Node17 -->
<g id="edge20_Node000012_Node000017" class="edge">
<title>Node12&#45;&gt;Node17</title>
<g id="a_edge20_Node000012_Node000017"><a xlink:title=" ">
<path fill="none" stroke="#63b8ff" d="M1488.13,-367.94C1493.21,-365.47 1497.96,-362.37 1502,-358.5 1539.75,-322.32 1500.73,-283.17 1538,-246.5 1539.09,-245.43 1540.22,-244.41 1541.39,-243.44"/>
<polygon fill="#63b8ff" stroke="#63b8ff" points="1543.48,-246.24 1549.65,-237.63 1539.45,-240.52 1543.48,-246.24"/>
</a>
</g>
</g>
<!-- Node12&#45;&gt;Node18 -->
<g id="edge21_Node000012_Node000018" class="edge">
<title>Node12&#45;&gt;Node18</title>
<g id="a_edge21_Node000012_Node000018"><a xlink:title=" ">
<path fill="none" stroke="#63b8ff" d="M1445.6,-387.17C1464.68,-401.42 1502.45,-428.13 1538,-444.5 1543.81,-447.17 1550,-449.65 1556.25,-451.9"/>
<polygon fill="#63b8ff" stroke="#63b8ff" points="1555.49,-455.34 1566.09,-455.28 1557.76,-448.72 1555.49,-455.34"/>
</a>
</g>
</g>
<!-- Node13&#45;&gt;Node9 -->
<g id="edge14_Node000013_Node000009" class="edge">
<title>Node13&#45;&gt;Node9</title>
<g id="a_edge14_Node000013_Node000009"><a xlink:title=" ">
<path fill="none" stroke="#63b8ff" d="M1673.41,-339.5C1689.97,-339.5 1708.48,-339.5 1726.18,-339.5"/>
<polygon fill="#63b8ff" stroke="#63b8ff" points="1726.49,-343 1736.49,-339.5 1726.49,-336 1726.49,-343"/>
</a>
</g>
</g>
<!-- Node14&#45;&gt;Node9 -->
<g id="edge16_Node000014_Node000009" class="edge">
<title>Node14&#45;&gt;Node9</title>
<g id="a_edge16_Node000014_Node000009"><a xlink:title=" ">
<path fill="none" stroke="#63b8ff" d="M1666.13,-312.03C1690.15,-316.89 1719.57,-322.83 1744.88,-327.95"/>
<polygon fill="#63b8ff" stroke="#63b8ff" points="1744.22,-331.39 1754.71,-329.94 1745.61,-324.53 1744.22,-331.39"/>
</a>
</g>
</g>
<!-- Node15&#45;&gt;Node9 -->
<g id="edge18_Node000015_Node000009" class="edge">
<title>Node15&#45;&gt;Node9</title>
<g id="a_edge18_Node000015_Node000009"><a xlink:title=" ">
<path fill="none" stroke="#63b8ff" d="M1670.17,-275.03C1679.56,-277.38 1689.18,-280.19 1698,-283.5 1726.97,-294.37 1757.92,-311.88 1778.45,-324.43"/>
<polygon fill="#63b8ff" stroke="#63b8ff" points="1776.77,-327.5 1787.11,-329.8 1780.46,-321.55 1776.77,-327.5"/>
</a>
</g>
</g>
<!-- Node20 -->
<g id="Node000020" class="node">
<title>Node20</title>
<g id="a_Node000020"><a xlink:href="classinja_1_1Parser.html#a7dda6b9f4295c215e097f45d573d8d69" target="_top" xlink:title=" ">
<polygon fill="white" stroke="#666666" points="1000.5,-353.5 896.5,-353.5 896.5,-323.5 1000.5,-323.5 1000.5,-353.5"/>
<text text-anchor="start" x="904.5" y="-341.5" font-family="Helvetica,sans-Serif" font-size="10.00">inja::Parser::parse</text>
<text text-anchor="middle" x="948.5" y="-330.5" font-family="Helvetica,sans-Serif" font-size="10.00">_expression</text>
</a>
</g>
</g>
<!-- Node19&#45;&gt;Node20 -->
<g id="edge27_Node000019_Node000020" class="edge">
<title>Node19&#45;&gt;Node20</title>
<g id="a_edge27_Node000019_Node000020"><a xlink:title=" ">
<path fill="none" stroke="#63b8ff" d="M840.27,-370.5C855.18,-366.05 871.68,-361.13 887.17,-356.5"/>
<polygon fill="#63b8ff" stroke="#63b8ff" points="888.59,-359.73 897.17,-353.52 886.59,-353.02 888.59,-359.73"/>
</a>
</g>
</g>
<!-- Node20&#45;&gt;Node5 -->
<g id="edge28_Node000020_Node000005" class="edge">
<title>Node20&#45;&gt;Node5</title>
<g id="a_edge28_Node000020_Node000005"><a xlink:title=" ">
<path fill="none" stroke="#63b8ff" d="M961.44,-323.28C979.63,-300.68 1016.08,-257.69 1053,-227.5 1064.14,-218.39 1077.59,-209.83 1089.24,-203.06"/>
<polygon fill="#63b8ff" stroke="#63b8ff" points="1091.13,-206.01 1098.12,-198.05 1087.69,-199.92 1091.13,-206.01"/>
</a>
</g>
</g>
<!-- Node20&#45;&gt;Node6 -->
<g id="edge30_Node000020_Node000006" class="edge">
<title>Node20&#45;&gt;Node6</title>
<g id="a_edge30_Node000020_Node000006"><a xlink:title=" ">
<path fill="none" stroke="#63b8ff" d="M984.83,-353.51C1004.78,-361.9 1030.21,-372.46 1053,-381.5 1057.42,-383.25 1062.03,-385.05 1066.65,-386.84"/>
<polygon fill="#63b8ff" stroke="#63b8ff" points="1065.52,-390.15 1076.11,-390.46 1068.03,-383.61 1065.52,-390.15"/>
</a>
</g>
</g>
<!-- Node20&#45;&gt;Node20 -->
<g id="edge33_Node000020_Node000020" class="edge">
<title>Node20&#45;&gt;Node20</title>
<g id="a_edge33_Node000020_Node000020"><a xlink:title=" ">
<path fill="none" stroke="#63b8ff" d="M920.73,-353.78C914.55,-362.91 923.81,-371.5 948.5,-371.5 963.16,-371.5 972.38,-368.47 976.16,-364.1"/>
<polygon fill="#63b8ff" stroke="#63b8ff" points="979.66,-363.81 976.27,-353.78 972.66,-363.73 979.66,-363.81"/>
</a>
</g>
</g>
<!-- Node21 -->
<g id="Node000021" class="node">
<title>Node21</title>
<g id="a_Node000021"><a xlink:href="classinja_1_1FunctionStorage.html#af382c6fe227c69fa5cc36703a655912c" target="_top" xlink:title=" ">
<polygon fill="white" stroke="#666666" points="1177,-324.5 1058,-324.5 1058,-294.5 1177,-294.5 1177,-324.5"/>
<text text-anchor="start" x="1066" y="-312.5" font-family="Helvetica,sans-Serif" font-size="10.00">inja::FunctionStorage</text>
<text text-anchor="middle" x="1117.5" y="-301.5" font-family="Helvetica,sans-Serif" font-size="10.00">::find_function</text>
</a>
</g>
</g>
<!-- Node20&#45;&gt;Node21 -->
<g id="edge29_Node000020_Node000021" class="edge">
<title>Node20&#45;&gt;Node21</title>
<g id="a_edge29_Node000020_Node000021"><a xlink:title=" ">
<path fill="none" stroke="#63b8ff" d="M1000.51,-329.64C1015.38,-327.06 1031.88,-324.19 1047.66,-321.45"/>
<polygon fill="#63b8ff" stroke="#63b8ff" points="1048.65,-324.83 1057.9,-319.68 1047.45,-317.94 1048.65,-324.83"/>
</a>
</g>
</g>
<!-- Node22 -->
<g id="Node000022" class="node">
<title>Node22</title>
<g id="a_Node000022"><a xlink:href="classinja_1_1Parser.html#a16b5b7d40ed3e6a536194d1367626fd9" target="_top" xlink:title=" ">
<polygon fill="white" stroke="#666666" points="1178.5,-372.5 1056.5,-372.5 1056.5,-342.5 1178.5,-342.5 1178.5,-372.5"/>
<text text-anchor="start" x="1064.5" y="-360.5" font-family="Helvetica,sans-Serif" font-size="10.00">inja::Parser::get_peek</text>
<text text-anchor="middle" x="1117.5" y="-349.5" font-family="Helvetica,sans-Serif" font-size="10.00">_token</text>
</a>
</g>
</g>
<!-- Node20&#45;&gt;Node22 -->
<g id="edge31_Node000020_Node000022" class="edge">
<title>Node20&#45;&gt;Node22</title>
<g id="a_edge31_Node000020_Node000022"><a xlink:title=" ">
<path fill="none" stroke="#63b8ff" d="M1000.51,-344.3C1014.99,-345.95 1031.01,-347.77 1046.41,-349.53"/>
<polygon fill="#63b8ff" stroke="#63b8ff" points="1046.08,-353.01 1056.42,-350.66 1046.88,-346.06 1046.08,-353.01"/>
</a>
</g>
</g>
<!-- Node20&#45;&gt;Node23 -->
<g id="edge34_Node000020_Node000023" class="edge">
<title>Node20&#45;&gt;Node23</title>
<g id="a_edge34_Node000020_Node000023"><a xlink:title=" ">
<path fill="none" stroke="#63b8ff" d="M987.92,-323.43C997.58,-319.25 1007.81,-314.49 1017,-309.5 1033.9,-300.33 1036.5,-295.38 1053,-285.5 1060.96,-280.73 1069.63,-275.87 1077.94,-271.38"/>
<polygon fill="#63b8ff" stroke="#63b8ff" points="1079.6,-274.46 1086.77,-266.66 1076.3,-268.29 1079.6,-274.46"/>
</a>
</g>
</g>
<!-- Node22&#45;&gt;Node7 -->
<g id="edge32_Node000022_Node000007" class="edge">
<title>Node22&#45;&gt;Node7</title>
<g id="a_edge32_Node000022_Node000007"><a xlink:title=" ">
<path fill="none" stroke="#63b8ff" d="M1166.33,-372.56C1187.11,-379.09 1211.16,-386.67 1230.97,-392.9"/>
<polygon fill="#63b8ff" stroke="#63b8ff" points="1230.02,-396.27 1240.61,-395.94 1232.13,-389.59 1230.02,-396.27"/>
</a>
</g>
</g>
<!-- Node24 -->
<g id="Node000024" class="node">
<title>Node24</title>
<g id="a_Node000024"><a xlink:href="classinja_1_1Lexer.html#a0ec13f470ddcf0c1fb7466f6168451b2" target="_top" xlink:title=" ">
<polygon fill="white" stroke="#666666" points="1326,-252.5 1218,-252.5 1218,-222.5 1326,-222.5 1326,-252.5"/>
<text text-anchor="start" x="1226" y="-240.5" font-family="Helvetica,sans-Serif" font-size="10.00">inja::Lexer::current</text>
<text text-anchor="middle" x="1272" y="-229.5" font-family="Helvetica,sans-Serif" font-size="10.00">_position</text>
</a>
</g>
</g>
<!-- Node23&#45;&gt;Node24 -->
<g id="edge35_Node000023_Node000024" class="edge">
<title>Node23&#45;&gt;Node24</title>
<g id="a_edge35_Node000023_Node000024"><a xlink:title=" ">
<path fill="none" stroke="#63b8ff" d="M1170.13,-246.76C1182.15,-245.66 1195.08,-244.47 1207.54,-243.33"/>
<polygon fill="#63b8ff" stroke="#63b8ff" points="1208.23,-246.78 1217.86,-242.38 1207.59,-239.81 1208.23,-246.78"/>
</a>
</g>
</g>
<!-- Node26 -->
<g id="Node000026" class="node">
<title>Node26</title>
<g id="a_Node000026"><a xlink:href="structinja_1_1ParserError.html#aa76b83dd1badd3fcf64aff6feee7583c" target="_top" xlink:title=" ">
<polygon fill="white" stroke="#666666" points="1322.5,-175.5 1221.5,-175.5 1221.5,-145.5 1322.5,-145.5 1322.5,-175.5"/>
<text text-anchor="start" x="1229.5" y="-163.5" font-family="Helvetica,sans-Serif" font-size="10.00">inja::ParserError::</text>
<text text-anchor="middle" x="1272" y="-152.5" font-family="Helvetica,sans-Serif" font-size="10.00">ParserError</text>
</a>
</g>
</g>
<!-- Node23&#45;&gt;Node26 -->
<g id="edge38_Node000023_Node000026" class="edge">
<title>Node23&#45;&gt;Node26</title>
<g id="a_edge38_Node000023_Node000026"><a xlink:title=" ">
<path fill="none" stroke="#63b8ff" d="M1143.68,-236.47C1169.18,-221.26 1208.77,-197.63 1237.04,-180.77"/>
<polygon fill="#63b8ff" stroke="#63b8ff" points="1238.99,-183.68 1245.78,-175.55 1235.4,-177.67 1238.99,-183.68"/>
</a>
</g>
</g>
<!-- Node25 -->
<g id="Node000025" class="node">
<title>Node25</title>
<g id="a_Node000025"><a xlink:href="namespaceinja.html#ab7c8c54f2caeb72095cd78a7ff7b6c37" target="_top" xlink:title=" ">
<polygon fill="white" stroke="#666666" points="1872,-151 1734,-151 1734,-132 1872,-132 1872,-151"/>
<text text-anchor="middle" x="1803" y="-139" font-family="Helvetica,sans-Serif" font-size="10.00">inja::get_source_location</text>
</a>
</g>
</g>
<!-- Node24&#45;&gt;Node25 -->
<g id="edge36_Node000024_Node000025" class="edge">
<title>Node24&#45;&gt;Node25</title>
<g id="a_edge36_Node000024_Node000025"><a xlink:title=" ">
<path fill="none" stroke="#63b8ff" d="M1285.99,-222.38C1301.91,-205.08 1330.65,-177.56 1362,-165.5 1481.62,-119.47 1633.13,-123.41 1723.55,-131.63"/>
<polygon fill="#63b8ff" stroke="#63b8ff" points="1723.44,-135.13 1733.73,-132.59 1724.1,-128.16 1723.44,-135.13"/>
</a>
</g>
</g>
<!-- Node25&#45;&gt;Node10 -->
<g id="edge37_Node000025_Node000010" class="edge">
<title>Node25&#45;&gt;Node10</title>
<g id="a_edge37_Node000025_Node000010"><a xlink:title=" ">
<path fill="none" stroke="#63b8ff" d="M1842.99,-151.09C1859.66,-155.19 1879.51,-160.07 1898.01,-164.62"/>
<polygon fill="#63b8ff" stroke="#63b8ff" points="1897.28,-168.05 1907.83,-167.04 1898.96,-161.25 1897.28,-168.05"/>
</a>
</g>
</g>
<!-- Node27 -->
<g id="Node000027" class="node">
<title>Node27</title>
<g id="a_Node000027"><a xlink:href="structinja_1_1InjaError.html#a399b7d2f7c824c24b7794694711bafb7" target="_top" xlink:title=" ">
<polygon fill="white" stroke="#666666" points="1496.5,-113 1367.5,-113 1367.5,-94 1496.5,-94 1496.5,-113"/>
<text text-anchor="middle" x="1432" y="-101" font-family="Helvetica,sans-Serif" font-size="10.00">inja::InjaError::InjaError</text>
</a>
</g>
</g>
<!-- Node26&#45;&gt;Node27 -->
<g id="edge39_Node000026_Node000027" class="edge">
<title>Node26&#45;&gt;Node27</title>
<g id="a_edge39_Node000026_Node000027"><a xlink:title=" ">
<path fill="none" stroke="#63b8ff" d="M1313.25,-145.38C1328.5,-139.7 1346.03,-133.24 1362,-127.5 1372.22,-123.83 1383.33,-119.93 1393.58,-116.36"/>
<polygon fill="#63b8ff" stroke="#63b8ff" points="1394.79,-119.65 1403.09,-113.06 1392.49,-113.03 1394.79,-119.65"/>
</a>
</g>
</g>
<!-- Node28&#45;&gt;Node5 -->
<g id="edge48_Node000028_Node000005" class="edge">
<title>Node28&#45;&gt;Node5</title>
<g id="a_edge48_Node000028_Node000005"><a xlink:title=" ">
<path fill="none" stroke="#63b8ff" d="M691.49,-237.4C705.07,-233 720.08,-228.35 734,-224.5 798.21,-206.72 813.84,-198.39 880,-190.5 936.79,-183.73 1001.79,-183.74 1049.26,-185.15"/>
<polygon fill="#63b8ff" stroke="#63b8ff" points="1049.3,-188.65 1059.41,-185.48 1049.53,-181.65 1049.3,-188.65"/>
</a>
</g>
</g>
<!-- Node28&#45;&gt;Node6 -->
<g id="edge49_Node000028_Node000006" class="edge">
<title>Node28&#45;&gt;Node6</title>
<g id="a_edge49_Node000028_Node000006"><a xlink:title=" ">
<path fill="none" stroke="#63b8ff" d="M674.33,-267.7C734.68,-301.23 874.48,-378.77 880,-380.5 934.5,-397.59 999.17,-403.51 1047.1,-405.34"/>
<polygon fill="#63b8ff" stroke="#63b8ff" points="1047.25,-408.85 1057.36,-405.68 1047.48,-401.85 1047.25,-408.85"/>
</a>
</g>
</g>
<!-- Node28&#45;&gt;Node19 -->
<g id="edge50_Node000028_Node000019" class="edge">
<title>Node28&#45;&gt;Node19</title>
<g id="a_edge50_Node000028_Node000019"><a xlink:title=" ">
<path fill="none" stroke="#63b8ff" d="M657.01,-267.84C671.81,-289.65 701.33,-329.89 734,-356.5 737.77,-359.57 741.92,-362.47 746.19,-365.16"/>
<polygon fill="#63b8ff" stroke="#63b8ff" points="744.64,-368.32 755.04,-370.38 748.2,-362.29 744.64,-368.32"/>
</a>
</g>
</g>
<!-- Node28&#45;&gt;Node23 -->
<g id="edge54_Node000028_Node000023" class="edge">
<title>Node28&#45;&gt;Node23</title>
<g id="a_edge54_Node000028_Node000023"><a xlink:title=" ">
<path fill="none" stroke="#63b8ff" d="M698.14,-252.39C784.96,-252.21 960.86,-251.83 1054.53,-251.63"/>
<polygon fill="#63b8ff" stroke="#63b8ff" points="1054.72,-255.13 1064.71,-251.61 1054.7,-248.13 1054.72,-255.13"/>
</a>
</g>
</g>
<!-- Node29 -->
<g id="Node000029" class="node">
<title>Node29</title>
<g id="a_Node000029"><a xlink:href="classinja_1_1Parser.html#ae1cebbe51ef6a93fc3d448263f9bf1e3" target="_top" xlink:title=" ">
<polygon fill="white" stroke="#666666" points="844,-105.5 734,-105.5 734,-75.5 844,-75.5 844,-105.5"/>
<text text-anchor="start" x="742" y="-93.5" font-family="Helvetica,sans-Serif" font-size="10.00">inja::Parser::add_to</text>
<text text-anchor="middle" x="789" y="-82.5" font-family="Helvetica,sans-Serif" font-size="10.00">_template_storage</text>
</a>
</g>
</g>
<!-- Node28&#45;&gt;Node29 -->
<g id="edge41_Node000028_Node000029" class="edge">
<title>Node28&#45;&gt;Node29</title>
<g id="a_edge41_Node000028_Node000029"><a xlink:title=" ">
<path fill="none" stroke="#63b8ff" d="M660.26,-237.26C685.04,-208.8 738.47,-147.4 767.77,-113.74"/>
<polygon fill="#63b8ff" stroke="#63b8ff" points="770.74,-115.66 774.67,-105.82 765.46,-111.06 770.74,-115.66"/>
</a>
</g>
</g>
<!-- Node35 -->
<g id="Node000035" class="node">
<title>Node35</title>
<g id="a_Node000035"><a xlink:href="classinja_1_1Parser.html#a1bd2c3127357715521ec111c39a7e823" target="_top" xlink:title=" ">
<polygon fill="white" stroke="#666666" points="1000.5,-229.5 896.5,-229.5 896.5,-199.5 1000.5,-199.5 1000.5,-229.5"/>
<text text-anchor="start" x="904.5" y="-217.5" font-family="Helvetica,sans-Serif" font-size="10.00">inja::Parser::parse</text>
<text text-anchor="middle" x="948.5" y="-206.5" font-family="Helvetica,sans-Serif" font-size="10.00">_filename</text>
</a>
</g>
</g>
<!-- Node28&#45;&gt;Node35 -->
<g id="edge51_Node000028_Node000035" class="edge">
<title>Node28&#45;&gt;Node35</title>
<g id="a_edge51_Node000028_Node000035"><a xlink:title=" ">
<path fill="none" stroke="#63b8ff" d="M698.32,-246.01C750.39,-239.43 831.01,-229.23 886.37,-222.23"/>
<polygon fill="#63b8ff" stroke="#63b8ff" points="886.91,-225.69 896.4,-220.96 886.04,-218.74 886.91,-225.69"/>
</a>
</g>
</g>
<!-- Node30 -->
<g id="Node000030" class="node">
<title>Node30</title>
<g id="a_Node000030"><a xlink:href="structinja_1_1FileError.html#a0912694cd232d6cd688f0f68336145c9" target="_top" xlink:title=" ">
<polygon fill="white" stroke="#666666" points="1011.5,-105 885.5,-105 885.5,-86 1011.5,-86 1011.5,-105"/>
<text text-anchor="middle" x="948.5" y="-93" font-family="Helvetica,sans-Serif" font-size="10.00">inja::FileError::FileError</text>
</a>
</g>
</g>
<!-- Node29&#45;&gt;Node30 -->
<g id="edge42_Node000029_Node000030" class="edge">
<title>Node29&#45;&gt;Node30</title>
<g id="a_edge42_Node000029_Node000030"><a xlink:title=" ">
<path fill="none" stroke="#63b8ff" d="M844.2,-92.22C854.15,-92.54 864.67,-92.87 875.05,-93.2"/>
<polygon fill="#63b8ff" stroke="#63b8ff" points="875.24,-96.71 885.35,-93.53 875.47,-89.71 875.24,-96.71"/>
</a>
</g>
</g>
<!-- Node32 -->
<g id="Node000032" class="node">
<title>Node32</title>
<g id="a_Node000032"><a xlink:href="classinja_1_1Parser.html#a8c6a03b6665745f216ba86f5e514a913" target="_top" xlink:title=" ">
<polygon fill="white" stroke="#666666" points="1000.5,-67.5 896.5,-67.5 896.5,-37.5 1000.5,-37.5 1000.5,-67.5"/>
<text text-anchor="start" x="904.5" y="-55.5" font-family="Helvetica,sans-Serif" font-size="10.00">inja::Parser::parse</text>
<text text-anchor="middle" x="948.5" y="-44.5" font-family="Helvetica,sans-Serif" font-size="10.00">_into_template</text>
</a>
</g>
</g>
<!-- Node29&#45;&gt;Node32 -->
<g id="edge44_Node000029_Node000032" class="edge">
<title>Node29&#45;&gt;Node32</title>
<g id="a_edge44_Node000029_Node000032"><a xlink:title=" ">
<path fill="none" stroke="#63b8ff" d="M844.2,-77.42C857.81,-74.14 872.5,-70.6 886.41,-67.24"/>
<polygon fill="#63b8ff" stroke="#63b8ff" points="887.48,-70.58 896.38,-64.83 885.84,-63.78 887.48,-70.58"/>
</a>
</g>
</g>
<!-- Node29&#45;&gt;Node34 -->
<g id="edge47_Node000029_Node000034" class="edge">
<title>Node29&#45;&gt;Node34</title>
<g id="a_edge47_Node000029_Node000034"><a xlink:title=" ">
<path fill="none" stroke="#63b8ff" d="M808.2,-75.27C825.65,-61.35 853.21,-41.08 880,-28.5 884.96,-26.17 890.26,-24.08 895.63,-22.2"/>
<polygon fill="#63b8ff" stroke="#63b8ff" points="896.88,-25.48 905.31,-19.07 894.72,-18.82 896.88,-25.48"/>
</a>
</g>
</g>
<!-- Node31 -->
<g id="Node000031" class="node">
<title>Node31</title>
<g id="a_Node000031"><a xlink:href="structinja_1_1InjaError.html#a0b31b1a26674ec73a9702f41155608da" target="_top" xlink:title=" ">
<polygon fill="white" stroke="#666666" points="1182,-105 1053,-105 1053,-86 1182,-86 1182,-105"/>
<text text-anchor="middle" x="1117.5" y="-93" font-family="Helvetica,sans-Serif" font-size="10.00">inja::InjaError::InjaError</text>
</a>
</g>
</g>
<!-- Node30&#45;&gt;Node31 -->
<g id="edge43_Node000030_Node000031" class="edge">
<title>Node30&#45;&gt;Node31</title>
<g id="a_edge43_Node000030_Node000031"><a xlink:title=" ">
<path fill="none" stroke="#63b8ff" d="M1011.68,-95.5C1021.77,-95.5 1032.3,-95.5 1042.63,-95.5"/>
<polygon fill="#63b8ff" stroke="#63b8ff" points="1042.87,-99 1052.87,-95.5 1042.87,-92 1042.87,-99"/>
</a>
</g>
</g>
<!-- Node32&#45;&gt;Node4 -->
<g id="edge46_Node000032_Node000004" class="edge">
<title>Node32&#45;&gt;Node4</title>
<g id="a_edge46_Node000032_Node000004"><a xlink:title=" ">
<path fill="none" stroke="#63b8ff" d="M896.26,-48.03C821.42,-44.34 681.62,-48.55 594,-119.5 547.84,-156.88 516.32,-221.75 502.66,-254.06"/>
<polygon fill="#63b8ff" stroke="#63b8ff" points="499.27,-253.1 498.72,-263.68 505.75,-255.75 499.27,-253.1"/>
</a>
</g>
</g>
<!-- Node33 -->
<g id="Node000033" class="node">
<title>Node33</title>
<g id="a_Node000033"><a xlink:href="classinja_1_1Lexer.html#a2db4f5d064131f1205960c11de0ea5aa" target="_top" xlink:title=" ">
<polygon fill="white" stroke="#666666" points="1180,-62 1055,-62 1055,-43 1180,-43 1180,-62"/>
<text text-anchor="middle" x="1117.5" y="-50" font-family="Helvetica,sans-Serif" font-size="10.00">inja::Lexer::get_config</text>
</a>
</g>
</g>
<!-- Node32&#45;&gt;Node33 -->
<g id="edge45_Node000032_Node000033" class="edge">
<title>Node32&#45;&gt;Node33</title>
<g id="a_edge45_Node000032_Node000033"><a xlink:title=" ">
<path fill="none" stroke="#63b8ff" d="M1000.51,-52.5C1014.46,-52.5 1029.85,-52.5 1044.72,-52.5"/>
<polygon fill="#63b8ff" stroke="#63b8ff" points="1044.92,-56 1054.92,-52.5 1044.92,-49 1044.92,-56"/>
</a>
</g>
</g>
<!-- Node35&#45;&gt;Node5 -->
<g id="edge52_Node000035_Node000005" class="edge">
<title>Node35&#45;&gt;Node5</title>
<g id="a_edge52_Node000035_Node000005"><a xlink:title=" ">
<path fill="none" stroke="#63b8ff" d="M1000.51,-206.56C1015.92,-204.16 1033.08,-201.49 1049.38,-198.95"/>
<polygon fill="#63b8ff" stroke="#63b8ff" points="1050.04,-202.39 1059.39,-197.39 1048.97,-195.47 1050.04,-202.39"/>
</a>
</g>
</g>
<!-- Node35&#45;&gt;Node23 -->
<g id="edge53_Node000035_Node000023" class="edge">
<title>Node35&#45;&gt;Node23</title>
<g id="a_edge53_Node000035_Node000023"><a xlink:title=" ">
<path fill="none" stroke="#63b8ff" d="M1000.51,-225.8C1017.75,-229.62 1037.18,-233.93 1055.13,-237.9"/>
<polygon fill="#63b8ff" stroke="#63b8ff" points="1054.42,-241.33 1064.94,-240.08 1055.93,-234.5 1054.42,-241.33"/>
</a>
</g>
</g>
<!-- Node36&#45;&gt;Node18 -->
<g id="edge56_Node000036_Node000018" class="edge">
<title>Node36&#45;&gt;Node18</title>
<g id="a_edge56_Node000036_Node000018"><a xlink:title=" ">
<path fill="none" stroke="#63b8ff" d="M672.3,-530.1C723.47,-548.63 843.27,-587.5 947.5,-587.5 947.5,-587.5 947.5,-587.5 1273,-587.5 1392.37,-587.5 1522.87,-522.71 1583.09,-488.74"/>
<polygon fill="#63b8ff" stroke="#63b8ff" points="1585.19,-491.57 1592.14,-483.57 1581.72,-485.5 1585.19,-491.57"/>
</a>
</g>
</g>
</g>
</svg>

<g id="navigator" transform="translate(0 0)" fill="#404254">
  <rect fill="#f2f5e9" fill-opacity="0.5" stroke="#606060" stroke-width=".5" x="0" y="0" width="60" height="60"/>
  <use id="zoomplus" xlink:href="#zoomPlus" x="17" y="9" onmousedown="handleZoom(evt,'in')"/>
  <use id="zoomminus" xlink:href="#zoomMin" x="42" y="9" onmousedown="handleZoom(evt,'out')"/>
  <use id="reset" xlink:href="#resetDef" x="30" y="36" onmousedown="handleReset()"/>
   <use id="arrowup" xlink:href="#arrowUp" x="0" y="0" onmousedown="handlePan(0,-1)"/>
  <use id="arrowright" xlink:href="#arrowRight" x="0" y="0" onmousedown="handlePan(1,0)"/>
  <use id="arrowdown" xlink:href="#arrowDown" x="0" y="0" onmousedown="handlePan(0,1)"/>
  <use id="arrowleft" xlink:href="#arrowLeft" x="0" y="0" onmousedown="handlePan(-1,0)"/>
</g>
<svg viewBox="0 0 15 15" width="100%" height="30px" preserveAspectRatio="xMaxYMin meet">
 <g id="arrow_out" transform="scale(0.3 0.3)">
  <a xlink:href="classinja_1_1Environment_aac36e0cfdc9e7926914e46c0cd1caada_cgraph_org.svg" target="_base">
   <rect id="button" ry="5" rx="5" y="6" x="6" height="38" width="38"
        fill="#f2f5e9" fill-opacity="0.5" stroke="#606060" stroke-width="1.0"/>
   <path id="arrow"
     d="M 11.500037,31.436501 C 11.940474,20.09759 22.043105,11.32322 32.158766,21.979434 L 37.068811,17.246167 C 37.068811,17.246167 37.088388,32 37.088388,32 L 22.160133,31.978069 C 22.160133,31.978069 26.997745,27.140456 26.997745,27.140456 C 18.528582,18.264221 13.291696,25.230495 11.500037,31.436501 z"
     style="fill:#404040;"/>
  </a>
 </g>
</svg>

<style type='text/css'>
<![CDATA[
[data-mouse-over-selected='false'] { opacity: 0.7; }
[data-mouse-over-selected='true']  { opacity: 1.0; }
]]>
</style>
<script type="application/ecmascript"><![CDATA[
document.addEventListener('DOMContentLoaded', (event) => {
  highlightEdges();
  highlightAdjacentNodes();
});
]]></script>
</svg>
