<?xml version="1.0" encoding="UTF-8" standalone="no"?>
<!DOCTYPE svg PUBLIC "-//W3C//DTD SVG 1.1//EN"
 "http://www.w3.org/Graphics/SVG/1.1/DTD/svg11.dtd">
<!-- Generated by graphviz version 14.1.1 (0)
 -->
<!-- Title: inja::Parser::parse_into_template Pages: 1 -->
<!--zoomable 627 -->

<svg id="main" version="1.1" xmlns="http://www.w3.org/2000/svg" xmlns:xlink="http://www.w3.org/1999/xlink" xml:space="preserve" onload="init(evt)">

<style type="text/css"><![CDATA[
.node, .edge {opacity: 0.7;}
.node.selected, .edge.selected {opacity: 1;}
.edge:hover path { stroke: red; }
.edge:hover polygon { stroke: red; fill: red; }
]]></style>

<defs>
  <circle id="rim" cx="0" cy="0" r="7"/>
  <circle id="rim2" cx="0" cy="0" r="3.5"/>
  <g id="zoomPlus">
    <use xlink:href="#rim" fill="#404040"><set attributeName="fill" to="#808080" begin="zoomplus.mouseover" end="zoomplus.mouseout"/></use>
    <path d="M-4,0h8M0,-4v8" fill="none" stroke="white" stroke-width="1.5" pointer-events="none"/>
  </g>
  <g id="zoomMin">
    <use xlink:href="#rim" fill="#404040"><set attributeName="fill" to="#808080" begin="zoomminus.mouseover" end="zoomminus.mouseout"/></use>
    <path d="M-4,0h8" fill="none" stroke="white" stroke-width="1.5" pointer-events="none"/>
  </g>
  <g id="arrowUp" transform="translate(30 24)">
    <use xlink:href="#rim"/>
    <path pointer-events="none" fill="none" stroke="white" stroke-width="1.5" d="M0,-3.0v7 M-2.5,-0.5L0,-3.0L2.5,-0.5"/>
  </g>
  <g id="arrowRight" transform="rotate(90) translate(36 -43)">
    <use xlink:href="#rim"/>
    <path pointer-events="none" fill="none" stroke="white" stroke-width="1.5" d="M0,-3.0v7 M-2.5,-0.5L0,-3.0L2.5,-0.5"/>
  </g>
  <g id="arrowDown" transform="rotate(180) translate(-30 -48)">
    <use xlink:href="#rim"/>
    <path pointer-events="none" fill="none" stroke="white" stroke-width="1.5" d="M0,-3.0v7 M-2.5,-0.5L0,-3.0L2.5,-0.5"/>
  </g>
  <g id="arrowLeft" transform="rotate(270) translate(-36 17)">
    <use xlink:href="#rim"/>
    <path pointer-events="none" fill="none" stroke="white" stroke-width="1.5" d="M0,-3.0v7 M-2.5,-0.5L0,-3.0L2.5,-0.5"/>
  </g>
  <g id="resetDef">
    <use xlink:href="#rim2" fill="#404040"><set attributeName="fill" to="#808080" begin="reset.mouseover" end="reset.mouseout"/></use>
  </g>
</defs>
<script type="application/ecmascript">
var viewWidth = 1723;
var viewHeight = 627;
var sectionId = 'dynsection-21';
</script>
<script type="application/ecmascript" xlink:href="svg.min.js"/>
<svg id="graph" class="graph">
<g id="viewport">
<title>inja::Parser::parse_into_template</title>
<!-- Node1 -->
<g id="Node000001" class="node">
<title>Node1</title>
<g id="a_Node000001"><a xlink:title=" ">
<polygon fill="#999999" stroke="#666666" points="103.75,-273.12 0,-273.12 0,-239.62 103.75,-239.62 103.75,-273.12"/>
<text xml:space="preserve" text-anchor="start" x="8" y="-259.62" font-family="Helvetica,sans-Serif" font-size="10.00">inja::Parser::parse</text>
<text xml:space="preserve" text-anchor="middle" x="51.88" y="-246.88" font-family="Helvetica,sans-Serif" font-size="10.00">_into_template</text>
</a>
</g>
</g>
<!-- Node2 -->
<g id="Node000002" class="node">
<title>Node2</title>
<g id="a_Node000002"><a xlink:href="classinja_1_1Lexer.html#a2db4f5d064131f1205960c11de0ea5aa" target="_top" xlink:title=" ">
<polygon fill="white" stroke="#666666" points="265.62,-305.75 141.62,-305.75 141.62,-285 265.62,-285 265.62,-305.75"/>
<text xml:space="preserve" text-anchor="middle" x="203.62" y="-292.25" font-family="Helvetica,sans-Serif" font-size="10.00">inja::Lexer::get_config</text>
</a>
</g>
</g>
<!-- Node1&#45;&gt;Node2 -->
<g id="edge1_Node000001_Node000002" class="edge">
<title>Node1&#45;&gt;Node2</title>
<g id="a_edge1_Node000001_Node000002"><a xlink:title=" ">
<path fill="none" stroke="#63b8ff" d="M103.99,-269.69C118.85,-273.56 135.09,-277.79 150.03,-281.68"/>
<polygon fill="#63b8ff" stroke="#63b8ff" points="149.14,-285.06 159.7,-284.2 150.9,-278.29 149.14,-285.06"/>
</a>
</g>
</g>
<!-- Node3 -->
<g id="Node000003" class="node">
<title>Node3</title>
<g id="a_Node000003"><a xlink:href="classinja_1_1Parser.html#a9a561141f71073df671b2b7ecb4608ba" target="_top" xlink:title=" ">
<polygon fill="white" stroke="#666666" points="267.5,-266.75 139.75,-266.75 139.75,-246 267.5,-246 267.5,-266.75"/>
<text xml:space="preserve" text-anchor="middle" x="203.62" y="-253.25" font-family="Helvetica,sans-Serif" font-size="10.00">inja::Parser::parse_into</text>
</a>
</g>
</g>
<!-- Node1&#45;&gt;Node3 -->
<g id="edge2_Node000001_Node000003" class="edge">
<title>Node1&#45;&gt;Node3</title>
<g id="a_edge2_Node000001_Node000003"><a xlink:title=" ">
<path fill="none" stroke="#63b8ff" d="M103.99,-256.38C111.71,-256.38 119.8,-256.38 127.89,-256.38"/>
<polygon fill="#63b8ff" stroke="#63b8ff" points="127.78,-259.88 137.78,-256.38 127.78,-252.88 127.78,-259.88"/>
</a>
</g>
</g>
<!-- Node4 -->
<g id="Node000004" class="node">
<title>Node4</title>
<g id="a_Node000004"><a xlink:href="structinja_1_1Token.html#adc8c0a84e2d4ce0a3625c399bd259f1f" target="_top" xlink:title=" ">
<polygon fill="white" stroke="#666666" points="882.75,-157.75 767.75,-157.75 767.75,-137 882.75,-137 882.75,-157.75"/>
<text xml:space="preserve" text-anchor="middle" x="825.25" y="-144.25" font-family="Helvetica,sans-Serif" font-size="10.00">inja::Token::describe</text>
</a>
</g>
</g>
<!-- Node3&#45;&gt;Node4 -->
<g id="edge3_Node000003_Node000004" class="edge">
<title>Node3&#45;&gt;Node4</title>
<g id="a_edge3_Node000003_Node000004"><a xlink:title=" ">
<path fill="none" stroke="#63b8ff" d="M216.5,-245.61C234.19,-230.11 269.1,-201.6 303.5,-185.38 452.65,-115.01 652.81,-125.47 756.15,-137.41"/>
<polygon fill="#63b8ff" stroke="#63b8ff" points="755.51,-140.85 765.86,-138.57 756.34,-133.9 755.51,-140.85"/>
</a>
</g>
</g>
<!-- Node5 -->
<g id="Node000005" class="node">
<title>Node5</title>
<g id="a_Node000005"><a xlink:href="classinja_1_1Parser.html#ab8bb45bc1eeead74f630efa420ee6212" target="_top" xlink:title=" ">
<polygon fill="white" stroke="#666666" points="885,-388.12 765.5,-388.12 765.5,-354.62 885,-354.62 885,-388.12"/>
<text xml:space="preserve" text-anchor="start" x="773.5" y="-374.62" font-family="Helvetica,sans-Serif" font-size="10.00">inja::Parser::get_next</text>
<text xml:space="preserve" text-anchor="middle" x="825.25" y="-361.88" font-family="Helvetica,sans-Serif" font-size="10.00">_token</text>
</a>
</g>
</g>
<!-- Node3&#45;&gt;Node5 -->
<g id="edge4_Node000003_Node000005" class="edge">
<title>Node3&#45;&gt;Node5</title>
<g id="a_edge4_Node000003_Node000005"><a xlink:title=" ">
<path fill="none" stroke="#63b8ff" d="M241.84,-267.25C250.35,-270 259.31,-273.11 267.5,-276.38 287.65,-284.41 422.64,-354.62 443.25,-361.38 505.85,-381.9 523.4,-382.35 589,-388.38 649.19,-393.9 664.77,-393.5 725,-388.38 734.39,-387.58 744.23,-386.36 753.9,-384.94"/>
<polygon fill="#63b8ff" stroke="#63b8ff" points="754.32,-388.42 763.66,-383.42 753.24,-381.5 754.32,-388.42"/>
</a>
</g>
</g>
<!-- Node18 -->
<g id="Node000018" class="node">
<title>Node18</title>
<g id="a_Node000018"><a xlink:href="classinja_1_1Parser.html#aeb66164c89e8c71cae3c93c24d7c7be2" target="_top" xlink:title=" ">
<polygon fill="white" stroke="#666666" points="550,-318.12 446.25,-318.12 446.25,-284.62 550,-284.62 550,-318.12"/>
<text xml:space="preserve" text-anchor="start" x="454.25" y="-304.62" font-family="Helvetica,sans-Serif" font-size="10.00">inja::Parser::parse</text>
<text xml:space="preserve" text-anchor="middle" x="498.12" y="-291.88" font-family="Helvetica,sans-Serif" font-size="10.00">_expression</text>
</a>
</g>
</g>
<!-- Node3&#45;&gt;Node18 -->
<g id="edge25_Node000003_Node000018" class="edge">
<title>Node3&#45;&gt;Node18</title>
<g id="a_edge25_Node000003_Node000018"><a xlink:title=" ">
<path fill="none" stroke="#63b8ff" d="M267.73,-266.08C317.12,-273.68 385.46,-284.2 434.68,-291.77"/>
<polygon fill="#63b8ff" stroke="#63b8ff" points="433.9,-295.19 444.32,-293.25 434.97,-288.27 433.9,-295.19"/>
</a>
</g>
</g>
<!-- Node22 -->
<g id="Node000022" class="node">
<title>Node22</title>
<g id="a_Node000022"><a xlink:href="classinja_1_1Parser.html#a1b11e4984c1934c4e670a609f728ceee" target="_top" xlink:title=" ">
<polygon fill="white" stroke="#666666" points="877.5,-212.12 773,-212.12 773,-178.62 877.5,-178.62 877.5,-212.12"/>
<text xml:space="preserve" text-anchor="start" x="781" y="-198.62" font-family="Helvetica,sans-Serif" font-size="10.00">inja::Parser::throw</text>
<text xml:space="preserve" text-anchor="middle" x="825.25" y="-185.88" font-family="Helvetica,sans-Serif" font-size="10.00">_parser_error</text>
</a>
</g>
</g>
<!-- Node3&#45;&gt;Node22 -->
<g id="edge54_Node000003_Node000022" class="edge">
<title>Node3&#45;&gt;Node22</title>
<g id="a_edge54_Node000003_Node000022"><a xlink:title=" ">
<path fill="none" stroke="#63b8ff" d="M267.77,-253.85C365.95,-249.38 560.98,-238.28 725,-215.38 736.93,-213.71 749.58,-211.5 761.72,-209.16"/>
<polygon fill="#63b8ff" stroke="#63b8ff" points="762.07,-212.66 771.2,-207.28 760.71,-205.8 762.07,-212.66"/>
</a>
</g>
</g>
<!-- Node27 -->
<g id="Node000027" class="node">
<title>Node27</title>
<g id="a_Node000027"><a xlink:href="classinja_1_1Parser.html#a5a26bdcce0ae076bf010ee7442d8928e" target="_top" xlink:title=" ">
<polygon fill="white" stroke="#666666" points="407.25,-228.12 303.5,-228.12 303.5,-194.62 407.25,-194.62 407.25,-228.12"/>
<text xml:space="preserve" text-anchor="start" x="311.5" y="-214.62" font-family="Helvetica,sans-Serif" font-size="10.00">inja::Parser::parse</text>
<text xml:space="preserve" text-anchor="middle" x="355.38" y="-201.88" font-family="Helvetica,sans-Serif" font-size="10.00">_statement</text>
</a>
</g>
</g>
<!-- Node3&#45;&gt;Node27 -->
<g id="edge39_Node000003_Node000027" class="edge">
<title>Node3&#45;&gt;Node27</title>
<g id="a_edge39_Node000003_Node000027"><a xlink:title=" ">
<path fill="none" stroke="#63b8ff" d="M240.49,-245.6C256.04,-240.92 274.71,-235.32 292.38,-230"/>
<polygon fill="#63b8ff" stroke="#63b8ff" points="293.2,-233.41 301.77,-227.18 291.19,-226.71 293.2,-233.41"/>
</a>
</g>
</g>
<!-- Node33 -->
<g id="Node000033" class="node">
<title>Node33</title>
<g id="a_Node000033"><a xlink:href="classinja_1_1Lexer.html#afab5a4a53539d89c7441f249a751da01" target="_top" xlink:title=" ">
<polygon fill="white" stroke="#666666" points="403.12,-543.75 307.62,-543.75 307.62,-523 403.12,-523 403.12,-543.75"/>
<text xml:space="preserve" text-anchor="middle" x="355.38" y="-530.25" font-family="Helvetica,sans-Serif" font-size="10.00">inja::Lexer::start</text>
</a>
</g>
</g>
<!-- Node3&#45;&gt;Node33 -->
<g id="edge52_Node000003_Node000033" class="edge">
<title>Node3&#45;&gt;Node33</title>
<g id="a_edge52_Node000003_Node000033"><a xlink:title=" ">
<path fill="none" stroke="#63b8ff" d="M255.14,-267.1C259.72,-269.58 263.96,-272.63 267.5,-276.38 311.63,-323.06 282.62,-355.61 303.5,-416.38 315.32,-450.78 332.92,-489.2 344.01,-512.32"/>
<polygon fill="#63b8ff" stroke="#63b8ff" points="340.84,-513.81 348.36,-521.27 347.14,-510.75 340.84,-513.81"/>
</a>
</g>
</g>
<!-- Node6 -->
<g id="Node000006" class="node">
<title>Node6</title>
<g id="a_Node000006"><a xlink:href="classinja_1_1Lexer.html#a8c85efa9536869c371b8afb609e0d8d2" target="_top" xlink:title=" ">
<polygon fill="white" stroke="#666666" points="1027,-381.75 931.5,-381.75 931.5,-361 1027,-361 1027,-381.75"/>
<text xml:space="preserve" text-anchor="middle" x="979.25" y="-368.25" font-family="Helvetica,sans-Serif" font-size="10.00">inja::Lexer::scan</text>
</a>
</g>
</g>
<!-- Node5&#45;&gt;Node6 -->
<g id="edge5_Node000005_Node000006" class="edge">
<title>Node5&#45;&gt;Node6</title>
<g id="a_edge5_Node000005_Node000006"><a xlink:title=" ">
<path fill="none" stroke="#63b8ff" d="M885.45,-371.38C896.71,-371.38 908.49,-371.38 919.73,-371.38"/>
<polygon fill="#63b8ff" stroke="#63b8ff" points="919.69,-374.88 929.69,-371.38 919.69,-367.88 919.69,-374.88"/>
</a>
</g>
</g>
<!-- Node7 -->
<g id="Node000007" class="node">
<title>Node7</title>
<g id="a_Node000007"><a xlink:href="classinja_1_1Lexer.html#a0f4034e3151f72f121fb4f2b63374ce1" target="_top" xlink:title=" ">
<polygon fill="white" stroke="#666666" points="1208,-258.12 1069,-258.12 1069,-224.62 1208,-224.62 1208,-258.12"/>
<text xml:space="preserve" text-anchor="start" x="1077" y="-244.62" font-family="Helvetica,sans-Serif" font-size="10.00">inja::Lexer::clear</text>
<text xml:space="preserve" text-anchor="middle" x="1138.5" y="-231.88" font-family="Helvetica,sans-Serif" font-size="10.00">_final_line_if_whitespace</text>
</a>
</g>
</g>
<!-- Node6&#45;&gt;Node7 -->
<g id="edge6_Node000006_Node000007" class="edge">
<title>Node6&#45;&gt;Node7</title>
<g id="a_edge6_Node000006_Node000007"><a xlink:title=" ">
<path fill="none" stroke="#63b8ff" d="M987.63,-360.51C1001.54,-340.72 1033.44,-298.44 1069,-272.38 1073.25,-269.26 1077.86,-266.36 1082.62,-263.67"/>
<polygon fill="#63b8ff" stroke="#63b8ff" points="1083.94,-266.93 1091.17,-259.19 1080.69,-260.73 1083.94,-266.93"/>
</a>
</g>
</g>
<!-- Node8 -->
<g id="Node000008" class="node">
<title>Node8</title>
<g id="a_Node000008"><a xlink:href="classinja_1_1Lexer.html#a6088871283d1a03087b325b88c9396f4" target="_top" xlink:title=" ">
<polygon fill="white" stroke="#666666" points="1574.12,-321.75 1441.88,-321.75 1441.88,-301 1574.12,-301 1574.12,-321.75"/>
<text xml:space="preserve" text-anchor="middle" x="1508" y="-308.25" font-family="Helvetica,sans-Serif" font-size="10.00">inja::Lexer::make_token</text>
</a>
</g>
</g>
<!-- Node6&#45;&gt;Node8 -->
<g id="edge7_Node000006_Node000008" class="edge">
<title>Node6&#45;&gt;Node8</title>
<g id="a_edge7_Node000006_Node000008"><a xlink:title=" ">
<path fill="none" stroke="#63b8ff" d="M1003.69,-360.57C1065.9,-331.93 1231.28,-256.09 1244,-253.38 1313.22,-238.6 1334.76,-235.53 1403.25,-253.38 1433.32,-261.21 1463.9,-279.89 1484,-293.95"/>
<polygon fill="#63b8ff" stroke="#63b8ff" points="1481.85,-296.71 1492.01,-299.72 1485.94,-291.03 1481.85,-296.71"/>
</a>
</g>
</g>
<!-- Node9 -->
<g id="Node000009" class="node">
<title>Node9</title>
<g id="a_Node000009"><a xlink:href="namespaceinja_1_1string__view.html#a898871016595d8f34d1b4ea55b3e8684" target="_top" xlink:title=" ">
<polygon fill="white" stroke="#666666" points="1715,-213.12 1612.75,-213.12 1612.75,-179.62 1715,-179.62 1715,-213.12"/>
<text xml:space="preserve" text-anchor="start" x="1620.75" y="-199.62" font-family="Helvetica,sans-Serif" font-size="10.00">inja::string_view::</text>
<text xml:space="preserve" text-anchor="middle" x="1663.88" y="-186.88" font-family="Helvetica,sans-Serif" font-size="10.00">slice</text>
</a>
</g>
</g>
<!-- Node6&#45;&gt;Node9 -->
<g id="edge22_Node000006_Node000009" class="edge">
<title>Node6&#45;&gt;Node9</title>
<g id="a_edge22_Node000006_Node000009"><a xlink:title=" ">
<path fill="none" stroke="#63b8ff" d="M982.59,-360.51C989.6,-330.91 1013.5,-248.85 1069,-215.38 1113.67,-188.43 1458.5,-192.2 1601.28,-194.97"/>
<polygon fill="#63b8ff" stroke="#63b8ff" points="1600.85,-198.47 1610.91,-195.17 1600.99,-191.47 1600.85,-198.47"/>
</a>
</g>
</g>
<!-- Node10 -->
<g id="Node000010" class="node">
<title>Node10</title>
<g id="a_Node000010"><a xlink:href="structinja_1_1Token.html#ae215b2b1e365fc7c4060895b604e2430" target="_top" xlink:title=" ">
<polygon fill="white" stroke="#666666" points="1714.62,-456.75 1613.12,-456.75 1613.12,-436 1714.62,-436 1714.62,-456.75"/>
<text xml:space="preserve" text-anchor="middle" x="1663.88" y="-443.25" font-family="Helvetica,sans-Serif" font-size="10.00">inja::Token::Token</text>
</a>
</g>
</g>
<!-- Node6&#45;&gt;Node10 -->
<g id="edge24_Node000006_Node000010" class="edge">
<title>Node6&#45;&gt;Node10</title>
<g id="a_edge24_Node000006_Node000010"><a xlink:title=" ">
<path fill="none" stroke="#63b8ff" d="M986.54,-382.12C999.53,-403.52 1031.28,-451.94 1069,-481.38 1136.56,-534.11 1160.3,-543.94 1244,-562.38 1313.12,-577.6 1334.03,-577.14 1403.25,-562.38 1493.51,-543.13 1590.39,-490.14 1636.09,-462.94"/>
<polygon fill="#63b8ff" stroke="#63b8ff" points="1637.76,-466.03 1644.52,-457.87 1634.14,-460.03 1637.76,-466.03"/>
</a>
</g>
</g>
<!-- Node11 -->
<g id="Node000011" class="node">
<title>Node11</title>
<g id="a_Node000011"><a xlink:href="classinja_1_1Lexer.html#aa342980e23b7a9fa633e82cf38c3c682" target="_top" xlink:title=" ">
<polygon fill="white" stroke="#666666" points="1200.88,-384.75 1076.12,-384.75 1076.12,-364 1200.88,-364 1200.88,-384.75"/>
<text xml:space="preserve" text-anchor="middle" x="1138.5" y="-371.25" font-family="Helvetica,sans-Serif" font-size="10.00">inja::Lexer::scan_body</text>
</a>
</g>
</g>
<!-- Node6&#45;&gt;Node11 -->
<g id="edge10_Node000006_Node000011" class="edge">
<title>Node6&#45;&gt;Node11</title>
<g id="a_edge10_Node000006_Node000011"><a xlink:title=" ">
<path fill="none" stroke="#63b8ff" d="M1027.43,-372.28C1039.07,-372.5 1051.8,-372.74 1064.35,-372.98"/>
<polygon fill="#63b8ff" stroke="#63b8ff" points="1064.21,-376.48 1074.27,-373.17 1064.34,-369.48 1064.21,-376.48"/>
</a>
</g>
</g>
<!-- Node15 -->
<g id="Node000015" class="node">
<title>Node15</title>
<g id="a_Node000015"><a xlink:href="classinja_1_1Lexer.html#ae4dcb266522442d430dcb8d381b5fdb1" target="_top" xlink:title=" ">
<polygon fill="white" stroke="#666666" points="1403.25,-501.12 1244,-501.12 1244,-467.62 1403.25,-467.62 1403.25,-501.12"/>
<text xml:space="preserve" text-anchor="start" x="1252" y="-487.62" font-family="Helvetica,sans-Serif" font-size="10.00">inja::Lexer::skip_whitespaces</text>
<text xml:space="preserve" text-anchor="middle" x="1323.62" y="-474.88" font-family="Helvetica,sans-Serif" font-size="10.00">_and_first_newline</text>
</a>
</g>
</g>
<!-- Node6&#45;&gt;Node15 -->
<g id="edge21_Node000006_Node000015" class="edge">
<title>Node6&#45;&gt;Node15</title>
<g id="a_edge21_Node000006_Node000015"><a xlink:title=" ">
<path fill="none" stroke="#63b8ff" d="M1013.08,-382.21C1069.75,-400.92 1186.86,-439.57 1259.67,-463.6"/>
<polygon fill="#63b8ff" stroke="#63b8ff" points="1258.49,-466.89 1269.08,-466.7 1260.68,-460.25 1258.49,-466.89"/>
</a>
</g>
</g>
<!-- Node17 -->
<g id="Node000017" class="node">
<title>Node17</title>
<g id="a_Node000017"><a xlink:href="namespaceinja_1_1string__view.html#a78e9922c080101c22e54419f7caa83d8" target="_top" xlink:title=" ">
<polygon fill="white" stroke="#666666" points="1374.75,-553.12 1272.5,-553.12 1272.5,-519.62 1374.75,-519.62 1374.75,-553.12"/>
<text xml:space="preserve" text-anchor="start" x="1280.5" y="-539.62" font-family="Helvetica,sans-Serif" font-size="10.00">inja::string_view::</text>
<text xml:space="preserve" text-anchor="middle" x="1323.62" y="-526.88" font-family="Helvetica,sans-Serif" font-size="10.00">starts_with</text>
</a>
</g>
</g>
<!-- Node6&#45;&gt;Node17 -->
<g id="edge23_Node000006_Node000017" class="edge">
<title>Node6&#45;&gt;Node17</title>
<g id="a_edge23_Node000006_Node000017"><a xlink:title=" ">
<path fill="none" stroke="#63b8ff" d="M992.51,-382.03C1009.05,-396.02 1039.79,-420.76 1069,-437.38 1131.13,-472.73 1208.38,-500.86 1261.19,-517.97"/>
<polygon fill="#63b8ff" stroke="#63b8ff" points="1260.04,-521.28 1270.63,-520.99 1262.17,-514.61 1260.04,-521.28"/>
</a>
</g>
</g>
<!-- Node8&#45;&gt;Node9 -->
<g id="edge8_Node000008_Node000009" class="edge">
<title>Node8&#45;&gt;Node9</title>
<g id="a_edge8_Node000008_Node000009"><a xlink:title=" ">
<path fill="none" stroke="#63b8ff" d="M1523.48,-300.56C1547.96,-282.26 1598.09,-244.79 1631.08,-220.14"/>
<polygon fill="#63b8ff" stroke="#63b8ff" points="1632.77,-223.24 1638.68,-214.45 1628.58,-217.64 1632.77,-223.24"/>
</a>
</g>
</g>
<!-- Node8&#45;&gt;Node10 -->
<g id="edge9_Node000008_Node000010" class="edge">
<title>Node8&#45;&gt;Node10</title>
<g id="a_edge9_Node000008_Node000010"><a xlink:title=" ">
<path fill="none" stroke="#63b8ff" d="M1521.33,-322.19C1547.67,-345.3 1609.65,-399.67 1642.15,-428.19"/>
<polygon fill="#63b8ff" stroke="#63b8ff" points="1639.52,-430.54 1649.35,-434.51 1644.14,-425.28 1639.52,-430.54"/>
</a>
</g>
</g>
<!-- Node11&#45;&gt;Node8 -->
<g id="edge11_Node000011_Node000008" class="edge">
<title>Node11&#45;&gt;Node8</title>
<g id="a_edge11_Node000011_Node000008"><a xlink:title=" ">
<path fill="none" stroke="#63b8ff" d="M1157.59,-385.13C1177.83,-396.48 1211.99,-413.64 1244,-420.38 1313.26,-434.94 1338.2,-448.27 1403.25,-420.38 1445.25,-402.37 1478.29,-358.09 1495.01,-331.84"/>
<polygon fill="#63b8ff" stroke="#63b8ff" points="1497.92,-333.78 1500.17,-323.42 1491.96,-330.11 1497.92,-333.78"/>
</a>
</g>
</g>
<!-- Node12 -->
<g id="Node000012" class="node">
<title>Node12</title>
<g id="a_Node000012"><a xlink:href="classinja_1_1Lexer.html#acb4ddc9702038530f73db97c701a60a5" target="_top" xlink:title=" ">
<polygon fill="white" stroke="#666666" points="1378.5,-411.75 1268.75,-411.75 1268.75,-391 1378.5,-391 1378.5,-411.75"/>
<text xml:space="preserve" text-anchor="middle" x="1323.62" y="-398.25" font-family="Helvetica,sans-Serif" font-size="10.00">inja::Lexer::scan_id</text>
</a>
</g>
</g>
<!-- Node11&#45;&gt;Node12 -->
<g id="edge12_Node000011_Node000012" class="edge">
<title>Node11&#45;&gt;Node12</title>
<g id="a_edge12_Node000011_Node000012"><a xlink:title=" ">
<path fill="none" stroke="#63b8ff" d="M1201.24,-383.48C1219.3,-386.14 1239.09,-389.06 1257.36,-391.75"/>
<polygon fill="#63b8ff" stroke="#63b8ff" points="1256.61,-395.18 1267.01,-393.18 1257.63,-388.25 1256.61,-395.18"/>
</a>
</g>
</g>
<!-- Node13 -->
<g id="Node000013" class="node">
<title>Node13</title>
<g id="a_Node000013"><a xlink:href="classinja_1_1Lexer.html#ab9aa4522a541720d58268d7d3e27e63f" target="_top" xlink:title=" ">
<polygon fill="white" stroke="#666666" points="1392.75,-321.75 1254.5,-321.75 1254.5,-301 1392.75,-301 1392.75,-321.75"/>
<text xml:space="preserve" text-anchor="middle" x="1323.62" y="-308.25" font-family="Helvetica,sans-Serif" font-size="10.00">inja::Lexer::scan_number</text>
</a>
</g>
</g>
<!-- Node11&#45;&gt;Node13 -->
<g id="edge14_Node000011_Node000013" class="edge">
<title>Node11&#45;&gt;Node13</title>
<g id="a_edge14_Node000011_Node000013"><a xlink:title=" ">
<path fill="none" stroke="#63b8ff" d="M1161.93,-363.69C1182.82,-354.03 1215.02,-339.91 1244,-330.38 1249.67,-328.51 1255.62,-326.74 1261.61,-325.09"/>
<polygon fill="#63b8ff" stroke="#63b8ff" points="1262.14,-328.57 1270.91,-322.62 1260.35,-321.8 1262.14,-328.57"/>
</a>
</g>
</g>
<!-- Node14 -->
<g id="Node000014" class="node">
<title>Node14</title>
<g id="a_Node000014"><a xlink:href="classinja_1_1Lexer.html#a3e8f3f7d8569fa5d781633b57a6bdcca" target="_top" xlink:title=" ">
<polygon fill="white" stroke="#666666" points="1387.88,-282.75 1259.38,-282.75 1259.38,-262 1387.88,-262 1387.88,-282.75"/>
<text xml:space="preserve" text-anchor="middle" x="1323.62" y="-269.25" font-family="Helvetica,sans-Serif" font-size="10.00">inja::Lexer::scan_string</text>
</a>
</g>
</g>
<!-- Node11&#45;&gt;Node14 -->
<g id="edge16_Node000011_Node000014" class="edge">
<title>Node11&#45;&gt;Node14</title>
<g id="a_edge16_Node000011_Node000014"><a xlink:title=" ">
<path fill="none" stroke="#63b8ff" d="M1150.03,-363.58C1167.79,-346.02 1205.51,-311.31 1244,-292.38 1248.19,-290.31 1252.62,-288.45 1257.15,-286.76"/>
<polygon fill="#63b8ff" stroke="#63b8ff" points="1258.06,-290.15 1266.42,-283.64 1255.82,-283.52 1258.06,-290.15"/>
</a>
</g>
</g>
<!-- Node11&#45;&gt;Node15 -->
<g id="edge18_Node000011_Node000015" class="edge">
<title>Node11&#45;&gt;Node15</title>
<g id="a_edge18_Node000011_Node000015"><a xlink:title=" ">
<path fill="none" stroke="#63b8ff" d="M1154.27,-385.23C1168.18,-395.49 1189.59,-411.37 1208,-425.38 1224.13,-437.65 1226.39,-443.33 1244,-453.38 1249.94,-456.76 1256.32,-459.94 1262.79,-462.88"/>
<polygon fill="#63b8ff" stroke="#63b8ff" points="1261.01,-465.93 1271.58,-466.69 1263.79,-459.5 1261.01,-465.93"/>
</a>
</g>
</g>
<!-- Node16 -->
<g id="Node000016" class="node">
<title>Node16</title>
<g id="a_Node000016"><a xlink:href="classinja_1_1Lexer.html#a50d21b69bfa1cd5e6d2e9b5c1bd53c53" target="_top" xlink:title=" ">
<polygon fill="white" stroke="#666666" points="1403.25,-373.12 1244,-373.12 1244,-339.62 1403.25,-339.62 1403.25,-373.12"/>
<text xml:space="preserve" text-anchor="start" x="1252" y="-359.62" font-family="Helvetica,sans-Serif" font-size="10.00">inja::Lexer::skip_whitespaces</text>
<text xml:space="preserve" text-anchor="middle" x="1323.62" y="-346.88" font-family="Helvetica,sans-Serif" font-size="10.00">_and_newlines</text>
</a>
</g>
</g>
<!-- Node11&#45;&gt;Node16 -->
<g id="edge19_Node000011_Node000016" class="edge">
<title>Node11&#45;&gt;Node16</title>
<g id="a_edge19_Node000011_Node000016"><a xlink:title=" ">
<path fill="none" stroke="#63b8ff" d="M1201.24,-368.31C1211.23,-367.32 1221.75,-366.29 1232.25,-365.26"/>
<polygon fill="#63b8ff" stroke="#63b8ff" points="1232.5,-368.75 1242.11,-364.29 1231.81,-361.78 1232.5,-368.75"/>
</a>
</g>
</g>
<!-- Node11&#45;&gt;Node17 -->
<g id="edge20_Node000011_Node000017" class="edge">
<title>Node11&#45;&gt;Node17</title>
<g id="a_edge20_Node000011_Node000017"><a xlink:title=" ">
<path fill="none" stroke="#63b8ff" d="M1144.75,-384.95C1157.88,-410.37 1194.72,-475.38 1244,-510.38 1249.41,-514.21 1255.42,-517.51 1261.64,-520.34"/>
<polygon fill="#63b8ff" stroke="#63b8ff" points="1260.26,-523.56 1270.84,-524.1 1262.91,-517.08 1260.26,-523.56"/>
</a>
</g>
</g>
<!-- Node12&#45;&gt;Node8 -->
<g id="edge13_Node000012_Node000008" class="edge">
<title>Node12&#45;&gt;Node8</title>
<g id="a_edge13_Node000012_Node000008"><a xlink:title=" ">
<path fill="none" stroke="#63b8ff" d="M1378.78,-391.04C1387.14,-388.66 1395.55,-385.8 1403.25,-382.38 1434.1,-368.65 1465.55,-345.59 1485.61,-329.48"/>
<polygon fill="#63b8ff" stroke="#63b8ff" points="1487.8,-332.21 1493.32,-323.17 1483.36,-326.8 1487.8,-332.21"/>
</a>
</g>
</g>
<!-- Node13&#45;&gt;Node8 -->
<g id="edge15_Node000013_Node000008" class="edge">
<title>Node13&#45;&gt;Node8</title>
<g id="a_edge15_Node000013_Node000008"><a xlink:title=" ">
<path fill="none" stroke="#63b8ff" d="M1393.05,-311.38C1405.2,-311.38 1417.93,-311.38 1430.29,-311.38"/>
<polygon fill="#63b8ff" stroke="#63b8ff" points="1430,-314.88 1440,-311.38 1430,-307.88 1430,-314.88"/>
</a>
</g>
</g>
<!-- Node14&#45;&gt;Node8 -->
<g id="edge17_Node000014_Node000008" class="edge">
<title>Node14&#45;&gt;Node8</title>
<g id="a_edge17_Node000014_Node000008"><a xlink:title=" ">
<path fill="none" stroke="#63b8ff" d="M1375.43,-283.24C1396.98,-287.85 1422.3,-293.26 1444.94,-298.1"/>
<polygon fill="#63b8ff" stroke="#63b8ff" points="1444.16,-301.52 1454.67,-300.19 1445.63,-294.67 1444.16,-301.52"/>
</a>
</g>
</g>
<!-- Node19 -->
<g id="Node000019" class="node">
<title>Node19</title>
<g id="a_Node000019"><a xlink:href="classinja_1_1Parser.html#a7dda6b9f4295c215e097f45d573d8d69" target="_top" xlink:title=" ">
<polygon fill="white" stroke="#666666" points="708.88,-318.12 605.12,-318.12 605.12,-284.62 708.88,-284.62 708.88,-318.12"/>
<text xml:space="preserve" text-anchor="start" x="613.12" y="-304.62" font-family="Helvetica,sans-Serif" font-size="10.00">inja::Parser::parse</text>
<text xml:space="preserve" text-anchor="middle" x="657" y="-291.88" font-family="Helvetica,sans-Serif" font-size="10.00">_expression</text>
</a>
</g>
</g>
<!-- Node18&#45;&gt;Node19 -->
<g id="edge26_Node000018_Node000019" class="edge">
<title>Node18&#45;&gt;Node19</title>
<g id="a_edge26_Node000018_Node000019"><a xlink:title=" ">
<path fill="none" stroke="#63b8ff" d="M550.49,-301.38C564.24,-301.38 579.26,-301.38 593.53,-301.38"/>
<polygon fill="#63b8ff" stroke="#63b8ff" points="593.27,-304.88 603.27,-301.38 593.27,-297.88 593.27,-304.88"/>
</a>
</g>
</g>
<!-- Node19&#45;&gt;Node4 -->
<g id="edge27_Node000019_Node000004" class="edge">
<title>Node19&#45;&gt;Node4</title>
<g id="a_edge27_Node000019_Node000004"><a xlink:title=" ">
<path fill="none" stroke="#63b8ff" d="M667.03,-284.22C682.59,-256.27 717.04,-200.85 761,-169.38 764.36,-166.97 768.02,-164.8 771.81,-162.86"/>
<polygon fill="#63b8ff" stroke="#63b8ff" points="773.03,-166.15 780.71,-158.85 770.15,-159.77 773.03,-166.15"/>
</a>
</g>
</g>
<!-- Node19&#45;&gt;Node5 -->
<g id="edge29_Node000019_Node000005" class="edge">
<title>Node19&#45;&gt;Node5</title>
<g id="a_edge29_Node000019_Node000005"><a xlink:title=" ">
<path fill="none" stroke="#63b8ff" d="M697.56,-318.43C716.7,-326.63 740.02,-336.58 761,-345.38 764.56,-346.87 768.23,-348.4 771.93,-349.93"/>
<polygon fill="#63b8ff" stroke="#63b8ff" points="770.39,-353.08 780.97,-353.67 773.07,-346.62 770.39,-353.08"/>
</a>
</g>
</g>
<!-- Node19&#45;&gt;Node19 -->
<g id="edge32_Node000019_Node000019" class="edge">
<title>Node19&#45;&gt;Node19</title>
<g id="a_edge32_Node000019_Node000019"><a xlink:title=" ">
<path fill="none" stroke="#63b8ff" d="M628.44,-318.54C623.59,-327.74 633.11,-336.12 657,-336.12 670.44,-336.12 679.33,-333.47 683.68,-329.51"/>
<polygon fill="#63b8ff" stroke="#63b8ff" points="687.06,-330.48 685.3,-320.03 680.16,-329.29 687.06,-330.48"/>
</a>
</g>
</g>
<!-- Node20 -->
<g id="Node000020" class="node">
<title>Node20</title>
<g id="a_Node000020"><a xlink:href="classinja_1_1FunctionStorage.html#af382c6fe227c69fa5cc36703a655912c" target="_top" xlink:title=" ">
<polygon fill="white" stroke="#666666" points="884.62,-284.12 765.88,-284.12 765.88,-250.62 884.62,-250.62 884.62,-284.12"/>
<text xml:space="preserve" text-anchor="start" x="773.88" y="-270.62" font-family="Helvetica,sans-Serif" font-size="10.00">inja::FunctionStorage</text>
<text xml:space="preserve" text-anchor="middle" x="825.25" y="-257.88" font-family="Helvetica,sans-Serif" font-size="10.00">::find_function</text>
</a>
</g>
</g>
<!-- Node19&#45;&gt;Node20 -->
<g id="edge28_Node000019_Node000020" class="edge">
<title>Node19&#45;&gt;Node20</title>
<g id="a_edge28_Node000019_Node000020"><a xlink:title=" ">
<path fill="none" stroke="#63b8ff" d="M709.24,-290.9C723.59,-287.96 739.45,-284.72 754.67,-281.6"/>
<polygon fill="#63b8ff" stroke="#63b8ff" points="755.04,-285.1 764.14,-279.67 753.64,-278.24 755.04,-285.1"/>
</a>
</g>
</g>
<!-- Node21 -->
<g id="Node000021" class="node">
<title>Node21</title>
<g id="a_Node000021"><a xlink:href="classinja_1_1Parser.html#a16b5b7d40ed3e6a536194d1367626fd9" target="_top" xlink:title=" ">
<polygon fill="white" stroke="#666666" points="886.12,-336.12 764.38,-336.12 764.38,-302.62 886.12,-302.62 886.12,-336.12"/>
<text xml:space="preserve" text-anchor="start" x="772.38" y="-322.62" font-family="Helvetica,sans-Serif" font-size="10.00">inja::Parser::get_peek</text>
<text xml:space="preserve" text-anchor="middle" x="825.25" y="-309.88" font-family="Helvetica,sans-Serif" font-size="10.00">_token</text>
</a>
</g>
</g>
<!-- Node19&#45;&gt;Node21 -->
<g id="edge30_Node000019_Node000021" class="edge">
<title>Node19&#45;&gt;Node21</title>
<g id="a_edge30_Node000019_Node000021"><a xlink:title=" ">
<path fill="none" stroke="#63b8ff" d="M709.24,-306.92C723.07,-308.42 738.3,-310.07 753.02,-311.66"/>
<polygon fill="#63b8ff" stroke="#63b8ff" points="752.32,-315.11 762.64,-312.7 753.07,-308.15 752.32,-315.11"/>
</a>
</g>
</g>
<!-- Node19&#45;&gt;Node22 -->
<g id="edge33_Node000019_Node000022" class="edge">
<title>Node19&#45;&gt;Node22</title>
<g id="a_edge33_Node000019_Node000022"><a xlink:title=" ">
<path fill="none" stroke="#63b8ff" d="M699.22,-284.24C707.95,-280.08 716.94,-275.38 725,-270.38 742.45,-259.54 744.69,-253.87 761,-241.38 770.54,-234.07 781.04,-226.32 790.7,-219.3"/>
<polygon fill="#63b8ff" stroke="#63b8ff" points="792.73,-222.15 798.79,-213.46 788.63,-216.48 792.73,-222.15"/>
</a>
</g>
</g>
<!-- Node21&#45;&gt;Node6 -->
<g id="edge31_Node000021_Node000006" class="edge">
<title>Node21&#45;&gt;Node6</title>
<g id="a_edge31_Node000021_Node000006"><a xlink:title=" ">
<path fill="none" stroke="#63b8ff" d="M876.44,-336.55C895.72,-343.14 917.52,-350.6 935.99,-356.92"/>
<polygon fill="#63b8ff" stroke="#63b8ff" points="934.69,-360.17 945.28,-360.1 936.95,-353.55 934.69,-360.17"/>
</a>
</g>
</g>
<!-- Node23 -->
<g id="Node000023" class="node">
<title>Node23</title>
<g id="a_Node000023"><a xlink:href="classinja_1_1Lexer.html#a0ec13f470ddcf0c1fb7466f6168451b2" target="_top" xlink:title=" ">
<polygon fill="white" stroke="#666666" points="1033,-210.12 925.5,-210.12 925.5,-176.62 1033,-176.62 1033,-210.12"/>
<text xml:space="preserve" text-anchor="start" x="933.5" y="-196.62" font-family="Helvetica,sans-Serif" font-size="10.00">inja::Lexer::current</text>
<text xml:space="preserve" text-anchor="middle" x="979.25" y="-183.88" font-family="Helvetica,sans-Serif" font-size="10.00">_position</text>
</a>
</g>
</g>
<!-- Node22&#45;&gt;Node23 -->
<g id="edge34_Node000022_Node000023" class="edge">
<title>Node22&#45;&gt;Node23</title>
<g id="a_edge34_Node000022_Node000023"><a xlink:title=" ">
<path fill="none" stroke="#63b8ff" d="M877.71,-194.7C889.26,-194.55 901.66,-194.38 913.67,-194.22"/>
<polygon fill="#63b8ff" stroke="#63b8ff" points="913.56,-197.73 923.51,-194.1 913.47,-190.73 913.56,-197.73"/>
</a>
</g>
</g>
<!-- Node25 -->
<g id="Node000025" class="node">
<title>Node25</title>
<g id="a_Node000025"><a xlink:href="structinja_1_1ParserError.html#aa76b83dd1badd3fcf64aff6feee7583c" target="_top" xlink:title=" ">
<polygon fill="white" stroke="#666666" points="1029.25,-151.12 929.25,-151.12 929.25,-117.62 1029.25,-117.62 1029.25,-151.12"/>
<text xml:space="preserve" text-anchor="start" x="937.25" y="-137.62" font-family="Helvetica,sans-Serif" font-size="10.00">inja::ParserError::</text>
<text xml:space="preserve" text-anchor="middle" x="979.25" y="-124.88" font-family="Helvetica,sans-Serif" font-size="10.00">ParserError</text>
</a>
</g>
</g>
<!-- Node22&#45;&gt;Node25 -->
<g id="edge37_Node000022_Node000025" class="edge">
<title>Node22&#45;&gt;Node25</title>
<g id="a_edge37_Node000022_Node000025"><a xlink:title=" ">
<path fill="none" stroke="#63b8ff" d="M868.99,-178.22C886.32,-171.27 906.51,-163.16 924.79,-155.83"/>
<polygon fill="#63b8ff" stroke="#63b8ff" points="925.92,-159.15 933.89,-152.18 923.31,-152.65 925.92,-159.15"/>
</a>
</g>
</g>
<!-- Node24 -->
<g id="Node000024" class="node">
<title>Node24</title>
<g id="a_Node000024"><a xlink:href="namespaceinja.html#ab7c8c54f2caeb72095cd78a7ff7b6c37" target="_top" xlink:title=" ">
<polygon fill="white" stroke="#666666" points="1576.75,-168.75 1439.25,-168.75 1439.25,-148 1576.75,-148 1576.75,-168.75"/>
<text xml:space="preserve" text-anchor="middle" x="1508" y="-155.25" font-family="Helvetica,sans-Serif" font-size="10.00">inja::get_source_location</text>
</a>
</g>
</g>
<!-- Node23&#45;&gt;Node24 -->
<g id="edge35_Node000023_Node000024" class="edge">
<title>Node23&#45;&gt;Node24</title>
<g id="a_edge35_Node000023_Node000024"><a xlink:title=" ">
<path fill="none" stroke="#63b8ff" d="M1033.22,-186.21C1044.98,-184.78 1057.4,-183.41 1069,-182.38 1194.04,-171.21 1339.67,-164.47 1427.52,-161.09"/>
<polygon fill="#63b8ff" stroke="#63b8ff" points="1427.62,-164.59 1437.48,-160.71 1427.35,-157.59 1427.62,-164.59"/>
</a>
</g>
</g>
<!-- Node24&#45;&gt;Node9 -->
<g id="edge36_Node000024_Node000009" class="edge">
<title>Node24&#45;&gt;Node9</title>
<g id="a_edge36_Node000024_Node000009"><a xlink:title=" ">
<path fill="none" stroke="#63b8ff" d="M1552.68,-169.16C1567.77,-172.89 1584.97,-177.14 1601.22,-181.15"/>
<polygon fill="#63b8ff" stroke="#63b8ff" points="1600.27,-184.52 1610.82,-183.52 1601.95,-177.72 1600.27,-184.52"/>
</a>
</g>
</g>
<!-- Node26 -->
<g id="Node000026" class="node">
<title>Node26</title>
<g id="a_Node000026"><a xlink:href="structinja_1_1InjaError.html#a399b7d2f7c824c24b7794694711bafb7" target="_top" xlink:title=" ">
<polygon fill="white" stroke="#666666" points="1202.75,-130.75 1074.25,-130.75 1074.25,-110 1202.75,-110 1202.75,-130.75"/>
<text xml:space="preserve" text-anchor="middle" x="1138.5" y="-117.25" font-family="Helvetica,sans-Serif" font-size="10.00">inja::InjaError::InjaError</text>
</a>
</g>
</g>
<!-- Node25&#45;&gt;Node26 -->
<g id="edge38_Node000025_Node000026" class="edge">
<title>Node25&#45;&gt;Node26</title>
<g id="a_edge38_Node000025_Node000026"><a xlink:title=" ">
<path fill="none" stroke="#63b8ff" d="M1029.57,-129.98C1040.11,-129.05 1051.47,-128.03 1062.72,-127.03"/>
<polygon fill="#63b8ff" stroke="#63b8ff" points="1062.75,-130.54 1072.4,-126.17 1062.13,-123.57 1062.75,-130.54"/>
</a>
</g>
</g>
<!-- Node27&#45;&gt;Node4 -->
<g id="edge45_Node000027_Node000004" class="edge">
<title>Node27&#45;&gt;Node4</title>
<g id="a_edge45_Node000027_Node000004"><a xlink:title=" ">
<path fill="none" stroke="#63b8ff" d="M405.3,-194.22C417.62,-190.13 430.87,-185.92 443.25,-182.38 507.29,-164.03 522.84,-155.21 589,-147.38 645.02,-140.74 709.06,-141.27 756.17,-143.16"/>
<polygon fill="#63b8ff" stroke="#63b8ff" points="755.81,-146.64 765.95,-143.58 756.11,-139.65 755.81,-146.64"/>
</a>
</g>
</g>
<!-- Node27&#45;&gt;Node5 -->
<g id="edge46_Node000027_Node000005" class="edge">
<title>Node27&#45;&gt;Node5</title>
<g id="a_edge46_Node000027_Node000005"><a xlink:title=" ">
<path fill="none" stroke="#63b8ff" d="M363.62,-228.23C375.84,-254.39 403.2,-304.15 443.25,-327.38 539.94,-383.44 673.63,-384.9 754.24,-379.26"/>
<polygon fill="#63b8ff" stroke="#63b8ff" points="754.03,-382.78 763.74,-378.53 753.5,-375.8 754.03,-382.78"/>
</a>
</g>
</g>
<!-- Node27&#45;&gt;Node18 -->
<g id="edge47_Node000027_Node000018" class="edge">
<title>Node27&#45;&gt;Node18</title>
<g id="a_edge47_Node000027_Node000018"><a xlink:title=" ">
<path fill="none" stroke="#63b8ff" d="M383.18,-228.52C405.19,-242.59 436.58,-262.66 460.84,-278.17"/>
<polygon fill="#63b8ff" stroke="#63b8ff" points="458.83,-281.04 469.14,-283.48 462.6,-275.15 458.83,-281.04"/>
</a>
</g>
</g>
<!-- Node27&#45;&gt;Node22 -->
<g id="edge51_Node000027_Node000022" class="edge">
<title>Node27&#45;&gt;Node22</title>
<g id="a_edge51_Node000027_Node000022"><a xlink:title=" ">
<path fill="none" stroke="#63b8ff" d="M407.66,-209.83C478.88,-207.66 611.74,-203.5 725,-199.38 736.75,-198.95 749.29,-198.46 761.36,-197.98"/>
<polygon fill="#63b8ff" stroke="#63b8ff" points="761.38,-201.49 771.23,-197.59 761.1,-194.49 761.38,-201.49"/>
</a>
</g>
</g>
<!-- Node28 -->
<g id="Node000028" class="node">
<title>Node28</title>
<g id="a_Node000028"><a xlink:href="classinja_1_1Parser.html#ae1cebbe51ef6a93fc3d448263f9bf1e3" target="_top" xlink:title=" ">
<polygon fill="white" stroke="#666666" points="553,-62.12 443.25,-62.12 443.25,-28.62 553,-28.62 553,-62.12"/>
<text xml:space="preserve" text-anchor="start" x="451.25" y="-48.62" font-family="Helvetica,sans-Serif" font-size="10.00">inja::Parser::add_to</text>
<text xml:space="preserve" text-anchor="middle" x="498.12" y="-35.88" font-family="Helvetica,sans-Serif" font-size="10.00">_template_storage</text>
</a>
</g>
</g>
<!-- Node27&#45;&gt;Node28 -->
<g id="edge40_Node000027_Node000028" class="edge">
<title>Node27&#45;&gt;Node28</title>
<g id="a_edge40_Node000027_Node000028"><a xlink:title=" ">
<path fill="none" stroke="#63b8ff" d="M370.91,-194.24C395.8,-164.88 446.69,-104.86 475.67,-70.68"/>
<polygon fill="#63b8ff" stroke="#63b8ff" points="478.1,-73.22 481.9,-63.33 472.77,-68.69 478.1,-73.22"/>
</a>
</g>
</g>
<!-- Node32 -->
<g id="Node000032" class="node">
<title>Node32</title>
<g id="a_Node000032"><a xlink:href="classinja_1_1Parser.html#a1bd2c3127357715521ec111c39a7e823" target="_top" xlink:title=" ">
<polygon fill="white" stroke="#666666" points="708.88,-190.12 605.12,-190.12 605.12,-156.62 708.88,-156.62 708.88,-190.12"/>
<text xml:space="preserve" text-anchor="start" x="613.12" y="-176.62" font-family="Helvetica,sans-Serif" font-size="10.00">inja::Parser::parse</text>
<text xml:space="preserve" text-anchor="middle" x="657" y="-163.88" font-family="Helvetica,sans-Serif" font-size="10.00">_filename</text>
</a>
</g>
</g>
<!-- Node27&#45;&gt;Node32 -->
<g id="edge48_Node000027_Node000032" class="edge">
<title>Node27&#45;&gt;Node32</title>
<g id="a_edge48_Node000027_Node000032"><a xlink:title=" ">
<path fill="none" stroke="#63b8ff" d="M407.54,-204.89C458.96,-198.36 538.28,-188.3 593.41,-181.31"/>
<polygon fill="#63b8ff" stroke="#63b8ff" points="593.81,-184.79 603.29,-180.06 592.93,-177.85 593.81,-184.79"/>
</a>
</g>
</g>
<!-- Node28&#45;&gt;Node1 -->
<g id="edge43_Node000028_Node000001" class="edge">
<title>Node28&#45;&gt;Node1</title>
<g id="a_edge43_Node000028_Node000001"><a xlink:title=" ">
<path fill="none" stroke="#63b8ff" d="M443.14,-47.36C403.27,-50.38 348.35,-57.9 303.5,-76.38 211.52,-114.27 121.1,-191.91 78.38,-231.69"/>
<polygon fill="#63b8ff" stroke="#63b8ff" points="76.23,-228.9 71.35,-238.3 81.03,-234 76.23,-228.9"/>
</a>
</g>
</g>
<!-- Node29 -->
<g id="Node000029" class="node">
<title>Node29</title>
<g id="a_Node000029"><a xlink:href="structinja_1_1FileError.html#a0912694cd232d6cd688f0f68336145c9" target="_top" xlink:title=" ">
<polygon fill="white" stroke="#666666" points="719.75,-59.75 594.25,-59.75 594.25,-39 719.75,-39 719.75,-59.75"/>
<text xml:space="preserve" text-anchor="middle" x="657" y="-46.25" font-family="Helvetica,sans-Serif" font-size="10.00">inja::FileError::FileError</text>
</a>
</g>
</g>
<!-- Node28&#45;&gt;Node29 -->
<g id="edge41_Node000028_Node000029" class="edge">
<title>Node28&#45;&gt;Node29</title>
<g id="a_edge41_Node000028_Node000029"><a xlink:title=" ">
<path fill="none" stroke="#63b8ff" d="M553.11,-46.75C562.54,-46.99 572.49,-47.25 582.34,-47.5"/>
<polygon fill="#63b8ff" stroke="#63b8ff" points="582.22,-50.99 592.31,-47.75 582.4,-44 582.22,-50.99"/>
</a>
</g>
</g>
<!-- Node31 -->
<g id="Node000031" class="node">
<title>Node31</title>
<g id="a_Node000031"><a xlink:href="structinja_1_1Template.html#a0f073d8168095f8ce86d0c7ac9060948" target="_top" xlink:title=" ">
<polygon fill="white" stroke="#666666" points="725,-20.75 589,-20.75 589,0 725,0 725,-20.75"/>
<text xml:space="preserve" text-anchor="middle" x="657" y="-7.25" font-family="Helvetica,sans-Serif" font-size="10.00">inja::Template::Template</text>
</a>
</g>
</g>
<!-- Node28&#45;&gt;Node31 -->
<g id="edge44_Node000028_Node000031" class="edge">
<title>Node28&#45;&gt;Node31</title>
<g id="a_edge44_Node000028_Node000031"><a xlink:title=" ">
<path fill="none" stroke="#63b8ff" d="M553.11,-33.33C567.03,-30.23 582.09,-26.87 596.28,-23.7"/>
<polygon fill="#63b8ff" stroke="#63b8ff" points="596.96,-27.13 605.96,-21.54 595.43,-20.3 596.96,-27.13"/>
</a>
</g>
</g>
<!-- Node30 -->
<g id="Node000030" class="node">
<title>Node30</title>
<g id="a_Node000030"><a xlink:href="structinja_1_1InjaError.html#a0b31b1a26674ec73a9702f41155608da" target="_top" xlink:title=" ">
<polygon fill="white" stroke="#666666" points="889.5,-59.75 761,-59.75 761,-39 889.5,-39 889.5,-59.75"/>
<text xml:space="preserve" text-anchor="middle" x="825.25" y="-46.25" font-family="Helvetica,sans-Serif" font-size="10.00">inja::InjaError::InjaError</text>
</a>
</g>
</g>
<!-- Node29&#45;&gt;Node30 -->
<g id="edge42_Node000029_Node000030" class="edge">
<title>Node29&#45;&gt;Node30</title>
<g id="a_edge42_Node000029_Node000030"><a xlink:title=" ">
<path fill="none" stroke="#63b8ff" d="M719.91,-49.38C729.46,-49.38 739.42,-49.38 749.22,-49.38"/>
<polygon fill="#63b8ff" stroke="#63b8ff" points="749.11,-52.88 759.11,-49.38 749.11,-45.88 749.11,-52.88"/>
</a>
</g>
</g>
<!-- Node32&#45;&gt;Node4 -->
<g id="edge49_Node000032_Node000004" class="edge">
<title>Node32&#45;&gt;Node4</title>
<g id="a_edge49_Node000032_Node000004"><a xlink:title=" ">
<path fill="none" stroke="#63b8ff" d="M709.24,-165.36C724.05,-163.04 740.46,-160.48 756.14,-158.03"/>
<polygon fill="#63b8ff" stroke="#63b8ff" points="756.55,-161.5 765.89,-156.5 755.47,-154.59 756.55,-161.5"/>
</a>
</g>
</g>
<!-- Node32&#45;&gt;Node22 -->
<g id="edge50_Node000032_Node000022" class="edge">
<title>Node32&#45;&gt;Node22</title>
<g id="a_edge50_Node000032_Node000022"><a xlink:title=" ">
<path fill="none" stroke="#63b8ff" d="M709.24,-180.16C725.75,-182.34 744.24,-184.79 761.49,-187.07"/>
<polygon fill="#63b8ff" stroke="#63b8ff" points="760.74,-190.5 771.11,-188.34 761.65,-183.56 760.74,-190.5"/>
</a>
</g>
</g>
<!-- Node33&#45;&gt;Node17 -->
<g id="edge53_Node000033_Node000017" class="edge">
<title>Node33&#45;&gt;Node17</title>
<g id="a_edge53_Node000033_Node000017"><a xlink:title=" ">
<path fill="none" stroke="#63b8ff" d="M377.94,-544.09C426.38,-567.15 548.03,-619.38 656,-619.38 656,-619.38 656,-619.38 980.25,-619.38 1085.12,-619.38 1203.09,-582.14 1269.58,-557.55"/>
<polygon fill="#63b8ff" stroke="#63b8ff" points="1270.64,-560.89 1278.77,-554.1 1268.18,-554.34 1270.64,-560.89"/>
</a>
</g>
</g>
</g>
</svg>

<g id="navigator" transform="translate(0 0)" fill="#404254">
  <rect fill="#f2f5e9" fill-opacity="0.5" stroke="#606060" stroke-width=".5" x="0" y="0" width="60" height="60"/>
  <use id="zoomplus" xlink:href="#zoomPlus" x="17" y="9" onmousedown="handleZoom(evt,'in')"/>
  <use id="zoomminus" xlink:href="#zoomMin" x="42" y="9" onmousedown="handleZoom(evt,'out')"/>
  <use id="reset" xlink:href="#resetDef" x="30" y="36" onmousedown="handleReset()"/>
   <use id="arrowup" xlink:href="#arrowUp" x="0" y="0" onmousedown="handlePan(0,-1)"/>
  <use id="arrowright" xlink:href="#arrowRight" x="0" y="0" onmousedown="handlePan(1,0)"/>
  <use id="arrowdown" xlink:href="#arrowDown" x="0" y="0" onmousedown="handlePan(0,1)"/>
  <use id="arrowleft" xlink:href="#arrowLeft" x="0" y="0" onmousedown="handlePan(-1,0)"/>
</g>
<svg viewBox="0 0 15 15" width="100%" height="30px" preserveAspectRatio="xMaxYMin meet">
 <g id="arrow_out" transform="scale(0.3 0.3)">
  <a xlink:href="classinja_1_1Parser_a8c6a03b6665745f216ba86f5e514a913_cgraph_org.svg" target="_base">
   <rect id="button" ry="5" rx="5" y="6" x="6" height="38" width="38"
        fill="#f2f5e9" fill-opacity="0.5" stroke="#606060" stroke-width="1.0"/>
   <path id="arrow"
     d="M 11.500037,31.436501 C 11.940474,20.09759 22.043105,11.32322 32.158766,21.979434 L 37.068811,17.246167 C 37.068811,17.246167 37.088388,32 37.088388,32 L 22.160133,31.978069 C 22.160133,31.978069 26.997745,27.140456 26.997745,27.140456 C 18.528582,18.264221 13.291696,25.230495 11.500037,31.436501 z"
     style="fill:#404040;"/>
  </a>
 </g>
</svg>

<style type='text/css'>
<![CDATA[
[data-mouse-over-selected='false'] { opacity: 0.7; }
[data-mouse-over-selected='true']  { opacity: 1.0; }
]]>
</style>
<script type="application/ecmascript"><![CDATA[
document.addEventListener('DOMContentLoaded', (event) => {
  highlightEdges();
  highlightAdjacentNodes();
});
]]></script>
</svg>
