<?xml version="1.0" encoding="UTF-8" standalone="no"?>
<!DOCTYPE svg PUBLIC "-//W3C//DTD SVG 1.1//EN"
 "http://www.w3.org/Graphics/SVG/1.1/DTD/svg11.dtd">
<!-- Generated by graphviz version 14.1.1 (0)
 -->
<!-- Title: nlohmann::json_schema::root_schema::root_schema Pages: 1 -->
<!--zoomable 440 -->

<svg id="main" version="1.1" xmlns="http://www.w3.org/2000/svg" xmlns:xlink="http://www.w3.org/1999/xlink" xml:space="preserve" onload="init(evt)">

<style type="text/css"><![CDATA[
.node, .edge {opacity: 0.7;}
.node.selected, .edge.selected {opacity: 1;}
.edge:hover path { stroke: red; }
.edge:hover polygon { stroke: red; fill: red; }
]]></style>

<defs>
  <circle id="rim" cx="0" cy="0" r="7"/>
  <circle id="rim2" cx="0" cy="0" r="3.5"/>
  <g id="zoomPlus">
    <use xlink:href="#rim" fill="#404040"><set attributeName="fill" to="#808080" begin="zoomplus.mouseover" end="zoomplus.mouseout"/></use>
    <path d="M-4,0h8M0,-4v8" fill="none" stroke="white" stroke-width="1.5" pointer-events="none"/>
  </g>
  <g id="zoomMin">
    <use xlink:href="#rim" fill="#404040"><set attributeName="fill" to="#808080" begin="zoomminus.mouseover" end="zoomminus.mouseout"/></use>
    <path d="M-4,0h8" fill="none" stroke="white" stroke-width="1.5" pointer-events="none"/>
  </g>
  <g id="arrowUp" transform="translate(30 24)">
    <use xlink:href="#rim"/>
    <path pointer-events="none" fill="none" stroke="white" stroke-width="1.5" d="M0,-3.0v7 M-2.5,-0.5L0,-3.0L2.5,-0.5"/>
  </g>
  <g id="arrowRight" transform="rotate(90) translate(36 -43)">
    <use xlink:href="#rim"/>
    <path pointer-events="none" fill="none" stroke="white" stroke-width="1.5" d="M0,-3.0v7 M-2.5,-0.5L0,-3.0L2.5,-0.5"/>
  </g>
  <g id="arrowDown" transform="rotate(180) translate(-30 -48)">
    <use xlink:href="#rim"/>
    <path pointer-events="none" fill="none" stroke="white" stroke-width="1.5" d="M0,-3.0v7 M-2.5,-0.5L0,-3.0L2.5,-0.5"/>
  </g>
  <g id="arrowLeft" transform="rotate(270) translate(-36 17)">
    <use xlink:href="#rim"/>
    <path pointer-events="none" fill="none" stroke="white" stroke-width="1.5" d="M0,-3.0v7 M-2.5,-0.5L0,-3.0L2.5,-0.5"/>
  </g>
  <g id="resetDef">
    <use xlink:href="#rim2" fill="#404040"><set attributeName="fill" to="#808080" begin="reset.mouseover" end="reset.mouseout"/></use>
  </g>
</defs>
<script type="application/ecmascript">
var viewWidth = 985;
var viewHeight = 440;
var sectionId = 'dynsection-1';
</script>
<script type="application/ecmascript" xlink:href="svg.min.js"/>
<svg id="graph" class="graph">
<g id="viewport">
<title>nlohmann::json_schema::root_schema::root_schema</title>
<!-- Node1 -->
<g id="Node000001" class="node">
<title>Node1</title>
<g id="a_Node000001"><a xlink:title=" ">
<polygon fill="#999999" stroke="#666666" points="977.25,-105.12 823.25,-105.12 823.25,-71.62 977.25,-71.62 977.25,-105.12"/>
<text xml:space="preserve" text-anchor="start" x="831.25" y="-91.62" font-family="Helvetica,sans-Serif" font-size="10.00">nlohmann::json_schema</text>
<text xml:space="preserve" text-anchor="middle" x="900.25" y="-78.88" font-family="Helvetica,sans-Serif" font-size="10.00">::root_schema::root_schema</text>
</a>
</g>
</g>
<!-- Node2 -->
<g id="Node000002" class="node">
<title>Node2</title>
<g id="a_Node000002"><a xlink:href="classnlohmann_1_1json__schema_1_1json__validator.html#aa0aea93f3507f78008cba94fb7e81799" target="_top" xlink:title=" ">
<polygon fill="white" stroke="#666666" points="787.25,-111.5 652.75,-111.5 652.75,-65.25 787.25,-65.25 787.25,-111.5"/>
<text xml:space="preserve" text-anchor="start" x="660.75" y="-98" font-family="Helvetica,sans-Serif" font-size="10.00">nlohmann::json_schema</text>
<text xml:space="preserve" text-anchor="start" x="660.75" y="-85.25" font-family="Helvetica,sans-Serif" font-size="10.00">::json_validator::json</text>
<text xml:space="preserve" text-anchor="middle" x="720" y="-72.5" font-family="Helvetica,sans-Serif" font-size="10.00">_validator</text>
</a>
</g>
</g>
<!-- Node1&#45;&gt;Node2 -->
<g id="edge1_Node000001_Node000002" class="edge">
<title>Node1&#45;&gt;Node2</title>
<g id="a_edge1_Node000001_Node000002"><a xlink:title=" ">
<path fill="none" stroke="#63b8ff" d="M811.56,-88.38C803.52,-88.38 795.47,-88.38 787.66,-88.38"/>
<polygon fill="#63b8ff" stroke="#63b8ff" points="811.37,-91.88 821.37,-88.38 811.37,-84.88 811.37,-91.88"/>
</a>
</g>
</g>
<!-- Node3 -->
<g id="Node000003" class="node">
<title>Node3</title>
<g id="a_Node000003"><a xlink:href="classnlohmann_1_1json__schema_1_1json__validator.html#ad8f46dfed69afe463732ae335879dabb" target="_top" xlink:title=" ">
<polygon fill="white" stroke="#666666" points="616.75,-225.5 482.25,-225.5 482.25,-179.25 616.75,-179.25 616.75,-225.5"/>
<text xml:space="preserve" text-anchor="start" x="490.25" y="-212" font-family="Helvetica,sans-Serif" font-size="10.00">nlohmann::json_schema</text>
<text xml:space="preserve" text-anchor="start" x="490.25" y="-199.25" font-family="Helvetica,sans-Serif" font-size="10.00">::json_validator::json</text>
<text xml:space="preserve" text-anchor="middle" x="549.5" y="-186.5" font-family="Helvetica,sans-Serif" font-size="10.00">_validator</text>
</a>
</g>
</g>
<!-- Node2&#45;&gt;Node3 -->
<g id="edge2_Node000002_Node000003" class="edge">
<title>Node2&#45;&gt;Node3</title>
<g id="a_edge2_Node000002_Node000003"><a xlink:title=" ">
<path fill="none" stroke="#63b8ff" d="M674.57,-118.44C646.68,-137.31 611.23,-161.29 585.37,-178.78"/>
<polygon fill="#63b8ff" stroke="#63b8ff" points="676.51,-121.35 682.83,-112.84 672.59,-115.55 676.51,-121.35"/>
</a>
</g>
</g>
<!-- Node16 -->
<g id="Node000016" class="node">
<title>Node16</title>
<g id="a_Node000016"><a xlink:href="classnlohmann_1_1json__schema_1_1json__validator.html#a9b658ef82ef777074679e2a60d539821" target="_top" xlink:title=" ">
<polygon fill="white" stroke="#666666" points="433.5,-124.5 299,-124.5 299,-78.25 433.5,-78.25 433.5,-124.5"/>
<text xml:space="preserve" text-anchor="start" x="307" y="-111" font-family="Helvetica,sans-Serif" font-size="10.00">nlohmann::json_schema</text>
<text xml:space="preserve" text-anchor="start" x="307" y="-98.25" font-family="Helvetica,sans-Serif" font-size="10.00">::json_validator::json</text>
<text xml:space="preserve" text-anchor="middle" x="366.25" y="-85.5" font-family="Helvetica,sans-Serif" font-size="10.00">_validator</text>
</a>
</g>
</g>
<!-- Node2&#45;&gt;Node16 -->
<g id="edge15_Node000002_Node000016" class="edge">
<title>Node2&#45;&gt;Node16</title>
<g id="a_edge15_Node000002_Node000016"><a xlink:title=" ">
<path fill="none" stroke="#63b8ff" d="M641.24,-104.36C633,-105.59 624.72,-106.64 616.75,-107.38 554.94,-113.07 484.18,-110.51 433.84,-107.15"/>
<polygon fill="#63b8ff" stroke="#63b8ff" points="641.6,-107.84 650.92,-102.81 640.5,-100.93 641.6,-107.84"/>
</a>
</g>
</g>
<!-- Node17 -->
<g id="Node000017" class="node">
<title>Node17</title>
<g id="a_Node000017"><a xlink:href="format_8cpp.html#ae66f6b31b5ad750f1fe042a706a4e3d4" target="_top" xlink:title=" ">
<polygon fill="white" stroke="#666666" points="569.88,-98.75 529.12,-98.75 529.12,-78 569.88,-78 569.88,-98.75"/>
<text xml:space="preserve" text-anchor="middle" x="549.5" y="-85.25" font-family="Helvetica,sans-Serif" font-size="10.00">main</text>
</a>
</g>
</g>
<!-- Node2&#45;&gt;Node17 -->
<g id="edge17_Node000002_Node000017" class="edge">
<title>Node2&#45;&gt;Node17</title>
<g id="a_edge17_Node000002_Node000017"><a xlink:title=" ">
<path fill="none" stroke="#63b8ff" d="M640.9,-88.38C614.81,-88.38 587.92,-88.38 570.32,-88.38"/>
<polygon fill="#63b8ff" stroke="#63b8ff" points="640.89,-91.88 650.89,-88.38 640.89,-84.88 640.89,-91.88"/>
</a>
</g>
</g>
<!-- Node18 -->
<g id="Node000018" class="node">
<title>Node18</title>
<g id="a_Node000018"><a xlink:href="json-schema-validate_8cpp.html#a0ddf1224851353fc92bfbff6f499fa97" target="_top" xlink:title=" ">
<polygon fill="white" stroke="#666666" points="569.88,-59.75 529.12,-59.75 529.12,-39 569.88,-39 569.88,-59.75"/>
<text xml:space="preserve" text-anchor="middle" x="549.5" y="-46.25" font-family="Helvetica,sans-Serif" font-size="10.00">main</text>
</a>
</g>
</g>
<!-- Node2&#45;&gt;Node18 -->
<g id="edge18_Node000002_Node000018" class="edge">
<title>Node2&#45;&gt;Node18</title>
<g id="a_edge18_Node000002_Node000018"><a xlink:title=" ">
<path fill="none" stroke="#63b8ff" d="M641.25,-70.38C615.05,-64.31 588,-58.05 570.32,-53.96"/>
<polygon fill="#63b8ff" stroke="#63b8ff" points="640.4,-73.77 650.93,-72.62 641.98,-66.96 640.4,-73.77"/>
</a>
</g>
</g>
<!-- Node19 -->
<g id="Node000019" class="node">
<title>Node19</title>
<g id="a_Node000019"><a xlink:href="issue-189-default-values_8cpp.html#a840291bc02cba5474a4cb46a9b9566fe" target="_top" xlink:title=" ">
<polygon fill="white" stroke="#666666" points="569.88,-20.75 529.12,-20.75 529.12,0 569.88,0 569.88,-20.75"/>
<text xml:space="preserve" text-anchor="middle" x="549.5" y="-7.25" font-family="Helvetica,sans-Serif" font-size="10.00">main</text>
</a>
</g>
</g>
<!-- Node2&#45;&gt;Node19 -->
<g id="edge19_Node000002_Node000019" class="edge">
<title>Node2&#45;&gt;Node19</title>
<g id="a_edge19_Node000002_Node000019"><a xlink:title=" ">
<path fill="none" stroke="#63b8ff" d="M672.43,-59.05C655.34,-49.08 635.57,-38.43 616.75,-30.38 601.62,-23.9 583.71,-18.62 570.33,-15.12"/>
<polygon fill="#63b8ff" stroke="#63b8ff" points="670.46,-61.96 680.85,-64.05 674.03,-55.94 670.46,-61.96"/>
</a>
</g>
</g>
<!-- Node4 -->
<g id="Node000004" class="node">
<title>Node4</title>
<g id="a_Node000004"><a xlink:href="classmqtt_1_1bridge_1_1lib_1_1BridgeStore.html#ab8ade196caaa4d233f8dc1625619ed9a" target="_top" xlink:title=" ">
<polygon fill="white" stroke="#666666" points="445.88,-299.12 286.62,-299.12 286.62,-265.62 445.88,-265.62 445.88,-299.12"/>
<text xml:space="preserve" text-anchor="start" x="294.62" y="-285.62" font-family="Helvetica,sans-Serif" font-size="10.00">mqtt::bridge::lib::</text>
<text xml:space="preserve" text-anchor="middle" x="366.25" y="-272.88" font-family="Helvetica,sans-Serif" font-size="10.00">BridgeStore::loadAndValidate</text>
</a>
</g>
</g>
<!-- Node3&#45;&gt;Node4 -->
<g id="edge3_Node000003_Node000004" class="edge">
<title>Node3&#45;&gt;Node4</title>
<g id="a_edge3_Node000003_Node000004"><a xlink:title=" ">
<path fill="none" stroke="#63b8ff" d="M484.86,-230.47C458.63,-242.04 429.1,-255.08 406.18,-265.19"/>
<polygon fill="#63b8ff" stroke="#63b8ff" points="485.98,-233.8 493.71,-226.56 483.15,-227.39 485.98,-233.8"/>
</a>
</g>
</g>
<!-- Node6 -->
<g id="Node000006" class="node">
<title>Node6</title>
<g id="a_Node000006"><a xlink:href="classmqtt_1_1lib_1_1JsonMappingReader.html#a77231994bd3ef854feb2db79dd71746b" target="_top" xlink:title=" ">
<polygon fill="white" stroke="#666666" points="446.25,-219.12 286.25,-219.12 286.25,-185.62 446.25,-185.62 446.25,-219.12"/>
<text xml:space="preserve" text-anchor="start" x="294.25" y="-205.62" font-family="Helvetica,sans-Serif" font-size="10.00">mqtt::lib::JsonMappingReader</text>
<text xml:space="preserve" text-anchor="middle" x="366.25" y="-192.88" font-family="Helvetica,sans-Serif" font-size="10.00">::readMappingFromFile</text>
</a>
</g>
</g>
<!-- Node3&#45;&gt;Node6 -->
<g id="edge5_Node000003_Node000006" class="edge">
<title>Node3&#45;&gt;Node6</title>
<g id="a_edge5_Node000003_Node000006"><a xlink:title=" ">
<path fill="none" stroke="#63b8ff" d="M470.41,-202.38C462.56,-202.38 454.59,-202.38 446.73,-202.38"/>
<polygon fill="#63b8ff" stroke="#63b8ff" points="470.27,-205.88 480.27,-202.38 470.27,-198.88 470.27,-205.88"/>
</a>
</g>
</g>
<!-- Node10 -->
<g id="Node000010" class="node">
<title>Node10</title>
<g id="a_Node000010"><a xlink:href="issue-293_8cpp.html#a8ee39622edc153e58dfa5711984ac185" target="_top" xlink:title=" ">
<polygon fill="white" stroke="#666666" points="406.88,-166.75 325.62,-166.75 325.62,-146 406.88,-146 406.88,-166.75"/>
<text xml:space="preserve" text-anchor="middle" x="366.25" y="-153.25" font-family="Helvetica,sans-Serif" font-size="10.00">should_throw</text>
</a>
</g>
</g>
<!-- Node3&#45;&gt;Node10 -->
<g id="edge9_Node000003_Node000010" class="edge">
<title>Node3&#45;&gt;Node10</title>
<g id="a_edge9_Node000003_Node000010"><a xlink:title=" ">
<path fill="none" stroke="#63b8ff" d="M471.01,-182.66C462.65,-180.54 454.27,-178.41 446.25,-176.38 433.5,-173.14 419.58,-169.61 407.04,-166.44"/>
<polygon fill="#63b8ff" stroke="#63b8ff" points="469.93,-186 480.48,-185.07 471.65,-179.21 469.93,-186"/>
</a>
</g>
</g>
<!-- Node12 -->
<g id="Node000012" class="node">
<title>Node12</title>
<g id="a_Node000012"><a xlink:href="classnlohmann_1_1json__patch.html#ac7aea9496e07beb821fb9e5423fb76f5" target="_top" xlink:title=" ">
<polygon fill="white" stroke="#666666" points="427.88,-380.12 304.62,-380.12 304.62,-346.62 427.88,-346.62 427.88,-380.12"/>
<text xml:space="preserve" text-anchor="start" x="312.62" y="-366.62" font-family="Helvetica,sans-Serif" font-size="10.00">nlohmann::json_patch</text>
<text xml:space="preserve" text-anchor="middle" x="366.25" y="-353.88" font-family="Helvetica,sans-Serif" font-size="10.00">::validateJsonPatch</text>
</a>
</g>
</g>
<!-- Node3&#45;&gt;Node12 -->
<g id="edge11_Node000003_Node000012" class="edge">
<title>Node3&#45;&gt;Node12</title>
<g id="a_edge11_Node000003_Node000012"><a xlink:title=" ">
<path fill="none" stroke="#63b8ff" d="M520.73,-234.3C500.96,-256.22 473.22,-285.39 446.25,-308.38 429.97,-322.25 410.22,-336 394.54,-346.28"/>
<polygon fill="#63b8ff" stroke="#63b8ff" points="523.1,-236.91 527.15,-227.12 517.88,-232.24 523.1,-236.91"/>
</a>
</g>
</g>
<!-- Node5 -->
<g id="Node000005" class="node">
<title>Node5</title>
<g id="a_Node000005"><a xlink:href="mqttbridge_8cpp.html#a0ddf1224851353fc92bfbff6f499fa97" target="_top" xlink:title=" ">
<polygon fill="white" stroke="#666666" points="183.88,-328.75 143.12,-328.75 143.12,-308 183.88,-308 183.88,-328.75"/>
<text xml:space="preserve" text-anchor="middle" x="163.5" y="-315.25" font-family="Helvetica,sans-Serif" font-size="10.00">main</text>
</a>
</g>
</g>
<!-- Node4&#45;&gt;Node5 -->
<g id="edge4_Node000004_Node000005" class="edge">
<title>Node4&#45;&gt;Node5</title>
<g id="a_edge4_Node000004_Node000005"><a xlink:title=" ">
<path fill="none" stroke="#63b8ff" d="M275.24,-298.52C241.24,-304.61 205.64,-311 184.26,-314.83"/>
<polygon fill="#63b8ff" stroke="#63b8ff" points="275.48,-302.03 284.71,-296.82 274.25,-295.14 275.48,-302.03"/>
</a>
</g>
</g>
<!-- Node7 -->
<g id="Node000007" class="node">
<title>Node7</title>
<g id="a_Node000007"><a xlink:href="classmqtt_1_1mqttbroker_1_1SocketContextFactory.html#a84a300c6ea4e8fc1e0370f5460a64e9a" target="_top" xlink:title=" ">
<polygon fill="white" stroke="#666666" points="232.25,-161.12 94.75,-161.12 94.75,-127.62 232.25,-127.62 232.25,-161.12"/>
<text xml:space="preserve" text-anchor="start" x="102.75" y="-147.62" font-family="Helvetica,sans-Serif" font-size="10.00">mqtt::mqttbroker::Socket</text>
<text xml:space="preserve" text-anchor="middle" x="163.5" y="-134.88" font-family="Helvetica,sans-Serif" font-size="10.00">ContextFactory::create</text>
</a>
</g>
</g>
<!-- Node6&#45;&gt;Node7 -->
<g id="edge6_Node000006_Node000007" class="edge">
<title>Node6&#45;&gt;Node7</title>
<g id="a_edge6_Node000006_Node000007"><a xlink:title=" ">
<path fill="none" stroke="#63b8ff" d="M294.77,-182.01C271.64,-175.33 246.19,-167.98 223.96,-161.55"/>
<polygon fill="#63b8ff" stroke="#63b8ff" points="293.53,-185.3 304.11,-184.71 295.47,-178.57 293.53,-185.3"/>
</a>
</g>
</g>
<!-- Node8 -->
<g id="Node000008" class="node">
<title>Node8</title>
<g id="a_Node000008"><a xlink:href="classmqtt_1_1mqttintegrator_1_1SocketContextFactory.html#a0667981d3feaa8d66a6ba2ecb81dc900" target="_top" xlink:title=" ">
<polygon fill="white" stroke="#666666" points="227.75,-289.5 99.25,-289.5 99.25,-243.25 227.75,-243.25 227.75,-289.5"/>
<text xml:space="preserve" text-anchor="start" x="107.25" y="-276" font-family="Helvetica,sans-Serif" font-size="10.00">mqtt::mqttintegrator</text>
<text xml:space="preserve" text-anchor="start" x="107.25" y="-263.25" font-family="Helvetica,sans-Serif" font-size="10.00">::SocketContextFactory</text>
<text xml:space="preserve" text-anchor="middle" x="163.5" y="-250.5" font-family="Helvetica,sans-Serif" font-size="10.00">::create</text>
</a>
</g>
</g>
<!-- Node6&#45;&gt;Node8 -->
<g id="edge7_Node000006_Node000008" class="edge">
<title>Node6&#45;&gt;Node8</title>
<g id="a_edge7_Node000006_Node000008"><a xlink:title=" ">
<path fill="none" stroke="#63b8ff" d="M300.4,-223.05C277.17,-230.46 251.03,-238.79 227.92,-246.16"/>
<polygon fill="#63b8ff" stroke="#63b8ff" points="301.28,-226.44 309.75,-220.07 299.16,-219.77 301.28,-226.44"/>
</a>
</g>
</g>
<!-- Node9 -->
<g id="Node000009" class="node">
<title>Node9</title>
<g id="a_Node000009"><a xlink:href="classmqtt_1_1mqttintegrator_1_1websocket_1_1SubProtocolFactory.html#ae88373a69cdee4d08cf58c4c618041d6" target="_top" xlink:title=" ">
<polygon fill="white" stroke="#666666" points="250.25,-225.5 76.75,-225.5 76.75,-179.25 250.25,-179.25 250.25,-225.5"/>
<text xml:space="preserve" text-anchor="start" x="84.75" y="-212" font-family="Helvetica,sans-Serif" font-size="10.00">mqtt::mqttintegrator</text>
<text xml:space="preserve" text-anchor="start" x="84.75" y="-199.25" font-family="Helvetica,sans-Serif" font-size="10.00">::websocket::SubProtocolFactory</text>
<text xml:space="preserve" text-anchor="middle" x="163.5" y="-186.5" font-family="Helvetica,sans-Serif" font-size="10.00">::create</text>
</a>
</g>
</g>
<!-- Node6&#45;&gt;Node9 -->
<g id="edge8_Node000006_Node000009" class="edge">
<title>Node6&#45;&gt;Node9</title>
<g id="a_edge8_Node000006_Node000009"><a xlink:title=" ">
<path fill="none" stroke="#63b8ff" d="M274.65,-202.38C266.62,-202.38 258.52,-202.38 250.54,-202.38"/>
<polygon fill="#63b8ff" stroke="#63b8ff" points="274.39,-205.88 284.39,-202.38 274.39,-198.88 274.39,-205.88"/>
</a>
</g>
</g>
<!-- Node11 -->
<g id="Node000011" class="node">
<title>Node11</title>
<g id="a_Node000011"><a xlink:href="issue-293_8cpp.html#a840291bc02cba5474a4cb46a9b9566fe" target="_top" xlink:title=" ">
<polygon fill="white" stroke="#666666" points="183.88,-109.75 143.12,-109.75 143.12,-89 183.88,-89 183.88,-109.75"/>
<text xml:space="preserve" text-anchor="middle" x="163.5" y="-96.25" font-family="Helvetica,sans-Serif" font-size="10.00">main</text>
</a>
</g>
</g>
<!-- Node10&#45;&gt;Node11 -->
<g id="edge10_Node000010_Node000011" class="edge">
<title>Node10&#45;&gt;Node11</title>
<g id="a_edge10_Node000010_Node000011"><a xlink:title=" ">
<path fill="none" stroke="#63b8ff" d="M314.34,-142.46C304.94,-139.64 295.25,-136.55 286.25,-133.38 269.9,-127.61 266.78,-123.6 250.25,-118.38 228.01,-111.34 201.72,-105.93 184.17,-102.71"/>
<polygon fill="#63b8ff" stroke="#63b8ff" points="313.16,-145.76 323.74,-145.22 315.13,-139.04 313.16,-145.76"/>
</a>
</g>
</g>
<!-- Node13 -->
<g id="Node000013" class="node">
<title>Node13</title>
<g id="a_Node000013"><a xlink:href="classnlohmann_1_1json__patch.html#ae61d410c3afe7cf9b7a9589819e8f94a" target="_top" xlink:title=" ">
<polygon fill="white" stroke="#666666" points="225.12,-380.12 101.88,-380.12 101.88,-346.62 225.12,-346.62 225.12,-380.12"/>
<text xml:space="preserve" text-anchor="start" x="109.88" y="-366.62" font-family="Helvetica,sans-Serif" font-size="10.00">nlohmann::json_patch</text>
<text xml:space="preserve" text-anchor="middle" x="163.5" y="-353.88" font-family="Helvetica,sans-Serif" font-size="10.00">::json_patch</text>
</a>
</g>
</g>
<!-- Node12&#45;&gt;Node13 -->
<g id="edge12_Node000012_Node000013" class="edge">
<title>Node12&#45;&gt;Node13</title>
<g id="a_edge12_Node000012_Node000013"><a xlink:title=" ">
<path fill="none" stroke="#63b8ff" d="M292.88,-363.38C270.83,-363.38 246.83,-363.38 225.6,-363.38"/>
<polygon fill="#63b8ff" stroke="#63b8ff" points="292.69,-366.88 302.69,-363.38 292.69,-359.88 292.69,-366.88"/>
</a>
</g>
</g>
<!-- Node14 -->
<g id="Node000014" class="node">
<title>Node14</title>
<g id="a_Node000014"><a xlink:href="classnlohmann_1_1json__patch.html#a9ed4f8e610b70b973f9fd59696d5c10b" target="_top" xlink:title=" ">
<polygon fill="white" stroke="#666666" points="225.12,-432.12 101.88,-432.12 101.88,-398.62 225.12,-398.62 225.12,-432.12"/>
<text xml:space="preserve" text-anchor="start" x="109.88" y="-418.62" font-family="Helvetica,sans-Serif" font-size="10.00">nlohmann::json_patch</text>
<text xml:space="preserve" text-anchor="middle" x="163.5" y="-405.88" font-family="Helvetica,sans-Serif" font-size="10.00">::json_patch</text>
</a>
</g>
</g>
<!-- Node12&#45;&gt;Node14 -->
<g id="edge13_Node000012_Node000014" class="edge">
<title>Node12&#45;&gt;Node14</title>
<g id="a_edge13_Node000012_Node000014"><a xlink:title=" ">
<path fill="none" stroke="#63b8ff" d="M293.18,-382.04C271.05,-387.78 246.93,-394.02 225.6,-399.55"/>
<polygon fill="#63b8ff" stroke="#63b8ff" points="293.93,-385.46 302.74,-379.57 292.18,-378.69 293.93,-385.46"/>
</a>
</g>
</g>
<!-- Node15 -->
<g id="Node000015" class="node">
<title>Node15</title>
<g id="a_Node000015"><a xlink:href="test_2json-patch_8cpp.html#a840291bc02cba5474a4cb46a9b9566fe" target="_top" xlink:title=" ">
<polygon fill="white" stroke="#666666" points="40.75,-425.75 0,-425.75 0,-405 40.75,-405 40.75,-425.75"/>
<text xml:space="preserve" text-anchor="middle" x="20.38" y="-412.25" font-family="Helvetica,sans-Serif" font-size="10.00">main</text>
</a>
</g>
</g>
<!-- Node14&#45;&gt;Node15 -->
<g id="edge14_Node000014_Node000015" class="edge">
<title>Node14&#45;&gt;Node15</title>
<g id="a_edge14_Node000014_Node000015"><a xlink:title=" ">
<path fill="none" stroke="#63b8ff" d="M90.14,-415.38C71.99,-415.38 53.99,-415.38 40.96,-415.38"/>
<polygon fill="#63b8ff" stroke="#63b8ff" points="89.91,-418.88 99.91,-415.38 89.91,-411.88 89.91,-418.88"/>
</a>
</g>
</g>
<!-- Node16&#45;&gt;Node11 -->
<g id="edge16_Node000016_Node000011" class="edge">
<title>Node16&#45;&gt;Node11</title>
<g id="a_edge16_Node000016_Node000011"><a xlink:title=" ">
<path fill="none" stroke="#63b8ff" d="M287.26,-100.6C249.92,-100.23 208.23,-99.81 184.3,-99.57"/>
<polygon fill="#63b8ff" stroke="#63b8ff" points="287.13,-104.1 297.17,-100.7 287.2,-97.1 287.13,-104.1"/>
</a>
</g>
</g>
</g>
</svg>

<g id="navigator" transform="translate(0 0)" fill="#404254">
  <rect fill="#f2f5e9" fill-opacity="0.5" stroke="#606060" stroke-width=".5" x="0" y="0" width="60" height="60"/>
  <use id="zoomplus" xlink:href="#zoomPlus" x="17" y="9" onmousedown="handleZoom(evt,'in')"/>
  <use id="zoomminus" xlink:href="#zoomMin" x="42" y="9" onmousedown="handleZoom(evt,'out')"/>
  <use id="reset" xlink:href="#resetDef" x="30" y="36" onmousedown="handleReset()"/>
   <use id="arrowup" xlink:href="#arrowUp" x="0" y="0" onmousedown="handlePan(0,-1)"/>
  <use id="arrowright" xlink:href="#arrowRight" x="0" y="0" onmousedown="handlePan(1,0)"/>
  <use id="arrowdown" xlink:href="#arrowDown" x="0" y="0" onmousedown="handlePan(0,1)"/>
  <use id="arrowleft" xlink:href="#arrowLeft" x="0" y="0" onmousedown="handlePan(-1,0)"/>
</g>
<svg viewBox="0 0 15 15" width="100%" height="30px" preserveAspectRatio="xMaxYMin meet">
 <g id="arrow_out" transform="scale(0.3 0.3)">
  <a xlink:href="classnlohmann_1_1json__schema_1_1root__schema_a704eaa54aca1f78a311687562421829f_icgraph_org.svg" target="_base">
   <rect id="button" ry="5" rx="5" y="6" x="6" height="38" width="38"
        fill="#f2f5e9" fill-opacity="0.5" stroke="#606060" stroke-width="1.0"/>
   <path id="arrow"
     d="M 11.500037,31.436501 C 11.940474,20.09759 22.043105,11.32322 32.158766,21.979434 L 37.068811,17.246167 C 37.068811,17.246167 37.088388,32 37.088388,32 L 22.160133,31.978069 C 22.160133,31.978069 26.997745,27.140456 26.997745,27.140456 C 18.528582,18.264221 13.291696,25.230495 11.500037,31.436501 z"
     style="fill:#404040;"/>
  </a>
 </g>
</svg>

<style type='text/css'>
<![CDATA[
[data-mouse-over-selected='false'] { opacity: 0.7; }
[data-mouse-over-selected='true']  { opacity: 1.0; }
]]>
</style>
<script type="application/ecmascript"><![CDATA[
document.addEventListener('DOMContentLoaded', (event) => {
  highlightEdges();
  highlightAdjacentNodes();
});
]]></script>
</svg>
