<?xml version="1.0" encoding="UTF-8" standalone="no"?>
<!DOCTYPE svg PUBLIC "-//W3C//DTD SVG 1.1//EN"
 "http://www.w3.org/Graphics/SVG/1.1/DTD/svg11.dtd">
<!-- Generated by graphviz version 14.1.2 (0)
 -->
<!-- Title: json_validator Pages: 1 -->
<!--zoomable 654 -->

<svg id="main" version="1.1" xmlns="http://www.w3.org/2000/svg" xmlns:xlink="http://www.w3.org/1999/xlink" xml:space="preserve" onload="init(evt)">

<style type="text/css"><![CDATA[
.node, .edge {opacity: 0.7;}
.node.selected, .edge.selected {opacity: 1;}
.edge:hover path { stroke: red; }
.edge:hover polygon { stroke: red; fill: red; }
]]></style>

<defs>
  <circle id="rim" cx="0" cy="0" r="7"/>
  <circle id="rim2" cx="0" cy="0" r="3.5"/>
  <g id="zoomPlus">
    <use xlink:href="#rim" fill="#404040"><set attributeName="fill" to="#808080" begin="zoomplus.mouseover" end="zoomplus.mouseout"/></use>
    <path d="M-4,0h8M0,-4v8" fill="none" stroke="white" stroke-width="1.5" pointer-events="none"/>
  </g>
  <g id="zoomMin">
    <use xlink:href="#rim" fill="#404040"><set attributeName="fill" to="#808080" begin="zoomminus.mouseover" end="zoomminus.mouseout"/></use>
    <path d="M-4,0h8" fill="none" stroke="white" stroke-width="1.5" pointer-events="none"/>
  </g>
  <g id="arrowUp" transform="translate(30 24)">
    <use xlink:href="#rim"/>
    <path pointer-events="none" fill="none" stroke="white" stroke-width="1.5" d="M0,-3.0v7 M-2.5,-0.5L0,-3.0L2.5,-0.5"/>
  </g>
  <g id="arrowRight" transform="rotate(90) translate(36 -43)">
    <use xlink:href="#rim"/>
    <path pointer-events="none" fill="none" stroke="white" stroke-width="1.5" d="M0,-3.0v7 M-2.5,-0.5L0,-3.0L2.5,-0.5"/>
  </g>
  <g id="arrowDown" transform="rotate(180) translate(-30 -48)">
    <use xlink:href="#rim"/>
    <path pointer-events="none" fill="none" stroke="white" stroke-width="1.5" d="M0,-3.0v7 M-2.5,-0.5L0,-3.0L2.5,-0.5"/>
  </g>
  <g id="arrowLeft" transform="rotate(270) translate(-36 17)">
    <use xlink:href="#rim"/>
    <path pointer-events="none" fill="none" stroke="white" stroke-width="1.5" d="M0,-3.0v7 M-2.5,-0.5L0,-3.0L2.5,-0.5"/>
  </g>
  <g id="resetDef">
    <use xlink:href="#rim2" fill="#404040"><set attributeName="fill" to="#808080" begin="reset.mouseover" end="reset.mouseout"/></use>
  </g>
</defs>
<script type="application/ecmascript">
var viewWidth = 515;
var viewHeight = 654;
var sectionId = 'dynsection-0';
</script>
<script type="application/ecmascript" xlink:href="svg.min.js"/>
<svg id="graph" class="graph">
<g id="viewport">
<title>json_validator</title>
<!-- Node1 -->
<g id="Node000001" class="node">
<title>Node1</title>
<g id="a_Node000001"><a xlink:title=" ">
<polygon fill="#999999" stroke="none" points="117.5,-20.75 40.5,-20.75 40.5,0 117.5,0 117.5,-20.75"/>
<text xml:space="preserve" text-anchor="start" x="44.5" y="-7.25" font-family="Helvetica,sans-Serif" font-size="10.00">json_validator</text>
<polygon fill="none" stroke="#666666" points="40.5,0 40.5,-20.75 117.5,-20.75 117.5,0 40.5,0"/>
</a>
</g>
</g>
<!-- Node2 -->
<g id="Node000002" class="node">
<title>Node2</title>
<g id="a_Node000002"><a xlink:title=" ">
<polygon fill="white" stroke="none" points="158,-109 0,-109 0,-75.5 158,-75.5 158,-109"/>
<text xml:space="preserve" text-anchor="start" x="4" y="-95.5" font-family="Helvetica,sans-Serif" font-size="10.00">std::unique_ptr&lt; nlohmann</text>
<text xml:space="preserve" text-anchor="start" x="4" y="-82.75" font-family="Helvetica,sans-Serif" font-size="10.00">::json_schema::root_schema &gt;</text>
<polygon fill="none" stroke="#666666" points="0,-75.5 0,-109 158,-109 158,-75.5 0,-75.5"/>
</a>
</g>
</g>
<!-- Node2&#45;&gt;Node1 -->
<g id="edge1_Node000001_Node000002" class="edge">
<title>Node2&#45;&gt;Node1</title>
<g id="a_edge1_Node000001_Node000002"><a xlink:title=" ">
<path fill="none" stroke="#63b8ff" d="M79,-75.85C79,-63.86 79,-47.07 79,-33.62"/>
<polygon fill="none" stroke="#63b8ff" points="79,-33.63 75,-27.63 79,-21.63 83,-27.63 79,-33.63"/>
</a>
</g>
<text xml:space="preserve" text-anchor="start" x="82" y="-45" font-family="Helvetica,sans-Serif" font-size="10.00" fill="grey">&#45;root_</text>
</g>
<!-- Node3 -->
<g id="Node000003" class="node">
<title>Node3</title>
<g id="a_Node000003"><a xlink:href="classnlohmann_1_1json__schema_1_1root__schema.html" target="_top" xlink:title=" ">
<polygon fill="white" stroke="none" points="142.25,-197.25 15.75,-197.25 15.75,-163.75 142.25,-163.75 142.25,-197.25"/>
<text xml:space="preserve" text-anchor="start" x="19.75" y="-183.75" font-family="Helvetica,sans-Serif" font-size="10.00">nlohmann::json_schema</text>
<text xml:space="preserve" text-anchor="start" x="44.5" y="-171" font-family="Helvetica,sans-Serif" font-size="10.00">::root_schema</text>
<polygon fill="none" stroke="#666666" points="15.75,-163.75 15.75,-197.25 142.25,-197.25 142.25,-163.75 15.75,-163.75"/>
</a>
</g>
</g>
<!-- Node3&#45;&gt;Node2 -->
<g id="edge2_Node000002_Node000003" class="edge">
<title>Node3&#45;&gt;Node2</title>
<g id="a_edge2_Node000002_Node000003"><a xlink:title=" ">
<path fill="none" stroke="#63b8ff" d="M79,-164.08C79,-152.38 79,-135.96 79,-121.87"/>
<polygon fill="none" stroke="#63b8ff" points="79,-121.73 75,-115.73 79,-109.73 83,-115.73 79,-121.73"/>
</a>
</g>
<text xml:space="preserve" text-anchor="start" x="82" y="-133.25" font-family="Helvetica,sans-Serif" font-size="10.00" fill="grey">+ptr</text>
</g>
<!-- Node4 -->
<g id="Node000004" class="node">
<title>Node4</title>
<g id="a_Node000004"><a xlink:title=" ">
<polygon fill="white" stroke="none" points="150.75,-569.38 9.25,-569.38 9.25,-548.62 150.75,-548.62 150.75,-569.38"/>
<text xml:space="preserve" text-anchor="start" x="13.25" y="-555.88" font-family="Helvetica,sans-Serif" font-size="10.00">std::shared_ptr&lt; schema &gt;</text>
<polygon fill="none" stroke="#666666" points="9.25,-548.62 9.25,-569.38 150.75,-569.38 150.75,-548.62 9.25,-548.62"/>
</a>
</g>
</g>
<!-- Node4&#45;&gt;Node3 -->
<g id="edge3_Node000003_Node000004" class="edge">
<title>Node4&#45;&gt;Node3</title>
<g id="a_edge3_Node000003_Node000004"><a xlink:title=" ">
<path fill="none" stroke="#63b8ff" d="M77.12,-548.64C72.27,-532.04 63,-496.28 63,-465.38 63,-465.38 63,-465.38 63,-274.12 63,-252.28 67.38,-227.95 71.55,-209.71"/>
<polygon fill="none" stroke="#63b8ff" points="71.57,-209.63 69.11,-202.85 74.41,-197.97 76.88,-204.74 71.57,-209.63"/>
</a>
</g>
<text xml:space="preserve" text-anchor="start" x="66" y="-366.62" font-family="Helvetica,sans-Serif" font-size="10.00" fill="grey">&#45;root_</text>
</g>
<!-- Node9 -->
<g id="Node000009" class="node">
<title>Node9</title>
<g id="a_Node000009"><a xlink:title=" ">
<polygon fill="white" stroke="none" points="354.88,-481.12 199.12,-481.12 199.12,-447.62 354.88,-447.62 354.88,-481.12"/>
<text xml:space="preserve" text-anchor="start" x="203.12" y="-467.62" font-family="Helvetica,sans-Serif" font-size="10.00">std::map&lt; std::string,</text>
<text xml:space="preserve" text-anchor="start" x="203.12" y="-454.88" font-family="Helvetica,sans-Serif" font-size="10.00"> std::shared_ptr&lt; schema &gt; &gt;</text>
<polygon fill="none" stroke="#666666" points="199.12,-447.62 199.12,-481.12 354.88,-481.12 354.88,-447.62 199.12,-447.62"/>
</a>
</g>
</g>
<!-- Node4&#45;&gt;Node9 -->
<g id="edge10_Node000009_Node000004" class="edge">
<title>Node4&#45;&gt;Node9</title>
<g id="a_edge10_Node000009_Node000004"><a xlink:title=" ">
<path fill="none" stroke="#63b8ff" d="M99.61,-548.78C130.26,-534.37 190.31,-506.13 232.01,-486.53"/>
<polygon fill="none" stroke="#63b8ff" points="232.09,-486.49 235.82,-480.32 242.95,-481.38 239.23,-487.56 232.09,-486.49"/>
</a>
</g>
<text xml:space="preserve" text-anchor="start" x="193.29" y="-511.75" font-family="Helvetica,sans-Serif" font-size="10.00" fill="grey">+elements</text>
</g>
<!-- Node5 -->
<g id="Node000005" class="node">
<title>Node5</title>
<g id="a_Node000005"><a xlink:title=" ">
<polygon fill="white" stroke="none" points="247.75,-298.25 94.25,-298.25 94.25,-252 247.75,-252 247.75,-298.25"/>
<text xml:space="preserve" text-anchor="start" x="98.25" y="-284.75" font-family="Helvetica,sans-Serif" font-size="10.00">std::map&lt; std::string,</text>
<text xml:space="preserve" text-anchor="start" x="98.25" y="-272" font-family="Helvetica,sans-Serif" font-size="10.00"> nlohmann::json_schema</text>
<text xml:space="preserve" text-anchor="start" x="98.25" y="-259.25" font-family="Helvetica,sans-Serif" font-size="10.00">::root_schema::schema_file &gt;</text>
<polygon fill="none" stroke="#666666" points="94.25,-252 94.25,-298.25 247.75,-298.25 247.75,-252 94.25,-252"/>
</a>
</g>
</g>
<!-- Node5&#45;&gt;Node3 -->
<g id="edge4_Node000003_Node000005" class="edge">
<title>Node5&#45;&gt;Node3</title>
<g id="a_edge4_Node000003_Node000005"><a xlink:title=" ">
<path fill="none" stroke="#63b8ff" d="M149.2,-252.17C135.55,-238.44 117.94,-220.71 103.77,-206.44"/>
<polygon fill="none" stroke="#63b8ff" points="103.7,-206.36 96.63,-204.92 95.24,-197.85 102.3,-199.29 103.7,-206.36"/>
</a>
</g>
<text xml:space="preserve" text-anchor="start" x="133.51" y="-221.5" font-family="Helvetica,sans-Serif" font-size="10.00" fill="grey">&#45;files_</text>
</g>
<!-- Node6 -->
<g id="Node000006" class="node">
<title>Node6</title>
<g id="a_Node000006"><a xlink:title=" ">
<polygon fill="white" stroke="none" points="305.38,-569.38 248.62,-569.38 248.62,-548.62 305.38,-548.62 305.38,-569.38"/>
<text xml:space="preserve" text-anchor="start" x="252.62" y="-555.88" font-family="Helvetica,sans-Serif" font-size="10.00">std::string</text>
<polygon fill="none" stroke="#666666" points="248.62,-548.62 248.62,-569.38 305.38,-569.38 305.38,-548.62 248.62,-548.62"/>
</a>
</g>
</g>
<!-- Node6&#45;&gt;Node5 -->
<g id="edge5_Node000005_Node000006" class="edge">
<title>Node6&#45;&gt;Node5</title>
<g id="a_edge5_Node000005_Node000006"><a xlink:title=" ">
<path fill="none" stroke="#63b8ff" d="M258.3,-548.75C237.64,-537.42 205.27,-516.15 190,-487.5 160.07,-431.34 161.88,-354.74 166.22,-310.85"/>
<polygon fill="none" stroke="#63b8ff" points="166.22,-310.9 162.91,-304.49 167.55,-298.97 170.86,-305.38 166.22,-310.9"/>
</a>
</g>
<text xml:space="preserve" text-anchor="start" x="171.87" y="-410.75" font-family="Helvetica,sans-Serif" font-size="10.00" fill="grey">+keys</text>
</g>
<!-- Node6&#45;&gt;Node9 -->
<g id="edge9_Node000009_Node000006" class="edge">
<title>Node6&#45;&gt;Node9</title>
<g id="a_edge9_Node000009_Node000006"><a xlink:title=" ">
<path fill="none" stroke="#63b8ff" d="M277,-548.78C277,-536.1 277,-512.72 277,-493.93"/>
<polygon fill="none" stroke="#63b8ff" points="277,-493.9 273,-487.9 277,-481.9 281,-487.9 277,-493.9"/>
</a>
</g>
<text xml:space="preserve" text-anchor="start" x="280" y="-511.75" font-family="Helvetica,sans-Serif" font-size="10.00" fill="grey">+keys</text>
</g>
<!-- Node10 -->
<g id="Node000010" class="node">
<title>Node10</title>
<g id="a_Node000010"><a xlink:title=" ">
<polygon fill="white" stroke="none" points="506.62,-487.5 373.38,-487.5 373.38,-441.25 506.62,-441.25 506.62,-487.5"/>
<text xml:space="preserve" text-anchor="start" x="377.38" y="-474" font-family="Helvetica,sans-Serif" font-size="10.00">std::map&lt; std::string,</text>
<text xml:space="preserve" text-anchor="start" x="377.38" y="-461.25" font-family="Helvetica,sans-Serif" font-size="10.00"> std::shared_ptr&lt; schema</text>
<text xml:space="preserve" text-anchor="start" x="419.38" y="-448.5" font-family="Helvetica,sans-Serif" font-size="10.00">_ref &gt; &gt;</text>
<polygon fill="none" stroke="#666666" points="373.38,-441.25 373.38,-487.5 506.62,-487.5 506.62,-441.25 373.38,-441.25"/>
</a>
</g>
</g>
<!-- Node6&#45;&gt;Node10 -->
<g id="edge12_Node000010_Node000006" class="edge">
<title>Node6&#45;&gt;Node10</title>
<g id="a_edge12_Node000010_Node000006"><a xlink:title=" ">
<path fill="none" stroke="#63b8ff" d="M293.22,-548.78C315.56,-536.09 356.75,-512.68 389.83,-493.89"/>
<polygon fill="none" stroke="#63b8ff" points="389.93,-493.83 393.17,-487.39 400.36,-487.9 397.12,-494.34 389.93,-493.83"/>
</a>
</g>
<text xml:space="preserve" text-anchor="start" x="371.26" y="-511.75" font-family="Helvetica,sans-Serif" font-size="10.00" fill="grey">+keys</text>
</g>
<!-- Node7 -->
<g id="Node000007" class="node">
<title>Node7</title>
<g id="a_Node000007"><a xlink:title=" ">
<polygon fill="white" stroke="none" points="324.88,-646.25 229.12,-646.25 229.12,-612.75 324.88,-612.75 324.88,-646.25"/>
<text xml:space="preserve" text-anchor="start" x="233.12" y="-632.75" font-family="Helvetica,sans-Serif" font-size="10.00">std::basic_string&lt;</text>
<text xml:space="preserve" text-anchor="start" x="258.62" y="-620" font-family="Helvetica,sans-Serif" font-size="10.00"> Char &gt;</text>
<polygon fill="none" stroke="#666666" points="229.12,-612.75 229.12,-646.25 324.88,-646.25 324.88,-612.75 229.12,-612.75"/>
</a>
</g>
</g>
<!-- Node7&#45;&gt;Node6 -->
<g id="edge6_Node000006_Node000007" class="edge">
<title>Node7&#45;&gt;Node6</title>
<g id="a_edge6_Node000006_Node000007"><a xlink:title=" ">
<path fill="none" stroke="#63b8ff" d="M277,-601.7C277,-590.28 277,-577.69 277,-569.37"/>
<polygon fill="none" stroke="#63b8ff" points="273.5,-601.44 277,-611.44 280.5,-601.44 273.5,-601.44"/>
</a>
</g>
</g>
<!-- Node8 -->
<g id="Node000008" class="node">
<title>Node8</title>
<g id="a_Node000008"><a xlink:href="structnlohmann_1_1json__schema_1_1root__schema_1_1schema__file.html" target="_top" xlink:title=" ">
<polygon fill="white" stroke="none" points="348.12,-386.5 205.88,-386.5 205.88,-353 348.12,-353 348.12,-386.5"/>
<text xml:space="preserve" text-anchor="start" x="209.88" y="-373" font-family="Helvetica,sans-Serif" font-size="10.00">nlohmann::json_schema</text>
<text xml:space="preserve" text-anchor="start" x="209.88" y="-360.25" font-family="Helvetica,sans-Serif" font-size="10.00">::root_schema::schema_file</text>
<polygon fill="none" stroke="#666666" points="205.88,-353 205.88,-386.5 348.12,-386.5 348.12,-353 205.88,-353"/>
</a>
</g>
</g>
<!-- Node8&#45;&gt;Node5 -->
<g id="edge7_Node000005_Node000008" class="edge">
<title>Node8&#45;&gt;Node5</title>
<g id="a_edge7_Node000005_Node000008"><a xlink:title=" ">
<path fill="none" stroke="#63b8ff" d="M259.02,-353.04C244.47,-340.32 223.54,-322.03 205.74,-306.48"/>
<polygon fill="none" stroke="#63b8ff" points="205.95,-306.66 198.8,-305.73 196.91,-298.77 204.06,-299.7 205.95,-306.66"/>
</a>
</g>
<text xml:space="preserve" text-anchor="start" x="239.61" y="-322.5" font-family="Helvetica,sans-Serif" font-size="10.00" fill="grey">+elements</text>
</g>
<!-- Node9&#45;&gt;Node8 -->
<g id="edge8_Node000008_Node000009" class="edge">
<title>Node9&#45;&gt;Node8</title>
<g id="a_edge8_Node000008_Node000009"><a xlink:title=" ">
<path fill="none" stroke="#63b8ff" d="M277,-447.66C277,-434.41 277,-415.1 277,-399.15"/>
<polygon fill="none" stroke="#63b8ff" points="277,-399.13 273,-393.13 277,-387.13 281,-393.13 277,-399.13"/>
</a>
</g>
<text xml:space="preserve" text-anchor="start" x="280" y="-410.75" font-family="Helvetica,sans-Serif" font-size="10.00" fill="grey">+schemas</text>
</g>
<!-- Node10&#45;&gt;Node8 -->
<g id="edge11_Node000008_Node000010" class="edge">
<title>Node10&#45;&gt;Node8</title>
<g id="a_edge11_Node000008_Node000010"><a xlink:title=" ">
<path fill="none" stroke="#63b8ff" d="M402.74,-441.3C383.74,-430.14 360.22,-416.46 339,-404.5 332.08,-400.6 324.68,-396.51 317.5,-392.58"/>
<polygon fill="none" stroke="#63b8ff" points="317.44,-392.54 310.26,-393.19 306.91,-386.8 314.09,-386.16 317.44,-392.54"/>
</a>
</g>
<text xml:space="preserve" text-anchor="start" x="372.69" y="-410.75" font-family="Helvetica,sans-Serif" font-size="10.00" fill="grey">+unresolved</text>
</g>
<!-- Node11 -->
<g id="Node000011" class="node">
<title>Node11</title>
<g id="a_Node000011"><a xlink:title=" ">
<polygon fill="white" stroke="none" points="505.12,-575.75 374.88,-575.75 374.88,-542.25 505.12,-542.25 505.12,-575.75"/>
<text xml:space="preserve" text-anchor="start" x="378.88" y="-562.25" font-family="Helvetica,sans-Serif" font-size="10.00">std::shared_ptr&lt; schema</text>
<text xml:space="preserve" text-anchor="start" x="425" y="-549.5" font-family="Helvetica,sans-Serif" font-size="10.00">_ref &gt;</text>
<polygon fill="none" stroke="#666666" points="374.88,-542.25 374.88,-575.75 505.12,-575.75 505.12,-542.25 374.88,-542.25"/>
</a>
</g>
</g>
<!-- Node11&#45;&gt;Node10 -->
<g id="edge13_Node000010_Node000011" class="edge">
<title>Node11&#45;&gt;Node10</title>
<g id="a_edge13_Node000010_Node000011"><a xlink:title=" ">
<path fill="none" stroke="#63b8ff" d="M440,-542.29C440,-530.75 440,-514.62 440,-500.11"/>
<polygon fill="none" stroke="#63b8ff" points="440,-500.33 436,-494.33 440,-488.33 444,-494.33 440,-500.33"/>
</a>
</g>
<text xml:space="preserve" text-anchor="start" x="443" y="-511.75" font-family="Helvetica,sans-Serif" font-size="10.00" fill="grey">+elements</text>
</g>
</g>
</svg>

<g id="navigator" transform="translate(0 0)" fill="#404254">
  <rect fill="#f2f5e9" fill-opacity="0.5" stroke="#606060" stroke-width=".5" x="0" y="0" width="60" height="60"/>
  <use id="zoomplus" xlink:href="#zoomPlus" x="17" y="9" onmousedown="handleZoom(evt,'in')"/>
  <use id="zoomminus" xlink:href="#zoomMin" x="42" y="9" onmousedown="handleZoom(evt,'out')"/>
  <use id="reset" xlink:href="#resetDef" x="30" y="36" onmousedown="handleReset()"/>
   <use id="arrowup" xlink:href="#arrowUp" x="0" y="0" onmousedown="handlePan(0,-1)"/>
  <use id="arrowright" xlink:href="#arrowRight" x="0" y="0" onmousedown="handlePan(1,0)"/>
  <use id="arrowdown" xlink:href="#arrowDown" x="0" y="0" onmousedown="handlePan(0,1)"/>
  <use id="arrowleft" xlink:href="#arrowLeft" x="0" y="0" onmousedown="handlePan(-1,0)"/>
</g>
<svg viewBox="0 0 15 15" width="100%" height="30px" preserveAspectRatio="xMaxYMin meet">
 <g id="arrow_out" transform="scale(0.3 0.3)">
  <a xlink:href="classjson__validator__coll__graph_org.svg" target="_base">
   <rect id="button" ry="5" rx="5" y="6" x="6" height="38" width="38"
        fill="#f2f5e9" fill-opacity="0.5" stroke="#606060" stroke-width="1.0"/>
   <path id="arrow"
     d="M 11.500037,31.436501 C 11.940474,20.09759 22.043105,11.32322 32.158766,21.979434 L 37.068811,17.246167 C 37.068811,17.246167 37.088388,32 37.088388,32 L 22.160133,31.978069 C 22.160133,31.978069 26.997745,27.140456 26.997745,27.140456 C 18.528582,18.264221 13.291696,25.230495 11.500037,31.436501 z"
     style="fill:#404040;"/>
  </a>
 </g>
</svg>

<style type='text/css'>
<![CDATA[
[data-mouse-over-selected='false'] { opacity: 0.7; }
[data-mouse-over-selected='true']  { opacity: 1.0; }
]]>
</style>
<script type="application/ecmascript"><![CDATA[
document.addEventListener('DOMContentLoaded', (event) => {
  highlightEdges();
  highlightAdjacentNodes();
});
]]></script>
</svg>
