<?xml version="1.0" encoding="UTF-8" standalone="no"?>
<!DOCTYPE svg PUBLIC "-//W3C//DTD SVG 1.1//EN"
 "http://www.w3.org/Graphics/SVG/1.1/DTD/svg11.dtd">
<!-- Generated by graphviz version 14.1.2 (0)
 -->
<!-- Title: mqtt::lib::ConfigApplication Pages: 1 -->
<!--zoomable 1168 -->

<svg id="main" version="1.1" xmlns="http://www.w3.org/2000/svg" xmlns:xlink="http://www.w3.org/1999/xlink" xml:space="preserve" onload="init(evt)">

<style type="text/css"><![CDATA[
.node, .edge {opacity: 0.7;}
.node.selected, .edge.selected {opacity: 1;}
.edge:hover path { stroke: red; }
.edge:hover polygon { stroke: red; fill: red; }
]]></style>

<defs>
  <circle id="rim" cx="0" cy="0" r="7"/>
  <circle id="rim2" cx="0" cy="0" r="3.5"/>
  <g id="zoomPlus">
    <use xlink:href="#rim" fill="#404040"><set attributeName="fill" to="#808080" begin="zoomplus.mouseover" end="zoomplus.mouseout"/></use>
    <path d="M-4,0h8M0,-4v8" fill="none" stroke="white" stroke-width="1.5" pointer-events="none"/>
  </g>
  <g id="zoomMin">
    <use xlink:href="#rim" fill="#404040"><set attributeName="fill" to="#808080" begin="zoomminus.mouseover" end="zoomminus.mouseout"/></use>
    <path d="M-4,0h8" fill="none" stroke="white" stroke-width="1.5" pointer-events="none"/>
  </g>
  <g id="arrowUp" transform="translate(30 24)">
    <use xlink:href="#rim"/>
    <path pointer-events="none" fill="none" stroke="white" stroke-width="1.5" d="M0,-3.0v7 M-2.5,-0.5L0,-3.0L2.5,-0.5"/>
  </g>
  <g id="arrowRight" transform="rotate(90) translate(36 -43)">
    <use xlink:href="#rim"/>
    <path pointer-events="none" fill="none" stroke="white" stroke-width="1.5" d="M0,-3.0v7 M-2.5,-0.5L0,-3.0L2.5,-0.5"/>
  </g>
  <g id="arrowDown" transform="rotate(180) translate(-30 -48)">
    <use xlink:href="#rim"/>
    <path pointer-events="none" fill="none" stroke="white" stroke-width="1.5" d="M0,-3.0v7 M-2.5,-0.5L0,-3.0L2.5,-0.5"/>
  </g>
  <g id="arrowLeft" transform="rotate(270) translate(-36 17)">
    <use xlink:href="#rim"/>
    <path pointer-events="none" fill="none" stroke="white" stroke-width="1.5" d="M0,-3.0v7 M-2.5,-0.5L0,-3.0L2.5,-0.5"/>
  </g>
  <g id="resetDef">
    <use xlink:href="#rim2" fill="#404040"><set attributeName="fill" to="#808080" begin="reset.mouseover" end="reset.mouseout"/></use>
  </g>
</defs>
<script type="application/ecmascript">
var viewWidth = 1164;
var viewHeight = 1168;
var sectionId = 'dynsection-1';
</script>
<script type="application/ecmascript" xlink:href="svg.min.js"/>
<svg id="graph" class="graph">
<g id="viewport">
<title>mqtt::lib::ConfigApplication</title>
<!-- Node1 -->
<g id="Node000001" class="node">
<title>Node1</title>
<g id="a_Node000001"><a xlink:title=" ">
<polygon fill="#999999" stroke="none" points="453.5,-20.75 312,-20.75 312,0 453.5,0 453.5,-20.75"/>
<text xml:space="preserve" text-anchor="start" x="316" y="-7.25" font-family="Helvetica,sans-Serif" font-size="10.00">mqtt::lib::ConfigApplication</text>
<polygon fill="none" stroke="#666666" points="312,0 312,-20.75 453.5,-20.75 453.5,0 312,0"/>
</a>
</g>
</g>
<!-- Node2 -->
<g id="Node000002" class="node">
<title>Node2</title>
<g id="a_Node000002"><a xlink:title=" ">
<polygon fill="white" stroke="none" points="418.38,-102.62 315.12,-102.62 315.12,-81.88 418.38,-81.88 418.38,-102.62"/>
<text xml:space="preserve" text-anchor="start" x="319.12" y="-89.12" font-family="Helvetica,sans-Serif" font-size="10.00">utils::SubCommand</text>
<polygon fill="none" stroke="#666666" points="315.12,-81.88 315.12,-102.62 418.38,-102.62 418.38,-81.88 315.12,-81.88"/>
</a>
</g>
</g>
<!-- Node2&#45;&gt;Node1 -->
<g id="edge1_Node000001_Node000002" class="edge">
<title>Node2&#45;&gt;Node1</title>
<g id="a_edge1_Node000001_Node000002"><a xlink:title=" ">
<path fill="none" stroke="#63b8ff" d="M370.8,-71.04C374.06,-54.76 378.49,-32.65 380.94,-20.43"/>
<polygon fill="none" stroke="#63b8ff" points="367.42,-70.11 368.88,-80.6 374.28,-71.49 367.42,-70.11"/>
</a>
</g>
</g>
<!-- Node3 -->
<g id="Node000003" class="node">
<title>Node3</title>
<g id="a_Node000003"><a xlink:title=" ">
<polygon fill="white" stroke="none" points="551.38,-109 436.12,-109 436.12,-75.5 551.38,-75.5 551.38,-109"/>
<text xml:space="preserve" text-anchor="start" x="440.12" y="-95.5" font-family="Helvetica,sans-Serif" font-size="10.00">std::shared_ptr&lt; mqtt</text>
<text xml:space="preserve" text-anchor="start" x="446.5" y="-82.75" font-family="Helvetica,sans-Serif" font-size="10.00">::lib::MqttMapper &gt;</text>
<polygon fill="none" stroke="#666666" points="436.12,-75.5 436.12,-109 551.38,-109 551.38,-75.5 436.12,-75.5"/>
</a>
</g>
</g>
<!-- Node3&#45;&gt;Node1 -->
<g id="edge2_Node000001_Node000003" class="edge">
<title>Node3&#45;&gt;Node1</title>
<g id="a_edge2_Node000001_Node000003"><a xlink:title=" ">
<path fill="none" stroke="#63b8ff" d="M472.08,-75.66C453.1,-62 425.57,-42.19 406.1,-28.18"/>
<polygon fill="none" stroke="#63b8ff" points="406.16,-28.22 398.96,-27.96 396.42,-21.21 403.63,-21.47 406.16,-28.22"/>
</a>
</g>
<text xml:space="preserve" text-anchor="start" x="447.9" y="-45" font-family="Helvetica,sans-Serif" font-size="10.00" fill="grey">#mqttMapper</text>
</g>
<!-- Node4 -->
<g id="Node000004" class="node">
<title>Node4</title>
<g id="a_Node000004"><a xlink:href="classmqtt_1_1lib_1_1MqttMapper.html" target="_top" xlink:title=" ">
<polygon fill="white" stroke="none" points="551,-184.5 436.5,-184.5 436.5,-163.75 551,-163.75 551,-184.5"/>
<text xml:space="preserve" text-anchor="start" x="440.5" y="-171" font-family="Helvetica,sans-Serif" font-size="10.00">mqtt::lib::MqttMapper</text>
<polygon fill="none" stroke="#666666" points="436.5,-163.75 436.5,-184.5 551,-184.5 551,-163.75 436.5,-163.75"/>
</a>
</g>
</g>
<!-- Node4&#45;&gt;Node3 -->
<g id="edge3_Node000003_Node000004" class="edge">
<title>Node4&#45;&gt;Node3</title>
<g id="a_edge3_Node000003_Node000004"><a xlink:title=" ">
<path fill="none" stroke="#63b8ff" d="M493.75,-163.96C493.75,-153.67 493.75,-136.46 493.75,-121.6"/>
<polygon fill="none" stroke="#63b8ff" points="493.75,-121.78 489.75,-115.78 493.75,-109.78 497.75,-115.78 493.75,-121.78"/>
</a>
</g>
<text xml:space="preserve" text-anchor="start" x="496.75" y="-133.25" font-family="Helvetica,sans-Serif" font-size="10.00" fill="grey">+ptr</text>
</g>
<!-- Node5 -->
<g id="Node000005" class="node">
<title>Node5</title>
<g id="a_Node000005"><a xlink:title=" ">
<polygon fill="white" stroke="none" points="356.62,-266.38 260.88,-266.38 260.88,-245.62 356.62,-245.62 356.62,-266.38"/>
<text xml:space="preserve" text-anchor="start" x="264.88" y="-252.88" font-family="Helvetica,sans-Serif" font-size="10.00">std::list&lt; void * &gt;</text>
<polygon fill="none" stroke="#666666" points="260.88,-245.62 260.88,-266.38 356.62,-266.38 356.62,-245.62 260.88,-245.62"/>
</a>
</g>
</g>
<!-- Node5&#45;&gt;Node4 -->
<g id="edge4_Node000004_Node000005" class="edge">
<title>Node5&#45;&gt;Node4</title>
<g id="a_edge4_Node000004_Node000005"><a xlink:title=" ">
<path fill="none" stroke="#63b8ff" d="M316.05,-246.02C326.23,-234.14 345.86,-213.43 367.25,-202.5 384.65,-193.61 404.82,-187.6 423.88,-183.54"/>
<polygon fill="none" stroke="#63b8ff" points="423.85,-183.55 428.98,-178.48 435.63,-181.26 430.51,-186.33 423.85,-183.55"/>
</a>
</g>
<text xml:space="preserve" text-anchor="start" x="370.25" y="-208.75" font-family="Helvetica,sans-Serif" font-size="10.00" fill="grey">&#45;pluginHandles</text>
</g>
<!-- Node6 -->
<g id="Node000006" class="node">
<title>Node6</title>
<g id="a_Node000006"><a xlink:href="classinja_1_1Environment.html" target="_top" xlink:title="Class for changing the configuration.">
<polygon fill="white" stroke="none" points="889.88,-442.88 795.62,-442.88 795.62,-422.12 889.88,-422.12 889.88,-442.88"/>
<text xml:space="preserve" text-anchor="start" x="799.62" y="-429.38" font-family="Helvetica,sans-Serif" font-size="10.00">inja::Environment</text>
<polygon fill="none" stroke="#666666" points="795.62,-422.12 795.62,-442.88 889.88,-442.88 889.88,-422.12 795.62,-422.12"/>
</a>
</g>
</g>
<!-- Node6&#45;&gt;Node4 -->
<g id="edge5_Node000004_Node000006" class="edge">
<title>Node6&#45;&gt;Node4</title>
<g id="a_edge5_Node000004_Node000006"><a xlink:title=" ">
<path fill="none" stroke="#63b8ff" d="M831.73,-422.16C793.3,-389.79 661.08,-280.15 542.75,-202.5 536.54,-198.42 529.68,-194.35 523.11,-190.63"/>
<polygon fill="none" stroke="#63b8ff" points="523.11,-190.63 515.92,-191.24 512.59,-184.85 519.78,-184.23 523.11,-190.63"/>
</a>
</g>
<text xml:space="preserve" text-anchor="start" x="694.01" y="-297" font-family="Helvetica,sans-Serif" font-size="10.00" fill="grey">&#45;injaEnvironment</text>
</g>
<!-- Node7 -->
<g id="Node000007" class="node">
<title>Node7</title>
<g id="a_Node000007"><a xlink:href="classinja_1_1FunctionStorage.html" target="_top" xlink:title="Class for builtin functions and user&#45;defined callbacks.">
<polygon fill="white" stroke="none" points="1024.12,-537.5 913.38,-537.5 913.38,-516.75 1024.12,-516.75 1024.12,-537.5"/>
<text xml:space="preserve" text-anchor="start" x="917.38" y="-524" font-family="Helvetica,sans-Serif" font-size="10.00">inja::FunctionStorage</text>
<polygon fill="none" stroke="#666666" points="913.38,-516.75 913.38,-537.5 1024.12,-537.5 1024.12,-516.75 913.38,-516.75"/>
</a>
</g>
</g>
<!-- Node7&#45;&gt;Node6 -->
<g id="edge6_Node000006_Node000007" class="edge">
<title>Node7&#45;&gt;Node6</title>
<g id="a_edge6_Node000006_Node000007"><a xlink:title=" ">
<path fill="none" stroke="#63b8ff" d="M960.24,-517C948.51,-504.74 926.36,-482.71 904.75,-467.25 895.22,-460.43 884.17,-454 874.05,-448.62"/>
<polygon fill="none" stroke="#63b8ff" points="874.23,-448.71 867.07,-449.53 863.56,-443.23 870.72,-442.41 874.23,-448.71"/>
</a>
</g>
<text xml:space="preserve" text-anchor="start" x="930.11" y="-473.5" font-family="Helvetica,sans-Serif" font-size="10.00" fill="grey">&#45;function_storage</text>
</g>
<!-- Node8 -->
<g id="Node000008" class="node">
<title>Node8</title>
<g id="a_Node000008"><a xlink:title=" ">
<polygon fill="white" stroke="none" points="1036.12,-664 919.38,-664 919.38,-605 1036.12,-605 1036.12,-664"/>
<text xml:space="preserve" text-anchor="start" x="923.38" y="-650.5" font-family="Helvetica,sans-Serif" font-size="10.00">std::map&lt; std::pair</text>
<text xml:space="preserve" text-anchor="start" x="923.38" y="-637.75" font-family="Helvetica,sans-Serif" font-size="10.00">&lt; std::string, int &gt;</text>
<text xml:space="preserve" text-anchor="start" x="923.38" y="-625" font-family="Helvetica,sans-Serif" font-size="10.00">, inja::FunctionStorage</text>
<text xml:space="preserve" text-anchor="start" x="936.88" y="-612.25" font-family="Helvetica,sans-Serif" font-size="10.00">::FunctionData &gt;</text>
<polygon fill="none" stroke="#666666" points="919.38,-605 919.38,-664 1036.12,-664 1036.12,-605 919.38,-605"/>
</a>
</g>
</g>
<!-- Node8&#45;&gt;Node7 -->
<g id="edge7_Node000007_Node000008" class="edge">
<title>Node8&#45;&gt;Node7</title>
<g id="a_edge7_Node000007_Node000008"><a xlink:title=" ">
<path fill="none" stroke="#63b8ff" d="M975.34,-605.26C973.86,-587.9 971.98,-565.98 970.61,-549.95"/>
<polygon fill="none" stroke="#63b8ff" points="970.62,-550.04 966.13,-544.4 969.6,-538.08 974.1,-543.72 970.62,-550.04"/>
</a>
</g>
<text xml:space="preserve" text-anchor="start" x="976.52" y="-574.5" font-family="Helvetica,sans-Serif" font-size="10.00" fill="grey">&#45;function_storage</text>
</g>
<!-- Node9 -->
<g id="Node000009" class="node">
<title>Node9</title>
<g id="a_Node000009"><a xlink:title=" ">
<polygon fill="white" stroke="none" points="851.12,-760.62 740.38,-760.62 740.38,-727.12 851.12,-727.12 851.12,-760.62"/>
<text xml:space="preserve" text-anchor="start" x="744.38" y="-747.12" font-family="Helvetica,sans-Serif" font-size="10.00">std::pair&lt; std::string,</text>
<text xml:space="preserve" text-anchor="start" x="782.25" y="-734.38" font-family="Helvetica,sans-Serif" font-size="10.00"> int &gt;</text>
<polygon fill="none" stroke="#666666" points="740.38,-727.12 740.38,-760.62 851.12,-760.62 851.12,-727.12 740.38,-727.12"/>
</a>
</g>
</g>
<!-- Node9&#45;&gt;Node8 -->
<g id="edge8_Node000008_Node000009" class="edge">
<title>Node9&#45;&gt;Node8</title>
<g id="a_edge8_Node000008_Node000009"><a xlink:title=" ">
<path fill="none" stroke="#63b8ff" d="M822.21,-727.26C847.35,-712.43 886.02,-689.62 918.51,-670.45"/>
<polygon fill="none" stroke="#63b8ff" points="918.6,-670.4 921.73,-663.9 928.93,-664.3 925.8,-670.79 918.6,-670.4"/>
</a>
</g>
<text xml:space="preserve" text-anchor="start" x="900.65" y="-689.25" font-family="Helvetica,sans-Serif" font-size="10.00" fill="grey">+keys</text>
</g>
<!-- Node10 -->
<g id="Node000010" class="node">
<title>Node10</title>
<g id="a_Node000010"><a xlink:title=" ">
<polygon fill="white" stroke="none" points="540.12,-1083.38 483.38,-1083.38 483.38,-1062.62 540.12,-1062.62 540.12,-1083.38"/>
<text xml:space="preserve" text-anchor="start" x="487.38" y="-1069.88" font-family="Helvetica,sans-Serif" font-size="10.00">std::string</text>
<polygon fill="none" stroke="#666666" points="483.38,-1062.62 483.38,-1083.38 540.12,-1083.38 540.12,-1062.62 483.38,-1062.62"/>
</a>
</g>
</g>
<!-- Node10&#45;&gt;Node4 -->
<g id="edge30_Node000004_Node000010" class="edge">
<title>Node10&#45;&gt;Node4</title>
<g id="a_edge30_Node000004_Node000010"><a xlink:title=" ">
<path fill="none" stroke="#63b8ff" d="M512.59,-1062.64C516.02,-1023.72 528.75,-870.84 528.75,-744.88 528.75,-744.88 528.75,-744.88 528.75,-255 528.75,-230.85 525.42,-224.17 514.75,-202.5 513.42,-199.79 511.8,-197.09 510.05,-194.5"/>
<polygon fill="none" stroke="#63b8ff" points="509.97,-194.39 503.14,-192.05 502.67,-184.85 509.5,-187.19 509.97,-194.39"/>
</a>
</g>
<text xml:space="preserve" text-anchor="start" x="531.75" y="-473.5" font-family="Helvetica,sans-Serif" font-size="10.00" fill="grey">&#45;mappingJsonSchemaString</text>
</g>
<!-- Node10&#45;&gt;Node9 -->
<g id="edge9_Node000009_Node000010" class="edge">
<title>Node10&#45;&gt;Node9</title>
<g id="a_edge9_Node000009_Node000010"><a xlink:title=" ">
<path fill="none" stroke="#63b8ff" d="M539.78,-1071.7C593.88,-1070.53 709.84,-1064.88 737.75,-1038.25 811.67,-967.72 806.22,-832.28 799.74,-773.39"/>
<polygon fill="none" stroke="#63b8ff" points="799.73,-773.27 795.03,-767.8 798.27,-761.36 802.97,-766.83 799.73,-773.27"/>
</a>
</g>
<text xml:space="preserve" text-anchor="start" x="806.22" y="-908.5" font-family="Helvetica,sans-Serif" font-size="10.00" fill="grey">+first_type</text>
</g>
<!-- Node14 -->
<g id="Node000014" class="node">
<title>Node14</title>
<g id="a_Node000014"><a xlink:href="structinja_1_1LexerConfig.html" target="_top" xlink:title="Class for lexer configuration.">
<polygon fill="white" stroke="none" points="759,-702.75 668.5,-702.75 668.5,-682 759,-682 759,-702.75"/>
<text xml:space="preserve" text-anchor="start" x="672.5" y="-689.25" font-family="Helvetica,sans-Serif" font-size="10.00">inja::LexerConfig</text>
<polygon fill="none" stroke="#666666" points="668.5,-682 668.5,-702.75 759,-702.75 759,-682 668.5,-682"/>
</a>
</g>
</g>
<!-- Node10&#45;&gt;Node14 -->
<g id="edge14_Node000014_Node000010" class="edge">
<title>Node10&#45;&gt;Node14</title>
<g id="a_edge14_Node000014_Node000010"><a xlink:title=" ">
<path fill="none" stroke="#63b8ff" d="M522.64,-1062.67C529.34,-1056.39 537.59,-1047.58 542.75,-1038.25 599.26,-936.12 551.03,-884.37 612.25,-785 631.64,-753.53 664.99,-726.45 688.14,-710.06"/>
<polygon fill="none" stroke="#63b8ff" points="688.25,-709.99 690.94,-703.3 698.15,-703.21 695.46,-709.9 688.25,-709.99"/>
</a>
</g>
<text xml:space="preserve" text-anchor="start" x="615.25" y="-1025.75" font-family="Helvetica,sans-Serif" font-size="10.00" fill="grey">+comment_close</text>
<text xml:space="preserve" text-anchor="start" x="615.25" y="-1009" font-family="Helvetica,sans-Serif" font-size="10.00" fill="grey">+comment_close_force</text>
<text xml:space="preserve" text-anchor="start" x="615.25" y="-992.25" font-family="Helvetica,sans-Serif" font-size="10.00" fill="grey">  _rstrip</text>
<text xml:space="preserve" text-anchor="start" x="615.25" y="-975.5" font-family="Helvetica,sans-Serif" font-size="10.00" fill="grey">+comment_open</text>
<text xml:space="preserve" text-anchor="start" x="615.25" y="-958.75" font-family="Helvetica,sans-Serif" font-size="10.00" fill="grey">+comment_open_force</text>
<text xml:space="preserve" text-anchor="start" x="615.25" y="-942" font-family="Helvetica,sans-Serif" font-size="10.00" fill="grey">  _lstrip</text>
<text xml:space="preserve" text-anchor="start" x="615.25" y="-925.25" font-family="Helvetica,sans-Serif" font-size="10.00" fill="grey">+expression_close</text>
<text xml:space="preserve" text-anchor="start" x="615.25" y="-908.5" font-family="Helvetica,sans-Serif" font-size="10.00" fill="grey">+expression_close</text>
<text xml:space="preserve" text-anchor="start" x="615.25" y="-891.75" font-family="Helvetica,sans-Serif" font-size="10.00" fill="grey">  _force_rstrip</text>
<text xml:space="preserve" text-anchor="start" x="615.25" y="-875" font-family="Helvetica,sans-Serif" font-size="10.00" fill="grey">+expression_open</text>
<text xml:space="preserve" text-anchor="start" x="615.25" y="-858.25" font-family="Helvetica,sans-Serif" font-size="10.00" fill="grey">+expression_open</text>
<text xml:space="preserve" text-anchor="start" x="615.25" y="-841.5" font-family="Helvetica,sans-Serif" font-size="10.00" fill="grey">  _force_lstrip</text>
<text xml:space="preserve" text-anchor="start" x="615.25" y="-824.75" font-family="Helvetica,sans-Serif" font-size="10.00" fill="grey">+line_statement</text>
<text xml:space="preserve" text-anchor="start" x="615.25" y="-808" font-family="Helvetica,sans-Serif" font-size="10.00" fill="grey">+open_chars</text>
<text xml:space="preserve" text-anchor="start" x="615.25" y="-791.25" font-family="Helvetica,sans-Serif" font-size="10.00" fill="grey"> &#160;...</text>
</g>
<!-- Node21 -->
<g id="Node000021" class="node">
<title>Node21</title>
<g id="a_Node000021"><a xlink:title=" ">
<polygon fill="white" stroke="none" points="462.5,-550.25 309,-550.25 309,-504 462.5,-504 462.5,-550.25"/>
<text xml:space="preserve" text-anchor="start" x="313" y="-536.75" font-family="Helvetica,sans-Serif" font-size="10.00">std::map&lt; std::string,</text>
<text xml:space="preserve" text-anchor="start" x="313" y="-524" font-family="Helvetica,sans-Serif" font-size="10.00"> nlohmann::json_schema</text>
<text xml:space="preserve" text-anchor="start" x="313" y="-511.25" font-family="Helvetica,sans-Serif" font-size="10.00">::root_schema::schema_file &gt;</text>
<polygon fill="none" stroke="#666666" points="309,-504 309,-550.25 462.5,-550.25 462.5,-504 309,-504"/>
</a>
</g>
</g>
<!-- Node10&#45;&gt;Node21 -->
<g id="edge22_Node000021_Node000010" class="edge">
<title>Node10&#45;&gt;Node21</title>
<g id="a_edge22_Node000021_Node000010"><a xlink:title=" ">
<path fill="none" stroke="#63b8ff" d="M511.28,-1062.69C508.73,-1014.3 495.18,-786.87 457.75,-605 454.31,-588.3 456.93,-581.93 446.75,-568.25 444.1,-564.68 441.02,-561.34 437.7,-558.23"/>
<polygon fill="none" stroke="#63b8ff" points="437.76,-558.28 430.58,-557.55 428.49,-550.65 435.67,-551.37 437.76,-558.28"/>
</a>
</g>
<text xml:space="preserve" text-anchor="start" x="478.11" y="-689.25" font-family="Helvetica,sans-Serif" font-size="10.00" fill="grey">+keys</text>
</g>
<!-- Node23 -->
<g id="Node000023" class="node">
<title>Node23</title>
<g id="a_Node000023"><a xlink:title=" ">
<polygon fill="white" stroke="none" points="457.62,-760.62 301.88,-760.62 301.88,-727.12 457.62,-727.12 457.62,-760.62"/>
<text xml:space="preserve" text-anchor="start" x="305.88" y="-747.12" font-family="Helvetica,sans-Serif" font-size="10.00">std::map&lt; std::string,</text>
<text xml:space="preserve" text-anchor="start" x="305.88" y="-734.38" font-family="Helvetica,sans-Serif" font-size="10.00"> std::shared_ptr&lt; schema &gt; &gt;</text>
<polygon fill="none" stroke="#666666" points="301.88,-727.12 301.88,-760.62 457.62,-760.62 457.62,-727.12 301.88,-727.12"/>
</a>
</g>
</g>
<!-- Node10&#45;&gt;Node23 -->
<g id="edge25_Node000023_Node000010" class="edge">
<title>Node10&#45;&gt;Node23</title>
<g id="a_edge25_Node000023_Node000010"><a xlink:title=" ">
<path fill="none" stroke="#63b8ff" d="M483.49,-1065.73C468.37,-1060.85 450.88,-1052.43 441,-1038.25 408.69,-991.88 441.05,-836.49 417.75,-785 415.33,-779.64 411.89,-774.55 408.05,-769.91"/>
<polygon fill="none" stroke="#63b8ff" points="408.09,-769.94 401.07,-768.29 399.9,-761.17 406.92,-762.83 408.09,-769.94"/>
</a>
</g>
<text xml:space="preserve" text-anchor="start" x="444" y="-908.5" font-family="Helvetica,sans-Serif" font-size="10.00" fill="grey">+keys</text>
</g>
<!-- Node24 -->
<g id="Node000024" class="node">
<title>Node24</title>
<g id="a_Node000024"><a xlink:title=" ">
<polygon fill="white" stroke="none" points="283.38,-767 150.12,-767 150.12,-720.75 283.38,-720.75 283.38,-767"/>
<text xml:space="preserve" text-anchor="start" x="154.12" y="-753.5" font-family="Helvetica,sans-Serif" font-size="10.00">std::map&lt; std::string,</text>
<text xml:space="preserve" text-anchor="start" x="154.12" y="-740.75" font-family="Helvetica,sans-Serif" font-size="10.00"> std::shared_ptr&lt; schema</text>
<text xml:space="preserve" text-anchor="start" x="196.12" y="-728" font-family="Helvetica,sans-Serif" font-size="10.00">_ref &gt; &gt;</text>
<polygon fill="none" stroke="#666666" points="150.12,-720.75 150.12,-767 283.38,-767 283.38,-720.75 150.12,-720.75"/>
</a>
</g>
</g>
<!-- Node10&#45;&gt;Node24 -->
<g id="edge28_Node000024_Node000010" class="edge">
<title>Node10&#45;&gt;Node24</title>
<g id="a_edge28_Node000024_Node000010"><a xlink:title=" ">
<path fill="none" stroke="#63b8ff" d="M483.6,-1068.81C448.25,-1064.17 390.57,-1054.34 377,-1038.25 340.61,-995.1 393.6,-828.59 357.75,-785 340.94,-764.56 325.63,-772.56 295.76,-767.18"/>
<polygon fill="none" stroke="#63b8ff" points="295.62,-767.15 288.87,-769.69 283.93,-764.44 290.68,-761.9 295.62,-767.15"/>
</a>
</g>
<text xml:space="preserve" text-anchor="start" x="380" y="-908.5" font-family="Helvetica,sans-Serif" font-size="10.00" fill="grey">+keys</text>
</g>
<!-- Node11 -->
<g id="Node000011" class="node">
<title>Node11</title>
<g id="a_Node000011"><a xlink:title=" ">
<polygon fill="white" stroke="none" points="559.62,-1160.25 463.88,-1160.25 463.88,-1126.75 559.62,-1126.75 559.62,-1160.25"/>
<text xml:space="preserve" text-anchor="start" x="467.88" y="-1146.75" font-family="Helvetica,sans-Serif" font-size="10.00">std::basic_string&lt;</text>
<text xml:space="preserve" text-anchor="start" x="493.38" y="-1134" font-family="Helvetica,sans-Serif" font-size="10.00"> Char &gt;</text>
<polygon fill="none" stroke="#666666" points="463.88,-1126.75 463.88,-1160.25 559.62,-1160.25 559.62,-1126.75 463.88,-1126.75"/>
</a>
</g>
</g>
<!-- Node11&#45;&gt;Node10 -->
<g id="edge10_Node000010_Node000011" class="edge">
<title>Node11&#45;&gt;Node10</title>
<g id="a_edge10_Node000010_Node000011"><a xlink:title=" ">
<path fill="none" stroke="#63b8ff" d="M511.75,-1115.7C511.75,-1104.28 511.75,-1091.69 511.75,-1083.37"/>
<polygon fill="none" stroke="#63b8ff" points="508.25,-1115.44 511.75,-1125.44 515.25,-1115.44 508.25,-1115.44"/>
</a>
</g>
</g>
<!-- Node12 -->
<g id="Node000012" class="node">
<title>Node12</title>
<g id="a_Node000012"><a xlink:href="structinja_1_1FunctionStorage_1_1FunctionData.html" target="_top" xlink:title=" ">
<polygon fill="white" stroke="none" points="1033.12,-760.62 922.38,-760.62 922.38,-727.12 1033.12,-727.12 1033.12,-760.62"/>
<text xml:space="preserve" text-anchor="start" x="926.38" y="-747.12" font-family="Helvetica,sans-Serif" font-size="10.00">inja::FunctionStorage</text>
<text xml:space="preserve" text-anchor="start" x="942.5" y="-734.38" font-family="Helvetica,sans-Serif" font-size="10.00">::FunctionData</text>
<polygon fill="none" stroke="#666666" points="922.38,-727.12 922.38,-760.62 1033.12,-760.62 1033.12,-727.12 922.38,-727.12"/>
</a>
</g>
</g>
<!-- Node12&#45;&gt;Node8 -->
<g id="edge11_Node000008_Node000012" class="edge">
<title>Node12&#45;&gt;Node8</title>
<g id="a_edge11_Node000008_Node000012"><a xlink:title=" ">
<path fill="none" stroke="#63b8ff" d="M977.75,-727.49C977.75,-714.21 977.75,-694.4 977.75,-676.57"/>
<polygon fill="none" stroke="#63b8ff" points="977.75,-676.65 973.75,-670.65 977.75,-664.65 981.75,-670.65 977.75,-676.65"/>
</a>
</g>
<text xml:space="preserve" text-anchor="start" x="980.75" y="-689.25" font-family="Helvetica,sans-Serif" font-size="10.00" fill="grey">+elements</text>
</g>
<!-- Node13 -->
<g id="Node000013" class="node">
<title>Node13</title>
<g id="a_Node000013"><a xlink:title=" ">
<polygon fill="white" stroke="none" points="1155.62,-543.88 1041.88,-543.88 1041.88,-510.38 1155.62,-510.38 1155.62,-543.88"/>
<text xml:space="preserve" text-anchor="start" x="1045.88" y="-530.38" font-family="Helvetica,sans-Serif" font-size="10.00">std::map&lt; std::string,</text>
<text xml:space="preserve" text-anchor="start" x="1069.12" y="-517.62" font-family="Helvetica,sans-Serif" font-size="10.00"> Template &gt;</text>
<polygon fill="none" stroke="#666666" points="1041.88,-510.38 1041.88,-543.88 1155.62,-543.88 1155.62,-510.38 1041.88,-510.38"/>
</a>
</g>
</g>
<!-- Node13&#45;&gt;Node6 -->
<g id="edge12_Node000006_Node000013" class="edge">
<title>Node13&#45;&gt;Node6</title>
<g id="a_edge12_Node000006_Node000013"><a xlink:title=" ">
<path fill="none" stroke="#63b8ff" d="M1083.34,-510.55C1068.94,-496.95 1046.2,-477.78 1022.75,-467.25 984.78,-450.19 938.57,-441.75 902.48,-437.58"/>
<polygon fill="none" stroke="#63b8ff" points="902.5,-437.58 896.11,-440.93 890.57,-436.32 896.95,-432.98 902.5,-437.58"/>
</a>
</g>
<text xml:space="preserve" text-anchor="start" x="1055.14" y="-473.5" font-family="Helvetica,sans-Serif" font-size="10.00" fill="grey">&#45;template_storage</text>
</g>
<!-- Node14&#45;&gt;Node6 -->
<g id="edge13_Node000006_Node000014" class="edge">
<title>Node14&#45;&gt;Node6</title>
<g id="a_edge13_Node000006_Node000014"><a xlink:title=" ">
<path fill="none" stroke="#63b8ff" d="M727.07,-682.07C755.42,-661.58 822.03,-609.64 857.75,-550.25 877.26,-517.82 891.3,-502.19 876.75,-467.25 874.28,-461.32 870.21,-455.9 865.73,-451.22"/>
<polygon fill="none" stroke="#63b8ff" points="865.9,-451.38 858.77,-450.32 857,-443.33 864.13,-444.39 865.9,-451.38"/>
</a>
</g>
<text xml:space="preserve" text-anchor="start" x="848.46" y="-574.5" font-family="Helvetica,sans-Serif" font-size="10.00" fill="grey">#lexer_config</text>
</g>
<!-- Node15 -->
<g id="Node000015" class="node">
<title>Node15</title>
<g id="a_Node000015"><a xlink:href="structinja_1_1ParserConfig.html" target="_top" xlink:title="Class for parser configuration.">
<polygon fill="white" stroke="none" points="732.88,-537.5 638.62,-537.5 638.62,-516.75 732.88,-516.75 732.88,-537.5"/>
<text xml:space="preserve" text-anchor="start" x="642.62" y="-524" font-family="Helvetica,sans-Serif" font-size="10.00">inja::ParserConfig</text>
<polygon fill="none" stroke="#666666" points="638.62,-516.75 638.62,-537.5 732.88,-537.5 732.88,-516.75 638.62,-516.75"/>
</a>
</g>
</g>
<!-- Node15&#45;&gt;Node6 -->
<g id="edge15_Node000006_Node000015" class="edge">
<title>Node15&#45;&gt;Node6</title>
<g id="a_edge15_Node000006_Node000015"><a xlink:title=" ">
<path fill="none" stroke="#63b8ff" d="M686.5,-517.1C688.07,-504.13 692.89,-480.34 707.5,-467.25 728.01,-448.87 757,-440.16 782.89,-436.16"/>
<polygon fill="none" stroke="#63b8ff" points="782.89,-436.16 788.33,-431.42 794.79,-434.62 789.35,-439.36 782.89,-436.16"/>
</a>
</g>
<text xml:space="preserve" text-anchor="start" x="710.5" y="-473.5" font-family="Helvetica,sans-Serif" font-size="10.00" fill="grey">#parser_config</text>
</g>
<!-- Node16 -->
<g id="Node000016" class="node">
<title>Node16</title>
<g id="a_Node000016"><a xlink:href="structinja_1_1RenderConfig.html" target="_top" xlink:title="Class for render configuration.">
<polygon fill="white" stroke="none" points="848.75,-537.5 750.75,-537.5 750.75,-516.75 848.75,-516.75 848.75,-537.5"/>
<text xml:space="preserve" text-anchor="start" x="754.75" y="-524" font-family="Helvetica,sans-Serif" font-size="10.00">inja::RenderConfig</text>
<polygon fill="none" stroke="#666666" points="750.75,-516.75 750.75,-537.5 848.75,-537.5 848.75,-516.75 750.75,-516.75"/>
</a>
</g>
</g>
<!-- Node16&#45;&gt;Node6 -->
<g id="edge16_Node000006_Node000016" class="edge">
<title>Node16&#45;&gt;Node6</title>
<g id="a_edge16_Node000006_Node000016"><a xlink:title=" ">
<path fill="none" stroke="#63b8ff" d="M796.28,-516.75C792.39,-504.61 787.61,-483.11 795.75,-467.25 799.28,-460.38 804.92,-454.59 811.1,-449.86"/>
<polygon fill="none" stroke="#63b8ff" points="810.93,-449.96 813.74,-443.33 820.96,-443.37 818.14,-450.01 810.93,-449.96"/>
</a>
</g>
<text xml:space="preserve" text-anchor="start" x="798.75" y="-473.5" font-family="Helvetica,sans-Serif" font-size="10.00" fill="grey">#render_config</text>
</g>
<!-- Node17 -->
<g id="Node000017" class="node">
<title>Node17</title>
<g id="a_Node000017"><a xlink:href="classnlohmann_1_1json__schema_1_1json__validator.html" target="_top" xlink:title=" ">
<polygon fill="white" stroke="none" points="501,-272.75 374.5,-272.75 374.5,-239.25 501,-239.25 501,-272.75"/>
<text xml:space="preserve" text-anchor="start" x="378.5" y="-259.25" font-family="Helvetica,sans-Serif" font-size="10.00">nlohmann::json_schema</text>
<text xml:space="preserve" text-anchor="start" x="400.25" y="-246.5" font-family="Helvetica,sans-Serif" font-size="10.00">::json_validator</text>
<polygon fill="none" stroke="#666666" points="374.5,-239.25 374.5,-272.75 501,-272.75 501,-239.25 374.5,-239.25"/>
</a>
</g>
</g>
<!-- Node17&#45;&gt;Node4 -->
<g id="edge17_Node000004_Node000017" class="edge">
<title>Node17&#45;&gt;Node4</title>
<g id="a_edge17_Node000004_Node000017"><a xlink:title=" ">
<path fill="none" stroke="#63b8ff" d="M442.77,-239.32C446.76,-228.34 453.07,-213.68 461.5,-202.5 464.11,-199.04 467.23,-195.72 470.48,-192.66"/>
<polygon fill="none" stroke="#63b8ff" points="470.43,-192.71 472.43,-185.78 479.6,-184.96 477.6,-191.89 470.43,-192.71"/>
</a>
</g>
<text xml:space="preserve" text-anchor="start" x="464.5" y="-208.75" font-family="Helvetica,sans-Serif" font-size="10.00" fill="grey">&#45;validator</text>
</g>
<!-- Node18 -->
<g id="Node000018" class="node">
<title>Node18</title>
<g id="a_Node000018"><a xlink:title=" ">
<polygon fill="white" stroke="none" points="489.75,-361 331.75,-361 331.75,-327.5 489.75,-327.5 489.75,-361"/>
<text xml:space="preserve" text-anchor="start" x="335.75" y="-347.5" font-family="Helvetica,sans-Serif" font-size="10.00">std::unique_ptr&lt; nlohmann</text>
<text xml:space="preserve" text-anchor="start" x="335.75" y="-334.75" font-family="Helvetica,sans-Serif" font-size="10.00">::json_schema::root_schema &gt;</text>
<polygon fill="none" stroke="#666666" points="331.75,-327.5 331.75,-361 489.75,-361 489.75,-327.5 331.75,-327.5"/>
</a>
</g>
</g>
<!-- Node18&#45;&gt;Node17 -->
<g id="edge18_Node000017_Node000018" class="edge">
<title>Node18&#45;&gt;Node17</title>
<g id="a_edge18_Node000017_Node000018"><a xlink:title=" ">
<path fill="none" stroke="#63b8ff" d="M415.58,-327.83C419.32,-315.88 424.6,-299.02 429.06,-284.74"/>
<polygon fill="none" stroke="#63b8ff" points="429.02,-284.89 426.99,-277.97 432.6,-273.44 434.63,-280.36 429.02,-284.89"/>
</a>
</g>
<text xml:space="preserve" text-anchor="start" x="429.67" y="-297" font-family="Helvetica,sans-Serif" font-size="10.00" fill="grey">&#45;root_</text>
</g>
<!-- Node19 -->
<g id="Node000019" class="node">
<title>Node19</title>
<g id="a_Node000019"><a xlink:href="classnlohmann_1_1json__schema_1_1root__schema.html" target="_top" xlink:title=" ">
<polygon fill="white" stroke="none" points="449,-449.25 322.5,-449.25 322.5,-415.75 449,-415.75 449,-449.25"/>
<text xml:space="preserve" text-anchor="start" x="326.5" y="-435.75" font-family="Helvetica,sans-Serif" font-size="10.00">nlohmann::json_schema</text>
<text xml:space="preserve" text-anchor="start" x="351.25" y="-423" font-family="Helvetica,sans-Serif" font-size="10.00">::root_schema</text>
<polygon fill="none" stroke="#666666" points="322.5,-415.75 322.5,-449.25 449,-449.25 449,-415.75 322.5,-415.75"/>
</a>
</g>
</g>
<!-- Node19&#45;&gt;Node18 -->
<g id="edge19_Node000018_Node000019" class="edge">
<title>Node19&#45;&gt;Node18</title>
<g id="a_edge19_Node000018_Node000019"><a xlink:title=" ">
<path fill="none" stroke="#63b8ff" d="M390.22,-416.08C393.68,-404.13 398.57,-387.27 402.71,-372.99"/>
<polygon fill="none" stroke="#63b8ff" points="402.64,-373.22 400.47,-366.34 405.98,-361.69 408.16,-368.57 402.64,-373.22"/>
</a>
</g>
<text xml:space="preserve" text-anchor="start" x="403.49" y="-385.25" font-family="Helvetica,sans-Serif" font-size="10.00" fill="grey">+ptr</text>
</g>
<!-- Node20 -->
<g id="Node000020" class="node">
<title>Node20</title>
<g id="a_Node000020"><a xlink:title=" ">
<polygon fill="white" stroke="none" points="141.5,-1083.38 0,-1083.38 0,-1062.62 141.5,-1062.62 141.5,-1083.38"/>
<text xml:space="preserve" text-anchor="start" x="4" y="-1069.88" font-family="Helvetica,sans-Serif" font-size="10.00">std::shared_ptr&lt; schema &gt;</text>
<polygon fill="none" stroke="#666666" points="0,-1062.62 0,-1083.38 141.5,-1083.38 141.5,-1062.62 0,-1062.62"/>
</a>
</g>
</g>
<!-- Node20&#45;&gt;Node19 -->
<g id="edge20_Node000019_Node000020" class="edge">
<title>Node20&#45;&gt;Node19</title>
<g id="a_edge20_Node000019_Node000020"><a xlink:title=" ">
<path fill="none" stroke="#63b8ff" d="M72.44,-1062.67C79.3,-1023.86 104.75,-871.35 104.75,-744.88 104.75,-744.88 104.75,-744.88 104.75,-526.12 104.75,-482.81 226.72,-456.36 309.94,-443.36"/>
<polygon fill="none" stroke="#63b8ff" points="309.93,-443.36 315.26,-438.51 321.8,-441.56 316.47,-446.42 309.93,-443.36"/>
</a>
</g>
<text xml:space="preserve" text-anchor="start" x="107.75" y="-631.38" font-family="Helvetica,sans-Serif" font-size="10.00" fill="grey">&#45;root_</text>
</g>
<!-- Node20&#45;&gt;Node23 -->
<g id="edge26_Node000023_Node000020" class="edge">
<title>Node20&#45;&gt;Node23</title>
<g id="a_edge26_Node000023_Node000020"><a xlink:title=" ">
<path fill="none" stroke="#63b8ff" d="M115.95,-1062.69C127.29,-1060.47 139.45,-1058.18 150.75,-1056.25 178.2,-1051.56 255.75,-1058.61 274.75,-1038.25 313.25,-996.99 261.67,-831.43 293.75,-785 298.72,-777.81 305.33,-771.87 312.68,-766.98"/>
<polygon fill="none" stroke="#63b8ff" points="312.69,-766.97 315.9,-760.51 323.09,-760.99 319.89,-767.45 312.69,-766.97"/>
</a>
</g>
<text xml:space="preserve" text-anchor="start" x="296.75" y="-908.5" font-family="Helvetica,sans-Serif" font-size="10.00" fill="grey">+elements</text>
</g>
<!-- Node21&#45;&gt;Node19 -->
<g id="edge21_Node000019_Node000021" class="edge">
<title>Node21&#45;&gt;Node19</title>
<g id="a_edge21_Node000019_Node000021"><a xlink:title=" ">
<path fill="none" stroke="#63b8ff" d="M385.75,-504.17C385.75,-491.63 385.75,-475.75 385.75,-462.22"/>
<polygon fill="none" stroke="#63b8ff" points="385.75,-462.11 381.75,-456.11 385.75,-450.11 389.75,-456.11 385.75,-462.11"/>
</a>
</g>
<text xml:space="preserve" text-anchor="start" x="388.75" y="-473.5" font-family="Helvetica,sans-Serif" font-size="10.00" fill="grey">&#45;files_</text>
</g>
<!-- Node22 -->
<g id="Node000022" class="node">
<title>Node22</title>
<g id="a_Node000022"><a xlink:href="structnlohmann_1_1json__schema_1_1root__schema_1_1schema__file.html" target="_top" xlink:title=" ">
<polygon fill="white" stroke="none" points="448.88,-651.25 306.62,-651.25 306.62,-617.75 448.88,-617.75 448.88,-651.25"/>
<text xml:space="preserve" text-anchor="start" x="310.62" y="-637.75" font-family="Helvetica,sans-Serif" font-size="10.00">nlohmann::json_schema</text>
<text xml:space="preserve" text-anchor="start" x="310.62" y="-625" font-family="Helvetica,sans-Serif" font-size="10.00">::root_schema::schema_file</text>
<polygon fill="none" stroke="#666666" points="306.62,-617.75 306.62,-651.25 448.88,-651.25 448.88,-617.75 306.62,-617.75"/>
</a>
</g>
</g>
<!-- Node22&#45;&gt;Node21 -->
<g id="edge23_Node000021_Node000022" class="edge">
<title>Node22&#45;&gt;Node21</title>
<g id="a_edge23_Node000021_Node000022"><a xlink:title=" ">
<path fill="none" stroke="#63b8ff" d="M378.93,-617.95C380.03,-603.49 381.7,-581.42 383.12,-562.78"/>
<polygon fill="none" stroke="#63b8ff" points="383.11,-562.84 379.58,-556.55 384.02,-550.87 387.56,-557.16 383.11,-562.84"/>
</a>
</g>
<text xml:space="preserve" text-anchor="start" x="385.7" y="-574.5" font-family="Helvetica,sans-Serif" font-size="10.00" fill="grey">+elements</text>
</g>
<!-- Node23&#45;&gt;Node22 -->
<g id="edge24_Node000022_Node000023" class="edge">
<title>Node23&#45;&gt;Node22</title>
<g id="a_edge24_Node000022_Node000023"><a xlink:title=" ">
<path fill="none" stroke="#63b8ff" d="M379.46,-727.49C379.16,-711 378.66,-684.45 378.28,-664.1"/>
<polygon fill="none" stroke="#63b8ff" points="378.28,-664.1 374.17,-658.18 378.06,-652.11 382.17,-658.03 378.28,-664.1"/>
</a>
</g>
<text xml:space="preserve" text-anchor="start" x="381.99" y="-689.25" font-family="Helvetica,sans-Serif" font-size="10.00" fill="grey">+schemas</text>
</g>
<!-- Node24&#45;&gt;Node22 -->
<g id="edge27_Node000022_Node000024" class="edge">
<title>Node24&#45;&gt;Node22</title>
<g id="a_edge27_Node000022_Node000024"><a xlink:title=" ">
<path fill="none" stroke="#63b8ff" d="M249.06,-720.76C266.1,-709.15 287.38,-694.72 306.5,-682 318.34,-674.12 331.34,-665.6 342.97,-658.02"/>
<polygon fill="none" stroke="#63b8ff" points="342.79,-658.14 345.64,-651.52 352.85,-651.6 350,-658.22 342.79,-658.14"/>
</a>
</g>
<text xml:space="preserve" text-anchor="start" x="309.5" y="-689.25" font-family="Helvetica,sans-Serif" font-size="10.00" fill="grey">+unresolved</text>
</g>
<!-- Node25 -->
<g id="Node000025" class="node">
<title>Node25</title>
<g id="a_Node000025"><a xlink:title=" ">
<polygon fill="white" stroke="none" points="289.88,-1089.75 159.62,-1089.75 159.62,-1056.25 289.88,-1056.25 289.88,-1089.75"/>
<text xml:space="preserve" text-anchor="start" x="163.62" y="-1076.25" font-family="Helvetica,sans-Serif" font-size="10.00">std::shared_ptr&lt; schema</text>
<text xml:space="preserve" text-anchor="start" x="209.75" y="-1063.5" font-family="Helvetica,sans-Serif" font-size="10.00">_ref &gt;</text>
<polygon fill="none" stroke="#666666" points="159.62,-1056.25 159.62,-1089.75 289.88,-1089.75 289.88,-1056.25 159.62,-1056.25"/>
</a>
</g>
</g>
<!-- Node25&#45;&gt;Node24 -->
<g id="edge29_Node000024_Node000025" class="edge">
<title>Node25&#45;&gt;Node24</title>
<g id="a_edge29_Node000024_Node000025"><a xlink:title=" ">
<path fill="none" stroke="#63b8ff" d="M219.11,-1056.41C217.34,-1050.77 215.63,-1044.3 214.75,-1038.25 198.59,-926.86 211.95,-897.52 214.75,-785 214.79,-783.35 214.84,-781.67 214.9,-779.97"/>
<polygon fill="none" stroke="#63b8ff" points="214.9,-779.83 211.16,-773.67 215.41,-767.84 219.16,-774.01 214.9,-779.83"/>
</a>
</g>
<text xml:space="preserve" text-anchor="start" x="217.75" y="-908.5" font-family="Helvetica,sans-Serif" font-size="10.00" fill="grey">+elements</text>
</g>
</g>
</svg>

<g id="navigator" transform="translate(0 0)" fill="#404254">
  <rect fill="#f2f5e9" fill-opacity="0.5" stroke="#606060" stroke-width=".5" x="0" y="0" width="60" height="60"/>
  <use id="zoomplus" xlink:href="#zoomPlus" x="17" y="9" onmousedown="handleZoom(evt,'in')"/>
  <use id="zoomminus" xlink:href="#zoomMin" x="42" y="9" onmousedown="handleZoom(evt,'out')"/>
  <use id="reset" xlink:href="#resetDef" x="30" y="36" onmousedown="handleReset()"/>
   <use id="arrowup" xlink:href="#arrowUp" x="0" y="0" onmousedown="handlePan(0,-1)"/>
  <use id="arrowright" xlink:href="#arrowRight" x="0" y="0" onmousedown="handlePan(1,0)"/>
  <use id="arrowdown" xlink:href="#arrowDown" x="0" y="0" onmousedown="handlePan(0,1)"/>
  <use id="arrowleft" xlink:href="#arrowLeft" x="0" y="0" onmousedown="handlePan(-1,0)"/>
</g>
<svg viewBox="0 0 15 15" width="100%" height="30px" preserveAspectRatio="xMaxYMin meet">
 <g id="arrow_out" transform="scale(0.3 0.3)">
  <a xlink:href="classmqtt_1_1lib_1_1ConfigApplication__coll__graph_org.svg" target="_base">
   <rect id="button" ry="5" rx="5" y="6" x="6" height="38" width="38"
        fill="#f2f5e9" fill-opacity="0.5" stroke="#606060" stroke-width="1.0"/>
   <path id="arrow"
     d="M 11.500037,31.436501 C 11.940474,20.09759 22.043105,11.32322 32.158766,21.979434 L 37.068811,17.246167 C 37.068811,17.246167 37.088388,32 37.088388,32 L 22.160133,31.978069 C 22.160133,31.978069 26.997745,27.140456 26.997745,27.140456 C 18.528582,18.264221 13.291696,25.230495 11.500037,31.436501 z"
     style="fill:#404040;"/>
  </a>
 </g>
</svg>

<style type='text/css'>
<![CDATA[
[data-mouse-over-selected='false'] { opacity: 0.7; }
[data-mouse-over-selected='true']  { opacity: 1.0; }
]]>
</style>
<script type="application/ecmascript"><![CDATA[
document.addEventListener('DOMContentLoaded', (event) => {
  highlightEdges();
  highlightAdjacentNodes();
});
]]></script>
</svg>
