<?xml version="1.0" encoding="UTF-8" standalone="no"?>
<!DOCTYPE svg PUBLIC "-//W3C//DTD SVG 1.1//EN"
 "http://www.w3.org/Graphics/SVG/1.1/DTD/svg11.dtd">
<!-- Generated by graphviz version 14.1.2 (0)
 -->
<!-- Title: mqtt::bridge::lib::Mqtt Pages: 1 -->
<svg width="123pt" height="86pt"
 viewBox="0.00 0.00 123.00 86.00" xmlns="http://www.w3.org/2000/svg" xmlns:xlink="http://www.w3.org/1999/xlink">
<g id="graph0" class="graph" transform="scale(1 1) rotate(0) translate(4 81.5)">
<title>mqtt::bridge::lib::Mqtt</title>
<!-- Node1 -->
<g id="Node000001" class="node">
<title>Node1</title>
<g id="a_Node000001"><a xlink:title=" ">
<polygon fill="#999999" stroke="none" points="114.5,-20.75 0,-20.75 0,0 114.5,0 114.5,-20.75"/>
<text xml:space="preserve" text-anchor="start" x="4" y="-7.25" font-family="Helvetica,sans-Serif" font-size="10.00">mqtt::bridge::lib::Mqtt</text>
<polygon fill="none" stroke="#666666" points="0,0 0,-20.75 114.5,-20.75 114.5,0 0,0"/>
</a>
</g>
</g>
<!-- Node2 -->
<g id="Node000002" class="node">
<title>Node2</title>
<g id="a_Node000002"><a xlink:title=" ">
<polygon fill="white" stroke="none" points="113,-77.5 1.5,-77.5 1.5,-56.75 113,-56.75 113,-77.5"/>
<text xml:space="preserve" text-anchor="start" x="5.5" y="-64" font-family="Helvetica,sans-Serif" font-size="10.00">iot::mqtt::client::Mqtt</text>
<polygon fill="none" stroke="#666666" points="1.5,-56.75 1.5,-77.5 113,-77.5 113,-56.75 1.5,-56.75"/>
</a>
</g>
</g>
<!-- Node2&#45;&gt;Node1 -->
<g id="edge1_Node000001_Node000002" class="edge">
<title>Node2&#45;&gt;Node1</title>
<g id="a_edge1_Node000001_Node000002"><a xlink:title=" ">
<path fill="none" stroke="#63b8ff" d="M57.25,-45.61C57.25,-37.01 57.25,-27.44 57.25,-20.61"/>
<polygon fill="none" stroke="#63b8ff" points="53.75,-45.57 57.25,-55.57 60.75,-45.57 53.75,-45.57"/>
</a>
</g>
</g>
</g>
</svg>
