<?xml version="1.0" encoding="UTF-8" standalone="no"?>
<!DOCTYPE svg PUBLIC "-//W3C//DTD SVG 1.1//EN"
 "http://www.w3.org/Graphics/SVG/1.1/DTD/svg11.dtd">
<!-- Generated by graphviz version 14.1.2 (0)
 -->
<!-- Title: mqtt::lib::ConfigApplication::loadMapping Pages: 1 -->
<svg width="1333pt" height="248pt"
 viewBox="0.00 0.00 1333.00 248.00" xmlns="http://www.w3.org/2000/svg" xmlns:xlink="http://www.w3.org/1999/xlink">
<g id="graph0" class="graph" transform="scale(1 1) rotate(0) translate(4 243.88)">
<title>mqtt::lib::ConfigApplication::loadMapping</title>
<!-- Node1 -->
<g id="Node000001" class="node">
<title>Node1</title>
<g id="a_Node000001"><a xlink:title=" ">
<polygon fill="#999999" stroke="#666666" points="149.5,-142.88 0,-142.88 0,-109.38 149.5,-109.38 149.5,-142.88"/>
<text xml:space="preserve" text-anchor="start" x="8" y="-129.38" font-family="Helvetica,sans-Serif" font-size="10.00">mqtt::lib::ConfigApplication</text>
<text xml:space="preserve" text-anchor="middle" x="74.75" y="-116.62" font-family="Helvetica,sans-Serif" font-size="10.00">::loadMapping</text>
</a>
</g>
</g>
<!-- Node2 -->
<g id="Node000002" class="node">
<title>Node2</title>
<g id="a_Node000002"><a xlink:href="classmqtt_1_1lib_1_1ConfigApplication.html#a47d2012a0d29ba4851e2fd53daeb8ee3" target="_top" xlink:title=" ">
<polygon fill="white" stroke="#666666" points="335,-142.88 185.5,-142.88 185.5,-109.38 335,-109.38 335,-142.88"/>
<text xml:space="preserve" text-anchor="start" x="193.5" y="-129.38" font-family="Helvetica,sans-Serif" font-size="10.00">mqtt::lib::ConfigApplication</text>
<text xml:space="preserve" text-anchor="middle" x="260.25" y="-116.62" font-family="Helvetica,sans-Serif" font-size="10.00">::setMapping</text>
</a>
</g>
</g>
<!-- Node1&#45;&gt;Node2 -->
<g id="edge1_Node000001_Node000002" class="edge">
<title>Node1&#45;&gt;Node2</title>
<g id="a_edge1_Node000001_Node000002"><a xlink:title=" ">
<path fill="none" stroke="#63b8ff" d="M149.86,-126.12C157.77,-126.12 165.86,-126.12 173.89,-126.12"/>
<polygon fill="#63b8ff" stroke="#63b8ff" points="173.65,-129.63 183.65,-126.13 173.65,-122.63 173.65,-129.63"/>
</a>
</g>
</g>
<!-- Node3 -->
<g id="Node000003" class="node">
<title>Node3</title>
<g id="a_Node000003"><a xlink:href="classmqtt_1_1lib_1_1MqttMapper.html#a75a86af3b01f2e4b88ab29c1770a25bb" target="_top" xlink:title=" ">
<polygon fill="white" stroke="#666666" points="493.5,-142.88 371,-142.88 371,-109.38 493.5,-109.38 493.5,-142.88"/>
<text xml:space="preserve" text-anchor="start" x="379" y="-129.38" font-family="Helvetica,sans-Serif" font-size="10.00">mqtt::lib::MqttMapper</text>
<text xml:space="preserve" text-anchor="middle" x="432.25" y="-116.62" font-family="Helvetica,sans-Serif" font-size="10.00">::setMapping</text>
</a>
</g>
</g>
<!-- Node2&#45;&gt;Node3 -->
<g id="edge2_Node000002_Node000003" class="edge">
<title>Node2&#45;&gt;Node3</title>
<g id="a_edge2_Node000002_Node000003"><a xlink:title=" ">
<path fill="none" stroke="#63b8ff" d="M335.32,-126.12C343.26,-126.12 351.32,-126.12 359.23,-126.12"/>
<polygon fill="#63b8ff" stroke="#63b8ff" points="359.16,-129.63 369.16,-126.13 359.16,-122.63 359.16,-129.63"/>
</a>
</g>
</g>
<!-- Node4 -->
<g id="Node000004" class="node">
<title>Node4</title>
<g id="a_Node000004"><a xlink:href="classnlohmann_1_1json__schema_1_1json__validator.html#affff379ae30b7ab48c81d5b65e34f613" target="_top" xlink:title=" ">
<polygon fill="white" stroke="#666666" points="666.25,-142.88 529.5,-142.88 529.5,-109.38 666.25,-109.38 666.25,-142.88"/>
<text xml:space="preserve" text-anchor="start" x="537.5" y="-129.38" font-family="Helvetica,sans-Serif" font-size="10.00">nlohmann::json_schema</text>
<text xml:space="preserve" text-anchor="middle" x="597.88" y="-116.62" font-family="Helvetica,sans-Serif" font-size="10.00">::json_validator::validate</text>
</a>
</g>
</g>
<!-- Node3&#45;&gt;Node4 -->
<g id="edge3_Node000003_Node000004" class="edge">
<title>Node3&#45;&gt;Node4</title>
<g id="a_edge3_Node000003_Node000004"><a xlink:title=" ">
<path fill="none" stroke="#63b8ff" d="M493.71,-126.12C501.57,-126.12 509.71,-126.12 517.82,-126.12"/>
<polygon fill="#63b8ff" stroke="#63b8ff" points="517.7,-129.63 527.7,-126.13 517.7,-122.63 517.7,-129.63"/>
</a>
</g>
</g>
<!-- Node5 -->
<g id="Node000005" class="node">
<title>Node5</title>
<g id="a_Node000005"><a xlink:href="classnlohmann_1_1json__schema_1_1json__validator.html#ae330a21f43f257fec1d8109f51827706" target="_top" xlink:title=" ">
<polygon fill="white" stroke="#666666" points="839,-142.88 702.25,-142.88 702.25,-109.38 839,-109.38 839,-142.88"/>
<text xml:space="preserve" text-anchor="start" x="710.25" y="-129.38" font-family="Helvetica,sans-Serif" font-size="10.00">nlohmann::json_schema</text>
<text xml:space="preserve" text-anchor="middle" x="770.62" y="-116.62" font-family="Helvetica,sans-Serif" font-size="10.00">::json_validator::validate</text>
</a>
</g>
</g>
<!-- Node4&#45;&gt;Node5 -->
<g id="edge4_Node000004_Node000005" class="edge">
<title>Node4&#45;&gt;Node5</title>
<g id="a_edge4_Node000004_Node000005"><a xlink:title=" ">
<path fill="none" stroke="#63b8ff" d="M666.36,-126.12C674.28,-126.12 682.41,-126.12 690.48,-126.12"/>
<polygon fill="#63b8ff" stroke="#63b8ff" points="690.28,-129.63 700.28,-126.13 690.28,-122.63 690.28,-129.63"/>
</a>
</g>
</g>
<!-- Node6 -->
<g id="Node000006" class="node">
<title>Node6</title>
<g id="a_Node000006"><a xlink:href="classnlohmann_1_1json__schema_1_1root__schema.html#a32f6012c2d81f29ca16e4409dd2b5ea3" target="_top" xlink:title=" ">
<polygon fill="white" stroke="#666666" points="1009.5,-142.88 875,-142.88 875,-109.38 1009.5,-109.38 1009.5,-142.88"/>
<text xml:space="preserve" text-anchor="start" x="883" y="-129.38" font-family="Helvetica,sans-Serif" font-size="10.00">nlohmann::json_schema</text>
<text xml:space="preserve" text-anchor="middle" x="942.25" y="-116.62" font-family="Helvetica,sans-Serif" font-size="10.00">::root_schema::validate</text>
</a>
</g>
</g>
<!-- Node5&#45;&gt;Node6 -->
<g id="edge5_Node000005_Node000006" class="edge">
<title>Node5&#45;&gt;Node6</title>
<g id="a_edge5_Node000005_Node000006"><a xlink:title=" ">
<path fill="none" stroke="#63b8ff" d="M839.15,-126.12C847.06,-126.12 855.19,-126.12 863.23,-126.12"/>
<polygon fill="#63b8ff" stroke="#63b8ff" points="862.99,-129.63 872.99,-126.13 862.99,-122.63 862.99,-129.63"/>
</a>
</g>
</g>
<!-- Node7 -->
<g id="Node000007" class="node">
<title>Node7</title>
<g id="a_Node000007"><a xlink:href="classnlohmann_1_1json__schema_1_1error__handler.html#a6518c4580b8dd8063000e183f1541650" target="_top" xlink:title=" ">
<polygon fill="white" stroke="#666666" points="1180,-239.88 1045.5,-239.88 1045.5,-206.38 1180,-206.38 1180,-239.88"/>
<text xml:space="preserve" text-anchor="start" x="1053.5" y="-226.38" font-family="Helvetica,sans-Serif" font-size="10.00">nlohmann::json_schema</text>
<text xml:space="preserve" text-anchor="middle" x="1112.75" y="-213.62" font-family="Helvetica,sans-Serif" font-size="10.00">::error_handler::error</text>
</a>
</g>
</g>
<!-- Node6&#45;&gt;Node7 -->
<g id="edge6_Node000006_Node000007" class="edge">
<title>Node6&#45;&gt;Node7</title>
<g id="a_edge6_Node000006_Node000007"><a xlink:title=" ">
<path fill="none" stroke="#63b8ff" d="M964.64,-143.19C984.7,-158.65 1015.95,-181.35 1045.5,-197.12 1048.17,-198.55 1050.93,-199.94 1053.74,-201.29"/>
<polygon fill="#63b8ff" stroke="#63b8ff" points="1052.16,-204.41 1062.71,-205.35 1055.05,-198.04 1052.16,-204.41"/>
</a>
</g>
</g>
<!-- Node8 -->
<g id="Node000008" class="node">
<title>Node8</title>
<g id="a_Node000008"><a xlink:href="classnlohmann_1_1json__uri.html#a21ba5d6a76804eabd867a2d03370c945" target="_top" xlink:title=" ">
<polygon fill="white" stroke="#666666" points="1167.25,-187.88 1058.25,-187.88 1058.25,-154.38 1167.25,-154.38 1167.25,-187.88"/>
<text xml:space="preserve" text-anchor="start" x="1066.25" y="-174.38" font-family="Helvetica,sans-Serif" font-size="10.00">nlohmann::json_uri</text>
<text xml:space="preserve" text-anchor="middle" x="1112.75" y="-161.62" font-family="Helvetica,sans-Serif" font-size="10.00">::fragment</text>
</a>
</g>
</g>
<!-- Node6&#45;&gt;Node8 -->
<g id="edge7_Node000006_Node000008" class="edge">
<title>Node6&#45;&gt;Node8</title>
<g id="a_edge7_Node000006_Node000008"><a xlink:title=" ">
<path fill="none" stroke="#63b8ff" d="M1007.43,-143.27C1020.44,-146.74 1034.12,-150.39 1047.14,-153.87"/>
<polygon fill="#63b8ff" stroke="#63b8ff" points="1045.87,-157.15 1056.43,-156.35 1047.67,-150.39 1045.87,-157.15"/>
</a>
</g>
</g>
<!-- Node9 -->
<g id="Node000009" class="node">
<title>Node9</title>
<g id="a_Node000009"><a xlink:href="classnlohmann_1_1json__uri.html#a63674f908919cb2496e772e864be35de" target="_top" xlink:title=" ">
<polygon fill="white" stroke="#666666" points="1325,-119.88 1216,-119.88 1216,-86.38 1325,-86.38 1325,-119.88"/>
<text xml:space="preserve" text-anchor="start" x="1224" y="-106.38" font-family="Helvetica,sans-Serif" font-size="10.00">nlohmann::json_uri</text>
<text xml:space="preserve" text-anchor="middle" x="1270.5" y="-93.62" font-family="Helvetica,sans-Serif" font-size="10.00">::location</text>
</a>
</g>
</g>
<!-- Node6&#45;&gt;Node9 -->
<g id="edge8_Node000006_Node000009" class="edge">
<title>Node6&#45;&gt;Node9</title>
<g id="a_edge8_Node000006_Node000009"><a xlink:title=" ">
<path fill="none" stroke="#63b8ff" d="M1009.66,-121.44C1066.49,-117.44 1147.81,-111.7 1204.29,-107.72"/>
<polygon fill="#63b8ff" stroke="#63b8ff" points="1204.35,-111.23 1214.08,-107.03 1203.86,-104.24 1204.35,-111.23"/>
</a>
</g>
</g>
<!-- Node10 -->
<g id="Node000010" class="node">
<title>Node10</title>
<g id="a_Node000010"><a xlink:href="classnlohmann_1_1json__uri.html#a416eb06b53676b215761f43200da309f" target="_top" xlink:title=" ">
<polygon fill="white" stroke="#666666" points="1167.25,-97.88 1058.25,-97.88 1058.25,-64.38 1167.25,-64.38 1167.25,-97.88"/>
<text xml:space="preserve" text-anchor="start" x="1066.25" y="-84.38" font-family="Helvetica,sans-Serif" font-size="10.00">nlohmann::json_uri</text>
<text xml:space="preserve" text-anchor="middle" x="1112.75" y="-71.62" font-family="Helvetica,sans-Serif" font-size="10.00">::to_string</text>
</a>
</g>
</g>
<!-- Node6&#45;&gt;Node10 -->
<g id="edge9_Node000006_Node000010" class="edge">
<title>Node6&#45;&gt;Node10</title>
<g id="a_edge9_Node000006_Node000010"><a xlink:title=" ">
<path fill="none" stroke="#63b8ff" d="M1007.43,-108.98C1020.44,-105.51 1034.12,-101.86 1047.14,-98.38"/>
<polygon fill="#63b8ff" stroke="#63b8ff" points="1047.67,-101.86 1056.43,-95.9 1045.87,-95.1 1047.67,-101.86"/>
</a>
</g>
</g>
<!-- Node11 -->
<g id="Node000011" class="node">
<title>Node11</title>
<g id="a_Node000011"><a xlink:href="classanonymous__namespace_02json-validator_8cpp_03_1_1schema.html#a2509ace246d9dcec607e75377753a5ea" target="_top" xlink:title=" ">
<polygon fill="white" stroke="#666666" points="1180,-46.25 1045.5,-46.25 1045.5,0 1180,0 1180,-46.25"/>
<text xml:space="preserve" text-anchor="start" x="1053.5" y="-32.75" font-family="Helvetica,sans-Serif" font-size="10.00">anonymous_namespace</text>
<text xml:space="preserve" text-anchor="start" x="1053.5" y="-20" font-family="Helvetica,sans-Serif" font-size="10.00">{json&#45;validator::cpp}</text>
<text xml:space="preserve" text-anchor="middle" x="1112.75" y="-7.25" font-family="Helvetica,sans-Serif" font-size="10.00">::schema::validate</text>
</a>
</g>
</g>
<!-- Node6&#45;&gt;Node11 -->
<g id="edge11_Node000006_Node000011" class="edge">
<title>Node6&#45;&gt;Node11</title>
<g id="a_edge11_Node000006_Node000011"><a xlink:title=" ">
<path fill="none" stroke="#63b8ff" d="M965.72,-108.99C986,-93.9 1016.94,-71.8 1045.5,-55.12 1047.36,-54.04 1049.27,-52.96 1051.2,-51.88"/>
<polygon fill="#63b8ff" stroke="#63b8ff" points="1052.55,-55.13 1059.7,-47.32 1049.24,-48.96 1052.55,-55.13"/>
</a>
</g>
</g>
<!-- Node10&#45;&gt;Node9 -->
<g id="edge10_Node000010_Node000009" class="edge">
<title>Node10&#45;&gt;Node9</title>
<g id="a_edge10_Node000010_Node000009"><a xlink:title=" ">
<path fill="none" stroke="#63b8ff" d="M1167.35,-88.7C1179.27,-90.38 1192.04,-92.18 1204.37,-93.93"/>
<polygon fill="#63b8ff" stroke="#63b8ff" points="1203.65,-97.36 1214.04,-95.29 1204.63,-90.43 1203.65,-97.36"/>
</a>
</g>
</g>
</g>
</svg>
