<?xml version="1.0" encoding="UTF-8" standalone="no"?>
<!DOCTYPE svg PUBLIC "-//W3C//DTD SVG 1.1//EN"
 "http://www.w3.org/Graphics/SVG/1.1/DTD/svg11.dtd">
<!-- Generated by graphviz version 14.1.2 (0)
 -->
<!-- Title: mqtt::lib::MqttMapper::validate Pages: 1 -->
<svg width="962pt" height="248pt"
 viewBox="0.00 0.00 962.00 248.00" xmlns="http://www.w3.org/2000/svg" xmlns:xlink="http://www.w3.org/1999/xlink">
<g id="graph0" class="graph" transform="scale(1 1) rotate(0) translate(4 243.88)">
<title>mqtt::lib::MqttMapper::validate</title>
<!-- Node1 -->
<g id="Node000001" class="node">
<title>Node1</title>
<g id="a_Node000001"><a xlink:title=" ">
<polygon fill="#999999" stroke="#666666" points="122.5,-142.88 0,-142.88 0,-109.38 122.5,-109.38 122.5,-142.88"/>
<text xml:space="preserve" text-anchor="start" x="8" y="-129.38" font-family="Helvetica,sans-Serif" font-size="10.00">mqtt::lib::MqttMapper</text>
<text xml:space="preserve" text-anchor="middle" x="61.25" y="-116.62" font-family="Helvetica,sans-Serif" font-size="10.00">::validate</text>
</a>
</g>
</g>
<!-- Node2 -->
<g id="Node000002" class="node">
<title>Node2</title>
<g id="a_Node000002"><a xlink:href="classnlohmann_1_1json__schema_1_1json__validator.html#affff379ae30b7ab48c81d5b65e34f613" target="_top" xlink:title=" ">
<polygon fill="white" stroke="#666666" points="295.25,-142.88 158.5,-142.88 158.5,-109.38 295.25,-109.38 295.25,-142.88"/>
<text xml:space="preserve" text-anchor="start" x="166.5" y="-129.38" font-family="Helvetica,sans-Serif" font-size="10.00">nlohmann::json_schema</text>
<text xml:space="preserve" text-anchor="middle" x="226.88" y="-116.62" font-family="Helvetica,sans-Serif" font-size="10.00">::json_validator::validate</text>
</a>
</g>
</g>
<!-- Node1&#45;&gt;Node2 -->
<g id="edge1_Node000001_Node000002" class="edge">
<title>Node1&#45;&gt;Node2</title>
<g id="a_edge1_Node000001_Node000002"><a xlink:title=" ">
<path fill="none" stroke="#63b8ff" d="M122.71,-126.12C130.57,-126.12 138.71,-126.12 146.82,-126.12"/>
<polygon fill="#63b8ff" stroke="#63b8ff" points="146.7,-129.63 156.7,-126.13 146.7,-122.63 146.7,-129.63"/>
</a>
</g>
</g>
<!-- Node3 -->
<g id="Node000003" class="node">
<title>Node3</title>
<g id="a_Node000003"><a xlink:href="classnlohmann_1_1json__schema_1_1json__validator.html#ae330a21f43f257fec1d8109f51827706" target="_top" xlink:title=" ">
<polygon fill="white" stroke="#666666" points="468,-142.88 331.25,-142.88 331.25,-109.38 468,-109.38 468,-142.88"/>
<text xml:space="preserve" text-anchor="start" x="339.25" y="-129.38" font-family="Helvetica,sans-Serif" font-size="10.00">nlohmann::json_schema</text>
<text xml:space="preserve" text-anchor="middle" x="399.62" y="-116.62" font-family="Helvetica,sans-Serif" font-size="10.00">::json_validator::validate</text>
</a>
</g>
</g>
<!-- Node2&#45;&gt;Node3 -->
<g id="edge2_Node000002_Node000003" class="edge">
<title>Node2&#45;&gt;Node3</title>
<g id="a_edge2_Node000002_Node000003"><a xlink:title=" ">
<path fill="none" stroke="#63b8ff" d="M295.36,-126.12C303.28,-126.12 311.41,-126.12 319.48,-126.12"/>
<polygon fill="#63b8ff" stroke="#63b8ff" points="319.28,-129.63 329.28,-126.13 319.28,-122.63 319.28,-129.63"/>
</a>
</g>
</g>
<!-- Node4 -->
<g id="Node000004" class="node">
<title>Node4</title>
<g id="a_Node000004"><a xlink:href="classnlohmann_1_1json__schema_1_1root__schema.html#a32f6012c2d81f29ca16e4409dd2b5ea3" target="_top" xlink:title=" ">
<polygon fill="white" stroke="#666666" points="638.5,-142.88 504,-142.88 504,-109.38 638.5,-109.38 638.5,-142.88"/>
<text xml:space="preserve" text-anchor="start" x="512" y="-129.38" font-family="Helvetica,sans-Serif" font-size="10.00">nlohmann::json_schema</text>
<text xml:space="preserve" text-anchor="middle" x="571.25" y="-116.62" font-family="Helvetica,sans-Serif" font-size="10.00">::root_schema::validate</text>
</a>
</g>
</g>
<!-- Node3&#45;&gt;Node4 -->
<g id="edge3_Node000003_Node000004" class="edge">
<title>Node3&#45;&gt;Node4</title>
<g id="a_edge3_Node000003_Node000004"><a xlink:title=" ">
<path fill="none" stroke="#63b8ff" d="M468.15,-126.12C476.06,-126.12 484.19,-126.12 492.23,-126.12"/>
<polygon fill="#63b8ff" stroke="#63b8ff" points="491.99,-129.63 501.99,-126.13 491.99,-122.63 491.99,-129.63"/>
</a>
</g>
</g>
<!-- Node5 -->
<g id="Node000005" class="node">
<title>Node5</title>
<g id="a_Node000005"><a xlink:href="classnlohmann_1_1json__schema_1_1error__handler.html#a6518c4580b8dd8063000e183f1541650" target="_top" xlink:title=" ">
<polygon fill="white" stroke="#666666" points="809,-239.88 674.5,-239.88 674.5,-206.38 809,-206.38 809,-239.88"/>
<text xml:space="preserve" text-anchor="start" x="682.5" y="-226.38" font-family="Helvetica,sans-Serif" font-size="10.00">nlohmann::json_schema</text>
<text xml:space="preserve" text-anchor="middle" x="741.75" y="-213.62" font-family="Helvetica,sans-Serif" font-size="10.00">::error_handler::error</text>
</a>
</g>
</g>
<!-- Node4&#45;&gt;Node5 -->
<g id="edge4_Node000004_Node000005" class="edge">
<title>Node4&#45;&gt;Node5</title>
<g id="a_edge4_Node000004_Node000005"><a xlink:title=" ">
<path fill="none" stroke="#63b8ff" d="M593.64,-143.19C613.7,-158.65 644.95,-181.35 674.5,-197.12 677.17,-198.55 679.93,-199.94 682.74,-201.29"/>
<polygon fill="#63b8ff" stroke="#63b8ff" points="681.16,-204.41 691.71,-205.35 684.05,-198.04 681.16,-204.41"/>
</a>
</g>
</g>
<!-- Node6 -->
<g id="Node000006" class="node">
<title>Node6</title>
<g id="a_Node000006"><a xlink:href="classnlohmann_1_1json__uri.html#a21ba5d6a76804eabd867a2d03370c945" target="_top" xlink:title=" ">
<polygon fill="white" stroke="#666666" points="796.25,-187.88 687.25,-187.88 687.25,-154.38 796.25,-154.38 796.25,-187.88"/>
<text xml:space="preserve" text-anchor="start" x="695.25" y="-174.38" font-family="Helvetica,sans-Serif" font-size="10.00">nlohmann::json_uri</text>
<text xml:space="preserve" text-anchor="middle" x="741.75" y="-161.62" font-family="Helvetica,sans-Serif" font-size="10.00">::fragment</text>
</a>
</g>
</g>
<!-- Node4&#45;&gt;Node6 -->
<g id="edge5_Node000004_Node000006" class="edge">
<title>Node4&#45;&gt;Node6</title>
<g id="a_edge5_Node000004_Node000006"><a xlink:title=" ">
<path fill="none" stroke="#63b8ff" d="M636.43,-143.27C649.44,-146.74 663.12,-150.39 676.14,-153.87"/>
<polygon fill="#63b8ff" stroke="#63b8ff" points="674.87,-157.15 685.43,-156.35 676.67,-150.39 674.87,-157.15"/>
</a>
</g>
</g>
<!-- Node7 -->
<g id="Node000007" class="node">
<title>Node7</title>
<g id="a_Node000007"><a xlink:href="classnlohmann_1_1json__uri.html#a63674f908919cb2496e772e864be35de" target="_top" xlink:title=" ">
<polygon fill="white" stroke="#666666" points="954,-119.88 845,-119.88 845,-86.38 954,-86.38 954,-119.88"/>
<text xml:space="preserve" text-anchor="start" x="853" y="-106.38" font-family="Helvetica,sans-Serif" font-size="10.00">nlohmann::json_uri</text>
<text xml:space="preserve" text-anchor="middle" x="899.5" y="-93.62" font-family="Helvetica,sans-Serif" font-size="10.00">::location</text>
</a>
</g>
</g>
<!-- Node4&#45;&gt;Node7 -->
<g id="edge6_Node000004_Node000007" class="edge">
<title>Node4&#45;&gt;Node7</title>
<g id="a_edge6_Node000004_Node000007"><a xlink:title=" ">
<path fill="none" stroke="#63b8ff" d="M638.66,-121.44C695.49,-117.44 776.81,-111.7 833.29,-107.72"/>
<polygon fill="#63b8ff" stroke="#63b8ff" points="833.35,-111.23 843.08,-107.03 832.86,-104.24 833.35,-111.23"/>
</a>
</g>
</g>
<!-- Node8 -->
<g id="Node000008" class="node">
<title>Node8</title>
<g id="a_Node000008"><a xlink:href="classnlohmann_1_1json__uri.html#a416eb06b53676b215761f43200da309f" target="_top" xlink:title=" ">
<polygon fill="white" stroke="#666666" points="796.25,-97.88 687.25,-97.88 687.25,-64.38 796.25,-64.38 796.25,-97.88"/>
<text xml:space="preserve" text-anchor="start" x="695.25" y="-84.38" font-family="Helvetica,sans-Serif" font-size="10.00">nlohmann::json_uri</text>
<text xml:space="preserve" text-anchor="middle" x="741.75" y="-71.62" font-family="Helvetica,sans-Serif" font-size="10.00">::to_string</text>
</a>
</g>
</g>
<!-- Node4&#45;&gt;Node8 -->
<g id="edge7_Node000004_Node000008" class="edge">
<title>Node4&#45;&gt;Node8</title>
<g id="a_edge7_Node000004_Node000008"><a xlink:title=" ">
<path fill="none" stroke="#63b8ff" d="M636.43,-108.98C649.44,-105.51 663.12,-101.86 676.14,-98.38"/>
<polygon fill="#63b8ff" stroke="#63b8ff" points="676.67,-101.86 685.43,-95.9 674.87,-95.1 676.67,-101.86"/>
</a>
</g>
</g>
<!-- Node9 -->
<g id="Node000009" class="node">
<title>Node9</title>
<g id="a_Node000009"><a xlink:href="classanonymous__namespace_02json-validator_8cpp_03_1_1schema.html#a2509ace246d9dcec607e75377753a5ea" target="_top" xlink:title=" ">
<polygon fill="white" stroke="#666666" points="809,-46.25 674.5,-46.25 674.5,0 809,0 809,-46.25"/>
<text xml:space="preserve" text-anchor="start" x="682.5" y="-32.75" font-family="Helvetica,sans-Serif" font-size="10.00">anonymous_namespace</text>
<text xml:space="preserve" text-anchor="start" x="682.5" y="-20" font-family="Helvetica,sans-Serif" font-size="10.00">{json&#45;validator::cpp}</text>
<text xml:space="preserve" text-anchor="middle" x="741.75" y="-7.25" font-family="Helvetica,sans-Serif" font-size="10.00">::schema::validate</text>
</a>
</g>
</g>
<!-- Node4&#45;&gt;Node9 -->
<g id="edge9_Node000004_Node000009" class="edge">
<title>Node4&#45;&gt;Node9</title>
<g id="a_edge9_Node000004_Node000009"><a xlink:title=" ">
<path fill="none" stroke="#63b8ff" d="M594.72,-108.99C615,-93.9 645.94,-71.8 674.5,-55.12 676.36,-54.04 678.27,-52.96 680.2,-51.88"/>
<polygon fill="#63b8ff" stroke="#63b8ff" points="681.55,-55.13 688.7,-47.32 678.24,-48.96 681.55,-55.13"/>
</a>
</g>
</g>
<!-- Node8&#45;&gt;Node7 -->
<g id="edge8_Node000008_Node000007" class="edge">
<title>Node8&#45;&gt;Node7</title>
<g id="a_edge8_Node000008_Node000007"><a xlink:title=" ">
<path fill="none" stroke="#63b8ff" d="M796.35,-88.7C808.27,-90.38 821.04,-92.18 833.37,-93.93"/>
<polygon fill="#63b8ff" stroke="#63b8ff" points="832.65,-97.36 843.04,-95.29 833.63,-90.43 832.65,-97.36"/>
</a>
</g>
</g>
</g>
</svg>
