<?xml version="1.0" encoding="UTF-8" standalone="no"?>
<!DOCTYPE svg PUBLIC "-//W3C//DTD SVG 1.1//EN"
 "http://www.w3.org/Graphics/SVG/1.1/DTD/svg11.dtd">
<!-- Generated by graphviz version 14.1.1 (0)
 -->
<!-- Title: nlohmann::json_schema::root_schema::get_or_create_ref Pages: 1 -->
<svg width="822pt" height="548pt"
 viewBox="0.00 0.00 822.00 548.00" xmlns="http://www.w3.org/2000/svg" xmlns:xlink="http://www.w3.org/1999/xlink">
<g id="graph0" class="graph" transform="scale(1 1) rotate(0) translate(4 544.18)">
<title>nlohmann::json_schema::root_schema::get_or_create_ref</title>
<!-- Node1 -->
<g id="Node000001" class="node">
<title>Node1</title>
<g id="a_Node000001"><a xlink:title=" ">
<polygon fill="#999999" stroke="#666666" points="134.5,-295.56 0,-295.56 0,-249.31 134.5,-249.31 134.5,-295.56"/>
<text xml:space="preserve" text-anchor="start" x="8" y="-282.06" font-family="Helvetica,sans-Serif" font-size="10.00">nlohmann::json_schema</text>
<text xml:space="preserve" text-anchor="start" x="8" y="-269.31" font-family="Helvetica,sans-Serif" font-size="10.00">::root_schema::get_or</text>
<text xml:space="preserve" text-anchor="middle" x="67.25" y="-256.56" font-family="Helvetica,sans-Serif" font-size="10.00">_create_ref</text>
</a>
</g>
</g>
<!-- Node2 -->
<g id="Node000002" class="node">
<title>Node2</title>
<g id="a_Node000002"><a xlink:href="classnlohmann_1_1json__uri.html#a21ba5d6a76804eabd867a2d03370c945" target="_top" xlink:title=" ">
<polygon fill="white" stroke="#666666" points="655.75,-488.18 546.75,-488.18 546.75,-454.68 655.75,-454.68 655.75,-488.18"/>
<text xml:space="preserve" text-anchor="start" x="554.75" y="-474.68" font-family="Helvetica,sans-Serif" font-size="10.00">nlohmann::json_uri</text>
<text xml:space="preserve" text-anchor="middle" x="601.25" y="-461.93" font-family="Helvetica,sans-Serif" font-size="10.00">::fragment</text>
</a>
</g>
</g>
<!-- Node1&#45;&gt;Node2 -->
<g id="edge1_Node000001_Node000002" class="edge">
<title>Node1&#45;&gt;Node2</title>
<g id="a_edge1_Node000001_Node000002"><a xlink:title=" ">
<path fill="none" stroke="#63b8ff" d="M99.26,-296C119.14,-310.67 145.77,-329.52 170.5,-344.43 243.35,-388.37 260.05,-405.28 341,-431.43 405.19,-452.17 481.9,-462.3 535.15,-467.16"/>
<polygon fill="#63b8ff" stroke="#63b8ff" points="534.7,-470.63 544.96,-468.01 535.31,-463.66 534.7,-470.63"/>
</a>
</g>
</g>
<!-- Node3 -->
<g id="Node000003" class="node">
<title>Node3</title>
<g id="a_Node000003"><a xlink:href="classnlohmann_1_1json__schema_1_1root__schema.html#a4e3471b8e7c245a72c469b7695d2d327" target="_top" xlink:title=" ">
<polygon fill="white" stroke="#666666" points="668.5,-334.56 534,-334.56 534,-288.31 668.5,-288.31 668.5,-334.56"/>
<text xml:space="preserve" text-anchor="start" x="542" y="-321.06" font-family="Helvetica,sans-Serif" font-size="10.00">nlohmann::json_schema</text>
<text xml:space="preserve" text-anchor="start" x="542" y="-308.31" font-family="Helvetica,sans-Serif" font-size="10.00">::root_schema::get_or</text>
<text xml:space="preserve" text-anchor="middle" x="601.25" y="-295.56" font-family="Helvetica,sans-Serif" font-size="10.00">_create_file</text>
</a>
</g>
</g>
<!-- Node1&#45;&gt;Node3 -->
<g id="edge2_Node000001_Node000003" class="edge">
<title>Node1&#45;&gt;Node3</title>
<g id="a_edge2_Node000001_Node000003"><a xlink:title=" ">
<path fill="none" stroke="#63b8ff" d="M106.03,-296.04C124.68,-306.33 147.98,-317.22 170.5,-322.43 290.89,-350.29 435.31,-337.51 522.32,-325.01"/>
<polygon fill="#63b8ff" stroke="#63b8ff" points="522.81,-328.48 532.19,-323.55 521.79,-321.55 522.81,-328.48"/>
</a>
</g>
</g>
<!-- Node4 -->
<g id="Node000004" class="node">
<title>Node4</title>
<g id="a_Node000004"><a xlink:href="classnlohmann_1_1json__uri.html#a63674f908919cb2496e772e864be35de" target="_top" xlink:title=" ">
<polygon fill="white" stroke="#666666" points="813.5,-334.18 704.5,-334.18 704.5,-300.68 813.5,-300.68 813.5,-334.18"/>
<text xml:space="preserve" text-anchor="start" x="712.5" y="-320.68" font-family="Helvetica,sans-Serif" font-size="10.00">nlohmann::json_uri</text>
<text xml:space="preserve" text-anchor="middle" x="759" y="-307.93" font-family="Helvetica,sans-Serif" font-size="10.00">::location</text>
</a>
</g>
</g>
<!-- Node1&#45;&gt;Node4 -->
<g id="edge3_Node000001_Node000004" class="edge">
<title>Node1&#45;&gt;Node4</title>
<g id="a_edge3_Node000001_Node000004"><a xlink:title=" ">
<path fill="none" stroke="#63b8ff" d="M76.42,-249.1C90.04,-213.93 120.88,-148.02 170.5,-115.43 356.08,6.42 486.23,50.31 668.5,-76.43 738.89,-125.38 754.04,-236.57 757.21,-289.03"/>
<polygon fill="#63b8ff" stroke="#63b8ff" points="753.71,-289.12 757.69,-298.94 760.7,-288.78 753.71,-289.12"/>
</a>
</g>
</g>
<!-- Node5 -->
<g id="Node000005" class="node">
<title>Node5</title>
<g id="a_Node000005"><a xlink:href="classanonymous__namespace_02json-validator_8cpp_03_1_1schema.html#aafee860997369c77204d5b1a7d095c3f" target="_top" xlink:title=" ">
<polygon fill="white" stroke="#666666" points="305,-295.56 170.5,-295.56 170.5,-249.31 305,-249.31 305,-295.56"/>
<text xml:space="preserve" text-anchor="start" x="178.5" y="-282.06" font-family="Helvetica,sans-Serif" font-size="10.00">anonymous_namespace</text>
<text xml:space="preserve" text-anchor="start" x="178.5" y="-269.31" font-family="Helvetica,sans-Serif" font-size="10.00">{json&#45;validator::cpp}</text>
<text xml:space="preserve" text-anchor="middle" x="237.75" y="-256.56" font-family="Helvetica,sans-Serif" font-size="10.00">::schema::make</text>
</a>
</g>
</g>
<!-- Node1&#45;&gt;Node5 -->
<g id="edge4_Node000001_Node000005" class="edge">
<title>Node1&#45;&gt;Node5</title>
<g id="a_edge4_Node000001_Node000005"><a xlink:title=" ">
<path fill="none" stroke="#63b8ff" d="M134.85,-265.82C142.72,-265.7 150.82,-265.66 158.83,-265.7"/>
<polygon fill="#63b8ff" stroke="#63b8ff" points="158.54,-269.2 168.57,-265.8 158.61,-262.2 158.54,-269.2"/>
</a>
</g>
</g>
<!-- Node11 -->
<g id="Node000011" class="node">
<title>Node11</title>
<g id="a_Node000011"><a xlink:href="classnlohmann_1_1json__uri.html#a416eb06b53676b215761f43200da309f" target="_top" xlink:title=" ">
<polygon fill="white" stroke="#666666" points="655.75,-540.18 546.75,-540.18 546.75,-506.68 655.75,-506.68 655.75,-540.18"/>
<text xml:space="preserve" text-anchor="start" x="554.75" y="-526.68" font-family="Helvetica,sans-Serif" font-size="10.00">nlohmann::json_uri</text>
<text xml:space="preserve" text-anchor="middle" x="601.25" y="-513.93" font-family="Helvetica,sans-Serif" font-size="10.00">::to_string</text>
</a>
</g>
</g>
<!-- Node1&#45;&gt;Node11 -->
<g id="edge27_Node000001_Node000011" class="edge">
<title>Node1&#45;&gt;Node11</title>
<g id="a_edge27_Node000001_Node000011"><a xlink:title=" ">
<path fill="none" stroke="#63b8ff" d="M83.25,-295.74C101.37,-322.49 134,-366.38 170.5,-395.43 236.91,-448.28 260.28,-455.23 341,-481.43 405.24,-502.29 481.94,-513.07 535.17,-518.45"/>
<polygon fill="#63b8ff" stroke="#63b8ff" points="534.7,-521.92 544.99,-519.41 535.37,-514.96 534.7,-521.92"/>
</a>
</g>
</g>
<!-- Node13 -->
<g id="Node000013" class="node">
<title>Node13</title>
<g id="a_Node000013"><a xlink:href="classnlohmann_1_1json__uri.html#ab01bdcb8bf65ee07703d1ccb69c9f3ee" target="_top" xlink:title=" ">
<polygon fill="white" stroke="#666666" points="655.75,-119.18 546.75,-119.18 546.75,-85.68 655.75,-85.68 655.75,-119.18"/>
<text xml:space="preserve" text-anchor="start" x="554.75" y="-105.68" font-family="Helvetica,sans-Serif" font-size="10.00">nlohmann::json_uri</text>
<text xml:space="preserve" text-anchor="middle" x="601.25" y="-92.93" font-family="Helvetica,sans-Serif" font-size="10.00">::pointer</text>
</a>
</g>
</g>
<!-- Node1&#45;&gt;Node13 -->
<g id="edge26_Node000001_Node000013" class="edge">
<title>Node1&#45;&gt;Node13</title>
<g id="a_edge26_Node000001_Node000013"><a xlink:title=" ">
<path fill="none" stroke="#63b8ff" d="M95.27,-248.84C141.68,-210.04 241.23,-134.18 341,-105.43 405.07,-86.98 481.8,-88.87 535.08,-93.75"/>
<polygon fill="#63b8ff" stroke="#63b8ff" points="534.61,-97.22 544.91,-94.72 535.3,-90.26 534.61,-97.22"/>
</a>
</g>
</g>
<!-- Node5&#45;&gt;Node1 -->
<g id="edge8_Node000005_Node000001" class="edge">
<title>Node5&#45;&gt;Node1</title>
<g id="a_edge8_Node000005_Node000001"><a xlink:title=" ">
<path fill="none" stroke="#63b8ff" d="M170.09,-279.05C162.21,-279.17 154.11,-279.21 146.1,-279.17"/>
<polygon fill="#63b8ff" stroke="#63b8ff" points="146.39,-275.67 136.36,-279.07 146.32,-282.67 146.39,-275.67"/>
</a>
</g>
</g>
<!-- Node5&#45;&gt;Node5 -->
<g id="edge23_Node000005_Node000005" class="edge">
<title>Node5&#45;&gt;Node5</title>
<g id="a_edge23_Node000005_Node000005"><a xlink:title=" ">
<path fill="none" stroke="#63b8ff" d="M206.06,-295.69C203.88,-305.36 214.44,-313.56 237.75,-313.56 251.59,-313.56 260.94,-310.67 265.79,-306.29"/>
<polygon fill="#63b8ff" stroke="#63b8ff" points="269,-307.71 268.95,-297.12 262.38,-305.43 269,-307.71"/>
</a>
</g>
</g>
<!-- Node6 -->
<g id="Node000006" class="node">
<title>Node6</title>
<g id="a_Node000006"><a xlink:href="classnlohmann_1_1json__uri.html#acef9db8f1ac5317e1f124453d9587938" target="_top" xlink:title=" ">
<polygon fill="white" stroke="#666666" points="655.75,-270.18 546.75,-270.18 546.75,-236.68 655.75,-236.68 655.75,-270.18"/>
<text xml:space="preserve" text-anchor="start" x="554.75" y="-256.68" font-family="Helvetica,sans-Serif" font-size="10.00">nlohmann::json_uri</text>
<text xml:space="preserve" text-anchor="middle" x="601.25" y="-243.93" font-family="Helvetica,sans-Serif" font-size="10.00">::append</text>
</a>
</g>
</g>
<!-- Node5&#45;&gt;Node6 -->
<g id="edge5_Node000005_Node000006" class="edge">
<title>Node5&#45;&gt;Node6</title>
<g id="a_edge5_Node000005_Node000006"><a xlink:title=" ">
<path fill="none" stroke="#63b8ff" d="M305.31,-295.08C358.47,-309.7 434.33,-322.71 498,-303.43 516.4,-297.86 516.95,-288.33 534,-279.43 536.82,-277.96 539.75,-276.52 542.73,-275.12"/>
<polygon fill="#63b8ff" stroke="#63b8ff" points="543.92,-278.42 551.62,-271.15 541.06,-272.03 543.92,-278.42"/>
</a>
</g>
</g>
<!-- Node7 -->
<g id="Node000007" class="node">
<title>Node7</title>
<g id="a_Node000007"><a xlink:href="classnlohmann_1_1json__uri.html#ab601a9e32d487e9484f12c57ec1befc1" target="_top" xlink:title=" ">
<polygon fill="white" stroke="#666666" points="474,-212.18 365,-212.18 365,-178.68 474,-178.68 474,-212.18"/>
<text xml:space="preserve" text-anchor="start" x="373" y="-198.68" font-family="Helvetica,sans-Serif" font-size="10.00">nlohmann::json_uri</text>
<text xml:space="preserve" text-anchor="middle" x="419.5" y="-185.93" font-family="Helvetica,sans-Serif" font-size="10.00">::derive</text>
</a>
</g>
</g>
<!-- Node5&#45;&gt;Node7 -->
<g id="edge6_Node000005_Node000007" class="edge">
<title>Node5&#45;&gt;Node7</title>
<g id="a_edge6_Node000005_Node000007"><a xlink:title=" ">
<path fill="none" stroke="#63b8ff" d="M282.67,-248.85C300.51,-239.71 321.49,-229.53 341,-221.43 345.28,-219.66 349.72,-217.91 354.22,-216.22"/>
<polygon fill="#63b8ff" stroke="#63b8ff" points="355.16,-219.61 363.35,-212.89 352.76,-213.03 355.16,-219.61"/>
</a>
</g>
</g>
<!-- Node9 -->
<g id="Node000009" class="node">
<title>Node9</title>
<g id="a_Node000009"><a xlink:href="classnlohmann_1_1json__schema_1_1root__schema.html#a685904131f0693e56f14a9e9db5f044e" target="_top" xlink:title=" ">
<polygon fill="white" stroke="#666666" points="486.75,-422.18 352.25,-422.18 352.25,-388.68 486.75,-388.68 486.75,-422.18"/>
<text xml:space="preserve" text-anchor="start" x="360.25" y="-408.68" font-family="Helvetica,sans-Serif" font-size="10.00">nlohmann::json_schema</text>
<text xml:space="preserve" text-anchor="middle" x="419.5" y="-395.93" font-family="Helvetica,sans-Serif" font-size="10.00">::root_schema::insert</text>
</a>
</g>
</g>
<!-- Node5&#45;&gt;Node9 -->
<g id="edge9_Node000005_Node000009" class="edge">
<title>Node5&#45;&gt;Node9</title>
<g id="a_edge9_Node000005_Node000009"><a xlink:title=" ">
<path fill="none" stroke="#63b8ff" d="M270.47,-295.9C303.04,-320 353.45,-357.3 386.22,-381.55"/>
<polygon fill="#63b8ff" stroke="#63b8ff" points="384.04,-384.29 394.16,-387.42 388.2,-378.66 384.04,-384.29"/>
</a>
</g>
</g>
<!-- Node5&#45;&gt;Node11 -->
<g id="edge25_Node000005_Node000011" class="edge">
<title>Node5&#45;&gt;Node11</title>
<g id="a_edge25_Node000005_Node000011"><a xlink:title=" ">
<path fill="none" stroke="#63b8ff" d="M247.95,-295.88C262.61,-330.33 294.44,-394.54 341,-431.43 397.99,-476.6 478.9,-500.58 535.11,-512.6"/>
<polygon fill="#63b8ff" stroke="#63b8ff" points="534.38,-516.03 544.88,-514.62 535.79,-509.17 534.38,-516.03"/>
</a>
</g>
</g>
<!-- Node12 -->
<g id="Node000012" class="node">
<title>Node12</title>
<g id="a_Node000012"><a xlink:href="classnlohmann_1_1json__schema_1_1root__schema.html#a4c543fe7b89e76b3fdd17a6883696238" target="_top" xlink:title=" ">
<polygon fill="white" stroke="#666666" points="486.75,-276.56 352.25,-276.56 352.25,-230.31 486.75,-230.31 486.75,-276.56"/>
<text xml:space="preserve" text-anchor="start" x="360.25" y="-263.06" font-family="Helvetica,sans-Serif" font-size="10.00">nlohmann::json_schema</text>
<text xml:space="preserve" text-anchor="start" x="360.25" y="-250.31" font-family="Helvetica,sans-Serif" font-size="10.00">::root_schema::insert</text>
<text xml:space="preserve" text-anchor="middle" x="419.5" y="-237.56" font-family="Helvetica,sans-Serif" font-size="10.00">_unknown_keyword</text>
</a>
</g>
</g>
<!-- Node5&#45;&gt;Node12 -->
<g id="edge16_Node000005_Node000012" class="edge">
<title>Node5&#45;&gt;Node12</title>
<g id="a_edge16_Node000005_Node000012"><a xlink:title=" ">
<path fill="none" stroke="#63b8ff" d="M305.43,-258.84C316.94,-257.42 328.99,-256.09 340.76,-254.96"/>
<polygon fill="#63b8ff" stroke="#63b8ff" points="340.79,-258.47 350.42,-254.06 340.14,-251.5 340.79,-258.47"/>
</a>
</g>
</g>
<!-- Node14 -->
<g id="Node000014" class="node">
<title>Node14</title>
<g id="a_Node000014"><a xlink:href="classanonymous__namespace_02json-validator_8cpp_03_1_1schema.html#a6ba2d224dd0a4372ac03f679de8316bd" target="_top" xlink:title=" ">
<polygon fill="white" stroke="#666666" points="498,-160.56 341,-160.56 341,-114.31 498,-114.31 498,-160.56"/>
<text xml:space="preserve" text-anchor="start" x="349" y="-147.06" font-family="Helvetica,sans-Serif" font-size="10.00">anonymous_namespace</text>
<text xml:space="preserve" text-anchor="start" x="349" y="-134.31" font-family="Helvetica,sans-Serif" font-size="10.00">{json&#45;validator::cpp}</text>
<text xml:space="preserve" text-anchor="middle" x="419.5" y="-121.56" font-family="Helvetica,sans-Serif" font-size="10.00">::schema::make_for_default_</text>
</a>
</g>
</g>
<!-- Node5&#45;&gt;Node14 -->
<g id="edge24_Node000005_Node000014" class="edge">
<title>Node5&#45;&gt;Node14</title>
<g id="a_edge24_Node000005_Node000014"><a xlink:title=" ">
<path fill="none" stroke="#63b8ff" d="M257.33,-248.88C276.33,-226.07 307.72,-191.73 341,-169.43 342.4,-168.5 343.83,-167.58 345.28,-166.68"/>
<polygon fill="#63b8ff" stroke="#63b8ff" points="346.93,-169.77 353.9,-161.79 343.47,-163.68 346.93,-169.77"/>
</a>
</g>
</g>
<!-- Node8 -->
<g id="Node000008" class="node">
<title>Node8</title>
<g id="a_Node000008"><a xlink:href="classnlohmann_1_1json__uri.html#a6a73807e46532b22e02ae6602cdedcdc" target="_top" xlink:title=" ">
<polygon fill="white" stroke="#666666" points="655.75,-180.18 546.75,-180.18 546.75,-146.68 655.75,-146.68 655.75,-180.18"/>
<text xml:space="preserve" text-anchor="start" x="554.75" y="-166.68" font-family="Helvetica,sans-Serif" font-size="10.00">nlohmann::json_uri</text>
<text xml:space="preserve" text-anchor="middle" x="601.25" y="-153.93" font-family="Helvetica,sans-Serif" font-size="10.00">::update</text>
</a>
</g>
</g>
<!-- Node7&#45;&gt;Node8 -->
<g id="edge7_Node000007_Node000008" class="edge">
<title>Node7&#45;&gt;Node8</title>
<g id="a_edge7_Node000007_Node000008"><a xlink:title=" ">
<path fill="none" stroke="#63b8ff" d="M474.43,-185.83C493.54,-182.43 515.24,-178.57 535.18,-175.02"/>
<polygon fill="#63b8ff" stroke="#63b8ff" points="535.64,-178.49 544.87,-173.29 534.41,-171.6 535.64,-178.49"/>
</a>
</g>
</g>
<!-- Node9&#45;&gt;Node2 -->
<g id="edge10_Node000009_Node000002" class="edge">
<title>Node9&#45;&gt;Node2</title>
<g id="a_edge10_Node000009_Node000002"><a xlink:title=" ">
<path fill="none" stroke="#63b8ff" d="M467.26,-422.6C490.36,-431.09 518.45,-441.4 542.85,-450.36"/>
<polygon fill="#63b8ff" stroke="#63b8ff" points="541.4,-453.55 551.99,-453.71 543.81,-446.98 541.4,-453.55"/>
</a>
</g>
</g>
<!-- Node9&#45;&gt;Node3 -->
<g id="edge11_Node000009_Node000003" class="edge">
<title>Node9&#45;&gt;Node3</title>
<g id="a_edge11_Node000009_Node000003"><a xlink:title=" ">
<path fill="none" stroke="#63b8ff" d="M470.46,-388.28C479.88,-384.27 489.45,-379.62 498,-374.43 516.05,-363.47 516.34,-355.01 534,-343.43 535.4,-342.51 536.83,-341.6 538.29,-340.71"/>
<polygon fill="#63b8ff" stroke="#63b8ff" points="539.97,-343.78 546.86,-335.72 536.46,-337.72 539.97,-343.78"/>
</a>
</g>
</g>
<!-- Node9&#45;&gt;Node4 -->
<g id="edge12_Node000009_Node000004" class="edge">
<title>Node9&#45;&gt;Node4</title>
<g id="a_edge12_Node000009_Node000004"><a xlink:title=" ">
<path fill="none" stroke="#63b8ff" d="M487.16,-419.71C538.7,-427.57 610.75,-431.45 668.5,-407.43 699.38,-394.59 725.1,-365.35 740.93,-343.66"/>
<polygon fill="#63b8ff" stroke="#63b8ff" points="743.74,-345.75 746.61,-335.55 738.01,-341.73 743.74,-345.75"/>
</a>
</g>
</g>
<!-- Node10 -->
<g id="Node000010" class="node">
<title>Node10</title>
<g id="a_Node000010"><a xlink:href="classanonymous__namespace_02json-validator_8cpp_03_1_1schema__ref.html#ae191a0c47357ebad5942fbab77135375" target="_top" xlink:title=" ">
<polygon fill="white" stroke="#666666" points="668.5,-398.56 534,-398.56 534,-352.31 668.5,-352.31 668.5,-398.56"/>
<text xml:space="preserve" text-anchor="start" x="542" y="-385.06" font-family="Helvetica,sans-Serif" font-size="10.00">anonymous_namespace</text>
<text xml:space="preserve" text-anchor="start" x="542" y="-372.31" font-family="Helvetica,sans-Serif" font-size="10.00">{json&#45;validator::cpp}</text>
<text xml:space="preserve" text-anchor="middle" x="601.25" y="-359.56" font-family="Helvetica,sans-Serif" font-size="10.00">::schema_ref::set_target</text>
</a>
</g>
</g>
<!-- Node9&#45;&gt;Node10 -->
<g id="edge13_Node000009_Node000010" class="edge">
<title>Node9&#45;&gt;Node10</title>
<g id="a_edge13_Node000009_Node000010"><a xlink:title=" ">
<path fill="none" stroke="#63b8ff" d="M487.18,-394.3C498.69,-392.38 510.74,-390.37 522.51,-388.41"/>
<polygon fill="#63b8ff" stroke="#63b8ff" points="522.9,-391.89 532.19,-386.79 521.75,-384.99 522.9,-391.89"/>
</a>
</g>
</g>
<!-- Node9&#45;&gt;Node11 -->
<g id="edge14_Node000009_Node000011" class="edge">
<title>Node9&#45;&gt;Node11</title>
<g id="a_edge14_Node000009_Node000011"><a xlink:title=" ">
<path fill="none" stroke="#63b8ff" d="M438.08,-422.61C459.36,-442.67 496.96,-475.85 534,-497.43 536.3,-498.77 538.68,-500.07 541.11,-501.32"/>
<polygon fill="#63b8ff" stroke="#63b8ff" points="539.42,-504.39 549.95,-505.57 542.45,-498.08 539.42,-504.39"/>
</a>
</g>
</g>
<!-- Node11&#45;&gt;Node4 -->
<g id="edge15_Node000011_Node000004" class="edge">
<title>Node11&#45;&gt;Node4</title>
<g id="a_edge15_Node000011_Node000004"><a xlink:title=" ">
<path fill="none" stroke="#63b8ff" d="M656.04,-506.46C660.53,-503.85 664.76,-500.86 668.5,-497.43 714.32,-455.45 739.7,-384.78 750.91,-345.64"/>
<polygon fill="#63b8ff" stroke="#63b8ff" points="754.27,-346.61 753.54,-336.04 747.52,-344.76 754.27,-346.61"/>
</a>
</g>
</g>
<!-- Node12&#45;&gt;Node3 -->
<g id="edge18_Node000012_Node000003" class="edge">
<title>Node12&#45;&gt;Node3</title>
<g id="a_edge18_Node000012_Node000003"><a xlink:title=" ">
<path fill="none" stroke="#63b8ff" d="M487.18,-274.95C498.8,-278.7 510.99,-282.63 522.87,-286.47"/>
<polygon fill="#63b8ff" stroke="#63b8ff" points="521.65,-289.75 532.24,-289.49 523.8,-283.09 521.65,-289.75"/>
</a>
</g>
</g>
<!-- Node12&#45;&gt;Node4 -->
<g id="edge20_Node000012_Node000004" class="edge">
<title>Node12&#45;&gt;Node4</title>
<g id="a_edge20_Node000012_Node000004"><a xlink:title=" ">
<path fill="none" stroke="#63b8ff" d="M485.66,-229.87C537.19,-215.12 609.94,-203.08 668.5,-227.43 699.38,-240.27 725.1,-269.52 740.93,-291.2"/>
<polygon fill="#63b8ff" stroke="#63b8ff" points="738.01,-293.14 746.61,-299.31 743.74,-289.12 738.01,-293.14"/>
</a>
</g>
</g>
<!-- Node12&#45;&gt;Node5 -->
<g id="edge21_Node000012_Node000005" class="edge">
<title>Node12&#45;&gt;Node5</title>
<g id="a_edge21_Node000012_Node000005"><a xlink:title=" ">
<path fill="none" stroke="#63b8ff" d="M351.93,-267.01C340.43,-268.44 328.37,-269.76 316.6,-270.9"/>
<polygon fill="#63b8ff" stroke="#63b8ff" points="316.57,-267.39 306.93,-271.79 317.21,-274.36 316.57,-267.39"/>
</a>
</g>
</g>
<!-- Node12&#45;&gt;Node6 -->
<g id="edge17_Node000012_Node000006" class="edge">
<title>Node12&#45;&gt;Node6</title>
<g id="a_edge17_Node000012_Node000006"><a xlink:title=" ">
<path fill="none" stroke="#63b8ff" d="M487.18,-253.43C502.85,-253.43 519.54,-253.43 535.15,-253.43"/>
<polygon fill="#63b8ff" stroke="#63b8ff" points="534.78,-256.93 544.78,-253.43 534.78,-249.93 534.78,-256.93"/>
</a>
</g>
</g>
<!-- Node12&#45;&gt;Node12 -->
<g id="edge19_Node000012_Node000012" class="edge">
<title>Node12&#45;&gt;Node12</title>
<g id="a_edge19_Node000012_Node000012"><a xlink:title=" ">
<path fill="none" stroke="#63b8ff" d="M385.72,-276.69C383.39,-286.36 394.65,-294.56 419.5,-294.56 434.25,-294.56 444.22,-291.67 449.39,-287.29"/>
<polygon fill="#63b8ff" stroke="#63b8ff" points="452.6,-288.7 452.76,-278.11 446.03,-286.29 452.6,-288.7"/>
</a>
</g>
</g>
<!-- Node12&#45;&gt;Node13 -->
<g id="edge22_Node000012_Node000013" class="edge">
<title>Node12&#45;&gt;Node13</title>
<g id="a_edge22_Node000012_Node000013"><a xlink:title=" ">
<path fill="none" stroke="#63b8ff" d="M487.05,-230.32C490.99,-227.66 494.68,-224.7 498,-221.43 526.91,-192.9 506.47,-167.3 534,-137.43 538.08,-133.01 542.85,-129.04 547.92,-125.51"/>
<polygon fill="#63b8ff" stroke="#63b8ff" points="549.41,-128.71 556.02,-120.42 545.69,-122.78 549.41,-128.71"/>
</a>
</g>
</g>
</g>
</svg>
