<?xml version="1.0" encoding="UTF-8" standalone="no"?>
<!DOCTYPE svg PUBLIC "-//W3C//DTD SVG 1.1//EN"
 "http://www.w3.org/Graphics/SVG/1.1/DTD/svg11.dtd">
<!-- Generated by graphviz version 14.1.2 (0)
 -->
<!-- Title: nlohmann::json_schema::error_handler Pages: 1 -->
<!--zoomable 232 -->

<svg id="main" version="1.1" xmlns="http://www.w3.org/2000/svg" xmlns:xlink="http://www.w3.org/1999/xlink" xml:space="preserve" onload="init(evt)">

<style type="text/css"><![CDATA[
.node, .edge {opacity: 0.7;}
.node.selected, .edge.selected {opacity: 1;}
.edge:hover path { stroke: red; }
.edge:hover polygon { stroke: red; fill: red; }
]]></style>

<defs>
  <circle id="rim" cx="0" cy="0" r="7"/>
  <circle id="rim2" cx="0" cy="0" r="3.5"/>
  <g id="zoomPlus">
    <use xlink:href="#rim" fill="#404040"><set attributeName="fill" to="#808080" begin="zoomplus.mouseover" end="zoomplus.mouseout"/></use>
    <path d="M-4,0h8M0,-4v8" fill="none" stroke="white" stroke-width="1.5" pointer-events="none"/>
  </g>
  <g id="zoomMin">
    <use xlink:href="#rim" fill="#404040"><set attributeName="fill" to="#808080" begin="zoomminus.mouseover" end="zoomminus.mouseout"/></use>
    <path d="M-4,0h8" fill="none" stroke="white" stroke-width="1.5" pointer-events="none"/>
  </g>
  <g id="arrowUp" transform="translate(30 24)">
    <use xlink:href="#rim"/>
    <path pointer-events="none" fill="none" stroke="white" stroke-width="1.5" d="M0,-3.0v7 M-2.5,-0.5L0,-3.0L2.5,-0.5"/>
  </g>
  <g id="arrowRight" transform="rotate(90) translate(36 -43)">
    <use xlink:href="#rim"/>
    <path pointer-events="none" fill="none" stroke="white" stroke-width="1.5" d="M0,-3.0v7 M-2.5,-0.5L0,-3.0L2.5,-0.5"/>
  </g>
  <g id="arrowDown" transform="rotate(180) translate(-30 -48)">
    <use xlink:href="#rim"/>
    <path pointer-events="none" fill="none" stroke="white" stroke-width="1.5" d="M0,-3.0v7 M-2.5,-0.5L0,-3.0L2.5,-0.5"/>
  </g>
  <g id="arrowLeft" transform="rotate(270) translate(-36 17)">
    <use xlink:href="#rim"/>
    <path pointer-events="none" fill="none" stroke="white" stroke-width="1.5" d="M0,-3.0v7 M-2.5,-0.5L0,-3.0L2.5,-0.5"/>
  </g>
  <g id="resetDef">
    <use xlink:href="#rim2" fill="#404040"><set attributeName="fill" to="#808080" begin="reset.mouseover" end="reset.mouseout"/></use>
  </g>
</defs>
<script type="application/ecmascript">
var viewWidth = 1052;
var viewHeight = 232;
var sectionId = 'dynsection-0';
</script>
<script type="application/ecmascript" xlink:href="svg.min.js"/>
<svg id="graph" class="graph">
<g id="viewport">
<title>nlohmann::json_schema::error_handler</title>
<!-- Node1 -->
<g id="Node000001" class="node">
<title>Node1</title>
<g id="a_Node000001"><a xlink:title=" ">
<polygon fill="#999999" stroke="none" points="458.5,-223.5 332,-223.5 332,-190 458.5,-190 458.5,-223.5"/>
<text xml:space="preserve" text-anchor="start" x="336" y="-210" font-family="Helvetica,sans-Serif" font-size="10.00">nlohmann::json_schema</text>
<text xml:space="preserve" text-anchor="start" x="359.62" y="-197.25" font-family="Helvetica,sans-Serif" font-size="10.00">::error_handler</text>
<polygon fill="none" stroke="#666666" points="332,-190 332,-223.5 458.5,-223.5 458.5,-190 332,-190"/>
</a>
</g>
</g>
<!-- Node2 -->
<g id="Node000002" class="node">
<title>Node2</title>
<g id="a_Node000002"><a xlink:href="classanonymous__namespace_02issue-105-verbose-combination-errors_8cpp_03_1_1MyErrorHandler.html" target="_top" xlink:title=" ">
<polygon fill="white" stroke="none" points="168.5,-147.62 0,-147.62 0,-101.38 168.5,-101.38 168.5,-147.62"/>
<text xml:space="preserve" text-anchor="start" x="4" y="-134.12" font-family="Helvetica,sans-Serif" font-size="10.00">anonymous_namespace</text>
<text xml:space="preserve" text-anchor="start" x="4" y="-121.38" font-family="Helvetica,sans-Serif" font-size="10.00">{issue&#45;105&#45;verbose&#45;combination</text>
<text xml:space="preserve" text-anchor="start" x="13.75" y="-108.62" font-family="Helvetica,sans-Serif" font-size="10.00">&#45;errors.cpp}::MyErrorHandler</text>
<polygon fill="none" stroke="#666666" points="0,-101.38 0,-147.62 168.5,-147.62 168.5,-101.38 0,-101.38"/>
</a>
</g>
</g>
<!-- Node1&#45;&gt;Node2 -->
<g id="edge1_Node000001_Node000002" class="edge">
<title>Node1&#45;&gt;Node2</title>
<g id="a_edge1_Node000001_Node000002"><a xlink:title=" ">
<path fill="none" stroke="#63b8ff" d="M321.39,-191.06C276.96,-181.22 219.57,-167.61 169.25,-154 161.84,-152 154.13,-149.82 146.51,-147.58"/>
<polygon fill="none" stroke="#63b8ff" points="320.39,-194.42 330.91,-193.15 321.89,-187.59 320.39,-194.42"/>
</a>
</g>
</g>
<!-- Node1&#45;&gt;Node2 -->
<g id="edge2_Node000001_Node000002" class="edge">
<title>Node1&#45;&gt;Node2</title>
<g id="a_edge2_Node000001_Node000002"><a xlink:title=" ">
<path fill="none" stroke="#63b8ff" d="M321.47,-187.45C281.61,-178.03 231.67,-166.02 187.25,-154 179.84,-152 172.13,-149.82 164.41,-147.58"/>
<polygon fill="none" stroke="#63b8ff" points="320.43,-190.8 330.96,-189.69 322.03,-183.99 320.43,-190.8"/>
</a>
</g>
</g>
<!-- Node3 -->
<g id="Node000003" class="node">
<title>Node3</title>
<g id="a_Node000003"><a xlink:href="classanonymous__namespace_02json-validator_8cpp_03_1_1first__error__handler.html" target="_top" xlink:title=" ">
<polygon fill="white" stroke="none" points="313.5,-147.62 187,-147.62 187,-101.38 313.5,-101.38 313.5,-147.62"/>
<text xml:space="preserve" text-anchor="start" x="191" y="-134.12" font-family="Helvetica,sans-Serif" font-size="10.00">anonymous_namespace</text>
<text xml:space="preserve" text-anchor="start" x="191" y="-121.38" font-family="Helvetica,sans-Serif" font-size="10.00">{json&#45;validator.cpp}</text>
<text xml:space="preserve" text-anchor="start" x="202.25" y="-108.62" font-family="Helvetica,sans-Serif" font-size="10.00">::first_error_handler</text>
<polygon fill="none" stroke="#666666" points="187,-101.38 187,-147.62 313.5,-147.62 313.5,-101.38 187,-101.38"/>
</a>
</g>
</g>
<!-- Node1&#45;&gt;Node3 -->
<g id="edge3_Node000001_Node000003" class="edge">
<title>Node1&#45;&gt;Node3</title>
<g id="a_edge3_Node000001_Node000003"><a xlink:title=" ">
<path fill="none" stroke="#63b8ff" d="M351.5,-184.86C329.8,-173.38 304.05,-159.15 283.9,-147.5"/>
<polygon fill="none" stroke="#63b8ff" points="349.64,-187.84 360.13,-189.38 352.9,-181.64 349.64,-187.84"/>
</a>
</g>
</g>
<!-- Node1&#45;&gt;Node3 -->
<g id="edge4_Node000001_Node000003" class="edge">
<title>Node1&#45;&gt;Node3</title>
<g id="a_edge4_Node000001_Node000003"><a xlink:title=" ">
<path fill="none" stroke="#63b8ff" d="M362.7,-184.39C343.03,-172.99 317.75,-158.99 296.1,-147.5"/>
<polygon fill="none" stroke="#63b8ff" points="360.73,-187.29 371.12,-189.32 364.26,-181.25 360.73,-187.29"/>
</a>
</g>
</g>
<!-- Node4 -->
<g id="Node000004" class="node">
<title>Node4</title>
<g id="a_Node000004"><a xlink:href="classanonymous__namespace_02json-validator_8cpp_03_1_1logical__combination__error__handler.html" target="_top" xlink:title=" ">
<polygon fill="white" stroke="none" points="458.5,-154 332,-154 332,-95 458.5,-95 458.5,-154"/>
<text xml:space="preserve" text-anchor="start" x="336" y="-140.5" font-family="Helvetica,sans-Serif" font-size="10.00">anonymous_namespace</text>
<text xml:space="preserve" text-anchor="start" x="336" y="-127.75" font-family="Helvetica,sans-Serif" font-size="10.00">{json&#45;validator.cpp}</text>
<text xml:space="preserve" text-anchor="start" x="336" y="-115" font-family="Helvetica,sans-Serif" font-size="10.00">::logical_combination</text>
<text xml:space="preserve" text-anchor="start" x="360" y="-102.25" font-family="Helvetica,sans-Serif" font-size="10.00">_error_handler</text>
<polygon fill="none" stroke="#666666" points="332,-95 332,-154 458.5,-154 458.5,-95 332,-95"/>
</a>
</g>
</g>
<!-- Node1&#45;&gt;Node4 -->
<g id="edge5_Node000001_Node000004" class="edge">
<title>Node1&#45;&gt;Node4</title>
<g id="a_edge5_Node000001_Node000004"><a xlink:title=" ">
<path fill="none" stroke="#63b8ff" d="M388.84,-178.9C388.41,-170.87 388.39,-162.05 388.76,-153.92"/>
<polygon fill="none" stroke="#63b8ff" points="385.34,-179.1 389.67,-188.77 392.32,-178.51 385.34,-179.1"/>
</a>
</g>
</g>
<!-- Node1&#45;&gt;Node4 -->
<g id="edge6_Node000001_Node000004" class="edge">
<title>Node1&#45;&gt;Node4</title>
<g id="a_edge6_Node000001_Node000004"><a xlink:title=" ">
<path fill="none" stroke="#63b8ff" d="M401.66,-178.9C402.09,-170.87 402.11,-162.05 401.74,-153.92"/>
<polygon fill="none" stroke="#63b8ff" points="398.18,-178.51 400.83,-188.77 405.16,-179.1 398.18,-178.51"/>
</a>
</g>
</g>
<!-- Node5 -->
<g id="Node000005" class="node">
<title>Node5</title>
<g id="a_Node000005"><a xlink:href="classanonymous__namespace_02json-validator_8cpp_03_1_1throwing__error__handler.html" target="_top" xlink:title=" ">
<polygon fill="white" stroke="none" points="603.88,-147.62 476.62,-147.62 476.62,-101.38 603.88,-101.38 603.88,-147.62"/>
<text xml:space="preserve" text-anchor="start" x="480.62" y="-134.12" font-family="Helvetica,sans-Serif" font-size="10.00">anonymous_namespace</text>
<text xml:space="preserve" text-anchor="start" x="480.62" y="-121.38" font-family="Helvetica,sans-Serif" font-size="10.00">{json&#45;validator.cpp}</text>
<text xml:space="preserve" text-anchor="start" x="480.62" y="-108.62" font-family="Helvetica,sans-Serif" font-size="10.00">::throwing_error_handler</text>
<polygon fill="none" stroke="#666666" points="476.62,-101.38 476.62,-147.62 603.88,-147.62 603.88,-101.38 476.62,-101.38"/>
</a>
</g>
</g>
<!-- Node1&#45;&gt;Node5 -->
<g id="edge7_Node000001_Node000005" class="edge">
<title>Node1&#45;&gt;Node5</title>
<g id="a_edge7_Node000001_Node000005"><a xlink:title=" ">
<path fill="none" stroke="#63b8ff" d="M427.8,-184.39C447.47,-172.99 472.75,-158.99 494.4,-147.5"/>
<polygon fill="none" stroke="#63b8ff" points="426.24,-181.25 419.38,-189.32 429.77,-187.29 426.24,-181.25"/>
</a>
</g>
</g>
<!-- Node1&#45;&gt;Node5 -->
<g id="edge8_Node000001_Node000005" class="edge">
<title>Node1&#45;&gt;Node5</title>
<g id="a_edge8_Node000001_Node000005"><a xlink:title=" ">
<path fill="none" stroke="#63b8ff" d="M439,-184.86C460.7,-173.38 486.45,-159.15 506.6,-147.5"/>
<polygon fill="none" stroke="#63b8ff" points="437.6,-181.64 430.37,-189.38 440.86,-187.84 437.6,-181.64"/>
</a>
</g>
</g>
<!-- Node6 -->
<g id="Node000006" class="node">
<title>Node6</title>
<g id="a_Node000006"><a xlink:href="classnlohmann_1_1json__schema_1_1basic__error__handler.html" target="_top" xlink:title=" ">
<polygon fill="white" stroke="none" points="748.5,-141.25 622,-141.25 622,-107.75 748.5,-107.75 748.5,-141.25"/>
<text xml:space="preserve" text-anchor="start" x="626" y="-127.75" font-family="Helvetica,sans-Serif" font-size="10.00">nlohmann::json_schema</text>
<text xml:space="preserve" text-anchor="start" x="634.25" y="-115" font-family="Helvetica,sans-Serif" font-size="10.00">::basic_error_handler</text>
<polygon fill="none" stroke="#666666" points="622,-107.75 622,-141.25 748.5,-141.25 748.5,-107.75 622,-107.75"/>
</a>
</g>
</g>
<!-- Node1&#45;&gt;Node6 -->
<g id="edge9_Node000001_Node000006" class="edge">
<title>Node1&#45;&gt;Node6</title>
<g id="a_edge9_Node000001_Node000006"><a xlink:title=" ">
<path fill="none" stroke="#63b8ff" d="M469.49,-190.9C511.99,-181.71 566.08,-168.85 613.25,-154 624.92,-150.33 637.39,-145.66 648.62,-141.18"/>
<polygon fill="none" stroke="#63b8ff" points="468.92,-187.45 459.87,-192.96 470.38,-194.29 468.92,-187.45"/>
</a>
</g>
</g>
<!-- Node7 -->
<g id="Node000007" class="node">
<title>Node7</title>
<g id="a_Node000007"><a xlink:href="classanonymous__namespace_02errors_8cpp_03_1_1store__ptr__err__handler.html" target="_top" xlink:title=" ">
<polygon fill="white" stroke="none" points="281.5,-52.62 155,-52.62 155,-6.38 281.5,-6.38 281.5,-52.62"/>
<text xml:space="preserve" text-anchor="start" x="159" y="-39.12" font-family="Helvetica,sans-Serif" font-size="10.00">anonymous_namespace</text>
<text xml:space="preserve" text-anchor="start" x="159" y="-26.38" font-family="Helvetica,sans-Serif" font-size="10.00">{errors.cpp}::store</text>
<text xml:space="preserve" text-anchor="start" x="178.5" y="-13.62" font-family="Helvetica,sans-Serif" font-size="10.00">_ptr_err_handler</text>
<polygon fill="none" stroke="#666666" points="155,-6.38 155,-52.62 281.5,-52.62 281.5,-6.38 155,-6.38"/>
</a>
</g>
</g>
<!-- Node6&#45;&gt;Node7 -->
<g id="edge10_Node000006_Node000007" class="edge">
<title>Node6&#45;&gt;Node7</title>
<g id="a_edge10_Node000006_Node000007"><a xlink:title=" ">
<path fill="none" stroke="#63b8ff" d="M631.99,-103.79C622.83,-100.41 613.34,-97.27 604.25,-95 464.52,-60.19 422.06,-93.48 282.25,-59 275.25,-57.27 268.02,-55.04 261.03,-52.58"/>
<polygon fill="none" stroke="#63b8ff" points="630.56,-106.99 641.15,-107.28 633.05,-100.45 630.56,-106.99"/>
</a>
</g>
</g>
<!-- Node6&#45;&gt;Node7 -->
<g id="edge11_Node000006_Node000007" class="edge">
<title>Node6&#45;&gt;Node7</title>
<g id="a_edge11_Node000006_Node000007"><a xlink:title=" ">
<path fill="none" stroke="#63b8ff" d="M649.05,-103.57C640.41,-100.27 631.15,-97.22 622.25,-95 482.52,-60.19 440.06,-93.48 300.25,-59 293.25,-57.27 286.02,-55.04 278.87,-52.58"/>
<polygon fill="none" stroke="#63b8ff" points="647.6,-106.76 658.18,-107.26 650.22,-100.26 647.6,-106.76"/>
</a>
</g>
</g>
<!-- Node8 -->
<g id="Node000008" class="node">
<title>Node8</title>
<g id="a_Node000008"><a xlink:href="classanonymous__namespace_02issue-149-entry-selection_8cpp_03_1_1store__err__handler.html" target="_top" xlink:title=" ">
<polygon fill="white" stroke="none" points="464.62,-52.62 299.88,-52.62 299.88,-6.38 464.62,-6.38 464.62,-52.62"/>
<text xml:space="preserve" text-anchor="start" x="303.88" y="-39.12" font-family="Helvetica,sans-Serif" font-size="10.00">anonymous_namespace</text>
<text xml:space="preserve" text-anchor="start" x="303.88" y="-26.38" font-family="Helvetica,sans-Serif" font-size="10.00">{issue&#45;149&#45;entry&#45;selection.cpp}</text>
<text xml:space="preserve" text-anchor="start" x="336.5" y="-13.62" font-family="Helvetica,sans-Serif" font-size="10.00">::store_err_handler</text>
<polygon fill="none" stroke="#666666" points="299.88,-6.38 299.88,-52.62 464.62,-52.62 464.62,-6.38 299.88,-6.38"/>
</a>
</g>
</g>
<!-- Node6&#45;&gt;Node8 -->
<g id="edge12_Node000006_Node000008" class="edge">
<title>Node6&#45;&gt;Node8</title>
<g id="a_edge12_Node000006_Node000008"><a xlink:title=" ">
<path fill="none" stroke="#63b8ff" d="M628.88,-103.74C620.64,-100.64 612.25,-97.61 604.25,-95 543.58,-75.22 526.63,-76.45 465.25,-59 458.01,-56.94 450.48,-54.73 443.02,-52.48"/>
<polygon fill="none" stroke="#63b8ff" points="627.59,-106.99 638.18,-107.28 630.08,-100.45 627.59,-106.99"/>
</a>
</g>
</g>
<!-- Node6&#45;&gt;Node8 -->
<g id="edge13_Node000006_Node000008" class="edge">
<title>Node6&#45;&gt;Node8</title>
<g id="a_edge13_Node000006_Node000008"><a xlink:title=" ">
<path fill="none" stroke="#63b8ff" d="M646.35,-103.64C638.45,-100.58 630.16,-97.58 622.25,-95 561.58,-75.22 544.63,-76.45 483.25,-59 476.09,-56.97 468.64,-54.78 461.17,-52.55"/>
<polygon fill="none" stroke="#63b8ff" points="644.82,-106.79 655.4,-107.26 647.42,-100.3 644.82,-106.79"/>
</a>
</g>
</g>
<!-- Node9 -->
<g id="Node000009" class="node">
<title>Node9</title>
<g id="a_Node000009"><a xlink:href="classanonymous__namespace_02issue-70-root-schema-constructor_8cpp_03_1_1store__ptr__err__handler.html" target="_top" xlink:title=" ">
<polygon fill="white" stroke="none" points="609.5,-59 483,-59 483,0 609.5,0 609.5,-59"/>
<text xml:space="preserve" text-anchor="start" x="487" y="-45.5" font-family="Helvetica,sans-Serif" font-size="10.00">anonymous_namespace</text>
<text xml:space="preserve" text-anchor="start" x="487" y="-32.75" font-family="Helvetica,sans-Serif" font-size="10.00">{issue&#45;70&#45;root&#45;schema</text>
<text xml:space="preserve" text-anchor="start" x="487" y="-20" font-family="Helvetica,sans-Serif" font-size="10.00">&#45;constructor.cpp}::store</text>
<text xml:space="preserve" text-anchor="start" x="506.5" y="-7.25" font-family="Helvetica,sans-Serif" font-size="10.00">_ptr_err_handler</text>
<polygon fill="none" stroke="#666666" points="483,0 483,-59 609.5,-59 609.5,0 483,0"/>
</a>
</g>
</g>
<!-- Node6&#45;&gt;Node9 -->
<g id="edge14_Node000006_Node000009" class="edge">
<title>Node6&#45;&gt;Node9</title>
<g id="a_edge14_Node000006_Node000009"><a xlink:title=" ">
<path fill="none" stroke="#63b8ff" d="M647.26,-101.96C627.04,-89.16 602.38,-72.77 582.44,-58.91"/>
<polygon fill="none" stroke="#63b8ff" points="645.18,-104.79 655.51,-107.13 648.89,-98.86 645.18,-104.79"/>
</a>
</g>
</g>
<!-- Node6&#45;&gt;Node9 -->
<g id="edge15_Node000006_Node000009" class="edge">
<title>Node6&#45;&gt;Node9</title>
<g id="a_edge15_Node000006_Node000009"><a xlink:title=" ">
<path fill="none" stroke="#63b8ff" d="M657.87,-101.26C639.92,-88.57 616.07,-72.52 594.99,-58.91"/>
<polygon fill="none" stroke="#63b8ff" points="655.78,-104.07 665.95,-107.05 659.86,-98.38 655.78,-104.07"/>
</a>
</g>
</g>
<!-- Node10 -->
<g id="Node000010" class="node">
<title>Node10</title>
<g id="a_Node000010"><a xlink:href="classcustom__error__handler.html" target="_top" xlink:title=" ">
<polygon fill="white" stroke="none" points="742.5,-39.88 628,-39.88 628,-19.12 742.5,-19.12 742.5,-39.88"/>
<text xml:space="preserve" text-anchor="start" x="632" y="-26.38" font-family="Helvetica,sans-Serif" font-size="10.00">custom_error_handler</text>
<polygon fill="none" stroke="#666666" points="628,-19.12 628,-39.88 742.5,-39.88 742.5,-19.12 628,-19.12"/>
</a>
</g>
</g>
<!-- Node6&#45;&gt;Node10 -->
<g id="edge16_Node000006_Node000010" class="edge">
<title>Node6&#45;&gt;Node10</title>
<g id="a_edge16_Node000006_Node000010"><a xlink:title=" ">
<path fill="none" stroke="#63b8ff" d="M666.77,-97.04C663.15,-77.79 665.08,-52.87 672.57,-39.66"/>
<polygon fill="none" stroke="#63b8ff" points="663.39,-97.93 669.36,-106.68 670.15,-96.12 663.39,-97.93"/>
</a>
</g>
</g>
<!-- Node6&#45;&gt;Node10 -->
<g id="edge17_Node000006_Node000010" class="edge">
<title>Node6&#45;&gt;Node10</title>
<g id="a_edge17_Node000006_Node000010"><a xlink:title=" ">
<path fill="none" stroke="#63b8ff" d="M679.07,-96.77C677.89,-77.56 678.54,-52.81 681.02,-39.66"/>
<polygon fill="none" stroke="#63b8ff" points="675.58,-96.98 679.95,-106.64 682.55,-96.37 675.58,-96.98"/>
</a>
</g>
</g>
<!-- Node6&#45;&gt;Node10 -->
<g id="edge18_Node000006_Node000010" class="edge">
<title>Node6&#45;&gt;Node10</title>
<g id="a_edge18_Node000006_Node000010"><a xlink:title=" ">
<path fill="none" stroke="#63b8ff" d="M691.43,-96.77C692.61,-77.56 691.96,-52.81 689.48,-39.66"/>
<polygon fill="none" stroke="#63b8ff" points="687.95,-96.37 690.55,-106.64 694.92,-96.98 687.95,-96.37"/>
</a>
</g>
</g>
<!-- Node6&#45;&gt;Node10 -->
<g id="edge19_Node000006_Node000010" class="edge">
<title>Node6&#45;&gt;Node10</title>
<g id="a_edge19_Node000006_Node000010"><a xlink:title=" ">
<path fill="none" stroke="#63b8ff" d="M703.73,-97.04C707.35,-77.79 705.42,-52.87 697.93,-39.66"/>
<polygon fill="none" stroke="#63b8ff" points="700.35,-96.12 701.14,-106.68 707.11,-97.93 700.35,-96.12"/>
</a>
</g>
</g>
<!-- Node11 -->
<g id="Node000011" class="node">
<title>Node11</title>
<g id="a_Node000011"><a xlink:href="classmqtt_1_1mqttstore_1_1lib_1_1anonymous__namespace_02StoragePlan_8cpp_03_1_1ProjectionValidationErrorHandler.html" target="_top" xlink:title=" ">
<polygon fill="white" stroke="none" points="914,-59 760.5,-59 760.5,0 914,0 914,-59"/>
<text xml:space="preserve" text-anchor="start" x="764.5" y="-45.5" font-family="Helvetica,sans-Serif" font-size="10.00">mqtt::mqttstore::lib</text>
<text xml:space="preserve" text-anchor="start" x="764.5" y="-32.75" font-family="Helvetica,sans-Serif" font-size="10.00">::anonymous_namespace</text>
<text xml:space="preserve" text-anchor="start" x="764.5" y="-20" font-family="Helvetica,sans-Serif" font-size="10.00">{StoragePlan.cpp}::Projection</text>
<text xml:space="preserve" text-anchor="start" x="781.75" y="-7.25" font-family="Helvetica,sans-Serif" font-size="10.00">ValidationErrorHandler</text>
<polygon fill="none" stroke="#666666" points="760.5,0 760.5,-59 914,-59 914,0 760.5,0"/>
</a>
</g>
</g>
<!-- Node6&#45;&gt;Node11 -->
<g id="edge20_Node000006_Node000011" class="edge">
<title>Node6&#45;&gt;Node11</title>
<g id="a_edge20_Node000006_Node000011"><a xlink:title=" ">
<path fill="none" stroke="#63b8ff" d="M714.92,-101.79C734.74,-89.01 761.23,-72.71 784.54,-58.91"/>
<polygon fill="none" stroke="#63b8ff" points="713.23,-98.71 706.77,-107.11 717.06,-104.58 713.23,-98.71"/>
</a>
</g>
</g>
<!-- Node6&#45;&gt;Node11 -->
<g id="edge21_Node000006_Node000011" class="edge">
<title>Node6&#45;&gt;Node11</title>
<g id="a_edge21_Node000006_Node000011"><a xlink:title=" ">
<path fill="none" stroke="#63b8ff" d="M725.65,-102.31C747.77,-89.46 775.01,-72.89 797.09,-58.91"/>
<polygon fill="none" stroke="#63b8ff" points="724.11,-99.16 717.19,-107.18 727.61,-105.22 724.11,-99.16"/>
</a>
</g>
</g>
<!-- Node12 -->
<g id="Node000012" class="node">
<title>Node12</title>
<g id="a_Node000012"><a xlink:href="classstore__ptr__err__handler.html" target="_top" xlink:title=" ">
<polygon fill="white" stroke="none" points="1044.38,-39.88 932.12,-39.88 932.12,-19.12 1044.38,-19.12 1044.38,-39.88"/>
<text xml:space="preserve" text-anchor="start" x="936.12" y="-26.38" font-family="Helvetica,sans-Serif" font-size="10.00">store_ptr_err_handler</text>
<polygon fill="none" stroke="#666666" points="932.12,-19.12 932.12,-39.88 1044.38,-39.88 1044.38,-19.12 932.12,-19.12"/>
</a>
</g>
</g>
<!-- Node6&#45;&gt;Node12 -->
<g id="edge22_Node000006_Node000012" class="edge">
<title>Node6&#45;&gt;Node12</title>
<g id="a_edge22_Node000006_Node000012"><a xlink:title=" ">
<path fill="none" stroke="#63b8ff" d="M757.18,-105.03C802.69,-93.45 862.4,-77.28 914.25,-59 930.05,-53.43 947.41,-45.73 961.56,-39.74"/>
<polygon fill="none" stroke="#63b8ff" points="756.53,-101.58 747.69,-107.42 758.24,-108.37 756.53,-101.58"/>
</a>
</g>
</g>
<!-- Node6&#45;&gt;Node12 -->
<g id="edge23_Node000006_Node000012" class="edge">
<title>Node6&#45;&gt;Node12</title>
<g id="a_edge23_Node000006_Node000012"><a xlink:title=" ">
<path fill="none" stroke="#63b8ff" d="M759.38,-108.26C809.05,-96.56 875.38,-79.05 932.25,-59 948.05,-53.43 965.41,-45.73 976.86,-39.74"/>
<polygon fill="none" stroke="#63b8ff" points="758.83,-104.79 749.88,-110.47 760.41,-111.61 758.83,-104.79"/>
</a>
</g>
</g>
</g>
</svg>

<g id="navigator" transform="translate(0 0)" fill="#404254">
  <rect fill="#f2f5e9" fill-opacity="0.5" stroke="#606060" stroke-width=".5" x="0" y="0" width="60" height="60"/>
  <use id="zoomplus" xlink:href="#zoomPlus" x="17" y="9" onmousedown="handleZoom(evt,'in')"/>
  <use id="zoomminus" xlink:href="#zoomMin" x="42" y="9" onmousedown="handleZoom(evt,'out')"/>
  <use id="reset" xlink:href="#resetDef" x="30" y="36" onmousedown="handleReset()"/>
   <use id="arrowup" xlink:href="#arrowUp" x="0" y="0" onmousedown="handlePan(0,-1)"/>
  <use id="arrowright" xlink:href="#arrowRight" x="0" y="0" onmousedown="handlePan(1,0)"/>
  <use id="arrowdown" xlink:href="#arrowDown" x="0" y="0" onmousedown="handlePan(0,1)"/>
  <use id="arrowleft" xlink:href="#arrowLeft" x="0" y="0" onmousedown="handlePan(-1,0)"/>
</g>
<svg viewBox="0 0 15 15" width="100%" height="30px" preserveAspectRatio="xMaxYMin meet">
 <g id="arrow_out" transform="scale(0.3 0.3)">
  <a xlink:href="classnlohmann_1_1json__schema_1_1error__handler__inherit__graph_org.svg" target="_base">
   <rect id="button" ry="5" rx="5" y="6" x="6" height="38" width="38"
        fill="#f2f5e9" fill-opacity="0.5" stroke="#606060" stroke-width="1.0"/>
   <path id="arrow"
     d="M 11.500037,31.436501 C 11.940474,20.09759 22.043105,11.32322 32.158766,21.979434 L 37.068811,17.246167 C 37.068811,17.246167 37.088388,32 37.088388,32 L 22.160133,31.978069 C 22.160133,31.978069 26.997745,27.140456 26.997745,27.140456 C 18.528582,18.264221 13.291696,25.230495 11.500037,31.436501 z"
     style="fill:#404040;"/>
  </a>
 </g>
</svg>

<style type='text/css'>
<![CDATA[
[data-mouse-over-selected='false'] { opacity: 0.7; }
[data-mouse-over-selected='true']  { opacity: 1.0; }
]]>
</style>
<script type="application/ecmascript"><![CDATA[
document.addEventListener('DOMContentLoaded', (event) => {
  highlightEdges();
  highlightAdjacentNodes();
});
]]></script>
</svg>
