<?xml version="1.0" encoding="UTF-8" standalone="no"?>
<!DOCTYPE svg PUBLIC "-//W3C//DTD SVG 1.1//EN"
 "http://www.w3.org/Graphics/SVG/1.1/DTD/svg11.dtd">
<!-- Generated by graphviz version 2.42.4 (0)
 -->
<!-- Title: mqtt::bridge::lib::Mqtt::onConnack Pages: 1 -->
<svg width="246pt" height="86pt"
 viewBox="0.00 0.00 246.00 86.00" xmlns="http://www.w3.org/2000/svg" xmlns:xlink="http://www.w3.org/1999/xlink">
<g id="graph0" class="graph" transform="scale(1 1) rotate(0) translate(4 82)">
<title>mqtt::bridge::lib::Mqtt::onConnack</title>
<!-- Node1 -->
<g id="Node000001" class="node">
<title>Node1</title>
<g id="a_Node000001"><a xlink:title=" ">
<polygon fill="#999999" stroke="#666666" points="101,-54 0,-54 0,-24 101,-24 101,-54"/>
<text text-anchor="start" x="8" y="-42" font-family="Helvetica,sans-Serif" font-size="10.00">mqtt::bridge::lib::</text>
<text text-anchor="middle" x="50.5" y="-31" font-family="Helvetica,sans-Serif" font-size="10.00">Mqtt::onConnack</text>
</a>
</g>
</g>
<!-- Node2 -->
<g id="Node000002" class="node">
<title>Node2</title>
<g id="a_Node000002"><a xlink:href="classmqtt_1_1bridge_1_1lib_1_1Bridge.html#afc6a7517e01531667e33724562fbf23e" target="_top" xlink:title=" ">
<polygon fill="white" stroke="#666666" points="238,-78 137,-78 137,-48 238,-48 238,-78"/>
<text text-anchor="start" x="145" y="-66" font-family="Helvetica,sans-Serif" font-size="10.00">mqtt::bridge::lib::</text>
<text text-anchor="middle" x="187.5" y="-55" font-family="Helvetica,sans-Serif" font-size="10.00">Bridge::addMqtt</text>
</a>
</g>
</g>
<!-- Node1&#45;&gt;Node2 -->
<g id="edge1_Node000001_Node000002" class="edge">
<title>Node1&#45;&gt;Node2</title>
<g id="a_edge1_Node000001_Node000002"><a xlink:title=" ">
<path fill="none" stroke="#63b8ff" d="M101,-47.8C109.33,-49.28 118.06,-50.83 126.61,-52.35"/>
<polygon fill="#63b8ff" stroke="#63b8ff" points="126.09,-55.82 136.55,-54.12 127.32,-48.92 126.09,-55.82"/>
</a>
</g>
</g>
<!-- Node3 -->
<g id="Node000003" class="node">
<title>Node3</title>
<g id="a_Node000003"><a xlink:href="classmqtt_1_1bridge_1_1lib_1_1Broker.html#acff6cddc56c9cdc2b0688d6482034131" target="_top" xlink:title=" ">
<polygon fill="white" stroke="#666666" points="238,-30 137,-30 137,0 238,0 238,-30"/>
<text text-anchor="start" x="145" y="-18" font-family="Helvetica,sans-Serif" font-size="10.00">mqtt::bridge::lib::</text>
<text text-anchor="middle" x="187.5" y="-7" font-family="Helvetica,sans-Serif" font-size="10.00">Broker::getBridge</text>
</a>
</g>
</g>
<!-- Node1&#45;&gt;Node3 -->
<g id="edge2_Node000001_Node000003" class="edge">
<title>Node1&#45;&gt;Node3</title>
<g id="a_edge2_Node000001_Node000003"><a xlink:title=" ">
<path fill="none" stroke="#63b8ff" d="M101,-30.2C109.33,-28.72 118.06,-27.17 126.61,-25.65"/>
<polygon fill="#63b8ff" stroke="#63b8ff" points="127.32,-29.08 136.55,-23.88 126.09,-22.18 127.32,-29.08"/>
</a>
</g>
</g>
</g>
</svg>
