<?xml version="1.0" encoding="UTF-8" standalone="no"?>
<!DOCTYPE svg PUBLIC "-//W3C//DTD SVG 1.1//EN"
 "http://www.w3.org/Graphics/SVG/1.1/DTD/svg11.dtd">
<!-- Generated by graphviz version 2.42.4 (0)
 -->
<!-- Title: nlohmann::JsonPatchFormatException Pages: 1 -->
<svg width="186pt" height="177pt"
 viewBox="0.00 0.00 186.00 177.00" xmlns="http://www.w3.org/2000/svg" xmlns:xlink="http://www.w3.org/1999/xlink">

<svg id="main" version="1.1" xmlns="http://www.w3.org/2000/svg" xmlns:xlink="http://www.w3.org/1999/xlink" xml:space="preserve">

<style type="text/css"><![CDATA[
.node, .edge {opacity: 0.7;}
.node.selected, .edge.selected {opacity: 1;}
.edge:hover path { stroke: red; }
.edge:hover polygon { stroke: red; fill: red; }
]]></style>
<script type="application/ecmascript" xlink:href="svg.min.js"/>
<svg id="graph" class="graph">
<g id="graph0" class="graph" transform="scale(1 1) rotate(0) translate(4 173)">
<title>nlohmann::JsonPatchFormatException</title>
<!-- Node1 -->
<g id="Node000001" class="node">
<title>Node1</title>
<g id="a_Node000001"><a xlink:title=" ">
<polygon fill="#999999" stroke="transparent" points="146,-30 0,-30 0,0 146,0 146,-30"/>
<text text-anchor="start" x="4.5" y="-18" font-family="Helvetica,sans-Serif" font-size="10.00">nlohmann::JsonPatchFormat</text>
<text text-anchor="start" x="48.5" y="-7" font-family="Helvetica,sans-Serif" font-size="10.00">Exception</text>
<polygon fill="none" stroke="#666666" points="0,0 0,-30 146,-30 146,0 0,0"/>
</a>
</g>
</g>
<!-- Node2 -->
<g id="Node000002" class="node">
<title>Node2</title>
<g id="a_Node000002"><a xlink:title=" ">
<polygon fill="white" stroke="transparent" points="83,-102 5,-102 5,-83 83,-83 83,-102"/>
<text text-anchor="start" x="9" y="-89.5" font-family="Helvetica,sans-Serif" font-size="10.00">std::exception</text>
<polygon fill="none" stroke="#666666" points="5,-83 5,-102 83,-102 83,-83 5,-83"/>
</a>
</g>
</g>
<!-- Node2&#45;&gt;Node1 -->
<g id="edge1_Node000001_Node000002" class="edge">
<title>Node2&#45;&gt;Node1</title>
<g id="a_edge1_Node000001_Node000002"><a xlink:title=" ">
<path fill="none" stroke="#63b8ff" d="M50.97,-73.37C56.05,-60.13 62.85,-42.43 67.54,-30.21"/>
<polygon fill="none" stroke="#63b8ff" points="47.65,-72.25 47.33,-82.84 54.18,-74.76 47.65,-72.25"/>
</a>
</g>
</g>
<!-- Node3 -->
<g id="Node000003" class="node">
<title>Node3</title>
<g id="a_Node000003"><a xlink:title=" ">
<polygon fill="white" stroke="transparent" points="159,-102 101,-102 101,-83 159,-83 159,-102"/>
<text text-anchor="start" x="105.5" y="-89.5" font-family="Helvetica,sans-Serif" font-size="10.00">std::string</text>
<polygon fill="none" stroke="#666666" points="101,-83 101,-102 159,-102 159,-83 101,-83"/>
</a>
</g>
</g>
<!-- Node3&#45;&gt;Node1 -->
<g id="edge2_Node000001_Node000003" class="edge">
<title>Node3&#45;&gt;Node1</title>
<g id="a_edge2_Node000001_Node000003"><a xlink:title=" ">
<path fill="none" stroke="#63b8ff" d="M123.46,-82.84C115.65,-72.49 102.25,-54.74 91.22,-40.14"/>
<polygon fill="none" stroke="#63b8ff" points="90.96,-39.78 84.15,-37.41 83.73,-30.21 90.53,-32.58 90.96,-39.78"/>
</a>
</g>
<text text-anchor="start" x="112" y="-53.5" font-family="Helvetica,sans-Serif" font-size="10.00" fill="grey">&#45;ex_</text>
</g>
<!-- Node4 -->
<g id="Node000004" class="node">
<title>Node4</title>
<g id="a_Node000004"><a xlink:title=" ">
<polygon fill="white" stroke="transparent" points="178,-169 82,-169 82,-139 178,-139 178,-169"/>
<text text-anchor="start" x="86" y="-157" font-family="Helvetica,sans-Serif" font-size="10.00">std::basic_string&lt;</text>
<text text-anchor="start" x="111.5" y="-146" font-family="Helvetica,sans-Serif" font-size="10.00"> Char &gt;</text>
<polygon fill="none" stroke="#666666" points="82,-139 82,-169 178,-169 178,-139 82,-139"/>
</a>
</g>
</g>
<!-- Node4&#45;&gt;Node3 -->
<g id="edge3_Node000003_Node000004" class="edge">
<title>Node4&#45;&gt;Node3</title>
<g id="a_edge3_Node000003_Node000004"><a xlink:title=" ">
<path fill="none" stroke="#63b8ff" d="M130,-128.79C130,-119.36 130,-109.15 130,-102.16"/>
<polygon fill="none" stroke="#63b8ff" points="126.5,-128.9 130,-138.9 133.5,-128.9 126.5,-128.9"/>
</a>
</g>
</g>
</g>
</svg>
</svg>

<style type='text/css'>
<![CDATA[
[data-mouse-over-selected='false'] { opacity: 0.7; }
[data-mouse-over-selected='true']  { opacity: 1.0; }
]]>
</style>
<script type="application/ecmascript"><![CDATA[
document.addEventListener('DOMContentLoaded', (event) => {
  highlightEdges();
  highlightAdjacentNodes();
});
]]></script>
</svg>
