<?xml version="1.0" encoding="UTF-8" standalone="no"?>
<!DOCTYPE svg PUBLIC "-//W3C//DTD SVG 1.1//EN"
 "http://www.w3.org/Graphics/SVG/1.1/DTD/svg11.dtd">
<!-- Generated by graphviz version 14.1.2 (0)
 -->
<!-- Title: mqtt::bridge::lib::SSEDistributor::bridgesStarting Pages: 1 -->
<svg width="568pt" height="68pt"
 viewBox="0.00 0.00 568.00 68.00" xmlns="http://www.w3.org/2000/svg" xmlns:xlink="http://www.w3.org/1999/xlink">
<g id="graph0" class="graph" transform="scale(1 1) rotate(0) translate(4 63.75)">
<title>mqtt::bridge::lib::SSEDistributor::bridgesStarting</title>
<!-- Node1 -->
<g id="Node000001" class="node">
<title>Node1</title>
<g id="a_Node000001"><a xlink:title=" ">
<polygon fill="#999999" stroke="#666666" points="559.75,-46.12 393.75,-46.12 393.75,-12.62 559.75,-12.62 559.75,-46.12"/>
<text xml:space="preserve" text-anchor="start" x="401.75" y="-32.62" font-family="Helvetica,sans-Serif" font-size="10.00">mqtt::bridge::lib::</text>
<text xml:space="preserve" text-anchor="middle" x="476.75" y="-19.88" font-family="Helvetica,sans-Serif" font-size="10.00">SSEDistributor::bridgesStarting</text>
</a>
</g>
</g>
<!-- Node2 -->
<g id="Node000002" class="node">
<title>Node2</title>
<g id="a_Node000002"><a xlink:href="mqttbridge_8cpp.html#ac4db1bc049804762ae0893100ec95dec" target="_top" xlink:title=" ">
<polygon fill="white" stroke="#666666" points="357.75,-39.75 282.5,-39.75 282.5,-19 357.75,-19 357.75,-39.75"/>
<text xml:space="preserve" text-anchor="middle" x="320.12" y="-26.25" font-family="Helvetica,sans-Serif" font-size="10.00">startBridges</text>
</a>
</g>
</g>
<!-- Node1&#45;&gt;Node2 -->
<g id="edge1_Node000001_Node000002" class="edge">
<title>Node1&#45;&gt;Node2</title>
<g id="a_edge1_Node000001_Node000002"><a xlink:title=" ">
<path fill="none" stroke="#63b8ff" d="M382.2,-29.38C373.73,-29.38 365.54,-29.38 358.04,-29.38"/>
<polygon fill="#63b8ff" stroke="#63b8ff" points="381.94,-32.88 391.94,-29.38 381.94,-25.88 381.94,-32.88"/>
</a>
</g>
</g>
<!-- Node3 -->
<g id="Node000003" class="node">
<title>Node3</title>
<g id="a_Node000003"><a xlink:href="mqttbridge_8cpp.html#a0ddf1224851353fc92bfbff6f499fa97" target="_top" xlink:title=" ">
<polygon fill="white" stroke="#666666" points="224.38,-59.75 183.62,-59.75 183.62,-39 224.38,-39 224.38,-59.75"/>
<text xml:space="preserve" text-anchor="middle" x="204" y="-46.25" font-family="Helvetica,sans-Serif" font-size="10.00">main</text>
</a>
</g>
</g>
<!-- Node2&#45;&gt;Node3 -->
<g id="edge2_Node000002_Node000003" class="edge">
<title>Node2&#45;&gt;Node3</title>
<g id="a_edge2_Node000002_Node000003"><a xlink:title=" ">
<path fill="none" stroke="#63b8ff" d="M271.01,-37.81C254.71,-40.66 237.41,-43.7 224.61,-45.94"/>
<polygon fill="#63b8ff" stroke="#63b8ff" points="271.34,-41.3 280.58,-36.13 270.13,-34.41 271.34,-41.3"/>
</a>
</g>
</g>
<!-- Node4 -->
<g id="Node000004" class="node">
<title>Node4</title>
<g id="a_Node000004"><a xlink:href="mqttbridge_8cpp.html#ad55d86bc4a27f17b5ccd51659519f60d" target="_top" xlink:title=" ">
<polygon fill="white" stroke="#666666" points="246.5,-20.75 161.5,-20.75 161.5,0 246.5,0 246.5,-20.75"/>
<text xml:space="preserve" text-anchor="middle" x="204" y="-7.25" font-family="Helvetica,sans-Serif" font-size="10.00">restartBridges</text>
</a>
</g>
</g>
<!-- Node2&#45;&gt;Node4 -->
<g id="edge3_Node000002_Node000004" class="edge">
<title>Node2&#45;&gt;Node4</title>
<g id="a_edge3_Node000002_Node000004"><a xlink:title=" ">
<path fill="none" stroke="#63b8ff" d="M270.89,-21.34C262.82,-20 254.5,-18.62 246.61,-17.3"/>
<polygon fill="#63b8ff" stroke="#63b8ff" points="270.14,-24.77 280.58,-22.96 271.29,-17.86 270.14,-24.77"/>
</a>
</g>
</g>
<!-- Node5 -->
<g id="Node000005" class="node">
<title>Node5</title>
<g id="a_Node000005"><a xlink:href="mqttbridge_8cpp.html#a3d16d2e23b0d4b9300255adc9883e1f4" target="_top" xlink:title=" ">
<polygon fill="white" stroke="#666666" points="125.5,-20.75 0,-20.75 0,0 125.5,0 125.5,-20.75"/>
<text xml:space="preserve" text-anchor="middle" x="62.75" y="-7.25" font-family="Helvetica,sans-Serif" font-size="10.00">handleFlowControllers</text>
</a>
</g>
</g>
<!-- Node4&#45;&gt;Node5 -->
<g id="edge4_Node000004_Node000005" class="edge">
<title>Node4&#45;&gt;Node5</title>
<g id="a_edge4_Node000004_Node000005"><a xlink:title=" ">
<path fill="none" stroke="#63b8ff" d="M149.94,-10.38C142.06,-10.38 133.88,-10.38 125.84,-10.38"/>
<polygon fill="#63b8ff" stroke="#63b8ff" points="149.71,-13.88 159.71,-10.38 149.71,-6.88 149.71,-13.88"/>
</a>
</g>
</g>
</g>
</svg>
