<?xml version="1.0" encoding="UTF-8" standalone="no"?>
<!DOCTYPE svg PUBLIC "-//W3C//DTD SVG 1.1//EN"
 "http://www.w3.org/Graphics/SVG/1.1/DTD/svg11.dtd">
<!-- Generated by graphviz version 14.1.1 (0)
 -->
<!-- Title: nlohmann::json_schema::error_handler Pages: 1 -->
<svg width="949pt" height="232pt"
 viewBox="0.00 0.00 949.00 232.00" xmlns="http://www.w3.org/2000/svg" xmlns:xlink="http://www.w3.org/1999/xlink">
<g id="graph0" class="graph" transform="scale(1 1) rotate(0) translate(4 227.5)">
<title>nlohmann::json_schema::error_handler</title>
<!-- Node1 -->
<g id="Node000001" class="node">
<title>Node1</title>
<g id="a_Node000001"><a xlink:title=" ">
<polygon fill="#999999" stroke="none" points="458.5,-223.5 332,-223.5 332,-190 458.5,-190 458.5,-223.5"/>
<text xml:space="preserve" text-anchor="start" x="336" y="-210" font-family="Helvetica,sans-Serif" font-size="10.00">nlohmann::json_schema</text>
<text xml:space="preserve" text-anchor="start" x="359.62" y="-197.25" font-family="Helvetica,sans-Serif" font-size="10.00">::error_handler</text>
<polygon fill="none" stroke="#666666" points="332,-190 332,-223.5 458.5,-223.5 458.5,-190 332,-190"/>
</a>
</g>
</g>
<!-- Node2 -->
<g id="Node000002" class="node">
<title>Node2</title>
<g id="a_Node000002"><a xlink:href="classanonymous__namespace_02issue-105-verbose-combination-errors_8cpp_03_1_1MyErrorHandler.html" target="_top" xlink:title=" ">
<polygon fill="white" stroke="none" points="168.5,-147.62 0,-147.62 0,-101.38 168.5,-101.38 168.5,-147.62"/>
<text xml:space="preserve" text-anchor="start" x="4" y="-134.12" font-family="Helvetica,sans-Serif" font-size="10.00">anonymous_namespace</text>
<text xml:space="preserve" text-anchor="start" x="4" y="-121.38" font-family="Helvetica,sans-Serif" font-size="10.00">{issue&#45;105&#45;verbose&#45;combination</text>
<text xml:space="preserve" text-anchor="start" x="13.75" y="-108.62" font-family="Helvetica,sans-Serif" font-size="10.00">&#45;errors.cpp}::MyErrorHandler</text>
<polygon fill="none" stroke="#666666" points="0,-101.38 0,-147.62 168.5,-147.62 168.5,-101.38 0,-101.38"/>
</a>
</g>
</g>
<!-- Node1&#45;&gt;Node2 -->
<g id="edge1_Node000001_Node000002" class="edge">
<title>Node1&#45;&gt;Node2</title>
<g id="a_edge1_Node000001_Node000002"><a xlink:title=" ">
<path fill="none" stroke="#63b8ff" d="M321.39,-191.06C276.96,-181.22 219.57,-167.61 169.25,-154 161.84,-152 154.13,-149.82 146.51,-147.58"/>
<polygon fill="none" stroke="#63b8ff" points="320.39,-194.42 330.91,-193.15 321.89,-187.59 320.39,-194.42"/>
</a>
</g>
</g>
<!-- Node1&#45;&gt;Node2 -->
<g id="edge2_Node000001_Node000002" class="edge">
<title>Node1&#45;&gt;Node2</title>
<g id="a_edge2_Node000001_Node000002"><a xlink:title=" ">
<path fill="none" stroke="#63b8ff" d="M321.47,-187.45C281.61,-178.03 231.67,-166.02 187.25,-154 179.84,-152 172.13,-149.82 164.41,-147.58"/>
<polygon fill="none" stroke="#63b8ff" points="320.43,-190.8 330.96,-189.69 322.03,-183.99 320.43,-190.8"/>
</a>
</g>
</g>
<!-- Node3 -->
<g id="Node000003" class="node">
<title>Node3</title>
<g id="a_Node000003"><a xlink:href="classanonymous__namespace_02json-validator_8cpp_03_1_1first__error__handler.html" target="_top" xlink:title=" ">
<polygon fill="white" stroke="none" points="313.5,-147.62 187,-147.62 187,-101.38 313.5,-101.38 313.5,-147.62"/>
<text xml:space="preserve" text-anchor="start" x="191" y="-134.12" font-family="Helvetica,sans-Serif" font-size="10.00">anonymous_namespace</text>
<text xml:space="preserve" text-anchor="start" x="191" y="-121.38" font-family="Helvetica,sans-Serif" font-size="10.00">{json&#45;validator.cpp}</text>
<text xml:space="preserve" text-anchor="start" x="202.25" y="-108.62" font-family="Helvetica,sans-Serif" font-size="10.00">::first_error_handler</text>
<polygon fill="none" stroke="#666666" points="187,-101.38 187,-147.62 313.5,-147.62 313.5,-101.38 187,-101.38"/>
</a>
</g>
</g>
<!-- Node1&#45;&gt;Node3 -->
<g id="edge3_Node000001_Node000003" class="edge">
<title>Node1&#45;&gt;Node3</title>
<g id="a_edge3_Node000001_Node000003"><a xlink:title=" ">
<path fill="none" stroke="#63b8ff" d="M351.5,-184.86C329.8,-173.38 304.05,-159.15 283.9,-147.5"/>
<polygon fill="none" stroke="#63b8ff" points="349.64,-187.84 360.13,-189.38 352.9,-181.64 349.64,-187.84"/>
</a>
</g>
</g>
<!-- Node1&#45;&gt;Node3 -->
<g id="edge4_Node000001_Node000003" class="edge">
<title>Node1&#45;&gt;Node3</title>
<g id="a_edge4_Node000001_Node000003"><a xlink:title=" ">
<path fill="none" stroke="#63b8ff" d="M362.7,-184.39C343.03,-172.99 317.75,-158.99 296.1,-147.5"/>
<polygon fill="none" stroke="#63b8ff" points="360.73,-187.29 371.12,-189.32 364.26,-181.25 360.73,-187.29"/>
</a>
</g>
</g>
<!-- Node4 -->
<g id="Node000004" class="node">
<title>Node4</title>
<g id="a_Node000004"><a xlink:href="classanonymous__namespace_02json-validator_8cpp_03_1_1logical__combination__error__handler.html" target="_top" xlink:title=" ">
<polygon fill="white" stroke="none" points="458.5,-154 332,-154 332,-95 458.5,-95 458.5,-154"/>
<text xml:space="preserve" text-anchor="start" x="336" y="-140.5" font-family="Helvetica,sans-Serif" font-size="10.00">anonymous_namespace</text>
<text xml:space="preserve" text-anchor="start" x="336" y="-127.75" font-family="Helvetica,sans-Serif" font-size="10.00">{json&#45;validator.cpp}</text>
<text xml:space="preserve" text-anchor="start" x="336" y="-115" font-family="Helvetica,sans-Serif" font-size="10.00">::logical_combination</text>
<text xml:space="preserve" text-anchor="start" x="360" y="-102.25" font-family="Helvetica,sans-Serif" font-size="10.00">_error_handler</text>
<polygon fill="none" stroke="#666666" points="332,-95 332,-154 458.5,-154 458.5,-95 332,-95"/>
</a>
</g>
</g>
<!-- Node1&#45;&gt;Node4 -->
<g id="edge5_Node000001_Node000004" class="edge">
<title>Node1&#45;&gt;Node4</title>
<g id="a_edge5_Node000001_Node000004"><a xlink:title=" ">
<path fill="none" stroke="#63b8ff" d="M388.84,-178.9C388.41,-170.87 388.39,-162.05 388.76,-153.92"/>
<polygon fill="none" stroke="#63b8ff" points="385.34,-179.1 389.67,-188.77 392.32,-178.51 385.34,-179.1"/>
</a>
</g>
</g>
<!-- Node1&#45;&gt;Node4 -->
<g id="edge6_Node000001_Node000004" class="edge">
<title>Node1&#45;&gt;Node4</title>
<g id="a_edge6_Node000001_Node000004"><a xlink:title=" ">
<path fill="none" stroke="#63b8ff" d="M401.66,-178.9C402.09,-170.87 402.11,-162.05 401.74,-153.92"/>
<polygon fill="none" stroke="#63b8ff" points="398.18,-178.51 400.83,-188.77 405.16,-179.1 398.18,-178.51"/>
</a>
</g>
</g>
<!-- Node5 -->
<g id="Node000005" class="node">
<title>Node5</title>
<g id="a_Node000005"><a xlink:href="classanonymous__namespace_02json-validator_8cpp_03_1_1throwing__error__handler.html" target="_top" xlink:title=" ">
<polygon fill="white" stroke="none" points="603.88,-147.62 476.62,-147.62 476.62,-101.38 603.88,-101.38 603.88,-147.62"/>
<text xml:space="preserve" text-anchor="start" x="480.62" y="-134.12" font-family="Helvetica,sans-Serif" font-size="10.00">anonymous_namespace</text>
<text xml:space="preserve" text-anchor="start" x="480.62" y="-121.38" font-family="Helvetica,sans-Serif" font-size="10.00">{json&#45;validator.cpp}</text>
<text xml:space="preserve" text-anchor="start" x="480.62" y="-108.62" font-family="Helvetica,sans-Serif" font-size="10.00">::throwing_error_handler</text>
<polygon fill="none" stroke="#666666" points="476.62,-101.38 476.62,-147.62 603.88,-147.62 603.88,-101.38 476.62,-101.38"/>
</a>
</g>
</g>
<!-- Node1&#45;&gt;Node5 -->
<g id="edge7_Node000001_Node000005" class="edge">
<title>Node1&#45;&gt;Node5</title>
<g id="a_edge7_Node000001_Node000005"><a xlink:title=" ">
<path fill="none" stroke="#63b8ff" d="M427.8,-184.39C447.47,-172.99 472.75,-158.99 494.4,-147.5"/>
<polygon fill="none" stroke="#63b8ff" points="426.24,-181.25 419.38,-189.32 429.77,-187.29 426.24,-181.25"/>
</a>
</g>
</g>
<!-- Node1&#45;&gt;Node5 -->
<g id="edge8_Node000001_Node000005" class="edge">
<title>Node1&#45;&gt;Node5</title>
<g id="a_edge8_Node000001_Node000005"><a xlink:title=" ">
<path fill="none" stroke="#63b8ff" d="M439,-184.86C460.7,-173.38 486.45,-159.15 506.6,-147.5"/>
<polygon fill="none" stroke="#63b8ff" points="437.6,-181.64 430.37,-189.38 440.86,-187.84 437.6,-181.64"/>
</a>
</g>
</g>
<!-- Node6 -->
<g id="Node000006" class="node">
<title>Node6</title>
<g id="a_Node000006"><a xlink:href="classnlohmann_1_1json__schema_1_1basic__error__handler.html" target="_top" xlink:title=" ">
<polygon fill="white" stroke="none" points="748.5,-141.25 622,-141.25 622,-107.75 748.5,-107.75 748.5,-141.25"/>
<text xml:space="preserve" text-anchor="start" x="626" y="-127.75" font-family="Helvetica,sans-Serif" font-size="10.00">nlohmann::json_schema</text>
<text xml:space="preserve" text-anchor="start" x="634.25" y="-115" font-family="Helvetica,sans-Serif" font-size="10.00">::basic_error_handler</text>
<polygon fill="none" stroke="#666666" points="622,-107.75 622,-141.25 748.5,-141.25 748.5,-107.75 622,-107.75"/>
</a>
</g>
</g>
<!-- Node1&#45;&gt;Node6 -->
<g id="edge9_Node000001_Node000006" class="edge">
<title>Node1&#45;&gt;Node6</title>
<g id="a_edge9_Node000001_Node000006"><a xlink:title=" ">
<path fill="none" stroke="#63b8ff" d="M469.49,-190.9C511.99,-181.71 566.08,-168.85 613.25,-154 624.92,-150.33 637.39,-145.66 648.62,-141.18"/>
<polygon fill="none" stroke="#63b8ff" points="468.92,-187.45 459.87,-192.96 470.38,-194.29 468.92,-187.45"/>
</a>
</g>
</g>
<!-- Node7 -->
<g id="Node000007" class="node">
<title>Node7</title>
<g id="a_Node000007"><a xlink:href="classanonymous__namespace_02errors_8cpp_03_1_1store__ptr__err__handler.html" target="_top" xlink:title=" ">
<polygon fill="white" stroke="none" points="350.5,-52.62 224,-52.62 224,-6.38 350.5,-6.38 350.5,-52.62"/>
<text xml:space="preserve" text-anchor="start" x="228" y="-39.12" font-family="Helvetica,sans-Serif" font-size="10.00">anonymous_namespace</text>
<text xml:space="preserve" text-anchor="start" x="228" y="-26.38" font-family="Helvetica,sans-Serif" font-size="10.00">{errors.cpp}::store</text>
<text xml:space="preserve" text-anchor="start" x="247.5" y="-13.62" font-family="Helvetica,sans-Serif" font-size="10.00">_ptr_err_handler</text>
<polygon fill="none" stroke="#666666" points="224,-6.38 224,-52.62 350.5,-52.62 350.5,-6.38 224,-6.38"/>
</a>
</g>
</g>
<!-- Node6&#45;&gt;Node7 -->
<g id="edge10_Node000006_Node000007" class="edge">
<title>Node6&#45;&gt;Node7</title>
<g id="a_edge10_Node000006_Node000007"><a xlink:title=" ">
<path fill="none" stroke="#63b8ff" d="M631.65,-103.9C622.58,-100.54 613.22,-97.38 604.25,-95 494.46,-65.9 461.1,-87.84 351.25,-59 344.41,-57.2 337.33,-54.96 330.48,-52.53"/>
<polygon fill="none" stroke="#63b8ff" points="630.12,-107.06 640.71,-107.35 632.61,-100.52 630.12,-107.06"/>
</a>
</g>
</g>
<!-- Node6&#45;&gt;Node7 -->
<g id="edge11_Node000006_Node000007" class="edge">
<title>Node6&#45;&gt;Node7</title>
<g id="a_edge11_Node000006_Node000007"><a xlink:title=" ">
<path fill="none" stroke="#63b8ff" d="M648.73,-103.68C640.17,-100.41 631.02,-97.33 622.25,-95 512.46,-65.9 479.1,-87.84 369.25,-59 362.41,-57.2 355.33,-54.96 348.33,-52.53"/>
<polygon fill="none" stroke="#63b8ff" points="647.19,-106.83 657.77,-107.33 649.81,-100.34 647.19,-106.83"/>
</a>
</g>
</g>
<!-- Node8 -->
<g id="Node000008" class="node">
<title>Node8</title>
<g id="a_Node000008"><a xlink:href="classanonymous__namespace_02issue-149-entry-selection_8cpp_03_1_1store__err__handler.html" target="_top" xlink:title=" ">
<polygon fill="white" stroke="none" points="533.62,-52.62 368.88,-52.62 368.88,-6.38 533.62,-6.38 533.62,-52.62"/>
<text xml:space="preserve" text-anchor="start" x="372.88" y="-39.12" font-family="Helvetica,sans-Serif" font-size="10.00">anonymous_namespace</text>
<text xml:space="preserve" text-anchor="start" x="372.88" y="-26.38" font-family="Helvetica,sans-Serif" font-size="10.00">{issue&#45;149&#45;entry&#45;selection.cpp}</text>
<text xml:space="preserve" text-anchor="start" x="405.5" y="-13.62" font-family="Helvetica,sans-Serif" font-size="10.00">::store_err_handler</text>
<polygon fill="none" stroke="#666666" points="368.88,-6.38 368.88,-52.62 533.62,-52.62 533.62,-6.38 368.88,-6.38"/>
</a>
</g>
</g>
<!-- Node6&#45;&gt;Node8 -->
<g id="edge12_Node000006_Node000008" class="edge">
<title>Node6&#45;&gt;Node8</title>
<g id="a_edge12_Node000006_Node000008"><a xlink:title=" ">
<path fill="none" stroke="#63b8ff" d="M629.92,-103.75C590.72,-88.73 538.66,-68.07 500.81,-52.52"/>
<polygon fill="none" stroke="#63b8ff" points="628.61,-107 639.2,-107.29 631.1,-100.46 628.61,-107"/>
</a>
</g>
</g>
<!-- Node6&#45;&gt;Node8 -->
<g id="edge13_Node000006_Node000008" class="edge">
<title>Node6&#45;&gt;Node8</title>
<g id="a_edge13_Node000006_Node000008"><a xlink:title=" ">
<path fill="none" stroke="#63b8ff" d="M640.73,-103.56C604.37,-88.55 552.72,-68 512.48,-52.52"/>
<polygon fill="none" stroke="#63b8ff" points="639.05,-106.65 649.63,-107.25 641.73,-100.18 639.05,-106.65"/>
</a>
</g>
</g>
<!-- Node9 -->
<g id="Node000009" class="node">
<title>Node9</title>
<g id="a_Node000009"><a xlink:href="classanonymous__namespace_02issue-70-root-schema-constructor_8cpp_03_1_1store__ptr__err__handler.html" target="_top" xlink:title=" ">
<polygon fill="white" stroke="none" points="678.5,-59 552,-59 552,0 678.5,0 678.5,-59"/>
<text xml:space="preserve" text-anchor="start" x="556" y="-45.5" font-family="Helvetica,sans-Serif" font-size="10.00">anonymous_namespace</text>
<text xml:space="preserve" text-anchor="start" x="556" y="-32.75" font-family="Helvetica,sans-Serif" font-size="10.00">{issue&#45;70&#45;root&#45;schema</text>
<text xml:space="preserve" text-anchor="start" x="556" y="-20" font-family="Helvetica,sans-Serif" font-size="10.00">&#45;constructor.cpp}::store</text>
<text xml:space="preserve" text-anchor="start" x="575.5" y="-7.25" font-family="Helvetica,sans-Serif" font-size="10.00">_ptr_err_handler</text>
<polygon fill="none" stroke="#666666" points="552,0 552,-59 678.5,-59 678.5,0 552,0"/>
</a>
</g>
</g>
<!-- Node6&#45;&gt;Node9 -->
<g id="edge14_Node000006_Node000009" class="edge">
<title>Node6&#45;&gt;Node9</title>
<g id="a_edge14_Node000006_Node000009"><a xlink:title=" ">
<path fill="none" stroke="#63b8ff" d="M661.3,-99.63C650.97,-87.13 639.3,-71.74 630.19,-58.66"/>
<polygon fill="none" stroke="#63b8ff" points="658.41,-101.63 667.55,-106.99 663.74,-97.1 658.41,-101.63"/>
</a>
</g>
</g>
<!-- Node6&#45;&gt;Node9 -->
<g id="edge15_Node000006_Node000009" class="edge">
<title>Node6&#45;&gt;Node9</title>
<g id="a_edge15_Node000006_Node000009"><a xlink:title=" ">
<path fill="none" stroke="#63b8ff" d="M672.76,-98.89C664.33,-86.53 653.08,-71.49 642.71,-58.66"/>
<polygon fill="none" stroke="#63b8ff" points="669.6,-100.45 678.02,-106.88 675.45,-96.6 669.6,-100.45"/>
</a>
</g>
</g>
<!-- Node10 -->
<g id="Node000010" class="node">
<title>Node10</title>
<g id="a_Node000010"><a xlink:href="classcustom__error__handler.html" target="_top" xlink:title=" ">
<polygon fill="white" stroke="none" points="811.5,-39.88 697,-39.88 697,-19.12 811.5,-19.12 811.5,-39.88"/>
<text xml:space="preserve" text-anchor="start" x="701" y="-26.38" font-family="Helvetica,sans-Serif" font-size="10.00">custom_error_handler</text>
<polygon fill="none" stroke="#666666" points="697,-19.12 697,-39.88 811.5,-39.88 811.5,-19.12 697,-19.12"/>
</a>
</g>
</g>
<!-- Node6&#45;&gt;Node10 -->
<g id="edge16_Node000006_Node000010" class="edge">
<title>Node6&#45;&gt;Node10</title>
<g id="a_edge16_Node000006_Node000010"><a xlink:title=" ">
<path fill="none" stroke="#63b8ff" d="M685.96,-97.86C696.48,-78.5 717.24,-53.06 734.77,-39.66"/>
<polygon fill="none" stroke="#63b8ff" points="682.85,-96.23 681.79,-106.77 689.19,-99.2 682.85,-96.23"/>
</a>
</g>
</g>
<!-- Node6&#45;&gt;Node10 -->
<g id="edge17_Node000006_Node000010" class="edge">
<title>Node6&#45;&gt;Node10</title>
<g id="a_edge17_Node000006_Node000010"><a xlink:title=" ">
<path fill="none" stroke="#63b8ff" d="M697.62,-98.66C710.71,-79.21 730.58,-53.25 743.23,-39.66"/>
<polygon fill="none" stroke="#63b8ff" points="694.81,-96.58 692.3,-106.87 700.68,-100.39 694.81,-96.58"/>
</a>
</g>
</g>
<!-- Node6&#45;&gt;Node10 -->
<g id="edge18_Node000006_Node000010" class="edge">
<title>Node6&#45;&gt;Node10</title>
<g id="a_edge18_Node000006_Node000010"><a xlink:title=" ">
<path fill="none" stroke="#63b8ff" d="M709.08,-99.46C724.99,-79.93 744.06,-53.43 751.68,-39.66"/>
<polygon fill="none" stroke="#63b8ff" points="706.52,-97.07 702.78,-106.98 711.89,-101.56 706.52,-97.07"/>
</a>
</g>
</g>
<!-- Node6&#45;&gt;Node10 -->
<g id="edge19_Node000006_Node000010" class="edge">
<title>Node6&#45;&gt;Node10</title>
<g id="a_edge19_Node000006_Node000010"><a xlink:title=" ">
<path fill="none" stroke="#63b8ff" d="M720.3,-100.26C739.34,-80.65 757.69,-53.62 760.13,-39.66"/>
<polygon fill="none" stroke="#63b8ff" points="717.99,-97.62 713.23,-107.09 722.85,-102.66 717.99,-97.62"/>
</a>
</g>
</g>
<!-- Node11 -->
<g id="Node000011" class="node">
<title>Node11</title>
<g id="a_Node000011"><a xlink:href="classstore__ptr__err__handler.html" target="_top" xlink:title=" ">
<polygon fill="white" stroke="none" points="941.38,-39.88 829.12,-39.88 829.12,-19.12 941.38,-19.12 941.38,-39.88"/>
<text xml:space="preserve" text-anchor="start" x="833.12" y="-26.38" font-family="Helvetica,sans-Serif" font-size="10.00">store_ptr_err_handler</text>
<polygon fill="none" stroke="#666666" points="829.12,-19.12 829.12,-39.88 941.38,-39.88 941.38,-19.12 829.12,-19.12"/>
</a>
</g>
</g>
<!-- Node6&#45;&gt;Node11 -->
<g id="edge20_Node000006_Node000011" class="edge">
<title>Node6&#45;&gt;Node11</title>
<g id="a_edge20_Node000006_Node000011"><a xlink:title=" ">
<path fill="none" stroke="#63b8ff" d="M723.84,-102.9C764.34,-83.25 826.57,-54.53 860.83,-39.87"/>
<polygon fill="none" stroke="#63b8ff" points="722.34,-99.73 714.89,-107.27 725.41,-106.02 722.34,-99.73"/>
</a>
</g>
</g>
<!-- Node6&#45;&gt;Node11 -->
<g id="edge21_Node000006_Node000011" class="edge">
<title>Node6&#45;&gt;Node11</title>
<g id="a_edge21_Node000006_Node000011"><a xlink:title=" ">
<path fill="none" stroke="#63b8ff" d="M734.43,-103.27C778.5,-83.61 840.37,-54.63 869.36,-39.87"/>
<polygon fill="none" stroke="#63b8ff" points="733.02,-100.07 725.3,-107.32 735.86,-106.47 733.02,-100.07"/>
</a>
</g>
</g>
</g>
</svg>
