<?xml version="1.0" encoding="UTF-8" standalone="no"?>
<!DOCTYPE svg PUBLIC "-//W3C//DTD SVG 1.1//EN"
 "http://www.w3.org/Graphics/SVG/1.1/DTD/svg11.dtd">
<!-- Generated by graphviz version 2.42.4 (0)
 -->
<!-- Title: mqtt::bridge::lib::Broker::getUsername Pages: 1 -->
<svg width="273pt" height="104pt"
 viewBox="0.00 0.00 273.00 104.00" xmlns="http://www.w3.org/2000/svg" xmlns:xlink="http://www.w3.org/1999/xlink">

<svg id="main" version="1.1" xmlns="http://www.w3.org/2000/svg" xmlns:xlink="http://www.w3.org/1999/xlink" xml:space="preserve" onload="init(evt)">
<style type="text/css"><![CDATA[
.node, .edge {opacity: 0.7;}
.node.selected, .edge.selected {opacity: 1;}
.edge:hover path { stroke: red; }
.edge:hover polygon { stroke: red; fill: red; }
]]></style>
<script type="application/ecmascript" xlink:href="svg.min.js"/>
<svg id="graph" class="graph">
<g id="graph0" class="graph" transform="scale(1 1) rotate(0) translate(4 100)">
<title>mqtt::bridge::lib::Broker::getUsername</title>
<!-- Node1 -->
<g id="Node000001" class="node">
<title>Node1</title>
<g id="a_Node000001"><a xlink:title=" ">
<polygon fill="#999999" stroke="#666666" points="265,-54 145,-54 145,-24 265,-24 265,-54"/>
<text text-anchor="start" x="153" y="-42" font-family="Helvetica,sans-Serif" font-size="10.00">mqtt::bridge::lib::</text>
<text text-anchor="middle" x="205" y="-31" font-family="Helvetica,sans-Serif" font-size="10.00">Broker::getUsername</text>
</a>
</g>
</g>
<!-- Node2 -->
<g id="Node000002" class="node">
<title>Node2</title>
<g id="a_Node000002"><a xlink:href="classmqtt_1_1bridge_1_1lib_1_1Mqtt.html#a6e485f1bb766fbeffdd53a23fc3ced4f" target="_top" xlink:title=" ">
<polygon fill="white" stroke="#666666" points="105,-78 4,-78 4,-48 105,-48 105,-78"/>
<text text-anchor="start" x="12" y="-66" font-family="Helvetica,sans-Serif" font-size="10.00">mqtt::bridge::lib::</text>
<text text-anchor="middle" x="54.5" y="-55" font-family="Helvetica,sans-Serif" font-size="10.00">Mqtt::Mqtt</text>
</a>
</g>
</g>
<!-- Node1&#45;&gt;Node2 -->
<g id="edge1_Node000001_Node000002" class="edge">
<title>Node1&#45;&gt;Node2</title>
<g id="a_edge1_Node000001_Node000002"><a xlink:title=" ">
<path fill="none" stroke="#63b8ff" d="M134.96,-50.16C124.97,-51.77 114.85,-53.41 105.33,-54.95"/>
<polygon fill="#63b8ff" stroke="#63b8ff" points="135.57,-53.61 144.88,-48.55 134.45,-46.69 135.57,-53.61"/>
</a>
</g>
</g>
<!-- Node3 -->
<g id="Node000003" class="node">
<title>Node3</title>
<g id="a_Node000003"><a xlink:href="classmqtt_1_1bridge_1_1lib_1_1Mqtt.html#a5847611e17b94be67e5cf9743fb03a58" target="_top" xlink:title=" ">
<polygon fill="white" stroke="#666666" points="109,-30 0,-30 0,0 109,0 109,-30"/>
<text text-anchor="start" x="8" y="-18" font-family="Helvetica,sans-Serif" font-size="10.00">mqtt::bridge::lib::</text>
<text text-anchor="middle" x="54.5" y="-7" font-family="Helvetica,sans-Serif" font-size="10.00">Mqtt::onConnected</text>
</a>
</g>
</g>
<!-- Node1&#45;&gt;Node3 -->
<g id="edge3_Node000001_Node000003" class="edge">
<title>Node1&#45;&gt;Node3</title>
<g id="a_edge3_Node000001_Node000003"><a xlink:title=" ">
<path fill="none" stroke="#63b8ff" d="M134.82,-27.82C126.19,-26.42 117.47,-25.01 109.12,-23.67"/>
<polygon fill="#63b8ff" stroke="#63b8ff" points="134.45,-31.31 144.88,-29.45 135.57,-24.39 134.45,-31.31"/>
</a>
</g>
</g>
<!-- Node2&#45;&gt;Node2 -->
<g id="edge2_Node000002_Node000002" class="edge">
<title>Node2&#45;&gt;Node2</title>
<g id="a_edge2_Node000002_Node000002"><a xlink:title=" ">
<path fill="none" stroke="#63b8ff" d="M80.76,-88.6C77.17,-92.97 68.42,-96 54.5,-96 31.06,-96 22.27,-87.41 28.13,-78.28"/>
<polygon fill="#63b8ff" stroke="#63b8ff" points="84.26,-88.31 80.87,-78.28 77.26,-88.24 84.26,-88.31"/>
</a>
</g>
</g>
</g>
</svg>
</svg>

<style type='text/css'>
<![CDATA[
[data-mouse-over-selected='false'] { opacity: 0.7; }
[data-mouse-over-selected='true']  { opacity: 1.0; }
]]>
</style>
<script type="application/ecmascript"><![CDATA[
document.addEventListener('DOMContentLoaded', (event) => {
  highlightEdges();
  highlightAdjacentNodes();
});
]]></script>
</svg>
