<?xml version="1.0" encoding="UTF-8" standalone="no"?>
<!DOCTYPE svg PUBLIC "-//W3C//DTD SVG 1.1//EN"
 "http://www.w3.org/Graphics/SVG/1.1/DTD/svg11.dtd">
<!-- Generated by graphviz version 14.1.1 (0)
 -->
<!-- Title: inja::ExtendsStatementNode::ExtendsStatementNode Pages: 1 -->
<svg width="481pt" height="42pt"
 viewBox="0.00 0.00 481.00 42.00" xmlns="http://www.w3.org/2000/svg" xmlns:xlink="http://www.w3.org/1999/xlink">
<g id="graph0" class="graph" transform="scale(1 1) rotate(0) translate(4 37.5)">
<title>inja::ExtendsStatementNode::ExtendsStatementNode</title>
<!-- Node1 -->
<g id="Node000001" class="node">
<title>Node1</title>
<g id="a_Node000001"><a xlink:title=" ">
<polygon fill="#999999" stroke="#666666" points="155.5,-33.5 0,-33.5 0,0 155.5,0 155.5,-33.5"/>
<text xml:space="preserve" text-anchor="start" x="8" y="-20" font-family="Helvetica,sans-Serif" font-size="10.00">inja::ExtendsStatementNode</text>
<text xml:space="preserve" text-anchor="middle" x="77.75" y="-7.25" font-family="Helvetica,sans-Serif" font-size="10.00">::ExtendsStatementNode</text>
</a>
</g>
</g>
<!-- Node2 -->
<g id="Node000002" class="node">
<title>Node2</title>
<g id="a_Node000002"><a xlink:href="classinja_1_1StatementNode.html#a0bba1af707ebbe637bcfe3e1684f63d6" target="_top" xlink:title=" ">
<polygon fill="white" stroke="#666666" points="308,-33.5 191.5,-33.5 191.5,0 308,0 308,-33.5"/>
<text xml:space="preserve" text-anchor="start" x="199.5" y="-20" font-family="Helvetica,sans-Serif" font-size="10.00">inja::StatementNode</text>
<text xml:space="preserve" text-anchor="middle" x="249.75" y="-7.25" font-family="Helvetica,sans-Serif" font-size="10.00">::StatementNode</text>
</a>
</g>
</g>
<!-- Node1&#45;&gt;Node2 -->
<g id="edge1_Node000001_Node000002" class="edge">
<title>Node1&#45;&gt;Node2</title>
<g id="a_edge1_Node000001_Node000002"><a xlink:title=" ">
<path fill="none" stroke="#63b8ff" d="M155.79,-16.75C163.76,-16.75 171.82,-16.75 179.7,-16.75"/>
<polygon fill="#63b8ff" stroke="#63b8ff" points="179.55,-20.25 189.55,-16.75 179.55,-13.25 179.55,-20.25"/>
</a>
</g>
</g>
<!-- Node3 -->
<g id="Node000003" class="node">
<title>Node3</title>
<g id="a_Node000003"><a xlink:href="classinja_1_1AstNode.html#a07cb3d5b6c13935440fc092ec8ff1fec" target="_top" xlink:title=" ">
<polygon fill="white" stroke="#666666" points="472.5,-27.12 344,-27.12 344,-6.38 472.5,-6.38 472.5,-27.12"/>
<text xml:space="preserve" text-anchor="middle" x="408.25" y="-13.62" font-family="Helvetica,sans-Serif" font-size="10.00">inja::AstNode::AstNode</text>
</a>
</g>
</g>
<!-- Node2&#45;&gt;Node3 -->
<g id="edge2_Node000002_Node000003" class="edge">
<title>Node2&#45;&gt;Node3</title>
<g id="a_edge2_Node000002_Node000003"><a xlink:title=" ">
<path fill="none" stroke="#63b8ff" d="M308.14,-16.75C315.96,-16.75 324.09,-16.75 332.17,-16.75"/>
<polygon fill="#63b8ff" stroke="#63b8ff" points="332.02,-20.25 342.02,-16.75 332.02,-13.25 332.02,-20.25"/>
</a>
</g>
</g>
</g>
</svg>
