<?xml version="1.0" encoding="UTF-8" standalone="no"?>
<!DOCTYPE svg PUBLIC "-//W3C//DTD SVG 1.1//EN"
 "http://www.w3.org/Graphics/SVG/1.1/DTD/svg11.dtd">
<!-- Generated by graphviz version 2.42.4 (0)
 -->
<!-- Title: anonymous_namespace{errors.cpp}::store_ptr_err_handler Pages: 1 -->
<svg width="274pt" height="199pt"
 viewBox="0.00 0.00 274.00 199.00" xmlns="http://www.w3.org/2000/svg" xmlns:xlink="http://www.w3.org/1999/xlink">
<g id="graph0" class="graph" transform="scale(1 1) rotate(0) translate(4 195)">
<title>anonymous_namespace{errors.cpp}::store_ptr_err_handler</title>
<!-- Node1 -->
<g id="Node000001" class="node">
<title>Node1</title>
<g id="a_Node000001"><a xlink:title=" ">
<polygon fill="#999999" stroke="transparent" points="128,-41 0,-41 0,0 128,0 128,-41"/>
<text text-anchor="start" x="4.5" y="-28.5" font-family="Helvetica,sans-Serif" font-size="10.00">anonymous_namespace</text>
<text text-anchor="start" x="4.5" y="-17.5" font-family="Helvetica,sans-Serif" font-size="10.00">{errors.cpp}::store</text>
<text text-anchor="start" x="24" y="-6.5" font-family="Helvetica,sans-Serif" font-size="10.00">_ptr_err_handler</text>
<polygon fill="none" stroke="#666666" points="0,0 0,-41 128,-41 128,0 0,0"/>
</a>
</g>
</g>
<!-- Node2 -->
<g id="Node000002" class="node">
<title>Node2</title>
<g id="a_Node000002"><a xlink:href="classnlohmann_1_1json__schema_1_1basic__error__handler.html" target="_top" xlink:title=" ">
<polygon fill="white" stroke="transparent" points="128,-124 0,-124 0,-94 128,-94 128,-124"/>
<text text-anchor="start" x="4.5" y="-112" font-family="Helvetica,sans-Serif" font-size="10.00">nlohmann::json_schema</text>
<text text-anchor="start" x="12.5" y="-101" font-family="Helvetica,sans-Serif" font-size="10.00">::basic_error_handler</text>
<polygon fill="none" stroke="#666666" points="0,-94 0,-124 128,-124 128,-94 0,-94"/>
</a>
</g>
</g>
<!-- Node2&#45;&gt;Node1 -->
<g id="edge1_Node000001_Node000002" class="edge">
<title>Node2&#45;&gt;Node1</title>
<g id="a_edge1_Node000001_Node000002"><a xlink:title=" ">
<path fill="none" stroke="#63b8ff" d="M57.87,-83.75C56.94,-70.36 57.06,-53.93 58.22,-41.31"/>
<polygon fill="none" stroke="#63b8ff" points="54.38,-84.1 58.83,-93.72 61.35,-83.42 54.38,-84.1"/>
</a>
</g>
</g>
<!-- Node2&#45;&gt;Node1 -->
<g id="edge3_Node000001_Node000002" class="edge">
<title>Node2&#45;&gt;Node1</title>
<g id="a_edge3_Node000001_Node000002"><a xlink:title=" ">
<path fill="none" stroke="#63b8ff" d="M70.13,-83.75C71.06,-70.36 70.94,-53.93 69.78,-41.31"/>
<polygon fill="none" stroke="#63b8ff" points="66.65,-83.42 69.17,-93.72 73.62,-84.1 66.65,-83.42"/>
</a>
</g>
</g>
<!-- Node3 -->
<g id="Node000003" class="node">
<title>Node3</title>
<g id="a_Node000003"><a xlink:href="classnlohmann_1_1json__schema_1_1error__handler.html" target="_top" xlink:title=" ">
<polygon fill="white" stroke="transparent" points="128,-191 0,-191 0,-161 128,-161 128,-191"/>
<text text-anchor="start" x="4.5" y="-179" font-family="Helvetica,sans-Serif" font-size="10.00">nlohmann::json_schema</text>
<text text-anchor="start" x="28" y="-168" font-family="Helvetica,sans-Serif" font-size="10.00">::error_handler</text>
<polygon fill="none" stroke="#666666" points="0,-161 0,-191 128,-191 128,-161 0,-161"/>
</a>
</g>
</g>
<!-- Node3&#45;&gt;Node2 -->
<g id="edge2_Node000002_Node000003" class="edge">
<title>Node3&#45;&gt;Node2</title>
<g id="a_edge2_Node000002_Node000003"><a xlink:title=" ">
<path fill="none" stroke="#63b8ff" d="M64,-150.61C64,-141.65 64,-131.82 64,-124.08"/>
<polygon fill="none" stroke="#63b8ff" points="60.5,-150.9 64,-160.9 67.5,-150.9 60.5,-150.9"/>
</a>
</g>
</g>
<!-- Node4 -->
<g id="Node000004" class="node">
<title>Node4</title>
<g id="a_Node000004"><a xlink:title=" ">
<polygon fill="white" stroke="transparent" points="266,-124 146,-124 146,-94 266,-94 266,-124"/>
<text text-anchor="start" x="150" y="-112" font-family="Helvetica,sans-Serif" font-size="10.00">std::vector&lt; nlohmann</text>
<text text-anchor="start" x="154" y="-101" font-family="Helvetica,sans-Serif" font-size="10.00">::json::json_pointer &gt;</text>
<polygon fill="none" stroke="#666666" points="146,-94 146,-124 266,-124 266,-94 146,-94"/>
</a>
</g>
</g>
<!-- Node4&#45;&gt;Node1 -->
<g id="edge4_Node000001_Node000004" class="edge">
<title>Node4&#45;&gt;Node1</title>
<g id="a_edge4_Node000001_Node000004"><a xlink:title=" ">
<path fill="none" stroke="#63b8ff" d="M182.87,-93.91C162.24,-81.34 131.52,-62.63 106.48,-47.37"/>
<polygon fill="none" stroke="#63b8ff" points="106.38,-47.32 99.18,-47.61 96.14,-41.08 103.34,-40.78 106.38,-47.32"/>
</a>
</g>
<text text-anchor="start" x="155" y="-64.5" font-family="Helvetica,sans-Serif" font-size="10.00" fill="grey">+failed_pointers</text>
</g>
</g>
</svg>
