<?xml version="1.0" encoding="UTF-8" standalone="no"?>
<!DOCTYPE svg PUBLIC "-//W3C//DTD SVG 1.1//EN"
 "http://www.w3.org/Graphics/SVG/1.1/DTD/svg11.dtd">
<!-- Generated by graphviz version 2.42.4 (0)
 -->
<!-- Title: anonymous_namespace{json&#45;validator.cpp}::array Pages: 1 -->
<!--zoomable 883 -->

<svg id="main" version="1.1" xmlns="http://www.w3.org/2000/svg" xmlns:xlink="http://www.w3.org/1999/xlink" xml:space="preserve" onload="init(evt)">
<style type="text/css"><![CDATA[
.node, .edge {opacity: 0.7;}
.node.selected, .edge.selected {opacity: 1;}
.edge:hover path { stroke: red; }
.edge:hover polygon { stroke: red; fill: red; }
]]></style>

<defs>
  <circle id="rim" cx="0" cy="0" r="7"/>
  <circle id="rim2" cx="0" cy="0" r="3.5"/>
  <g id="zoomPlus">
    <use xlink:href="#rim" fill="#404040"><set attributeName="fill" to="#808080" begin="zoomplus.mouseover" end="zoomplus.mouseout"/></use>
    <path d="M-4,0h8M0,-4v8" fill="none" stroke="white" stroke-width="1.5" pointer-events="none"/>
  </g>
  <g id="zoomMin">
    <use xlink:href="#rim" fill="#404040"><set attributeName="fill" to="#808080" begin="zoomminus.mouseover" end="zoomminus.mouseout"/></use>
    <path d="M-4,0h8" fill="none" stroke="white" stroke-width="1.5" pointer-events="none"/>
  </g>
  <g id="arrowUp" transform="translate(30 24)">
    <use xlink:href="#rim"/>
    <path pointer-events="none" fill="none" stroke="white" stroke-width="1.5" d="M0,-3.0v7 M-2.5,-0.5L0,-3.0L2.5,-0.5"/>
  </g>
  <g id="arrowRight" transform="rotate(90) translate(36 -43)">
    <use xlink:href="#rim"/>
    <path pointer-events="none" fill="none" stroke="white" stroke-width="1.5" d="M0,-3.0v7 M-2.5,-0.5L0,-3.0L2.5,-0.5"/>
  </g>
  <g id="arrowDown" transform="rotate(180) translate(-30 -48)">
    <use xlink:href="#rim"/>
    <path pointer-events="none" fill="none" stroke="white" stroke-width="1.5" d="M0,-3.0v7 M-2.5,-0.5L0,-3.0L2.5,-0.5"/>
  </g>
  <g id="arrowLeft" transform="rotate(270) translate(-36 17)">
    <use xlink:href="#rim"/>
    <path pointer-events="none" fill="none" stroke="white" stroke-width="1.5" d="M0,-3.0v7 M-2.5,-0.5L0,-3.0L2.5,-0.5"/>
  </g>
  <g id="resetDef">
    <use xlink:href="#rim2" fill="#404040"><set attributeName="fill" to="#808080" begin="reset.mouseover" end="reset.mouseout"/></use>
  </g>
</defs>
<script type="application/ecmascript">
var viewWidth = 605;
var viewHeight = 883;
var sectionId = 'dynsection-1';
</script>
<script type="application/ecmascript" xlink:href="svg.min.js"/>
<svg id="graph" class="graph">
<g id="viewport">
<title>anonymous_namespace{json&#45;validator.cpp}::array</title>
<!-- Node1 -->
<g id="Node000001" class="node">
<title>Node1</title>
<g id="a_Node000001"><a xlink:title=" ">
<polygon fill="#999999" stroke="transparent" points="462,-41 334,-41 334,0 462,0 462,-41"/>
<text text-anchor="start" x="338.5" y="-28.5" font-family="Helvetica,sans-Serif" font-size="10.00">anonymous_namespace</text>
<text text-anchor="start" x="338.5" y="-17.5" font-family="Helvetica,sans-Serif" font-size="10.00">{json&#45;validator.cpp}</text>
<text text-anchor="start" x="382" y="-6.5" font-family="Helvetica,sans-Serif" font-size="10.00">::array</text>
<polygon fill="none" stroke="#666666" points="334,0 334,-41 462,-41 462,0 334,0"/>
</a>
</g>
</g>
<!-- Node2 -->
<g id="Node000002" class="node">
<title>Node2</title>
<g id="a_Node000002"><a xlink:href="classanonymous__namespace_02json-validator_8cpp_03_1_1schema.html" target="_top" xlink:title=" ">
<polygon fill="white" stroke="transparent" points="525,-353 397,-353 397,-312 525,-312 525,-353"/>
<text text-anchor="start" x="401.5" y="-340.5" font-family="Helvetica,sans-Serif" font-size="10.00">anonymous_namespace</text>
<text text-anchor="start" x="401.5" y="-329.5" font-family="Helvetica,sans-Serif" font-size="10.00">{json&#45;validator.cpp}</text>
<text text-anchor="start" x="438.5" y="-318.5" font-family="Helvetica,sans-Serif" font-size="10.00">::schema</text>
<polygon fill="none" stroke="#666666" points="397,-312 397,-353 525,-353 525,-312 397,-312"/>
</a>
</g>
</g>
<!-- Node2&#45;&gt;Node1 -->
<g id="edge1_Node000001_Node000002" class="edge">
<title>Node2&#45;&gt;Node1</title>
<g id="a_edge1_Node000001_Node000002"><a xlink:title=" ">
<path fill="none" stroke="#63b8ff" d="M453.13,-301.65C452,-284.13 452,-261.56 452,-241.5 452,-241.5 452,-241.5 452,-107.5 452,-80.85 432.07,-56.97 416.23,-41.18"/>
<polygon fill="none" stroke="#63b8ff" points="449.67,-302.17 454,-311.84 456.64,-301.58 449.67,-302.17"/>
</a>
</g>
</g>
<!-- Node2&#45;&gt;Node1 -->
<g id="edge16_Node000001_Node000002" class="edge">
<title>Node2&#45;&gt;Node1</title>
<g id="a_edge16_Node000001_Node000002"><a xlink:title=" ">
<path fill="none" stroke="#63b8ff" d="M468.87,-301.65C470,-284.13 470,-261.56 470,-241.5 470,-241.5 470,-241.5 470,-107.5 470,-80.85 450.07,-56.97 431.02,-41.18"/>
<polygon fill="none" stroke="#63b8ff" points="465.36,-301.58 468,-311.84 472.33,-302.17 465.36,-301.58"/>
</a>
</g>
</g>
<!-- Node3 -->
<g id="Node000003" class="node">
<title>Node3</title>
<g id="a_Node000003"><a xlink:href="classnlohmann_1_1json__schema_1_1root__schema.html" target="_top" xlink:title=" ">
<polygon fill="white" stroke="transparent" points="385,-478 257,-478 257,-448 385,-448 385,-478"/>
<text text-anchor="start" x="261.5" y="-466" font-family="Helvetica,sans-Serif" font-size="10.00">nlohmann::json_schema</text>
<text text-anchor="start" x="286" y="-455" font-family="Helvetica,sans-Serif" font-size="10.00">::root_schema</text>
<polygon fill="none" stroke="#666666" points="257,-448 257,-478 385,-478 385,-448 257,-448"/>
</a>
</g>
</g>
<!-- Node3&#45;&gt;Node2 -->
<g id="edge2_Node000002_Node000003" class="edge">
<title>Node3&#45;&gt;Node2</title>
<g id="a_edge2_Node000002_Node000003"><a xlink:title=" ">
<path fill="none" stroke="#63b8ff" d="M346,-447.89C364.77,-436.6 390.49,-419.63 410,-401 421.78,-389.75 432.93,-375.57 441.78,-363.12"/>
<polygon fill="none" stroke="#63b8ff" points="441.83,-363.05 441.94,-355.84 448.64,-353.17 448.53,-360.38 441.83,-363.05"/>
</a>
</g>
<text text-anchor="middle" x="406.5" y="-422" font-family="Helvetica,sans-Serif" font-size="10.00" fill="grey"> #root_</text>
</g>
<!-- Node15 -->
<g id="Node000015" class="node">
<title>Node15</title>
<g id="a_Node000015"><a xlink:title=" ">
<polygon fill="white" stroke="transparent" points="401,-401 241,-401 241,-371 401,-371 401,-401"/>
<text text-anchor="start" x="245.5" y="-389" font-family="Helvetica,sans-Serif" font-size="10.00">std::unique_ptr&lt; nlohmann</text>
<text text-anchor="start" x="245.5" y="-378" font-family="Helvetica,sans-Serif" font-size="10.00">::json_schema::root_schema &gt;</text>
<polygon fill="none" stroke="#666666" points="241,-371 241,-401 401,-401 401,-371 241,-371"/>
</a>
</g>
</g>
<!-- Node3&#45;&gt;Node15 -->
<g id="edge20_Node000015_Node000003" class="edge">
<title>Node3&#45;&gt;Node15</title>
<g id="a_edge20_Node000015_Node000003"><a xlink:title=" ">
<path fill="none" stroke="#63b8ff" d="M321,-447.89C321,-438.15 321,-424.9 321,-413.25"/>
<polygon fill="none" stroke="#63b8ff" points="321,-413.04 317,-407.04 321,-401.04 325,-407.04 321,-413.04"/>
</a>
</g>
<text text-anchor="middle" x="333.5" y="-422" font-family="Helvetica,sans-Serif" font-size="10.00" fill="grey"> +ptr</text>
</g>
<!-- Node4 -->
<g id="Node000004" class="node">
<title>Node4</title>
<g id="a_Node000004"><a xlink:title=" ">
<polygon fill="white" stroke="transparent" points="142,-802.5 0,-802.5 0,-783.5 142,-783.5 142,-802.5"/>
<text text-anchor="start" x="4" y="-790" font-family="Helvetica,sans-Serif" font-size="10.00">std::shared_ptr&lt; schema &gt;</text>
<polygon fill="none" stroke="#666666" points="0,-783.5 0,-802.5 142,-802.5 142,-783.5 0,-783.5"/>
</a>
</g>
</g>
<!-- Node4&#45;&gt;Node3 -->
<g id="edge3_Node000003_Node000004" class="edge">
<title>Node4&#45;&gt;Node3</title>
<g id="a_edge3_Node000003_Node000004"><a xlink:title=" ">
<path fill="none" stroke="#63b8ff" d="M62.71,-783.4C50.21,-769.49 28,-740.65 28,-711.5 28,-711.5 28,-711.5 28,-544.5 28,-499.53 157.94,-478.76 244.75,-469.89"/>
<polygon fill="none" stroke="#63b8ff" points="244.76,-469.89 250.34,-465.33 256.7,-468.72 251.12,-473.29 244.76,-469.89"/>
</a>
</g>
<text text-anchor="middle" x="44" y="-625.5" font-family="Helvetica,sans-Serif" font-size="10.00" fill="grey"> &#45;root_</text>
</g>
<!-- Node9 -->
<g id="Node000009" class="node">
<title>Node9</title>
<g id="a_Node000009"><a xlink:title=" ">
<polygon fill="white" stroke="transparent" points="212,-725.5 56,-725.5 56,-695.5 212,-695.5 212,-725.5"/>
<text text-anchor="start" x="60" y="-713.5" font-family="Helvetica,sans-Serif" font-size="10.00">std::map&lt; std::string,</text>
<text text-anchor="start" x="60" y="-702.5" font-family="Helvetica,sans-Serif" font-size="10.00"> std::shared_ptr&lt; schema &gt; &gt;</text>
<polygon fill="none" stroke="#666666" points="56,-695.5 56,-725.5 212,-725.5 212,-695.5 56,-695.5"/>
</a>
</g>
</g>
<!-- Node4&#45;&gt;Node9 -->
<g id="edge10_Node000009_Node000004" class="edge">
<title>Node4&#45;&gt;Node9</title>
<g id="a_edge10_Node000009_Node000004"><a xlink:title=" ">
<path fill="none" stroke="#63b8ff" d="M76.43,-783.18C82.01,-774.3 91.11,-760.34 100,-749 103.73,-744.24 107.92,-739.32 112.04,-734.68"/>
<polygon fill="none" stroke="#63b8ff" points="112.17,-734.54 113.26,-727.42 120.26,-725.68 119.17,-732.81 112.17,-734.54"/>
</a>
</g>
<text text-anchor="middle" x="129" y="-752" font-family="Helvetica,sans-Serif" font-size="10.00" fill="grey"> +elements</text>
</g>
<!-- Node5 -->
<g id="Node000005" class="node">
<title>Node5</title>
<g id="a_Node000005"><a xlink:title=" ">
<polygon fill="white" stroke="transparent" points="398,-566 244,-566 244,-525 398,-525 398,-566"/>
<text text-anchor="start" x="248" y="-553.5" font-family="Helvetica,sans-Serif" font-size="10.00">std::map&lt; std::string,</text>
<text text-anchor="start" x="248" y="-542.5" font-family="Helvetica,sans-Serif" font-size="10.00"> nlohmann::json_schema</text>
<text text-anchor="start" x="248" y="-531.5" font-family="Helvetica,sans-Serif" font-size="10.00">::root_schema::schema_file &gt;</text>
<polygon fill="none" stroke="#666666" points="244,-525 244,-566 398,-566 398,-525 244,-525"/>
</a>
</g>
</g>
<!-- Node5&#45;&gt;Node3 -->
<g id="edge4_Node000003_Node000005" class="edge">
<title>Node5&#45;&gt;Node3</title>
<g id="a_edge4_Node000003_Node000005"><a xlink:title=" ">
<path fill="none" stroke="#63b8ff" d="M321,-524.6C321,-514.29 321,-501.57 321,-490.45"/>
<polygon fill="none" stroke="#63b8ff" points="321,-490.37 317,-484.37 321,-478.37 325,-484.37 321,-490.37"/>
</a>
</g>
<text text-anchor="middle" x="338" y="-499" font-family="Helvetica,sans-Serif" font-size="10.00" fill="grey"> &#45;files_</text>
</g>
<!-- Node6 -->
<g id="Node000006" class="node">
<title>Node6</title>
<g id="a_Node000006"><a xlink:title=" ">
<polygon fill="white" stroke="transparent" points="256,-802.5 198,-802.5 198,-783.5 256,-783.5 256,-802.5"/>
<text text-anchor="start" x="202.5" y="-790" font-family="Helvetica,sans-Serif" font-size="10.00">std::string</text>
<polygon fill="none" stroke="#666666" points="198,-783.5 198,-802.5 256,-802.5 256,-783.5 198,-783.5"/>
</a>
</g>
</g>
<!-- Node6&#45;&gt;Node5 -->
<g id="edge5_Node000005_Node000006" class="edge">
<title>Node6&#45;&gt;Node5</title>
<g id="a_edge5_Node000005_Node000006"><a xlink:title=" ">
<path fill="none" stroke="#63b8ff" d="M226.86,-783.26C226.77,-756.33 229.07,-672.86 259,-613 266.06,-598.88 277.06,-585.65 287.85,-574.76"/>
<polygon fill="none" stroke="#63b8ff" points="288.12,-574.51 289.68,-567.46 296.78,-566.2 295.22,-573.24 288.12,-574.51"/>
</a>
</g>
<text text-anchor="middle" x="259" y="-664" font-family="Helvetica,sans-Serif" font-size="10.00" fill="grey"> +keys</text>
</g>
<!-- Node6&#45;&gt;Node9 -->
<g id="edge9_Node000009_Node000006" class="edge">
<title>Node6&#45;&gt;Node9</title>
<g id="a_edge9_Node000009_Node000006"><a xlink:title=" ">
<path fill="none" stroke="#63b8ff" d="M217.05,-783.39C203.48,-771.64 178.7,-750.19 159.73,-733.77"/>
<polygon fill="none" stroke="#63b8ff" points="159.5,-733.57 152.34,-732.67 150.43,-725.72 157.58,-726.62 159.5,-733.57"/>
</a>
</g>
<text text-anchor="middle" x="206" y="-752" font-family="Helvetica,sans-Serif" font-size="10.00" fill="grey"> +keys</text>
</g>
<!-- Node10 -->
<g id="Node000010" class="node">
<title>Node10</title>
<g id="a_Node000010"><a xlink:title=" ">
<polygon fill="white" stroke="transparent" points="402,-731 268,-731 268,-690 402,-690 402,-731"/>
<text text-anchor="start" x="272" y="-718.5" font-family="Helvetica,sans-Serif" font-size="10.00">std::map&lt; std::string,</text>
<text text-anchor="start" x="272" y="-707.5" font-family="Helvetica,sans-Serif" font-size="10.00"> std::shared_ptr&lt; schema</text>
<text text-anchor="start" x="314" y="-696.5" font-family="Helvetica,sans-Serif" font-size="10.00">_ref &gt; &gt;</text>
<polygon fill="none" stroke="#666666" points="268,-690 268,-731 402,-731 402,-690 268,-690"/>
</a>
</g>
</g>
<!-- Node6&#45;&gt;Node10 -->
<g id="edge12_Node000010_Node000006" class="edge">
<title>Node6&#45;&gt;Node10</title>
<g id="a_edge12_Node000010_Node000006"><a xlink:title=" ">
<path fill="none" stroke="#63b8ff" d="M238.56,-783.39C252.93,-772.67 278.15,-753.88 299.19,-738.19"/>
<polygon fill="none" stroke="#63b8ff" points="299.19,-738.19 301.61,-731.4 308.81,-731.02 306.39,-737.81 299.19,-738.19"/>
</a>
</g>
<text text-anchor="middle" x="302" y="-752" font-family="Helvetica,sans-Serif" font-size="10.00" fill="grey"> +keys</text>
</g>
<!-- Node7 -->
<g id="Node000007" class="node">
<title>Node7</title>
<g id="a_Node000007"><a xlink:title=" ">
<polygon fill="white" stroke="transparent" points="275,-875 179,-875 179,-845 275,-845 275,-875"/>
<text text-anchor="start" x="183" y="-863" font-family="Helvetica,sans-Serif" font-size="10.00">std::basic_string&lt;</text>
<text text-anchor="start" x="208.5" y="-852" font-family="Helvetica,sans-Serif" font-size="10.00"> Char &gt;</text>
<polygon fill="none" stroke="#666666" points="179,-845 179,-875 275,-875 275,-845 179,-845"/>
</a>
</g>
</g>
<!-- Node7&#45;&gt;Node6 -->
<g id="edge6_Node000006_Node000007" class="edge">
<title>Node7&#45;&gt;Node6</title>
<g id="a_edge6_Node000006_Node000007"><a xlink:title=" ">
<path fill="none" stroke="#63b8ff" d="M227,-834.75C227,-823.52 227,-810.88 227,-802.69"/>
<polygon fill="none" stroke="#63b8ff" points="223.5,-834.9 227,-844.9 230.5,-834.9 223.5,-834.9"/>
</a>
</g>
</g>
<!-- Node8 -->
<g id="Node000008" class="node">
<title>Node8</title>
<g id="a_Node000008"><a xlink:href="structnlohmann_1_1json__schema_1_1root__schema_1_1schema__file.html" target="_top" xlink:title=" ">
<polygon fill="white" stroke="transparent" points="412,-643 268,-643 268,-613 412,-613 412,-643"/>
<text text-anchor="start" x="272.5" y="-631" font-family="Helvetica,sans-Serif" font-size="10.00">nlohmann::json_schema</text>
<text text-anchor="start" x="272.5" y="-620" font-family="Helvetica,sans-Serif" font-size="10.00">::root_schema::schema_file</text>
<polygon fill="none" stroke="#666666" points="268,-613 268,-643 412,-643 412,-613 268,-613"/>
</a>
</g>
</g>
<!-- Node8&#45;&gt;Node5 -->
<g id="edge7_Node000005_Node000008" class="edge">
<title>Node8&#45;&gt;Node5</title>
<g id="a_edge7_Node000005_Node000008"><a xlink:title=" ">
<path fill="none" stroke="#63b8ff" d="M336.69,-612.98C334.42,-603.35 331.31,-590.17 328.46,-578.09"/>
<polygon fill="none" stroke="#63b8ff" points="328.38,-577.77 323.11,-572.85 325.62,-566.09 330.89,-571.01 328.38,-577.77"/>
</a>
</g>
<text text-anchor="middle" x="362" y="-587" font-family="Helvetica,sans-Serif" font-size="10.00" fill="grey"> +elements</text>
</g>
<!-- Node9&#45;&gt;Node8 -->
<g id="edge8_Node000008_Node000009" class="edge">
<title>Node9&#45;&gt;Node8</title>
<g id="a_edge8_Node000008_Node000009"><a xlink:title=" ">
<path fill="none" stroke="#63b8ff" d="M138.75,-695.3C143.23,-684.18 151.06,-669.26 163,-661 178.29,-650.42 217.67,-642.75 255.41,-637.59"/>
<polygon fill="none" stroke="#63b8ff" points="255.68,-637.55 261.11,-632.81 267.58,-635.99 262.15,-640.74 255.68,-637.55"/>
</a>
</g>
<text text-anchor="middle" x="190.5" y="-664" font-family="Helvetica,sans-Serif" font-size="10.00" fill="grey"> +schemas</text>
</g>
<!-- Node10&#45;&gt;Node8 -->
<g id="edge11_Node000008_Node000010" class="edge">
<title>Node10&#45;&gt;Node8</title>
<g id="a_edge11_Node000008_Node000010"><a xlink:title=" ">
<path fill="none" stroke="#63b8ff" d="M310.01,-689.61C302.51,-681.16 297.36,-670.97 302,-661 303.59,-657.59 305.73,-654.42 308.21,-651.49"/>
<polygon fill="none" stroke="#63b8ff" points="308.31,-651.39 309.83,-644.35 316.92,-643.04 315.4,-650.09 308.31,-651.39"/>
</a>
</g>
<text text-anchor="middle" x="335" y="-664" font-family="Helvetica,sans-Serif" font-size="10.00" fill="grey"> +unresolved</text>
</g>
<!-- Node11 -->
<g id="Node000011" class="node">
<title>Node11</title>
<g id="a_Node000011"><a xlink:title=" ">
<polygon fill="white" stroke="transparent" points="406,-808 274,-808 274,-778 406,-778 406,-808"/>
<text text-anchor="start" x="278.5" y="-796" font-family="Helvetica,sans-Serif" font-size="10.00">std::shared_ptr&lt; schema</text>
<text text-anchor="start" x="324.5" y="-785" font-family="Helvetica,sans-Serif" font-size="10.00">_ref &gt;</text>
<polygon fill="none" stroke="#666666" points="274,-778 274,-808 406,-808 406,-778 274,-778"/>
</a>
</g>
</g>
<!-- Node11&#45;&gt;Node10 -->
<g id="edge13_Node000010_Node000011" class="edge">
<title>Node11&#45;&gt;Node10</title>
<g id="a_edge13_Node000010_Node000011"><a xlink:title=" ">
<path fill="none" stroke="#63b8ff" d="M339.13,-777.98C338.53,-768.35 337.71,-755.17 336.96,-743.09"/>
<polygon fill="none" stroke="#63b8ff" points="336.96,-743.07 332.6,-737.33 336.22,-731.09 340.58,-736.83 336.96,-743.07"/>
</a>
</g>
<text text-anchor="middle" x="367" y="-752" font-family="Helvetica,sans-Serif" font-size="10.00" fill="grey"> +elements</text>
</g>
<!-- Node12 -->
<g id="Node000012" class="node">
<title>Node12</title>
<g id="a_Node000012"><a xlink:title=" ">
<polygon fill="white" stroke="transparent" points="489,-720 459,-720 459,-701 489,-701 489,-720"/>
<text text-anchor="start" x="463.5" y="-707.5" font-family="Helvetica,sans-Serif" font-size="10.00">json</text>
<polygon fill="none" stroke="#666666" points="459,-701 459,-720 489,-720 489,-701 459,-701"/>
</a>
</g>
</g>
<!-- Node12&#45;&gt;Node2 -->
<g id="edge15_Node000002_Node000012" class="edge">
<title>Node12&#45;&gt;Node2</title>
<g id="a_edge15_Node000002_Node000012"><a xlink:title=" ">
<path fill="none" stroke="#63b8ff" d="M481.52,-700.76C492.85,-686.66 513,-657.57 513,-629 513,-629 513,-629 513,-423.5 513,-401.08 500.76,-379.23 488.15,-362.67"/>
<polygon fill="none" stroke="#63b8ff" points="487.93,-362.4 481.04,-360.27 480.36,-353.09 487.25,-355.22 487.93,-362.4"/>
</a>
</g>
<text text-anchor="middle" x="555" y="-543" font-family="Helvetica,sans-Serif" font-size="10.00" fill="grey"> #default_value_</text>
</g>
<!-- Node12&#45;&gt;Node8 -->
<g id="edge14_Node000008_Node000012" class="edge">
<title>Node12&#45;&gt;Node8</title>
<g id="a_edge14_Node000008_Node000012"><a xlink:title=" ">
<path fill="none" stroke="#63b8ff" d="M458.98,-704.16C441.85,-697.75 413.34,-686.08 391,-672 381.56,-666.05 372.01,-658.49 363.76,-651.38"/>
<polygon fill="none" stroke="#63b8ff" points="363.72,-651.34 356.58,-650.33 354.76,-643.35 361.9,-644.36 363.72,-651.34"/>
</a>
</g>
<text text-anchor="middle" x="445" y="-664" font-family="Helvetica,sans-Serif" font-size="10.00" fill="grey"> +unknown_keywords</text>
</g>
<!-- Node13 -->
<g id="Node000013" class="node">
<title>Node13</title>
<g id="a_Node000013"><a xlink:title=" ">
<polygon fill="white" stroke="transparent" points="406,-217 236,-217 236,-176 406,-176 406,-217"/>
<text text-anchor="start" x="240" y="-204.5" font-family="Helvetica,sans-Serif" font-size="10.00">std::shared_ptr&lt; anonymous</text>
<text text-anchor="start" x="240" y="-193.5" font-family="Helvetica,sans-Serif" font-size="10.00">_namespace{json&#45;validator.cpp}</text>
<text text-anchor="start" x="293" y="-182.5" font-family="Helvetica,sans-Serif" font-size="10.00">::schema &gt;</text>
<polygon fill="none" stroke="#666666" points="236,-176 236,-217 406,-217 406,-176 236,-176"/>
</a>
</g>
</g>
<!-- Node13&#45;&gt;Node1 -->
<g id="edge17_Node000001_Node000013" class="edge">
<title>Node13&#45;&gt;Node1</title>
<g id="a_edge17_Node000001_Node000013"><a xlink:title=" ">
<path fill="none" stroke="#63b8ff" d="M323.84,-175.7C327.54,-153.52 335.22,-116.9 349,-88 355.24,-74.92 364.19,-61.8 372.73,-50.72"/>
<polygon fill="none" stroke="#63b8ff" points="372.88,-50.53 373.51,-43.35 380.38,-41.17 379.75,-48.35 372.88,-50.53"/>
</a>
</g>
<text text-anchor="middle" x="393.5" y="-117" font-family="Helvetica,sans-Serif" font-size="10.00" fill="grey"> &#45;additionalItems_</text>
<text text-anchor="middle" x="393.5" y="-106" font-family="Helvetica,sans-Serif" font-size="10.00" fill="grey">&#45;contains_</text>
<text text-anchor="middle" x="393.5" y="-95" font-family="Helvetica,sans-Serif" font-size="10.00" fill="grey">&#45;items_schema_</text>
</g>
<!-- Node16 -->
<g id="Node000016" class="node">
<title>Node16</title>
<g id="a_Node000016"><a xlink:title=" ">
<polygon fill="white" stroke="transparent" points="299,-129 123,-129 123,-88 299,-88 299,-129"/>
<text text-anchor="start" x="127.5" y="-116.5" font-family="Helvetica,sans-Serif" font-size="10.00">std::vector&lt; std::shared</text>
<text text-anchor="start" x="127.5" y="-105.5" font-family="Helvetica,sans-Serif" font-size="10.00">_ptr&lt; anonymous_namespace</text>
<text text-anchor="start" x="127.5" y="-94.5" font-family="Helvetica,sans-Serif" font-size="10.00">{json&#45;validator.cpp}::schema &gt; &gt;</text>
<polygon fill="none" stroke="#666666" points="123,-88 123,-129 299,-129 299,-88 123,-88"/>
</a>
</g>
</g>
<!-- Node13&#45;&gt;Node16 -->
<g id="edge22_Node000016_Node000013" class="edge">
<title>Node13&#45;&gt;Node16</title>
<g id="a_edge22_Node000016_Node000013"><a xlink:title=" ">
<path fill="none" stroke="#63b8ff" d="M288.39,-175.85C279.92,-170.36 270.94,-164.19 263,-158 255.06,-151.81 246.9,-144.64 239.47,-137.74"/>
<polygon fill="none" stroke="#63b8ff" points="239.22,-137.51 232.11,-136.28 230.51,-129.25 237.62,-130.48 239.22,-137.51"/>
</a>
</g>
<text text-anchor="middle" x="292" y="-150" font-family="Helvetica,sans-Serif" font-size="10.00" fill="grey"> +elements</text>
</g>
<!-- Node14 -->
<g id="Node000014" class="node">
<title>Node14</title>
<g id="a_Node000014"><a xlink:href="classnlohmann_1_1json__schema_1_1json__validator.html" target="_top" xlink:title=" ">
<polygon fill="white" stroke="transparent" points="385,-294 257,-294 257,-264 385,-264 385,-294"/>
<text text-anchor="start" x="261.5" y="-282" font-family="Helvetica,sans-Serif" font-size="10.00">nlohmann::json_schema</text>
<text text-anchor="start" x="283" y="-271" font-family="Helvetica,sans-Serif" font-size="10.00">::json_validator</text>
<polygon fill="none" stroke="#666666" points="257,-264 257,-294 385,-294 385,-264 257,-264"/>
</a>
</g>
</g>
<!-- Node14&#45;&gt;Node13 -->
<g id="edge18_Node000013_Node000014" class="edge">
<title>Node14&#45;&gt;Node13</title>
<g id="a_edge18_Node000013_Node000014"><a xlink:title=" ">
<path fill="none" stroke="#63b8ff" d="M321,-263.98C321,-254.35 321,-241.17 321,-229.09"/>
<polygon fill="none" stroke="#63b8ff" points="321,-229.09 317,-223.09 321,-217.09 325,-223.09 321,-229.09"/>
</a>
</g>
<text text-anchor="middle" x="333.5" y="-238" font-family="Helvetica,sans-Serif" font-size="10.00" fill="grey"> +ptr</text>
</g>
<!-- Node15&#45;&gt;Node14 -->
<g id="edge19_Node000014_Node000015" class="edge">
<title>Node15&#45;&gt;Node14</title>
<g id="a_edge19_Node000014_Node000015"><a xlink:title=" ">
<path fill="none" stroke="#63b8ff" d="M321,-370.84C321,-354.4 321,-326.93 321,-306.5"/>
<polygon fill="none" stroke="#63b8ff" points="321,-306.27 317,-300.27 321,-294.27 325,-300.27 321,-306.27"/>
</a>
</g>
<text text-anchor="middle" x="337" y="-330" font-family="Helvetica,sans-Serif" font-size="10.00" fill="grey"> &#45;root_</text>
</g>
<!-- Node16&#45;&gt;Node1 -->
<g id="edge21_Node000001_Node000016" class="edge">
<title>Node16&#45;&gt;Node1</title>
<g id="a_edge21_Node000001_Node000016"><a xlink:title=" ">
<path fill="none" stroke="#63b8ff" d="M235.48,-87.86C248.44,-78.18 264.95,-66.91 281,-59 293.93,-52.63 308.18,-47 322.17,-42.18"/>
<polygon fill="none" stroke="#63b8ff" points="322.42,-42.1 326.86,-36.41 333.81,-38.32 329.38,-44 322.42,-42.1"/>
</a>
</g>
<text text-anchor="middle" x="301" y="-62" font-family="Helvetica,sans-Serif" font-size="10.00" fill="grey"> &#45;items_</text>
</g>
</g>
</svg>

<g id="navigator" transform="translate(0 0)" fill="#404254">
  <rect fill="#f2f5e9" fill-opacity="0.5" stroke="#606060" stroke-width=".5" x="0" y="0" width="60" height="60"/>
  <use id="zoomplus" xlink:href="#zoomPlus" x="17" y="9" onmousedown="handleZoom(evt,'in')"/>
  <use id="zoomminus" xlink:href="#zoomMin" x="42" y="9" onmousedown="handleZoom(evt,'out')"/>
  <use id="reset" xlink:href="#resetDef" x="30" y="36" onmousedown="handleReset()"/>
   <use id="arrowup" xlink:href="#arrowUp" x="0" y="0" onmousedown="handlePan(0,-1)"/>
  <use id="arrowright" xlink:href="#arrowRight" x="0" y="0" onmousedown="handlePan(1,0)"/>
  <use id="arrowdown" xlink:href="#arrowDown" x="0" y="0" onmousedown="handlePan(0,1)"/>
  <use id="arrowleft" xlink:href="#arrowLeft" x="0" y="0" onmousedown="handlePan(-1,0)"/>
</g>
<svg viewBox="0 0 15 15" width="100%" height="30px" preserveAspectRatio="xMaxYMin meet">
 <g id="arrow_out" transform="scale(0.3 0.3)">
  <a xlink:href="classanonymous__namespace_02json-validator_8cpp_03_1_1array__coll__graph_org.svg" target="_base">
   <rect id="button" ry="5" rx="5" y="6" x="6" height="38" width="38"
        fill="#f2f5e9" fill-opacity="0.5" stroke="#606060" stroke-width="1.0"/>
   <path id="arrow"
     d="M 11.500037,31.436501 C 11.940474,20.09759 22.043105,11.32322 32.158766,21.979434 L 37.068811,17.246167 C 37.068811,17.246167 37.088388,32 37.088388,32 L 22.160133,31.978069 C 22.160133,31.978069 26.997745,27.140456 26.997745,27.140456 C 18.528582,18.264221 13.291696,25.230495 11.500037,31.436501 z"
     style="fill:#404040;"/>
  </a>
 </g>
</svg>

<style type='text/css'>
<![CDATA[
[data-mouse-over-selected='false'] { opacity: 0.7; }
[data-mouse-over-selected='true']  { opacity: 1.0; }
]]>
</style>
<script type="application/ecmascript"><![CDATA[
document.addEventListener('DOMContentLoaded', (event) => {
  highlightEdges();
  highlightAdjacentNodes();
});
]]></script>
</svg>
