<?xml version="1.0" encoding="UTF-8" standalone="no"?>
<!DOCTYPE svg PUBLIC "-//W3C//DTD SVG 1.1//EN"
 "http://www.w3.org/Graphics/SVG/1.1/DTD/svg11.dtd">
<!-- Generated by graphviz version 2.42.4 (0)
 -->
<!-- Title: anonymous_namespace{json&#45;validator::cpp}::type_schema::type_schema Pages: 1 -->
<!--zoomable 464 -->

<svg id="main" version="1.1" xmlns="http://www.w3.org/2000/svg" xmlns:xlink="http://www.w3.org/1999/xlink" xml:space="preserve" onload="init(evt)">
<style type="text/css"><![CDATA[
.node, .edge {opacity: 0.7;}
.node.selected, .edge.selected {opacity: 1;}
.edge:hover path { stroke: red; }
.edge:hover polygon { stroke: red; fill: red; }
]]></style>

<defs>
  <circle id="rim" cx="0" cy="0" r="7"/>
  <circle id="rim2" cx="0" cy="0" r="3.5"/>
  <g id="zoomPlus">
    <use xlink:href="#rim" fill="#404040"><set attributeName="fill" to="#808080" begin="zoomplus.mouseover" end="zoomplus.mouseout"/></use>
    <path d="M-4,0h8M0,-4v8" fill="none" stroke="white" stroke-width="1.5" pointer-events="none"/>
  </g>
  <g id="zoomMin">
    <use xlink:href="#rim" fill="#404040"><set attributeName="fill" to="#808080" begin="zoomminus.mouseover" end="zoomminus.mouseout"/></use>
    <path d="M-4,0h8" fill="none" stroke="white" stroke-width="1.5" pointer-events="none"/>
  </g>
  <g id="arrowUp" transform="translate(30 24)">
    <use xlink:href="#rim"/>
    <path pointer-events="none" fill="none" stroke="white" stroke-width="1.5" d="M0,-3.0v7 M-2.5,-0.5L0,-3.0L2.5,-0.5"/>
  </g>
  <g id="arrowRight" transform="rotate(90) translate(36 -43)">
    <use xlink:href="#rim"/>
    <path pointer-events="none" fill="none" stroke="white" stroke-width="1.5" d="M0,-3.0v7 M-2.5,-0.5L0,-3.0L2.5,-0.5"/>
  </g>
  <g id="arrowDown" transform="rotate(180) translate(-30 -48)">
    <use xlink:href="#rim"/>
    <path pointer-events="none" fill="none" stroke="white" stroke-width="1.5" d="M0,-3.0v7 M-2.5,-0.5L0,-3.0L2.5,-0.5"/>
  </g>
  <g id="arrowLeft" transform="rotate(270) translate(-36 17)">
    <use xlink:href="#rim"/>
    <path pointer-events="none" fill="none" stroke="white" stroke-width="1.5" d="M0,-3.0v7 M-2.5,-0.5L0,-3.0L2.5,-0.5"/>
  </g>
  <g id="resetDef">
    <use xlink:href="#rim2" fill="#404040"><set attributeName="fill" to="#808080" begin="reset.mouseover" end="reset.mouseout"/></use>
  </g>
</defs>
<script type="application/ecmascript">
var viewWidth = 868;
var viewHeight = 464;
var sectionId = 'dynsection-2';
</script>
<script type="application/ecmascript" xlink:href="svg.min.js"/>
<svg id="graph" class="graph">
<g id="viewport">
<title>anonymous_namespace{json&#45;validator::cpp}::type_schema::type_schema</title>
<!-- Node1 -->
<g id="Node000001" class="node">
<title>Node1</title>
<g id="a_Node000001"><a xlink:title=" ">
<polygon fill="#999999" stroke="#666666" points="159,-253.5 0,-253.5 0,-212.5 159,-212.5 159,-253.5"/>
<text text-anchor="start" x="8" y="-241.5" font-family="Helvetica,sans-Serif" font-size="10.00">anonymous_namespace</text>
<text text-anchor="start" x="8" y="-230.5" font-family="Helvetica,sans-Serif" font-size="10.00">{json&#45;validator::cpp}</text>
<text text-anchor="middle" x="79.5" y="-219.5" font-family="Helvetica,sans-Serif" font-size="10.00">::type_schema::type_schema</text>
</a>
</g>
</g>
<!-- Node2 -->
<g id="Node000002" class="node">
<title>Node2</title>
<g id="a_Node000002"><a xlink:href="classanonymous__namespace_02json-validator_8cpp_03_1_1type__schema.html#adbecbb23a3b9857dff43bd46d6994584" target="_top" xlink:title=" ">
<polygon fill="white" stroke="#666666" points="339.5,-360.5 204.5,-360.5 204.5,-319.5 339.5,-319.5 339.5,-360.5"/>
<text text-anchor="start" x="212.5" y="-348.5" font-family="Helvetica,sans-Serif" font-size="10.00">anonymous_namespace</text>
<text text-anchor="start" x="212.5" y="-337.5" font-family="Helvetica,sans-Serif" font-size="10.00">{json&#45;validator::cpp}</text>
<text text-anchor="middle" x="272" y="-326.5" font-family="Helvetica,sans-Serif" font-size="10.00">::type_schema::make</text>
</a>
</g>
</g>
<!-- Node1&#45;&gt;Node2 -->
<g id="edge1_Node000001_Node000002" class="edge">
<title>Node1&#45;&gt;Node2</title>
<g id="a_edge1_Node000001_Node000002"><a xlink:title=" ">
<path fill="none" stroke="#63b8ff" d="M107.14,-253.79C129.66,-270.71 163.23,-294.41 195,-311 197.73,-312.42 200.54,-313.82 203.41,-315.17"/>
<polygon fill="#63b8ff" stroke="#63b8ff" points="202.15,-318.44 212.7,-319.37 205.03,-312.06 202.15,-318.44"/>
</a>
</g>
</g>
<!-- Node3 -->
<g id="Node000003" class="node">
<title>Node3</title>
<g id="a_Node000003"><a xlink:href="classanonymous__namespace_02json-validator_8cpp_03_1_1schema.html#aafee860997369c77204d5b1a7d095c3f" target="_top" xlink:title=" ">
<polygon fill="white" stroke="#666666" points="339.5,-283.5 204.5,-283.5 204.5,-242.5 339.5,-242.5 339.5,-283.5"/>
<text text-anchor="start" x="212.5" y="-271.5" font-family="Helvetica,sans-Serif" font-size="10.00">anonymous_namespace</text>
<text text-anchor="start" x="212.5" y="-260.5" font-family="Helvetica,sans-Serif" font-size="10.00">{json&#45;validator::cpp}</text>
<text text-anchor="middle" x="272" y="-249.5" font-family="Helvetica,sans-Serif" font-size="10.00">::schema::make</text>
</a>
</g>
</g>
<!-- Node1&#45;&gt;Node3 -->
<g id="edge2_Node000001_Node000003" class="edge">
<title>Node1&#45;&gt;Node3</title>
<g id="a_edge2_Node000001_Node000003"><a xlink:title=" ">
<path fill="none" stroke="#63b8ff" d="M159.08,-245.38C170.74,-247.21 182.73,-249.1 194.35,-250.93"/>
<polygon fill="#63b8ff" stroke="#63b8ff" points="194.01,-254.42 204.43,-252.52 195.1,-247.5 194.01,-254.42"/>
</a>
</g>
</g>
<!-- Node17 -->
<g id="Node000017" class="node">
<title>Node17</title>
<g id="a_Node000017"><a xlink:href="classanonymous__namespace_02json-validator_8cpp_03_1_1schema.html#ac4014ccd3e19d2c94ff6cb782b9b6ece" target="_top" xlink:title=" ">
<polygon fill="white" stroke="#666666" points="339.5,-224.5 204.5,-224.5 204.5,-183.5 339.5,-183.5 339.5,-224.5"/>
<text text-anchor="start" x="212.5" y="-212.5" font-family="Helvetica,sans-Serif" font-size="10.00">anonymous_namespace</text>
<text text-anchor="start" x="212.5" y="-201.5" font-family="Helvetica,sans-Serif" font-size="10.00">{json&#45;validator::cpp}</text>
<text text-anchor="middle" x="272" y="-190.5" font-family="Helvetica,sans-Serif" font-size="10.00">::schema::schema</text>
</a>
</g>
</g>
<!-- Node1&#45;&gt;Node17 -->
<g id="edge30_Node000001_Node000017" class="edge">
<title>Node1&#45;&gt;Node17</title>
<g id="a_edge30_Node000001_Node000017"><a xlink:title=" ">
<path fill="none" stroke="#63b8ff" d="M159.08,-221.04C170.74,-219.26 182.73,-217.44 194.35,-215.67"/>
<polygon fill="#63b8ff" stroke="#63b8ff" points="195.07,-219.1 204.43,-214.13 194.02,-212.18 195.07,-219.1"/>
</a>
</g>
</g>
<!-- Node18 -->
<g id="Node000018" class="node">
<title>Node18</title>
<g id="a_Node000018"><a xlink:href="classanonymous__namespace_02json-validator_8cpp_03_1_1schema.html#a4beb8a228836d4dc47e4fb888be0f31b" target="_top" xlink:title=" ">
<polygon fill="white" stroke="#666666" points="349,-165.5 195,-165.5 195,-124.5 349,-124.5 349,-165.5"/>
<text text-anchor="start" x="203" y="-153.5" font-family="Helvetica,sans-Serif" font-size="10.00">anonymous_namespace</text>
<text text-anchor="start" x="203" y="-142.5" font-family="Helvetica,sans-Serif" font-size="10.00">{json&#45;validator::cpp}</text>
<text text-anchor="middle" x="272" y="-131.5" font-family="Helvetica,sans-Serif" font-size="10.00">::schema::set_default_value</text>
</a>
</g>
</g>
<!-- Node1&#45;&gt;Node18 -->
<g id="edge31_Node000001_Node000018" class="edge">
<title>Node1&#45;&gt;Node18</title>
<g id="a_edge31_Node000001_Node000018"><a xlink:title=" ">
<path fill="none" stroke="#63b8ff" d="M118.76,-212.5C140.81,-200.97 169.19,-186.6 195,-175 199.11,-173.15 203.38,-171.3 207.69,-169.47"/>
<polygon fill="#63b8ff" stroke="#63b8ff" points="209.29,-172.6 217.18,-165.53 206.6,-166.14 209.29,-172.6"/>
</a>
</g>
</g>
<!-- Node3&#45;&gt;Node3 -->
<g id="edge27_Node000003_Node000003" class="edge">
<title>Node3&#45;&gt;Node3</title>
<g id="a_edge27_Node000003_Node000003"><a xlink:title=" ">
<path fill="none" stroke="#63b8ff" d="M236.71,-283.6C232.86,-293.15 244.62,-301.5 272,-301.5 289.11,-301.5 300.12,-298.24 305.03,-293.46"/>
<polygon fill="#63b8ff" stroke="#63b8ff" points="308.47,-294.13 307.29,-283.6 301.65,-292.56 308.47,-294.13"/>
</a>
</g>
</g>
<!-- Node4 -->
<g id="Node000004" class="node">
<title>Node4</title>
<g id="a_Node000004"><a xlink:href="classnlohmann_1_1json__uri.html#acef9db8f1ac5317e1f124453d9587938" target="_top" xlink:title=" ">
<polygon fill="white" stroke="#666666" points="701.5,-456 591.5,-456 591.5,-426 701.5,-426 701.5,-456"/>
<text text-anchor="start" x="599.5" y="-444" font-family="Helvetica,sans-Serif" font-size="10.00">nlohmann::json_uri</text>
<text text-anchor="middle" x="646.5" y="-433" font-family="Helvetica,sans-Serif" font-size="10.00">::append</text>
</a>
</g>
</g>
<!-- Node3&#45;&gt;Node4 -->
<g id="edge3_Node000003_Node000004" class="edge">
<title>Node3&#45;&gt;Node4</title>
<g id="a_edge3_Node000003_Node000004"><a xlink:title=" ">
<path fill="none" stroke="#63b8ff" d="M314.85,-283.66C326.95,-291.06 339.45,-300.28 349,-311 373.59,-338.61 355.92,-363.16 385,-386 441.07,-430.03 524.14,-440.97 581.32,-442.71"/>
<polygon fill="#63b8ff" stroke="#63b8ff" points="581.25,-446.21 591.33,-442.93 581.41,-439.21 581.25,-446.21"/>
</a>
</g>
</g>
<!-- Node5 -->
<g id="Node000005" class="node">
<title>Node5</title>
<g id="a_Node000005"><a xlink:href="classnlohmann_1_1json__uri.html#ab601a9e32d487e9484f12c57ec1befc1" target="_top" xlink:title=" ">
<polygon fill="white" stroke="#666666" points="519,-138 409,-138 409,-108 519,-108 519,-138"/>
<text text-anchor="start" x="417" y="-126" font-family="Helvetica,sans-Serif" font-size="10.00">nlohmann::json_uri</text>
<text text-anchor="middle" x="464" y="-115" font-family="Helvetica,sans-Serif" font-size="10.00">::derive</text>
</a>
</g>
</g>
<!-- Node3&#45;&gt;Node5 -->
<g id="edge4_Node000003_Node000005" class="edge">
<title>Node3&#45;&gt;Node5</title>
<g id="a_edge4_Node000003_Node000005"><a xlink:title=" ">
<path fill="none" stroke="#63b8ff" d="M338.22,-242.4C342.08,-239.91 345.73,-237.12 349,-234 377.83,-206.56 356.06,-179.32 385,-152 389.37,-147.87 394.39,-144.32 399.72,-141.26"/>
<polygon fill="#63b8ff" stroke="#63b8ff" points="401.61,-144.23 408.94,-136.58 398.44,-137.99 401.61,-144.23"/>
</a>
</g>
</g>
<!-- Node7 -->
<g id="Node000007" class="node">
<title>Node7</title>
<g id="a_Node000007"><a xlink:href="classnlohmann_1_1json__schema_1_1root__schema.html#a7e890c03f941280b76fbdb4d5bb73065" target="_top" xlink:title=" ">
<polygon fill="white" stroke="#666666" points="531.5,-283.5 396.5,-283.5 396.5,-242.5 531.5,-242.5 531.5,-283.5"/>
<text text-anchor="start" x="404.5" y="-271.5" font-family="Helvetica,sans-Serif" font-size="10.00">nlohmann::json_schema</text>
<text text-anchor="start" x="404.5" y="-260.5" font-family="Helvetica,sans-Serif" font-size="10.00">::root_schema::get_or</text>
<text text-anchor="middle" x="464" y="-249.5" font-family="Helvetica,sans-Serif" font-size="10.00">_create_ref</text>
</a>
</g>
</g>
<!-- Node3&#45;&gt;Node7 -->
<g id="edge6_Node000003_Node000007" class="edge">
<title>Node3&#45;&gt;Node7</title>
<g id="a_edge6_Node000003_Node000007"><a xlink:title=" ">
<path fill="none" stroke="#63b8ff" d="M339.72,-256.52C354.81,-256.22 370.94,-256.17 386.4,-256.36"/>
<polygon fill="#63b8ff" stroke="#63b8ff" points="386.39,-259.86 396.44,-256.53 386.5,-252.86 386.39,-259.86"/>
</a>
</g>
</g>
<!-- Node12 -->
<g id="Node000012" class="node">
<title>Node12</title>
<g id="a_Node000012"><a xlink:href="classnlohmann_1_1json__uri.html#a416eb06b53676b215761f43200da309f" target="_top" xlink:title=" ">
<polygon fill="white" stroke="#666666" points="701.5,-116 591.5,-116 591.5,-86 701.5,-86 701.5,-116"/>
<text text-anchor="start" x="599.5" y="-104" font-family="Helvetica,sans-Serif" font-size="10.00">nlohmann::json_uri</text>
<text text-anchor="middle" x="646.5" y="-93" font-family="Helvetica,sans-Serif" font-size="10.00">::to_string</text>
</a>
</g>
</g>
<!-- Node3&#45;&gt;Node12 -->
<g id="edge29_Node000003_Node000012" class="edge">
<title>Node3&#45;&gt;Node12</title>
<g id="a_edge29_Node000003_Node000012"><a xlink:title=" ">
<path fill="none" stroke="#63b8ff" d="M335.95,-242.38C340.55,-239.87 344.96,-237.08 349,-234 370.5,-217.63 362.49,-199.96 385,-185 445.15,-145.02 475.98,-173.93 543,-147 560.19,-140.09 562.27,-133.95 579,-126 583.37,-123.92 587.95,-121.9 592.59,-119.96"/>
<polygon fill="#63b8ff" stroke="#63b8ff" points="594.17,-123.09 602.13,-116.1 591.55,-116.6 594.17,-123.09"/>
</a>
</g>
</g>
<!-- Node13 -->
<g id="Node000013" class="node">
<title>Node13</title>
<g id="a_Node000013"><a xlink:href="classnlohmann_1_1json__schema_1_1root__schema.html#a685904131f0693e56f14a9e9db5f044e" target="_top" xlink:title=" ">
<polygon fill="white" stroke="#666666" points="531.5,-224 396.5,-224 396.5,-194 531.5,-194 531.5,-224"/>
<text text-anchor="start" x="404.5" y="-212" font-family="Helvetica,sans-Serif" font-size="10.00">nlohmann::json_schema</text>
<text text-anchor="middle" x="464" y="-201" font-family="Helvetica,sans-Serif" font-size="10.00">::root_schema::insert</text>
</a>
</g>
</g>
<!-- Node3&#45;&gt;Node13 -->
<g id="edge14_Node000003_Node000013" class="edge">
<title>Node3&#45;&gt;Node13</title>
<g id="a_edge14_Node000003_Node000013"><a xlink:title=" ">
<path fill="none" stroke="#63b8ff" d="M339.72,-244.04C359.48,-238.42 381.03,-232.3 400.51,-226.76"/>
<polygon fill="#63b8ff" stroke="#63b8ff" points="401.53,-230.11 410.19,-224.01 399.61,-223.38 401.53,-230.11"/>
</a>
</g>
</g>
<!-- Node15 -->
<g id="Node000015" class="node">
<title>Node15</title>
<g id="a_Node000015"><a xlink:href="classnlohmann_1_1json__schema_1_1root__schema.html#a4c543fe7b89e76b3fdd17a6883696238" target="_top" xlink:title=" ">
<polygon fill="white" stroke="#666666" points="531.5,-358.5 396.5,-358.5 396.5,-317.5 531.5,-317.5 531.5,-358.5"/>
<text text-anchor="start" x="404.5" y="-346.5" font-family="Helvetica,sans-Serif" font-size="10.00">nlohmann::json_schema</text>
<text text-anchor="start" x="404.5" y="-335.5" font-family="Helvetica,sans-Serif" font-size="10.00">::root_schema::insert</text>
<text text-anchor="middle" x="464" y="-324.5" font-family="Helvetica,sans-Serif" font-size="10.00">_unknown_keyword</text>
</a>
</g>
</g>
<!-- Node3&#45;&gt;Node15 -->
<g id="edge20_Node000003_Node000015" class="edge">
<title>Node3&#45;&gt;Node15</title>
<g id="a_edge20_Node000003_Node000015"><a xlink:title=" ">
<path fill="none" stroke="#63b8ff" d="M339.72,-282.86C364.81,-292.27 392.8,-303.5 415.76,-313.43"/>
<polygon fill="#63b8ff" stroke="#63b8ff" points="414.38,-316.64 424.94,-317.45 417.19,-310.23 414.38,-316.64"/>
</a>
</g>
</g>
<!-- Node16 -->
<g id="Node000016" class="node">
<title>Node16</title>
<g id="a_Node000016"><a xlink:href="classanonymous__namespace_02json-validator_8cpp_03_1_1schema.html#a6ba2d224dd0a4372ac03f679de8316bd" target="_top" xlink:title=" ">
<polygon fill="white" stroke="#666666" points="543,-89.5 385,-89.5 385,-48.5 543,-48.5 543,-89.5"/>
<text text-anchor="start" x="393" y="-77.5" font-family="Helvetica,sans-Serif" font-size="10.00">anonymous_namespace</text>
<text text-anchor="start" x="393" y="-66.5" font-family="Helvetica,sans-Serif" font-size="10.00">{json&#45;validator::cpp}</text>
<text text-anchor="middle" x="464" y="-55.5" font-family="Helvetica,sans-Serif" font-size="10.00">::schema::make_for_default_</text>
</a>
</g>
</g>
<!-- Node3&#45;&gt;Node16 -->
<g id="edge28_Node000003_Node000016" class="edge">
<title>Node3&#45;&gt;Node16</title>
<g id="a_edge28_Node000003_Node000016"><a xlink:title=" ">
<path fill="none" stroke="#63b8ff" d="M339.48,-242.46C342.95,-239.96 346.16,-237.15 349,-234 390.57,-187.87 343.49,-145.19 385,-99 385.9,-98 386.84,-97.03 387.81,-96.09"/>
<polygon fill="#63b8ff" stroke="#63b8ff" points="390.31,-98.57 395.84,-89.53 385.88,-93.15 390.31,-98.57"/>
</a>
</g>
</g>
<!-- Node6 -->
<g id="Node000006" class="node">
<title>Node6</title>
<g id="a_Node000006"><a xlink:href="classnlohmann_1_1json__uri.html#a6a73807e46532b22e02ae6602cdedcdc" target="_top" xlink:title=" ">
<polygon fill="white" stroke="#666666" points="701.5,-30 591.5,-30 591.5,0 701.5,0 701.5,-30"/>
<text text-anchor="start" x="599.5" y="-18" font-family="Helvetica,sans-Serif" font-size="10.00">nlohmann::json_uri</text>
<text text-anchor="middle" x="646.5" y="-7" font-family="Helvetica,sans-Serif" font-size="10.00">::update</text>
</a>
</g>
</g>
<!-- Node5&#45;&gt;Node6 -->
<g id="edge5_Node000005_Node000006" class="edge">
<title>Node5&#45;&gt;Node6</title>
<g id="a_edge5_Node000005_Node000006"><a xlink:title=" ">
<path fill="none" stroke="#63b8ff" d="M519.4,-111.64C527.78,-108.41 535.98,-104.28 543,-99 566.35,-81.44 556.68,-62.85 579,-44 582.99,-40.63 587.43,-37.6 592.07,-34.87"/>
<polygon fill="#63b8ff" stroke="#63b8ff" points="594,-37.81 601.17,-30.01 590.7,-31.63 594,-37.81"/>
</a>
</g>
</g>
<!-- Node7&#45;&gt;Node3 -->
<g id="edge10_Node000007_Node000003" class="edge">
<title>Node7&#45;&gt;Node3</title>
<g id="a_edge10_Node000007_Node000003"><a xlink:title=" ">
<path fill="none" stroke="#63b8ff" d="M396.44,-269.47C381.36,-269.78 365.23,-269.83 349.77,-269.64"/>
<polygon fill="#63b8ff" stroke="#63b8ff" points="349.77,-266.14 339.72,-269.48 349.66,-273.14 349.77,-266.14"/>
</a>
</g>
</g>
<!-- Node8 -->
<g id="Node000008" class="node">
<title>Node8</title>
<g id="a_Node000008"><a xlink:href="classnlohmann_1_1json__uri.html#a21ba5d6a76804eabd867a2d03370c945" target="_top" xlink:title=" ">
<polygon fill="white" stroke="#666666" points="701.5,-224 591.5,-224 591.5,-194 701.5,-194 701.5,-224"/>
<text text-anchor="start" x="599.5" y="-212" font-family="Helvetica,sans-Serif" font-size="10.00">nlohmann::json_uri</text>
<text text-anchor="middle" x="646.5" y="-201" font-family="Helvetica,sans-Serif" font-size="10.00">::fragment</text>
</a>
</g>
</g>
<!-- Node7&#45;&gt;Node8 -->
<g id="edge7_Node000007_Node000008" class="edge">
<title>Node7&#45;&gt;Node8</title>
<g id="a_edge7_Node000007_Node000008"><a xlink:title=" ">
<path fill="none" stroke="#63b8ff" d="M531.7,-243.05C549.24,-237.8 568.07,-232.17 585.25,-227.02"/>
<polygon fill="#63b8ff" stroke="#63b8ff" points="586.58,-230.28 595.16,-224.06 584.57,-223.57 586.58,-230.28"/>
</a>
</g>
</g>
<!-- Node9 -->
<g id="Node000009" class="node">
<title>Node9</title>
<g id="a_Node000009"><a xlink:href="classnlohmann_1_1json__schema_1_1root__schema.html#a4e3471b8e7c245a72c469b7695d2d327" target="_top" xlink:title=" ">
<polygon fill="white" stroke="#666666" points="714,-283.5 579,-283.5 579,-242.5 714,-242.5 714,-283.5"/>
<text text-anchor="start" x="587" y="-271.5" font-family="Helvetica,sans-Serif" font-size="10.00">nlohmann::json_schema</text>
<text text-anchor="start" x="587" y="-260.5" font-family="Helvetica,sans-Serif" font-size="10.00">::root_schema::get_or</text>
<text text-anchor="middle" x="646.5" y="-249.5" font-family="Helvetica,sans-Serif" font-size="10.00">_create_file</text>
</a>
</g>
</g>
<!-- Node7&#45;&gt;Node9 -->
<g id="edge8_Node000007_Node000009" class="edge">
<title>Node7&#45;&gt;Node9</title>
<g id="a_edge8_Node000007_Node000009"><a xlink:title=" ">
<path fill="none" stroke="#63b8ff" d="M531.7,-263C543.7,-263 556.3,-263 568.57,-263"/>
<polygon fill="#63b8ff" stroke="#63b8ff" points="568.77,-266.5 578.77,-263 568.77,-259.5 568.77,-266.5"/>
</a>
</g>
</g>
<!-- Node10 -->
<g id="Node000010" class="node">
<title>Node10</title>
<g id="a_Node000010"><a xlink:href="classnlohmann_1_1json__uri.html#a63674f908919cb2496e772e864be35de" target="_top" xlink:title=" ">
<polygon fill="white" stroke="#666666" points="860,-221 750,-221 750,-191 860,-191 860,-221"/>
<text text-anchor="start" x="758" y="-209" font-family="Helvetica,sans-Serif" font-size="10.00">nlohmann::json_uri</text>
<text text-anchor="middle" x="805" y="-198" font-family="Helvetica,sans-Serif" font-size="10.00">::location</text>
</a>
</g>
</g>
<!-- Node7&#45;&gt;Node10 -->
<g id="edge9_Node000007_Node000010" class="edge">
<title>Node7&#45;&gt;Node10</title>
<g id="a_edge9_Node000007_Node000010"><a xlink:title=" ">
<path fill="none" stroke="#63b8ff" d="M516.54,-283.51C568.29,-300.87 649.41,-319.11 714,-293 745.52,-280.26 772.13,-250.6 788.05,-229.46"/>
<polygon fill="#63b8ff" stroke="#63b8ff" points="790.96,-231.41 794.01,-221.27 785.3,-227.29 790.96,-231.41"/>
</a>
</g>
</g>
<!-- Node11 -->
<g id="Node000011" class="node">
<title>Node11</title>
<g id="a_Node000011"><a xlink:href="classnlohmann_1_1json__uri.html#ab01bdcb8bf65ee07703d1ccb69c9f3ee" target="_top" xlink:title=" ">
<polygon fill="white" stroke="#666666" points="701.5,-370 591.5,-370 591.5,-340 701.5,-340 701.5,-370"/>
<text text-anchor="start" x="599.5" y="-358" font-family="Helvetica,sans-Serif" font-size="10.00">nlohmann::json_uri</text>
<text text-anchor="middle" x="646.5" y="-347" font-family="Helvetica,sans-Serif" font-size="10.00">::pointer</text>
</a>
</g>
</g>
<!-- Node7&#45;&gt;Node11 -->
<g id="edge11_Node000007_Node000011" class="edge">
<title>Node7&#45;&gt;Node11</title>
<g id="a_edge11_Node000007_Node000011"><a xlink:title=" ">
<path fill="none" stroke="#63b8ff" d="M500.23,-283.59C522.53,-296.34 552.13,-312.75 579,-326 585.68,-329.29 592.82,-332.61 599.85,-335.77"/>
<polygon fill="#63b8ff" stroke="#63b8ff" points="598.76,-339.11 609.32,-339.96 601.59,-332.71 598.76,-339.11"/>
</a>
</g>
</g>
<!-- Node7&#45;&gt;Node12 -->
<g id="edge12_Node000007_Node000012" class="edge">
<title>Node7&#45;&gt;Node12</title>
<g id="a_edge12_Node000007_Node000012"><a xlink:title=" ">
<path fill="none" stroke="#63b8ff" d="M531.54,-242.48C535.7,-239.71 539.59,-236.56 543,-233 577.71,-196.77 544.15,-162.1 579,-126 580.41,-124.54 581.92,-123.16 583.5,-121.86"/>
<polygon fill="#63b8ff" stroke="#63b8ff" points="585.74,-124.57 591.97,-116.01 581.76,-118.81 585.74,-124.57"/>
</a>
</g>
</g>
<!-- Node12&#45;&gt;Node10 -->
<g id="edge13_Node000012_Node000010" class="edge">
<title>Node12&#45;&gt;Node10</title>
<g id="a_edge13_Node000012_Node000010"><a xlink:title=" ">
<path fill="none" stroke="#63b8ff" d="M694.32,-116.1C701.11,-119 707.88,-122.3 714,-126 740.23,-141.83 765.92,-165.76 783.1,-183.32"/>
<polygon fill="#63b8ff" stroke="#63b8ff" points="780.91,-186.1 790.36,-190.89 785.96,-181.25 780.91,-186.1"/>
</a>
</g>
</g>
<!-- Node13&#45;&gt;Node8 -->
<g id="edge15_Node000013_Node000008" class="edge">
<title>Node13&#45;&gt;Node8</title>
<g id="a_edge15_Node000013_Node000008"><a xlink:title=" ">
<path fill="none" stroke="#63b8ff" d="M531.7,-209C547.85,-209 565.07,-209 581.11,-209"/>
<polygon fill="#63b8ff" stroke="#63b8ff" points="581.45,-212.5 591.45,-209 581.45,-205.5 581.45,-212.5"/>
</a>
</g>
</g>
<!-- Node13&#45;&gt;Node9 -->
<g id="edge16_Node000013_Node000009" class="edge">
<title>Node13&#45;&gt;Node9</title>
<g id="a_edge16_Node000013_Node000009"><a xlink:title=" ">
<path fill="none" stroke="#63b8ff" d="M515.28,-224.04C531.99,-229.04 550.99,-234.73 569.22,-240.18"/>
<polygon fill="#63b8ff" stroke="#63b8ff" points="568.37,-243.58 578.95,-243.09 570.37,-236.87 568.37,-243.58"/>
</a>
</g>
</g>
<!-- Node13&#45;&gt;Node10 -->
<g id="edge17_Node000013_Node000010" class="edge">
<title>Node13&#45;&gt;Node10</title>
<g id="a_edge17_Node000013_Node000010"><a xlink:title=" ">
<path fill="none" stroke="#63b8ff" d="M489.07,-193.88C505.75,-182.51 527.64,-165.72 543,-147 565.19,-119.95 549.14,-95.22 579,-77 630.22,-45.75 660.8,-49.25 714,-77 755.98,-98.9 782.38,-150.32 795.05,-181.22"/>
<polygon fill="#63b8ff" stroke="#63b8ff" points="791.91,-182.8 798.82,-190.84 798.43,-180.25 791.91,-182.8"/>
</a>
</g>
</g>
<!-- Node13&#45;&gt;Node12 -->
<g id="edge19_Node000013_Node000012" class="edge">
<title>Node13&#45;&gt;Node12</title>
<g id="a_edge19_Node000013_Node000012"><a xlink:title=" ">
<path fill="none" stroke="#63b8ff" d="M519.39,-193.85C527.78,-190.12 535.98,-185.56 543,-180 565.62,-162.1 556.41,-143.94 579,-126 581.26,-124.2 583.67,-122.52 586.17,-120.96"/>
<polygon fill="#63b8ff" stroke="#63b8ff" points="587.95,-123.97 595,-116.06 584.56,-117.85 587.95,-123.97"/>
</a>
</g>
</g>
<!-- Node14 -->
<g id="Node000014" class="node">
<title>Node14</title>
<g id="a_Node000014"><a xlink:href="classanonymous__namespace_02json-validator_8cpp_03_1_1schema__ref.html#ae191a0c47357ebad5942fbab77135375" target="_top" xlink:title=" ">
<polygon fill="white" stroke="#666666" points="714,-175.5 579,-175.5 579,-134.5 714,-134.5 714,-175.5"/>
<text text-anchor="start" x="587" y="-163.5" font-family="Helvetica,sans-Serif" font-size="10.00">anonymous_namespace</text>
<text text-anchor="start" x="587" y="-152.5" font-family="Helvetica,sans-Serif" font-size="10.00">{json&#45;validator::cpp}</text>
<text text-anchor="middle" x="646.5" y="-141.5" font-family="Helvetica,sans-Serif" font-size="10.00">::schema_ref::set_target</text>
</a>
</g>
</g>
<!-- Node13&#45;&gt;Node14 -->
<g id="edge18_Node000013_Node000014" class="edge">
<title>Node13&#45;&gt;Node14</title>
<g id="a_edge18_Node000013_Node000014"><a xlink:title=" ">
<path fill="none" stroke="#63b8ff" d="M515.28,-193.96C531.99,-188.96 550.99,-183.27 569.22,-177.82"/>
<polygon fill="#63b8ff" stroke="#63b8ff" points="570.37,-181.13 578.95,-174.91 568.37,-174.42 570.37,-181.13"/>
</a>
</g>
</g>
<!-- Node15&#45;&gt;Node3 -->
<g id="edge25_Node000015_Node000003" class="edge">
<title>Node15&#45;&gt;Node3</title>
<g id="a_edge25_Node000015_Node000003"><a xlink:title=" ">
<path fill="none" stroke="#63b8ff" d="M396.23,-318.12C371.12,-308.71 343.13,-297.47 320.17,-287.54"/>
<polygon fill="#63b8ff" stroke="#63b8ff" points="321.56,-284.33 310.99,-283.52 318.75,-290.74 321.56,-284.33"/>
</a>
</g>
</g>
<!-- Node15&#45;&gt;Node4 -->
<g id="edge21_Node000015_Node000004" class="edge">
<title>Node15&#45;&gt;Node4</title>
<g id="a_edge21_Node000015_Node000004"><a xlink:title=" ">
<path fill="none" stroke="#63b8ff" d="M493.72,-358.53C516.3,-374.2 548.87,-395.79 579,-412 585.33,-415.4 592.14,-418.73 598.91,-421.85"/>
<polygon fill="#63b8ff" stroke="#63b8ff" points="597.5,-425.05 608.05,-425.95 600.36,-418.67 597.5,-425.05"/>
</a>
</g>
</g>
<!-- Node15&#45;&gt;Node9 -->
<g id="edge22_Node000015_Node000009" class="edge">
<title>Node15&#45;&gt;Node9</title>
<g id="a_edge22_Node000015_Node000009"><a xlink:title=" ">
<path fill="none" stroke="#63b8ff" d="M514.8,-317.31C536.99,-308.09 563.3,-297.15 586.48,-287.52"/>
<polygon fill="#63b8ff" stroke="#63b8ff" points="587.97,-290.69 595.86,-283.63 585.28,-284.23 587.97,-290.69"/>
</a>
</g>
</g>
<!-- Node15&#45;&gt;Node10 -->
<g id="edge24_Node000015_Node000010" class="edge">
<title>Node15&#45;&gt;Node10</title>
<g id="a_edge24_Node000015_Node000010"><a xlink:title=" ">
<path fill="none" stroke="#63b8ff" d="M502.13,-358.58C553.52,-384.04 647.52,-419.35 714,-379 767.55,-346.49 790.71,-270.6 799.43,-231.02"/>
<polygon fill="#63b8ff" stroke="#63b8ff" points="802.88,-231.61 801.48,-221.11 796.03,-230.19 802.88,-231.61"/>
</a>
</g>
</g>
<!-- Node15&#45;&gt;Node11 -->
<g id="edge26_Node000015_Node000011" class="edge">
<title>Node15&#45;&gt;Node11</title>
<g id="a_edge26_Node000015_Node000011"><a xlink:title=" ">
<path fill="none" stroke="#63b8ff" d="M531.7,-344.28C547.85,-345.8 565.07,-347.43 581.11,-348.94"/>
<polygon fill="#63b8ff" stroke="#63b8ff" points="581.17,-352.46 591.45,-349.91 581.83,-345.49 581.17,-352.46"/>
</a>
</g>
</g>
<!-- Node15&#45;&gt;Node15 -->
<g id="edge23_Node000015_Node000015" class="edge">
<title>Node15&#45;&gt;Node15</title>
<g id="a_edge23_Node000015_Node000015"><a xlink:title=" ">
<path fill="none" stroke="#63b8ff" d="M430.55,-358.6C426.9,-368.15 438.05,-376.5 464,-376.5 480.22,-376.5 490.66,-373.24 495.31,-368.46"/>
<polygon fill="#63b8ff" stroke="#63b8ff" points="498.75,-369.11 497.45,-358.6 491.91,-367.63 498.75,-369.11"/>
</a>
</g>
</g>
</g>
</svg>

<g id="navigator" transform="translate(0 0)" fill="#404254">
  <rect fill="#f2f5e9" fill-opacity="0.5" stroke="#606060" stroke-width=".5" x="0" y="0" width="60" height="60"/>
  <use id="zoomplus" xlink:href="#zoomPlus" x="17" y="9" onmousedown="handleZoom(evt,'in')"/>
  <use id="zoomminus" xlink:href="#zoomMin" x="42" y="9" onmousedown="handleZoom(evt,'out')"/>
  <use id="reset" xlink:href="#resetDef" x="30" y="36" onmousedown="handleReset()"/>
   <use id="arrowup" xlink:href="#arrowUp" x="0" y="0" onmousedown="handlePan(0,-1)"/>
  <use id="arrowright" xlink:href="#arrowRight" x="0" y="0" onmousedown="handlePan(1,0)"/>
  <use id="arrowdown" xlink:href="#arrowDown" x="0" y="0" onmousedown="handlePan(0,1)"/>
  <use id="arrowleft" xlink:href="#arrowLeft" x="0" y="0" onmousedown="handlePan(-1,0)"/>
</g>
<svg viewBox="0 0 15 15" width="100%" height="30px" preserveAspectRatio="xMaxYMin meet">
 <g id="arrow_out" transform="scale(0.3 0.3)">
  <a xlink:href="classanonymous__namespace_02json-validator_8cpp_03_1_1type__schema_a72ff3c13768d129592b9d088316d0d99_cgraph_org.svg" target="_base">
   <rect id="button" ry="5" rx="5" y="6" x="6" height="38" width="38"
        fill="#f2f5e9" fill-opacity="0.5" stroke="#606060" stroke-width="1.0"/>
   <path id="arrow"
     d="M 11.500037,31.436501 C 11.940474,20.09759 22.043105,11.32322 32.158766,21.979434 L 37.068811,17.246167 C 37.068811,17.246167 37.088388,32 37.088388,32 L 22.160133,31.978069 C 22.160133,31.978069 26.997745,27.140456 26.997745,27.140456 C 18.528582,18.264221 13.291696,25.230495 11.500037,31.436501 z"
     style="fill:#404040;"/>
  </a>
 </g>
</svg>

<style type='text/css'>
<![CDATA[
[data-mouse-over-selected='false'] { opacity: 0.7; }
[data-mouse-over-selected='true']  { opacity: 1.0; }
]]>
</style>
<script type="application/ecmascript"><![CDATA[
document.addEventListener('DOMContentLoaded', (event) => {
  highlightEdges();
  highlightAdjacentNodes();
});
]]></script>
</svg>
