<?xml version="1.0" encoding="UTF-8" standalone="no"?>
<!DOCTYPE svg PUBLIC "-//W3C//DTD SVG 1.1//EN"
 "http://www.w3.org/Graphics/SVG/1.1/DTD/svg11.dtd">
<!-- Generated by graphviz version 14.1.1 (0)
 -->
<!-- Title: inja::Renderer::visit Pages: 1 -->
<!--zoomable 187 -->

<svg id="main" version="1.1" xmlns="http://www.w3.org/2000/svg" xmlns:xlink="http://www.w3.org/1999/xlink" xml:space="preserve" onload="init(evt)">

<style type="text/css"><![CDATA[
.node, .edge {opacity: 0.7;}
.node.selected, .edge.selected {opacity: 1;}
.edge:hover path { stroke: red; }
.edge:hover polygon { stroke: red; fill: red; }
]]></style>

<defs>
  <circle id="rim" cx="0" cy="0" r="7"/>
  <circle id="rim2" cx="0" cy="0" r="3.5"/>
  <g id="zoomPlus">
    <use xlink:href="#rim" fill="#404040"><set attributeName="fill" to="#808080" begin="zoomplus.mouseover" end="zoomplus.mouseout"/></use>
    <path d="M-4,0h8M0,-4v8" fill="none" stroke="white" stroke-width="1.5" pointer-events="none"/>
  </g>
  <g id="zoomMin">
    <use xlink:href="#rim" fill="#404040"><set attributeName="fill" to="#808080" begin="zoomminus.mouseover" end="zoomminus.mouseout"/></use>
    <path d="M-4,0h8" fill="none" stroke="white" stroke-width="1.5" pointer-events="none"/>
  </g>
  <g id="arrowUp" transform="translate(30 24)">
    <use xlink:href="#rim"/>
    <path pointer-events="none" fill="none" stroke="white" stroke-width="1.5" d="M0,-3.0v7 M-2.5,-0.5L0,-3.0L2.5,-0.5"/>
  </g>
  <g id="arrowRight" transform="rotate(90) translate(36 -43)">
    <use xlink:href="#rim"/>
    <path pointer-events="none" fill="none" stroke="white" stroke-width="1.5" d="M0,-3.0v7 M-2.5,-0.5L0,-3.0L2.5,-0.5"/>
  </g>
  <g id="arrowDown" transform="rotate(180) translate(-30 -48)">
    <use xlink:href="#rim"/>
    <path pointer-events="none" fill="none" stroke="white" stroke-width="1.5" d="M0,-3.0v7 M-2.5,-0.5L0,-3.0L2.5,-0.5"/>
  </g>
  <g id="arrowLeft" transform="rotate(270) translate(-36 17)">
    <use xlink:href="#rim"/>
    <path pointer-events="none" fill="none" stroke="white" stroke-width="1.5" d="M0,-3.0v7 M-2.5,-0.5L0,-3.0L2.5,-0.5"/>
  </g>
  <g id="resetDef">
    <use xlink:href="#rim2" fill="#404040"><set attributeName="fill" to="#808080" begin="reset.mouseover" end="reset.mouseout"/></use>
  </g>
</defs>
<script type="application/ecmascript">
var viewWidth = 779;
var viewHeight = 187;
var sectionId = 'dynsection-14';
</script>
<script type="application/ecmascript" xlink:href="svg.min.js"/>
<svg id="graph" class="graph">
<g id="viewport">
<title>inja::Renderer::visit</title>
<!-- Node1 -->
<g id="Node000001" class="node">
<title>Node1</title>
<g id="a_Node000001"><a xlink:title=" ">
<polygon fill="#999999" stroke="#666666" points="111.25,-118.12 0,-118.12 0,-97.38 111.25,-97.38 111.25,-118.12"/>
<text xml:space="preserve" text-anchor="middle" x="55.62" y="-104.62" font-family="Helvetica,sans-Serif" font-size="10.00">inja::Renderer::visit</text>
</a>
</g>
</g>
<!-- Node2 -->
<g id="Node000002" class="node">
<title>Node2</title>
<g id="a_Node000002"><a xlink:href="classinja_1_1BlockNode.html#afa264eaa0a42e9f38086e93530b164be" target="_top" xlink:title=" ">
<polygon fill="white" stroke="#666666" points="278,-167.12 147.25,-167.12 147.25,-146.38 278,-146.38 278,-167.12"/>
<text xml:space="preserve" text-anchor="middle" x="212.62" y="-153.62" font-family="Helvetica,sans-Serif" font-size="10.00">inja::BlockNode::accept</text>
</a>
</g>
</g>
<!-- Node1&#45;&gt;Node2 -->
<g id="edge1_Node000001_Node000002" class="edge">
<title>Node1&#45;&gt;Node2</title>
<g id="a_edge1_Node000001_Node000002"><a xlink:title=" ">
<path fill="none" stroke="#63b8ff" d="M91.02,-118.62C113.3,-125.67 142.54,-134.91 166.65,-142.53"/>
<polygon fill="#63b8ff" stroke="#63b8ff" points="165.29,-145.77 175.88,-145.45 167.4,-139.1 165.29,-145.77"/>
</a>
</g>
</g>
<!-- Node4 -->
<g id="Node000004" class="node">
<title>Node4</title>
<g id="a_Node000004"><a xlink:href="classinja_1_1Renderer.html#a1f914ffa16fd02743b3700b1390b41ab" target="_top" xlink:title=" ">
<polygon fill="white" stroke="#666666" points="268.25,-124.5 157,-124.5 157,-91 268.25,-91 268.25,-124.5"/>
<text xml:space="preserve" text-anchor="start" x="165" y="-111" font-family="Helvetica,sans-Serif" font-size="10.00">inja::Renderer::eval</text>
<text xml:space="preserve" text-anchor="middle" x="212.62" y="-98.25" font-family="Helvetica,sans-Serif" font-size="10.00">_expression_list</text>
</a>
</g>
</g>
<!-- Node1&#45;&gt;Node4 -->
<g id="edge3_Node000001_Node000004" class="edge">
<title>Node1&#45;&gt;Node4</title>
<g id="a_edge3_Node000001_Node000004"><a xlink:title=" ">
<path fill="none" stroke="#63b8ff" d="M111.71,-107.75C122.56,-107.75 134.05,-107.75 145.23,-107.75"/>
<polygon fill="#63b8ff" stroke="#63b8ff" points="145.21,-111.25 155.21,-107.75 145.21,-104.25 145.21,-111.25"/>
</a>
</g>
</g>
<!-- Node7 -->
<g id="Node000007" class="node">
<title>Node7</title>
<g id="a_Node000007"><a xlink:href="classinja_1_1Renderer.html#a30be8e7c30b1780ae45a5aa34aae98de" target="_top" xlink:title=" ">
<polygon fill="white" stroke="#666666" points="432.38,-74.5 314.38,-74.5 314.38,-41 432.38,-41 432.38,-74.5"/>
<text xml:space="preserve" text-anchor="start" x="322.38" y="-61" font-family="Helvetica,sans-Serif" font-size="10.00">inja::Renderer::throw</text>
<text xml:space="preserve" text-anchor="middle" x="373.38" y="-48.25" font-family="Helvetica,sans-Serif" font-size="10.00">_renderer_error</text>
</a>
</g>
</g>
<!-- Node1&#45;&gt;Node7 -->
<g id="edge11_Node000001_Node000007" class="edge">
<title>Node1&#45;&gt;Node7</title>
<g id="a_edge11_Node000001_Node000007"><a xlink:title=" ">
<path fill="none" stroke="#63b8ff" d="M89.01,-96.98C106.15,-91.66 127.65,-85.58 147.25,-81.75 198.89,-71.67 258.07,-65.57 302.79,-62.04"/>
<polygon fill="#63b8ff" stroke="#63b8ff" points="302.91,-65.54 312.62,-61.29 302.38,-58.56 302.91,-65.54"/>
</a>
</g>
</g>
<!-- Node3 -->
<g id="Node000003" class="node">
<title>Node3</title>
<g id="a_Node000003"><a xlink:href="classinja_1_1NodeVisitor.html#afecb3de947b76e68094be2a72eedea09" target="_top" xlink:title=" ">
<polygon fill="white" stroke="#666666" points="424.88,-178.5 321.88,-178.5 321.88,-145 424.88,-145 424.88,-178.5"/>
<text xml:space="preserve" text-anchor="start" x="329.88" y="-165" font-family="Helvetica,sans-Serif" font-size="10.00">inja::NodeVisitor::</text>
<text xml:space="preserve" text-anchor="middle" x="373.38" y="-152.25" font-family="Helvetica,sans-Serif" font-size="10.00">visit</text>
</a>
</g>
</g>
<!-- Node2&#45;&gt;Node3 -->
<g id="edge2_Node000002_Node000003" class="edge">
<title>Node2&#45;&gt;Node3</title>
<g id="a_edge2_Node000002_Node000003"><a xlink:title=" ">
<path fill="none" stroke="#63b8ff" d="M278.19,-158.78C288.79,-159.12 299.74,-159.46 310.27,-159.79"/>
<polygon fill="#63b8ff" stroke="#63b8ff" points="309.87,-163.28 319.98,-160.1 310.09,-156.29 309.87,-163.28"/>
</a>
</g>
</g>
<!-- Node5 -->
<g id="Node000005" class="node">
<title>Node5</title>
<g id="a_Node000005"><a xlink:href="classinja_1_1ExpressionNode.html#a67372edaf18af67e3c3ed0649323d829" target="_top" xlink:title=" ">
<polygon fill="white" stroke="#666666" points="432.75,-126.5 314,-126.5 314,-93 432.75,-93 432.75,-126.5"/>
<text xml:space="preserve" text-anchor="start" x="322" y="-113" font-family="Helvetica,sans-Serif" font-size="10.00">inja::ExpressionNode</text>
<text xml:space="preserve" text-anchor="middle" x="373.38" y="-100.25" font-family="Helvetica,sans-Serif" font-size="10.00">::accept</text>
</a>
</g>
</g>
<!-- Node4&#45;&gt;Node5 -->
<g id="edge4_Node000004_Node000005" class="edge">
<title>Node4&#45;&gt;Node5</title>
<g id="a_edge4_Node000004_Node000005"><a xlink:title=" ">
<path fill="none" stroke="#63b8ff" d="M268.7,-108.44C279.58,-108.58 291.14,-108.73 302.43,-108.87"/>
<polygon fill="#63b8ff" stroke="#63b8ff" points="302.05,-112.36 312.1,-108.99 302.14,-105.36 302.05,-112.36"/>
</a>
</g>
</g>
<!-- Node4&#45;&gt;Node7 -->
<g id="edge6_Node000004_Node000007" class="edge">
<title>Node4&#45;&gt;Node7</title>
<g id="a_edge6_Node000004_Node000007"><a xlink:title=" ">
<path fill="none" stroke="#63b8ff" d="M268.26,-90.54C280.73,-86.61 294.11,-82.4 306.98,-78.35"/>
<polygon fill="#63b8ff" stroke="#63b8ff" points="307.71,-81.79 316.2,-75.44 305.61,-75.11 307.71,-81.79"/>
</a>
</g>
</g>
<!-- Node6 -->
<g id="Node000006" class="node">
<title>Node6</title>
<g id="a_Node000006"><a xlink:href="classinja_1_1NodeVisitor.html#ac1487c93e9e91cba1bf57741842ba6d3" target="_top" xlink:title=" ">
<polygon fill="white" stroke="#666666" points="589,-126.5 486,-126.5 486,-93 589,-93 589,-126.5"/>
<text xml:space="preserve" text-anchor="start" x="494" y="-113" font-family="Helvetica,sans-Serif" font-size="10.00">inja::NodeVisitor::</text>
<text xml:space="preserve" text-anchor="middle" x="537.5" y="-100.25" font-family="Helvetica,sans-Serif" font-size="10.00">visit</text>
</a>
</g>
</g>
<!-- Node5&#45;&gt;Node6 -->
<g id="edge5_Node000005_Node000006" class="edge">
<title>Node5&#45;&gt;Node6</title>
<g id="a_edge5_Node000005_Node000006"><a xlink:title=" ">
<path fill="none" stroke="#63b8ff" d="M432.91,-109.75C446.37,-109.75 460.73,-109.75 474.34,-109.75"/>
<polygon fill="#63b8ff" stroke="#63b8ff" points="474.05,-113.25 484.05,-109.75 474.05,-106.25 474.05,-113.25"/>
</a>
</g>
</g>
<!-- Node8 -->
<g id="Node000008" class="node">
<title>Node8</title>
<g id="a_Node000008"><a xlink:href="namespaceinja.html#ab7c8c54f2caeb72095cd78a7ff7b6c37" target="_top" xlink:title=" ">
<polygon fill="white" stroke="#666666" points="606.25,-72.12 468.75,-72.12 468.75,-51.38 606.25,-51.38 606.25,-72.12"/>
<text xml:space="preserve" text-anchor="middle" x="537.5" y="-58.62" font-family="Helvetica,sans-Serif" font-size="10.00">inja::get_source_location</text>
</a>
</g>
</g>
<!-- Node7&#45;&gt;Node8 -->
<g id="edge7_Node000007_Node000008" class="edge">
<title>Node7&#45;&gt;Node8</title>
<g id="a_edge7_Node000007_Node000008"><a xlink:title=" ">
<path fill="none" stroke="#63b8ff" d="M432.45,-59.18C440.44,-59.38 448.76,-59.59 457.06,-59.79"/>
<polygon fill="#63b8ff" stroke="#63b8ff" points="456.74,-63.28 466.82,-60.03 456.91,-56.29 456.74,-63.28"/>
</a>
</g>
</g>
<!-- Node10 -->
<g id="Node000010" class="node">
<title>Node10</title>
<g id="a_Node000010"><a xlink:href="structinja_1_1RenderError.html#a24568cf50805c33dec821fb1edfb02f5" target="_top" xlink:title=" ">
<polygon fill="white" stroke="#666666" points="589.38,-33.5 485.62,-33.5 485.62,0 589.38,0 589.38,-33.5"/>
<text xml:space="preserve" text-anchor="start" x="493.62" y="-20" font-family="Helvetica,sans-Serif" font-size="10.00">inja::RenderError::</text>
<text xml:space="preserve" text-anchor="middle" x="537.5" y="-7.25" font-family="Helvetica,sans-Serif" font-size="10.00">RenderError</text>
</a>
</g>
</g>
<!-- Node7&#45;&gt;Node10 -->
<g id="edge9_Node000007_Node000010" class="edge">
<title>Node7&#45;&gt;Node10</title>
<g id="a_edge9_Node000007_Node000010"><a xlink:title=" ">
<path fill="none" stroke="#63b8ff" d="M432.45,-43.06C446.07,-39.62 460.64,-35.94 474.43,-32.45"/>
<polygon fill="#63b8ff" stroke="#63b8ff" points="474.98,-35.92 483.82,-30.07 473.26,-29.13 474.98,-35.92"/>
</a>
</g>
</g>
<!-- Node9 -->
<g id="Node000009" class="node">
<title>Node9</title>
<g id="a_Node000009"><a xlink:href="namespaceinja_1_1string__view.html#a898871016595d8f34d1b4ea55b3e8684" target="_top" xlink:title=" ">
<polygon fill="white" stroke="#666666" points="757.62,-78.5 655.38,-78.5 655.38,-45 757.62,-45 757.62,-78.5"/>
<text xml:space="preserve" text-anchor="start" x="663.38" y="-65" font-family="Helvetica,sans-Serif" font-size="10.00">inja::string_view::</text>
<text xml:space="preserve" text-anchor="middle" x="706.5" y="-52.25" font-family="Helvetica,sans-Serif" font-size="10.00">slice</text>
</a>
</g>
</g>
<!-- Node8&#45;&gt;Node9 -->
<g id="edge8_Node000008_Node000009" class="edge">
<title>Node8&#45;&gt;Node9</title>
<g id="a_edge8_Node000008_Node000009"><a xlink:title=" ">
<path fill="none" stroke="#63b8ff" d="M606.43,-61.75C618.74,-61.75 631.53,-61.75 643.66,-61.75"/>
<polygon fill="#63b8ff" stroke="#63b8ff" points="643.54,-65.25 653.54,-61.75 643.54,-58.25 643.54,-65.25"/>
</a>
</g>
</g>
<!-- Node11 -->
<g id="Node000011" class="node">
<title>Node11</title>
<g id="a_Node000011"><a xlink:href="structinja_1_1InjaError.html#a399b7d2f7c824c24b7794694711bafb7" target="_top" xlink:title=" ">
<polygon fill="white" stroke="#666666" points="770.75,-27.12 642.25,-27.12 642.25,-6.38 770.75,-6.38 770.75,-27.12"/>
<text xml:space="preserve" text-anchor="middle" x="706.5" y="-13.62" font-family="Helvetica,sans-Serif" font-size="10.00">inja::InjaError::InjaError</text>
</a>
</g>
</g>
<!-- Node10&#45;&gt;Node11 -->
<g id="edge10_Node000010_Node000011" class="edge">
<title>Node10&#45;&gt;Node11</title>
<g id="a_edge10_Node000010_Node000011"><a xlink:title=" ">
<path fill="none" stroke="#63b8ff" d="M589.51,-16.75C602.4,-16.75 616.52,-16.75 630.32,-16.75"/>
<polygon fill="#63b8ff" stroke="#63b8ff" points="630.3,-20.25 640.3,-16.75 630.3,-13.25 630.3,-20.25"/>
</a>
</g>
</g>
</g>
</svg>

<g id="navigator" transform="translate(0 0)" fill="#404254">
  <rect fill="#f2f5e9" fill-opacity="0.5" stroke="#606060" stroke-width=".5" x="0" y="0" width="60" height="60"/>
  <use id="zoomplus" xlink:href="#zoomPlus" x="17" y="9" onmousedown="handleZoom(evt,'in')"/>
  <use id="zoomminus" xlink:href="#zoomMin" x="42" y="9" onmousedown="handleZoom(evt,'out')"/>
  <use id="reset" xlink:href="#resetDef" x="30" y="36" onmousedown="handleReset()"/>
   <use id="arrowup" xlink:href="#arrowUp" x="0" y="0" onmousedown="handlePan(0,-1)"/>
  <use id="arrowright" xlink:href="#arrowRight" x="0" y="0" onmousedown="handlePan(1,0)"/>
  <use id="arrowdown" xlink:href="#arrowDown" x="0" y="0" onmousedown="handlePan(0,1)"/>
  <use id="arrowleft" xlink:href="#arrowLeft" x="0" y="0" onmousedown="handlePan(-1,0)"/>
</g>
<svg viewBox="0 0 15 15" width="100%" height="30px" preserveAspectRatio="xMaxYMin meet">
 <g id="arrow_out" transform="scale(0.3 0.3)">
  <a xlink:href="classinja_1_1Renderer_abcbf6282e8229df9163c06687d57a5d1_cgraph_org.svg" target="_base">
   <rect id="button" ry="5" rx="5" y="6" x="6" height="38" width="38"
        fill="#f2f5e9" fill-opacity="0.5" stroke="#606060" stroke-width="1.0"/>
   <path id="arrow"
     d="M 11.500037,31.436501 C 11.940474,20.09759 22.043105,11.32322 32.158766,21.979434 L 37.068811,17.246167 C 37.068811,17.246167 37.088388,32 37.088388,32 L 22.160133,31.978069 C 22.160133,31.978069 26.997745,27.140456 26.997745,27.140456 C 18.528582,18.264221 13.291696,25.230495 11.500037,31.436501 z"
     style="fill:#404040;"/>
  </a>
 </g>
</svg>

<style type='text/css'>
<![CDATA[
[data-mouse-over-selected='false'] { opacity: 0.7; }
[data-mouse-over-selected='true']  { opacity: 1.0; }
]]>
</style>
<script type="application/ecmascript"><![CDATA[
document.addEventListener('DOMContentLoaded', (event) => {
  highlightEdges();
  highlightAdjacentNodes();
});
]]></script>
</svg>
