<?xml version="1.0" encoding="UTF-8" standalone="no"?>
<!DOCTYPE svg PUBLIC "-//W3C//DTD SVG 1.1//EN"
 "http://www.w3.org/Graphics/SVG/1.1/DTD/svg11.dtd">
<!-- Generated by graphviz version 14.1.2 (0)
 -->
<!-- Title: mqtt::mqttintegrator::lib::Mqtt::DelayedQueue::delayPublish Pages: 1 -->
<svg width="654pt" height="92pt"
 viewBox="0.00 0.00 654.00 92.00" xmlns="http://www.w3.org/2000/svg" xmlns:xlink="http://www.w3.org/1999/xlink">
<g id="graph0" class="graph" transform="scale(1 1) rotate(0) translate(4 87.88)">
<title>mqtt::mqttintegrator::lib::Mqtt::DelayedQueue::delayPublish</title>
<!-- Node1 -->
<g id="Node000001" class="node">
<title>Node1</title>
<g id="a_Node000001"><a xlink:title=" ">
<polygon fill="#999999" stroke="#666666" points="646,-46.25 505.5,-46.25 505.5,0 646,0 646,-46.25"/>
<text xml:space="preserve" text-anchor="start" x="513.5" y="-32.75" font-family="Helvetica,sans-Serif" font-size="10.00">mqtt::mqttintegrator</text>
<text xml:space="preserve" text-anchor="start" x="513.5" y="-20" font-family="Helvetica,sans-Serif" font-size="10.00">::lib::Mqtt::DelayedQueue</text>
<text xml:space="preserve" text-anchor="middle" x="575.75" y="-7.25" font-family="Helvetica,sans-Serif" font-size="10.00">::delayPublish</text>
</a>
</g>
</g>
<!-- Node2 -->
<g id="Node000002" class="node">
<title>Node2</title>
<g id="a_Node000002"><a xlink:href="classmqtt_1_1mqttintegrator_1_1lib_1_1Mqtt.html#a211408365844787ce77340f454b9cbd0" target="_top" xlink:title=" ">
<polygon fill="white" stroke="#666666" points="469.5,-65.88 353,-65.88 353,-32.38 469.5,-32.38 469.5,-65.88"/>
<text xml:space="preserve" text-anchor="start" x="361" y="-52.38" font-family="Helvetica,sans-Serif" font-size="10.00">mqtt::mqttintegrator</text>
<text xml:space="preserve" text-anchor="middle" x="411.25" y="-39.62" font-family="Helvetica,sans-Serif" font-size="10.00">::lib::Mqtt::onPublish</text>
</a>
</g>
</g>
<!-- Node1&#45;&gt;Node2 -->
<g id="edge1_Node000001_Node000002" class="edge">
<title>Node1&#45;&gt;Node2</title>
<g id="a_edge1_Node000001_Node000002"><a xlink:title=" ">
<path fill="none" stroke="#63b8ff" d="M494.22,-36.01C486.01,-37.32 477.8,-38.64 469.91,-39.9"/>
<polygon fill="#63b8ff" stroke="#63b8ff" points="494.55,-39.5 503.87,-34.47 493.44,-32.59 494.55,-39.5"/>
</a>
</g>
</g>
<!-- Node2&#45;&gt;Node2 -->
<g id="edge2_Node000002_Node000002" class="edge">
<title>Node2&#45;&gt;Node2</title>
<g id="a_edge2_Node000002_Node000002"><a xlink:title=" ">
<path fill="none" stroke="#63b8ff" d="M438.87,-77.26C434.37,-81.22 425.17,-83.88 411.25,-83.88 386.51,-83.88 376.65,-75.49 381.68,-66.29"/>
<polygon fill="#63b8ff" stroke="#63b8ff" points="442.25,-78.24 440.56,-67.78 435.36,-77.01 442.25,-78.24"/>
</a>
</g>
</g>
<!-- Node3 -->
<g id="Node000003" class="node">
<title>Node3</title>
<g id="a_Node000003"><a xlink:href="classmqtt_1_1mqttintegrator_1_1lib_1_1Mqtt_1_1DelayedQueue.html#ad8803a587bf94d106c9a501c01ac8ea8" target="_top" xlink:title=" ">
<polygon fill="white" stroke="#666666" points="317,-75.25 176.5,-75.25 176.5,-29 317,-29 317,-75.25"/>
<text xml:space="preserve" text-anchor="start" x="184.5" y="-61.75" font-family="Helvetica,sans-Serif" font-size="10.00">mqtt::mqttintegrator</text>
<text xml:space="preserve" text-anchor="start" x="184.5" y="-49" font-family="Helvetica,sans-Serif" font-size="10.00">::lib::Mqtt::DelayedQueue</text>
<text xml:space="preserve" text-anchor="middle" x="246.75" y="-36.25" font-family="Helvetica,sans-Serif" font-size="10.00">::processDue</text>
</a>
</g>
</g>
<!-- Node2&#45;&gt;Node3 -->
<g id="edge3_Node000002_Node000003" class="edge">
<title>Node2&#45;&gt;Node3</title>
<g id="a_edge3_Node000002_Node000003"><a xlink:title=" ">
<path fill="none" stroke="#63b8ff" d="M341.09,-50.4C333.21,-50.55 325.17,-50.7 317.27,-50.84"/>
<polygon fill="#63b8ff" stroke="#63b8ff" points="341.05,-53.9 350.99,-50.22 340.92,-46.9 341.05,-53.9"/>
</a>
</g>
</g>
<!-- Node4 -->
<g id="Node000004" class="node">
<title>Node4</title>
<g id="a_Node000004"><a xlink:href="classmqtt_1_1mqttintegrator_1_1lib_1_1Mqtt_1_1DelayedQueue.html#a110f0813ded3a278c42dab9337c2a723" target="_top" xlink:title=" ">
<polygon fill="white" stroke="#666666" points="140.5,-49.25 0,-49.25 0,-3 140.5,-3 140.5,-49.25"/>
<text xml:space="preserve" text-anchor="start" x="8" y="-35.75" font-family="Helvetica,sans-Serif" font-size="10.00">mqtt::mqttintegrator</text>
<text xml:space="preserve" text-anchor="start" x="8" y="-23" font-family="Helvetica,sans-Serif" font-size="10.00">::lib::Mqtt::DelayedQueue</text>
<text xml:space="preserve" text-anchor="middle" x="70.25" y="-10.25" font-family="Helvetica,sans-Serif" font-size="10.00">::armDelayTimer</text>
</a>
</g>
</g>
<!-- Node3&#45;&gt;Node4 -->
<g id="edge4_Node000003_Node000004" class="edge">
<title>Node3&#45;&gt;Node4</title>
<g id="a_edge4_Node000003_Node000004"><a xlink:title=" ">
<path fill="none" stroke="#63b8ff" d="M164.8,-40.06C156.8,-38.87 148.73,-37.67 140.86,-36.5"/>
<polygon fill="#63b8ff" stroke="#63b8ff" points="164.13,-43.5 174.53,-41.51 165.16,-36.58 164.13,-43.5"/>
</a>
</g>
</g>
<!-- Node4&#45;&gt;Node1 -->
<g id="edge6_Node000004_Node000001" class="edge">
<title>Node4&#45;&gt;Node1</title>
<g id="a_edge6_Node000004_Node000001"><a xlink:title=" ">
<path fill="none" stroke="#63b8ff" d="M152.35,-21.04C160.51,-20.66 168.67,-20.35 176.5,-20.12 291.75,-16.84 425.83,-19.11 505.31,-21.09"/>
<polygon fill="#63b8ff" stroke="#63b8ff" points="152.19,-17.54 142.37,-21.52 152.53,-24.53 152.19,-17.54"/>
</a>
</g>
</g>
<!-- Node4&#45;&gt;Node4 -->
<g id="edge5_Node000004_Node000004" class="edge">
<title>Node4&#45;&gt;Node4</title>
<g id="a_edge5_Node000004_Node000004"><a xlink:title=" ">
<path fill="none" stroke="#63b8ff" d="M99.28,-59.99C94.25,-64.36 84.58,-67.25 70.25,-67.25 46.12,-67.25 35.18,-59.05 37.45,-49.38"/>
<polygon fill="#63b8ff" stroke="#63b8ff" points="102.49,-61.4 102.55,-50.8 95.89,-59.05 102.49,-61.4"/>
</a>
</g>
</g>
</g>
</svg>
