<?xml version="1.0" encoding="UTF-8" standalone="no"?>
<!DOCTYPE svg PUBLIC "-//W3C//DTD SVG 1.1//EN"
 "http://www.w3.org/Graphics/SVG/1.1/DTD/svg11.dtd">
<!-- Generated by graphviz version 14.1.2 (0)
 -->
<!-- Title: mqtt::lib::plugins::storage_plugin::Storage Pages: 1 -->
<svg width="138pt" height="293pt"
 viewBox="0.00 0.00 138.00 293.00" xmlns="http://www.w3.org/2000/svg" xmlns:xlink="http://www.w3.org/1999/xlink">
<g id="graph0" class="graph" transform="scale(1 1) rotate(0) translate(4 288.5)">
<title>mqtt::lib::plugins::storage_plugin::Storage</title>
<!-- Node1 -->
<g id="Node000001" class="node">
<title>Node1</title>
<g id="a_Node000001"><a xlink:title=" ">
<polygon fill="#999999" stroke="none" points="129.5,-33.5 0,-33.5 0,0 129.5,0 129.5,-33.5"/>
<text xml:space="preserve" text-anchor="start" x="4" y="-20" font-family="Helvetica,sans-Serif" font-size="10.00">mqtt::lib::plugins</text>
<text xml:space="preserve" text-anchor="start" x="4" y="-7.25" font-family="Helvetica,sans-Serif" font-size="10.00">::storage_plugin::Storage</text>
<polygon fill="none" stroke="#666666" points="0,0 0,-33.5 129.5,-33.5 129.5,0 0,0"/>
</a>
</g>
</g>
<!-- Node2 -->
<g id="Node000002" class="node">
<title>Node2</title>
<g id="a_Node000002"><a xlink:title=" ">
<polygon fill="white" stroke="none" points="121.62,-121.75 7.88,-121.75 7.88,-88.25 121.62,-88.25 121.62,-121.75"/>
<text xml:space="preserve" text-anchor="start" x="11.88" y="-108.25" font-family="Helvetica,sans-Serif" font-size="10.00">std::map&lt; std::string,</text>
<text xml:space="preserve" text-anchor="start" x="33.25" y="-95.5" font-family="Helvetica,sans-Serif" font-size="10.00"> std::string &gt;</text>
<polygon fill="none" stroke="#666666" points="7.88,-88.25 7.88,-121.75 121.62,-121.75 121.62,-88.25 7.88,-88.25"/>
</a>
</g>
</g>
<!-- Node2&#45;&gt;Node1 -->
<g id="edge1_Node000001_Node000002" class="edge">
<title>Node2&#45;&gt;Node1</title>
<g id="a_edge1_Node000001_Node000002"><a xlink:title=" ">
<path fill="none" stroke="#63b8ff" d="M64.75,-88.58C64.75,-76.88 64.75,-60.46 64.75,-46.37"/>
<polygon fill="none" stroke="#63b8ff" points="64.75,-46.23 60.75,-40.23 64.75,-34.23 68.75,-40.23 64.75,-46.23"/>
</a>
</g>
<text xml:space="preserve" text-anchor="start" x="67.75" y="-57.75" font-family="Helvetica,sans-Serif" font-size="10.00" fill="grey">&#45;storage</text>
</g>
<!-- Node3 -->
<g id="Node000003" class="node">
<title>Node3</title>
<g id="a_Node000003"><a xlink:title=" ">
<polygon fill="white" stroke="none" points="93.12,-214 36.38,-214 36.38,-193.25 93.12,-193.25 93.12,-214"/>
<text xml:space="preserve" text-anchor="start" x="40.38" y="-200.5" font-family="Helvetica,sans-Serif" font-size="10.00">std::string</text>
<polygon fill="none" stroke="#666666" points="36.38,-193.25 36.38,-214 93.12,-214 93.12,-193.25 36.38,-193.25"/>
</a>
</g>
</g>
<!-- Node3&#45;&gt;Node2 -->
<g id="edge2_Node000002_Node000003" class="edge">
<title>Node3&#45;&gt;Node2</title>
<g id="a_edge2_Node000002_Node000003"><a xlink:title=" ">
<path fill="none" stroke="#63b8ff" d="M64.75,-193.36C64.75,-179.99 64.75,-154.71 64.75,-134.77"/>
<polygon fill="none" stroke="#63b8ff" points="64.75,-134.64 60.75,-128.64 64.75,-122.64 68.75,-128.64 64.75,-134.64"/>
</a>
</g>
<text xml:space="preserve" text-anchor="start" x="67.75" y="-162.75" font-family="Helvetica,sans-Serif" font-size="10.00" fill="grey">+elements</text>
<text xml:space="preserve" text-anchor="start" x="67.75" y="-146" font-family="Helvetica,sans-Serif" font-size="10.00" fill="grey">+keys</text>
</g>
<!-- Node4 -->
<g id="Node000004" class="node">
<title>Node4</title>
<g id="a_Node000004"><a xlink:title=" ">
<polygon fill="white" stroke="none" points="112.62,-284.5 16.88,-284.5 16.88,-251 112.62,-251 112.62,-284.5"/>
<text xml:space="preserve" text-anchor="start" x="20.88" y="-271" font-family="Helvetica,sans-Serif" font-size="10.00">std::basic_string&lt;</text>
<text xml:space="preserve" text-anchor="start" x="46.38" y="-258.25" font-family="Helvetica,sans-Serif" font-size="10.00"> Char &gt;</text>
<polygon fill="none" stroke="#666666" points="16.88,-251 16.88,-284.5 112.62,-284.5 112.62,-251 16.88,-251"/>
</a>
</g>
</g>
<!-- Node4&#45;&gt;Node3 -->
<g id="edge3_Node000003_Node000004" class="edge">
<title>Node4&#45;&gt;Node3</title>
<g id="a_edge3_Node000003_Node000004"><a xlink:title=" ">
<path fill="none" stroke="#63b8ff" d="M64.75,-239.79C64.75,-230.46 64.75,-220.63 64.75,-213.74"/>
<polygon fill="none" stroke="#63b8ff" points="61.25,-239.56 64.75,-249.56 68.25,-239.56 61.25,-239.56"/>
</a>
</g>
</g>
</g>
</svg>
