<?xml version="1.0" encoding="UTF-8" standalone="no"?>
<!DOCTYPE svg PUBLIC "-//W3C//DTD SVG 1.1//EN"
 "http://www.w3.org/Graphics/SVG/1.1/DTD/svg11.dtd">
<!-- Generated by graphviz version 14.1.1 (0)
 -->
<!-- Title: inja::StatementNode::StatementNode Pages: 1 -->
<svg width="523pt" height="354pt"
 viewBox="0.00 0.00 523.00 354.00" xmlns="http://www.w3.org/2000/svg" xmlns:xlink="http://www.w3.org/1999/xlink">
<g id="graph0" class="graph" transform="scale(1 1) rotate(0) translate(4 349.5)">
<title>inja::StatementNode::StatementNode</title>
<!-- Node1 -->
<g id="Node000001" class="node">
<title>Node1</title>
<g id="a_Node000001"><a xlink:title=" ">
<polygon fill="#999999" stroke="#666666" points="514.5,-189.5 398,-189.5 398,-156 514.5,-156 514.5,-189.5"/>
<text xml:space="preserve" text-anchor="start" x="406" y="-176" font-family="Helvetica,sans-Serif" font-size="10.00">inja::StatementNode</text>
<text xml:space="preserve" text-anchor="middle" x="456.25" y="-163.25" font-family="Helvetica,sans-Serif" font-size="10.00">::StatementNode</text>
</a>
</g>
</g>
<!-- Node2 -->
<g id="Node000002" class="node">
<title>Node2</title>
<g id="a_Node000002"><a xlink:href="classinja_1_1BlockStatementNode.html#a84c02d2cc82e9088d9881c236f7e6ebb" target="_top" xlink:title=" ">
<polygon fill="white" stroke="#666666" points="356,-345.5 212.5,-345.5 212.5,-312 356,-312 356,-345.5"/>
<text xml:space="preserve" text-anchor="start" x="220.5" y="-332" font-family="Helvetica,sans-Serif" font-size="10.00">inja::BlockStatementNode</text>
<text xml:space="preserve" text-anchor="middle" x="284.25" y="-319.25" font-family="Helvetica,sans-Serif" font-size="10.00">::BlockStatementNode</text>
</a>
</g>
</g>
<!-- Node1&#45;&gt;Node2 -->
<g id="edge1_Node000001_Node000002" class="edge">
<title>Node1&#45;&gt;Node2</title>
<g id="a_edge1_Node000001_Node000002"><a xlink:title=" ">
<path fill="none" stroke="#63b8ff" d="M442.42,-199.66C427.14,-228.98 398.97,-275.36 362,-302.75 357.48,-306.1 352.5,-309.04 347.31,-311.61"/>
<polygon fill="#63b8ff" stroke="#63b8ff" points="445.39,-201.55 446.77,-191.05 439.14,-198.39 445.39,-201.55"/>
</a>
</g>
</g>
<!-- Node3 -->
<g id="Node000003" class="node">
<title>Node3</title>
<g id="a_Node000003"><a xlink:href="classinja_1_1ExtendsStatementNode.html#a3d637e7f9b2fcd603508d00b5c73b758" target="_top" xlink:title=" ">
<polygon fill="white" stroke="#666666" points="362,-293.5 206.5,-293.5 206.5,-260 362,-260 362,-293.5"/>
<text xml:space="preserve" text-anchor="start" x="214.5" y="-280" font-family="Helvetica,sans-Serif" font-size="10.00">inja::ExtendsStatementNode</text>
<text xml:space="preserve" text-anchor="middle" x="284.25" y="-267.25" font-family="Helvetica,sans-Serif" font-size="10.00">::ExtendsStatementNode</text>
</a>
</g>
</g>
<!-- Node1&#45;&gt;Node3 -->
<g id="edge2_Node000001_Node000003" class="edge">
<title>Node1&#45;&gt;Node3</title>
<g id="a_edge2_Node000001_Node000003"><a xlink:title=" ">
<path fill="none" stroke="#63b8ff" d="M430.73,-197.66C412.95,-214.56 387.62,-236.36 362,-250.75 356.23,-253.99 350,-256.91 343.66,-259.53"/>
<polygon fill="#63b8ff" stroke="#63b8ff" points="433,-200.34 437.74,-190.86 428.12,-195.31 433,-200.34"/>
</a>
</g>
</g>
<!-- Node4 -->
<g id="Node000004" class="node">
<title>Node4</title>
<g id="a_Node000004"><a xlink:href="classinja_1_1ForStatementNode.html#ac25033c5f8e4fd975a619ccde75ae5a9" target="_top" xlink:title=" ">
<polygon fill="white" stroke="#666666" points="350,-241.5 218.5,-241.5 218.5,-208 350,-208 350,-241.5"/>
<text xml:space="preserve" text-anchor="start" x="226.5" y="-228" font-family="Helvetica,sans-Serif" font-size="10.00">inja::ForStatementNode</text>
<text xml:space="preserve" text-anchor="middle" x="284.25" y="-215.25" font-family="Helvetica,sans-Serif" font-size="10.00">::ForStatementNode</text>
</a>
</g>
</g>
<!-- Node1&#45;&gt;Node4 -->
<g id="edge3_Node000001_Node000004" class="edge">
<title>Node1&#45;&gt;Node4</title>
<g id="a_edge3_Node000001_Node000004"><a xlink:title=" ">
<path fill="none" stroke="#63b8ff" d="M388.53,-193.16C373.01,-197.9 356.64,-202.91 341.62,-207.51"/>
<polygon fill="#63b8ff" stroke="#63b8ff" points="389.13,-196.64 397.67,-190.36 387.08,-189.94 389.13,-196.64"/>
</a>
</g>
</g>
<!-- Node7 -->
<g id="Node000007" class="node">
<title>Node7</title>
<g id="a_Node000007"><a xlink:href="classinja_1_1IfStatementNode.html#af8eee57ca3fe0fe521fa9fb1dc59abe3" target="_top" xlink:title=" ">
<polygon fill="white" stroke="#666666" points="345.88,-189.5 222.62,-189.5 222.62,-156 345.88,-156 345.88,-189.5"/>
<text xml:space="preserve" text-anchor="start" x="230.62" y="-176" font-family="Helvetica,sans-Serif" font-size="10.00">inja::IfStatementNode</text>
<text xml:space="preserve" text-anchor="middle" x="284.25" y="-163.25" font-family="Helvetica,sans-Serif" font-size="10.00">::IfStatementNode</text>
</a>
</g>
</g>
<!-- Node1&#45;&gt;Node7 -->
<g id="edge6_Node000001_Node000007" class="edge">
<title>Node1&#45;&gt;Node7</title>
<g id="a_edge6_Node000001_Node000007"><a xlink:title=" ">
<path fill="none" stroke="#63b8ff" d="M386.23,-172.75C372.98,-172.75 359.2,-172.75 346.23,-172.75"/>
<polygon fill="#63b8ff" stroke="#63b8ff" points="386.18,-176.25 396.18,-172.75 386.18,-169.25 386.18,-176.25"/>
</a>
</g>
</g>
<!-- Node8 -->
<g id="Node000008" class="node">
<title>Node8</title>
<g id="a_Node000008"><a xlink:href="classinja_1_1IfStatementNode.html#afe2510abab7f2718760b470d90a45e74" target="_top" xlink:title=" ">
<polygon fill="white" stroke="#666666" points="345.88,-137.5 222.62,-137.5 222.62,-104 345.88,-104 345.88,-137.5"/>
<text xml:space="preserve" text-anchor="start" x="230.62" y="-124" font-family="Helvetica,sans-Serif" font-size="10.00">inja::IfStatementNode</text>
<text xml:space="preserve" text-anchor="middle" x="284.25" y="-111.25" font-family="Helvetica,sans-Serif" font-size="10.00">::IfStatementNode</text>
</a>
</g>
</g>
<!-- Node1&#45;&gt;Node8 -->
<g id="edge7_Node000001_Node000008" class="edge">
<title>Node1&#45;&gt;Node8</title>
<g id="a_edge7_Node000001_Node000008"><a xlink:title=" ">
<path fill="none" stroke="#63b8ff" d="M388.53,-152.34C373.01,-147.6 356.64,-142.59 341.62,-137.99"/>
<polygon fill="#63b8ff" stroke="#63b8ff" points="387.08,-155.56 397.67,-155.14 389.13,-148.86 387.08,-155.56"/>
</a>
</g>
</g>
<!-- Node9 -->
<g id="Node000009" class="node">
<title>Node9</title>
<g id="a_Node000009"><a xlink:href="classinja_1_1IncludeStatementNode.html#abfed0418c8b9b33a2ff414a6ebbcfa36" target="_top" xlink:title=" ">
<polygon fill="white" stroke="#666666" points="360.12,-85.5 208.38,-85.5 208.38,-52 360.12,-52 360.12,-85.5"/>
<text xml:space="preserve" text-anchor="start" x="216.38" y="-72" font-family="Helvetica,sans-Serif" font-size="10.00">inja::IncludeStatementNode</text>
<text xml:space="preserve" text-anchor="middle" x="284.25" y="-59.25" font-family="Helvetica,sans-Serif" font-size="10.00">::IncludeStatementNode</text>
</a>
</g>
</g>
<!-- Node1&#45;&gt;Node9 -->
<g id="edge8_Node000001_Node000009" class="edge">
<title>Node1&#45;&gt;Node9</title>
<g id="a_edge8_Node000001_Node000009"><a xlink:title=" ">
<path fill="none" stroke="#63b8ff" d="M430.73,-147.84C412.95,-130.94 387.62,-109.14 362,-94.75 356.23,-91.51 350,-88.59 343.66,-85.97"/>
<polygon fill="#63b8ff" stroke="#63b8ff" points="428.12,-150.19 437.74,-154.64 433,-145.16 428.12,-150.19"/>
</a>
</g>
</g>
<!-- Node10 -->
<g id="Node000010" class="node">
<title>Node10</title>
<g id="a_Node000010"><a xlink:href="classinja_1_1SetStatementNode.html#a9d391abda6352fbaf14c3b6cdca8b226" target="_top" xlink:title=" ">
<polygon fill="white" stroke="#666666" points="350.38,-33.5 218.12,-33.5 218.12,0 350.38,0 350.38,-33.5"/>
<text xml:space="preserve" text-anchor="start" x="226.12" y="-20" font-family="Helvetica,sans-Serif" font-size="10.00">inja::SetStatementNode</text>
<text xml:space="preserve" text-anchor="middle" x="284.25" y="-7.25" font-family="Helvetica,sans-Serif" font-size="10.00">::SetStatementNode</text>
</a>
</g>
</g>
<!-- Node1&#45;&gt;Node10 -->
<g id="edge9_Node000001_Node000010" class="edge">
<title>Node1&#45;&gt;Node10</title>
<g id="a_edge9_Node000001_Node000010"><a xlink:title=" ">
<path fill="none" stroke="#63b8ff" d="M442.42,-145.84C427.14,-116.52 398.97,-70.14 362,-42.75 357.48,-39.4 352.5,-36.46 347.31,-33.89"/>
<polygon fill="#63b8ff" stroke="#63b8ff" points="439.14,-147.11 446.77,-154.45 445.39,-143.95 439.14,-147.11"/>
</a>
</g>
</g>
<!-- Node5 -->
<g id="Node000005" class="node">
<title>Node5</title>
<g id="a_Node000005"><a xlink:href="classinja_1_1ForArrayStatementNode.html#a0f40b1eb08e0f9bedbc7b4e106669748" target="_top" xlink:title=" ">
<polygon fill="white" stroke="#666666" points="164.12,-267.5 6.38,-267.5 6.38,-234 164.12,-234 164.12,-267.5"/>
<text xml:space="preserve" text-anchor="start" x="14.38" y="-254" font-family="Helvetica,sans-Serif" font-size="10.00">inja::ForArrayStatementNode</text>
<text xml:space="preserve" text-anchor="middle" x="85.25" y="-241.25" font-family="Helvetica,sans-Serif" font-size="10.00">::ForArrayStatementNode</text>
</a>
</g>
</g>
<!-- Node4&#45;&gt;Node5 -->
<g id="edge4_Node000004_Node000005" class="edge">
<title>Node4&#45;&gt;Node5</title>
<g id="a_edge4_Node000004_Node000005"><a xlink:title=" ">
<path fill="none" stroke="#63b8ff" d="M207.17,-234.79C193.21,-236.63 178.62,-238.56 164.6,-240.41"/>
<polygon fill="#63b8ff" stroke="#63b8ff" points="207.24,-238.31 216.7,-233.53 206.33,-231.37 207.24,-238.31"/>
</a>
</g>
</g>
<!-- Node6 -->
<g id="Node000006" class="node">
<title>Node6</title>
<g id="a_Node000006"><a xlink:href="classinja_1_1ForObjectStatementNode.html#a32564b751a7442108fddc2d0ecc53bb4" target="_top" xlink:title=" ">
<polygon fill="white" stroke="#666666" points="170.5,-215.5 0,-215.5 0,-182 170.5,-182 170.5,-215.5"/>
<text xml:space="preserve" text-anchor="start" x="8" y="-202" font-family="Helvetica,sans-Serif" font-size="10.00">inja::ForObjectStatement</text>
<text xml:space="preserve" text-anchor="middle" x="85.25" y="-189.25" font-family="Helvetica,sans-Serif" font-size="10.00">Node::ForObjectStatementNode</text>
</a>
</g>
</g>
<!-- Node4&#45;&gt;Node6 -->
<g id="edge5_Node000004_Node000006" class="edge">
<title>Node4&#45;&gt;Node6</title>
<g id="a_edge5_Node000004_Node000006"><a xlink:title=" ">
<path fill="none" stroke="#63b8ff" d="M207.02,-214.69C195.19,-213.13 182.91,-211.51 170.91,-209.92"/>
<polygon fill="#63b8ff" stroke="#63b8ff" points="206.33,-218.13 216.7,-215.97 207.24,-211.19 206.33,-218.13"/>
</a>
</g>
</g>
</g>
</svg>
