<?xml version="1.0" encoding="UTF-8" standalone="no"?>
<!DOCTYPE svg PUBLIC "-//W3C//DTD SVG 1.1//EN"
 "http://www.w3.org/Graphics/SVG/1.1/DTD/svg11.dtd">
<!-- Generated by graphviz version 14.1.1 (0)
 -->
<!-- Title: anonymous_namespace{json&#45;validator.cpp}::logical_combination_error_handler Pages: 1 -->
<!--zoomable 895 -->

<svg id="main" version="1.1" xmlns="http://www.w3.org/2000/svg" xmlns:xlink="http://www.w3.org/1999/xlink" xml:space="preserve" onload="init(evt)">

<style type="text/css"><![CDATA[
.node, .edge {opacity: 0.7;}
.node.selected, .edge.selected {opacity: 1;}
.edge:hover path { stroke: red; }
.edge:hover polygon { stroke: red; fill: red; }
]]></style>

<defs>
  <circle id="rim" cx="0" cy="0" r="7"/>
  <circle id="rim2" cx="0" cy="0" r="3.5"/>
  <g id="zoomPlus">
    <use xlink:href="#rim" fill="#404040"><set attributeName="fill" to="#808080" begin="zoomplus.mouseover" end="zoomplus.mouseout"/></use>
    <path d="M-4,0h8M0,-4v8" fill="none" stroke="white" stroke-width="1.5" pointer-events="none"/>
  </g>
  <g id="zoomMin">
    <use xlink:href="#rim" fill="#404040"><set attributeName="fill" to="#808080" begin="zoomminus.mouseover" end="zoomminus.mouseout"/></use>
    <path d="M-4,0h8" fill="none" stroke="white" stroke-width="1.5" pointer-events="none"/>
  </g>
  <g id="arrowUp" transform="translate(30 24)">
    <use xlink:href="#rim"/>
    <path pointer-events="none" fill="none" stroke="white" stroke-width="1.5" d="M0,-3.0v7 M-2.5,-0.5L0,-3.0L2.5,-0.5"/>
  </g>
  <g id="arrowRight" transform="rotate(90) translate(36 -43)">
    <use xlink:href="#rim"/>
    <path pointer-events="none" fill="none" stroke="white" stroke-width="1.5" d="M0,-3.0v7 M-2.5,-0.5L0,-3.0L2.5,-0.5"/>
  </g>
  <g id="arrowDown" transform="rotate(180) translate(-30 -48)">
    <use xlink:href="#rim"/>
    <path pointer-events="none" fill="none" stroke="white" stroke-width="1.5" d="M0,-3.0v7 M-2.5,-0.5L0,-3.0L2.5,-0.5"/>
  </g>
  <g id="arrowLeft" transform="rotate(270) translate(-36 17)">
    <use xlink:href="#rim"/>
    <path pointer-events="none" fill="none" stroke="white" stroke-width="1.5" d="M0,-3.0v7 M-2.5,-0.5L0,-3.0L2.5,-0.5"/>
  </g>
  <g id="resetDef">
    <use xlink:href="#rim2" fill="#404040"><set attributeName="fill" to="#808080" begin="reset.mouseover" end="reset.mouseout"/></use>
  </g>
</defs>
<script type="application/ecmascript">
var viewWidth = 665;
var viewHeight = 895;
var sectionId = 'dynsection-1';
</script>
<script type="application/ecmascript" xlink:href="svg.min.js"/>
<svg id="graph" class="graph">
<g id="viewport">
<title>anonymous_namespace{json&#45;validator.cpp}::logical_combination_error_handler</title>
<!-- Node1 -->
<g id="Node000001" class="node">
<title>Node1</title>
<g id="a_Node000001"><a xlink:title=" ">
<polygon fill="#999999" stroke="none" points="126.5,-59 0,-59 0,0 126.5,0 126.5,-59"/>
<text xml:space="preserve" text-anchor="start" x="4" y="-45.5" font-family="Helvetica,sans-Serif" font-size="10.00">anonymous_namespace</text>
<text xml:space="preserve" text-anchor="start" x="4" y="-32.75" font-family="Helvetica,sans-Serif" font-size="10.00">{json&#45;validator.cpp}</text>
<text xml:space="preserve" text-anchor="start" x="4" y="-20" font-family="Helvetica,sans-Serif" font-size="10.00">::logical_combination</text>
<text xml:space="preserve" text-anchor="start" x="28" y="-7.25" font-family="Helvetica,sans-Serif" font-size="10.00">_error_handler</text>
<polygon fill="none" stroke="#666666" points="0,0 0,-59 126.5,-59 126.5,0 0,0"/>
</a>
</g>
</g>
<!-- Node2 -->
<g id="Node000002" class="node">
<title>Node2</title>
<g id="a_Node000002"><a xlink:href="classnlohmann_1_1json__schema_1_1error__handler.html" target="_top" xlink:title=" ">
<polygon fill="white" stroke="none" points="126.5,-160 0,-160 0,-126.5 126.5,-126.5 126.5,-160"/>
<text xml:space="preserve" text-anchor="start" x="4" y="-146.5" font-family="Helvetica,sans-Serif" font-size="10.00">nlohmann::json_schema</text>
<text xml:space="preserve" text-anchor="start" x="27.62" y="-133.75" font-family="Helvetica,sans-Serif" font-size="10.00">::error_handler</text>
<polygon fill="none" stroke="#666666" points="0,-126.5 0,-160 126.5,-160 126.5,-126.5 0,-126.5"/>
</a>
</g>
</g>
<!-- Node2&#45;&gt;Node1 -->
<g id="edge1_Node000001_Node000002" class="edge">
<title>Node2&#45;&gt;Node1</title>
<g id="a_edge1_Node000001_Node000002"><a xlink:title=" ">
<path fill="none" stroke="#63b8ff" d="M57.38,-115.29C56.24,-98.22 56.21,-76.16 57.29,-58.83"/>
<polygon fill="none" stroke="#63b8ff" points="53.89,-115.56 58.27,-125.2 60.86,-114.93 53.89,-115.56"/>
</a>
</g>
</g>
<!-- Node2&#45;&gt;Node1 -->
<g id="edge2_Node000001_Node000002" class="edge">
<title>Node2&#45;&gt;Node1</title>
<g id="a_edge2_Node000001_Node000002"><a xlink:title=" ">
<path fill="none" stroke="#63b8ff" d="M69.12,-115.29C70.26,-98.22 70.29,-76.16 69.21,-58.83"/>
<polygon fill="none" stroke="#63b8ff" points="65.64,-114.93 68.23,-125.2 72.61,-115.56 65.64,-114.93"/>
</a>
</g>
</g>
<!-- Node3 -->
<g id="Node000003" class="node">
<title>Node3</title>
<g id="a_Node000003"><a xlink:title=" ">
<polygon fill="white" stroke="none" points="313.88,-172.75 144.62,-172.75 144.62,-113.75 313.88,-113.75 313.88,-172.75"/>
<text xml:space="preserve" text-anchor="start" x="148.62" y="-159.25" font-family="Helvetica,sans-Serif" font-size="10.00">std::vector&lt; anonymous</text>
<text xml:space="preserve" text-anchor="start" x="148.62" y="-146.5" font-family="Helvetica,sans-Serif" font-size="10.00">_namespace{json&#45;validator.cpp}</text>
<text xml:space="preserve" text-anchor="start" x="148.62" y="-133.75" font-family="Helvetica,sans-Serif" font-size="10.00">::logical_combination_error</text>
<text xml:space="preserve" text-anchor="start" x="172.62" y="-121" font-family="Helvetica,sans-Serif" font-size="10.00">_handler::error_entry &gt;</text>
<polygon fill="none" stroke="#666666" points="144.62,-113.75 144.62,-172.75 313.88,-172.75 313.88,-113.75 144.62,-113.75"/>
</a>
</g>
</g>
<!-- Node3&#45;&gt;Node1 -->
<g id="edge3_Node000001_Node000003" class="edge">
<title>Node3&#45;&gt;Node1</title>
<g id="a_edge3_Node000001_Node000003"><a xlink:title=" ">
<path fill="none" stroke="#63b8ff" d="M186.93,-113.76C165.37,-99.25 138.94,-81.46 116.06,-66.05"/>
<polygon fill="none" stroke="#63b8ff" points="116.19,-66.14 108.98,-66.11 106.24,-59.44 113.45,-59.47 116.19,-66.14"/>
</a>
</g>
<text xml:space="preserve" text-anchor="start" x="159.19" y="-83.25" font-family="Helvetica,sans-Serif" font-size="10.00" fill="grey">+error_entry_list_</text>
</g>
<!-- Node4 -->
<g id="Node000004" class="node">
<title>Node4</title>
<g id="a_Node000004"><a xlink:href="classnlohmann_1_1json__schema_1_1json__validator.html" target="_top" xlink:title=" ">
<polygon fill="white" stroke="none" points="292.5,-261 166,-261 166,-227.5 292.5,-227.5 292.5,-261"/>
<text xml:space="preserve" text-anchor="start" x="170" y="-247.5" font-family="Helvetica,sans-Serif" font-size="10.00">nlohmann::json_schema</text>
<text xml:space="preserve" text-anchor="start" x="191.75" y="-234.75" font-family="Helvetica,sans-Serif" font-size="10.00">::json_validator</text>
<polygon fill="none" stroke="#666666" points="166,-227.5 166,-261 292.5,-261 292.5,-227.5 166,-227.5"/>
</a>
</g>
</g>
<!-- Node4&#45;&gt;Node3 -->
<g id="edge4_Node000003_Node000004" class="edge">
<title>Node4&#45;&gt;Node3</title>
<g id="a_edge4_Node000003_Node000004"><a xlink:title=" ">
<path fill="none" stroke="#63b8ff" d="M229.25,-227.78C229.25,-216.34 229.25,-200.2 229.25,-185.15"/>
<polygon fill="none" stroke="#63b8ff" points="229.25,-185.26 225.25,-179.26 229.25,-173.26 233.25,-179.26 229.25,-185.26"/>
</a>
</g>
<text xml:space="preserve" text-anchor="start" x="232.25" y="-197" font-family="Helvetica,sans-Serif" font-size="10.00" fill="grey">+elements</text>
</g>
<!-- Node5 -->
<g id="Node000005" class="node">
<title>Node5</title>
<g id="a_Node000005"><a xlink:title=" ">
<polygon fill="white" stroke="none" points="308.25,-349.25 150.25,-349.25 150.25,-315.75 308.25,-315.75 308.25,-349.25"/>
<text xml:space="preserve" text-anchor="start" x="154.25" y="-335.75" font-family="Helvetica,sans-Serif" font-size="10.00">std::unique_ptr&lt; nlohmann</text>
<text xml:space="preserve" text-anchor="start" x="154.25" y="-323" font-family="Helvetica,sans-Serif" font-size="10.00">::json_schema::root_schema &gt;</text>
<polygon fill="none" stroke="#666666" points="150.25,-315.75 150.25,-349.25 308.25,-349.25 308.25,-315.75 150.25,-315.75"/>
</a>
</g>
</g>
<!-- Node5&#45;&gt;Node4 -->
<g id="edge5_Node000004_Node000005" class="edge">
<title>Node5&#45;&gt;Node4</title>
<g id="a_edge5_Node000004_Node000005"><a xlink:title=" ">
<path fill="none" stroke="#63b8ff" d="M229.25,-316.08C229.25,-304.38 229.25,-287.96 229.25,-273.87"/>
<polygon fill="none" stroke="#63b8ff" points="229.25,-273.73 225.25,-267.73 229.25,-261.73 233.25,-267.73 229.25,-273.73"/>
</a>
</g>
<text xml:space="preserve" text-anchor="start" x="232.25" y="-285.25" font-family="Helvetica,sans-Serif" font-size="10.00" fill="grey">&#45;root_</text>
</g>
<!-- Node6 -->
<g id="Node000006" class="node">
<title>Node6</title>
<g id="a_Node000006"><a xlink:href="classnlohmann_1_1json__schema_1_1root__schema.html" target="_top" xlink:title=" ">
<polygon fill="white" stroke="none" points="292.5,-437.5 166,-437.5 166,-404 292.5,-404 292.5,-437.5"/>
<text xml:space="preserve" text-anchor="start" x="170" y="-424" font-family="Helvetica,sans-Serif" font-size="10.00">nlohmann::json_schema</text>
<text xml:space="preserve" text-anchor="start" x="194.75" y="-411.25" font-family="Helvetica,sans-Serif" font-size="10.00">::root_schema</text>
<polygon fill="none" stroke="#666666" points="166,-404 166,-437.5 292.5,-437.5 292.5,-404 166,-404"/>
</a>
</g>
</g>
<!-- Node6&#45;&gt;Node5 -->
<g id="edge6_Node000005_Node000006" class="edge">
<title>Node6&#45;&gt;Node5</title>
<g id="a_edge6_Node000005_Node000006"><a xlink:title=" ">
<path fill="none" stroke="#63b8ff" d="M229.25,-404.33C229.25,-392.63 229.25,-376.21 229.25,-362.12"/>
<polygon fill="none" stroke="#63b8ff" points="229.25,-361.98 225.25,-355.98 229.25,-349.98 233.25,-355.98 229.25,-361.98"/>
</a>
</g>
<text xml:space="preserve" text-anchor="start" x="232.25" y="-373.5" font-family="Helvetica,sans-Serif" font-size="10.00" fill="grey">+ptr</text>
</g>
<!-- Node7 -->
<g id="Node000007" class="node">
<title>Node7</title>
<g id="a_Node000007"><a xlink:title=" ">
<polygon fill="white" stroke="none" points="301,-809.62 159.5,-809.62 159.5,-788.88 301,-788.88 301,-809.62"/>
<text xml:space="preserve" text-anchor="start" x="163.5" y="-796.12" font-family="Helvetica,sans-Serif" font-size="10.00">std::shared_ptr&lt; schema &gt;</text>
<polygon fill="none" stroke="#666666" points="159.5,-788.88 159.5,-809.62 301,-809.62 301,-788.88 159.5,-788.88"/>
</a>
</g>
</g>
<!-- Node7&#45;&gt;Node6 -->
<g id="edge7_Node000006_Node000007" class="edge">
<title>Node7&#45;&gt;Node6</title>
<g id="a_edge7_Node000006_Node000007"><a xlink:title=" ">
<path fill="none" stroke="#63b8ff" d="M227.37,-788.89C222.52,-772.29 213.25,-736.53 213.25,-705.62 213.25,-705.62 213.25,-705.62 213.25,-514.38 213.25,-492.53 217.63,-468.2 221.8,-449.96"/>
<polygon fill="none" stroke="#63b8ff" points="221.82,-449.88 219.36,-443.1 224.66,-438.22 227.13,-444.99 221.82,-449.88"/>
</a>
</g>
<text xml:space="preserve" text-anchor="start" x="216.25" y="-606.88" font-family="Helvetica,sans-Serif" font-size="10.00" fill="grey">&#45;root_</text>
</g>
<!-- Node12 -->
<g id="Node000012" class="node">
<title>Node12</title>
<g id="a_Node000012"><a xlink:title=" ">
<polygon fill="white" stroke="none" points="505.12,-721.38 349.38,-721.38 349.38,-687.88 505.12,-687.88 505.12,-721.38"/>
<text xml:space="preserve" text-anchor="start" x="353.38" y="-707.88" font-family="Helvetica,sans-Serif" font-size="10.00">std::map&lt; std::string,</text>
<text xml:space="preserve" text-anchor="start" x="353.38" y="-695.12" font-family="Helvetica,sans-Serif" font-size="10.00"> std::shared_ptr&lt; schema &gt; &gt;</text>
<polygon fill="none" stroke="#666666" points="349.38,-687.88 349.38,-721.38 505.12,-721.38 505.12,-687.88 349.38,-687.88"/>
</a>
</g>
</g>
<!-- Node7&#45;&gt;Node12 -->
<g id="edge14_Node000012_Node000007" class="edge">
<title>Node7&#45;&gt;Node12</title>
<g id="a_edge14_Node000012_Node000007"><a xlink:title=" ">
<path fill="none" stroke="#63b8ff" d="M249.86,-789.03C280.51,-774.62 340.56,-746.38 382.26,-726.78"/>
<polygon fill="none" stroke="#63b8ff" points="382.34,-726.74 386.07,-720.57 393.2,-721.63 389.48,-727.81 382.34,-726.74"/>
</a>
</g>
<text xml:space="preserve" text-anchor="start" x="343.54" y="-752" font-family="Helvetica,sans-Serif" font-size="10.00" fill="grey">+elements</text>
</g>
<!-- Node8 -->
<g id="Node000008" class="node">
<title>Node8</title>
<g id="a_Node000008"><a xlink:title=" ">
<polygon fill="white" stroke="none" points="398,-538.5 244.5,-538.5 244.5,-492.25 398,-492.25 398,-538.5"/>
<text xml:space="preserve" text-anchor="start" x="248.5" y="-525" font-family="Helvetica,sans-Serif" font-size="10.00">std::map&lt; std::string,</text>
<text xml:space="preserve" text-anchor="start" x="248.5" y="-512.25" font-family="Helvetica,sans-Serif" font-size="10.00"> nlohmann::json_schema</text>
<text xml:space="preserve" text-anchor="start" x="248.5" y="-499.5" font-family="Helvetica,sans-Serif" font-size="10.00">::root_schema::schema_file &gt;</text>
<polygon fill="none" stroke="#666666" points="244.5,-492.25 244.5,-538.5 398,-538.5 398,-492.25 244.5,-492.25"/>
</a>
</g>
</g>
<!-- Node8&#45;&gt;Node6 -->
<g id="edge8_Node000006_Node000008" class="edge">
<title>Node8&#45;&gt;Node6</title>
<g id="a_edge8_Node000006_Node000008"><a xlink:title=" ">
<path fill="none" stroke="#63b8ff" d="M299.45,-492.42C285.8,-478.69 268.19,-460.96 254.02,-446.69"/>
<polygon fill="none" stroke="#63b8ff" points="253.95,-446.61 246.88,-445.17 245.49,-438.1 252.55,-439.54 253.95,-446.61"/>
</a>
</g>
<text xml:space="preserve" text-anchor="start" x="283.76" y="-461.75" font-family="Helvetica,sans-Serif" font-size="10.00" fill="grey">&#45;files_</text>
</g>
<!-- Node9 -->
<g id="Node000009" class="node">
<title>Node9</title>
<g id="a_Node000009"><a xlink:title=" ">
<polygon fill="white" stroke="none" points="455.62,-809.62 398.88,-809.62 398.88,-788.88 455.62,-788.88 455.62,-809.62"/>
<text xml:space="preserve" text-anchor="start" x="402.88" y="-796.12" font-family="Helvetica,sans-Serif" font-size="10.00">std::string</text>
<polygon fill="none" stroke="#666666" points="398.88,-788.88 398.88,-809.62 455.62,-809.62 455.62,-788.88 398.88,-788.88"/>
</a>
</g>
</g>
<!-- Node9&#45;&gt;Node8 -->
<g id="edge9_Node000008_Node000009" class="edge">
<title>Node9&#45;&gt;Node8</title>
<g id="a_edge9_Node000008_Node000009"><a xlink:title=" ">
<path fill="none" stroke="#63b8ff" d="M408.55,-789C387.89,-777.67 355.52,-756.4 340.25,-727.75 310.32,-671.59 312.13,-594.99 316.47,-551.1"/>
<polygon fill="none" stroke="#63b8ff" points="316.47,-551.15 313.16,-544.74 317.8,-539.22 321.11,-545.63 316.47,-551.15"/>
</a>
</g>
<text xml:space="preserve" text-anchor="start" x="322.12" y="-651" font-family="Helvetica,sans-Serif" font-size="10.00" fill="grey">+keys</text>
</g>
<!-- Node9&#45;&gt;Node12 -->
<g id="edge13_Node000012_Node000009" class="edge">
<title>Node9&#45;&gt;Node12</title>
<g id="a_edge13_Node000012_Node000009"><a xlink:title=" ">
<path fill="none" stroke="#63b8ff" d="M427.25,-789.03C427.25,-776.35 427.25,-752.97 427.25,-734.18"/>
<polygon fill="none" stroke="#63b8ff" points="427.25,-734.15 423.25,-728.15 427.25,-722.15 431.25,-728.15 427.25,-734.15"/>
</a>
</g>
<text xml:space="preserve" text-anchor="start" x="430.25" y="-752" font-family="Helvetica,sans-Serif" font-size="10.00" fill="grey">+keys</text>
</g>
<!-- Node13 -->
<g id="Node000013" class="node">
<title>Node13</title>
<g id="a_Node000013"><a xlink:title=" ">
<polygon fill="white" stroke="none" points="656.88,-727.75 523.62,-727.75 523.62,-681.5 656.88,-681.5 656.88,-727.75"/>
<text xml:space="preserve" text-anchor="start" x="527.62" y="-714.25" font-family="Helvetica,sans-Serif" font-size="10.00">std::map&lt; std::string,</text>
<text xml:space="preserve" text-anchor="start" x="527.62" y="-701.5" font-family="Helvetica,sans-Serif" font-size="10.00"> std::shared_ptr&lt; schema</text>
<text xml:space="preserve" text-anchor="start" x="569.62" y="-688.75" font-family="Helvetica,sans-Serif" font-size="10.00">_ref &gt; &gt;</text>
<polygon fill="none" stroke="#666666" points="523.62,-681.5 523.62,-727.75 656.88,-727.75 656.88,-681.5 523.62,-681.5"/>
</a>
</g>
</g>
<!-- Node9&#45;&gt;Node13 -->
<g id="edge16_Node000013_Node000009" class="edge">
<title>Node9&#45;&gt;Node13</title>
<g id="a_edge16_Node000013_Node000009"><a xlink:title=" ">
<path fill="none" stroke="#63b8ff" d="M443.47,-789.03C465.81,-776.34 507,-752.93 540.08,-734.14"/>
<polygon fill="none" stroke="#63b8ff" points="540.18,-734.08 543.42,-727.64 550.61,-728.15 547.37,-734.59 540.18,-734.08"/>
</a>
</g>
<text xml:space="preserve" text-anchor="start" x="521.51" y="-752" font-family="Helvetica,sans-Serif" font-size="10.00" fill="grey">+keys</text>
</g>
<!-- Node10 -->
<g id="Node000010" class="node">
<title>Node10</title>
<g id="a_Node000010"><a xlink:title=" ">
<polygon fill="white" stroke="none" points="475.12,-886.5 379.38,-886.5 379.38,-853 475.12,-853 475.12,-886.5"/>
<text xml:space="preserve" text-anchor="start" x="383.38" y="-873" font-family="Helvetica,sans-Serif" font-size="10.00">std::basic_string&lt;</text>
<text xml:space="preserve" text-anchor="start" x="408.88" y="-860.25" font-family="Helvetica,sans-Serif" font-size="10.00"> Char &gt;</text>
<polygon fill="none" stroke="#666666" points="379.38,-853 379.38,-886.5 475.12,-886.5 475.12,-853 379.38,-853"/>
</a>
</g>
</g>
<!-- Node10&#45;&gt;Node9 -->
<g id="edge10_Node000009_Node000010" class="edge">
<title>Node10&#45;&gt;Node9</title>
<g id="a_edge10_Node000009_Node000010"><a xlink:title=" ">
<path fill="none" stroke="#63b8ff" d="M427.25,-841.95C427.25,-830.53 427.25,-817.94 427.25,-809.62"/>
<polygon fill="none" stroke="#63b8ff" points="423.75,-841.69 427.25,-851.69 430.75,-841.69 423.75,-841.69"/>
</a>
</g>
</g>
<!-- Node11 -->
<g id="Node000011" class="node">
<title>Node11</title>
<g id="a_Node000011"><a xlink:href="structnlohmann_1_1json__schema_1_1root__schema_1_1schema__file.html" target="_top" xlink:title=" ">
<polygon fill="white" stroke="none" points="498.38,-626.75 356.12,-626.75 356.12,-593.25 498.38,-593.25 498.38,-626.75"/>
<text xml:space="preserve" text-anchor="start" x="360.12" y="-613.25" font-family="Helvetica,sans-Serif" font-size="10.00">nlohmann::json_schema</text>
<text xml:space="preserve" text-anchor="start" x="360.12" y="-600.5" font-family="Helvetica,sans-Serif" font-size="10.00">::root_schema::schema_file</text>
<polygon fill="none" stroke="#666666" points="356.12,-593.25 356.12,-626.75 498.38,-626.75 498.38,-593.25 356.12,-593.25"/>
</a>
</g>
</g>
<!-- Node11&#45;&gt;Node8 -->
<g id="edge11_Node000008_Node000011" class="edge">
<title>Node11&#45;&gt;Node8</title>
<g id="a_edge11_Node000008_Node000011"><a xlink:title=" ">
<path fill="none" stroke="#63b8ff" d="M409.27,-593.29C394.72,-580.57 373.79,-562.28 355.99,-546.73"/>
<polygon fill="none" stroke="#63b8ff" points="356.2,-546.91 349.05,-545.98 347.16,-539.02 354.31,-539.95 356.2,-546.91"/>
</a>
</g>
<text xml:space="preserve" text-anchor="start" x="389.86" y="-562.75" font-family="Helvetica,sans-Serif" font-size="10.00" fill="grey">+elements</text>
</g>
<!-- Node12&#45;&gt;Node11 -->
<g id="edge12_Node000011_Node000012" class="edge">
<title>Node12&#45;&gt;Node11</title>
<g id="a_edge12_Node000011_Node000012"><a xlink:title=" ">
<path fill="none" stroke="#63b8ff" d="M427.25,-687.91C427.25,-674.66 427.25,-655.35 427.25,-639.4"/>
<polygon fill="none" stroke="#63b8ff" points="427.25,-639.38 423.25,-633.38 427.25,-627.38 431.25,-633.38 427.25,-639.38"/>
</a>
</g>
<text xml:space="preserve" text-anchor="start" x="430.25" y="-651" font-family="Helvetica,sans-Serif" font-size="10.00" fill="grey">+schemas</text>
</g>
<!-- Node13&#45;&gt;Node11 -->
<g id="edge15_Node000011_Node000013" class="edge">
<title>Node13&#45;&gt;Node11</title>
<g id="a_edge15_Node000011_Node000013"><a xlink:title=" ">
<path fill="none" stroke="#63b8ff" d="M552.99,-681.55C533.99,-670.39 510.47,-656.71 489.25,-644.75 482.33,-640.85 474.93,-636.76 467.75,-632.83"/>
<polygon fill="none" stroke="#63b8ff" points="467.69,-632.79 460.51,-633.44 457.16,-627.05 464.34,-626.41 467.69,-632.79"/>
</a>
</g>
<text xml:space="preserve" text-anchor="start" x="522.94" y="-651" font-family="Helvetica,sans-Serif" font-size="10.00" fill="grey">+unresolved</text>
</g>
<!-- Node14 -->
<g id="Node000014" class="node">
<title>Node14</title>
<g id="a_Node000014"><a xlink:title=" ">
<polygon fill="white" stroke="none" points="655.38,-816 525.12,-816 525.12,-782.5 655.38,-782.5 655.38,-816"/>
<text xml:space="preserve" text-anchor="start" x="529.12" y="-802.5" font-family="Helvetica,sans-Serif" font-size="10.00">std::shared_ptr&lt; schema</text>
<text xml:space="preserve" text-anchor="start" x="575.25" y="-789.75" font-family="Helvetica,sans-Serif" font-size="10.00">_ref &gt;</text>
<polygon fill="none" stroke="#666666" points="525.12,-782.5 525.12,-816 655.38,-816 655.38,-782.5 525.12,-782.5"/>
</a>
</g>
</g>
<!-- Node14&#45;&gt;Node13 -->
<g id="edge17_Node000013_Node000014" class="edge">
<title>Node14&#45;&gt;Node13</title>
<g id="a_edge17_Node000013_Node000014"><a xlink:title=" ">
<path fill="none" stroke="#63b8ff" d="M590.25,-782.54C590.25,-771 590.25,-754.87 590.25,-740.36"/>
<polygon fill="none" stroke="#63b8ff" points="590.25,-740.58 586.25,-734.58 590.25,-728.58 594.25,-734.58 590.25,-740.58"/>
</a>
</g>
<text xml:space="preserve" text-anchor="start" x="593.25" y="-752" font-family="Helvetica,sans-Serif" font-size="10.00" fill="grey">+elements</text>
</g>
</g>
</svg>

<g id="navigator" transform="translate(0 0)" fill="#404254">
  <rect fill="#f2f5e9" fill-opacity="0.5" stroke="#606060" stroke-width=".5" x="0" y="0" width="60" height="60"/>
  <use id="zoomplus" xlink:href="#zoomPlus" x="17" y="9" onmousedown="handleZoom(evt,'in')"/>
  <use id="zoomminus" xlink:href="#zoomMin" x="42" y="9" onmousedown="handleZoom(evt,'out')"/>
  <use id="reset" xlink:href="#resetDef" x="30" y="36" onmousedown="handleReset()"/>
   <use id="arrowup" xlink:href="#arrowUp" x="0" y="0" onmousedown="handlePan(0,-1)"/>
  <use id="arrowright" xlink:href="#arrowRight" x="0" y="0" onmousedown="handlePan(1,0)"/>
  <use id="arrowdown" xlink:href="#arrowDown" x="0" y="0" onmousedown="handlePan(0,1)"/>
  <use id="arrowleft" xlink:href="#arrowLeft" x="0" y="0" onmousedown="handlePan(-1,0)"/>
</g>
<svg viewBox="0 0 15 15" width="100%" height="30px" preserveAspectRatio="xMaxYMin meet">
 <g id="arrow_out" transform="scale(0.3 0.3)">
  <a xlink:href="classanonymous__namespace_02json-validator_8cpp_03_1_1logical__combination__error__handler__coll__graph_org.svg" target="_base">
   <rect id="button" ry="5" rx="5" y="6" x="6" height="38" width="38"
        fill="#f2f5e9" fill-opacity="0.5" stroke="#606060" stroke-width="1.0"/>
   <path id="arrow"
     d="M 11.500037,31.436501 C 11.940474,20.09759 22.043105,11.32322 32.158766,21.979434 L 37.068811,17.246167 C 37.068811,17.246167 37.088388,32 37.088388,32 L 22.160133,31.978069 C 22.160133,31.978069 26.997745,27.140456 26.997745,27.140456 C 18.528582,18.264221 13.291696,25.230495 11.500037,31.436501 z"
     style="fill:#404040;"/>
  </a>
 </g>
</svg>

<style type='text/css'>
<![CDATA[
[data-mouse-over-selected='false'] { opacity: 0.7; }
[data-mouse-over-selected='true']  { opacity: 1.0; }
]]>
</style>
<script type="application/ecmascript"><![CDATA[
document.addEventListener('DOMContentLoaded', (event) => {
  highlightEdges();
  highlightAdjacentNodes();
});
]]></script>
</svg>
