<?xml version="1.0" encoding="UTF-8" standalone="no"?>
<!DOCTYPE svg PUBLIC "-//W3C//DTD SVG 1.1//EN"
 "http://www.w3.org/Graphics/SVG/1.1/DTD/svg11.dtd">
<!-- Generated by graphviz version 2.42.4 (0)
 -->
<!-- Title: inja::ForObjectStatementNode Pages: 1 -->
<svg width="458pt" height="420pt"
 viewBox="0.00 0.00 458.00 420.00" xmlns="http://www.w3.org/2000/svg" xmlns:xlink="http://www.w3.org/1999/xlink">
<g id="graph0" class="graph" transform="scale(1 1) rotate(0) translate(4 416)">
<title>inja::ForObjectStatementNode</title>
<!-- Node1 -->
<g id="Node000001" class="node">
<title>Node1</title>
<g id="a_Node000001"><a xlink:title=" ">
<polygon fill="#999999" stroke="transparent" points="361,-19 205,-19 205,0 361,0 361,-19"/>
<text text-anchor="start" x="209" y="-6.5" font-family="Helvetica,sans-Serif" font-size="10.00">inja::ForObjectStatementNode</text>
<polygon fill="none" stroke="#666666" points="205,0 205,-19 361,-19 361,0 205,0"/>
</a>
</g>
</g>
<!-- Node2 -->
<g id="Node000002" class="node">
<title>Node2</title>
<g id="a_Node000002"><a xlink:href="classinja_1_1ForStatementNode.html" target="_top" xlink:title=" ">
<polygon fill="white" stroke="transparent" points="291,-96 167,-96 167,-77 291,-77 291,-96"/>
<text text-anchor="start" x="171" y="-83.5" font-family="Helvetica,sans-Serif" font-size="10.00">inja::ForStatementNode</text>
<polygon fill="none" stroke="#666666" points="167,-77 167,-96 291,-96 291,-77 167,-77"/>
</a>
</g>
</g>
<!-- Node2&#45;&gt;Node1 -->
<g id="edge1_Node000001_Node000002" class="edge">
<title>Node2&#45;&gt;Node1</title>
<g id="a_edge1_Node000001_Node000002"><a xlink:title=" ">
<path fill="none" stroke="#63b8ff" d="M241.07,-68.73C252.18,-53.3 268.21,-31.04 276.88,-19"/>
<polygon fill="none" stroke="#63b8ff" points="238.2,-66.74 235.19,-76.9 243.88,-70.83 238.2,-66.74"/>
</a>
</g>
</g>
<!-- Node3 -->
<g id="Node000003" class="node">
<title>Node3</title>
<g id="a_Node000003"><a xlink:href="classinja_1_1StatementNode.html" target="_top" xlink:title=" ">
<polygon fill="white" stroke="transparent" points="110,-298 0,-298 0,-279 110,-279 110,-298"/>
<text text-anchor="start" x="4.5" y="-285.5" font-family="Helvetica,sans-Serif" font-size="10.00">inja::StatementNode</text>
<polygon fill="none" stroke="#666666" points="0,-279 0,-298 110,-298 110,-279 0,-279"/>
</a>
</g>
</g>
<!-- Node3&#45;&gt;Node2 -->
<g id="edge2_Node000002_Node000003" class="edge">
<title>Node3&#45;&gt;Node2</title>
<g id="a_edge2_Node000002_Node000003"><a xlink:title=" ">
<path fill="none" stroke="#63b8ff" d="M55.64,-268.89C57.53,-240.88 64.87,-187.63 93,-154 118.89,-123.06 162.63,-105.31 193.5,-96.06"/>
<polygon fill="none" stroke="#63b8ff" points="52.14,-268.74 55.13,-278.9 59.13,-269.1 52.14,-268.74"/>
</a>
</g>
</g>
<!-- Node4 -->
<g id="Node000004" class="node">
<title>Node4</title>
<g id="a_Node000004"><a xlink:href="classinja_1_1AstNode.html" target="_top" xlink:title="Base node class for the abstract syntax tree (AST).">
<polygon fill="white" stroke="transparent" points="246,-412 172,-412 172,-393 246,-393 246,-412"/>
<text text-anchor="start" x="176" y="-399.5" font-family="Helvetica,sans-Serif" font-size="10.00">inja::AstNode</text>
<polygon fill="none" stroke="#666666" points="172,-393 172,-412 246,-412 246,-393 172,-393"/>
</a>
</g>
</g>
<!-- Node4&#45;&gt;Node3 -->
<g id="edge3_Node000003_Node000004" class="edge">
<title>Node4&#45;&gt;Node3</title>
<g id="a_edge3_Node000003_Node000004"><a xlink:title=" ">
<path fill="none" stroke="#63b8ff" d="M161.9,-395.91C144.67,-392.11 125.79,-385.73 111,-375 82.85,-354.58 64.98,-315.31 58.15,-298.02"/>
<polygon fill="none" stroke="#63b8ff" points="161.33,-399.37 171.81,-397.86 162.68,-392.5 161.33,-399.37"/>
</a>
</g>
</g>
<!-- Node5 -->
<g id="Node000005" class="node">
<title>Node5</title>
<g id="a_Node000005"><a xlink:href="classinja_1_1ExpressionListNode.html" target="_top" xlink:title=" ">
<polygon fill="white" stroke="transparent" points="232,-178.5 102,-178.5 102,-159.5 232,-159.5 232,-178.5"/>
<text text-anchor="start" x="106.5" y="-166" font-family="Helvetica,sans-Serif" font-size="10.00">inja::ExpressionListNode</text>
<polygon fill="none" stroke="#666666" points="102,-159.5 102,-178.5 232,-178.5 232,-159.5 102,-159.5"/>
</a>
</g>
</g>
<!-- Node4&#45;&gt;Node5 -->
<g id="edge5_Node000005_Node000004" class="edge">
<title>Node4&#45;&gt;Node5</title>
<g id="a_edge5_Node000005_Node000004"><a xlink:title=" ">
<path fill="none" stroke="#63b8ff" d="M183.69,-387.5C169.14,-377.92 152.18,-363.74 144,-346 116.65,-286.67 150.37,-204.91 162.77,-178.55"/>
<polygon fill="none" stroke="#63b8ff" points="181.99,-390.56 192.33,-392.86 185.68,-384.62 181.99,-390.56"/>
</a>
</g>
</g>
<!-- Node7 -->
<g id="Node000007" class="node">
<title>Node7</title>
<g id="a_Node000007"><a xlink:href="classinja_1_1ExpressionNode.html" target="_top" xlink:title=" ">
<polygon fill="white" stroke="transparent" points="265,-340.5 153,-340.5 153,-321.5 265,-321.5 265,-340.5"/>
<text text-anchor="start" x="157.5" y="-328" font-family="Helvetica,sans-Serif" font-size="10.00">inja::ExpressionNode</text>
<polygon fill="none" stroke="#666666" points="153,-321.5 153,-340.5 265,-340.5 265,-321.5 153,-321.5"/>
</a>
</g>
</g>
<!-- Node4&#45;&gt;Node7 -->
<g id="edge8_Node000007_Node000004" class="edge">
<title>Node4&#45;&gt;Node7</title>
<g id="a_edge8_Node000007_Node000004"><a xlink:title=" ">
<path fill="none" stroke="#63b8ff" d="M209,-382.71C209,-369 209,-351.05 209,-340.59"/>
<polygon fill="none" stroke="#63b8ff" points="205.5,-382.98 209,-392.98 212.5,-382.98 205.5,-382.98"/>
</a>
</g>
</g>
<!-- Node8 -->
<g id="Node000008" class="node">
<title>Node8</title>
<g id="a_Node000008"><a xlink:href="classinja_1_1BlockNode.html" target="_top" xlink:title=" ">
<polygon fill="white" stroke="transparent" points="336,-178.5 250,-178.5 250,-159.5 336,-159.5 336,-178.5"/>
<text text-anchor="start" x="254.5" y="-166" font-family="Helvetica,sans-Serif" font-size="10.00">inja::BlockNode</text>
<polygon fill="none" stroke="#666666" points="250,-159.5 250,-178.5 336,-178.5 336,-159.5 250,-159.5"/>
</a>
</g>
</g>
<!-- Node4&#45;&gt;Node8 -->
<g id="edge10_Node000008_Node000004" class="edge">
<title>Node4&#45;&gt;Node8</title>
<g id="a_edge10_Node000008_Node000004"><a xlink:title=" ">
<path fill="none" stroke="#63b8ff" d="M233.11,-387.53C247.52,-377.82 264.76,-363.5 274,-346 304.42,-288.38 297.49,-205.5 294.21,-178.7"/>
<polygon fill="none" stroke="#63b8ff" points="231.14,-384.64 224.6,-392.97 234.91,-390.53 231.14,-384.64"/>
</a>
</g>
</g>
<!-- Node10 -->
<g id="Node000010" class="node">
<title>Node10</title>
<g id="a_Node000010"><a xlink:title=" ">
<polygon fill="white" stroke="transparent" points="436,-346 324,-346 324,-316 436,-316 436,-346"/>
<text text-anchor="start" x="328.5" y="-334" font-family="Helvetica,sans-Serif" font-size="10.00">std::shared_ptr&lt; inja</text>
<text text-anchor="start" x="350.5" y="-323" font-family="Helvetica,sans-Serif" font-size="10.00">::AstNode &gt;</text>
<polygon fill="none" stroke="#666666" points="324,-316 324,-346 436,-346 436,-316 324,-316"/>
</a>
</g>
</g>
<!-- Node4&#45;&gt;Node10 -->
<g id="edge13_Node000010_Node000004" class="edge">
<title>Node4&#45;&gt;Node10</title>
<g id="a_edge13_Node000010_Node000004"><a xlink:title=" ">
<path fill="none" stroke="#63b8ff" d="M246.08,-393.95C264.75,-389.54 287.5,-383.2 307,-375 321.37,-368.96 336.35,-360.55 348.97,-352.77"/>
<polygon fill="none" stroke="#63b8ff" points="349.25,-352.59 352.17,-346 359.38,-346.17 356.46,-352.76 349.25,-352.59"/>
</a>
</g>
<text text-anchor="middle" x="339.5" y="-367" font-family="Helvetica,sans-Serif" font-size="10.00" fill="grey"> +ptr</text>
</g>
<!-- Node5&#45;&gt;Node2 -->
<g id="edge4_Node000002_Node000005" class="edge">
<title>Node5&#45;&gt;Node2</title>
<g id="a_edge4_Node000002_Node000005"><a xlink:title=" ">
<path fill="none" stroke="#63b8ff" d="M171.91,-159.18C178.22,-148.14 189.84,-128.88 202,-114 204.62,-110.8 207.58,-107.56 210.56,-104.51"/>
<polygon fill="none" stroke="#63b8ff" points="210.62,-104.46 212.14,-97.41 219.23,-96.1 217.71,-103.15 210.62,-104.46"/>
</a>
</g>
<text text-anchor="middle" x="230.5" y="-122.5" font-family="Helvetica,sans-Serif" font-size="10.00" fill="grey"> +condition</text>
</g>
<!-- Node6 -->
<g id="Node000006" class="node">
<title>Node6</title>
<g id="a_Node000006"><a xlink:title=" ">
<polygon fill="white" stroke="transparent" points="265,-261 153,-261 153,-231 265,-231 265,-261"/>
<text text-anchor="start" x="157.5" y="-249" font-family="Helvetica,sans-Serif" font-size="10.00">std::shared_ptr&lt; inja</text>
<text text-anchor="start" x="160.5" y="-238" font-family="Helvetica,sans-Serif" font-size="10.00">::ExpressionNode &gt;</text>
<polygon fill="none" stroke="#666666" points="153,-231 153,-261 265,-261 265,-231 153,-231"/>
</a>
</g>
</g>
<!-- Node6&#45;&gt;Node5 -->
<g id="edge6_Node000005_Node000006" class="edge">
<title>Node6&#45;&gt;Node5</title>
<g id="a_edge6_Node000005_Node000006"><a xlink:title=" ">
<path fill="none" stroke="#63b8ff" d="M201.1,-230.89C194.55,-219.2 185.17,-202.45 177.91,-189.47"/>
<polygon fill="none" stroke="#63b8ff" points="177.83,-189.34 171.41,-186.06 171.97,-178.87 178.39,-182.16 177.83,-189.34"/>
</a>
</g>
<text text-anchor="middle" x="206.5" y="-205" font-family="Helvetica,sans-Serif" font-size="10.00" fill="grey"> +root</text>
</g>
<!-- Node7&#45;&gt;Node6 -->
<g id="edge7_Node000006_Node000007" class="edge">
<title>Node7&#45;&gt;Node6</title>
<g id="a_edge7_Node000006_Node000007"><a xlink:title=" ">
<path fill="none" stroke="#63b8ff" d="M209,-321.43C209,-310.19 209,-289.95 209,-273.41"/>
<polygon fill="none" stroke="#63b8ff" points="209,-273.18 205,-267.18 209,-261.18 213,-267.18 209,-273.18"/>
</a>
</g>
<text text-anchor="middle" x="221.5" y="-286" font-family="Helvetica,sans-Serif" font-size="10.00" fill="grey"> +ptr</text>
</g>
<!-- Node8&#45;&gt;Node2 -->
<g id="edge9_Node000002_Node000008" class="edge">
<title>Node8&#45;&gt;Node2</title>
<g id="a_edge9_Node000002_Node000008"><a xlink:title=" ">
<path fill="none" stroke="#63b8ff" d="M288.61,-159.45C282.71,-148.36 271.49,-128.69 259,-114 256.12,-110.61 252.81,-107.27 249.46,-104.15"/>
<polygon fill="none" stroke="#63b8ff" points="249.3,-104.01 242.15,-103.09 240.25,-96.13 247.4,-97.06 249.3,-104.01"/>
</a>
</g>
<text text-anchor="middle" x="294" y="-128" font-family="Helvetica,sans-Serif" font-size="10.00" fill="grey"> +body</text>
<text text-anchor="middle" x="294" y="-117" font-family="Helvetica,sans-Serif" font-size="10.00" fill="grey">+parent</text>
</g>
<!-- Node9 -->
<g id="Node000009" class="node">
<title>Node9</title>
<g id="a_Node000009"><a xlink:title=" ">
<polygon fill="white" stroke="transparent" points="447,-261 321,-261 321,-231 447,-231 447,-261"/>
<text text-anchor="start" x="325" y="-249" font-family="Helvetica,sans-Serif" font-size="10.00">std::vector&lt; std::shared</text>
<text text-anchor="start" x="325" y="-238" font-family="Helvetica,sans-Serif" font-size="10.00">_ptr&lt; inja::AstNode &gt; &gt;</text>
<polygon fill="none" stroke="#666666" points="321,-231 321,-261 447,-261 447,-231 321,-231"/>
</a>
</g>
</g>
<!-- Node9&#45;&gt;Node8 -->
<g id="edge11_Node000008_Node000009" class="edge">
<title>Node9&#45;&gt;Node8</title>
<g id="a_edge11_Node000008_Node000009"><a xlink:title=" ">
<path fill="none" stroke="#63b8ff" d="M366.88,-230.89C351.59,-218.29 329.19,-199.82 313.06,-186.53"/>
<polygon fill="none" stroke="#63b8ff" points="312.77,-186.29 305.6,-185.56 303.51,-178.66 310.68,-179.39 312.77,-186.29"/>
</a>
</g>
<text text-anchor="middle" x="363.5" y="-205" font-family="Helvetica,sans-Serif" font-size="10.00" fill="grey"> +nodes</text>
</g>
<!-- Node10&#45;&gt;Node9 -->
<g id="edge12_Node000009_Node000010" class="edge">
<title>Node10&#45;&gt;Node9</title>
<g id="a_edge12_Node000009_Node000010"><a xlink:title=" ">
<path fill="none" stroke="#63b8ff" d="M380.68,-315.92C381.24,-304.23 382.06,-287.3 382.74,-273.14"/>
<polygon fill="none" stroke="#63b8ff" points="382.74,-273.13 379.03,-266.95 383.32,-261.15 387.02,-267.33 382.74,-273.13"/>
</a>
</g>
<text text-anchor="middle" x="411" y="-286" font-family="Helvetica,sans-Serif" font-size="10.00" fill="grey"> +elements</text>
</g>
<!-- Node11 -->
<g id="Node000011" class="node">
<title>Node11</title>
<g id="a_Node000011"><a xlink:title=" ">
<polygon fill="white" stroke="transparent" points="404,-96 346,-96 346,-77 404,-77 404,-96"/>
<text text-anchor="start" x="350.5" y="-83.5" font-family="Helvetica,sans-Serif" font-size="10.00">std::string</text>
<polygon fill="none" stroke="#666666" points="346,-77 346,-96 404,-96 404,-77 346,-77"/>
</a>
</g>
</g>
<!-- Node11&#45;&gt;Node1 -->
<g id="edge14_Node000001_Node000011" class="edge">
<title>Node11&#45;&gt;Node1</title>
<g id="a_edge14_Node000001_Node000011"><a xlink:title=" ">
<path fill="none" stroke="#63b8ff" d="M364.45,-76.9C349.47,-64.69 321.78,-42.12 302.89,-26.71"/>
<polygon fill="none" stroke="#63b8ff" points="302.73,-26.59 295.55,-25.89 293.43,-19 300.61,-19.69 302.73,-26.59"/>
</a>
</g>
<text text-anchor="middle" x="357" y="-51" font-family="Helvetica,sans-Serif" font-size="10.00" fill="grey"> +key</text>
<text text-anchor="middle" x="357" y="-40" font-family="Helvetica,sans-Serif" font-size="10.00" fill="grey">+value</text>
</g>
<!-- Node12 -->
<g id="Node000012" class="node">
<title>Node12</title>
<g id="a_Node000012"><a xlink:title=" ">
<polygon fill="white" stroke="transparent" points="450,-184 354,-184 354,-154 450,-154 450,-184"/>
<text text-anchor="start" x="358" y="-172" font-family="Helvetica,sans-Serif" font-size="10.00">std::basic_string&lt;</text>
<text text-anchor="start" x="383.5" y="-161" font-family="Helvetica,sans-Serif" font-size="10.00"> Char &gt;</text>
<polygon fill="none" stroke="#666666" points="354,-154 354,-184 450,-184 450,-154 354,-154"/>
</a>
</g>
</g>
<!-- Node12&#45;&gt;Node11 -->
<g id="edge15_Node000011_Node000012" class="edge">
<title>Node12&#45;&gt;Node11</title>
<g id="a_edge15_Node000011_Node000012"><a xlink:title=" ">
<path fill="none" stroke="#63b8ff" d="M394,-144.16C388.61,-128.09 381.81,-107.81 377.98,-96.38"/>
<polygon fill="none" stroke="#63b8ff" points="390.8,-145.61 397.3,-153.98 397.44,-143.38 390.8,-145.61"/>
</a>
</g>
</g>
</g>
</svg>
