<?xml version="1.0" encoding="UTF-8" standalone="no"?>
<!DOCTYPE svg PUBLIC "-//W3C//DTD SVG 1.1//EN"
 "http://www.w3.org/Graphics/SVG/1.1/DTD/svg11.dtd">
<!-- Generated by graphviz version 2.42.4 (0)
 -->
<!-- Title: inja::Renderer::eval_expression_list Pages: 1 -->
<svg width="614pt" height="126pt"
 viewBox="0.00 0.00 614.00 126.00" xmlns="http://www.w3.org/2000/svg" xmlns:xlink="http://www.w3.org/1999/xlink">
<g id="graph0" class="graph" transform="scale(1 1) rotate(0) translate(4 122)">
<title>inja::Renderer::eval_expression_list</title>
<!-- Node1 -->
<g id="Node000001" class="node">
<title>Node1</title>
<g id="a_Node000001"><a xlink:title=" ">
<polygon fill="#999999" stroke="#666666" points="112,-94 0,-94 0,-64 112,-64 112,-94"/>
<text text-anchor="start" x="8" y="-82" font-family="Helvetica,sans-Serif" font-size="10.00">inja::Renderer::eval</text>
<text text-anchor="middle" x="56" y="-71" font-family="Helvetica,sans-Serif" font-size="10.00">_expression_list</text>
</a>
</g>
</g>
<!-- Node2 -->
<g id="Node000002" class="node">
<title>Node2</title>
<g id="a_Node000002"><a xlink:href="classinja_1_1ExpressionNode.html#a67372edaf18af67e3c3ed0649323d829" target="_top" xlink:title=" ">
<polygon fill="white" stroke="#666666" points="267,-118 148,-118 148,-88 267,-88 267,-118"/>
<text text-anchor="start" x="156" y="-106" font-family="Helvetica,sans-Serif" font-size="10.00">inja::ExpressionNode</text>
<text text-anchor="middle" x="207.5" y="-95" font-family="Helvetica,sans-Serif" font-size="10.00">::accept</text>
</a>
</g>
</g>
<!-- Node1&#45;&gt;Node2 -->
<g id="edge1_Node000001_Node000002" class="edge">
<title>Node1&#45;&gt;Node2</title>
<g id="a_edge1_Node000001_Node000002"><a xlink:title=" ">
<path fill="none" stroke="#63b8ff" d="M112.24,-87.87C120.61,-89.21 129.33,-90.61 137.94,-91.99"/>
<polygon fill="#63b8ff" stroke="#63b8ff" points="137.54,-95.48 147.97,-93.6 138.65,-88.56 137.54,-95.48"/>
</a>
</g>
</g>
<!-- Node4 -->
<g id="Node000004" class="node">
<title>Node4</title>
<g id="a_Node000004"><a xlink:href="classinja_1_1Renderer.html#a30be8e7c30b1780ae45a5aa34aae98de" target="_top" xlink:title=" ">
<polygon fill="white" stroke="#666666" points="267,-70 148,-70 148,-40 267,-40 267,-70"/>
<text text-anchor="start" x="156" y="-58" font-family="Helvetica,sans-Serif" font-size="10.00">inja::Renderer::throw</text>
<text text-anchor="middle" x="207.5" y="-47" font-family="Helvetica,sans-Serif" font-size="10.00">_renderer_error</text>
</a>
</g>
</g>
<!-- Node1&#45;&gt;Node4 -->
<g id="edge3_Node000001_Node000004" class="edge">
<title>Node1&#45;&gt;Node4</title>
<g id="a_edge3_Node000001_Node000004"><a xlink:title=" ">
<path fill="none" stroke="#63b8ff" d="M112.24,-70.13C120.61,-68.79 129.33,-67.39 137.94,-66.01"/>
<polygon fill="#63b8ff" stroke="#63b8ff" points="138.65,-69.44 147.97,-64.4 137.54,-62.52 138.65,-69.44"/>
</a>
</g>
</g>
<!-- Node3 -->
<g id="Node000003" class="node">
<title>Node3</title>
<g id="a_Node000003"><a xlink:href="classinja_1_1NodeVisitor.html#ac1487c93e9e91cba1bf57741842ba6d3" target="_top" xlink:title=" ">
<polygon fill="white" stroke="#666666" points="424,-118 320,-118 320,-88 424,-88 424,-118"/>
<text text-anchor="start" x="328" y="-106" font-family="Helvetica,sans-Serif" font-size="10.00">inja::NodeVisitor::</text>
<text text-anchor="middle" x="372" y="-95" font-family="Helvetica,sans-Serif" font-size="10.00">visit</text>
</a>
</g>
</g>
<!-- Node2&#45;&gt;Node3 -->
<g id="edge2_Node000002_Node000003" class="edge">
<title>Node2&#45;&gt;Node3</title>
<g id="a_edge2_Node000002_Node000003"><a xlink:title=" ">
<path fill="none" stroke="#63b8ff" d="M267.17,-103C281.07,-103 295.92,-103 309.93,-103"/>
<polygon fill="#63b8ff" stroke="#63b8ff" points="309.95,-106.5 319.95,-103 309.95,-99.5 309.95,-106.5"/>
</a>
</g>
</g>
<!-- Node5 -->
<g id="Node000005" class="node">
<title>Node5</title>
<g id="a_Node000005"><a xlink:href="namespaceinja.html#ab7c8c54f2caeb72095cd78a7ff7b6c37" target="_top" xlink:title=" ">
<polygon fill="white" stroke="#666666" points="441,-67.5 303,-67.5 303,-48.5 441,-48.5 441,-67.5"/>
<text text-anchor="middle" x="372" y="-55.5" font-family="Helvetica,sans-Serif" font-size="10.00">inja::get_source_location</text>
</a>
</g>
</g>
<!-- Node4&#45;&gt;Node5 -->
<g id="edge4_Node000004_Node000005" class="edge">
<title>Node4&#45;&gt;Node5</title>
<g id="a_edge4_Node000004_Node000005"><a xlink:title=" ">
<path fill="none" stroke="#63b8ff" d="M267.17,-56.08C275.46,-56.24 284.1,-56.4 292.7,-56.55"/>
<polygon fill="#63b8ff" stroke="#63b8ff" points="292.68,-60.05 302.75,-56.74 292.81,-53.06 292.68,-60.05"/>
</a>
</g>
</g>
<!-- Node7 -->
<g id="Node000007" class="node">
<title>Node7</title>
<g id="a_Node000007"><a xlink:href="structinja_1_1RenderError.html#a24568cf50805c33dec821fb1edfb02f5" target="_top" xlink:title=" ">
<polygon fill="white" stroke="#666666" points="424,-30 320,-30 320,0 424,0 424,-30"/>
<text text-anchor="start" x="328" y="-18" font-family="Helvetica,sans-Serif" font-size="10.00">inja::RenderError::</text>
<text text-anchor="middle" x="372" y="-7" font-family="Helvetica,sans-Serif" font-size="10.00">RenderError</text>
</a>
</g>
</g>
<!-- Node4&#45;&gt;Node7 -->
<g id="edge6_Node000004_Node000007" class="edge">
<title>Node4&#45;&gt;Node7</title>
<g id="a_edge6_Node000004_Node000007"><a xlink:title=" ">
<path fill="none" stroke="#63b8ff" d="M267.17,-40.56C281.07,-37.14 295.92,-33.48 309.93,-30.03"/>
<polygon fill="#63b8ff" stroke="#63b8ff" points="311.07,-33.36 319.95,-27.57 309.4,-26.56 311.07,-33.36"/>
</a>
</g>
</g>
<!-- Node6 -->
<g id="Node000006" class="node">
<title>Node6</title>
<g id="a_Node000006"><a xlink:href="namespaceinja_1_1string__view.html#a898871016595d8f34d1b4ea55b3e8684" target="_top" xlink:title=" ">
<polygon fill="white" stroke="#666666" points="593,-73 490,-73 490,-43 593,-43 593,-73"/>
<text text-anchor="start" x="498" y="-61" font-family="Helvetica,sans-Serif" font-size="10.00">inja::string_view::</text>
<text text-anchor="middle" x="541.5" y="-50" font-family="Helvetica,sans-Serif" font-size="10.00">slice</text>
</a>
</g>
</g>
<!-- Node5&#45;&gt;Node6 -->
<g id="edge5_Node000005_Node000006" class="edge">
<title>Node5&#45;&gt;Node6</title>
<g id="a_edge5_Node000005_Node000006"><a xlink:title=" ">
<path fill="none" stroke="#63b8ff" d="M441.13,-58C453.87,-58 467.1,-58 479.6,-58"/>
<polygon fill="#63b8ff" stroke="#63b8ff" points="479.9,-61.5 489.9,-58 479.9,-54.5 479.9,-61.5"/>
</a>
</g>
</g>
<!-- Node8 -->
<g id="Node000008" class="node">
<title>Node8</title>
<g id="a_Node000008"><a xlink:href="structinja_1_1InjaError.html#a399b7d2f7c824c24b7794694711bafb7" target="_top" xlink:title=" ">
<polygon fill="white" stroke="#666666" points="606,-24.5 477,-24.5 477,-5.5 606,-5.5 606,-24.5"/>
<text text-anchor="middle" x="541.5" y="-12.5" font-family="Helvetica,sans-Serif" font-size="10.00">inja::InjaError::InjaError</text>
</a>
</g>
</g>
<!-- Node7&#45;&gt;Node8 -->
<g id="edge7_Node000007_Node000008" class="edge">
<title>Node7&#45;&gt;Node8</title>
<g id="a_edge7_Node000007_Node000008"><a xlink:title=" ">
<path fill="none" stroke="#63b8ff" d="M424.17,-15C437.56,-15 452.27,-15 466.59,-15"/>
<polygon fill="#63b8ff" stroke="#63b8ff" points="466.93,-18.5 476.93,-15 466.93,-11.5 466.93,-18.5"/>
</a>
</g>
</g>
</g>
</svg>
