<?xml version="1.0" encoding="UTF-8" standalone="no"?>
<!DOCTYPE svg PUBLIC "-//W3C//DTD SVG 1.1//EN"
 "http://www.w3.org/Graphics/SVG/1.1/DTD/svg11.dtd">
<!-- Generated by graphviz version 2.42.4 (0)
 -->
<!-- Title: mqtt::mqttbroker::lib::MqttModel::addClient Pages: 1 -->
<svg width="331pt" height="312pt"
 viewBox="0.00 0.00 331.00 312.00" xmlns="http://www.w3.org/2000/svg" xmlns:xlink="http://www.w3.org/1999/xlink">
<g id="graph0" class="graph" transform="scale(1 1) rotate(0) translate(4 308)">
<title>mqtt::mqttbroker::lib::MqttModel::addClient</title>
<!-- Node1 -->
<g id="Node000001" class="node">
<title>Node1</title>
<g id="a_Node000001"><a xlink:title=" ">
<polygon fill="#999999" stroke="#666666" points="128,-161 0,-161 0,-131 128,-131 128,-161"/>
<text text-anchor="start" x="8" y="-149" font-family="Helvetica,sans-Serif" font-size="10.00">mqtt::mqttbroker::lib</text>
<text text-anchor="middle" x="64" y="-138" font-family="Helvetica,sans-Serif" font-size="10.00">::MqttModel::addClient</text>
</a>
</g>
</g>
<!-- Node2 -->
<g id="Node000002" class="node">
<title>Node2</title>
<g id="a_Node000002"><a xlink:href="namespacemqtt_1_1mqttbroker_1_1lib.html#a02d5d1cde3771e3752ad77b18c0e2095" target="_top" xlink:title=" ">
<polygon fill="white" stroke="#666666" points="302.5,-304 184.5,-304 184.5,-274 302.5,-274 302.5,-304"/>
<text text-anchor="start" x="192.5" y="-292" font-family="Helvetica,sans-Serif" font-size="10.00">mqtt::mqttbroker::lib</text>
<text text-anchor="middle" x="243.5" y="-281" font-family="Helvetica,sans-Serif" font-size="10.00">::href</text>
</a>
</g>
</g>
<!-- Node1&#45;&gt;Node2 -->
<g id="edge1_Node000001_Node000002" class="edge">
<title>Node1&#45;&gt;Node2</title>
<g id="a_edge1_Node000001_Node000002"><a xlink:title=" ">
<path fill="none" stroke="#63b8ff" d="M73.58,-161.21C88.62,-186.5 122.15,-237.17 164,-265 167.47,-267.31 171.17,-269.4 175.01,-271.3"/>
<polygon fill="#63b8ff" stroke="#63b8ff" points="173.6,-274.5 184.16,-275.39 176.45,-268.11 173.6,-274.5"/>
</a>
</g>
</g>
<!-- Node3 -->
<g id="Node000003" class="node">
<title>Node3</title>
<g id="a_Node000003"><a xlink:href="classmqtt_1_1mqttbroker_1_1lib_1_1MqttModel_1_1MqttModelEntry.html#a9195c7ab0fbabb26a29dc826fb9a3c1a" target="_top" xlink:title=" ">
<polygon fill="white" stroke="#666666" points="323,-255.5 164,-255.5 164,-214.5 323,-214.5 323,-255.5"/>
<text text-anchor="start" x="172" y="-243.5" font-family="Helvetica,sans-Serif" font-size="10.00">mqtt::mqttbroker::lib</text>
<text text-anchor="start" x="172" y="-232.5" font-family="Helvetica,sans-Serif" font-size="10.00">::MqttModel::MqttModelEntry</text>
<text text-anchor="middle" x="243.5" y="-221.5" font-family="Helvetica,sans-Serif" font-size="10.00">::MqttModelEntry</text>
</a>
</g>
</g>
<!-- Node1&#45;&gt;Node3 -->
<g id="edge2_Node000001_Node000003" class="edge">
<title>Node1&#45;&gt;Node3</title>
<g id="a_edge2_Node000001_Node000003"><a xlink:title=" ">
<path fill="none" stroke="#63b8ff" d="M87.12,-161.09C106.74,-174.07 136.48,-192.73 164,-206 167.1,-207.5 170.31,-208.97 173.56,-210.4"/>
<polygon fill="#63b8ff" stroke="#63b8ff" points="172.27,-213.65 182.85,-214.33 175,-207.21 172.27,-213.65"/>
</a>
</g>
</g>
<!-- Node4 -->
<g id="Node000004" class="node">
<title>Node4</title>
<g id="a_Node000004"><a xlink:href="classmqtt_1_1mqttbroker_1_1lib_1_1MqttModel_1_1MqttModelEntry.html#ad5176b21cbb0e6fbcbf06adbbd8e0ef5" target="_top" xlink:title=" ">
<polygon fill="white" stroke="#666666" points="323,-196.5 164,-196.5 164,-155.5 323,-155.5 323,-196.5"/>
<text text-anchor="start" x="172" y="-184.5" font-family="Helvetica,sans-Serif" font-size="10.00">mqtt::mqttbroker::lib</text>
<text text-anchor="start" x="172" y="-173.5" font-family="Helvetica,sans-Serif" font-size="10.00">::MqttModel::MqttModelEntry</text>
<text text-anchor="middle" x="243.5" y="-162.5" font-family="Helvetica,sans-Serif" font-size="10.00">::onlineDuration</text>
</a>
</g>
</g>
<!-- Node1&#45;&gt;Node4 -->
<g id="edge3_Node000001_Node000004" class="edge">
<title>Node1&#45;&gt;Node4</title>
<g id="a_edge3_Node000001_Node000004"><a xlink:title=" ">
<path fill="none" stroke="#63b8ff" d="M128.08,-156.66C136.39,-158.07 145.02,-159.53 153.66,-160.99"/>
<polygon fill="#63b8ff" stroke="#63b8ff" points="153.34,-164.48 163.78,-162.7 154.51,-157.58 153.34,-164.48"/>
</a>
</g>
</g>
<!-- Node5 -->
<g id="Node000005" class="node">
<title>Node5</title>
<g id="a_Node000005"><a xlink:href="classmqtt_1_1mqttbroker_1_1lib_1_1MqttModel_1_1MqttModelEntry.html#aa1e16191c7815af56c3986dd7eaf0394" target="_top" xlink:title=" ">
<polygon fill="white" stroke="#666666" points="323,-137.5 164,-137.5 164,-96.5 323,-96.5 323,-137.5"/>
<text text-anchor="start" x="172" y="-125.5" font-family="Helvetica,sans-Serif" font-size="10.00">mqtt::mqttbroker::lib</text>
<text text-anchor="start" x="172" y="-114.5" font-family="Helvetica,sans-Serif" font-size="10.00">::MqttModel::MqttModelEntry</text>
<text text-anchor="middle" x="243.5" y="-103.5" font-family="Helvetica,sans-Serif" font-size="10.00">::onlineSince</text>
</a>
</g>
</g>
<!-- Node1&#45;&gt;Node5 -->
<g id="edge4_Node000001_Node000005" class="edge">
<title>Node1&#45;&gt;Node5</title>
<g id="a_edge4_Node000001_Node000005"><a xlink:title=" ">
<path fill="none" stroke="#63b8ff" d="M128.08,-135.69C136.39,-134.34 145.02,-132.93 153.66,-131.51"/>
<polygon fill="#63b8ff" stroke="#63b8ff" points="154.48,-134.93 163.78,-129.86 153.35,-128.02 154.48,-134.93"/>
</a>
</g>
</g>
<!-- Node6 -->
<g id="Node000006" class="node">
<title>Node6</title>
<g id="a_Node000006"><a xlink:href="classmqtt_1_1mqttbroker_1_1lib_1_1MqttModel.html#a07170b2273f528a0498479600ad2a95b" target="_top" xlink:title=" ">
<polygon fill="white" stroke="#666666" points="309.5,-78 177.5,-78 177.5,-48 309.5,-48 309.5,-78"/>
<text text-anchor="start" x="185.5" y="-66" font-family="Helvetica,sans-Serif" font-size="10.00">mqtt::mqttbroker::lib</text>
<text text-anchor="middle" x="243.5" y="-55" font-family="Helvetica,sans-Serif" font-size="10.00">::MqttModel::sendEvent</text>
</a>
</g>
</g>
<!-- Node1&#45;&gt;Node6 -->
<g id="edge5_Node000001_Node000006" class="edge">
<title>Node1&#45;&gt;Node6</title>
<g id="a_edge5_Node000001_Node000006"><a xlink:title=" ">
<path fill="none" stroke="#63b8ff" d="M87.44,-130.91C107.02,-118.22 136.52,-100.24 164,-88 169.06,-85.74 174.39,-83.6 179.79,-81.58"/>
<polygon fill="#63b8ff" stroke="#63b8ff" points="181.3,-84.76 189.54,-78.09 178.94,-78.17 181.3,-84.76"/>
</a>
</g>
</g>
<!-- Node7 -->
<g id="Node000007" class="node">
<title>Node7</title>
<g id="a_Node000007"><a xlink:href="namespacemqtt_1_1mqttbroker_1_1lib.html#a84d9d071543d085c7a76251f47fc7f31" target="_top" xlink:title=" ">
<polygon fill="white" stroke="#666666" points="302.5,-30 184.5,-30 184.5,0 302.5,0 302.5,-30"/>
<text text-anchor="start" x="192.5" y="-18" font-family="Helvetica,sans-Serif" font-size="10.00">mqtt::mqttbroker::lib</text>
<text text-anchor="middle" x="243.5" y="-7" font-family="Helvetica,sans-Serif" font-size="10.00">::windowId</text>
</a>
</g>
</g>
<!-- Node1&#45;&gt;Node7 -->
<g id="edge6_Node000001_Node000007" class="edge">
<title>Node1&#45;&gt;Node7</title>
<g id="a_edge6_Node000001_Node000007"><a xlink:title=" ">
<path fill="none" stroke="#63b8ff" d="M74.99,-130.87C91.04,-107.72 124.77,-63.62 164,-39 167.53,-36.78 171.28,-34.76 175.15,-32.92"/>
<polygon fill="#63b8ff" stroke="#63b8ff" points="176.57,-36.11 184.36,-28.93 173.79,-29.69 176.57,-36.11"/>
</a>
</g>
</g>
</g>
</svg>
