<?xml version="1.0" encoding="UTF-8" standalone="no"?>
<!DOCTYPE svg PUBLIC "-//W3C//DTD SVG 1.1//EN"
 "http://www.w3.org/Graphics/SVG/1.1/DTD/svg11.dtd">
<!-- Generated by graphviz version 14.1.2 (0)
 -->
<!-- Title: inja::Environment::load_json Pages: 1 -->
<svg width="442pt" height="42pt"
 viewBox="0.00 0.00 442.00 42.00" xmlns="http://www.w3.org/2000/svg" xmlns:xlink="http://www.w3.org/1999/xlink">
<g id="graph0" class="graph" transform="scale(1 1) rotate(0) translate(4 37.5)">
<title>inja::Environment::load_json</title>
<!-- Node1 -->
<g id="Node000001" class="node">
<title>Node1</title>
<g id="a_Node000001"><a xlink:title=" ">
<polygon fill="#999999" stroke="#666666" points="108.25,-33.5 0,-33.5 0,0 108.25,0 108.25,-33.5"/>
<text xml:space="preserve" text-anchor="start" x="8" y="-20" font-family="Helvetica,sans-Serif" font-size="10.00">inja::Environment::</text>
<text xml:space="preserve" text-anchor="middle" x="54.12" y="-7.25" font-family="Helvetica,sans-Serif" font-size="10.00">load_json</text>
</a>
</g>
</g>
<!-- Node2 -->
<g id="Node000002" class="node">
<title>Node2</title>
<g id="a_Node000002"><a xlink:href="structinja_1_1FileError.html#a0912694cd232d6cd688f0f68336145c9" target="_top" xlink:title=" ">
<polygon fill="white" stroke="#666666" points="269.75,-27.12 144.25,-27.12 144.25,-6.38 269.75,-6.38 269.75,-27.12"/>
<text xml:space="preserve" text-anchor="middle" x="207" y="-13.62" font-family="Helvetica,sans-Serif" font-size="10.00">inja::FileError::FileError</text>
</a>
</g>
</g>
<!-- Node1&#45;&gt;Node2 -->
<g id="edge1_Node000001_Node000002" class="edge">
<title>Node1&#45;&gt;Node2</title>
<g id="a_edge1_Node000001_Node000002"><a xlink:title=" ">
<path fill="none" stroke="#63b8ff" d="M108.74,-16.75C116.46,-16.75 124.5,-16.75 132.52,-16.75"/>
<polygon fill="#63b8ff" stroke="#63b8ff" points="132.29,-20.25 142.29,-16.75 132.29,-13.25 132.29,-20.25"/>
</a>
</g>
</g>
<!-- Node3 -->
<g id="Node000003" class="node">
<title>Node3</title>
<g id="a_Node000003"><a xlink:href="structinja_1_1InjaError.html#a0b31b1a26674ec73a9702f41155608da" target="_top" xlink:title=" ">
<polygon fill="white" stroke="#666666" points="434.25,-27.12 305.75,-27.12 305.75,-6.38 434.25,-6.38 434.25,-27.12"/>
<text xml:space="preserve" text-anchor="middle" x="370" y="-13.62" font-family="Helvetica,sans-Serif" font-size="10.00">inja::InjaError::InjaError</text>
</a>
</g>
</g>
<!-- Node2&#45;&gt;Node3 -->
<g id="edge2_Node000002_Node000003" class="edge">
<title>Node2&#45;&gt;Node3</title>
<g id="a_edge2_Node000002_Node000003"><a xlink:title=" ">
<path fill="none" stroke="#63b8ff" d="M270.25,-16.75C277.98,-16.75 285.94,-16.75 293.84,-16.75"/>
<polygon fill="#63b8ff" stroke="#63b8ff" points="293.81,-20.25 303.81,-16.75 293.81,-13.25 293.81,-20.25"/>
</a>
</g>
</g>
</g>
</svg>
