<?xml version="1.0" encoding="UTF-8" standalone="no"?>
<!DOCTYPE svg PUBLIC "-//W3C//DTD SVG 1.1//EN"
 "http://www.w3.org/Graphics/SVG/1.1/DTD/svg11.dtd">
<!-- Generated by graphviz version 2.42.4 (0)
 -->
<!-- Title: anonymous_namespace{json&#45;validator.cpp}::string Pages: 1 -->
<!--zoomable 675 -->

<svg id="main" version="1.1" xmlns="http://www.w3.org/2000/svg" xmlns:xlink="http://www.w3.org/1999/xlink" xml:space="preserve" onload="init(evt)">

<style type="text/css"><![CDATA[
.node, .edge {opacity: 0.7;}
.node.selected, .edge.selected {opacity: 1;}
.edge:hover path { stroke: red; }
.edge:hover polygon { stroke: red; fill: red; }
]]></style>

<defs>
  <circle id="rim" cx="0" cy="0" r="7"/>
  <circle id="rim2" cx="0" cy="0" r="3.5"/>
  <g id="zoomPlus">
    <use xlink:href="#rim" fill="#404040"><set attributeName="fill" to="#808080" begin="zoomplus.mouseover" end="zoomplus.mouseout"/></use>
    <path d="M-4,0h8M0,-4v8" fill="none" stroke="white" stroke-width="1.5" pointer-events="none"/>
  </g>
  <g id="zoomMin">
    <use xlink:href="#rim" fill="#404040"><set attributeName="fill" to="#808080" begin="zoomminus.mouseover" end="zoomminus.mouseout"/></use>
    <path d="M-4,0h8" fill="none" stroke="white" stroke-width="1.5" pointer-events="none"/>
  </g>
  <g id="arrowUp" transform="translate(30 24)">
    <use xlink:href="#rim"/>
    <path pointer-events="none" fill="none" stroke="white" stroke-width="1.5" d="M0,-3.0v7 M-2.5,-0.5L0,-3.0L2.5,-0.5"/>
  </g>
  <g id="arrowRight" transform="rotate(90) translate(36 -43)">
    <use xlink:href="#rim"/>
    <path pointer-events="none" fill="none" stroke="white" stroke-width="1.5" d="M0,-3.0v7 M-2.5,-0.5L0,-3.0L2.5,-0.5"/>
  </g>
  <g id="arrowDown" transform="rotate(180) translate(-30 -48)">
    <use xlink:href="#rim"/>
    <path pointer-events="none" fill="none" stroke="white" stroke-width="1.5" d="M0,-3.0v7 M-2.5,-0.5L0,-3.0L2.5,-0.5"/>
  </g>
  <g id="arrowLeft" transform="rotate(270) translate(-36 17)">
    <use xlink:href="#rim"/>
    <path pointer-events="none" fill="none" stroke="white" stroke-width="1.5" d="M0,-3.0v7 M-2.5,-0.5L0,-3.0L2.5,-0.5"/>
  </g>
  <g id="resetDef">
    <use xlink:href="#rim2" fill="#404040"><set attributeName="fill" to="#808080" begin="reset.mouseover" end="reset.mouseout"/></use>
  </g>
</defs>
<script type="application/ecmascript">
var viewWidth = 869;
var viewHeight = 675;
var sectionId = 'dynsection-1';
</script>
<script type="application/ecmascript" xlink:href="svg.min.js"/>
<svg id="graph" class="graph">
<g id="viewport">
<title>anonymous_namespace{json&#45;validator.cpp}::string</title>
<!-- Node1 -->
<g id="Node000001" class="node">
<title>Node1</title>
<g id="a_Node000001"><a xlink:title=" ">
<polygon fill="#999999" stroke="transparent" points="619,-41 491,-41 491,0 619,0 619,-41"/>
<text text-anchor="start" x="495.5" y="-28.5" font-family="Helvetica,sans-Serif" font-size="10.00">anonymous_namespace</text>
<text text-anchor="start" x="495.5" y="-17.5" font-family="Helvetica,sans-Serif" font-size="10.00">{json&#45;validator.cpp}</text>
<text text-anchor="start" x="538" y="-6.5" font-family="Helvetica,sans-Serif" font-size="10.00">::string</text>
<polygon fill="none" stroke="#666666" points="491,0 491,-41 619,-41 619,0 491,0"/>
</a>
</g>
</g>
<!-- Node2 -->
<g id="Node000002" class="node">
<title>Node2</title>
<g id="a_Node000002"><a xlink:href="classanonymous__namespace_02json-validator_8cpp_03_1_1schema.html" target="_top" xlink:title=" ">
<polygon fill="white" stroke="transparent" points="495,-150 367,-150 367,-109 495,-109 495,-150"/>
<text text-anchor="start" x="371.5" y="-137.5" font-family="Helvetica,sans-Serif" font-size="10.00">anonymous_namespace</text>
<text text-anchor="start" x="371.5" y="-126.5" font-family="Helvetica,sans-Serif" font-size="10.00">{json&#45;validator.cpp}</text>
<text text-anchor="start" x="408.5" y="-115.5" font-family="Helvetica,sans-Serif" font-size="10.00">::schema</text>
<polygon fill="none" stroke="#666666" points="367,-109 367,-150 495,-150 495,-109 367,-109"/>
</a>
</g>
</g>
<!-- Node2&#45;&gt;Node1 -->
<g id="edge1_Node000001_Node000002" class="edge">
<title>Node2&#45;&gt;Node1</title>
<g id="a_edge1_Node000001_Node000002"><a xlink:title=" ">
<path fill="none" stroke="#63b8ff" d="M452.58,-101.47C466.16,-88.47 483.85,-72.77 500,-59 506.9,-53.12 514.49,-46.85 521.85,-41.15"/>
<polygon fill="none" stroke="#63b8ff" points="449.81,-99.28 445.1,-108.77 454.7,-104.29 449.81,-99.28"/>
</a>
</g>
</g>
<!-- Node2&#45;&gt;Node1 -->
<g id="edge14_Node000001_Node000002" class="edge">
<title>Node2&#45;&gt;Node1</title>
<g id="a_edge14_Node000001_Node000002"><a xlink:title=" ">
<path fill="none" stroke="#63b8ff" d="M468,-102.19C483.5,-89.06 501.54,-73.03 518,-59 524.9,-53.12 532.49,-46.85 539.12,-41.15"/>
<polygon fill="none" stroke="#63b8ff" points="465.57,-99.66 460.16,-108.77 470.07,-105.03 465.57,-99.66"/>
</a>
</g>
</g>
<!-- Node3 -->
<g id="Node000003" class="node">
<title>Node3</title>
<g id="a_Node000003"><a xlink:href="classnlohmann_1_1json__schema_1_1root__schema.html" target="_top" xlink:title=" ">
<polygon fill="white" stroke="transparent" points="430,-233 302,-233 302,-203 430,-203 430,-233"/>
<text text-anchor="start" x="306.5" y="-221" font-family="Helvetica,sans-Serif" font-size="10.00">nlohmann::json_schema</text>
<text text-anchor="start" x="331" y="-210" font-family="Helvetica,sans-Serif" font-size="10.00">::root_schema</text>
<polygon fill="none" stroke="#666666" points="302,-203 302,-233 430,-233 430,-203 302,-203"/>
</a>
</g>
</g>
<!-- Node3&#45;&gt;Node2 -->
<g id="edge2_Node000002_Node000003" class="edge">
<title>Node3&#45;&gt;Node2</title>
<g id="a_edge2_Node000002_Node000003"><a xlink:title=" ">
<path fill="none" stroke="#63b8ff" d="M376.73,-202.72C385.38,-191.21 397.83,-174.64 408.63,-160.27"/>
<polygon fill="none" stroke="#63b8ff" points="408.91,-159.9 409.31,-152.7 416.12,-150.31 415.71,-157.51 408.91,-159.9"/>
</a>
</g>
<text text-anchor="start" x="406" y="-173.5" font-family="Helvetica,sans-Serif" font-size="10.00" fill="grey">#root_</text>
</g>
<!-- Node4 -->
<g id="Node000004" class="node">
<title>Node4</title>
<g id="a_Node000004"><a xlink:title=" ">
<polygon fill="white" stroke="transparent" points="142,-594.5 0,-594.5 0,-575.5 142,-575.5 142,-594.5"/>
<text text-anchor="start" x="4" y="-582" font-family="Helvetica,sans-Serif" font-size="10.00">std::shared_ptr&lt; schema &gt;</text>
<polygon fill="none" stroke="#666666" points="0,-575.5 0,-594.5 142,-594.5 142,-575.5 0,-575.5"/>
</a>
</g>
</g>
<!-- Node4&#45;&gt;Node3 -->
<g id="edge3_Node000003_Node000004" class="edge">
<title>Node4&#45;&gt;Node3</title>
<g id="a_edge3_Node000003_Node000004"><a xlink:title=" ">
<path fill="none" stroke="#63b8ff" d="M69.84,-575.42C67.86,-559.91 64,-526.13 64,-497.5 64,-497.5 64,-497.5 64,-305.5 64,-258.57 200.47,-235.65 289.93,-225.66"/>
<polygon fill="none" stroke="#63b8ff" points="290.02,-225.65 295.56,-221.03 301.95,-224.37 296.42,-228.99 290.02,-225.65"/>
</a>
</g>
<text text-anchor="start" x="67.5" y="-392" font-family="Helvetica,sans-Serif" font-size="10.00" fill="grey">&#45;root_</text>
</g>
<!-- Node9 -->
<g id="Node000009" class="node">
<title>Node9</title>
<g id="a_Node000009"><a xlink:title=" ">
<polygon fill="white" stroke="transparent" points="248,-511.5 92,-511.5 92,-481.5 248,-481.5 248,-511.5"/>
<text text-anchor="start" x="96" y="-499.5" font-family="Helvetica,sans-Serif" font-size="10.00">std::map&lt; std::string,</text>
<text text-anchor="start" x="96" y="-488.5" font-family="Helvetica,sans-Serif" font-size="10.00"> std::shared_ptr&lt; schema &gt; &gt;</text>
<polygon fill="none" stroke="#666666" points="92,-481.5 92,-511.5 248,-511.5 248,-481.5 92,-481.5"/>
</a>
</g>
</g>
<!-- Node4&#45;&gt;Node9 -->
<g id="edge10_Node000009_Node000004" class="edge">
<title>Node4&#45;&gt;Node9</title>
<g id="a_edge10_Node000009_Node000004"><a xlink:title=" ">
<path fill="none" stroke="#63b8ff" d="M80.85,-575.39C95.55,-562.55 123.69,-537.96 144.44,-519.83"/>
<polygon fill="none" stroke="#63b8ff" points="144.62,-519.67 146.51,-512.71 153.66,-511.78 151.77,-518.74 144.62,-519.67"/>
</a>
</g>
<text text-anchor="start" x="130.5" y="-540.5" font-family="Helvetica,sans-Serif" font-size="10.00" fill="grey">+elements</text>
</g>
<!-- Node5 -->
<g id="Node000005" class="node">
<title>Node5</title>
<g id="a_Node000005"><a xlink:title=" ">
<polygon fill="white" stroke="transparent" points="443,-327 289,-327 289,-286 443,-286 443,-327"/>
<text text-anchor="start" x="293" y="-314.5" font-family="Helvetica,sans-Serif" font-size="10.00">std::map&lt; std::string,</text>
<text text-anchor="start" x="293" y="-303.5" font-family="Helvetica,sans-Serif" font-size="10.00"> nlohmann::json_schema</text>
<text text-anchor="start" x="293" y="-292.5" font-family="Helvetica,sans-Serif" font-size="10.00">::root_schema::schema_file &gt;</text>
<polygon fill="none" stroke="#666666" points="289,-286 289,-327 443,-327 443,-286 289,-286"/>
</a>
</g>
</g>
<!-- Node5&#45;&gt;Node3 -->
<g id="edge4_Node000003_Node000005" class="edge">
<title>Node5&#45;&gt;Node3</title>
<g id="a_edge4_Node000003_Node000005"><a xlink:title=" ">
<path fill="none" stroke="#63b8ff" d="M366,-285.87C366,-273.83 366,-258.27 366,-245.19"/>
<polygon fill="none" stroke="#63b8ff" points="366,-245.16 362,-239.16 366,-233.16 370,-239.16 366,-245.16"/>
</a>
</g>
<text text-anchor="start" x="369.5" y="-256.5" font-family="Helvetica,sans-Serif" font-size="10.00" fill="grey">&#45;files_</text>
</g>
<!-- Node6 -->
<g id="Node000006" class="node">
<title>Node6</title>
<g id="a_Node000006"><a xlink:title=" ">
<polygon fill="white" stroke="transparent" points="457,-594.5 399,-594.5 399,-575.5 457,-575.5 457,-594.5"/>
<text text-anchor="start" x="403.5" y="-582" font-family="Helvetica,sans-Serif" font-size="10.00">std::string</text>
<polygon fill="none" stroke="#666666" points="399,-575.5 399,-594.5 457,-594.5 457,-575.5 399,-575.5"/>
</a>
</g>
</g>
<!-- Node6&#45;&gt;Node1 -->
<g id="edge17_Node000001_Node000006" class="edge">
<title>Node6&#45;&gt;Node1</title>
<g id="a_edge17_Node000001_Node000006"><a xlink:title=" ">
<path fill="none" stroke="#63b8ff" d="M457.16,-581.25C503.07,-575.13 587,-555.95 587,-497.5 587,-497.5 587,-497.5 587,-128.5 587,-101.96 577.85,-73.2 569.33,-52.2"/>
<polygon fill="none" stroke="#63b8ff" points="569.31,-52.13 563.27,-48.18 564.6,-41.09 570.63,-45.04 569.31,-52.13"/>
</a>
</g>
<text text-anchor="start" x="590.5" y="-303.5" font-family="Helvetica,sans-Serif" font-size="10.00" fill="grey">&#45;patternString_</text>
</g>
<!-- Node6&#45;&gt;Node5 -->
<g id="edge5_Node000005_Node000006" class="edge">
<title>Node6&#45;&gt;Node5</title>
<g id="a_edge5_Node000005_Node000006"><a xlink:title=" ">
<path fill="none" stroke="#63b8ff" d="M427.69,-575.35C426.19,-533.7 419.45,-355.4 414,-345 412.34,-341.84 410.29,-338.86 407.97,-336.07"/>
<polygon fill="none" stroke="#63b8ff" points="407.73,-335.83 400.66,-334.39 399.26,-327.32 406.33,-328.75 407.73,-335.83"/>
</a>
</g>
<text text-anchor="start" x="426.5" y="-440" font-family="Helvetica,sans-Serif" font-size="10.00" fill="grey">+keys</text>
</g>
<!-- Node6&#45;&gt;Node9 -->
<g id="edge9_Node000009_Node000006" class="edge">
<title>Node6&#45;&gt;Node9</title>
<g id="a_edge9_Node000009_Node000006"><a xlink:title=" ">
<path fill="none" stroke="#63b8ff" d="M398.75,-577.78C376.53,-572.48 345.55,-563.83 320,-552 307.47,-546.2 306.51,-540.84 294,-535 277.11,-527.12 258.17,-520.42 240.27,-514.95"/>
<polygon fill="none" stroke="#63b8ff" points="240.2,-514.93 233.31,-517.07 228.69,-511.54 235.57,-509.4 240.2,-514.93"/>
</a>
</g>
<text text-anchor="start" x="323.5" y="-540.5" font-family="Helvetica,sans-Serif" font-size="10.00" fill="grey">+keys</text>
</g>
<!-- Node10 -->
<g id="Node000010" class="node">
<title>Node10</title>
<g id="a_Node000010"><a xlink:title=" ">
<polygon fill="white" stroke="transparent" points="400,-517 266,-517 266,-476 400,-476 400,-517"/>
<text text-anchor="start" x="270" y="-504.5" font-family="Helvetica,sans-Serif" font-size="10.00">std::map&lt; std::string,</text>
<text text-anchor="start" x="270" y="-493.5" font-family="Helvetica,sans-Serif" font-size="10.00"> std::shared_ptr&lt; schema</text>
<text text-anchor="start" x="312" y="-482.5" font-family="Helvetica,sans-Serif" font-size="10.00">_ref &gt; &gt;</text>
<polygon fill="none" stroke="#666666" points="266,-476 266,-517 400,-517 400,-476 266,-476"/>
</a>
</g>
</g>
<!-- Node6&#45;&gt;Node10 -->
<g id="edge12_Node000010_Node000006" class="edge">
<title>Node6&#45;&gt;Node10</title>
<g id="a_edge12_Node000010_Node000006"><a xlink:title=" ">
<path fill="none" stroke="#63b8ff" d="M411.43,-575.46C400.96,-569.63 387.47,-561.3 377,-552 368.7,-544.63 360.72,-535.59 353.9,-527"/>
<polygon fill="none" stroke="#63b8ff" points="353.74,-526.8 346.92,-524.46 346.46,-517.26 353.28,-519.6 353.74,-526.8"/>
</a>
</g>
<text text-anchor="start" x="380.5" y="-540.5" font-family="Helvetica,sans-Serif" font-size="10.00" fill="grey">+keys</text>
</g>
<!-- Node14 -->
<g id="Node000014" class="node">
<title>Node14</title>
<g id="a_Node000014"><a xlink:title=" ">
<polygon fill="white" stroke="transparent" points="572,-458 470,-458 470,-428 572,-428 572,-458"/>
<text text-anchor="start" x="474" y="-446" font-family="Helvetica,sans-Serif" font-size="10.00">std::pair&lt; bool, std</text>
<text text-anchor="start" x="498" y="-435" font-family="Helvetica,sans-Serif" font-size="10.00">::string &gt;</text>
<polygon fill="none" stroke="#666666" points="470,-428 470,-458 572,-458 572,-428 470,-428"/>
</a>
</g>
</g>
<!-- Node6&#45;&gt;Node14 -->
<g id="edge19_Node000014_Node000006" class="edge">
<title>Node6&#45;&gt;Node14</title>
<g id="a_edge19_Node000014_Node000006"><a xlink:title=" ">
<path fill="none" stroke="#63b8ff" d="M433.82,-575.24C447.76,-554.25 483.5,-500.45 504.64,-468.63"/>
<polygon fill="none" stroke="#63b8ff" points="504.81,-468.38 504.79,-461.17 511.45,-458.38 511.46,-465.59 504.81,-468.38"/>
</a>
</g>
<text text-anchor="start" x="462" y="-540.5" font-family="Helvetica,sans-Serif" font-size="10.00" fill="grey">+second_type</text>
</g>
<!-- Node7 -->
<g id="Node000007" class="node">
<title>Node7</title>
<g id="a_Node000007"><a xlink:title=" ">
<polygon fill="white" stroke="transparent" points="476,-667 380,-667 380,-637 476,-637 476,-667"/>
<text text-anchor="start" x="384" y="-655" font-family="Helvetica,sans-Serif" font-size="10.00">std::basic_string&lt;</text>
<text text-anchor="start" x="409.5" y="-644" font-family="Helvetica,sans-Serif" font-size="10.00"> Char &gt;</text>
<polygon fill="none" stroke="#666666" points="380,-637 380,-667 476,-667 476,-637 380,-637"/>
</a>
</g>
</g>
<!-- Node7&#45;&gt;Node6 -->
<g id="edge6_Node000006_Node000007" class="edge">
<title>Node7&#45;&gt;Node6</title>
<g id="a_edge6_Node000006_Node000007"><a xlink:title=" ">
<path fill="none" stroke="#63b8ff" d="M428,-626.75C428,-615.52 428,-602.88 428,-594.69"/>
<polygon fill="none" stroke="#63b8ff" points="424.5,-626.9 428,-636.9 431.5,-626.9 424.5,-626.9"/>
</a>
</g>
</g>
<!-- Node8 -->
<g id="Node000008" class="node">
<title>Node8</title>
<g id="a_Node000008"><a xlink:href="structnlohmann_1_1json__schema_1_1root__schema_1_1schema__file.html" target="_top" xlink:title=" ">
<polygon fill="white" stroke="transparent" points="400,-410 256,-410 256,-380 400,-380 400,-410"/>
<text text-anchor="start" x="260.5" y="-398" font-family="Helvetica,sans-Serif" font-size="10.00">nlohmann::json_schema</text>
<text text-anchor="start" x="260.5" y="-387" font-family="Helvetica,sans-Serif" font-size="10.00">::root_schema::schema_file</text>
<polygon fill="none" stroke="#666666" points="256,-380 256,-410 400,-410 400,-380 256,-380"/>
</a>
</g>
</g>
<!-- Node8&#45;&gt;Node5 -->
<g id="edge7_Node000005_Node000008" class="edge">
<title>Node8&#45;&gt;Node5</title>
<g id="a_edge7_Node000005_Node000008"><a xlink:title=" ">
<path fill="none" stroke="#63b8ff" d="M334.27,-379.72C339.18,-368.54 346.19,-352.6 352.37,-338.54"/>
<polygon fill="none" stroke="#63b8ff" points="352.47,-338.29 351.22,-331.19 357.3,-327.31 358.55,-334.41 352.47,-338.29"/>
</a>
</g>
<text text-anchor="start" x="353.5" y="-350.5" font-family="Helvetica,sans-Serif" font-size="10.00" fill="grey">+elements</text>
</g>
<!-- Node9&#45;&gt;Node8 -->
<g id="edge8_Node000008_Node000009" class="edge">
<title>Node9&#45;&gt;Node8</title>
<g id="a_edge8_Node000008_Node000009"><a xlink:title=" ">
<path fill="none" stroke="#63b8ff" d="M189.09,-481.39C208.54,-467.25 239.76,-445.18 268,-428 274.83,-423.84 282.25,-419.65 289.46,-415.72"/>
<polygon fill="none" stroke="#63b8ff" points="289.57,-415.67 292.98,-409.31 300.15,-410.01 296.74,-416.37 289.57,-415.67"/>
</a>
</g>
<text text-anchor="start" x="271" y="-440" font-family="Helvetica,sans-Serif" font-size="10.00" fill="grey">+schemas</text>
</g>
<!-- Node10&#45;&gt;Node8 -->
<g id="edge11_Node000008_Node000010" class="edge">
<title>Node10&#45;&gt;Node8</title>
<g id="a_edge11_Node000008_Node000010"><a xlink:title=" ">
<path fill="none" stroke="#63b8ff" d="M332.01,-475.84C331.24,-460.56 330.17,-439.21 329.33,-422.43"/>
<polygon fill="none" stroke="#63b8ff" points="329.31,-422.14 325.02,-416.35 328.71,-410.16 333.01,-415.95 329.31,-422.14"/>
</a>
</g>
<text text-anchor="start" x="335.5" y="-440" font-family="Helvetica,sans-Serif" font-size="10.00" fill="grey">+unresolved</text>
</g>
<!-- Node11 -->
<g id="Node000011" class="node">
<title>Node11</title>
<g id="a_Node000011"><a xlink:title=" ">
<polygon fill="white" stroke="transparent" points="298,-600 166,-600 166,-570 298,-570 298,-600"/>
<text text-anchor="start" x="170.5" y="-588" font-family="Helvetica,sans-Serif" font-size="10.00">std::shared_ptr&lt; schema</text>
<text text-anchor="start" x="216.5" y="-577" font-family="Helvetica,sans-Serif" font-size="10.00">_ref &gt;</text>
<polygon fill="none" stroke="#666666" points="166,-570 166,-600 298,-600 298,-570 166,-570"/>
</a>
</g>
</g>
<!-- Node11&#45;&gt;Node10 -->
<g id="edge13_Node000010_Node000011" class="edge">
<title>Node11&#45;&gt;Node10</title>
<g id="a_edge13_Node000010_Node000011"><a xlink:title=" ">
<path fill="none" stroke="#63b8ff" d="M228.34,-569.81C226.49,-559.25 225.92,-545 233,-535 236.46,-530.11 244.54,-525.31 254.68,-520.85"/>
<polygon fill="none" stroke="#63b8ff" points="254.76,-520.82 258.83,-514.87 265.89,-516.35 261.82,-522.29 254.76,-520.82"/>
</a>
</g>
<text text-anchor="start" x="236.5" y="-540.5" font-family="Helvetica,sans-Serif" font-size="10.00" fill="grey">+elements</text>
</g>
<!-- Node12 -->
<g id="Node000012" class="node">
<title>Node12</title>
<g id="a_Node000012"><a xlink:title=" ">
<polygon fill="white" stroke="transparent" points="741,-139 615,-139 615,-120 741,-120 741,-139"/>
<text text-anchor="start" x="619" y="-126.5" font-family="Helvetica,sans-Serif" font-size="10.00">std::pair&lt; bool, size_t &gt;</text>
<polygon fill="none" stroke="#666666" points="615,-120 615,-139 741,-139 741,-120 615,-120"/>
</a>
</g>
</g>
<!-- Node12&#45;&gt;Node1 -->
<g id="edge15_Node000001_Node000012" class="edge">
<title>Node12&#45;&gt;Node1</title>
<g id="a_edge15_Node000001_Node000012"><a xlink:title=" ">
<path fill="none" stroke="#63b8ff" d="M668.65,-119.79C654.3,-106.47 625.87,-80.34 601,-59 597.13,-55.68 593.04,-52.24 588.95,-48.85"/>
<polygon fill="none" stroke="#63b8ff" points="588.81,-48.74 581.64,-48.02 579.54,-41.12 586.71,-41.84 588.81,-48.74"/>
</a>
</g>
<text text-anchor="start" x="641" y="-80" font-family="Helvetica,sans-Serif" font-size="10.00" fill="grey">&#45;maxLength_</text>
<text text-anchor="start" x="641" y="-65" font-family="Helvetica,sans-Serif" font-size="10.00" fill="grey">&#45;minLength_</text>
</g>
<!-- Node13 -->
<g id="Node000013" class="node">
<title>Node13</title>
<g id="a_Node000013"><a xlink:title=" ">
<polygon fill="white" stroke="transparent" points="861,-144.5 759,-144.5 759,-114.5 861,-114.5 861,-144.5"/>
<text text-anchor="start" x="763" y="-132.5" font-family="Helvetica,sans-Serif" font-size="10.00">std::pair&lt; bool, std</text>
<text text-anchor="start" x="787" y="-121.5" font-family="Helvetica,sans-Serif" font-size="10.00">::regex &gt;</text>
<polygon fill="none" stroke="#666666" points="759,-114.5 759,-144.5 861,-144.5 861,-114.5 759,-114.5"/>
</a>
</g>
</g>
<!-- Node13&#45;&gt;Node1 -->
<g id="edge16_Node000001_Node000013" class="edge">
<title>Node13&#45;&gt;Node1</title>
<g id="a_edge16_Node000001_Node000013"><a xlink:title=" ">
<path fill="none" stroke="#63b8ff" d="M794.2,-114.36C775.76,-98.58 743.72,-73.38 712,-59 686.66,-47.51 657.36,-39.29 630.98,-33.54"/>
<polygon fill="none" stroke="#63b8ff" points="630.84,-33.51 624.15,-36.2 619.09,-31.06 625.78,-28.37 630.84,-33.51"/>
</a>
</g>
<text text-anchor="start" x="766.5" y="-72" font-family="Helvetica,sans-Serif" font-size="10.00" fill="grey">&#45;pattern_</text>
</g>
<!-- Node14&#45;&gt;Node1 -->
<g id="edge18_Node000001_Node000014" class="edge">
<title>Node14&#45;&gt;Node1</title>
<g id="a_edge18_Node000001_Node000014"><a xlink:title=" ">
<path fill="none" stroke="#63b8ff" d="M521.53,-427.76C522.12,-410.44 523,-380.33 523,-354.5 523,-354.5 523,-354.5 523,-128.5 523,-101.96 532.15,-73.2 540.67,-52.2"/>
<polygon fill="none" stroke="#63b8ff" points="540.69,-52.13 539.37,-45.04 545.4,-41.09 546.73,-48.18 540.69,-52.13"/>
</a>
</g>
<text text-anchor="start" x="526.5" y="-256.5" font-family="Helvetica,sans-Serif" font-size="10.00" fill="grey">&#45;format_</text>
</g>
</g>
</svg>

<g id="navigator" transform="translate(0 0)" fill="#404254">
  <rect fill="#f2f5e9" fill-opacity="0.5" stroke="#606060" stroke-width=".5" x="0" y="0" width="60" height="60"/>
  <use id="zoomplus" xlink:href="#zoomPlus" x="17" y="9" onmousedown="handleZoom(evt,'in')"/>
  <use id="zoomminus" xlink:href="#zoomMin" x="42" y="9" onmousedown="handleZoom(evt,'out')"/>
  <use id="reset" xlink:href="#resetDef" x="30" y="36" onmousedown="handleReset()"/>
   <use id="arrowup" xlink:href="#arrowUp" x="0" y="0" onmousedown="handlePan(0,-1)"/>
  <use id="arrowright" xlink:href="#arrowRight" x="0" y="0" onmousedown="handlePan(1,0)"/>
  <use id="arrowdown" xlink:href="#arrowDown" x="0" y="0" onmousedown="handlePan(0,1)"/>
  <use id="arrowleft" xlink:href="#arrowLeft" x="0" y="0" onmousedown="handlePan(-1,0)"/>
</g>
<svg viewBox="0 0 15 15" width="100%" height="30px" preserveAspectRatio="xMaxYMin meet">
 <g id="arrow_out" transform="scale(0.3 0.3)">
  <a xlink:href="classanonymous__namespace_02json-validator_8cpp_03_1_1string__coll__graph_org.svg" target="_base">
   <rect id="button" ry="5" rx="5" y="6" x="6" height="38" width="38"
        fill="#f2f5e9" fill-opacity="0.5" stroke="#606060" stroke-width="1.0"/>
   <path id="arrow"
     d="M 11.500037,31.436501 C 11.940474,20.09759 22.043105,11.32322 32.158766,21.979434 L 37.068811,17.246167 C 37.068811,17.246167 37.088388,32 37.088388,32 L 22.160133,31.978069 C 22.160133,31.978069 26.997745,27.140456 26.997745,27.140456 C 18.528582,18.264221 13.291696,25.230495 11.500037,31.436501 z"
     style="fill:#404040;"/>
  </a>
 </g>
</svg>

<style type='text/css'>
<![CDATA[
[data-mouse-over-selected='false'] { opacity: 0.7; }
[data-mouse-over-selected='true']  { opacity: 1.0; }
]]>
</style>
<script type="application/ecmascript"><![CDATA[
document.addEventListener('DOMContentLoaded', (event) => {
  highlightEdges();
  highlightAdjacentNodes();
});
]]></script>
</svg>
