<?xml version="1.0" encoding="UTF-8" standalone="no"?>
<!DOCTYPE svg PUBLIC "-//W3C//DTD SVG 1.1//EN"
 "http://www.w3.org/Graphics/SVG/1.1/DTD/svg11.dtd">
<!-- Generated by graphviz version 2.42.4 (0)
 -->
<!-- Title: inja::ForObjectStatementNode::ForObjectStatementNode Pages: 1 -->
<svg width="665pt" height="56pt"
 viewBox="0.00 0.00 665.00 56.00" xmlns="http://www.w3.org/2000/svg" xmlns:xlink="http://www.w3.org/1999/xlink">
<g id="graph0" class="graph" transform="scale(1 1) rotate(0) translate(4 52)">
<title>inja::ForObjectStatementNode::ForObjectStatementNode</title>
<!-- Node1 -->
<g id="Node000001" class="node">
<title>Node1</title>
<g id="a_Node000001"><a xlink:title=" ">
<polygon fill="#999999" stroke="#666666" points="171,-30 0,-30 0,0 171,0 171,-30"/>
<text text-anchor="start" x="8" y="-18" font-family="Helvetica,sans-Serif" font-size="10.00">inja::ForObjectStatement</text>
<text text-anchor="middle" x="85.5" y="-7" font-family="Helvetica,sans-Serif" font-size="10.00">Node::ForObjectStatementNode</text>
</a>
</g>
</g>
<!-- Node1&#45;&gt;Node1 -->
<g id="edge1_Node000001_Node000001" class="edge">
<title>Node1&#45;&gt;Node1</title>
<g id="a_edge1_Node000001_Node000001"><a xlink:title=" ">
<path fill="none" stroke="#63b8ff" d="M52.8,-30.28C45.54,-39.41 56.44,-48 85.5,-48 102.76,-48 113.61,-44.97 118.06,-40.6"/>
<polygon fill="#63b8ff" stroke="#63b8ff" points="121.56,-40.32 118.2,-30.28 114.56,-40.23 121.56,-40.32"/>
</a>
</g>
</g>
<!-- Node2 -->
<g id="Node000002" class="node">
<title>Node2</title>
<g id="a_Node000002"><a xlink:href="classinja_1_1ForStatementNode.html#ac25033c5f8e4fd975a619ccde75ae5a9" target="_top" xlink:title=" ">
<polygon fill="white" stroke="#666666" points="339,-30 207,-30 207,0 339,0 339,-30"/>
<text text-anchor="start" x="215" y="-18" font-family="Helvetica,sans-Serif" font-size="10.00">inja::ForStatementNode</text>
<text text-anchor="middle" x="273" y="-7" font-family="Helvetica,sans-Serif" font-size="10.00">::ForStatementNode</text>
</a>
</g>
</g>
<!-- Node1&#45;&gt;Node2 -->
<g id="edge2_Node000001_Node000002" class="edge">
<title>Node1&#45;&gt;Node2</title>
<g id="a_edge2_Node000001_Node000002"><a xlink:title=" ">
<path fill="none" stroke="#63b8ff" d="M171.11,-15C179.67,-15 188.32,-15 196.77,-15"/>
<polygon fill="#63b8ff" stroke="#63b8ff" points="196.96,-18.5 206.96,-15 196.96,-11.5 196.96,-18.5"/>
</a>
</g>
</g>
<!-- Node3 -->
<g id="Node000003" class="node">
<title>Node3</title>
<g id="a_Node000003"><a xlink:href="classinja_1_1StatementNode.html#a0bba1af707ebbe637bcfe3e1684f63d6" target="_top" xlink:title=" ">
<polygon fill="white" stroke="#666666" points="492,-30 375,-30 375,0 492,0 492,-30"/>
<text text-anchor="start" x="383" y="-18" font-family="Helvetica,sans-Serif" font-size="10.00">inja::StatementNode</text>
<text text-anchor="middle" x="433.5" y="-7" font-family="Helvetica,sans-Serif" font-size="10.00">::StatementNode</text>
</a>
</g>
</g>
<!-- Node2&#45;&gt;Node3 -->
<g id="edge3_Node000002_Node000003" class="edge">
<title>Node2&#45;&gt;Node3</title>
<g id="a_edge3_Node000002_Node000003"><a xlink:title=" ">
<path fill="none" stroke="#63b8ff" d="M339.38,-15C347.75,-15 356.33,-15 364.73,-15"/>
<polygon fill="#63b8ff" stroke="#63b8ff" points="364.87,-18.5 374.87,-15 364.87,-11.5 364.87,-18.5"/>
</a>
</g>
</g>
<!-- Node4 -->
<g id="Node000004" class="node">
<title>Node4</title>
<g id="a_Node000004"><a xlink:href="classinja_1_1AstNode.html#a07cb3d5b6c13935440fc092ec8ff1fec" target="_top" xlink:title=" ">
<polygon fill="white" stroke="#666666" points="657,-24.5 528,-24.5 528,-5.5 657,-5.5 657,-24.5"/>
<text text-anchor="middle" x="592.5" y="-12.5" font-family="Helvetica,sans-Serif" font-size="10.00">inja::AstNode::AstNode</text>
</a>
</g>
</g>
<!-- Node3&#45;&gt;Node4 -->
<g id="edge4_Node000003_Node000004" class="edge">
<title>Node3&#45;&gt;Node4</title>
<g id="a_edge4_Node000003_Node000004"><a xlink:title=" ">
<path fill="none" stroke="#63b8ff" d="M492.07,-15C500.44,-15 509.14,-15 517.77,-15"/>
<polygon fill="#63b8ff" stroke="#63b8ff" points="517.85,-18.5 527.85,-15 517.85,-11.5 517.85,-18.5"/>
</a>
</g>
</g>
</g>
</svg>
