<?xml version="1.0" encoding="UTF-8" standalone="no"?>
<!DOCTYPE svg PUBLIC "-//W3C//DTD SVG 1.1//EN"
 "http://www.w3.org/Graphics/SVG/1.1/DTD/svg11.dtd">
<!-- Generated by graphviz version 14.1.2 (0)
 -->
<!-- Title: mqtt::mqttbroker::lib::MqttModel::instance Pages: 1 -->
<svg width="770pt" height="306pt"
 viewBox="0.00 0.00 770.00 306.00" xmlns="http://www.w3.org/2000/svg" xmlns:xlink="http://www.w3.org/1999/xlink">
<g id="graph0" class="graph" transform="scale(1 1) rotate(0) translate(4 302.12)">
<title>mqtt::mqttbroker::lib::MqttModel::instance</title>
<!-- Node1 -->
<g id="Node000001" class="node">
<title>Node1</title>
<g id="a_Node000001"><a xlink:title=" ">
<polygon fill="#999999" stroke="#666666" points="761.75,-172.5 640,-172.5 640,-139 761.75,-139 761.75,-172.5"/>
<text xml:space="preserve" text-anchor="start" x="648" y="-159" font-family="Helvetica,sans-Serif" font-size="10.00">mqtt::mqttbroker::lib</text>
<text xml:space="preserve" text-anchor="middle" x="700.88" y="-146.25" font-family="Helvetica,sans-Serif" font-size="10.00">::MqttModel::instance</text>
</a>
</g>
</g>
<!-- Node2 -->
<g id="Node000002" class="node">
<title>Node2</title>
<g id="a_Node000002"><a xlink:href="mqttbroker_8cpp.html#a46b7a86346a951e89a84682b281c6f14" target="_top" xlink:title=" ">
<polygon fill="white" stroke="#666666" points="571.75,-298.12 507.75,-298.12 507.75,-277.38 571.75,-277.38 571.75,-298.12"/>
<text xml:space="preserve" text-anchor="middle" x="539.75" y="-284.62" font-family="Helvetica,sans-Serif" font-size="10.00">getRouter</text>
</a>
</g>
</g>
<!-- Node1&#45;&gt;Node2 -->
<g id="edge1_Node000001_Node000002" class="edge">
<title>Node1&#45;&gt;Node2</title>
<g id="a_edge1_Node000001_Node000002"><a xlink:title=" ">
<path fill="none" stroke="#63b8ff" d="M684,-182.1C667.21,-207.8 638.4,-246.24 604,-268.75 594.5,-274.97 582.89,-279.22 572.22,-282.09"/>
<polygon fill="#63b8ff" stroke="#63b8ff" points="686.82,-184.19 689.23,-173.87 680.91,-180.44 686.82,-184.19"/>
</a>
</g>
</g>
<!-- Node3 -->
<g id="Node000003" class="node">
<title>Node3</title>
<g id="a_Node000003"><a xlink:href="classmqtt_1_1mqttbroker_1_1lib_1_1Mqtt.html#a381e51fa3f75d81dc2501403b83d96f2" target="_top" xlink:title=" ">
<polygon fill="white" stroke="#666666" points="598.38,-259.5 481.12,-259.5 481.12,-226 598.38,-226 598.38,-259.5"/>
<text xml:space="preserve" text-anchor="start" x="489.12" y="-246" font-family="Helvetica,sans-Serif" font-size="10.00">mqtt::mqttbroker::lib</text>
<text xml:space="preserve" text-anchor="middle" x="539.75" y="-233.25" font-family="Helvetica,sans-Serif" font-size="10.00">::Mqtt::onConnect</text>
</a>
</g>
</g>
<!-- Node1&#45;&gt;Node3 -->
<g id="edge2_Node000001_Node000003" class="edge">
<title>Node1&#45;&gt;Node3</title>
<g id="a_edge2_Node000001_Node000003"><a xlink:title=" ">
<path fill="none" stroke="#63b8ff" d="M666.28,-179.19C648.27,-191.22 625.43,-205.64 604,-216.75 598.1,-219.81 591.75,-222.78 585.44,-225.54"/>
<polygon fill="#63b8ff" stroke="#63b8ff" points="668.18,-182.13 674.5,-173.63 664.26,-176.33 668.18,-182.13"/>
</a>
</g>
</g>
<!-- Node4 -->
<g id="Node000004" class="node">
<title>Node4</title>
<g id="a_Node000004"><a xlink:href="classmqtt_1_1mqttbroker_1_1lib_1_1Mqtt.html#a701d087aedd4cd329ba80f26a99d4f17" target="_top" xlink:title=" ">
<polygon fill="white" stroke="#666666" points="604,-207.5 475.5,-207.5 475.5,-174 604,-174 604,-207.5"/>
<text xml:space="preserve" text-anchor="start" x="483.5" y="-194" font-family="Helvetica,sans-Serif" font-size="10.00">mqtt::mqttbroker::lib</text>
<text xml:space="preserve" text-anchor="middle" x="539.75" y="-181.25" font-family="Helvetica,sans-Serif" font-size="10.00">::Mqtt::onDisconnected</text>
</a>
</g>
</g>
<!-- Node1&#45;&gt;Node4 -->
<g id="edge3_Node000001_Node000004" class="edge">
<title>Node1&#45;&gt;Node4</title>
<g id="a_edge3_Node000001_Node000004"><a xlink:title=" ">
<path fill="none" stroke="#63b8ff" d="M628.49,-171.45C620.48,-173.21 612.35,-175 604.44,-176.74"/>
<polygon fill="#63b8ff" stroke="#63b8ff" points="629.22,-174.87 638.24,-169.31 627.72,-168.04 629.22,-174.87"/>
</a>
</g>
</g>
<!-- Node5 -->
<g id="Node000005" class="node">
<title>Node5</title>
<g id="a_Node000005"><a xlink:href="classmqtt_1_1mqttbroker_1_1lib_1_1Mqtt.html#a35dd670ca3b7d67cffbbce1cf7c71ffb" target="_top" xlink:title=" ">
<polygon fill="white" stroke="#666666" points="598.38,-137.5 481.12,-137.5 481.12,-104 598.38,-104 598.38,-137.5"/>
<text xml:space="preserve" text-anchor="start" x="489.12" y="-124" font-family="Helvetica,sans-Serif" font-size="10.00">mqtt::mqttbroker::lib</text>
<text xml:space="preserve" text-anchor="middle" x="539.75" y="-111.25" font-family="Helvetica,sans-Serif" font-size="10.00">::Mqtt::onPublish</text>
</a>
</g>
</g>
<!-- Node1&#45;&gt;Node5 -->
<g id="edge4_Node000001_Node000005" class="edge">
<title>Node1&#45;&gt;Node5</title>
<g id="a_edge4_Node000001_Node000005"><a xlink:title=" ">
<path fill="none" stroke="#63b8ff" d="M628.53,-140.06C618.52,-137.86 608.34,-135.62 598.63,-133.48"/>
<polygon fill="#63b8ff" stroke="#63b8ff" points="627.72,-143.46 638.24,-142.19 629.22,-136.63 627.72,-143.46"/>
</a>
</g>
</g>
<!-- Node9 -->
<g id="Node000009" class="node">
<title>Node9</title>
<g id="a_Node000009"><a xlink:href="classmqtt_1_1mqttbroker_1_1lib_1_1Mqtt.html#a80b6c272f831b6ebe2636503ec472622" target="_top" xlink:title=" ">
<polygon fill="white" stroke="#666666" points="598.38,-85.5 481.12,-85.5 481.12,-52 598.38,-52 598.38,-85.5"/>
<text xml:space="preserve" text-anchor="start" x="489.12" y="-72" font-family="Helvetica,sans-Serif" font-size="10.00">mqtt::mqttbroker::lib</text>
<text xml:space="preserve" text-anchor="middle" x="539.75" y="-59.25" font-family="Helvetica,sans-Serif" font-size="10.00">::Mqtt::onSubscribe</text>
</a>
</g>
</g>
<!-- Node1&#45;&gt;Node9 -->
<g id="edge11_Node000001_Node000009" class="edge">
<title>Node1&#45;&gt;Node9</title>
<g id="a_edge11_Node000001_Node000009"><a xlink:title=" ">
<path fill="none" stroke="#63b8ff" d="M666.28,-132.31C648.27,-120.28 625.43,-105.86 604,-94.75 598.1,-91.69 591.75,-88.72 585.44,-85.96"/>
<polygon fill="#63b8ff" stroke="#63b8ff" points="664.26,-135.17 674.5,-137.87 668.18,-129.37 664.26,-135.17"/>
</a>
</g>
</g>
<!-- Node11 -->
<g id="Node000011" class="node">
<title>Node11</title>
<g id="a_Node000011"><a xlink:href="classmqtt_1_1mqttbroker_1_1lib_1_1Mqtt.html#aa5da2b46790e6b966e6770c2eaedc74e" target="_top" xlink:title=" ">
<polygon fill="white" stroke="#666666" points="601,-33.5 478.5,-33.5 478.5,0 601,0 601,-33.5"/>
<text xml:space="preserve" text-anchor="start" x="486.5" y="-20" font-family="Helvetica,sans-Serif" font-size="10.00">mqtt::mqttbroker::lib</text>
<text xml:space="preserve" text-anchor="middle" x="539.75" y="-7.25" font-family="Helvetica,sans-Serif" font-size="10.00">::Mqtt::onUnsubscribe</text>
</a>
</g>
</g>
<!-- Node1&#45;&gt;Node11 -->
<g id="edge13_Node000001_Node000011" class="edge">
<title>Node1&#45;&gt;Node11</title>
<g id="a_edge13_Node000001_Node000011"><a xlink:title=" ">
<path fill="none" stroke="#63b8ff" d="M682.94,-129.27C665.7,-104.11 636.88,-66.66 604,-42.75 599.49,-39.47 594.5,-36.52 589.36,-33.88"/>
<polygon fill="#63b8ff" stroke="#63b8ff" points="679.87,-130.96 688.34,-137.32 685.68,-127.07 679.87,-130.96"/>
</a>
</g>
</g>
<!-- Node5&#45;&gt;Node5 -->
<g id="edge5_Node000005_Node000005" class="edge">
<title>Node5&#45;&gt;Node5</title>
<g id="a_edge5_Node000005_Node000005"><a xlink:title=" ">
<path fill="none" stroke="#63b8ff" d="M566.8,-148.89C562.4,-152.85 553.38,-155.5 539.75,-155.5 515.52,-155.5 505.86,-147.12 510.79,-137.91"/>
<polygon fill="#63b8ff" stroke="#63b8ff" points="570.19,-149.86 568.45,-139.41 563.29,-148.66 570.19,-149.86"/>
</a>
</g>
</g>
<!-- Node6 -->
<g id="Node000006" class="node">
<title>Node6</title>
<g id="a_Node000006"><a xlink:href="classmqtt_1_1mqttbroker_1_1lib_1_1Mqtt_1_1DelayedQueue.html#abe935c28141087ad3eadf41acab44702" target="_top" xlink:title=" ">
<polygon fill="white" stroke="#666666" points="439.5,-190.88 317,-190.88 317,-144.62 439.5,-144.62 439.5,-190.88"/>
<text xml:space="preserve" text-anchor="start" x="325" y="-177.38" font-family="Helvetica,sans-Serif" font-size="10.00">mqtt::mqttbroker::lib</text>
<text xml:space="preserve" text-anchor="start" x="325" y="-164.62" font-family="Helvetica,sans-Serif" font-size="10.00">::Mqtt::DelayedQueue</text>
<text xml:space="preserve" text-anchor="middle" x="378.25" y="-151.88" font-family="Helvetica,sans-Serif" font-size="10.00">::processDue</text>
</a>
</g>
</g>
<!-- Node5&#45;&gt;Node6 -->
<g id="edge6_Node000005_Node000006" class="edge">
<title>Node5&#45;&gt;Node6</title>
<g id="a_edge6_Node000005_Node000006"><a xlink:title=" ">
<path fill="none" stroke="#63b8ff" d="M469.99,-141.01C459.99,-143.96 449.75,-146.98 439.92,-149.87"/>
<polygon fill="#63b8ff" stroke="#63b8ff" points="470.66,-144.46 479.26,-138.28 468.68,-137.75 470.66,-144.46"/>
</a>
</g>
</g>
<!-- Node7 -->
<g id="Node000007" class="node">
<title>Node7</title>
<g id="a_Node000007"><a xlink:href="classmqtt_1_1mqttbroker_1_1lib_1_1Mqtt_1_1DelayedQueue.html#a8becf2d97fc0f71a12ae5e84ea8b2a66" target="_top" xlink:title=" ">
<polygon fill="white" stroke="#666666" points="281,-190.88 158.5,-190.88 158.5,-144.62 281,-144.62 281,-190.88"/>
<text xml:space="preserve" text-anchor="start" x="166.5" y="-177.38" font-family="Helvetica,sans-Serif" font-size="10.00">mqtt::mqttbroker::lib</text>
<text xml:space="preserve" text-anchor="start" x="166.5" y="-164.62" font-family="Helvetica,sans-Serif" font-size="10.00">::Mqtt::DelayedQueue</text>
<text xml:space="preserve" text-anchor="middle" x="219.75" y="-151.88" font-family="Helvetica,sans-Serif" font-size="10.00">::armDelayTimer</text>
</a>
</g>
</g>
<!-- Node6&#45;&gt;Node7 -->
<g id="edge7_Node000006_Node000007" class="edge">
<title>Node6&#45;&gt;Node7</title>
<g id="a_edge7_Node000006_Node000007"><a xlink:title=" ">
<path fill="none" stroke="#63b8ff" d="M305.45,-167.75C297.4,-167.75 289.25,-167.75 281.35,-167.75"/>
<polygon fill="#63b8ff" stroke="#63b8ff" points="305.23,-171.25 315.23,-167.75 305.23,-164.25 305.23,-171.25"/>
</a>
</g>
</g>
<!-- Node7&#45;&gt;Node7 -->
<g id="edge8_Node000007_Node000007" class="edge">
<title>Node7&#45;&gt;Node7</title>
<g id="a_edge8_Node000007_Node000007"><a xlink:title=" ">
<path fill="none" stroke="#63b8ff" d="M245.82,-201.61C241.31,-205.98 232.62,-208.88 219.75,-208.88 198.08,-208.88 188.26,-200.68 190.29,-191"/>
<polygon fill="#63b8ff" stroke="#63b8ff" points="249.04,-203.04 248.75,-192.44 242.37,-200.9 249.04,-203.04"/>
</a>
</g>
</g>
<!-- Node8 -->
<g id="Node000008" class="node">
<title>Node8</title>
<g id="a_Node000008"><a xlink:href="classmqtt_1_1mqttbroker_1_1lib_1_1Mqtt_1_1DelayedQueue.html#a0cea5b90a1434e82da43bd2f4c6dd47c" target="_top" xlink:title=" ">
<polygon fill="white" stroke="#666666" points="122.5,-164.88 0,-164.88 0,-118.62 122.5,-118.62 122.5,-164.88"/>
<text xml:space="preserve" text-anchor="start" x="8" y="-151.38" font-family="Helvetica,sans-Serif" font-size="10.00">mqtt::mqttbroker::lib</text>
<text xml:space="preserve" text-anchor="start" x="8" y="-138.62" font-family="Helvetica,sans-Serif" font-size="10.00">::Mqtt::DelayedQueue</text>
<text xml:space="preserve" text-anchor="middle" x="61.25" y="-125.88" font-family="Helvetica,sans-Serif" font-size="10.00">::delayPublish</text>
</a>
</g>
</g>
<!-- Node7&#45;&gt;Node8 -->
<g id="edge9_Node000007_Node000008" class="edge">
<title>Node7&#45;&gt;Node8</title>
<g id="a_edge9_Node000007_Node000008"><a xlink:title=" ">
<path fill="none" stroke="#63b8ff" d="M146.95,-155.82C138.9,-154.48 130.75,-153.13 122.85,-151.82"/>
<polygon fill="#63b8ff" stroke="#63b8ff" points="146.31,-159.26 156.75,-157.45 147.46,-152.36 146.31,-159.26"/>
</a>
</g>
</g>
<!-- Node8&#45;&gt;Node5 -->
<g id="edge10_Node000008_Node000005" class="edge">
<title>Node8&#45;&gt;Node5</title>
<g id="a_edge10_Node000008_Node000005"><a xlink:title=" ">
<path fill="none" stroke="#63b8ff" d="M134.3,-137.08C142.46,-136.6 150.66,-136.15 158.5,-135.75 272.65,-129.94 406.17,-125.13 480.75,-122.63"/>
<polygon fill="#63b8ff" stroke="#63b8ff" points="134.11,-133.58 124.33,-137.67 134.53,-140.57 134.11,-133.58"/>
</a>
</g>
</g>
<!-- Node10 -->
<g id="Node000010" class="node">
<title>Node10</title>
<g id="a_Node000010"><a xlink:href="classmqtt_1_1mqttbroker_1_1lib_1_1Mqtt.html#a42b9886e8735579c2ce7abee11dd693b" target="_top" xlink:title=" ">
<polygon fill="white" stroke="#666666" points="436.88,-85.5 319.62,-85.5 319.62,-52 436.88,-52 436.88,-85.5"/>
<text xml:space="preserve" text-anchor="start" x="327.62" y="-72" font-family="Helvetica,sans-Serif" font-size="10.00">mqtt::mqttbroker::lib</text>
<text xml:space="preserve" text-anchor="middle" x="378.25" y="-59.25" font-family="Helvetica,sans-Serif" font-size="10.00">::Mqtt::subscribe</text>
</a>
</g>
</g>
<!-- Node9&#45;&gt;Node10 -->
<g id="edge12_Node000009_Node000010" class="edge">
<title>Node9&#45;&gt;Node10</title>
<g id="a_edge12_Node000009_Node000010"><a xlink:title=" ">
<path fill="none" stroke="#63b8ff" d="M469.26,-68.75C458.57,-68.75 447.64,-68.75 437.24,-68.75"/>
<polygon fill="#63b8ff" stroke="#63b8ff" points="469.2,-72.25 479.2,-68.75 469.2,-65.25 469.2,-72.25"/>
</a>
</g>
</g>
<!-- Node12 -->
<g id="Node000012" class="node">
<title>Node12</title>
<g id="a_Node000012"><a xlink:href="classmqtt_1_1mqttbroker_1_1lib_1_1Mqtt.html#a053e11eb88a6b39fcd9eb22c0586c8cc" target="_top" xlink:title=" ">
<polygon fill="white" stroke="#666666" points="436.88,-33.5 319.62,-33.5 319.62,0 436.88,0 436.88,-33.5"/>
<text xml:space="preserve" text-anchor="start" x="327.62" y="-20" font-family="Helvetica,sans-Serif" font-size="10.00">mqtt::mqttbroker::lib</text>
<text xml:space="preserve" text-anchor="middle" x="378.25" y="-7.25" font-family="Helvetica,sans-Serif" font-size="10.00">::Mqtt::unsubscribe</text>
</a>
</g>
</g>
<!-- Node11&#45;&gt;Node12 -->
<g id="edge14_Node000011_Node000012" class="edge">
<title>Node11&#45;&gt;Node12</title>
<g id="a_edge14_Node000011_Node000012"><a xlink:title=" ">
<path fill="none" stroke="#63b8ff" d="M467.23,-16.75C457.2,-16.75 447,-16.75 437.26,-16.75"/>
<polygon fill="#63b8ff" stroke="#63b8ff" points="466.94,-20.25 476.94,-16.75 466.94,-13.25 466.94,-20.25"/>
</a>
</g>
</g>
</g>
</svg>
