<?xml version="1.0" encoding="UTF-8" standalone="no"?>
<!DOCTYPE svg PUBLIC "-//W3C//DTD SVG 1.1//EN"
 "http://www.w3.org/Graphics/SVG/1.1/DTD/svg11.dtd">
<!-- Generated by graphviz version 2.42.4 (0)
 -->
<!-- Title: anonymous_namespace{json&#45;validator.cpp}::array Pages: 1 -->
<svg width="638pt" height="894pt"
 viewBox="0.00 0.00 638.00 894.00" xmlns="http://www.w3.org/2000/svg" xmlns:xlink="http://www.w3.org/1999/xlink">
<g id="graph0" class="graph" transform="scale(1 1) rotate(0) translate(4 890)">
<title>anonymous_namespace{json&#45;validator.cpp}::array</title>
<!-- Node1 -->
<g id="Node000001" class="node">
<title>Node1</title>
<g id="a_Node000001"><a xlink:title=" ">
<polygon fill="#999999" stroke="transparent" points="420,-41 292,-41 292,0 420,0 420,-41"/>
<text text-anchor="start" x="296.5" y="-28.5" font-family="Helvetica,sans-Serif" font-size="10.00">anonymous_namespace</text>
<text text-anchor="start" x="296.5" y="-17.5" font-family="Helvetica,sans-Serif" font-size="10.00">{json&#45;validator.cpp}</text>
<text text-anchor="start" x="340" y="-6.5" font-family="Helvetica,sans-Serif" font-size="10.00">::array</text>
<polygon fill="none" stroke="#666666" points="292,0 292,-41 420,-41 420,0 292,0"/>
</a>
</g>
</g>
<!-- Node2 -->
<g id="Node000002" class="node">
<title>Node2</title>
<g id="a_Node000002"><a xlink:href="classanonymous__namespace_02json-validator_8cpp_03_1_1schema.html" target="_top" xlink:title=" ">
<polygon fill="white" stroke="transparent" points="546,-364 418,-364 418,-323 546,-323 546,-364"/>
<text text-anchor="start" x="422.5" y="-351.5" font-family="Helvetica,sans-Serif" font-size="10.00">anonymous_namespace</text>
<text text-anchor="start" x="422.5" y="-340.5" font-family="Helvetica,sans-Serif" font-size="10.00">{json&#45;validator.cpp}</text>
<text text-anchor="start" x="459.5" y="-329.5" font-family="Helvetica,sans-Serif" font-size="10.00">::schema</text>
<polygon fill="none" stroke="#666666" points="418,-323 418,-364 546,-364 546,-323 418,-323"/>
</a>
</g>
</g>
<!-- Node2&#45;&gt;Node1 -->
<g id="edge1_Node000001_Node000002" class="edge">
<title>Node2&#45;&gt;Node1</title>
<g id="a_edge1_Node000001_Node000002"><a xlink:title=" ">
<path fill="none" stroke="#63b8ff" d="M474.13,-312.65C473,-295.13 473,-272.56 473,-252.5 473,-252.5 473,-252.5 473,-118.5 473,-81.23 437.96,-56.29 406.16,-41.05"/>
<polygon fill="none" stroke="#63b8ff" points="470.67,-313.17 475,-322.84 477.64,-312.58 470.67,-313.17"/>
</a>
</g>
</g>
<!-- Node2&#45;&gt;Node1 -->
<g id="edge16_Node000001_Node000002" class="edge">
<title>Node2&#45;&gt;Node1</title>
<g id="a_edge16_Node000001_Node000002"><a xlink:title=" ">
<path fill="none" stroke="#63b8ff" d="M489.87,-312.65C491,-295.13 491,-272.56 491,-252.5 491,-252.5 491,-252.5 491,-118.5 491,-80.82 455.18,-55.74 420.37,-40.54"/>
<polygon fill="none" stroke="#63b8ff" points="486.36,-312.58 489,-322.84 493.33,-313.17 486.36,-312.58"/>
</a>
</g>
</g>
<!-- Node3 -->
<g id="Node000003" class="node">
<title>Node3</title>
<g id="a_Node000003"><a xlink:href="classnlohmann_1_1json__schema_1_1root__schema.html" target="_top" xlink:title=" ">
<polygon fill="white" stroke="transparent" points="384,-489 256,-489 256,-459 384,-459 384,-489"/>
<text text-anchor="start" x="260.5" y="-477" font-family="Helvetica,sans-Serif" font-size="10.00">nlohmann::json_schema</text>
<text text-anchor="start" x="285" y="-466" font-family="Helvetica,sans-Serif" font-size="10.00">::root_schema</text>
<polygon fill="none" stroke="#666666" points="256,-459 256,-489 384,-489 384,-459 256,-459"/>
</a>
</g>
</g>
<!-- Node3&#45;&gt;Node2 -->
<g id="edge2_Node000002_Node000003" class="edge">
<title>Node3&#45;&gt;Node2</title>
<g id="a_edge2_Node000002_Node000003"><a xlink:title=" ">
<path fill="none" stroke="#63b8ff" d="M342.59,-458.82C360.97,-446.98 387.33,-429.29 409,-412 424.2,-399.87 440.16,-385.34 453.26,-372.88"/>
<polygon fill="none" stroke="#63b8ff" points="453.6,-372.55 455.16,-365.51 462.25,-364.23 460.7,-371.28 453.6,-372.55"/>
</a>
</g>
<text text-anchor="middle" x="401.5" y="-433" font-family="Helvetica,sans-Serif" font-size="10.00" fill="grey"> #root_</text>
</g>
<!-- Node16 -->
<g id="Node000016" class="node">
<title>Node16</title>
<g id="a_Node000016"><a xlink:title=" ">
<polygon fill="white" stroke="transparent" points="400,-412 240,-412 240,-382 400,-382 400,-412"/>
<text text-anchor="start" x="244.5" y="-400" font-family="Helvetica,sans-Serif" font-size="10.00">std::unique_ptr&lt; nlohmann</text>
<text text-anchor="start" x="244.5" y="-389" font-family="Helvetica,sans-Serif" font-size="10.00">::json_schema::root_schema &gt;</text>
<polygon fill="none" stroke="#666666" points="240,-382 240,-412 400,-412 400,-382 240,-382"/>
</a>
</g>
</g>
<!-- Node3&#45;&gt;Node16 -->
<g id="edge21_Node000016_Node000003" class="edge">
<title>Node3&#45;&gt;Node16</title>
<g id="a_edge21_Node000016_Node000003"><a xlink:title=" ">
<path fill="none" stroke="#63b8ff" d="M320,-458.89C320,-449.15 320,-435.9 320,-424.25"/>
<polygon fill="none" stroke="#63b8ff" points="320,-424.04 316,-418.04 320,-412.04 324,-418.04 320,-424.04"/>
</a>
</g>
<text text-anchor="middle" x="332.5" y="-433" font-family="Helvetica,sans-Serif" font-size="10.00" fill="grey"> +ptr</text>
</g>
<!-- Node4 -->
<g id="Node000004" class="node">
<title>Node4</title>
<g id="a_Node000004"><a xlink:title=" ">
<polygon fill="white" stroke="transparent" points="160,-813.5 18,-813.5 18,-794.5 160,-794.5 160,-813.5"/>
<text text-anchor="start" x="22" y="-801" font-family="Helvetica,sans-Serif" font-size="10.00">std::shared_ptr&lt; schema &gt;</text>
<polygon fill="none" stroke="#666666" points="18,-794.5 18,-813.5 160,-813.5 160,-794.5 18,-794.5"/>
</a>
</g>
</g>
<!-- Node4&#45;&gt;Node3 -->
<g id="edge3_Node000003_Node000004" class="edge">
<title>Node4&#45;&gt;Node3</title>
<g id="a_edge3_Node000003_Node000004"><a xlink:title=" ">
<path fill="none" stroke="#63b8ff" d="M80.71,-794.4C68.21,-780.49 46,-751.65 46,-722.5 46,-722.5 46,-722.5 46,-555.5 46,-514.12 162.5,-492.48 243.57,-482.43"/>
<polygon fill="none" stroke="#63b8ff" points="243.84,-482.39 249.33,-477.71 255.76,-480.97 250.28,-485.65 243.84,-482.39"/>
</a>
</g>
<text text-anchor="middle" x="62" y="-636.5" font-family="Helvetica,sans-Serif" font-size="10.00" fill="grey"> &#45;root_</text>
</g>
<!-- Node9 -->
<g id="Node000009" class="node">
<title>Node9</title>
<g id="a_Node000009"><a xlink:title=" ">
<polygon fill="white" stroke="transparent" points="230,-736.5 74,-736.5 74,-706.5 230,-706.5 230,-736.5"/>
<text text-anchor="start" x="78" y="-724.5" font-family="Helvetica,sans-Serif" font-size="10.00">std::map&lt; std::string,</text>
<text text-anchor="start" x="78" y="-713.5" font-family="Helvetica,sans-Serif" font-size="10.00"> std::shared_ptr&lt; schema &gt; &gt;</text>
<polygon fill="none" stroke="#666666" points="74,-706.5 74,-736.5 230,-736.5 230,-706.5 74,-706.5"/>
</a>
</g>
</g>
<!-- Node4&#45;&gt;Node9 -->
<g id="edge10_Node000009_Node000004" class="edge">
<title>Node4&#45;&gt;Node9</title>
<g id="a_edge10_Node000009_Node000004"><a xlink:title=" ">
<path fill="none" stroke="#63b8ff" d="M94.43,-794.18C100.01,-785.3 109.11,-771.34 118,-760 121.73,-755.24 125.92,-750.32 130.04,-745.68"/>
<polygon fill="none" stroke="#63b8ff" points="130.17,-745.54 131.26,-738.42 138.26,-736.68 137.17,-743.81 130.17,-745.54"/>
</a>
</g>
<text text-anchor="middle" x="147" y="-763" font-family="Helvetica,sans-Serif" font-size="10.00" fill="grey"> +elements</text>
</g>
<!-- Node5 -->
<g id="Node000005" class="node">
<title>Node5</title>
<g id="a_Node000005"><a xlink:title=" ">
<polygon fill="white" stroke="transparent" points="397,-577 243,-577 243,-536 397,-536 397,-577"/>
<text text-anchor="start" x="247" y="-564.5" font-family="Helvetica,sans-Serif" font-size="10.00">std::map&lt; std::string,</text>
<text text-anchor="start" x="247" y="-553.5" font-family="Helvetica,sans-Serif" font-size="10.00"> nlohmann::json_schema</text>
<text text-anchor="start" x="247" y="-542.5" font-family="Helvetica,sans-Serif" font-size="10.00">::root_schema::schema_file &gt;</text>
<polygon fill="none" stroke="#666666" points="243,-536 243,-577 397,-577 397,-536 243,-536"/>
</a>
</g>
</g>
<!-- Node5&#45;&gt;Node3 -->
<g id="edge4_Node000003_Node000005" class="edge">
<title>Node5&#45;&gt;Node3</title>
<g id="a_edge4_Node000003_Node000005"><a xlink:title=" ">
<path fill="none" stroke="#63b8ff" d="M320,-535.6C320,-525.29 320,-512.57 320,-501.45"/>
<polygon fill="none" stroke="#63b8ff" points="320,-501.37 316,-495.37 320,-489.37 324,-495.37 320,-501.37"/>
</a>
</g>
<text text-anchor="middle" x="337" y="-510" font-family="Helvetica,sans-Serif" font-size="10.00" fill="grey"> &#45;files_</text>
</g>
<!-- Node6 -->
<g id="Node000006" class="node">
<title>Node6</title>
<g id="a_Node000006"><a xlink:title=" ">
<polygon fill="white" stroke="transparent" points="274,-813.5 216,-813.5 216,-794.5 274,-794.5 274,-813.5"/>
<text text-anchor="start" x="220.5" y="-801" font-family="Helvetica,sans-Serif" font-size="10.00">std::string</text>
<polygon fill="none" stroke="#666666" points="216,-794.5 216,-813.5 274,-813.5 274,-794.5 216,-794.5"/>
</a>
</g>
</g>
<!-- Node6&#45;&gt;Node5 -->
<g id="edge5_Node000005_Node000006" class="edge">
<title>Node6&#45;&gt;Node5</title>
<g id="a_edge5_Node000005_Node000006"><a xlink:title=" ">
<path fill="none" stroke="#63b8ff" d="M245.34,-794.47C246.62,-768.16 252.46,-686.26 277,-624 282.08,-611.11 289.83,-598.06 297.35,-586.98"/>
<polygon fill="none" stroke="#63b8ff" points="297.47,-586.81 297.67,-579.61 304.4,-577.02 304.2,-584.23 297.47,-586.81"/>
</a>
</g>
<text text-anchor="middle" x="279" y="-675" font-family="Helvetica,sans-Serif" font-size="10.00" fill="grey"> +keys</text>
</g>
<!-- Node6&#45;&gt;Node9 -->
<g id="edge9_Node000009_Node000006" class="edge">
<title>Node6&#45;&gt;Node9</title>
<g id="a_edge9_Node000009_Node000006"><a xlink:title=" ">
<path fill="none" stroke="#63b8ff" d="M235.05,-794.39C221.48,-782.64 196.7,-761.19 177.73,-744.77"/>
<polygon fill="none" stroke="#63b8ff" points="177.5,-744.57 170.34,-743.67 168.43,-736.72 175.58,-737.62 177.5,-744.57"/>
</a>
</g>
<text text-anchor="middle" x="224" y="-763" font-family="Helvetica,sans-Serif" font-size="10.00" fill="grey"> +keys</text>
</g>
<!-- Node10 -->
<g id="Node000010" class="node">
<title>Node10</title>
<g id="a_Node000010"><a xlink:title=" ">
<polygon fill="white" stroke="transparent" points="420,-742 286,-742 286,-701 420,-701 420,-742"/>
<text text-anchor="start" x="290" y="-729.5" font-family="Helvetica,sans-Serif" font-size="10.00">std::map&lt; std::string,</text>
<text text-anchor="start" x="290" y="-718.5" font-family="Helvetica,sans-Serif" font-size="10.00"> std::shared_ptr&lt; schema</text>
<text text-anchor="start" x="332" y="-707.5" font-family="Helvetica,sans-Serif" font-size="10.00">_ref &gt; &gt;</text>
<polygon fill="none" stroke="#666666" points="286,-701 286,-742 420,-742 420,-701 286,-701"/>
</a>
</g>
</g>
<!-- Node6&#45;&gt;Node10 -->
<g id="edge12_Node000010_Node000006" class="edge">
<title>Node6&#45;&gt;Node10</title>
<g id="a_edge12_Node000010_Node000006"><a xlink:title=" ">
<path fill="none" stroke="#63b8ff" d="M256.56,-794.39C270.93,-783.67 296.15,-764.88 317.19,-749.19"/>
<polygon fill="none" stroke="#63b8ff" points="317.19,-749.19 319.61,-742.4 326.81,-742.02 324.39,-748.81 317.19,-749.19"/>
</a>
</g>
<text text-anchor="middle" x="320" y="-763" font-family="Helvetica,sans-Serif" font-size="10.00" fill="grey"> +keys</text>
</g>
<!-- Node7 -->
<g id="Node000007" class="node">
<title>Node7</title>
<g id="a_Node000007"><a xlink:title=" ">
<polygon fill="white" stroke="transparent" points="293,-886 197,-886 197,-856 293,-856 293,-886"/>
<text text-anchor="start" x="201" y="-874" font-family="Helvetica,sans-Serif" font-size="10.00">std::basic_string&lt;</text>
<text text-anchor="start" x="226.5" y="-863" font-family="Helvetica,sans-Serif" font-size="10.00"> Char &gt;</text>
<polygon fill="none" stroke="#666666" points="197,-856 197,-886 293,-886 293,-856 197,-856"/>
</a>
</g>
</g>
<!-- Node7&#45;&gt;Node6 -->
<g id="edge6_Node000006_Node000007" class="edge">
<title>Node7&#45;&gt;Node6</title>
<g id="a_edge6_Node000006_Node000007"><a xlink:title=" ">
<path fill="none" stroke="#63b8ff" d="M245,-845.75C245,-834.52 245,-821.88 245,-813.69"/>
<polygon fill="none" stroke="#63b8ff" points="241.5,-845.9 245,-855.9 248.5,-845.9 241.5,-845.9"/>
</a>
</g>
</g>
<!-- Node8 -->
<g id="Node000008" class="node">
<title>Node8</title>
<g id="a_Node000008"><a xlink:href="structnlohmann_1_1json__schema_1_1root__schema_1_1schema__file.html" target="_top" xlink:title=" ">
<polygon fill="white" stroke="transparent" points="430,-654 286,-654 286,-624 430,-624 430,-654"/>
<text text-anchor="start" x="290.5" y="-642" font-family="Helvetica,sans-Serif" font-size="10.00">nlohmann::json_schema</text>
<text text-anchor="start" x="290.5" y="-631" font-family="Helvetica,sans-Serif" font-size="10.00">::root_schema::schema_file</text>
<polygon fill="none" stroke="#666666" points="286,-624 286,-654 430,-654 430,-624 286,-624"/>
</a>
</g>
</g>
<!-- Node8&#45;&gt;Node5 -->
<g id="edge7_Node000005_Node000008" class="edge">
<title>Node8&#45;&gt;Node5</title>
<g id="a_edge7_Node000005_Node000008"><a xlink:title=" ">
<path fill="none" stroke="#63b8ff" d="M351.38,-623.98C346.69,-614.05 340.22,-600.34 334.37,-587.95"/>
<polygon fill="none" stroke="#63b8ff" points="334.37,-587.94 328.19,-584.22 329.25,-577.09 335.43,-580.81 334.37,-587.94"/>
</a>
</g>
<text text-anchor="middle" x="371" y="-598" font-family="Helvetica,sans-Serif" font-size="10.00" fill="grey"> +elements</text>
</g>
<!-- Node9&#45;&gt;Node8 -->
<g id="edge8_Node000008_Node000009" class="edge">
<title>Node9&#45;&gt;Node8</title>
<g id="a_edge8_Node000008_Node000009"><a xlink:title=" ">
<path fill="none" stroke="#63b8ff" d="M156.75,-706.3C161.23,-695.18 169.06,-680.26 181,-672 196.29,-661.42 235.67,-653.75 273.41,-648.59"/>
<polygon fill="none" stroke="#63b8ff" points="273.68,-648.55 279.11,-643.81 285.58,-646.99 280.15,-651.74 273.68,-648.55"/>
</a>
</g>
<text text-anchor="middle" x="208.5" y="-675" font-family="Helvetica,sans-Serif" font-size="10.00" fill="grey"> +schemas</text>
</g>
<!-- Node10&#45;&gt;Node8 -->
<g id="edge11_Node000008_Node000010" class="edge">
<title>Node10&#45;&gt;Node8</title>
<g id="a_edge11_Node000008_Node000010"><a xlink:title=" ">
<path fill="none" stroke="#63b8ff" d="M339.39,-700.82C334.98,-692.05 331.92,-681.57 335,-672 335.84,-669.41 336.97,-666.85 338.28,-664.37"/>
<polygon fill="none" stroke="#63b8ff" points="338.34,-664.29 338.26,-657.08 344.88,-654.23 344.96,-661.44 338.34,-664.29"/>
</a>
</g>
<text text-anchor="middle" x="368" y="-675" font-family="Helvetica,sans-Serif" font-size="10.00" fill="grey"> +unresolved</text>
</g>
<!-- Node11 -->
<g id="Node000011" class="node">
<title>Node11</title>
<g id="a_Node000011"><a xlink:title=" ">
<polygon fill="white" stroke="transparent" points="424,-819 292,-819 292,-789 424,-789 424,-819"/>
<text text-anchor="start" x="296.5" y="-807" font-family="Helvetica,sans-Serif" font-size="10.00">std::shared_ptr&lt; schema</text>
<text text-anchor="start" x="342.5" y="-796" font-family="Helvetica,sans-Serif" font-size="10.00">_ref &gt;</text>
<polygon fill="none" stroke="#666666" points="292,-789 292,-819 424,-819 424,-789 292,-789"/>
</a>
</g>
</g>
<!-- Node11&#45;&gt;Node10 -->
<g id="edge13_Node000010_Node000011" class="edge">
<title>Node11&#45;&gt;Node10</title>
<g id="a_edge13_Node000010_Node000011"><a xlink:title=" ">
<path fill="none" stroke="#63b8ff" d="M357.13,-788.98C356.53,-779.35 355.71,-766.17 354.96,-754.09"/>
<polygon fill="none" stroke="#63b8ff" points="354.96,-754.07 350.6,-748.33 354.22,-742.09 358.58,-747.83 354.96,-754.07"/>
</a>
</g>
<text text-anchor="middle" x="384" y="-763" font-family="Helvetica,sans-Serif" font-size="10.00" fill="grey"> +elements</text>
</g>
<!-- Node12 -->
<g id="Node000012" class="node">
<title>Node12</title>
<g id="a_Node000012"><a xlink:title=" ">
<polygon fill="white" stroke="transparent" points="515,-731 485,-731 485,-712 515,-712 515,-731"/>
<text text-anchor="start" x="489.5" y="-718.5" font-family="Helvetica,sans-Serif" font-size="10.00">json</text>
<polygon fill="none" stroke="#666666" points="485,-712 485,-731 515,-731 515,-712 485,-712"/>
</a>
</g>
</g>
<!-- Node12&#45;&gt;Node2 -->
<g id="edge15_Node000002_Node000012" class="edge">
<title>Node12&#45;&gt;Node2</title>
<g id="a_edge15_Node000002_Node000012"><a xlink:title=" ">
<path fill="none" stroke="#63b8ff" d="M509.26,-711.72C516.34,-704.57 525.89,-693.9 532,-683 541.82,-665.46 546,-660.1 546,-640 546,-640 546,-640 546,-434.5 546,-410.94 531.25,-389.26 515.92,-373.09"/>
<polygon fill="none" stroke="#63b8ff" points="515.47,-372.65 508.39,-371.29 506.93,-364.23 514.01,-365.59 515.47,-372.65"/>
</a>
</g>
<text text-anchor="middle" x="588" y="-554" font-family="Helvetica,sans-Serif" font-size="10.00" fill="grey"> #default_value_</text>
</g>
<!-- Node12&#45;&gt;Node8 -->
<g id="edge14_Node000008_Node000012" class="edge">
<title>Node12&#45;&gt;Node8</title>
<g id="a_edge14_Node000008_Node000012"><a xlink:title=" ">
<path fill="none" stroke="#63b8ff" d="M484.87,-713.69C469.34,-706.54 444.58,-694.73 424,-683 412.02,-676.18 399.25,-668.06 388.16,-660.73"/>
<polygon fill="none" stroke="#63b8ff" points="388.09,-660.68 380.88,-660.67 378.12,-654 385.33,-654.02 388.09,-660.68"/>
</a>
</g>
<text text-anchor="middle" x="478" y="-675" font-family="Helvetica,sans-Serif" font-size="10.00" fill="grey"> +unknown_keywords</text>
</g>
<!-- Node13 -->
<g id="Node000013" class="node">
<title>Node13</title>
<g id="a_Node000013"><a xlink:title=" ">
<polygon fill="white" stroke="transparent" points="320,-129 194,-129 194,-110 320,-110 320,-129"/>
<text text-anchor="start" x="198" y="-116.5" font-family="Helvetica,sans-Serif" font-size="10.00">std::pair&lt; bool, size_t &gt;</text>
<polygon fill="none" stroke="#666666" points="194,-110 194,-129 320,-129 320,-110 194,-110"/>
</a>
</g>
</g>
<!-- Node13&#45;&gt;Node1 -->
<g id="edge17_Node000001_Node000013" class="edge">
<title>Node13&#45;&gt;Node1</title>
<g id="a_edge17_Node000001_Node000013"><a xlink:title=" ">
<path fill="none" stroke="#63b8ff" d="M258.32,-109.77C260.64,-97.15 266.55,-73.71 280,-59 283.73,-54.92 288,-51.23 292.58,-47.9"/>
<polygon fill="none" stroke="#63b8ff" points="292.9,-47.69 295.78,-41.08 302.99,-41.19 300.11,-47.8 292.9,-47.69"/>
</a>
</g>
<text text-anchor="middle" x="311" y="-73" font-family="Helvetica,sans-Serif" font-size="10.00" fill="grey"> &#45;maxItems_</text>
<text text-anchor="middle" x="311" y="-62" font-family="Helvetica,sans-Serif" font-size="10.00" fill="grey">&#45;minItems_</text>
</g>
<!-- Node14 -->
<g id="Node000014" class="node">
<title>Node14</title>
<g id="a_Node000014"><a xlink:title=" ">
<polygon fill="white" stroke="transparent" points="405,-228 235,-228 235,-187 405,-187 405,-228"/>
<text text-anchor="start" x="239" y="-215.5" font-family="Helvetica,sans-Serif" font-size="10.00">std::shared_ptr&lt; anonymous</text>
<text text-anchor="start" x="239" y="-204.5" font-family="Helvetica,sans-Serif" font-size="10.00">_namespace{json&#45;validator.cpp}</text>
<text text-anchor="start" x="292" y="-193.5" font-family="Helvetica,sans-Serif" font-size="10.00">::schema &gt;</text>
<polygon fill="none" stroke="#666666" points="235,-187 235,-228 405,-228 405,-187 235,-187"/>
</a>
</g>
</g>
<!-- Node14&#45;&gt;Node1 -->
<g id="edge18_Node000001_Node000014" class="edge">
<title>Node14&#45;&gt;Node1</title>
<g id="a_edge18_Node000001_Node000014"><a xlink:title=" ">
<path fill="none" stroke="#63b8ff" d="M323.85,-186.7C330.08,-154.71 342.4,-91.38 349.85,-53.1"/>
<polygon fill="none" stroke="#63b8ff" points="349.88,-52.93 347.1,-46.28 352.18,-41.16 354.96,-47.81 349.88,-52.93"/>
</a>
</g>
<text text-anchor="middle" x="384.5" y="-128" font-family="Helvetica,sans-Serif" font-size="10.00" fill="grey"> &#45;additionalItems_</text>
<text text-anchor="middle" x="384.5" y="-117" font-family="Helvetica,sans-Serif" font-size="10.00" fill="grey">&#45;contains_</text>
<text text-anchor="middle" x="384.5" y="-106" font-family="Helvetica,sans-Serif" font-size="10.00" fill="grey">&#45;items_schema_</text>
</g>
<!-- Node17 -->
<g id="Node000017" class="node">
<title>Node17</title>
<g id="a_Node000017"><a xlink:title=" ">
<polygon fill="white" stroke="transparent" points="176,-140 0,-140 0,-99 176,-99 176,-140"/>
<text text-anchor="start" x="4.5" y="-127.5" font-family="Helvetica,sans-Serif" font-size="10.00">std::vector&lt; std::shared</text>
<text text-anchor="start" x="4.5" y="-116.5" font-family="Helvetica,sans-Serif" font-size="10.00">_ptr&lt; anonymous_namespace</text>
<text text-anchor="start" x="4.5" y="-105.5" font-family="Helvetica,sans-Serif" font-size="10.00">{json&#45;validator.cpp}::schema &gt; &gt;</text>
<polygon fill="none" stroke="#666666" points="0,-99 0,-140 176,-140 176,-99 0,-99"/>
</a>
</g>
</g>
<!-- Node14&#45;&gt;Node17 -->
<g id="edge23_Node000017_Node000014" class="edge">
<title>Node14&#45;&gt;Node17</title>
<g id="a_edge23_Node000017_Node000014"><a xlink:title=" ">
<path fill="none" stroke="#63b8ff" d="M267.36,-186.99C233.22,-174.33 188.51,-157.76 152.28,-144.33"/>
<polygon fill="none" stroke="#63b8ff" points="152.09,-144.26 145.07,-145.92 140.84,-140.09 147.85,-138.42 152.09,-144.26"/>
</a>
</g>
<text text-anchor="middle" x="247" y="-161" font-family="Helvetica,sans-Serif" font-size="10.00" fill="grey"> +elements</text>
</g>
<!-- Node15 -->
<g id="Node000015" class="node">
<title>Node15</title>
<g id="a_Node000015"><a xlink:href="classnlohmann_1_1json__schema_1_1json__validator.html" target="_top" xlink:title=" ">
<polygon fill="white" stroke="transparent" points="384,-305 256,-305 256,-275 384,-275 384,-305"/>
<text text-anchor="start" x="260.5" y="-293" font-family="Helvetica,sans-Serif" font-size="10.00">nlohmann::json_schema</text>
<text text-anchor="start" x="282" y="-282" font-family="Helvetica,sans-Serif" font-size="10.00">::json_validator</text>
<polygon fill="none" stroke="#666666" points="256,-275 256,-305 384,-305 384,-275 256,-275"/>
</a>
</g>
</g>
<!-- Node15&#45;&gt;Node14 -->
<g id="edge19_Node000014_Node000015" class="edge">
<title>Node15&#45;&gt;Node14</title>
<g id="a_edge19_Node000014_Node000015"><a xlink:title=" ">
<path fill="none" stroke="#63b8ff" d="M320,-274.98C320,-265.35 320,-252.17 320,-240.09"/>
<polygon fill="none" stroke="#63b8ff" points="320,-240.09 316,-234.09 320,-228.09 324,-234.09 320,-240.09"/>
</a>
</g>
<text text-anchor="middle" x="332.5" y="-249" font-family="Helvetica,sans-Serif" font-size="10.00" fill="grey"> +ptr</text>
</g>
<!-- Node16&#45;&gt;Node15 -->
<g id="edge20_Node000015_Node000016" class="edge">
<title>Node16&#45;&gt;Node15</title>
<g id="a_edge20_Node000015_Node000016"><a xlink:title=" ">
<path fill="none" stroke="#63b8ff" d="M320,-381.84C320,-365.4 320,-337.93 320,-317.5"/>
<polygon fill="none" stroke="#63b8ff" points="320,-317.27 316,-311.27 320,-305.27 324,-311.27 320,-317.27"/>
</a>
</g>
<text text-anchor="middle" x="336" y="-341" font-family="Helvetica,sans-Serif" font-size="10.00" fill="grey"> &#45;root_</text>
</g>
<!-- Node17&#45;&gt;Node1 -->
<g id="edge22_Node000001_Node000017" class="edge">
<title>Node17&#45;&gt;Node1</title>
<g id="a_edge22_Node000001_Node000017"><a xlink:title=" ">
<path fill="none" stroke="#63b8ff" d="M128.78,-98.93C155.49,-86.54 191.37,-70.71 224,-59 242.02,-52.53 261.73,-46.43 280.3,-41.1"/>
<polygon fill="none" stroke="#63b8ff" points="280.45,-41.06 285.14,-35.58 292,-37.8 287.31,-43.28 280.45,-41.06"/>
</a>
</g>
<text text-anchor="middle" x="244" y="-67.5" font-family="Helvetica,sans-Serif" font-size="10.00" fill="grey"> &#45;items_</text>
</g>
</g>
</svg>
