<?xml version="1.0" encoding="UTF-8" standalone="no"?>
<!DOCTYPE svg PUBLIC "-//W3C//DTD SVG 1.1//EN"
 "http://www.w3.org/Graphics/SVG/1.1/DTD/svg11.dtd">
<!-- Generated by graphviz version 2.42.4 (0)
 -->
<!-- Title: inja::Environment::parse_template Pages: 1 -->
<svg width="1952pt" height="731pt"
 viewBox="0.00 0.00 1952.00 730.50" xmlns="http://www.w3.org/2000/svg" xmlns:xlink="http://www.w3.org/1999/xlink">
<g id="graph0" class="graph" transform="scale(1 1) rotate(0) translate(4 726.5)">
<title>inja::Environment::parse_template</title>
<!-- Node1 -->
<g id="Node000001" class="node">
<title>Node1</title>
<g id="a_Node000001"><a xlink:title=" ">
<polygon fill="#999999" stroke="#666666" points="109,-620 0,-620 0,-590 109,-590 109,-620"/>
<text text-anchor="start" x="8" y="-608" font-family="Helvetica,sans-Serif" font-size="10.00">inja::Environment::</text>
<text text-anchor="middle" x="54.5" y="-597" font-family="Helvetica,sans-Serif" font-size="10.00">parse_template</text>
</a>
</g>
</g>
<!-- Node2 -->
<g id="Node000002" class="node">
<title>Node2</title>
<g id="a_Node000002"><a xlink:href="classinja_1_1Parser.html#a08f9845245e383ab99e73b200c3cdb5f" target="_top" xlink:title=" ">
<polygon fill="white" stroke="#666666" points="264,-722.5 145,-722.5 145,-703.5 264,-703.5 264,-722.5"/>
<text text-anchor="middle" x="204.5" y="-710.5" font-family="Helvetica,sans-Serif" font-size="10.00">inja::Parser::load_file</text>
</a>
</g>
</g>
<!-- Node1&#45;&gt;Node2 -->
<g id="edge1_Node000001_Node000002" class="edge">
<title>Node1&#45;&gt;Node2</title>
<g id="a_edge1_Node000001_Node000002"><a xlink:title=" ">
<path fill="none" stroke="#63b8ff" d="M68.41,-620.11C84.71,-638.43 114.35,-669.29 145,-689 151.16,-692.96 158.08,-696.49 164.94,-699.53"/>
<polygon fill="#63b8ff" stroke="#63b8ff" points="163.62,-702.77 174.2,-703.39 166.31,-696.31 163.62,-702.77"/>
</a>
</g>
</g>
<!-- Node5 -->
<g id="Node000005" class="node">
<title>Node5</title>
<g id="a_Node000005"><a xlink:href="classinja_1_1Parser.html#a8c6a03b6665745f216ba86f5e514a913" target="_top" xlink:title=" ">
<polygon fill="white" stroke="#666666" points="256.5,-577 152.5,-577 152.5,-547 256.5,-547 256.5,-577"/>
<text text-anchor="start" x="160.5" y="-565" font-family="Helvetica,sans-Serif" font-size="10.00">inja::Parser::parse</text>
<text text-anchor="middle" x="204.5" y="-554" font-family="Helvetica,sans-Serif" font-size="10.00">_into_template</text>
</a>
</g>
</g>
<!-- Node1&#45;&gt;Node5 -->
<g id="edge4_Node000001_Node000005" class="edge">
<title>Node1&#45;&gt;Node5</title>
<g id="a_edge4_Node000001_Node000005"><a xlink:title=" ">
<path fill="none" stroke="#63b8ff" d="M107.26,-589.96C118.66,-586.65 130.83,-583.11 142.55,-579.71"/>
<polygon fill="#63b8ff" stroke="#63b8ff" points="143.64,-583.04 152.27,-576.89 141.69,-576.31 143.64,-583.04"/>
</a>
</g>
</g>
<!-- Node36 -->
<g id="Node000036" class="node">
<title>Node36</title>
<g id="a_Node000036"><a xlink:href="structinja_1_1Template.html#a0f073d8168095f8ce86d0c7ac9060948" target="_top" xlink:title=" ">
<polygon fill="white" stroke="#666666" points="887,-652.5 750,-652.5 750,-633.5 887,-633.5 887,-652.5"/>
<text text-anchor="middle" x="818.5" y="-640.5" font-family="Helvetica,sans-Serif" font-size="10.00">inja::Template::Template</text>
</a>
</g>
</g>
<!-- Node1&#45;&gt;Node36 -->
<g id="edge65_Node000001_Node000036" class="edge">
<title>Node1&#45;&gt;Node36</title>
<g id="a_edge65_Node000001_Node000036"><a xlink:title=" ">
<path fill="none" stroke="#63b8ff" d="M95.14,-620.02C153.08,-640.59 264.72,-675 363,-675 363,-675 363,-675 517,-675 598.09,-675 690.8,-663.34 751.54,-654.09"/>
<polygon fill="#63b8ff" stroke="#63b8ff" points="752.4,-657.5 761.75,-652.51 751.33,-650.58 752.4,-657.5"/>
</a>
</g>
</g>
<!-- Node39 -->
<g id="Node000039" class="node">
<title>Node39</title>
<g id="a_Node000039"><a xlink:href="classinja_1_1Parser.html#a8408705eafb86a4a61df9ea82d5afccd" target="_top" xlink:title=" ">
<polygon fill="white" stroke="#666666" points="418,-421.5 310,-421.5 310,-402.5 418,-402.5 418,-421.5"/>
<text text-anchor="middle" x="364" y="-409.5" font-family="Helvetica,sans-Serif" font-size="10.00">inja::Parser::Parser</text>
</a>
</g>
</g>
<!-- Node1&#45;&gt;Node39 -->
<g id="edge64_Node000001_Node000039" class="edge">
<title>Node1&#45;&gt;Node39</title>
<g id="a_edge64_Node000001_Node000039"><a xlink:title=" ">
<path fill="none" stroke="#63b8ff" d="M71.94,-589.97C109.51,-556.41 205.7,-474.79 300,-430 303.87,-428.16 307.97,-426.47 312.14,-424.93"/>
<polygon fill="#63b8ff" stroke="#63b8ff" points="313.6,-428.13 321.94,-421.6 311.35,-421.5 313.6,-428.13"/>
</a>
</g>
</g>
<!-- Node3 -->
<g id="Node000003" class="node">
<title>Node3</title>
<g id="a_Node000003"><a xlink:href="structinja_1_1FileError.html#a0912694cd232d6cd688f0f68336145c9" target="_top" xlink:title=" ">
<polygon fill="white" stroke="#666666" points="881.5,-711.5 755.5,-711.5 755.5,-692.5 881.5,-692.5 881.5,-711.5"/>
<text text-anchor="middle" x="818.5" y="-699.5" font-family="Helvetica,sans-Serif" font-size="10.00">inja::FileError::FileError</text>
</a>
</g>
</g>
<!-- Node2&#45;&gt;Node3 -->
<g id="edge2_Node000002_Node000003" class="edge">
<title>Node2&#45;&gt;Node3</title>
<g id="a_edge2_Node000002_Node000003"><a xlink:title=" ">
<path fill="none" stroke="#63b8ff" d="M264.18,-711.95C376.8,-709.92 622.9,-705.5 745.34,-703.3"/>
<polygon fill="#63b8ff" stroke="#63b8ff" points="745.43,-706.8 755.37,-703.12 745.3,-699.8 745.43,-706.8"/>
</a>
</g>
</g>
<!-- Node4 -->
<g id="Node000004" class="node">
<title>Node4</title>
<g id="a_Node000004"><a xlink:href="structinja_1_1InjaError.html#a0b31b1a26674ec73a9702f41155608da" target="_top" xlink:title=" ">
<polygon fill="white" stroke="#666666" points="1058.5,-711.5 929.5,-711.5 929.5,-692.5 1058.5,-692.5 1058.5,-711.5"/>
<text text-anchor="middle" x="994" y="-699.5" font-family="Helvetica,sans-Serif" font-size="10.00">inja::InjaError::InjaError</text>
</a>
</g>
</g>
<!-- Node3&#45;&gt;Node4 -->
<g id="edge3_Node000003_Node000004" class="edge">
<title>Node3&#45;&gt;Node4</title>
<g id="a_edge3_Node000003_Node000004"><a xlink:title=" ">
<path fill="none" stroke="#63b8ff" d="M881.65,-702C893.73,-702 906.5,-702 918.92,-702"/>
<polygon fill="#63b8ff" stroke="#63b8ff" points="919.24,-705.5 929.24,-702 919.24,-698.5 919.24,-705.5"/>
</a>
</g>
</g>
<!-- Node6 -->
<g id="Node000006" class="node">
<title>Node6</title>
<g id="a_Node000006"><a xlink:href="classinja_1_1Lexer.html#a2db4f5d064131f1205960c11de0ea5aa" target="_top" xlink:title=" ">
<polygon fill="white" stroke="#666666" points="426.5,-571.5 301.5,-571.5 301.5,-552.5 426.5,-552.5 426.5,-571.5"/>
<text text-anchor="middle" x="364" y="-559.5" font-family="Helvetica,sans-Serif" font-size="10.00">inja::Lexer::get_config</text>
</a>
</g>
</g>
<!-- Node5&#45;&gt;Node6 -->
<g id="edge5_Node000005_Node000006" class="edge">
<title>Node5&#45;&gt;Node6</title>
<g id="a_edge5_Node000005_Node000006"><a xlink:title=" ">
<path fill="none" stroke="#63b8ff" d="M256.64,-562C267.68,-562 279.56,-562 291.23,-562"/>
<polygon fill="#63b8ff" stroke="#63b8ff" points="291.4,-565.5 301.4,-562 291.4,-558.5 291.4,-565.5"/>
</a>
</g>
</g>
<!-- Node7 -->
<g id="Node000007" class="node">
<title>Node7</title>
<g id="a_Node000007"><a xlink:href="classinja_1_1Parser.html#a9a561141f71073df671b2b7ecb4608ba" target="_top" xlink:title=" ">
<polygon fill="white" stroke="#666666" points="428,-458.5 300,-458.5 300,-439.5 428,-439.5 428,-458.5"/>
<text text-anchor="middle" x="364" y="-446.5" font-family="Helvetica,sans-Serif" font-size="10.00">inja::Parser::parse_into</text>
</a>
</g>
</g>
<!-- Node5&#45;&gt;Node7 -->
<g id="edge6_Node000005_Node000007" class="edge">
<title>Node5&#45;&gt;Node7</title>
<g id="a_edge6_Node000005_Node000007"><a xlink:title=" ">
<path fill="none" stroke="#63b8ff" d="M226.41,-546.99C256.27,-525.57 310.84,-486.42 341.18,-464.65"/>
<polygon fill="#63b8ff" stroke="#63b8ff" points="343.33,-467.42 349.41,-458.75 339.25,-461.73 343.33,-467.42"/>
</a>
</g>
</g>
<!-- Node5&#45;&gt;Node39 -->
<g id="edge62_Node000005_Node000039" class="edge">
<title>Node5&#45;&gt;Node39</title>
<g id="a_edge62_Node000005_Node000039"><a xlink:title=" ">
<path fill="none" stroke="#63b8ff" d="M215.91,-546.9C239.26,-513.13 294.21,-434.08 300,-430 302.12,-428.51 304.35,-427.14 306.67,-425.89"/>
<polygon fill="#63b8ff" stroke="#63b8ff" points="308.35,-428.96 315.95,-421.58 305.41,-422.61 308.35,-428.96"/>
</a>
</g>
</g>
<!-- Node8 -->
<g id="Node000008" class="node">
<title>Node8</title>
<g id="a_Node000008"><a xlink:href="structinja_1_1Token.html#adc8c0a84e2d4ce0a3625c399bd259f1f" target="_top" xlink:title=" ">
<polygon fill="white" stroke="#666666" points="1052,-558.5 936,-558.5 936,-539.5 1052,-539.5 1052,-558.5"/>
<text text-anchor="middle" x="994" y="-546.5" font-family="Helvetica,sans-Serif" font-size="10.00">inja::Token::describe</text>
</a>
</g>
</g>
<!-- Node7&#45;&gt;Node8 -->
<g id="edge7_Node000007_Node000008" class="edge">
<title>Node7&#45;&gt;Node8</title>
<g id="a_edge7_Node000007_Node000008"><a xlink:title=" ">
<path fill="none" stroke="#63b8ff" d="M383.17,-458.56C402.7,-468.53 434.88,-484.06 464,-494 643.58,-555.32 697.26,-554.68 887,-552 899.49,-551.82 912.81,-551.53 925.64,-551.19"/>
<polygon fill="#63b8ff" stroke="#63b8ff" points="925.89,-554.69 935.79,-550.92 925.7,-547.69 925.89,-554.69"/>
</a>
</g>
</g>
<!-- Node9 -->
<g id="Node000009" class="node">
<title>Node9</title>
<g id="a_Node000009"><a xlink:href="classinja_1_1Parser.html#ab8bb45bc1eeead74f630efa420ee6212" target="_top" xlink:title=" ">
<polygon fill="white" stroke="#666666" points="1054,-191 934,-191 934,-161 1054,-161 1054,-191"/>
<text text-anchor="start" x="942" y="-179" font-family="Helvetica,sans-Serif" font-size="10.00">inja::Parser::get_next</text>
<text text-anchor="middle" x="994" y="-168" font-family="Helvetica,sans-Serif" font-size="10.00">_token</text>
</a>
</g>
</g>
<!-- Node7&#45;&gt;Node9 -->
<g id="edge8_Node000007_Node000009" class="edge">
<title>Node7&#45;&gt;Node9</title>
<g id="a_edge8_Node000007_Node000009"><a xlink:title=" ">
<path fill="none" stroke="#63b8ff" d="M411.41,-439.46C417.35,-436.99 423.07,-433.9 428,-430 453,-410.24 440.02,-388.98 464,-368 599.66,-249.32 814.53,-201.98 923.99,-184.79"/>
<polygon fill="#63b8ff" stroke="#63b8ff" points="924.57,-188.24 933.92,-183.27 923.51,-181.32 924.57,-188.24"/>
</a>
</g>
</g>
<!-- Node22 -->
<g id="Node000022" class="node">
<title>Node22</title>
<g id="a_Node000022"><a xlink:href="classinja_1_1Parser.html#aeb66164c89e8c71cae3c93c24d7c7be2" target="_top" xlink:title=" ">
<polygon fill="white" stroke="#666666" points="711,-349 607,-349 607,-319 711,-319 711,-349"/>
<text text-anchor="start" x="615" y="-337" font-family="Helvetica,sans-Serif" font-size="10.00">inja::Parser::parse</text>
<text text-anchor="middle" x="659" y="-326" font-family="Helvetica,sans-Serif" font-size="10.00">_expression</text>
</a>
</g>
</g>
<!-- Node7&#45;&gt;Node22 -->
<g id="edge29_Node000007_Node000022" class="edge">
<title>Node7&#45;&gt;Node22</title>
<g id="a_edge29_Node000007_Node000022"><a xlink:title=" ">
<path fill="none" stroke="#63b8ff" d="M399.97,-439.46C409.18,-436.67 419.04,-433.44 428,-430 444.52,-423.65 447.8,-420.12 464,-413 513.11,-391.42 570.03,-368.49 609.46,-352.92"/>
<polygon fill="#63b8ff" stroke="#63b8ff" points="611.07,-356.04 619.09,-349.12 608.5,-349.53 611.07,-356.04"/>
</a>
</g>
</g>
<!-- Node26 -->
<g id="Node000026" class="node">
<title>Node26</title>
<g id="a_Node000026"><a xlink:href="classinja_1_1Parser.html#a1b11e4984c1934c4e670a609f728ceee" target="_top" xlink:title=" ">
<polygon fill="white" stroke="#666666" points="1232.5,-457 1127.5,-457 1127.5,-427 1232.5,-427 1232.5,-457"/>
<text text-anchor="start" x="1135.5" y="-445" font-family="Helvetica,sans-Serif" font-size="10.00">inja::Parser::throw</text>
<text text-anchor="middle" x="1180" y="-434" font-family="Helvetica,sans-Serif" font-size="10.00">_parser_error</text>
</a>
</g>
</g>
<!-- Node7&#45;&gt;Node26 -->
<g id="edge61_Node000007_Node000026" class="edge">
<title>Node7&#45;&gt;Node26</title>
<g id="a_edge61_Node000007_Node000026"><a xlink:title=" ">
<path fill="none" stroke="#63b8ff" d="M428.11,-446.86C440.03,-446.52 452.4,-446.21 464,-446 705.74,-441.55 993.53,-441.55 1117.35,-441.81"/>
<polygon fill="#63b8ff" stroke="#63b8ff" points="1117.39,-445.31 1127.4,-441.84 1117.41,-438.31 1117.39,-445.31"/>
</a>
</g>
</g>
<!-- Node34 -->
<g id="Node000034" class="node">
<title>Node34</title>
<g id="a_Node000034"><a xlink:href="classinja_1_1Parser.html#a5a26bdcce0ae076bf010ee7442d8928e" target="_top" xlink:title=" ">
<polygon fill="white" stroke="#666666" points="568,-485 464,-485 464,-455 568,-455 568,-485"/>
<text text-anchor="start" x="472" y="-473" font-family="Helvetica,sans-Serif" font-size="10.00">inja::Parser::parse</text>
<text text-anchor="middle" x="516" y="-462" font-family="Helvetica,sans-Serif" font-size="10.00">_statement</text>
</a>
</g>
</g>
<!-- Node7&#45;&gt;Node34 -->
<g id="edge47_Node000007_Node000034" class="edge">
<title>Node7&#45;&gt;Node34</title>
<g id="a_edge47_Node000007_Node000034"><a xlink:title=" ">
<path fill="none" stroke="#63b8ff" d="M428.18,-457.85C436.6,-459.02 445.23,-460.23 453.62,-461.41"/>
<polygon fill="#63b8ff" stroke="#63b8ff" points="453.33,-464.9 463.72,-462.82 454.3,-457.97 453.33,-464.9"/>
</a>
</g>
</g>
<!-- Node38 -->
<g id="Node000038" class="node">
<title>Node38</title>
<g id="a_Node000038"><a xlink:href="classinja_1_1Lexer.html#afab5a4a53539d89c7441f249a751da01" target="_top" xlink:title=" ">
<polygon fill="white" stroke="#666666" points="707,-122.5 611,-122.5 611,-103.5 707,-103.5 707,-122.5"/>
<text text-anchor="middle" x="659" y="-110.5" font-family="Helvetica,sans-Serif" font-size="10.00">inja::Lexer::start</text>
</a>
</g>
</g>
<!-- Node7&#45;&gt;Node38 -->
<g id="edge59_Node000007_Node000038" class="edge">
<title>Node7&#45;&gt;Node38</title>
<g id="a_edge59_Node000007_Node000038"><a xlink:title=" ">
<path fill="none" stroke="#63b8ff" d="M415.43,-439.41C420.11,-436.94 424.43,-433.86 428,-430 478.96,-374.89 416.07,-322.76 464,-265 496.05,-226.38 527.69,-250.9 568,-221 602.12,-195.7 631.44,-154.89 646.72,-131.35"/>
<polygon fill="#63b8ff" stroke="#63b8ff" points="649.81,-133.01 652.21,-122.69 643.9,-129.26 649.81,-133.01"/>
</a>
</g>
</g>
<!-- Node10 -->
<g id="Node000010" class="node">
<title>Node10</title>
<g id="a_Node000010"><a xlink:href="classinja_1_1Lexer.html#a8c85efa9536869c371b8afb609e0d8d2" target="_top" xlink:title=" ">
<polygon fill="white" stroke="#666666" points="1228,-219.5 1132,-219.5 1132,-200.5 1228,-200.5 1228,-219.5"/>
<text text-anchor="middle" x="1180" y="-207.5" font-family="Helvetica,sans-Serif" font-size="10.00">inja::Lexer::scan</text>
</a>
</g>
</g>
<!-- Node9&#45;&gt;Node10 -->
<g id="edge9_Node000009_Node000010" class="edge">
<title>Node9&#45;&gt;Node10</title>
<g id="a_edge9_Node000009_Node000010"><a xlink:title=" ">
<path fill="none" stroke="#63b8ff" d="M1054.23,-186.94C1075.91,-190.95 1100.37,-195.47 1121.86,-199.44"/>
<polygon fill="#63b8ff" stroke="#63b8ff" points="1121.36,-202.91 1131.83,-201.28 1122.63,-196.02 1121.36,-202.91"/>
</a>
</g>
</g>
<!-- Node11 -->
<g id="Node000011" class="node">
<title>Node11</title>
<g id="a_Node000011"><a xlink:href="classinja_1_1Lexer.html#a0f4034e3151f72f121fb4f2b63374ce1" target="_top" xlink:title=" ">
<polygon fill="white" stroke="#666666" points="1435,-371 1295,-371 1295,-341 1435,-341 1435,-371"/>
<text text-anchor="start" x="1303" y="-359" font-family="Helvetica,sans-Serif" font-size="10.00">inja::Lexer::clear</text>
<text text-anchor="middle" x="1365" y="-348" font-family="Helvetica,sans-Serif" font-size="10.00">_final_line_if_whitespace</text>
</a>
</g>
</g>
<!-- Node10&#45;&gt;Node11 -->
<g id="edge10_Node000010_Node000011" class="edge">
<title>Node10&#45;&gt;Node11</title>
<g id="a_edge10_Node000010_Node000011"><a xlink:title=" ">
<path fill="none" stroke="#63b8ff" d="M1212.2,-219.52C1227.86,-225.59 1246.17,-234.84 1259,-248 1285.93,-275.63 1267.31,-300.12 1295,-327 1298.43,-330.33 1302.3,-333.31 1306.42,-335.95"/>
<polygon fill="#63b8ff" stroke="#63b8ff" points="1304.72,-339.02 1315.14,-340.95 1308.2,-332.94 1304.72,-339.02"/>
</a>
</g>
</g>
<!-- Node12 -->
<g id="Node000012" class="node">
<title>Node12</title>
<g id="a_Node000012"><a xlink:href="classinja_1_1Lexer.html#a6088871283d1a03087b325b88c9396f4" target="_top" xlink:title=" ">
<polygon fill="white" stroke="#666666" points="1802.5,-294.5 1669.5,-294.5 1669.5,-275.5 1802.5,-275.5 1802.5,-294.5"/>
<text text-anchor="middle" x="1736" y="-282.5" font-family="Helvetica,sans-Serif" font-size="10.00">inja::Lexer::make_token</text>
</a>
</g>
</g>
<!-- Node10&#45;&gt;Node12 -->
<g id="edge11_Node000010_Node000012" class="edge">
<title>Node10&#45;&gt;Node12</title>
<g id="a_edge11_Node000010_Node000012"><a xlink:title=" ">
<path fill="none" stroke="#63b8ff" d="M1200.79,-219.53C1261.43,-248.64 1442.31,-334.82 1471,-341 1540.52,-355.97 1562.05,-358.38 1631,-341 1661.87,-333.22 1693.54,-314.28 1713.69,-300.58"/>
<polygon fill="#63b8ff" stroke="#63b8ff" points="1715.9,-303.31 1722.09,-294.72 1711.89,-297.57 1715.9,-303.31"/>
</a>
</g>
</g>
<!-- Node13 -->
<g id="Node000013" class="node">
<title>Node13</title>
<g id="a_Node000013"><a xlink:href="namespaceinja_1_1string__view.html#a898871016595d8f34d1b4ea55b3e8684" target="_top" xlink:title=" ">
<polygon fill="white" stroke="#666666" points="1944,-414 1841,-414 1841,-384 1944,-384 1944,-414"/>
<text text-anchor="start" x="1849" y="-402" font-family="Helvetica,sans-Serif" font-size="10.00">inja::string_view::</text>
<text text-anchor="middle" x="1892.5" y="-391" font-family="Helvetica,sans-Serif" font-size="10.00">slice</text>
</a>
</g>
</g>
<!-- Node10&#45;&gt;Node13 -->
<g id="edge26_Node000010_Node000013" class="edge">
<title>Node10&#45;&gt;Node13</title>
<g id="a_edge26_Node000010_Node000013"><a xlink:title=" ">
<path fill="none" stroke="#63b8ff" d="M1215.47,-219.59C1230.79,-225.48 1247.85,-234.54 1259,-248 1297.79,-294.83 1247.27,-342.32 1295,-380 1376.44,-444.29 1695.56,-419.61 1830.6,-405.83"/>
<polygon fill="#63b8ff" stroke="#63b8ff" points="1831.19,-409.29 1840.78,-404.77 1830.47,-402.32 1831.19,-409.29"/>
</a>
</g>
</g>
<!-- Node14 -->
<g id="Node000014" class="node">
<title>Node14</title>
<g id="a_Node000014"><a xlink:href="structinja_1_1Token.html#ae215b2b1e365fc7c4060895b604e2430" target="_top" xlink:title=" ">
<polygon fill="white" stroke="#666666" points="1943.5,-190.5 1841.5,-190.5 1841.5,-171.5 1943.5,-171.5 1943.5,-190.5"/>
<text text-anchor="middle" x="1892.5" y="-178.5" font-family="Helvetica,sans-Serif" font-size="10.00">inja::Token::Token</text>
</a>
</g>
</g>
<!-- Node10&#45;&gt;Node14 -->
<g id="edge28_Node000010_Node000014" class="edge">
<title>Node10&#45;&gt;Node14</title>
<g id="a_edge28_Node000010_Node000014"><a xlink:title=" ">
<path fill="none" stroke="#63b8ff" d="M1195.18,-200.41C1216.19,-186.56 1257.19,-160.88 1295,-145 1369.98,-113.52 1390.46,-106.22 1471,-95 1541.43,-85.19 1560.79,-83.71 1631,-95 1717.04,-108.84 1813.18,-146.83 1861.01,-167.38"/>
<polygon fill="#63b8ff" stroke="#63b8ff" points="1859.9,-170.71 1870.47,-171.48 1862.69,-164.29 1859.9,-170.71"/>
</a>
</g>
</g>
<!-- Node15 -->
<g id="Node000015" class="node">
<title>Node15</title>
<g id="a_Node000015"><a xlink:href="classinja_1_1Lexer.html#aa342980e23b7a9fa633e82cf38c3c682" target="_top" xlink:title=" ">
<polygon fill="white" stroke="#666666" points="1427.5,-219.5 1302.5,-219.5 1302.5,-200.5 1427.5,-200.5 1427.5,-219.5"/>
<text text-anchor="middle" x="1365" y="-207.5" font-family="Helvetica,sans-Serif" font-size="10.00">inja::Lexer::scan_body</text>
</a>
</g>
</g>
<!-- Node10&#45;&gt;Node15 -->
<g id="edge14_Node000010_Node000015" class="edge">
<title>Node10&#45;&gt;Node15</title>
<g id="a_edge14_Node000010_Node000015"><a xlink:title=" ">
<path fill="none" stroke="#63b8ff" d="M1228.13,-210C1247.6,-210 1270.61,-210 1292.11,-210"/>
<polygon fill="#63b8ff" stroke="#63b8ff" points="1292.19,-213.5 1302.19,-210 1292.19,-206.5 1292.19,-213.5"/>
</a>
</g>
</g>
<!-- Node19 -->
<g id="Node000019" class="node">
<title>Node19</title>
<g id="a_Node000019"><a xlink:href="classinja_1_1Lexer.html#ae4dcb266522442d430dcb8d381b5fdb1" target="_top" xlink:title=" ">
<polygon fill="white" stroke="#666666" points="1631,-134 1471,-134 1471,-104 1631,-104 1631,-134"/>
<text text-anchor="start" x="1479" y="-122" font-family="Helvetica,sans-Serif" font-size="10.00">inja::Lexer::skip_whitespaces</text>
<text text-anchor="middle" x="1551" y="-111" font-family="Helvetica,sans-Serif" font-size="10.00">_and_first_newline</text>
</a>
</g>
</g>
<!-- Node10&#45;&gt;Node19 -->
<g id="edge25_Node000010_Node000019" class="edge">
<title>Node10&#45;&gt;Node19</title>
<g id="a_edge25_Node000010_Node000019"><a xlink:title=" ">
<path fill="none" stroke="#63b8ff" d="M1219.79,-200.43C1281.15,-185.3 1401.55,-155.61 1478.77,-136.57"/>
<polygon fill="#63b8ff" stroke="#63b8ff" points="1480.03,-139.86 1488.9,-134.07 1478.35,-133.07 1480.03,-139.86"/>
</a>
</g>
</g>
<!-- Node21 -->
<g id="Node000021" class="node">
<title>Node21</title>
<g id="a_Node000021"><a xlink:href="namespaceinja_1_1string__view.html#a78e9922c080101c22e54419f7caa83d8" target="_top" xlink:title=" ">
<polygon fill="white" stroke="#666666" points="1602.5,-48 1499.5,-48 1499.5,-18 1602.5,-18 1602.5,-48"/>
<text text-anchor="start" x="1507.5" y="-36" font-family="Helvetica,sans-Serif" font-size="10.00">inja::string_view::</text>
<text text-anchor="middle" x="1551" y="-25" font-family="Helvetica,sans-Serif" font-size="10.00">starts_with</text>
</a>
</g>
</g>
<!-- Node10&#45;&gt;Node21 -->
<g id="edge27_Node000010_Node000021" class="edge">
<title>Node10&#45;&gt;Node21</title>
<g id="a_edge27_Node000010_Node000021"><a xlink:title=" ">
<path fill="none" stroke="#63b8ff" d="M1185.15,-200.24C1197.34,-172.88 1235.97,-95.32 1295,-62 1354.6,-28.36 1434.48,-24.65 1488.85,-27.06"/>
<polygon fill="#63b8ff" stroke="#63b8ff" points="1488.86,-30.57 1499.03,-27.6 1489.23,-23.58 1488.86,-30.57"/>
</a>
</g>
</g>
<!-- Node12&#45;&gt;Node13 -->
<g id="edge12_Node000012_Node000013" class="edge">
<title>Node12&#45;&gt;Node13</title>
<g id="a_edge12_Node000012_Node000013"><a xlink:title=" ">
<path fill="none" stroke="#63b8ff" d="M1749.91,-294.52C1774.64,-312.78 1829.26,-353.08 1862.97,-377.95"/>
<polygon fill="#63b8ff" stroke="#63b8ff" points="1860.93,-380.8 1871.06,-383.92 1865.09,-375.16 1860.93,-380.8"/>
</a>
</g>
</g>
<!-- Node12&#45;&gt;Node14 -->
<g id="edge13_Node000012_Node000014" class="edge">
<title>Node12&#45;&gt;Node14</title>
<g id="a_edge13_Node000012_Node000014"><a xlink:title=" ">
<path fill="none" stroke="#63b8ff" d="M1751.26,-275.4C1778.16,-257.29 1836.6,-217.95 1868.91,-196.21"/>
<polygon fill="#63b8ff" stroke="#63b8ff" points="1870.94,-199.06 1877.28,-190.57 1867.03,-193.26 1870.94,-199.06"/>
</a>
</g>
</g>
<!-- Node15&#45;&gt;Node12 -->
<g id="edge15_Node000015_Node000012" class="edge">
<title>Node15&#45;&gt;Node12</title>
<g id="a_edge15_Node000015_Node000012"><a xlink:title=" ">
<path fill="none" stroke="#63b8ff" d="M1379.82,-219.61C1399.19,-232.52 1435.98,-254.97 1471,-265 1532.75,-282.69 1605.75,-287.03 1659.32,-287.32"/>
<polygon fill="#63b8ff" stroke="#63b8ff" points="1659.42,-290.82 1669.42,-287.33 1659.43,-283.82 1659.42,-290.82"/>
</a>
</g>
</g>
<!-- Node16 -->
<g id="Node000016" class="node">
<title>Node16</title>
<g id="a_Node000016"><a xlink:href="classinja_1_1Lexer.html#acb4ddc9702038530f73db97c701a60a5" target="_top" xlink:title=" ">
<polygon fill="white" stroke="#666666" points="1606,-256.5 1496,-256.5 1496,-237.5 1606,-237.5 1606,-256.5"/>
<text text-anchor="middle" x="1551" y="-244.5" font-family="Helvetica,sans-Serif" font-size="10.00">inja::Lexer::scan_id</text>
</a>
</g>
</g>
<!-- Node15&#45;&gt;Node16 -->
<g id="edge16_Node000015_Node000016" class="edge">
<title>Node15&#45;&gt;Node16</title>
<g id="a_edge16_Node000015_Node000016"><a xlink:title=" ">
<path fill="none" stroke="#63b8ff" d="M1413.38,-219.53C1437.54,-224.39 1467.12,-230.33 1492.56,-235.45"/>
<polygon fill="#63b8ff" stroke="#63b8ff" points="1491.96,-238.9 1502.46,-237.44 1493.34,-232.04 1491.96,-238.9"/>
</a>
</g>
</g>
<!-- Node17 -->
<g id="Node000017" class="node">
<title>Node17</title>
<g id="a_Node000017"><a xlink:href="classinja_1_1Lexer.html#ab9aa4522a541720d58268d7d3e27e63f" target="_top" xlink:title=" ">
<polygon fill="white" stroke="#666666" points="1620.5,-219.5 1481.5,-219.5 1481.5,-200.5 1620.5,-200.5 1620.5,-219.5"/>
<text text-anchor="middle" x="1551" y="-207.5" font-family="Helvetica,sans-Serif" font-size="10.00">inja::Lexer::scan_number</text>
</a>
</g>
</g>
<!-- Node15&#45;&gt;Node17 -->
<g id="edge18_Node000015_Node000017" class="edge">
<title>Node15&#45;&gt;Node17</title>
<g id="a_edge18_Node000015_Node000017"><a xlink:title=" ">
<path fill="none" stroke="#63b8ff" d="M1427.53,-210C1441.53,-210 1456.6,-210 1471.21,-210"/>
<polygon fill="#63b8ff" stroke="#63b8ff" points="1471.24,-213.5 1481.24,-210 1471.24,-206.5 1471.24,-213.5"/>
</a>
</g>
</g>
<!-- Node18 -->
<g id="Node000018" class="node">
<title>Node18</title>
<g id="a_Node000018"><a xlink:href="classinja_1_1Lexer.html#a3e8f3f7d8569fa5d781633b57a6bdcca" target="_top" xlink:title=" ">
<polygon fill="white" stroke="#666666" points="1615.5,-332.5 1486.5,-332.5 1486.5,-313.5 1615.5,-313.5 1615.5,-332.5"/>
<text text-anchor="middle" x="1551" y="-320.5" font-family="Helvetica,sans-Serif" font-size="10.00">inja::Lexer::scan_string</text>
</a>
</g>
</g>
<!-- Node15&#45;&gt;Node18 -->
<g id="edge20_Node000015_Node000018" class="edge">
<title>Node15&#45;&gt;Node18</title>
<g id="a_edge20_Node000015_Node000018"><a xlink:title=" ">
<path fill="none" stroke="#63b8ff" d="M1374.59,-219.51C1391.39,-237.55 1430.5,-276.93 1471,-299 1479.23,-303.48 1488.4,-307.24 1497.5,-310.35"/>
<polygon fill="#63b8ff" stroke="#63b8ff" points="1496.72,-313.78 1507.31,-313.48 1498.84,-307.11 1496.72,-313.78"/>
</a>
</g>
</g>
<!-- Node15&#45;&gt;Node19 -->
<g id="edge22_Node000015_Node000019" class="edge">
<title>Node15&#45;&gt;Node19</title>
<g id="a_edge22_Node000015_Node000019"><a xlink:title=" ">
<path fill="none" stroke="#63b8ff" d="M1378.6,-200.33C1397.68,-186.08 1435.45,-159.37 1471,-143 1475.14,-141.09 1479.47,-139.29 1483.88,-137.6"/>
<polygon fill="#63b8ff" stroke="#63b8ff" points="1485.41,-140.76 1493.62,-134.06 1483.02,-134.18 1485.41,-140.76"/>
</a>
</g>
</g>
<!-- Node20 -->
<g id="Node000020" class="node">
<title>Node20</title>
<g id="a_Node000020"><a xlink:href="classinja_1_1Lexer.html#a50d21b69bfa1cd5e6d2e9b5c1bd53c53" target="_top" xlink:title=" ">
<polygon fill="white" stroke="#666666" points="1631,-182 1471,-182 1471,-152 1631,-152 1631,-182"/>
<text text-anchor="start" x="1479" y="-170" font-family="Helvetica,sans-Serif" font-size="10.00">inja::Lexer::skip_whitespaces</text>
<text text-anchor="middle" x="1551" y="-159" font-family="Helvetica,sans-Serif" font-size="10.00">_and_newlines</text>
</a>
</g>
</g>
<!-- Node15&#45;&gt;Node20 -->
<g id="edge23_Node000015_Node000020" class="edge">
<title>Node15&#45;&gt;Node20</title>
<g id="a_edge23_Node000015_Node000020"><a xlink:title=" ">
<path fill="none" stroke="#63b8ff" d="M1406.84,-200.46C1427.12,-195.72 1452.28,-189.84 1475.82,-184.34"/>
<polygon fill="#63b8ff" stroke="#63b8ff" points="1476.85,-187.69 1485.79,-182.01 1475.25,-180.87 1476.85,-187.69"/>
</a>
</g>
</g>
<!-- Node15&#45;&gt;Node21 -->
<g id="edge24_Node000015_Node000021" class="edge">
<title>Node15&#45;&gt;Node21</title>
<g id="a_edge24_Node000015_Node000021"><a xlink:title=" ">
<path fill="none" stroke="#63b8ff" d="M1373.94,-200.26C1390.83,-179.8 1431.96,-131.23 1471,-95 1486.63,-80.49 1505.37,-65.69 1520.67,-54.19"/>
<polygon fill="#63b8ff" stroke="#63b8ff" points="1522.84,-56.94 1528.77,-48.16 1518.66,-51.32 1522.84,-56.94"/>
</a>
</g>
</g>
<!-- Node16&#45;&gt;Node12 -->
<g id="edge17_Node000016_Node000012" class="edge">
<title>Node16&#45;&gt;Node12</title>
<g id="a_edge17_Node000016_Node000012"><a xlink:title=" ">
<path fill="none" stroke="#63b8ff" d="M1598.18,-256.59C1622.76,-261.69 1653.19,-268.01 1679.1,-273.39"/>
<polygon fill="#63b8ff" stroke="#63b8ff" points="1678.65,-276.87 1689.15,-275.48 1680.07,-270.02 1678.65,-276.87"/>
</a>
</g>
</g>
<!-- Node17&#45;&gt;Node12 -->
<g id="edge19_Node000017_Node000012" class="edge">
<title>Node17&#45;&gt;Node12</title>
<g id="a_edge19_Node000017_Node000012"><a xlink:title=" ">
<path fill="none" stroke="#63b8ff" d="M1603.61,-219.58C1612.86,-221.91 1622.32,-224.71 1631,-228 1660.21,-239.09 1691.34,-257.06 1711.84,-269.86"/>
<polygon fill="#63b8ff" stroke="#63b8ff" points="1710.15,-272.93 1720.47,-275.33 1713.9,-267.02 1710.15,-272.93"/>
</a>
</g>
</g>
<!-- Node18&#45;&gt;Node12 -->
<g id="edge21_Node000018_Node000012" class="edge">
<title>Node18&#45;&gt;Node12</title>
<g id="a_edge21_Node000018_Node000012"><a xlink:title=" ">
<path fill="none" stroke="#63b8ff" d="M1598.18,-313.41C1622.76,-308.31 1653.19,-301.99 1679.1,-296.61"/>
<polygon fill="#63b8ff" stroke="#63b8ff" points="1680.07,-299.98 1689.15,-294.52 1678.65,-293.13 1680.07,-299.98"/>
</a>
</g>
</g>
<!-- Node23 -->
<g id="Node000023" class="node">
<title>Node23</title>
<g id="a_Node000023"><a xlink:href="classinja_1_1Parser.html#a7dda6b9f4295c215e097f45d573d8d69" target="_top" xlink:title=" ">
<polygon fill="white" stroke="#666666" points="870.5,-375 766.5,-375 766.5,-345 870.5,-345 870.5,-375"/>
<text text-anchor="start" x="774.5" y="-363" font-family="Helvetica,sans-Serif" font-size="10.00">inja::Parser::parse</text>
<text text-anchor="middle" x="818.5" y="-352" font-family="Helvetica,sans-Serif" font-size="10.00">_expression</text>
</a>
</g>
</g>
<!-- Node22&#45;&gt;Node23 -->
<g id="edge30_Node000022_Node000023" class="edge">
<title>Node22&#45;&gt;Node23</title>
<g id="a_edge30_Node000022_Node000023"><a xlink:title=" ">
<path fill="none" stroke="#63b8ff" d="M711.14,-342.44C725.51,-344.81 741.3,-347.42 756.2,-349.88"/>
<polygon fill="#63b8ff" stroke="#63b8ff" points="755.91,-353.38 766.35,-351.56 757.06,-346.47 755.91,-353.38"/>
</a>
</g>
</g>
<!-- Node23&#45;&gt;Node8 -->
<g id="edge39_Node000023_Node000008" class="edge">
<title>Node23&#45;&gt;Node8</title>
<g id="a_edge39_Node000023_Node000008"><a xlink:title=" ">
<path fill="none" stroke="#63b8ff" d="M833.4,-375.15C865.25,-409.84 943.32,-494.88 977.05,-531.63"/>
<polygon fill="#63b8ff" stroke="#63b8ff" points="974.56,-534.09 983.9,-539.09 979.72,-529.36 974.56,-534.09"/>
</a>
</g>
</g>
<!-- Node23&#45;&gt;Node9 -->
<g id="edge42_Node000023_Node000009" class="edge">
<title>Node23&#45;&gt;Node9</title>
<g id="a_edge42_Node000023_Node000009"><a xlink:title=" ">
<path fill="none" stroke="#63b8ff" d="M869.12,-344.99C875.81,-341.27 882.06,-336.67 887,-331 926.66,-285.47 881.65,-244 923,-200 923.92,-199.03 924.87,-198.09 925.87,-197.19"/>
<polygon fill="#63b8ff" stroke="#63b8ff" points="928.19,-199.82 934.11,-191.04 924,-194.22 928.19,-199.82"/>
</a>
</g>
</g>
<!-- Node23&#45;&gt;Node23 -->
<g id="edge45_Node000023_Node000023" class="edge">
<title>Node23&#45;&gt;Node23</title>
<g id="a_edge45_Node000023_Node000023"><a xlink:title=" ">
<path fill="none" stroke="#63b8ff" d="M790.73,-375.28C784.55,-384.41 793.81,-393 818.5,-393 833.16,-393 842.38,-389.97 846.16,-385.6"/>
<polygon fill="#63b8ff" stroke="#63b8ff" points="849.66,-385.31 846.27,-375.28 842.66,-385.23 849.66,-385.31"/>
</a>
</g>
</g>
<!-- Node24 -->
<g id="Node000024" class="node">
<title>Node24</title>
<g id="a_Node000024"><a xlink:href="classinja_1_1Parser.html#ae7a1d8abdffac091becd3f59924a67a5" target="_top" xlink:title=" ">
<polygon fill="white" stroke="#666666" points="1058.5,-324.5 929.5,-324.5 929.5,-305.5 1058.5,-305.5 1058.5,-324.5"/>
<text text-anchor="middle" x="994" y="-312.5" font-family="Helvetica,sans-Serif" font-size="10.00">inja::Parser::add_literal</text>
</a>
</g>
</g>
<!-- Node23&#45;&gt;Node24 -->
<g id="edge31_Node000023_Node000024" class="edge">
<title>Node23&#45;&gt;Node24</title>
<g id="a_edge31_Node000023_Node000024"><a xlink:title=" ">
<path fill="none" stroke="#63b8ff" d="M870.62,-346.74C894.67,-340.5 923.15,-333.12 946.57,-327.04"/>
<polygon fill="#63b8ff" stroke="#63b8ff" points="947.48,-330.42 956.28,-324.52 945.72,-323.65 947.48,-330.42"/>
</a>
</g>
</g>
<!-- Node25 -->
<g id="Node000025" class="node">
<title>Node25</title>
<g id="a_Node000025"><a xlink:href="classinja_1_1Parser.html#a34dbff50fadd5a8089c2f55a7438ad55" target="_top" xlink:title=" ">
<polygon fill="white" stroke="#666666" points="1065,-400.5 923,-400.5 923,-381.5 1065,-381.5 1065,-400.5"/>
<text text-anchor="middle" x="994" y="-388.5" font-family="Helvetica,sans-Serif" font-size="10.00">inja::Parser::add_operator</text>
</a>
</g>
</g>
<!-- Node23&#45;&gt;Node25 -->
<g id="edge32_Node000023_Node000025" class="edge">
<title>Node23&#45;&gt;Node25</title>
<g id="a_edge32_Node000023_Node000025"><a xlink:title=" ">
<path fill="none" stroke="#63b8ff" d="M870.62,-369.13C889.09,-372.43 910.17,-376.2 929.57,-379.67"/>
<polygon fill="#63b8ff" stroke="#63b8ff" points="929.08,-383.13 939.54,-381.45 930.31,-376.24 929.08,-383.13"/>
</a>
</g>
</g>
<!-- Node23&#45;&gt;Node26 -->
<g id="edge46_Node000023_Node000026" class="edge">
<title>Node23&#45;&gt;Node26</title>
<g id="a_edge46_Node000023_Node000026"><a xlink:title=" ">
<path fill="none" stroke="#63b8ff" d="M870.61,-355.23C921.17,-352.19 1000.18,-351.96 1065,-372 1097.91,-382.17 1130.95,-404.05 1152.92,-420.66"/>
<polygon fill="#63b8ff" stroke="#63b8ff" points="1151.01,-423.61 1161.06,-426.96 1155.3,-418.07 1151.01,-423.61"/>
</a>
</g>
</g>
<!-- Node31 -->
<g id="Node000031" class="node">
<title>Node31</title>
<g id="a_Node000031"><a xlink:href="classinja_1_1FunctionStorage.html#af382c6fe227c69fa5cc36703a655912c" target="_top" xlink:title=" ">
<polygon fill="white" stroke="#666666" points="1053.5,-287 934.5,-287 934.5,-257 1053.5,-257 1053.5,-287"/>
<text text-anchor="start" x="942.5" y="-275" font-family="Helvetica,sans-Serif" font-size="10.00">inja::FunctionStorage</text>
<text text-anchor="middle" x="994" y="-264" font-family="Helvetica,sans-Serif" font-size="10.00">::find_function</text>
</a>
</g>
</g>
<!-- Node23&#45;&gt;Node31 -->
<g id="edge40_Node000023_Node000031" class="edge">
<title>Node23&#45;&gt;Node31</title>
<g id="a_edge40_Node000023_Node000031"><a xlink:title=" ">
<path fill="none" stroke="#63b8ff" d="M861.08,-344.97C869.96,-341 879.04,-336.31 887,-331 905.56,-318.61 903.99,-307.68 923,-296 925.65,-294.37 928.43,-292.84 931.28,-291.39"/>
<polygon fill="#63b8ff" stroke="#63b8ff" points="932.99,-294.46 940.6,-287.08 930.06,-288.1 932.99,-294.46"/>
</a>
</g>
</g>
<!-- Node33 -->
<g id="Node000033" class="node">
<title>Node33</title>
<g id="a_Node000033"><a xlink:href="classinja_1_1Parser.html#a16b5b7d40ed3e6a536194d1367626fd9" target="_top" xlink:title=" ">
<polygon fill="white" stroke="#666666" points="1055,-239 933,-239 933,-209 1055,-209 1055,-239"/>
<text text-anchor="start" x="941" y="-227" font-family="Helvetica,sans-Serif" font-size="10.00">inja::Parser::get_peek</text>
<text text-anchor="middle" x="994" y="-216" font-family="Helvetica,sans-Serif" font-size="10.00">_token</text>
</a>
</g>
</g>
<!-- Node23&#45;&gt;Node33 -->
<g id="edge43_Node000023_Node000033" class="edge">
<title>Node23&#45;&gt;Node33</title>
<g id="a_edge43_Node000023_Node000033"><a xlink:title=" ">
<path fill="none" stroke="#63b8ff" d="M867.39,-344.9C874.55,-341.16 881.4,-336.58 887,-331 915.48,-302.62 893.47,-275.29 923,-248 924.15,-246.94 925.35,-245.92 926.59,-244.95"/>
<polygon fill="#63b8ff" stroke="#63b8ff" points="928.91,-247.61 935.31,-239.17 925.04,-241.78 928.91,-247.61"/>
</a>
</g>
</g>
<!-- Node25&#45;&gt;Node26 -->
<g id="edge33_Node000025_Node000026" class="edge">
<title>Node25&#45;&gt;Node26</title>
<g id="a_edge33_Node000025_Node000026"><a xlink:title=" ">
<path fill="none" stroke="#63b8ff" d="M1029.61,-400.59C1054.3,-407.44 1088.18,-416.83 1117.43,-424.93"/>
<polygon fill="#63b8ff" stroke="#63b8ff" points="1116.58,-428.33 1127.15,-427.63 1118.45,-421.58 1116.58,-428.33"/>
</a>
</g>
</g>
<!-- Node27 -->
<g id="Node000027" class="node">
<title>Node27</title>
<g id="a_Node000027"><a xlink:href="classinja_1_1Lexer.html#a0ec13f470ddcf0c1fb7466f6168451b2" target="_top" xlink:title=" ">
<polygon fill="white" stroke="#666666" points="1419,-505 1311,-505 1311,-475 1419,-475 1419,-505"/>
<text text-anchor="start" x="1319" y="-493" font-family="Helvetica,sans-Serif" font-size="10.00">inja::Lexer::current</text>
<text text-anchor="middle" x="1365" y="-482" font-family="Helvetica,sans-Serif" font-size="10.00">_position</text>
</a>
</g>
</g>
<!-- Node26&#45;&gt;Node27 -->
<g id="edge34_Node000026_Node000027" class="edge">
<title>Node26&#45;&gt;Node27</title>
<g id="a_edge34_Node000026_Node000027"><a xlink:title=" ">
<path fill="none" stroke="#63b8ff" d="M1232.95,-455.63C1254.21,-461.2 1279.01,-467.71 1301.27,-473.55"/>
<polygon fill="#63b8ff" stroke="#63b8ff" points="1300.4,-476.94 1310.97,-476.09 1302.18,-470.17 1300.4,-476.94"/>
</a>
</g>
</g>
<!-- Node29 -->
<g id="Node000029" class="node">
<title>Node29</title>
<g id="a_Node000029"><a xlink:href="structinja_1_1ParserError.html#aa76b83dd1badd3fcf64aff6feee7583c" target="_top" xlink:title=" ">
<polygon fill="white" stroke="#666666" points="1415.5,-457 1314.5,-457 1314.5,-427 1415.5,-427 1415.5,-457"/>
<text text-anchor="start" x="1322.5" y="-445" font-family="Helvetica,sans-Serif" font-size="10.00">inja::ParserError::</text>
<text text-anchor="middle" x="1365" y="-434" font-family="Helvetica,sans-Serif" font-size="10.00">ParserError</text>
</a>
</g>
</g>
<!-- Node26&#45;&gt;Node29 -->
<g id="edge37_Node000026_Node000029" class="edge">
<title>Node26&#45;&gt;Node29</title>
<g id="a_edge37_Node000026_Node000029"><a xlink:title=" ">
<path fill="none" stroke="#63b8ff" d="M1232.95,-442C1255.23,-442 1281.37,-442 1304.43,-442"/>
<polygon fill="#63b8ff" stroke="#63b8ff" points="1304.44,-445.5 1314.44,-442 1304.44,-438.5 1304.44,-445.5"/>
</a>
</g>
</g>
<!-- Node28 -->
<g id="Node000028" class="node">
<title>Node28</title>
<g id="a_Node000028"><a xlink:href="namespaceinja.html#ab7c8c54f2caeb72095cd78a7ff7b6c37" target="_top" xlink:title=" ">
<polygon fill="white" stroke="#666666" points="1805,-472.5 1667,-472.5 1667,-453.5 1805,-453.5 1805,-472.5"/>
<text text-anchor="middle" x="1736" y="-460.5" font-family="Helvetica,sans-Serif" font-size="10.00">inja::get_source_location</text>
</a>
</g>
</g>
<!-- Node27&#45;&gt;Node28 -->
<g id="edge35_Node000027_Node000028" class="edge">
<title>Node27&#45;&gt;Node28</title>
<g id="a_edge35_Node000027_Node000028"><a xlink:title=" ">
<path fill="none" stroke="#63b8ff" d="M1419.26,-486.1C1481.47,-481.55 1584.94,-473.98 1656.39,-468.75"/>
<polygon fill="#63b8ff" stroke="#63b8ff" points="1656.97,-472.22 1666.69,-468 1656.46,-465.24 1656.97,-472.22"/>
</a>
</g>
</g>
<!-- Node28&#45;&gt;Node13 -->
<g id="edge36_Node000028_Node000013" class="edge">
<title>Node28&#45;&gt;Node13</title>
<g id="a_edge36_Node000028_Node000013"><a xlink:title=" ">
<path fill="none" stroke="#63b8ff" d="M1760.13,-453.42C1782.74,-444.05 1817.79,-429.53 1846,-417.85"/>
<polygon fill="#63b8ff" stroke="#63b8ff" points="1847.38,-421.07 1855.28,-414 1844.7,-414.6 1847.38,-421.07"/>
</a>
</g>
</g>
<!-- Node30 -->
<g id="Node000030" class="node">
<title>Node30</title>
<g id="a_Node000030"><a xlink:href="structinja_1_1InjaError.html#a399b7d2f7c824c24b7794694711bafb7" target="_top" xlink:title=" ">
<polygon fill="white" stroke="#666666" points="1615.5,-451.5 1486.5,-451.5 1486.5,-432.5 1615.5,-432.5 1615.5,-451.5"/>
<text text-anchor="middle" x="1551" y="-439.5" font-family="Helvetica,sans-Serif" font-size="10.00">inja::InjaError::InjaError</text>
</a>
</g>
</g>
<!-- Node29&#45;&gt;Node30 -->
<g id="edge38_Node000029_Node000030" class="edge">
<title>Node29&#45;&gt;Node30</title>
<g id="a_edge38_Node000029_Node000030"><a xlink:title=" ">
<path fill="none" stroke="#63b8ff" d="M1415.79,-442C1434.37,-442 1455.87,-442 1476.15,-442"/>
<polygon fill="#63b8ff" stroke="#63b8ff" points="1476.3,-445.5 1486.3,-442 1476.3,-438.5 1476.3,-445.5"/>
</a>
</g>
</g>
<!-- Node32 -->
<g id="Node000032" class="node">
<title>Node32</title>
<g id="a_Node000032"><a xlink:href="structinja_1_1FunctionStorage_1_1FunctionData.html#a7e038999d61d736eb2868f64e4820ad7" target="_top" xlink:title=" ">
<polygon fill="white" stroke="#666666" points="1259,-287 1101,-287 1101,-257 1259,-257 1259,-287"/>
<text text-anchor="start" x="1109" y="-275" font-family="Helvetica,sans-Serif" font-size="10.00">inja::FunctionStorage</text>
<text text-anchor="middle" x="1180" y="-264" font-family="Helvetica,sans-Serif" font-size="10.00">::FunctionData::FunctionData</text>
</a>
</g>
</g>
<!-- Node31&#45;&gt;Node32 -->
<g id="edge41_Node000031_Node000032" class="edge">
<title>Node31&#45;&gt;Node32</title>
<g id="a_edge41_Node000031_Node000032"><a xlink:title=" ">
<path fill="none" stroke="#63b8ff" d="M1053.72,-272C1065.51,-272 1078.14,-272 1090.67,-272"/>
<polygon fill="#63b8ff" stroke="#63b8ff" points="1090.69,-275.5 1100.69,-272 1090.69,-268.5 1090.69,-275.5"/>
</a>
</g>
</g>
<!-- Node33&#45;&gt;Node10 -->
<g id="edge44_Node000033_Node000010" class="edge">
<title>Node33&#45;&gt;Node10</title>
<g id="a_edge44_Node000033_Node000010"><a xlink:title=" ">
<path fill="none" stroke="#63b8ff" d="M1055.25,-219.42C1076.6,-217.79 1100.54,-215.97 1121.64,-214.36"/>
<polygon fill="#63b8ff" stroke="#63b8ff" points="1122.04,-217.84 1131.75,-213.6 1121.51,-210.86 1122.04,-217.84"/>
</a>
</g>
</g>
<!-- Node34&#45;&gt;Node8 -->
<g id="edge52_Node000034_Node000008" class="edge">
<title>Node34&#45;&gt;Node8</title>
<g id="a_edge52_Node000034_Node000008"><a xlink:title=" ">
<path fill="none" stroke="#63b8ff" d="M555.62,-485.01C570.59,-490.49 587.95,-496.46 604,-501 667.83,-519.06 684.31,-522.77 750,-532 809.04,-540.29 876.74,-544.61 925.67,-546.81"/>
<polygon fill="#63b8ff" stroke="#63b8ff" points="925.67,-550.31 935.81,-547.25 925.97,-543.32 925.67,-550.31"/>
</a>
</g>
</g>
<!-- Node34&#45;&gt;Node9 -->
<g id="edge53_Node000034_Node000009" class="edge">
<title>Node34&#45;&gt;Node9</title>
<g id="a_edge53_Node000034_Node000009"><a xlink:title=" ">
<path fill="none" stroke="#63b8ff" d="M544.24,-454.87C582.4,-433.6 653.85,-393.47 714,-358 730.15,-348.48 732.93,-343.75 750,-336 808.11,-309.61 840.43,-336.63 887,-293 919.35,-262.7 891.05,-230.72 923,-200 924.13,-198.91 925.31,-197.88 926.53,-196.89"/>
<polygon fill="#63b8ff" stroke="#63b8ff" points="928.87,-199.53 935.16,-191.01 924.93,-193.75 928.87,-199.53"/>
</a>
</g>
</g>
<!-- Node34&#45;&gt;Node22 -->
<g id="edge54_Node000034_Node000022" class="edge">
<title>Node34&#45;&gt;Node22</title>
<g id="a_edge54_Node000034_Node000022"><a xlink:title=" ">
<path fill="none" stroke="#63b8ff" d="M526.42,-454.94C540.93,-432.66 570.59,-390.6 604,-363 607.75,-359.9 611.88,-356.98 616.14,-354.28"/>
<polygon fill="#63b8ff" stroke="#63b8ff" points="618.16,-357.16 624.98,-349.05 614.59,-351.13 618.16,-357.16"/>
</a>
</g>
</g>
<!-- Node34&#45;&gt;Node26 -->
<g id="edge58_Node000034_Node000026" class="edge">
<title>Node34&#45;&gt;Node26</title>
<g id="a_edge58_Node000034_Node000026"><a xlink:title=" ">
<path fill="none" stroke="#63b8ff" d="M568.12,-467.84C688,-462.77 986.9,-450.12 1116.94,-444.62"/>
<polygon fill="#63b8ff" stroke="#63b8ff" points="1117.28,-448.11 1127.12,-444.19 1116.99,-441.12 1117.28,-448.11"/>
</a>
</g>
</g>
<!-- Node35 -->
<g id="Node000035" class="node">
<title>Node35</title>
<g id="a_Node000035"><a xlink:href="classinja_1_1Parser.html#ae1cebbe51ef6a93fc3d448263f9bf1e3" target="_top" xlink:title=" ">
<polygon fill="white" stroke="#666666" points="714,-647 604,-647 604,-617 714,-617 714,-647"/>
<text text-anchor="start" x="612" y="-635" font-family="Helvetica,sans-Serif" font-size="10.00">inja::Parser::add_to</text>
<text text-anchor="middle" x="659" y="-624" font-family="Helvetica,sans-Serif" font-size="10.00">_template_storage</text>
</a>
</g>
</g>
<!-- Node34&#45;&gt;Node35 -->
<g id="edge48_Node000034_Node000035" class="edge">
<title>Node34&#45;&gt;Node35</title>
<g id="a_edge48_Node000034_Node000035"><a xlink:title=" ">
<path fill="none" stroke="#63b8ff" d="M530.26,-485.24C555.04,-513.7 608.47,-575.1 637.77,-608.76"/>
<polygon fill="#63b8ff" stroke="#63b8ff" points="635.46,-611.44 644.67,-616.68 640.74,-606.84 635.46,-611.44"/>
</a>
</g>
</g>
<!-- Node37 -->
<g id="Node000037" class="node">
<title>Node37</title>
<g id="a_Node000037"><a xlink:href="classinja_1_1Parser.html#a1bd2c3127357715521ec111c39a7e823" target="_top" xlink:title=" ">
<polygon fill="white" stroke="#666666" points="870.5,-523 766.5,-523 766.5,-493 870.5,-493 870.5,-523"/>
<text text-anchor="start" x="774.5" y="-511" font-family="Helvetica,sans-Serif" font-size="10.00">inja::Parser::parse</text>
<text text-anchor="middle" x="818.5" y="-500" font-family="Helvetica,sans-Serif" font-size="10.00">_filename</text>
</a>
</g>
</g>
<!-- Node34&#45;&gt;Node37 -->
<g id="edge55_Node000034_Node000037" class="edge">
<title>Node34&#45;&gt;Node37</title>
<g id="a_edge55_Node000034_Node000037"><a xlink:title=" ">
<path fill="none" stroke="#63b8ff" d="M568.32,-476.49C620.39,-483.07 701.01,-493.27 756.37,-500.27"/>
<polygon fill="#63b8ff" stroke="#63b8ff" points="756.04,-503.76 766.4,-501.54 756.91,-496.81 756.04,-503.76"/>
</a>
</g>
</g>
<!-- Node35&#45;&gt;Node3 -->
<g id="edge49_Node000035_Node000003" class="edge">
<title>Node35&#45;&gt;Node3</title>
<g id="a_edge49_Node000035_Node000003"><a xlink:title=" ">
<path fill="none" stroke="#63b8ff" d="M693.79,-647.02C721.32,-659.25 759.88,-676.39 786.6,-688.27"/>
<polygon fill="#63b8ff" stroke="#63b8ff" points="785.31,-691.52 795.86,-692.38 788.15,-685.12 785.31,-691.52"/>
</a>
</g>
</g>
<!-- Node35&#45;&gt;Node5 -->
<g id="edge50_Node000035_Node000005" class="edge">
<title>Node35&#45;&gt;Node5</title>
<g id="a_edge50_Node000035_Node000005"><a xlink:title=" ">
<path fill="none" stroke="#63b8ff" d="M603.87,-625.26C533.63,-616.3 407.35,-599.42 300,-581 289.27,-579.16 277.88,-577.02 266.87,-574.87"/>
<polygon fill="#63b8ff" stroke="#63b8ff" points="267.39,-571.4 256.9,-572.89 266.03,-578.27 267.39,-571.4"/>
</a>
</g>
</g>
<!-- Node35&#45;&gt;Node36 -->
<g id="edge51_Node000035_Node000036" class="edge">
<title>Node35&#45;&gt;Node36</title>
<g id="a_edge51_Node000035_Node000036"><a xlink:title=" ">
<path fill="none" stroke="#63b8ff" d="M714.2,-635.79C722.45,-636.36 731.1,-636.97 739.74,-637.57"/>
<polygon fill="#63b8ff" stroke="#63b8ff" points="739.62,-641.07 749.84,-638.27 740.11,-634.09 739.62,-641.07"/>
</a>
</g>
</g>
<!-- Node37&#45;&gt;Node8 -->
<g id="edge56_Node000037_Node000008" class="edge">
<title>Node37&#45;&gt;Node8</title>
<g id="a_edge56_Node000037_Node000008"><a xlink:title=" ">
<path fill="none" stroke="#63b8ff" d="M870.62,-520.08C893.43,-525.47 920.22,-531.8 942.91,-537.16"/>
<polygon fill="#63b8ff" stroke="#63b8ff" points="942.15,-540.58 952.69,-539.47 943.76,-533.77 942.15,-540.58"/>
</a>
</g>
</g>
<!-- Node37&#45;&gt;Node26 -->
<g id="edge57_Node000037_Node000026" class="edge">
<title>Node37&#45;&gt;Node26</title>
<g id="a_edge57_Node000037_Node000026"><a xlink:title=" ">
<path fill="none" stroke="#63b8ff" d="M870.82,-505.65C920.86,-502.58 998.88,-495.76 1065,-481 1087.54,-475.97 1111.85,-468.02 1132.21,-460.61"/>
<polygon fill="#63b8ff" stroke="#63b8ff" points="1133.7,-463.79 1141.86,-457.03 1131.26,-457.23 1133.7,-463.79"/>
</a>
</g>
</g>
<!-- Node38&#45;&gt;Node21 -->
<g id="edge60_Node000038_Node000021" class="edge">
<title>Node38&#45;&gt;Node21</title>
<g id="a_edge60_Node000038_Node000021"><a xlink:title=" ">
<path fill="none" stroke="#63b8ff" d="M675.97,-103.37C722.85,-76.04 864.79,0 993,0 993,0 993,0 1181,0 1290.04,0 1416.48,-14.47 1489.46,-24.25"/>
<polygon fill="#63b8ff" stroke="#63b8ff" points="1489.01,-27.72 1499.39,-25.59 1489.95,-20.78 1489.01,-27.72"/>
</a>
</g>
</g>
<!-- Node40 -->
<g id="Node000040" class="node">
<title>Node40</title>
<g id="a_Node000040"><a xlink:href="classinja_1_1Lexer.html#ad272f0bdcfcb0a36580e418089d0c071" target="_top" xlink:title=" ">
<polygon fill="white" stroke="#666666" points="566.5,-212.5 465.5,-212.5 465.5,-193.5 566.5,-193.5 566.5,-212.5"/>
<text text-anchor="middle" x="516" y="-200.5" font-family="Helvetica,sans-Serif" font-size="10.00">inja::Lexer::Lexer</text>
</a>
</g>
</g>
<!-- Node39&#45;&gt;Node40 -->
<g id="edge63_Node000039_Node000040" class="edge">
<title>Node39&#45;&gt;Node40</title>
<g id="a_edge63_Node000039_Node000040"><a xlink:title=" ">
<path fill="none" stroke="#63b8ff" d="M367.81,-402.2C376.86,-372.15 408,-280.18 464,-227 467.99,-223.21 472.69,-219.93 477.59,-217.11"/>
<polygon fill="#63b8ff" stroke="#63b8ff" points="479.22,-220.21 486.53,-212.54 476.04,-213.98 479.22,-220.21"/>
</a>
</g>
</g>
</g>
</svg>
