<?xml version="1.0" encoding="UTF-8" standalone="no"?>
<!DOCTYPE svg PUBLIC "-//W3C//DTD SVG 1.1//EN"
 "http://www.w3.org/Graphics/SVG/1.1/DTD/svg11.dtd">
<!-- Generated by graphviz version 14.1.2 (0)
 -->
<!-- Title: inja::Environment::add_void_callback Pages: 1 -->
<svg width="608pt" height="42pt"
 viewBox="0.00 0.00 608.00 42.00" xmlns="http://www.w3.org/2000/svg" xmlns:xlink="http://www.w3.org/1999/xlink">
<g id="graph0" class="graph" transform="scale(1 1) rotate(0) translate(4 37.5)">
<title>inja::Environment::add_void_callback</title>
<!-- Node1 -->
<g id="Node000001" class="node">
<title>Node1</title>
<g id="a_Node000001"><a xlink:title="Adds a variadic void callback.">
<polygon fill="#999999" stroke="#666666" points="108.25,-33.5 0,-33.5 0,0 108.25,0 108.25,-33.5"/>
<text xml:space="preserve" text-anchor="start" x="8" y="-20" font-family="Helvetica,sans-Serif" font-size="10.00">inja::Environment::</text>
<text xml:space="preserve" text-anchor="middle" x="54.12" y="-7.25" font-family="Helvetica,sans-Serif" font-size="10.00">add_void_callback</text>
</a>
</g>
</g>
<!-- Node2 -->
<g id="Node000002" class="node">
<title>Node2</title>
<g id="a_Node000002"><a xlink:href="classinja_1_1Environment.html#a3467986ae633a7c546a62c387b6c613f" target="_top" xlink:title="Adds a void callback with given number or arguments.">
<polygon fill="white" stroke="#666666" points="252.5,-33.5 144.25,-33.5 144.25,0 252.5,0 252.5,-33.5"/>
<text xml:space="preserve" text-anchor="start" x="152.25" y="-20" font-family="Helvetica,sans-Serif" font-size="10.00">inja::Environment::</text>
<text xml:space="preserve" text-anchor="middle" x="198.38" y="-7.25" font-family="Helvetica,sans-Serif" font-size="10.00">add_void_callback</text>
</a>
</g>
</g>
<!-- Node1&#45;&gt;Node2 -->
<g id="edge1_Node000001_Node000002" class="edge">
<title>Node1&#45;&gt;Node2</title>
<g id="a_edge1_Node000001_Node000002"><a xlink:title=" ">
<path fill="none" stroke="#63b8ff" d="M108.5,-16.75C116.43,-16.75 124.67,-16.75 132.8,-16.75"/>
<polygon fill="#63b8ff" stroke="#63b8ff" points="132.66,-20.25 142.66,-16.75 132.66,-13.25 132.66,-20.25"/>
</a>
</g>
</g>
<!-- Node3 -->
<g id="Node000003" class="node">
<title>Node3</title>
<g id="a_Node000003"><a xlink:href="classinja_1_1FunctionStorage.html#ae6060e88dacd550e8b48992fd6f0500f" target="_top" xlink:title=" ">
<polygon fill="white" stroke="#666666" points="407.25,-33.5 288.5,-33.5 288.5,0 407.25,0 407.25,-33.5"/>
<text xml:space="preserve" text-anchor="start" x="296.5" y="-20" font-family="Helvetica,sans-Serif" font-size="10.00">inja::FunctionStorage</text>
<text xml:space="preserve" text-anchor="middle" x="347.88" y="-7.25" font-family="Helvetica,sans-Serif" font-size="10.00">::add_callback</text>
</a>
</g>
</g>
<!-- Node2&#45;&gt;Node3 -->
<g id="edge2_Node000002_Node000003" class="edge">
<title>Node2&#45;&gt;Node3</title>
<g id="a_edge2_Node000002_Node000003"><a xlink:title=" ">
<path fill="none" stroke="#63b8ff" d="M252.63,-16.75C260.48,-16.75 268.67,-16.75 276.8,-16.75"/>
<polygon fill="#63b8ff" stroke="#63b8ff" points="276.69,-20.25 286.69,-16.75 276.69,-13.25 276.69,-20.25"/>
</a>
</g>
</g>
<!-- Node4 -->
<g id="Node000004" class="node">
<title>Node4</title>
<g id="a_Node000004"><a xlink:href="structinja_1_1FunctionStorage_1_1FunctionData.html#a7e038999d61d736eb2868f64e4820ad7" target="_top" xlink:title=" ">
<polygon fill="white" stroke="#666666" points="600.25,-33.5 443.25,-33.5 443.25,0 600.25,0 600.25,-33.5"/>
<text xml:space="preserve" text-anchor="start" x="451.25" y="-20" font-family="Helvetica,sans-Serif" font-size="10.00">inja::FunctionStorage</text>
<text xml:space="preserve" text-anchor="middle" x="521.75" y="-7.25" font-family="Helvetica,sans-Serif" font-size="10.00">::FunctionData::FunctionData</text>
</a>
</g>
</g>
<!-- Node3&#45;&gt;Node4 -->
<g id="edge3_Node000003_Node000004" class="edge">
<title>Node3&#45;&gt;Node4</title>
<g id="a_edge3_Node000003_Node000004"><a xlink:title=" ">
<path fill="none" stroke="#63b8ff" d="M407.54,-16.75C415.28,-16.75 423.34,-16.75 431.44,-16.75"/>
<polygon fill="#63b8ff" stroke="#63b8ff" points="431.38,-20.25 441.38,-16.75 431.38,-13.25 431.38,-20.25"/>
</a>
</g>
</g>
</g>
</svg>
