<?xml version="1.0" encoding="UTF-8" standalone="no"?>
<!DOCTYPE svg PUBLIC "-//W3C//DTD SVG 1.1//EN"
 "http://www.w3.org/Graphics/SVG/1.1/DTD/svg11.dtd">
<!-- Generated by graphviz version 2.42.4 (0)
 -->
<!-- Title: inja::BlockStatementNode Pages: 1 -->
<svg width="401pt" height="354pt"
 viewBox="0.00 0.00 401.00 354.00" xmlns="http://www.w3.org/2000/svg" xmlns:xlink="http://www.w3.org/1999/xlink">
<g id="graph0" class="graph" transform="scale(1 1) rotate(0) translate(4 350)">
<title>inja::BlockStatementNode</title>
<!-- Node1 -->
<g id="Node000001" class="node">
<title>Node1</title>
<g id="a_Node000001"><a xlink:title=" ">
<polygon fill="#999999" stroke="transparent" points="239,-19 103,-19 103,0 239,0 239,-19"/>
<text text-anchor="start" x="107" y="-6.5" font-family="Helvetica,sans-Serif" font-size="10.00">inja::BlockStatementNode</text>
<polygon fill="none" stroke="#666666" points="103,0 103,-19 239,-19 239,0 103,0"/>
</a>
</g>
</g>
<!-- Node2 -->
<g id="Node000002" class="node">
<title>Node2</title>
<g id="a_Node000002"><a xlink:href="classinja_1_1StatementNode.html" target="_top" xlink:title=" ">
<polygon fill="white" stroke="transparent" points="110,-226 0,-226 0,-207 110,-207 110,-226"/>
<text text-anchor="start" x="4.5" y="-213.5" font-family="Helvetica,sans-Serif" font-size="10.00">inja::StatementNode</text>
<polygon fill="none" stroke="#666666" points="0,-207 0,-226 110,-226 110,-207 0,-207"/>
</a>
</g>
</g>
<!-- Node2&#45;&gt;Node1 -->
<g id="edge1_Node000001_Node000002" class="edge">
<title>Node2&#45;&gt;Node1</title>
<g id="a_edge1_Node000001_Node000002"><a xlink:title=" ">
<path fill="none" stroke="#63b8ff" d="M63.04,-197.49C74.5,-172.26 96.64,-125.21 119,-87 133.93,-61.5 154.26,-33.14 164.52,-19.2"/>
<polygon fill="none" stroke="#63b8ff" points="59.72,-196.32 58.81,-206.87 66.11,-199.19 59.72,-196.32"/>
</a>
</g>
</g>
<!-- Node3 -->
<g id="Node000003" class="node">
<title>Node3</title>
<g id="a_Node000003"><a xlink:href="classinja_1_1AstNode.html" target="_top" xlink:title="Base node class for the abstract syntax tree (AST).">
<polygon fill="white" stroke="transparent" points="162,-346 88,-346 88,-327 162,-327 162,-346"/>
<text text-anchor="start" x="92" y="-333.5" font-family="Helvetica,sans-Serif" font-size="10.00">inja::AstNode</text>
<polygon fill="none" stroke="#666666" points="88,-327 88,-346 162,-346 162,-327 88,-327"/>
</a>
</g>
</g>
<!-- Node3&#45;&gt;Node2 -->
<g id="edge2_Node000002_Node000003" class="edge">
<title>Node3&#45;&gt;Node2</title>
<g id="a_edge2_Node000002_Node000003"><a xlink:title=" ">
<path fill="none" stroke="#63b8ff" d="M114.57,-317.92C99.34,-292.25 71.57,-245.43 60.13,-226.15"/>
<polygon fill="none" stroke="#63b8ff" points="111.63,-319.82 119.74,-326.63 117.65,-316.24 111.63,-319.82"/>
</a>
</g>
</g>
<!-- Node6 -->
<g id="Node000006" class="node">
<title>Node6</title>
<g id="a_Node000006"><a xlink:href="classinja_1_1BlockNode.html" target="_top" xlink:title=" ">
<polygon fill="white" stroke="transparent" points="214,-106 128,-106 128,-87 214,-87 214,-106"/>
<text text-anchor="start" x="132.5" y="-93.5" font-family="Helvetica,sans-Serif" font-size="10.00">inja::BlockNode</text>
<polygon fill="none" stroke="#666666" points="128,-87 128,-106 214,-106 214,-87 128,-87"/>
</a>
</g>
</g>
<!-- Node3&#45;&gt;Node6 -->
<g id="edge6_Node000006_Node000003" class="edge">
<title>Node3&#45;&gt;Node6</title>
<g id="a_edge6_Node000006_Node000003"><a xlink:title=" ">
<path fill="none" stroke="#63b8ff" d="M125.15,-316.57C125.83,-283.87 129.08,-214.96 144,-159 149.23,-139.39 159.82,-118.03 166.07,-106.35"/>
<polygon fill="none" stroke="#63b8ff" points="121.65,-316.83 125,-326.88 128.65,-316.93 121.65,-316.83"/>
</a>
</g>
</g>
<!-- Node8 -->
<g id="Node000008" class="node">
<title>Node8</title>
<g id="a_Node000008"><a xlink:title=" ">
<polygon fill="white" stroke="transparent" points="268,-274 156,-274 156,-244 268,-244 268,-274"/>
<text text-anchor="start" x="160.5" y="-262" font-family="Helvetica,sans-Serif" font-size="10.00">std::shared_ptr&lt; inja</text>
<text text-anchor="start" x="182.5" y="-251" font-family="Helvetica,sans-Serif" font-size="10.00">::AstNode &gt;</text>
<polygon fill="none" stroke="#666666" points="156,-244 156,-274 268,-274 268,-244 156,-244"/>
</a>
</g>
</g>
<!-- Node3&#45;&gt;Node8 -->
<g id="edge9_Node000008_Node000003" class="edge">
<title>Node3&#45;&gt;Node8</title>
<g id="a_edge9_Node000008_Node000003"><a xlink:title=" ">
<path fill="none" stroke="#63b8ff" d="M134.98,-326.84C147.37,-316.09 168.96,-297.35 186.13,-282.45"/>
<polygon fill="none" stroke="#63b8ff" points="186.57,-282.07 188.48,-275.12 195.63,-274.21 193.72,-281.16 186.57,-282.07"/>
</a>
</g>
<text text-anchor="start" x="177" y="-297.5" font-family="Helvetica,sans-Serif" font-size="10.00" fill="grey">+ptr</text>
</g>
<!-- Node4 -->
<g id="Node000004" class="node">
<title>Node4</title>
<g id="a_Node000004"><a xlink:title=" ">
<polygon fill="white" stroke="transparent" points="359,-106 301,-106 301,-87 359,-87 359,-106"/>
<text text-anchor="start" x="305.5" y="-93.5" font-family="Helvetica,sans-Serif" font-size="10.00">std::string</text>
<polygon fill="none" stroke="#666666" points="301,-87 301,-106 359,-106 359,-87 301,-87"/>
</a>
</g>
</g>
<!-- Node4&#45;&gt;Node1 -->
<g id="edge3_Node000001_Node000004" class="edge">
<title>Node4&#45;&gt;Node1</title>
<g id="a_edge3_Node000001_Node000004"><a xlink:title=" ">
<path fill="none" stroke="#63b8ff" d="M314.13,-86.95C292.92,-75.53 254.16,-54.69 221,-37 213.52,-33.01 205.39,-28.7 197.92,-24.73"/>
<polygon fill="none" stroke="#63b8ff" points="197.83,-24.69 190.66,-25.41 187.22,-19.07 194.4,-18.34 197.83,-24.69"/>
</a>
</g>
<text text-anchor="start" x="283.5" y="-50" font-family="Helvetica,sans-Serif" font-size="10.00" fill="grey">+name</text>
</g>
<!-- Node5 -->
<g id="Node000005" class="node">
<title>Node5</title>
<g id="a_Node000005"><a xlink:title=" ">
<polygon fill="white" stroke="transparent" points="393,-189 297,-189 297,-159 393,-159 393,-189"/>
<text text-anchor="start" x="301" y="-177" font-family="Helvetica,sans-Serif" font-size="10.00">std::basic_string&lt;</text>
<text text-anchor="start" x="326.5" y="-166" font-family="Helvetica,sans-Serif" font-size="10.00"> Char &gt;</text>
<polygon fill="none" stroke="#666666" points="297,-159 297,-189 393,-189 393,-159 297,-159"/>
</a>
</g>
</g>
<!-- Node5&#45;&gt;Node4 -->
<g id="edge4_Node000004_Node000005" class="edge">
<title>Node5&#45;&gt;Node4</title>
<g id="a_edge4_Node000004_Node000005"><a xlink:title=" ">
<path fill="none" stroke="#63b8ff" d="M340.2,-148.83C337.28,-134.15 333.74,-116.32 331.69,-106.01"/>
<polygon fill="none" stroke="#63b8ff" points="336.8,-149.67 342.18,-158.8 343.66,-148.31 336.8,-149.67"/>
</a>
</g>
</g>
<!-- Node6&#45;&gt;Node1 -->
<g id="edge5_Node000001_Node000006" class="edge">
<title>Node6&#45;&gt;Node1</title>
<g id="a_edge5_Node000001_Node000006"><a xlink:title=" ">
<path fill="none" stroke="#63b8ff" d="M171,-86.72C171,-73.81 171,-49.29 171,-31.55"/>
<polygon fill="none" stroke="#63b8ff" points="171,-31.36 167,-25.36 171,-19.36 175,-25.36 171,-31.36"/>
</a>
</g>
<text text-anchor="start" x="174" y="-58" font-family="Helvetica,sans-Serif" font-size="10.00" fill="grey">+block</text>
<text text-anchor="start" x="174" y="-43" font-family="Helvetica,sans-Serif" font-size="10.00" fill="grey">+parent</text>
</g>
<!-- Node7 -->
<g id="Node000007" class="node">
<title>Node7</title>
<g id="a_Node000007"><a xlink:title=" ">
<polygon fill="white" stroke="transparent" points="279,-189 153,-189 153,-159 279,-159 279,-189"/>
<text text-anchor="start" x="157" y="-177" font-family="Helvetica,sans-Serif" font-size="10.00">std::vector&lt; std::shared</text>
<text text-anchor="start" x="157" y="-166" font-family="Helvetica,sans-Serif" font-size="10.00">_ptr&lt; inja::AstNode &gt; &gt;</text>
<polygon fill="none" stroke="#666666" points="153,-159 153,-189 279,-189 279,-159 153,-159"/>
</a>
</g>
</g>
<!-- Node7&#45;&gt;Node6 -->
<g id="edge7_Node000006_Node000007" class="edge">
<title>Node7&#45;&gt;Node6</title>
<g id="a_edge7_Node000006_Node000007"><a xlink:title=" ">
<path fill="none" stroke="#63b8ff" d="M207.54,-158.8C200.44,-146.89 190.24,-129.79 182.43,-116.67"/>
<polygon fill="none" stroke="#63b8ff" points="182.21,-116.32 175.71,-113.21 176.07,-106.01 182.58,-109.11 182.21,-116.32"/>
</a>
</g>
<text text-anchor="start" x="200" y="-129.5" font-family="Helvetica,sans-Serif" font-size="10.00" fill="grey">+nodes</text>
</g>
<!-- Node8&#45;&gt;Node7 -->
<g id="edge8_Node000007_Node000008" class="edge">
<title>Node8&#45;&gt;Node7</title>
<g id="a_edge8_Node000007_Node000008"><a xlink:title=" ">
<path fill="none" stroke="#63b8ff" d="M212.68,-243.92C213.24,-232.23 214.06,-215.3 214.74,-201.14"/>
<polygon fill="none" stroke="#63b8ff" points="214.74,-201.13 211.03,-194.95 215.32,-189.15 219.02,-195.33 214.74,-201.13"/>
</a>
</g>
<text text-anchor="start" x="218.5" y="-213.5" font-family="Helvetica,sans-Serif" font-size="10.00" fill="grey">+elements</text>
</g>
</g>
</svg>
