<?xml version="1.0" encoding="UTF-8" standalone="no"?>
<!DOCTYPE svg PUBLIC "-//W3C//DTD SVG 1.1//EN"
 "http://www.w3.org/Graphics/SVG/1.1/DTD/svg11.dtd">
<!-- Generated by graphviz version 14.1.1 (0)
 -->
<!-- Title: mqtt::mqttbroker::lib::MqttModel::addClient Pages: 1 -->
<svg width="330pt" height="338pt"
 viewBox="0.00 0.00 330.00 338.00" xmlns="http://www.w3.org/2000/svg" xmlns:xlink="http://www.w3.org/1999/xlink">
<g id="graph0" class="graph" transform="scale(1 1) rotate(0) translate(4 333.5)">
<title>mqtt::mqttbroker::lib::MqttModel::addClient</title>
<!-- Node1 -->
<g id="Node000001" class="node">
<title>Node1</title>
<g id="a_Node000001"><a xlink:title=" ">
<polygon fill="#999999" stroke="#666666" points="127,-175.5 0,-175.5 0,-142 127,-142 127,-175.5"/>
<text xml:space="preserve" text-anchor="start" x="8" y="-162" font-family="Helvetica,sans-Serif" font-size="10.00">mqtt::mqttbroker::lib</text>
<text xml:space="preserve" text-anchor="middle" x="63.5" y="-149.25" font-family="Helvetica,sans-Serif" font-size="10.00">::MqttModel::addClient</text>
</a>
</g>
</g>
<!-- Node2 -->
<g id="Node000002" class="node">
<title>Node2</title>
<g id="a_Node000002"><a xlink:href="namespacemqtt_1_1mqttbroker_1_1lib.html#a02d5d1cde3771e3752ad77b18c0e2095" target="_top" xlink:title=" ">
<polygon fill="white" stroke="#666666" points="300.88,-329.5 183.62,-329.5 183.62,-296 300.88,-296 300.88,-329.5"/>
<text xml:space="preserve" text-anchor="start" x="191.62" y="-316" font-family="Helvetica,sans-Serif" font-size="10.00">mqtt::mqttbroker::lib</text>
<text xml:space="preserve" text-anchor="middle" x="242.25" y="-303.25" font-family="Helvetica,sans-Serif" font-size="10.00">::href</text>
</a>
</g>
</g>
<!-- Node1&#45;&gt;Node2 -->
<g id="edge1_Node000001_Node000002" class="edge">
<title>Node1&#45;&gt;Node2</title>
<g id="a_edge1_Node000001_Node000002"><a xlink:title=" ">
<path fill="none" stroke="#63b8ff" d="M73.27,-175.89C88.11,-203.24 120.72,-256.7 163,-286.75 166.19,-289.02 169.59,-291.09 173.12,-293"/>
<polygon fill="#63b8ff" stroke="#63b8ff" points="171.45,-296.08 181.98,-297.27 174.48,-289.77 171.45,-296.08"/>
</a>
</g>
</g>
<!-- Node3 -->
<g id="Node000003" class="node">
<title>Node3</title>
<g id="a_Node000003"><a xlink:href="classmqtt_1_1mqttbroker_1_1lib_1_1MqttModel_1_1MqttModelEntry.html#a9195c7ab0fbabb26a29dc826fb9a3c1a" target="_top" xlink:title=" ">
<polygon fill="white" stroke="#666666" points="321.5,-277.88 163,-277.88 163,-231.62 321.5,-231.62 321.5,-277.88"/>
<text xml:space="preserve" text-anchor="start" x="171" y="-264.38" font-family="Helvetica,sans-Serif" font-size="10.00">mqtt::mqttbroker::lib</text>
<text xml:space="preserve" text-anchor="start" x="171" y="-251.62" font-family="Helvetica,sans-Serif" font-size="10.00">::MqttModel::MqttModelEntry</text>
<text xml:space="preserve" text-anchor="middle" x="242.25" y="-238.88" font-family="Helvetica,sans-Serif" font-size="10.00">::MqttModelEntry</text>
</a>
</g>
</g>
<!-- Node1&#45;&gt;Node3 -->
<g id="edge2_Node000001_Node000003" class="edge">
<title>Node1&#45;&gt;Node3</title>
<g id="a_edge2_Node000001_Node000003"><a xlink:title=" ">
<path fill="none" stroke="#63b8ff" d="M88.02,-175.84C107.52,-189.55 136.26,-208.75 163,-222.75 165.36,-223.98 167.78,-225.21 170.23,-226.41"/>
<polygon fill="#63b8ff" stroke="#63b8ff" points="168.59,-229.5 179.12,-230.59 171.57,-223.17 168.59,-229.5"/>
</a>
</g>
</g>
<!-- Node4 -->
<g id="Node000004" class="node">
<title>Node4</title>
<g id="a_Node000004"><a xlink:href="classmqtt_1_1mqttbroker_1_1lib_1_1MqttModel_1_1MqttModelEntry.html#ad5176b21cbb0e6fbcbf06adbbd8e0ef5" target="_top" xlink:title=" ">
<polygon fill="white" stroke="#666666" points="321.5,-213.88 163,-213.88 163,-167.62 321.5,-167.62 321.5,-213.88"/>
<text xml:space="preserve" text-anchor="start" x="171" y="-200.38" font-family="Helvetica,sans-Serif" font-size="10.00">mqtt::mqttbroker::lib</text>
<text xml:space="preserve" text-anchor="start" x="171" y="-187.62" font-family="Helvetica,sans-Serif" font-size="10.00">::MqttModel::MqttModelEntry</text>
<text xml:space="preserve" text-anchor="middle" x="242.25" y="-174.88" font-family="Helvetica,sans-Serif" font-size="10.00">::onlineDuration</text>
</a>
</g>
</g>
<!-- Node1&#45;&gt;Node4 -->
<g id="edge3_Node000001_Node000004" class="edge">
<title>Node1&#45;&gt;Node4</title>
<g id="a_edge3_Node000001_Node000004"><a xlink:title=" ">
<path fill="none" stroke="#63b8ff" d="M127.31,-170.12C135.16,-171.54 143.3,-173.02 151.45,-174.49"/>
<polygon fill="#63b8ff" stroke="#63b8ff" points="150.6,-177.9 161.07,-176.23 151.85,-171.01 150.6,-177.9"/>
</a>
</g>
</g>
<!-- Node5 -->
<g id="Node000005" class="node">
<title>Node5</title>
<g id="a_Node000005"><a xlink:href="classmqtt_1_1mqttbroker_1_1lib_1_1MqttModel_1_1MqttModelEntry.html#aa1e16191c7815af56c3986dd7eaf0394" target="_top" xlink:title=" ">
<polygon fill="white" stroke="#666666" points="321.5,-149.88 163,-149.88 163,-103.62 321.5,-103.62 321.5,-149.88"/>
<text xml:space="preserve" text-anchor="start" x="171" y="-136.38" font-family="Helvetica,sans-Serif" font-size="10.00">mqtt::mqttbroker::lib</text>
<text xml:space="preserve" text-anchor="start" x="171" y="-123.62" font-family="Helvetica,sans-Serif" font-size="10.00">::MqttModel::MqttModelEntry</text>
<text xml:space="preserve" text-anchor="middle" x="242.25" y="-110.88" font-family="Helvetica,sans-Serif" font-size="10.00">::onlineSince</text>
</a>
</g>
</g>
<!-- Node1&#45;&gt;Node5 -->
<g id="edge4_Node000001_Node000005" class="edge">
<title>Node1&#45;&gt;Node5</title>
<g id="a_edge4_Node000001_Node000005"><a xlink:title=" ">
<path fill="none" stroke="#63b8ff" d="M127.31,-147.38C135.16,-145.96 143.3,-144.48 151.45,-143.01"/>
<polygon fill="#63b8ff" stroke="#63b8ff" points="151.85,-146.49 161.07,-141.27 150.6,-139.6 151.85,-146.49"/>
</a>
</g>
</g>
<!-- Node6 -->
<g id="Node000006" class="node">
<title>Node6</title>
<g id="a_Node000006"><a xlink:href="classmqtt_1_1mqttbroker_1_1lib_1_1MqttModel.html#a07170b2273f528a0498479600ad2a95b" target="_top" xlink:title=" ">
<polygon fill="white" stroke="#666666" points="308,-85.5 176.5,-85.5 176.5,-52 308,-52 308,-85.5"/>
<text xml:space="preserve" text-anchor="start" x="184.5" y="-72" font-family="Helvetica,sans-Serif" font-size="10.00">mqtt::mqttbroker::lib</text>
<text xml:space="preserve" text-anchor="middle" x="242.25" y="-59.25" font-family="Helvetica,sans-Serif" font-size="10.00">::MqttModel::sendEvent</text>
</a>
</g>
</g>
<!-- Node1&#45;&gt;Node6 -->
<g id="edge5_Node000001_Node000006" class="edge">
<title>Node1&#45;&gt;Node6</title>
<g id="a_edge5_Node000001_Node000006"><a xlink:title=" ">
<path fill="none" stroke="#63b8ff" d="M87,-141.74C106.36,-127.71 135.44,-108.01 163,-94.75 166.29,-93.17 169.7,-91.64 173.17,-90.18"/>
<polygon fill="#63b8ff" stroke="#63b8ff" points="174.33,-93.48 182.33,-86.54 171.74,-86.98 174.33,-93.48"/>
</a>
</g>
</g>
<!-- Node7 -->
<g id="Node000007" class="node">
<title>Node7</title>
<g id="a_Node000007"><a xlink:href="namespacemqtt_1_1mqttbroker_1_1lib.html#a84d9d071543d085c7a76251f47fc7f31" target="_top" xlink:title=" ">
<polygon fill="white" stroke="#666666" points="300.88,-33.5 183.62,-33.5 183.62,0 300.88,0 300.88,-33.5"/>
<text xml:space="preserve" text-anchor="start" x="191.62" y="-20" font-family="Helvetica,sans-Serif" font-size="10.00">mqtt::mqttbroker::lib</text>
<text xml:space="preserve" text-anchor="middle" x="242.25" y="-7.25" font-family="Helvetica,sans-Serif" font-size="10.00">::windowId</text>
</a>
</g>
</g>
<!-- Node1&#45;&gt;Node7 -->
<g id="edge6_Node000001_Node000007" class="edge">
<title>Node1&#45;&gt;Node7</title>
<g id="a_edge6_Node000001_Node000007"><a xlink:title=" ">
<path fill="none" stroke="#63b8ff" d="M74.7,-141.6C90.54,-116.41 123.37,-69.51 163,-42.75 166.08,-40.67 169.35,-38.74 172.73,-36.96"/>
<polygon fill="#63b8ff" stroke="#63b8ff" points="174.22,-40.12 181.76,-32.68 171.22,-33.8 174.22,-40.12"/>
</a>
</g>
</g>
</g>
</svg>
