<?xml version="1.0" encoding="UTF-8" standalone="no"?>
<!DOCTYPE svg PUBLIC "-//W3C//DTD SVG 1.1//EN"
 "http://www.w3.org/Graphics/SVG/1.1/DTD/svg11.dtd">
<!-- Generated by graphviz version 14.1.2 (0)
 -->
<!-- Title: inja::Lexer::scan_number Pages: 1 -->
<svg width="453pt" height="80pt"
 viewBox="0.00 0.00 453.00 80.00" xmlns="http://www.w3.org/2000/svg" xmlns:xlink="http://www.w3.org/1999/xlink">
<g id="graph0" class="graph" transform="scale(1 1) rotate(0) translate(4 76.12)">
<title>inja::Lexer::scan_number</title>
<!-- Node1 -->
<g id="Node000001" class="node">
<title>Node1</title>
<g id="a_Node000001"><a xlink:title=" ">
<polygon fill="#999999" stroke="#666666" points="138.25,-42.75 0,-42.75 0,-22 138.25,-22 138.25,-42.75"/>
<text xml:space="preserve" text-anchor="middle" x="69.12" y="-29.25" font-family="Helvetica,sans-Serif" font-size="10.00">inja::Lexer::scan_number</text>
</a>
</g>
</g>
<!-- Node2 -->
<g id="Node000002" class="node">
<title>Node2</title>
<g id="a_Node000002"><a xlink:href="classinja_1_1Lexer.html#a6088871283d1a03087b325b88c9396f4" target="_top" xlink:title=" ">
<polygon fill="white" stroke="#666666" points="306.5,-42.75 174.25,-42.75 174.25,-22 306.5,-22 306.5,-42.75"/>
<text xml:space="preserve" text-anchor="middle" x="240.38" y="-29.25" font-family="Helvetica,sans-Serif" font-size="10.00">inja::Lexer::make_token</text>
</a>
</g>
</g>
<!-- Node1&#45;&gt;Node2 -->
<g id="edge1_Node000001_Node000002" class="edge">
<title>Node1&#45;&gt;Node2</title>
<g id="a_edge1_Node000001_Node000002"><a xlink:title=" ">
<path fill="none" stroke="#63b8ff" d="M138.48,-32.38C146.4,-32.38 154.51,-32.38 162.54,-32.38"/>
<polygon fill="#63b8ff" stroke="#63b8ff" points="162.27,-35.88 172.27,-32.38 162.27,-28.88 162.27,-35.88"/>
</a>
</g>
</g>
<!-- Node3 -->
<g id="Node000003" class="node">
<title>Node3</title>
<g id="a_Node000003"><a xlink:href="namespaceinja_1_1string__view.html#a898871016595d8f34d1b4ea55b3e8684" target="_top" xlink:title=" ">
<polygon fill="white" stroke="#666666" points="444.75,-72.12 342.5,-72.12 342.5,-38.62 444.75,-38.62 444.75,-72.12"/>
<text xml:space="preserve" text-anchor="start" x="350.5" y="-58.62" font-family="Helvetica,sans-Serif" font-size="10.00">inja::string_view::</text>
<text xml:space="preserve" text-anchor="middle" x="393.62" y="-45.88" font-family="Helvetica,sans-Serif" font-size="10.00">slice</text>
</a>
</g>
</g>
<!-- Node2&#45;&gt;Node3 -->
<g id="edge2_Node000002_Node000003" class="edge">
<title>Node2&#45;&gt;Node3</title>
<g id="a_edge2_Node000002_Node000003"><a xlink:title=" ">
<path fill="none" stroke="#63b8ff" d="M306.84,-42.33C314.77,-43.54 322.87,-44.77 330.75,-45.97"/>
<polygon fill="#63b8ff" stroke="#63b8ff" points="330.2,-49.42 340.62,-47.47 331.26,-42.5 330.2,-49.42"/>
</a>
</g>
</g>
<!-- Node4 -->
<g id="Node000004" class="node">
<title>Node4</title>
<g id="a_Node000004"><a xlink:href="structinja_1_1Token.html#ae215b2b1e365fc7c4060895b604e2430" target="_top" xlink:title=" ">
<polygon fill="white" stroke="#666666" points="444.38,-20.75 342.88,-20.75 342.88,0 444.38,0 444.38,-20.75"/>
<text xml:space="preserve" text-anchor="middle" x="393.62" y="-7.25" font-family="Helvetica,sans-Serif" font-size="10.00">inja::Token::Token</text>
</a>
</g>
</g>
<!-- Node2&#45;&gt;Node4 -->
<g id="edge3_Node000002_Node000004" class="edge">
<title>Node2&#45;&gt;Node4</title>
<g id="a_edge3_Node000002_Node000004"><a xlink:title=" ">
<path fill="none" stroke="#63b8ff" d="M306.84,-22.85C314.98,-21.67 323.28,-20.46 331.35,-19.29"/>
<polygon fill="#63b8ff" stroke="#63b8ff" points="331.68,-22.78 341.07,-17.87 330.67,-15.85 331.68,-22.78"/>
</a>
</g>
</g>
</g>
</svg>
