<?xml version="1.0" encoding="UTF-8" standalone="no"?>
<!DOCTYPE svg PUBLIC "-//W3C//DTD SVG 1.1//EN"
 "http://www.w3.org/Graphics/SVG/1.1/DTD/svg11.dtd">
<!-- Generated by graphviz version 2.42.4 (0)
 -->
<!-- Title: mqtt::mqttbroker::lib::MqttModel::MqttModelEntry::onlineSince Pages: 1 -->
<svg width="527pt" height="86pt"
 viewBox="0.00 0.00 527.00 86.00" xmlns="http://www.w3.org/2000/svg" xmlns:xlink="http://www.w3.org/1999/xlink">
<g id="graph0" class="graph" transform="scale(1 1) rotate(0) translate(4 82)">
<title>mqtt::mqttbroker::lib::MqttModel::MqttModelEntry::onlineSince</title>
<!-- Node1 -->
<g id="Node000001" class="node">
<title>Node1</title>
<g id="a_Node000001"><a xlink:title=" ">
<polygon fill="#999999" stroke="#666666" points="519,-59.5 360,-59.5 360,-18.5 519,-18.5 519,-59.5"/>
<text text-anchor="start" x="368" y="-47.5" font-family="Helvetica,sans-Serif" font-size="10.00">mqtt::mqttbroker::lib</text>
<text text-anchor="start" x="368" y="-36.5" font-family="Helvetica,sans-Serif" font-size="10.00">::MqttModel::MqttModelEntry</text>
<text text-anchor="middle" x="439.5" y="-25.5" font-family="Helvetica,sans-Serif" font-size="10.00">::onlineSince</text>
</a>
</g>
</g>
<!-- Node2 -->
<g id="Node000002" class="node">
<title>Node2</title>
<g id="a_Node000002"><a xlink:href="classmqtt_1_1mqttbroker_1_1lib_1_1MqttModel.html#a25c771d5e71dea6657633466a4845174" target="_top" xlink:title=" ">
<polygon fill="white" stroke="#666666" points="303,-78 175,-78 175,-48 303,-48 303,-78"/>
<text text-anchor="start" x="183" y="-66" font-family="Helvetica,sans-Serif" font-size="10.00">mqtt::mqttbroker::lib</text>
<text text-anchor="middle" x="239" y="-55" font-family="Helvetica,sans-Serif" font-size="10.00">::MqttModel::addClient</text>
</a>
</g>
</g>
<!-- Node1&#45;&gt;Node2 -->
<g id="edge1_Node000001_Node000002" class="edge">
<title>Node1&#45;&gt;Node2</title>
<g id="a_edge1_Node000001_Node000002"><a xlink:title=" ">
<path fill="none" stroke="#63b8ff" d="M349.53,-49.76C333.85,-51.65 317.83,-53.59 303.04,-55.38"/>
<polygon fill="#63b8ff" stroke="#63b8ff" points="350.25,-53.2 359.76,-48.52 349.41,-46.25 350.25,-53.2"/>
</a>
</g>
</g>
<!-- Node4 -->
<g id="Node000004" class="node">
<title>Node4</title>
<g id="a_Node000004"><a xlink:href="classmqtt_1_1mqttbroker_1_1lib_1_1MqttModel.html#a860c900fe750b32b6cc66111f4e20125" target="_top" xlink:title=" ">
<polygon fill="white" stroke="#666666" points="324,-30 154,-30 154,0 324,0 324,-30"/>
<text text-anchor="start" x="162" y="-18" font-family="Helvetica,sans-Serif" font-size="10.00">mqtt::mqttbroker::lib</text>
<text text-anchor="middle" x="239" y="-7" font-family="Helvetica,sans-Serif" font-size="10.00">::MqttModel::addEventReceiver</text>
</a>
</g>
</g>
<!-- Node1&#45;&gt;Node4 -->
<g id="edge3_Node000001_Node000004" class="edge">
<title>Node1&#45;&gt;Node4</title>
<g id="a_edge3_Node000001_Node000004"><a xlink:title=" ">
<path fill="none" stroke="#63b8ff" d="M349.82,-28.28C341.3,-27.25 332.67,-26.2 324.19,-25.18"/>
<polygon fill="#63b8ff" stroke="#63b8ff" points="349.41,-31.75 359.76,-29.48 350.25,-24.8 349.41,-31.75"/>
</a>
</g>
</g>
<!-- Node3 -->
<g id="Node000003" class="node">
<title>Node3</title>
<g id="a_Node000003"><a xlink:href="classmqtt_1_1mqttbroker_1_1lib_1_1Mqtt.html#a381e51fa3f75d81dc2501403b83d96f2" target="_top" xlink:title=" ">
<polygon fill="white" stroke="#666666" points="118,-78 0,-78 0,-48 118,-48 118,-78"/>
<text text-anchor="start" x="8" y="-66" font-family="Helvetica,sans-Serif" font-size="10.00">mqtt::mqttbroker::lib</text>
<text text-anchor="middle" x="59" y="-55" font-family="Helvetica,sans-Serif" font-size="10.00">::Mqtt::onConnect</text>
</a>
</g>
</g>
<!-- Node2&#45;&gt;Node3 -->
<g id="edge2_Node000002_Node000003" class="edge">
<title>Node2&#45;&gt;Node3</title>
<g id="a_edge2_Node000002_Node000003"><a xlink:title=" ">
<path fill="none" stroke="#63b8ff" d="M164.88,-63C149.32,-63 133.08,-63 118.16,-63"/>
<polygon fill="#63b8ff" stroke="#63b8ff" points="164.99,-66.5 174.99,-63 164.99,-59.5 164.99,-66.5"/>
</a>
</g>
</g>
</g>
</svg>
