<?xml version="1.0" encoding="UTF-8" standalone="no"?>
<!DOCTYPE svg PUBLIC "-//W3C//DTD SVG 1.1//EN"
 "http://www.w3.org/Graphics/SVG/1.1/DTD/svg11.dtd">
<!-- Generated by graphviz version 14.1.1 (0)
 -->
<!-- Title: mqtt::mqttintegrator::lib::Mqtt Pages: 1 -->
<!--zoomable 848 -->

<svg id="main" version="1.1" xmlns="http://www.w3.org/2000/svg" xmlns:xlink="http://www.w3.org/1999/xlink" xml:space="preserve" onload="init(evt)">

<style type="text/css"><![CDATA[
.node, .edge {opacity: 0.7;}
.node.selected, .edge.selected {opacity: 1;}
.edge:hover path { stroke: red; }
.edge:hover polygon { stroke: red; fill: red; }
]]></style>

<defs>
  <circle id="rim" cx="0" cy="0" r="7"/>
  <circle id="rim2" cx="0" cy="0" r="3.5"/>
  <g id="zoomPlus">
    <use xlink:href="#rim" fill="#404040"><set attributeName="fill" to="#808080" begin="zoomplus.mouseover" end="zoomplus.mouseout"/></use>
    <path d="M-4,0h8M0,-4v8" fill="none" stroke="white" stroke-width="1.5" pointer-events="none"/>
  </g>
  <g id="zoomMin">
    <use xlink:href="#rim" fill="#404040"><set attributeName="fill" to="#808080" begin="zoomminus.mouseover" end="zoomminus.mouseout"/></use>
    <path d="M-4,0h8" fill="none" stroke="white" stroke-width="1.5" pointer-events="none"/>
  </g>
  <g id="arrowUp" transform="translate(30 24)">
    <use xlink:href="#rim"/>
    <path pointer-events="none" fill="none" stroke="white" stroke-width="1.5" d="M0,-3.0v7 M-2.5,-0.5L0,-3.0L2.5,-0.5"/>
  </g>
  <g id="arrowRight" transform="rotate(90) translate(36 -43)">
    <use xlink:href="#rim"/>
    <path pointer-events="none" fill="none" stroke="white" stroke-width="1.5" d="M0,-3.0v7 M-2.5,-0.5L0,-3.0L2.5,-0.5"/>
  </g>
  <g id="arrowDown" transform="rotate(180) translate(-30 -48)">
    <use xlink:href="#rim"/>
    <path pointer-events="none" fill="none" stroke="white" stroke-width="1.5" d="M0,-3.0v7 M-2.5,-0.5L0,-3.0L2.5,-0.5"/>
  </g>
  <g id="arrowLeft" transform="rotate(270) translate(-36 17)">
    <use xlink:href="#rim"/>
    <path pointer-events="none" fill="none" stroke="white" stroke-width="1.5" d="M0,-3.0v7 M-2.5,-0.5L0,-3.0L2.5,-0.5"/>
  </g>
  <g id="resetDef">
    <use xlink:href="#rim2" fill="#404040"><set attributeName="fill" to="#808080" begin="reset.mouseover" end="reset.mouseout"/></use>
  </g>
</defs>
<script type="application/ecmascript">
var viewWidth = 658;
var viewHeight = 848;
var sectionId = 'dynsection-1';
</script>
<script type="application/ecmascript" xlink:href="svg.min.js"/>
<svg id="graph" class="graph">
<g id="viewport">
<title>mqtt::mqttintegrator::lib::Mqtt</title>
<!-- Node1 -->
<g id="Node000001" class="node">
<title>Node1</title>
<g id="a_Node000001"><a xlink:title=" ">
<polygon fill="#999999" stroke="none" points="193.25,-33.5 84.75,-33.5 84.75,0 193.25,0 193.25,-33.5"/>
<text xml:space="preserve" text-anchor="start" x="88.75" y="-20" font-family="Helvetica,sans-Serif" font-size="10.00">mqtt::mqttintegrator</text>
<text xml:space="preserve" text-anchor="start" x="115.75" y="-7.25" font-family="Helvetica,sans-Serif" font-size="10.00">::lib::Mqtt</text>
<polygon fill="none" stroke="#666666" points="84.75,0 84.75,-33.5 193.25,-33.5 193.25,0 84.75,0"/>
</a>
</g>
</g>
<!-- Node2 -->
<g id="Node000002" class="node">
<title>Node2</title>
<g id="a_Node000002"><a xlink:title=" ">
<polygon fill="white" stroke="none" points="182.75,-91.25 71.25,-91.25 71.25,-70.5 182.75,-70.5 182.75,-91.25"/>
<text xml:space="preserve" text-anchor="start" x="75.25" y="-77.75" font-family="Helvetica,sans-Serif" font-size="10.00">iot::mqtt::client::Mqtt</text>
<polygon fill="none" stroke="#666666" points="71.25,-70.5 71.25,-91.25 182.75,-91.25 182.75,-70.5 71.25,-70.5"/>
</a>
</g>
</g>
<!-- Node2&#45;&gt;Node1 -->
<g id="edge1_Node000001_Node000002" class="edge">
<title>Node2&#45;&gt;Node1</title>
<g id="a_edge1_Node000001_Node000002"><a xlink:title=" ">
<path fill="none" stroke="#63b8ff" d="M130.95,-59.43C132.6,-50.89 134.48,-41.14 136.01,-33.22"/>
<polygon fill="none" stroke="#63b8ff" points="127.52,-58.74 129.06,-69.22 134.39,-60.07 127.52,-58.74"/>
</a>
</g>
</g>
<!-- Node3 -->
<g id="Node000003" class="node">
<title>Node3</title>
<g id="a_Node000003"><a xlink:href="classmqtt_1_1lib_1_1MqttMapper.html" target="_top" xlink:title=" ">
<polygon fill="white" stroke="none" points="315.25,-91.25 200.75,-91.25 200.75,-70.5 315.25,-70.5 315.25,-91.25"/>
<text xml:space="preserve" text-anchor="start" x="204.75" y="-77.75" font-family="Helvetica,sans-Serif" font-size="10.00">mqtt::lib::MqttMapper</text>
<polygon fill="none" stroke="#666666" points="200.75,-70.5 200.75,-91.25 315.25,-91.25 315.25,-70.5 200.75,-70.5"/>
</a>
</g>
</g>
<!-- Node3&#45;&gt;Node1 -->
<g id="edge2_Node000001_Node000003" class="edge">
<title>Node3&#45;&gt;Node1</title>
<g id="a_edge2_Node000001_Node000003"><a xlink:title=" ">
<path fill="none" stroke="#63b8ff" d="M230.11,-65.32C211.75,-55.73 187.73,-43.19 168.97,-33.39"/>
<polygon fill="none" stroke="#63b8ff" points="228.36,-68.35 238.84,-69.87 231.6,-62.14 228.36,-68.35"/>
</a>
</g>
</g>
<!-- Node4 -->
<g id="Node000004" class="node">
<title>Node4</title>
<g id="a_Node000004"><a xlink:title=" ">
<polygon fill="white" stroke="none" points="251.88,-166.75 156.12,-166.75 156.12,-146 251.88,-146 251.88,-166.75"/>
<text xml:space="preserve" text-anchor="start" x="160.12" y="-153.25" font-family="Helvetica,sans-Serif" font-size="10.00">std::list&lt; void * &gt;</text>
<polygon fill="none" stroke="#666666" points="156.12,-146 156.12,-166.75 251.88,-166.75 251.88,-146 156.12,-146"/>
</a>
</g>
</g>
<!-- Node4&#45;&gt;Node3 -->
<g id="edge3_Node000003_Node000004" class="edge">
<title>Node4&#45;&gt;Node3</title>
<g id="a_edge3_Node000003_Node000004"><a xlink:title=" ">
<path fill="none" stroke="#63b8ff" d="M203.04,-146.04C202.5,-136.08 203.08,-120.24 210.5,-109.25 213.41,-104.94 217.25,-101.22 221.48,-98.03"/>
<polygon fill="none" stroke="#63b8ff" points="221.55,-97.99 224.54,-91.43 231.75,-91.67 228.76,-98.23 221.55,-97.99"/>
</a>
</g>
<text xml:space="preserve" text-anchor="start" x="213.5" y="-115.5" font-family="Helvetica,sans-Serif" font-size="10.00" fill="grey">&#45;pluginHandles</text>
</g>
<!-- Node5 -->
<g id="Node000005" class="node">
<title>Node5</title>
<g id="a_Node000005"><a xlink:href="classinja_1_1Environment.html" target="_top" xlink:title="Class for changing the configuration.">
<polygon fill="white" stroke="none" points="364.12,-166.75 269.88,-166.75 269.88,-146 364.12,-146 364.12,-166.75"/>
<text xml:space="preserve" text-anchor="start" x="273.88" y="-153.25" font-family="Helvetica,sans-Serif" font-size="10.00">inja::Environment</text>
<polygon fill="none" stroke="#666666" points="269.88,-146 269.88,-166.75 364.12,-166.75 364.12,-146 269.88,-146"/>
</a>
</g>
</g>
<!-- Node5&#45;&gt;Node3 -->
<g id="edge4_Node000003_Node000005" class="edge">
<title>Node5&#45;&gt;Node3</title>
<g id="a_edge4_Node000003_Node000005"><a xlink:title=" ">
<path fill="none" stroke="#63b8ff" d="M312.83,-146.31C308.1,-136.57 299.76,-120.92 290,-109.25 287.19,-105.88 283.93,-102.59 280.6,-99.53"/>
<polygon fill="none" stroke="#63b8ff" points="280.57,-99.5 273.41,-98.66 271.42,-91.73 278.58,-92.56 280.57,-99.5"/>
</a>
</g>
<text xml:space="preserve" text-anchor="start" x="305.55" y="-115.5" font-family="Helvetica,sans-Serif" font-size="10.00" fill="grey">&#45;injaEnvironment</text>
</g>
<!-- Node6 -->
<g id="Node000006" class="node">
<title>Node6</title>
<g id="a_Node000006"><a xlink:href="structinja_1_1LexerConfig.html" target="_top" xlink:title="Class for lexer configuration.">
<polygon fill="white" stroke="none" points="340.25,-407.5 249.75,-407.5 249.75,-386.75 340.25,-386.75 340.25,-407.5"/>
<text xml:space="preserve" text-anchor="start" x="253.75" y="-394" font-family="Helvetica,sans-Serif" font-size="10.00">inja::LexerConfig</text>
<polygon fill="none" stroke="#666666" points="249.75,-386.75 249.75,-407.5 340.25,-407.5 340.25,-386.75 249.75,-386.75"/>
</a>
</g>
</g>
<!-- Node6&#45;&gt;Node5 -->
<g id="edge5_Node000005_Node000006" class="edge">
<title>Node6&#45;&gt;Node5</title>
<g id="a_edge5_Node000005_Node000006"><a xlink:title=" ">
<path fill="none" stroke="#63b8ff" d="M294.41,-386.97C292.9,-360.91 289.64,-284.18 299,-221.5 301.18,-206.88 305.68,-190.86 309.63,-178.49"/>
<polygon fill="none" stroke="#63b8ff" points="309.6,-178.58 307.72,-171.62 313.42,-167.21 315.3,-174.17 309.6,-178.58"/>
</a>
</g>
<text xml:space="preserve" text-anchor="start" x="296.92" y="-279.25" font-family="Helvetica,sans-Serif" font-size="10.00" fill="grey">&#45;lexer_config</text>
</g>
<!-- Node7 -->
<g id="Node000007" class="node">
<title>Node7</title>
<g id="a_Node000007"><a xlink:title=" ">
<polygon fill="white" stroke="none" points="111.38,-769 54.62,-769 54.62,-748.25 111.38,-748.25 111.38,-769"/>
<text xml:space="preserve" text-anchor="start" x="58.62" y="-755.5" font-family="Helvetica,sans-Serif" font-size="10.00">std::string</text>
<polygon fill="none" stroke="#666666" points="54.62,-748.25 54.62,-769 111.38,-769 111.38,-748.25 54.62,-748.25"/>
</a>
</g>
</g>
<!-- Node7&#45;&gt;Node5 -->
<g id="edge16_Node000005_Node000007" class="edge">
<title>Node7&#45;&gt;Node5</title>
<g id="a_edge16_Node000005_Node000007"><a xlink:title=" ">
<path fill="none" stroke="#63b8ff" d="M78.77,-748.6C61.86,-711.65 0,-568 0,-443.25 0,-443.25 0,-443.25 0,-237.25 0,-161.14 89.14,-203.12 163,-184.75 172.28,-182.44 218.01,-174.38 257.24,-167.6"/>
<polygon fill="none" stroke="#63b8ff" points="257.25,-167.6 262.48,-162.64 269.08,-165.56 263.84,-170.52 257.25,-167.6"/>
</a>
</g>
<text xml:space="preserve" text-anchor="start" x="3" y="-344.5" font-family="Helvetica,sans-Serif" font-size="10.00" fill="grey">#input_path</text>
<text xml:space="preserve" text-anchor="start" x="3" y="-327.75" font-family="Helvetica,sans-Serif" font-size="10.00" fill="grey">#output_path</text>
</g>
<!-- Node7&#45;&gt;Node6 -->
<g id="edge6_Node000006_Node000007" class="edge">
<title>Node7&#45;&gt;Node6</title>
<g id="a_edge6_Node000006_Node000007"><a xlink:title=" ">
<path fill="none" stroke="#63b8ff" d="M111.18,-750.73C123.69,-746.51 137.83,-739.99 148,-730.25 242.22,-639.93 280.18,-478.55 291.26,-420.06"/>
<polygon fill="none" stroke="#63b8ff" points="291.28,-419.94 288.4,-413.32 293.4,-408.12 296.28,-414.74 291.28,-419.94"/>
</a>
</g>
<text xml:space="preserve" text-anchor="start" x="281.21" y="-717.75" font-family="Helvetica,sans-Serif" font-size="10.00" fill="grey">+comment_close</text>
<text xml:space="preserve" text-anchor="start" x="281.21" y="-701" font-family="Helvetica,sans-Serif" font-size="10.00" fill="grey">+comment_close_force</text>
<text xml:space="preserve" text-anchor="start" x="281.21" y="-684.25" font-family="Helvetica,sans-Serif" font-size="10.00" fill="grey">  _rstrip</text>
<text xml:space="preserve" text-anchor="start" x="281.21" y="-667.5" font-family="Helvetica,sans-Serif" font-size="10.00" fill="grey">+comment_open</text>
<text xml:space="preserve" text-anchor="start" x="281.21" y="-650.75" font-family="Helvetica,sans-Serif" font-size="10.00" fill="grey">+comment_open_force</text>
<text xml:space="preserve" text-anchor="start" x="281.21" y="-634" font-family="Helvetica,sans-Serif" font-size="10.00" fill="grey">  _lstrip</text>
<text xml:space="preserve" text-anchor="start" x="281.21" y="-617.25" font-family="Helvetica,sans-Serif" font-size="10.00" fill="grey">+expression_close</text>
<text xml:space="preserve" text-anchor="start" x="281.21" y="-600.5" font-family="Helvetica,sans-Serif" font-size="10.00" fill="grey">+expression_close</text>
<text xml:space="preserve" text-anchor="start" x="281.21" y="-583.75" font-family="Helvetica,sans-Serif" font-size="10.00" fill="grey">  _force_rstrip</text>
<text xml:space="preserve" text-anchor="start" x="281.21" y="-567" font-family="Helvetica,sans-Serif" font-size="10.00" fill="grey">+expression_open</text>
<text xml:space="preserve" text-anchor="start" x="281.21" y="-550.25" font-family="Helvetica,sans-Serif" font-size="10.00" fill="grey">+expression_open</text>
<text xml:space="preserve" text-anchor="start" x="281.21" y="-533.5" font-family="Helvetica,sans-Serif" font-size="10.00" fill="grey">  _force_lstrip</text>
<text xml:space="preserve" text-anchor="start" x="281.21" y="-516.75" font-family="Helvetica,sans-Serif" font-size="10.00" fill="grey">+line_statement</text>
<text xml:space="preserve" text-anchor="start" x="281.21" y="-500" font-family="Helvetica,sans-Serif" font-size="10.00" fill="grey">+open_chars</text>
<text xml:space="preserve" text-anchor="start" x="281.21" y="-483.25" font-family="Helvetica,sans-Serif" font-size="10.00" fill="grey"> &#160;...</text>
</g>
<!-- Node13 -->
<g id="Node000013" class="node">
<title>Node13</title>
<g id="a_Node000013"><a xlink:title=" ">
<polygon fill="white" stroke="none" points="138.38,-459 27.62,-459 27.62,-425.5 138.38,-425.5 138.38,-459"/>
<text xml:space="preserve" text-anchor="start" x="31.62" y="-445.5" font-family="Helvetica,sans-Serif" font-size="10.00">std::pair&lt; std::string,</text>
<text xml:space="preserve" text-anchor="start" x="69.5" y="-432.75" font-family="Helvetica,sans-Serif" font-size="10.00"> int &gt;</text>
<polygon fill="none" stroke="#666666" points="27.62,-425.5 27.62,-459 138.38,-459 138.38,-425.5 27.62,-425.5"/>
</a>
</g>
</g>
<!-- Node7&#45;&gt;Node13 -->
<g id="edge13_Node000013_Node000007" class="edge">
<title>Node7&#45;&gt;Node13</title>
<g id="a_edge13_Node000013_Node000007"><a xlink:title=" ">
<path fill="none" stroke="#63b8ff" d="M83,-748.56C83,-707.67 83,-539.56 83,-471.78"/>
<polygon fill="none" stroke="#63b8ff" points="83,-471.82 79,-465.82 83,-459.82 87,-465.82 83,-471.82"/>
</a>
</g>
<text xml:space="preserve" text-anchor="start" x="86" y="-600.5" font-family="Helvetica,sans-Serif" font-size="10.00" fill="grey">+first_type</text>
</g>
<!-- Node8 -->
<g id="Node000008" class="node">
<title>Node8</title>
<g id="a_Node000008"><a xlink:title=" ">
<polygon fill="white" stroke="none" points="130.88,-839.5 35.12,-839.5 35.12,-806 130.88,-806 130.88,-839.5"/>
<text xml:space="preserve" text-anchor="start" x="39.12" y="-826" font-family="Helvetica,sans-Serif" font-size="10.00">std::basic_string&lt;</text>
<text xml:space="preserve" text-anchor="start" x="64.62" y="-813.25" font-family="Helvetica,sans-Serif" font-size="10.00"> Char &gt;</text>
<polygon fill="none" stroke="#666666" points="35.12,-806 35.12,-839.5 130.88,-839.5 130.88,-806 35.12,-806"/>
</a>
</g>
</g>
<!-- Node8&#45;&gt;Node7 -->
<g id="edge7_Node000007_Node000008" class="edge">
<title>Node8&#45;&gt;Node7</title>
<g id="a_edge7_Node000007_Node000008"><a xlink:title=" ">
<path fill="none" stroke="#63b8ff" d="M83,-794.79C83,-785.46 83,-775.63 83,-768.74"/>
<polygon fill="none" stroke="#63b8ff" points="79.5,-794.56 83,-804.56 86.5,-794.56 79.5,-794.56"/>
</a>
</g>
</g>
<!-- Node9 -->
<g id="Node000009" class="node">
<title>Node9</title>
<g id="a_Node000009"><a xlink:href="structinja_1_1ParserConfig.html" target="_top" xlink:title="Class for parser configuration.">
<polygon fill="white" stroke="none" points="402.12,-248.62 307.88,-248.62 307.88,-227.88 402.12,-227.88 402.12,-248.62"/>
<text xml:space="preserve" text-anchor="start" x="311.88" y="-235.12" font-family="Helvetica,sans-Serif" font-size="10.00">inja::ParserConfig</text>
<polygon fill="none" stroke="#666666" points="307.88,-227.88 307.88,-248.62 402.12,-248.62 402.12,-227.88 307.88,-227.88"/>
</a>
</g>
</g>
<!-- Node9&#45;&gt;Node5 -->
<g id="edge8_Node000005_Node000009" class="edge">
<title>Node9&#45;&gt;Node5</title>
<g id="a_edge8_Node000005_Node000009"><a xlink:title=" ">
<path fill="none" stroke="#63b8ff" d="M350.64,-228.09C344.86,-215.93 334.48,-194.12 326.78,-177.92"/>
<polygon fill="none" stroke="#63b8ff" points="326.85,-178.08 320.66,-174.38 321.7,-167.24 327.89,-170.94 326.85,-178.08"/>
</a>
</g>
<text xml:space="preserve" text-anchor="start" x="341.28" y="-191" font-family="Helvetica,sans-Serif" font-size="10.00" fill="grey">&#45;parser_config</text>
</g>
<!-- Node10 -->
<g id="Node000010" class="node">
<title>Node10</title>
<g id="a_Node000010"><a xlink:href="structinja_1_1RenderConfig.html" target="_top" xlink:title="Class for render configuration.">
<polygon fill="white" stroke="none" points="518,-248.62 420,-248.62 420,-227.88 518,-227.88 518,-248.62"/>
<text xml:space="preserve" text-anchor="start" x="424" y="-235.12" font-family="Helvetica,sans-Serif" font-size="10.00">inja::RenderConfig</text>
<polygon fill="none" stroke="#666666" points="420,-227.88 420,-248.62 518,-248.62 518,-227.88 420,-227.88"/>
</a>
</g>
</g>
<!-- Node10&#45;&gt;Node5 -->
<g id="edge9_Node000005_Node000010" class="edge">
<title>Node10&#45;&gt;Node5</title>
<g id="a_edge9_Node000005_Node000010"><a xlink:title=" ">
<path fill="none" stroke="#63b8ff" d="M462.52,-228C453.77,-216.19 437.05,-195.97 418,-184.75 405.35,-177.3 390.62,-171.82 376.38,-167.82"/>
<polygon fill="none" stroke="#63b8ff" points="376.56,-167.87 369.76,-170.25 364.94,-164.89 371.74,-162.5 376.56,-167.87"/>
</a>
</g>
<text xml:space="preserve" text-anchor="start" x="444.38" y="-191" font-family="Helvetica,sans-Serif" font-size="10.00" fill="grey">&#45;render_config</text>
</g>
<!-- Node11 -->
<g id="Node000011" class="node">
<title>Node11</title>
<g id="a_Node000011"><a xlink:href="classinja_1_1FunctionStorage.html" target="_top" xlink:title="Class for builtin functions and user&#45;defined callbacks.">
<polygon fill="white" stroke="none" points="224.38,-248.62 113.62,-248.62 113.62,-227.88 224.38,-227.88 224.38,-248.62"/>
<text xml:space="preserve" text-anchor="start" x="117.62" y="-235.12" font-family="Helvetica,sans-Serif" font-size="10.00">inja::FunctionStorage</text>
<polygon fill="none" stroke="#666666" points="113.62,-227.88 113.62,-248.62 224.38,-248.62 224.38,-227.88 113.62,-227.88"/>
</a>
</g>
</g>
<!-- Node11&#45;&gt;Node5 -->
<g id="edge10_Node000005_Node000011" class="edge">
<title>Node11&#45;&gt;Node5</title>
<g id="a_edge10_Node000005_Node000011"><a xlink:title=" ">
<path fill="none" stroke="#63b8ff" d="M167.01,-228.16C165.05,-216.53 163.72,-196.5 174.5,-184.75 176,-183.12 218.84,-175.02 257.15,-168.05"/>
<polygon fill="none" stroke="#63b8ff" points="257.21,-168.04 262.4,-163.04 269.02,-165.9 263.83,-170.91 257.21,-168.04"/>
</a>
</g>
<text xml:space="preserve" text-anchor="start" x="177.5" y="-191" font-family="Helvetica,sans-Serif" font-size="10.00" fill="grey">&#45;function_storage</text>
</g>
<!-- Node12 -->
<g id="Node000012" class="node">
<title>Node12</title>
<g id="a_Node000012"><a xlink:title=" ">
<polygon fill="white" stroke="none" points="223.38,-368.75 106.62,-368.75 106.62,-309.75 223.38,-309.75 223.38,-368.75"/>
<text xml:space="preserve" text-anchor="start" x="110.62" y="-355.25" font-family="Helvetica,sans-Serif" font-size="10.00">std::map&lt; std::pair</text>
<text xml:space="preserve" text-anchor="start" x="110.62" y="-342.5" font-family="Helvetica,sans-Serif" font-size="10.00">&lt; std::string, int &gt;</text>
<text xml:space="preserve" text-anchor="start" x="110.62" y="-329.75" font-family="Helvetica,sans-Serif" font-size="10.00">, inja::FunctionStorage</text>
<text xml:space="preserve" text-anchor="start" x="124.12" y="-317" font-family="Helvetica,sans-Serif" font-size="10.00">::FunctionData &gt;</text>
<polygon fill="none" stroke="#666666" points="106.62,-309.75 106.62,-368.75 223.38,-368.75 223.38,-309.75 106.62,-309.75"/>
</a>
</g>
</g>
<!-- Node12&#45;&gt;Node11 -->
<g id="edge11_Node000011_Node000012" class="edge">
<title>Node12&#45;&gt;Node11</title>
<g id="a_edge11_Node000011_Node000012"><a xlink:title=" ">
<path fill="none" stroke="#63b8ff" d="M165.34,-309.98C165.55,-298.5 165.91,-285.11 166.5,-273 166.68,-269.22 166.93,-265.21 167.2,-261.33"/>
<polygon fill="none" stroke="#63b8ff" points="167.21,-261.27 163.68,-254.98 168.13,-249.31 171.65,-255.6 167.21,-261.27"/>
</a>
</g>
<text xml:space="preserve" text-anchor="start" x="169.5" y="-279.25" font-family="Helvetica,sans-Serif" font-size="10.00" fill="grey">&#45;function_storage</text>
</g>
<!-- Node13&#45;&gt;Node12 -->
<g id="edge12_Node000012_Node000013" class="edge">
<title>Node13&#45;&gt;Node12</title>
<g id="a_edge12_Node000012_Node000013"><a xlink:title=" ">
<path fill="none" stroke="#63b8ff" d="M95.45,-425.91C105.69,-413.3 120.65,-394.87 134.07,-378.34"/>
<polygon fill="none" stroke="#63b8ff" points="134.04,-378.38 134.72,-371.2 141.61,-369.06 140.93,-376.24 134.04,-378.38"/>
</a>
</g>
<text xml:space="preserve" text-anchor="start" x="129.46" y="-394" font-family="Helvetica,sans-Serif" font-size="10.00" fill="grey">+keys</text>
</g>
<!-- Node14 -->
<g id="Node000014" class="node">
<title>Node14</title>
<g id="a_Node000014"><a xlink:href="structinja_1_1FunctionStorage_1_1FunctionData.html" target="_top" xlink:title=" ">
<polygon fill="white" stroke="none" points="267.38,-459 156.62,-459 156.62,-425.5 267.38,-425.5 267.38,-459"/>
<text xml:space="preserve" text-anchor="start" x="160.62" y="-445.5" font-family="Helvetica,sans-Serif" font-size="10.00">inja::FunctionStorage</text>
<text xml:space="preserve" text-anchor="start" x="176.75" y="-432.75" font-family="Helvetica,sans-Serif" font-size="10.00">::FunctionData</text>
<polygon fill="none" stroke="#666666" points="156.62,-425.5 156.62,-459 267.38,-459 267.38,-425.5 156.62,-425.5"/>
</a>
</g>
</g>
<!-- Node14&#45;&gt;Node12 -->
<g id="edge14_Node000012_Node000014" class="edge">
<title>Node14&#45;&gt;Node12</title>
<g id="a_edge14_Node000012_Node000014"><a xlink:title=" ">
<path fill="none" stroke="#63b8ff" d="M194.68,-425.74C189.62,-420.41 184.51,-414.1 181,-407.5 176.68,-399.36 173.51,-390.05 171.19,-381.01"/>
<polygon fill="none" stroke="#63b8ff" points="171.22,-381.15 166.02,-376.15 168.64,-369.43 173.84,-374.43 171.22,-381.15"/>
</a>
</g>
<text xml:space="preserve" text-anchor="start" x="184" y="-394" font-family="Helvetica,sans-Serif" font-size="10.00" fill="grey">+elements</text>
</g>
<!-- Node15 -->
<g id="Node000015" class="node">
<title>Node15</title>
<g id="a_Node000015"><a xlink:title=" ">
<polygon fill="white" stroke="none" points="649.88,-255 536.12,-255 536.12,-221.5 649.88,-221.5 649.88,-255"/>
<text xml:space="preserve" text-anchor="start" x="540.12" y="-241.5" font-family="Helvetica,sans-Serif" font-size="10.00">std::map&lt; std::string,</text>
<text xml:space="preserve" text-anchor="start" x="563.38" y="-228.75" font-family="Helvetica,sans-Serif" font-size="10.00"> Template &gt;</text>
<polygon fill="none" stroke="#666666" points="536.12,-221.5 536.12,-255 649.88,-255 649.88,-221.5 536.12,-221.5"/>
</a>
</g>
</g>
<!-- Node15&#45;&gt;Node5 -->
<g id="edge15_Node000005_Node000015" class="edge">
<title>Node15&#45;&gt;Node5</title>
<g id="a_edge15_Node000005_Node000015"><a xlink:title=" ">
<path fill="none" stroke="#63b8ff" d="M576.98,-221.65C563.47,-209.48 543.03,-193.27 522,-184.75 475.5,-165.92 418.7,-159.49 376.69,-157.53"/>
<polygon fill="none" stroke="#63b8ff" points="376.77,-157.54 370.62,-161.31 364.77,-157.09 370.92,-153.32 376.77,-157.54"/>
</a>
</g>
<text xml:space="preserve" text-anchor="start" x="556.38" y="-191" font-family="Helvetica,sans-Serif" font-size="10.00" fill="grey">&#45;template_storage</text>
</g>
</g>
</svg>

<g id="navigator" transform="translate(0 0)" fill="#404254">
  <rect fill="#f2f5e9" fill-opacity="0.5" stroke="#606060" stroke-width=".5" x="0" y="0" width="60" height="60"/>
  <use id="zoomplus" xlink:href="#zoomPlus" x="17" y="9" onmousedown="handleZoom(evt,'in')"/>
  <use id="zoomminus" xlink:href="#zoomMin" x="42" y="9" onmousedown="handleZoom(evt,'out')"/>
  <use id="reset" xlink:href="#resetDef" x="30" y="36" onmousedown="handleReset()"/>
   <use id="arrowup" xlink:href="#arrowUp" x="0" y="0" onmousedown="handlePan(0,-1)"/>
  <use id="arrowright" xlink:href="#arrowRight" x="0" y="0" onmousedown="handlePan(1,0)"/>
  <use id="arrowdown" xlink:href="#arrowDown" x="0" y="0" onmousedown="handlePan(0,1)"/>
  <use id="arrowleft" xlink:href="#arrowLeft" x="0" y="0" onmousedown="handlePan(-1,0)"/>
</g>
<svg viewBox="0 0 15 15" width="100%" height="30px" preserveAspectRatio="xMaxYMin meet">
 <g id="arrow_out" transform="scale(0.3 0.3)">
  <a xlink:href="classmqtt_1_1mqttintegrator_1_1lib_1_1Mqtt__coll__graph_org.svg" target="_base">
   <rect id="button" ry="5" rx="5" y="6" x="6" height="38" width="38"
        fill="#f2f5e9" fill-opacity="0.5" stroke="#606060" stroke-width="1.0"/>
   <path id="arrow"
     d="M 11.500037,31.436501 C 11.940474,20.09759 22.043105,11.32322 32.158766,21.979434 L 37.068811,17.246167 C 37.068811,17.246167 37.088388,32 37.088388,32 L 22.160133,31.978069 C 22.160133,31.978069 26.997745,27.140456 26.997745,27.140456 C 18.528582,18.264221 13.291696,25.230495 11.500037,31.436501 z"
     style="fill:#404040;"/>
  </a>
 </g>
</svg>

<style type='text/css'>
<![CDATA[
[data-mouse-over-selected='false'] { opacity: 0.7; }
[data-mouse-over-selected='true']  { opacity: 1.0; }
]]>
</style>
<script type="application/ecmascript"><![CDATA[
document.addEventListener('DOMContentLoaded', (event) => {
  highlightEdges();
  highlightAdjacentNodes();
});
]]></script>
</svg>
