<?xml version="1.0" encoding="UTF-8" standalone="no"?>
<!DOCTYPE svg PUBLIC "-//W3C//DTD SVG 1.1//EN"
 "http://www.w3.org/Graphics/SVG/1.1/DTD/svg11.dtd">
<!-- Generated by graphviz version 14.1.2 (0)
 -->
<!-- Title: nlohmann::json_schema::basic_error_handler Pages: 1 -->
<!--zoomable 206 -->

<svg id="main" version="1.1" xmlns="http://www.w3.org/2000/svg" xmlns:xlink="http://www.w3.org/1999/xlink" xml:space="preserve" onload="init(evt)">

<style type="text/css"><![CDATA[
.node, .edge {opacity: 0.7;}
.node.selected, .edge.selected {opacity: 1;}
.edge:hover path { stroke: red; }
.edge:hover polygon { stroke: red; fill: red; }
]]></style>

<defs>
  <circle id="rim" cx="0" cy="0" r="7"/>
  <circle id="rim2" cx="0" cy="0" r="3.5"/>
  <g id="zoomPlus">
    <use xlink:href="#rim" fill="#404040"><set attributeName="fill" to="#808080" begin="zoomplus.mouseover" end="zoomplus.mouseout"/></use>
    <path d="M-4,0h8M0,-4v8" fill="none" stroke="white" stroke-width="1.5" pointer-events="none"/>
  </g>
  <g id="zoomMin">
    <use xlink:href="#rim" fill="#404040"><set attributeName="fill" to="#808080" begin="zoomminus.mouseover" end="zoomminus.mouseout"/></use>
    <path d="M-4,0h8" fill="none" stroke="white" stroke-width="1.5" pointer-events="none"/>
  </g>
  <g id="arrowUp" transform="translate(30 24)">
    <use xlink:href="#rim"/>
    <path pointer-events="none" fill="none" stroke="white" stroke-width="1.5" d="M0,-3.0v7 M-2.5,-0.5L0,-3.0L2.5,-0.5"/>
  </g>
  <g id="arrowRight" transform="rotate(90) translate(36 -43)">
    <use xlink:href="#rim"/>
    <path pointer-events="none" fill="none" stroke="white" stroke-width="1.5" d="M0,-3.0v7 M-2.5,-0.5L0,-3.0L2.5,-0.5"/>
  </g>
  <g id="arrowDown" transform="rotate(180) translate(-30 -48)">
    <use xlink:href="#rim"/>
    <path pointer-events="none" fill="none" stroke="white" stroke-width="1.5" d="M0,-3.0v7 M-2.5,-0.5L0,-3.0L2.5,-0.5"/>
  </g>
  <g id="arrowLeft" transform="rotate(270) translate(-36 17)">
    <use xlink:href="#rim"/>
    <path pointer-events="none" fill="none" stroke="white" stroke-width="1.5" d="M0,-3.0v7 M-2.5,-0.5L0,-3.0L2.5,-0.5"/>
  </g>
  <g id="resetDef">
    <use xlink:href="#rim2" fill="#404040"><set attributeName="fill" to="#808080" begin="reset.mouseover" end="reset.mouseout"/></use>
  </g>
</defs>
<script type="application/ecmascript">
var viewWidth = 897;
var viewHeight = 206;
var sectionId = 'dynsection-0';
</script>
<script type="application/ecmascript" xlink:href="svg.min.js"/>
<svg id="graph" class="graph">
<g id="viewport">
<title>nlohmann::json_schema::basic_error_handler</title>
<!-- Node1 -->
<g id="Node000001" class="node">
<title>Node1</title>
<g id="a_Node000001"><a xlink:title=" ">
<polygon fill="#999999" stroke="none" points="593.5,-128.5 467,-128.5 467,-95 593.5,-95 593.5,-128.5"/>
<text xml:space="preserve" text-anchor="start" x="471" y="-115" font-family="Helvetica,sans-Serif" font-size="10.00">nlohmann::json_schema</text>
<text xml:space="preserve" text-anchor="start" x="479.25" y="-102.25" font-family="Helvetica,sans-Serif" font-size="10.00">::basic_error_handler</text>
<polygon fill="none" stroke="#666666" points="467,-95 467,-128.5 593.5,-128.5 593.5,-95 467,-95"/>
</a>
</g>
</g>
<!-- Node3 -->
<g id="Node000003" class="node">
<title>Node3</title>
<g id="a_Node000003"><a xlink:href="classanonymous__namespace_02errors_8cpp_03_1_1store__ptr__err__handler.html" target="_top" xlink:title=" ">
<polygon fill="white" stroke="none" points="126.5,-52.62 0,-52.62 0,-6.38 126.5,-6.38 126.5,-52.62"/>
<text xml:space="preserve" text-anchor="start" x="4" y="-39.12" font-family="Helvetica,sans-Serif" font-size="10.00">anonymous_namespace</text>
<text xml:space="preserve" text-anchor="start" x="4" y="-26.38" font-family="Helvetica,sans-Serif" font-size="10.00">{errors.cpp}::store</text>
<text xml:space="preserve" text-anchor="start" x="23.5" y="-13.62" font-family="Helvetica,sans-Serif" font-size="10.00">_ptr_err_handler</text>
<polygon fill="none" stroke="#666666" points="0,-6.38 0,-52.62 126.5,-52.62 126.5,-6.38 0,-6.38"/>
</a>
</g>
</g>
<!-- Node1&#45;&gt;Node3 -->
<g id="edge2_Node000001_Node000003" class="edge">
<title>Node1&#45;&gt;Node3</title>
<g id="a_edge2_Node000001_Node000003"><a xlink:title=" ">
<path fill="none" stroke="#63b8ff" d="M455.81,-106.82C373.99,-101.1 239.46,-87.82 127.25,-59 120.4,-57.24 113.32,-55.02 106.46,-52.6"/>
<polygon fill="none" stroke="#63b8ff" points="455.52,-110.31 465.74,-107.49 456,-103.33 455.52,-110.31"/>
</a>
</g>
</g>
<!-- Node1&#45;&gt;Node3 -->
<g id="edge3_Node000001_Node000003" class="edge">
<title>Node1&#45;&gt;Node3</title>
<g id="a_edge3_Node000001_Node000003"><a xlink:title=" ">
<path fill="none" stroke="#63b8ff" d="M455.92,-105.84C377.65,-99.63 251.45,-86.28 145.25,-59 138.4,-57.24 131.32,-55.02 124.31,-52.6"/>
<polygon fill="none" stroke="#63b8ff" points="455.37,-109.3 465.61,-106.58 455.91,-102.32 455.37,-109.3"/>
</a>
</g>
</g>
<!-- Node4 -->
<g id="Node000004" class="node">
<title>Node4</title>
<g id="a_Node000004"><a xlink:href="classanonymous__namespace_02issue-149-entry-selection_8cpp_03_1_1store__err__handler.html" target="_top" xlink:title=" ">
<polygon fill="white" stroke="none" points="309.62,-52.62 144.88,-52.62 144.88,-6.38 309.62,-6.38 309.62,-52.62"/>
<text xml:space="preserve" text-anchor="start" x="148.88" y="-39.12" font-family="Helvetica,sans-Serif" font-size="10.00">anonymous_namespace</text>
<text xml:space="preserve" text-anchor="start" x="148.88" y="-26.38" font-family="Helvetica,sans-Serif" font-size="10.00">{issue&#45;149&#45;entry&#45;selection.cpp}</text>
<text xml:space="preserve" text-anchor="start" x="181.5" y="-13.62" font-family="Helvetica,sans-Serif" font-size="10.00">::store_err_handler</text>
<polygon fill="none" stroke="#666666" points="144.88,-6.38 144.88,-52.62 309.62,-52.62 309.62,-6.38 144.88,-6.38"/>
</a>
</g>
</g>
<!-- Node1&#45;&gt;Node4 -->
<g id="edge4_Node000001_Node000004" class="edge">
<title>Node1&#45;&gt;Node4</title>
<g id="a_edge4_Node000001_Node000004"><a xlink:title=" ">
<path fill="none" stroke="#63b8ff" d="M455.88,-95.49C412.98,-85.68 358.3,-72.32 310.25,-59 303,-56.99 295.45,-54.81 287.99,-52.57"/>
<polygon fill="none" stroke="#63b8ff" points="455.08,-98.9 465.61,-97.7 456.63,-92.07 455.08,-98.9"/>
</a>
</g>
</g>
<!-- Node1&#45;&gt;Node4 -->
<g id="edge5_Node000001_Node000004" class="edge">
<title>Node1&#45;&gt;Node4</title>
<g id="a_edge5_Node000001_Node000004"><a xlink:title=" ">
<path fill="none" stroke="#63b8ff" d="M458.23,-92.29C419.58,-82.88 371.26,-70.92 328.25,-59 321,-56.99 313.45,-54.81 305.89,-52.57"/>
<polygon fill="none" stroke="#63b8ff" points="457.37,-95.68 467.91,-94.64 459.02,-88.88 457.37,-95.68"/>
</a>
</g>
</g>
<!-- Node5 -->
<g id="Node000005" class="node">
<title>Node5</title>
<g id="a_Node000005"><a xlink:href="classanonymous__namespace_02issue-70-root-schema-constructor_8cpp_03_1_1store__ptr__err__handler.html" target="_top" xlink:title=" ">
<polygon fill="white" stroke="none" points="454.5,-59 328,-59 328,0 454.5,0 454.5,-59"/>
<text xml:space="preserve" text-anchor="start" x="332" y="-45.5" font-family="Helvetica,sans-Serif" font-size="10.00">anonymous_namespace</text>
<text xml:space="preserve" text-anchor="start" x="332" y="-32.75" font-family="Helvetica,sans-Serif" font-size="10.00">{issue&#45;70&#45;root&#45;schema</text>
<text xml:space="preserve" text-anchor="start" x="332" y="-20" font-family="Helvetica,sans-Serif" font-size="10.00">&#45;constructor.cpp}::store</text>
<text xml:space="preserve" text-anchor="start" x="351.5" y="-7.25" font-family="Helvetica,sans-Serif" font-size="10.00">_ptr_err_handler</text>
<polygon fill="none" stroke="#666666" points="328,0 328,-59 454.5,-59 454.5,0 328,0"/>
</a>
</g>
</g>
<!-- Node1&#45;&gt;Node5 -->
<g id="edge6_Node000001_Node000005" class="edge">
<title>Node1&#45;&gt;Node5</title>
<g id="a_edge6_Node000001_Node000005"><a xlink:title=" ">
<path fill="none" stroke="#63b8ff" d="M487.91,-89.78C470.82,-80.37 451.18,-69.11 434.05,-58.96"/>
<polygon fill="none" stroke="#63b8ff" points="485.86,-92.64 496.31,-94.36 489.21,-86.5 485.86,-92.64"/>
</a>
</g>
</g>
<!-- Node1&#45;&gt;Node5 -->
<g id="edge7_Node000001_Node000005" class="edge">
<title>Node1&#45;&gt;Node5</title>
<g id="a_edge7_Node000001_Node000005"><a xlink:title=" ">
<path fill="none" stroke="#63b8ff" d="M499.07,-89.25C483.69,-79.94 464.75,-68.92 447.03,-58.96"/>
<polygon fill="none" stroke="#63b8ff" points="496.95,-92.06 507.31,-94.3 500.61,-86.09 496.95,-92.06"/>
</a>
</g>
</g>
<!-- Node6 -->
<g id="Node000006" class="node">
<title>Node6</title>
<g id="a_Node000006"><a xlink:href="classcustom__error__handler.html" target="_top" xlink:title=" ">
<polygon fill="white" stroke="none" points="587.5,-39.88 473,-39.88 473,-19.12 587.5,-19.12 587.5,-39.88"/>
<text xml:space="preserve" text-anchor="start" x="477" y="-26.38" font-family="Helvetica,sans-Serif" font-size="10.00">custom_error_handler</text>
<polygon fill="none" stroke="#666666" points="473,-19.12 473,-39.88 587.5,-39.88 587.5,-19.12 473,-19.12"/>
</a>
</g>
</g>
<!-- Node1&#45;&gt;Node6 -->
<g id="edge8_Node000001_Node000006" class="edge">
<title>Node1&#45;&gt;Node6</title>
<g id="a_edge8_Node000001_Node000006"><a xlink:title=" ">
<path fill="none" stroke="#63b8ff" d="M511.07,-84.22C508.54,-68.74 510.49,-50.21 516.92,-39.45"/>
<polygon fill="none" stroke="#63b8ff" points="507.65,-84.98 513.5,-93.81 514.44,-83.26 507.65,-84.98"/>
</a>
</g>
</g>
<!-- Node1&#45;&gt;Node6 -->
<g id="edge9_Node000001_Node000006" class="edge">
<title>Node1&#45;&gt;Node6</title>
<g id="a_edge9_Node000001_Node000006"><a xlink:title=" ">
<path fill="none" stroke="#63b8ff" d="M523.86,-84.22C523.01,-68.74 523.66,-50.21 525.81,-39.45"/>
<polygon fill="none" stroke="#63b8ff" points="520.33,-84.1 524.66,-93.77 527.31,-83.51 520.33,-84.1"/>
</a>
</g>
</g>
<!-- Node1&#45;&gt;Node6 -->
<g id="edge10_Node000001_Node000006" class="edge">
<title>Node1&#45;&gt;Node6</title>
<g id="a_edge10_Node000001_Node000006"><a xlink:title=" ">
<path fill="none" stroke="#63b8ff" d="M536.64,-84.22C537.49,-68.74 536.84,-50.21 534.69,-39.45"/>
<polygon fill="none" stroke="#63b8ff" points="533.19,-83.51 535.84,-93.77 540.17,-84.1 533.19,-83.51"/>
</a>
</g>
</g>
<!-- Node1&#45;&gt;Node6 -->
<g id="edge11_Node000001_Node000006" class="edge">
<title>Node1&#45;&gt;Node6</title>
<g id="a_edge11_Node000001_Node000006"><a xlink:title=" ">
<path fill="none" stroke="#63b8ff" d="M549.43,-84.22C551.96,-68.74 550.01,-50.21 543.58,-39.45"/>
<polygon fill="none" stroke="#63b8ff" points="546.06,-83.26 547,-93.81 552.85,-84.98 546.06,-83.26"/>
</a>
</g>
</g>
<!-- Node7 -->
<g id="Node000007" class="node">
<title>Node7</title>
<g id="a_Node000007"><a xlink:href="classmqtt_1_1mqttstore_1_1lib_1_1anonymous__namespace_02StoragePlan_8cpp_03_1_1ProjectionValidationErrorHandler.html" target="_top" xlink:title=" ">
<polygon fill="white" stroke="none" points="759,-59 605.5,-59 605.5,0 759,0 759,-59"/>
<text xml:space="preserve" text-anchor="start" x="609.5" y="-45.5" font-family="Helvetica,sans-Serif" font-size="10.00">mqtt::mqttstore::lib</text>
<text xml:space="preserve" text-anchor="start" x="609.5" y="-32.75" font-family="Helvetica,sans-Serif" font-size="10.00">::anonymous_namespace</text>
<text xml:space="preserve" text-anchor="start" x="609.5" y="-20" font-family="Helvetica,sans-Serif" font-size="10.00">{StoragePlan.cpp}::Projection</text>
<text xml:space="preserve" text-anchor="start" x="626.75" y="-7.25" font-family="Helvetica,sans-Serif" font-size="10.00">ValidationErrorHandler</text>
<polygon fill="none" stroke="#666666" points="605.5,0 605.5,-59 759,-59 759,0 605.5,0"/>
</a>
</g>
</g>
<!-- Node1&#45;&gt;Node7 -->
<g id="edge12_Node000001_Node000007" class="edge">
<title>Node1&#45;&gt;Node7</title>
<g id="a_edge12_Node000001_Node000007"><a xlink:title=" ">
<path fill="none" stroke="#63b8ff" d="M564.44,-89.51C581.4,-80.15 602.34,-69.02 621.86,-58.96"/>
<polygon fill="none" stroke="#63b8ff" points="562.79,-86.42 555.76,-94.35 566.2,-92.54 562.79,-86.42"/>
</a>
</g>
</g>
<!-- Node1&#45;&gt;Node7 -->
<g id="edge13_Node000001_Node000007" class="edge">
<title>Node1&#45;&gt;Node7</title>
<g id="a_edge13_Node000001_Node000007"><a xlink:title=" ">
<path fill="none" stroke="#63b8ff" d="M575.46,-90.04C594.2,-80.58 615.89,-69.21 634.84,-58.96"/>
<polygon fill="none" stroke="#63b8ff" points="574.12,-86.8 566.75,-94.41 577.26,-93.06 574.12,-86.8"/>
</a>
</g>
</g>
<!-- Node8 -->
<g id="Node000008" class="node">
<title>Node8</title>
<g id="a_Node000008"><a xlink:href="classstore__ptr__err__handler.html" target="_top" xlink:title=" ">
<polygon fill="white" stroke="none" points="889.38,-39.88 777.12,-39.88 777.12,-19.12 889.38,-19.12 889.38,-39.88"/>
<text xml:space="preserve" text-anchor="start" x="781.12" y="-26.38" font-family="Helvetica,sans-Serif" font-size="10.00">store_ptr_err_handler</text>
<polygon fill="none" stroke="#666666" points="777.12,-19.12 777.12,-39.88 889.38,-39.88 889.38,-19.12 777.12,-19.12"/>
</a>
</g>
</g>
<!-- Node1&#45;&gt;Node8 -->
<g id="edge14_Node000001_Node000008" class="edge">
<title>Node1&#45;&gt;Node8</title>
<g id="a_edge14_Node000001_Node000008"><a xlink:title=" ">
<path fill="none" stroke="#63b8ff" d="M604.59,-97.05C649.85,-88.29 708.45,-75.48 759.25,-59 775.31,-53.79 792.79,-46 806.96,-39.87"/>
<polygon fill="none" stroke="#63b8ff" points="604.03,-93.59 594.87,-98.9 605.34,-100.47 604.03,-93.59"/>
</a>
</g>
</g>
<!-- Node1&#45;&gt;Node8 -->
<g id="edge15_Node000001_Node000008" class="edge">
<title>Node1&#45;&gt;Node8</title>
<g id="a_edge15_Node000001_Node000008"><a xlink:title=" ">
<path fill="none" stroke="#63b8ff" d="M604.58,-99.9C654.3,-91.18 720.62,-77.37 777.25,-59 793.42,-53.75 811.05,-45.88 822.45,-39.74"/>
<polygon fill="none" stroke="#63b8ff" points="604.02,-96.44 594.76,-101.59 605.21,-103.34 604.02,-96.44"/>
</a>
</g>
</g>
<!-- Node2 -->
<g id="Node000002" class="node">
<title>Node2</title>
<g id="a_Node000002"><a xlink:href="classnlohmann_1_1json__schema_1_1error__handler.html" target="_top" xlink:title=" ">
<polygon fill="white" stroke="none" points="593.5,-198 467,-198 467,-164.5 593.5,-164.5 593.5,-198"/>
<text xml:space="preserve" text-anchor="start" x="471" y="-184.5" font-family="Helvetica,sans-Serif" font-size="10.00">nlohmann::json_schema</text>
<text xml:space="preserve" text-anchor="start" x="494.62" y="-171.75" font-family="Helvetica,sans-Serif" font-size="10.00">::error_handler</text>
<polygon fill="none" stroke="#666666" points="467,-164.5 467,-198 593.5,-198 593.5,-164.5 467,-164.5"/>
</a>
</g>
</g>
<!-- Node2&#45;&gt;Node1 -->
<g id="edge1_Node000001_Node000002" class="edge">
<title>Node2&#45;&gt;Node1</title>
<g id="a_edge1_Node000001_Node000002"><a xlink:title=" ">
<path fill="none" stroke="#63b8ff" d="M530.25,-153.25C530.25,-144.78 530.25,-135.72 530.25,-128.32"/>
<polygon fill="none" stroke="#63b8ff" points="526.75,-153.08 530.25,-163.08 533.75,-153.08 526.75,-153.08"/>
</a>
</g>
</g>
</g>
</svg>

<g id="navigator" transform="translate(0 0)" fill="#404254">
  <rect fill="#f2f5e9" fill-opacity="0.5" stroke="#606060" stroke-width=".5" x="0" y="0" width="60" height="60"/>
  <use id="zoomplus" xlink:href="#zoomPlus" x="17" y="9" onmousedown="handleZoom(evt,'in')"/>
  <use id="zoomminus" xlink:href="#zoomMin" x="42" y="9" onmousedown="handleZoom(evt,'out')"/>
  <use id="reset" xlink:href="#resetDef" x="30" y="36" onmousedown="handleReset()"/>
   <use id="arrowup" xlink:href="#arrowUp" x="0" y="0" onmousedown="handlePan(0,-1)"/>
  <use id="arrowright" xlink:href="#arrowRight" x="0" y="0" onmousedown="handlePan(1,0)"/>
  <use id="arrowdown" xlink:href="#arrowDown" x="0" y="0" onmousedown="handlePan(0,1)"/>
  <use id="arrowleft" xlink:href="#arrowLeft" x="0" y="0" onmousedown="handlePan(-1,0)"/>
</g>
<svg viewBox="0 0 15 15" width="100%" height="30px" preserveAspectRatio="xMaxYMin meet">
 <g id="arrow_out" transform="scale(0.3 0.3)">
  <a xlink:href="classnlohmann_1_1json__schema_1_1basic__error__handler__inherit__graph_org.svg" target="_base">
   <rect id="button" ry="5" rx="5" y="6" x="6" height="38" width="38"
        fill="#f2f5e9" fill-opacity="0.5" stroke="#606060" stroke-width="1.0"/>
   <path id="arrow"
     d="M 11.500037,31.436501 C 11.940474,20.09759 22.043105,11.32322 32.158766,21.979434 L 37.068811,17.246167 C 37.068811,17.246167 37.088388,32 37.088388,32 L 22.160133,31.978069 C 22.160133,31.978069 26.997745,27.140456 26.997745,27.140456 C 18.528582,18.264221 13.291696,25.230495 11.500037,31.436501 z"
     style="fill:#404040;"/>
  </a>
 </g>
</svg>

<style type='text/css'>
<![CDATA[
[data-mouse-over-selected='false'] { opacity: 0.7; }
[data-mouse-over-selected='true']  { opacity: 1.0; }
]]>
</style>
<script type="application/ecmascript"><![CDATA[
document.addEventListener('DOMContentLoaded', (event) => {
  highlightEdges();
  highlightAdjacentNodes();
});
]]></script>
</svg>
