<?xml version="1.0" encoding="UTF-8" standalone="no"?>
<!DOCTYPE svg PUBLIC "-//W3C//DTD SVG 1.1//EN"
 "http://www.w3.org/Graphics/SVG/1.1/DTD/svg11.dtd">
<!-- Generated by graphviz version 2.42.4 (0)
 -->
<!-- Title: nlohmann::json_schema::json_validator::set_root_schema Pages: 1 -->
<svg width="748pt" height="179pt"
 viewBox="0.00 0.00 748.00 178.50" xmlns="http://www.w3.org/2000/svg" xmlns:xlink="http://www.w3.org/1999/xlink">
<g id="graph0" class="graph" transform="scale(1 1) rotate(0) translate(4 174.5)">
<title>nlohmann::json_schema::json_validator::set_root_schema</title>
<!-- Node1 -->
<g id="Node000001" class="node">
<title>Node1</title>
<g id="a_Node000001"><a xlink:title=" ">
<polygon fill="#999999" stroke="#666666" points="740,-85 605,-85 605,-44 740,-44 740,-85"/>
<text text-anchor="start" x="613" y="-73" font-family="Helvetica,sans-Serif" font-size="10.00">nlohmann::json_schema</text>
<text text-anchor="start" x="613" y="-62" font-family="Helvetica,sans-Serif" font-size="10.00">::json_validator::set</text>
<text text-anchor="middle" x="672.5" y="-51" font-family="Helvetica,sans-Serif" font-size="10.00">_root_schema</text>
</a>
</g>
</g>
<!-- Node2 -->
<g id="Node000002" class="node">
<title>Node2</title>
<g id="a_Node000002"><a xlink:href="classnlohmann_1_1json__schema_1_1json__validator.html#ad8f46dfed69afe463732ae335879dabb" target="_top" xlink:title=" ">
<polygon fill="white" stroke="#666666" points="569,-152 434,-152 434,-111 569,-111 569,-152"/>
<text text-anchor="start" x="442" y="-140" font-family="Helvetica,sans-Serif" font-size="10.00">nlohmann::json_schema</text>
<text text-anchor="start" x="442" y="-129" font-family="Helvetica,sans-Serif" font-size="10.00">::json_validator::json</text>
<text text-anchor="middle" x="501.5" y="-118" font-family="Helvetica,sans-Serif" font-size="10.00">_validator</text>
</a>
</g>
</g>
<!-- Node1&#45;&gt;Node2 -->
<g id="edge1_Node000001_Node000002" class="edge">
<title>Node1&#45;&gt;Node2</title>
<g id="a_edge1_Node000001_Node000002"><a xlink:title=" ">
<path fill="none" stroke="#63b8ff" d="M610.03,-88.87C591.79,-96.1 571.99,-103.95 554.41,-110.92"/>
<polygon fill="#63b8ff" stroke="#63b8ff" points="611.41,-92.09 619.42,-85.15 608.83,-85.58 611.41,-92.09"/>
</a>
</g>
</g>
<!-- Node8 -->
<g id="Node000008" class="node">
<title>Node8</title>
<g id="a_Node000008"><a xlink:href="format_8cpp.html#ae66f6b31b5ad750f1fe042a706a4e3d4" target="_top" xlink:title=" ">
<polygon fill="white" stroke="#666666" points="522,-93 481,-93 481,-74 522,-74 522,-93"/>
<text text-anchor="middle" x="501.5" y="-81" font-family="Helvetica,sans-Serif" font-size="10.00">main</text>
</a>
</g>
</g>
<!-- Node1&#45;&gt;Node8 -->
<g id="edge7_Node000001_Node000008" class="edge">
<title>Node1&#45;&gt;Node8</title>
<g id="a_edge7_Node000001_Node000008"><a xlink:title=" ">
<path fill="none" stroke="#63b8ff" d="M594.52,-73.16C567.74,-76.17 539.94,-79.29 522.01,-81.31"/>
<polygon fill="#63b8ff" stroke="#63b8ff" points="595.16,-76.6 604.71,-72.01 594.38,-69.65 595.16,-76.6"/>
</a>
</g>
</g>
<!-- Node9 -->
<g id="Node000009" class="node">
<title>Node9</title>
<g id="a_Node000009"><a xlink:href="json-schema-validate_8cpp.html#a0ddf1224851353fc92bfbff6f499fa97" target="_top" xlink:title=" ">
<polygon fill="white" stroke="#666666" points="522,-56 481,-56 481,-37 522,-37 522,-56"/>
<text text-anchor="middle" x="501.5" y="-44" font-family="Helvetica,sans-Serif" font-size="10.00">main</text>
</a>
</g>
</g>
<!-- Node1&#45;&gt;Node9 -->
<g id="edge8_Node000001_Node000009" class="edge">
<title>Node1&#45;&gt;Node9</title>
<g id="a_edge8_Node000001_Node000009"><a xlink:title=" ">
<path fill="none" stroke="#63b8ff" d="M594.52,-56.3C567.74,-53.45 539.94,-50.49 522.01,-48.58"/>
<polygon fill="#63b8ff" stroke="#63b8ff" points="594.39,-59.81 604.71,-57.39 595.13,-52.85 594.39,-59.81"/>
</a>
</g>
</g>
<!-- Node10 -->
<g id="Node000010" class="node">
<title>Node10</title>
<g id="a_Node000010"><a xlink:href="errors_8cpp.html#a840291bc02cba5474a4cb46a9b9566fe" target="_top" xlink:title=" ">
<polygon fill="white" stroke="#666666" points="522,-19 481,-19 481,0 522,0 522,-19"/>
<text text-anchor="middle" x="501.5" y="-7" font-family="Helvetica,sans-Serif" font-size="10.00">main</text>
</a>
</g>
</g>
<!-- Node1&#45;&gt;Node10 -->
<g id="edge9_Node000001_Node000010" class="edge">
<title>Node1&#45;&gt;Node10</title>
<g id="a_edge9_Node000001_Node000010"><a xlink:title=" ">
<path fill="none" stroke="#63b8ff" d="M605.47,-40.66C593.38,-36.48 580.84,-32.27 569,-28.5 553.32,-23.51 535.38,-18.42 522.09,-14.77"/>
<polygon fill="#63b8ff" stroke="#63b8ff" points="604.45,-44.01 615.04,-44 606.75,-37.4 604.45,-44.01"/>
</a>
</g>
</g>
<!-- Node3 -->
<g id="Node000003" class="node">
<title>Node3</title>
<g id="a_Node000003"><a xlink:href="classmqtt_1_1lib_1_1JsonMappingReader.html#a77231994bd3ef854feb2db79dd71746b" target="_top" xlink:title=" ">
<polygon fill="white" stroke="#666666" points="398,-170.5 237,-170.5 237,-140.5 398,-140.5 398,-170.5"/>
<text text-anchor="start" x="245" y="-158.5" font-family="Helvetica,sans-Serif" font-size="10.00">mqtt::lib::JsonMappingReader</text>
<text text-anchor="middle" x="317.5" y="-147.5" font-family="Helvetica,sans-Serif" font-size="10.00">::readMappingFromFile</text>
</a>
</g>
</g>
<!-- Node2&#45;&gt;Node3 -->
<g id="edge2_Node000002_Node000003" class="edge">
<title>Node2&#45;&gt;Node3</title>
<g id="a_edge2_Node000002_Node000003"><a xlink:title=" ">
<path fill="none" stroke="#63b8ff" d="M423.61,-141.64C415.21,-142.75 406.64,-143.88 398.2,-144.99"/>
<polygon fill="#63b8ff" stroke="#63b8ff" points="424.31,-145.08 433.76,-140.3 423.39,-138.14 424.31,-145.08"/>
</a>
</g>
</g>
<!-- Node4 -->
<g id="Node000004" class="node">
<title>Node4</title>
<g id="a_Node000004"><a xlink:href="classnlohmann_1_1json__patch.html#ac7aea9496e07beb821fb9e5423fb76f5" target="_top" xlink:title=" ">
<polygon fill="white" stroke="#666666" points="379.5,-122.5 255.5,-122.5 255.5,-92.5 379.5,-92.5 379.5,-122.5"/>
<text text-anchor="start" x="263.5" y="-110.5" font-family="Helvetica,sans-Serif" font-size="10.00">nlohmann::json_patch</text>
<text text-anchor="middle" x="317.5" y="-99.5" font-family="Helvetica,sans-Serif" font-size="10.00">::validateJsonPatch</text>
</a>
</g>
</g>
<!-- Node2&#45;&gt;Node4 -->
<g id="edge3_Node000002_Node000004" class="edge">
<title>Node2&#45;&gt;Node4</title>
<g id="a_edge3_Node000002_Node000004"><a xlink:title=" ">
<path fill="none" stroke="#63b8ff" d="M423.71,-121.37C409.06,-119.44 393.89,-117.44 379.8,-115.58"/>
<polygon fill="#63b8ff" stroke="#63b8ff" points="423.39,-124.86 433.76,-122.7 424.31,-117.92 423.39,-124.86"/>
</a>
</g>
</g>
<!-- Node5 -->
<g id="Node000005" class="node">
<title>Node5</title>
<g id="a_Node000005"><a xlink:href="classnlohmann_1_1json__patch.html#ae61d410c3afe7cf9b7a9589819e8f94a" target="_top" xlink:title=" ">
<polygon fill="white" stroke="#666666" points="201,-146.5 77,-146.5 77,-116.5 201,-116.5 201,-146.5"/>
<text text-anchor="start" x="85" y="-134.5" font-family="Helvetica,sans-Serif" font-size="10.00">nlohmann::json_patch</text>
<text text-anchor="middle" x="139" y="-123.5" font-family="Helvetica,sans-Serif" font-size="10.00">::json_patch</text>
</a>
</g>
</g>
<!-- Node4&#45;&gt;Node5 -->
<g id="edge4_Node000004_Node000005" class="edge">
<title>Node4&#45;&gt;Node5</title>
<g id="a_edge4_Node000004_Node000005"><a xlink:title=" ">
<path fill="none" stroke="#63b8ff" d="M245.26,-117.19C230.64,-119.18 215.36,-121.25 201.13,-123.19"/>
<polygon fill="#63b8ff" stroke="#63b8ff" points="245.83,-120.64 255.26,-115.83 244.88,-113.71 245.83,-120.64"/>
</a>
</g>
</g>
<!-- Node6 -->
<g id="Node000006" class="node">
<title>Node6</title>
<g id="a_Node000006"><a xlink:href="classnlohmann_1_1json__patch.html#a9ed4f8e610b70b973f9fd59696d5c10b" target="_top" xlink:title=" ">
<polygon fill="white" stroke="#666666" points="201,-98.5 77,-98.5 77,-68.5 201,-68.5 201,-98.5"/>
<text text-anchor="start" x="85" y="-86.5" font-family="Helvetica,sans-Serif" font-size="10.00">nlohmann::json_patch</text>
<text text-anchor="middle" x="139" y="-75.5" font-family="Helvetica,sans-Serif" font-size="10.00">::json_patch</text>
</a>
</g>
</g>
<!-- Node4&#45;&gt;Node6 -->
<g id="edge5_Node000004_Node000006" class="edge">
<title>Node4&#45;&gt;Node6</title>
<g id="a_edge5_Node000004_Node000006"><a xlink:title=" ">
<path fill="none" stroke="#63b8ff" d="M245.26,-97.81C230.64,-95.82 215.36,-93.75 201.13,-91.81"/>
<polygon fill="#63b8ff" stroke="#63b8ff" points="244.88,-101.29 255.26,-99.17 245.83,-94.36 244.88,-101.29"/>
</a>
</g>
</g>
<!-- Node7 -->
<g id="Node000007" class="node">
<title>Node7</title>
<g id="a_Node000007"><a xlink:href="test_2json-patch_8cpp.html#a840291bc02cba5474a4cb46a9b9566fe" target="_top" xlink:title=" ">
<polygon fill="white" stroke="#666666" points="41,-93 0,-93 0,-74 41,-74 41,-93"/>
<text text-anchor="middle" x="20.5" y="-81" font-family="Helvetica,sans-Serif" font-size="10.00">main</text>
</a>
</g>
</g>
<!-- Node6&#45;&gt;Node7 -->
<g id="edge6_Node000006_Node000007" class="edge">
<title>Node6&#45;&gt;Node7</title>
<g id="a_edge6_Node000006_Node000007"><a xlink:title=" ">
<path fill="none" stroke="#63b8ff" d="M66.46,-83.5C57.17,-83.5 48.36,-83.5 41.04,-83.5"/>
<polygon fill="#63b8ff" stroke="#63b8ff" points="66.68,-87 76.68,-83.5 66.68,-80 66.68,-87"/>
</a>
</g>
</g>
</g>
</svg>
