<?xml version="1.0" encoding="UTF-8" standalone="no"?>
<!DOCTYPE svg PUBLIC "-//W3C//DTD SVG 1.1//EN"
 "http://www.w3.org/Graphics/SVG/1.1/DTD/svg11.dtd">
<!-- Generated by graphviz version 2.42.4 (0)
 -->
<!-- Title: mqtt::mqttbroker::SocketContextFactory::create Pages: 1 -->
<!--zoomable 464 -->

<svg id="main" version="1.1" xmlns="http://www.w3.org/2000/svg" xmlns:xlink="http://www.w3.org/1999/xlink" xml:space="preserve" onload="init(evt)">

<style type="text/css"><![CDATA[
.node, .edge {opacity: 0.7;}
.node.selected, .edge.selected {opacity: 1;}
.edge:hover path { stroke: red; }
.edge:hover polygon { stroke: red; fill: red; }
]]></style>

<defs>
  <circle id="rim" cx="0" cy="0" r="7"/>
  <circle id="rim2" cx="0" cy="0" r="3.5"/>
  <g id="zoomPlus">
    <use xlink:href="#rim" fill="#404040"><set attributeName="fill" to="#808080" begin="zoomplus.mouseover" end="zoomplus.mouseout"/></use>
    <path d="M-4,0h8M0,-4v8" fill="none" stroke="white" stroke-width="1.5" pointer-events="none"/>
  </g>
  <g id="zoomMin">
    <use xlink:href="#rim" fill="#404040"><set attributeName="fill" to="#808080" begin="zoomminus.mouseover" end="zoomminus.mouseout"/></use>
    <path d="M-4,0h8" fill="none" stroke="white" stroke-width="1.5" pointer-events="none"/>
  </g>
  <g id="arrowUp" transform="translate(30 24)">
    <use xlink:href="#rim"/>
    <path pointer-events="none" fill="none" stroke="white" stroke-width="1.5" d="M0,-3.0v7 M-2.5,-0.5L0,-3.0L2.5,-0.5"/>
  </g>
  <g id="arrowRight" transform="rotate(90) translate(36 -43)">
    <use xlink:href="#rim"/>
    <path pointer-events="none" fill="none" stroke="white" stroke-width="1.5" d="M0,-3.0v7 M-2.5,-0.5L0,-3.0L2.5,-0.5"/>
  </g>
  <g id="arrowDown" transform="rotate(180) translate(-30 -48)">
    <use xlink:href="#rim"/>
    <path pointer-events="none" fill="none" stroke="white" stroke-width="1.5" d="M0,-3.0v7 M-2.5,-0.5L0,-3.0L2.5,-0.5"/>
  </g>
  <g id="arrowLeft" transform="rotate(270) translate(-36 17)">
    <use xlink:href="#rim"/>
    <path pointer-events="none" fill="none" stroke="white" stroke-width="1.5" d="M0,-3.0v7 M-2.5,-0.5L0,-3.0L2.5,-0.5"/>
  </g>
  <g id="resetDef">
    <use xlink:href="#rim2" fill="#404040"><set attributeName="fill" to="#808080" begin="reset.mouseover" end="reset.mouseout"/></use>
  </g>
</defs>
<script type="application/ecmascript">
var viewWidth = 1558;
var viewHeight = 464;
var sectionId = 'dynsection-2';
</script>
<script type="application/ecmascript" xlink:href="svg.min.js"/>
<svg id="graph" class="graph">
<g id="viewport">
<title>mqtt::mqttbroker::SocketContextFactory::create</title>
<!-- Node1 -->
<g id="Node000001" class="node">
<title>Node1</title>
<g id="a_Node000001"><a xlink:title=" ">
<polygon fill="#999999" stroke="#666666" points="138,-307 0,-307 0,-277 138,-277 138,-307"/>
<text text-anchor="start" x="8" y="-295" font-family="Helvetica,sans-Serif" font-size="10.00">mqtt::mqttbroker::Socket</text>
<text text-anchor="middle" x="69" y="-284" font-family="Helvetica,sans-Serif" font-size="10.00">ContextFactory::create</text>
</a>
</g>
</g>
<!-- Node2 -->
<g id="Node000002" class="node">
<title>Node2</title>
<g id="a_Node000002"><a xlink:href="classmqtt_1_1lib_1_1JsonMappingReader.html#a77231994bd3ef854feb2db79dd71746b" target="_top" xlink:title=" ">
<polygon fill="white" stroke="#666666" points="335,-307 174,-307 174,-277 335,-277 335,-307"/>
<text text-anchor="start" x="182" y="-295" font-family="Helvetica,sans-Serif" font-size="10.00">mqtt::lib::JsonMappingReader</text>
<text text-anchor="middle" x="254.5" y="-284" font-family="Helvetica,sans-Serif" font-size="10.00">::readMappingFromFile</text>
</a>
</g>
</g>
<!-- Node1&#45;&gt;Node2 -->
<g id="edge1_Node000001_Node000002" class="edge">
<title>Node1&#45;&gt;Node2</title>
<g id="a_edge1_Node000001_Node000002"><a xlink:title=" ">
<path fill="none" stroke="#63b8ff" d="M138.07,-292C146.43,-292 155.06,-292 163.68,-292"/>
<polygon fill="#63b8ff" stroke="#63b8ff" points="163.77,-295.5 173.77,-292 163.77,-288.5 163.77,-295.5"/>
</a>
</g>
</g>
<!-- Node3 -->
<g id="Node000003" class="node">
<title>Node3</title>
<g id="a_Node000003"><a xlink:href="classnlohmann_1_1json__schema_1_1json__validator.html#ad8f46dfed69afe463732ae335879dabb" target="_top" xlink:title=" ">
<polygon fill="white" stroke="#666666" points="506,-312.5 371,-312.5 371,-271.5 506,-271.5 506,-312.5"/>
<text text-anchor="start" x="379" y="-300.5" font-family="Helvetica,sans-Serif" font-size="10.00">nlohmann::json_schema</text>
<text text-anchor="start" x="379" y="-289.5" font-family="Helvetica,sans-Serif" font-size="10.00">::json_validator::json</text>
<text text-anchor="middle" x="438.5" y="-278.5" font-family="Helvetica,sans-Serif" font-size="10.00">_validator</text>
</a>
</g>
</g>
<!-- Node2&#45;&gt;Node3 -->
<g id="edge2_Node000002_Node000003" class="edge">
<title>Node2&#45;&gt;Node3</title>
<g id="a_edge2_Node000002_Node000003"><a xlink:title=" ">
<path fill="none" stroke="#63b8ff" d="M335.06,-292C343.56,-292 352.2,-292 360.67,-292"/>
<polygon fill="#63b8ff" stroke="#63b8ff" points="360.89,-295.5 370.89,-292 360.89,-288.5 360.89,-295.5"/>
</a>
</g>
</g>
<!-- Node4 -->
<g id="Node000004" class="node">
<title>Node4</title>
<g id="a_Node000004"><a xlink:href="classnlohmann_1_1json__schema_1_1json__validator.html#aa0aea93f3507f78008cba94fb7e81799" target="_top" xlink:title=" ">
<polygon fill="white" stroke="#666666" points="677,-342.5 542,-342.5 542,-301.5 677,-301.5 677,-342.5"/>
<text text-anchor="start" x="550" y="-330.5" font-family="Helvetica,sans-Serif" font-size="10.00">nlohmann::json_schema</text>
<text text-anchor="start" x="550" y="-319.5" font-family="Helvetica,sans-Serif" font-size="10.00">::json_validator::json</text>
<text text-anchor="middle" x="609.5" y="-308.5" font-family="Helvetica,sans-Serif" font-size="10.00">_validator</text>
</a>
</g>
</g>
<!-- Node3&#45;&gt;Node4 -->
<g id="edge3_Node000003_Node000004" class="edge">
<title>Node3&#45;&gt;Node4</title>
<g id="a_edge3_Node000003_Node000004"><a xlink:title=" ">
<path fill="none" stroke="#63b8ff" d="M506.29,-303.86C514.72,-305.35 523.38,-306.89 531.94,-308.41"/>
<polygon fill="#63b8ff" stroke="#63b8ff" points="531.46,-311.88 541.92,-310.18 532.68,-304.99 531.46,-311.88"/>
</a>
</g>
</g>
<!-- Node6 -->
<g id="Node000006" class="node">
<title>Node6</title>
<g id="a_Node000006"><a xlink:href="classnlohmann_1_1json__schema_1_1json__validator.html#a13e1d3029c8953bb9c7d1879382edb03" target="_top" xlink:title=" ">
<polygon fill="white" stroke="#666666" points="677,-283.5 542,-283.5 542,-242.5 677,-242.5 677,-283.5"/>
<text text-anchor="start" x="550" y="-271.5" font-family="Helvetica,sans-Serif" font-size="10.00">nlohmann::json_schema</text>
<text text-anchor="start" x="550" y="-260.5" font-family="Helvetica,sans-Serif" font-size="10.00">::json_validator::set</text>
<text text-anchor="middle" x="609.5" y="-249.5" font-family="Helvetica,sans-Serif" font-size="10.00">_root_schema</text>
</a>
</g>
</g>
<!-- Node3&#45;&gt;Node6 -->
<g id="edge5_Node000003_Node000006" class="edge">
<title>Node3&#45;&gt;Node6</title>
<g id="a_edge5_Node000003_Node000006"><a xlink:title=" ">
<path fill="none" stroke="#63b8ff" d="M506.29,-280.54C514.72,-279.09 523.38,-277.61 531.94,-276.14"/>
<polygon fill="#63b8ff" stroke="#63b8ff" points="532.65,-279.57 541.92,-274.43 531.47,-272.67 532.65,-279.57"/>
</a>
</g>
</g>
<!-- Node5 -->
<g id="Node000005" class="node">
<title>Node5</title>
<g id="a_Node000005"><a xlink:href="classnlohmann_1_1json__schema_1_1root__schema.html#a704eaa54aca1f78a311687562421829f" target="_top" xlink:title=" ">
<polygon fill="white" stroke="#666666" points="868,-337 713,-337 713,-307 868,-307 868,-337"/>
<text text-anchor="start" x="721" y="-325" font-family="Helvetica,sans-Serif" font-size="10.00">nlohmann::json_schema</text>
<text text-anchor="middle" x="790.5" y="-314" font-family="Helvetica,sans-Serif" font-size="10.00">::root_schema::root_schema</text>
</a>
</g>
</g>
<!-- Node4&#45;&gt;Node5 -->
<g id="edge4_Node000004_Node000005" class="edge">
<title>Node4&#45;&gt;Node5</title>
<g id="a_edge4_Node000004_Node000005"><a xlink:title=" ">
<path fill="none" stroke="#63b8ff" d="M677.15,-322C685.51,-322 694.16,-322 702.77,-322"/>
<polygon fill="#63b8ff" stroke="#63b8ff" points="702.84,-325.5 712.84,-322 702.84,-318.5 702.84,-325.5"/>
</a>
</g>
</g>
<!-- Node7 -->
<g id="Node000007" class="node">
<title>Node7</title>
<g id="a_Node000007"><a xlink:href="classnlohmann_1_1json__schema_1_1root__schema.html#aa92bf9509db49548416a244fb4528e3c" target="_top" xlink:title=" ">
<polygon fill="white" stroke="#666666" points="858,-283.5 723,-283.5 723,-242.5 858,-242.5 858,-283.5"/>
<text text-anchor="start" x="731" y="-271.5" font-family="Helvetica,sans-Serif" font-size="10.00">nlohmann::json_schema</text>
<text text-anchor="start" x="731" y="-260.5" font-family="Helvetica,sans-Serif" font-size="10.00">::root_schema::set_root</text>
<text text-anchor="middle" x="790.5" y="-249.5" font-family="Helvetica,sans-Serif" font-size="10.00">_schema</text>
</a>
</g>
</g>
<!-- Node6&#45;&gt;Node7 -->
<g id="edge6_Node000006_Node000007" class="edge">
<title>Node6&#45;&gt;Node7</title>
<g id="a_edge6_Node000006_Node000007"><a xlink:title=" ">
<path fill="none" stroke="#63b8ff" d="M677.15,-263C688.68,-263 700.76,-263 712.54,-263"/>
<polygon fill="#63b8ff" stroke="#63b8ff" points="712.79,-266.5 722.79,-263 712.79,-259.5 712.79,-266.5"/>
</a>
</g>
</g>
<!-- Node8 -->
<g id="Node000008" class="node">
<title>Node8</title>
<g id="a_Node000008"><a xlink:href="classanonymous__namespace_02json-validator_8cpp_03_1_1schema.html#aafee860997369c77204d5b1a7d095c3f" target="_top" xlink:title=" ">
<polygon fill="white" stroke="#666666" points="1039,-283.5 904,-283.5 904,-242.5 1039,-242.5 1039,-283.5"/>
<text text-anchor="start" x="912" y="-271.5" font-family="Helvetica,sans-Serif" font-size="10.00">anonymous_namespace</text>
<text text-anchor="start" x="912" y="-260.5" font-family="Helvetica,sans-Serif" font-size="10.00">{json&#45;validator::cpp}</text>
<text text-anchor="middle" x="971.5" y="-249.5" font-family="Helvetica,sans-Serif" font-size="10.00">::schema::make</text>
</a>
</g>
</g>
<!-- Node7&#45;&gt;Node8 -->
<g id="edge7_Node000007_Node000008" class="edge">
<title>Node7&#45;&gt;Node8</title>
<g id="a_edge7_Node000007_Node000008"><a xlink:title=" ">
<path fill="none" stroke="#63b8ff" d="M858.15,-263C869.68,-263 881.76,-263 893.54,-263"/>
<polygon fill="#63b8ff" stroke="#63b8ff" points="893.79,-266.5 903.79,-263 893.79,-259.5 893.79,-266.5"/>
</a>
</g>
</g>
<!-- Node8&#45;&gt;Node8 -->
<g id="edge32_Node000008_Node000008" class="edge">
<title>Node8&#45;&gt;Node8</title>
<g id="a_edge32_Node000008_Node000008"><a xlink:title=" ">
<path fill="none" stroke="#63b8ff" d="M938.42,-283.6C934.81,-293.15 945.84,-301.5 971.5,-301.5 987.54,-301.5 997.86,-298.24 1002.47,-293.46"/>
<polygon fill="#63b8ff" stroke="#63b8ff" points="1005.91,-294.11 1004.58,-283.6 999.06,-292.64 1005.91,-294.11"/>
</a>
</g>
</g>
<!-- Node9 -->
<g id="Node000009" class="node">
<title>Node9</title>
<g id="a_Node000009"><a xlink:href="classnlohmann_1_1json__uri.html#acef9db8f1ac5317e1f124453d9587938" target="_top" xlink:title=" ">
<polygon fill="white" stroke="#666666" points="1391.5,-456 1281.5,-456 1281.5,-426 1391.5,-426 1391.5,-456"/>
<text text-anchor="start" x="1289.5" y="-444" font-family="Helvetica,sans-Serif" font-size="10.00">nlohmann::json_uri</text>
<text text-anchor="middle" x="1336.5" y="-433" font-family="Helvetica,sans-Serif" font-size="10.00">::append</text>
</a>
</g>
</g>
<!-- Node8&#45;&gt;Node9 -->
<g id="edge8_Node000008_Node000009" class="edge">
<title>Node8&#45;&gt;Node9</title>
<g id="a_edge8_Node000008_Node000009"><a xlink:title=" ">
<path fill="none" stroke="#63b8ff" d="M983.72,-283.66C999.99,-311.53 1032.85,-360.62 1075,-386 1135.2,-422.26 1215.78,-434.85 1271.29,-439.09"/>
<polygon fill="#63b8ff" stroke="#63b8ff" points="1271.14,-442.59 1281.36,-439.79 1271.62,-435.61 1271.14,-442.59"/>
</a>
</g>
</g>
<!-- Node10 -->
<g id="Node000010" class="node">
<title>Node10</title>
<g id="a_Node000010"><a xlink:href="classnlohmann_1_1json__uri.html#ab601a9e32d487e9484f12c57ec1befc1" target="_top" xlink:title=" ">
<polygon fill="white" stroke="#666666" points="1209,-138 1099,-138 1099,-108 1209,-108 1209,-138"/>
<text text-anchor="start" x="1107" y="-126" font-family="Helvetica,sans-Serif" font-size="10.00">nlohmann::json_uri</text>
<text text-anchor="middle" x="1154" y="-115" font-family="Helvetica,sans-Serif" font-size="10.00">::derive</text>
</a>
</g>
</g>
<!-- Node8&#45;&gt;Node10 -->
<g id="edge9_Node000008_Node000010" class="edge">
<title>Node8&#45;&gt;Node10</title>
<g id="a_edge9_Node000008_Node000010"><a xlink:title=" ">
<path fill="none" stroke="#63b8ff" d="M986.89,-242.24C1004.91,-217.63 1037.96,-176.83 1075,-152 1080.36,-148.41 1086.21,-145.19 1092.24,-142.32"/>
<polygon fill="#63b8ff" stroke="#63b8ff" points="1094.06,-145.34 1101.79,-138.1 1091.23,-138.94 1094.06,-145.34"/>
</a>
</g>
</g>
<!-- Node12 -->
<g id="Node000012" class="node">
<title>Node12</title>
<g id="a_Node000012"><a xlink:href="classnlohmann_1_1json__schema_1_1root__schema.html#a7e890c03f941280b76fbdb4d5bb73065" target="_top" xlink:title=" ">
<polygon fill="white" stroke="#666666" points="1221.5,-283.5 1086.5,-283.5 1086.5,-242.5 1221.5,-242.5 1221.5,-283.5"/>
<text text-anchor="start" x="1094.5" y="-271.5" font-family="Helvetica,sans-Serif" font-size="10.00">nlohmann::json_schema</text>
<text text-anchor="start" x="1094.5" y="-260.5" font-family="Helvetica,sans-Serif" font-size="10.00">::root_schema::get_or</text>
<text text-anchor="middle" x="1154" y="-249.5" font-family="Helvetica,sans-Serif" font-size="10.00">_create_ref</text>
</a>
</g>
</g>
<!-- Node8&#45;&gt;Node12 -->
<g id="edge11_Node000008_Node000012" class="edge">
<title>Node8&#45;&gt;Node12</title>
<g id="a_edge11_Node000008_Node000012"><a xlink:title=" ">
<path fill="none" stroke="#63b8ff" d="M1039.2,-256.46C1051.2,-256.24 1063.8,-256.19 1076.07,-256.32"/>
<polygon fill="#63b8ff" stroke="#63b8ff" points="1076.23,-259.82 1086.27,-256.46 1076.32,-252.82 1076.23,-259.82"/>
</a>
</g>
</g>
<!-- Node17 -->
<g id="Node000017" class="node">
<title>Node17</title>
<g id="a_Node000017"><a xlink:href="classnlohmann_1_1json__uri.html#a416eb06b53676b215761f43200da309f" target="_top" xlink:title=" ">
<polygon fill="white" stroke="#666666" points="1391.5,-116 1281.5,-116 1281.5,-86 1391.5,-86 1391.5,-116"/>
<text text-anchor="start" x="1289.5" y="-104" font-family="Helvetica,sans-Serif" font-size="10.00">nlohmann::json_uri</text>
<text text-anchor="middle" x="1336.5" y="-93" font-family="Helvetica,sans-Serif" font-size="10.00">::to_string</text>
</a>
</g>
</g>
<!-- Node8&#45;&gt;Node17 -->
<g id="edge34_Node000008_Node000017" class="edge">
<title>Node8&#45;&gt;Node17</title>
<g id="a_edge34_Node000008_Node000017"><a xlink:title=" ">
<path fill="none" stroke="#63b8ff" d="M993.92,-242.41C1013.52,-224.67 1044.09,-199.67 1075,-185 1140.24,-154.02 1165.98,-173.93 1233,-147 1250.19,-140.09 1252.27,-133.95 1269,-126 1273.37,-123.92 1277.95,-121.9 1282.59,-119.96"/>
<polygon fill="#63b8ff" stroke="#63b8ff" points="1284.17,-123.09 1292.13,-116.1 1281.55,-116.6 1284.17,-123.09"/>
</a>
</g>
</g>
<!-- Node18 -->
<g id="Node000018" class="node">
<title>Node18</title>
<g id="a_Node000018"><a xlink:href="classnlohmann_1_1json__schema_1_1root__schema.html#a685904131f0693e56f14a9e9db5f044e" target="_top" xlink:title=" ">
<polygon fill="white" stroke="#666666" points="1221.5,-224 1086.5,-224 1086.5,-194 1221.5,-194 1221.5,-224"/>
<text text-anchor="start" x="1094.5" y="-212" font-family="Helvetica,sans-Serif" font-size="10.00">nlohmann::json_schema</text>
<text text-anchor="middle" x="1154" y="-201" font-family="Helvetica,sans-Serif" font-size="10.00">::root_schema::insert</text>
</a>
</g>
</g>
<!-- Node8&#45;&gt;Node18 -->
<g id="edge19_Node000008_Node000018" class="edge">
<title>Node8&#45;&gt;Node18</title>
<g id="a_edge19_Node000008_Node000018"><a xlink:title=" ">
<path fill="none" stroke="#63b8ff" d="M1039.2,-243.05C1056.74,-237.8 1075.57,-232.17 1092.75,-227.02"/>
<polygon fill="#63b8ff" stroke="#63b8ff" points="1094.08,-230.28 1102.66,-224.06 1092.07,-223.57 1094.08,-230.28"/>
</a>
</g>
</g>
<!-- Node20 -->
<g id="Node000020" class="node">
<title>Node20</title>
<g id="a_Node000020"><a xlink:href="classnlohmann_1_1json__schema_1_1root__schema.html#a4c543fe7b89e76b3fdd17a6883696238" target="_top" xlink:title=" ">
<polygon fill="white" stroke="#666666" points="1221.5,-358.5 1086.5,-358.5 1086.5,-317.5 1221.5,-317.5 1221.5,-358.5"/>
<text text-anchor="start" x="1094.5" y="-346.5" font-family="Helvetica,sans-Serif" font-size="10.00">nlohmann::json_schema</text>
<text text-anchor="start" x="1094.5" y="-335.5" font-family="Helvetica,sans-Serif" font-size="10.00">::root_schema::insert</text>
<text text-anchor="middle" x="1154" y="-324.5" font-family="Helvetica,sans-Serif" font-size="10.00">_unknown_keyword</text>
</a>
</g>
</g>
<!-- Node8&#45;&gt;Node20 -->
<g id="edge25_Node000008_Node000020" class="edge">
<title>Node8&#45;&gt;Node20</title>
<g id="a_edge25_Node000008_Node000020"><a xlink:title=" ">
<path fill="none" stroke="#63b8ff" d="M1037.66,-283.56C1060.89,-292.76 1086.52,-303.6 1107.71,-313.24"/>
<polygon fill="#63b8ff" stroke="#63b8ff" points="1106.25,-316.42 1116.8,-317.43 1109.18,-310.06 1106.25,-316.42"/>
</a>
</g>
</g>
<!-- Node21 -->
<g id="Node000021" class="node">
<title>Node21</title>
<g id="a_Node000021"><a xlink:href="classanonymous__namespace_02json-validator_8cpp_03_1_1schema.html#a6ba2d224dd0a4372ac03f679de8316bd" target="_top" xlink:title=" ">
<polygon fill="white" stroke="#666666" points="1233,-89.5 1075,-89.5 1075,-48.5 1233,-48.5 1233,-89.5"/>
<text text-anchor="start" x="1083" y="-77.5" font-family="Helvetica,sans-Serif" font-size="10.00">anonymous_namespace</text>
<text text-anchor="start" x="1083" y="-66.5" font-family="Helvetica,sans-Serif" font-size="10.00">{json&#45;validator::cpp}</text>
<text text-anchor="middle" x="1154" y="-55.5" font-family="Helvetica,sans-Serif" font-size="10.00">::schema::make_for_default_</text>
</a>
</g>
</g>
<!-- Node8&#45;&gt;Node21 -->
<g id="edge33_Node000008_Node000021" class="edge">
<title>Node8&#45;&gt;Node21</title>
<g id="a_edge33_Node000008_Node000021"><a xlink:title=" ">
<path fill="none" stroke="#63b8ff" d="M980.27,-242.39C994.2,-208.04 1026.56,-138.95 1075,-99 1076.73,-97.57 1078.53,-96.21 1080.39,-94.91"/>
<polygon fill="#63b8ff" stroke="#63b8ff" points="1082.28,-97.86 1088.9,-89.58 1078.57,-91.93 1082.28,-97.86"/>
</a>
</g>
</g>
<!-- Node11 -->
<g id="Node000011" class="node">
<title>Node11</title>
<g id="a_Node000011"><a xlink:href="classnlohmann_1_1json__uri.html#a6a73807e46532b22e02ae6602cdedcdc" target="_top" xlink:title=" ">
<polygon fill="white" stroke="#666666" points="1391.5,-30 1281.5,-30 1281.5,0 1391.5,0 1391.5,-30"/>
<text text-anchor="start" x="1289.5" y="-18" font-family="Helvetica,sans-Serif" font-size="10.00">nlohmann::json_uri</text>
<text text-anchor="middle" x="1336.5" y="-7" font-family="Helvetica,sans-Serif" font-size="10.00">::update</text>
</a>
</g>
</g>
<!-- Node10&#45;&gt;Node11 -->
<g id="edge10_Node000010_Node000011" class="edge">
<title>Node10&#45;&gt;Node11</title>
<g id="a_edge10_Node000010_Node000011"><a xlink:title=" ">
<path fill="none" stroke="#63b8ff" d="M1209.4,-111.64C1217.78,-108.41 1225.98,-104.28 1233,-99 1256.35,-81.44 1246.68,-62.85 1269,-44 1272.99,-40.63 1277.43,-37.6 1282.07,-34.87"/>
<polygon fill="#63b8ff" stroke="#63b8ff" points="1284,-37.81 1291.17,-30.01 1280.7,-31.63 1284,-37.81"/>
</a>
</g>
</g>
<!-- Node12&#45;&gt;Node8 -->
<g id="edge15_Node000012_Node000008" class="edge">
<title>Node12&#45;&gt;Node8</title>
<g id="a_edge15_Node000012_Node000008"><a xlink:title=" ">
<path fill="none" stroke="#63b8ff" d="M1086.27,-269.54C1074.27,-269.76 1061.67,-269.81 1049.4,-269.68"/>
<polygon fill="#63b8ff" stroke="#63b8ff" points="1049.25,-266.18 1039.2,-269.54 1049.15,-273.18 1049.25,-266.18"/>
</a>
</g>
</g>
<!-- Node13 -->
<g id="Node000013" class="node">
<title>Node13</title>
<g id="a_Node000013"><a xlink:href="classnlohmann_1_1json__uri.html#a21ba5d6a76804eabd867a2d03370c945" target="_top" xlink:title=" ">
<polygon fill="white" stroke="#666666" points="1391.5,-224 1281.5,-224 1281.5,-194 1391.5,-194 1391.5,-224"/>
<text text-anchor="start" x="1289.5" y="-212" font-family="Helvetica,sans-Serif" font-size="10.00">nlohmann::json_uri</text>
<text text-anchor="middle" x="1336.5" y="-201" font-family="Helvetica,sans-Serif" font-size="10.00">::fragment</text>
</a>
</g>
</g>
<!-- Node12&#45;&gt;Node13 -->
<g id="edge12_Node000012_Node000013" class="edge">
<title>Node12&#45;&gt;Node13</title>
<g id="a_edge12_Node000012_Node000013"><a xlink:title=" ">
<path fill="none" stroke="#63b8ff" d="M1221.7,-243.05C1239.24,-237.8 1258.07,-232.17 1275.25,-227.02"/>
<polygon fill="#63b8ff" stroke="#63b8ff" points="1276.58,-230.28 1285.16,-224.06 1274.57,-223.57 1276.58,-230.28"/>
</a>
</g>
</g>
<!-- Node14 -->
<g id="Node000014" class="node">
<title>Node14</title>
<g id="a_Node000014"><a xlink:href="classnlohmann_1_1json__schema_1_1root__schema.html#a4e3471b8e7c245a72c469b7695d2d327" target="_top" xlink:title=" ">
<polygon fill="white" stroke="#666666" points="1404,-283.5 1269,-283.5 1269,-242.5 1404,-242.5 1404,-283.5"/>
<text text-anchor="start" x="1277" y="-271.5" font-family="Helvetica,sans-Serif" font-size="10.00">nlohmann::json_schema</text>
<text text-anchor="start" x="1277" y="-260.5" font-family="Helvetica,sans-Serif" font-size="10.00">::root_schema::get_or</text>
<text text-anchor="middle" x="1336.5" y="-249.5" font-family="Helvetica,sans-Serif" font-size="10.00">_create_file</text>
</a>
</g>
</g>
<!-- Node12&#45;&gt;Node14 -->
<g id="edge13_Node000012_Node000014" class="edge">
<title>Node12&#45;&gt;Node14</title>
<g id="a_edge13_Node000012_Node000014"><a xlink:title=" ">
<path fill="none" stroke="#63b8ff" d="M1221.7,-263C1233.7,-263 1246.3,-263 1258.57,-263"/>
<polygon fill="#63b8ff" stroke="#63b8ff" points="1258.77,-266.5 1268.77,-263 1258.77,-259.5 1258.77,-266.5"/>
</a>
</g>
</g>
<!-- Node15 -->
<g id="Node000015" class="node">
<title>Node15</title>
<g id="a_Node000015"><a xlink:href="classnlohmann_1_1json__uri.html#a63674f908919cb2496e772e864be35de" target="_top" xlink:title=" ">
<polygon fill="white" stroke="#666666" points="1550,-221 1440,-221 1440,-191 1550,-191 1550,-221"/>
<text text-anchor="start" x="1448" y="-209" font-family="Helvetica,sans-Serif" font-size="10.00">nlohmann::json_uri</text>
<text text-anchor="middle" x="1495" y="-198" font-family="Helvetica,sans-Serif" font-size="10.00">::location</text>
</a>
</g>
</g>
<!-- Node12&#45;&gt;Node15 -->
<g id="edge14_Node000012_Node000015" class="edge">
<title>Node12&#45;&gt;Node15</title>
<g id="a_edge14_Node000012_Node000015"><a xlink:title=" ">
<path fill="none" stroke="#63b8ff" d="M1206.54,-283.51C1258.29,-300.87 1339.41,-319.11 1404,-293 1435.52,-280.26 1462.13,-250.6 1478.05,-229.46"/>
<polygon fill="#63b8ff" stroke="#63b8ff" points="1480.96,-231.41 1484.01,-221.27 1475.3,-227.29 1480.96,-231.41"/>
</a>
</g>
</g>
<!-- Node16 -->
<g id="Node000016" class="node">
<title>Node16</title>
<g id="a_Node000016"><a xlink:href="classnlohmann_1_1json__uri.html#ab01bdcb8bf65ee07703d1ccb69c9f3ee" target="_top" xlink:title=" ">
<polygon fill="white" stroke="#666666" points="1391.5,-370 1281.5,-370 1281.5,-340 1391.5,-340 1391.5,-370"/>
<text text-anchor="start" x="1289.5" y="-358" font-family="Helvetica,sans-Serif" font-size="10.00">nlohmann::json_uri</text>
<text text-anchor="middle" x="1336.5" y="-347" font-family="Helvetica,sans-Serif" font-size="10.00">::pointer</text>
</a>
</g>
</g>
<!-- Node12&#45;&gt;Node16 -->
<g id="edge16_Node000012_Node000016" class="edge">
<title>Node12&#45;&gt;Node16</title>
<g id="a_edge16_Node000012_Node000016"><a xlink:title=" ">
<path fill="none" stroke="#63b8ff" d="M1190.23,-283.59C1212.53,-296.34 1242.13,-312.75 1269,-326 1275.68,-329.29 1282.82,-332.61 1289.85,-335.77"/>
<polygon fill="#63b8ff" stroke="#63b8ff" points="1288.76,-339.11 1299.32,-339.96 1291.59,-332.71 1288.76,-339.11"/>
</a>
</g>
</g>
<!-- Node12&#45;&gt;Node17 -->
<g id="edge17_Node000012_Node000017" class="edge">
<title>Node12&#45;&gt;Node17</title>
<g id="a_edge17_Node000012_Node000017"><a xlink:title=" ">
<path fill="none" stroke="#63b8ff" d="M1221.54,-242.48C1225.7,-239.71 1229.59,-236.56 1233,-233 1267.71,-196.77 1234.15,-162.1 1269,-126 1270.41,-124.54 1271.92,-123.16 1273.5,-121.86"/>
<polygon fill="#63b8ff" stroke="#63b8ff" points="1275.74,-124.57 1281.97,-116.01 1271.76,-118.81 1275.74,-124.57"/>
</a>
</g>
</g>
<!-- Node17&#45;&gt;Node15 -->
<g id="edge18_Node000017_Node000015" class="edge">
<title>Node17&#45;&gt;Node15</title>
<g id="a_edge18_Node000017_Node000015"><a xlink:title=" ">
<path fill="none" stroke="#63b8ff" d="M1384.32,-116.1C1391.11,-119 1397.88,-122.3 1404,-126 1430.23,-141.83 1455.92,-165.76 1473.1,-183.32"/>
<polygon fill="#63b8ff" stroke="#63b8ff" points="1470.91,-186.1 1480.36,-190.89 1475.96,-181.25 1470.91,-186.1"/>
</a>
</g>
</g>
<!-- Node18&#45;&gt;Node13 -->
<g id="edge20_Node000018_Node000013" class="edge">
<title>Node18&#45;&gt;Node13</title>
<g id="a_edge20_Node000018_Node000013"><a xlink:title=" ">
<path fill="none" stroke="#63b8ff" d="M1221.7,-209C1237.85,-209 1255.07,-209 1271.11,-209"/>
<polygon fill="#63b8ff" stroke="#63b8ff" points="1271.45,-212.5 1281.45,-209 1271.45,-205.5 1271.45,-212.5"/>
</a>
</g>
</g>
<!-- Node18&#45;&gt;Node14 -->
<g id="edge21_Node000018_Node000014" class="edge">
<title>Node18&#45;&gt;Node14</title>
<g id="a_edge21_Node000018_Node000014"><a xlink:title=" ">
<path fill="none" stroke="#63b8ff" d="M1205.28,-224.04C1221.99,-229.04 1240.99,-234.73 1259.22,-240.18"/>
<polygon fill="#63b8ff" stroke="#63b8ff" points="1258.37,-243.58 1268.95,-243.09 1260.37,-236.87 1258.37,-243.58"/>
</a>
</g>
</g>
<!-- Node18&#45;&gt;Node15 -->
<g id="edge22_Node000018_Node000015" class="edge">
<title>Node18&#45;&gt;Node15</title>
<g id="a_edge22_Node000018_Node000015"><a xlink:title=" ">
<path fill="none" stroke="#63b8ff" d="M1179.07,-193.88C1195.75,-182.51 1217.64,-165.72 1233,-147 1255.19,-119.95 1239.14,-95.22 1269,-77 1320.22,-45.75 1350.8,-49.25 1404,-77 1445.98,-98.9 1472.38,-150.32 1485.05,-181.22"/>
<polygon fill="#63b8ff" stroke="#63b8ff" points="1481.91,-182.8 1488.82,-190.84 1488.43,-180.25 1481.91,-182.8"/>
</a>
</g>
</g>
<!-- Node18&#45;&gt;Node17 -->
<g id="edge24_Node000018_Node000017" class="edge">
<title>Node18&#45;&gt;Node17</title>
<g id="a_edge24_Node000018_Node000017"><a xlink:title=" ">
<path fill="none" stroke="#63b8ff" d="M1209.39,-193.85C1217.78,-190.12 1225.98,-185.56 1233,-180 1255.62,-162.1 1246.41,-143.94 1269,-126 1271.26,-124.2 1273.67,-122.52 1276.17,-120.96"/>
<polygon fill="#63b8ff" stroke="#63b8ff" points="1277.95,-123.97 1285,-116.06 1274.56,-117.85 1277.95,-123.97"/>
</a>
</g>
</g>
<!-- Node19 -->
<g id="Node000019" class="node">
<title>Node19</title>
<g id="a_Node000019"><a xlink:href="classanonymous__namespace_02json-validator_8cpp_03_1_1schema__ref.html#ae191a0c47357ebad5942fbab77135375" target="_top" xlink:title=" ">
<polygon fill="white" stroke="#666666" points="1404,-175.5 1269,-175.5 1269,-134.5 1404,-134.5 1404,-175.5"/>
<text text-anchor="start" x="1277" y="-163.5" font-family="Helvetica,sans-Serif" font-size="10.00">anonymous_namespace</text>
<text text-anchor="start" x="1277" y="-152.5" font-family="Helvetica,sans-Serif" font-size="10.00">{json&#45;validator::cpp}</text>
<text text-anchor="middle" x="1336.5" y="-141.5" font-family="Helvetica,sans-Serif" font-size="10.00">::schema_ref::set_target</text>
</a>
</g>
</g>
<!-- Node18&#45;&gt;Node19 -->
<g id="edge23_Node000018_Node000019" class="edge">
<title>Node18&#45;&gt;Node19</title>
<g id="a_edge23_Node000018_Node000019"><a xlink:title=" ">
<path fill="none" stroke="#63b8ff" d="M1205.28,-193.96C1221.99,-188.96 1240.99,-183.27 1259.22,-177.82"/>
<polygon fill="#63b8ff" stroke="#63b8ff" points="1260.37,-181.13 1268.95,-174.91 1258.37,-174.42 1260.37,-181.13"/>
</a>
</g>
</g>
<!-- Node20&#45;&gt;Node8 -->
<g id="edge30_Node000020_Node000008" class="edge">
<title>Node20&#45;&gt;Node8</title>
<g id="a_edge30_Node000020_Node000008"><a xlink:title=" ">
<path fill="none" stroke="#63b8ff" d="M1087.75,-317.4C1064.51,-308.19 1038.87,-297.35 1017.68,-287.71"/>
<polygon fill="#63b8ff" stroke="#63b8ff" points="1019.14,-284.53 1008.59,-283.52 1016.21,-290.89 1019.14,-284.53"/>
</a>
</g>
</g>
<!-- Node20&#45;&gt;Node9 -->
<g id="edge26_Node000020_Node000009" class="edge">
<title>Node20&#45;&gt;Node9</title>
<g id="a_edge26_Node000020_Node000009"><a xlink:title=" ">
<path fill="none" stroke="#63b8ff" d="M1183.72,-358.53C1206.3,-374.2 1238.87,-395.79 1269,-412 1275.33,-415.4 1282.14,-418.73 1288.91,-421.85"/>
<polygon fill="#63b8ff" stroke="#63b8ff" points="1287.5,-425.05 1298.05,-425.95 1290.36,-418.67 1287.5,-425.05"/>
</a>
</g>
</g>
<!-- Node20&#45;&gt;Node14 -->
<g id="edge27_Node000020_Node000014" class="edge">
<title>Node20&#45;&gt;Node14</title>
<g id="a_edge27_Node000020_Node000014"><a xlink:title=" ">
<path fill="none" stroke="#63b8ff" d="M1204.8,-317.31C1226.99,-308.09 1253.3,-297.15 1276.48,-287.52"/>
<polygon fill="#63b8ff" stroke="#63b8ff" points="1277.97,-290.69 1285.86,-283.63 1275.28,-284.23 1277.97,-290.69"/>
</a>
</g>
</g>
<!-- Node20&#45;&gt;Node15 -->
<g id="edge29_Node000020_Node000015" class="edge">
<title>Node20&#45;&gt;Node15</title>
<g id="a_edge29_Node000020_Node000015"><a xlink:title=" ">
<path fill="none" stroke="#63b8ff" d="M1192.13,-358.58C1243.52,-384.04 1337.52,-419.35 1404,-379 1457.55,-346.49 1480.71,-270.6 1489.43,-231.02"/>
<polygon fill="#63b8ff" stroke="#63b8ff" points="1492.88,-231.61 1491.48,-221.11 1486.03,-230.19 1492.88,-231.61"/>
</a>
</g>
</g>
<!-- Node20&#45;&gt;Node16 -->
<g id="edge31_Node000020_Node000016" class="edge">
<title>Node20&#45;&gt;Node16</title>
<g id="a_edge31_Node000020_Node000016"><a xlink:title=" ">
<path fill="none" stroke="#63b8ff" d="M1221.7,-344.28C1237.85,-345.8 1255.07,-347.43 1271.11,-348.94"/>
<polygon fill="#63b8ff" stroke="#63b8ff" points="1271.17,-352.46 1281.45,-349.91 1271.83,-345.49 1271.17,-352.46"/>
</a>
</g>
</g>
<!-- Node20&#45;&gt;Node20 -->
<g id="edge28_Node000020_Node000020" class="edge">
<title>Node20&#45;&gt;Node20</title>
<g id="a_edge28_Node000020_Node000020"><a xlink:title=" ">
<path fill="none" stroke="#63b8ff" d="M1120.55,-358.6C1116.9,-368.15 1128.05,-376.5 1154,-376.5 1170.22,-376.5 1180.66,-373.24 1185.31,-368.46"/>
<polygon fill="#63b8ff" stroke="#63b8ff" points="1188.75,-369.11 1187.45,-358.6 1181.91,-367.63 1188.75,-369.11"/>
</a>
</g>
</g>
</g>
</svg>

<g id="navigator" transform="translate(0 0)" fill="#404254">
  <rect fill="#f2f5e9" fill-opacity="0.5" stroke="#606060" stroke-width=".5" x="0" y="0" width="60" height="60"/>
  <use id="zoomplus" xlink:href="#zoomPlus" x="17" y="9" onmousedown="handleZoom(evt,'in')"/>
  <use id="zoomminus" xlink:href="#zoomMin" x="42" y="9" onmousedown="handleZoom(evt,'out')"/>
  <use id="reset" xlink:href="#resetDef" x="30" y="36" onmousedown="handleReset()"/>
   <use id="arrowup" xlink:href="#arrowUp" x="0" y="0" onmousedown="handlePan(0,-1)"/>
  <use id="arrowright" xlink:href="#arrowRight" x="0" y="0" onmousedown="handlePan(1,0)"/>
  <use id="arrowdown" xlink:href="#arrowDown" x="0" y="0" onmousedown="handlePan(0,1)"/>
  <use id="arrowleft" xlink:href="#arrowLeft" x="0" y="0" onmousedown="handlePan(-1,0)"/>
</g>
<svg viewBox="0 0 15 15" width="100%" height="30px" preserveAspectRatio="xMaxYMin meet">
 <g id="arrow_out" transform="scale(0.3 0.3)">
  <a xlink:href="classmqtt_1_1mqttbroker_1_1SocketContextFactory_a84a300c6ea4e8fc1e0370f5460a64e9a_cgraph_org.svg" target="_base">
   <rect id="button" ry="5" rx="5" y="6" x="6" height="38" width="38"
        fill="#f2f5e9" fill-opacity="0.5" stroke="#606060" stroke-width="1.0"/>
   <path id="arrow"
     d="M 11.500037,31.436501 C 11.940474,20.09759 22.043105,11.32322 32.158766,21.979434 L 37.068811,17.246167 C 37.068811,17.246167 37.088388,32 37.088388,32 L 22.160133,31.978069 C 22.160133,31.978069 26.997745,27.140456 26.997745,27.140456 C 18.528582,18.264221 13.291696,25.230495 11.500037,31.436501 z"
     style="fill:#404040;"/>
  </a>
 </g>
</svg>

<style type='text/css'>
<![CDATA[
[data-mouse-over-selected='false'] { opacity: 0.7; }
[data-mouse-over-selected='true']  { opacity: 1.0; }
]]>
</style>
<script type="application/ecmascript"><![CDATA[
document.addEventListener('DOMContentLoaded', (event) => {
  highlightEdges();
  highlightAdjacentNodes();
});
]]></script>
</svg>
