<?xml version="1.0" encoding="UTF-8" standalone="no"?>
<!DOCTYPE svg PUBLIC "-//W3C//DTD SVG 1.1//EN"
 "http://www.w3.org/Graphics/SVG/1.1/DTD/svg11.dtd">
<!-- Generated by graphviz version 2.42.4 (0)
 -->
<!-- Title: mqtt::bridge::lib::Bridge Pages: 1 -->
<svg width="201pt" height="182pt"
 viewBox="0.00 0.00 201.00 182.00" xmlns="http://www.w3.org/2000/svg" xmlns:xlink="http://www.w3.org/1999/xlink">
<g id="graph0" class="graph" transform="scale(1 1) rotate(0) translate(4 178)">
<title>mqtt::bridge::lib::Bridge</title>
<!-- Node1 -->
<g id="Node000001" class="node">
<title>Node1</title>
<g id="a_Node000001"><a xlink:title=" ">
<polygon fill="#999999" stroke="transparent" points="162,-30 68,-30 68,0 162,0 162,-30"/>
<text text-anchor="start" x="72.5" y="-18" font-family="Helvetica,sans-Serif" font-size="10.00">mqtt::bridge::lib::</text>
<text text-anchor="start" x="99" y="-7" font-family="Helvetica,sans-Serif" font-size="10.00">Bridge</text>
<polygon fill="none" stroke="#666666" points="68,0 68,-30 162,-30 162,0 68,0"/>
</a>
</g>
</g>
<!-- Node2 -->
<g id="Node000002" class="node">
<title>Node2</title>
<g id="a_Node000002"><a xlink:title=" ">
<polygon fill="white" stroke="transparent" points="77,-101.5 19,-101.5 19,-82.5 77,-82.5 77,-101.5"/>
<text text-anchor="start" x="23.5" y="-89" font-family="Helvetica,sans-Serif" font-size="10.00">std::string</text>
<polygon fill="none" stroke="#666666" points="19,-82.5 19,-101.5 77,-101.5 77,-82.5 19,-82.5"/>
</a>
</g>
</g>
<!-- Node2&#45;&gt;Node1 -->
<g id="edge1_Node000001_Node000002" class="edge">
<title>Node2&#45;&gt;Node1</title>
<g id="a_edge1_Node000001_Node000002"><a xlink:title=" ">
<path fill="none" stroke="#63b8ff" d="M55.69,-82.4C65.05,-71.92 81.23,-53.8 94.33,-39.14"/>
<polygon fill="none" stroke="#63b8ff" points="94.4,-39.06 95.41,-31.92 102.39,-30.11 101.38,-37.25 94.4,-39.06"/>
</a>
</g>
<text text-anchor="middle" x="103.5" y="-51" font-family="Helvetica,sans-Serif" font-size="10.00" fill="grey"> &#45;name</text>
</g>
<!-- Node3 -->
<g id="Node000003" class="node">
<title>Node3</title>
<g id="a_Node000003"><a xlink:title=" ">
<polygon fill="white" stroke="transparent" points="96,-174 0,-174 0,-144 96,-144 96,-174"/>
<text text-anchor="start" x="4" y="-162" font-family="Helvetica,sans-Serif" font-size="10.00">std::basic_string&lt;</text>
<text text-anchor="start" x="29.5" y="-151" font-family="Helvetica,sans-Serif" font-size="10.00"> Char &gt;</text>
<polygon fill="none" stroke="#666666" points="0,-144 0,-174 96,-174 96,-144 0,-144"/>
</a>
</g>
</g>
<!-- Node3&#45;&gt;Node2 -->
<g id="edge2_Node000002_Node000003" class="edge">
<title>Node3&#45;&gt;Node2</title>
<g id="a_edge2_Node000002_Node000003"><a xlink:title=" ">
<path fill="none" stroke="#63b8ff" d="M48,-133.75C48,-122.52 48,-109.88 48,-101.69"/>
<polygon fill="none" stroke="#63b8ff" points="44.5,-133.9 48,-143.9 51.5,-133.9 44.5,-133.9"/>
</a>
</g>
</g>
<!-- Node4 -->
<g id="Node000004" class="node">
<title>Node4</title>
<g id="a_Node000004"><a xlink:title=" ">
<polygon fill="white" stroke="transparent" points="193,-107 95,-107 95,-77 193,-77 193,-107"/>
<text text-anchor="start" x="99" y="-95" font-family="Helvetica,sans-Serif" font-size="10.00">std::list&lt; iot::mqtt</text>
<text text-anchor="start" x="119.5" y="-84" font-family="Helvetica,sans-Serif" font-size="10.00">::Mqtt * &gt;</text>
<polygon fill="none" stroke="#666666" points="95,-77 95,-107 193,-107 193,-77 95,-77"/>
</a>
</g>
</g>
<!-- Node4&#45;&gt;Node1 -->
<g id="edge3_Node000001_Node000004" class="edge">
<title>Node4&#45;&gt;Node1</title>
<g id="a_edge3_Node000001_Node000004"><a xlink:title=" ">
<path fill="none" stroke="#63b8ff" d="M138.55,-76.89C134.7,-66.94 129.43,-53.33 124.86,-41.5"/>
<polygon fill="none" stroke="#63b8ff" points="124.76,-41.24 118.86,-37.08 120.43,-30.04 126.32,-34.2 124.76,-41.24"/>
</a>
</g>
<text text-anchor="middle" x="155" y="-51" font-family="Helvetica,sans-Serif" font-size="10.00" fill="grey"> &#45;mqttList</text>
</g>
</g>
</svg>
