<?xml version="1.0" encoding="UTF-8" standalone="no"?>
<!DOCTYPE svg PUBLIC "-//W3C//DTD SVG 1.1//EN"
 "http://www.w3.org/Graphics/SVG/1.1/DTD/svg11.dtd">
<!-- Generated by graphviz version 14.1.2 (0)
 -->
<!-- Title: mqtt::mqttcli::lib::ConfigSubscribe Pages: 1 -->
<svg width="230pt" height="204pt"
 viewBox="0.00 0.00 230.00 204.00" xmlns="http://www.w3.org/2000/svg" xmlns:xlink="http://www.w3.org/1999/xlink">
<g id="graph0" class="graph" transform="scale(1 1) rotate(0) translate(4 200.25)">
<title>mqtt::mqttcli::lib::ConfigSubscribe</title>
<!-- Node1 -->
<g id="Node000001" class="node">
<title>Node1</title>
<g id="a_Node000001"><a xlink:title=" ">
<polygon fill="#999999" stroke="none" points="134,-33.5 41.25,-33.5 41.25,0 134,0 134,-33.5"/>
<text xml:space="preserve" text-anchor="start" x="45.25" y="-20" font-family="Helvetica,sans-Serif" font-size="10.00">mqtt::mqttcli::lib</text>
<text xml:space="preserve" text-anchor="start" x="45.25" y="-7.25" font-family="Helvetica,sans-Serif" font-size="10.00">::ConfigSubscribe</text>
<polygon fill="none" stroke="#666666" points="41.25,0 41.25,-33.5 134,-33.5 134,0 41.25,0"/>
</a>
</g>
</g>
<!-- Node2 -->
<g id="Node000002" class="node">
<title>Node2</title>
<g id="a_Node000002"><a xlink:title=" ">
<polygon fill="white" stroke="none" points="103.25,-125.75 0,-125.75 0,-105 103.25,-105 103.25,-125.75"/>
<text xml:space="preserve" text-anchor="start" x="4" y="-112.25" font-family="Helvetica,sans-Serif" font-size="10.00">utils::SubCommand</text>
<polygon fill="none" stroke="#666666" points="0,-105 0,-125.75 103.25,-125.75 103.25,-105 0,-105"/>
</a>
</g>
</g>
<!-- Node2&#45;&gt;Node1 -->
<g id="edge1_Node000001_Node000002" class="edge">
<title>Node2&#45;&gt;Node1</title>
<g id="a_edge1_Node000001_Node000002"><a xlink:title=" ">
<path fill="none" stroke="#63b8ff" d="M59.08,-94.36C65.81,-76.3 75.58,-50.09 81.76,-33.49"/>
<polygon fill="none" stroke="#63b8ff" points="55.82,-93.1 55.61,-103.69 62.38,-95.54 55.82,-93.1"/>
</a>
</g>
</g>
<!-- Node3 -->
<g id="Node000003" class="node">
<title>Node3</title>
<g id="a_Node000003"><a xlink:title=" ">
<polygon fill="white" stroke="none" points="206.25,-125.75 121,-125.75 121,-105 206.25,-105 206.25,-125.75"/>
<text xml:space="preserve" text-anchor="start" x="125" y="-112.25" font-family="Helvetica,sans-Serif" font-size="10.00">std::string_view</text>
<polygon fill="none" stroke="#666666" points="121,-105 121,-125.75 206.25,-125.75 206.25,-105 121,-105"/>
</a>
</g>
</g>
<!-- Node3&#45;&gt;Node1 -->
<g id="edge2_Node000001_Node000003" class="edge">
<title>Node3&#45;&gt;Node1</title>
<g id="a_edge2_Node000001_Node000003"><a xlink:title=" ">
<path fill="none" stroke="#63b8ff" d="M156.34,-105.11C145.32,-91.1 124,-63.99 108.01,-43.67"/>
<polygon fill="none" stroke="#63b8ff" points="107.98,-43.63 101.13,-41.39 100.56,-34.2 107.41,-36.44 107.98,-43.63"/>
</a>
</g>
<text xml:space="preserve" text-anchor="start" x="144.17" y="-74.5" font-family="Helvetica,sans-Serif" font-size="10.00" fill="grey">+DESCRIPTION</text>
<text xml:space="preserve" text-anchor="start" x="144.17" y="-57.75" font-family="Helvetica,sans-Serif" font-size="10.00" fill="grey">+NAME</text>
</g>
<!-- Node4 -->
<g id="Node000004" class="node">
<title>Node4</title>
<g id="a_Node000004"><a xlink:title=" ">
<polygon fill="white" stroke="none" points="221.62,-196.25 105.62,-196.25 105.62,-162.75 221.62,-162.75 221.62,-196.25"/>
<text xml:space="preserve" text-anchor="start" x="109.62" y="-182.75" font-family="Helvetica,sans-Serif" font-size="10.00">std::basic_string_view</text>
<text xml:space="preserve" text-anchor="start" x="141.12" y="-170" font-family="Helvetica,sans-Serif" font-size="10.00">&lt; Char &gt;</text>
<polygon fill="none" stroke="#666666" points="105.62,-162.75 105.62,-196.25 221.62,-196.25 221.62,-162.75 105.62,-162.75"/>
</a>
</g>
</g>
<!-- Node4&#45;&gt;Node3 -->
<g id="edge3_Node000003_Node000004" class="edge">
<title>Node4&#45;&gt;Node3</title>
<g id="a_edge3_Node000003_Node000004"><a xlink:title=" ">
<path fill="none" stroke="#63b8ff" d="M163.62,-151.54C163.62,-142.21 163.62,-132.38 163.62,-125.49"/>
<polygon fill="none" stroke="#63b8ff" points="160.13,-151.31 163.63,-161.31 167.13,-151.31 160.13,-151.31"/>
</a>
</g>
</g>
</g>
</svg>
