<?xml version="1.0" encoding="UTF-8" standalone="no"?>
<!DOCTYPE svg PUBLIC "-//W3C//DTD SVG 1.1//EN"
 "http://www.w3.org/Graphics/SVG/1.1/DTD/svg11.dtd">
<!-- Generated by graphviz version 14.1.2 (0)
 -->
<!-- Title: mqtt::bridge::lib::SSEDistributor::EventReceiver::getResponse Pages: 1 -->
<svg width="1337pt" height="690pt"
 viewBox="0.00 0.00 1337.00 690.00" xmlns="http://www.w3.org/2000/svg" xmlns:xlink="http://www.w3.org/1999/xlink">
<g id="graph0" class="graph" transform="scale(1 1) rotate(0) translate(4 685.5)">
<title>mqtt::bridge::lib::SSEDistributor::EventReceiver::getResponse</title>
<!-- Node1 -->
<g id="Node000001" class="node">
<title>Node1</title>
<g id="a_Node000001"><a xlink:title=" ">
<polygon fill="#999999" stroke="#666666" points="1329.25,-366.88 1167,-366.88 1167,-320.62 1329.25,-320.62 1329.25,-366.88"/>
<text xml:space="preserve" text-anchor="start" x="1175" y="-353.38" font-family="Helvetica,sans-Serif" font-size="10.00">mqtt::bridge::lib::</text>
<text xml:space="preserve" text-anchor="start" x="1175" y="-340.62" font-family="Helvetica,sans-Serif" font-size="10.00">SSEDistributor::EventReceiver</text>
<text xml:space="preserve" text-anchor="middle" x="1248.12" y="-327.88" font-family="Helvetica,sans-Serif" font-size="10.00">::getResponse</text>
</a>
</g>
</g>
<!-- Node2 -->
<g id="Node000002" class="node">
<title>Node2</title>
<g id="a_Node000002"><a xlink:href="classmqtt_1_1bridge_1_1lib_1_1SSEDistributor.html#a33c28a238f0853d09effb76ed6c49d45" target="_top" xlink:title=" ">
<polygon fill="white" stroke="#666666" points="1131,-360.5 988.25,-360.5 988.25,-327 1131,-327 1131,-360.5"/>
<text xml:space="preserve" text-anchor="start" x="996.25" y="-347" font-family="Helvetica,sans-Serif" font-size="10.00">mqtt::bridge::lib::</text>
<text xml:space="preserve" text-anchor="middle" x="1059.62" y="-334.25" font-family="Helvetica,sans-Serif" font-size="10.00">SSEDistributor::sendEvent</text>
</a>
</g>
</g>
<!-- Node1&#45;&gt;Node2 -->
<g id="edge1_Node000001_Node000002" class="edge">
<title>Node1&#45;&gt;Node2</title>
<g id="a_edge1_Node000001_Node000002"><a xlink:title=" ">
<path fill="none" stroke="#63b8ff" d="M1155.35,-343.75C1147.3,-343.75 1139.25,-343.75 1131.42,-343.75"/>
<polygon fill="#63b8ff" stroke="#63b8ff" points="1155.17,-347.25 1165.17,-343.75 1155.17,-340.25 1155.17,-347.25"/>
</a>
</g>
</g>
<!-- Node3 -->
<g id="Node000003" class="node">
<title>Node3</title>
<g id="a_Node000003"><a xlink:href="classmqtt_1_1bridge_1_1lib_1_1SSEDistributor.html#ae352efe457441f0669d10132f46b514e" target="_top" xlink:title=" ">
<polygon fill="white" stroke="#666666" points="952.25,-360.5 789.25,-360.5 789.25,-327 952.25,-327 952.25,-360.5"/>
<text xml:space="preserve" text-anchor="start" x="797.25" y="-347" font-family="Helvetica,sans-Serif" font-size="10.00">mqtt::bridge::lib::</text>
<text xml:space="preserve" text-anchor="middle" x="870.75" y="-334.25" font-family="Helvetica,sans-Serif" font-size="10.00">SSEDistributor::sendJsonEvent</text>
</a>
</g>
</g>
<!-- Node2&#45;&gt;Node3 -->
<g id="edge2_Node000002_Node000003" class="edge">
<title>Node2&#45;&gt;Node3</title>
<g id="a_edge2_Node000002_Node000003"><a xlink:title=" ">
<path fill="none" stroke="#63b8ff" d="M976.72,-343.75C968.69,-343.75 960.55,-343.75 952.53,-343.75"/>
<polygon fill="#63b8ff" stroke="#63b8ff" points="976.46,-347.25 986.46,-343.75 976.46,-340.25 976.46,-347.25"/>
</a>
</g>
</g>
<!-- Node4 -->
<g id="Node000004" class="node">
<title>Node4</title>
<g id="a_Node000004"><a xlink:href="classmqtt_1_1bridge_1_1lib_1_1SSEDistributor.html#a92417b5c17494511d8e64c8f8c122ebf" target="_top" xlink:title=" ">
<polygon fill="white" stroke="#666666" points="740.12,-681.5 574.88,-681.5 574.88,-648 740.12,-648 740.12,-681.5"/>
<text xml:space="preserve" text-anchor="start" x="582.88" y="-668" font-family="Helvetica,sans-Serif" font-size="10.00">mqtt::bridge::lib::</text>
<text xml:space="preserve" text-anchor="middle" x="657.5" y="-655.25" font-family="Helvetica,sans-Serif" font-size="10.00">SSEDistributor::bridgeDisabled</text>
</a>
</g>
</g>
<!-- Node3&#45;&gt;Node4 -->
<g id="edge3_Node000003_Node000004" class="edge">
<title>Node3&#45;&gt;Node4</title>
<g id="a_edge3_Node000003_Node000004"><a xlink:title=" ">
<path fill="none" stroke="#63b8ff" d="M866.35,-372.05C857.94,-429.61 830.9,-561.05 753.25,-633.75 747.31,-639.31 740.36,-643.87 732.97,-647.62"/>
<polygon fill="#63b8ff" stroke="#63b8ff" points="869.78,-372.81 867.67,-362.43 862.84,-371.86 869.78,-372.81"/>
</a>
</g>
</g>
<!-- Node5 -->
<g id="Node000005" class="node">
<title>Node5</title>
<g id="a_Node000005"><a xlink:href="classmqtt_1_1bridge_1_1lib_1_1SSEDistributor.html#a92c4668cbdeebc4aecf11bbfed1f8228" target="_top" xlink:title=" ">
<polygon fill="white" stroke="#666666" points="525.75,-364.5 362.75,-364.5 362.75,-331 525.75,-331 525.75,-364.5"/>
<text xml:space="preserve" text-anchor="start" x="370.75" y="-351" font-family="Helvetica,sans-Serif" font-size="10.00">mqtt::bridge::lib::</text>
<text xml:space="preserve" text-anchor="middle" x="444.25" y="-338.25" font-family="Helvetica,sans-Serif" font-size="10.00">SSEDistributor::bridgesStarted</text>
</a>
</g>
</g>
<!-- Node3&#45;&gt;Node5 -->
<g id="edge4_Node000003_Node000005" class="edge">
<title>Node3&#45;&gt;Node5</title>
<g id="a_edge4_Node000003_Node000005"><a xlink:title=" ">
<path fill="none" stroke="#63b8ff" d="M777.81,-340.95C716.58,-339.55 634.33,-338.57 561.75,-340.75 550.21,-341.1 538.03,-341.64 526.07,-342.26"/>
<polygon fill="#63b8ff" stroke="#63b8ff" points="777.4,-344.44 787.48,-341.18 777.57,-337.44 777.4,-344.44"/>
</a>
</g>
</g>
<!-- Node8 -->
<g id="Node000008" class="node">
<title>Node8</title>
<g id="a_Node000008"><a xlink:href="classmqtt_1_1bridge_1_1lib_1_1SSEDistributor.html#a2b97b3e1b7139a536dc1d9a7192bb9de" target="_top" xlink:title=" ">
<polygon fill="white" stroke="#666666" points="740.5,-591.5 574.5,-591.5 574.5,-558 740.5,-558 740.5,-591.5"/>
<text xml:space="preserve" text-anchor="start" x="582.5" y="-578" font-family="Helvetica,sans-Serif" font-size="10.00">mqtt::bridge::lib::</text>
<text xml:space="preserve" text-anchor="middle" x="657.5" y="-565.25" font-family="Helvetica,sans-Serif" font-size="10.00">SSEDistributor::bridgesStarting</text>
</a>
</g>
</g>
<!-- Node3&#45;&gt;Node8 -->
<g id="edge7_Node000003_Node000008" class="edge">
<title>Node3&#45;&gt;Node8</title>
<g id="a_edge7_Node000003_Node000008"><a xlink:title=" ">
<path fill="none" stroke="#63b8ff" d="M861.63,-371.6C847.24,-415.93 813.03,-502.27 753.25,-548.75 748.94,-552.1 744.23,-555.02 739.28,-557.56"/>
<polygon fill="#63b8ff" stroke="#63b8ff" points="864.91,-372.82 864.56,-362.23 858.23,-370.73 864.91,-372.82"/>
</a>
</g>
</g>
<!-- Node13 -->
<g id="Node000013" class="node">
<title>Node13</title>
<g id="a_Node000013"><a xlink:href="classmqtt_1_1bridge_1_1lib_1_1SSEDistributor.html#a6163c6302162edf63fbfb851cf995bb0" target="_top" xlink:title=" ">
<polygon fill="white" stroke="#666666" points="326.38,-636.5 158.88,-636.5 158.88,-603 326.38,-603 326.38,-636.5"/>
<text xml:space="preserve" text-anchor="start" x="166.88" y="-623" font-family="Helvetica,sans-Serif" font-size="10.00">mqtt::bridge::lib::</text>
<text xml:space="preserve" text-anchor="middle" x="242.62" y="-610.25" font-family="Helvetica,sans-Serif" font-size="10.00">SSEDistributor::bridgesStopped</text>
</a>
</g>
</g>
<!-- Node3&#45;&gt;Node13 -->
<g id="edge12_Node000003_Node000013" class="edge">
<title>Node3&#45;&gt;Node13</title>
<g id="a_edge12_Node000003_Node000013"><a xlink:title=" ">
<path fill="none" stroke="#63b8ff" d="M866.48,-372.09C858.46,-427.12 832.28,-547.69 753.25,-600.75 685.81,-646.03 453.2,-636.16 326.87,-626.94"/>
<polygon fill="#63b8ff" stroke="#63b8ff" points="869.94,-372.66 867.8,-362.29 863,-371.73 869.94,-372.66"/>
</a>
</g>
</g>
<!-- Node14 -->
<g id="Node000014" class="node">
<title>Node14</title>
<g id="a_Node000014"><a xlink:href="classmqtt_1_1bridge_1_1lib_1_1SSEDistributor.html#a15b52ed6fe4ca6d0b94d15ec3a4cacb8" target="_top" xlink:title=" ">
<polygon fill="white" stroke="#666666" points="742.75,-435.5 572.25,-435.5 572.25,-402 742.75,-402 742.75,-435.5"/>
<text xml:space="preserve" text-anchor="start" x="580.25" y="-422" font-family="Helvetica,sans-Serif" font-size="10.00">mqtt::bridge::lib::</text>
<text xml:space="preserve" text-anchor="middle" x="657.5" y="-409.25" font-family="Helvetica,sans-Serif" font-size="10.00">SSEDistributor::bridgesStopping</text>
</a>
</g>
</g>
<!-- Node3&#45;&gt;Node14 -->
<g id="edge14_Node000003_Node000014" class="edge">
<title>Node3&#45;&gt;Node14</title>
<g id="a_edge14_Node000003_Node000014"><a xlink:title=" ">
<path fill="none" stroke="#63b8ff" d="M821.95,-365.51C801.09,-374.57 776.21,-384.81 753.25,-392.75 744.38,-395.82 734.95,-398.77 725.61,-401.51"/>
<polygon fill="#63b8ff" stroke="#63b8ff" points="823.32,-368.73 831.07,-361.51 820.51,-362.32 823.32,-368.73"/>
</a>
</g>
</g>
<!-- Node16 -->
<g id="Node000016" class="node">
<title>Node16</title>
<g id="a_Node000016"><a xlink:href="classmqtt_1_1bridge_1_1lib_1_1SSEDistributor.html#ab3ae5e9780ecb99eb541615b86c28bce" target="_top" xlink:title=" ">
<polygon fill="white" stroke="#666666" points="736.38,-539.5 578.62,-539.5 578.62,-506 736.38,-506 736.38,-539.5"/>
<text xml:space="preserve" text-anchor="start" x="586.62" y="-526" font-family="Helvetica,sans-Serif" font-size="10.00">mqtt::bridge::lib::</text>
<text xml:space="preserve" text-anchor="middle" x="657.5" y="-513.25" font-family="Helvetica,sans-Serif" font-size="10.00">SSEDistributor::bridgeStarted</text>
</a>
</g>
</g>
<!-- Node3&#45;&gt;Node16 -->
<g id="edge16_Node000003_Node000016" class="edge">
<title>Node3&#45;&gt;Node16</title>
<g id="a_edge16_Node000003_Node000016"><a xlink:title=" ">
<path fill="none" stroke="#63b8ff" d="M856.37,-370.78C837.91,-405.24 801.39,-464.24 753.25,-496.75 748.02,-500.28 742.32,-503.34 736.4,-505.98"/>
<polygon fill="#63b8ff" stroke="#63b8ff" points="859.28,-372.76 860.81,-362.27 853.08,-369.52 859.28,-372.76"/>
</a>
</g>
</g>
<!-- Node18 -->
<g id="Node000018" class="node">
<title>Node18</title>
<g id="a_Node000018"><a xlink:href="classmqtt_1_1bridge_1_1lib_1_1SSEDistributor.html#aa3ec6c12c179ba7a9dcdf08da6e6e353" target="_top" xlink:title=" ">
<polygon fill="white" stroke="#666666" points="737.88,-383.5 577.12,-383.5 577.12,-350 737.88,-350 737.88,-383.5"/>
<text xml:space="preserve" text-anchor="start" x="585.12" y="-370" font-family="Helvetica,sans-Serif" font-size="10.00">mqtt::bridge::lib::</text>
<text xml:space="preserve" text-anchor="middle" x="657.5" y="-357.25" font-family="Helvetica,sans-Serif" font-size="10.00">SSEDistributor::bridgeStarting</text>
</a>
</g>
</g>
<!-- Node3&#45;&gt;Node18 -->
<g id="edge19_Node000003_Node000018" class="edge">
<title>Node3&#45;&gt;Node18</title>
<g id="a_edge19_Node000003_Node000018"><a xlink:title=" ">
<path fill="none" stroke="#63b8ff" d="M777.55,-353.79C764.43,-355.22 751.03,-356.68 738.18,-358.08"/>
<polygon fill="#63b8ff" stroke="#63b8ff" points="777.91,-357.27 787.48,-352.71 777.16,-350.31 777.91,-357.27"/>
</a>
</g>
</g>
<!-- Node19 -->
<g id="Node000019" class="node">
<title>Node19</title>
<g id="a_Node000019"><a xlink:href="classmqtt_1_1bridge_1_1lib_1_1SSEDistributor.html#a5b12dc07a03ac23f4cb046b00a06e0c7" target="_top" xlink:title=" ">
<polygon fill="white" stroke="#666666" points="738.62,-85.5 576.38,-85.5 576.38,-52 738.62,-52 738.62,-85.5"/>
<text xml:space="preserve" text-anchor="start" x="584.38" y="-72" font-family="Helvetica,sans-Serif" font-size="10.00">mqtt::bridge::lib::</text>
<text xml:space="preserve" text-anchor="middle" x="657.5" y="-59.25" font-family="Helvetica,sans-Serif" font-size="10.00">SSEDistributor::bridgeStopped</text>
</a>
</g>
</g>
<!-- Node3&#45;&gt;Node19 -->
<g id="edge20_Node000003_Node000019" class="edge">
<title>Node3&#45;&gt;Node19</title>
<g id="a_edge20_Node000003_Node000019"><a xlink:title=" ">
<path fill="none" stroke="#63b8ff" d="M864.61,-315.58C853.68,-263.86 823.15,-153.69 753.25,-94.75 748.82,-91.01 743.89,-87.81 738.68,-85.06"/>
<polygon fill="#63b8ff" stroke="#63b8ff" points="861.12,-315.95 866.52,-325.06 867.98,-314.57 861.12,-315.95"/>
</a>
</g>
</g>
<!-- Node23 -->
<g id="Node000023" class="node">
<title>Node23</title>
<g id="a_Node000023"><a xlink:href="classmqtt_1_1bridge_1_1lib_1_1SSEDistributor.html#aed21f539876af580bab05eb9d131256f" target="_top" xlink:title=" ">
<polygon fill="white" stroke="#666666" points="740.12,-293.5 574.88,-293.5 574.88,-260 740.12,-260 740.12,-293.5"/>
<text xml:space="preserve" text-anchor="start" x="582.88" y="-280" font-family="Helvetica,sans-Serif" font-size="10.00">mqtt::bridge::lib::</text>
<text xml:space="preserve" text-anchor="middle" x="657.5" y="-267.25" font-family="Helvetica,sans-Serif" font-size="10.00">SSEDistributor::bridgeStopping</text>
</a>
</g>
</g>
<!-- Node3&#45;&gt;Node23 -->
<g id="edge24_Node000003_Node000023" class="edge">
<title>Node3&#45;&gt;Node23</title>
<g id="a_edge24_Node000003_Node000023"><a xlink:title=" ">
<path fill="none" stroke="#63b8ff" d="M805,-323.21C775.51,-313.86 740.98,-302.91 712.85,-293.99"/>
<polygon fill="#63b8ff" stroke="#63b8ff" points="803.59,-326.44 814.18,-326.13 805.71,-319.77 803.59,-326.44"/>
</a>
</g>
</g>
<!-- Node24 -->
<g id="Node000024" class="node">
<title>Node24</title>
<g id="a_Node000024"><a xlink:href="classmqtt_1_1bridge_1_1lib_1_1SSEDistributor.html#a65e615fcf8a78daab16cd91f5c219374" target="_top" xlink:title=" ">
<polygon fill="white" stroke="#666666" points="744.62,-487.5 570.38,-487.5 570.38,-454 744.62,-454 744.62,-487.5"/>
<text xml:space="preserve" text-anchor="start" x="578.38" y="-474" font-family="Helvetica,sans-Serif" font-size="10.00">mqtt::bridge::lib::</text>
<text xml:space="preserve" text-anchor="middle" x="657.5" y="-461.25" font-family="Helvetica,sans-Serif" font-size="10.00">SSEDistributor::brokerConnected</text>
</a>
</g>
</g>
<!-- Node3&#45;&gt;Node24 -->
<g id="edge25_Node000003_Node000024" class="edge">
<title>Node3&#45;&gt;Node24</title>
<g id="a_edge25_Node000003_Node000024"><a xlink:title=" ">
<path fill="none" stroke="#63b8ff" d="M847.19,-368.9C825.31,-391.83 790.09,-425.05 753.25,-444.75 747.08,-448.05 740.46,-450.96 733.69,-453.52"/>
<polygon fill="#63b8ff" stroke="#63b8ff" points="849.59,-371.46 853.87,-361.77 844.48,-366.68 849.59,-371.46"/>
</a>
</g>
</g>
<!-- Node25 -->
<g id="Node000025" class="node">
<title>Node25</title>
<g id="a_Node000025"><a xlink:href="classmqtt_1_1bridge_1_1lib_1_1SSEDistributor.html#a85e18d38f96cdd2ece8f48917dd8bfa7" target="_top" xlink:title=" ">
<polygon fill="white" stroke="#666666" points="746.12,-189.5 568.88,-189.5 568.88,-156 746.12,-156 746.12,-189.5"/>
<text xml:space="preserve" text-anchor="start" x="576.88" y="-176" font-family="Helvetica,sans-Serif" font-size="10.00">mqtt::bridge::lib::</text>
<text xml:space="preserve" text-anchor="middle" x="657.5" y="-163.25" font-family="Helvetica,sans-Serif" font-size="10.00">SSEDistributor::brokerConnecting</text>
</a>
</g>
</g>
<!-- Node3&#45;&gt;Node25 -->
<g id="edge27_Node000003_Node000025" class="edge">
<title>Node3&#45;&gt;Node25</title>
<g id="a_edge27_Node000003_Node000025"><a xlink:title=" ">
<path fill="none" stroke="#63b8ff" d="M855.16,-316.69C836.07,-283.85 799.53,-229.13 753.25,-198.75 748.12,-195.38 742.55,-192.44 736.78,-189.89"/>
<polygon fill="#63b8ff" stroke="#63b8ff" points="852.02,-318.23 859.99,-325.2 858.11,-314.78 852.02,-318.23"/>
</a>
</g>
</g>
<!-- Node26 -->
<g id="Node000026" class="node">
<title>Node26</title>
<g id="a_Node000026"><a xlink:href="classmqtt_1_1bridge_1_1lib_1_1SSEDistributor.html#a8b5d90f4d9ae6fa213aba6469f795f80" target="_top" xlink:title=" ">
<polygon fill="white" stroke="#666666" points="740.12,-137.5 574.88,-137.5 574.88,-104 740.12,-104 740.12,-137.5"/>
<text xml:space="preserve" text-anchor="start" x="582.88" y="-124" font-family="Helvetica,sans-Serif" font-size="10.00">mqtt::bridge::lib::</text>
<text xml:space="preserve" text-anchor="middle" x="657.5" y="-111.25" font-family="Helvetica,sans-Serif" font-size="10.00">SSEDistributor::brokerDisabled</text>
</a>
</g>
</g>
<!-- Node3&#45;&gt;Node26 -->
<g id="edge28_Node000003_Node000026" class="edge">
<title>Node3&#45;&gt;Node26</title>
<g id="a_edge28_Node000003_Node000026"><a xlink:title=" ">
<path fill="none" stroke="#63b8ff" d="M860.88,-315.74C845.81,-272.77 811.1,-190.94 753.25,-146.75 748.78,-143.33 743.88,-140.37 738.75,-137.79"/>
<polygon fill="#63b8ff" stroke="#63b8ff" points="857.52,-316.74 864.05,-325.09 864.15,-314.49 857.52,-316.74"/>
</a>
</g>
</g>
<!-- Node27 -->
<g id="Node000027" class="node">
<title>Node27</title>
<g id="a_Node000027"><a xlink:href="classmqtt_1_1bridge_1_1lib_1_1SSEDistributor.html#adcd994f13bb46f04949cd1e08db44f36" target="_top" xlink:title=" ">
<polygon fill="white" stroke="#666666" points="751.75,-241.5 563.25,-241.5 563.25,-208 751.75,-208 751.75,-241.5"/>
<text xml:space="preserve" text-anchor="start" x="571.25" y="-228" font-family="Helvetica,sans-Serif" font-size="10.00">mqtt::bridge::lib::</text>
<text xml:space="preserve" text-anchor="middle" x="657.5" y="-215.25" font-family="Helvetica,sans-Serif" font-size="10.00">SSEDistributor::brokerDisconnected</text>
</a>
</g>
</g>
<!-- Node3&#45;&gt;Node27 -->
<g id="edge29_Node000003_Node000027" class="edge">
<title>Node3&#45;&gt;Node27</title>
<g id="a_edge29_Node000003_Node000027"><a xlink:title=" ">
<path fill="none" stroke="#63b8ff" d="M844.98,-318.94C822.73,-297.97 788.27,-268.57 753.25,-250.75 746.71,-247.42 739.7,-244.48 732.55,-241.89"/>
<polygon fill="#63b8ff" stroke="#63b8ff" points="842.44,-321.35 852.07,-325.76 847.28,-316.3 842.44,-321.35"/>
</a>
</g>
</g>
<!-- Node28 -->
<g id="Node000028" class="node">
<title>Node28</title>
<g id="a_Node000028"><a xlink:href="classmqtt_1_1bridge_1_1lib_1_1SSEDistributor.html#adf0a983dc18c4aa42c477a3a295ce6fb" target="_top" xlink:title=" ">
<polygon fill="white" stroke="#666666" points="753.25,-33.5 561.75,-33.5 561.75,0 753.25,0 753.25,-33.5"/>
<text xml:space="preserve" text-anchor="start" x="569.75" y="-20" font-family="Helvetica,sans-Serif" font-size="10.00">mqtt::bridge::lib::</text>
<text xml:space="preserve" text-anchor="middle" x="657.5" y="-7.25" font-family="Helvetica,sans-Serif" font-size="10.00">SSEDistributor::brokerDisconnecting</text>
</a>
</g>
</g>
<!-- Node3&#45;&gt;Node28 -->
<g id="edge31_Node000003_Node000028" class="edge">
<title>Node3&#45;&gt;Node28</title>
<g id="a_edge31_Node000003_Node000028"><a xlink:title=" ">
<path fill="none" stroke="#63b8ff" d="M867.18,-315.73C860.21,-256.32 835.53,-117.07 753.25,-42.75 749.45,-39.32 745.24,-36.34 740.77,-33.74"/>
<polygon fill="#63b8ff" stroke="#63b8ff" points="863.67,-315.76 868.22,-325.32 870.63,-315 863.67,-315.76"/>
</a>
</g>
</g>
<!-- Node6 -->
<g id="Node000006" class="node">
<title>Node6</title>
<g id="a_Node000006"><a xlink:href="classmqtt_1_1bridge_1_1lib_1_1BridgeStore.html#a3e74b309f1d8aa60e4487e35abc1a8b1" target="_top" xlink:title=" ">
<polygon fill="white" stroke="#666666" points="319.62,-426.5 165.62,-426.5 165.62,-393 319.62,-393 319.62,-426.5"/>
<text xml:space="preserve" text-anchor="start" x="173.62" y="-413" font-family="Helvetica,sans-Serif" font-size="10.00">mqtt::bridge::lib::</text>
<text xml:space="preserve" text-anchor="middle" x="242.62" y="-400.25" font-family="Helvetica,sans-Serif" font-size="10.00">BridgeStore::mqttConnected</text>
</a>
</g>
</g>
<!-- Node5&#45;&gt;Node6 -->
<g id="edge5_Node000005_Node000006" class="edge">
<title>Node5&#45;&gt;Node6</title>
<g id="a_edge5_Node000005_Node000006"><a xlink:title=" ">
<path fill="none" stroke="#63b8ff" d="M376.94,-368.35C351.69,-376.19 323.21,-385.03 299.07,-392.53"/>
<polygon fill="#63b8ff" stroke="#63b8ff" points="377.95,-371.7 386.46,-365.39 375.87,-365.01 377.95,-371.7"/>
</a>
</g>
</g>
<!-- Node7 -->
<g id="Node000007" class="node">
<title>Node7</title>
<g id="a_Node000007"><a xlink:href="classmqtt_1_1bridge_1_1lib_1_1Mqtt.html#a695ccafca764022552d51da3faccbdac" target="_top" xlink:title=" ">
<polygon fill="white" stroke="#666666" points="111.25,-426.5 11.25,-426.5 11.25,-393 111.25,-393 111.25,-426.5"/>
<text xml:space="preserve" text-anchor="start" x="19.25" y="-413" font-family="Helvetica,sans-Serif" font-size="10.00">mqtt::bridge::lib::</text>
<text xml:space="preserve" text-anchor="middle" x="61.25" y="-400.25" font-family="Helvetica,sans-Serif" font-size="10.00">Mqtt::onConnack</text>
</a>
</g>
</g>
<!-- Node6&#45;&gt;Node7 -->
<g id="edge6_Node000006_Node000007" class="edge">
<title>Node6&#45;&gt;Node7</title>
<g id="a_edge6_Node000006_Node000007"><a xlink:title=" ">
<path fill="none" stroke="#63b8ff" d="M154.13,-409.75C139.47,-409.75 124.74,-409.75 111.5,-409.75"/>
<polygon fill="#63b8ff" stroke="#63b8ff" points="153.78,-413.25 163.78,-409.75 153.78,-406.25 153.78,-413.25"/>
</a>
</g>
</g>
<!-- Node9 -->
<g id="Node000009" class="node">
<title>Node9</title>
<g id="a_Node000009"><a xlink:href="mqttbridge_8cpp.html#ac4db1bc049804762ae0893100ec95dec" target="_top" xlink:title=" ">
<polygon fill="white" stroke="#666666" points="481.88,-585.12 406.62,-585.12 406.62,-564.38 481.88,-564.38 481.88,-585.12"/>
<text xml:space="preserve" text-anchor="middle" x="444.25" y="-571.62" font-family="Helvetica,sans-Serif" font-size="10.00">startBridges</text>
</a>
</g>
</g>
<!-- Node8&#45;&gt;Node9 -->
<g id="edge8_Node000008_Node000009" class="edge">
<title>Node8&#45;&gt;Node9</title>
<g id="a_edge8_Node000008_Node000009"><a xlink:title=" ">
<path fill="none" stroke="#63b8ff" d="M562.96,-574.75C534.47,-574.75 504.8,-574.75 482.37,-574.75"/>
<polygon fill="#63b8ff" stroke="#63b8ff" points="562.71,-578.25 572.71,-574.75 562.71,-571.25 562.71,-578.25"/>
</a>
</g>
</g>
<!-- Node10 -->
<g id="Node000010" class="node">
<title>Node10</title>
<g id="a_Node000010"><a xlink:href="mqttbridge_8cpp.html#a0ddf1224851353fc92bfbff6f499fa97" target="_top" xlink:title=" ">
<polygon fill="white" stroke="#666666" points="263,-585.12 222.25,-585.12 222.25,-564.38 263,-564.38 263,-585.12"/>
<text xml:space="preserve" text-anchor="middle" x="242.62" y="-571.62" font-family="Helvetica,sans-Serif" font-size="10.00">main</text>
</a>
</g>
</g>
<!-- Node9&#45;&gt;Node10 -->
<g id="edge9_Node000009_Node000010" class="edge">
<title>Node9&#45;&gt;Node10</title>
<g id="a_edge9_Node000009_Node000010"><a xlink:title=" ">
<path fill="none" stroke="#63b8ff" d="M394.78,-574.75C352.69,-574.75 293.85,-574.75 263.49,-574.75"/>
<polygon fill="#63b8ff" stroke="#63b8ff" points="394.66,-578.25 404.66,-574.75 394.66,-571.25 394.66,-578.25"/>
</a>
</g>
</g>
<!-- Node11 -->
<g id="Node000011" class="node">
<title>Node11</title>
<g id="a_Node000011"><a xlink:href="mqttbridge_8cpp.html#ad55d86bc4a27f17b5ccd51659519f60d" target="_top" xlink:title=" ">
<polygon fill="white" stroke="#666666" points="285.12,-546.12 200.12,-546.12 200.12,-525.38 285.12,-525.38 285.12,-546.12"/>
<text xml:space="preserve" text-anchor="middle" x="242.62" y="-532.62" font-family="Helvetica,sans-Serif" font-size="10.00">restartBridges</text>
</a>
</g>
</g>
<!-- Node9&#45;&gt;Node11 -->
<g id="edge10_Node000009_Node000011" class="edge">
<title>Node9&#45;&gt;Node11</title>
<g id="a_edge10_Node000009_Node000011"><a xlink:title=" ">
<path fill="none" stroke="#63b8ff" d="M395.25,-565.37C361.72,-558.82 317.39,-550.16 285.34,-543.9"/>
<polygon fill="#63b8ff" stroke="#63b8ff" points="394.2,-568.73 404.68,-567.22 395.54,-561.86 394.2,-568.73"/>
</a>
</g>
</g>
<!-- Node12 -->
<g id="Node000012" class="node">
<title>Node12</title>
<g id="a_Node000012"><a xlink:href="mqttbridge_8cpp.html#a950144f64b7a01a366fb06aecf986214" target="_top" xlink:title=" ">
<polygon fill="white" stroke="#666666" points="101.5,-588.12 21,-588.12 21,-567.38 101.5,-567.38 101.5,-588.12"/>
<text xml:space="preserve" text-anchor="middle" x="61.25" y="-574.62" font-family="Helvetica,sans-Serif" font-size="10.00">handleConfig</text>
</a>
</g>
</g>
<!-- Node11&#45;&gt;Node12 -->
<g id="edge11_Node000011_Node000012" class="edge">
<title>Node11&#45;&gt;Node12</title>
<g id="a_edge11_Node000011_Node000012"><a xlink:title=" ">
<path fill="none" stroke="#63b8ff" d="M188.87,-548.1C161,-554.63 127.38,-562.5 101.78,-568.49"/>
<polygon fill="#63b8ff" stroke="#63b8ff" points="189.61,-551.52 198.55,-545.84 188.01,-544.71 189.61,-551.52"/>
</a>
</g>
</g>
<!-- Node13&#45;&gt;Node12 -->
<g id="edge13_Node000013_Node000012" class="edge">
<title>Node13&#45;&gt;Node12</title>
<g id="a_edge13_Node000013_Node000012"><a xlink:title=" ">
<path fill="none" stroke="#63b8ff" d="M157.19,-599.98C137.92,-595.47 118.33,-590.88 101.98,-587.05"/>
<polygon fill="#63b8ff" stroke="#63b8ff" points="156.14,-603.33 166.68,-602.2 157.74,-596.51 156.14,-603.33"/>
</a>
</g>
</g>
<!-- Node15 -->
<g id="Node000015" class="node">
<title>Node15</title>
<g id="a_Node000015"><a xlink:href="mqttbridge_8cpp.html#a049ffc3274ea87fbe64bb3dede829cf4" target="_top" xlink:title=" ">
<polygon fill="white" stroke="#666666" points="483.38,-429.12 405.12,-429.12 405.12,-408.38 483.38,-408.38 483.38,-429.12"/>
<text xml:space="preserve" text-anchor="middle" x="444.25" y="-415.62" font-family="Helvetica,sans-Serif" font-size="10.00">closeBridges</text>
</a>
</g>
</g>
<!-- Node14&#45;&gt;Node15 -->
<g id="edge15_Node000014_Node000015" class="edge">
<title>Node14&#45;&gt;Node15</title>
<g id="a_edge15_Node000014_Node000015"><a xlink:title=" ">
<path fill="none" stroke="#63b8ff" d="M560.61,-418.75C533.4,-418.75 505.31,-418.75 483.67,-418.75"/>
<polygon fill="#63b8ff" stroke="#63b8ff" points="560.28,-422.25 570.28,-418.75 560.28,-415.25 560.28,-422.25"/>
</a>
</g>
</g>
<!-- Node17 -->
<g id="Node000017" class="node">
<title>Node17</title>
<g id="a_Node000017"><a xlink:href="classmqtt_1_1bridge_1_1lib_1_1Bridge.html#a3a4293a660369d5d5976c303eb5e7262" target="_top" xlink:title=" ">
<polygon fill="white" stroke="#666666" points="494.25,-487.5 394.25,-487.5 394.25,-454 494.25,-454 494.25,-487.5"/>
<text xml:space="preserve" text-anchor="start" x="402.25" y="-474" font-family="Helvetica,sans-Serif" font-size="10.00">mqtt::bridge::lib::</text>
<text xml:space="preserve" text-anchor="middle" x="444.25" y="-461.25" font-family="Helvetica,sans-Serif" font-size="10.00">Bridge::addMqtt</text>
</a>
</g>
</g>
<!-- Node16&#45;&gt;Node17 -->
<g id="edge17_Node000016_Node000017" class="edge">
<title>Node16&#45;&gt;Node17</title>
<g id="a_edge17_Node000016_Node000017"><a xlink:title=" ">
<path fill="none" stroke="#63b8ff" d="M575.37,-502.78C548.2,-496.09 518.75,-488.84 494.74,-482.93"/>
<polygon fill="#63b8ff" stroke="#63b8ff" points="574.43,-506.15 584.98,-505.15 576.11,-499.36 574.43,-506.15"/>
</a>
</g>
</g>
<!-- Node17&#45;&gt;Node6 -->
<g id="edge18_Node000017_Node000006" class="edge">
<title>Node17&#45;&gt;Node6</title>
<g id="a_edge18_Node000017_Node000006"><a xlink:title=" ">
<path fill="none" stroke="#63b8ff" d="M383.24,-452.41C356.77,-444.32 325.82,-434.87 299.81,-426.92"/>
<polygon fill="#63b8ff" stroke="#63b8ff" points="381.87,-455.65 392.46,-455.23 383.92,-448.96 381.87,-455.65"/>
</a>
</g>
</g>
<!-- Node20 -->
<g id="Node000020" class="node">
<title>Node20</title>
<g id="a_Node000020"><a xlink:href="classmqtt_1_1bridge_1_1lib_1_1Bridge.html#afa30b1de86ead152082545890c307400" target="_top" xlink:title=" ">
<polygon fill="white" stroke="#666666" points="501,-163.5 387.5,-163.5 387.5,-130 501,-130 501,-163.5"/>
<text xml:space="preserve" text-anchor="start" x="395.5" y="-150" font-family="Helvetica,sans-Serif" font-size="10.00">mqtt::bridge::lib::</text>
<text xml:space="preserve" text-anchor="middle" x="444.25" y="-137.25" font-family="Helvetica,sans-Serif" font-size="10.00">Bridge::removeMqtt</text>
</a>
</g>
</g>
<!-- Node19&#45;&gt;Node20 -->
<g id="edge21_Node000019_Node000020" class="edge">
<title>Node19&#45;&gt;Node20</title>
<g id="a_edge21_Node000019_Node000020"><a xlink:title=" ">
<path fill="none" stroke="#63b8ff" d="M578.08,-89.26C572.53,-91.02 567.03,-92.86 561.75,-94.75 533.7,-104.79 502.97,-118.64 480.11,-129.51"/>
<polygon fill="#63b8ff" stroke="#63b8ff" points="578.84,-92.69 587.37,-86.41 576.78,-86 578.84,-92.69"/>
</a>
</g>
</g>
<!-- Node21 -->
<g id="Node000021" class="node">
<title>Node21</title>
<g id="a_Node000021"><a xlink:href="classmqtt_1_1bridge_1_1lib_1_1BridgeStore.html#a9384b7d7ef7214dbe923d445e3201156" target="_top" xlink:title=" ">
<polygon fill="white" stroke="#666666" points="326.75,-163.5 158.5,-163.5 158.5,-130 326.75,-130 326.75,-163.5"/>
<text xml:space="preserve" text-anchor="start" x="166.5" y="-150" font-family="Helvetica,sans-Serif" font-size="10.00">mqtt::bridge::lib::</text>
<text xml:space="preserve" text-anchor="middle" x="242.62" y="-137.25" font-family="Helvetica,sans-Serif" font-size="10.00">BridgeStore::mqttDisconnected</text>
</a>
</g>
</g>
<!-- Node20&#45;&gt;Node21 -->
<g id="edge22_Node000020_Node000021" class="edge">
<title>Node20&#45;&gt;Node21</title>
<g id="a_edge22_Node000020_Node000021"><a xlink:title=" ">
<path fill="none" stroke="#63b8ff" d="M375.9,-146.75C360.17,-146.75 343.24,-146.75 326.92,-146.75"/>
<polygon fill="#63b8ff" stroke="#63b8ff" points="375.6,-150.25 385.6,-146.75 375.6,-143.25 375.6,-150.25"/>
</a>
</g>
</g>
<!-- Node22 -->
<g id="Node000022" class="node">
<title>Node22</title>
<g id="a_Node000022"><a xlink:href="classmqtt_1_1bridge_1_1lib_1_1Mqtt.html#a0628e4ad221204e943cdb08061c99e94" target="_top" xlink:title=" ">
<polygon fill="white" stroke="#666666" points="122.5,-163.5 0,-163.5 0,-130 122.5,-130 122.5,-163.5"/>
<text xml:space="preserve" text-anchor="start" x="8" y="-150" font-family="Helvetica,sans-Serif" font-size="10.00">mqtt::bridge::lib::</text>
<text xml:space="preserve" text-anchor="middle" x="61.25" y="-137.25" font-family="Helvetica,sans-Serif" font-size="10.00">Mqtt::onDisconnected</text>
</a>
</g>
</g>
<!-- Node21&#45;&gt;Node22 -->
<g id="edge23_Node000021_Node000022" class="edge">
<title>Node21&#45;&gt;Node22</title>
<g id="a_edge23_Node000021_Node000022"><a xlink:title=" ">
<path fill="none" stroke="#63b8ff" d="M146.79,-146.75C138.7,-146.75 130.67,-146.75 122.95,-146.75"/>
<polygon fill="#63b8ff" stroke="#63b8ff" points="146.73,-150.25 156.73,-146.75 146.73,-143.25 146.73,-150.25"/>
</a>
</g>
</g>
<!-- Node24&#45;&gt;Node17 -->
<g id="edge26_Node000024_Node000017" class="edge">
<title>Node24&#45;&gt;Node17</title>
<g id="a_edge26_Node000024_Node000017"><a xlink:title=" ">
<path fill="none" stroke="#63b8ff" d="M558.47,-470.75C536.36,-470.75 513.81,-470.75 494.71,-470.75"/>
<polygon fill="#63b8ff" stroke="#63b8ff" points="558.45,-474.25 568.45,-470.75 558.45,-467.25 558.45,-474.25"/>
</a>
</g>
</g>
<!-- Node27&#45;&gt;Node20 -->
<g id="edge30_Node000027_Node000020" class="edge">
<title>Node27&#45;&gt;Node20</title>
<g id="a_edge30_Node000027_Node000020"><a xlink:title=" ">
<path fill="none" stroke="#63b8ff" d="M578.08,-204.24C572.53,-202.48 567.03,-200.64 561.75,-198.75 533.7,-188.71 502.97,-174.86 480.11,-163.99"/>
<polygon fill="#63b8ff" stroke="#63b8ff" points="576.78,-207.5 587.37,-207.09 578.84,-200.81 576.78,-207.5"/>
</a>
</g>
</g>
</g>
</svg>
