<?xml version="1.0" encoding="UTF-8" standalone="no"?>
<!DOCTYPE svg PUBLIC "-//W3C//DTD SVG 1.1//EN"
 "http://www.w3.org/Graphics/SVG/1.1/DTD/svg11.dtd">
<!-- Generated by graphviz version 14.1.2 (0)
 -->
<!-- Title: mqtt::lib::ConfigApplication::loadMapping Pages: 1 -->
<svg width="343pt" height="94pt"
 viewBox="0.00 0.00 343.00 94.00" xmlns="http://www.w3.org/2000/svg" xmlns:xlink="http://www.w3.org/1999/xlink">
<g id="graph0" class="graph" transform="scale(1 1) rotate(0) translate(4 89.5)">
<title>mqtt::lib::ConfigApplication::loadMapping</title>
<!-- Node1 -->
<g id="Node000001" class="node">
<title>Node1</title>
<g id="a_Node000001"><a xlink:title=" ">
<polygon fill="#999999" stroke="#666666" points="335,-59.5 185.5,-59.5 185.5,-26 335,-26 335,-59.5"/>
<text xml:space="preserve" text-anchor="start" x="193.5" y="-46" font-family="Helvetica,sans-Serif" font-size="10.00">mqtt::lib::ConfigApplication</text>
<text xml:space="preserve" text-anchor="middle" x="260.25" y="-33.25" font-family="Helvetica,sans-Serif" font-size="10.00">::loadMapping</text>
</a>
</g>
</g>
<!-- Node2 -->
<g id="Node000002" class="node">
<title>Node2</title>
<g id="a_Node000002"><a xlink:href="classmqtt_1_1lib_1_1ConfigApplication.html#a03af16ca63647b5696ac6ff1e803e201" target="_top" xlink:title=" ">
<polygon fill="white" stroke="#666666" points="149.5,-85.5 0,-85.5 0,-52 149.5,-52 149.5,-85.5"/>
<text xml:space="preserve" text-anchor="start" x="8" y="-72" font-family="Helvetica,sans-Serif" font-size="10.00">mqtt::lib::ConfigApplication</text>
<text xml:space="preserve" text-anchor="middle" x="74.75" y="-59.25" font-family="Helvetica,sans-Serif" font-size="10.00">::ConfigApplication</text>
</a>
</g>
</g>
<!-- Node1&#45;&gt;Node2 -->
<g id="edge1_Node000001_Node000002" class="edge">
<title>Node1&#45;&gt;Node2</title>
<g id="a_edge1_Node000001_Node000002"><a xlink:title=" ">
<path fill="none" stroke="#63b8ff" d="M173.86,-54.85C165.84,-55.99 157.75,-57.13 149.84,-58.25"/>
<polygon fill="#63b8ff" stroke="#63b8ff" points="174.23,-58.33 183.64,-53.46 173.25,-51.4 174.23,-58.33"/>
</a>
</g>
</g>
<!-- Node3 -->
<g id="Node000003" class="node">
<title>Node3</title>
<g id="a_Node000003"><a xlink:href="classmqtt_1_1lib_1_1ConfigApplication.html#a8f18adbc047bfb12e7ea05bd87db4855" target="_top" xlink:title=" ">
<polygon fill="white" stroke="#666666" points="149.5,-33.5 0,-33.5 0,0 149.5,0 149.5,-33.5"/>
<text xml:space="preserve" text-anchor="start" x="8" y="-20" font-family="Helvetica,sans-Serif" font-size="10.00">mqtt::lib::ConfigApplication</text>
<text xml:space="preserve" text-anchor="middle" x="74.75" y="-7.25" font-family="Helvetica,sans-Serif" font-size="10.00">::setMappingFile</text>
</a>
</g>
</g>
<!-- Node1&#45;&gt;Node3 -->
<g id="edge2_Node000001_Node000003" class="edge">
<title>Node1&#45;&gt;Node3</title>
<g id="a_edge2_Node000001_Node000003"><a xlink:title=" ">
<path fill="none" stroke="#63b8ff" d="M173.86,-30.65C165.84,-29.51 157.75,-28.37 149.84,-27.25"/>
<polygon fill="#63b8ff" stroke="#63b8ff" points="173.25,-34.1 183.64,-32.04 174.23,-27.17 173.25,-34.1"/>
</a>
</g>
</g>
</g>
</svg>
