<?xml version="1.0" encoding="UTF-8" standalone="no"?>
<!DOCTYPE svg PUBLIC "-//W3C//DTD SVG 1.1//EN"
 "http://www.w3.org/Graphics/SVG/1.1/DTD/svg11.dtd">
<!-- Generated by graphviz version 14.1.2 (0)
 -->
<!-- Title: mqtt::lib::ConfigApplication Pages: 1 -->
<svg width="324pt" height="86pt"
 viewBox="0.00 0.00 324.00 86.00" xmlns="http://www.w3.org/2000/svg" xmlns:xlink="http://www.w3.org/1999/xlink">

<svg id="main" version="1.1" xmlns="http://www.w3.org/2000/svg" xmlns:xlink="http://www.w3.org/1999/xlink" xml:space="preserve">

<style type="text/css"><![CDATA[
.node, .edge {opacity: 0.7;}
.node.selected, .edge.selected {opacity: 1;}
.edge:hover path { stroke: red; }
.edge:hover polygon { stroke: red; fill: red; }
]]></style>
<script type="application/ecmascript" xlink:href="svg.min.js"/>
<svg id="graph" class="graph">
<g id="graph0" class="graph" transform="scale(1 1) rotate(0) translate(4 81.5)">
<title>mqtt::lib::ConfigApplication</title>
<!-- Node1 -->
<g id="Node000001" class="node">
<title>Node1</title>
<g id="a_Node000001"><a xlink:title=" ">
<polygon fill="#999999" stroke="none" points="224.12,-77.5 82.62,-77.5 82.62,-56.75 224.12,-56.75 224.12,-77.5"/>
<text xml:space="preserve" text-anchor="start" x="86.62" y="-64" font-family="Helvetica,sans-Serif" font-size="10.00">mqtt::lib::ConfigApplication</text>
<polygon fill="none" stroke="#666666" points="82.62,-56.75 82.62,-77.5 224.12,-77.5 224.12,-56.75 82.62,-56.75"/>
</a>
</g>
</g>
<!-- Node2 -->
<g id="Node000002" class="node">
<title>Node2</title>
<g id="a_Node000002"><a xlink:href="classmqtt_1_1lib_1_1ConfigMqttBroker.html" target="_top" xlink:title=" ">
<polygon fill="white" stroke="none" points="140.75,-20.75 0,-20.75 0,0 140.75,0 140.75,-20.75"/>
<text xml:space="preserve" text-anchor="start" x="4" y="-7.25" font-family="Helvetica,sans-Serif" font-size="10.00">mqtt::lib::ConfigMqttBroker</text>
<polygon fill="none" stroke="#666666" points="0,0 0,-20.75 140.75,-20.75 140.75,0 0,0"/>
</a>
</g>
</g>
<!-- Node1&#45;&gt;Node2 -->
<g id="edge1_Node000001_Node000002" class="edge">
<title>Node1&#45;&gt;Node2</title>
<g id="a_edge1_Node000001_Node000002"><a xlink:title=" ">
<path fill="none" stroke="#63b8ff" d="M129.88,-50.63C115.26,-40.99 96.95,-28.9 84.52,-20.71"/>
<polygon fill="none" stroke="#63b8ff" points="127.76,-53.42 138.03,-56 131.61,-47.58 127.76,-53.42"/>
</a>
</g>
</g>
<!-- Node3 -->
<g id="Node000003" class="node">
<title>Node3</title>
<g id="a_Node000003"><a xlink:href="classmqtt_1_1lib_1_1ConfigMqttIntegrator.html" target="_top" xlink:title=" ">
<polygon fill="white" stroke="none" points="316,-20.75 158.75,-20.75 158.75,0 316,0 316,-20.75"/>
<text xml:space="preserve" text-anchor="start" x="162.75" y="-7.25" font-family="Helvetica,sans-Serif" font-size="10.00">mqtt::lib::ConfigMqttIntegrator</text>
<polygon fill="none" stroke="#666666" points="158.75,0 158.75,-20.75 316,-20.75 316,0 158.75,0"/>
</a>
</g>
</g>
<!-- Node1&#45;&gt;Node3 -->
<g id="edge2_Node000001_Node000003" class="edge">
<title>Node1&#45;&gt;Node3</title>
<g id="a_edge2_Node000001_Node000003"><a xlink:title=" ">
<path fill="none" stroke="#63b8ff" d="M177.15,-50.63C191.94,-40.99 210.48,-28.9 223.06,-20.71"/>
<polygon fill="none" stroke="#63b8ff" points="175.36,-47.62 168.89,-56.01 179.18,-53.48 175.36,-47.62"/>
</a>
</g>
</g>
</g>
</svg>
</svg>

<style type='text/css'>
<![CDATA[
[data-mouse-over-selected='false'] { opacity: 0.7; }
[data-mouse-over-selected='true']  { opacity: 1.0; }
]]>
</style>
<script type="application/ecmascript"><![CDATA[
document.addEventListener('DOMContentLoaded', (event) => {
  highlightEdges();
  highlightAdjacentNodes();
});
]]></script>
</svg>
