<?xml version="1.0" encoding="UTF-8" standalone="no"?>
<!DOCTYPE svg PUBLIC "-//W3C//DTD SVG 1.1//EN"
 "http://www.w3.org/Graphics/SVG/1.1/DTD/svg11.dtd">
<!-- Generated by graphviz version 14.1.1 (0)
 -->
<!-- Title: inja::Parser::parse_expression Pages: 1 -->
<svg width="845pt" height="255pt"
 viewBox="0.00 0.00 845.00 255.00" xmlns="http://www.w3.org/2000/svg" xmlns:xlink="http://www.w3.org/1999/xlink">
<g id="graph0" class="graph" transform="scale(1 1) rotate(0) translate(4 250.5)">
<title>inja::Parser::parse_expression</title>
<!-- Node1 -->
<g id="Node000001" class="node">
<title>Node1</title>
<g id="a_Node000001"><a xlink:title=" ">
<polygon fill="#999999" stroke="#666666" points="837,-33.5 733.25,-33.5 733.25,0 837,0 837,-33.5"/>
<text xml:space="preserve" text-anchor="start" x="741.25" y="-20" font-family="Helvetica,sans-Serif" font-size="10.00">inja::Parser::parse</text>
<text xml:space="preserve" text-anchor="middle" x="785.12" y="-7.25" font-family="Helvetica,sans-Serif" font-size="10.00">_expression</text>
</a>
</g>
</g>
<!-- Node1&#45;&gt;Node1 -->
<g id="edge1_Node000001_Node000001" class="edge">
<title>Node1&#45;&gt;Node1</title>
<g id="a_edge1_Node000001_Node000001"><a xlink:title=" ">
<path fill="none" stroke="#63b8ff" d="M808.26,-45.22C804.33,-48.99 796.62,-51.5 785.12,-51.5 764.11,-51.5 755.73,-43.12 760,-33.91"/>
<polygon fill="#63b8ff" stroke="#63b8ff" points="811.7,-45.86 809.99,-35.41 804.81,-44.65 811.7,-45.86"/>
</a>
</g>
</g>
<!-- Node2 -->
<g id="Node000002" class="node">
<title>Node2</title>
<g id="a_Node000002"><a xlink:href="classinja_1_1Parser.html#aeb66164c89e8c71cae3c93c24d7c7be2" target="_top" xlink:title=" ">
<polygon fill="white" stroke="#666666" points="697.25,-33.5 593.5,-33.5 593.5,0 697.25,0 697.25,-33.5"/>
<text xml:space="preserve" text-anchor="start" x="601.5" y="-20" font-family="Helvetica,sans-Serif" font-size="10.00">inja::Parser::parse</text>
<text xml:space="preserve" text-anchor="middle" x="645.38" y="-7.25" font-family="Helvetica,sans-Serif" font-size="10.00">_expression</text>
</a>
</g>
</g>
<!-- Node1&#45;&gt;Node2 -->
<g id="edge2_Node000001_Node000002" class="edge">
<title>Node1&#45;&gt;Node2</title>
<g id="a_edge2_Node000001_Node000002"><a xlink:title=" ">
<path fill="none" stroke="#63b8ff" d="M721.36,-16.75C713.45,-16.75 705.42,-16.75 697.71,-16.75"/>
<polygon fill="#63b8ff" stroke="#63b8ff" points="721.32,-20.25 731.32,-16.75 721.32,-13.25 721.32,-20.25"/>
</a>
</g>
</g>
<!-- Node3 -->
<g id="Node000003" class="node">
<title>Node3</title>
<g id="a_Node000003"><a xlink:href="classinja_1_1Parser.html#a9a561141f71073df671b2b7ecb4608ba" target="_top" xlink:title=" ">
<polygon fill="white" stroke="#666666" points="557.5,-68.12 429.75,-68.12 429.75,-47.38 557.5,-47.38 557.5,-68.12"/>
<text xml:space="preserve" text-anchor="middle" x="493.62" y="-54.62" font-family="Helvetica,sans-Serif" font-size="10.00">inja::Parser::parse_into</text>
</a>
</g>
</g>
<!-- Node2&#45;&gt;Node3 -->
<g id="edge3_Node000002_Node000003" class="edge">
<title>Node2&#45;&gt;Node3</title>
<g id="a_edge3_Node000002_Node000003"><a xlink:title=" ">
<path fill="none" stroke="#63b8ff" d="M582.18,-33.78C565.94,-38.23 548.87,-42.9 534.17,-46.92"/>
<polygon fill="#63b8ff" stroke="#63b8ff" points="583.08,-37.16 591.8,-31.14 581.23,-30.41 583.08,-37.16"/>
</a>
</g>
</g>
<!-- Node10 -->
<g id="Node000010" class="node">
<title>Node10</title>
<g id="a_Node000010"><a xlink:href="classinja_1_1Parser.html#a5a26bdcce0ae076bf010ee7442d8928e" target="_top" xlink:title=" ">
<polygon fill="white" stroke="#666666" points="106,-52.5 2.25,-52.5 2.25,-19 106,-19 106,-52.5"/>
<text xml:space="preserve" text-anchor="start" x="10.25" y="-39" font-family="Helvetica,sans-Serif" font-size="10.00">inja::Parser::parse</text>
<text xml:space="preserve" text-anchor="middle" x="54.12" y="-26.25" font-family="Helvetica,sans-Serif" font-size="10.00">_statement</text>
</a>
</g>
</g>
<!-- Node2&#45;&gt;Node10 -->
<g id="edge15_Node000002_Node000010" class="edge">
<title>Node2&#45;&gt;Node10</title>
<g id="a_edge15_Node000002_Node000010"><a xlink:title=" ">
<path fill="none" stroke="#63b8ff" d="M581.86,-18.77C464.69,-22.54 214.15,-30.62 106.27,-34.1"/>
<polygon fill="#63b8ff" stroke="#63b8ff" points="581.72,-22.27 591.6,-18.45 581.49,-15.28 581.72,-22.27"/>
</a>
</g>
</g>
<!-- Node4 -->
<g id="Node000004" class="node">
<title>Node4</title>
<g id="a_Node000004"><a xlink:href="classinja_1_1Parser.html#a0f1312b0bf8691aba6cc4590169902fc" target="_top" xlink:title=" ">
<polygon fill="white" stroke="#666666" points="393.75,-165.12 290,-165.12 290,-144.38 393.75,-144.38 393.75,-165.12"/>
<text xml:space="preserve" text-anchor="middle" x="341.88" y="-151.62" font-family="Helvetica,sans-Serif" font-size="10.00">inja::Parser::parse</text>
</a>
</g>
</g>
<!-- Node3&#45;&gt;Node4 -->
<g id="edge4_Node000003_Node000004" class="edge">
<title>Node3&#45;&gt;Node4</title>
<g id="a_edge4_Node000003_Node000004"><a xlink:title=" ">
<path fill="none" stroke="#63b8ff" d="M466.39,-74.74C435.6,-94.69 385.46,-127.17 359.55,-143.95"/>
<polygon fill="#63b8ff" stroke="#63b8ff" points="468.27,-77.7 474.76,-69.32 464.46,-71.82 468.27,-77.7"/>
</a>
</g>
</g>
<!-- Node8 -->
<g id="Node000008" class="node">
<title>Node8</title>
<g id="a_Node000008"><a xlink:href="classinja_1_1Parser.html#a8c6a03b6665745f216ba86f5e514a913" target="_top" xlink:title=" ">
<polygon fill="white" stroke="#666666" points="393.75,-97.5 290,-97.5 290,-64 393.75,-64 393.75,-97.5"/>
<text xml:space="preserve" text-anchor="start" x="298" y="-84" font-family="Helvetica,sans-Serif" font-size="10.00">inja::Parser::parse</text>
<text xml:space="preserve" text-anchor="middle" x="341.88" y="-71.25" font-family="Helvetica,sans-Serif" font-size="10.00">_into_template</text>
</a>
</g>
</g>
<!-- Node3&#45;&gt;Node8 -->
<g id="edge8_Node000003_Node000008" class="edge">
<title>Node3&#45;&gt;Node8</title>
<g id="a_edge8_Node000003_Node000008"><a xlink:title=" ">
<path fill="none" stroke="#63b8ff" d="M418.38,-69.15C410.16,-70.42 401.92,-71.68 394.07,-72.89"/>
<polygon fill="#63b8ff" stroke="#63b8ff" points="418.7,-72.64 428.06,-67.67 417.64,-65.73 418.7,-72.64"/>
</a>
</g>
</g>
<!-- Node5 -->
<g id="Node000005" class="node">
<title>Node5</title>
<g id="a_Node000005"><a xlink:href="classinja_1_1Environment.html#a8421b8d61fc4de15f29c909bd7154f92" target="_top" xlink:title=" ">
<polygon fill="white" stroke="#666666" points="253.25,-201.5 145,-201.5 145,-168 253.25,-168 253.25,-201.5"/>
<text xml:space="preserve" text-anchor="start" x="153" y="-188" font-family="Helvetica,sans-Serif" font-size="10.00">inja::Environment::</text>
<text xml:space="preserve" text-anchor="middle" x="199.12" y="-175.25" font-family="Helvetica,sans-Serif" font-size="10.00">parse</text>
</a>
</g>
</g>
<!-- Node4&#45;&gt;Node5 -->
<g id="edge5_Node000004_Node000005" class="edge">
<title>Node4&#45;&gt;Node5</title>
<g id="a_edge5_Node000004_Node000005"><a xlink:title=" ">
<path fill="none" stroke="#63b8ff" d="M279.08,-167.92C270.63,-169.72 262.01,-171.56 253.71,-173.33"/>
<polygon fill="#63b8ff" stroke="#63b8ff" points="279.53,-171.4 288.58,-165.9 278.07,-164.56 279.53,-171.4"/>
</a>
</g>
</g>
<!-- Node6 -->
<g id="Node000006" class="node">
<title>Node6</title>
<g id="a_Node000006"><a xlink:href="classinja_1_1Environment.html#aac36e0cfdc9e7926914e46c0cd1caada" target="_top" xlink:title=" ">
<polygon fill="white" stroke="#666666" points="108.25,-246.5 0,-246.5 0,-213 108.25,-213 108.25,-246.5"/>
<text xml:space="preserve" text-anchor="start" x="8" y="-233" font-family="Helvetica,sans-Serif" font-size="10.00">inja::Environment::</text>
<text xml:space="preserve" text-anchor="middle" x="54.12" y="-220.25" font-family="Helvetica,sans-Serif" font-size="10.00">render</text>
</a>
</g>
</g>
<!-- Node5&#45;&gt;Node6 -->
<g id="edge6_Node000005_Node000006" class="edge">
<title>Node5&#45;&gt;Node6</title>
<g id="a_edge6_Node000005_Node000006"><a xlink:title=" ">
<path fill="none" stroke="#63b8ff" d="M134.12,-204.89C125.53,-207.6 116.79,-210.34 108.42,-212.98"/>
<polygon fill="#63b8ff" stroke="#63b8ff" points="134.95,-208.3 143.43,-201.96 132.84,-201.62 134.95,-208.3"/>
</a>
</g>
</g>
<!-- Node7 -->
<g id="Node000007" class="node">
<title>Node7</title>
<g id="a_Node000007"><a xlink:href="namespaceinja.html#a996f16f78b37d05e19cf44ac74d83e7e" target="_top" xlink:title="render with default settings to the given output stream">
<polygon fill="white" stroke="#666666" points="97.38,-195.12 10.88,-195.12 10.88,-174.38 97.38,-174.38 97.38,-195.12"/>
<text xml:space="preserve" text-anchor="middle" x="54.12" y="-181.62" font-family="Helvetica,sans-Serif" font-size="10.00">inja::render_to</text>
</a>
</g>
</g>
<!-- Node5&#45;&gt;Node7 -->
<g id="edge7_Node000005_Node000007" class="edge">
<title>Node5&#45;&gt;Node7</title>
<g id="a_edge7_Node000005_Node000007"><a xlink:title=" ">
<path fill="none" stroke="#63b8ff" d="M133.4,-184.75C121.29,-184.75 108.93,-184.75 97.7,-184.75"/>
<polygon fill="#63b8ff" stroke="#63b8ff" points="133.36,-188.25 143.36,-184.75 133.36,-181.25 133.36,-188.25"/>
</a>
</g>
</g>
<!-- Node9 -->
<g id="Node000009" class="node">
<title>Node9</title>
<g id="a_Node000009"><a xlink:href="classinja_1_1Parser.html#ae1cebbe51ef6a93fc3d448263f9bf1e3" target="_top" xlink:title=" ">
<polygon fill="white" stroke="#666666" points="254,-97.5 144.25,-97.5 144.25,-64 254,-64 254,-97.5"/>
<text xml:space="preserve" text-anchor="start" x="152.25" y="-84" font-family="Helvetica,sans-Serif" font-size="10.00">inja::Parser::add_to</text>
<text xml:space="preserve" text-anchor="middle" x="199.12" y="-71.25" font-family="Helvetica,sans-Serif" font-size="10.00">_template_storage</text>
</a>
</g>
</g>
<!-- Node8&#45;&gt;Node9 -->
<g id="edge9_Node000008_Node000009" class="edge">
<title>Node8&#45;&gt;Node9</title>
<g id="a_edge9_Node000008_Node000009"><a xlink:title=" ">
<path fill="none" stroke="#63b8ff" d="M278.18,-80.75C270.24,-80.75 262.17,-80.75 254.38,-80.75"/>
<polygon fill="#63b8ff" stroke="#63b8ff" points="278.15,-84.25 288.15,-80.75 278.15,-77.25 278.15,-84.25"/>
</a>
</g>
</g>
<!-- Node11 -->
<g id="Node000011" class="node">
<title>Node11</title>
<g id="a_Node000011"><a xlink:href="classinja_1_1Environment.html#aa46ccc27cc803933e0bfc9f58bba389c" target="_top" xlink:title=" ">
<polygon fill="white" stroke="#666666" points="253.25,-149.5 145,-149.5 145,-116 253.25,-116 253.25,-149.5"/>
<text xml:space="preserve" text-anchor="start" x="153" y="-136" font-family="Helvetica,sans-Serif" font-size="10.00">inja::Environment::</text>
<text xml:space="preserve" text-anchor="middle" x="199.12" y="-123.25" font-family="Helvetica,sans-Serif" font-size="10.00">parse_template</text>
</a>
</g>
</g>
<!-- Node8&#45;&gt;Node11 -->
<g id="edge12_Node000008_Node000011" class="edge">
<title>Node8&#45;&gt;Node11</title>
<g id="a_edge12_Node000008_Node000011"><a xlink:title=" ">
<path fill="none" stroke="#63b8ff" d="M283.72,-101.86C271.36,-106.43 258.44,-111.21 246.55,-115.6"/>
<polygon fill="#63b8ff" stroke="#63b8ff" points="284.81,-105.19 292.98,-98.45 282.39,-98.63 284.81,-105.19"/>
</a>
</g>
</g>
<!-- Node9&#45;&gt;Node10 -->
<g id="edge10_Node000009_Node000010" class="edge">
<title>Node9&#45;&gt;Node10</title>
<g id="a_edge10_Node000009_Node000010"><a xlink:title=" ">
<path fill="none" stroke="#63b8ff" d="M133.22,-60.32C124.24,-57.5 115.12,-54.63 106.43,-51.89"/>
<polygon fill="#63b8ff" stroke="#63b8ff" points="132.03,-63.62 142.62,-63.28 134.13,-56.94 132.03,-63.62"/>
</a>
</g>
</g>
<!-- Node10&#45;&gt;Node3 -->
<g id="edge11_Node000010_Node000003" class="edge">
<title>Node10&#45;&gt;Node3</title>
<g id="a_edge11_Node000010_Node000003"><a xlink:title=" ">
<path fill="none" stroke="#63b8ff" d="M117.58,-38.89C200.52,-43.06 346.19,-50.39 429.48,-54.57"/>
<polygon fill="#63b8ff" stroke="#63b8ff" points="117.99,-35.41 107.82,-38.4 117.63,-42.4 117.99,-35.41"/>
</a>
</g>
</g>
<!-- Node12 -->
<g id="Node000012" class="node">
<title>Node12</title>
<g id="a_Node000012"><a xlink:href="classinja_1_1Environment.html#a988701e4eb7fef51f2a3bd5ec74dd156" target="_top" xlink:title=" ">
<polygon fill="white" stroke="#666666" points="108.25,-156.5 0,-156.5 0,-123 108.25,-123 108.25,-156.5"/>
<text xml:space="preserve" text-anchor="start" x="8" y="-143" font-family="Helvetica,sans-Serif" font-size="10.00">inja::Environment::</text>
<text xml:space="preserve" text-anchor="middle" x="54.12" y="-130.25" font-family="Helvetica,sans-Serif" font-size="10.00">parse_file</text>
</a>
</g>
</g>
<!-- Node11&#45;&gt;Node12 -->
<g id="edge13_Node000011_Node000012" class="edge">
<title>Node11&#45;&gt;Node12</title>
<g id="a_edge13_Node000011_Node000012"><a xlink:title=" ">
<path fill="none" stroke="#63b8ff" d="M133.54,-135.91C125.14,-136.32 116.61,-136.74 108.42,-137.14"/>
<polygon fill="#63b8ff" stroke="#63b8ff" points="133.55,-139.42 143.37,-135.43 133.21,-132.42 133.55,-139.42"/>
</a>
</g>
</g>
<!-- Node13 -->
<g id="Node000013" class="node">
<title>Node13</title>
<g id="a_Node000013"><a xlink:href="classinja_1_1Environment.html#aaefdd9061b23f1764056689fe8c31e30" target="_top" xlink:title=" ">
<polygon fill="white" stroke="#666666" points="108.25,-104.5 0,-104.5 0,-71 108.25,-71 108.25,-104.5"/>
<text xml:space="preserve" text-anchor="start" x="8" y="-91" font-family="Helvetica,sans-Serif" font-size="10.00">inja::Environment::</text>
<text xml:space="preserve" text-anchor="middle" x="54.12" y="-78.25" font-family="Helvetica,sans-Serif" font-size="10.00">render_file</text>
</a>
</g>
</g>
<!-- Node11&#45;&gt;Node13 -->
<g id="edge14_Node000011_Node000013" class="edge">
<title>Node11&#45;&gt;Node13</title>
<g id="a_edge14_Node000011_Node000013"><a xlink:title=" ">
<path fill="none" stroke="#63b8ff" d="M134.12,-112.61C125.53,-109.9 116.79,-107.16 108.42,-104.52"/>
<polygon fill="#63b8ff" stroke="#63b8ff" points="132.84,-115.88 143.43,-115.54 134.95,-109.2 132.84,-115.88"/>
</a>
</g>
</g>
</g>
</svg>
