<?xml version="1.0" encoding="UTF-8" standalone="no"?>
<!DOCTYPE svg PUBLIC "-//W3C//DTD SVG 1.1//EN"
 "http://www.w3.org/Graphics/SVG/1.1/DTD/svg11.dtd">
<!-- Generated by graphviz version 14.1.2 (0)
 -->
<!-- Title: mqtt::bridge::lib::BridgeStore::instance Pages: 1 -->
<svg width="483pt" height="274pt"
 viewBox="0.00 0.00 483.00 274.00" xmlns="http://www.w3.org/2000/svg" xmlns:xlink="http://www.w3.org/1999/xlink">
<g id="graph0" class="graph" transform="scale(1 1) rotate(0) translate(4 270.12)">
<title>mqtt::bridge::lib::BridgeStore::instance</title>
<!-- Node1 -->
<g id="Node000001" class="node">
<title>Node1</title>
<g id="a_Node000001"><a xlink:title=" ">
<polygon fill="#999999" stroke="#666666" points="474.75,-146.12 354.5,-146.12 354.5,-112.62 474.75,-112.62 474.75,-146.12"/>
<text xml:space="preserve" text-anchor="start" x="362.5" y="-132.62" font-family="Helvetica,sans-Serif" font-size="10.00">mqtt::bridge::lib::</text>
<text xml:space="preserve" text-anchor="middle" x="414.62" y="-119.88" font-family="Helvetica,sans-Serif" font-size="10.00">BridgeStore::instance</text>
</a>
</g>
</g>
<!-- Node2 -->
<g id="Node000002" class="node">
<title>Node2</title>
<g id="a_Node000002"><a xlink:href="classmqtt_1_1bridge_1_1SocketContextFactory.html#a1f9ab899e4c3205913ba2841ae69dc33" target="_top" xlink:title=" ">
<polygon fill="white" stroke="#666666" points="316.25,-266.12 163.75,-266.12 163.75,-232.62 316.25,-232.62 316.25,-266.12"/>
<text xml:space="preserve" text-anchor="start" x="171.75" y="-252.62" font-family="Helvetica,sans-Serif" font-size="10.00">mqtt::bridge::SocketContext</text>
<text xml:space="preserve" text-anchor="middle" x="240" y="-239.88" font-family="Helvetica,sans-Serif" font-size="10.00">Factory::create</text>
</a>
</g>
</g>
<!-- Node1&#45;&gt;Node2 -->
<g id="edge1_Node000001_Node000002" class="edge">
<title>Node1&#45;&gt;Node2</title>
<g id="a_edge1_Node000001_Node000002"><a xlink:title=" ">
<path fill="none" stroke="#63b8ff" d="M393.4,-155.06C375.66,-176.06 348.13,-205.15 318.5,-223.38 313.18,-226.65 307.4,-229.56 301.48,-232.15"/>
<polygon fill="#63b8ff" stroke="#63b8ff" points="395.97,-157.44 399.64,-147.5 390.58,-152.98 395.97,-157.44"/>
</a>
</g>
</g>
<!-- Node3 -->
<g id="Node000003" class="node">
<title>Node3</title>
<g id="a_Node000003"><a xlink:href="classmqtt_1_1mqttbridge_1_1websocket_1_1SubProtocolFactory.html#a843ee73f0182cea879cd45d9e924db8e" target="_top" xlink:title=" ">
<polygon fill="white" stroke="#666666" points="318.5,-214.12 161.5,-214.12 161.5,-180.62 318.5,-180.62 318.5,-214.12"/>
<text xml:space="preserve" text-anchor="start" x="169.5" y="-200.62" font-family="Helvetica,sans-Serif" font-size="10.00">mqtt::mqttbridge::websocket</text>
<text xml:space="preserve" text-anchor="middle" x="240" y="-187.88" font-family="Helvetica,sans-Serif" font-size="10.00">::SubProtocolFactory::create</text>
</a>
</g>
</g>
<!-- Node1&#45;&gt;Node3 -->
<g id="edge2_Node000001_Node000003" class="edge">
<title>Node1&#45;&gt;Node3</title>
<g id="a_edge2_Node000001_Node000003"><a xlink:title=" ">
<path fill="none" stroke="#63b8ff" d="M366.69,-151.12C351.44,-157.91 334.37,-165.23 318.5,-171.38 310.69,-174.4 302.37,-177.41 294.18,-180.26"/>
<polygon fill="#63b8ff" stroke="#63b8ff" points="367.85,-154.44 375.53,-147.15 364.98,-148.06 367.85,-154.44"/>
</a>
</g>
</g>
<!-- Node4 -->
<g id="Node000004" class="node">
<title>Node4</title>
<g id="a_Node000004"><a xlink:href="mqttbridge_8cpp.html#a0ddf1224851353fc92bfbff6f499fa97" target="_top" xlink:title=" ">
<polygon fill="white" stroke="#666666" points="260.38,-162.75 219.62,-162.75 219.62,-142 260.38,-142 260.38,-162.75"/>
<text xml:space="preserve" text-anchor="middle" x="240" y="-149.25" font-family="Helvetica,sans-Serif" font-size="10.00">main</text>
</a>
</g>
</g>
<!-- Node1&#45;&gt;Node4 -->
<g id="edge3_Node000001_Node000004" class="edge">
<title>Node1&#45;&gt;Node4</title>
<g id="a_edge3_Node000001_Node000004"><a xlink:title=" ">
<path fill="none" stroke="#63b8ff" d="M342.96,-138.79C313.18,-142.76 280.82,-147.07 260.73,-149.75"/>
<polygon fill="#63b8ff" stroke="#63b8ff" points="343.27,-142.28 352.72,-137.49 342.34,-135.34 343.27,-142.28"/>
</a>
</g>
</g>
<!-- Node5 -->
<g id="Node000005" class="node">
<title>Node5</title>
<g id="a_Node000005"><a xlink:href="classmqtt_1_1bridge_1_1lib_1_1Mqtt.html#a695ccafca764022552d51da3faccbdac" target="_top" xlink:title=" ">
<polygon fill="white" stroke="#666666" points="290,-124.12 190,-124.12 190,-90.62 290,-90.62 290,-124.12"/>
<text xml:space="preserve" text-anchor="start" x="198" y="-110.62" font-family="Helvetica,sans-Serif" font-size="10.00">mqtt::bridge::lib::</text>
<text xml:space="preserve" text-anchor="middle" x="240" y="-97.88" font-family="Helvetica,sans-Serif" font-size="10.00">Mqtt::onConnack</text>
</a>
</g>
</g>
<!-- Node1&#45;&gt;Node5 -->
<g id="edge4_Node000001_Node000005" class="edge">
<title>Node1&#45;&gt;Node5</title>
<g id="a_edge4_Node000001_Node000005"><a xlink:title=" ">
<path fill="none" stroke="#63b8ff" d="M342.83,-120.35C325.25,-118.11 306.79,-115.76 290.48,-113.68"/>
<polygon fill="#63b8ff" stroke="#63b8ff" points="342.35,-123.82 352.72,-121.61 343.24,-116.88 342.35,-123.82"/>
</a>
</g>
</g>
<!-- Node6 -->
<g id="Node000006" class="node">
<title>Node6</title>
<g id="a_Node000006"><a xlink:href="classmqtt_1_1bridge_1_1lib_1_1Mqtt.html#a0628e4ad221204e943cdb08061c99e94" target="_top" xlink:title=" ">
<polygon fill="white" stroke="#666666" points="301.25,-72.12 178.75,-72.12 178.75,-38.62 301.25,-38.62 301.25,-72.12"/>
<text xml:space="preserve" text-anchor="start" x="186.75" y="-58.62" font-family="Helvetica,sans-Serif" font-size="10.00">mqtt::bridge::lib::</text>
<text xml:space="preserve" text-anchor="middle" x="240" y="-45.88" font-family="Helvetica,sans-Serif" font-size="10.00">Mqtt::onDisconnected</text>
</a>
</g>
</g>
<!-- Node1&#45;&gt;Node6 -->
<g id="edge5_Node000001_Node000006" class="edge">
<title>Node1&#45;&gt;Node6</title>
<g id="a_edge5_Node000001_Node000006"><a xlink:title=" ">
<path fill="none" stroke="#63b8ff" d="M372.56,-107.03C356.01,-98.46 336.59,-88.93 318.5,-81.38 311.17,-78.31 303.33,-75.35 295.57,-72.58"/>
<polygon fill="#63b8ff" stroke="#63b8ff" points="370.63,-109.97 381.11,-111.51 373.88,-103.77 370.63,-109.97"/>
</a>
</g>
</g>
<!-- Node7 -->
<g id="Node000007" class="node">
<title>Node7</title>
<g id="a_Node000007"><a xlink:href="mqttbridge_8cpp.html#ad55d86bc4a27f17b5ccd51659519f60d" target="_top" xlink:title=" ">
<polygon fill="white" stroke="#666666" points="282.5,-20.75 197.5,-20.75 197.5,0 282.5,0 282.5,-20.75"/>
<text xml:space="preserve" text-anchor="middle" x="240" y="-7.25" font-family="Helvetica,sans-Serif" font-size="10.00">restartBridges</text>
</a>
</g>
</g>
<!-- Node1&#45;&gt;Node7 -->
<g id="edge6_Node000001_Node000007" class="edge">
<title>Node1&#45;&gt;Node7</title>
<g id="a_edge6_Node000001_Node000007"><a xlink:title=" ">
<path fill="none" stroke="#63b8ff" d="M395.56,-103.21C378.36,-80.31 350.42,-47.88 318.5,-29.38 307.71,-23.12 294.93,-18.92 282.89,-16.09"/>
<polygon fill="#63b8ff" stroke="#63b8ff" points="392.63,-105.14 401.36,-111.16 398.29,-101.02 392.63,-105.14"/>
</a>
</g>
</g>
<!-- Node8 -->
<g id="Node000008" class="node">
<title>Node8</title>
<g id="a_Node000008"><a xlink:href="mqttbridge_8cpp.html#a3d16d2e23b0d4b9300255adc9883e1f4" target="_top" xlink:title=" ">
<polygon fill="white" stroke="#666666" points="125.5,-20.75 0,-20.75 0,0 125.5,0 125.5,-20.75"/>
<text xml:space="preserve" text-anchor="middle" x="62.75" y="-7.25" font-family="Helvetica,sans-Serif" font-size="10.00">handleFlowControllers</text>
</a>
</g>
</g>
<!-- Node7&#45;&gt;Node8 -->
<g id="edge7_Node000007_Node000008" class="edge">
<title>Node7&#45;&gt;Node8</title>
<g id="a_edge7_Node000007_Node000008"><a xlink:title=" ">
<path fill="none" stroke="#63b8ff" d="M185.66,-10.38C166.82,-10.38 145.47,-10.38 125.96,-10.38"/>
<polygon fill="#63b8ff" stroke="#63b8ff" points="185.51,-13.88 195.51,-10.38 185.51,-6.88 185.51,-13.88"/>
</a>
</g>
</g>
</g>
</svg>
