<?xml version="1.0" encoding="UTF-8" standalone="no"?>
<!DOCTYPE svg PUBLIC "-//W3C//DTD SVG 1.1//EN"
 "http://www.w3.org/Graphics/SVG/1.1/DTD/svg11.dtd">
<!-- Generated by graphviz version 2.42.4 (0)
 -->
<!-- Title: nlohmann::json_schema::basic_error_handler::error Pages: 1 -->
<svg width="346pt" height="312pt"
 viewBox="0.00 0.00 346.00 312.00" xmlns="http://www.w3.org/2000/svg" xmlns:xlink="http://www.w3.org/1999/xlink">
<g id="graph0" class="graph" transform="scale(1 1) rotate(0) translate(4 308)">
<title>nlohmann::json_schema::basic_error_handler::error</title>
<!-- Node1 -->
<g id="Node000001" class="node">
<title>Node1</title>
<g id="a_Node000001"><a xlink:title=" ">
<polygon fill="#999999" stroke="#666666" points="338,-150 203,-150 203,-109 338,-109 338,-150"/>
<text text-anchor="start" x="211" y="-138" font-family="Helvetica,sans-Serif" font-size="10.00">nlohmann::json_schema</text>
<text text-anchor="start" x="211" y="-127" font-family="Helvetica,sans-Serif" font-size="10.00">::basic_error_handler</text>
<text text-anchor="middle" x="270.5" y="-116" font-family="Helvetica,sans-Serif" font-size="10.00">::error</text>
</a>
</g>
</g>
<!-- Node2 -->
<g id="Node000002" class="node">
<title>Node2</title>
<g id="a_Node000002"><a xlink:href="classanonymous__namespace_02errors_8cpp_03_1_1store__ptr__err__handler.html#a52f0ac600d8646698907e9094c125ef9" target="_top" xlink:title=" ">
<polygon fill="white" stroke="#666666" points="151,-304 16,-304 16,-263 151,-263 151,-304"/>
<text text-anchor="start" x="24" y="-292" font-family="Helvetica,sans-Serif" font-size="10.00">anonymous_namespace</text>
<text text-anchor="start" x="24" y="-281" font-family="Helvetica,sans-Serif" font-size="10.00">{errors::cpp}::store</text>
<text text-anchor="middle" x="83.5" y="-270" font-family="Helvetica,sans-Serif" font-size="10.00">_ptr_err_handler::error</text>
</a>
</g>
</g>
<!-- Node1&#45;&gt;Node2 -->
<g id="edge1_Node000001_Node000002" class="edge">
<title>Node1&#45;&gt;Node2</title>
<g id="a_edge1_Node000001_Node000002"><a xlink:title=" ">
<path fill="none" stroke="#63b8ff" d="M252.18,-158.81C234.17,-186.98 203.51,-228.93 167,-254.5 162.15,-257.9 156.86,-260.93 151.39,-263.64"/>
<polygon fill="#63b8ff" stroke="#63b8ff" points="255.24,-160.52 257.58,-150.19 249.31,-156.81 255.24,-160.52"/>
</a>
</g>
</g>
<!-- Node3 -->
<g id="Node000003" class="node">
<title>Node3</title>
<g id="a_Node000003"><a xlink:href="classanonymous__namespace_02issue-149-entry-selection_8cpp_03_1_1store__err__handler.html#a410c6dae38a5260bff3f647def3a122c" target="_top" xlink:title=" ">
<polygon fill="white" stroke="#666666" points="167,-245 0,-245 0,-204 167,-204 167,-245"/>
<text text-anchor="start" x="8" y="-233" font-family="Helvetica,sans-Serif" font-size="10.00">anonymous_namespace</text>
<text text-anchor="start" x="8" y="-222" font-family="Helvetica,sans-Serif" font-size="10.00">{issue&#45;149&#45;entry&#45;selection</text>
<text text-anchor="middle" x="83.5" y="-211" font-family="Helvetica,sans-Serif" font-size="10.00">::cpp}::store_err_handler::error</text>
</a>
</g>
</g>
<!-- Node1&#45;&gt;Node3 -->
<g id="edge2_Node000001_Node000003" class="edge">
<title>Node1&#45;&gt;Node3</title>
<g id="a_edge2_Node000001_Node000003"><a xlink:title=" ">
<path fill="none" stroke="#63b8ff" d="M232.51,-155.7C213.5,-168.45 189.63,-183.37 167,-194.5 160.3,-197.79 153.14,-200.93 145.94,-203.84"/>
<polygon fill="#63b8ff" stroke="#63b8ff" points="234.57,-158.53 240.88,-150.02 230.64,-152.74 234.57,-158.53"/>
</a>
</g>
</g>
<!-- Node4 -->
<g id="Node000004" class="node">
<title>Node4</title>
<g id="a_Node000004"><a xlink:href="classanonymous__namespace_02issue-70-root-schema-constructor_8cpp_03_1_1store__ptr__err__handler.html#a2109be67ea1860359958f1fdaaa88d81" target="_top" xlink:title=" ">
<polygon fill="white" stroke="#666666" points="151,-185.5 16,-185.5 16,-133.5 151,-133.5 151,-185.5"/>
<text text-anchor="start" x="24" y="-173.5" font-family="Helvetica,sans-Serif" font-size="10.00">anonymous_namespace</text>
<text text-anchor="start" x="24" y="-162.5" font-family="Helvetica,sans-Serif" font-size="10.00">{issue&#45;70&#45;root&#45;schema</text>
<text text-anchor="start" x="24" y="-151.5" font-family="Helvetica,sans-Serif" font-size="10.00">&#45;constructor::cpp}::store</text>
<text text-anchor="middle" x="83.5" y="-140.5" font-family="Helvetica,sans-Serif" font-size="10.00">_ptr_err_handler::error</text>
</a>
</g>
</g>
<!-- Node1&#45;&gt;Node4 -->
<g id="edge3_Node000001_Node000004" class="edge">
<title>Node1&#45;&gt;Node4</title>
<g id="a_edge3_Node000001_Node000004"><a xlink:title=" ">
<path fill="none" stroke="#63b8ff" d="M192.95,-141.91C179.05,-144.17 164.65,-146.5 151.06,-148.71"/>
<polygon fill="#63b8ff" stroke="#63b8ff" points="193.66,-145.34 202.97,-140.29 192.54,-138.43 193.66,-145.34"/>
</a>
</g>
</g>
<!-- Node5 -->
<g id="Node000005" class="node">
<title>Node5</title>
<g id="a_Node000005"><a xlink:href="classcustom__error__handler.html#a028c0db53b8d6a7cf9e8caf62e54667d" target="_top" xlink:title=" ">
<polygon fill="white" stroke="#666666" points="145,-115.5 22,-115.5 22,-85.5 145,-85.5 145,-115.5"/>
<text text-anchor="start" x="30" y="-103.5" font-family="Helvetica,sans-Serif" font-size="10.00">custom_error_handler</text>
<text text-anchor="middle" x="83.5" y="-92.5" font-family="Helvetica,sans-Serif" font-size="10.00">::error</text>
</a>
</g>
</g>
<!-- Node1&#45;&gt;Node5 -->
<g id="edge4_Node000001_Node000005" class="edge">
<title>Node1&#45;&gt;Node5</title>
<g id="a_edge4_Node000001_Node000005"><a xlink:title=" ">
<path fill="none" stroke="#63b8ff" d="M192.68,-117.46C176.84,-114.98 160.38,-112.39 145.21,-110.02"/>
<polygon fill="#63b8ff" stroke="#63b8ff" points="192.55,-120.98 202.97,-119.07 193.63,-114.06 192.55,-120.98"/>
</a>
</g>
</g>
<!-- Node6 -->
<g id="Node000006" class="node">
<title>Node6</title>
<g id="a_Node000006"><a xlink:href="classstore__ptr__err__handler.html#a565d710a8321fd938af8cc6f6407e630" target="_top" xlink:title=" ">
<polygon fill="white" stroke="#666666" points="144,-67.5 23,-67.5 23,-37.5 144,-37.5 144,-67.5"/>
<text text-anchor="start" x="31" y="-55.5" font-family="Helvetica,sans-Serif" font-size="10.00">store_ptr_err_handler</text>
<text text-anchor="middle" x="83.5" y="-44.5" font-family="Helvetica,sans-Serif" font-size="10.00">::error</text>
</a>
</g>
</g>
<!-- Node1&#45;&gt;Node6 -->
<g id="edge5_Node000001_Node000006" class="edge">
<title>Node1&#45;&gt;Node6</title>
<g id="a_edge5_Node000001_Node000006"><a xlink:title=" ">
<path fill="none" stroke="#63b8ff" d="M224.84,-104.01C207.18,-94.57 186.49,-84.29 167,-76.5 158.97,-73.29 150.34,-70.3 141.8,-67.6"/>
<polygon fill="#63b8ff" stroke="#63b8ff" points="223.32,-107.17 233.78,-108.85 226.65,-101.01 223.32,-107.17"/>
</a>
</g>
</g>
<!-- Node7 -->
<g id="Node000007" class="node">
<title>Node7</title>
<g id="a_Node000007"><a xlink:href="readme_8cpp.html#ae66f6b31b5ad750f1fe042a706a4e3d4" target="_top" xlink:title=" ">
<polygon fill="white" stroke="#666666" points="104,-19 63,-19 63,0 104,0 104,-19"/>
<text text-anchor="middle" x="83.5" y="-7" font-family="Helvetica,sans-Serif" font-size="10.00">main</text>
</a>
</g>
</g>
<!-- Node1&#45;&gt;Node7 -->
<g id="edge6_Node000001_Node000007" class="edge">
<title>Node1&#45;&gt;Node7</title>
<g id="a_edge6_Node000001_Node000007"><a xlink:title=" ">
<path fill="none" stroke="#63b8ff" d="M247.75,-100.58C228.89,-77.58 199.57,-46.39 167,-28.5 147.29,-17.68 121.67,-13 104.25,-11"/>
<polygon fill="#63b8ff" stroke="#63b8ff" points="245.22,-103.03 254.21,-108.65 250.69,-98.65 245.22,-103.03"/>
</a>
</g>
</g>
</g>
</svg>
