<?xml version="1.0" encoding="UTF-8" standalone="no"?>
<!DOCTYPE svg PUBLIC "-//W3C//DTD SVG 1.1//EN"
 "http://www.w3.org/Graphics/SVG/1.1/DTD/svg11.dtd">
<!-- Generated by graphviz version 2.42.4 (0)
 -->
<!-- Title: inja::Lexer::get_config Pages: 1 -->
<!--zoomable 337 -->

<svg id="main" version="1.1" xmlns="http://www.w3.org/2000/svg" xmlns:xlink="http://www.w3.org/1999/xlink" xml:space="preserve" onload="init(evt)">
<style type="text/css"><![CDATA[
.node, .edge {opacity: 0.7;}
.node.selected, .edge.selected {opacity: 1;}
.edge:hover path { stroke: red; }
.edge:hover polygon { stroke: red; fill: red; }
]]></style>

<defs>
  <circle id="rim" cx="0" cy="0" r="7"/>
  <circle id="rim2" cx="0" cy="0" r="3.5"/>
  <g id="zoomPlus">
    <use xlink:href="#rim" fill="#404040"><set attributeName="fill" to="#808080" begin="zoomplus.mouseover" end="zoomplus.mouseout"/></use>
    <path d="M-4,0h8M0,-4v8" fill="none" stroke="white" stroke-width="1.5" pointer-events="none"/>
  </g>
  <g id="zoomMin">
    <use xlink:href="#rim" fill="#404040"><set attributeName="fill" to="#808080" begin="zoomminus.mouseover" end="zoomminus.mouseout"/></use>
    <path d="M-4,0h8" fill="none" stroke="white" stroke-width="1.5" pointer-events="none"/>
  </g>
  <g id="arrowUp" transform="translate(30 24)">
    <use xlink:href="#rim"/>
    <path pointer-events="none" fill="none" stroke="white" stroke-width="1.5" d="M0,-3.0v7 M-2.5,-0.5L0,-3.0L2.5,-0.5"/>
  </g>
  <g id="arrowRight" transform="rotate(90) translate(36 -43)">
    <use xlink:href="#rim"/>
    <path pointer-events="none" fill="none" stroke="white" stroke-width="1.5" d="M0,-3.0v7 M-2.5,-0.5L0,-3.0L2.5,-0.5"/>
  </g>
  <g id="arrowDown" transform="rotate(180) translate(-30 -48)">
    <use xlink:href="#rim"/>
    <path pointer-events="none" fill="none" stroke="white" stroke-width="1.5" d="M0,-3.0v7 M-2.5,-0.5L0,-3.0L2.5,-0.5"/>
  </g>
  <g id="arrowLeft" transform="rotate(270) translate(-36 17)">
    <use xlink:href="#rim"/>
    <path pointer-events="none" fill="none" stroke="white" stroke-width="1.5" d="M0,-3.0v7 M-2.5,-0.5L0,-3.0L2.5,-0.5"/>
  </g>
  <g id="resetDef">
    <use xlink:href="#rim2" fill="#404040"><set attributeName="fill" to="#808080" begin="reset.mouseover" end="reset.mouseout"/></use>
  </g>
</defs>
<script type="application/ecmascript">
var viewWidth = 1866;
var viewHeight = 337;
var sectionId = 'dynsection-5';
</script>
<script type="application/ecmascript" xlink:href="svg.min.js"/>
<svg id="graph" class="graph">
<g id="viewport">
<title>inja::Lexer::get_config</title>
<!-- Node1 -->
<g id="Node000001" class="node">
<title>Node1</title>
<g id="a_Node000001"><a xlink:title=" ">
<polygon fill="#999999" stroke="#666666" points="1858,-195.5 1733,-195.5 1733,-176.5 1858,-176.5 1858,-195.5"/>
<text text-anchor="middle" x="1795.5" y="-183.5" font-family="Helvetica,sans-Serif" font-size="10.00">inja::Lexer::get_config</text>
</a>
</g>
</g>
<!-- Node2 -->
<g id="Node000002" class="node">
<title>Node2</title>
<g id="a_Node000002"><a xlink:href="classinja_1_1Parser.html#a8c6a03b6665745f216ba86f5e514a913" target="_top" xlink:title=" ">
<polygon fill="white" stroke="#666666" points="1697,-201 1593,-201 1593,-171 1697,-171 1697,-201"/>
<text text-anchor="start" x="1601" y="-189" font-family="Helvetica,sans-Serif" font-size="10.00">inja::Parser::parse</text>
<text text-anchor="middle" x="1645" y="-178" font-family="Helvetica,sans-Serif" font-size="10.00">_into_template</text>
</a>
</g>
</g>
<!-- Node1&#45;&gt;Node2 -->
<g id="edge1_Node000001_Node000002" class="edge">
<title>Node1&#45;&gt;Node2</title>
<g id="a_edge1_Node000001_Node000002"><a xlink:title=" ">
<path fill="none" stroke="#63b8ff" d="M1722.79,-186C1714.2,-186 1705.58,-186 1697.36,-186"/>
<polygon fill="#63b8ff" stroke="#63b8ff" points="1722.81,-189.5 1732.81,-186 1722.81,-182.5 1722.81,-189.5"/>
</a>
</g>
</g>
<!-- Node3 -->
<g id="Node000003" class="node">
<title>Node3</title>
<g id="a_Node000003"><a xlink:href="classinja_1_1Parser.html#ae1cebbe51ef6a93fc3d448263f9bf1e3" target="_top" xlink:title=" ">
<polygon fill="white" stroke="#666666" points="1557,-244 1447,-244 1447,-214 1557,-214 1557,-244"/>
<text text-anchor="start" x="1455" y="-232" font-family="Helvetica,sans-Serif" font-size="10.00">inja::Parser::add_to</text>
<text text-anchor="middle" x="1502" y="-221" font-family="Helvetica,sans-Serif" font-size="10.00">_template_storage</text>
</a>
</g>
</g>
<!-- Node2&#45;&gt;Node3 -->
<g id="edge2_Node000002_Node000003" class="edge">
<title>Node2&#45;&gt;Node3</title>
<g id="a_edge2_Node000002_Node000003"><a xlink:title=" ">
<path fill="none" stroke="#63b8ff" d="M1584.92,-204.02C1574.14,-207.31 1562.99,-210.7 1552.53,-213.9"/>
<polygon fill="#63b8ff" stroke="#63b8ff" points="1586.14,-207.3 1594.69,-201.04 1584.1,-200.61 1586.14,-207.3"/>
</a>
</g>
</g>
<!-- Node17 -->
<g id="Node000017" class="node">
<title>Node17</title>
<g id="a_Node000017"><a xlink:href="classinja_1_1Environment.html#aa46ccc27cc803933e0bfc9f58bba389c" target="_top" xlink:title=" ">
<polygon fill="white" stroke="#666666" points="1556.5,-158 1447.5,-158 1447.5,-128 1556.5,-128 1556.5,-158"/>
<text text-anchor="start" x="1455.5" y="-146" font-family="Helvetica,sans-Serif" font-size="10.00">inja::Environment::</text>
<text text-anchor="middle" x="1502" y="-135" font-family="Helvetica,sans-Serif" font-size="10.00">parse_template</text>
</a>
</g>
</g>
<!-- Node2&#45;&gt;Node17 -->
<g id="edge17_Node000002_Node000017" class="edge">
<title>Node2&#45;&gt;Node17</title>
<g id="a_edge17_Node000002_Node000017"><a xlink:title=" ">
<path fill="none" stroke="#63b8ff" d="M1584.92,-167.98C1574.14,-164.69 1562.99,-161.3 1552.53,-158.1"/>
<polygon fill="#63b8ff" stroke="#63b8ff" points="1584.1,-171.39 1594.69,-170.96 1586.14,-164.7 1584.1,-171.39"/>
</a>
</g>
</g>
<!-- Node4 -->
<g id="Node000004" class="node">
<title>Node4</title>
<g id="a_Node000004"><a xlink:href="classinja_1_1Parser.html#a5a26bdcce0ae076bf010ee7442d8928e" target="_top" xlink:title=" ">
<polygon fill="white" stroke="#666666" points="1408.5,-244 1304.5,-244 1304.5,-214 1408.5,-214 1408.5,-244"/>
<text text-anchor="start" x="1312.5" y="-232" font-family="Helvetica,sans-Serif" font-size="10.00">inja::Parser::parse</text>
<text text-anchor="middle" x="1356.5" y="-221" font-family="Helvetica,sans-Serif" font-size="10.00">_statement</text>
</a>
</g>
</g>
<!-- Node3&#45;&gt;Node4 -->
<g id="edge3_Node000003_Node000004" class="edge">
<title>Node3&#45;&gt;Node4</title>
<g id="a_edge3_Node000003_Node000004"><a xlink:title=" ">
<path fill="none" stroke="#63b8ff" d="M1436.63,-229C1427.21,-229 1417.62,-229 1408.51,-229"/>
<polygon fill="#63b8ff" stroke="#63b8ff" points="1436.75,-232.5 1446.75,-229 1436.75,-225.5 1436.75,-232.5"/>
</a>
</g>
</g>
<!-- Node5 -->
<g id="Node000005" class="node">
<title>Node5</title>
<g id="a_Node000005"><a xlink:href="classinja_1_1Parser.html#a9a561141f71073df671b2b7ecb4608ba" target="_top" xlink:title=" ">
<polygon fill="white" stroke="#666666" points="1259,-233.5 1131,-233.5 1131,-214.5 1259,-214.5 1259,-233.5"/>
<text text-anchor="middle" x="1195" y="-221.5" font-family="Helvetica,sans-Serif" font-size="10.00">inja::Parser::parse_into</text>
</a>
</g>
</g>
<!-- Node4&#45;&gt;Node5 -->
<g id="edge4_Node000004_Node000005" class="edge">
<title>Node4&#45;&gt;Node5</title>
<g id="a_edge4_Node000004_Node000005"><a xlink:title=" ">
<path fill="none" stroke="#63b8ff" d="M1293.9,-227.07C1282.54,-226.71 1270.67,-226.34 1259.26,-225.98"/>
<polygon fill="#63b8ff" stroke="#63b8ff" points="1294.05,-230.58 1304.16,-227.39 1294.27,-223.58 1294.05,-230.58"/>
</a>
</g>
</g>
<!-- Node5&#45;&gt;Node2 -->
<g id="edge16_Node000005_Node000002" class="edge">
<title>Node5&#45;&gt;Node2</title>
<g id="a_edge16_Node000005_Node000002"><a xlink:title=" ">
<path fill="none" stroke="#63b8ff" d="M1252.27,-212.6C1268.28,-209.71 1285.78,-206.9 1302,-205 1404.77,-192.98 1525.83,-188.52 1592.84,-186.9"/>
<polygon fill="#63b8ff" stroke="#63b8ff" points="1251.19,-209.24 1241.99,-214.5 1252.46,-216.12 1251.19,-209.24"/>
</a>
</g>
</g>
<!-- Node6 -->
<g id="Node000006" class="node">
<title>Node6</title>
<g id="a_Node000006"><a xlink:href="classinja_1_1Parser.html#a0f1312b0bf8691aba6cc4590169902fc" target="_top" xlink:title=" ">
<polygon fill="white" stroke="#666666" points="1083,-233.5 979,-233.5 979,-214.5 1083,-214.5 1083,-233.5"/>
<text text-anchor="middle" x="1031" y="-221.5" font-family="Helvetica,sans-Serif" font-size="10.00">inja::Parser::parse</text>
</a>
</g>
</g>
<!-- Node5&#45;&gt;Node6 -->
<g id="edge5_Node000005_Node000006" class="edge">
<title>Node5&#45;&gt;Node6</title>
<g id="a_edge5_Node000005_Node000006"><a xlink:title=" ">
<path fill="none" stroke="#63b8ff" d="M1120.79,-224C1108.09,-224 1095.12,-224 1083.16,-224"/>
<polygon fill="#63b8ff" stroke="#63b8ff" points="1120.9,-227.5 1130.9,-224 1120.9,-220.5 1120.9,-227.5"/>
</a>
</g>
</g>
<!-- Node7 -->
<g id="Node000007" class="node">
<title>Node7</title>
<g id="a_Node000007"><a xlink:href="classinja_1_1Environment.html#a8421b8d61fc4de15f29c909bd7154f92" target="_top" xlink:title=" ">
<polygon fill="white" stroke="#666666" points="938,-239 829,-239 829,-209 938,-209 938,-239"/>
<text text-anchor="start" x="837" y="-227" font-family="Helvetica,sans-Serif" font-size="10.00">inja::Environment::</text>
<text text-anchor="middle" x="883.5" y="-216" font-family="Helvetica,sans-Serif" font-size="10.00">parse</text>
</a>
</g>
</g>
<!-- Node6&#45;&gt;Node7 -->
<g id="edge6_Node000006_Node000007" class="edge">
<title>Node6&#45;&gt;Node7</title>
<g id="a_edge6_Node000006_Node000007"><a xlink:title=" ">
<path fill="none" stroke="#63b8ff" d="M968.41,-224C958.4,-224 948.1,-224 938.29,-224"/>
<polygon fill="#63b8ff" stroke="#63b8ff" points="968.7,-227.5 978.7,-224 968.7,-220.5 968.7,-227.5"/>
</a>
</g>
</g>
<!-- Node8 -->
<g id="Node000008" class="node">
<title>Node8</title>
<g id="a_Node000008"><a xlink:href="classinja_1_1Environment.html#aac36e0cfdc9e7926914e46c0cd1caada" target="_top" xlink:title=" ">
<polygon fill="white" stroke="#666666" points="793,-260 684,-260 684,-230 793,-230 793,-260"/>
<text text-anchor="start" x="692" y="-248" font-family="Helvetica,sans-Serif" font-size="10.00">inja::Environment::</text>
<text text-anchor="middle" x="738.5" y="-237" font-family="Helvetica,sans-Serif" font-size="10.00">render</text>
</a>
</g>
</g>
<!-- Node7&#45;&gt;Node8 -->
<g id="edge7_Node000007_Node000008" class="edge">
<title>Node7&#45;&gt;Node8</title>
<g id="a_edge7_Node000007_Node000008"><a xlink:title=" ">
<path fill="none" stroke="#63b8ff" d="M818.68,-233.37C810.25,-234.61 801.69,-235.87 793.46,-237.08"/>
<polygon fill="#63b8ff" stroke="#63b8ff" points="819.46,-236.8 828.85,-231.88 818.44,-229.87 819.46,-236.8"/>
</a>
</g>
</g>
<!-- Node16 -->
<g id="Node000016" class="node">
<title>Node16</title>
<g id="a_Node000016"><a xlink:href="namespaceinja.html#a996f16f78b37d05e19cf44ac74d83e7e" target="_top" xlink:title="render with default settings to the given output stream">
<polygon fill="white" stroke="#666666" points="782,-211.5 695,-211.5 695,-192.5 782,-192.5 782,-211.5"/>
<text text-anchor="middle" x="738.5" y="-199.5" font-family="Helvetica,sans-Serif" font-size="10.00">inja::render_to</text>
</a>
</g>
</g>
<!-- Node7&#45;&gt;Node16 -->
<g id="edge15_Node000007_Node000016" class="edge">
<title>Node7&#45;&gt;Node16</title>
<g id="a_edge15_Node000007_Node000016"><a xlink:title=" ">
<path fill="none" stroke="#63b8ff" d="M818.62,-214.17C806.32,-212.28 793.72,-210.34 782.29,-208.58"/>
<polygon fill="#63b8ff" stroke="#63b8ff" points="818.43,-217.68 828.85,-215.75 819.49,-210.77 818.43,-217.68"/>
</a>
</g>
</g>
<!-- Node9 -->
<g id="Node000009" class="node">
<title>Node9</title>
<g id="a_Node000009"><a xlink:href="classmqtt_1_1lib_1_1MqttMapper.html#a04261a968a945934ebf3518733c62b7d" target="_top" xlink:title=" ">
<polygon fill="white" stroke="#666666" points="648,-281 506,-281 506,-251 648,-251 648,-281"/>
<text text-anchor="start" x="514" y="-269" font-family="Helvetica,sans-Serif" font-size="10.00">mqtt::lib::MqttMapper</text>
<text text-anchor="middle" x="577" y="-258" font-family="Helvetica,sans-Serif" font-size="10.00">::publishMappedTemplate</text>
</a>
</g>
</g>
<!-- Node8&#45;&gt;Node9 -->
<g id="edge8_Node000008_Node000009" class="edge">
<title>Node8&#45;&gt;Node9</title>
<g id="a_edge8_Node000008_Node000009"><a xlink:title=" ">
<path fill="none" stroke="#63b8ff" d="M673.8,-253.39C665.36,-254.5 656.67,-255.64 648.13,-256.77"/>
<polygon fill="#63b8ff" stroke="#63b8ff" points="674.49,-256.83 683.95,-252.05 673.57,-249.89 674.49,-256.83"/>
</a>
</g>
</g>
<!-- Node15 -->
<g id="Node000015" class="node">
<title>Node15</title>
<g id="a_Node000015"><a xlink:href="namespaceinja.html#a539106781b52cc6117fc132f927a9dec" target="_top" xlink:title="render with default settings to a string">
<polygon fill="white" stroke="#666666" points="613,-232.5 541,-232.5 541,-213.5 613,-213.5 613,-232.5"/>
<text text-anchor="middle" x="577" y="-220.5" font-family="Helvetica,sans-Serif" font-size="10.00">inja::render</text>
</a>
</g>
</g>
<!-- Node8&#45;&gt;Node15 -->
<g id="edge14_Node000008_Node000015" class="edge">
<title>Node8&#45;&gt;Node15</title>
<g id="a_edge14_Node000008_Node000015"><a xlink:title=" ">
<path fill="none" stroke="#63b8ff" d="M673.92,-236.23C653.2,-233.37 630.96,-230.3 613.11,-227.84"/>
<polygon fill="#63b8ff" stroke="#63b8ff" points="673.56,-239.71 683.95,-237.61 674.52,-232.78 673.56,-239.71"/>
</a>
</g>
</g>
<!-- Node10 -->
<g id="Node000010" class="node">
<title>Node10</title>
<g id="a_Node000010"><a xlink:href="classmqtt_1_1lib_1_1MqttMapper.html#aae1c8da19646ae1ada8d497fef0df12d" target="_top" xlink:title=" ">
<polygon fill="white" stroke="#666666" points="470,-281 323,-281 323,-251 470,-251 470,-281"/>
<text text-anchor="start" x="331" y="-269" font-family="Helvetica,sans-Serif" font-size="10.00">mqtt::lib::MqttMapper</text>
<text text-anchor="middle" x="396.5" y="-258" font-family="Helvetica,sans-Serif" font-size="10.00">::publishMappedTemplates</text>
</a>
</g>
</g>
<!-- Node9&#45;&gt;Node10 -->
<g id="edge9_Node000009_Node000010" class="edge">
<title>Node9&#45;&gt;Node10</title>
<g id="a_edge9_Node000009_Node000010"><a xlink:title=" ">
<path fill="none" stroke="#63b8ff" d="M495.7,-266C487.23,-266 478.65,-266 470.27,-266"/>
<polygon fill="#63b8ff" stroke="#63b8ff" points="495.96,-269.5 505.96,-266 495.96,-262.5 495.96,-269.5"/>
</a>
</g>
</g>
<!-- Node11 -->
<g id="Node000011" class="node">
<title>Node11</title>
<g id="a_Node000011"><a xlink:href="classmqtt_1_1lib_1_1MqttMapper.html#a279b13d33784be36c0b524a8796e194a" target="_top" xlink:title=" ">
<polygon fill="white" stroke="#666666" points="287,-281 164,-281 164,-251 287,-251 287,-281"/>
<text text-anchor="start" x="172" y="-269" font-family="Helvetica,sans-Serif" font-size="10.00">mqtt::lib::MqttMapper</text>
<text text-anchor="middle" x="225.5" y="-258" font-family="Helvetica,sans-Serif" font-size="10.00">::publishMappings</text>
</a>
</g>
</g>
<!-- Node10&#45;&gt;Node11 -->
<g id="edge10_Node000010_Node000011" class="edge">
<title>Node10&#45;&gt;Node11</title>
<g id="a_edge10_Node000010_Node000011"><a xlink:title=" ">
<path fill="none" stroke="#63b8ff" d="M312.75,-266C304.13,-266 295.48,-266 287.16,-266"/>
<polygon fill="#63b8ff" stroke="#63b8ff" points="312.85,-269.5 322.85,-266 312.85,-262.5 312.85,-269.5"/>
</a>
</g>
</g>
<!-- Node12 -->
<g id="Node000012" class="node">
<title>Node12</title>
<g id="a_Node000012"><a xlink:href="classmqtt_1_1mqttbroker_1_1lib_1_1Mqtt.html#a35dd670ca3b7d67cffbbce1cf7c71ffb" target="_top" xlink:title=" ">
<polygon fill="white" stroke="#666666" points="123,-329 5,-329 5,-299 123,-299 123,-329"/>
<text text-anchor="start" x="13" y="-317" font-family="Helvetica,sans-Serif" font-size="10.00">mqtt::mqttbroker::lib</text>
<text text-anchor="middle" x="64" y="-306" font-family="Helvetica,sans-Serif" font-size="10.00">::Mqtt::onPublish</text>
</a>
</g>
</g>
<!-- Node11&#45;&gt;Node12 -->
<g id="edge11_Node000011_Node000012" class="edge">
<title>Node11&#45;&gt;Node12</title>
<g id="a_edge11_Node000011_Node000012"><a xlink:title=" ">
<path fill="none" stroke="#63b8ff" d="M164.47,-284.07C148.11,-288.99 130.57,-294.27 114.85,-299"/>
<polygon fill="#63b8ff" stroke="#63b8ff" points="165.9,-287.29 174.47,-281.06 163.89,-280.59 165.9,-287.29"/>
</a>
</g>
</g>
<!-- Node13 -->
<g id="Node000013" class="node">
<title>Node13</title>
<g id="a_Node000013"><a xlink:href="classmqtt_1_1mqttintegrator_1_1lib_1_1Mqtt.html#a211408365844787ce77340f454b9cbd0" target="_top" xlink:title=" ">
<polygon fill="white" stroke="#666666" points="122.5,-281 5.5,-281 5.5,-251 122.5,-251 122.5,-281"/>
<text text-anchor="start" x="13.5" y="-269" font-family="Helvetica,sans-Serif" font-size="10.00">mqtt::mqttintegrator</text>
<text text-anchor="middle" x="64" y="-258" font-family="Helvetica,sans-Serif" font-size="10.00">::lib::Mqtt::onPublish</text>
</a>
</g>
</g>
<!-- Node11&#45;&gt;Node13 -->
<g id="edge12_Node000011_Node000013" class="edge">
<title>Node11&#45;&gt;Node13</title>
<g id="a_edge12_Node000011_Node000013"><a xlink:title=" ">
<path fill="none" stroke="#63b8ff" d="M153.52,-266C143.21,-266 132.7,-266 122.7,-266"/>
<polygon fill="#63b8ff" stroke="#63b8ff" points="153.74,-269.5 163.74,-266 153.74,-262.5 153.74,-269.5"/>
</a>
</g>
</g>
<!-- Node14 -->
<g id="Node000014" class="node">
<title>Node14</title>
<g id="a_Node000014"><a xlink:href="classmqtt_1_1mqttbroker_1_1lib_1_1Mqtt.html#a3426a2c9d850ad17f0134580a09d9527" target="_top" xlink:title=" ">
<polygon fill="white" stroke="#666666" points="128,-233 0,-233 0,-203 128,-203 128,-233"/>
<text text-anchor="start" x="8" y="-221" font-family="Helvetica,sans-Serif" font-size="10.00">mqtt::mqttbroker::lib</text>
<text text-anchor="middle" x="64" y="-210" font-family="Helvetica,sans-Serif" font-size="10.00">::Mqtt::publishMapping</text>
</a>
</g>
</g>
<!-- Node11&#45;&gt;Node14 -->
<g id="edge13_Node000011_Node000014" class="edge">
<title>Node11&#45;&gt;Node14</title>
<g id="a_edge13_Node000011_Node000014"><a xlink:title=" ">
<path fill="none" stroke="#63b8ff" d="M164.47,-247.93C148.11,-243.01 130.57,-237.73 114.85,-233"/>
<polygon fill="#63b8ff" stroke="#63b8ff" points="163.89,-251.41 174.47,-250.94 165.9,-244.71 163.89,-251.41"/>
</a>
</g>
</g>
<!-- Node18 -->
<g id="Node000018" class="node">
<title>Node18</title>
<g id="a_Node000018"><a xlink:href="classinja_1_1Environment.html#a988701e4eb7fef51f2a3bd5ec74dd156" target="_top" xlink:title=" ">
<polygon fill="white" stroke="#666666" points="1411,-158 1302,-158 1302,-128 1411,-128 1411,-158"/>
<text text-anchor="start" x="1310" y="-146" font-family="Helvetica,sans-Serif" font-size="10.00">inja::Environment::</text>
<text text-anchor="middle" x="1356.5" y="-135" font-family="Helvetica,sans-Serif" font-size="10.00">parse_file</text>
</a>
</g>
</g>
<!-- Node17&#45;&gt;Node18 -->
<g id="edge18_Node000017_Node000018" class="edge">
<title>Node17&#45;&gt;Node18</title>
<g id="a_edge18_Node000017_Node000018"><a xlink:title=" ">
<path fill="none" stroke="#63b8ff" d="M1437.09,-143C1428.44,-143 1419.62,-143 1411.17,-143"/>
<polygon fill="#63b8ff" stroke="#63b8ff" points="1437.16,-146.5 1447.16,-143 1437.16,-139.5 1437.16,-146.5"/>
</a>
</g>
</g>
<!-- Node19 -->
<g id="Node000019" class="node">
<title>Node19</title>
<g id="a_Node000019"><a xlink:href="classinja_1_1Environment.html#aaefdd9061b23f1764056689fe8c31e30" target="_top" xlink:title=" ">
<polygon fill="white" stroke="#666666" points="1411,-110 1302,-110 1302,-80 1411,-80 1411,-110"/>
<text text-anchor="start" x="1310" y="-98" font-family="Helvetica,sans-Serif" font-size="10.00">inja::Environment::</text>
<text text-anchor="middle" x="1356.5" y="-87" font-family="Helvetica,sans-Serif" font-size="10.00">render_file</text>
</a>
</g>
</g>
<!-- Node17&#45;&gt;Node19 -->
<g id="edge19_Node000017_Node000019" class="edge">
<title>Node17&#45;&gt;Node19</title>
<g id="a_edge19_Node000017_Node000019"><a xlink:title=" ">
<path fill="none" stroke="#63b8ff" d="M1446.15,-124.65C1431.68,-119.81 1416.23,-114.64 1402.35,-110"/>
<polygon fill="#63b8ff" stroke="#63b8ff" points="1445.4,-128.09 1455.99,-127.94 1447.62,-121.45 1445.4,-128.09"/>
</a>
</g>
</g>
<!-- Node20 -->
<g id="Node000020" class="node">
<title>Node20</title>
<g id="a_Node000020"><a xlink:href="mqttbroker_8cpp.html#a049b5c955e78f60110433ce59da71607" target="_top" xlink:title=" ">
<polygon fill="white" stroke="#666666" points="1244,-141.5 1146,-141.5 1146,-122.5 1244,-122.5 1244,-141.5"/>
<text text-anchor="middle" x="1195" y="-129.5" font-family="Helvetica,sans-Serif" font-size="10.00">getDetailedPage</text>
</a>
</g>
</g>
<!-- Node19&#45;&gt;Node20 -->
<g id="edge20_Node000019_Node000020" class="edge">
<title>Node19&#45;&gt;Node20</title>
<g id="a_edge20_Node000019_Node000020"><a xlink:title=" ">
<path fill="none" stroke="#63b8ff" d="M1292.1,-109.71C1273.57,-114.01 1253.81,-118.59 1237.05,-122.48"/>
<polygon fill="#63b8ff" stroke="#63b8ff" points="1292.99,-113.09 1301.95,-107.42 1291.41,-106.27 1292.99,-113.09"/>
</a>
</g>
</g>
<!-- Node23 -->
<g id="Node000023" class="node">
<title>Node23</title>
<g id="a_Node000023"><a xlink:href="mqttbroker_8cpp.html#ad9d315824898337732fd1b67f05846c9" target="_top" xlink:title=" ">
<polygon fill="white" stroke="#666666" points="1246.5,-104.5 1143.5,-104.5 1143.5,-85.5 1246.5,-85.5 1246.5,-104.5"/>
<text text-anchor="middle" x="1195" y="-92.5" font-family="Helvetica,sans-Serif" font-size="10.00">getOverviewPage</text>
</a>
</g>
</g>
<!-- Node19&#45;&gt;Node23 -->
<g id="edge23_Node000019_Node000023" class="edge">
<title>Node19&#45;&gt;Node23</title>
<g id="a_edge23_Node000019_Node000023"><a xlink:title=" ">
<path fill="none" stroke="#63b8ff" d="M1291.74,-95C1276.77,-95 1261.02,-95 1246.72,-95"/>
<polygon fill="#63b8ff" stroke="#63b8ff" points="1291.95,-98.5 1301.95,-95 1291.95,-91.5 1291.95,-98.5"/>
</a>
</g>
</g>
<!-- Node24 -->
<g id="Node000024" class="node">
<title>Node24</title>
<g id="a_Node000024"><a xlink:href="mqttbroker_8cpp.html#adaabce72814f1277ee38fab80aaa1f34" target="_top" xlink:title=" ">
<polygon fill="white" stroke="#666666" points="1262,-67.5 1128,-67.5 1128,-48.5 1262,-48.5 1262,-67.5"/>
<text text-anchor="middle" x="1195" y="-55.5" font-family="Helvetica,sans-Serif" font-size="10.00">getRedirectSpinnerPage</text>
</a>
</g>
</g>
<!-- Node19&#45;&gt;Node24 -->
<g id="edge25_Node000019_Node000024" class="edge">
<title>Node19&#45;&gt;Node24</title>
<g id="a_edge25_Node000019_Node000024"><a xlink:title=" ">
<path fill="none" stroke="#63b8ff" d="M1292.1,-80.29C1273.57,-75.99 1253.81,-71.41 1237.05,-67.52"/>
<polygon fill="#63b8ff" stroke="#63b8ff" points="1291.41,-83.73 1301.95,-82.58 1292.99,-76.91 1291.41,-83.73"/>
</a>
</g>
</g>
<!-- Node25 -->
<g id="Node000025" class="node">
<title>Node25</title>
<g id="a_Node000025"><a xlink:href="classinja_1_1Environment.html#a6e6c345cd66ebdfe8a9d47d59efb5e84" target="_top" xlink:title=" ">
<polygon fill="white" stroke="#666666" points="1266,-30 1124,-30 1124,0 1266,0 1266,-30"/>
<text text-anchor="start" x="1132" y="-18" font-family="Helvetica,sans-Serif" font-size="10.00">inja::Environment::</text>
<text text-anchor="middle" x="1195" y="-7" font-family="Helvetica,sans-Serif" font-size="10.00">render_file_with_json_file</text>
</a>
</g>
</g>
<!-- Node19&#45;&gt;Node25 -->
<g id="edge27_Node000019_Node000025" class="edge">
<title>Node19&#45;&gt;Node25</title>
<g id="a_edge27_Node000019_Node000025"><a xlink:title=" ">
<path fill="none" stroke="#63b8ff" d="M1326.19,-74.27C1309.16,-62.85 1286.99,-49 1266,-39 1259.27,-35.79 1252,-32.81 1244.78,-30.11"/>
<polygon fill="#63b8ff" stroke="#63b8ff" points="1324.35,-77.25 1334.58,-79.99 1328.29,-71.47 1324.35,-77.25"/>
</a>
</g>
</g>
<!-- Node26 -->
<g id="Node000026" class="node">
<title>Node26</title>
<g id="a_Node000026"><a xlink:href="classinja_1_1Environment.html#ab9334d7f4ebb85f36dcc27e1ecae2f3d" target="_top" xlink:title=" ">
<polygon fill="white" stroke="#666666" points="1249.5,-190 1140.5,-190 1140.5,-160 1249.5,-160 1249.5,-190"/>
<text text-anchor="start" x="1148.5" y="-178" font-family="Helvetica,sans-Serif" font-size="10.00">inja::Environment::</text>
<text text-anchor="middle" x="1195" y="-167" font-family="Helvetica,sans-Serif" font-size="10.00">write</text>
</a>
</g>
</g>
<!-- Node19&#45;&gt;Node26 -->
<g id="edge28_Node000019_Node000026" class="edge">
<title>Node19&#45;&gt;Node26</title>
<g id="a_edge28_Node000019_Node000026"><a xlink:title=" ">
<path fill="none" stroke="#63b8ff" d="M1308.75,-114.92C1306.43,-116.24 1304.17,-117.6 1302,-119 1284.03,-130.63 1284.49,-140.21 1266,-151 1260.23,-154.37 1253.92,-157.36 1247.52,-159.99"/>
<polygon fill="#63b8ff" stroke="#63b8ff" points="1310.68,-117.87 1317.89,-110.11 1307.41,-111.67 1310.68,-117.87"/>
</a>
</g>
</g>
<!-- Node21 -->
<g id="Node000021" class="node">
<title>Node21</title>
<g id="a_Node000021"><a xlink:href="mqttbroker_8cpp.html#a760fc46c377e0486748aceb5686e3741" target="_top" xlink:title=" ">
<polygon fill="white" stroke="#666666" points="1063.5,-104.5 998.5,-104.5 998.5,-85.5 1063.5,-85.5 1063.5,-104.5"/>
<text text-anchor="middle" x="1031" y="-92.5" font-family="Helvetica,sans-Serif" font-size="10.00">getRouter</text>
</a>
</g>
</g>
<!-- Node20&#45;&gt;Node21 -->
<g id="edge21_Node000020_Node000021" class="edge">
<title>Node20&#45;&gt;Node21</title>
<g id="a_edge21_Node000020_Node000021"><a xlink:title=" ">
<path fill="none" stroke="#63b8ff" d="M1142.26,-120.18C1116.4,-114.28 1085.94,-107.32 1063.6,-102.22"/>
<polygon fill="#63b8ff" stroke="#63b8ff" points="1141.75,-123.66 1152.28,-122.47 1143.31,-116.83 1141.75,-123.66"/>
</a>
</g>
</g>
<!-- Node22 -->
<g id="Node000022" class="node">
<title>Node22</title>
<g id="a_Node000022"><a xlink:href="mqttbroker_8cpp.html#a0ddf1224851353fc92bfbff6f499fa97" target="_top" xlink:title=" ">
<polygon fill="white" stroke="#666666" points="904,-104.5 863,-104.5 863,-85.5 904,-85.5 904,-104.5"/>
<text text-anchor="middle" x="883.5" y="-92.5" font-family="Helvetica,sans-Serif" font-size="10.00">main</text>
</a>
</g>
</g>
<!-- Node21&#45;&gt;Node22 -->
<g id="edge22_Node000021_Node000022" class="edge">
<title>Node21&#45;&gt;Node22</title>
<g id="a_edge22_Node000021_Node000022"><a xlink:title=" ">
<path fill="none" stroke="#63b8ff" d="M988.27,-95C960.72,-95 925.87,-95 904.39,-95"/>
<polygon fill="#63b8ff" stroke="#63b8ff" points="988.43,-98.5 998.43,-95 988.43,-91.5 988.43,-98.5"/>
</a>
</g>
</g>
<!-- Node23&#45;&gt;Node21 -->
<g id="edge24_Node000023_Node000021" class="edge">
<title>Node23&#45;&gt;Node21</title>
<g id="a_edge24_Node000023_Node000021"><a xlink:title=" ">
<path fill="none" stroke="#63b8ff" d="M1132.93,-95C1109.4,-95 1083.48,-95 1063.79,-95"/>
<polygon fill="#63b8ff" stroke="#63b8ff" points="1133.19,-98.5 1143.19,-95 1133.19,-91.5 1133.19,-98.5"/>
</a>
</g>
</g>
<!-- Node24&#45;&gt;Node21 -->
<g id="edge26_Node000024_Node000021" class="edge">
<title>Node24&#45;&gt;Node21</title>
<g id="a_edge26_Node000024_Node000021"><a xlink:title=" ">
<path fill="none" stroke="#63b8ff" d="M1142.26,-69.82C1116.4,-75.72 1085.94,-82.68 1063.6,-87.78"/>
<polygon fill="#63b8ff" stroke="#63b8ff" points="1143.31,-73.17 1152.28,-67.53 1141.75,-66.34 1143.31,-73.17"/>
</a>
</g>
</g>
<!-- Node27 -->
<g id="Node000027" class="node">
<title>Node27</title>
<g id="a_Node000027"><a xlink:href="classinja_1_1Environment.html#ad3e8c39b341641a872e62010693c27c3" target="_top" xlink:title=" ">
<polygon fill="white" stroke="#666666" points="1088,-190 974,-190 974,-160 1088,-160 1088,-190"/>
<text text-anchor="start" x="982" y="-178" font-family="Helvetica,sans-Serif" font-size="10.00">inja::Environment::</text>
<text text-anchor="middle" x="1031" y="-167" font-family="Helvetica,sans-Serif" font-size="10.00">write_with_json_file</text>
</a>
</g>
</g>
<!-- Node26&#45;&gt;Node27 -->
<g id="edge29_Node000026_Node000027" class="edge">
<title>Node26&#45;&gt;Node27</title>
<g id="a_edge29_Node000026_Node000027"><a xlink:title=" ">
<path fill="none" stroke="#63b8ff" d="M1129.72,-175C1115.99,-175 1101.6,-175 1088.2,-175"/>
<polygon fill="#63b8ff" stroke="#63b8ff" points="1130.06,-178.5 1140.06,-175 1130.06,-171.5 1130.06,-178.5"/>
</a>
</g>
</g>
</g>
</svg>

<g id="navigator" transform="translate(0 0)" fill="#404254">
  <rect fill="#f2f5e9" fill-opacity="0.5" stroke="#606060" stroke-width=".5" x="0" y="0" width="60" height="60"/>
  <use id="zoomplus" xlink:href="#zoomPlus" x="17" y="9" onmousedown="handleZoom(evt,'in')"/>
  <use id="zoomminus" xlink:href="#zoomMin" x="42" y="9" onmousedown="handleZoom(evt,'out')"/>
  <use id="reset" xlink:href="#resetDef" x="30" y="36" onmousedown="handleReset()"/>
   <use id="arrowup" xlink:href="#arrowUp" x="0" y="0" onmousedown="handlePan(0,-1)"/>
  <use id="arrowright" xlink:href="#arrowRight" x="0" y="0" onmousedown="handlePan(1,0)"/>
  <use id="arrowdown" xlink:href="#arrowDown" x="0" y="0" onmousedown="handlePan(0,1)"/>
  <use id="arrowleft" xlink:href="#arrowLeft" x="0" y="0" onmousedown="handlePan(-1,0)"/>
</g>
<svg viewBox="0 0 15 15" width="100%" height="30px" preserveAspectRatio="xMaxYMin meet">
 <g id="arrow_out" transform="scale(0.3 0.3)">
  <a xlink:href="classinja_1_1Lexer_a2db4f5d064131f1205960c11de0ea5aa_icgraph_org.svg" target="_base">
   <rect id="button" ry="5" rx="5" y="6" x="6" height="38" width="38"
        fill="#f2f5e9" fill-opacity="0.5" stroke="#606060" stroke-width="1.0"/>
   <path id="arrow"
     d="M 11.500037,31.436501 C 11.940474,20.09759 22.043105,11.32322 32.158766,21.979434 L 37.068811,17.246167 C 37.068811,17.246167 37.088388,32 37.088388,32 L 22.160133,31.978069 C 22.160133,31.978069 26.997745,27.140456 26.997745,27.140456 C 18.528582,18.264221 13.291696,25.230495 11.500037,31.436501 z"
     style="fill:#404040;"/>
  </a>
 </g>
</svg>

<style type='text/css'>
<![CDATA[
[data-mouse-over-selected='false'] { opacity: 0.7; }
[data-mouse-over-selected='true']  { opacity: 1.0; }
]]>
</style>
<script type="application/ecmascript"><![CDATA[
document.addEventListener('DOMContentLoaded', (event) => {
  highlightEdges();
  highlightAdjacentNodes();
});
]]></script>
</svg>
