<?xml version="1.0" encoding="UTF-8" standalone="no"?>
<!DOCTYPE svg PUBLIC "-//W3C//DTD SVG 1.1//EN"
 "http://www.w3.org/Graphics/SVG/1.1/DTD/svg11.dtd">
<!-- Generated by graphviz version 2.42.4 (0)
 -->
<!-- Title: mqtt::lib::MqttMapper Pages: 1 -->
<!--zoomable 956 -->

<svg id="main" version="1.1" xmlns="http://www.w3.org/2000/svg" xmlns:xlink="http://www.w3.org/1999/xlink" xml:space="preserve" onload="init(evt)">
<style type="text/css"><![CDATA[
.node, .edge {opacity: 0.7;}
.node.selected, .edge.selected {opacity: 1;}
.edge:hover path { stroke: red; }
.edge:hover polygon { stroke: red; fill: red; }
]]></style>

<defs>
  <circle id="rim" cx="0" cy="0" r="7"/>
  <circle id="rim2" cx="0" cy="0" r="3.5"/>
  <g id="zoomPlus">
    <use xlink:href="#rim" fill="#404040"><set attributeName="fill" to="#808080" begin="zoomplus.mouseover" end="zoomplus.mouseout"/></use>
    <path d="M-4,0h8M0,-4v8" fill="none" stroke="white" stroke-width="1.5" pointer-events="none"/>
  </g>
  <g id="zoomMin">
    <use xlink:href="#rim" fill="#404040"><set attributeName="fill" to="#808080" begin="zoomminus.mouseover" end="zoomminus.mouseout"/></use>
    <path d="M-4,0h8" fill="none" stroke="white" stroke-width="1.5" pointer-events="none"/>
  </g>
  <g id="arrowUp" transform="translate(30 24)">
    <use xlink:href="#rim"/>
    <path pointer-events="none" fill="none" stroke="white" stroke-width="1.5" d="M0,-3.0v7 M-2.5,-0.5L0,-3.0L2.5,-0.5"/>
  </g>
  <g id="arrowRight" transform="rotate(90) translate(36 -43)">
    <use xlink:href="#rim"/>
    <path pointer-events="none" fill="none" stroke="white" stroke-width="1.5" d="M0,-3.0v7 M-2.5,-0.5L0,-3.0L2.5,-0.5"/>
  </g>
  <g id="arrowDown" transform="rotate(180) translate(-30 -48)">
    <use xlink:href="#rim"/>
    <path pointer-events="none" fill="none" stroke="white" stroke-width="1.5" d="M0,-3.0v7 M-2.5,-0.5L0,-3.0L2.5,-0.5"/>
  </g>
  <g id="arrowLeft" transform="rotate(270) translate(-36 17)">
    <use xlink:href="#rim"/>
    <path pointer-events="none" fill="none" stroke="white" stroke-width="1.5" d="M0,-3.0v7 M-2.5,-0.5L0,-3.0L2.5,-0.5"/>
  </g>
  <g id="resetDef">
    <use xlink:href="#rim2" fill="#404040"><set attributeName="fill" to="#808080" begin="reset.mouseover" end="reset.mouseout"/></use>
  </g>
</defs>
<script type="application/ecmascript">
var viewWidth = 977;
var viewHeight = 956;
var sectionId = 'dynsection-1';
</script>
<script type="application/ecmascript" xlink:href="svg.min.js"/>
<svg id="graph" class="graph">
<g id="viewport">
<title>mqtt::lib::MqttMapper</title>
<!-- Node1 -->
<g id="Node000001" class="node">
<title>Node1</title>
<g id="a_Node000001"><a xlink:title=" ">
<polygon fill="#999999" stroke="transparent" points="595.56,-19 479.56,-19 479.56,0 595.56,0 595.56,-19"/>
<text text-anchor="start" x="484.06" y="-6.5" font-family="Helvetica,sans-Serif" font-size="10.00">mqtt::lib::MqttMapper</text>
<polygon fill="none" stroke="#666666" points="479.56,0 479.56,-19 595.56,-19 595.56,0 479.56,0"/>
</a>
</g>
</g>
<!-- Node2 -->
<g id="Node000002" class="node">
<title>Node2</title>
<g id="a_Node000002"><a xlink:title=" ">
<polygon fill="white" stroke="transparent" points="535.56,-85 439.56,-85 439.56,-66 535.56,-66 535.56,-85"/>
<text text-anchor="start" x="443.56" y="-72.5" font-family="Helvetica,sans-Serif" font-size="10.00">std::list&lt; void * &gt;</text>
<polygon fill="none" stroke="#666666" points="439.56,-66 439.56,-85 535.56,-85 535.56,-66 439.56,-66"/>
</a>
</g>
</g>
<!-- Node2&#45;&gt;Node1 -->
<g id="edge1_Node000001_Node000002" class="edge">
<title>Node2&#45;&gt;Node1</title>
<g id="a_edge1_Node000001_Node000002"><a xlink:title=" ">
<path fill="none" stroke="#63b8ff" d="M487.54,-65.7C487.94,-57.58 489.61,-45.52 495.56,-37 498.55,-32.7 502.49,-28.95 506.76,-25.73"/>
<polygon fill="none" stroke="#63b8ff" points="506.91,-25.64 509.81,-19.04 517.02,-19.17 514.12,-25.78 506.91,-25.64"/>
</a>
</g>
<text text-anchor="middle" x="534.06" y="-40" font-family="Helvetica,sans-Serif" font-size="10.00" fill="grey"> &#45;pluginHandles</text>
</g>
<!-- Node3 -->
<g id="Node000003" class="node">
<title>Node3</title>
<g id="a_Node000003"><a xlink:href="classinja_1_1Environment.html" target="_top" xlink:title="Class for changing the configuration.">
<polygon fill="white" stroke="transparent" points="649.56,-85 553.56,-85 553.56,-66 649.56,-66 649.56,-85"/>
<text text-anchor="start" x="558.06" y="-72.5" font-family="Helvetica,sans-Serif" font-size="10.00">inja::Environment</text>
<polygon fill="none" stroke="#666666" points="553.56,-66 553.56,-85 649.56,-85 649.56,-66 553.56,-66"/>
</a>
</g>
</g>
<!-- Node3&#45;&gt;Node1 -->
<g id="edge2_Node000001_Node000003" class="edge">
<title>Node3&#45;&gt;Node1</title>
<g id="a_edge2_Node000001_Node000003"><a xlink:title=" ">
<path fill="none" stroke="#63b8ff" d="M595.91,-65.94C590.45,-57.98 581.68,-46.03 572.56,-37 568.78,-33.26 564.46,-29.59 560.18,-26.23"/>
<polygon fill="none" stroke="#63b8ff" points="560.16,-26.22 552.95,-25.86 550.52,-19.07 557.72,-19.43 560.16,-26.22"/>
</a>
</g>
<text text-anchor="middle" x="625.56" y="-40" font-family="Helvetica,sans-Serif" font-size="10.00" fill="grey"> &#45;injaEnvironment</text>
</g>
<!-- Node4 -->
<g id="Node000004" class="node">
<title>Node4</title>
<g id="a_Node000004"><a xlink:href="structinja_1_1LexerConfig.html" target="_top" xlink:title="Class for lexer configuration.">
<polygon fill="white" stroke="transparent" points="592.56,-463 500.56,-463 500.56,-444 592.56,-444 592.56,-463"/>
<text text-anchor="start" x="505.06" y="-450.5" font-family="Helvetica,sans-Serif" font-size="10.00">inja::LexerConfig</text>
<polygon fill="none" stroke="#666666" points="500.56,-444 500.56,-463 592.56,-463 592.56,-444 500.56,-444"/>
</a>
</g>
</g>
<!-- Node4&#45;&gt;Node3 -->
<g id="edge3_Node000003_Node000004" class="edge">
<title>Node4&#45;&gt;Node3</title>
<g id="a_edge3_Node000003_Node000004"><a xlink:title=" ">
<path fill="none" stroke="#63b8ff" d="M549.67,-443.86C554.58,-429.47 563.56,-399.59 563.56,-373.5 563.56,-373.5 563.56,-373.5 563.56,-146 563.56,-126.69 574.99,-107.64 585.32,-94.39"/>
<polygon fill="none" stroke="#63b8ff" points="585.4,-94.29 586.2,-87.13 593.12,-85.11 592.32,-92.27 585.4,-94.29"/>
</a>
</g>
<text text-anchor="middle" x="597.06" y="-282" font-family="Helvetica,sans-Serif" font-size="10.00" fill="grey"> &#45;lexer_config</text>
</g>
<!-- Node5 -->
<g id="Node000005" class="node">
<title>Node5</title>
<g id="a_Node000005"><a xlink:title=" ">
<polygon fill="white" stroke="transparent" points="410.56,-720 352.56,-720 352.56,-701 410.56,-701 410.56,-720"/>
<text text-anchor="start" x="357.06" y="-707.5" font-family="Helvetica,sans-Serif" font-size="10.00">std::string</text>
<polygon fill="none" stroke="#666666" points="352.56,-701 352.56,-720 410.56,-720 410.56,-701 352.56,-701"/>
</a>
</g>
</g>
<!-- Node5&#45;&gt;Node3 -->
<g id="edge28_Node000003_Node000005" class="edge">
<title>Node5&#45;&gt;Node3</title>
<g id="a_edge28_Node000003_Node000005"><a xlink:title=" ">
<path fill="none" stroke="#63b8ff" d="M398.37,-700.94C405.56,-696.49 413.45,-690.42 418.56,-683 468.39,-610.52 468.56,-579.46 468.56,-491.5 468.56,-491.5 468.56,-491.5 468.56,-146 468.56,-124.75 522.56,-102.36 561.74,-88.91"/>
<polygon fill="none" stroke="#63b8ff" points="561.97,-88.84 566.39,-83.15 573.35,-85.04 568.93,-90.73 561.97,-88.84"/>
</a>
</g>
<text text-anchor="middle" x="502.06" y="-331.5" font-family="Helvetica,sans-Serif" font-size="10.00" fill="grey"> #input_path</text>
<text text-anchor="middle" x="502.06" y="-320.5" font-family="Helvetica,sans-Serif" font-size="10.00" fill="grey">#output_path</text>
</g>
<!-- Node5&#45;&gt;Node4 -->
<g id="edge4_Node000004_Node000005" class="edge">
<title>Node5&#45;&gt;Node4</title>
<g id="a_edge4_Node000004_Node000005"><a xlink:title=" ">
<path fill="none" stroke="#63b8ff" d="M410.56,-709.34C433.08,-707.65 463.56,-701.69 482.56,-683 540.86,-625.65 547.22,-519.84 547.14,-475.21"/>
<polygon fill="none" stroke="#63b8ff" points="547.14,-475.01 543.04,-469.08 546.95,-463.01 551.04,-468.95 547.14,-475.01"/>
</a>
</g>
<text text-anchor="middle" x="603.56" y="-675" font-family="Helvetica,sans-Serif" font-size="10.00" fill="grey"> +comment_close</text>
<text text-anchor="start" x="545.56" y="-664" font-family="Helvetica,sans-Serif" font-size="10.00" fill="grey">+comment_close_force</text>
<text text-anchor="middle" x="603.56" y="-653" font-family="Helvetica,sans-Serif" font-size="10.00" fill="grey">_rstrip</text>
<text text-anchor="middle" x="603.56" y="-642" font-family="Helvetica,sans-Serif" font-size="10.00" fill="grey">+comment_open</text>
<text text-anchor="start" x="545.56" y="-631" font-family="Helvetica,sans-Serif" font-size="10.00" fill="grey">+comment_open_force</text>
<text text-anchor="middle" x="603.56" y="-620" font-family="Helvetica,sans-Serif" font-size="10.00" fill="grey">_lstrip</text>
<text text-anchor="middle" x="603.56" y="-609" font-family="Helvetica,sans-Serif" font-size="10.00" fill="grey">+expression_close</text>
<text text-anchor="start" x="545.56" y="-598" font-family="Helvetica,sans-Serif" font-size="10.00" fill="grey">+expression_close</text>
<text text-anchor="middle" x="603.56" y="-587" font-family="Helvetica,sans-Serif" font-size="10.00" fill="grey">_force_rstrip</text>
<text text-anchor="middle" x="603.56" y="-576" font-family="Helvetica,sans-Serif" font-size="10.00" fill="grey">+expression_open</text>
<text text-anchor="start" x="545.56" y="-565" font-family="Helvetica,sans-Serif" font-size="10.00" fill="grey">+expression_open</text>
<text text-anchor="middle" x="603.56" y="-554" font-family="Helvetica,sans-Serif" font-size="10.00" fill="grey">_force_lstrip</text>
<text text-anchor="middle" x="603.56" y="-543" font-family="Helvetica,sans-Serif" font-size="10.00" fill="grey">+line_statement</text>
<text text-anchor="middle" x="603.56" y="-532" font-family="Helvetica,sans-Serif" font-size="10.00" fill="grey">+open_chars</text>
<text text-anchor="middle" x="603.56" y="-521" font-family="Helvetica,sans-Serif" font-size="10.00" fill="grey">...</text>
</g>
<!-- Node12 -->
<g id="Node000012" class="node">
<title>Node12</title>
<g id="a_Node000012"><a xlink:title=" ">
<polygon fill="white" stroke="transparent" points="416.56,-162 302.56,-162 302.56,-132 416.56,-132 416.56,-162"/>
<text text-anchor="start" x="306.56" y="-150" font-family="Helvetica,sans-Serif" font-size="10.00">std::map&lt; std::string,</text>
<text text-anchor="start" x="329.56" y="-139" font-family="Helvetica,sans-Serif" font-size="10.00"> Template &gt;</text>
<polygon fill="none" stroke="#666666" points="302.56,-132 302.56,-162 416.56,-162 416.56,-132 302.56,-132"/>
</a>
</g>
</g>
<!-- Node5&#45;&gt;Node12 -->
<g id="edge12_Node000012_Node000005" class="edge">
<title>Node5&#45;&gt;Node12</title>
<g id="a_edge12_Node000012_Node000005"><a xlink:title=" ">
<path fill="none" stroke="#63b8ff" d="M384.17,-700.87C392.75,-671.72 419.56,-574.1 419.56,-491.5 419.56,-491.5 419.56,-491.5 419.56,-234 419.56,-208.08 412.8,-200.96 397.56,-180 395.04,-176.55 392.08,-173.23 388.94,-170.13"/>
<polygon fill="none" stroke="#63b8ff" points="388.79,-170 381.65,-169 379.82,-162.03 386.97,-163.03 388.79,-170"/>
</a>
</g>
<text text-anchor="middle" x="436.56" y="-370" font-family="Helvetica,sans-Serif" font-size="10.00" fill="grey"> +keys</text>
</g>
<!-- Node13 -->
<g id="Node000013" class="node">
<title>Node13</title>
<g id="a_Node000013"><a xlink:href="structinja_1_1Template.html" target="_top" xlink:title="The main inja Template.">
<polygon fill="white" stroke="transparent" points="333.56,-244.5 255.56,-244.5 255.56,-225.5 333.56,-225.5 333.56,-244.5"/>
<text text-anchor="start" x="259.56" y="-232" font-family="Helvetica,sans-Serif" font-size="10.00">inja::Template</text>
<polygon fill="none" stroke="#666666" points="255.56,-225.5 255.56,-244.5 333.56,-244.5 333.56,-225.5 255.56,-225.5"/>
</a>
</g>
</g>
<!-- Node5&#45;&gt;Node13 -->
<g id="edge19_Node000013_Node000005" class="edge">
<title>Node5&#45;&gt;Node13</title>
<g id="a_edge19_Node000013_Node000005"><a xlink:title=" ">
<path fill="none" stroke="#63b8ff" d="M380.76,-700.68C375.5,-642.89 345.47,-319.47 328.56,-279 324.67,-269.7 318.18,-260.74 311.91,-253.43"/>
<polygon fill="none" stroke="#63b8ff" points="311.9,-253.41 304.89,-251.72 303.76,-244.6 310.77,-246.29 311.9,-253.41"/>
</a>
</g>
<text text-anchor="middle" x="377.06" y="-408.5" font-family="Helvetica,sans-Serif" font-size="10.00" fill="grey"> +content</text>
</g>
<!-- Node18 -->
<g id="Node000018" class="node">
<title>Node18</title>
<g id="a_Node000018"><a xlink:title=" ">
<polygon fill="white" stroke="transparent" points="314.56,-349 172.56,-349 172.56,-308 314.56,-308 314.56,-349"/>
<text text-anchor="start" x="177.06" y="-336.5" font-family="Helvetica,sans-Serif" font-size="10.00">std::map&lt; std::string,</text>
<text text-anchor="start" x="177.06" y="-325.5" font-family="Helvetica,sans-Serif" font-size="10.00"> std::shared_ptr&lt; inja</text>
<text text-anchor="start" x="177.06" y="-314.5" font-family="Helvetica,sans-Serif" font-size="10.00">::BlockStatementNode &gt; &gt;</text>
<polygon fill="none" stroke="#666666" points="172.56,-308 172.56,-349 314.56,-349 314.56,-308 172.56,-308"/>
</a>
</g>
</g>
<!-- Node5&#45;&gt;Node18 -->
<g id="edge21_Node000018_Node000005" class="edge">
<title>Node5&#45;&gt;Node18</title>
<g id="a_edge21_Node000018_Node000005"><a xlink:title=" ">
<path fill="none" stroke="#63b8ff" d="M354.04,-700.88C345.25,-696.81 336.32,-691.02 330.56,-683 327.97,-679.39 283.58,-370.95 281.56,-367 280.06,-364.08 278.26,-361.26 276.26,-358.55"/>
<polygon fill="none" stroke="#63b8ff" points="276.17,-358.45 269.22,-356.5 268.35,-349.34 275.29,-351.29 276.17,-358.45"/>
</a>
</g>
<text text-anchor="middle" x="313.56" y="-451" font-family="Helvetica,sans-Serif" font-size="10.00" fill="grey"> +keys</text>
</g>
<!-- Node20 -->
<g id="Node000020" class="node">
<title>Node20</title>
<g id="a_Node000020"><a xlink:href="classinja_1_1BlockStatementNode.html" target="_top" xlink:title=" ">
<polygon fill="white" stroke="transparent" points="267.56,-500 131.56,-500 131.56,-481 267.56,-481 267.56,-500"/>
<text text-anchor="start" x="135.56" y="-487.5" font-family="Helvetica,sans-Serif" font-size="10.00">inja::BlockStatementNode</text>
<polygon fill="none" stroke="#666666" points="131.56,-481 131.56,-500 267.56,-500 267.56,-481 131.56,-481"/>
</a>
</g>
</g>
<!-- Node5&#45;&gt;Node20 -->
<g id="edge26_Node000020_Node000005" class="edge">
<title>Node5&#45;&gt;Node20</title>
<g id="a_edge26_Node000020_Node000005"><a xlink:title=" ">
<path fill="none" stroke="#63b8ff" d="M352.31,-707.81C315.89,-705.08 256.63,-698.36 241.56,-683 189.46,-629.91 237.45,-588.44 213.56,-518 212.75,-515.63 211.76,-513.22 210.67,-510.87"/>
<polygon fill="none" stroke="#63b8ff" points="210.55,-510.63 204.21,-507.19 204.95,-500.02 211.29,-503.46 210.55,-510.63"/>
</a>
</g>
<text text-anchor="middle" x="261.56" y="-598" font-family="Helvetica,sans-Serif" font-size="10.00" fill="grey"> +name</text>
</g>
<!-- Node6 -->
<g id="Node000006" class="node">
<title>Node6</title>
<g id="a_Node000006"><a xlink:title=" ">
<polygon fill="white" stroke="transparent" points="429.56,-797 333.56,-797 333.56,-767 429.56,-767 429.56,-797"/>
<text text-anchor="start" x="337.56" y="-785" font-family="Helvetica,sans-Serif" font-size="10.00">std::basic_string&lt;</text>
<text text-anchor="start" x="363.06" y="-774" font-family="Helvetica,sans-Serif" font-size="10.00"> Char &gt;</text>
<polygon fill="none" stroke="#666666" points="333.56,-767 333.56,-797 429.56,-797 429.56,-767 333.56,-767"/>
</a>
</g>
</g>
<!-- Node6&#45;&gt;Node5 -->
<g id="edge5_Node000005_Node000006" class="edge">
<title>Node6&#45;&gt;Node5</title>
<g id="a_edge5_Node000005_Node000006"><a xlink:title=" ">
<path fill="none" stroke="#63b8ff" d="M381.56,-756.56C381.56,-743.95 381.56,-729.35 381.56,-720.27"/>
<polygon fill="none" stroke="#63b8ff" points="378.06,-756.94 381.56,-766.94 385.06,-756.94 378.06,-756.94"/>
</a>
</g>
</g>
<!-- Node7 -->
<g id="Node000007" class="node">
<title>Node7</title>
<g id="a_Node000007"><a xlink:href="structinja_1_1ParserConfig.html" target="_top" xlink:title="Class for parser configuration.">
<polygon fill="white" stroke="transparent" points="687.56,-156.5 591.56,-156.5 591.56,-137.5 687.56,-137.5 687.56,-156.5"/>
<text text-anchor="start" x="596.06" y="-144" font-family="Helvetica,sans-Serif" font-size="10.00">inja::ParserConfig</text>
<polygon fill="none" stroke="#666666" points="591.56,-137.5 591.56,-156.5 687.56,-156.5 687.56,-137.5 591.56,-137.5"/>
</a>
</g>
</g>
<!-- Node7&#45;&gt;Node3 -->
<g id="edge6_Node000003_Node000007" class="edge">
<title>Node7&#45;&gt;Node3</title>
<g id="a_edge6_Node000003_Node000007"><a xlink:title=" ">
<path fill="none" stroke="#63b8ff" d="M634.9,-137.48C629.26,-127.16 619.58,-109.47 612.1,-95.79"/>
<polygon fill="none" stroke="#63b8ff" points="612.01,-95.62 605.62,-92.28 606.25,-85.09 612.64,-88.44 612.01,-95.62"/>
</a>
</g>
<text text-anchor="middle" x="658.06" y="-106" font-family="Helvetica,sans-Serif" font-size="10.00" fill="grey"> &#45;parser_config</text>
</g>
<!-- Node8 -->
<g id="Node000008" class="node">
<title>Node8</title>
<g id="a_Node000008"><a xlink:href="structinja_1_1RenderConfig.html" target="_top" xlink:title="Class for render configuration.">
<polygon fill="white" stroke="transparent" points="805.56,-156.5 705.56,-156.5 705.56,-137.5 805.56,-137.5 805.56,-156.5"/>
<text text-anchor="start" x="710.06" y="-144" font-family="Helvetica,sans-Serif" font-size="10.00">inja::RenderConfig</text>
<polygon fill="none" stroke="#666666" points="705.56,-137.5 705.56,-156.5 805.56,-156.5 805.56,-137.5 705.56,-137.5"/>
</a>
</g>
</g>
<!-- Node8&#45;&gt;Node3 -->
<g id="edge7_Node000003_Node000008" class="edge">
<title>Node8&#45;&gt;Node3</title>
<g id="a_edge7_Node000003_Node000008"><a xlink:title=" ">
<path fill="none" stroke="#63b8ff" d="M746.22,-137.16C735.51,-127.46 717.03,-112.07 698.56,-103 686.07,-96.87 671.97,-91.99 658.45,-88.17"/>
<polygon fill="none" stroke="#63b8ff" points="658.39,-88.16 651.57,-90.49 646.79,-85.09 653.61,-82.76 658.39,-88.16"/>
</a>
</g>
<text text-anchor="middle" x="753.56" y="-106" font-family="Helvetica,sans-Serif" font-size="10.00" fill="grey"> &#45;render_config</text>
</g>
<!-- Node9 -->
<g id="Node000009" class="node">
<title>Node9</title>
<g id="a_Node000009"><a xlink:href="classinja_1_1FunctionStorage.html" target="_top" xlink:title="Class for builtin functions and user&#45;defined callbacks.">
<polygon fill="white" stroke="transparent" points="935.56,-156.5 823.56,-156.5 823.56,-137.5 935.56,-137.5 935.56,-156.5"/>
<text text-anchor="start" x="828.06" y="-144" font-family="Helvetica,sans-Serif" font-size="10.00">inja::FunctionStorage</text>
<polygon fill="none" stroke="#666666" points="823.56,-137.5 823.56,-156.5 935.56,-156.5 935.56,-137.5 823.56,-137.5"/>
</a>
</g>
</g>
<!-- Node9&#45;&gt;Node3 -->
<g id="edge8_Node000003_Node000009" class="edge">
<title>Node9&#45;&gt;Node3</title>
<g id="a_edge8_Node000003_Node000009"><a xlink:title=" ">
<path fill="none" stroke="#63b8ff" d="M866.02,-137.36C849.73,-127.4 821.24,-111.32 794.56,-103 751.29,-89.5 700.44,-82.88 661.8,-79.62"/>
<polygon fill="none" stroke="#63b8ff" points="661.67,-79.61 655.38,-83.14 649.71,-78.68 656,-75.16 661.67,-79.61"/>
</a>
</g>
<text text-anchor="middle" x="865.06" y="-106" font-family="Helvetica,sans-Serif" font-size="10.00" fill="grey"> &#45;function_storage</text>
</g>
<!-- Node10 -->
<g id="Node000010" class="node">
<title>Node10</title>
<g id="a_Node000010"><a xlink:title=" ">
<polygon fill="white" stroke="transparent" points="938.56,-261 820.56,-261 820.56,-209 938.56,-209 938.56,-261"/>
<text text-anchor="start" x="825.06" y="-249" font-family="Helvetica,sans-Serif" font-size="10.00">std::map&lt; std::pair</text>
<text text-anchor="start" x="825.06" y="-238" font-family="Helvetica,sans-Serif" font-size="10.00">&lt; std::string, int &gt;</text>
<text text-anchor="start" x="825.06" y="-227" font-family="Helvetica,sans-Serif" font-size="10.00">, inja::FunctionStorage</text>
<text text-anchor="start" x="838.56" y="-216" font-family="Helvetica,sans-Serif" font-size="10.00">::FunctionData &gt;</text>
<polygon fill="none" stroke="#666666" points="820.56,-209 820.56,-261 938.56,-261 938.56,-209 820.56,-209"/>
</a>
</g>
</g>
<!-- Node10&#45;&gt;Node9 -->
<g id="edge9_Node000009_Node000010" class="edge">
<title>Node10&#45;&gt;Node9</title>
<g id="a_edge9_Node000009_Node000010"><a xlink:title=" ">
<path fill="none" stroke="#63b8ff" d="M879.56,-208.66C879.56,-195.98 879.56,-180.83 879.56,-168.84"/>
<polygon fill="none" stroke="#63b8ff" points="879.56,-168.55 875.56,-162.55 879.56,-156.55 883.56,-162.55 879.56,-168.55"/>
</a>
</g>
<text text-anchor="middle" x="924.06" y="-183" font-family="Helvetica,sans-Serif" font-size="10.00" fill="grey"> &#45;function_storage</text>
</g>
<!-- Node11 -->
<g id="Node000011" class="node">
<title>Node11</title>
<g id="a_Node000011"><a xlink:href="structinja_1_1FunctionStorage_1_1FunctionData.html" target="_top" xlink:title=" ">
<polygon fill="white" stroke="transparent" points="935.56,-343.5 823.56,-343.5 823.56,-313.5 935.56,-313.5 935.56,-343.5"/>
<text text-anchor="start" x="828.06" y="-331.5" font-family="Helvetica,sans-Serif" font-size="10.00">inja::FunctionStorage</text>
<text text-anchor="start" x="844.06" y="-320.5" font-family="Helvetica,sans-Serif" font-size="10.00">::FunctionData</text>
<polygon fill="none" stroke="#666666" points="823.56,-313.5 823.56,-343.5 935.56,-343.5 935.56,-313.5 823.56,-313.5"/>
</a>
</g>
</g>
<!-- Node11&#45;&gt;Node10 -->
<g id="edge10_Node000010_Node000011" class="edge">
<title>Node11&#45;&gt;Node10</title>
<g id="a_edge10_Node000010_Node000011"><a xlink:title=" ">
<path fill="none" stroke="#63b8ff" d="M879.56,-313.2C879.56,-302.58 879.56,-287.58 879.56,-273.62"/>
<polygon fill="none" stroke="#63b8ff" points="879.56,-273.24 875.56,-267.25 879.56,-261.24 883.56,-267.24 879.56,-273.24"/>
</a>
</g>
<text text-anchor="middle" x="908.56" y="-282" font-family="Helvetica,sans-Serif" font-size="10.00" fill="grey"> +elements</text>
</g>
<!-- Node12&#45;&gt;Node3 -->
<g id="edge11_Node000003_Node000012" class="edge">
<title>Node12&#45;&gt;Node3</title>
<g id="a_edge11_Node000003_Node000012"><a xlink:title=" ">
<path fill="none" stroke="#63b8ff" d="M355.53,-131.83C353.8,-122.46 353.54,-110.55 360.56,-103 373.14,-89.44 495.7,-87.75 541.32,-84.87"/>
<polygon fill="none" stroke="#63b8ff" points="541.42,-84.87 547.06,-80.38 553.38,-83.86 547.73,-88.35 541.42,-84.87"/>
</a>
</g>
<text text-anchor="middle" x="407.56" y="-106" font-family="Helvetica,sans-Serif" font-size="10.00" fill="grey"> &#45;template_storage</text>
</g>
<!-- Node13&#45;&gt;Node12 -->
<g id="edge13_Node000012_Node000013" class="edge">
<title>Node13&#45;&gt;Node12</title>
<g id="a_edge13_Node000012_Node000013"><a xlink:title=" ">
<path fill="none" stroke="#63b8ff" d="M301.03,-225.44C310.37,-213.08 327.99,-189.77 341.47,-171.94"/>
<polygon fill="none" stroke="#63b8ff" points="341.59,-171.77 342.02,-164.57 348.83,-162.2 348.4,-169.39 341.59,-171.77"/>
</a>
</g>
<text text-anchor="middle" x="364.56" y="-183" font-family="Helvetica,sans-Serif" font-size="10.00" fill="grey"> +elements</text>
</g>
<!-- Node14 -->
<g id="Node000014" class="node">
<title>Node14</title>
<g id="a_Node000014"><a xlink:href="classinja_1_1BlockNode.html" target="_top" xlink:title=" ">
<polygon fill="white" stroke="transparent" points="131.56,-720 45.56,-720 45.56,-701 131.56,-701 131.56,-720"/>
<text text-anchor="start" x="50.06" y="-707.5" font-family="Helvetica,sans-Serif" font-size="10.00">inja::BlockNode</text>
<polygon fill="none" stroke="#666666" points="45.56,-701 45.56,-720 131.56,-720 131.56,-701 45.56,-701"/>
</a>
</g>
</g>
<!-- Node14&#45;&gt;Node13 -->
<g id="edge14_Node000013_Node000014" class="edge">
<title>Node14&#45;&gt;Node13</title>
<g id="a_edge14_Node000013_Node000014"><a xlink:title=" ">
<path fill="none" stroke="#63b8ff" d="M88.56,-700.78C88.56,-671.33 88.56,-572.87 88.56,-491.5 88.56,-491.5 88.56,-491.5 88.56,-327.5 88.56,-259.95 182.21,-241.9 243.22,-237.3"/>
<polygon fill="none" stroke="#63b8ff" points="243.35,-237.29 249.08,-232.92 255.32,-236.53 249.59,-240.9 243.35,-237.29"/>
</a>
</g>
<text text-anchor="middle" x="104.06" y="-408.5" font-family="Helvetica,sans-Serif" font-size="10.00" fill="grey"> +root</text>
</g>
<!-- Node14&#45;&gt;Node20 -->
<g id="edge27_Node000020_Node000014" class="edge">
<title>Node14&#45;&gt;Node20</title>
<g id="a_edge27_Node000020_Node000014"><a xlink:title=" ">
<path fill="none" stroke="#63b8ff" d="M93.75,-700.91C96.64,-695.83 100.14,-689.21 102.56,-683 129.99,-612.36 97.62,-576.7 145.56,-518 149.58,-513.07 154.75,-508.99 160.29,-505.62"/>
<polygon fill="none" stroke="#63b8ff" points="160.52,-505.5 164.03,-499.2 171.2,-500.02 167.69,-506.32 160.52,-505.5"/>
</a>
</g>
<text text-anchor="middle" x="165.56" y="-603.5" font-family="Helvetica,sans-Serif" font-size="10.00" fill="grey"> +block</text>
<text text-anchor="middle" x="165.56" y="-592.5" font-family="Helvetica,sans-Serif" font-size="10.00" fill="grey">+parent</text>
</g>
<!-- Node15 -->
<g id="Node000015" class="node">
<title>Node15</title>
<g id="a_Node000015"><a xlink:href="classinja_1_1AstNode.html" target="_top" xlink:title="Base node class for the abstract syntax tree (AST).">
<polygon fill="white" stroke="transparent" points="118.56,-948 44.56,-948 44.56,-929 118.56,-929 118.56,-948"/>
<text text-anchor="start" x="48.56" y="-935.5" font-family="Helvetica,sans-Serif" font-size="10.00">inja::AstNode</text>
<polygon fill="none" stroke="#666666" points="44.56,-929 44.56,-948 118.56,-948 118.56,-929 44.56,-929"/>
</a>
</g>
</g>
<!-- Node15&#45;&gt;Node14 -->
<g id="edge15_Node000014_Node000015" class="edge">
<title>Node15&#45;&gt;Node14</title>
<g id="a_edge15_Node000014_Node000015"><a xlink:title=" ">
<path fill="none" stroke="#63b8ff" d="M56.24,-923.5C41.7,-913.92 24.74,-899.74 16.56,-882 -4.85,-835.59 -6,-812.87 16.56,-767 27.49,-744.76 52.09,-728.93 69.49,-720"/>
<polygon fill="none" stroke="#63b8ff" points="54.54,-926.56 64.89,-928.86 58.24,-920.62 54.54,-926.56"/>
</a>
</g>
</g>
<!-- Node17 -->
<g id="Node000017" class="node">
<title>Node17</title>
<g id="a_Node000017"><a xlink:title=" ">
<polygon fill="white" stroke="transparent" points="137.56,-882 25.56,-882 25.56,-852 137.56,-852 137.56,-882"/>
<text text-anchor="start" x="30.06" y="-870" font-family="Helvetica,sans-Serif" font-size="10.00">std::shared_ptr&lt; inja</text>
<text text-anchor="start" x="52.06" y="-859" font-family="Helvetica,sans-Serif" font-size="10.00">::AstNode &gt;</text>
<polygon fill="none" stroke="#666666" points="25.56,-852 25.56,-882 137.56,-882 137.56,-852 25.56,-852"/>
</a>
</g>
</g>
<!-- Node15&#45;&gt;Node17 -->
<g id="edge18_Node000017_Node000015" class="edge">
<title>Node15&#45;&gt;Node17</title>
<g id="a_edge18_Node000017_Node000015"><a xlink:title=" ">
<path fill="none" stroke="#63b8ff" d="M81.56,-928.98C81.56,-920.41 81.56,-906.75 81.56,-894.52"/>
<polygon fill="none" stroke="#63b8ff" points="81.56,-894.14 77.56,-888.14 81.56,-882.14 85.56,-888.14 81.56,-894.14"/>
</a>
</g>
<text text-anchor="middle" x="94.06" y="-903" font-family="Helvetica,sans-Serif" font-size="10.00" fill="grey"> +ptr</text>
</g>
<!-- Node21 -->
<g id="Node000021" class="node">
<title>Node21</title>
<g id="a_Node000021"><a xlink:href="classinja_1_1StatementNode.html" target="_top" xlink:title=" ">
<polygon fill="white" stroke="transparent" points="254.56,-834 144.56,-834 144.56,-815 254.56,-815 254.56,-834"/>
<text text-anchor="start" x="149.06" y="-821.5" font-family="Helvetica,sans-Serif" font-size="10.00">inja::StatementNode</text>
<polygon fill="none" stroke="#666666" points="144.56,-815 144.56,-834 254.56,-834 254.56,-815 144.56,-815"/>
</a>
</g>
</g>
<!-- Node15&#45;&gt;Node21 -->
<g id="edge25_Node000021_Node000015" class="edge">
<title>Node15&#45;&gt;Node21</title>
<g id="a_edge25_Node000021_Node000015"><a xlink:title=" ">
<path fill="none" stroke="#63b8ff" d="M100.4,-922.35C113.64,-911.48 131.59,-896.29 146.56,-882 163.49,-865.84 181.89,-845.55 191.94,-834.2"/>
<polygon fill="none" stroke="#63b8ff" points="98,-919.79 92.46,-928.81 102.42,-925.21 98,-919.79"/>
</a>
</g>
</g>
<!-- Node16 -->
<g id="Node000016" class="node">
<title>Node16</title>
<g id="a_Node000016"><a xlink:title=" ">
<polygon fill="white" stroke="transparent" points="151.56,-797 25.56,-797 25.56,-767 151.56,-767 151.56,-797"/>
<text text-anchor="start" x="29.56" y="-785" font-family="Helvetica,sans-Serif" font-size="10.00">std::vector&lt; std::shared</text>
<text text-anchor="start" x="29.56" y="-774" font-family="Helvetica,sans-Serif" font-size="10.00">_ptr&lt; inja::AstNode &gt; &gt;</text>
<polygon fill="none" stroke="#666666" points="25.56,-767 25.56,-797 151.56,-797 151.56,-767 25.56,-767"/>
</a>
</g>
</g>
<!-- Node16&#45;&gt;Node14 -->
<g id="edge16_Node000014_Node000016" class="edge">
<title>Node16&#45;&gt;Node14</title>
<g id="a_edge16_Node000014_Node000016"><a xlink:title=" ">
<path fill="none" stroke="#63b8ff" d="M88.56,-766.94C88.56,-757.01 88.56,-743.54 88.56,-732.37"/>
<polygon fill="none" stroke="#63b8ff" points="88.56,-732.27 84.56,-726.27 88.56,-720.27 92.56,-726.27 88.56,-732.27"/>
</a>
</g>
<text text-anchor="middle" x="109.06" y="-741" font-family="Helvetica,sans-Serif" font-size="10.00" fill="grey"> +nodes</text>
</g>
<!-- Node17&#45;&gt;Node16 -->
<g id="edge17_Node000016_Node000017" class="edge">
<title>Node17&#45;&gt;Node16</title>
<g id="a_edge17_Node000016_Node000017"><a xlink:title=" ">
<path fill="none" stroke="#63b8ff" d="M78.57,-851.63C76.9,-841.37 75.51,-827.26 77.56,-815 77.9,-812.93 78.37,-810.81 78.91,-808.7"/>
<polygon fill="none" stroke="#63b8ff" points="78.97,-808.51 76.97,-801.59 82.59,-797.07 84.59,-804 78.97,-808.51"/>
</a>
</g>
<text text-anchor="middle" x="106.56" y="-822" font-family="Helvetica,sans-Serif" font-size="10.00" fill="grey"> +elements</text>
</g>
<!-- Node18&#45;&gt;Node13 -->
<g id="edge20_Node000013_Node000018" class="edge">
<title>Node18&#45;&gt;Node13</title>
<g id="a_edge20_Node000013_Node000018"><a xlink:title=" ">
<path fill="none" stroke="#63b8ff" d="M242.49,-307.74C242.75,-298.58 244.19,-287.79 248.56,-279 253.73,-268.58 262.54,-259.4 271.08,-252.22"/>
<polygon fill="none" stroke="#63b8ff" points="271.25,-252.1 273.55,-245.26 280.74,-244.76 278.44,-251.6 271.25,-252.1"/>
</a>
</g>
<text text-anchor="middle" x="288.56" y="-282" font-family="Helvetica,sans-Serif" font-size="10.00" fill="grey"> +block_storage</text>
</g>
<!-- Node19 -->
<g id="Node000019" class="node">
<title>Node19</title>
<g id="a_Node000019"><a xlink:title=" ">
<polygon fill="white" stroke="transparent" points="267.56,-426 137.56,-426 137.56,-396 267.56,-396 267.56,-426"/>
<text text-anchor="start" x="142.06" y="-414" font-family="Helvetica,sans-Serif" font-size="10.00">std::shared_ptr&lt; inja</text>
<text text-anchor="start" x="142.06" y="-403" font-family="Helvetica,sans-Serif" font-size="10.00">::BlockStatementNode &gt;</text>
<polygon fill="none" stroke="#666666" points="137.56,-396 137.56,-426 267.56,-426 267.56,-396 137.56,-396"/>
</a>
</g>
</g>
<!-- Node19&#45;&gt;Node18 -->
<g id="edge22_Node000018_Node000019" class="edge">
<title>Node19&#45;&gt;Node18</title>
<g id="a_edge22_Node000018_Node000019"><a xlink:title=" ">
<path fill="none" stroke="#63b8ff" d="M209.24,-395.99C213.31,-387.56 218.64,-376.62 223.56,-367 224.71,-364.74 225.91,-362.41 227.13,-360.07"/>
<polygon fill="none" stroke="#63b8ff" points="227.23,-359.89 226.5,-352.72 232.84,-349.28 233.57,-356.46 227.23,-359.89"/>
</a>
</g>
<text text-anchor="middle" x="252.56" y="-370" font-family="Helvetica,sans-Serif" font-size="10.00" fill="grey"> +elements</text>
</g>
<!-- Node20&#45;&gt;Node19 -->
<g id="edge23_Node000019_Node000020" class="edge">
<title>Node20&#45;&gt;Node19</title>
<g id="a_edge23_Node000019_Node000020"><a xlink:title=" ">
<path fill="none" stroke="#63b8ff" d="M199.89,-480.91C200.28,-470.67 200.97,-453.07 201.54,-438.22"/>
<polygon fill="none" stroke="#63b8ff" points="201.54,-438.13 197.78,-431.98 202.01,-426.14 205.77,-432.29 201.54,-438.13"/>
</a>
</g>
<text text-anchor="middle" x="214.06" y="-451" font-family="Helvetica,sans-Serif" font-size="10.00" fill="grey"> +ptr</text>
</g>
<!-- Node21&#45;&gt;Node20 -->
<g id="edge24_Node000020_Node000021" class="edge">
<title>Node21&#45;&gt;Node20</title>
<g id="a_edge24_Node000020_Node000021"><a xlink:title=" ">
<path fill="none" stroke="#63b8ff" d="M199.56,-804.69C199.56,-742.42 199.56,-544.45 199.56,-500.29"/>
<polygon fill="none" stroke="#63b8ff" points="196.06,-804.96 199.56,-814.96 203.06,-804.96 196.06,-804.96"/>
</a>
</g>
</g>
</g>
</svg>

<g id="navigator" transform="translate(0 0)" fill="#404254">
  <rect fill="#f2f5e9" fill-opacity="0.5" stroke="#606060" stroke-width=".5" x="0" y="0" width="60" height="60"/>
  <use id="zoomplus" xlink:href="#zoomPlus" x="17" y="9" onmousedown="handleZoom(evt,'in')"/>
  <use id="zoomminus" xlink:href="#zoomMin" x="42" y="9" onmousedown="handleZoom(evt,'out')"/>
  <use id="reset" xlink:href="#resetDef" x="30" y="36" onmousedown="handleReset()"/>
   <use id="arrowup" xlink:href="#arrowUp" x="0" y="0" onmousedown="handlePan(0,-1)"/>
  <use id="arrowright" xlink:href="#arrowRight" x="0" y="0" onmousedown="handlePan(1,0)"/>
  <use id="arrowdown" xlink:href="#arrowDown" x="0" y="0" onmousedown="handlePan(0,1)"/>
  <use id="arrowleft" xlink:href="#arrowLeft" x="0" y="0" onmousedown="handlePan(-1,0)"/>
</g>
<svg viewBox="0 0 15 15" width="100%" height="30px" preserveAspectRatio="xMaxYMin meet">
 <g id="arrow_out" transform="scale(0.3 0.3)">
  <a xlink:href="classmqtt_1_1lib_1_1MqttMapper__coll__graph_org.svg" target="_base">
   <rect id="button" ry="5" rx="5" y="6" x="6" height="38" width="38"
        fill="#f2f5e9" fill-opacity="0.5" stroke="#606060" stroke-width="1.0"/>
   <path id="arrow"
     d="M 11.500037,31.436501 C 11.940474,20.09759 22.043105,11.32322 32.158766,21.979434 L 37.068811,17.246167 C 37.068811,17.246167 37.088388,32 37.088388,32 L 22.160133,31.978069 C 22.160133,31.978069 26.997745,27.140456 26.997745,27.140456 C 18.528582,18.264221 13.291696,25.230495 11.500037,31.436501 z"
     style="fill:#404040;"/>
  </a>
 </g>
</svg>

<style type='text/css'>
<![CDATA[
[data-mouse-over-selected='false'] { opacity: 0.7; }
[data-mouse-over-selected='true']  { opacity: 1.0; }
]]>
</style>
<script type="application/ecmascript"><![CDATA[
document.addEventListener('DOMContentLoaded', (event) => {
  highlightEdges();
  highlightAdjacentNodes();
});
]]></script>
</svg>
