<?xml version="1.0" encoding="UTF-8" standalone="no"?>
<!DOCTYPE svg PUBLIC "-//W3C//DTD SVG 1.1//EN"
 "http://www.w3.org/Graphics/SVG/1.1/DTD/svg11.dtd">
<!-- Generated by graphviz version 14.1.2 (0)
 -->
<!-- Title: mqtt::bridge::lib::SSEDistributor::brokerConnected Pages: 1 -->
<svg width="758pt" height="141pt"
 viewBox="0.00 0.00 758.00 141.00" xmlns="http://www.w3.org/2000/svg" xmlns:xlink="http://www.w3.org/1999/xlink">
<g id="graph0" class="graph" transform="scale(1 1) rotate(0) translate(4 137.25)">
<title>mqtt::bridge::lib::SSEDistributor::brokerConnected</title>
<!-- Node1 -->
<g id="Node000001" class="node">
<title>Node1</title>
<g id="a_Node000001"><a xlink:title=" ">
<polygon fill="#999999" stroke="#666666" points="174.25,-68.88 0,-68.88 0,-35.38 174.25,-35.38 174.25,-68.88"/>
<text xml:space="preserve" text-anchor="start" x="8" y="-55.38" font-family="Helvetica,sans-Serif" font-size="10.00">mqtt::bridge::lib::</text>
<text xml:space="preserve" text-anchor="middle" x="87.12" y="-42.62" font-family="Helvetica,sans-Serif" font-size="10.00">SSEDistributor::brokerConnected</text>
</a>
</g>
</g>
<!-- Node2 -->
<g id="Node000002" class="node">
<title>Node2</title>
<g id="a_Node000002"><a xlink:href="classmqtt_1_1bridge_1_1lib_1_1SSEDistributor.html#ae352efe457441f0669d10132f46b514e" target="_top" xlink:title=" ">
<polygon fill="white" stroke="#666666" points="373.25,-97.88 210.25,-97.88 210.25,-64.38 373.25,-64.38 373.25,-97.88"/>
<text xml:space="preserve" text-anchor="start" x="218.25" y="-84.38" font-family="Helvetica,sans-Serif" font-size="10.00">mqtt::bridge::lib::</text>
<text xml:space="preserve" text-anchor="middle" x="291.75" y="-71.62" font-family="Helvetica,sans-Serif" font-size="10.00">SSEDistributor::sendJsonEvent</text>
</a>
</g>
</g>
<!-- Node1&#45;&gt;Node2 -->
<g id="edge1_Node000001_Node000002" class="edge">
<title>Node1&#45;&gt;Node2</title>
<g id="a_edge1_Node000001_Node000002"><a xlink:title=" ">
<path fill="none" stroke="#63b8ff" d="M174.64,-64.51C182.61,-65.65 190.71,-66.81 198.72,-67.95"/>
<polygon fill="#63b8ff" stroke="#63b8ff" points="198.09,-71.4 208.48,-69.35 199.08,-64.47 198.09,-71.4"/>
</a>
</g>
</g>
<!-- Node6 -->
<g id="Node000006" class="node">
<title>Node6</title>
<g id="a_Node000006"><a xlink:href="classmqtt_1_1bridge_1_1lib_1_1SSEDistributor.html#ae175f78eb030a996687f4606171418f6" target="_top" xlink:title=" ">
<polygon fill="white" stroke="#666666" points="366.5,-46.25 217,-46.25 217,0 366.5,0 366.5,-46.25"/>
<text xml:space="preserve" text-anchor="start" x="225" y="-32.75" font-family="Helvetica,sans-Serif" font-size="10.00">mqtt::bridge::lib::</text>
<text xml:space="preserve" text-anchor="start" x="225" y="-20" font-family="Helvetica,sans-Serif" font-size="10.00">SSEDistributor::timePointTo</text>
<text xml:space="preserve" text-anchor="middle" x="291.75" y="-7.25" font-family="Helvetica,sans-Serif" font-size="10.00">String</text>
</a>
</g>
</g>
<!-- Node1&#45;&gt;Node6 -->
<g id="edge5_Node000001_Node000006" class="edge">
<title>Node1&#45;&gt;Node6</title>
<g id="a_edge5_Node000001_Node000006"><a xlink:title=" ">
<path fill="none" stroke="#63b8ff" d="M174.64,-39.74C184.8,-38.29 195.17,-36.81 205.31,-35.35"/>
<polygon fill="#63b8ff" stroke="#63b8ff" points="205.75,-38.83 215.15,-33.94 204.76,-31.9 205.75,-38.83"/>
</a>
</g>
</g>
<!-- Node3 -->
<g id="Node000003" class="node">
<title>Node3</title>
<g id="a_Node000003"><a xlink:href="classmqtt_1_1bridge_1_1lib_1_1SSEDistributor.html#a33c28a238f0853d09effb76ed6c49d45" target="_top" xlink:title=" ">
<polygon fill="white" stroke="#666666" points="552,-97.88 409.25,-97.88 409.25,-64.38 552,-64.38 552,-97.88"/>
<text xml:space="preserve" text-anchor="start" x="417.25" y="-84.38" font-family="Helvetica,sans-Serif" font-size="10.00">mqtt::bridge::lib::</text>
<text xml:space="preserve" text-anchor="middle" x="480.62" y="-71.62" font-family="Helvetica,sans-Serif" font-size="10.00">SSEDistributor::sendEvent</text>
</a>
</g>
</g>
<!-- Node2&#45;&gt;Node3 -->
<g id="edge2_Node000002_Node000003" class="edge">
<title>Node2&#45;&gt;Node3</title>
<g id="a_edge2_Node000002_Node000003"><a xlink:title=" ">
<path fill="none" stroke="#63b8ff" d="M373.63,-81.12C381.52,-81.12 389.52,-81.12 397.42,-81.12"/>
<polygon fill="#63b8ff" stroke="#63b8ff" points="397.38,-84.63 407.38,-81.13 397.38,-77.63 397.38,-84.63"/>
</a>
</g>
</g>
<!-- Node4 -->
<g id="Node000004" class="node">
<title>Node4</title>
<g id="a_Node000004"><a xlink:href="classmqtt_1_1bridge_1_1lib_1_1SSEDistributor_1_1EventReceiver.html#ab7cf8f80c46f3ef696bf07dcb779255c" target="_top" xlink:title=" ">
<polygon fill="white" stroke="#666666" points="750.25,-133.25 588,-133.25 588,-87 750.25,-87 750.25,-133.25"/>
<text xml:space="preserve" text-anchor="start" x="596" y="-119.75" font-family="Helvetica,sans-Serif" font-size="10.00">mqtt::bridge::lib::</text>
<text xml:space="preserve" text-anchor="start" x="596" y="-107" font-family="Helvetica,sans-Serif" font-size="10.00">SSEDistributor::EventReceiver</text>
<text xml:space="preserve" text-anchor="middle" x="669.12" y="-94.25" font-family="Helvetica,sans-Serif" font-size="10.00">::getResponse</text>
</a>
</g>
</g>
<!-- Node3&#45;&gt;Node4 -->
<g id="edge3_Node000003_Node000004" class="edge">
<title>Node3&#45;&gt;Node4</title>
<g id="a_edge3_Node000003_Node000004"><a xlink:title=" ">
<path fill="none" stroke="#63b8ff" d="M552.4,-92.13C560.24,-93.35 568.31,-94.6 576.37,-95.86"/>
<polygon fill="#63b8ff" stroke="#63b8ff" points="575.81,-99.31 586.23,-97.39 576.88,-92.39 575.81,-99.31"/>
</a>
</g>
</g>
<!-- Node5 -->
<g id="Node000005" class="node">
<title>Node5</title>
<g id="a_Node000005"><a xlink:href="classmqtt_1_1bridge_1_1lib_1_1SSEDistributor.html#a9f5043f5f0189719413e23c74b3a55c2" target="_top" xlink:title=" ">
<polygon fill="white" stroke="#666666" points="740.5,-68.88 597.75,-68.88 597.75,-35.38 740.5,-35.38 740.5,-68.88"/>
<text xml:space="preserve" text-anchor="start" x="605.75" y="-55.38" font-family="Helvetica,sans-Serif" font-size="10.00">mqtt::bridge::lib::</text>
<text xml:space="preserve" text-anchor="middle" x="669.12" y="-42.62" font-family="Helvetica,sans-Serif" font-size="10.00">SSEDistributor::sendEvent</text>
</a>
</g>
</g>
<!-- Node3&#45;&gt;Node5 -->
<g id="edge4_Node000003_Node000005" class="edge">
<title>Node3&#45;&gt;Node5</title>
<g id="a_edge4_Node000003_Node000005"><a xlink:title=" ">
<path fill="none" stroke="#63b8ff" d="M552.4,-70.12C563.45,-68.4 574.95,-66.61 586.22,-64.86"/>
<polygon fill="#63b8ff" stroke="#63b8ff" points="586.56,-68.35 595.9,-63.36 585.49,-61.43 586.56,-68.35"/>
</a>
</g>
</g>
</g>
</svg>
