<?xml version="1.0" encoding="UTF-8" standalone="no"?>
<!DOCTYPE svg PUBLIC "-//W3C//DTD SVG 1.1//EN"
 "http://www.w3.org/Graphics/SVG/1.1/DTD/svg11.dtd">
<!-- Generated by graphviz version 14.1.2 (0)
 -->
<!-- Title: mqtt::mqttstore::lib::MariaDbStorage Pages: 1 -->
<!--zoomable 707 -->

<svg id="main" version="1.1" xmlns="http://www.w3.org/2000/svg" xmlns:xlink="http://www.w3.org/1999/xlink" xml:space="preserve" onload="init(evt)">

<style type="text/css"><![CDATA[
.node, .edge {opacity: 0.7;}
.node.selected, .edge.selected {opacity: 1;}
.edge:hover path { stroke: red; }
.edge:hover polygon { stroke: red; fill: red; }
]]></style>

<defs>
  <circle id="rim" cx="0" cy="0" r="7"/>
  <circle id="rim2" cx="0" cy="0" r="3.5"/>
  <g id="zoomPlus">
    <use xlink:href="#rim" fill="#404040"><set attributeName="fill" to="#808080" begin="zoomplus.mouseover" end="zoomplus.mouseout"/></use>
    <path d="M-4,0h8M0,-4v8" fill="none" stroke="white" stroke-width="1.5" pointer-events="none"/>
  </g>
  <g id="zoomMin">
    <use xlink:href="#rim" fill="#404040"><set attributeName="fill" to="#808080" begin="zoomminus.mouseover" end="zoomminus.mouseout"/></use>
    <path d="M-4,0h8" fill="none" stroke="white" stroke-width="1.5" pointer-events="none"/>
  </g>
  <g id="arrowUp" transform="translate(30 24)">
    <use xlink:href="#rim"/>
    <path pointer-events="none" fill="none" stroke="white" stroke-width="1.5" d="M0,-3.0v7 M-2.5,-0.5L0,-3.0L2.5,-0.5"/>
  </g>
  <g id="arrowRight" transform="rotate(90) translate(36 -43)">
    <use xlink:href="#rim"/>
    <path pointer-events="none" fill="none" stroke="white" stroke-width="1.5" d="M0,-3.0v7 M-2.5,-0.5L0,-3.0L2.5,-0.5"/>
  </g>
  <g id="arrowDown" transform="rotate(180) translate(-30 -48)">
    <use xlink:href="#rim"/>
    <path pointer-events="none" fill="none" stroke="white" stroke-width="1.5" d="M0,-3.0v7 M-2.5,-0.5L0,-3.0L2.5,-0.5"/>
  </g>
  <g id="arrowLeft" transform="rotate(270) translate(-36 17)">
    <use xlink:href="#rim"/>
    <path pointer-events="none" fill="none" stroke="white" stroke-width="1.5" d="M0,-3.0v7 M-2.5,-0.5L0,-3.0L2.5,-0.5"/>
  </g>
  <g id="resetDef">
    <use xlink:href="#rim2" fill="#404040"><set attributeName="fill" to="#808080" begin="reset.mouseover" end="reset.mouseout"/></use>
  </g>
</defs>
<script type="application/ecmascript">
var viewWidth = 297;
var viewHeight = 707;
var sectionId = 'dynsection-0';
</script>
<script type="application/ecmascript" xlink:href="svg.min.js"/>
<svg id="graph" class="graph">
<g id="viewport">
<title>mqtt::mqttstore::lib::MariaDbStorage</title>
<!-- Node1 -->
<g id="Node000001" class="node">
<title>Node1</title>
<g id="a_Node000001"><a xlink:title=" ">
<polygon fill="#999999" stroke="none" points="103.25,-33.5 0,-33.5 0,0 103.25,0 103.25,-33.5"/>
<text xml:space="preserve" text-anchor="start" x="4" y="-20" font-family="Helvetica,sans-Serif" font-size="10.00">mqtt::mqttstore::lib</text>
<text xml:space="preserve" text-anchor="start" x="9.25" y="-7.25" font-family="Helvetica,sans-Serif" font-size="10.00">::MariaDbStorage</text>
<polygon fill="none" stroke="#666666" points="0,0 0,-33.5 103.25,-33.5 103.25,0 0,0"/>
</a>
</g>
</g>
<!-- Node2 -->
<g id="Node000002" class="node">
<title>Node2</title>
<g id="a_Node000002"><a xlink:title=" ">
<polygon fill="white" stroke="none" points="131,-628 74.25,-628 74.25,-607.25 131,-607.25 131,-628"/>
<text xml:space="preserve" text-anchor="start" x="78.25" y="-614.5" font-family="Helvetica,sans-Serif" font-size="10.00">std::string</text>
<polygon fill="none" stroke="#666666" points="74.25,-607.25 74.25,-628 131,-628 131,-607.25 74.25,-607.25"/>
</a>
</g>
</g>
<!-- Node2&#45;&gt;Node1 -->
<g id="edge1_Node000001_Node000002" class="edge">
<title>Node2&#45;&gt;Node1</title>
<g id="a_edge1_Node000001_Node000002"><a xlink:title=" ">
<path fill="none" stroke="#63b8ff" d="M90.34,-607.42C70.99,-591.77 35.62,-557.97 35.62,-520 35.62,-520 35.62,-520 35.62,-104 35.62,-84.29 39.71,-62.47 43.76,-45.71"/>
<polygon fill="none" stroke="#63b8ff" points="43.69,-45.98 41.31,-39.17 46.69,-34.36 49.06,-41.17 43.69,-45.98"/>
</a>
</g>
<text xml:space="preserve" text-anchor="start" x="38.62" y="-300.5" font-family="Helvetica,sans-Serif" font-size="10.00" fill="grey">&#45;connectionName</text>
<text xml:space="preserve" text-anchor="start" x="38.62" y="-283.75" font-family="Helvetica,sans-Serif" font-size="10.00" fill="grey">&#45;rawTable</text>
</g>
<!-- Node6 -->
<g id="Node000006" class="node">
<title>Node6</title>
<g id="a_Node000006"><a xlink:href="structmqtt_1_1mqttstore_1_1lib_1_1StoragePlan_1_1Projection.html" target="_top" xlink:title=" ">
<polygon fill="white" stroke="none" points="273.25,-312 146,-312 146,-278.5 273.25,-278.5 273.25,-312"/>
<text xml:space="preserve" text-anchor="start" x="150" y="-298.5" font-family="Helvetica,sans-Serif" font-size="10.00">mqtt::mqttstore::lib</text>
<text xml:space="preserve" text-anchor="start" x="150" y="-285.75" font-family="Helvetica,sans-Serif" font-size="10.00">::StoragePlan::Projection</text>
<polygon fill="none" stroke="#666666" points="146,-278.5 146,-312 273.25,-312 273.25,-278.5 146,-278.5"/>
</a>
</g>
</g>
<!-- Node2&#45;&gt;Node6 -->
<g id="edge6_Node000006_Node000002" class="edge">
<title>Node2&#45;&gt;Node6</title>
<g id="a_edge6_Node000006_Node000002"><a xlink:title=" ">
<path fill="none" stroke="#63b8ff" d="M101.5,-607.38C97.78,-573.29 88.47,-452.19 131.62,-367.75 141.5,-348.43 158.87,-331.71 174.71,-319.31"/>
<polygon fill="none" stroke="#63b8ff" points="174.46,-319.5 176.89,-312.71 184.09,-312.34 181.66,-319.13 174.46,-319.5"/>
</a>
</g>
<text xml:space="preserve" text-anchor="start" x="111.57" y="-471.75" font-family="Helvetica,sans-Serif" font-size="10.00" fill="grey">+name</text>
<text xml:space="preserve" text-anchor="start" x="111.57" y="-455" font-family="Helvetica,sans-Serif" font-size="10.00" fill="grey">+table</text>
<text xml:space="preserve" text-anchor="start" x="111.57" y="-438.25" font-family="Helvetica,sans-Serif" font-size="10.00" fill="grey">+topic</text>
</g>
<!-- Node8 -->
<g id="Node000008" class="node">
<title>Node8</title>
<g id="a_Node000008"><a xlink:href="structmqtt_1_1mqttstore_1_1lib_1_1StoragePlan_1_1ColumnMapping.html" target="_top" xlink:title=" ">
<polygon fill="white" stroke="none" points="288.62,-535.75 130.62,-535.75 130.62,-502.25 288.62,-502.25 288.62,-535.75"/>
<text xml:space="preserve" text-anchor="start" x="134.62" y="-522.25" font-family="Helvetica,sans-Serif" font-size="10.00">mqtt::mqttstore::lib</text>
<text xml:space="preserve" text-anchor="start" x="134.62" y="-509.5" font-family="Helvetica,sans-Serif" font-size="10.00">::StoragePlan::ColumnMapping</text>
<polygon fill="none" stroke="#666666" points="130.62,-502.25 130.62,-535.75 288.62,-535.75 288.62,-502.25 130.62,-502.25"/>
</a>
</g>
</g>
<!-- Node2&#45;&gt;Node8 -->
<g id="edge9_Node000008_Node000002" class="edge">
<title>Node2&#45;&gt;Node8</title>
<g id="a_edge9_Node000008_Node000002"><a xlink:title=" ">
<path fill="none" stroke="#63b8ff" d="M112.88,-607.36C128.83,-592.96 160.09,-564.73 182.77,-544.25"/>
<polygon fill="none" stroke="#63b8ff" points="182.62,-544.38 184.39,-537.39 191.53,-536.34 189.76,-543.33 182.62,-544.38"/>
</a>
</g>
<text xml:space="preserve" text-anchor="start" x="174.96" y="-576.75" font-family="Helvetica,sans-Serif" font-size="10.00" fill="grey">+column</text>
<text xml:space="preserve" text-anchor="start" x="174.96" y="-560" font-family="Helvetica,sans-Serif" font-size="10.00" fill="grey">+jsonPointer</text>
</g>
<!-- Node3 -->
<g id="Node000003" class="node">
<title>Node3</title>
<g id="a_Node000003"><a xlink:title=" ">
<polygon fill="white" stroke="none" points="150.5,-698.5 54.75,-698.5 54.75,-665 150.5,-665 150.5,-698.5"/>
<text xml:space="preserve" text-anchor="start" x="58.75" y="-685" font-family="Helvetica,sans-Serif" font-size="10.00">std::basic_string&lt;</text>
<text xml:space="preserve" text-anchor="start" x="84.25" y="-672.25" font-family="Helvetica,sans-Serif" font-size="10.00"> Char &gt;</text>
<polygon fill="none" stroke="#666666" points="54.75,-665 54.75,-698.5 150.5,-698.5 150.5,-665 54.75,-665"/>
</a>
</g>
</g>
<!-- Node3&#45;&gt;Node2 -->
<g id="edge2_Node000002_Node000003" class="edge">
<title>Node3&#45;&gt;Node2</title>
<g id="a_edge2_Node000002_Node000003"><a xlink:title=" ">
<path fill="none" stroke="#63b8ff" d="M102.62,-653.79C102.62,-644.46 102.62,-634.63 102.62,-627.74"/>
<polygon fill="none" stroke="#63b8ff" points="99.13,-653.56 102.63,-663.56 106.13,-653.56 99.13,-653.56"/>
</a>
</g>
</g>
<!-- Node4 -->
<g id="Node000004" class="node">
<title>Node4</title>
<g id="a_Node000004"><a xlink:href="classmqtt_1_1mqttstore_1_1lib_1_1StoragePlan.html" target="_top" xlink:title=" ">
<polygon fill="white" stroke="none" points="175.25,-121.75 72,-121.75 72,-88.25 175.25,-88.25 175.25,-121.75"/>
<text xml:space="preserve" text-anchor="start" x="76" y="-108.25" font-family="Helvetica,sans-Serif" font-size="10.00">mqtt::mqttstore::lib</text>
<text xml:space="preserve" text-anchor="start" x="91.38" y="-95.5" font-family="Helvetica,sans-Serif" font-size="10.00">::StoragePlan</text>
<polygon fill="none" stroke="#666666" points="72,-88.25 72,-121.75 175.25,-121.75 175.25,-88.25 72,-88.25"/>
</a>
</g>
</g>
<!-- Node4&#45;&gt;Node1 -->
<g id="edge3_Node000001_Node000004" class="edge">
<title>Node4&#45;&gt;Node1</title>
<g id="a_edge3_Node000001_Node000004"><a xlink:title=" ">
<path fill="none" stroke="#63b8ff" d="M110.75,-88.58C100.27,-76.03 85.26,-58.04 72.98,-43.33"/>
<polygon fill="none" stroke="#63b8ff" points="72.9,-43.23 65.98,-41.19 65.21,-34.02 72.12,-36.06 72.9,-43.23"/>
</a>
</g>
<text xml:space="preserve" text-anchor="start" x="97.07" y="-57.75" font-family="Helvetica,sans-Serif" font-size="10.00" fill="grey">&#45;storagePlan</text>
</g>
<!-- Node5 -->
<g id="Node000005" class="node">
<title>Node5</title>
<g id="a_Node000005"><a xlink:title=" ">
<polygon fill="white" stroke="none" points="239.88,-222.75 101.38,-222.75 101.38,-176.5 239.88,-176.5 239.88,-222.75"/>
<text xml:space="preserve" text-anchor="start" x="105.38" y="-209.25" font-family="Helvetica,sans-Serif" font-size="10.00">std::vector&lt; mqtt::</text>
<text xml:space="preserve" text-anchor="start" x="105.38" y="-196.5" font-family="Helvetica,sans-Serif" font-size="10.00">mqttstore::lib::StoragePlan</text>
<text xml:space="preserve" text-anchor="start" x="137.62" y="-183.75" font-family="Helvetica,sans-Serif" font-size="10.00">::Projection &gt;</text>
<polygon fill="none" stroke="#666666" points="101.38,-176.5 101.38,-222.75 239.88,-222.75 239.88,-176.5 101.38,-176.5"/>
</a>
</g>
</g>
<!-- Node5&#45;&gt;Node4 -->
<g id="edge4_Node000004_Node000005" class="edge">
<title>Node5&#45;&gt;Node4</title>
<g id="a_edge4_Node000004_Node000005"><a xlink:title=" ">
<path fill="none" stroke="#63b8ff" d="M159.49,-176.67C152.85,-163.6 144.38,-146.9 137.34,-133.02"/>
<polygon fill="none" stroke="#63b8ff" points="137.43,-133.21 131.15,-129.67 132,-122.51 138.29,-126.05 137.43,-133.21"/>
</a>
</g>
<text xml:space="preserve" text-anchor="start" x="152.94" y="-146" font-family="Helvetica,sans-Serif" font-size="10.00" fill="grey">&#45;projections</text>
</g>
<!-- Node6&#45;&gt;Node5 -->
<g id="edge5_Node000005_Node000006" class="edge">
<title>Node6&#45;&gt;Node5</title>
<g id="a_edge5_Node000005_Node000006"><a xlink:title=" ">
<path fill="none" stroke="#63b8ff" d="M203.18,-278.79C198.13,-266.66 190.91,-249.33 184.56,-234.07"/>
<polygon fill="none" stroke="#63b8ff" points="184.66,-234.32 178.66,-230.32 180.05,-223.25 186.05,-227.25 184.66,-234.32"/>
</a>
</g>
<text xml:space="preserve" text-anchor="start" x="197.77" y="-247" font-family="Helvetica,sans-Serif" font-size="10.00" fill="grey">+elements</text>
</g>
<!-- Node7 -->
<g id="Node000007" class="node">
<title>Node7</title>
<g id="a_Node000007"><a xlink:title=" ">
<polygon fill="white" stroke="none" points="278.88,-414 140.38,-414 140.38,-367.75 278.88,-367.75 278.88,-414"/>
<text xml:space="preserve" text-anchor="start" x="144.38" y="-400.5" font-family="Helvetica,sans-Serif" font-size="10.00">std::vector&lt; mqtt::</text>
<text xml:space="preserve" text-anchor="start" x="144.38" y="-387.75" font-family="Helvetica,sans-Serif" font-size="10.00">mqttstore::lib::StoragePlan</text>
<text xml:space="preserve" text-anchor="start" x="161.25" y="-375" font-family="Helvetica,sans-Serif" font-size="10.00">::ColumnMapping &gt;</text>
<polygon fill="none" stroke="#666666" points="140.38,-367.75 140.38,-414 278.88,-414 278.88,-367.75 140.38,-367.75"/>
</a>
</g>
</g>
<!-- Node7&#45;&gt;Node6 -->
<g id="edge7_Node000006_Node000007" class="edge">
<title>Node7&#45;&gt;Node6</title>
<g id="a_edge7_Node000006_Node000007"><a xlink:title=" ">
<path fill="none" stroke="#63b8ff" d="M209.62,-368.16C209.62,-355.28 209.62,-338.79 209.62,-324.86"/>
<polygon fill="none" stroke="#63b8ff" points="209.63,-324.9 205.63,-318.9 209.63,-312.9 213.63,-318.9 209.63,-324.9"/>
</a>
</g>
<text xml:space="preserve" text-anchor="start" x="212.62" y="-337.25" font-family="Helvetica,sans-Serif" font-size="10.00" fill="grey">+columns</text>
</g>
<!-- Node8&#45;&gt;Node7 -->
<g id="edge8_Node000007_Node000008" class="edge">
<title>Node8&#45;&gt;Node7</title>
<g id="a_edge8_Node000007_Node000008"><a xlink:title=" ">
<path fill="none" stroke="#63b8ff" d="M209.62,-502.28C209.62,-483.45 209.62,-451.34 209.62,-426.59"/>
<polygon fill="none" stroke="#63b8ff" points="209.63,-426.63 205.63,-420.63 209.63,-414.63 213.63,-420.63 209.63,-426.63"/>
</a>
</g>
<text xml:space="preserve" text-anchor="start" x="212.62" y="-455" font-family="Helvetica,sans-Serif" font-size="10.00" fill="grey">+elements</text>
</g>
</g>
</svg>

<g id="navigator" transform="translate(0 0)" fill="#404254">
  <rect fill="#f2f5e9" fill-opacity="0.5" stroke="#606060" stroke-width=".5" x="0" y="0" width="60" height="60"/>
  <use id="zoomplus" xlink:href="#zoomPlus" x="17" y="9" onmousedown="handleZoom(evt,'in')"/>
  <use id="zoomminus" xlink:href="#zoomMin" x="42" y="9" onmousedown="handleZoom(evt,'out')"/>
  <use id="reset" xlink:href="#resetDef" x="30" y="36" onmousedown="handleReset()"/>
   <use id="arrowup" xlink:href="#arrowUp" x="0" y="0" onmousedown="handlePan(0,-1)"/>
  <use id="arrowright" xlink:href="#arrowRight" x="0" y="0" onmousedown="handlePan(1,0)"/>
  <use id="arrowdown" xlink:href="#arrowDown" x="0" y="0" onmousedown="handlePan(0,1)"/>
  <use id="arrowleft" xlink:href="#arrowLeft" x="0" y="0" onmousedown="handlePan(-1,0)"/>
</g>
<svg viewBox="0 0 15 15" width="100%" height="30px" preserveAspectRatio="xMaxYMin meet">
 <g id="arrow_out" transform="scale(0.3 0.3)">
  <a xlink:href="classmqtt_1_1mqttstore_1_1lib_1_1MariaDbStorage__coll__graph_org.svg" target="_base">
   <rect id="button" ry="5" rx="5" y="6" x="6" height="38" width="38"
        fill="#f2f5e9" fill-opacity="0.5" stroke="#606060" stroke-width="1.0"/>
   <path id="arrow"
     d="M 11.500037,31.436501 C 11.940474,20.09759 22.043105,11.32322 32.158766,21.979434 L 37.068811,17.246167 C 37.068811,17.246167 37.088388,32 37.088388,32 L 22.160133,31.978069 C 22.160133,31.978069 26.997745,27.140456 26.997745,27.140456 C 18.528582,18.264221 13.291696,25.230495 11.500037,31.436501 z"
     style="fill:#404040;"/>
  </a>
 </g>
</svg>

<style type='text/css'>
<![CDATA[
[data-mouse-over-selected='false'] { opacity: 0.7; }
[data-mouse-over-selected='true']  { opacity: 1.0; }
]]>
</style>
<script type="application/ecmascript"><![CDATA[
document.addEventListener('DOMContentLoaded', (event) => {
  highlightEdges();
  highlightAdjacentNodes();
});
]]></script>
</svg>
