<?xml version="1.0" encoding="UTF-8" standalone="no"?>
<!DOCTYPE svg PUBLIC "-//W3C//DTD SVG 1.1//EN"
 "http://www.w3.org/Graphics/SVG/1.1/DTD/svg11.dtd">
<!-- Generated by graphviz version 14.1.2 (0)
 -->
<!-- Title: inja::Renderer::visit Pages: 1 -->
<svg width="630pt" height="155pt"
 viewBox="0.00 0.00 630.00 155.00" xmlns="http://www.w3.org/2000/svg" xmlns:xlink="http://www.w3.org/1999/xlink">
<g id="graph0" class="graph" transform="scale(1 1) rotate(0) translate(4 150.5)">
<title>inja::Renderer::visit</title>
<!-- Node1 -->
<g id="Node000001" class="node">
<title>Node1</title>
<g id="a_Node000001"><a xlink:title=" ">
<polygon fill="#999999" stroke="#666666" points="111.25,-101.12 0,-101.12 0,-80.38 111.25,-80.38 111.25,-101.12"/>
<text xml:space="preserve" text-anchor="middle" x="55.62" y="-87.62" font-family="Helvetica,sans-Serif" font-size="10.00">inja::Renderer::visit</text>
</a>
</g>
</g>
<!-- Node2 -->
<g id="Node000002" class="node">
<title>Node2</title>
<g id="a_Node000002"><a xlink:href="classinja_1_1Renderer.html#ace82a1b1e1db796e94c7a346c71defa2" target="_top" xlink:title=" ">
<polygon fill="white" stroke="#666666" points="284,-140.12 147.25,-140.12 147.25,-119.38 284,-119.38 284,-140.12"/>
<text xml:space="preserve" text-anchor="middle" x="215.62" y="-126.62" font-family="Helvetica,sans-Serif" font-size="10.00">inja::Renderer::render_to</text>
</a>
</g>
</g>
<!-- Node1&#45;&gt;Node2 -->
<g id="edge1_Node000001_Node000002" class="edge">
<title>Node1&#45;&gt;Node2</title>
<g id="a_edge1_Node000001_Node000002"><a xlink:title=" ">
<path fill="none" stroke="#63b8ff" d="M100.64,-101.61C118.88,-106.12 140.24,-111.39 159.51,-116.15"/>
<polygon fill="#63b8ff" stroke="#63b8ff" points="158.56,-119.52 169.11,-118.51 160.24,-112.72 158.56,-119.52"/>
</a>
</g>
</g>
<!-- Node5 -->
<g id="Node000005" class="node">
<title>Node5</title>
<g id="a_Node000005"><a xlink:href="classinja_1_1Renderer.html#ad41cbbc7443d95c301c3952f55a44606" target="_top" xlink:title=" ">
<polygon fill="white" stroke="#666666" points="282.88,-101.12 148.38,-101.12 148.38,-80.38 282.88,-80.38 282.88,-101.12"/>
<text xml:space="preserve" text-anchor="middle" x="215.62" y="-87.62" font-family="Helvetica,sans-Serif" font-size="10.00">inja::Renderer::Renderer</text>
</a>
</g>
</g>
<!-- Node1&#45;&gt;Node5 -->
<g id="edge4_Node000001_Node000005" class="edge">
<title>Node1&#45;&gt;Node5</title>
<g id="a_edge4_Node000001_Node000005"><a xlink:title=" ">
<path fill="none" stroke="#63b8ff" d="M111.44,-90.75C119.53,-90.75 127.99,-90.75 136.44,-90.75"/>
<polygon fill="#63b8ff" stroke="#63b8ff" points="136.41,-94.25 146.41,-90.75 136.41,-87.25 136.41,-94.25"/>
</a>
</g>
</g>
<!-- Node6 -->
<g id="Node000006" class="node">
<title>Node6</title>
<g id="a_Node000006"><a xlink:href="classinja_1_1Renderer.html#a30be8e7c30b1780ae45a5aa34aae98de" target="_top" xlink:title=" ">
<polygon fill="white" stroke="#666666" points="274.62,-62.5 156.62,-62.5 156.62,-29 274.62,-29 274.62,-62.5"/>
<text xml:space="preserve" text-anchor="start" x="164.62" y="-49" font-family="Helvetica,sans-Serif" font-size="10.00">inja::Renderer::throw</text>
<text xml:space="preserve" text-anchor="middle" x="215.62" y="-36.25" font-family="Helvetica,sans-Serif" font-size="10.00">_renderer_error</text>
</a>
</g>
</g>
<!-- Node1&#45;&gt;Node6 -->
<g id="edge5_Node000001_Node000006" class="edge">
<title>Node1&#45;&gt;Node6</title>
<g id="a_edge5_Node000001_Node000006"><a xlink:title=" ">
<path fill="none" stroke="#63b8ff" d="M94.47,-79.97C109.82,-75.6 128.04,-70.41 145.6,-65.41"/>
<polygon fill="#63b8ff" stroke="#63b8ff" points="146.29,-68.85 154.95,-62.75 144.38,-62.12 146.29,-68.85"/>
</a>
</g>
</g>
<!-- Node3 -->
<g id="Node000003" class="node">
<title>Node3</title>
<g id="a_Node000003"><a xlink:href="classinja_1_1BlockNode.html#afa264eaa0a42e9f38086e93530b164be" target="_top" xlink:title=" ">
<polygon fill="white" stroke="#666666" points="454.12,-140.12 323.38,-140.12 323.38,-119.38 454.12,-119.38 454.12,-140.12"/>
<text xml:space="preserve" text-anchor="middle" x="388.75" y="-126.62" font-family="Helvetica,sans-Serif" font-size="10.00">inja::BlockNode::accept</text>
</a>
</g>
</g>
<!-- Node2&#45;&gt;Node3 -->
<g id="edge2_Node000002_Node000003" class="edge">
<title>Node2&#45;&gt;Node3</title>
<g id="a_edge2_Node000002_Node000003"><a xlink:title=" ">
<path fill="none" stroke="#63b8ff" d="M284.26,-129.75C293.26,-129.75 302.53,-129.75 311.66,-129.75"/>
<polygon fill="#63b8ff" stroke="#63b8ff" points="311.61,-133.25 321.61,-129.75 311.61,-126.25 311.61,-133.25"/>
</a>
</g>
</g>
<!-- Node4 -->
<g id="Node000004" class="node">
<title>Node4</title>
<g id="a_Node000004"><a xlink:href="classinja_1_1NodeVisitor.html#afecb3de947b76e68094be2a72eedea09" target="_top" xlink:title=" ">
<polygon fill="white" stroke="#666666" points="609.25,-146.5 506.25,-146.5 506.25,-113 609.25,-113 609.25,-146.5"/>
<text xml:space="preserve" text-anchor="start" x="514.25" y="-133" font-family="Helvetica,sans-Serif" font-size="10.00">inja::NodeVisitor::</text>
<text xml:space="preserve" text-anchor="middle" x="557.75" y="-120.25" font-family="Helvetica,sans-Serif" font-size="10.00">visit</text>
</a>
</g>
</g>
<!-- Node3&#45;&gt;Node4 -->
<g id="edge3_Node000003_Node000004" class="edge">
<title>Node3&#45;&gt;Node4</title>
<g id="a_edge3_Node000003_Node000004"><a xlink:title=" ">
<path fill="none" stroke="#63b8ff" d="M454.32,-129.75C467.52,-129.75 481.39,-129.75 494.51,-129.75"/>
<polygon fill="#63b8ff" stroke="#63b8ff" points="494.3,-133.25 504.3,-129.75 494.3,-126.25 494.3,-133.25"/>
</a>
</g>
</g>
<!-- Node7 -->
<g id="Node000007" class="node">
<title>Node7</title>
<g id="a_Node000007"><a xlink:href="namespaceinja.html#ab7c8c54f2caeb72095cd78a7ff7b6c37" target="_top" xlink:title=" ">
<polygon fill="white" stroke="#666666" points="457.5,-72.12 320,-72.12 320,-51.38 457.5,-51.38 457.5,-72.12"/>
<text xml:space="preserve" text-anchor="middle" x="388.75" y="-58.62" font-family="Helvetica,sans-Serif" font-size="10.00">inja::get_source_location</text>
</a>
</g>
</g>
<!-- Node6&#45;&gt;Node7 -->
<g id="edge6_Node000006_Node000007" class="edge">
<title>Node6&#45;&gt;Node7</title>
<g id="a_edge6_Node000006_Node000007"><a xlink:title=" ">
<path fill="none" stroke="#63b8ff" d="M275.04,-51.21C285.79,-52.22 297.17,-53.28 308.41,-54.33"/>
<polygon fill="#63b8ff" stroke="#63b8ff" points="307.79,-57.79 318.07,-55.23 308.44,-50.82 307.79,-57.79"/>
</a>
</g>
</g>
<!-- Node9 -->
<g id="Node000009" class="node">
<title>Node9</title>
<g id="a_Node000009"><a xlink:href="structinja_1_1RenderError.html#a24568cf50805c33dec821fb1edfb02f5" target="_top" xlink:title=" ">
<polygon fill="white" stroke="#666666" points="440.62,-33.5 336.88,-33.5 336.88,0 440.62,0 440.62,-33.5"/>
<text xml:space="preserve" text-anchor="start" x="344.88" y="-20" font-family="Helvetica,sans-Serif" font-size="10.00">inja::RenderError::</text>
<text xml:space="preserve" text-anchor="middle" x="388.75" y="-7.25" font-family="Helvetica,sans-Serif" font-size="10.00">RenderError</text>
</a>
</g>
</g>
<!-- Node6&#45;&gt;Node9 -->
<g id="edge8_Node000006_Node000009" class="edge">
<title>Node6&#45;&gt;Node9</title>
<g id="a_edge8_Node000006_Node000009"><a xlink:title=" ">
<path fill="none" stroke="#63b8ff" d="M275.04,-35.85C291.24,-33.1 308.9,-30.11 325.32,-27.33"/>
<polygon fill="#63b8ff" stroke="#63b8ff" points="325.7,-30.82 334.97,-25.69 324.53,-23.91 325.7,-30.82"/>
</a>
</g>
</g>
<!-- Node8 -->
<g id="Node000008" class="node">
<title>Node8</title>
<g id="a_Node000008"><a xlink:href="namespaceinja_1_1string__view.html#a898871016595d8f34d1b4ea55b3e8684" target="_top" xlink:title=" ">
<polygon fill="white" stroke="#666666" points="608.88,-78.5 506.62,-78.5 506.62,-45 608.88,-45 608.88,-78.5"/>
<text xml:space="preserve" text-anchor="start" x="514.62" y="-65" font-family="Helvetica,sans-Serif" font-size="10.00">inja::string_view::</text>
<text xml:space="preserve" text-anchor="middle" x="557.75" y="-52.25" font-family="Helvetica,sans-Serif" font-size="10.00">slice</text>
</a>
</g>
</g>
<!-- Node7&#45;&gt;Node8 -->
<g id="edge7_Node000007_Node000008" class="edge">
<title>Node7&#45;&gt;Node8</title>
<g id="a_edge7_Node000007_Node000008"><a xlink:title=" ">
<path fill="none" stroke="#63b8ff" d="M457.68,-61.75C469.99,-61.75 482.78,-61.75 494.91,-61.75"/>
<polygon fill="#63b8ff" stroke="#63b8ff" points="494.79,-65.25 504.79,-61.75 494.79,-58.25 494.79,-65.25"/>
</a>
</g>
</g>
<!-- Node10 -->
<g id="Node000010" class="node">
<title>Node10</title>
<g id="a_Node000010"><a xlink:href="structinja_1_1InjaError.html#a399b7d2f7c824c24b7794694711bafb7" target="_top" xlink:title=" ">
<polygon fill="white" stroke="#666666" points="622,-27.12 493.5,-27.12 493.5,-6.38 622,-6.38 622,-27.12"/>
<text xml:space="preserve" text-anchor="middle" x="557.75" y="-13.62" font-family="Helvetica,sans-Serif" font-size="10.00">inja::InjaError::InjaError</text>
</a>
</g>
</g>
<!-- Node9&#45;&gt;Node10 -->
<g id="edge9_Node000009_Node000010" class="edge">
<title>Node9&#45;&gt;Node10</title>
<g id="a_edge9_Node000009_Node000010"><a xlink:title=" ">
<path fill="none" stroke="#63b8ff" d="M440.76,-16.75C453.65,-16.75 467.77,-16.75 481.57,-16.75"/>
<polygon fill="#63b8ff" stroke="#63b8ff" points="481.55,-20.25 491.55,-16.75 481.55,-13.25 481.55,-20.25"/>
</a>
</g>
</g>
</g>
</svg>
