<?xml version="1.0" encoding="UTF-8" standalone="no"?>
<!DOCTYPE svg PUBLIC "-//W3C//DTD SVG 1.1//EN"
 "http://www.w3.org/Graphics/SVG/1.1/DTD/svg11.dtd">
<!-- Generated by graphviz version 14.1.1 (0)
 -->
<!-- Title: inja::AstNode Pages: 1 -->
<svg width="1254pt" height="199pt"
 viewBox="0.00 0.00 1254.00 199.00" xmlns="http://www.w3.org/2000/svg" xmlns:xlink="http://www.w3.org/1999/xlink">
<g id="graph0" class="graph" transform="scale(1 1) rotate(0) translate(4 195)">
<title>inja::AstNode</title>
<!-- Node1 -->
<g id="Node000001" class="node">
<title>Node1</title>
<g id="a_Node000001"><a xlink:title="Base node class for the abstract syntax tree (AST).">
<polygon fill="#999999" stroke="none" points="339.88,-191 266.62,-191 266.62,-170.25 339.88,-170.25 339.88,-191"/>
<text xml:space="preserve" text-anchor="start" x="270.62" y="-177.5" font-family="Helvetica,sans-Serif" font-size="10.00">inja::AstNode</text>
<polygon fill="none" stroke="#666666" points="266.62,-170.25 266.62,-191 339.88,-191 339.88,-170.25 266.62,-170.25"/>
</a>
</g>
</g>
<!-- Node2 -->
<g id="Node000002" class="node">
<title>Node2</title>
<g id="a_Node000002"><a xlink:href="classinja_1_1BlockNode.html" target="_top" xlink:title=" ">
<polygon fill="white" stroke="none" points="84.5,-134.25 0,-134.25 0,-113.5 84.5,-113.5 84.5,-134.25"/>
<text xml:space="preserve" text-anchor="start" x="4" y="-120.75" font-family="Helvetica,sans-Serif" font-size="10.00">inja::BlockNode</text>
<polygon fill="none" stroke="#666666" points="0,-113.5 0,-134.25 84.5,-134.25 84.5,-113.5 0,-113.5"/>
</a>
</g>
</g>
<!-- Node1&#45;&gt;Node2 -->
<g id="edge1_Node000001_Node000002" class="edge">
<title>Node1&#45;&gt;Node2</title>
<g id="a_edge1_Node000001_Node000002"><a xlink:title=" ">
<path fill="none" stroke="#63b8ff" d="M255.43,-169.59C206.42,-159.31 130.94,-143.48 84.18,-133.67"/>
<polygon fill="none" stroke="#63b8ff" points="254.7,-173.02 265.2,-171.64 256.13,-166.17 254.7,-173.02"/>
</a>
</g>
</g>
<!-- Node3 -->
<g id="Node000003" class="node">
<title>Node3</title>
<g id="a_Node000003"><a xlink:href="classinja_1_1ExpressionListNode.html" target="_top" xlink:title=" ">
<polygon fill="white" stroke="none" points="230.25,-134.25 102.25,-134.25 102.25,-113.5 230.25,-113.5 230.25,-134.25"/>
<text xml:space="preserve" text-anchor="start" x="106.25" y="-120.75" font-family="Helvetica,sans-Serif" font-size="10.00">inja::ExpressionListNode</text>
<polygon fill="none" stroke="#666666" points="102.25,-113.5 102.25,-134.25 230.25,-134.25 230.25,-113.5 102.25,-113.5"/>
</a>
</g>
</g>
<!-- Node1&#45;&gt;Node3 -->
<g id="edge2_Node000001_Node000003" class="edge">
<title>Node1&#45;&gt;Node3</title>
<g id="a_edge2_Node000001_Node000003"><a xlink:title=" ">
<path fill="none" stroke="#63b8ff" d="M269.59,-166.17C244.76,-156.25 211.59,-142.99 189.6,-134.21"/>
<polygon fill="none" stroke="#63b8ff" points="268.02,-169.31 278.6,-169.78 270.62,-162.81 268.02,-169.31"/>
</a>
</g>
</g>
<!-- Node4 -->
<g id="Node000004" class="node">
<title>Node4</title>
<g id="a_Node000004"><a xlink:href="classinja_1_1ExpressionNode.html" target="_top" xlink:title=" ">
<polygon fill="white" stroke="none" points="358.62,-134.25 247.88,-134.25 247.88,-113.5 358.62,-113.5 358.62,-134.25"/>
<text xml:space="preserve" text-anchor="start" x="251.88" y="-120.75" font-family="Helvetica,sans-Serif" font-size="10.00">inja::ExpressionNode</text>
<polygon fill="none" stroke="#666666" points="247.88,-113.5 247.88,-134.25 358.62,-134.25 358.62,-113.5 247.88,-113.5"/>
</a>
</g>
</g>
<!-- Node1&#45;&gt;Node4 -->
<g id="edge3_Node000001_Node000004" class="edge">
<title>Node1&#45;&gt;Node4</title>
<g id="a_edge3_Node000001_Node000004"><a xlink:title=" ">
<path fill="none" stroke="#63b8ff" d="M303.25,-159.11C303.25,-150.51 303.25,-140.94 303.25,-134.11"/>
<polygon fill="none" stroke="#63b8ff" points="299.75,-159.07 303.25,-169.07 306.75,-159.07 299.75,-159.07"/>
</a>
</g>
</g>
<!-- Node8 -->
<g id="Node000008" class="node">
<title>Node8</title>
<g id="a_Node000008"><a xlink:href="classinja_1_1StatementNode.html" target="_top" xlink:title=" ">
<polygon fill="white" stroke="none" points="724.5,-134.25 616,-134.25 616,-113.5 724.5,-113.5 724.5,-134.25"/>
<text xml:space="preserve" text-anchor="start" x="620" y="-120.75" font-family="Helvetica,sans-Serif" font-size="10.00">inja::StatementNode</text>
<polygon fill="none" stroke="#666666" points="616,-113.5 616,-134.25 724.5,-134.25 724.5,-113.5 616,-113.5"/>
</a>
</g>
</g>
<!-- Node1&#45;&gt;Node8 -->
<g id="edge7_Node000001_Node000008" class="edge">
<title>Node1&#45;&gt;Node8</title>
<g id="a_edge7_Node000001_Node000008"><a xlink:title=" ">
<path fill="none" stroke="#63b8ff" d="M351.04,-172.49C419.35,-162.3 544.54,-143.63 616.16,-132.94"/>
<polygon fill="none" stroke="#63b8ff" points="350.65,-169.01 341.28,-173.95 351.69,-175.94 350.65,-169.01"/>
</a>
</g>
</g>
<!-- Node17 -->
<g id="Node000017" class="node">
<title>Node17</title>
<g id="a_Node000017"><a xlink:href="classinja_1_1TextNode.html" target="_top" xlink:title=" ">
<polygon fill="white" stroke="none" points="820.12,-134.25 742.38,-134.25 742.38,-113.5 820.12,-113.5 820.12,-134.25"/>
<text xml:space="preserve" text-anchor="start" x="746.38" y="-120.75" font-family="Helvetica,sans-Serif" font-size="10.00">inja::TextNode</text>
<polygon fill="none" stroke="#666666" points="742.38,-113.5 742.38,-134.25 820.12,-134.25 820.12,-113.5 742.38,-113.5"/>
</a>
</g>
</g>
<!-- Node1&#45;&gt;Node17 -->
<g id="edge16_Node000001_Node000017" class="edge">
<title>Node1&#45;&gt;Node17</title>
<g id="a_edge16_Node000001_Node000017"><a xlink:title=" ">
<path fill="none" stroke="#63b8ff" d="M350.72,-175.99C430.15,-169.59 594.92,-155.02 733.25,-134.25 736.27,-133.8 739.39,-133.28 742.53,-132.74"/>
<polygon fill="none" stroke="#63b8ff" points="350.83,-172.47 341.14,-176.75 351.38,-179.44 350.83,-172.47"/>
</a>
</g>
</g>
<!-- Node5 -->
<g id="Node000005" class="node">
<title>Node5</title>
<g id="a_Node000005"><a xlink:href="classinja_1_1DataNode.html" target="_top" xlink:title=" ">
<polygon fill="white" stroke="none" points="123.62,-77.5 42.88,-77.5 42.88,-56.75 123.62,-56.75 123.62,-77.5"/>
<text xml:space="preserve" text-anchor="start" x="46.88" y="-64" font-family="Helvetica,sans-Serif" font-size="10.00">inja::DataNode</text>
<polygon fill="none" stroke="#666666" points="42.88,-56.75 42.88,-77.5 123.62,-77.5 123.62,-56.75 42.88,-56.75"/>
</a>
</g>
</g>
<!-- Node4&#45;&gt;Node5 -->
<g id="edge4_Node000004_Node000005" class="edge">
<title>Node4&#45;&gt;Node5</title>
<g id="a_edge4_Node000004_Node000005"><a xlink:title=" ">
<path fill="none" stroke="#63b8ff" d="M255,-110.87C214.62,-100.82 157.8,-86.68 120.75,-77.46"/>
<polygon fill="none" stroke="#63b8ff" points="253.91,-114.2 264.46,-113.22 255.6,-107.41 253.91,-114.2"/>
</a>
</g>
</g>
<!-- Node6 -->
<g id="Node000006" class="node">
<title>Node6</title>
<g id="a_Node000006"><a xlink:href="classinja_1_1FunctionNode.html" target="_top" xlink:title=" ">
<polygon fill="white" stroke="none" points="240.62,-77.5 141.88,-77.5 141.88,-56.75 240.62,-56.75 240.62,-77.5"/>
<text xml:space="preserve" text-anchor="start" x="145.88" y="-64" font-family="Helvetica,sans-Serif" font-size="10.00">inja::FunctionNode</text>
<polygon fill="none" stroke="#666666" points="141.88,-56.75 141.88,-77.5 240.62,-77.5 240.62,-56.75 141.88,-56.75"/>
</a>
</g>
</g>
<!-- Node4&#45;&gt;Node6 -->
<g id="edge5_Node000004_Node000006" class="edge">
<title>Node4&#45;&gt;Node6</title>
<g id="a_edge5_Node000004_Node000006"><a xlink:title=" ">
<path fill="none" stroke="#63b8ff" d="M274.08,-108.62C253.98,-98.79 227.83,-86.01 210.34,-77.46"/>
<polygon fill="none" stroke="#63b8ff" points="272.37,-111.68 282.89,-112.92 275.44,-105.39 272.37,-111.68"/>
</a>
</g>
</g>
<!-- Node7 -->
<g id="Node000007" class="node">
<title>Node7</title>
<g id="a_Node000007"><a xlink:href="classinja_1_1LiteralNode.html" target="_top" xlink:title=" ">
<polygon fill="white" stroke="none" points="347.38,-77.5 259.12,-77.5 259.12,-56.75 347.38,-56.75 347.38,-77.5"/>
<text xml:space="preserve" text-anchor="start" x="263.12" y="-64" font-family="Helvetica,sans-Serif" font-size="10.00">inja::LiteralNode</text>
<polygon fill="none" stroke="#666666" points="259.12,-56.75 259.12,-77.5 347.38,-77.5 347.38,-56.75 259.12,-56.75"/>
</a>
</g>
</g>
<!-- Node4&#45;&gt;Node7 -->
<g id="edge6_Node000004_Node000007" class="edge">
<title>Node4&#45;&gt;Node7</title>
<g id="a_edge6_Node000004_Node000007"><a xlink:title=" ">
<path fill="none" stroke="#63b8ff" d="M303.25,-102.36C303.25,-93.76 303.25,-84.19 303.25,-77.36"/>
<polygon fill="none" stroke="#63b8ff" points="299.75,-102.32 303.25,-112.32 306.75,-102.32 299.75,-102.32"/>
</a>
</g>
</g>
<!-- Node9 -->
<g id="Node000009" class="node">
<title>Node9</title>
<g id="a_Node000009"><a xlink:href="classinja_1_1BlockStatementNode.html" target="_top" xlink:title=" ">
<polygon fill="white" stroke="none" points="501,-77.5 365.5,-77.5 365.5,-56.75 501,-56.75 501,-77.5"/>
<text xml:space="preserve" text-anchor="start" x="369.5" y="-64" font-family="Helvetica,sans-Serif" font-size="10.00">inja::BlockStatementNode</text>
<polygon fill="none" stroke="#666666" points="365.5,-56.75 365.5,-77.5 501,-77.5 501,-56.75 365.5,-56.75"/>
</a>
</g>
</g>
<!-- Node8&#45;&gt;Node9 -->
<g id="edge8_Node000008_Node000009" class="edge">
<title>Node8&#45;&gt;Node9</title>
<g id="a_edge8_Node000008_Node000009"><a xlink:title=" ">
<path fill="none" stroke="#63b8ff" d="M618.83,-111C575.26,-100.93 513.63,-86.69 473.56,-77.44"/>
<polygon fill="none" stroke="#63b8ff" points="617.77,-114.34 628.3,-113.18 619.35,-107.52 617.77,-114.34"/>
</a>
</g>
</g>
<!-- Node10 -->
<g id="Node000010" class="node">
<title>Node10</title>
<g id="a_Node000010"><a xlink:href="classinja_1_1ExtendsStatementNode.html" target="_top" xlink:title=" ">
<polygon fill="white" stroke="none" points="667,-77.5 519.5,-77.5 519.5,-56.75 667,-56.75 667,-77.5"/>
<text xml:space="preserve" text-anchor="start" x="523.5" y="-64" font-family="Helvetica,sans-Serif" font-size="10.00">inja::ExtendsStatementNode</text>
<polygon fill="none" stroke="#666666" points="519.5,-56.75 519.5,-77.5 667,-77.5 667,-56.75 519.5,-56.75"/>
</a>
</g>
</g>
<!-- Node8&#45;&gt;Node10 -->
<g id="edge9_Node000008_Node000010" class="edge">
<title>Node8&#45;&gt;Node10</title>
<g id="a_edge9_Node000008_Node000010"><a xlink:title=" ">
<path fill="none" stroke="#63b8ff" d="M648.06,-107.1C634.57,-97.5 617.79,-85.57 606.38,-77.46"/>
<polygon fill="none" stroke="#63b8ff" points="645.78,-109.77 655.95,-112.71 649.83,-104.06 645.78,-109.77"/>
</a>
</g>
</g>
<!-- Node11 -->
<g id="Node000011" class="node">
<title>Node11</title>
<g id="a_Node000011"><a xlink:href="classinja_1_1ForStatementNode.html" target="_top" xlink:title=" ">
<polygon fill="white" stroke="none" points="809,-77.5 685.5,-77.5 685.5,-56.75 809,-56.75 809,-77.5"/>
<text xml:space="preserve" text-anchor="start" x="689.5" y="-64" font-family="Helvetica,sans-Serif" font-size="10.00">inja::ForStatementNode</text>
<polygon fill="none" stroke="#666666" points="685.5,-56.75 685.5,-77.5 809,-77.5 809,-56.75 685.5,-56.75"/>
</a>
</g>
</g>
<!-- Node8&#45;&gt;Node11 -->
<g id="edge10_Node000008_Node000011" class="edge">
<title>Node8&#45;&gt;Node11</title>
<g id="a_edge10_Node000008_Node000011"><a xlink:title=" ">
<path fill="none" stroke="#63b8ff" d="M692.44,-107.1C705.93,-97.5 722.71,-85.57 734.12,-77.46"/>
<polygon fill="none" stroke="#63b8ff" points="690.67,-104.06 684.55,-112.71 694.72,-109.77 690.67,-104.06"/>
</a>
</g>
</g>
<!-- Node14 -->
<g id="Node000014" class="node">
<title>Node14</title>
<g id="a_Node000014"><a xlink:href="classinja_1_1IfStatementNode.html" target="_top" xlink:title=" ">
<polygon fill="white" stroke="none" points="941.88,-77.5 826.62,-77.5 826.62,-56.75 941.88,-56.75 941.88,-77.5"/>
<text xml:space="preserve" text-anchor="start" x="830.62" y="-64" font-family="Helvetica,sans-Serif" font-size="10.00">inja::IfStatementNode</text>
<polygon fill="none" stroke="#666666" points="826.62,-56.75 826.62,-77.5 941.88,-77.5 941.88,-56.75 826.62,-56.75"/>
</a>
</g>
</g>
<!-- Node8&#45;&gt;Node14 -->
<g id="edge13_Node000008_Node000014" class="edge">
<title>Node8&#45;&gt;Node14</title>
<g id="a_edge13_Node000008_Node000014"><a xlink:title=" ">
<path fill="none" stroke="#63b8ff" d="M717.68,-110.74C756.94,-100.7 811.89,-86.64 847.77,-77.46"/>
<polygon fill="none" stroke="#63b8ff" points="716.84,-107.34 708.02,-113.21 718.57,-114.12 716.84,-107.34"/>
</a>
</g>
</g>
<!-- Node15 -->
<g id="Node000015" class="node">
<title>Node15</title>
<g id="a_Node000015"><a xlink:href="classinja_1_1IncludeStatementNode.html" target="_top" xlink:title=" ">
<polygon fill="white" stroke="none" points="1104.12,-77.5 960.38,-77.5 960.38,-56.75 1104.12,-56.75 1104.12,-77.5"/>
<text xml:space="preserve" text-anchor="start" x="964.38" y="-64" font-family="Helvetica,sans-Serif" font-size="10.00">inja::IncludeStatementNode</text>
<polygon fill="none" stroke="#666666" points="960.38,-56.75 960.38,-77.5 1104.12,-77.5 1104.12,-56.75 960.38,-56.75"/>
</a>
</g>
</g>
<!-- Node8&#45;&gt;Node15 -->
<g id="edge14_Node000008_Node000015" class="edge">
<title>Node8&#45;&gt;Node15</title>
<g id="a_edge14_Node000008_Node000015"><a xlink:title=" ">
<path fill="none" stroke="#63b8ff" d="M735.64,-112.98C802.33,-102.9 905.02,-87.37 970.4,-77.48"/>
<polygon fill="none" stroke="#63b8ff" points="735.31,-109.5 725.94,-114.45 736.35,-116.42 735.31,-109.5"/>
</a>
</g>
</g>
<!-- Node16 -->
<g id="Node000016" class="node">
<title>Node16</title>
<g id="a_Node000016"><a xlink:href="classinja_1_1SetStatementNode.html" target="_top" xlink:title=" ">
<polygon fill="white" stroke="none" points="1246.38,-77.5 1122.12,-77.5 1122.12,-56.75 1246.38,-56.75 1246.38,-77.5"/>
<text xml:space="preserve" text-anchor="start" x="1126.12" y="-64" font-family="Helvetica,sans-Serif" font-size="10.00">inja::SetStatementNode</text>
<polygon fill="none" stroke="#666666" points="1122.12,-56.75 1122.12,-77.5 1246.38,-77.5 1246.38,-56.75 1122.12,-56.75"/>
</a>
</g>
</g>
<!-- Node8&#45;&gt;Node16 -->
<g id="edge15_Node000008_Node000016" class="edge">
<title>Node8&#45;&gt;Node16</title>
<g id="a_edge15_Node000008_Node000016"><a xlink:title=" ">
<path fill="none" stroke="#63b8ff" d="M735.44,-113.3C903.56,-93.15 948.31,-96.2 1113.25,-77.5 1116.22,-77.16 1119.25,-76.81 1122.31,-76.44"/>
<polygon fill="none" stroke="#63b8ff" points="735.19,-109.8 725.68,-114.47 736.03,-116.75 735.19,-109.8"/>
</a>
</g>
</g>
<!-- Node12 -->
<g id="Node000012" class="node">
<title>Node12</title>
<g id="a_Node000012"><a xlink:href="classinja_1_1ForArrayStatementNode.html" target="_top" xlink:title=" ">
<polygon fill="white" stroke="none" points="737.12,-20.75 587.38,-20.75 587.38,0 737.12,0 737.12,-20.75"/>
<text xml:space="preserve" text-anchor="start" x="591.38" y="-7.25" font-family="Helvetica,sans-Serif" font-size="10.00">inja::ForArrayStatementNode</text>
<polygon fill="none" stroke="#666666" points="587.38,0 587.38,-20.75 737.12,-20.75 737.12,0 587.38,0"/>
</a>
</g>
</g>
<!-- Node11&#45;&gt;Node12 -->
<g id="edge11_Node000011_Node000012" class="edge">
<title>Node11&#45;&gt;Node12</title>
<g id="a_edge11_Node000011_Node000012"><a xlink:title=" ">
<path fill="none" stroke="#63b8ff" d="M723.19,-50.63C708.22,-40.99 689.46,-28.9 676.74,-20.71"/>
<polygon fill="none" stroke="#63b8ff" points="721.26,-53.55 731.56,-56.02 725.05,-47.66 721.26,-53.55"/>
</a>
</g>
</g>
<!-- Node13 -->
<g id="Node000013" class="node">
<title>Node13</title>
<g id="a_Node000013"><a xlink:href="classinja_1_1ForObjectStatementNode.html" target="_top" xlink:title=" ">
<polygon fill="white" stroke="none" points="909.75,-20.75 754.75,-20.75 754.75,0 909.75,0 909.75,-20.75"/>
<text xml:space="preserve" text-anchor="start" x="758.75" y="-7.25" font-family="Helvetica,sans-Serif" font-size="10.00">inja::ForObjectStatementNode</text>
<polygon fill="none" stroke="#666666" points="754.75,0 754.75,-20.75 909.75,-20.75 909.75,0 754.75,0"/>
</a>
</g>
</g>
<!-- Node11&#45;&gt;Node13 -->
<g id="edge12_Node000011_Node000013" class="edge">
<title>Node11&#45;&gt;Node13</title>
<g id="a_edge12_Node000011_Node000013"><a xlink:title=" ">
<path fill="none" stroke="#63b8ff" d="M771.31,-50.63C786.28,-40.99 805.04,-28.9 817.76,-20.71"/>
<polygon fill="none" stroke="#63b8ff" points="769.45,-47.66 762.94,-56.02 773.24,-53.55 769.45,-47.66"/>
</a>
</g>
</g>
</g>
</svg>
