<?xml version="1.0" encoding="UTF-8" standalone="no"?>
<!DOCTYPE svg PUBLIC "-//W3C//DTD SVG 1.1//EN"
 "http://www.w3.org/Graphics/SVG/1.1/DTD/svg11.dtd">
<!-- Generated by graphviz version 14.1.2 (0)
 -->
<!-- Title: mqtt::mqttbridge::websocket::SubProtocolFactory::create Pages: 1 -->
<!--zoomable 808 -->

<svg id="main" version="1.1" xmlns="http://www.w3.org/2000/svg" xmlns:xlink="http://www.w3.org/1999/xlink" xml:space="preserve" onload="init(evt)">

<style type="text/css"><![CDATA[
.node, .edge {opacity: 0.7;}
.node.selected, .edge.selected {opacity: 1;}
.edge:hover path { stroke: red; }
.edge:hover polygon { stroke: red; fill: red; }
]]></style>

<defs>
  <circle id="rim" cx="0" cy="0" r="7"/>
  <circle id="rim2" cx="0" cy="0" r="3.5"/>
  <g id="zoomPlus">
    <use xlink:href="#rim" fill="#404040"><set attributeName="fill" to="#808080" begin="zoomplus.mouseover" end="zoomplus.mouseout"/></use>
    <path d="M-4,0h8M0,-4v8" fill="none" stroke="white" stroke-width="1.5" pointer-events="none"/>
  </g>
  <g id="zoomMin">
    <use xlink:href="#rim" fill="#404040"><set attributeName="fill" to="#808080" begin="zoomminus.mouseover" end="zoomminus.mouseout"/></use>
    <path d="M-4,0h8" fill="none" stroke="white" stroke-width="1.5" pointer-events="none"/>
  </g>
  <g id="arrowUp" transform="translate(30 24)">
    <use xlink:href="#rim"/>
    <path pointer-events="none" fill="none" stroke="white" stroke-width="1.5" d="M0,-3.0v7 M-2.5,-0.5L0,-3.0L2.5,-0.5"/>
  </g>
  <g id="arrowRight" transform="rotate(90) translate(36 -43)">
    <use xlink:href="#rim"/>
    <path pointer-events="none" fill="none" stroke="white" stroke-width="1.5" d="M0,-3.0v7 M-2.5,-0.5L0,-3.0L2.5,-0.5"/>
  </g>
  <g id="arrowDown" transform="rotate(180) translate(-30 -48)">
    <use xlink:href="#rim"/>
    <path pointer-events="none" fill="none" stroke="white" stroke-width="1.5" d="M0,-3.0v7 M-2.5,-0.5L0,-3.0L2.5,-0.5"/>
  </g>
  <g id="arrowLeft" transform="rotate(270) translate(-36 17)">
    <use xlink:href="#rim"/>
    <path pointer-events="none" fill="none" stroke="white" stroke-width="1.5" d="M0,-3.0v7 M-2.5,-0.5L0,-3.0L2.5,-0.5"/>
  </g>
  <g id="resetDef">
    <use xlink:href="#rim2" fill="#404040"><set attributeName="fill" to="#808080" begin="reset.mouseover" end="reset.mouseout"/></use>
  </g>
</defs>
<script type="application/ecmascript">
var viewWidth = 541;
var viewHeight = 808;
var sectionId = 'dynsection-3';
</script>
<script type="application/ecmascript" xlink:href="svg.min.js"/>
<svg id="graph" class="graph">
<g id="viewport">
<title>mqtt::mqttbridge::websocket::SubProtocolFactory::create</title>
<!-- Node1 -->
<g id="Node000001" class="node">
<title>Node1</title>
<g id="a_Node000001"><a xlink:title=" ">
<polygon fill="#999999" stroke="#666666" points="157,-553.5 0,-553.5 0,-520 157,-520 157,-553.5"/>
<text xml:space="preserve" text-anchor="start" x="8" y="-540" font-family="Helvetica,sans-Serif" font-size="10.00">mqtt::mqttbridge::websocket</text>
<text xml:space="preserve" text-anchor="middle" x="78.5" y="-527.25" font-family="Helvetica,sans-Serif" font-size="10.00">::SubProtocolFactory::create</text>
</a>
</g>
</g>
<!-- Node2 -->
<g id="Node000002" class="node">
<title>Node2</title>
<g id="a_Node000002"><a xlink:href="classmqtt_1_1bridge_1_1lib_1_1Broker.html#acff6cddc56c9cdc2b0688d6482034131" target="_top" xlink:title=" ">
<polygon fill="white" stroke="#666666" points="306.5,-799.5 205.75,-799.5 205.75,-766 306.5,-766 306.5,-799.5"/>
<text xml:space="preserve" text-anchor="start" x="213.75" y="-786" font-family="Helvetica,sans-Serif" font-size="10.00">mqtt::bridge::lib::</text>
<text xml:space="preserve" text-anchor="middle" x="256.12" y="-773.25" font-family="Helvetica,sans-Serif" font-size="10.00">Broker::getBridge</text>
</a>
</g>
</g>
<!-- Node1&#45;&gt;Node2 -->
<g id="edge1_Node000001_Node000002" class="edge">
<title>Node1&#45;&gt;Node2</title>
<g id="a_edge1_Node000001_Node000002"><a xlink:title=" ">
<path fill="none" stroke="#63b8ff" d="M83.92,-553.82C95.25,-594.42 129.05,-697.72 193,-756.75 194.04,-757.71 195.12,-758.64 196.23,-759.53"/>
<polygon fill="#63b8ff" stroke="#63b8ff" points="193.87,-762.15 204.09,-764.93 197.83,-756.38 193.87,-762.15"/>
</a>
</g>
</g>
<!-- Node3 -->
<g id="Node000003" class="node">
<title>Node3</title>
<g id="a_Node000003"><a xlink:href="classmqtt_1_1bridge_1_1lib_1_1BridgeStore.html#a4876aaa7576d0f1c707f2a070d3966cf" target="_top" xlink:title=" ">
<polygon fill="white" stroke="#666666" points="319.25,-747.5 193,-747.5 193,-714 319.25,-714 319.25,-747.5"/>
<text xml:space="preserve" text-anchor="start" x="201" y="-734" font-family="Helvetica,sans-Serif" font-size="10.00">mqtt::bridge::lib::</text>
<text xml:space="preserve" text-anchor="middle" x="256.12" y="-721.25" font-family="Helvetica,sans-Serif" font-size="10.00">BridgeStore::getBroker</text>
</a>
</g>
</g>
<!-- Node1&#45;&gt;Node3 -->
<g id="edge2_Node000001_Node000003" class="edge">
<title>Node1&#45;&gt;Node3</title>
<g id="a_edge2_Node000001_Node000003"><a xlink:title=" ">
<path fill="none" stroke="#63b8ff" d="M87.59,-553.6C103.71,-585.69 142.65,-656.23 193,-699.75 196.34,-702.64 200,-705.33 203.81,-707.83"/>
<polygon fill="#63b8ff" stroke="#63b8ff" points="201.85,-710.74 212.23,-712.87 205.44,-704.73 201.85,-710.74"/>
</a>
</g>
</g>
<!-- Node4 -->
<g id="Node000004" class="node">
<title>Node4</title>
<g id="a_Node000004"><a xlink:href="classmqtt_1_1bridge_1_1lib_1_1Broker.html#a6d2569d96d1c3c9775d3094a57d298e0" target="_top" xlink:title=" ">
<polygon fill="white" stroke="#666666" points="497.62,-654.5 390.88,-654.5 390.88,-621 497.62,-621 497.62,-654.5"/>
<text xml:space="preserve" text-anchor="start" x="398.88" y="-641" font-family="Helvetica,sans-Serif" font-size="10.00">mqtt::bridge::lib::</text>
<text xml:space="preserve" text-anchor="middle" x="444.25" y="-628.25" font-family="Helvetica,sans-Serif" font-size="10.00">Broker::getClientId</text>
</a>
</g>
</g>
<!-- Node1&#45;&gt;Node4 -->
<g id="edge3_Node000001_Node000004" class="edge">
<title>Node1&#45;&gt;Node4</title>
<g id="a_edge3_Node000001_Node000004"><a xlink:title=" ">
<path fill="none" stroke="#63b8ff" d="M88.16,-553.99C104.15,-583.63 141.45,-643.32 193,-666.75 257.13,-695.89 339.61,-676.89 391.97,-658.79"/>
<polygon fill="#63b8ff" stroke="#63b8ff" points="393.01,-662.13 401.24,-655.47 390.65,-655.54 393.01,-662.13"/>
</a>
</g>
</g>
<!-- Node5 -->
<g id="Node000005" class="node">
<title>Node5</title>
<g id="a_Node000005"><a xlink:href="classmqtt_1_1bridge_1_1lib_1_1Broker.html#a6eb76f6da39d0e64d2795ff275841042" target="_top" xlink:title=" ">
<polygon fill="white" stroke="#666666" points="316.62,-657.5 195.62,-657.5 195.62,-624 316.62,-624 316.62,-657.5"/>
<text xml:space="preserve" text-anchor="start" x="203.62" y="-644" font-family="Helvetica,sans-Serif" font-size="10.00">mqtt::bridge::lib::</text>
<text xml:space="preserve" text-anchor="middle" x="256.12" y="-631.25" font-family="Helvetica,sans-Serif" font-size="10.00">Broker::getEncryption</text>
</a>
</g>
</g>
<!-- Node1&#45;&gt;Node5 -->
<g id="edge4_Node000001_Node000005" class="edge">
<title>Node1&#45;&gt;Node5</title>
<g id="a_edge4_Node000001_Node000005"><a xlink:title=" ">
<path fill="none" stroke="#63b8ff" d="M101.24,-553.7C123.47,-570.55 159.41,-596.44 193,-614.75 195.47,-616.1 198.02,-617.42 200.63,-618.71"/>
<polygon fill="#63b8ff" stroke="#63b8ff" points="198.91,-621.77 209.44,-622.88 201.9,-615.44 198.91,-621.77"/>
</a>
</g>
</g>
<!-- Node6 -->
<g id="Node000006" class="node">
<title>Node6</title>
<g id="a_Node000006"><a xlink:href="classmqtt_1_1bridge_1_1lib_1_1Bridge.html#a4177e157e17db6dc673e9e49282a2842" target="_top" xlink:title=" ">
<polygon fill="white" stroke="#666666" points="306.12,-605.5 206.12,-605.5 206.12,-572 306.12,-572 306.12,-605.5"/>
<text xml:space="preserve" text-anchor="start" x="214.12" y="-592" font-family="Helvetica,sans-Serif" font-size="10.00">mqtt::bridge::lib::</text>
<text xml:space="preserve" text-anchor="middle" x="256.12" y="-579.25" font-family="Helvetica,sans-Serif" font-size="10.00">Bridge::getName</text>
</a>
</g>
</g>
<!-- Node1&#45;&gt;Node6 -->
<g id="edge5_Node000001_Node000006" class="edge">
<title>Node1&#45;&gt;Node6</title>
<g id="a_edge5_Node000001_Node000006"><a xlink:title=" ">
<path fill="none" stroke="#63b8ff" d="M137.49,-553.92C155.86,-559.36 176.21,-565.39 194.75,-570.87"/>
<polygon fill="#63b8ff" stroke="#63b8ff" points="193.69,-574.21 204.27,-573.69 195.67,-567.5 193.69,-574.21"/>
</a>
</g>
</g>
<!-- Node7 -->
<g id="Node000007" class="node">
<title>Node7</title>
<g id="a_Node000007"><a xlink:href="classmqtt_1_1bridge_1_1lib_1_1Broker.html#a0cb6a0b6686369928942a63621677fc7" target="_top" xlink:title=" ">
<polygon fill="white" stroke="#666666" points="306.12,-553.5 206.12,-553.5 206.12,-520 306.12,-520 306.12,-553.5"/>
<text xml:space="preserve" text-anchor="start" x="214.12" y="-540" font-family="Helvetica,sans-Serif" font-size="10.00">mqtt::bridge::lib::</text>
<text xml:space="preserve" text-anchor="middle" x="256.12" y="-527.25" font-family="Helvetica,sans-Serif" font-size="10.00">Broker::getName</text>
</a>
</g>
</g>
<!-- Node1&#45;&gt;Node7 -->
<g id="edge6_Node000001_Node000007" class="edge">
<title>Node1&#45;&gt;Node7</title>
<g id="a_edge6_Node000001_Node000007"><a xlink:title=" ">
<path fill="none" stroke="#63b8ff" d="M157.3,-536.75C169.74,-536.75 182.46,-536.75 194.43,-536.75"/>
<polygon fill="#63b8ff" stroke="#63b8ff" points="194.14,-540.25 204.14,-536.75 194.14,-533.25 194.14,-540.25"/>
</a>
</g>
</g>
<!-- Node8 -->
<g id="Node000008" class="node">
<title>Node8</title>
<g id="a_Node000008"><a xlink:href="classmqtt_1_1bridge_1_1lib_1_1Broker.html#a95796f4a7ef94d4ca6596fb436bb97ca" target="_top" xlink:title=" ">
<polygon fill="white" stroke="#666666" points="310.62,-501.5 201.62,-501.5 201.62,-468 310.62,-468 310.62,-501.5"/>
<text xml:space="preserve" text-anchor="start" x="209.62" y="-488" font-family="Helvetica,sans-Serif" font-size="10.00">mqtt::bridge::lib::</text>
<text xml:space="preserve" text-anchor="middle" x="256.12" y="-475.25" font-family="Helvetica,sans-Serif" font-size="10.00">Broker::getProtocol</text>
</a>
</g>
</g>
<!-- Node1&#45;&gt;Node8 -->
<g id="edge7_Node000001_Node000008" class="edge">
<title>Node1&#45;&gt;Node8</title>
<g id="a_edge7_Node000001_Node000008"><a xlink:title=" ">
<path fill="none" stroke="#63b8ff" d="M137.49,-519.58C154.54,-514.53 173.28,-508.98 190.7,-503.82"/>
<polygon fill="#63b8ff" stroke="#63b8ff" points="191.31,-507.3 199.9,-501.1 189.32,-500.58 191.31,-507.3"/>
</a>
</g>
</g>
<!-- Node9 -->
<g id="Node000009" class="node">
<title>Node9</title>
<g id="a_Node000009"><a xlink:href="classmqtt_1_1bridge_1_1lib_1_1Broker.html#a42387cd6087e5d11c2bc441a64dfaffc" target="_top" xlink:title=" ">
<polygon fill="white" stroke="#666666" points="306.12,-449.5 206.12,-449.5 206.12,-416 306.12,-416 306.12,-449.5"/>
<text xml:space="preserve" text-anchor="start" x="214.12" y="-436" font-family="Helvetica,sans-Serif" font-size="10.00">mqtt::bridge::lib::</text>
<text xml:space="preserve" text-anchor="middle" x="256.12" y="-423.25" font-family="Helvetica,sans-Serif" font-size="10.00">Broker::getTopics</text>
</a>
</g>
</g>
<!-- Node1&#45;&gt;Node9 -->
<g id="edge8_Node000001_Node000009" class="edge">
<title>Node1&#45;&gt;Node9</title>
<g id="a_edge8_Node000001_Node000009"><a xlink:title=" ">
<path fill="none" stroke="#63b8ff" d="M101.24,-519.8C123.47,-502.95 159.41,-477.06 193,-458.75 195.47,-457.4 198.02,-456.08 200.63,-454.79"/>
<polygon fill="#63b8ff" stroke="#63b8ff" points="201.9,-458.06 209.44,-450.62 198.91,-451.73 201.9,-458.06"/>
</a>
</g>
</g>
<!-- Node10 -->
<g id="Node000010" class="node">
<title>Node10</title>
<g id="a_Node000010"><a xlink:href="classmqtt_1_1bridge_1_1lib_1_1Broker.html#ab06b48a9b2540604ca385935b79aa351" target="_top" xlink:title=" ">
<polygon fill="white" stroke="#666666" points="313.62,-397.5 198.62,-397.5 198.62,-364 313.62,-364 313.62,-397.5"/>
<text xml:space="preserve" text-anchor="start" x="206.62" y="-384" font-family="Helvetica,sans-Serif" font-size="10.00">mqtt::bridge::lib::</text>
<text xml:space="preserve" text-anchor="middle" x="256.12" y="-371.25" font-family="Helvetica,sans-Serif" font-size="10.00">Broker::getTransport</text>
</a>
</g>
</g>
<!-- Node1&#45;&gt;Node10 -->
<g id="edge9_Node000001_Node000010" class="edge">
<title>Node1&#45;&gt;Node10</title>
<g id="a_edge9_Node000001_Node000010"><a xlink:title=" ">
<path fill="none" stroke="#63b8ff" d="M90.47,-519.78C108.79,-492.62 148.04,-439.17 193,-406.75 194.56,-405.62 196.19,-404.53 197.85,-403.48"/>
<polygon fill="#63b8ff" stroke="#63b8ff" points="199.47,-406.58 206.43,-398.6 196.01,-400.5 199.47,-406.58"/>
</a>
</g>
</g>
<!-- Node11 -->
<g id="Node000011" class="node">
<title>Node11</title>
<g id="a_Node000011"><a xlink:href="classmqtt_1_1bridge_1_1lib_1_1BridgeStore.html#a7b35204686d51d46798ecae6918527e1" target="_top" xlink:title=" ">
<polygon fill="white" stroke="#666666" points="316.25,-345.5 196,-345.5 196,-312 316.25,-312 316.25,-345.5"/>
<text xml:space="preserve" text-anchor="start" x="204" y="-332" font-family="Helvetica,sans-Serif" font-size="10.00">mqtt::bridge::lib::</text>
<text xml:space="preserve" text-anchor="middle" x="256.12" y="-319.25" font-family="Helvetica,sans-Serif" font-size="10.00">BridgeStore::instance</text>
</a>
</g>
</g>
<!-- Node1&#45;&gt;Node11 -->
<g id="edge10_Node000001_Node000011" class="edge">
<title>Node1&#45;&gt;Node11</title>
<g id="a_edge10_Node000001_Node000011"><a xlink:title=" ">
<path fill="none" stroke="#63b8ff" d="M86.01,-519.51C100.22,-484.02 137.26,-402.16 193,-354.75 194.1,-353.81 195.24,-352.91 196.42,-352.03"/>
<polygon fill="#63b8ff" stroke="#63b8ff" points="198.18,-355.05 204.67,-346.68 194.37,-349.18 198.18,-355.05"/>
</a>
</g>
</g>
<!-- Node12 -->
<g id="Node000012" class="node">
<title>Node12</title>
<g id="a_Node000012"><a xlink:href="classmqtt_1_1bridge_1_1lib_1_1Mqtt.html#a481f5663cbdc06d8f4d3fd5bc38481e0" target="_top" xlink:title=" ">
<polygon fill="white" stroke="#666666" points="306.12,-293.5 206.12,-293.5 206.12,-260 306.12,-260 306.12,-293.5"/>
<text xml:space="preserve" text-anchor="start" x="214.12" y="-280" font-family="Helvetica,sans-Serif" font-size="10.00">mqtt::bridge::lib::</text>
<text xml:space="preserve" text-anchor="middle" x="256.12" y="-267.25" font-family="Helvetica,sans-Serif" font-size="10.00">Mqtt::Mqtt</text>
</a>
</g>
</g>
<!-- Node1&#45;&gt;Node12 -->
<g id="edge11_Node000001_Node000012" class="edge">
<title>Node1&#45;&gt;Node12</title>
<g id="a_edge11_Node000001_Node000012"><a xlink:title=" ">
<path fill="none" stroke="#63b8ff" d="M83.36,-519.54C93.75,-477.06 126.09,-366.06 193,-302.75 194.19,-301.62 195.44,-300.54 196.74,-299.5"/>
<polygon fill="#63b8ff" stroke="#63b8ff" points="198.34,-302.64 204.62,-294.11 194.39,-296.86 198.34,-302.64"/>
</a>
</g>
</g>
<!-- Node12&#45;&gt;Node4 -->
<g id="edge13_Node000012_Node000004" class="edge">
<title>Node12&#45;&gt;Node4</title>
<g id="a_edge13_Node000012_Node000004"><a xlink:title=" ">
<path fill="none" stroke="#63b8ff" d="M306.44,-291.35C311.32,-294.46 315.76,-298.21 319.25,-302.75 390.41,-395.19 299.19,-460.44 355.25,-562.75 366.75,-583.74 386.62,-601.44 404.58,-614.37"/>
<polygon fill="#63b8ff" stroke="#63b8ff" points="402.27,-617.03 412.49,-619.83 406.25,-611.27 402.27,-617.03"/>
</a>
</g>
</g>
<!-- Node13 -->
<g id="Node000013" class="node">
<title>Node13</title>
<g id="a_Node000013"><a xlink:href="classmqtt_1_1bridge_1_1lib_1_1Broker.html#a7ef2ec65092282a8690a4c1f6ddeba8b" target="_top" xlink:title=" ">
<polygon fill="white" stroke="#666666" points="511.5,-553.5 377,-553.5 377,-520 511.5,-520 511.5,-553.5"/>
<text xml:space="preserve" text-anchor="start" x="385" y="-540" font-family="Helvetica,sans-Serif" font-size="10.00">mqtt::bridge::lib::</text>
<text xml:space="preserve" text-anchor="middle" x="444.25" y="-527.25" font-family="Helvetica,sans-Serif" font-size="10.00">Broker::getCleanSession</text>
</a>
</g>
</g>
<!-- Node12&#45;&gt;Node13 -->
<g id="edge12_Node000012_Node000013" class="edge">
<title>Node12&#45;&gt;Node13</title>
<g id="a_edge12_Node000012_Node000013"><a xlink:title=" ">
<path fill="none" stroke="#63b8ff" d="M306.59,-291.66C311.38,-294.7 315.75,-298.36 319.25,-302.75 377.72,-376.12 292.86,-440.68 355.25,-510.75 358.68,-514.6 362.65,-517.9 366.97,-520.71"/>
<polygon fill="#63b8ff" stroke="#63b8ff" points="365.12,-523.69 375.57,-525.41 368.48,-517.55 365.12,-523.69"/>
</a>
</g>
</g>
<!-- Node14 -->
<g id="Node000014" class="node">
<title>Node14</title>
<g id="a_Node000014"><a xlink:href="classmqtt_1_1bridge_1_1lib_1_1Broker.html#a537a5d925a917be20f784ac106bc7d2e" target="_top" xlink:title=" ">
<polygon fill="white" stroke="#666666" points="503.25,-501.5 385.25,-501.5 385.25,-468 503.25,-468 503.25,-501.5"/>
<text xml:space="preserve" text-anchor="start" x="393.25" y="-488" font-family="Helvetica,sans-Serif" font-size="10.00">mqtt::bridge::lib::</text>
<text xml:space="preserve" text-anchor="middle" x="444.25" y="-475.25" font-family="Helvetica,sans-Serif" font-size="10.00">Broker::getKeepAlive</text>
</a>
</g>
</g>
<!-- Node12&#45;&gt;Node14 -->
<g id="edge14_Node000012_Node000014" class="edge">
<title>Node12&#45;&gt;Node14</title>
<g id="a_edge14_Node000012_Node000014"><a xlink:title=" ">
<path fill="none" stroke="#63b8ff" d="M306.35,-291.85C311.19,-294.86 315.63,-298.46 319.25,-302.75 365.12,-357.14 306.48,-406.94 355.25,-458.75 360.73,-464.57 367.44,-469.11 374.7,-472.64"/>
<polygon fill="#63b8ff" stroke="#63b8ff" points="372.88,-475.68 383.46,-476.29 375.57,-469.22 372.88,-475.68"/>
</a>
</g>
</g>
<!-- Node15 -->
<g id="Node000015" class="node">
<title>Node15</title>
<g id="a_Node000015"><a xlink:href="classmqtt_1_1bridge_1_1lib_1_1Broker.html#a12c314cbad6137819c767bc6ead98d3e" target="_top" xlink:title=" ">
<polygon fill="white" stroke="#666666" points="516.75,-449.5 371.75,-449.5 371.75,-416 516.75,-416 516.75,-449.5"/>
<text xml:space="preserve" text-anchor="start" x="379.75" y="-436" font-family="Helvetica,sans-Serif" font-size="10.00">mqtt::bridge::lib::</text>
<text xml:space="preserve" text-anchor="middle" x="444.25" y="-423.25" font-family="Helvetica,sans-Serif" font-size="10.00">Broker::getLoopPrevention</text>
</a>
</g>
</g>
<!-- Node12&#45;&gt;Node15 -->
<g id="edge15_Node000012_Node000015" class="edge">
<title>Node12&#45;&gt;Node15</title>
<g id="a_edge15_Node000012_Node000015"><a xlink:title=" ">
<path fill="none" stroke="#63b8ff" d="M306.52,-292.62C311.2,-295.48 315.57,-298.83 319.25,-302.75 352.73,-338.41 319.88,-372.97 355.25,-406.75 357.32,-408.72 359.53,-410.55 361.85,-412.24"/>
<polygon fill="#63b8ff" stroke="#63b8ff" points="359.66,-415 370.01,-417.29 363.35,-409.05 359.66,-415"/>
</a>
</g>
</g>
<!-- Node16 -->
<g id="Node000016" class="node">
<title>Node16</title>
<g id="a_Node000016"><a xlink:href="classmqtt_1_1bridge_1_1lib_1_1Broker.html#a8b0a98fcc637171cc995cee2a8bd5685" target="_top" xlink:title=" ">
<polygon fill="white" stroke="#666666" points="502.12,-397.5 386.38,-397.5 386.38,-364 502.12,-364 502.12,-397.5"/>
<text xml:space="preserve" text-anchor="start" x="394.38" y="-384" font-family="Helvetica,sans-Serif" font-size="10.00">mqtt::bridge::lib::</text>
<text xml:space="preserve" text-anchor="middle" x="444.25" y="-371.25" font-family="Helvetica,sans-Serif" font-size="10.00">Broker::getPassword</text>
</a>
</g>
</g>
<!-- Node12&#45;&gt;Node16 -->
<g id="edge16_Node000012_Node000016" class="edge">
<title>Node12&#45;&gt;Node16</title>
<g id="a_edge16_Node000012_Node000016"><a xlink:title=" ">
<path fill="none" stroke="#63b8ff" d="M305.83,-293.87C310.59,-296.49 315.16,-299.44 319.25,-302.75 341.09,-320.44 332.48,-338.27 355.25,-354.75 361.41,-359.2 368.33,-362.9 375.51,-365.97"/>
<polygon fill="#63b8ff" stroke="#63b8ff" points="374.15,-369.2 384.75,-369.49 376.65,-362.66 374.15,-369.2"/>
</a>
</g>
</g>
<!-- Node17 -->
<g id="Node000017" class="node">
<title>Node17</title>
<g id="a_Node000017"><a xlink:href="classmqtt_1_1bridge_1_1lib_1_1Broker.html#ad86912ec39c5469f7847a254f9f722ae" target="_top" xlink:title=" ">
<polygon fill="white" stroke="#666666" points="494.25,-345.5 394.25,-345.5 394.25,-312 494.25,-312 494.25,-345.5"/>
<text xml:space="preserve" text-anchor="start" x="402.25" y="-332" font-family="Helvetica,sans-Serif" font-size="10.00">mqtt::bridge::lib::</text>
<text xml:space="preserve" text-anchor="middle" x="444.25" y="-319.25" font-family="Helvetica,sans-Serif" font-size="10.00">Broker::getPrefix</text>
</a>
</g>
</g>
<!-- Node12&#45;&gt;Node17 -->
<g id="edge17_Node000012_Node000017" class="edge">
<title>Node12&#45;&gt;Node17</title>
<g id="a_edge17_Node000012_Node000017"><a xlink:title=" ">
<path fill="none" stroke="#63b8ff" d="M306.51,-290.55C329.96,-297.1 358.18,-304.98 382.88,-311.88"/>
<polygon fill="#63b8ff" stroke="#63b8ff" points="381.92,-315.25 392.5,-314.57 383.81,-308.51 381.92,-315.25"/>
</a>
</g>
</g>
<!-- Node18 -->
<g id="Node000018" class="node">
<title>Node18</title>
<g id="a_Node000018"><a xlink:href="classmqtt_1_1bridge_1_1lib_1_1Broker.html#a684990f7a76ea49f37375d6f6c6d1ba4" target="_top" xlink:title=" ">
<polygon fill="white" stroke="#666666" points="533.25,-293.5 355.25,-293.5 355.25,-260 533.25,-260 533.25,-293.5"/>
<text xml:space="preserve" text-anchor="start" x="363.25" y="-280" font-family="Helvetica,sans-Serif" font-size="10.00">mqtt::bridge::lib::</text>
<text xml:space="preserve" text-anchor="middle" x="444.25" y="-267.25" font-family="Helvetica,sans-Serif" font-size="10.00">Broker::getSessionStoreFileName</text>
</a>
</g>
</g>
<!-- Node12&#45;&gt;Node18 -->
<g id="edge18_Node000012_Node000018" class="edge">
<title>Node12&#45;&gt;Node18</title>
<g id="a_edge18_Node000012_Node000018"><a xlink:title=" ">
<path fill="none" stroke="#63b8ff" d="M306.51,-276.75C318.01,-276.75 330.65,-276.75 343.47,-276.75"/>
<polygon fill="#63b8ff" stroke="#63b8ff" points="343.24,-280.25 353.24,-276.75 343.24,-273.25 343.24,-280.25"/>
</a>
</g>
</g>
<!-- Node19 -->
<g id="Node000019" class="node">
<title>Node19</title>
<g id="a_Node000019"><a xlink:href="classmqtt_1_1bridge_1_1lib_1_1Broker.html#a750e20fe14960d3a5944ecb03bf7e269" target="_top" xlink:title=" ">
<polygon fill="white" stroke="#666666" points="504,-241.5 384.5,-241.5 384.5,-208 504,-208 504,-241.5"/>
<text xml:space="preserve" text-anchor="start" x="392.5" y="-228" font-family="Helvetica,sans-Serif" font-size="10.00">mqtt::bridge::lib::</text>
<text xml:space="preserve" text-anchor="middle" x="444.25" y="-215.25" font-family="Helvetica,sans-Serif" font-size="10.00">Broker::getUsername</text>
</a>
</g>
</g>
<!-- Node12&#45;&gt;Node19 -->
<g id="edge19_Node000012_Node000019" class="edge">
<title>Node12&#45;&gt;Node19</title>
<g id="a_edge19_Node000012_Node000019"><a xlink:title=" ">
<path fill="none" stroke="#63b8ff" d="M306.51,-262.95C326.88,-257.26 350.84,-250.57 372.98,-244.38"/>
<polygon fill="#63b8ff" stroke="#63b8ff" points="373.87,-247.77 382.56,-241.71 371.98,-241.03 373.87,-247.77"/>
</a>
</g>
</g>
<!-- Node20 -->
<g id="Node000020" class="node">
<title>Node20</title>
<g id="a_Node000020"><a xlink:href="classmqtt_1_1bridge_1_1lib_1_1Broker.html#a6403697d2031730753912aaaf47cb1f4" target="_top" xlink:title=" ">
<polygon fill="white" stroke="#666666" points="510,-189.5 378.5,-189.5 378.5,-156 510,-156 510,-189.5"/>
<text xml:space="preserve" text-anchor="start" x="386.5" y="-176" font-family="Helvetica,sans-Serif" font-size="10.00">mqtt::bridge::lib::</text>
<text xml:space="preserve" text-anchor="middle" x="444.25" y="-163.25" font-family="Helvetica,sans-Serif" font-size="10.00">Broker::getWillMessage</text>
</a>
</g>
</g>
<!-- Node12&#45;&gt;Node20 -->
<g id="edge20_Node000012_Node000020" class="edge">
<title>Node12&#45;&gt;Node20</title>
<g id="a_edge20_Node000012_Node000020"><a xlink:title=" ">
<path fill="none" stroke="#63b8ff" d="M274.45,-259.5C292.98,-241.93 323.97,-215.01 355.25,-198.75 359.19,-196.7 363.32,-194.79 367.55,-193.01"/>
<polygon fill="#63b8ff" stroke="#63b8ff" points="368.75,-196.3 376.79,-189.41 366.2,-189.78 368.75,-196.3"/>
</a>
</g>
</g>
<!-- Node21 -->
<g id="Node000021" class="node">
<title>Node21</title>
<g id="a_Node000021"><a xlink:href="classmqtt_1_1bridge_1_1lib_1_1Broker.html#ae421318ee7d0d6287cdb43d605277a5b" target="_top" xlink:title=" ">
<polygon fill="white" stroke="#666666" points="498,-137.5 390.5,-137.5 390.5,-104 498,-104 498,-137.5"/>
<text xml:space="preserve" text-anchor="start" x="398.5" y="-124" font-family="Helvetica,sans-Serif" font-size="10.00">mqtt::bridge::lib::</text>
<text xml:space="preserve" text-anchor="middle" x="444.25" y="-111.25" font-family="Helvetica,sans-Serif" font-size="10.00">Broker::getWillQoS</text>
</a>
</g>
</g>
<!-- Node12&#45;&gt;Node21 -->
<g id="edge21_Node000012_Node000021" class="edge">
<title>Node12&#45;&gt;Node21</title>
<g id="a_edge21_Node000012_Node000021"><a xlink:title=" ">
<path fill="none" stroke="#63b8ff" d="M265.42,-259.62C279.81,-231.75 312.01,-176.7 355.25,-146.75 362.52,-141.71 370.79,-137.64 379.26,-134.34"/>
<polygon fill="#63b8ff" stroke="#63b8ff" points="380.34,-137.67 388.63,-131.07 378.03,-131.06 380.34,-137.67"/>
</a>
</g>
</g>
<!-- Node22 -->
<g id="Node000022" class="node">
<title>Node22</title>
<g id="a_Node000022"><a xlink:href="classmqtt_1_1bridge_1_1lib_1_1Broker.html#a41d9b2f5e10294198b45d1e217574f60" target="_top" xlink:title=" ">
<polygon fill="white" stroke="#666666" points="504,-85.5 384.5,-85.5 384.5,-52 504,-52 504,-85.5"/>
<text xml:space="preserve" text-anchor="start" x="392.5" y="-72" font-family="Helvetica,sans-Serif" font-size="10.00">mqtt::bridge::lib::</text>
<text xml:space="preserve" text-anchor="middle" x="444.25" y="-59.25" font-family="Helvetica,sans-Serif" font-size="10.00">Broker::getWillRetain</text>
</a>
</g>
</g>
<!-- Node12&#45;&gt;Node22 -->
<g id="edge22_Node000012_Node000022" class="edge">
<title>Node12&#45;&gt;Node22</title>
<g id="a_edge22_Node000012_Node000022"><a xlink:title=" ">
<path fill="none" stroke="#63b8ff" d="M261.53,-259.58C271.69,-223.49 300.2,-139.43 355.25,-94.75 360.77,-90.27 367.04,-86.56 373.63,-83.49"/>
<polygon fill="#63b8ff" stroke="#63b8ff" points="374.85,-86.77 382.79,-79.75 372.21,-80.29 374.85,-86.77"/>
</a>
</g>
</g>
<!-- Node23 -->
<g id="Node000023" class="node">
<title>Node23</title>
<g id="a_Node000023"><a xlink:href="classmqtt_1_1bridge_1_1lib_1_1Broker.html#a345589d52b437b118f272a50df7b4b7d" target="_top" xlink:title=" ">
<polygon fill="white" stroke="#666666" points="500.62,-33.5 387.88,-33.5 387.88,0 500.62,0 500.62,-33.5"/>
<text xml:space="preserve" text-anchor="start" x="395.88" y="-20" font-family="Helvetica,sans-Serif" font-size="10.00">mqtt::bridge::lib::</text>
<text xml:space="preserve" text-anchor="middle" x="444.25" y="-7.25" font-family="Helvetica,sans-Serif" font-size="10.00">Broker::getWillTopic</text>
</a>
</g>
</g>
<!-- Node12&#45;&gt;Node23 -->
<g id="edge23_Node000012_Node000023" class="edge">
<title>Node12&#45;&gt;Node23</title>
<g id="a_edge23_Node000012_Node000023"><a xlink:title=" ">
<path fill="none" stroke="#63b8ff" d="M259.25,-259.76C265.53,-216.81 287.99,-103.01 355.25,-42.75 361.6,-37.06 369.15,-32.61 377.11,-29.14"/>
<polygon fill="#63b8ff" stroke="#63b8ff" points="378.22,-32.46 386.33,-25.64 375.74,-25.91 378.22,-32.46"/>
</a>
</g>
</g>
</g>
</svg>

<g id="navigator" transform="translate(0 0)" fill="#404254">
  <rect fill="#f2f5e9" fill-opacity="0.5" stroke="#606060" stroke-width=".5" x="0" y="0" width="60" height="60"/>
  <use id="zoomplus" xlink:href="#zoomPlus" x="17" y="9" onmousedown="handleZoom(evt,'in')"/>
  <use id="zoomminus" xlink:href="#zoomMin" x="42" y="9" onmousedown="handleZoom(evt,'out')"/>
  <use id="reset" xlink:href="#resetDef" x="30" y="36" onmousedown="handleReset()"/>
   <use id="arrowup" xlink:href="#arrowUp" x="0" y="0" onmousedown="handlePan(0,-1)"/>
  <use id="arrowright" xlink:href="#arrowRight" x="0" y="0" onmousedown="handlePan(1,0)"/>
  <use id="arrowdown" xlink:href="#arrowDown" x="0" y="0" onmousedown="handlePan(0,1)"/>
  <use id="arrowleft" xlink:href="#arrowLeft" x="0" y="0" onmousedown="handlePan(-1,0)"/>
</g>
<svg viewBox="0 0 15 15" width="100%" height="30px" preserveAspectRatio="xMaxYMin meet">
 <g id="arrow_out" transform="scale(0.3 0.3)">
  <a xlink:href="classmqtt_1_1mqttbridge_1_1websocket_1_1SubProtocolFactory_a843ee73f0182cea879cd45d9e924db8e_cgraph_org.svg" target="_base">
   <rect id="button" ry="5" rx="5" y="6" x="6" height="38" width="38"
        fill="#f2f5e9" fill-opacity="0.5" stroke="#606060" stroke-width="1.0"/>
   <path id="arrow"
     d="M 11.500037,31.436501 C 11.940474,20.09759 22.043105,11.32322 32.158766,21.979434 L 37.068811,17.246167 C 37.068811,17.246167 37.088388,32 37.088388,32 L 22.160133,31.978069 C 22.160133,31.978069 26.997745,27.140456 26.997745,27.140456 C 18.528582,18.264221 13.291696,25.230495 11.500037,31.436501 z"
     style="fill:#404040;"/>
  </a>
 </g>
</svg>

<style type='text/css'>
<![CDATA[
[data-mouse-over-selected='false'] { opacity: 0.7; }
[data-mouse-over-selected='true']  { opacity: 1.0; }
]]>
</style>
<script type="application/ecmascript"><![CDATA[
document.addEventListener('DOMContentLoaded', (event) => {
  highlightEdges();
  highlightAdjacentNodes();
});
]]></script>
</svg>
