<?xml version="1.0" encoding="UTF-8" standalone="no"?>
<!DOCTYPE svg PUBLIC "-//W3C//DTD SVG 1.1//EN"
 "http://www.w3.org/Graphics/SVG/1.1/DTD/svg11.dtd">
<!-- Generated by graphviz version 14.1.2 (0)
 -->
<!-- Title: mqtt::mqttbroker::lib::Mqtt::DelayedQueue::delayPublish Pages: 1 -->
<svg width="601pt" height="92pt"
 viewBox="0.00 0.00 601.00 92.00" xmlns="http://www.w3.org/2000/svg" xmlns:xlink="http://www.w3.org/1999/xlink">
<g id="graph0" class="graph" transform="scale(1 1) rotate(0) translate(4 87.88)">
<title>mqtt::mqttbroker::lib::Mqtt::DelayedQueue::delayPublish</title>
<!-- Node1 -->
<g id="Node000001" class="node">
<title>Node1</title>
<g id="a_Node000001"><a xlink:title=" ">
<polygon fill="#999999" stroke="#666666" points="592.75,-46.25 470.25,-46.25 470.25,0 592.75,0 592.75,-46.25"/>
<text xml:space="preserve" text-anchor="start" x="478.25" y="-32.75" font-family="Helvetica,sans-Serif" font-size="10.00">mqtt::mqttbroker::lib</text>
<text xml:space="preserve" text-anchor="start" x="478.25" y="-20" font-family="Helvetica,sans-Serif" font-size="10.00">::Mqtt::DelayedQueue</text>
<text xml:space="preserve" text-anchor="middle" x="531.5" y="-7.25" font-family="Helvetica,sans-Serif" font-size="10.00">::delayPublish</text>
</a>
</g>
</g>
<!-- Node2 -->
<g id="Node000002" class="node">
<title>Node2</title>
<g id="a_Node000002"><a xlink:href="classmqtt_1_1mqttbroker_1_1lib_1_1Mqtt.html#a35dd670ca3b7d67cffbbce1cf7c71ffb" target="_top" xlink:title=" ">
<polygon fill="white" stroke="#666666" points="434.25,-65.88 317,-65.88 317,-32.38 434.25,-32.38 434.25,-65.88"/>
<text xml:space="preserve" text-anchor="start" x="325" y="-52.38" font-family="Helvetica,sans-Serif" font-size="10.00">mqtt::mqttbroker::lib</text>
<text xml:space="preserve" text-anchor="middle" x="375.62" y="-39.62" font-family="Helvetica,sans-Serif" font-size="10.00">::Mqtt::onPublish</text>
</a>
</g>
</g>
<!-- Node1&#45;&gt;Node2 -->
<g id="edge1_Node000001_Node000002" class="edge">
<title>Node1&#45;&gt;Node2</title>
<g id="a_edge1_Node000001_Node000002"><a xlink:title=" ">
<path fill="none" stroke="#63b8ff" d="M459.03,-35.2C450.83,-36.59 442.55,-37.99 434.56,-39.34"/>
<polygon fill="#63b8ff" stroke="#63b8ff" points="459.36,-38.7 468.63,-33.58 458.19,-31.79 459.36,-38.7"/>
</a>
</g>
</g>
<!-- Node2&#45;&gt;Node2 -->
<g id="edge2_Node000002_Node000002" class="edge">
<title>Node2&#45;&gt;Node2</title>
<g id="a_edge2_Node000002_Node000002"><a xlink:title=" ">
<path fill="none" stroke="#63b8ff" d="M401.8,-77.26C397.54,-81.22 388.81,-83.88 375.62,-83.88 352.18,-83.88 342.84,-75.49 347.6,-66.29"/>
<polygon fill="#63b8ff" stroke="#63b8ff" points="405.19,-78.22 403.39,-67.78 398.28,-77.06 405.19,-78.22"/>
</a>
</g>
</g>
<!-- Node3 -->
<g id="Node000003" class="node">
<title>Node3</title>
<g id="a_Node000003"><a xlink:href="classmqtt_1_1mqttbroker_1_1lib_1_1Mqtt_1_1DelayedQueue.html#abe935c28141087ad3eadf41acab44702" target="_top" xlink:title=" ">
<polygon fill="white" stroke="#666666" points="281,-75.25 158.5,-75.25 158.5,-29 281,-29 281,-75.25"/>
<text xml:space="preserve" text-anchor="start" x="166.5" y="-61.75" font-family="Helvetica,sans-Serif" font-size="10.00">mqtt::mqttbroker::lib</text>
<text xml:space="preserve" text-anchor="start" x="166.5" y="-49" font-family="Helvetica,sans-Serif" font-size="10.00">::Mqtt::DelayedQueue</text>
<text xml:space="preserve" text-anchor="middle" x="219.75" y="-36.25" font-family="Helvetica,sans-Serif" font-size="10.00">::processDue</text>
</a>
</g>
</g>
<!-- Node2&#45;&gt;Node3 -->
<g id="edge3_Node000002_Node000003" class="edge">
<title>Node2&#45;&gt;Node3</title>
<g id="a_edge3_Node000002_Node000003"><a xlink:title=" ">
<path fill="none" stroke="#63b8ff" d="M305.59,-50.47C297.52,-50.63 289.33,-50.79 281.38,-50.94"/>
<polygon fill="#63b8ff" stroke="#63b8ff" points="305.45,-53.97 315.38,-50.28 305.31,-46.98 305.45,-53.97"/>
</a>
</g>
</g>
<!-- Node4 -->
<g id="Node000004" class="node">
<title>Node4</title>
<g id="a_Node000004"><a xlink:href="classmqtt_1_1mqttbroker_1_1lib_1_1Mqtt_1_1DelayedQueue.html#a8becf2d97fc0f71a12ae5e84ea8b2a66" target="_top" xlink:title=" ">
<polygon fill="white" stroke="#666666" points="122.5,-49.25 0,-49.25 0,-3 122.5,-3 122.5,-49.25"/>
<text xml:space="preserve" text-anchor="start" x="8" y="-35.75" font-family="Helvetica,sans-Serif" font-size="10.00">mqtt::mqttbroker::lib</text>
<text xml:space="preserve" text-anchor="start" x="8" y="-23" font-family="Helvetica,sans-Serif" font-size="10.00">::Mqtt::DelayedQueue</text>
<text xml:space="preserve" text-anchor="middle" x="61.25" y="-10.25" font-family="Helvetica,sans-Serif" font-size="10.00">::armDelayTimer</text>
</a>
</g>
</g>
<!-- Node3&#45;&gt;Node4 -->
<g id="edge4_Node000003_Node000004" class="edge">
<title>Node3&#45;&gt;Node4</title>
<g id="a_edge4_Node000003_Node000004"><a xlink:title=" ">
<path fill="none" stroke="#63b8ff" d="M146.95,-40.2C138.9,-38.86 130.75,-37.5 122.85,-36.19"/>
<polygon fill="#63b8ff" stroke="#63b8ff" points="146.31,-43.64 156.75,-41.82 147.46,-36.73 146.31,-43.64"/>
</a>
</g>
</g>
<!-- Node4&#45;&gt;Node1 -->
<g id="edge6_Node000004_Node000001" class="edge">
<title>Node4&#45;&gt;Node1</title>
<g id="a_edge6_Node000004_Node000001"><a xlink:title=" ">
<path fill="none" stroke="#63b8ff" d="M134.28,-21.14C142.45,-20.73 150.65,-20.37 158.5,-20.12 268.24,-16.71 396.28,-19.15 469.92,-21.18"/>
<polygon fill="#63b8ff" stroke="#63b8ff" points="134.11,-17.65 124.32,-21.69 134.5,-24.64 134.11,-17.65"/>
</a>
</g>
</g>
<!-- Node4&#45;&gt;Node4 -->
<g id="edge5_Node000004_Node000004" class="edge">
<title>Node4&#45;&gt;Node4</title>
<g id="a_edge5_Node000004_Node000004"><a xlink:title=" ">
<path fill="none" stroke="#63b8ff" d="M87.32,-59.99C82.81,-64.36 74.12,-67.25 61.25,-67.25 39.58,-67.25 29.76,-59.05 31.79,-49.38"/>
<polygon fill="#63b8ff" stroke="#63b8ff" points="90.54,-61.41 90.25,-50.82 83.87,-59.28 90.54,-61.41"/>
</a>
</g>
</g>
</g>
</svg>
