<?xml version="1.0" encoding="UTF-8" standalone="no"?>
<!DOCTYPE svg PUBLIC "-//W3C//DTD SVG 1.1//EN"
 "http://www.w3.org/Graphics/SVG/1.1/DTD/svg11.dtd">
<!-- Generated by graphviz version 2.42.4 (0)
 -->
<!-- Title: nlohmann::json_uri Pages: 1 -->
<svg width="119pt" height="226pt"
 viewBox="0.00 0.00 119.00 226.00" xmlns="http://www.w3.org/2000/svg" xmlns:xlink="http://www.w3.org/1999/xlink">
<g id="graph0" class="graph" transform="scale(1 1) rotate(0) translate(4 222)">
<title>nlohmann::json_uri</title>
<!-- Node1 -->
<g id="Node000001" class="node">
<title>Node1</title>
<g id="a_Node000001"><a xlink:title=" ">
<polygon fill="#999999" stroke="transparent" points="102,-19 0,-19 0,0 102,0 102,-19"/>
<text text-anchor="start" x="4" y="-6.5" font-family="Helvetica,sans-Serif" font-size="10.00">nlohmann::json_uri</text>
<polygon fill="none" stroke="#666666" points="0,0 0,-19 102,-19 102,0 0,0"/>
</a>
</g>
</g>
<!-- Node2 -->
<g id="Node000002" class="node">
<title>Node2</title>
<g id="a_Node000002"><a xlink:title=" ">
<polygon fill="white" stroke="transparent" points="80,-151 22,-151 22,-132 80,-132 80,-151"/>
<text text-anchor="start" x="26.5" y="-138.5" font-family="Helvetica,sans-Serif" font-size="10.00">std::string</text>
<polygon fill="none" stroke="#666666" points="22,-132 22,-151 80,-151 80,-132 22,-132"/>
</a>
</g>
</g>
<!-- Node2&#45;&gt;Node1 -->
<g id="edge1_Node000001_Node000002" class="edge">
<title>Node2&#45;&gt;Node1</title>
<g id="a_edge1_Node000001_Node000002"><a xlink:title=" ">
<path fill="none" stroke="#63b8ff" d="M51,-131.97C51,-111.78 51,-60.56 51,-31.49"/>
<polygon fill="none" stroke="#63b8ff" points="51,-31.23 47,-25.23 51,-19.23 55,-25.23 51,-31.23"/>
</a>
</g>
<text text-anchor="start" x="54" y="-102.5" font-family="Helvetica,sans-Serif" font-size="10.00" fill="grey">&#45;authority_</text>
<text text-anchor="start" x="54" y="-87.5" font-family="Helvetica,sans-Serif" font-size="10.00" fill="grey">&#45;identifier_</text>
<text text-anchor="start" x="54" y="-72.5" font-family="Helvetica,sans-Serif" font-size="10.00" fill="grey">&#45;path_</text>
<text text-anchor="start" x="54" y="-57.5" font-family="Helvetica,sans-Serif" font-size="10.00" fill="grey">&#45;scheme_</text>
<text text-anchor="start" x="54" y="-42.5" font-family="Helvetica,sans-Serif" font-size="10.00" fill="grey">&#45;urn_</text>
</g>
<!-- Node3 -->
<g id="Node000003" class="node">
<title>Node3</title>
<g id="a_Node000003"><a xlink:title=" ">
<polygon fill="white" stroke="transparent" points="99,-218 3,-218 3,-188 99,-188 99,-218"/>
<text text-anchor="start" x="7" y="-206" font-family="Helvetica,sans-Serif" font-size="10.00">std::basic_string&lt;</text>
<text text-anchor="start" x="32.5" y="-195" font-family="Helvetica,sans-Serif" font-size="10.00"> Char &gt;</text>
<polygon fill="none" stroke="#666666" points="3,-188 3,-218 99,-218 99,-188 3,-188"/>
</a>
</g>
</g>
<!-- Node3&#45;&gt;Node2 -->
<g id="edge2_Node000002_Node000003" class="edge">
<title>Node3&#45;&gt;Node2</title>
<g id="a_edge2_Node000002_Node000003"><a xlink:title=" ">
<path fill="none" stroke="#63b8ff" d="M51,-177.79C51,-168.36 51,-158.15 51,-151.16"/>
<polygon fill="none" stroke="#63b8ff" points="47.5,-177.9 51,-187.9 54.5,-177.9 47.5,-177.9"/>
</a>
</g>
</g>
</g>
</svg>
