<?xml version="1.0" encoding="UTF-8" standalone="no"?>
<!DOCTYPE svg PUBLIC "-//W3C//DTD SVG 1.1//EN"
 "http://www.w3.org/Graphics/SVG/1.1/DTD/svg11.dtd">
<!-- Generated by graphviz version 14.1.1 (0)
 -->
<!-- Title: mqtt::mqttbroker::lib::MqttModel::instance Pages: 1 -->
<svg width="371pt" height="184pt"
 viewBox="0.00 0.00 371.00 184.00" xmlns="http://www.w3.org/2000/svg" xmlns:xlink="http://www.w3.org/1999/xlink">
<g id="graph0" class="graph" transform="scale(1 1) rotate(0) translate(4 180.12)">
<title>mqtt::mqttbroker::lib::MqttModel::instance</title>
<!-- Node1 -->
<g id="Node000001" class="node">
<title>Node1</title>
<g id="a_Node000001"><a xlink:title=" ">
<polygon fill="#999999" stroke="#666666" points="363,-111.5 241.25,-111.5 241.25,-78 363,-78 363,-111.5"/>
<text xml:space="preserve" text-anchor="start" x="249.25" y="-98" font-family="Helvetica,sans-Serif" font-size="10.00">mqtt::mqttbroker::lib</text>
<text xml:space="preserve" text-anchor="middle" x="302.12" y="-85.25" font-family="Helvetica,sans-Serif" font-size="10.00">::MqttModel::instance</text>
</a>
</g>
</g>
<!-- Node2 -->
<g id="Node000002" class="node">
<title>Node2</title>
<g id="a_Node000002"><a xlink:href="mqttbroker_8cpp.html#a6a886a53c0261b1fa115609c34e8e607" target="_top" xlink:title=" ">
<polygon fill="white" stroke="#666666" points="173,-176.12 109,-176.12 109,-155.38 173,-155.38 173,-176.12"/>
<text xml:space="preserve" text-anchor="middle" x="141" y="-162.62" font-family="Helvetica,sans-Serif" font-size="10.00">getRouter</text>
</a>
</g>
</g>
<!-- Node1&#45;&gt;Node2 -->
<g id="edge1_Node000001_Node000002" class="edge">
<title>Node1&#45;&gt;Node2</title>
<g id="a_edge1_Node000001_Node000002"><a xlink:title=" ">
<path fill="none" stroke="#63b8ff" d="M263.61,-117.42C246.26,-127.3 225.12,-138.48 205.25,-146.75 195.09,-150.98 183.65,-154.71 173.33,-157.72"/>
<polygon fill="#63b8ff" stroke="#63b8ff" points="265.13,-120.59 272.04,-112.55 261.63,-114.52 265.13,-120.59"/>
</a>
</g>
</g>
<!-- Node4 -->
<g id="Node000004" class="node">
<title>Node4</title>
<g id="a_Node000004"><a xlink:href="classmqtt_1_1mqttbroker_1_1lib_1_1Mqtt.html#a381e51fa3f75d81dc2501403b83d96f2" target="_top" xlink:title=" ">
<polygon fill="white" stroke="#666666" points="199.62,-137.5 82.38,-137.5 82.38,-104 199.62,-104 199.62,-137.5"/>
<text xml:space="preserve" text-anchor="start" x="90.38" y="-124" font-family="Helvetica,sans-Serif" font-size="10.00">mqtt::mqttbroker::lib</text>
<text xml:space="preserve" text-anchor="middle" x="141" y="-111.25" font-family="Helvetica,sans-Serif" font-size="10.00">::Mqtt::onConnect</text>
</a>
</g>
</g>
<!-- Node1&#45;&gt;Node4 -->
<g id="edge3_Node000001_Node000004" class="edge">
<title>Node1&#45;&gt;Node4</title>
<g id="a_edge3_Node000001_Node000004"><a xlink:title=" ">
<path fill="none" stroke="#63b8ff" d="M229.78,-106.41C219.77,-108.04 209.59,-109.71 199.88,-111.29"/>
<polygon fill="#63b8ff" stroke="#63b8ff" points="230.17,-109.89 239.47,-104.82 229.04,-102.98 230.17,-109.89"/>
</a>
</g>
</g>
<!-- Node5 -->
<g id="Node000005" class="node">
<title>Node5</title>
<g id="a_Node000005"><a xlink:href="classmqtt_1_1mqttbroker_1_1lib_1_1Mqtt.html#a701d087aedd4cd329ba80f26a99d4f17" target="_top" xlink:title=" ">
<polygon fill="white" stroke="#666666" points="205.25,-85.5 76.75,-85.5 76.75,-52 205.25,-52 205.25,-85.5"/>
<text xml:space="preserve" text-anchor="start" x="84.75" y="-72" font-family="Helvetica,sans-Serif" font-size="10.00">mqtt::mqttbroker::lib</text>
<text xml:space="preserve" text-anchor="middle" x="141" y="-59.25" font-family="Helvetica,sans-Serif" font-size="10.00">::Mqtt::onDisconnected</text>
</a>
</g>
</g>
<!-- Node1&#45;&gt;Node5 -->
<g id="edge4_Node000001_Node000005" class="edge">
<title>Node1&#45;&gt;Node5</title>
<g id="a_edge4_Node000001_Node000005"><a xlink:title=" ">
<path fill="none" stroke="#63b8ff" d="M229.74,-83.09C221.73,-81.78 213.6,-80.45 205.69,-79.16"/>
<polygon fill="#63b8ff" stroke="#63b8ff" points="229.04,-86.52 239.47,-84.68 230.17,-79.61 229.04,-86.52"/>
</a>
</g>
</g>
<!-- Node6 -->
<g id="Node000006" class="node">
<title>Node6</title>
<g id="a_Node000006"><a xlink:href="classmqtt_1_1mqttbroker_1_1lib_1_1Mqtt.html#a35dd670ca3b7d67cffbbce1cf7c71ffb" target="_top" xlink:title=" ">
<polygon fill="white" stroke="#666666" points="199.62,-33.5 82.38,-33.5 82.38,0 199.62,0 199.62,-33.5"/>
<text xml:space="preserve" text-anchor="start" x="90.38" y="-20" font-family="Helvetica,sans-Serif" font-size="10.00">mqtt::mqttbroker::lib</text>
<text xml:space="preserve" text-anchor="middle" x="141" y="-7.25" font-family="Helvetica,sans-Serif" font-size="10.00">::Mqtt::onPublish</text>
</a>
</g>
</g>
<!-- Node1&#45;&gt;Node6 -->
<g id="edge5_Node000001_Node000006" class="edge">
<title>Node1&#45;&gt;Node6</title>
<g id="a_edge5_Node000001_Node000006"><a xlink:title=" ">
<path fill="none" stroke="#63b8ff" d="M261.66,-72.11C244.54,-62.61 224.12,-51.72 205.25,-42.75 198.92,-39.74 192.15,-36.74 185.48,-33.9"/>
<polygon fill="#63b8ff" stroke="#63b8ff" points="259.57,-74.95 270,-76.78 262.99,-68.84 259.57,-74.95"/>
</a>
</g>
</g>
<!-- Node3 -->
<g id="Node000003" class="node">
<title>Node3</title>
<g id="a_Node000003"><a xlink:href="mqttbroker_8cpp.html#a0ddf1224851353fc92bfbff6f499fa97" target="_top" xlink:title=" ">
<polygon fill="white" stroke="#666666" points="40.75,-176.12 0,-176.12 0,-155.38 40.75,-155.38 40.75,-176.12"/>
<text xml:space="preserve" text-anchor="middle" x="20.38" y="-162.62" font-family="Helvetica,sans-Serif" font-size="10.00">main</text>
</a>
</g>
</g>
<!-- Node2&#45;&gt;Node3 -->
<g id="edge2_Node000002_Node000003" class="edge">
<title>Node2&#45;&gt;Node3</title>
<g id="a_edge2_Node000002_Node000003"><a xlink:title=" ">
<path fill="none" stroke="#63b8ff" d="M97.27,-165.75C78.07,-165.75 56.35,-165.75 41.08,-165.75"/>
<polygon fill="#63b8ff" stroke="#63b8ff" points="97.01,-169.25 107.01,-165.75 97.01,-162.25 97.01,-169.25"/>
</a>
</g>
</g>
</g>
</svg>
