<?xml version="1.0" encoding="UTF-8" standalone="no"?>
<!DOCTYPE svg PUBLIC "-//W3C//DTD SVG 1.1//EN"
 "http://www.w3.org/Graphics/SVG/1.1/DTD/svg11.dtd">
<!-- Generated by graphviz version 14.1.1 (0)
 -->
<!-- Title: custom_error_handler Pages: 1 -->
<svg width="135pt" height="168pt"
 viewBox="0.00 0.00 135.00 168.00" xmlns="http://www.w3.org/2000/svg" xmlns:xlink="http://www.w3.org/1999/xlink">
<g id="graph0" class="graph" transform="scale(1 1) rotate(0) translate(4 163.75)">
<title>custom_error_handler</title>
<!-- Node1 -->
<g id="Node000001" class="node">
<title>Node1</title>
<g id="a_Node000001"><a xlink:title=" ">
<polygon fill="#999999" stroke="none" points="120.5,-20.75 6,-20.75 6,0 120.5,0 120.5,-20.75"/>
<text xml:space="preserve" text-anchor="start" x="10" y="-7.25" font-family="Helvetica,sans-Serif" font-size="10.00">custom_error_handler</text>
<polygon fill="none" stroke="#666666" points="6,0 6,-20.75 120.5,-20.75 120.5,0 6,0"/>
</a>
</g>
</g>
<!-- Node2 -->
<g id="Node000002" class="node">
<title>Node2</title>
<g id="a_Node000002"><a xlink:href="classnlohmann_1_1json__schema_1_1basic__error__handler.html" target="_top" xlink:title=" ">
<polygon fill="white" stroke="none" points="126.5,-90.25 0,-90.25 0,-56.75 126.5,-56.75 126.5,-90.25"/>
<text xml:space="preserve" text-anchor="start" x="4" y="-76.75" font-family="Helvetica,sans-Serif" font-size="10.00">nlohmann::json_schema</text>
<text xml:space="preserve" text-anchor="start" x="12.25" y="-64" font-family="Helvetica,sans-Serif" font-size="10.00">::basic_error_handler</text>
<polygon fill="none" stroke="#666666" points="0,-56.75 0,-90.25 126.5,-90.25 126.5,-56.75 0,-56.75"/>
</a>
</g>
</g>
<!-- Node2&#45;&gt;Node1 -->
<g id="edge1_Node000001_Node000002" class="edge">
<title>Node2&#45;&gt;Node1</title>
<g id="a_edge1_Node000001_Node000002"><a xlink:title=" ">
<path fill="none" stroke="#63b8ff" d="M43.12,-45.52C42.5,-36.59 44.21,-27.25 48.26,-20.6"/>
<polygon fill="none" stroke="#63b8ff" points="39.67,-46.11 45,-55.27 46.55,-44.79 39.67,-46.11"/>
</a>
</g>
</g>
<!-- Node2&#45;&gt;Node1 -->
<g id="edge3_Node000001_Node000002" class="edge">
<title>Node2&#45;&gt;Node1</title>
<g id="a_edge3_Node000001_Node000002"><a xlink:title=" ">
<path fill="none" stroke="#63b8ff" d="M56.54,-45.52C56.33,-36.59 56.9,-27.25 58.25,-20.6"/>
<polygon fill="none" stroke="#63b8ff" points="53.03,-45.49 57.16,-55.25 60.02,-45.04 53.03,-45.49"/>
</a>
</g>
</g>
<!-- Node2&#45;&gt;Node1 -->
<g id="edge4_Node000001_Node000002" class="edge">
<title>Node2&#45;&gt;Node1</title>
<g id="a_edge4_Node000001_Node000002"><a xlink:title=" ">
<path fill="none" stroke="#63b8ff" d="M69.96,-45.52C70.17,-36.59 69.6,-27.25 68.25,-20.6"/>
<polygon fill="none" stroke="#63b8ff" points="66.48,-45.04 69.34,-55.25 73.47,-45.49 66.48,-45.04"/>
</a>
</g>
</g>
<!-- Node2&#45;&gt;Node1 -->
<g id="edge5_Node000001_Node000002" class="edge">
<title>Node2&#45;&gt;Node1</title>
<g id="a_edge5_Node000001_Node000002"><a xlink:title=" ">
<path fill="none" stroke="#63b8ff" d="M83.38,-45.52C84,-36.59 82.29,-27.25 78.24,-20.6"/>
<polygon fill="none" stroke="#63b8ff" points="79.95,-44.79 81.5,-55.27 86.83,-46.11 79.95,-44.79"/>
</a>
</g>
</g>
<!-- Node3 -->
<g id="Node000003" class="node">
<title>Node3</title>
<g id="a_Node000003"><a xlink:href="classnlohmann_1_1json__schema_1_1error__handler.html" target="_top" xlink:title=" ">
<polygon fill="white" stroke="none" points="126.5,-159.75 0,-159.75 0,-126.25 126.5,-126.25 126.5,-159.75"/>
<text xml:space="preserve" text-anchor="start" x="4" y="-146.25" font-family="Helvetica,sans-Serif" font-size="10.00">nlohmann::json_schema</text>
<text xml:space="preserve" text-anchor="start" x="27.62" y="-133.5" font-family="Helvetica,sans-Serif" font-size="10.00">::error_handler</text>
<polygon fill="none" stroke="#666666" points="0,-126.25 0,-159.75 126.5,-159.75 126.5,-126.25 0,-126.25"/>
</a>
</g>
</g>
<!-- Node3&#45;&gt;Node2 -->
<g id="edge2_Node000002_Node000003" class="edge">
<title>Node3&#45;&gt;Node2</title>
<g id="a_edge2_Node000002_Node000003"><a xlink:title=" ">
<path fill="none" stroke="#63b8ff" d="M63.25,-115C63.25,-106.53 63.25,-97.47 63.25,-90.07"/>
<polygon fill="none" stroke="#63b8ff" points="59.75,-114.83 63.25,-124.83 66.75,-114.83 59.75,-114.83"/>
</a>
</g>
</g>
</g>
</svg>
