<?xml version="1.0" encoding="UTF-8" standalone="no"?>
<!DOCTYPE svg PUBLIC "-//W3C//DTD SVG 1.1//EN"
 "http://www.w3.org/Graphics/SVG/1.1/DTD/svg11.dtd">
<!-- Generated by graphviz version 14.1.2 (0)
 -->
<!-- Title: mqtt::bridge::lib::BridgeStore::patch Pages: 1 -->
<svg width="946pt" height="248pt"
 viewBox="0.00 0.00 946.00 248.00" xmlns="http://www.w3.org/2000/svg" xmlns:xlink="http://www.w3.org/1999/xlink">
<g id="graph0" class="graph" transform="scale(1 1) rotate(0) translate(4 243.88)">
<title>mqtt::bridge::lib::BridgeStore::patch</title>
<!-- Node1 -->
<g id="Node000001" class="node">
<title>Node1</title>
<g id="a_Node000001"><a xlink:title=" ">
<polygon fill="#999999" stroke="#666666" points="106,-142.88 0,-142.88 0,-109.38 106,-109.38 106,-142.88"/>
<text xml:space="preserve" text-anchor="start" x="8" y="-129.38" font-family="Helvetica,sans-Serif" font-size="10.00">mqtt::bridge::lib::</text>
<text xml:space="preserve" text-anchor="middle" x="53" y="-116.62" font-family="Helvetica,sans-Serif" font-size="10.00">BridgeStore::patch</text>
</a>
</g>
</g>
<!-- Node2 -->
<g id="Node000002" class="node">
<title>Node2</title>
<g id="a_Node000002"><a xlink:href="classnlohmann_1_1json__schema_1_1json__validator.html#affff379ae30b7ab48c81d5b65e34f613" target="_top" xlink:title=" ">
<polygon fill="white" stroke="#666666" points="278.75,-142.88 142,-142.88 142,-109.38 278.75,-109.38 278.75,-142.88"/>
<text xml:space="preserve" text-anchor="start" x="150" y="-129.38" font-family="Helvetica,sans-Serif" font-size="10.00">nlohmann::json_schema</text>
<text xml:space="preserve" text-anchor="middle" x="210.38" y="-116.62" font-family="Helvetica,sans-Serif" font-size="10.00">::json_validator::validate</text>
</a>
</g>
</g>
<!-- Node1&#45;&gt;Node2 -->
<g id="edge1_Node000001_Node000002" class="edge">
<title>Node1&#45;&gt;Node2</title>
<g id="a_edge1_Node000001_Node000002"><a xlink:title=" ">
<path fill="none" stroke="#63b8ff" d="M106.17,-126.12C113.9,-126.12 122.01,-126.12 130.14,-126.12"/>
<polygon fill="#63b8ff" stroke="#63b8ff" points="130.1,-129.63 140.1,-126.13 130.1,-122.63 130.1,-129.63"/>
</a>
</g>
</g>
<!-- Node3 -->
<g id="Node000003" class="node">
<title>Node3</title>
<g id="a_Node000003"><a xlink:href="classnlohmann_1_1json__schema_1_1json__validator.html#ae330a21f43f257fec1d8109f51827706" target="_top" xlink:title=" ">
<polygon fill="white" stroke="#666666" points="451.5,-142.88 314.75,-142.88 314.75,-109.38 451.5,-109.38 451.5,-142.88"/>
<text xml:space="preserve" text-anchor="start" x="322.75" y="-129.38" font-family="Helvetica,sans-Serif" font-size="10.00">nlohmann::json_schema</text>
<text xml:space="preserve" text-anchor="middle" x="383.12" y="-116.62" font-family="Helvetica,sans-Serif" font-size="10.00">::json_validator::validate</text>
</a>
</g>
</g>
<!-- Node2&#45;&gt;Node3 -->
<g id="edge2_Node000002_Node000003" class="edge">
<title>Node2&#45;&gt;Node3</title>
<g id="a_edge2_Node000002_Node000003"><a xlink:title=" ">
<path fill="none" stroke="#63b8ff" d="M278.86,-126.12C286.78,-126.12 294.91,-126.12 302.98,-126.12"/>
<polygon fill="#63b8ff" stroke="#63b8ff" points="302.78,-129.63 312.78,-126.13 302.78,-122.63 302.78,-129.63"/>
</a>
</g>
</g>
<!-- Node4 -->
<g id="Node000004" class="node">
<title>Node4</title>
<g id="a_Node000004"><a xlink:href="classnlohmann_1_1json__schema_1_1root__schema.html#a32f6012c2d81f29ca16e4409dd2b5ea3" target="_top" xlink:title=" ">
<polygon fill="white" stroke="#666666" points="622,-142.88 487.5,-142.88 487.5,-109.38 622,-109.38 622,-142.88"/>
<text xml:space="preserve" text-anchor="start" x="495.5" y="-129.38" font-family="Helvetica,sans-Serif" font-size="10.00">nlohmann::json_schema</text>
<text xml:space="preserve" text-anchor="middle" x="554.75" y="-116.62" font-family="Helvetica,sans-Serif" font-size="10.00">::root_schema::validate</text>
</a>
</g>
</g>
<!-- Node3&#45;&gt;Node4 -->
<g id="edge3_Node000003_Node000004" class="edge">
<title>Node3&#45;&gt;Node4</title>
<g id="a_edge3_Node000003_Node000004"><a xlink:title=" ">
<path fill="none" stroke="#63b8ff" d="M451.65,-126.12C459.56,-126.12 467.69,-126.12 475.73,-126.12"/>
<polygon fill="#63b8ff" stroke="#63b8ff" points="475.49,-129.63 485.49,-126.13 475.49,-122.63 475.49,-129.63"/>
</a>
</g>
</g>
<!-- Node5 -->
<g id="Node000005" class="node">
<title>Node5</title>
<g id="a_Node000005"><a xlink:href="classnlohmann_1_1json__schema_1_1error__handler.html#a6518c4580b8dd8063000e183f1541650" target="_top" xlink:title=" ">
<polygon fill="white" stroke="#666666" points="792.5,-239.88 658,-239.88 658,-206.38 792.5,-206.38 792.5,-239.88"/>
<text xml:space="preserve" text-anchor="start" x="666" y="-226.38" font-family="Helvetica,sans-Serif" font-size="10.00">nlohmann::json_schema</text>
<text xml:space="preserve" text-anchor="middle" x="725.25" y="-213.62" font-family="Helvetica,sans-Serif" font-size="10.00">::error_handler::error</text>
</a>
</g>
</g>
<!-- Node4&#45;&gt;Node5 -->
<g id="edge4_Node000004_Node000005" class="edge">
<title>Node4&#45;&gt;Node5</title>
<g id="a_edge4_Node000004_Node000005"><a xlink:title=" ">
<path fill="none" stroke="#63b8ff" d="M577.14,-143.19C597.2,-158.65 628.45,-181.35 658,-197.12 660.67,-198.55 663.43,-199.94 666.24,-201.29"/>
<polygon fill="#63b8ff" stroke="#63b8ff" points="664.66,-204.41 675.21,-205.35 667.55,-198.04 664.66,-204.41"/>
</a>
</g>
</g>
<!-- Node6 -->
<g id="Node000006" class="node">
<title>Node6</title>
<g id="a_Node000006"><a xlink:href="classnlohmann_1_1json__uri.html#a21ba5d6a76804eabd867a2d03370c945" target="_top" xlink:title=" ">
<polygon fill="white" stroke="#666666" points="779.75,-187.88 670.75,-187.88 670.75,-154.38 779.75,-154.38 779.75,-187.88"/>
<text xml:space="preserve" text-anchor="start" x="678.75" y="-174.38" font-family="Helvetica,sans-Serif" font-size="10.00">nlohmann::json_uri</text>
<text xml:space="preserve" text-anchor="middle" x="725.25" y="-161.62" font-family="Helvetica,sans-Serif" font-size="10.00">::fragment</text>
</a>
</g>
</g>
<!-- Node4&#45;&gt;Node6 -->
<g id="edge5_Node000004_Node000006" class="edge">
<title>Node4&#45;&gt;Node6</title>
<g id="a_edge5_Node000004_Node000006"><a xlink:title=" ">
<path fill="none" stroke="#63b8ff" d="M619.93,-143.27C632.94,-146.74 646.62,-150.39 659.64,-153.87"/>
<polygon fill="#63b8ff" stroke="#63b8ff" points="658.37,-157.15 668.93,-156.35 660.17,-150.39 658.37,-157.15"/>
</a>
</g>
</g>
<!-- Node7 -->
<g id="Node000007" class="node">
<title>Node7</title>
<g id="a_Node000007"><a xlink:href="classnlohmann_1_1json__uri.html#a63674f908919cb2496e772e864be35de" target="_top" xlink:title=" ">
<polygon fill="white" stroke="#666666" points="937.5,-119.88 828.5,-119.88 828.5,-86.38 937.5,-86.38 937.5,-119.88"/>
<text xml:space="preserve" text-anchor="start" x="836.5" y="-106.38" font-family="Helvetica,sans-Serif" font-size="10.00">nlohmann::json_uri</text>
<text xml:space="preserve" text-anchor="middle" x="883" y="-93.62" font-family="Helvetica,sans-Serif" font-size="10.00">::location</text>
</a>
</g>
</g>
<!-- Node4&#45;&gt;Node7 -->
<g id="edge6_Node000004_Node000007" class="edge">
<title>Node4&#45;&gt;Node7</title>
<g id="a_edge6_Node000004_Node000007"><a xlink:title=" ">
<path fill="none" stroke="#63b8ff" d="M622.16,-121.44C678.99,-117.44 760.31,-111.7 816.79,-107.72"/>
<polygon fill="#63b8ff" stroke="#63b8ff" points="816.85,-111.23 826.58,-107.03 816.36,-104.24 816.85,-111.23"/>
</a>
</g>
</g>
<!-- Node8 -->
<g id="Node000008" class="node">
<title>Node8</title>
<g id="a_Node000008"><a xlink:href="classnlohmann_1_1json__uri.html#a416eb06b53676b215761f43200da309f" target="_top" xlink:title=" ">
<polygon fill="white" stroke="#666666" points="779.75,-97.88 670.75,-97.88 670.75,-64.38 779.75,-64.38 779.75,-97.88"/>
<text xml:space="preserve" text-anchor="start" x="678.75" y="-84.38" font-family="Helvetica,sans-Serif" font-size="10.00">nlohmann::json_uri</text>
<text xml:space="preserve" text-anchor="middle" x="725.25" y="-71.62" font-family="Helvetica,sans-Serif" font-size="10.00">::to_string</text>
</a>
</g>
</g>
<!-- Node4&#45;&gt;Node8 -->
<g id="edge7_Node000004_Node000008" class="edge">
<title>Node4&#45;&gt;Node8</title>
<g id="a_edge7_Node000004_Node000008"><a xlink:title=" ">
<path fill="none" stroke="#63b8ff" d="M619.93,-108.98C632.94,-105.51 646.62,-101.86 659.64,-98.38"/>
<polygon fill="#63b8ff" stroke="#63b8ff" points="660.17,-101.86 668.93,-95.9 658.37,-95.1 660.17,-101.86"/>
</a>
</g>
</g>
<!-- Node9 -->
<g id="Node000009" class="node">
<title>Node9</title>
<g id="a_Node000009"><a xlink:href="classanonymous__namespace_02json-validator_8cpp_03_1_1schema.html#a2509ace246d9dcec607e75377753a5ea" target="_top" xlink:title=" ">
<polygon fill="white" stroke="#666666" points="792.5,-46.25 658,-46.25 658,0 792.5,0 792.5,-46.25"/>
<text xml:space="preserve" text-anchor="start" x="666" y="-32.75" font-family="Helvetica,sans-Serif" font-size="10.00">anonymous_namespace</text>
<text xml:space="preserve" text-anchor="start" x="666" y="-20" font-family="Helvetica,sans-Serif" font-size="10.00">{json&#45;validator::cpp}</text>
<text xml:space="preserve" text-anchor="middle" x="725.25" y="-7.25" font-family="Helvetica,sans-Serif" font-size="10.00">::schema::validate</text>
</a>
</g>
</g>
<!-- Node4&#45;&gt;Node9 -->
<g id="edge9_Node000004_Node000009" class="edge">
<title>Node4&#45;&gt;Node9</title>
<g id="a_edge9_Node000004_Node000009"><a xlink:title=" ">
<path fill="none" stroke="#63b8ff" d="M578.22,-108.99C598.5,-93.9 629.44,-71.8 658,-55.12 659.86,-54.04 661.77,-52.96 663.7,-51.88"/>
<polygon fill="#63b8ff" stroke="#63b8ff" points="665.05,-55.13 672.2,-47.32 661.74,-48.96 665.05,-55.13"/>
</a>
</g>
</g>
<!-- Node8&#45;&gt;Node7 -->
<g id="edge8_Node000008_Node000007" class="edge">
<title>Node8&#45;&gt;Node7</title>
<g id="a_edge8_Node000008_Node000007"><a xlink:title=" ">
<path fill="none" stroke="#63b8ff" d="M779.85,-88.7C791.77,-90.38 804.54,-92.18 816.87,-93.93"/>
<polygon fill="#63b8ff" stroke="#63b8ff" points="816.15,-97.36 826.54,-95.29 817.13,-90.43 816.15,-97.36"/>
</a>
</g>
</g>
</g>
</svg>
