<?xml version="1.0" encoding="UTF-8" standalone="no"?>
<!DOCTYPE svg PUBLIC "-//W3C//DTD SVG 1.1//EN"
 "http://www.w3.org/Graphics/SVG/1.1/DTD/svg11.dtd">
<!-- Generated by graphviz version 2.42.4 (0)
 -->
<!-- Title: inja::BlockNode Pages: 1 -->
<svg width="189pt" height="247pt"
 viewBox="0.00 0.00 189.00 247.00" xmlns="http://www.w3.org/2000/svg" xmlns:xlink="http://www.w3.org/1999/xlink">

<svg id="main" version="1.1" xmlns="http://www.w3.org/2000/svg" xmlns:xlink="http://www.w3.org/1999/xlink" xml:space="preserve" onload="init(evt)">
<style type="text/css"><![CDATA[
.node, .edge {opacity: 0.7;}
.node.selected, .edge.selected {opacity: 1;}
.edge:hover path { stroke: red; }
.edge:hover polygon { stroke: red; fill: red; }
]]></style>
<script type="application/ecmascript" xlink:href="svg.min.js"/>
<svg id="graph" class="graph">
<g id="graph0" class="graph" transform="scale(1 1) rotate(0) translate(4 243)">
<title>inja::BlockNode</title>
<!-- Node1 -->
<g id="Node000001" class="node">
<title>Node1</title>
<g id="a_Node000001"><a xlink:title=" ">
<polygon fill="#999999" stroke="transparent" points="86,-19 0,-19 0,0 86,0 86,-19"/>
<text text-anchor="start" x="4.5" y="-6.5" font-family="Helvetica,sans-Serif" font-size="10.00">inja::BlockNode</text>
<polygon fill="none" stroke="#666666" points="0,0 0,-19 86,-19 86,0 0,0"/>
</a>
</g>
</g>
<!-- Node2 -->
<g id="Node000002" class="node">
<title>Node2</title>
<g id="a_Node000002"><a xlink:href="classinja_1_1AstNode.html" target="_top" xlink:title="Base node class for the abstract syntax tree (AST).">
<polygon fill="white" stroke="transparent" points="80,-239 6,-239 6,-220 80,-220 80,-239"/>
<text text-anchor="start" x="10" y="-226.5" font-family="Helvetica,sans-Serif" font-size="10.00">inja::AstNode</text>
<polygon fill="none" stroke="#666666" points="6,-220 6,-239 80,-239 80,-220 6,-220"/>
</a>
</g>
</g>
<!-- Node2&#45;&gt;Node1 -->
<g id="edge1_Node000001_Node000002" class="edge">
<title>Node2&#45;&gt;Node1</title>
<g id="a_edge1_Node000001_Node000002"><a xlink:title=" ">
<path fill="none" stroke="#63b8ff" d="M43,-209.85C43,-164.82 43,-51.53 43,-19.22"/>
<polygon fill="none" stroke="#63b8ff" points="39.5,-209.95 43,-219.95 46.5,-209.95 39.5,-209.95"/>
</a>
</g>
</g>
<!-- Node4 -->
<g id="Node000004" class="node">
<title>Node4</title>
<g id="a_Node000004"><a xlink:title=" ">
<polygon fill="white" stroke="transparent" points="170,-173 58,-173 58,-143 170,-143 170,-173"/>
<text text-anchor="start" x="62.5" y="-161" font-family="Helvetica,sans-Serif" font-size="10.00">std::shared_ptr&lt; inja</text>
<text text-anchor="start" x="84.5" y="-150" font-family="Helvetica,sans-Serif" font-size="10.00">::AstNode &gt;</text>
<polygon fill="none" stroke="#666666" points="58,-143 58,-173 170,-173 170,-143 58,-143"/>
</a>
</g>
</g>
<!-- Node2&#45;&gt;Node4 -->
<g id="edge4_Node000004_Node000002" class="edge">
<title>Node2&#45;&gt;Node4</title>
<g id="a_edge4_Node000004_Node000002"><a xlink:title=" ">
<path fill="none" stroke="#63b8ff" d="M51.71,-219.98C61.39,-210.49 77.45,-194.78 90.83,-181.68"/>
<polygon fill="none" stroke="#63b8ff" points="90.98,-181.53 92.47,-174.48 99.56,-173.14 98.07,-180.19 90.98,-181.53"/>
</a>
</g>
<text text-anchor="middle" x="92.5" y="-194" font-family="Helvetica,sans-Serif" font-size="10.00" fill="grey"> +ptr</text>
</g>
<!-- Node3 -->
<g id="Node000003" class="node">
<title>Node3</title>
<g id="a_Node000003"><a xlink:title=" ">
<polygon fill="white" stroke="transparent" points="181,-96 55,-96 55,-66 181,-66 181,-96"/>
<text text-anchor="start" x="59" y="-84" font-family="Helvetica,sans-Serif" font-size="10.00">std::vector&lt; std::shared</text>
<text text-anchor="start" x="59" y="-73" font-family="Helvetica,sans-Serif" font-size="10.00">_ptr&lt; inja::AstNode &gt; &gt;</text>
<polygon fill="none" stroke="#666666" points="55,-66 55,-96 181,-96 181,-66 55,-66"/>
</a>
</g>
</g>
<!-- Node3&#45;&gt;Node1 -->
<g id="edge2_Node000001_Node000003" class="edge">
<title>Node3&#45;&gt;Node1</title>
<g id="a_edge2_Node000001_Node000003"><a xlink:title=" ">
<path fill="none" stroke="#63b8ff" d="M102.82,-65.94C90.82,-54.81 74.01,-39.24 61.27,-27.43"/>
<polygon fill="none" stroke="#63b8ff" points="61.26,-27.42 54.14,-26.28 52.46,-19.27 59.58,-20.41 61.26,-27.42"/>
</a>
</g>
<text text-anchor="middle" x="102.5" y="-40" font-family="Helvetica,sans-Serif" font-size="10.00" fill="grey"> +nodes</text>
</g>
<!-- Node4&#45;&gt;Node3 -->
<g id="edge3_Node000003_Node000004" class="edge">
<title>Node4&#45;&gt;Node3</title>
<g id="a_edge3_Node000003_Node000004"><a xlink:title=" ">
<path fill="none" stroke="#63b8ff" d="M114.75,-142.89C115.27,-133.15 115.98,-119.9 116.6,-108.25"/>
<polygon fill="none" stroke="#63b8ff" points="116.61,-108.03 112.94,-101.82 117.25,-96.04 120.93,-102.25 116.61,-108.03"/>
</a>
</g>
<text text-anchor="middle" x="145" y="-117" font-family="Helvetica,sans-Serif" font-size="10.00" fill="grey"> +elements</text>
</g>
</g>
</svg>
</svg>

<style type='text/css'>
<![CDATA[
[data-mouse-over-selected='false'] { opacity: 0.7; }
[data-mouse-over-selected='true']  { opacity: 1.0; }
]]>
</style>
<script type="application/ecmascript"><![CDATA[
document.addEventListener('DOMContentLoaded', (event) => {
  highlightEdges();
  highlightAdjacentNodes();
});
]]></script>
</svg>
