<?xml version="1.0" encoding="UTF-8" standalone="no"?>
<!DOCTYPE svg PUBLIC "-//W3C//DTD SVG 1.1//EN"
 "http://www.w3.org/Graphics/SVG/1.1/DTD/svg11.dtd">
<!-- Generated by graphviz version 2.42.4 (0)
 -->
<!-- Title: nlohmann::json_uri::fragment Pages: 1 -->
<!--zoomable 557 -->

<svg id="main" version="1.1" xmlns="http://www.w3.org/2000/svg" xmlns:xlink="http://www.w3.org/1999/xlink" xml:space="preserve" onload="init(evt)">
<style type="text/css"><![CDATA[
.node, .edge {opacity: 0.7;}
.node.selected, .edge.selected {opacity: 1;}
.edge:hover path { stroke: red; }
.edge:hover polygon { stroke: red; fill: red; }
]]></style>

<defs>
  <circle id="rim" cx="0" cy="0" r="7"/>
  <circle id="rim2" cx="0" cy="0" r="3.5"/>
  <g id="zoomPlus">
    <use xlink:href="#rim" fill="#404040"><set attributeName="fill" to="#808080" begin="zoomplus.mouseover" end="zoomplus.mouseout"/></use>
    <path d="M-4,0h8M0,-4v8" fill="none" stroke="white" stroke-width="1.5" pointer-events="none"/>
  </g>
  <g id="zoomMin">
    <use xlink:href="#rim" fill="#404040"><set attributeName="fill" to="#808080" begin="zoomminus.mouseover" end="zoomminus.mouseout"/></use>
    <path d="M-4,0h8" fill="none" stroke="white" stroke-width="1.5" pointer-events="none"/>
  </g>
  <g id="arrowUp" transform="translate(30 24)">
    <use xlink:href="#rim"/>
    <path pointer-events="none" fill="none" stroke="white" stroke-width="1.5" d="M0,-3.0v7 M-2.5,-0.5L0,-3.0L2.5,-0.5"/>
  </g>
  <g id="arrowRight" transform="rotate(90) translate(36 -43)">
    <use xlink:href="#rim"/>
    <path pointer-events="none" fill="none" stroke="white" stroke-width="1.5" d="M0,-3.0v7 M-2.5,-0.5L0,-3.0L2.5,-0.5"/>
  </g>
  <g id="arrowDown" transform="rotate(180) translate(-30 -48)">
    <use xlink:href="#rim"/>
    <path pointer-events="none" fill="none" stroke="white" stroke-width="1.5" d="M0,-3.0v7 M-2.5,-0.5L0,-3.0L2.5,-0.5"/>
  </g>
  <g id="arrowLeft" transform="rotate(270) translate(-36 17)">
    <use xlink:href="#rim"/>
    <path pointer-events="none" fill="none" stroke="white" stroke-width="1.5" d="M0,-3.0v7 M-2.5,-0.5L0,-3.0L2.5,-0.5"/>
  </g>
  <g id="resetDef">
    <use xlink:href="#rim2" fill="#404040"><set attributeName="fill" to="#808080" begin="reset.mouseover" end="reset.mouseout"/></use>
  </g>
</defs>
<script type="application/ecmascript">
var viewWidth = 1504;
var viewHeight = 557;
var sectionId = 'dynsection-7';
</script>
<script type="application/ecmascript" xlink:href="svg.min.js"/>
<svg id="graph" class="graph">
<g id="viewport">
<title>nlohmann::json_uri::fragment</title>
<!-- Node1 -->
<g id="Node000001" class="node">
<title>Node1</title>
<g id="a_Node000001"><a xlink:title=" ">
<polygon fill="#999999" stroke="#666666" points="1496,-314.57 1386,-314.57 1386,-284.57 1496,-284.57 1496,-314.57"/>
<text text-anchor="start" x="1394" y="-302.57" font-family="Helvetica,sans-Serif" font-size="10.00">nlohmann::json_uri</text>
<text text-anchor="middle" x="1441" y="-291.57" font-family="Helvetica,sans-Serif" font-size="10.00">::fragment</text>
</a>
</g>
</g>
<!-- Node2 -->
<g id="Node000002" class="node">
<title>Node2</title>
<g id="a_Node000002"><a xlink:href="classnlohmann_1_1json__schema_1_1root__schema.html#a7e890c03f941280b76fbdb4d5bb73065" target="_top" xlink:title=" ">
<polygon fill="white" stroke="#666666" points="1350,-320.07 1215,-320.07 1215,-279.07 1350,-279.07 1350,-320.07"/>
<text text-anchor="start" x="1223" y="-308.07" font-family="Helvetica,sans-Serif" font-size="10.00">nlohmann::json_schema</text>
<text text-anchor="start" x="1223" y="-297.07" font-family="Helvetica,sans-Serif" font-size="10.00">::root_schema::get_or</text>
<text text-anchor="middle" x="1282.5" y="-286.07" font-family="Helvetica,sans-Serif" font-size="10.00">_create_ref</text>
</a>
</g>
</g>
<!-- Node1&#45;&gt;Node2 -->
<g id="edge1_Node000001_Node000002" class="edge">
<title>Node1&#45;&gt;Node2</title>
<g id="a_edge1_Node000001_Node000002"><a xlink:title=" ">
<path fill="none" stroke="#63b8ff" d="M1375.59,-299.57C1367.18,-299.57 1358.56,-299.57 1350.12,-299.57"/>
<polygon fill="#63b8ff" stroke="#63b8ff" points="1375.7,-303.07 1385.7,-299.57 1375.7,-296.07 1375.7,-303.07"/>
</a>
</g>
</g>
<!-- Node33 -->
<g id="Node000033" class="node">
<title>Node33</title>
<g id="a_Node000033"><a xlink:href="classnlohmann_1_1json__schema_1_1root__schema.html#a685904131f0693e56f14a9e9db5f044e" target="_top" xlink:title=" ">
<polygon fill="white" stroke="#666666" points="1350,-368.57 1215,-368.57 1215,-338.57 1350,-338.57 1350,-368.57"/>
<text text-anchor="start" x="1223" y="-356.57" font-family="Helvetica,sans-Serif" font-size="10.00">nlohmann::json_schema</text>
<text text-anchor="middle" x="1282.5" y="-345.57" font-family="Helvetica,sans-Serif" font-size="10.00">::root_schema::insert</text>
</a>
</g>
</g>
<!-- Node1&#45;&gt;Node33 -->
<g id="edge38_Node000001_Node000033" class="edge">
<title>Node1&#45;&gt;Node33</title>
<g id="a_edge38_Node000001_Node000033"><a xlink:title=" ">
<path fill="none" stroke="#63b8ff" d="M1386.78,-317.94C1367.36,-324.64 1345.63,-332.14 1327.13,-338.52"/>
<polygon fill="#63b8ff" stroke="#63b8ff" points="1388.09,-321.19 1396.41,-314.62 1385.81,-314.57 1388.09,-321.19"/>
</a>
</g>
</g>
<!-- Node34 -->
<g id="Node000034" class="node">
<title>Node34</title>
<g id="a_Node000034"><a xlink:href="classnlohmann_1_1json__schema_1_1root__schema.html#a32f6012c2d81f29ca16e4409dd2b5ea3" target="_top" xlink:title=" ">
<polygon fill="white" stroke="#666666" points="1179,-262.57 1044,-262.57 1044,-232.57 1179,-232.57 1179,-262.57"/>
<text text-anchor="start" x="1052" y="-250.57" font-family="Helvetica,sans-Serif" font-size="10.00">nlohmann::json_schema</text>
<text text-anchor="middle" x="1111.5" y="-239.57" font-family="Helvetica,sans-Serif" font-size="10.00">::root_schema::validate</text>
</a>
</g>
</g>
<!-- Node1&#45;&gt;Node34 -->
<g id="edge40_Node000001_Node000034" class="edge">
<title>Node1&#45;&gt;Node34</title>
<g id="a_edge40_Node000001_Node000034"><a xlink:title=" ">
<path fill="none" stroke="#63b8ff" d="M1391.27,-281.07C1378.04,-276.67 1363.62,-272.43 1350,-269.57 1293.06,-257.61 1227.09,-252.15 1179.14,-249.66"/>
<polygon fill="#63b8ff" stroke="#63b8ff" points="1390.52,-284.51 1401.11,-284.44 1392.78,-277.89 1390.52,-284.51"/>
</a>
</g>
</g>
<!-- Node3 -->
<g id="Node000003" class="node">
<title>Node3</title>
<g id="a_Node000003"><a xlink:href="classanonymous__namespace_02json-validator_8cpp_03_1_1schema.html#aafee860997369c77204d5b1a7d095c3f" target="_top" xlink:title=" ">
<polygon fill="white" stroke="#666666" points="1179,-348.07 1044,-348.07 1044,-307.07 1179,-307.07 1179,-348.07"/>
<text text-anchor="start" x="1052" y="-336.07" font-family="Helvetica,sans-Serif" font-size="10.00">anonymous_namespace</text>
<text text-anchor="start" x="1052" y="-325.07" font-family="Helvetica,sans-Serif" font-size="10.00">{json&#45;validator::cpp}</text>
<text text-anchor="middle" x="1111.5" y="-314.07" font-family="Helvetica,sans-Serif" font-size="10.00">::schema::make</text>
</a>
</g>
</g>
<!-- Node2&#45;&gt;Node3 -->
<g id="edge2_Node000002_Node000003" class="edge">
<title>Node2&#45;&gt;Node3</title>
<g id="a_edge2_Node000002_Node000003"><a xlink:title=" ">
<path fill="none" stroke="#63b8ff" d="M1204.73,-305.57C1196.17,-306.93 1187.5,-308.4 1179.08,-309.93"/>
<polygon fill="#63b8ff" stroke="#63b8ff" points="1205.36,-309.01 1214.71,-304.02 1204.29,-302.09 1205.36,-309.01"/>
</a>
</g>
</g>
<!-- Node3&#45;&gt;Node2 -->
<g id="edge4_Node000003_Node000002" class="edge">
<title>Node3&#45;&gt;Node2</title>
<g id="a_edge4_Node000003_Node000002"><a xlink:title=" ">
<path fill="none" stroke="#63b8ff" d="M1189.06,-321.61C1197.62,-320.25 1206.28,-318.78 1214.71,-317.26"/>
<polygon fill="#63b8ff" stroke="#63b8ff" points="1188.43,-318.17 1179.08,-323.16 1189.5,-325.09 1188.43,-318.17"/>
</a>
</g>
</g>
<!-- Node3&#45;&gt;Node3 -->
<g id="edge10_Node000003_Node000003" class="edge">
<title>Node3&#45;&gt;Node3</title>
<g id="a_edge10_Node000003_Node000003"><a xlink:title=" ">
<path fill="none" stroke="#63b8ff" d="M1140.75,-358.03C1136.4,-362.81 1126.65,-366.07 1111.5,-366.07 1087.26,-366.07 1076.85,-357.73 1080.26,-348.17"/>
<polygon fill="#63b8ff" stroke="#63b8ff" points="1144.19,-358.67 1142.74,-348.17 1137.33,-357.28 1144.19,-358.67"/>
</a>
</g>
</g>
<!-- Node4 -->
<g id="Node000004" class="node">
<title>Node4</title>
<g id="a_Node000004"><a xlink:href="classanonymous__namespace_02json-validator_8cpp_03_1_1array.html#ad16bb35faff550ae0c7014de82822e71" target="_top" xlink:title=" ">
<polygon fill="white" stroke="#666666" points="996,-490.07 861,-490.07 861,-449.07 996,-449.07 996,-490.07"/>
<text text-anchor="start" x="869" y="-478.07" font-family="Helvetica,sans-Serif" font-size="10.00">anonymous_namespace</text>
<text text-anchor="start" x="869" y="-467.07" font-family="Helvetica,sans-Serif" font-size="10.00">{json&#45;validator::cpp}</text>
<text text-anchor="middle" x="928.5" y="-456.07" font-family="Helvetica,sans-Serif" font-size="10.00">::array::array</text>
</a>
</g>
</g>
<!-- Node3&#45;&gt;Node4 -->
<g id="edge3_Node000003_Node000004" class="edge">
<title>Node3&#45;&gt;Node4</title>
<g id="a_edge3_Node000003_Node000004"><a xlink:title=" ">
<path fill="none" stroke="#63b8ff" d="M1090.62,-356.4C1071.88,-381.66 1041.72,-417.8 1008,-440.57 1003.42,-443.66 998.48,-446.48 993.37,-449.02"/>
<polygon fill="#63b8ff" stroke="#63b8ff" points="1093.47,-358.44 1096.52,-348.29 1087.8,-354.32 1093.47,-358.44"/>
</a>
</g>
</g>
<!-- Node5 -->
<g id="Node000005" class="node">
<title>Node5</title>
<g id="a_Node000005"><a xlink:href="classnlohmann_1_1json__schema_1_1root__schema.html#a4c543fe7b89e76b3fdd17a6883696238" target="_top" xlink:title=" ">
<polygon fill="white" stroke="#666666" points="996,-413.07 861,-413.07 861,-372.07 996,-372.07 996,-413.07"/>
<text text-anchor="start" x="869" y="-401.07" font-family="Helvetica,sans-Serif" font-size="10.00">nlohmann::json_schema</text>
<text text-anchor="start" x="869" y="-390.07" font-family="Helvetica,sans-Serif" font-size="10.00">::root_schema::insert</text>
<text text-anchor="middle" x="928.5" y="-379.07" font-family="Helvetica,sans-Serif" font-size="10.00">_unknown_keyword</text>
</a>
</g>
</g>
<!-- Node3&#45;&gt;Node5 -->
<g id="edge5_Node000003_Node000005" class="edge">
<title>Node3&#45;&gt;Node5</title>
<g id="a_edge5_Node000003_Node000005"><a xlink:title=" ">
<path fill="none" stroke="#63b8ff" d="M1034.29,-348.27C1012.51,-355.86 989.59,-364.39 970.76,-371.99"/>
<polygon fill="#63b8ff" stroke="#63b8ff" points="1035.56,-351.53 1043.87,-344.96 1033.28,-344.91 1035.56,-351.53"/>
</a>
</g>
</g>
<!-- Node6 -->
<g id="Node000006" class="node">
<title>Node6</title>
<g id="a_Node000006"><a xlink:href="classanonymous__namespace_02json-validator_8cpp_03_1_1logical__combination.html#af6e410a20a726f16733df11cfa9f8ff5" target="_top" xlink:title=" ">
<polygon fill="white" stroke="#666666" points="996,-353.57 861,-353.57 861,-301.57 996,-301.57 996,-353.57"/>
<text text-anchor="start" x="869" y="-341.57" font-family="Helvetica,sans-Serif" font-size="10.00">anonymous_namespace</text>
<text text-anchor="start" x="869" y="-330.57" font-family="Helvetica,sans-Serif" font-size="10.00">{json&#45;validator::cpp}</text>
<text text-anchor="start" x="869" y="-319.57" font-family="Helvetica,sans-Serif" font-size="10.00">::logical_combination</text>
<text text-anchor="middle" x="928.5" y="-308.57" font-family="Helvetica,sans-Serif" font-size="10.00">::logical_combination</text>
</a>
</g>
</g>
<!-- Node3&#45;&gt;Node6 -->
<g id="edge8_Node000003_Node000006" class="edge">
<title>Node3&#45;&gt;Node6</title>
<g id="a_edge8_Node000003_Node000006"><a xlink:title=" ">
<path fill="none" stroke="#63b8ff" d="M1033.56,-327.57C1021.17,-327.57 1008.42,-327.57 996.29,-327.57"/>
<polygon fill="#63b8ff" stroke="#63b8ff" points="1033.87,-331.07 1043.87,-327.57 1033.87,-324.07 1033.87,-331.07"/>
</a>
</g>
</g>
<!-- Node7 -->
<g id="Node000007" class="node">
<title>Node7</title>
<g id="a_Node000007"><a xlink:href="classanonymous__namespace_02json-validator_8cpp_03_1_1logical__not.html#a5ac57fd40f4d28a3def56b84a8e8cd4f" target="_top" xlink:title=" ">
<polygon fill="white" stroke="#666666" points="996,-283.07 861,-283.07 861,-242.07 996,-242.07 996,-283.07"/>
<text text-anchor="start" x="869" y="-271.07" font-family="Helvetica,sans-Serif" font-size="10.00">anonymous_namespace</text>
<text text-anchor="start" x="869" y="-260.07" font-family="Helvetica,sans-Serif" font-size="10.00">{json&#45;validator::cpp}</text>
<text text-anchor="middle" x="928.5" y="-249.07" font-family="Helvetica,sans-Serif" font-size="10.00">::logical_not::logical_not</text>
</a>
</g>
</g>
<!-- Node3&#45;&gt;Node7 -->
<g id="edge9_Node000003_Node000007" class="edge">
<title>Node3&#45;&gt;Node7</title>
<g id="a_edge9_Node000003_Node000007"><a xlink:title=" ">
<path fill="none" stroke="#63b8ff" d="M1043.61,-303.55C1024.92,-296.84 1004.78,-289.61 986.71,-283.12"/>
<polygon fill="#63b8ff" stroke="#63b8ff" points="1042.64,-306.92 1053.23,-307.01 1045,-300.33 1042.64,-306.92"/>
</a>
</g>
</g>
<!-- Node8 -->
<g id="Node000008" class="node">
<title>Node8</title>
<g id="a_Node000008"><a xlink:href="classanonymous__namespace_02json-validator_8cpp_03_1_1object.html#a51137ac019fc30c7ab57f839cd9a3638" target="_top" xlink:title=" ">
<polygon fill="white" stroke="#666666" points="996,-224.07 861,-224.07 861,-183.07 996,-183.07 996,-224.07"/>
<text text-anchor="start" x="869" y="-212.07" font-family="Helvetica,sans-Serif" font-size="10.00">anonymous_namespace</text>
<text text-anchor="start" x="869" y="-201.07" font-family="Helvetica,sans-Serif" font-size="10.00">{json&#45;validator::cpp}</text>
<text text-anchor="middle" x="928.5" y="-190.07" font-family="Helvetica,sans-Serif" font-size="10.00">::object::object</text>
</a>
</g>
</g>
<!-- Node3&#45;&gt;Node8 -->
<g id="edge11_Node000003_Node000008" class="edge">
<title>Node3&#45;&gt;Node8</title>
<g id="a_edge11_Node000003_Node000008"><a xlink:title=" ">
<path fill="none" stroke="#63b8ff" d="M1076.65,-300.46C1065.96,-291.54 1054.26,-281.38 1044,-271.57 1026.94,-255.28 1027.61,-245.69 1008,-232.57 1003.41,-229.5 998.46,-226.71 993.34,-224.17"/>
<polygon fill="#63b8ff" stroke="#63b8ff" points="1074.65,-303.35 1084.59,-307.03 1079.11,-297.96 1074.65,-303.35"/>
</a>
</g>
</g>
<!-- Node9 -->
<g id="Node000009" class="node">
<title>Node9</title>
<g id="a_Node000009"><a xlink:href="classnlohmann_1_1json__schema_1_1root__schema.html#aa92bf9509db49548416a244fb4528e3c" target="_top" xlink:title=" ">
<polygon fill="white" stroke="#666666" points="996,-165.07 861,-165.07 861,-124.07 996,-124.07 996,-165.07"/>
<text text-anchor="start" x="869" y="-153.07" font-family="Helvetica,sans-Serif" font-size="10.00">nlohmann::json_schema</text>
<text text-anchor="start" x="869" y="-142.07" font-family="Helvetica,sans-Serif" font-size="10.00">::root_schema::set_root</text>
<text text-anchor="middle" x="928.5" y="-131.07" font-family="Helvetica,sans-Serif" font-size="10.00">_schema</text>
</a>
</g>
</g>
<!-- Node3&#45;&gt;Node9 -->
<g id="edge12_Node000003_Node000009" class="edge">
<title>Node3&#45;&gt;Node9</title>
<g id="a_edge12_Node000003_Node000009"><a xlink:title=" ">
<path fill="none" stroke="#63b8ff" d="M1071.61,-300.58C1061.59,-292.19 1051.52,-282.3 1044,-271.57 1017.36,-233.58 1040.78,-206.41 1008,-173.57 1004.51,-170.08 1000.56,-167 996.34,-164.29"/>
<polygon fill="#63b8ff" stroke="#63b8ff" points="1069.59,-303.45 1079.58,-306.97 1073.97,-297.99 1069.59,-303.45"/>
</a>
</g>
</g>
<!-- Node32 -->
<g id="Node000032" class="node">
<title>Node32</title>
<g id="a_Node000032"><a xlink:href="classanonymous__namespace_02json-validator_8cpp_03_1_1type__schema.html#a72ff3c13768d129592b9d088316d0d99" target="_top" xlink:title=" ">
<polygon fill="white" stroke="#666666" points="1008,-549.07 849,-549.07 849,-508.07 1008,-508.07 1008,-549.07"/>
<text text-anchor="start" x="857" y="-537.07" font-family="Helvetica,sans-Serif" font-size="10.00">anonymous_namespace</text>
<text text-anchor="start" x="857" y="-526.07" font-family="Helvetica,sans-Serif" font-size="10.00">{json&#45;validator::cpp}</text>
<text text-anchor="middle" x="928.5" y="-515.07" font-family="Helvetica,sans-Serif" font-size="10.00">::type_schema::type_schema</text>
</a>
</g>
</g>
<!-- Node3&#45;&gt;Node32 -->
<g id="edge37_Node000003_Node000032" class="edge">
<title>Node3&#45;&gt;Node32</title>
<g id="a_edge37_Node000003_Node000032"><a xlink:title=" ">
<path fill="none" stroke="#63b8ff" d="M1099.87,-357.64C1084.97,-395.72 1054.37,-461.02 1008,-499.57 1004.31,-502.64 1000.27,-505.4 996.03,-507.87"/>
<polygon fill="#63b8ff" stroke="#63b8ff" points="1103.21,-358.71 1103.49,-348.12 1096.67,-356.22 1103.21,-358.71"/>
</a>
</g>
</g>
<!-- Node5&#45;&gt;Node3 -->
<g id="edge7_Node000005_Node000003" class="edge">
<title>Node5&#45;&gt;Node3</title>
<g id="a_edge7_Node000005_Node000003"><a xlink:title=" ">
<path fill="none" stroke="#63b8ff" d="M1005.91,-371.81C1027.71,-364.21 1050.62,-355.68 1069.43,-348.08"/>
<polygon fill="#63b8ff" stroke="#63b8ff" points="1004.63,-368.55 996.32,-375.12 1006.92,-375.17 1004.63,-368.55"/>
</a>
</g>
</g>
<!-- Node5&#45;&gt;Node5 -->
<g id="edge6_Node000005_Node000005" class="edge">
<title>Node5&#45;&gt;Node5</title>
<g id="a_edge6_Node000005_Node000005"><a xlink:title=" ">
<path fill="none" stroke="#63b8ff" d="M959.81,-423.03C955.16,-427.81 944.72,-431.07 928.5,-431.07 902.55,-431.07 891.4,-422.73 895.05,-413.17"/>
<polygon fill="#63b8ff" stroke="#63b8ff" points="963.25,-423.69 961.95,-413.17 956.41,-422.2 963.25,-423.69"/>
</a>
</g>
</g>
<!-- Node10 -->
<g id="Node000010" class="node">
<title>Node10</title>
<g id="a_Node000010"><a xlink:href="classnlohmann_1_1json__schema_1_1json__validator.html#a13e1d3029c8953bb9c7d1879382edb03" target="_top" xlink:title=" ">
<polygon fill="white" stroke="#666666" points="812,-165.07 677,-165.07 677,-124.07 812,-124.07 812,-165.07"/>
<text text-anchor="start" x="685" y="-153.07" font-family="Helvetica,sans-Serif" font-size="10.00">nlohmann::json_schema</text>
<text text-anchor="start" x="685" y="-142.07" font-family="Helvetica,sans-Serif" font-size="10.00">::json_validator::set</text>
<text text-anchor="middle" x="744.5" y="-131.07" font-family="Helvetica,sans-Serif" font-size="10.00">_root_schema</text>
</a>
</g>
</g>
<!-- Node9&#45;&gt;Node10 -->
<g id="edge13_Node000009_Node000010" class="edge">
<title>Node9&#45;&gt;Node10</title>
<g id="a_edge13_Node000009_Node000010"><a xlink:title=" ">
<path fill="none" stroke="#63b8ff" d="M850.63,-144.57C837.86,-144.57 824.72,-144.57 812.23,-144.57"/>
<polygon fill="#63b8ff" stroke="#63b8ff" points="850.76,-148.07 860.76,-144.57 850.76,-141.07 850.76,-148.07"/>
</a>
</g>
</g>
<!-- Node30 -->
<g id="Node000030" class="node">
<title>Node30</title>
<g id="a_Node000030"><a xlink:href="classnlohmann_1_1json__schema_1_1json__validator.html#a48f742fda328ff2dc2de223e9452c4d1" target="_top" xlink:title=" ">
<polygon fill="white" stroke="#666666" points="812,-330.07 677,-330.07 677,-289.07 812,-289.07 812,-330.07"/>
<text text-anchor="start" x="685" y="-318.07" font-family="Helvetica,sans-Serif" font-size="10.00">nlohmann::json_schema</text>
<text text-anchor="start" x="685" y="-307.07" font-family="Helvetica,sans-Serif" font-size="10.00">::json_validator::set</text>
<text text-anchor="middle" x="744.5" y="-296.07" font-family="Helvetica,sans-Serif" font-size="10.00">_root_schema</text>
</a>
</g>
</g>
<!-- Node9&#45;&gt;Node30 -->
<g id="edge34_Node000009_Node000030" class="edge">
<title>Node9&#45;&gt;Node30</title>
<g id="a_edge34_Node000009_Node000030"><a xlink:title=" ">
<path fill="none" stroke="#63b8ff" d="M853.88,-170.2C852.21,-171.28 850.58,-172.41 849,-173.57 806.31,-205.17 772.72,-259.07 756.37,-288.64"/>
<polygon fill="#63b8ff" stroke="#63b8ff" points="855.68,-173.2 862.54,-165.12 852.14,-167.16 855.68,-173.2"/>
</a>
</g>
</g>
<!-- Node11 -->
<g id="Node000011" class="node">
<title>Node11</title>
<g id="a_Node000011"><a xlink:href="classnlohmann_1_1json__schema_1_1json__validator.html#ad8f46dfed69afe463732ae335879dabb" target="_top" xlink:title=" ">
<polygon fill="white" stroke="#666666" points="639,-300.07 504,-300.07 504,-259.07 639,-259.07 639,-300.07"/>
<text text-anchor="start" x="512" y="-288.07" font-family="Helvetica,sans-Serif" font-size="10.00">nlohmann::json_schema</text>
<text text-anchor="start" x="512" y="-277.07" font-family="Helvetica,sans-Serif" font-size="10.00">::json_validator::json</text>
<text text-anchor="middle" x="571.5" y="-266.07" font-family="Helvetica,sans-Serif" font-size="10.00">_validator</text>
</a>
</g>
</g>
<!-- Node10&#45;&gt;Node11 -->
<g id="edge14_Node000010_Node000011" class="edge">
<title>Node10&#45;&gt;Node11</title>
<g id="a_edge14_Node000010_Node000011"><a xlink:title=" ">
<path fill="none" stroke="#63b8ff" d="M718.66,-172.67C698.78,-194.08 669.45,-223.4 640,-244.57 632.82,-249.74 624.77,-254.59 616.81,-258.95"/>
<polygon fill="#63b8ff" stroke="#63b8ff" points="721.36,-174.9 725.54,-165.17 716.2,-170.17 721.36,-174.9"/>
</a>
</g>
</g>
<!-- Node23 -->
<g id="Node000023" class="node">
<title>Node23</title>
<g id="a_Node000023"><a xlink:href="format_8cpp.html#ae66f6b31b5ad750f1fe042a706a4e3d4" target="_top" xlink:title=" ">
<polygon fill="white" stroke="#666666" points="399,-197.07 358,-197.07 358,-178.07 399,-178.07 399,-197.07"/>
<text text-anchor="middle" x="378.5" y="-185.07" font-family="Helvetica,sans-Serif" font-size="10.00">main</text>
</a>
</g>
</g>
<!-- Node10&#45;&gt;Node23 -->
<g id="edge26_Node000010_Node000023" class="edge">
<title>Node10&#45;&gt;Node23</title>
<g id="a_edge26_Node000010_Node000023"><a xlink:title=" ">
<path fill="none" stroke="#63b8ff" d="M712.52,-171.43C693.11,-186.44 666.76,-203.67 640,-211.57 581.61,-228.82 563.61,-217.41 503,-211.57 483.11,-209.66 428.55,-198.22 399.05,-191.85"/>
<polygon fill="#63b8ff" stroke="#63b8ff" points="714.75,-174.13 720.4,-165.17 710.4,-168.65 714.75,-174.13"/>
</a>
</g>
</g>
<!-- Node24 -->
<g id="Node000024" class="node">
<title>Node24</title>
<g id="a_Node000024"><a xlink:href="json-schema-validate_8cpp.html#a0ddf1224851353fc92bfbff6f499fa97" target="_top" xlink:title=" ">
<polygon fill="white" stroke="#666666" points="592,-116.07 551,-116.07 551,-97.07 592,-97.07 592,-116.07"/>
<text text-anchor="middle" x="571.5" y="-104.07" font-family="Helvetica,sans-Serif" font-size="10.00">main</text>
</a>
</g>
</g>
<!-- Node10&#45;&gt;Node24 -->
<g id="edge27_Node000010_Node000024" class="edge">
<title>Node10&#45;&gt;Node24</title>
<g id="a_edge27_Node000010_Node000024"><a xlink:title=" ">
<path fill="none" stroke="#63b8ff" d="M666.83,-127.54C639.29,-121.42 610.52,-115.02 592.1,-110.93"/>
<polygon fill="#63b8ff" stroke="#63b8ff" points="666.38,-131.02 676.9,-129.77 667.89,-124.19 666.38,-131.02"/>
</a>
</g>
</g>
<!-- Node25 -->
<g id="Node000025" class="node">
<title>Node25</title>
<g id="a_Node000025"><a xlink:href="errors_8cpp.html#a840291bc02cba5474a4cb46a9b9566fe" target="_top" xlink:title=" ">
<polygon fill="white" stroke="#666666" points="592,-79.07 551,-79.07 551,-60.07 592,-60.07 592,-79.07"/>
<text text-anchor="middle" x="571.5" y="-67.07" font-family="Helvetica,sans-Serif" font-size="10.00">main</text>
</a>
</g>
</g>
<!-- Node10&#45;&gt;Node25 -->
<g id="edge28_Node000010_Node000025" class="edge">
<title>Node10&#45;&gt;Node25</title>
<g id="a_edge28_Node000010_Node000025"><a xlink:title=" ">
<path fill="none" stroke="#63b8ff" d="M699.47,-118.94C677,-106.13 651.93,-92.37 640,-87.57 624.36,-81.29 605.8,-76.52 592.11,-73.48"/>
<polygon fill="#63b8ff" stroke="#63b8ff" points="697.83,-122.03 708.25,-123.96 701.31,-115.96 697.83,-122.03"/>
</a>
</g>
</g>
<!-- Node26 -->
<g id="Node000026" class="node">
<title>Node26</title>
<g id="a_Node000026"><a xlink:href="namespaceanonymous__namespace_02issue-105-verbose-combination-errors_8cpp_03.html#a5d2fa2fa048e5520dbcbad50438526ad" target="_top" xlink:title=" ">
<polygon fill="white" stroke="#666666" points="467,-123.07 290,-123.07 290,-82.07 467,-82.07 467,-123.07"/>
<text text-anchor="start" x="298" y="-111.07" font-family="Helvetica,sans-Serif" font-size="10.00">anonymous_namespace</text>
<text text-anchor="start" x="298" y="-100.07" font-family="Helvetica,sans-Serif" font-size="10.00">{issue&#45;105&#45;verbose&#45;combination</text>
<text text-anchor="middle" x="378.5" y="-89.07" font-family="Helvetica,sans-Serif" font-size="10.00">&#45;errors::cpp}::validate</text>
</a>
</g>
</g>
<!-- Node10&#45;&gt;Node26 -->
<g id="edge29_Node000010_Node000026" class="edge">
<title>Node10&#45;&gt;Node26</title>
<g id="a_edge29_Node000010_Node000026"><a xlink:title=" ">
<path fill="none" stroke="#63b8ff" d="M666.8,-140.03C619.47,-136.77 557.58,-131.69 503,-124.57 491.34,-123.05 479.1,-121.2 467.05,-119.21"/>
<polygon fill="#63b8ff" stroke="#63b8ff" points="666.76,-143.53 676.97,-140.72 667.23,-136.55 666.76,-143.53"/>
</a>
</g>
</g>
<!-- Node12 -->
<g id="Node000012" class="node">
<title>Node12</title>
<g id="a_Node000012"><a xlink:href="classmqtt_1_1bridge_1_1lib_1_1BridgeStore.html#ab8ade196caaa4d233f8dc1625619ed9a" target="_top" xlink:title=" ">
<polygon fill="white" stroke="#666666" points="458.5,-293.57 298.5,-293.57 298.5,-263.57 458.5,-263.57 458.5,-293.57"/>
<text text-anchor="start" x="306.5" y="-281.57" font-family="Helvetica,sans-Serif" font-size="10.00">mqtt::bridge::lib::</text>
<text text-anchor="middle" x="378.5" y="-270.57" font-family="Helvetica,sans-Serif" font-size="10.00">BridgeStore::loadAndValidate</text>
</a>
</g>
</g>
<!-- Node11&#45;&gt;Node12 -->
<g id="edge15_Node000011_Node000012" class="edge">
<title>Node11&#45;&gt;Node12</title>
<g id="a_edge15_Node000011_Node000012"><a xlink:title=" ">
<path fill="none" stroke="#63b8ff" d="M493.88,-279.17C482.26,-279.11 470.26,-279.05 458.6,-278.99"/>
<polygon fill="#63b8ff" stroke="#63b8ff" points="493.95,-282.67 503.97,-279.23 493.98,-275.67 493.95,-282.67"/>
</a>
</g>
</g>
<!-- Node14 -->
<g id="Node000014" class="node">
<title>Node14</title>
<g id="a_Node000014"><a xlink:href="classmqtt_1_1lib_1_1JsonMappingReader.html#a77231994bd3ef854feb2db79dd71746b" target="_top" xlink:title=" ">
<polygon fill="white" stroke="#666666" points="459,-341.57 298,-341.57 298,-311.57 459,-311.57 459,-341.57"/>
<text text-anchor="start" x="306" y="-329.57" font-family="Helvetica,sans-Serif" font-size="10.00">mqtt::lib::JsonMappingReader</text>
<text text-anchor="middle" x="378.5" y="-318.57" font-family="Helvetica,sans-Serif" font-size="10.00">::readMappingFromFile</text>
</a>
</g>
</g>
<!-- Node11&#45;&gt;Node14 -->
<g id="edge17_Node000011_Node000014" class="edge">
<title>Node11&#45;&gt;Node14</title>
<g id="a_edge17_Node000011_Node000014"><a xlink:title=" ">
<path fill="none" stroke="#63b8ff" d="M494.2,-298.35C476.42,-302.73 457.71,-307.33 440.68,-311.52"/>
<polygon fill="#63b8ff" stroke="#63b8ff" points="495.09,-301.73 503.97,-295.95 493.42,-294.94 495.09,-301.73"/>
</a>
</g>
</g>
<!-- Node17 -->
<g id="Node000017" class="node">
<title>Node17</title>
<g id="a_Node000017"><a xlink:href="issue-293_8cpp.html#a8ee39622edc153e58dfa5711984ac185" target="_top" xlink:title=" ">
<polygon fill="white" stroke="#666666" points="419.5,-384.07 337.5,-384.07 337.5,-365.07 419.5,-365.07 419.5,-384.07"/>
<text text-anchor="middle" x="378.5" y="-372.07" font-family="Helvetica,sans-Serif" font-size="10.00">should_throw</text>
</a>
</g>
</g>
<!-- Node11&#45;&gt;Node17 -->
<g id="edge20_Node000011_Node000017" class="edge">
<title>Node11&#45;&gt;Node17</title>
<g id="a_edge20_Node000011_Node000017"><a xlink:title=" ">
<path fill="none" stroke="#63b8ff" d="M537.61,-306.36C518.07,-321.15 492.25,-338.86 467,-350.57 452.14,-357.47 434.91,-362.72 419.69,-366.53"/>
<polygon fill="#63b8ff" stroke="#63b8ff" points="539.79,-309.09 545.58,-300.22 535.52,-303.55 539.79,-309.09"/>
</a>
</g>
</g>
<!-- Node19 -->
<g id="Node000019" class="node">
<title>Node19</title>
<g id="a_Node000019"><a xlink:href="classnlohmann_1_1json__patch.html#ac7aea9496e07beb821fb9e5423fb76f5" target="_top" xlink:title=" ">
<polygon fill="white" stroke="#666666" points="440.5,-245.57 316.5,-245.57 316.5,-215.57 440.5,-215.57 440.5,-245.57"/>
<text text-anchor="start" x="324.5" y="-233.57" font-family="Helvetica,sans-Serif" font-size="10.00">nlohmann::json_patch</text>
<text text-anchor="middle" x="378.5" y="-222.57" font-family="Helvetica,sans-Serif" font-size="10.00">::validateJsonPatch</text>
</a>
</g>
</g>
<!-- Node11&#45;&gt;Node19 -->
<g id="edge22_Node000011_Node000019" class="edge">
<title>Node11&#45;&gt;Node19</title>
<g id="a_edge22_Node000011_Node000019"><a xlink:title=" ">
<path fill="none" stroke="#63b8ff" d="M494.04,-259.96C475.42,-255.18 455.8,-250.15 438.15,-245.62"/>
<polygon fill="#63b8ff" stroke="#63b8ff" points="493.41,-263.41 503.97,-262.5 495.15,-256.63 493.41,-263.41"/>
</a>
</g>
</g>
<!-- Node13 -->
<g id="Node000013" class="node">
<title>Node13</title>
<g id="a_Node000013"><a xlink:href="mqttbridge_8cpp.html#a0ddf1224851353fc92bfbff6f499fa97" target="_top" xlink:title=" ">
<polygon fill="white" stroke="#666666" points="186,-283.07 145,-283.07 145,-264.07 186,-264.07 186,-283.07"/>
<text text-anchor="middle" x="165.5" y="-271.07" font-family="Helvetica,sans-Serif" font-size="10.00">main</text>
</a>
</g>
</g>
<!-- Node12&#45;&gt;Node13 -->
<g id="edge16_Node000012_Node000013" class="edge">
<title>Node12&#45;&gt;Node13</title>
<g id="a_edge16_Node000012_Node000013"><a xlink:title=" ">
<path fill="none" stroke="#63b8ff" d="M288.28,-276.46C250.46,-275.56 209.79,-274.6 186.33,-274.04"/>
<polygon fill="#63b8ff" stroke="#63b8ff" points="288.25,-279.96 298.33,-276.7 288.42,-272.96 288.25,-279.96"/>
</a>
</g>
</g>
<!-- Node15 -->
<g id="Node000015" class="node">
<title>Node15</title>
<g id="a_Node000015"><a xlink:href="classmqtt_1_1mqttintegrator_1_1SocketContextFactory.html#a0667981d3feaa8d66a6ba2ecb81dc900" target="_top" xlink:title=" ">
<polygon fill="white" stroke="#666666" points="230,-342.07 101,-342.07 101,-301.07 230,-301.07 230,-342.07"/>
<text text-anchor="start" x="109" y="-330.07" font-family="Helvetica,sans-Serif" font-size="10.00">mqtt::mqttintegrator</text>
<text text-anchor="start" x="109" y="-319.07" font-family="Helvetica,sans-Serif" font-size="10.00">::SocketContextFactory</text>
<text text-anchor="middle" x="165.5" y="-308.07" font-family="Helvetica,sans-Serif" font-size="10.00">::create</text>
</a>
</g>
</g>
<!-- Node14&#45;&gt;Node15 -->
<g id="edge18_Node000014_Node000015" class="edge">
<title>Node14&#45;&gt;Node15</title>
<g id="a_edge18_Node000014_Node000015"><a xlink:title=" ">
<path fill="none" stroke="#63b8ff" d="M287.71,-324.45C268.4,-323.99 248.37,-323.51 230.28,-323.09"/>
<polygon fill="#63b8ff" stroke="#63b8ff" points="287.65,-327.95 297.73,-324.68 287.82,-320.95 287.65,-327.95"/>
</a>
</g>
</g>
<!-- Node16 -->
<g id="Node000016" class="node">
<title>Node16</title>
<g id="a_Node000016"><a xlink:href="classmqtt_1_1mqttbroker_1_1SocketContextFactory.html#a84a300c6ea4e8fc1e0370f5460a64e9a" target="_top" xlink:title=" ">
<polygon fill="white" stroke="#666666" points="234.5,-390.57 96.5,-390.57 96.5,-360.57 234.5,-360.57 234.5,-390.57"/>
<text text-anchor="start" x="104.5" y="-378.57" font-family="Helvetica,sans-Serif" font-size="10.00">mqtt::mqttbroker::Socket</text>
<text text-anchor="middle" x="165.5" y="-367.57" font-family="Helvetica,sans-Serif" font-size="10.00">ContextFactory::create</text>
</a>
</g>
</g>
<!-- Node14&#45;&gt;Node16 -->
<g id="edge19_Node000014_Node000016" class="edge">
<title>Node14&#45;&gt;Node16</title>
<g id="a_edge19_Node000014_Node000016"><a xlink:title=" ">
<path fill="none" stroke="#63b8ff" d="M302.87,-343.9C279.44,-349.34 253.79,-355.3 231.12,-360.57"/>
<polygon fill="#63b8ff" stroke="#63b8ff" points="303.81,-347.28 312.76,-341.61 302.23,-340.46 303.81,-347.28"/>
</a>
</g>
</g>
<!-- Node18 -->
<g id="Node000018" class="node">
<title>Node18</title>
<g id="a_Node000018"><a xlink:href="issue-293_8cpp.html#a840291bc02cba5474a4cb46a9b9566fe" target="_top" xlink:title=" ">
<polygon fill="white" stroke="#666666" points="186,-428.07 145,-428.07 145,-409.07 186,-409.07 186,-428.07"/>
<text text-anchor="middle" x="165.5" y="-416.07" font-family="Helvetica,sans-Serif" font-size="10.00">main</text>
</a>
</g>
</g>
<!-- Node17&#45;&gt;Node18 -->
<g id="edge21_Node000017_Node000018" class="edge">
<title>Node17&#45;&gt;Node18</title>
<g id="a_edge21_Node000017_Node000018"><a xlink:title=" ">
<path fill="none" stroke="#63b8ff" d="M327.41,-385.02C282.24,-394.44 218.14,-407.81 186.19,-414.47"/>
<polygon fill="#63b8ff" stroke="#63b8ff" points="328.24,-388.42 337.32,-382.95 326.81,-381.57 328.24,-388.42"/>
</a>
</g>
</g>
<!-- Node20 -->
<g id="Node000020" class="node">
<title>Node20</title>
<g id="a_Node000020"><a xlink:href="classnlohmann_1_1json__patch.html#ae61d410c3afe7cf9b7a9589819e8f94a" target="_top" xlink:title=" ">
<polygon fill="white" stroke="#666666" points="227.5,-197.57 103.5,-197.57 103.5,-167.57 227.5,-167.57 227.5,-197.57"/>
<text text-anchor="start" x="111.5" y="-185.57" font-family="Helvetica,sans-Serif" font-size="10.00">nlohmann::json_patch</text>
<text text-anchor="middle" x="165.5" y="-174.57" font-family="Helvetica,sans-Serif" font-size="10.00">::json_patch</text>
</a>
</g>
</g>
<!-- Node19&#45;&gt;Node20 -->
<g id="edge23_Node000019_Node000020" class="edge">
<title>Node19&#45;&gt;Node20</title>
<g id="a_edge23_Node000019_Node000020"><a xlink:title=" ">
<path fill="none" stroke="#63b8ff" d="M306.48,-214.42C280.95,-208.61 252.39,-202.11 227.76,-196.51"/>
<polygon fill="#63b8ff" stroke="#63b8ff" points="305.94,-217.88 316.47,-216.69 307.5,-211.06 305.94,-217.88"/>
</a>
</g>
</g>
<!-- Node21 -->
<g id="Node000021" class="node">
<title>Node21</title>
<g id="a_Node000021"><a xlink:href="classnlohmann_1_1json__patch.html#a9ed4f8e610b70b973f9fd59696d5c10b" target="_top" xlink:title=" ">
<polygon fill="white" stroke="#666666" points="227.5,-245.57 103.5,-245.57 103.5,-215.57 227.5,-215.57 227.5,-245.57"/>
<text text-anchor="start" x="111.5" y="-233.57" font-family="Helvetica,sans-Serif" font-size="10.00">nlohmann::json_patch</text>
<text text-anchor="middle" x="165.5" y="-222.57" font-family="Helvetica,sans-Serif" font-size="10.00">::json_patch</text>
</a>
</g>
</g>
<!-- Node19&#45;&gt;Node21 -->
<g id="edge24_Node000019_Node000021" class="edge">
<title>Node19&#45;&gt;Node21</title>
<g id="a_edge24_Node000019_Node000021"><a xlink:title=" ">
<path fill="none" stroke="#63b8ff" d="M306.14,-230.57C280.69,-230.57 252.28,-230.57 227.76,-230.57"/>
<polygon fill="#63b8ff" stroke="#63b8ff" points="306.47,-234.07 316.47,-230.57 306.47,-227.07 306.47,-234.07"/>
</a>
</g>
</g>
<!-- Node22 -->
<g id="Node000022" class="node">
<title>Node22</title>
<g id="a_Node000022"><a xlink:href="test_2json-patch_8cpp.html#a840291bc02cba5474a4cb46a9b9566fe" target="_top" xlink:title=" ">
<polygon fill="white" stroke="#666666" points="41,-240.07 0,-240.07 0,-221.07 41,-221.07 41,-240.07"/>
<text text-anchor="middle" x="20.5" y="-228.07" font-family="Helvetica,sans-Serif" font-size="10.00">main</text>
</a>
</g>
</g>
<!-- Node21&#45;&gt;Node22 -->
<g id="edge25_Node000021_Node000022" class="edge">
<title>Node21&#45;&gt;Node22</title>
<g id="a_edge25_Node000021_Node000022"><a xlink:title=" ">
<path fill="none" stroke="#63b8ff" d="M93.44,-230.57C74.25,-230.57 55.02,-230.57 41.28,-230.57"/>
<polygon fill="#63b8ff" stroke="#63b8ff" points="93.44,-234.07 103.44,-230.57 93.44,-227.07 93.44,-234.07"/>
</a>
</g>
</g>
<!-- Node27 -->
<g id="Node000027" class="node">
<title>Node27</title>
<g id="a_Node000027"><a xlink:href="namespaceanonymous__namespace_02issue-105-verbose-combination-errors_8cpp_03.html#a4b7578a08dda4165bf9c386de4bc2bed" target="_top" xlink:title=" ">
<polygon fill="white" stroke="#666666" points="254,-77.07 77,-77.07 77,-36.07 254,-36.07 254,-77.07"/>
<text text-anchor="start" x="85" y="-65.07" font-family="Helvetica,sans-Serif" font-size="10.00">anonymous_namespace</text>
<text text-anchor="start" x="85" y="-54.07" font-family="Helvetica,sans-Serif" font-size="10.00">{issue&#45;105&#45;verbose&#45;combination</text>
<text text-anchor="middle" x="165.5" y="-43.07" font-family="Helvetica,sans-Serif" font-size="10.00">&#45;errors::cpp}::simpleTest</text>
</a>
</g>
</g>
<!-- Node26&#45;&gt;Node27 -->
<g id="edge30_Node000026_Node000027" class="edge">
<title>Node26&#45;&gt;Node27</title>
<g id="a_edge30_Node000026_Node000027"><a xlink:title=" ">
<path fill="none" stroke="#63b8ff" d="M279.86,-81.29C271.3,-79.42 262.68,-77.54 254.22,-75.7"/>
<polygon fill="#63b8ff" stroke="#63b8ff" points="279.33,-84.75 289.85,-83.47 280.83,-77.92 279.33,-84.75"/>
</a>
</g>
</g>
<!-- Node29 -->
<g id="Node000029" class="node">
<title>Node29</title>
<g id="a_Node000029"><a xlink:href="namespaceanonymous__namespace_02issue-105-verbose-combination-errors_8cpp_03.html#a6c5072c56623259eab0124fc223a4bfc" target="_top" xlink:title=" ">
<polygon fill="white" stroke="#666666" points="254,-136.07 77,-136.07 77,-95.07 254,-95.07 254,-136.07"/>
<text text-anchor="start" x="85" y="-124.07" font-family="Helvetica,sans-Serif" font-size="10.00">anonymous_namespace</text>
<text text-anchor="start" x="85" y="-113.07" font-family="Helvetica,sans-Serif" font-size="10.00">{issue&#45;105&#45;verbose&#45;combination</text>
<text text-anchor="middle" x="165.5" y="-102.07" font-family="Helvetica,sans-Serif" font-size="10.00">&#45;errors::cpp}::verboseTest</text>
</a>
</g>
</g>
<!-- Node26&#45;&gt;Node29 -->
<g id="edge32_Node000026_Node000029" class="edge">
<title>Node26&#45;&gt;Node29</title>
<g id="a_edge32_Node000026_Node000029"><a xlink:title=" ">
<path fill="none" stroke="#63b8ff" d="M279.86,-108.59C271.3,-109.12 262.68,-109.65 254.22,-110.17"/>
<polygon fill="#63b8ff" stroke="#63b8ff" points="280.08,-112.08 289.85,-107.97 279.65,-105.1 280.08,-112.08"/>
</a>
</g>
</g>
<!-- Node28 -->
<g id="Node000028" class="node">
<title>Node28</title>
<g id="a_Node000028"><a xlink:href="issue-105-verbose-combination-errors_8cpp.html#a8216c1645620cdb2f629cde3ac02ffef" target="_top" xlink:title=" ">
<polygon fill="white" stroke="#666666" points="41,-96.07 0,-96.07 0,-77.07 41,-77.07 41,-96.07"/>
<text text-anchor="middle" x="20.5" y="-84.07" font-family="Helvetica,sans-Serif" font-size="10.00">main</text>
</a>
</g>
</g>
<!-- Node27&#45;&gt;Node28 -->
<g id="edge31_Node000027_Node000028" class="edge">
<title>Node27&#45;&gt;Node28</title>
<g id="a_edge31_Node000027_Node000028"><a xlink:title=" ">
<path fill="none" stroke="#63b8ff" d="M66.99,-77.03C57.41,-79.04 48.55,-80.9 41.24,-82.43"/>
<polygon fill="#63b8ff" stroke="#63b8ff" points="67.72,-80.45 76.79,-74.97 66.28,-73.6 67.72,-80.45"/>
</a>
</g>
</g>
<!-- Node29&#45;&gt;Node28 -->
<g id="edge33_Node000029_Node000028" class="edge">
<title>Node29&#45;&gt;Node28</title>
<g id="a_edge33_Node000029_Node000028"><a xlink:title=" ">
<path fill="none" stroke="#63b8ff" d="M66.69,-95.74C57.23,-93.82 48.47,-92.04 41.24,-90.58"/>
<polygon fill="#63b8ff" stroke="#63b8ff" points="66.29,-99.23 76.79,-97.79 67.68,-92.37 66.29,-99.23"/>
</a>
</g>
</g>
<!-- Node31 -->
<g id="Node000031" class="node">
<title>Node31</title>
<g id="a_Node000031"><a xlink:href="classnlohmann_1_1json__schema_1_1json__validator.html#a9b658ef82ef777074679e2a60d539821" target="_top" xlink:title=" ">
<polygon fill="white" stroke="#666666" points="639,-398.07 504,-398.07 504,-357.07 639,-357.07 639,-398.07"/>
<text text-anchor="start" x="512" y="-386.07" font-family="Helvetica,sans-Serif" font-size="10.00">nlohmann::json_schema</text>
<text text-anchor="start" x="512" y="-375.07" font-family="Helvetica,sans-Serif" font-size="10.00">::json_validator::json</text>
<text text-anchor="middle" x="571.5" y="-364.07" font-family="Helvetica,sans-Serif" font-size="10.00">_validator</text>
</a>
</g>
</g>
<!-- Node30&#45;&gt;Node31 -->
<g id="edge35_Node000030_Node000031" class="edge">
<title>Node30&#45;&gt;Node31</title>
<g id="a_edge35_Node000030_Node000031"><a xlink:title=" ">
<path fill="none" stroke="#63b8ff" d="M682.25,-333.93C663.2,-341.5 642.41,-349.77 624.09,-357.06"/>
<polygon fill="#63b8ff" stroke="#63b8ff" points="683.73,-337.11 691.73,-330.16 681.14,-330.6 683.73,-337.11"/>
</a>
</g>
</g>
<!-- Node31&#45;&gt;Node18 -->
<g id="edge36_Node000031_Node000018" class="edge">
<title>Node31&#45;&gt;Node18</title>
<g id="a_edge36_Node000031_Node000018"><a xlink:title=" ">
<path fill="none" stroke="#63b8ff" d="M493.69,-390.06C484.7,-391.34 475.66,-392.55 467,-393.57 361.47,-406.1 234.35,-414.48 186.24,-417.41"/>
<polygon fill="#63b8ff" stroke="#63b8ff" points="494.39,-393.5 503.78,-388.59 493.38,-386.57 494.39,-393.5"/>
</a>
</g>
</g>
<!-- Node33&#45;&gt;Node3 -->
<g id="edge39_Node000033_Node000003" class="edge">
<title>Node33&#45;&gt;Node3</title>
<g id="a_edge39_Node000033_Node000003"><a xlink:title=" ">
<path fill="none" stroke="#63b8ff" d="M1204.73,-341.76C1196.17,-340.45 1187.5,-339.11 1179.08,-337.82"/>
<polygon fill="#63b8ff" stroke="#63b8ff" points="1204.29,-345.24 1214.71,-343.3 1205.36,-338.32 1204.29,-345.24"/>
</a>
</g>
</g>
<!-- Node35 -->
<g id="Node000035" class="node">
<title>Node35</title>
<g id="a_Node000035"><a xlink:href="classnlohmann_1_1json__schema_1_1json__validator.html#ae330a21f43f257fec1d8109f51827706" target="_top" xlink:title=" ">
<polygon fill="white" stroke="#666666" points="813,-95.57 676,-95.57 676,-65.57 813,-65.57 813,-95.57"/>
<text text-anchor="start" x="684" y="-83.57" font-family="Helvetica,sans-Serif" font-size="10.00">nlohmann::json_schema</text>
<text text-anchor="middle" x="744.5" y="-72.57" font-family="Helvetica,sans-Serif" font-size="10.00">::json_validator::validate</text>
</a>
</g>
</g>
<!-- Node34&#45;&gt;Node35 -->
<g id="edge41_Node000034_Node000035" class="edge">
<title>Node34&#45;&gt;Node35</title>
<g id="a_edge41_Node000034_Node000035"><a xlink:title=" ">
<path fill="none" stroke="#63b8ff" d="M1099.27,-223.24C1083.58,-192.3 1052.02,-139.87 1008,-114.57 948.43,-80.35 868.91,-74.5 813.06,-75.56"/>
<polygon fill="#63b8ff" stroke="#63b8ff" points="1096.25,-225.03 1103.8,-232.47 1102.53,-221.95 1096.25,-225.03"/>
</a>
</g>
</g>
<!-- Node35&#45;&gt;Node24 -->
<g id="edge43_Node000035_Node000024" class="edge">
<title>Node35&#45;&gt;Node24</title>
<g id="a_edge43_Node000035_Node000024"><a xlink:title=" ">
<path fill="none" stroke="#63b8ff" d="M665.96,-92.36C638.76,-96.5 610.46,-100.8 592.24,-103.57"/>
<polygon fill="#63b8ff" stroke="#63b8ff" points="666.56,-95.81 675.92,-90.85 665.5,-88.89 666.56,-95.81"/>
</a>
</g>
</g>
<!-- Node35&#45;&gt;Node25 -->
<g id="edge44_Node000035_Node000025" class="edge">
<title>Node35&#45;&gt;Node25</title>
<g id="a_edge44_Node000035_Node000025"><a xlink:title=" ">
<path fill="none" stroke="#63b8ff" d="M665.6,-75.56C638.51,-73.82 610.38,-72.01 592.24,-70.84"/>
<polygon fill="#63b8ff" stroke="#63b8ff" points="665.71,-79.08 675.92,-76.23 666.16,-72.09 665.71,-79.08"/>
</a>
</g>
</g>
<!-- Node35&#45;&gt;Node26 -->
<g id="edge51_Node000035_Node000026" class="edge">
<title>Node35&#45;&gt;Node26</title>
<g id="a_edge51_Node000035_Node000026"><a xlink:title=" ">
<path fill="none" stroke="#63b8ff" d="M718.89,-58.75C699.12,-42.76 669.82,-22.38 640,-13.57 581.61,3.68 560.95,5.13 503,-13.57 461.5,-26.97 422.19,-60.07 399.49,-81.91"/>
<polygon fill="#63b8ff" stroke="#63b8ff" points="716.83,-61.59 726.75,-65.29 721.3,-56.2 716.83,-61.59"/>
</a>
</g>
</g>
<!-- Node36 -->
<g id="Node000036" class="node">
<title>Node36</title>
<g id="a_Node000036"><a xlink:href="readme_8cpp.html#ae66f6b31b5ad750f1fe042a706a4e3d4" target="_top" xlink:title=" ">
<polygon fill="white" stroke="#666666" points="592,-42.07 551,-42.07 551,-23.07 592,-23.07 592,-42.07"/>
<text text-anchor="middle" x="571.5" y="-30.07" font-family="Helvetica,sans-Serif" font-size="10.00">main</text>
</a>
</g>
</g>
<!-- Node35&#45;&gt;Node36 -->
<g id="edge42_Node000035_Node000036" class="edge">
<title>Node35&#45;&gt;Node36</title>
<g id="a_edge42_Node000035_Node000036"><a xlink:title=" ">
<path fill="none" stroke="#63b8ff" d="M682.51,-62.66C668.56,-58.63 653.78,-54.41 640,-50.57 623.88,-46.09 605.52,-41.21 592.03,-37.66"/>
<polygon fill="#63b8ff" stroke="#63b8ff" points="681.92,-66.13 692.5,-65.55 683.87,-59.41 681.92,-66.13"/>
</a>
</g>
</g>
<!-- Node37 -->
<g id="Node000037" class="node">
<title>Node37</title>
<g id="a_Node000037"><a xlink:href="classnlohmann_1_1json__schema_1_1json__validator.html#affff379ae30b7ab48c81d5b65e34f613" target="_top" xlink:title=" ">
<polygon fill="white" stroke="#666666" points="640,-202.57 503,-202.57 503,-172.57 640,-172.57 640,-202.57"/>
<text text-anchor="start" x="511" y="-190.57" font-family="Helvetica,sans-Serif" font-size="10.00">nlohmann::json_schema</text>
<text text-anchor="middle" x="571.5" y="-179.57" font-family="Helvetica,sans-Serif" font-size="10.00">::json_validator::validate</text>
</a>
</g>
</g>
<!-- Node35&#45;&gt;Node37 -->
<g id="edge45_Node000035_Node000037" class="edge">
<title>Node35&#45;&gt;Node37</title>
<g id="a_edge45_Node000035_Node000037"><a xlink:title=" ">
<path fill="none" stroke="#63b8ff" d="M702.1,-100.21C693.35,-104.7 684.27,-109.61 676,-114.57 645.64,-132.79 612.53,-156.97 592.14,-172.4"/>
<polygon fill="#63b8ff" stroke="#63b8ff" points="703.69,-103.33 711.04,-95.71 700.54,-97.08 703.69,-103.33"/>
</a>
</g>
</g>
<!-- Node37&#45;&gt;Node12 -->
<g id="edge46_Node000037_Node000012" class="edge">
<title>Node37&#45;&gt;Node12</title>
<g id="a_edge46_Node000037_Node000012"><a xlink:title=" ">
<path fill="none" stroke="#63b8ff" d="M543.23,-208.56C523.09,-223.2 494.52,-242.25 467,-254.57 459.52,-257.92 451.48,-260.9 443.39,-263.52"/>
<polygon fill="#63b8ff" stroke="#63b8ff" points="545.35,-211.34 551.31,-202.59 541.19,-205.71 545.35,-211.34"/>
</a>
</g>
</g>
<!-- Node37&#45;&gt;Node19 -->
<g id="edge50_Node000037_Node000019" class="edge">
<title>Node37&#45;&gt;Node19</title>
<g id="a_edge50_Node000037_Node000019"><a xlink:title=" ">
<path fill="none" stroke="#63b8ff" d="M493.94,-204.81C476.18,-208.81 457.5,-213.01 440.51,-216.84"/>
<polygon fill="#63b8ff" stroke="#63b8ff" points="494.71,-208.22 503.7,-202.61 493.17,-201.39 494.71,-208.22"/>
</a>
</g>
</g>
<!-- Node37&#45;&gt;Node23 -->
<g id="edge47_Node000037_Node000023" class="edge">
<title>Node37&#45;&gt;Node23</title>
<g id="a_edge47_Node000037_Node000023"><a xlink:title=" ">
<path fill="none" stroke="#63b8ff" d="M492.87,-187.57C458.66,-187.57 421.28,-187.57 399.14,-187.57"/>
<polygon fill="#63b8ff" stroke="#63b8ff" points="492.89,-191.07 502.89,-187.57 492.89,-184.07 492.89,-191.07"/>
</a>
</g>
</g>
<!-- Node37&#45;&gt;Node26 -->
<g id="edge49_Node000037_Node000026" class="edge">
<title>Node37&#45;&gt;Node26</title>
<g id="a_edge49_Node000037_Node000026"><a xlink:title=" ">
<path fill="none" stroke="#63b8ff" d="M521.79,-168.3C515.35,-165.28 508.93,-162.01 503,-158.57 485.69,-148.56 484.72,-140.84 467,-131.57 461.19,-128.53 454.99,-125.72 448.68,-123.15"/>
<polygon fill="#63b8ff" stroke="#63b8ff" points="520.62,-171.62 531.18,-172.55 523.51,-165.24 520.62,-171.62"/>
</a>
</g>
</g>
<!-- Node38 -->
<g id="Node000038" class="node">
<title>Node38</title>
<g id="a_Node000038"><a xlink:href="issue-189-default-values_8cpp.html#a840291bc02cba5474a4cb46a9b9566fe" target="_top" xlink:title=" ">
<polygon fill="white" stroke="#666666" points="399,-160.07 358,-160.07 358,-141.07 399,-141.07 399,-160.07"/>
<text text-anchor="middle" x="378.5" y="-148.07" font-family="Helvetica,sans-Serif" font-size="10.00">main</text>
</a>
</g>
</g>
<!-- Node37&#45;&gt;Node38 -->
<g id="edge48_Node000037_Node000038" class="edge">
<title>Node37&#45;&gt;Node38</title>
<g id="a_edge48_Node000037_Node000038"><a xlink:title=" ">
<path fill="none" stroke="#63b8ff" d="M492.87,-172.54C458.66,-165.91 421.28,-158.67 399.14,-154.38"/>
<polygon fill="#63b8ff" stroke="#63b8ff" points="492.41,-176.01 502.89,-174.48 493.74,-169.14 492.41,-176.01"/>
</a>
</g>
</g>
</g>
</svg>

<g id="navigator" transform="translate(0 0)" fill="#404254">
  <rect fill="#f2f5e9" fill-opacity="0.5" stroke="#606060" stroke-width=".5" x="0" y="0" width="60" height="60"/>
  <use id="zoomplus" xlink:href="#zoomPlus" x="17" y="9" onmousedown="handleZoom(evt,'in')"/>
  <use id="zoomminus" xlink:href="#zoomMin" x="42" y="9" onmousedown="handleZoom(evt,'out')"/>
  <use id="reset" xlink:href="#resetDef" x="30" y="36" onmousedown="handleReset()"/>
   <use id="arrowup" xlink:href="#arrowUp" x="0" y="0" onmousedown="handlePan(0,-1)"/>
  <use id="arrowright" xlink:href="#arrowRight" x="0" y="0" onmousedown="handlePan(1,0)"/>
  <use id="arrowdown" xlink:href="#arrowDown" x="0" y="0" onmousedown="handlePan(0,1)"/>
  <use id="arrowleft" xlink:href="#arrowLeft" x="0" y="0" onmousedown="handlePan(-1,0)"/>
</g>
<svg viewBox="0 0 15 15" width="100%" height="30px" preserveAspectRatio="xMaxYMin meet">
 <g id="arrow_out" transform="scale(0.3 0.3)">
  <a xlink:href="classnlohmann_1_1json__uri_a21ba5d6a76804eabd867a2d03370c945_icgraph_org.svg" target="_base">
   <rect id="button" ry="5" rx="5" y="6" x="6" height="38" width="38"
        fill="#f2f5e9" fill-opacity="0.5" stroke="#606060" stroke-width="1.0"/>
   <path id="arrow"
     d="M 11.500037,31.436501 C 11.940474,20.09759 22.043105,11.32322 32.158766,21.979434 L 37.068811,17.246167 C 37.068811,17.246167 37.088388,32 37.088388,32 L 22.160133,31.978069 C 22.160133,31.978069 26.997745,27.140456 26.997745,27.140456 C 18.528582,18.264221 13.291696,25.230495 11.500037,31.436501 z"
     style="fill:#404040;"/>
  </a>
 </g>
</svg>

<style type='text/css'>
<![CDATA[
[data-mouse-over-selected='false'] { opacity: 0.7; }
[data-mouse-over-selected='true']  { opacity: 1.0; }
]]>
</style>
<script type="application/ecmascript"><![CDATA[
document.addEventListener('DOMContentLoaded', (event) => {
  highlightEdges();
  highlightAdjacentNodes();
});
]]></script>
</svg>
