<?xml version="1.0" encoding="UTF-8" standalone="no"?>
<!DOCTYPE svg PUBLIC "-//W3C//DTD SVG 1.1//EN"
 "http://www.w3.org/Graphics/SVG/1.1/DTD/svg11.dtd">
<!-- Generated by graphviz version 14.1.2 (0)
 -->
<!-- Title: mqtt::mqttintegrator::lib::Mqtt Pages: 1 -->
<svg width="1164pt" height="1333pt"
 viewBox="0.00 0.00 1164.00 1333.00" xmlns="http://www.w3.org/2000/svg" xmlns:xlink="http://www.w3.org/1999/xlink">
<g id="graph0" class="graph" transform="scale(1 1) rotate(0) translate(4 1329)">
<title>mqtt::mqttintegrator::lib::Mqtt</title>
<!-- Node1 -->
<g id="Node000001" class="node">
<title>Node1</title>
<g id="a_Node000001"><a xlink:title=" ">
<polygon fill="#999999" stroke="none" points="665,-153.62 556.5,-153.62 556.5,-120.12 665,-120.12 665,-153.62"/>
<text xml:space="preserve" text-anchor="start" x="560.5" y="-140.12" font-family="Helvetica,sans-Serif" font-size="10.00">mqtt::mqttintegrator</text>
<text xml:space="preserve" text-anchor="start" x="587.5" y="-127.38" font-family="Helvetica,sans-Serif" font-size="10.00">::lib::Mqtt</text>
<polygon fill="none" stroke="#666666" points="556.5,-120.12 556.5,-153.62 665,-153.62 665,-120.12 556.5,-120.12"/>
</a>
</g>
</g>
<!-- Node27 -->
<g id="Node000027" class="node">
<title>Node27</title>
<g id="a_Node000027"><a xlink:href="classmqtt_1_1mqttintegrator_1_1lib_1_1Mqtt_1_1DelayedQueue.html" target="_top" xlink:title=" ">
<polygon fill="white" stroke="none" points="518,-33.5 385.5,-33.5 385.5,0 518,0 518,-33.5"/>
<text xml:space="preserve" text-anchor="start" x="389.5" y="-20" font-family="Helvetica,sans-Serif" font-size="10.00">mqtt::mqttintegrator</text>
<text xml:space="preserve" text-anchor="start" x="389.5" y="-7.25" font-family="Helvetica,sans-Serif" font-size="10.00">::lib::Mqtt::DelayedQueue</text>
<polygon fill="none" stroke="#666666" points="385.5,0 385.5,-33.5 518,-33.5 518,0 385.5,0"/>
</a>
</g>
</g>
<!-- Node1&#45;&gt;Node27 -->
<g id="edge33_Node000027_Node000001" class="edge">
<title>Node1&#45;&gt;Node27</title>
<g id="a_edge33_Node000027_Node000001"><a xlink:title=" ">
<path fill="none" stroke="#63b8ff" d="M556.84,-126.15C523.69,-117.28 483.2,-100.72 459.75,-70.25 454.44,-63.35 451.95,-54.38 450.94,-45.83"/>
<polygon fill="none" stroke="#63b8ff" points="450.95,-45.95 446.67,-40.14 450.4,-33.96 454.67,-39.77 450.95,-45.95"/>
</a>
</g>
<text xml:space="preserve" text-anchor="start" x="462.75" y="-57.75" font-family="Helvetica,sans-Serif" font-size="10.00" fill="grey">&#45;mqtt</text>
</g>
<!-- Node30 -->
<g id="Node000030" class="node">
<title>Node30</title>
<g id="a_Node000030"><a xlink:title=" ">
<polygon fill="white" stroke="none" points="741.62,-33.5 585.88,-33.5 585.88,0 741.62,0 741.62,-33.5"/>
<text xml:space="preserve" text-anchor="start" x="589.88" y="-20" font-family="Helvetica,sans-Serif" font-size="10.00">std::set&lt; mqtt::mqttintegrator</text>
<text xml:space="preserve" text-anchor="start" x="630.75" y="-7.25" font-family="Helvetica,sans-Serif" font-size="10.00">::lib::Mqtt * &gt;</text>
<polygon fill="none" stroke="#666666" points="585.88,0 585.88,-33.5 741.62,-33.5 741.62,0 585.88,0"/>
</a>
</g>
</g>
<!-- Node1&#45;&gt;Node30 -->
<g id="edge37_Node000030_Node000001" class="edge">
<title>Node1&#45;&gt;Node30</title>
<g id="a_edge37_Node000030_Node000001"><a xlink:title=" ">
<path fill="none" stroke="#63b8ff" d="M641.29,-120.28C659.61,-109.1 681.31,-92.14 691.75,-70.25 695.95,-61.43 693.23,-51.97 688.13,-43.53"/>
<polygon fill="none" stroke="#63b8ff" points="688.13,-43.53 681.34,-41.11 680.96,-33.91 687.75,-36.33 688.13,-43.53"/>
</a>
</g>
<text xml:space="preserve" text-anchor="start" x="696.81" y="-57.75" font-family="Helvetica,sans-Serif" font-size="10.00" fill="grey">+keys</text>
</g>
<!-- Node2 -->
<g id="Node000002" class="node">
<title>Node2</title>
<g id="a_Node000002"><a xlink:title=" ">
<polygon fill="white" stroke="none" points="796.5,-267.38 685,-267.38 685,-246.62 796.5,-246.62 796.5,-267.38"/>
<text xml:space="preserve" text-anchor="start" x="689" y="-253.88" font-family="Helvetica,sans-Serif" font-size="10.00">iot::mqtt::client::Mqtt</text>
<polygon fill="none" stroke="#666666" points="685,-246.62 685,-267.38 796.5,-267.38 796.5,-246.62 685,-246.62"/>
</a>
</g>
</g>
<!-- Node2&#45;&gt;Node1 -->
<g id="edge1_Node000001_Node000002" class="edge">
<title>Node2&#45;&gt;Node1</title>
<g id="a_edge1_Node000001_Node000002"><a xlink:title=" ">
<path fill="none" stroke="#63b8ff" d="M739.11,-235.8C737.39,-225.28 733.88,-212.72 726.75,-203.5 708.91,-180.44 680.54,-164.18 656.31,-153.61"/>
<polygon fill="none" stroke="#63b8ff" points="735.6,-235.87 740.25,-245.39 742.55,-235.05 735.6,-235.87"/>
</a>
</g>
</g>
<!-- Node3 -->
<g id="Node000003" class="node">
<title>Node3</title>
<g id="a_Node000003"><a xlink:title=" ">
<polygon fill="white" stroke="none" points="551.38,-273.75 436.12,-273.75 436.12,-240.25 551.38,-240.25 551.38,-273.75"/>
<text xml:space="preserve" text-anchor="start" x="440.12" y="-260.25" font-family="Helvetica,sans-Serif" font-size="10.00">std::shared_ptr&lt; mqtt</text>
<text xml:space="preserve" text-anchor="start" x="446.5" y="-247.5" font-family="Helvetica,sans-Serif" font-size="10.00">::lib::MqttMapper &gt;</text>
<polygon fill="none" stroke="#666666" points="436.12,-240.25 436.12,-273.75 551.38,-273.75 551.38,-240.25 436.12,-240.25"/>
</a>
</g>
</g>
<!-- Node3&#45;&gt;Node1 -->
<g id="edge2_Node000001_Node000003" class="edge">
<title>Node3&#45;&gt;Node1</title>
<g id="a_edge2_Node000001_Node000003"><a xlink:title=" ">
<path fill="none" stroke="#63b8ff" d="M507.07,-240.53C516.36,-229.91 529.17,-215.6 541,-203.5 554.8,-189.39 570.81,-174.25 584,-162.07"/>
<polygon fill="none" stroke="#63b8ff" points="583.95,-162.12 585.67,-155.12 592.79,-154.01 591.07,-161.02 583.95,-162.12"/>
</a>
</g>
<text xml:space="preserve" text-anchor="start" x="544" y="-209.75" font-family="Helvetica,sans-Serif" font-size="10.00" fill="grey">&#45;mqttMapper</text>
</g>
<!-- Node4 -->
<g id="Node000004" class="node">
<title>Node4</title>
<g id="a_Node000004"><a xlink:href="classmqtt_1_1lib_1_1MqttMapper.html" target="_top" xlink:title=" ">
<polygon fill="white" stroke="none" points="551,-349.25 436.5,-349.25 436.5,-328.5 551,-328.5 551,-349.25"/>
<text xml:space="preserve" text-anchor="start" x="440.5" y="-335.75" font-family="Helvetica,sans-Serif" font-size="10.00">mqtt::lib::MqttMapper</text>
<polygon fill="none" stroke="#666666" points="436.5,-328.5 436.5,-349.25 551,-349.25 551,-328.5 436.5,-328.5"/>
</a>
</g>
</g>
<!-- Node4&#45;&gt;Node3 -->
<g id="edge3_Node000003_Node000004" class="edge">
<title>Node4&#45;&gt;Node3</title>
<g id="a_edge3_Node000003_Node000004"><a xlink:title=" ">
<path fill="none" stroke="#63b8ff" d="M493.75,-328.71C493.75,-318.42 493.75,-301.21 493.75,-286.35"/>
<polygon fill="none" stroke="#63b8ff" points="493.75,-286.53 489.75,-280.53 493.75,-274.53 497.75,-280.53 493.75,-286.53"/>
</a>
</g>
<text xml:space="preserve" text-anchor="start" x="496.75" y="-298" font-family="Helvetica,sans-Serif" font-size="10.00" fill="grey">+ptr</text>
</g>
<!-- Node5 -->
<g id="Node000005" class="node">
<title>Node5</title>
<g id="a_Node000005"><a xlink:title=" ">
<polygon fill="white" stroke="none" points="356.62,-431.12 260.88,-431.12 260.88,-410.38 356.62,-410.38 356.62,-431.12"/>
<text xml:space="preserve" text-anchor="start" x="264.88" y="-417.62" font-family="Helvetica,sans-Serif" font-size="10.00">std::list&lt; void * &gt;</text>
<polygon fill="none" stroke="#666666" points="260.88,-410.38 260.88,-431.12 356.62,-431.12 356.62,-410.38 260.88,-410.38"/>
</a>
</g>
</g>
<!-- Node5&#45;&gt;Node4 -->
<g id="edge4_Node000004_Node000005" class="edge">
<title>Node5&#45;&gt;Node4</title>
<g id="a_edge4_Node000004_Node000005"><a xlink:title=" ">
<path fill="none" stroke="#63b8ff" d="M316.05,-410.77C326.23,-398.89 345.86,-378.18 367.25,-367.25 384.65,-358.36 404.82,-352.35 423.88,-348.29"/>
<polygon fill="none" stroke="#63b8ff" points="423.85,-348.3 428.98,-343.23 435.63,-346.01 430.51,-351.08 423.85,-348.3"/>
</a>
</g>
<text xml:space="preserve" text-anchor="start" x="370.25" y="-373.5" font-family="Helvetica,sans-Serif" font-size="10.00" fill="grey">&#45;pluginHandles</text>
</g>
<!-- Node6 -->
<g id="Node000006" class="node">
<title>Node6</title>
<g id="a_Node000006"><a xlink:href="classinja_1_1Environment.html" target="_top" xlink:title="Class for changing the configuration.">
<polygon fill="white" stroke="none" points="889.88,-607.62 795.62,-607.62 795.62,-586.88 889.88,-586.88 889.88,-607.62"/>
<text xml:space="preserve" text-anchor="start" x="799.62" y="-594.12" font-family="Helvetica,sans-Serif" font-size="10.00">inja::Environment</text>
<polygon fill="none" stroke="#666666" points="795.62,-586.88 795.62,-607.62 889.88,-607.62 889.88,-586.88 795.62,-586.88"/>
</a>
</g>
</g>
<!-- Node6&#45;&gt;Node4 -->
<g id="edge5_Node000004_Node000006" class="edge">
<title>Node6&#45;&gt;Node4</title>
<g id="a_edge5_Node000004_Node000006"><a xlink:title=" ">
<path fill="none" stroke="#63b8ff" d="M831.73,-586.91C793.3,-554.54 661.08,-444.9 542.75,-367.25 536.54,-363.17 529.68,-359.1 523.11,-355.38"/>
<polygon fill="none" stroke="#63b8ff" points="523.11,-355.38 515.92,-355.99 512.59,-349.6 519.78,-348.98 523.11,-355.38"/>
</a>
</g>
<text xml:space="preserve" text-anchor="start" x="694.01" y="-461.75" font-family="Helvetica,sans-Serif" font-size="10.00" fill="grey">&#45;injaEnvironment</text>
</g>
<!-- Node7 -->
<g id="Node000007" class="node">
<title>Node7</title>
<g id="a_Node000007"><a xlink:href="classinja_1_1FunctionStorage.html" target="_top" xlink:title="Class for builtin functions and user&#45;defined callbacks.">
<polygon fill="white" stroke="none" points="1024.12,-702.25 913.38,-702.25 913.38,-681.5 1024.12,-681.5 1024.12,-702.25"/>
<text xml:space="preserve" text-anchor="start" x="917.38" y="-688.75" font-family="Helvetica,sans-Serif" font-size="10.00">inja::FunctionStorage</text>
<polygon fill="none" stroke="#666666" points="913.38,-681.5 913.38,-702.25 1024.12,-702.25 1024.12,-681.5 913.38,-681.5"/>
</a>
</g>
</g>
<!-- Node7&#45;&gt;Node6 -->
<g id="edge6_Node000006_Node000007" class="edge">
<title>Node7&#45;&gt;Node6</title>
<g id="a_edge6_Node000006_Node000007"><a xlink:title=" ">
<path fill="none" stroke="#63b8ff" d="M960.24,-681.75C948.51,-669.49 926.36,-647.46 904.75,-632 895.22,-625.18 884.17,-618.75 874.05,-613.37"/>
<polygon fill="none" stroke="#63b8ff" points="874.23,-613.46 867.07,-614.28 863.56,-607.98 870.72,-607.16 874.23,-613.46"/>
</a>
</g>
<text xml:space="preserve" text-anchor="start" x="930.11" y="-638.25" font-family="Helvetica,sans-Serif" font-size="10.00" fill="grey">&#45;function_storage</text>
</g>
<!-- Node8 -->
<g id="Node000008" class="node">
<title>Node8</title>
<g id="a_Node000008"><a xlink:title=" ">
<polygon fill="white" stroke="none" points="1036.12,-828.75 919.38,-828.75 919.38,-769.75 1036.12,-769.75 1036.12,-828.75"/>
<text xml:space="preserve" text-anchor="start" x="923.38" y="-815.25" font-family="Helvetica,sans-Serif" font-size="10.00">std::map&lt; std::pair</text>
<text xml:space="preserve" text-anchor="start" x="923.38" y="-802.5" font-family="Helvetica,sans-Serif" font-size="10.00">&lt; std::string, int &gt;</text>
<text xml:space="preserve" text-anchor="start" x="923.38" y="-789.75" font-family="Helvetica,sans-Serif" font-size="10.00">, inja::FunctionStorage</text>
<text xml:space="preserve" text-anchor="start" x="936.88" y="-777" font-family="Helvetica,sans-Serif" font-size="10.00">::FunctionData &gt;</text>
<polygon fill="none" stroke="#666666" points="919.38,-769.75 919.38,-828.75 1036.12,-828.75 1036.12,-769.75 919.38,-769.75"/>
</a>
</g>
</g>
<!-- Node8&#45;&gt;Node7 -->
<g id="edge7_Node000007_Node000008" class="edge">
<title>Node8&#45;&gt;Node7</title>
<g id="a_edge7_Node000007_Node000008"><a xlink:title=" ">
<path fill="none" stroke="#63b8ff" d="M975.34,-770.01C973.86,-752.65 971.98,-730.73 970.61,-714.7"/>
<polygon fill="none" stroke="#63b8ff" points="970.62,-714.79 966.13,-709.15 969.6,-702.83 974.1,-708.47 970.62,-714.79"/>
</a>
</g>
<text xml:space="preserve" text-anchor="start" x="976.52" y="-739.25" font-family="Helvetica,sans-Serif" font-size="10.00" fill="grey">&#45;function_storage</text>
</g>
<!-- Node9 -->
<g id="Node000009" class="node">
<title>Node9</title>
<g id="a_Node000009"><a xlink:title=" ">
<polygon fill="white" stroke="none" points="873.12,-925.38 762.38,-925.38 762.38,-891.88 873.12,-891.88 873.12,-925.38"/>
<text xml:space="preserve" text-anchor="start" x="766.38" y="-911.88" font-family="Helvetica,sans-Serif" font-size="10.00">std::pair&lt; std::string,</text>
<text xml:space="preserve" text-anchor="start" x="804.25" y="-899.12" font-family="Helvetica,sans-Serif" font-size="10.00"> int &gt;</text>
<polygon fill="none" stroke="#666666" points="762.38,-891.88 762.38,-925.38 873.12,-925.38 873.12,-891.88 762.38,-891.88"/>
</a>
</g>
</g>
<!-- Node9&#45;&gt;Node8 -->
<g id="edge8_Node000008_Node000009" class="edge">
<title>Node9&#45;&gt;Node8</title>
<g id="a_edge8_Node000008_Node000009"><a xlink:title=" ">
<path fill="none" stroke="#63b8ff" d="M841.02,-892.01C862.92,-877.31 896.51,-854.77 924.92,-835.7"/>
<polygon fill="none" stroke="#63b8ff" points="924.8,-835.78 927.56,-829.12 934.77,-829.09 932.01,-835.76 924.8,-835.78"/>
</a>
</g>
<text xml:space="preserve" text-anchor="start" x="910.33" y="-854" font-family="Helvetica,sans-Serif" font-size="10.00" fill="grey">+keys</text>
</g>
<!-- Node10 -->
<g id="Node000010" class="node">
<title>Node10</title>
<g id="a_Node000010"><a xlink:title=" ">
<polygon fill="white" stroke="none" points="540.12,-1248.12 483.38,-1248.12 483.38,-1227.38 540.12,-1227.38 540.12,-1248.12"/>
<text xml:space="preserve" text-anchor="start" x="487.38" y="-1234.62" font-family="Helvetica,sans-Serif" font-size="10.00">std::string</text>
<polygon fill="none" stroke="#666666" points="483.38,-1227.38 483.38,-1248.12 540.12,-1248.12 540.12,-1227.38 483.38,-1227.38"/>
</a>
</g>
</g>
<!-- Node10&#45;&gt;Node4 -->
<g id="edge30_Node000004_Node000010" class="edge">
<title>Node10&#45;&gt;Node4</title>
<g id="a_edge30_Node000004_Node000010"><a xlink:title=" ">
<path fill="none" stroke="#63b8ff" d="M512.59,-1227.39C516.02,-1188.47 528.75,-1035.59 528.75,-909.62 528.75,-909.62 528.75,-909.62 528.75,-419.75 528.75,-395.6 525.42,-388.92 514.75,-367.25 513.42,-364.54 511.8,-361.84 510.05,-359.25"/>
<polygon fill="none" stroke="#63b8ff" points="509.97,-359.14 503.14,-356.8 502.67,-349.6 509.5,-351.94 509.97,-359.14"/>
</a>
</g>
<text xml:space="preserve" text-anchor="start" x="531.75" y="-638.25" font-family="Helvetica,sans-Serif" font-size="10.00" fill="grey">&#45;mappingJsonSchemaString</text>
</g>
<!-- Node10&#45;&gt;Node9 -->
<g id="edge9_Node000009_Node000010" class="edge">
<title>Node10&#45;&gt;Node9</title>
<g id="a_edge9_Node000009_Node000010"><a xlink:title=" ">
<path fill="none" stroke="#63b8ff" d="M539.93,-1236.06C592.51,-1234.2 702.78,-1227.41 730.75,-1203 809.68,-1134.09 818.63,-997.21 818.58,-938.01"/>
<polygon fill="none" stroke="#63b8ff" points="818.58,-937.93 814.5,-931.98 818.43,-925.93 822.5,-931.88 818.58,-937.93"/>
</a>
</g>
<text xml:space="preserve" text-anchor="start" x="821.46" y="-1073.25" font-family="Helvetica,sans-Serif" font-size="10.00" fill="grey">+first_type</text>
</g>
<!-- Node14 -->
<g id="Node000014" class="node">
<title>Node14</title>
<g id="a_Node000014"><a xlink:href="structinja_1_1LexerConfig.html" target="_top" xlink:title="Class for lexer configuration.">
<polygon fill="white" stroke="none" points="755,-867.5 664.5,-867.5 664.5,-846.75 755,-846.75 755,-867.5"/>
<text xml:space="preserve" text-anchor="start" x="668.5" y="-854" font-family="Helvetica,sans-Serif" font-size="10.00">inja::LexerConfig</text>
<polygon fill="none" stroke="#666666" points="664.5,-846.75 664.5,-867.5 755,-867.5 755,-846.75 664.5,-846.75"/>
</a>
</g>
</g>
<!-- Node10&#45;&gt;Node14 -->
<g id="edge14_Node000014_Node000010" class="edge">
<title>Node10&#45;&gt;Node14</title>
<g id="a_edge14_Node000014_Node000010"><a xlink:title=" ">
<path fill="none" stroke="#63b8ff" d="M522.73,-1227.46C529.45,-1221.2 537.71,-1212.39 542.75,-1203 597.56,-1100.84 545,-1048.8 605.25,-949.75 624.86,-917.51 659.52,-890.46 683.51,-874.3"/>
<polygon fill="none" stroke="#63b8ff" points="683.51,-874.3 686.36,-867.67 693.57,-867.75 690.72,-874.38 683.51,-874.3"/>
</a>
</g>
<text xml:space="preserve" text-anchor="start" x="608.25" y="-1190.5" font-family="Helvetica,sans-Serif" font-size="10.00" fill="grey">+comment_close</text>
<text xml:space="preserve" text-anchor="start" x="608.25" y="-1173.75" font-family="Helvetica,sans-Serif" font-size="10.00" fill="grey">+comment_close_force</text>
<text xml:space="preserve" text-anchor="start" x="608.25" y="-1157" font-family="Helvetica,sans-Serif" font-size="10.00" fill="grey">  _rstrip</text>
<text xml:space="preserve" text-anchor="start" x="608.25" y="-1140.25" font-family="Helvetica,sans-Serif" font-size="10.00" fill="grey">+comment_open</text>
<text xml:space="preserve" text-anchor="start" x="608.25" y="-1123.5" font-family="Helvetica,sans-Serif" font-size="10.00" fill="grey">+comment_open_force</text>
<text xml:space="preserve" text-anchor="start" x="608.25" y="-1106.75" font-family="Helvetica,sans-Serif" font-size="10.00" fill="grey">  _lstrip</text>
<text xml:space="preserve" text-anchor="start" x="608.25" y="-1090" font-family="Helvetica,sans-Serif" font-size="10.00" fill="grey">+expression_close</text>
<text xml:space="preserve" text-anchor="start" x="608.25" y="-1073.25" font-family="Helvetica,sans-Serif" font-size="10.00" fill="grey">+expression_close</text>
<text xml:space="preserve" text-anchor="start" x="608.25" y="-1056.5" font-family="Helvetica,sans-Serif" font-size="10.00" fill="grey">  _force_rstrip</text>
<text xml:space="preserve" text-anchor="start" x="608.25" y="-1039.75" font-family="Helvetica,sans-Serif" font-size="10.00" fill="grey">+expression_open</text>
<text xml:space="preserve" text-anchor="start" x="608.25" y="-1023" font-family="Helvetica,sans-Serif" font-size="10.00" fill="grey">+expression_open</text>
<text xml:space="preserve" text-anchor="start" x="608.25" y="-1006.25" font-family="Helvetica,sans-Serif" font-size="10.00" fill="grey">  _force_lstrip</text>
<text xml:space="preserve" text-anchor="start" x="608.25" y="-989.5" font-family="Helvetica,sans-Serif" font-size="10.00" fill="grey">+line_statement</text>
<text xml:space="preserve" text-anchor="start" x="608.25" y="-972.75" font-family="Helvetica,sans-Serif" font-size="10.00" fill="grey">+open_chars</text>
<text xml:space="preserve" text-anchor="start" x="608.25" y="-956" font-family="Helvetica,sans-Serif" font-size="10.00" fill="grey"> &#160;...</text>
</g>
<!-- Node21 -->
<g id="Node000021" class="node">
<title>Node21</title>
<g id="a_Node000021"><a xlink:title=" ">
<polygon fill="white" stroke="none" points="460.5,-715 307,-715 307,-668.75 460.5,-668.75 460.5,-715"/>
<text xml:space="preserve" text-anchor="start" x="311" y="-701.5" font-family="Helvetica,sans-Serif" font-size="10.00">std::map&lt; std::string,</text>
<text xml:space="preserve" text-anchor="start" x="311" y="-688.75" font-family="Helvetica,sans-Serif" font-size="10.00"> nlohmann::json_schema</text>
<text xml:space="preserve" text-anchor="start" x="311" y="-676" font-family="Helvetica,sans-Serif" font-size="10.00">::root_schema::schema_file &gt;</text>
<polygon fill="none" stroke="#666666" points="307,-668.75 307,-715 460.5,-715 460.5,-668.75 307,-668.75"/>
</a>
</g>
</g>
<!-- Node10&#45;&gt;Node21 -->
<g id="edge22_Node000021_Node000010" class="edge">
<title>Node10&#45;&gt;Node21</title>
<g id="a_edge22_Node000021_Node000010"><a xlink:title=" ">
<path fill="none" stroke="#63b8ff" d="M511.37,-1227.42C509.23,-1178.94 497.43,-951.14 457.75,-769.75 454.08,-752.96 456.23,-746.62 445.75,-733 443.01,-729.44 439.85,-726.1 436.45,-722.99"/>
<polygon fill="none" stroke="#63b8ff" points="436.39,-722.93 429.21,-722.28 427.05,-715.4 434.23,-716.05 436.39,-722.93"/>
</a>
</g>
<text xml:space="preserve" text-anchor="start" x="478.95" y="-854" font-family="Helvetica,sans-Serif" font-size="10.00" fill="grey">+keys</text>
</g>
<!-- Node23 -->
<g id="Node000023" class="node">
<title>Node23</title>
<g id="a_Node000023"><a xlink:title=" ">
<polygon fill="white" stroke="none" points="457.62,-925.38 301.88,-925.38 301.88,-891.88 457.62,-891.88 457.62,-925.38"/>
<text xml:space="preserve" text-anchor="start" x="305.88" y="-911.88" font-family="Helvetica,sans-Serif" font-size="10.00">std::map&lt; std::string,</text>
<text xml:space="preserve" text-anchor="start" x="305.88" y="-899.12" font-family="Helvetica,sans-Serif" font-size="10.00"> std::shared_ptr&lt; schema &gt; &gt;</text>
<polygon fill="none" stroke="#666666" points="301.88,-891.88 301.88,-925.38 457.62,-925.38 457.62,-891.88 301.88,-891.88"/>
</a>
</g>
</g>
<!-- Node10&#45;&gt;Node23 -->
<g id="edge25_Node000023_Node000010" class="edge">
<title>Node10&#45;&gt;Node23</title>
<g id="a_edge25_Node000023_Node000010"><a xlink:title=" ">
<path fill="none" stroke="#63b8ff" d="M483.49,-1230.48C468.37,-1225.6 450.88,-1217.18 441,-1203 408.69,-1156.63 441.05,-1001.24 417.75,-949.75 415.33,-944.39 411.89,-939.3 408.05,-934.66"/>
<polygon fill="none" stroke="#63b8ff" points="408.09,-934.69 401.07,-933.04 399.9,-925.92 406.92,-927.58 408.09,-934.69"/>
</a>
</g>
<text xml:space="preserve" text-anchor="start" x="444" y="-1073.25" font-family="Helvetica,sans-Serif" font-size="10.00" fill="grey">+keys</text>
</g>
<!-- Node24 -->
<g id="Node000024" class="node">
<title>Node24</title>
<g id="a_Node000024"><a xlink:title=" ">
<polygon fill="white" stroke="none" points="283.38,-931.75 150.12,-931.75 150.12,-885.5 283.38,-885.5 283.38,-931.75"/>
<text xml:space="preserve" text-anchor="start" x="154.12" y="-918.25" font-family="Helvetica,sans-Serif" font-size="10.00">std::map&lt; std::string,</text>
<text xml:space="preserve" text-anchor="start" x="154.12" y="-905.5" font-family="Helvetica,sans-Serif" font-size="10.00"> std::shared_ptr&lt; schema</text>
<text xml:space="preserve" text-anchor="start" x="196.12" y="-892.75" font-family="Helvetica,sans-Serif" font-size="10.00">_ref &gt; &gt;</text>
<polygon fill="none" stroke="#666666" points="150.12,-885.5 150.12,-931.75 283.38,-931.75 283.38,-885.5 150.12,-885.5"/>
</a>
</g>
</g>
<!-- Node10&#45;&gt;Node24 -->
<g id="edge28_Node000024_Node000010" class="edge">
<title>Node10&#45;&gt;Node24</title>
<g id="a_edge28_Node000024_Node000010"><a xlink:title=" ">
<path fill="none" stroke="#63b8ff" d="M483.6,-1233.56C448.25,-1228.92 390.57,-1219.09 377,-1203 340.61,-1159.85 393.6,-993.34 357.75,-949.75 340.94,-929.31 325.63,-937.31 295.76,-931.93"/>
<polygon fill="none" stroke="#63b8ff" points="295.62,-931.9 288.87,-934.44 283.93,-929.19 290.68,-926.65 295.62,-931.9"/>
</a>
</g>
<text xml:space="preserve" text-anchor="start" x="380" y="-1073.25" font-family="Helvetica,sans-Serif" font-size="10.00" fill="grey">+keys</text>
</g>
<!-- Node11 -->
<g id="Node000011" class="node">
<title>Node11</title>
<g id="a_Node000011"><a xlink:title=" ">
<polygon fill="white" stroke="none" points="559.62,-1325 463.88,-1325 463.88,-1291.5 559.62,-1291.5 559.62,-1325"/>
<text xml:space="preserve" text-anchor="start" x="467.88" y="-1311.5" font-family="Helvetica,sans-Serif" font-size="10.00">std::basic_string&lt;</text>
<text xml:space="preserve" text-anchor="start" x="493.38" y="-1298.75" font-family="Helvetica,sans-Serif" font-size="10.00"> Char &gt;</text>
<polygon fill="none" stroke="#666666" points="463.88,-1291.5 463.88,-1325 559.62,-1325 559.62,-1291.5 463.88,-1291.5"/>
</a>
</g>
</g>
<!-- Node11&#45;&gt;Node10 -->
<g id="edge10_Node000010_Node000011" class="edge">
<title>Node11&#45;&gt;Node10</title>
<g id="a_edge10_Node000010_Node000011"><a xlink:title=" ">
<path fill="none" stroke="#63b8ff" d="M511.75,-1280.45C511.75,-1269.03 511.75,-1256.44 511.75,-1248.12"/>
<polygon fill="none" stroke="#63b8ff" points="508.25,-1280.19 511.75,-1290.19 515.25,-1280.19 508.25,-1280.19"/>
</a>
</g>
</g>
<!-- Node12 -->
<g id="Node000012" class="node">
<title>Node12</title>
<g id="a_Node000012"><a xlink:href="structinja_1_1FunctionStorage_1_1FunctionData.html" target="_top" xlink:title=" ">
<polygon fill="white" stroke="none" points="1033.12,-925.38 922.38,-925.38 922.38,-891.88 1033.12,-891.88 1033.12,-925.38"/>
<text xml:space="preserve" text-anchor="start" x="926.38" y="-911.88" font-family="Helvetica,sans-Serif" font-size="10.00">inja::FunctionStorage</text>
<text xml:space="preserve" text-anchor="start" x="942.5" y="-899.12" font-family="Helvetica,sans-Serif" font-size="10.00">::FunctionData</text>
<polygon fill="none" stroke="#666666" points="922.38,-891.88 922.38,-925.38 1033.12,-925.38 1033.12,-891.88 922.38,-891.88"/>
</a>
</g>
</g>
<!-- Node12&#45;&gt;Node8 -->
<g id="edge11_Node000008_Node000012" class="edge">
<title>Node12&#45;&gt;Node8</title>
<g id="a_edge11_Node000008_Node000012"><a xlink:title=" ">
<path fill="none" stroke="#63b8ff" d="M977.75,-892.24C977.75,-878.96 977.75,-859.15 977.75,-841.32"/>
<polygon fill="none" stroke="#63b8ff" points="977.75,-841.4 973.75,-835.4 977.75,-829.4 981.75,-835.4 977.75,-841.4"/>
</a>
</g>
<text xml:space="preserve" text-anchor="start" x="980.75" y="-854" font-family="Helvetica,sans-Serif" font-size="10.00" fill="grey">+elements</text>
</g>
<!-- Node13 -->
<g id="Node000013" class="node">
<title>Node13</title>
<g id="a_Node000013"><a xlink:title=" ">
<polygon fill="white" stroke="none" points="1155.62,-708.62 1041.88,-708.62 1041.88,-675.12 1155.62,-675.12 1155.62,-708.62"/>
<text xml:space="preserve" text-anchor="start" x="1045.88" y="-695.12" font-family="Helvetica,sans-Serif" font-size="10.00">std::map&lt; std::string,</text>
<text xml:space="preserve" text-anchor="start" x="1069.12" y="-682.38" font-family="Helvetica,sans-Serif" font-size="10.00"> Template &gt;</text>
<polygon fill="none" stroke="#666666" points="1041.88,-675.12 1041.88,-708.62 1155.62,-708.62 1155.62,-675.12 1041.88,-675.12"/>
</a>
</g>
</g>
<!-- Node13&#45;&gt;Node6 -->
<g id="edge12_Node000006_Node000013" class="edge">
<title>Node13&#45;&gt;Node6</title>
<g id="a_edge12_Node000006_Node000013"><a xlink:title=" ">
<path fill="none" stroke="#63b8ff" d="M1083.34,-675.3C1068.94,-661.7 1046.2,-642.53 1022.75,-632 984.78,-614.94 938.57,-606.5 902.48,-602.33"/>
<polygon fill="none" stroke="#63b8ff" points="902.5,-602.33 896.11,-605.68 890.57,-601.07 896.95,-597.73 902.5,-602.33"/>
</a>
</g>
<text xml:space="preserve" text-anchor="start" x="1055.14" y="-638.25" font-family="Helvetica,sans-Serif" font-size="10.00" fill="grey">&#45;template_storage</text>
</g>
<!-- Node14&#45;&gt;Node6 -->
<g id="edge13_Node000006_Node000014" class="edge">
<title>Node14&#45;&gt;Node6</title>
<g id="a_edge13_Node000006_Node000014"><a xlink:title=" ">
<path fill="none" stroke="#63b8ff" d="M723.46,-846.91C752.61,-826.6 821.11,-774.99 857.75,-715 877.48,-682.71 891.3,-666.94 876.75,-632 874.28,-626.07 870.21,-620.65 865.73,-615.97"/>
<polygon fill="none" stroke="#63b8ff" points="865.9,-616.13 858.77,-615.07 857,-608.08 864.13,-609.14 865.9,-616.13"/>
</a>
</g>
<text xml:space="preserve" text-anchor="start" x="848.14" y="-739.25" font-family="Helvetica,sans-Serif" font-size="10.00" fill="grey">#lexer_config</text>
</g>
<!-- Node15 -->
<g id="Node000015" class="node">
<title>Node15</title>
<g id="a_Node000015"><a xlink:href="structinja_1_1ParserConfig.html" target="_top" xlink:title="Class for parser configuration.">
<polygon fill="white" stroke="none" points="732.88,-702.25 638.62,-702.25 638.62,-681.5 732.88,-681.5 732.88,-702.25"/>
<text xml:space="preserve" text-anchor="start" x="642.62" y="-688.75" font-family="Helvetica,sans-Serif" font-size="10.00">inja::ParserConfig</text>
<polygon fill="none" stroke="#666666" points="638.62,-681.5 638.62,-702.25 732.88,-702.25 732.88,-681.5 638.62,-681.5"/>
</a>
</g>
</g>
<!-- Node15&#45;&gt;Node6 -->
<g id="edge15_Node000006_Node000015" class="edge">
<title>Node15&#45;&gt;Node6</title>
<g id="a_edge15_Node000006_Node000015"><a xlink:title=" ">
<path fill="none" stroke="#63b8ff" d="M686.5,-681.85C688.07,-668.88 692.89,-645.09 707.5,-632 728.01,-613.62 757,-604.91 782.89,-600.91"/>
<polygon fill="none" stroke="#63b8ff" points="782.89,-600.91 788.33,-596.17 794.79,-599.37 789.35,-604.11 782.89,-600.91"/>
</a>
</g>
<text xml:space="preserve" text-anchor="start" x="710.5" y="-638.25" font-family="Helvetica,sans-Serif" font-size="10.00" fill="grey">#parser_config</text>
</g>
<!-- Node16 -->
<g id="Node000016" class="node">
<title>Node16</title>
<g id="a_Node000016"><a xlink:href="structinja_1_1RenderConfig.html" target="_top" xlink:title="Class for render configuration.">
<polygon fill="white" stroke="none" points="848.75,-702.25 750.75,-702.25 750.75,-681.5 848.75,-681.5 848.75,-702.25"/>
<text xml:space="preserve" text-anchor="start" x="754.75" y="-688.75" font-family="Helvetica,sans-Serif" font-size="10.00">inja::RenderConfig</text>
<polygon fill="none" stroke="#666666" points="750.75,-681.5 750.75,-702.25 848.75,-702.25 848.75,-681.5 750.75,-681.5"/>
</a>
</g>
</g>
<!-- Node16&#45;&gt;Node6 -->
<g id="edge16_Node000006_Node000016" class="edge">
<title>Node16&#45;&gt;Node6</title>
<g id="a_edge16_Node000006_Node000016"><a xlink:title=" ">
<path fill="none" stroke="#63b8ff" d="M796.28,-681.5C792.39,-669.36 787.61,-647.86 795.75,-632 799.28,-625.13 804.92,-619.34 811.1,-614.61"/>
<polygon fill="none" stroke="#63b8ff" points="810.93,-614.71 813.74,-608.08 820.96,-608.12 818.14,-614.76 810.93,-614.71"/>
</a>
</g>
<text xml:space="preserve" text-anchor="start" x="798.75" y="-638.25" font-family="Helvetica,sans-Serif" font-size="10.00" fill="grey">#render_config</text>
</g>
<!-- Node17 -->
<g id="Node000017" class="node">
<title>Node17</title>
<g id="a_Node000017"><a xlink:href="classnlohmann_1_1json__schema_1_1json__validator.html" target="_top" xlink:title=" ">
<polygon fill="white" stroke="none" points="501,-437.5 374.5,-437.5 374.5,-404 501,-404 501,-437.5"/>
<text xml:space="preserve" text-anchor="start" x="378.5" y="-424" font-family="Helvetica,sans-Serif" font-size="10.00">nlohmann::json_schema</text>
<text xml:space="preserve" text-anchor="start" x="400.25" y="-411.25" font-family="Helvetica,sans-Serif" font-size="10.00">::json_validator</text>
<polygon fill="none" stroke="#666666" points="374.5,-404 374.5,-437.5 501,-437.5 501,-404 374.5,-404"/>
</a>
</g>
</g>
<!-- Node17&#45;&gt;Node4 -->
<g id="edge17_Node000004_Node000017" class="edge">
<title>Node17&#45;&gt;Node4</title>
<g id="a_edge17_Node000004_Node000017"><a xlink:title=" ">
<path fill="none" stroke="#63b8ff" d="M442.77,-404.07C446.76,-393.09 453.07,-378.43 461.5,-367.25 464.11,-363.79 467.23,-360.47 470.48,-357.41"/>
<polygon fill="none" stroke="#63b8ff" points="470.43,-357.46 472.43,-350.53 479.6,-349.71 477.6,-356.64 470.43,-357.46"/>
</a>
</g>
<text xml:space="preserve" text-anchor="start" x="464.5" y="-373.5" font-family="Helvetica,sans-Serif" font-size="10.00" fill="grey">&#45;validator</text>
</g>
<!-- Node18 -->
<g id="Node000018" class="node">
<title>Node18</title>
<g id="a_Node000018"><a xlink:title=" ">
<polygon fill="white" stroke="none" points="495.75,-525.75 337.75,-525.75 337.75,-492.25 495.75,-492.25 495.75,-525.75"/>
<text xml:space="preserve" text-anchor="start" x="341.75" y="-512.25" font-family="Helvetica,sans-Serif" font-size="10.00">std::unique_ptr&lt; nlohmann</text>
<text xml:space="preserve" text-anchor="start" x="341.75" y="-499.5" font-family="Helvetica,sans-Serif" font-size="10.00">::json_schema::root_schema &gt;</text>
<polygon fill="none" stroke="#666666" points="337.75,-492.25 337.75,-525.75 495.75,-525.75 495.75,-492.25 337.75,-492.25"/>
</a>
</g>
</g>
<!-- Node18&#45;&gt;Node17 -->
<g id="edge18_Node000017_Node000018" class="edge">
<title>Node18&#45;&gt;Node17</title>
<g id="a_edge18_Node000017_Node000018"><a xlink:title=" ">
<path fill="none" stroke="#63b8ff" d="M420.5,-492.58C423.38,-480.76 427.44,-464.11 430.89,-449.93"/>
<polygon fill="none" stroke="#63b8ff" points="430.91,-449.86 428.44,-443.09 433.74,-438.2 436.21,-444.98 430.91,-449.86"/>
</a>
</g>
<text xml:space="preserve" text-anchor="start" x="432.13" y="-461.75" font-family="Helvetica,sans-Serif" font-size="10.00" fill="grey">&#45;root_</text>
</g>
<!-- Node19 -->
<g id="Node000019" class="node">
<title>Node19</title>
<g id="a_Node000019"><a xlink:href="classnlohmann_1_1json__schema_1_1root__schema.html" target="_top" xlink:title=" ">
<polygon fill="white" stroke="none" points="447,-614 320.5,-614 320.5,-580.5 447,-580.5 447,-614"/>
<text xml:space="preserve" text-anchor="start" x="324.5" y="-600.5" font-family="Helvetica,sans-Serif" font-size="10.00">nlohmann::json_schema</text>
<text xml:space="preserve" text-anchor="start" x="349.25" y="-587.75" font-family="Helvetica,sans-Serif" font-size="10.00">::root_schema</text>
<polygon fill="none" stroke="#666666" points="320.5,-580.5 320.5,-614 447,-614 447,-580.5 320.5,-580.5"/>
</a>
</g>
</g>
<!-- Node19&#45;&gt;Node18 -->
<g id="edge19_Node000018_Node000019" class="edge">
<title>Node19&#45;&gt;Node18</title>
<g id="a_edge19_Node000018_Node000019"><a xlink:title=" ">
<path fill="none" stroke="#63b8ff" d="M389.65,-580.83C394.22,-568.88 400.67,-552.02 406.13,-537.74"/>
<polygon fill="none" stroke="#63b8ff" points="406.18,-537.63 404.59,-530.59 410.47,-526.42 412.06,-533.45 406.18,-537.63"/>
</a>
</g>
<text xml:space="preserve" text-anchor="start" x="406.21" y="-550" font-family="Helvetica,sans-Serif" font-size="10.00" fill="grey">+ptr</text>
</g>
<!-- Node20 -->
<g id="Node000020" class="node">
<title>Node20</title>
<g id="a_Node000020"><a xlink:title=" ">
<polygon fill="white" stroke="none" points="141.5,-1248.12 0,-1248.12 0,-1227.38 141.5,-1227.38 141.5,-1248.12"/>
<text xml:space="preserve" text-anchor="start" x="4" y="-1234.62" font-family="Helvetica,sans-Serif" font-size="10.00">std::shared_ptr&lt; schema &gt;</text>
<polygon fill="none" stroke="#666666" points="0,-1227.38 0,-1248.12 141.5,-1248.12 141.5,-1227.38 0,-1227.38"/>
</a>
</g>
</g>
<!-- Node20&#45;&gt;Node19 -->
<g id="edge20_Node000019_Node000020" class="edge">
<title>Node20&#45;&gt;Node19</title>
<g id="a_edge20_Node000019_Node000020"><a xlink:title=" ">
<path fill="none" stroke="#63b8ff" d="M72.44,-1227.42C79.3,-1188.61 104.75,-1036.1 104.75,-909.62 104.75,-909.62 104.75,-909.62 104.75,-690.88 104.75,-647.9 225.51,-621.38 308.13,-608.26"/>
<polygon fill="none" stroke="#63b8ff" points="308.04,-608.28 313.36,-603.41 319.9,-606.45 314.58,-611.32 308.04,-608.28"/>
</a>
</g>
<text xml:space="preserve" text-anchor="start" x="107.75" y="-796.12" font-family="Helvetica,sans-Serif" font-size="10.00" fill="grey">&#45;root_</text>
</g>
<!-- Node20&#45;&gt;Node23 -->
<g id="edge26_Node000023_Node000020" class="edge">
<title>Node20&#45;&gt;Node23</title>
<g id="a_edge26_Node000023_Node000020"><a xlink:title=" ">
<path fill="none" stroke="#63b8ff" d="M115.95,-1227.44C127.29,-1225.22 139.45,-1222.93 150.75,-1221 178.2,-1216.31 255.75,-1223.36 274.75,-1203 313.25,-1161.74 261.67,-996.18 293.75,-949.75 298.72,-942.56 305.33,-936.62 312.68,-931.73"/>
<polygon fill="none" stroke="#63b8ff" points="312.69,-931.72 315.9,-925.26 323.09,-925.74 319.89,-932.2 312.69,-931.72"/>
</a>
</g>
<text xml:space="preserve" text-anchor="start" x="296.75" y="-1073.25" font-family="Helvetica,sans-Serif" font-size="10.00" fill="grey">+elements</text>
</g>
<!-- Node21&#45;&gt;Node19 -->
<g id="edge21_Node000019_Node000021" class="edge">
<title>Node21&#45;&gt;Node19</title>
<g id="a_edge21_Node000019_Node000021"><a xlink:title=" ">
<path fill="none" stroke="#63b8ff" d="M383.75,-668.92C383.75,-656.38 383.75,-640.5 383.75,-626.97"/>
<polygon fill="none" stroke="#63b8ff" points="383.75,-626.86 379.75,-620.86 383.75,-614.86 387.75,-620.86 383.75,-626.86"/>
</a>
</g>
<text xml:space="preserve" text-anchor="start" x="386.75" y="-638.25" font-family="Helvetica,sans-Serif" font-size="10.00" fill="grey">&#45;files_</text>
</g>
<!-- Node22 -->
<g id="Node000022" class="node">
<title>Node22</title>
<g id="a_Node000022"><a xlink:href="structnlohmann_1_1json__schema_1_1root__schema_1_1schema__file.html" target="_top" xlink:title=" ">
<polygon fill="white" stroke="none" points="448.88,-816 306.62,-816 306.62,-782.5 448.88,-782.5 448.88,-816"/>
<text xml:space="preserve" text-anchor="start" x="310.62" y="-802.5" font-family="Helvetica,sans-Serif" font-size="10.00">nlohmann::json_schema</text>
<text xml:space="preserve" text-anchor="start" x="310.62" y="-789.75" font-family="Helvetica,sans-Serif" font-size="10.00">::root_schema::schema_file</text>
<polygon fill="none" stroke="#666666" points="306.62,-782.5 306.62,-816 448.88,-816 448.88,-782.5 306.62,-782.5"/>
</a>
</g>
</g>
<!-- Node22&#45;&gt;Node21 -->
<g id="edge23_Node000021_Node000022" class="edge">
<title>Node22&#45;&gt;Node21</title>
<g id="a_edge23_Node000021_Node000022"><a xlink:title=" ">
<path fill="none" stroke="#63b8ff" d="M378.64,-782.7C379.46,-768.24 380.72,-746.17 381.78,-727.53"/>
<polygon fill="none" stroke="#63b8ff" points="381.77,-727.6 378.12,-721.38 382.45,-715.62 386.11,-721.84 381.77,-727.6"/>
</a>
</g>
<text xml:space="preserve" text-anchor="start" x="384.46" y="-739.25" font-family="Helvetica,sans-Serif" font-size="10.00" fill="grey">+elements</text>
</g>
<!-- Node23&#45;&gt;Node22 -->
<g id="edge24_Node000022_Node000023" class="edge">
<title>Node23&#45;&gt;Node22</title>
<g id="a_edge24_Node000022_Node000023"><a xlink:title=" ">
<path fill="none" stroke="#63b8ff" d="M379.46,-892.24C379.16,-875.75 378.66,-849.2 378.28,-828.85"/>
<polygon fill="none" stroke="#63b8ff" points="378.28,-828.85 374.17,-822.93 378.06,-816.86 382.17,-822.78 378.28,-828.85"/>
</a>
</g>
<text xml:space="preserve" text-anchor="start" x="381.99" y="-854" font-family="Helvetica,sans-Serif" font-size="10.00" fill="grey">+schemas</text>
</g>
<!-- Node24&#45;&gt;Node22 -->
<g id="edge27_Node000022_Node000024" class="edge">
<title>Node24&#45;&gt;Node22</title>
<g id="a_edge27_Node000022_Node000024"><a xlink:title=" ">
<path fill="none" stroke="#63b8ff" d="M249.06,-885.51C266.1,-873.9 287.38,-859.47 306.5,-846.75 318.34,-838.87 331.34,-830.35 342.97,-822.77"/>
<polygon fill="none" stroke="#63b8ff" points="342.79,-822.89 345.64,-816.27 352.85,-816.35 350,-822.97 342.79,-822.89"/>
</a>
</g>
<text xml:space="preserve" text-anchor="start" x="309.5" y="-854" font-family="Helvetica,sans-Serif" font-size="10.00" fill="grey">+unresolved</text>
</g>
<!-- Node25 -->
<g id="Node000025" class="node">
<title>Node25</title>
<g id="a_Node000025"><a xlink:title=" ">
<polygon fill="white" stroke="none" points="289.88,-1254.5 159.62,-1254.5 159.62,-1221 289.88,-1221 289.88,-1254.5"/>
<text xml:space="preserve" text-anchor="start" x="163.62" y="-1241" font-family="Helvetica,sans-Serif" font-size="10.00">std::shared_ptr&lt; schema</text>
<text xml:space="preserve" text-anchor="start" x="209.75" y="-1228.25" font-family="Helvetica,sans-Serif" font-size="10.00">_ref &gt;</text>
<polygon fill="none" stroke="#666666" points="159.62,-1221 159.62,-1254.5 289.88,-1254.5 289.88,-1221 159.62,-1221"/>
</a>
</g>
</g>
<!-- Node25&#45;&gt;Node24 -->
<g id="edge29_Node000024_Node000025" class="edge">
<title>Node25&#45;&gt;Node24</title>
<g id="a_edge29_Node000024_Node000025"><a xlink:title=" ">
<path fill="none" stroke="#63b8ff" d="M219.11,-1221.16C217.34,-1215.52 215.63,-1209.05 214.75,-1203 198.59,-1091.61 211.95,-1062.27 214.75,-949.75 214.79,-948.1 214.84,-946.42 214.9,-944.72"/>
<polygon fill="none" stroke="#63b8ff" points="214.9,-944.58 211.16,-938.42 215.41,-932.59 219.16,-938.76 214.9,-944.58"/>
</a>
</g>
<text xml:space="preserve" text-anchor="start" x="217.75" y="-1073.25" font-family="Helvetica,sans-Serif" font-size="10.00" fill="grey">+elements</text>
</g>
<!-- Node26 -->
<g id="Node000026" class="node">
<title>Node26</title>
<g id="a_Node000026"><a xlink:title=" ">
<polygon fill="white" stroke="none" points="666.38,-273.75 569.12,-273.75 569.12,-240.25 666.38,-240.25 666.38,-273.75"/>
<text xml:space="preserve" text-anchor="start" x="573.12" y="-260.25" font-family="Helvetica,sans-Serif" font-size="10.00">std::list&lt; iot::mqtt</text>
<text xml:space="preserve" text-anchor="start" x="596.75" y="-247.5" font-family="Helvetica,sans-Serif" font-size="10.00">::Topic &gt;</text>
<polygon fill="none" stroke="#666666" points="569.12,-240.25 569.12,-273.75 666.38,-273.75 666.38,-240.25 569.12,-240.25"/>
</a>
</g>
</g>
<!-- Node26&#45;&gt;Node1 -->
<g id="edge31_Node000001_Node000026" class="edge">
<title>Node26&#45;&gt;Node1</title>
<g id="a_edge31_Node000001_Node000026"><a xlink:title=" ">
<path fill="none" stroke="#63b8ff" d="M616.83,-240.56C615.72,-221.72 613.81,-189.51 612.43,-166.18"/>
<polygon fill="none" stroke="#63b8ff" points="612.43,-166.2 608.08,-160.45 611.72,-154.22 616.07,-159.97 612.43,-166.2"/>
</a>
</g>
<text xml:space="preserve" text-anchor="start" x="618.68" y="-209.75" font-family="Helvetica,sans-Serif" font-size="10.00" fill="grey">&#45;currentSubscriptions</text>
</g>
<!-- Node27&#45;&gt;Node1 -->
<g id="edge32_Node000001_Node000027" class="edge">
<title>Node27&#45;&gt;Node1</title>
<g id="a_edge32_Node000001_Node000027"><a xlink:title=" ">
<path fill="none" stroke="#63b8ff" d="M472.46,-33.43C486.31,-43.9 504.96,-57.95 521.5,-70.25 540.49,-84.38 561.84,-100.08 578.9,-112.59"/>
<polygon fill="none" stroke="#63b8ff" points="579.01,-112.67 586.22,-112.99 588.69,-119.76 581.49,-119.44 579.01,-112.67"/>
</a>
</g>
<text xml:space="preserve" text-anchor="start" x="524.5" y="-57.75" font-family="Helvetica,sans-Serif" font-size="10.00" fill="grey">&#45;delayedQueue</text>
</g>
<!-- Node28 -->
<g id="Node000028" class="node">
<title>Node28</title>
<g id="a_Node000028"><a xlink:title=" ">
<polygon fill="white" stroke="none" points="449,-185.5 274.5,-185.5 274.5,-88.25 449,-88.25 449,-185.5"/>
<text xml:space="preserve" text-anchor="start" x="278.5" y="-172" font-family="Helvetica,sans-Serif" font-size="10.00">std::priority_queue</text>
<text xml:space="preserve" text-anchor="start" x="278.5" y="-159.25" font-family="Helvetica,sans-Serif" font-size="10.00">&lt; mqtt::mqttintegrator</text>
<text xml:space="preserve" text-anchor="start" x="278.5" y="-146.5" font-family="Helvetica,sans-Serif" font-size="10.00">::lib::Mqtt::ScheduledPublish,</text>
<text xml:space="preserve" text-anchor="start" x="278.5" y="-133.75" font-family="Helvetica,sans-Serif" font-size="10.00"> std::vector&lt; mqtt::mqttintegrator</text>
<text xml:space="preserve" text-anchor="start" x="278.5" y="-121" font-family="Helvetica,sans-Serif" font-size="10.00">::lib::Mqtt::ScheduledPublish &gt;,</text>
<text xml:space="preserve" text-anchor="start" x="278.5" y="-108.25" font-family="Helvetica,sans-Serif" font-size="10.00"> mqtt::mqttintegrator::lib::Mqtt</text>
<text xml:space="preserve" text-anchor="start" x="288.25" y="-95.5" font-family="Helvetica,sans-Serif" font-size="10.00">::DelayedQueue::EarlierFirst &gt;</text>
<polygon fill="none" stroke="#666666" points="274.5,-88.25 274.5,-185.5 449,-185.5 449,-88.25 274.5,-88.25"/>
</a>
</g>
</g>
<!-- Node28&#45;&gt;Node27 -->
<g id="edge34_Node000027_Node000028" class="edge">
<title>Node28&#45;&gt;Node27</title>
<g id="a_edge34_Node000027_Node000028"><a xlink:title=" ">
<path fill="none" stroke="#63b8ff" d="M361.52,-88.35C363.5,-75.33 367.66,-61.95 375.75,-51.5 379.03,-47.26 382.96,-43.54 387.28,-40.28"/>
<polygon fill="none" stroke="#63b8ff" points="387.06,-40.42 389.97,-33.82 397.18,-33.96 394.27,-40.56 387.06,-40.42"/>
</a>
</g>
<text xml:space="preserve" text-anchor="start" x="378.75" y="-57.75" font-family="Helvetica,sans-Serif" font-size="10.00" fill="grey">&#45;minHeap</text>
</g>
<!-- Node29 -->
<g id="Node000029" class="node">
<title>Node29</title>
<g id="a_Node000029"><a xlink:href="structmqtt_1_1mqttintegrator_1_1lib_1_1Mqtt_1_1ScheduledPublish.html" target="_top" xlink:title=" ">
<polygon fill="white" stroke="none" points="417.75,-273.75 271.75,-273.75 271.75,-240.25 417.75,-240.25 417.75,-273.75"/>
<text xml:space="preserve" text-anchor="start" x="275.75" y="-260.25" font-family="Helvetica,sans-Serif" font-size="10.00">mqtt::mqttintegrator</text>
<text xml:space="preserve" text-anchor="start" x="275.75" y="-247.5" font-family="Helvetica,sans-Serif" font-size="10.00">::lib::Mqtt::ScheduledPublish</text>
<polygon fill="none" stroke="#666666" points="271.75,-240.25 271.75,-273.75 417.75,-273.75 417.75,-240.25 271.75,-240.25"/>
</a>
</g>
</g>
<!-- Node29&#45;&gt;Node28 -->
<g id="edge35_Node000028_Node000029" class="edge">
<title>Node29&#45;&gt;Node28</title>
<g id="a_edge35_Node000028_Node000029"><a xlink:title=" ">
<path fill="none" stroke="#63b8ff" d="M346.97,-240.56C348.56,-229.5 350.82,-213.84 353.09,-198.08"/>
<polygon fill="none" stroke="#63b8ff" points="353.06,-198.27 349.95,-191.76 354.77,-186.39 357.87,-192.9 353.06,-198.27"/>
</a>
</g>
<text xml:space="preserve" text-anchor="start" x="355.23" y="-209.75" font-family="Helvetica,sans-Serif" font-size="10.00" fill="grey">+elements</text>
</g>
<!-- Node30&#45;&gt;Node1 -->
<g id="edge36_Node000001_Node000030" class="edge">
<title>Node30&#45;&gt;Node1</title>
<g id="a_edge36_Node000001_Node000030"><a xlink:title=" ">
<path fill="none" stroke="#63b8ff" d="M629.52,-33.42C622.63,-38.21 616.28,-44.2 612.25,-51.5 602.92,-68.4 602.8,-90.26 604.88,-107.49"/>
<polygon fill="none" stroke="#63b8ff" points="604.86,-107.4 609.75,-112.7 606.74,-119.25 601.85,-113.95 604.86,-107.4"/>
</a>
</g>
<text xml:space="preserve" text-anchor="start" x="615.25" y="-57.75" font-family="Helvetica,sans-Serif" font-size="10.00" fill="grey">&#45;mqttInstances</text>
</g>
</g>
</svg>
