<?xml version="1.0" encoding="UTF-8" standalone="no"?>
<!DOCTYPE svg PUBLIC "-//W3C//DTD SVG 1.1//EN"
 "http://www.w3.org/Graphics/SVG/1.1/DTD/svg11.dtd">
<!-- Generated by graphviz version 2.42.4 (0)
 -->
<!-- Title: inja::Environment::write_with_json_file Pages: 1 -->
<svg width="1074pt" height="99pt"
 viewBox="0.00 0.00 1074.00 98.50" xmlns="http://www.w3.org/2000/svg" xmlns:xlink="http://www.w3.org/1999/xlink">
<g id="graph0" class="graph" transform="scale(1 1) rotate(0) translate(4 94.5)">
<title>inja::Environment::write_with_json_file</title>
<!-- Node1 -->
<g id="Node000001" class="node">
<title>Node1</title>
<g id="a_Node000001"><a xlink:title=" ">
<polygon fill="#999999" stroke="#666666" points="114,-66.5 0,-66.5 0,-36.5 114,-36.5 114,-66.5"/>
<text text-anchor="start" x="8" y="-54.5" font-family="Helvetica,sans-Serif" font-size="10.00">inja::Environment::</text>
<text text-anchor="middle" x="57" y="-43.5" font-family="Helvetica,sans-Serif" font-size="10.00">write_with_json_file</text>
</a>
</g>
</g>
<!-- Node2 -->
<g id="Node000002" class="node">
<title>Node2</title>
<g id="a_Node000002"><a xlink:href="classinja_1_1Environment.html#a63883423839a4c9651997e14ee9bd10b" target="_top" xlink:title=" ">
<polygon fill="white" stroke="#666666" points="259,-90.5 150,-90.5 150,-60.5 259,-60.5 259,-90.5"/>
<text text-anchor="start" x="158" y="-78.5" font-family="Helvetica,sans-Serif" font-size="10.00">inja::Environment::</text>
<text text-anchor="middle" x="204.5" y="-67.5" font-family="Helvetica,sans-Serif" font-size="10.00">load_json</text>
</a>
</g>
</g>
<!-- Node1&#45;&gt;Node2 -->
<g id="edge1_Node000001_Node000002" class="edge">
<title>Node1&#45;&gt;Node2</title>
<g id="a_edge1_Node000001_Node000002"><a xlink:title=" ">
<path fill="none" stroke="#63b8ff" d="M114.25,-60.78C122.65,-62.16 131.35,-63.6 139.88,-65.01"/>
<polygon fill="#63b8ff" stroke="#63b8ff" points="139.35,-68.47 149.78,-66.64 140.49,-61.56 139.35,-68.47"/>
</a>
</g>
</g>
<!-- Node5 -->
<g id="Node000005" class="node">
<title>Node5</title>
<g id="a_Node000005"><a xlink:href="classinja_1_1Environment.html#a832e72bad384f9c59f587ff73eb9a235" target="_top" xlink:title=" ">
<polygon fill="white" stroke="#666666" points="259,-42.5 150,-42.5 150,-12.5 259,-12.5 259,-42.5"/>
<text text-anchor="start" x="158" y="-30.5" font-family="Helvetica,sans-Serif" font-size="10.00">inja::Environment::</text>
<text text-anchor="middle" x="204.5" y="-19.5" font-family="Helvetica,sans-Serif" font-size="10.00">write</text>
</a>
</g>
</g>
<!-- Node1&#45;&gt;Node5 -->
<g id="edge4_Node000001_Node000005" class="edge">
<title>Node1&#45;&gt;Node5</title>
<g id="a_edge4_Node000001_Node000005"><a xlink:title=" ">
<path fill="none" stroke="#63b8ff" d="M114.25,-42.22C122.65,-40.84 131.35,-39.4 139.88,-37.99"/>
<polygon fill="#63b8ff" stroke="#63b8ff" points="140.49,-41.44 149.78,-36.36 139.35,-34.53 140.49,-41.44"/>
</a>
</g>
</g>
<!-- Node3 -->
<g id="Node000003" class="node">
<title>Node3</title>
<g id="a_Node000003"><a xlink:href="structinja_1_1FileError.html#a0912694cd232d6cd688f0f68336145c9" target="_top" xlink:title=" ">
<polygon fill="white" stroke="#666666" points="421,-85 295,-85 295,-66 421,-66 421,-85"/>
<text text-anchor="middle" x="358" y="-73" font-family="Helvetica,sans-Serif" font-size="10.00">inja::FileError::FileError</text>
</a>
</g>
</g>
<!-- Node2&#45;&gt;Node3 -->
<g id="edge2_Node000002_Node000003" class="edge">
<title>Node2&#45;&gt;Node3</title>
<g id="a_edge2_Node000002_Node000003"><a xlink:title=" ">
<path fill="none" stroke="#63b8ff" d="M259.34,-75.5C267.59,-75.5 276.22,-75.5 284.8,-75.5"/>
<polygon fill="#63b8ff" stroke="#63b8ff" points="284.8,-79 294.8,-75.5 284.8,-72 284.8,-79"/>
</a>
</g>
</g>
<!-- Node4 -->
<g id="Node000004" class="node">
<title>Node4</title>
<g id="a_Node000004"><a xlink:href="structinja_1_1InjaError.html#a0b31b1a26674ec73a9702f41155608da" target="_top" xlink:title=" ">
<polygon fill="white" stroke="#666666" points="586,-85 457,-85 457,-66 586,-66 586,-85"/>
<text text-anchor="middle" x="521.5" y="-73" font-family="Helvetica,sans-Serif" font-size="10.00">inja::InjaError::InjaError</text>
</a>
</g>
</g>
<!-- Node3&#45;&gt;Node4 -->
<g id="edge3_Node000003_Node000004" class="edge">
<title>Node3&#45;&gt;Node4</title>
<g id="a_edge3_Node000003_Node000004"><a xlink:title=" ">
<path fill="none" stroke="#63b8ff" d="M421.44,-75.5C429.71,-75.5 438.24,-75.5 446.68,-75.5"/>
<polygon fill="#63b8ff" stroke="#63b8ff" points="446.89,-79 456.89,-75.5 446.89,-72 446.89,-79"/>
</a>
</g>
</g>
<!-- Node6 -->
<g id="Node000006" class="node">
<title>Node6</title>
<g id="a_Node000006"><a xlink:href="classinja_1_1Environment.html#a3e4c7b484618c69656f6af463d6f775e" target="_top" xlink:title=" ">
<polygon fill="white" stroke="#666666" points="412.5,-42.5 303.5,-42.5 303.5,-12.5 412.5,-12.5 412.5,-42.5"/>
<text text-anchor="start" x="311.5" y="-30.5" font-family="Helvetica,sans-Serif" font-size="10.00">inja::Environment::</text>
<text text-anchor="middle" x="358" y="-19.5" font-family="Helvetica,sans-Serif" font-size="10.00">render</text>
</a>
</g>
</g>
<!-- Node5&#45;&gt;Node6 -->
<g id="edge5_Node000005_Node000006" class="edge">
<title>Node5&#45;&gt;Node6</title>
<g id="a_edge5_Node000005_Node000006"><a xlink:title=" ">
<path fill="none" stroke="#63b8ff" d="M259.34,-27.5C270.28,-27.5 281.89,-27.5 293.13,-27.5"/>
<polygon fill="#63b8ff" stroke="#63b8ff" points="293.33,-31 303.33,-27.5 293.33,-24 293.33,-31"/>
</a>
</g>
</g>
<!-- Node7 -->
<g id="Node000007" class="node">
<title>Node7</title>
<g id="a_Node000007"><a xlink:href="classinja_1_1Environment.html#a269f21ddbdd107bf0dd9e4a0bc80e249" target="_top" xlink:title=" ">
<polygon fill="white" stroke="#666666" points="576,-42.5 467,-42.5 467,-12.5 576,-12.5 576,-42.5"/>
<text text-anchor="start" x="475" y="-30.5" font-family="Helvetica,sans-Serif" font-size="10.00">inja::Environment::</text>
<text text-anchor="middle" x="521.5" y="-19.5" font-family="Helvetica,sans-Serif" font-size="10.00">render_to</text>
</a>
</g>
</g>
<!-- Node6&#45;&gt;Node7 -->
<g id="edge6_Node000006_Node000007" class="edge">
<title>Node6&#45;&gt;Node7</title>
<g id="a_edge6_Node000006_Node000007"><a xlink:title=" ">
<path fill="none" stroke="#63b8ff" d="M412.78,-27.5C426.81,-27.5 442.06,-27.5 456.56,-27.5"/>
<polygon fill="#63b8ff" stroke="#63b8ff" points="456.96,-31 466.96,-27.5 456.96,-24 456.96,-31"/>
</a>
</g>
</g>
<!-- Node8 -->
<g id="Node000008" class="node">
<title>Node8</title>
<g id="a_Node000008"><a xlink:href="classinja_1_1Renderer.html#ace82a1b1e1db796e94c7a346c71defa2" target="_top" xlink:title=" ">
<polygon fill="white" stroke="#666666" points="759,-56 622,-56 622,-37 759,-37 759,-56"/>
<text text-anchor="middle" x="690.5" y="-44" font-family="Helvetica,sans-Serif" font-size="10.00">inja::Renderer::render_to</text>
</a>
</g>
</g>
<!-- Node7&#45;&gt;Node8 -->
<g id="edge7_Node000007_Node000008" class="edge">
<title>Node7&#45;&gt;Node8</title>
<g id="a_edge7_Node000007_Node000008"><a xlink:title=" ">
<path fill="none" stroke="#63b8ff" d="M576.26,-33.62C587.58,-34.9 599.74,-36.29 611.75,-37.65"/>
<polygon fill="#63b8ff" stroke="#63b8ff" points="611.44,-41.14 621.77,-38.79 612.23,-34.19 611.44,-41.14"/>
</a>
</g>
</g>
<!-- Node11 -->
<g id="Node000011" class="node">
<title>Node11</title>
<g id="a_Node000011"><a xlink:href="classinja_1_1Renderer.html#ad41cbbc7443d95c301c3952f55a44606" target="_top" xlink:title=" ">
<polygon fill="white" stroke="#666666" points="758,-19 623,-19 623,0 758,0 758,-19"/>
<text text-anchor="middle" x="690.5" y="-7" font-family="Helvetica,sans-Serif" font-size="10.00">inja::Renderer::Renderer</text>
</a>
</g>
</g>
<!-- Node7&#45;&gt;Node11 -->
<g id="edge10_Node000007_Node000011" class="edge">
<title>Node7&#45;&gt;Node11</title>
<g id="a_edge10_Node000007_Node000011"><a xlink:title=" ">
<path fill="none" stroke="#63b8ff" d="M576.26,-21.71C587.88,-20.45 600.38,-19.11 612.69,-17.78"/>
<polygon fill="#63b8ff" stroke="#63b8ff" points="613.4,-21.22 622.96,-16.67 612.65,-14.26 613.4,-21.22"/>
</a>
</g>
</g>
<!-- Node9 -->
<g id="Node000009" class="node">
<title>Node9</title>
<g id="a_Node000009"><a xlink:href="classinja_1_1BlockNode.html#afa264eaa0a42e9f38086e93530b164be" target="_top" xlink:title=" ">
<polygon fill="white" stroke="#666666" points="926,-56 795,-56 795,-37 926,-37 926,-56"/>
<text text-anchor="middle" x="860.5" y="-44" font-family="Helvetica,sans-Serif" font-size="10.00">inja::BlockNode::accept</text>
</a>
</g>
</g>
<!-- Node8&#45;&gt;Node9 -->
<g id="edge8_Node000008_Node000009" class="edge">
<title>Node8&#45;&gt;Node9</title>
<g id="a_edge8_Node000008_Node000009"><a xlink:title=" ">
<path fill="none" stroke="#63b8ff" d="M759.35,-46.5C767.7,-46.5 776.27,-46.5 784.72,-46.5"/>
<polygon fill="#63b8ff" stroke="#63b8ff" points="784.94,-50 794.94,-46.5 784.94,-43 784.94,-50"/>
</a>
</g>
</g>
<!-- Node10 -->
<g id="Node000010" class="node">
<title>Node10</title>
<g id="a_Node000010"><a xlink:href="classinja_1_1NodeVisitor.html#afecb3de947b76e68094be2a72eedea09" target="_top" xlink:title=" ">
<polygon fill="white" stroke="#666666" points="1066,-61.5 962,-61.5 962,-31.5 1066,-31.5 1066,-61.5"/>
<text text-anchor="start" x="970" y="-49.5" font-family="Helvetica,sans-Serif" font-size="10.00">inja::NodeVisitor::</text>
<text text-anchor="middle" x="1014" y="-38.5" font-family="Helvetica,sans-Serif" font-size="10.00">visit</text>
</a>
</g>
</g>
<!-- Node9&#45;&gt;Node10 -->
<g id="edge9_Node000009_Node000010" class="edge">
<title>Node9&#45;&gt;Node10</title>
<g id="a_edge9_Node000009_Node000010"><a xlink:title=" ">
<path fill="none" stroke="#63b8ff" d="M926.19,-46.5C934.65,-46.5 943.3,-46.5 951.71,-46.5"/>
<polygon fill="#63b8ff" stroke="#63b8ff" points="951.8,-50 961.8,-46.5 951.8,-43 951.8,-50"/>
</a>
</g>
</g>
</g>
</svg>
