<?xml version="1.0" encoding="UTF-8" standalone="no"?>
<!DOCTYPE svg PUBLIC "-//W3C//DTD SVG 1.1//EN"
 "http://www.w3.org/Graphics/SVG/1.1/DTD/svg11.dtd">
<!-- Generated by graphviz version 14.1.2 (0)
 -->
<!-- Title: mqtt::bridge::lib::SSEDistributor::instance Pages: 1 -->
<svg width="656pt" height="246pt"
 viewBox="0.00 0.00 656.00 246.00" xmlns="http://www.w3.org/2000/svg" xmlns:xlink="http://www.w3.org/1999/xlink">
<g id="graph0" class="graph" transform="scale(1 1) rotate(0) translate(4 241.5)">
<title>mqtt::bridge::lib::SSEDistributor::instance</title>
<!-- Node1 -->
<g id="Node000001" class="node">
<title>Node1</title>
<g id="a_Node000001"><a xlink:title=" ">
<polygon fill="#999999" stroke="#666666" points="648.25,-135.5 515.25,-135.5 515.25,-102 648.25,-102 648.25,-135.5"/>
<text xml:space="preserve" text-anchor="start" x="523.25" y="-122" font-family="Helvetica,sans-Serif" font-size="10.00">mqtt::bridge::lib::</text>
<text xml:space="preserve" text-anchor="middle" x="581.75" y="-109.25" font-family="Helvetica,sans-Serif" font-size="10.00">SSEDistributor::instance</text>
</a>
</g>
</g>
<!-- Node2 -->
<g id="Node000002" class="node">
<title>Node2</title>
<g id="a_Node000002"><a xlink:href="classmqtt_1_1bridge_1_1lib_1_1Bridge.html#a3a4293a660369d5d5976c303eb5e7262" target="_top" xlink:title=" ">
<polygon fill="white" stroke="#666666" points="472.5,-237.5 372.5,-237.5 372.5,-204 472.5,-204 472.5,-237.5"/>
<text xml:space="preserve" text-anchor="start" x="380.5" y="-224" font-family="Helvetica,sans-Serif" font-size="10.00">mqtt::bridge::lib::</text>
<text xml:space="preserve" text-anchor="middle" x="422.5" y="-211.25" font-family="Helvetica,sans-Serif" font-size="10.00">Bridge::addMqtt</text>
</a>
</g>
</g>
<!-- Node1&#45;&gt;Node2 -->
<g id="edge1_Node000001_Node000002" class="edge">
<title>Node1&#45;&gt;Node2</title>
<g id="a_edge1_Node000001_Node000002"><a xlink:title=" ">
<path fill="none" stroke="#63b8ff" d="M548.7,-142.44C529,-156.67 503.07,-174.85 479.25,-189.75 471.74,-194.45 463.48,-199.24 455.67,-203.6"/>
<polygon fill="#63b8ff" stroke="#63b8ff" points="550.57,-145.4 556.6,-136.69 546.46,-139.74 550.57,-145.4"/>
</a>
</g>
</g>
<!-- Node3 -->
<g id="Node000003" class="node">
<title>Node3</title>
<g id="a_Node000003"><a xlink:href="classmqtt_1_1bridge_1_1lib_1_1BridgeStore.html#a3e74b309f1d8aa60e4487e35abc1a8b1" target="_top" xlink:title=" ">
<polygon fill="white" stroke="#666666" points="322.62,-214.5 168.62,-214.5 168.62,-181 322.62,-181 322.62,-214.5"/>
<text xml:space="preserve" text-anchor="start" x="176.62" y="-201" font-family="Helvetica,sans-Serif" font-size="10.00">mqtt::bridge::lib::</text>
<text xml:space="preserve" text-anchor="middle" x="245.62" y="-188.25" font-family="Helvetica,sans-Serif" font-size="10.00">BridgeStore::mqttConnected</text>
</a>
</g>
</g>
<!-- Node1&#45;&gt;Node3 -->
<g id="edge6_Node000001_Node000003" class="edge">
<title>Node1&#45;&gt;Node3</title>
<g id="a_edge6_Node000001_Node000003"><a xlink:title=" ">
<path fill="none" stroke="#63b8ff" d="M529.62,-139.98C513.68,-146.03 495.92,-152.2 479.25,-156.75 427.92,-170.75 368.86,-181.1 323.1,-187.89"/>
<polygon fill="#63b8ff" stroke="#63b8ff" points="530.85,-143.26 538.91,-136.38 528.32,-136.73 530.85,-143.26"/>
</a>
</g>
</g>
<!-- Node5 -->
<g id="Node000005" class="node">
<title>Node5</title>
<g id="a_Node000005"><a xlink:href="mqttbridge_8cpp.html#a049ffc3274ea87fbe64bb3dede829cf4" target="_top" xlink:title=" ">
<polygon fill="white" stroke="#666666" points="461.62,-148.12 383.38,-148.12 383.38,-127.38 461.62,-127.38 461.62,-148.12"/>
<text xml:space="preserve" text-anchor="middle" x="422.5" y="-134.62" font-family="Helvetica,sans-Serif" font-size="10.00">closeBridges</text>
</a>
</g>
</g>
<!-- Node1&#45;&gt;Node5 -->
<g id="edge4_Node000001_Node000005" class="edge">
<title>Node1&#45;&gt;Node5</title>
<g id="a_edge4_Node000001_Node000005"><a xlink:title=" ">
<path fill="none" stroke="#63b8ff" d="M503.92,-128.03C489.39,-129.79 474.79,-131.55 462.09,-133.09"/>
<polygon fill="#63b8ff" stroke="#63b8ff" points="503.96,-131.55 513.47,-126.88 503.12,-124.6 503.96,-131.55"/>
</a>
</g>
</g>
<!-- Node6 -->
<g id="Node000006" class="node">
<title>Node6</title>
<g id="a_Node000006"><a xlink:href="mqttbridge_8cpp.html#a0ddf1224851353fc92bfbff6f499fa97" target="_top" xlink:title=" ">
<polygon fill="white" stroke="#666666" points="266,-111.12 225.25,-111.12 225.25,-90.38 266,-90.38 266,-111.12"/>
<text xml:space="preserve" text-anchor="middle" x="245.62" y="-97.62" font-family="Helvetica,sans-Serif" font-size="10.00">main</text>
</a>
</g>
</g>
<!-- Node1&#45;&gt;Node6 -->
<g id="edge5_Node000001_Node000006" class="edge">
<title>Node1&#45;&gt;Node6</title>
<g id="a_edge5_Node000001_Node000006"><a xlink:title=" ">
<path fill="none" stroke="#63b8ff" d="M503.99,-114.61C426.55,-110.44 312.1,-104.28 266.46,-101.82"/>
<polygon fill="#63b8ff" stroke="#63b8ff" points="503.45,-118.09 513.62,-115.13 503.83,-111.1 503.45,-118.09"/>
</a>
</g>
</g>
<!-- Node7 -->
<g id="Node000007" class="node">
<title>Node7</title>
<g id="a_Node000007"><a xlink:href="classmqtt_1_1bridge_1_1lib_1_1Bridge.html#afa30b1de86ead152082545890c307400" target="_top" xlink:title=" ">
<polygon fill="white" stroke="#666666" points="479.25,-33.5 365.75,-33.5 365.75,0 479.25,0 479.25,-33.5"/>
<text xml:space="preserve" text-anchor="start" x="373.75" y="-20" font-family="Helvetica,sans-Serif" font-size="10.00">mqtt::bridge::lib::</text>
<text xml:space="preserve" text-anchor="middle" x="422.5" y="-7.25" font-family="Helvetica,sans-Serif" font-size="10.00">Bridge::removeMqtt</text>
</a>
</g>
</g>
<!-- Node1&#45;&gt;Node7 -->
<g id="edge7_Node000001_Node000007" class="edge">
<title>Node1&#45;&gt;Node7</title>
<g id="a_edge7_Node000001_Node000007"><a xlink:title=" ">
<path fill="none" stroke="#63b8ff" d="M551.86,-94.59C532.13,-78.74 505.01,-58.18 479.25,-42.75 474.12,-39.68 468.57,-36.71 463.02,-33.94"/>
<polygon fill="#63b8ff" stroke="#63b8ff" points="549.49,-97.17 559.46,-100.77 553.91,-91.74 549.49,-97.17"/>
</a>
</g>
</g>
<!-- Node10 -->
<g id="Node000010" class="node">
<title>Node10</title>
<g id="a_Node000010"><a xlink:href="mqttbridge_8cpp.html#ac4db1bc049804762ae0893100ec95dec" target="_top" xlink:title=" ">
<polygon fill="white" stroke="#666666" points="460.12,-72.12 384.88,-72.12 384.88,-51.38 460.12,-51.38 460.12,-72.12"/>
<text xml:space="preserve" text-anchor="middle" x="422.5" y="-58.62" font-family="Helvetica,sans-Serif" font-size="10.00">startBridges</text>
</a>
</g>
</g>
<!-- Node1&#45;&gt;Node10 -->
<g id="edge10_Node000001_Node000010" class="edge">
<title>Node1&#45;&gt;Node10</title>
<g id="a_edge10_Node000001_Node000010"><a xlink:title=" ">
<path fill="none" stroke="#63b8ff" d="M522.93,-97.79C499.29,-89.22 472.94,-79.67 453.31,-72.56"/>
<polygon fill="#63b8ff" stroke="#63b8ff" points="521.55,-101.01 532.15,-101.13 523.94,-94.43 521.55,-101.01"/>
</a>
</g>
</g>
<!-- Node2&#45;&gt;Node3 -->
<g id="edge2_Node000002_Node000003" class="edge">
<title>Node2&#45;&gt;Node3</title>
<g id="a_edge2_Node000002_Node000003"><a xlink:title=" ">
<path fill="none" stroke="#63b8ff" d="M361.23,-212.82C348.88,-211.2 335.72,-209.47 322.89,-207.78"/>
<polygon fill="#63b8ff" stroke="#63b8ff" points="360.45,-216.25 370.82,-214.08 361.36,-209.31 360.45,-216.25"/>
</a>
</g>
</g>
<!-- Node4 -->
<g id="Node000004" class="node">
<title>Node4</title>
<g id="a_Node000004"><a xlink:href="classmqtt_1_1bridge_1_1lib_1_1Mqtt.html#a695ccafca764022552d51da3faccbdac" target="_top" xlink:title=" ">
<polygon fill="white" stroke="#666666" points="112.75,-214.5 12.75,-214.5 12.75,-181 112.75,-181 112.75,-214.5"/>
<text xml:space="preserve" text-anchor="start" x="20.75" y="-201" font-family="Helvetica,sans-Serif" font-size="10.00">mqtt::bridge::lib::</text>
<text xml:space="preserve" text-anchor="middle" x="62.75" y="-188.25" font-family="Helvetica,sans-Serif" font-size="10.00">Mqtt::onConnack</text>
</a>
</g>
</g>
<!-- Node3&#45;&gt;Node4 -->
<g id="edge3_Node000003_Node000004" class="edge">
<title>Node3&#45;&gt;Node4</title>
<g id="a_edge3_Node000003_Node000004"><a xlink:title=" ">
<path fill="none" stroke="#63b8ff" d="M156.77,-197.75C141.78,-197.75 126.71,-197.75 113.18,-197.75"/>
<polygon fill="#63b8ff" stroke="#63b8ff" points="156.67,-201.25 166.67,-197.75 156.67,-194.25 156.67,-201.25"/>
</a>
</g>
</g>
<!-- Node8 -->
<g id="Node000008" class="node">
<title>Node8</title>
<g id="a_Node000008"><a xlink:href="classmqtt_1_1bridge_1_1lib_1_1BridgeStore.html#a9384b7d7ef7214dbe923d445e3201156" target="_top" xlink:title=" ">
<polygon fill="white" stroke="#666666" points="329.75,-33.5 161.5,-33.5 161.5,0 329.75,0 329.75,-33.5"/>
<text xml:space="preserve" text-anchor="start" x="169.5" y="-20" font-family="Helvetica,sans-Serif" font-size="10.00">mqtt::bridge::lib::</text>
<text xml:space="preserve" text-anchor="middle" x="245.62" y="-7.25" font-family="Helvetica,sans-Serif" font-size="10.00">BridgeStore::mqttDisconnected</text>
</a>
</g>
</g>
<!-- Node7&#45;&gt;Node8 -->
<g id="edge8_Node000007_Node000008" class="edge">
<title>Node7&#45;&gt;Node8</title>
<g id="a_edge8_Node000007_Node000008"><a xlink:title=" ">
<path fill="none" stroke="#63b8ff" d="M354.24,-16.75C346.28,-16.75 338.09,-16.75 329.95,-16.75"/>
<polygon fill="#63b8ff" stroke="#63b8ff" points="354.17,-20.25 364.17,-16.75 354.17,-13.25 354.17,-20.25"/>
</a>
</g>
</g>
<!-- Node9 -->
<g id="Node000009" class="node">
<title>Node9</title>
<g id="a_Node000009"><a xlink:href="classmqtt_1_1bridge_1_1lib_1_1Mqtt.html#a0628e4ad221204e943cdb08061c99e94" target="_top" xlink:title=" ">
<polygon fill="white" stroke="#666666" points="124,-33.5 1.5,-33.5 1.5,0 124,0 124,-33.5"/>
<text xml:space="preserve" text-anchor="start" x="9.5" y="-20" font-family="Helvetica,sans-Serif" font-size="10.00">mqtt::bridge::lib::</text>
<text xml:space="preserve" text-anchor="middle" x="62.75" y="-7.25" font-family="Helvetica,sans-Serif" font-size="10.00">Mqtt::onDisconnected</text>
</a>
</g>
</g>
<!-- Node8&#45;&gt;Node9 -->
<g id="edge9_Node000008_Node000009" class="edge">
<title>Node8&#45;&gt;Node9</title>
<g id="a_edge9_Node000008_Node000009"><a xlink:title=" ">
<path fill="none" stroke="#63b8ff" d="M149.71,-16.75C141.07,-16.75 132.49,-16.75 124.28,-16.75"/>
<polygon fill="#63b8ff" stroke="#63b8ff" points="149.56,-20.25 159.56,-16.75 149.56,-13.25 149.56,-20.25"/>
</a>
</g>
</g>
<!-- Node10&#45;&gt;Node6 -->
<g id="edge11_Node000010_Node000006" class="edge">
<title>Node10&#45;&gt;Node6</title>
<g id="a_edge11_Node000010_Node000006"><a xlink:title=" ">
<path fill="none" stroke="#63b8ff" d="M373.38,-72.48C338.12,-80.35 292.07,-90.61 266.3,-96.36"/>
<polygon fill="#63b8ff" stroke="#63b8ff" points="373.94,-75.94 382.94,-70.35 372.41,-69.11 373.94,-75.94"/>
</a>
</g>
</g>
<!-- Node11 -->
<g id="Node000011" class="node">
<title>Node11</title>
<g id="a_Node000011"><a xlink:href="mqttbridge_8cpp.html#ad55d86bc4a27f17b5ccd51659519f60d" target="_top" xlink:title=" ">
<polygon fill="white" stroke="#666666" points="288.12,-72.12 203.12,-72.12 203.12,-51.38 288.12,-51.38 288.12,-72.12"/>
<text xml:space="preserve" text-anchor="middle" x="245.62" y="-58.62" font-family="Helvetica,sans-Serif" font-size="10.00">restartBridges</text>
</a>
</g>
</g>
<!-- Node10&#45;&gt;Node11 -->
<g id="edge12_Node000010_Node000011" class="edge">
<title>Node10&#45;&gt;Node11</title>
<g id="a_edge12_Node000010_Node000011"><a xlink:title=" ">
<path fill="none" stroke="#63b8ff" d="M373.08,-61.75C346.55,-61.75 314,-61.75 288.57,-61.75"/>
<polygon fill="#63b8ff" stroke="#63b8ff" points="372.9,-65.25 382.9,-61.75 372.9,-58.25 372.9,-65.25"/>
</a>
</g>
</g>
<!-- Node12 -->
<g id="Node000012" class="node">
<title>Node12</title>
<g id="a_Node000012"><a xlink:href="mqttbridge_8cpp.html#a3d16d2e23b0d4b9300255adc9883e1f4" target="_top" xlink:title=" ">
<polygon fill="white" stroke="#666666" points="125.5,-72.12 0,-72.12 0,-51.38 125.5,-51.38 125.5,-72.12"/>
<text xml:space="preserve" text-anchor="middle" x="62.75" y="-58.62" font-family="Helvetica,sans-Serif" font-size="10.00">handleFlowControllers</text>
</a>
</g>
</g>
<!-- Node11&#45;&gt;Node12 -->
<g id="edge13_Node000011_Node000012" class="edge">
<title>Node11&#45;&gt;Node12</title>
<g id="a_edge13_Node000011_Node000012"><a xlink:title=" ">
<path fill="none" stroke="#63b8ff" d="M191.28,-61.75C170.71,-61.75 147.03,-61.75 125.71,-61.75"/>
<polygon fill="#63b8ff" stroke="#63b8ff" points="191.16,-65.25 201.16,-61.75 191.16,-58.25 191.16,-65.25"/>
</a>
</g>
</g>
</g>
</svg>
