<?xml version="1.0" encoding="UTF-8" standalone="no"?>
<!DOCTYPE svg PUBLIC "-//W3C//DTD SVG 1.1//EN"
 "http://www.w3.org/Graphics/SVG/1.1/DTD/svg11.dtd">
<!-- Generated by graphviz version 2.42.4 (0)
 -->
<!-- Title: mqtt::mqttbroker::SocketContextFactory Pages: 1 -->
<svg width="260pt" height="126pt"
 viewBox="0.00 0.00 260.00 126.00" xmlns="http://www.w3.org/2000/svg" xmlns:xlink="http://www.w3.org/1999/xlink">
<g id="graph0" class="graph" transform="scale(1 1) rotate(0) translate(4 122)">
<title>mqtt::mqttbroker::SocketContextFactory</title>
<!-- Node1 -->
<g id="Node000001" class="node">
<title>Node1</title>
<g id="a_Node000001"><a xlink:title=" ">
<polygon fill="#999999" stroke="transparent" points="193,-30 63,-30 63,0 193,0 193,-30"/>
<text text-anchor="start" x="67" y="-18" font-family="Helvetica,sans-Serif" font-size="10.00">mqtt::mqttbroker::Socket</text>
<text text-anchor="start" x="90.5" y="-7" font-family="Helvetica,sans-Serif" font-size="10.00">ContextFactory</text>
<polygon fill="none" stroke="#666666" points="63,0 63,-30 193,-30 193,0 63,0"/>
</a>
</g>
</g>
<!-- Node2 -->
<g id="Node000002" class="node">
<title>Node2</title>
<g id="a_Node000002"><a xlink:title=" ">
<polygon fill="white" stroke="transparent" points="122,-112.5 0,-112.5 0,-82.5 122,-82.5 122,-112.5"/>
<text text-anchor="start" x="4.5" y="-100.5" font-family="Helvetica,sans-Serif" font-size="10.00">core::socket::stream</text>
<text text-anchor="start" x="4.5" y="-89.5" font-family="Helvetica,sans-Serif" font-size="10.00">::SocketContextFactory</text>
<polygon fill="none" stroke="#666666" points="0,-82.5 0,-112.5 122,-112.5 122,-82.5 0,-82.5"/>
</a>
</g>
</g>
<!-- Node2&#45;&gt;Node1 -->
<g id="edge1_Node000001_Node000002" class="edge">
<title>Node2&#45;&gt;Node1</title>
<g id="a_edge1_Node000001_Node000002"><a xlink:title=" ">
<path fill="none" stroke="#63b8ff" d="M79.18,-74.66C90.97,-60.49 105.99,-42.44 116.24,-30.13"/>
<polygon fill="none" stroke="#63b8ff" points="76.38,-72.55 72.67,-82.48 81.76,-77.03 76.38,-72.55"/>
</a>
</g>
</g>
<!-- Node3 -->
<g id="Node000003" class="node">
<title>Node3</title>
<g id="a_Node000003"><a xlink:title=" ">
<polygon fill="white" stroke="transparent" points="252,-118 140,-118 140,-77 252,-77 252,-118"/>
<text text-anchor="start" x="144.5" y="-105.5" font-family="Helvetica,sans-Serif" font-size="10.00">std::shared_ptr&lt; iot</text>
<text text-anchor="start" x="144.5" y="-94.5" font-family="Helvetica,sans-Serif" font-size="10.00">::mqtt::server::broker</text>
<text text-anchor="start" x="171.5" y="-83.5" font-family="Helvetica,sans-Serif" font-size="10.00">::Broker &gt;</text>
<polygon fill="none" stroke="#666666" points="140,-77 140,-118 252,-118 252,-77 140,-77"/>
</a>
</g>
</g>
<!-- Node3&#45;&gt;Node1 -->
<g id="edge2_Node000001_Node000003" class="edge">
<title>Node3&#45;&gt;Node1</title>
<g id="a_edge2_Node000001_Node000003"><a xlink:title=" ">
<path fill="none" stroke="#63b8ff" d="M179.19,-76.6C169.73,-65.4 157.85,-51.34 147.92,-39.58"/>
<polygon fill="none" stroke="#63b8ff" points="147.88,-39.53 140.95,-37.53 140.13,-30.37 147.06,-32.37 147.88,-39.53"/>
</a>
</g>
<text text-anchor="middle" x="183" y="-51" font-family="Helvetica,sans-Serif" font-size="10.00" fill="grey"> &#45;broker</text>
</g>
</g>
</svg>
