<?xml version="1.0" encoding="UTF-8" standalone="no"?>
<!DOCTYPE svg PUBLIC "-//W3C//DTD SVG 1.1//EN"
 "http://www.w3.org/Graphics/SVG/1.1/DTD/svg11.dtd">
<!-- Generated by graphviz version 2.42.4 (0)
 -->
<!-- Title: inja::Lexer::scan_body Pages: 1 -->
<!--zoomable 268 -->

<svg id="main" version="1.1" xmlns="http://www.w3.org/2000/svg" xmlns:xlink="http://www.w3.org/1999/xlink" xml:space="preserve" onload="init(evt)">

<style type="text/css"><![CDATA[
.node, .edge {opacity: 0.7;}
.node.selected, .edge.selected {opacity: 1;}
.edge:hover path { stroke: red; }
.edge:hover polygon { stroke: red; fill: red; }
]]></style>

<defs>
  <circle id="rim" cx="0" cy="0" r="7"/>
  <circle id="rim2" cx="0" cy="0" r="3.5"/>
  <g id="zoomPlus">
    <use xlink:href="#rim" fill="#404040"><set attributeName="fill" to="#808080" begin="zoomplus.mouseover" end="zoomplus.mouseout"/></use>
    <path d="M-4,0h8M0,-4v8" fill="none" stroke="white" stroke-width="1.5" pointer-events="none"/>
  </g>
  <g id="zoomMin">
    <use xlink:href="#rim" fill="#404040"><set attributeName="fill" to="#808080" begin="zoomminus.mouseover" end="zoomminus.mouseout"/></use>
    <path d="M-4,0h8" fill="none" stroke="white" stroke-width="1.5" pointer-events="none"/>
  </g>
  <g id="arrowUp" transform="translate(30 24)">
    <use xlink:href="#rim"/>
    <path pointer-events="none" fill="none" stroke="white" stroke-width="1.5" d="M0,-3.0v7 M-2.5,-0.5L0,-3.0L2.5,-0.5"/>
  </g>
  <g id="arrowRight" transform="rotate(90) translate(36 -43)">
    <use xlink:href="#rim"/>
    <path pointer-events="none" fill="none" stroke="white" stroke-width="1.5" d="M0,-3.0v7 M-2.5,-0.5L0,-3.0L2.5,-0.5"/>
  </g>
  <g id="arrowDown" transform="rotate(180) translate(-30 -48)">
    <use xlink:href="#rim"/>
    <path pointer-events="none" fill="none" stroke="white" stroke-width="1.5" d="M0,-3.0v7 M-2.5,-0.5L0,-3.0L2.5,-0.5"/>
  </g>
  <g id="arrowLeft" transform="rotate(270) translate(-36 17)">
    <use xlink:href="#rim"/>
    <path pointer-events="none" fill="none" stroke="white" stroke-width="1.5" d="M0,-3.0v7 M-2.5,-0.5L0,-3.0L2.5,-0.5"/>
  </g>
  <g id="resetDef">
    <use xlink:href="#rim2" fill="#404040"><set attributeName="fill" to="#808080" begin="reset.mouseover" end="reset.mouseout"/></use>
  </g>
</defs>
<script type="application/ecmascript">
var viewWidth = 637;
var viewHeight = 268;
var sectionId = 'dynsection-10';
</script>
<script type="application/ecmascript" xlink:href="svg.min.js"/>
<svg id="graph" class="graph">
<g id="viewport">
<title>inja::Lexer::scan_body</title>
<!-- Node1 -->
<g id="Node000001" class="node">
<title>Node1</title>
<g id="a_Node000001"><a xlink:title=" ">
<polygon fill="#999999" stroke="#666666" points="125,-163.5 0,-163.5 0,-144.5 125,-144.5 125,-163.5"/>
<text text-anchor="middle" x="62.5" y="-151.5" font-family="Helvetica,sans-Serif" font-size="10.00">inja::Lexer::scan_body</text>
</a>
</g>
</g>
<!-- Node2 -->
<g id="Node000002" class="node">
<title>Node2</title>
<g id="a_Node000002"><a xlink:href="classinja_1_1Lexer.html#a6088871283d1a03087b325b88c9396f4" target="_top" xlink:title=" ">
<polygon fill="white" stroke="#666666" points="490,-218.5 357,-218.5 357,-199.5 490,-199.5 490,-218.5"/>
<text text-anchor="middle" x="423.5" y="-206.5" font-family="Helvetica,sans-Serif" font-size="10.00">inja::Lexer::make_token</text>
</a>
</g>
</g>
<!-- Node1&#45;&gt;Node2 -->
<g id="edge1_Node000001_Node000002" class="edge">
<title>Node1&#45;&gt;Node2</title>
<g id="a_edge1_Node000001_Node000002"><a xlink:title=" ">
<path fill="none" stroke="#63b8ff" d="M69.63,-163.51C83.19,-183.56 118,-229.78 161,-247 240.85,-278.98 344.01,-243.73 393.5,-222.57"/>
<polygon fill="#63b8ff" stroke="#63b8ff" points="394.91,-225.78 402.66,-218.56 392.1,-219.37 394.91,-225.78"/>
</a>
</g>
</g>
<!-- Node5 -->
<g id="Node000005" class="node">
<title>Node5</title>
<g id="a_Node000005"><a xlink:href="classinja_1_1Lexer.html#acb4ddc9702038530f73db97c701a60a5" target="_top" xlink:title=" ">
<polygon fill="white" stroke="#666666" points="296,-237.5 186,-237.5 186,-218.5 296,-218.5 296,-237.5"/>
<text text-anchor="middle" x="241" y="-225.5" font-family="Helvetica,sans-Serif" font-size="10.00">inja::Lexer::scan_id</text>
</a>
</g>
</g>
<!-- Node1&#45;&gt;Node5 -->
<g id="edge4_Node000001_Node000005" class="edge">
<title>Node1&#45;&gt;Node5</title>
<g id="a_edge4_Node000001_Node000005"><a xlink:title=" ">
<path fill="none" stroke="#63b8ff" d="M77.05,-163.54C95.3,-175.96 129.18,-197.56 161,-210 166.46,-212.13 172.23,-214.05 178.07,-215.76"/>
<polygon fill="#63b8ff" stroke="#63b8ff" points="177.34,-219.19 187.91,-218.45 179.19,-212.44 177.34,-219.19"/>
</a>
</g>
</g>
<!-- Node6 -->
<g id="Node000006" class="node">
<title>Node6</title>
<g id="a_Node000006"><a xlink:href="classinja_1_1Lexer.html#ab9aa4522a541720d58268d7d3e27e63f" target="_top" xlink:title=" ">
<polygon fill="white" stroke="#666666" points="310.5,-200.5 171.5,-200.5 171.5,-181.5 310.5,-181.5 310.5,-200.5"/>
<text text-anchor="middle" x="241" y="-188.5" font-family="Helvetica,sans-Serif" font-size="10.00">inja::Lexer::scan_number</text>
</a>
</g>
</g>
<!-- Node1&#45;&gt;Node6 -->
<g id="edge6_Node000001_Node000006" class="edge">
<title>Node1&#45;&gt;Node6</title>
<g id="a_edge6_Node000001_Node000006"><a xlink:title=" ">
<path fill="none" stroke="#63b8ff" d="M108.95,-163.53C132.02,-168.36 160.24,-174.28 184.58,-179.38"/>
<polygon fill="#63b8ff" stroke="#63b8ff" points="183.89,-182.81 194.39,-181.44 185.33,-175.96 183.89,-182.81"/>
</a>
</g>
</g>
<!-- Node7 -->
<g id="Node000007" class="node">
<title>Node7</title>
<g id="a_Node000007"><a xlink:href="classinja_1_1Lexer.html#a3e8f3f7d8569fa5d781633b57a6bdcca" target="_top" xlink:title=" ">
<polygon fill="white" stroke="#666666" points="305.5,-163.5 176.5,-163.5 176.5,-144.5 305.5,-144.5 305.5,-163.5"/>
<text text-anchor="middle" x="241" y="-151.5" font-family="Helvetica,sans-Serif" font-size="10.00">inja::Lexer::scan_string</text>
</a>
</g>
</g>
<!-- Node1&#45;&gt;Node7 -->
<g id="edge8_Node000001_Node000007" class="edge">
<title>Node1&#45;&gt;Node7</title>
<g id="a_edge8_Node000001_Node000007"><a xlink:title=" ">
<path fill="none" stroke="#63b8ff" d="M125.23,-154C138.38,-154 152.4,-154 165.95,-154"/>
<polygon fill="#63b8ff" stroke="#63b8ff" points="166.21,-157.5 176.21,-154 166.21,-150.5 166.21,-157.5"/>
</a>
</g>
</g>
<!-- Node8 -->
<g id="Node000008" class="node">
<title>Node8</title>
<g id="a_Node000008"><a xlink:href="classinja_1_1Lexer.html#ae4dcb266522442d430dcb8d381b5fdb1" target="_top" xlink:title=" ">
<polygon fill="white" stroke="#666666" points="321,-126 161,-126 161,-96 321,-96 321,-126"/>
<text text-anchor="start" x="169" y="-114" font-family="Helvetica,sans-Serif" font-size="10.00">inja::Lexer::skip_whitespaces</text>
<text text-anchor="middle" x="241" y="-103" font-family="Helvetica,sans-Serif" font-size="10.00">_and_first_newline</text>
</a>
</g>
</g>
<!-- Node1&#45;&gt;Node8 -->
<g id="edge10_Node000001_Node000008" class="edge">
<title>Node1&#45;&gt;Node8</title>
<g id="a_edge10_Node000001_Node000008"><a xlink:title=" ">
<path fill="none" stroke="#63b8ff" d="M102.67,-144.46C122.05,-139.74 146.05,-133.89 168.54,-128.41"/>
<polygon fill="#63b8ff" stroke="#63b8ff" points="169.52,-131.77 178.4,-126.01 167.86,-124.97 169.52,-131.77"/>
</a>
</g>
</g>
<!-- Node9 -->
<g id="Node000009" class="node">
<title>Node9</title>
<g id="a_Node000009"><a xlink:href="classinja_1_1Lexer.html#a50d21b69bfa1cd5e6d2e9b5c1bd53c53" target="_top" xlink:title=" ">
<polygon fill="white" stroke="#666666" points="321,-78 161,-78 161,-48 321,-48 321,-78"/>
<text text-anchor="start" x="169" y="-66" font-family="Helvetica,sans-Serif" font-size="10.00">inja::Lexer::skip_whitespaces</text>
<text text-anchor="middle" x="241" y="-55" font-family="Helvetica,sans-Serif" font-size="10.00">_and_newlines</text>
</a>
</g>
</g>
<!-- Node1&#45;&gt;Node9 -->
<g id="edge11_Node000001_Node000009" class="edge">
<title>Node1&#45;&gt;Node9</title>
<g id="a_edge11_Node000001_Node000009"><a xlink:title=" ">
<path fill="none" stroke="#63b8ff" d="M75.08,-144.27C92.63,-129.94 127.5,-103.12 161,-87 164.85,-85.15 168.88,-83.4 172.98,-81.76"/>
<polygon fill="#63b8ff" stroke="#63b8ff" points="174.54,-84.92 182.67,-78.13 172.08,-78.36 174.54,-84.92"/>
</a>
</g>
</g>
<!-- Node10 -->
<g id="Node000010" class="node">
<title>Node10</title>
<g id="a_Node000010"><a xlink:href="namespaceinja_1_1string__view.html#a78e9922c080101c22e54419f7caa83d8" target="_top" xlink:title=" ">
<polygon fill="white" stroke="#666666" points="292.5,-30 189.5,-30 189.5,0 292.5,0 292.5,-30"/>
<text text-anchor="start" x="197.5" y="-18" font-family="Helvetica,sans-Serif" font-size="10.00">inja::string_view::</text>
<text text-anchor="middle" x="241" y="-7" font-family="Helvetica,sans-Serif" font-size="10.00">starts_with</text>
</a>
</g>
</g>
<!-- Node1&#45;&gt;Node10 -->
<g id="edge12_Node000001_Node000010" class="edge">
<title>Node1&#45;&gt;Node10</title>
<g id="a_edge12_Node000001_Node000010"><a xlink:title=" ">
<path fill="none" stroke="#63b8ff" d="M68.98,-144.36C82,-122.31 117.03,-67.89 161,-39 166.71,-35.25 173.04,-32.06 179.56,-29.35"/>
<polygon fill="#63b8ff" stroke="#63b8ff" points="181.06,-32.53 189.19,-25.73 178.59,-25.98 181.06,-32.53"/>
</a>
</g>
</g>
<!-- Node3 -->
<g id="Node000003" class="node">
<title>Node3</title>
<g id="a_Node000003"><a xlink:href="namespaceinja_1_1string__view.html#a898871016595d8f34d1b4ea55b3e8684" target="_top" xlink:title=" ">
<polygon fill="white" stroke="#666666" points="629,-246 526,-246 526,-216 629,-216 629,-246"/>
<text text-anchor="start" x="534" y="-234" font-family="Helvetica,sans-Serif" font-size="10.00">inja::string_view::</text>
<text text-anchor="middle" x="577.5" y="-223" font-family="Helvetica,sans-Serif" font-size="10.00">slice</text>
</a>
</g>
</g>
<!-- Node2&#45;&gt;Node3 -->
<g id="edge2_Node000002_Node000003" class="edge">
<title>Node2&#45;&gt;Node3</title>
<g id="a_edge2_Node000002_Node000003"><a xlink:title=" ">
<path fill="none" stroke="#63b8ff" d="M490.29,-218.52C498.73,-219.74 507.34,-220.99 515.7,-222.2"/>
<polygon fill="#63b8ff" stroke="#63b8ff" points="515.34,-225.68 525.74,-223.65 516.34,-218.76 515.34,-225.68"/>
</a>
</g>
</g>
<!-- Node4 -->
<g id="Node000004" class="node">
<title>Node4</title>
<g id="a_Node000004"><a xlink:href="structinja_1_1Token.html#ae215b2b1e365fc7c4060895b604e2430" target="_top" xlink:title=" ">
<polygon fill="white" stroke="#666666" points="628.5,-197.5 526.5,-197.5 526.5,-178.5 628.5,-178.5 628.5,-197.5"/>
<text text-anchor="middle" x="577.5" y="-185.5" font-family="Helvetica,sans-Serif" font-size="10.00">inja::Token::Token</text>
</a>
</g>
</g>
<!-- Node2&#45;&gt;Node4 -->
<g id="edge3_Node000002_Node000004" class="edge">
<title>Node2&#45;&gt;Node4</title>
<g id="a_edge3_Node000002_Node000004"><a xlink:title=" ">
<path fill="none" stroke="#63b8ff" d="M490.29,-199.91C498.84,-198.73 507.57,-197.52 516.04,-196.35"/>
<polygon fill="#63b8ff" stroke="#63b8ff" points="516.77,-199.79 526.2,-194.95 515.81,-192.85 516.77,-199.79"/>
</a>
</g>
</g>
<!-- Node5&#45;&gt;Node2 -->
<g id="edge5_Node000005_Node000002" class="edge">
<title>Node5&#45;&gt;Node2</title>
<g id="a_edge5_Node000005_Node000002"><a xlink:title=" ">
<path fill="none" stroke="#63b8ff" d="M296.16,-222.3C311.98,-220.63 329.57,-218.78 346.49,-217"/>
<polygon fill="#63b8ff" stroke="#63b8ff" points="347.33,-220.43 356.9,-215.9 346.59,-213.47 347.33,-220.43"/>
</a>
</g>
</g>
<!-- Node6&#45;&gt;Node2 -->
<g id="edge7_Node000006_Node000002" class="edge">
<title>Node6&#45;&gt;Node2</title>
<g id="a_edge7_Node000006_Node000002"><a xlink:title=" ">
<path fill="none" stroke="#63b8ff" d="M310.75,-197.86C322.58,-199.04 334.94,-200.27 346.94,-201.46"/>
<polygon fill="#63b8ff" stroke="#63b8ff" points="346.61,-204.95 356.91,-202.46 347.31,-197.98 346.61,-204.95"/>
</a>
</g>
</g>
<!-- Node7&#45;&gt;Node2 -->
<g id="edge9_Node000007_Node000002" class="edge">
<title>Node7&#45;&gt;Node2</title>
<g id="a_edge9_Node000007_Node000002"><a xlink:title=" ">
<path fill="none" stroke="#63b8ff" d="M285.27,-163.54C296.93,-166.35 309.5,-169.59 321,-173 343.69,-179.73 368.77,-188.61 388.32,-195.87"/>
<polygon fill="#63b8ff" stroke="#63b8ff" points="387.12,-199.16 397.71,-199.39 389.58,-192.6 387.12,-199.16"/>
</a>
</g>
</g>
</g>
</svg>

<g id="navigator" transform="translate(0 0)" fill="#404254">
  <rect fill="#f2f5e9" fill-opacity="0.5" stroke="#606060" stroke-width=".5" x="0" y="0" width="60" height="60"/>
  <use id="zoomplus" xlink:href="#zoomPlus" x="17" y="9" onmousedown="handleZoom(evt,'in')"/>
  <use id="zoomminus" xlink:href="#zoomMin" x="42" y="9" onmousedown="handleZoom(evt,'out')"/>
  <use id="reset" xlink:href="#resetDef" x="30" y="36" onmousedown="handleReset()"/>
   <use id="arrowup" xlink:href="#arrowUp" x="0" y="0" onmousedown="handlePan(0,-1)"/>
  <use id="arrowright" xlink:href="#arrowRight" x="0" y="0" onmousedown="handlePan(1,0)"/>
  <use id="arrowdown" xlink:href="#arrowDown" x="0" y="0" onmousedown="handlePan(0,1)"/>
  <use id="arrowleft" xlink:href="#arrowLeft" x="0" y="0" onmousedown="handlePan(-1,0)"/>
</g>
<svg viewBox="0 0 15 15" width="100%" height="30px" preserveAspectRatio="xMaxYMin meet">
 <g id="arrow_out" transform="scale(0.3 0.3)">
  <a xlink:href="classinja_1_1Lexer_aa342980e23b7a9fa633e82cf38c3c682_cgraph_org.svg" target="_base">
   <rect id="button" ry="5" rx="5" y="6" x="6" height="38" width="38"
        fill="#f2f5e9" fill-opacity="0.5" stroke="#606060" stroke-width="1.0"/>
   <path id="arrow"
     d="M 11.500037,31.436501 C 11.940474,20.09759 22.043105,11.32322 32.158766,21.979434 L 37.068811,17.246167 C 37.068811,17.246167 37.088388,32 37.088388,32 L 22.160133,31.978069 C 22.160133,31.978069 26.997745,27.140456 26.997745,27.140456 C 18.528582,18.264221 13.291696,25.230495 11.500037,31.436501 z"
     style="fill:#404040;"/>
  </a>
 </g>
</svg>

<style type='text/css'>
<![CDATA[
[data-mouse-over-selected='false'] { opacity: 0.7; }
[data-mouse-over-selected='true']  { opacity: 1.0; }
]]>
</style>
<script type="application/ecmascript"><![CDATA[
document.addEventListener('DOMContentLoaded', (event) => {
  highlightEdges();
  highlightAdjacentNodes();
});
]]></script>
</svg>
