<?xml version="1.0" encoding="UTF-8" standalone="no"?>
<!DOCTYPE svg PUBLIC "-//W3C//DTD SVG 1.1//EN"
 "http://www.w3.org/Graphics/SVG/1.1/DTD/svg11.dtd">
<!-- Generated by graphviz version 2.42.4 (0)
 -->
<!-- Title: nlohmann::json_schema::json_validator::json_validator Pages: 1 -->
<svg width="220pt" height="67pt"
 viewBox="0.00 0.00 220.00 67.00" xmlns="http://www.w3.org/2000/svg" xmlns:xlink="http://www.w3.org/1999/xlink">
<g id="graph0" class="graph" transform="scale(1 1) rotate(0) translate(4 63)">
<title>nlohmann::json_schema::json_validator::json_validator</title>
<!-- Node1 -->
<g id="Node000001" class="node">
<title>Node1</title>
<g id="a_Node000001"><a xlink:title=" ">
<polygon fill="#999999" stroke="#666666" points="212,-41 77,-41 77,0 212,0 212,-41"/>
<text text-anchor="start" x="85" y="-29" font-family="Helvetica,sans-Serif" font-size="10.00">nlohmann::json_schema</text>
<text text-anchor="start" x="85" y="-18" font-family="Helvetica,sans-Serif" font-size="10.00">::json_validator::json</text>
<text text-anchor="middle" x="144.5" y="-7" font-family="Helvetica,sans-Serif" font-size="10.00">_validator</text>
</a>
</g>
</g>
<!-- Node1&#45;&gt;Node1 -->
<g id="edge1_Node000001_Node000001" class="edge">
<title>Node1&#45;&gt;Node1</title>
<g id="a_edge1_Node000001_Node000001"><a xlink:title=" ">
<path fill="none" stroke="#63b8ff" d="M165.59,-51.32C162.3,-55.9 155.27,-59 144.5,-59 126.82,-59 119.22,-50.65 121.71,-41.1"/>
<polygon fill="#63b8ff" stroke="#63b8ff" points="169.1,-51.54 167.29,-41.1 162.19,-50.39 169.1,-51.54"/>
</a>
</g>
</g>
<!-- Node2 -->
<g id="Node000002" class="node">
<title>Node2</title>
<g id="a_Node000002"><a xlink:href="issue-243-root-default-values_8cpp.html#a840291bc02cba5474a4cb46a9b9566fe" target="_top" xlink:title=" ">
<polygon fill="white" stroke="#666666" points="41,-30 0,-30 0,-11 41,-11 41,-30"/>
<text text-anchor="middle" x="20.5" y="-18" font-family="Helvetica,sans-Serif" font-size="10.00">main</text>
</a>
</g>
</g>
<!-- Node1&#45;&gt;Node2 -->
<g id="edge2_Node000001_Node000002" class="edge">
<title>Node1&#45;&gt;Node2</title>
<g id="a_edge2_Node000001_Node000002"><a xlink:title=" ">
<path fill="none" stroke="#63b8ff" d="M66.53,-20.5C57.24,-20.5 48.47,-20.5 41.19,-20.5"/>
<polygon fill="#63b8ff" stroke="#63b8ff" points="66.79,-24 76.79,-20.5 66.79,-17 66.79,-24"/>
</a>
</g>
</g>
</g>
</svg>
