<?xml version="1.0" encoding="UTF-8" standalone="no"?>
<!DOCTYPE svg PUBLIC "-//W3C//DTD SVG 1.1//EN"
 "http://www.w3.org/Graphics/SVG/1.1/DTD/svg11.dtd">
<!-- Generated by graphviz version 14.1.2 (0)
 -->
<!-- Title: mqtt::mqttintegrator::lib::Mqtt::DelayedQueue::delayPublish Pages: 1 -->
<svg width="702pt" height="158pt"
 viewBox="0.00 0.00 702.00 158.00" xmlns="http://www.w3.org/2000/svg" xmlns:xlink="http://www.w3.org/1999/xlink">
<g id="graph0" class="graph" transform="scale(1 1) rotate(0) translate(4 153.88)">
<title>mqtt::mqttintegrator::lib::Mqtt::DelayedQueue::delayPublish</title>
<!-- Node1 -->
<g id="Node000001" class="node">
<title>Node1</title>
<g id="a_Node000001"><a xlink:title=" ">
<polygon fill="#999999" stroke="#666666" points="140.5,-91.88 0,-91.88 0,-45.62 140.5,-45.62 140.5,-91.88"/>
<text xml:space="preserve" text-anchor="start" x="8" y="-78.38" font-family="Helvetica,sans-Serif" font-size="10.00">mqtt::mqttintegrator</text>
<text xml:space="preserve" text-anchor="start" x="8" y="-65.62" font-family="Helvetica,sans-Serif" font-size="10.00">::lib::Mqtt::DelayedQueue</text>
<text xml:space="preserve" text-anchor="middle" x="70.25" y="-52.88" font-family="Helvetica,sans-Serif" font-size="10.00">::delayPublish</text>
</a>
</g>
</g>
<!-- Node2 -->
<g id="Node000002" class="node">
<title>Node2</title>
<g id="a_Node000002"><a xlink:href="classmqtt_1_1mqttintegrator_1_1lib_1_1Mqtt_1_1DelayedQueue.html#a110f0813ded3a278c42dab9337c2a723" target="_top" xlink:title=" ">
<polygon fill="white" stroke="#666666" points="317,-91.88 176.5,-91.88 176.5,-45.62 317,-45.62 317,-91.88"/>
<text xml:space="preserve" text-anchor="start" x="184.5" y="-78.38" font-family="Helvetica,sans-Serif" font-size="10.00">mqtt::mqttintegrator</text>
<text xml:space="preserve" text-anchor="start" x="184.5" y="-65.62" font-family="Helvetica,sans-Serif" font-size="10.00">::lib::Mqtt::DelayedQueue</text>
<text xml:space="preserve" text-anchor="middle" x="246.75" y="-52.88" font-family="Helvetica,sans-Serif" font-size="10.00">::armDelayTimer</text>
</a>
</g>
</g>
<!-- Node1&#45;&gt;Node2 -->
<g id="edge1_Node000001_Node000002" class="edge">
<title>Node1&#45;&gt;Node2</title>
<g id="a_edge1_Node000001_Node000002"><a xlink:title=" ">
<path fill="none" stroke="#63b8ff" d="M140.97,-68.75C148.75,-68.75 156.73,-68.75 164.63,-68.75"/>
<polygon fill="#63b8ff" stroke="#63b8ff" points="164.63,-72.25 174.63,-68.75 164.63,-65.25 164.63,-72.25"/>
</a>
</g>
</g>
<!-- Node2&#45;&gt;Node2 -->
<g id="edge2_Node000002_Node000002" class="edge">
<title>Node2&#45;&gt;Node2</title>
<g id="a_edge2_Node000002_Node000002"><a xlink:title=" ">
<path fill="none" stroke="#63b8ff" d="M213.95,-92C211.68,-101.68 222.62,-109.88 246.75,-109.88 261.08,-109.88 270.75,-106.98 275.78,-102.61"/>
<polygon fill="#63b8ff" stroke="#63b8ff" points="278.99,-104.02 279.05,-93.43 272.39,-101.68 278.99,-104.02"/>
</a>
</g>
</g>
<!-- Node3 -->
<g id="Node000003" class="node">
<title>Node3</title>
<g id="a_Node000003"><a xlink:href="classmqtt_1_1mqttintegrator_1_1lib_1_1Mqtt_1_1DelayedQueue.html#aba548ab583e35d7217448bf799d8ed36" target="_top" xlink:title=" ">
<polygon fill="white" stroke="#666666" points="682,-149.88 541.5,-149.88 541.5,-103.62 682,-103.62 682,-149.88"/>
<text xml:space="preserve" text-anchor="start" x="549.5" y="-136.38" font-family="Helvetica,sans-Serif" font-size="10.00">mqtt::mqttintegrator</text>
<text xml:space="preserve" text-anchor="start" x="549.5" y="-123.62" font-family="Helvetica,sans-Serif" font-size="10.00">::lib::Mqtt::DelayedQueue</text>
<text xml:space="preserve" text-anchor="middle" x="611.75" y="-110.88" font-family="Helvetica,sans-Serif" font-size="10.00">::empty</text>
</a>
</g>
</g>
<!-- Node2&#45;&gt;Node3 -->
<g id="edge3_Node000002_Node000003" class="edge">
<title>Node2&#45;&gt;Node3</title>
<g id="a_edge3_Node000002_Node000003"><a xlink:title=" ">
<path fill="none" stroke="#63b8ff" d="M317.47,-92.02C329.23,-95.35 341.39,-98.42 353,-100.75 411.52,-112.48 478.64,-119.04 529.71,-122.63"/>
<polygon fill="#63b8ff" stroke="#63b8ff" points="529.29,-126.11 539.5,-123.29 529.76,-119.13 529.29,-126.11"/>
</a>
</g>
</g>
<!-- Node4 -->
<g id="Node000004" class="node">
<title>Node4</title>
<g id="a_Node000004"><a xlink:href="classmqtt_1_1mqttintegrator_1_1lib_1_1Mqtt_1_1DelayedQueue.html#ad8803a587bf94d106c9a501c01ac8ea8" target="_top" xlink:title=" ">
<polygon fill="white" stroke="#666666" points="493.5,-91.88 353,-91.88 353,-45.62 493.5,-45.62 493.5,-91.88"/>
<text xml:space="preserve" text-anchor="start" x="361" y="-78.38" font-family="Helvetica,sans-Serif" font-size="10.00">mqtt::mqttintegrator</text>
<text xml:space="preserve" text-anchor="start" x="361" y="-65.62" font-family="Helvetica,sans-Serif" font-size="10.00">::lib::Mqtt::DelayedQueue</text>
<text xml:space="preserve" text-anchor="middle" x="423.25" y="-52.88" font-family="Helvetica,sans-Serif" font-size="10.00">::processDue</text>
</a>
</g>
</g>
<!-- Node2&#45;&gt;Node4 -->
<g id="edge4_Node000002_Node000004" class="edge">
<title>Node2&#45;&gt;Node4</title>
<g id="a_edge4_Node000002_Node000004"><a xlink:title=" ">
<path fill="none" stroke="#63b8ff" d="M317.47,-68.75C325.25,-68.75 333.23,-68.75 341.13,-68.75"/>
<polygon fill="#63b8ff" stroke="#63b8ff" points="341.13,-72.25 351.13,-68.75 341.13,-65.25 341.13,-72.25"/>
</a>
</g>
</g>
<!-- Node6 -->
<g id="Node000006" class="node">
<title>Node6</title>
<g id="a_Node000006"><a xlink:href="classmqtt_1_1mqttintegrator_1_1lib_1_1Mqtt_1_1DelayedQueue.html#a36b9f15ab26ef04d34228690bee7cd1a" target="_top" xlink:title=" ">
<polygon fill="white" stroke="#666666" points="692.88,-33.5 530.62,-33.5 530.62,0 692.88,0 692.88,-33.5"/>
<text xml:space="preserve" text-anchor="start" x="538.62" y="-20" font-family="Helvetica,sans-Serif" font-size="10.00">mqtt::mqttintegrator</text>
<text xml:space="preserve" text-anchor="middle" x="611.75" y="-7.25" font-family="Helvetica,sans-Serif" font-size="10.00">::lib::Mqtt::DelayedQueue::top</text>
</a>
</g>
</g>
<!-- Node2&#45;&gt;Node6 -->
<g id="edge8_Node000002_Node000006" class="edge">
<title>Node2&#45;&gt;Node6</title>
<g id="a_edge8_Node000002_Node000006"><a xlink:title=" ">
<path fill="none" stroke="#63b8ff" d="M317.42,-45.25C329.19,-41.95 341.36,-38.94 353,-36.75 407.52,-26.47 469.49,-21.46 519,-19.02"/>
<polygon fill="#63b8ff" stroke="#63b8ff" points="519,-22.52 528.82,-18.56 518.67,-15.53 519,-22.52"/>
</a>
</g>
</g>
<!-- Node4&#45;&gt;Node3 -->
<g id="edge5_Node000004_Node000003" class="edge">
<title>Node4&#45;&gt;Node3</title>
<g id="a_edge5_Node000004_Node000003"><a xlink:title=" ">
<path fill="none" stroke="#63b8ff" d="M493.96,-90.43C505.76,-94.1 518.1,-97.94 530.16,-101.69"/>
<polygon fill="#63b8ff" stroke="#63b8ff" points="529.09,-105.02 539.68,-104.65 531.17,-98.34 529.09,-105.02"/>
</a>
</g>
</g>
<!-- Node5 -->
<g id="Node000005" class="node">
<title>Node5</title>
<g id="a_Node000005"><a xlink:href="classmqtt_1_1mqttintegrator_1_1lib_1_1Mqtt_1_1DelayedQueue.html#a3f4152bf1782dacd09246c874c9b7071" target="_top" xlink:title=" ">
<polygon fill="white" stroke="#666666" points="694,-85.5 529.5,-85.5 529.5,-52 694,-52 694,-85.5"/>
<text xml:space="preserve" text-anchor="start" x="537.5" y="-72" font-family="Helvetica,sans-Serif" font-size="10.00">mqtt::mqttintegrator</text>
<text xml:space="preserve" text-anchor="middle" x="611.75" y="-59.25" font-family="Helvetica,sans-Serif" font-size="10.00">::lib::Mqtt::DelayedQueue::pop</text>
</a>
</g>
</g>
<!-- Node4&#45;&gt;Node5 -->
<g id="edge6_Node000004_Node000005" class="edge">
<title>Node4&#45;&gt;Node5</title>
<g id="a_edge6_Node000004_Node000005"><a xlink:title=" ">
<path fill="none" stroke="#63b8ff" d="M493.96,-68.75C501.77,-68.75 509.81,-68.75 517.85,-68.75"/>
<polygon fill="#63b8ff" stroke="#63b8ff" points="517.67,-72.25 527.67,-68.75 517.67,-65.25 517.67,-72.25"/>
</a>
</g>
</g>
<!-- Node4&#45;&gt;Node6 -->
<g id="edge7_Node000004_Node000006" class="edge">
<title>Node4&#45;&gt;Node6</title>
<g id="a_edge7_Node000004_Node000006"><a xlink:title=" ">
<path fill="none" stroke="#63b8ff" d="M493.96,-49.31C508.39,-45.29 523.62,-41.04 538.15,-36.99"/>
<polygon fill="#63b8ff" stroke="#63b8ff" points="538.95,-40.4 547.64,-34.35 537.07,-33.66 538.95,-40.4"/>
</a>
</g>
</g>
</g>
</svg>
