<?xml version="1.0" encoding="UTF-8" standalone="no"?>
<!DOCTYPE svg PUBLIC "-//W3C//DTD SVG 1.1//EN"
 "http://www.w3.org/Graphics/SVG/1.1/DTD/svg11.dtd">
<!-- Generated by graphviz version 2.42.4 (0)
 -->
<!-- Title: inja::FunctionStorage Pages: 1 -->
<svg width="250pt" height="336pt"
 viewBox="0.00 0.00 250.00 336.00" xmlns="http://www.w3.org/2000/svg" xmlns:xlink="http://www.w3.org/1999/xlink">
<g id="graph0" class="graph" transform="scale(1 1) rotate(0) translate(4 332)">
<title>inja::FunctionStorage</title>
<!-- Node1 -->
<g id="Node000001" class="node">
<title>Node1</title>
<g id="a_Node000001"><a xlink:title="Class for builtin functions and user&#45;defined callbacks.">
<polygon fill="#999999" stroke="transparent" points="209,-19 97,-19 97,0 209,0 209,-19"/>
<text text-anchor="start" x="101.5" y="-6.5" font-family="Helvetica,sans-Serif" font-size="10.00">inja::FunctionStorage</text>
<polygon fill="none" stroke="#666666" points="97,0 97,-19 209,-19 209,0 97,0"/>
</a>
</g>
</g>
<!-- Node2 -->
<g id="Node000002" class="node">
<title>Node2</title>
<g id="a_Node000002"><a xlink:title=" ">
<polygon fill="white" stroke="transparent" points="212,-118 94,-118 94,-66 212,-66 212,-118"/>
<text text-anchor="start" x="98.5" y="-106" font-family="Helvetica,sans-Serif" font-size="10.00">std::map&lt; std::pair</text>
<text text-anchor="start" x="98.5" y="-95" font-family="Helvetica,sans-Serif" font-size="10.00">&lt; std::string, int &gt;</text>
<text text-anchor="start" x="98.5" y="-84" font-family="Helvetica,sans-Serif" font-size="10.00">, inja::FunctionStorage</text>
<text text-anchor="start" x="112" y="-73" font-family="Helvetica,sans-Serif" font-size="10.00">::FunctionData &gt;</text>
<polygon fill="none" stroke="#666666" points="94,-66 94,-118 212,-118 212,-66 94,-66"/>
</a>
</g>
</g>
<!-- Node2&#45;&gt;Node1 -->
<g id="edge1_Node000001_Node000002" class="edge">
<title>Node2&#45;&gt;Node1</title>
<g id="a_edge1_Node000001_Node000002"><a xlink:title=" ">
<path fill="none" stroke="#63b8ff" d="M153,-65.97C153,-54.93 153,-42.1 153,-31.56"/>
<polygon fill="none" stroke="#63b8ff" points="153,-31.37 149,-25.37 153,-19.37 157,-25.37 153,-31.37"/>
</a>
</g>
<text text-anchor="middle" x="197.5" y="-40" font-family="Helvetica,sans-Serif" font-size="10.00" fill="grey"> &#45;function_storage</text>
</g>
<!-- Node3 -->
<g id="Node000003" class="node">
<title>Node3</title>
<g id="a_Node000003"><a xlink:title=" ">
<polygon fill="white" stroke="transparent" points="112,-195 0,-195 0,-165 112,-165 112,-195"/>
<text text-anchor="start" x="4.5" y="-183" font-family="Helvetica,sans-Serif" font-size="10.00">std::pair&lt; std::string,</text>
<text text-anchor="start" x="42" y="-172" font-family="Helvetica,sans-Serif" font-size="10.00"> int &gt;</text>
<polygon fill="none" stroke="#666666" points="0,-165 0,-195 112,-195 112,-165 0,-165"/>
</a>
</g>
</g>
<!-- Node3&#45;&gt;Node2 -->
<g id="edge2_Node000002_Node000003" class="edge">
<title>Node3&#45;&gt;Node2</title>
<g id="a_edge2_Node000002_Node000003"><a xlink:title=" ">
<path fill="none" stroke="#63b8ff" d="M72.02,-164.8C83.87,-154.29 100.51,-139.53 115.63,-126.13"/>
<polygon fill="none" stroke="#63b8ff" points="115.81,-125.97 117.65,-119 124.79,-118.01 122.96,-124.98 115.81,-125.97"/>
</a>
</g>
<text text-anchor="middle" x="122" y="-139" font-family="Helvetica,sans-Serif" font-size="10.00" fill="grey"> +keys</text>
</g>
<!-- Node4 -->
<g id="Node000004" class="node">
<title>Node4</title>
<g id="a_Node000004"><a xlink:title=" ">
<polygon fill="white" stroke="transparent" points="85,-261 27,-261 27,-242 85,-242 85,-261"/>
<text text-anchor="start" x="31.5" y="-248.5" font-family="Helvetica,sans-Serif" font-size="10.00">std::string</text>
<polygon fill="none" stroke="#666666" points="27,-242 27,-261 85,-261 85,-242 27,-242"/>
</a>
</g>
</g>
<!-- Node4&#45;&gt;Node3 -->
<g id="edge3_Node000003_Node000004" class="edge">
<title>Node4&#45;&gt;Node3</title>
<g id="a_edge3_Node000003_Node000004"><a xlink:title=" ">
<path fill="none" stroke="#63b8ff" d="M56,-241.98C56,-233.41 56,-219.75 56,-207.52"/>
<polygon fill="none" stroke="#63b8ff" points="56,-207.14 52,-201.14 56,-195.14 60,-201.14 56,-207.14"/>
</a>
</g>
<text text-anchor="middle" x="85" y="-216" font-family="Helvetica,sans-Serif" font-size="10.00" fill="grey"> +first_type</text>
</g>
<!-- Node5 -->
<g id="Node000005" class="node">
<title>Node5</title>
<g id="a_Node000005"><a xlink:title=" ">
<polygon fill="white" stroke="transparent" points="104,-328 8,-328 8,-298 104,-298 104,-328"/>
<text text-anchor="start" x="12" y="-316" font-family="Helvetica,sans-Serif" font-size="10.00">std::basic_string&lt;</text>
<text text-anchor="start" x="37.5" y="-305" font-family="Helvetica,sans-Serif" font-size="10.00"> Char &gt;</text>
<polygon fill="none" stroke="#666666" points="8,-298 8,-328 104,-328 104,-298 8,-298"/>
</a>
</g>
</g>
<!-- Node5&#45;&gt;Node4 -->
<g id="edge4_Node000004_Node000005" class="edge">
<title>Node5&#45;&gt;Node4</title>
<g id="a_edge4_Node000004_Node000005"><a xlink:title=" ">
<path fill="none" stroke="#63b8ff" d="M56,-287.79C56,-278.36 56,-268.15 56,-261.16"/>
<polygon fill="none" stroke="#63b8ff" points="52.5,-287.9 56,-297.9 59.5,-287.9 52.5,-287.9"/>
</a>
</g>
</g>
<!-- Node6 -->
<g id="Node000006" class="node">
<title>Node6</title>
<g id="a_Node000006"><a xlink:href="structinja_1_1FunctionStorage_1_1FunctionData.html" target="_top" xlink:title=" ">
<polygon fill="white" stroke="transparent" points="242,-195 130,-195 130,-165 242,-165 242,-195"/>
<text text-anchor="start" x="134.5" y="-183" font-family="Helvetica,sans-Serif" font-size="10.00">inja::FunctionStorage</text>
<text text-anchor="start" x="150.5" y="-172" font-family="Helvetica,sans-Serif" font-size="10.00">::FunctionData</text>
<polygon fill="none" stroke="#666666" points="130,-165 130,-195 242,-195 242,-165 130,-165"/>
</a>
</g>
</g>
<!-- Node6&#45;&gt;Node2 -->
<g id="edge5_Node000002_Node000006" class="edge">
<title>Node6&#45;&gt;Node2</title>
<g id="a_edge5_Node000002_Node000006"><a xlink:title=" ">
<path fill="none" stroke="#63b8ff" d="M180.55,-164.8C176.86,-155.18 171.81,-142.01 167.03,-129.57"/>
<polygon fill="none" stroke="#63b8ff" points="166.9,-129.21 161.01,-125.04 162.6,-118.01 168.48,-122.18 166.9,-129.21"/>
</a>
</g>
<text text-anchor="middle" x="202" y="-139" font-family="Helvetica,sans-Serif" font-size="10.00" fill="grey"> +elements</text>
</g>
</g>
</svg>
