<?xml version="1.0" encoding="UTF-8" standalone="no"?>
<!DOCTYPE svg PUBLIC "-//W3C//DTD SVG 1.1//EN"
 "http://www.w3.org/Graphics/SVG/1.1/DTD/svg11.dtd">
<!-- Generated by graphviz version 14.1.1 (0)
 -->
<!-- Title: mqtt::bridge::lib::Broker Pages: 1 -->
<!--zoomable 651 -->

<svg id="main" version="1.1" xmlns="http://www.w3.org/2000/svg" xmlns:xlink="http://www.w3.org/1999/xlink" xml:space="preserve" onload="init(evt)">

<style type="text/css"><![CDATA[
.node, .edge {opacity: 0.7;}
.node.selected, .edge.selected {opacity: 1;}
.edge:hover path { stroke: red; }
.edge:hover polygon { stroke: red; fill: red; }
]]></style>

<defs>
  <circle id="rim" cx="0" cy="0" r="7"/>
  <circle id="rim2" cx="0" cy="0" r="3.5"/>
  <g id="zoomPlus">
    <use xlink:href="#rim" fill="#404040"><set attributeName="fill" to="#808080" begin="zoomplus.mouseover" end="zoomplus.mouseout"/></use>
    <path d="M-4,0h8M0,-4v8" fill="none" stroke="white" stroke-width="1.5" pointer-events="none"/>
  </g>
  <g id="zoomMin">
    <use xlink:href="#rim" fill="#404040"><set attributeName="fill" to="#808080" begin="zoomminus.mouseover" end="zoomminus.mouseout"/></use>
    <path d="M-4,0h8" fill="none" stroke="white" stroke-width="1.5" pointer-events="none"/>
  </g>
  <g id="arrowUp" transform="translate(30 24)">
    <use xlink:href="#rim"/>
    <path pointer-events="none" fill="none" stroke="white" stroke-width="1.5" d="M0,-3.0v7 M-2.5,-0.5L0,-3.0L2.5,-0.5"/>
  </g>
  <g id="arrowRight" transform="rotate(90) translate(36 -43)">
    <use xlink:href="#rim"/>
    <path pointer-events="none" fill="none" stroke="white" stroke-width="1.5" d="M0,-3.0v7 M-2.5,-0.5L0,-3.0L2.5,-0.5"/>
  </g>
  <g id="arrowDown" transform="rotate(180) translate(-30 -48)">
    <use xlink:href="#rim"/>
    <path pointer-events="none" fill="none" stroke="white" stroke-width="1.5" d="M0,-3.0v7 M-2.5,-0.5L0,-3.0L2.5,-0.5"/>
  </g>
  <g id="arrowLeft" transform="rotate(270) translate(-36 17)">
    <use xlink:href="#rim"/>
    <path pointer-events="none" fill="none" stroke="white" stroke-width="1.5" d="M0,-3.0v7 M-2.5,-0.5L0,-3.0L2.5,-0.5"/>
  </g>
  <g id="resetDef">
    <use xlink:href="#rim2" fill="#404040"><set attributeName="fill" to="#808080" begin="reset.mouseover" end="reset.mouseout"/></use>
  </g>
</defs>
<script type="application/ecmascript">
var viewWidth = 289;
var viewHeight = 651;
var sectionId = 'dynsection-0';
</script>
<script type="application/ecmascript" xlink:href="svg.min.js"/>
<svg id="graph" class="graph">
<g id="viewport">
<title>mqtt::bridge::lib::Broker</title>
<!-- Node1 -->
<g id="Node000001" class="node">
<title>Node1</title>
<g id="a_Node000001"><a xlink:title=" ">
<polygon fill="#999999" stroke="none" points="150.88,-300.25 58.88,-300.25 58.88,-266.75 150.88,-266.75 150.88,-300.25"/>
<text xml:space="preserve" text-anchor="start" x="62.88" y="-286.75" font-family="Helvetica,sans-Serif" font-size="10.00">mqtt::bridge::lib::</text>
<text xml:space="preserve" text-anchor="start" x="89.12" y="-274" font-family="Helvetica,sans-Serif" font-size="10.00">Broker</text>
<polygon fill="none" stroke="#666666" points="58.88,-266.75 58.88,-300.25 150.88,-300.25 150.88,-266.75 58.88,-266.75"/>
</a>
</g>
</g>
<!-- Node6 -->
<g id="Node000006" class="node">
<title>Node6</title>
<g id="a_Node000006"><a xlink:href="classmqtt_1_1bridge_1_1lib_1_1Mqtt.html" target="_top" xlink:title=" ">
<polygon fill="white" stroke="none" points="243.12,-204.62 128.62,-204.62 128.62,-183.88 243.12,-183.88 243.12,-204.62"/>
<text xml:space="preserve" text-anchor="start" x="132.62" y="-191.12" font-family="Helvetica,sans-Serif" font-size="10.00">mqtt::bridge::lib::Mqtt</text>
<polygon fill="none" stroke="#666666" points="128.62,-183.88 128.62,-204.62 243.12,-204.62 243.12,-183.88 128.62,-183.88"/>
</a>
</g>
</g>
<!-- Node1&#45;&gt;Node6 -->
<g id="edge7_Node000006_Node000001" class="edge">
<title>Node1&#45;&gt;Node6</title>
<g id="a_edge7_Node000006_Node000001"><a xlink:title=" ">
<path fill="none" stroke="#63b8ff" d="M119.36,-266.9C133.24,-251.94 154.21,-229.36 168.88,-213.56"/>
<polygon fill="none" stroke="#63b8ff" points="168.69,-213.76 169.84,-206.64 176.86,-204.96 175.71,-212.08 168.69,-213.76"/>
</a>
</g>
<text xml:space="preserve" text-anchor="start" x="155.63" y="-236.25" font-family="Helvetica,sans-Serif" font-size="10.00" fill="grey">&#45;broker</text>
</g>
<!-- Node2 -->
<g id="Node000002" class="node">
<title>Node2</title>
<g id="a_Node000002"><a xlink:href="classmqtt_1_1bridge_1_1lib_1_1Bridge.html" target="_top" xlink:title=" ">
<polygon fill="white" stroke="none" points="146.88,-33.5 54.88,-33.5 54.88,0 146.88,0 146.88,-33.5"/>
<text xml:space="preserve" text-anchor="start" x="58.88" y="-20" font-family="Helvetica,sans-Serif" font-size="10.00">mqtt::bridge::lib::</text>
<text xml:space="preserve" text-anchor="start" x="85.12" y="-7.25" font-family="Helvetica,sans-Serif" font-size="10.00">Bridge</text>
<polygon fill="none" stroke="#666666" points="54.88,0 54.88,-33.5 146.88,-33.5 146.88,0 54.88,0"/>
</a>
</g>
</g>
<!-- Node2&#45;&gt;Node1 -->
<g id="edge1_Node000001_Node000002" class="edge">
<title>Node2&#45;&gt;Node1</title>
<g id="a_edge1_Node000001_Node000002"><a xlink:title=" ">
<path fill="none" stroke="#63b8ff" d="M101.11,-33.17C101.76,-76.27 103.61,-198.46 104.45,-254.18"/>
<polygon fill="none" stroke="#63b8ff" points="104.45,-254.22 108.54,-260.16 104.63,-266.22 100.54,-260.28 104.45,-254.22"/>
</a>
</g>
<text xml:space="preserve" text-anchor="start" x="105.97" y="-146" font-family="Helvetica,sans-Serif" font-size="10.00" fill="grey">&#45;bridge</text>
</g>
<!-- Node3 -->
<g id="Node000003" class="node">
<title>Node3</title>
<g id="a_Node000003"><a xlink:title=" ">
<polygon fill="white" stroke="none" points="76.25,-566.38 19.5,-566.38 19.5,-545.62 76.25,-545.62 76.25,-566.38"/>
<text xml:space="preserve" text-anchor="start" x="23.5" y="-552.88" font-family="Helvetica,sans-Serif" font-size="10.00">std::string</text>
<polygon fill="none" stroke="#666666" points="19.5,-545.62 19.5,-566.38 76.25,-566.38 76.25,-545.62 19.5,-545.62"/>
</a>
</g>
</g>
<!-- Node3&#45;&gt;Node1 -->
<g id="edge8_Node000001_Node000003" class="edge">
<title>Node3&#45;&gt;Node1</title>
<g id="a_edge8_Node000001_Node000003"><a xlink:title=" ">
<path fill="none" stroke="#63b8ff" d="M47.63,-545.74C46.72,-507.13 44.71,-359.06 65.38,-318.25 66.96,-315.11 68.98,-312.15 71.27,-309.38"/>
<polygon fill="none" stroke="#63b8ff" points="71.28,-309.36 72.68,-302.29 79.75,-300.87 78.35,-307.94 71.28,-309.36"/>
</a>
</g>
<text xml:space="preserve" text-anchor="start" x="68.38" y="-508.75" font-family="Helvetica,sans-Serif" font-size="10.00" fill="grey">&#45;clientId</text>
<text xml:space="preserve" text-anchor="start" x="68.38" y="-492" font-family="Helvetica,sans-Serif" font-size="10.00" fill="grey">&#45;encryption</text>
<text xml:space="preserve" text-anchor="start" x="68.38" y="-475.25" font-family="Helvetica,sans-Serif" font-size="10.00" fill="grey">&#45;instanceName</text>
<text xml:space="preserve" text-anchor="start" x="68.38" y="-458.5" font-family="Helvetica,sans-Serif" font-size="10.00" fill="grey">&#45;password</text>
<text xml:space="preserve" text-anchor="start" x="68.38" y="-441.75" font-family="Helvetica,sans-Serif" font-size="10.00" fill="grey">&#45;prefix</text>
<text xml:space="preserve" text-anchor="start" x="68.38" y="-425" font-family="Helvetica,sans-Serif" font-size="10.00" fill="grey">&#45;protocol</text>
<text xml:space="preserve" text-anchor="start" x="68.38" y="-408.25" font-family="Helvetica,sans-Serif" font-size="10.00" fill="grey">&#45;sessionStoreFile</text>
<text xml:space="preserve" text-anchor="start" x="68.38" y="-391.5" font-family="Helvetica,sans-Serif" font-size="10.00" fill="grey">  Name</text>
<text xml:space="preserve" text-anchor="start" x="68.38" y="-374.75" font-family="Helvetica,sans-Serif" font-size="10.00" fill="grey">&#45;transport</text>
<text xml:space="preserve" text-anchor="start" x="68.38" y="-358" font-family="Helvetica,sans-Serif" font-size="10.00" fill="grey">&#45;username</text>
<text xml:space="preserve" text-anchor="start" x="68.38" y="-341.25" font-family="Helvetica,sans-Serif" font-size="10.00" fill="grey">&#45;willMessage</text>
<text xml:space="preserve" text-anchor="start" x="68.38" y="-324.5" font-family="Helvetica,sans-Serif" font-size="10.00" fill="grey"> &#160;...</text>
</g>
<!-- Node3&#45;&gt;Node2 -->
<g id="edge2_Node000002_Node000003" class="edge">
<title>Node3&#45;&gt;Node2</title>
<g id="a_edge2_Node000002_Node000003"><a xlink:title=" ">
<path fill="none" stroke="#63b8ff" d="M46.86,-545.67C43.2,-511.11 30.88,-387.08 30.88,-284.5 30.88,-284.5 30.88,-284.5 30.88,-104 30.88,-78.78 49.14,-56.82 67.02,-41.37"/>
<polygon fill="none" stroke="#63b8ff" points="66.75,-41.58 68.9,-34.7 76.08,-34.04 73.93,-40.92 66.75,-41.58"/>
</a>
</g>
<text xml:space="preserve" text-anchor="start" x="33.88" y="-199.5" font-family="Helvetica,sans-Serif" font-size="10.00" fill="grey">&#45;name</text>
<text xml:space="preserve" text-anchor="start" x="33.88" y="-182.75" font-family="Helvetica,sans-Serif" font-size="10.00" fill="grey">&#45;prefix</text>
</g>
<!-- Node4 -->
<g id="Node000004" class="node">
<title>Node4</title>
<g id="a_Node000004"><a xlink:title=" ">
<polygon fill="white" stroke="none" points="95.75,-643.25 0,-643.25 0,-609.75 95.75,-609.75 95.75,-643.25"/>
<text xml:space="preserve" text-anchor="start" x="4" y="-629.75" font-family="Helvetica,sans-Serif" font-size="10.00">std::basic_string&lt;</text>
<text xml:space="preserve" text-anchor="start" x="29.5" y="-617" font-family="Helvetica,sans-Serif" font-size="10.00"> Char &gt;</text>
<polygon fill="none" stroke="#666666" points="0,-609.75 0,-643.25 95.75,-643.25 95.75,-609.75 0,-609.75"/>
</a>
</g>
</g>
<!-- Node4&#45;&gt;Node3 -->
<g id="edge3_Node000003_Node000004" class="edge">
<title>Node4&#45;&gt;Node3</title>
<g id="a_edge3_Node000003_Node000004"><a xlink:title=" ">
<path fill="none" stroke="#63b8ff" d="M47.88,-598.7C47.88,-587.28 47.88,-574.69 47.88,-566.37"/>
<polygon fill="none" stroke="#63b8ff" points="44.38,-598.44 47.88,-608.44 51.38,-598.44 44.38,-598.44"/>
</a>
</g>
</g>
<!-- Node5 -->
<g id="Node000005" class="node">
<title>Node5</title>
<g id="a_Node000005"><a xlink:title=" ">
<polygon fill="white" stroke="none" points="240.25,-121.75 129.5,-121.75 129.5,-88.25 240.25,-88.25 240.25,-121.75"/>
<text xml:space="preserve" text-anchor="start" x="133.5" y="-108.25" font-family="Helvetica,sans-Serif" font-size="10.00">std::list&lt; const mqtt</text>
<text xml:space="preserve" text-anchor="start" x="133.5" y="-95.5" font-family="Helvetica,sans-Serif" font-size="10.00">::bridge::lib::Mqtt * &gt;</text>
<polygon fill="none" stroke="#666666" points="129.5,-88.25 129.5,-121.75 240.25,-121.75 240.25,-88.25 129.5,-88.25"/>
</a>
</g>
</g>
<!-- Node5&#45;&gt;Node2 -->
<g id="edge4_Node000002_Node000005" class="edge">
<title>Node5&#45;&gt;Node2</title>
<g id="a_edge4_Node000002_Node000005"><a xlink:title=" ">
<path fill="none" stroke="#63b8ff" d="M169.86,-88.58C157.39,-75.78 139.43,-57.34 124.96,-42.48"/>
<polygon fill="none" stroke="#63b8ff" points="125.05,-42.57 118,-41.06 116.67,-33.97 123.73,-35.48 125.05,-42.57"/>
</a>
</g>
<text xml:space="preserve" text-anchor="start" x="153.4" y="-57.75" font-family="Helvetica,sans-Serif" font-size="10.00" fill="grey">&#45;mqttList</text>
</g>
<!-- Node6&#45;&gt;Node5 -->
<g id="edge5_Node000005_Node000006" class="edge">
<title>Node6&#45;&gt;Node5</title>
<g id="a_edge5_Node000005_Node000006"><a xlink:title=" ">
<path fill="none" stroke="#63b8ff" d="M185.77,-183.91C185.63,-172.25 185.4,-151.74 185.2,-134.7"/>
<polygon fill="none" stroke="#63b8ff" points="185.2,-134.63 181.13,-128.68 185.07,-122.63 189.13,-128.59 185.2,-134.63"/>
</a>
</g>
<text xml:space="preserve" text-anchor="start" x="188.46" y="-146" font-family="Helvetica,sans-Serif" font-size="10.00" fill="grey">+elements</text>
</g>
<!-- Node7 -->
<g id="Node000007" class="node">
<title>Node7</title>
<g id="a_Node000007"><a xlink:title=" ">
<polygon fill="white" stroke="none" points="280.62,-293.88 169.12,-293.88 169.12,-273.12 280.62,-273.12 280.62,-293.88"/>
<text xml:space="preserve" text-anchor="start" x="173.12" y="-280.38" font-family="Helvetica,sans-Serif" font-size="10.00">iot::mqtt::client::Mqtt</text>
<polygon fill="none" stroke="#666666" points="169.12,-273.12 169.12,-293.88 280.62,-293.88 280.62,-273.12 169.12,-273.12"/>
</a>
</g>
</g>
<!-- Node7&#45;&gt;Node6 -->
<g id="edge6_Node000006_Node000007" class="edge">
<title>Node7&#45;&gt;Node6</title>
<g id="a_edge6_Node000006_Node000007"><a xlink:title=" ">
<path fill="none" stroke="#63b8ff" d="M216.07,-262.81C207.93,-244.6 196.19,-218.32 190.02,-204.52"/>
<polygon fill="none" stroke="#63b8ff" points="212.81,-264.08 220.08,-271.78 219.2,-261.22 212.81,-264.08"/>
</a>
</g>
</g>
<!-- Node8 -->
<g id="Node000008" class="node">
<title>Node8</title>
<g id="a_Node000008"><a xlink:title=" ">
<polygon fill="white" stroke="none" points="224.5,-572.75 127.25,-572.75 127.25,-539.25 224.5,-539.25 224.5,-572.75"/>
<text xml:space="preserve" text-anchor="start" x="131.25" y="-559.25" font-family="Helvetica,sans-Serif" font-size="10.00">std::list&lt; iot::mqtt</text>
<text xml:space="preserve" text-anchor="start" x="154.88" y="-546.5" font-family="Helvetica,sans-Serif" font-size="10.00">::Topic &gt;</text>
<polygon fill="none" stroke="#666666" points="127.25,-539.25 127.25,-572.75 224.5,-572.75 224.5,-539.25 127.25,-539.25"/>
</a>
</g>
</g>
<!-- Node8&#45;&gt;Node1 -->
<g id="edge9_Node000001_Node000008" class="edge">
<title>Node8&#45;&gt;Node1</title>
<g id="a_edge9_Node000001_Node000008"><a xlink:title=" ">
<path fill="none" stroke="#63b8ff" d="M178.65,-539.54C184.97,-499.68 196.77,-391.43 153.88,-318.25 151.76,-314.64 149.09,-311.33 146.09,-308.31"/>
<polygon fill="none" stroke="#63b8ff" points="146.22,-308.42 139.05,-307.63 137.02,-300.71 144.19,-301.5 146.22,-308.42"/>
</a>
</g>
<text xml:space="preserve" text-anchor="start" x="188.06" y="-416.62" font-family="Helvetica,sans-Serif" font-size="10.00" fill="grey">&#45;topics</text>
</g>
</g>
</svg>

<g id="navigator" transform="translate(0 0)" fill="#404254">
  <rect fill="#f2f5e9" fill-opacity="0.5" stroke="#606060" stroke-width=".5" x="0" y="0" width="60" height="60"/>
  <use id="zoomplus" xlink:href="#zoomPlus" x="17" y="9" onmousedown="handleZoom(evt,'in')"/>
  <use id="zoomminus" xlink:href="#zoomMin" x="42" y="9" onmousedown="handleZoom(evt,'out')"/>
  <use id="reset" xlink:href="#resetDef" x="30" y="36" onmousedown="handleReset()"/>
   <use id="arrowup" xlink:href="#arrowUp" x="0" y="0" onmousedown="handlePan(0,-1)"/>
  <use id="arrowright" xlink:href="#arrowRight" x="0" y="0" onmousedown="handlePan(1,0)"/>
  <use id="arrowdown" xlink:href="#arrowDown" x="0" y="0" onmousedown="handlePan(0,1)"/>
  <use id="arrowleft" xlink:href="#arrowLeft" x="0" y="0" onmousedown="handlePan(-1,0)"/>
</g>
<svg viewBox="0 0 15 15" width="100%" height="30px" preserveAspectRatio="xMaxYMin meet">
 <g id="arrow_out" transform="scale(0.3 0.3)">
  <a xlink:href="classmqtt_1_1bridge_1_1lib_1_1Broker__coll__graph_org.svg" target="_base">
   <rect id="button" ry="5" rx="5" y="6" x="6" height="38" width="38"
        fill="#f2f5e9" fill-opacity="0.5" stroke="#606060" stroke-width="1.0"/>
   <path id="arrow"
     d="M 11.500037,31.436501 C 11.940474,20.09759 22.043105,11.32322 32.158766,21.979434 L 37.068811,17.246167 C 37.068811,17.246167 37.088388,32 37.088388,32 L 22.160133,31.978069 C 22.160133,31.978069 26.997745,27.140456 26.997745,27.140456 C 18.528582,18.264221 13.291696,25.230495 11.500037,31.436501 z"
     style="fill:#404040;"/>
  </a>
 </g>
</svg>

<style type='text/css'>
<![CDATA[
[data-mouse-over-selected='false'] { opacity: 0.7; }
[data-mouse-over-selected='true']  { opacity: 1.0; }
]]>
</style>
<script type="application/ecmascript"><![CDATA[
document.addEventListener('DOMContentLoaded', (event) => {
  highlightEdges();
  highlightAdjacentNodes();
});
]]></script>
</svg>
