<?xml version="1.0" encoding="UTF-8" standalone="no"?>
<!DOCTYPE svg PUBLIC "-//W3C//DTD SVG 1.1//EN"
 "http://www.w3.org/Graphics/SVG/1.1/DTD/svg11.dtd">
<!-- Generated by graphviz version 14.1.2 (0)
 -->
<!-- Title: mqtt::mqttstore::lib::MariaDbStorage::isSafeIdentifier Pages: 1 -->
<!--zoomable 170 -->

<svg id="main" version="1.1" xmlns="http://www.w3.org/2000/svg" xmlns:xlink="http://www.w3.org/1999/xlink" xml:space="preserve" onload="init(evt)">

<style type="text/css"><![CDATA[
.node, .edge {opacity: 0.7;}
.node.selected, .edge.selected {opacity: 1;}
.edge:hover path { stroke: red; }
.edge:hover polygon { stroke: red; fill: red; }
]]></style>

<defs>
  <circle id="rim" cx="0" cy="0" r="7"/>
  <circle id="rim2" cx="0" cy="0" r="3.5"/>
  <g id="zoomPlus">
    <use xlink:href="#rim" fill="#404040"><set attributeName="fill" to="#808080" begin="zoomplus.mouseover" end="zoomplus.mouseout"/></use>
    <path d="M-4,0h8M0,-4v8" fill="none" stroke="white" stroke-width="1.5" pointer-events="none"/>
  </g>
  <g id="zoomMin">
    <use xlink:href="#rim" fill="#404040"><set attributeName="fill" to="#808080" begin="zoomminus.mouseover" end="zoomminus.mouseout"/></use>
    <path d="M-4,0h8" fill="none" stroke="white" stroke-width="1.5" pointer-events="none"/>
  </g>
  <g id="arrowUp" transform="translate(30 24)">
    <use xlink:href="#rim"/>
    <path pointer-events="none" fill="none" stroke="white" stroke-width="1.5" d="M0,-3.0v7 M-2.5,-0.5L0,-3.0L2.5,-0.5"/>
  </g>
  <g id="arrowRight" transform="rotate(90) translate(36 -43)">
    <use xlink:href="#rim"/>
    <path pointer-events="none" fill="none" stroke="white" stroke-width="1.5" d="M0,-3.0v7 M-2.5,-0.5L0,-3.0L2.5,-0.5"/>
  </g>
  <g id="arrowDown" transform="rotate(180) translate(-30 -48)">
    <use xlink:href="#rim"/>
    <path pointer-events="none" fill="none" stroke="white" stroke-width="1.5" d="M0,-3.0v7 M-2.5,-0.5L0,-3.0L2.5,-0.5"/>
  </g>
  <g id="arrowLeft" transform="rotate(270) translate(-36 17)">
    <use xlink:href="#rim"/>
    <path pointer-events="none" fill="none" stroke="white" stroke-width="1.5" d="M0,-3.0v7 M-2.5,-0.5L0,-3.0L2.5,-0.5"/>
  </g>
  <g id="resetDef">
    <use xlink:href="#rim2" fill="#404040"><set attributeName="fill" to="#808080" begin="reset.mouseover" end="reset.mouseout"/></use>
  </g>
</defs>
<script type="application/ecmascript">
var viewWidth = 802;
var viewHeight = 170;
var sectionId = 'dynsection-8';
</script>
<script type="application/ecmascript" xlink:href="svg.min.js"/>
<svg id="graph" class="graph">
<g id="viewport">
<title>mqtt::mqttstore::lib::MariaDbStorage::isSafeIdentifier</title>
<!-- Node1 -->
<g id="Node000001" class="node">
<title>Node1</title>
<g id="a_Node000001"><a xlink:title=" ">
<polygon fill="#999999" stroke="#666666" points="793.75,-97.88 612.75,-97.88 612.75,-64.38 793.75,-64.38 793.75,-97.88"/>
<text xml:space="preserve" text-anchor="start" x="620.75" y="-84.38" font-family="Helvetica,sans-Serif" font-size="10.00">mqtt::mqttstore::lib</text>
<text xml:space="preserve" text-anchor="middle" x="703.25" y="-71.62" font-family="Helvetica,sans-Serif" font-size="10.00">::MariaDbStorage::isSafeIdentifier</text>
</a>
</g>
</g>
<!-- Node2 -->
<g id="Node000002" class="node">
<title>Node2</title>
<g id="a_Node000002"><a xlink:href="classmqtt_1_1mqttstore_1_1lib_1_1MariaDbStorage.html#a041dfa0b47875896dc2e38c2b2042ad7" target="_top" xlink:title=" ">
<polygon fill="white" stroke="#666666" points="576.75,-97.88 398,-97.88 398,-64.38 576.75,-64.38 576.75,-97.88"/>
<text xml:space="preserve" text-anchor="start" x="406" y="-84.38" font-family="Helvetica,sans-Serif" font-size="10.00">mqtt::mqttstore::lib</text>
<text xml:space="preserve" text-anchor="middle" x="487.38" y="-71.62" font-family="Helvetica,sans-Serif" font-size="10.00">::MariaDbStorage::quoteIdentifier</text>
</a>
</g>
</g>
<!-- Node1&#45;&gt;Node2 -->
<g id="edge1_Node000001_Node000002" class="edge">
<title>Node1&#45;&gt;Node2</title>
<g id="a_edge1_Node000001_Node000002"><a xlink:title=" ">
<path fill="none" stroke="#63b8ff" d="M601.21,-81.12C593.2,-81.12 585.15,-81.12 577.23,-81.12"/>
<polygon fill="#63b8ff" stroke="#63b8ff" points="600.96,-84.63 610.96,-81.13 600.96,-77.63 600.96,-84.63"/>
</a>
</g>
</g>
<!-- Node3 -->
<g id="Node000003" class="node">
<title>Node3</title>
<g id="a_Node000003"><a xlink:href="classmqtt_1_1mqttstore_1_1lib_1_1MariaDbStorage.html#ab11126ca2866b7dd2ed1ac5b7749b782" target="_top" xlink:title=" ">
<polygon fill="white" stroke="#666666" points="354.5,-162.25 175,-162.25 175,-116 354.5,-116 354.5,-162.25"/>
<text xml:space="preserve" text-anchor="start" x="183" y="-148.75" font-family="Helvetica,sans-Serif" font-size="10.00">mqtt::mqttstore::lib</text>
<text xml:space="preserve" text-anchor="start" x="183" y="-136" font-family="Helvetica,sans-Serif" font-size="10.00">::MariaDbStorage::buildProjection</text>
<text xml:space="preserve" text-anchor="middle" x="264.75" y="-123.25" font-family="Helvetica,sans-Serif" font-size="10.00">InsertSql</text>
</a>
</g>
</g>
<!-- Node2&#45;&gt;Node3 -->
<g id="edge2_Node000002_Node000003" class="edge">
<title>Node2&#45;&gt;Node3</title>
<g id="a_edge2_Node000002_Node000003"><a xlink:title=" ">
<path fill="none" stroke="#63b8ff" d="M409.64,-101.3C391.94,-105.95 372.96,-110.94 354.78,-115.72"/>
<polygon fill="#63b8ff" stroke="#63b8ff" points="410.53,-104.68 419.31,-98.75 408.75,-97.91 410.53,-104.68"/>
</a>
</g>
</g>
<!-- Node4 -->
<g id="Node000004" class="node">
<title>Node4</title>
<g id="a_Node000004"><a xlink:href="classmqtt_1_1mqttstore_1_1lib_1_1MariaDbStorage.html#a1ddca7b84419ddc7192a6518a83876d3" target="_top" xlink:title=" ">
<polygon fill="white" stroke="#666666" points="362,-97.88 167.5,-97.88 167.5,-64.38 362,-64.38 362,-97.88"/>
<text xml:space="preserve" text-anchor="start" x="175.5" y="-84.38" font-family="Helvetica,sans-Serif" font-size="10.00">mqtt::mqttstore::lib</text>
<text xml:space="preserve" text-anchor="middle" x="264.75" y="-71.62" font-family="Helvetica,sans-Serif" font-size="10.00">::MariaDbStorage::buildRawInsertSql</text>
</a>
</g>
</g>
<!-- Node2&#45;&gt;Node4 -->
<g id="edge3_Node000002_Node000004" class="edge">
<title>Node2&#45;&gt;Node4</title>
<g id="a_edge3_Node000002_Node000004"><a xlink:title=" ">
<path fill="none" stroke="#63b8ff" d="M386.35,-81.12C378.35,-81.12 370.27,-81.12 362.3,-81.12"/>
<polygon fill="#63b8ff" stroke="#63b8ff" points="386.08,-84.63 396.08,-81.13 386.08,-77.63 386.08,-84.63"/>
</a>
</g>
</g>
<!-- Node6 -->
<g id="Node000006" class="node">
<title>Node6</title>
<g id="a_Node000006"><a xlink:href="classmqtt_1_1mqttstore_1_1lib_1_1MariaDbStorage.html#a4fe98b8e664ae380092e746ed4cfe451" target="_top" xlink:title=" ">
<polygon fill="white" stroke="#666666" points="344,-46.25 185.5,-46.25 185.5,0 344,0 344,-46.25"/>
<text xml:space="preserve" text-anchor="start" x="193.5" y="-32.75" font-family="Helvetica,sans-Serif" font-size="10.00">mqtt::mqttstore::lib</text>
<text xml:space="preserve" text-anchor="start" x="193.5" y="-20" font-family="Helvetica,sans-Serif" font-size="10.00">::MariaDbStorage::createRaw</text>
<text xml:space="preserve" text-anchor="middle" x="264.75" y="-7.25" font-family="Helvetica,sans-Serif" font-size="10.00">Table</text>
</a>
</g>
</g>
<!-- Node2&#45;&gt;Node6 -->
<g id="edge5_Node000002_Node000006" class="edge">
<title>Node2&#45;&gt;Node6</title>
<g id="a_edge5_Node000002_Node000006"><a xlink:title=" ">
<path fill="none" stroke="#63b8ff" d="M409.88,-61.02C388.69,-55.44 365.65,-49.39 344.34,-43.78"/>
<polygon fill="#63b8ff" stroke="#63b8ff" points="408.75,-64.34 419.31,-63.5 410.53,-57.57 408.75,-64.34"/>
</a>
</g>
</g>
<!-- Node5 -->
<g id="Node000005" class="node">
<title>Node5</title>
<g id="a_Node000005"><a xlink:href="classmqtt_1_1mqttstore_1_1lib_1_1MariaDbStorage.html#aceee3945045177897027f526b7cdee60" target="_top" xlink:title=" ">
<polygon fill="white" stroke="#666666" points="131.5,-97.88 0,-97.88 0,-64.38 131.5,-64.38 131.5,-97.88"/>
<text xml:space="preserve" text-anchor="start" x="8" y="-84.38" font-family="Helvetica,sans-Serif" font-size="10.00">mqtt::mqttstore::lib</text>
<text xml:space="preserve" text-anchor="middle" x="65.75" y="-71.62" font-family="Helvetica,sans-Serif" font-size="10.00">::MariaDbStorage::store</text>
</a>
</g>
</g>
<!-- Node4&#45;&gt;Node5 -->
<g id="edge4_Node000004_Node000005" class="edge">
<title>Node4&#45;&gt;Node5</title>
<g id="a_edge4_Node000004_Node000005"><a xlink:title=" ">
<path fill="none" stroke="#63b8ff" d="M155.76,-81.12C147.64,-81.12 139.61,-81.12 131.89,-81.12"/>
<polygon fill="#63b8ff" stroke="#63b8ff" points="155.76,-84.63 165.76,-81.13 155.76,-77.63 155.76,-84.63"/>
</a>
</g>
</g>
</g>
</svg>

<g id="navigator" transform="translate(0 0)" fill="#404254">
  <rect fill="#f2f5e9" fill-opacity="0.5" stroke="#606060" stroke-width=".5" x="0" y="0" width="60" height="60"/>
  <use id="zoomplus" xlink:href="#zoomPlus" x="17" y="9" onmousedown="handleZoom(evt,'in')"/>
  <use id="zoomminus" xlink:href="#zoomMin" x="42" y="9" onmousedown="handleZoom(evt,'out')"/>
  <use id="reset" xlink:href="#resetDef" x="30" y="36" onmousedown="handleReset()"/>
   <use id="arrowup" xlink:href="#arrowUp" x="0" y="0" onmousedown="handlePan(0,-1)"/>
  <use id="arrowright" xlink:href="#arrowRight" x="0" y="0" onmousedown="handlePan(1,0)"/>
  <use id="arrowdown" xlink:href="#arrowDown" x="0" y="0" onmousedown="handlePan(0,1)"/>
  <use id="arrowleft" xlink:href="#arrowLeft" x="0" y="0" onmousedown="handlePan(-1,0)"/>
</g>
<svg viewBox="0 0 15 15" width="100%" height="30px" preserveAspectRatio="xMaxYMin meet">
 <g id="arrow_out" transform="scale(0.3 0.3)">
  <a xlink:href="classmqtt_1_1mqttstore_1_1lib_1_1MariaDbStorage_a88a692d2f10939bc19a74ab0fef012d8_icgraph_org.svg" target="_base">
   <rect id="button" ry="5" rx="5" y="6" x="6" height="38" width="38"
        fill="#f2f5e9" fill-opacity="0.5" stroke="#606060" stroke-width="1.0"/>
   <path id="arrow"
     d="M 11.500037,31.436501 C 11.940474,20.09759 22.043105,11.32322 32.158766,21.979434 L 37.068811,17.246167 C 37.068811,17.246167 37.088388,32 37.088388,32 L 22.160133,31.978069 C 22.160133,31.978069 26.997745,27.140456 26.997745,27.140456 C 18.528582,18.264221 13.291696,25.230495 11.500037,31.436501 z"
     style="fill:#404040;"/>
  </a>
 </g>
</svg>

<style type='text/css'>
<![CDATA[
[data-mouse-over-selected='false'] { opacity: 0.7; }
[data-mouse-over-selected='true']  { opacity: 1.0; }
]]>
</style>
<script type="application/ecmascript"><![CDATA[
document.addEventListener('DOMContentLoaded', (event) => {
  highlightEdges();
  highlightAdjacentNodes();
});
]]></script>
</svg>
