<?xml version="1.0" encoding="UTF-8" standalone="no"?>
<!DOCTYPE svg PUBLIC "-//W3C//DTD SVG 1.1//EN"
 "http://www.w3.org/Graphics/SVG/1.1/DTD/svg11.dtd">
<!-- Generated by graphviz version 2.42.4 (0)
 -->
<!-- Title: inja::IncludeStatementNode Pages: 1 -->
<svg width="152pt" height="137pt"
 viewBox="0.00 0.00 152.00 137.00" xmlns="http://www.w3.org/2000/svg" xmlns:xlink="http://www.w3.org/1999/xlink">

<svg id="main" version="1.1" xmlns="http://www.w3.org/2000/svg" xmlns:xlink="http://www.w3.org/1999/xlink" xml:space="preserve" onload="init(evt)">
<style type="text/css"><![CDATA[
.node, .edge {opacity: 0.7;}
.node.selected, .edge.selected {opacity: 1;}
.edge:hover path { stroke: red; }
.edge:hover polygon { stroke: red; fill: red; }
]]></style>
<script type="application/ecmascript" xlink:href="svg.min.js"/>
<svg id="graph" class="graph">
<g id="graph0" class="graph" transform="scale(1 1) rotate(0) translate(4 133)">
<title>inja::IncludeStatementNode</title>
<!-- Node1 -->
<g id="Node000001" class="node">
<title>Node1</title>
<g id="a_Node000001"><a xlink:title=" ">
<polygon fill="#999999" stroke="transparent" points="144,-19 0,-19 0,0 144,0 144,-19"/>
<text text-anchor="start" x="4" y="-6.5" font-family="Helvetica,sans-Serif" font-size="10.00">inja::IncludeStatementNode</text>
<polygon fill="none" stroke="#666666" points="0,0 0,-19 144,-19 144,0 0,0"/>
</a>
</g>
</g>
<!-- Node2 -->
<g id="Node000002" class="node">
<title>Node2</title>
<g id="a_Node000002"><a xlink:href="classinja_1_1StatementNode.html" target="_top" xlink:title=" ">
<polygon fill="white" stroke="transparent" points="127,-74 17,-74 17,-55 127,-55 127,-74"/>
<text text-anchor="start" x="21.5" y="-61.5" font-family="Helvetica,sans-Serif" font-size="10.00">inja::StatementNode</text>
<polygon fill="none" stroke="#666666" points="17,-55 17,-74 127,-74 127,-55 17,-55"/>
</a>
</g>
</g>
<!-- Node2&#45;&gt;Node1 -->
<g id="edge1_Node000001_Node000002" class="edge">
<title>Node2&#45;&gt;Node1</title>
<g id="a_edge1_Node000001_Node000002"><a xlink:title=" ">
<path fill="none" stroke="#63b8ff" d="M72,-44.66C72,-35.93 72,-25.99 72,-19.09"/>
<polygon fill="none" stroke="#63b8ff" points="68.5,-44.75 72,-54.75 75.5,-44.75 68.5,-44.75"/>
</a>
</g>
</g>
<!-- Node3 -->
<g id="Node000003" class="node">
<title>Node3</title>
<g id="a_Node000003"><a xlink:href="classinja_1_1AstNode.html" target="_top" xlink:title="Base node class for the abstract syntax tree (AST).">
<polygon fill="white" stroke="transparent" points="109,-129 35,-129 35,-110 109,-110 109,-129"/>
<text text-anchor="start" x="39" y="-116.5" font-family="Helvetica,sans-Serif" font-size="10.00">inja::AstNode</text>
<polygon fill="none" stroke="#666666" points="35,-110 35,-129 109,-129 109,-110 35,-110"/>
</a>
</g>
</g>
<!-- Node3&#45;&gt;Node2 -->
<g id="edge2_Node000002_Node000003" class="edge">
<title>Node3&#45;&gt;Node2</title>
<g id="a_edge2_Node000002_Node000003"><a xlink:title=" ">
<path fill="none" stroke="#63b8ff" d="M72,-99.66C72,-90.93 72,-80.99 72,-74.09"/>
<polygon fill="none" stroke="#63b8ff" points="68.5,-99.75 72,-109.75 75.5,-99.75 68.5,-99.75"/>
</a>
</g>
</g>
</g>
</svg>
</svg>

<style type='text/css'>
<![CDATA[
[data-mouse-over-selected='false'] { opacity: 0.7; }
[data-mouse-over-selected='true']  { opacity: 1.0; }
]]>
</style>
<script type="application/ecmascript"><![CDATA[
document.addEventListener('DOMContentLoaded', (event) => {
  highlightEdges();
  highlightAdjacentNodes();
});
]]></script>
</svg>
