<?xml version="1.0" encoding="UTF-8" standalone="no"?>
<!DOCTYPE svg PUBLIC "-//W3C//DTD SVG 1.1//EN"
 "http://www.w3.org/Graphics/SVG/1.1/DTD/svg11.dtd">
<!-- Generated by graphviz version 14.1.2 (0)
 -->
<!-- Title: mqtt::mqttbridge::websocket::SubProtocolFactory::create Pages: 1 -->
<svg width="327pt" height="510pt"
 viewBox="0.00 0.00 327.00 510.00" xmlns="http://www.w3.org/2000/svg" xmlns:xlink="http://www.w3.org/1999/xlink">
<g id="graph0" class="graph" transform="scale(1 1) rotate(0) translate(4 505.5)">
<title>mqtt::mqttbridge::websocket::SubProtocolFactory::create</title>
<!-- Node1 -->
<g id="Node000001" class="node">
<title>Node1</title>
<g id="a_Node000001"><a xlink:title=" ">
<polygon fill="#999999" stroke="#666666" points="157,-267.5 0,-267.5 0,-234 157,-234 157,-267.5"/>
<text xml:space="preserve" text-anchor="start" x="8" y="-254" font-family="Helvetica,sans-Serif" font-size="10.00">mqtt::mqttbridge::websocket</text>
<text xml:space="preserve" text-anchor="middle" x="78.5" y="-241.25" font-family="Helvetica,sans-Serif" font-size="10.00">::SubProtocolFactory::create</text>
</a>
</g>
</g>
<!-- Node2 -->
<g id="Node000002" class="node">
<title>Node2</title>
<g id="a_Node000002"><a xlink:href="classmqtt_1_1bridge_1_1lib_1_1Broker.html#acff6cddc56c9cdc2b0688d6482034131" target="_top" xlink:title=" ">
<polygon fill="white" stroke="#666666" points="306.5,-501.5 205.75,-501.5 205.75,-468 306.5,-468 306.5,-501.5"/>
<text xml:space="preserve" text-anchor="start" x="213.75" y="-488" font-family="Helvetica,sans-Serif" font-size="10.00">mqtt::bridge::lib::</text>
<text xml:space="preserve" text-anchor="middle" x="256.12" y="-475.25" font-family="Helvetica,sans-Serif" font-size="10.00">Broker::getBridge</text>
</a>
</g>
</g>
<!-- Node1&#45;&gt;Node2 -->
<g id="edge1_Node000001_Node000002" class="edge">
<title>Node1&#45;&gt;Node2</title>
<g id="a_edge1_Node000001_Node000002"><a xlink:title=" ">
<path fill="none" stroke="#63b8ff" d="M84.46,-267.76C96.65,-306.73 131.6,-403.37 193,-458.75 194.05,-459.7 195.14,-460.61 196.26,-461.5"/>
<polygon fill="#63b8ff" stroke="#63b8ff" points="193.93,-464.14 204.17,-466.85 197.85,-458.35 193.93,-464.14"/>
</a>
</g>
</g>
<!-- Node3 -->
<g id="Node000003" class="node">
<title>Node3</title>
<g id="a_Node000003"><a xlink:href="classmqtt_1_1bridge_1_1lib_1_1BridgeStore.html#a4876aaa7576d0f1c707f2a070d3966cf" target="_top" xlink:title=" ">
<polygon fill="white" stroke="#666666" points="319.25,-449.5 193,-449.5 193,-416 319.25,-416 319.25,-449.5"/>
<text xml:space="preserve" text-anchor="start" x="201" y="-436" font-family="Helvetica,sans-Serif" font-size="10.00">mqtt::bridge::lib::</text>
<text xml:space="preserve" text-anchor="middle" x="256.12" y="-423.25" font-family="Helvetica,sans-Serif" font-size="10.00">BridgeStore::getBroker</text>
</a>
</g>
</g>
<!-- Node1&#45;&gt;Node3 -->
<g id="edge2_Node000001_Node000003" class="edge">
<title>Node1&#45;&gt;Node3</title>
<g id="a_edge2_Node000001_Node000003"><a xlink:title=" ">
<path fill="none" stroke="#63b8ff" d="M87.78,-267.65C103.94,-299.06 142.56,-366.86 193,-406.75 194.29,-407.77 195.63,-408.76 197,-409.71"/>
<polygon fill="#63b8ff" stroke="#63b8ff" points="194.85,-412.5 205.2,-414.74 198.51,-406.53 194.85,-412.5"/>
</a>
</g>
</g>
<!-- Node4 -->
<g id="Node000004" class="node">
<title>Node4</title>
<g id="a_Node000004"><a xlink:href="classmqtt_1_1bridge_1_1lib_1_1Broker.html#a6d2569d96d1c3c9775d3094a57d298e0" target="_top" xlink:title=" ">
<polygon fill="white" stroke="#666666" points="309.5,-397.5 202.75,-397.5 202.75,-364 309.5,-364 309.5,-397.5"/>
<text xml:space="preserve" text-anchor="start" x="210.75" y="-384" font-family="Helvetica,sans-Serif" font-size="10.00">mqtt::bridge::lib::</text>
<text xml:space="preserve" text-anchor="middle" x="256.12" y="-371.25" font-family="Helvetica,sans-Serif" font-size="10.00">Broker::getClientId</text>
</a>
</g>
</g>
<!-- Node1&#45;&gt;Node4 -->
<g id="edge3_Node000001_Node000004" class="edge">
<title>Node1&#45;&gt;Node4</title>
<g id="a_edge3_Node000001_Node000004"><a xlink:title=" ">
<path fill="none" stroke="#63b8ff" d="M94.56,-267.83C115.03,-290.2 153.6,-329.55 193,-354.75 194.96,-356.01 197,-357.22 199.08,-358.4"/>
<polygon fill="#63b8ff" stroke="#63b8ff" points="197.25,-361.4 207.74,-362.92 200.49,-355.19 197.25,-361.4"/>
</a>
</g>
</g>
<!-- Node5 -->
<g id="Node000005" class="node">
<title>Node5</title>
<g id="a_Node000005"><a xlink:href="classmqtt_1_1bridge_1_1lib_1_1Broker.html#a6eb76f6da39d0e64d2795ff275841042" target="_top" xlink:title=" ">
<polygon fill="white" stroke="#666666" points="316.62,-345.5 195.62,-345.5 195.62,-312 316.62,-312 316.62,-345.5"/>
<text xml:space="preserve" text-anchor="start" x="203.62" y="-332" font-family="Helvetica,sans-Serif" font-size="10.00">mqtt::bridge::lib::</text>
<text xml:space="preserve" text-anchor="middle" x="256.12" y="-319.25" font-family="Helvetica,sans-Serif" font-size="10.00">Broker::getEncryption</text>
</a>
</g>
</g>
<!-- Node1&#45;&gt;Node5 -->
<g id="edge4_Node000001_Node000005" class="edge">
<title>Node1&#45;&gt;Node5</title>
<g id="a_edge4_Node000001_Node000005"><a xlink:title=" ">
<path fill="none" stroke="#63b8ff" d="M116.16,-267.92C138.33,-278.21 167.19,-291.44 193,-302.75 196.32,-304.2 199.75,-305.69 203.21,-307.17"/>
<polygon fill="#63b8ff" stroke="#63b8ff" points="201.64,-310.31 212.21,-311.01 204.38,-303.87 201.64,-310.31"/>
</a>
</g>
</g>
<!-- Node6 -->
<g id="Node000006" class="node">
<title>Node6</title>
<g id="a_Node000006"><a xlink:href="classmqtt_1_1bridge_1_1lib_1_1Bridge.html#a4177e157e17db6dc673e9e49282a2842" target="_top" xlink:title=" ">
<polygon fill="white" stroke="#666666" points="306.12,-293.5 206.12,-293.5 206.12,-260 306.12,-260 306.12,-293.5"/>
<text xml:space="preserve" text-anchor="start" x="214.12" y="-280" font-family="Helvetica,sans-Serif" font-size="10.00">mqtt::bridge::lib::</text>
<text xml:space="preserve" text-anchor="middle" x="256.12" y="-267.25" font-family="Helvetica,sans-Serif" font-size="10.00">Bridge::getName</text>
</a>
</g>
</g>
<!-- Node1&#45;&gt;Node6 -->
<g id="edge5_Node000001_Node000006" class="edge">
<title>Node1&#45;&gt;Node6</title>
<g id="a_edge5_Node000001_Node000006"><a xlink:title=" ">
<path fill="none" stroke="#63b8ff" d="M157.3,-262.27C169.74,-264.11 182.46,-265.99 194.43,-267.77"/>
<polygon fill="#63b8ff" stroke="#63b8ff" points="193.75,-271.2 204.15,-269.2 194.77,-264.28 193.75,-271.2"/>
</a>
</g>
</g>
<!-- Node7 -->
<g id="Node000007" class="node">
<title>Node7</title>
<g id="a_Node000007"><a xlink:href="classmqtt_1_1bridge_1_1lib_1_1Broker.html#a0cb6a0b6686369928942a63621677fc7" target="_top" xlink:title=" ">
<polygon fill="white" stroke="#666666" points="306.12,-241.5 206.12,-241.5 206.12,-208 306.12,-208 306.12,-241.5"/>
<text xml:space="preserve" text-anchor="start" x="214.12" y="-228" font-family="Helvetica,sans-Serif" font-size="10.00">mqtt::bridge::lib::</text>
<text xml:space="preserve" text-anchor="middle" x="256.12" y="-215.25" font-family="Helvetica,sans-Serif" font-size="10.00">Broker::getName</text>
</a>
</g>
</g>
<!-- Node1&#45;&gt;Node7 -->
<g id="edge6_Node000001_Node000007" class="edge">
<title>Node1&#45;&gt;Node7</title>
<g id="a_edge6_Node000001_Node000007"><a xlink:title=" ">
<path fill="none" stroke="#63b8ff" d="M157.3,-239.23C169.74,-237.39 182.46,-235.51 194.43,-233.73"/>
<polygon fill="#63b8ff" stroke="#63b8ff" points="194.77,-237.22 204.15,-232.3 193.75,-230.3 194.77,-237.22"/>
</a>
</g>
</g>
<!-- Node8 -->
<g id="Node000008" class="node">
<title>Node8</title>
<g id="a_Node000008"><a xlink:href="classmqtt_1_1bridge_1_1lib_1_1Broker.html#a95796f4a7ef94d4ca6596fb436bb97ca" target="_top" xlink:title=" ">
<polygon fill="white" stroke="#666666" points="310.62,-189.5 201.62,-189.5 201.62,-156 310.62,-156 310.62,-189.5"/>
<text xml:space="preserve" text-anchor="start" x="209.62" y="-176" font-family="Helvetica,sans-Serif" font-size="10.00">mqtt::bridge::lib::</text>
<text xml:space="preserve" text-anchor="middle" x="256.12" y="-163.25" font-family="Helvetica,sans-Serif" font-size="10.00">Broker::getProtocol</text>
</a>
</g>
</g>
<!-- Node1&#45;&gt;Node8 -->
<g id="edge7_Node000001_Node000008" class="edge">
<title>Node1&#45;&gt;Node8</title>
<g id="a_edge7_Node000001_Node000008"><a xlink:title=" ">
<path fill="none" stroke="#63b8ff" d="M116.16,-233.58C138.33,-223.29 167.19,-210.06 193,-198.75 196.32,-197.3 199.75,-195.81 203.21,-194.33"/>
<polygon fill="#63b8ff" stroke="#63b8ff" points="204.38,-197.63 212.21,-190.49 201.64,-191.19 204.38,-197.63"/>
</a>
</g>
</g>
<!-- Node9 -->
<g id="Node000009" class="node">
<title>Node9</title>
<g id="a_Node000009"><a xlink:href="classmqtt_1_1bridge_1_1lib_1_1Broker.html#a42387cd6087e5d11c2bc441a64dfaffc" target="_top" xlink:title=" ">
<polygon fill="white" stroke="#666666" points="306.12,-137.5 206.12,-137.5 206.12,-104 306.12,-104 306.12,-137.5"/>
<text xml:space="preserve" text-anchor="start" x="214.12" y="-124" font-family="Helvetica,sans-Serif" font-size="10.00">mqtt::bridge::lib::</text>
<text xml:space="preserve" text-anchor="middle" x="256.12" y="-111.25" font-family="Helvetica,sans-Serif" font-size="10.00">Broker::getTopics</text>
</a>
</g>
</g>
<!-- Node1&#45;&gt;Node9 -->
<g id="edge8_Node000001_Node000009" class="edge">
<title>Node1&#45;&gt;Node9</title>
<g id="a_edge8_Node000001_Node000009"><a xlink:title=" ">
<path fill="none" stroke="#63b8ff" d="M94.56,-233.67C115.03,-211.3 153.6,-171.95 193,-146.75 194.96,-145.49 197,-144.28 199.08,-143.1"/>
<polygon fill="#63b8ff" stroke="#63b8ff" points="200.49,-146.31 207.74,-138.58 197.25,-140.1 200.49,-146.31"/>
</a>
</g>
</g>
<!-- Node10 -->
<g id="Node000010" class="node">
<title>Node10</title>
<g id="a_Node000010"><a xlink:href="classmqtt_1_1bridge_1_1lib_1_1Broker.html#ab06b48a9b2540604ca385935b79aa351" target="_top" xlink:title=" ">
<polygon fill="white" stroke="#666666" points="313.62,-85.5 198.62,-85.5 198.62,-52 313.62,-52 313.62,-85.5"/>
<text xml:space="preserve" text-anchor="start" x="206.62" y="-72" font-family="Helvetica,sans-Serif" font-size="10.00">mqtt::bridge::lib::</text>
<text xml:space="preserve" text-anchor="middle" x="256.12" y="-59.25" font-family="Helvetica,sans-Serif" font-size="10.00">Broker::getTransport</text>
</a>
</g>
</g>
<!-- Node1&#45;&gt;Node10 -->
<g id="edge9_Node000001_Node000010" class="edge">
<title>Node1&#45;&gt;Node10</title>
<g id="a_edge9_Node000001_Node000010"><a xlink:title=" ">
<path fill="none" stroke="#63b8ff" d="M87.78,-233.85C103.94,-202.44 142.56,-134.64 193,-94.75 194.29,-93.73 195.63,-92.74 197,-91.79"/>
<polygon fill="#63b8ff" stroke="#63b8ff" points="198.51,-94.97 205.2,-86.76 194.85,-89 198.51,-94.97"/>
</a>
</g>
</g>
<!-- Node11 -->
<g id="Node000011" class="node">
<title>Node11</title>
<g id="a_Node000011"><a xlink:href="classmqtt_1_1bridge_1_1lib_1_1BridgeStore.html#a7b35204686d51d46798ecae6918527e1" target="_top" xlink:title=" ">
<polygon fill="white" stroke="#666666" points="316.25,-33.5 196,-33.5 196,0 316.25,0 316.25,-33.5"/>
<text xml:space="preserve" text-anchor="start" x="204" y="-20" font-family="Helvetica,sans-Serif" font-size="10.00">mqtt::bridge::lib::</text>
<text xml:space="preserve" text-anchor="middle" x="256.12" y="-7.25" font-family="Helvetica,sans-Serif" font-size="10.00">BridgeStore::instance</text>
</a>
</g>
</g>
<!-- Node1&#45;&gt;Node11 -->
<g id="edge10_Node000001_Node000011" class="edge">
<title>Node1&#45;&gt;Node11</title>
<g id="a_edge10_Node000001_Node000011"><a xlink:title=" ">
<path fill="none" stroke="#63b8ff" d="M84.46,-233.74C96.65,-194.77 131.6,-98.13 193,-42.75 193.91,-41.93 194.85,-41.13 195.82,-40.35"/>
<polygon fill="#63b8ff" stroke="#63b8ff" points="197.59,-43.38 203.86,-34.84 193.64,-37.61 197.59,-43.38"/>
</a>
</g>
</g>
</g>
</svg>
