<?xml version="1.0" encoding="UTF-8" standalone="no"?>
<!DOCTYPE svg PUBLIC "-//W3C//DTD SVG 1.1//EN"
 "http://www.w3.org/Graphics/SVG/1.1/DTD/svg11.dtd">
<!-- Generated by graphviz version 2.42.4 (0)
 -->
<!-- Title: anonymous_namespace{json&#45;validator::cpp}::schema::schema Pages: 1 -->
<svg width="340pt" height="580pt"
 viewBox="0.00 0.00 340.00 580.00" xmlns="http://www.w3.org/2000/svg" xmlns:xlink="http://www.w3.org/1999/xlink">
<g id="graph0" class="graph" transform="scale(1 1) rotate(0) translate(4 576)">
<title>anonymous_namespace{json&#45;validator::cpp}::schema::schema</title>
<!-- Node1 -->
<g id="Node000001" class="node">
<title>Node1</title>
<g id="a_Node000001"><a xlink:title=" ">
<polygon fill="#999999" stroke="#666666" points="332,-306 197,-306 197,-265 332,-265 332,-306"/>
<text text-anchor="start" x="205" y="-294" font-family="Helvetica,sans-Serif" font-size="10.00">anonymous_namespace</text>
<text text-anchor="start" x="205" y="-283" font-family="Helvetica,sans-Serif" font-size="10.00">{json&#45;validator::cpp}</text>
<text text-anchor="middle" x="264.5" y="-272" font-family="Helvetica,sans-Serif" font-size="10.00">::schema::schema</text>
</a>
</g>
</g>
<!-- Node2 -->
<g id="Node000002" class="node">
<title>Node2</title>
<g id="a_Node000002"><a xlink:href="classanonymous__namespace_02json-validator_8cpp_03_1_1array.html#ad16bb35faff550ae0c7014de82822e71" target="_top" xlink:title=" ">
<polygon fill="white" stroke="#666666" points="148,-572 13,-572 13,-531 148,-531 148,-572"/>
<text text-anchor="start" x="21" y="-560" font-family="Helvetica,sans-Serif" font-size="10.00">anonymous_namespace</text>
<text text-anchor="start" x="21" y="-549" font-family="Helvetica,sans-Serif" font-size="10.00">{json&#45;validator::cpp}</text>
<text text-anchor="middle" x="80.5" y="-538" font-family="Helvetica,sans-Serif" font-size="10.00">::array::array</text>
</a>
</g>
</g>
<!-- Node1&#45;&gt;Node2 -->
<g id="edge1_Node000001_Node000002" class="edge">
<title>Node1&#45;&gt;Node2</title>
<g id="a_edge1_Node000001_Node000002"><a xlink:title=" ">
<path fill="none" stroke="#63b8ff" d="M258.35,-315.93C248.35,-365.83 221.74,-465.21 161,-522.5 157.15,-526.13 152.81,-529.31 148.2,-532.1"/>
<polygon fill="#63b8ff" stroke="#63b8ff" points="261.79,-316.55 260.23,-306.07 254.92,-315.23 261.79,-316.55"/>
</a>
</g>
</g>
<!-- Node3 -->
<g id="Node000003" class="node">
<title>Node3</title>
<g id="a_Node000003"><a xlink:href="classanonymous__namespace_02json-validator_8cpp_03_1_1boolean.html#ae1d36d41c9bfe462bd57fa694ec2b3d9" target="_top" xlink:title=" ">
<polygon fill="white" stroke="#666666" points="148,-513 13,-513 13,-472 148,-472 148,-513"/>
<text text-anchor="start" x="21" y="-501" font-family="Helvetica,sans-Serif" font-size="10.00">anonymous_namespace</text>
<text text-anchor="start" x="21" y="-490" font-family="Helvetica,sans-Serif" font-size="10.00">{json&#45;validator::cpp}</text>
<text text-anchor="middle" x="80.5" y="-479" font-family="Helvetica,sans-Serif" font-size="10.00">::boolean::boolean</text>
</a>
</g>
</g>
<!-- Node1&#45;&gt;Node3 -->
<g id="edge2_Node000001_Node000003" class="edge">
<title>Node1&#45;&gt;Node3</title>
<g id="a_edge2_Node000001_Node000003"><a xlink:title=" ">
<path fill="none" stroke="#63b8ff" d="M253.5,-315.77C239.05,-355.08 208.71,-423.39 161,-463.5 157.06,-466.81 152.72,-469.76 148.15,-472.38"/>
<polygon fill="#63b8ff" stroke="#63b8ff" points="256.85,-316.79 256.92,-306.2 250.26,-314.44 256.85,-316.79"/>
</a>
</g>
</g>
<!-- Node4 -->
<g id="Node000004" class="node">
<title>Node4</title>
<g id="a_Node000004"><a xlink:href="classanonymous__namespace_02json-validator_8cpp_03_1_1boolean__type.html#a65b498958c4eb74e3746c3331737b79d" target="_top" xlink:title=" ">
<polygon fill="white" stroke="#666666" points="161,-454 0,-454 0,-413 161,-413 161,-454"/>
<text text-anchor="start" x="8" y="-442" font-family="Helvetica,sans-Serif" font-size="10.00">anonymous_namespace</text>
<text text-anchor="start" x="8" y="-431" font-family="Helvetica,sans-Serif" font-size="10.00">{json&#45;validator::cpp}</text>
<text text-anchor="middle" x="80.5" y="-420" font-family="Helvetica,sans-Serif" font-size="10.00">::boolean_type::boolean_type</text>
</a>
</g>
</g>
<!-- Node1&#45;&gt;Node4 -->
<g id="edge3_Node000001_Node000004" class="edge">
<title>Node1&#45;&gt;Node4</title>
<g id="a_edge3_Node000001_Node000004"><a xlink:title=" ">
<path fill="none" stroke="#63b8ff" d="M244.93,-314.55C226.53,-341.25 196.07,-380.26 161,-404.5 156.53,-407.59 151.69,-410.39 146.68,-412.93"/>
<polygon fill="#63b8ff" stroke="#63b8ff" points="248.01,-316.25 250.7,-306 242.2,-312.33 248.01,-316.25"/>
</a>
</g>
</g>
<!-- Node5 -->
<g id="Node000005" class="node">
<title>Node5</title>
<g id="a_Node000005"><a xlink:href="classanonymous__namespace_02json-validator_8cpp_03_1_1logical__not.html#a5ac57fd40f4d28a3def56b84a8e8cd4f" target="_top" xlink:title=" ">
<polygon fill="white" stroke="#666666" points="148,-395 13,-395 13,-354 148,-354 148,-395"/>
<text text-anchor="start" x="21" y="-383" font-family="Helvetica,sans-Serif" font-size="10.00">anonymous_namespace</text>
<text text-anchor="start" x="21" y="-372" font-family="Helvetica,sans-Serif" font-size="10.00">{json&#45;validator::cpp}</text>
<text text-anchor="middle" x="80.5" y="-361" font-family="Helvetica,sans-Serif" font-size="10.00">::logical_not::logical_not</text>
</a>
</g>
</g>
<!-- Node1&#45;&gt;Node5 -->
<g id="edge4_Node000001_Node000005" class="edge">
<title>Node1&#45;&gt;Node5</title>
<g id="a_edge4_Node000001_Node000005"><a xlink:title=" ">
<path fill="none" stroke="#63b8ff" d="M222.81,-311.59C204.36,-322.83 182.01,-335.62 161,-345.5 154.75,-348.44 148.12,-351.28 141.45,-353.95"/>
<polygon fill="#63b8ff" stroke="#63b8ff" points="224.85,-314.44 231.53,-306.22 221.18,-308.48 224.85,-314.44"/>
</a>
</g>
</g>
<!-- Node6 -->
<g id="Node000006" class="node">
<title>Node6</title>
<g id="a_Node000006"><a xlink:href="classanonymous__namespace_02json-validator_8cpp_03_1_1null.html#af95bdccfdc518fa4fec42db17519ab53" target="_top" xlink:title=" ">
<polygon fill="white" stroke="#666666" points="148,-336 13,-336 13,-295 148,-295 148,-336"/>
<text text-anchor="start" x="21" y="-324" font-family="Helvetica,sans-Serif" font-size="10.00">anonymous_namespace</text>
<text text-anchor="start" x="21" y="-313" font-family="Helvetica,sans-Serif" font-size="10.00">{json&#45;validator::cpp}</text>
<text text-anchor="middle" x="80.5" y="-302" font-family="Helvetica,sans-Serif" font-size="10.00">::null::null</text>
</a>
</g>
</g>
<!-- Node1&#45;&gt;Node6 -->
<g id="edge5_Node000001_Node000006" class="edge">
<title>Node1&#45;&gt;Node6</title>
<g id="a_edge5_Node000001_Node000006"><a xlink:title=" ">
<path fill="none" stroke="#63b8ff" d="M186.63,-298.17C173.86,-300.28 160.72,-302.44 148.23,-304.5"/>
<polygon fill="#63b8ff" stroke="#63b8ff" points="187.47,-301.58 196.76,-296.5 186.33,-294.67 187.47,-301.58"/>
</a>
</g>
</g>
<!-- Node7 -->
<g id="Node000007" class="node">
<title>Node7</title>
<g id="a_Node000007"><a xlink:href="classanonymous__namespace_02json-validator_8cpp_03_1_1object.html#a51137ac019fc30c7ab57f839cd9a3638" target="_top" xlink:title=" ">
<polygon fill="white" stroke="#666666" points="148,-277 13,-277 13,-236 148,-236 148,-277"/>
<text text-anchor="start" x="21" y="-265" font-family="Helvetica,sans-Serif" font-size="10.00">anonymous_namespace</text>
<text text-anchor="start" x="21" y="-254" font-family="Helvetica,sans-Serif" font-size="10.00">{json&#45;validator::cpp}</text>
<text text-anchor="middle" x="80.5" y="-243" font-family="Helvetica,sans-Serif" font-size="10.00">::object::object</text>
</a>
</g>
</g>
<!-- Node1&#45;&gt;Node7 -->
<g id="edge6_Node000001_Node000007" class="edge">
<title>Node1&#45;&gt;Node7</title>
<g id="a_edge6_Node000001_Node000007"><a xlink:title=" ">
<path fill="none" stroke="#63b8ff" d="M186.63,-273.25C173.86,-271.22 160.72,-269.12 148.23,-267.13"/>
<polygon fill="#63b8ff" stroke="#63b8ff" points="186.34,-276.75 196.76,-274.87 187.44,-269.84 186.34,-276.75"/>
</a>
</g>
</g>
<!-- Node8 -->
<g id="Node000008" class="node">
<title>Node8</title>
<g id="a_Node000008"><a xlink:href="classanonymous__namespace_02json-validator_8cpp_03_1_1required.html#a467c1a9ecb6ce705f456a6db409be644" target="_top" xlink:title=" ">
<polygon fill="white" stroke="#666666" points="148,-218 13,-218 13,-177 148,-177 148,-218"/>
<text text-anchor="start" x="21" y="-206" font-family="Helvetica,sans-Serif" font-size="10.00">anonymous_namespace</text>
<text text-anchor="start" x="21" y="-195" font-family="Helvetica,sans-Serif" font-size="10.00">{json&#45;validator::cpp}</text>
<text text-anchor="middle" x="80.5" y="-184" font-family="Helvetica,sans-Serif" font-size="10.00">::required::required</text>
</a>
</g>
</g>
<!-- Node1&#45;&gt;Node8 -->
<g id="edge7_Node000001_Node000008" class="edge">
<title>Node1&#45;&gt;Node8</title>
<g id="a_edge7_Node000001_Node000008"><a xlink:title=" ">
<path fill="none" stroke="#63b8ff" d="M221.39,-259.73C203.16,-249.09 181.37,-237.04 161,-227.5 154.05,-224.25 146.65,-221.08 139.26,-218.09"/>
<polygon fill="#63b8ff" stroke="#63b8ff" points="219.63,-262.76 230.03,-264.82 223.19,-256.73 219.63,-262.76"/>
</a>
</g>
</g>
<!-- Node9 -->
<g id="Node000009" class="node">
<title>Node9</title>
<g id="a_Node000009"><a xlink:href="classanonymous__namespace_02json-validator_8cpp_03_1_1schema__ref.html#a947696d53b0fb43b3a6f8618763bb5db" target="_top" xlink:title=" ">
<polygon fill="white" stroke="#666666" points="151.5,-159 9.5,-159 9.5,-118 151.5,-118 151.5,-159"/>
<text text-anchor="start" x="17.5" y="-147" font-family="Helvetica,sans-Serif" font-size="10.00">anonymous_namespace</text>
<text text-anchor="start" x="17.5" y="-136" font-family="Helvetica,sans-Serif" font-size="10.00">{json&#45;validator::cpp}</text>
<text text-anchor="middle" x="80.5" y="-125" font-family="Helvetica,sans-Serif" font-size="10.00">::schema_ref::schema_ref</text>
</a>
</g>
</g>
<!-- Node1&#45;&gt;Node9 -->
<g id="edge8_Node000001_Node000009" class="edge">
<title>Node1&#45;&gt;Node9</title>
<g id="a_edge8_Node000001_Node000009"><a xlink:title=" ">
<path fill="none" stroke="#63b8ff" d="M244.44,-256.59C225.89,-230.42 195.5,-192.41 161,-168.5 156.03,-165.05 150.61,-161.94 145.02,-159.15"/>
<polygon fill="#63b8ff" stroke="#63b8ff" points="241.69,-258.76 250.27,-264.97 247.44,-254.76 241.69,-258.76"/>
</a>
</g>
</g>
<!-- Node10 -->
<g id="Node000010" class="node">
<title>Node10</title>
<g id="a_Node000010"><a xlink:href="classanonymous__namespace_02json-validator_8cpp_03_1_1string.html#a8a244d98f9f260455a4f9ee4afb964f2" target="_top" xlink:title=" ">
<polygon fill="white" stroke="#666666" points="148,-100 13,-100 13,-59 148,-59 148,-100"/>
<text text-anchor="start" x="21" y="-88" font-family="Helvetica,sans-Serif" font-size="10.00">anonymous_namespace</text>
<text text-anchor="start" x="21" y="-77" font-family="Helvetica,sans-Serif" font-size="10.00">{json&#45;validator::cpp}</text>
<text text-anchor="middle" x="80.5" y="-66" font-family="Helvetica,sans-Serif" font-size="10.00">::string::string</text>
</a>
</g>
</g>
<!-- Node1&#45;&gt;Node10 -->
<g id="edge9_Node000001_Node000010" class="edge">
<title>Node1&#45;&gt;Node10</title>
<g id="a_edge9_Node000001_Node000010"><a xlink:title=" ">
<path fill="none" stroke="#63b8ff" d="M253.13,-255.1C238.43,-216.23 207.96,-149.23 161,-109.5 156.83,-105.97 152.21,-102.84 147.35,-100.06"/>
<polygon fill="#63b8ff" stroke="#63b8ff" points="249.97,-256.62 256.7,-264.8 256.54,-254.21 249.97,-256.62"/>
</a>
</g>
</g>
<!-- Node11 -->
<g id="Node000011" class="node">
<title>Node11</title>
<g id="a_Node000011"><a xlink:href="classanonymous__namespace_02json-validator_8cpp_03_1_1type__schema.html#a72ff3c13768d129592b9d088316d0d99" target="_top" xlink:title=" ">
<polygon fill="white" stroke="#666666" points="160,-41 1,-41 1,0 160,0 160,-41"/>
<text text-anchor="start" x="9" y="-29" font-family="Helvetica,sans-Serif" font-size="10.00">anonymous_namespace</text>
<text text-anchor="start" x="9" y="-18" font-family="Helvetica,sans-Serif" font-size="10.00">{json&#45;validator::cpp}</text>
<text text-anchor="middle" x="80.5" y="-7" font-family="Helvetica,sans-Serif" font-size="10.00">::type_schema::type_schema</text>
</a>
</g>
</g>
<!-- Node1&#45;&gt;Node11 -->
<g id="edge10_Node000001_Node000011" class="edge">
<title>Node1&#45;&gt;Node11</title>
<g id="a_edge10_Node000001_Node000011"><a xlink:title=" ">
<path fill="none" stroke="#63b8ff" d="M258.06,-254.71C247.75,-205.11 220.8,-107.36 161,-50.5 157.26,-46.94 153.05,-43.8 148.58,-41.02"/>
<polygon fill="#63b8ff" stroke="#63b8ff" points="254.68,-255.69 260.07,-264.81 261.55,-254.32 254.68,-255.69"/>
</a>
</g>
</g>
</g>
</svg>
