<?xml version="1.0" encoding="UTF-8" standalone="no"?>
<!DOCTYPE svg PUBLIC "-//W3C//DTD SVG 1.1//EN"
 "http://www.w3.org/Graphics/SVG/1.1/DTD/svg11.dtd">
<!-- Generated by graphviz version 2.42.4 (0)
 -->
<!-- Title: mqtt::lib::MqttMapper Pages: 1 -->
<!--zoomable 721 -->

<svg id="main" version="1.1" xmlns="http://www.w3.org/2000/svg" xmlns:xlink="http://www.w3.org/1999/xlink" xml:space="preserve" onload="init(evt)">

<style type="text/css"><![CDATA[
.node, .edge {opacity: 0.7;}
.node.selected, .edge.selected {opacity: 1;}
.edge:hover path { stroke: red; }
.edge:hover polygon { stroke: red; fill: red; }
]]></style>

<defs>
  <circle id="rim" cx="0" cy="0" r="7"/>
  <circle id="rim2" cx="0" cy="0" r="3.5"/>
  <g id="zoomPlus">
    <use xlink:href="#rim" fill="#404040"><set attributeName="fill" to="#808080" begin="zoomplus.mouseover" end="zoomplus.mouseout"/></use>
    <path d="M-4,0h8M0,-4v8" fill="none" stroke="white" stroke-width="1.5" pointer-events="none"/>
  </g>
  <g id="zoomMin">
    <use xlink:href="#rim" fill="#404040"><set attributeName="fill" to="#808080" begin="zoomminus.mouseover" end="zoomminus.mouseout"/></use>
    <path d="M-4,0h8" fill="none" stroke="white" stroke-width="1.5" pointer-events="none"/>
  </g>
  <g id="arrowUp" transform="translate(30 24)">
    <use xlink:href="#rim"/>
    <path pointer-events="none" fill="none" stroke="white" stroke-width="1.5" d="M0,-3.0v7 M-2.5,-0.5L0,-3.0L2.5,-0.5"/>
  </g>
  <g id="arrowRight" transform="rotate(90) translate(36 -43)">
    <use xlink:href="#rim"/>
    <path pointer-events="none" fill="none" stroke="white" stroke-width="1.5" d="M0,-3.0v7 M-2.5,-0.5L0,-3.0L2.5,-0.5"/>
  </g>
  <g id="arrowDown" transform="rotate(180) translate(-30 -48)">
    <use xlink:href="#rim"/>
    <path pointer-events="none" fill="none" stroke="white" stroke-width="1.5" d="M0,-3.0v7 M-2.5,-0.5L0,-3.0L2.5,-0.5"/>
  </g>
  <g id="arrowLeft" transform="rotate(270) translate(-36 17)">
    <use xlink:href="#rim"/>
    <path pointer-events="none" fill="none" stroke="white" stroke-width="1.5" d="M0,-3.0v7 M-2.5,-0.5L0,-3.0L2.5,-0.5"/>
  </g>
  <g id="resetDef">
    <use xlink:href="#rim2" fill="#404040"><set attributeName="fill" to="#808080" begin="reset.mouseover" end="reset.mouseout"/></use>
  </g>
</defs>
<script type="application/ecmascript">
var viewWidth = 663;
var viewHeight = 721;
var sectionId = 'dynsection-1';
</script>
<script type="application/ecmascript" xlink:href="svg.min.js"/>
<svg id="graph" class="graph">
<g id="viewport">
<title>mqtt::lib::MqttMapper</title>
<!-- Node1 -->
<g id="Node000001" class="node">
<title>Node1</title>
<g id="a_Node000001"><a xlink:title=" ">
<polygon fill="#999999" stroke="transparent" points="314,-19 198,-19 198,0 314,0 314,-19"/>
<text text-anchor="start" x="202.5" y="-6.5" font-family="Helvetica,sans-Serif" font-size="10.00">mqtt::lib::MqttMapper</text>
<polygon fill="none" stroke="#666666" points="198,0 198,-19 314,-19 314,0 198,0"/>
</a>
</g>
</g>
<!-- Node2 -->
<g id="Node000002" class="node">
<title>Node2</title>
<g id="a_Node000002"><a xlink:title=" ">
<polygon fill="white" stroke="transparent" points="253,-91 157,-91 157,-72 253,-72 253,-91"/>
<text text-anchor="start" x="161" y="-78.5" font-family="Helvetica,sans-Serif" font-size="10.00">std::list&lt; void * &gt;</text>
<polygon fill="none" stroke="#666666" points="157,-72 157,-91 253,-91 253,-72 157,-72"/>
</a>
</g>
</g>
<!-- Node2&#45;&gt;Node1 -->
<g id="edge1_Node000001_Node000002" class="edge">
<title>Node2&#45;&gt;Node1</title>
<g id="a_edge1_Node000001_Node000002"><a xlink:title=" ">
<path fill="none" stroke="#63b8ff" d="M204.08,-71.71C203.55,-62.33 204.07,-47.4 211,-37 213.94,-32.59 217.89,-28.81 222.23,-25.6"/>
<polygon fill="none" stroke="#63b8ff" points="222.55,-25.41 225.57,-18.86 232.78,-19.13 229.75,-25.68 222.55,-25.41"/>
</a>
</g>
<text text-anchor="start" x="214" y="-42.5" font-family="Helvetica,sans-Serif" font-size="10.00" fill="grey">&#45;pluginHandles</text>
</g>
<!-- Node3 -->
<g id="Node000003" class="node">
<title>Node3</title>
<g id="a_Node000003"><a xlink:href="classinja_1_1Environment.html" target="_top" xlink:title="Class for changing the configuration.">
<polygon fill="white" stroke="transparent" points="367,-91 271,-91 271,-72 367,-72 367,-91"/>
<text text-anchor="start" x="275.5" y="-78.5" font-family="Helvetica,sans-Serif" font-size="10.00">inja::Environment</text>
<polygon fill="none" stroke="#666666" points="271,-72 271,-91 367,-91 367,-72 271,-72"/>
</a>
</g>
</g>
<!-- Node3&#45;&gt;Node1 -->
<g id="edge2_Node000001_Node000003" class="edge">
<title>Node3&#45;&gt;Node1</title>
<g id="a_edge2_Node000001_Node000003"><a xlink:title=" ">
<path fill="none" stroke="#63b8ff" d="M314.63,-71.87C309.69,-62.62 301.01,-47.8 291,-37 287.54,-33.27 283.51,-29.68 279.44,-26.42"/>
<polygon fill="none" stroke="#63b8ff" points="279.17,-26.22 271.97,-25.86 269.53,-19.07 276.74,-19.44 279.17,-26.22"/>
</a>
</g>
<text text-anchor="start" x="306.5" y="-42.5" font-family="Helvetica,sans-Serif" font-size="10.00" fill="grey">&#45;injaEnvironment</text>
</g>
<!-- Node4 -->
<g id="Node000004" class="node">
<title>Node4</title>
<g id="a_Node000004"><a xlink:href="structinja_1_1LexerConfig.html" target="_top" xlink:title="Class for lexer configuration.">
<polygon fill="white" stroke="transparent" points="344,-316 252,-316 252,-297 344,-297 344,-316"/>
<text text-anchor="start" x="256.5" y="-303.5" font-family="Helvetica,sans-Serif" font-size="10.00">inja::LexerConfig</text>
<polygon fill="none" stroke="#666666" points="252,-297 252,-316 344,-316 344,-297 252,-297"/>
</a>
</g>
</g>
<!-- Node4&#45;&gt;Node3 -->
<g id="edge3_Node000003_Node000004" class="edge">
<title>Node4&#45;&gt;Node3</title>
<g id="a_edge3_Node000003_Node000004"><a xlink:title=" ">
<path fill="none" stroke="#63b8ff" d="M297.23,-296.67C295.28,-272.22 290.94,-201.62 300,-144 302.22,-129.88 306.96,-114.52 311.15,-102.69"/>
<polygon fill="none" stroke="#63b8ff" points="311.29,-102.31 309.64,-95.29 315.49,-91.07 317.14,-98.09 311.29,-102.31"/>
</a>
</g>
<text text-anchor="start" x="298" y="-197.5" font-family="Helvetica,sans-Serif" font-size="10.00" fill="grey">&#45;lexer_config</text>
</g>
<!-- Node5 -->
<g id="Node000005" class="node">
<title>Node5</title>
<g id="a_Node000005"><a xlink:title=" ">
<polygon fill="white" stroke="transparent" points="113,-646 55,-646 55,-627 113,-627 113,-646"/>
<text text-anchor="start" x="59.5" y="-633.5" font-family="Helvetica,sans-Serif" font-size="10.00">std::string</text>
<polygon fill="none" stroke="#666666" points="55,-627 55,-646 113,-646 113,-627 55,-627"/>
</a>
</g>
</g>
<!-- Node5&#45;&gt;Node3 -->
<g id="edge14_Node000003_Node000005" class="edge">
<title>Node5&#45;&gt;Node3</title>
<g id="a_edge14_Node000003_Node000005"><a xlink:title=" ">
<path fill="none" stroke="#63b8ff" d="M79.48,-626.89C62.04,-592.82 0,-463.67 0,-350 0,-350 0,-350 0,-158 0,-81.93 89.93,-126.33 164,-109 181.72,-104.86 223,-97.84 258.51,-92.07"/>
<polygon fill="none" stroke="#63b8ff" points="258.93,-92 264.22,-87.1 270.78,-90.09 265.49,-95 258.93,-92"/>
</a>
</g>
<text text-anchor="start" x="3.5" y="-258" font-family="Helvetica,sans-Serif" font-size="10.00" fill="grey">#input_path</text>
<text text-anchor="start" x="3.5" y="-243" font-family="Helvetica,sans-Serif" font-size="10.00" fill="grey">#output_path</text>
</g>
<!-- Node5&#45;&gt;Node4 -->
<g id="edge4_Node000004_Node000005" class="edge">
<title>Node5&#45;&gt;Node4</title>
<g id="a_edge4_Node000004_Node000005"><a xlink:title=" ">
<path fill="none" stroke="#63b8ff" d="M113.28,-628.36C125.41,-624.26 138.97,-618.07 149,-609 238.45,-528.14 280.55,-381.52 293.48,-327.87"/>
<polygon fill="none" stroke="#63b8ff" points="293.5,-327.77 290.96,-321.02 296.2,-316.08 298.75,-322.83 293.5,-327.77"/>
</a>
</g>
<text text-anchor="start" x="280" y="-597.5" font-family="Helvetica,sans-Serif" font-size="10.00" fill="grey">+comment_close</text>
<text text-anchor="start" x="280" y="-582.5" font-family="Helvetica,sans-Serif" font-size="10.00" fill="grey">+comment_close_force</text>
<text text-anchor="start" x="280" y="-567.5" font-family="Helvetica,sans-Serif" font-size="10.00" fill="grey">  _rstrip</text>
<text text-anchor="start" x="280" y="-552.5" font-family="Helvetica,sans-Serif" font-size="10.00" fill="grey">+comment_open</text>
<text text-anchor="start" x="280" y="-537.5" font-family="Helvetica,sans-Serif" font-size="10.00" fill="grey">+comment_open_force</text>
<text text-anchor="start" x="280" y="-522.5" font-family="Helvetica,sans-Serif" font-size="10.00" fill="grey">  _lstrip</text>
<text text-anchor="start" x="280" y="-507.5" font-family="Helvetica,sans-Serif" font-size="10.00" fill="grey">+expression_close</text>
<text text-anchor="start" x="280" y="-492.5" font-family="Helvetica,sans-Serif" font-size="10.00" fill="grey">+expression_close</text>
<text text-anchor="start" x="280" y="-477.5" font-family="Helvetica,sans-Serif" font-size="10.00" fill="grey">  _force_rstrip</text>
<text text-anchor="start" x="280" y="-462.5" font-family="Helvetica,sans-Serif" font-size="10.00" fill="grey">+expression_open</text>
<text text-anchor="start" x="280" y="-447.5" font-family="Helvetica,sans-Serif" font-size="10.00" fill="grey">+expression_open</text>
<text text-anchor="start" x="280" y="-432.5" font-family="Helvetica,sans-Serif" font-size="10.00" fill="grey">  _force_lstrip</text>
<text text-anchor="start" x="280" y="-417.5" font-family="Helvetica,sans-Serif" font-size="10.00" fill="grey">+line_statement</text>
<text text-anchor="start" x="280" y="-402.5" font-family="Helvetica,sans-Serif" font-size="10.00" fill="grey">+open_chars</text>
<text text-anchor="start" x="280" y="-387.5" font-family="Helvetica,sans-Serif" font-size="10.00" fill="grey"> &#160;...</text>
</g>
<!-- Node11 -->
<g id="Node000011" class="node">
<title>Node11</title>
<g id="a_Node000011"><a xlink:title=" ">
<polygon fill="white" stroke="transparent" points="140,-364 28,-364 28,-334 140,-334 140,-364"/>
<text text-anchor="start" x="32.5" y="-352" font-family="Helvetica,sans-Serif" font-size="10.00">std::pair&lt; std::string,</text>
<text text-anchor="start" x="70" y="-341" font-family="Helvetica,sans-Serif" font-size="10.00"> int &gt;</text>
<polygon fill="none" stroke="#666666" points="28,-334 28,-364 140,-364 140,-334 28,-334"/>
</a>
</g>
</g>
<!-- Node5&#45;&gt;Node11 -->
<g id="edge11_Node000011_Node000005" class="edge">
<title>Node5&#45;&gt;Node11</title>
<g id="a_edge11_Node000011_Node000005"><a xlink:title=" ">
<path fill="none" stroke="#63b8ff" d="M84,-626.96C84,-589.35 84,-437.76 84,-376.19"/>
<polygon fill="none" stroke="#63b8ff" points="84,-376.17 80,-370.17 84,-364.17 88,-370.17 84,-376.17"/>
</a>
</g>
<text text-anchor="start" x="87.5" y="-492.5" font-family="Helvetica,sans-Serif" font-size="10.00" fill="grey">+first_type</text>
</g>
<!-- Node6 -->
<g id="Node000006" class="node">
<title>Node6</title>
<g id="a_Node000006"><a xlink:title=" ">
<polygon fill="white" stroke="transparent" points="132,-713 36,-713 36,-683 132,-683 132,-713"/>
<text text-anchor="start" x="40" y="-701" font-family="Helvetica,sans-Serif" font-size="10.00">std::basic_string&lt;</text>
<text text-anchor="start" x="65.5" y="-690" font-family="Helvetica,sans-Serif" font-size="10.00"> Char &gt;</text>
<polygon fill="none" stroke="#666666" points="36,-683 36,-713 132,-713 132,-683 36,-683"/>
</a>
</g>
</g>
<!-- Node6&#45;&gt;Node5 -->
<g id="edge5_Node000005_Node000006" class="edge">
<title>Node6&#45;&gt;Node5</title>
<g id="a_edge5_Node000005_Node000006"><a xlink:title=" ">
<path fill="none" stroke="#63b8ff" d="M84,-672.79C84,-663.36 84,-653.15 84,-646.16"/>
<polygon fill="none" stroke="#63b8ff" points="80.5,-672.9 84,-682.9 87.5,-672.9 80.5,-672.9"/>
</a>
</g>
</g>
<!-- Node7 -->
<g id="Node000007" class="node">
<title>Node7</title>
<g id="a_Node000007"><a xlink:href="structinja_1_1ParserConfig.html" target="_top" xlink:title="Class for parser configuration.">
<polygon fill="white" stroke="transparent" points="405,-168.5 309,-168.5 309,-149.5 405,-149.5 405,-168.5"/>
<text text-anchor="start" x="313.5" y="-156" font-family="Helvetica,sans-Serif" font-size="10.00">inja::ParserConfig</text>
<polygon fill="none" stroke="#666666" points="309,-149.5 309,-168.5 405,-168.5 405,-149.5 309,-149.5"/>
</a>
</g>
</g>
<!-- Node7&#45;&gt;Node3 -->
<g id="edge6_Node000003_Node000007" class="edge">
<title>Node7&#45;&gt;Node3</title>
<g id="a_edge6_Node000003_Node000007"><a xlink:title=" ">
<path fill="none" stroke="#63b8ff" d="M352.64,-149.34C346.86,-137.85 336.48,-117.23 328.78,-101.92"/>
<polygon fill="none" stroke="#63b8ff" points="328.7,-101.78 322.43,-98.22 323.31,-91.06 329.58,-94.62 328.7,-101.78"/>
</a>
</g>
<text text-anchor="start" x="343" y="-114.5" font-family="Helvetica,sans-Serif" font-size="10.00" fill="grey">&#45;parser_config</text>
</g>
<!-- Node8 -->
<g id="Node000008" class="node">
<title>Node8</title>
<g id="a_Node000008"><a xlink:href="structinja_1_1RenderConfig.html" target="_top" xlink:title="Class for render configuration.">
<polygon fill="white" stroke="transparent" points="523,-168.5 423,-168.5 423,-149.5 523,-149.5 523,-168.5"/>
<text text-anchor="start" x="427.5" y="-156" font-family="Helvetica,sans-Serif" font-size="10.00">inja::RenderConfig</text>
<polygon fill="none" stroke="#666666" points="423,-149.5 423,-168.5 523,-168.5 523,-149.5 423,-149.5"/>
</a>
</g>
</g>
<!-- Node8&#45;&gt;Node3 -->
<g id="edge7_Node000003_Node000008" class="edge">
<title>Node8&#45;&gt;Node3</title>
<g id="a_edge7_Node000003_Node000008"><a xlink:title=" ">
<path fill="none" stroke="#63b8ff" d="M466.06,-149.36C456.73,-138.35 439.12,-119.48 420,-109 407.46,-102.13 393.06,-96.97 379.13,-93.13"/>
<polygon fill="none" stroke="#63b8ff" points="378.71,-93.02 371.91,-95.43 367.07,-90.08 373.87,-87.68 378.71,-93.02"/>
</a>
</g>
<text text-anchor="start" x="445.5" y="-114.5" font-family="Helvetica,sans-Serif" font-size="10.00" fill="grey">&#45;render_config</text>
</g>
<!-- Node9 -->
<g id="Node000009" class="node">
<title>Node9</title>
<g id="a_Node000009"><a xlink:href="classinja_1_1FunctionStorage.html" target="_top" xlink:title="Class for builtin functions and user&#45;defined callbacks.">
<polygon fill="white" stroke="transparent" points="226,-168.5 114,-168.5 114,-149.5 226,-149.5 226,-168.5"/>
<text text-anchor="start" x="118.5" y="-156" font-family="Helvetica,sans-Serif" font-size="10.00">inja::FunctionStorage</text>
<polygon fill="none" stroke="#666666" points="114,-149.5 114,-168.5 226,-168.5 226,-149.5 114,-149.5"/>
</a>
</g>
</g>
<!-- Node9&#45;&gt;Node3 -->
<g id="edge8_Node000003_Node000009" class="edge">
<title>Node9&#45;&gt;Node3</title>
<g id="a_edge8_Node000003_Node000009"><a xlink:title=" ">
<path fill="none" stroke="#63b8ff" d="M168.04,-149.13C166.2,-138.21 165.03,-119.81 175,-109 178,-105.74 220.44,-98.18 258.47,-91.96"/>
<polygon fill="none" stroke="#63b8ff" points="258.76,-91.91 264.05,-87 270.61,-89.99 265.33,-94.9 258.76,-91.91"/>
</a>
</g>
<text text-anchor="start" x="178" y="-114.5" font-family="Helvetica,sans-Serif" font-size="10.00" fill="grey">&#45;function_storage</text>
</g>
<!-- Node10 -->
<g id="Node000010" class="node">
<title>Node10</title>
<g id="a_Node000010"><a xlink:title=" ">
<polygon fill="white" stroke="transparent" points="225,-279 107,-279 107,-227 225,-227 225,-279"/>
<text text-anchor="start" x="111.5" y="-267" font-family="Helvetica,sans-Serif" font-size="10.00">std::map&lt; std::pair</text>
<text text-anchor="start" x="111.5" y="-256" font-family="Helvetica,sans-Serif" font-size="10.00">&lt; std::string, int &gt;</text>
<text text-anchor="start" x="111.5" y="-245" font-family="Helvetica,sans-Serif" font-size="10.00">, inja::FunctionStorage</text>
<text text-anchor="start" x="125" y="-234" font-family="Helvetica,sans-Serif" font-size="10.00">::FunctionData &gt;</text>
<polygon fill="none" stroke="#666666" points="107,-227 107,-279 225,-279 225,-227 107,-227"/>
</a>
</g>
</g>
<!-- Node10&#45;&gt;Node9 -->
<g id="edge9_Node000009_Node000010" class="edge">
<title>Node10&#45;&gt;Node9</title>
<g id="a_edge9_Node000009_Node000010"><a xlink:title=" ">
<path fill="none" stroke="#63b8ff" d="M165.99,-226.88C166.1,-216.13 166.37,-203.44 167,-192 167.2,-188.42 167.49,-184.61 167.81,-180.92"/>
<polygon fill="none" stroke="#63b8ff" points="167.84,-180.62 164.44,-174.26 169,-168.68 172.4,-175.04 167.84,-180.62"/>
</a>
</g>
<text text-anchor="start" x="170" y="-197.5" font-family="Helvetica,sans-Serif" font-size="10.00" fill="grey">&#45;function_storage</text>
</g>
<!-- Node11&#45;&gt;Node10 -->
<g id="edge10_Node000010_Node000011" class="edge">
<title>Node11&#45;&gt;Node10</title>
<g id="a_edge10_Node000010_Node000011"><a xlink:title=" ">
<path fill="none" stroke="#63b8ff" d="M96.45,-333.72C106.92,-321.73 122.3,-304.09 135.95,-288.45"/>
<polygon fill="none" stroke="#63b8ff" points="136.27,-288.08 137.2,-280.93 144.16,-279.04 143.23,-286.19 136.27,-288.08"/>
</a>
</g>
<text text-anchor="start" x="131.5" y="-303.5" font-family="Helvetica,sans-Serif" font-size="10.00" fill="grey">+keys</text>
</g>
<!-- Node12 -->
<g id="Node000012" class="node">
<title>Node12</title>
<g id="a_Node000012"><a xlink:href="structinja_1_1FunctionStorage_1_1FunctionData.html" target="_top" xlink:title=" ">
<polygon fill="white" stroke="transparent" points="270,-364 158,-364 158,-334 270,-334 270,-364"/>
<text text-anchor="start" x="162.5" y="-352" font-family="Helvetica,sans-Serif" font-size="10.00">inja::FunctionStorage</text>
<text text-anchor="start" x="178.5" y="-341" font-family="Helvetica,sans-Serif" font-size="10.00">::FunctionData</text>
<polygon fill="none" stroke="#666666" points="158,-334 158,-364 270,-364 270,-334 158,-334"/>
</a>
</g>
</g>
<!-- Node12&#45;&gt;Node10 -->
<g id="edge12_Node000010_Node000012" class="edge">
<title>Node12&#45;&gt;Node10</title>
<g id="a_edge12_Node000010_Node000012"><a xlink:title=" ">
<path fill="none" stroke="#63b8ff" d="M196.51,-333.8C191.18,-328.69 185.74,-322.55 182,-316 177.65,-308.39 174.47,-299.59 172.14,-291.05"/>
<polygon fill="none" stroke="#63b8ff" points="172.12,-290.98 166.86,-286.05 169.38,-279.3 174.65,-284.23 172.12,-290.98"/>
</a>
</g>
<text text-anchor="start" x="185.5" y="-303.5" font-family="Helvetica,sans-Serif" font-size="10.00" fill="grey">+elements</text>
</g>
<!-- Node13 -->
<g id="Node000013" class="node">
<title>Node13</title>
<g id="a_Node000013"><a xlink:title=" ">
<polygon fill="white" stroke="transparent" points="655,-174 541,-174 541,-144 655,-144 655,-174"/>
<text text-anchor="start" x="545" y="-162" font-family="Helvetica,sans-Serif" font-size="10.00">std::map&lt; std::string,</text>
<text text-anchor="start" x="568" y="-151" font-family="Helvetica,sans-Serif" font-size="10.00"> Template &gt;</text>
<polygon fill="none" stroke="#666666" points="541,-144 541,-174 655,-174 655,-144 541,-144"/>
</a>
</g>
</g>
<!-- Node13&#45;&gt;Node3 -->
<g id="edge13_Node000003_Node000013" class="edge">
<title>Node13&#45;&gt;Node3</title>
<g id="a_edge13_Node000003_Node000013"><a xlink:title=" ">
<path fill="none" stroke="#63b8ff" d="M581.33,-143.91C566.87,-132.52 544.88,-117.09 523,-109 476.6,-91.86 420.7,-85.51 379.15,-83.29"/>
<polygon fill="none" stroke="#63b8ff" points="379.01,-83.28 372.83,-87 367.02,-82.74 373.2,-79.01 379.01,-83.28"/>
</a>
</g>
<text text-anchor="start" x="558.5" y="-114.5" font-family="Helvetica,sans-Serif" font-size="10.00" fill="grey">&#45;template_storage</text>
</g>
</g>
</svg>

<g id="navigator" transform="translate(0 0)" fill="#404254">
  <rect fill="#f2f5e9" fill-opacity="0.5" stroke="#606060" stroke-width=".5" x="0" y="0" width="60" height="60"/>
  <use id="zoomplus" xlink:href="#zoomPlus" x="17" y="9" onmousedown="handleZoom(evt,'in')"/>
  <use id="zoomminus" xlink:href="#zoomMin" x="42" y="9" onmousedown="handleZoom(evt,'out')"/>
  <use id="reset" xlink:href="#resetDef" x="30" y="36" onmousedown="handleReset()"/>
   <use id="arrowup" xlink:href="#arrowUp" x="0" y="0" onmousedown="handlePan(0,-1)"/>
  <use id="arrowright" xlink:href="#arrowRight" x="0" y="0" onmousedown="handlePan(1,0)"/>
  <use id="arrowdown" xlink:href="#arrowDown" x="0" y="0" onmousedown="handlePan(0,1)"/>
  <use id="arrowleft" xlink:href="#arrowLeft" x="0" y="0" onmousedown="handlePan(-1,0)"/>
</g>
<svg viewBox="0 0 15 15" width="100%" height="30px" preserveAspectRatio="xMaxYMin meet">
 <g id="arrow_out" transform="scale(0.3 0.3)">
  <a xlink:href="classmqtt_1_1lib_1_1MqttMapper__coll__graph_org.svg" target="_base">
   <rect id="button" ry="5" rx="5" y="6" x="6" height="38" width="38"
        fill="#f2f5e9" fill-opacity="0.5" stroke="#606060" stroke-width="1.0"/>
   <path id="arrow"
     d="M 11.500037,31.436501 C 11.940474,20.09759 22.043105,11.32322 32.158766,21.979434 L 37.068811,17.246167 C 37.068811,17.246167 37.088388,32 37.088388,32 L 22.160133,31.978069 C 22.160133,31.978069 26.997745,27.140456 26.997745,27.140456 C 18.528582,18.264221 13.291696,25.230495 11.500037,31.436501 z"
     style="fill:#404040;"/>
  </a>
 </g>
</svg>

<style type='text/css'>
<![CDATA[
[data-mouse-over-selected='false'] { opacity: 0.7; }
[data-mouse-over-selected='true']  { opacity: 1.0; }
]]>
</style>
<script type="application/ecmascript"><![CDATA[
document.addEventListener('DOMContentLoaded', (event) => {
  highlightEdges();
  highlightAdjacentNodes();
});
]]></script>
</svg>
