<?xml version="1.0" encoding="UTF-8" standalone="no"?>
<!DOCTYPE svg PUBLIC "-//W3C//DTD SVG 1.1//EN"
 "http://www.w3.org/Graphics/SVG/1.1/DTD/svg11.dtd">
<!-- Generated by graphviz version 14.1.2 (0)
 -->
<!-- Title: mqtt::mqttbroker::lib::Mqtt::DelayedQueue Pages: 1 -->
<svg width="1101pt" height="1258pt"
 viewBox="0.00 0.00 1101.00 1258.00" xmlns="http://www.w3.org/2000/svg" xmlns:xlink="http://www.w3.org/1999/xlink">
<g id="graph0" class="graph" transform="scale(1 1) rotate(0) translate(4 1253.5)">
<title>mqtt::mqttbroker::lib::Mqtt::DelayedQueue</title>
<!-- Node1 -->
<g id="Node000001" class="node">
<title>Node1</title>
<g id="a_Node000001"><a xlink:title=" ">
<polygon fill="#999999" stroke="none" points="1059,-121.75 944.5,-121.75 944.5,-88.25 1059,-88.25 1059,-121.75"/>
<text xml:space="preserve" text-anchor="start" x="948.5" y="-108.25" font-family="Helvetica,sans-Serif" font-size="10.00">mqtt::mqttbroker::lib</text>
<text xml:space="preserve" text-anchor="start" x="948.5" y="-95.5" font-family="Helvetica,sans-Serif" font-size="10.00">::Mqtt::DelayedQueue</text>
<polygon fill="none" stroke="#666666" points="944.5,-88.25 944.5,-121.75 1059,-121.75 1059,-88.25 944.5,-88.25"/>
</a>
</g>
</g>
<!-- Node2 -->
<g id="Node000002" class="node">
<title>Node2</title>
<g id="a_Node000002"><a xlink:href="classmqtt_1_1mqttbroker_1_1lib_1_1Mqtt.html" target="_top" xlink:title=" ">
<polygon fill="white" stroke="none" points="906.38,-33.5 797.12,-33.5 797.12,0 906.38,0 906.38,-33.5"/>
<text xml:space="preserve" text-anchor="start" x="801.12" y="-20" font-family="Helvetica,sans-Serif" font-size="10.00">mqtt::mqttbroker::lib</text>
<text xml:space="preserve" text-anchor="start" x="837.5" y="-7.25" font-family="Helvetica,sans-Serif" font-size="10.00">::Mqtt</text>
<polygon fill="none" stroke="#666666" points="797.12,0 797.12,-33.5 906.38,-33.5 906.38,0 797.12,0"/>
</a>
</g>
</g>
<!-- Node1&#45;&gt;Node2 -->
<g id="edge32_Node000002_Node000001" class="edge">
<title>Node1&#45;&gt;Node2</title>
<g id="a_edge32_Node000002_Node000001"><a xlink:title=" ">
<path fill="none" stroke="#63b8ff" d="M944.72,-92.34C927.96,-87.26 910.2,-80.13 895.5,-70.25 889.66,-66.32 879.83,-54.75 870.97,-43.47"/>
<polygon fill="none" stroke="#63b8ff" points="871.1,-43.65 864.28,-41.33 863.79,-34.14 870.62,-36.46 871.1,-43.65"/>
</a>
</g>
<text xml:space="preserve" text-anchor="start" x="898.5" y="-57.75" font-family="Helvetica,sans-Serif" font-size="10.00" fill="grey">&#45;delayedQueue</text>
</g>
<!-- Node2&#45;&gt;Node1 -->
<g id="edge1_Node000001_Node000002" class="edge">
<title>Node2&#45;&gt;Node1</title>
<g id="a_edge1_Node000001_Node000002"><a xlink:title=" ">
<path fill="none" stroke="#63b8ff" d="M906.36,-21.24C931.23,-25.36 959.55,-33.93 979.75,-51.5 987.15,-57.94 992.12,-67.27 995.43,-76.29"/>
<polygon fill="none" stroke="#63b8ff" points="995.38,-76.14 1000.94,-80.74 998.83,-87.63 993.27,-83.03 995.38,-76.14"/>
</a>
</g>
<text xml:space="preserve" text-anchor="start" x="995.92" y="-57.75" font-family="Helvetica,sans-Serif" font-size="10.00" fill="grey">&#45;mqtt</text>
</g>
<!-- Node3 -->
<g id="Node000003" class="node">
<title>Node3</title>
<g id="a_Node000003"><a xlink:title=" ">
<polygon fill="white" stroke="none" points="730.38,-115.38 615.12,-115.38 615.12,-94.62 730.38,-94.62 730.38,-115.38"/>
<text xml:space="preserve" text-anchor="start" x="619.12" y="-101.88" font-family="Helvetica,sans-Serif" font-size="10.00">iot::mqtt::server::Mqtt</text>
<polygon fill="none" stroke="#666666" points="615.12,-94.62 615.12,-115.38 730.38,-115.38 730.38,-94.62 615.12,-94.62"/>
</a>
</g>
</g>
<!-- Node3&#45;&gt;Node2 -->
<g id="edge2_Node000002_Node000003" class="edge">
<title>Node3&#45;&gt;Node2</title>
<g id="a_edge2_Node000002_Node000003"><a xlink:title=" ">
<path fill="none" stroke="#63b8ff" d="M702.02,-89.9C734.18,-74.4 785.71,-49.57 819.15,-33.46"/>
<polygon fill="none" stroke="#63b8ff" points="700.76,-86.62 693.27,-94.11 703.8,-92.92 700.76,-86.62"/>
</a>
</g>
</g>
<!-- Node4 -->
<g id="Node000004" class="node">
<title>Node4</title>
<g id="a_Node000004"><a xlink:title=" ">
<polygon fill="white" stroke="none" points="863.38,-121.75 748.12,-121.75 748.12,-88.25 863.38,-88.25 863.38,-121.75"/>
<text xml:space="preserve" text-anchor="start" x="752.12" y="-108.25" font-family="Helvetica,sans-Serif" font-size="10.00">std::shared_ptr&lt; mqtt</text>
<text xml:space="preserve" text-anchor="start" x="758.5" y="-95.5" font-family="Helvetica,sans-Serif" font-size="10.00">::lib::MqttMapper &gt;</text>
<polygon fill="none" stroke="#666666" points="748.12,-88.25 748.12,-121.75 863.38,-121.75 863.38,-88.25 748.12,-88.25"/>
</a>
</g>
</g>
<!-- Node4&#45;&gt;Node2 -->
<g id="edge3_Node000002_Node000004" class="edge">
<title>Node4&#45;&gt;Node2</title>
<g id="a_edge3_Node000002_Node000004"><a xlink:title=" ">
<path fill="none" stroke="#63b8ff" d="M802.7,-88.43C801.34,-77.49 801.17,-62.86 807,-51.5 808.71,-48.17 810.91,-45.08 813.42,-42.24"/>
<polygon fill="none" stroke="#63b8ff" points="813.41,-42.25 815.1,-35.24 822.22,-34.1 820.53,-41.11 813.41,-42.25"/>
</a>
</g>
<text xml:space="preserve" text-anchor="start" x="810" y="-57.75" font-family="Helvetica,sans-Serif" font-size="10.00" fill="grey">&#45;mqttMapper</text>
</g>
<!-- Node5 -->
<g id="Node000005" class="node">
<title>Node5</title>
<g id="a_Node000005"><a xlink:href="classmqtt_1_1lib_1_1MqttMapper.html" target="_top" xlink:title=" ">
<polygon fill="white" stroke="none" points="826,-235.5 711.5,-235.5 711.5,-214.75 826,-214.75 826,-235.5"/>
<text xml:space="preserve" text-anchor="start" x="715.5" y="-222" font-family="Helvetica,sans-Serif" font-size="10.00">mqtt::lib::MqttMapper</text>
<polygon fill="none" stroke="#666666" points="711.5,-214.75 711.5,-235.5 826,-235.5 826,-214.75 711.5,-214.75"/>
</a>
</g>
</g>
<!-- Node5&#45;&gt;Node4 -->
<g id="edge4_Node000004_Node000005" class="edge">
<title>Node5&#45;&gt;Node4</title>
<g id="a_edge4_Node000004_Node000005"><a xlink:title=" ">
<path fill="none" stroke="#63b8ff" d="M771.65,-214.86C777.07,-197.55 788.93,-159.7 797.13,-133.53"/>
<polygon fill="none" stroke="#63b8ff" points="797.06,-133.74 795.04,-126.82 800.65,-122.29 802.67,-129.21 797.06,-133.74"/>
</a>
</g>
<text xml:space="preserve" text-anchor="start" x="797.82" y="-146" font-family="Helvetica,sans-Serif" font-size="10.00" fill="grey">+ptr</text>
</g>
<!-- Node6 -->
<g id="Node000006" class="node">
<title>Node6</title>
<g id="a_Node000006"><a xlink:title=" ">
<polygon fill="white" stroke="none" points="816.62,-355.62 720.88,-355.62 720.88,-334.88 816.62,-334.88 816.62,-355.62"/>
<text xml:space="preserve" text-anchor="start" x="724.88" y="-342.12" font-family="Helvetica,sans-Serif" font-size="10.00">std::list&lt; void * &gt;</text>
<polygon fill="none" stroke="#666666" points="720.88,-334.88 720.88,-355.62 816.62,-355.62 816.62,-334.88 720.88,-334.88"/>
</a>
</g>
</g>
<!-- Node6&#45;&gt;Node5 -->
<g id="edge5_Node000005_Node000006" class="edge">
<title>Node6&#45;&gt;Node5</title>
<g id="a_edge5_Node000005_Node000006"><a xlink:title=" ">
<path fill="none" stroke="#63b8ff" d="M768.75,-334.98C768.75,-316.44 768.75,-274.31 768.75,-248.24"/>
<polygon fill="none" stroke="#63b8ff" points="768.75,-248.25 764.75,-242.25 768.75,-236.25 772.75,-242.25 768.75,-248.25"/>
</a>
</g>
<text xml:space="preserve" text-anchor="start" x="771.75" y="-298" font-family="Helvetica,sans-Serif" font-size="10.00" fill="grey">&#45;pluginHandles</text>
</g>
<!-- Node7 -->
<g id="Node000007" class="node">
<title>Node7</title>
<g id="a_Node000007"><a xlink:href="classinja_1_1Environment.html" target="_top" xlink:title="Class for changing the configuration.">
<polygon fill="white" stroke="none" points="728.88,-532.12 634.62,-532.12 634.62,-511.38 728.88,-511.38 728.88,-532.12"/>
<text xml:space="preserve" text-anchor="start" x="638.62" y="-518.62" font-family="Helvetica,sans-Serif" font-size="10.00">inja::Environment</text>
<polygon fill="none" stroke="#666666" points="634.62,-511.38 634.62,-532.12 728.88,-532.12 728.88,-511.38 634.62,-511.38"/>
</a>
</g>
</g>
<!-- Node7&#45;&gt;Node5 -->
<g id="edge6_Node000005_Node000007" class="edge">
<title>Node7&#45;&gt;Node5</title>
<g id="a_edge6_Node000005_Node000007"><a xlink:title=" ">
<path fill="none" stroke="#63b8ff" d="M682.04,-511.67C683.17,-483.62 688.45,-396.22 711.75,-328.5 722.22,-298.07 741.51,-266.16 754.73,-246.22"/>
<polygon fill="none" stroke="#63b8ff" points="754.78,-246.14 754.85,-238.93 761.53,-236.21 761.46,-243.42 754.78,-246.14"/>
</a>
</g>
<text xml:space="preserve" text-anchor="start" x="700.4" y="-386.25" font-family="Helvetica,sans-Serif" font-size="10.00" fill="grey">&#45;injaEnvironment</text>
</g>
<!-- Node8 -->
<g id="Node000008" class="node">
<title>Node8</title>
<g id="a_Node000008"><a xlink:href="classinja_1_1FunctionStorage.html" target="_top" xlink:title="Class for builtin functions and user&#45;defined callbacks.">
<polygon fill="white" stroke="none" points="624.12,-626.75 513.38,-626.75 513.38,-606 624.12,-606 624.12,-626.75"/>
<text xml:space="preserve" text-anchor="start" x="517.38" y="-613.25" font-family="Helvetica,sans-Serif" font-size="10.00">inja::FunctionStorage</text>
<polygon fill="none" stroke="#666666" points="513.38,-606 513.38,-626.75 624.12,-626.75 624.12,-606 513.38,-606"/>
</a>
</g>
</g>
<!-- Node8&#45;&gt;Node7 -->
<g id="edge7_Node000007_Node000008" class="edge">
<title>Node8&#45;&gt;Node7</title>
<g id="a_edge7_Node000007_Node000008"><a xlink:title=" ">
<path fill="none" stroke="#63b8ff" d="M568.26,-606.17C568.1,-593.4 569.74,-570.35 582.25,-556.5 592.76,-544.87 607.42,-537.24 622.27,-532.24"/>
<polygon fill="none" stroke="#63b8ff" points="622.31,-532.23 626.96,-526.72 633.83,-528.88 629.19,-534.4 622.31,-532.23"/>
</a>
</g>
<text xml:space="preserve" text-anchor="start" x="585.25" y="-562.75" font-family="Helvetica,sans-Serif" font-size="10.00" fill="grey">&#45;function_storage</text>
</g>
<!-- Node9 -->
<g id="Node000009" class="node">
<title>Node9</title>
<g id="a_Node000009"><a xlink:title=" ">
<polygon fill="white" stroke="none" points="634.12,-753.25 517.38,-753.25 517.38,-694.25 634.12,-694.25 634.12,-753.25"/>
<text xml:space="preserve" text-anchor="start" x="521.38" y="-739.75" font-family="Helvetica,sans-Serif" font-size="10.00">std::map&lt; std::pair</text>
<text xml:space="preserve" text-anchor="start" x="521.38" y="-727" font-family="Helvetica,sans-Serif" font-size="10.00">&lt; std::string, int &gt;</text>
<text xml:space="preserve" text-anchor="start" x="521.38" y="-714.25" font-family="Helvetica,sans-Serif" font-size="10.00">, inja::FunctionStorage</text>
<text xml:space="preserve" text-anchor="start" x="534.88" y="-701.5" font-family="Helvetica,sans-Serif" font-size="10.00">::FunctionData &gt;</text>
<polygon fill="none" stroke="#666666" points="517.38,-694.25 517.38,-753.25 634.12,-753.25 634.12,-694.25 517.38,-694.25"/>
</a>
</g>
</g>
<!-- Node9&#45;&gt;Node8 -->
<g id="edge8_Node000008_Node000009" class="edge">
<title>Node9&#45;&gt;Node8</title>
<g id="a_edge8_Node000008_Node000009"><a xlink:title=" ">
<path fill="none" stroke="#63b8ff" d="M573.87,-694.51C572.72,-677.15 571.26,-655.23 570.2,-639.2"/>
<polygon fill="none" stroke="#63b8ff" points="570.21,-639.31 565.82,-633.59 569.41,-627.34 573.8,-633.06 570.21,-639.31"/>
</a>
</g>
<text xml:space="preserve" text-anchor="start" x="575.46" y="-663.75" font-family="Helvetica,sans-Serif" font-size="10.00" fill="grey">&#45;function_storage</text>
</g>
<!-- Node10 -->
<g id="Node000010" class="node">
<title>Node10</title>
<g id="a_Node000010"><a xlink:title=" ">
<polygon fill="white" stroke="none" points="628.12,-849.88 517.38,-849.88 517.38,-816.38 628.12,-816.38 628.12,-849.88"/>
<text xml:space="preserve" text-anchor="start" x="521.38" y="-836.38" font-family="Helvetica,sans-Serif" font-size="10.00">std::pair&lt; std::string,</text>
<text xml:space="preserve" text-anchor="start" x="559.25" y="-823.62" font-family="Helvetica,sans-Serif" font-size="10.00"> int &gt;</text>
<polygon fill="none" stroke="#666666" points="517.38,-816.38 517.38,-849.88 628.12,-849.88 628.12,-816.38 517.38,-816.38"/>
</a>
</g>
</g>
<!-- Node10&#45;&gt;Node9 -->
<g id="edge9_Node000009_Node000010" class="edge">
<title>Node10&#45;&gt;Node9</title>
<g id="a_edge9_Node000009_Node000010"><a xlink:title=" ">
<path fill="none" stroke="#63b8ff" d="M573.18,-816.74C573.55,-803.46 574.1,-783.65 574.6,-765.82"/>
<polygon fill="none" stroke="#63b8ff" points="574.6,-765.9 570.77,-759.79 574.94,-753.9 578.77,-760.01 574.6,-765.9"/>
</a>
</g>
<text xml:space="preserve" text-anchor="start" x="577.43" y="-778.5" font-family="Helvetica,sans-Serif" font-size="10.00" fill="grey">+keys</text>
</g>
<!-- Node11 -->
<g id="Node000011" class="node">
<title>Node11</title>
<g id="a_Node000011"><a xlink:title=" ">
<polygon fill="white" stroke="none" points="549.12,-1172.62 492.38,-1172.62 492.38,-1151.88 549.12,-1151.88 549.12,-1172.62"/>
<text xml:space="preserve" text-anchor="start" x="496.38" y="-1159.12" font-family="Helvetica,sans-Serif" font-size="10.00">std::string</text>
<polygon fill="none" stroke="#666666" points="492.38,-1151.88 492.38,-1172.62 549.12,-1172.62 549.12,-1151.88 492.38,-1151.88"/>
</a>
</g>
</g>
<!-- Node11&#45;&gt;Node5 -->
<g id="edge31_Node000005_Node000011" class="edge">
<title>Node11&#45;&gt;Node5</title>
<g id="a_edge31_Node000005_Node000011"><a xlink:title=" ">
<path fill="none" stroke="#63b8ff" d="M548.89,-1160.66C631.29,-1158.68 867.87,-1150.97 892.75,-1127.5 988.66,-1037.03 936.75,-965.97 936.75,-834.12 936.75,-834.12 936.75,-834.12 936.75,-344.25 936.75,-286.85 870.31,-254.93 821,-239.14"/>
<polygon fill="none" stroke="#63b8ff" points="820.91,-239.12 814.01,-241.21 809.43,-235.64 816.33,-233.55 820.91,-239.12"/>
</a>
</g>
<text xml:space="preserve" text-anchor="start" x="939.75" y="-562.75" font-family="Helvetica,sans-Serif" font-size="10.00" fill="grey">&#45;mappingJsonSchemaString</text>
</g>
<!-- Node11&#45;&gt;Node10 -->
<g id="edge10_Node000010_Node000011" class="edge">
<title>Node11&#45;&gt;Node10</title>
<g id="a_edge10_Node000010_Node000011"><a xlink:title=" ">
<path fill="none" stroke="#63b8ff" d="M522.2,-1152.16C528.9,-1109.97 557.13,-932.38 568.24,-862.52"/>
<polygon fill="none" stroke="#63b8ff" points="568.25,-862.44 565.24,-855.88 570.13,-850.59 573.14,-857.14 568.25,-862.44"/>
</a>
</g>
<text xml:space="preserve" text-anchor="start" x="569.31" y="-997.75" font-family="Helvetica,sans-Serif" font-size="10.00" fill="grey">+first_type</text>
</g>
<!-- Node15 -->
<g id="Node000015" class="node">
<title>Node15</title>
<g id="a_Node000015"><a xlink:href="structinja_1_1LexerConfig.html" target="_top" xlink:title="Class for lexer configuration.">
<polygon fill="white" stroke="none" points="832,-792 741.5,-792 741.5,-771.25 832,-771.25 832,-792"/>
<text xml:space="preserve" text-anchor="start" x="745.5" y="-778.5" font-family="Helvetica,sans-Serif" font-size="10.00">inja::LexerConfig</text>
<polygon fill="none" stroke="#666666" points="741.5,-771.25 741.5,-792 832,-792 832,-771.25 741.5,-771.25"/>
</a>
</g>
</g>
<!-- Node11&#45;&gt;Node15 -->
<g id="edge15_Node000015_Node000011" class="edge">
<title>Node11&#45;&gt;Node15</title>
<g id="a_edge15_Node000015_Node000011"><a xlink:title=" ">
<path fill="none" stroke="#63b8ff" d="M549,-1158.79C573.16,-1155.35 607.59,-1147.14 630.75,-1127.5 735.39,-1038.76 773.11,-865.37 783.47,-804.44"/>
<polygon fill="none" stroke="#63b8ff" points="783.46,-804.51 780.45,-797.95 785.35,-792.66 788.35,-799.21 783.46,-804.51"/>
</a>
</g>
<text xml:space="preserve" text-anchor="start" x="770.31" y="-1115" font-family="Helvetica,sans-Serif" font-size="10.00" fill="grey">+comment_close</text>
<text xml:space="preserve" text-anchor="start" x="770.31" y="-1098.25" font-family="Helvetica,sans-Serif" font-size="10.00" fill="grey">+comment_close_force</text>
<text xml:space="preserve" text-anchor="start" x="770.31" y="-1081.5" font-family="Helvetica,sans-Serif" font-size="10.00" fill="grey">  _rstrip</text>
<text xml:space="preserve" text-anchor="start" x="770.31" y="-1064.75" font-family="Helvetica,sans-Serif" font-size="10.00" fill="grey">+comment_open</text>
<text xml:space="preserve" text-anchor="start" x="770.31" y="-1048" font-family="Helvetica,sans-Serif" font-size="10.00" fill="grey">+comment_open_force</text>
<text xml:space="preserve" text-anchor="start" x="770.31" y="-1031.25" font-family="Helvetica,sans-Serif" font-size="10.00" fill="grey">  _lstrip</text>
<text xml:space="preserve" text-anchor="start" x="770.31" y="-1014.5" font-family="Helvetica,sans-Serif" font-size="10.00" fill="grey">+expression_close</text>
<text xml:space="preserve" text-anchor="start" x="770.31" y="-997.75" font-family="Helvetica,sans-Serif" font-size="10.00" fill="grey">+expression_close</text>
<text xml:space="preserve" text-anchor="start" x="770.31" y="-981" font-family="Helvetica,sans-Serif" font-size="10.00" fill="grey">  _force_rstrip</text>
<text xml:space="preserve" text-anchor="start" x="770.31" y="-964.25" font-family="Helvetica,sans-Serif" font-size="10.00" fill="grey">+expression_open</text>
<text xml:space="preserve" text-anchor="start" x="770.31" y="-947.5" font-family="Helvetica,sans-Serif" font-size="10.00" fill="grey">+expression_open</text>
<text xml:space="preserve" text-anchor="start" x="770.31" y="-930.75" font-family="Helvetica,sans-Serif" font-size="10.00" fill="grey">  _force_lstrip</text>
<text xml:space="preserve" text-anchor="start" x="770.31" y="-914" font-family="Helvetica,sans-Serif" font-size="10.00" fill="grey">+line_statement</text>
<text xml:space="preserve" text-anchor="start" x="770.31" y="-897.25" font-family="Helvetica,sans-Serif" font-size="10.00" fill="grey">+open_chars</text>
<text xml:space="preserve" text-anchor="start" x="770.31" y="-880.5" font-family="Helvetica,sans-Serif" font-size="10.00" fill="grey"> &#160;...</text>
</g>
<!-- Node22 -->
<g id="Node000022" class="node">
<title>Node22</title>
<g id="a_Node000022"><a xlink:title=" ">
<polygon fill="white" stroke="none" points="379.5,-639.5 226,-639.5 226,-593.25 379.5,-593.25 379.5,-639.5"/>
<text xml:space="preserve" text-anchor="start" x="230" y="-626" font-family="Helvetica,sans-Serif" font-size="10.00">std::map&lt; std::string,</text>
<text xml:space="preserve" text-anchor="start" x="230" y="-613.25" font-family="Helvetica,sans-Serif" font-size="10.00"> nlohmann::json_schema</text>
<text xml:space="preserve" text-anchor="start" x="230" y="-600.5" font-family="Helvetica,sans-Serif" font-size="10.00">::root_schema::schema_file &gt;</text>
<polygon fill="none" stroke="#666666" points="226,-593.25 226,-639.5 379.5,-639.5 379.5,-593.25 226,-593.25"/>
</a>
</g>
</g>
<!-- Node11&#45;&gt;Node22 -->
<g id="edge23_Node000022_Node000011" class="edge">
<title>Node11&#45;&gt;Node22</title>
<g id="a_edge23_Node000022_Node000011"><a xlink:title=" ">
<path fill="none" stroke="#63b8ff" d="M520.8,-1151.91C520.73,-1110.31 517.25,-938.31 466.75,-810 437.07,-734.58 424.64,-714.22 366.75,-657.5 362.9,-653.73 358.64,-650.14 354.2,-646.76"/>
<polygon fill="none" stroke="#63b8ff" points="354.17,-646.74 346.96,-646.55 344.36,-639.82 351.57,-640.01 354.17,-646.74"/>
</a>
</g>
<text xml:space="preserve" text-anchor="start" x="462.55" y="-778.5" font-family="Helvetica,sans-Serif" font-size="10.00" fill="grey">+keys</text>
</g>
<!-- Node24 -->
<g id="Node000024" class="node">
<title>Node24</title>
<g id="a_Node000024"><a xlink:title=" ">
<polygon fill="white" stroke="none" points="457.62,-849.88 301.88,-849.88 301.88,-816.38 457.62,-816.38 457.62,-849.88"/>
<text xml:space="preserve" text-anchor="start" x="305.88" y="-836.38" font-family="Helvetica,sans-Serif" font-size="10.00">std::map&lt; std::string,</text>
<text xml:space="preserve" text-anchor="start" x="305.88" y="-823.62" font-family="Helvetica,sans-Serif" font-size="10.00"> std::shared_ptr&lt; schema &gt; &gt;</text>
<polygon fill="none" stroke="#666666" points="301.88,-816.38 301.88,-849.88 457.62,-849.88 457.62,-816.38 301.88,-816.38"/>
</a>
</g>
</g>
<!-- Node11&#45;&gt;Node24 -->
<g id="edge26_Node000024_Node000011" class="edge">
<title>Node11&#45;&gt;Node24</title>
<g id="a_edge26_Node000024_Node000011"><a xlink:title=" ">
<path fill="none" stroke="#63b8ff" d="M492.56,-1156.84C474.82,-1152.5 453.06,-1144.01 441,-1127.5 407.66,-1081.87 441.05,-925.74 417.75,-874.25 415.33,-868.89 411.89,-863.8 408.05,-859.16"/>
<polygon fill="none" stroke="#63b8ff" points="408.09,-859.19 401.07,-857.54 399.9,-850.42 406.92,-852.08 408.09,-859.19"/>
</a>
</g>
<text xml:space="preserve" text-anchor="start" x="444" y="-997.75" font-family="Helvetica,sans-Serif" font-size="10.00" fill="grey">+keys</text>
</g>
<!-- Node25 -->
<g id="Node000025" class="node">
<title>Node25</title>
<g id="a_Node000025"><a xlink:title=" ">
<polygon fill="white" stroke="none" points="283.38,-856.25 150.12,-856.25 150.12,-810 283.38,-810 283.38,-856.25"/>
<text xml:space="preserve" text-anchor="start" x="154.12" y="-842.75" font-family="Helvetica,sans-Serif" font-size="10.00">std::map&lt; std::string,</text>
<text xml:space="preserve" text-anchor="start" x="154.12" y="-830" font-family="Helvetica,sans-Serif" font-size="10.00"> std::shared_ptr&lt; schema</text>
<text xml:space="preserve" text-anchor="start" x="196.12" y="-817.25" font-family="Helvetica,sans-Serif" font-size="10.00">_ref &gt; &gt;</text>
<polygon fill="none" stroke="#666666" points="150.12,-810 150.12,-856.25 283.38,-856.25 283.38,-810 150.12,-810"/>
</a>
</g>
</g>
<!-- Node11&#45;&gt;Node25 -->
<g id="edge29_Node000025_Node000011" class="edge">
<title>Node11&#45;&gt;Node25</title>
<g id="a_edge29_Node000025_Node000011"><a xlink:title=" ">
<path fill="none" stroke="#63b8ff" d="M492.66,-1158.55C455.18,-1154.32 391.8,-1144.78 377,-1127.5 340.29,-1084.63 393.6,-917.84 357.75,-874.25 340.94,-853.81 325.63,-861.81 295.76,-856.43"/>
<polygon fill="none" stroke="#63b8ff" points="295.62,-856.4 288.87,-858.94 283.93,-853.69 290.68,-851.15 295.62,-856.4"/>
</a>
</g>
<text xml:space="preserve" text-anchor="start" x="380" y="-997.75" font-family="Helvetica,sans-Serif" font-size="10.00" fill="grey">+keys</text>
</g>
<!-- Node12 -->
<g id="Node000012" class="node">
<title>Node12</title>
<g id="a_Node000012"><a xlink:title=" ">
<polygon fill="white" stroke="none" points="568.62,-1249.5 472.88,-1249.5 472.88,-1216 568.62,-1216 568.62,-1249.5"/>
<text xml:space="preserve" text-anchor="start" x="476.88" y="-1236" font-family="Helvetica,sans-Serif" font-size="10.00">std::basic_string&lt;</text>
<text xml:space="preserve" text-anchor="start" x="502.38" y="-1223.25" font-family="Helvetica,sans-Serif" font-size="10.00"> Char &gt;</text>
<polygon fill="none" stroke="#666666" points="472.88,-1216 472.88,-1249.5 568.62,-1249.5 568.62,-1216 472.88,-1216"/>
</a>
</g>
</g>
<!-- Node12&#45;&gt;Node11 -->
<g id="edge11_Node000011_Node000012" class="edge">
<title>Node12&#45;&gt;Node11</title>
<g id="a_edge11_Node000011_Node000012"><a xlink:title=" ">
<path fill="none" stroke="#63b8ff" d="M520.75,-1204.95C520.75,-1193.53 520.75,-1180.94 520.75,-1172.62"/>
<polygon fill="none" stroke="#63b8ff" points="517.25,-1204.69 520.75,-1214.69 524.25,-1204.69 517.25,-1204.69"/>
</a>
</g>
</g>
<!-- Node13 -->
<g id="Node000013" class="node">
<title>Node13</title>
<g id="a_Node000013"><a xlink:href="structinja_1_1FunctionStorage_1_1FunctionData.html" target="_top" xlink:title=" ">
<polygon fill="white" stroke="none" points="757.12,-849.88 646.38,-849.88 646.38,-816.38 757.12,-816.38 757.12,-849.88"/>
<text xml:space="preserve" text-anchor="start" x="650.38" y="-836.38" font-family="Helvetica,sans-Serif" font-size="10.00">inja::FunctionStorage</text>
<text xml:space="preserve" text-anchor="start" x="666.5" y="-823.62" font-family="Helvetica,sans-Serif" font-size="10.00">::FunctionData</text>
<polygon fill="none" stroke="#666666" points="646.38,-816.38 646.38,-849.88 757.12,-849.88 757.12,-816.38 646.38,-816.38"/>
</a>
</g>
</g>
<!-- Node13&#45;&gt;Node9 -->
<g id="edge12_Node000009_Node000013" class="edge">
<title>Node13&#45;&gt;Node9</title>
<g id="a_edge12_Node000009_Node000013"><a xlink:title=" ">
<path fill="none" stroke="#63b8ff" d="M683.43,-816.51C666.56,-802.14 640.89,-780.26 618.84,-761.47"/>
<polygon fill="none" stroke="#63b8ff" points="618.83,-761.46 611.67,-760.61 609.69,-753.68 616.86,-754.52 618.83,-761.46"/>
</a>
</g>
<text xml:space="preserve" text-anchor="start" x="656.74" y="-778.5" font-family="Helvetica,sans-Serif" font-size="10.00" fill="grey">+elements</text>
</g>
<!-- Node14 -->
<g id="Node000014" class="node">
<title>Node14</title>
<g id="a_Node000014"><a xlink:title=" ">
<polygon fill="white" stroke="none" points="755.62,-633.12 641.88,-633.12 641.88,-599.62 755.62,-599.62 755.62,-633.12"/>
<text xml:space="preserve" text-anchor="start" x="645.88" y="-619.62" font-family="Helvetica,sans-Serif" font-size="10.00">std::map&lt; std::string,</text>
<text xml:space="preserve" text-anchor="start" x="669.12" y="-606.88" font-family="Helvetica,sans-Serif" font-size="10.00"> Template &gt;</text>
<polygon fill="none" stroke="#666666" points="641.88,-599.62 641.88,-633.12 755.62,-633.12 755.62,-599.62 641.88,-599.62"/>
</a>
</g>
</g>
<!-- Node14&#45;&gt;Node7 -->
<g id="edge13_Node000007_Node000014" class="edge">
<title>Node14&#45;&gt;Node7</title>
<g id="a_edge13_Node000007_Node000014"><a xlink:title=" ">
<path fill="none" stroke="#63b8ff" d="M689.48,-599.95C685.66,-592.72 681.68,-583.82 679.75,-575.25 677.52,-565.32 677.61,-554.08 678.43,-544.55"/>
<polygon fill="none" stroke="#63b8ff" points="678.42,-544.6 675.19,-538.15 679.9,-532.69 683.13,-539.14 678.42,-544.6"/>
</a>
</g>
<text xml:space="preserve" text-anchor="start" x="682.75" y="-562.75" font-family="Helvetica,sans-Serif" font-size="10.00" fill="grey">&#45;template_storage</text>
</g>
<!-- Node15&#45;&gt;Node7 -->
<g id="edge14_Node000007_Node000015" class="edge">
<title>Node15&#45;&gt;Node7</title>
<g id="a_edge14_Node000007_Node000015"><a xlink:title=" ">
<path fill="none" stroke="#63b8ff" d="M789.57,-771.33C798.99,-738.24 826.07,-624.43 775.75,-556.5 767.22,-544.98 754.39,-537.38 740.93,-532.37"/>
<polygon fill="none" stroke="#63b8ff" points="740.81,-532.33 733.88,-534.35 729.36,-528.73 736.28,-526.72 740.81,-532.33"/>
</a>
</g>
<text xml:space="preserve" text-anchor="start" x="808.32" y="-663.75" font-family="Helvetica,sans-Serif" font-size="10.00" fill="grey">#lexer_config</text>
</g>
<!-- Node16 -->
<g id="Node000016" class="node">
<title>Node16</title>
<g id="a_Node000016"><a xlink:href="structinja_1_1ParserConfig.html" target="_top" xlink:title="Class for parser configuration.">
<polygon fill="white" stroke="none" points="908.88,-626.75 814.62,-626.75 814.62,-606 908.88,-606 908.88,-626.75"/>
<text xml:space="preserve" text-anchor="start" x="818.62" y="-613.25" font-family="Helvetica,sans-Serif" font-size="10.00">inja::ParserConfig</text>
<polygon fill="none" stroke="#666666" points="814.62,-606 814.62,-626.75 908.88,-626.75 908.88,-606 814.62,-606"/>
</a>
</g>
</g>
<!-- Node16&#45;&gt;Node7 -->
<g id="edge16_Node000007_Node000016" class="edge">
<title>Node16&#45;&gt;Node7</title>
<g id="a_edge16_Node000007_Node000016"><a xlink:title=" ">
<path fill="none" stroke="#63b8ff" d="M855.34,-606.35C845.64,-593.38 826.02,-569.59 803.75,-556.5 784.77,-545.34 761.95,-537.75 741.21,-532.64"/>
<polygon fill="none" stroke="#63b8ff" points="741.2,-532.63 734.46,-535.2 729.5,-529.97 736.24,-527.4 741.2,-532.63"/>
</a>
</g>
<text xml:space="preserve" text-anchor="start" x="830" y="-562.75" font-family="Helvetica,sans-Serif" font-size="10.00" fill="grey">#parser_config</text>
</g>
<!-- Node17 -->
<g id="Node000017" class="node">
<title>Node17</title>
<g id="a_Node000017"><a xlink:href="structinja_1_1RenderConfig.html" target="_top" xlink:title="Class for render configuration.">
<polygon fill="white" stroke="none" points="495.75,-626.75 397.75,-626.75 397.75,-606 495.75,-606 495.75,-626.75"/>
<text xml:space="preserve" text-anchor="start" x="401.75" y="-613.25" font-family="Helvetica,sans-Serif" font-size="10.00">inja::RenderConfig</text>
<polygon fill="none" stroke="#666666" points="397.75,-606 397.75,-626.75 495.75,-626.75 495.75,-606 397.75,-606"/>
</a>
</g>
</g>
<!-- Node17&#45;&gt;Node7 -->
<g id="edge17_Node000007_Node000017" class="edge">
<title>Node17&#45;&gt;Node7</title>
<g id="a_edge17_Node000007_Node000017"><a xlink:title=" ">
<path fill="none" stroke="#63b8ff" d="M450.45,-606.07C456.25,-592.76 468.84,-568.55 487.75,-556.5 509.54,-542.62 573.22,-533.36 621.74,-528.11"/>
<polygon fill="none" stroke="#63b8ff" points="621.82,-528.1 627.38,-523.5 633.76,-526.86 628.2,-531.46 621.82,-528.1"/>
</a>
</g>
<text xml:space="preserve" text-anchor="start" x="490.75" y="-562.75" font-family="Helvetica,sans-Serif" font-size="10.00" fill="grey">#render_config</text>
</g>
<!-- Node18 -->
<g id="Node000018" class="node">
<title>Node18</title>
<g id="a_Node000018"><a xlink:href="classnlohmann_1_1json__schema_1_1json__validator.html" target="_top" xlink:title=" ">
<polygon fill="white" stroke="none" points="652,-362 525.5,-362 525.5,-328.5 652,-328.5 652,-362"/>
<text xml:space="preserve" text-anchor="start" x="529.5" y="-348.5" font-family="Helvetica,sans-Serif" font-size="10.00">nlohmann::json_schema</text>
<text xml:space="preserve" text-anchor="start" x="551.25" y="-335.75" font-family="Helvetica,sans-Serif" font-size="10.00">::json_validator</text>
<polygon fill="none" stroke="#666666" points="525.5,-328.5 525.5,-362 652,-362 652,-328.5 525.5,-328.5"/>
</a>
</g>
</g>
<!-- Node18&#45;&gt;Node5 -->
<g id="edge18_Node000005_Node000018" class="edge">
<title>Node18&#45;&gt;Node5</title>
<g id="a_edge18_Node000005_Node000018"><a xlink:title=" ">
<path fill="none" stroke="#63b8ff" d="M593.78,-328.68C598.18,-317.18 605.59,-301.82 616.5,-291.75 644.5,-265.89 684.27,-249.22 716.14,-239.16"/>
<polygon fill="none" stroke="#63b8ff" points="716.01,-239.2 720.61,-233.64 727.51,-235.75 722.91,-241.31 716.01,-239.2"/>
</a>
</g>
<text xml:space="preserve" text-anchor="start" x="619.5" y="-298" font-family="Helvetica,sans-Serif" font-size="10.00" fill="grey">&#45;validator</text>
</g>
<!-- Node19 -->
<g id="Node000019" class="node">
<title>Node19</title>
<g id="a_Node000019"><a xlink:title=" ">
<polygon fill="white" stroke="none" points="600.75,-450.25 442.75,-450.25 442.75,-416.75 600.75,-416.75 600.75,-450.25"/>
<text xml:space="preserve" text-anchor="start" x="446.75" y="-436.75" font-family="Helvetica,sans-Serif" font-size="10.00">std::unique_ptr&lt; nlohmann</text>
<text xml:space="preserve" text-anchor="start" x="446.75" y="-424" font-family="Helvetica,sans-Serif" font-size="10.00">::json_schema::root_schema &gt;</text>
<polygon fill="none" stroke="#666666" points="442.75,-416.75 442.75,-450.25 600.75,-450.25 600.75,-416.75 442.75,-416.75"/>
</a>
</g>
</g>
<!-- Node19&#45;&gt;Node18 -->
<g id="edge19_Node000018_Node000019" class="edge">
<title>Node19&#45;&gt;Node18</title>
<g id="a_edge19_Node000018_Node000019"><a xlink:title=" ">
<path fill="none" stroke="#63b8ff" d="M533.73,-417.08C543.48,-404.53 557.45,-386.54 568.88,-371.83"/>
<polygon fill="none" stroke="#63b8ff" points="568.73,-372.02 569.26,-364.82 576.1,-362.54 575.57,-369.73 568.73,-372.02"/>
</a>
</g>
<text xml:space="preserve" text-anchor="start" x="564.25" y="-386.25" font-family="Helvetica,sans-Serif" font-size="10.00" fill="grey">&#45;root_</text>
</g>
<!-- Node20 -->
<g id="Node000020" class="node">
<title>Node20</title>
<g id="a_Node000020"><a xlink:href="classnlohmann_1_1json__schema_1_1root__schema.html" target="_top" xlink:title=" ">
<polygon fill="white" stroke="none" points="366,-538.5 239.5,-538.5 239.5,-505 366,-505 366,-538.5"/>
<text xml:space="preserve" text-anchor="start" x="243.5" y="-525" font-family="Helvetica,sans-Serif" font-size="10.00">nlohmann::json_schema</text>
<text xml:space="preserve" text-anchor="start" x="268.25" y="-512.25" font-family="Helvetica,sans-Serif" font-size="10.00">::root_schema</text>
<polygon fill="none" stroke="#666666" points="239.5,-505 239.5,-538.5 366,-538.5 366,-505 239.5,-505"/>
</a>
</g>
</g>
<!-- Node20&#45;&gt;Node19 -->
<g id="edge20_Node000019_Node000020" class="edge">
<title>Node20&#45;&gt;Node19</title>
<g id="a_edge20_Node000019_Node000020"><a xlink:title=" ">
<path fill="none" stroke="#63b8ff" d="M342.66,-505.03C378.4,-490.96 431.02,-470.23 469.98,-454.89"/>
<polygon fill="none" stroke="#63b8ff" points="470.11,-454.84 474.22,-448.92 481.27,-450.44 477.16,-456.36 470.11,-454.84"/>
</a>
</g>
<text xml:space="preserve" text-anchor="start" x="434.87" y="-474.5" font-family="Helvetica,sans-Serif" font-size="10.00" fill="grey">+ptr</text>
</g>
<!-- Node21 -->
<g id="Node000021" class="node">
<title>Node21</title>
<g id="a_Node000021"><a xlink:title=" ">
<polygon fill="white" stroke="none" points="141.5,-1172.62 0,-1172.62 0,-1151.88 141.5,-1151.88 141.5,-1172.62"/>
<text xml:space="preserve" text-anchor="start" x="4" y="-1159.12" font-family="Helvetica,sans-Serif" font-size="10.00">std::shared_ptr&lt; schema &gt;</text>
<polygon fill="none" stroke="#666666" points="0,-1151.88 0,-1172.62 141.5,-1172.62 141.5,-1151.88 0,-1151.88"/>
</a>
</g>
</g>
<!-- Node21&#45;&gt;Node20 -->
<g id="edge21_Node000020_Node000021" class="edge">
<title>Node21&#45;&gt;Node20</title>
<g id="a_edge21_Node000020_Node000021"><a xlink:title=" ">
<path fill="none" stroke="#63b8ff" d="M72.44,-1151.92C79.3,-1113.11 104.75,-960.6 104.75,-834.12 104.75,-834.12 104.75,-834.12 104.75,-615.38 104.75,-559.22 170.9,-537.03 226.73,-528.31"/>
<polygon fill="none" stroke="#63b8ff" points="226.78,-528.31 232.17,-523.51 238.66,-526.63 233.28,-531.43 226.78,-528.31"/>
</a>
</g>
<text xml:space="preserve" text-anchor="start" x="107.75" y="-720.62" font-family="Helvetica,sans-Serif" font-size="10.00" fill="grey">&#45;root_</text>
</g>
<!-- Node21&#45;&gt;Node24 -->
<g id="edge27_Node000024_Node000021" class="edge">
<title>Node21&#45;&gt;Node24</title>
<g id="a_edge27_Node000024_Node000021"><a xlink:title=" ">
<path fill="none" stroke="#63b8ff" d="M115.95,-1151.94C127.29,-1149.72 139.45,-1147.43 150.75,-1145.5 178.2,-1140.81 255.75,-1147.86 274.75,-1127.5 313.25,-1086.24 261.67,-920.68 293.75,-874.25 298.72,-867.06 305.33,-861.12 312.68,-856.23"/>
<polygon fill="none" stroke="#63b8ff" points="312.69,-856.22 315.9,-849.76 323.09,-850.24 319.89,-856.7 312.69,-856.22"/>
</a>
</g>
<text xml:space="preserve" text-anchor="start" x="296.75" y="-997.75" font-family="Helvetica,sans-Serif" font-size="10.00" fill="grey">+elements</text>
</g>
<!-- Node22&#45;&gt;Node20 -->
<g id="edge22_Node000020_Node000022" class="edge">
<title>Node22&#45;&gt;Node20</title>
<g id="a_edge22_Node000020_Node000022"><a xlink:title=" ">
<path fill="none" stroke="#63b8ff" d="M302.75,-593.42C302.75,-580.88 302.75,-565 302.75,-551.47"/>
<polygon fill="none" stroke="#63b8ff" points="302.75,-551.36 298.75,-545.36 302.75,-539.36 306.75,-545.36 302.75,-551.36"/>
</a>
</g>
<text xml:space="preserve" text-anchor="start" x="305.75" y="-562.75" font-family="Helvetica,sans-Serif" font-size="10.00" fill="grey">&#45;files_</text>
</g>
<!-- Node23 -->
<g id="Node000023" class="node">
<title>Node23</title>
<g id="a_Node000023"><a xlink:href="structnlohmann_1_1json__schema_1_1root__schema_1_1schema__file.html" target="_top" xlink:title=" ">
<polygon fill="white" stroke="none" points="373.88,-740.5 231.62,-740.5 231.62,-707 373.88,-707 373.88,-740.5"/>
<text xml:space="preserve" text-anchor="start" x="235.62" y="-727" font-family="Helvetica,sans-Serif" font-size="10.00">nlohmann::json_schema</text>
<text xml:space="preserve" text-anchor="start" x="235.62" y="-714.25" font-family="Helvetica,sans-Serif" font-size="10.00">::root_schema::schema_file</text>
<polygon fill="none" stroke="#666666" points="231.62,-707 231.62,-740.5 373.88,-740.5 373.88,-707 231.62,-707"/>
</a>
</g>
</g>
<!-- Node23&#45;&gt;Node22 -->
<g id="edge24_Node000022_Node000023" class="edge">
<title>Node23&#45;&gt;Node22</title>
<g id="a_edge24_Node000022_Node000023"><a xlink:title=" ">
<path fill="none" stroke="#63b8ff" d="M302.75,-707.2C302.75,-692.74 302.75,-670.67 302.75,-652.03"/>
<polygon fill="none" stroke="#63b8ff" points="302.75,-652.12 298.75,-646.12 302.75,-640.12 306.75,-646.12 302.75,-652.12"/>
</a>
</g>
<text xml:space="preserve" text-anchor="start" x="305.75" y="-663.75" font-family="Helvetica,sans-Serif" font-size="10.00" fill="grey">+elements</text>
</g>
<!-- Node24&#45;&gt;Node23 -->
<g id="edge25_Node000023_Node000024" class="edge">
<title>Node24&#45;&gt;Node23</title>
<g id="a_edge25_Node000023_Node000024"><a xlink:title=" ">
<path fill="none" stroke="#63b8ff" d="M368.72,-816.74C356.44,-799.62 336.38,-771.64 321.6,-751.03"/>
<polygon fill="none" stroke="#63b8ff" points="321.53,-750.94 314.78,-748.39 314.54,-741.19 321.28,-743.73 321.53,-750.94"/>
</a>
</g>
<text xml:space="preserve" text-anchor="start" x="353.41" y="-778.5" font-family="Helvetica,sans-Serif" font-size="10.00" fill="grey">+schemas</text>
</g>
<!-- Node25&#45;&gt;Node23 -->
<g id="edge28_Node000023_Node000025" class="edge">
<title>Node25&#45;&gt;Node23</title>
<g id="a_edge28_Node000023_Node000025"><a xlink:title=" ">
<path fill="none" stroke="#63b8ff" d="M233.87,-810.05C242.91,-798.45 254.24,-784.03 264.5,-771.25 270.13,-764.24 276.29,-756.69 282,-749.76"/>
<polygon fill="none" stroke="#63b8ff" points="281.7,-750.13 282.43,-742.95 289.34,-740.87 288.6,-748.05 281.7,-750.13"/>
</a>
</g>
<text xml:space="preserve" text-anchor="start" x="267.5" y="-778.5" font-family="Helvetica,sans-Serif" font-size="10.00" fill="grey">+unresolved</text>
</g>
<!-- Node26 -->
<g id="Node000026" class="node">
<title>Node26</title>
<g id="a_Node000026"><a xlink:title=" ">
<polygon fill="white" stroke="none" points="289.88,-1179 159.62,-1179 159.62,-1145.5 289.88,-1145.5 289.88,-1179"/>
<text xml:space="preserve" text-anchor="start" x="163.62" y="-1165.5" font-family="Helvetica,sans-Serif" font-size="10.00">std::shared_ptr&lt; schema</text>
<text xml:space="preserve" text-anchor="start" x="209.75" y="-1152.75" font-family="Helvetica,sans-Serif" font-size="10.00">_ref &gt;</text>
<polygon fill="none" stroke="#666666" points="159.62,-1145.5 159.62,-1179 289.88,-1179 289.88,-1145.5 159.62,-1145.5"/>
</a>
</g>
</g>
<!-- Node26&#45;&gt;Node25 -->
<g id="edge30_Node000025_Node000026" class="edge">
<title>Node26&#45;&gt;Node25</title>
<g id="a_edge30_Node000025_Node000026"><a xlink:title=" ">
<path fill="none" stroke="#63b8ff" d="M219.11,-1145.66C217.34,-1140.02 215.63,-1133.55 214.75,-1127.5 198.59,-1016.11 211.95,-986.77 214.75,-874.25 214.79,-872.6 214.84,-870.92 214.9,-869.22"/>
<polygon fill="none" stroke="#63b8ff" points="214.9,-869.08 211.16,-862.92 215.41,-857.09 219.16,-863.26 214.9,-869.08"/>
</a>
</g>
<text xml:space="preserve" text-anchor="start" x="217.75" y="-997.75" font-family="Helvetica,sans-Serif" font-size="10.00" fill="grey">+elements</text>
</g>
<!-- Node27 -->
<g id="Node000027" class="node">
<title>Node27</title>
<g id="a_Node000027"><a xlink:title=" ">
<polygon fill="white" stroke="none" points="1090.38,-273.75 933.12,-273.75 933.12,-176.5 1090.38,-176.5 1090.38,-273.75"/>
<text xml:space="preserve" text-anchor="start" x="937.12" y="-260.25" font-family="Helvetica,sans-Serif" font-size="10.00">std::priority_queue</text>
<text xml:space="preserve" text-anchor="start" x="937.12" y="-247.5" font-family="Helvetica,sans-Serif" font-size="10.00">&lt; mqtt::mqttbroker::</text>
<text xml:space="preserve" text-anchor="start" x="937.12" y="-234.75" font-family="Helvetica,sans-Serif" font-size="10.00">lib::Mqtt::ScheduledPublish,</text>
<text xml:space="preserve" text-anchor="start" x="937.12" y="-222" font-family="Helvetica,sans-Serif" font-size="10.00"> std::vector&lt; mqtt::mqttbroker</text>
<text xml:space="preserve" text-anchor="start" x="937.12" y="-209.25" font-family="Helvetica,sans-Serif" font-size="10.00">::lib::Mqtt::ScheduledPublish</text>
<text xml:space="preserve" text-anchor="start" x="937.12" y="-196.5" font-family="Helvetica,sans-Serif" font-size="10.00"> &gt;, mqtt::mqttbroker::lib::Mqtt</text>
<text xml:space="preserve" text-anchor="start" x="977.25" y="-183.75" font-family="Helvetica,sans-Serif" font-size="10.00">::EarlierFirst &gt;</text>
<polygon fill="none" stroke="#666666" points="933.12,-176.5 933.12,-273.75 1090.38,-273.75 1090.38,-176.5 933.12,-176.5"/>
</a>
</g>
</g>
<!-- Node27&#45;&gt;Node1 -->
<g id="edge33_Node000001_Node000027" class="edge">
<title>Node27&#45;&gt;Node1</title>
<g id="a_edge33_Node000001_Node000027"><a xlink:title=" ">
<path fill="none" stroke="#63b8ff" d="M1007.74,-176.76C1006.52,-162.34 1005.22,-146.94 1004.14,-134.21"/>
<polygon fill="none" stroke="#63b8ff" points="1004.16,-134.46 999.67,-128.82 1003.15,-122.51 1007.64,-128.15 1004.16,-134.46"/>
</a>
</g>
<text xml:space="preserve" text-anchor="start" x="1009.15" y="-146" font-family="Helvetica,sans-Serif" font-size="10.00" fill="grey">&#45;minHeap</text>
</g>
<!-- Node28 -->
<g id="Node000028" class="node">
<title>Node28</title>
<g id="a_Node000028"><a xlink:href="structmqtt_1_1mqttbroker_1_1lib_1_1Mqtt_1_1ScheduledPublish.html" target="_top" xlink:title=" ">
<polygon fill="white" stroke="none" points="1092.75,-362 964.75,-362 964.75,-328.5 1092.75,-328.5 1092.75,-362"/>
<text xml:space="preserve" text-anchor="start" x="968.75" y="-348.5" font-family="Helvetica,sans-Serif" font-size="10.00">mqtt::mqttbroker::lib</text>
<text xml:space="preserve" text-anchor="start" x="968.75" y="-335.75" font-family="Helvetica,sans-Serif" font-size="10.00">::Mqtt::ScheduledPublish</text>
<polygon fill="none" stroke="#666666" points="964.75,-328.5 964.75,-362 1092.75,-362 1092.75,-328.5 964.75,-328.5"/>
</a>
</g>
</g>
<!-- Node28&#45;&gt;Node27 -->
<g id="edge34_Node000027_Node000028" class="edge">
<title>Node28&#45;&gt;Node27</title>
<g id="a_edge34_Node000027_Node000028"><a xlink:title=" ">
<path fill="none" stroke="#63b8ff" d="M1026.53,-328.81C1024.94,-317.75 1022.68,-302.09 1020.41,-286.33"/>
<polygon fill="none" stroke="#63b8ff" points="1020.44,-286.52 1015.63,-281.15 1018.73,-274.64 1023.55,-280.01 1020.44,-286.52"/>
</a>
</g>
<text xml:space="preserve" text-anchor="start" x="1026.73" y="-298" font-family="Helvetica,sans-Serif" font-size="10.00" fill="grey">+elements</text>
</g>
</g>
</svg>
