<?xml version="1.0" encoding="UTF-8" standalone="no"?>
<!DOCTYPE svg PUBLIC "-//W3C//DTD SVG 1.1//EN"
 "http://www.w3.org/Graphics/SVG/1.1/DTD/svg11.dtd">
<!-- Generated by graphviz version 2.42.4 (0)
 -->
<!-- Title: mqtt::mqttbroker::lib::Mqtt Pages: 1 -->
<!--zoomable 1031 -->

<svg id="main" version="1.1" xmlns="http://www.w3.org/2000/svg" xmlns:xlink="http://www.w3.org/1999/xlink" xml:space="preserve" onload="init(evt)">
<style type="text/css"><![CDATA[
.node, .edge {opacity: 0.7;}
.node.selected, .edge.selected {opacity: 1;}
.edge:hover path { stroke: red; }
.edge:hover polygon { stroke: red; fill: red; }
]]></style>

<defs>
  <circle id="rim" cx="0" cy="0" r="7"/>
  <circle id="rim2" cx="0" cy="0" r="3.5"/>
  <g id="zoomPlus">
    <use xlink:href="#rim" fill="#404040"><set attributeName="fill" to="#808080" begin="zoomplus.mouseover" end="zoomplus.mouseout"/></use>
    <path d="M-4,0h8M0,-4v8" fill="none" stroke="white" stroke-width="1.5" pointer-events="none"/>
  </g>
  <g id="zoomMin">
    <use xlink:href="#rim" fill="#404040"><set attributeName="fill" to="#808080" begin="zoomminus.mouseover" end="zoomminus.mouseout"/></use>
    <path d="M-4,0h8" fill="none" stroke="white" stroke-width="1.5" pointer-events="none"/>
  </g>
  <g id="arrowUp" transform="translate(30 24)">
    <use xlink:href="#rim"/>
    <path pointer-events="none" fill="none" stroke="white" stroke-width="1.5" d="M0,-3.0v7 M-2.5,-0.5L0,-3.0L2.5,-0.5"/>
  </g>
  <g id="arrowRight" transform="rotate(90) translate(36 -43)">
    <use xlink:href="#rim"/>
    <path pointer-events="none" fill="none" stroke="white" stroke-width="1.5" d="M0,-3.0v7 M-2.5,-0.5L0,-3.0L2.5,-0.5"/>
  </g>
  <g id="arrowDown" transform="rotate(180) translate(-30 -48)">
    <use xlink:href="#rim"/>
    <path pointer-events="none" fill="none" stroke="white" stroke-width="1.5" d="M0,-3.0v7 M-2.5,-0.5L0,-3.0L2.5,-0.5"/>
  </g>
  <g id="arrowLeft" transform="rotate(270) translate(-36 17)">
    <use xlink:href="#rim"/>
    <path pointer-events="none" fill="none" stroke="white" stroke-width="1.5" d="M0,-3.0v7 M-2.5,-0.5L0,-3.0L2.5,-0.5"/>
  </g>
  <g id="resetDef">
    <use xlink:href="#rim2" fill="#404040"><set attributeName="fill" to="#808080" begin="reset.mouseover" end="reset.mouseout"/></use>
  </g>
</defs>
<script type="application/ecmascript">
var viewWidth = 940;
var viewHeight = 1031;
var sectionId = 'dynsection-1';
</script>
<script type="application/ecmascript" xlink:href="svg.min.js"/>
<svg id="graph" class="graph">
<g id="viewport">
<title>mqtt::mqttbroker::lib::Mqtt</title>
<!-- Node1 -->
<g id="Node000001" class="node">
<title>Node1</title>
<g id="a_Node000001"><a xlink:title=" ">
<polygon fill="#999999" stroke="transparent" points="193,-30 83,-30 83,0 193,0 193,-30"/>
<text text-anchor="start" x="87" y="-18" font-family="Helvetica,sans-Serif" font-size="10.00">mqtt::mqttbroker::lib</text>
<text text-anchor="start" x="123.5" y="-7" font-family="Helvetica,sans-Serif" font-size="10.00">::Mqtt</text>
<polygon fill="none" stroke="#666666" points="83,0 83,-30 193,-30 193,0 83,0"/>
</a>
</g>
</g>
<!-- Node2 -->
<g id="Node000002" class="node">
<title>Node2</title>
<g id="a_Node000002"><a xlink:title=" ">
<polygon fill="white" stroke="transparent" points="157,-86 41,-86 41,-67 157,-67 157,-86"/>
<text text-anchor="start" x="45" y="-73.5" font-family="Helvetica,sans-Serif" font-size="10.00">iot::mqtt::server::Mqtt</text>
<polygon fill="none" stroke="#666666" points="41,-67 41,-86 157,-86 157,-67 41,-67"/>
</a>
</g>
</g>
<!-- Node2&#45;&gt;Node1 -->
<g id="edge1_Node000001_Node000002" class="edge">
<title>Node2&#45;&gt;Node1</title>
<g id="a_edge1_Node000001_Node000002"><a xlink:title=" ">
<path fill="none" stroke="#63b8ff" d="M110.17,-58.46C116.07,-49.46 123.23,-38.53 128.81,-30.02"/>
<polygon fill="none" stroke="#63b8ff" points="107.14,-56.69 104.59,-66.98 113,-60.53 107.14,-56.69"/>
</a>
</g>
</g>
<!-- Node3 -->
<g id="Node000003" class="node">
<title>Node3</title>
<g id="a_Node000003"><a xlink:href="classmqtt_1_1lib_1_1MqttMapper.html" target="_top" xlink:title=" ">
<polygon fill="white" stroke="transparent" points="291,-86 175,-86 175,-67 291,-67 291,-86"/>
<text text-anchor="start" x="179.5" y="-73.5" font-family="Helvetica,sans-Serif" font-size="10.00">mqtt::lib::MqttMapper</text>
<polygon fill="none" stroke="#666666" points="175,-67 175,-86 291,-86 291,-67 175,-67"/>
</a>
</g>
</g>
<!-- Node3&#45;&gt;Node1 -->
<g id="edge2_Node000001_Node000003" class="edge">
<title>Node3&#45;&gt;Node1</title>
<g id="a_edge2_Node000001_Node000003"><a xlink:title=" ">
<path fill="none" stroke="#63b8ff" d="M210.66,-61.51C195.51,-52.02 175.55,-39.52 160.39,-30.02"/>
<polygon fill="none" stroke="#63b8ff" points="209.06,-64.63 219.39,-66.98 212.77,-58.7 209.06,-64.63"/>
</a>
</g>
</g>
<!-- Node4 -->
<g id="Node000004" class="node">
<title>Node4</title>
<g id="a_Node000004"><a xlink:title=" ">
<polygon fill="white" stroke="transparent" points="227,-152 131,-152 131,-133 227,-133 227,-152"/>
<text text-anchor="start" x="135" y="-139.5" font-family="Helvetica,sans-Serif" font-size="10.00">std::list&lt; void * &gt;</text>
<polygon fill="none" stroke="#666666" points="131,-133 131,-152 227,-152 227,-133 131,-133"/>
</a>
</g>
</g>
<!-- Node4&#45;&gt;Node3 -->
<g id="edge3_Node000003_Node000004" class="edge">
<title>Node4&#45;&gt;Node3</title>
<g id="a_edge3_Node000003_Node000004"><a xlink:title=" ">
<path fill="none" stroke="#63b8ff" d="M178.9,-132.96C179.21,-124.8 180.81,-112.5 187,-104 190.26,-99.52 194.53,-95.68 199.15,-92.43"/>
<polygon fill="none" stroke="#63b8ff" points="199.26,-92.37 202.37,-85.86 209.57,-86.24 206.46,-92.74 199.26,-92.37"/>
</a>
</g>
<text text-anchor="middle" x="225.5" y="-107" font-family="Helvetica,sans-Serif" font-size="10.00" fill="grey"> &#45;pluginHandles</text>
</g>
<!-- Node5 -->
<g id="Node000005" class="node">
<title>Node5</title>
<g id="a_Node000005"><a xlink:href="classinja_1_1Environment.html" target="_top" xlink:title="Class for changing the configuration.">
<polygon fill="white" stroke="transparent" points="341,-152 245,-152 245,-133 341,-133 341,-152"/>
<text text-anchor="start" x="249.5" y="-139.5" font-family="Helvetica,sans-Serif" font-size="10.00">inja::Environment</text>
<polygon fill="none" stroke="#666666" points="245,-133 245,-152 341,-152 341,-133 245,-133"/>
</a>
</g>
</g>
<!-- Node5&#45;&gt;Node3 -->
<g id="edge4_Node000003_Node000005" class="edge">
<title>Node5&#45;&gt;Node3</title>
<g id="a_edge4_Node000003_Node000005"><a xlink:title=" ">
<path fill="none" stroke="#63b8ff" d="M287.02,-132.76C281.46,-124.88 272.74,-113.18 264,-104 260.73,-100.57 257.05,-97.12 253.4,-93.9"/>
<polygon fill="none" stroke="#63b8ff" points="253.28,-93.79 246.12,-92.99 244.1,-86.06 251.27,-86.87 253.28,-93.79"/>
</a>
</g>
<text text-anchor="middle" x="317" y="-107" font-family="Helvetica,sans-Serif" font-size="10.00" fill="grey"> &#45;injaEnvironment</text>
</g>
<!-- Node6 -->
<g id="Node000006" class="node">
<title>Node6</title>
<g id="a_Node000006"><a xlink:href="structinja_1_1LexerConfig.html" target="_top" xlink:title="Class for lexer configuration.">
<polygon fill="white" stroke="transparent" points="92,-527 0,-527 0,-508 92,-508 92,-527"/>
<text text-anchor="start" x="4.5" y="-514.5" font-family="Helvetica,sans-Serif" font-size="10.00">inja::LexerConfig</text>
<polygon fill="none" stroke="#666666" points="0,-508 0,-527 92,-527 92,-508 0,-508"/>
</a>
</g>
</g>
<!-- Node6&#45;&gt;Node5 -->
<g id="edge5_Node000005_Node000006" class="edge">
<title>Node6&#45;&gt;Node5</title>
<g id="a_edge5_Node000005_Node000006"><a xlink:title=" ">
<path fill="none" stroke="#63b8ff" d="M47.72,-507.89C51.04,-490.51 58,-449.93 58,-415.5 58,-415.5 58,-415.5 58,-213 58,-167.87 107.02,-183.78 150,-170 165.35,-165.08 200.96,-158.47 232.81,-153.09"/>
<polygon fill="none" stroke="#63b8ff" points="232.94,-153.07 238.2,-148.13 244.78,-151.09 239.52,-156.03 232.94,-153.07"/>
</a>
</g>
<text text-anchor="middle" x="91.5" y="-320" font-family="Helvetica,sans-Serif" font-size="10.00" fill="grey"> &#45;lexer_config</text>
</g>
<!-- Node7 -->
<g id="Node000007" class="node">
<title>Node7</title>
<g id="a_Node000007"><a xlink:title=" ">
<polygon fill="white" stroke="transparent" points="567,-795 509,-795 509,-776 567,-776 567,-795"/>
<text text-anchor="start" x="513.5" y="-782.5" font-family="Helvetica,sans-Serif" font-size="10.00">std::string</text>
<polygon fill="none" stroke="#666666" points="509,-776 509,-795 567,-795 567,-776 509,-776"/>
</a>
</g>
</g>
<!-- Node7&#45;&gt;Node5 -->
<g id="edge32_Node000005_Node000007" class="edge">
<title>Node7&#45;&gt;Node5</title>
<g id="a_edge32_Node000005_Node000007"><a xlink:title=" ">
<path fill="none" stroke="#63b8ff" d="M508.63,-783.19C460,-780.59 365.23,-773.66 336,-758 233.54,-703.12 164,-677.23 164,-561 164,-561 164,-561 164,-213 164,-192.28 216.22,-169.8 254.21,-156.18"/>
<polygon fill="none" stroke="#63b8ff" points="254.63,-156.03 258.97,-150.28 265.96,-152.08 261.61,-157.83 254.63,-156.03"/>
</a>
</g>
<text text-anchor="middle" x="197.5" y="-373.5" font-family="Helvetica,sans-Serif" font-size="10.00" fill="grey"> #input_path</text>
<text text-anchor="middle" x="197.5" y="-362.5" font-family="Helvetica,sans-Serif" font-size="10.00" fill="grey">#output_path</text>
</g>
<!-- Node7&#45;&gt;Node6 -->
<g id="edge6_Node000006_Node000007" class="edge">
<title>Node7&#45;&gt;Node6</title>
<g id="a_edge6_Node000006_Node000007"><a xlink:title=" ">
<path fill="none" stroke="#63b8ff" d="M508.71,-784.06C403.55,-782.34 50.42,-775.3 34,-758 -23.62,-697.27 16.69,-584.17 36.63,-538.44"/>
<polygon fill="none" stroke="#63b8ff" points="36.66,-538.37 35.5,-531.25 41.61,-527.43 42.78,-534.55 36.66,-538.37"/>
</a>
</g>
<text text-anchor="middle" x="92" y="-750" font-family="Helvetica,sans-Serif" font-size="10.00" fill="grey"> +comment_close</text>
<text text-anchor="start" x="34" y="-739" font-family="Helvetica,sans-Serif" font-size="10.00" fill="grey">+comment_close_force</text>
<text text-anchor="middle" x="92" y="-728" font-family="Helvetica,sans-Serif" font-size="10.00" fill="grey">_rstrip</text>
<text text-anchor="middle" x="92" y="-717" font-family="Helvetica,sans-Serif" font-size="10.00" fill="grey">+comment_open</text>
<text text-anchor="start" x="34" y="-706" font-family="Helvetica,sans-Serif" font-size="10.00" fill="grey">+comment_open_force</text>
<text text-anchor="middle" x="92" y="-695" font-family="Helvetica,sans-Serif" font-size="10.00" fill="grey">_lstrip</text>
<text text-anchor="middle" x="92" y="-684" font-family="Helvetica,sans-Serif" font-size="10.00" fill="grey">+expression_close</text>
<text text-anchor="start" x="34" y="-673" font-family="Helvetica,sans-Serif" font-size="10.00" fill="grey">+expression_close</text>
<text text-anchor="middle" x="92" y="-662" font-family="Helvetica,sans-Serif" font-size="10.00" fill="grey">_force_rstrip</text>
<text text-anchor="middle" x="92" y="-651" font-family="Helvetica,sans-Serif" font-size="10.00" fill="grey">+expression_open</text>
<text text-anchor="start" x="34" y="-640" font-family="Helvetica,sans-Serif" font-size="10.00" fill="grey">+expression_open</text>
<text text-anchor="middle" x="92" y="-629" font-family="Helvetica,sans-Serif" font-size="10.00" fill="grey">_force_lstrip</text>
<text text-anchor="middle" x="92" y="-618" font-family="Helvetica,sans-Serif" font-size="10.00" fill="grey">+line_statement</text>
<text text-anchor="middle" x="92" y="-607" font-family="Helvetica,sans-Serif" font-size="10.00" fill="grey">+open_chars</text>
<text text-anchor="middle" x="92" y="-596" font-family="Helvetica,sans-Serif" font-size="10.00" fill="grey">...</text>
</g>
<!-- Node13 -->
<g id="Node000013" class="node">
<title>Node13</title>
<g id="a_Node000013"><a xlink:title=" ">
<polygon fill="white" stroke="transparent" points="380,-575 268,-575 268,-545 380,-545 380,-575"/>
<text text-anchor="start" x="272.5" y="-563" font-family="Helvetica,sans-Serif" font-size="10.00">std::pair&lt; std::string,</text>
<text text-anchor="start" x="310" y="-552" font-family="Helvetica,sans-Serif" font-size="10.00"> int &gt;</text>
<polygon fill="none" stroke="#666666" points="268,-545 268,-575 380,-575 380,-545 268,-545"/>
</a>
</g>
</g>
<!-- Node7&#45;&gt;Node13 -->
<g id="edge13_Node000013_Node000007" class="edge">
<title>Node7&#45;&gt;Node13</title>
<g id="a_edge13_Node000013_Node000007"><a xlink:title=" ">
<path fill="none" stroke="#63b8ff" d="M508.7,-777.99C494.79,-773.88 478.52,-767.51 466,-758 403.35,-710.43 356.59,-627.55 335.84,-586.11"/>
<polygon fill="none" stroke="#63b8ff" points="335.74,-585.9 329.51,-582.26 330.47,-575.12 336.7,-578.75 335.74,-585.9"/>
</a>
</g>
<text text-anchor="middle" x="495" y="-673" font-family="Helvetica,sans-Serif" font-size="10.00" fill="grey"> +first_type</text>
</g>
<!-- Node15 -->
<g id="Node000015" class="node">
<title>Node15</title>
<g id="a_Node000015"><a xlink:title=" ">
<polygon fill="white" stroke="transparent" points="595,-229 481,-229 481,-199 595,-199 595,-229"/>
<text text-anchor="start" x="485" y="-217" font-family="Helvetica,sans-Serif" font-size="10.00">std::map&lt; std::string,</text>
<text text-anchor="start" x="508" y="-206" font-family="Helvetica,sans-Serif" font-size="10.00"> Template &gt;</text>
<polygon fill="none" stroke="#666666" points="481,-199 481,-229 595,-229 595,-199 481,-199"/>
</a>
</g>
</g>
<!-- Node7&#45;&gt;Node15 -->
<g id="edge16_Node000015_Node000007" class="edge">
<title>Node7&#45;&gt;Node15</title>
<g id="a_edge16_Node000015_Node000007"><a xlink:title=" ">
<path fill="none" stroke="#63b8ff" d="M538,-775.97C538,-746.3 538,-644.81 538,-561 538,-561 538,-561 538,-284.5 538,-270.26 538,-254.38 538,-241.4"/>
<polygon fill="none" stroke="#63b8ff" points="538,-241.11 534,-235.11 538,-229.11 542,-235.11 538,-241.11"/>
</a>
</g>
<text text-anchor="middle" x="555" y="-412" font-family="Helvetica,sans-Serif" font-size="10.00" fill="grey"> +keys</text>
</g>
<!-- Node16 -->
<g id="Node000016" class="node">
<title>Node16</title>
<g id="a_Node000016"><a xlink:href="structinja_1_1Template.html" target="_top" xlink:title="The main inja Template.">
<polygon fill="white" stroke="transparent" points="676,-295 598,-295 598,-276 676,-276 676,-295"/>
<text text-anchor="start" x="602" y="-282.5" font-family="Helvetica,sans-Serif" font-size="10.00">inja::Template</text>
<polygon fill="none" stroke="#666666" points="598,-276 598,-295 676,-295 676,-276 598,-276"/>
</a>
</g>
</g>
<!-- Node7&#45;&gt;Node16 -->
<g id="edge23_Node000016_Node000007" class="edge">
<title>Node7&#45;&gt;Node16</title>
<g id="a_edge23_Node000016_Node000007"><a xlink:title=" ">
<path fill="none" stroke="#63b8ff" d="M543.74,-775.52C546.66,-770.54 550,-764.14 552,-758 596.43,-621.36 569.83,-578.89 598,-438 607.47,-390.64 622.6,-335.97 630.96,-307"/>
<polygon fill="none" stroke="#63b8ff" points="631.01,-306.82 628.85,-299.94 634.37,-295.3 636.53,-302.18 631.01,-306.82"/>
</a>
</g>
<text text-anchor="middle" x="622.5" y="-461.5" font-family="Helvetica,sans-Serif" font-size="10.00" fill="grey"> +content</text>
</g>
<!-- Node21 -->
<g id="Node000021" class="node">
<title>Node21</title>
<g id="a_Node000021"><a xlink:title=" ">
<polygon fill="white" stroke="transparent" points="839,-391 697,-391 697,-350 839,-350 839,-391"/>
<text text-anchor="start" x="701.5" y="-378.5" font-family="Helvetica,sans-Serif" font-size="10.00">std::map&lt; std::string,</text>
<text text-anchor="start" x="701.5" y="-367.5" font-family="Helvetica,sans-Serif" font-size="10.00"> std::shared_ptr&lt; inja</text>
<text text-anchor="start" x="701.5" y="-356.5" font-family="Helvetica,sans-Serif" font-size="10.00">::BlockStatementNode &gt; &gt;</text>
<polygon fill="none" stroke="#666666" points="697,-350 697,-391 839,-391 839,-350 697,-350"/>
</a>
</g>
</g>
<!-- Node7&#45;&gt;Node21 -->
<g id="edge25_Node000021_Node000007" class="edge">
<title>Node7&#45;&gt;Node21</title>
<g id="a_edge25_Node000021_Node000007"><a xlink:title=" ">
<path fill="none" stroke="#63b8ff" d="M567.18,-776.55C577.94,-772.44 589.55,-766.46 598,-758 651.58,-704.34 729.58,-485 757.54,-402.8"/>
<polygon fill="none" stroke="#63b8ff" points="757.6,-402.64 755.73,-395.67 761.44,-391.27 763.31,-398.23 757.6,-402.64"/>
</a>
</g>
<text text-anchor="middle" x="735" y="-515" font-family="Helvetica,sans-Serif" font-size="10.00" fill="grey"> +keys</text>
</g>
<!-- Node23 -->
<g id="Node000023" class="node">
<title>Node23</title>
<g id="a_Node000023"><a xlink:href="classinja_1_1BlockStatementNode.html" target="_top" xlink:title=" ">
<polygon fill="white" stroke="transparent" points="890,-569.5 754,-569.5 754,-550.5 890,-550.5 890,-569.5"/>
<text text-anchor="start" x="758" y="-557" font-family="Helvetica,sans-Serif" font-size="10.00">inja::BlockStatementNode</text>
<polygon fill="none" stroke="#666666" points="754,-550.5 754,-569.5 890,-569.5 890,-550.5 754,-550.5"/>
</a>
</g>
</g>
<!-- Node7&#45;&gt;Node23 -->
<g id="edge30_Node000023_Node000007" class="edge">
<title>Node7&#45;&gt;Node23</title>
<g id="a_edge30_Node000023_Node000007"><a xlink:title=" ">
<path fill="none" stroke="#63b8ff" d="M567.31,-782.57C619.75,-778.83 725.31,-769.9 737,-758 788.73,-705.34 713.29,-653.21 756,-593 761.54,-585.19 769.53,-579.2 778.04,-574.64"/>
<polygon fill="none" stroke="#63b8ff" points="778.07,-574.63 781.84,-568.49 788.96,-569.61 785.19,-575.75 778.07,-574.63"/>
</a>
</g>
<text text-anchor="middle" x="776" y="-673" font-family="Helvetica,sans-Serif" font-size="10.00" fill="grey"> +name</text>
</g>
<!-- Node8 -->
<g id="Node000008" class="node">
<title>Node8</title>
<g id="a_Node000008"><a xlink:title=" ">
<polygon fill="white" stroke="transparent" points="586,-872 490,-872 490,-842 586,-842 586,-872"/>
<text text-anchor="start" x="494" y="-860" font-family="Helvetica,sans-Serif" font-size="10.00">std::basic_string&lt;</text>
<text text-anchor="start" x="519.5" y="-849" font-family="Helvetica,sans-Serif" font-size="10.00"> Char &gt;</text>
<polygon fill="none" stroke="#666666" points="490,-842 490,-872 586,-872 586,-842 490,-842"/>
</a>
</g>
</g>
<!-- Node8&#45;&gt;Node7 -->
<g id="edge7_Node000007_Node000008" class="edge">
<title>Node8&#45;&gt;Node7</title>
<g id="a_edge7_Node000007_Node000008"><a xlink:title=" ">
<path fill="none" stroke="#63b8ff" d="M538,-831.56C538,-818.95 538,-804.35 538,-795.27"/>
<polygon fill="none" stroke="#63b8ff" points="534.5,-831.94 538,-841.94 541.5,-831.94 534.5,-831.94"/>
</a>
</g>
</g>
<!-- Node9 -->
<g id="Node000009" class="node">
<title>Node9</title>
<g id="a_Node000009"><a xlink:href="structinja_1_1ParserConfig.html" target="_top" xlink:title="Class for parser configuration.">
<polygon fill="white" stroke="transparent" points="288,-223.5 192,-223.5 192,-204.5 288,-204.5 288,-223.5"/>
<text text-anchor="start" x="196.5" y="-211" font-family="Helvetica,sans-Serif" font-size="10.00">inja::ParserConfig</text>
<polygon fill="none" stroke="#666666" points="192,-204.5 192,-223.5 288,-223.5 288,-204.5 192,-204.5"/>
</a>
</g>
</g>
<!-- Node9&#45;&gt;Node5 -->
<g id="edge8_Node000005_Node000009" class="edge">
<title>Node9&#45;&gt;Node5</title>
<g id="a_edge8_Node000005_Node000009"><a xlink:title=" ">
<path fill="none" stroke="#63b8ff" d="M240.1,-204.28C240.62,-194.98 242.66,-180.2 250,-170 253.11,-165.68 257.17,-161.91 261.54,-158.68"/>
<polygon fill="none" stroke="#63b8ff" points="261.87,-158.48 264.84,-151.91 272.05,-152.12 269.08,-158.69 261.87,-158.48"/>
</a>
</g>
<text text-anchor="middle" x="286.5" y="-173" font-family="Helvetica,sans-Serif" font-size="10.00" fill="grey"> &#45;parser_config</text>
</g>
<!-- Node10 -->
<g id="Node000010" class="node">
<title>Node10</title>
<g id="a_Node000010"><a xlink:href="structinja_1_1RenderConfig.html" target="_top" xlink:title="Class for render configuration.">
<polygon fill="white" stroke="transparent" points="406,-223.5 306,-223.5 306,-204.5 406,-204.5 406,-223.5"/>
<text text-anchor="start" x="310.5" y="-211" font-family="Helvetica,sans-Serif" font-size="10.00">inja::RenderConfig</text>
<polygon fill="none" stroke="#666666" points="306,-204.5 306,-223.5 406,-223.5 406,-204.5 306,-204.5"/>
</a>
</g>
</g>
<!-- Node10&#45;&gt;Node5 -->
<g id="edge9_Node000005_Node000010" class="edge">
<title>Node10&#45;&gt;Node5</title>
<g id="a_edge9_Node000005_Node000010"><a xlink:title=" ">
<path fill="none" stroke="#63b8ff" d="M350.13,-204.37C343.85,-195.4 333.4,-181.14 323,-170 319.92,-166.7 316.47,-163.37 313.04,-160.23"/>
<polygon fill="none" stroke="#63b8ff" points="312.77,-160 305.62,-159.07 303.73,-152.11 310.88,-153.04 312.77,-160"/>
</a>
</g>
<text text-anchor="middle" x="368" y="-173" font-family="Helvetica,sans-Serif" font-size="10.00" fill="grey"> &#45;render_config</text>
</g>
<!-- Node11 -->
<g id="Node000011" class="node">
<title>Node11</title>
<g id="a_Node000011"><a xlink:href="classinja_1_1FunctionStorage.html" target="_top" xlink:title="Class for builtin functions and user&#45;defined callbacks.">
<polygon fill="white" stroke="transparent" points="486,-332 374,-332 374,-313 486,-313 486,-332"/>
<text text-anchor="start" x="378.5" y="-319.5" font-family="Helvetica,sans-Serif" font-size="10.00">inja::FunctionStorage</text>
<polygon fill="none" stroke="#666666" points="374,-313 374,-332 486,-332 486,-313 374,-313"/>
</a>
</g>
</g>
<!-- Node11&#45;&gt;Node5 -->
<g id="edge10_Node000005_Node000011" class="edge">
<title>Node11&#45;&gt;Node5</title>
<g id="a_edge10_Node000005_Node000011"><a xlink:title=" ">
<path fill="none" stroke="#63b8ff" d="M430.09,-312.66C430.21,-283.39 428.98,-190.39 409,-170 400.81,-161.64 377.13,-155.48 353.28,-151.22"/>
<polygon fill="none" stroke="#63b8ff" points="353.09,-151.19 346.52,-154.16 341.26,-149.23 347.83,-146.26 353.09,-151.19"/>
</a>
</g>
<text text-anchor="middle" x="472.5" y="-250" font-family="Helvetica,sans-Serif" font-size="10.00" fill="grey"> &#45;function_storage</text>
</g>
<!-- Node12 -->
<g id="Node000012" class="node">
<title>Node12</title>
<g id="a_Node000012"><a xlink:title=" ">
<polygon fill="white" stroke="transparent" points="485,-490 367,-490 367,-438 485,-438 485,-490"/>
<text text-anchor="start" x="371.5" y="-478" font-family="Helvetica,sans-Serif" font-size="10.00">std::map&lt; std::pair</text>
<text text-anchor="start" x="371.5" y="-467" font-family="Helvetica,sans-Serif" font-size="10.00">&lt; std::string, int &gt;</text>
<text text-anchor="start" x="371.5" y="-456" font-family="Helvetica,sans-Serif" font-size="10.00">, inja::FunctionStorage</text>
<text text-anchor="start" x="385" y="-445" font-family="Helvetica,sans-Serif" font-size="10.00">::FunctionData &gt;</text>
<polygon fill="none" stroke="#666666" points="367,-438 367,-490 485,-490 485,-438 367,-438"/>
</a>
</g>
</g>
<!-- Node12&#45;&gt;Node11 -->
<g id="edge11_Node000011_Node000012" class="edge">
<title>Node12&#45;&gt;Node11</title>
<g id="a_edge11_Node000011_Node000012"><a xlink:title=" ">
<path fill="none" stroke="#63b8ff" d="M426.38,-438C426.54,-428.87 426.75,-418.47 427,-409 427.59,-387.08 428.49,-362.02 429.16,-344.72"/>
<polygon fill="none" stroke="#63b8ff" points="429.17,-344.48 425.4,-338.32 429.64,-332.48 433.4,-338.64 429.17,-344.48"/>
</a>
</g>
<text text-anchor="middle" x="471.5" y="-412" font-family="Helvetica,sans-Serif" font-size="10.00" fill="grey"> &#45;function_storage</text>
</g>
<!-- Node13&#45;&gt;Node12 -->
<g id="edge12_Node000012_Node000013" class="edge">
<title>Node13&#45;&gt;Node12</title>
<g id="a_edge12_Node000012_Node000013"><a xlink:title=" ">
<path fill="none" stroke="#63b8ff" d="M339.49,-544.72C352.75,-532.5 372.37,-514.42 389.57,-498.57"/>
<polygon fill="none" stroke="#63b8ff" points="390,-498.17 391.7,-491.17 398.83,-490.04 397.13,-497.05 390,-498.17"/>
</a>
</g>
<text text-anchor="middle" x="395" y="-515" font-family="Helvetica,sans-Serif" font-size="10.00" fill="grey"> +keys</text>
</g>
<!-- Node14 -->
<g id="Node000014" class="node">
<title>Node14</title>
<g id="a_Node000014"><a xlink:href="structinja_1_1FunctionStorage_1_1FunctionData.html" target="_top" xlink:title=" ">
<polygon fill="white" stroke="transparent" points="510,-575 398,-575 398,-545 510,-545 510,-575"/>
<text text-anchor="start" x="402.5" y="-563" font-family="Helvetica,sans-Serif" font-size="10.00">inja::FunctionStorage</text>
<text text-anchor="start" x="418.5" y="-552" font-family="Helvetica,sans-Serif" font-size="10.00">::FunctionData</text>
<polygon fill="none" stroke="#666666" points="398,-545 398,-575 510,-575 510,-545 398,-545"/>
</a>
</g>
</g>
<!-- Node14&#45;&gt;Node12 -->
<g id="edge14_Node000012_Node000014" class="edge">
<title>Node14&#45;&gt;Node12</title>
<g id="a_edge14_Node000012_Node000014"><a xlink:title=" ">
<path fill="none" stroke="#63b8ff" d="M449.75,-544.72C446.34,-533.3 441.41,-516.74 436.93,-501.68"/>
<polygon fill="none" stroke="#63b8ff" points="436.89,-501.54 431.34,-496.93 433.46,-490.04 439.01,-494.65 436.89,-501.54"/>
</a>
</g>
<text text-anchor="middle" x="473" y="-515" font-family="Helvetica,sans-Serif" font-size="10.00" fill="grey"> +elements</text>
</g>
<!-- Node15&#45;&gt;Node5 -->
<g id="edge15_Node000005_Node000015" class="edge">
<title>Node15&#45;&gt;Node5</title>
<g id="a_edge15_Node000005_Node000015"><a xlink:title=" ">
<path fill="none" stroke="#63b8ff" d="M513.16,-198.83C495.5,-189.34 470.94,-177.29 448,-170 417.49,-160.31 382.42,-153.94 353.35,-149.88"/>
<polygon fill="none" stroke="#63b8ff" points="353.19,-149.86 346.72,-153.03 341.3,-148.27 347.77,-145.1 353.19,-149.86"/>
</a>
</g>
<text text-anchor="middle" x="523" y="-173" font-family="Helvetica,sans-Serif" font-size="10.00" fill="grey"> &#45;template_storage</text>
</g>
<!-- Node16&#45;&gt;Node15 -->
<g id="edge17_Node000015_Node000016" class="edge">
<title>Node16&#45;&gt;Node15</title>
<g id="a_edge17_Node000015_Node000016"><a xlink:title=" ">
<path fill="none" stroke="#63b8ff" d="M624.86,-275.98C610.83,-266.13 587.23,-249.56 568.17,-236.18"/>
<polygon fill="none" stroke="#63b8ff" points="567.96,-236.03 560.75,-235.86 558.14,-229.14 565.35,-229.31 567.96,-236.03"/>
</a>
</g>
<text text-anchor="middle" x="625" y="-250" font-family="Helvetica,sans-Serif" font-size="10.00" fill="grey"> +elements</text>
</g>
<!-- Node17 -->
<g id="Node000017" class="node">
<title>Node17</title>
<g id="a_Node000017"><a xlink:href="classinja_1_1BlockNode.html" target="_top" xlink:title=" ">
<polygon fill="white" stroke="transparent" points="746,-795 660,-795 660,-776 746,-776 746,-795"/>
<text text-anchor="start" x="664.5" y="-782.5" font-family="Helvetica,sans-Serif" font-size="10.00">inja::BlockNode</text>
<polygon fill="none" stroke="#666666" points="660,-776 660,-795 746,-795 746,-776 660,-776"/>
</a>
</g>
</g>
<!-- Node17&#45;&gt;Node16 -->
<g id="edge18_Node000016_Node000017" class="edge">
<title>Node17&#45;&gt;Node16</title>
<g id="a_edge18_Node000016_Node000017"><a xlink:title=" ">
<path fill="none" stroke="#63b8ff" d="M700.66,-775.63C692.98,-745.67 669,-645.38 669,-561 669,-561 669,-561 669,-369.5 669,-346.61 658.27,-322.4 649.24,-306.08"/>
<polygon fill="none" stroke="#63b8ff" points="648.97,-305.61 642.47,-302.48 642.87,-295.28 649.36,-298.41 648.97,-305.61"/>
</a>
</g>
<text text-anchor="middle" x="684.5" y="-461.5" font-family="Helvetica,sans-Serif" font-size="10.00" fill="grey"> +root</text>
</g>
<!-- Node17&#45;&gt;Node23 -->
<g id="edge31_Node000023_Node000017" class="edge">
<title>Node17&#45;&gt;Node23</title>
<g id="a_edge31_Node000023_Node000017"><a xlink:title=" ">
<path fill="none" stroke="#63b8ff" d="M746.49,-783.2C765.69,-780.27 786.84,-773.39 800,-758 822.25,-731.99 823.21,-627.43 822.52,-582.12"/>
<polygon fill="none" stroke="#63b8ff" points="822.52,-581.88 818.4,-575.96 822.28,-569.89 826.4,-575.8 822.52,-581.88"/>
</a>
</g>
<text text-anchor="middle" x="842" y="-678.5" font-family="Helvetica,sans-Serif" font-size="10.00" fill="grey"> +block</text>
<text text-anchor="middle" x="842" y="-667.5" font-family="Helvetica,sans-Serif" font-size="10.00" fill="grey">+parent</text>
</g>
<!-- Node18 -->
<g id="Node000018" class="node">
<title>Node18</title>
<g id="a_Node000018"><a xlink:href="classinja_1_1AstNode.html" target="_top" xlink:title="Base node class for the abstract syntax tree (AST).">
<polygon fill="white" stroke="transparent" points="796,-1023 722,-1023 722,-1004 796,-1004 796,-1023"/>
<text text-anchor="start" x="726" y="-1010.5" font-family="Helvetica,sans-Serif" font-size="10.00">inja::AstNode</text>
<polygon fill="none" stroke="#666666" points="722,-1004 722,-1023 796,-1023 796,-1004 722,-1004"/>
</a>
</g>
</g>
<!-- Node18&#45;&gt;Node17 -->
<g id="edge19_Node000017_Node000018" class="edge">
<title>Node18&#45;&gt;Node17</title>
<g id="a_edge19_Node000017_Node000018"><a xlink:title=" ">
<path fill="none" stroke="#63b8ff" d="M734.18,-998.58C719.66,-988.95 702.55,-974.71 694,-957 666.81,-900.67 690.56,-821.37 699.74,-795.23"/>
<polygon fill="none" stroke="#63b8ff" points="732.45,-1001.62 742.79,-1003.96 736.17,-995.69 732.45,-1001.62"/>
</a>
</g>
</g>
<!-- Node20 -->
<g id="Node000020" class="node">
<title>Node20</title>
<g id="a_Node000020"><a xlink:title=" ">
<polygon fill="white" stroke="transparent" points="815,-957 703,-957 703,-927 815,-927 815,-957"/>
<text text-anchor="start" x="707.5" y="-945" font-family="Helvetica,sans-Serif" font-size="10.00">std::shared_ptr&lt; inja</text>
<text text-anchor="start" x="729.5" y="-934" font-family="Helvetica,sans-Serif" font-size="10.00">::AstNode &gt;</text>
<polygon fill="none" stroke="#666666" points="703,-927 703,-957 815,-957 815,-927 703,-927"/>
</a>
</g>
</g>
<!-- Node18&#45;&gt;Node20 -->
<g id="edge22_Node000020_Node000018" class="edge">
<title>Node18&#45;&gt;Node20</title>
<g id="a_edge22_Node000020_Node000018"><a xlink:title=" ">
<path fill="none" stroke="#63b8ff" d="M759,-1003.98C759,-995.41 759,-981.75 759,-969.52"/>
<polygon fill="none" stroke="#63b8ff" points="759,-969.14 755,-963.14 759,-957.14 763,-963.14 759,-969.14"/>
</a>
</g>
<text text-anchor="middle" x="771.5" y="-978" font-family="Helvetica,sans-Serif" font-size="10.00" fill="grey"> +ptr</text>
</g>
<!-- Node24 -->
<g id="Node000024" class="node">
<title>Node24</title>
<g id="a_Node000024"><a xlink:href="classinja_1_1StatementNode.html" target="_top" xlink:title=" ">
<polygon fill="white" stroke="transparent" points="932,-909 822,-909 822,-890 932,-890 932,-909"/>
<text text-anchor="start" x="826.5" y="-896.5" font-family="Helvetica,sans-Serif" font-size="10.00">inja::StatementNode</text>
<polygon fill="none" stroke="#666666" points="822,-890 822,-909 932,-909 932,-890 822,-890"/>
</a>
</g>
</g>
<!-- Node18&#45;&gt;Node24 -->
<g id="edge29_Node000024_Node000018" class="edge">
<title>Node18&#45;&gt;Node24</title>
<g id="a_edge29_Node000024_Node000018"><a xlink:title=" ">
<path fill="none" stroke="#63b8ff" d="M777.84,-997.35C791.08,-986.48 809.03,-971.29 824,-957 840.93,-940.84 859.33,-920.55 869.38,-909.2"/>
<polygon fill="none" stroke="#63b8ff" points="775.44,-994.79 769.9,-1003.81 779.86,-1000.21 775.44,-994.79"/>
</a>
</g>
</g>
<!-- Node19 -->
<g id="Node000019" class="node">
<title>Node19</title>
<g id="a_Node000019"><a xlink:title=" ">
<polygon fill="white" stroke="transparent" points="826,-872 700,-872 700,-842 826,-842 826,-872"/>
<text text-anchor="start" x="704" y="-860" font-family="Helvetica,sans-Serif" font-size="10.00">std::vector&lt; std::shared</text>
<text text-anchor="start" x="704" y="-849" font-family="Helvetica,sans-Serif" font-size="10.00">_ptr&lt; inja::AstNode &gt; &gt;</text>
<polygon fill="none" stroke="#666666" points="700,-842 700,-872 826,-872 826,-842 700,-842"/>
</a>
</g>
</g>
<!-- Node19&#45;&gt;Node17 -->
<g id="edge20_Node000017_Node000019" class="edge">
<title>Node19&#45;&gt;Node17</title>
<g id="a_edge20_Node000017_Node000019"><a xlink:title=" ">
<path fill="none" stroke="#63b8ff" d="M750.86,-841.94C741.54,-831.14 728.6,-816.15 718.52,-804.48"/>
<polygon fill="none" stroke="#63b8ff" points="718.41,-804.35 711.46,-802.42 710.57,-795.27 717.52,-797.19 718.41,-804.35"/>
</a>
</g>
<text text-anchor="middle" x="754.5" y="-816" font-family="Helvetica,sans-Serif" font-size="10.00" fill="grey"> +nodes</text>
</g>
<!-- Node20&#45;&gt;Node19 -->
<g id="edge21_Node000019_Node000020" class="edge">
<title>Node20&#45;&gt;Node19</title>
<g id="a_edge21_Node000019_Node000020"><a xlink:title=" ">
<path fill="none" stroke="#63b8ff" d="M756.34,-926.68C754.82,-916.44 753.48,-902.34 755,-890 755.24,-888.06 755.56,-886.07 755.93,-884.08"/>
<polygon fill="none" stroke="#63b8ff" points="755.97,-883.89 753.42,-877.15 758.66,-872.2 761.21,-878.94 755.97,-883.89"/>
</a>
</g>
<text text-anchor="middle" x="784" y="-897" font-family="Helvetica,sans-Serif" font-size="10.00" fill="grey"> +elements</text>
</g>
<!-- Node21&#45;&gt;Node16 -->
<g id="edge24_Node000016_Node000021" class="edge">
<title>Node21&#45;&gt;Node16</title>
<g id="a_edge24_Node000016_Node000021"><a xlink:title=" ">
<path fill="none" stroke="#63b8ff" d="M739.57,-349.95C723.2,-338.85 702.13,-324.85 683,-313 676.58,-309.02 669.55,-304.87 662.96,-301.07"/>
<polygon fill="none" stroke="#63b8ff" points="662.9,-301.04 655.71,-301.54 652.48,-295.09 659.67,-294.59 662.9,-301.04"/>
</a>
</g>
<text text-anchor="middle" x="751" y="-320" font-family="Helvetica,sans-Serif" font-size="10.00" fill="grey"> +block_storage</text>
</g>
<!-- Node22 -->
<g id="Node000022" class="node">
<title>Node22</title>
<g id="a_Node000022"><a xlink:title=" ">
<polygon fill="white" stroke="transparent" points="886,-479 756,-479 756,-449 886,-449 886,-479"/>
<text text-anchor="start" x="760.5" y="-467" font-family="Helvetica,sans-Serif" font-size="10.00">std::shared_ptr&lt; inja</text>
<text text-anchor="start" x="760.5" y="-456" font-family="Helvetica,sans-Serif" font-size="10.00">::BlockStatementNode &gt;</text>
<polygon fill="none" stroke="#666666" points="756,-449 756,-479 886,-479 886,-449 756,-449"/>
</a>
</g>
</g>
<!-- Node22&#45;&gt;Node21 -->
<g id="edge26_Node000021_Node000022" class="edge">
<title>Node22&#45;&gt;Node21</title>
<g id="a_edge26_Node000021_Node000022"><a xlink:title=" ">
<path fill="none" stroke="#63b8ff" d="M812.72,-448.7C805.43,-436.12 794.59,-417.4 785.4,-401.54"/>
<polygon fill="none" stroke="#63b8ff" points="785.38,-401.51 778.92,-398.33 779.37,-391.13 785.84,-394.32 785.38,-401.51"/>
</a>
</g>
<text text-anchor="middle" x="825" y="-412" font-family="Helvetica,sans-Serif" font-size="10.00" fill="grey"> +elements</text>
</g>
<!-- Node23&#45;&gt;Node22 -->
<g id="edge27_Node000022_Node000023" class="edge">
<title>Node23&#45;&gt;Node22</title>
<g id="a_edge27_Node000022_Node000023"><a xlink:title=" ">
<path fill="none" stroke="#63b8ff" d="M821.91,-550.33C821.77,-537.04 821.49,-511.12 821.28,-491.32"/>
<polygon fill="none" stroke="#63b8ff" points="821.28,-491.1 817.21,-485.14 821.15,-479.1 825.21,-485.06 821.28,-491.1"/>
</a>
</g>
<text text-anchor="middle" x="833.5" y="-515" font-family="Helvetica,sans-Serif" font-size="10.00" fill="grey"> +ptr</text>
</g>
<!-- Node24&#45;&gt;Node23 -->
<g id="edge28_Node000023_Node000024" class="edge">
<title>Node24&#45;&gt;Node23</title>
<g id="a_edge28_Node000023_Node000024"><a xlink:title=" ">
<path fill="none" stroke="#63b8ff" d="M881.22,-879.86C891.49,-829.97 913.42,-690.59 863,-593 857.78,-582.89 847.76,-574.98 838.94,-569.56"/>
<polygon fill="none" stroke="#63b8ff" points="877.76,-879.31 879.07,-889.82 884.6,-880.79 877.76,-879.31"/>
</a>
</g>
</g>
</g>
</svg>

<g id="navigator" transform="translate(0 0)" fill="#404254">
  <rect fill="#f2f5e9" fill-opacity="0.5" stroke="#606060" stroke-width=".5" x="0" y="0" width="60" height="60"/>
  <use id="zoomplus" xlink:href="#zoomPlus" x="17" y="9" onmousedown="handleZoom(evt,'in')"/>
  <use id="zoomminus" xlink:href="#zoomMin" x="42" y="9" onmousedown="handleZoom(evt,'out')"/>
  <use id="reset" xlink:href="#resetDef" x="30" y="36" onmousedown="handleReset()"/>
   <use id="arrowup" xlink:href="#arrowUp" x="0" y="0" onmousedown="handlePan(0,-1)"/>
  <use id="arrowright" xlink:href="#arrowRight" x="0" y="0" onmousedown="handlePan(1,0)"/>
  <use id="arrowdown" xlink:href="#arrowDown" x="0" y="0" onmousedown="handlePan(0,1)"/>
  <use id="arrowleft" xlink:href="#arrowLeft" x="0" y="0" onmousedown="handlePan(-1,0)"/>
</g>
<svg viewBox="0 0 15 15" width="100%" height="30px" preserveAspectRatio="xMaxYMin meet">
 <g id="arrow_out" transform="scale(0.3 0.3)">
  <a xlink:href="classmqtt_1_1mqttbroker_1_1lib_1_1Mqtt__coll__graph_org.svg" target="_base">
   <rect id="button" ry="5" rx="5" y="6" x="6" height="38" width="38"
        fill="#f2f5e9" fill-opacity="0.5" stroke="#606060" stroke-width="1.0"/>
   <path id="arrow"
     d="M 11.500037,31.436501 C 11.940474,20.09759 22.043105,11.32322 32.158766,21.979434 L 37.068811,17.246167 C 37.068811,17.246167 37.088388,32 37.088388,32 L 22.160133,31.978069 C 22.160133,31.978069 26.997745,27.140456 26.997745,27.140456 C 18.528582,18.264221 13.291696,25.230495 11.500037,31.436501 z"
     style="fill:#404040;"/>
  </a>
 </g>
</svg>

<style type='text/css'>
<![CDATA[
[data-mouse-over-selected='false'] { opacity: 0.7; }
[data-mouse-over-selected='true']  { opacity: 1.0; }
]]>
</style>
<script type="application/ecmascript"><![CDATA[
document.addEventListener('DOMContentLoaded', (event) => {
  highlightEdges();
  highlightAdjacentNodes();
});
]]></script>
</svg>
