<?xml version="1.0" encoding="UTF-8" standalone="no"?>
<!DOCTYPE svg PUBLIC "-//W3C//DTD SVG 1.1//EN"
 "http://www.w3.org/Graphics/SVG/1.1/DTD/svg11.dtd">
<!-- Generated by graphviz version 14.1.2 (0)
 -->
<!-- Title: inja::Lexer::scan Pages: 1 -->
<svg width="2265pt" height="382pt"
 viewBox="0.00 0.00 2265.00 382.00" xmlns="http://www.w3.org/2000/svg" xmlns:xlink="http://www.w3.org/1999/xlink">
<g id="graph0" class="graph" transform="scale(1 1) rotate(0) translate(4 377.5)">
<title>inja::Lexer::scan</title>
<!-- Node1 -->
<g id="Node000001" class="node">
<title>Node1</title>
<g id="a_Node000001"><a xlink:title=" ">
<polygon fill="#999999" stroke="#666666" points="2256.75,-326.12 2161.25,-326.12 2161.25,-305.38 2256.75,-305.38 2256.75,-326.12"/>
<text xml:space="preserve" text-anchor="middle" x="2209" y="-312.62" font-family="Helvetica,sans-Serif" font-size="10.00">inja::Lexer::scan</text>
</a>
</g>
</g>
<!-- Node2 -->
<g id="Node000002" class="node">
<title>Node2</title>
<g id="a_Node000002"><a xlink:href="classinja_1_1Parser.html#ab8bb45bc1eeead74f630efa420ee6212" target="_top" xlink:title=" ">
<polygon fill="white" stroke="#666666" points="2124.12,-306.5 2004.62,-306.5 2004.62,-273 2124.12,-273 2124.12,-306.5"/>
<text xml:space="preserve" text-anchor="start" x="2012.62" y="-293" font-family="Helvetica,sans-Serif" font-size="10.00">inja::Parser::get_next</text>
<text xml:space="preserve" text-anchor="middle" x="2064.38" y="-280.25" font-family="Helvetica,sans-Serif" font-size="10.00">_token</text>
</a>
</g>
</g>
<!-- Node1&#45;&gt;Node2 -->
<g id="edge1_Node000001_Node000002" class="edge">
<title>Node1&#45;&gt;Node2</title>
<g id="a_edge1_Node000001_Node000002"><a xlink:title=" ">
<path fill="none" stroke="#63b8ff" d="M2149.71,-305.12C2141.35,-303.6 2132.75,-302.03 2124.38,-300.51"/>
<polygon fill="#63b8ff" stroke="#63b8ff" points="2148.95,-308.54 2159.41,-306.89 2150.2,-301.66 2148.95,-308.54"/>
</a>
</g>
</g>
<!-- Node29 -->
<g id="Node000029" class="node">
<title>Node29</title>
<g id="a_Node000029"><a xlink:href="classinja_1_1Parser.html#a16b5b7d40ed3e6a536194d1367626fd9" target="_top" xlink:title=" ">
<polygon fill="white" stroke="#666666" points="2125.25,-358.5 2003.5,-358.5 2003.5,-325 2125.25,-325 2125.25,-358.5"/>
<text xml:space="preserve" text-anchor="start" x="2011.5" y="-345" font-family="Helvetica,sans-Serif" font-size="10.00">inja::Parser::get_peek</text>
<text xml:space="preserve" text-anchor="middle" x="2064.38" y="-332.25" font-family="Helvetica,sans-Serif" font-size="10.00">_token</text>
</a>
</g>
</g>
<!-- Node1&#45;&gt;Node29 -->
<g id="edge36_Node000001_Node000029" class="edge">
<title>Node1&#45;&gt;Node29</title>
<g id="a_edge36_Node000001_Node000029"><a xlink:title=" ">
<path fill="none" stroke="#63b8ff" d="M2149.83,-326.35C2141.86,-327.81 2133.66,-329.3 2125.65,-330.76"/>
<polygon fill="#63b8ff" stroke="#63b8ff" points="2150.2,-329.84 2159.41,-324.61 2148.95,-322.96 2150.2,-329.84"/>
</a>
</g>
</g>
<!-- Node3 -->
<g id="Node000003" class="node">
<title>Node3</title>
<g id="a_Node000003"><a xlink:href="classinja_1_1Parser.html#a7dda6b9f4295c215e097f45d573d8d69" target="_top" xlink:title=" ">
<polygon fill="white" stroke="#666666" points="1967.5,-355.5 1863.75,-355.5 1863.75,-322 1967.5,-322 1967.5,-355.5"/>
<text xml:space="preserve" text-anchor="start" x="1871.75" y="-342" font-family="Helvetica,sans-Serif" font-size="10.00">inja::Parser::parse</text>
<text xml:space="preserve" text-anchor="middle" x="1915.62" y="-329.25" font-family="Helvetica,sans-Serif" font-size="10.00">_expression</text>
</a>
</g>
</g>
<!-- Node2&#45;&gt;Node3 -->
<g id="edge2_Node000002_Node000003" class="edge">
<title>Node2&#45;&gt;Node3</title>
<g id="a_edge2_Node000002_Node000003"><a xlink:title=" ">
<path fill="none" stroke="#63b8ff" d="M2001.42,-310.44C1990.17,-314.19 1978.56,-318.07 1967.67,-321.7"/>
<polygon fill="#63b8ff" stroke="#63b8ff" points="2002.24,-313.85 2010.61,-307.37 2000.02,-307.21 2002.24,-313.85"/>
</a>
</g>
</g>
<!-- Node5 -->
<g id="Node000005" class="node">
<title>Node5</title>
<g id="a_Node000005"><a xlink:href="classinja_1_1Parser.html#a325c55a6c060f76d0d83b4d187b1ef33" target="_top" xlink:title=" ">
<polygon fill="white" stroke="#666666" points="1688,-266.12 1560.25,-266.12 1560.25,-245.38 1688,-245.38 1688,-266.12"/>
<text xml:space="preserve" text-anchor="middle" x="1624.12" y="-252.62" font-family="Helvetica,sans-Serif" font-size="10.00">inja::Parser::parse_into</text>
</a>
</g>
</g>
<!-- Node2&#45;&gt;Node5 -->
<g id="edge34_Node000002_Node000005" class="edge">
<title>Node2&#45;&gt;Node5</title>
<g id="a_edge34_Node000002_Node000005"><a xlink:title=" ">
<path fill="none" stroke="#63b8ff" d="M1993.09,-282.14C1984.47,-281.29 1975.79,-280.47 1967.5,-279.75 1870.15,-271.26 1757.02,-263.8 1688.28,-259.53"/>
<polygon fill="#63b8ff" stroke="#63b8ff" points="1992.53,-285.6 2002.83,-283.12 1993.23,-278.64 1992.53,-285.6"/>
</a>
</g>
</g>
<!-- Node22 -->
<g id="Node000022" class="node">
<title>Node22</title>
<g id="a_Node000022"><a xlink:href="classinja_1_1Parser.html#afdea619b58c4db677d49c0481d6a9a4b" target="_top" xlink:title=" ">
<polygon fill="white" stroke="#666666" points="1236.5,-295.5 1132.75,-295.5 1132.75,-262 1236.5,-262 1236.5,-295.5"/>
<text xml:space="preserve" text-anchor="start" x="1140.75" y="-282" font-family="Helvetica,sans-Serif" font-size="10.00">inja::Parser::parse</text>
<text xml:space="preserve" text-anchor="middle" x="1184.62" y="-269.25" font-family="Helvetica,sans-Serif" font-size="10.00">_statement</text>
</a>
</g>
</g>
<!-- Node2&#45;&gt;Node22 -->
<g id="edge35_Node000002_Node000022" class="edge">
<title>Node2&#45;&gt;Node22</title>
<g id="a_edge35_Node000002_Node000022"><a xlink:title=" ">
<path fill="none" stroke="#63b8ff" d="M1993.16,-291.28C1935.16,-292.41 1850.68,-293.75 1776.88,-293.75 1776.88,-293.75 1776.88,-293.75 1471.38,-293.75 1389.28,-293.75 1294.11,-287.5 1236.94,-283.07"/>
<polygon fill="#63b8ff" stroke="#63b8ff" points="1992.95,-294.78 2002.88,-291.08 1992.81,-287.78 1992.95,-294.78"/>
</a>
</g>
</g>
<!-- Node3&#45;&gt;Node3 -->
<g id="edge3_Node000003_Node000003" class="edge">
<title>Node3&#45;&gt;Node3</title>
<g id="a_edge3_Node000003_Node000003"><a xlink:title=" ">
<path fill="none" stroke="#63b8ff" d="M1938.76,-367.22C1934.83,-370.99 1927.12,-373.5 1915.62,-373.5 1894.61,-373.5 1886.23,-365.12 1890.5,-355.91"/>
<polygon fill="#63b8ff" stroke="#63b8ff" points="1942.2,-367.86 1940.49,-357.41 1935.31,-366.65 1942.2,-367.86"/>
</a>
</g>
</g>
<!-- Node4 -->
<g id="Node000004" class="node">
<title>Node4</title>
<g id="a_Node000004"><a xlink:href="classinja_1_1Parser.html#aeb66164c89e8c71cae3c93c24d7c7be2" target="_top" xlink:title=" ">
<polygon fill="white" stroke="#666666" points="1827.75,-355.5 1724,-355.5 1724,-322 1827.75,-322 1827.75,-355.5"/>
<text xml:space="preserve" text-anchor="start" x="1732" y="-342" font-family="Helvetica,sans-Serif" font-size="10.00">inja::Parser::parse</text>
<text xml:space="preserve" text-anchor="middle" x="1775.88" y="-329.25" font-family="Helvetica,sans-Serif" font-size="10.00">_expression</text>
</a>
</g>
</g>
<!-- Node3&#45;&gt;Node4 -->
<g id="edge4_Node000003_Node000004" class="edge">
<title>Node3&#45;&gt;Node4</title>
<g id="a_edge4_Node000003_Node000004"><a xlink:title=" ">
<path fill="none" stroke="#63b8ff" d="M1851.86,-338.75C1843.95,-338.75 1835.92,-338.75 1828.21,-338.75"/>
<polygon fill="#63b8ff" stroke="#63b8ff" points="1851.82,-342.25 1861.82,-338.75 1851.82,-335.25 1851.82,-342.25"/>
</a>
</g>
</g>
<!-- Node4&#45;&gt;Node5 -->
<g id="edge5_Node000004_Node000005" class="edge">
<title>Node4&#45;&gt;Node5</title>
<g id="a_edge5_Node000004_Node000005"><a xlink:title=" ">
<path fill="none" stroke="#63b8ff" d="M1733.97,-316.08C1704.94,-299.99 1667.24,-279.09 1644.69,-266.59"/>
<polygon fill="#63b8ff" stroke="#63b8ff" points="1732.08,-319.03 1742.52,-320.82 1735.47,-312.91 1732.08,-319.03"/>
</a>
</g>
</g>
<!-- Node4&#45;&gt;Node22 -->
<g id="edge33_Node000004_Node000022" class="edge">
<title>Node4&#45;&gt;Node22</title>
<g id="a_edge33_Node000004_Node000022"><a xlink:title=" ">
<path fill="none" stroke="#63b8ff" d="M1712.14,-339.91C1616.77,-340.54 1430,-337.33 1274.75,-307.75 1260.2,-304.98 1244.74,-300.51 1230.84,-295.91"/>
<polygon fill="#63b8ff" stroke="#63b8ff" points="1712.1,-343.41 1722.07,-339.82 1712.04,-336.41 1712.1,-343.41"/>
</a>
</g>
</g>
<!-- Node6 -->
<g id="Node000006" class="node">
<title>Node6</title>
<g id="a_Node000006"><a xlink:href="classinja_1_1Parser.html#ae9cf060e992d2a12b7fd47b346d8bd64" target="_top" xlink:title=" ">
<polygon fill="white" stroke="#666666" points="1524.25,-136.12 1420.5,-136.12 1420.5,-115.38 1524.25,-115.38 1524.25,-136.12"/>
<text xml:space="preserve" text-anchor="middle" x="1472.38" y="-122.62" font-family="Helvetica,sans-Serif" font-size="10.00">inja::Parser::parse</text>
</a>
</g>
</g>
<!-- Node5&#45;&gt;Node6 -->
<g id="edge6_Node000005_Node000006" class="edge">
<title>Node5&#45;&gt;Node6</title>
<g id="a_edge6_Node000005_Node000006"><a xlink:title=" ">
<path fill="none" stroke="#63b8ff" d="M1602.08,-237.48C1570.38,-209.96 1511.34,-158.71 1485.74,-136.49"/>
<polygon fill="#63b8ff" stroke="#63b8ff" points="1599.63,-239.99 1609.47,-243.9 1604.21,-234.7 1599.63,-239.99"/>
</a>
</g>
</g>
<!-- Node20 -->
<g id="Node000020" class="node">
<title>Node20</title>
<g id="a_Node000020"><a xlink:href="classinja_1_1Parser.html#af2b8ee63877e6b685f30c87d204bbe8b" target="_top" xlink:title=" ">
<polygon fill="white" stroke="#666666" points="1524.25,-227.5 1420.5,-227.5 1420.5,-194 1524.25,-194 1524.25,-227.5"/>
<text xml:space="preserve" text-anchor="start" x="1428.5" y="-214" font-family="Helvetica,sans-Serif" font-size="10.00">inja::Parser::parse</text>
<text xml:space="preserve" text-anchor="middle" x="1472.38" y="-201.25" font-family="Helvetica,sans-Serif" font-size="10.00">_into_template</text>
</a>
</g>
</g>
<!-- Node5&#45;&gt;Node20 -->
<g id="edge23_Node000005_Node000020" class="edge">
<title>Node5&#45;&gt;Node20</title>
<g id="a_edge23_Node000005_Node000020"><a xlink:title=" ">
<path fill="none" stroke="#63b8ff" d="M1576.26,-241.67C1559.83,-236.73 1541.29,-231.16 1524.53,-226.12"/>
<polygon fill="#63b8ff" stroke="#63b8ff" points="1575.22,-245.01 1585.81,-244.54 1577.24,-238.31 1575.22,-245.01"/>
</a>
</g>
</g>
<!-- Node7 -->
<g id="Node000007" class="node">
<title>Node7</title>
<g id="a_Node000007"><a xlink:href="classinja_1_1Environment.html#a8421b8d61fc4de15f29c909bd7154f92" target="_top" xlink:title=" ">
<polygon fill="white" stroke="#666666" points="1383.75,-101.5 1275.5,-101.5 1275.5,-68 1383.75,-68 1383.75,-101.5"/>
<text xml:space="preserve" text-anchor="start" x="1283.5" y="-88" font-family="Helvetica,sans-Serif" font-size="10.00">inja::Environment::</text>
<text xml:space="preserve" text-anchor="middle" x="1329.62" y="-75.25" font-family="Helvetica,sans-Serif" font-size="10.00">parse</text>
</a>
</g>
</g>
<!-- Node6&#45;&gt;Node7 -->
<g id="edge7_Node000006_Node000007" class="edge">
<title>Node6&#45;&gt;Node7</title>
<g id="a_edge7_Node000006_Node000007"><a xlink:title=" ">
<path fill="none" stroke="#63b8ff" d="M1423.55,-111.82C1410.84,-108.12 1397.03,-104.09 1384.03,-100.31"/>
<polygon fill="#63b8ff" stroke="#63b8ff" points="1422.36,-115.12 1432.94,-114.55 1424.32,-108.4 1422.36,-115.12"/>
</a>
</g>
</g>
<!-- Node8 -->
<g id="Node000008" class="node">
<title>Node8</title>
<g id="a_Node000008"><a xlink:href="classinja_1_1Environment.html#aac36e0cfdc9e7926914e46c0cd1caada" target="_top" xlink:title=" ">
<polygon fill="white" stroke="#666666" points="1238.75,-33.5 1130.5,-33.5 1130.5,0 1238.75,0 1238.75,-33.5"/>
<text xml:space="preserve" text-anchor="start" x="1138.5" y="-20" font-family="Helvetica,sans-Serif" font-size="10.00">inja::Environment::</text>
<text xml:space="preserve" text-anchor="middle" x="1184.62" y="-7.25" font-family="Helvetica,sans-Serif" font-size="10.00">render</text>
</a>
</g>
</g>
<!-- Node7&#45;&gt;Node8 -->
<g id="edge8_Node000007_Node000008" class="edge">
<title>Node7&#45;&gt;Node8</title>
<g id="a_edge8_Node000007_Node000008"><a xlink:title=" ">
<path fill="none" stroke="#63b8ff" d="M1282.27,-62.71C1262.62,-53.36 1240.07,-42.64 1221.7,-33.9"/>
<polygon fill="#63b8ff" stroke="#63b8ff" points="1280.64,-65.81 1291.17,-66.94 1283.65,-59.49 1280.64,-65.81"/>
</a>
</g>
</g>
<!-- Node18 -->
<g id="Node000018" class="node">
<title>Node18</title>
<g id="a_Node000018"><a xlink:href="classinja_1_1Environment.html#ad00da8b535e5c5633ed2adec622e6cf4" target="_top" xlink:title=" ">
<polygon fill="white" stroke="#666666" points="1238.75,-123.5 1130.5,-123.5 1130.5,-90 1238.75,-90 1238.75,-123.5"/>
<text xml:space="preserve" text-anchor="start" x="1138.5" y="-110" font-family="Helvetica,sans-Serif" font-size="10.00">inja::Environment::</text>
<text xml:space="preserve" text-anchor="middle" x="1184.62" y="-97.25" font-family="Helvetica,sans-Serif" font-size="10.00">render_to</text>
</a>
</g>
</g>
<!-- Node7&#45;&gt;Node18 -->
<g id="edge21_Node000007_Node000018" class="edge">
<title>Node7&#45;&gt;Node18</title>
<g id="a_edge21_Node000007_Node000018"><a xlink:title=" ">
<path fill="none" stroke="#63b8ff" d="M1264.04,-94.69C1255.64,-95.98 1247.11,-97.29 1238.92,-98.55"/>
<polygon fill="#63b8ff" stroke="#63b8ff" points="1264.53,-98.15 1273.88,-93.17 1263.47,-91.23 1264.53,-98.15"/>
</a>
</g>
</g>
<!-- Node19 -->
<g id="Node000019" class="node">
<title>Node19</title>
<g id="a_Node000019"><a xlink:href="namespaceinja.html#a996f16f78b37d05e19cf44ac74d83e7e" target="_top" xlink:title="render with default settings to the given output stream">
<polygon fill="white" stroke="#666666" points="1227.88,-72.12 1141.38,-72.12 1141.38,-51.38 1227.88,-51.38 1227.88,-72.12"/>
<text xml:space="preserve" text-anchor="middle" x="1184.62" y="-58.62" font-family="Helvetica,sans-Serif" font-size="10.00">inja::render_to</text>
</a>
</g>
</g>
<!-- Node7&#45;&gt;Node19 -->
<g id="edge22_Node000007_Node000019" class="edge">
<title>Node7&#45;&gt;Node19</title>
<g id="a_edge22_Node000007_Node000019"><a xlink:title=" ">
<path fill="none" stroke="#63b8ff" d="M1264.27,-74.4C1252.05,-72.43 1239.54,-70.42 1228.2,-68.6"/>
<polygon fill="#63b8ff" stroke="#63b8ff" points="1263.45,-77.81 1273.88,-75.95 1264.57,-70.9 1263.45,-77.81"/>
</a>
</g>
</g>
<!-- Node9 -->
<g id="Node000009" class="node">
<title>Node9</title>
<g id="a_Node000009"><a xlink:href="classmqtt_1_1lib_1_1MqttMapper.html#acf8390856383106d469d448b358d3f17" target="_top" xlink:title=" ">
<polygon fill="white" stroke="#666666" points="1085.12,-75.5 962.62,-75.5 962.62,-42 1085.12,-42 1085.12,-75.5"/>
<text xml:space="preserve" text-anchor="start" x="970.62" y="-62" font-family="Helvetica,sans-Serif" font-size="10.00">mqtt::lib::MqttMapper</text>
<text xml:space="preserve" text-anchor="middle" x="1023.88" y="-49.25" font-family="Helvetica,sans-Serif" font-size="10.00">::getMappedTemplate</text>
</a>
</g>
</g>
<!-- Node8&#45;&gt;Node9 -->
<g id="edge9_Node000008_Node000009" class="edge">
<title>Node8&#45;&gt;Node9</title>
<g id="a_edge9_Node000008_Node000009"><a xlink:title=" ">
<path fill="none" stroke="#63b8ff" d="M1119.31,-33.77C1108.12,-36.73 1096.51,-39.8 1085.43,-42.73"/>
<polygon fill="#63b8ff" stroke="#63b8ff" points="1120.09,-37.18 1128.86,-31.24 1118.3,-30.41 1120.09,-37.18"/>
</a>
</g>
</g>
<!-- Node17 -->
<g id="Node000017" class="node">
<title>Node17</title>
<g id="a_Node000017"><a xlink:href="namespaceinja.html#a539106781b52cc6117fc132f927a9dec" target="_top" xlink:title="render with default settings to a string">
<polygon fill="white" stroke="#666666" points="1059.62,-24.12 988.12,-24.12 988.12,-3.38 1059.62,-3.38 1059.62,-24.12"/>
<text xml:space="preserve" text-anchor="middle" x="1023.88" y="-10.62" font-family="Helvetica,sans-Serif" font-size="10.00">inja::render</text>
</a>
</g>
</g>
<!-- Node8&#45;&gt;Node17 -->
<g id="edge20_Node000008_Node000017" class="edge">
<title>Node8&#45;&gt;Node17</title>
<g id="a_edge20_Node000008_Node000017"><a xlink:title=" ">
<path fill="none" stroke="#63b8ff" d="M1118.94,-15.53C1098.72,-15.15 1077.18,-14.74 1059.82,-14.41"/>
<polygon fill="#63b8ff" stroke="#63b8ff" points="1118.74,-19.02 1128.81,-15.71 1118.88,-12.03 1118.74,-19.02"/>
</a>
</g>
</g>
<!-- Node10 -->
<g id="Node000010" class="node">
<title>Node10</title>
<g id="a_Node000010"><a xlink:href="classmqtt_1_1lib_1_1MqttMapper.html#a120ac05abf400a4f1c4a5758ecd99f74" target="_top" xlink:title=" ">
<polygon fill="white" stroke="#666666" points="917.25,-75.5 787.25,-75.5 787.25,-42 917.25,-42 917.25,-75.5"/>
<text xml:space="preserve" text-anchor="start" x="795.25" y="-62" font-family="Helvetica,sans-Serif" font-size="10.00">mqtt::lib::MqttMapper</text>
<text xml:space="preserve" text-anchor="middle" x="852.25" y="-49.25" font-family="Helvetica,sans-Serif" font-size="10.00">::getTemplateMappings</text>
</a>
</g>
</g>
<!-- Node9&#45;&gt;Node10 -->
<g id="edge10_Node000009_Node000010" class="edge">
<title>Node9&#45;&gt;Node10</title>
<g id="a_edge10_Node000009_Node000010"><a xlink:title=" ">
<path fill="none" stroke="#63b8ff" d="M951.15,-58.75C940.03,-58.75 928.6,-58.75 917.65,-58.75"/>
<polygon fill="#63b8ff" stroke="#63b8ff" points="951.08,-62.25 961.08,-58.75 951.08,-55.25 951.08,-62.25"/>
</a>
</g>
</g>
<!-- Node11 -->
<g id="Node000011" class="node">
<title>Node11</title>
<g id="a_Node000011"><a xlink:href="classmqtt_1_1lib_1_1MqttMapper.html#a542c86edf273308138357e4773c55d3c" target="_top" xlink:title=" ">
<polygon fill="white" stroke="#666666" points="751.25,-75.5 628.75,-75.5 628.75,-42 751.25,-42 751.25,-75.5"/>
<text xml:space="preserve" text-anchor="start" x="636.75" y="-62" font-family="Helvetica,sans-Serif" font-size="10.00">mqtt::lib::MqttMapper</text>
<text xml:space="preserve" text-anchor="middle" x="690" y="-49.25" font-family="Helvetica,sans-Serif" font-size="10.00">::getMappings</text>
</a>
</g>
</g>
<!-- Node10&#45;&gt;Node11 -->
<g id="edge11_Node000010_Node000011" class="edge">
<title>Node10&#45;&gt;Node11</title>
<g id="a_edge11_Node000010_Node000011"><a xlink:title=" ">
<path fill="none" stroke="#63b8ff" d="M775.67,-58.75C767.61,-58.75 759.49,-58.75 751.63,-58.75"/>
<polygon fill="#63b8ff" stroke="#63b8ff" points="775.48,-62.25 785.48,-58.75 775.48,-55.25 775.48,-62.25"/>
</a>
</g>
</g>
<!-- Node12 -->
<g id="Node000012" class="node">
<title>Node12</title>
<g id="a_Node000012"><a xlink:href="classmqtt_1_1mqttbroker_1_1lib_1_1Mqtt.html#a35dd670ca3b7d67cffbbce1cf7c71ffb" target="_top" xlink:title=" ">
<polygon fill="white" stroke="#666666" points="592.75,-101.5 475.5,-101.5 475.5,-68 592.75,-68 592.75,-101.5"/>
<text xml:space="preserve" text-anchor="start" x="483.5" y="-88" font-family="Helvetica,sans-Serif" font-size="10.00">mqtt::mqttbroker::lib</text>
<text xml:space="preserve" text-anchor="middle" x="534.12" y="-75.25" font-family="Helvetica,sans-Serif" font-size="10.00">::Mqtt::onPublish</text>
</a>
</g>
</g>
<!-- Node11&#45;&gt;Node12 -->
<g id="edge12_Node000011_Node000012" class="edge">
<title>Node11&#45;&gt;Node12</title>
<g id="a_edge12_Node000011_Node000012"><a xlink:title=" ">
<path fill="none" stroke="#63b8ff" d="M617.53,-70.83C609.33,-72.21 601.05,-73.61 593.06,-74.96"/>
<polygon fill="#63b8ff" stroke="#63b8ff" points="617.86,-74.32 627.13,-69.2 616.69,-67.42 617.86,-74.32"/>
</a>
</g>
</g>
<!-- Node16 -->
<g id="Node000016" class="node">
<title>Node16</title>
<g id="a_Node000016"><a xlink:href="classmqtt_1_1mqttintegrator_1_1lib_1_1Mqtt.html#a211408365844787ce77340f454b9cbd0" target="_top" xlink:title=" ">
<polygon fill="white" stroke="#666666" points="592.38,-49.5 475.88,-49.5 475.88,-16 592.38,-16 592.38,-49.5"/>
<text xml:space="preserve" text-anchor="start" x="483.88" y="-36" font-family="Helvetica,sans-Serif" font-size="10.00">mqtt::mqttintegrator</text>
<text xml:space="preserve" text-anchor="middle" x="534.12" y="-23.25" font-family="Helvetica,sans-Serif" font-size="10.00">::lib::Mqtt::onPublish</text>
</a>
</g>
</g>
<!-- Node11&#45;&gt;Node16 -->
<g id="edge19_Node000011_Node000016" class="edge">
<title>Node11&#45;&gt;Node16</title>
<g id="a_edge19_Node000011_Node000016"><a xlink:title=" ">
<path fill="none" stroke="#63b8ff" d="M617.45,-46.66C609.19,-45.27 600.85,-43.86 592.81,-42.5"/>
<polygon fill="#63b8ff" stroke="#63b8ff" points="616.69,-50.08 627.13,-48.3 617.86,-43.18 616.69,-50.08"/>
</a>
</g>
</g>
<!-- Node12&#45;&gt;Node12 -->
<g id="edge13_Node000012_Node000012" class="edge">
<title>Node12&#45;&gt;Node12</title>
<g id="a_edge13_Node000012_Node000012"><a xlink:title=" ">
<path fill="none" stroke="#63b8ff" d="M560.3,-112.89C556.04,-116.85 547.31,-119.5 534.12,-119.5 510.68,-119.5 501.34,-111.12 506.1,-101.91"/>
<polygon fill="#63b8ff" stroke="#63b8ff" points="563.69,-113.85 561.89,-103.41 556.78,-112.69 563.69,-113.85"/>
</a>
</g>
</g>
<!-- Node13 -->
<g id="Node000013" class="node">
<title>Node13</title>
<g id="a_Node000013"><a xlink:href="classmqtt_1_1mqttbroker_1_1lib_1_1Mqtt_1_1DelayedQueue.html#abe935c28141087ad3eadf41acab44702" target="_top" xlink:title=" ">
<polygon fill="white" stroke="#666666" points="439.5,-132.88 317,-132.88 317,-86.62 439.5,-86.62 439.5,-132.88"/>
<text xml:space="preserve" text-anchor="start" x="325" y="-119.38" font-family="Helvetica,sans-Serif" font-size="10.00">mqtt::mqttbroker::lib</text>
<text xml:space="preserve" text-anchor="start" x="325" y="-106.62" font-family="Helvetica,sans-Serif" font-size="10.00">::Mqtt::DelayedQueue</text>
<text xml:space="preserve" text-anchor="middle" x="378.25" y="-93.88" font-family="Helvetica,sans-Serif" font-size="10.00">::processDue</text>
</a>
</g>
</g>
<!-- Node12&#45;&gt;Node13 -->
<g id="edge14_Node000012_Node000013" class="edge">
<title>Node12&#45;&gt;Node13</title>
<g id="a_edge14_Node000012_Node000013"><a xlink:title=" ">
<path fill="none" stroke="#63b8ff" d="M464.09,-95.97C456.02,-97.28 447.83,-98.61 439.88,-99.9"/>
<polygon fill="#63b8ff" stroke="#63b8ff" points="464.59,-99.43 473.9,-94.37 463.46,-92.52 464.59,-99.43"/>
</a>
</g>
</g>
<!-- Node14 -->
<g id="Node000014" class="node">
<title>Node14</title>
<g id="a_Node000014"><a xlink:href="classmqtt_1_1mqttbroker_1_1lib_1_1Mqtt_1_1DelayedQueue.html#a8becf2d97fc0f71a12ae5e84ea8b2a66" target="_top" xlink:title=" ">
<polygon fill="white" stroke="#666666" points="281,-132.88 158.5,-132.88 158.5,-86.62 281,-86.62 281,-132.88"/>
<text xml:space="preserve" text-anchor="start" x="166.5" y="-119.38" font-family="Helvetica,sans-Serif" font-size="10.00">mqtt::mqttbroker::lib</text>
<text xml:space="preserve" text-anchor="start" x="166.5" y="-106.62" font-family="Helvetica,sans-Serif" font-size="10.00">::Mqtt::DelayedQueue</text>
<text xml:space="preserve" text-anchor="middle" x="219.75" y="-93.88" font-family="Helvetica,sans-Serif" font-size="10.00">::armDelayTimer</text>
</a>
</g>
</g>
<!-- Node13&#45;&gt;Node14 -->
<g id="edge15_Node000013_Node000014" class="edge">
<title>Node13&#45;&gt;Node14</title>
<g id="a_edge15_Node000013_Node000014"><a xlink:title=" ">
<path fill="none" stroke="#63b8ff" d="M305.45,-109.75C297.4,-109.75 289.25,-109.75 281.35,-109.75"/>
<polygon fill="#63b8ff" stroke="#63b8ff" points="305.23,-113.25 315.23,-109.75 305.23,-106.25 305.23,-113.25"/>
</a>
</g>
</g>
<!-- Node14&#45;&gt;Node14 -->
<g id="edge16_Node000014_Node000014" class="edge">
<title>Node14&#45;&gt;Node14</title>
<g id="a_edge16_Node000014_Node000014"><a xlink:title=" ">
<path fill="none" stroke="#63b8ff" d="M245.82,-143.61C241.31,-147.98 232.62,-150.88 219.75,-150.88 198.08,-150.88 188.26,-142.68 190.29,-133"/>
<polygon fill="#63b8ff" stroke="#63b8ff" points="249.04,-145.04 248.75,-134.44 242.37,-142.9 249.04,-145.04"/>
</a>
</g>
</g>
<!-- Node15 -->
<g id="Node000015" class="node">
<title>Node15</title>
<g id="a_Node000015"><a xlink:href="classmqtt_1_1mqttbroker_1_1lib_1_1Mqtt_1_1DelayedQueue.html#a0cea5b90a1434e82da43bd2f4c6dd47c" target="_top" xlink:title=" ">
<polygon fill="white" stroke="#666666" points="122.5,-106.88 0,-106.88 0,-60.62 122.5,-60.62 122.5,-106.88"/>
<text xml:space="preserve" text-anchor="start" x="8" y="-93.38" font-family="Helvetica,sans-Serif" font-size="10.00">mqtt::mqttbroker::lib</text>
<text xml:space="preserve" text-anchor="start" x="8" y="-80.62" font-family="Helvetica,sans-Serif" font-size="10.00">::Mqtt::DelayedQueue</text>
<text xml:space="preserve" text-anchor="middle" x="61.25" y="-67.88" font-family="Helvetica,sans-Serif" font-size="10.00">::delayPublish</text>
</a>
</g>
</g>
<!-- Node14&#45;&gt;Node15 -->
<g id="edge17_Node000014_Node000015" class="edge">
<title>Node14&#45;&gt;Node15</title>
<g id="a_edge17_Node000014_Node000015"><a xlink:title=" ">
<path fill="none" stroke="#63b8ff" d="M146.95,-97.82C138.9,-96.48 130.75,-95.13 122.85,-93.82"/>
<polygon fill="#63b8ff" stroke="#63b8ff" points="146.31,-101.26 156.75,-99.45 147.46,-94.36 146.31,-101.26"/>
</a>
</g>
</g>
<!-- Node15&#45;&gt;Node12 -->
<g id="edge18_Node000015_Node000012" class="edge">
<title>Node15&#45;&gt;Node12</title>
<g id="a_edge18_Node000015_Node000012"><a xlink:title=" ">
<path fill="none" stroke="#63b8ff" d="M134.28,-78.77C142.45,-78.35 150.65,-77.99 158.5,-77.75 283.33,-73.86 314.7,-73.09 439.5,-77.75 451.06,-78.18 463.42,-78.91 475.23,-79.74"/>
<polygon fill="#63b8ff" stroke="#63b8ff" points="134.11,-75.27 124.32,-79.32 134.5,-82.26 134.11,-75.27"/>
</a>
</g>
</g>
<!-- Node21 -->
<g id="Node000021" class="node">
<title>Node21</title>
<g id="a_Node000021"><a xlink:href="classinja_1_1Parser.html#aa756be380c1083f47c6bd774eb3c8c38" target="_top" xlink:title=" ">
<polygon fill="white" stroke="#666666" points="1384.5,-227.5 1274.75,-227.5 1274.75,-194 1384.5,-194 1384.5,-227.5"/>
<text xml:space="preserve" text-anchor="start" x="1282.75" y="-214" font-family="Helvetica,sans-Serif" font-size="10.00">inja::Parser::add_to</text>
<text xml:space="preserve" text-anchor="middle" x="1329.62" y="-201.25" font-family="Helvetica,sans-Serif" font-size="10.00">_template_storage</text>
</a>
</g>
</g>
<!-- Node20&#45;&gt;Node21 -->
<g id="edge24_Node000020_Node000021" class="edge">
<title>Node20&#45;&gt;Node21</title>
<g id="a_edge24_Node000020_Node000021"><a xlink:title=" ">
<path fill="none" stroke="#63b8ff" d="M1408.68,-210.75C1400.74,-210.75 1392.67,-210.75 1384.88,-210.75"/>
<polygon fill="#63b8ff" stroke="#63b8ff" points="1408.65,-214.25 1418.65,-210.75 1408.65,-207.25 1408.65,-214.25"/>
</a>
</g>
</g>
<!-- Node23 -->
<g id="Node000023" class="node">
<title>Node23</title>
<g id="a_Node000023"><a xlink:href="classinja_1_1Environment.html#a85717fc369572292cce46e42a32e38f5" target="_top" xlink:title=" ">
<polygon fill="white" stroke="#666666" points="1383.75,-175.5 1275.5,-175.5 1275.5,-142 1383.75,-142 1383.75,-175.5"/>
<text xml:space="preserve" text-anchor="start" x="1283.5" y="-162" font-family="Helvetica,sans-Serif" font-size="10.00">inja::Environment::</text>
<text xml:space="preserve" text-anchor="middle" x="1329.62" y="-149.25" font-family="Helvetica,sans-Serif" font-size="10.00">parse_template</text>
</a>
</g>
</g>
<!-- Node20&#45;&gt;Node23 -->
<g id="edge27_Node000020_Node000023" class="edge">
<title>Node20&#45;&gt;Node23</title>
<g id="a_edge27_Node000020_Node000023"><a xlink:title=" ">
<path fill="none" stroke="#63b8ff" d="M1414.22,-189.64C1401.86,-185.07 1388.94,-180.29 1377.05,-175.9"/>
<polygon fill="#63b8ff" stroke="#63b8ff" points="1412.89,-192.87 1423.48,-193.05 1415.31,-186.31 1412.89,-192.87"/>
</a>
</g>
</g>
<!-- Node21&#45;&gt;Node22 -->
<g id="edge25_Node000021_Node000022" class="edge">
<title>Node21&#45;&gt;Node22</title>
<g id="a_edge25_Node000021_Node000022"><a xlink:title=" ">
<path fill="none" stroke="#63b8ff" d="M1282.27,-232.79C1262.62,-242.14 1240.07,-252.86 1221.7,-261.6"/>
<polygon fill="#63b8ff" stroke="#63b8ff" points="1283.65,-236.01 1291.17,-228.56 1280.64,-229.69 1283.65,-236.01"/>
</a>
</g>
</g>
<!-- Node22&#45;&gt;Node5 -->
<g id="edge26_Node000022_Node000005" class="edge">
<title>Node22&#45;&gt;Node5</title>
<g id="a_edge26_Node000022_Node000005"><a xlink:title=" ">
<path fill="none" stroke="#63b8ff" d="M1248.08,-275.47C1331.02,-271.11 1476.69,-263.45 1559.98,-259.07"/>
<polygon fill="#63b8ff" stroke="#63b8ff" points="1248.13,-271.96 1238.32,-275.98 1248.49,-278.95 1248.13,-271.96"/>
</a>
</g>
</g>
<!-- Node24 -->
<g id="Node000024" class="node">
<title>Node24</title>
<g id="a_Node000024"><a xlink:href="classinja_1_1Environment.html#aec4165117f8d7242f813bb7859b86d18" target="_top" xlink:title=" ">
<polygon fill="white" stroke="#666666" points="1238.75,-227.5 1130.5,-227.5 1130.5,-194 1238.75,-194 1238.75,-227.5"/>
<text xml:space="preserve" text-anchor="start" x="1138.5" y="-214" font-family="Helvetica,sans-Serif" font-size="10.00">inja::Environment::</text>
<text xml:space="preserve" text-anchor="middle" x="1184.62" y="-201.25" font-family="Helvetica,sans-Serif" font-size="10.00">parse_file</text>
</a>
</g>
</g>
<!-- Node23&#45;&gt;Node24 -->
<g id="edge28_Node000023_Node000024" class="edge">
<title>Node23&#45;&gt;Node24</title>
<g id="a_edge28_Node000023_Node000024"><a xlink:title=" ">
<path fill="none" stroke="#63b8ff" d="M1270.94,-179.73C1258.27,-184.33 1245,-189.16 1232.8,-193.6"/>
<polygon fill="#63b8ff" stroke="#63b8ff" points="1271.78,-183.14 1279.98,-176.44 1269.39,-176.57 1271.78,-183.14"/>
</a>
</g>
</g>
<!-- Node25 -->
<g id="Node000025" class="node">
<title>Node25</title>
<g id="a_Node000025"><a xlink:href="classinja_1_1Environment.html#a3e30972fab0a5962c232f4c0f7002845" target="_top" xlink:title=" ">
<polygon fill="white" stroke="#666666" points="1238.75,-175.5 1130.5,-175.5 1130.5,-142 1238.75,-142 1238.75,-175.5"/>
<text xml:space="preserve" text-anchor="start" x="1138.5" y="-162" font-family="Helvetica,sans-Serif" font-size="10.00">inja::Environment::</text>
<text xml:space="preserve" text-anchor="middle" x="1184.62" y="-149.25" font-family="Helvetica,sans-Serif" font-size="10.00">render_file</text>
</a>
</g>
</g>
<!-- Node23&#45;&gt;Node25 -->
<g id="edge29_Node000023_Node000025" class="edge">
<title>Node23&#45;&gt;Node25</title>
<g id="a_edge29_Node000023_Node000025"><a xlink:title=" ">
<path fill="none" stroke="#63b8ff" d="M1264.04,-158.75C1255.64,-158.75 1247.11,-158.75 1238.92,-158.75"/>
<polygon fill="#63b8ff" stroke="#63b8ff" points="1263.86,-162.25 1273.86,-158.75 1263.86,-155.25 1263.86,-162.25"/>
</a>
</g>
</g>
<!-- Node26 -->
<g id="Node000026" class="node">
<title>Node26</title>
<g id="a_Node000026"><a xlink:href="classinja_1_1Environment.html#a815d87f3fb622a7639691803ff9a123b" target="_top" xlink:title=" ">
<polygon fill="white" stroke="#666666" points="1094.5,-203.5 953.25,-203.5 953.25,-170 1094.5,-170 1094.5,-203.5"/>
<text xml:space="preserve" text-anchor="start" x="961.25" y="-190" font-family="Helvetica,sans-Serif" font-size="10.00">inja::Environment::</text>
<text xml:space="preserve" text-anchor="middle" x="1023.88" y="-177.25" font-family="Helvetica,sans-Serif" font-size="10.00">render_file_with_json_file</text>
</a>
</g>
</g>
<!-- Node25&#45;&gt;Node26 -->
<g id="edge30_Node000025_Node000026" class="edge">
<title>Node25&#45;&gt;Node26</title>
<g id="a_edge30_Node000025_Node000026"><a xlink:title=" ">
<path fill="none" stroke="#63b8ff" d="M1119.21,-170.11C1111.22,-171.52 1103.02,-172.97 1094.95,-174.39"/>
<polygon fill="#63b8ff" stroke="#63b8ff" points="1119.59,-173.6 1128.83,-168.41 1118.38,-166.7 1119.59,-173.6"/>
</a>
</g>
</g>
<!-- Node27 -->
<g id="Node000027" class="node">
<title>Node27</title>
<g id="a_Node000027"><a xlink:href="classinja_1_1Environment.html#ae64c18f23f81e8ee787d406ccd4d35dc" target="_top" xlink:title=" ">
<polygon fill="white" stroke="#666666" points="1078,-151.5 969.75,-151.5 969.75,-118 1078,-118 1078,-151.5"/>
<text xml:space="preserve" text-anchor="start" x="977.75" y="-138" font-family="Helvetica,sans-Serif" font-size="10.00">inja::Environment::</text>
<text xml:space="preserve" text-anchor="middle" x="1023.88" y="-125.25" font-family="Helvetica,sans-Serif" font-size="10.00">write</text>
</a>
</g>
</g>
<!-- Node25&#45;&gt;Node27 -->
<g id="edge31_Node000025_Node000027" class="edge">
<title>Node25&#45;&gt;Node27</title>
<g id="a_edge31_Node000025_Node000027"><a xlink:title=" ">
<path fill="none" stroke="#63b8ff" d="M1119.11,-149C1105.56,-146.95 1091.4,-144.81 1078.31,-142.83"/>
<polygon fill="#63b8ff" stroke="#63b8ff" points="1118.41,-152.43 1128.83,-150.47 1119.46,-145.51 1118.41,-152.43"/>
</a>
</g>
</g>
<!-- Node28 -->
<g id="Node000028" class="node">
<title>Node28</title>
<g id="a_Node000028"><a xlink:href="classinja_1_1Environment.html#ad6a6b713e78516f4f6fd68c58f309f3c" target="_top" xlink:title=" ">
<polygon fill="white" stroke="#666666" points="909,-151.5 795.5,-151.5 795.5,-118 909,-118 909,-151.5"/>
<text xml:space="preserve" text-anchor="start" x="803.5" y="-138" font-family="Helvetica,sans-Serif" font-size="10.00">inja::Environment::</text>
<text xml:space="preserve" text-anchor="middle" x="852.25" y="-125.25" font-family="Helvetica,sans-Serif" font-size="10.00">write_with_json_file</text>
</a>
</g>
</g>
<!-- Node27&#45;&gt;Node28 -->
<g id="edge32_Node000027_Node000028" class="edge">
<title>Node27&#45;&gt;Node28</title>
<g id="a_edge32_Node000027_Node000028"><a xlink:title=" ">
<path fill="none" stroke="#63b8ff" d="M958.2,-134.75C942.16,-134.75 925.1,-134.75 909.49,-134.75"/>
<polygon fill="#63b8ff" stroke="#63b8ff" points="958.16,-138.25 968.16,-134.75 958.16,-131.25 958.16,-138.25"/>
</a>
</g>
</g>
<!-- Node29&#45;&gt;Node3 -->
<g id="edge37_Node000029_Node000003" class="edge">
<title>Node29&#45;&gt;Node3</title>
<g id="a_edge37_Node000029_Node000003"><a xlink:title=" ">
<path fill="none" stroke="#63b8ff" d="M1991.9,-340.29C1983.82,-340.12 1975.72,-339.96 1967.97,-339.8"/>
<polygon fill="#63b8ff" stroke="#63b8ff" points="1991.68,-343.78 2001.75,-340.49 1991.82,-336.79 1991.68,-343.78"/>
</a>
</g>
</g>
</g>
</svg>
