<?xml version="1.0" encoding="UTF-8" standalone="no"?>
<!DOCTYPE svg PUBLIC "-//W3C//DTD SVG 1.1//EN"
 "http://www.w3.org/Graphics/SVG/1.1/DTD/svg11.dtd">
<!-- Generated by graphviz version 14.1.2 (0)
 -->
<!-- Title: mqtt::bridge::lib::BridgeStore::mqttConnected Pages: 1 -->
<!--zoomable 241 -->

<svg id="main" version="1.1" xmlns="http://www.w3.org/2000/svg" xmlns:xlink="http://www.w3.org/1999/xlink" xml:space="preserve" onload="init(evt)">

<style type="text/css"><![CDATA[
.node, .edge {opacity: 0.7;}
.node.selected, .edge.selected {opacity: 1;}
.edge:hover path { stroke: red; }
.edge:hover polygon { stroke: red; fill: red; }
]]></style>

<defs>
  <circle id="rim" cx="0" cy="0" r="7"/>
  <circle id="rim2" cx="0" cy="0" r="3.5"/>
  <g id="zoomPlus">
    <use xlink:href="#rim" fill="#404040"><set attributeName="fill" to="#808080" begin="zoomplus.mouseover" end="zoomplus.mouseout"/></use>
    <path d="M-4,0h8M0,-4v8" fill="none" stroke="white" stroke-width="1.5" pointer-events="none"/>
  </g>
  <g id="zoomMin">
    <use xlink:href="#rim" fill="#404040"><set attributeName="fill" to="#808080" begin="zoomminus.mouseover" end="zoomminus.mouseout"/></use>
    <path d="M-4,0h8" fill="none" stroke="white" stroke-width="1.5" pointer-events="none"/>
  </g>
  <g id="arrowUp" transform="translate(30 24)">
    <use xlink:href="#rim"/>
    <path pointer-events="none" fill="none" stroke="white" stroke-width="1.5" d="M0,-3.0v7 M-2.5,-0.5L0,-3.0L2.5,-0.5"/>
  </g>
  <g id="arrowRight" transform="rotate(90) translate(36 -43)">
    <use xlink:href="#rim"/>
    <path pointer-events="none" fill="none" stroke="white" stroke-width="1.5" d="M0,-3.0v7 M-2.5,-0.5L0,-3.0L2.5,-0.5"/>
  </g>
  <g id="arrowDown" transform="rotate(180) translate(-30 -48)">
    <use xlink:href="#rim"/>
    <path pointer-events="none" fill="none" stroke="white" stroke-width="1.5" d="M0,-3.0v7 M-2.5,-0.5L0,-3.0L2.5,-0.5"/>
  </g>
  <g id="arrowLeft" transform="rotate(270) translate(-36 17)">
    <use xlink:href="#rim"/>
    <path pointer-events="none" fill="none" stroke="white" stroke-width="1.5" d="M0,-3.0v7 M-2.5,-0.5L0,-3.0L2.5,-0.5"/>
  </g>
  <g id="resetDef">
    <use xlink:href="#rim2" fill="#404040"><set attributeName="fill" to="#808080" begin="reset.mouseover" end="reset.mouseout"/></use>
  </g>
</defs>
<script type="application/ecmascript">
var viewWidth = 571;
var viewHeight = 241;
var sectionId = 'dynsection-6';
</script>
<script type="application/ecmascript" xlink:href="svg.min.js"/>
<svg id="graph" class="graph">
<g id="viewport">
<title>mqtt::bridge::lib::BridgeStore::mqttConnected</title>
<!-- Node1 -->
<g id="Node000001" class="node">
<title>Node1</title>
<g id="a_Node000001"><a xlink:title=" ">
<polygon fill="#999999" stroke="#666666" points="154,-107.5 0,-107.5 0,-74 154,-74 154,-107.5"/>
<text xml:space="preserve" text-anchor="start" x="8" y="-94" font-family="Helvetica,sans-Serif" font-size="10.00">mqtt::bridge::lib::</text>
<text xml:space="preserve" text-anchor="middle" x="77" y="-81.25" font-family="Helvetica,sans-Serif" font-size="10.00">BridgeStore::mqttConnected</text>
</a>
</g>
</g>
<!-- Node2 -->
<g id="Node000002" class="node">
<title>Node2</title>
<g id="a_Node000002"><a xlink:href="classmqtt_1_1bridge_1_1lib_1_1Bridge.html#a3a4293a660369d5d5976c303eb5e7262" target="_top" xlink:title=" ">
<polygon fill="white" stroke="#666666" points="321.5,-178.5 221.5,-178.5 221.5,-145 321.5,-145 321.5,-178.5"/>
<text xml:space="preserve" text-anchor="start" x="229.5" y="-165" font-family="Helvetica,sans-Serif" font-size="10.00">mqtt::bridge::lib::</text>
<text xml:space="preserve" text-anchor="middle" x="271.5" y="-152.25" font-family="Helvetica,sans-Serif" font-size="10.00">Bridge::addMqtt</text>
</a>
</g>
</g>
<!-- Node1&#45;&gt;Node2 -->
<g id="edge1_Node000001_Node000002" class="edge">
<title>Node1&#45;&gt;Node2</title>
<g id="a_edge1_Node000001_Node000002"><a xlink:title=" ">
<path fill="none" stroke="#63b8ff" d="M124.6,-107.94C151.34,-117.8 185.12,-130.26 213.44,-140.7"/>
<polygon fill="#63b8ff" stroke="#63b8ff" points="211.98,-143.9 222.58,-144.07 214.41,-137.33 211.98,-143.9"/>
</a>
</g>
</g>
<!-- Node5 -->
<g id="Node000005" class="node">
<title>Node5</title>
<g id="a_Node000005"><a xlink:href="classmqtt_1_1bridge_1_1lib_1_1SSEDistributor.html#ab6cc33c1c26ccfbd738a5ec2700f0896" target="_top" xlink:title=" ">
<polygon fill="white" stroke="#666666" points="542.62,-128.5 409.62,-128.5 409.62,-95 542.62,-95 542.62,-128.5"/>
<text xml:space="preserve" text-anchor="start" x="417.62" y="-115" font-family="Helvetica,sans-Serif" font-size="10.00">mqtt::bridge::lib::</text>
<text xml:space="preserve" text-anchor="middle" x="476.12" y="-102.25" font-family="Helvetica,sans-Serif" font-size="10.00">SSEDistributor::instance</text>
</a>
</g>
</g>
<!-- Node1&#45;&gt;Node5 -->
<g id="edge7_Node000001_Node000005" class="edge">
<title>Node1&#45;&gt;Node5</title>
<g id="a_edge7_Node000001_Node000005"><a xlink:title=" ">
<path fill="none" stroke="#63b8ff" d="M154.1,-94.77C224.08,-98.47 327.34,-103.94 397.73,-107.66"/>
<polygon fill="#63b8ff" stroke="#63b8ff" points="397.48,-111.15 407.65,-108.18 397.85,-104.16 397.48,-111.15"/>
</a>
</g>
</g>
<!-- Node6 -->
<g id="Node000006" class="node">
<title>Node6</title>
<g id="a_Node000006"><a xlink:href="classmqtt_1_1bridge_1_1lib_1_1SSEDistributor.html#a92c4668cbdeebc4aecf11bbfed1f8228" target="_top" xlink:title=" ">
<polygon fill="white" stroke="#666666" points="353,-85.5 190,-85.5 190,-52 353,-52 353,-85.5"/>
<text xml:space="preserve" text-anchor="start" x="198" y="-72" font-family="Helvetica,sans-Serif" font-size="10.00">mqtt::bridge::lib::</text>
<text xml:space="preserve" text-anchor="middle" x="271.5" y="-59.25" font-family="Helvetica,sans-Serif" font-size="10.00">SSEDistributor::bridgesStarted</text>
</a>
</g>
</g>
<!-- Node1&#45;&gt;Node6 -->
<g id="edge5_Node000001_Node000006" class="edge">
<title>Node1&#45;&gt;Node6</title>
<g id="a_edge5_Node000001_Node000006"><a xlink:title=" ">
<path fill="none" stroke="#63b8ff" d="M154.36,-82.02C162.28,-81.12 170.38,-80.19 178.45,-79.27"/>
<polygon fill="#63b8ff" stroke="#63b8ff" points="178.77,-82.76 188.31,-78.14 177.97,-75.8 178.77,-82.76"/>
</a>
</g>
</g>
<!-- Node7 -->
<g id="Node000007" class="node">
<title>Node7</title>
<g id="a_Node000007"><a xlink:href="classmqtt_1_1bridge_1_1lib_1_1Broker.html#acff6cddc56c9cdc2b0688d6482034131" target="_top" xlink:title=" ">
<polygon fill="white" stroke="#666666" points="321.88,-33.5 221.12,-33.5 221.12,0 321.88,0 321.88,-33.5"/>
<text xml:space="preserve" text-anchor="start" x="229.12" y="-20" font-family="Helvetica,sans-Serif" font-size="10.00">mqtt::bridge::lib::</text>
<text xml:space="preserve" text-anchor="middle" x="271.5" y="-7.25" font-family="Helvetica,sans-Serif" font-size="10.00">Broker::getBridge</text>
</a>
</g>
</g>
<!-- Node1&#45;&gt;Node7 -->
<g id="edge6_Node000001_Node000007" class="edge">
<title>Node1&#45;&gt;Node7</title>
<g id="a_edge6_Node000001_Node000007"><a xlink:title=" ">
<path fill="none" stroke="#63b8ff" d="M115.75,-73.54C137.3,-63.97 164.94,-52.14 190,-42.75 196.5,-40.31 203.34,-37.89 210.18,-35.56"/>
<polygon fill="#63b8ff" stroke="#63b8ff" points="211.06,-38.96 219.43,-32.46 208.84,-32.32 211.06,-38.96"/>
</a>
</g>
</g>
<!-- Node3 -->
<g id="Node000003" class="node">
<title>Node3</title>
<g id="a_Node000003"><a xlink:href="classmqtt_1_1bridge_1_1lib_1_1SSEDistributor.html#ab3ae5e9780ecb99eb541615b86c28bce" target="_top" xlink:title=" ">
<polygon fill="white" stroke="#666666" points="555,-232.5 397.25,-232.5 397.25,-199 555,-199 555,-232.5"/>
<text xml:space="preserve" text-anchor="start" x="405.25" y="-219" font-family="Helvetica,sans-Serif" font-size="10.00">mqtt::bridge::lib::</text>
<text xml:space="preserve" text-anchor="middle" x="476.12" y="-206.25" font-family="Helvetica,sans-Serif" font-size="10.00">SSEDistributor::bridgeStarted</text>
</a>
</g>
</g>
<!-- Node2&#45;&gt;Node3 -->
<g id="edge2_Node000002_Node000003" class="edge">
<title>Node2&#45;&gt;Node3</title>
<g id="a_edge2_Node000002_Node000003"><a xlink:title=" ">
<path fill="none" stroke="#63b8ff" d="M321.81,-174.89C345.18,-181.12 373.61,-188.7 399.62,-195.63"/>
<polygon fill="#63b8ff" stroke="#63b8ff" points="398.57,-198.97 409.13,-198.16 400.37,-192.21 398.57,-198.97"/>
</a>
</g>
</g>
<!-- Node4 -->
<g id="Node000004" class="node">
<title>Node4</title>
<g id="a_Node000004"><a xlink:href="classmqtt_1_1bridge_1_1lib_1_1SSEDistributor.html#a65e615fcf8a78daab16cd91f5c219374" target="_top" xlink:title=" ">
<polygon fill="white" stroke="#666666" points="563.25,-180.5 389,-180.5 389,-147 563.25,-147 563.25,-180.5"/>
<text xml:space="preserve" text-anchor="start" x="397" y="-167" font-family="Helvetica,sans-Serif" font-size="10.00">mqtt::bridge::lib::</text>
<text xml:space="preserve" text-anchor="middle" x="476.12" y="-154.25" font-family="Helvetica,sans-Serif" font-size="10.00">SSEDistributor::brokerConnected</text>
</a>
</g>
</g>
<!-- Node2&#45;&gt;Node4 -->
<g id="edge3_Node000002_Node000004" class="edge">
<title>Node2&#45;&gt;Node4</title>
<g id="a_edge3_Node000002_Node000004"><a xlink:title=" ">
<path fill="none" stroke="#63b8ff" d="M321.81,-162.24C338.65,-162.4 358.13,-162.6 377.42,-162.79"/>
<polygon fill="#63b8ff" stroke="#63b8ff" points="377.2,-166.28 387.23,-162.88 377.27,-159.28 377.2,-166.28"/>
</a>
</g>
</g>
<!-- Node2&#45;&gt;Node5 -->
<g id="edge4_Node000002_Node000005" class="edge">
<title>Node2&#45;&gt;Node5</title>
<g id="a_edge4_Node000002_Node000005"><a xlink:title=" ">
<path fill="none" stroke="#63b8ff" d="M321.81,-149.58C344.87,-143.89 372.87,-136.98 398.59,-130.64"/>
<polygon fill="#63b8ff" stroke="#63b8ff" points="399.12,-134.11 407.99,-128.32 397.44,-127.31 399.12,-134.11"/>
</a>
</g>
</g>
</g>
</svg>

<g id="navigator" transform="translate(0 0)" fill="#404254">
  <rect fill="#f2f5e9" fill-opacity="0.5" stroke="#606060" stroke-width=".5" x="0" y="0" width="60" height="60"/>
  <use id="zoomplus" xlink:href="#zoomPlus" x="17" y="9" onmousedown="handleZoom(evt,'in')"/>
  <use id="zoomminus" xlink:href="#zoomMin" x="42" y="9" onmousedown="handleZoom(evt,'out')"/>
  <use id="reset" xlink:href="#resetDef" x="30" y="36" onmousedown="handleReset()"/>
   <use id="arrowup" xlink:href="#arrowUp" x="0" y="0" onmousedown="handlePan(0,-1)"/>
  <use id="arrowright" xlink:href="#arrowRight" x="0" y="0" onmousedown="handlePan(1,0)"/>
  <use id="arrowdown" xlink:href="#arrowDown" x="0" y="0" onmousedown="handlePan(0,1)"/>
  <use id="arrowleft" xlink:href="#arrowLeft" x="0" y="0" onmousedown="handlePan(-1,0)"/>
</g>
<svg viewBox="0 0 15 15" width="100%" height="30px" preserveAspectRatio="xMaxYMin meet">
 <g id="arrow_out" transform="scale(0.3 0.3)">
  <a xlink:href="classmqtt_1_1bridge_1_1lib_1_1BridgeStore_a3e74b309f1d8aa60e4487e35abc1a8b1_cgraph_org.svg" target="_base">
   <rect id="button" ry="5" rx="5" y="6" x="6" height="38" width="38"
        fill="#f2f5e9" fill-opacity="0.5" stroke="#606060" stroke-width="1.0"/>
   <path id="arrow"
     d="M 11.500037,31.436501 C 11.940474,20.09759 22.043105,11.32322 32.158766,21.979434 L 37.068811,17.246167 C 37.068811,17.246167 37.088388,32 37.088388,32 L 22.160133,31.978069 C 22.160133,31.978069 26.997745,27.140456 26.997745,27.140456 C 18.528582,18.264221 13.291696,25.230495 11.500037,31.436501 z"
     style="fill:#404040;"/>
  </a>
 </g>
</svg>

<style type='text/css'>
<![CDATA[
[data-mouse-over-selected='false'] { opacity: 0.7; }
[data-mouse-over-selected='true']  { opacity: 1.0; }
]]>
</style>
<script type="application/ecmascript"><![CDATA[
document.addEventListener('DOMContentLoaded', (event) => {
  highlightEdges();
  highlightAdjacentNodes();
});
]]></script>
</svg>
