<?xml version="1.0" encoding="UTF-8" standalone="no"?>
<!DOCTYPE svg PUBLIC "-//W3C//DTD SVG 1.1//EN"
 "http://www.w3.org/Graphics/SVG/1.1/DTD/svg11.dtd">
<!-- Generated by graphviz version 2.42.4 (0)
 -->
<!-- Title: inja::Parser::parse_expression Pages: 1 -->
<!--zoomable 463 -->

<svg id="main" version="1.1" xmlns="http://www.w3.org/2000/svg" xmlns:xlink="http://www.w3.org/1999/xlink" xml:space="preserve" onload="init(evt)">
<style type="text/css"><![CDATA[
.node, .edge {opacity: 0.7;}
.node.selected, .edge.selected {opacity: 1;}
.edge:hover path { stroke: red; }
.edge:hover polygon { stroke: red; fill: red; }
]]></style>

<defs>
  <circle id="rim" cx="0" cy="0" r="7"/>
  <circle id="rim2" cx="0" cy="0" r="3.5"/>
  <g id="zoomPlus">
    <use xlink:href="#rim" fill="#404040"><set attributeName="fill" to="#808080" begin="zoomplus.mouseover" end="zoomplus.mouseout"/></use>
    <path d="M-4,0h8M0,-4v8" fill="none" stroke="white" stroke-width="1.5" pointer-events="none"/>
  </g>
  <g id="zoomMin">
    <use xlink:href="#rim" fill="#404040"><set attributeName="fill" to="#808080" begin="zoomminus.mouseover" end="zoomminus.mouseout"/></use>
    <path d="M-4,0h8" fill="none" stroke="white" stroke-width="1.5" pointer-events="none"/>
  </g>
  <g id="arrowUp" transform="translate(30 24)">
    <use xlink:href="#rim"/>
    <path pointer-events="none" fill="none" stroke="white" stroke-width="1.5" d="M0,-3.0v7 M-2.5,-0.5L0,-3.0L2.5,-0.5"/>
  </g>
  <g id="arrowRight" transform="rotate(90) translate(36 -43)">
    <use xlink:href="#rim"/>
    <path pointer-events="none" fill="none" stroke="white" stroke-width="1.5" d="M0,-3.0v7 M-2.5,-0.5L0,-3.0L2.5,-0.5"/>
  </g>
  <g id="arrowDown" transform="rotate(180) translate(-30 -48)">
    <use xlink:href="#rim"/>
    <path pointer-events="none" fill="none" stroke="white" stroke-width="1.5" d="M0,-3.0v7 M-2.5,-0.5L0,-3.0L2.5,-0.5"/>
  </g>
  <g id="arrowLeft" transform="rotate(270) translate(-36 17)">
    <use xlink:href="#rim"/>
    <path pointer-events="none" fill="none" stroke="white" stroke-width="1.5" d="M0,-3.0v7 M-2.5,-0.5L0,-3.0L2.5,-0.5"/>
  </g>
  <g id="resetDef">
    <use xlink:href="#rim2" fill="#404040"><set attributeName="fill" to="#808080" begin="reset.mouseover" end="reset.mouseout"/></use>
  </g>
</defs>
<script type="application/ecmascript">
var viewWidth = 1239;
var viewHeight = 463;
var sectionId = 'dynsection-15';
</script>
<script type="application/ecmascript" xlink:href="svg.min.js"/>
<svg id="graph" class="graph">
<g id="viewport">
<title>inja::Parser::parse_expression</title>
<!-- Node1 -->
<g id="Node000001" class="node">
<title>Node1</title>
<g id="a_Node000001"><a xlink:title=" ">
<polygon fill="#999999" stroke="#666666" points="104,-254 0,-254 0,-224 104,-224 104,-254"/>
<text text-anchor="start" x="8" y="-242" font-family="Helvetica,sans-Serif" font-size="10.00">inja::Parser::parse</text>
<text text-anchor="middle" x="52" y="-231" font-family="Helvetica,sans-Serif" font-size="10.00">_expression</text>
</a>
</g>
</g>
<!-- Node2 -->
<g id="Node000002" class="node">
<title>Node2</title>
<g id="a_Node000002"><a xlink:href="classinja_1_1Parser.html#a7dda6b9f4295c215e097f45d573d8d69" target="_top" xlink:title=" ">
<polygon fill="white" stroke="#666666" points="244,-254 140,-254 140,-224 244,-224 244,-254"/>
<text text-anchor="start" x="148" y="-242" font-family="Helvetica,sans-Serif" font-size="10.00">inja::Parser::parse</text>
<text text-anchor="middle" x="192" y="-231" font-family="Helvetica,sans-Serif" font-size="10.00">_expression</text>
</a>
</g>
</g>
<!-- Node1&#45;&gt;Node2 -->
<g id="edge1_Node000001_Node000002" class="edge">
<title>Node1&#45;&gt;Node2</title>
<g id="a_edge1_Node000001_Node000002"><a xlink:title=" ">
<path fill="none" stroke="#63b8ff" d="M104.39,-239C112.56,-239 121.08,-239 129.46,-239"/>
<polygon fill="#63b8ff" stroke="#63b8ff" points="129.57,-242.5 139.57,-239 129.57,-235.5 129.57,-242.5"/>
</a>
</g>
</g>
<!-- Node2&#45;&gt;Node2 -->
<g id="edge27_Node000002_Node000002" class="edge">
<title>Node2&#45;&gt;Node2</title>
<g id="a_edge27_Node000002_Node000002"><a xlink:title=" ">
<path fill="none" stroke="#63b8ff" d="M167.39,-254.28C161.92,-263.41 170.12,-272 192,-272 204.99,-272 213.16,-268.97 216.51,-264.6"/>
<polygon fill="#63b8ff" stroke="#63b8ff" points="220.01,-264.31 216.61,-254.28 213.01,-264.24 220.01,-264.31"/>
</a>
</g>
</g>
<!-- Node3 -->
<g id="Node000003" class="node">
<title>Node3</title>
<g id="a_Node000003"><a xlink:href="structinja_1_1Token.html#adc8c0a84e2d4ce0a3625c399bd259f1f" target="_top" xlink:title=" ">
<polygon fill="white" stroke="#666666" points="399,-339.5 283,-339.5 283,-320.5 399,-320.5 399,-339.5"/>
<text text-anchor="middle" x="341" y="-327.5" font-family="Helvetica,sans-Serif" font-size="10.00">inja::Token::describe</text>
</a>
</g>
</g>
<!-- Node2&#45;&gt;Node3 -->
<g id="edge2_Node000002_Node000003" class="edge">
<title>Node2&#45;&gt;Node3</title>
<g id="a_edge2_Node000002_Node000003"><a xlink:title=" ">
<path fill="none" stroke="#63b8ff" d="M207.69,-254.25C224,-270.39 251.77,-295.61 280,-311 283.99,-313.18 288.27,-315.15 292.64,-316.92"/>
<polygon fill="#63b8ff" stroke="#63b8ff" points="291.68,-320.3 302.27,-320.5 294.12,-313.74 291.68,-320.3"/>
</a>
</g>
</g>
<!-- Node4 -->
<g id="Node000004" class="node">
<title>Node4</title>
<g id="a_Node000004"><a xlink:href="classinja_1_1FunctionStorage.html#af382c6fe227c69fa5cc36703a655912c" target="_top" xlink:title=" ">
<polygon fill="white" stroke="#666666" points="400.5,-302 281.5,-302 281.5,-272 400.5,-272 400.5,-302"/>
<text text-anchor="start" x="289.5" y="-290" font-family="Helvetica,sans-Serif" font-size="10.00">inja::FunctionStorage</text>
<text text-anchor="middle" x="341" y="-279" font-family="Helvetica,sans-Serif" font-size="10.00">::find_function</text>
</a>
</g>
</g>
<!-- Node2&#45;&gt;Node4 -->
<g id="edge3_Node000002_Node000004" class="edge">
<title>Node2&#45;&gt;Node4</title>
<g id="a_edge3_Node000002_Node000004"><a xlink:title=" ">
<path fill="none" stroke="#63b8ff" d="M239.11,-254.06C253.47,-258.75 269.47,-263.97 284.41,-268.85"/>
<polygon fill="#63b8ff" stroke="#63b8ff" points="283.46,-272.22 294.06,-272 285.64,-265.57 283.46,-272.22"/>
</a>
</g>
</g>
<!-- Node5 -->
<g id="Node000005" class="node">
<title>Node5</title>
<g id="a_Node000005"><a xlink:href="classinja_1_1Parser.html#ab8bb45bc1eeead74f630efa420ee6212" target="_top" xlink:title=" ">
<polygon fill="white" stroke="#666666" points="401,-206 281,-206 281,-176 401,-176 401,-206"/>
<text text-anchor="start" x="289" y="-194" font-family="Helvetica,sans-Serif" font-size="10.00">inja::Parser::get_next</text>
<text text-anchor="middle" x="341" y="-183" font-family="Helvetica,sans-Serif" font-size="10.00">_token</text>
</a>
</g>
</g>
<!-- Node2&#45;&gt;Node5 -->
<g id="edge4_Node000002_Node000005" class="edge">
<title>Node2&#45;&gt;Node5</title>
<g id="a_edge4_Node000002_Node000005"><a xlink:title=" ">
<path fill="none" stroke="#63b8ff" d="M239.11,-223.94C253.47,-219.25 269.47,-214.03 284.41,-209.15"/>
<polygon fill="#63b8ff" stroke="#63b8ff" points="285.64,-212.43 294.06,-206 283.46,-205.78 285.64,-212.43"/>
</a>
</g>
</g>
<!-- Node18 -->
<g id="Node000018" class="node">
<title>Node18</title>
<g id="a_Node000018"><a xlink:href="classinja_1_1Parser.html#a16b5b7d40ed3e6a536194d1367626fd9" target="_top" xlink:title=" ">
<polygon fill="white" stroke="#666666" points="402,-254 280,-254 280,-224 402,-224 402,-254"/>
<text text-anchor="start" x="288" y="-242" font-family="Helvetica,sans-Serif" font-size="10.00">inja::Parser::get_peek</text>
<text text-anchor="middle" x="341" y="-231" font-family="Helvetica,sans-Serif" font-size="10.00">_token</text>
</a>
</g>
</g>
<!-- Node2&#45;&gt;Node18 -->
<g id="edge25_Node000002_Node000018" class="edge">
<title>Node2&#45;&gt;Node18</title>
<g id="a_edge25_Node000002_Node000018"><a xlink:title=" ">
<path fill="none" stroke="#63b8ff" d="M244,-239C252.35,-239 261.12,-239 269.83,-239"/>
<polygon fill="#63b8ff" stroke="#63b8ff" points="269.99,-242.5 279.99,-239 269.99,-235.5 269.99,-242.5"/>
</a>
</g>
</g>
<!-- Node19 -->
<g id="Node000019" class="node">
<title>Node19</title>
<g id="a_Node000019"><a xlink:href="classinja_1_1Parser.html#a1b11e4984c1934c4e670a609f728ceee" target="_top" xlink:title=" ">
<polygon fill="white" stroke="#666666" points="393.5,-78 288.5,-78 288.5,-48 393.5,-48 393.5,-78"/>
<text text-anchor="start" x="296.5" y="-66" font-family="Helvetica,sans-Serif" font-size="10.00">inja::Parser::throw</text>
<text text-anchor="middle" x="341" y="-55" font-family="Helvetica,sans-Serif" font-size="10.00">_parser_error</text>
</a>
</g>
</g>
<!-- Node2&#45;&gt;Node19 -->
<g id="edge28_Node000002_Node000019" class="edge">
<title>Node2&#45;&gt;Node19</title>
<g id="a_edge28_Node000002_Node000019"><a xlink:title=" ">
<path fill="none" stroke="#63b8ff" d="M205.53,-223.99C231.29,-193.16 290.31,-122.5 320.87,-85.9"/>
<polygon fill="#63b8ff" stroke="#63b8ff" points="323.57,-88.14 327.29,-78.22 318.19,-83.65 323.57,-88.14"/>
</a>
</g>
</g>
<!-- Node6 -->
<g id="Node000006" class="node">
<title>Node6</title>
<g id="a_Node000006"><a xlink:href="classinja_1_1Lexer.html#a8c85efa9536869c371b8afb609e0d8d2" target="_top" xlink:title=" ">
<polygon fill="white" stroke="#666666" points="540,-248.5 444,-248.5 444,-229.5 540,-229.5 540,-248.5"/>
<text text-anchor="middle" x="492" y="-236.5" font-family="Helvetica,sans-Serif" font-size="10.00">inja::Lexer::scan</text>
</a>
</g>
</g>
<!-- Node5&#45;&gt;Node6 -->
<g id="edge5_Node000005_Node000006" class="edge">
<title>Node5&#45;&gt;Node6</title>
<g id="a_edge5_Node000005_Node000006"><a xlink:title=" ">
<path fill="none" stroke="#63b8ff" d="M388.74,-206.06C408.94,-212.56 432.32,-220.1 451.63,-226.32"/>
<polygon fill="#63b8ff" stroke="#63b8ff" points="450.72,-229.7 461.31,-229.44 452.87,-223.04 450.72,-229.7"/>
</a>
</g>
</g>
<!-- Node7 -->
<g id="Node000007" class="node">
<title>Node7</title>
<g id="a_Node000007"><a xlink:href="classinja_1_1Lexer.html#a0f4034e3151f72f121fb4f2b63374ce1" target="_top" xlink:title=" ">
<polygon fill="white" stroke="#666666" points="722,-111 582,-111 582,-81 722,-81 722,-111"/>
<text text-anchor="start" x="590" y="-99" font-family="Helvetica,sans-Serif" font-size="10.00">inja::Lexer::clear</text>
<text text-anchor="middle" x="652" y="-88" font-family="Helvetica,sans-Serif" font-size="10.00">_final_line_if_whitespace</text>
</a>
</g>
</g>
<!-- Node6&#45;&gt;Node7 -->
<g id="edge6_Node000006_Node000007" class="edge">
<title>Node6&#45;&gt;Node7</title>
<g id="a_edge6_Node000006_Node000007"><a xlink:title=" ">
<path fill="none" stroke="#63b8ff" d="M498.19,-229.4C510.23,-207.93 542.11,-155.51 582,-125 586.45,-121.6 591.36,-118.52 596.45,-115.75"/>
<polygon fill="#63b8ff" stroke="#63b8ff" points="598.36,-118.7 605.74,-111.1 595.23,-112.44 598.36,-118.7"/>
</a>
</g>
</g>
<!-- Node8 -->
<g id="Node000008" class="node">
<title>Node8</title>
<g id="a_Node000008"><a xlink:href="classinja_1_1Lexer.html#a6088871283d1a03087b325b88c9396f4" target="_top" xlink:title=" ">
<polygon fill="white" stroke="#666666" points="1089.5,-330.5 956.5,-330.5 956.5,-311.5 1089.5,-311.5 1089.5,-330.5"/>
<text text-anchor="middle" x="1023" y="-318.5" font-family="Helvetica,sans-Serif" font-size="10.00">inja::Lexer::make_token</text>
</a>
</g>
</g>
<!-- Node6&#45;&gt;Node8 -->
<g id="edge7_Node000006_Node000008" class="edge">
<title>Node6&#45;&gt;Node8</title>
<g id="a_edge7_Node000006_Node000008"><a xlink:title=" ">
<path fill="none" stroke="#63b8ff" d="M500.5,-248.67C514.84,-266.72 547.81,-306.07 582,-332 652.65,-385.59 671.97,-404.47 758,-426 826.98,-443.27 852.37,-453.37 918,-426 960.21,-408.4 994.05,-364.41 1010.72,-339.31"/>
<polygon fill="#63b8ff" stroke="#63b8ff" points="1013.79,-341.01 1016.25,-330.71 1007.9,-337.23 1013.79,-341.01"/>
</a>
</g>
</g>
<!-- Node9 -->
<g id="Node000009" class="node">
<title>Node9</title>
<g id="a_Node000009"><a xlink:href="namespaceinja_1_1string__view.html#a898871016595d8f34d1b4ea55b3e8684" target="_top" xlink:title=" ">
<polygon fill="white" stroke="#666666" points="1231,-128 1128,-128 1128,-98 1231,-98 1231,-128"/>
<text text-anchor="start" x="1136" y="-116" font-family="Helvetica,sans-Serif" font-size="10.00">inja::string_view::</text>
<text text-anchor="middle" x="1179.5" y="-105" font-family="Helvetica,sans-Serif" font-size="10.00">slice</text>
</a>
</g>
</g>
<!-- Node6&#45;&gt;Node9 -->
<g id="edge22_Node000006_Node000009" class="edge">
<title>Node6&#45;&gt;Node9</title>
<g id="a_edge22_Node000006_Node000009"><a xlink:title=" ">
<path fill="none" stroke="#63b8ff" d="M505.3,-229.45C521.88,-216.98 552.72,-195.19 582,-182 763.58,-100.21 1006.33,-102.06 1117.84,-108.27"/>
<polygon fill="#63b8ff" stroke="#63b8ff" points="1117.7,-111.77 1127.89,-108.87 1118.11,-104.78 1117.7,-111.77"/>
</a>
</g>
</g>
<!-- Node10 -->
<g id="Node000010" class="node">
<title>Node10</title>
<g id="a_Node000010"><a xlink:href="structinja_1_1Token.html#ae215b2b1e365fc7c4060895b604e2430" target="_top" xlink:title=" ">
<polygon fill="white" stroke="#666666" points="1230.5,-411.5 1128.5,-411.5 1128.5,-392.5 1230.5,-392.5 1230.5,-411.5"/>
<text text-anchor="middle" x="1179.5" y="-399.5" font-family="Helvetica,sans-Serif" font-size="10.00">inja::Token::Token</text>
</a>
</g>
</g>
<!-- Node6&#45;&gt;Node10 -->
<g id="edge24_Node000006_Node000010" class="edge">
<title>Node6&#45;&gt;Node10</title>
<g id="a_edge24_Node000006_Node000010"><a xlink:title=" ">
<path fill="none" stroke="#63b8ff" d="M496.08,-248.59C504.98,-274.85 533.28,-348.57 582,-388 646.24,-439.99 676.47,-434.48 758,-448 895.63,-470.82 1060.56,-434.44 1136.48,-414.16"/>
<polygon fill="#63b8ff" stroke="#63b8ff" points="1137.42,-417.53 1146.15,-411.53 1135.59,-410.77 1137.42,-417.53"/>
</a>
</g>
</g>
<!-- Node11 -->
<g id="Node000011" class="node">
<title>Node11</title>
<g id="a_Node000011"><a xlink:href="classinja_1_1Lexer.html#aa342980e23b7a9fa633e82cf38c3c682" target="_top" xlink:title=" ">
<polygon fill="white" stroke="#666666" points="714.5,-276.5 589.5,-276.5 589.5,-257.5 714.5,-257.5 714.5,-276.5"/>
<text text-anchor="middle" x="652" y="-264.5" font-family="Helvetica,sans-Serif" font-size="10.00">inja::Lexer::scan_body</text>
</a>
</g>
</g>
<!-- Node6&#45;&gt;Node11 -->
<g id="edge10_Node000006_Node000011" class="edge">
<title>Node6&#45;&gt;Node11</title>
<g id="a_edge10_Node000006_Node000011"><a xlink:title=" ">
<path fill="none" stroke="#63b8ff" d="M540.41,-247.4C555.09,-250 571.53,-252.92 587.14,-255.68"/>
<polygon fill="#63b8ff" stroke="#63b8ff" points="586.8,-259.18 597.26,-257.48 588.02,-252.28 586.8,-259.18"/>
</a>
</g>
</g>
<!-- Node15 -->
<g id="Node000015" class="node">
<title>Node15</title>
<g id="a_Node000015"><a xlink:href="classinja_1_1Lexer.html#ae4dcb266522442d430dcb8d381b5fdb1" target="_top" xlink:title=" ">
<polygon fill="white" stroke="#666666" points="918,-171 758,-171 758,-141 918,-141 918,-171"/>
<text text-anchor="start" x="766" y="-159" font-family="Helvetica,sans-Serif" font-size="10.00">inja::Lexer::skip_whitespaces</text>
<text text-anchor="middle" x="838" y="-148" font-family="Helvetica,sans-Serif" font-size="10.00">_and_first_newline</text>
</a>
</g>
</g>
<!-- Node6&#45;&gt;Node15 -->
<g id="edge21_Node000006_Node000015" class="edge">
<title>Node6&#45;&gt;Node15</title>
<g id="a_edge21_Node000006_Node000015"><a xlink:title=" ">
<path fill="none" stroke="#63b8ff" d="M532.46,-229.48C589.09,-215.81 694.37,-190.41 765.07,-173.36"/>
<polygon fill="#63b8ff" stroke="#63b8ff" points="765.9,-176.75 774.8,-171.01 764.26,-169.95 765.9,-176.75"/>
</a>
</g>
</g>
<!-- Node17 -->
<g id="Node000017" class="node">
<title>Node17</title>
<g id="a_Node000017"><a xlink:href="namespaceinja_1_1string__view.html#a78e9922c080101c22e54419f7caa83d8" target="_top" xlink:title=" ">
<polygon fill="white" stroke="#666666" points="889.5,-417 786.5,-417 786.5,-387 889.5,-387 889.5,-417"/>
<text text-anchor="start" x="794.5" y="-405" font-family="Helvetica,sans-Serif" font-size="10.00">inja::string_view::</text>
<text text-anchor="middle" x="838" y="-394" font-family="Helvetica,sans-Serif" font-size="10.00">starts_with</text>
</a>
</g>
</g>
<!-- Node6&#45;&gt;Node17 -->
<g id="edge23_Node000006_Node000017" class="edge">
<title>Node6&#45;&gt;Node17</title>
<g id="a_edge23_Node000006_Node000017"><a xlink:title=" ">
<path fill="none" stroke="#63b8ff" d="M510.94,-248.59C528.83,-258.07 557.14,-272.88 582,-285 655.63,-320.89 742.56,-360.12 793.54,-382.81"/>
<polygon fill="#63b8ff" stroke="#63b8ff" points="792.38,-386.12 802.94,-386.98 795.22,-379.72 792.38,-386.12"/>
</a>
</g>
</g>
<!-- Node8&#45;&gt;Node9 -->
<g id="edge8_Node000008_Node000009" class="edge">
<title>Node8&#45;&gt;Node9</title>
<g id="a_edge8_Node000008_Node000009"><a xlink:title=" ">
<path fill="none" stroke="#63b8ff" d="M1031.24,-311.25C1054.5,-279.93 1127.72,-181.36 1161.33,-136.11"/>
<polygon fill="#63b8ff" stroke="#63b8ff" points="1164.16,-138.18 1167.31,-128.06 1158.54,-134 1164.16,-138.18"/>
</a>
</g>
</g>
<!-- Node8&#45;&gt;Node10 -->
<g id="edge9_Node000008_Node000010" class="edge">
<title>Node8&#45;&gt;Node10</title>
<g id="a_edge9_Node000008_Node000010"><a xlink:title=" ">
<path fill="none" stroke="#63b8ff" d="M1042.33,-330.61C1069.28,-344.74 1119.77,-371.21 1151.13,-387.65"/>
<polygon fill="#63b8ff" stroke="#63b8ff" points="1149.71,-390.86 1160.19,-392.4 1152.96,-384.66 1149.71,-390.86"/>
</a>
</g>
</g>
<!-- Node11&#45;&gt;Node8 -->
<g id="edge11_Node000011_Node000008" class="edge">
<title>Node11&#45;&gt;Node8</title>
<g id="a_edge11_Node000011_Node000008"><a xlink:title=" ">
<path fill="none" stroke="#63b8ff" d="M662.61,-276.67C679.88,-293.28 718.1,-326.63 758,-339 833.65,-362.44 927.13,-346.15 980.12,-333.01"/>
<polygon fill="#63b8ff" stroke="#63b8ff" points="981.03,-336.39 989.85,-330.52 979.29,-329.61 981.03,-336.39"/>
</a>
</g>
</g>
<!-- Node12 -->
<g id="Node000012" class="node">
<title>Node12</title>
<g id="a_Node000012"><a xlink:href="classinja_1_1Lexer.html#acb4ddc9702038530f73db97c701a60a5" target="_top" xlink:title=" ">
<polygon fill="white" stroke="#666666" points="893,-330.5 783,-330.5 783,-311.5 893,-311.5 893,-330.5"/>
<text text-anchor="middle" x="838" y="-318.5" font-family="Helvetica,sans-Serif" font-size="10.00">inja::Lexer::scan_id</text>
</a>
</g>
</g>
<!-- Node11&#45;&gt;Node12 -->
<g id="edge12_Node000011_Node000012" class="edge">
<title>Node11&#45;&gt;Node12</title>
<g id="a_edge12_Node000011_Node000012"><a xlink:title=" ">
<path fill="none" stroke="#63b8ff" d="M679.56,-276.56C700.67,-283.98 731.03,-294.28 758,-302 766.47,-304.43 775.52,-306.8 784.35,-309"/>
<polygon fill="#63b8ff" stroke="#63b8ff" points="783.64,-312.43 794.19,-311.41 785.3,-305.63 783.64,-312.43"/>
</a>
</g>
</g>
<!-- Node13 -->
<g id="Node000013" class="node">
<title>Node13</title>
<g id="a_Node000013"><a xlink:href="classinja_1_1Lexer.html#ab9aa4522a541720d58268d7d3e27e63f" target="_top" xlink:title=" ">
<polygon fill="white" stroke="#666666" points="907.5,-293.5 768.5,-293.5 768.5,-274.5 907.5,-274.5 907.5,-293.5"/>
<text text-anchor="middle" x="838" y="-281.5" font-family="Helvetica,sans-Serif" font-size="10.00">inja::Lexer::scan_number</text>
</a>
</g>
</g>
<!-- Node11&#45;&gt;Node13 -->
<g id="edge14_Node000011_Node000013" class="edge">
<title>Node11&#45;&gt;Node13</title>
<g id="a_edge14_Node000011_Node000013"><a xlink:title=" ">
<path fill="none" stroke="#63b8ff" d="M714.53,-272.68C728.53,-273.98 743.6,-275.37 758.21,-276.72"/>
<polygon fill="#63b8ff" stroke="#63b8ff" points="757.96,-280.21 768.24,-277.65 758.6,-273.24 757.96,-280.21"/>
</a>
</g>
</g>
<!-- Node14 -->
<g id="Node000014" class="node">
<title>Node14</title>
<g id="a_Node000014"><a xlink:href="classinja_1_1Lexer.html#a3e8f3f7d8569fa5d781633b57a6bdcca" target="_top" xlink:title=" ">
<polygon fill="white" stroke="#666666" points="902.5,-256.5 773.5,-256.5 773.5,-237.5 902.5,-237.5 902.5,-256.5"/>
<text text-anchor="middle" x="838" y="-244.5" font-family="Helvetica,sans-Serif" font-size="10.00">inja::Lexer::scan_string</text>
</a>
</g>
</g>
<!-- Node11&#45;&gt;Node14 -->
<g id="edge16_Node000011_Node000014" class="edge">
<title>Node11&#45;&gt;Node14</title>
<g id="a_edge16_Node000011_Node000014"><a xlink:title=" ">
<path fill="none" stroke="#63b8ff" d="M714.53,-260.31C730.18,-258.61 747.17,-256.76 763.37,-255"/>
<polygon fill="#63b8ff" stroke="#63b8ff" points="763.77,-258.48 773.33,-253.92 763.01,-251.52 763.77,-258.48"/>
</a>
</g>
</g>
<!-- Node11&#45;&gt;Node15 -->
<g id="edge18_Node000011_Node000015" class="edge">
<title>Node11&#45;&gt;Node15</title>
<g id="a_edge18_Node000011_Node000015"><a xlink:title=" ">
<path fill="none" stroke="#63b8ff" d="M672.66,-257.42C687.18,-249.8 706.94,-238.24 722,-225 741.23,-208.08 736.8,-194.37 758,-180 760.39,-178.38 762.9,-176.87 765.48,-175.45"/>
<polygon fill="#63b8ff" stroke="#63b8ff" points="767.09,-178.56 774.54,-171.02 764.02,-172.27 767.09,-178.56"/>
</a>
</g>
</g>
<!-- Node16 -->
<g id="Node000016" class="node">
<title>Node16</title>
<g id="a_Node000016"><a xlink:href="classinja_1_1Lexer.html#a50d21b69bfa1cd5e6d2e9b5c1bd53c53" target="_top" xlink:title=" ">
<polygon fill="white" stroke="#666666" points="918,-219 758,-219 758,-189 918,-189 918,-219"/>
<text text-anchor="start" x="766" y="-207" font-family="Helvetica,sans-Serif" font-size="10.00">inja::Lexer::skip_whitespaces</text>
<text text-anchor="middle" x="838" y="-196" font-family="Helvetica,sans-Serif" font-size="10.00">_and_newlines</text>
</a>
</g>
</g>
<!-- Node11&#45;&gt;Node16 -->
<g id="edge19_Node000011_Node000016" class="edge">
<title>Node11&#45;&gt;Node16</title>
<g id="a_edge19_Node000011_Node000016"><a xlink:title=" ">
<path fill="none" stroke="#63b8ff" d="M677.46,-257.44C698.64,-249.27 730.18,-237.38 758,-228 763.88,-226.02 770.04,-224.02 776.2,-222.06"/>
<polygon fill="#63b8ff" stroke="#63b8ff" points="777.36,-225.37 785.86,-219.04 775.27,-218.69 777.36,-225.37"/>
</a>
</g>
</g>
<!-- Node11&#45;&gt;Node17 -->
<g id="edge20_Node000011_Node000017" class="edge">
<title>Node11&#45;&gt;Node17</title>
<g id="a_edge20_Node000011_Node000017"><a xlink:title=" ">
<path fill="none" stroke="#63b8ff" d="M662.17,-276.73C685.63,-301.55 746.78,-365.79 758,-373 763.78,-376.71 770.1,-380.04 776.58,-383"/>
<polygon fill="#63b8ff" stroke="#63b8ff" points="775.55,-386.37 786.12,-387.07 778.29,-379.93 775.55,-386.37"/>
</a>
</g>
</g>
<!-- Node12&#45;&gt;Node8 -->
<g id="edge13_Node000012_Node000008" class="edge">
<title>Node12&#45;&gt;Node8</title>
<g id="a_edge13_Node000012_Node000008"><a xlink:title=" ">
<path fill="none" stroke="#63b8ff" d="M893.41,-321C909.97,-321 928.48,-321 946.18,-321"/>
<polygon fill="#63b8ff" stroke="#63b8ff" points="946.49,-324.5 956.49,-321 946.49,-317.5 946.49,-324.5"/>
</a>
</g>
</g>
<!-- Node13&#45;&gt;Node8 -->
<g id="edge15_Node000013_Node000008" class="edge">
<title>Node13&#45;&gt;Node8</title>
<g id="a_edge15_Node000013_Node000008"><a xlink:title=" ">
<path fill="none" stroke="#63b8ff" d="M886.13,-293.53C910.15,-298.39 939.57,-304.33 964.88,-309.45"/>
<polygon fill="#63b8ff" stroke="#63b8ff" points="964.22,-312.89 974.71,-311.44 965.61,-306.03 964.22,-312.89"/>
</a>
</g>
</g>
<!-- Node14&#45;&gt;Node8 -->
<g id="edge17_Node000014_Node000008" class="edge">
<title>Node14&#45;&gt;Node8</title>
<g id="a_edge17_Node000014_Node000008"><a xlink:title=" ">
<path fill="none" stroke="#63b8ff" d="M890.17,-256.53C899.56,-258.88 909.18,-261.69 918,-265 946.97,-275.87 977.92,-293.38 998.45,-305.93"/>
<polygon fill="#63b8ff" stroke="#63b8ff" points="996.77,-309 1007.11,-311.3 1000.46,-303.05 996.77,-309"/>
</a>
</g>
</g>
<!-- Node18&#45;&gt;Node6 -->
<g id="edge26_Node000018_Node000006" class="edge">
<title>Node18&#45;&gt;Node6</title>
<g id="a_edge26_Node000018_Node000006"><a xlink:title=" ">
<path fill="none" stroke="#63b8ff" d="M402.17,-239C412.59,-239 423.4,-239 433.74,-239"/>
<polygon fill="#63b8ff" stroke="#63b8ff" points="433.89,-242.5 443.89,-239 433.89,-235.5 433.89,-242.5"/>
</a>
</g>
</g>
<!-- Node20 -->
<g id="Node000020" class="node">
<title>Node20</title>
<g id="a_Node000020"><a xlink:href="classinja_1_1Lexer.html#a0ec13f470ddcf0c1fb7466f6168451b2" target="_top" xlink:title=" ">
<polygon fill="white" stroke="#666666" points="546,-30 438,-30 438,0 546,0 546,-30"/>
<text text-anchor="start" x="446" y="-18" font-family="Helvetica,sans-Serif" font-size="10.00">inja::Lexer::current</text>
<text text-anchor="middle" x="492" y="-7" font-family="Helvetica,sans-Serif" font-size="10.00">_position</text>
</a>
</g>
</g>
<!-- Node19&#45;&gt;Node20 -->
<g id="edge29_Node000019_Node000020" class="edge">
<title>Node19&#45;&gt;Node20</title>
<g id="a_edge29_Node000019_Node000020"><a xlink:title=" ">
<path fill="none" stroke="#63b8ff" d="M388.74,-47.94C403.3,-43.25 419.51,-38.03 434.66,-33.15"/>
<polygon fill="#63b8ff" stroke="#63b8ff" points="435.99,-36.4 444.43,-30 433.84,-29.74 435.99,-36.4"/>
</a>
</g>
</g>
<!-- Node22 -->
<g id="Node000022" class="node">
<title>Node22</title>
<g id="a_Node000022"><a xlink:href="structinja_1_1ParserError.html#aa76b83dd1badd3fcf64aff6feee7583c" target="_top" xlink:title=" ">
<polygon fill="white" stroke="#666666" points="542.5,-78 441.5,-78 441.5,-48 542.5,-48 542.5,-78"/>
<text text-anchor="start" x="449.5" y="-66" font-family="Helvetica,sans-Serif" font-size="10.00">inja::ParserError::</text>
<text text-anchor="middle" x="492" y="-55" font-family="Helvetica,sans-Serif" font-size="10.00">ParserError</text>
</a>
</g>
</g>
<!-- Node19&#45;&gt;Node22 -->
<g id="edge32_Node000019_Node000022" class="edge">
<title>Node19&#45;&gt;Node22</title>
<g id="a_edge32_Node000019_Node000022"><a xlink:title=" ">
<path fill="none" stroke="#63b8ff" d="M393.69,-63C405.78,-63 418.75,-63 431.15,-63"/>
<polygon fill="#63b8ff" stroke="#63b8ff" points="431.4,-66.5 441.4,-63 431.4,-59.5 431.4,-66.5"/>
</a>
</g>
</g>
<!-- Node21 -->
<g id="Node000021" class="node">
<title>Node21</title>
<g id="a_Node000021"><a xlink:href="namespaceinja.html#ab7c8c54f2caeb72095cd78a7ff7b6c37" target="_top" xlink:title=" ">
<polygon fill="white" stroke="#666666" points="1092,-64.5 954,-64.5 954,-45.5 1092,-45.5 1092,-64.5"/>
<text text-anchor="middle" x="1023" y="-52.5" font-family="Helvetica,sans-Serif" font-size="10.00">inja::get_source_location</text>
</a>
</g>
</g>
<!-- Node20&#45;&gt;Node21 -->
<g id="edge30_Node000020_Node000021" class="edge">
<title>Node20&#45;&gt;Node21</title>
<g id="a_edge30_Node000020_Node000021"><a xlink:title=" ">
<path fill="none" stroke="#63b8ff" d="M546.14,-19.02C639.68,-26.09 834.11,-40.79 943.27,-49.05"/>
<polygon fill="#63b8ff" stroke="#63b8ff" points="943.33,-52.56 953.57,-49.83 943.86,-45.58 943.33,-52.56"/>
</a>
</g>
</g>
<!-- Node21&#45;&gt;Node9 -->
<g id="edge31_Node000021_Node000009" class="edge">
<title>Node21&#45;&gt;Node9</title>
<g id="a_edge31_Node000021_Node000009"><a xlink:title=" ">
<path fill="none" stroke="#63b8ff" d="M1049.51,-64.58C1071.04,-72.66 1102.48,-84.46 1128.94,-94.39"/>
<polygon fill="#63b8ff" stroke="#63b8ff" points="1127.84,-97.72 1138.43,-97.96 1130.3,-91.17 1127.84,-97.72"/>
</a>
</g>
</g>
<!-- Node23 -->
<g id="Node000023" class="node">
<title>Node23</title>
<g id="a_Node000023"><a xlink:href="structinja_1_1InjaError.html#a399b7d2f7c824c24b7794694711bafb7" target="_top" xlink:title=" ">
<polygon fill="white" stroke="#666666" points="716.5,-62.5 587.5,-62.5 587.5,-43.5 716.5,-43.5 716.5,-62.5"/>
<text text-anchor="middle" x="652" y="-50.5" font-family="Helvetica,sans-Serif" font-size="10.00">inja::InjaError::InjaError</text>
</a>
</g>
</g>
<!-- Node22&#45;&gt;Node23 -->
<g id="edge33_Node000022_Node000023" class="edge">
<title>Node22&#45;&gt;Node23</title>
<g id="a_edge33_Node000022_Node000023"><a xlink:title=" ">
<path fill="none" stroke="#63b8ff" d="M542.56,-59.86C553.55,-59.17 565.42,-58.42 577.15,-57.67"/>
<polygon fill="#63b8ff" stroke="#63b8ff" points="577.63,-61.15 587.39,-57.03 577.19,-54.16 577.63,-61.15"/>
</a>
</g>
</g>
</g>
</svg>

<g id="navigator" transform="translate(0 0)" fill="#404254">
  <rect fill="#f2f5e9" fill-opacity="0.5" stroke="#606060" stroke-width=".5" x="0" y="0" width="60" height="60"/>
  <use id="zoomplus" xlink:href="#zoomPlus" x="17" y="9" onmousedown="handleZoom(evt,'in')"/>
  <use id="zoomminus" xlink:href="#zoomMin" x="42" y="9" onmousedown="handleZoom(evt,'out')"/>
  <use id="reset" xlink:href="#resetDef" x="30" y="36" onmousedown="handleReset()"/>
   <use id="arrowup" xlink:href="#arrowUp" x="0" y="0" onmousedown="handlePan(0,-1)"/>
  <use id="arrowright" xlink:href="#arrowRight" x="0" y="0" onmousedown="handlePan(1,0)"/>
  <use id="arrowdown" xlink:href="#arrowDown" x="0" y="0" onmousedown="handlePan(0,1)"/>
  <use id="arrowleft" xlink:href="#arrowLeft" x="0" y="0" onmousedown="handlePan(-1,0)"/>
</g>
<svg viewBox="0 0 15 15" width="100%" height="30px" preserveAspectRatio="xMaxYMin meet">
 <g id="arrow_out" transform="scale(0.3 0.3)">
  <a xlink:href="classinja_1_1Parser_aeb66164c89e8c71cae3c93c24d7c7be2_cgraph_org.svg" target="_base">
   <rect id="button" ry="5" rx="5" y="6" x="6" height="38" width="38"
        fill="#f2f5e9" fill-opacity="0.5" stroke="#606060" stroke-width="1.0"/>
   <path id="arrow"
     d="M 11.500037,31.436501 C 11.940474,20.09759 22.043105,11.32322 32.158766,21.979434 L 37.068811,17.246167 C 37.068811,17.246167 37.088388,32 37.088388,32 L 22.160133,31.978069 C 22.160133,31.978069 26.997745,27.140456 26.997745,27.140456 C 18.528582,18.264221 13.291696,25.230495 11.500037,31.436501 z"
     style="fill:#404040;"/>
  </a>
 </g>
</svg>

<style type='text/css'>
<![CDATA[
[data-mouse-over-selected='false'] { opacity: 0.7; }
[data-mouse-over-selected='true']  { opacity: 1.0; }
]]>
</style>
<script type="application/ecmascript"><![CDATA[
document.addEventListener('DOMContentLoaded', (event) => {
  highlightEdges();
  highlightAdjacentNodes();
});
]]></script>
</svg>
