<?xml version="1.0" encoding="UTF-8" standalone="no"?>
<!DOCTYPE svg PUBLIC "-//W3C//DTD SVG 1.1//EN"
 "http://www.w3.org/Graphics/SVG/1.1/DTD/svg11.dtd">
<!-- Generated by graphviz version 2.42.4 (0)
 -->
<!-- Title: mqtt::bridge::lib::Mqtt::Mqtt Pages: 1 -->
<!--zoomable 470 -->

<svg id="main" version="1.1" xmlns="http://www.w3.org/2000/svg" xmlns:xlink="http://www.w3.org/1999/xlink" xml:space="preserve" onload="init(evt)">
<style type="text/css"><![CDATA[
.node, .edge {opacity: 0.7;}
.node.selected, .edge.selected {opacity: 1;}
.edge:hover path { stroke: red; }
.edge:hover polygon { stroke: red; fill: red; }
]]></style>

<defs>
  <circle id="rim" cx="0" cy="0" r="7"/>
  <circle id="rim2" cx="0" cy="0" r="3.5"/>
  <g id="zoomPlus">
    <use xlink:href="#rim" fill="#404040"><set attributeName="fill" to="#808080" begin="zoomplus.mouseover" end="zoomplus.mouseout"/></use>
    <path d="M-4,0h8M0,-4v8" fill="none" stroke="white" stroke-width="1.5" pointer-events="none"/>
  </g>
  <g id="zoomMin">
    <use xlink:href="#rim" fill="#404040"><set attributeName="fill" to="#808080" begin="zoomminus.mouseover" end="zoomminus.mouseout"/></use>
    <path d="M-4,0h8" fill="none" stroke="white" stroke-width="1.5" pointer-events="none"/>
  </g>
  <g id="arrowUp" transform="translate(30 24)">
    <use xlink:href="#rim"/>
    <path pointer-events="none" fill="none" stroke="white" stroke-width="1.5" d="M0,-3.0v7 M-2.5,-0.5L0,-3.0L2.5,-0.5"/>
  </g>
  <g id="arrowRight" transform="rotate(90) translate(36 -43)">
    <use xlink:href="#rim"/>
    <path pointer-events="none" fill="none" stroke="white" stroke-width="1.5" d="M0,-3.0v7 M-2.5,-0.5L0,-3.0L2.5,-0.5"/>
  </g>
  <g id="arrowDown" transform="rotate(180) translate(-30 -48)">
    <use xlink:href="#rim"/>
    <path pointer-events="none" fill="none" stroke="white" stroke-width="1.5" d="M0,-3.0v7 M-2.5,-0.5L0,-3.0L2.5,-0.5"/>
  </g>
  <g id="arrowLeft" transform="rotate(270) translate(-36 17)">
    <use xlink:href="#rim"/>
    <path pointer-events="none" fill="none" stroke="white" stroke-width="1.5" d="M0,-3.0v7 M-2.5,-0.5L0,-3.0L2.5,-0.5"/>
  </g>
  <g id="resetDef">
    <use xlink:href="#rim2" fill="#404040"><set attributeName="fill" to="#808080" begin="reset.mouseover" end="reset.mouseout"/></use>
  </g>
</defs>
<script type="application/ecmascript">
var viewWidth = 291;
var viewHeight = 470;
var sectionId = 'dynsection-2';
</script>
<script type="application/ecmascript" xlink:href="svg.min.js"/>
<svg id="graph" class="graph">
<g id="viewport">
<title>mqtt::bridge::lib::Mqtt::Mqtt</title>
<!-- Node1 -->
<g id="Node000001" class="node">
<title>Node1</title>
<g id="a_Node000001"><a xlink:title=" ">
<polygon fill="#999999" stroke="#666666" points="101,-246 0,-246 0,-216 101,-216 101,-246"/>
<text text-anchor="start" x="8" y="-234" font-family="Helvetica,sans-Serif" font-size="10.00">mqtt::bridge::lib::</text>
<text text-anchor="middle" x="50.5" y="-223" font-family="Helvetica,sans-Serif" font-size="10.00">Mqtt::Mqtt</text>
</a>
</g>
</g>
<!-- Node1&#45;&gt;Node1 -->
<g id="edge11_Node000001_Node000001" class="edge">
<title>Node1&#45;&gt;Node1</title>
<g id="a_edge11_Node000001_Node000001"><a xlink:title=" ">
<path fill="none" stroke="#63b8ff" d="M22.73,-246.28C16.55,-255.41 25.81,-264 50.5,-264 65.16,-264 74.38,-260.97 78.16,-256.6"/>
<polygon fill="#63b8ff" stroke="#63b8ff" points="81.66,-256.31 78.27,-246.28 74.66,-256.23 81.66,-256.31"/>
</a>
</g>
</g>
<!-- Node2 -->
<g id="Node000002" class="node">
<title>Node2</title>
<g id="a_Node000002"><a xlink:href="classmqtt_1_1bridge_1_1lib_1_1Broker.html#a7ef2ec65092282a8690a4c1f6ddeba8b" target="_top" xlink:title=" ">
<polygon fill="white" stroke="#666666" points="277.5,-462 142.5,-462 142.5,-432 277.5,-432 277.5,-462"/>
<text text-anchor="start" x="150.5" y="-450" font-family="Helvetica,sans-Serif" font-size="10.00">mqtt::bridge::lib::</text>
<text text-anchor="middle" x="210" y="-439" font-family="Helvetica,sans-Serif" font-size="10.00">Broker::getCleanSession</text>
</a>
</g>
</g>
<!-- Node1&#45;&gt;Node2 -->
<g id="edge1_Node000001_Node000002" class="edge">
<title>Node1&#45;&gt;Node2</title>
<g id="a_edge1_Node000001_Node000002"><a xlink:title=" ">
<path fill="none" stroke="#63b8ff" d="M53.97,-246.15C60.63,-282.11 82.28,-373.35 137,-423 138.31,-424.19 139.68,-425.32 141.1,-426.39"/>
<polygon fill="#63b8ff" stroke="#63b8ff" points="139.41,-429.46 149.71,-431.94 143.2,-423.58 139.41,-429.46"/>
</a>
</g>
</g>
<!-- Node3 -->
<g id="Node000003" class="node">
<title>Node3</title>
<g id="a_Node000003"><a xlink:href="classmqtt_1_1bridge_1_1lib_1_1Broker.html#a6d2569d96d1c3c9775d3094a57d298e0" target="_top" xlink:title=" ">
<polygon fill="white" stroke="#666666" points="263.5,-414 156.5,-414 156.5,-384 263.5,-384 263.5,-414"/>
<text text-anchor="start" x="164.5" y="-402" font-family="Helvetica,sans-Serif" font-size="10.00">mqtt::bridge::lib::</text>
<text text-anchor="middle" x="210" y="-391" font-family="Helvetica,sans-Serif" font-size="10.00">Broker::getClientId</text>
</a>
</g>
</g>
<!-- Node1&#45;&gt;Node3 -->
<g id="edge2_Node000001_Node000003" class="edge">
<title>Node1&#45;&gt;Node3</title>
<g id="a_edge2_Node000001_Node000003"><a xlink:title=" ">
<path fill="none" stroke="#63b8ff" d="M56.39,-246.02C66.63,-275.16 93.08,-339.6 137,-375 140.14,-377.53 143.56,-379.8 147.15,-381.84"/>
<polygon fill="#63b8ff" stroke="#63b8ff" points="145.84,-385.09 156.35,-386.42 148.96,-378.83 145.84,-385.09"/>
</a>
</g>
</g>
<!-- Node4 -->
<g id="Node000004" class="node">
<title>Node4</title>
<g id="a_Node000004"><a xlink:href="classmqtt_1_1bridge_1_1lib_1_1Broker.html#a537a5d925a917be20f784ac106bc7d2e" target="_top" xlink:title=" ">
<polygon fill="white" stroke="#666666" points="269.5,-366 150.5,-366 150.5,-336 269.5,-336 269.5,-366"/>
<text text-anchor="start" x="158.5" y="-354" font-family="Helvetica,sans-Serif" font-size="10.00">mqtt::bridge::lib::</text>
<text text-anchor="middle" x="210" y="-343" font-family="Helvetica,sans-Serif" font-size="10.00">Broker::getKeepAlive</text>
</a>
</g>
</g>
<!-- Node1&#45;&gt;Node4 -->
<g id="edge3_Node000001_Node000004" class="edge">
<title>Node1&#45;&gt;Node4</title>
<g id="a_edge3_Node000001_Node000004"><a xlink:title=" ">
<path fill="none" stroke="#63b8ff" d="M61.24,-246.22C75.45,-267.27 103.82,-305.15 137,-327 139.42,-328.6 141.96,-330.1 144.58,-331.5"/>
<polygon fill="#63b8ff" stroke="#63b8ff" points="143.21,-334.73 153.73,-335.94 146.26,-328.43 143.21,-334.73"/>
</a>
</g>
</g>
<!-- Node5 -->
<g id="Node000005" class="node">
<title>Node5</title>
<g id="a_Node000005"><a xlink:href="classmqtt_1_1bridge_1_1lib_1_1Broker.html#a12c314cbad6137819c767bc6ead98d3e" target="_top" xlink:title=" ">
<polygon fill="white" stroke="#666666" points="283,-318 137,-318 137,-288 283,-288 283,-318"/>
<text text-anchor="start" x="145" y="-306" font-family="Helvetica,sans-Serif" font-size="10.00">mqtt::bridge::lib::</text>
<text text-anchor="middle" x="210" y="-295" font-family="Helvetica,sans-Serif" font-size="10.00">Broker::getLoopPrevention</text>
</a>
</g>
</g>
<!-- Node1&#45;&gt;Node5 -->
<g id="edge4_Node000001_Node000005" class="edge">
<title>Node1&#45;&gt;Node5</title>
<g id="a_edge4_Node000001_Node000005"><a xlink:title=" ">
<path fill="none" stroke="#63b8ff" d="M75.56,-246.13C92.35,-256.29 115.52,-269.49 137,-279 141.29,-280.9 145.78,-282.74 150.34,-284.49"/>
<polygon fill="#63b8ff" stroke="#63b8ff" points="149.13,-287.77 159.72,-287.96 151.56,-281.21 149.13,-287.77"/>
</a>
</g>
</g>
<!-- Node6 -->
<g id="Node000006" class="node">
<title>Node6</title>
<g id="a_Node000006"><a xlink:href="classmqtt_1_1bridge_1_1lib_1_1Broker.html#a8b0a98fcc637171cc995cee2a8bd5685" target="_top" xlink:title=" ">
<polygon fill="white" stroke="#666666" points="268,-270 152,-270 152,-240 268,-240 268,-270"/>
<text text-anchor="start" x="160" y="-258" font-family="Helvetica,sans-Serif" font-size="10.00">mqtt::bridge::lib::</text>
<text text-anchor="middle" x="210" y="-247" font-family="Helvetica,sans-Serif" font-size="10.00">Broker::getPassword</text>
</a>
</g>
</g>
<!-- Node1&#45;&gt;Node6 -->
<g id="edge5_Node000001_Node000006" class="edge">
<title>Node1&#45;&gt;Node6</title>
<g id="a_edge5_Node000001_Node000006"><a xlink:title=" ">
<path fill="none" stroke="#63b8ff" d="M101.33,-238.59C114.12,-240.54 128.08,-242.67 141.59,-244.73"/>
<polygon fill="#63b8ff" stroke="#63b8ff" points="141.39,-248.24 151.8,-246.28 142.45,-241.32 141.39,-248.24"/>
</a>
</g>
</g>
<!-- Node7 -->
<g id="Node000007" class="node">
<title>Node7</title>
<g id="a_Node000007"><a xlink:href="classmqtt_1_1bridge_1_1lib_1_1Broker.html#a750e20fe14960d3a5944ecb03bf7e269" target="_top" xlink:title=" ">
<polygon fill="white" stroke="#666666" points="270,-222 150,-222 150,-192 270,-192 270,-222"/>
<text text-anchor="start" x="158" y="-210" font-family="Helvetica,sans-Serif" font-size="10.00">mqtt::bridge::lib::</text>
<text text-anchor="middle" x="210" y="-199" font-family="Helvetica,sans-Serif" font-size="10.00">Broker::getUsername</text>
</a>
</g>
</g>
<!-- Node1&#45;&gt;Node7 -->
<g id="edge6_Node000001_Node000007" class="edge">
<title>Node1&#45;&gt;Node7</title>
<g id="a_edge6_Node000001_Node000007"><a xlink:title=" ">
<path fill="none" stroke="#63b8ff" d="M101.33,-223.41C113.49,-221.55 126.72,-219.54 139.61,-217.57"/>
<polygon fill="#63b8ff" stroke="#63b8ff" points="140.49,-220.98 149.85,-216.01 139.44,-214.06 140.49,-220.98"/>
</a>
</g>
</g>
<!-- Node8 -->
<g id="Node000008" class="node">
<title>Node8</title>
<g id="a_Node000008"><a xlink:href="classmqtt_1_1bridge_1_1lib_1_1Broker.html#a6403697d2031730753912aaaf47cb1f4" target="_top" xlink:title=" ">
<polygon fill="white" stroke="#666666" points="276,-174 144,-174 144,-144 276,-144 276,-174"/>
<text text-anchor="start" x="152" y="-162" font-family="Helvetica,sans-Serif" font-size="10.00">mqtt::bridge::lib::</text>
<text text-anchor="middle" x="210" y="-151" font-family="Helvetica,sans-Serif" font-size="10.00">Broker::getWillMessage</text>
</a>
</g>
</g>
<!-- Node1&#45;&gt;Node8 -->
<g id="edge7_Node000001_Node000008" class="edge">
<title>Node1&#45;&gt;Node8</title>
<g id="a_edge7_Node000001_Node000008"><a xlink:title=" ">
<path fill="none" stroke="#63b8ff" d="M75.56,-215.87C92.35,-205.71 115.52,-192.51 137,-183 141.29,-181.1 145.78,-179.26 150.34,-177.51"/>
<polygon fill="#63b8ff" stroke="#63b8ff" points="151.56,-180.79 159.72,-174.04 149.13,-174.23 151.56,-180.79"/>
</a>
</g>
</g>
<!-- Node9 -->
<g id="Node000009" class="node">
<title>Node9</title>
<g id="a_Node000009"><a xlink:href="classmqtt_1_1bridge_1_1lib_1_1Broker.html#ae421318ee7d0d6287cdb43d605277a5b" target="_top" xlink:title=" ">
<polygon fill="white" stroke="#666666" points="264,-126 156,-126 156,-96 264,-96 264,-126"/>
<text text-anchor="start" x="164" y="-114" font-family="Helvetica,sans-Serif" font-size="10.00">mqtt::bridge::lib::</text>
<text text-anchor="middle" x="210" y="-103" font-family="Helvetica,sans-Serif" font-size="10.00">Broker::getWillQoS</text>
</a>
</g>
</g>
<!-- Node1&#45;&gt;Node9 -->
<g id="edge8_Node000001_Node000009" class="edge">
<title>Node1&#45;&gt;Node9</title>
<g id="a_edge8_Node000001_Node000009"><a xlink:title=" ">
<path fill="none" stroke="#63b8ff" d="M61.24,-215.78C75.45,-194.73 103.82,-156.85 137,-135 140.1,-132.96 143.39,-131.08 146.78,-129.34"/>
<polygon fill="#63b8ff" stroke="#63b8ff" points="148.37,-132.47 155.98,-125.09 145.44,-126.11 148.37,-132.47"/>
</a>
</g>
</g>
<!-- Node10 -->
<g id="Node000010" class="node">
<title>Node10</title>
<g id="a_Node000010"><a xlink:href="classmqtt_1_1bridge_1_1lib_1_1Broker.html#a41d9b2f5e10294198b45d1e217574f60" target="_top" xlink:title=" ">
<polygon fill="white" stroke="#666666" points="270,-78 150,-78 150,-48 270,-48 270,-78"/>
<text text-anchor="start" x="158" y="-66" font-family="Helvetica,sans-Serif" font-size="10.00">mqtt::bridge::lib::</text>
<text text-anchor="middle" x="210" y="-55" font-family="Helvetica,sans-Serif" font-size="10.00">Broker::getWillRetain</text>
</a>
</g>
</g>
<!-- Node1&#45;&gt;Node10 -->
<g id="edge9_Node000001_Node000010" class="edge">
<title>Node1&#45;&gt;Node10</title>
<g id="a_edge9_Node000001_Node000010"><a xlink:title=" ">
<path fill="none" stroke="#63b8ff" d="M56.39,-215.98C66.63,-186.84 93.08,-122.4 137,-87 138.58,-85.73 140.22,-84.52 141.93,-83.38"/>
<polygon fill="#63b8ff" stroke="#63b8ff" points="143.98,-86.24 150.85,-78.18 140.45,-80.19 143.98,-86.24"/>
</a>
</g>
</g>
<!-- Node11 -->
<g id="Node000011" class="node">
<title>Node11</title>
<g id="a_Node000011"><a xlink:href="classmqtt_1_1bridge_1_1lib_1_1Broker.html#a345589d52b437b118f272a50df7b4b7d" target="_top" xlink:title=" ">
<polygon fill="white" stroke="#666666" points="266.5,-30 153.5,-30 153.5,0 266.5,0 266.5,-30"/>
<text text-anchor="start" x="161.5" y="-18" font-family="Helvetica,sans-Serif" font-size="10.00">mqtt::bridge::lib::</text>
<text text-anchor="middle" x="210" y="-7" font-family="Helvetica,sans-Serif" font-size="10.00">Broker::getWillTopic</text>
</a>
</g>
</g>
<!-- Node1&#45;&gt;Node11 -->
<g id="edge10_Node000001_Node000011" class="edge">
<title>Node1&#45;&gt;Node11</title>
<g id="a_edge10_Node000001_Node000011"><a xlink:title=" ">
<path fill="none" stroke="#63b8ff" d="M53.97,-215.85C60.63,-179.89 82.28,-88.65 137,-39 139.32,-36.9 141.82,-34.98 144.46,-33.23"/>
<polygon fill="#63b8ff" stroke="#63b8ff" points="146.34,-36.19 153.28,-28.19 142.86,-30.11 146.34,-36.19"/>
</a>
</g>
</g>
</g>
</svg>

<g id="navigator" transform="translate(0 0)" fill="#404254">
  <rect fill="#f2f5e9" fill-opacity="0.5" stroke="#606060" stroke-width=".5" x="0" y="0" width="60" height="60"/>
  <use id="zoomplus" xlink:href="#zoomPlus" x="17" y="9" onmousedown="handleZoom(evt,'in')"/>
  <use id="zoomminus" xlink:href="#zoomMin" x="42" y="9" onmousedown="handleZoom(evt,'out')"/>
  <use id="reset" xlink:href="#resetDef" x="30" y="36" onmousedown="handleReset()"/>
   <use id="arrowup" xlink:href="#arrowUp" x="0" y="0" onmousedown="handlePan(0,-1)"/>
  <use id="arrowright" xlink:href="#arrowRight" x="0" y="0" onmousedown="handlePan(1,0)"/>
  <use id="arrowdown" xlink:href="#arrowDown" x="0" y="0" onmousedown="handlePan(0,1)"/>
  <use id="arrowleft" xlink:href="#arrowLeft" x="0" y="0" onmousedown="handlePan(-1,0)"/>
</g>
<svg viewBox="0 0 15 15" width="100%" height="30px" preserveAspectRatio="xMaxYMin meet">
 <g id="arrow_out" transform="scale(0.3 0.3)">
  <a xlink:href="classmqtt_1_1bridge_1_1lib_1_1Mqtt_a6e485f1bb766fbeffdd53a23fc3ced4f_cgraph_org.svg" target="_base">
   <rect id="button" ry="5" rx="5" y="6" x="6" height="38" width="38"
        fill="#f2f5e9" fill-opacity="0.5" stroke="#606060" stroke-width="1.0"/>
   <path id="arrow"
     d="M 11.500037,31.436501 C 11.940474,20.09759 22.043105,11.32322 32.158766,21.979434 L 37.068811,17.246167 C 37.068811,17.246167 37.088388,32 37.088388,32 L 22.160133,31.978069 C 22.160133,31.978069 26.997745,27.140456 26.997745,27.140456 C 18.528582,18.264221 13.291696,25.230495 11.500037,31.436501 z"
     style="fill:#404040;"/>
  </a>
 </g>
</svg>

<style type='text/css'>
<![CDATA[
[data-mouse-over-selected='false'] { opacity: 0.7; }
[data-mouse-over-selected='true']  { opacity: 1.0; }
]]>
</style>
<script type="application/ecmascript"><![CDATA[
document.addEventListener('DOMContentLoaded', (event) => {
  highlightEdges();
  highlightAdjacentNodes();
});
]]></script>
</svg>
