<?xml version="1.0" encoding="UTF-8" standalone="no"?>
<!DOCTYPE svg PUBLIC "-//W3C//DTD SVG 1.1//EN"
 "http://www.w3.org/Graphics/SVG/1.1/DTD/svg11.dtd">
<!-- Generated by graphviz version 14.1.1 (0)
 -->
<!-- Title: mqtt::mqttbroker::lib::MqttModel::onlineDuration Pages: 1 -->
<svg width="476pt" height="42pt"
 viewBox="0.00 0.00 476.00 42.00" xmlns="http://www.w3.org/2000/svg" xmlns:xlink="http://www.w3.org/1999/xlink">
<g id="graph0" class="graph" transform="scale(1 1) rotate(0) translate(4 37.5)">
<title>mqtt::mqttbroker::lib::MqttModel::onlineDuration</title>
<!-- Node1 -->
<g id="Node000001" class="node">
<title>Node1</title>
<g id="a_Node000001"><a xlink:title=" ">
<polygon fill="#999999" stroke="#666666" points="467.5,-33.5 315,-33.5 315,0 467.5,0 467.5,-33.5"/>
<text xml:space="preserve" text-anchor="start" x="323" y="-20" font-family="Helvetica,sans-Serif" font-size="10.00">mqtt::mqttbroker::lib</text>
<text xml:space="preserve" text-anchor="middle" x="391.25" y="-7.25" font-family="Helvetica,sans-Serif" font-size="10.00">::MqttModel::onlineDuration</text>
</a>
</g>
</g>
<!-- Node2 -->
<g id="Node000002" class="node">
<title>Node2</title>
<g id="a_Node000002"><a xlink:href="mqttbroker_8cpp.html#ad9d315824898337732fd1b67f05846c9" target="_top" xlink:title=" ">
<polygon fill="white" stroke="#666666" points="279,-27.12 176.75,-27.12 176.75,-6.38 279,-6.38 279,-27.12"/>
<text xml:space="preserve" text-anchor="middle" x="227.88" y="-13.62" font-family="Helvetica,sans-Serif" font-size="10.00">getOverviewPage</text>
</a>
</g>
</g>
<!-- Node1&#45;&gt;Node2 -->
<g id="edge1_Node000001_Node000002" class="edge">
<title>Node1&#45;&gt;Node2</title>
<g id="a_edge1_Node000001_Node000002"><a xlink:title=" ">
<path fill="none" stroke="#63b8ff" d="M303.52,-16.75C295.29,-16.75 287.15,-16.75 279.43,-16.75"/>
<polygon fill="#63b8ff" stroke="#63b8ff" points="303.25,-20.25 313.25,-16.75 303.25,-13.25 303.25,-20.25"/>
</a>
</g>
</g>
<!-- Node3 -->
<g id="Node000003" class="node">
<title>Node3</title>
<g id="a_Node000003"><a xlink:href="mqttbroker_8cpp.html#a6a886a53c0261b1fa115609c34e8e607" target="_top" xlink:title=" ">
<polygon fill="white" stroke="#666666" points="140.75,-27.12 76.75,-27.12 76.75,-6.38 140.75,-6.38 140.75,-27.12"/>
<text xml:space="preserve" text-anchor="middle" x="108.75" y="-13.62" font-family="Helvetica,sans-Serif" font-size="10.00">getRouter</text>
</a>
</g>
</g>
<!-- Node2&#45;&gt;Node3 -->
<g id="edge2_Node000002_Node000003" class="edge">
<title>Node2&#45;&gt;Node3</title>
<g id="a_edge2_Node000002_Node000003"><a xlink:title=" ">
<path fill="none" stroke="#63b8ff" d="M165.17,-16.75C156.84,-16.75 148.59,-16.75 141.11,-16.75"/>
<polygon fill="#63b8ff" stroke="#63b8ff" points="165.01,-20.25 175.01,-16.75 165.01,-13.25 165.01,-20.25"/>
</a>
</g>
</g>
<!-- Node4 -->
<g id="Node000004" class="node">
<title>Node4</title>
<g id="a_Node000004"><a xlink:href="mqttbroker_8cpp.html#a0ddf1224851353fc92bfbff6f499fa97" target="_top" xlink:title=" ">
<polygon fill="white" stroke="#666666" points="40.75,-27.12 0,-27.12 0,-6.38 40.75,-6.38 40.75,-27.12"/>
<text xml:space="preserve" text-anchor="middle" x="20.38" y="-13.62" font-family="Helvetica,sans-Serif" font-size="10.00">main</text>
</a>
</g>
</g>
<!-- Node3&#45;&gt;Node4 -->
<g id="edge3_Node000003_Node000004" class="edge">
<title>Node3&#45;&gt;Node4</title>
<g id="a_edge3_Node000003_Node000004"><a xlink:title=" ">
<path fill="none" stroke="#63b8ff" d="M65.25,-16.75C56.85,-16.75 48.42,-16.75 41.22,-16.75"/>
<polygon fill="#63b8ff" stroke="#63b8ff" points="65.05,-20.25 75.05,-16.75 65.05,-13.25 65.05,-20.25"/>
</a>
</g>
</g>
</g>
</svg>
