<?xml version="1.0" encoding="UTF-8" standalone="no"?>
<!DOCTYPE svg PUBLIC "-//W3C//DTD SVG 1.1//EN"
 "http://www.w3.org/Graphics/SVG/1.1/DTD/svg11.dtd">
<!-- Generated by graphviz version 14.1.2 (0)
 -->
<!-- Title: inja::ForArrayStatementNode Pages: 1 -->
<!--zoomable 463 -->

<svg id="main" version="1.1" xmlns="http://www.w3.org/2000/svg" xmlns:xlink="http://www.w3.org/1999/xlink" xml:space="preserve" onload="init(evt)">

<style type="text/css"><![CDATA[
.node, .edge {opacity: 0.7;}
.node.selected, .edge.selected {opacity: 1;}
.edge:hover path { stroke: red; }
.edge:hover polygon { stroke: red; fill: red; }
]]></style>

<defs>
  <circle id="rim" cx="0" cy="0" r="7"/>
  <circle id="rim2" cx="0" cy="0" r="3.5"/>
  <g id="zoomPlus">
    <use xlink:href="#rim" fill="#404040"><set attributeName="fill" to="#808080" begin="zoomplus.mouseover" end="zoomplus.mouseout"/></use>
    <path d="M-4,0h8M0,-4v8" fill="none" stroke="white" stroke-width="1.5" pointer-events="none"/>
  </g>
  <g id="zoomMin">
    <use xlink:href="#rim" fill="#404040"><set attributeName="fill" to="#808080" begin="zoomminus.mouseover" end="zoomminus.mouseout"/></use>
    <path d="M-4,0h8" fill="none" stroke="white" stroke-width="1.5" pointer-events="none"/>
  </g>
  <g id="arrowUp" transform="translate(30 24)">
    <use xlink:href="#rim"/>
    <path pointer-events="none" fill="none" stroke="white" stroke-width="1.5" d="M0,-3.0v7 M-2.5,-0.5L0,-3.0L2.5,-0.5"/>
  </g>
  <g id="arrowRight" transform="rotate(90) translate(36 -43)">
    <use xlink:href="#rim"/>
    <path pointer-events="none" fill="none" stroke="white" stroke-width="1.5" d="M0,-3.0v7 M-2.5,-0.5L0,-3.0L2.5,-0.5"/>
  </g>
  <g id="arrowDown" transform="rotate(180) translate(-30 -48)">
    <use xlink:href="#rim"/>
    <path pointer-events="none" fill="none" stroke="white" stroke-width="1.5" d="M0,-3.0v7 M-2.5,-0.5L0,-3.0L2.5,-0.5"/>
  </g>
  <g id="arrowLeft" transform="rotate(270) translate(-36 17)">
    <use xlink:href="#rim"/>
    <path pointer-events="none" fill="none" stroke="white" stroke-width="1.5" d="M0,-3.0v7 M-2.5,-0.5L0,-3.0L2.5,-0.5"/>
  </g>
  <g id="resetDef">
    <use xlink:href="#rim2" fill="#404040"><set attributeName="fill" to="#808080" begin="reset.mouseover" end="reset.mouseout"/></use>
  </g>
</defs>
<script type="application/ecmascript">
var viewWidth = 453;
var viewHeight = 463;
var sectionId = 'dynsection-1';
</script>
<script type="application/ecmascript" xlink:href="svg.min.js"/>
<svg id="graph" class="graph">
<g id="viewport">
<title>inja::ForArrayStatementNode</title>
<!-- Node1 -->
<g id="Node000001" class="node">
<title>Node1</title>
<g id="a_Node000001"><a xlink:title=" ">
<polygon fill="#999999" stroke="none" points="354.12,-20.75 204.38,-20.75 204.38,0 354.12,0 354.12,-20.75"/>
<text xml:space="preserve" text-anchor="start" x="208.38" y="-7.25" font-family="Helvetica,sans-Serif" font-size="10.00">inja::ForArrayStatementNode</text>
<polygon fill="none" stroke="#666666" points="204.38,0 204.38,-20.75 354.12,-20.75 354.12,0 204.38,0"/>
</a>
</g>
</g>
<!-- Node2 -->
<g id="Node000002" class="node">
<title>Node2</title>
<g id="a_Node000002"><a xlink:href="classinja_1_1ForStatementNode.html" target="_top" xlink:title=" ">
<polygon fill="white" stroke="none" points="288,-96.25 164.5,-96.25 164.5,-75.5 288,-75.5 288,-96.25"/>
<text xml:space="preserve" text-anchor="start" x="168.5" y="-82.75" font-family="Helvetica,sans-Serif" font-size="10.00">inja::ForStatementNode</text>
<polygon fill="none" stroke="#666666" points="164.5,-75.5 164.5,-96.25 288,-96.25 288,-75.5 164.5,-75.5"/>
</a>
</g>
</g>
<!-- Node2&#45;&gt;Node1 -->
<g id="edge1_Node000001_Node000002" class="edge">
<title>Node2&#45;&gt;Node1</title>
<g id="a_edge1_Node000001_Node000002"><a xlink:title=" ">
<path fill="none" stroke="#63b8ff" d="M239.57,-66.4C250.17,-51.7 264.54,-31.78 272.76,-20.38"/>
<polygon fill="none" stroke="#63b8ff" points="236.86,-64.18 233.85,-74.34 242.54,-68.27 236.86,-64.18"/>
</a>
</g>
</g>
<!-- Node3 -->
<g id="Node000003" class="node">
<title>Node3</title>
<g id="a_Node000003"><a xlink:href="classinja_1_1StatementNode.html" target="_top" xlink:title=" ">
<polygon fill="white" stroke="none" points="108.5,-328.25 0,-328.25 0,-307.5 108.5,-307.5 108.5,-328.25"/>
<text xml:space="preserve" text-anchor="start" x="4" y="-314.75" font-family="Helvetica,sans-Serif" font-size="10.00">inja::StatementNode</text>
<polygon fill="none" stroke="#666666" points="0,-307.5 0,-328.25 108.5,-328.25 108.5,-307.5 0,-307.5"/>
</a>
</g>
</g>
<!-- Node3&#45;&gt;Node2 -->
<g id="edge2_Node000002_Node000003" class="edge">
<title>Node3&#45;&gt;Node2</title>
<g id="a_edge2_Node000002_Node000003"><a xlink:title=" ">
<path fill="none" stroke="#63b8ff" d="M55.08,-296.31C57.24,-265.76 64.91,-207.68 92.25,-167.75 117.58,-130.75 165.92,-107.85 197.09,-96.24"/>
<polygon fill="none" stroke="#63b8ff" points="51.6,-295.9 54.54,-306.08 58.59,-296.29 51.6,-295.9"/>
</a>
</g>
</g>
<!-- Node4 -->
<g id="Node000004" class="node">
<title>Node4</title>
<g id="a_Node000004"><a xlink:href="classinja_1_1AstNode.html" target="_top" xlink:title="Base node class for the abstract syntax tree (AST).">
<polygon fill="white" stroke="none" points="242.88,-455.25 169.62,-455.25 169.62,-434.5 242.88,-434.5 242.88,-455.25"/>
<text xml:space="preserve" text-anchor="start" x="173.62" y="-441.75" font-family="Helvetica,sans-Serif" font-size="10.00">inja::AstNode</text>
<polygon fill="none" stroke="#666666" points="169.62,-434.5 169.62,-455.25 242.88,-455.25 242.88,-434.5 169.62,-434.5"/>
</a>
</g>
</g>
<!-- Node4&#45;&gt;Node3 -->
<g id="edge3_Node000003_Node000004" class="edge">
<title>Node4&#45;&gt;Node3</title>
<g id="a_edge3_Node000003_Node000004"><a xlink:title=" ">
<path fill="none" stroke="#63b8ff" d="M159.08,-438.21C142.02,-434.29 123.47,-427.68 109.25,-416.5 78.97,-392.69 62.63,-347.31 56.78,-327.97"/>
<polygon fill="none" stroke="#63b8ff" points="158.04,-441.57 168.54,-440.11 159.42,-434.71 158.04,-441.57"/>
</a>
</g>
</g>
<!-- Node5 -->
<g id="Node000005" class="node">
<title>Node5</title>
<g id="a_Node000005"><a xlink:href="classinja_1_1ExpressionListNode.html" target="_top" xlink:title=" ">
<polygon fill="white" stroke="none" points="229.25,-194.88 101.25,-194.88 101.25,-174.12 229.25,-174.12 229.25,-194.88"/>
<text xml:space="preserve" text-anchor="start" x="105.25" y="-181.38" font-family="Helvetica,sans-Serif" font-size="10.00">inja::ExpressionListNode</text>
<polygon fill="none" stroke="#666666" points="101.25,-174.12 101.25,-194.88 229.25,-194.88 229.25,-174.12 101.25,-174.12"/>
</a>
</g>
</g>
<!-- Node4&#45;&gt;Node5 -->
<g id="edge5_Node000005_Node000004" class="edge">
<title>Node4&#45;&gt;Node5</title>
<g id="a_edge5_Node000005_Node000004"><a xlink:title=" ">
<path fill="none" stroke="#63b8ff" d="M182.69,-427.89C168.02,-416.42 150.44,-399.54 142.25,-379.75 114.73,-313.22 148.56,-223.67 161.01,-194.85"/>
<polygon fill="none" stroke="#63b8ff" points="180.45,-430.58 190.57,-433.72 184.61,-424.95 180.45,-430.58"/>
</a>
</g>
</g>
<!-- Node7 -->
<g id="Node000007" class="node">
<title>Node7</title>
<g id="a_Node000007"><a xlink:href="classinja_1_1ExpressionNode.html" target="_top" xlink:title=" ">
<polygon fill="white" stroke="none" points="261.62,-373.38 150.88,-373.38 150.88,-352.62 261.62,-352.62 261.62,-373.38"/>
<text xml:space="preserve" text-anchor="start" x="154.88" y="-359.88" font-family="Helvetica,sans-Serif" font-size="10.00">inja::ExpressionNode</text>
<polygon fill="none" stroke="#666666" points="150.88,-352.62 150.88,-373.38 261.62,-373.38 261.62,-352.62 150.88,-352.62"/>
</a>
</g>
</g>
<!-- Node4&#45;&gt;Node7 -->
<g id="edge8_Node000007_Node000004" class="edge">
<title>Node4&#45;&gt;Node7</title>
<g id="a_edge8_Node000007_Node000004"><a xlink:title=" ">
<path fill="none" stroke="#63b8ff" d="M206.25,-423.66C206.25,-407.39 206.25,-385.28 206.25,-373.06"/>
<polygon fill="none" stroke="#63b8ff" points="202.75,-423.2 206.25,-433.2 209.75,-423.2 202.75,-423.2"/>
</a>
</g>
</g>
<!-- Node8 -->
<g id="Node000008" class="node">
<title>Node8</title>
<g id="a_Node000008"><a xlink:href="classinja_1_1BlockNode.html" target="_top" xlink:title=" ">
<polygon fill="white" stroke="none" points="331.5,-194.88 247,-194.88 247,-174.12 331.5,-174.12 331.5,-194.88"/>
<text xml:space="preserve" text-anchor="start" x="251" y="-181.38" font-family="Helvetica,sans-Serif" font-size="10.00">inja::BlockNode</text>
<polygon fill="none" stroke="#666666" points="247,-174.12 247,-194.88 331.5,-194.88 331.5,-174.12 247,-174.12"/>
</a>
</g>
</g>
<!-- Node4&#45;&gt;Node8 -->
<g id="edge10_Node000008_Node000004" class="edge">
<title>Node4&#45;&gt;Node8</title>
<g id="a_edge10_Node000008_Node000004"><a xlink:title=" ">
<path fill="none" stroke="#63b8ff" d="M228.92,-427.82C243.37,-416.23 261.05,-399.24 270.25,-379.75 301.05,-314.48 293.75,-223.35 290.43,-194.58"/>
<polygon fill="none" stroke="#63b8ff" points="227.04,-424.85 221.22,-433.71 231.29,-430.42 227.04,-424.85"/>
</a>
</g>
</g>
<!-- Node10 -->
<g id="Node000010" class="node">
<title>Node10</title>
<g id="a_Node000010"><a xlink:title=" ">
<polygon fill="white" stroke="none" points="431.25,-379.75 321.25,-379.75 321.25,-346.25 431.25,-346.25 431.25,-379.75"/>
<text xml:space="preserve" text-anchor="start" x="325.25" y="-366.25" font-family="Helvetica,sans-Serif" font-size="10.00">std::shared_ptr&lt; inja</text>
<text xml:space="preserve" text-anchor="start" x="347" y="-353.5" font-family="Helvetica,sans-Serif" font-size="10.00">::AstNode &gt;</text>
<polygon fill="none" stroke="#666666" points="321.25,-346.25 321.25,-379.75 431.25,-379.75 431.25,-346.25 321.25,-346.25"/>
</a>
</g>
</g>
<!-- Node4&#45;&gt;Node10 -->
<g id="edge13_Node000010_Node000004" class="edge">
<title>Node4&#45;&gt;Node10</title>
<g id="a_edge13_Node000010_Node000004"><a xlink:title=" ">
<path fill="none" stroke="#63b8ff" d="M242.81,-436.74C261.47,-432.31 284.18,-425.7 303.25,-416.5 319.07,-408.87 335.08,-397.81 348.06,-387.8"/>
<polygon fill="none" stroke="#63b8ff" points="348.09,-387.78 350.29,-380.92 357.48,-380.31 355.28,-387.18 348.09,-387.78"/>
</a>
</g>
<text xml:space="preserve" text-anchor="start" x="335.89" y="-404" font-family="Helvetica,sans-Serif" font-size="10.00" fill="grey">+ptr</text>
</g>
<!-- Node5&#45;&gt;Node2 -->
<g id="edge4_Node000002_Node000005" class="edge">
<title>Node5&#45;&gt;Node2</title>
<g id="a_edge4_Node000002_Node000005"><a xlink:title=" ">
<path fill="none" stroke="#63b8ff" d="M166.19,-174.58C168.05,-160.54 173.28,-132.94 187,-114.25 189.87,-110.34 193.48,-106.78 197.33,-103.63"/>
<polygon fill="none" stroke="#63b8ff" points="197.25,-103.69 199.84,-96.96 207.05,-96.76 204.46,-103.49 197.25,-103.69"/>
</a>
</g>
<text xml:space="preserve" text-anchor="start" x="190" y="-128.88" font-family="Helvetica,sans-Serif" font-size="10.00" fill="grey">+condition</text>
</g>
<!-- Node6 -->
<g id="Node000006" class="node">
<title>Node6</title>
<g id="a_Node000006"><a xlink:title=" ">
<polygon fill="white" stroke="none" points="261.25,-289.5 151.25,-289.5 151.25,-256 261.25,-256 261.25,-289.5"/>
<text xml:space="preserve" text-anchor="start" x="155.25" y="-276" font-family="Helvetica,sans-Serif" font-size="10.00">std::shared_ptr&lt; inja</text>
<text xml:space="preserve" text-anchor="start" x="158.25" y="-263.25" font-family="Helvetica,sans-Serif" font-size="10.00">::ExpressionNode &gt;</text>
<polygon fill="none" stroke="#666666" points="151.25,-256 151.25,-289.5 261.25,-289.5 261.25,-256 151.25,-256"/>
</a>
</g>
</g>
<!-- Node6&#45;&gt;Node5 -->
<g id="edge6_Node000005_Node000006" class="edge">
<title>Node6&#45;&gt;Node5</title>
<g id="a_edge6_Node000005_Node000006"><a xlink:title=" ">
<path fill="none" stroke="#63b8ff" d="M198.92,-256.33C192.23,-242.25 182.28,-221.33 174.94,-205.88"/>
<polygon fill="none" stroke="#63b8ff" points="175.04,-206.1 168.85,-202.4 169.89,-195.26 176.08,-198.96 175.04,-206.1"/>
</a>
</g>
<text xml:space="preserve" text-anchor="start" x="192.42" y="-225.5" font-family="Helvetica,sans-Serif" font-size="10.00" fill="grey">+root</text>
</g>
<!-- Node7&#45;&gt;Node6 -->
<g id="edge7_Node000006_Node000007" class="edge">
<title>Node7&#45;&gt;Node6</title>
<g id="a_edge7_Node000006_Node000007"><a xlink:title=" ">
<path fill="none" stroke="#63b8ff" d="M206.25,-352.89C206.25,-341.07 206.25,-319.91 206.25,-302.44"/>
<polygon fill="none" stroke="#63b8ff" points="206.25,-302.37 202.25,-296.37 206.25,-290.37 210.25,-296.37 206.25,-302.37"/>
</a>
</g>
<text xml:space="preserve" text-anchor="start" x="209.25" y="-314.75" font-family="Helvetica,sans-Serif" font-size="10.00" fill="grey">+ptr</text>
</g>
<!-- Node8&#45;&gt;Node2 -->
<g id="edge9_Node000002_Node000008" class="edge">
<title>Node8&#45;&gt;Node2</title>
<g id="a_edge9_Node000002_Node000008"><a xlink:title=" ">
<path fill="none" stroke="#63b8ff" d="M283.9,-174.4C275.97,-161.03 260.49,-135.37 246.25,-114.25 244.57,-111.75 242.75,-109.16 240.94,-106.61"/>
<polygon fill="none" stroke="#63b8ff" points="240.89,-106.54 234.12,-104.06 233.81,-96.85 240.58,-99.34 240.89,-106.54"/>
</a>
</g>
<text xml:space="preserve" text-anchor="start" x="270.92" y="-137.25" font-family="Helvetica,sans-Serif" font-size="10.00" fill="grey">+body</text>
<text xml:space="preserve" text-anchor="start" x="270.92" y="-120.5" font-family="Helvetica,sans-Serif" font-size="10.00" fill="grey">+parent</text>
</g>
<!-- Node9 -->
<g id="Node000009" class="node">
<title>Node9</title>
<g id="a_Node000009"><a xlink:title=" ">
<polygon fill="white" stroke="none" points="443.12,-289.5 317.38,-289.5 317.38,-256 443.12,-256 443.12,-289.5"/>
<text xml:space="preserve" text-anchor="start" x="321.38" y="-276" font-family="Helvetica,sans-Serif" font-size="10.00">std::vector&lt; std::shared</text>
<text xml:space="preserve" text-anchor="start" x="321.38" y="-263.25" font-family="Helvetica,sans-Serif" font-size="10.00">_ptr&lt; inja::AstNode &gt; &gt;</text>
<polygon fill="none" stroke="#666666" points="317.38,-256 317.38,-289.5 443.12,-289.5 443.12,-256 317.38,-256"/>
</a>
</g>
</g>
<!-- Node9&#45;&gt;Node8 -->
<g id="edge11_Node000008_Node000009" class="edge">
<title>Node9&#45;&gt;Node8</title>
<g id="a_edge11_Node000008_Node000009"><a xlink:title=" ">
<path fill="none" stroke="#63b8ff" d="M363.98,-256.33C348.23,-241.4 324.38,-218.8 307.88,-203.16"/>
<polygon fill="none" stroke="#63b8ff" points="308.05,-203.32 300.95,-202.1 299.35,-195.07 306.45,-196.29 308.05,-203.32"/>
</a>
</g>
<text xml:space="preserve" text-anchor="start" x="345.9" y="-225.5" font-family="Helvetica,sans-Serif" font-size="10.00" fill="grey">+nodes</text>
</g>
<!-- Node10&#45;&gt;Node9 -->
<g id="edge12_Node000009_Node000010" class="edge">
<title>Node10&#45;&gt;Node9</title>
<g id="a_edge12_Node000009_Node000010"><a xlink:title=" ">
<path fill="none" stroke="#63b8ff" d="M376.95,-346.63C377.51,-334.3 378.3,-316.67 378.98,-301.84"/>
<polygon fill="none" stroke="#63b8ff" points="378.96,-302.13 375.24,-295.96 379.51,-290.14 383.23,-296.32 378.96,-302.13"/>
</a>
</g>
<text xml:space="preserve" text-anchor="start" x="381.61" y="-314.75" font-family="Helvetica,sans-Serif" font-size="10.00" fill="grey">+elements</text>
</g>
<!-- Node11 -->
<g id="Node000011" class="node">
<title>Node11</title>
<g id="a_Node000011"><a xlink:title=" ">
<polygon fill="white" stroke="none" points="398.62,-96.25 341.88,-96.25 341.88,-75.5 398.62,-75.5 398.62,-96.25"/>
<text xml:space="preserve" text-anchor="start" x="345.88" y="-82.75" font-family="Helvetica,sans-Serif" font-size="10.00">std::string</text>
<polygon fill="none" stroke="#666666" points="341.88,-75.5 341.88,-96.25 398.62,-96.25 398.62,-75.5 341.88,-75.5"/>
</a>
</g>
</g>
<!-- Node11&#45;&gt;Node1 -->
<g id="edge14_Node000001_Node000011" class="edge">
<title>Node11&#45;&gt;Node1</title>
<g id="a_edge14_Node000001_Node000011"><a xlink:title=" ">
<path fill="none" stroke="#63b8ff" d="M358.72,-75.57C344.16,-63.8 318.81,-43.32 300.65,-28.66"/>
<polygon fill="none" stroke="#63b8ff" points="300.72,-28.71 293.54,-28.06 291.38,-21.17 298.56,-21.83 300.72,-28.71"/>
</a>
</g>
<text xml:space="preserve" text-anchor="start" x="338.58" y="-45" font-family="Helvetica,sans-Serif" font-size="10.00" fill="grey">+value</text>
</g>
<!-- Node12 -->
<g id="Node000012" class="node">
<title>Node12</title>
<g id="a_Node000012"><a xlink:title=" ">
<polygon fill="white" stroke="none" points="445.12,-201.25 349.38,-201.25 349.38,-167.75 445.12,-167.75 445.12,-201.25"/>
<text xml:space="preserve" text-anchor="start" x="353.38" y="-187.75" font-family="Helvetica,sans-Serif" font-size="10.00">std::basic_string&lt;</text>
<text xml:space="preserve" text-anchor="start" x="378.88" y="-175" font-family="Helvetica,sans-Serif" font-size="10.00"> Char &gt;</text>
<polygon fill="none" stroke="#666666" points="349.38,-167.75 349.38,-201.25 445.12,-201.25 445.12,-167.75 349.38,-167.75"/>
</a>
</g>
</g>
<!-- Node12&#45;&gt;Node11 -->
<g id="edge15_Node000011_Node000012" class="edge">
<title>Node12&#45;&gt;Node11</title>
<g id="a_edge15_Node000011_Node000012"><a xlink:title=" ">
<path fill="none" stroke="#63b8ff" d="M389.84,-156.97C384.19,-136.76 376.75,-110.12 372.86,-96.22"/>
<polygon fill="none" stroke="#63b8ff" points="386.44,-157.83 392.5,-166.52 393.18,-155.94 386.44,-157.83"/>
</a>
</g>
</g>
</g>
</svg>

<g id="navigator" transform="translate(0 0)" fill="#404254">
  <rect fill="#f2f5e9" fill-opacity="0.5" stroke="#606060" stroke-width=".5" x="0" y="0" width="60" height="60"/>
  <use id="zoomplus" xlink:href="#zoomPlus" x="17" y="9" onmousedown="handleZoom(evt,'in')"/>
  <use id="zoomminus" xlink:href="#zoomMin" x="42" y="9" onmousedown="handleZoom(evt,'out')"/>
  <use id="reset" xlink:href="#resetDef" x="30" y="36" onmousedown="handleReset()"/>
   <use id="arrowup" xlink:href="#arrowUp" x="0" y="0" onmousedown="handlePan(0,-1)"/>
  <use id="arrowright" xlink:href="#arrowRight" x="0" y="0" onmousedown="handlePan(1,0)"/>
  <use id="arrowdown" xlink:href="#arrowDown" x="0" y="0" onmousedown="handlePan(0,1)"/>
  <use id="arrowleft" xlink:href="#arrowLeft" x="0" y="0" onmousedown="handlePan(-1,0)"/>
</g>
<svg viewBox="0 0 15 15" width="100%" height="30px" preserveAspectRatio="xMaxYMin meet">
 <g id="arrow_out" transform="scale(0.3 0.3)">
  <a xlink:href="classinja_1_1ForArrayStatementNode__coll__graph_org.svg" target="_base">
   <rect id="button" ry="5" rx="5" y="6" x="6" height="38" width="38"
        fill="#f2f5e9" fill-opacity="0.5" stroke="#606060" stroke-width="1.0"/>
   <path id="arrow"
     d="M 11.500037,31.436501 C 11.940474,20.09759 22.043105,11.32322 32.158766,21.979434 L 37.068811,17.246167 C 37.068811,17.246167 37.088388,32 37.088388,32 L 22.160133,31.978069 C 22.160133,31.978069 26.997745,27.140456 26.997745,27.140456 C 18.528582,18.264221 13.291696,25.230495 11.500037,31.436501 z"
     style="fill:#404040;"/>
  </a>
 </g>
</svg>

<style type='text/css'>
<![CDATA[
[data-mouse-over-selected='false'] { opacity: 0.7; }
[data-mouse-over-selected='true']  { opacity: 1.0; }
]]>
</style>
<script type="application/ecmascript"><![CDATA[
document.addEventListener('DOMContentLoaded', (event) => {
  highlightEdges();
  highlightAdjacentNodes();
});
]]></script>
</svg>
