<?xml version="1.0" encoding="UTF-8" standalone="no"?>
<!DOCTYPE svg PUBLIC "-//W3C//DTD SVG 1.1//EN"
 "http://www.w3.org/Graphics/SVG/1.1/DTD/svg11.dtd">
<!-- Generated by graphviz version 2.42.4 (0)
 -->
<!-- Title: inja::StatementNode Pages: 1 -->
<svg width="892pt" height="192pt"
 viewBox="0.00 0.00 892.00 192.00" xmlns="http://www.w3.org/2000/svg" xmlns:xlink="http://www.w3.org/1999/xlink">
<g id="graph0" class="graph" transform="scale(1 1) rotate(0) translate(4 188)">
<title>inja::StatementNode</title>
<!-- Node1 -->
<g id="Node000001" class="node">
<title>Node1</title>
<g id="a_Node000001"><a xlink:title=" ">
<polygon fill="#999999" stroke="transparent" points="506,-129 396,-129 396,-110 506,-110 506,-129"/>
<text text-anchor="start" x="400.5" y="-116.5" font-family="Helvetica,sans-Serif" font-size="10.00">inja::StatementNode</text>
<polygon fill="none" stroke="#666666" points="396,-110 396,-129 506,-129 506,-110 396,-110"/>
</a>
</g>
</g>
<!-- Node3 -->
<g id="Node000003" class="node">
<title>Node3</title>
<g id="a_Node000003"><a xlink:href="classinja_1_1BlockStatementNode.html" target="_top" xlink:title=" ">
<polygon fill="white" stroke="transparent" points="136,-74 0,-74 0,-55 136,-55 136,-74"/>
<text text-anchor="start" x="4" y="-61.5" font-family="Helvetica,sans-Serif" font-size="10.00">inja::BlockStatementNode</text>
<polygon fill="none" stroke="#666666" points="0,-55 0,-74 136,-74 136,-55 0,-55"/>
</a>
</g>
</g>
<!-- Node1&#45;&gt;Node3 -->
<g id="edge2_Node000001_Node000003" class="edge">
<title>Node1&#45;&gt;Node3</title>
<g id="a_edge2_Node000001_Node000003"><a xlink:title=" ">
<path fill="none" stroke="#63b8ff" d="M385.46,-109.43C313.75,-99.51 199.72,-83.73 129.61,-74.03"/>
<polygon fill="none" stroke="#63b8ff" points="385.33,-112.95 395.72,-110.85 386.29,-106.01 385.33,-112.95"/>
</a>
</g>
</g>
<!-- Node4 -->
<g id="Node000004" class="node">
<title>Node4</title>
<g id="a_Node000004"><a xlink:href="classinja_1_1ExtendsStatementNode.html" target="_top" xlink:title=" ">
<polygon fill="white" stroke="transparent" points="302,-74 154,-74 154,-55 302,-55 302,-74"/>
<text text-anchor="start" x="158" y="-61.5" font-family="Helvetica,sans-Serif" font-size="10.00">inja::ExtendsStatementNode</text>
<polygon fill="none" stroke="#666666" points="154,-55 154,-74 302,-74 302,-55 154,-55"/>
</a>
</g>
</g>
<!-- Node1&#45;&gt;Node4 -->
<g id="edge3_Node000001_Node000004" class="edge">
<title>Node1&#45;&gt;Node4</title>
<g id="a_edge3_Node000001_Node000004"><a xlink:title=" ">
<path fill="none" stroke="#63b8ff" d="M405.25,-107.63C363.48,-97.7 302.55,-83.22 264.11,-74.08"/>
<polygon fill="none" stroke="#63b8ff" points="404.63,-111.08 415.17,-109.98 406.25,-104.27 404.63,-111.08"/>
</a>
</g>
</g>
<!-- Node5 -->
<g id="Node000005" class="node">
<title>Node5</title>
<g id="a_Node000005"><a xlink:href="classinja_1_1ForStatementNode.html" target="_top" xlink:title=" ">
<polygon fill="white" stroke="transparent" points="444,-74 320,-74 320,-55 444,-55 444,-74"/>
<text text-anchor="start" x="324" y="-61.5" font-family="Helvetica,sans-Serif" font-size="10.00">inja::ForStatementNode</text>
<polygon fill="none" stroke="#666666" points="320,-55 320,-74 444,-74 444,-55 320,-55"/>
</a>
</g>
</g>
<!-- Node1&#45;&gt;Node5 -->
<g id="edge4_Node000001_Node000005" class="edge">
<title>Node1&#45;&gt;Node5</title>
<g id="a_edge4_Node000001_Node000005"><a xlink:title=" ">
<path fill="none" stroke="#63b8ff" d="M431.96,-103.88C419.54,-94.34 403.76,-82.21 393.29,-74.17"/>
<polygon fill="none" stroke="#63b8ff" points="429.85,-106.67 439.91,-109.98 434.12,-101.12 429.85,-106.67"/>
</a>
</g>
</g>
<!-- Node8 -->
<g id="Node000008" class="node">
<title>Node8</title>
<g id="a_Node000008"><a xlink:href="classinja_1_1IfStatementNode.html" target="_top" xlink:title=" ">
<polygon fill="white" stroke="transparent" points="578,-74 462,-74 462,-55 578,-55 578,-74"/>
<text text-anchor="start" x="466" y="-61.5" font-family="Helvetica,sans-Serif" font-size="10.00">inja::IfStatementNode</text>
<polygon fill="none" stroke="#666666" points="462,-55 462,-74 578,-74 578,-55 462,-55"/>
</a>
</g>
</g>
<!-- Node1&#45;&gt;Node8 -->
<g id="edge7_Node000001_Node000008" class="edge">
<title>Node1&#45;&gt;Node8</title>
<g id="a_edge7_Node000001_Node000008"><a xlink:title=" ">
<path fill="none" stroke="#63b8ff" d="M470.04,-103.88C482.46,-94.34 498.24,-82.21 508.71,-74.17"/>
<polygon fill="none" stroke="#63b8ff" points="467.88,-101.12 462.09,-109.98 472.15,-106.67 467.88,-101.12"/>
</a>
</g>
</g>
<!-- Node9 -->
<g id="Node000009" class="node">
<title>Node9</title>
<g id="a_Node000009"><a xlink:href="classinja_1_1IncludeStatementNode.html" target="_top" xlink:title=" ">
<polygon fill="white" stroke="transparent" points="740,-74 596,-74 596,-55 740,-55 740,-74"/>
<text text-anchor="start" x="600" y="-61.5" font-family="Helvetica,sans-Serif" font-size="10.00">inja::IncludeStatementNode</text>
<polygon fill="none" stroke="#666666" points="596,-55 596,-74 740,-74 740,-55 596,-55"/>
</a>
</g>
</g>
<!-- Node1&#45;&gt;Node9 -->
<g id="edge8_Node000001_Node000009" class="edge">
<title>Node1&#45;&gt;Node9</title>
<g id="a_edge8_Node000001_Node000009"><a xlink:title=" ">
<path fill="none" stroke="#63b8ff" d="M495.77,-107.56C536.42,-97.64 595.53,-83.2 632.86,-74.08"/>
<polygon fill="none" stroke="#63b8ff" points="494.75,-104.21 485.86,-109.98 496.41,-111.01 494.75,-104.21"/>
</a>
</g>
</g>
<!-- Node10 -->
<g id="Node000010" class="node">
<title>Node10</title>
<g id="a_Node000010"><a xlink:href="classinja_1_1SetStatementNode.html" target="_top" xlink:title=" ">
<polygon fill="white" stroke="transparent" points="884,-74 758,-74 758,-55 884,-55 884,-74"/>
<text text-anchor="start" x="762.5" y="-61.5" font-family="Helvetica,sans-Serif" font-size="10.00">inja::SetStatementNode</text>
<polygon fill="none" stroke="#666666" points="758,-55 758,-74 884,-74 884,-55 758,-55"/>
</a>
</g>
</g>
<!-- Node1&#45;&gt;Node10 -->
<g id="edge9_Node000001_Node000010" class="edge">
<title>Node1&#45;&gt;Node10</title>
<g id="a_edge9_Node000001_Node000010"><a xlink:title=" ">
<path fill="none" stroke="#63b8ff" d="M516.34,-109.14C585.73,-99.2 694.48,-83.62 761.55,-74.02"/>
<polygon fill="none" stroke="#63b8ff" points="515.8,-105.68 506.39,-110.57 516.79,-112.61 515.8,-105.68"/>
</a>
</g>
</g>
<!-- Node2 -->
<g id="Node000002" class="node">
<title>Node2</title>
<g id="a_Node000002"><a xlink:href="classinja_1_1AstNode.html" target="_top" xlink:title="Base node class for the abstract syntax tree (AST).">
<polygon fill="white" stroke="transparent" points="488,-184 414,-184 414,-165 488,-165 488,-184"/>
<text text-anchor="start" x="418" y="-171.5" font-family="Helvetica,sans-Serif" font-size="10.00">inja::AstNode</text>
<polygon fill="none" stroke="#666666" points="414,-165 414,-184 488,-184 488,-165 414,-165"/>
</a>
</g>
</g>
<!-- Node2&#45;&gt;Node1 -->
<g id="edge1_Node000001_Node000002" class="edge">
<title>Node2&#45;&gt;Node1</title>
<g id="a_edge1_Node000001_Node000002"><a xlink:title=" ">
<path fill="none" stroke="#63b8ff" d="M451,-154.66C451,-145.93 451,-135.99 451,-129.09"/>
<polygon fill="none" stroke="#63b8ff" points="447.5,-154.75 451,-164.75 454.5,-154.75 447.5,-154.75"/>
</a>
</g>
</g>
<!-- Node6 -->
<g id="Node000006" class="node">
<title>Node6</title>
<g id="a_Node000006"><a xlink:href="classinja_1_1ForArrayStatementNode.html" target="_top" xlink:title=" ">
<polygon fill="white" stroke="transparent" points="371,-19 221,-19 221,0 371,0 371,-19"/>
<text text-anchor="start" x="225" y="-6.5" font-family="Helvetica,sans-Serif" font-size="10.00">inja::ForArrayStatementNode</text>
<polygon fill="none" stroke="#666666" points="221,0 221,-19 371,-19 371,0 221,0"/>
</a>
</g>
</g>
<!-- Node5&#45;&gt;Node6 -->
<g id="edge5_Node000005_Node000006" class="edge">
<title>Node5&#45;&gt;Node6</title>
<g id="a_edge5_Node000005_Node000006"><a xlink:title=" ">
<path fill="none" stroke="#63b8ff" d="M359.6,-49.7C343.93,-40.04 323.49,-27.44 310.07,-19.17"/>
<polygon fill="none" stroke="#63b8ff" points="357.83,-52.72 368.18,-54.98 361.51,-46.76 357.83,-52.72"/>
</a>
</g>
</g>
<!-- Node7 -->
<g id="Node000007" class="node">
<title>Node7</title>
<g id="a_Node000007"><a xlink:href="classinja_1_1ForObjectStatementNode.html" target="_top" xlink:title=" ">
<polygon fill="white" stroke="transparent" points="545,-19 389,-19 389,0 545,0 545,-19"/>
<text text-anchor="start" x="393" y="-6.5" font-family="Helvetica,sans-Serif" font-size="10.00">inja::ForObjectStatementNode</text>
<polygon fill="none" stroke="#666666" points="389,0 389,-19 545,-19 545,0 389,0"/>
</a>
</g>
</g>
<!-- Node5&#45;&gt;Node7 -->
<g id="edge6_Node000005_Node000007" class="edge">
<title>Node5&#45;&gt;Node7</title>
<g id="a_edge6_Node000005_Node000007"><a xlink:title=" ">
<path fill="none" stroke="#63b8ff" d="M404.57,-49.42C420,-39.81 439.95,-27.37 453.09,-19.17"/>
<polygon fill="none" stroke="#63b8ff" points="402.29,-46.72 395.66,-54.98 405.99,-52.66 402.29,-46.72"/>
</a>
</g>
</g>
</g>
</svg>
