<?xml version="1.0" encoding="UTF-8" standalone="no"?>
<!DOCTYPE svg PUBLIC "-//W3C//DTD SVG 1.1//EN"
 "http://www.w3.org/Graphics/SVG/1.1/DTD/svg11.dtd">
<!-- Generated by graphviz version 2.42.4 (0)
 -->
<!-- Title: inja::ForArrayStatementNode Pages: 1 -->
<svg width="458pt" height="409pt"
 viewBox="0.00 0.00 458.00 409.00" xmlns="http://www.w3.org/2000/svg" xmlns:xlink="http://www.w3.org/1999/xlink">

<svg id="main" version="1.1" xmlns="http://www.w3.org/2000/svg" xmlns:xlink="http://www.w3.org/1999/xlink" xml:space="preserve" onload="init(evt)">
<style type="text/css"><![CDATA[
.node, .edge {opacity: 0.7;}
.node.selected, .edge.selected {opacity: 1;}
.edge:hover path { stroke: red; }
.edge:hover polygon { stroke: red; fill: red; }
]]></style>
<script type="application/ecmascript" xlink:href="svg.min.js"/>
<svg id="graph" class="graph">
<g id="graph0" class="graph" transform="scale(1 1) rotate(0) translate(4 405)">
<title>inja::ForArrayStatementNode</title>
<!-- Node1 -->
<g id="Node000001" class="node">
<title>Node1</title>
<g id="a_Node000001"><a xlink:title=" ">
<polygon fill="#999999" stroke="transparent" points="358,-19 208,-19 208,0 358,0 358,-19"/>
<text text-anchor="start" x="212" y="-6.5" font-family="Helvetica,sans-Serif" font-size="10.00">inja::ForArrayStatementNode</text>
<polygon fill="none" stroke="#666666" points="208,0 208,-19 358,-19 358,0 208,0"/>
</a>
</g>
</g>
<!-- Node2 -->
<g id="Node000002" class="node">
<title>Node2</title>
<g id="a_Node000002"><a xlink:href="classinja_1_1ForStatementNode.html" target="_top" xlink:title=" ">
<polygon fill="white" stroke="transparent" points="291,-85 167,-85 167,-66 291,-66 291,-85"/>
<text text-anchor="start" x="171" y="-72.5" font-family="Helvetica,sans-Serif" font-size="10.00">inja::ForStatementNode</text>
<polygon fill="none" stroke="#666666" points="167,-66 167,-85 291,-85 291,-66 167,-66"/>
</a>
</g>
</g>
<!-- Node2&#45;&gt;Node1 -->
<g id="edge1_Node000001_Node000002" class="edge">
<title>Node2&#45;&gt;Node1</title>
<g id="a_edge1_Node000001_Node000002"><a xlink:title=" ">
<path fill="none" stroke="#63b8ff" d="M242.82,-58.12C253.21,-45.81 267.06,-29.39 275.49,-19.41"/>
<polygon fill="none" stroke="#63b8ff" points="240.06,-55.97 236.28,-65.87 245.41,-60.48 240.06,-55.97"/>
</a>
</g>
</g>
<!-- Node3 -->
<g id="Node000003" class="node">
<title>Node3</title>
<g id="a_Node000003"><a xlink:href="classinja_1_1StatementNode.html" target="_top" xlink:title=" ">
<polygon fill="white" stroke="transparent" points="110,-287 0,-287 0,-268 110,-268 110,-287"/>
<text text-anchor="start" x="4.5" y="-274.5" font-family="Helvetica,sans-Serif" font-size="10.00">inja::StatementNode</text>
<polygon fill="none" stroke="#666666" points="0,-268 0,-287 110,-287 110,-268 0,-268"/>
</a>
</g>
</g>
<!-- Node3&#45;&gt;Node2 -->
<g id="edge2_Node000002_Node000003" class="edge">
<title>Node3&#45;&gt;Node2</title>
<g id="a_edge2_Node000002_Node000003"><a xlink:title=" ">
<path fill="none" stroke="#63b8ff" d="M55.64,-257.89C57.53,-229.88 64.87,-176.63 93,-143 118.89,-112.06 162.63,-94.31 193.5,-85.06"/>
<polygon fill="none" stroke="#63b8ff" points="52.14,-257.74 55.13,-267.9 59.13,-258.1 52.14,-257.74"/>
</a>
</g>
</g>
<!-- Node4 -->
<g id="Node000004" class="node">
<title>Node4</title>
<g id="a_Node000004"><a xlink:href="classinja_1_1AstNode.html" target="_top" xlink:title="Base node class for the abstract syntax tree (AST).">
<polygon fill="white" stroke="transparent" points="246,-401 172,-401 172,-382 246,-382 246,-401"/>
<text text-anchor="start" x="176" y="-388.5" font-family="Helvetica,sans-Serif" font-size="10.00">inja::AstNode</text>
<polygon fill="none" stroke="#666666" points="172,-382 172,-401 246,-401 246,-382 172,-382"/>
</a>
</g>
</g>
<!-- Node4&#45;&gt;Node3 -->
<g id="edge3_Node000003_Node000004" class="edge">
<title>Node4&#45;&gt;Node3</title>
<g id="a_edge3_Node000003_Node000004"><a xlink:title=" ">
<path fill="none" stroke="#63b8ff" d="M161.9,-384.91C144.67,-381.11 125.79,-374.73 111,-364 82.85,-343.58 64.98,-304.31 58.15,-287.02"/>
<polygon fill="none" stroke="#63b8ff" points="161.33,-388.37 171.81,-386.86 162.68,-381.5 161.33,-388.37"/>
</a>
</g>
</g>
<!-- Node5 -->
<g id="Node000005" class="node">
<title>Node5</title>
<g id="a_Node000005"><a xlink:href="classinja_1_1ExpressionListNode.html" target="_top" xlink:title=" ">
<polygon fill="white" stroke="transparent" points="232,-167.5 102,-167.5 102,-148.5 232,-148.5 232,-167.5"/>
<text text-anchor="start" x="106.5" y="-155" font-family="Helvetica,sans-Serif" font-size="10.00">inja::ExpressionListNode</text>
<polygon fill="none" stroke="#666666" points="102,-148.5 102,-167.5 232,-167.5 232,-148.5 102,-148.5"/>
</a>
</g>
</g>
<!-- Node4&#45;&gt;Node5 -->
<g id="edge5_Node000005_Node000004" class="edge">
<title>Node4&#45;&gt;Node5</title>
<g id="a_edge5_Node000005_Node000004"><a xlink:title=" ">
<path fill="none" stroke="#63b8ff" d="M183.69,-376.5C169.14,-366.92 152.18,-352.74 144,-335 116.65,-275.67 150.37,-193.91 162.77,-167.55"/>
<polygon fill="none" stroke="#63b8ff" points="181.99,-379.56 192.33,-381.86 185.68,-373.62 181.99,-379.56"/>
</a>
</g>
</g>
<!-- Node7 -->
<g id="Node000007" class="node">
<title>Node7</title>
<g id="a_Node000007"><a xlink:href="classinja_1_1ExpressionNode.html" target="_top" xlink:title=" ">
<polygon fill="white" stroke="transparent" points="265,-329.5 153,-329.5 153,-310.5 265,-310.5 265,-329.5"/>
<text text-anchor="start" x="157.5" y="-317" font-family="Helvetica,sans-Serif" font-size="10.00">inja::ExpressionNode</text>
<polygon fill="none" stroke="#666666" points="153,-310.5 153,-329.5 265,-329.5 265,-310.5 153,-310.5"/>
</a>
</g>
</g>
<!-- Node4&#45;&gt;Node7 -->
<g id="edge8_Node000007_Node000004" class="edge">
<title>Node4&#45;&gt;Node7</title>
<g id="a_edge8_Node000007_Node000004"><a xlink:title=" ">
<path fill="none" stroke="#63b8ff" d="M209,-371.71C209,-358 209,-340.05 209,-329.59"/>
<polygon fill="none" stroke="#63b8ff" points="205.5,-371.98 209,-381.98 212.5,-371.98 205.5,-371.98"/>
</a>
</g>
</g>
<!-- Node8 -->
<g id="Node000008" class="node">
<title>Node8</title>
<g id="a_Node000008"><a xlink:href="classinja_1_1BlockNode.html" target="_top" xlink:title=" ">
<polygon fill="white" stroke="transparent" points="336,-167.5 250,-167.5 250,-148.5 336,-148.5 336,-167.5"/>
<text text-anchor="start" x="254.5" y="-155" font-family="Helvetica,sans-Serif" font-size="10.00">inja::BlockNode</text>
<polygon fill="none" stroke="#666666" points="250,-148.5 250,-167.5 336,-167.5 336,-148.5 250,-148.5"/>
</a>
</g>
</g>
<!-- Node4&#45;&gt;Node8 -->
<g id="edge10_Node000008_Node000004" class="edge">
<title>Node4&#45;&gt;Node8</title>
<g id="a_edge10_Node000008_Node000004"><a xlink:title=" ">
<path fill="none" stroke="#63b8ff" d="M233.11,-376.53C247.52,-366.82 264.76,-352.5 274,-335 304.42,-277.38 297.49,-194.5 294.21,-167.7"/>
<polygon fill="none" stroke="#63b8ff" points="231.14,-373.64 224.6,-381.97 234.91,-379.53 231.14,-373.64"/>
</a>
</g>
</g>
<!-- Node10 -->
<g id="Node000010" class="node">
<title>Node10</title>
<g id="a_Node000010"><a xlink:title=" ">
<polygon fill="white" stroke="transparent" points="436,-335 324,-335 324,-305 436,-305 436,-335"/>
<text text-anchor="start" x="328.5" y="-323" font-family="Helvetica,sans-Serif" font-size="10.00">std::shared_ptr&lt; inja</text>
<text text-anchor="start" x="350.5" y="-312" font-family="Helvetica,sans-Serif" font-size="10.00">::AstNode &gt;</text>
<polygon fill="none" stroke="#666666" points="324,-305 324,-335 436,-335 436,-305 324,-305"/>
</a>
</g>
</g>
<!-- Node4&#45;&gt;Node10 -->
<g id="edge13_Node000010_Node000004" class="edge">
<title>Node4&#45;&gt;Node10</title>
<g id="a_edge13_Node000010_Node000004"><a xlink:title=" ">
<path fill="none" stroke="#63b8ff" d="M246.08,-382.95C264.75,-378.54 287.5,-372.2 307,-364 321.37,-357.96 336.35,-349.55 348.97,-341.77"/>
<polygon fill="none" stroke="#63b8ff" points="349.25,-341.59 352.17,-335 359.38,-335.17 356.46,-341.76 349.25,-341.59"/>
</a>
</g>
<text text-anchor="middle" x="339.5" y="-356" font-family="Helvetica,sans-Serif" font-size="10.00" fill="grey"> +ptr</text>
</g>
<!-- Node5&#45;&gt;Node2 -->
<g id="edge4_Node000002_Node000005" class="edge">
<title>Node5&#45;&gt;Node2</title>
<g id="a_edge4_Node000002_Node000005"><a xlink:title=" ">
<path fill="none" stroke="#63b8ff" d="M171.91,-148.18C178.22,-137.14 189.84,-117.88 202,-103 204.62,-99.8 207.58,-96.56 210.56,-93.51"/>
<polygon fill="none" stroke="#63b8ff" points="210.62,-93.46 212.14,-86.41 219.23,-85.1 217.71,-92.15 210.62,-93.46"/>
</a>
</g>
<text text-anchor="middle" x="230.5" y="-111.5" font-family="Helvetica,sans-Serif" font-size="10.00" fill="grey"> +condition</text>
</g>
<!-- Node6 -->
<g id="Node000006" class="node">
<title>Node6</title>
<g id="a_Node000006"><a xlink:title=" ">
<polygon fill="white" stroke="transparent" points="265,-250 153,-250 153,-220 265,-220 265,-250"/>
<text text-anchor="start" x="157.5" y="-238" font-family="Helvetica,sans-Serif" font-size="10.00">std::shared_ptr&lt; inja</text>
<text text-anchor="start" x="160.5" y="-227" font-family="Helvetica,sans-Serif" font-size="10.00">::ExpressionNode &gt;</text>
<polygon fill="none" stroke="#666666" points="153,-220 153,-250 265,-250 265,-220 153,-220"/>
</a>
</g>
</g>
<!-- Node6&#45;&gt;Node5 -->
<g id="edge6_Node000005_Node000006" class="edge">
<title>Node6&#45;&gt;Node5</title>
<g id="a_edge6_Node000005_Node000006"><a xlink:title=" ">
<path fill="none" stroke="#63b8ff" d="M201.1,-219.89C194.55,-208.2 185.17,-191.45 177.91,-178.47"/>
<polygon fill="none" stroke="#63b8ff" points="177.83,-178.34 171.41,-175.06 171.97,-167.87 178.39,-171.16 177.83,-178.34"/>
</a>
</g>
<text text-anchor="middle" x="206.5" y="-194" font-family="Helvetica,sans-Serif" font-size="10.00" fill="grey"> +root</text>
</g>
<!-- Node7&#45;&gt;Node6 -->
<g id="edge7_Node000006_Node000007" class="edge">
<title>Node7&#45;&gt;Node6</title>
<g id="a_edge7_Node000006_Node000007"><a xlink:title=" ">
<path fill="none" stroke="#63b8ff" d="M209,-310.43C209,-299.19 209,-278.95 209,-262.41"/>
<polygon fill="none" stroke="#63b8ff" points="209,-262.18 205,-256.18 209,-250.18 213,-256.18 209,-262.18"/>
</a>
</g>
<text text-anchor="middle" x="221.5" y="-275" font-family="Helvetica,sans-Serif" font-size="10.00" fill="grey"> +ptr</text>
</g>
<!-- Node8&#45;&gt;Node2 -->
<g id="edge9_Node000002_Node000008" class="edge">
<title>Node8&#45;&gt;Node2</title>
<g id="a_edge9_Node000002_Node000008"><a xlink:title=" ">
<path fill="none" stroke="#63b8ff" d="M288.61,-148.45C282.71,-137.36 271.49,-117.69 259,-103 256.12,-99.61 252.81,-96.27 249.46,-93.15"/>
<polygon fill="none" stroke="#63b8ff" points="249.3,-93.01 242.15,-92.09 240.25,-85.13 247.4,-86.06 249.3,-93.01"/>
</a>
</g>
<text text-anchor="middle" x="294" y="-117" font-family="Helvetica,sans-Serif" font-size="10.00" fill="grey"> +body</text>
<text text-anchor="middle" x="294" y="-106" font-family="Helvetica,sans-Serif" font-size="10.00" fill="grey">+parent</text>
</g>
<!-- Node9 -->
<g id="Node000009" class="node">
<title>Node9</title>
<g id="a_Node000009"><a xlink:title=" ">
<polygon fill="white" stroke="transparent" points="447,-250 321,-250 321,-220 447,-220 447,-250"/>
<text text-anchor="start" x="325" y="-238" font-family="Helvetica,sans-Serif" font-size="10.00">std::vector&lt; std::shared</text>
<text text-anchor="start" x="325" y="-227" font-family="Helvetica,sans-Serif" font-size="10.00">_ptr&lt; inja::AstNode &gt; &gt;</text>
<polygon fill="none" stroke="#666666" points="321,-220 321,-250 447,-250 447,-220 321,-220"/>
</a>
</g>
</g>
<!-- Node9&#45;&gt;Node8 -->
<g id="edge11_Node000008_Node000009" class="edge">
<title>Node9&#45;&gt;Node8</title>
<g id="a_edge11_Node000008_Node000009"><a xlink:title=" ">
<path fill="none" stroke="#63b8ff" d="M366.88,-219.89C351.59,-207.29 329.19,-188.82 313.06,-175.53"/>
<polygon fill="none" stroke="#63b8ff" points="312.77,-175.29 305.6,-174.56 303.51,-167.66 310.68,-168.39 312.77,-175.29"/>
</a>
</g>
<text text-anchor="middle" x="363.5" y="-194" font-family="Helvetica,sans-Serif" font-size="10.00" fill="grey"> +nodes</text>
</g>
<!-- Node10&#45;&gt;Node9 -->
<g id="edge12_Node000009_Node000010" class="edge">
<title>Node10&#45;&gt;Node9</title>
<g id="a_edge12_Node000009_Node000010"><a xlink:title=" ">
<path fill="none" stroke="#63b8ff" d="M380.68,-304.92C381.24,-293.23 382.06,-276.3 382.74,-262.14"/>
<polygon fill="none" stroke="#63b8ff" points="382.74,-262.13 379.03,-255.95 383.32,-250.15 387.02,-256.33 382.74,-262.13"/>
</a>
</g>
<text text-anchor="middle" x="411" y="-275" font-family="Helvetica,sans-Serif" font-size="10.00" fill="grey"> +elements</text>
</g>
<!-- Node11 -->
<g id="Node000011" class="node">
<title>Node11</title>
<g id="a_Node000011"><a xlink:title=" ">
<polygon fill="white" stroke="transparent" points="404,-85 346,-85 346,-66 404,-66 404,-85"/>
<text text-anchor="start" x="350.5" y="-72.5" font-family="Helvetica,sans-Serif" font-size="10.00">std::string</text>
<polygon fill="none" stroke="#666666" points="346,-66 346,-85 404,-85 404,-66 346,-66"/>
</a>
</g>
</g>
<!-- Node11&#45;&gt;Node1 -->
<g id="edge14_Node000001_Node000011" class="edge">
<title>Node11&#45;&gt;Node1</title>
<g id="a_edge14_Node000001_Node000011"><a xlink:title=" ">
<path fill="none" stroke="#63b8ff" d="M362.59,-65.87C347.98,-55.71 323.43,-38.63 305.45,-26.12"/>
<polygon fill="none" stroke="#63b8ff" points="305.36,-26.05 298.15,-25.91 295.5,-19.2 302.71,-19.34 305.36,-26.05"/>
</a>
</g>
<text text-anchor="middle" x="353.5" y="-40" font-family="Helvetica,sans-Serif" font-size="10.00" fill="grey"> +value</text>
</g>
<!-- Node12 -->
<g id="Node000012" class="node">
<title>Node12</title>
<g id="a_Node000012"><a xlink:title=" ">
<polygon fill="white" stroke="transparent" points="450,-173 354,-173 354,-143 450,-143 450,-173"/>
<text text-anchor="start" x="358" y="-161" font-family="Helvetica,sans-Serif" font-size="10.00">std::basic_string&lt;</text>
<text text-anchor="start" x="383.5" y="-150" font-family="Helvetica,sans-Serif" font-size="10.00"> Char &gt;</text>
<polygon fill="none" stroke="#666666" points="354,-143 354,-173 450,-173 450,-143 354,-143"/>
</a>
</g>
</g>
<!-- Node12&#45;&gt;Node11 -->
<g id="edge15_Node000011_Node000012" class="edge">
<title>Node12&#45;&gt;Node11</title>
<g id="a_edge15_Node000011_Node000012"><a xlink:title=" ">
<path fill="none" stroke="#63b8ff" d="M394,-133.16C388.61,-117.09 381.81,-96.81 377.98,-85.38"/>
<polygon fill="none" stroke="#63b8ff" points="390.8,-134.61 397.3,-142.98 397.44,-132.38 390.8,-134.61"/>
</a>
</g>
</g>
</g>
</svg>
</svg>

<style type='text/css'>
<![CDATA[
[data-mouse-over-selected='false'] { opacity: 0.7; }
[data-mouse-over-selected='true']  { opacity: 1.0; }
]]>
</style>
<script type="application/ecmascript"><![CDATA[
document.addEventListener('DOMContentLoaded', (event) => {
  highlightEdges();
  highlightAdjacentNodes();
});
]]></script>
</svg>
