<?xml version="1.0" encoding="UTF-8" standalone="no"?>
<!DOCTYPE svg PUBLIC "-//W3C//DTD SVG 1.1//EN"
 "http://www.w3.org/Graphics/SVG/1.1/DTD/svg11.dtd">
<!-- Generated by graphviz version 14.1.2 (0)
 -->
<!-- Title: nlohmann::json_schema::json_validator Pages: 1 -->
<svg width="515pt" height="667pt"
 viewBox="0.00 0.00 515.00 667.00" xmlns="http://www.w3.org/2000/svg" xmlns:xlink="http://www.w3.org/1999/xlink">
<g id="graph0" class="graph" transform="scale(1 1) rotate(0) translate(4 663)">
<title>nlohmann::json_schema::json_validator</title>
<!-- Node1 -->
<g id="Node000001" class="node">
<title>Node1</title>
<g id="a_Node000001"><a xlink:title=" ">
<polygon fill="#999999" stroke="none" points="142.25,-33.5 15.75,-33.5 15.75,0 142.25,0 142.25,-33.5"/>
<text xml:space="preserve" text-anchor="start" x="19.75" y="-20" font-family="Helvetica,sans-Serif" font-size="10.00">nlohmann::json_schema</text>
<text xml:space="preserve" text-anchor="start" x="41.5" y="-7.25" font-family="Helvetica,sans-Serif" font-size="10.00">::json_validator</text>
<polygon fill="none" stroke="#666666" points="15.75,0 15.75,-33.5 142.25,-33.5 142.25,0 15.75,0"/>
</a>
</g>
</g>
<!-- Node2 -->
<g id="Node000002" class="node">
<title>Node2</title>
<g id="a_Node000002"><a xlink:title=" ">
<polygon fill="white" stroke="none" points="158,-121.75 0,-121.75 0,-88.25 158,-88.25 158,-121.75"/>
<text xml:space="preserve" text-anchor="start" x="4" y="-108.25" font-family="Helvetica,sans-Serif" font-size="10.00">std::unique_ptr&lt; nlohmann</text>
<text xml:space="preserve" text-anchor="start" x="4" y="-95.5" font-family="Helvetica,sans-Serif" font-size="10.00">::json_schema::root_schema &gt;</text>
<polygon fill="none" stroke="#666666" points="0,-88.25 0,-121.75 158,-121.75 158,-88.25 0,-88.25"/>
</a>
</g>
</g>
<!-- Node2&#45;&gt;Node1 -->
<g id="edge1_Node000001_Node000002" class="edge">
<title>Node2&#45;&gt;Node1</title>
<g id="a_edge1_Node000001_Node000002"><a xlink:title=" ">
<path fill="none" stroke="#63b8ff" d="M79,-88.58C79,-76.88 79,-60.46 79,-46.37"/>
<polygon fill="none" stroke="#63b8ff" points="79,-46.23 75,-40.23 79,-34.23 83,-40.23 79,-46.23"/>
</a>
</g>
<text xml:space="preserve" text-anchor="start" x="82" y="-57.75" font-family="Helvetica,sans-Serif" font-size="10.00" fill="grey">&#45;root_</text>
</g>
<!-- Node3 -->
<g id="Node000003" class="node">
<title>Node3</title>
<g id="a_Node000003"><a xlink:href="classnlohmann_1_1json__schema_1_1root__schema.html" target="_top" xlink:title=" ">
<polygon fill="white" stroke="none" points="142.25,-210 15.75,-210 15.75,-176.5 142.25,-176.5 142.25,-210"/>
<text xml:space="preserve" text-anchor="start" x="19.75" y="-196.5" font-family="Helvetica,sans-Serif" font-size="10.00">nlohmann::json_schema</text>
<text xml:space="preserve" text-anchor="start" x="44.5" y="-183.75" font-family="Helvetica,sans-Serif" font-size="10.00">::root_schema</text>
<polygon fill="none" stroke="#666666" points="15.75,-176.5 15.75,-210 142.25,-210 142.25,-176.5 15.75,-176.5"/>
</a>
</g>
</g>
<!-- Node3&#45;&gt;Node2 -->
<g id="edge2_Node000002_Node000003" class="edge">
<title>Node3&#45;&gt;Node2</title>
<g id="a_edge2_Node000002_Node000003"><a xlink:title=" ">
<path fill="none" stroke="#63b8ff" d="M79,-176.83C79,-165.13 79,-148.71 79,-134.62"/>
<polygon fill="none" stroke="#63b8ff" points="79,-134.48 75,-128.48 79,-122.48 83,-128.48 79,-134.48"/>
</a>
</g>
<text xml:space="preserve" text-anchor="start" x="82" y="-146" font-family="Helvetica,sans-Serif" font-size="10.00" fill="grey">+ptr</text>
</g>
<!-- Node4 -->
<g id="Node000004" class="node">
<title>Node4</title>
<g id="a_Node000004"><a xlink:title=" ">
<polygon fill="white" stroke="none" points="150.75,-582.12 9.25,-582.12 9.25,-561.38 150.75,-561.38 150.75,-582.12"/>
<text xml:space="preserve" text-anchor="start" x="13.25" y="-568.62" font-family="Helvetica,sans-Serif" font-size="10.00">std::shared_ptr&lt; schema &gt;</text>
<polygon fill="none" stroke="#666666" points="9.25,-561.38 9.25,-582.12 150.75,-582.12 150.75,-561.38 9.25,-561.38"/>
</a>
</g>
</g>
<!-- Node4&#45;&gt;Node3 -->
<g id="edge3_Node000003_Node000004" class="edge">
<title>Node4&#45;&gt;Node3</title>
<g id="a_edge3_Node000003_Node000004"><a xlink:title=" ">
<path fill="none" stroke="#63b8ff" d="M77.12,-561.39C72.27,-544.79 63,-509.03 63,-478.12 63,-478.12 63,-478.12 63,-286.88 63,-265.03 67.38,-240.7 71.55,-222.46"/>
<polygon fill="none" stroke="#63b8ff" points="71.57,-222.38 69.11,-215.6 74.41,-210.72 76.88,-217.49 71.57,-222.38"/>
</a>
</g>
<text xml:space="preserve" text-anchor="start" x="66" y="-379.38" font-family="Helvetica,sans-Serif" font-size="10.00" fill="grey">&#45;root_</text>
</g>
<!-- Node9 -->
<g id="Node000009" class="node">
<title>Node9</title>
<g id="a_Node000009"><a xlink:title=" ">
<polygon fill="white" stroke="none" points="354.88,-493.88 199.12,-493.88 199.12,-460.38 354.88,-460.38 354.88,-493.88"/>
<text xml:space="preserve" text-anchor="start" x="203.12" y="-480.38" font-family="Helvetica,sans-Serif" font-size="10.00">std::map&lt; std::string,</text>
<text xml:space="preserve" text-anchor="start" x="203.12" y="-467.62" font-family="Helvetica,sans-Serif" font-size="10.00"> std::shared_ptr&lt; schema &gt; &gt;</text>
<polygon fill="none" stroke="#666666" points="199.12,-460.38 199.12,-493.88 354.88,-493.88 354.88,-460.38 199.12,-460.38"/>
</a>
</g>
</g>
<!-- Node4&#45;&gt;Node9 -->
<g id="edge10_Node000009_Node000004" class="edge">
<title>Node4&#45;&gt;Node9</title>
<g id="a_edge10_Node000009_Node000004"><a xlink:title=" ">
<path fill="none" stroke="#63b8ff" d="M99.61,-561.53C130.26,-547.12 190.31,-518.88 232.01,-499.28"/>
<polygon fill="none" stroke="#63b8ff" points="232.09,-499.24 235.82,-493.07 242.95,-494.13 239.23,-500.31 232.09,-499.24"/>
</a>
</g>
<text xml:space="preserve" text-anchor="start" x="193.29" y="-524.5" font-family="Helvetica,sans-Serif" font-size="10.00" fill="grey">+elements</text>
</g>
<!-- Node5 -->
<g id="Node000005" class="node">
<title>Node5</title>
<g id="a_Node000005"><a xlink:title=" ">
<polygon fill="white" stroke="none" points="247.75,-311 94.25,-311 94.25,-264.75 247.75,-264.75 247.75,-311"/>
<text xml:space="preserve" text-anchor="start" x="98.25" y="-297.5" font-family="Helvetica,sans-Serif" font-size="10.00">std::map&lt; std::string,</text>
<text xml:space="preserve" text-anchor="start" x="98.25" y="-284.75" font-family="Helvetica,sans-Serif" font-size="10.00"> nlohmann::json_schema</text>
<text xml:space="preserve" text-anchor="start" x="98.25" y="-272" font-family="Helvetica,sans-Serif" font-size="10.00">::root_schema::schema_file &gt;</text>
<polygon fill="none" stroke="#666666" points="94.25,-264.75 94.25,-311 247.75,-311 247.75,-264.75 94.25,-264.75"/>
</a>
</g>
</g>
<!-- Node5&#45;&gt;Node3 -->
<g id="edge4_Node000003_Node000005" class="edge">
<title>Node5&#45;&gt;Node3</title>
<g id="a_edge4_Node000003_Node000005"><a xlink:title=" ">
<path fill="none" stroke="#63b8ff" d="M149.2,-264.92C135.55,-251.19 117.94,-233.46 103.77,-219.19"/>
<polygon fill="none" stroke="#63b8ff" points="103.7,-219.11 96.63,-217.67 95.24,-210.6 102.3,-212.04 103.7,-219.11"/>
</a>
</g>
<text xml:space="preserve" text-anchor="start" x="133.51" y="-234.25" font-family="Helvetica,sans-Serif" font-size="10.00" fill="grey">&#45;files_</text>
</g>
<!-- Node6 -->
<g id="Node000006" class="node">
<title>Node6</title>
<g id="a_Node000006"><a xlink:title=" ">
<polygon fill="white" stroke="none" points="305.38,-582.12 248.62,-582.12 248.62,-561.38 305.38,-561.38 305.38,-582.12"/>
<text xml:space="preserve" text-anchor="start" x="252.62" y="-568.62" font-family="Helvetica,sans-Serif" font-size="10.00">std::string</text>
<polygon fill="none" stroke="#666666" points="248.62,-561.38 248.62,-582.12 305.38,-582.12 305.38,-561.38 248.62,-561.38"/>
</a>
</g>
</g>
<!-- Node6&#45;&gt;Node5 -->
<g id="edge5_Node000005_Node000006" class="edge">
<title>Node6&#45;&gt;Node5</title>
<g id="a_edge5_Node000005_Node000006"><a xlink:title=" ">
<path fill="none" stroke="#63b8ff" d="M258.3,-561.5C237.64,-550.17 205.27,-528.9 190,-500.25 160.07,-444.09 161.88,-367.49 166.22,-323.6"/>
<polygon fill="none" stroke="#63b8ff" points="166.22,-323.65 162.91,-317.24 167.55,-311.72 170.86,-318.13 166.22,-323.65"/>
</a>
</g>
<text xml:space="preserve" text-anchor="start" x="171.87" y="-423.5" font-family="Helvetica,sans-Serif" font-size="10.00" fill="grey">+keys</text>
</g>
<!-- Node6&#45;&gt;Node9 -->
<g id="edge9_Node000009_Node000006" class="edge">
<title>Node6&#45;&gt;Node9</title>
<g id="a_edge9_Node000009_Node000006"><a xlink:title=" ">
<path fill="none" stroke="#63b8ff" d="M277,-561.53C277,-548.85 277,-525.47 277,-506.68"/>
<polygon fill="none" stroke="#63b8ff" points="277,-506.65 273,-500.65 277,-494.65 281,-500.65 277,-506.65"/>
</a>
</g>
<text xml:space="preserve" text-anchor="start" x="280" y="-524.5" font-family="Helvetica,sans-Serif" font-size="10.00" fill="grey">+keys</text>
</g>
<!-- Node10 -->
<g id="Node000010" class="node">
<title>Node10</title>
<g id="a_Node000010"><a xlink:title=" ">
<polygon fill="white" stroke="none" points="506.62,-500.25 373.38,-500.25 373.38,-454 506.62,-454 506.62,-500.25"/>
<text xml:space="preserve" text-anchor="start" x="377.38" y="-486.75" font-family="Helvetica,sans-Serif" font-size="10.00">std::map&lt; std::string,</text>
<text xml:space="preserve" text-anchor="start" x="377.38" y="-474" font-family="Helvetica,sans-Serif" font-size="10.00"> std::shared_ptr&lt; schema</text>
<text xml:space="preserve" text-anchor="start" x="419.38" y="-461.25" font-family="Helvetica,sans-Serif" font-size="10.00">_ref &gt; &gt;</text>
<polygon fill="none" stroke="#666666" points="373.38,-454 373.38,-500.25 506.62,-500.25 506.62,-454 373.38,-454"/>
</a>
</g>
</g>
<!-- Node6&#45;&gt;Node10 -->
<g id="edge12_Node000010_Node000006" class="edge">
<title>Node6&#45;&gt;Node10</title>
<g id="a_edge12_Node000010_Node000006"><a xlink:title=" ">
<path fill="none" stroke="#63b8ff" d="M293.22,-561.53C315.56,-548.84 356.75,-525.43 389.83,-506.64"/>
<polygon fill="none" stroke="#63b8ff" points="389.93,-506.58 393.17,-500.14 400.36,-500.65 397.12,-507.09 389.93,-506.58"/>
</a>
</g>
<text xml:space="preserve" text-anchor="start" x="371.26" y="-524.5" font-family="Helvetica,sans-Serif" font-size="10.00" fill="grey">+keys</text>
</g>
<!-- Node7 -->
<g id="Node000007" class="node">
<title>Node7</title>
<g id="a_Node000007"><a xlink:title=" ">
<polygon fill="white" stroke="none" points="324.88,-659 229.12,-659 229.12,-625.5 324.88,-625.5 324.88,-659"/>
<text xml:space="preserve" text-anchor="start" x="233.12" y="-645.5" font-family="Helvetica,sans-Serif" font-size="10.00">std::basic_string&lt;</text>
<text xml:space="preserve" text-anchor="start" x="258.62" y="-632.75" font-family="Helvetica,sans-Serif" font-size="10.00"> Char &gt;</text>
<polygon fill="none" stroke="#666666" points="229.12,-625.5 229.12,-659 324.88,-659 324.88,-625.5 229.12,-625.5"/>
</a>
</g>
</g>
<!-- Node7&#45;&gt;Node6 -->
<g id="edge6_Node000006_Node000007" class="edge">
<title>Node7&#45;&gt;Node6</title>
<g id="a_edge6_Node000006_Node000007"><a xlink:title=" ">
<path fill="none" stroke="#63b8ff" d="M277,-614.45C277,-603.03 277,-590.44 277,-582.12"/>
<polygon fill="none" stroke="#63b8ff" points="273.5,-614.19 277,-624.19 280.5,-614.19 273.5,-614.19"/>
</a>
</g>
</g>
<!-- Node8 -->
<g id="Node000008" class="node">
<title>Node8</title>
<g id="a_Node000008"><a xlink:href="structnlohmann_1_1json__schema_1_1root__schema_1_1schema__file.html" target="_top" xlink:title=" ">
<polygon fill="white" stroke="none" points="348.12,-399.25 205.88,-399.25 205.88,-365.75 348.12,-365.75 348.12,-399.25"/>
<text xml:space="preserve" text-anchor="start" x="209.88" y="-385.75" font-family="Helvetica,sans-Serif" font-size="10.00">nlohmann::json_schema</text>
<text xml:space="preserve" text-anchor="start" x="209.88" y="-373" font-family="Helvetica,sans-Serif" font-size="10.00">::root_schema::schema_file</text>
<polygon fill="none" stroke="#666666" points="205.88,-365.75 205.88,-399.25 348.12,-399.25 348.12,-365.75 205.88,-365.75"/>
</a>
</g>
</g>
<!-- Node8&#45;&gt;Node5 -->
<g id="edge7_Node000005_Node000008" class="edge">
<title>Node8&#45;&gt;Node5</title>
<g id="a_edge7_Node000005_Node000008"><a xlink:title=" ">
<path fill="none" stroke="#63b8ff" d="M259.02,-365.79C244.47,-353.07 223.54,-334.78 205.74,-319.23"/>
<polygon fill="none" stroke="#63b8ff" points="205.95,-319.41 198.8,-318.48 196.91,-311.52 204.06,-312.45 205.95,-319.41"/>
</a>
</g>
<text xml:space="preserve" text-anchor="start" x="239.61" y="-335.25" font-family="Helvetica,sans-Serif" font-size="10.00" fill="grey">+elements</text>
</g>
<!-- Node9&#45;&gt;Node8 -->
<g id="edge8_Node000008_Node000009" class="edge">
<title>Node9&#45;&gt;Node8</title>
<g id="a_edge8_Node000008_Node000009"><a xlink:title=" ">
<path fill="none" stroke="#63b8ff" d="M277,-460.41C277,-447.16 277,-427.85 277,-411.9"/>
<polygon fill="none" stroke="#63b8ff" points="277,-411.88 273,-405.88 277,-399.88 281,-405.88 277,-411.88"/>
</a>
</g>
<text xml:space="preserve" text-anchor="start" x="280" y="-423.5" font-family="Helvetica,sans-Serif" font-size="10.00" fill="grey">+schemas</text>
</g>
<!-- Node10&#45;&gt;Node8 -->
<g id="edge11_Node000008_Node000010" class="edge">
<title>Node10&#45;&gt;Node8</title>
<g id="a_edge11_Node000008_Node000010"><a xlink:title=" ">
<path fill="none" stroke="#63b8ff" d="M402.74,-454.05C383.74,-442.89 360.22,-429.21 339,-417.25 332.08,-413.35 324.68,-409.26 317.5,-405.33"/>
<polygon fill="none" stroke="#63b8ff" points="317.44,-405.29 310.26,-405.94 306.91,-399.55 314.09,-398.91 317.44,-405.29"/>
</a>
</g>
<text xml:space="preserve" text-anchor="start" x="372.69" y="-423.5" font-family="Helvetica,sans-Serif" font-size="10.00" fill="grey">+unresolved</text>
</g>
<!-- Node11 -->
<g id="Node000011" class="node">
<title>Node11</title>
<g id="a_Node000011"><a xlink:title=" ">
<polygon fill="white" stroke="none" points="505.12,-588.5 374.88,-588.5 374.88,-555 505.12,-555 505.12,-588.5"/>
<text xml:space="preserve" text-anchor="start" x="378.88" y="-575" font-family="Helvetica,sans-Serif" font-size="10.00">std::shared_ptr&lt; schema</text>
<text xml:space="preserve" text-anchor="start" x="425" y="-562.25" font-family="Helvetica,sans-Serif" font-size="10.00">_ref &gt;</text>
<polygon fill="none" stroke="#666666" points="374.88,-555 374.88,-588.5 505.12,-588.5 505.12,-555 374.88,-555"/>
</a>
</g>
</g>
<!-- Node11&#45;&gt;Node10 -->
<g id="edge13_Node000010_Node000011" class="edge">
<title>Node11&#45;&gt;Node10</title>
<g id="a_edge13_Node000010_Node000011"><a xlink:title=" ">
<path fill="none" stroke="#63b8ff" d="M440,-555.04C440,-543.5 440,-527.37 440,-512.86"/>
<polygon fill="none" stroke="#63b8ff" points="440,-513.08 436,-507.08 440,-501.08 444,-507.08 440,-513.08"/>
</a>
</g>
<text xml:space="preserve" text-anchor="start" x="443" y="-524.5" font-family="Helvetica,sans-Serif" font-size="10.00" fill="grey">+elements</text>
</g>
</g>
</svg>
