<?xml version="1.0" encoding="UTF-8" standalone="no"?>
<!DOCTYPE svg PUBLIC "-//W3C//DTD SVG 1.1//EN"
 "http://www.w3.org/Graphics/SVG/1.1/DTD/svg11.dtd">
<!-- Generated by graphviz version 14.1.2 (0)
 -->
<!-- Title: inja::Renderer::eval_expression_list Pages: 1 -->
<svg width="267pt" height="185pt"
 viewBox="0.00 0.00 267.00 185.00" xmlns="http://www.w3.org/2000/svg" xmlns:xlink="http://www.w3.org/1999/xlink">
<g id="graph0" class="graph" transform="scale(1 1) rotate(0) translate(4 180.75)">
<title>inja::Renderer::eval_expression_list</title>
<!-- Node1 -->
<g id="Node000001" class="node">
<title>Node1</title>
<g id="a_Node000001"><a xlink:title=" ">
<polygon fill="#999999" stroke="#666666" points="258.5,-105.12 147.25,-105.12 147.25,-71.62 258.5,-71.62 258.5,-105.12"/>
<text xml:space="preserve" text-anchor="start" x="155.25" y="-91.62" font-family="Helvetica,sans-Serif" font-size="10.00">inja::Renderer::eval</text>
<text xml:space="preserve" text-anchor="middle" x="202.88" y="-78.88" font-family="Helvetica,sans-Serif" font-size="10.00">_expression_list</text>
</a>
</g>
</g>
<!-- Node2 -->
<g id="Node000002" class="node">
<title>Node2</title>
<g id="a_Node000002"><a xlink:href="classinja_1_1Renderer.html#a19afdf618cdc320d4387906208cdabe4" target="_top" xlink:title=" ">
<polygon fill="white" stroke="#666666" points="111.25,-176.75 0,-176.75 0,-156 111.25,-156 111.25,-176.75"/>
<text xml:space="preserve" text-anchor="middle" x="55.62" y="-163.25" font-family="Helvetica,sans-Serif" font-size="10.00">inja::Renderer::visit</text>
</a>
</g>
</g>
<!-- Node1&#45;&gt;Node2 -->
<g id="edge1_Node000001_Node000002" class="edge">
<title>Node1&#45;&gt;Node2</title>
<g id="a_edge1_Node000001_Node000002"><a xlink:title=" ">
<path fill="none" stroke="#63b8ff" d="M169.13,-111.79C152.34,-123.16 131.26,-136.46 111.25,-146.38 104.46,-149.74 96.96,-152.85 89.75,-155.56"/>
<polygon fill="#63b8ff" stroke="#63b8ff" points="170.97,-114.77 177.23,-106.22 167.01,-109 170.97,-114.77"/>
</a>
</g>
</g>
<!-- Node3 -->
<g id="Node000003" class="node">
<title>Node3</title>
<g id="a_Node000003"><a xlink:href="classinja_1_1Renderer.html#abcbf6282e8229df9163c06687d57a5d1" target="_top" xlink:title=" ">
<polygon fill="white" stroke="#666666" points="111.25,-137.75 0,-137.75 0,-117 111.25,-117 111.25,-137.75"/>
<text xml:space="preserve" text-anchor="middle" x="55.62" y="-124.25" font-family="Helvetica,sans-Serif" font-size="10.00">inja::Renderer::visit</text>
</a>
</g>
</g>
<!-- Node1&#45;&gt;Node3 -->
<g id="edge2_Node000001_Node000003" class="edge">
<title>Node1&#45;&gt;Node3</title>
<g id="a_edge2_Node000001_Node000003"><a xlink:title=" ">
<path fill="none" stroke="#63b8ff" d="M135.95,-106.08C122.72,-109.63 109.18,-113.26 97.12,-116.5"/>
<polygon fill="#63b8ff" stroke="#63b8ff" points="136.75,-109.49 145.5,-103.51 134.93,-102.72 136.75,-109.49"/>
</a>
</g>
</g>
<!-- Node4 -->
<g id="Node000004" class="node">
<title>Node4</title>
<g id="a_Node000004"><a xlink:href="classinja_1_1Renderer.html#aeea5720f92af93c088719a981769db3b" target="_top" xlink:title=" ">
<polygon fill="white" stroke="#666666" points="111.25,-98.75 0,-98.75 0,-78 111.25,-78 111.25,-98.75"/>
<text xml:space="preserve" text-anchor="middle" x="55.62" y="-85.25" font-family="Helvetica,sans-Serif" font-size="10.00">inja::Renderer::visit</text>
</a>
</g>
</g>
<!-- Node1&#45;&gt;Node4 -->
<g id="edge3_Node000001_Node000004" class="edge">
<title>Node1&#45;&gt;Node4</title>
<g id="a_edge3_Node000001_Node000004"><a xlink:title=" ">
<path fill="none" stroke="#63b8ff" d="M135.69,-88.38C127.64,-88.38 119.48,-88.38 111.62,-88.38"/>
<polygon fill="#63b8ff" stroke="#63b8ff" points="135.45,-91.88 145.45,-88.38 135.45,-84.88 135.45,-91.88"/>
</a>
</g>
</g>
<!-- Node5 -->
<g id="Node000005" class="node">
<title>Node5</title>
<g id="a_Node000005"><a xlink:href="classinja_1_1Renderer.html#ac3e86b9ee2504155fddc1cf3d64f7398" target="_top" xlink:title=" ">
<polygon fill="white" stroke="#666666" points="111.25,-59.75 0,-59.75 0,-39 111.25,-39 111.25,-59.75"/>
<text xml:space="preserve" text-anchor="middle" x="55.62" y="-46.25" font-family="Helvetica,sans-Serif" font-size="10.00">inja::Renderer::visit</text>
</a>
</g>
</g>
<!-- Node1&#45;&gt;Node5 -->
<g id="edge4_Node000001_Node000005" class="edge">
<title>Node1&#45;&gt;Node5</title>
<g id="a_edge4_Node000001_Node000005"><a xlink:title=" ">
<path fill="none" stroke="#63b8ff" d="M135.95,-70.67C122.72,-67.12 109.18,-63.49 97.12,-60.25"/>
<polygon fill="#63b8ff" stroke="#63b8ff" points="134.93,-74.03 145.5,-73.24 136.75,-67.26 134.93,-74.03"/>
</a>
</g>
</g>
<!-- Node6 -->
<g id="Node000006" class="node">
<title>Node6</title>
<g id="a_Node000006"><a xlink:href="classinja_1_1Renderer.html#a95814879e559a673bfb01c5e80abdabf" target="_top" xlink:title=" ">
<polygon fill="white" stroke="#666666" points="111.25,-20.75 0,-20.75 0,0 111.25,0 111.25,-20.75"/>
<text xml:space="preserve" text-anchor="middle" x="55.62" y="-7.25" font-family="Helvetica,sans-Serif" font-size="10.00">inja::Renderer::visit</text>
</a>
</g>
</g>
<!-- Node1&#45;&gt;Node6 -->
<g id="edge5_Node000001_Node000006" class="edge">
<title>Node1&#45;&gt;Node6</title>
<g id="a_edge5_Node000001_Node000006"><a xlink:title=" ">
<path fill="none" stroke="#63b8ff" d="M169.13,-64.96C152.34,-53.59 131.26,-40.29 111.25,-30.38 104.46,-27.01 96.96,-23.9 89.75,-21.19"/>
<polygon fill="#63b8ff" stroke="#63b8ff" points="167.01,-67.75 177.23,-70.53 170.97,-61.98 167.01,-67.75"/>
</a>
</g>
</g>
</g>
</svg>
