<?xml version="1.0" encoding="UTF-8" standalone="no"?>
<!DOCTYPE svg PUBLIC "-//W3C//DTD SVG 1.1//EN"
 "http://www.w3.org/Graphics/SVG/1.1/DTD/svg11.dtd">
<!-- Generated by graphviz version 14.1.2 (0)
 -->
<!-- Title: mqtt::mqttstore::lib::anonymous_namespace{StoragePlan.cpp}::ProjectionValidationErrorHandler Pages: 1 -->
<svg width="297pt" height="314pt"
 viewBox="0.00 0.00 297.00 314.00" xmlns="http://www.w3.org/2000/svg" xmlns:xlink="http://www.w3.org/1999/xlink">
<g id="graph0" class="graph" transform="scale(1 1) rotate(0) translate(4 310)">
<title>mqtt::mqttstore::lib::anonymous_namespace{StoragePlan.cpp}::ProjectionValidationErrorHandler</title>
<!-- Node1 -->
<g id="Node000001" class="node">
<title>Node1</title>
<g id="a_Node000001"><a xlink:title=" ">
<polygon fill="#999999" stroke="none" points="153.5,-59 0,-59 0,0 153.5,0 153.5,-59"/>
<text xml:space="preserve" text-anchor="start" x="4" y="-45.5" font-family="Helvetica,sans-Serif" font-size="10.00">mqtt::mqttstore::lib</text>
<text xml:space="preserve" text-anchor="start" x="4" y="-32.75" font-family="Helvetica,sans-Serif" font-size="10.00">::anonymous_namespace</text>
<text xml:space="preserve" text-anchor="start" x="4" y="-20" font-family="Helvetica,sans-Serif" font-size="10.00">{StoragePlan.cpp}::Projection</text>
<text xml:space="preserve" text-anchor="start" x="21.25" y="-7.25" font-family="Helvetica,sans-Serif" font-size="10.00">ValidationErrorHandler</text>
<polygon fill="none" stroke="#666666" points="0,0 0,-59 153.5,-59 153.5,0 0,0"/>
</a>
</g>
</g>
<!-- Node2 -->
<g id="Node000002" class="node">
<title>Node2</title>
<g id="a_Node000002"><a xlink:href="classnlohmann_1_1json__schema_1_1basic__error__handler.html" target="_top" xlink:title=" ">
<polygon fill="white" stroke="none" points="140,-147.25 13.5,-147.25 13.5,-113.75 140,-113.75 140,-147.25"/>
<text xml:space="preserve" text-anchor="start" x="17.5" y="-133.75" font-family="Helvetica,sans-Serif" font-size="10.00">nlohmann::json_schema</text>
<text xml:space="preserve" text-anchor="start" x="25.75" y="-121" font-family="Helvetica,sans-Serif" font-size="10.00">::basic_error_handler</text>
<polygon fill="none" stroke="#666666" points="13.5,-113.75 13.5,-147.25 140,-147.25 140,-113.75 13.5,-113.75"/>
</a>
</g>
</g>
<!-- Node2&#45;&gt;Node1 -->
<g id="edge1_Node000001_Node000002" class="edge">
<title>Node2&#45;&gt;Node1</title>
<g id="a_edge1_Node000001_Node000002"><a xlink:title=" ">
<path fill="none" stroke="#63b8ff" d="M70.69,-102.91C69.8,-89.22 69.77,-72.51 70.59,-58.6"/>
<polygon fill="none" stroke="#63b8ff" points="67.17,-102.88 71.55,-112.52 74.14,-102.25 67.17,-102.88"/>
</a>
</g>
</g>
<!-- Node2&#45;&gt;Node1 -->
<g id="edge3_Node000001_Node000002" class="edge">
<title>Node2&#45;&gt;Node1</title>
<g id="a_edge3_Node000001_Node000002"><a xlink:title=" ">
<path fill="none" stroke="#63b8ff" d="M82.81,-102.91C83.7,-89.22 83.73,-72.51 82.91,-58.6"/>
<polygon fill="none" stroke="#63b8ff" points="79.36,-102.25 81.95,-112.52 86.33,-102.88 79.36,-102.25"/>
</a>
</g>
</g>
<!-- Node3 -->
<g id="Node000003" class="node">
<title>Node3</title>
<g id="a_Node000003"><a xlink:href="classnlohmann_1_1json__schema_1_1error__handler.html" target="_top" xlink:title=" ">
<polygon fill="white" stroke="none" points="140,-235.5 13.5,-235.5 13.5,-202 140,-202 140,-235.5"/>
<text xml:space="preserve" text-anchor="start" x="17.5" y="-222" font-family="Helvetica,sans-Serif" font-size="10.00">nlohmann::json_schema</text>
<text xml:space="preserve" text-anchor="start" x="41.12" y="-209.25" font-family="Helvetica,sans-Serif" font-size="10.00">::error_handler</text>
<polygon fill="none" stroke="#666666" points="13.5,-202 13.5,-235.5 140,-235.5 140,-202 13.5,-202"/>
</a>
</g>
</g>
<!-- Node3&#45;&gt;Node2 -->
<g id="edge2_Node000002_Node000003" class="edge">
<title>Node3&#45;&gt;Node2</title>
<g id="a_edge2_Node000002_Node000003"><a xlink:title=" ">
<path fill="none" stroke="#63b8ff" d="M76.75,-191.06C76.75,-176.63 76.75,-159.31 76.75,-147.08"/>
<polygon fill="none" stroke="#63b8ff" points="73.25,-190.82 76.75,-200.82 80.25,-190.82 73.25,-190.82"/>
</a>
</g>
</g>
<!-- Node4 -->
<g id="Node000004" class="node">
<title>Node4</title>
<g id="a_Node000004"><a xlink:title=" ">
<polygon fill="white" stroke="none" points="289.25,-140.88 158.25,-140.88 158.25,-120.12 289.25,-120.12 289.25,-140.88"/>
<text xml:space="preserve" text-anchor="start" x="162.25" y="-127.38" font-family="Helvetica,sans-Serif" font-size="10.00">std::vector&lt; std::string &gt;</text>
<polygon fill="none" stroke="#666666" points="158.25,-120.12 158.25,-140.88 289.25,-140.88 289.25,-120.12 158.25,-120.12"/>
</a>
</g>
</g>
<!-- Node4&#45;&gt;Node1 -->
<g id="edge4_Node000001_Node000004" class="edge">
<title>Node4&#45;&gt;Node1</title>
<g id="a_edge4_Node000001_Node000004"><a xlink:title=" ">
<path fill="none" stroke="#63b8ff" d="M209.92,-120.19C191.61,-107.85 158.26,-85.4 129.52,-66.04"/>
<polygon fill="none" stroke="#63b8ff" points="129.48,-66.01 122.27,-65.98 119.52,-59.31 126.74,-59.34 129.48,-66.01"/>
</a>
</g>
<text xml:space="preserve" text-anchor="start" x="175.01" y="-83.25" font-family="Helvetica,sans-Serif" font-size="10.00" fill="grey">&#45;errors</text>
</g>
<!-- Node5 -->
<g id="Node000005" class="node">
<title>Node5</title>
<g id="a_Node000005"><a xlink:title=" ">
<polygon fill="white" stroke="none" points="252.12,-229.12 195.38,-229.12 195.38,-208.38 252.12,-208.38 252.12,-229.12"/>
<text xml:space="preserve" text-anchor="start" x="199.38" y="-215.62" font-family="Helvetica,sans-Serif" font-size="10.00">std::string</text>
<polygon fill="none" stroke="#666666" points="195.38,-208.38 195.38,-229.12 252.12,-229.12 252.12,-208.38 195.38,-208.38"/>
</a>
</g>
</g>
<!-- Node5&#45;&gt;Node4 -->
<g id="edge5_Node000004_Node000005" class="edge">
<title>Node5&#45;&gt;Node4</title>
<g id="a_edge5_Node000004_Node000005"><a xlink:title=" ">
<path fill="none" stroke="#63b8ff" d="M223.75,-208.52C223.75,-195.49 223.75,-171.29 223.75,-153.49"/>
<polygon fill="none" stroke="#63b8ff" points="223.75,-153.57 219.75,-147.57 223.75,-141.57 227.75,-147.57 223.75,-153.57"/>
</a>
</g>
<text xml:space="preserve" text-anchor="start" x="226.75" y="-171.5" font-family="Helvetica,sans-Serif" font-size="10.00" fill="grey">+elements</text>
</g>
<!-- Node6 -->
<g id="Node000006" class="node">
<title>Node6</title>
<g id="a_Node000006"><a xlink:title=" ">
<polygon fill="white" stroke="none" points="271.62,-306 175.88,-306 175.88,-272.5 271.62,-272.5 271.62,-306"/>
<text xml:space="preserve" text-anchor="start" x="179.88" y="-292.5" font-family="Helvetica,sans-Serif" font-size="10.00">std::basic_string&lt;</text>
<text xml:space="preserve" text-anchor="start" x="205.38" y="-279.75" font-family="Helvetica,sans-Serif" font-size="10.00"> Char &gt;</text>
<polygon fill="none" stroke="#666666" points="175.88,-272.5 175.88,-306 271.62,-306 271.62,-272.5 175.88,-272.5"/>
</a>
</g>
</g>
<!-- Node6&#45;&gt;Node5 -->
<g id="edge6_Node000005_Node000006" class="edge">
<title>Node6&#45;&gt;Node5</title>
<g id="a_edge6_Node000005_Node000006"><a xlink:title=" ">
<path fill="none" stroke="#63b8ff" d="M223.75,-261.45C223.75,-250.03 223.75,-237.44 223.75,-229.12"/>
<polygon fill="none" stroke="#63b8ff" points="220.25,-261.19 223.75,-271.19 227.25,-261.19 220.25,-261.19"/>
</a>
</g>
</g>
</g>
</svg>
