<?xml version="1.0" encoding="UTF-8" standalone="no"?>
<!DOCTYPE svg PUBLIC "-//W3C//DTD SVG 1.1//EN"
 "http://www.w3.org/Graphics/SVG/1.1/DTD/svg11.dtd">
<!-- Generated by graphviz version 2.42.4 (0)
 -->
<!-- Title: mqtt::bridge::SocketContextFactory::create Pages: 1 -->
<svg width="513pt" height="566pt"
 viewBox="0.00 0.00 513.00 566.00" xmlns="http://www.w3.org/2000/svg" xmlns:xlink="http://www.w3.org/1999/xlink">
<g id="graph0" class="graph" transform="scale(1 1) rotate(0) translate(4 562)">
<title>mqtt::bridge::SocketContextFactory::create</title>
<!-- Node1 -->
<g id="Node000001" class="node">
<title>Node1</title>
<g id="a_Node000001"><a xlink:title=" ">
<polygon fill="#999999" stroke="#666666" points="153,-294 0,-294 0,-264 153,-264 153,-294"/>
<text text-anchor="start" x="8" y="-282" font-family="Helvetica,sans-Serif" font-size="10.00">mqtt::bridge::SocketContext</text>
<text text-anchor="middle" x="76.5" y="-271" font-family="Helvetica,sans-Serif" font-size="10.00">Factory::create</text>
</a>
</g>
</g>
<!-- Node2 -->
<g id="Node000002" class="node">
<title>Node2</title>
<g id="a_Node000002"><a xlink:href="classmqtt_1_1bridge_1_1lib_1_1Mqtt.html#a6e485f1bb766fbeffdd53a23fc3ced4f" target="_top" xlink:title=" ">
<polygon fill="white" stroke="#666666" points="290,-294 189,-294 189,-264 290,-264 290,-294"/>
<text text-anchor="start" x="197" y="-282" font-family="Helvetica,sans-Serif" font-size="10.00">mqtt::bridge::lib::</text>
<text text-anchor="middle" x="239.5" y="-271" font-family="Helvetica,sans-Serif" font-size="10.00">Mqtt::Mqtt</text>
</a>
</g>
</g>
<!-- Node1&#45;&gt;Node2 -->
<g id="edge1_Node000001_Node000002" class="edge">
<title>Node1&#45;&gt;Node2</title>
<g id="a_edge1_Node000001_Node000002"><a xlink:title=" ">
<path fill="none" stroke="#63b8ff" d="M153.29,-279C161.77,-279 170.33,-279 178.58,-279"/>
<polygon fill="#63b8ff" stroke="#63b8ff" points="178.83,-282.5 188.83,-279 178.83,-275.5 178.83,-282.5"/>
</a>
</g>
</g>
<!-- Node3 -->
<g id="Node000003" class="node">
<title>Node3</title>
<g id="a_Node000003"><a xlink:href="classmqtt_1_1bridge_1_1lib_1_1Broker.html#a7ef2ec65092282a8690a4c1f6ddeba8b" target="_top" xlink:title=" ">
<polygon fill="white" stroke="#666666" points="483,-558 348,-558 348,-528 483,-528 483,-558"/>
<text text-anchor="start" x="356" y="-546" font-family="Helvetica,sans-Serif" font-size="10.00">mqtt::bridge::lib::</text>
<text text-anchor="middle" x="415.5" y="-535" font-family="Helvetica,sans-Serif" font-size="10.00">Broker::getCleanSession</text>
</a>
</g>
</g>
<!-- Node2&#45;&gt;Node3 -->
<g id="edge2_Node000002_Node000003" class="edge">
<title>Node2&#45;&gt;Node3</title>
<g id="a_edge2_Node000002_Node000003"><a xlink:title=" ">
<path fill="none" stroke="#63b8ff" d="M241.25,-294.25C244.17,-336.55 258.31,-456.36 326,-519 329.84,-522.56 334.16,-525.6 338.77,-528.19"/>
<polygon fill="#63b8ff" stroke="#63b8ff" points="337.41,-531.43 347.94,-532.66 340.48,-525.13 337.41,-531.43"/>
</a>
</g>
</g>
<!-- Node4 -->
<g id="Node000004" class="node">
<title>Node4</title>
<g id="a_Node000004"><a xlink:href="classmqtt_1_1bridge_1_1lib_1_1Broker.html#a6d2569d96d1c3c9775d3094a57d298e0" target="_top" xlink:title=" ">
<polygon fill="white" stroke="#666666" points="469,-510 362,-510 362,-480 469,-480 469,-510"/>
<text text-anchor="start" x="370" y="-498" font-family="Helvetica,sans-Serif" font-size="10.00">mqtt::bridge::lib::</text>
<text text-anchor="middle" x="415.5" y="-487" font-family="Helvetica,sans-Serif" font-size="10.00">Broker::getClientId</text>
</a>
</g>
</g>
<!-- Node2&#45;&gt;Node4 -->
<g id="edge3_Node000002_Node000004" class="edge">
<title>Node2&#45;&gt;Node4</title>
<g id="a_edge3_Node000002_Node000004"><a xlink:title=" ">
<path fill="none" stroke="#63b8ff" d="M242.74,-294.08C248.94,-330.32 269.75,-422.81 326,-471 333.53,-477.45 342.62,-482.18 352.09,-485.65"/>
<polygon fill="#63b8ff" stroke="#63b8ff" points="351.03,-488.98 361.62,-488.71 353.17,-482.32 351.03,-488.98"/>
</a>
</g>
</g>
<!-- Node5 -->
<g id="Node000005" class="node">
<title>Node5</title>
<g id="a_Node000005"><a xlink:href="classmqtt_1_1bridge_1_1lib_1_1Broker.html#a537a5d925a917be20f784ac106bc7d2e" target="_top" xlink:title=" ">
<polygon fill="white" stroke="#666666" points="475,-462 356,-462 356,-432 475,-432 475,-462"/>
<text text-anchor="start" x="364" y="-450" font-family="Helvetica,sans-Serif" font-size="10.00">mqtt::bridge::lib::</text>
<text text-anchor="middle" x="415.5" y="-439" font-family="Helvetica,sans-Serif" font-size="10.00">Broker::getKeepAlive</text>
</a>
</g>
</g>
<!-- Node2&#45;&gt;Node5 -->
<g id="edge4_Node000002_Node000005" class="edge">
<title>Node2&#45;&gt;Node5</title>
<g id="a_edge4_Node000002_Node000005"><a xlink:title=" ">
<path fill="none" stroke="#63b8ff" d="M245.21,-294.24C255.15,-323.77 281.09,-388.87 326,-423 332.01,-427.57 338.84,-431.27 345.96,-434.27"/>
<polygon fill="#63b8ff" stroke="#63b8ff" points="345.23,-437.73 355.82,-437.93 347.67,-431.17 345.23,-437.73"/>
</a>
</g>
</g>
<!-- Node6 -->
<g id="Node000006" class="node">
<title>Node6</title>
<g id="a_Node000006"><a xlink:href="classmqtt_1_1bridge_1_1lib_1_1Broker.html#a12c314cbad6137819c767bc6ead98d3e" target="_top" xlink:title=" ">
<polygon fill="white" stroke="#666666" points="488.5,-414 342.5,-414 342.5,-384 488.5,-384 488.5,-414"/>
<text text-anchor="start" x="350.5" y="-402" font-family="Helvetica,sans-Serif" font-size="10.00">mqtt::bridge::lib::</text>
<text text-anchor="middle" x="415.5" y="-391" font-family="Helvetica,sans-Serif" font-size="10.00">Broker::getLoopPrevention</text>
</a>
</g>
</g>
<!-- Node2&#45;&gt;Node6 -->
<g id="edge5_Node000002_Node000006" class="edge">
<title>Node2&#45;&gt;Node6</title>
<g id="a_edge5_Node000002_Node000006"><a xlink:title=" ">
<path fill="none" stroke="#63b8ff" d="M249.83,-294.13C263.76,-315.42 292.03,-353.98 326,-375 328.78,-376.72 331.67,-378.31 334.66,-379.8"/>
<polygon fill="#63b8ff" stroke="#63b8ff" points="333.27,-383.01 343.83,-383.92 336.14,-376.63 333.27,-383.01"/>
</a>
</g>
</g>
<!-- Node7 -->
<g id="Node000007" class="node">
<title>Node7</title>
<g id="a_Node000007"><a xlink:href="classmqtt_1_1bridge_1_1lib_1_1Broker.html#a8b0a98fcc637171cc995cee2a8bd5685" target="_top" xlink:title=" ">
<polygon fill="white" stroke="#666666" points="473.5,-366 357.5,-366 357.5,-336 473.5,-336 473.5,-366"/>
<text text-anchor="start" x="365.5" y="-354" font-family="Helvetica,sans-Serif" font-size="10.00">mqtt::bridge::lib::</text>
<text text-anchor="middle" x="415.5" y="-343" font-family="Helvetica,sans-Serif" font-size="10.00">Broker::getPassword</text>
</a>
</g>
</g>
<!-- Node2&#45;&gt;Node7 -->
<g id="edge6_Node000002_Node000007" class="edge">
<title>Node2&#45;&gt;Node7</title>
<g id="a_edge6_Node000002_Node000007"><a xlink:title=" ">
<path fill="none" stroke="#63b8ff" d="M263.67,-294.08C280.44,-304.47 303.94,-317.98 326,-327 332.79,-329.78 340,-332.33 347.26,-334.65"/>
<polygon fill="#63b8ff" stroke="#63b8ff" points="346.57,-338.1 357.16,-337.67 348.61,-331.41 346.57,-338.1"/>
</a>
</g>
</g>
<!-- Node8 -->
<g id="Node000008" class="node">
<title>Node8</title>
<g id="a_Node000008"><a xlink:href="classmqtt_1_1bridge_1_1lib_1_1Broker.html#ad86912ec39c5469f7847a254f9f722ae" target="_top" xlink:title=" ">
<polygon fill="white" stroke="#666666" points="466,-318 365,-318 365,-288 466,-288 466,-318"/>
<text text-anchor="start" x="373" y="-306" font-family="Helvetica,sans-Serif" font-size="10.00">mqtt::bridge::lib::</text>
<text text-anchor="middle" x="415.5" y="-295" font-family="Helvetica,sans-Serif" font-size="10.00">Broker::getPrefix</text>
</a>
</g>
</g>
<!-- Node2&#45;&gt;Node8 -->
<g id="edge7_Node000002_Node000008" class="edge">
<title>Node2&#45;&gt;Node8</title>
<g id="a_edge7_Node000002_Node000008"><a xlink:title=" ">
<path fill="none" stroke="#63b8ff" d="M290.36,-285.88C310.47,-288.65 333.84,-291.87 354.84,-294.77"/>
<polygon fill="#63b8ff" stroke="#63b8ff" points="354.55,-298.26 364.93,-296.16 355.5,-291.33 354.55,-298.26"/>
</a>
</g>
</g>
<!-- Node9 -->
<g id="Node000009" class="node">
<title>Node9</title>
<g id="a_Node000009"><a xlink:href="classmqtt_1_1bridge_1_1lib_1_1Broker.html#a684990f7a76ea49f37375d6f6c6d1ba4" target="_top" xlink:title=" ">
<polygon fill="white" stroke="#666666" points="505,-270 326,-270 326,-240 505,-240 505,-270"/>
<text text-anchor="start" x="334" y="-258" font-family="Helvetica,sans-Serif" font-size="10.00">mqtt::bridge::lib::</text>
<text text-anchor="middle" x="415.5" y="-247" font-family="Helvetica,sans-Serif" font-size="10.00">Broker::getSessionStoreFileName</text>
</a>
</g>
</g>
<!-- Node2&#45;&gt;Node9 -->
<g id="edge8_Node000002_Node000009" class="edge">
<title>Node2&#45;&gt;Node9</title>
<g id="a_edge8_Node000002_Node000009"><a xlink:title=" ">
<path fill="none" stroke="#63b8ff" d="M290.36,-272.12C298.46,-271.01 307.09,-269.82 315.88,-268.6"/>
<polygon fill="#63b8ff" stroke="#63b8ff" points="316.42,-272.06 325.85,-267.23 315.46,-265.13 316.42,-272.06"/>
</a>
</g>
</g>
<!-- Node10 -->
<g id="Node000010" class="node">
<title>Node10</title>
<g id="a_Node000010"><a xlink:href="classmqtt_1_1bridge_1_1lib_1_1Broker.html#a750e20fe14960d3a5944ecb03bf7e269" target="_top" xlink:title=" ">
<polygon fill="white" stroke="#666666" points="475.5,-222 355.5,-222 355.5,-192 475.5,-192 475.5,-222"/>
<text text-anchor="start" x="363.5" y="-210" font-family="Helvetica,sans-Serif" font-size="10.00">mqtt::bridge::lib::</text>
<text text-anchor="middle" x="415.5" y="-199" font-family="Helvetica,sans-Serif" font-size="10.00">Broker::getUsername</text>
</a>
</g>
</g>
<!-- Node2&#45;&gt;Node10 -->
<g id="edge9_Node000002_Node000010" class="edge">
<title>Node2&#45;&gt;Node10</title>
<g id="a_edge9_Node000002_Node000010"><a xlink:title=" ">
<path fill="none" stroke="#63b8ff" d="M263.67,-263.92C280.44,-253.53 303.94,-240.02 326,-231 332.24,-228.45 338.83,-226.09 345.49,-223.92"/>
<polygon fill="#63b8ff" stroke="#63b8ff" points="346.76,-227.19 355.27,-220.88 344.68,-220.51 346.76,-227.19"/>
</a>
</g>
</g>
<!-- Node11 -->
<g id="Node000011" class="node">
<title>Node11</title>
<g id="a_Node000011"><a xlink:href="classmqtt_1_1bridge_1_1lib_1_1Broker.html#a6403697d2031730753912aaaf47cb1f4" target="_top" xlink:title=" ">
<polygon fill="white" stroke="#666666" points="481.5,-174 349.5,-174 349.5,-144 481.5,-144 481.5,-174"/>
<text text-anchor="start" x="357.5" y="-162" font-family="Helvetica,sans-Serif" font-size="10.00">mqtt::bridge::lib::</text>
<text text-anchor="middle" x="415.5" y="-151" font-family="Helvetica,sans-Serif" font-size="10.00">Broker::getWillMessage</text>
</a>
</g>
</g>
<!-- Node2&#45;&gt;Node11 -->
<g id="edge10_Node000002_Node000011" class="edge">
<title>Node2&#45;&gt;Node11</title>
<g id="a_edge10_Node000002_Node000011"><a xlink:title=" ">
<path fill="none" stroke="#63b8ff" d="M249.83,-263.87C263.76,-242.58 292.03,-204.02 326,-183 330.37,-180.3 335.05,-177.89 339.89,-175.75"/>
<polygon fill="#63b8ff" stroke="#63b8ff" points="341.36,-178.93 349.34,-171.97 338.76,-172.43 341.36,-178.93"/>
</a>
</g>
</g>
<!-- Node12 -->
<g id="Node000012" class="node">
<title>Node12</title>
<g id="a_Node000012"><a xlink:href="classmqtt_1_1bridge_1_1lib_1_1Broker.html#ae421318ee7d0d6287cdb43d605277a5b" target="_top" xlink:title=" ">
<polygon fill="white" stroke="#666666" points="469.5,-126 361.5,-126 361.5,-96 469.5,-96 469.5,-126"/>
<text text-anchor="start" x="369.5" y="-114" font-family="Helvetica,sans-Serif" font-size="10.00">mqtt::bridge::lib::</text>
<text text-anchor="middle" x="415.5" y="-103" font-family="Helvetica,sans-Serif" font-size="10.00">Broker::getWillQoS</text>
</a>
</g>
</g>
<!-- Node2&#45;&gt;Node12 -->
<g id="edge11_Node000002_Node000012" class="edge">
<title>Node2&#45;&gt;Node12</title>
<g id="a_edge11_Node000002_Node000012"><a xlink:title=" ">
<path fill="none" stroke="#63b8ff" d="M245.21,-263.76C255.15,-234.23 281.09,-169.13 326,-135 333.62,-129.21 342.54,-124.81 351.73,-121.48"/>
<polygon fill="#63b8ff" stroke="#63b8ff" points="352.92,-124.77 361.37,-118.37 350.77,-118.11 352.92,-124.77"/>
</a>
</g>
</g>
<!-- Node13 -->
<g id="Node000013" class="node">
<title>Node13</title>
<g id="a_Node000013"><a xlink:href="classmqtt_1_1bridge_1_1lib_1_1Broker.html#a41d9b2f5e10294198b45d1e217574f60" target="_top" xlink:title=" ">
<polygon fill="white" stroke="#666666" points="475.5,-78 355.5,-78 355.5,-48 475.5,-48 475.5,-78"/>
<text text-anchor="start" x="363.5" y="-66" font-family="Helvetica,sans-Serif" font-size="10.00">mqtt::bridge::lib::</text>
<text text-anchor="middle" x="415.5" y="-55" font-family="Helvetica,sans-Serif" font-size="10.00">Broker::getWillRetain</text>
</a>
</g>
</g>
<!-- Node2&#45;&gt;Node13 -->
<g id="edge12_Node000002_Node000013" class="edge">
<title>Node2&#45;&gt;Node13</title>
<g id="a_edge12_Node000002_Node000013"><a xlink:title=" ">
<path fill="none" stroke="#63b8ff" d="M242.74,-263.92C248.94,-227.68 269.75,-135.19 326,-87 331.74,-82.09 338.38,-78.17 345.41,-75.05"/>
<polygon fill="#63b8ff" stroke="#63b8ff" points="347.11,-78.14 355.18,-71.27 344.59,-71.62 347.11,-78.14"/>
</a>
</g>
</g>
<!-- Node14 -->
<g id="Node000014" class="node">
<title>Node14</title>
<g id="a_Node000014"><a xlink:href="classmqtt_1_1bridge_1_1lib_1_1Broker.html#a345589d52b437b118f272a50df7b4b7d" target="_top" xlink:title=" ">
<polygon fill="white" stroke="#666666" points="472,-30 359,-30 359,0 472,0 472,-30"/>
<text text-anchor="start" x="367" y="-18" font-family="Helvetica,sans-Serif" font-size="10.00">mqtt::bridge::lib::</text>
<text text-anchor="middle" x="415.5" y="-7" font-family="Helvetica,sans-Serif" font-size="10.00">Broker::getWillTopic</text>
</a>
</g>
</g>
<!-- Node2&#45;&gt;Node14 -->
<g id="edge13_Node000002_Node000014" class="edge">
<title>Node2&#45;&gt;Node14</title>
<g id="a_edge13_Node000002_Node000014"><a xlink:title=" ">
<path fill="none" stroke="#63b8ff" d="M241.25,-263.75C244.17,-221.45 258.31,-101.64 326,-39 332.69,-32.81 340.82,-28.18 349.41,-24.74"/>
<polygon fill="#63b8ff" stroke="#63b8ff" points="350.57,-28.04 358.86,-21.44 348.26,-21.43 350.57,-28.04"/>
</a>
</g>
</g>
</g>
</svg>
