<?xml version="1.0" encoding="UTF-8" standalone="no"?>
<!DOCTYPE svg PUBLIC "-//W3C//DTD SVG 1.1//EN"
 "http://www.w3.org/Graphics/SVG/1.1/DTD/svg11.dtd">
<!-- Generated by graphviz version 2.42.4 (0)
 -->
<!-- Title: nlohmann::json_schema::root_schema::insert_unknown_keyword Pages: 1 -->
<svg width="825pt" height="441pt"
 viewBox="0.00 0.00 825.00 441.28" xmlns="http://www.w3.org/2000/svg" xmlns:xlink="http://www.w3.org/1999/xlink">
<g id="graph0" class="graph" transform="scale(1 1) rotate(0) translate(4 437.28)">
<title>nlohmann::json_schema::root_schema::insert_unknown_keyword</title>
<!-- Node1 -->
<g id="Node000001" class="node">
<title>Node1</title>
<g id="a_Node000001"><a xlink:title=" ">
<polygon fill="#999999" stroke="#666666" points="135,-280.5 0,-280.5 0,-239.5 135,-239.5 135,-280.5"/>
<text text-anchor="start" x="8" y="-268.5" font-family="Helvetica,sans-Serif" font-size="10.00">nlohmann::json_schema</text>
<text text-anchor="start" x="8" y="-257.5" font-family="Helvetica,sans-Serif" font-size="10.00">::root_schema::insert</text>
<text text-anchor="middle" x="67.5" y="-246.5" font-family="Helvetica,sans-Serif" font-size="10.00">_unknown_keyword</text>
</a>
</g>
</g>
<!-- Node1&#45;&gt;Node1 -->
<g id="edge3_Node000001_Node000001" class="edge">
<title>Node1&#45;&gt;Node1</title>
<g id="a_edge3_Node000001_Node000001"><a xlink:title=" ">
<path fill="none" stroke="#63b8ff" d="M36.26,-280.6C32.85,-290.15 43.26,-298.5 67.5,-298.5 82.65,-298.5 92.4,-295.24 96.75,-290.46"/>
<polygon fill="#63b8ff" stroke="#63b8ff" points="100.19,-291.09 98.74,-280.6 93.33,-289.7 100.19,-291.09"/>
</a>
</g>
</g>
<!-- Node2 -->
<g id="Node000002" class="node">
<title>Node2</title>
<g id="a_Node000002"><a xlink:href="classnlohmann_1_1json__uri.html#acef9db8f1ac5317e1f124453d9587938" target="_top" xlink:title=" ">
<polygon fill="white" stroke="#666666" points="476,-326 366,-326 366,-296 476,-296 476,-326"/>
<text text-anchor="start" x="374" y="-314" font-family="Helvetica,sans-Serif" font-size="10.00">nlohmann::json_uri</text>
<text text-anchor="middle" x="421" y="-303" font-family="Helvetica,sans-Serif" font-size="10.00">::append</text>
</a>
</g>
</g>
<!-- Node1&#45;&gt;Node2 -->
<g id="edge1_Node000001_Node000002" class="edge">
<title>Node1&#45;&gt;Node2</title>
<g id="a_edge1_Node000001_Node000002"><a xlink:title=" ">
<path fill="none" stroke="#63b8ff" d="M135.03,-269.65C198.38,-278.84 293.09,-292.59 355.69,-301.67"/>
<polygon fill="#63b8ff" stroke="#63b8ff" points="355.44,-305.17 365.84,-303.14 356.44,-298.24 355.44,-305.17"/>
</a>
</g>
</g>
<!-- Node3 -->
<g id="Node000003" class="node">
<title>Node3</title>
<g id="a_Node000003"><a xlink:href="classnlohmann_1_1json__schema_1_1root__schema.html#a4e3471b8e7c245a72c469b7695d2d327" target="_top" xlink:title=" ">
<polygon fill="white" stroke="#666666" points="671,-369.5 536,-369.5 536,-328.5 671,-328.5 671,-369.5"/>
<text text-anchor="start" x="544" y="-357.5" font-family="Helvetica,sans-Serif" font-size="10.00">nlohmann::json_schema</text>
<text text-anchor="start" x="544" y="-346.5" font-family="Helvetica,sans-Serif" font-size="10.00">::root_schema::get_or</text>
<text text-anchor="middle" x="603.5" y="-335.5" font-family="Helvetica,sans-Serif" font-size="10.00">_create_file</text>
</a>
</g>
</g>
<!-- Node1&#45;&gt;Node3 -->
<g id="edge2_Node000001_Node000003" class="edge">
<title>Node1&#45;&gt;Node3</title>
<g id="a_edge2_Node000001_Node000003"><a xlink:title=" ">
<path fill="none" stroke="#63b8ff" d="M119.64,-280.58C135.9,-286.69 154.06,-293.05 171,-298 245.64,-319.79 264.93,-324.66 342,-335 403.44,-343.24 473.65,-346.68 525.69,-348.08"/>
<polygon fill="#63b8ff" stroke="#63b8ff" points="525.76,-351.59 535.84,-348.34 525.94,-344.59 525.76,-351.59"/>
</a>
</g>
</g>
<!-- Node4 -->
<g id="Node000004" class="node">
<title>Node4</title>
<g id="a_Node000004"><a xlink:href="classnlohmann_1_1json__uri.html#a63674f908919cb2496e772e864be35de" target="_top" xlink:title=" ">
<polygon fill="white" stroke="#666666" points="817,-239 707,-239 707,-209 817,-209 817,-239"/>
<text text-anchor="start" x="715" y="-227" font-family="Helvetica,sans-Serif" font-size="10.00">nlohmann::json_uri</text>
<text text-anchor="middle" x="762" y="-216" font-family="Helvetica,sans-Serif" font-size="10.00">::location</text>
</a>
</g>
</g>
<!-- Node1&#45;&gt;Node4 -->
<g id="edge4_Node000001_Node000004" class="edge">
<title>Node1&#45;&gt;Node4</title>
<g id="a_edge4_Node000001_Node000004"><a xlink:title=" ">
<path fill="none" stroke="#63b8ff" d="M93.39,-280.57C113.2,-295.82 142.27,-315.83 171,-327 379.25,-407.92 477.37,-490.47 671,-379 719.84,-350.88 744.62,-284.96 754.94,-248.81"/>
<polygon fill="#63b8ff" stroke="#63b8ff" points="758.35,-249.6 757.58,-239.04 751.59,-247.78 758.35,-249.6"/>
</a>
</g>
</g>
<!-- Node5 -->
<g id="Node000005" class="node">
<title>Node5</title>
<g id="a_Node000005"><a xlink:href="classanonymous__namespace_02json-validator_8cpp_03_1_1schema.html#aafee860997369c77204d5b1a7d095c3f" target="_top" xlink:title=" ">
<polygon fill="white" stroke="#666666" points="306,-229.5 171,-229.5 171,-188.5 306,-188.5 306,-229.5"/>
<text text-anchor="start" x="179" y="-217.5" font-family="Helvetica,sans-Serif" font-size="10.00">anonymous_namespace</text>
<text text-anchor="start" x="179" y="-206.5" font-family="Helvetica,sans-Serif" font-size="10.00">{json&#45;validator::cpp}</text>
<text text-anchor="middle" x="238.5" y="-195.5" font-family="Helvetica,sans-Serif" font-size="10.00">::schema::make</text>
</a>
</g>
</g>
<!-- Node1&#45;&gt;Node5 -->
<g id="edge5_Node000001_Node000005" class="edge">
<title>Node1&#45;&gt;Node5</title>
<g id="a_edge5_Node000001_Node000005"><a xlink:title=" ">
<path fill="none" stroke="#63b8ff" d="M116.48,-239.37C130.33,-234.71 145.79,-229.85 160.92,-225.39"/>
<polygon fill="#63b8ff" stroke="#63b8ff" points="162.17,-228.67 170.79,-222.52 160.21,-221.95 162.17,-228.67"/>
</a>
</g>
</g>
<!-- Node10 -->
<g id="Node000010" class="node">
<title>Node10</title>
<g id="a_Node000010"><a xlink:href="classnlohmann_1_1json__uri.html#ab01bdcb8bf65ee07703d1ccb69c9f3ee" target="_top" xlink:title=" ">
<polygon fill="white" stroke="#666666" points="658.5,-30 548.5,-30 548.5,0 658.5,0 658.5,-30"/>
<text text-anchor="start" x="556.5" y="-18" font-family="Helvetica,sans-Serif" font-size="10.00">nlohmann::json_uri</text>
<text text-anchor="middle" x="603.5" y="-7" font-family="Helvetica,sans-Serif" font-size="10.00">::pointer</text>
</a>
</g>
</g>
<!-- Node1&#45;&gt;Node10 -->
<g id="edge27_Node000001_Node000010" class="edge">
<title>Node1&#45;&gt;Node10</title>
<g id="a_edge27_Node000001_Node000010"><a xlink:title=" ">
<path fill="none" stroke="#63b8ff" d="M85.33,-239.23C124.54,-192.58 227.39,-80 342,-34 405.26,-8.61 484.04,-6.49 538.31,-9.06"/>
<polygon fill="#63b8ff" stroke="#63b8ff" points="538.31,-12.56 548.48,-9.61 538.69,-5.57 538.31,-12.56"/>
</a>
</g>
</g>
<!-- Node5&#45;&gt;Node1 -->
<g id="edge23_Node000005_Node000001" class="edge">
<title>Node5&#45;&gt;Node1</title>
<g id="a_edge23_Node000005_Node000001"><a xlink:title=" ">
<path fill="none" stroke="#63b8ff" d="M189.68,-229.58C175.82,-234.24 160.33,-239.11 145.18,-243.58"/>
<polygon fill="#63b8ff" stroke="#63b8ff" points="143.92,-240.31 135.29,-246.46 145.87,-247.03 143.92,-240.31"/>
</a>
</g>
</g>
<!-- Node5&#45;&gt;Node2 -->
<g id="edge6_Node000005_Node000002" class="edge">
<title>Node5&#45;&gt;Node2</title>
<g id="a_edge6_Node000005_Node000002"><a xlink:title=" ">
<path fill="none" stroke="#63b8ff" d="M261.93,-229.82C281.7,-247.21 311.96,-271.57 342,-287 346.53,-289.33 351.33,-291.47 356.23,-293.45"/>
<polygon fill="#63b8ff" stroke="#63b8ff" points="355.14,-296.78 365.73,-297.02 357.6,-290.22 355.14,-296.78"/>
</a>
</g>
</g>
<!-- Node5&#45;&gt;Node5 -->
<g id="edge24_Node000005_Node000005" class="edge">
<title>Node5&#45;&gt;Node5</title>
<g id="a_edge24_Node000005_Node000005"><a xlink:title=" ">
<path fill="none" stroke="#63b8ff" d="M207.26,-229.6C203.85,-239.15 214.26,-247.5 238.5,-247.5 253.65,-247.5 263.4,-244.24 267.75,-239.46"/>
<polygon fill="#63b8ff" stroke="#63b8ff" points="271.19,-240.09 269.74,-229.6 264.33,-238.7 271.19,-240.09"/>
</a>
</g>
</g>
<!-- Node6 -->
<g id="Node000006" class="node">
<title>Node6</title>
<g id="a_Node000006"><a xlink:href="classnlohmann_1_1json__uri.html#ab601a9e32d487e9484f12c57ec1befc1" target="_top" xlink:title=" ">
<polygon fill="white" stroke="#666666" points="476,-73 366,-73 366,-43 476,-43 476,-73"/>
<text text-anchor="start" x="374" y="-61" font-family="Helvetica,sans-Serif" font-size="10.00">nlohmann::json_uri</text>
<text text-anchor="middle" x="421" y="-50" font-family="Helvetica,sans-Serif" font-size="10.00">::derive</text>
</a>
</g>
</g>
<!-- Node5&#45;&gt;Node6 -->
<g id="edge7_Node000005_Node000006" class="edge">
<title>Node5&#45;&gt;Node6</title>
<g id="a_edge7_Node000005_Node000006"><a xlink:title=" ">
<path fill="none" stroke="#63b8ff" d="M251.91,-188.46C269.06,-161.66 302.43,-114.89 342,-87 347.11,-83.39 352.73,-80.18 358.53,-77.33"/>
<polygon fill="#63b8ff" stroke="#63b8ff" points="360.1,-80.46 367.76,-73.13 357.21,-74.08 360.1,-80.46"/>
</a>
</g>
</g>
<!-- Node8 -->
<g id="Node000008" class="node">
<title>Node8</title>
<g id="a_Node000008"><a xlink:href="classnlohmann_1_1json__schema_1_1root__schema.html#a7e890c03f941280b76fbdb4d5bb73065" target="_top" xlink:title=" ">
<polygon fill="white" stroke="#666666" points="488.5,-170.5 353.5,-170.5 353.5,-129.5 488.5,-129.5 488.5,-170.5"/>
<text text-anchor="start" x="361.5" y="-158.5" font-family="Helvetica,sans-Serif" font-size="10.00">nlohmann::json_schema</text>
<text text-anchor="start" x="361.5" y="-147.5" font-family="Helvetica,sans-Serif" font-size="10.00">::root_schema::get_or</text>
<text text-anchor="middle" x="421" y="-136.5" font-family="Helvetica,sans-Serif" font-size="10.00">_create_ref</text>
</a>
</g>
</g>
<!-- Node5&#45;&gt;Node8 -->
<g id="edge9_Node000005_Node000008" class="edge">
<title>Node5&#45;&gt;Node8</title>
<g id="a_edge9_Node000005_Node000008"><a xlink:title=" ">
<path fill="none" stroke="#63b8ff" d="M284.58,-188.33C302.44,-181.79 323.48,-174.66 343.57,-168.3"/>
<polygon fill="#63b8ff" stroke="#63b8ff" points="344.85,-171.57 353.35,-165.25 342.76,-164.89 344.85,-171.57"/>
</a>
</g>
</g>
<!-- Node11 -->
<g id="Node000011" class="node">
<title>Node11</title>
<g id="a_Node000011"><a xlink:href="classnlohmann_1_1json__uri.html#a416eb06b53676b215761f43200da309f" target="_top" xlink:title=" ">
<polygon fill="white" stroke="#666666" points="658.5,-164 548.5,-164 548.5,-134 658.5,-134 658.5,-164"/>
<text text-anchor="start" x="556.5" y="-152" font-family="Helvetica,sans-Serif" font-size="10.00">nlohmann::json_uri</text>
<text text-anchor="middle" x="603.5" y="-141" font-family="Helvetica,sans-Serif" font-size="10.00">::to_string</text>
</a>
</g>
</g>
<!-- Node5&#45;&gt;Node11 -->
<g id="edge26_Node000005_Node000011" class="edge">
<title>Node5&#45;&gt;Node11</title>
<g id="a_edge26_Node000005_Node000011"><a xlink:title=" ">
<path fill="none" stroke="#63b8ff" d="M255.72,-188.25C274.01,-166.72 305.93,-134.36 342,-121 412.07,-95.05 499.48,-113.93 553.12,-130.8"/>
<polygon fill="#63b8ff" stroke="#63b8ff" points="552.14,-134.16 562.74,-133.91 554.3,-127.5 552.14,-134.16"/>
</a>
</g>
</g>
<!-- Node12 -->
<g id="Node000012" class="node">
<title>Node12</title>
<g id="a_Node000012"><a xlink:href="classnlohmann_1_1json__schema_1_1root__schema.html#a685904131f0693e56f14a9e9db5f044e" target="_top" xlink:title=" ">
<polygon fill="white" stroke="#666666" points="488.5,-278 353.5,-278 353.5,-248 488.5,-248 488.5,-278"/>
<text text-anchor="start" x="361.5" y="-266" font-family="Helvetica,sans-Serif" font-size="10.00">nlohmann::json_schema</text>
<text text-anchor="middle" x="421" y="-255" font-family="Helvetica,sans-Serif" font-size="10.00">::root_schema::insert</text>
</a>
</g>
</g>
<!-- Node5&#45;&gt;Node12 -->
<g id="edge17_Node000005_Node000012" class="edge">
<title>Node5&#45;&gt;Node12</title>
<g id="a_edge17_Node000005_Node000012"><a xlink:title=" ">
<path fill="none" stroke="#63b8ff" d="M306.2,-228.95C323.74,-234.2 342.57,-239.83 359.75,-244.98"/>
<polygon fill="#63b8ff" stroke="#63b8ff" points="359.07,-248.43 369.66,-247.94 361.08,-241.72 359.07,-248.43"/>
</a>
</g>
</g>
<!-- Node14 -->
<g id="Node000014" class="node">
<title>Node14</title>
<g id="a_Node000014"><a xlink:href="classanonymous__namespace_02json-validator_8cpp_03_1_1schema.html#a6ba2d224dd0a4372ac03f679de8316bd" target="_top" xlink:title=" ">
<polygon fill="white" stroke="#666666" points="500,-229.5 342,-229.5 342,-188.5 500,-188.5 500,-229.5"/>
<text text-anchor="start" x="350" y="-217.5" font-family="Helvetica,sans-Serif" font-size="10.00">anonymous_namespace</text>
<text text-anchor="start" x="350" y="-206.5" font-family="Helvetica,sans-Serif" font-size="10.00">{json&#45;validator::cpp}</text>
<text text-anchor="middle" x="421" y="-195.5" font-family="Helvetica,sans-Serif" font-size="10.00">::schema::make_for_default_</text>
</a>
</g>
</g>
<!-- Node5&#45;&gt;Node14 -->
<g id="edge25_Node000005_Node000014" class="edge">
<title>Node5&#45;&gt;Node14</title>
<g id="a_edge25_Node000005_Node000014"><a xlink:title=" ">
<path fill="none" stroke="#63b8ff" d="M306.2,-209C314.57,-209 323.24,-209 331.87,-209"/>
<polygon fill="#63b8ff" stroke="#63b8ff" points="331.98,-212.5 341.98,-209 331.98,-205.5 331.98,-212.5"/>
</a>
</g>
</g>
<!-- Node7 -->
<g id="Node000007" class="node">
<title>Node7</title>
<g id="a_Node000007"><a xlink:href="classnlohmann_1_1json__uri.html#a6a73807e46532b22e02ae6602cdedcdc" target="_top" xlink:title=" ">
<polygon fill="white" stroke="#666666" points="658.5,-78 548.5,-78 548.5,-48 658.5,-48 658.5,-78"/>
<text text-anchor="start" x="556.5" y="-66" font-family="Helvetica,sans-Serif" font-size="10.00">nlohmann::json_uri</text>
<text text-anchor="middle" x="603.5" y="-55" font-family="Helvetica,sans-Serif" font-size="10.00">::update</text>
</a>
</g>
</g>
<!-- Node6&#45;&gt;Node7 -->
<g id="edge8_Node000006_Node000007" class="edge">
<title>Node6&#45;&gt;Node7</title>
<g id="a_edge8_Node000006_Node000007"><a xlink:title=" ">
<path fill="none" stroke="#63b8ff" d="M476.16,-59.5C495.7,-60.04 517.95,-60.66 538.27,-61.22"/>
<polygon fill="#63b8ff" stroke="#63b8ff" points="538.29,-64.72 548.38,-61.5 538.48,-57.73 538.29,-64.72"/>
</a>
</g>
</g>
<!-- Node8&#45;&gt;Node3 -->
<g id="edge11_Node000008_Node000003" class="edge">
<title>Node8&#45;&gt;Node3</title>
<g id="a_edge11_Node000008_Node000003"><a xlink:title=" ">
<path fill="none" stroke="#63b8ff" d="M488.47,-170.59C492.65,-173.35 496.56,-176.47 500,-180 533.28,-214.11 510.75,-240.58 536,-281 545.27,-295.85 558.27,-310.06 570.31,-321.61"/>
<polygon fill="#63b8ff" stroke="#63b8ff" points="567.95,-324.19 577.65,-328.44 572.72,-319.07 567.95,-324.19"/>
</a>
</g>
</g>
<!-- Node8&#45;&gt;Node4 -->
<g id="edge12_Node000008_Node000004" class="edge">
<title>Node8&#45;&gt;Node4</title>
<g id="a_edge12_Node000008_Node000004"><a xlink:title=" ">
<path fill="none" stroke="#63b8ff" d="M476.43,-129.45C528.59,-113.16 608.42,-97.32 671,-125 705.47,-140.25 732.4,-175.94 747.5,-200.04"/>
<polygon fill="#63b8ff" stroke="#63b8ff" points="744.53,-201.89 752.7,-208.64 750.52,-198.27 744.53,-201.89"/>
</a>
</g>
</g>
<!-- Node8&#45;&gt;Node5 -->
<g id="edge13_Node000008_Node000005" class="edge">
<title>Node8&#45;&gt;Node5</title>
<g id="a_edge13_Node000008_Node000005"><a xlink:title=" ">
<path fill="none" stroke="#63b8ff" d="M375.21,-170.56C357.32,-177.12 336.19,-184.28 316.01,-190.67"/>
<polygon fill="#63b8ff" stroke="#63b8ff" points="314.7,-187.41 306.2,-193.74 316.79,-194.1 314.7,-187.41"/>
</a>
</g>
</g>
<!-- Node9 -->
<g id="Node000009" class="node">
<title>Node9</title>
<g id="a_Node000009"><a xlink:href="classnlohmann_1_1json__uri.html#a21ba5d6a76804eabd867a2d03370c945" target="_top" xlink:title=" ">
<polygon fill="white" stroke="#666666" points="658.5,-212 548.5,-212 548.5,-182 658.5,-182 658.5,-212"/>
<text text-anchor="start" x="556.5" y="-200" font-family="Helvetica,sans-Serif" font-size="10.00">nlohmann::json_uri</text>
<text text-anchor="middle" x="603.5" y="-189" font-family="Helvetica,sans-Serif" font-size="10.00">::fragment</text>
</a>
</g>
</g>
<!-- Node8&#45;&gt;Node9 -->
<g id="edge10_Node000008_Node000009" class="edge">
<title>Node8&#45;&gt;Node9</title>
<g id="a_edge10_Node000008_Node000009"><a xlink:title=" ">
<path fill="none" stroke="#63b8ff" d="M488.7,-167.37C505,-171.61 522.4,-176.14 538.57,-180.35"/>
<polygon fill="#63b8ff" stroke="#63b8ff" points="537.9,-183.79 548.45,-182.93 539.66,-177.02 537.9,-183.79"/>
</a>
</g>
</g>
<!-- Node8&#45;&gt;Node10 -->
<g id="edge14_Node000008_Node000010" class="edge">
<title>Node8&#45;&gt;Node10</title>
<g id="a_edge14_Node000008_Node000010"><a xlink:title=" ">
<path fill="none" stroke="#63b8ff" d="M447.85,-129.22C463.49,-116.22 483.53,-98.81 500,-82 517.45,-64.2 515.57,-53.28 536,-39 538.11,-37.52 540.33,-36.13 542.61,-34.81"/>
<polygon fill="#63b8ff" stroke="#63b8ff" points="544.43,-37.81 551.7,-30.1 541.21,-31.59 544.43,-37.81"/>
</a>
</g>
</g>
<!-- Node8&#45;&gt;Node11 -->
<g id="edge15_Node000008_Node000011" class="edge">
<title>Node8&#45;&gt;Node11</title>
<g id="a_edge15_Node000008_Node000011"><a xlink:title=" ">
<path fill="none" stroke="#63b8ff" d="M488.7,-149.63C504.85,-149.54 522.07,-149.45 538.11,-149.36"/>
<polygon fill="#63b8ff" stroke="#63b8ff" points="538.47,-152.85 548.45,-149.3 538.44,-145.85 538.47,-152.85"/>
</a>
</g>
</g>
<!-- Node11&#45;&gt;Node4 -->
<g id="edge16_Node000011_Node000004" class="edge">
<title>Node11&#45;&gt;Node4</title>
<g id="a_edge16_Node000011_Node000004"><a xlink:title=" ">
<path fill="none" stroke="#63b8ff" d="M649.63,-164.12C656.86,-166.87 664.2,-169.87 671,-173 690.41,-181.93 711.22,-193.57 727.93,-203.48"/>
<polygon fill="#63b8ff" stroke="#63b8ff" points="726.38,-206.63 736.76,-208.78 729.99,-200.63 726.38,-206.63"/>
</a>
</g>
</g>
<!-- Node12&#45;&gt;Node3 -->
<g id="edge19_Node000012_Node000003" class="edge">
<title>Node12&#45;&gt;Node3</title>
<g id="a_edge19_Node000012_Node000003"><a xlink:title=" ">
<path fill="none" stroke="#63b8ff" d="M479.15,-278.06C486.32,-280.68 493.43,-283.66 500,-287 517.82,-296.08 519.1,-303.31 536,-314 541.02,-317.17 546.35,-320.32 551.73,-323.36"/>
<polygon fill="#63b8ff" stroke="#63b8ff" points="550.33,-326.58 560.77,-328.34 553.7,-320.45 550.33,-326.58"/>
</a>
</g>
</g>
<!-- Node12&#45;&gt;Node4 -->
<g id="edge20_Node000012_Node000004" class="edge">
<title>Node12&#45;&gt;Node4</title>
<g id="a_edge20_Node000012_Node000004"><a xlink:title=" ">
<path fill="none" stroke="#63b8ff" d="M478.06,-278.04C529.31,-289.23 606.69,-299.65 671,-281 694.9,-274.07 718.54,-258.68 735.59,-245.63"/>
<polygon fill="#63b8ff" stroke="#63b8ff" points="738.2,-248.03 743.87,-239.09 733.85,-242.54 738.2,-248.03"/>
</a>
</g>
</g>
<!-- Node12&#45;&gt;Node9 -->
<g id="edge18_Node000012_Node000009" class="edge">
<title>Node12&#45;&gt;Node9</title>
<g id="a_edge18_Node000012_Node000009"><a xlink:title=" ">
<path fill="none" stroke="#63b8ff" d="M474.8,-247.88C483.3,-245.12 491.94,-242.12 500,-239 516.5,-232.6 519.71,-228.9 536,-222 540.97,-219.9 546.18,-217.78 551.41,-215.72"/>
<polygon fill="#63b8ff" stroke="#63b8ff" points="552.73,-218.96 560.79,-212.09 550.2,-212.44 552.73,-218.96"/>
</a>
</g>
</g>
<!-- Node12&#45;&gt;Node11 -->
<g id="edge22_Node000012_Node000011" class="edge">
<title>Node12&#45;&gt;Node11</title>
<g id="a_edge22_Node000012_Node000011"><a xlink:title=" ">
<path fill="none" stroke="#63b8ff" d="M486.28,-247.84C491.18,-245.33 495.83,-242.41 500,-239 525.88,-217.86 510.64,-194.75 536,-173 537.5,-171.71 539.08,-170.49 540.72,-169.33"/>
<polygon fill="#63b8ff" stroke="#63b8ff" points="542.62,-172.27 549.32,-164.06 538.96,-166.3 542.62,-172.27"/>
</a>
</g>
</g>
<!-- Node13 -->
<g id="Node000013" class="node">
<title>Node13</title>
<g id="a_Node000013"><a xlink:href="classanonymous__namespace_02json-validator_8cpp_03_1_1schema__ref.html#ae191a0c47357ebad5942fbab77135375" target="_top" xlink:title=" ">
<polygon fill="white" stroke="#666666" points="671,-271.5 536,-271.5 536,-230.5 671,-230.5 671,-271.5"/>
<text text-anchor="start" x="544" y="-259.5" font-family="Helvetica,sans-Serif" font-size="10.00">anonymous_namespace</text>
<text text-anchor="start" x="544" y="-248.5" font-family="Helvetica,sans-Serif" font-size="10.00">{json&#45;validator::cpp}</text>
<text text-anchor="middle" x="603.5" y="-237.5" font-family="Helvetica,sans-Serif" font-size="10.00">::schema_ref::set_target</text>
</a>
</g>
</g>
<!-- Node12&#45;&gt;Node13 -->
<g id="edge21_Node000012_Node000013" class="edge">
<title>Node12&#45;&gt;Node13</title>
<g id="a_edge21_Node000012_Node000013"><a xlink:title=" ">
<path fill="none" stroke="#63b8ff" d="M488.7,-258.57C500.7,-257.77 513.3,-256.93 525.57,-256.11"/>
<polygon fill="#63b8ff" stroke="#63b8ff" points="526.03,-259.59 535.77,-255.44 525.56,-252.61 526.03,-259.59"/>
</a>
</g>
</g>
</g>
</svg>
