<?xml version="1.0" encoding="UTF-8" standalone="no"?>
<!DOCTYPE svg PUBLIC "-//W3C//DTD SVG 1.1//EN"
 "http://www.w3.org/Graphics/SVG/1.1/DTD/svg11.dtd">
<!-- Generated by graphviz version 2.42.4 (0)
 -->
<!-- Title: nlohmann::json_schema::root_schema Pages: 1 -->
<svg width="481pt" height="435pt"
 viewBox="0.00 0.00 481.00 435.00" xmlns="http://www.w3.org/2000/svg" xmlns:xlink="http://www.w3.org/1999/xlink">

<svg id="main" version="1.1" xmlns="http://www.w3.org/2000/svg" xmlns:xlink="http://www.w3.org/1999/xlink" xml:space="preserve" onload="init(evt)">
<style type="text/css"><![CDATA[
.node, .edge {opacity: 0.7;}
.node.selected, .edge.selected {opacity: 1;}
.edge:hover path { stroke: red; }
.edge:hover polygon { stroke: red; fill: red; }
]]></style>
<script type="application/ecmascript" xlink:href="svg.min.js"/>
<svg id="graph" class="graph">
<g id="graph0" class="graph" transform="scale(1 1) rotate(0) translate(4 431)">
<title>nlohmann::json_schema::root_schema</title>
<!-- Node1 -->
<g id="Node000001" class="node">
<title>Node1</title>
<g id="a_Node000001"><a xlink:title=" ">
<polygon fill="#999999" stroke="transparent" points="133,-30 5,-30 5,0 133,0 133,-30"/>
<text text-anchor="start" x="9.5" y="-18" font-family="Helvetica,sans-Serif" font-size="10.00">nlohmann::json_schema</text>
<text text-anchor="start" x="34" y="-7" font-family="Helvetica,sans-Serif" font-size="10.00">::root_schema</text>
<polygon fill="none" stroke="#666666" points="5,0 5,-30 133,-30 133,0 5,0"/>
</a>
</g>
</g>
<!-- Node2 -->
<g id="Node000002" class="node">
<title>Node2</title>
<g id="a_Node000002"><a xlink:title=" ">
<polygon fill="white" stroke="transparent" points="142,-354.5 0,-354.5 0,-335.5 142,-335.5 142,-354.5"/>
<text text-anchor="start" x="4" y="-342" font-family="Helvetica,sans-Serif" font-size="10.00">std::shared_ptr&lt; schema &gt;</text>
<polygon fill="none" stroke="#666666" points="0,-335.5 0,-354.5 142,-354.5 142,-335.5 0,-335.5"/>
</a>
</g>
</g>
<!-- Node2&#45;&gt;Node1 -->
<g id="edge1_Node000001_Node000002" class="edge">
<title>Node2&#45;&gt;Node1</title>
<g id="a_edge1_Node000001_Node000002"><a xlink:title=" ">
<path fill="none" stroke="#63b8ff" d="M67.7,-335.21C62.5,-320.56 53,-290.14 53,-263.5 53,-263.5 53,-263.5 53,-96.5 53,-78.02 57.11,-57.61 61.16,-41.96"/>
<polygon fill="none" stroke="#63b8ff" points="61.25,-41.64 59,-34.79 64.46,-30.08 66.71,-36.93 61.25,-41.64"/>
</a>
</g>
<text text-anchor="middle" x="69" y="-177.5" font-family="Helvetica,sans-Serif" font-size="10.00" fill="grey"> &#45;root_</text>
</g>
<!-- Node7 -->
<g id="Node000007" class="node">
<title>Node7</title>
<g id="a_Node000007"><a xlink:title=" ">
<polygon fill="white" stroke="transparent" points="237,-277.5 81,-277.5 81,-247.5 237,-247.5 237,-277.5"/>
<text text-anchor="start" x="85" y="-265.5" font-family="Helvetica,sans-Serif" font-size="10.00">std::map&lt; std::string,</text>
<text text-anchor="start" x="85" y="-254.5" font-family="Helvetica,sans-Serif" font-size="10.00"> std::shared_ptr&lt; schema &gt; &gt;</text>
<polygon fill="none" stroke="#666666" points="81,-247.5 81,-277.5 237,-277.5 237,-247.5 81,-247.5"/>
</a>
</g>
</g>
<!-- Node2&#45;&gt;Node7 -->
<g id="edge8_Node000007_Node000002" class="edge">
<title>Node2&#45;&gt;Node7</title>
<g id="a_edge8_Node000007_Node000002"><a xlink:title=" ">
<path fill="none" stroke="#63b8ff" d="M80.42,-335.39C93.14,-323.75 116.27,-302.59 134.16,-286.22"/>
<polygon fill="none" stroke="#63b8ff" points="134.6,-285.82 136.33,-278.82 143.46,-277.72 141.73,-284.72 134.6,-285.82"/>
</a>
</g>
<text text-anchor="middle" x="147" y="-304" font-family="Helvetica,sans-Serif" font-size="10.00" fill="grey"> +elements</text>
</g>
<!-- Node3 -->
<g id="Node000003" class="node">
<title>Node3</title>
<g id="a_Node000003"><a xlink:title=" ">
<polygon fill="white" stroke="transparent" points="320,-118 166,-118 166,-77 320,-77 320,-118"/>
<text text-anchor="start" x="170" y="-105.5" font-family="Helvetica,sans-Serif" font-size="10.00">std::map&lt; std::string,</text>
<text text-anchor="start" x="170" y="-94.5" font-family="Helvetica,sans-Serif" font-size="10.00"> nlohmann::json_schema</text>
<text text-anchor="start" x="170" y="-83.5" font-family="Helvetica,sans-Serif" font-size="10.00">::root_schema::schema_file &gt;</text>
<polygon fill="none" stroke="#666666" points="166,-77 166,-118 320,-118 320,-77 166,-77"/>
</a>
</g>
</g>
<!-- Node3&#45;&gt;Node1 -->
<g id="edge2_Node000001_Node000003" class="edge">
<title>Node3&#45;&gt;Node1</title>
<g id="a_edge2_Node000001_Node000003"><a xlink:title=" ">
<path fill="none" stroke="#63b8ff" d="M200.43,-76.81C173.06,-64.14 137.65,-47.76 110.49,-35.19"/>
<polygon fill="none" stroke="#63b8ff" points="110.29,-35.1 103.16,-36.21 99.4,-30.06 106.52,-28.95 110.29,-35.1"/>
</a>
</g>
<text text-anchor="middle" x="179" y="-51" font-family="Helvetica,sans-Serif" font-size="10.00" fill="grey"> &#45;files_</text>
</g>
<!-- Node4 -->
<g id="Node000004" class="node">
<title>Node4</title>
<g id="a_Node000004"><a xlink:title=" ">
<polygon fill="white" stroke="transparent" points="428,-354.5 370,-354.5 370,-335.5 428,-335.5 428,-354.5"/>
<text text-anchor="start" x="374.5" y="-342" font-family="Helvetica,sans-Serif" font-size="10.00">std::string</text>
<polygon fill="none" stroke="#666666" points="370,-335.5 370,-354.5 428,-354.5 428,-335.5 370,-335.5"/>
</a>
</g>
</g>
<!-- Node4&#45;&gt;Node3 -->
<g id="edge3_Node000003_Node000004" class="edge">
<title>Node4&#45;&gt;Node3</title>
<g id="a_edge3_Node000003_Node000004"><a xlink:title=" ">
<path fill="none" stroke="#63b8ff" d="M409.06,-335.32C420.73,-324.48 439.24,-304.7 446,-283 455.49,-252.53 452.02,-236.1 430,-213 392.91,-174.09 339.83,-143.26 299.69,-123.44"/>
<polygon fill="none" stroke="#63b8ff" points="299.55,-123.37 292.4,-124.36 288.74,-118.15 295.88,-117.16 299.55,-123.37"/>
</a>
</g>
<text text-anchor="middle" x="456" y="-216" font-family="Helvetica,sans-Serif" font-size="10.00" fill="grey"> +keys</text>
</g>
<!-- Node4&#45;&gt;Node7 -->
<g id="edge7_Node000007_Node000004" class="edge">
<title>Node4&#45;&gt;Node7</title>
<g id="a_edge7_Node000007_Node000004"><a xlink:title=" ">
<path fill="none" stroke="#63b8ff" d="M385.83,-335.39C370.56,-325.75 344.37,-310.28 320,-301 315.59,-299.32 273.22,-289.47 233.05,-280.29"/>
<polygon fill="none" stroke="#63b8ff" points="232.96,-280.27 226.22,-282.83 221.26,-277.6 228,-275.03 232.96,-280.27"/>
</a>
</g>
<text text-anchor="middle" x="360" y="-304" font-family="Helvetica,sans-Serif" font-size="10.00" fill="grey"> +keys</text>
</g>
<!-- Node8 -->
<g id="Node000008" class="node">
<title>Node8</title>
<g id="a_Node000008"><a xlink:title=" ">
<polygon fill="white" stroke="transparent" points="437,-283 303,-283 303,-242 437,-242 437,-283"/>
<text text-anchor="start" x="307" y="-270.5" font-family="Helvetica,sans-Serif" font-size="10.00">std::map&lt; std::string,</text>
<text text-anchor="start" x="307" y="-259.5" font-family="Helvetica,sans-Serif" font-size="10.00"> std::shared_ptr&lt; schema</text>
<text text-anchor="start" x="349" y="-248.5" font-family="Helvetica,sans-Serif" font-size="10.00">_ref &gt; &gt;</text>
<polygon fill="none" stroke="#666666" points="303,-242 303,-283 437,-283 437,-242 303,-242"/>
</a>
</g>
</g>
<!-- Node4&#45;&gt;Node8 -->
<g id="edge10_Node000008_Node000004" class="edge">
<title>Node4&#45;&gt;Node8</title>
<g id="a_edge10_Node000008_Node000004"><a xlink:title=" ">
<path fill="none" stroke="#63b8ff" d="M395.9,-335.39C392.4,-325.69 386.53,-309.38 381.25,-294.74"/>
<polygon fill="none" stroke="#63b8ff" points="381.1,-294.31 375.3,-290.02 377.03,-283.02 382.83,-287.31 381.1,-294.31"/>
</a>
</g>
<text text-anchor="middle" x="405" y="-304" font-family="Helvetica,sans-Serif" font-size="10.00" fill="grey"> +keys</text>
</g>
<!-- Node5 -->
<g id="Node000005" class="node">
<title>Node5</title>
<g id="a_Node000005"><a xlink:title=" ">
<polygon fill="white" stroke="transparent" points="447,-427 351,-427 351,-397 447,-397 447,-427"/>
<text text-anchor="start" x="355" y="-415" font-family="Helvetica,sans-Serif" font-size="10.00">std::basic_string&lt;</text>
<text text-anchor="start" x="380.5" y="-404" font-family="Helvetica,sans-Serif" font-size="10.00"> Char &gt;</text>
<polygon fill="none" stroke="#666666" points="351,-397 351,-427 447,-427 447,-397 351,-397"/>
</a>
</g>
</g>
<!-- Node5&#45;&gt;Node4 -->
<g id="edge4_Node000004_Node000005" class="edge">
<title>Node5&#45;&gt;Node4</title>
<g id="a_edge4_Node000004_Node000005"><a xlink:title=" ">
<path fill="none" stroke="#63b8ff" d="M399,-386.75C399,-375.52 399,-362.88 399,-354.69"/>
<polygon fill="none" stroke="#63b8ff" points="395.5,-386.9 399,-396.9 402.5,-386.9 395.5,-386.9"/>
</a>
</g>
</g>
<!-- Node6 -->
<g id="Node000006" class="node">
<title>Node6</title>
<g id="a_Node000006"><a xlink:href="structnlohmann_1_1json__schema_1_1root__schema_1_1schema__file.html" target="_top" xlink:title=" ">
<polygon fill="white" stroke="transparent" points="315,-195 171,-195 171,-165 315,-165 315,-195"/>
<text text-anchor="start" x="175.5" y="-183" font-family="Helvetica,sans-Serif" font-size="10.00">nlohmann::json_schema</text>
<text text-anchor="start" x="175.5" y="-172" font-family="Helvetica,sans-Serif" font-size="10.00">::root_schema::schema_file</text>
<polygon fill="none" stroke="#666666" points="171,-165 171,-195 315,-195 315,-165 171,-165"/>
</a>
</g>
</g>
<!-- Node6&#45;&gt;Node3 -->
<g id="edge5_Node000003_Node000006" class="edge">
<title>Node6&#45;&gt;Node3</title>
<g id="a_edge5_Node000003_Node000006"><a xlink:title=" ">
<path fill="none" stroke="#63b8ff" d="M243,-164.98C243,-155.35 243,-142.17 243,-130.09"/>
<polygon fill="none" stroke="#63b8ff" points="243,-130.09 239,-124.09 243,-118.09 247,-124.09 243,-130.09"/>
</a>
</g>
<text text-anchor="middle" x="272" y="-139" font-family="Helvetica,sans-Serif" font-size="10.00" fill="grey"> +elements</text>
</g>
<!-- Node7&#45;&gt;Node6 -->
<g id="edge6_Node000006_Node000007" class="edge">
<title>Node7&#45;&gt;Node6</title>
<g id="a_edge6_Node000006_Node000007"><a xlink:title=" ">
<path fill="none" stroke="#63b8ff" d="M163.35,-247.35C167.16,-236.84 173.58,-222.71 183,-213 187.15,-208.72 191.99,-204.89 197.1,-201.49"/>
<polygon fill="none" stroke="#63b8ff" points="197.49,-201.26 200.6,-194.75 207.8,-195.12 204.69,-201.62 197.49,-201.26"/>
</a>
</g>
<text text-anchor="middle" x="210.5" y="-216" font-family="Helvetica,sans-Serif" font-size="10.00" fill="grey"> +schemas</text>
</g>
<!-- Node8&#45;&gt;Node6 -->
<g id="edge9_Node000006_Node000008" class="edge">
<title>Node8&#45;&gt;Node6</title>
<g id="a_edge9_Node000006_Node000008"><a xlink:title=" ">
<path fill="none" stroke="#63b8ff" d="M366.95,-241.69C364.48,-231.84 360.01,-220.47 352,-213 344.59,-206.09 335.76,-200.66 326.38,-196.4"/>
<polygon fill="none" stroke="#63b8ff" points="326.31,-196.38 319.26,-197.86 315.17,-191.92 322.23,-190.43 326.31,-196.38"/>
</a>
</g>
<text text-anchor="middle" x="393" y="-216" font-family="Helvetica,sans-Serif" font-size="10.00" fill="grey"> +unresolved</text>
</g>
<!-- Node9 -->
<g id="Node000009" class="node">
<title>Node9</title>
<g id="a_Node000009"><a xlink:title=" ">
<polygon fill="white" stroke="transparent" points="327,-360 195,-360 195,-330 327,-330 327,-360"/>
<text text-anchor="start" x="199.5" y="-348" font-family="Helvetica,sans-Serif" font-size="10.00">std::shared_ptr&lt; schema</text>
<text text-anchor="start" x="245.5" y="-337" font-family="Helvetica,sans-Serif" font-size="10.00">_ref &gt;</text>
<polygon fill="none" stroke="#666666" points="195,-330 195,-360 327,-360 327,-330 195,-330"/>
</a>
</g>
</g>
<!-- Node9&#45;&gt;Node8 -->
<g id="edge11_Node000008_Node000009" class="edge">
<title>Node9&#45;&gt;Node8</title>
<g id="a_edge11_Node000008_Node000009"><a xlink:title=" ">
<path fill="none" stroke="#63b8ff" d="M257.51,-329.92C256.11,-320.83 256.02,-309.21 262,-301 266.43,-294.93 277.69,-289.16 291.36,-284.06"/>
<polygon fill="none" stroke="#63b8ff" points="291.41,-284.04 295.77,-278.3 302.75,-280.11 298.39,-285.86 291.41,-284.04"/>
</a>
</g>
<text text-anchor="middle" x="291" y="-304" font-family="Helvetica,sans-Serif" font-size="10.00" fill="grey"> +elements</text>
</g>
<!-- Node10 -->
<g id="Node000010" class="node">
<title>Node10</title>
<g id="a_Node000010"><a xlink:title=" ">
<polygon fill="white" stroke="transparent" points="285,-272 255,-272 255,-253 285,-253 285,-272"/>
<text text-anchor="start" x="259.5" y="-259.5" font-family="Helvetica,sans-Serif" font-size="10.00">json</text>
<polygon fill="none" stroke="#666666" points="255,-253 255,-272 285,-272 285,-253 255,-253"/>
</a>
</g>
</g>
<!-- Node10&#45;&gt;Node6 -->
<g id="edge12_Node000006_Node000010" class="edge">
<title>Node10&#45;&gt;Node6</title>
<g id="a_edge12_Node000006_Node000010"><a xlink:title=" ">
<path fill="none" stroke="#63b8ff" d="M261.71,-252.77C255.53,-245.65 247.58,-235 244,-224 242.31,-218.81 241.5,-213.07 241.21,-207.53"/>
<polygon fill="none" stroke="#63b8ff" points="241.22,-207.29 237.26,-201.26 241.3,-195.29 245.26,-201.32 241.22,-207.29"/>
</a>
</g>
<text text-anchor="middle" x="298" y="-216" font-family="Helvetica,sans-Serif" font-size="10.00" fill="grey"> +unknown_keywords</text>
</g>
</g>
</svg>
</svg>

<style type='text/css'>
<![CDATA[
[data-mouse-over-selected='false'] { opacity: 0.7; }
[data-mouse-over-selected='true']  { opacity: 1.0; }
]]>
</style>
<script type="application/ecmascript"><![CDATA[
document.addEventListener('DOMContentLoaded', (event) => {
  highlightEdges();
  highlightAdjacentNodes();
});
]]></script>
</svg>
