<?xml version="1.0" encoding="UTF-8" standalone="no"?>
<!DOCTYPE svg PUBLIC "-//W3C//DTD SVG 1.1//EN"
 "http://www.w3.org/Graphics/SVG/1.1/DTD/svg11.dtd">
<!-- Generated by graphviz version 2.42.4 (0)
 -->
<!-- Title: inja::Parser Pages: 1 -->
<svg width="1437pt" height="950pt"
 viewBox="0.00 0.00 1437.00 950.00" xmlns="http://www.w3.org/2000/svg" xmlns:xlink="http://www.w3.org/1999/xlink">
<g id="graph0" class="graph" transform="scale(1 1) rotate(0) translate(4 946)">
<title>inja::Parser</title>
<!-- Node1 -->
<g id="Node000001" class="node">
<title>Node1</title>
<g id="a_Node000001"><a xlink:title="Class for parsing an inja Template.">
<polygon fill="#999999" stroke="transparent" points="692,-19 628,-19 628,0 692,0 692,-19"/>
<text text-anchor="start" x="632.5" y="-6.5" font-family="Helvetica,sans-Serif" font-size="10.00">inja::Parser</text>
<polygon fill="none" stroke="#666666" points="628,0 628,-19 692,-19 692,0 628,0"/>
</a>
</g>
</g>
<!-- Node2 -->
<g id="Node000002" class="node">
<title>Node2</title>
<g id="a_Node000002"><a xlink:href="structinja_1_1ParserConfig.html" target="_top" xlink:title="Class for parser configuration.">
<polygon fill="white" stroke="transparent" points="96,-101.5 0,-101.5 0,-82.5 96,-82.5 96,-101.5"/>
<text text-anchor="start" x="4.5" y="-89" font-family="Helvetica,sans-Serif" font-size="10.00">inja::ParserConfig</text>
<polygon fill="none" stroke="#666666" points="0,-82.5 0,-101.5 96,-101.5 96,-82.5 0,-82.5"/>
</a>
</g>
</g>
<!-- Node2&#45;&gt;Node1 -->
<g id="edge1_Node000001_Node000002" class="edge">
<title>Node2&#45;&gt;Node1</title>
<g id="a_edge1_Node000001_Node000002"><a xlink:title=" ">
<path fill="none" stroke="#63b8ff" d="M49.22,-82.29C51.47,-69.85 57.56,-47.36 73,-37 95.44,-21.94 482.96,-13.65 615.77,-11.25"/>
<polygon fill="none" stroke="#63b8ff" points="615.81,-11.25 621.73,-7.14 627.8,-11.03 621.88,-15.14 615.81,-11.25"/>
</a>
</g>
<text text-anchor="middle" x="91.5" y="-45.5" font-family="Helvetica,sans-Serif" font-size="10.00" fill="grey"> &#45;config</text>
</g>
<!-- Node3 -->
<g id="Node000003" class="node">
<title>Node3</title>
<g id="a_Node000003"><a xlink:href="classinja_1_1Lexer.html" target="_top" xlink:title="Class for lexing an inja Template.">
<polygon fill="white" stroke="transparent" points="1238,-101.5 1178,-101.5 1178,-82.5 1238,-82.5 1238,-101.5"/>
<text text-anchor="start" x="1182" y="-89" font-family="Helvetica,sans-Serif" font-size="10.00">inja::Lexer</text>
<polygon fill="none" stroke="#666666" points="1178,-82.5 1178,-101.5 1238,-101.5 1238,-82.5 1178,-82.5"/>
</a>
</g>
</g>
<!-- Node3&#45;&gt;Node1 -->
<g id="edge2_Node000001_Node000003" class="edge">
<title>Node3&#45;&gt;Node1</title>
<g id="a_edge2_Node000001_Node000003"><a xlink:title=" ">
<path fill="none" stroke="#63b8ff" d="M1179.61,-82.44C1138.14,-70.29 1058.38,-48.27 989,-37 888.2,-20.62 768.29,-14.2 704.74,-11.82"/>
<polygon fill="none" stroke="#63b8ff" points="704.42,-11.81 698.28,-15.59 692.43,-11.38 698.57,-7.59 704.42,-11.81"/>
</a>
</g>
<text text-anchor="middle" x="1108" y="-45.5" font-family="Helvetica,sans-Serif" font-size="10.00" fill="grey"> &#45;lexer</text>
</g>
<!-- Node4 -->
<g id="Node000004" class="node">
<title>Node4</title>
<g id="a_Node000004"><a xlink:href="structinja_1_1LexerConfig.html" target="_top" xlink:title="Class for lexer configuration.">
<polygon fill="white" stroke="transparent" points="1266,-454 1174,-454 1174,-435 1266,-435 1266,-454"/>
<text text-anchor="start" x="1178.5" y="-441.5" font-family="Helvetica,sans-Serif" font-size="10.00">inja::LexerConfig</text>
<polygon fill="none" stroke="#666666" points="1174,-435 1174,-454 1266,-454 1266,-435 1174,-435"/>
</a>
</g>
</g>
<!-- Node4&#45;&gt;Node3 -->
<g id="edge3_Node000003_Node000004" class="edge">
<title>Node4&#45;&gt;Node3</title>
<g id="a_edge3_Node000003_Node000004"><a xlink:title=" ">
<path fill="none" stroke="#63b8ff" d="M1218.43,-434.94C1215.18,-416.41 1208,-371.21 1208,-333 1208,-333 1208,-333 1208,-181.5 1208,-158.23 1208,-131.52 1208,-113.58"/>
<polygon fill="none" stroke="#63b8ff" points="1208,-113.54 1204,-107.54 1208,-101.54 1212,-107.54 1208,-113.54"/>
</a>
</g>
<text text-anchor="middle" x="1226.5" y="-276" font-family="Helvetica,sans-Serif" font-size="10.00" fill="grey"> &#45;config</text>
</g>
<!-- Node5 -->
<g id="Node000005" class="node">
<title>Node5</title>
<g id="a_Node000005"><a xlink:title=" ">
<polygon fill="white" stroke="transparent" points="1095,-722 1037,-722 1037,-703 1095,-703 1095,-722"/>
<text text-anchor="start" x="1041.5" y="-709.5" font-family="Helvetica,sans-Serif" font-size="10.00">std::string</text>
<polygon fill="none" stroke="#666666" points="1037,-703 1037,-722 1095,-722 1095,-703 1037,-703"/>
</a>
</g>
</g>
<!-- Node5&#45;&gt;Node4 -->
<g id="edge4_Node000004_Node000005" class="edge">
<title>Node5&#45;&gt;Node4</title>
<g id="a_edge4_Node000004_Node000005"><a xlink:title=" ">
<path fill="none" stroke="#63b8ff" d="M1095.14,-707.83C1123.04,-703.71 1162.41,-696.12 1173,-685 1231.26,-623.82 1227.28,-512.67 1222.67,-466.49"/>
<polygon fill="none" stroke="#63b8ff" points="1222.65,-466.29 1217.99,-460.79 1221.29,-454.37 1225.94,-459.88 1222.65,-466.29"/>
</a>
</g>
<text text-anchor="middle" x="1283" y="-677" font-family="Helvetica,sans-Serif" font-size="10.00" fill="grey"> +comment_close</text>
<text text-anchor="start" x="1225" y="-666" font-family="Helvetica,sans-Serif" font-size="10.00" fill="grey">+comment_close_force</text>
<text text-anchor="middle" x="1283" y="-655" font-family="Helvetica,sans-Serif" font-size="10.00" fill="grey">_rstrip</text>
<text text-anchor="middle" x="1283" y="-644" font-family="Helvetica,sans-Serif" font-size="10.00" fill="grey">+comment_open</text>
<text text-anchor="start" x="1225" y="-633" font-family="Helvetica,sans-Serif" font-size="10.00" fill="grey">+comment_open_force</text>
<text text-anchor="middle" x="1283" y="-622" font-family="Helvetica,sans-Serif" font-size="10.00" fill="grey">_lstrip</text>
<text text-anchor="middle" x="1283" y="-611" font-family="Helvetica,sans-Serif" font-size="10.00" fill="grey">+expression_close</text>
<text text-anchor="start" x="1225" y="-600" font-family="Helvetica,sans-Serif" font-size="10.00" fill="grey">+expression_close</text>
<text text-anchor="middle" x="1283" y="-589" font-family="Helvetica,sans-Serif" font-size="10.00" fill="grey">_force_rstrip</text>
<text text-anchor="middle" x="1283" y="-578" font-family="Helvetica,sans-Serif" font-size="10.00" fill="grey">+expression_open</text>
<text text-anchor="start" x="1225" y="-567" font-family="Helvetica,sans-Serif" font-size="10.00" fill="grey">+expression_open</text>
<text text-anchor="middle" x="1283" y="-556" font-family="Helvetica,sans-Serif" font-size="10.00" fill="grey">_force_lstrip</text>
<text text-anchor="middle" x="1283" y="-545" font-family="Helvetica,sans-Serif" font-size="10.00" fill="grey">+line_statement</text>
<text text-anchor="middle" x="1283" y="-534" font-family="Helvetica,sans-Serif" font-size="10.00" fill="grey">+open_chars</text>
<text text-anchor="middle" x="1283" y="-523" font-family="Helvetica,sans-Serif" font-size="10.00" fill="grey">...</text>
</g>
<!-- Node9 -->
<g id="Node000009" class="node">
<title>Node9</title>
<g id="a_Node000009"><a xlink:title=" ">
<polygon fill="white" stroke="transparent" points="1031,-107 917,-107 917,-77 1031,-77 1031,-107"/>
<text text-anchor="start" x="921" y="-95" font-family="Helvetica,sans-Serif" font-size="10.00">std::map&lt; std::string,</text>
<text text-anchor="start" x="944" y="-84" font-family="Helvetica,sans-Serif" font-size="10.00"> Template &gt;</text>
<polygon fill="none" stroke="#666666" points="917,-77 917,-107 1031,-107 1031,-77 917,-77"/>
</a>
</g>
</g>
<!-- Node5&#45;&gt;Node9 -->
<g id="edge9_Node000009_Node000005" class="edge">
<title>Node5&#45;&gt;Node9</title>
<g id="a_edge9_Node000009_Node000005"><a xlink:title=" ">
<path fill="none" stroke="#63b8ff" d="M1076.52,-702.82C1081.78,-698.03 1087.88,-691.7 1092,-685 1140.48,-606.25 1159,-580.48 1159,-488 1159,-488 1159,-488 1159,-181.5 1159,-128.15 1095.63,-106.94 1043.07,-98.51"/>
<polygon fill="none" stroke="#63b8ff" points="1042.89,-98.49 1036.38,-101.59 1031.02,-96.77 1037.53,-93.67 1042.89,-98.49"/>
</a>
</g>
<text text-anchor="middle" x="1176" y="-329.5" font-family="Helvetica,sans-Serif" font-size="10.00" fill="grey"> +keys</text>
</g>
<!-- Node10 -->
<g id="Node000010" class="node">
<title>Node10</title>
<g id="a_Node000010"><a xlink:href="structinja_1_1Template.html" target="_top" xlink:title="The main inja Template.">
<polygon fill="white" stroke="transparent" points="1013,-192 935,-192 935,-173 1013,-173 1013,-192"/>
<text text-anchor="start" x="939" y="-179.5" font-family="Helvetica,sans-Serif" font-size="10.00">inja::Template</text>
<polygon fill="none" stroke="#666666" points="935,-173 935,-192 1013,-192 1013,-173 935,-173"/>
</a>
</g>
</g>
<!-- Node5&#45;&gt;Node10 -->
<g id="edge16_Node000010_Node000005" class="edge">
<title>Node5&#45;&gt;Node10</title>
<g id="a_edge16_Node000010_Node000005"><a xlink:title=" ">
<path fill="none" stroke="#63b8ff" d="M1067.22,-702.81C1075.44,-642.83 1120.58,-290.39 1058,-210 1049.96,-199.67 1037.89,-193.28 1025.4,-189.36"/>
<polygon fill="none" stroke="#63b8ff" points="1025.04,-189.27 1018.24,-191.66 1013.41,-186.3 1020.21,-183.91 1025.04,-189.27"/>
</a>
</g>
<text text-anchor="middle" x="1115.5" y="-388.5" font-family="Helvetica,sans-Serif" font-size="10.00" fill="grey"> +content</text>
</g>
<!-- Node15 -->
<g id="Node000015" class="node">
<title>Node15</title>
<g id="a_Node000015"><a xlink:title=" ">
<polygon fill="white" stroke="transparent" points="1045,-299 903,-299 903,-258 1045,-258 1045,-299"/>
<text text-anchor="start" x="907.5" y="-286.5" font-family="Helvetica,sans-Serif" font-size="10.00">std::map&lt; std::string,</text>
<text text-anchor="start" x="907.5" y="-275.5" font-family="Helvetica,sans-Serif" font-size="10.00"> std::shared_ptr&lt; inja</text>
<text text-anchor="start" x="907.5" y="-264.5" font-family="Helvetica,sans-Serif" font-size="10.00">::BlockStatementNode &gt; &gt;</text>
<polygon fill="none" stroke="#666666" points="903,-258 903,-299 1045,-299 1045,-258 903,-258"/>
</a>
</g>
</g>
<!-- Node5&#45;&gt;Node15 -->
<g id="edge18_Node000015_Node000005" class="edge">
<title>Node5&#45;&gt;Node15</title>
<g id="a_edge18_Node000015_Node000005"><a xlink:title=" ">
<path fill="none" stroke="#63b8ff" d="M1064.99,-702.61C1061.24,-669.67 1047.82,-551.47 1037,-454 1030.24,-393.12 1051.81,-370.51 1022,-317 1020.16,-313.69 1017.89,-310.57 1015.35,-307.65"/>
<polygon fill="none" stroke="#63b8ff" points="1015.11,-307.42 1008.02,-306.1 1006.51,-299.05 1013.6,-300.37 1015.11,-307.42"/>
</a>
</g>
<text text-anchor="middle" x="1054" y="-442" font-family="Helvetica,sans-Serif" font-size="10.00" fill="grey"> +keys</text>
</g>
<!-- Node17 -->
<g id="Node000017" class="node">
<title>Node17</title>
<g id="a_Node000017"><a xlink:href="classinja_1_1BlockStatementNode.html" target="_top" xlink:title=" ">
<polygon fill="white" stroke="transparent" points="889,-496.5 753,-496.5 753,-477.5 889,-477.5 889,-496.5"/>
<text text-anchor="start" x="757" y="-484" font-family="Helvetica,sans-Serif" font-size="10.00">inja::BlockStatementNode</text>
<polygon fill="none" stroke="#666666" points="753,-477.5 753,-496.5 889,-496.5 889,-477.5 753,-477.5"/>
</a>
</g>
</g>
<!-- Node5&#45;&gt;Node17 -->
<g id="edge23_Node000017_Node000005" class="edge">
<title>Node5&#45;&gt;Node17</title>
<g id="a_edge23_Node000017_Node000005"><a xlink:title=" ">
<path fill="none" stroke="#63b8ff" d="M1036.97,-710.08C996.05,-707.52 924.15,-700.87 904,-685 847.28,-640.33 828.83,-549.79 823.25,-508.89"/>
<polygon fill="none" stroke="#63b8ff" points="823.23,-508.77 818.54,-503.29 821.79,-496.85 826.48,-502.33 823.23,-508.77"/>
</a>
</g>
<text text-anchor="middle" x="924" y="-600" font-family="Helvetica,sans-Serif" font-size="10.00" fill="grey"> +name</text>
</g>
<!-- Node21 -->
<g id="Node000021" class="node">
<title>Node21</title>
<g id="a_Node000021"><a xlink:title=" ">
<polygon fill="white" stroke="transparent" points="1019,-502 907,-502 907,-472 1019,-472 1019,-502"/>
<text text-anchor="start" x="911.5" y="-490" font-family="Helvetica,sans-Serif" font-size="10.00">std::pair&lt; std::string,</text>
<text text-anchor="start" x="949" y="-479" font-family="Helvetica,sans-Serif" font-size="10.00"> int &gt;</text>
<polygon fill="none" stroke="#666666" points="907,-472 907,-502 1019,-502 1019,-472 907,-472"/>
</a>
</g>
</g>
<!-- Node5&#45;&gt;Node21 -->
<g id="edge28_Node000021_Node000005" class="edge">
<title>Node5&#45;&gt;Node21</title>
<g id="a_edge28_Node000021_Node000005"><a xlink:title=" ">
<path fill="none" stroke="#63b8ff" d="M1036.61,-711.27C1015.99,-709.41 989.59,-703.25 975,-685 935.53,-635.6 946.73,-555.06 956.05,-513.94"/>
<polygon fill="none" stroke="#63b8ff" points="956.11,-513.72 953.64,-506.95 958.95,-502.06 961.42,-508.84 956.11,-513.72"/>
</a>
</g>
<text text-anchor="middle" x="1004" y="-600" font-family="Helvetica,sans-Serif" font-size="10.00" fill="grey"> +first_type</text>
</g>
<!-- Node6 -->
<g id="Node000006" class="node">
<title>Node6</title>
<g id="a_Node000006"><a xlink:title=" ">
<polygon fill="white" stroke="transparent" points="1114,-799 1018,-799 1018,-769 1114,-769 1114,-799"/>
<text text-anchor="start" x="1022" y="-787" font-family="Helvetica,sans-Serif" font-size="10.00">std::basic_string&lt;</text>
<text text-anchor="start" x="1047.5" y="-776" font-family="Helvetica,sans-Serif" font-size="10.00"> Char &gt;</text>
<polygon fill="none" stroke="#666666" points="1018,-769 1018,-799 1114,-799 1114,-769 1018,-769"/>
</a>
</g>
</g>
<!-- Node6&#45;&gt;Node5 -->
<g id="edge5_Node000005_Node000006" class="edge">
<title>Node6&#45;&gt;Node5</title>
<g id="a_edge5_Node000005_Node000006"><a xlink:title=" ">
<path fill="none" stroke="#63b8ff" d="M1066,-758.56C1066,-745.95 1066,-731.35 1066,-722.27"/>
<polygon fill="none" stroke="#63b8ff" points="1062.5,-758.94 1066,-768.94 1069.5,-758.94 1062.5,-758.94"/>
</a>
</g>
</g>
<!-- Node7 -->
<g id="Node000007" class="node">
<title>Node7</title>
<g id="a_Node000007"><a xlink:title=" ">
<polygon fill="white" stroke="transparent" points="1347,-192 1261,-192 1261,-173 1347,-173 1347,-192"/>
<text text-anchor="start" x="1265" y="-179.5" font-family="Helvetica,sans-Serif" font-size="10.00">std::string_view</text>
<polygon fill="none" stroke="#666666" points="1261,-173 1261,-192 1347,-192 1347,-173 1261,-173"/>
</a>
</g>
</g>
<!-- Node7&#45;&gt;Node1 -->
<g id="edge32_Node000001_Node000007" class="edge">
<title>Node7&#45;&gt;Node1</title>
<g id="a_edge32_Node000001_Node000007"><a xlink:title=" ">
<path fill="none" stroke="#63b8ff" d="M1301.64,-172.8C1295.81,-152.89 1278.83,-103.69 1247,-77 1204.25,-41.15 1182.79,-47.56 1128,-37 1047.63,-21.51 804.63,-14 704.18,-11.49"/>
<polygon fill="none" stroke="#63b8ff" points="704.1,-11.49 698,-15.35 692.1,-11.2 698.2,-7.35 704.1,-11.49"/>
</a>
</g>
<text text-anchor="middle" x="1305" y="-89.5" font-family="Helvetica,sans-Serif" font-size="10.00" fill="grey"> &#45;literal_start</text>
</g>
<!-- Node7&#45;&gt;Node3 -->
<g id="edge6_Node000003_Node000007" class="edge">
<title>Node7&#45;&gt;Node3</title>
<g id="a_edge6_Node000003_Node000007"><a xlink:title=" ">
<path fill="none" stroke="#63b8ff" d="M1273.29,-172.98C1262.48,-168.86 1250.84,-163.02 1242,-155 1229.46,-143.63 1220.56,-126.51 1215.02,-113.14"/>
<polygon fill="none" stroke="#63b8ff" points="1214.97,-113.01 1209.11,-108.81 1210.73,-101.78 1216.59,-105.98 1214.97,-113.01"/>
</a>
</g>
<text text-anchor="middle" x="1257.5" y="-137.5" font-family="Helvetica,sans-Serif" font-size="10.00" fill="grey"> &#45;m_in</text>
</g>
<!-- Node23 -->
<g id="Node000023" class="node">
<title>Node23</title>
<g id="a_Node000023"><a xlink:href="structinja_1_1Token.html" target="_top" xlink:title="Helper&#45;class for the inja Lexer.">
<polygon fill="white" stroke="transparent" points="1429,-101.5 1369,-101.5 1369,-82.5 1429,-82.5 1429,-101.5"/>
<text text-anchor="start" x="1373" y="-89" font-family="Helvetica,sans-Serif" font-size="10.00">inja::Token</text>
<polygon fill="none" stroke="#666666" points="1369,-82.5 1369,-101.5 1429,-101.5 1429,-82.5 1369,-82.5"/>
</a>
</g>
</g>
<!-- Node7&#45;&gt;Node23 -->
<g id="edge31_Node000023_Node000007" class="edge">
<title>Node7&#45;&gt;Node23</title>
<g id="a_edge31_Node000023_Node000007"><a xlink:title=" ">
<path fill="none" stroke="#63b8ff" d="M1313.46,-172.69C1329.19,-158.04 1360.98,-128.42 1381.06,-109.71"/>
<polygon fill="none" stroke="#63b8ff" points="1381.08,-109.69 1382.74,-102.68 1389.86,-101.51 1388.2,-108.53 1381.08,-109.69"/>
</a>
</g>
<text text-anchor="middle" x="1377.5" y="-137.5" font-family="Helvetica,sans-Serif" font-size="10.00" fill="grey"> +text</text>
</g>
<!-- Node8 -->
<g id="Node000008" class="node">
<title>Node8</title>
<g id="a_Node000008"><a xlink:title=" ">
<polygon fill="white" stroke="transparent" points="1381,-293.5 1263,-293.5 1263,-263.5 1381,-263.5 1381,-293.5"/>
<text text-anchor="start" x="1267.5" y="-281.5" font-family="Helvetica,sans-Serif" font-size="10.00">std::basic_string_view</text>
<text text-anchor="start" x="1299" y="-270.5" font-family="Helvetica,sans-Serif" font-size="10.00">&lt; Char &gt;</text>
<polygon fill="none" stroke="#666666" points="1263,-263.5 1263,-293.5 1381,-293.5 1381,-263.5 1263,-263.5"/>
</a>
</g>
</g>
<!-- Node8&#45;&gt;Node7 -->
<g id="edge7_Node000007_Node000008" class="edge">
<title>Node8&#45;&gt;Node7</title>
<g id="a_edge7_Node000007_Node000008"><a xlink:title=" ">
<path fill="none" stroke="#63b8ff" d="M1317.36,-253.27C1313.53,-233.28 1308.32,-206.04 1305.68,-192.26"/>
<polygon fill="none" stroke="#63b8ff" points="1313.95,-254.06 1319.27,-263.22 1320.82,-252.74 1313.95,-254.06"/>
</a>
</g>
</g>
<!-- Node9&#45;&gt;Node1 -->
<g id="edge8_Node000001_Node000009" class="edge">
<title>Node9&#45;&gt;Node1</title>
<g id="a_edge8_Node000001_Node000009"><a xlink:title=" ">
<path fill="none" stroke="#63b8ff" d="M940.37,-76.97C910.13,-64.85 864.25,-47.63 823,-37 783.37,-26.78 737.25,-19.72 704.2,-15.47"/>
<polygon fill="none" stroke="#63b8ff" points="704.12,-15.46 697.67,-18.69 692.21,-13.98 698.66,-10.75 704.12,-15.46"/>
</a>
</g>
<text text-anchor="middle" x="938" y="-45.5" font-family="Helvetica,sans-Serif" font-size="10.00" fill="grey"> &#45;template_storage</text>
</g>
<!-- Node10&#45;&gt;Node9 -->
<g id="edge10_Node000009_Node000010" class="edge">
<title>Node10&#45;&gt;Node9</title>
<g id="a_edge10_Node000009_Node000010"><a xlink:title=" ">
<path fill="none" stroke="#63b8ff" d="M974,-172.69C974,-160.38 974,-137.5 974,-119.4"/>
<polygon fill="none" stroke="#63b8ff" points="974,-119.29 970,-113.29 974,-107.29 978,-113.29 974,-119.29"/>
</a>
</g>
<text text-anchor="middle" x="1003" y="-137.5" font-family="Helvetica,sans-Serif" font-size="10.00" fill="grey"> +elements</text>
</g>
<!-- Node11 -->
<g id="Node000011" class="node">
<title>Node11</title>
<g id="a_Node000011"><a xlink:href="classinja_1_1BlockNode.html" target="_top" xlink:title=" ">
<polygon fill="white" stroke="transparent" points="543,-722 457,-722 457,-703 543,-703 543,-722"/>
<text text-anchor="start" x="461.5" y="-709.5" font-family="Helvetica,sans-Serif" font-size="10.00">inja::BlockNode</text>
<polygon fill="none" stroke="#666666" points="457,-703 457,-722 543,-722 543,-703 457,-703"/>
</a>
</g>
</g>
<!-- Node11&#45;&gt;Node1 -->
<g id="edge33_Node000001_Node000011" class="edge">
<title>Node11&#45;&gt;Node1</title>
<g id="a_edge33_Node000001_Node000011"><a xlink:title=" ">
<path fill="none" stroke="#63b8ff" d="M456.96,-709.79C415.34,-707.21 356.25,-700.81 340,-685 286.46,-632.91 330.42,-591.25 308,-520 305.37,-511.65 303.18,-510.16 300,-502 290.39,-477.31 281,-471.99 281,-445.5 281,-445.5 281,-445.5 281,-91 281,-23.27 515.54,-12.28 615.61,-10.68"/>
<polygon fill="none" stroke="#63b8ff" points="615.69,-10.68 621.63,-6.6 627.69,-10.52 621.74,-14.6 615.69,-10.68"/>
</a>
</g>
<text text-anchor="middle" x="317.5" y="-276" font-family="Helvetica,sans-Serif" font-size="10.00" fill="grey"> &#45;current_block</text>
</g>
<!-- Node11&#45;&gt;Node10 -->
<g id="edge11_Node000010_Node000011" class="edge">
<title>Node11&#45;&gt;Node10</title>
<g id="a_edge11_Node000010_Node000011"><a xlink:title=" ">
<path fill="none" stroke="#63b8ff" d="M524.32,-702.92C533.17,-698.73 542.57,-692.86 549,-685 611.67,-608.39 567.22,-559.23 614,-472 643.1,-417.74 647.93,-394.45 702,-365 763.29,-331.62 802.47,-389.27 858,-347 891.95,-321.16 869.81,-293.15 894,-258 909.95,-234.82 934.25,-213.51 951.88,-199.67"/>
<polygon fill="none" stroke="#63b8ff" points="952.32,-199.34 954.67,-192.52 961.87,-192.07 959.52,-198.89 952.32,-199.34"/>
</a>
</g>
<text text-anchor="middle" x="717.5" y="-388.5" font-family="Helvetica,sans-Serif" font-size="10.00" fill="grey"> +root</text>
</g>
<!-- Node11&#45;&gt;Node17 -->
<g id="edge24_Node000017_Node000011" class="edge">
<title>Node11&#45;&gt;Node17</title>
<g id="a_edge24_Node000017_Node000011"><a xlink:title=" ">
<path fill="none" stroke="#63b8ff" d="M543.17,-710.66C564.66,-708.02 589.51,-701.24 606,-685 660.08,-631.75 594.34,-571.6 650,-520 650.54,-519.5 713.27,-507.85 762.6,-498.74"/>
<polygon fill="none" stroke="#63b8ff" points="762.68,-498.73 767.85,-493.71 774.48,-496.55 769.3,-501.57 762.68,-498.73"/>
</a>
</g>
<text text-anchor="middle" x="670" y="-605.5" font-family="Helvetica,sans-Serif" font-size="10.00" fill="grey"> +block</text>
<text text-anchor="middle" x="670" y="-594.5" font-family="Helvetica,sans-Serif" font-size="10.00" fill="grey">+parent</text>
</g>
<!-- Node28 -->
<g id="Node000028" class="node">
<title>Node28</title>
<g id="a_Node000028"><a xlink:href="classinja_1_1IfStatementNode.html" target="_top" xlink:title=" ">
<polygon fill="white" stroke="transparent" points="425,-496.5 309,-496.5 309,-477.5 425,-477.5 425,-496.5"/>
<text text-anchor="start" x="313" y="-484" font-family="Helvetica,sans-Serif" font-size="10.00">inja::IfStatementNode</text>
<polygon fill="none" stroke="#666666" points="309,-477.5 309,-496.5 425,-496.5 425,-477.5 309,-477.5"/>
</a>
</g>
</g>
<!-- Node11&#45;&gt;Node28 -->
<g id="edge43_Node000028_Node000011" class="edge">
<title>Node11&#45;&gt;Node28</title>
<g id="a_edge43_Node000028_Node000011"><a xlink:title=" ">
<path fill="none" stroke="#63b8ff" d="M456.92,-708.63C422.84,-705.35 379.18,-698.58 368,-685 325.9,-633.87 346.92,-547.38 359.65,-508.27"/>
<polygon fill="none" stroke="#63b8ff" points="359.72,-508.09 357.89,-501.12 363.63,-496.75 365.45,-503.72 359.72,-508.09"/>
</a>
</g>
<text text-anchor="middle" x="413.5" y="-611" font-family="Helvetica,sans-Serif" font-size="10.00" fill="grey"> +false_statement</text>
<text text-anchor="middle" x="413.5" y="-600" font-family="Helvetica,sans-Serif" font-size="10.00" fill="grey">+parent</text>
<text text-anchor="middle" x="413.5" y="-589" font-family="Helvetica,sans-Serif" font-size="10.00" fill="grey">+true_statement</text>
</g>
<!-- Node30 -->
<g id="Node000030" class="node">
<title>Node30</title>
<g id="a_Node000030"><a xlink:href="classinja_1_1ForStatementNode.html" target="_top" xlink:title=" ">
<polygon fill="white" stroke="transparent" points="567,-496.5 443,-496.5 443,-477.5 567,-477.5 567,-496.5"/>
<text text-anchor="start" x="447" y="-484" font-family="Helvetica,sans-Serif" font-size="10.00">inja::ForStatementNode</text>
<polygon fill="none" stroke="#666666" points="443,-477.5 443,-496.5 567,-496.5 567,-477.5 443,-477.5"/>
</a>
</g>
</g>
<!-- Node11&#45;&gt;Node30 -->
<g id="edge48_Node000030_Node000011" class="edge">
<title>Node11&#45;&gt;Node30</title>
<g id="a_edge48_Node000030_Node000011"><a xlink:title=" ">
<path fill="none" stroke="#63b8ff" d="M500.2,-702.74C500.92,-670.34 503.46,-556.74 504.53,-509.19"/>
<polygon fill="none" stroke="#63b8ff" points="504.53,-508.94 500.67,-502.85 504.8,-496.94 508.66,-503.03 504.53,-508.94"/>
</a>
</g>
<text text-anchor="middle" x="525" y="-605.5" font-family="Helvetica,sans-Serif" font-size="10.00" fill="grey"> +body</text>
<text text-anchor="middle" x="525" y="-594.5" font-family="Helvetica,sans-Serif" font-size="10.00" fill="grey">+parent</text>
</g>
<!-- Node12 -->
<g id="Node000012" class="node">
<title>Node12</title>
<g id="a_Node000012"><a xlink:href="classinja_1_1AstNode.html" target="_top" xlink:title="Base node class for the abstract syntax tree (AST).">
<polygon fill="white" stroke="transparent" points="446,-942 372,-942 372,-923 446,-923 446,-942"/>
<text text-anchor="start" x="376" y="-929.5" font-family="Helvetica,sans-Serif" font-size="10.00">inja::AstNode</text>
<polygon fill="none" stroke="#666666" points="372,-923 372,-942 446,-942 446,-923 372,-923"/>
</a>
</g>
</g>
<!-- Node12&#45;&gt;Node11 -->
<g id="edge12_Node000011_Node000012" class="edge">
<title>Node12&#45;&gt;Node11</title>
<g id="a_edge12_Node000011_Node000012"><a xlink:title=" ">
<path fill="none" stroke="#63b8ff" d="M406.69,-912.54C403.75,-880.64 401.82,-815.23 428,-769 440.29,-747.3 464.83,-731.25 481.83,-722.13"/>
<polygon fill="none" stroke="#63b8ff" points="403.23,-913.1 407.77,-922.67 410.19,-912.36 403.23,-913.1"/>
</a>
</g>
</g>
<!-- Node14 -->
<g id="Node000014" class="node">
<title>Node14</title>
<g id="a_Node000014"><a xlink:title=" ">
<polygon fill="white" stroke="transparent" points="551,-876 439,-876 439,-846 551,-846 551,-876"/>
<text text-anchor="start" x="443.5" y="-864" font-family="Helvetica,sans-Serif" font-size="10.00">std::shared_ptr&lt; inja</text>
<text text-anchor="start" x="465.5" y="-853" font-family="Helvetica,sans-Serif" font-size="10.00">::AstNode &gt;</text>
<polygon fill="none" stroke="#666666" points="439,-846 439,-876 551,-876 551,-846 439,-846"/>
</a>
</g>
</g>
<!-- Node12&#45;&gt;Node14 -->
<g id="edge15_Node000014_Node000012" class="edge">
<title>Node12&#45;&gt;Node14</title>
<g id="a_edge15_Node000014_Node000012"><a xlink:title=" ">
<path fill="none" stroke="#63b8ff" d="M419.55,-922.98C431.51,-913.31 451.47,-897.17 467.87,-883.93"/>
<polygon fill="none" stroke="#63b8ff" points="468.17,-883.68 470.33,-876.8 477.51,-876.14 475.35,-883.02 468.17,-883.68"/>
</a>
</g>
<text text-anchor="middle" x="467.5" y="-897" font-family="Helvetica,sans-Serif" font-size="10.00" fill="grey"> +ptr</text>
</g>
<!-- Node18 -->
<g id="Node000018" class="node">
<title>Node18</title>
<g id="a_Node000018"><a xlink:href="classinja_1_1StatementNode.html" target="_top" xlink:title=" ">
<polygon fill="white" stroke="transparent" points="714,-722 604,-722 604,-703 714,-703 714,-722"/>
<text text-anchor="start" x="608.5" y="-709.5" font-family="Helvetica,sans-Serif" font-size="10.00">inja::StatementNode</text>
<polygon fill="none" stroke="#666666" points="604,-703 604,-722 714,-722 714,-703 604,-703"/>
</a>
</g>
</g>
<!-- Node12&#45;&gt;Node18 -->
<g id="edge22_Node000018_Node000012" class="edge">
<title>Node12&#45;&gt;Node18</title>
<g id="a_edge22_Node000018_Node000012"><a xlink:title=" ">
<path fill="none" stroke="#63b8ff" d="M456.12,-922.87C488.23,-915.05 530.17,-900.83 560,-876 613.83,-831.2 646.4,-749.16 656,-722.28"/>
<polygon fill="none" stroke="#63b8ff" points="455.02,-919.53 446.07,-925.19 456.6,-926.35 455.02,-919.53"/>
</a>
</g>
</g>
<!-- Node24 -->
<g id="Node000024" class="node">
<title>Node24</title>
<g id="a_Node000024"><a xlink:href="classinja_1_1ExpressionListNode.html" target="_top" xlink:title=" ">
<polygon fill="white" stroke="transparent" points="315,-722 185,-722 185,-703 315,-703 315,-722"/>
<text text-anchor="start" x="189.5" y="-709.5" font-family="Helvetica,sans-Serif" font-size="10.00">inja::ExpressionListNode</text>
<polygon fill="none" stroke="#666666" points="185,-703 185,-722 315,-722 315,-703 185,-703"/>
</a>
</g>
</g>
<!-- Node12&#45;&gt;Node24 -->
<g id="edge35_Node000024_Node000012" class="edge">
<title>Node12&#45;&gt;Node24</title>
<g id="a_edge35_Node000024_Node000012"><a xlink:title=" ">
<path fill="none" stroke="#63b8ff" d="M404.29,-913.12C395.39,-881.12 373.63,-814.28 337,-769 319.31,-747.13 290.59,-731.21 271.03,-722.17"/>
<polygon fill="none" stroke="#63b8ff" points="400.94,-914.14 406.9,-922.89 407.7,-912.33 400.94,-914.14"/>
</a>
</g>
</g>
<!-- Node26 -->
<g id="Node000026" class="node">
<title>Node26</title>
<g id="a_Node000026"><a xlink:href="classinja_1_1ExpressionNode.html" target="_top" xlink:title=" ">
<polygon fill="white" stroke="transparent" points="340,-870.5 228,-870.5 228,-851.5 340,-851.5 340,-870.5"/>
<text text-anchor="start" x="232.5" y="-858" font-family="Helvetica,sans-Serif" font-size="10.00">inja::ExpressionNode</text>
<polygon fill="none" stroke="#666666" points="228,-851.5 228,-870.5 340,-870.5 340,-851.5 228,-851.5"/>
</a>
</g>
</g>
<!-- Node12&#45;&gt;Node26 -->
<g id="edge38_Node000026_Node000012" class="edge">
<title>Node12&#45;&gt;Node26</title>
<g id="a_edge38_Node000026_Node000012"><a xlink:title=" ">
<path fill="none" stroke="#63b8ff" d="M382.11,-918.54C373.68,-914.35 364.39,-909.6 356,-905 335.31,-893.67 311.98,-879.46 297.63,-870.55"/>
<polygon fill="none" stroke="#63b8ff" points="380.64,-921.72 391.16,-922.99 383.73,-915.44 380.64,-921.72"/>
</a>
</g>
</g>
<!-- Node13 -->
<g id="Node000013" class="node">
<title>Node13</title>
<g id="a_Node000013"><a xlink:title=" ">
<polygon fill="white" stroke="transparent" points="563,-799 437,-799 437,-769 563,-769 563,-799"/>
<text text-anchor="start" x="441" y="-787" font-family="Helvetica,sans-Serif" font-size="10.00">std::vector&lt; std::shared</text>
<text text-anchor="start" x="441" y="-776" font-family="Helvetica,sans-Serif" font-size="10.00">_ptr&lt; inja::AstNode &gt; &gt;</text>
<polygon fill="none" stroke="#666666" points="437,-769 437,-799 563,-799 563,-769 437,-769"/>
</a>
</g>
</g>
<!-- Node13&#45;&gt;Node11 -->
<g id="edge13_Node000011_Node000013" class="edge">
<title>Node13&#45;&gt;Node11</title>
<g id="a_edge13_Node000011_Node000013"><a xlink:title=" ">
<path fill="none" stroke="#63b8ff" d="M500,-768.94C500,-759.01 500,-745.54 500,-734.37"/>
<polygon fill="none" stroke="#63b8ff" points="500,-734.27 496,-728.27 500,-722.27 504,-728.27 500,-734.27"/>
</a>
</g>
<text text-anchor="middle" x="520.5" y="-743" font-family="Helvetica,sans-Serif" font-size="10.00" fill="grey"> +nodes</text>
</g>
<!-- Node14&#45;&gt;Node13 -->
<g id="edge14_Node000013_Node000014" class="edge">
<title>Node14&#45;&gt;Node13</title>
<g id="a_edge14_Node000013_Node000014"><a xlink:title=" ">
<path fill="none" stroke="#63b8ff" d="M495.94,-845.89C496.59,-836.15 497.47,-822.9 498.25,-811.25"/>
<polygon fill="none" stroke="#63b8ff" points="498.27,-811.02 494.67,-804.76 499.06,-799.04 502.66,-805.3 498.27,-811.02"/>
</a>
</g>
<text text-anchor="middle" x="527" y="-820" font-family="Helvetica,sans-Serif" font-size="10.00" fill="grey"> +elements</text>
</g>
<!-- Node15&#45;&gt;Node10 -->
<g id="edge17_Node000010_Node000015" class="edge">
<title>Node15&#45;&gt;Node10</title>
<g id="a_edge17_Node000010_Node000015"><a xlink:title=" ">
<path fill="none" stroke="#63b8ff" d="M974,-257.57C974,-241.89 974,-220.13 974,-204.25"/>
<polygon fill="none" stroke="#63b8ff" points="974,-204.11 970,-198.11 974,-192.11 978,-198.11 974,-204.11"/>
</a>
</g>
<text text-anchor="middle" x="1014" y="-222.5" font-family="Helvetica,sans-Serif" font-size="10.00" fill="grey"> +block_storage</text>
</g>
<!-- Node16 -->
<g id="Node000016" class="node">
<title>Node16</title>
<g id="a_Node000016"><a xlink:title=" ">
<polygon fill="white" stroke="transparent" points="1008,-406 878,-406 878,-376 1008,-376 1008,-406"/>
<text text-anchor="start" x="882.5" y="-394" font-family="Helvetica,sans-Serif" font-size="10.00">std::shared_ptr&lt; inja</text>
<text text-anchor="start" x="882.5" y="-383" font-family="Helvetica,sans-Serif" font-size="10.00">::BlockStatementNode &gt;</text>
<polygon fill="none" stroke="#666666" points="878,-376 878,-406 1008,-406 1008,-376 878,-376"/>
</a>
</g>
</g>
<!-- Node16&#45;&gt;Node15 -->
<g id="edge19_Node000015_Node000016" class="edge">
<title>Node16&#45;&gt;Node15</title>
<g id="a_edge19_Node000015_Node000016"><a xlink:title=" ">
<path fill="none" stroke="#63b8ff" d="M947.05,-375.55C951.63,-359.22 959.23,-332.14 965.2,-310.89"/>
<polygon fill="none" stroke="#63b8ff" points="965.24,-310.73 963.01,-303.87 968.48,-299.17 970.71,-306.03 965.24,-310.73"/>
</a>
</g>
<text text-anchor="middle" x="993" y="-329.5" font-family="Helvetica,sans-Serif" font-size="10.00" fill="grey"> +elements</text>
</g>
<!-- Node17&#45;&gt;Node16 -->
<g id="edge20_Node000016_Node000017" class="edge">
<title>Node17&#45;&gt;Node16</title>
<g id="a_edge20_Node000016_Node000017"><a xlink:title=" ">
<path fill="none" stroke="#63b8ff" d="M832.26,-477.33C850.9,-462.96 888.73,-433.82 914.95,-413.62"/>
<polygon fill="none" stroke="#63b8ff" points="915.2,-413.42 917.51,-406.59 924.7,-406.1 922.39,-412.93 915.2,-413.42"/>
</a>
</g>
<text text-anchor="middle" x="898.5" y="-442" font-family="Helvetica,sans-Serif" font-size="10.00" fill="grey"> +ptr</text>
</g>
<!-- Node31 -->
<g id="Node000031" class="node">
<title>Node31</title>
<g id="a_Node000031"><a xlink:title=" ">
<polygon fill="white" stroke="transparent" points="745,-347 575,-347 575,-317 745,-317 745,-347"/>
<text text-anchor="start" x="579.5" y="-335" font-family="Helvetica,sans-Serif" font-size="10.00">std::stack&lt; inja::BlockStatement</text>
<text text-anchor="start" x="637" y="-324" font-family="Helvetica,sans-Serif" font-size="10.00">Node * &gt;</text>
<polygon fill="none" stroke="#666666" points="575,-317 575,-347 745,-347 745,-317 575,-317"/>
</a>
</g>
</g>
<!-- Node17&#45;&gt;Node31 -->
<g id="edge50_Node000031_Node000017" class="edge">
<title>Node17&#45;&gt;Node31</title>
<g id="a_edge50_Node000031_Node000017"><a xlink:title=" ">
<path fill="none" stroke="#63b8ff" d="M794.32,-477.4C780.47,-472.09 763.81,-464.3 751,-454 717.28,-426.88 689.29,-384.6 673.61,-357.87"/>
<polygon fill="none" stroke="#63b8ff" points="673.43,-357.55 666.98,-354.32 667.48,-347.13 673.93,-350.36 673.43,-357.55"/>
</a>
</g>
<text text-anchor="middle" x="780" y="-442" font-family="Helvetica,sans-Serif" font-size="10.00" fill="grey"> +elements</text>
</g>
<!-- Node18&#45;&gt;Node17 -->
<g id="edge21_Node000017_Node000018" class="edge">
<title>Node18&#45;&gt;Node17</title>
<g id="a_edge21_Node000017_Node000018"><a xlink:title=" ">
<path fill="none" stroke="#63b8ff" d="M680.69,-696.96C685.35,-693.34 690.05,-689.26 694,-685 753.49,-620.85 802.63,-525.5 816.85,-496.6"/>
<polygon fill="none" stroke="#63b8ff" points="678.54,-694.19 672.53,-702.92 682.67,-699.84 678.54,-694.19"/>
</a>
</g>
</g>
<!-- Node18&#45;&gt;Node28 -->
<g id="edge41_Node000028_Node000018" class="edge">
<title>Node18&#45;&gt;Node28</title>
<g id="a_edge41_Node000028_Node000018"><a xlink:title=" ">
<path fill="none" stroke="#63b8ff" d="M593.8,-704.31C552.02,-699.1 504.27,-691.82 497,-685 442.11,-633.52 509.25,-576.02 459,-520 448.84,-508.67 434.45,-501.35 420.06,-496.63"/>
<polygon fill="none" stroke="#63b8ff" points="593.64,-707.81 603.99,-705.55 594.49,-700.86 593.64,-707.81"/>
</a>
</g>
</g>
<!-- Node18&#45;&gt;Node30 -->
<g id="edge46_Node000030_Node000018" class="edge">
<title>Node18&#45;&gt;Node30</title>
<g id="a_edge46_Node000030_Node000018"><a xlink:title=" ">
<path fill="none" stroke="#63b8ff" d="M667.3,-692.99C682.68,-655.59 710.42,-570.28 669,-520 662.34,-511.91 610.94,-502.76 567.44,-496.32"/>
<polygon fill="none" stroke="#63b8ff" points="663.91,-692.02 663.19,-702.59 670.35,-694.78 663.91,-692.02"/>
</a>
</g>
</g>
<!-- Node19 -->
<g id="Node000019" class="node">
<title>Node19</title>
<g id="a_Node000019"><a xlink:href="classinja_1_1FunctionStorage.html" target="_top" xlink:title="Class for builtin functions and user&#45;defined callbacks.">
<polygon fill="white" stroke="transparent" points="840,-234.5 728,-234.5 728,-215.5 840,-215.5 840,-234.5"/>
<text text-anchor="start" x="732.5" y="-222" font-family="Helvetica,sans-Serif" font-size="10.00">inja::FunctionStorage</text>
<polygon fill="none" stroke="#666666" points="728,-215.5 728,-234.5 840,-234.5 840,-215.5 728,-215.5"/>
</a>
</g>
</g>
<!-- Node19&#45;&gt;Node1 -->
<g id="edge25_Node000001_Node000019" class="edge">
<title>Node19&#45;&gt;Node1</title>
<g id="a_edge25_Node000001_Node000019"><a xlink:title=" ">
<path fill="none" stroke="#63b8ff" d="M785.9,-215.43C787.82,-205.07 789.85,-187.25 785,-173 763.98,-111.21 708.94,-54.56 679.4,-27.39"/>
<polygon fill="none" stroke="#63b8ff" points="679.04,-27.07 671.9,-26.04 670.11,-19.05 677.25,-20.09 679.04,-27.07"/>
</a>
</g>
<text text-anchor="middle" x="822.5" y="-137.5" font-family="Helvetica,sans-Serif" font-size="10.00" fill="grey"> &#45;function_storage</text>
</g>
<!-- Node20 -->
<g id="Node000020" class="node">
<title>Node20</title>
<g id="a_Node000020"><a xlink:title=" ">
<polygon fill="white" stroke="transparent" points="860,-417 742,-417 742,-365 860,-365 860,-417"/>
<text text-anchor="start" x="746.5" y="-405" font-family="Helvetica,sans-Serif" font-size="10.00">std::map&lt; std::pair</text>
<text text-anchor="start" x="746.5" y="-394" font-family="Helvetica,sans-Serif" font-size="10.00">&lt; std::string, int &gt;</text>
<text text-anchor="start" x="746.5" y="-383" font-family="Helvetica,sans-Serif" font-size="10.00">, inja::FunctionStorage</text>
<text text-anchor="start" x="760" y="-372" font-family="Helvetica,sans-Serif" font-size="10.00">::FunctionData &gt;</text>
<polygon fill="none" stroke="#666666" points="742,-365 742,-417 860,-417 860,-365 742,-365"/>
</a>
</g>
</g>
<!-- Node20&#45;&gt;Node19 -->
<g id="edge26_Node000019_Node000020" class="edge">
<title>Node20&#45;&gt;Node19</title>
<g id="a_edge26_Node000019_Node000020"><a xlink:title=" ">
<path fill="none" stroke="#63b8ff" d="M798.38,-364.73C795.02,-332.31 789.25,-276.68 786.14,-246.66"/>
<polygon fill="none" stroke="#63b8ff" points="786.12,-246.45 781.52,-240.89 784.88,-234.51 789.48,-240.07 786.12,-246.45"/>
</a>
</g>
<text text-anchor="middle" x="841.5" y="-329.5" font-family="Helvetica,sans-Serif" font-size="10.00" fill="grey"> &#45;function_storage</text>
</g>
<!-- Node21&#45;&gt;Node20 -->
<g id="edge27_Node000020_Node000021" class="edge">
<title>Node21&#45;&gt;Node20</title>
<g id="a_edge27_Node000020_Node000021"><a xlink:title=" ">
<path fill="none" stroke="#63b8ff" d="M906.67,-473.45C869.62,-465.1 827.65,-455.41 826,-454 818.38,-447.47 813.05,-438.27 809.34,-428.96"/>
<polygon fill="none" stroke="#63b8ff" points="809.25,-428.68 803.56,-424.25 805.45,-417.29 811.15,-421.72 809.25,-428.68"/>
</a>
</g>
<text text-anchor="middle" x="843" y="-442" font-family="Helvetica,sans-Serif" font-size="10.00" fill="grey"> +keys</text>
</g>
<!-- Node22 -->
<g id="Node000022" class="node">
<title>Node22</title>
<g id="a_Node000022"><a xlink:href="structinja_1_1FunctionStorage_1_1FunctionData.html" target="_top" xlink:title=" ">
<polygon fill="white" stroke="transparent" points="735,-502 623,-502 623,-472 735,-472 735,-502"/>
<text text-anchor="start" x="627.5" y="-490" font-family="Helvetica,sans-Serif" font-size="10.00">inja::FunctionStorage</text>
<text text-anchor="start" x="643.5" y="-479" font-family="Helvetica,sans-Serif" font-size="10.00">::FunctionData</text>
<polygon fill="none" stroke="#666666" points="623,-472 623,-502 735,-502 735,-472 623,-472"/>
</a>
</g>
</g>
<!-- Node22&#45;&gt;Node20 -->
<g id="edge29_Node000020_Node000022" class="edge">
<title>Node22&#45;&gt;Node20</title>
<g id="a_edge29_Node000020_Node000022"><a xlink:title=" ">
<path fill="none" stroke="#63b8ff" d="M663.04,-471.88C652.95,-461.22 643.33,-446.53 652,-435 661.91,-421.83 696.43,-411.42 729.76,-404.14"/>
<polygon fill="none" stroke="#63b8ff" points="730.18,-404.05 735.24,-398.91 741.93,-401.6 736.87,-406.74 730.18,-404.05"/>
</a>
</g>
<text text-anchor="middle" x="681" y="-442" font-family="Helvetica,sans-Serif" font-size="10.00" fill="grey"> +elements</text>
</g>
<!-- Node23&#45;&gt;Node1 -->
<g id="edge30_Node000001_Node000023" class="edge">
<title>Node23&#45;&gt;Node1</title>
<g id="a_edge30_Node000001_Node000023"><a xlink:title=" ">
<path fill="none" stroke="#63b8ff" d="M1387.7,-82.46C1370.22,-69.79 1335.05,-46.51 1301,-37 1244.04,-21.08 840.35,-13.34 704.49,-11.16"/>
<polygon fill="none" stroke="#63b8ff" points="704.2,-11.15 698.14,-15.06 692.2,-10.97 698.26,-7.06 704.2,-11.15"/>
</a>
</g>
<text text-anchor="middle" x="1377" y="-51" font-family="Helvetica,sans-Serif" font-size="10.00" fill="grey"> &#45;peek_tok</text>
<text text-anchor="middle" x="1377" y="-40" font-family="Helvetica,sans-Serif" font-size="10.00" fill="grey">&#45;tok</text>
</g>
<!-- Node24&#45;&gt;Node1 -->
<g id="edge34_Node000001_Node000024" class="edge">
<title>Node24&#45;&gt;Node1</title>
<g id="a_edge34_Node000001_Node000024"><a xlink:title=" ">
<path fill="none" stroke="#63b8ff" d="M184.75,-705.5C171.98,-701.43 159.83,-695.01 151,-685 92.55,-618.72 124,-576.37 124,-488 124,-488 124,-488 124,-91 124,-7.48 221.87,-52.19 304,-37 414.78,-16.51 547.74,-11.76 615.52,-10.72"/>
<polygon fill="none" stroke="#63b8ff" points="615.79,-10.72 621.74,-6.64 627.79,-10.57 621.84,-14.64 615.79,-10.72"/>
</a>
</g>
<text text-anchor="middle" x="184.5" y="-276" font-family="Helvetica,sans-Serif" font-size="10.00" fill="grey"> &#45;current_expression_list</text>
</g>
<!-- Node24&#45;&gt;Node28 -->
<g id="edge42_Node000028_Node000024" class="edge">
<title>Node24&#45;&gt;Node28</title>
<g id="a_edge42_Node000028_Node000024"><a xlink:title=" ">
<path fill="none" stroke="#63b8ff" d="M194.85,-702.88C185.5,-698.93 176.91,-693.22 171,-685 149.59,-655.23 147.25,-547.94 171,-520 187.09,-501.07 247.18,-493.31 296.63,-490.15"/>
<polygon fill="none" stroke="#63b8ff" points="296.64,-490.15 302.4,-485.81 308.62,-489.45 302.86,-493.79 296.64,-490.15"/>
</a>
</g>
<text text-anchor="middle" x="199.5" y="-600" font-family="Helvetica,sans-Serif" font-size="10.00" fill="grey"> +condition</text>
</g>
<!-- Node24&#45;&gt;Node30 -->
<g id="edge47_Node000030_Node000024" class="edge">
<title>Node24&#45;&gt;Node30</title>
<g id="a_edge47_Node000030_Node000024"><a xlink:title=" ">
<path fill="none" stroke="#63b8ff" d="M248.29,-702.61C242.99,-672.01 230.15,-570.17 283,-520 307.51,-496.73 400.62,-507.27 434,-502 440.05,-501.04 446.37,-499.95 452.64,-498.79"/>
<polygon fill="none" stroke="#63b8ff" points="452.76,-498.77 457.9,-493.72 464.54,-496.53 459.4,-501.58 452.76,-498.77"/>
</a>
</g>
<text text-anchor="middle" x="311.5" y="-600" font-family="Helvetica,sans-Serif" font-size="10.00" fill="grey"> +condition</text>
</g>
<!-- Node25 -->
<g id="Node000025" class="node">
<title>Node25</title>
<g id="a_Node000025"><a xlink:title=" ">
<polygon fill="white" stroke="transparent" points="328,-799 216,-799 216,-769 328,-769 328,-799"/>
<text text-anchor="start" x="220.5" y="-787" font-family="Helvetica,sans-Serif" font-size="10.00">std::shared_ptr&lt; inja</text>
<text text-anchor="start" x="223.5" y="-776" font-family="Helvetica,sans-Serif" font-size="10.00">::ExpressionNode &gt;</text>
<polygon fill="none" stroke="#666666" points="216,-769 216,-799 328,-799 328,-769 216,-769"/>
</a>
</g>
</g>
<!-- Node25&#45;&gt;Node24 -->
<g id="edge36_Node000024_Node000025" class="edge">
<title>Node25&#45;&gt;Node24</title>
<g id="a_edge36_Node000024_Node000025"><a xlink:title=" ">
<path fill="none" stroke="#63b8ff" d="M267.55,-768.94C264.37,-758.9 260.05,-745.25 256.49,-734"/>
<polygon fill="none" stroke="#63b8ff" points="256.4,-733.71 250.77,-729.19 252.78,-722.27 258.4,-726.78 256.4,-733.71"/>
</a>
</g>
<text text-anchor="middle" x="277.5" y="-743" font-family="Helvetica,sans-Serif" font-size="10.00" fill="grey"> +root</text>
</g>
<!-- Node26&#45;&gt;Node25 -->
<g id="edge37_Node000025_Node000026" class="edge">
<title>Node26&#45;&gt;Node25</title>
<g id="a_edge37_Node000025_Node000026"><a xlink:title=" ">
<path fill="none" stroke="#63b8ff" d="M282.62,-851.4C281.06,-841.62 278.43,-825.18 276.18,-811.11"/>
<polygon fill="none" stroke="#63b8ff" points="276.15,-810.96 271.26,-805.67 274.26,-799.11 279.16,-804.41 276.15,-810.96"/>
</a>
</g>
<text text-anchor="middle" x="291.5" y="-820" font-family="Helvetica,sans-Serif" font-size="10.00" fill="grey"> +ptr</text>
</g>
<!-- Node27 -->
<g id="Node000027" class="node">
<title>Node27</title>
<g id="a_Node000027"><a xlink:title=" ">
<polygon fill="white" stroke="transparent" points="452,-240 302,-240 302,-210 452,-210 452,-240"/>
<text text-anchor="start" x="306.5" y="-228" font-family="Helvetica,sans-Serif" font-size="10.00">std::stack&lt; inja::IfStatement</text>
<text text-anchor="start" x="354" y="-217" font-family="Helvetica,sans-Serif" font-size="10.00">Node * &gt;</text>
<polygon fill="none" stroke="#666666" points="302,-210 302,-240 452,-240 452,-210 302,-210"/>
</a>
</g>
</g>
<!-- Node27&#45;&gt;Node1 -->
<g id="edge39_Node000001_Node000027" class="edge">
<title>Node27&#45;&gt;Node1</title>
<g id="a_edge39_Node000001_Node000027"><a xlink:title=" ">
<path fill="none" stroke="#63b8ff" d="M367.83,-209.7C356.03,-189.31 338.99,-151.45 356,-125 412.29,-37.47 545.36,-16.64 615.29,-11.82"/>
<polygon fill="none" stroke="#63b8ff" points="615.6,-11.81 621.36,-7.46 627.58,-11.1 621.83,-15.45 615.6,-11.81"/>
</a>
</g>
<text text-anchor="middle" x="406.5" y="-137.5" font-family="Helvetica,sans-Serif" font-size="10.00" fill="grey"> &#45;if_statement_stack</text>
</g>
<!-- Node28&#45;&gt;Node27 -->
<g id="edge40_Node000027_Node000028" class="edge">
<title>Node28&#45;&gt;Node27</title>
<g id="a_edge40_Node000027_Node000028"><a xlink:title=" ">
<path fill="none" stroke="#63b8ff" d="M367.33,-477.35C368.68,-442.19 373.8,-309.18 375.99,-252.18"/>
<polygon fill="none" stroke="#63b8ff" points="376,-252.02 372.23,-245.87 376.46,-240.03 380.23,-246.18 376,-252.02"/>
</a>
</g>
<text text-anchor="middle" x="401" y="-388.5" font-family="Helvetica,sans-Serif" font-size="10.00" fill="grey"> +elements</text>
</g>
<!-- Node29 -->
<g id="Node000029" class="node">
<title>Node29</title>
<g id="a_Node000029"><a xlink:title=" ">
<polygon fill="white" stroke="transparent" points="624,-155 466,-155 466,-125 624,-125 624,-155"/>
<text text-anchor="start" x="470.5" y="-143" font-family="Helvetica,sans-Serif" font-size="10.00">std::stack&lt; inja::ForStatement</text>
<text text-anchor="start" x="522" y="-132" font-family="Helvetica,sans-Serif" font-size="10.00">Node * &gt;</text>
<polygon fill="none" stroke="#666666" points="466,-125 466,-155 624,-155 624,-125 466,-125"/>
</a>
</g>
</g>
<!-- Node29&#45;&gt;Node1 -->
<g id="edge44_Node000001_Node000029" class="edge">
<title>Node29&#45;&gt;Node1</title>
<g id="a_edge44_Node000001_Node000029"><a xlink:title=" ">
<path fill="none" stroke="#63b8ff" d="M538.77,-124.92C533.92,-111.63 529.32,-91.62 538,-77 554.87,-48.6 588.6,-31.55 616.32,-21.84"/>
<polygon fill="none" stroke="#63b8ff" points="616.36,-21.83 620.83,-16.17 627.77,-18.12 623.3,-23.78 616.36,-21.83"/>
</a>
</g>
<text text-anchor="middle" x="592" y="-89.5" font-family="Helvetica,sans-Serif" font-size="10.00" fill="grey"> &#45;for_statement_stack</text>
</g>
<!-- Node30&#45;&gt;Node29 -->
<g id="edge45_Node000029_Node000030" class="edge">
<title>Node30&#45;&gt;Node29</title>
<g id="a_edge45_Node000029_Node000030"><a xlink:title=" ">
<path fill="none" stroke="#63b8ff" d="M505.31,-477.19C505.88,-460.55 507,-423.34 507,-392 507,-392 507,-392 507,-224 507,-202.75 517.42,-181 527.35,-165.09"/>
<polygon fill="none" stroke="#63b8ff" points="527.36,-165.08 527.35,-157.87 534.01,-155.09 534.01,-162.31 527.36,-165.08"/>
</a>
</g>
<text text-anchor="middle" x="536" y="-329.5" font-family="Helvetica,sans-Serif" font-size="10.00" fill="grey"> +elements</text>
</g>
<!-- Node31&#45;&gt;Node1 -->
<g id="edge49_Node000001_Node000031" class="edge">
<title>Node31&#45;&gt;Node1</title>
<g id="a_edge49_Node000001_Node000031"><a xlink:title=" ">
<path fill="none" stroke="#63b8ff" d="M660,-316.73C660,-296.54 660,-258.45 660,-226 660,-226 660,-226 660,-91 660,-70.89 660,-47.96 660,-31.73"/>
<polygon fill="none" stroke="#63b8ff" points="660,-31.43 656,-25.43 660,-19.43 664,-25.43 660,-31.43"/>
</a>
</g>
<text text-anchor="middle" x="720.5" y="-180" font-family="Helvetica,sans-Serif" font-size="10.00" fill="grey"> &#45;block_statement_stack</text>
</g>
</g>
</svg>
