<?xml version="1.0" encoding="UTF-8" standalone="no"?>
<!DOCTYPE svg PUBLIC "-//W3C//DTD SVG 1.1//EN"
 "http://www.w3.org/Graphics/SVG/1.1/DTD/svg11.dtd">
<!-- Generated by graphviz version 14.1.1 (0)
 -->
<!-- Title: json_schema_validator Pages: 1 -->
<svg width="256pt" height="406pt"
 viewBox="0.00 0.00 256.00 406.00" xmlns="http://www.w3.org/2000/svg" xmlns:xlink="http://www.w3.org/1999/xlink">

<svg id="main" version="1.1" xmlns="http://www.w3.org/2000/svg" xmlns:xlink="http://www.w3.org/1999/xlink" xml:space="preserve">

<style type="text/css"><![CDATA[
.node, .edge {opacity: 0.7;}
.node.selected, .edge.selected {opacity: 1;}
.edge:hover path { stroke: red; }
.edge:hover polygon { stroke: red; fill: red; }
]]></style>
<script type="application/ecmascript" xlink:href="svg.min.js"/>
<svg id="graph" class="graph">
<g id="graph0" class="graph" transform="scale(1 1) rotate(0) translate(4 401.5)">
<title>json_schema_validator</title>
<!-- Node1 -->
<g id="Node000001" class="node">
<title>Node1</title>
<g id="a_Node000001"><a xlink:title=" ">
<polygon fill="#999999" stroke="none" points="154.5,-20.75 34,-20.75 34,0 154.5,0 154.5,-20.75"/>
<text xml:space="preserve" text-anchor="start" x="38" y="-7.25" font-family="Helvetica,sans-Serif" font-size="10.00">json_schema_validator</text>
<polygon fill="none" stroke="#666666" points="34,0 34,-20.75 154.5,-20.75 154.5,0 34,0"/>
</a>
</g>
</g>
<!-- Node2 -->
<g id="Node000002" class="node">
<title>Node2</title>
<g id="a_Node000002"><a xlink:title=" ">
<polygon fill="white" stroke="none" points="102.5,-102.62 0,-102.62 0,-81.88 102.5,-81.88 102.5,-102.62"/>
<text xml:space="preserve" text-anchor="start" x="4" y="-89.12" font-family="Helvetica,sans-Serif" font-size="10.00">std::vector&lt; json &gt;</text>
<polygon fill="none" stroke="#666666" points="0,-81.88 0,-102.62 102.5,-102.62 102.5,-81.88 0,-81.88"/>
</a>
</g>
</g>
<!-- Node2&#45;&gt;Node1 -->
<g id="edge1_Node000001_Node000002" class="edge">
<title>Node2&#45;&gt;Node1</title>
<g id="a_edge1_Node000001_Node000002"><a xlink:title=" ">
<path fill="none" stroke="#63b8ff" d="M54.85,-82.09C59.19,-71.42 66.92,-53.38 75.25,-38.75 76.64,-36.32 78.18,-33.82 79.77,-31.38"/>
<polygon fill="none" stroke="#63b8ff" points="79.79,-31.34 79.92,-24.13 86.62,-21.47 86.5,-28.68 79.79,-31.34"/>
</a>
</g>
<text xml:space="preserve" text-anchor="start" x="78.25" y="-45" font-family="Helvetica,sans-Serif" font-size="10.00" fill="grey">+schemas_</text>
</g>
<!-- Node3 -->
<g id="Node000003" class="node">
<title>Node3</title>
<g id="a_Node000003"><a xlink:title=" ">
<polygon fill="white" stroke="none" points="247.88,-109 120.62,-109 120.62,-75.5 247.88,-75.5 247.88,-109"/>
<text xml:space="preserve" text-anchor="start" x="124.62" y="-95.5" font-family="Helvetica,sans-Serif" font-size="10.00">std::map&lt; nlohmann</text>
<text xml:space="preserve" text-anchor="start" x="124.62" y="-82.75" font-family="Helvetica,sans-Serif" font-size="10.00">::json_uri, const json * &gt;</text>
<polygon fill="none" stroke="#666666" points="120.62,-75.5 120.62,-109 247.88,-109 247.88,-75.5 120.62,-75.5"/>
</a>
</g>
</g>
<!-- Node3&#45;&gt;Node1 -->
<g id="edge2_Node000001_Node000003" class="edge">
<title>Node3&#45;&gt;Node1</title>
<g id="a_edge2_Node000001_Node000003"><a xlink:title=" ">
<path fill="none" stroke="#63b8ff" d="M172.81,-75.92C164.09,-64.82 151.37,-49.89 138.25,-38.75 133.44,-34.67 127.97,-30.77 122.56,-27.26"/>
<polygon fill="none" stroke="#63b8ff" points="122.78,-27.4 115.57,-27.68 112.54,-21.14 119.74,-20.86 122.78,-27.4"/>
</a>
</g>
<text xml:space="preserve" text-anchor="start" x="159.06" y="-45" font-family="Helvetica,sans-Serif" font-size="10.00" fill="grey">+schema_store_</text>
</g>
<!-- Node4 -->
<g id="Node000004" class="node">
<title>Node4</title>
<g id="a_Node000004"><a xlink:href="classnlohmann_1_1json__uri.html" target="_top" xlink:title=" ">
<polygon fill="white" stroke="none" points="234.75,-184.5 133.75,-184.5 133.75,-163.75 234.75,-163.75 234.75,-184.5"/>
<text xml:space="preserve" text-anchor="start" x="137.75" y="-171" font-family="Helvetica,sans-Serif" font-size="10.00">nlohmann::json_uri</text>
<polygon fill="none" stroke="#666666" points="133.75,-163.75 133.75,-184.5 234.75,-184.5 234.75,-163.75 133.75,-163.75"/>
</a>
</g>
</g>
<!-- Node4&#45;&gt;Node3 -->
<g id="edge3_Node000003_Node000004" class="edge">
<title>Node4&#45;&gt;Node3</title>
<g id="a_edge3_Node000003_Node000004"><a xlink:title=" ">
<path fill="none" stroke="#63b8ff" d="M184.25,-163.96C184.25,-153.67 184.25,-136.46 184.25,-121.6"/>
<polygon fill="none" stroke="#63b8ff" points="184.25,-121.78 180.25,-115.78 184.25,-109.78 188.25,-115.78 184.25,-121.78"/>
</a>
</g>
<text xml:space="preserve" text-anchor="start" x="187.25" y="-133.25" font-family="Helvetica,sans-Serif" font-size="10.00" fill="grey">+keys</text>
</g>
<!-- Node5 -->
<g id="Node000005" class="node">
<title>Node5</title>
<g id="a_Node000005"><a xlink:title=" ">
<polygon fill="white" stroke="none" points="212.62,-327 155.88,-327 155.88,-306.25 212.62,-306.25 212.62,-327"/>
<text xml:space="preserve" text-anchor="start" x="159.88" y="-313.5" font-family="Helvetica,sans-Serif" font-size="10.00">std::string</text>
<polygon fill="none" stroke="#666666" points="155.88,-306.25 155.88,-327 212.62,-327 212.62,-306.25 155.88,-306.25"/>
</a>
</g>
</g>
<!-- Node5&#45;&gt;Node4 -->
<g id="edge4_Node000004_Node000005" class="edge">
<title>Node5&#45;&gt;Node4</title>
<g id="a_edge4_Node000004_Node000005"><a xlink:title=" ">
<path fill="none" stroke="#63b8ff" d="M184.25,-306.41C184.25,-284.38 184.25,-228.19 184.25,-196.93"/>
<polygon fill="none" stroke="#63b8ff" points="184.25,-197.1 180.25,-191.1 184.25,-185.1 188.25,-191.1 184.25,-197.1"/>
</a>
</g>
<text xml:space="preserve" text-anchor="start" x="187.25" y="-275.75" font-family="Helvetica,sans-Serif" font-size="10.00" fill="grey">&#45;authority_</text>
<text xml:space="preserve" text-anchor="start" x="187.25" y="-259" font-family="Helvetica,sans-Serif" font-size="10.00" fill="grey">&#45;identifier_</text>
<text xml:space="preserve" text-anchor="start" x="187.25" y="-242.25" font-family="Helvetica,sans-Serif" font-size="10.00" fill="grey">&#45;path_</text>
<text xml:space="preserve" text-anchor="start" x="187.25" y="-225.5" font-family="Helvetica,sans-Serif" font-size="10.00" fill="grey">&#45;scheme_</text>
<text xml:space="preserve" text-anchor="start" x="187.25" y="-208.75" font-family="Helvetica,sans-Serif" font-size="10.00" fill="grey">&#45;urn_</text>
</g>
<!-- Node6 -->
<g id="Node000006" class="node">
<title>Node6</title>
<g id="a_Node000006"><a xlink:title=" ">
<polygon fill="white" stroke="none" points="232.12,-397.5 136.38,-397.5 136.38,-364 232.12,-364 232.12,-397.5"/>
<text xml:space="preserve" text-anchor="start" x="140.38" y="-384" font-family="Helvetica,sans-Serif" font-size="10.00">std::basic_string&lt;</text>
<text xml:space="preserve" text-anchor="start" x="165.88" y="-371.25" font-family="Helvetica,sans-Serif" font-size="10.00"> Char &gt;</text>
<polygon fill="none" stroke="#666666" points="136.38,-364 136.38,-397.5 232.12,-397.5 232.12,-364 136.38,-364"/>
</a>
</g>
</g>
<!-- Node6&#45;&gt;Node5 -->
<g id="edge5_Node000005_Node000006" class="edge">
<title>Node6&#45;&gt;Node5</title>
<g id="a_edge5_Node000005_Node000006"><a xlink:title=" ">
<path fill="none" stroke="#63b8ff" d="M184.25,-352.79C184.25,-343.46 184.25,-333.63 184.25,-326.74"/>
<polygon fill="none" stroke="#63b8ff" points="180.75,-352.56 184.25,-362.56 187.75,-352.56 180.75,-352.56"/>
</a>
</g>
</g>
</g>
</svg>
</svg>

<style type='text/css'>
<![CDATA[
[data-mouse-over-selected='false'] { opacity: 0.7; }
[data-mouse-over-selected='true']  { opacity: 1.0; }
]]>
</style>
<script type="application/ecmascript"><![CDATA[
document.addEventListener('DOMContentLoaded', (event) => {
  highlightEdges();
  highlightAdjacentNodes();
});
]]></script>
</svg>
