<?xml version="1.0" encoding="UTF-8" standalone="no"?>
<!DOCTYPE svg PUBLIC "-//W3C//DTD SVG 1.1//EN"
 "http://www.w3.org/Graphics/SVG/1.1/DTD/svg11.dtd">
<!-- Generated by graphviz version 14.1.1 (0)
 -->
<!-- Title: mqtt::bridge::SocketContextFactory::create Pages: 1 -->
<svg width="532pt" height="704pt"
 viewBox="0.00 0.00 532.00 704.00" xmlns="http://www.w3.org/2000/svg" xmlns:xlink="http://www.w3.org/1999/xlink">
<g id="graph0" class="graph" transform="scale(1 1) rotate(0) translate(4 699.5)">
<title>mqtt::bridge::SocketContextFactory::create</title>
<!-- Node1 -->
<g id="Node000001" class="node">
<title>Node1</title>
<g id="a_Node000001"><a xlink:title=" ">
<polygon fill="#999999" stroke="#666666" points="152.5,-501.5 0,-501.5 0,-468 152.5,-468 152.5,-501.5"/>
<text xml:space="preserve" text-anchor="start" x="8" y="-488" font-family="Helvetica,sans-Serif" font-size="10.00">mqtt::bridge::SocketContext</text>
<text xml:space="preserve" text-anchor="middle" x="76.25" y="-475.25" font-family="Helvetica,sans-Serif" font-size="10.00">Factory::create</text>
</a>
</g>
</g>
<!-- Node2 -->
<g id="Node000002" class="node">
<title>Node2</title>
<g id="a_Node000002"><a xlink:href="classmqtt_1_1bridge_1_1lib_1_1Broker.html#acff6cddc56c9cdc2b0688d6482034131" target="_top" xlink:title=" ">
<polygon fill="white" stroke="#666666" points="299.38,-695.5 198.62,-695.5 198.62,-662 299.38,-662 299.38,-695.5"/>
<text xml:space="preserve" text-anchor="start" x="206.62" y="-682" font-family="Helvetica,sans-Serif" font-size="10.00">mqtt::bridge::lib::</text>
<text xml:space="preserve" text-anchor="middle" x="249" y="-669.25" font-family="Helvetica,sans-Serif" font-size="10.00">Broker::getBridge</text>
</a>
</g>
</g>
<!-- Node1&#45;&gt;Node2 -->
<g id="edge1_Node000001_Node000002" class="edge">
<title>Node1&#45;&gt;Node2</title>
<g id="a_edge1_Node000001_Node000002"><a xlink:title=" ">
<path fill="none" stroke="#63b8ff" d="M85.16,-501.53C100.93,-533.5 139.05,-603.85 188.5,-647.75 191.65,-650.54 195.09,-653.17 198.68,-655.61"/>
<polygon fill="#63b8ff" stroke="#63b8ff" points="196.82,-658.57 207.16,-660.86 200.5,-652.62 196.82,-658.57"/>
</a>
</g>
</g>
<!-- Node3 -->
<g id="Node000003" class="node">
<title>Node3</title>
<g id="a_Node000003"><a xlink:href="classmqtt_1_1bridge_1_1lib_1_1Broker.html#a6d2569d96d1c3c9775d3094a57d298e0" target="_top" xlink:title=" ">
<polygon fill="white" stroke="#666666" points="487.88,-628.5 381.12,-628.5 381.12,-595 487.88,-595 487.88,-628.5"/>
<text xml:space="preserve" text-anchor="start" x="389.12" y="-615" font-family="Helvetica,sans-Serif" font-size="10.00">mqtt::bridge::lib::</text>
<text xml:space="preserve" text-anchor="middle" x="434.5" y="-602.25" font-family="Helvetica,sans-Serif" font-size="10.00">Broker::getClientId</text>
</a>
</g>
</g>
<!-- Node1&#45;&gt;Node3 -->
<g id="edge2_Node000001_Node000003" class="edge">
<title>Node1&#45;&gt;Node3</title>
<g id="a_edge2_Node000001_Node000003"><a xlink:title=" ">
<path fill="none" stroke="#63b8ff" d="M85.64,-501.98C101.17,-531.6 137.5,-591.27 188.5,-614.75 245.62,-641.05 318.46,-635.98 369.82,-626.99"/>
<polygon fill="#63b8ff" stroke="#63b8ff" points="370.41,-630.44 379.61,-625.18 369.13,-623.56 370.41,-630.44"/>
</a>
</g>
</g>
<!-- Node4 -->
<g id="Node000004" class="node">
<title>Node4</title>
<g id="a_Node000004"><a xlink:href="classmqtt_1_1bridge_1_1lib_1_1Broker.html#a6eb76f6da39d0e64d2795ff275841042" target="_top" xlink:title=" ">
<polygon fill="white" stroke="#666666" points="309.5,-605.5 188.5,-605.5 188.5,-572 309.5,-572 309.5,-605.5"/>
<text xml:space="preserve" text-anchor="start" x="196.5" y="-592" font-family="Helvetica,sans-Serif" font-size="10.00">mqtt::bridge::lib::</text>
<text xml:space="preserve" text-anchor="middle" x="249" y="-579.25" font-family="Helvetica,sans-Serif" font-size="10.00">Broker::getEncryption</text>
</a>
</g>
</g>
<!-- Node1&#45;&gt;Node4 -->
<g id="edge3_Node000001_Node000004" class="edge">
<title>Node1&#45;&gt;Node4</title>
<g id="a_edge3_Node000001_Node000004"><a xlink:title=" ">
<path fill="none" stroke="#63b8ff" d="M98.98,-501.95C120.8,-518.74 155.8,-544.38 188.5,-562.75 190.82,-564.05 193.22,-565.34 195.67,-566.6"/>
<polygon fill="#63b8ff" stroke="#63b8ff" points="194,-569.68 204.52,-570.93 197.08,-563.39 194,-569.68"/>
</a>
</g>
</g>
<!-- Node5 -->
<g id="Node000005" class="node">
<title>Node5</title>
<g id="a_Node000005"><a xlink:href="classmqtt_1_1bridge_1_1lib_1_1Bridge.html#a0e0d9cc3ced601acae6ace51438070b7" target="_top" xlink:title=" ">
<polygon fill="white" stroke="#666666" points="299,-553.5 199,-553.5 199,-520 299,-520 299,-553.5"/>
<text xml:space="preserve" text-anchor="start" x="207" y="-540" font-family="Helvetica,sans-Serif" font-size="10.00">mqtt::bridge::lib::</text>
<text xml:space="preserve" text-anchor="middle" x="249" y="-527.25" font-family="Helvetica,sans-Serif" font-size="10.00">Bridge::getName</text>
</a>
</g>
</g>
<!-- Node1&#45;&gt;Node5 -->
<g id="edge4_Node000001_Node000005" class="edge">
<title>Node1&#45;&gt;Node5</title>
<g id="a_edge4_Node000001_Node000005"><a xlink:title=" ">
<path fill="none" stroke="#63b8ff" d="M133.63,-501.92C151.01,-507.21 170.2,-513.06 187.82,-518.42"/>
<polygon fill="#63b8ff" stroke="#63b8ff" points="186.53,-521.69 197.11,-521.25 188.57,-514.99 186.53,-521.69"/>
</a>
</g>
</g>
<!-- Node6 -->
<g id="Node000006" class="node">
<title>Node6</title>
<g id="a_Node000006"><a xlink:href="classmqtt_1_1bridge_1_1lib_1_1Broker.html#a0cb6a0b6686369928942a63621677fc7" target="_top" xlink:title=" ">
<polygon fill="white" stroke="#666666" points="299,-501.5 199,-501.5 199,-468 299,-468 299,-501.5"/>
<text xml:space="preserve" text-anchor="start" x="207" y="-488" font-family="Helvetica,sans-Serif" font-size="10.00">mqtt::bridge::lib::</text>
<text xml:space="preserve" text-anchor="middle" x="249" y="-475.25" font-family="Helvetica,sans-Serif" font-size="10.00">Broker::getName</text>
</a>
</g>
</g>
<!-- Node1&#45;&gt;Node6 -->
<g id="edge5_Node000001_Node000006" class="edge">
<title>Node1&#45;&gt;Node6</title>
<g id="a_edge5_Node000001_Node000006"><a xlink:title=" ">
<path fill="none" stroke="#63b8ff" d="M152.64,-484.75C164.18,-484.75 175.96,-484.75 187.13,-484.75"/>
<polygon fill="#63b8ff" stroke="#63b8ff" points="187.01,-488.25 197.01,-484.75 187.01,-481.25 187.01,-488.25"/>
</a>
</g>
</g>
<!-- Node7 -->
<g id="Node000007" class="node">
<title>Node7</title>
<g id="a_Node000007"><a xlink:href="classmqtt_1_1bridge_1_1lib_1_1Broker.html#a95796f4a7ef94d4ca6596fb436bb97ca" target="_top" xlink:title=" ">
<polygon fill="white" stroke="#666666" points="303.5,-449.5 194.5,-449.5 194.5,-416 303.5,-416 303.5,-449.5"/>
<text xml:space="preserve" text-anchor="start" x="202.5" y="-436" font-family="Helvetica,sans-Serif" font-size="10.00">mqtt::bridge::lib::</text>
<text xml:space="preserve" text-anchor="middle" x="249" y="-423.25" font-family="Helvetica,sans-Serif" font-size="10.00">Broker::getProtocol</text>
</a>
</g>
</g>
<!-- Node1&#45;&gt;Node7 -->
<g id="edge6_Node000001_Node000007" class="edge">
<title>Node1&#45;&gt;Node7</title>
<g id="a_edge6_Node000001_Node000007"><a xlink:title=" ">
<path fill="none" stroke="#63b8ff" d="M133.63,-467.58C149.65,-462.7 167.21,-457.35 183.66,-452.34"/>
<polygon fill="#63b8ff" stroke="#63b8ff" points="184.29,-455.81 192.84,-449.55 182.25,-449.11 184.29,-455.81"/>
</a>
</g>
</g>
<!-- Node8 -->
<g id="Node000008" class="node">
<title>Node8</title>
<g id="a_Node000008"><a xlink:href="classmqtt_1_1bridge_1_1lib_1_1Broker.html#a42387cd6087e5d11c2bc441a64dfaffc" target="_top" xlink:title=" ">
<polygon fill="white" stroke="#666666" points="299,-397.5 199,-397.5 199,-364 299,-364 299,-397.5"/>
<text xml:space="preserve" text-anchor="start" x="207" y="-384" font-family="Helvetica,sans-Serif" font-size="10.00">mqtt::bridge::lib::</text>
<text xml:space="preserve" text-anchor="middle" x="249" y="-371.25" font-family="Helvetica,sans-Serif" font-size="10.00">Broker::getTopics</text>
</a>
</g>
</g>
<!-- Node1&#45;&gt;Node8 -->
<g id="edge7_Node000001_Node000008" class="edge">
<title>Node1&#45;&gt;Node8</title>
<g id="a_edge7_Node000001_Node000008"><a xlink:title=" ">
<path fill="none" stroke="#63b8ff" d="M98.98,-467.55C120.8,-450.76 155.8,-425.12 188.5,-406.75 190.82,-405.45 193.22,-404.16 195.67,-402.9"/>
<polygon fill="#63b8ff" stroke="#63b8ff" points="197.08,-406.11 204.52,-398.57 194,-399.82 197.08,-406.11"/>
</a>
</g>
</g>
<!-- Node9 -->
<g id="Node000009" class="node">
<title>Node9</title>
<g id="a_Node000009"><a xlink:href="classmqtt_1_1bridge_1_1lib_1_1Broker.html#ab06b48a9b2540604ca385935b79aa351" target="_top" xlink:title=" ">
<polygon fill="white" stroke="#666666" points="306.5,-345.5 191.5,-345.5 191.5,-312 306.5,-312 306.5,-345.5"/>
<text xml:space="preserve" text-anchor="start" x="199.5" y="-332" font-family="Helvetica,sans-Serif" font-size="10.00">mqtt::bridge::lib::</text>
<text xml:space="preserve" text-anchor="middle" x="249" y="-319.25" font-family="Helvetica,sans-Serif" font-size="10.00">Broker::getTransport</text>
</a>
</g>
</g>
<!-- Node1&#45;&gt;Node9 -->
<g id="edge8_Node000001_Node000009" class="edge">
<title>Node1&#45;&gt;Node9</title>
<g id="a_edge8_Node000001_Node000009"><a xlink:title=" ">
<path fill="none" stroke="#63b8ff" d="M87.98,-467.85C105.91,-440.78 144.34,-387.46 188.5,-354.75 189.86,-353.74 191.26,-352.77 192.7,-351.82"/>
<polygon fill="#63b8ff" stroke="#63b8ff" points="194.47,-354.84 201.3,-346.74 190.91,-348.81 194.47,-354.84"/>
</a>
</g>
</g>
<!-- Node10 -->
<g id="Node000010" class="node">
<title>Node10</title>
<g id="a_Node000010"><a xlink:href="classmqtt_1_1bridge_1_1lib_1_1Mqtt.html#a6e485f1bb766fbeffdd53a23fc3ced4f" target="_top" xlink:title=" ">
<polygon fill="white" stroke="#666666" points="299,-293.5 199,-293.5 199,-260 299,-260 299,-293.5"/>
<text xml:space="preserve" text-anchor="start" x="207" y="-280" font-family="Helvetica,sans-Serif" font-size="10.00">mqtt::bridge::lib::</text>
<text xml:space="preserve" text-anchor="middle" x="249" y="-267.25" font-family="Helvetica,sans-Serif" font-size="10.00">Mqtt::Mqtt</text>
</a>
</g>
</g>
<!-- Node1&#45;&gt;Node10 -->
<g id="edge9_Node000001_Node000010" class="edge">
<title>Node1&#45;&gt;Node10</title>
<g id="a_edge9_Node000001_Node000010"><a xlink:title=" ">
<path fill="none" stroke="#63b8ff" d="M83.6,-467.58C97.46,-432.21 133.65,-350.57 188.5,-302.75 189.58,-301.81 190.69,-300.9 191.84,-300.02"/>
<polygon fill="#63b8ff" stroke="#63b8ff" points="193.51,-303.12 199.9,-294.67 189.64,-297.28 193.51,-303.12"/>
</a>
</g>
</g>
<!-- Node10&#45;&gt;Node3 -->
<g id="edge11_Node000010_Node000003" class="edge">
<title>Node10&#45;&gt;Node3</title>
<g id="a_edge11_Node000010_Node000003"><a xlink:title=" ">
<path fill="none" stroke="#63b8ff" d="M299.23,-292.97C303.12,-295.74 306.64,-298.98 309.5,-302.75 379.93,-395.75 279.61,-466.48 345.5,-562.75 352.91,-573.58 363.53,-582.27 374.85,-589.14"/>
<polygon fill="#63b8ff" stroke="#63b8ff" points="373.15,-592.2 383.59,-593.99 376.54,-586.08 373.15,-592.2"/>
</a>
</g>
</g>
<!-- Node11 -->
<g id="Node000011" class="node">
<title>Node11</title>
<g id="a_Node000011"><a xlink:href="classmqtt_1_1bridge_1_1lib_1_1Broker.html#a7ef2ec65092282a8690a4c1f6ddeba8b" target="_top" xlink:title=" ">
<polygon fill="white" stroke="#666666" points="501.75,-553.5 367.25,-553.5 367.25,-520 501.75,-520 501.75,-553.5"/>
<text xml:space="preserve" text-anchor="start" x="375.25" y="-540" font-family="Helvetica,sans-Serif" font-size="10.00">mqtt::bridge::lib::</text>
<text xml:space="preserve" text-anchor="middle" x="434.5" y="-527.25" font-family="Helvetica,sans-Serif" font-size="10.00">Broker::getCleanSession</text>
</a>
</g>
</g>
<!-- Node10&#45;&gt;Node11 -->
<g id="edge10_Node000010_Node000011" class="edge">
<title>Node10&#45;&gt;Node11</title>
<g id="a_edge10_Node000010_Node000011"><a xlink:title=" ">
<path fill="none" stroke="#63b8ff" d="M299.37,-293.27C303.18,-295.97 306.65,-299.11 309.5,-302.75 367.4,-376.57 283.11,-440.68 345.5,-510.75 348.93,-514.6 352.9,-517.9 357.22,-520.71"/>
<polygon fill="#63b8ff" stroke="#63b8ff" points="355.37,-523.69 365.82,-525.41 358.73,-517.55 355.37,-523.69"/>
</a>
</g>
</g>
<!-- Node12 -->
<g id="Node000012" class="node">
<title>Node12</title>
<g id="a_Node000012"><a xlink:href="classmqtt_1_1bridge_1_1lib_1_1Broker.html#a537a5d925a917be20f784ac106bc7d2e" target="_top" xlink:title=" ">
<polygon fill="white" stroke="#666666" points="493.5,-501.5 375.5,-501.5 375.5,-468 493.5,-468 493.5,-501.5"/>
<text xml:space="preserve" text-anchor="start" x="383.5" y="-488" font-family="Helvetica,sans-Serif" font-size="10.00">mqtt::bridge::lib::</text>
<text xml:space="preserve" text-anchor="middle" x="434.5" y="-475.25" font-family="Helvetica,sans-Serif" font-size="10.00">Broker::getKeepAlive</text>
</a>
</g>
</g>
<!-- Node10&#45;&gt;Node12 -->
<g id="edge12_Node000010_Node000012" class="edge">
<title>Node10&#45;&gt;Node12</title>
<g id="a_edge12_Node000010_Node000012"><a xlink:title=" ">
<path fill="none" stroke="#63b8ff" d="M299.44,-293.63C303.19,-296.26 306.62,-299.28 309.5,-302.75 354.95,-357.5 296.73,-406.94 345.5,-458.75 350.98,-464.57 357.69,-469.11 364.95,-472.64"/>
<polygon fill="#63b8ff" stroke="#63b8ff" points="363.13,-475.68 373.71,-476.29 365.82,-469.22 363.13,-475.68"/>
</a>
</g>
</g>
<!-- Node13 -->
<g id="Node000013" class="node">
<title>Node13</title>
<g id="a_Node000013"><a xlink:href="classmqtt_1_1bridge_1_1lib_1_1Broker.html#a12c314cbad6137819c767bc6ead98d3e" target="_top" xlink:title=" ">
<polygon fill="white" stroke="#666666" points="507,-449.5 362,-449.5 362,-416 507,-416 507,-449.5"/>
<text xml:space="preserve" text-anchor="start" x="370" y="-436" font-family="Helvetica,sans-Serif" font-size="10.00">mqtt::bridge::lib::</text>
<text xml:space="preserve" text-anchor="middle" x="434.5" y="-423.25" font-family="Helvetica,sans-Serif" font-size="10.00">Broker::getLoopPrevention</text>
</a>
</g>
</g>
<!-- Node10&#45;&gt;Node13 -->
<g id="edge13_Node000010_Node000013" class="edge">
<title>Node10&#45;&gt;Node13</title>
<g id="a_edge13_Node000010_Node000013"><a xlink:title=" ">
<path fill="none" stroke="#63b8ff" d="M299.06,-293.97C302.88,-296.53 306.44,-299.44 309.5,-302.75 342.7,-338.67 310.13,-372.97 345.5,-406.75 347.57,-408.72 349.78,-410.55 352.1,-412.24"/>
<polygon fill="#63b8ff" stroke="#63b8ff" points="349.91,-415 360.26,-417.29 353.6,-409.05 349.91,-415"/>
</a>
</g>
</g>
<!-- Node14 -->
<g id="Node000014" class="node">
<title>Node14</title>
<g id="a_Node000014"><a xlink:href="classmqtt_1_1bridge_1_1lib_1_1Broker.html#a8b0a98fcc637171cc995cee2a8bd5685" target="_top" xlink:title=" ">
<polygon fill="white" stroke="#666666" points="492.38,-397.5 376.62,-397.5 376.62,-364 492.38,-364 492.38,-397.5"/>
<text xml:space="preserve" text-anchor="start" x="384.62" y="-384" font-family="Helvetica,sans-Serif" font-size="10.00">mqtt::bridge::lib::</text>
<text xml:space="preserve" text-anchor="middle" x="434.5" y="-371.25" font-family="Helvetica,sans-Serif" font-size="10.00">Broker::getPassword</text>
</a>
</g>
</g>
<!-- Node10&#45;&gt;Node14 -->
<g id="edge14_Node000010_Node000014" class="edge">
<title>Node10&#45;&gt;Node14</title>
<g id="a_edge14_Node000010_Node000014"><a xlink:title=" ">
<path fill="none" stroke="#63b8ff" d="M296.34,-293.88C301.01,-296.5 305.5,-299.45 309.5,-302.75 331.2,-320.61 322.73,-338.27 345.5,-354.75 351.66,-359.2 358.58,-362.9 365.76,-365.97"/>
<polygon fill="#63b8ff" stroke="#63b8ff" points="364.4,-369.2 375,-369.49 366.9,-362.66 364.4,-369.2"/>
</a>
</g>
</g>
<!-- Node15 -->
<g id="Node000015" class="node">
<title>Node15</title>
<g id="a_Node000015"><a xlink:href="classmqtt_1_1bridge_1_1lib_1_1Broker.html#ad86912ec39c5469f7847a254f9f722ae" target="_top" xlink:title=" ">
<polygon fill="white" stroke="#666666" points="484.5,-345.5 384.5,-345.5 384.5,-312 484.5,-312 484.5,-345.5"/>
<text xml:space="preserve" text-anchor="start" x="392.5" y="-332" font-family="Helvetica,sans-Serif" font-size="10.00">mqtt::bridge::lib::</text>
<text xml:space="preserve" text-anchor="middle" x="434.5" y="-319.25" font-family="Helvetica,sans-Serif" font-size="10.00">Broker::getPrefix</text>
</a>
</g>
</g>
<!-- Node10&#45;&gt;Node15 -->
<g id="edge15_Node000010_Node000015" class="edge">
<title>Node10&#45;&gt;Node15</title>
<g id="a_edge15_Node000010_Node000015"><a xlink:title=" ">
<path fill="none" stroke="#63b8ff" d="M299.17,-290.69C322.01,-297.15 349.36,-304.91 373.4,-311.72"/>
<polygon fill="#63b8ff" stroke="#63b8ff" points="372.16,-315 382.73,-314.36 374.07,-308.27 372.16,-315"/>
</a>
</g>
</g>
<!-- Node16 -->
<g id="Node000016" class="node">
<title>Node16</title>
<g id="a_Node000016"><a xlink:href="classmqtt_1_1bridge_1_1lib_1_1Broker.html#a684990f7a76ea49f37375d6f6c6d1ba4" target="_top" xlink:title=" ">
<polygon fill="white" stroke="#666666" points="523.5,-293.5 345.5,-293.5 345.5,-260 523.5,-260 523.5,-293.5"/>
<text xml:space="preserve" text-anchor="start" x="353.5" y="-280" font-family="Helvetica,sans-Serif" font-size="10.00">mqtt::bridge::lib::</text>
<text xml:space="preserve" text-anchor="middle" x="434.5" y="-267.25" font-family="Helvetica,sans-Serif" font-size="10.00">Broker::getSessionStoreFileName</text>
</a>
</g>
</g>
<!-- Node10&#45;&gt;Node16 -->
<g id="edge16_Node000010_Node000016" class="edge">
<title>Node10&#45;&gt;Node16</title>
<g id="a_edge16_Node000010_Node000016"><a xlink:title=" ">
<path fill="none" stroke="#63b8ff" d="M299.17,-276.75C309.96,-276.75 321.74,-276.75 333.71,-276.75"/>
<polygon fill="#63b8ff" stroke="#63b8ff" points="333.71,-280.25 343.71,-276.75 333.71,-273.25 333.71,-280.25"/>
</a>
</g>
</g>
<!-- Node17 -->
<g id="Node000017" class="node">
<title>Node17</title>
<g id="a_Node000017"><a xlink:href="classmqtt_1_1bridge_1_1lib_1_1Broker.html#a750e20fe14960d3a5944ecb03bf7e269" target="_top" xlink:title=" ">
<polygon fill="white" stroke="#666666" points="494.25,-241.5 374.75,-241.5 374.75,-208 494.25,-208 494.25,-241.5"/>
<text xml:space="preserve" text-anchor="start" x="382.75" y="-228" font-family="Helvetica,sans-Serif" font-size="10.00">mqtt::bridge::lib::</text>
<text xml:space="preserve" text-anchor="middle" x="434.5" y="-215.25" font-family="Helvetica,sans-Serif" font-size="10.00">Broker::getUsername</text>
</a>
</g>
</g>
<!-- Node10&#45;&gt;Node17 -->
<g id="edge17_Node000010_Node000017" class="edge">
<title>Node10&#45;&gt;Node17</title>
<g id="a_edge17_Node000010_Node000017"><a xlink:title=" ">
<path fill="none" stroke="#63b8ff" d="M299.17,-262.81C318.88,-257.23 341.96,-250.69 363.37,-244.62"/>
<polygon fill="#63b8ff" stroke="#63b8ff" points="364.26,-248.01 372.93,-241.91 362.35,-241.27 364.26,-248.01"/>
</a>
</g>
</g>
<!-- Node18 -->
<g id="Node000018" class="node">
<title>Node18</title>
<g id="a_Node000018"><a xlink:href="classmqtt_1_1bridge_1_1lib_1_1Broker.html#a6403697d2031730753912aaaf47cb1f4" target="_top" xlink:title=" ">
<polygon fill="white" stroke="#666666" points="500.25,-189.5 368.75,-189.5 368.75,-156 500.25,-156 500.25,-189.5"/>
<text xml:space="preserve" text-anchor="start" x="376.75" y="-176" font-family="Helvetica,sans-Serif" font-size="10.00">mqtt::bridge::lib::</text>
<text xml:space="preserve" text-anchor="middle" x="434.5" y="-163.25" font-family="Helvetica,sans-Serif" font-size="10.00">Broker::getWillMessage</text>
</a>
</g>
</g>
<!-- Node10&#45;&gt;Node18 -->
<g id="edge18_Node000010_Node000018" class="edge">
<title>Node10&#45;&gt;Node18</title>
<g id="a_edge18_Node000010_Node000018"><a xlink:title=" ">
<path fill="none" stroke="#63b8ff" d="M266.44,-259.8C284.37,-242.22 314.65,-215.05 345.5,-198.75 349.43,-196.67 353.55,-194.74 357.76,-192.95"/>
<polygon fill="#63b8ff" stroke="#63b8ff" points="358.97,-196.23 367,-189.32 356.41,-189.72 358.97,-196.23"/>
</a>
</g>
</g>
<!-- Node19 -->
<g id="Node000019" class="node">
<title>Node19</title>
<g id="a_Node000019"><a xlink:href="classmqtt_1_1bridge_1_1lib_1_1Broker.html#ae421318ee7d0d6287cdb43d605277a5b" target="_top" xlink:title=" ">
<polygon fill="white" stroke="#666666" points="488.25,-137.5 380.75,-137.5 380.75,-104 488.25,-104 488.25,-137.5"/>
<text xml:space="preserve" text-anchor="start" x="388.75" y="-124" font-family="Helvetica,sans-Serif" font-size="10.00">mqtt::bridge::lib::</text>
<text xml:space="preserve" text-anchor="middle" x="434.5" y="-111.25" font-family="Helvetica,sans-Serif" font-size="10.00">Broker::getWillQoS</text>
</a>
</g>
</g>
<!-- Node10&#45;&gt;Node19 -->
<g id="edge19_Node000010_Node000019" class="edge">
<title>Node10&#45;&gt;Node19</title>
<g id="a_edge19_Node000010_Node000019"><a xlink:title=" ">
<path fill="none" stroke="#63b8ff" d="M257.95,-259.62C271.77,-231.75 302.87,-176.69 345.5,-146.75 352.91,-141.54 361.38,-137.37 370.06,-134.02"/>
<polygon fill="#63b8ff" stroke="#63b8ff" points="370.96,-137.41 379.27,-130.83 368.67,-130.79 370.96,-137.41"/>
</a>
</g>
</g>
<!-- Node20 -->
<g id="Node000020" class="node">
<title>Node20</title>
<g id="a_Node000020"><a xlink:href="classmqtt_1_1bridge_1_1lib_1_1Broker.html#a41d9b2f5e10294198b45d1e217574f60" target="_top" xlink:title=" ">
<polygon fill="white" stroke="#666666" points="494.25,-85.5 374.75,-85.5 374.75,-52 494.25,-52 494.25,-85.5"/>
<text xml:space="preserve" text-anchor="start" x="382.75" y="-72" font-family="Helvetica,sans-Serif" font-size="10.00">mqtt::bridge::lib::</text>
<text xml:space="preserve" text-anchor="middle" x="434.5" y="-59.25" font-family="Helvetica,sans-Serif" font-size="10.00">Broker::getWillRetain</text>
</a>
</g>
</g>
<!-- Node10&#45;&gt;Node20 -->
<g id="edge20_Node000010_Node000020" class="edge">
<title>Node10&#45;&gt;Node20</title>
<g id="a_edge20_Node000010_Node000020"><a xlink:title=" ">
<path fill="none" stroke="#63b8ff" d="M254.15,-259.59C263.77,-223.51 291.03,-139.47 345.5,-94.75 350.99,-90.24 357.25,-86.51 363.83,-83.43"/>
<polygon fill="#63b8ff" stroke="#63b8ff" points="365.05,-86.71 372.97,-79.67 362.39,-80.23 365.05,-86.71"/>
</a>
</g>
</g>
<!-- Node21 -->
<g id="Node000021" class="node">
<title>Node21</title>
<g id="a_Node000021"><a xlink:href="classmqtt_1_1bridge_1_1lib_1_1Broker.html#a345589d52b437b118f272a50df7b4b7d" target="_top" xlink:title=" ">
<polygon fill="white" stroke="#666666" points="490.88,-33.5 378.12,-33.5 378.12,0 490.88,0 490.88,-33.5"/>
<text xml:space="preserve" text-anchor="start" x="386.12" y="-20" font-family="Helvetica,sans-Serif" font-size="10.00">mqtt::bridge::lib::</text>
<text xml:space="preserve" text-anchor="middle" x="434.5" y="-7.25" font-family="Helvetica,sans-Serif" font-size="10.00">Broker::getWillTopic</text>
</a>
</g>
</g>
<!-- Node10&#45;&gt;Node21 -->
<g id="edge21_Node000010_Node000021" class="edge">
<title>Node10&#45;&gt;Node21</title>
<g id="a_edge21_Node000010_Node000021"><a xlink:title=" ">
<path fill="none" stroke="#63b8ff" d="M251.92,-259.77C257.68,-216.84 278.79,-103.09 345.5,-42.75 351.83,-37.03 359.35,-32.56 367.31,-29.08"/>
<polygon fill="#63b8ff" stroke="#63b8ff" points="368.42,-32.4 376.52,-25.58 365.93,-25.86 368.42,-32.4"/>
</a>
</g>
</g>
</g>
</svg>
