<?xml version="1.0" encoding="UTF-8" standalone="no"?>
<!DOCTYPE svg PUBLIC "-//W3C//DTD SVG 1.1//EN"
 "http://www.w3.org/Graphics/SVG/1.1/DTD/svg11.dtd">
<!-- Generated by graphviz version 14.1.2 (0)
 -->
<!-- Title: inja::NodeVisitor::visit Pages: 1 -->
<!--zoomable 753 -->

<svg id="main" version="1.1" xmlns="http://www.w3.org/2000/svg" xmlns:xlink="http://www.w3.org/1999/xlink" xml:space="preserve" onload="init(evt)">

<style type="text/css"><![CDATA[
.node, .edge {opacity: 0.7;}
.node.selected, .edge.selected {opacity: 1;}
.edge:hover path { stroke: red; }
.edge:hover polygon { stroke: red; fill: red; }
]]></style>

<defs>
  <circle id="rim" cx="0" cy="0" r="7"/>
  <circle id="rim2" cx="0" cy="0" r="3.5"/>
  <g id="zoomPlus">
    <use xlink:href="#rim" fill="#404040"><set attributeName="fill" to="#808080" begin="zoomplus.mouseover" end="zoomplus.mouseout"/></use>
    <path d="M-4,0h8M0,-4v8" fill="none" stroke="white" stroke-width="1.5" pointer-events="none"/>
  </g>
  <g id="zoomMin">
    <use xlink:href="#rim" fill="#404040"><set attributeName="fill" to="#808080" begin="zoomminus.mouseover" end="zoomminus.mouseout"/></use>
    <path d="M-4,0h8" fill="none" stroke="white" stroke-width="1.5" pointer-events="none"/>
  </g>
  <g id="arrowUp" transform="translate(30 24)">
    <use xlink:href="#rim"/>
    <path pointer-events="none" fill="none" stroke="white" stroke-width="1.5" d="M0,-3.0v7 M-2.5,-0.5L0,-3.0L2.5,-0.5"/>
  </g>
  <g id="arrowRight" transform="rotate(90) translate(36 -43)">
    <use xlink:href="#rim"/>
    <path pointer-events="none" fill="none" stroke="white" stroke-width="1.5" d="M0,-3.0v7 M-2.5,-0.5L0,-3.0L2.5,-0.5"/>
  </g>
  <g id="arrowDown" transform="rotate(180) translate(-30 -48)">
    <use xlink:href="#rim"/>
    <path pointer-events="none" fill="none" stroke="white" stroke-width="1.5" d="M0,-3.0v7 M-2.5,-0.5L0,-3.0L2.5,-0.5"/>
  </g>
  <g id="arrowLeft" transform="rotate(270) translate(-36 17)">
    <use xlink:href="#rim"/>
    <path pointer-events="none" fill="none" stroke="white" stroke-width="1.5" d="M0,-3.0v7 M-2.5,-0.5L0,-3.0L2.5,-0.5"/>
  </g>
  <g id="resetDef">
    <use xlink:href="#rim2" fill="#404040"><set attributeName="fill" to="#808080" begin="reset.mouseover" end="reset.mouseout"/></use>
  </g>
</defs>
<script type="application/ecmascript">
var viewWidth = 2071;
var viewHeight = 753;
var sectionId = 'dynsection-2';
</script>
<script type="application/ecmascript" xlink:href="svg.min.js"/>
<svg id="graph" class="graph">
<g id="viewport">
<title>inja::NodeVisitor::visit</title>
<!-- Node1 -->
<g id="Node000001" class="node">
<title>Node1</title>
<g id="a_Node000001"><a xlink:title=" ">
<polygon fill="#999999" stroke="#666666" points="2062.75,-273.5 1959.75,-273.5 1959.75,-240 2062.75,-240 2062.75,-273.5"/>
<text xml:space="preserve" text-anchor="start" x="1967.75" y="-260" font-family="Helvetica,sans-Serif" font-size="10.00">inja::NodeVisitor::</text>
<text xml:space="preserve" text-anchor="middle" x="2011.25" y="-247.25" font-family="Helvetica,sans-Serif" font-size="10.00">visit</text>
</a>
</g>
</g>
<!-- Node2 -->
<g id="Node000002" class="node">
<title>Node2</title>
<g id="a_Node000002"><a xlink:href="classinja_1_1BlockNode.html#afa264eaa0a42e9f38086e93530b164be" target="_top" xlink:title=" ">
<polygon fill="white" stroke="#666666" points="1923.75,-267.12 1793,-267.12 1793,-246.38 1923.75,-246.38 1923.75,-267.12"/>
<text xml:space="preserve" text-anchor="middle" x="1858.38" y="-253.62" font-family="Helvetica,sans-Serif" font-size="10.00">inja::BlockNode::accept</text>
</a>
</g>
</g>
<!-- Node1&#45;&gt;Node2 -->
<g id="edge1_Node000001_Node000002" class="edge">
<title>Node1&#45;&gt;Node2</title>
<g id="a_edge1_Node000001_Node000002"><a xlink:title=" ">
<path fill="none" stroke="#63b8ff" d="M1948.15,-256.75C1940.22,-256.75 1932.08,-256.75 1924.1,-256.75"/>
<polygon fill="#63b8ff" stroke="#63b8ff" points="1948.08,-260.25 1958.08,-256.75 1948.08,-253.25 1948.08,-260.25"/>
</a>
</g>
</g>
<!-- Node3 -->
<g id="Node000003" class="node">
<title>Node3</title>
<g id="a_Node000003"><a xlink:href="structinja_1_1Template.html#a16d9d3dd19400a28ca548c878eeb3aee" target="_top" xlink:title="Return number of variables (total number, not distinct ones) in the template.">
<polygon fill="white" stroke="#666666" points="1747.62,-474.5 1629.62,-474.5 1629.62,-441 1747.62,-441 1747.62,-474.5"/>
<text xml:space="preserve" text-anchor="start" x="1637.62" y="-461" font-family="Helvetica,sans-Serif" font-size="10.00">inja::Template::count</text>
<text xml:space="preserve" text-anchor="middle" x="1688.62" y="-448.25" font-family="Helvetica,sans-Serif" font-size="10.00">_variables</text>
</a>
</g>
</g>
<!-- Node2&#45;&gt;Node3 -->
<g id="edge2_Node000002_Node000003" class="edge">
<title>Node2&#45;&gt;Node3</title>
<g id="a_edge2_Node000002_Node000003"><a xlink:title=" ">
<path fill="none" stroke="#63b8ff" d="M1850.42,-278.29C1837.61,-314.77 1806.91,-388.92 1757,-431.75 1753.1,-435.1 1748.72,-438.04 1744.11,-440.62"/>
<polygon fill="#63b8ff" stroke="#63b8ff" points="1853.71,-279.49 1853.6,-268.89 1847.08,-277.24 1853.71,-279.49"/>
</a>
</g>
</g>
<!-- Node4 -->
<g id="Node000004" class="node">
<title>Node4</title>
<g id="a_Node000004"><a xlink:href="classinja_1_1Renderer.html#ace82a1b1e1db796e94c7a346c71defa2" target="_top" xlink:title=" ">
<polygon fill="white" stroke="#666666" points="1757,-423.12 1620.25,-423.12 1620.25,-402.38 1757,-402.38 1757,-423.12"/>
<text xml:space="preserve" text-anchor="middle" x="1688.62" y="-409.62" font-family="Helvetica,sans-Serif" font-size="10.00">inja::Renderer::render_to</text>
</a>
</g>
</g>
<!-- Node2&#45;&gt;Node4 -->
<g id="edge3_Node000002_Node000004" class="edge">
<title>Node2&#45;&gt;Node4</title>
<g id="a_edge3_Node000002_Node000004"><a xlink:title=" ">
<path fill="none" stroke="#63b8ff" d="M1847.52,-277.57C1832.3,-307.5 1800.24,-362.41 1757,-392.75 1751.71,-396.46 1745.72,-399.5 1739.55,-401.97"/>
<polygon fill="#63b8ff" stroke="#63b8ff" points="1850.57,-279.3 1851.85,-268.78 1844.29,-276.21 1850.57,-279.3"/>
</a>
</g>
</g>
<!-- Node30 -->
<g id="Node000030" class="node">
<title>Node30</title>
<g id="a_Node000030"><a xlink:href="classinja_1_1Renderer.html#af7bb5be190648a8b55d7de709af08e81" target="_top" xlink:title=" ">
<polygon fill="white" stroke="#666666" points="1744.25,-384.12 1633,-384.12 1633,-363.38 1744.25,-363.38 1744.25,-384.12"/>
<text xml:space="preserve" text-anchor="middle" x="1688.62" y="-370.62" font-family="Helvetica,sans-Serif" font-size="10.00">inja::Renderer::visit</text>
</a>
</g>
</g>
<!-- Node2&#45;&gt;Node30 -->
<g id="edge35_Node000002_Node000030" class="edge">
<title>Node2&#45;&gt;Node30</title>
<g id="a_edge35_Node000002_Node000030"><a xlink:title=" ">
<path fill="none" stroke="#63b8ff" d="M1842.17,-276.27C1824.11,-298.18 1792,-333.32 1757,-353.75 1750.78,-357.38 1743.85,-360.4 1736.87,-362.9"/>
<polygon fill="#63b8ff" stroke="#63b8ff" points="1844.73,-278.67 1848.28,-268.69 1839.28,-274.28 1844.73,-278.67"/>
</a>
</g>
</g>
<!-- Node31 -->
<g id="Node000031" class="node">
<title>Node31</title>
<g id="a_Node000031"><a xlink:href="classinja_1_1Renderer.html#abcbf6282e8229df9163c06687d57a5d1" target="_top" xlink:title=" ">
<polygon fill="white" stroke="#666666" points="1744.25,-345.12 1633,-345.12 1633,-324.38 1744.25,-324.38 1744.25,-345.12"/>
<text xml:space="preserve" text-anchor="middle" x="1688.62" y="-331.62" font-family="Helvetica,sans-Serif" font-size="10.00">inja::Renderer::visit</text>
</a>
</g>
</g>
<!-- Node2&#45;&gt;Node31 -->
<g id="edge36_Node000002_Node000031" class="edge">
<title>Node2&#45;&gt;Node31</title>
<g id="a_edge36_Node000002_Node000031"><a xlink:title=" ">
<path fill="none" stroke="#63b8ff" d="M1832.15,-273.56C1812.36,-286.2 1783.76,-303.24 1757,-314.75 1749.04,-318.17 1740.32,-321.24 1731.86,-323.88"/>
<polygon fill="#63b8ff" stroke="#63b8ff" points="1833.89,-276.61 1840.37,-268.23 1830.08,-270.74 1833.89,-276.61"/>
</a>
</g>
</g>
<!-- Node32 -->
<g id="Node000032" class="node">
<title>Node32</title>
<g id="a_Node000032"><a xlink:href="classinja_1_1Renderer.html#aeea5720f92af93c088719a981769db3b" target="_top" xlink:title=" ">
<polygon fill="white" stroke="#666666" points="1744.25,-306.12 1633,-306.12 1633,-285.38 1744.25,-285.38 1744.25,-306.12"/>
<text xml:space="preserve" text-anchor="middle" x="1688.62" y="-292.62" font-family="Helvetica,sans-Serif" font-size="10.00">inja::Renderer::visit</text>
</a>
</g>
</g>
<!-- Node2&#45;&gt;Node32 -->
<g id="edge37_Node000002_Node000032" class="edge">
<title>Node2&#45;&gt;Node32</title>
<g id="a_edge37_Node000002_Node000032"><a xlink:title=" ">
<path fill="none" stroke="#63b8ff" d="M1799.48,-270.21C1778.87,-275 1755.95,-280.33 1736.39,-284.88"/>
<polygon fill="#63b8ff" stroke="#63b8ff" points="1800.23,-273.63 1809.17,-267.96 1798.64,-266.81 1800.23,-273.63"/>
</a>
</g>
</g>
<!-- Node33 -->
<g id="Node000033" class="node">
<title>Node33</title>
<g id="a_Node000033"><a xlink:href="classinja_1_1Renderer.html#a14531f0d69386b4494646f8680fdd905" target="_top" xlink:title=" ">
<polygon fill="white" stroke="#666666" points="1744.25,-267.12 1633,-267.12 1633,-246.38 1744.25,-246.38 1744.25,-267.12"/>
<text xml:space="preserve" text-anchor="middle" x="1688.62" y="-253.62" font-family="Helvetica,sans-Serif" font-size="10.00">inja::Renderer::visit</text>
</a>
</g>
</g>
<!-- Node2&#45;&gt;Node33 -->
<g id="edge38_Node000002_Node000033" class="edge">
<title>Node2&#45;&gt;Node33</title>
<g id="a_edge38_Node000002_Node000033"><a xlink:title=" ">
<path fill="none" stroke="#63b8ff" d="M1781.24,-256.75C1768.86,-256.75 1756.25,-256.75 1744.51,-256.75"/>
<polygon fill="#63b8ff" stroke="#63b8ff" points="1781,-260.25 1791,-256.75 1781,-253.25 1781,-260.25"/>
</a>
</g>
</g>
<!-- Node34 -->
<g id="Node000034" class="node">
<title>Node34</title>
<g id="a_Node000034"><a xlink:href="classinja_1_1Renderer.html#ac3e86b9ee2504155fddc1cf3d64f7398" target="_top" xlink:title=" ">
<polygon fill="white" stroke="#666666" points="1744.25,-228.12 1633,-228.12 1633,-207.38 1744.25,-207.38 1744.25,-228.12"/>
<text xml:space="preserve" text-anchor="middle" x="1688.62" y="-214.62" font-family="Helvetica,sans-Serif" font-size="10.00">inja::Renderer::visit</text>
</a>
</g>
</g>
<!-- Node2&#45;&gt;Node34 -->
<g id="edge39_Node000002_Node000034" class="edge">
<title>Node2&#45;&gt;Node34</title>
<g id="a_edge39_Node000002_Node000034"><a xlink:title=" ">
<path fill="none" stroke="#63b8ff" d="M1799.48,-243.29C1778.87,-238.5 1755.95,-233.17 1736.39,-228.62"/>
<polygon fill="#63b8ff" stroke="#63b8ff" points="1798.64,-246.69 1809.17,-245.54 1800.23,-239.87 1798.64,-246.69"/>
</a>
</g>
</g>
<!-- Node35 -->
<g id="Node000035" class="node">
<title>Node35</title>
<g id="a_Node000035"><a xlink:href="classinja_1_1StatisticsVisitor.html#af890621926899d8dc0a038655710700c" target="_top" xlink:title=" ">
<polygon fill="white" stroke="#666666" points="1746.88,-189.5 1630.38,-189.5 1630.38,-156 1746.88,-156 1746.88,-189.5"/>
<text xml:space="preserve" text-anchor="start" x="1638.38" y="-176" font-family="Helvetica,sans-Serif" font-size="10.00">inja::StatisticsVisitor</text>
<text xml:space="preserve" text-anchor="middle" x="1688.62" y="-163.25" font-family="Helvetica,sans-Serif" font-size="10.00">::visit</text>
</a>
</g>
</g>
<!-- Node2&#45;&gt;Node35 -->
<g id="edge40_Node000002_Node000035" class="edge">
<title>Node2&#45;&gt;Node35</title>
<g id="a_edge40_Node000002_Node000035"><a xlink:title=" ">
<path fill="none" stroke="#63b8ff" d="M1831.17,-240.1C1811.27,-227.82 1782.98,-211.17 1757,-198.75 1750.55,-195.67 1743.64,-192.67 1736.78,-189.87"/>
<polygon fill="#63b8ff" stroke="#63b8ff" points="1829.14,-242.96 1839.48,-245.27 1832.84,-237.01 1829.14,-242.96"/>
</a>
</g>
</g>
<!-- Node36 -->
<g id="Node000036" class="node">
<title>Node36</title>
<g id="a_Node000036"><a xlink:href="classinja_1_1StatisticsVisitor.html#a512d075817e4b9b9eb846d46c4c8bf26" target="_top" xlink:title=" ">
<polygon fill="white" stroke="#666666" points="1746.88,-137.5 1630.38,-137.5 1630.38,-104 1746.88,-104 1746.88,-137.5"/>
<text xml:space="preserve" text-anchor="start" x="1638.38" y="-124" font-family="Helvetica,sans-Serif" font-size="10.00">inja::StatisticsVisitor</text>
<text xml:space="preserve" text-anchor="middle" x="1688.62" y="-111.25" font-family="Helvetica,sans-Serif" font-size="10.00">::visit</text>
</a>
</g>
</g>
<!-- Node2&#45;&gt;Node36 -->
<g id="edge41_Node000002_Node000036" class="edge">
<title>Node2&#45;&gt;Node36</title>
<g id="a_edge41_Node000002_Node000036"><a xlink:title=" ">
<path fill="none" stroke="#63b8ff" d="M1843.75,-236.89C1826.21,-212.64 1793.6,-171.77 1757,-146.75 1752.24,-143.49 1747.01,-140.57 1741.64,-137.96"/>
<polygon fill="#63b8ff" stroke="#63b8ff" points="1840.81,-238.79 1849.44,-244.93 1846.52,-234.75 1840.81,-238.79"/>
</a>
</g>
</g>
<!-- Node37 -->
<g id="Node000037" class="node">
<title>Node37</title>
<g id="a_Node000037"><a xlink:href="classinja_1_1StatisticsVisitor.html#ad68df356c297c751b84b7eee63315dfa" target="_top" xlink:title=" ">
<polygon fill="white" stroke="#666666" points="1746.88,-85.5 1630.38,-85.5 1630.38,-52 1746.88,-52 1746.88,-85.5"/>
<text xml:space="preserve" text-anchor="start" x="1638.38" y="-72" font-family="Helvetica,sans-Serif" font-size="10.00">inja::StatisticsVisitor</text>
<text xml:space="preserve" text-anchor="middle" x="1688.62" y="-59.25" font-family="Helvetica,sans-Serif" font-size="10.00">::visit</text>
</a>
</g>
</g>
<!-- Node2&#45;&gt;Node37 -->
<g id="edge42_Node000002_Node000037" class="edge">
<title>Node2&#45;&gt;Node37</title>
<g id="a_edge42_Node000002_Node000037"><a xlink:title=" ">
<path fill="none" stroke="#63b8ff" d="M1849.41,-235.39C1835.61,-201.14 1804.16,-133.85 1757,-94.75 1752.95,-91.39 1748.41,-88.43 1743.66,-85.83"/>
<polygon fill="#63b8ff" stroke="#63b8ff" points="1846.11,-236.56 1853,-244.61 1852.63,-234.02 1846.11,-236.56"/>
</a>
</g>
</g>
<!-- Node38 -->
<g id="Node000038" class="node">
<title>Node38</title>
<g id="a_Node000038"><a xlink:href="classinja_1_1StatisticsVisitor.html#a23051da528903f46f16d25f0003a5c03" target="_top" xlink:title=" ">
<polygon fill="white" stroke="#666666" points="1746.88,-33.5 1630.38,-33.5 1630.38,0 1746.88,0 1746.88,-33.5"/>
<text xml:space="preserve" text-anchor="start" x="1638.38" y="-20" font-family="Helvetica,sans-Serif" font-size="10.00">inja::StatisticsVisitor</text>
<text xml:space="preserve" text-anchor="middle" x="1688.62" y="-7.25" font-family="Helvetica,sans-Serif" font-size="10.00">::visit</text>
</a>
</g>
</g>
<!-- Node2&#45;&gt;Node38 -->
<g id="edge43_Node000002_Node000038" class="edge">
<title>Node2&#45;&gt;Node38</title>
<g id="a_edge43_Node000002_Node000038"><a xlink:title=" ">
<path fill="none" stroke="#63b8ff" d="M1852.87,-234.96C1842.95,-192.29 1815.34,-97.13 1757,-42.75 1753.42,-39.42 1749.37,-36.49 1745.08,-33.94"/>
<polygon fill="#63b8ff" stroke="#63b8ff" points="1849.45,-235.7 1855.02,-244.72 1856.28,-234.2 1849.45,-235.7"/>
</a>
</g>
</g>
<!-- Node5 -->
<g id="Node000005" class="node">
<title>Node5</title>
<g id="a_Node000005"><a xlink:href="classinja_1_1Environment.html#a269f21ddbdd107bf0dd9e4a0bc80e249" target="_top" xlink:title=" ">
<polygon fill="white" stroke="#666666" points="1582.75,-474.5 1474.5,-474.5 1474.5,-441 1582.75,-441 1582.75,-474.5"/>
<text xml:space="preserve" text-anchor="start" x="1482.5" y="-461" font-family="Helvetica,sans-Serif" font-size="10.00">inja::Environment::</text>
<text xml:space="preserve" text-anchor="middle" x="1528.62" y="-448.25" font-family="Helvetica,sans-Serif" font-size="10.00">render_to</text>
</a>
</g>
</g>
<!-- Node4&#45;&gt;Node5 -->
<g id="edge4_Node000004_Node000005" class="edge">
<title>Node4&#45;&gt;Node5</title>
<g id="a_edge4_Node000004_Node000005"><a xlink:title=" ">
<path fill="none" stroke="#63b8ff" d="M1638.31,-426.63C1632.23,-428.35 1626.09,-430.09 1620.25,-431.75 1608.13,-435.2 1595.1,-438.92 1582.81,-442.45"/>
<polygon fill="#63b8ff" stroke="#63b8ff" points="1639.01,-430.07 1647.68,-423.98 1637.11,-423.33 1639.01,-430.07"/>
</a>
</g>
</g>
<!-- Node28 -->
<g id="Node000028" class="node">
<title>Node28</title>
<g id="a_Node000028"><a xlink:href="classinja_1_1Renderer.html#aed5d4de516e9aad1801df4ccb53fd52c" target="_top" xlink:title=" ">
<polygon fill="white" stroke="#666666" points="1584.25,-423.12 1473,-423.12 1473,-402.38 1584.25,-402.38 1584.25,-423.12"/>
<text xml:space="preserve" text-anchor="middle" x="1528.62" y="-409.62" font-family="Helvetica,sans-Serif" font-size="10.00">inja::Renderer::visit</text>
</a>
</g>
</g>
<!-- Node4&#45;&gt;Node28 -->
<g id="edge33_Node000004_Node000028" class="edge">
<title>Node4&#45;&gt;Node28</title>
<g id="a_edge33_Node000004_Node000028"><a xlink:title=" ">
<path fill="none" stroke="#63b8ff" d="M1608.92,-412.75C1600.66,-412.75 1592.39,-412.75 1584.47,-412.75"/>
<polygon fill="#63b8ff" stroke="#63b8ff" points="1608.65,-416.25 1618.65,-412.75 1608.65,-409.25 1608.65,-416.25"/>
</a>
</g>
</g>
<!-- Node29 -->
<g id="Node000029" class="node">
<title>Node29</title>
<g id="a_Node000029"><a xlink:href="classinja_1_1Renderer.html#a997785e97e17d8c3d6ce3015382adfb6" target="_top" xlink:title=" ">
<polygon fill="white" stroke="#666666" points="1584.25,-384.12 1473,-384.12 1473,-363.38 1584.25,-363.38 1584.25,-384.12"/>
<text xml:space="preserve" text-anchor="middle" x="1528.62" y="-370.62" font-family="Helvetica,sans-Serif" font-size="10.00">inja::Renderer::visit</text>
</a>
</g>
</g>
<!-- Node4&#45;&gt;Node29 -->
<g id="edge34_Node000004_Node000029" class="edge">
<title>Node4&#45;&gt;Node29</title>
<g id="a_edge34_Node000004_Node000029"><a xlink:title=" ">
<path fill="none" stroke="#63b8ff" d="M1632.55,-399.16C1613.28,-394.4 1591.92,-389.13 1573.67,-384.62"/>
<polygon fill="#63b8ff" stroke="#63b8ff" points="1631.6,-402.53 1642.14,-401.52 1633.27,-395.73 1631.6,-402.53"/>
</a>
</g>
</g>
<!-- Node6 -->
<g id="Node000006" class="node">
<title>Node6</title>
<g id="a_Node000006"><a xlink:href="classinja_1_1Environment.html#a3e4c7b484618c69656f6af463d6f775e" target="_top" xlink:title=" ">
<polygon fill="white" stroke="#666666" points="1437,-526.5 1328.75,-526.5 1328.75,-493 1437,-493 1437,-526.5"/>
<text xml:space="preserve" text-anchor="start" x="1336.75" y="-513" font-family="Helvetica,sans-Serif" font-size="10.00">inja::Environment::</text>
<text xml:space="preserve" text-anchor="middle" x="1382.88" y="-500.25" font-family="Helvetica,sans-Serif" font-size="10.00">render</text>
</a>
</g>
</g>
<!-- Node5&#45;&gt;Node6 -->
<g id="edge5_Node000005_Node000006" class="edge">
<title>Node5&#45;&gt;Node6</title>
<g id="a_edge5_Node000005_Node000006"><a xlink:title=" ">
<path fill="none" stroke="#63b8ff" d="M1469.64,-478.73C1456.9,-483.33 1443.56,-488.16 1431.29,-492.6"/>
<polygon fill="#63b8ff" stroke="#63b8ff" points="1470.52,-482.13 1478.73,-475.44 1468.14,-475.55 1470.52,-482.13"/>
</a>
</g>
</g>
<!-- Node26 -->
<g id="Node000026" class="node">
<title>Node26</title>
<g id="a_Node000026"><a xlink:href="classinja_1_1Environment.html#ad00da8b535e5c5633ed2adec622e6cf4" target="_top" xlink:title=" ">
<polygon fill="white" stroke="#666666" points="1437,-474.5 1328.75,-474.5 1328.75,-441 1437,-441 1437,-474.5"/>
<text xml:space="preserve" text-anchor="start" x="1336.75" y="-461" font-family="Helvetica,sans-Serif" font-size="10.00">inja::Environment::</text>
<text xml:space="preserve" text-anchor="middle" x="1382.88" y="-448.25" font-family="Helvetica,sans-Serif" font-size="10.00">render_to</text>
</a>
</g>
</g>
<!-- Node5&#45;&gt;Node26 -->
<g id="edge31_Node000005_Node000026" class="edge">
<title>Node5&#45;&gt;Node26</title>
<g id="a_edge31_Node000005_Node000026"><a xlink:title=" ">
<path fill="none" stroke="#63b8ff" d="M1462.7,-457.75C1454.26,-457.75 1445.68,-457.75 1437.45,-457.75"/>
<polygon fill="#63b8ff" stroke="#63b8ff" points="1462.58,-461.25 1472.58,-457.75 1462.58,-454.25 1462.58,-461.25"/>
</a>
</g>
</g>
<!-- Node27 -->
<g id="Node000027" class="node">
<title>Node27</title>
<g id="a_Node000027"><a xlink:href="namespaceinja.html#a996f16f78b37d05e19cf44ac74d83e7e" target="_top" xlink:title="render with default settings to the given output stream">
<polygon fill="white" stroke="#666666" points="1426.12,-423.12 1339.62,-423.12 1339.62,-402.38 1426.12,-402.38 1426.12,-423.12"/>
<text xml:space="preserve" text-anchor="middle" x="1382.88" y="-409.62" font-family="Helvetica,sans-Serif" font-size="10.00">inja::render_to</text>
</a>
</g>
</g>
<!-- Node5&#45;&gt;Node27 -->
<g id="edge32_Node000005_Node000027" class="edge">
<title>Node5&#45;&gt;Node27</title>
<g id="a_edge32_Node000005_Node000027"><a xlink:title=" ">
<path fill="none" stroke="#63b8ff" d="M1463.44,-437.66C1447.88,-432.79 1431.84,-427.76 1418.27,-423.52"/>
<polygon fill="#63b8ff" stroke="#63b8ff" points="1462.06,-440.89 1472.65,-440.54 1464.16,-434.21 1462.06,-440.89"/>
</a>
</g>
</g>
<!-- Node7 -->
<g id="Node000007" class="node">
<title>Node7</title>
<g id="a_Node000007"><a xlink:href="classinja_1_1Environment.html#aac36e0cfdc9e7926914e46c0cd1caada" target="_top" xlink:title=" ">
<polygon fill="white" stroke="#666666" points="1292.75,-589.5 1184.5,-589.5 1184.5,-556 1292.75,-556 1292.75,-589.5"/>
<text xml:space="preserve" text-anchor="start" x="1192.5" y="-576" font-family="Helvetica,sans-Serif" font-size="10.00">inja::Environment::</text>
<text xml:space="preserve" text-anchor="middle" x="1238.62" y="-563.25" font-family="Helvetica,sans-Serif" font-size="10.00">render</text>
</a>
</g>
</g>
<!-- Node6&#45;&gt;Node7 -->
<g id="edge6_Node000006_Node000007" class="edge">
<title>Node6&#45;&gt;Node7</title>
<g id="a_edge6_Node000006_Node000007"><a xlink:title=" ">
<path fill="none" stroke="#63b8ff" d="M1332.81,-531.48C1315.04,-539.35 1295.22,-548.13 1278.45,-555.56"/>
<polygon fill="#63b8ff" stroke="#63b8ff" points="1333.89,-534.83 1341.62,-527.58 1331.06,-528.43 1333.89,-534.83"/>
</a>
</g>
</g>
<!-- Node20 -->
<g id="Node000020" class="node">
<title>Node20</title>
<g id="a_Node000020"><a xlink:href="classinja_1_1Environment.html#a3e30972fab0a5962c232f4c0f7002845" target="_top" xlink:title=" ">
<polygon fill="white" stroke="#666666" points="1292.75,-526.5 1184.5,-526.5 1184.5,-493 1292.75,-493 1292.75,-526.5"/>
<text xml:space="preserve" text-anchor="start" x="1192.5" y="-513" font-family="Helvetica,sans-Serif" font-size="10.00">inja::Environment::</text>
<text xml:space="preserve" text-anchor="middle" x="1238.62" y="-500.25" font-family="Helvetica,sans-Serif" font-size="10.00">render_file</text>
</a>
</g>
</g>
<!-- Node6&#45;&gt;Node20 -->
<g id="edge25_Node000006_Node000020" class="edge">
<title>Node6&#45;&gt;Node20</title>
<g id="a_edge25_Node000006_Node000020"><a xlink:title=" ">
<path fill="none" stroke="#63b8ff" d="M1317.13,-509.75C1308.99,-509.75 1300.75,-509.75 1292.82,-509.75"/>
<polygon fill="#63b8ff" stroke="#63b8ff" points="1316.99,-513.25 1326.99,-509.75 1316.99,-506.25 1316.99,-513.25"/>
</a>
</g>
</g>
<!-- Node24 -->
<g id="Node000024" class="node">
<title>Node24</title>
<g id="a_Node000024"><a xlink:href="classinja_1_1Environment.html#a832e72bad384f9c59f587ff73eb9a235" target="_top" xlink:title=" ">
<polygon fill="white" stroke="#666666" points="1292.75,-452.5 1184.5,-452.5 1184.5,-419 1292.75,-419 1292.75,-452.5"/>
<text xml:space="preserve" text-anchor="start" x="1192.5" y="-439" font-family="Helvetica,sans-Serif" font-size="10.00">inja::Environment::</text>
<text xml:space="preserve" text-anchor="middle" x="1238.62" y="-426.25" font-family="Helvetica,sans-Serif" font-size="10.00">write</text>
</a>
</g>
</g>
<!-- Node6&#45;&gt;Node24 -->
<g id="edge29_Node000006_Node000024" class="edge">
<title>Node6&#45;&gt;Node24</title>
<g id="a_edge29_Node000006_Node000024"><a xlink:title=" ">
<path fill="none" stroke="#63b8ff" d="M1336.08,-487.48C1333.59,-486.23 1331.14,-484.98 1328.75,-483.75 1309.37,-473.79 1287.85,-462.22 1270.81,-452.93"/>
<polygon fill="#63b8ff" stroke="#63b8ff" points="1334.48,-490.59 1344.99,-491.92 1337.6,-484.33 1334.48,-490.59"/>
</a>
</g>
</g>
<!-- Node8 -->
<g id="Node000008" class="node">
<title>Node8</title>
<g id="a_Node000008"><a xlink:href="classmqtt_1_1lib_1_1MqttMapper.html#af9adb23cc42f2128abccb8edd5ad6396" target="_top" xlink:title=" ">
<polygon fill="white" stroke="#666666" points="1148.5,-634.5 1007.25,-634.5 1007.25,-601 1148.5,-601 1148.5,-634.5"/>
<text xml:space="preserve" text-anchor="start" x="1015.25" y="-621" font-family="Helvetica,sans-Serif" font-size="10.00">mqtt::lib::MqttMapper</text>
<text xml:space="preserve" text-anchor="middle" x="1077.88" y="-608.25" font-family="Helvetica,sans-Serif" font-size="10.00">::publishMappedTemplate</text>
</a>
</g>
</g>
<!-- Node7&#45;&gt;Node8 -->
<g id="edge7_Node000007_Node000008" class="edge">
<title>Node7&#45;&gt;Node8</title>
<g id="a_edge7_Node000007_Node000008"><a xlink:title=" ">
<path fill="none" stroke="#63b8ff" d="M1173.38,-590.96C1162.26,-594.11 1150.73,-597.38 1139.71,-600.51"/>
<polygon fill="#63b8ff" stroke="#63b8ff" points="1174.2,-594.37 1182.87,-588.27 1172.29,-587.63 1174.2,-594.37"/>
</a>
</g>
</g>
<!-- Node19 -->
<g id="Node000019" class="node">
<title>Node19</title>
<g id="a_Node000019"><a xlink:href="namespaceinja.html#a539106781b52cc6117fc132f927a9dec" target="_top" xlink:title="render with default settings to a string">
<polygon fill="white" stroke="#666666" points="1113.62,-583.12 1042.12,-583.12 1042.12,-562.38 1113.62,-562.38 1113.62,-583.12"/>
<text xml:space="preserve" text-anchor="middle" x="1077.88" y="-569.62" font-family="Helvetica,sans-Serif" font-size="10.00">inja::render</text>
</a>
</g>
</g>
<!-- Node7&#45;&gt;Node19 -->
<g id="edge24_Node000007_Node000019" class="edge">
<title>Node7&#45;&gt;Node19</title>
<g id="a_edge24_Node000007_Node000019"><a xlink:title=" ">
<path fill="none" stroke="#63b8ff" d="M1172.94,-572.75C1152.72,-572.75 1131.18,-572.75 1113.82,-572.75"/>
<polygon fill="#63b8ff" stroke="#63b8ff" points="1172.81,-576.25 1182.81,-572.75 1172.81,-569.25 1172.81,-576.25"/>
</a>
</g>
</g>
<!-- Node9 -->
<g id="Node000009" class="node">
<title>Node9</title>
<g id="a_Node000009"><a xlink:href="classmqtt_1_1lib_1_1MqttMapper.html#a87fc6345c899ea6a7e58069daa666306" target="_top" xlink:title=" ">
<polygon fill="white" stroke="#666666" points="971.25,-634.5 841.25,-634.5 841.25,-601 971.25,-601 971.25,-634.5"/>
<text xml:space="preserve" text-anchor="start" x="849.25" y="-621" font-family="Helvetica,sans-Serif" font-size="10.00">mqtt::lib::MqttMapper</text>
<text xml:space="preserve" text-anchor="middle" x="906.25" y="-608.25" font-family="Helvetica,sans-Serif" font-size="10.00">::getTemplateMappings</text>
</a>
</g>
</g>
<!-- Node8&#45;&gt;Node9 -->
<g id="edge8_Node000008_Node000009" class="edge">
<title>Node8&#45;&gt;Node9</title>
<g id="a_edge8_Node000008_Node000009"><a xlink:title=" ">
<path fill="none" stroke="#63b8ff" d="M995.59,-617.75C987.54,-617.75 979.46,-617.75 971.62,-617.75"/>
<polygon fill="#63b8ff" stroke="#63b8ff" points="995.39,-621.25 1005.39,-617.75 995.39,-614.25 995.39,-621.25"/>
</a>
</g>
</g>
<!-- Node10 -->
<g id="Node000010" class="node">
<title>Node10</title>
<g id="a_Node000010"><a xlink:href="classmqtt_1_1lib_1_1MqttMapper.html#a542c86edf273308138357e4773c55d3c" target="_top" xlink:title=" ">
<polygon fill="white" stroke="#666666" points="805.25,-634.5 682.75,-634.5 682.75,-601 805.25,-601 805.25,-634.5"/>
<text xml:space="preserve" text-anchor="start" x="690.75" y="-621" font-family="Helvetica,sans-Serif" font-size="10.00">mqtt::lib::MqttMapper</text>
<text xml:space="preserve" text-anchor="middle" x="744" y="-608.25" font-family="Helvetica,sans-Serif" font-size="10.00">::getMappings</text>
</a>
</g>
</g>
<!-- Node9&#45;&gt;Node10 -->
<g id="edge9_Node000009_Node000010" class="edge">
<title>Node9&#45;&gt;Node10</title>
<g id="a_edge9_Node000009_Node000010"><a xlink:title=" ">
<path fill="none" stroke="#63b8ff" d="M829.67,-617.75C821.61,-617.75 813.49,-617.75 805.63,-617.75"/>
<polygon fill="#63b8ff" stroke="#63b8ff" points="829.48,-621.25 839.48,-617.75 829.48,-614.25 829.48,-621.25"/>
</a>
</g>
</g>
<!-- Node11 -->
<g id="Node000011" class="node">
<title>Node11</title>
<g id="a_Node000011"><a xlink:href="classmqtt_1_1mqttbroker_1_1lib_1_1Mqtt.html#a35dd670ca3b7d67cffbbce1cf7c71ffb" target="_top" xlink:title=" ">
<polygon fill="white" stroke="#666666" points="646.75,-669.5 529.5,-669.5 529.5,-636 646.75,-636 646.75,-669.5"/>
<text xml:space="preserve" text-anchor="start" x="537.5" y="-656" font-family="Helvetica,sans-Serif" font-size="10.00">mqtt::mqttbroker::lib</text>
<text xml:space="preserve" text-anchor="middle" x="588.12" y="-643.25" font-family="Helvetica,sans-Serif" font-size="10.00">::Mqtt::onPublish</text>
</a>
</g>
</g>
<!-- Node10&#45;&gt;Node11 -->
<g id="edge10_Node000010_Node000011" class="edge">
<title>Node10&#45;&gt;Node11</title>
<g id="a_edge10_Node000010_Node000011"><a xlink:title=" ">
<path fill="none" stroke="#63b8ff" d="M671.53,-634.01C663.33,-635.87 655.05,-637.75 647.06,-639.57"/>
<polygon fill="#63b8ff" stroke="#63b8ff" points="672.18,-637.45 681.15,-631.82 670.62,-630.62 672.18,-637.45"/>
</a>
</g>
</g>
<!-- Node15 -->
<g id="Node000015" class="node">
<title>Node15</title>
<g id="a_Node000015"><a xlink:href="classmqtt_1_1mqttintegrator_1_1lib_1_1Mqtt.html#a211408365844787ce77340f454b9cbd0" target="_top" xlink:title=" ">
<polygon fill="white" stroke="#666666" points="646.38,-599.5 529.88,-599.5 529.88,-566 646.38,-566 646.38,-599.5"/>
<text xml:space="preserve" text-anchor="start" x="537.88" y="-586" font-family="Helvetica,sans-Serif" font-size="10.00">mqtt::mqttintegrator</text>
<text xml:space="preserve" text-anchor="middle" x="588.12" y="-573.25" font-family="Helvetica,sans-Serif" font-size="10.00">::lib::Mqtt::onPublish</text>
</a>
</g>
</g>
<!-- Node10&#45;&gt;Node15 -->
<g id="edge17_Node000010_Node000015" class="edge">
<title>Node10&#45;&gt;Node15</title>
<g id="a_edge17_Node000010_Node000015"><a xlink:title=" ">
<path fill="none" stroke="#63b8ff" d="M671.45,-601.48C663.19,-599.6 654.85,-597.7 646.81,-595.87"/>
<polygon fill="#63b8ff" stroke="#63b8ff" points="670.62,-604.88 681.15,-603.68 672.18,-598.05 670.62,-604.88"/>
</a>
</g>
</g>
<!-- Node11&#45;&gt;Node11 -->
<g id="edge11_Node000011_Node000011" class="edge">
<title>Node11&#45;&gt;Node11</title>
<g id="a_edge11_Node000011_Node000011"><a xlink:title=" ">
<path fill="none" stroke="#63b8ff" d="M614.3,-680.89C610.04,-684.85 601.31,-687.5 588.12,-687.5 564.68,-687.5 555.34,-679.12 560.1,-669.91"/>
<polygon fill="#63b8ff" stroke="#63b8ff" points="617.69,-681.85 615.89,-671.41 610.78,-680.69 617.69,-681.85"/>
</a>
</g>
</g>
<!-- Node12 -->
<g id="Node000012" class="node">
<title>Node12</title>
<g id="a_Node000012"><a xlink:href="classmqtt_1_1mqttbroker_1_1lib_1_1Mqtt_1_1DelayedQueue.html#abe935c28141087ad3eadf41acab44702" target="_top" xlink:title=" ">
<polygon fill="white" stroke="#666666" points="484.5,-726.88 362,-726.88 362,-680.62 484.5,-680.62 484.5,-726.88"/>
<text xml:space="preserve" text-anchor="start" x="370" y="-713.38" font-family="Helvetica,sans-Serif" font-size="10.00">mqtt::mqttbroker::lib</text>
<text xml:space="preserve" text-anchor="start" x="370" y="-700.62" font-family="Helvetica,sans-Serif" font-size="10.00">::Mqtt::DelayedQueue</text>
<text xml:space="preserve" text-anchor="middle" x="423.25" y="-687.88" font-family="Helvetica,sans-Serif" font-size="10.00">::processDue</text>
</a>
</g>
</g>
<!-- Node11&#45;&gt;Node12 -->
<g id="edge12_Node000011_Node000012" class="edge">
<title>Node11&#45;&gt;Node12</title>
<g id="a_edge12_Node000011_Node000012"><a xlink:title=" ">
<path fill="none" stroke="#63b8ff" d="M521.52,-673.29C509.44,-677.07 496.88,-681.01 484.96,-684.74"/>
<polygon fill="#63b8ff" stroke="#63b8ff" points="522.5,-676.65 530.99,-670.33 520.4,-669.97 522.5,-676.65"/>
</a>
</g>
</g>
<!-- Node13 -->
<g id="Node000013" class="node">
<title>Node13</title>
<g id="a_Node000013"><a xlink:href="classmqtt_1_1mqttbroker_1_1lib_1_1Mqtt_1_1DelayedQueue.html#a8becf2d97fc0f71a12ae5e84ea8b2a66" target="_top" xlink:title=" ">
<polygon fill="white" stroke="#666666" points="308,-726.88 185.5,-726.88 185.5,-680.62 308,-680.62 308,-726.88"/>
<text xml:space="preserve" text-anchor="start" x="193.5" y="-713.38" font-family="Helvetica,sans-Serif" font-size="10.00">mqtt::mqttbroker::lib</text>
<text xml:space="preserve" text-anchor="start" x="193.5" y="-700.62" font-family="Helvetica,sans-Serif" font-size="10.00">::Mqtt::DelayedQueue</text>
<text xml:space="preserve" text-anchor="middle" x="246.75" y="-687.88" font-family="Helvetica,sans-Serif" font-size="10.00">::armDelayTimer</text>
</a>
</g>
</g>
<!-- Node12&#45;&gt;Node13 -->
<g id="edge13_Node000012_Node000013" class="edge">
<title>Node12&#45;&gt;Node13</title>
<g id="a_edge13_Node000012_Node000013"><a xlink:title=" ">
<path fill="none" stroke="#63b8ff" d="M350.21,-703.75C336.35,-703.75 321.95,-703.75 308.48,-703.75"/>
<polygon fill="#63b8ff" stroke="#63b8ff" points="350.19,-707.25 360.19,-703.75 350.19,-700.25 350.19,-707.25"/>
</a>
</g>
</g>
<!-- Node13&#45;&gt;Node13 -->
<g id="edge14_Node000013_Node000013" class="edge">
<title>Node13&#45;&gt;Node13</title>
<g id="a_edge14_Node000013_Node000013"><a xlink:title=" ">
<path fill="none" stroke="#63b8ff" d="M275.78,-737.61C270.75,-741.98 261.08,-744.88 246.75,-744.88 222.62,-744.88 211.68,-736.68 213.95,-727"/>
<polygon fill="#63b8ff" stroke="#63b8ff" points="278.99,-739.02 279.05,-728.43 272.39,-736.68 278.99,-739.02"/>
</a>
</g>
</g>
<!-- Node14 -->
<g id="Node000014" class="node">
<title>Node14</title>
<g id="a_Node000014"><a xlink:href="classmqtt_1_1mqttbroker_1_1lib_1_1Mqtt_1_1DelayedQueue.html#a0cea5b90a1434e82da43bd2f4c6dd47c" target="_top" xlink:title=" ">
<polygon fill="white" stroke="#666666" points="131.5,-700.88 9,-700.88 9,-654.62 131.5,-654.62 131.5,-700.88"/>
<text xml:space="preserve" text-anchor="start" x="17" y="-687.38" font-family="Helvetica,sans-Serif" font-size="10.00">mqtt::mqttbroker::lib</text>
<text xml:space="preserve" text-anchor="start" x="17" y="-674.62" font-family="Helvetica,sans-Serif" font-size="10.00">::Mqtt::DelayedQueue</text>
<text xml:space="preserve" text-anchor="middle" x="70.25" y="-661.88" font-family="Helvetica,sans-Serif" font-size="10.00">::delayPublish</text>
</a>
</g>
</g>
<!-- Node13&#45;&gt;Node14 -->
<g id="edge15_Node000013_Node000014" class="edge">
<title>Node13&#45;&gt;Node14</title>
<g id="a_edge15_Node000013_Node000014"><a xlink:title=" ">
<path fill="none" stroke="#63b8ff" d="M174.13,-693.08C160.13,-690.99 145.58,-688.83 131.98,-686.8"/>
<polygon fill="#63b8ff" stroke="#63b8ff" points="173.3,-696.49 183.71,-694.51 174.34,-689.57 173.3,-696.49"/>
</a>
</g>
</g>
<!-- Node14&#45;&gt;Node11 -->
<g id="edge16_Node000014_Node000011" class="edge">
<title>Node14&#45;&gt;Node11</title>
<g id="a_edge16_Node000014_Node000011"><a xlink:title=" ">
<path fill="none" stroke="#63b8ff" d="M143.36,-673.54C154.45,-672.92 165.78,-672.3 176.5,-671.75 302.29,-665.25 449.82,-658.68 529.31,-655.23"/>
<polygon fill="#63b8ff" stroke="#63b8ff" points="143.21,-670.04 133.42,-674.1 143.6,-677.03 143.21,-670.04"/>
</a>
</g>
</g>
<!-- Node15&#45;&gt;Node15 -->
<g id="edge18_Node000015_Node000015" class="edge">
<title>Node15&#45;&gt;Node15</title>
<g id="a_edge18_Node000015_Node000015"><a xlink:title=" ">
<path fill="none" stroke="#63b8ff" d="M614.3,-610.89C610.04,-614.85 601.31,-617.5 588.12,-617.5 564.68,-617.5 555.34,-609.12 560.1,-599.91"/>
<polygon fill="#63b8ff" stroke="#63b8ff" points="617.69,-611.85 615.89,-601.41 610.78,-610.69 617.69,-611.85"/>
</a>
</g>
</g>
<!-- Node16 -->
<g id="Node000016" class="node">
<title>Node16</title>
<g id="a_Node000016"><a xlink:href="classmqtt_1_1mqttintegrator_1_1lib_1_1Mqtt_1_1DelayedQueue.html#ad8803a587bf94d106c9a501c01ac8ea8" target="_top" xlink:title=" ">
<polygon fill="white" stroke="#666666" points="493.5,-606.88 353,-606.88 353,-560.62 493.5,-560.62 493.5,-606.88"/>
<text xml:space="preserve" text-anchor="start" x="361" y="-593.38" font-family="Helvetica,sans-Serif" font-size="10.00">mqtt::mqttintegrator</text>
<text xml:space="preserve" text-anchor="start" x="361" y="-580.62" font-family="Helvetica,sans-Serif" font-size="10.00">::lib::Mqtt::DelayedQueue</text>
<text xml:space="preserve" text-anchor="middle" x="423.25" y="-567.88" font-family="Helvetica,sans-Serif" font-size="10.00">::processDue</text>
</a>
</g>
</g>
<!-- Node15&#45;&gt;Node16 -->
<g id="edge19_Node000015_Node000016" class="edge">
<title>Node15&#45;&gt;Node16</title>
<g id="a_edge19_Node000015_Node000016"><a xlink:title=" ">
<path fill="none" stroke="#63b8ff" d="M518.34,-583.17C510.19,-583.22 501.88,-583.27 493.73,-583.32"/>
<polygon fill="#63b8ff" stroke="#63b8ff" points="518.21,-586.67 528.19,-583.11 518.17,-579.67 518.21,-586.67"/>
</a>
</g>
</g>
<!-- Node17 -->
<g id="Node000017" class="node">
<title>Node17</title>
<g id="a_Node000017"><a xlink:href="classmqtt_1_1mqttintegrator_1_1lib_1_1Mqtt_1_1DelayedQueue.html#a110f0813ded3a278c42dab9337c2a723" target="_top" xlink:title=" ">
<polygon fill="white" stroke="#666666" points="317,-606.88 176.5,-606.88 176.5,-560.62 317,-560.62 317,-606.88"/>
<text xml:space="preserve" text-anchor="start" x="184.5" y="-593.38" font-family="Helvetica,sans-Serif" font-size="10.00">mqtt::mqttintegrator</text>
<text xml:space="preserve" text-anchor="start" x="184.5" y="-580.62" font-family="Helvetica,sans-Serif" font-size="10.00">::lib::Mqtt::DelayedQueue</text>
<text xml:space="preserve" text-anchor="middle" x="246.75" y="-567.88" font-family="Helvetica,sans-Serif" font-size="10.00">::armDelayTimer</text>
</a>
</g>
</g>
<!-- Node16&#45;&gt;Node17 -->
<g id="edge20_Node000016_Node000017" class="edge">
<title>Node16&#45;&gt;Node17</title>
<g id="a_edge20_Node000016_Node000017"><a xlink:title=" ">
<path fill="none" stroke="#63b8ff" d="M341.02,-583.75C333.11,-583.75 325.14,-583.75 317.36,-583.75"/>
<polygon fill="#63b8ff" stroke="#63b8ff" points="341.02,-587.25 351.02,-583.75 341.02,-580.25 341.02,-587.25"/>
</a>
</g>
</g>
<!-- Node17&#45;&gt;Node17 -->
<g id="edge21_Node000017_Node000017" class="edge">
<title>Node17&#45;&gt;Node17</title>
<g id="a_edge21_Node000017_Node000017"><a xlink:title=" ">
<path fill="none" stroke="#63b8ff" d="M275.78,-617.61C270.75,-621.98 261.08,-624.88 246.75,-624.88 222.62,-624.88 211.68,-616.68 213.95,-607"/>
<polygon fill="#63b8ff" stroke="#63b8ff" points="278.99,-619.02 279.05,-608.43 272.39,-616.68 278.99,-619.02"/>
</a>
</g>
</g>
<!-- Node18 -->
<g id="Node000018" class="node">
<title>Node18</title>
<g id="a_Node000018"><a xlink:href="classmqtt_1_1mqttintegrator_1_1lib_1_1Mqtt_1_1DelayedQueue.html#a95c8667b0cef676e6edcb1760ed4a7f9" target="_top" xlink:title=" ">
<polygon fill="white" stroke="#666666" points="140.5,-581.88 0,-581.88 0,-535.62 140.5,-535.62 140.5,-581.88"/>
<text xml:space="preserve" text-anchor="start" x="8" y="-568.38" font-family="Helvetica,sans-Serif" font-size="10.00">mqtt::mqttintegrator</text>
<text xml:space="preserve" text-anchor="start" x="8" y="-555.62" font-family="Helvetica,sans-Serif" font-size="10.00">::lib::Mqtt::DelayedQueue</text>
<text xml:space="preserve" text-anchor="middle" x="70.25" y="-542.88" font-family="Helvetica,sans-Serif" font-size="10.00">::delayPublish</text>
</a>
</g>
</g>
<!-- Node17&#45;&gt;Node18 -->
<g id="edge22_Node000017_Node000018" class="edge">
<title>Node17&#45;&gt;Node18</title>
<g id="a_edge22_Node000017_Node000018"><a xlink:title=" ">
<path fill="none" stroke="#63b8ff" d="M164.8,-572.15C156.8,-571.01 148.73,-569.85 140.86,-568.72"/>
<polygon fill="#63b8ff" stroke="#63b8ff" points="164.14,-575.59 174.53,-573.55 165.13,-568.66 164.14,-575.59"/>
</a>
</g>
</g>
<!-- Node18&#45;&gt;Node15 -->
<g id="edge23_Node000018_Node000015" class="edge">
<title>Node18&#45;&gt;Node15</title>
<g id="a_edge23_Node000018_Node000015"><a xlink:title=" ">
<path fill="none" stroke="#63b8ff" d="M152.35,-549.01C237.8,-540.7 376.03,-532.81 493.5,-551.75 510.74,-554.53 529.11,-560.02 544.96,-565.61"/>
<polygon fill="#63b8ff" stroke="#63b8ff" points="152.01,-545.52 142.41,-550 152.71,-552.49 152.01,-545.52"/>
</a>
</g>
</g>
<!-- Node21 -->
<g id="Node000021" class="node">
<title>Node21</title>
<g id="a_Node000021"><a xlink:href="classinja_1_1Environment.html#a815d87f3fb622a7639691803ff9a123b" target="_top" xlink:title=" ">
<polygon fill="white" stroke="#666666" points="1148.5,-544.5 1007.25,-544.5 1007.25,-511 1148.5,-511 1148.5,-544.5"/>
<text xml:space="preserve" text-anchor="start" x="1015.25" y="-531" font-family="Helvetica,sans-Serif" font-size="10.00">inja::Environment::</text>
<text xml:space="preserve" text-anchor="middle" x="1077.88" y="-518.25" font-family="Helvetica,sans-Serif" font-size="10.00">render_file_with_json_file</text>
</a>
</g>
</g>
<!-- Node20&#45;&gt;Node21 -->
<g id="edge26_Node000020_Node000021" class="edge">
<title>Node20&#45;&gt;Node21</title>
<g id="a_edge26_Node000020_Node000021"><a xlink:title=" ">
<path fill="none" stroke="#63b8ff" d="M1172.93,-517.09C1165.03,-517.98 1156.93,-518.9 1148.95,-519.8"/>
<polygon fill="#63b8ff" stroke="#63b8ff" points="1173.28,-520.57 1182.82,-515.96 1172.49,-513.61 1173.28,-520.57"/>
</a>
</g>
</g>
<!-- Node22 -->
<g id="Node000022" class="node">
<title>Node22</title>
<g id="a_Node000022"><a xlink:href="classinja_1_1Environment.html#ae64c18f23f81e8ee787d406ccd4d35dc" target="_top" xlink:title=" ">
<polygon fill="white" stroke="#666666" points="1132,-492.5 1023.75,-492.5 1023.75,-459 1132,-459 1132,-492.5"/>
<text xml:space="preserve" text-anchor="start" x="1031.75" y="-479" font-family="Helvetica,sans-Serif" font-size="10.00">inja::Environment::</text>
<text xml:space="preserve" text-anchor="middle" x="1077.88" y="-466.25" font-family="Helvetica,sans-Serif" font-size="10.00">write</text>
</a>
</g>
</g>
<!-- Node20&#45;&gt;Node22 -->
<g id="edge27_Node000020_Node000022" class="edge">
<title>Node20&#45;&gt;Node22</title>
<g id="a_edge27_Node000020_Node000022"><a xlink:title=" ">
<path fill="none" stroke="#63b8ff" d="M1173.11,-495.93C1159.56,-493.03 1145.4,-490 1132.31,-487.19"/>
<polygon fill="#63b8ff" stroke="#63b8ff" points="1172.33,-499.35 1182.84,-498.02 1173.8,-492.5 1172.33,-499.35"/>
</a>
</g>
</g>
<!-- Node23 -->
<g id="Node000023" class="node">
<title>Node23</title>
<g id="a_Node000023"><a xlink:href="classinja_1_1Environment.html#ad6a6b713e78516f4f6fd68c58f309f3c" target="_top" xlink:title=" ">
<polygon fill="white" stroke="#666666" points="963,-492.5 849.5,-492.5 849.5,-459 963,-459 963,-492.5"/>
<text xml:space="preserve" text-anchor="start" x="857.5" y="-479" font-family="Helvetica,sans-Serif" font-size="10.00">inja::Environment::</text>
<text xml:space="preserve" text-anchor="middle" x="906.25" y="-466.25" font-family="Helvetica,sans-Serif" font-size="10.00">write_with_json_file</text>
</a>
</g>
</g>
<!-- Node22&#45;&gt;Node23 -->
<g id="edge28_Node000022_Node000023" class="edge">
<title>Node22&#45;&gt;Node23</title>
<g id="a_edge28_Node000022_Node000023"><a xlink:title=" ">
<path fill="none" stroke="#63b8ff" d="M1012.2,-475.75C996.16,-475.75 979.1,-475.75 963.49,-475.75"/>
<polygon fill="#63b8ff" stroke="#63b8ff" points="1012.16,-479.25 1022.16,-475.75 1012.16,-472.25 1012.16,-479.25"/>
</a>
</g>
</g>
<!-- Node25 -->
<g id="Node000025" class="node">
<title>Node25</title>
<g id="a_Node000025"><a xlink:href="classinja_1_1Environment.html#a9c6eb9a291cf99615991f999128248a7" target="_top" xlink:title=" ">
<polygon fill="white" stroke="#666666" points="1134.62,-440.5 1021.12,-440.5 1021.12,-407 1134.62,-407 1134.62,-440.5"/>
<text xml:space="preserve" text-anchor="start" x="1029.12" y="-427" font-family="Helvetica,sans-Serif" font-size="10.00">inja::Environment::</text>
<text xml:space="preserve" text-anchor="middle" x="1077.88" y="-414.25" font-family="Helvetica,sans-Serif" font-size="10.00">write_with_json_file</text>
</a>
</g>
</g>
<!-- Node24&#45;&gt;Node25 -->
<g id="edge30_Node000024_Node000025" class="edge">
<title>Node24&#45;&gt;Node25</title>
<g id="a_edge30_Node000024_Node000025"><a xlink:title=" ">
<path fill="none" stroke="#63b8ff" d="M1172.96,-430.86C1160.38,-429.91 1147.3,-428.92 1135.03,-427.99"/>
<polygon fill="#63b8ff" stroke="#63b8ff" points="1172.58,-434.34 1182.81,-431.61 1173.1,-427.36 1172.58,-434.34"/>
</a>
</g>
</g>
</g>
</svg>

<g id="navigator" transform="translate(0 0)" fill="#404254">
  <rect fill="#f2f5e9" fill-opacity="0.5" stroke="#606060" stroke-width=".5" x="0" y="0" width="60" height="60"/>
  <use id="zoomplus" xlink:href="#zoomPlus" x="17" y="9" onmousedown="handleZoom(evt,'in')"/>
  <use id="zoomminus" xlink:href="#zoomMin" x="42" y="9" onmousedown="handleZoom(evt,'out')"/>
  <use id="reset" xlink:href="#resetDef" x="30" y="36" onmousedown="handleReset()"/>
   <use id="arrowup" xlink:href="#arrowUp" x="0" y="0" onmousedown="handlePan(0,-1)"/>
  <use id="arrowright" xlink:href="#arrowRight" x="0" y="0" onmousedown="handlePan(1,0)"/>
  <use id="arrowdown" xlink:href="#arrowDown" x="0" y="0" onmousedown="handlePan(0,1)"/>
  <use id="arrowleft" xlink:href="#arrowLeft" x="0" y="0" onmousedown="handlePan(-1,0)"/>
</g>
<svg viewBox="0 0 15 15" width="100%" height="30px" preserveAspectRatio="xMaxYMin meet">
 <g id="arrow_out" transform="scale(0.3 0.3)">
  <a xlink:href="classinja_1_1NodeVisitor_afecb3de947b76e68094be2a72eedea09_icgraph_org.svg" target="_base">
   <rect id="button" ry="5" rx="5" y="6" x="6" height="38" width="38"
        fill="#f2f5e9" fill-opacity="0.5" stroke="#606060" stroke-width="1.0"/>
   <path id="arrow"
     d="M 11.500037,31.436501 C 11.940474,20.09759 22.043105,11.32322 32.158766,21.979434 L 37.068811,17.246167 C 37.068811,17.246167 37.088388,32 37.088388,32 L 22.160133,31.978069 C 22.160133,31.978069 26.997745,27.140456 26.997745,27.140456 C 18.528582,18.264221 13.291696,25.230495 11.500037,31.436501 z"
     style="fill:#404040;"/>
  </a>
 </g>
</svg>

<style type='text/css'>
<![CDATA[
[data-mouse-over-selected='false'] { opacity: 0.7; }
[data-mouse-over-selected='true']  { opacity: 1.0; }
]]>
</style>
<script type="application/ecmascript"><![CDATA[
document.addEventListener('DOMContentLoaded', (event) => {
  highlightEdges();
  highlightAdjacentNodes();
});
]]></script>
</svg>
