<?xml version="1.0" encoding="UTF-8" standalone="no"?>
<!DOCTYPE svg PUBLIC "-//W3C//DTD SVG 1.1//EN"
 "http://www.w3.org/Graphics/SVG/1.1/DTD/svg11.dtd">
<!-- Generated by graphviz version 2.42.4 (0)
 -->
<!-- Title: nlohmann::json_schema::basic_error_handler::error Pages: 1 -->
<svg width="302pt" height="220pt"
 viewBox="0.00 0.00 302.00 219.50" xmlns="http://www.w3.org/2000/svg" xmlns:xlink="http://www.w3.org/1999/xlink">

<svg id="main" version="1.1" xmlns="http://www.w3.org/2000/svg" xmlns:xlink="http://www.w3.org/1999/xlink" xml:space="preserve" onload="init(evt)">
<style type="text/css"><![CDATA[
.node, .edge {opacity: 0.7;}
.node.selected, .edge.selected {opacity: 1;}
.edge:hover path { stroke: red; }
.edge:hover polygon { stroke: red; fill: red; }
]]></style>
<script type="application/ecmascript" xlink:href="svg.min.js"/>
<svg id="graph" class="graph">
<g id="graph0" class="graph" transform="scale(1 1) rotate(0) translate(4 215.5)">
<title>nlohmann::json_schema::basic_error_handler::error</title>
<!-- Node1 -->
<g id="Node000001" class="node">
<title>Node1</title>
<g id="a_Node000001"><a xlink:title=" ">
<polygon fill="#999999" stroke="#666666" points="294,-121 159,-121 159,-80 294,-80 294,-121"/>
<text text-anchor="start" x="167" y="-109" font-family="Helvetica,sans-Serif" font-size="10.00">nlohmann::json_schema</text>
<text text-anchor="start" x="167" y="-98" font-family="Helvetica,sans-Serif" font-size="10.00">::basic_error_handler</text>
<text text-anchor="middle" x="226.5" y="-87" font-family="Helvetica,sans-Serif" font-size="10.00">::error</text>
</a>
</g>
</g>
<!-- Node2 -->
<g id="Node000002" class="node">
<title>Node2</title>
<g id="a_Node000002"><a xlink:href="classstore__ptr__err__handler.html#a565d710a8321fd938af8cc6f6407e630" target="_top" xlink:title=" ">
<polygon fill="white" stroke="#666666" points="122,-211.5 1,-211.5 1,-181.5 122,-181.5 122,-211.5"/>
<text text-anchor="start" x="9" y="-199.5" font-family="Helvetica,sans-Serif" font-size="10.00">store_ptr_err_handler</text>
<text text-anchor="middle" x="61.5" y="-188.5" font-family="Helvetica,sans-Serif" font-size="10.00">::error</text>
</a>
</g>
</g>
<!-- Node1&#45;&gt;Node2 -->
<g id="edge1_Node000001_Node000002" class="edge">
<title>Node1&#45;&gt;Node2</title>
<g id="a_edge1_Node000001_Node000002"><a xlink:title=" ">
<path fill="none" stroke="#63b8ff" d="M191.44,-127.47C172.09,-142 147,-159.54 123,-172.5 117.13,-175.67 110.76,-178.65 104.42,-181.36"/>
<polygon fill="#63b8ff" stroke="#63b8ff" points="193.79,-130.08 199.63,-121.24 189.55,-124.51 193.79,-130.08"/>
</a>
</g>
</g>
<!-- Node3 -->
<g id="Node000003" class="node">
<title>Node3</title>
<g id="a_Node000003"><a xlink:href="classcustom__error__handler.html#a028c0db53b8d6a7cf9e8caf62e54667d" target="_top" xlink:title=" ">
<polygon fill="white" stroke="#666666" points="123,-163.5 0,-163.5 0,-133.5 123,-133.5 123,-163.5"/>
<text text-anchor="start" x="8" y="-151.5" font-family="Helvetica,sans-Serif" font-size="10.00">custom_error_handler</text>
<text text-anchor="middle" x="61.5" y="-140.5" font-family="Helvetica,sans-Serif" font-size="10.00">::error</text>
</a>
</g>
</g>
<!-- Node1&#45;&gt;Node3 -->
<g id="edge2_Node000001_Node000003" class="edge">
<title>Node1&#45;&gt;Node3</title>
<g id="a_edge2_Node000001_Node000003"><a xlink:title=" ">
<path fill="none" stroke="#63b8ff" d="M149.09,-123C137,-126.56 124.76,-130.17 113.44,-133.5"/>
<polygon fill="#63b8ff" stroke="#63b8ff" points="150.13,-126.34 158.73,-120.16 148.15,-119.63 150.13,-126.34"/>
</a>
</g>
</g>
<!-- Node4 -->
<g id="Node000004" class="node">
<title>Node4</title>
<g id="a_Node000004"><a xlink:href="classstore__ptr__err__handler.html#a9e21a5f959326e7c6e903858461bd926" target="_top" xlink:title=" ">
<polygon fill="white" stroke="#666666" points="122,-115.5 1,-115.5 1,-85.5 122,-85.5 122,-115.5"/>
<text text-anchor="start" x="9" y="-103.5" font-family="Helvetica,sans-Serif" font-size="10.00">store_ptr_err_handler</text>
<text text-anchor="middle" x="61.5" y="-92.5" font-family="Helvetica,sans-Serif" font-size="10.00">::error</text>
</a>
</g>
</g>
<!-- Node1&#45;&gt;Node4 -->
<g id="edge3_Node000001_Node000004" class="edge">
<title>Node1&#45;&gt;Node4</title>
<g id="a_edge3_Node000001_Node000004"><a xlink:title=" ">
<path fill="none" stroke="#63b8ff" d="M148.7,-100.5C139.77,-100.5 130.76,-100.5 122.11,-100.5"/>
<polygon fill="#63b8ff" stroke="#63b8ff" points="148.73,-104 158.73,-100.5 148.73,-97 148.73,-104"/>
</a>
</g>
</g>
<!-- Node5 -->
<g id="Node000005" class="node">
<title>Node5</title>
<g id="a_Node000005"><a xlink:href="classstore__err__handler.html#a4be5dad8c27e91f7dc0d7ccfbaaa4a75" target="_top" xlink:title=" ">
<polygon fill="white" stroke="#666666" points="115.5,-67.5 7.5,-67.5 7.5,-37.5 115.5,-37.5 115.5,-67.5"/>
<text text-anchor="start" x="15.5" y="-55.5" font-family="Helvetica,sans-Serif" font-size="10.00">store_err_handler::</text>
<text text-anchor="middle" x="61.5" y="-44.5" font-family="Helvetica,sans-Serif" font-size="10.00">error</text>
</a>
</g>
</g>
<!-- Node1&#45;&gt;Node5 -->
<g id="edge4_Node000001_Node000005" class="edge">
<title>Node1&#45;&gt;Node5</title>
<g id="a_edge4_Node000001_Node000005"><a xlink:title=" ">
<path fill="none" stroke="#63b8ff" d="M149.09,-78C137,-74.44 124.76,-70.83 113.44,-67.5"/>
<polygon fill="#63b8ff" stroke="#63b8ff" points="148.15,-81.37 158.73,-80.84 150.13,-74.66 148.15,-81.37"/>
</a>
</g>
</g>
<!-- Node6 -->
<g id="Node000006" class="node">
<title>Node6</title>
<g id="a_Node000006"><a xlink:href="readme_8cpp.html#ae66f6b31b5ad750f1fe042a706a4e3d4" target="_top" xlink:title=" ">
<polygon fill="white" stroke="#666666" points="82,-19 41,-19 41,0 82,0 82,-19"/>
<text text-anchor="middle" x="61.5" y="-7" font-family="Helvetica,sans-Serif" font-size="10.00">main</text>
</a>
</g>
</g>
<!-- Node1&#45;&gt;Node6 -->
<g id="edge5_Node000001_Node000006" class="edge">
<title>Node1&#45;&gt;Node6</title>
<g id="a_edge5_Node000001_Node000006"><a xlink:title=" ">
<path fill="none" stroke="#63b8ff" d="M192.86,-73.65C173.49,-58.75 147.91,-40.79 123,-28.5 109.97,-22.07 94.29,-17.22 82.16,-14.03"/>
<polygon fill="#63b8ff" stroke="#63b8ff" points="190.73,-76.42 200.76,-79.82 195.04,-70.91 190.73,-76.42"/>
</a>
</g>
</g>
</g>
</svg>
</svg>

<style type='text/css'>
<![CDATA[
[data-mouse-over-selected='false'] { opacity: 0.7; }
[data-mouse-over-selected='true']  { opacity: 1.0; }
]]>
</style>
<script type="application/ecmascript"><![CDATA[
document.addEventListener('DOMContentLoaded', (event) => {
  highlightEdges();
  highlightAdjacentNodes();
});
]]></script>
</svg>
