<?xml version="1.0" encoding="UTF-8" standalone="no"?>
<!DOCTYPE svg PUBLIC "-//W3C//DTD SVG 1.1//EN"
 "http://www.w3.org/Graphics/SVG/1.1/DTD/svg11.dtd">
<!-- Generated by graphviz version 14.1.2 (0)
 -->
<!-- Title: mqtt::mqttstore::lib::anonymous_namespace{StoragePlan::cpp}::ProjectionValidationErrorHandler::message Pages: 1 -->
<svg width="911pt" height="94pt"
 viewBox="0.00 0.00 911.00 94.00" xmlns="http://www.w3.org/2000/svg" xmlns:xlink="http://www.w3.org/1999/xlink">
<g id="graph0" class="graph" transform="scale(1 1) rotate(0) translate(4 89.5)">
<title>mqtt::mqttstore::lib::anonymous_namespace{StoragePlan::cpp}::ProjectionValidationErrorHandler::message</title>
<!-- Node1 -->
<g id="Node000001" class="node">
<title>Node1</title>
<g id="a_Node000001"><a xlink:title=" ">
<polygon fill="#999999" stroke="#666666" points="902.75,-72.25 725.5,-72.25 725.5,-13.25 902.75,-13.25 902.75,-72.25"/>
<text xml:space="preserve" text-anchor="start" x="733.5" y="-58.75" font-family="Helvetica,sans-Serif" font-size="10.00">mqtt::mqttstore::lib</text>
<text xml:space="preserve" text-anchor="start" x="733.5" y="-46" font-family="Helvetica,sans-Serif" font-size="10.00">::anonymous_namespace</text>
<text xml:space="preserve" text-anchor="start" x="733.5" y="-33.25" font-family="Helvetica,sans-Serif" font-size="10.00">{StoragePlan::cpp}::Projection</text>
<text xml:space="preserve" text-anchor="middle" x="814.12" y="-20.5" font-family="Helvetica,sans-Serif" font-size="10.00">ValidationErrorHandler::message</text>
</a>
</g>
</g>
<!-- Node2 -->
<g id="Node000002" class="node">
<title>Node2</title>
<g id="a_Node000002"><a xlink:href="namespacemqtt_1_1mqttstore_1_1lib_1_1anonymous__namespace_02StoragePlan_8cpp_03.html#a98bde28ee9174aba6a9f109fd2918b87" target="_top" xlink:title=" ">
<polygon fill="white" stroke="#666666" points="689.5,-72.25 534,-72.25 534,-13.25 689.5,-13.25 689.5,-72.25"/>
<text xml:space="preserve" text-anchor="start" x="542" y="-58.75" font-family="Helvetica,sans-Serif" font-size="10.00">mqtt::mqttstore::lib</text>
<text xml:space="preserve" text-anchor="start" x="542" y="-46" font-family="Helvetica,sans-Serif" font-size="10.00">::anonymous_namespace</text>
<text xml:space="preserve" text-anchor="start" x="542" y="-33.25" font-family="Helvetica,sans-Serif" font-size="10.00">{StoragePlan::cpp}::validate</text>
<text xml:space="preserve" text-anchor="middle" x="611.75" y="-20.5" font-family="Helvetica,sans-Serif" font-size="10.00">ProjectionConfiguration</text>
</a>
</g>
</g>
<!-- Node1&#45;&gt;Node2 -->
<g id="edge1_Node000001_Node000002" class="edge">
<title>Node1&#45;&gt;Node2</title>
<g id="a_edge1_Node000001_Node000002"><a xlink:title=" ">
<path fill="none" stroke="#63b8ff" d="M713.87,-42.75C705.81,-42.75 697.75,-42.75 689.88,-42.75"/>
<polygon fill="#63b8ff" stroke="#63b8ff" points="713.72,-46.25 723.72,-42.75 713.72,-39.25 713.72,-46.25"/>
</a>
</g>
</g>
<!-- Node3 -->
<g id="Node000003" class="node">
<title>Node3</title>
<g id="a_Node000003"><a xlink:href="classmqtt_1_1mqttstore_1_1lib_1_1StoragePlan.html#a7c43d857a7aec16b02864f80f80dda05" target="_top" xlink:title=" ">
<polygon fill="white" stroke="#666666" points="498,-59.5 368,-59.5 368,-26 498,-26 498,-59.5"/>
<text xml:space="preserve" text-anchor="start" x="376" y="-46" font-family="Helvetica,sans-Serif" font-size="10.00">mqtt::mqttstore::lib</text>
<text xml:space="preserve" text-anchor="middle" x="433" y="-33.25" font-family="Helvetica,sans-Serif" font-size="10.00">::StoragePlan::fromJson</text>
</a>
</g>
</g>
<!-- Node2&#45;&gt;Node3 -->
<g id="edge2_Node000002_Node000003" class="edge">
<title>Node2&#45;&gt;Node3</title>
<g id="a_edge2_Node000002_Node000003"><a xlink:title=" ">
<path fill="none" stroke="#63b8ff" d="M522.33,-42.75C514.24,-42.75 506.15,-42.75 498.33,-42.75"/>
<polygon fill="#63b8ff" stroke="#63b8ff" points="522.23,-46.25 532.23,-42.75 522.23,-39.25 522.23,-46.25"/>
</a>
</g>
</g>
<!-- Node4 -->
<g id="Node000004" class="node">
<title>Node4</title>
<g id="a_Node000004"><a xlink:href="classmqtt_1_1mqttstore_1_1lib_1_1StoragePlan.html#aac1af49efec9324c432cf80950ca71c2" target="_top" xlink:title=" ">
<polygon fill="white" stroke="#666666" points="332,-59.5 205.75,-59.5 205.75,-26 332,-26 332,-59.5"/>
<text xml:space="preserve" text-anchor="start" x="213.75" y="-46" font-family="Helvetica,sans-Serif" font-size="10.00">mqtt::mqttstore::lib</text>
<text xml:space="preserve" text-anchor="middle" x="268.88" y="-33.25" font-family="Helvetica,sans-Serif" font-size="10.00">::StoragePlan::fromFile</text>
</a>
</g>
</g>
<!-- Node3&#45;&gt;Node4 -->
<g id="edge3_Node000003_Node000004" class="edge">
<title>Node3&#45;&gt;Node4</title>
<g id="a_edge3_Node000003_Node000004"><a xlink:title=" ">
<path fill="none" stroke="#63b8ff" d="M356.58,-42.75C348.5,-42.75 340.34,-42.75 332.43,-42.75"/>
<polygon fill="#63b8ff" stroke="#63b8ff" points="356.41,-46.25 366.41,-42.75 356.41,-39.25 356.41,-46.25"/>
</a>
</g>
</g>
<!-- Node5 -->
<g id="Node000005" class="node">
<title>Node5</title>
<g id="a_Node000005"><a xlink:href="classmqtt_1_1mqttstore_1_1SocketContextFactory.html#acea1ba58636286273c0dcbecbb37046e" target="_top" xlink:title=" ">
<polygon fill="white" stroke="#666666" points="169.75,-85.5 0,-85.5 0,-52 169.75,-52 169.75,-85.5"/>
<text xml:space="preserve" text-anchor="start" x="8" y="-72" font-family="Helvetica,sans-Serif" font-size="10.00">mqtt::mqttstore::SocketContext</text>
<text xml:space="preserve" text-anchor="middle" x="84.88" y="-59.25" font-family="Helvetica,sans-Serif" font-size="10.00">Factory::create</text>
</a>
</g>
</g>
<!-- Node4&#45;&gt;Node5 -->
<g id="edge4_Node000004_Node000005" class="edge">
<title>Node4&#45;&gt;Node5</title>
<g id="a_edge4_Node000004_Node000005"><a xlink:title=" ">
<path fill="none" stroke="#63b8ff" d="M194.34,-53.25C186.34,-54.4 178.16,-55.57 170.05,-56.73"/>
<polygon fill="#63b8ff" stroke="#63b8ff" points="194.59,-56.75 204,-51.88 193.6,-49.82 194.59,-56.75"/>
</a>
</g>
</g>
<!-- Node6 -->
<g id="Node000006" class="node">
<title>Node6</title>
<g id="a_Node000006"><a xlink:href="classmqtt_1_1mqttstore_1_1websocket_1_1SubProtocolFactory.html#a273bb98403dccd31612a9353cdbe791d" target="_top" xlink:title=" ">
<polygon fill="white" stroke="#666666" points="160.75,-33.5 9,-33.5 9,0 160.75,0 160.75,-33.5"/>
<text xml:space="preserve" text-anchor="start" x="17" y="-20" font-family="Helvetica,sans-Serif" font-size="10.00">mqtt::mqttstore::websocket</text>
<text xml:space="preserve" text-anchor="middle" x="84.88" y="-7.25" font-family="Helvetica,sans-Serif" font-size="10.00">::SubProtocolFactory::create</text>
</a>
</g>
</g>
<!-- Node4&#45;&gt;Node6 -->
<g id="edge5_Node000004_Node000006" class="edge">
<title>Node4&#45;&gt;Node6</title>
<g id="a_edge5_Node000004_Node000006"><a xlink:title=" ">
<path fill="none" stroke="#63b8ff" d="M194.25,-32.23C183.31,-30.67 172.03,-29.06 161.06,-27.49"/>
<polygon fill="#63b8ff" stroke="#63b8ff" points="193.6,-35.68 204,-33.62 194.59,-28.75 193.6,-35.68"/>
</a>
</g>
</g>
</g>
</svg>
