<?xml version="1.0" encoding="UTF-8" standalone="no"?>
<!DOCTYPE svg PUBLIC "-//W3C//DTD SVG 1.1//EN"
 "http://www.w3.org/Graphics/SVG/1.1/DTD/svg11.dtd">
<!-- Generated by graphviz version 2.42.4 (0)
 -->
<!-- Title: mqtt::bridge::lib::Broker::getBridge Pages: 1 -->
<svg width="268pt" height="172pt"
 viewBox="0.00 0.00 268.00 171.50" xmlns="http://www.w3.org/2000/svg" xmlns:xlink="http://www.w3.org/1999/xlink">
<g id="graph0" class="graph" transform="scale(1 1) rotate(0) translate(4 167.5)">
<title>mqtt::bridge::lib::Broker::getBridge</title>
<!-- Node1 -->
<g id="Node000001" class="node">
<title>Node1</title>
<g id="a_Node000001"><a xlink:title=" ">
<polygon fill="#999999" stroke="#666666" points="260,-102 159,-102 159,-72 260,-72 260,-102"/>
<text text-anchor="start" x="167" y="-90" font-family="Helvetica,sans-Serif" font-size="10.00">mqtt::bridge::lib::</text>
<text text-anchor="middle" x="209.5" y="-79" font-family="Helvetica,sans-Serif" font-size="10.00">Broker::getBridge</text>
</a>
</g>
</g>
<!-- Node2 -->
<g id="Node000002" class="node">
<title>Node2</title>
<g id="a_Node000002"><a xlink:href="mqttbridge_8cpp.html#a0ddf1224851353fc92bfbff6f499fa97" target="_top" xlink:title=" ">
<polygon fill="white" stroke="#666666" points="82,-163.5 41,-163.5 41,-144.5 82,-144.5 82,-163.5"/>
<text text-anchor="middle" x="61.5" y="-151.5" font-family="Helvetica,sans-Serif" font-size="10.00">main</text>
</a>
</g>
</g>
<!-- Node1&#45;&gt;Node2 -->
<g id="edge1_Node000001_Node000002" class="edge">
<title>Node1&#45;&gt;Node2</title>
<g id="a_edge1_Node000001_Node000002"><a xlink:title=" ">
<path fill="none" stroke="#63b8ff" d="M176.1,-107.29C160.45,-116.54 141.16,-127.15 123,-135 109.76,-140.72 94.23,-145.56 82.22,-148.93"/>
<polygon fill="#63b8ff" stroke="#63b8ff" points="178.09,-110.18 184.86,-102.03 174.48,-104.18 178.09,-110.18"/>
</a>
</g>
</g>
<!-- Node3 -->
<g id="Node000003" class="node">
<title>Node3</title>
<g id="a_Node000003"><a xlink:href="classmqtt_1_1bridge_1_1lib_1_1Mqtt.html#a695ccafca764022552d51da3faccbdac" target="_top" xlink:title=" ">
<polygon fill="white" stroke="#666666" points="112,-126 11,-126 11,-96 112,-96 112,-126"/>
<text text-anchor="start" x="19" y="-114" font-family="Helvetica,sans-Serif" font-size="10.00">mqtt::bridge::lib::</text>
<text text-anchor="middle" x="61.5" y="-103" font-family="Helvetica,sans-Serif" font-size="10.00">Mqtt::onConnack</text>
</a>
</g>
</g>
<!-- Node1&#45;&gt;Node3 -->
<g id="edge2_Node000001_Node000003" class="edge">
<title>Node1&#45;&gt;Node3</title>
<g id="a_edge2_Node000001_Node000003"><a xlink:title=" ">
<path fill="none" stroke="#63b8ff" d="M148.62,-96.84C136.48,-98.84 123.85,-100.92 112.11,-102.84"/>
<polygon fill="#63b8ff" stroke="#63b8ff" points="149.36,-100.27 158.66,-95.19 148.23,-93.36 149.36,-100.27"/>
</a>
</g>
</g>
<!-- Node4 -->
<g id="Node000004" class="node">
<title>Node4</title>
<g id="a_Node000004"><a xlink:href="classmqtt_1_1bridge_1_1lib_1_1Mqtt.html#a0628e4ad221204e943cdb08061c99e94" target="_top" xlink:title=" ">
<polygon fill="white" stroke="#666666" points="123,-78 0,-78 0,-48 123,-48 123,-78"/>
<text text-anchor="start" x="8" y="-66" font-family="Helvetica,sans-Serif" font-size="10.00">mqtt::bridge::lib::</text>
<text text-anchor="middle" x="61.5" y="-55" font-family="Helvetica,sans-Serif" font-size="10.00">Mqtt::onDisconnected</text>
</a>
</g>
</g>
<!-- Node1&#45;&gt;Node4 -->
<g id="edge3_Node000001_Node000004" class="edge">
<title>Node1&#45;&gt;Node4</title>
<g id="a_edge3_Node000001_Node000004"><a xlink:title=" ">
<path fill="none" stroke="#63b8ff" d="M148.6,-77.15C140.22,-75.78 131.61,-74.36 123.22,-72.98"/>
<polygon fill="#63b8ff" stroke="#63b8ff" points="148.23,-80.64 158.66,-78.81 149.36,-73.73 148.23,-80.64"/>
</a>
</g>
</g>
<!-- Node5 -->
<g id="Node000005" class="node">
<title>Node5</title>
<g id="a_Node000005"><a xlink:href="classmqtt_1_1bridge_1_1lib_1_1Mqtt.html#a5a8a8831e864ac190626b0e81a28fbce" target="_top" xlink:title=" ">
<polygon fill="white" stroke="#666666" points="112,-30 11,-30 11,0 112,0 112,-30"/>
<text text-anchor="start" x="19" y="-18" font-family="Helvetica,sans-Serif" font-size="10.00">mqtt::bridge::lib::</text>
<text text-anchor="middle" x="61.5" y="-7" font-family="Helvetica,sans-Serif" font-size="10.00">Mqtt::onPublish</text>
</a>
</g>
</g>
<!-- Node1&#45;&gt;Node5 -->
<g id="edge4_Node000001_Node000005" class="edge">
<title>Node1&#45;&gt;Node5</title>
<g id="a_edge4_Node000001_Node000005"><a xlink:title=" ">
<path fill="none" stroke="#63b8ff" d="M174.81,-66.71C159.29,-57.72 140.47,-47.32 123,-39 116.47,-35.89 109.43,-32.83 102.53,-30"/>
<polygon fill="#63b8ff" stroke="#63b8ff" points="173.13,-69.78 183.53,-71.81 176.67,-63.74 173.13,-69.78"/>
</a>
</g>
</g>
</g>
</svg>
