<?xml version="1.0" encoding="UTF-8" standalone="no"?>
<!DOCTYPE svg PUBLIC "-//W3C//DTD SVG 1.1//EN"
 "http://www.w3.org/Graphics/SVG/1.1/DTD/svg11.dtd">
<!-- Generated by graphviz version 2.42.4 (0)
 -->
<!-- Title: mqtt::mqttcli::lib::Mqtt::onPublish Pages: 1 -->
<svg width="489pt" height="64pt"
 viewBox="0.00 0.00 489.00 64.00" xmlns="http://www.w3.org/2000/svg" xmlns:xlink="http://www.w3.org/1999/xlink">

<svg id="main" version="1.1" xmlns="http://www.w3.org/2000/svg" xmlns:xlink="http://www.w3.org/1999/xlink" xml:space="preserve">

<style type="text/css"><![CDATA[
.node, .edge {opacity: 0.7;}
.node.selected, .edge.selected {opacity: 1;}
.edge:hover path { stroke: red; }
.edge:hover polygon { stroke: red; fill: red; }
]]></style>
<script type="application/ecmascript" xlink:href="svg.min.js"/>
<svg id="graph" class="graph">
<g id="graph0" class="graph" transform="scale(1 1) rotate(0) translate(4 60)">
<title>mqtt::mqttcli::lib::Mqtt::onPublish</title>
<!-- Node1 -->
<g id="Node000001" class="node">
<title>Node1</title>
<g id="a_Node000001"><a xlink:title=" ">
<polygon fill="#999999" stroke="#666666" points="98,-42.5 0,-42.5 0,-12.5 98,-12.5 98,-42.5"/>
<text text-anchor="start" x="8" y="-30.5" font-family="Helvetica,sans-Serif" font-size="10.00">mqtt::mqttcli::lib</text>
<text text-anchor="middle" x="49" y="-19.5" font-family="Helvetica,sans-Serif" font-size="10.00">::Mqtt::onPublish</text>
</a>
</g>
</g>
<!-- Node2 -->
<g id="Node000002" class="node">
<title>Node2</title>
<g id="a_Node000002"><a xlink:href="mqttcli_2lib_2Mqtt_8cpp.html#a8d58cc20b4ddf52a51f359c4cd9abbb2" target="_top" xlink:title=" ">
<polygon fill="white" stroke="#666666" points="241,-37 134,-37 134,-18 241,-18 241,-37"/>
<text text-anchor="middle" x="187.5" y="-25" font-family="Helvetica,sans-Serif" font-size="10.00">formatAsLogString</text>
</a>
</g>
</g>
<!-- Node1&#45;&gt;Node2 -->
<g id="edge1_Node000001_Node000002" class="edge">
<title>Node1&#45;&gt;Node2</title>
<g id="a_edge1_Node000001_Node000002"><a xlink:title=" ">
<path fill="none" stroke="#63b8ff" d="M98.12,-27.5C106.4,-27.5 115.11,-27.5 123.7,-27.5"/>
<polygon fill="#63b8ff" stroke="#63b8ff" points="123.7,-31 133.7,-27.5 123.7,-24 123.7,-31"/>
</a>
</g>
</g>
<!-- Node3 -->
<g id="Node000003" class="node">
<title>Node3</title>
<g id="a_Node000003"><a xlink:href="mqttcli_2lib_2Mqtt_8cpp.html#a37ddab91e49593b85ab2a449ebe31926" target="_top" xlink:title=" ">
<polygon fill="white" stroke="#666666" points="342,-37 277,-37 277,-18 342,-18 342,-37"/>
<text text-anchor="middle" x="309.5" y="-25" font-family="Helvetica,sans-Serif" font-size="10.00">myformat</text>
</a>
</g>
</g>
<!-- Node2&#45;&gt;Node3 -->
<g id="edge2_Node000002_Node000003" class="edge">
<title>Node2&#45;&gt;Node3</title>
<g id="a_edge2_Node000002_Node000003"><a xlink:title=" ">
<path fill="none" stroke="#63b8ff" d="M241.13,-27.5C249.72,-27.5 258.52,-27.5 266.8,-27.5"/>
<polygon fill="#63b8ff" stroke="#63b8ff" points="266.96,-31 276.96,-27.5 266.96,-24 266.96,-31"/>
</a>
</g>
</g>
<!-- Node4 -->
<g id="Node000004" class="node">
<title>Node4</title>
<g id="a_Node000004"><a xlink:href="mqttcli_2lib_2Mqtt_8cpp.html#aeef618bbcfabda2b3bc7b08f8de636b7" target="_top" xlink:title=" ">
<polygon fill="white" stroke="#666666" points="481,-56 378,-56 378,-37 481,-37 481,-56"/>
<text text-anchor="middle" x="429.5" y="-44" font-family="Helvetica,sans-Serif" font-size="10.00">getTerminalWidth</text>
</a>
</g>
</g>
<!-- Node3&#45;&gt;Node4 -->
<g id="edge3_Node000003_Node000004" class="edge">
<title>Node3&#45;&gt;Node4</title>
<g id="a_edge3_Node000003_Node000004"><a xlink:title=" ">
<path fill="none" stroke="#63b8ff" d="M342.12,-32.59C350.06,-33.87 358.84,-35.28 367.68,-36.71"/>
<polygon fill="#63b8ff" stroke="#63b8ff" points="367.21,-40.18 377.64,-38.31 368.33,-33.27 367.21,-40.18"/>
</a>
</g>
</g>
<!-- Node5 -->
<g id="Node000005" class="node">
<title>Node5</title>
<g id="a_Node000005"><a xlink:href="mqttcli_2lib_2Mqtt_8cpp.html#af65432cee33a80f84b065ea6e060d702" target="_top" xlink:title=" ">
<polygon fill="white" stroke="#666666" points="474.5,-19 384.5,-19 384.5,0 474.5,0 474.5,-19"/>
<text text-anchor="middle" x="429.5" y="-7" font-family="Helvetica,sans-Serif" font-size="10.00">wrapParagraph</text>
</a>
</g>
</g>
<!-- Node3&#45;&gt;Node5 -->
<g id="edge4_Node000003_Node000005" class="edge">
<title>Node3&#45;&gt;Node5</title>
<g id="a_edge4_Node000003_Node000005"><a xlink:title=" ">
<path fill="none" stroke="#63b8ff" d="M342.12,-22.68C352.05,-21.16 363.31,-19.44 374.35,-17.76"/>
<polygon fill="#63b8ff" stroke="#63b8ff" points="375.01,-21.2 384.37,-16.23 373.96,-14.28 375.01,-21.2"/>
</a>
</g>
</g>
</g>
</svg>
</svg>

<style type='text/css'>
<![CDATA[
[data-mouse-over-selected='false'] { opacity: 0.7; }
[data-mouse-over-selected='true']  { opacity: 1.0; }
]]>
</style>
<script type="application/ecmascript"><![CDATA[
document.addEventListener('DOMContentLoaded', (event) => {
  highlightEdges();
  highlightAdjacentNodes();
});
]]></script>
</svg>
