<?xml version="1.0" encoding="UTF-8" standalone="no"?>
<!DOCTYPE svg PUBLIC "-//W3C//DTD SVG 1.1//EN"
 "http://www.w3.org/Graphics/SVG/1.1/DTD/svg11.dtd">
<!-- Generated by graphviz version 2.42.4 (0)
 -->
<!-- Title: nlohmann::json_schema::root_schema::set_root_schema Pages: 1 -->
<!--zoomable 379 -->

<svg id="main" version="1.1" xmlns="http://www.w3.org/2000/svg" xmlns:xlink="http://www.w3.org/1999/xlink" xml:space="preserve" onload="init(evt)">
<style type="text/css"><![CDATA[
.node, .edge {opacity: 0.7;}
.node.selected, .edge.selected {opacity: 1;}
.edge:hover path { stroke: red; }
.edge:hover polygon { stroke: red; fill: red; }
]]></style>

<defs>
  <circle id="rim" cx="0" cy="0" r="7"/>
  <circle id="rim2" cx="0" cy="0" r="3.5"/>
  <g id="zoomPlus">
    <use xlink:href="#rim" fill="#404040"><set attributeName="fill" to="#808080" begin="zoomplus.mouseover" end="zoomplus.mouseout"/></use>
    <path d="M-4,0h8M0,-4v8" fill="none" stroke="white" stroke-width="1.5" pointer-events="none"/>
  </g>
  <g id="zoomMin">
    <use xlink:href="#rim" fill="#404040"><set attributeName="fill" to="#808080" begin="zoomminus.mouseover" end="zoomminus.mouseout"/></use>
    <path d="M-4,0h8" fill="none" stroke="white" stroke-width="1.5" pointer-events="none"/>
  </g>
  <g id="arrowUp" transform="translate(30 24)">
    <use xlink:href="#rim"/>
    <path pointer-events="none" fill="none" stroke="white" stroke-width="1.5" d="M0,-3.0v7 M-2.5,-0.5L0,-3.0L2.5,-0.5"/>
  </g>
  <g id="arrowRight" transform="rotate(90) translate(36 -43)">
    <use xlink:href="#rim"/>
    <path pointer-events="none" fill="none" stroke="white" stroke-width="1.5" d="M0,-3.0v7 M-2.5,-0.5L0,-3.0L2.5,-0.5"/>
  </g>
  <g id="arrowDown" transform="rotate(180) translate(-30 -48)">
    <use xlink:href="#rim"/>
    <path pointer-events="none" fill="none" stroke="white" stroke-width="1.5" d="M0,-3.0v7 M-2.5,-0.5L0,-3.0L2.5,-0.5"/>
  </g>
  <g id="arrowLeft" transform="rotate(270) translate(-36 17)">
    <use xlink:href="#rim"/>
    <path pointer-events="none" fill="none" stroke="white" stroke-width="1.5" d="M0,-3.0v7 M-2.5,-0.5L0,-3.0L2.5,-0.5"/>
  </g>
  <g id="resetDef">
    <use xlink:href="#rim2" fill="#404040"><set attributeName="fill" to="#808080" begin="reset.mouseover" end="reset.mouseout"/></use>
  </g>
</defs>
<script type="application/ecmascript">
var viewWidth = 1027;
var viewHeight = 379;
var sectionId = 'dynsection-12';
</script>
<script type="application/ecmascript" xlink:href="svg.min.js"/>
<svg id="graph" class="graph">
<g id="viewport">
<title>nlohmann::json_schema::root_schema::set_root_schema</title>
<!-- Node1 -->
<g id="Node000001" class="node">
<title>Node1</title>
<g id="a_Node000001"><a xlink:title=" ">
<polygon fill="#999999" stroke="#666666" points="1019,-101 884,-101 884,-60 1019,-60 1019,-101"/>
<text text-anchor="start" x="892" y="-89" font-family="Helvetica,sans-Serif" font-size="10.00">nlohmann::json_schema</text>
<text text-anchor="start" x="892" y="-78" font-family="Helvetica,sans-Serif" font-size="10.00">::root_schema::set_root</text>
<text text-anchor="middle" x="951.5" y="-67" font-family="Helvetica,sans-Serif" font-size="10.00">_schema</text>
</a>
</g>
</g>
<!-- Node2 -->
<g id="Node000002" class="node">
<title>Node2</title>
<g id="a_Node000002"><a xlink:href="classnlohmann_1_1json__schema_1_1json__validator.html#a13e1d3029c8953bb9c7d1879382edb03" target="_top" xlink:title=" ">
<polygon fill="white" stroke="#666666" points="848,-144 713,-144 713,-103 848,-103 848,-144"/>
<text text-anchor="start" x="721" y="-132" font-family="Helvetica,sans-Serif" font-size="10.00">nlohmann::json_schema</text>
<text text-anchor="start" x="721" y="-121" font-family="Helvetica,sans-Serif" font-size="10.00">::json_validator::set</text>
<text text-anchor="middle" x="780.5" y="-110" font-family="Helvetica,sans-Serif" font-size="10.00">_root_schema</text>
</a>
</g>
</g>
<!-- Node1&#45;&gt;Node2 -->
<g id="edge1_Node000001_Node000002" class="edge">
<title>Node1&#45;&gt;Node2</title>
<g id="a_edge1_Node000001_Node000002"><a xlink:title=" ">
<path fill="none" stroke="#63b8ff" d="M874.01,-99.96C865.36,-102.16 856.59,-104.39 848.08,-106.56"/>
<polygon fill="#63b8ff" stroke="#63b8ff" points="874.88,-103.35 883.71,-97.49 873.15,-96.57 874.88,-103.35"/>
</a>
</g>
</g>
<!-- Node22 -->
<g id="Node000022" class="node">
<title>Node22</title>
<g id="a_Node000022"><a xlink:href="classnlohmann_1_1json__schema_1_1json__validator.html#a48f742fda328ff2dc2de223e9452c4d1" target="_top" xlink:title=" ">
<polygon fill="white" stroke="#666666" points="848,-72 713,-72 713,-31 848,-31 848,-72"/>
<text text-anchor="start" x="721" y="-60" font-family="Helvetica,sans-Serif" font-size="10.00">nlohmann::json_schema</text>
<text text-anchor="start" x="721" y="-49" font-family="Helvetica,sans-Serif" font-size="10.00">::json_validator::set</text>
<text text-anchor="middle" x="780.5" y="-38" font-family="Helvetica,sans-Serif" font-size="10.00">_root_schema</text>
</a>
</g>
</g>
<!-- Node1&#45;&gt;Node22 -->
<g id="edge22_Node000001_Node000022" class="edge">
<title>Node1&#45;&gt;Node22</title>
<g id="a_edge22_Node000001_Node000022"><a xlink:title=" ">
<path fill="none" stroke="#63b8ff" d="M873.73,-67.33C865.17,-65.86 856.5,-64.37 848.08,-62.93"/>
<polygon fill="#63b8ff" stroke="#63b8ff" points="873.26,-70.8 883.71,-69.04 874.44,-63.9 873.26,-70.8"/>
</a>
</g>
</g>
<!-- Node3 -->
<g id="Node000003" class="node">
<title>Node3</title>
<g id="a_Node000003"><a xlink:href="classnlohmann_1_1json__schema_1_1json__validator.html#ad8f46dfed69afe463732ae335879dabb" target="_top" xlink:title=" ">
<polygon fill="white" stroke="#666666" points="656,-211 521,-211 521,-170 656,-170 656,-211"/>
<text text-anchor="start" x="529" y="-199" font-family="Helvetica,sans-Serif" font-size="10.00">nlohmann::json_schema</text>
<text text-anchor="start" x="529" y="-188" font-family="Helvetica,sans-Serif" font-size="10.00">::json_validator::json</text>
<text text-anchor="middle" x="588.5" y="-177" font-family="Helvetica,sans-Serif" font-size="10.00">_validator</text>
</a>
</g>
</g>
<!-- Node2&#45;&gt;Node3 -->
<g id="edge2_Node000002_Node000003" class="edge">
<title>Node2&#45;&gt;Node3</title>
<g id="a_edge2_Node000002_Node000003"><a xlink:title=" ">
<path fill="none" stroke="#63b8ff" d="M713.54,-147.49C701.4,-151.85 688.83,-156.34 677,-160.5 668.21,-163.59 658.92,-166.82 649.79,-169.97"/>
<polygon fill="#63b8ff" stroke="#63b8ff" points="714.94,-150.7 723.17,-144.02 712.57,-144.12 714.94,-150.7"/>
</a>
</g>
</g>
<!-- Node15 -->
<g id="Node000015" class="node">
<title>Node15</title>
<g id="a_Node000015"><a xlink:href="format_8cpp.html#ae66f6b31b5ad750f1fe042a706a4e3d4" target="_top" xlink:title=" ">
<polygon fill="white" stroke="#666666" points="609,-152 568,-152 568,-133 609,-133 609,-152"/>
<text text-anchor="middle" x="588.5" y="-140" font-family="Helvetica,sans-Serif" font-size="10.00">main</text>
</a>
</g>
</g>
<!-- Node2&#45;&gt;Node15 -->
<g id="edge14_Node000002_Node000015" class="edge">
<title>Node2&#45;&gt;Node15</title>
<g id="a_edge14_Node000002_Node000015"><a xlink:title=" ">
<path fill="none" stroke="#63b8ff" d="M702.79,-131.17C668.68,-134.58 631.3,-138.32 609.15,-140.53"/>
<polygon fill="#63b8ff" stroke="#63b8ff" points="703.18,-134.65 712.78,-130.17 702.48,-127.68 703.18,-134.65"/>
</a>
</g>
</g>
<!-- Node16 -->
<g id="Node000016" class="node">
<title>Node16</title>
<g id="a_Node000016"><a xlink:href="json-schema-validate_8cpp.html#a0ddf1224851353fc92bfbff6f499fa97" target="_top" xlink:title=" ">
<polygon fill="white" stroke="#666666" points="609,-115 568,-115 568,-96 609,-96 609,-115"/>
<text text-anchor="middle" x="588.5" y="-103" font-family="Helvetica,sans-Serif" font-size="10.00">main</text>
</a>
</g>
</g>
<!-- Node2&#45;&gt;Node16 -->
<g id="edge15_Node000002_Node000016" class="edge">
<title>Node2&#45;&gt;Node16</title>
<g id="a_edge15_Node000002_Node000016"><a xlink:title=" ">
<path fill="none" stroke="#63b8ff" d="M702.79,-116.23C668.68,-113 631.3,-109.46 609.15,-107.36"/>
<polygon fill="#63b8ff" stroke="#63b8ff" points="702.49,-119.72 712.78,-117.18 703.15,-112.75 702.49,-119.72"/>
</a>
</g>
</g>
<!-- Node17 -->
<g id="Node000017" class="node">
<title>Node17</title>
<g id="a_Node000017"><a xlink:href="errors_8cpp.html#a840291bc02cba5474a4cb46a9b9566fe" target="_top" xlink:title=" ">
<polygon fill="white" stroke="#666666" points="609,-78 568,-78 568,-59 609,-59 609,-78"/>
<text text-anchor="middle" x="588.5" y="-66" font-family="Helvetica,sans-Serif" font-size="10.00">main</text>
</a>
</g>
</g>
<!-- Node2&#45;&gt;Node17 -->
<g id="edge16_Node000002_Node000017" class="edge">
<title>Node2&#45;&gt;Node17</title>
<g id="a_edge16_Node000002_Node000017"><a xlink:title=" ">
<path fill="none" stroke="#63b8ff" d="M717.53,-99.52C704.27,-94.84 690.26,-90.24 677,-86.5 654.01,-80.02 627.02,-74.82 609.15,-71.71"/>
<polygon fill="#63b8ff" stroke="#63b8ff" points="716.44,-102.84 727.04,-102.92 718.8,-96.26 716.44,-102.84"/>
</a>
</g>
</g>
<!-- Node18 -->
<g id="Node000018" class="node">
<title>Node18</title>
<g id="a_Node000018"><a xlink:href="namespaceanonymous__namespace_02issue-105-verbose-combination-errors_8cpp_03.html#a5d2fa2fa048e5520dbcbad50438526ad" target="_top" xlink:title=" ">
<polygon fill="white" stroke="#666666" points="677,-312 500,-312 500,-271 677,-271 677,-312"/>
<text text-anchor="start" x="508" y="-300" font-family="Helvetica,sans-Serif" font-size="10.00">anonymous_namespace</text>
<text text-anchor="start" x="508" y="-289" font-family="Helvetica,sans-Serif" font-size="10.00">{issue&#45;105&#45;verbose&#45;combination</text>
<text text-anchor="middle" x="588.5" y="-278" font-family="Helvetica,sans-Serif" font-size="10.00">&#45;errors::cpp}::validate</text>
</a>
</g>
</g>
<!-- Node2&#45;&gt;Node18 -->
<g id="edge17_Node000002_Node000018" class="edge">
<title>Node2&#45;&gt;Node18</title>
<g id="a_edge17_Node000002_Node000018"><a xlink:title=" ">
<path fill="none" stroke="#63b8ff" d="M750.89,-151.23C730.58,-170.68 702.5,-197.1 677,-219.5 656.75,-237.28 633.11,-256.65 615.52,-270.82"/>
<polygon fill="#63b8ff" stroke="#63b8ff" points="753.49,-153.59 758.27,-144.13 748.64,-148.54 753.49,-153.59"/>
</a>
</g>
</g>
<!-- Node4 -->
<g id="Node000004" class="node">
<title>Node4</title>
<g id="a_Node000004"><a xlink:href="classmqtt_1_1bridge_1_1lib_1_1BridgeStore.html#ab8ade196caaa4d233f8dc1625619ed9a" target="_top" xlink:title=" ">
<polygon fill="white" stroke="#666666" points="455.5,-204.5 295.5,-204.5 295.5,-174.5 455.5,-174.5 455.5,-204.5"/>
<text text-anchor="start" x="303.5" y="-192.5" font-family="Helvetica,sans-Serif" font-size="10.00">mqtt::bridge::lib::</text>
<text text-anchor="middle" x="375.5" y="-181.5" font-family="Helvetica,sans-Serif" font-size="10.00">BridgeStore::loadAndValidate</text>
</a>
</g>
</g>
<!-- Node3&#45;&gt;Node4 -->
<g id="edge3_Node000003_Node000004" class="edge">
<title>Node3&#45;&gt;Node4</title>
<g id="a_edge3_Node000003_Node000004"><a xlink:title=" ">
<path fill="none" stroke="#63b8ff" d="M510.41,-190.13C492.61,-190.05 473.64,-189.96 455.74,-189.88"/>
<polygon fill="#63b8ff" stroke="#63b8ff" points="510.72,-193.64 520.74,-190.18 510.76,-186.64 510.72,-193.64"/>
</a>
</g>
</g>
<!-- Node5 -->
<g id="Node000005" class="node">
<title>Node5</title>
<g id="a_Node000005"><a xlink:href="classmqtt_1_1lib_1_1JsonMappingReader.html#a77231994bd3ef854feb2db79dd71746b" target="_top" xlink:title=" ">
<polygon fill="white" stroke="#666666" points="456,-147.5 295,-147.5 295,-117.5 456,-117.5 456,-147.5"/>
<text text-anchor="start" x="303" y="-135.5" font-family="Helvetica,sans-Serif" font-size="10.00">mqtt::lib::JsonMappingReader</text>
<text text-anchor="middle" x="375.5" y="-124.5" font-family="Helvetica,sans-Serif" font-size="10.00">::readMappingFromFile</text>
</a>
</g>
</g>
<!-- Node3&#45;&gt;Node5 -->
<g id="edge4_Node000003_Node000005" class="edge">
<title>Node3&#45;&gt;Node5</title>
<g id="a_edge4_Node000003_Node000005"><a xlink:title=" ">
<path fill="none" stroke="#63b8ff" d="M510.77,-169.41C484.4,-162.16 455.44,-154.2 431.18,-147.53"/>
<polygon fill="#63b8ff" stroke="#63b8ff" points="510.17,-172.87 520.74,-172.15 512.02,-166.12 510.17,-172.87"/>
</a>
</g>
</g>
<!-- Node9 -->
<g id="Node000009" class="node">
<title>Node9</title>
<g id="a_Node000009"><a xlink:href="issue-293_8cpp.html#a8ee39622edc153e58dfa5711984ac185" target="_top" xlink:title=" ">
<polygon fill="white" stroke="#666666" points="416.5,-90 334.5,-90 334.5,-71 416.5,-71 416.5,-90"/>
<text text-anchor="middle" x="375.5" y="-78" font-family="Helvetica,sans-Serif" font-size="10.00">should_throw</text>
</a>
</g>
</g>
<!-- Node3&#45;&gt;Node9 -->
<g id="edge8_Node000003_Node000009" class="edge">
<title>Node3&#45;&gt;Node9</title>
<g id="a_edge8_Node000003_Node000009"><a xlink:title=" ">
<path fill="none" stroke="#63b8ff" d="M511.58,-168.03C507.52,-165.75 503.63,-163.25 500,-160.5 477.58,-143.54 486.59,-125.23 464,-108.5 450.16,-98.25 432.42,-91.66 416.54,-87.47"/>
<polygon fill="#63b8ff" stroke="#63b8ff" points="510.2,-171.26 520.7,-172.69 513.39,-165.02 510.2,-171.26"/>
</a>
</g>
</g>
<!-- Node11 -->
<g id="Node000011" class="node">
<title>Node11</title>
<g id="a_Node000011"><a xlink:href="classnlohmann_1_1json__patch.html#ac7aea9496e07beb821fb9e5423fb76f5" target="_top" xlink:title=" ">
<polygon fill="white" stroke="#666666" points="437.5,-252.5 313.5,-252.5 313.5,-222.5 437.5,-222.5 437.5,-252.5"/>
<text text-anchor="start" x="321.5" y="-240.5" font-family="Helvetica,sans-Serif" font-size="10.00">nlohmann::json_patch</text>
<text text-anchor="middle" x="375.5" y="-229.5" font-family="Helvetica,sans-Serif" font-size="10.00">::validateJsonPatch</text>
</a>
</g>
</g>
<!-- Node3&#45;&gt;Node11 -->
<g id="edge10_Node000003_Node000011" class="edge">
<title>Node3&#45;&gt;Node11</title>
<g id="a_edge10_Node000003_Node000011"><a xlink:title=" ">
<path fill="none" stroke="#63b8ff" d="M510.94,-207.55C486.89,-212.91 460.66,-218.75 437.81,-223.84"/>
<polygon fill="#63b8ff" stroke="#63b8ff" points="511.74,-210.96 520.74,-205.37 510.22,-204.13 511.74,-210.96"/>
</a>
</g>
</g>
<!-- Node6 -->
<g id="Node000006" class="node">
<title>Node6</title>
<g id="a_Node000006"><a xlink:href="classmqtt_1_1mqttintegrator_1_1SocketContextFactory.html#a0667981d3feaa8d66a6ba2ecb81dc900" target="_top" xlink:title=" ">
<polygon fill="white" stroke="#666666" points="228.5,-145 99.5,-145 99.5,-104 228.5,-104 228.5,-145"/>
<text text-anchor="start" x="107.5" y="-133" font-family="Helvetica,sans-Serif" font-size="10.00">mqtt::mqttintegrator</text>
<text text-anchor="start" x="107.5" y="-122" font-family="Helvetica,sans-Serif" font-size="10.00">::SocketContextFactory</text>
<text text-anchor="middle" x="164" y="-111" font-family="Helvetica,sans-Serif" font-size="10.00">::create</text>
</a>
</g>
</g>
<!-- Node5&#45;&gt;Node6 -->
<g id="edge5_Node000005_Node000006" class="edge">
<title>Node5&#45;&gt;Node6</title>
<g id="a_edge5_Node000005_Node000006"><a xlink:title=" ">
<path fill="none" stroke="#63b8ff" d="M284.91,-129.08C266.04,-128.36 246.5,-127.61 228.81,-126.94"/>
<polygon fill="#63b8ff" stroke="#63b8ff" points="284.87,-132.58 295,-129.46 285.14,-125.59 284.87,-132.58"/>
</a>
</g>
</g>
<!-- Node7 -->
<g id="Node000007" class="node">
<title>Node7</title>
<g id="a_Node000007"><a xlink:href="classmqtt_1_1mqttbroker_1_1SocketContextFactory.html#a84a300c6ea4e8fc1e0370f5460a64e9a" target="_top" xlink:title=" ">
<polygon fill="white" stroke="#666666" points="233,-85.5 95,-85.5 95,-55.5 233,-55.5 233,-85.5"/>
<text text-anchor="start" x="103" y="-73.5" font-family="Helvetica,sans-Serif" font-size="10.00">mqtt::mqttbroker::Socket</text>
<text text-anchor="middle" x="164" y="-62.5" font-family="Helvetica,sans-Serif" font-size="10.00">ContextFactory::create</text>
</a>
</g>
</g>
<!-- Node5&#45;&gt;Node7 -->
<g id="edge6_Node000005_Node000007" class="edge">
<title>Node5&#45;&gt;Node7</title>
<g id="a_edge6_Node000005_Node000007"><a xlink:title=" ">
<path fill="none" stroke="#63b8ff" d="M317.15,-114.51C296.35,-108.08 272.65,-100.85 251,-94.5 240.89,-91.53 230.08,-88.45 219.66,-85.52"/>
<polygon fill="#63b8ff" stroke="#63b8ff" points="316.2,-117.88 326.79,-117.5 318.28,-111.19 316.2,-117.88"/>
</a>
</g>
</g>
<!-- Node8 -->
<g id="Node000008" class="node">
<title>Node8</title>
<g id="a_Node000008"><a xlink:href="classmqtt_1_1mqttintegrator_1_1websocket_1_1SubProtocolFactory.html#ae88373a69cdee4d08cf58c4c618041d6" target="_top" xlink:title=" ">
<polygon fill="white" stroke="#666666" points="251,-204 77,-204 77,-163 251,-163 251,-204"/>
<text text-anchor="start" x="85" y="-192" font-family="Helvetica,sans-Serif" font-size="10.00">mqtt::mqttintegrator</text>
<text text-anchor="start" x="85" y="-181" font-family="Helvetica,sans-Serif" font-size="10.00">::websocket::SubProtocolFactory</text>
<text text-anchor="middle" x="164" y="-170" font-family="Helvetica,sans-Serif" font-size="10.00">::create</text>
</a>
</g>
</g>
<!-- Node5&#45;&gt;Node8 -->
<g id="edge7_Node000005_Node000008" class="edge">
<title>Node5&#45;&gt;Node8</title>
<g id="a_edge7_Node000005_Node000008"><a xlink:title=" ">
<path fill="none" stroke="#63b8ff" d="M302.85,-149.94C285.7,-154.12 267.24,-158.61 249.57,-162.91"/>
<polygon fill="#63b8ff" stroke="#63b8ff" points="303.89,-153.29 312.78,-147.53 302.23,-146.49 303.89,-153.29"/>
</a>
</g>
</g>
<!-- Node10 -->
<g id="Node000010" class="node">
<title>Node10</title>
<g id="a_Node000010"><a xlink:href="issue-293_8cpp.html#a840291bc02cba5474a4cb46a9b9566fe" target="_top" xlink:title=" ">
<polygon fill="white" stroke="#666666" points="184.5,-36 143.5,-36 143.5,-17 184.5,-17 184.5,-36"/>
<text text-anchor="middle" x="164" y="-24" font-family="Helvetica,sans-Serif" font-size="10.00">main</text>
</a>
</g>
</g>
<!-- Node9&#45;&gt;Node10 -->
<g id="edge9_Node000009_Node000010" class="edge">
<title>Node9&#45;&gt;Node10</title>
<g id="a_edge9_Node000009_Node000010"><a xlink:title=" ">
<path fill="none" stroke="#63b8ff" d="M331.57,-68.22C307.87,-61.56 277.88,-53.32 251,-46.5 228.27,-40.73 201.99,-34.71 184.52,-30.81"/>
<polygon fill="#63b8ff" stroke="#63b8ff" points="330.74,-71.63 341.31,-70.97 332.64,-64.89 330.74,-71.63"/>
</a>
</g>
</g>
<!-- Node12 -->
<g id="Node000012" class="node">
<title>Node12</title>
<g id="a_Node000012"><a xlink:href="classnlohmann_1_1json__patch.html#ae61d410c3afe7cf9b7a9589819e8f94a" target="_top" xlink:title=" ">
<polygon fill="white" stroke="#666666" points="226,-300.5 102,-300.5 102,-270.5 226,-270.5 226,-300.5"/>
<text text-anchor="start" x="110" y="-288.5" font-family="Helvetica,sans-Serif" font-size="10.00">nlohmann::json_patch</text>
<text text-anchor="middle" x="164" y="-277.5" font-family="Helvetica,sans-Serif" font-size="10.00">::json_patch</text>
</a>
</g>
</g>
<!-- Node11&#45;&gt;Node12 -->
<g id="edge11_Node000011_Node000012" class="edge">
<title>Node11&#45;&gt;Node12</title>
<g id="a_edge11_Node000011_Node000012"><a xlink:title=" ">
<path fill="none" stroke="#63b8ff" d="M303.52,-253.76C278.43,-259.51 250.45,-265.92 226.24,-271.47"/>
<polygon fill="#63b8ff" stroke="#63b8ff" points="304.37,-257.16 313.34,-251.51 302.81,-250.33 304.37,-257.16"/>
</a>
</g>
</g>
<!-- Node13 -->
<g id="Node000013" class="node">
<title>Node13</title>
<g id="a_Node000013"><a xlink:href="classnlohmann_1_1json__patch.html#a9ed4f8e610b70b973f9fd59696d5c10b" target="_top" xlink:title=" ">
<polygon fill="white" stroke="#666666" points="226,-252.5 102,-252.5 102,-222.5 226,-222.5 226,-252.5"/>
<text text-anchor="start" x="110" y="-240.5" font-family="Helvetica,sans-Serif" font-size="10.00">nlohmann::json_patch</text>
<text text-anchor="middle" x="164" y="-229.5" font-family="Helvetica,sans-Serif" font-size="10.00">::json_patch</text>
</a>
</g>
</g>
<!-- Node11&#45;&gt;Node13 -->
<g id="edge12_Node000011_Node000013" class="edge">
<title>Node11&#45;&gt;Node13</title>
<g id="a_edge12_Node000011_Node000013"><a xlink:title=" ">
<path fill="none" stroke="#63b8ff" d="M303.18,-237.5C278.18,-237.5 250.34,-237.5 226.24,-237.5"/>
<polygon fill="#63b8ff" stroke="#63b8ff" points="303.34,-241 313.34,-237.5 303.34,-234 303.34,-241"/>
</a>
</g>
</g>
<!-- Node14 -->
<g id="Node000014" class="node">
<title>Node14</title>
<g id="a_Node000014"><a xlink:href="test_2json-patch_8cpp.html#a840291bc02cba5474a4cb46a9b9566fe" target="_top" xlink:title=" ">
<polygon fill="white" stroke="#666666" points="41,-247 0,-247 0,-228 41,-228 41,-247"/>
<text text-anchor="middle" x="20.5" y="-235" font-family="Helvetica,sans-Serif" font-size="10.00">main</text>
</a>
</g>
</g>
<!-- Node13&#45;&gt;Node14 -->
<g id="edge13_Node000013_Node000014" class="edge">
<title>Node13&#45;&gt;Node14</title>
<g id="a_edge13_Node000013_Node000014"><a xlink:title=" ">
<path fill="none" stroke="#63b8ff" d="M91.74,-237.5C73.1,-237.5 54.51,-237.5 41.14,-237.5"/>
<polygon fill="#63b8ff" stroke="#63b8ff" points="91.76,-241 101.76,-237.5 91.76,-234 91.76,-241"/>
</a>
</g>
</g>
<!-- Node19 -->
<g id="Node000019" class="node">
<title>Node19</title>
<g id="a_Node000019"><a xlink:href="namespaceanonymous__namespace_02issue-105-verbose-combination-errors_8cpp_03.html#a4b7578a08dda4165bf9c386de4bc2bed" target="_top" xlink:title=" ">
<polygon fill="white" stroke="#666666" points="464,-312 287,-312 287,-271 464,-271 464,-312"/>
<text text-anchor="start" x="295" y="-300" font-family="Helvetica,sans-Serif" font-size="10.00">anonymous_namespace</text>
<text text-anchor="start" x="295" y="-289" font-family="Helvetica,sans-Serif" font-size="10.00">{issue&#45;105&#45;verbose&#45;combination</text>
<text text-anchor="middle" x="375.5" y="-278" font-family="Helvetica,sans-Serif" font-size="10.00">&#45;errors::cpp}::simpleTest</text>
</a>
</g>
</g>
<!-- Node18&#45;&gt;Node19 -->
<g id="edge18_Node000018_Node000019" class="edge">
<title>Node18&#45;&gt;Node19</title>
<g id="a_edge18_Node000018_Node000019"><a xlink:title=" ">
<path fill="none" stroke="#63b8ff" d="M489.58,-291.5C481.12,-291.5 472.59,-291.5 464.22,-291.5"/>
<polygon fill="#63b8ff" stroke="#63b8ff" points="489.85,-295 499.85,-291.5 489.85,-288 489.85,-295"/>
</a>
</g>
</g>
<!-- Node21 -->
<g id="Node000021" class="node">
<title>Node21</title>
<g id="a_Node000021"><a xlink:href="namespaceanonymous__namespace_02issue-105-verbose-combination-errors_8cpp_03.html#a6c5072c56623259eab0124fc223a4bfc" target="_top" xlink:title=" ">
<polygon fill="white" stroke="#666666" points="464,-371 287,-371 287,-330 464,-330 464,-371"/>
<text text-anchor="start" x="295" y="-359" font-family="Helvetica,sans-Serif" font-size="10.00">anonymous_namespace</text>
<text text-anchor="start" x="295" y="-348" font-family="Helvetica,sans-Serif" font-size="10.00">{issue&#45;105&#45;verbose&#45;combination</text>
<text text-anchor="middle" x="375.5" y="-337" font-family="Helvetica,sans-Serif" font-size="10.00">&#45;errors::cpp}::verboseTest</text>
</a>
</g>
</g>
<!-- Node18&#45;&gt;Node21 -->
<g id="edge20_Node000018_Node000021" class="edge">
<title>Node18&#45;&gt;Node21</title>
<g id="a_edge20_Node000018_Node000021"><a xlink:title=" ">
<path fill="none" stroke="#63b8ff" d="M504.18,-314.8C486.31,-319.79 467.56,-325.04 450.1,-329.92"/>
<polygon fill="#63b8ff" stroke="#63b8ff" points="505.31,-318.12 514,-312.05 503.43,-311.37 505.31,-318.12"/>
</a>
</g>
</g>
<!-- Node20 -->
<g id="Node000020" class="node">
<title>Node20</title>
<g id="a_Node000020"><a xlink:href="issue-105-verbose-combination-errors_8cpp.html#a8216c1645620cdb2f629cde3ac02ffef" target="_top" xlink:title=" ">
<polygon fill="white" stroke="#666666" points="184.5,-349 143.5,-349 143.5,-330 184.5,-330 184.5,-349"/>
<text text-anchor="middle" x="164" y="-337" font-family="Helvetica,sans-Serif" font-size="10.00">main</text>
</a>
</g>
</g>
<!-- Node19&#45;&gt;Node20 -->
<g id="edge19_Node000019_Node000020" class="edge">
<title>Node19&#45;&gt;Node20</title>
<g id="a_edge19_Node000019_Node000020"><a xlink:title=" ">
<path fill="none" stroke="#63b8ff" d="M277.04,-313.83C242.06,-321.85 205.98,-330.11 184.53,-335.03"/>
<polygon fill="#63b8ff" stroke="#63b8ff" points="277.9,-317.22 286.87,-311.58 276.34,-310.4 277.9,-317.22"/>
</a>
</g>
</g>
<!-- Node21&#45;&gt;Node20 -->
<g id="edge21_Node000021_Node000020" class="edge">
<title>Node21&#45;&gt;Node20</title>
<g id="a_edge21_Node000021_Node000020"><a xlink:title=" ">
<path fill="none" stroke="#63b8ff" d="M276.59,-345.36C241.75,-343.53 205.89,-341.65 184.53,-340.53"/>
<polygon fill="#63b8ff" stroke="#63b8ff" points="276.7,-348.87 286.87,-345.9 277.06,-341.88 276.7,-348.87"/>
</a>
</g>
</g>
<!-- Node23 -->
<g id="Node000023" class="node">
<title>Node23</title>
<g id="a_Node000023"><a xlink:href="classnlohmann_1_1json__schema_1_1json__validator.html#a9b658ef82ef777074679e2a60d539821" target="_top" xlink:title=" ">
<polygon fill="white" stroke="#666666" points="656,-41 521,-41 521,0 656,0 656,-41"/>
<text text-anchor="start" x="529" y="-29" font-family="Helvetica,sans-Serif" font-size="10.00">nlohmann::json_schema</text>
<text text-anchor="start" x="529" y="-18" font-family="Helvetica,sans-Serif" font-size="10.00">::json_validator::json</text>
<text text-anchor="middle" x="588.5" y="-7" font-family="Helvetica,sans-Serif" font-size="10.00">_validator</text>
</a>
</g>
</g>
<!-- Node22&#45;&gt;Node23 -->
<g id="edge23_Node000022_Node000023" class="edge">
<title>Node22&#45;&gt;Node23</title>
<g id="a_edge23_Node000022_Node000023"><a xlink:title=" ">
<path fill="none" stroke="#63b8ff" d="M702.73,-38.97C687.27,-36.45 671.14,-33.82 656.06,-31.36"/>
<polygon fill="#63b8ff" stroke="#63b8ff" points="702.35,-42.46 712.78,-40.61 703.47,-35.55 702.35,-42.46"/>
</a>
</g>
</g>
<!-- Node23&#45;&gt;Node10 -->
<g id="edge24_Node000023_Node000010" class="edge">
<title>Node23&#45;&gt;Node10</title>
<g id="a_edge24_Node000023_Node000010"><a xlink:title=" ">
<path fill="none" stroke="#63b8ff" d="M510.49,-21.59C410.41,-23.01 241.69,-25.41 184.57,-26.22"/>
<polygon fill="#63b8ff" stroke="#63b8ff" points="510.6,-25.09 520.55,-21.45 510.5,-18.09 510.6,-25.09"/>
</a>
</g>
</g>
</g>
</svg>

<g id="navigator" transform="translate(0 0)" fill="#404254">
  <rect fill="#f2f5e9" fill-opacity="0.5" stroke="#606060" stroke-width=".5" x="0" y="0" width="60" height="60"/>
  <use id="zoomplus" xlink:href="#zoomPlus" x="17" y="9" onmousedown="handleZoom(evt,'in')"/>
  <use id="zoomminus" xlink:href="#zoomMin" x="42" y="9" onmousedown="handleZoom(evt,'out')"/>
  <use id="reset" xlink:href="#resetDef" x="30" y="36" onmousedown="handleReset()"/>
   <use id="arrowup" xlink:href="#arrowUp" x="0" y="0" onmousedown="handlePan(0,-1)"/>
  <use id="arrowright" xlink:href="#arrowRight" x="0" y="0" onmousedown="handlePan(1,0)"/>
  <use id="arrowdown" xlink:href="#arrowDown" x="0" y="0" onmousedown="handlePan(0,1)"/>
  <use id="arrowleft" xlink:href="#arrowLeft" x="0" y="0" onmousedown="handlePan(-1,0)"/>
</g>
<svg viewBox="0 0 15 15" width="100%" height="30px" preserveAspectRatio="xMaxYMin meet">
 <g id="arrow_out" transform="scale(0.3 0.3)">
  <a xlink:href="classnlohmann_1_1json__schema_1_1root__schema_aa92bf9509db49548416a244fb4528e3c_icgraph_org.svg" target="_base">
   <rect id="button" ry="5" rx="5" y="6" x="6" height="38" width="38"
        fill="#f2f5e9" fill-opacity="0.5" stroke="#606060" stroke-width="1.0"/>
   <path id="arrow"
     d="M 11.500037,31.436501 C 11.940474,20.09759 22.043105,11.32322 32.158766,21.979434 L 37.068811,17.246167 C 37.068811,17.246167 37.088388,32 37.088388,32 L 22.160133,31.978069 C 22.160133,31.978069 26.997745,27.140456 26.997745,27.140456 C 18.528582,18.264221 13.291696,25.230495 11.500037,31.436501 z"
     style="fill:#404040;"/>
  </a>
 </g>
</svg>

<style type='text/css'>
<![CDATA[
[data-mouse-over-selected='false'] { opacity: 0.7; }
[data-mouse-over-selected='true']  { opacity: 1.0; }
]]>
</style>
<script type="application/ecmascript"><![CDATA[
document.addEventListener('DOMContentLoaded', (event) => {
  highlightEdges();
  highlightAdjacentNodes();
});
]]></script>
</svg>
