<?xml version="1.0" encoding="UTF-8" standalone="no"?>
<!DOCTYPE svg PUBLIC "-//W3C//DTD SVG 1.1//EN"
 "http://www.w3.org/Graphics/SVG/1.1/DTD/svg11.dtd">
<!-- Generated by graphviz version 2.42.4 (0)
 -->
<!-- Title: inja::SetStatementNode Pages: 1 -->
<svg width="134pt" height="137pt"
 viewBox="0.00 0.00 134.00 137.00" xmlns="http://www.w3.org/2000/svg" xmlns:xlink="http://www.w3.org/1999/xlink">

<svg id="main" version="1.1" xmlns="http://www.w3.org/2000/svg" xmlns:xlink="http://www.w3.org/1999/xlink" xml:space="preserve">

<style type="text/css"><![CDATA[
.node, .edge {opacity: 0.7;}
.node.selected, .edge.selected {opacity: 1;}
.edge:hover path { stroke: red; }
.edge:hover polygon { stroke: red; fill: red; }
]]></style>
<script type="application/ecmascript" xlink:href="svg.min.js"/>
<svg id="graph" class="graph">
<g id="graph0" class="graph" transform="scale(1 1) rotate(0) translate(4 133)">
<title>inja::SetStatementNode</title>
<!-- Node1 -->
<g id="Node000001" class="node">
<title>Node1</title>
<g id="a_Node000001"><a xlink:title=" ">
<polygon fill="#999999" stroke="transparent" points="126,-19 0,-19 0,0 126,0 126,-19"/>
<text text-anchor="start" x="4.5" y="-6.5" font-family="Helvetica,sans-Serif" font-size="10.00">inja::SetStatementNode</text>
<polygon fill="none" stroke="#666666" points="0,0 0,-19 126,-19 126,0 0,0"/>
</a>
</g>
</g>
<!-- Node2 -->
<g id="Node000002" class="node">
<title>Node2</title>
<g id="a_Node000002"><a xlink:href="classinja_1_1StatementNode.html" target="_top" xlink:title=" ">
<polygon fill="white" stroke="transparent" points="118,-74 8,-74 8,-55 118,-55 118,-74"/>
<text text-anchor="start" x="12.5" y="-61.5" font-family="Helvetica,sans-Serif" font-size="10.00">inja::StatementNode</text>
<polygon fill="none" stroke="#666666" points="8,-55 8,-74 118,-74 118,-55 8,-55"/>
</a>
</g>
</g>
<!-- Node2&#45;&gt;Node1 -->
<g id="edge1_Node000001_Node000002" class="edge">
<title>Node2&#45;&gt;Node1</title>
<g id="a_edge1_Node000001_Node000002"><a xlink:title=" ">
<path fill="none" stroke="#63b8ff" d="M63,-44.66C63,-35.93 63,-25.99 63,-19.09"/>
<polygon fill="none" stroke="#63b8ff" points="59.5,-44.75 63,-54.75 66.5,-44.75 59.5,-44.75"/>
</a>
</g>
</g>
<!-- Node3 -->
<g id="Node000003" class="node">
<title>Node3</title>
<g id="a_Node000003"><a xlink:href="classinja_1_1AstNode.html" target="_top" xlink:title="Base node class for the abstract syntax tree (AST).">
<polygon fill="white" stroke="transparent" points="100,-129 26,-129 26,-110 100,-110 100,-129"/>
<text text-anchor="start" x="30" y="-116.5" font-family="Helvetica,sans-Serif" font-size="10.00">inja::AstNode</text>
<polygon fill="none" stroke="#666666" points="26,-110 26,-129 100,-129 100,-110 26,-110"/>
</a>
</g>
</g>
<!-- Node3&#45;&gt;Node2 -->
<g id="edge2_Node000002_Node000003" class="edge">
<title>Node3&#45;&gt;Node2</title>
<g id="a_edge2_Node000002_Node000003"><a xlink:title=" ">
<path fill="none" stroke="#63b8ff" d="M63,-99.66C63,-90.93 63,-80.99 63,-74.09"/>
<polygon fill="none" stroke="#63b8ff" points="59.5,-99.75 63,-109.75 66.5,-99.75 59.5,-99.75"/>
</a>
</g>
</g>
</g>
</svg>
</svg>

<style type='text/css'>
<![CDATA[
[data-mouse-over-selected='false'] { opacity: 0.7; }
[data-mouse-over-selected='true']  { opacity: 1.0; }
]]>
</style>
<script type="application/ecmascript"><![CDATA[
document.addEventListener('DOMContentLoaded', (event) => {
  highlightEdges();
  highlightAdjacentNodes();
});
]]></script>
</svg>
