<?xml version="1.0" encoding="UTF-8" standalone="no"?>
<!DOCTYPE svg PUBLIC "-//W3C//DTD SVG 1.1//EN"
 "http://www.w3.org/Graphics/SVG/1.1/DTD/svg11.dtd">
<!-- Generated by graphviz version 14.1.2 (0)
 -->
<!-- Title: mqtt::bridge::lib::BridgeStore::mqttDisconnected Pages: 1 -->
<svg width="1126pt" height="184pt"
 viewBox="0.00 0.00 1126.00 184.00" xmlns="http://www.w3.org/2000/svg" xmlns:xlink="http://www.w3.org/1999/xlink">
<g id="graph0" class="graph" transform="scale(1 1) rotate(0) translate(4 179.88)">
<title>mqtt::bridge::lib::BridgeStore::mqttDisconnected</title>
<!-- Node1 -->
<g id="Node000001" class="node">
<title>Node1</title>
<g id="a_Node000001"><a xlink:title=" ">
<polygon fill="#999999" stroke="#666666" points="168.25,-111.5 0,-111.5 0,-78 168.25,-78 168.25,-111.5"/>
<text xml:space="preserve" text-anchor="start" x="8" y="-98" font-family="Helvetica,sans-Serif" font-size="10.00">mqtt::bridge::lib::</text>
<text xml:space="preserve" text-anchor="middle" x="84.12" y="-85.25" font-family="Helvetica,sans-Serif" font-size="10.00">BridgeStore::mqttDisconnected</text>
</a>
</g>
</g>
<!-- Node2 -->
<g id="Node000002" class="node">
<title>Node2</title>
<g id="a_Node000002"><a xlink:href="classmqtt_1_1bridge_1_1lib_1_1Broker.html#acff6cddc56c9cdc2b0688d6482034131" target="_top" xlink:title=" ">
<polygon fill="white" stroke="#666666" points="311.38,-137.5 210.62,-137.5 210.62,-104 311.38,-104 311.38,-137.5"/>
<text xml:space="preserve" text-anchor="start" x="218.62" y="-124" font-family="Helvetica,sans-Serif" font-size="10.00">mqtt::bridge::lib::</text>
<text xml:space="preserve" text-anchor="middle" x="261" y="-111.25" font-family="Helvetica,sans-Serif" font-size="10.00">Broker::getBridge</text>
</a>
</g>
</g>
<!-- Node1&#45;&gt;Node2 -->
<g id="edge1_Node000001_Node000002" class="edge">
<title>Node1&#45;&gt;Node2</title>
<g id="a_edge1_Node000001_Node000002"><a xlink:title=" ">
<path fill="none" stroke="#63b8ff" d="M168.72,-107.18C178.95,-108.7 189.24,-110.23 199.05,-111.69"/>
<polygon fill="#63b8ff" stroke="#63b8ff" points="198.39,-115.13 208.8,-113.14 199.42,-108.2 198.39,-115.13"/>
</a>
</g>
</g>
<!-- Node3 -->
<g id="Node000003" class="node">
<title>Node3</title>
<g id="a_Node000003"><a xlink:href="classmqtt_1_1bridge_1_1lib_1_1Bridge.html#afa30b1de86ead152082545890c307400" target="_top" xlink:title=" ">
<polygon fill="white" stroke="#666666" points="317.75,-85.5 204.25,-85.5 204.25,-52 317.75,-52 317.75,-85.5"/>
<text xml:space="preserve" text-anchor="start" x="212.25" y="-72" font-family="Helvetica,sans-Serif" font-size="10.00">mqtt::bridge::lib::</text>
<text xml:space="preserve" text-anchor="middle" x="261" y="-59.25" font-family="Helvetica,sans-Serif" font-size="10.00">Bridge::removeMqtt</text>
</a>
</g>
</g>
<!-- Node1&#45;&gt;Node3 -->
<g id="edge2_Node000001_Node000003" class="edge">
<title>Node1&#45;&gt;Node3</title>
<g id="a_edge2_Node000001_Node000003"><a xlink:title=" ">
<path fill="none" stroke="#63b8ff" d="M168.72,-82.32C176.75,-81.13 184.81,-79.93 192.65,-78.76"/>
<polygon fill="#63b8ff" stroke="#63b8ff" points="193.07,-82.24 202.45,-77.31 192.04,-75.32 193.07,-82.24"/>
</a>
</g>
</g>
<!-- Node4 -->
<g id="Node000004" class="node">
<title>Node4</title>
<g id="a_Node000004"><a xlink:href="classmqtt_1_1bridge_1_1lib_1_1SSEDistributor.html#a5b12dc07a03ac23f4cb046b00a06e0c7" target="_top" xlink:title=" ">
<polygon fill="white" stroke="#666666" points="529.12,-85.5 366.88,-85.5 366.88,-52 529.12,-52 529.12,-85.5"/>
<text xml:space="preserve" text-anchor="start" x="374.88" y="-72" font-family="Helvetica,sans-Serif" font-size="10.00">mqtt::bridge::lib::</text>
<text xml:space="preserve" text-anchor="middle" x="448" y="-59.25" font-family="Helvetica,sans-Serif" font-size="10.00">SSEDistributor::bridgeStopped</text>
</a>
</g>
</g>
<!-- Node3&#45;&gt;Node4 -->
<g id="edge3_Node000003_Node000004" class="edge">
<title>Node3&#45;&gt;Node4</title>
<g id="a_edge3_Node000003_Node000004"><a xlink:title=" ">
<path fill="none" stroke="#63b8ff" d="M318.01,-68.75C329.85,-68.75 342.65,-68.75 355.42,-68.75"/>
<polygon fill="#63b8ff" stroke="#63b8ff" points="355.1,-72.25 365.1,-68.75 355.1,-65.25 355.1,-72.25"/>
</a>
</g>
</g>
<!-- Node10 -->
<g id="Node000010" class="node">
<title>Node10</title>
<g id="a_Node000010"><a xlink:href="classmqtt_1_1bridge_1_1lib_1_1SSEDistributor.html#adcd994f13bb46f04949cd1e08db44f36" target="_top" xlink:title=" ">
<polygon fill="white" stroke="#666666" points="542.25,-137.5 353.75,-137.5 353.75,-104 542.25,-104 542.25,-137.5"/>
<text xml:space="preserve" text-anchor="start" x="361.75" y="-124" font-family="Helvetica,sans-Serif" font-size="10.00">mqtt::bridge::lib::</text>
<text xml:space="preserve" text-anchor="middle" x="448" y="-111.25" font-family="Helvetica,sans-Serif" font-size="10.00">SSEDistributor::brokerDisconnected</text>
</a>
</g>
</g>
<!-- Node3&#45;&gt;Node10 -->
<g id="edge9_Node000003_Node000010" class="edge">
<title>Node3&#45;&gt;Node10</title>
<g id="a_edge9_Node000003_Node000010"><a xlink:title=" ">
<path fill="none" stroke="#63b8ff" d="M317.79,-84.6C329.66,-87.96 342.12,-91.48 353.75,-94.75 360.39,-96.62 367.29,-98.55 374.2,-100.49"/>
<polygon fill="#63b8ff" stroke="#63b8ff" points="373.01,-103.79 383.58,-103.11 374.9,-97.04 373.01,-103.79"/>
</a>
</g>
</g>
<!-- Node11 -->
<g id="Node000011" class="node">
<title>Node11</title>
<g id="a_Node000011"><a xlink:href="classmqtt_1_1bridge_1_1lib_1_1SSEDistributor.html#ab6cc33c1c26ccfbd738a5ec2700f0896" target="_top" xlink:title=" ">
<polygon fill="white" stroke="#666666" points="514.5,-33.5 381.5,-33.5 381.5,0 514.5,0 514.5,-33.5"/>
<text xml:space="preserve" text-anchor="start" x="389.5" y="-20" font-family="Helvetica,sans-Serif" font-size="10.00">mqtt::bridge::lib::</text>
<text xml:space="preserve" text-anchor="middle" x="448" y="-7.25" font-family="Helvetica,sans-Serif" font-size="10.00">SSEDistributor::instance</text>
</a>
</g>
</g>
<!-- Node3&#45;&gt;Node11 -->
<g id="edge12_Node000003_Node000011" class="edge">
<title>Node3&#45;&gt;Node11</title>
<g id="a_edge12_Node000003_Node000011"><a xlink:title=" ">
<path fill="none" stroke="#63b8ff" d="M317.79,-52.9C329.66,-49.54 342.12,-46.02 353.75,-42.75 360.39,-40.88 367.29,-38.95 374.2,-37.01"/>
<polygon fill="#63b8ff" stroke="#63b8ff" points="374.9,-40.46 383.58,-34.39 373.01,-33.71 374.9,-40.46"/>
</a>
</g>
</g>
<!-- Node5 -->
<g id="Node000005" class="node">
<title>Node5</title>
<g id="a_Node000005"><a xlink:href="classmqtt_1_1bridge_1_1lib_1_1SSEDistributor.html#ae352efe457441f0669d10132f46b514e" target="_top" xlink:title=" ">
<polygon fill="white" stroke="#666666" points="741.25,-140.5 578.25,-140.5 578.25,-107 741.25,-107 741.25,-140.5"/>
<text xml:space="preserve" text-anchor="start" x="586.25" y="-127" font-family="Helvetica,sans-Serif" font-size="10.00">mqtt::bridge::lib::</text>
<text xml:space="preserve" text-anchor="middle" x="659.75" y="-114.25" font-family="Helvetica,sans-Serif" font-size="10.00">SSEDistributor::sendJsonEvent</text>
</a>
</g>
</g>
<!-- Node4&#45;&gt;Node5 -->
<g id="edge4_Node000004_Node000005" class="edge">
<title>Node4&#45;&gt;Node5</title>
<g id="a_edge4_Node000004_Node000005"><a xlink:title=" ">
<path fill="none" stroke="#63b8ff" d="M514.5,-85.93C535.89,-91.53 559.84,-97.81 581.98,-103.62"/>
<polygon fill="#63b8ff" stroke="#63b8ff" points="581,-106.98 591.56,-106.13 582.77,-100.21 581,-106.98"/>
</a>
</g>
</g>
<!-- Node9 -->
<g id="Node000009" class="node">
<title>Node9</title>
<g id="a_Node000009"><a xlink:href="classmqtt_1_1bridge_1_1lib_1_1SSEDistributor.html#ae175f78eb030a996687f4606171418f6" target="_top" xlink:title=" ">
<polygon fill="white" stroke="#666666" points="734.5,-88.88 585,-88.88 585,-42.62 734.5,-42.62 734.5,-88.88"/>
<text xml:space="preserve" text-anchor="start" x="593" y="-75.38" font-family="Helvetica,sans-Serif" font-size="10.00">mqtt::bridge::lib::</text>
<text xml:space="preserve" text-anchor="start" x="593" y="-62.62" font-family="Helvetica,sans-Serif" font-size="10.00">SSEDistributor::timePointTo</text>
<text xml:space="preserve" text-anchor="middle" x="659.75" y="-49.88" font-family="Helvetica,sans-Serif" font-size="10.00">String</text>
</a>
</g>
</g>
<!-- Node4&#45;&gt;Node9 -->
<g id="edge8_Node000004_Node000009" class="edge">
<title>Node4&#45;&gt;Node9</title>
<g id="a_edge8_Node000004_Node000009"><a xlink:title=" ">
<path fill="none" stroke="#63b8ff" d="M529.49,-67.6C543.81,-67.39 558.76,-67.18 573.21,-66.97"/>
<polygon fill="#63b8ff" stroke="#63b8ff" points="573.2,-70.47 583.15,-66.83 573.1,-63.47 573.2,-70.47"/>
</a>
</g>
</g>
<!-- Node6 -->
<g id="Node000006" class="node">
<title>Node6</title>
<g id="a_Node000006"><a xlink:href="classmqtt_1_1bridge_1_1lib_1_1SSEDistributor.html#a33c28a238f0853d09effb76ed6c49d45" target="_top" xlink:title=" ">
<polygon fill="white" stroke="#666666" points="920,-140.5 777.25,-140.5 777.25,-107 920,-107 920,-140.5"/>
<text xml:space="preserve" text-anchor="start" x="785.25" y="-127" font-family="Helvetica,sans-Serif" font-size="10.00">mqtt::bridge::lib::</text>
<text xml:space="preserve" text-anchor="middle" x="848.62" y="-114.25" font-family="Helvetica,sans-Serif" font-size="10.00">SSEDistributor::sendEvent</text>
</a>
</g>
</g>
<!-- Node5&#45;&gt;Node6 -->
<g id="edge5_Node000005_Node000006" class="edge">
<title>Node5&#45;&gt;Node6</title>
<g id="a_edge5_Node000005_Node000006"><a xlink:title=" ">
<path fill="none" stroke="#63b8ff" d="M741.63,-123.75C749.52,-123.75 757.52,-123.75 765.42,-123.75"/>
<polygon fill="#63b8ff" stroke="#63b8ff" points="765.38,-127.25 775.38,-123.75 765.38,-120.25 765.38,-127.25"/>
</a>
</g>
</g>
<!-- Node7 -->
<g id="Node000007" class="node">
<title>Node7</title>
<g id="a_Node000007"><a xlink:href="classmqtt_1_1bridge_1_1lib_1_1SSEDistributor_1_1EventReceiver.html#ab7cf8f80c46f3ef696bf07dcb779255c" target="_top" xlink:title=" ">
<polygon fill="white" stroke="#666666" points="1118.25,-175.88 956,-175.88 956,-129.62 1118.25,-129.62 1118.25,-175.88"/>
<text xml:space="preserve" text-anchor="start" x="964" y="-162.38" font-family="Helvetica,sans-Serif" font-size="10.00">mqtt::bridge::lib::</text>
<text xml:space="preserve" text-anchor="start" x="964" y="-149.62" font-family="Helvetica,sans-Serif" font-size="10.00">SSEDistributor::EventReceiver</text>
<text xml:space="preserve" text-anchor="middle" x="1037.12" y="-136.88" font-family="Helvetica,sans-Serif" font-size="10.00">::getResponse</text>
</a>
</g>
</g>
<!-- Node6&#45;&gt;Node7 -->
<g id="edge6_Node000006_Node000007" class="edge">
<title>Node6&#45;&gt;Node7</title>
<g id="a_edge6_Node000006_Node000007"><a xlink:title=" ">
<path fill="none" stroke="#63b8ff" d="M920.4,-134.76C928.24,-135.97 936.31,-137.23 944.37,-138.48"/>
<polygon fill="#63b8ff" stroke="#63b8ff" points="943.81,-141.94 954.23,-140.01 944.88,-135.02 943.81,-141.94"/>
</a>
</g>
</g>
<!-- Node8 -->
<g id="Node000008" class="node">
<title>Node8</title>
<g id="a_Node000008"><a xlink:href="classmqtt_1_1bridge_1_1lib_1_1SSEDistributor.html#a9f5043f5f0189719413e23c74b3a55c2" target="_top" xlink:title=" ">
<polygon fill="white" stroke="#666666" points="1108.5,-111.5 965.75,-111.5 965.75,-78 1108.5,-78 1108.5,-111.5"/>
<text xml:space="preserve" text-anchor="start" x="973.75" y="-98" font-family="Helvetica,sans-Serif" font-size="10.00">mqtt::bridge::lib::</text>
<text xml:space="preserve" text-anchor="middle" x="1037.12" y="-85.25" font-family="Helvetica,sans-Serif" font-size="10.00">SSEDistributor::sendEvent</text>
</a>
</g>
</g>
<!-- Node6&#45;&gt;Node8 -->
<g id="edge7_Node000006_Node000008" class="edge">
<title>Node6&#45;&gt;Node8</title>
<g id="a_edge7_Node000006_Node000008"><a xlink:title=" ">
<path fill="none" stroke="#63b8ff" d="M920.4,-112.74C931.45,-111.03 942.95,-109.24 954.22,-107.49"/>
<polygon fill="#63b8ff" stroke="#63b8ff" points="954.56,-110.98 963.9,-105.98 953.49,-104.06 954.56,-110.98"/>
</a>
</g>
</g>
<!-- Node10&#45;&gt;Node5 -->
<g id="edge10_Node000010_Node000005" class="edge">
<title>Node10&#45;&gt;Node5</title>
<g id="a_edge10_Node000010_Node000005"><a xlink:title=" ">
<path fill="none" stroke="#63b8ff" d="M542.53,-122.09C550.45,-122.2 558.47,-122.32 566.39,-122.43"/>
<polygon fill="#63b8ff" stroke="#63b8ff" points="566.33,-125.93 576.38,-122.57 566.43,-118.93 566.33,-125.93"/>
</a>
</g>
</g>
<!-- Node10&#45;&gt;Node9 -->
<g id="edge11_Node000010_Node000009" class="edge">
<title>Node10&#45;&gt;Node9</title>
<g id="a_edge11_Node000010_Node000009"><a xlink:title=" ">
<path fill="none" stroke="#63b8ff" d="M514.5,-103.57C533.18,-98.68 553.8,-93.27 573.47,-88.11"/>
<polygon fill="#63b8ff" stroke="#63b8ff" points="574.35,-91.5 583.14,-85.58 572.58,-84.73 574.35,-91.5"/>
</a>
</g>
</g>
</g>
</svg>
