<?xml version="1.0" encoding="UTF-8" standalone="no"?>
<!DOCTYPE svg PUBLIC "-//W3C//DTD SVG 1.1//EN"
 "http://www.w3.org/Graphics/SVG/1.1/DTD/svg11.dtd">
<!-- Generated by graphviz version 14.1.2 (0)
 -->
<!-- Title: inja::Environment Pages: 1 -->
<svg width="678pt" height="702pt"
 viewBox="0.00 0.00 678.00 702.00" xmlns="http://www.w3.org/2000/svg" xmlns:xlink="http://www.w3.org/1999/xlink">
<g id="graph0" class="graph" transform="scale(1 1) rotate(0) translate(4 697.5)">
<title>inja::Environment</title>
<!-- Node1 -->
<g id="Node000001" class="node">
<title>Node1</title>
<g id="a_Node000001"><a xlink:title="Class for changing the configuration.">
<polygon fill="#999999" stroke="none" points="419.5,-20.75 325.25,-20.75 325.25,0 419.5,0 419.5,-20.75"/>
<text xml:space="preserve" text-anchor="start" x="329.25" y="-7.25" font-family="Helvetica,sans-Serif" font-size="10.00">inja::Environment</text>
<polygon fill="none" stroke="#666666" points="325.25,0 325.25,-20.75 419.5,-20.75 419.5,0 325.25,0"/>
</a>
</g>
</g>
<!-- Node2 -->
<g id="Node000002" class="node">
<title>Node2</title>
<g id="a_Node000002"><a xlink:href="classinja_1_1FunctionStorage.html" target="_top" xlink:title="Class for builtin functions and user&#45;defined callbacks.">
<polygon fill="white" stroke="none" points="229.75,-102.62 119,-102.62 119,-81.88 229.75,-81.88 229.75,-102.62"/>
<text xml:space="preserve" text-anchor="start" x="123" y="-89.12" font-family="Helvetica,sans-Serif" font-size="10.00">inja::FunctionStorage</text>
<polygon fill="none" stroke="#666666" points="119,-81.88 119,-102.62 229.75,-102.62 229.75,-81.88 119,-81.88"/>
</a>
</g>
</g>
<!-- Node2&#45;&gt;Node1 -->
<g id="edge1_Node000001_Node000002" class="edge">
<title>Node2&#45;&gt;Node1</title>
<g id="a_edge1_Node000001_Node000002"><a xlink:title=" ">
<path fill="none" stroke="#63b8ff" d="M172.71,-82.03C171.16,-70.26 170.55,-50.08 181.88,-38.75 199.83,-20.78 263.67,-14.5 312.54,-12.36"/>
<polygon fill="none" stroke="#63b8ff" points="312.67,-12.36 318.52,-8.13 324.66,-11.91 318.82,-16.13 312.67,-12.36"/>
</a>
</g>
<text xml:space="preserve" text-anchor="start" x="184.88" y="-45" font-family="Helvetica,sans-Serif" font-size="10.00" fill="grey">&#45;function_storage</text>
</g>
<!-- Node3 -->
<g id="Node000003" class="node">
<title>Node3</title>
<g id="a_Node000003"><a xlink:title=" ">
<polygon fill="white" stroke="none" points="230.75,-222.75 114,-222.75 114,-163.75 230.75,-163.75 230.75,-222.75"/>
<text xml:space="preserve" text-anchor="start" x="118" y="-209.25" font-family="Helvetica,sans-Serif" font-size="10.00">std::map&lt; std::pair</text>
<text xml:space="preserve" text-anchor="start" x="118" y="-196.5" font-family="Helvetica,sans-Serif" font-size="10.00">&lt; std::string, int &gt;</text>
<text xml:space="preserve" text-anchor="start" x="118" y="-183.75" font-family="Helvetica,sans-Serif" font-size="10.00">, inja::FunctionStorage</text>
<text xml:space="preserve" text-anchor="start" x="131.5" y="-171" font-family="Helvetica,sans-Serif" font-size="10.00">::FunctionData &gt;</text>
<polygon fill="none" stroke="#666666" points="114,-163.75 114,-222.75 230.75,-222.75 230.75,-163.75 114,-163.75"/>
</a>
</g>
</g>
<!-- Node3&#45;&gt;Node2 -->
<g id="edge2_Node000002_Node000003" class="edge">
<title>Node3&#45;&gt;Node2</title>
<g id="a_edge2_Node000002_Node000003"><a xlink:title=" ">
<path fill="none" stroke="#63b8ff" d="M172.95,-163.88C173.26,-148.44 173.64,-129.63 173.93,-115.31"/>
<polygon fill="none" stroke="#63b8ff" points="173.93,-115.23 170.05,-109.15 174.17,-103.23 178.05,-109.31 173.93,-115.23"/>
</a>
</g>
<text xml:space="preserve" text-anchor="start" x="176.67" y="-133.25" font-family="Helvetica,sans-Serif" font-size="10.00" fill="grey">&#45;function_storage</text>
</g>
<!-- Node4 -->
<g id="Node000004" class="node">
<title>Node4</title>
<g id="a_Node000004"><a xlink:title=" ">
<polygon fill="white" stroke="none" points="110.75,-313 0,-313 0,-279.5 110.75,-279.5 110.75,-313"/>
<text xml:space="preserve" text-anchor="start" x="4" y="-299.5" font-family="Helvetica,sans-Serif" font-size="10.00">std::pair&lt; std::string,</text>
<text xml:space="preserve" text-anchor="start" x="41.88" y="-286.75" font-family="Helvetica,sans-Serif" font-size="10.00"> int &gt;</text>
<polygon fill="none" stroke="#666666" points="0,-279.5 0,-313 110.75,-313 110.75,-279.5 0,-279.5"/>
</a>
</g>
</g>
<!-- Node4&#45;&gt;Node3 -->
<g id="edge3_Node000003_Node000004" class="edge">
<title>Node4&#45;&gt;Node3</title>
<g id="a_edge3_Node000003_Node000004"><a xlink:title=" ">
<path fill="none" stroke="#63b8ff" d="M73.4,-279.69C88.36,-266.78 110.24,-247.89 129.62,-231.16"/>
<polygon fill="none" stroke="#63b8ff" points="129.72,-231.07 131.65,-224.13 138.8,-223.23 136.87,-230.18 129.72,-231.07"/>
</a>
</g>
<text xml:space="preserve" text-anchor="start" x="120.38" y="-248" font-family="Helvetica,sans-Serif" font-size="10.00" fill="grey">+keys</text>
</g>
<!-- Node5 -->
<g id="Node000005" class="node">
<title>Node5</title>
<g id="a_Node000005"><a xlink:title=" ">
<polygon fill="white" stroke="none" points="202.75,-623 146,-623 146,-602.25 202.75,-602.25 202.75,-623"/>
<text xml:space="preserve" text-anchor="start" x="150" y="-609.5" font-family="Helvetica,sans-Serif" font-size="10.00">std::string</text>
<polygon fill="none" stroke="#666666" points="146,-602.25 146,-623 202.75,-623 202.75,-602.25 146,-602.25"/>
</a>
</g>
</g>
<!-- Node5&#45;&gt;Node4 -->
<g id="edge4_Node000004_Node000005" class="edge">
<title>Node5&#45;&gt;Node4</title>
<g id="a_edge4_Node000004_Node000005"><a xlink:title=" ">
<path fill="none" stroke="#63b8ff" d="M170.94,-602.56C155.4,-561.5 91.3,-392.15 65.85,-324.93"/>
<polygon fill="none" stroke="#63b8ff" points="65.87,-324.98 60.01,-320.79 61.62,-313.76 67.49,-317.96 65.87,-324.98"/>
</a>
</g>
<text xml:space="preserve" text-anchor="start" x="165" y="-454.5" font-family="Helvetica,sans-Serif" font-size="10.00" fill="grey">+first_type</text>
</g>
<!-- Node9 -->
<g id="Node000009" class="node">
<title>Node9</title>
<g id="a_Node000009"><a xlink:href="structinja_1_1LexerConfig.html" target="_top" xlink:title="Class for lexer configuration.">
<polygon fill="white" stroke="none" points="332.62,-261.5 242.12,-261.5 242.12,-240.75 332.62,-240.75 332.62,-261.5"/>
<text xml:space="preserve" text-anchor="start" x="246.12" y="-248" font-family="Helvetica,sans-Serif" font-size="10.00">inja::LexerConfig</text>
<polygon fill="none" stroke="#666666" points="242.12,-240.75 242.12,-261.5 332.62,-261.5 332.62,-240.75 242.12,-240.75"/>
</a>
</g>
</g>
<!-- Node5&#45;&gt;Node9 -->
<g id="edge9_Node000009_Node000005" class="edge">
<title>Node5&#45;&gt;Node9</title>
<g id="a_edge9_Node000009_Node000005"><a xlink:title=" ">
<path fill="none" stroke="#63b8ff" d="M202.58,-602.42C211.44,-598.21 220.45,-592.31 226.38,-584.25 297.78,-487.12 293.83,-331.75 289.51,-274.36"/>
<polygon fill="none" stroke="#63b8ff" points="289.51,-274.29 285.01,-268.66 288.48,-262.33 292.98,-267.97 289.51,-274.29"/>
</a>
</g>
<text xml:space="preserve" text-anchor="start" x="294.5" y="-571.75" font-family="Helvetica,sans-Serif" font-size="10.00" fill="grey">+comment_close</text>
<text xml:space="preserve" text-anchor="start" x="294.5" y="-555" font-family="Helvetica,sans-Serif" font-size="10.00" fill="grey">+comment_close_force</text>
<text xml:space="preserve" text-anchor="start" x="294.5" y="-538.25" font-family="Helvetica,sans-Serif" font-size="10.00" fill="grey">  _rstrip</text>
<text xml:space="preserve" text-anchor="start" x="294.5" y="-521.5" font-family="Helvetica,sans-Serif" font-size="10.00" fill="grey">+comment_open</text>
<text xml:space="preserve" text-anchor="start" x="294.5" y="-504.75" font-family="Helvetica,sans-Serif" font-size="10.00" fill="grey">+comment_open_force</text>
<text xml:space="preserve" text-anchor="start" x="294.5" y="-488" font-family="Helvetica,sans-Serif" font-size="10.00" fill="grey">  _lstrip</text>
<text xml:space="preserve" text-anchor="start" x="294.5" y="-471.25" font-family="Helvetica,sans-Serif" font-size="10.00" fill="grey">+expression_close</text>
<text xml:space="preserve" text-anchor="start" x="294.5" y="-454.5" font-family="Helvetica,sans-Serif" font-size="10.00" fill="grey">+expression_close</text>
<text xml:space="preserve" text-anchor="start" x="294.5" y="-437.75" font-family="Helvetica,sans-Serif" font-size="10.00" fill="grey">  _force_rstrip</text>
<text xml:space="preserve" text-anchor="start" x="294.5" y="-421" font-family="Helvetica,sans-Serif" font-size="10.00" fill="grey">+expression_open</text>
<text xml:space="preserve" text-anchor="start" x="294.5" y="-404.25" font-family="Helvetica,sans-Serif" font-size="10.00" fill="grey">+expression_open</text>
<text xml:space="preserve" text-anchor="start" x="294.5" y="-387.5" font-family="Helvetica,sans-Serif" font-size="10.00" fill="grey">  _force_lstrip</text>
<text xml:space="preserve" text-anchor="start" x="294.5" y="-370.75" font-family="Helvetica,sans-Serif" font-size="10.00" fill="grey">+line_statement</text>
<text xml:space="preserve" text-anchor="start" x="294.5" y="-354" font-family="Helvetica,sans-Serif" font-size="10.00" fill="grey">+open_chars</text>
<text xml:space="preserve" text-anchor="start" x="294.5" y="-337.25" font-family="Helvetica,sans-Serif" font-size="10.00" fill="grey"> &#160;...</text>
</g>
<!-- Node6 -->
<g id="Node000006" class="node">
<title>Node6</title>
<g id="a_Node000006"><a xlink:title=" ">
<polygon fill="white" stroke="none" points="222.25,-693.5 126.5,-693.5 126.5,-660 222.25,-660 222.25,-693.5"/>
<text xml:space="preserve" text-anchor="start" x="130.5" y="-680" font-family="Helvetica,sans-Serif" font-size="10.00">std::basic_string&lt;</text>
<text xml:space="preserve" text-anchor="start" x="156" y="-667.25" font-family="Helvetica,sans-Serif" font-size="10.00"> Char &gt;</text>
<polygon fill="none" stroke="#666666" points="126.5,-660 126.5,-693.5 222.25,-693.5 222.25,-660 126.5,-660"/>
</a>
</g>
</g>
<!-- Node6&#45;&gt;Node5 -->
<g id="edge5_Node000005_Node000006" class="edge">
<title>Node6&#45;&gt;Node5</title>
<g id="a_edge5_Node000005_Node000006"><a xlink:title=" ">
<path fill="none" stroke="#63b8ff" d="M174.38,-648.79C174.38,-639.46 174.38,-629.63 174.38,-622.74"/>
<polygon fill="none" stroke="#63b8ff" points="170.88,-648.56 174.38,-658.56 177.88,-648.56 170.88,-648.56"/>
</a>
</g>
</g>
<!-- Node7 -->
<g id="Node000007" class="node">
<title>Node7</title>
<g id="a_Node000007"><a xlink:href="structinja_1_1FunctionStorage_1_1FunctionData.html" target="_top" xlink:title=" ">
<polygon fill="white" stroke="none" points="239.75,-313 129,-313 129,-279.5 239.75,-279.5 239.75,-313"/>
<text xml:space="preserve" text-anchor="start" x="133" y="-299.5" font-family="Helvetica,sans-Serif" font-size="10.00">inja::FunctionStorage</text>
<text xml:space="preserve" text-anchor="start" x="149.12" y="-286.75" font-family="Helvetica,sans-Serif" font-size="10.00">::FunctionData</text>
<polygon fill="none" stroke="#666666" points="129,-279.5 129,-313 239.75,-313 239.75,-279.5 129,-279.5"/>
</a>
</g>
</g>
<!-- Node7&#45;&gt;Node3 -->
<g id="edge6_Node000003_Node000007" class="edge">
<title>Node7&#45;&gt;Node3</title>
<g id="a_edge6_Node000003_Node000007"><a xlink:title=" ">
<path fill="none" stroke="#63b8ff" d="M178.23,-279.7C176.29,-274.06 174.39,-267.58 173.38,-261.5 171.97,-253.09 171.29,-244 171.03,-235.31"/>
<polygon fill="none" stroke="#63b8ff" points="171.03,-235.46 166.98,-229.49 170.93,-223.46 174.98,-229.42 171.03,-235.46"/>
</a>
</g>
<text xml:space="preserve" text-anchor="start" x="176.38" y="-248" font-family="Helvetica,sans-Serif" font-size="10.00" fill="grey">+elements</text>
</g>
<!-- Node8 -->
<g id="Node000008" class="node">
<title>Node8</title>
<g id="a_Node000008"><a xlink:title=" ">
<polygon fill="white" stroke="none" points="429.25,-109 315.5,-109 315.5,-75.5 429.25,-75.5 429.25,-109"/>
<text xml:space="preserve" text-anchor="start" x="319.5" y="-95.5" font-family="Helvetica,sans-Serif" font-size="10.00">std::map&lt; std::string,</text>
<text xml:space="preserve" text-anchor="start" x="342.75" y="-82.75" font-family="Helvetica,sans-Serif" font-size="10.00"> Template &gt;</text>
<polygon fill="none" stroke="#666666" points="315.5,-75.5 315.5,-109 429.25,-109 429.25,-75.5 315.5,-75.5"/>
</a>
</g>
</g>
<!-- Node8&#45;&gt;Node1 -->
<g id="edge7_Node000001_Node000008" class="edge">
<title>Node8&#45;&gt;Node1</title>
<g id="a_edge7_Node000001_Node000008"><a xlink:title=" ">
<path fill="none" stroke="#63b8ff" d="M372.38,-75.85C372.38,-63.86 372.38,-47.07 372.38,-33.62"/>
<polygon fill="none" stroke="#63b8ff" points="372.38,-33.63 368.38,-27.63 372.38,-21.63 376.38,-27.63 372.38,-33.63"/>
</a>
</g>
<text xml:space="preserve" text-anchor="start" x="375.38" y="-45" font-family="Helvetica,sans-Serif" font-size="10.00" fill="grey">&#45;template_storage</text>
</g>
<!-- Node9&#45;&gt;Node1 -->
<g id="edge8_Node000001_Node000009" class="edge">
<title>Node9&#45;&gt;Node1</title>
<g id="a_edge8_Node000001_Node000009"><a xlink:title=" ">
<path fill="none" stroke="#63b8ff" d="M286.27,-240.81C283.49,-213.69 278.28,-133.05 306.38,-75.5 315.65,-56.51 332.96,-40.02 347.53,-28.52"/>
<polygon fill="none" stroke="#63b8ff" points="347.61,-28.46 350.03,-21.66 357.23,-21.28 354.81,-28.08 347.61,-28.46"/>
</a>
</g>
<text xml:space="preserve" text-anchor="start" x="292.94" y="-133.25" font-family="Helvetica,sans-Serif" font-size="10.00" fill="grey">#lexer_config</text>
</g>
<!-- Node10 -->
<g id="Node000010" class="node">
<title>Node10</title>
<g id="a_Node000010"><a xlink:href="structinja_1_1ParserConfig.html" target="_top" xlink:title="Class for parser configuration.">
<polygon fill="white" stroke="none" points="541.5,-102.62 447.25,-102.62 447.25,-81.88 541.5,-81.88 541.5,-102.62"/>
<text xml:space="preserve" text-anchor="start" x="451.25" y="-89.12" font-family="Helvetica,sans-Serif" font-size="10.00">inja::ParserConfig</text>
<polygon fill="none" stroke="#666666" points="447.25,-81.88 447.25,-102.62 541.5,-102.62 541.5,-81.88 447.25,-81.88"/>
</a>
</g>
</g>
<!-- Node10&#45;&gt;Node1 -->
<g id="edge10_Node000001_Node000010" class="edge">
<title>Node10&#45;&gt;Node1</title>
<g id="a_edge10_Node000001_Node000010"><a xlink:title=" ">
<path fill="none" stroke="#63b8ff" d="M493.03,-82.03C490.82,-70.27 485.3,-50.1 472.38,-38.75 461.08,-28.83 446.51,-22.47 432,-18.4"/>
<polygon fill="none" stroke="#63b8ff" points="431.9,-18.38 425.14,-20.88 420.23,-15.59 426.99,-13.09 431.9,-18.38"/>
</a>
</g>
<text xml:space="preserve" text-anchor="start" x="488.51" y="-45" font-family="Helvetica,sans-Serif" font-size="10.00" fill="grey">#parser_config</text>
</g>
<!-- Node11 -->
<g id="Node000011" class="node">
<title>Node11</title>
<g id="a_Node000011"><a xlink:href="structinja_1_1RenderConfig.html" target="_top" xlink:title="Class for render configuration.">
<polygon fill="white" stroke="none" points="657.38,-102.62 559.38,-102.62 559.38,-81.88 657.38,-81.88 657.38,-102.62"/>
<text xml:space="preserve" text-anchor="start" x="563.38" y="-89.12" font-family="Helvetica,sans-Serif" font-size="10.00">inja::RenderConfig</text>
<polygon fill="none" stroke="#666666" points="559.38,-81.88 559.38,-102.62 657.38,-102.62 657.38,-81.88 559.38,-81.88"/>
</a>
</g>
</g>
<!-- Node11&#45;&gt;Node1 -->
<g id="edge11_Node000001_Node000011" class="edge">
<title>Node11&#45;&gt;Node1</title>
<g id="a_edge11_Node000001_Node000011"><a xlink:title=" ">
<path fill="none" stroke="#63b8ff" d="M604.37,-82.06C598.55,-69.93 586.57,-48.94 569.38,-38.75 546.74,-25.34 481.25,-18.19 431.95,-14.61"/>
<polygon fill="none" stroke="#63b8ff" points="432.03,-14.61 425.77,-18.19 420.06,-13.79 426.32,-10.21 432.03,-14.61"/>
</a>
</g>
<text xml:space="preserve" text-anchor="start" x="591.83" y="-45" font-family="Helvetica,sans-Serif" font-size="10.00" fill="grey">#render_config</text>
</g>
</g>
</svg>
