<?xml version="1.0" encoding="UTF-8" standalone="no"?>
<!DOCTYPE svg PUBLIC "-//W3C//DTD SVG 1.1//EN"
 "http://www.w3.org/Graphics/SVG/1.1/DTD/svg11.dtd">
<!-- Generated by graphviz version 14.1.1 (0)
 -->
<!-- Title: mqtt::bridge::lib::Mqtt::Mqtt Pages: 1 -->
<svg width="322pt" height="614pt"
 viewBox="0.00 0.00 322.00 614.00" xmlns="http://www.w3.org/2000/svg" xmlns:xlink="http://www.w3.org/1999/xlink">
<g id="graph0" class="graph" transform="scale(1 1) rotate(0) translate(4 609.5)">
<title>mqtt::bridge::lib::Mqtt::Mqtt</title>
<!-- Node1 -->
<g id="Node000001" class="node">
<title>Node1</title>
<g id="a_Node000001"><a xlink:title=" ">
<polygon fill="#999999" stroke="#666666" points="100,-319.5 0,-319.5 0,-286 100,-286 100,-319.5"/>
<text xml:space="preserve" text-anchor="start" x="8" y="-306" font-family="Helvetica,sans-Serif" font-size="10.00">mqtt::bridge::lib::</text>
<text xml:space="preserve" text-anchor="middle" x="50" y="-293.25" font-family="Helvetica,sans-Serif" font-size="10.00">Mqtt::Mqtt</text>
</a>
</g>
</g>
<!-- Node2 -->
<g id="Node000002" class="node">
<title>Node2</title>
<g id="a_Node000002"><a xlink:href="classmqtt_1_1bridge_1_1lib_1_1Broker.html#a7ef2ec65092282a8690a4c1f6ddeba8b" target="_top" xlink:title=" ">
<polygon fill="white" stroke="#666666" points="292.25,-605.5 157.75,-605.5 157.75,-572 292.25,-572 292.25,-605.5"/>
<text xml:space="preserve" text-anchor="start" x="165.75" y="-592" font-family="Helvetica,sans-Serif" font-size="10.00">mqtt::bridge::lib::</text>
<text xml:space="preserve" text-anchor="middle" x="225" y="-579.25" font-family="Helvetica,sans-Serif" font-size="10.00">Broker::getCleanSession</text>
</a>
</g>
</g>
<!-- Node1&#45;&gt;Node2 -->
<g id="edge1_Node000001_Node000002" class="edge">
<title>Node1&#45;&gt;Node2</title>
<g id="a_edge1_Node000001_Node000002"><a xlink:title=" ">
<path fill="none" stroke="#63b8ff" d="M51.39,-319.82C53.38,-365.91 65.33,-494.08 136,-562.75 139.47,-566.12 143.36,-569.06 147.51,-571.62"/>
<polygon fill="#63b8ff" stroke="#63b8ff" points="145.8,-574.67 156.28,-576.23 149.05,-568.48 145.8,-574.67"/>
</a>
</g>
</g>
<!-- Node3 -->
<g id="Node000003" class="node">
<title>Node3</title>
<g id="a_Node000003"><a xlink:href="classmqtt_1_1bridge_1_1lib_1_1Broker.html#a6d2569d96d1c3c9775d3094a57d298e0" target="_top" xlink:title=" ">
<polygon fill="white" stroke="#666666" points="278.38,-553.5 171.62,-553.5 171.62,-520 278.38,-520 278.38,-553.5"/>
<text xml:space="preserve" text-anchor="start" x="179.62" y="-540" font-family="Helvetica,sans-Serif" font-size="10.00">mqtt::bridge::lib::</text>
<text xml:space="preserve" text-anchor="middle" x="225" y="-527.25" font-family="Helvetica,sans-Serif" font-size="10.00">Broker::getClientId</text>
</a>
</g>
</g>
<!-- Node1&#45;&gt;Node3 -->
<g id="edge2_Node000001_Node000003" class="edge">
<title>Node1&#45;&gt;Node3</title>
<g id="a_edge2_Node000001_Node000003"><a xlink:title=" ">
<path fill="none" stroke="#63b8ff" d="M52.99,-319.85C58.51,-359.44 77.69,-458.03 136,-510.75 143.05,-517.12 151.59,-521.94 160.55,-525.58"/>
<polygon fill="#63b8ff" stroke="#63b8ff" points="159.17,-528.8 169.76,-528.82 161.5,-522.2 159.17,-528.8"/>
</a>
</g>
</g>
<!-- Node4 -->
<g id="Node000004" class="node">
<title>Node4</title>
<g id="a_Node000004"><a xlink:href="classmqtt_1_1bridge_1_1lib_1_1Broker.html#a537a5d925a917be20f784ac106bc7d2e" target="_top" xlink:title=" ">
<polygon fill="white" stroke="#666666" points="284,-501.5 166,-501.5 166,-468 284,-468 284,-501.5"/>
<text xml:space="preserve" text-anchor="start" x="174" y="-488" font-family="Helvetica,sans-Serif" font-size="10.00">mqtt::bridge::lib::</text>
<text xml:space="preserve" text-anchor="middle" x="225" y="-475.25" font-family="Helvetica,sans-Serif" font-size="10.00">Broker::getKeepAlive</text>
</a>
</g>
</g>
<!-- Node1&#45;&gt;Node4 -->
<g id="edge3_Node000001_Node000004" class="edge">
<title>Node1&#45;&gt;Node4</title>
<g id="a_edge3_Node000001_Node000004"><a xlink:title=" ">
<path fill="none" stroke="#63b8ff" d="M55.5,-319.65C64.9,-351.67 89.7,-421.34 136,-458.75 141.83,-463.46 148.48,-467.31 155.47,-470.47"/>
<polygon fill="#63b8ff" stroke="#63b8ff" points="153.89,-473.61 164.47,-474.06 156.48,-467.11 153.89,-473.61"/>
</a>
</g>
</g>
<!-- Node5 -->
<g id="Node000005" class="node">
<title>Node5</title>
<g id="a_Node000005"><a xlink:href="classmqtt_1_1bridge_1_1lib_1_1Broker.html#a12c314cbad6137819c767bc6ead98d3e" target="_top" xlink:title=" ">
<polygon fill="white" stroke="#666666" points="297.5,-449.5 152.5,-449.5 152.5,-416 297.5,-416 297.5,-449.5"/>
<text xml:space="preserve" text-anchor="start" x="160.5" y="-436" font-family="Helvetica,sans-Serif" font-size="10.00">mqtt::bridge::lib::</text>
<text xml:space="preserve" text-anchor="middle" x="225" y="-423.25" font-family="Helvetica,sans-Serif" font-size="10.00">Broker::getLoopPrevention</text>
</a>
</g>
</g>
<!-- Node1&#45;&gt;Node5 -->
<g id="edge4_Node000001_Node000005" class="edge">
<title>Node1&#45;&gt;Node5</title>
<g id="a_edge4_Node000001_Node000005"><a xlink:title=" ">
<path fill="none" stroke="#63b8ff" d="M60.47,-319.82C74.15,-342.94 101.62,-383.91 136,-406.75 137.97,-408.06 140.01,-409.3 142.1,-410.49"/>
<polygon fill="#63b8ff" stroke="#63b8ff" points="140.35,-413.53 150.86,-414.9 143.51,-407.28 140.35,-413.53"/>
</a>
</g>
</g>
<!-- Node6 -->
<g id="Node000006" class="node">
<title>Node6</title>
<g id="a_Node000006"><a xlink:href="classmqtt_1_1bridge_1_1lib_1_1Broker.html#a8b0a98fcc637171cc995cee2a8bd5685" target="_top" xlink:title=" ">
<polygon fill="white" stroke="#666666" points="282.88,-397.5 167.12,-397.5 167.12,-364 282.88,-364 282.88,-397.5"/>
<text xml:space="preserve" text-anchor="start" x="175.12" y="-384" font-family="Helvetica,sans-Serif" font-size="10.00">mqtt::bridge::lib::</text>
<text xml:space="preserve" text-anchor="middle" x="225" y="-371.25" font-family="Helvetica,sans-Serif" font-size="10.00">Broker::getPassword</text>
</a>
</g>
</g>
<!-- Node1&#45;&gt;Node6 -->
<g id="edge5_Node000001_Node000006" class="edge">
<title>Node1&#45;&gt;Node6</title>
<g id="a_edge5_Node000001_Node000006"><a xlink:title=" ">
<path fill="none" stroke="#63b8ff" d="M74.99,-319.77C91.52,-330.91 114.34,-345.13 136,-354.75 142.4,-357.59 149.2,-360.23 156.07,-362.64"/>
<polygon fill="#63b8ff" stroke="#63b8ff" points="154.85,-365.92 165.44,-365.77 157.06,-359.28 154.85,-365.92"/>
</a>
</g>
</g>
<!-- Node7 -->
<g id="Node000007" class="node">
<title>Node7</title>
<g id="a_Node000007"><a xlink:href="classmqtt_1_1bridge_1_1lib_1_1Broker.html#ad86912ec39c5469f7847a254f9f722ae" target="_top" xlink:title=" ">
<polygon fill="white" stroke="#666666" points="275,-345.5 175,-345.5 175,-312 275,-312 275,-345.5"/>
<text xml:space="preserve" text-anchor="start" x="183" y="-332" font-family="Helvetica,sans-Serif" font-size="10.00">mqtt::bridge::lib::</text>
<text xml:space="preserve" text-anchor="middle" x="225" y="-319.25" font-family="Helvetica,sans-Serif" font-size="10.00">Broker::getPrefix</text>
</a>
</g>
</g>
<!-- Node1&#45;&gt;Node7 -->
<g id="edge6_Node000001_Node000007" class="edge">
<title>Node1&#45;&gt;Node7</title>
<g id="a_edge6_Node000001_Node000007"><a xlink:title=" ">
<path fill="none" stroke="#63b8ff" d="M100.11,-310.13C119.84,-313.1 142.77,-316.54 163.51,-319.66"/>
<polygon fill="#63b8ff" stroke="#63b8ff" points="162.86,-323.1 173.27,-321.13 163.9,-316.18 162.86,-323.1"/>
</a>
</g>
</g>
<!-- Node8 -->
<g id="Node000008" class="node">
<title>Node8</title>
<g id="a_Node000008"><a xlink:href="classmqtt_1_1bridge_1_1lib_1_1Broker.html#a684990f7a76ea49f37375d6f6c6d1ba4" target="_top" xlink:title=" ">
<polygon fill="white" stroke="#666666" points="314,-293.5 136,-293.5 136,-260 314,-260 314,-293.5"/>
<text xml:space="preserve" text-anchor="start" x="144" y="-280" font-family="Helvetica,sans-Serif" font-size="10.00">mqtt::bridge::lib::</text>
<text xml:space="preserve" text-anchor="middle" x="225" y="-267.25" font-family="Helvetica,sans-Serif" font-size="10.00">Broker::getSessionStoreFileName</text>
</a>
</g>
</g>
<!-- Node1&#45;&gt;Node8 -->
<g id="edge7_Node000001_Node000008" class="edge">
<title>Node1&#45;&gt;Node8</title>
<g id="a_edge7_Node000001_Node000008"><a xlink:title=" ">
<path fill="none" stroke="#63b8ff" d="M100.11,-295.37C107.89,-294.2 116.17,-292.96 124.62,-291.69"/>
<polygon fill="#63b8ff" stroke="#63b8ff" points="124.92,-295.18 134.29,-290.23 123.88,-288.26 124.92,-295.18"/>
</a>
</g>
</g>
<!-- Node9 -->
<g id="Node000009" class="node">
<title>Node9</title>
<g id="a_Node000009"><a xlink:href="classmqtt_1_1bridge_1_1lib_1_1Broker.html#a750e20fe14960d3a5944ecb03bf7e269" target="_top" xlink:title=" ">
<polygon fill="white" stroke="#666666" points="284.75,-241.5 165.25,-241.5 165.25,-208 284.75,-208 284.75,-241.5"/>
<text xml:space="preserve" text-anchor="start" x="173.25" y="-228" font-family="Helvetica,sans-Serif" font-size="10.00">mqtt::bridge::lib::</text>
<text xml:space="preserve" text-anchor="middle" x="225" y="-215.25" font-family="Helvetica,sans-Serif" font-size="10.00">Broker::getUsername</text>
</a>
</g>
</g>
<!-- Node1&#45;&gt;Node9 -->
<g id="edge8_Node000001_Node000009" class="edge">
<title>Node1&#45;&gt;Node9</title>
<g id="a_edge8_Node000001_Node000009"><a xlink:title=" ">
<path fill="none" stroke="#63b8ff" d="M74.99,-285.73C91.52,-274.59 114.34,-260.37 136,-250.75 141.88,-248.14 148.09,-245.71 154.38,-243.46"/>
<polygon fill="#63b8ff" stroke="#63b8ff" points="155.23,-246.87 163.57,-240.34 152.98,-240.24 155.23,-246.87"/>
</a>
</g>
</g>
<!-- Node10 -->
<g id="Node000010" class="node">
<title>Node10</title>
<g id="a_Node000010"><a xlink:href="classmqtt_1_1bridge_1_1lib_1_1Broker.html#a6403697d2031730753912aaaf47cb1f4" target="_top" xlink:title=" ">
<polygon fill="white" stroke="#666666" points="290.75,-189.5 159.25,-189.5 159.25,-156 290.75,-156 290.75,-189.5"/>
<text xml:space="preserve" text-anchor="start" x="167.25" y="-176" font-family="Helvetica,sans-Serif" font-size="10.00">mqtt::bridge::lib::</text>
<text xml:space="preserve" text-anchor="middle" x="225" y="-163.25" font-family="Helvetica,sans-Serif" font-size="10.00">Broker::getWillMessage</text>
</a>
</g>
</g>
<!-- Node1&#45;&gt;Node10 -->
<g id="edge9_Node000001_Node000010" class="edge">
<title>Node1&#45;&gt;Node10</title>
<g id="a_edge9_Node000001_Node000010"><a xlink:title=" ">
<path fill="none" stroke="#63b8ff" d="M60.47,-285.68C74.15,-262.56 101.62,-221.59 136,-198.75 139.96,-196.12 144.18,-193.75 148.57,-191.62"/>
<polygon fill="#63b8ff" stroke="#63b8ff" points="149.87,-194.87 157.63,-187.66 147.07,-188.45 149.87,-194.87"/>
</a>
</g>
</g>
<!-- Node11 -->
<g id="Node000011" class="node">
<title>Node11</title>
<g id="a_Node000011"><a xlink:href="classmqtt_1_1bridge_1_1lib_1_1Broker.html#ae421318ee7d0d6287cdb43d605277a5b" target="_top" xlink:title=" ">
<polygon fill="white" stroke="#666666" points="278.75,-137.5 171.25,-137.5 171.25,-104 278.75,-104 278.75,-137.5"/>
<text xml:space="preserve" text-anchor="start" x="179.25" y="-124" font-family="Helvetica,sans-Serif" font-size="10.00">mqtt::bridge::lib::</text>
<text xml:space="preserve" text-anchor="middle" x="225" y="-111.25" font-family="Helvetica,sans-Serif" font-size="10.00">Broker::getWillQoS</text>
</a>
</g>
</g>
<!-- Node1&#45;&gt;Node11 -->
<g id="edge10_Node000001_Node000011" class="edge">
<title>Node1&#45;&gt;Node11</title>
<g id="a_edge10_Node000001_Node000011"><a xlink:title=" ">
<path fill="none" stroke="#63b8ff" d="M55.5,-285.85C64.9,-253.83 89.7,-184.16 136,-146.75 143.14,-140.98 151.51,-136.5 160.21,-133"/>
<polygon fill="#63b8ff" stroke="#63b8ff" points="161.24,-136.36 169.5,-129.72 158.9,-129.76 161.24,-136.36"/>
</a>
</g>
</g>
<!-- Node12 -->
<g id="Node000012" class="node">
<title>Node12</title>
<g id="a_Node000012"><a xlink:href="classmqtt_1_1bridge_1_1lib_1_1Broker.html#a41d9b2f5e10294198b45d1e217574f60" target="_top" xlink:title=" ">
<polygon fill="white" stroke="#666666" points="284.75,-85.5 165.25,-85.5 165.25,-52 284.75,-52 284.75,-85.5"/>
<text xml:space="preserve" text-anchor="start" x="173.25" y="-72" font-family="Helvetica,sans-Serif" font-size="10.00">mqtt::bridge::lib::</text>
<text xml:space="preserve" text-anchor="middle" x="225" y="-59.25" font-family="Helvetica,sans-Serif" font-size="10.00">Broker::getWillRetain</text>
</a>
</g>
</g>
<!-- Node1&#45;&gt;Node12 -->
<g id="edge11_Node000001_Node000012" class="edge">
<title>Node1&#45;&gt;Node12</title>
<g id="a_edge11_Node000001_Node000012"><a xlink:title=" ">
<path fill="none" stroke="#63b8ff" d="M52.99,-285.65C58.51,-246.06 77.69,-147.47 136,-94.75 141.48,-89.8 147.86,-85.79 154.63,-82.54"/>
<polygon fill="#63b8ff" stroke="#63b8ff" points="155.51,-85.96 163.39,-78.88 152.81,-79.5 155.51,-85.96"/>
</a>
</g>
</g>
<!-- Node13 -->
<g id="Node000013" class="node">
<title>Node13</title>
<g id="a_Node000013"><a xlink:href="classmqtt_1_1bridge_1_1lib_1_1Broker.html#a345589d52b437b118f272a50df7b4b7d" target="_top" xlink:title=" ">
<polygon fill="white" stroke="#666666" points="281.38,-33.5 168.62,-33.5 168.62,0 281.38,0 281.38,-33.5"/>
<text xml:space="preserve" text-anchor="start" x="176.62" y="-20" font-family="Helvetica,sans-Serif" font-size="10.00">mqtt::bridge::lib::</text>
<text xml:space="preserve" text-anchor="middle" x="225" y="-7.25" font-family="Helvetica,sans-Serif" font-size="10.00">Broker::getWillTopic</text>
</a>
</g>
</g>
<!-- Node1&#45;&gt;Node13 -->
<g id="edge12_Node000001_Node000013" class="edge">
<title>Node1&#45;&gt;Node13</title>
<g id="a_edge12_Node000001_Node000013"><a xlink:title=" ">
<path fill="none" stroke="#63b8ff" d="M51.39,-285.68C53.38,-239.59 65.33,-111.42 136,-42.75 142.2,-36.73 149.72,-32.09 157.72,-28.52"/>
<polygon fill="#63b8ff" stroke="#63b8ff" points="158.95,-31.8 167.04,-24.96 156.45,-25.26 158.95,-31.8"/>
</a>
</g>
</g>
</g>
</svg>
