<?xml version="1.0" encoding="UTF-8" standalone="no"?>
<!DOCTYPE svg PUBLIC "-//W3C//DTD SVG 1.1//EN"
 "http://www.w3.org/Graphics/SVG/1.1/DTD/svg11.dtd">
<!-- Generated by graphviz version 2.42.4 (0)
 -->
<!-- Title: mqtt::bridge::lib::Broker Pages: 1 -->
<!--zoomable 604 -->

<svg id="main" version="1.1" xmlns="http://www.w3.org/2000/svg" xmlns:xlink="http://www.w3.org/1999/xlink" xml:space="preserve" onload="init(evt)">

<style type="text/css"><![CDATA[
.node, .edge {opacity: 0.7;}
.node.selected, .edge.selected {opacity: 1;}
.edge:hover path { stroke: red; }
.edge:hover polygon { stroke: red; fill: red; }
]]></style>

<defs>
  <circle id="rim" cx="0" cy="0" r="7"/>
  <circle id="rim2" cx="0" cy="0" r="3.5"/>
  <g id="zoomPlus">
    <use xlink:href="#rim" fill="#404040"><set attributeName="fill" to="#808080" begin="zoomplus.mouseover" end="zoomplus.mouseout"/></use>
    <path d="M-4,0h8M0,-4v8" fill="none" stroke="white" stroke-width="1.5" pointer-events="none"/>
  </g>
  <g id="zoomMin">
    <use xlink:href="#rim" fill="#404040"><set attributeName="fill" to="#808080" begin="zoomminus.mouseover" end="zoomminus.mouseout"/></use>
    <path d="M-4,0h8" fill="none" stroke="white" stroke-width="1.5" pointer-events="none"/>
  </g>
  <g id="arrowUp" transform="translate(30 24)">
    <use xlink:href="#rim"/>
    <path pointer-events="none" fill="none" stroke="white" stroke-width="1.5" d="M0,-3.0v7 M-2.5,-0.5L0,-3.0L2.5,-0.5"/>
  </g>
  <g id="arrowRight" transform="rotate(90) translate(36 -43)">
    <use xlink:href="#rim"/>
    <path pointer-events="none" fill="none" stroke="white" stroke-width="1.5" d="M0,-3.0v7 M-2.5,-0.5L0,-3.0L2.5,-0.5"/>
  </g>
  <g id="arrowDown" transform="rotate(180) translate(-30 -48)">
    <use xlink:href="#rim"/>
    <path pointer-events="none" fill="none" stroke="white" stroke-width="1.5" d="M0,-3.0v7 M-2.5,-0.5L0,-3.0L2.5,-0.5"/>
  </g>
  <g id="arrowLeft" transform="rotate(270) translate(-36 17)">
    <use xlink:href="#rim"/>
    <path pointer-events="none" fill="none" stroke="white" stroke-width="1.5" d="M0,-3.0v7 M-2.5,-0.5L0,-3.0L2.5,-0.5"/>
  </g>
  <g id="resetDef">
    <use xlink:href="#rim2" fill="#404040"><set attributeName="fill" to="#808080" begin="reset.mouseover" end="reset.mouseout"/></use>
  </g>
</defs>
<script type="application/ecmascript">
var viewWidth = 292;
var viewHeight = 604;
var sectionId = 'dynsection-0';
</script>
<script type="application/ecmascript" xlink:href="svg.min.js"/>
<svg id="graph" class="graph">
<g id="viewport">
<title>mqtt::bridge::lib::Broker</title>
<!-- Node1 -->
<g id="Node000001" class="node">
<title>Node1</title>
<g id="a_Node000001"><a xlink:title=" ">
<polygon fill="#999999" stroke="transparent" points="154,-281 60,-281 60,-251 154,-251 154,-281"/>
<text text-anchor="start" x="64.5" y="-269" font-family="Helvetica,sans-Serif" font-size="10.00">mqtt::bridge::lib::</text>
<text text-anchor="start" x="91" y="-258" font-family="Helvetica,sans-Serif" font-size="10.00">Broker</text>
<polygon fill="none" stroke="#666666" points="60,-251 60,-281 154,-281 154,-251 60,-251"/>
</a>
</g>
</g>
<!-- Node6 -->
<g id="Node000006" class="node">
<title>Node6</title>
<g id="a_Node000006"><a xlink:href="classmqtt_1_1bridge_1_1lib_1_1Mqtt.html" target="_top" xlink:title=" ">
<polygon fill="white" stroke="transparent" points="247,-191.5 131,-191.5 131,-172.5 247,-172.5 247,-191.5"/>
<text text-anchor="start" x="135.5" y="-179" font-family="Helvetica,sans-Serif" font-size="10.00">mqtt::bridge::lib::Mqtt</text>
<polygon fill="none" stroke="#666666" points="131,-172.5 131,-191.5 247,-191.5 247,-172.5 131,-172.5"/>
</a>
</g>
</g>
<!-- Node1&#45;&gt;Node6 -->
<g id="edge7_Node000006_Node000001" class="edge">
<title>Node1&#45;&gt;Node6</title>
<g id="a_edge7_Node000006_Node000001"><a xlink:title=" ">
<path fill="none" stroke="#63b8ff" d="M121.28,-250.72C135.29,-236.71 156.65,-215.35 171.63,-200.37"/>
<polygon fill="none" stroke="#63b8ff" points="171.92,-200.08 173.34,-193.01 180.41,-191.59 178.99,-198.66 171.92,-200.08"/>
</a>
</g>
<text text-anchor="start" x="158.5" y="-221.5" font-family="Helvetica,sans-Serif" font-size="10.00" fill="grey">&#45;broker</text>
</g>
<!-- Node2 -->
<g id="Node000002" class="node">
<title>Node2</title>
<g id="a_Node000002"><a xlink:href="classmqtt_1_1bridge_1_1lib_1_1Bridge.html" target="_top" xlink:title=" ">
<polygon fill="white" stroke="transparent" points="150,-30 56,-30 56,0 150,0 150,-30"/>
<text text-anchor="start" x="60.5" y="-18" font-family="Helvetica,sans-Serif" font-size="10.00">mqtt::bridge::lib::</text>
<text text-anchor="start" x="87" y="-7" font-family="Helvetica,sans-Serif" font-size="10.00">Bridge</text>
<polygon fill="none" stroke="#666666" points="56,0 56,-30 150,-30 150,0 56,0"/>
</a>
</g>
</g>
<!-- Node2&#45;&gt;Node1 -->
<g id="edge1_Node000001_Node000002" class="edge">
<title>Node2&#45;&gt;Node1</title>
<g id="a_edge1_Node000001_Node000002"><a xlink:title=" ">
<path fill="none" stroke="#63b8ff" d="M103.23,-30.25C103.88,-70.67 105.74,-186.45 106.58,-238.77"/>
<polygon fill="none" stroke="#63b8ff" points="106.58,-238.9 110.68,-244.84 106.77,-250.9 102.68,-244.96 106.58,-238.9"/>
</a>
</g>
<text text-anchor="start" x="108.5" y="-136.5" font-family="Helvetica,sans-Serif" font-size="10.00" fill="grey">&#45;bridge</text>
</g>
<!-- Node3 -->
<g id="Node000003" class="node">
<title>Node3</title>
<g id="a_Node000003"><a xlink:title=" ">
<polygon fill="white" stroke="transparent" points="77,-523.5 19,-523.5 19,-504.5 77,-504.5 77,-523.5"/>
<text text-anchor="start" x="23.5" y="-511" font-family="Helvetica,sans-Serif" font-size="10.00">std::string</text>
<polygon fill="none" stroke="#666666" points="19,-504.5 19,-523.5 77,-523.5 77,-504.5 19,-504.5"/>
</a>
</g>
</g>
<!-- Node3&#45;&gt;Node1 -->
<g id="edge8_Node000001_Node000003" class="edge">
<title>Node3&#45;&gt;Node1</title>
<g id="a_edge8_Node000001_Node000003"><a xlink:title=" ">
<path fill="none" stroke="#63b8ff" d="M47.82,-504.13C47.22,-468.39 46.39,-335.23 66,-299 67.89,-295.51 70.34,-292.27 73.11,-289.3"/>
<polygon fill="none" stroke="#63b8ff" points="73.16,-289.25 74.95,-282.26 82.09,-281.23 80.3,-288.21 73.16,-289.25"/>
</a>
</g>
<text text-anchor="start" x="69.5" y="-470" font-family="Helvetica,sans-Serif" font-size="10.00" fill="grey">&#45;clientId</text>
<text text-anchor="start" x="69.5" y="-455" font-family="Helvetica,sans-Serif" font-size="10.00" fill="grey">&#45;encryption</text>
<text text-anchor="start" x="69.5" y="-440" font-family="Helvetica,sans-Serif" font-size="10.00" fill="grey">&#45;instanceName</text>
<text text-anchor="start" x="69.5" y="-425" font-family="Helvetica,sans-Serif" font-size="10.00" fill="grey">&#45;password</text>
<text text-anchor="start" x="69.5" y="-410" font-family="Helvetica,sans-Serif" font-size="10.00" fill="grey">&#45;prefix</text>
<text text-anchor="start" x="69.5" y="-395" font-family="Helvetica,sans-Serif" font-size="10.00" fill="grey">&#45;protocol</text>
<text text-anchor="start" x="69.5" y="-380" font-family="Helvetica,sans-Serif" font-size="10.00" fill="grey">&#45;sessionStoreFile</text>
<text text-anchor="start" x="69.5" y="-365" font-family="Helvetica,sans-Serif" font-size="10.00" fill="grey">  Name</text>
<text text-anchor="start" x="69.5" y="-350" font-family="Helvetica,sans-Serif" font-size="10.00" fill="grey">&#45;transport</text>
<text text-anchor="start" x="69.5" y="-335" font-family="Helvetica,sans-Serif" font-size="10.00" fill="grey">&#45;username</text>
<text text-anchor="start" x="69.5" y="-320" font-family="Helvetica,sans-Serif" font-size="10.00" fill="grey">&#45;willMessage</text>
<text text-anchor="start" x="69.5" y="-305" font-family="Helvetica,sans-Serif" font-size="10.00" fill="grey"> &#160;...</text>
</g>
<!-- Node3&#45;&gt;Node2 -->
<g id="edge2_Node000002_Node000003" class="edge">
<title>Node3&#45;&gt;Node2</title>
<g id="a_edge2_Node000002_Node000003"><a xlink:title=" ">
<path fill="none" stroke="#63b8ff" d="M47,-504.08C43.5,-472.05 32,-359.87 32,-267 32,-267 32,-267 32,-97 32,-72.27 50.94,-51.48 69.26,-37.15"/>
<polygon fill="none" stroke="#63b8ff" points="69.27,-37.14 71.76,-30.38 78.96,-30.07 76.48,-36.84 69.27,-37.14"/>
</a>
</g>
<text text-anchor="start" x="35.5" y="-187" font-family="Helvetica,sans-Serif" font-size="10.00" fill="grey">&#45;name</text>
<text text-anchor="start" x="35.5" y="-172" font-family="Helvetica,sans-Serif" font-size="10.00" fill="grey">&#45;prefix</text>
</g>
<!-- Node4 -->
<g id="Node000004" class="node">
<title>Node4</title>
<g id="a_Node000004"><a xlink:title=" ">
<polygon fill="white" stroke="transparent" points="96,-596 0,-596 0,-566 96,-566 96,-596"/>
<text text-anchor="start" x="4" y="-584" font-family="Helvetica,sans-Serif" font-size="10.00">std::basic_string&lt;</text>
<text text-anchor="start" x="29.5" y="-573" font-family="Helvetica,sans-Serif" font-size="10.00"> Char &gt;</text>
<polygon fill="none" stroke="#666666" points="0,-566 0,-596 96,-596 96,-566 0,-566"/>
</a>
</g>
</g>
<!-- Node4&#45;&gt;Node3 -->
<g id="edge3_Node000003_Node000004" class="edge">
<title>Node4&#45;&gt;Node3</title>
<g id="a_edge3_Node000003_Node000004"><a xlink:title=" ">
<path fill="none" stroke="#63b8ff" d="M48,-555.75C48,-544.52 48,-531.88 48,-523.69"/>
<polygon fill="none" stroke="#63b8ff" points="44.5,-555.9 48,-565.9 51.5,-555.9 44.5,-555.9"/>
</a>
</g>
</g>
<!-- Node5 -->
<g id="Node000005" class="node">
<title>Node5</title>
<g id="a_Node000005"><a xlink:title=" ">
<polygon fill="white" stroke="transparent" points="244,-113 132,-113 132,-83 244,-83 244,-113"/>
<text text-anchor="start" x="136.5" y="-101" font-family="Helvetica,sans-Serif" font-size="10.00">std::list&lt; const mqtt</text>
<text text-anchor="start" x="136.5" y="-90" font-family="Helvetica,sans-Serif" font-size="10.00">::bridge::lib::Mqtt * &gt;</text>
<polygon fill="none" stroke="#666666" points="132,-83 132,-113 244,-113 244,-83 132,-83"/>
</a>
</g>
</g>
<!-- Node5&#45;&gt;Node2 -->
<g id="edge4_Node000002_Node000005" class="edge">
<title>Node5&#45;&gt;Node2</title>
<g id="a_edge4_Node000002_Node000005"><a xlink:title=" ">
<path fill="none" stroke="#63b8ff" d="M173.19,-82.89C160.35,-70.65 141.54,-52.72 126.62,-38.51"/>
<polygon fill="none" stroke="#63b8ff" points="126.61,-38.5 119.51,-37.25 117.92,-30.22 125.02,-31.46 126.61,-38.5"/>
</a>
</g>
<text text-anchor="start" x="156.5" y="-53.5" font-family="Helvetica,sans-Serif" font-size="10.00" fill="grey">&#45;mqttList</text>
</g>
<!-- Node6&#45;&gt;Node5 -->
<g id="edge5_Node000005_Node000006" class="edge">
<title>Node6&#45;&gt;Node5</title>
<g id="a_edge5_Node000005_Node000006"><a xlink:title=" ">
<path fill="none" stroke="#63b8ff" d="M188.89,-172.22C188.76,-161.19 188.52,-141.73 188.32,-125.64"/>
<polygon fill="none" stroke="#63b8ff" points="188.32,-125.18 184.25,-119.23 188.17,-113.18 192.25,-119.13 188.32,-125.18"/>
</a>
</g>
<text text-anchor="start" x="191.5" y="-136.5" font-family="Helvetica,sans-Serif" font-size="10.00" fill="grey">+elements</text>
</g>
<!-- Node7 -->
<g id="Node000007" class="node">
<title>Node7</title>
<g id="a_Node000007"><a xlink:title=" ">
<polygon fill="white" stroke="transparent" points="284,-275.5 172,-275.5 172,-256.5 284,-256.5 284,-275.5"/>
<text text-anchor="start" x="176" y="-263" font-family="Helvetica,sans-Serif" font-size="10.00">iot::mqtt::client::Mqtt</text>
<polygon fill="none" stroke="#666666" points="172,-256.5 172,-275.5 284,-275.5 284,-256.5 172,-256.5"/>
</a>
</g>
</g>
<!-- Node7&#45;&gt;Node6 -->
<g id="edge6_Node000006_Node000007" class="edge">
<title>Node7&#45;&gt;Node6</title>
<g id="a_edge6_Node000006_Node000007"><a xlink:title=" ">
<path fill="none" stroke="#63b8ff" d="M219.31,-246.74C211.17,-229.61 199.34,-204.74 193.14,-191.71"/>
<polygon fill="none" stroke="#63b8ff" points="216.37,-248.7 223.83,-256.22 222.69,-245.69 216.37,-248.7"/>
</a>
</g>
</g>
<!-- Node8 -->
<g id="Node000008" class="node">
<title>Node8</title>
<g id="a_Node000008"><a xlink:title=" ">
<polygon fill="white" stroke="transparent" points="226,-529 128,-529 128,-499 226,-499 226,-529"/>
<text text-anchor="start" x="132" y="-517" font-family="Helvetica,sans-Serif" font-size="10.00">std::list&lt; iot::mqtt</text>
<text text-anchor="start" x="155.5" y="-506" font-family="Helvetica,sans-Serif" font-size="10.00">::Topic &gt;</text>
<polygon fill="none" stroke="#666666" points="128,-499 128,-529 226,-529 226,-499 128,-499"/>
</a>
</g>
</g>
<!-- Node8&#45;&gt;Node1 -->
<g id="edge9_Node000001_Node000008" class="edge">
<title>Node8&#45;&gt;Node1</title>
<g id="a_edge9_Node000001_Node000008"><a xlink:title=" ">
<path fill="none" stroke="#63b8ff" d="M179.4,-498.98C184.81,-462.83 194.63,-364.73 155,-299 152.76,-295.29 149.9,-291.91 146.7,-288.87"/>
<polygon fill="none" stroke="#63b8ff" points="146.4,-288.63 139.22,-288.03 137,-281.17 144.19,-281.77 146.4,-288.63"/>
</a>
</g>
<text text-anchor="start" x="187" y="-387" font-family="Helvetica,sans-Serif" font-size="10.00" fill="grey">&#45;topics</text>
</g>
</g>
</svg>

<g id="navigator" transform="translate(0 0)" fill="#404254">
  <rect fill="#f2f5e9" fill-opacity="0.5" stroke="#606060" stroke-width=".5" x="0" y="0" width="60" height="60"/>
  <use id="zoomplus" xlink:href="#zoomPlus" x="17" y="9" onmousedown="handleZoom(evt,'in')"/>
  <use id="zoomminus" xlink:href="#zoomMin" x="42" y="9" onmousedown="handleZoom(evt,'out')"/>
  <use id="reset" xlink:href="#resetDef" x="30" y="36" onmousedown="handleReset()"/>
   <use id="arrowup" xlink:href="#arrowUp" x="0" y="0" onmousedown="handlePan(0,-1)"/>
  <use id="arrowright" xlink:href="#arrowRight" x="0" y="0" onmousedown="handlePan(1,0)"/>
  <use id="arrowdown" xlink:href="#arrowDown" x="0" y="0" onmousedown="handlePan(0,1)"/>
  <use id="arrowleft" xlink:href="#arrowLeft" x="0" y="0" onmousedown="handlePan(-1,0)"/>
</g>
<svg viewBox="0 0 15 15" width="100%" height="30px" preserveAspectRatio="xMaxYMin meet">
 <g id="arrow_out" transform="scale(0.3 0.3)">
  <a xlink:href="classmqtt_1_1bridge_1_1lib_1_1Broker__coll__graph_org.svg" target="_base">
   <rect id="button" ry="5" rx="5" y="6" x="6" height="38" width="38"
        fill="#f2f5e9" fill-opacity="0.5" stroke="#606060" stroke-width="1.0"/>
   <path id="arrow"
     d="M 11.500037,31.436501 C 11.940474,20.09759 22.043105,11.32322 32.158766,21.979434 L 37.068811,17.246167 C 37.068811,17.246167 37.088388,32 37.088388,32 L 22.160133,31.978069 C 22.160133,31.978069 26.997745,27.140456 26.997745,27.140456 C 18.528582,18.264221 13.291696,25.230495 11.500037,31.436501 z"
     style="fill:#404040;"/>
  </a>
 </g>
</svg>

<style type='text/css'>
<![CDATA[
[data-mouse-over-selected='false'] { opacity: 0.7; }
[data-mouse-over-selected='true']  { opacity: 1.0; }
]]>
</style>
<script type="application/ecmascript"><![CDATA[
document.addEventListener('DOMContentLoaded', (event) => {
  highlightEdges();
  highlightAdjacentNodes();
});
]]></script>
</svg>
