<?xml version="1.0" encoding="UTF-8" standalone="no"?>
<!DOCTYPE svg PUBLIC "-//W3C//DTD SVG 1.1//EN"
 "http://www.w3.org/Graphics/SVG/1.1/DTD/svg11.dtd">
<!-- Generated by graphviz version 2.42.4 (0)
 -->
<!-- Title: anonymous_namespace{json&#45;validator::cpp}::object::object Pages: 1 -->
<!--zoomable 464 -->

<svg id="main" version="1.1" xmlns="http://www.w3.org/2000/svg" xmlns:xlink="http://www.w3.org/1999/xlink" xml:space="preserve" onload="init(evt)">
<style type="text/css"><![CDATA[
.node, .edge {opacity: 0.7;}
.node.selected, .edge.selected {opacity: 1;}
.edge:hover path { stroke: red; }
.edge:hover polygon { stroke: red; fill: red; }
]]></style>

<defs>
  <circle id="rim" cx="0" cy="0" r="7"/>
  <circle id="rim2" cx="0" cy="0" r="3.5"/>
  <g id="zoomPlus">
    <use xlink:href="#rim" fill="#404040"><set attributeName="fill" to="#808080" begin="zoomplus.mouseover" end="zoomplus.mouseout"/></use>
    <path d="M-4,0h8M0,-4v8" fill="none" stroke="white" stroke-width="1.5" pointer-events="none"/>
  </g>
  <g id="zoomMin">
    <use xlink:href="#rim" fill="#404040"><set attributeName="fill" to="#808080" begin="zoomminus.mouseover" end="zoomminus.mouseout"/></use>
    <path d="M-4,0h8" fill="none" stroke="white" stroke-width="1.5" pointer-events="none"/>
  </g>
  <g id="arrowUp" transform="translate(30 24)">
    <use xlink:href="#rim"/>
    <path pointer-events="none" fill="none" stroke="white" stroke-width="1.5" d="M0,-3.0v7 M-2.5,-0.5L0,-3.0L2.5,-0.5"/>
  </g>
  <g id="arrowRight" transform="rotate(90) translate(36 -43)">
    <use xlink:href="#rim"/>
    <path pointer-events="none" fill="none" stroke="white" stroke-width="1.5" d="M0,-3.0v7 M-2.5,-0.5L0,-3.0L2.5,-0.5"/>
  </g>
  <g id="arrowDown" transform="rotate(180) translate(-30 -48)">
    <use xlink:href="#rim"/>
    <path pointer-events="none" fill="none" stroke="white" stroke-width="1.5" d="M0,-3.0v7 M-2.5,-0.5L0,-3.0L2.5,-0.5"/>
  </g>
  <g id="arrowLeft" transform="rotate(270) translate(-36 17)">
    <use xlink:href="#rim"/>
    <path pointer-events="none" fill="none" stroke="white" stroke-width="1.5" d="M0,-3.0v7 M-2.5,-0.5L0,-3.0L2.5,-0.5"/>
  </g>
  <g id="resetDef">
    <use xlink:href="#rim2" fill="#404040"><set attributeName="fill" to="#808080" begin="reset.mouseover" end="reset.mouseout"/></use>
  </g>
</defs>
<script type="application/ecmascript">
var viewWidth = 844;
var viewHeight = 464;
var sectionId = 'dynsection-2';
</script>
<script type="application/ecmascript" xlink:href="svg.min.js"/>
<svg id="graph" class="graph">
<g id="viewport">
<title>anonymous_namespace{json&#45;validator::cpp}::object::object</title>
<!-- Node1 -->
<g id="Node000001" class="node">
<title>Node1</title>
<g id="a_Node000001"><a xlink:title=" ">
<polygon fill="#999999" stroke="#666666" points="135,-224.5 0,-224.5 0,-183.5 135,-183.5 135,-224.5"/>
<text text-anchor="start" x="8" y="-212.5" font-family="Helvetica,sans-Serif" font-size="10.00">anonymous_namespace</text>
<text text-anchor="start" x="8" y="-201.5" font-family="Helvetica,sans-Serif" font-size="10.00">{json&#45;validator::cpp}</text>
<text text-anchor="middle" x="67.5" y="-190.5" font-family="Helvetica,sans-Serif" font-size="10.00">::object::object</text>
</a>
</g>
</g>
<!-- Node2 -->
<g id="Node000002" class="node">
<title>Node2</title>
<g id="a_Node000002"><a xlink:href="classanonymous__namespace_02json-validator_8cpp_03_1_1schema.html#aafee860997369c77204d5b1a7d095c3f" target="_top" xlink:title=" ">
<polygon fill="white" stroke="#666666" points="315.5,-283.5 180.5,-283.5 180.5,-242.5 315.5,-242.5 315.5,-283.5"/>
<text text-anchor="start" x="188.5" y="-271.5" font-family="Helvetica,sans-Serif" font-size="10.00">anonymous_namespace</text>
<text text-anchor="start" x="188.5" y="-260.5" font-family="Helvetica,sans-Serif" font-size="10.00">{json&#45;validator::cpp}</text>
<text text-anchor="middle" x="248" y="-249.5" font-family="Helvetica,sans-Serif" font-size="10.00">::schema::make</text>
</a>
</g>
</g>
<!-- Node1&#45;&gt;Node2 -->
<g id="edge1_Node000001_Node000002" class="edge">
<title>Node1&#45;&gt;Node2</title>
<g id="a_edge1_Node000001_Node000002"><a xlink:title=" ">
<path fill="none" stroke="#63b8ff" d="M130.68,-224.55C145.04,-229.3 160.44,-234.39 175.17,-239.26"/>
<polygon fill="#63b8ff" stroke="#63b8ff" points="174.15,-242.61 184.74,-242.42 176.34,-235.96 174.15,-242.61"/>
</a>
</g>
</g>
<!-- Node16 -->
<g id="Node000016" class="node">
<title>Node16</title>
<g id="a_Node000016"><a xlink:href="classanonymous__namespace_02json-validator_8cpp_03_1_1schema.html#ac4014ccd3e19d2c94ff6cb782b9b6ece" target="_top" xlink:title=" ">
<polygon fill="white" stroke="#666666" points="315.5,-224.5 180.5,-224.5 180.5,-183.5 315.5,-183.5 315.5,-224.5"/>
<text text-anchor="start" x="188.5" y="-212.5" font-family="Helvetica,sans-Serif" font-size="10.00">anonymous_namespace</text>
<text text-anchor="start" x="188.5" y="-201.5" font-family="Helvetica,sans-Serif" font-size="10.00">{json&#45;validator::cpp}</text>
<text text-anchor="middle" x="248" y="-190.5" font-family="Helvetica,sans-Serif" font-size="10.00">::schema::schema</text>
</a>
</g>
</g>
<!-- Node1&#45;&gt;Node16 -->
<g id="edge29_Node000001_Node000016" class="edge">
<title>Node1&#45;&gt;Node16</title>
<g id="a_edge29_Node000001_Node000016"><a xlink:title=" ">
<path fill="none" stroke="#63b8ff" d="M135.22,-204C146.63,-204 158.57,-204 170.22,-204"/>
<polygon fill="#63b8ff" stroke="#63b8ff" points="170.36,-207.5 180.36,-204 170.36,-200.5 170.36,-207.5"/>
</a>
</g>
</g>
<!-- Node17 -->
<g id="Node000017" class="node">
<title>Node17</title>
<g id="a_Node000017"><a xlink:href="classanonymous__namespace_02json-validator_8cpp_03_1_1schema.html#a4beb8a228836d4dc47e4fb888be0f31b" target="_top" xlink:title=" ">
<polygon fill="white" stroke="#666666" points="325,-165.5 171,-165.5 171,-124.5 325,-124.5 325,-165.5"/>
<text text-anchor="start" x="179" y="-153.5" font-family="Helvetica,sans-Serif" font-size="10.00">anonymous_namespace</text>
<text text-anchor="start" x="179" y="-142.5" font-family="Helvetica,sans-Serif" font-size="10.00">{json&#45;validator::cpp}</text>
<text text-anchor="middle" x="248" y="-131.5" font-family="Helvetica,sans-Serif" font-size="10.00">::schema::set_default_value</text>
</a>
</g>
</g>
<!-- Node1&#45;&gt;Node17 -->
<g id="edge30_Node000001_Node000017" class="edge">
<title>Node1&#45;&gt;Node17</title>
<g id="a_edge30_Node000001_Node000017"><a xlink:title=" ">
<path fill="none" stroke="#63b8ff" d="M130.68,-183.45C145.04,-178.7 160.44,-173.61 175.17,-168.74"/>
<polygon fill="#63b8ff" stroke="#63b8ff" points="176.34,-172.04 184.74,-165.58 174.15,-165.39 176.34,-172.04"/>
</a>
</g>
</g>
<!-- Node2&#45;&gt;Node2 -->
<g id="edge26_Node000002_Node000002" class="edge">
<title>Node2&#45;&gt;Node2</title>
<g id="a_edge26_Node000002_Node000002"><a xlink:title=" ">
<path fill="none" stroke="#63b8ff" d="M214.92,-283.6C211.31,-293.15 222.34,-301.5 248,-301.5 264.04,-301.5 274.36,-298.24 278.97,-293.46"/>
<polygon fill="#63b8ff" stroke="#63b8ff" points="282.41,-294.11 281.08,-283.6 275.56,-292.64 282.41,-294.11"/>
</a>
</g>
</g>
<!-- Node3 -->
<g id="Node000003" class="node">
<title>Node3</title>
<g id="a_Node000003"><a xlink:href="classnlohmann_1_1json__uri.html#acef9db8f1ac5317e1f124453d9587938" target="_top" xlink:title=" ">
<polygon fill="white" stroke="#666666" points="677.5,-456 567.5,-456 567.5,-426 677.5,-426 677.5,-456"/>
<text text-anchor="start" x="575.5" y="-444" font-family="Helvetica,sans-Serif" font-size="10.00">nlohmann::json_uri</text>
<text text-anchor="middle" x="622.5" y="-433" font-family="Helvetica,sans-Serif" font-size="10.00">::append</text>
</a>
</g>
</g>
<!-- Node2&#45;&gt;Node3 -->
<g id="edge2_Node000002_Node000003" class="edge">
<title>Node2&#45;&gt;Node3</title>
<g id="a_edge2_Node000002_Node000003"><a xlink:title=" ">
<path fill="none" stroke="#63b8ff" d="M261.74,-283.65C280.08,-311.52 316.64,-360.59 361,-386 421.89,-420.87 502.16,-433.73 557.42,-438.41"/>
<polygon fill="#63b8ff" stroke="#63b8ff" points="557.2,-441.91 567.44,-439.2 557.74,-434.93 557.2,-441.91"/>
</a>
</g>
</g>
<!-- Node4 -->
<g id="Node000004" class="node">
<title>Node4</title>
<g id="a_Node000004"><a xlink:href="classnlohmann_1_1json__uri.html#ab601a9e32d487e9484f12c57ec1befc1" target="_top" xlink:title=" ">
<polygon fill="white" stroke="#666666" points="495,-138 385,-138 385,-108 495,-108 495,-138"/>
<text text-anchor="start" x="393" y="-126" font-family="Helvetica,sans-Serif" font-size="10.00">nlohmann::json_uri</text>
<text text-anchor="middle" x="440" y="-115" font-family="Helvetica,sans-Serif" font-size="10.00">::derive</text>
</a>
</g>
</g>
<!-- Node2&#45;&gt;Node4 -->
<g id="edge3_Node000002_Node000004" class="edge">
<title>Node2&#45;&gt;Node4</title>
<g id="a_edge3_Node000002_Node000004"><a xlink:title=" ">
<path fill="none" stroke="#63b8ff" d="M314.22,-242.4C318.08,-239.91 321.73,-237.12 325,-234 353.83,-206.56 332.06,-179.32 361,-152 365.37,-147.87 370.39,-144.32 375.72,-141.26"/>
<polygon fill="#63b8ff" stroke="#63b8ff" points="377.61,-144.23 384.94,-136.58 374.44,-137.99 377.61,-144.23"/>
</a>
</g>
</g>
<!-- Node6 -->
<g id="Node000006" class="node">
<title>Node6</title>
<g id="a_Node000006"><a xlink:href="classnlohmann_1_1json__schema_1_1root__schema.html#a7e890c03f941280b76fbdb4d5bb73065" target="_top" xlink:title=" ">
<polygon fill="white" stroke="#666666" points="507.5,-283.5 372.5,-283.5 372.5,-242.5 507.5,-242.5 507.5,-283.5"/>
<text text-anchor="start" x="380.5" y="-271.5" font-family="Helvetica,sans-Serif" font-size="10.00">nlohmann::json_schema</text>
<text text-anchor="start" x="380.5" y="-260.5" font-family="Helvetica,sans-Serif" font-size="10.00">::root_schema::get_or</text>
<text text-anchor="middle" x="440" y="-249.5" font-family="Helvetica,sans-Serif" font-size="10.00">_create_ref</text>
</a>
</g>
</g>
<!-- Node2&#45;&gt;Node6 -->
<g id="edge5_Node000002_Node000006" class="edge">
<title>Node2&#45;&gt;Node6</title>
<g id="a_edge5_Node000002_Node000006"><a xlink:title=" ">
<path fill="none" stroke="#63b8ff" d="M315.72,-256.52C330.81,-256.22 346.94,-256.17 362.4,-256.36"/>
<polygon fill="#63b8ff" stroke="#63b8ff" points="362.39,-259.86 372.44,-256.53 362.5,-252.86 362.39,-259.86"/>
</a>
</g>
</g>
<!-- Node11 -->
<g id="Node000011" class="node">
<title>Node11</title>
<g id="a_Node000011"><a xlink:href="classnlohmann_1_1json__uri.html#a416eb06b53676b215761f43200da309f" target="_top" xlink:title=" ">
<polygon fill="white" stroke="#666666" points="677.5,-116 567.5,-116 567.5,-86 677.5,-86 677.5,-116"/>
<text text-anchor="start" x="575.5" y="-104" font-family="Helvetica,sans-Serif" font-size="10.00">nlohmann::json_uri</text>
<text text-anchor="middle" x="622.5" y="-93" font-family="Helvetica,sans-Serif" font-size="10.00">::to_string</text>
</a>
</g>
</g>
<!-- Node2&#45;&gt;Node11 -->
<g id="edge28_Node000002_Node000011" class="edge">
<title>Node2&#45;&gt;Node11</title>
<g id="a_edge28_Node000002_Node000011"><a xlink:title=" ">
<path fill="none" stroke="#63b8ff" d="M311.95,-242.38C316.55,-239.87 320.96,-237.08 325,-234 346.5,-217.63 338.49,-199.96 361,-185 421.15,-145.02 451.98,-173.93 519,-147 536.19,-140.09 538.27,-133.95 555,-126 559.37,-123.92 563.95,-121.9 568.59,-119.96"/>
<polygon fill="#63b8ff" stroke="#63b8ff" points="570.17,-123.09 578.13,-116.1 567.55,-116.6 570.17,-123.09"/>
</a>
</g>
</g>
<!-- Node12 -->
<g id="Node000012" class="node">
<title>Node12</title>
<g id="a_Node000012"><a xlink:href="classnlohmann_1_1json__schema_1_1root__schema.html#a685904131f0693e56f14a9e9db5f044e" target="_top" xlink:title=" ">
<polygon fill="white" stroke="#666666" points="507.5,-224 372.5,-224 372.5,-194 507.5,-194 507.5,-224"/>
<text text-anchor="start" x="380.5" y="-212" font-family="Helvetica,sans-Serif" font-size="10.00">nlohmann::json_schema</text>
<text text-anchor="middle" x="440" y="-201" font-family="Helvetica,sans-Serif" font-size="10.00">::root_schema::insert</text>
</a>
</g>
</g>
<!-- Node2&#45;&gt;Node12 -->
<g id="edge13_Node000002_Node000012" class="edge">
<title>Node2&#45;&gt;Node12</title>
<g id="a_edge13_Node000002_Node000012"><a xlink:title=" ">
<path fill="none" stroke="#63b8ff" d="M315.72,-244.04C335.48,-238.42 357.03,-232.3 376.51,-226.76"/>
<polygon fill="#63b8ff" stroke="#63b8ff" points="377.53,-230.11 386.19,-224.01 375.61,-223.38 377.53,-230.11"/>
</a>
</g>
</g>
<!-- Node14 -->
<g id="Node000014" class="node">
<title>Node14</title>
<g id="a_Node000014"><a xlink:href="classnlohmann_1_1json__schema_1_1root__schema.html#a4c543fe7b89e76b3fdd17a6883696238" target="_top" xlink:title=" ">
<polygon fill="white" stroke="#666666" points="507.5,-358.5 372.5,-358.5 372.5,-317.5 507.5,-317.5 507.5,-358.5"/>
<text text-anchor="start" x="380.5" y="-346.5" font-family="Helvetica,sans-Serif" font-size="10.00">nlohmann::json_schema</text>
<text text-anchor="start" x="380.5" y="-335.5" font-family="Helvetica,sans-Serif" font-size="10.00">::root_schema::insert</text>
<text text-anchor="middle" x="440" y="-324.5" font-family="Helvetica,sans-Serif" font-size="10.00">_unknown_keyword</text>
</a>
</g>
</g>
<!-- Node2&#45;&gt;Node14 -->
<g id="edge19_Node000002_Node000014" class="edge">
<title>Node2&#45;&gt;Node14</title>
<g id="a_edge19_Node000002_Node000014"><a xlink:title=" ">
<path fill="none" stroke="#63b8ff" d="M315.72,-282.86C340.81,-292.27 368.8,-303.5 391.76,-313.43"/>
<polygon fill="#63b8ff" stroke="#63b8ff" points="390.38,-316.64 400.94,-317.45 393.19,-310.23 390.38,-316.64"/>
</a>
</g>
</g>
<!-- Node15 -->
<g id="Node000015" class="node">
<title>Node15</title>
<g id="a_Node000015"><a xlink:href="classanonymous__namespace_02json-validator_8cpp_03_1_1schema.html#a6ba2d224dd0a4372ac03f679de8316bd" target="_top" xlink:title=" ">
<polygon fill="white" stroke="#666666" points="519,-89.5 361,-89.5 361,-48.5 519,-48.5 519,-89.5"/>
<text text-anchor="start" x="369" y="-77.5" font-family="Helvetica,sans-Serif" font-size="10.00">anonymous_namespace</text>
<text text-anchor="start" x="369" y="-66.5" font-family="Helvetica,sans-Serif" font-size="10.00">{json&#45;validator::cpp}</text>
<text text-anchor="middle" x="440" y="-55.5" font-family="Helvetica,sans-Serif" font-size="10.00">::schema::make_for_default_</text>
</a>
</g>
</g>
<!-- Node2&#45;&gt;Node15 -->
<g id="edge27_Node000002_Node000015" class="edge">
<title>Node2&#45;&gt;Node15</title>
<g id="a_edge27_Node000002_Node000015"><a xlink:title=" ">
<path fill="none" stroke="#63b8ff" d="M315.48,-242.46C318.95,-239.96 322.16,-237.15 325,-234 366.57,-187.87 319.49,-145.19 361,-99 361.9,-98 362.84,-97.03 363.81,-96.09"/>
<polygon fill="#63b8ff" stroke="#63b8ff" points="366.31,-98.57 371.84,-89.53 361.88,-93.15 366.31,-98.57"/>
</a>
</g>
</g>
<!-- Node5 -->
<g id="Node000005" class="node">
<title>Node5</title>
<g id="a_Node000005"><a xlink:href="classnlohmann_1_1json__uri.html#a6a73807e46532b22e02ae6602cdedcdc" target="_top" xlink:title=" ">
<polygon fill="white" stroke="#666666" points="677.5,-30 567.5,-30 567.5,0 677.5,0 677.5,-30"/>
<text text-anchor="start" x="575.5" y="-18" font-family="Helvetica,sans-Serif" font-size="10.00">nlohmann::json_uri</text>
<text text-anchor="middle" x="622.5" y="-7" font-family="Helvetica,sans-Serif" font-size="10.00">::update</text>
</a>
</g>
</g>
<!-- Node4&#45;&gt;Node5 -->
<g id="edge4_Node000004_Node000005" class="edge">
<title>Node4&#45;&gt;Node5</title>
<g id="a_edge4_Node000004_Node000005"><a xlink:title=" ">
<path fill="none" stroke="#63b8ff" d="M495.4,-111.64C503.78,-108.41 511.98,-104.28 519,-99 542.35,-81.44 532.68,-62.85 555,-44 558.99,-40.63 563.43,-37.6 568.07,-34.87"/>
<polygon fill="#63b8ff" stroke="#63b8ff" points="570,-37.81 577.17,-30.01 566.7,-31.63 570,-37.81"/>
</a>
</g>
</g>
<!-- Node6&#45;&gt;Node2 -->
<g id="edge9_Node000006_Node000002" class="edge">
<title>Node6&#45;&gt;Node2</title>
<g id="a_edge9_Node000006_Node000002"><a xlink:title=" ">
<path fill="none" stroke="#63b8ff" d="M372.44,-269.47C357.36,-269.78 341.23,-269.83 325.77,-269.64"/>
<polygon fill="#63b8ff" stroke="#63b8ff" points="325.77,-266.14 315.72,-269.48 325.66,-273.14 325.77,-266.14"/>
</a>
</g>
</g>
<!-- Node7 -->
<g id="Node000007" class="node">
<title>Node7</title>
<g id="a_Node000007"><a xlink:href="classnlohmann_1_1json__uri.html#a21ba5d6a76804eabd867a2d03370c945" target="_top" xlink:title=" ">
<polygon fill="white" stroke="#666666" points="677.5,-224 567.5,-224 567.5,-194 677.5,-194 677.5,-224"/>
<text text-anchor="start" x="575.5" y="-212" font-family="Helvetica,sans-Serif" font-size="10.00">nlohmann::json_uri</text>
<text text-anchor="middle" x="622.5" y="-201" font-family="Helvetica,sans-Serif" font-size="10.00">::fragment</text>
</a>
</g>
</g>
<!-- Node6&#45;&gt;Node7 -->
<g id="edge6_Node000006_Node000007" class="edge">
<title>Node6&#45;&gt;Node7</title>
<g id="a_edge6_Node000006_Node000007"><a xlink:title=" ">
<path fill="none" stroke="#63b8ff" d="M507.7,-243.05C525.24,-237.8 544.07,-232.17 561.25,-227.02"/>
<polygon fill="#63b8ff" stroke="#63b8ff" points="562.58,-230.28 571.16,-224.06 560.57,-223.57 562.58,-230.28"/>
</a>
</g>
</g>
<!-- Node8 -->
<g id="Node000008" class="node">
<title>Node8</title>
<g id="a_Node000008"><a xlink:href="classnlohmann_1_1json__schema_1_1root__schema.html#a4e3471b8e7c245a72c469b7695d2d327" target="_top" xlink:title=" ">
<polygon fill="white" stroke="#666666" points="690,-283.5 555,-283.5 555,-242.5 690,-242.5 690,-283.5"/>
<text text-anchor="start" x="563" y="-271.5" font-family="Helvetica,sans-Serif" font-size="10.00">nlohmann::json_schema</text>
<text text-anchor="start" x="563" y="-260.5" font-family="Helvetica,sans-Serif" font-size="10.00">::root_schema::get_or</text>
<text text-anchor="middle" x="622.5" y="-249.5" font-family="Helvetica,sans-Serif" font-size="10.00">_create_file</text>
</a>
</g>
</g>
<!-- Node6&#45;&gt;Node8 -->
<g id="edge7_Node000006_Node000008" class="edge">
<title>Node6&#45;&gt;Node8</title>
<g id="a_edge7_Node000006_Node000008"><a xlink:title=" ">
<path fill="none" stroke="#63b8ff" d="M507.7,-263C519.7,-263 532.3,-263 544.57,-263"/>
<polygon fill="#63b8ff" stroke="#63b8ff" points="544.77,-266.5 554.77,-263 544.77,-259.5 544.77,-266.5"/>
</a>
</g>
</g>
<!-- Node9 -->
<g id="Node000009" class="node">
<title>Node9</title>
<g id="a_Node000009"><a xlink:href="classnlohmann_1_1json__uri.html#a63674f908919cb2496e772e864be35de" target="_top" xlink:title=" ">
<polygon fill="white" stroke="#666666" points="836,-221 726,-221 726,-191 836,-191 836,-221"/>
<text text-anchor="start" x="734" y="-209" font-family="Helvetica,sans-Serif" font-size="10.00">nlohmann::json_uri</text>
<text text-anchor="middle" x="781" y="-198" font-family="Helvetica,sans-Serif" font-size="10.00">::location</text>
</a>
</g>
</g>
<!-- Node6&#45;&gt;Node9 -->
<g id="edge8_Node000006_Node000009" class="edge">
<title>Node6&#45;&gt;Node9</title>
<g id="a_edge8_Node000006_Node000009"><a xlink:title=" ">
<path fill="none" stroke="#63b8ff" d="M492.54,-283.51C544.29,-300.87 625.41,-319.11 690,-293 721.52,-280.26 748.13,-250.6 764.05,-229.46"/>
<polygon fill="#63b8ff" stroke="#63b8ff" points="766.96,-231.41 770.01,-221.27 761.3,-227.29 766.96,-231.41"/>
</a>
</g>
</g>
<!-- Node10 -->
<g id="Node000010" class="node">
<title>Node10</title>
<g id="a_Node000010"><a xlink:href="classnlohmann_1_1json__uri.html#ab01bdcb8bf65ee07703d1ccb69c9f3ee" target="_top" xlink:title=" ">
<polygon fill="white" stroke="#666666" points="677.5,-370 567.5,-370 567.5,-340 677.5,-340 677.5,-370"/>
<text text-anchor="start" x="575.5" y="-358" font-family="Helvetica,sans-Serif" font-size="10.00">nlohmann::json_uri</text>
<text text-anchor="middle" x="622.5" y="-347" font-family="Helvetica,sans-Serif" font-size="10.00">::pointer</text>
</a>
</g>
</g>
<!-- Node6&#45;&gt;Node10 -->
<g id="edge10_Node000006_Node000010" class="edge">
<title>Node6&#45;&gt;Node10</title>
<g id="a_edge10_Node000006_Node000010"><a xlink:title=" ">
<path fill="none" stroke="#63b8ff" d="M476.23,-283.59C498.53,-296.34 528.13,-312.75 555,-326 561.68,-329.29 568.82,-332.61 575.85,-335.77"/>
<polygon fill="#63b8ff" stroke="#63b8ff" points="574.76,-339.11 585.32,-339.96 577.59,-332.71 574.76,-339.11"/>
</a>
</g>
</g>
<!-- Node6&#45;&gt;Node11 -->
<g id="edge11_Node000006_Node000011" class="edge">
<title>Node6&#45;&gt;Node11</title>
<g id="a_edge11_Node000006_Node000011"><a xlink:title=" ">
<path fill="none" stroke="#63b8ff" d="M507.54,-242.48C511.7,-239.71 515.59,-236.56 519,-233 553.71,-196.77 520.15,-162.1 555,-126 556.41,-124.54 557.92,-123.16 559.5,-121.86"/>
<polygon fill="#63b8ff" stroke="#63b8ff" points="561.74,-124.57 567.97,-116.01 557.76,-118.81 561.74,-124.57"/>
</a>
</g>
</g>
<!-- Node11&#45;&gt;Node9 -->
<g id="edge12_Node000011_Node000009" class="edge">
<title>Node11&#45;&gt;Node9</title>
<g id="a_edge12_Node000011_Node000009"><a xlink:title=" ">
<path fill="none" stroke="#63b8ff" d="M670.32,-116.1C677.11,-119 683.88,-122.3 690,-126 716.23,-141.83 741.92,-165.76 759.1,-183.32"/>
<polygon fill="#63b8ff" stroke="#63b8ff" points="756.91,-186.1 766.36,-190.89 761.96,-181.25 756.91,-186.1"/>
</a>
</g>
</g>
<!-- Node12&#45;&gt;Node7 -->
<g id="edge14_Node000012_Node000007" class="edge">
<title>Node12&#45;&gt;Node7</title>
<g id="a_edge14_Node000012_Node000007"><a xlink:title=" ">
<path fill="none" stroke="#63b8ff" d="M507.7,-209C523.85,-209 541.07,-209 557.11,-209"/>
<polygon fill="#63b8ff" stroke="#63b8ff" points="557.45,-212.5 567.45,-209 557.45,-205.5 557.45,-212.5"/>
</a>
</g>
</g>
<!-- Node12&#45;&gt;Node8 -->
<g id="edge15_Node000012_Node000008" class="edge">
<title>Node12&#45;&gt;Node8</title>
<g id="a_edge15_Node000012_Node000008"><a xlink:title=" ">
<path fill="none" stroke="#63b8ff" d="M491.28,-224.04C507.99,-229.04 526.99,-234.73 545.22,-240.18"/>
<polygon fill="#63b8ff" stroke="#63b8ff" points="544.37,-243.58 554.95,-243.09 546.37,-236.87 544.37,-243.58"/>
</a>
</g>
</g>
<!-- Node12&#45;&gt;Node9 -->
<g id="edge16_Node000012_Node000009" class="edge">
<title>Node12&#45;&gt;Node9</title>
<g id="a_edge16_Node000012_Node000009"><a xlink:title=" ">
<path fill="none" stroke="#63b8ff" d="M465.07,-193.88C481.75,-182.51 503.64,-165.72 519,-147 541.19,-119.95 525.14,-95.22 555,-77 606.22,-45.75 636.8,-49.25 690,-77 731.98,-98.9 758.38,-150.32 771.05,-181.22"/>
<polygon fill="#63b8ff" stroke="#63b8ff" points="767.91,-182.8 774.82,-190.84 774.43,-180.25 767.91,-182.8"/>
</a>
</g>
</g>
<!-- Node12&#45;&gt;Node11 -->
<g id="edge18_Node000012_Node000011" class="edge">
<title>Node12&#45;&gt;Node11</title>
<g id="a_edge18_Node000012_Node000011"><a xlink:title=" ">
<path fill="none" stroke="#63b8ff" d="M495.39,-193.85C503.78,-190.12 511.98,-185.56 519,-180 541.62,-162.1 532.41,-143.94 555,-126 557.26,-124.2 559.67,-122.52 562.17,-120.96"/>
<polygon fill="#63b8ff" stroke="#63b8ff" points="563.95,-123.97 571,-116.06 560.56,-117.85 563.95,-123.97"/>
</a>
</g>
</g>
<!-- Node13 -->
<g id="Node000013" class="node">
<title>Node13</title>
<g id="a_Node000013"><a xlink:href="classanonymous__namespace_02json-validator_8cpp_03_1_1schema__ref.html#ae191a0c47357ebad5942fbab77135375" target="_top" xlink:title=" ">
<polygon fill="white" stroke="#666666" points="690,-175.5 555,-175.5 555,-134.5 690,-134.5 690,-175.5"/>
<text text-anchor="start" x="563" y="-163.5" font-family="Helvetica,sans-Serif" font-size="10.00">anonymous_namespace</text>
<text text-anchor="start" x="563" y="-152.5" font-family="Helvetica,sans-Serif" font-size="10.00">{json&#45;validator::cpp}</text>
<text text-anchor="middle" x="622.5" y="-141.5" font-family="Helvetica,sans-Serif" font-size="10.00">::schema_ref::set_target</text>
</a>
</g>
</g>
<!-- Node12&#45;&gt;Node13 -->
<g id="edge17_Node000012_Node000013" class="edge">
<title>Node12&#45;&gt;Node13</title>
<g id="a_edge17_Node000012_Node000013"><a xlink:title=" ">
<path fill="none" stroke="#63b8ff" d="M491.28,-193.96C507.99,-188.96 526.99,-183.27 545.22,-177.82"/>
<polygon fill="#63b8ff" stroke="#63b8ff" points="546.37,-181.13 554.95,-174.91 544.37,-174.42 546.37,-181.13"/>
</a>
</g>
</g>
<!-- Node14&#45;&gt;Node2 -->
<g id="edge24_Node000014_Node000002" class="edge">
<title>Node14&#45;&gt;Node2</title>
<g id="a_edge24_Node000014_Node000002"><a xlink:title=" ">
<path fill="none" stroke="#63b8ff" d="M372.23,-318.12C347.12,-308.71 319.13,-297.47 296.17,-287.54"/>
<polygon fill="#63b8ff" stroke="#63b8ff" points="297.56,-284.33 286.99,-283.52 294.75,-290.74 297.56,-284.33"/>
</a>
</g>
</g>
<!-- Node14&#45;&gt;Node3 -->
<g id="edge20_Node000014_Node000003" class="edge">
<title>Node14&#45;&gt;Node3</title>
<g id="a_edge20_Node000014_Node000003"><a xlink:title=" ">
<path fill="none" stroke="#63b8ff" d="M469.72,-358.53C492.3,-374.2 524.87,-395.79 555,-412 561.33,-415.4 568.14,-418.73 574.91,-421.85"/>
<polygon fill="#63b8ff" stroke="#63b8ff" points="573.5,-425.05 584.05,-425.95 576.36,-418.67 573.5,-425.05"/>
</a>
</g>
</g>
<!-- Node14&#45;&gt;Node8 -->
<g id="edge21_Node000014_Node000008" class="edge">
<title>Node14&#45;&gt;Node8</title>
<g id="a_edge21_Node000014_Node000008"><a xlink:title=" ">
<path fill="none" stroke="#63b8ff" d="M490.8,-317.31C512.99,-308.09 539.3,-297.15 562.48,-287.52"/>
<polygon fill="#63b8ff" stroke="#63b8ff" points="563.97,-290.69 571.86,-283.63 561.28,-284.23 563.97,-290.69"/>
</a>
</g>
</g>
<!-- Node14&#45;&gt;Node9 -->
<g id="edge23_Node000014_Node000009" class="edge">
<title>Node14&#45;&gt;Node9</title>
<g id="a_edge23_Node000014_Node000009"><a xlink:title=" ">
<path fill="none" stroke="#63b8ff" d="M478.13,-358.58C529.52,-384.04 623.52,-419.35 690,-379 743.55,-346.49 766.71,-270.6 775.43,-231.02"/>
<polygon fill="#63b8ff" stroke="#63b8ff" points="778.88,-231.61 777.48,-221.11 772.03,-230.19 778.88,-231.61"/>
</a>
</g>
</g>
<!-- Node14&#45;&gt;Node10 -->
<g id="edge25_Node000014_Node000010" class="edge">
<title>Node14&#45;&gt;Node10</title>
<g id="a_edge25_Node000014_Node000010"><a xlink:title=" ">
<path fill="none" stroke="#63b8ff" d="M507.7,-344.28C523.85,-345.8 541.07,-347.43 557.11,-348.94"/>
<polygon fill="#63b8ff" stroke="#63b8ff" points="557.17,-352.46 567.45,-349.91 557.83,-345.49 557.17,-352.46"/>
</a>
</g>
</g>
<!-- Node14&#45;&gt;Node14 -->
<g id="edge22_Node000014_Node000014" class="edge">
<title>Node14&#45;&gt;Node14</title>
<g id="a_edge22_Node000014_Node000014"><a xlink:title=" ">
<path fill="none" stroke="#63b8ff" d="M406.55,-358.6C402.9,-368.15 414.05,-376.5 440,-376.5 456.22,-376.5 466.66,-373.24 471.31,-368.46"/>
<polygon fill="#63b8ff" stroke="#63b8ff" points="474.75,-369.11 473.45,-358.6 467.91,-367.63 474.75,-369.11"/>
</a>
</g>
</g>
</g>
</svg>

<g id="navigator" transform="translate(0 0)" fill="#404254">
  <rect fill="#f2f5e9" fill-opacity="0.5" stroke="#606060" stroke-width=".5" x="0" y="0" width="60" height="60"/>
  <use id="zoomplus" xlink:href="#zoomPlus" x="17" y="9" onmousedown="handleZoom(evt,'in')"/>
  <use id="zoomminus" xlink:href="#zoomMin" x="42" y="9" onmousedown="handleZoom(evt,'out')"/>
  <use id="reset" xlink:href="#resetDef" x="30" y="36" onmousedown="handleReset()"/>
   <use id="arrowup" xlink:href="#arrowUp" x="0" y="0" onmousedown="handlePan(0,-1)"/>
  <use id="arrowright" xlink:href="#arrowRight" x="0" y="0" onmousedown="handlePan(1,0)"/>
  <use id="arrowdown" xlink:href="#arrowDown" x="0" y="0" onmousedown="handlePan(0,1)"/>
  <use id="arrowleft" xlink:href="#arrowLeft" x="0" y="0" onmousedown="handlePan(-1,0)"/>
</g>
<svg viewBox="0 0 15 15" width="100%" height="30px" preserveAspectRatio="xMaxYMin meet">
 <g id="arrow_out" transform="scale(0.3 0.3)">
  <a xlink:href="classanonymous__namespace_02json-validator_8cpp_03_1_1object_a51137ac019fc30c7ab57f839cd9a3638_cgraph_org.svg" target="_base">
   <rect id="button" ry="5" rx="5" y="6" x="6" height="38" width="38"
        fill="#f2f5e9" fill-opacity="0.5" stroke="#606060" stroke-width="1.0"/>
   <path id="arrow"
     d="M 11.500037,31.436501 C 11.940474,20.09759 22.043105,11.32322 32.158766,21.979434 L 37.068811,17.246167 C 37.068811,17.246167 37.088388,32 37.088388,32 L 22.160133,31.978069 C 22.160133,31.978069 26.997745,27.140456 26.997745,27.140456 C 18.528582,18.264221 13.291696,25.230495 11.500037,31.436501 z"
     style="fill:#404040;"/>
  </a>
 </g>
</svg>

<style type='text/css'>
<![CDATA[
[data-mouse-over-selected='false'] { opacity: 0.7; }
[data-mouse-over-selected='true']  { opacity: 1.0; }
]]>
</style>
<script type="application/ecmascript"><![CDATA[
document.addEventListener('DOMContentLoaded', (event) => {
  highlightEdges();
  highlightAdjacentNodes();
});
]]></script>
</svg>
