<?xml version="1.0" encoding="UTF-8" standalone="no"?>
<!DOCTYPE svg PUBLIC "-//W3C//DTD SVG 1.1//EN"
 "http://www.w3.org/Graphics/SVG/1.1/DTD/svg11.dtd">
<!-- Generated by graphviz version 2.42.4 (0)
 -->
<!-- Title: inja::Renderer Pages: 1 -->
<!--zoomable 832 -->

<svg id="main" version="1.1" xmlns="http://www.w3.org/2000/svg" xmlns:xlink="http://www.w3.org/1999/xlink" xml:space="preserve" onload="init(evt)">

<style type="text/css"><![CDATA[
.node, .edge {opacity: 0.7;}
.node.selected, .edge.selected {opacity: 1;}
.edge:hover path { stroke: red; }
.edge:hover polygon { stroke: red; fill: red; }
]]></style>

<defs>
  <circle id="rim" cx="0" cy="0" r="7"/>
  <circle id="rim2" cx="0" cy="0" r="3.5"/>
  <g id="zoomPlus">
    <use xlink:href="#rim" fill="#404040"><set attributeName="fill" to="#808080" begin="zoomplus.mouseover" end="zoomplus.mouseout"/></use>
    <path d="M-4,0h8M0,-4v8" fill="none" stroke="white" stroke-width="1.5" pointer-events="none"/>
  </g>
  <g id="zoomMin">
    <use xlink:href="#rim" fill="#404040"><set attributeName="fill" to="#808080" begin="zoomminus.mouseover" end="zoomminus.mouseout"/></use>
    <path d="M-4,0h8" fill="none" stroke="white" stroke-width="1.5" pointer-events="none"/>
  </g>
  <g id="arrowUp" transform="translate(30 24)">
    <use xlink:href="#rim"/>
    <path pointer-events="none" fill="none" stroke="white" stroke-width="1.5" d="M0,-3.0v7 M-2.5,-0.5L0,-3.0L2.5,-0.5"/>
  </g>
  <g id="arrowRight" transform="rotate(90) translate(36 -43)">
    <use xlink:href="#rim"/>
    <path pointer-events="none" fill="none" stroke="white" stroke-width="1.5" d="M0,-3.0v7 M-2.5,-0.5L0,-3.0L2.5,-0.5"/>
  </g>
  <g id="arrowDown" transform="rotate(180) translate(-30 -48)">
    <use xlink:href="#rim"/>
    <path pointer-events="none" fill="none" stroke="white" stroke-width="1.5" d="M0,-3.0v7 M-2.5,-0.5L0,-3.0L2.5,-0.5"/>
  </g>
  <g id="arrowLeft" transform="rotate(270) translate(-36 17)">
    <use xlink:href="#rim"/>
    <path pointer-events="none" fill="none" stroke="white" stroke-width="1.5" d="M0,-3.0v7 M-2.5,-0.5L0,-3.0L2.5,-0.5"/>
  </g>
  <g id="resetDef">
    <use xlink:href="#rim2" fill="#404040"><set attributeName="fill" to="#808080" begin="reset.mouseover" end="reset.mouseout"/></use>
  </g>
</defs>
<script type="application/ecmascript">
var viewWidth = 1194;
var viewHeight = 832;
var sectionId = 'dynsection-1';
</script>
<script type="application/ecmascript" xlink:href="svg.min.js"/>
<svg id="graph" class="graph">
<g id="viewport">
<title>inja::Renderer</title>
<!-- Node1 -->
<g id="Node000001" class="node">
<title>Node1</title>
<g id="a_Node000001"><a xlink:title="Class for rendering a Template with data.">
<polygon fill="#999999" stroke="transparent" points="608,-19 530,-19 530,0 608,0 608,-19"/>
<text text-anchor="start" x="534.5" y="-6.5" font-family="Helvetica,sans-Serif" font-size="10.00">inja::Renderer</text>
<polygon fill="none" stroke="#666666" points="530,0 530,-19 608,-19 608,0 530,0"/>
</a>
</g>
</g>
<!-- Node2 -->
<g id="Node000002" class="node">
<title>Node2</title>
<g id="a_Node000002"><a xlink:href="classinja_1_1NodeVisitor.html" target="_top" xlink:title=" ">
<polygon fill="white" stroke="transparent" points="90,-96.5 0,-96.5 0,-77.5 90,-77.5 90,-96.5"/>
<text text-anchor="start" x="4" y="-84" font-family="Helvetica,sans-Serif" font-size="10.00">inja::NodeVisitor</text>
<polygon fill="none" stroke="#666666" points="0,-77.5 0,-96.5 90,-96.5 90,-77.5 0,-77.5"/>
</a>
</g>
</g>
<!-- Node2&#45;&gt;Node1 -->
<g id="edge1_Node000001_Node000002" class="edge">
<title>Node2&#45;&gt;Node1</title>
<g id="a_edge1_Node000001_Node000002"><a xlink:title=" ">
<path fill="none" stroke="#63b8ff" d="M75.12,-73.47C104.41,-61.88 150.46,-45.25 192,-37 313.47,-12.89 460.77,-9.92 529.77,-10.03"/>
<polygon fill="none" stroke="#63b8ff" points="73.46,-70.36 65.49,-77.34 76.07,-76.86 73.46,-70.36"/>
</a>
</g>
</g>
<!-- Node3 -->
<g id="Node000003" class="node">
<title>Node3</title>
<g id="a_Node000003"><a xlink:href="structinja_1_1RenderConfig.html" target="_top" xlink:title="Class for render configuration.">
<polygon fill="white" stroke="transparent" points="208,-96.5 108,-96.5 108,-77.5 208,-77.5 208,-96.5"/>
<text text-anchor="start" x="112.5" y="-84" font-family="Helvetica,sans-Serif" font-size="10.00">inja::RenderConfig</text>
<polygon fill="none" stroke="#666666" points="108,-77.5 108,-96.5 208,-96.5 208,-77.5 108,-77.5"/>
</a>
</g>
</g>
<!-- Node3&#45;&gt;Node1 -->
<g id="edge2_Node000001_Node000003" class="edge">
<title>Node3&#45;&gt;Node1</title>
<g id="a_edge2_Node000001_Node000003"><a xlink:title=" ">
<path fill="none" stroke="#63b8ff" d="M166.73,-77.21C178.83,-65.66 201.95,-45.8 226,-37 278.15,-17.92 435.52,-12.58 517.73,-11.08"/>
<polygon fill="none" stroke="#63b8ff" points="517.77,-11.08 523.7,-6.98 529.77,-10.88 523.84,-14.98 517.77,-11.08"/>
</a>
</g>
<text text-anchor="start" x="229" y="-42.5" font-family="Helvetica,sans-Serif" font-size="10.00" fill="grey">&#45;config</text>
</g>
<!-- Node4 -->
<g id="Node000004" class="node">
<title>Node4</title>
<g id="a_Node000004"><a xlink:title=" ">
<polygon fill="white" stroke="transparent" points="340,-102 226,-102 226,-72 340,-72 340,-102"/>
<text text-anchor="start" x="230" y="-90" font-family="Helvetica,sans-Serif" font-size="10.00">std::map&lt; std::string,</text>
<text text-anchor="start" x="253" y="-79" font-family="Helvetica,sans-Serif" font-size="10.00"> Template &gt;</text>
<polygon fill="none" stroke="#666666" points="226,-72 226,-102 340,-102 340,-72 226,-72"/>
</a>
</g>
</g>
<!-- Node4&#45;&gt;Node1 -->
<g id="edge3_Node000001_Node000004" class="edge">
<title>Node4&#45;&gt;Node1</title>
<g id="a_edge3_Node000001_Node000004"><a xlink:title=" ">
<path fill="none" stroke="#63b8ff" d="M275.14,-71.78C270.31,-60.92 266.51,-46.29 275,-37 291,-19.49 437.56,-13.45 517.52,-11.44"/>
<polygon fill="none" stroke="#63b8ff" points="517.75,-11.44 523.66,-7.3 529.75,-11.16 523.84,-15.3 517.75,-11.44"/>
</a>
</g>
<text text-anchor="start" x="278.5" y="-42.5" font-family="Helvetica,sans-Serif" font-size="10.00" fill="grey">&#45;template_storage</text>
</g>
<!-- Node5 -->
<g id="Node000005" class="node">
<title>Node5</title>
<g id="a_Node000005"><a xlink:href="classinja_1_1FunctionStorage.html" target="_top" xlink:title="Class for builtin functions and user&#45;defined callbacks.">
<polygon fill="white" stroke="transparent" points="763,-139 651,-139 651,-120 763,-120 763,-139"/>
<text text-anchor="start" x="655.5" y="-126.5" font-family="Helvetica,sans-Serif" font-size="10.00">inja::FunctionStorage</text>
<polygon fill="none" stroke="#666666" points="651,-120 651,-139 763,-139 763,-120 651,-120"/>
</a>
</g>
</g>
<!-- Node5&#45;&gt;Node1 -->
<g id="edge4_Node000001_Node000005" class="edge">
<title>Node5&#45;&gt;Node1</title>
<g id="a_edge4_Node000001_Node000005"><a xlink:title=" ">
<path fill="none" stroke="#63b8ff" d="M698.17,-119.73C693.54,-114.81 688.02,-108.4 684,-102 667.27,-75.36 679.44,-57.97 656,-37 645.91,-27.97 632.82,-22.02 619.87,-18.09"/>
<polygon fill="none" stroke="#63b8ff" points="619.72,-18.05 612.9,-20.41 608.1,-15.03 614.92,-12.67 619.72,-18.05"/>
</a>
</g>
<text text-anchor="start" x="687" y="-84" font-family="Helvetica,sans-Serif" font-size="10.00" fill="grey">&#45;function_storage</text>
</g>
<!-- Node6 -->
<g id="Node000006" class="node">
<title>Node6</title>
<g id="a_Node000006"><a xlink:title=" ">
<polygon fill="white" stroke="transparent" points="862,-412 744,-412 744,-360 862,-360 862,-412"/>
<text text-anchor="start" x="748.5" y="-400" font-family="Helvetica,sans-Serif" font-size="10.00">std::map&lt; std::pair</text>
<text text-anchor="start" x="748.5" y="-389" font-family="Helvetica,sans-Serif" font-size="10.00">&lt; std::string, int &gt;</text>
<text text-anchor="start" x="748.5" y="-378" font-family="Helvetica,sans-Serif" font-size="10.00">, inja::FunctionStorage</text>
<text text-anchor="start" x="762" y="-367" font-family="Helvetica,sans-Serif" font-size="10.00">::FunctionData &gt;</text>
<polygon fill="none" stroke="#666666" points="744,-360 744,-412 862,-412 862,-360 744,-360"/>
</a>
</g>
</g>
<!-- Node6&#45;&gt;Node5 -->
<g id="edge5_Node000005_Node000006" class="edge">
<title>Node6&#45;&gt;Node5</title>
<g id="a_edge5_Node000005_Node000006"><a xlink:title=" ">
<path fill="none" stroke="#63b8ff" d="M793.44,-359.67C774.32,-308.98 731.72,-196.03 714.47,-150.3"/>
<polygon fill="none" stroke="#63b8ff" points="714.47,-150.29 708.61,-146.09 710.23,-139.06 716.09,-143.27 714.47,-150.29"/>
</a>
</g>
<text text-anchor="start" x="771" y="-270.5" font-family="Helvetica,sans-Serif" font-size="10.00" fill="grey">&#45;function_storage</text>
</g>
<!-- Node7 -->
<g id="Node000007" class="node">
<title>Node7</title>
<g id="a_Node000007"><a xlink:title=" ">
<polygon fill="white" stroke="transparent" points="807,-495 695,-495 695,-465 807,-465 807,-495"/>
<text text-anchor="start" x="699.5" y="-483" font-family="Helvetica,sans-Serif" font-size="10.00">std::pair&lt; std::string,</text>
<text text-anchor="start" x="737" y="-472" font-family="Helvetica,sans-Serif" font-size="10.00"> int &gt;</text>
<polygon fill="none" stroke="#666666" points="695,-465 695,-495 807,-495 807,-465 695,-465"/>
</a>
</g>
</g>
<!-- Node7&#45;&gt;Node6 -->
<g id="edge6_Node000006_Node000007" class="edge">
<title>Node7&#45;&gt;Node6</title>
<g id="a_edge6_Node000006_Node000007"><a xlink:title=" ">
<path fill="none" stroke="#63b8ff" d="M759.12,-464.62C765.45,-453.43 774.52,-437.39 782.77,-422.79"/>
<polygon fill="none" stroke="#63b8ff" points="782.95,-422.46 782.42,-415.27 788.86,-412.02 789.39,-419.21 782.95,-422.46"/>
</a>
</g>
<text text-anchor="start" x="782.5" y="-435.5" font-family="Helvetica,sans-Serif" font-size="10.00" fill="grey">+keys</text>
</g>
<!-- Node8 -->
<g id="Node000008" class="node">
<title>Node8</title>
<g id="a_Node000008"><a xlink:title=" ">
<polygon fill="white" stroke="transparent" points="707,-582 649,-582 649,-563 707,-563 707,-582"/>
<text text-anchor="start" x="653.5" y="-569.5" font-family="Helvetica,sans-Serif" font-size="10.00">std::string</text>
<polygon fill="none" stroke="#666666" points="649,-563 649,-582 707,-582 707,-563 649,-563"/>
</a>
</g>
</g>
<!-- Node8&#45;&gt;Node7 -->
<g id="edge7_Node000007_Node000008" class="edge">
<title>Node8&#45;&gt;Node7</title>
<g id="a_edge7_Node000007_Node000008"><a xlink:title=" ">
<path fill="none" stroke="#63b8ff" d="M685,-562.82C695.71,-549.55 716.53,-523.73 731.94,-504.63"/>
<polygon fill="none" stroke="#63b8ff" points="732.1,-504.43 732.75,-497.25 739.63,-495.09 738.98,-502.27 732.1,-504.43"/>
</a>
</g>
<text text-anchor="start" x="727.5" y="-526" font-family="Helvetica,sans-Serif" font-size="10.00" fill="grey">+first_type</text>
</g>
<!-- Node11 -->
<g id="Node000011" class="node">
<title>Node11</title>
<g id="a_Node000011"><a xlink:href="structinja_1_1Template.html" target="_top" xlink:title="The main inja Template.">
<polygon fill="white" stroke="transparent" points="613,-181.5 535,-181.5 535,-162.5 613,-162.5 613,-181.5"/>
<text text-anchor="start" x="539" y="-169" font-family="Helvetica,sans-Serif" font-size="10.00">inja::Template</text>
<polygon fill="none" stroke="#666666" points="535,-162.5 535,-181.5 613,-181.5 613,-162.5 535,-162.5"/>
</a>
</g>
</g>
<!-- Node8&#45;&gt;Node11 -->
<g id="edge16_Node000011_Node000008" class="edge">
<title>Node8&#45;&gt;Node11</title>
<g id="a_edge16_Node000011_Node000008"><a xlink:title=" ">
<path fill="none" stroke="#63b8ff" d="M677.34,-562.81C675.56,-540.56 670.07,-479.76 660,-430 639.39,-328.22 641.99,-298.59 597,-205 594.76,-200.35 591.85,-195.66 588.84,-191.35"/>
<polygon fill="none" stroke="#63b8ff" points="588.79,-191.28 581.98,-188.9 581.55,-181.71 588.36,-184.08 588.79,-191.28"/>
</a>
</g>
<text text-anchor="start" x="660" y="-383" font-family="Helvetica,sans-Serif" font-size="10.00" fill="grey">+content</text>
</g>
<!-- Node16 -->
<g id="Node000016" class="node">
<title>Node16</title>
<g id="a_Node000016"><a xlink:title=" ">
<polygon fill="white" stroke="transparent" points="546,-294 404,-294 404,-253 546,-253 546,-294"/>
<text text-anchor="start" x="408.5" y="-281.5" font-family="Helvetica,sans-Serif" font-size="10.00">std::map&lt; std::string,</text>
<text text-anchor="start" x="408.5" y="-270.5" font-family="Helvetica,sans-Serif" font-size="10.00"> std::shared_ptr&lt; inja</text>
<text text-anchor="start" x="408.5" y="-259.5" font-family="Helvetica,sans-Serif" font-size="10.00">::BlockStatementNode &gt; &gt;</text>
<polygon fill="none" stroke="#666666" points="404,-253 404,-294 546,-294 546,-253 404,-253"/>
</a>
</g>
</g>
<!-- Node8&#45;&gt;Node16 -->
<g id="edge18_Node000016_Node000008" class="edge">
<title>Node8&#45;&gt;Node16</title>
<g id="a_edge18_Node000016_Node000008"><a xlink:title=" ">
<path fill="none" stroke="#63b8ff" d="M667.56,-562.56C662.55,-557.79 656.82,-551.56 653,-545 630.1,-505.62 634.54,-491.07 623,-447 612.98,-408.71 625.76,-393.06 604,-360 586.81,-333.88 558.59,-313.84 532.92,-299.75"/>
<polygon fill="none" stroke="#63b8ff" points="532.74,-299.65 525.57,-300.4 522.12,-294.07 529.29,-293.32 532.74,-299.65"/>
</a>
</g>
<text text-anchor="start" x="626.5" y="-435.5" font-family="Helvetica,sans-Serif" font-size="10.00" fill="grey">+keys</text>
</g>
<!-- Node18 -->
<g id="Node000018" class="node">
<title>Node18</title>
<g id="a_Node000018"><a xlink:href="classinja_1_1BlockStatementNode.html" target="_top" xlink:title=" ">
<polygon fill="white" stroke="transparent" points="507,-489.5 371,-489.5 371,-470.5 507,-470.5 507,-489.5"/>
<text text-anchor="start" x="375" y="-477" font-family="Helvetica,sans-Serif" font-size="10.00">inja::BlockStatementNode</text>
<polygon fill="none" stroke="#666666" points="371,-470.5 371,-489.5 507,-489.5 507,-470.5 371,-470.5"/>
</a>
</g>
</g>
<!-- Node8&#45;&gt;Node18 -->
<g id="edge23_Node000018_Node000008" class="edge">
<title>Node8&#45;&gt;Node18</title>
<g id="a_edge23_Node000018_Node000008"><a xlink:title=" ">
<path fill="none" stroke="#63b8ff" d="M648.65,-566.62C625.5,-562.29 592.63,-555.09 565,-545 528.39,-531.63 488.7,-510.21 463.85,-495.88"/>
<polygon fill="none" stroke="#63b8ff" points="463.59,-495.73 456.39,-496.15 453.23,-489.66 460.43,-489.24 463.59,-495.73"/>
</a>
</g>
<text text-anchor="start" x="568.5" y="-526" font-family="Helvetica,sans-Serif" font-size="10.00" fill="grey">+name</text>
</g>
<!-- Node30 -->
<g id="Node000030" class="node">
<title>Node30</title>
<g id="a_Node000030"><a xlink:href="classinja_1_1DataNode.html" target="_top" xlink:title=" ">
<polygon fill="white" stroke="transparent" points="1037,-489.5 955,-489.5 955,-470.5 1037,-470.5 1037,-489.5"/>
<text text-anchor="start" x="959.5" y="-477" font-family="Helvetica,sans-Serif" font-size="10.00">inja::DataNode</text>
<polygon fill="none" stroke="#666666" points="955,-470.5 955,-489.5 1037,-489.5 1037,-470.5 955,-470.5"/>
</a>
</g>
</g>
<!-- Node8&#45;&gt;Node30 -->
<g id="edge40_Node000030_Node000008" class="edge">
<title>Node8&#45;&gt;Node30</title>
<g id="a_edge40_Node000030_Node000008"><a xlink:title=" ">
<path fill="none" stroke="#63b8ff" d="M707.35,-565.05C729.8,-559.97 761.48,-552.53 789,-545 848.81,-528.63 917.42,-506.81 958.7,-493.34"/>
<polygon fill="none" stroke="#63b8ff" points="958.94,-493.26 963.39,-487.59 970.34,-489.53 965.89,-495.2 958.94,-493.26"/>
</a>
</g>
<text text-anchor="start" x="899.5" y="-526" font-family="Helvetica,sans-Serif" font-size="10.00" fill="grey">+name</text>
</g>
<!-- Node9 -->
<g id="Node000009" class="node">
<title>Node9</title>
<g id="a_Node000009"><a xlink:title=" ">
<polygon fill="white" stroke="transparent" points="744,-667 648,-667 648,-637 744,-637 744,-667"/>
<text text-anchor="start" x="652" y="-655" font-family="Helvetica,sans-Serif" font-size="10.00">std::basic_string&lt;</text>
<text text-anchor="start" x="677.5" y="-644" font-family="Helvetica,sans-Serif" font-size="10.00"> Char &gt;</text>
<polygon fill="none" stroke="#666666" points="648,-637 648,-667 744,-667 744,-637 648,-637"/>
</a>
</g>
</g>
<!-- Node9&#45;&gt;Node8 -->
<g id="edge8_Node000008_Node000009" class="edge">
<title>Node9&#45;&gt;Node8</title>
<g id="a_edge8_Node000008_Node000009"><a xlink:title=" ">
<path fill="none" stroke="#63b8ff" d="M690.42,-626.99C686.9,-611.82 682.56,-593.11 680.05,-582.32"/>
<polygon fill="none" stroke="#63b8ff" points="687.03,-627.84 692.7,-636.79 693.85,-626.25 687.03,-627.84"/>
</a>
</g>
</g>
<!-- Node10 -->
<g id="Node000010" class="node">
<title>Node10</title>
<g id="a_Node000010"><a xlink:href="structinja_1_1FunctionStorage_1_1FunctionData.html" target="_top" xlink:title=" ">
<polygon fill="white" stroke="transparent" points="937,-495 825,-495 825,-465 937,-465 937,-495"/>
<text text-anchor="start" x="829.5" y="-483" font-family="Helvetica,sans-Serif" font-size="10.00">inja::FunctionStorage</text>
<text text-anchor="start" x="845.5" y="-472" font-family="Helvetica,sans-Serif" font-size="10.00">::FunctionData</text>
<polygon fill="none" stroke="#666666" points="825,-465 825,-495 937,-495 937,-465 825,-465"/>
</a>
</g>
</g>
<!-- Node10&#45;&gt;Node6 -->
<g id="edge9_Node000006_Node000010" class="edge">
<title>Node10&#45;&gt;Node6</title>
<g id="a_edge9_Node000006_Node000010"><a xlink:title=" ">
<path fill="none" stroke="#63b8ff" d="M863.94,-464.69C858,-459.39 851.47,-453.16 846,-447 839.17,-439.3 832.39,-430.52 826.3,-422.11"/>
<polygon fill="none" stroke="#63b8ff" points="826.17,-421.92 819.45,-419.32 819.26,-412.11 825.99,-414.71 826.17,-421.92"/>
</a>
</g>
<text text-anchor="start" x="849.5" y="-435.5" font-family="Helvetica,sans-Serif" font-size="10.00" fill="grey">+elements</text>
</g>
<!-- Node11&#45;&gt;Node1 -->
<g id="edge10_Node000001_Node000011" class="edge">
<title>Node11&#45;&gt;Node1</title>
<g id="a_edge10_Node000001_Node000011"><a xlink:title=" ">
<path fill="none" stroke="#63b8ff" d="M534.74,-163.99C500.74,-155.62 453.57,-137.95 431,-102 406.01,-62.19 469.24,-35.91 518.2,-22.11"/>
<polygon fill="none" stroke="#63b8ff" points="518.37,-22.06 523.12,-16.64 529.96,-18.95 525.2,-24.37 518.37,-22.06"/>
</a>
</g>
<text text-anchor="start" x="434" y="-84" font-family="Helvetica,sans-Serif" font-size="10.00" fill="grey">&#45;current_template</text>
</g>
<!-- Node20 -->
<g id="Node000020" class="node">
<title>Node20</title>
<g id="a_Node000020"><a xlink:title=" ">
<polygon fill="white" stroke="transparent" points="634,-102 534,-102 534,-72 634,-72 634,-102"/>
<text text-anchor="start" x="538" y="-90" font-family="Helvetica,sans-Serif" font-size="10.00">std::vector&lt; const</text>
<text text-anchor="start" x="538" y="-79" font-family="Helvetica,sans-Serif" font-size="10.00"> inja::Template * &gt;</text>
<polygon fill="none" stroke="#666666" points="534,-72 534,-102 634,-102 634,-72 534,-72"/>
</a>
</g>
</g>
<!-- Node11&#45;&gt;Node20 -->
<g id="edge26_Node000020_Node000011" class="edge">
<title>Node11&#45;&gt;Node20</title>
<g id="a_edge26_Node000020_Node000011"><a xlink:title=" ">
<path fill="none" stroke="#63b8ff" d="M575.03,-162.43C576.39,-151.19 578.83,-130.95 580.82,-114.41"/>
<polygon fill="none" stroke="#63b8ff" points="580.86,-114.09 577.6,-107.66 582.29,-102.18 585.55,-108.62 580.86,-114.09"/>
</a>
</g>
<text text-anchor="start" x="583.5" y="-126.5" font-family="Helvetica,sans-Serif" font-size="10.00" fill="grey">+elements</text>
</g>
<!-- Node12 -->
<g id="Node000012" class="node">
<title>Node12</title>
<g id="a_Node000012"><a xlink:href="classinja_1_1BlockNode.html" target="_top" xlink:title=" ">
<polygon fill="white" stroke="transparent" points="565,-582 479,-582 479,-563 565,-563 565,-582"/>
<text text-anchor="start" x="483.5" y="-569.5" font-family="Helvetica,sans-Serif" font-size="10.00">inja::BlockNode</text>
<polygon fill="none" stroke="#666666" points="479,-563 479,-582 565,-582 565,-563 479,-563"/>
</a>
</g>
</g>
<!-- Node12&#45;&gt;Node11 -->
<g id="edge11_Node000011_Node000012" class="edge">
<title>Node12&#45;&gt;Node11</title>
<g id="a_edge11_Node000011_Node000012"><a xlink:title=" ">
<path fill="none" stroke="#63b8ff" d="M535.94,-562.89C541.98,-558.37 548.47,-552.25 552,-545 611.26,-423.3 588.35,-252.05 578,-193.53"/>
<polygon fill="none" stroke="#63b8ff" points="578,-193.51 572.97,-188.34 575.8,-181.71 580.83,-186.88 578,-193.51"/>
</a>
</g>
<text text-anchor="start" x="594" y="-383" font-family="Helvetica,sans-Serif" font-size="10.00" fill="grey">+root</text>
</g>
<!-- Node12&#45;&gt;Node18 -->
<g id="edge24_Node000018_Node000012" class="edge">
<title>Node12&#45;&gt;Node18</title>
<g id="a_edge24_Node000018_Node000012"><a xlink:title=" ">
<path fill="none" stroke="#63b8ff" d="M478.96,-567.69C464.23,-564.1 449.16,-557.39 440,-545 430.98,-532.81 431.29,-515.42 433.55,-501.85"/>
<polygon fill="none" stroke="#63b8ff" points="433.61,-501.6 430.99,-494.88 436.19,-489.88 438.8,-496.6 433.61,-501.6"/>
</a>
</g>
<text text-anchor="start" x="443" y="-534" font-family="Helvetica,sans-Serif" font-size="10.00" fill="grey">+block</text>
<text text-anchor="start" x="443" y="-519" font-family="Helvetica,sans-Serif" font-size="10.00" fill="grey">+parent</text>
</g>
<!-- Node13 -->
<g id="Node000013" class="node">
<title>Node13</title>
<g id="a_Node000013"><a xlink:href="classinja_1_1AstNode.html" target="_top" xlink:title="Base node class for the abstract syntax tree (AST).">
<polygon fill="white" stroke="transparent" points="557,-824 483,-824 483,-805 557,-805 557,-824"/>
<text text-anchor="start" x="487" y="-811.5" font-family="Helvetica,sans-Serif" font-size="10.00">inja::AstNode</text>
<polygon fill="none" stroke="#666666" points="483,-805 483,-824 557,-824 557,-805 483,-805"/>
</a>
</g>
</g>
<!-- Node13&#45;&gt;Node12 -->
<g id="edge12_Node000012_Node000013" class="edge">
<title>Node13&#45;&gt;Node12</title>
<g id="a_edge12_Node000012_Node000013"><a xlink:title=" ">
<path fill="none" stroke="#63b8ff" d="M511.35,-795.28C506.11,-783.28 499.91,-767.06 497,-752 487.31,-701.81 484.79,-687.09 495,-637 499.21,-616.34 510.39,-594.07 516.97,-582.18"/>
<polygon fill="none" stroke="#63b8ff" points="508.26,-796.95 515.59,-804.61 514.63,-794.06 508.26,-796.95"/>
</a>
</g>
</g>
<!-- Node15 -->
<g id="Node000015" class="node">
<title>Node15</title>
<g id="a_Node000015"><a xlink:title=" ">
<polygon fill="white" stroke="transparent" points="618,-752 506,-752 506,-722 618,-722 618,-752"/>
<text text-anchor="start" x="510.5" y="-740" font-family="Helvetica,sans-Serif" font-size="10.00">std::shared_ptr&lt; inja</text>
<text text-anchor="start" x="532.5" y="-729" font-family="Helvetica,sans-Serif" font-size="10.00">::AstNode &gt;</text>
<polygon fill="none" stroke="#666666" points="506,-722 506,-752 618,-752 618,-722 506,-722"/>
</a>
</g>
</g>
<!-- Node13&#45;&gt;Node15 -->
<g id="edge15_Node000015_Node000013" class="edge">
<title>Node13&#45;&gt;Node15</title>
<g id="a_edge15_Node000015_Node000013"><a xlink:title=" ">
<path fill="none" stroke="#63b8ff" d="M524.82,-804.84C530.46,-794.69 540.06,-777.43 548.1,-762.99"/>
<polygon fill="none" stroke="#63b8ff" points="548.26,-762.69 547.68,-755.51 554.1,-752.21 554.68,-759.39 548.26,-762.69"/>
</a>
</g>
<text text-anchor="start" x="547" y="-775.5" font-family="Helvetica,sans-Serif" font-size="10.00" fill="grey">+ptr</text>
</g>
<!-- Node19 -->
<g id="Node000019" class="node">
<title>Node19</title>
<g id="a_Node000019"><a xlink:href="classinja_1_1StatementNode.html" target="_top" xlink:title=" ">
<polygon fill="white" stroke="transparent" points="461,-704 351,-704 351,-685 461,-685 461,-704"/>
<text text-anchor="start" x="355.5" y="-691.5" font-family="Helvetica,sans-Serif" font-size="10.00">inja::StatementNode</text>
<polygon fill="none" stroke="#666666" points="351,-685 351,-704 461,-704 461,-685 351,-685"/>
</a>
</g>
</g>
<!-- Node13&#45;&gt;Node19 -->
<g id="edge22_Node000019_Node000013" class="edge">
<title>Node13&#45;&gt;Node19</title>
<g id="a_edge22_Node000019_Node000013"><a xlink:title=" ">
<path fill="none" stroke="#63b8ff" d="M483.45,-800.8C475.84,-797.1 468.24,-792.53 462,-787 434.68,-762.79 416.37,-722.02 409.28,-704.23"/>
<polygon fill="none" stroke="#63b8ff" points="482.08,-804.03 492.64,-804.88 484.92,-797.63 482.08,-804.03"/>
</a>
</g>
</g>
<!-- Node31 -->
<g id="Node000031" class="node">
<title>Node31</title>
<g id="a_Node000031"><a xlink:href="classinja_1_1ExpressionNode.html" target="_top" xlink:title=" ">
<polygon fill="white" stroke="transparent" points="981,-619 869,-619 869,-600 981,-600 981,-619"/>
<text text-anchor="start" x="873.5" y="-606.5" font-family="Helvetica,sans-Serif" font-size="10.00">inja::ExpressionNode</text>
<polygon fill="none" stroke="#666666" points="869,-600 869,-619 981,-619 981,-600 869,-600"/>
</a>
</g>
</g>
<!-- Node13&#45;&gt;Node31 -->
<g id="edge39_Node000031_Node000013" class="edge">
<title>Node13&#45;&gt;Node31</title>
<g id="a_edge39_Node000031_Node000013"><a xlink:title=" ">
<path fill="none" stroke="#63b8ff" d="M547.77,-800.53C556.8,-796.27 566.85,-791.48 576,-787 704.68,-724.03 858.33,-644.96 908.37,-619.11"/>
<polygon fill="none" stroke="#63b8ff" points="546.03,-797.49 538.47,-804.91 549.01,-803.82 546.03,-797.49"/>
</a>
</g>
</g>
<!-- Node14 -->
<g id="Node000014" class="node">
<title>Node14</title>
<g id="a_Node000014"><a xlink:title=" ">
<polygon fill="white" stroke="transparent" points="630,-667 504,-667 504,-637 630,-637 630,-667"/>
<text text-anchor="start" x="508" y="-655" font-family="Helvetica,sans-Serif" font-size="10.00">std::vector&lt; std::shared</text>
<text text-anchor="start" x="508" y="-644" font-family="Helvetica,sans-Serif" font-size="10.00">_ptr&lt; inja::AstNode &gt; &gt;</text>
<polygon fill="none" stroke="#666666" points="504,-637 504,-667 630,-667 630,-637 504,-637"/>
</a>
</g>
</g>
<!-- Node14&#45;&gt;Node12 -->
<g id="edge13_Node000012_Node000014" class="edge">
<title>Node14&#45;&gt;Node12</title>
<g id="a_edge13_Node000012_Node000014"><a xlink:title=" ">
<path fill="none" stroke="#63b8ff" d="M558.75,-636.79C551.6,-624.48 541.21,-606.58 533.29,-592.95"/>
<polygon fill="none" stroke="#63b8ff" points="533.15,-592.7 526.67,-589.52 527.12,-582.32 533.59,-585.5 533.15,-592.7"/>
</a>
</g>
<text text-anchor="start" x="551" y="-606.5" font-family="Helvetica,sans-Serif" font-size="10.00" fill="grey">+nodes</text>
</g>
<!-- Node15&#45;&gt;Node14 -->
<g id="edge14_Node000014_Node000015" class="edge">
<title>Node15&#45;&gt;Node14</title>
<g id="a_edge14_Node000014_Node000015"><a xlink:title=" ">
<path fill="none" stroke="#63b8ff" d="M562.85,-721.92C563.55,-710.23 564.57,-693.3 565.43,-679.14"/>
<polygon fill="none" stroke="#63b8ff" points="565.43,-679.13 561.79,-672.9 566.15,-667.15 569.78,-673.38 565.43,-679.13"/>
</a>
</g>
<text text-anchor="start" x="568.5" y="-691.5" font-family="Helvetica,sans-Serif" font-size="10.00" fill="grey">+elements</text>
</g>
<!-- Node16&#45;&gt;Node11 -->
<g id="edge17_Node000011_Node000016" class="edge">
<title>Node16&#45;&gt;Node11</title>
<g id="a_edge17_Node000011_Node000016"><a xlink:title=" ">
<path fill="none" stroke="#63b8ff" d="M470.02,-252.82C467.53,-238.2 466.91,-218.53 477,-205 483.03,-196.92 502.83,-189.71 522.99,-184.18"/>
<polygon fill="none" stroke="#63b8ff" points="523.18,-184.13 527.98,-178.76 534.79,-181.13 529.99,-186.5 523.18,-184.13"/>
</a>
</g>
<text text-anchor="start" x="480.5" y="-217" font-family="Helvetica,sans-Serif" font-size="10.00" fill="grey">+block_storage</text>
</g>
<!-- Node17 -->
<g id="Node000017" class="node">
<title>Node17</title>
<g id="a_Node000017"><a xlink:title=" ">
<polygon fill="white" stroke="transparent" points="530,-401 400,-401 400,-371 530,-371 530,-401"/>
<text text-anchor="start" x="404.5" y="-389" font-family="Helvetica,sans-Serif" font-size="10.00">std::shared_ptr&lt; inja</text>
<text text-anchor="start" x="404.5" y="-378" font-family="Helvetica,sans-Serif" font-size="10.00">::BlockStatementNode &gt;</text>
<polygon fill="none" stroke="#666666" points="400,-371 400,-401 530,-401 530,-371 400,-371"/>
</a>
</g>
</g>
<!-- Node17&#45;&gt;Node16 -->
<g id="edge19_Node000016_Node000017" class="edge">
<title>Node17&#45;&gt;Node16</title>
<g id="a_edge19_Node000016_Node000017"><a xlink:title=" ">
<path fill="none" stroke="#63b8ff" d="M466.31,-370.55C467.78,-354.3 470.21,-327.39 472.13,-306.18"/>
<polygon fill="none" stroke="#63b8ff" points="472.14,-306.12 468.7,-299.79 473.22,-294.17 476.66,-300.51 472.14,-306.12"/>
</a>
</g>
<text text-anchor="start" x="475.5" y="-324" font-family="Helvetica,sans-Serif" font-size="10.00" fill="grey">+elements</text>
</g>
<!-- Node18&#45;&gt;Node17 -->
<g id="edge20_Node000017_Node000018" class="edge">
<title>Node18&#45;&gt;Node17</title>
<g id="a_edge20_Node000017_Node000018"><a xlink:title=" ">
<path fill="none" stroke="#63b8ff" d="M441.49,-470.18C445.2,-457.04 452.33,-431.83 457.77,-412.59"/>
<polygon fill="none" stroke="#63b8ff" points="457.78,-412.55 455.56,-405.69 461.04,-401 463.26,-407.86 457.78,-412.55"/>
</a>
</g>
<text text-anchor="start" x="456" y="-435.5" font-family="Helvetica,sans-Serif" font-size="10.00" fill="grey">+ptr</text>
</g>
<!-- Node21 -->
<g id="Node000021" class="node">
<title>Node21</title>
<g id="a_Node000021"><a xlink:title=" ">
<polygon fill="white" stroke="transparent" points="452,-342 292,-342 292,-312 452,-312 452,-342"/>
<text text-anchor="start" x="296.5" y="-330" font-family="Helvetica,sans-Serif" font-size="10.00">std::vector&lt; const</text>
<text text-anchor="start" x="296.5" y="-319" font-family="Helvetica,sans-Serif" font-size="10.00"> inja::BlockStatementNode * &gt;</text>
<polygon fill="none" stroke="#666666" points="292,-312 292,-342 452,-342 452,-312 292,-312"/>
</a>
</g>
</g>
<!-- Node18&#45;&gt;Node21 -->
<g id="edge28_Node000021_Node000018" class="edge">
<title>Node18&#45;&gt;Node21</title>
<g id="a_edge28_Node000021_Node000018"><a xlink:title=" ">
<path fill="none" stroke="#63b8ff" d="M413.87,-470.42C402.88,-465.35 390.94,-457.77 384,-447 366.1,-419.2 365.82,-379.94 368.17,-354.23"/>
<polygon fill="none" stroke="#63b8ff" points="368.19,-354.08 364.9,-347.66 369.56,-342.16 372.85,-348.58 368.19,-354.08"/>
</a>
</g>
<text text-anchor="start" x="387.5" y="-435.5" font-family="Helvetica,sans-Serif" font-size="10.00" fill="grey">+elements</text>
</g>
<!-- Node19&#45;&gt;Node18 -->
<g id="edge21_Node000018_Node000019" class="edge">
<title>Node19&#45;&gt;Node18</title>
<g id="a_edge21_Node000018_Node000019"><a xlink:title=" ">
<path fill="none" stroke="#63b8ff" d="M407.3,-674.73C409.82,-641.73 416.29,-571.25 429,-513 430.76,-504.92 433.65,-495.96 435.87,-489.58"/>
<polygon fill="none" stroke="#63b8ff" points="403.8,-674.54 406.57,-684.77 410.78,-675.05 403.8,-674.54"/>
</a>
</g>
</g>
<!-- Node20&#45;&gt;Node1 -->
<g id="edge25_Node000001_Node000020" class="edge">
<title>Node20&#45;&gt;Node1</title>
<g id="a_edge25_Node000001_Node000020"><a xlink:title=" ">
<path fill="none" stroke="#63b8ff" d="M576.35,-71.75C573.83,-66.35 571.34,-60.04 570,-54 568.39,-46.72 567.87,-38.58 567.84,-31.33"/>
<polygon fill="none" stroke="#63b8ff" points="567.85,-31.28 564.03,-25.16 568.22,-19.29 572.03,-25.41 567.85,-31.28"/>
</a>
</g>
<text text-anchor="start" x="573" y="-42.5" font-family="Helvetica,sans-Serif" font-size="10.00" fill="grey">&#45;template_stack</text>
</g>
<!-- Node21&#45;&gt;Node1 -->
<g id="edge27_Node000001_Node000021" class="edge">
<title>Node21&#45;&gt;Node1</title>
<g id="a_edge27_Node000001_Node000021"><a xlink:title=" ">
<path fill="none" stroke="#63b8ff" d="M369.99,-311.84C363.98,-263.24 351.81,-102.58 442,-37 463.74,-21.19 492.81,-14.36 517.65,-11.58"/>
<polygon fill="none" stroke="#63b8ff" points="517.87,-11.56 523.49,-7.04 529.82,-10.49 524.2,-15.01 517.87,-11.56"/>
</a>
</g>
<text text-anchor="start" x="377" y="-169" font-family="Helvetica,sans-Serif" font-size="10.00" fill="grey">&#45;block_statement_stack</text>
</g>
<!-- Node22 -->
<g id="Node000022" class="node">
<title>Node22</title>
<g id="a_Node000022"><a xlink:title=" ">
<polygon fill="white" stroke="transparent" points="888,-96.5 818,-96.5 818,-77.5 888,-77.5 888,-96.5"/>
<text text-anchor="start" x="822" y="-84" font-family="Helvetica,sans-Serif" font-size="10.00">std::ostream</text>
<polygon fill="none" stroke="#666666" points="818,-77.5 818,-96.5 888,-96.5 888,-77.5 818,-77.5"/>
</a>
</g>
</g>
<!-- Node22&#45;&gt;Node1 -->
<g id="edge29_Node000001_Node000022" class="edge">
<title>Node22&#45;&gt;Node1</title>
<g id="a_edge29_Node000001_Node000022"><a xlink:title=" ">
<path fill="none" stroke="#63b8ff" d="M847.22,-77.33C839.08,-65.9 823.08,-46.19 804,-37 772.57,-21.86 679.34,-15.15 620.19,-12.34"/>
<polygon fill="none" stroke="#63b8ff" points="620.11,-12.34 613.93,-16.06 608.12,-11.8 614.29,-8.07 620.11,-12.34"/>
</a>
</g>
<text text-anchor="start" x="829" y="-42.5" font-family="Helvetica,sans-Serif" font-size="10.00" fill="grey">&#45;output_stream</text>
</g>
<!-- Node23 -->
<g id="Node000023" class="node">
<title>Node23</title>
<g id="a_Node000023"><a xlink:title=" ">
<polygon fill="white" stroke="transparent" points="947,-187 845,-187 845,-157 947,-157 947,-187"/>
<text text-anchor="start" x="849.5" y="-175" font-family="Helvetica,sans-Serif" font-size="10.00">std::basic_ostream</text>
<text text-anchor="start" x="873" y="-164" font-family="Helvetica,sans-Serif" font-size="10.00">&lt; Char &gt;</text>
<polygon fill="none" stroke="#666666" points="845,-157 845,-187 947,-187 947,-157 845,-157"/>
</a>
</g>
</g>
<!-- Node23&#45;&gt;Node22 -->
<g id="edge30_Node000022_Node000023" class="edge">
<title>Node23&#45;&gt;Node22</title>
<g id="a_edge30_Node000022_Node000023"><a xlink:title=" ">
<path fill="none" stroke="#63b8ff" d="M891.81,-146.85C889.67,-138.05 886.52,-128.24 882,-120 877.09,-111.06 869.21,-102.59 862.91,-96.61"/>
<polygon fill="none" stroke="#63b8ff" points="888.45,-147.86 893.96,-156.91 895.3,-146.4 888.45,-147.86"/>
</a>
</g>
</g>
<!-- Node24 -->
<g id="Node000024" class="node">
<title>Node24</title>
<g id="a_Node000024"><a xlink:title=" ">
<polygon fill="white" stroke="transparent" points="1082,-283 962,-283 962,-264 1082,-264 1082,-283"/>
<text text-anchor="start" x="966" y="-270.5" font-family="Helvetica,sans-Serif" font-size="10.00">std::basic_ios&lt; Char &gt;</text>
<polygon fill="none" stroke="#666666" points="962,-264 962,-283 1082,-283 1082,-264 962,-264"/>
</a>
</g>
</g>
<!-- Node24&#45;&gt;Node23 -->
<g id="edge31_Node000023_Node000024" class="edge">
<title>Node24&#45;&gt;Node23</title>
<g id="a_edge31_Node000023_Node000024"><a xlink:title=" ">
<path fill="none" stroke="#63b8ff" d="M1002.73,-257.28C978.49,-238.14 937.23,-205.56 913.74,-187.01"/>
<polygon fill="none" stroke="#63b8ff" points="1000.8,-260.22 1010.82,-263.67 1005.14,-254.73 1000.8,-260.22"/>
</a>
</g>
</g>
<!-- Node25 -->
<g id="Node000025" class="node">
<title>Node25</title>
<g id="a_Node000025"><a xlink:title=" ">
<polygon fill="white" stroke="transparent" points="1072,-395.5 1000,-395.5 1000,-376.5 1072,-376.5 1072,-395.5"/>
<text text-anchor="start" x="1004" y="-383" font-family="Helvetica,sans-Serif" font-size="10.00">std::ios_base</text>
<polygon fill="none" stroke="#666666" points="1000,-376.5 1000,-395.5 1072,-395.5 1072,-376.5 1000,-376.5"/>
</a>
</g>
</g>
<!-- Node25&#45;&gt;Node24 -->
<g id="edge32_Node000024_Node000025" class="edge">
<title>Node25&#45;&gt;Node24</title>
<g id="a_edge32_Node000024_Node000025"><a xlink:title=" ">
<path fill="none" stroke="#63b8ff" d="M1033.63,-366.26C1030.56,-342.06 1025.35,-300.93 1023.09,-283.13"/>
<polygon fill="none" stroke="#63b8ff" points="1030.17,-366.85 1034.9,-376.33 1037.12,-365.97 1030.17,-366.85"/>
</a>
</g>
</g>
<!-- Node26 -->
<g id="Node000026" class="node">
<title>Node26</title>
<g id="a_Node000026"><a xlink:title=" ">
<polygon fill="white" stroke="transparent" points="1032,-102 906,-102 906,-72 1032,-72 1032,-102"/>
<text text-anchor="start" x="910" y="-90" font-family="Helvetica,sans-Serif" font-size="10.00">std::vector&lt; std::shared</text>
<text text-anchor="start" x="932.5" y="-79" font-family="Helvetica,sans-Serif" font-size="10.00">_ptr&lt; json &gt; &gt;</text>
<polygon fill="none" stroke="#666666" points="906,-72 906,-102 1032,-102 1032,-72 906,-72"/>
</a>
</g>
</g>
<!-- Node26&#45;&gt;Node1 -->
<g id="edge33_Node000001_Node000026" class="edge">
<title>Node26&#45;&gt;Node1</title>
<g id="a_edge33_Node000001_Node000026"><a xlink:title=" ">
<path fill="none" stroke="#63b8ff" d="M957.07,-71.62C946.54,-60.04 930.08,-44.51 912,-37 860.65,-15.68 702.55,-11.35 620.15,-10.58"/>
<polygon fill="none" stroke="#63b8ff" points="620.08,-10.58 614.05,-14.53 608.08,-10.49 614.11,-6.53 620.08,-10.58"/>
</a>
</g>
<text text-anchor="start" x="940" y="-42.5" font-family="Helvetica,sans-Serif" font-size="10.00" fill="grey">&#45;data_tmp_stack</text>
</g>
<!-- Node27 -->
<g id="Node000027" class="node">
<title>Node27</title>
<g id="a_Node000027"><a xlink:title=" ">
<polygon fill="white" stroke="transparent" points="1089,-181.5 965,-181.5 965,-162.5 1089,-162.5 1089,-181.5"/>
<text text-anchor="start" x="969" y="-169" font-family="Helvetica,sans-Serif" font-size="10.00">std::shared_ptr&lt; json &gt;</text>
<polygon fill="none" stroke="#666666" points="965,-162.5 965,-181.5 1089,-181.5 1089,-162.5 965,-162.5"/>
</a>
</g>
</g>
<!-- Node27&#45;&gt;Node26 -->
<g id="edge34_Node000026_Node000027" class="edge">
<title>Node27&#45;&gt;Node26</title>
<g id="a_edge34_Node000026_Node000027"><a xlink:title=" ">
<path fill="none" stroke="#63b8ff" d="M1021.01,-162.43C1012.84,-150.74 997.88,-129.33 986.09,-112.46"/>
<polygon fill="none" stroke="#63b8ff" points="985.78,-112.02 979.07,-109.39 978.91,-102.18 985.62,-104.81 985.78,-112.02"/>
</a>
</g>
<text text-anchor="start" x="1006.5" y="-126.5" font-family="Helvetica,sans-Serif" font-size="10.00" fill="grey">+elements</text>
</g>
<!-- Node28 -->
<g id="Node000028" class="node">
<title>Node28</title>
<g id="a_Node000028"><a xlink:title=" ">
<polygon fill="white" stroke="transparent" points="1186,-96.5 1050,-96.5 1050,-77.5 1186,-77.5 1186,-96.5"/>
<text text-anchor="start" x="1054" y="-84" font-family="Helvetica,sans-Serif" font-size="10.00">std::stack&lt; const json * &gt;</text>
<polygon fill="none" stroke="#666666" points="1050,-77.5 1050,-96.5 1186,-96.5 1186,-77.5 1050,-77.5"/>
</a>
</g>
</g>
<!-- Node28&#45;&gt;Node1 -->
<g id="edge35_Node000001_Node000028" class="edge">
<title>Node28&#45;&gt;Node1</title>
<g id="a_edge35_Node000001_Node000028"><a xlink:title=" ">
<path fill="none" stroke="#63b8ff" d="M1106.38,-77.35C1090.06,-65.76 1059,-45.64 1029,-37 953.64,-15.3 723.88,-11.29 620.43,-10.61"/>
<polygon fill="none" stroke="#63b8ff" points="620.17,-10.61 614.15,-14.57 608.17,-10.54 614.19,-6.57 620.17,-10.61"/>
</a>
</g>
<text text-anchor="start" x="1070" y="-42.5" font-family="Helvetica,sans-Serif" font-size="10.00" fill="grey">&#45;data_eval_stack</text>
</g>
<!-- Node29 -->
<g id="Node000029" class="node">
<title>Node29</title>
<g id="a_Node000029"><a xlink:title=" ">
<polygon fill="white" stroke="transparent" points="885,-235 771,-235 771,-205 885,-205 885,-235"/>
<text text-anchor="start" x="775" y="-223" font-family="Helvetica,sans-Serif" font-size="10.00">std::stack&lt; const inja</text>
<text text-anchor="start" x="790.5" y="-212" font-family="Helvetica,sans-Serif" font-size="10.00">::DataNode * &gt;</text>
<polygon fill="none" stroke="#666666" points="771,-205 771,-235 885,-235 885,-205 771,-205"/>
</a>
</g>
</g>
<!-- Node29&#45;&gt;Node1 -->
<g id="edge36_Node000001_Node000029" class="edge">
<title>Node29&#45;&gt;Node1</title>
<g id="a_edge36_Node000001_Node000029"><a xlink:title=" ">
<path fill="none" stroke="#63b8ff" d="M819.02,-204.85C809.58,-189.31 795.01,-163.31 787,-139 777.56,-110.34 795.37,-95.14 776,-72 738.04,-26.64 668.25,-13.83 620.28,-10.68"/>
<polygon fill="none" stroke="#63b8ff" points="620.27,-10.68 614.07,-14.37 608.28,-10.06 614.48,-6.38 620.27,-10.68"/>
</a>
</g>
<text text-anchor="start" x="790.5" y="-126.5" font-family="Helvetica,sans-Serif" font-size="10.00" fill="grey">&#45;not_found_stack</text>
</g>
<!-- Node30&#45;&gt;Node29 -->
<g id="edge37_Node000029_Node000030" class="edge">
<title>Node30&#45;&gt;Node29</title>
<g id="a_edge37_Node000029_Node000030"><a xlink:title=" ">
<path fill="none" stroke="#63b8ff" d="M985.35,-470.48C971.12,-458.64 945.88,-435.95 930,-412 887.71,-348.24 908.38,-315.33 864,-253 861.67,-249.73 858.95,-246.56 856.07,-243.57"/>
<polygon fill="none" stroke="#63b8ff" points="855.91,-243.42 848.79,-242.23 847.15,-235.21 854.27,-236.4 855.91,-243.42"/>
</a>
</g>
<text text-anchor="start" x="933.5" y="-383" font-family="Helvetica,sans-Serif" font-size="10.00" fill="grey">+elements</text>
</g>
<!-- Node31&#45;&gt;Node30 -->
<g id="edge38_Node000030_Node000031" class="edge">
<title>Node31&#45;&gt;Node30</title>
<g id="a_edge38_Node000030_Node000031"><a xlink:title=" ">
<path fill="none" stroke="#63b8ff" d="M934.88,-590.76C950.29,-563.08 979.5,-510.63 991.09,-489.82"/>
<polygon fill="none" stroke="#63b8ff" points="931.69,-589.3 929.88,-599.74 937.8,-592.7 931.69,-589.3"/>
</a>
</g>
</g>
</g>
</svg>

<g id="navigator" transform="translate(0 0)" fill="#404254">
  <rect fill="#f2f5e9" fill-opacity="0.5" stroke="#606060" stroke-width=".5" x="0" y="0" width="60" height="60"/>
  <use id="zoomplus" xlink:href="#zoomPlus" x="17" y="9" onmousedown="handleZoom(evt,'in')"/>
  <use id="zoomminus" xlink:href="#zoomMin" x="42" y="9" onmousedown="handleZoom(evt,'out')"/>
  <use id="reset" xlink:href="#resetDef" x="30" y="36" onmousedown="handleReset()"/>
   <use id="arrowup" xlink:href="#arrowUp" x="0" y="0" onmousedown="handlePan(0,-1)"/>
  <use id="arrowright" xlink:href="#arrowRight" x="0" y="0" onmousedown="handlePan(1,0)"/>
  <use id="arrowdown" xlink:href="#arrowDown" x="0" y="0" onmousedown="handlePan(0,1)"/>
  <use id="arrowleft" xlink:href="#arrowLeft" x="0" y="0" onmousedown="handlePan(-1,0)"/>
</g>
<svg viewBox="0 0 15 15" width="100%" height="30px" preserveAspectRatio="xMaxYMin meet">
 <g id="arrow_out" transform="scale(0.3 0.3)">
  <a xlink:href="classinja_1_1Renderer__coll__graph_org.svg" target="_base">
   <rect id="button" ry="5" rx="5" y="6" x="6" height="38" width="38"
        fill="#f2f5e9" fill-opacity="0.5" stroke="#606060" stroke-width="1.0"/>
   <path id="arrow"
     d="M 11.500037,31.436501 C 11.940474,20.09759 22.043105,11.32322 32.158766,21.979434 L 37.068811,17.246167 C 37.068811,17.246167 37.088388,32 37.088388,32 L 22.160133,31.978069 C 22.160133,31.978069 26.997745,27.140456 26.997745,27.140456 C 18.528582,18.264221 13.291696,25.230495 11.500037,31.436501 z"
     style="fill:#404040;"/>
  </a>
 </g>
</svg>

<style type='text/css'>
<![CDATA[
[data-mouse-over-selected='false'] { opacity: 0.7; }
[data-mouse-over-selected='true']  { opacity: 1.0; }
]]>
</style>
<script type="application/ecmascript"><![CDATA[
document.addEventListener('DOMContentLoaded', (event) => {
  highlightEdges();
  highlightAdjacentNodes();
});
]]></script>
</svg>
