<?xml version="1.0" encoding="UTF-8" standalone="no"?>
<!DOCTYPE svg PUBLIC "-//W3C//DTD SVG 1.1//EN"
 "http://www.w3.org/Graphics/SVG/1.1/DTD/svg11.dtd">
<!-- Generated by graphviz version 14.1.2 (0)
 -->
<!-- Title: mqtt::bridge::lib::Mqtt Pages: 1 -->
<svg width="425pt" height="651pt"
 viewBox="0.00 0.00 425.00 651.00" xmlns="http://www.w3.org/2000/svg" xmlns:xlink="http://www.w3.org/1999/xlink">
<g id="graph0" class="graph" transform="scale(1 1) rotate(0) translate(4 647.25)">
<title>mqtt::bridge::lib::Mqtt</title>
<!-- Node1 -->
<g id="Node000001" class="node">
<title>Node1</title>
<g id="a_Node000001"><a xlink:title=" ">
<polygon fill="#999999" stroke="none" points="191.25,-579.12 76.75,-579.12 76.75,-558.38 191.25,-558.38 191.25,-579.12"/>
<text xml:space="preserve" text-anchor="start" x="80.75" y="-565.62" font-family="Helvetica,sans-Serif" font-size="10.00">mqtt::bridge::lib::Mqtt</text>
<polygon fill="none" stroke="#666666" points="76.75,-558.38 76.75,-579.12 191.25,-579.12 191.25,-558.38 76.75,-558.38"/>
</a>
</g>
</g>
<!-- Node8 -->
<g id="Node000008" class="node">
<title>Node8</title>
<g id="a_Node000008"><a xlink:title=" ">
<polygon fill="white" stroke="none" points="129.38,-497.25 18.62,-497.25 18.62,-463.75 129.38,-463.75 129.38,-497.25"/>
<text xml:space="preserve" text-anchor="start" x="22.62" y="-483.75" font-family="Helvetica,sans-Serif" font-size="10.00">std::list&lt; const mqtt</text>
<text xml:space="preserve" text-anchor="start" x="22.62" y="-471" font-family="Helvetica,sans-Serif" font-size="10.00">::bridge::lib::Mqtt * &gt;</text>
<polygon fill="none" stroke="#666666" points="18.62,-463.75 18.62,-497.25 129.38,-497.25 129.38,-463.75 18.62,-463.75"/>
</a>
</g>
</g>
<!-- Node1&#45;&gt;Node8 -->
<g id="edge10_Node000008_Node000001" class="edge">
<title>Node1&#45;&gt;Node8</title>
<g id="a_edge10_Node000008_Node000001"><a xlink:title=" ">
<path fill="none" stroke="#63b8ff" d="M127.58,-558.52C119.2,-546.47 104.18,-524.88 92.17,-507.62"/>
<polygon fill="none" stroke="#63b8ff" points="92.19,-507.64 85.48,-505 85.33,-497.79 92.04,-500.43 92.19,-507.64"/>
</a>
</g>
<text xml:space="preserve" text-anchor="start" x="112.37" y="-521.5" font-family="Helvetica,sans-Serif" font-size="10.00" fill="grey">+elements</text>
</g>
<!-- Node2 -->
<g id="Node000002" class="node">
<title>Node2</title>
<g id="a_Node000002"><a xlink:title=" ">
<polygon fill="white" stroke="none" points="189.75,-643.25 78.25,-643.25 78.25,-622.5 189.75,-622.5 189.75,-643.25"/>
<text xml:space="preserve" text-anchor="start" x="82.25" y="-629.75" font-family="Helvetica,sans-Serif" font-size="10.00">iot::mqtt::client::Mqtt</text>
<polygon fill="none" stroke="#666666" points="78.25,-622.5 78.25,-643.25 189.75,-643.25 189.75,-622.5 78.25,-622.5"/>
</a>
</g>
</g>
<!-- Node2&#45;&gt;Node1 -->
<g id="edge1_Node000001_Node000002" class="edge">
<title>Node2&#45;&gt;Node1</title>
<g id="a_edge1_Node000001_Node000002"><a xlink:title=" ">
<path fill="none" stroke="#63b8ff" d="M134,-611.51C134,-600.53 134,-587.5 134,-578.95"/>
<polygon fill="none" stroke="#63b8ff" points="130.5,-611.19 134,-621.19 137.5,-611.19 130.5,-611.19"/>
</a>
</g>
</g>
<!-- Node3 -->
<g id="Node000003" class="node">
<title>Node3</title>
<g id="a_Node000003"><a xlink:href="classmqtt_1_1bridge_1_1lib_1_1Broker.html" target="_top" xlink:title=" ">
<polygon fill="white" stroke="none" points="246,-134.5 154,-134.5 154,-101 246,-101 246,-134.5"/>
<text xml:space="preserve" text-anchor="start" x="158" y="-121" font-family="Helvetica,sans-Serif" font-size="10.00">mqtt::bridge::lib::</text>
<text xml:space="preserve" text-anchor="start" x="184.25" y="-108.25" font-family="Helvetica,sans-Serif" font-size="10.00">Broker</text>
<polygon fill="none" stroke="#666666" points="154,-101 154,-134.5 246,-134.5 246,-101 154,-101"/>
</a>
</g>
</g>
<!-- Node3&#45;&gt;Node1 -->
<g id="edge2_Node000001_Node000003" class="edge">
<title>Node3&#45;&gt;Node1</title>
<g id="a_edge2_Node000001_Node000003"><a xlink:title=" ">
<path fill="none" stroke="#63b8ff" d="M212.8,-134.28C216.52,-139.71 220.09,-146.06 222,-152.5 224.37,-160.49 222.09,-162.92 222,-171.25 221.75,-193.16 232.37,-360.6 209,-445.75 197.79,-486.6 197.69,-499.58 173,-534 168.69,-540 163.11,-545.64 157.53,-550.53"/>
<polygon fill="none" stroke="#63b8ff" points="157.78,-550.32 155.62,-557.2 148.44,-557.86 150.6,-550.98 157.78,-550.32"/>
</a>
</g>
<text xml:space="preserve" text-anchor="start" x="219.17" y="-424.88" font-family="Helvetica,sans-Serif" font-size="10.00" fill="grey">&#45;broker</text>
</g>
<!-- Node7 -->
<g id="Node000007" class="node">
<title>Node7</title>
<g id="a_Node000007"><a xlink:title=" ">
<polygon fill="white" stroke="none" points="253.88,-46.25 146.12,-46.25 146.12,0 253.88,0 253.88,-46.25"/>
<text xml:space="preserve" text-anchor="start" x="150.12" y="-32.75" font-family="Helvetica,sans-Serif" font-size="10.00">std::map&lt; const std</text>
<text xml:space="preserve" text-anchor="start" x="150.12" y="-20" font-family="Helvetica,sans-Serif" font-size="10.00">::string, mqtt::bridge</text>
<text xml:space="preserve" text-anchor="start" x="166.62" y="-7.25" font-family="Helvetica,sans-Serif" font-size="10.00">::lib::Broker &gt;</text>
<polygon fill="none" stroke="#666666" points="146.12,0 146.12,-46.25 253.88,-46.25 253.88,0 146.12,0"/>
</a>
</g>
</g>
<!-- Node3&#45;&gt;Node7 -->
<g id="edge8_Node000007_Node000003" class="edge">
<title>Node3&#45;&gt;Node7</title>
<g id="a_edge8_Node000007_Node000003"><a xlink:title=" ">
<path fill="none" stroke="#63b8ff" d="M200,-101.04C200,-89.5 200,-73.37 200,-58.86"/>
<polygon fill="none" stroke="#63b8ff" points="200,-59.08 196,-53.08 200,-47.08 204,-53.08 200,-59.08"/>
</a>
</g>
<text xml:space="preserve" text-anchor="start" x="203" y="-70.5" font-family="Helvetica,sans-Serif" font-size="10.00" fill="grey">+elements</text>
</g>
<!-- Node4 -->
<g id="Node000004" class="node">
<title>Node4</title>
<g id="a_Node000004"><a xlink:href="classmqtt_1_1bridge_1_1lib_1_1Bridge.html" target="_top" xlink:title=" ">
<polygon fill="white" stroke="none" points="92,-307.5 0,-307.5 0,-274 92,-274 92,-307.5"/>
<text xml:space="preserve" text-anchor="start" x="4" y="-294" font-family="Helvetica,sans-Serif" font-size="10.00">mqtt::bridge::lib::</text>
<text xml:space="preserve" text-anchor="start" x="30.25" y="-281.25" font-family="Helvetica,sans-Serif" font-size="10.00">Bridge</text>
<polygon fill="none" stroke="#666666" points="0,-274 0,-307.5 92,-307.5 92,-274 0,-274"/>
</a>
</g>
</g>
<!-- Node4&#45;&gt;Node3 -->
<g id="edge3_Node000003_Node000004" class="edge">
<title>Node4&#45;&gt;Node3</title>
<g id="a_edge3_Node000003_Node000004"><a xlink:title=" ">
<path fill="none" stroke="#63b8ff" d="M51.8,-274.08C63.11,-245.67 90.8,-185.51 133.5,-152.5 139.07,-148.19 145.27,-144.19 151.59,-140.57"/>
<polygon fill="none" stroke="#63b8ff" points="151.61,-140.56 155,-134.19 162.18,-134.87 158.79,-141.24 151.61,-140.56"/>
</a>
</g>
<text xml:space="preserve" text-anchor="start" x="136.5" y="-158.75" font-family="Helvetica,sans-Serif" font-size="10.00" fill="grey">&#45;bridge</text>
</g>
<!-- Node5 -->
<g id="Node000005" class="node">
<title>Node5</title>
<g id="a_Node000005"><a xlink:title=" ">
<polygon fill="white" stroke="none" points="315.38,-490.88 258.62,-490.88 258.62,-470.12 315.38,-470.12 315.38,-490.88"/>
<text xml:space="preserve" text-anchor="start" x="262.62" y="-477.38" font-family="Helvetica,sans-Serif" font-size="10.00">std::string</text>
<polygon fill="none" stroke="#666666" points="258.62,-470.12 258.62,-490.88 315.38,-490.88 315.38,-470.12 258.62,-470.12"/>
</a>
</g>
</g>
<!-- Node5&#45;&gt;Node3 -->
<g id="edge11_Node000003_Node000005" class="edge">
<title>Node5&#45;&gt;Node3</title>
<g id="a_edge11_Node000003_Node000005"><a xlink:title=" ">
<path fill="none" stroke="#63b8ff" d="M288.56,-470.31C295.01,-429.47 316.18,-261.7 250,-152.5 247.8,-148.87 245.05,-145.55 241.97,-142.52"/>
<polygon fill="none" stroke="#63b8ff" points="241.96,-142.52 234.78,-141.8 232.68,-134.9 239.86,-135.62 241.96,-142.52"/>
</a>
</g>
<text xml:space="preserve" text-anchor="start" x="299.93" y="-379.75" font-family="Helvetica,sans-Serif" font-size="10.00" fill="grey">&#45;clientId</text>
<text xml:space="preserve" text-anchor="start" x="299.93" y="-363" font-family="Helvetica,sans-Serif" font-size="10.00" fill="grey">&#45;encryption</text>
<text xml:space="preserve" text-anchor="start" x="299.93" y="-346.25" font-family="Helvetica,sans-Serif" font-size="10.00" fill="grey">&#45;instanceName</text>
<text xml:space="preserve" text-anchor="start" x="299.93" y="-329.5" font-family="Helvetica,sans-Serif" font-size="10.00" fill="grey">&#45;password</text>
<text xml:space="preserve" text-anchor="start" x="299.93" y="-312.75" font-family="Helvetica,sans-Serif" font-size="10.00" fill="grey">&#45;prefix</text>
<text xml:space="preserve" text-anchor="start" x="299.93" y="-296" font-family="Helvetica,sans-Serif" font-size="10.00" fill="grey">&#45;protocol</text>
<text xml:space="preserve" text-anchor="start" x="299.93" y="-279.25" font-family="Helvetica,sans-Serif" font-size="10.00" fill="grey">&#45;sessionStoreFile</text>
<text xml:space="preserve" text-anchor="start" x="299.93" y="-262.5" font-family="Helvetica,sans-Serif" font-size="10.00" fill="grey">  Name</text>
<text xml:space="preserve" text-anchor="start" x="299.93" y="-245.75" font-family="Helvetica,sans-Serif" font-size="10.00" fill="grey">&#45;transport</text>
<text xml:space="preserve" text-anchor="start" x="299.93" y="-229" font-family="Helvetica,sans-Serif" font-size="10.00" fill="grey">&#45;username</text>
<text xml:space="preserve" text-anchor="start" x="299.93" y="-212.25" font-family="Helvetica,sans-Serif" font-size="10.00" fill="grey">&#45;willMessage</text>
<text xml:space="preserve" text-anchor="start" x="299.93" y="-195.5" font-family="Helvetica,sans-Serif" font-size="10.00" fill="grey"> &#160;...</text>
</g>
<!-- Node5&#45;&gt;Node4 -->
<g id="edge4_Node000004_Node000005" class="edge">
<title>Node5&#45;&gt;Node4</title>
<g id="a_edge4_Node000004_Node000005"><a xlink:title=" ">
<path fill="none" stroke="#63b8ff" d="M258.66,-474.36C234.42,-469.25 199.07,-460.08 170.75,-445.75 166.39,-443.55 104.18,-395.96 101,-392.25 82.05,-370.14 66.78,-340.44 57.18,-319.07"/>
<polygon fill="none" stroke="#63b8ff" points="57.2,-319.11 51.15,-315.19 52.44,-308.1 58.49,-312.02 57.2,-319.11"/>
</a>
</g>
<text xml:space="preserve" text-anchor="start" x="173.75" y="-433.25" font-family="Helvetica,sans-Serif" font-size="10.00" fill="grey">&#45;name</text>
<text xml:space="preserve" text-anchor="start" x="173.75" y="-416.5" font-family="Helvetica,sans-Serif" font-size="10.00" fill="grey">&#45;prefix</text>
</g>
<!-- Node5&#45;&gt;Node7 -->
<g id="edge7_Node000007_Node000005" class="edge">
<title>Node5&#45;&gt;Node7</title>
<g id="a_edge7_Node000007_Node000005"><a xlink:title=" ">
<path fill="none" stroke="#63b8ff" d="M305.63,-470.18C330.07,-456.77 371.84,-429.5 389,-392.25 426.74,-310.3 423.53,-272.6 389,-189.25 363.43,-127.52 300.67,-80.49 254.46,-52.7"/>
<polygon fill="none" stroke="#63b8ff" points="254.52,-52.74 247.33,-53.16 244.17,-46.68 251.37,-46.26 254.52,-52.74"/>
</a>
</g>
<text xml:space="preserve" text-anchor="start" x="383" y="-158.75" font-family="Helvetica,sans-Serif" font-size="10.00" fill="grey">+keys</text>
</g>
<!-- Node6 -->
<g id="Node000006" class="node">
<title>Node6</title>
<g id="a_Node000006"><a xlink:title=" ">
<polygon fill="white" stroke="none" points="334.88,-585.5 239.12,-585.5 239.12,-552 334.88,-552 334.88,-585.5"/>
<text xml:space="preserve" text-anchor="start" x="243.12" y="-572" font-family="Helvetica,sans-Serif" font-size="10.00">std::basic_string&lt;</text>
<text xml:space="preserve" text-anchor="start" x="268.62" y="-559.25" font-family="Helvetica,sans-Serif" font-size="10.00"> Char &gt;</text>
<polygon fill="none" stroke="#666666" points="239.12,-552 239.12,-585.5 334.88,-585.5 334.88,-552 239.12,-552"/>
</a>
</g>
</g>
<!-- Node6&#45;&gt;Node5 -->
<g id="edge5_Node000005_Node000006" class="edge">
<title>Node6&#45;&gt;Node5</title>
<g id="a_edge5_Node000005_Node000006"><a xlink:title=" ">
<path fill="none" stroke="#63b8ff" d="M287,-540.93C287,-523.65 287,-502.28 287,-490.45"/>
<polygon fill="none" stroke="#63b8ff" points="283.5,-540.82 287,-550.82 290.5,-540.82 283.5,-540.82"/>
</a>
</g>
</g>
<!-- Node7&#45;&gt;Node4 -->
<g id="edge6_Node000004_Node000007" class="edge">
<title>Node7&#45;&gt;Node4</title>
<g id="a_edge6_Node000004_Node000007"><a xlink:title=" ">
<path fill="none" stroke="#63b8ff" d="M149.14,-46.21C125.67,-58.93 99.52,-77.17 83.5,-101 50.47,-150.14 45.2,-221.71 45.08,-261.1"/>
<polygon fill="none" stroke="#63b8ff" points="45.08,-261.15 49.15,-267.1 45.22,-273.15 41.15,-267.2 45.08,-261.15"/>
</a>
</g>
<text xml:space="preserve" text-anchor="start" x="86.5" y="-114.62" font-family="Helvetica,sans-Serif" font-size="10.00" fill="grey">&#45;brokerMap</text>
</g>
<!-- Node8&#45;&gt;Node4 -->
<g id="edge9_Node000004_Node000008" class="edge">
<title>Node8&#45;&gt;Node4</title>
<g id="a_edge9_Node000004_Node000008"><a xlink:title=" ">
<path fill="none" stroke="#63b8ff" d="M71.66,-463.82C66.93,-432.12 56.19,-360.07 50.21,-319.98"/>
<polygon fill="none" stroke="#63b8ff" points="50.22,-320.02 45.37,-314.67 48.45,-308.15 53.29,-313.49 50.22,-320.02"/>
</a>
</g>
<text xml:space="preserve" text-anchor="start" x="71.64" y="-424.88" font-family="Helvetica,sans-Serif" font-size="10.00" fill="grey">&#45;mqttList</text>
</g>
<!-- Node9 -->
<g id="Node000009" class="node">
<title>Node9</title>
<g id="a_Node000009"><a xlink:title=" ">
<polygon fill="white" stroke="none" points="207.62,-307.5 110.38,-307.5 110.38,-274 207.62,-274 207.62,-307.5"/>
<text xml:space="preserve" text-anchor="start" x="114.38" y="-294" font-family="Helvetica,sans-Serif" font-size="10.00">std::list&lt; iot::mqtt</text>
<text xml:space="preserve" text-anchor="start" x="138" y="-281.25" font-family="Helvetica,sans-Serif" font-size="10.00">::Topic &gt;</text>
<polygon fill="none" stroke="#666666" points="110.38,-274 110.38,-307.5 207.62,-307.5 207.62,-274 110.38,-274"/>
</a>
</g>
</g>
<!-- Node9&#45;&gt;Node3 -->
<g id="edge12_Node000003_Node000009" class="edge">
<title>Node9&#45;&gt;Node3</title>
<g id="a_edge12_Node000003_Node000009"><a xlink:title=" ">
<path fill="none" stroke="#63b8ff" d="M160.23,-274.16C162.59,-248.31 168.85,-195.21 183,-152.5 183.69,-150.4 184.5,-148.27 185.38,-146.15"/>
<polygon fill="none" stroke="#63b8ff" points="185.38,-146.15 184.32,-139.01 190.49,-135.29 191.56,-142.42 185.38,-146.15"/>
</a>
</g>
<text xml:space="preserve" text-anchor="start" x="186" y="-158.75" font-family="Helvetica,sans-Serif" font-size="10.00" fill="grey">&#45;topics</text>
</g>
</g>
</svg>
