<?xml version="1.0" encoding="UTF-8" standalone="no"?>
<!DOCTYPE svg PUBLIC "-//W3C//DTD SVG 1.1//EN"
 "http://www.w3.org/Graphics/SVG/1.1/DTD/svg11.dtd">
<!-- Generated by graphviz version 14.1.2 (0)
 -->
<!-- Title: inja::Parser::throw_parser_error Pages: 1 -->
<svg width="568pt" height="94pt"
 viewBox="0.00 0.00 568.00 94.00" xmlns="http://www.w3.org/2000/svg" xmlns:xlink="http://www.w3.org/1999/xlink">
<g id="graph0" class="graph" transform="scale(1 1) rotate(0) translate(4 89.5)">
<title>inja::Parser::throw_parser_error</title>
<!-- Node1 -->
<g id="Node000001" class="node">
<title>Node1</title>
<g id="a_Node000001"><a xlink:title=" ">
<polygon fill="#999999" stroke="#666666" points="104.5,-59.5 0,-59.5 0,-26 104.5,-26 104.5,-59.5"/>
<text xml:space="preserve" text-anchor="start" x="8" y="-46" font-family="Helvetica,sans-Serif" font-size="10.00">inja::Parser::throw</text>
<text xml:space="preserve" text-anchor="middle" x="52.25" y="-33.25" font-family="Helvetica,sans-Serif" font-size="10.00">_parser_error</text>
</a>
</g>
</g>
<!-- Node2 -->
<g id="Node000002" class="node">
<title>Node2</title>
<g id="a_Node000002"><a xlink:href="classinja_1_1Lexer.html#a0ec13f470ddcf0c1fb7466f6168451b2" target="_top" xlink:title=" ">
<polygon fill="white" stroke="#666666" points="248,-85.5 140.5,-85.5 140.5,-52 248,-52 248,-85.5"/>
<text xml:space="preserve" text-anchor="start" x="148.5" y="-72" font-family="Helvetica,sans-Serif" font-size="10.00">inja::Lexer::current</text>
<text xml:space="preserve" text-anchor="middle" x="194.25" y="-59.25" font-family="Helvetica,sans-Serif" font-size="10.00">_position</text>
</a>
</g>
</g>
<!-- Node1&#45;&gt;Node2 -->
<g id="edge1_Node000001_Node000002" class="edge">
<title>Node1&#45;&gt;Node2</title>
<g id="a_edge1_Node000001_Node000002"><a xlink:title=" ">
<path fill="none" stroke="#63b8ff" d="M104.98,-52.36C112.82,-53.81 120.98,-55.33 129.04,-56.83"/>
<polygon fill="#63b8ff" stroke="#63b8ff" points="128.37,-60.26 138.84,-58.64 129.64,-53.38 128.37,-60.26"/>
</a>
</g>
</g>
<!-- Node5 -->
<g id="Node000005" class="node">
<title>Node5</title>
<g id="a_Node000005"><a xlink:href="structinja_1_1ParserError.html#aa76b83dd1badd3fcf64aff6feee7583c" target="_top" xlink:title=" ">
<polygon fill="white" stroke="#666666" points="244.25,-33.5 144.25,-33.5 144.25,0 244.25,0 244.25,-33.5"/>
<text xml:space="preserve" text-anchor="start" x="152.25" y="-20" font-family="Helvetica,sans-Serif" font-size="10.00">inja::ParserError::</text>
<text xml:space="preserve" text-anchor="middle" x="194.25" y="-7.25" font-family="Helvetica,sans-Serif" font-size="10.00">ParserError</text>
</a>
</g>
</g>
<!-- Node1&#45;&gt;Node5 -->
<g id="edge4_Node000001_Node000005" class="edge">
<title>Node1&#45;&gt;Node5</title>
<g id="a_edge4_Node000001_Node000005"><a xlink:title=" ">
<path fill="none" stroke="#63b8ff" d="M104.98,-33.14C114.06,-31.46 123.59,-29.69 132.88,-27.96"/>
<polygon fill="#63b8ff" stroke="#63b8ff" points="133.37,-31.43 142.57,-26.16 132.1,-24.55 133.37,-31.43"/>
</a>
</g>
</g>
<!-- Node3 -->
<g id="Node000003" class="node">
<title>Node3</title>
<g id="a_Node000003"><a xlink:href="namespaceinja.html#ab7c8c54f2caeb72095cd78a7ff7b6c37" target="_top" xlink:title=" ">
<polygon fill="white" stroke="#666666" points="421.5,-79.12 284,-79.12 284,-58.38 421.5,-58.38 421.5,-79.12"/>
<text xml:space="preserve" text-anchor="middle" x="352.75" y="-65.62" font-family="Helvetica,sans-Serif" font-size="10.00">inja::get_source_location</text>
</a>
</g>
</g>
<!-- Node2&#45;&gt;Node3 -->
<g id="edge2_Node000002_Node000003" class="edge">
<title>Node2&#45;&gt;Node3</title>
<g id="a_edge2_Node000002_Node000003"><a xlink:title=" ">
<path fill="none" stroke="#63b8ff" d="M248.23,-68.75C255.95,-68.75 264.03,-68.75 272.13,-68.75"/>
<polygon fill="#63b8ff" stroke="#63b8ff" points="272.05,-72.25 282.05,-68.75 272.05,-65.25 272.05,-72.25"/>
</a>
</g>
</g>
<!-- Node4 -->
<g id="Node000004" class="node">
<title>Node4</title>
<g id="a_Node000004"><a xlink:href="namespaceinja_1_1string__view.html#a898871016595d8f34d1b4ea55b3e8684" target="_top" xlink:title=" ">
<polygon fill="white" stroke="#666666" points="559.75,-85.5 457.5,-85.5 457.5,-52 559.75,-52 559.75,-85.5"/>
<text xml:space="preserve" text-anchor="start" x="465.5" y="-72" font-family="Helvetica,sans-Serif" font-size="10.00">inja::string_view::</text>
<text xml:space="preserve" text-anchor="middle" x="508.62" y="-59.25" font-family="Helvetica,sans-Serif" font-size="10.00">slice</text>
</a>
</g>
</g>
<!-- Node3&#45;&gt;Node4 -->
<g id="edge3_Node000003_Node000004" class="edge">
<title>Node3&#45;&gt;Node4</title>
<g id="a_edge3_Node000003_Node000004"><a xlink:title=" ">
<path fill="none" stroke="#63b8ff" d="M421.69,-68.75C429.7,-68.75 437.83,-68.75 445.75,-68.75"/>
<polygon fill="#63b8ff" stroke="#63b8ff" points="445.63,-72.25 455.63,-68.75 445.63,-65.25 445.63,-72.25"/>
</a>
</g>
</g>
<!-- Node6 -->
<g id="Node000006" class="node">
<title>Node6</title>
<g id="a_Node000006"><a xlink:href="structinja_1_1InjaError.html#a399b7d2f7c824c24b7794694711bafb7" target="_top" xlink:title=" ">
<polygon fill="white" stroke="#666666" points="417,-27.12 288.5,-27.12 288.5,-6.38 417,-6.38 417,-27.12"/>
<text xml:space="preserve" text-anchor="middle" x="352.75" y="-13.62" font-family="Helvetica,sans-Serif" font-size="10.00">inja::InjaError::InjaError</text>
</a>
</g>
</g>
<!-- Node5&#45;&gt;Node6 -->
<g id="edge5_Node000005_Node000006" class="edge">
<title>Node5&#45;&gt;Node6</title>
<g id="a_edge5_Node000005_Node000006"><a xlink:title=" ">
<path fill="none" stroke="#63b8ff" d="M244.34,-16.75C254.65,-16.75 265.75,-16.75 276.77,-16.75"/>
<polygon fill="#63b8ff" stroke="#63b8ff" points="276.66,-20.25 286.66,-16.75 276.66,-13.25 276.66,-20.25"/>
</a>
</g>
</g>
</g>
</svg>
