<?xml version="1.0" encoding="UTF-8" standalone="no"?>
<!DOCTYPE svg PUBLIC "-//W3C//DTD SVG 1.1//EN"
 "http://www.w3.org/Graphics/SVG/1.1/DTD/svg11.dtd">
<!-- Generated by graphviz version 14.1.2 (0)
 -->
<!-- Title: mqtt::mqttstore::lib::StoragePlan::fromFile Pages: 1 -->
<svg width="1237pt" height="312pt"
 viewBox="0.00 0.00 1237.00 312.00" xmlns="http://www.w3.org/2000/svg" xmlns:xlink="http://www.w3.org/1999/xlink">
<g id="graph0" class="graph" transform="scale(1 1) rotate(0) translate(4 307.5)">
<title>mqtt::mqttstore::lib::StoragePlan::fromFile</title>
<!-- Node1 -->
<g id="Node000001" class="node">
<title>Node1</title>
<g id="a_Node000001"><a xlink:title=" ">
<polygon fill="#999999" stroke="#666666" points="126.25,-145.88 0,-145.88 0,-112.38 126.25,-112.38 126.25,-145.88"/>
<text xml:space="preserve" text-anchor="start" x="8" y="-132.38" font-family="Helvetica,sans-Serif" font-size="10.00">mqtt::mqttstore::lib</text>
<text xml:space="preserve" text-anchor="middle" x="63.12" y="-119.62" font-family="Helvetica,sans-Serif" font-size="10.00">::StoragePlan::fromFile</text>
</a>
</g>
</g>
<!-- Node2 -->
<g id="Node000002" class="node">
<title>Node2</title>
<g id="a_Node000002"><a xlink:href="classmqtt_1_1mqttstore_1_1lib_1_1StoragePlan.html#a7c43d857a7aec16b02864f80f80dda05" target="_top" xlink:title=" ">
<polygon fill="white" stroke="#666666" points="292.25,-145.88 162.25,-145.88 162.25,-112.38 292.25,-112.38 292.25,-145.88"/>
<text xml:space="preserve" text-anchor="start" x="170.25" y="-132.38" font-family="Helvetica,sans-Serif" font-size="10.00">mqtt::mqttstore::lib</text>
<text xml:space="preserve" text-anchor="middle" x="227.25" y="-119.62" font-family="Helvetica,sans-Serif" font-size="10.00">::StoragePlan::fromJson</text>
</a>
</g>
</g>
<!-- Node1&#45;&gt;Node2 -->
<g id="edge1_Node000001_Node000002" class="edge">
<title>Node1&#45;&gt;Node2</title>
<g id="a_edge1_Node000001_Node000002"><a xlink:title=" ">
<path fill="none" stroke="#63b8ff" d="M126.34,-129.12C134.23,-129.12 142.38,-129.12 150.45,-129.12"/>
<polygon fill="#63b8ff" stroke="#63b8ff" points="150.27,-132.63 160.27,-129.13 150.27,-125.63 150.27,-132.63"/>
</a>
</g>
</g>
<!-- Node3 -->
<g id="Node000003" class="node">
<title>Node3</title>
<g id="a_Node000003"><a xlink:href="namespacemqtt_1_1mqttstore_1_1lib_1_1anonymous__namespace_02StoragePlan_8cpp_03.html#a98bde28ee9174aba6a9f109fd2918b87" target="_top" xlink:title=" ">
<polygon fill="white" stroke="#666666" points="483.75,-158.62 328.25,-158.62 328.25,-99.62 483.75,-99.62 483.75,-158.62"/>
<text xml:space="preserve" text-anchor="start" x="336.25" y="-145.12" font-family="Helvetica,sans-Serif" font-size="10.00">mqtt::mqttstore::lib</text>
<text xml:space="preserve" text-anchor="start" x="336.25" y="-132.38" font-family="Helvetica,sans-Serif" font-size="10.00">::anonymous_namespace</text>
<text xml:space="preserve" text-anchor="start" x="336.25" y="-119.62" font-family="Helvetica,sans-Serif" font-size="10.00">{StoragePlan::cpp}::validate</text>
<text xml:space="preserve" text-anchor="middle" x="406" y="-106.88" font-family="Helvetica,sans-Serif" font-size="10.00">ProjectionConfiguration</text>
</a>
</g>
</g>
<!-- Node2&#45;&gt;Node3 -->
<g id="edge2_Node000002_Node000003" class="edge">
<title>Node2&#45;&gt;Node3</title>
<g id="a_edge2_Node000002_Node000003"><a xlink:title=" ">
<path fill="none" stroke="#63b8ff" d="M292.56,-129.12C300.34,-129.12 308.39,-129.12 316.45,-129.12"/>
<polygon fill="#63b8ff" stroke="#63b8ff" points="316.29,-132.63 326.29,-129.13 316.29,-125.63 316.29,-132.63"/>
</a>
</g>
</g>
<!-- Node4 -->
<g id="Node000004" class="node">
<title>Node4</title>
<g id="a_Node000004"><a xlink:href="namespacenlohmann_1_1json__schema.html#aa85e264f222e36fe1108824f0699db71" target="_top" xlink:title=" ">
<polygon fill="white" stroke="#666666" points="689.12,-177.88 527.62,-177.88 527.62,-144.38 689.12,-144.38 689.12,-177.88"/>
<text xml:space="preserve" text-anchor="start" x="535.62" y="-164.38" font-family="Helvetica,sans-Serif" font-size="10.00">nlohmann::json_schema</text>
<text xml:space="preserve" text-anchor="middle" x="608.38" y="-151.62" font-family="Helvetica,sans-Serif" font-size="10.00">::default_string_format_check</text>
</a>
</g>
</g>
<!-- Node3&#45;&gt;Node4 -->
<g id="edge3_Node000003_Node000004" class="edge">
<title>Node3&#45;&gt;Node4</title>
<g id="a_edge3_Node000003_Node000004"><a xlink:title=" ">
<path fill="none" stroke="#63b8ff" d="M484.18,-141.45C494.66,-143.12 505.49,-144.85 516.18,-146.56"/>
<polygon fill="#63b8ff" stroke="#63b8ff" points="515.32,-149.97 525.75,-148.09 516.43,-143.06 515.32,-149.97"/>
</a>
</g>
</g>
<!-- Node12 -->
<g id="Node000012" class="node">
<title>Node12</title>
<g id="a_Node000012"><a xlink:href="classmqtt_1_1mqttstore_1_1lib_1_1anonymous__namespace_02StoragePlan_8cpp_03_1_1ProjectionValidationErrorHandler.html#a4ad111655d47dba4f064a22b83e119e4" target="_top" xlink:title=" ">
<polygon fill="white" stroke="#666666" points="697,-126.62 519.75,-126.62 519.75,-67.62 697,-67.62 697,-126.62"/>
<text xml:space="preserve" text-anchor="start" x="527.75" y="-113.12" font-family="Helvetica,sans-Serif" font-size="10.00">mqtt::mqttstore::lib</text>
<text xml:space="preserve" text-anchor="start" x="527.75" y="-100.38" font-family="Helvetica,sans-Serif" font-size="10.00">::anonymous_namespace</text>
<text xml:space="preserve" text-anchor="start" x="527.75" y="-87.62" font-family="Helvetica,sans-Serif" font-size="10.00">{StoragePlan::cpp}::Projection</text>
<text xml:space="preserve" text-anchor="middle" x="608.38" y="-74.88" font-family="Helvetica,sans-Serif" font-size="10.00">ValidationErrorHandler::message</text>
</a>
</g>
</g>
<!-- Node3&#45;&gt;Node12 -->
<g id="edge14_Node000003_Node000012" class="edge">
<title>Node3&#45;&gt;Node12</title>
<g id="a_edge14_Node000003_Node000012"><a xlink:title=" ">
<path fill="none" stroke="#63b8ff" d="M484.18,-116.8C492.05,-115.54 500.12,-114.25 508.18,-112.97"/>
<polygon fill="#63b8ff" stroke="#63b8ff" points="508.73,-116.42 518.05,-111.39 507.62,-109.51 508.73,-116.42"/>
</a>
</g>
</g>
<!-- Node5 -->
<g id="Node000005" class="node">
<title>Node5</title>
<g id="a_Node000005"><a xlink:href="smtp-address-validator_8cpp.html#a53806bb45aaea546415c64f8612328bf" target="_top" xlink:title=" ">
<polygon fill="white" stroke="#666666" points="836.75,-303.5 769,-303.5 769,-282.75 836.75,-282.75 836.75,-303.5"/>
<text xml:space="preserve" text-anchor="middle" x="802.88" y="-290" font-family="Helvetica,sans-Serif" font-size="10.00">is_address</text>
</a>
</g>
</g>
<!-- Node4&#45;&gt;Node5 -->
<g id="edge4_Node000004_Node000005" class="edge">
<title>Node4&#45;&gt;Node5</title>
<g id="a_edge4_Node000004_Node000005"><a xlink:title=" ">
<path fill="none" stroke="#63b8ff" d="M623.56,-178.16C644.86,-202.66 687.49,-247.71 733,-273.12 740.63,-277.39 749.26,-280.82 757.77,-283.55"/>
<polygon fill="#63b8ff" stroke="#63b8ff" points="756.74,-286.9 767.32,-286.33 758.7,-280.18 756.74,-286.9"/>
</a>
</g>
</g>
<!-- Node6 -->
<g id="Node000006" class="node">
<title>Node6</title>
<g id="a_Node000006"><a xlink:href="namespaceanonymous__namespace_02string-format-check_8cpp_03.html#a63b1fb98ca5a11d6c9c782a5f117d8bb" target="_top" xlink:title=" ">
<polygon fill="white" stroke="#666666" points="870.12,-264.25 735.62,-264.25 735.62,-218 870.12,-218 870.12,-264.25"/>
<text xml:space="preserve" text-anchor="start" x="743.62" y="-250.75" font-family="Helvetica,sans-Serif" font-size="10.00">anonymous_namespace</text>
<text xml:space="preserve" text-anchor="start" x="743.62" y="-238" font-family="Helvetica,sans-Serif" font-size="10.00">{string&#45;format&#45;check</text>
<text xml:space="preserve" text-anchor="middle" x="802.88" y="-225.25" font-family="Helvetica,sans-Serif" font-size="10.00">::cpp}::is_ascii</text>
</a>
</g>
</g>
<!-- Node4&#45;&gt;Node6 -->
<g id="edge5_Node000004_Node000006" class="edge">
<title>Node4&#45;&gt;Node6</title>
<g id="a_edge5_Node000004_Node000006"><a xlink:title=" ">
<path fill="none" stroke="#63b8ff" d="M650.67,-178.29C675.16,-188.46 706.79,-201.61 734.78,-213.24"/>
<polygon fill="#63b8ff" stroke="#63b8ff" points="733.34,-216.43 743.91,-217.04 736.02,-209.97 733.34,-216.43"/>
</a>
</g>
</g>
<!-- Node7 -->
<g id="Node000007" class="node">
<title>Node7</title>
<g id="a_Node000007"><a xlink:href="namespaceanonymous__namespace_02string-format-check_8cpp_03.html#abc6a6f514b36ca48ec57a49552b4a7ff" target="_top" xlink:title=" ">
<polygon fill="white" stroke="#666666" points="1057.88,-187.25 909.12,-187.25 909.12,-141 1057.88,-141 1057.88,-187.25"/>
<text xml:space="preserve" text-anchor="start" x="917.12" y="-173.75" font-family="Helvetica,sans-Serif" font-size="10.00">anonymous_namespace</text>
<text xml:space="preserve" text-anchor="start" x="917.12" y="-161" font-family="Helvetica,sans-Serif" font-size="10.00">{string&#45;format&#45;check</text>
<text xml:space="preserve" text-anchor="middle" x="983.5" y="-148.25" font-family="Helvetica,sans-Serif" font-size="10.00">::cpp}::rfc3339_date_check</text>
</a>
</g>
</g>
<!-- Node4&#45;&gt;Node7 -->
<g id="edge6_Node000004_Node000007" class="edge">
<title>Node4&#45;&gt;Node7</title>
<g id="a_edge6_Node000004_Node000007"><a xlink:title=" ">
<path fill="none" stroke="#63b8ff" d="M689.45,-168.55C703.93,-169.62 718.91,-170.56 733,-171.12 795.06,-173.63 810.67,-173.1 872.75,-171.12 880.75,-170.87 889.08,-170.51 897.41,-170.09"/>
<polygon fill="#63b8ff" stroke="#63b8ff" points="897.43,-173.59 907.23,-169.56 897.05,-166.6 897.43,-173.59"/>
</a>
</g>
</g>
<!-- Node9 -->
<g id="Node000009" class="node">
<title>Node9</title>
<g id="a_Node000009"><a xlink:href="namespaceanonymous__namespace_02string-format-check_8cpp_03.html#a75d27cfe891533a99a33c21e2fcc8089" target="_top" xlink:title=" ">
<polygon fill="white" stroke="#666666" points="870.12,-161.62 735.62,-161.62 735.62,-102.62 870.12,-102.62 870.12,-161.62"/>
<text xml:space="preserve" text-anchor="start" x="743.62" y="-148.12" font-family="Helvetica,sans-Serif" font-size="10.00">anonymous_namespace</text>
<text xml:space="preserve" text-anchor="start" x="743.62" y="-135.38" font-family="Helvetica,sans-Serif" font-size="10.00">{string&#45;format&#45;check</text>
<text xml:space="preserve" text-anchor="start" x="743.62" y="-122.62" font-family="Helvetica,sans-Serif" font-size="10.00">::cpp}::rfc3339_date</text>
<text xml:space="preserve" text-anchor="middle" x="802.88" y="-109.88" font-family="Helvetica,sans-Serif" font-size="10.00">_time_check</text>
</a>
</g>
</g>
<!-- Node4&#45;&gt;Node9 -->
<g id="edge8_Node000004_Node000009" class="edge">
<title>Node4&#45;&gt;Node9</title>
<g id="a_edge8_Node000004_Node000009"><a xlink:title=" ">
<path fill="none" stroke="#63b8ff" d="M689.62,-149.04C700.99,-147.32 712.67,-145.56 724,-143.86"/>
<polygon fill="#63b8ff" stroke="#63b8ff" points="724.32,-147.35 733.69,-142.4 723.28,-140.43 724.32,-147.35"/>
</a>
</g>
</g>
<!-- Node10 -->
<g id="Node000010" class="node">
<title>Node10</title>
<g id="a_Node000010"><a xlink:href="namespaceanonymous__namespace_02string-format-check_8cpp_03.html#a94b42f28f7bbba3d1292744b2d3c4760" target="_top" xlink:title=" ">
<polygon fill="white" stroke="#666666" points="1058.25,-123.25 908.75,-123.25 908.75,-77 1058.25,-77 1058.25,-123.25"/>
<text xml:space="preserve" text-anchor="start" x="916.75" y="-109.75" font-family="Helvetica,sans-Serif" font-size="10.00">anonymous_namespace</text>
<text xml:space="preserve" text-anchor="start" x="916.75" y="-97" font-family="Helvetica,sans-Serif" font-size="10.00">{string&#45;format&#45;check</text>
<text xml:space="preserve" text-anchor="middle" x="983.5" y="-84.25" font-family="Helvetica,sans-Serif" font-size="10.00">::cpp}::rfc3339_time_check</text>
</a>
</g>
</g>
<!-- Node4&#45;&gt;Node10 -->
<g id="edge12_Node000004_Node000010" class="edge">
<title>Node4&#45;&gt;Node10</title>
<g id="a_edge12_Node000004_Node000010"><a xlink:title=" ">
<path fill="none" stroke="#63b8ff" d="M682.56,-143.88C687.6,-141.6 692.47,-139.03 697,-136.12 717.7,-122.86 710.66,-104.4 733,-94.12 783.96,-70.69 847.19,-72.49 897.24,-80"/>
<polygon fill="#63b8ff" stroke="#63b8ff" points="896.43,-83.41 906.86,-81.55 897.55,-76.5 896.43,-83.41"/>
</a>
</g>
</g>
<!-- Node11 -->
<g id="Node000011" class="node">
<title>Node11</title>
<g id="a_Node000011"><a xlink:href="namespaceanonymous__namespace_02string-format-check_8cpp_03.html#ad0a9f022f6535a5a8b5357b284a039a9" target="_top" xlink:title=" ">
<polygon fill="white" stroke="#666666" points="872.75,-46.25 733,-46.25 733,0 872.75,0 872.75,-46.25"/>
<text xml:space="preserve" text-anchor="start" x="741" y="-32.75" font-family="Helvetica,sans-Serif" font-size="10.00">anonymous_namespace</text>
<text xml:space="preserve" text-anchor="start" x="741" y="-20" font-family="Helvetica,sans-Serif" font-size="10.00">{string&#45;format&#45;check</text>
<text xml:space="preserve" text-anchor="middle" x="802.88" y="-7.25" font-family="Helvetica,sans-Serif" font-size="10.00">::cpp}::rfc3986_uri_check</text>
</a>
</g>
</g>
<!-- Node4&#45;&gt;Node11 -->
<g id="edge13_Node000004_Node000011" class="edge">
<title>Node4&#45;&gt;Node11</title>
<g id="a_edge13_Node000004_Node000011"><a xlink:title=" ">
<path fill="none" stroke="#63b8ff" d="M685.63,-144.01C689.67,-141.71 693.5,-139.09 697,-136.12 725.51,-111.96 707.25,-87.21 733,-60.12 735.24,-57.77 737.65,-55.54 740.2,-53.42"/>
<polygon fill="#63b8ff" stroke="#63b8ff" points="742.14,-56.34 748.07,-47.56 737.96,-50.72 742.14,-56.34"/>
</a>
</g>
</g>
<!-- Node8 -->
<g id="Node000008" class="node">
<title>Node8</title>
<g id="a_Node000008"><a xlink:href="namespaceanonymous__namespace_02string-format-check_8cpp_03.html#a6340a152b415fab84af156f3afff080b" target="_top" xlink:title=" ">
<polygon fill="white" stroke="#666666" points="1228.75,-155.25 1094.25,-155.25 1094.25,-109 1228.75,-109 1228.75,-155.25"/>
<text xml:space="preserve" text-anchor="start" x="1102.25" y="-141.75" font-family="Helvetica,sans-Serif" font-size="10.00">anonymous_namespace</text>
<text xml:space="preserve" text-anchor="start" x="1102.25" y="-129" font-family="Helvetica,sans-Serif" font-size="10.00">{string&#45;format&#45;check</text>
<text xml:space="preserve" text-anchor="middle" x="1161.5" y="-116.25" font-family="Helvetica,sans-Serif" font-size="10.00">::cpp}::range_check</text>
</a>
</g>
</g>
<!-- Node7&#45;&gt;Node8 -->
<g id="edge7_Node000007_Node000008" class="edge">
<title>Node7&#45;&gt;Node8</title>
<g id="a_edge7_Node000007_Node000008"><a xlink:title=" ">
<path fill="none" stroke="#63b8ff" d="M1058.37,-150.69C1066.37,-149.24 1074.52,-147.76 1082.56,-146.3"/>
<polygon fill="#63b8ff" stroke="#63b8ff" points="1083.12,-149.75 1092.33,-144.52 1081.86,-142.87 1083.12,-149.75"/>
</a>
</g>
</g>
<!-- Node9&#45;&gt;Node7 -->
<g id="edge9_Node000009_Node000007" class="edge">
<title>Node9&#45;&gt;Node7</title>
<g id="a_edge9_Node000009_Node000007"><a xlink:title=" ">
<path fill="none" stroke="#63b8ff" d="M870.39,-144.04C879.27,-145.63 888.48,-147.28 897.63,-148.92"/>
<polygon fill="#63b8ff" stroke="#63b8ff" points="896.78,-152.32 907.24,-150.64 898.01,-145.43 896.78,-152.32"/>
</a>
</g>
</g>
<!-- Node9&#45;&gt;Node10 -->
<g id="edge10_Node000009_Node000010" class="edge">
<title>Node9&#45;&gt;Node10</title>
<g id="a_edge10_Node000009_Node000010"><a xlink:title=" ">
<path fill="none" stroke="#63b8ff" d="M870.39,-120.21C879.11,-118.65 888.13,-117.03 897.11,-115.42"/>
<polygon fill="#63b8ff" stroke="#63b8ff" points="897.71,-118.87 906.93,-113.66 896.47,-111.98 897.71,-118.87"/>
</a>
</g>
</g>
<!-- Node10&#45;&gt;Node8 -->
<g id="edge11_Node000010_Node000008" class="edge">
<title>Node10&#45;&gt;Node8</title>
<g id="a_edge11_Node000010_Node000008"><a xlink:title=" ">
<path fill="none" stroke="#63b8ff" d="M1058.63,-113.6C1066.61,-115.05 1074.75,-116.53 1082.77,-117.99"/>
<polygon fill="#63b8ff" stroke="#63b8ff" points="1082.05,-121.42 1092.52,-119.76 1083.31,-114.53 1082.05,-121.42"/>
</a>
</g>
</g>
</g>
</svg>
