<?xml version="1.0" encoding="UTF-8" standalone="no"?>
<!DOCTYPE svg PUBLIC "-//W3C//DTD SVG 1.1//EN"
 "http://www.w3.org/Graphics/SVG/1.1/DTD/svg11.dtd">
<!-- Generated by graphviz version 2.42.4 (0)
 -->
<!-- Title: mqtt::lib::MqttMapper::MqttMapper Pages: 1 -->
<svg width="770pt" height="138pt"
 viewBox="0.00 0.00 770.00 138.39" xmlns="http://www.w3.org/2000/svg" xmlns:xlink="http://www.w3.org/1999/xlink">
<g id="graph0" class="graph" transform="scale(1 1) rotate(0) translate(4 134.39)">
<title>mqtt::lib::MqttMapper::MqttMapper</title>
<!-- Node1 -->
<g id="Node000001" class="node">
<title>Node1</title>
<g id="a_Node000001"><a xlink:title=" ">
<polygon fill="#999999" stroke="#666666" points="123,-65.39 0,-65.39 0,-35.39 123,-35.39 123,-65.39"/>
<text text-anchor="start" x="8" y="-53.39" font-family="Helvetica,sans-Serif" font-size="10.00">mqtt::lib::MqttMapper</text>
<text text-anchor="middle" x="61.5" y="-42.39" font-family="Helvetica,sans-Serif" font-size="10.00">::MqttMapper</text>
</a>
</g>
</g>
<!-- Node2 -->
<g id="Node000002" class="node">
<title>Node2</title>
<g id="a_Node000002"><a xlink:href="classinja_1_1Environment.html#aacf2afb515ec7efb0b844174093fed6d" target="_top" xlink:title="Adds a variadic callback.">
<polygon fill="white" stroke="#666666" points="268,-130.39 159,-130.39 159,-100.39 268,-100.39 268,-130.39"/>
<text text-anchor="start" x="167" y="-118.39" font-family="Helvetica,sans-Serif" font-size="10.00">inja::Environment::</text>
<text text-anchor="middle" x="213.5" y="-107.39" font-family="Helvetica,sans-Serif" font-size="10.00">add_callback</text>
</a>
</g>
</g>
<!-- Node1&#45;&gt;Node2 -->
<g id="edge1_Node000001_Node000002" class="edge">
<title>Node1&#45;&gt;Node2</title>
<g id="a_edge1_Node000001_Node000002"><a xlink:title=" ">
<path fill="none" stroke="#63b8ff" d="M97.29,-65.46C118.42,-74.62 145.59,-86.39 168.24,-96.21"/>
<polygon fill="#63b8ff" stroke="#63b8ff" points="167.07,-99.52 177.64,-100.28 169.86,-93.09 167.07,-99.52"/>
</a>
</g>
</g>
<!-- Node3 -->
<g id="Node000003" class="node">
<title>Node3</title>
<g id="a_Node000003"><a xlink:href="classinja_1_1Environment.html#accda3196054131f8e8cd484ef92c0627" target="_top" xlink:title="Adds a callback with given number or arguments.">
<polygon fill="white" stroke="#666666" points="413,-89.39 304,-89.39 304,-59.39 413,-59.39 413,-89.39"/>
<text text-anchor="start" x="312" y="-77.39" font-family="Helvetica,sans-Serif" font-size="10.00">inja::Environment::</text>
<text text-anchor="middle" x="358.5" y="-66.39" font-family="Helvetica,sans-Serif" font-size="10.00">add_callback</text>
</a>
</g>
</g>
<!-- Node1&#45;&gt;Node3 -->
<g id="edge5_Node000001_Node000003" class="edge">
<title>Node1&#45;&gt;Node3</title>
<g id="a_edge5_Node000001_Node000003"><a xlink:title=" ">
<path fill="none" stroke="#63b8ff" d="M123.27,-55.33C172.97,-59.38 243.06,-65.08 293.6,-69.19"/>
<polygon fill="#63b8ff" stroke="#63b8ff" points="293.5,-72.69 303.75,-70.01 294.07,-65.72 293.5,-72.69"/>
</a>
</g>
</g>
<!-- Node6 -->
<g id="Node000006" class="node">
<title>Node6</title>
<g id="a_Node000006"><a xlink:href="classinja_1_1Environment.html#abf3676db94a59534d715e83f4d5e4940" target="_top" xlink:title="Adds a variadic void callback.">
<polygon fill="white" stroke="#666666" points="268,-44.39 159,-44.39 159,-14.39 268,-14.39 268,-44.39"/>
<text text-anchor="start" x="167" y="-32.39" font-family="Helvetica,sans-Serif" font-size="10.00">inja::Environment::</text>
<text text-anchor="middle" x="213.5" y="-21.39" font-family="Helvetica,sans-Serif" font-size="10.00">add_void_callback</text>
</a>
</g>
</g>
<!-- Node1&#45;&gt;Node6 -->
<g id="edge6_Node000001_Node000006" class="edge">
<title>Node1&#45;&gt;Node6</title>
<g id="a_edge6_Node000001_Node000006"><a xlink:title=" ">
<path fill="none" stroke="#63b8ff" d="M123.08,-41.91C131.61,-40.71 140.4,-39.48 148.99,-38.28"/>
<polygon fill="#63b8ff" stroke="#63b8ff" points="149.53,-41.74 158.94,-36.89 148.56,-34.81 149.53,-41.74"/>
</a>
</g>
</g>
<!-- Node7 -->
<g id="Node000007" class="node">
<title>Node7</title>
<g id="a_Node000007"><a xlink:href="classinja_1_1Environment.html#a3467986ae633a7c546a62c387b6c613f" target="_top" xlink:title="Adds a void callback with given number or arguments.">
<polygon fill="white" stroke="#666666" points="413,-41.39 304,-41.39 304,-11.39 413,-11.39 413,-41.39"/>
<text text-anchor="start" x="312" y="-29.39" font-family="Helvetica,sans-Serif" font-size="10.00">inja::Environment::</text>
<text text-anchor="middle" x="358.5" y="-18.39" font-family="Helvetica,sans-Serif" font-size="10.00">add_void_callback</text>
</a>
</g>
</g>
<!-- Node1&#45;&gt;Node7 -->
<g id="edge9_Node000001_Node000007" class="edge">
<title>Node1&#45;&gt;Node7</title>
<g id="a_edge9_Node000001_Node000007"><a xlink:title=" ">
<path fill="none" stroke="#63b8ff" d="M87.22,-35.17C106.11,-24.48 133.19,-11.11 159,-5.39 203.51,4.48 254.69,-1.34 293.93,-9.33"/>
<polygon fill="#63b8ff" stroke="#63b8ff" points="293.39,-12.79 303.9,-11.46 294.85,-5.95 293.39,-12.79"/>
</a>
</g>
</g>
<!-- Node2&#45;&gt;Node3 -->
<g id="edge2_Node000002_Node000003" class="edge">
<title>Node2&#45;&gt;Node3</title>
<g id="a_edge2_Node000002_Node000003"><a xlink:title=" ">
<path fill="none" stroke="#63b8ff" d="M266.94,-100.35C276.16,-97.71 285.85,-94.93 295.32,-92.22"/>
<polygon fill="#63b8ff" stroke="#63b8ff" points="296.42,-95.54 305.07,-89.42 294.49,-88.81 296.42,-95.54"/>
</a>
</g>
</g>
<!-- Node4 -->
<g id="Node000004" class="node">
<title>Node4</title>
<g id="a_Node000004"><a xlink:href="classinja_1_1FunctionStorage.html#ae6060e88dacd550e8b48992fd6f0500f" target="_top" xlink:title=" ">
<polygon fill="white" stroke="#666666" points="568,-65.39 449,-65.39 449,-35.39 568,-35.39 568,-65.39"/>
<text text-anchor="start" x="457" y="-53.39" font-family="Helvetica,sans-Serif" font-size="10.00">inja::FunctionStorage</text>
<text text-anchor="middle" x="508.5" y="-42.39" font-family="Helvetica,sans-Serif" font-size="10.00">::add_callback</text>
</a>
</g>
</g>
<!-- Node3&#45;&gt;Node4 -->
<g id="edge3_Node000003_Node000004" class="edge">
<title>Node3&#45;&gt;Node4</title>
<g id="a_edge3_Node000003_Node000004"><a xlink:title=" ">
<path fill="none" stroke="#63b8ff" d="M413.35,-65.66C421.67,-64.31 430.35,-62.9 438.94,-61.51"/>
<polygon fill="#63b8ff" stroke="#63b8ff" points="439.63,-64.94 448.94,-59.88 438.51,-58.03 439.63,-64.94"/>
</a>
</g>
</g>
<!-- Node5 -->
<g id="Node000005" class="node">
<title>Node5</title>
<g id="a_Node000005"><a xlink:href="structinja_1_1FunctionStorage_1_1FunctionData.html#a7e038999d61d736eb2868f64e4820ad7" target="_top" xlink:title=" ">
<polygon fill="white" stroke="#666666" points="762,-65.39 604,-65.39 604,-35.39 762,-35.39 762,-65.39"/>
<text text-anchor="start" x="612" y="-53.39" font-family="Helvetica,sans-Serif" font-size="10.00">inja::FunctionStorage</text>
<text text-anchor="middle" x="683" y="-42.39" font-family="Helvetica,sans-Serif" font-size="10.00">::FunctionData::FunctionData</text>
</a>
</g>
</g>
<!-- Node4&#45;&gt;Node5 -->
<g id="edge4_Node000004_Node000005" class="edge">
<title>Node4&#45;&gt;Node5</title>
<g id="a_edge4_Node000004_Node000005"><a xlink:title=" ">
<path fill="none" stroke="#63b8ff" d="M568.38,-50.39C576.59,-50.39 585.17,-50.39 593.77,-50.39"/>
<polygon fill="#63b8ff" stroke="#63b8ff" points="593.86,-53.89 603.86,-50.39 593.86,-46.89 593.86,-53.89"/>
</a>
</g>
</g>
<!-- Node6&#45;&gt;Node7 -->
<g id="edge7_Node000006_Node000007" class="edge">
<title>Node6&#45;&gt;Node7</title>
<g id="a_edge7_Node000006_Node000007"><a xlink:title=" ">
<path fill="none" stroke="#63b8ff" d="M268.15,-28.26C276.38,-28.09 284.94,-27.91 293.37,-27.73"/>
<polygon fill="#63b8ff" stroke="#63b8ff" points="293.62,-31.23 303.54,-27.52 293.47,-24.23 293.62,-31.23"/>
</a>
</g>
</g>
<!-- Node7&#45;&gt;Node4 -->
<g id="edge8_Node000007_Node000004" class="edge">
<title>Node7&#45;&gt;Node4</title>
<g id="a_edge8_Node000007_Node000004"><a xlink:title=" ">
<path fill="none" stroke="#63b8ff" d="M413.35,-35.12C421.67,-36.47 430.35,-37.88 438.94,-39.27"/>
<polygon fill="#63b8ff" stroke="#63b8ff" points="438.51,-42.75 448.94,-40.89 439.63,-35.84 438.51,-42.75"/>
</a>
</g>
</g>
</g>
</svg>
