<?xml version="1.0" encoding="UTF-8" standalone="no"?>
<!DOCTYPE svg PUBLIC "-//W3C//DTD SVG 1.1//EN"
 "http://www.w3.org/Graphics/SVG/1.1/DTD/svg11.dtd">
<!-- Generated by graphviz version 2.42.4 (0)
 -->
<!-- Title: inja::ExpressionNode Pages: 1 -->
<svg width="316pt" height="137pt"
 viewBox="0.00 0.00 316.00 137.00" xmlns="http://www.w3.org/2000/svg" xmlns:xlink="http://www.w3.org/1999/xlink">

<svg id="main" version="1.1" xmlns="http://www.w3.org/2000/svg" xmlns:xlink="http://www.w3.org/1999/xlink" xml:space="preserve" onload="init(evt)">
<style type="text/css"><![CDATA[
.node, .edge {opacity: 0.7;}
.node.selected, .edge.selected {opacity: 1;}
.edge:hover path { stroke: red; }
.edge:hover polygon { stroke: red; fill: red; }
]]></style>
<script type="application/ecmascript" xlink:href="svg.min.js"/>
<svg id="graph" class="graph">
<g id="graph0" class="graph" transform="scale(1 1) rotate(0) translate(4 133)">
<title>inja::ExpressionNode</title>
<!-- Node1 -->
<g id="Node000001" class="node">
<title>Node1</title>
<g id="a_Node000001"><a xlink:title=" ">
<polygon fill="#999999" stroke="transparent" points="206,-74 94,-74 94,-55 206,-55 206,-74"/>
<text text-anchor="start" x="98.5" y="-61.5" font-family="Helvetica,sans-Serif" font-size="10.00">inja::ExpressionNode</text>
<polygon fill="none" stroke="#666666" points="94,-55 94,-74 206,-74 206,-55 94,-55"/>
</a>
</g>
</g>
<!-- Node3 -->
<g id="Node000003" class="node">
<title>Node3</title>
<g id="a_Node000003"><a xlink:href="classinja_1_1DataNode.html" target="_top" xlink:title=" ">
<polygon fill="white" stroke="transparent" points="82,-19 0,-19 0,0 82,0 82,-19"/>
<text text-anchor="start" x="4.5" y="-6.5" font-family="Helvetica,sans-Serif" font-size="10.00">inja::DataNode</text>
<polygon fill="none" stroke="#666666" points="0,0 0,-19 82,-19 82,0 0,0"/>
</a>
</g>
</g>
<!-- Node1&#45;&gt;Node3 -->
<g id="edge2_Node000001_Node000003" class="edge">
<title>Node1&#45;&gt;Node3</title>
<g id="a_edge2_Node000001_Node000003"><a xlink:title=" ">
<path fill="none" stroke="#63b8ff" d="M123.27,-50.5C103.21,-40.75 76.32,-27.68 58.83,-19.17"/>
<polygon fill="none" stroke="#63b8ff" points="121.96,-53.76 132.49,-54.98 125.02,-47.46 121.96,-53.76"/>
</a>
</g>
</g>
<!-- Node4 -->
<g id="Node000004" class="node">
<title>Node4</title>
<g id="a_Node000004"><a xlink:href="classinja_1_1FunctionNode.html" target="_top" xlink:title=" ">
<polygon fill="white" stroke="transparent" points="200,-19 100,-19 100,0 200,0 200,-19"/>
<text text-anchor="start" x="104.5" y="-6.5" font-family="Helvetica,sans-Serif" font-size="10.00">inja::FunctionNode</text>
<polygon fill="none" stroke="#666666" points="100,0 100,-19 200,-19 200,0 100,0"/>
</a>
</g>
</g>
<!-- Node1&#45;&gt;Node4 -->
<g id="edge3_Node000001_Node000004" class="edge">
<title>Node1&#45;&gt;Node4</title>
<g id="a_edge3_Node000001_Node000004"><a xlink:title=" ">
<path fill="none" stroke="#63b8ff" d="M150,-44.66C150,-35.93 150,-25.99 150,-19.09"/>
<polygon fill="none" stroke="#63b8ff" points="146.5,-44.75 150,-54.75 153.5,-44.75 146.5,-44.75"/>
</a>
</g>
</g>
<!-- Node5 -->
<g id="Node000005" class="node">
<title>Node5</title>
<g id="a_Node000005"><a xlink:href="classinja_1_1LiteralNode.html" target="_top" xlink:title=" ">
<polygon fill="white" stroke="transparent" points="308,-19 218,-19 218,0 308,0 308,-19"/>
<text text-anchor="start" x="222.5" y="-6.5" font-family="Helvetica,sans-Serif" font-size="10.00">inja::LiteralNode</text>
<polygon fill="none" stroke="#666666" points="218,0 218,-19 308,-19 308,0 218,0"/>
</a>
</g>
</g>
<!-- Node1&#45;&gt;Node5 -->
<g id="edge4_Node000001_Node000005" class="edge">
<title>Node1&#45;&gt;Node5</title>
<g id="a_edge4_Node000001_Node000005"><a xlink:title=" ">
<path fill="none" stroke="#63b8ff" d="M177.43,-50.63C198.25,-40.87 226.3,-27.71 244.51,-19.17"/>
<polygon fill="none" stroke="#63b8ff" points="175.72,-47.57 168.16,-54.98 178.7,-53.91 175.72,-47.57"/>
</a>
</g>
</g>
<!-- Node2 -->
<g id="Node000002" class="node">
<title>Node2</title>
<g id="a_Node000002"><a xlink:href="classinja_1_1AstNode.html" target="_top" xlink:title="Base node class for the abstract syntax tree (AST).">
<polygon fill="white" stroke="transparent" points="187,-129 113,-129 113,-110 187,-110 187,-129"/>
<text text-anchor="start" x="117" y="-116.5" font-family="Helvetica,sans-Serif" font-size="10.00">inja::AstNode</text>
<polygon fill="none" stroke="#666666" points="113,-110 113,-129 187,-129 187,-110 113,-110"/>
</a>
</g>
</g>
<!-- Node2&#45;&gt;Node1 -->
<g id="edge1_Node000001_Node000002" class="edge">
<title>Node2&#45;&gt;Node1</title>
<g id="a_edge1_Node000001_Node000002"><a xlink:title=" ">
<path fill="none" stroke="#63b8ff" d="M150,-99.66C150,-90.93 150,-80.99 150,-74.09"/>
<polygon fill="none" stroke="#63b8ff" points="146.5,-99.75 150,-109.75 153.5,-99.75 146.5,-99.75"/>
</a>
</g>
</g>
</g>
</svg>
</svg>

<style type='text/css'>
<![CDATA[
[data-mouse-over-selected='false'] { opacity: 0.7; }
[data-mouse-over-selected='true']  { opacity: 1.0; }
]]>
</style>
<script type="application/ecmascript"><![CDATA[
document.addEventListener('DOMContentLoaded', (event) => {
  highlightEdges();
  highlightAdjacentNodes();
});
]]></script>
</svg>
