<?xml version="1.0" encoding="UTF-8" standalone="no"?>
<!DOCTYPE svg PUBLIC "-//W3C//DTD SVG 1.1//EN"
 "http://www.w3.org/Graphics/SVG/1.1/DTD/svg11.dtd">
<!-- Generated by graphviz version 2.42.4 (0)
 -->
<!-- Title: nlohmann::json_uri::fragment Pages: 1 -->
<!--zoomable 538 -->

<svg id="main" version="1.1" xmlns="http://www.w3.org/2000/svg" xmlns:xlink="http://www.w3.org/1999/xlink" xml:space="preserve" onload="init(evt)">

<style type="text/css"><![CDATA[
.node, .edge {opacity: 0.7;}
.node.selected, .edge.selected {opacity: 1;}
.edge:hover path { stroke: red; }
.edge:hover polygon { stroke: red; fill: red; }
]]></style>

<defs>
  <circle id="rim" cx="0" cy="0" r="7"/>
  <circle id="rim2" cx="0" cy="0" r="3.5"/>
  <g id="zoomPlus">
    <use xlink:href="#rim" fill="#404040"><set attributeName="fill" to="#808080" begin="zoomplus.mouseover" end="zoomplus.mouseout"/></use>
    <path d="M-4,0h8M0,-4v8" fill="none" stroke="white" stroke-width="1.5" pointer-events="none"/>
  </g>
  <g id="zoomMin">
    <use xlink:href="#rim" fill="#404040"><set attributeName="fill" to="#808080" begin="zoomminus.mouseover" end="zoomminus.mouseout"/></use>
    <path d="M-4,0h8" fill="none" stroke="white" stroke-width="1.5" pointer-events="none"/>
  </g>
  <g id="arrowUp" transform="translate(30 24)">
    <use xlink:href="#rim"/>
    <path pointer-events="none" fill="none" stroke="white" stroke-width="1.5" d="M0,-3.0v7 M-2.5,-0.5L0,-3.0L2.5,-0.5"/>
  </g>
  <g id="arrowRight" transform="rotate(90) translate(36 -43)">
    <use xlink:href="#rim"/>
    <path pointer-events="none" fill="none" stroke="white" stroke-width="1.5" d="M0,-3.0v7 M-2.5,-0.5L0,-3.0L2.5,-0.5"/>
  </g>
  <g id="arrowDown" transform="rotate(180) translate(-30 -48)">
    <use xlink:href="#rim"/>
    <path pointer-events="none" fill="none" stroke="white" stroke-width="1.5" d="M0,-3.0v7 M-2.5,-0.5L0,-3.0L2.5,-0.5"/>
  </g>
  <g id="arrowLeft" transform="rotate(270) translate(-36 17)">
    <use xlink:href="#rim"/>
    <path pointer-events="none" fill="none" stroke="white" stroke-width="1.5" d="M0,-3.0v7 M-2.5,-0.5L0,-3.0L2.5,-0.5"/>
  </g>
  <g id="resetDef">
    <use xlink:href="#rim2" fill="#404040"><set attributeName="fill" to="#808080" begin="reset.mouseover" end="reset.mouseout"/></use>
  </g>
</defs>
<script type="application/ecmascript">
var viewWidth = 1504;
var viewHeight = 538;
var sectionId = 'dynsection-8';
</script>
<script type="application/ecmascript" xlink:href="svg.min.js"/>
<svg id="graph" class="graph">
<g id="viewport">
<title>nlohmann::json_uri::fragment</title>
<!-- Node1 -->
<g id="Node000001" class="node">
<title>Node1</title>
<g id="a_Node000001"><a xlink:title=" ">
<polygon fill="#999999" stroke="#666666" points="1496,-242.5 1386,-242.5 1386,-212.5 1496,-212.5 1496,-242.5"/>
<text text-anchor="start" x="1394" y="-230.5" font-family="Helvetica,sans-Serif" font-size="10.00">nlohmann::json_uri</text>
<text text-anchor="middle" x="1441" y="-219.5" font-family="Helvetica,sans-Serif" font-size="10.00">::fragment</text>
</a>
</g>
</g>
<!-- Node2 -->
<g id="Node000002" class="node">
<title>Node2</title>
<g id="a_Node000002"><a xlink:href="classnlohmann_1_1json__schema_1_1root__schema.html#a7e890c03f941280b76fbdb4d5bb73065" target="_top" xlink:title=" ">
<polygon fill="white" stroke="#666666" points="1350,-248 1215,-248 1215,-207 1350,-207 1350,-248"/>
<text text-anchor="start" x="1223" y="-236" font-family="Helvetica,sans-Serif" font-size="10.00">nlohmann::json_schema</text>
<text text-anchor="start" x="1223" y="-225" font-family="Helvetica,sans-Serif" font-size="10.00">::root_schema::get_or</text>
<text text-anchor="middle" x="1282.5" y="-214" font-family="Helvetica,sans-Serif" font-size="10.00">_create_ref</text>
</a>
</g>
</g>
<!-- Node1&#45;&gt;Node2 -->
<g id="edge1_Node000001_Node000002" class="edge">
<title>Node1&#45;&gt;Node2</title>
<g id="a_edge1_Node000001_Node000002"><a xlink:title=" ">
<path fill="none" stroke="#63b8ff" d="M1375.59,-227.5C1367.18,-227.5 1358.56,-227.5 1350.12,-227.5"/>
<polygon fill="#63b8ff" stroke="#63b8ff" points="1375.7,-231 1385.7,-227.5 1375.7,-224 1375.7,-231"/>
</a>
</g>
</g>
<!-- Node33 -->
<g id="Node000033" class="node">
<title>Node33</title>
<g id="a_Node000033"><a xlink:href="classnlohmann_1_1json__schema_1_1root__schema.html#a685904131f0693e56f14a9e9db5f044e" target="_top" xlink:title=" ">
<polygon fill="white" stroke="#666666" points="1350,-296.5 1215,-296.5 1215,-266.5 1350,-266.5 1350,-296.5"/>
<text text-anchor="start" x="1223" y="-284.5" font-family="Helvetica,sans-Serif" font-size="10.00">nlohmann::json_schema</text>
<text text-anchor="middle" x="1282.5" y="-273.5" font-family="Helvetica,sans-Serif" font-size="10.00">::root_schema::insert</text>
</a>
</g>
</g>
<!-- Node1&#45;&gt;Node33 -->
<g id="edge38_Node000001_Node000033" class="edge">
<title>Node1&#45;&gt;Node33</title>
<g id="a_edge38_Node000001_Node000033"><a xlink:title=" ">
<path fill="none" stroke="#63b8ff" d="M1386.78,-245.86C1367.36,-252.57 1345.63,-260.06 1327.13,-266.45"/>
<polygon fill="#63b8ff" stroke="#63b8ff" points="1388.09,-249.11 1396.41,-242.54 1385.81,-242.5 1388.09,-249.11"/>
</a>
</g>
</g>
<!-- Node34 -->
<g id="Node000034" class="node">
<title>Node34</title>
<g id="a_Node000034"><a xlink:href="classnlohmann_1_1json__schema_1_1root__schema.html#a32f6012c2d81f29ca16e4409dd2b5ea3" target="_top" xlink:title=" ">
<polygon fill="white" stroke="#666666" points="1179,-190.5 1044,-190.5 1044,-160.5 1179,-160.5 1179,-190.5"/>
<text text-anchor="start" x="1052" y="-178.5" font-family="Helvetica,sans-Serif" font-size="10.00">nlohmann::json_schema</text>
<text text-anchor="middle" x="1111.5" y="-167.5" font-family="Helvetica,sans-Serif" font-size="10.00">::root_schema::validate</text>
</a>
</g>
</g>
<!-- Node1&#45;&gt;Node34 -->
<g id="edge40_Node000001_Node000034" class="edge">
<title>Node1&#45;&gt;Node34</title>
<g id="a_edge40_Node000001_Node000034"><a xlink:title=" ">
<path fill="none" stroke="#63b8ff" d="M1391.27,-209C1378.04,-204.6 1363.62,-200.36 1350,-197.5 1293.06,-185.54 1227.09,-180.08 1179.14,-177.59"/>
<polygon fill="#63b8ff" stroke="#63b8ff" points="1390.52,-212.44 1401.11,-212.37 1392.78,-205.82 1390.52,-212.44"/>
</a>
</g>
</g>
<!-- Node3 -->
<g id="Node000003" class="node">
<title>Node3</title>
<g id="a_Node000003"><a xlink:href="classanonymous__namespace_02json-validator_8cpp_03_1_1schema.html#aafee860997369c77204d5b1a7d095c3f" target="_top" xlink:title=" ">
<polygon fill="white" stroke="#666666" points="1179,-276 1044,-276 1044,-235 1179,-235 1179,-276"/>
<text text-anchor="start" x="1052" y="-264" font-family="Helvetica,sans-Serif" font-size="10.00">anonymous_namespace</text>
<text text-anchor="start" x="1052" y="-253" font-family="Helvetica,sans-Serif" font-size="10.00">{json&#45;validator::cpp}</text>
<text text-anchor="middle" x="1111.5" y="-242" font-family="Helvetica,sans-Serif" font-size="10.00">::schema::make</text>
</a>
</g>
</g>
<!-- Node2&#45;&gt;Node3 -->
<g id="edge2_Node000002_Node000003" class="edge">
<title>Node2&#45;&gt;Node3</title>
<g id="a_edge2_Node000002_Node000003"><a xlink:title=" ">
<path fill="none" stroke="#63b8ff" d="M1204.73,-233.49C1196.17,-234.86 1187.5,-236.33 1179.08,-237.85"/>
<polygon fill="#63b8ff" stroke="#63b8ff" points="1205.36,-236.94 1214.71,-231.95 1204.29,-230.02 1205.36,-236.94"/>
</a>
</g>
</g>
<!-- Node3&#45;&gt;Node2 -->
<g id="edge4_Node000003_Node000002" class="edge">
<title>Node3&#45;&gt;Node2</title>
<g id="a_edge4_Node000003_Node000002"><a xlink:title=" ">
<path fill="none" stroke="#63b8ff" d="M1189.06,-249.54C1197.62,-248.18 1206.28,-246.71 1214.71,-245.18"/>
<polygon fill="#63b8ff" stroke="#63b8ff" points="1188.43,-246.09 1179.08,-251.08 1189.5,-253.01 1188.43,-246.09"/>
</a>
</g>
</g>
<!-- Node3&#45;&gt;Node3 -->
<g id="edge10_Node000003_Node000003" class="edge">
<title>Node3&#45;&gt;Node3</title>
<g id="a_edge10_Node000003_Node000003"><a xlink:title=" ">
<path fill="none" stroke="#63b8ff" d="M1140.75,-285.96C1136.4,-290.74 1126.65,-294 1111.5,-294 1087.26,-294 1076.85,-285.65 1080.26,-276.1"/>
<polygon fill="#63b8ff" stroke="#63b8ff" points="1144.19,-286.59 1142.74,-276.1 1137.33,-285.2 1144.19,-286.59"/>
</a>
</g>
</g>
<!-- Node4 -->
<g id="Node000004" class="node">
<title>Node4</title>
<g id="a_Node000004"><a xlink:href="classanonymous__namespace_02json-validator_8cpp_03_1_1array.html#ad16bb35faff550ae0c7014de82822e71" target="_top" xlink:title=" ">
<polygon fill="white" stroke="#666666" points="996,-353 861,-353 861,-312 996,-312 996,-353"/>
<text text-anchor="start" x="869" y="-341" font-family="Helvetica,sans-Serif" font-size="10.00">anonymous_namespace</text>
<text text-anchor="start" x="869" y="-330" font-family="Helvetica,sans-Serif" font-size="10.00">{json&#45;validator::cpp}</text>
<text text-anchor="middle" x="928.5" y="-319" font-family="Helvetica,sans-Serif" font-size="10.00">::array::array</text>
</a>
</g>
</g>
<!-- Node3&#45;&gt;Node4 -->
<g id="edge3_Node000003_Node000004" class="edge">
<title>Node3&#45;&gt;Node4</title>
<g id="a_edge3_Node000003_Node000004"><a xlink:title=" ">
<path fill="none" stroke="#63b8ff" d="M1058.18,-280.28C1042.17,-287.65 1024.45,-295.6 1008,-302.5 1000.47,-305.66 992.47,-308.88 984.58,-311.97"/>
<polygon fill="#63b8ff" stroke="#63b8ff" points="1059.78,-283.4 1067.38,-276.02 1056.84,-277.05 1059.78,-283.4"/>
</a>
</g>
</g>
<!-- Node5 -->
<g id="Node000005" class="node">
<title>Node5</title>
<g id="a_Node000005"><a xlink:href="classnlohmann_1_1json__schema_1_1root__schema.html#a4c543fe7b89e76b3fdd17a6883696238" target="_top" xlink:title=" ">
<polygon fill="white" stroke="#666666" points="996,-276 861,-276 861,-235 996,-235 996,-276"/>
<text text-anchor="start" x="869" y="-264" font-family="Helvetica,sans-Serif" font-size="10.00">nlohmann::json_schema</text>
<text text-anchor="start" x="869" y="-253" font-family="Helvetica,sans-Serif" font-size="10.00">::root_schema::insert</text>
<text text-anchor="middle" x="928.5" y="-242" font-family="Helvetica,sans-Serif" font-size="10.00">_unknown_keyword</text>
</a>
</g>
</g>
<!-- Node3&#45;&gt;Node5 -->
<g id="edge5_Node000003_Node000005" class="edge">
<title>Node3&#45;&gt;Node5</title>
<g id="a_edge5_Node000003_Node000005"><a xlink:title=" ">
<path fill="none" stroke="#63b8ff" d="M1033.56,-248.82C1021.17,-248.69 1008.42,-248.74 996.29,-248.96"/>
<polygon fill="#63b8ff" stroke="#63b8ff" points="1033.82,-252.32 1043.87,-248.96 1033.92,-245.32 1033.82,-252.32"/>
</a>
</g>
</g>
<!-- Node6 -->
<g id="Node000006" class="node">
<title>Node6</title>
<g id="a_Node000006"><a xlink:href="classanonymous__namespace_02json-validator_8cpp_03_1_1logical__combination.html#af6e410a20a726f16733df11cfa9f8ff5" target="_top" xlink:title=" ">
<polygon fill="white" stroke="#666666" points="996,-216.5 861,-216.5 861,-164.5 996,-164.5 996,-216.5"/>
<text text-anchor="start" x="869" y="-204.5" font-family="Helvetica,sans-Serif" font-size="10.00">anonymous_namespace</text>
<text text-anchor="start" x="869" y="-193.5" font-family="Helvetica,sans-Serif" font-size="10.00">{json&#45;validator::cpp}</text>
<text text-anchor="start" x="869" y="-182.5" font-family="Helvetica,sans-Serif" font-size="10.00">::logical_combination</text>
<text text-anchor="middle" x="928.5" y="-171.5" font-family="Helvetica,sans-Serif" font-size="10.00">::logical_combination</text>
</a>
</g>
</g>
<!-- Node3&#45;&gt;Node6 -->
<g id="edge8_Node000003_Node000006" class="edge">
<title>Node3&#45;&gt;Node6</title>
<g id="a_edge8_Node000003_Node000006"><a xlink:title=" ">
<path fill="none" stroke="#63b8ff" d="M1043.72,-231.52C1028.21,-225.95 1011.7,-220.02 996.19,-214.45"/>
<polygon fill="#63b8ff" stroke="#63b8ff" points="1042.64,-234.85 1053.23,-234.93 1045,-228.26 1042.64,-234.85"/>
</a>
</g>
</g>
<!-- Node7 -->
<g id="Node000007" class="node">
<title>Node7</title>
<g id="a_Node000007"><a xlink:href="classanonymous__namespace_02json-validator_8cpp_03_1_1logical__not.html#a5ac57fd40f4d28a3def56b84a8e8cd4f" target="_top" xlink:title=" ">
<polygon fill="white" stroke="#666666" points="996,-146 861,-146 861,-105 996,-105 996,-146"/>
<text text-anchor="start" x="869" y="-134" font-family="Helvetica,sans-Serif" font-size="10.00">anonymous_namespace</text>
<text text-anchor="start" x="869" y="-123" font-family="Helvetica,sans-Serif" font-size="10.00">{json&#45;validator::cpp}</text>
<text text-anchor="middle" x="928.5" y="-112" font-family="Helvetica,sans-Serif" font-size="10.00">::logical_not::logical_not</text>
</a>
</g>
</g>
<!-- Node3&#45;&gt;Node7 -->
<g id="edge9_Node000003_Node000007" class="edge">
<title>Node3&#45;&gt;Node7</title>
<g id="a_edge9_Node000003_Node000007"><a xlink:title=" ">
<path fill="none" stroke="#63b8ff" d="M1075.75,-228.3C1065.19,-219.5 1053.8,-209.44 1044,-199.5 1026.26,-181.51 1028.49,-170.28 1008,-155.5 1003.15,-152 997.84,-148.85 992.34,-146.03"/>
<polygon fill="#63b8ff" stroke="#63b8ff" points="1073.67,-231.12 1083.62,-234.76 1078.11,-225.71 1073.67,-231.12"/>
</a>
</g>
</g>
<!-- Node8 -->
<g id="Node000008" class="node">
<title>Node8</title>
<g id="a_Node000008"><a xlink:href="classanonymous__namespace_02json-validator_8cpp_03_1_1object.html#a51137ac019fc30c7ab57f839cd9a3638" target="_top" xlink:title=" ">
<polygon fill="white" stroke="#666666" points="996,-530 861,-530 861,-489 996,-489 996,-530"/>
<text text-anchor="start" x="869" y="-518" font-family="Helvetica,sans-Serif" font-size="10.00">anonymous_namespace</text>
<text text-anchor="start" x="869" y="-507" font-family="Helvetica,sans-Serif" font-size="10.00">{json&#45;validator::cpp}</text>
<text text-anchor="middle" x="928.5" y="-496" font-family="Helvetica,sans-Serif" font-size="10.00">::object::object</text>
</a>
</g>
</g>
<!-- Node3&#45;&gt;Node8 -->
<g id="edge11_Node000003_Node000008" class="edge">
<title>Node3&#45;&gt;Node8</title>
<g id="a_edge11_Node000003_Node000008"><a xlink:title=" ">
<path fill="none" stroke="#63b8ff" d="M1104.48,-286.06C1093.52,-333.95 1065.89,-426.72 1008,-480.5 1004.38,-483.86 1000.34,-486.84 996.05,-489.48"/>
<polygon fill="#63b8ff" stroke="#63b8ff" points="1107.96,-286.52 1106.69,-276.01 1101.13,-285.02 1107.96,-286.52"/>
</a>
</g>
</g>
<!-- Node9 -->
<g id="Node000009" class="node">
<title>Node9</title>
<g id="a_Node000009"><a xlink:href="classnlohmann_1_1json__schema_1_1root__schema.html#aa92bf9509db49548416a244fb4528e3c" target="_top" xlink:title=" ">
<polygon fill="white" stroke="#666666" points="996,-471 861,-471 861,-430 996,-430 996,-471"/>
<text text-anchor="start" x="869" y="-459" font-family="Helvetica,sans-Serif" font-size="10.00">nlohmann::json_schema</text>
<text text-anchor="start" x="869" y="-448" font-family="Helvetica,sans-Serif" font-size="10.00">::root_schema::set_root</text>
<text text-anchor="middle" x="928.5" y="-437" font-family="Helvetica,sans-Serif" font-size="10.00">_schema</text>
</a>
</g>
</g>
<!-- Node3&#45;&gt;Node9 -->
<g id="edge12_Node000003_Node000009" class="edge">
<title>Node3&#45;&gt;Node9</title>
<g id="a_edge12_Node000003_Node000009"><a xlink:title=" ">
<path fill="none" stroke="#63b8ff" d="M1099.03,-285.87C1083.64,-322.8 1052.93,-384.74 1008,-421.5 1004.18,-424.63 999.98,-427.44 995.59,-429.96"/>
<polygon fill="#63b8ff" stroke="#63b8ff" points="1102.46,-286.74 1102.97,-276.16 1095.97,-284.11 1102.46,-286.74"/>
</a>
</g>
</g>
<!-- Node32 -->
<g id="Node000032" class="node">
<title>Node32</title>
<g id="a_Node000032"><a xlink:href="classanonymous__namespace_02json-validator_8cpp_03_1_1type__schema.html#a72ff3c13768d129592b9d088316d0d99" target="_top" xlink:title=" ">
<polygon fill="white" stroke="#666666" points="1008,-412 849,-412 849,-371 1008,-371 1008,-412"/>
<text text-anchor="start" x="857" y="-400" font-family="Helvetica,sans-Serif" font-size="10.00">anonymous_namespace</text>
<text text-anchor="start" x="857" y="-389" font-family="Helvetica,sans-Serif" font-size="10.00">{json&#45;validator::cpp}</text>
<text text-anchor="middle" x="928.5" y="-378" font-family="Helvetica,sans-Serif" font-size="10.00">::type_schema::type_schema</text>
</a>
</g>
</g>
<!-- Node3&#45;&gt;Node32 -->
<g id="edge37_Node000003_Node000032" class="edge">
<title>Node3&#45;&gt;Node32</title>
<g id="a_edge37_Node000003_Node000032"><a xlink:title=" ">
<path fill="none" stroke="#63b8ff" d="M1089.04,-284.33C1070.02,-308.12 1040.33,-341.3 1008,-362.5 1003.38,-365.53 998.41,-368.29 993.28,-370.81"/>
<polygon fill="#63b8ff" stroke="#63b8ff" points="1091.89,-286.37 1095.3,-276.34 1086.38,-282.05 1091.89,-286.37"/>
</a>
</g>
</g>
<!-- Node5&#45;&gt;Node3 -->
<g id="edge7_Node000005_Node000003" class="edge">
<title>Node5&#45;&gt;Node3</title>
<g id="a_edge7_Node000005_Node000003"><a xlink:title=" ">
<path fill="none" stroke="#63b8ff" d="M1006.6,-262.18C1019,-262.31 1031.75,-262.26 1043.87,-262.04"/>
<polygon fill="#63b8ff" stroke="#63b8ff" points="1006.34,-258.68 996.29,-262.04 1006.24,-265.68 1006.34,-258.68"/>
</a>
</g>
</g>
<!-- Node5&#45;&gt;Node5 -->
<g id="edge6_Node000005_Node000005" class="edge">
<title>Node5&#45;&gt;Node5</title>
<g id="a_edge6_Node000005_Node000005"><a xlink:title=" ">
<path fill="none" stroke="#63b8ff" d="M959.81,-285.96C955.16,-290.74 944.72,-294 928.5,-294 902.55,-294 891.4,-285.65 895.05,-276.1"/>
<polygon fill="#63b8ff" stroke="#63b8ff" points="963.25,-286.61 961.95,-276.1 956.41,-285.13 963.25,-286.61"/>
</a>
</g>
</g>
<!-- Node10 -->
<g id="Node000010" class="node">
<title>Node10</title>
<g id="a_Node000010"><a xlink:href="classnlohmann_1_1json__schema_1_1json__validator.html#a13e1d3029c8953bb9c7d1879382edb03" target="_top" xlink:title=" ">
<polygon fill="white" stroke="#666666" points="812,-224 677,-224 677,-183 812,-183 812,-224"/>
<text text-anchor="start" x="685" y="-212" font-family="Helvetica,sans-Serif" font-size="10.00">nlohmann::json_schema</text>
<text text-anchor="start" x="685" y="-201" font-family="Helvetica,sans-Serif" font-size="10.00">::json_validator::set</text>
<text text-anchor="middle" x="744.5" y="-190" font-family="Helvetica,sans-Serif" font-size="10.00">_root_schema</text>
</a>
</g>
</g>
<!-- Node9&#45;&gt;Node10 -->
<g id="edge13_Node000009_Node000010" class="edge">
<title>Node9&#45;&gt;Node10</title>
<g id="a_edge13_Node000009_Node000010"><a xlink:title=" ">
<path fill="none" stroke="#63b8ff" d="M852.43,-424.43C851.25,-423.49 850.11,-422.51 849,-421.5 788.09,-365.8 759.63,-266.73 749.75,-224.03"/>
<polygon fill="#63b8ff" stroke="#63b8ff" points="850.43,-427.31 860.63,-430.19 854.45,-421.58 850.43,-427.31"/>
</a>
</g>
</g>
<!-- Node30 -->
<g id="Node000030" class="node">
<title>Node30</title>
<g id="a_Node000030"><a xlink:href="classnlohmann_1_1json__schema_1_1json__validator.html#a48f742fda328ff2dc2de223e9452c4d1" target="_top" xlink:title=" ">
<polygon fill="white" stroke="#666666" points="812,-471 677,-471 677,-430 812,-430 812,-471"/>
<text text-anchor="start" x="685" y="-459" font-family="Helvetica,sans-Serif" font-size="10.00">nlohmann::json_schema</text>
<text text-anchor="start" x="685" y="-448" font-family="Helvetica,sans-Serif" font-size="10.00">::json_validator::set</text>
<text text-anchor="middle" x="744.5" y="-437" font-family="Helvetica,sans-Serif" font-size="10.00">_root_schema</text>
</a>
</g>
</g>
<!-- Node9&#45;&gt;Node30 -->
<g id="edge34_Node000009_Node000030" class="edge">
<title>Node9&#45;&gt;Node30</title>
<g id="a_edge34_Node000009_Node000030"><a xlink:title=" ">
<path fill="none" stroke="#63b8ff" d="M850.63,-450.5C837.86,-450.5 824.72,-450.5 812.23,-450.5"/>
<polygon fill="#63b8ff" stroke="#63b8ff" points="850.76,-454 860.76,-450.5 850.76,-447 850.76,-454"/>
</a>
</g>
</g>
<!-- Node11 -->
<g id="Node000011" class="node">
<title>Node11</title>
<g id="a_Node000011"><a xlink:href="classnlohmann_1_1json__schema_1_1json__validator.html#ad8f46dfed69afe463732ae335879dabb" target="_top" xlink:title=" ">
<polygon fill="white" stroke="#666666" points="639,-316 504,-316 504,-275 639,-275 639,-316"/>
<text text-anchor="start" x="512" y="-304" font-family="Helvetica,sans-Serif" font-size="10.00">nlohmann::json_schema</text>
<text text-anchor="start" x="512" y="-293" font-family="Helvetica,sans-Serif" font-size="10.00">::json_validator::json</text>
<text text-anchor="middle" x="571.5" y="-282" font-family="Helvetica,sans-Serif" font-size="10.00">_validator</text>
</a>
</g>
</g>
<!-- Node10&#45;&gt;Node11 -->
<g id="edge14_Node000010_Node000011" class="edge">
<title>Node10&#45;&gt;Node11</title>
<g id="a_edge14_Node000010_Node000011"><a xlink:title=" ">
<path fill="none" stroke="#63b8ff" d="M697.65,-229.07C679.72,-238.99 658.95,-250.37 640,-260.5 631.15,-265.23 621.61,-270.24 612.56,-274.94"/>
<polygon fill="#63b8ff" stroke="#63b8ff" points="699.69,-231.95 706.74,-224.04 696.29,-225.82 699.69,-231.95"/>
</a>
</g>
</g>
<!-- Node23 -->
<g id="Node000023" class="node">
<title>Node23</title>
<g id="a_Node000023"><a xlink:href="format_8cpp.html#ae66f6b31b5ad750f1fe042a706a4e3d4" target="_top" xlink:title=" ">
<polygon fill="white" stroke="#666666" points="399,-213 358,-213 358,-194 399,-194 399,-213"/>
<text text-anchor="middle" x="378.5" y="-201" font-family="Helvetica,sans-Serif" font-size="10.00">main</text>
</a>
</g>
</g>
<!-- Node10&#45;&gt;Node23 -->
<g id="edge26_Node000010_Node000023" class="edge">
<title>Node10&#45;&gt;Node23</title>
<g id="a_edge26_Node000010_Node000023"><a xlink:title=" ">
<path fill="none" stroke="#63b8ff" d="M666.74,-223.34C657.78,-225.05 648.72,-226.5 640,-227.5 579.51,-234.42 563.61,-233.33 503,-227.5 483.11,-225.58 428.55,-214.14 399.05,-207.77"/>
<polygon fill="#63b8ff" stroke="#63b8ff" points="667.69,-226.72 676.8,-221.31 666.31,-219.85 667.69,-226.72"/>
</a>
</g>
</g>
<!-- Node24 -->
<g id="Node000024" class="node">
<title>Node24</title>
<g id="a_Node000024"><a xlink:href="json-schema-validate_8cpp.html#a0ddf1224851353fc92bfbff6f499fa97" target="_top" xlink:title=" ">
<polygon fill="white" stroke="#666666" points="592,-132 551,-132 551,-113 592,-113 592,-132"/>
<text text-anchor="middle" x="571.5" y="-120" font-family="Helvetica,sans-Serif" font-size="10.00">main</text>
</a>
</g>
</g>
<!-- Node10&#45;&gt;Node24 -->
<g id="edge27_Node000010_Node000024" class="edge">
<title>Node10&#45;&gt;Node24</title>
<g id="a_edge27_Node000010_Node000024"><a xlink:title=" ">
<path fill="none" stroke="#63b8ff" d="M700.56,-177.81C682.24,-167.39 660.42,-155.68 640,-146.5 624.23,-139.41 605.69,-132.94 592.03,-128.51"/>
<polygon fill="#63b8ff" stroke="#63b8ff" points="698.83,-180.86 709.24,-182.8 702.32,-174.79 698.83,-180.86"/>
</a>
</g>
</g>
<!-- Node25 -->
<g id="Node000025" class="node">
<title>Node25</title>
<g id="a_Node000025"><a xlink:href="errors_8cpp.html#a840291bc02cba5474a4cb46a9b9566fe" target="_top" xlink:title=" ">
<polygon fill="white" stroke="#666666" points="592,-95 551,-95 551,-76 592,-76 592,-95"/>
<text text-anchor="middle" x="571.5" y="-83" font-family="Helvetica,sans-Serif" font-size="10.00">main</text>
</a>
</g>
</g>
<!-- Node10&#45;&gt;Node25 -->
<g id="edge28_Node000010_Node000025" class="edge">
<title>Node10&#45;&gt;Node25</title>
<g id="a_edge28_Node000010_Node000025"><a xlink:title=" ">
<path fill="none" stroke="#63b8ff" d="M720.91,-174.77C701.69,-152.21 672.16,-121.67 640,-103.5 625.11,-95.09 606.15,-90.48 592.11,-88.04"/>
<polygon fill="#63b8ff" stroke="#63b8ff" points="718.41,-177.24 727.51,-182.68 723.79,-172.76 718.41,-177.24"/>
</a>
</g>
</g>
<!-- Node26 -->
<g id="Node000026" class="node">
<title>Node26</title>
<g id="a_Node000026"><a xlink:href="namespaceanonymous__namespace_02issue-105-verbose-combination-errors_8cpp_03.html#a5d2fa2fa048e5520dbcbad50438526ad" target="_top" xlink:title=" ">
<polygon fill="white" stroke="#666666" points="467,-139 290,-139 290,-98 467,-98 467,-139"/>
<text text-anchor="start" x="298" y="-127" font-family="Helvetica,sans-Serif" font-size="10.00">anonymous_namespace</text>
<text text-anchor="start" x="298" y="-116" font-family="Helvetica,sans-Serif" font-size="10.00">{issue&#45;105&#45;verbose&#45;combination</text>
<text text-anchor="middle" x="378.5" y="-105" font-family="Helvetica,sans-Serif" font-size="10.00">&#45;errors::cpp}::validate</text>
</a>
</g>
</g>
<!-- Node10&#45;&gt;Node26 -->
<g id="edge29_Node000010_Node000026" class="edge">
<title>Node10&#45;&gt;Node26</title>
<g id="a_edge29_Node000010_Node000026"><a xlink:title=" ">
<path fill="none" stroke="#63b8ff" d="M666.84,-185.6C608.46,-171.97 528.05,-153.19 467.13,-138.96"/>
<polygon fill="#63b8ff" stroke="#63b8ff" points="666.2,-189.04 676.74,-187.91 667.79,-182.23 666.2,-189.04"/>
</a>
</g>
</g>
<!-- Node12 -->
<g id="Node000012" class="node">
<title>Node12</title>
<g id="a_Node000012"><a xlink:href="classmqtt_1_1bridge_1_1lib_1_1BridgeStore.html#ab8ade196caaa4d233f8dc1625619ed9a" target="_top" xlink:title=" ">
<polygon fill="white" stroke="#666666" points="458.5,-261.5 298.5,-261.5 298.5,-231.5 458.5,-231.5 458.5,-261.5"/>
<text text-anchor="start" x="306.5" y="-249.5" font-family="Helvetica,sans-Serif" font-size="10.00">mqtt::bridge::lib::</text>
<text text-anchor="middle" x="378.5" y="-238.5" font-family="Helvetica,sans-Serif" font-size="10.00">BridgeStore::loadAndValidate</text>
</a>
</g>
</g>
<!-- Node11&#45;&gt;Node12 -->
<g id="edge15_Node000011_Node000012" class="edge">
<title>Node11&#45;&gt;Node12</title>
<g id="a_edge15_Node000011_Node000012"><a xlink:title=" ">
<path fill="none" stroke="#63b8ff" d="M494.04,-275.89C475.42,-271.11 455.8,-266.07 438.15,-261.55"/>
<polygon fill="#63b8ff" stroke="#63b8ff" points="493.41,-279.34 503.97,-278.43 495.15,-272.56 493.41,-279.34"/>
</a>
</g>
</g>
<!-- Node13 -->
<g id="Node000013" class="node">
<title>Node13</title>
<g id="a_Node000013"><a xlink:href="classmqtt_1_1lib_1_1JsonMappingReader.html#a77231994bd3ef854feb2db79dd71746b" target="_top" xlink:title=" ">
<polygon fill="white" stroke="#666666" points="459,-359.5 298,-359.5 298,-329.5 459,-329.5 459,-359.5"/>
<text text-anchor="start" x="306" y="-347.5" font-family="Helvetica,sans-Serif" font-size="10.00">mqtt::lib::JsonMappingReader</text>
<text text-anchor="middle" x="378.5" y="-336.5" font-family="Helvetica,sans-Serif" font-size="10.00">::readMappingFromFile</text>
</a>
</g>
</g>
<!-- Node11&#45;&gt;Node13 -->
<g id="edge16_Node000011_Node000013" class="edge">
<title>Node11&#45;&gt;Node13</title>
<g id="a_edge16_Node000011_Node000013"><a xlink:title=" ">
<path fill="none" stroke="#63b8ff" d="M494.04,-315.11C475.42,-319.89 455.8,-324.93 438.15,-329.45"/>
<polygon fill="#63b8ff" stroke="#63b8ff" points="495.15,-318.44 503.97,-312.57 493.41,-311.66 495.15,-318.44"/>
</a>
</g>
</g>
<!-- Node17 -->
<g id="Node000017" class="node">
<title>Node17</title>
<g id="a_Node000017"><a xlink:href="issue-293_8cpp.html#a8ee39622edc153e58dfa5711984ac185" target="_top" xlink:title=" ">
<polygon fill="white" stroke="#666666" points="419.5,-410 337.5,-410 337.5,-391 419.5,-391 419.5,-410"/>
<text text-anchor="middle" x="378.5" y="-398" font-family="Helvetica,sans-Serif" font-size="10.00">should_throw</text>
</a>
</g>
</g>
<!-- Node11&#45;&gt;Node17 -->
<g id="edge20_Node000011_Node000017" class="edge">
<title>Node11&#45;&gt;Node17</title>
<g id="a_edge20_Node000011_Node000017"><a xlink:title=" ">
<path fill="none" stroke="#63b8ff" d="M537.33,-322.29C517.71,-337.26 491.88,-355.47 467,-368.5 449.52,-377.66 428.83,-385.35 411.96,-390.9"/>
<polygon fill="#63b8ff" stroke="#63b8ff" points="539.57,-324.99 545.35,-316.1 535.29,-319.45 539.57,-324.99"/>
</a>
</g>
</g>
<!-- Node19 -->
<g id="Node000019" class="node">
<title>Node19</title>
<g id="a_Node000019"><a xlink:href="classnlohmann_1_1json__patch.html#ac7aea9496e07beb821fb9e5423fb76f5" target="_top" xlink:title=" ">
<polygon fill="white" stroke="#666666" points="440.5,-309.5 316.5,-309.5 316.5,-279.5 440.5,-279.5 440.5,-309.5"/>
<text text-anchor="start" x="324.5" y="-297.5" font-family="Helvetica,sans-Serif" font-size="10.00">nlohmann::json_patch</text>
<text text-anchor="middle" x="378.5" y="-286.5" font-family="Helvetica,sans-Serif" font-size="10.00">::validateJsonPatch</text>
</a>
</g>
</g>
<!-- Node11&#45;&gt;Node19 -->
<g id="edge22_Node000011_Node000019" class="edge">
<title>Node11&#45;&gt;Node19</title>
<g id="a_edge22_Node000011_Node000019"><a xlink:title=" ">
<path fill="none" stroke="#63b8ff" d="M493.7,-295.1C476.07,-295.01 457.55,-294.91 440.68,-294.82"/>
<polygon fill="#63b8ff" stroke="#63b8ff" points="493.95,-298.6 503.97,-295.15 493.98,-291.6 493.95,-298.6"/>
</a>
</g>
</g>
<!-- Node14 -->
<g id="Node000014" class="node">
<title>Node14</title>
<g id="a_Node000014"><a xlink:href="classmqtt_1_1mqttbroker_1_1SocketContextFactory.html#a84a300c6ea4e8fc1e0370f5460a64e9a" target="_top" xlink:title=" ">
<polygon fill="white" stroke="#666666" points="234.5,-363.5 96.5,-363.5 96.5,-333.5 234.5,-333.5 234.5,-363.5"/>
<text text-anchor="start" x="104.5" y="-351.5" font-family="Helvetica,sans-Serif" font-size="10.00">mqtt::mqttbroker::Socket</text>
<text text-anchor="middle" x="165.5" y="-340.5" font-family="Helvetica,sans-Serif" font-size="10.00">ContextFactory::create</text>
</a>
</g>
</g>
<!-- Node13&#45;&gt;Node14 -->
<g id="edge17_Node000013_Node000014" class="edge">
<title>Node13&#45;&gt;Node14</title>
<g id="a_edge17_Node000013_Node000014"><a xlink:title=" ">
<path fill="none" stroke="#63b8ff" d="M287.41,-346.21C269.73,-346.54 251.47,-346.89 234.66,-347.21"/>
<polygon fill="#63b8ff" stroke="#63b8ff" points="287.8,-349.7 297.73,-346.01 287.67,-342.7 287.8,-349.7"/>
</a>
</g>
</g>
<!-- Node15 -->
<g id="Node000015" class="node">
<title>Node15</title>
<g id="a_Node000015"><a xlink:href="classmqtt_1_1mqttintegrator_1_1SocketContextFactory.html#a0667981d3feaa8d66a6ba2ecb81dc900" target="_top" xlink:title=" ">
<polygon fill="white" stroke="#666666" points="230,-315 101,-315 101,-274 230,-274 230,-315"/>
<text text-anchor="start" x="109" y="-303" font-family="Helvetica,sans-Serif" font-size="10.00">mqtt::mqttintegrator</text>
<text text-anchor="start" x="109" y="-292" font-family="Helvetica,sans-Serif" font-size="10.00">::SocketContextFactory</text>
<text text-anchor="middle" x="165.5" y="-281" font-family="Helvetica,sans-Serif" font-size="10.00">::create</text>
</a>
</g>
</g>
<!-- Node13&#45;&gt;Node15 -->
<g id="edge18_Node000013_Node000015" class="edge">
<title>Node13&#45;&gt;Node15</title>
<g id="a_edge18_Node000013_Node000015"><a xlink:title=" ">
<path fill="none" stroke="#63b8ff" d="M304.36,-327.17C280.2,-321.44 253.52,-315.12 230.13,-309.58"/>
<polygon fill="#63b8ff" stroke="#63b8ff" points="303.66,-330.6 314.19,-329.5 305.27,-323.79 303.66,-330.6"/>
</a>
</g>
</g>
<!-- Node16 -->
<g id="Node000016" class="node">
<title>Node16</title>
<g id="a_Node000016"><a xlink:href="classmqtt_1_1mqttintegrator_1_1websocket_1_1SubProtocolFactory.html#ae88373a69cdee4d08cf58c4c618041d6" target="_top" xlink:title=" ">
<polygon fill="white" stroke="#666666" points="252.5,-423 78.5,-423 78.5,-382 252.5,-382 252.5,-423"/>
<text text-anchor="start" x="86.5" y="-411" font-family="Helvetica,sans-Serif" font-size="10.00">mqtt::mqttintegrator</text>
<text text-anchor="start" x="86.5" y="-400" font-family="Helvetica,sans-Serif" font-size="10.00">::websocket::SubProtocolFactory</text>
<text text-anchor="middle" x="165.5" y="-389" font-family="Helvetica,sans-Serif" font-size="10.00">::create</text>
</a>
</g>
</g>
<!-- Node13&#45;&gt;Node16 -->
<g id="edge19_Node000013_Node000016" class="edge">
<title>Node13&#45;&gt;Node16</title>
<g id="a_edge19_Node000013_Node000016"><a xlink:title=" ">
<path fill="none" stroke="#63b8ff" d="M313.02,-362.22C290.32,-368.46 264.62,-375.53 241.15,-381.98"/>
<polygon fill="#63b8ff" stroke="#63b8ff" points="314.17,-365.54 322.89,-359.51 312.32,-358.79 314.17,-365.54"/>
</a>
</g>
</g>
<!-- Node18 -->
<g id="Node000018" class="node">
<title>Node18</title>
<g id="a_Node000018"><a xlink:href="issue-293_8cpp.html#a840291bc02cba5474a4cb46a9b9566fe" target="_top" xlink:title=" ">
<polygon fill="white" stroke="#666666" points="186,-460 145,-460 145,-441 186,-441 186,-460"/>
<text text-anchor="middle" x="165.5" y="-448" font-family="Helvetica,sans-Serif" font-size="10.00">main</text>
</a>
</g>
</g>
<!-- Node17&#45;&gt;Node18 -->
<g id="edge21_Node000017_Node000018" class="edge">
<title>Node17&#45;&gt;Node18</title>
<g id="a_edge21_Node000017_Node000018"><a xlink:title=" ">
<path fill="none" stroke="#63b8ff" d="M333.08,-412.59C309.63,-418.82 280.33,-426.38 254,-432.5 230.74,-437.9 203.8,-443.32 186.02,-446.78"/>
<polygon fill="#63b8ff" stroke="#63b8ff" points="333.99,-415.97 342.75,-410.01 332.18,-409.21 333.99,-415.97"/>
</a>
</g>
</g>
<!-- Node20 -->
<g id="Node000020" class="node">
<title>Node20</title>
<g id="a_Node000020"><a xlink:href="classnlohmann_1_1json__patch.html#ae61d410c3afe7cf9b7a9589819e8f94a" target="_top" xlink:title=" ">
<polygon fill="white" stroke="#666666" points="227.5,-255.5 103.5,-255.5 103.5,-225.5 227.5,-225.5 227.5,-255.5"/>
<text text-anchor="start" x="111.5" y="-243.5" font-family="Helvetica,sans-Serif" font-size="10.00">nlohmann::json_patch</text>
<text text-anchor="middle" x="165.5" y="-232.5" font-family="Helvetica,sans-Serif" font-size="10.00">::json_patch</text>
</a>
</g>
</g>
<!-- Node19&#45;&gt;Node20 -->
<g id="edge23_Node000019_Node000020" class="edge">
<title>Node19&#45;&gt;Node20</title>
<g id="a_edge23_Node000019_Node000020"><a xlink:title=" ">
<path fill="none" stroke="#63b8ff" d="M308.96,-276.96C281.97,-270.05 251.29,-262.2 225.33,-255.55"/>
<polygon fill="#63b8ff" stroke="#63b8ff" points="308.17,-280.37 318.72,-279.46 309.9,-273.59 308.17,-280.37"/>
</a>
</g>
</g>
<!-- Node21 -->
<g id="Node000021" class="node">
<title>Node21</title>
<g id="a_Node000021"><a xlink:href="classnlohmann_1_1json__patch.html#a9ed4f8e610b70b973f9fd59696d5c10b" target="_top" xlink:title=" ">
<polygon fill="white" stroke="#666666" points="227.5,-207.5 103.5,-207.5 103.5,-177.5 227.5,-177.5 227.5,-207.5"/>
<text text-anchor="start" x="111.5" y="-195.5" font-family="Helvetica,sans-Serif" font-size="10.00">nlohmann::json_patch</text>
<text text-anchor="middle" x="165.5" y="-184.5" font-family="Helvetica,sans-Serif" font-size="10.00">::json_patch</text>
</a>
</g>
</g>
<!-- Node19&#45;&gt;Node21 -->
<g id="edge24_Node000019_Node000021" class="edge">
<title>Node19&#45;&gt;Node21</title>
<g id="a_edge24_Node000019_Node000021"><a xlink:title=" ">
<path fill="none" stroke="#63b8ff" d="M306.67,-279.96C300.77,-277.31 295.11,-274.19 290,-270.5 266.61,-253.62 277.39,-233.38 254,-216.5 246.21,-210.88 237.16,-206.57 227.9,-203.27"/>
<polygon fill="#63b8ff" stroke="#63b8ff" points="305.51,-283.27 316.1,-283.73 308.11,-276.77 305.51,-283.27"/>
</a>
</g>
</g>
<!-- Node22 -->
<g id="Node000022" class="node">
<title>Node22</title>
<g id="a_Node000022"><a xlink:href="test_2json-patch_8cpp.html#a840291bc02cba5474a4cb46a9b9566fe" target="_top" xlink:title=" ">
<polygon fill="white" stroke="#666666" points="41,-202 0,-202 0,-183 41,-183 41,-202"/>
<text text-anchor="middle" x="20.5" y="-190" font-family="Helvetica,sans-Serif" font-size="10.00">main</text>
</a>
</g>
</g>
<!-- Node21&#45;&gt;Node22 -->
<g id="edge25_Node000021_Node000022" class="edge">
<title>Node21&#45;&gt;Node22</title>
<g id="a_edge25_Node000021_Node000022"><a xlink:title=" ">
<path fill="none" stroke="#63b8ff" d="M93.44,-192.5C74.25,-192.5 55.02,-192.5 41.28,-192.5"/>
<polygon fill="#63b8ff" stroke="#63b8ff" points="93.44,-196 103.44,-192.5 93.44,-189 93.44,-196"/>
</a>
</g>
</g>
<!-- Node27 -->
<g id="Node000027" class="node">
<title>Node27</title>
<g id="a_Node000027"><a xlink:href="namespaceanonymous__namespace_02issue-105-verbose-combination-errors_8cpp_03.html#a4b7578a08dda4165bf9c386de4bc2bed" target="_top" xlink:title=" ">
<polygon fill="white" stroke="#666666" points="254,-150 77,-150 77,-109 254,-109 254,-150"/>
<text text-anchor="start" x="85" y="-138" font-family="Helvetica,sans-Serif" font-size="10.00">anonymous_namespace</text>
<text text-anchor="start" x="85" y="-127" font-family="Helvetica,sans-Serif" font-size="10.00">{issue&#45;105&#45;verbose&#45;combination</text>
<text text-anchor="middle" x="165.5" y="-116" font-family="Helvetica,sans-Serif" font-size="10.00">&#45;errors::cpp}::simpleTest</text>
</a>
</g>
</g>
<!-- Node26&#45;&gt;Node27 -->
<g id="edge30_Node000026_Node000027" class="edge">
<title>Node26&#45;&gt;Node27</title>
<g id="a_edge30_Node000026_Node000027"><a xlink:title=" ">
<path fill="none" stroke="#63b8ff" d="M279.86,-123.59C271.3,-124.04 262.68,-124.49 254.22,-124.93"/>
<polygon fill="#63b8ff" stroke="#63b8ff" points="280.05,-127.09 289.85,-123.07 279.68,-120.09 280.05,-127.09"/>
</a>
</g>
</g>
<!-- Node29 -->
<g id="Node000029" class="node">
<title>Node29</title>
<g id="a_Node000029"><a xlink:href="namespaceanonymous__namespace_02issue-105-verbose-combination-errors_8cpp_03.html#a6c5072c56623259eab0124fc223a4bfc" target="_top" xlink:title=" ">
<polygon fill="white" stroke="#666666" points="254,-91 77,-91 77,-50 254,-50 254,-91"/>
<text text-anchor="start" x="85" y="-79" font-family="Helvetica,sans-Serif" font-size="10.00">anonymous_namespace</text>
<text text-anchor="start" x="85" y="-68" font-family="Helvetica,sans-Serif" font-size="10.00">{issue&#45;105&#45;verbose&#45;combination</text>
<text text-anchor="middle" x="165.5" y="-57" font-family="Helvetica,sans-Serif" font-size="10.00">&#45;errors::cpp}::verboseTest</text>
</a>
</g>
</g>
<!-- Node26&#45;&gt;Node29 -->
<g id="edge32_Node000026_Node000029" class="edge">
<title>Node26&#45;&gt;Node29</title>
<g id="a_edge32_Node000026_Node000029"><a xlink:title=" ">
<path fill="none" stroke="#63b8ff" d="M279.86,-96.29C271.3,-94.34 262.68,-92.38 254.22,-90.45"/>
<polygon fill="#63b8ff" stroke="#63b8ff" points="279.32,-99.76 289.85,-98.56 280.88,-92.93 279.32,-99.76"/>
</a>
</g>
</g>
<!-- Node28 -->
<g id="Node000028" class="node">
<title>Node28</title>
<g id="a_Node000028"><a xlink:href="issue-105-verbose-combination-errors_8cpp.html#a8216c1645620cdb2f629cde3ac02ffef" target="_top" xlink:title=" ">
<polygon fill="white" stroke="#666666" points="41,-110 0,-110 0,-91 41,-91 41,-110"/>
<text text-anchor="middle" x="20.5" y="-98" font-family="Helvetica,sans-Serif" font-size="10.00">main</text>
</a>
</g>
</g>
<!-- Node27&#45;&gt;Node28 -->
<g id="edge31_Node000027_Node000028" class="edge">
<title>Node27&#45;&gt;Node28</title>
<g id="a_edge31_Node000027_Node000028"><a xlink:title=" ">
<path fill="none" stroke="#63b8ff" d="M66.69,-109.67C57.23,-107.74 48.47,-105.97 41.24,-104.5"/>
<polygon fill="#63b8ff" stroke="#63b8ff" points="66.29,-113.15 76.79,-111.71 67.68,-106.29 66.29,-113.15"/>
</a>
</g>
</g>
<!-- Node29&#45;&gt;Node28 -->
<g id="edge33_Node000029_Node000028" class="edge">
<title>Node29&#45;&gt;Node28</title>
<g id="a_edge33_Node000029_Node000028"><a xlink:title=" ">
<path fill="none" stroke="#63b8ff" d="M66.99,-90.96C57.41,-92.97 48.55,-94.83 41.24,-96.36"/>
<polygon fill="#63b8ff" stroke="#63b8ff" points="67.72,-94.38 76.79,-88.9 66.28,-87.53 67.72,-94.38"/>
</a>
</g>
</g>
<!-- Node31 -->
<g id="Node000031" class="node">
<title>Node31</title>
<g id="a_Node000031"><a xlink:href="classnlohmann_1_1json__schema_1_1json__validator.html#a9b658ef82ef777074679e2a60d539821" target="_top" xlink:title=" ">
<polygon fill="white" stroke="#666666" points="639,-471 504,-471 504,-430 639,-430 639,-471"/>
<text text-anchor="start" x="512" y="-459" font-family="Helvetica,sans-Serif" font-size="10.00">nlohmann::json_schema</text>
<text text-anchor="start" x="512" y="-448" font-family="Helvetica,sans-Serif" font-size="10.00">::json_validator::json</text>
<text text-anchor="middle" x="571.5" y="-437" font-family="Helvetica,sans-Serif" font-size="10.00">_validator</text>
</a>
</g>
</g>
<!-- Node30&#45;&gt;Node31 -->
<g id="edge35_Node000030_Node000031" class="edge">
<title>Node30&#45;&gt;Node31</title>
<g id="a_edge35_Node000030_Node000031"><a xlink:title=" ">
<path fill="none" stroke="#63b8ff" d="M666.64,-450.5C657.49,-450.5 648.2,-450.5 639.2,-450.5"/>
<polygon fill="#63b8ff" stroke="#63b8ff" points="666.9,-454 676.9,-450.5 666.9,-447 666.9,-454"/>
</a>
</g>
</g>
<!-- Node31&#45;&gt;Node18 -->
<g id="edge36_Node000031_Node000018" class="edge">
<title>Node31&#45;&gt;Node18</title>
<g id="a_edge36_Node000031_Node000018"><a xlink:title=" ">
<path fill="none" stroke="#63b8ff" d="M493.6,-450.5C398.08,-450.5 241,-450.5 186.14,-450.5"/>
<polygon fill="#63b8ff" stroke="#63b8ff" points="493.79,-454 503.79,-450.5 493.79,-447 493.79,-454"/>
</a>
</g>
</g>
<!-- Node33&#45;&gt;Node3 -->
<g id="edge39_Node000033_Node000003" class="edge">
<title>Node33&#45;&gt;Node3</title>
<g id="a_edge39_Node000033_Node000003"><a xlink:title=" ">
<path fill="none" stroke="#63b8ff" d="M1204.73,-269.69C1196.17,-268.37 1187.5,-267.04 1179.08,-265.74"/>
<polygon fill="#63b8ff" stroke="#63b8ff" points="1204.29,-273.16 1214.71,-271.22 1205.36,-266.24 1204.29,-273.16"/>
</a>
</g>
</g>
<!-- Node35 -->
<g id="Node000035" class="node">
<title>Node35</title>
<g id="a_Node000035"><a xlink:href="classnlohmann_1_1json__schema_1_1json__validator.html#ae330a21f43f257fec1d8109f51827706" target="_top" xlink:title=" ">
<polygon fill="white" stroke="#666666" points="813,-98.5 676,-98.5 676,-68.5 813,-68.5 813,-98.5"/>
<text text-anchor="start" x="684" y="-86.5" font-family="Helvetica,sans-Serif" font-size="10.00">nlohmann::json_schema</text>
<text text-anchor="middle" x="744.5" y="-75.5" font-family="Helvetica,sans-Serif" font-size="10.00">::json_validator::validate</text>
</a>
</g>
</g>
<!-- Node34&#45;&gt;Node35 -->
<g id="edge41_Node000034_Node000035" class="edge">
<title>Node34&#45;&gt;Node35</title>
<g id="a_edge41_Node000034_Node000035"><a xlink:title=" ">
<path fill="none" stroke="#63b8ff" d="M1090.03,-153.12C1070.92,-133.92 1040.52,-107.53 1008,-95.5 944.99,-72.2 867.62,-71.73 813.26,-75.54"/>
<polygon fill="#63b8ff" stroke="#63b8ff" points="1087.55,-155.59 1097.03,-160.33 1092.58,-150.71 1087.55,-155.59"/>
</a>
</g>
</g>
<!-- Node35&#45;&gt;Node24 -->
<g id="edge43_Node000035_Node000024" class="edge">
<title>Node35&#45;&gt;Node24</title>
<g id="a_edge43_Node000035_Node000024"><a xlink:title=" ">
<path fill="none" stroke="#63b8ff" d="M667.29,-100.88C639.67,-107.18 610.75,-113.78 592.22,-118"/>
<polygon fill="#63b8ff" stroke="#63b8ff" points="668.42,-104.21 677.39,-98.58 666.86,-97.39 668.42,-104.21"/>
</a>
</g>
</g>
<!-- Node35&#45;&gt;Node25 -->
<g id="edge44_Node000035_Node000025" class="edge">
<title>Node35&#45;&gt;Node25</title>
<g id="a_edge44_Node000035_Node000025"><a xlink:title=" ">
<path fill="none" stroke="#63b8ff" d="M665.6,-84.41C638.51,-84.73 610.38,-85.06 592.24,-85.27"/>
<polygon fill="#63b8ff" stroke="#63b8ff" points="665.96,-87.91 675.92,-84.29 665.88,-80.91 665.96,-87.91"/>
</a>
</g>
</g>
<!-- Node35&#45;&gt;Node26 -->
<g id="edge45_Node000035_Node000026" class="edge">
<title>Node35&#45;&gt;Node26</title>
<g id="a_edge45_Node000035_Node000026"><a xlink:title=" ">
<path fill="none" stroke="#63b8ff" d="M665.85,-67.52C618.41,-60.35 556.72,-55.65 503,-66.5 472.9,-72.58 441,-86.21 417.17,-98"/>
<polygon fill="#63b8ff" stroke="#63b8ff" points="665.33,-70.99 675.75,-69.09 666.42,-64.07 665.33,-70.99"/>
</a>
</g>
</g>
<!-- Node36 -->
<g id="Node000036" class="node">
<title>Node36</title>
<g id="a_Node000036"><a xlink:href="readme_8cpp.html#ae66f6b31b5ad750f1fe042a706a4e3d4" target="_top" xlink:title=" ">
<polygon fill="white" stroke="#666666" points="592,-19 551,-19 551,0 592,0 592,-19"/>
<text text-anchor="middle" x="571.5" y="-7" font-family="Helvetica,sans-Serif" font-size="10.00">main</text>
</a>
</g>
</g>
<!-- Node35&#45;&gt;Node36 -->
<g id="edge42_Node000035_Node000036" class="edge">
<title>Node35&#45;&gt;Node36</title>
<g id="a_edge42_Node000035_Node000036"><a xlink:title=" ">
<path fill="none" stroke="#63b8ff" d="M705.35,-63.84C686,-54.19 661.99,-42.69 640,-33.5 624.16,-26.88 605.79,-20.43 592.21,-15.88"/>
<polygon fill="#63b8ff" stroke="#63b8ff" points="703.94,-67.05 714.44,-68.42 707.08,-60.8 703.94,-67.05"/>
</a>
</g>
</g>
<!-- Node37 -->
<g id="Node000037" class="node">
<title>Node37</title>
<g id="a_Node000037"><a xlink:href="classnlohmann_1_1json__schema_1_1json__validator.html#affff379ae30b7ab48c81d5b65e34f613" target="_top" xlink:title=" ">
<polygon fill="white" stroke="#666666" points="640,-218.5 503,-218.5 503,-188.5 640,-188.5 640,-218.5"/>
<text text-anchor="start" x="511" y="-206.5" font-family="Helvetica,sans-Serif" font-size="10.00">nlohmann::json_schema</text>
<text text-anchor="middle" x="571.5" y="-195.5" font-family="Helvetica,sans-Serif" font-size="10.00">::json_validator::validate</text>
</a>
</g>
</g>
<!-- Node35&#45;&gt;Node37 -->
<g id="edge46_Node000035_Node000037" class="edge">
<title>Node35&#45;&gt;Node37</title>
<g id="a_edge46_Node000035_Node000037"><a xlink:title=" ">
<path fill="none" stroke="#63b8ff" d="M713.63,-104.46C679.41,-128.47 624.21,-167.21 593.98,-188.43"/>
<polygon fill="#63b8ff" stroke="#63b8ff" points="715.67,-107.31 721.84,-98.7 711.65,-101.58 715.67,-107.31"/>
</a>
</g>
</g>
<!-- Node37&#45;&gt;Node12 -->
<g id="edge47_Node000037_Node000012" class="edge">
<title>Node37&#45;&gt;Node12</title>
<g id="a_edge47_Node000037_Node000012"><a xlink:title=" ">
<path fill="none" stroke="#63b8ff" d="M493.53,-220.83C477.87,-224.35 461.53,-228.03 446.26,-231.47"/>
<polygon fill="#63b8ff" stroke="#63b8ff" points="494.71,-224.15 503.7,-218.54 493.17,-217.32 494.71,-224.15"/>
</a>
</g>
</g>
<!-- Node37&#45;&gt;Node19 -->
<g id="edge51_Node000037_Node000019" class="edge">
<title>Node37&#45;&gt;Node19</title>
<g id="a_edge51_Node000037_Node000019"><a xlink:title=" ">
<path fill="none" stroke="#63b8ff" d="M543.23,-224.48C523.09,-239.12 494.52,-258.17 467,-270.5 458.66,-274.23 449.61,-277.51 440.6,-280.34"/>
<polygon fill="#63b8ff" stroke="#63b8ff" points="545.35,-227.27 551.31,-218.51 541.19,-221.64 545.35,-227.27"/>
</a>
</g>
</g>
<!-- Node37&#45;&gt;Node23 -->
<g id="edge48_Node000037_Node000023" class="edge">
<title>Node37&#45;&gt;Node23</title>
<g id="a_edge48_Node000037_Node000023"><a xlink:title=" ">
<path fill="none" stroke="#63b8ff" d="M492.87,-203.5C458.66,-203.5 421.28,-203.5 399.14,-203.5"/>
<polygon fill="#63b8ff" stroke="#63b8ff" points="492.89,-207 502.89,-203.5 492.89,-200 492.89,-207"/>
</a>
</g>
</g>
<!-- Node37&#45;&gt;Node26 -->
<g id="edge50_Node000037_Node000026" class="edge">
<title>Node37&#45;&gt;Node26</title>
<g id="a_edge50_Node000037_Node000026"><a xlink:title=" ">
<path fill="none" stroke="#63b8ff" d="M521.79,-184.23C515.35,-181.2 508.93,-177.93 503,-174.5 485.69,-164.48 484.72,-156.77 467,-147.5 461.19,-144.46 454.99,-141.65 448.68,-139.07"/>
<polygon fill="#63b8ff" stroke="#63b8ff" points="520.62,-187.54 531.18,-188.47 523.51,-181.16 520.62,-187.54"/>
</a>
</g>
</g>
<!-- Node38 -->
<g id="Node000038" class="node">
<title>Node38</title>
<g id="a_Node000038"><a xlink:href="issue-189-default-values_8cpp.html#a840291bc02cba5474a4cb46a9b9566fe" target="_top" xlink:title=" ">
<polygon fill="white" stroke="#666666" points="399,-176 358,-176 358,-157 399,-157 399,-176"/>
<text text-anchor="middle" x="378.5" y="-164" font-family="Helvetica,sans-Serif" font-size="10.00">main</text>
</a>
</g>
</g>
<!-- Node37&#45;&gt;Node38 -->
<g id="edge49_Node000037_Node000038" class="edge">
<title>Node37&#45;&gt;Node38</title>
<g id="a_edge49_Node000037_Node000038"><a xlink:title=" ">
<path fill="none" stroke="#63b8ff" d="M492.87,-188.46C458.66,-181.83 421.28,-174.59 399.14,-170.3"/>
<polygon fill="#63b8ff" stroke="#63b8ff" points="492.41,-191.94 502.89,-190.4 493.74,-185.07 492.41,-191.94"/>
</a>
</g>
</g>
</g>
</svg>

<g id="navigator" transform="translate(0 0)" fill="#404254">
  <rect fill="#f2f5e9" fill-opacity="0.5" stroke="#606060" stroke-width=".5" x="0" y="0" width="60" height="60"/>
  <use id="zoomplus" xlink:href="#zoomPlus" x="17" y="9" onmousedown="handleZoom(evt,'in')"/>
  <use id="zoomminus" xlink:href="#zoomMin" x="42" y="9" onmousedown="handleZoom(evt,'out')"/>
  <use id="reset" xlink:href="#resetDef" x="30" y="36" onmousedown="handleReset()"/>
   <use id="arrowup" xlink:href="#arrowUp" x="0" y="0" onmousedown="handlePan(0,-1)"/>
  <use id="arrowright" xlink:href="#arrowRight" x="0" y="0" onmousedown="handlePan(1,0)"/>
  <use id="arrowdown" xlink:href="#arrowDown" x="0" y="0" onmousedown="handlePan(0,1)"/>
  <use id="arrowleft" xlink:href="#arrowLeft" x="0" y="0" onmousedown="handlePan(-1,0)"/>
</g>
<svg viewBox="0 0 15 15" width="100%" height="30px" preserveAspectRatio="xMaxYMin meet">
 <g id="arrow_out" transform="scale(0.3 0.3)">
  <a xlink:href="classnlohmann_1_1json__uri_a21ba5d6a76804eabd867a2d03370c945_icgraph_org.svg" target="_base">
   <rect id="button" ry="5" rx="5" y="6" x="6" height="38" width="38"
        fill="#f2f5e9" fill-opacity="0.5" stroke="#606060" stroke-width="1.0"/>
   <path id="arrow"
     d="M 11.500037,31.436501 C 11.940474,20.09759 22.043105,11.32322 32.158766,21.979434 L 37.068811,17.246167 C 37.068811,17.246167 37.088388,32 37.088388,32 L 22.160133,31.978069 C 22.160133,31.978069 26.997745,27.140456 26.997745,27.140456 C 18.528582,18.264221 13.291696,25.230495 11.500037,31.436501 z"
     style="fill:#404040;"/>
  </a>
 </g>
</svg>

<style type='text/css'>
<![CDATA[
[data-mouse-over-selected='false'] { opacity: 0.7; }
[data-mouse-over-selected='true']  { opacity: 1.0; }
]]>
</style>
<script type="application/ecmascript"><![CDATA[
document.addEventListener('DOMContentLoaded', (event) => {
  highlightEdges();
  highlightAdjacentNodes();
});
]]></script>
</svg>
