<?xml version="1.0" encoding="UTF-8" standalone="no"?>
<!DOCTYPE svg PUBLIC "-//W3C//DTD SVG 1.1//EN"
 "http://www.w3.org/Graphics/SVG/1.1/DTD/svg11.dtd">
<!-- Generated by graphviz version 14.1.2 (0)
 -->
<!-- Title: mqtt::mqttstore::lib::MariaDbStorage::store Pages: 1 -->
<svg width="802pt" height="158pt"
 viewBox="0.00 0.00 802.00 158.00" xmlns="http://www.w3.org/2000/svg" xmlns:xlink="http://www.w3.org/1999/xlink">
<g id="graph0" class="graph" transform="scale(1 1) rotate(0) translate(4 153.88)">
<title>mqtt::mqttstore::lib::MariaDbStorage::store</title>
<!-- Node1 -->
<g id="Node000001" class="node">
<title>Node1</title>
<g id="a_Node000001"><a xlink:title=" ">
<polygon fill="#999999" stroke="#666666" points="131.5,-59.5 0,-59.5 0,-26 131.5,-26 131.5,-59.5"/>
<text xml:space="preserve" text-anchor="start" x="8" y="-46" font-family="Helvetica,sans-Serif" font-size="10.00">mqtt::mqttstore::lib</text>
<text xml:space="preserve" text-anchor="middle" x="65.75" y="-33.25" font-family="Helvetica,sans-Serif" font-size="10.00">::MariaDbStorage::store</text>
</a>
</g>
</g>
<!-- Node2 -->
<g id="Node000002" class="node">
<title>Node2</title>
<g id="a_Node000002"><a xlink:href="classmqtt_1_1mqttstore_1_1lib_1_1MariaDbStorage.html#a1ddca7b84419ddc7192a6518a83876d3" target="_top" xlink:title=" ">
<polygon fill="white" stroke="#666666" points="362,-85.5 167.5,-85.5 167.5,-52 362,-52 362,-85.5"/>
<text xml:space="preserve" text-anchor="start" x="175.5" y="-72" font-family="Helvetica,sans-Serif" font-size="10.00">mqtt::mqttstore::lib</text>
<text xml:space="preserve" text-anchor="middle" x="264.75" y="-59.25" font-family="Helvetica,sans-Serif" font-size="10.00">::MariaDbStorage::buildRawInsertSql</text>
</a>
</g>
</g>
<!-- Node1&#45;&gt;Node2 -->
<g id="edge1_Node000001_Node000002" class="edge">
<title>Node1&#45;&gt;Node2</title>
<g id="a_edge1_Node000001_Node000002"><a xlink:title=" ">
<path fill="none" stroke="#63b8ff" d="M131.8,-51.34C139.58,-52.36 147.68,-53.43 155.87,-54.51"/>
<polygon fill="#63b8ff" stroke="#63b8ff" points="155.19,-57.95 165.56,-55.79 156.1,-51.01 155.19,-57.95"/>
</a>
</g>
</g>
<!-- Node7 -->
<g id="Node000007" class="node">
<title>Node7</title>
<g id="a_Node000007"><a xlink:href="classmqtt_1_1mqttstore_1_1lib_1_1MariaDbStorage.html#a89bf3b8b033407f5c7b5b8a19a8d01bb" target="_top" xlink:title=" ">
<polygon fill="white" stroke="#666666" points="357.5,-33.5 172,-33.5 172,0 357.5,0 357.5,-33.5"/>
<text xml:space="preserve" text-anchor="start" x="180" y="-20" font-family="Helvetica,sans-Serif" font-size="10.00">mqtt::mqttstore::lib</text>
<text xml:space="preserve" text-anchor="middle" x="264.75" y="-7.25" font-family="Helvetica,sans-Serif" font-size="10.00">::MariaDbStorage::storeProjections</text>
</a>
</g>
</g>
<!-- Node1&#45;&gt;Node7 -->
<g id="edge6_Node000001_Node000007" class="edge">
<title>Node1&#45;&gt;Node7</title>
<g id="a_edge6_Node000001_Node000007"><a xlink:title=" ">
<path fill="none" stroke="#63b8ff" d="M131.8,-34.16C140.98,-32.95 150.61,-31.68 160.29,-30.4"/>
<polygon fill="#63b8ff" stroke="#63b8ff" points="160.72,-33.88 170.17,-29.1 159.8,-26.94 160.72,-33.88"/>
</a>
</g>
</g>
<!-- Node3 -->
<g id="Node000003" class="node">
<title>Node3</title>
<g id="a_Node000003"><a xlink:href="classmqtt_1_1mqttstore_1_1lib_1_1MariaDbStorage.html#a74bb8270682a57a1a4e992582e67de62" target="_top" xlink:title=" ">
<polygon fill="white" stroke="#666666" points="565.12,-149.88 409.62,-149.88 409.62,-103.62 565.12,-103.62 565.12,-149.88"/>
<text xml:space="preserve" text-anchor="start" x="417.62" y="-136.38" font-family="Helvetica,sans-Serif" font-size="10.00">mqtt::mqttstore::lib</text>
<text xml:space="preserve" text-anchor="start" x="417.62" y="-123.62" font-family="Helvetica,sans-Serif" font-size="10.00">::MariaDbStorage::hasBinary</text>
<text xml:space="preserve" text-anchor="middle" x="487.38" y="-110.88" font-family="Helvetica,sans-Serif" font-size="10.00">Content</text>
</a>
</g>
</g>
<!-- Node2&#45;&gt;Node3 -->
<g id="edge2_Node000002_Node000003" class="edge">
<title>Node2&#45;&gt;Node3</title>
<g id="a_edge2_Node000002_Node000003"><a xlink:title=" ">
<path fill="none" stroke="#63b8ff" d="M331.35,-85.99C352.41,-91.53 376.1,-97.76 398.5,-103.65"/>
<polygon fill="#63b8ff" stroke="#63b8ff" points="397.35,-106.96 407.91,-106.12 399.13,-100.19 397.35,-106.96"/>
</a>
</g>
</g>
<!-- Node4 -->
<g id="Node000004" class="node">
<title>Node4</title>
<g id="a_Node000004"><a xlink:href="classmqtt_1_1mqttstore_1_1lib_1_1MariaDbStorage.html#a041dfa0b47875896dc2e38c2b2042ad7" target="_top" xlink:title=" ">
<polygon fill="white" stroke="#666666" points="576.75,-85.5 398,-85.5 398,-52 576.75,-52 576.75,-85.5"/>
<text xml:space="preserve" text-anchor="start" x="406" y="-72" font-family="Helvetica,sans-Serif" font-size="10.00">mqtt::mqttstore::lib</text>
<text xml:space="preserve" text-anchor="middle" x="487.38" y="-59.25" font-family="Helvetica,sans-Serif" font-size="10.00">::MariaDbStorage::quoteIdentifier</text>
</a>
</g>
</g>
<!-- Node2&#45;&gt;Node4 -->
<g id="edge3_Node000002_Node000004" class="edge">
<title>Node2&#45;&gt;Node4</title>
<g id="a_edge3_Node000002_Node000004"><a xlink:title=" ">
<path fill="none" stroke="#63b8ff" d="M362.2,-68.75C370.24,-68.75 378.38,-68.75 386.44,-68.75"/>
<polygon fill="#63b8ff" stroke="#63b8ff" points="386.26,-72.25 396.26,-68.75 386.26,-65.25 386.26,-72.25"/>
</a>
</g>
</g>
<!-- Node6 -->
<g id="Node000006" class="node">
<title>Node6</title>
<g id="a_Node000006"><a xlink:href="classmqtt_1_1mqttstore_1_1lib_1_1MariaDbStorage.html#af999173e84a729d1d001f0812a7ee44e" target="_top" xlink:title=" ">
<polygon fill="white" stroke="#666666" points="562.5,-33.5 412.25,-33.5 412.25,0 562.5,0 562.5,-33.5"/>
<text xml:space="preserve" text-anchor="start" x="420.25" y="-20" font-family="Helvetica,sans-Serif" font-size="10.00">mqtt::mqttstore::lib</text>
<text xml:space="preserve" text-anchor="middle" x="487.38" y="-7.25" font-family="Helvetica,sans-Serif" font-size="10.00">::MariaDbStorage::sqlQuote</text>
</a>
</g>
</g>
<!-- Node2&#45;&gt;Node6 -->
<g id="edge5_Node000002_Node000006" class="edge">
<title>Node2&#45;&gt;Node6</title>
<g id="a_edge5_Node000002_Node000006"><a xlink:title=" ">
<path fill="none" stroke="#63b8ff" d="M338.91,-51.51C359.22,-46.72 381.43,-41.49 402.31,-36.56"/>
<polygon fill="#63b8ff" stroke="#63b8ff" points="403.01,-39.99 411.94,-34.29 401.41,-33.18 403.01,-39.99"/>
</a>
</g>
</g>
<!-- Node5 -->
<g id="Node000005" class="node">
<title>Node5</title>
<g id="a_Node000005"><a xlink:href="classmqtt_1_1mqttstore_1_1lib_1_1MariaDbStorage.html#a88a692d2f10939bc19a74ab0fef012d8" target="_top" xlink:title=" ">
<polygon fill="white" stroke="#666666" points="793.75,-85.5 612.75,-85.5 612.75,-52 793.75,-52 793.75,-85.5"/>
<text xml:space="preserve" text-anchor="start" x="620.75" y="-72" font-family="Helvetica,sans-Serif" font-size="10.00">mqtt::mqttstore::lib</text>
<text xml:space="preserve" text-anchor="middle" x="703.25" y="-59.25" font-family="Helvetica,sans-Serif" font-size="10.00">::MariaDbStorage::isSafeIdentifier</text>
</a>
</g>
</g>
<!-- Node4&#45;&gt;Node5 -->
<g id="edge4_Node000004_Node000005" class="edge">
<title>Node4&#45;&gt;Node5</title>
<g id="a_edge4_Node000004_Node000005"><a xlink:title=" ">
<path fill="none" stroke="#63b8ff" d="M577.22,-68.75C585.01,-68.75 592.93,-68.75 600.81,-68.75"/>
<polygon fill="#63b8ff" stroke="#63b8ff" points="600.79,-72.25 610.79,-68.75 600.79,-65.25 600.79,-72.25"/>
</a>
</g>
</g>
</g>
</svg>
