<?xml version="1.0" encoding="UTF-8" standalone="no"?>
<!DOCTYPE svg PUBLIC "-//W3C//DTD SVG 1.1//EN"
 "http://www.w3.org/Graphics/SVG/1.1/DTD/svg11.dtd">
<!-- Generated by graphviz version 2.42.4 (0)
 -->
<!-- Title: anonymous_namespace{json&#45;validator::cpp}::schema::schema Pages: 1 -->
<!--zoomable 575 -->

<svg id="main" version="1.1" xmlns="http://www.w3.org/2000/svg" xmlns:xlink="http://www.w3.org/1999/xlink" xml:space="preserve" onload="init(evt)">
<style type="text/css"><![CDATA[
.node, .edge {opacity: 0.7;}
.node.selected, .edge.selected {opacity: 1;}
.edge:hover path { stroke: red; }
.edge:hover polygon { stroke: red; fill: red; }
]]></style>

<defs>
  <circle id="rim" cx="0" cy="0" r="7"/>
  <circle id="rim2" cx="0" cy="0" r="3.5"/>
  <g id="zoomPlus">
    <use xlink:href="#rim" fill="#404040"><set attributeName="fill" to="#808080" begin="zoomplus.mouseover" end="zoomplus.mouseout"/></use>
    <path d="M-4,0h8M0,-4v8" fill="none" stroke="white" stroke-width="1.5" pointer-events="none"/>
  </g>
  <g id="zoomMin">
    <use xlink:href="#rim" fill="#404040"><set attributeName="fill" to="#808080" begin="zoomminus.mouseover" end="zoomminus.mouseout"/></use>
    <path d="M-4,0h8" fill="none" stroke="white" stroke-width="1.5" pointer-events="none"/>
  </g>
  <g id="arrowUp" transform="translate(30 24)">
    <use xlink:href="#rim"/>
    <path pointer-events="none" fill="none" stroke="white" stroke-width="1.5" d="M0,-3.0v7 M-2.5,-0.5L0,-3.0L2.5,-0.5"/>
  </g>
  <g id="arrowRight" transform="rotate(90) translate(36 -43)">
    <use xlink:href="#rim"/>
    <path pointer-events="none" fill="none" stroke="white" stroke-width="1.5" d="M0,-3.0v7 M-2.5,-0.5L0,-3.0L2.5,-0.5"/>
  </g>
  <g id="arrowDown" transform="rotate(180) translate(-30 -48)">
    <use xlink:href="#rim"/>
    <path pointer-events="none" fill="none" stroke="white" stroke-width="1.5" d="M0,-3.0v7 M-2.5,-0.5L0,-3.0L2.5,-0.5"/>
  </g>
  <g id="arrowLeft" transform="rotate(270) translate(-36 17)">
    <use xlink:href="#rim"/>
    <path pointer-events="none" fill="none" stroke="white" stroke-width="1.5" d="M0,-3.0v7 M-2.5,-0.5L0,-3.0L2.5,-0.5"/>
  </g>
  <g id="resetDef">
    <use xlink:href="#rim2" fill="#404040"><set attributeName="fill" to="#808080" begin="reset.mouseover" end="reset.mouseout"/></use>
  </g>
</defs>
<script type="application/ecmascript">
var viewWidth = 340;
var viewHeight = 575;
var sectionId = 'dynsection-2';
</script>
<script type="application/ecmascript" xlink:href="svg.min.js"/>
<svg id="graph" class="graph">
<g id="viewport">
<title>anonymous_namespace{json&#45;validator::cpp}::schema::schema</title>
<!-- Node1 -->
<g id="Node000001" class="node">
<title>Node1</title>
<g id="a_Node000001"><a xlink:title=" ">
<polygon fill="#999999" stroke="#666666" points="332,-313 197,-313 197,-272 332,-272 332,-313"/>
<text text-anchor="start" x="205" y="-301" font-family="Helvetica,sans-Serif" font-size="10.00">anonymous_namespace</text>
<text text-anchor="start" x="205" y="-290" font-family="Helvetica,sans-Serif" font-size="10.00">{json&#45;validator::cpp}</text>
<text text-anchor="middle" x="264.5" y="-279" font-family="Helvetica,sans-Serif" font-size="10.00">::schema::schema</text>
</a>
</g>
</g>
<!-- Node2 -->
<g id="Node000002" class="node">
<title>Node2</title>
<g id="a_Node000002"><a xlink:href="classanonymous__namespace_02json-validator_8cpp_03_1_1array.html#ad16bb35faff550ae0c7014de82822e71" target="_top" xlink:title=" ">
<polygon fill="white" stroke="#666666" points="148,-567 13,-567 13,-526 148,-526 148,-567"/>
<text text-anchor="start" x="21" y="-555" font-family="Helvetica,sans-Serif" font-size="10.00">anonymous_namespace</text>
<text text-anchor="start" x="21" y="-544" font-family="Helvetica,sans-Serif" font-size="10.00">{json&#45;validator::cpp}</text>
<text text-anchor="middle" x="80.5" y="-533" font-family="Helvetica,sans-Serif" font-size="10.00">::array::array</text>
</a>
</g>
</g>
<!-- Node1&#45;&gt;Node2 -->
<g id="edge1_Node000001_Node000002" class="edge">
<title>Node1&#45;&gt;Node2</title>
<g id="a_edge1_Node000001_Node000002"><a xlink:title=" ">
<path fill="none" stroke="#63b8ff" d="M257.51,-323.09C246.59,-371.01 219,-463.84 161,-517.5 157.12,-521.09 152.76,-524.25 148.12,-527.02"/>
<polygon fill="#63b8ff" stroke="#63b8ff" points="260.99,-323.54 259.71,-313.03 254.15,-322.05 260.99,-323.54"/>
</a>
</g>
</g>
<!-- Node3 -->
<g id="Node000003" class="node">
<title>Node3</title>
<g id="a_Node000003"><a xlink:href="classanonymous__namespace_02json-validator_8cpp_03_1_1boolean.html#ae1d36d41c9bfe462bd57fa694ec2b3d9" target="_top" xlink:title=" ">
<polygon fill="white" stroke="#666666" points="148,-490 13,-490 13,-449 148,-449 148,-490"/>
<text text-anchor="start" x="21" y="-478" font-family="Helvetica,sans-Serif" font-size="10.00">anonymous_namespace</text>
<text text-anchor="start" x="21" y="-467" font-family="Helvetica,sans-Serif" font-size="10.00">{json&#45;validator::cpp}</text>
<text text-anchor="middle" x="80.5" y="-456" font-family="Helvetica,sans-Serif" font-size="10.00">::boolean::boolean</text>
</a>
</g>
</g>
<!-- Node1&#45;&gt;Node3 -->
<g id="edge2_Node000001_Node000003" class="edge">
<title>Node1&#45;&gt;Node3</title>
<g id="a_edge2_Node000001_Node000003"><a xlink:title=" ">
<path fill="none" stroke="#63b8ff" d="M249.8,-322.42C233.18,-355.62 202.21,-408.69 161,-440.5 157.05,-443.55 152.74,-446.31 148.25,-448.79"/>
<polygon fill="#63b8ff" stroke="#63b8ff" points="253.05,-323.74 254.29,-313.21 246.76,-320.66 253.05,-323.74"/>
</a>
</g>
</g>
<!-- Node4 -->
<g id="Node000004" class="node">
<title>Node4</title>
<g id="a_Node000004"><a xlink:href="classanonymous__namespace_02json-validator_8cpp_03_1_1boolean__type.html#a65b498958c4eb74e3746c3331737b79d" target="_top" xlink:title=" ">
<polygon fill="white" stroke="#666666" points="161,-431 0,-431 0,-390 161,-390 161,-431"/>
<text text-anchor="start" x="8" y="-419" font-family="Helvetica,sans-Serif" font-size="10.00">anonymous_namespace</text>
<text text-anchor="start" x="8" y="-408" font-family="Helvetica,sans-Serif" font-size="10.00">{json&#45;validator::cpp}</text>
<text text-anchor="middle" x="80.5" y="-397" font-family="Helvetica,sans-Serif" font-size="10.00">::boolean_type::boolean_type</text>
</a>
</g>
</g>
<!-- Node1&#45;&gt;Node4 -->
<g id="edge4_Node000001_Node000004" class="edge">
<title>Node1&#45;&gt;Node4</title>
<g id="a_edge4_Node000001_Node000004"><a xlink:title=" ">
<path fill="none" stroke="#63b8ff" d="M236.73,-320.66C217.21,-339.89 189.32,-364.81 161,-381.5 155.81,-384.56 150.24,-387.38 144.55,-389.96"/>
<polygon fill="#63b8ff" stroke="#63b8ff" points="239.45,-322.88 244.04,-313.33 234.5,-317.94 239.45,-322.88"/>
</a>
</g>
</g>
<!-- Node5 -->
<g id="Node000005" class="node">
<title>Node5</title>
<g id="a_Node000005"><a xlink:href="classanonymous__namespace_02json-validator_8cpp_03_1_1logical__not.html#a5ac57fd40f4d28a3def56b84a8e8cd4f" target="_top" xlink:title=" ">
<polygon fill="white" stroke="#666666" points="148,-372 13,-372 13,-331 148,-331 148,-372"/>
<text text-anchor="start" x="21" y="-360" font-family="Helvetica,sans-Serif" font-size="10.00">anonymous_namespace</text>
<text text-anchor="start" x="21" y="-349" font-family="Helvetica,sans-Serif" font-size="10.00">{json&#45;validator::cpp}</text>
<text text-anchor="middle" x="80.5" y="-338" font-family="Helvetica,sans-Serif" font-size="10.00">::logical_not::logical_not</text>
</a>
</g>
</g>
<!-- Node1&#45;&gt;Node5 -->
<g id="edge5_Node000001_Node000005" class="edge">
<title>Node1&#45;&gt;Node5</title>
<g id="a_edge5_Node000001_Node000005"><a xlink:title=" ">
<path fill="none" stroke="#63b8ff" d="M190.34,-316.22C175.32,-321.08 159.63,-326.17 144.98,-330.92"/>
<polygon fill="#63b8ff" stroke="#63b8ff" points="191.67,-319.47 200.1,-313.05 189.51,-312.81 191.67,-319.47"/>
</a>
</g>
</g>
<!-- Node6 -->
<g id="Node000006" class="node">
<title>Node6</title>
<g id="a_Node000006"><a xlink:href="classanonymous__namespace_02json-validator_8cpp_03_1_1null.html#af95bdccfdc518fa4fec42db17519ab53" target="_top" xlink:title=" ">
<polygon fill="white" stroke="#666666" points="148,-313 13,-313 13,-272 148,-272 148,-313"/>
<text text-anchor="start" x="21" y="-301" font-family="Helvetica,sans-Serif" font-size="10.00">anonymous_namespace</text>
<text text-anchor="start" x="21" y="-290" font-family="Helvetica,sans-Serif" font-size="10.00">{json&#45;validator::cpp}</text>
<text text-anchor="middle" x="80.5" y="-279" font-family="Helvetica,sans-Serif" font-size="10.00">::null::null</text>
</a>
</g>
</g>
<!-- Node1&#45;&gt;Node6 -->
<g id="edge6_Node000001_Node000006" class="edge">
<title>Node1&#45;&gt;Node6</title>
<g id="a_edge6_Node000001_Node000006"><a xlink:title=" ">
<path fill="none" stroke="#63b8ff" d="M186.63,-292.5C173.86,-292.5 160.72,-292.5 148.23,-292.5"/>
<polygon fill="#63b8ff" stroke="#63b8ff" points="186.76,-296 196.76,-292.5 186.76,-289 186.76,-296"/>
</a>
</g>
</g>
<!-- Node7 -->
<g id="Node000007" class="node">
<title>Node7</title>
<g id="a_Node000007"><a xlink:href="classanonymous__namespace_02json-validator_8cpp_03_1_1object.html#a51137ac019fc30c7ab57f839cd9a3638" target="_top" xlink:title=" ">
<polygon fill="white" stroke="#666666" points="148,-254 13,-254 13,-213 148,-213 148,-254"/>
<text text-anchor="start" x="21" y="-242" font-family="Helvetica,sans-Serif" font-size="10.00">anonymous_namespace</text>
<text text-anchor="start" x="21" y="-231" font-family="Helvetica,sans-Serif" font-size="10.00">{json&#45;validator::cpp}</text>
<text text-anchor="middle" x="80.5" y="-220" font-family="Helvetica,sans-Serif" font-size="10.00">::object::object</text>
</a>
</g>
</g>
<!-- Node1&#45;&gt;Node7 -->
<g id="edge7_Node000001_Node000007" class="edge">
<title>Node1&#45;&gt;Node7</title>
<g id="a_edge7_Node000001_Node000007"><a xlink:title=" ">
<path fill="none" stroke="#63b8ff" d="M190.34,-268.78C175.32,-263.92 159.63,-258.83 144.98,-254.08"/>
<polygon fill="#63b8ff" stroke="#63b8ff" points="189.51,-272.19 200.1,-271.95 191.67,-265.53 189.51,-272.19"/>
</a>
</g>
</g>
<!-- Node8 -->
<g id="Node000008" class="node">
<title>Node8</title>
<g id="a_Node000008"><a xlink:href="classanonymous__namespace_02json-validator_8cpp_03_1_1required.html#a467c1a9ecb6ce705f456a6db409be644" target="_top" xlink:title=" ">
<polygon fill="white" stroke="#666666" points="148,-177 13,-177 13,-136 148,-136 148,-177"/>
<text text-anchor="start" x="21" y="-165" font-family="Helvetica,sans-Serif" font-size="10.00">anonymous_namespace</text>
<text text-anchor="start" x="21" y="-154" font-family="Helvetica,sans-Serif" font-size="10.00">{json&#45;validator::cpp}</text>
<text text-anchor="middle" x="80.5" y="-143" font-family="Helvetica,sans-Serif" font-size="10.00">::required::required</text>
</a>
</g>
</g>
<!-- Node1&#45;&gt;Node8 -->
<g id="edge8_Node000001_Node000008" class="edge">
<title>Node1&#45;&gt;Node8</title>
<g id="a_edge8_Node000001_Node000008"><a xlink:title=" ">
<path fill="none" stroke="#63b8ff" d="M234.06,-264.93C214.14,-246.85 186.83,-223.19 161,-204.5 147.55,-194.77 132.05,-185.09 118.33,-177.01"/>
<polygon fill="#63b8ff" stroke="#63b8ff" points="231.85,-267.64 241.59,-271.8 236.57,-262.47 231.85,-267.64"/>
</a>
</g>
</g>
<!-- Node9 -->
<g id="Node000009" class="node">
<title>Node9</title>
<g id="a_Node000009"><a xlink:href="classanonymous__namespace_02json-validator_8cpp_03_1_1schema__ref.html#a947696d53b0fb43b3a6f8618763bb5db" target="_top" xlink:title=" ">
<polygon fill="white" stroke="#666666" points="151.5,-100 9.5,-100 9.5,-59 151.5,-59 151.5,-100"/>
<text text-anchor="start" x="17.5" y="-88" font-family="Helvetica,sans-Serif" font-size="10.00">anonymous_namespace</text>
<text text-anchor="start" x="17.5" y="-77" font-family="Helvetica,sans-Serif" font-size="10.00">{json&#45;validator::cpp}</text>
<text text-anchor="middle" x="80.5" y="-66" font-family="Helvetica,sans-Serif" font-size="10.00">::schema_ref::schema_ref</text>
</a>
</g>
</g>
<!-- Node1&#45;&gt;Node9 -->
<g id="edge10_Node000001_Node000009" class="edge">
<title>Node1&#45;&gt;Node9</title>
<g id="a_edge10_Node000001_Node000009"><a xlink:title=" ">
<path fill="none" stroke="#63b8ff" d="M250.25,-262.51C233.44,-227.02 201.69,-167.68 161,-127.5 150.22,-116.85 136.63,-107.55 123.76,-100.05"/>
<polygon fill="#63b8ff" stroke="#63b8ff" points="247.2,-264.26 254.59,-271.85 253.55,-261.31 247.2,-264.26"/>
</a>
</g>
</g>
<!-- Node10 -->
<g id="Node000010" class="node">
<title>Node10</title>
<g id="a_Node000010"><a xlink:href="classanonymous__namespace_02json-validator_8cpp_03_1_1string.html#a8a244d98f9f260455a4f9ee4afb964f2" target="_top" xlink:title=" ">
<polygon fill="white" stroke="#666666" points="148,-41 13,-41 13,0 148,0 148,-41"/>
<text text-anchor="start" x="21" y="-29" font-family="Helvetica,sans-Serif" font-size="10.00">anonymous_namespace</text>
<text text-anchor="start" x="21" y="-18" font-family="Helvetica,sans-Serif" font-size="10.00">{json&#45;validator::cpp}</text>
<text text-anchor="middle" x="80.5" y="-7" font-family="Helvetica,sans-Serif" font-size="10.00">::string::string</text>
</a>
</g>
</g>
<!-- Node1&#45;&gt;Node10 -->
<g id="edge12_Node000001_Node000010" class="edge">
<title>Node1&#45;&gt;Node10</title>
<g id="a_edge12_Node000001_Node000010"><a xlink:title=" ">
<path fill="none" stroke="#63b8ff" d="M258.54,-261.89C248.78,-211.19 222.43,-109.53 161,-50.5 157.17,-46.82 152.85,-43.58 148.24,-40.73"/>
<polygon fill="#63b8ff" stroke="#63b8ff" points="255.13,-262.7 260.38,-271.9 262.01,-261.44 255.13,-262.7"/>
</a>
</g>
</g>
<!-- Node3&#45;&gt;Node3 -->
<g id="edge3_Node000003_Node000003" class="edge">
<title>Node3&#45;&gt;Node3</title>
<g id="a_edge3_Node000003_Node000003"><a xlink:title=" ">
<path fill="none" stroke="#63b8ff" d="M112.16,-499.96C107.45,-504.74 96.9,-508 80.5,-508 54.27,-508 42.99,-499.65 46.68,-490.1"/>
<polygon fill="#63b8ff" stroke="#63b8ff" points="115.6,-500.61 114.32,-490.1 108.76,-499.12 115.6,-500.61"/>
</a>
</g>
</g>
<!-- Node8&#45;&gt;Node8 -->
<g id="edge9_Node000008_Node000008" class="edge">
<title>Node8&#45;&gt;Node8</title>
<g id="a_edge9_Node000008_Node000008"><a xlink:title=" ">
<path fill="none" stroke="#63b8ff" d="M112.16,-186.96C107.45,-191.74 96.9,-195 80.5,-195 54.27,-195 42.99,-186.65 46.68,-177.1"/>
<polygon fill="#63b8ff" stroke="#63b8ff" points="115.6,-187.61 114.32,-177.1 108.76,-186.12 115.6,-187.61"/>
</a>
</g>
</g>
<!-- Node9&#45;&gt;Node9 -->
<g id="edge11_Node000009_Node000009" class="edge">
<title>Node9&#45;&gt;Node9</title>
<g id="a_edge11_Node000009_Node000009"><a xlink:title=" ">
<path fill="none" stroke="#63b8ff" d="M112.16,-109.96C107.45,-114.74 96.9,-118 80.5,-118 54.27,-118 42.99,-109.65 46.68,-100.1"/>
<polygon fill="#63b8ff" stroke="#63b8ff" points="115.6,-110.61 114.32,-100.1 108.76,-109.12 115.6,-110.61"/>
</a>
</g>
</g>
</g>
</svg>

<g id="navigator" transform="translate(0 0)" fill="#404254">
  <rect fill="#f2f5e9" fill-opacity="0.5" stroke="#606060" stroke-width=".5" x="0" y="0" width="60" height="60"/>
  <use id="zoomplus" xlink:href="#zoomPlus" x="17" y="9" onmousedown="handleZoom(evt,'in')"/>
  <use id="zoomminus" xlink:href="#zoomMin" x="42" y="9" onmousedown="handleZoom(evt,'out')"/>
  <use id="reset" xlink:href="#resetDef" x="30" y="36" onmousedown="handleReset()"/>
   <use id="arrowup" xlink:href="#arrowUp" x="0" y="0" onmousedown="handlePan(0,-1)"/>
  <use id="arrowright" xlink:href="#arrowRight" x="0" y="0" onmousedown="handlePan(1,0)"/>
  <use id="arrowdown" xlink:href="#arrowDown" x="0" y="0" onmousedown="handlePan(0,1)"/>
  <use id="arrowleft" xlink:href="#arrowLeft" x="0" y="0" onmousedown="handlePan(-1,0)"/>
</g>
<svg viewBox="0 0 15 15" width="100%" height="30px" preserveAspectRatio="xMaxYMin meet">
 <g id="arrow_out" transform="scale(0.3 0.3)">
  <a xlink:href="classanonymous__namespace_02json-validator_8cpp_03_1_1schema_ac4014ccd3e19d2c94ff6cb782b9b6ece_icgraph_org.svg" target="_base">
   <rect id="button" ry="5" rx="5" y="6" x="6" height="38" width="38"
        fill="#f2f5e9" fill-opacity="0.5" stroke="#606060" stroke-width="1.0"/>
   <path id="arrow"
     d="M 11.500037,31.436501 C 11.940474,20.09759 22.043105,11.32322 32.158766,21.979434 L 37.068811,17.246167 C 37.068811,17.246167 37.088388,32 37.088388,32 L 22.160133,31.978069 C 22.160133,31.978069 26.997745,27.140456 26.997745,27.140456 C 18.528582,18.264221 13.291696,25.230495 11.500037,31.436501 z"
     style="fill:#404040;"/>
  </a>
 </g>
</svg>

<style type='text/css'>
<![CDATA[
[data-mouse-over-selected='false'] { opacity: 0.7; }
[data-mouse-over-selected='true']  { opacity: 1.0; }
]]>
</style>
<script type="application/ecmascript"><![CDATA[
document.addEventListener('DOMContentLoaded', (event) => {
  highlightEdges();
  highlightAdjacentNodes();
});
]]></script>
</svg>
