<?xml version="1.0" encoding="UTF-8" standalone="no"?>
<!DOCTYPE svg PUBLIC "-//W3C//DTD SVG 1.1//EN"
 "http://www.w3.org/Graphics/SVG/1.1/DTD/svg11.dtd">
<!-- Generated by graphviz version 14.1.1 (0)
 -->
<!-- Title: nlohmann::json_schema::basic_error_handler Pages: 1 -->
<!--zoomable 206 -->

<svg id="main" version="1.1" xmlns="http://www.w3.org/2000/svg" xmlns:xlink="http://www.w3.org/1999/xlink" xml:space="preserve" onload="init(evt)">

<style type="text/css"><![CDATA[
.node, .edge {opacity: 0.7;}
.node.selected, .edge.selected {opacity: 1;}
.edge:hover path { stroke: red; }
.edge:hover polygon { stroke: red; fill: red; }
]]></style>

<defs>
  <circle id="rim" cx="0" cy="0" r="7"/>
  <circle id="rim2" cx="0" cy="0" r="3.5"/>
  <g id="zoomPlus">
    <use xlink:href="#rim" fill="#404040"><set attributeName="fill" to="#808080" begin="zoomplus.mouseover" end="zoomplus.mouseout"/></use>
    <path d="M-4,0h8M0,-4v8" fill="none" stroke="white" stroke-width="1.5" pointer-events="none"/>
  </g>
  <g id="zoomMin">
    <use xlink:href="#rim" fill="#404040"><set attributeName="fill" to="#808080" begin="zoomminus.mouseover" end="zoomminus.mouseout"/></use>
    <path d="M-4,0h8" fill="none" stroke="white" stroke-width="1.5" pointer-events="none"/>
  </g>
  <g id="arrowUp" transform="translate(30 24)">
    <use xlink:href="#rim"/>
    <path pointer-events="none" fill="none" stroke="white" stroke-width="1.5" d="M0,-3.0v7 M-2.5,-0.5L0,-3.0L2.5,-0.5"/>
  </g>
  <g id="arrowRight" transform="rotate(90) translate(36 -43)">
    <use xlink:href="#rim"/>
    <path pointer-events="none" fill="none" stroke="white" stroke-width="1.5" d="M0,-3.0v7 M-2.5,-0.5L0,-3.0L2.5,-0.5"/>
  </g>
  <g id="arrowDown" transform="rotate(180) translate(-30 -48)">
    <use xlink:href="#rim"/>
    <path pointer-events="none" fill="none" stroke="white" stroke-width="1.5" d="M0,-3.0v7 M-2.5,-0.5L0,-3.0L2.5,-0.5"/>
  </g>
  <g id="arrowLeft" transform="rotate(270) translate(-36 17)">
    <use xlink:href="#rim"/>
    <path pointer-events="none" fill="none" stroke="white" stroke-width="1.5" d="M0,-3.0v7 M-2.5,-0.5L0,-3.0L2.5,-0.5"/>
  </g>
  <g id="resetDef">
    <use xlink:href="#rim2" fill="#404040"><set attributeName="fill" to="#808080" begin="reset.mouseover" end="reset.mouseout"/></use>
  </g>
</defs>
<script type="application/ecmascript">
var viewWidth = 725;
var viewHeight = 206;
var sectionId = 'dynsection-0';
</script>
<script type="application/ecmascript" xlink:href="svg.min.js"/>
<svg id="graph" class="graph">
<g id="viewport">
<title>nlohmann::json_schema::basic_error_handler</title>
<!-- Node1 -->
<g id="Node000001" class="node">
<title>Node1</title>
<g id="a_Node000001"><a xlink:title=" ">
<polygon fill="#999999" stroke="none" points="523.5,-128.5 397,-128.5 397,-95 523.5,-95 523.5,-128.5"/>
<text xml:space="preserve" text-anchor="start" x="401" y="-115" font-family="Helvetica,sans-Serif" font-size="10.00">nlohmann::json_schema</text>
<text xml:space="preserve" text-anchor="start" x="409.25" y="-102.25" font-family="Helvetica,sans-Serif" font-size="10.00">::basic_error_handler</text>
<polygon fill="none" stroke="#666666" points="397,-95 397,-128.5 523.5,-128.5 523.5,-95 397,-95"/>
</a>
</g>
</g>
<!-- Node3 -->
<g id="Node000003" class="node">
<title>Node3</title>
<g id="a_Node000003"><a xlink:href="classanonymous__namespace_02errors_8cpp_03_1_1store__ptr__err__handler.html" target="_top" xlink:title=" ">
<polygon fill="white" stroke="none" points="126.5,-52.62 0,-52.62 0,-6.38 126.5,-6.38 126.5,-52.62"/>
<text xml:space="preserve" text-anchor="start" x="4" y="-39.12" font-family="Helvetica,sans-Serif" font-size="10.00">anonymous_namespace</text>
<text xml:space="preserve" text-anchor="start" x="4" y="-26.38" font-family="Helvetica,sans-Serif" font-size="10.00">{errors.cpp}::store</text>
<text xml:space="preserve" text-anchor="start" x="23.5" y="-13.62" font-family="Helvetica,sans-Serif" font-size="10.00">_ptr_err_handler</text>
<polygon fill="none" stroke="#666666" points="0,-6.38 0,-52.62 126.5,-52.62 126.5,-6.38 0,-6.38"/>
</a>
</g>
</g>
<!-- Node1&#45;&gt;Node3 -->
<g id="edge2_Node000001_Node000003" class="edge">
<title>Node1&#45;&gt;Node3</title>
<g id="a_edge2_Node000001_Node000003"><a xlink:title=" ">
<path fill="none" stroke="#63b8ff" d="M386.02,-104.24C317.73,-96.86 214.34,-82.66 127.25,-59 120.55,-57.18 113.63,-54.96 106.9,-52.56"/>
<polygon fill="none" stroke="#63b8ff" points="385.27,-107.68 395.58,-105.25 386.01,-100.72 385.27,-107.68"/>
</a>
</g>
</g>
<!-- Node1&#45;&gt;Node3 -->
<g id="edge3_Node000001_Node000003" class="edge">
<title>Node1&#45;&gt;Node3</title>
<g id="a_edge3_Node000001_Node000003"><a xlink:title=" ">
<path fill="none" stroke="#63b8ff" d="M385.82,-102.6C321.41,-94.83 226.28,-81.01 145.25,-59 138.55,-57.18 131.63,-54.96 124.76,-52.56"/>
<polygon fill="none" stroke="#63b8ff" points="385.24,-106.05 395.58,-103.75 386.06,-99.1 385.24,-106.05"/>
</a>
</g>
</g>
<!-- Node4 -->
<g id="Node000004" class="node">
<title>Node4</title>
<g id="a_Node000004"><a xlink:href="classanonymous__namespace_02issue-149-entry-selection_8cpp_03_1_1store__err__handler.html" target="_top" xlink:title=" ">
<polygon fill="white" stroke="none" points="309.62,-52.62 144.88,-52.62 144.88,-6.38 309.62,-6.38 309.62,-52.62"/>
<text xml:space="preserve" text-anchor="start" x="148.88" y="-39.12" font-family="Helvetica,sans-Serif" font-size="10.00">anonymous_namespace</text>
<text xml:space="preserve" text-anchor="start" x="148.88" y="-26.38" font-family="Helvetica,sans-Serif" font-size="10.00">{issue&#45;149&#45;entry&#45;selection.cpp}</text>
<text xml:space="preserve" text-anchor="start" x="181.5" y="-13.62" font-family="Helvetica,sans-Serif" font-size="10.00">::store_err_handler</text>
<polygon fill="none" stroke="#666666" points="144.88,-6.38 144.88,-52.62 309.62,-52.62 309.62,-6.38 144.88,-6.38"/>
</a>
</g>
</g>
<!-- Node1&#45;&gt;Node4 -->
<g id="edge4_Node000001_Node000004" class="edge">
<title>Node1&#45;&gt;Node4</title>
<g id="a_edge4_Node000001_Node000004"><a xlink:title=" ">
<path fill="none" stroke="#63b8ff" d="M398.66,-91.55C363.44,-79.8 319.59,-64.73 285.03,-52.5"/>
<polygon fill="none" stroke="#63b8ff" points="397.26,-94.78 407.85,-94.61 399.47,-88.13 397.26,-94.78"/>
</a>
</g>
</g>
<!-- Node1&#45;&gt;Node4 -->
<g id="edge5_Node000001_Node000004" class="edge">
<title>Node1&#45;&gt;Node4</title>
<g id="a_edge5_Node000001_Node000004"><a xlink:title=" ">
<path fill="none" stroke="#63b8ff" d="M409.52,-91.25C376.61,-79.54 333.36,-64.62 297.22,-52.5"/>
<polygon fill="none" stroke="#63b8ff" points="408.23,-94.51 418.83,-94.58 410.59,-87.92 408.23,-94.51"/>
</a>
</g>
</g>
<!-- Node5 -->
<g id="Node000005" class="node">
<title>Node5</title>
<g id="a_Node000005"><a xlink:href="classanonymous__namespace_02issue-70-root-schema-constructor_8cpp_03_1_1store__ptr__err__handler.html" target="_top" xlink:title=" ">
<polygon fill="white" stroke="none" points="454.5,-59 328,-59 328,0 454.5,0 454.5,-59"/>
<text xml:space="preserve" text-anchor="start" x="332" y="-45.5" font-family="Helvetica,sans-Serif" font-size="10.00">anonymous_namespace</text>
<text xml:space="preserve" text-anchor="start" x="332" y="-32.75" font-family="Helvetica,sans-Serif" font-size="10.00">{issue&#45;70&#45;root&#45;schema</text>
<text xml:space="preserve" text-anchor="start" x="332" y="-20" font-family="Helvetica,sans-Serif" font-size="10.00">&#45;constructor.cpp}::store</text>
<text xml:space="preserve" text-anchor="start" x="351.5" y="-7.25" font-family="Helvetica,sans-Serif" font-size="10.00">_ptr_err_handler</text>
<polygon fill="none" stroke="#666666" points="328,0 328,-59 454.5,-59 454.5,0 328,0"/>
</a>
</g>
</g>
<!-- Node1&#45;&gt;Node5 -->
<g id="edge6_Node000001_Node000005" class="edge">
<title>Node1&#45;&gt;Node5</title>
<g id="a_edge6_Node000001_Node000005"><a xlink:title=" ">
<path fill="none" stroke="#63b8ff" d="M433.58,-86.97C425.41,-78.17 416.67,-68.1 409.2,-58.92"/>
<polygon fill="none" stroke="#63b8ff" points="431.01,-89.35 440.44,-94.18 436.08,-84.53 431.01,-89.35"/>
</a>
</g>
</g>
<!-- Node1&#45;&gt;Node5 -->
<g id="edge7_Node000001_Node000005" class="edge">
<title>Node1&#45;&gt;Node5</title>
<g id="a_edge7_Node000001_Node000005"><a xlink:title=" ">
<path fill="none" stroke="#63b8ff" d="M445.59,-86.42C438.7,-77.75 430.31,-67.91 422.17,-58.92"/>
<polygon fill="none" stroke="#63b8ff" points="442.61,-88.28 451.48,-94.08 448.16,-84.02 442.61,-88.28"/>
</a>
</g>
</g>
<!-- Node6 -->
<g id="Node000006" class="node">
<title>Node6</title>
<g id="a_Node000006"><a xlink:href="classcustom__error__handler.html" target="_top" xlink:title=" ">
<polygon fill="white" stroke="none" points="587.5,-39.88 473,-39.88 473,-19.12 587.5,-19.12 587.5,-39.88"/>
<text xml:space="preserve" text-anchor="start" x="477" y="-26.38" font-family="Helvetica,sans-Serif" font-size="10.00">custom_error_handler</text>
<polygon fill="none" stroke="#666666" points="473,-19.12 473,-39.88 587.5,-39.88 587.5,-19.12 473,-19.12"/>
</a>
</g>
</g>
<!-- Node1&#45;&gt;Node6 -->
<g id="edge8_Node000001_Node000006" class="edge">
<title>Node1&#45;&gt;Node6</title>
<g id="a_edge8_Node000001_Node000006"><a xlink:title=" ">
<path fill="none" stroke="#63b8ff" d="M463.22,-85.63C474,-69.99 492.56,-50.8 508.78,-39.68"/>
<polygon fill="none" stroke="#63b8ff" points="460.35,-83.62 458.16,-93.98 466.34,-87.25 460.35,-83.62"/>
</a>
</g>
</g>
<!-- Node1&#45;&gt;Node6 -->
<g id="edge9_Node000001_Node000006" class="edge">
<title>Node1&#45;&gt;Node6</title>
<g id="a_edge9_Node000001_Node000006"><a xlink:title=" ">
<path fill="none" stroke="#63b8ff" d="M475.17,-86.47C487.99,-70.58 505.91,-50.74 518,-39.45"/>
<polygon fill="none" stroke="#63b8ff" points="472.62,-84.05 469.22,-94.08 478.14,-88.36 472.62,-84.05"/>
</a>
</g>
</g>
<!-- Node1&#45;&gt;Node6 -->
<g id="edge10_Node000001_Node000006" class="edge">
<title>Node1&#45;&gt;Node6</title>
<g id="a_edge10_Node000001_Node000006"><a xlink:title=" ">
<path fill="none" stroke="#63b8ff" d="M486.85,-87.36C501.96,-71.32 519.15,-50.95 526.88,-39.45"/>
<polygon fill="none" stroke="#63b8ff" points="484.69,-84.56 480.26,-94.19 489.72,-89.43 484.69,-84.56"/>
</a>
</g>
</g>
<!-- Node1&#45;&gt;Node6 -->
<g id="edge11_Node000001_Node000006" class="edge">
<title>Node1&#45;&gt;Node6</title>
<g id="a_edge11_Node000001_Node000006"><a xlink:title=" ">
<path fill="none" stroke="#63b8ff" d="M498.77,-87.8C516.3,-71.7 532.58,-51.05 535.77,-39.45"/>
<polygon fill="none" stroke="#63b8ff" points="496.54,-85.1 491.27,-94.29 501.12,-90.4 496.54,-85.1"/>
</a>
</g>
</g>
<!-- Node7 -->
<g id="Node000007" class="node">
<title>Node7</title>
<g id="a_Node000007"><a xlink:href="classstore__ptr__err__handler.html" target="_top" xlink:title=" ">
<polygon fill="white" stroke="none" points="717.38,-39.88 605.12,-39.88 605.12,-19.12 717.38,-19.12 717.38,-39.88"/>
<text xml:space="preserve" text-anchor="start" x="609.12" y="-26.38" font-family="Helvetica,sans-Serif" font-size="10.00">store_ptr_err_handler</text>
<polygon fill="none" stroke="#666666" points="605.12,-19.12 605.12,-39.88 717.38,-39.88 717.38,-19.12 605.12,-19.12"/>
</a>
</g>
</g>
<!-- Node1&#45;&gt;Node7 -->
<g id="edge12_Node000001_Node000007" class="edge">
<title>Node1&#45;&gt;Node7</title>
<g id="a_edge12_Node000001_Node000007"><a xlink:title=" ">
<path fill="none" stroke="#63b8ff" d="M505.98,-90.94C530.24,-81.54 560.38,-69.99 587.25,-59 602.3,-52.84 619.11,-45.46 633.1,-39.75"/>
<polygon fill="none" stroke="#63b8ff" points="504.75,-87.66 496.69,-94.54 507.28,-94.18 504.75,-87.66"/>
</a>
</g>
</g>
<!-- Node1&#45;&gt;Node7 -->
<g id="edge13_Node000001_Node000007" class="edge">
<title>Node1&#45;&gt;Node7</title>
<g id="a_edge13_Node000001_Node000007"><a xlink:title=" ">
<path fill="none" stroke="#63b8ff" d="M521.31,-91.32C547.42,-81.86 578.02,-70.14 605.25,-59 620.3,-52.84 637.11,-45.46 648.63,-39.75"/>
<polygon fill="none" stroke="#63b8ff" points="520.44,-87.91 512.21,-94.58 522.81,-94.5 520.44,-87.91"/>
</a>
</g>
</g>
<!-- Node2 -->
<g id="Node000002" class="node">
<title>Node2</title>
<g id="a_Node000002"><a xlink:href="classnlohmann_1_1json__schema_1_1error__handler.html" target="_top" xlink:title=" ">
<polygon fill="white" stroke="none" points="523.5,-198 397,-198 397,-164.5 523.5,-164.5 523.5,-198"/>
<text xml:space="preserve" text-anchor="start" x="401" y="-184.5" font-family="Helvetica,sans-Serif" font-size="10.00">nlohmann::json_schema</text>
<text xml:space="preserve" text-anchor="start" x="424.62" y="-171.75" font-family="Helvetica,sans-Serif" font-size="10.00">::error_handler</text>
<polygon fill="none" stroke="#666666" points="397,-164.5 397,-198 523.5,-198 523.5,-164.5 397,-164.5"/>
</a>
</g>
</g>
<!-- Node2&#45;&gt;Node1 -->
<g id="edge1_Node000001_Node000002" class="edge">
<title>Node2&#45;&gt;Node1</title>
<g id="a_edge1_Node000001_Node000002"><a xlink:title=" ">
<path fill="none" stroke="#63b8ff" d="M460.25,-153.25C460.25,-144.78 460.25,-135.72 460.25,-128.32"/>
<polygon fill="none" stroke="#63b8ff" points="456.75,-153.08 460.25,-163.08 463.75,-153.08 456.75,-153.08"/>
</a>
</g>
</g>
</g>
</svg>

<g id="navigator" transform="translate(0 0)" fill="#404254">
  <rect fill="#f2f5e9" fill-opacity="0.5" stroke="#606060" stroke-width=".5" x="0" y="0" width="60" height="60"/>
  <use id="zoomplus" xlink:href="#zoomPlus" x="17" y="9" onmousedown="handleZoom(evt,'in')"/>
  <use id="zoomminus" xlink:href="#zoomMin" x="42" y="9" onmousedown="handleZoom(evt,'out')"/>
  <use id="reset" xlink:href="#resetDef" x="30" y="36" onmousedown="handleReset()"/>
   <use id="arrowup" xlink:href="#arrowUp" x="0" y="0" onmousedown="handlePan(0,-1)"/>
  <use id="arrowright" xlink:href="#arrowRight" x="0" y="0" onmousedown="handlePan(1,0)"/>
  <use id="arrowdown" xlink:href="#arrowDown" x="0" y="0" onmousedown="handlePan(0,1)"/>
  <use id="arrowleft" xlink:href="#arrowLeft" x="0" y="0" onmousedown="handlePan(-1,0)"/>
</g>
<svg viewBox="0 0 15 15" width="100%" height="30px" preserveAspectRatio="xMaxYMin meet">
 <g id="arrow_out" transform="scale(0.3 0.3)">
  <a xlink:href="classnlohmann_1_1json__schema_1_1basic__error__handler__inherit__graph_org.svg" target="_base">
   <rect id="button" ry="5" rx="5" y="6" x="6" height="38" width="38"
        fill="#f2f5e9" fill-opacity="0.5" stroke="#606060" stroke-width="1.0"/>
   <path id="arrow"
     d="M 11.500037,31.436501 C 11.940474,20.09759 22.043105,11.32322 32.158766,21.979434 L 37.068811,17.246167 C 37.068811,17.246167 37.088388,32 37.088388,32 L 22.160133,31.978069 C 22.160133,31.978069 26.997745,27.140456 26.997745,27.140456 C 18.528582,18.264221 13.291696,25.230495 11.500037,31.436501 z"
     style="fill:#404040;"/>
  </a>
 </g>
</svg>

<style type='text/css'>
<![CDATA[
[data-mouse-over-selected='false'] { opacity: 0.7; }
[data-mouse-over-selected='true']  { opacity: 1.0; }
]]>
</style>
<script type="application/ecmascript"><![CDATA[
document.addEventListener('DOMContentLoaded', (event) => {
  highlightEdges();
  highlightAdjacentNodes();
});
]]></script>
</svg>
