<?xml version="1.0" encoding="UTF-8" standalone="no"?>
<!DOCTYPE svg PUBLIC "-//W3C//DTD SVG 1.1//EN"
 "http://www.w3.org/Graphics/SVG/1.1/DTD/svg11.dtd">
<!-- Generated by graphviz version 14.1.1 (0)
 -->
<!-- Title: inja::Environment::parse_file Pages: 1 -->
<svg width="2027pt" height="583pt"
 viewBox="0.00 0.00 2027.00 583.00" xmlns="http://www.w3.org/2000/svg" xmlns:xlink="http://www.w3.org/1999/xlink">
<g id="graph0" class="graph" transform="scale(1 1) rotate(0) translate(4 578.72)">
<title>inja::Environment::parse_file</title>
<!-- Node1 -->
<g id="Node000001" class="node">
<title>Node1</title>
<g id="a_Node000001"><a xlink:title=" ">
<polygon fill="#999999" stroke="#666666" points="108.25,-84.12 0,-84.12 0,-50.62 108.25,-50.62 108.25,-84.12"/>
<text xml:space="preserve" text-anchor="start" x="8" y="-70.62" font-family="Helvetica,sans-Serif" font-size="10.00">inja::Environment::</text>
<text xml:space="preserve" text-anchor="middle" x="54.12" y="-57.88" font-family="Helvetica,sans-Serif" font-size="10.00">parse_file</text>
</a>
</g>
</g>
<!-- Node2 -->
<g id="Node000002" class="node">
<title>Node2</title>
<g id="a_Node000002"><a xlink:href="classinja_1_1Environment.html#aa46ccc27cc803933e0bfc9f58bba389c" target="_top" xlink:title=" ">
<polygon fill="white" stroke="#666666" points="252.5,-84.12 144.25,-84.12 144.25,-50.62 252.5,-50.62 252.5,-84.12"/>
<text xml:space="preserve" text-anchor="start" x="152.25" y="-70.62" font-family="Helvetica,sans-Serif" font-size="10.00">inja::Environment::</text>
<text xml:space="preserve" text-anchor="middle" x="198.38" y="-57.88" font-family="Helvetica,sans-Serif" font-size="10.00">parse_template</text>
</a>
</g>
</g>
<!-- Node1&#45;&gt;Node2 -->
<g id="edge1_Node000001_Node000002" class="edge">
<title>Node1&#45;&gt;Node2</title>
<g id="a_edge1_Node000001_Node000002"><a xlink:title=" ">
<path fill="none" stroke="#63b8ff" d="M108.5,-67.38C116.43,-67.38 124.67,-67.38 132.8,-67.38"/>
<polygon fill="#63b8ff" stroke="#63b8ff" points="132.66,-70.88 142.66,-67.38 132.66,-63.88 132.66,-70.88"/>
</a>
</g>
</g>
<!-- Node3 -->
<g id="Node000003" class="node">
<title>Node3</title>
<g id="a_Node000003"><a xlink:href="classinja_1_1Parser.html#a08f9845245e383ab99e73b200c3cdb5f" target="_top" xlink:title=" ">
<polygon fill="white" stroke="#666666" points="407.25,-20.75 288.5,-20.75 288.5,0 407.25,0 407.25,-20.75"/>
<text xml:space="preserve" text-anchor="middle" x="347.88" y="-7.25" font-family="Helvetica,sans-Serif" font-size="10.00">inja::Parser::load_file</text>
</a>
</g>
</g>
<!-- Node2&#45;&gt;Node3 -->
<g id="edge2_Node000002_Node000003" class="edge">
<title>Node2&#45;&gt;Node3</title>
<g id="a_edge2_Node000002_Node000003"><a xlink:title=" ">
<path fill="none" stroke="#63b8ff" d="M243.63,-50.27C264.25,-42.3 288.55,-32.91 308.4,-25.24"/>
<polygon fill="#63b8ff" stroke="#63b8ff" points="309.44,-28.6 317.5,-21.73 306.91,-22.07 309.44,-28.6"/>
</a>
</g>
</g>
<!-- Node6 -->
<g id="Node000006" class="node">
<title>Node6</title>
<g id="a_Node000006"><a xlink:href="classinja_1_1Parser.html#a8c6a03b6665745f216ba86f5e514a913" target="_top" xlink:title=" ">
<polygon fill="white" stroke="#666666" points="399.75,-84.12 296,-84.12 296,-50.62 399.75,-50.62 399.75,-84.12"/>
<text xml:space="preserve" text-anchor="start" x="304" y="-70.62" font-family="Helvetica,sans-Serif" font-size="10.00">inja::Parser::parse</text>
<text xml:space="preserve" text-anchor="middle" x="347.88" y="-57.88" font-family="Helvetica,sans-Serif" font-size="10.00">_into_template</text>
</a>
</g>
</g>
<!-- Node2&#45;&gt;Node6 -->
<g id="edge5_Node000002_Node000006" class="edge">
<title>Node2&#45;&gt;Node6</title>
<g id="a_edge5_Node000002_Node000006"><a xlink:title=" ">
<path fill="none" stroke="#63b8ff" d="M252.63,-67.38C262.93,-67.38 273.81,-67.38 284.38,-67.38"/>
<polygon fill="#63b8ff" stroke="#63b8ff" points="284.16,-70.88 294.16,-67.38 284.16,-63.88 284.16,-70.88"/>
</a>
</g>
</g>
<!-- Node34 -->
<g id="Node000034" class="node">
<title>Node34</title>
<g id="a_Node000034"><a xlink:href="structinja_1_1Template.html#a0f073d8168095f8ce86d0c7ac9060948" target="_top" xlink:title=" ">
<polygon fill="white" stroke="#666666" points="1028.5,-102.75 892.5,-102.75 892.5,-82 1028.5,-82 1028.5,-102.75"/>
<text xml:space="preserve" text-anchor="middle" x="960.5" y="-89.25" font-family="Helvetica,sans-Serif" font-size="10.00">inja::Template::Template</text>
</a>
</g>
</g>
<!-- Node2&#45;&gt;Node34 -->
<g id="edge59_Node000002_Node000034" class="edge">
<title>Node2&#45;&gt;Node34</title>
<g id="a_edge59_Node000002_Node000034"><a xlink:title=" ">
<path fill="none" stroke="#63b8ff" d="M251.74,-84.51C263.71,-87.91 276.46,-91.12 288.5,-93.38 383.93,-111.28 409.03,-112.38 506.12,-112.38 506.12,-112.38 506.12,-112.38 659.88,-112.38 734.93,-112.38 820.33,-106.05 880.7,-100.51"/>
<polygon fill="#63b8ff" stroke="#63b8ff" points="880.92,-104.01 890.55,-99.59 880.27,-97.04 880.92,-104.01"/>
</a>
</g>
</g>
<!-- Node4 -->
<g id="Node000004" class="node">
<title>Node4</title>
<g id="a_Node000004"><a xlink:href="structinja_1_1FileError.html#a0912694cd232d6cd688f0f68336145c9" target="_top" xlink:title=" ">
<polygon fill="white" stroke="#666666" points="1023.25,-43.75 897.75,-43.75 897.75,-23 1023.25,-23 1023.25,-43.75"/>
<text xml:space="preserve" text-anchor="middle" x="960.5" y="-30.25" font-family="Helvetica,sans-Serif" font-size="10.00">inja::FileError::FileError</text>
</a>
</g>
</g>
<!-- Node3&#45;&gt;Node4 -->
<g id="edge3_Node000003_Node000004" class="edge">
<title>Node3&#45;&gt;Node4</title>
<g id="a_edge3_Node000003_Node000004"><a xlink:title=" ">
<path fill="none" stroke="#63b8ff" d="M407.34,-12.06C452.14,-13.39 515.48,-15.36 571,-17.38 680.79,-21.37 808,-26.75 886.11,-30.14"/>
<polygon fill="#63b8ff" stroke="#63b8ff" points="885.61,-33.62 895.76,-30.56 885.92,-26.63 885.61,-33.62"/>
</a>
</g>
</g>
<!-- Node5 -->
<g id="Node000005" class="node">
<title>Node5</title>
<g id="a_Node000005"><a xlink:href="structinja_1_1InjaError.html#a0b31b1a26674ec73a9702f41155608da" target="_top" xlink:title=" ">
<polygon fill="white" stroke="#666666" points="1193,-43.75 1064.5,-43.75 1064.5,-23 1193,-23 1193,-43.75"/>
<text xml:space="preserve" text-anchor="middle" x="1128.75" y="-30.25" font-family="Helvetica,sans-Serif" font-size="10.00">inja::InjaError::InjaError</text>
</a>
</g>
</g>
<!-- Node4&#45;&gt;Node5 -->
<g id="edge4_Node000004_Node000005" class="edge">
<title>Node4&#45;&gt;Node5</title>
<g id="a_edge4_Node000004_Node000005"><a xlink:title=" ">
<path fill="none" stroke="#63b8ff" d="M1023.41,-33.38C1032.96,-33.38 1042.92,-33.38 1052.72,-33.38"/>
<polygon fill="#63b8ff" stroke="#63b8ff" points="1052.61,-36.88 1062.61,-33.38 1052.61,-29.88 1052.61,-36.88"/>
</a>
</g>
</g>
<!-- Node7 -->
<g id="Node000007" class="node">
<title>Node7</title>
<g id="a_Node000007"><a xlink:href="classinja_1_1Lexer.html#a2db4f5d064131f1205960c11de0ea5aa" target="_top" xlink:title=" ">
<polygon fill="white" stroke="#666666" points="569.12,-46.75 445.12,-46.75 445.12,-26 569.12,-26 569.12,-46.75"/>
<text xml:space="preserve" text-anchor="middle" x="507.12" y="-33.25" font-family="Helvetica,sans-Serif" font-size="10.00">inja::Lexer::get_config</text>
</a>
</g>
</g>
<!-- Node6&#45;&gt;Node7 -->
<g id="edge6_Node000006_Node000007" class="edge">
<title>Node6&#45;&gt;Node7</title>
<g id="a_edge6_Node000006_Node000007"><a xlink:title=" ">
<path fill="none" stroke="#63b8ff" d="M399.93,-57.31C412.68,-54.8 426.54,-52.06 439.91,-49.43"/>
<polygon fill="#63b8ff" stroke="#63b8ff" points="440.37,-52.91 449.5,-47.54 439.01,-46.04 440.37,-52.91"/>
</a>
</g>
</g>
<!-- Node8 -->
<g id="Node000008" class="node">
<title>Node8</title>
<g id="a_Node000008"><a xlink:href="classinja_1_1Parser.html#a9a561141f71073df671b2b7ecb4608ba" target="_top" xlink:title=" ">
<polygon fill="white" stroke="#666666" points="571,-362.75 443.25,-362.75 443.25,-342 571,-342 571,-362.75"/>
<text xml:space="preserve" text-anchor="middle" x="507.12" y="-349.25" font-family="Helvetica,sans-Serif" font-size="10.00">inja::Parser::parse_into</text>
</a>
</g>
</g>
<!-- Node6&#45;&gt;Node8 -->
<g id="edge7_Node000006_Node000008" class="edge">
<title>Node6&#45;&gt;Node8</title>
<g id="a_edge7_Node000006_Node000008"><a xlink:title=" ">
<path fill="none" stroke="#63b8ff" d="M358.24,-84.35C385.58,-133.9 465.22,-278.24 494.85,-331.94"/>
<polygon fill="#63b8ff" stroke="#63b8ff" points="491.6,-333.3 499.5,-340.36 497.73,-329.91 491.6,-333.3"/>
</a>
</g>
</g>
<!-- Node9 -->
<g id="Node000009" class="node">
<title>Node9</title>
<g id="a_Node000009"><a xlink:href="structinja_1_1Token.html#adc8c0a84e2d4ce0a3625c399bd259f1f" target="_top" xlink:title=" ">
<polygon fill="white" stroke="#666666" points="1186.25,-288.75 1071.25,-288.75 1071.25,-268 1186.25,-268 1186.25,-288.75"/>
<text xml:space="preserve" text-anchor="middle" x="1128.75" y="-275.25" font-family="Helvetica,sans-Serif" font-size="10.00">inja::Token::describe</text>
</a>
</g>
</g>
<!-- Node8&#45;&gt;Node9 -->
<g id="edge8_Node000008_Node000009" class="edge">
<title>Node8&#45;&gt;Node9</title>
<g id="a_edge8_Node000008_Node000009"><a xlink:title=" ">
<path fill="none" stroke="#63b8ff" d="M571.44,-345.23C669.44,-334.12 863.76,-311.82 1028.5,-291.38 1038.57,-290.13 1049.21,-288.77 1059.63,-287.42"/>
<polygon fill="#63b8ff" stroke="#63b8ff" points="1059.86,-290.92 1069.32,-286.16 1058.95,-283.98 1059.86,-290.92"/>
</a>
</g>
</g>
<!-- Node10 -->
<g id="Node000010" class="node">
<title>Node10</title>
<g id="a_Node000010"><a xlink:href="classinja_1_1Parser.html#ab8bb45bc1eeead74f630efa420ee6212" target="_top" xlink:title=" ">
<polygon fill="white" stroke="#666666" points="1188.5,-444.12 1069,-444.12 1069,-410.62 1188.5,-410.62 1188.5,-444.12"/>
<text xml:space="preserve" text-anchor="start" x="1077" y="-430.62" font-family="Helvetica,sans-Serif" font-size="10.00">inja::Parser::get_next</text>
<text xml:space="preserve" text-anchor="middle" x="1128.75" y="-417.88" font-family="Helvetica,sans-Serif" font-size="10.00">_token</text>
</a>
</g>
</g>
<!-- Node8&#45;&gt;Node10 -->
<g id="edge9_Node000008_Node000010" class="edge">
<title>Node8&#45;&gt;Node10</title>
<g id="a_edge9_Node000008_Node000010"><a xlink:title=" ">
<path fill="none" stroke="#63b8ff" d="M534.27,-363.13C554.03,-371.03 581.95,-381.67 607,-389.38 786.99,-444.73 840.25,-437.11 1028.5,-432.38 1037.86,-432.14 1047.71,-431.78 1057.42,-431.36"/>
<polygon fill="#63b8ff" stroke="#63b8ff" points="1057.39,-434.86 1067.21,-430.91 1057.06,-427.87 1057.39,-434.86"/>
</a>
</g>
</g>
<!-- Node23 -->
<g id="Node000023" class="node">
<title>Node23</title>
<g id="a_Node000023"><a xlink:href="classinja_1_1Parser.html#aeb66164c89e8c71cae3c93c24d7c7be2" target="_top" xlink:title=" ">
<polygon fill="white" stroke="#666666" points="853.5,-414.12 749.75,-414.12 749.75,-380.62 853.5,-380.62 853.5,-414.12"/>
<text xml:space="preserve" text-anchor="start" x="757.75" y="-400.62" font-family="Helvetica,sans-Serif" font-size="10.00">inja::Parser::parse</text>
<text xml:space="preserve" text-anchor="middle" x="801.62" y="-387.88" font-family="Helvetica,sans-Serif" font-size="10.00">_expression</text>
</a>
</g>
</g>
<!-- Node8&#45;&gt;Node23 -->
<g id="edge30_Node000008_Node000023" class="edge">
<title>Node8&#45;&gt;Node23</title>
<g id="a_edge30_Node000008_Node000023"><a xlink:title=" ">
<path fill="none" stroke="#63b8ff" d="M571.23,-362.08C620.62,-369.68 688.96,-380.2 738.18,-387.77"/>
<polygon fill="#63b8ff" stroke="#63b8ff" points="737.4,-391.19 747.82,-389.25 738.47,-384.27 737.4,-391.19"/>
</a>
</g>
</g>
<!-- Node27 -->
<g id="Node000027" class="node">
<title>Node27</title>
<g id="a_Node000027"><a xlink:href="classinja_1_1Parser.html#a1b11e4984c1934c4e670a609f728ceee" target="_top" xlink:title=" ">
<polygon fill="white" stroke="#666666" points="1181,-205.12 1076.5,-205.12 1076.5,-171.62 1181,-171.62 1181,-205.12"/>
<text xml:space="preserve" text-anchor="start" x="1084.5" y="-191.62" font-family="Helvetica,sans-Serif" font-size="10.00">inja::Parser::throw</text>
<text xml:space="preserve" text-anchor="middle" x="1128.75" y="-178.88" font-family="Helvetica,sans-Serif" font-size="10.00">_parser_error</text>
</a>
</g>
</g>
<!-- Node8&#45;&gt;Node27 -->
<g id="edge58_Node000008_Node000027" class="edge">
<title>Node8&#45;&gt;Node27</title>
<g id="a_edge58_Node000008_Node000027"><a xlink:title=" ">
<path fill="none" stroke="#63b8ff" d="M515.51,-341.68C530.38,-320.93 566.04,-275.1 607,-250.38 752.18,-162.72 961.78,-169.8 1065.2,-180.16"/>
<polygon fill="#63b8ff" stroke="#63b8ff" points="1064.56,-183.61 1074.87,-181.17 1065.29,-176.65 1064.56,-183.61"/>
</a>
</g>
</g>
<!-- Node32 -->
<g id="Node000032" class="node">
<title>Node32</title>
<g id="a_Node000032"><a xlink:href="classinja_1_1Parser.html#a5a26bdcce0ae076bf010ee7442d8928e" target="_top" xlink:title=" ">
<polygon fill="white" stroke="#666666" points="710.75,-293.12 607,-293.12 607,-259.62 710.75,-259.62 710.75,-293.12"/>
<text xml:space="preserve" text-anchor="start" x="615" y="-279.62" font-family="Helvetica,sans-Serif" font-size="10.00">inja::Parser::parse</text>
<text xml:space="preserve" text-anchor="middle" x="658.88" y="-266.88" font-family="Helvetica,sans-Serif" font-size="10.00">_statement</text>
</a>
</g>
</g>
<!-- Node8&#45;&gt;Node32 -->
<g id="edge44_Node000008_Node000032" class="edge">
<title>Node8&#45;&gt;Node32</title>
<g id="a_edge44_Node000008_Node000032"><a xlink:title=" ">
<path fill="none" stroke="#63b8ff" d="M529.26,-341.65C551.24,-330.5 586.26,-312.72 614.21,-298.54"/>
<polygon fill="#63b8ff" stroke="#63b8ff" points="615.47,-301.82 622.8,-294.18 612.3,-295.58 615.47,-301.82"/>
</a>
</g>
</g>
<!-- Node36 -->
<g id="Node000036" class="node">
<title>Node36</title>
<g id="a_Node000036"><a xlink:href="classinja_1_1Lexer.html#afab5a4a53539d89c7441f249a751da01" target="_top" xlink:title=" ">
<polygon fill="white" stroke="#666666" points="706.62,-543.75 611.12,-543.75 611.12,-523 706.62,-523 706.62,-543.75"/>
<text xml:space="preserve" text-anchor="middle" x="658.88" y="-530.25" font-family="Helvetica,sans-Serif" font-size="10.00">inja::Lexer::start</text>
</a>
</g>
</g>
<!-- Node8&#45;&gt;Node36 -->
<g id="edge56_Node000008_Node000036" class="edge">
<title>Node8&#45;&gt;Node36</title>
<g id="a_edge56_Node000008_Node000036"><a xlink:title=" ">
<path fill="none" stroke="#63b8ff" d="M516.39,-363.15C533.13,-384.87 572.37,-435.34 607,-476.38 617.83,-489.2 630.38,-503.28 640.31,-514.23"/>
<polygon fill="#63b8ff" stroke="#63b8ff" points="637.6,-516.45 646.92,-521.49 642.77,-511.74 637.6,-516.45"/>
</a>
</g>
</g>
<!-- Node11 -->
<g id="Node000011" class="node">
<title>Node11</title>
<g id="a_Node000011"><a xlink:href="classinja_1_1Lexer.html#a8c85efa9536869c371b8afb609e0d8d2" target="_top" xlink:title=" ">
<polygon fill="white" stroke="#666666" points="1330.5,-423.75 1235,-423.75 1235,-403 1330.5,-403 1330.5,-423.75"/>
<text xml:space="preserve" text-anchor="middle" x="1282.75" y="-410.25" font-family="Helvetica,sans-Serif" font-size="10.00">inja::Lexer::scan</text>
</a>
</g>
</g>
<!-- Node10&#45;&gt;Node11 -->
<g id="edge10_Node000010_Node000011" class="edge">
<title>Node10&#45;&gt;Node11</title>
<g id="a_edge10_Node000010_Node000011"><a xlink:title=" ">
<path fill="none" stroke="#63b8ff" d="M1188.95,-421.92C1200.33,-420.87 1212.24,-419.78 1223.58,-418.73"/>
<polygon fill="#63b8ff" stroke="#63b8ff" points="1223.56,-422.25 1233.19,-417.85 1222.91,-415.28 1223.56,-422.25"/>
</a>
</g>
</g>
<!-- Node12 -->
<g id="Node000012" class="node">
<title>Node12</title>
<g id="a_Node000012"><a xlink:href="classinja_1_1Lexer.html#a0f4034e3151f72f121fb4f2b63374ce1" target="_top" xlink:title=" ">
<polygon fill="white" stroke="#666666" points="1511.5,-385.12 1372.5,-385.12 1372.5,-351.62 1511.5,-351.62 1511.5,-385.12"/>
<text xml:space="preserve" text-anchor="start" x="1380.5" y="-371.62" font-family="Helvetica,sans-Serif" font-size="10.00">inja::Lexer::clear</text>
<text xml:space="preserve" text-anchor="middle" x="1442" y="-358.88" font-family="Helvetica,sans-Serif" font-size="10.00">_final_line_if_whitespace</text>
</a>
</g>
</g>
<!-- Node11&#45;&gt;Node12 -->
<g id="edge11_Node000011_Node000012" class="edge">
<title>Node11&#45;&gt;Node12</title>
<g id="a_edge11_Node000011_Node000012"><a xlink:title=" ">
<path fill="none" stroke="#63b8ff" d="M1321.42,-402.6C1336.02,-398.42 1353.25,-393.49 1370.01,-388.69"/>
<polygon fill="#63b8ff" stroke="#63b8ff" points="1370.82,-392.1 1379.47,-385.98 1368.89,-385.37 1370.82,-392.1"/>
</a>
</g>
</g>
<!-- Node13 -->
<g id="Node000013" class="node">
<title>Node13</title>
<g id="a_Node000013"><a xlink:href="classinja_1_1Lexer.html#a6088871283d1a03087b325b88c9396f4" target="_top" xlink:title=" ">
<polygon fill="white" stroke="#666666" points="1877.62,-447.75 1745.38,-447.75 1745.38,-427 1877.62,-427 1877.62,-447.75"/>
<text xml:space="preserve" text-anchor="middle" x="1811.5" y="-434.25" font-family="Helvetica,sans-Serif" font-size="10.00">inja::Lexer::make_token</text>
</a>
</g>
</g>
<!-- Node11&#45;&gt;Node13 -->
<g id="edge12_Node000011_Node000013" class="edge">
<title>Node11&#45;&gt;Node13</title>
<g id="a_edge12_Node000011_Node000013"><a xlink:title=" ">
<path fill="none" stroke="#63b8ff" d="M1296.94,-424.23C1313.73,-437.68 1344,-460.75 1372.5,-476.38 1446.11,-516.72 1465.12,-531.3 1547.5,-547.38 1616.97,-560.93 1641.76,-575.41 1706.75,-547.38 1748.91,-529.19 1781.89,-484.51 1798.55,-458.02"/>
<polygon fill="#63b8ff" stroke="#63b8ff" points="1801.52,-459.89 1803.71,-449.52 1795.53,-456.26 1801.52,-459.89"/>
</a>
</g>
</g>
<!-- Node14 -->
<g id="Node000014" class="node">
<title>Node14</title>
<g id="a_Node000014"><a xlink:href="namespaceinja_1_1string__view.html#a898871016595d8f34d1b4ea55b3e8684" target="_top" xlink:title=" ">
<polygon fill="white" stroke="#666666" points="2018.5,-236.12 1916.25,-236.12 1916.25,-202.62 2018.5,-202.62 2018.5,-236.12"/>
<text xml:space="preserve" text-anchor="start" x="1924.25" y="-222.62" font-family="Helvetica,sans-Serif" font-size="10.00">inja::string_view::</text>
<text xml:space="preserve" text-anchor="middle" x="1967.38" y="-209.88" font-family="Helvetica,sans-Serif" font-size="10.00">slice</text>
</a>
</g>
</g>
<!-- Node11&#45;&gt;Node14 -->
<g id="edge27_Node000011_Node000014" class="edge">
<title>Node11&#45;&gt;Node14</title>
<g id="a_edge27_Node000011_Node000014"><a xlink:title=" ">
<path fill="none" stroke="#63b8ff" d="M1288.2,-402.72C1298.91,-378.38 1328.58,-318.41 1372.5,-287.38 1438.47,-240.77 1467.75,-251.18 1547.5,-238.38 1673.17,-218.2 1822.56,-216.72 1904.66,-217.81"/>
<polygon fill="#63b8ff" stroke="#63b8ff" points="1904.46,-221.31 1914.52,-217.96 1904.57,-214.31 1904.46,-221.31"/>
</a>
</g>
</g>
<!-- Node15 -->
<g id="Node000015" class="node">
<title>Node15</title>
<g id="a_Node000015"><a xlink:href="structinja_1_1Token.html#ae215b2b1e365fc7c4060895b604e2430" target="_top" xlink:title=" ">
<polygon fill="white" stroke="#666666" points="2018.12,-530.75 1916.62,-530.75 1916.62,-510 2018.12,-510 2018.12,-530.75"/>
<text xml:space="preserve" text-anchor="middle" x="1967.38" y="-517.25" font-family="Helvetica,sans-Serif" font-size="10.00">inja::Token::Token</text>
</a>
</g>
</g>
<!-- Node11&#45;&gt;Node15 -->
<g id="edge29_Node000011_Node000015" class="edge">
<title>Node11&#45;&gt;Node15</title>
<g id="a_edge29_Node000011_Node000015"><a xlink:title=" ">
<path fill="none" stroke="#63b8ff" d="M1289.51,-424.13C1301.77,-445.94 1332.59,-495.49 1372.5,-521.38 1440.17,-565.26 1467.57,-558.61 1547.5,-569.38 1680.98,-587.35 1838.91,-554.19 1917.24,-534.1"/>
<polygon fill="#63b8ff" stroke="#63b8ff" points="1917.94,-537.54 1926.74,-531.63 1916.18,-530.76 1917.94,-537.54"/>
</a>
</g>
</g>
<!-- Node16 -->
<g id="Node000016" class="node">
<title>Node16</title>
<g id="a_Node000016"><a xlink:href="classinja_1_1Lexer.html#aa342980e23b7a9fa633e82cf38c3c682" target="_top" xlink:title=" ">
<polygon fill="white" stroke="#666666" points="1504.38,-423.75 1379.62,-423.75 1379.62,-403 1504.38,-403 1504.38,-423.75"/>
<text xml:space="preserve" text-anchor="middle" x="1442" y="-410.25" font-family="Helvetica,sans-Serif" font-size="10.00">inja::Lexer::scan_body</text>
</a>
</g>
</g>
<!-- Node11&#45;&gt;Node16 -->
<g id="edge15_Node000011_Node000016" class="edge">
<title>Node11&#45;&gt;Node16</title>
<g id="a_edge15_Node000011_Node000016"><a xlink:title=" ">
<path fill="none" stroke="#63b8ff" d="M1330.93,-413.38C1342.57,-413.38 1355.3,-413.38 1367.85,-413.38"/>
<polygon fill="#63b8ff" stroke="#63b8ff" points="1367.77,-416.88 1377.77,-413.38 1367.77,-409.88 1367.77,-416.88"/>
</a>
</g>
</g>
<!-- Node20 -->
<g id="Node000020" class="node">
<title>Node20</title>
<g id="a_Node000020"><a xlink:href="classinja_1_1Lexer.html#ae4dcb266522442d430dcb8d381b5fdb1" target="_top" xlink:title=" ">
<polygon fill="white" stroke="#666666" points="1706.75,-281.12 1547.5,-281.12 1547.5,-247.62 1706.75,-247.62 1706.75,-281.12"/>
<text xml:space="preserve" text-anchor="start" x="1555.5" y="-267.62" font-family="Helvetica,sans-Serif" font-size="10.00">inja::Lexer::skip_whitespaces</text>
<text xml:space="preserve" text-anchor="middle" x="1627.12" y="-254.88" font-family="Helvetica,sans-Serif" font-size="10.00">_and_first_newline</text>
</a>
</g>
</g>
<!-- Node11&#45;&gt;Node20 -->
<g id="edge26_Node000011_Node000020" class="edge">
<title>Node11&#45;&gt;Node20</title>
<g id="a_edge26_Node000011_Node000020"><a xlink:title=" ">
<path fill="none" stroke="#63b8ff" d="M1294.27,-402.71C1309.98,-387.34 1341.1,-358.98 1372.5,-342.38 1423.8,-315.24 1486.02,-295.92 1536,-283.3"/>
<polygon fill="#63b8ff" stroke="#63b8ff" points="1536.78,-286.71 1545.65,-280.91 1535.1,-279.92 1536.78,-286.71"/>
</a>
</g>
</g>
<!-- Node22 -->
<g id="Node000022" class="node">
<title>Node22</title>
<g id="a_Node000022"><a xlink:href="namespaceinja_1_1string__view.html#a78e9922c080101c22e54419f7caa83d8" target="_top" xlink:title=" ">
<polygon fill="white" stroke="#666666" points="1678.25,-538.12 1576,-538.12 1576,-504.62 1678.25,-504.62 1678.25,-538.12"/>
<text xml:space="preserve" text-anchor="start" x="1584" y="-524.62" font-family="Helvetica,sans-Serif" font-size="10.00">inja::string_view::</text>
<text xml:space="preserve" text-anchor="middle" x="1627.12" y="-511.88" font-family="Helvetica,sans-Serif" font-size="10.00">starts_with</text>
</a>
</g>
</g>
<!-- Node11&#45;&gt;Node22 -->
<g id="edge28_Node000011_Node000022" class="edge">
<title>Node11&#45;&gt;Node22</title>
<g id="a_edge28_Node000011_Node000022"><a xlink:title=" ">
<path fill="none" stroke="#63b8ff" d="M1318.15,-424.22C1375.89,-442.44 1493.05,-479.4 1565.06,-502.11"/>
<polygon fill="#63b8ff" stroke="#63b8ff" points="1563.74,-505.37 1574.33,-505.04 1565.85,-498.69 1563.74,-505.37"/>
</a>
</g>
</g>
<!-- Node13&#45;&gt;Node14 -->
<g id="edge13_Node000013_Node000014" class="edge">
<title>Node13&#45;&gt;Node14</title>
<g id="a_edge13_Node000013_Node000014"><a xlink:title=" ">
<path fill="none" stroke="#63b8ff" d="M1820.13,-426.56C1843.39,-393.61 1913.88,-293.75 1947.78,-245.72"/>
<polygon fill="#63b8ff" stroke="#63b8ff" points="1950.46,-248 1953.36,-237.81 1944.74,-243.96 1950.46,-248"/>
</a>
</g>
</g>
<!-- Node13&#45;&gt;Node15 -->
<g id="edge14_Node000013_Node000015" class="edge">
<title>Node13&#45;&gt;Node15</title>
<g id="a_edge14_Node000013_Node000015"><a xlink:title=" ">
<path fill="none" stroke="#63b8ff" d="M1832.62,-448.23C1859,-462.46 1905.51,-487.55 1936.14,-504.07"/>
<polygon fill="#63b8ff" stroke="#63b8ff" points="1934.46,-507.14 1944.92,-508.8 1937.78,-500.98 1934.46,-507.14"/>
</a>
</g>
</g>
<!-- Node16&#45;&gt;Node13 -->
<g id="edge16_Node000016_Node000013" class="edge">
<title>Node16&#45;&gt;Node13</title>
<g id="a_edge16_Node000016_Node000013"><a xlink:title=" ">
<path fill="none" stroke="#63b8ff" d="M1504.72,-411.73C1558.28,-410.97 1637.83,-411.46 1706.75,-418.38 1720.7,-419.77 1735.58,-422.04 1749.59,-424.52"/>
<polygon fill="#63b8ff" stroke="#63b8ff" points="1748.64,-427.9 1759.11,-426.27 1749.91,-421.02 1748.64,-427.9"/>
</a>
</g>
</g>
<!-- Node17 -->
<g id="Node000017" class="node">
<title>Node17</title>
<g id="a_Node000017"><a xlink:href="classinja_1_1Lexer.html#acb4ddc9702038530f73db97c701a60a5" target="_top" xlink:title=" ">
<polygon fill="white" stroke="#666666" points="1682,-319.75 1572.25,-319.75 1572.25,-299 1682,-299 1682,-319.75"/>
<text xml:space="preserve" text-anchor="middle" x="1627.12" y="-306.25" font-family="Helvetica,sans-Serif" font-size="10.00">inja::Lexer::scan_id</text>
</a>
</g>
</g>
<!-- Node16&#45;&gt;Node17 -->
<g id="edge17_Node000016_Node000017" class="edge">
<title>Node16&#45;&gt;Node17</title>
<g id="a_edge17_Node000016_Node000017"><a xlink:title=" ">
<path fill="none" stroke="#63b8ff" d="M1497.72,-402.66C1502.65,-400.4 1507.34,-397.67 1511.5,-394.38 1537.67,-373.6 1520.99,-348.71 1547.5,-328.38 1551.73,-325.13 1556.44,-322.43 1561.39,-320.18"/>
<polygon fill="#63b8ff" stroke="#63b8ff" points="1562.33,-323.57 1570.41,-316.72 1559.82,-317.04 1562.33,-323.57"/>
</a>
</g>
</g>
<!-- Node18 -->
<g id="Node000018" class="node">
<title>Node18</title>
<g id="a_Node000018"><a xlink:href="classinja_1_1Lexer.html#ab9aa4522a541720d58268d7d3e27e63f" target="_top" xlink:title=" ">
<polygon fill="white" stroke="#666666" points="1696.25,-486.75 1558,-486.75 1558,-466 1696.25,-466 1696.25,-486.75"/>
<text xml:space="preserve" text-anchor="middle" x="1627.12" y="-473.25" font-family="Helvetica,sans-Serif" font-size="10.00">inja::Lexer::scan_number</text>
</a>
</g>
</g>
<!-- Node16&#45;&gt;Node18 -->
<g id="edge19_Node000016_Node000018" class="edge">
<title>Node16&#45;&gt;Node18</title>
<g id="a_edge19_Node000016_Node000018"><a xlink:title=" ">
<path fill="none" stroke="#63b8ff" d="M1466.3,-424.07C1487.24,-433.42 1519.01,-446.94 1547.5,-456.38 1554.17,-458.58 1561.22,-460.69 1568.26,-462.65"/>
<polygon fill="#63b8ff" stroke="#63b8ff" points="1567.22,-466 1577.78,-465.21 1569.04,-459.24 1567.22,-466"/>
</a>
</g>
</g>
<!-- Node19 -->
<g id="Node000019" class="node">
<title>Node19</title>
<g id="a_Node000019"><a xlink:href="classinja_1_1Lexer.html#a3e8f3f7d8569fa5d781633b57a6bdcca" target="_top" xlink:title=" ">
<polygon fill="white" stroke="#666666" points="1691.38,-447.75 1562.88,-447.75 1562.88,-427 1691.38,-427 1691.38,-447.75"/>
<text xml:space="preserve" text-anchor="middle" x="1627.12" y="-434.25" font-family="Helvetica,sans-Serif" font-size="10.00">inja::Lexer::scan_string</text>
</a>
</g>
</g>
<!-- Node16&#45;&gt;Node19 -->
<g id="edge21_Node000016_Node000019" class="edge">
<title>Node16&#45;&gt;Node19</title>
<g id="a_edge21_Node000016_Node000019"><a xlink:title=" ">
<path fill="none" stroke="#63b8ff" d="M1504.74,-421.47C1519.7,-423.43 1535.85,-425.54 1551.33,-427.57"/>
<polygon fill="#63b8ff" stroke="#63b8ff" points="1550.59,-431.01 1560.96,-428.83 1551.5,-424.07 1550.59,-431.01"/>
</a>
</g>
</g>
<!-- Node16&#45;&gt;Node20 -->
<g id="edge23_Node000016_Node000020" class="edge">
<title>Node16&#45;&gt;Node20</title>
<g id="a_edge23_Node000016_Node000020"><a xlink:title=" ">
<path fill="none" stroke="#63b8ff" d="M1499.65,-402.67C1503.96,-400.4 1507.99,-397.67 1511.5,-394.38 1547.15,-360.89 1512.67,-324.72 1547.5,-290.38 1548.24,-289.65 1549,-288.94 1549.78,-288.25"/>
<polygon fill="#63b8ff" stroke="#63b8ff" points="1551.59,-291.26 1557.55,-282.51 1547.43,-285.63 1551.59,-291.26"/>
</a>
</g>
</g>
<!-- Node21 -->
<g id="Node000021" class="node">
<title>Node21</title>
<g id="a_Node000021"><a xlink:href="classinja_1_1Lexer.html#a50d21b69bfa1cd5e6d2e9b5c1bd53c53" target="_top" xlink:title=" ">
<polygon fill="white" stroke="#666666" points="1706.75,-371.12 1547.5,-371.12 1547.5,-337.62 1706.75,-337.62 1706.75,-371.12"/>
<text xml:space="preserve" text-anchor="start" x="1555.5" y="-357.62" font-family="Helvetica,sans-Serif" font-size="10.00">inja::Lexer::skip_whitespaces</text>
<text xml:space="preserve" text-anchor="middle" x="1627.12" y="-344.88" font-family="Helvetica,sans-Serif" font-size="10.00">_and_newlines</text>
</a>
</g>
</g>
<!-- Node16&#45;&gt;Node21 -->
<g id="edge24_Node000016_Node000021" class="edge">
<title>Node16&#45;&gt;Node21</title>
<g id="a_edge24_Node000016_Node000021"><a xlink:title=" ">
<path fill="none" stroke="#63b8ff" d="M1483.7,-402.56C1492.87,-399.99 1502.55,-397.18 1511.5,-394.38 1530.08,-388.56 1550.17,-381.74 1568.27,-375.39"/>
<polygon fill="#63b8ff" stroke="#63b8ff" points="1569.26,-378.75 1577.52,-372.12 1566.93,-372.15 1569.26,-378.75"/>
</a>
</g>
</g>
<!-- Node16&#45;&gt;Node22 -->
<g id="edge25_Node000016_Node000022" class="edge">
<title>Node16&#45;&gt;Node22</title>
<g id="a_edge25_Node000016_Node000022"><a xlink:title=" ">
<path fill="none" stroke="#63b8ff" d="M1458.2,-424.22C1472.24,-434.34 1493.56,-450.01 1511.5,-464.38 1527.98,-477.58 1529.13,-484.97 1547.5,-495.38 1553.11,-498.55 1559.17,-501.41 1565.34,-503.97"/>
<polygon fill="#63b8ff" stroke="#63b8ff" points="1563.79,-507.12 1574.38,-507.45 1566.3,-500.59 1563.79,-507.12"/>
</a>
</g>
</g>
<!-- Node17&#45;&gt;Node13 -->
<g id="edge18_Node000017_Node000013" class="edge">
<title>Node17&#45;&gt;Node13</title>
<g id="a_edge18_Node000017_Node000013"><a xlink:title=" ">
<path fill="none" stroke="#63b8ff" d="M1682.16,-318.07C1690.71,-320.66 1699.21,-324.02 1706.75,-328.38 1745.92,-350.99 1779.57,-392.88 1797.24,-417.62"/>
<polygon fill="#63b8ff" stroke="#63b8ff" points="1794.16,-419.32 1802.75,-425.53 1799.91,-415.32 1794.16,-419.32"/>
</a>
</g>
</g>
<!-- Node18&#45;&gt;Node13 -->
<g id="edge20_Node000018_Node000013" class="edge">
<title>Node18&#45;&gt;Node13</title>
<g id="a_edge20_Node000018_Node000013"><a xlink:title=" ">
<path fill="none" stroke="#63b8ff" d="M1678.93,-465.51C1700.48,-460.9 1725.8,-455.49 1748.44,-450.65"/>
<polygon fill="#63b8ff" stroke="#63b8ff" points="1749.13,-454.08 1758.17,-448.56 1747.66,-447.23 1749.13,-454.08"/>
</a>
</g>
</g>
<!-- Node19&#45;&gt;Node13 -->
<g id="edge22_Node000019_Node000013" class="edge">
<title>Node19&#45;&gt;Node13</title>
<g id="a_edge22_Node000019_Node000013"><a xlink:title=" ">
<path fill="none" stroke="#63b8ff" d="M1691.65,-437.38C1705.28,-437.38 1719.82,-437.38 1733.88,-437.38"/>
<polygon fill="#63b8ff" stroke="#63b8ff" points="1733.52,-440.88 1743.52,-437.38 1733.52,-433.88 1733.52,-440.88"/>
</a>
</g>
</g>
<!-- Node24 -->
<g id="Node000024" class="node">
<title>Node24</title>
<g id="a_Node000024"><a xlink:href="classinja_1_1Parser.html#a7dda6b9f4295c215e097f45d573d8d69" target="_top" xlink:title=" ">
<polygon fill="white" stroke="#666666" points="1012.38,-378.12 908.62,-378.12 908.62,-344.62 1012.38,-344.62 1012.38,-378.12"/>
<text xml:space="preserve" text-anchor="start" x="916.62" y="-364.62" font-family="Helvetica,sans-Serif" font-size="10.00">inja::Parser::parse</text>
<text xml:space="preserve" text-anchor="middle" x="960.5" y="-351.88" font-family="Helvetica,sans-Serif" font-size="10.00">_expression</text>
</a>
</g>
</g>
<!-- Node23&#45;&gt;Node24 -->
<g id="edge31_Node000023_Node000024" class="edge">
<title>Node23&#45;&gt;Node24</title>
<g id="a_edge31_Node000023_Node000024"><a xlink:title=" ">
<path fill="none" stroke="#63b8ff" d="M853.99,-385.59C867.88,-382.4 883.05,-378.92 897.46,-375.61"/>
<polygon fill="#63b8ff" stroke="#63b8ff" points="897.85,-379.11 906.81,-373.47 896.28,-372.29 897.85,-379.11"/>
</a>
</g>
</g>
<!-- Node24&#45;&gt;Node9 -->
<g id="edge32_Node000024_Node000009" class="edge">
<title>Node24&#45;&gt;Node9</title>
<g id="a_edge32_Node000024_Node000009"><a xlink:title=" ">
<path fill="none" stroke="#63b8ff" d="M1003.68,-344.28C1012.16,-340.18 1020.82,-335.49 1028.5,-330.38 1046.56,-318.34 1045.63,-308.1 1064.5,-297.38 1066.85,-296.04 1069.31,-294.78 1071.84,-293.61"/>
<polygon fill="#63b8ff" stroke="#63b8ff" points="1073.16,-296.85 1081.08,-289.81 1070.5,-290.38 1073.16,-296.85"/>
</a>
</g>
</g>
<!-- Node24&#45;&gt;Node10 -->
<g id="edge34_Node000024_Node000010" class="edge">
<title>Node24&#45;&gt;Node10</title>
<g id="a_edge34_Node000024_Node000010"><a xlink:title=" ">
<path fill="none" stroke="#63b8ff" d="M1004.75,-378.54C1025.83,-386.91 1051.4,-397.06 1073.75,-405.94"/>
<polygon fill="#63b8ff" stroke="#63b8ff" points="1072.44,-409.18 1083.03,-409.62 1075.02,-402.68 1072.44,-409.18"/>
</a>
</g>
</g>
<!-- Node24&#45;&gt;Node24 -->
<g id="edge37_Node000024_Node000024" class="edge">
<title>Node24&#45;&gt;Node24</title>
<g id="a_edge37_Node000024_Node000024"><a xlink:title=" ">
<path fill="none" stroke="#63b8ff" d="M931.94,-378.54C927.09,-387.74 936.61,-396.12 960.5,-396.12 973.94,-396.12 982.83,-393.47 987.18,-389.51"/>
<polygon fill="#63b8ff" stroke="#63b8ff" points="990.56,-390.48 988.8,-380.03 983.66,-389.29 990.56,-390.48"/>
</a>
</g>
</g>
<!-- Node25 -->
<g id="Node000025" class="node">
<title>Node25</title>
<g id="a_Node000025"><a xlink:href="classinja_1_1FunctionStorage.html#af382c6fe227c69fa5cc36703a655912c" target="_top" xlink:title=" ">
<polygon fill="white" stroke="#666666" points="1188.12,-392.12 1069.38,-392.12 1069.38,-358.62 1188.12,-358.62 1188.12,-392.12"/>
<text xml:space="preserve" text-anchor="start" x="1077.38" y="-378.62" font-family="Helvetica,sans-Serif" font-size="10.00">inja::FunctionStorage</text>
<text xml:space="preserve" text-anchor="middle" x="1128.75" y="-365.88" font-family="Helvetica,sans-Serif" font-size="10.00">::find_function</text>
</a>
</g>
</g>
<!-- Node24&#45;&gt;Node25 -->
<g id="edge33_Node000024_Node000025" class="edge">
<title>Node24&#45;&gt;Node25</title>
<g id="a_edge33_Node000024_Node000025"><a xlink:title=" ">
<path fill="none" stroke="#63b8ff" d="M1012.74,-365.69C1026.95,-366.89 1042.64,-368.21 1057.73,-369.48"/>
<polygon fill="#63b8ff" stroke="#63b8ff" points="1057.36,-372.96 1067.61,-370.31 1057.94,-365.98 1057.36,-372.96"/>
</a>
</g>
</g>
<!-- Node26 -->
<g id="Node000026" class="node">
<title>Node26</title>
<g id="a_Node000026"><a xlink:href="classinja_1_1Parser.html#a16b5b7d40ed3e6a536194d1367626fd9" target="_top" xlink:title=" ">
<polygon fill="white" stroke="#666666" points="1189.62,-340.12 1067.88,-340.12 1067.88,-306.62 1189.62,-306.62 1189.62,-340.12"/>
<text xml:space="preserve" text-anchor="start" x="1075.88" y="-326.62" font-family="Helvetica,sans-Serif" font-size="10.00">inja::Parser::get_peek</text>
<text xml:space="preserve" text-anchor="middle" x="1128.75" y="-313.88" font-family="Helvetica,sans-Serif" font-size="10.00">_token</text>
</a>
</g>
</g>
<!-- Node24&#45;&gt;Node26 -->
<g id="edge35_Node000024_Node000026" class="edge">
<title>Node24&#45;&gt;Node26</title>
<g id="a_edge35_Node000024_Node000026"><a xlink:title=" ">
<path fill="none" stroke="#63b8ff" d="M1012.74,-349.66C1026.57,-346.5 1041.8,-343.02 1056.52,-339.66"/>
<polygon fill="#63b8ff" stroke="#63b8ff" points="1057.2,-343.09 1066.17,-337.45 1055.64,-336.27 1057.2,-343.09"/>
</a>
</g>
</g>
<!-- Node24&#45;&gt;Node27 -->
<g id="edge38_Node000024_Node000027" class="edge">
<title>Node24&#45;&gt;Node27</title>
<g id="a_edge38_Node000024_Node000027"><a xlink:title=" ">
<path fill="none" stroke="#63b8ff" d="M978.05,-344.15C1007.55,-313.46 1069.34,-249.16 1103.59,-213.51"/>
<polygon fill="#63b8ff" stroke="#63b8ff" points="1105.81,-216.25 1110.22,-206.62 1100.77,-211.4 1105.81,-216.25"/>
</a>
</g>
</g>
<!-- Node26&#45;&gt;Node11 -->
<g id="edge36_Node000026_Node000011" class="edge">
<title>Node26&#45;&gt;Node11</title>
<g id="a_edge36_Node000026_Node000011"><a xlink:title=" ">
<path fill="none" stroke="#63b8ff" d="M1175.28,-340.57C1181.34,-343.3 1187.4,-346.26 1193,-349.38 1217.24,-362.85 1242.69,-381.76 1260.09,-395.54"/>
<polygon fill="#63b8ff" stroke="#63b8ff" points="1257.7,-398.11 1267.69,-401.64 1262.09,-392.65 1257.7,-398.11"/>
</a>
</g>
</g>
<!-- Node28 -->
<g id="Node000028" class="node">
<title>Node28</title>
<g id="a_Node000028"><a xlink:href="classinja_1_1Lexer.html#a0ec13f470ddcf0c1fb7466f6168451b2" target="_top" xlink:title=" ">
<polygon fill="white" stroke="#666666" points="1336.5,-205.12 1229,-205.12 1229,-171.62 1336.5,-171.62 1336.5,-205.12"/>
<text xml:space="preserve" text-anchor="start" x="1237" y="-191.62" font-family="Helvetica,sans-Serif" font-size="10.00">inja::Lexer::current</text>
<text xml:space="preserve" text-anchor="middle" x="1282.75" y="-178.88" font-family="Helvetica,sans-Serif" font-size="10.00">_position</text>
</a>
</g>
</g>
<!-- Node27&#45;&gt;Node28 -->
<g id="edge39_Node000027_Node000028" class="edge">
<title>Node27&#45;&gt;Node28</title>
<g id="a_edge39_Node000027_Node000028"><a xlink:title=" ">
<path fill="none" stroke="#63b8ff" d="M1181.21,-188.38C1192.76,-188.38 1205.16,-188.38 1217.17,-188.38"/>
<polygon fill="#63b8ff" stroke="#63b8ff" points="1217.01,-191.88 1227.01,-188.38 1217.01,-184.88 1217.01,-191.88"/>
</a>
</g>
</g>
<!-- Node30 -->
<g id="Node000030" class="node">
<title>Node30</title>
<g id="a_Node000030"><a xlink:href="structinja_1_1ParserError.html#aa76b83dd1badd3fcf64aff6feee7583c" target="_top" xlink:title=" ">
<polygon fill="white" stroke="#666666" points="1332.75,-153.12 1232.75,-153.12 1232.75,-119.62 1332.75,-119.62 1332.75,-153.12"/>
<text xml:space="preserve" text-anchor="start" x="1240.75" y="-139.62" font-family="Helvetica,sans-Serif" font-size="10.00">inja::ParserError::</text>
<text xml:space="preserve" text-anchor="middle" x="1282.75" y="-126.88" font-family="Helvetica,sans-Serif" font-size="10.00">ParserError</text>
</a>
</g>
</g>
<!-- Node27&#45;&gt;Node30 -->
<g id="edge42_Node000027_Node000030" class="edge">
<title>Node27&#45;&gt;Node30</title>
<g id="a_edge42_Node000027_Node000030"><a xlink:title=" ">
<path fill="none" stroke="#63b8ff" d="M1179.94,-171.2C1193.25,-166.65 1207.75,-161.69 1221.53,-156.98"/>
<polygon fill="#63b8ff" stroke="#63b8ff" points="1222.63,-160.3 1230.96,-153.75 1220.36,-153.68 1222.63,-160.3"/>
</a>
</g>
</g>
<!-- Node29 -->
<g id="Node000029" class="node">
<title>Node29</title>
<g id="a_Node000029"><a xlink:href="namespaceinja.html#ab7c8c54f2caeb72095cd78a7ff7b6c37" target="_top" xlink:title=" ">
<polygon fill="white" stroke="#666666" points="1880.25,-191.75 1742.75,-191.75 1742.75,-171 1880.25,-171 1880.25,-191.75"/>
<text xml:space="preserve" text-anchor="middle" x="1811.5" y="-178.25" font-family="Helvetica,sans-Serif" font-size="10.00">inja::get_source_location</text>
</a>
</g>
</g>
<!-- Node28&#45;&gt;Node29 -->
<g id="edge40_Node000028_Node000029" class="edge">
<title>Node28&#45;&gt;Node29</title>
<g id="a_edge40_Node000028_Node000029"><a xlink:title=" ">
<path fill="none" stroke="#63b8ff" d="M1336.67,-187.67C1429.52,-186.44 1622.24,-183.88 1731.12,-182.43"/>
<polygon fill="#63b8ff" stroke="#63b8ff" points="1730.89,-185.93 1740.84,-182.3 1730.8,-178.93 1730.89,-185.93"/>
</a>
</g>
</g>
<!-- Node29&#45;&gt;Node14 -->
<g id="edge41_Node000029_Node000014" class="edge">
<title>Node29&#45;&gt;Node14</title>
<g id="a_edge41_Node000029_Node000014"><a xlink:title=" ">
<path fill="none" stroke="#63b8ff" d="M1856.18,-192.16C1871.27,-195.89 1888.47,-200.14 1904.72,-204.15"/>
<polygon fill="#63b8ff" stroke="#63b8ff" points="1903.77,-207.52 1914.32,-206.52 1905.45,-200.72 1903.77,-207.52"/>
</a>
</g>
</g>
<!-- Node31 -->
<g id="Node000031" class="node">
<title>Node31</title>
<g id="a_Node000031"><a xlink:href="structinja_1_1InjaError.html#a399b7d2f7c824c24b7794694711bafb7" target="_top" xlink:title=" ">
<polygon fill="white" stroke="#666666" points="1506.25,-146.75 1377.75,-146.75 1377.75,-126 1506.25,-126 1506.25,-146.75"/>
<text xml:space="preserve" text-anchor="middle" x="1442" y="-133.25" font-family="Helvetica,sans-Serif" font-size="10.00">inja::InjaError::InjaError</text>
</a>
</g>
</g>
<!-- Node30&#45;&gt;Node31 -->
<g id="edge43_Node000030_Node000031" class="edge">
<title>Node30&#45;&gt;Node31</title>
<g id="a_edge43_Node000030_Node000031"><a xlink:title=" ">
<path fill="none" stroke="#63b8ff" d="M1333.07,-136.38C1343.61,-136.38 1354.97,-136.38 1366.22,-136.38"/>
<polygon fill="#63b8ff" stroke="#63b8ff" points="1365.89,-139.88 1375.89,-136.38 1365.89,-132.88 1365.89,-139.88"/>
</a>
</g>
</g>
<!-- Node32&#45;&gt;Node9 -->
<g id="edge49_Node000032_Node000009" class="edge">
<title>Node32&#45;&gt;Node9</title>
<g id="a_edge49_Node000032_Node000009"><a xlink:title=" ">
<path fill="none" stroke="#63b8ff" d="M710.84,-276.59C795.41,-276.95 964.83,-277.68 1059.59,-278.08"/>
<polygon fill="#63b8ff" stroke="#63b8ff" points="1059.52,-281.58 1069.53,-278.13 1059.55,-274.58 1059.52,-281.58"/>
</a>
</g>
</g>
<!-- Node32&#45;&gt;Node10 -->
<g id="edge50_Node000032_Node000010" class="edge">
<title>Node32&#45;&gt;Node10</title>
<g id="a_edge50_Node000032_Node000010"><a xlink:title=" ">
<path fill="none" stroke="#63b8ff" d="M704.95,-293.5C746.24,-310.24 808.12,-338.03 856.5,-371.38 874.62,-383.86 872.45,-396.3 892.5,-405.38 944.4,-428.86 1009.21,-433.34 1057.66,-432.53"/>
<polygon fill="#63b8ff" stroke="#63b8ff" points="1057.56,-436.03 1067.47,-432.27 1057.38,-429.03 1057.56,-436.03"/>
</a>
</g>
</g>
<!-- Node32&#45;&gt;Node23 -->
<g id="edge51_Node000032_Node000023" class="edge">
<title>Node32&#45;&gt;Node23</title>
<g id="a_edge51_Node000032_Node000023"><a xlink:title=" ">
<path fill="none" stroke="#63b8ff" d="M679.74,-293.45C703.95,-314.26 745,-349.56 772.46,-373.16"/>
<polygon fill="#63b8ff" stroke="#63b8ff" points="769.85,-375.53 779.71,-379.4 774.41,-370.22 769.85,-375.53"/>
</a>
</g>
</g>
<!-- Node32&#45;&gt;Node27 -->
<g id="edge55_Node000032_Node000027" class="edge">
<title>Node32&#45;&gt;Node27</title>
<g id="a_edge55_Node000032_Node000027"><a xlink:title=" ">
<path fill="none" stroke="#63b8ff" d="M701.94,-259.23C716.05,-253.78 731.97,-247.99 746.75,-243.38 810.44,-223.49 826.64,-218.1 892.5,-207.38 950.41,-197.95 1017.14,-193.12 1064.7,-190.7"/>
<polygon fill="#63b8ff" stroke="#63b8ff" points="1064.73,-194.2 1074.55,-190.22 1064.39,-187.21 1064.73,-194.2"/>
</a>
</g>
</g>
<!-- Node33 -->
<g id="Node000033" class="node">
<title>Node33</title>
<g id="a_Node000033"><a xlink:href="classinja_1_1Parser.html#ae1cebbe51ef6a93fc3d448263f9bf1e3" target="_top" xlink:title=" ">
<polygon fill="white" stroke="#666666" points="856.5,-84.12 746.75,-84.12 746.75,-50.62 856.5,-50.62 856.5,-84.12"/>
<text xml:space="preserve" text-anchor="start" x="754.75" y="-70.62" font-family="Helvetica,sans-Serif" font-size="10.00">inja::Parser::add_to</text>
<text xml:space="preserve" text-anchor="middle" x="801.62" y="-57.88" font-family="Helvetica,sans-Serif" font-size="10.00">_template_storage</text>
</a>
</g>
</g>
<!-- Node32&#45;&gt;Node33 -->
<g id="edge45_Node000032_Node000033" class="edge">
<title>Node32&#45;&gt;Node33</title>
<g id="a_edge45_Node000032_Node000033"><a xlink:title=" ">
<path fill="none" stroke="#63b8ff" d="M671.39,-259.27C695.94,-222.82 753.55,-137.28 782.84,-93.78"/>
<polygon fill="#63b8ff" stroke="#63b8ff" points="785.62,-95.93 788.3,-85.68 779.81,-92.02 785.62,-95.93"/>
</a>
</g>
</g>
<!-- Node35 -->
<g id="Node000035" class="node">
<title>Node35</title>
<g id="a_Node000035"><a xlink:href="classinja_1_1Parser.html#a1bd2c3127357715521ec111c39a7e823" target="_top" xlink:title=" ">
<polygon fill="white" stroke="#666666" points="1012.38,-250.12 908.62,-250.12 908.62,-216.62 1012.38,-216.62 1012.38,-250.12"/>
<text xml:space="preserve" text-anchor="start" x="916.62" y="-236.62" font-family="Helvetica,sans-Serif" font-size="10.00">inja::Parser::parse</text>
<text xml:space="preserve" text-anchor="middle" x="960.5" y="-223.88" font-family="Helvetica,sans-Serif" font-size="10.00">_filename</text>
</a>
</g>
</g>
<!-- Node32&#45;&gt;Node35 -->
<g id="edge52_Node000032_Node000035" class="edge">
<title>Node32&#45;&gt;Node35</title>
<g id="a_edge52_Node000032_Node000035"><a xlink:title=" ">
<path fill="none" stroke="#63b8ff" d="M710.83,-267.95C722.62,-266.06 735.11,-264.11 746.75,-262.38 797.24,-254.87 854.6,-247.09 897.02,-241.49"/>
<polygon fill="#63b8ff" stroke="#63b8ff" points="897.34,-244.97 906.79,-240.2 896.42,-238.03 897.34,-244.97"/>
</a>
</g>
</g>
<!-- Node33&#45;&gt;Node4 -->
<g id="edge46_Node000033_Node000004" class="edge">
<title>Node33&#45;&gt;Node4</title>
<g id="a_edge46_Node000033_Node000004"><a xlink:title=" ">
<path fill="none" stroke="#63b8ff" d="M856.61,-55.67C870.11,-52.75 884.68,-49.59 898.49,-46.6"/>
<polygon fill="#63b8ff" stroke="#63b8ff" points="898.86,-50.1 907.89,-44.56 897.38,-43.26 898.86,-50.1"/>
</a>
</g>
</g>
<!-- Node33&#45;&gt;Node6 -->
<g id="edge47_Node000033_Node000006" class="edge">
<title>Node33&#45;&gt;Node6</title>
<g id="a_edge47_Node000033_Node000006"><a xlink:title=" ">
<path fill="none" stroke="#63b8ff" d="M746.36,-67.38C662.04,-67.38 500.01,-67.38 411.08,-67.38"/>
<polygon fill="#63b8ff" stroke="#63b8ff" points="411.33,-63.88 401.33,-67.38 411.33,-70.88 411.33,-63.88"/>
</a>
</g>
</g>
<!-- Node33&#45;&gt;Node34 -->
<g id="edge48_Node000033_Node000034" class="edge">
<title>Node33&#45;&gt;Node34</title>
<g id="a_edge48_Node000033_Node000034"><a xlink:title=" ">
<path fill="none" stroke="#63b8ff" d="M856.61,-75.98C864.47,-77.23 872.7,-78.54 880.92,-79.85"/>
<polygon fill="#63b8ff" stroke="#63b8ff" points="880.19,-83.28 890.61,-81.4 881.29,-76.37 880.19,-83.28"/>
</a>
</g>
</g>
<!-- Node35&#45;&gt;Node9 -->
<g id="edge53_Node000035_Node000009" class="edge">
<title>Node35&#45;&gt;Node9</title>
<g id="a_edge53_Node000035_Node000009"><a xlink:title=" ">
<path fill="none" stroke="#63b8ff" d="M1012.74,-247.24C1033.1,-252.76 1056.48,-259.08 1076.82,-264.59"/>
<polygon fill="#63b8ff" stroke="#63b8ff" points="1075.73,-267.92 1086.3,-267.16 1077.56,-261.16 1075.73,-267.92"/>
</a>
</g>
</g>
<!-- Node35&#45;&gt;Node27 -->
<g id="edge54_Node000035_Node000027" class="edge">
<title>Node35&#45;&gt;Node27</title>
<g id="a_edge54_Node000035_Node000027"><a xlink:title=" ">
<path fill="none" stroke="#63b8ff" d="M1012.74,-219.51C1029.41,-214.99 1048.1,-209.94 1065.48,-205.23"/>
<polygon fill="#63b8ff" stroke="#63b8ff" points="1065.91,-208.74 1074.65,-202.75 1064.08,-201.98 1065.91,-208.74"/>
</a>
</g>
</g>
<!-- Node36&#45;&gt;Node22 -->
<g id="edge57_Node000036_Node000022" class="edge">
<title>Node36&#45;&gt;Node22</title>
<g id="a_edge57_Node000036_Node000022"><a xlink:title=" ">
<path fill="none" stroke="#63b8ff" d="M706.92,-541.79C765.78,-551.56 869.75,-566.38 959.5,-566.38 959.5,-566.38 959.5,-566.38 1283.75,-566.38 1382.71,-566.38 1496.39,-547.67 1564.67,-534.38"/>
<polygon fill="#63b8ff" stroke="#63b8ff" points="1565.02,-537.87 1574.16,-532.5 1563.67,-531.01 1565.02,-537.87"/>
</a>
</g>
</g>
</g>
</svg>
