<?xml version="1.0" encoding="UTF-8" standalone="no"?>
<!DOCTYPE svg PUBLIC "-//W3C//DTD SVG 1.1//EN"
 "http://www.w3.org/Graphics/SVG/1.1/DTD/svg11.dtd">
<!-- Generated by graphviz version 2.42.4 (0)
 -->
<!-- Title: nlohmann::json_schema::error_handler Pages: 1 -->
<!--zoomable 214 -->

<svg id="main" version="1.1" xmlns="http://www.w3.org/2000/svg" xmlns:xlink="http://www.w3.org/1999/xlink" xml:space="preserve" onload="init(evt)">

<style type="text/css"><![CDATA[
.node, .edge {opacity: 0.7;}
.node.selected, .edge.selected {opacity: 1;}
.edge:hover path { stroke: red; }
.edge:hover polygon { stroke: red; fill: red; }
]]></style>

<defs>
  <circle id="rim" cx="0" cy="0" r="7"/>
  <circle id="rim2" cx="0" cy="0" r="3.5"/>
  <g id="zoomPlus">
    <use xlink:href="#rim" fill="#404040"><set attributeName="fill" to="#808080" begin="zoomplus.mouseover" end="zoomplus.mouseout"/></use>
    <path d="M-4,0h8M0,-4v8" fill="none" stroke="white" stroke-width="1.5" pointer-events="none"/>
  </g>
  <g id="zoomMin">
    <use xlink:href="#rim" fill="#404040"><set attributeName="fill" to="#808080" begin="zoomminus.mouseover" end="zoomminus.mouseout"/></use>
    <path d="M-4,0h8" fill="none" stroke="white" stroke-width="1.5" pointer-events="none"/>
  </g>
  <g id="arrowUp" transform="translate(30 24)">
    <use xlink:href="#rim"/>
    <path pointer-events="none" fill="none" stroke="white" stroke-width="1.5" d="M0,-3.0v7 M-2.5,-0.5L0,-3.0L2.5,-0.5"/>
  </g>
  <g id="arrowRight" transform="rotate(90) translate(36 -43)">
    <use xlink:href="#rim"/>
    <path pointer-events="none" fill="none" stroke="white" stroke-width="1.5" d="M0,-3.0v7 M-2.5,-0.5L0,-3.0L2.5,-0.5"/>
  </g>
  <g id="arrowDown" transform="rotate(180) translate(-30 -48)">
    <use xlink:href="#rim"/>
    <path pointer-events="none" fill="none" stroke="white" stroke-width="1.5" d="M0,-3.0v7 M-2.5,-0.5L0,-3.0L2.5,-0.5"/>
  </g>
  <g id="arrowLeft" transform="rotate(270) translate(-36 17)">
    <use xlink:href="#rim"/>
    <path pointer-events="none" fill="none" stroke="white" stroke-width="1.5" d="M0,-3.0v7 M-2.5,-0.5L0,-3.0L2.5,-0.5"/>
  </g>
  <g id="resetDef">
    <use xlink:href="#rim2" fill="#404040"><set attributeName="fill" to="#808080" begin="reset.mouseover" end="reset.mouseout"/></use>
  </g>
</defs>
<script type="application/ecmascript">
var viewWidth = 958;
var viewHeight = 214;
var sectionId = 'dynsection-0';
</script>
<script type="application/ecmascript" xlink:href="svg.min.js"/>
<svg id="graph" class="graph">
<g id="viewport">
<title>nlohmann::json_schema::error_handler</title>
<!-- Node1 -->
<g id="Node000001" class="node">
<title>Node1</title>
<g id="a_Node000001"><a xlink:title=" ">
<polygon fill="#999999" stroke="transparent" points="462,-206 334,-206 334,-176 462,-176 462,-206"/>
<text text-anchor="start" x="338.5" y="-194" font-family="Helvetica,sans-Serif" font-size="10.00">nlohmann::json_schema</text>
<text text-anchor="start" x="362" y="-183" font-family="Helvetica,sans-Serif" font-size="10.00">::error_handler</text>
<polygon fill="none" stroke="#666666" points="334,-176 334,-206 462,-206 462,-176 334,-176"/>
</a>
</g>
</g>
<!-- Node2 -->
<g id="Node000002" class="node">
<title>Node2</title>
<g id="a_Node000002"><a xlink:href="classanonymous__namespace_02issue-105-verbose-combination-errors_8cpp_03_1_1MyErrorHandler.html" target="_top" xlink:title=" ">
<polygon fill="white" stroke="transparent" points="170,-134.5 0,-134.5 0,-93.5 170,-93.5 170,-134.5"/>
<text text-anchor="start" x="4.5" y="-122" font-family="Helvetica,sans-Serif" font-size="10.00">anonymous_namespace</text>
<text text-anchor="start" x="4.5" y="-111" font-family="Helvetica,sans-Serif" font-size="10.00">{issue&#45;105&#45;verbose&#45;combination</text>
<text text-anchor="start" x="14" y="-100" font-family="Helvetica,sans-Serif" font-size="10.00">&#45;errors.cpp}::MyErrorHandler</text>
<polygon fill="none" stroke="#666666" points="0,-93.5 0,-134.5 170,-134.5 170,-93.5 0,-93.5"/>
</a>
</g>
</g>
<!-- Node1&#45;&gt;Node2 -->
<g id="edge1_Node000001_Node000002" class="edge">
<title>Node1&#45;&gt;Node2</title>
<g id="a_edge1_Node000001_Node000002"><a xlink:title=" ">
<path fill="none" stroke="#63b8ff" d="M323.85,-175.47C279.05,-165.8 221.04,-152.61 170,-140 162.95,-138.26 155.62,-136.4 148.34,-134.5"/>
<polygon fill="none" stroke="#63b8ff" points="323.27,-178.92 333.78,-177.6 324.74,-172.08 323.27,-178.92"/>
</a>
</g>
</g>
<!-- Node1&#45;&gt;Node2 -->
<g id="edge2_Node000001_Node000002" class="edge">
<title>Node1&#45;&gt;Node2</title>
<g id="a_edge2_Node000001_Node000002"><a xlink:title=" ">
<path fill="none" stroke="#63b8ff" d="M331.32,-173.66C289.98,-164.19 235.92,-151.84 188,-140 180.95,-138.26 173.62,-136.4 166.25,-134.5"/>
<polygon fill="none" stroke="#63b8ff" points="330.75,-177.12 341.27,-175.94 332.31,-170.29 330.75,-177.12"/>
</a>
</g>
</g>
<!-- Node3 -->
<g id="Node000003" class="node">
<title>Node3</title>
<g id="a_Node000003"><a xlink:href="classanonymous__namespace_02json-validator_8cpp_03_1_1first__error__handler.html" target="_top" xlink:title=" ">
<polygon fill="white" stroke="transparent" points="316,-134.5 188,-134.5 188,-93.5 316,-93.5 316,-134.5"/>
<text text-anchor="start" x="192.5" y="-122" font-family="Helvetica,sans-Serif" font-size="10.00">anonymous_namespace</text>
<text text-anchor="start" x="192.5" y="-111" font-family="Helvetica,sans-Serif" font-size="10.00">{json&#45;validator.cpp}</text>
<text text-anchor="start" x="203.5" y="-100" font-family="Helvetica,sans-Serif" font-size="10.00">::first_error_handler</text>
<polygon fill="none" stroke="#666666" points="188,-93.5 188,-134.5 316,-134.5 316,-93.5 188,-93.5"/>
</a>
</g>
</g>
<!-- Node1&#45;&gt;Node3 -->
<g id="edge3_Node000001_Node000003" class="edge">
<title>Node1&#45;&gt;Node3</title>
<g id="a_edge3_Node000001_Node000003"><a xlink:title=" ">
<path fill="none" stroke="#63b8ff" d="M355.97,-171.45C333.06,-160.23 305.23,-145.95 284.07,-134.56"/>
<polygon fill="none" stroke="#63b8ff" points="354.6,-174.68 365.13,-175.89 357.66,-168.38 354.6,-174.68"/>
</a>
</g>
</g>
<!-- Node1&#45;&gt;Node3 -->
<g id="edge4_Node000001_Node000003" class="edge">
<title>Node1&#45;&gt;Node3</title>
<g id="a_edge4_Node000001_Node000003"><a xlink:title=" ">
<path fill="none" stroke="#63b8ff" d="M366.97,-171C346.31,-159.85 318.97,-145.8 296.09,-134.56"/>
<polygon fill="none" stroke="#63b8ff" points="365.49,-174.18 375.95,-175.89 368.84,-168.03 365.49,-174.18"/>
</a>
</g>
</g>
<!-- Node4 -->
<g id="Node000004" class="node">
<title>Node4</title>
<g id="a_Node000004"><a xlink:href="classanonymous__namespace_02json-validator_8cpp_03_1_1logical__combination__error__handler.html" target="_top" xlink:title=" ">
<polygon fill="white" stroke="transparent" points="462,-140 334,-140 334,-88 462,-88 462,-140"/>
<text text-anchor="start" x="338.5" y="-128" font-family="Helvetica,sans-Serif" font-size="10.00">anonymous_namespace</text>
<text text-anchor="start" x="338.5" y="-117" font-family="Helvetica,sans-Serif" font-size="10.00">{json&#45;validator.cpp}</text>
<text text-anchor="start" x="338.5" y="-106" font-family="Helvetica,sans-Serif" font-size="10.00">::logical_combination</text>
<text text-anchor="start" x="362.5" y="-95" font-family="Helvetica,sans-Serif" font-size="10.00">_error_handler</text>
<polygon fill="none" stroke="#666666" points="334,-88 334,-140 462,-140 462,-88 334,-88"/>
</a>
</g>
</g>
<!-- Node1&#45;&gt;Node4 -->
<g id="edge5_Node000001_Node000004" class="edge">
<title>Node1&#45;&gt;Node4</title>
<g id="a_edge5_Node000001_Node000004"><a xlink:title=" ">
<path fill="none" stroke="#63b8ff" d="M391.65,-165.86C391.14,-157.69 391.12,-148.54 391.58,-140.28"/>
<polygon fill="none" stroke="#63b8ff" points="388.17,-166.26 392.59,-175.89 395.14,-165.61 388.17,-166.26"/>
</a>
</g>
</g>
<!-- Node1&#45;&gt;Node4 -->
<g id="edge6_Node000001_Node000004" class="edge">
<title>Node1&#45;&gt;Node4</title>
<g id="a_edge6_Node000001_Node000004"><a xlink:title=" ">
<path fill="none" stroke="#63b8ff" d="M404.35,-165.86C404.86,-157.69 404.88,-148.54 404.42,-140.28"/>
<polygon fill="none" stroke="#63b8ff" points="400.86,-165.61 403.41,-175.89 407.83,-166.26 400.86,-165.61"/>
</a>
</g>
</g>
<!-- Node5 -->
<g id="Node000005" class="node">
<title>Node5</title>
<g id="a_Node000005"><a xlink:href="classanonymous__namespace_02json-validator_8cpp_03_1_1throwing__error__handler.html" target="_top" xlink:title=" ">
<polygon fill="white" stroke="transparent" points="608,-134.5 480,-134.5 480,-93.5 608,-93.5 608,-134.5"/>
<text text-anchor="start" x="484" y="-122" font-family="Helvetica,sans-Serif" font-size="10.00">anonymous_namespace</text>
<text text-anchor="start" x="484" y="-111" font-family="Helvetica,sans-Serif" font-size="10.00">{json&#45;validator.cpp}</text>
<text text-anchor="start" x="484" y="-100" font-family="Helvetica,sans-Serif" font-size="10.00">::throwing_error_handler</text>
<polygon fill="none" stroke="#666666" points="480,-93.5 480,-134.5 608,-134.5 608,-93.5 480,-93.5"/>
</a>
</g>
</g>
<!-- Node1&#45;&gt;Node5 -->
<g id="edge7_Node000001_Node000005" class="edge">
<title>Node1&#45;&gt;Node5</title>
<g id="a_edge7_Node000001_Node000005"><a xlink:title=" ">
<path fill="none" stroke="#63b8ff" d="M429.03,-171C449.69,-159.85 477.03,-145.8 499.91,-134.56"/>
<polygon fill="none" stroke="#63b8ff" points="427.16,-168.03 420.05,-175.89 430.51,-174.18 427.16,-168.03"/>
</a>
</g>
</g>
<!-- Node1&#45;&gt;Node5 -->
<g id="edge8_Node000001_Node000005" class="edge">
<title>Node1&#45;&gt;Node5</title>
<g id="a_edge8_Node000001_Node000005"><a xlink:title=" ">
<path fill="none" stroke="#63b8ff" d="M440.03,-171.45C462.94,-160.23 490.77,-145.95 511.93,-134.56"/>
<polygon fill="none" stroke="#63b8ff" points="438.34,-168.38 430.87,-175.89 441.4,-174.68 438.34,-168.38"/>
</a>
</g>
</g>
<!-- Node6 -->
<g id="Node000006" class="node">
<title>Node6</title>
<g id="a_Node000006"><a xlink:href="classnlohmann_1_1json__schema_1_1basic__error__handler.html" target="_top" xlink:title=" ">
<polygon fill="white" stroke="transparent" points="754,-129 626,-129 626,-99 754,-99 754,-129"/>
<text text-anchor="start" x="630.5" y="-117" font-family="Helvetica,sans-Serif" font-size="10.00">nlohmann::json_schema</text>
<text text-anchor="start" x="638.5" y="-106" font-family="Helvetica,sans-Serif" font-size="10.00">::basic_error_handler</text>
<polygon fill="none" stroke="#666666" points="626,-99 626,-129 754,-129 754,-99 626,-99"/>
</a>
</g>
</g>
<!-- Node1&#45;&gt;Node6 -->
<g id="edge9_Node000001_Node000006" class="edge">
<title>Node1&#45;&gt;Node6</title>
<g id="a_edge9_Node000001_Node000006"><a xlink:title=" ">
<path fill="none" stroke="#63b8ff" d="M472.2,-175.1C514.84,-166.02 569.25,-153.59 617,-140 628.34,-136.77 640.51,-132.81 651.6,-129"/>
<polygon fill="none" stroke="#63b8ff" points="471.24,-171.72 462.18,-177.21 472.69,-178.57 471.24,-171.72"/>
</a>
</g>
</g>
<!-- Node7 -->
<g id="Node000007" class="node">
<title>Node7</title>
<g id="a_Node000007"><a xlink:href="classanonymous__namespace_02errors_8cpp_03_1_1store__ptr__err__handler.html" target="_top" xlink:title=" ">
<polygon fill="white" stroke="transparent" points="354,-46.5 226,-46.5 226,-5.5 354,-5.5 354,-46.5"/>
<text text-anchor="start" x="230.5" y="-34" font-family="Helvetica,sans-Serif" font-size="10.00">anonymous_namespace</text>
<text text-anchor="start" x="230.5" y="-23" font-family="Helvetica,sans-Serif" font-size="10.00">{errors.cpp}::store</text>
<text text-anchor="start" x="250" y="-12" font-family="Helvetica,sans-Serif" font-size="10.00">_ptr_err_handler</text>
<polygon fill="none" stroke="#666666" points="226,-5.5 226,-46.5 354,-46.5 354,-5.5 226,-5.5"/>
</a>
</g>
</g>
<!-- Node6&#45;&gt;Node7 -->
<g id="edge10_Node000006_Node000007" class="edge">
<title>Node6&#45;&gt;Node7</title>
<g id="a_edge10_Node000006_Node000007"><a xlink:title=" ">
<path fill="none" stroke="#63b8ff" d="M635.04,-95.74C626.04,-92.85 616.8,-90.11 608,-88 497.13,-61.41 464.87,-78.59 354,-52 347.62,-50.47 341,-48.61 334.54,-46.6"/>
<polygon fill="none" stroke="#63b8ff" points="634.09,-99.11 644.68,-98.9 636.27,-92.46 634.09,-99.11"/>
</a>
</g>
</g>
<!-- Node6&#45;&gt;Node7 -->
<g id="edge11_Node000006_Node000007" class="edge">
<title>Node6&#45;&gt;Node7</title>
<g id="a_edge11_Node000006_Node000007"><a xlink:title=" ">
<path fill="none" stroke="#63b8ff" d="M652.16,-95.55C643.65,-92.73 634.61,-90.07 626,-88 515.13,-61.41 482.87,-78.59 372,-52 365.62,-50.47 359,-48.61 352.42,-46.6"/>
<polygon fill="none" stroke="#63b8ff" points="651.25,-98.94 661.85,-98.9 653.54,-92.33 651.25,-98.94"/>
</a>
</g>
</g>
<!-- Node8 -->
<g id="Node000008" class="node">
<title>Node8</title>
<g id="a_Node000008"><a xlink:href="classanonymous__namespace_02issue-149-entry-selection_8cpp_03_1_1store__err__handler.html" target="_top" xlink:title=" ">
<polygon fill="white" stroke="transparent" points="538,-46.5 372,-46.5 372,-5.5 538,-5.5 538,-46.5"/>
<text text-anchor="start" x="376.5" y="-34" font-family="Helvetica,sans-Serif" font-size="10.00">anonymous_namespace</text>
<text text-anchor="start" x="376.5" y="-23" font-family="Helvetica,sans-Serif" font-size="10.00">{issue&#45;149&#45;entry&#45;selection.cpp}</text>
<text text-anchor="start" x="409" y="-12" font-family="Helvetica,sans-Serif" font-size="10.00">::store_err_handler</text>
<polygon fill="none" stroke="#666666" points="372,-5.5 372,-46.5 538,-46.5 538,-5.5 372,-5.5"/>
</a>
</g>
</g>
<!-- Node6&#45;&gt;Node8 -->
<g id="edge12_Node000006_Node000008" class="edge">
<title>Node6&#45;&gt;Node8</title>
<g id="a_edge12_Node000006_Node000008"><a xlink:title=" ">
<path fill="none" stroke="#63b8ff" d="M636.93,-95.61C596.63,-81.42 541.8,-61.38 502.85,-46.62"/>
<polygon fill="none" stroke="#63b8ff" points="635.98,-98.99 646.58,-98.99 638.3,-92.38 635.98,-98.99"/>
</a>
</g>
</g>
<!-- Node6&#45;&gt;Node8 -->
<g id="edge13_Node000006_Node000008" class="edge">
<title>Node6&#45;&gt;Node8</title>
<g id="a_edge13_Node000006_Node000008"><a xlink:title=" ">
<path fill="none" stroke="#63b8ff" d="M647.31,-95.34C610.08,-81.17 555.83,-61.29 514.39,-46.62"/>
<polygon fill="none" stroke="#63b8ff" points="646.27,-98.69 656.86,-98.99 648.77,-92.15 646.27,-98.69"/>
</a>
</g>
</g>
<!-- Node9 -->
<g id="Node000009" class="node">
<title>Node9</title>
<g id="a_Node000009"><a xlink:href="classanonymous__namespace_02issue-70-root-schema-constructor_8cpp_03_1_1store__ptr__err__handler.html" target="_top" xlink:title=" ">
<polygon fill="white" stroke="transparent" points="684,-52 556,-52 556,0 684,0 684,-52"/>
<text text-anchor="start" x="560.5" y="-40" font-family="Helvetica,sans-Serif" font-size="10.00">anonymous_namespace</text>
<text text-anchor="start" x="560.5" y="-29" font-family="Helvetica,sans-Serif" font-size="10.00">{issue&#45;70&#45;root&#45;schema</text>
<text text-anchor="start" x="560.5" y="-18" font-family="Helvetica,sans-Serif" font-size="10.00">&#45;constructor.cpp}::store</text>
<text text-anchor="start" x="580" y="-7" font-family="Helvetica,sans-Serif" font-size="10.00">_ptr_err_handler</text>
<polygon fill="none" stroke="#666666" points="556,0 556,-52 684,-52 684,0 556,0"/>
</a>
</g>
</g>
<!-- Node6&#45;&gt;Node9 -->
<g id="edge14_Node000006_Node000009" class="edge">
<title>Node6&#45;&gt;Node9</title>
<g id="a_edge14_Node000006_Node000009"><a xlink:title=" ">
<path fill="none" stroke="#63b8ff" d="M666.49,-91.42C655.76,-79.44 643.5,-64.49 634.16,-52.01"/>
<polygon fill="none" stroke="#63b8ff" points="663.93,-93.8 673.27,-98.8 669.08,-89.07 663.93,-93.8"/>
</a>
</g>
</g>
<!-- Node6&#45;&gt;Node9 -->
<g id="edge15_Node000006_Node000009" class="edge">
<title>Node6&#45;&gt;Node9</title>
<g id="a_edge15_Node000006_Node000009"><a xlink:title=" ">
<path fill="none" stroke="#63b8ff" d="M677.61,-90.38C668.92,-78.59 657.21,-64.13 646.55,-52.01"/>
<polygon fill="none" stroke="#63b8ff" points="674.96,-92.68 683.61,-98.8 680.66,-88.62 674.96,-92.68"/>
</a>
</g>
</g>
<!-- Node10 -->
<g id="Node000010" class="node">
<title>Node10</title>
<g id="a_Node000010"><a xlink:href="classcustom__error__handler.html" target="_top" xlink:title=" ">
<polygon fill="white" stroke="transparent" points="818,-35.5 702,-35.5 702,-16.5 818,-16.5 818,-35.5"/>
<text text-anchor="start" x="706.5" y="-23" font-family="Helvetica,sans-Serif" font-size="10.00">custom_error_handler</text>
<polygon fill="none" stroke="#666666" points="702,-16.5 702,-35.5 818,-35.5 818,-16.5 702,-16.5"/>
</a>
</g>
</g>
<!-- Node6&#45;&gt;Node10 -->
<g id="edge16_Node000006_Node000010" class="edge">
<title>Node6&#45;&gt;Node10</title>
<g id="a_edge16_Node000006_Node000010"><a xlink:title=" ">
<path fill="none" stroke="#63b8ff" d="M690.8,-89.59C701.41,-71.77 722.38,-48.23 740.09,-35.71"/>
<polygon fill="none" stroke="#63b8ff" points="687.53,-88.31 686.06,-98.8 693.75,-91.51 687.53,-88.31"/>
</a>
</g>
</g>
<!-- Node6&#45;&gt;Node10 -->
<g id="edge17_Node000006_Node000010" class="edge">
<title>Node6&#45;&gt;Node10</title>
<g id="a_edge17_Node000006_Node000010"><a xlink:title=" ">
<path fill="none" stroke="#63b8ff" d="M702.24,-90.57C715.44,-72.64 735.7,-48.46 748.64,-35.71"/>
<polygon fill="none" stroke="#63b8ff" points="699.34,-88.62 696.39,-98.8 705.04,-92.68 699.34,-88.62"/>
</a>
</g>
</g>
<!-- Node6&#45;&gt;Node10 -->
<g id="edge18_Node000006_Node000010" class="edge">
<title>Node6&#45;&gt;Node10</title>
<g id="a_edge18_Node000006_Node000010"><a xlink:title=" ">
<path fill="none" stroke="#63b8ff" d="M713.83,-91.06C729.91,-73.08 749.29,-48.58 757.18,-35.71"/>
<polygon fill="none" stroke="#63b8ff" points="710.91,-89.07 706.73,-98.8 716.07,-93.8 710.91,-89.07"/>
</a>
</g>
</g>
<!-- Node6&#45;&gt;Node10 -->
<g id="edge19_Node000006_Node000010" class="edge">
<title>Node6&#45;&gt;Node10</title>
<g id="a_edge19_Node000006_Node000010"><a xlink:title=" ">
<path fill="none" stroke="#63b8ff" d="M724.75,-92.03C744.08,-73.97 762.94,-48.81 765.73,-35.71"/>
<polygon fill="none" stroke="#63b8ff" points="722.25,-89.56 717.06,-98.8 726.88,-94.82 722.25,-89.56"/>
</a>
</g>
</g>
<!-- Node11 -->
<g id="Node000011" class="node">
<title>Node11</title>
<g id="a_Node000011"><a xlink:href="classstore__ptr__err__handler.html" target="_top" xlink:title=" ">
<polygon fill="white" stroke="transparent" points="950,-35.5 836,-35.5 836,-16.5 950,-16.5 950,-35.5"/>
<text text-anchor="start" x="840.5" y="-23" font-family="Helvetica,sans-Serif" font-size="10.00">store_ptr_err_handler</text>
<polygon fill="none" stroke="#666666" points="836,-16.5 836,-35.5 950,-35.5 950,-16.5 836,-16.5"/>
</a>
</g>
</g>
<!-- Node6&#45;&gt;Node11 -->
<g id="edge20_Node000006_Node000011" class="edge">
<title>Node6&#45;&gt;Node11</title>
<g id="a_edge20_Node000006_Node000011"><a xlink:title=" ">
<path fill="none" stroke="#63b8ff" d="M727.1,-94.9C768.3,-76.65 833.41,-49.26 868.67,-35.52"/>
<polygon fill="none" stroke="#63b8ff" points="725.63,-91.72 717.93,-98.99 728.49,-98.12 725.63,-91.72"/>
</a>
</g>
</g>
<!-- Node6&#45;&gt;Node11 -->
<g id="edge21_Node000006_Node000011" class="edge">
<title>Node6&#45;&gt;Node11</title>
<g id="a_edge21_Node000006_Node000011"><a xlink:title=" ">
<path fill="none" stroke="#63b8ff" d="M737.49,-95.25C782.49,-77 847.3,-49.35 877.13,-35.52"/>
<polygon fill="none" stroke="#63b8ff" points="736.17,-92 728.21,-98.99 738.79,-98.5 736.17,-92"/>
</a>
</g>
</g>
</g>
</svg>

<g id="navigator" transform="translate(0 0)" fill="#404254">
  <rect fill="#f2f5e9" fill-opacity="0.5" stroke="#606060" stroke-width=".5" x="0" y="0" width="60" height="60"/>
  <use id="zoomplus" xlink:href="#zoomPlus" x="17" y="9" onmousedown="handleZoom(evt,'in')"/>
  <use id="zoomminus" xlink:href="#zoomMin" x="42" y="9" onmousedown="handleZoom(evt,'out')"/>
  <use id="reset" xlink:href="#resetDef" x="30" y="36" onmousedown="handleReset()"/>
   <use id="arrowup" xlink:href="#arrowUp" x="0" y="0" onmousedown="handlePan(0,-1)"/>
  <use id="arrowright" xlink:href="#arrowRight" x="0" y="0" onmousedown="handlePan(1,0)"/>
  <use id="arrowdown" xlink:href="#arrowDown" x="0" y="0" onmousedown="handlePan(0,1)"/>
  <use id="arrowleft" xlink:href="#arrowLeft" x="0" y="0" onmousedown="handlePan(-1,0)"/>
</g>
<svg viewBox="0 0 15 15" width="100%" height="30px" preserveAspectRatio="xMaxYMin meet">
 <g id="arrow_out" transform="scale(0.3 0.3)">
  <a xlink:href="classnlohmann_1_1json__schema_1_1error__handler__inherit__graph_org.svg" target="_base">
   <rect id="button" ry="5" rx="5" y="6" x="6" height="38" width="38"
        fill="#f2f5e9" fill-opacity="0.5" stroke="#606060" stroke-width="1.0"/>
   <path id="arrow"
     d="M 11.500037,31.436501 C 11.940474,20.09759 22.043105,11.32322 32.158766,21.979434 L 37.068811,17.246167 C 37.068811,17.246167 37.088388,32 37.088388,32 L 22.160133,31.978069 C 22.160133,31.978069 26.997745,27.140456 26.997745,27.140456 C 18.528582,18.264221 13.291696,25.230495 11.500037,31.436501 z"
     style="fill:#404040;"/>
  </a>
 </g>
</svg>

<style type='text/css'>
<![CDATA[
[data-mouse-over-selected='false'] { opacity: 0.7; }
[data-mouse-over-selected='true']  { opacity: 1.0; }
]]>
</style>
<script type="application/ecmascript"><![CDATA[
document.addEventListener('DOMContentLoaded', (event) => {
  highlightEdges();
  highlightAdjacentNodes();
});
]]></script>
</svg>
