<?xml version="1.0" encoding="UTF-8" standalone="no"?>
<!DOCTYPE svg PUBLIC "-//W3C//DTD SVG 1.1//EN"
 "http://www.w3.org/Graphics/SVG/1.1/DTD/svg11.dtd">
<!-- Generated by graphviz version 2.42.4 (0)
 -->
<!-- Title: nlohmann::json_schema::json_validator::set_root_schema Pages: 1 -->
<!--zoomable 353 -->

<svg id="main" version="1.1" xmlns="http://www.w3.org/2000/svg" xmlns:xlink="http://www.w3.org/1999/xlink" xml:space="preserve" onload="init(evt)">
<style type="text/css"><![CDATA[
.node, .edge {opacity: 0.7;}
.node.selected, .edge.selected {opacity: 1;}
.edge:hover path { stroke: red; }
.edge:hover polygon { stroke: red; fill: red; }
]]></style>

<defs>
  <circle id="rim" cx="0" cy="0" r="7"/>
  <circle id="rim2" cx="0" cy="0" r="3.5"/>
  <g id="zoomPlus">
    <use xlink:href="#rim" fill="#404040"><set attributeName="fill" to="#808080" begin="zoomplus.mouseover" end="zoomplus.mouseout"/></use>
    <path d="M-4,0h8M0,-4v8" fill="none" stroke="white" stroke-width="1.5" pointer-events="none"/>
  </g>
  <g id="zoomMin">
    <use xlink:href="#rim" fill="#404040"><set attributeName="fill" to="#808080" begin="zoomminus.mouseover" end="zoomminus.mouseout"/></use>
    <path d="M-4,0h8" fill="none" stroke="white" stroke-width="1.5" pointer-events="none"/>
  </g>
  <g id="arrowUp" transform="translate(30 24)">
    <use xlink:href="#rim"/>
    <path pointer-events="none" fill="none" stroke="white" stroke-width="1.5" d="M0,-3.0v7 M-2.5,-0.5L0,-3.0L2.5,-0.5"/>
  </g>
  <g id="arrowRight" transform="rotate(90) translate(36 -43)">
    <use xlink:href="#rim"/>
    <path pointer-events="none" fill="none" stroke="white" stroke-width="1.5" d="M0,-3.0v7 M-2.5,-0.5L0,-3.0L2.5,-0.5"/>
  </g>
  <g id="arrowDown" transform="rotate(180) translate(-30 -48)">
    <use xlink:href="#rim"/>
    <path pointer-events="none" fill="none" stroke="white" stroke-width="1.5" d="M0,-3.0v7 M-2.5,-0.5L0,-3.0L2.5,-0.5"/>
  </g>
  <g id="arrowLeft" transform="rotate(270) translate(-36 17)">
    <use xlink:href="#rim"/>
    <path pointer-events="none" fill="none" stroke="white" stroke-width="1.5" d="M0,-3.0v7 M-2.5,-0.5L0,-3.0L2.5,-0.5"/>
  </g>
  <g id="resetDef">
    <use xlink:href="#rim2" fill="#404040"><set attributeName="fill" to="#808080" begin="reset.mouseover" end="reset.mouseout"/></use>
  </g>
</defs>
<script type="application/ecmascript">
var viewWidth = 820;
var viewHeight = 353;
var sectionId = 'dynsection-8';
</script>
<script type="application/ecmascript" xlink:href="svg.min.js"/>
<svg id="graph" class="graph">
<g id="viewport">
<title>nlohmann::json_schema::json_validator::set_root_schema</title>
<!-- Node1 -->
<g id="Node000001" class="node">
<title>Node1</title>
<g id="a_Node000001"><a xlink:title=" ">
<polygon fill="#999999" stroke="#666666" points="812,-140 677,-140 677,-99 812,-99 812,-140"/>
<text text-anchor="start" x="685" y="-128" font-family="Helvetica,sans-Serif" font-size="10.00">nlohmann::json_schema</text>
<text text-anchor="start" x="685" y="-117" font-family="Helvetica,sans-Serif" font-size="10.00">::json_validator::set</text>
<text text-anchor="middle" x="744.5" y="-106" font-family="Helvetica,sans-Serif" font-size="10.00">_root_schema</text>
</a>
</g>
</g>
<!-- Node2 -->
<g id="Node000002" class="node">
<title>Node2</title>
<g id="a_Node000002"><a xlink:href="classnlohmann_1_1json__schema_1_1json__validator.html#ad8f46dfed69afe463732ae335879dabb" target="_top" xlink:title=" ">
<polygon fill="white" stroke="#666666" points="620,-225 485,-225 485,-184 620,-184 620,-225"/>
<text text-anchor="start" x="493" y="-213" font-family="Helvetica,sans-Serif" font-size="10.00">nlohmann::json_schema</text>
<text text-anchor="start" x="493" y="-202" font-family="Helvetica,sans-Serif" font-size="10.00">::json_validator::json</text>
<text text-anchor="middle" x="552.5" y="-191" font-family="Helvetica,sans-Serif" font-size="10.00">_validator</text>
</a>
</g>
</g>
<!-- Node1&#45;&gt;Node2 -->
<g id="edge1_Node000001_Node000002" class="edge">
<title>Node1&#45;&gt;Node2</title>
<g id="a_edge1_Node000001_Node000002"><a xlink:title=" ">
<path fill="none" stroke="#63b8ff" d="M700.55,-145.21C682.52,-155.41 661.11,-166.76 641,-175.5 634.25,-178.43 627.1,-181.25 619.91,-183.9"/>
<polygon fill="#63b8ff" stroke="#63b8ff" points="702.7,-148.01 709.64,-140.01 699.22,-141.94 702.7,-148.01"/>
</a>
</g>
</g>
<!-- Node14 -->
<g id="Node000014" class="node">
<title>Node14</title>
<g id="a_Node000014"><a xlink:href="format_8cpp.html#ae66f6b31b5ad750f1fe042a706a4e3d4" target="_top" xlink:title=" ">
<polygon fill="white" stroke="#666666" points="573,-166 532,-166 532,-147 573,-147 573,-166"/>
<text text-anchor="middle" x="552.5" y="-154" font-family="Helvetica,sans-Serif" font-size="10.00">main</text>
</a>
</g>
</g>
<!-- Node1&#45;&gt;Node14 -->
<g id="edge13_Node000001_Node000014" class="edge">
<title>Node1&#45;&gt;Node14</title>
<g id="a_edge13_Node000001_Node000014"><a xlink:title=" ">
<path fill="none" stroke="#63b8ff" d="M666.79,-134.44C632.68,-141.08 595.3,-148.36 573.15,-152.67"/>
<polygon fill="#63b8ff" stroke="#63b8ff" points="667.63,-137.84 676.78,-132.49 666.3,-130.97 667.63,-137.84"/>
</a>
</g>
</g>
<!-- Node15 -->
<g id="Node000015" class="node">
<title>Node15</title>
<g id="a_Node000015"><a xlink:href="json-schema-validate_8cpp.html#a0ddf1224851353fc92bfbff6f499fa97" target="_top" xlink:title=" ">
<polygon fill="white" stroke="#666666" points="573,-129 532,-129 532,-110 573,-110 573,-129"/>
<text text-anchor="middle" x="552.5" y="-117" font-family="Helvetica,sans-Serif" font-size="10.00">main</text>
</a>
</g>
</g>
<!-- Node1&#45;&gt;Node15 -->
<g id="edge14_Node000001_Node000015" class="edge">
<title>Node1&#45;&gt;Node15</title>
<g id="a_edge14_Node000001_Node000015"><a xlink:title=" ">
<path fill="none" stroke="#63b8ff" d="M666.35,-119.5C632.36,-119.5 595.21,-119.5 573.15,-119.5"/>
<polygon fill="#63b8ff" stroke="#63b8ff" points="666.78,-123 676.78,-119.5 666.78,-116 666.78,-123"/>
</a>
</g>
</g>
<!-- Node16 -->
<g id="Node000016" class="node">
<title>Node16</title>
<g id="a_Node000016"><a xlink:href="errors_8cpp.html#a840291bc02cba5474a4cb46a9b9566fe" target="_top" xlink:title=" ">
<polygon fill="white" stroke="#666666" points="573,-92 532,-92 532,-73 573,-73 573,-92"/>
<text text-anchor="middle" x="552.5" y="-80" font-family="Helvetica,sans-Serif" font-size="10.00">main</text>
</a>
</g>
</g>
<!-- Node1&#45;&gt;Node16 -->
<g id="edge15_Node000001_Node000016" class="edge">
<title>Node1&#45;&gt;Node16</title>
<g id="a_edge15_Node000001_Node000016"><a xlink:title=" ">
<path fill="none" stroke="#63b8ff" d="M666.79,-104.56C632.68,-97.92 595.3,-90.64 573.15,-86.33"/>
<polygon fill="#63b8ff" stroke="#63b8ff" points="666.3,-108.03 676.78,-106.51 667.63,-101.16 666.3,-108.03"/>
</a>
</g>
</g>
<!-- Node17 -->
<g id="Node000017" class="node">
<title>Node17</title>
<g id="a_Node000017"><a xlink:href="namespaceanonymous__namespace_02issue-105-verbose-combination-errors_8cpp_03.html#a5d2fa2fa048e5520dbcbad50438526ad" target="_top" xlink:title=" ">
<polygon fill="white" stroke="#666666" points="641,-55 464,-55 464,-14 641,-14 641,-55"/>
<text text-anchor="start" x="472" y="-43" font-family="Helvetica,sans-Serif" font-size="10.00">anonymous_namespace</text>
<text text-anchor="start" x="472" y="-32" font-family="Helvetica,sans-Serif" font-size="10.00">{issue&#45;105&#45;verbose&#45;combination</text>
<text text-anchor="middle" x="552.5" y="-21" font-family="Helvetica,sans-Serif" font-size="10.00">&#45;errors::cpp}::validate</text>
</a>
</g>
</g>
<!-- Node1&#45;&gt;Node17 -->
<g id="edge16_Node000001_Node000017" class="edge">
<title>Node1&#45;&gt;Node17</title>
<g id="a_edge16_Node000001_Node000017"><a xlink:title=" ">
<path fill="none" stroke="#63b8ff" d="M699.6,-93.92C681.74,-84.05 660.7,-73.1 641,-64.5 633.49,-61.22 625.5,-58.06 617.52,-55.1"/>
<polygon fill="#63b8ff" stroke="#63b8ff" points="698.19,-97.14 708.62,-98.96 701.6,-91.03 698.19,-97.14"/>
</a>
</g>
</g>
<!-- Node3 -->
<g id="Node000003" class="node">
<title>Node3</title>
<g id="a_Node000003"><a xlink:href="classmqtt_1_1bridge_1_1lib_1_1BridgeStore.html#ab8ade196caaa4d233f8dc1625619ed9a" target="_top" xlink:title=" ">
<polygon fill="white" stroke="#666666" points="419.5,-323.5 259.5,-323.5 259.5,-293.5 419.5,-293.5 419.5,-323.5"/>
<text text-anchor="start" x="267.5" y="-311.5" font-family="Helvetica,sans-Serif" font-size="10.00">mqtt::bridge::lib::</text>
<text text-anchor="middle" x="339.5" y="-300.5" font-family="Helvetica,sans-Serif" font-size="10.00">BridgeStore::loadAndValidate</text>
</a>
</g>
</g>
<!-- Node2&#45;&gt;Node3 -->
<g id="edge2_Node000002_Node000003" class="edge">
<title>Node2&#45;&gt;Node3</title>
<g id="a_edge2_Node000002_Node000003"><a xlink:title=" ">
<path fill="none" stroke="#63b8ff" d="M500.66,-229.56C460.25,-249.47 405.07,-276.67 371.16,-293.39"/>
<polygon fill="#63b8ff" stroke="#63b8ff" points="502.39,-232.61 509.81,-225.05 499.3,-226.33 502.39,-232.61"/>
</a>
</g>
</g>
<!-- Node5 -->
<g id="Node000005" class="node">
<title>Node5</title>
<g id="a_Node000005"><a xlink:href="classmqtt_1_1lib_1_1JsonMappingReader.html#a77231994bd3ef854feb2db79dd71746b" target="_top" xlink:title=" ">
<polygon fill="white" stroke="#666666" points="420,-248.5 259,-248.5 259,-218.5 420,-218.5 420,-248.5"/>
<text text-anchor="start" x="267" y="-236.5" font-family="Helvetica,sans-Serif" font-size="10.00">mqtt::lib::JsonMappingReader</text>
<text text-anchor="middle" x="339.5" y="-225.5" font-family="Helvetica,sans-Serif" font-size="10.00">::readMappingFromFile</text>
</a>
</g>
</g>
<!-- Node2&#45;&gt;Node5 -->
<g id="edge4_Node000002_Node000005" class="edge">
<title>Node2&#45;&gt;Node5</title>
<g id="a_edge4_Node000002_Node000005"><a xlink:title=" ">
<path fill="none" stroke="#63b8ff" d="M474.47,-215.09C456.77,-217.52 437.92,-220.11 420.12,-222.56"/>
<polygon fill="#63b8ff" stroke="#63b8ff" points="475.31,-218.5 484.74,-213.68 474.35,-211.57 475.31,-218.5"/>
</a>
</g>
</g>
<!-- Node8 -->
<g id="Node000008" class="node">
<title>Node8</title>
<g id="a_Node000008"><a xlink:href="issue-293_8cpp.html#a8ee39622edc153e58dfa5711984ac185" target="_top" xlink:title=" ">
<polygon fill="white" stroke="#666666" points="380.5,-200 298.5,-200 298.5,-181 380.5,-181 380.5,-200"/>
<text text-anchor="middle" x="339.5" y="-188" font-family="Helvetica,sans-Serif" font-size="10.00">should_throw</text>
</a>
</g>
</g>
<!-- Node2&#45;&gt;Node8 -->
<g id="edge7_Node000002_Node000008" class="edge">
<title>Node2&#45;&gt;Node8</title>
<g id="a_edge7_Node000002_Node000008"><a xlink:title=" ">
<path fill="none" stroke="#63b8ff" d="M474.56,-199.4C442.77,-197.29 407.24,-194.93 380.75,-193.17"/>
<polygon fill="#63b8ff" stroke="#63b8ff" points="474.53,-202.9 484.74,-200.07 474.99,-195.92 474.53,-202.9"/>
</a>
</g>
</g>
<!-- Node10 -->
<g id="Node000010" class="node">
<title>Node10</title>
<g id="a_Node000010"><a xlink:href="classnlohmann_1_1json__patch.html#ac7aea9496e07beb821fb9e5423fb76f5" target="_top" xlink:title=" ">
<polygon fill="white" stroke="#666666" points="401.5,-162.5 277.5,-162.5 277.5,-132.5 401.5,-132.5 401.5,-162.5"/>
<text text-anchor="start" x="285.5" y="-150.5" font-family="Helvetica,sans-Serif" font-size="10.00">nlohmann::json_patch</text>
<text text-anchor="middle" x="339.5" y="-139.5" font-family="Helvetica,sans-Serif" font-size="10.00">::validateJsonPatch</text>
</a>
</g>
</g>
<!-- Node2&#45;&gt;Node10 -->
<g id="edge9_Node000002_Node000010" class="edge">
<title>Node2&#45;&gt;Node10</title>
<g id="a_edge9_Node000002_Node000010"><a xlink:title=" ">
<path fill="none" stroke="#63b8ff" d="M474.9,-183.81C448.87,-176.78 420.3,-169.06 396.21,-162.55"/>
<polygon fill="#63b8ff" stroke="#63b8ff" points="474.17,-187.24 484.74,-186.46 476,-180.48 474.17,-187.24"/>
</a>
</g>
</g>
<!-- Node4 -->
<g id="Node000004" class="node">
<title>Node4</title>
<g id="a_Node000004"><a xlink:href="mqttbridge_8cpp.html#a0ddf1224851353fc92bfbff6f499fa97" target="_top" xlink:title=" ">
<polygon fill="white" stroke="#666666" points="166.5,-345 125.5,-345 125.5,-326 166.5,-326 166.5,-345"/>
<text text-anchor="middle" x="146" y="-333" font-family="Helvetica,sans-Serif" font-size="10.00">main</text>
</a>
</g>
</g>
<!-- Node3&#45;&gt;Node4 -->
<g id="edge3_Node000003_Node000004" class="edge">
<title>Node3&#45;&gt;Node4</title>
<g id="a_edge3_Node000003_Node000004"><a xlink:title=" ">
<path fill="none" stroke="#63b8ff" d="M249.21,-321.09C218.23,-325.46 186.33,-329.95 166.59,-332.74"/>
<polygon fill="#63b8ff" stroke="#63b8ff" points="249.81,-324.54 259.23,-319.68 248.84,-317.61 249.81,-324.54"/>
</a>
</g>
</g>
<!-- Node6 -->
<g id="Node000006" class="node">
<title>Node6</title>
<g id="a_Node000006"><a xlink:href="classmqtt_1_1mqttintegrator_1_1SocketContextFactory.html#a0667981d3feaa8d66a6ba2ecb81dc900" target="_top" xlink:title=" ">
<polygon fill="white" stroke="#666666" points="210.5,-308 81.5,-308 81.5,-267 210.5,-267 210.5,-308"/>
<text text-anchor="start" x="89.5" y="-296" font-family="Helvetica,sans-Serif" font-size="10.00">mqtt::mqttintegrator</text>
<text text-anchor="start" x="89.5" y="-285" font-family="Helvetica,sans-Serif" font-size="10.00">::SocketContextFactory</text>
<text text-anchor="middle" x="146" y="-274" font-family="Helvetica,sans-Serif" font-size="10.00">::create</text>
</a>
</g>
</g>
<!-- Node5&#45;&gt;Node6 -->
<g id="edge5_Node000005_Node000006" class="edge">
<title>Node5&#45;&gt;Node6</title>
<g id="a_edge5_Node000005_Node000006"><a xlink:title=" ">
<path fill="none" stroke="#63b8ff" d="M275.46,-251.28C254.63,-257.15 231.45,-263.69 210.59,-269.57"/>
<polygon fill="#63b8ff" stroke="#63b8ff" points="276.48,-254.62 285.16,-248.54 274.58,-247.89 276.48,-254.62"/>
</a>
</g>
</g>
<!-- Node7 -->
<g id="Node000007" class="node">
<title>Node7</title>
<g id="a_Node000007"><a xlink:href="classmqtt_1_1mqttbroker_1_1SocketContextFactory.html#a84a300c6ea4e8fc1e0370f5460a64e9a" target="_top" xlink:title=" ">
<polygon fill="white" stroke="#666666" points="215,-248.5 77,-248.5 77,-218.5 215,-218.5 215,-248.5"/>
<text text-anchor="start" x="85" y="-236.5" font-family="Helvetica,sans-Serif" font-size="10.00">mqtt::mqttbroker::Socket</text>
<text text-anchor="middle" x="146" y="-225.5" font-family="Helvetica,sans-Serif" font-size="10.00">ContextFactory::create</text>
</a>
</g>
</g>
<!-- Node5&#45;&gt;Node7 -->
<g id="edge6_Node000005_Node000007" class="edge">
<title>Node5&#45;&gt;Node7</title>
<g id="a_edge6_Node000005_Node000007"><a xlink:title=" ">
<path fill="none" stroke="#63b8ff" d="M248.62,-233.5C237.32,-233.5 225.92,-233.5 215.03,-233.5"/>
<polygon fill="#63b8ff" stroke="#63b8ff" points="248.95,-237 258.95,-233.5 248.95,-230 248.95,-237"/>
</a>
</g>
</g>
<!-- Node9 -->
<g id="Node000009" class="node">
<title>Node9</title>
<g id="a_Node000009"><a xlink:href="issue-293_8cpp.html#a840291bc02cba5474a4cb46a9b9566fe" target="_top" xlink:title=" ">
<polygon fill="white" stroke="#666666" points="166.5,-200 125.5,-200 125.5,-181 166.5,-181 166.5,-200"/>
<text text-anchor="middle" x="146" y="-188" font-family="Helvetica,sans-Serif" font-size="10.00">main</text>
</a>
</g>
</g>
<!-- Node8&#45;&gt;Node9 -->
<g id="edge8_Node000008_Node000009" class="edge">
<title>Node8&#45;&gt;Node9</title>
<g id="a_edge8_Node000008_Node000009"><a xlink:title=" ">
<path fill="none" stroke="#63b8ff" d="M288.3,-190.5C248.49,-190.5 194.99,-190.5 166.61,-190.5"/>
<polygon fill="#63b8ff" stroke="#63b8ff" points="288.36,-194 298.36,-190.5 288.36,-187 288.36,-194"/>
</a>
</g>
</g>
<!-- Node11 -->
<g id="Node000011" class="node">
<title>Node11</title>
<g id="a_Node000011"><a xlink:href="classnlohmann_1_1json__patch.html#ae61d410c3afe7cf9b7a9589819e8f94a" target="_top" xlink:title=" ">
<polygon fill="white" stroke="#666666" points="208,-162.5 84,-162.5 84,-132.5 208,-132.5 208,-162.5"/>
<text text-anchor="start" x="92" y="-150.5" font-family="Helvetica,sans-Serif" font-size="10.00">nlohmann::json_patch</text>
<text text-anchor="middle" x="146" y="-139.5" font-family="Helvetica,sans-Serif" font-size="10.00">::json_patch</text>
</a>
</g>
</g>
<!-- Node10&#45;&gt;Node11 -->
<g id="edge10_Node000010_Node000011" class="edge">
<title>Node10&#45;&gt;Node11</title>
<g id="a_edge10_Node000010_Node000011"><a xlink:title=" ">
<path fill="none" stroke="#63b8ff" d="M267.37,-147.5C247.92,-147.5 227.03,-147.5 208.19,-147.5"/>
<polygon fill="#63b8ff" stroke="#63b8ff" points="267.38,-151 277.38,-147.5 267.38,-144 267.38,-151"/>
</a>
</g>
</g>
<!-- Node12 -->
<g id="Node000012" class="node">
<title>Node12</title>
<g id="a_Node000012"><a xlink:href="classnlohmann_1_1json__patch.html#a9ed4f8e610b70b973f9fd59696d5c10b" target="_top" xlink:title=" ">
<polygon fill="white" stroke="#666666" points="208,-114.5 84,-114.5 84,-84.5 208,-84.5 208,-114.5"/>
<text text-anchor="start" x="92" y="-102.5" font-family="Helvetica,sans-Serif" font-size="10.00">nlohmann::json_patch</text>
<text text-anchor="middle" x="146" y="-91.5" font-family="Helvetica,sans-Serif" font-size="10.00">::json_patch</text>
</a>
</g>
</g>
<!-- Node10&#45;&gt;Node12 -->
<g id="edge11_Node000010_Node000012" class="edge">
<title>Node10&#45;&gt;Node12</title>
<g id="a_edge11_Node000010_Node000012"><a xlink:title=" ">
<path fill="none" stroke="#63b8ff" d="M268.64,-129.99C248.38,-124.91 226.44,-119.41 206.85,-114.5"/>
<polygon fill="#63b8ff" stroke="#63b8ff" points="267.88,-133.41 278.43,-132.44 269.58,-126.62 267.88,-133.41"/>
</a>
</g>
</g>
<!-- Node13 -->
<g id="Node000013" class="node">
<title>Node13</title>
<g id="a_Node000013"><a xlink:href="test_2json-patch_8cpp.html#a840291bc02cba5474a4cb46a9b9566fe" target="_top" xlink:title=" ">
<polygon fill="white" stroke="#666666" points="41,-109 0,-109 0,-90 41,-90 41,-109"/>
<text text-anchor="middle" x="20.5" y="-97" font-family="Helvetica,sans-Serif" font-size="10.00">main</text>
</a>
</g>
</g>
<!-- Node12&#45;&gt;Node13 -->
<g id="edge12_Node000012_Node000013" class="edge">
<title>Node12&#45;&gt;Node13</title>
<g id="a_edge12_Node000012_Node000013"><a xlink:title=" ">
<path fill="none" stroke="#63b8ff" d="M73.8,-99.5C61.77,-99.5 50.23,-99.5 41.07,-99.5"/>
<polygon fill="#63b8ff" stroke="#63b8ff" points="73.97,-103 83.97,-99.5 73.97,-96 73.97,-103"/>
</a>
</g>
</g>
<!-- Node18 -->
<g id="Node000018" class="node">
<title>Node18</title>
<g id="a_Node000018"><a xlink:href="namespaceanonymous__namespace_02issue-105-verbose-combination-errors_8cpp_03.html#a4b7578a08dda4165bf9c386de4bc2bed" target="_top" xlink:title=" ">
<polygon fill="white" stroke="#666666" points="428,-100 251,-100 251,-59 428,-59 428,-100"/>
<text text-anchor="start" x="259" y="-88" font-family="Helvetica,sans-Serif" font-size="10.00">anonymous_namespace</text>
<text text-anchor="start" x="259" y="-77" font-family="Helvetica,sans-Serif" font-size="10.00">{issue&#45;105&#45;verbose&#45;combination</text>
<text text-anchor="middle" x="339.5" y="-66" font-family="Helvetica,sans-Serif" font-size="10.00">&#45;errors::cpp}::simpleTest</text>
</a>
</g>
</g>
<!-- Node17&#45;&gt;Node18 -->
<g id="edge17_Node000017_Node000018" class="edge">
<title>Node17&#45;&gt;Node18</title>
<g id="a_edge17_Node000017_Node000018"><a xlink:title=" ">
<path fill="none" stroke="#63b8ff" d="M453.86,-55.32C445.3,-57.15 436.68,-58.99 428.22,-60.79"/>
<polygon fill="#63b8ff" stroke="#63b8ff" points="454.8,-58.7 463.85,-53.19 453.34,-51.86 454.8,-58.7"/>
</a>
</g>
</g>
<!-- Node20 -->
<g id="Node000020" class="node">
<title>Node20</title>
<g id="a_Node000020"><a xlink:href="namespaceanonymous__namespace_02issue-105-verbose-combination-errors_8cpp_03.html#a6c5072c56623259eab0124fc223a4bfc" target="_top" xlink:title=" ">
<polygon fill="white" stroke="#666666" points="428,-41 251,-41 251,0 428,0 428,-41"/>
<text text-anchor="start" x="259" y="-29" font-family="Helvetica,sans-Serif" font-size="10.00">anonymous_namespace</text>
<text text-anchor="start" x="259" y="-18" font-family="Helvetica,sans-Serif" font-size="10.00">{issue&#45;105&#45;verbose&#45;combination</text>
<text text-anchor="middle" x="339.5" y="-7" font-family="Helvetica,sans-Serif" font-size="10.00">&#45;errors::cpp}::verboseTest</text>
</a>
</g>
</g>
<!-- Node17&#45;&gt;Node20 -->
<g id="edge19_Node000017_Node000020" class="edge">
<title>Node17&#45;&gt;Node20</title>
<g id="a_edge19_Node000017_Node000020"><a xlink:title=" ">
<path fill="none" stroke="#63b8ff" d="M453.86,-28.02C445.3,-27.45 436.68,-26.88 428.22,-26.32"/>
<polygon fill="#63b8ff" stroke="#63b8ff" points="453.64,-31.51 463.85,-28.68 454.1,-24.53 453.64,-31.51"/>
</a>
</g>
</g>
<!-- Node19 -->
<g id="Node000019" class="node">
<title>Node19</title>
<g id="a_Node000019"><a xlink:href="issue-105-verbose-combination-errors_8cpp.html#a8216c1645620cdb2f629cde3ac02ffef" target="_top" xlink:title=" ">
<polygon fill="white" stroke="#666666" points="166.5,-48 125.5,-48 125.5,-29 166.5,-29 166.5,-48"/>
<text text-anchor="middle" x="146" y="-36" font-family="Helvetica,sans-Serif" font-size="10.00">main</text>
</a>
</g>
</g>
<!-- Node18&#45;&gt;Node19 -->
<g id="edge18_Node000018_Node000019" class="edge">
<title>Node18&#45;&gt;Node19</title>
<g id="a_edge18_Node000018_Node000019"><a xlink:title=" ">
<path fill="none" stroke="#63b8ff" d="M240.88,-58.6C212.6,-52.55 184.54,-46.54 166.57,-42.69"/>
<polygon fill="#63b8ff" stroke="#63b8ff" points="240.37,-62.07 250.88,-60.74 241.83,-55.22 240.37,-62.07"/>
</a>
</g>
</g>
<!-- Node20&#45;&gt;Node19 -->
<g id="edge20_Node000020_Node000019" class="edge">
<title>Node20&#45;&gt;Node19</title>
<g id="a_edge20_Node000020_Node000019"><a xlink:title=" ">
<path fill="none" stroke="#63b8ff" d="M240.88,-29.68C212.6,-32.33 184.54,-34.97 166.57,-36.66"/>
<polygon fill="#63b8ff" stroke="#63b8ff" points="241.25,-33.16 250.88,-28.74 240.59,-26.19 241.25,-33.16"/>
</a>
</g>
</g>
</g>
</svg>

<g id="navigator" transform="translate(0 0)" fill="#404254">
  <rect fill="#f2f5e9" fill-opacity="0.5" stroke="#606060" stroke-width=".5" x="0" y="0" width="60" height="60"/>
  <use id="zoomplus" xlink:href="#zoomPlus" x="17" y="9" onmousedown="handleZoom(evt,'in')"/>
  <use id="zoomminus" xlink:href="#zoomMin" x="42" y="9" onmousedown="handleZoom(evt,'out')"/>
  <use id="reset" xlink:href="#resetDef" x="30" y="36" onmousedown="handleReset()"/>
   <use id="arrowup" xlink:href="#arrowUp" x="0" y="0" onmousedown="handlePan(0,-1)"/>
  <use id="arrowright" xlink:href="#arrowRight" x="0" y="0" onmousedown="handlePan(1,0)"/>
  <use id="arrowdown" xlink:href="#arrowDown" x="0" y="0" onmousedown="handlePan(0,1)"/>
  <use id="arrowleft" xlink:href="#arrowLeft" x="0" y="0" onmousedown="handlePan(-1,0)"/>
</g>
<svg viewBox="0 0 15 15" width="100%" height="30px" preserveAspectRatio="xMaxYMin meet">
 <g id="arrow_out" transform="scale(0.3 0.3)">
  <a xlink:href="classnlohmann_1_1json__schema_1_1json__validator_a13e1d3029c8953bb9c7d1879382edb03_icgraph_org.svg" target="_base">
   <rect id="button" ry="5" rx="5" y="6" x="6" height="38" width="38"
        fill="#f2f5e9" fill-opacity="0.5" stroke="#606060" stroke-width="1.0"/>
   <path id="arrow"
     d="M 11.500037,31.436501 C 11.940474,20.09759 22.043105,11.32322 32.158766,21.979434 L 37.068811,17.246167 C 37.068811,17.246167 37.088388,32 37.088388,32 L 22.160133,31.978069 C 22.160133,31.978069 26.997745,27.140456 26.997745,27.140456 C 18.528582,18.264221 13.291696,25.230495 11.500037,31.436501 z"
     style="fill:#404040;"/>
  </a>
 </g>
</svg>

<style type='text/css'>
<![CDATA[
[data-mouse-over-selected='false'] { opacity: 0.7; }
[data-mouse-over-selected='true']  { opacity: 1.0; }
]]>
</style>
<script type="application/ecmascript"><![CDATA[
document.addEventListener('DOMContentLoaded', (event) => {
  highlightEdges();
  highlightAdjacentNodes();
});
]]></script>
</svg>
