<?xml version="1.0" encoding="UTF-8" standalone="no"?>
<!DOCTYPE svg PUBLIC "-//W3C//DTD SVG 1.1//EN"
 "http://www.w3.org/Graphics/SVG/1.1/DTD/svg11.dtd">
<!-- Generated by graphviz version 2.42.4 (0)
 -->
<!-- Title: inja::Environment::render Pages: 1 -->
<svg width="742pt" height="70pt"
 viewBox="0.00 0.00 742.00 69.50" xmlns="http://www.w3.org/2000/svg" xmlns:xlink="http://www.w3.org/1999/xlink">
<g id="graph0" class="graph" transform="scale(1 1) rotate(0) translate(4 65.5)">
<title>inja::Environment::render</title>
<!-- Node1 -->
<g id="Node000001" class="node">
<title>Node1</title>
<g id="a_Node000001"><a xlink:title=" ">
<polygon fill="#999999" stroke="#666666" points="109,-42.5 0,-42.5 0,-12.5 109,-12.5 109,-42.5"/>
<text text-anchor="start" x="8" y="-30.5" font-family="Helvetica,sans-Serif" font-size="10.00">inja::Environment::</text>
<text text-anchor="middle" x="54.5" y="-19.5" font-family="Helvetica,sans-Serif" font-size="10.00">render</text>
</a>
</g>
</g>
<!-- Node2 -->
<g id="Node000002" class="node">
<title>Node2</title>
<g id="a_Node000002"><a xlink:href="classinja_1_1Environment.html#a269f21ddbdd107bf0dd9e4a0bc80e249" target="_top" xlink:title=" ">
<polygon fill="white" stroke="#666666" points="254,-42.5 145,-42.5 145,-12.5 254,-12.5 254,-42.5"/>
<text text-anchor="start" x="153" y="-30.5" font-family="Helvetica,sans-Serif" font-size="10.00">inja::Environment::</text>
<text text-anchor="middle" x="199.5" y="-19.5" font-family="Helvetica,sans-Serif" font-size="10.00">render_to</text>
</a>
</g>
</g>
<!-- Node1&#45;&gt;Node2 -->
<g id="edge1_Node000001_Node000002" class="edge">
<title>Node1&#45;&gt;Node2</title>
<g id="a_edge1_Node000001_Node000002"><a xlink:title=" ">
<path fill="none" stroke="#63b8ff" d="M109.15,-27.5C117.38,-27.5 125.94,-27.5 134.37,-27.5"/>
<polygon fill="#63b8ff" stroke="#63b8ff" points="134.54,-31 144.54,-27.5 134.54,-24 134.54,-31"/>
</a>
</g>
</g>
<!-- Node3 -->
<g id="Node000003" class="node">
<title>Node3</title>
<g id="a_Node000003"><a xlink:href="classinja_1_1Renderer.html#ace82a1b1e1db796e94c7a346c71defa2" target="_top" xlink:title=" ">
<polygon fill="white" stroke="#666666" points="427,-56 290,-56 290,-37 427,-37 427,-56"/>
<text text-anchor="middle" x="358.5" y="-44" font-family="Helvetica,sans-Serif" font-size="10.00">inja::Renderer::render_to</text>
</a>
</g>
</g>
<!-- Node2&#45;&gt;Node3 -->
<g id="edge2_Node000002_Node000003" class="edge">
<title>Node2&#45;&gt;Node3</title>
<g id="a_edge2_Node000002_Node000003"><a xlink:title=" ">
<path fill="none" stroke="#63b8ff" d="M254.09,-33.99C262.39,-34.99 271.11,-36.04 279.81,-37.1"/>
<polygon fill="#63b8ff" stroke="#63b8ff" points="279.64,-40.6 289.99,-38.33 280.48,-33.65 279.64,-40.6"/>
</a>
</g>
</g>
<!-- Node6 -->
<g id="Node000006" class="node">
<title>Node6</title>
<g id="a_Node000006"><a xlink:href="classinja_1_1Renderer.html#ad41cbbc7443d95c301c3952f55a44606" target="_top" xlink:title=" ">
<polygon fill="white" stroke="#666666" points="426,-19 291,-19 291,0 426,0 426,-19"/>
<text text-anchor="middle" x="358.5" y="-7" font-family="Helvetica,sans-Serif" font-size="10.00">inja::Renderer::Renderer</text>
</a>
</g>
</g>
<!-- Node2&#45;&gt;Node6 -->
<g id="edge5_Node000002_Node000006" class="edge">
<title>Node2&#45;&gt;Node6</title>
<g id="a_edge5_Node000002_Node000006"><a xlink:title=" ">
<path fill="none" stroke="#63b8ff" d="M254.09,-21.36C262.68,-20.37 271.7,-19.34 280.7,-18.31"/>
<polygon fill="#63b8ff" stroke="#63b8ff" points="281.28,-21.76 290.82,-17.14 280.49,-14.81 281.28,-21.76"/>
</a>
</g>
</g>
<!-- Node4 -->
<g id="Node000004" class="node">
<title>Node4</title>
<g id="a_Node000004"><a xlink:href="classinja_1_1BlockNode.html#afa264eaa0a42e9f38086e93530b164be" target="_top" xlink:title=" ">
<polygon fill="white" stroke="#666666" points="594,-56 463,-56 463,-37 594,-37 594,-56"/>
<text text-anchor="middle" x="528.5" y="-44" font-family="Helvetica,sans-Serif" font-size="10.00">inja::BlockNode::accept</text>
</a>
</g>
</g>
<!-- Node3&#45;&gt;Node4 -->
<g id="edge3_Node000003_Node000004" class="edge">
<title>Node3&#45;&gt;Node4</title>
<g id="a_edge3_Node000003_Node000004"><a xlink:title=" ">
<path fill="none" stroke="#63b8ff" d="M427.35,-46.5C435.7,-46.5 444.27,-46.5 452.72,-46.5"/>
<polygon fill="#63b8ff" stroke="#63b8ff" points="452.94,-50 462.94,-46.5 452.94,-43 452.94,-50"/>
</a>
</g>
</g>
<!-- Node5 -->
<g id="Node000005" class="node">
<title>Node5</title>
<g id="a_Node000005"><a xlink:href="classinja_1_1NodeVisitor.html#afecb3de947b76e68094be2a72eedea09" target="_top" xlink:title=" ">
<polygon fill="white" stroke="#666666" points="734,-61.5 630,-61.5 630,-31.5 734,-31.5 734,-61.5"/>
<text text-anchor="start" x="638" y="-49.5" font-family="Helvetica,sans-Serif" font-size="10.00">inja::NodeVisitor::</text>
<text text-anchor="middle" x="682" y="-38.5" font-family="Helvetica,sans-Serif" font-size="10.00">visit</text>
</a>
</g>
</g>
<!-- Node4&#45;&gt;Node5 -->
<g id="edge4_Node000004_Node000005" class="edge">
<title>Node4&#45;&gt;Node5</title>
<g id="a_edge4_Node000004_Node000005"><a xlink:title=" ">
<path fill="none" stroke="#63b8ff" d="M594.19,-46.5C602.65,-46.5 611.3,-46.5 619.71,-46.5"/>
<polygon fill="#63b8ff" stroke="#63b8ff" points="619.8,-50 629.8,-46.5 619.8,-43 619.8,-50"/>
</a>
</g>
</g>
</g>
</svg>
