<?xml version="1.0" encoding="UTF-8" standalone="no"?>
<!DOCTYPE svg PUBLIC "-//W3C//DTD SVG 1.1//EN"
 "http://www.w3.org/Graphics/SVG/1.1/DTD/svg11.dtd">
<!-- Generated by graphviz version 14.1.1 (0)
 -->
<!-- Title: inja::StatisticsVisitor::visit Pages: 1 -->
<svg width="436pt" height="94pt"
 viewBox="0.00 0.00 436.00 94.00" xmlns="http://www.w3.org/2000/svg" xmlns:xlink="http://www.w3.org/1999/xlink">
<g id="graph0" class="graph" transform="scale(1 1) rotate(0) translate(4 89.5)">
<title>inja::StatisticsVisitor::visit</title>
<!-- Node1 -->
<g id="Node000001" class="node">
<title>Node1</title>
<g id="a_Node000001"><a xlink:title=" ">
<polygon fill="#999999" stroke="#666666" points="116.5,-58.5 0,-58.5 0,-25 116.5,-25 116.5,-58.5"/>
<text xml:space="preserve" text-anchor="start" x="8" y="-45" font-family="Helvetica,sans-Serif" font-size="10.00">inja::StatisticsVisitor</text>
<text xml:space="preserve" text-anchor="middle" x="58.25" y="-32.25" font-family="Helvetica,sans-Serif" font-size="10.00">::visit</text>
</a>
</g>
</g>
<!-- Node2 -->
<g id="Node000002" class="node">
<title>Node2</title>
<g id="a_Node000002"><a xlink:href="classinja_1_1BlockNode.html#afa264eaa0a42e9f38086e93530b164be" target="_top" xlink:title=" ">
<polygon fill="white" stroke="#666666" points="285.88,-77.12 155.12,-77.12 155.12,-56.38 285.88,-56.38 285.88,-77.12"/>
<text xml:space="preserve" text-anchor="middle" x="220.5" y="-63.62" font-family="Helvetica,sans-Serif" font-size="10.00">inja::BlockNode::accept</text>
</a>
</g>
</g>
<!-- Node1&#45;&gt;Node2 -->
<g id="edge1_Node000001_Node000002" class="edge">
<title>Node1&#45;&gt;Node2</title>
<g id="a_edge1_Node000001_Node000002"><a xlink:title=" ">
<path fill="none" stroke="#63b8ff" d="M116.65,-50.7C125.37,-52.06 134.47,-53.48 143.51,-54.89"/>
<polygon fill="#63b8ff" stroke="#63b8ff" points="142.96,-58.35 153.38,-56.44 144.04,-51.44 142.96,-58.35"/>
</a>
</g>
</g>
<!-- Node4 -->
<g id="Node000004" class="node">
<title>Node4</title>
<g id="a_Node000004"><a xlink:href="classinja_1_1ExpressionListNode.html#a782d136a8fc3264603e8a7c6946ac0ef" target="_top" xlink:title=" ">
<polygon fill="white" stroke="#666666" points="288.5,-36.5 152.5,-36.5 152.5,-3 288.5,-3 288.5,-36.5"/>
<text xml:space="preserve" text-anchor="start" x="160.5" y="-23" font-family="Helvetica,sans-Serif" font-size="10.00">inja::ExpressionListNode</text>
<text xml:space="preserve" text-anchor="middle" x="220.5" y="-10.25" font-family="Helvetica,sans-Serif" font-size="10.00">::accept</text>
</a>
</g>
</g>
<!-- Node1&#45;&gt;Node4 -->
<g id="edge3_Node000001_Node000004" class="edge">
<title>Node1&#45;&gt;Node4</title>
<g id="a_edge3_Node000001_Node000004"><a xlink:title=" ">
<path fill="none" stroke="#63b8ff" d="M116.65,-33.87C124.55,-32.78 132.78,-31.66 140.98,-30.53"/>
<polygon fill="#63b8ff" stroke="#63b8ff" points="141.19,-34.03 150.62,-29.21 140.24,-27.1 141.19,-34.03"/>
</a>
</g>
</g>
<!-- Node3 -->
<g id="Node000003" class="node">
<title>Node3</title>
<g id="a_Node000003"><a xlink:href="classinja_1_1NodeVisitor.html#afecb3de947b76e68094be2a72eedea09" target="_top" xlink:title=" ">
<polygon fill="white" stroke="#666666" points="427.5,-85.5 324.5,-85.5 324.5,-52 427.5,-52 427.5,-85.5"/>
<text xml:space="preserve" text-anchor="start" x="332.5" y="-72" font-family="Helvetica,sans-Serif" font-size="10.00">inja::NodeVisitor::</text>
<text xml:space="preserve" text-anchor="middle" x="376" y="-59.25" font-family="Helvetica,sans-Serif" font-size="10.00">visit</text>
</a>
</g>
</g>
<!-- Node2&#45;&gt;Node3 -->
<g id="edge2_Node000002_Node000003" class="edge">
<title>Node2&#45;&gt;Node3</title>
<g id="a_edge2_Node000002_Node000003"><a xlink:title=" ">
<path fill="none" stroke="#63b8ff" d="M286.15,-67.59C295.04,-67.71 304.15,-67.83 312.99,-67.94"/>
<polygon fill="#63b8ff" stroke="#63b8ff" points="312.85,-71.44 322.9,-68.07 312.94,-64.44 312.85,-71.44"/>
</a>
</g>
</g>
<!-- Node5 -->
<g id="Node000005" class="node">
<title>Node5</title>
<g id="a_Node000005"><a xlink:href="classinja_1_1NodeVisitor.html#a675afea1f3fb02af1efb89f1d5dd4642" target="_top" xlink:title=" ">
<polygon fill="white" stroke="#666666" points="427.5,-33.5 324.5,-33.5 324.5,0 427.5,0 427.5,-33.5"/>
<text xml:space="preserve" text-anchor="start" x="332.5" y="-20" font-family="Helvetica,sans-Serif" font-size="10.00">inja::NodeVisitor::</text>
<text xml:space="preserve" text-anchor="middle" x="376" y="-7.25" font-family="Helvetica,sans-Serif" font-size="10.00">visit</text>
</a>
</g>
</g>
<!-- Node4&#45;&gt;Node5 -->
<g id="edge4_Node000004_Node000005" class="edge">
<title>Node4&#45;&gt;Node5</title>
<g id="a_edge4_Node000004_Node000005"><a xlink:title=" ">
<path fill="none" stroke="#63b8ff" d="M288.83,-18.43C296.84,-18.28 304.99,-18.12 312.92,-17.96"/>
<polygon fill="#63b8ff" stroke="#63b8ff" points="312.9,-21.46 322.83,-17.77 312.76,-14.47 312.9,-21.46"/>
</a>
</g>
</g>
</g>
</svg>
