<?xml version="1.0" encoding="UTF-8" standalone="no"?>
<!DOCTYPE svg PUBLIC "-//W3C//DTD SVG 1.1//EN"
 "http://www.w3.org/Graphics/SVG/1.1/DTD/svg11.dtd">
<!-- Generated by graphviz version 2.42.4 (0)
 -->
<!-- Title: mqtt::mqttbroker::lib::Mqtt::Mqtt Pages: 1 -->
<svg width="924pt" height="138pt"
 viewBox="0.00 0.00 924.00 138.39" xmlns="http://www.w3.org/2000/svg" xmlns:xlink="http://www.w3.org/1999/xlink">
<g id="graph0" class="graph" transform="scale(1 1) rotate(0) translate(4 134.39)">
<title>mqtt::mqttbroker::lib::Mqtt::Mqtt</title>
<!-- Node1 -->
<g id="Node000001" class="node">
<title>Node1</title>
<g id="a_Node000001"><a xlink:title=" ">
<polygon fill="#999999" stroke="#666666" points="118,-65.39 0,-65.39 0,-35.39 118,-35.39 118,-65.39"/>
<text text-anchor="start" x="8" y="-53.39" font-family="Helvetica,sans-Serif" font-size="10.00">mqtt::mqttbroker::lib</text>
<text text-anchor="middle" x="59" y="-42.39" font-family="Helvetica,sans-Serif" font-size="10.00">::Mqtt::Mqtt</text>
</a>
</g>
</g>
<!-- Node2 -->
<g id="Node000002" class="node">
<title>Node2</title>
<g id="a_Node000002"><a xlink:href="classmqtt_1_1lib_1_1MqttMapper.html#ae244e3745588740bf513016cb0f06a74" target="_top" xlink:title=" ">
<polygon fill="white" stroke="#666666" points="277,-65.39 154,-65.39 154,-35.39 277,-35.39 277,-65.39"/>
<text text-anchor="start" x="162" y="-53.39" font-family="Helvetica,sans-Serif" font-size="10.00">mqtt::lib::MqttMapper</text>
<text text-anchor="middle" x="215.5" y="-42.39" font-family="Helvetica,sans-Serif" font-size="10.00">::MqttMapper</text>
</a>
</g>
</g>
<!-- Node1&#45;&gt;Node2 -->
<g id="edge1_Node000001_Node000002" class="edge">
<title>Node1&#45;&gt;Node2</title>
<g id="a_edge1_Node000001_Node000002"><a xlink:title=" ">
<path fill="none" stroke="#63b8ff" d="M118.41,-50.39C126.67,-50.39 135.24,-50.39 143.7,-50.39"/>
<polygon fill="#63b8ff" stroke="#63b8ff" points="143.95,-53.89 153.95,-50.39 143.95,-46.89 143.95,-53.89"/>
</a>
</g>
</g>
<!-- Node3 -->
<g id="Node000003" class="node">
<title>Node3</title>
<g id="a_Node000003"><a xlink:href="classinja_1_1Environment.html#aacf2afb515ec7efb0b844174093fed6d" target="_top" xlink:title="Adds a variadic callback.">
<polygon fill="white" stroke="#666666" points="422,-130.39 313,-130.39 313,-100.39 422,-100.39 422,-130.39"/>
<text text-anchor="start" x="321" y="-118.39" font-family="Helvetica,sans-Serif" font-size="10.00">inja::Environment::</text>
<text text-anchor="middle" x="367.5" y="-107.39" font-family="Helvetica,sans-Serif" font-size="10.00">add_callback</text>
</a>
</g>
</g>
<!-- Node2&#45;&gt;Node3 -->
<g id="edge2_Node000002_Node000003" class="edge">
<title>Node2&#45;&gt;Node3</title>
<g id="a_edge2_Node000002_Node000003"><a xlink:title=" ">
<path fill="none" stroke="#63b8ff" d="M251.29,-65.46C272.42,-74.62 299.59,-86.39 322.24,-96.21"/>
<polygon fill="#63b8ff" stroke="#63b8ff" points="321.07,-99.52 331.64,-100.28 323.86,-93.09 321.07,-99.52"/>
</a>
</g>
</g>
<!-- Node4 -->
<g id="Node000004" class="node">
<title>Node4</title>
<g id="a_Node000004"><a xlink:href="classinja_1_1Environment.html#accda3196054131f8e8cd484ef92c0627" target="_top" xlink:title="Adds a callback with given number or arguments.">
<polygon fill="white" stroke="#666666" points="567,-89.39 458,-89.39 458,-59.39 567,-59.39 567,-89.39"/>
<text text-anchor="start" x="466" y="-77.39" font-family="Helvetica,sans-Serif" font-size="10.00">inja::Environment::</text>
<text text-anchor="middle" x="512.5" y="-66.39" font-family="Helvetica,sans-Serif" font-size="10.00">add_callback</text>
</a>
</g>
</g>
<!-- Node2&#45;&gt;Node4 -->
<g id="edge6_Node000002_Node000004" class="edge">
<title>Node2&#45;&gt;Node4</title>
<g id="a_edge6_Node000002_Node000004"><a xlink:title=" ">
<path fill="none" stroke="#63b8ff" d="M277.27,-55.33C326.97,-59.38 397.06,-65.08 447.6,-69.19"/>
<polygon fill="#63b8ff" stroke="#63b8ff" points="447.5,-72.69 457.75,-70.01 448.07,-65.72 447.5,-72.69"/>
</a>
</g>
</g>
<!-- Node7 -->
<g id="Node000007" class="node">
<title>Node7</title>
<g id="a_Node000007"><a xlink:href="classinja_1_1Environment.html#abf3676db94a59534d715e83f4d5e4940" target="_top" xlink:title="Adds a variadic void callback.">
<polygon fill="white" stroke="#666666" points="422,-44.39 313,-44.39 313,-14.39 422,-14.39 422,-44.39"/>
<text text-anchor="start" x="321" y="-32.39" font-family="Helvetica,sans-Serif" font-size="10.00">inja::Environment::</text>
<text text-anchor="middle" x="367.5" y="-21.39" font-family="Helvetica,sans-Serif" font-size="10.00">add_void_callback</text>
</a>
</g>
</g>
<!-- Node2&#45;&gt;Node7 -->
<g id="edge7_Node000002_Node000007" class="edge">
<title>Node2&#45;&gt;Node7</title>
<g id="a_edge7_Node000002_Node000007"><a xlink:title=" ">
<path fill="none" stroke="#63b8ff" d="M277.08,-41.91C285.61,-40.71 294.4,-39.48 302.99,-38.28"/>
<polygon fill="#63b8ff" stroke="#63b8ff" points="303.53,-41.74 312.94,-36.89 302.56,-34.81 303.53,-41.74"/>
</a>
</g>
</g>
<!-- Node8 -->
<g id="Node000008" class="node">
<title>Node8</title>
<g id="a_Node000008"><a xlink:href="classinja_1_1Environment.html#a3467986ae633a7c546a62c387b6c613f" target="_top" xlink:title="Adds a void callback with given number or arguments.">
<polygon fill="white" stroke="#666666" points="567,-41.39 458,-41.39 458,-11.39 567,-11.39 567,-41.39"/>
<text text-anchor="start" x="466" y="-29.39" font-family="Helvetica,sans-Serif" font-size="10.00">inja::Environment::</text>
<text text-anchor="middle" x="512.5" y="-18.39" font-family="Helvetica,sans-Serif" font-size="10.00">add_void_callback</text>
</a>
</g>
</g>
<!-- Node2&#45;&gt;Node8 -->
<g id="edge10_Node000002_Node000008" class="edge">
<title>Node2&#45;&gt;Node8</title>
<g id="a_edge10_Node000002_Node000008"><a xlink:title=" ">
<path fill="none" stroke="#63b8ff" d="M241.22,-35.17C260.11,-24.48 287.19,-11.11 313,-5.39 357.51,4.48 408.69,-1.34 447.93,-9.33"/>
<polygon fill="#63b8ff" stroke="#63b8ff" points="447.39,-12.79 457.9,-11.46 448.85,-5.95 447.39,-12.79"/>
</a>
</g>
</g>
<!-- Node3&#45;&gt;Node4 -->
<g id="edge3_Node000003_Node000004" class="edge">
<title>Node3&#45;&gt;Node4</title>
<g id="a_edge3_Node000003_Node000004"><a xlink:title=" ">
<path fill="none" stroke="#63b8ff" d="M420.94,-100.35C430.16,-97.71 439.85,-94.93 449.32,-92.22"/>
<polygon fill="#63b8ff" stroke="#63b8ff" points="450.42,-95.54 459.07,-89.42 448.49,-88.81 450.42,-95.54"/>
</a>
</g>
</g>
<!-- Node5 -->
<g id="Node000005" class="node">
<title>Node5</title>
<g id="a_Node000005"><a xlink:href="classinja_1_1FunctionStorage.html#ae6060e88dacd550e8b48992fd6f0500f" target="_top" xlink:title=" ">
<polygon fill="white" stroke="#666666" points="722,-65.39 603,-65.39 603,-35.39 722,-35.39 722,-65.39"/>
<text text-anchor="start" x="611" y="-53.39" font-family="Helvetica,sans-Serif" font-size="10.00">inja::FunctionStorage</text>
<text text-anchor="middle" x="662.5" y="-42.39" font-family="Helvetica,sans-Serif" font-size="10.00">::add_callback</text>
</a>
</g>
</g>
<!-- Node4&#45;&gt;Node5 -->
<g id="edge4_Node000004_Node000005" class="edge">
<title>Node4&#45;&gt;Node5</title>
<g id="a_edge4_Node000004_Node000005"><a xlink:title=" ">
<path fill="none" stroke="#63b8ff" d="M567.35,-65.66C575.67,-64.31 584.35,-62.9 592.94,-61.51"/>
<polygon fill="#63b8ff" stroke="#63b8ff" points="593.63,-64.94 602.94,-59.88 592.51,-58.03 593.63,-64.94"/>
</a>
</g>
</g>
<!-- Node6 -->
<g id="Node000006" class="node">
<title>Node6</title>
<g id="a_Node000006"><a xlink:href="structinja_1_1FunctionStorage_1_1FunctionData.html#a7e038999d61d736eb2868f64e4820ad7" target="_top" xlink:title=" ">
<polygon fill="white" stroke="#666666" points="916,-65.39 758,-65.39 758,-35.39 916,-35.39 916,-65.39"/>
<text text-anchor="start" x="766" y="-53.39" font-family="Helvetica,sans-Serif" font-size="10.00">inja::FunctionStorage</text>
<text text-anchor="middle" x="837" y="-42.39" font-family="Helvetica,sans-Serif" font-size="10.00">::FunctionData::FunctionData</text>
</a>
</g>
</g>
<!-- Node5&#45;&gt;Node6 -->
<g id="edge5_Node000005_Node000006" class="edge">
<title>Node5&#45;&gt;Node6</title>
<g id="a_edge5_Node000005_Node000006"><a xlink:title=" ">
<path fill="none" stroke="#63b8ff" d="M722.38,-50.39C730.59,-50.39 739.17,-50.39 747.77,-50.39"/>
<polygon fill="#63b8ff" stroke="#63b8ff" points="747.86,-53.89 757.86,-50.39 747.86,-46.89 747.86,-53.89"/>
</a>
</g>
</g>
<!-- Node7&#45;&gt;Node8 -->
<g id="edge8_Node000007_Node000008" class="edge">
<title>Node7&#45;&gt;Node8</title>
<g id="a_edge8_Node000007_Node000008"><a xlink:title=" ">
<path fill="none" stroke="#63b8ff" d="M422.15,-28.26C430.38,-28.09 438.94,-27.91 447.37,-27.73"/>
<polygon fill="#63b8ff" stroke="#63b8ff" points="447.62,-31.23 457.54,-27.52 447.47,-24.23 447.62,-31.23"/>
</a>
</g>
</g>
<!-- Node8&#45;&gt;Node5 -->
<g id="edge9_Node000008_Node000005" class="edge">
<title>Node8&#45;&gt;Node5</title>
<g id="a_edge9_Node000008_Node000005"><a xlink:title=" ">
<path fill="none" stroke="#63b8ff" d="M567.35,-35.12C575.67,-36.47 584.35,-37.88 592.94,-39.27"/>
<polygon fill="#63b8ff" stroke="#63b8ff" points="592.51,-42.75 602.94,-40.89 593.63,-35.84 592.51,-42.75"/>
</a>
</g>
</g>
</g>
</svg>
