<?xml version="1.0" encoding="UTF-8" standalone="no"?>
<!DOCTYPE svg PUBLIC "-//W3C//DTD SVG 1.1//EN"
 "http://www.w3.org/Graphics/SVG/1.1/DTD/svg11.dtd">
<!-- Generated by graphviz version 14.1.2 (0)
 -->
<!-- Title: anonymous_namespace{json&#45;validator.cpp}::required Pages: 1 -->
<!--zoomable 677 -->

<svg id="main" version="1.1" xmlns="http://www.w3.org/2000/svg" xmlns:xlink="http://www.w3.org/1999/xlink" xml:space="preserve" onload="init(evt)">

<style type="text/css"><![CDATA[
.node, .edge {opacity: 0.7;}
.node.selected, .edge.selected {opacity: 1;}
.edge:hover path { stroke: red; }
.edge:hover polygon { stroke: red; fill: red; }
]]></style>

<defs>
  <circle id="rim" cx="0" cy="0" r="7"/>
  <circle id="rim2" cx="0" cy="0" r="3.5"/>
  <g id="zoomPlus">
    <use xlink:href="#rim" fill="#404040"><set attributeName="fill" to="#808080" begin="zoomplus.mouseover" end="zoomplus.mouseout"/></use>
    <path d="M-4,0h8M0,-4v8" fill="none" stroke="white" stroke-width="1.5" pointer-events="none"/>
  </g>
  <g id="zoomMin">
    <use xlink:href="#rim" fill="#404040"><set attributeName="fill" to="#808080" begin="zoomminus.mouseover" end="zoomminus.mouseout"/></use>
    <path d="M-4,0h8" fill="none" stroke="white" stroke-width="1.5" pointer-events="none"/>
  </g>
  <g id="arrowUp" transform="translate(30 24)">
    <use xlink:href="#rim"/>
    <path pointer-events="none" fill="none" stroke="white" stroke-width="1.5" d="M0,-3.0v7 M-2.5,-0.5L0,-3.0L2.5,-0.5"/>
  </g>
  <g id="arrowRight" transform="rotate(90) translate(36 -43)">
    <use xlink:href="#rim"/>
    <path pointer-events="none" fill="none" stroke="white" stroke-width="1.5" d="M0,-3.0v7 M-2.5,-0.5L0,-3.0L2.5,-0.5"/>
  </g>
  <g id="arrowDown" transform="rotate(180) translate(-30 -48)">
    <use xlink:href="#rim"/>
    <path pointer-events="none" fill="none" stroke="white" stroke-width="1.5" d="M0,-3.0v7 M-2.5,-0.5L0,-3.0L2.5,-0.5"/>
  </g>
  <g id="arrowLeft" transform="rotate(270) translate(-36 17)">
    <use xlink:href="#rim"/>
    <path pointer-events="none" fill="none" stroke="white" stroke-width="1.5" d="M0,-3.0v7 M-2.5,-0.5L0,-3.0L2.5,-0.5"/>
  </g>
  <g id="resetDef">
    <use xlink:href="#rim2" fill="#404040"><set attributeName="fill" to="#808080" begin="reset.mouseover" end="reset.mouseout"/></use>
  </g>
</defs>
<script type="application/ecmascript">
var viewWidth = 607;
var viewHeight = 677;
var sectionId = 'dynsection-1';
</script>
<script type="application/ecmascript" xlink:href="svg.min.js"/>
<svg id="graph" class="graph">
<g id="viewport">
<title>anonymous_namespace{json&#45;validator.cpp}::required</title>
<!-- Node1 -->
<g id="Node000001" class="node">
<title>Node1</title>
<g id="a_Node000001"><a xlink:title=" ">
<polygon fill="#999999" stroke="none" points="457,-46.25 330.5,-46.25 330.5,0 457,0 457,-46.25"/>
<text xml:space="preserve" text-anchor="start" x="334.5" y="-32.75" font-family="Helvetica,sans-Serif" font-size="10.00">anonymous_namespace</text>
<text xml:space="preserve" text-anchor="start" x="334.5" y="-20" font-family="Helvetica,sans-Serif" font-size="10.00">{json&#45;validator.cpp}</text>
<text xml:space="preserve" text-anchor="start" x="370.5" y="-7.25" font-family="Helvetica,sans-Serif" font-size="10.00">::required</text>
<polygon fill="none" stroke="#666666" points="330.5,0 330.5,-46.25 457,-46.25 457,0 330.5,0"/>
</a>
</g>
</g>
<!-- Node2 -->
<g id="Node000002" class="node">
<title>Node2</title>
<g id="a_Node000002"><a xlink:href="classanonymous__namespace_02json-validator_8cpp_03_1_1schema.html" target="_top" xlink:title=" ">
<polygon fill="white" stroke="none" points="457,-129.5 330.5,-129.5 330.5,-83.25 457,-83.25 457,-129.5"/>
<text xml:space="preserve" text-anchor="start" x="334.5" y="-116" font-family="Helvetica,sans-Serif" font-size="10.00">anonymous_namespace</text>
<text xml:space="preserve" text-anchor="start" x="334.5" y="-103.25" font-family="Helvetica,sans-Serif" font-size="10.00">{json&#45;validator.cpp}</text>
<text xml:space="preserve" text-anchor="start" x="371.62" y="-90.5" font-family="Helvetica,sans-Serif" font-size="10.00">::schema</text>
<polygon fill="none" stroke="#666666" points="330.5,-83.25 330.5,-129.5 457,-129.5 457,-83.25 330.5,-83.25"/>
</a>
</g>
</g>
<!-- Node2&#45;&gt;Node1 -->
<g id="edge1_Node000001_Node000002" class="edge">
<title>Node2&#45;&gt;Node1</title>
<g id="a_edge1_Node000001_Node000002"><a xlink:title=" ">
<path fill="none" stroke="#63b8ff" d="M387.1,-72.15C386.86,-63.42 387.05,-54.23 387.67,-46.24"/>
<polygon fill="none" stroke="#63b8ff" points="383.6,-72.28 387.61,-82.09 390.59,-71.92 383.6,-72.28"/>
</a>
</g>
</g>
<!-- Node2&#45;&gt;Node1 -->
<g id="edge14_Node000001_Node000002" class="edge">
<title>Node2&#45;&gt;Node1</title>
<g id="a_edge14_Node000001_Node000002"><a xlink:title=" ">
<path fill="none" stroke="#63b8ff" d="M400.4,-72.15C400.64,-63.42 400.45,-54.23 399.83,-46.24"/>
<polygon fill="none" stroke="#63b8ff" points="396.91,-71.92 399.89,-82.09 403.9,-72.28 396.91,-71.92"/>
</a>
</g>
</g>
<!-- Node3 -->
<g id="Node000003" class="node">
<title>Node3</title>
<g id="a_Node000003"><a xlink:href="classnlohmann_1_1json__schema_1_1root__schema.html" target="_top" xlink:title=" ">
<polygon fill="white" stroke="none" points="426,-217.75 299.5,-217.75 299.5,-184.25 426,-184.25 426,-217.75"/>
<text xml:space="preserve" text-anchor="start" x="303.5" y="-204.25" font-family="Helvetica,sans-Serif" font-size="10.00">nlohmann::json_schema</text>
<text xml:space="preserve" text-anchor="start" x="328.25" y="-191.5" font-family="Helvetica,sans-Serif" font-size="10.00">::root_schema</text>
<polygon fill="none" stroke="#666666" points="299.5,-184.25 299.5,-217.75 426,-217.75 426,-184.25 299.5,-184.25"/>
</a>
</g>
</g>
<!-- Node3&#45;&gt;Node2 -->
<g id="edge2_Node000002_Node000003" class="edge">
<title>Node3&#45;&gt;Node2</title>
<g id="a_edge2_Node000002_Node000003"><a xlink:title=" ">
<path fill="none" stroke="#63b8ff" d="M368.01,-184.29C371.91,-172.63 377.38,-156.29 382.27,-141.67"/>
<polygon fill="none" stroke="#63b8ff" points="382.28,-141.66 380.39,-134.7 386.08,-130.28 387.97,-137.24 382.28,-141.66"/>
</a>
</g>
<text xml:space="preserve" text-anchor="start" x="383.11" y="-153.75" font-family="Helvetica,sans-Serif" font-size="10.00" fill="grey">#root_</text>
</g>
<!-- Node4 -->
<g id="Node000004" class="node">
<title>Node4</title>
<g id="a_Node000004"><a xlink:title=" ">
<polygon fill="white" stroke="none" points="141.5,-591.88 0,-591.88 0,-571.12 141.5,-571.12 141.5,-591.88"/>
<text xml:space="preserve" text-anchor="start" x="4" y="-578.38" font-family="Helvetica,sans-Serif" font-size="10.00">std::shared_ptr&lt; schema &gt;</text>
<polygon fill="none" stroke="#666666" points="0,-571.12 0,-591.88 141.5,-591.88 141.5,-571.12 0,-571.12"/>
</a>
</g>
</g>
<!-- Node4&#45;&gt;Node3 -->
<g id="edge3_Node000003_Node000004" class="edge">
<title>Node4&#45;&gt;Node3</title>
<g id="a_edge3_Node000003_Node000004"><a xlink:title=" ">
<path fill="none" stroke="#63b8ff" d="M69.43,-571.32C67.16,-554.71 62.75,-518.54 62.75,-487.88 62.75,-487.88 62.75,-487.88 62.75,-294.62 62.75,-247.74 198.24,-222.04 287.11,-210.22"/>
<polygon fill="none" stroke="#63b8ff" points="287.06,-210.23 292.5,-205.5 298.97,-208.7 293.53,-213.43 287.06,-210.23"/>
</a>
</g>
<text xml:space="preserve" text-anchor="start" x="65.75" y="-387.12" font-family="Helvetica,sans-Serif" font-size="10.00" fill="grey">&#45;root_</text>
</g>
<!-- Node9 -->
<g id="Node000009" class="node">
<title>Node9</title>
<g id="a_Node000009"><a xlink:title=" ">
<polygon fill="white" stroke="none" points="246.62,-503.62 90.88,-503.62 90.88,-470.12 246.62,-470.12 246.62,-503.62"/>
<text xml:space="preserve" text-anchor="start" x="94.88" y="-490.12" font-family="Helvetica,sans-Serif" font-size="10.00">std::map&lt; std::string,</text>
<text xml:space="preserve" text-anchor="start" x="94.88" y="-477.38" font-family="Helvetica,sans-Serif" font-size="10.00"> std::shared_ptr&lt; schema &gt; &gt;</text>
<polygon fill="none" stroke="#666666" points="90.88,-470.12 90.88,-503.62 246.62,-503.62 246.62,-470.12 90.88,-470.12"/>
</a>
</g>
</g>
<!-- Node4&#45;&gt;Node9 -->
<g id="edge10_Node000009_Node000004" class="edge">
<title>Node4&#45;&gt;Node9</title>
<g id="a_edge10_Node000009_Node000004"><a xlink:title=" ">
<path fill="none" stroke="#63b8ff" d="M80.5,-571.28C94.9,-557.67 122.34,-531.74 142.81,-512.39"/>
<polygon fill="none" stroke="#63b8ff" points="142.84,-512.36 144.46,-505.33 151.56,-504.12 149.95,-511.15 142.84,-512.36"/>
</a>
</g>
<text xml:space="preserve" text-anchor="start" x="128.62" y="-534.25" font-family="Helvetica,sans-Serif" font-size="10.00" fill="grey">+elements</text>
</g>
<!-- Node5 -->
<g id="Node000005" class="node">
<title>Node5</title>
<g id="a_Node000005"><a xlink:title=" ">
<polygon fill="white" stroke="none" points="439.5,-318.75 286,-318.75 286,-272.5 439.5,-272.5 439.5,-318.75"/>
<text xml:space="preserve" text-anchor="start" x="290" y="-305.25" font-family="Helvetica,sans-Serif" font-size="10.00">std::map&lt; std::string,</text>
<text xml:space="preserve" text-anchor="start" x="290" y="-292.5" font-family="Helvetica,sans-Serif" font-size="10.00"> nlohmann::json_schema</text>
<text xml:space="preserve" text-anchor="start" x="290" y="-279.75" font-family="Helvetica,sans-Serif" font-size="10.00">::root_schema::schema_file &gt;</text>
<polygon fill="none" stroke="#666666" points="286,-272.5 286,-318.75 439.5,-318.75 439.5,-272.5 286,-272.5"/>
</a>
</g>
</g>
<!-- Node5&#45;&gt;Node3 -->
<g id="edge4_Node000003_Node000005" class="edge">
<title>Node5&#45;&gt;Node3</title>
<g id="a_edge4_Node000003_Node000005"><a xlink:title=" ">
<path fill="none" stroke="#63b8ff" d="M362.75,-272.67C362.75,-260.13 362.75,-244.25 362.75,-230.72"/>
<polygon fill="none" stroke="#63b8ff" points="362.75,-230.61 358.75,-224.61 362.75,-218.61 366.75,-224.61 362.75,-230.61"/>
</a>
</g>
<text xml:space="preserve" text-anchor="start" x="365.75" y="-242" font-family="Helvetica,sans-Serif" font-size="10.00" fill="grey">&#45;files_</text>
</g>
<!-- Node6 -->
<g id="Node000006" class="node">
<title>Node6</title>
<g id="a_Node000006"><a xlink:title=" ">
<polygon fill="white" stroke="none" points="429.12,-591.88 372.38,-591.88 372.38,-571.12 429.12,-571.12 429.12,-591.88"/>
<text xml:space="preserve" text-anchor="start" x="376.38" y="-578.38" font-family="Helvetica,sans-Serif" font-size="10.00">std::string</text>
<polygon fill="none" stroke="#666666" points="372.38,-571.12 372.38,-591.88 429.12,-591.88 429.12,-571.12 372.38,-571.12"/>
</a>
</g>
</g>
<!-- Node6&#45;&gt;Node5 -->
<g id="edge5_Node000005_Node000006" class="edge">
<title>Node6&#45;&gt;Node5</title>
<g id="a_edge5_Node000005_Node000006"><a xlink:title=" ">
<path fill="none" stroke="#63b8ff" d="M405,-571.28C407.82,-564.62 411.27,-555.33 412.75,-546.75 414.17,-538.54 412.77,-536.33 412.75,-528 412.64,-485.5 430.04,-375.11 411.75,-336.75 410.25,-333.6 408.37,-330.62 406.22,-327.81"/>
<polygon fill="none" stroke="#63b8ff" points="406.27,-327.86 399.26,-326.17 398.13,-319.05 405.14,-320.74 406.27,-327.86"/>
</a>
</g>
<text xml:space="preserve" text-anchor="start" x="422.34" y="-432.25" font-family="Helvetica,sans-Serif" font-size="10.00" fill="grey">+keys</text>
</g>
<!-- Node6&#45;&gt;Node9 -->
<g id="edge9_Node000009_Node000006" class="edge">
<title>Node6&#45;&gt;Node9</title>
<g id="a_edge9_Node000009_Node000006"><a xlink:title=" ">
<path fill="none" stroke="#63b8ff" d="M375.41,-571.17C359.45,-564.96 338.61,-556.22 321,-546.75 307.73,-539.62 306.32,-534.55 292.75,-528 276.35,-520.09 258.02,-513.19 240.58,-507.44"/>
<polygon fill="none" stroke="#63b8ff" points="240.67,-507.48 233.74,-509.47 229.24,-503.83 236.17,-501.84 240.67,-507.48"/>
</a>
</g>
<text xml:space="preserve" text-anchor="start" x="324" y="-534.25" font-family="Helvetica,sans-Serif" font-size="10.00" fill="grey">+keys</text>
</g>
<!-- Node10 -->
<g id="Node000010" class="node">
<title>Node10</title>
<g id="a_Node000010"><a xlink:title=" ">
<polygon fill="white" stroke="none" points="398.38,-510 265.12,-510 265.12,-463.75 398.38,-463.75 398.38,-510"/>
<text xml:space="preserve" text-anchor="start" x="269.12" y="-496.5" font-family="Helvetica,sans-Serif" font-size="10.00">std::map&lt; std::string,</text>
<text xml:space="preserve" text-anchor="start" x="269.12" y="-483.75" font-family="Helvetica,sans-Serif" font-size="10.00"> std::shared_ptr&lt; schema</text>
<text xml:space="preserve" text-anchor="start" x="311.12" y="-471" font-family="Helvetica,sans-Serif" font-size="10.00">_ref &gt; &gt;</text>
<polygon fill="none" stroke="#666666" points="265.12,-463.75 265.12,-510 398.38,-510 398.38,-463.75 265.12,-463.75"/>
</a>
</g>
</g>
<!-- Node6&#45;&gt;Node10 -->
<g id="edge12_Node000010_Node000006" class="edge">
<title>Node6&#45;&gt;Node10</title>
<g id="a_edge12_Node000010_Node000006"><a xlink:title=" ">
<path fill="none" stroke="#63b8ff" d="M393.88,-571.28C385.09,-559.48 369.39,-538.4 355.97,-520.39"/>
<polygon fill="none" stroke="#63b8ff" points="355.91,-520.3 349.11,-517.88 348.74,-510.68 355.53,-513.1 355.91,-520.3"/>
</a>
</g>
<text xml:space="preserve" text-anchor="start" x="377.46" y="-534.25" font-family="Helvetica,sans-Serif" font-size="10.00" fill="grey">+keys</text>
</g>
<!-- Node12 -->
<g id="Node000012" class="node">
<title>Node12</title>
<g id="a_Node000012"><a xlink:title=" ">
<polygon fill="white" stroke="none" points="599.25,-445.75 468.25,-445.75 468.25,-425 599.25,-425 599.25,-445.75"/>
<text xml:space="preserve" text-anchor="start" x="472.25" y="-432.25" font-family="Helvetica,sans-Serif" font-size="10.00">std::vector&lt; std::string &gt;</text>
<polygon fill="none" stroke="#666666" points="468.25,-425 468.25,-445.75 599.25,-445.75 599.25,-425 468.25,-425"/>
</a>
</g>
</g>
<!-- Node6&#45;&gt;Node12 -->
<g id="edge16_Node000012_Node000006" class="edge">
<title>Node6&#45;&gt;Node12</title>
<g id="a_edge16_Node000012_Node000006"><a xlink:title=" ">
<path fill="none" stroke="#63b8ff" d="M412.76,-571.25C420.96,-564.73 431.89,-555.62 440.75,-546.75 470.6,-516.88 501.45,-478.5 519.05,-455.77"/>
<polygon fill="none" stroke="#63b8ff" points="518.92,-455.94 519.39,-448.74 526.22,-446.41 525.74,-453.61 518.92,-455.94"/>
</a>
</g>
<text xml:space="preserve" text-anchor="start" x="461.25" y="-534.25" font-family="Helvetica,sans-Serif" font-size="10.00" fill="grey">+elements</text>
</g>
<!-- Node7 -->
<g id="Node000007" class="node">
<title>Node7</title>
<g id="a_Node000007"><a xlink:title=" ">
<polygon fill="white" stroke="none" points="448.62,-668.75 352.88,-668.75 352.88,-635.25 448.62,-635.25 448.62,-668.75"/>
<text xml:space="preserve" text-anchor="start" x="356.88" y="-655.25" font-family="Helvetica,sans-Serif" font-size="10.00">std::basic_string&lt;</text>
<text xml:space="preserve" text-anchor="start" x="382.38" y="-642.5" font-family="Helvetica,sans-Serif" font-size="10.00"> Char &gt;</text>
<polygon fill="none" stroke="#666666" points="352.88,-635.25 352.88,-668.75 448.62,-668.75 448.62,-635.25 352.88,-635.25"/>
</a>
</g>
</g>
<!-- Node7&#45;&gt;Node6 -->
<g id="edge6_Node000006_Node000007" class="edge">
<title>Node7&#45;&gt;Node6</title>
<g id="a_edge6_Node000006_Node000007"><a xlink:title=" ">
<path fill="none" stroke="#63b8ff" d="M400.75,-624.2C400.75,-612.78 400.75,-600.19 400.75,-591.87"/>
<polygon fill="none" stroke="#63b8ff" points="397.25,-623.94 400.75,-633.94 404.25,-623.94 397.25,-623.94"/>
</a>
</g>
</g>
<!-- Node8 -->
<g id="Node000008" class="node">
<title>Node8</title>
<g id="a_Node000008"><a xlink:href="structnlohmann_1_1json__schema_1_1root__schema_1_1schema__file.html" target="_top" xlink:title=" ">
<polygon fill="white" stroke="none" points="398.88,-407 256.62,-407 256.62,-373.5 398.88,-373.5 398.88,-407"/>
<text xml:space="preserve" text-anchor="start" x="260.62" y="-393.5" font-family="Helvetica,sans-Serif" font-size="10.00">nlohmann::json_schema</text>
<text xml:space="preserve" text-anchor="start" x="260.62" y="-380.75" font-family="Helvetica,sans-Serif" font-size="10.00">::root_schema::schema_file</text>
<polygon fill="none" stroke="#666666" points="256.62,-373.5 256.62,-407 398.88,-407 398.88,-373.5 256.62,-373.5"/>
</a>
</g>
</g>
<!-- Node8&#45;&gt;Node5 -->
<g id="edge7_Node000005_Node000008" class="edge">
<title>Node8&#45;&gt;Node5</title>
<g id="a_edge7_Node000005_Node000008"><a xlink:title=" ">
<path fill="none" stroke="#63b8ff" d="M333.69,-373.54C338.14,-361.76 344.39,-345.21 349.96,-330.48"/>
<polygon fill="none" stroke="#63b8ff" points="349.86,-330.74 348.24,-323.72 354.1,-319.52 355.72,-326.54 349.86,-330.74"/>
</a>
</g>
<text xml:space="preserve" text-anchor="start" x="350.35" y="-343" font-family="Helvetica,sans-Serif" font-size="10.00" fill="grey">+elements</text>
</g>
<!-- Node9&#45;&gt;Node8 -->
<g id="edge8_Node000008_Node000009" class="edge">
<title>Node9&#45;&gt;Node8</title>
<g id="a_edge8_Node000008_Node000009"><a xlink:title=" ">
<path fill="none" stroke="#63b8ff" d="M193.48,-470.36C213.47,-457.91 242.4,-440.08 268,-425 274.58,-421.13 281.6,-417.08 288.44,-413.19"/>
<polygon fill="none" stroke="#63b8ff" points="288.44,-413.19 291.69,-406.76 298.88,-407.28 295.63,-413.72 288.44,-413.19"/>
</a>
</g>
<text xml:space="preserve" text-anchor="start" x="271" y="-432.25" font-family="Helvetica,sans-Serif" font-size="10.00" fill="grey">+schemas</text>
</g>
<!-- Node10&#45;&gt;Node8 -->
<g id="edge11_Node000008_Node000010" class="edge">
<title>Node10&#45;&gt;Node8</title>
<g id="a_edge11_Node000008_Node000010"><a xlink:title=" ">
<path fill="none" stroke="#63b8ff" d="M330.82,-463.93C330.27,-450.83 329.56,-434.04 328.96,-419.9"/>
<polygon fill="none" stroke="#63b8ff" points="328.96,-419.77 324.71,-413.94 328.45,-407.78 332.7,-413.6 328.96,-419.77"/>
</a>
</g>
<text xml:space="preserve" text-anchor="start" x="332.99" y="-432.25" font-family="Helvetica,sans-Serif" font-size="10.00" fill="grey">+unresolved</text>
</g>
<!-- Node11 -->
<g id="Node000011" class="node">
<title>Node11</title>
<g id="a_Node000011"><a xlink:title=" ">
<polygon fill="white" stroke="none" points="296.88,-598.25 166.62,-598.25 166.62,-564.75 296.88,-564.75 296.88,-598.25"/>
<text xml:space="preserve" text-anchor="start" x="170.62" y="-584.75" font-family="Helvetica,sans-Serif" font-size="10.00">std::shared_ptr&lt; schema</text>
<text xml:space="preserve" text-anchor="start" x="216.75" y="-572" font-family="Helvetica,sans-Serif" font-size="10.00">_ref &gt;</text>
<polygon fill="none" stroke="#666666" points="166.62,-564.75 166.62,-598.25 296.88,-598.25 296.88,-564.75 166.62,-564.75"/>
</a>
</g>
</g>
<!-- Node11&#45;&gt;Node10 -->
<g id="edge13_Node000010_Node000011" class="edge">
<title>Node11&#45;&gt;Node10</title>
<g id="a_edge13_Node000010_Node000011"><a xlink:title=" ">
<path fill="none" stroke="#63b8ff" d="M227.8,-564.89C225.91,-553.65 225.42,-538.67 232.75,-528 236.07,-523.17 243.79,-518.28 253.53,-513.65"/>
<polygon fill="none" stroke="#63b8ff" points="253.42,-513.7 257.33,-507.64 264.43,-508.92 260.52,-514.98 253.42,-513.7"/>
</a>
</g>
<text xml:space="preserve" text-anchor="start" x="235.75" y="-534.25" font-family="Helvetica,sans-Serif" font-size="10.00" fill="grey">+elements</text>
</g>
<!-- Node12&#45;&gt;Node1 -->
<g id="edge15_Node000001_Node000012" class="edge">
<title>Node12&#45;&gt;Node1</title>
<g id="a_edge15_Node000001_Node000012"><a xlink:title=" ">
<path fill="none" stroke="#63b8ff" d="M527.33,-425.18C517.23,-409.79 498.75,-377.48 498.75,-347.12 498.75,-347.12 498.75,-347.12 498.75,-105.38 498.75,-82.62 483.14,-65.33 463.95,-52.68"/>
<polygon fill="none" stroke="#63b8ff" points="464.07,-52.75 456.87,-53.1 453.77,-46.59 460.98,-46.24 464.07,-52.75"/>
</a>
</g>
<text xml:space="preserve" text-anchor="start" x="501.75" y="-242" font-family="Helvetica,sans-Serif" font-size="10.00" fill="grey">&#45;required_</text>
</g>
</g>
</svg>

<g id="navigator" transform="translate(0 0)" fill="#404254">
  <rect fill="#f2f5e9" fill-opacity="0.5" stroke="#606060" stroke-width=".5" x="0" y="0" width="60" height="60"/>
  <use id="zoomplus" xlink:href="#zoomPlus" x="17" y="9" onmousedown="handleZoom(evt,'in')"/>
  <use id="zoomminus" xlink:href="#zoomMin" x="42" y="9" onmousedown="handleZoom(evt,'out')"/>
  <use id="reset" xlink:href="#resetDef" x="30" y="36" onmousedown="handleReset()"/>
   <use id="arrowup" xlink:href="#arrowUp" x="0" y="0" onmousedown="handlePan(0,-1)"/>
  <use id="arrowright" xlink:href="#arrowRight" x="0" y="0" onmousedown="handlePan(1,0)"/>
  <use id="arrowdown" xlink:href="#arrowDown" x="0" y="0" onmousedown="handlePan(0,1)"/>
  <use id="arrowleft" xlink:href="#arrowLeft" x="0" y="0" onmousedown="handlePan(-1,0)"/>
</g>
<svg viewBox="0 0 15 15" width="100%" height="30px" preserveAspectRatio="xMaxYMin meet">
 <g id="arrow_out" transform="scale(0.3 0.3)">
  <a xlink:href="classanonymous__namespace_02json-validator_8cpp_03_1_1required__coll__graph_org.svg" target="_base">
   <rect id="button" ry="5" rx="5" y="6" x="6" height="38" width="38"
        fill="#f2f5e9" fill-opacity="0.5" stroke="#606060" stroke-width="1.0"/>
   <path id="arrow"
     d="M 11.500037,31.436501 C 11.940474,20.09759 22.043105,11.32322 32.158766,21.979434 L 37.068811,17.246167 C 37.068811,17.246167 37.088388,32 37.088388,32 L 22.160133,31.978069 C 22.160133,31.978069 26.997745,27.140456 26.997745,27.140456 C 18.528582,18.264221 13.291696,25.230495 11.500037,31.436501 z"
     style="fill:#404040;"/>
  </a>
 </g>
</svg>

<style type='text/css'>
<![CDATA[
[data-mouse-over-selected='false'] { opacity: 0.7; }
[data-mouse-over-selected='true']  { opacity: 1.0; }
]]>
</style>
<script type="application/ecmascript"><![CDATA[
document.addEventListener('DOMContentLoaded', (event) => {
  highlightEdges();
  highlightAdjacentNodes();
});
]]></script>
</svg>
