<?xml version="1.0" encoding="UTF-8" standalone="no"?>
<!DOCTYPE svg PUBLIC "-//W3C//DTD SVG 1.1//EN"
 "http://www.w3.org/Graphics/SVG/1.1/DTD/svg11.dtd">
<!-- Generated by graphviz version 2.42.4 (0)
 -->
<!-- Title: nlohmann::json_uri::fragment Pages: 1 -->
<!--zoomable 572 -->

<svg id="main" version="1.1" xmlns="http://www.w3.org/2000/svg" xmlns:xlink="http://www.w3.org/1999/xlink" xml:space="preserve" onload="init(evt)">
<style type="text/css"><![CDATA[
.node, .edge {opacity: 0.7;}
.node.selected, .edge.selected {opacity: 1;}
.edge:hover path { stroke: red; }
.edge:hover polygon { stroke: red; fill: red; }
]]></style>

<defs>
  <circle id="rim" cx="0" cy="0" r="7"/>
  <circle id="rim2" cx="0" cy="0" r="3.5"/>
  <g id="zoomPlus">
    <use xlink:href="#rim" fill="#404040"><set attributeName="fill" to="#808080" begin="zoomplus.mouseover" end="zoomplus.mouseout"/></use>
    <path d="M-4,0h8M0,-4v8" fill="none" stroke="white" stroke-width="1.5" pointer-events="none"/>
  </g>
  <g id="zoomMin">
    <use xlink:href="#rim" fill="#404040"><set attributeName="fill" to="#808080" begin="zoomminus.mouseover" end="zoomminus.mouseout"/></use>
    <path d="M-4,0h8" fill="none" stroke="white" stroke-width="1.5" pointer-events="none"/>
  </g>
  <g id="arrowUp" transform="translate(30 24)">
    <use xlink:href="#rim"/>
    <path pointer-events="none" fill="none" stroke="white" stroke-width="1.5" d="M0,-3.0v7 M-2.5,-0.5L0,-3.0L2.5,-0.5"/>
  </g>
  <g id="arrowRight" transform="rotate(90) translate(36 -43)">
    <use xlink:href="#rim"/>
    <path pointer-events="none" fill="none" stroke="white" stroke-width="1.5" d="M0,-3.0v7 M-2.5,-0.5L0,-3.0L2.5,-0.5"/>
  </g>
  <g id="arrowDown" transform="rotate(180) translate(-30 -48)">
    <use xlink:href="#rim"/>
    <path pointer-events="none" fill="none" stroke="white" stroke-width="1.5" d="M0,-3.0v7 M-2.5,-0.5L0,-3.0L2.5,-0.5"/>
  </g>
  <g id="arrowLeft" transform="rotate(270) translate(-36 17)">
    <use xlink:href="#rim"/>
    <path pointer-events="none" fill="none" stroke="white" stroke-width="1.5" d="M0,-3.0v7 M-2.5,-0.5L0,-3.0L2.5,-0.5"/>
  </g>
  <g id="resetDef">
    <use xlink:href="#rim2" fill="#404040"><set attributeName="fill" to="#808080" begin="reset.mouseover" end="reset.mouseout"/></use>
  </g>
</defs>
<script type="application/ecmascript">
var viewWidth = 1485;
var viewHeight = 572;
var sectionId = 'dynsection-7';
</script>
<script type="application/ecmascript" xlink:href="svg.min.js"/>
<svg id="graph" class="graph">
<g id="viewport">
<title>nlohmann::json_uri::fragment</title>
<!-- Node1 -->
<g id="Node000001" class="node">
<title>Node1</title>
<g id="a_Node000001"><a xlink:title=" ">
<polygon fill="#999999" stroke="#666666" points="1477,-329.5 1367,-329.5 1367,-299.5 1477,-299.5 1477,-329.5"/>
<text text-anchor="start" x="1375" y="-317.5" font-family="Helvetica,sans-Serif" font-size="10.00">nlohmann::json_uri</text>
<text text-anchor="middle" x="1422" y="-306.5" font-family="Helvetica,sans-Serif" font-size="10.00">::fragment</text>
</a>
</g>
</g>
<!-- Node2 -->
<g id="Node000002" class="node">
<title>Node2</title>
<g id="a_Node000002"><a xlink:href="classnlohmann_1_1json__schema_1_1root__schema.html#a7e890c03f941280b76fbdb4d5bb73065" target="_top" xlink:title=" ">
<polygon fill="white" stroke="#666666" points="1331,-335 1196,-335 1196,-294 1331,-294 1331,-335"/>
<text text-anchor="start" x="1204" y="-323" font-family="Helvetica,sans-Serif" font-size="10.00">nlohmann::json_schema</text>
<text text-anchor="start" x="1204" y="-312" font-family="Helvetica,sans-Serif" font-size="10.00">::root_schema::get_or</text>
<text text-anchor="middle" x="1263.5" y="-301" font-family="Helvetica,sans-Serif" font-size="10.00">_create_ref</text>
</a>
</g>
</g>
<!-- Node1&#45;&gt;Node2 -->
<g id="edge1_Node000001_Node000002" class="edge">
<title>Node1&#45;&gt;Node2</title>
<g id="a_edge1_Node000001_Node000002"><a xlink:title=" ">
<path fill="none" stroke="#63b8ff" d="M1356.59,-314.5C1348.18,-314.5 1339.56,-314.5 1331.12,-314.5"/>
<polygon fill="#63b8ff" stroke="#63b8ff" points="1356.7,-318 1366.7,-314.5 1356.7,-311 1356.7,-318"/>
</a>
</g>
</g>
<!-- Node28 -->
<g id="Node000028" class="node">
<title>Node28</title>
<g id="a_Node000028"><a xlink:href="classnlohmann_1_1json__schema_1_1root__schema.html#a685904131f0693e56f14a9e9db5f044e" target="_top" xlink:title=" ">
<polygon fill="white" stroke="#666666" points="1331,-383.5 1196,-383.5 1196,-353.5 1331,-353.5 1331,-383.5"/>
<text text-anchor="start" x="1204" y="-371.5" font-family="Helvetica,sans-Serif" font-size="10.00">nlohmann::json_schema</text>
<text text-anchor="middle" x="1263.5" y="-360.5" font-family="Helvetica,sans-Serif" font-size="10.00">::root_schema::insert</text>
</a>
</g>
</g>
<!-- Node1&#45;&gt;Node28 -->
<g id="edge31_Node000001_Node000028" class="edge">
<title>Node1&#45;&gt;Node28</title>
<g id="a_edge31_Node000001_Node000028"><a xlink:title=" ">
<path fill="none" stroke="#63b8ff" d="M1367.78,-332.86C1348.36,-339.57 1326.63,-347.06 1308.13,-353.45"/>
<polygon fill="#63b8ff" stroke="#63b8ff" points="1369.09,-336.11 1377.41,-329.54 1366.81,-329.5 1369.09,-336.11"/>
</a>
</g>
</g>
<!-- Node29 -->
<g id="Node000029" class="node">
<title>Node29</title>
<g id="a_Node000029"><a xlink:href="classnlohmann_1_1json__schema_1_1root__schema.html#a32f6012c2d81f29ca16e4409dd2b5ea3" target="_top" xlink:title=" ">
<polygon fill="white" stroke="#666666" points="1160,-277.5 1025,-277.5 1025,-247.5 1160,-247.5 1160,-277.5"/>
<text text-anchor="start" x="1033" y="-265.5" font-family="Helvetica,sans-Serif" font-size="10.00">nlohmann::json_schema</text>
<text text-anchor="middle" x="1092.5" y="-254.5" font-family="Helvetica,sans-Serif" font-size="10.00">::root_schema::validate</text>
</a>
</g>
</g>
<!-- Node1&#45;&gt;Node29 -->
<g id="edge33_Node000001_Node000029" class="edge">
<title>Node1&#45;&gt;Node29</title>
<g id="a_edge33_Node000001_Node000029"><a xlink:title=" ">
<path fill="none" stroke="#63b8ff" d="M1372.27,-296C1359.04,-291.6 1344.62,-287.36 1331,-284.5 1274.06,-272.54 1208.09,-267.08 1160.14,-264.59"/>
<polygon fill="#63b8ff" stroke="#63b8ff" points="1371.52,-299.44 1382.11,-299.37 1373.78,-292.82 1371.52,-299.44"/>
</a>
</g>
</g>
<!-- Node3 -->
<g id="Node000003" class="node">
<title>Node3</title>
<g id="a_Node000003"><a xlink:href="classanonymous__namespace_02json-validator_8cpp_03_1_1schema.html#aafee860997369c77204d5b1a7d095c3f" target="_top" xlink:title=" ">
<polygon fill="white" stroke="#666666" points="1160,-363 1025,-363 1025,-322 1160,-322 1160,-363"/>
<text text-anchor="start" x="1033" y="-351" font-family="Helvetica,sans-Serif" font-size="10.00">anonymous_namespace</text>
<text text-anchor="start" x="1033" y="-340" font-family="Helvetica,sans-Serif" font-size="10.00">{json&#45;validator::cpp}</text>
<text text-anchor="middle" x="1092.5" y="-329" font-family="Helvetica,sans-Serif" font-size="10.00">::schema::make</text>
</a>
</g>
</g>
<!-- Node2&#45;&gt;Node3 -->
<g id="edge2_Node000002_Node000003" class="edge">
<title>Node2&#45;&gt;Node3</title>
<g id="a_edge2_Node000002_Node000003"><a xlink:title=" ">
<path fill="none" stroke="#63b8ff" d="M1185.73,-320.49C1177.17,-321.86 1168.5,-323.33 1160.08,-324.85"/>
<polygon fill="#63b8ff" stroke="#63b8ff" points="1186.36,-323.94 1195.71,-318.95 1185.29,-317.02 1186.36,-323.94"/>
</a>
</g>
</g>
<!-- Node3&#45;&gt;Node2 -->
<g id="edge4_Node000003_Node000002" class="edge">
<title>Node3&#45;&gt;Node2</title>
<g id="a_edge4_Node000003_Node000002"><a xlink:title=" ">
<path fill="none" stroke="#63b8ff" d="M1170.06,-336.54C1178.62,-335.18 1187.28,-333.71 1195.71,-332.18"/>
<polygon fill="#63b8ff" stroke="#63b8ff" points="1169.43,-333.09 1160.08,-338.08 1170.5,-340.01 1169.43,-333.09"/>
</a>
</g>
</g>
<!-- Node3&#45;&gt;Node3 -->
<g id="edge10_Node000003_Node000003" class="edge">
<title>Node3&#45;&gt;Node3</title>
<g id="a_edge10_Node000003_Node000003"><a xlink:title=" ">
<path fill="none" stroke="#63b8ff" d="M1121.75,-372.96C1117.4,-377.74 1107.65,-381 1092.5,-381 1068.26,-381 1057.85,-372.65 1061.26,-363.1"/>
<polygon fill="#63b8ff" stroke="#63b8ff" points="1125.19,-373.59 1123.74,-363.1 1118.33,-372.2 1125.19,-373.59"/>
</a>
</g>
</g>
<!-- Node4 -->
<g id="Node000004" class="node">
<title>Node4</title>
<g id="a_Node000004"><a xlink:href="classanonymous__namespace_02json-validator_8cpp_03_1_1array.html#ad16bb35faff550ae0c7014de82822e71" target="_top" xlink:title=" ">
<polygon fill="white" stroke="#666666" points="977,-505 842,-505 842,-464 977,-464 977,-505"/>
<text text-anchor="start" x="850" y="-493" font-family="Helvetica,sans-Serif" font-size="10.00">anonymous_namespace</text>
<text text-anchor="start" x="850" y="-482" font-family="Helvetica,sans-Serif" font-size="10.00">{json&#45;validator::cpp}</text>
<text text-anchor="middle" x="909.5" y="-471" font-family="Helvetica,sans-Serif" font-size="10.00">::array::array</text>
</a>
</g>
</g>
<!-- Node3&#45;&gt;Node4 -->
<g id="edge3_Node000003_Node000004" class="edge">
<title>Node3&#45;&gt;Node4</title>
<g id="a_edge3_Node000003_Node000004"><a xlink:title=" ">
<path fill="none" stroke="#63b8ff" d="M1071.62,-371.33C1052.88,-396.59 1022.72,-432.73 989,-455.5 984.42,-458.59 979.48,-461.4 974.37,-463.95"/>
<polygon fill="#63b8ff" stroke="#63b8ff" points="1074.47,-373.36 1077.52,-363.22 1068.8,-369.24 1074.47,-373.36"/>
</a>
</g>
</g>
<!-- Node5 -->
<g id="Node000005" class="node">
<title>Node5</title>
<g id="a_Node000005"><a xlink:href="classnlohmann_1_1json__schema_1_1root__schema.html#a4c543fe7b89e76b3fdd17a6883696238" target="_top" xlink:title=" ">
<polygon fill="white" stroke="#666666" points="977,-428 842,-428 842,-387 977,-387 977,-428"/>
<text text-anchor="start" x="850" y="-416" font-family="Helvetica,sans-Serif" font-size="10.00">nlohmann::json_schema</text>
<text text-anchor="start" x="850" y="-405" font-family="Helvetica,sans-Serif" font-size="10.00">::root_schema::insert</text>
<text text-anchor="middle" x="909.5" y="-394" font-family="Helvetica,sans-Serif" font-size="10.00">_unknown_keyword</text>
</a>
</g>
</g>
<!-- Node3&#45;&gt;Node5 -->
<g id="edge5_Node000003_Node000005" class="edge">
<title>Node3&#45;&gt;Node5</title>
<g id="a_edge5_Node000003_Node000005"><a xlink:title=" ">
<path fill="none" stroke="#63b8ff" d="M1015.29,-363.19C993.51,-370.79 970.59,-379.32 951.76,-386.92"/>
<polygon fill="#63b8ff" stroke="#63b8ff" points="1016.56,-366.46 1024.87,-359.89 1014.28,-359.84 1016.56,-366.46"/>
</a>
</g>
</g>
<!-- Node6 -->
<g id="Node000006" class="node">
<title>Node6</title>
<g id="a_Node000006"><a xlink:href="classanonymous__namespace_02json-validator_8cpp_03_1_1logical__combination.html#af6e410a20a726f16733df11cfa9f8ff5" target="_top" xlink:title=" ">
<polygon fill="white" stroke="#666666" points="977,-368.5 842,-368.5 842,-316.5 977,-316.5 977,-368.5"/>
<text text-anchor="start" x="850" y="-356.5" font-family="Helvetica,sans-Serif" font-size="10.00">anonymous_namespace</text>
<text text-anchor="start" x="850" y="-345.5" font-family="Helvetica,sans-Serif" font-size="10.00">{json&#45;validator::cpp}</text>
<text text-anchor="start" x="850" y="-334.5" font-family="Helvetica,sans-Serif" font-size="10.00">::logical_combination</text>
<text text-anchor="middle" x="909.5" y="-323.5" font-family="Helvetica,sans-Serif" font-size="10.00">::logical_combination</text>
</a>
</g>
</g>
<!-- Node3&#45;&gt;Node6 -->
<g id="edge8_Node000003_Node000006" class="edge">
<title>Node3&#45;&gt;Node6</title>
<g id="a_edge8_Node000003_Node000006"><a xlink:title=" ">
<path fill="none" stroke="#63b8ff" d="M1014.56,-342.5C1002.17,-342.5 989.42,-342.5 977.29,-342.5"/>
<polygon fill="#63b8ff" stroke="#63b8ff" points="1014.87,-346 1024.87,-342.5 1014.87,-339 1014.87,-346"/>
</a>
</g>
</g>
<!-- Node7 -->
<g id="Node000007" class="node">
<title>Node7</title>
<g id="a_Node000007"><a xlink:href="classanonymous__namespace_02json-validator_8cpp_03_1_1logical__not.html#a5ac57fd40f4d28a3def56b84a8e8cd4f" target="_top" xlink:title=" ">
<polygon fill="white" stroke="#666666" points="977,-298 842,-298 842,-257 977,-257 977,-298"/>
<text text-anchor="start" x="850" y="-286" font-family="Helvetica,sans-Serif" font-size="10.00">anonymous_namespace</text>
<text text-anchor="start" x="850" y="-275" font-family="Helvetica,sans-Serif" font-size="10.00">{json&#45;validator::cpp}</text>
<text text-anchor="middle" x="909.5" y="-264" font-family="Helvetica,sans-Serif" font-size="10.00">::logical_not::logical_not</text>
</a>
</g>
</g>
<!-- Node3&#45;&gt;Node7 -->
<g id="edge9_Node000003_Node000007" class="edge">
<title>Node3&#45;&gt;Node7</title>
<g id="a_edge9_Node000003_Node000007"><a xlink:title=" ">
<path fill="none" stroke="#63b8ff" d="M1024.61,-318.48C1005.92,-311.77 985.78,-304.54 967.71,-298.04"/>
<polygon fill="#63b8ff" stroke="#63b8ff" points="1023.64,-321.85 1034.23,-321.93 1026,-315.26 1023.64,-321.85"/>
</a>
</g>
</g>
<!-- Node8 -->
<g id="Node000008" class="node">
<title>Node8</title>
<g id="a_Node000008"><a xlink:href="classanonymous__namespace_02json-validator_8cpp_03_1_1object.html#a51137ac019fc30c7ab57f839cd9a3638" target="_top" xlink:title=" ">
<polygon fill="white" stroke="#666666" points="977,-239 842,-239 842,-198 977,-198 977,-239"/>
<text text-anchor="start" x="850" y="-227" font-family="Helvetica,sans-Serif" font-size="10.00">anonymous_namespace</text>
<text text-anchor="start" x="850" y="-216" font-family="Helvetica,sans-Serif" font-size="10.00">{json&#45;validator::cpp}</text>
<text text-anchor="middle" x="909.5" y="-205" font-family="Helvetica,sans-Serif" font-size="10.00">::object::object</text>
</a>
</g>
</g>
<!-- Node3&#45;&gt;Node8 -->
<g id="edge11_Node000003_Node000008" class="edge">
<title>Node3&#45;&gt;Node8</title>
<g id="a_edge11_Node000003_Node000008"><a xlink:title=" ">
<path fill="none" stroke="#63b8ff" d="M1057.65,-315.39C1046.96,-306.46 1035.26,-296.3 1025,-286.5 1007.94,-270.2 1008.61,-260.62 989,-247.5 984.41,-244.43 979.46,-241.63 974.34,-239.09"/>
<polygon fill="#63b8ff" stroke="#63b8ff" points="1055.65,-318.28 1065.59,-321.95 1060.11,-312.88 1055.65,-318.28"/>
</a>
</g>
</g>
<!-- Node9 -->
<g id="Node000009" class="node">
<title>Node9</title>
<g id="a_Node000009"><a xlink:href="classnlohmann_1_1json__schema_1_1root__schema.html#aa92bf9509db49548416a244fb4528e3c" target="_top" xlink:title=" ">
<polygon fill="white" stroke="#666666" points="977,-180 842,-180 842,-139 977,-139 977,-180"/>
<text text-anchor="start" x="850" y="-168" font-family="Helvetica,sans-Serif" font-size="10.00">nlohmann::json_schema</text>
<text text-anchor="start" x="850" y="-157" font-family="Helvetica,sans-Serif" font-size="10.00">::root_schema::set_root</text>
<text text-anchor="middle" x="909.5" y="-146" font-family="Helvetica,sans-Serif" font-size="10.00">_schema</text>
</a>
</g>
</g>
<!-- Node3&#45;&gt;Node9 -->
<g id="edge12_Node000003_Node000009" class="edge">
<title>Node3&#45;&gt;Node9</title>
<g id="a_edge12_Node000003_Node000009"><a xlink:title=" ">
<path fill="none" stroke="#63b8ff" d="M1052.61,-315.51C1042.59,-307.12 1032.52,-297.23 1025,-286.5 998.36,-248.51 1021.78,-221.34 989,-188.5 985.51,-185 981.56,-181.92 977.34,-179.21"/>
<polygon fill="#63b8ff" stroke="#63b8ff" points="1050.59,-318.38 1060.58,-321.9 1054.97,-312.91 1050.59,-318.38"/>
</a>
</g>
</g>
<!-- Node27 -->
<g id="Node000027" class="node">
<title>Node27</title>
<g id="a_Node000027"><a xlink:href="classanonymous__namespace_02json-validator_8cpp_03_1_1type__schema.html#a72ff3c13768d129592b9d088316d0d99" target="_top" xlink:title=" ">
<polygon fill="white" stroke="#666666" points="989,-564 830,-564 830,-523 989,-523 989,-564"/>
<text text-anchor="start" x="838" y="-552" font-family="Helvetica,sans-Serif" font-size="10.00">anonymous_namespace</text>
<text text-anchor="start" x="838" y="-541" font-family="Helvetica,sans-Serif" font-size="10.00">{json&#45;validator::cpp}</text>
<text text-anchor="middle" x="909.5" y="-530" font-family="Helvetica,sans-Serif" font-size="10.00">::type_schema::type_schema</text>
</a>
</g>
</g>
<!-- Node3&#45;&gt;Node27 -->
<g id="edge30_Node000003_Node000027" class="edge">
<title>Node3&#45;&gt;Node27</title>
<g id="a_edge30_Node000003_Node000027"><a xlink:title=" ">
<path fill="none" stroke="#63b8ff" d="M1080.87,-372.56C1065.97,-410.65 1035.37,-475.94 989,-514.5 985.31,-517.57 981.27,-520.32 977.03,-522.8"/>
<polygon fill="#63b8ff" stroke="#63b8ff" points="1084.21,-373.64 1084.49,-363.05 1077.67,-371.15 1084.21,-373.64"/>
</a>
</g>
</g>
<!-- Node5&#45;&gt;Node3 -->
<g id="edge7_Node000005_Node000003" class="edge">
<title>Node5&#45;&gt;Node3</title>
<g id="a_edge7_Node000005_Node000003"><a xlink:title=" ">
<path fill="none" stroke="#63b8ff" d="M986.91,-386.74C1008.71,-379.14 1031.62,-370.6 1050.43,-363.01"/>
<polygon fill="#63b8ff" stroke="#63b8ff" points="985.63,-383.47 977.32,-390.04 987.92,-390.09 985.63,-383.47"/>
</a>
</g>
</g>
<!-- Node5&#45;&gt;Node5 -->
<g id="edge6_Node000005_Node000005" class="edge">
<title>Node5&#45;&gt;Node5</title>
<g id="a_edge6_Node000005_Node000005"><a xlink:title=" ">
<path fill="none" stroke="#63b8ff" d="M940.81,-437.96C936.16,-442.74 925.72,-446 909.5,-446 883.55,-446 872.4,-437.65 876.05,-428.1"/>
<polygon fill="#63b8ff" stroke="#63b8ff" points="944.25,-438.61 942.95,-428.1 937.41,-437.13 944.25,-438.61"/>
</a>
</g>
</g>
<!-- Node10 -->
<g id="Node000010" class="node">
<title>Node10</title>
<g id="a_Node000010"><a xlink:href="classnlohmann_1_1json__schema_1_1json__validator.html#a13e1d3029c8953bb9c7d1879382edb03" target="_top" xlink:title=" ">
<polygon fill="white" stroke="#666666" points="793,-180 658,-180 658,-139 793,-139 793,-180"/>
<text text-anchor="start" x="666" y="-168" font-family="Helvetica,sans-Serif" font-size="10.00">nlohmann::json_schema</text>
<text text-anchor="start" x="666" y="-157" font-family="Helvetica,sans-Serif" font-size="10.00">::json_validator::set</text>
<text text-anchor="middle" x="725.5" y="-146" font-family="Helvetica,sans-Serif" font-size="10.00">_root_schema</text>
</a>
</g>
</g>
<!-- Node9&#45;&gt;Node10 -->
<g id="edge13_Node000009_Node000010" class="edge">
<title>Node9&#45;&gt;Node10</title>
<g id="a_edge13_Node000009_Node000010"><a xlink:title=" ">
<path fill="none" stroke="#63b8ff" d="M831.63,-159.5C818.86,-159.5 805.72,-159.5 793.23,-159.5"/>
<polygon fill="#63b8ff" stroke="#63b8ff" points="831.76,-163 841.76,-159.5 831.76,-156 831.76,-163"/>
</a>
</g>
</g>
<!-- Node25 -->
<g id="Node000025" class="node">
<title>Node25</title>
<g id="a_Node000025"><a xlink:href="classnlohmann_1_1json__schema_1_1json__validator.html#a48f742fda328ff2dc2de223e9452c4d1" target="_top" xlink:title=" ">
<polygon fill="white" stroke="#666666" points="793,-269 658,-269 658,-228 793,-228 793,-269"/>
<text text-anchor="start" x="666" y="-257" font-family="Helvetica,sans-Serif" font-size="10.00">nlohmann::json_schema</text>
<text text-anchor="start" x="666" y="-246" font-family="Helvetica,sans-Serif" font-size="10.00">::json_validator::set</text>
<text text-anchor="middle" x="725.5" y="-235" font-family="Helvetica,sans-Serif" font-size="10.00">_root_schema</text>
</a>
</g>
</g>
<!-- Node9&#45;&gt;Node25 -->
<g id="edge28_Node000009_Node000025" class="edge">
<title>Node9&#45;&gt;Node25</title>
<g id="a_edge28_Node000009_Node000025"><a xlink:title=" ">
<path fill="none" stroke="#63b8ff" d="M839.81,-184.08C836.47,-185.53 833.19,-187 830,-188.5 805.38,-200.08 778.85,-215.52 758.82,-227.84"/>
<polygon fill="#63b8ff" stroke="#63b8ff" points="841.44,-187.2 849.32,-180.12 838.75,-180.74 841.44,-187.2"/>
</a>
</g>
</g>
<!-- Node11 -->
<g id="Node000011" class="node">
<title>Node11</title>
<g id="a_Node000011"><a xlink:href="classnlohmann_1_1json__schema_1_1json__validator.html#ad8f46dfed69afe463732ae335879dabb" target="_top" xlink:title=" ">
<polygon fill="white" stroke="#666666" points="620,-240 485,-240 485,-199 620,-199 620,-240"/>
<text text-anchor="start" x="493" y="-228" font-family="Helvetica,sans-Serif" font-size="10.00">nlohmann::json_schema</text>
<text text-anchor="start" x="493" y="-217" font-family="Helvetica,sans-Serif" font-size="10.00">::json_validator::json</text>
<text text-anchor="middle" x="552.5" y="-206" font-family="Helvetica,sans-Serif" font-size="10.00">_validator</text>
</a>
</g>
</g>
<!-- Node10&#45;&gt;Node11 -->
<g id="edge14_Node000010_Node000011" class="edge">
<title>Node10&#45;&gt;Node11</title>
<g id="a_edge14_Node000010_Node000011"><a xlink:title=" ">
<path fill="none" stroke="#63b8ff" d="M656.19,-183.47C641.62,-188.58 626.34,-193.94 612.17,-198.92"/>
<polygon fill="#63b8ff" stroke="#63b8ff" points="657.37,-186.76 665.65,-180.15 655.06,-180.16 657.37,-186.76"/>
</a>
</g>
</g>
<!-- Node22 -->
<g id="Node000022" class="node">
<title>Node22</title>
<g id="a_Node000022"><a xlink:href="format_8cpp.html#ae66f6b31b5ad750f1fe042a706a4e3d4" target="_top" xlink:title=" ">
<polygon fill="white" stroke="#666666" points="388,-78 347,-78 347,-59 388,-59 388,-78"/>
<text text-anchor="middle" x="367.5" y="-66" font-family="Helvetica,sans-Serif" font-size="10.00">main</text>
</a>
</g>
</g>
<!-- Node10&#45;&gt;Node22 -->
<g id="edge25_Node000010_Node000022" class="edge">
<title>Node10&#45;&gt;Node22</title>
<g id="a_edge25_Node000010_Node000022"><a xlink:title=" ">
<path fill="none" stroke="#63b8ff" d="M647.68,-174.81C597.56,-180.64 532.65,-179.96 484,-150.5 456.42,-133.79 473.81,-106.84 448,-87.5 430.63,-74.48 405.62,-70.24 388.31,-68.93"/>
<polygon fill="#63b8ff" stroke="#63b8ff" points="648.34,-178.25 657.82,-173.52 647.46,-171.31 648.34,-178.25"/>
</a>
</g>
</g>
<!-- Node23 -->
<g id="Node000023" class="node">
<title>Node23</title>
<g id="a_Node000023"><a xlink:href="json-schema-validate_8cpp.html#a0ddf1224851353fc92bfbff6f499fa97" target="_top" xlink:title=" ">
<polygon fill="white" stroke="#666666" points="573,-142 532,-142 532,-123 573,-123 573,-142"/>
<text text-anchor="middle" x="552.5" y="-130" font-family="Helvetica,sans-Serif" font-size="10.00">main</text>
</a>
</g>
</g>
<!-- Node10&#45;&gt;Node23 -->
<g id="edge26_Node000010_Node000023" class="edge">
<title>Node10&#45;&gt;Node23</title>
<g id="a_edge26_Node000010_Node000023"><a xlink:title=" ">
<path fill="none" stroke="#63b8ff" d="M647.83,-147.39C620.29,-143.05 591.52,-138.5 573.1,-135.59"/>
<polygon fill="#63b8ff" stroke="#63b8ff" points="647.47,-150.88 657.9,-148.98 648.57,-143.97 647.47,-150.88"/>
</a>
</g>
</g>
<!-- Node24 -->
<g id="Node000024" class="node">
<title>Node24</title>
<g id="a_Node000024"><a xlink:href="errors_8cpp.html#a840291bc02cba5474a4cb46a9b9566fe" target="_top" xlink:title=" ">
<polygon fill="white" stroke="#666666" points="573,-105 532,-105 532,-86 573,-86 573,-105"/>
<text text-anchor="middle" x="552.5" y="-93" font-family="Helvetica,sans-Serif" font-size="10.00">main</text>
</a>
</g>
</g>
<!-- Node10&#45;&gt;Node24 -->
<g id="edge27_Node000010_Node000024" class="edge">
<title>Node10&#45;&gt;Node24</title>
<g id="a_edge27_Node000010_Node000024"><a xlink:title=" ">
<path fill="none" stroke="#63b8ff" d="M672.91,-134.66C656.53,-127.29 638.2,-119.57 621,-113.5 605.22,-107.93 586.84,-103.13 573.24,-99.9"/>
<polygon fill="#63b8ff" stroke="#63b8ff" points="671.76,-137.98 682.31,-138.94 674.66,-131.61 671.76,-137.98"/>
</a>
</g>
</g>
<!-- Node12 -->
<g id="Node000012" class="node">
<title>Node12</title>
<g id="a_Node000012"><a xlink:href="classmqtt_1_1bridge_1_1lib_1_1BridgeStore.html#ab8ade196caaa4d233f8dc1625619ed9a" target="_top" xlink:title=" ">
<polygon fill="white" stroke="#666666" points="447.5,-174.5 287.5,-174.5 287.5,-144.5 447.5,-144.5 447.5,-174.5"/>
<text text-anchor="start" x="295.5" y="-162.5" font-family="Helvetica,sans-Serif" font-size="10.00">mqtt::bridge::lib::</text>
<text text-anchor="middle" x="367.5" y="-151.5" font-family="Helvetica,sans-Serif" font-size="10.00">BridgeStore::loadAndValidate</text>
</a>
</g>
</g>
<!-- Node11&#45;&gt;Node12 -->
<g id="edge15_Node000011_Node000012" class="edge">
<title>Node11&#45;&gt;Node12</title>
<g id="a_edge15_Node000011_Node000012"><a xlink:title=" ">
<path fill="none" stroke="#63b8ff" d="M479.2,-195.8C457.36,-188.64 434,-180.97 414.39,-174.54"/>
<polygon fill="#63b8ff" stroke="#63b8ff" points="478.19,-199.15 488.78,-198.94 480.37,-192.49 478.19,-199.15"/>
</a>
</g>
</g>
<!-- Node14 -->
<g id="Node000014" class="node">
<title>Node14</title>
<g id="a_Node000014"><a xlink:href="classmqtt_1_1lib_1_1JsonMappingReader.html#a77231994bd3ef854feb2db79dd71746b" target="_top" xlink:title=" ">
<polygon fill="white" stroke="#666666" points="448,-238.5 287,-238.5 287,-208.5 448,-208.5 448,-238.5"/>
<text text-anchor="start" x="295" y="-226.5" font-family="Helvetica,sans-Serif" font-size="10.00">mqtt::lib::JsonMappingReader</text>
<text text-anchor="middle" x="367.5" y="-215.5" font-family="Helvetica,sans-Serif" font-size="10.00">::readMappingFromFile</text>
</a>
</g>
</g>
<!-- Node11&#45;&gt;Node14 -->
<g id="edge17_Node000011_Node000014" class="edge">
<title>Node11&#45;&gt;Node14</title>
<g id="a_edge17_Node000011_Node000014"><a xlink:title=" ">
<path fill="none" stroke="#63b8ff" d="M474.7,-221.18C465.91,-221.37 456.93,-221.57 448.11,-221.76"/>
<polygon fill="#63b8ff" stroke="#63b8ff" points="474.99,-224.67 484.92,-220.96 474.84,-217.67 474.99,-224.67"/>
</a>
</g>
</g>
<!-- Node18 -->
<g id="Node000018" class="node">
<title>Node18</title>
<g id="a_Node000018"><a xlink:href="classnlohmann_1_1json__patch.html#ac7aea9496e07beb821fb9e5423fb76f5" target="_top" xlink:title=" ">
<polygon fill="white" stroke="#666666" points="429.5,-126.5 305.5,-126.5 305.5,-96.5 429.5,-96.5 429.5,-126.5"/>
<text text-anchor="start" x="313.5" y="-114.5" font-family="Helvetica,sans-Serif" font-size="10.00">nlohmann::json_patch</text>
<text text-anchor="middle" x="367.5" y="-103.5" font-family="Helvetica,sans-Serif" font-size="10.00">::validateJsonPatch</text>
</a>
</g>
</g>
<!-- Node11&#45;&gt;Node18 -->
<g id="edge21_Node000011_Node000018" class="edge">
<title>Node11&#45;&gt;Node18</title>
<g id="a_edge21_Node000011_Node000018"><a xlink:title=" ">
<path fill="none" stroke="#63b8ff" d="M495.91,-193.41C491.72,-190.63 487.69,-187.66 484,-184.5 463.47,-166.93 470.07,-151.1 448,-135.5 442.47,-131.59 436.28,-128.31 429.88,-125.55"/>
<polygon fill="#63b8ff" stroke="#63b8ff" points="494.33,-196.55 504.67,-198.83 498.01,-190.6 494.33,-196.55"/>
</a>
</g>
</g>
<!-- Node13 -->
<g id="Node000013" class="node">
<title>Node13</title>
<g id="a_Node000013"><a xlink:href="mqttbridge_8cpp.html#a0ddf1224851353fc92bfbff6f499fa97" target="_top" xlink:title=" ">
<polygon fill="white" stroke="#666666" points="184.5,-169 143.5,-169 143.5,-150 184.5,-150 184.5,-169"/>
<text text-anchor="middle" x="164" y="-157" font-family="Helvetica,sans-Serif" font-size="10.00">main</text>
</a>
</g>
</g>
<!-- Node12&#45;&gt;Node13 -->
<g id="edge16_Node000012_Node000013" class="edge">
<title>Node12&#45;&gt;Node13</title>
<g id="a_edge16_Node000012_Node000013"><a xlink:title=" ">
<path fill="none" stroke="#63b8ff" d="M277.31,-159.5C242.87,-159.5 206.61,-159.5 184.9,-159.5"/>
<polygon fill="#63b8ff" stroke="#63b8ff" points="277.44,-163 287.44,-159.5 277.44,-156 277.44,-163"/>
</a>
</g>
</g>
<!-- Node15 -->
<g id="Node000015" class="node">
<title>Node15</title>
<g id="a_Node000015"><a xlink:href="classmqtt_1_1mqttintegrator_1_1SocketContextFactory.html#a0667981d3feaa8d66a6ba2ecb81dc900" target="_top" xlink:title=" ">
<polygon fill="white" stroke="#666666" points="228.5,-336 99.5,-336 99.5,-295 228.5,-295 228.5,-336"/>
<text text-anchor="start" x="107.5" y="-324" font-family="Helvetica,sans-Serif" font-size="10.00">mqtt::mqttintegrator</text>
<text text-anchor="start" x="107.5" y="-313" font-family="Helvetica,sans-Serif" font-size="10.00">::SocketContextFactory</text>
<text text-anchor="middle" x="164" y="-302" font-family="Helvetica,sans-Serif" font-size="10.00">::create</text>
</a>
</g>
</g>
<!-- Node14&#45;&gt;Node15 -->
<g id="edge18_Node000014_Node000015" class="edge">
<title>Node14&#45;&gt;Node15</title>
<g id="a_edge18_Node000014_Node000015"><a xlink:title=" ">
<path fill="none" stroke="#63b8ff" d="M332.07,-243.82C309.47,-256.7 279.02,-273.18 251,-285.5 243.62,-288.75 235.76,-291.89 227.92,-294.84"/>
<polygon fill="#63b8ff" stroke="#63b8ff" points="334.01,-246.75 340.93,-238.73 330.52,-240.68 334.01,-246.75"/>
</a>
</g>
</g>
<!-- Node16 -->
<g id="Node000016" class="node">
<title>Node16</title>
<g id="a_Node000016"><a xlink:href="classmqtt_1_1mqttbroker_1_1SocketContextFactory.html#a84a300c6ea4e8fc1e0370f5460a64e9a" target="_top" xlink:title=" ">
<polygon fill="white" stroke="#666666" points="233,-276.5 95,-276.5 95,-246.5 233,-246.5 233,-276.5"/>
<text text-anchor="start" x="103" y="-264.5" font-family="Helvetica,sans-Serif" font-size="10.00">mqtt::mqttbroker::Socket</text>
<text text-anchor="middle" x="164" y="-253.5" font-family="Helvetica,sans-Serif" font-size="10.00">ContextFactory::create</text>
</a>
</g>
</g>
<!-- Node14&#45;&gt;Node16 -->
<g id="edge19_Node000014_Node000016" class="edge">
<title>Node14&#45;&gt;Node16</title>
<g id="a_edge19_Node000014_Node000016"><a xlink:title=" ">
<path fill="none" stroke="#63b8ff" d="M276.82,-240.41C262.22,-243.17 247.3,-245.98 233.32,-248.62"/>
<polygon fill="#63b8ff" stroke="#63b8ff" points="277.68,-243.81 286.86,-238.52 276.39,-236.93 277.68,-243.81"/>
</a>
</g>
</g>
<!-- Node17 -->
<g id="Node000017" class="node">
<title>Node17</title>
<g id="a_Node000017"><a xlink:href="classmqtt_1_1mqttintegrator_1_1websocket_1_1SubProtocolFactory.html#ae88373a69cdee4d08cf58c4c618041d6" target="_top" xlink:title=" ">
<polygon fill="white" stroke="#666666" points="251,-228 77,-228 77,-187 251,-187 251,-228"/>
<text text-anchor="start" x="85" y="-216" font-family="Helvetica,sans-Serif" font-size="10.00">mqtt::mqttintegrator</text>
<text text-anchor="start" x="85" y="-205" font-family="Helvetica,sans-Serif" font-size="10.00">::websocket::SubProtocolFactory</text>
<text text-anchor="middle" x="164" y="-194" font-family="Helvetica,sans-Serif" font-size="10.00">::create</text>
</a>
</g>
</g>
<!-- Node14&#45;&gt;Node17 -->
<g id="edge20_Node000014_Node000017" class="edge">
<title>Node14&#45;&gt;Node17</title>
<g id="a_edge20_Node000014_Node000017"><a xlink:title=" ">
<path fill="none" stroke="#63b8ff" d="M276.85,-216.38C268.27,-215.7 259.57,-215.01 251.02,-214.33"/>
<polygon fill="#63b8ff" stroke="#63b8ff" points="276.62,-219.87 286.86,-217.18 277.17,-212.9 276.62,-219.87"/>
</a>
</g>
</g>
<!-- Node19 -->
<g id="Node000019" class="node">
<title>Node19</title>
<g id="a_Node000019"><a xlink:href="classnlohmann_1_1json__patch.html#ae61d410c3afe7cf9b7a9589819e8f94a" target="_top" xlink:title=" ">
<polygon fill="white" stroke="#666666" points="226,-81.5 102,-81.5 102,-51.5 226,-51.5 226,-81.5"/>
<text text-anchor="start" x="110" y="-69.5" font-family="Helvetica,sans-Serif" font-size="10.00">nlohmann::json_patch</text>
<text text-anchor="middle" x="164" y="-58.5" font-family="Helvetica,sans-Serif" font-size="10.00">::json_patch</text>
</a>
</g>
</g>
<!-- Node18&#45;&gt;Node19 -->
<g id="edge22_Node000018_Node000019" class="edge">
<title>Node18&#45;&gt;Node19</title>
<g id="a_edge22_Node000018_Node000019"><a xlink:title=" ">
<path fill="none" stroke="#63b8ff" d="M295.6,-95.67C272.93,-90.6 248.05,-85.05 226.14,-80.15"/>
<polygon fill="#63b8ff" stroke="#63b8ff" points="294.97,-99.11 305.5,-97.88 296.5,-92.28 294.97,-99.11"/>
</a>
</g>
</g>
<!-- Node20 -->
<g id="Node000020" class="node">
<title>Node20</title>
<g id="a_Node000020"><a xlink:href="classnlohmann_1_1json__patch.html#a9ed4f8e610b70b973f9fd59696d5c10b" target="_top" xlink:title=" ">
<polygon fill="white" stroke="#666666" points="226,-129.5 102,-129.5 102,-99.5 226,-99.5 226,-129.5"/>
<text text-anchor="start" x="110" y="-117.5" font-family="Helvetica,sans-Serif" font-size="10.00">nlohmann::json_patch</text>
<text text-anchor="middle" x="164" y="-106.5" font-family="Helvetica,sans-Serif" font-size="10.00">::json_patch</text>
</a>
</g>
</g>
<!-- Node18&#45;&gt;Node20 -->
<g id="edge23_Node000018_Node000020" class="edge">
<title>Node18&#45;&gt;Node20</title>
<g id="a_edge23_Node000018_Node000020"><a xlink:title=" ">
<path fill="none" stroke="#63b8ff" d="M295.29,-112.56C272.71,-112.9 247.95,-113.26 226.14,-113.59"/>
<polygon fill="#63b8ff" stroke="#63b8ff" points="295.55,-116.06 305.5,-112.41 295.45,-109.06 295.55,-116.06"/>
</a>
</g>
</g>
<!-- Node21 -->
<g id="Node000021" class="node">
<title>Node21</title>
<g id="a_Node000021"><a xlink:href="test_2json-patch_8cpp.html#a840291bc02cba5474a4cb46a9b9566fe" target="_top" xlink:title=" ">
<polygon fill="white" stroke="#666666" points="41,-124 0,-124 0,-105 41,-105 41,-124"/>
<text text-anchor="middle" x="20.5" y="-112" font-family="Helvetica,sans-Serif" font-size="10.00">main</text>
</a>
</g>
</g>
<!-- Node20&#45;&gt;Node21 -->
<g id="edge24_Node000020_Node000021" class="edge">
<title>Node20&#45;&gt;Node21</title>
<g id="a_edge24_Node000020_Node000021"><a xlink:title=" ">
<path fill="none" stroke="#63b8ff" d="M91.74,-114.5C73.1,-114.5 54.51,-114.5 41.14,-114.5"/>
<polygon fill="#63b8ff" stroke="#63b8ff" points="91.76,-118 101.76,-114.5 91.76,-111 91.76,-118"/>
</a>
</g>
</g>
<!-- Node26 -->
<g id="Node000026" class="node">
<title>Node26</title>
<g id="a_Node000026"><a xlink:href="classnlohmann_1_1json__schema_1_1json__validator.html#a9b658ef82ef777074679e2a60d539821" target="_top" xlink:title=" ">
<polygon fill="white" stroke="#666666" points="620,-299 485,-299 485,-258 620,-258 620,-299"/>
<text text-anchor="start" x="493" y="-287" font-family="Helvetica,sans-Serif" font-size="10.00">nlohmann::json_schema</text>
<text text-anchor="start" x="493" y="-276" font-family="Helvetica,sans-Serif" font-size="10.00">::json_validator::json</text>
<text text-anchor="middle" x="552.5" y="-265" font-family="Helvetica,sans-Serif" font-size="10.00">_validator</text>
</a>
</g>
</g>
<!-- Node25&#45;&gt;Node26 -->
<g id="edge29_Node000025_Node000026" class="edge">
<title>Node25&#45;&gt;Node26</title>
<g id="a_edge29_Node000025_Node000026"><a xlink:title=" ">
<path fill="none" stroke="#63b8ff" d="M647.94,-261.93C638.69,-263.56 629.29,-265.2 620.2,-266.8"/>
<polygon fill="#63b8ff" stroke="#63b8ff" points="648.65,-265.36 657.9,-260.18 647.44,-258.47 648.65,-265.36"/>
</a>
</g>
</g>
<!-- Node28&#45;&gt;Node3 -->
<g id="edge32_Node000028_Node000003" class="edge">
<title>Node28&#45;&gt;Node3</title>
<g id="a_edge32_Node000028_Node000003"><a xlink:title=" ">
<path fill="none" stroke="#63b8ff" d="M1185.73,-356.69C1177.17,-355.37 1168.5,-354.04 1160.08,-352.74"/>
<polygon fill="#63b8ff" stroke="#63b8ff" points="1185.29,-360.16 1195.71,-358.22 1186.36,-353.24 1185.29,-360.16"/>
</a>
</g>
</g>
<!-- Node30 -->
<g id="Node000030" class="node">
<title>Node30</title>
<g id="a_Node000030"><a xlink:href="classnlohmann_1_1json__schema_1_1json__validator.html#ae330a21f43f257fec1d8109f51827706" target="_top" xlink:title=" ">
<polygon fill="white" stroke="#666666" points="794,-110.5 657,-110.5 657,-80.5 794,-80.5 794,-110.5"/>
<text text-anchor="start" x="665" y="-98.5" font-family="Helvetica,sans-Serif" font-size="10.00">nlohmann::json_schema</text>
<text text-anchor="middle" x="725.5" y="-87.5" font-family="Helvetica,sans-Serif" font-size="10.00">::json_validator::validate</text>
</a>
</g>
</g>
<!-- Node29&#45;&gt;Node30 -->
<g id="edge34_Node000029_Node000030" class="edge">
<title>Node29&#45;&gt;Node30</title>
<g id="a_edge34_Node000029_Node000030"><a xlink:title=" ">
<path fill="none" stroke="#63b8ff" d="M1080.27,-238.16C1064.58,-207.22 1033.02,-154.79 989,-129.5 929.43,-95.27 849.91,-89.43 794.06,-90.49"/>
<polygon fill="#63b8ff" stroke="#63b8ff" points="1077.25,-239.96 1084.8,-247.39 1083.53,-236.87 1077.25,-239.96"/>
</a>
</g>
</g>
<!-- Node30&#45;&gt;Node23 -->
<g id="edge36_Node000030_Node000023" class="edge">
<title>Node30&#45;&gt;Node23</title>
<g id="a_edge36_Node000030_Node000023"><a xlink:title=" ">
<path fill="none" stroke="#63b8ff" d="M646.96,-112.28C619.76,-118.16 591.46,-124.29 573.24,-128.23"/>
<polygon fill="#63b8ff" stroke="#63b8ff" points="647.88,-115.66 656.92,-110.12 646.4,-108.82 647.88,-115.66"/>
</a>
</g>
</g>
<!-- Node30&#45;&gt;Node24 -->
<g id="edge37_Node000030_Node000024" class="edge">
<title>Node30&#45;&gt;Node24</title>
<g id="a_edge37_Node000030_Node000024"><a xlink:title=" ">
<path fill="none" stroke="#63b8ff" d="M646.6,-95.5C619.51,-95.5 591.38,-95.5 573.24,-95.5"/>
<polygon fill="#63b8ff" stroke="#63b8ff" points="646.92,-99 656.92,-95.5 646.92,-92 646.92,-99"/>
</a>
</g>
</g>
<!-- Node31 -->
<g id="Node000031" class="node">
<title>Node31</title>
<g id="a_Node000031"><a xlink:href="readme_8cpp.html#ae66f6b31b5ad750f1fe042a706a4e3d4" target="_top" xlink:title=" ">
<polygon fill="white" stroke="#666666" points="573,-19 532,-19 532,0 573,0 573,-19"/>
<text text-anchor="middle" x="552.5" y="-7" font-family="Helvetica,sans-Serif" font-size="10.00">main</text>
</a>
</g>
</g>
<!-- Node30&#45;&gt;Node31 -->
<g id="edge35_Node000030_Node000031" class="edge">
<title>Node30&#45;&gt;Node31</title>
<g id="a_edge35_Node000030_Node000031"><a xlink:title=" ">
<path fill="none" stroke="#63b8ff" d="M696.83,-74.3C676.7,-59.72 648.31,-40.84 621,-28.5 605.58,-21.53 587,-16.53 573.25,-13.41"/>
<polygon fill="#63b8ff" stroke="#63b8ff" points="694.79,-77.14 704.92,-80.25 698.94,-71.51 694.79,-77.14"/>
</a>
</g>
</g>
<!-- Node32 -->
<g id="Node000032" class="node">
<title>Node32</title>
<g id="a_Node000032"><a xlink:href="classnlohmann_1_1json__schema_1_1json__validator.html#affff379ae30b7ab48c81d5b65e34f613" target="_top" xlink:title=" ">
<polygon fill="white" stroke="#666666" points="621,-67.5 484,-67.5 484,-37.5 621,-37.5 621,-67.5"/>
<text text-anchor="start" x="492" y="-55.5" font-family="Helvetica,sans-Serif" font-size="10.00">nlohmann::json_schema</text>
<text text-anchor="middle" x="552.5" y="-44.5" font-family="Helvetica,sans-Serif" font-size="10.00">::json_validator::validate</text>
</a>
</g>
</g>
<!-- Node30&#45;&gt;Node32 -->
<g id="edge38_Node000030_Node000032" class="edge">
<title>Node30&#45;&gt;Node32</title>
<g id="a_edge38_Node000030_Node000032"><a xlink:title=" ">
<path fill="none" stroke="#63b8ff" d="M654.79,-77.97C641.02,-74.51 626.68,-70.9 613.27,-67.53"/>
<polygon fill="#63b8ff" stroke="#63b8ff" points="654.14,-81.42 664.69,-80.46 655.85,-74.63 654.14,-81.42"/>
</a>
</g>
</g>
<!-- Node32&#45;&gt;Node12 -->
<g id="edge39_Node000032_Node000012" class="edge">
<title>Node32&#45;&gt;Node12</title>
<g id="a_edge39_Node000032_Node000012"><a xlink:title=" ">
<path fill="none" stroke="#63b8ff" d="M488.99,-72.82C487.26,-73.98 485.59,-75.21 484,-76.5 460.16,-95.87 472.3,-116.71 448,-135.5 443.55,-138.94 438.61,-141.89 433.44,-144.41"/>
<polygon fill="#63b8ff" stroke="#63b8ff" points="491.17,-75.59 498.04,-67.52 487.64,-69.55 491.17,-75.59"/>
</a>
</g>
</g>
<!-- Node32&#45;&gt;Node18 -->
<g id="edge42_Node000032_Node000018" class="edge">
<title>Node32&#45;&gt;Node18</title>
<g id="a_edge42_Node000032_Node000018"><a xlink:title=" ">
<path fill="none" stroke="#63b8ff" d="M496.64,-70.67C480.94,-75.82 463.81,-81.42 448,-86.5 437.94,-89.73 427.16,-93.15 416.88,-96.39"/>
<polygon fill="#63b8ff" stroke="#63b8ff" points="497.79,-73.97 506.2,-67.52 495.6,-67.32 497.79,-73.97"/>
</a>
</g>
</g>
<!-- Node32&#45;&gt;Node22 -->
<g id="edge40_Node000032_Node000022" class="edge">
<title>Node32&#45;&gt;Node22</title>
<g id="a_edge40_Node000032_Node000022"><a xlink:title=" ">
<path fill="none" stroke="#63b8ff" d="M473.8,-59.29C442.46,-62.03 408.9,-64.97 388.31,-66.77"/>
<polygon fill="#63b8ff" stroke="#63b8ff" points="474.22,-62.77 483.88,-58.41 473.61,-55.8 474.22,-62.77"/>
</a>
</g>
</g>
<!-- Node33 -->
<g id="Node000033" class="node">
<title>Node33</title>
<g id="a_Node000033"><a xlink:href="issue-189-default-values_8cpp.html#a840291bc02cba5474a4cb46a9b9566fe" target="_top" xlink:title=" ">
<polygon fill="white" stroke="#666666" points="388,-41 347,-41 347,-22 388,-22 388,-41"/>
<text text-anchor="middle" x="367.5" y="-29" font-family="Helvetica,sans-Serif" font-size="10.00">main</text>
</a>
</g>
</g>
<!-- Node32&#45;&gt;Node33 -->
<g id="edge41_Node000032_Node000033" class="edge">
<title>Node32&#45;&gt;Node33</title>
<g id="a_edge41_Node000032_Node000033"><a xlink:title=" ">
<path fill="none" stroke="#63b8ff" d="M473.8,-43.58C442.46,-39.99 408.9,-36.14 388.31,-33.77"/>
<polygon fill="#63b8ff" stroke="#63b8ff" points="473.54,-47.08 483.88,-44.74 474.34,-40.12 473.54,-47.08"/>
</a>
</g>
</g>
</g>
</svg>

<g id="navigator" transform="translate(0 0)" fill="#404254">
  <rect fill="#f2f5e9" fill-opacity="0.5" stroke="#606060" stroke-width=".5" x="0" y="0" width="60" height="60"/>
  <use id="zoomplus" xlink:href="#zoomPlus" x="17" y="9" onmousedown="handleZoom(evt,'in')"/>
  <use id="zoomminus" xlink:href="#zoomMin" x="42" y="9" onmousedown="handleZoom(evt,'out')"/>
  <use id="reset" xlink:href="#resetDef" x="30" y="36" onmousedown="handleReset()"/>
   <use id="arrowup" xlink:href="#arrowUp" x="0" y="0" onmousedown="handlePan(0,-1)"/>
  <use id="arrowright" xlink:href="#arrowRight" x="0" y="0" onmousedown="handlePan(1,0)"/>
  <use id="arrowdown" xlink:href="#arrowDown" x="0" y="0" onmousedown="handlePan(0,1)"/>
  <use id="arrowleft" xlink:href="#arrowLeft" x="0" y="0" onmousedown="handlePan(-1,0)"/>
</g>
<svg viewBox="0 0 15 15" width="100%" height="30px" preserveAspectRatio="xMaxYMin meet">
 <g id="arrow_out" transform="scale(0.3 0.3)">
  <a xlink:href="classnlohmann_1_1json__uri_a21ba5d6a76804eabd867a2d03370c945_icgraph_org.svg" target="_base">
   <rect id="button" ry="5" rx="5" y="6" x="6" height="38" width="38"
        fill="#f2f5e9" fill-opacity="0.5" stroke="#606060" stroke-width="1.0"/>
   <path id="arrow"
     d="M 11.500037,31.436501 C 11.940474,20.09759 22.043105,11.32322 32.158766,21.979434 L 37.068811,17.246167 C 37.068811,17.246167 37.088388,32 37.088388,32 L 22.160133,31.978069 C 22.160133,31.978069 26.997745,27.140456 26.997745,27.140456 C 18.528582,18.264221 13.291696,25.230495 11.500037,31.436501 z"
     style="fill:#404040;"/>
  </a>
 </g>
</svg>

<style type='text/css'>
<![CDATA[
[data-mouse-over-selected='false'] { opacity: 0.7; }
[data-mouse-over-selected='true']  { opacity: 1.0; }
]]>
</style>
<script type="application/ecmascript"><![CDATA[
document.addEventListener('DOMContentLoaded', (event) => {
  highlightEdges();
  highlightAdjacentNodes();
});
]]></script>
</svg>
