<?xml version="1.0" encoding="UTF-8" standalone="no"?>
<!DOCTYPE svg PUBLIC "-//W3C//DTD SVG 1.1//EN"
 "http://www.w3.org/Graphics/SVG/1.1/DTD/svg11.dtd">
<!-- Generated by graphviz version 14.1.1 (0)
 -->
<!-- Title: inja::ForStatementNode Pages: 1 -->
<svg width="451pt" height="375pt"
 viewBox="0.00 0.00 451.00 375.00" xmlns="http://www.w3.org/2000/svg" xmlns:xlink="http://www.w3.org/1999/xlink">

<svg id="main" version="1.1" xmlns="http://www.w3.org/2000/svg" xmlns:xlink="http://www.w3.org/1999/xlink" xml:space="preserve">

<style type="text/css"><![CDATA[
.node, .edge {opacity: 0.7;}
.node.selected, .edge.selected {opacity: 1;}
.edge:hover path { stroke: red; }
.edge:hover polygon { stroke: red; fill: red; }
]]></style>
<script type="application/ecmascript" xlink:href="svg.min.js"/>
<svg id="graph" class="graph">
<g id="graph0" class="graph" transform="scale(1 1) rotate(0) translate(4 371)">
<title>inja::ForStatementNode</title>
<!-- Node1 -->
<g id="Node000001" class="node">
<title>Node1</title>
<g id="a_Node000001"><a xlink:title=" ">
<polygon fill="#999999" stroke="none" points="222,-20.75 98.5,-20.75 98.5,0 222,0 222,-20.75"/>
<text xml:space="preserve" text-anchor="start" x="102.5" y="-7.25" font-family="Helvetica,sans-Serif" font-size="10.00">inja::ForStatementNode</text>
<polygon fill="none" stroke="#666666" points="98.5,0 98.5,-20.75 222,-20.75 222,0 98.5,0"/>
</a>
</g>
</g>
<!-- Node2 -->
<g id="Node000002" class="node">
<title>Node2</title>
<g id="a_Node000002"><a xlink:href="classinja_1_1StatementNode.html" target="_top" xlink:title=" ">
<polygon fill="white" stroke="none" points="108.5,-240 0,-240 0,-219.25 108.5,-219.25 108.5,-240"/>
<text xml:space="preserve" text-anchor="start" x="4" y="-226.5" font-family="Helvetica,sans-Serif" font-size="10.00">inja::StatementNode</text>
<polygon fill="none" stroke="#666666" points="0,-219.25 0,-240 108.5,-240 108.5,-219.25 0,-219.25"/>
</a>
</g>
</g>
<!-- Node2&#45;&gt;Node1 -->
<g id="edge1_Node000001_Node000002" class="edge">
<title>Node2&#45;&gt;Node1</title>
<g id="a_edge1_Node000001_Node000002"><a xlink:title=" ">
<path fill="none" stroke="#63b8ff" d="M56.03,-208.15C59.13,-180.47 67.22,-130.19 87.25,-92.25 103.15,-62.14 132.78,-34.39 148.97,-20.57"/>
<polygon fill="none" stroke="#63b8ff" points="52.56,-207.67 55.06,-217.96 59.53,-208.36 52.56,-207.67"/>
</a>
</g>
</g>
<!-- Node3 -->
<g id="Node000003" class="node">
<title>Node3</title>
<g id="a_Node000003"><a xlink:href="classinja_1_1AstNode.html" target="_top" xlink:title="Base node class for the abstract syntax tree (AST).">
<polygon fill="white" stroke="none" points="242.88,-367 169.62,-367 169.62,-346.25 242.88,-346.25 242.88,-367"/>
<text xml:space="preserve" text-anchor="start" x="173.62" y="-353.5" font-family="Helvetica,sans-Serif" font-size="10.00">inja::AstNode</text>
<polygon fill="none" stroke="#666666" points="169.62,-346.25 169.62,-367 242.88,-367 242.88,-346.25 169.62,-346.25"/>
</a>
</g>
</g>
<!-- Node3&#45;&gt;Node2 -->
<g id="edge2_Node000002_Node000003" class="edge">
<title>Node3&#45;&gt;Node2</title>
<g id="a_edge2_Node000002_Node000003"><a xlink:title=" ">
<path fill="none" stroke="#63b8ff" d="M159.08,-349.96C142.02,-346.04 123.47,-339.43 109.25,-328.25 78.97,-304.44 62.63,-259.06 56.78,-239.72"/>
<polygon fill="none" stroke="#63b8ff" points="158.04,-353.32 168.54,-351.86 159.42,-346.46 158.04,-353.32"/>
</a>
</g>
</g>
<!-- Node4 -->
<g id="Node000004" class="node">
<title>Node4</title>
<g id="a_Node000004"><a xlink:href="classinja_1_1ExpressionListNode.html" target="_top" xlink:title=" ">
<polygon fill="white" stroke="none" points="224.25,-113 96.25,-113 96.25,-92.25 224.25,-92.25 224.25,-113"/>
<text xml:space="preserve" text-anchor="start" x="100.25" y="-99.5" font-family="Helvetica,sans-Serif" font-size="10.00">inja::ExpressionListNode</text>
<polygon fill="none" stroke="#666666" points="96.25,-92.25 96.25,-113 224.25,-113 224.25,-92.25 96.25,-92.25"/>
</a>
</g>
</g>
<!-- Node3&#45;&gt;Node4 -->
<g id="edge4_Node000004_Node000003" class="edge">
<title>Node3&#45;&gt;Node4</title>
<g id="a_edge4_Node000004_Node000003"><a xlink:title=" ">
<path fill="none" stroke="#63b8ff" d="M182.69,-339.64C168.02,-328.17 150.44,-311.29 142.25,-291.5 115.7,-227.31 145.47,-140.59 156.48,-112.68"/>
<polygon fill="none" stroke="#63b8ff" points="180.45,-342.33 190.57,-345.47 184.61,-336.7 180.45,-342.33"/>
</a>
</g>
</g>
<!-- Node6 -->
<g id="Node000006" class="node">
<title>Node6</title>
<g id="a_Node000006"><a xlink:href="classinja_1_1ExpressionNode.html" target="_top" xlink:title=" ">
<polygon fill="white" stroke="none" points="261.62,-285.12 150.88,-285.12 150.88,-264.38 261.62,-264.38 261.62,-285.12"/>
<text xml:space="preserve" text-anchor="start" x="154.88" y="-271.62" font-family="Helvetica,sans-Serif" font-size="10.00">inja::ExpressionNode</text>
<polygon fill="none" stroke="#666666" points="150.88,-264.38 150.88,-285.12 261.62,-285.12 261.62,-264.38 150.88,-264.38"/>
</a>
</g>
</g>
<!-- Node3&#45;&gt;Node6 -->
<g id="edge7_Node000006_Node000003" class="edge">
<title>Node3&#45;&gt;Node6</title>
<g id="a_edge7_Node000006_Node000003"><a xlink:title=" ">
<path fill="none" stroke="#63b8ff" d="M206.25,-335.41C206.25,-319.14 206.25,-297.03 206.25,-284.81"/>
<polygon fill="none" stroke="#63b8ff" points="202.75,-334.95 206.25,-344.95 209.75,-334.95 202.75,-334.95"/>
</a>
</g>
</g>
<!-- Node7 -->
<g id="Node000007" class="node">
<title>Node7</title>
<g id="a_Node000007"><a xlink:href="classinja_1_1BlockNode.html" target="_top" xlink:title=" ">
<polygon fill="white" stroke="none" points="331.5,-113 247,-113 247,-92.25 331.5,-92.25 331.5,-113"/>
<text xml:space="preserve" text-anchor="start" x="251" y="-99.5" font-family="Helvetica,sans-Serif" font-size="10.00">inja::BlockNode</text>
<polygon fill="none" stroke="#666666" points="247,-92.25 247,-113 331.5,-113 331.5,-92.25 247,-92.25"/>
</a>
</g>
</g>
<!-- Node3&#45;&gt;Node7 -->
<g id="edge9_Node000007_Node000003" class="edge">
<title>Node3&#45;&gt;Node7</title>
<g id="a_edge9_Node000007_Node000003"><a xlink:title=" ">
<path fill="none" stroke="#63b8ff" d="M228.9,-339.56C243.34,-327.97 261.02,-310.97 270.25,-291.5 300.02,-228.7 293.51,-141.07 290.4,-112.8"/>
<polygon fill="none" stroke="#63b8ff" points="227.02,-336.59 221.2,-345.45 231.27,-342.15 227.02,-336.59"/>
</a>
</g>
</g>
<!-- Node9 -->
<g id="Node000009" class="node">
<title>Node9</title>
<g id="a_Node000009"><a xlink:title=" ">
<polygon fill="white" stroke="none" points="431.25,-291.5 321.25,-291.5 321.25,-258 431.25,-258 431.25,-291.5"/>
<text xml:space="preserve" text-anchor="start" x="325.25" y="-278" font-family="Helvetica,sans-Serif" font-size="10.00">std::shared_ptr&lt; inja</text>
<text xml:space="preserve" text-anchor="start" x="347" y="-265.25" font-family="Helvetica,sans-Serif" font-size="10.00">::AstNode &gt;</text>
<polygon fill="none" stroke="#666666" points="321.25,-258 321.25,-291.5 431.25,-291.5 431.25,-258 321.25,-258"/>
</a>
</g>
</g>
<!-- Node3&#45;&gt;Node9 -->
<g id="edge12_Node000009_Node000003" class="edge">
<title>Node3&#45;&gt;Node9</title>
<g id="a_edge12_Node000009_Node000003"><a xlink:title=" ">
<path fill="none" stroke="#63b8ff" d="M242.81,-348.49C261.47,-344.06 284.18,-337.45 303.25,-328.25 319.07,-320.62 335.08,-309.56 348.06,-299.55"/>
<polygon fill="none" stroke="#63b8ff" points="348.09,-299.53 350.29,-292.67 357.48,-292.06 355.28,-298.93 348.09,-299.53"/>
</a>
</g>
<text xml:space="preserve" text-anchor="start" x="335.89" y="-315.75" font-family="Helvetica,sans-Serif" font-size="10.00" fill="grey">+ptr</text>
</g>
<!-- Node4&#45;&gt;Node1 -->
<g id="edge3_Node000001_Node000004" class="edge">
<title>Node4&#45;&gt;Node1</title>
<g id="a_edge3_Node000001_Node000004"><a xlink:title=" ">
<path fill="none" stroke="#63b8ff" d="M160.25,-92.31C160.25,-78.52 160.25,-52.29 160.25,-33.43"/>
<polygon fill="none" stroke="#63b8ff" points="160.25,-33.41 156.25,-27.41 160.25,-21.41 164.25,-27.41 160.25,-33.41"/>
</a>
</g>
<text xml:space="preserve" text-anchor="start" x="163.25" y="-53.38" font-family="Helvetica,sans-Serif" font-size="10.00" fill="grey">+condition</text>
</g>
<!-- Node5 -->
<g id="Node000005" class="node">
<title>Node5</title>
<g id="a_Node000005"><a xlink:title=" ">
<polygon fill="white" stroke="none" points="261.25,-201.25 151.25,-201.25 151.25,-167.75 261.25,-167.75 261.25,-201.25"/>
<text xml:space="preserve" text-anchor="start" x="155.25" y="-187.75" font-family="Helvetica,sans-Serif" font-size="10.00">std::shared_ptr&lt; inja</text>
<text xml:space="preserve" text-anchor="start" x="158.25" y="-175" font-family="Helvetica,sans-Serif" font-size="10.00">::ExpressionNode &gt;</text>
<polygon fill="none" stroke="#666666" points="151.25,-167.75 151.25,-201.25 261.25,-201.25 261.25,-167.75 151.25,-167.75"/>
</a>
</g>
</g>
<!-- Node5&#45;&gt;Node4 -->
<g id="edge5_Node000004_Node000005" class="edge">
<title>Node5&#45;&gt;Node4</title>
<g id="a_edge5_Node000004_Node000005"><a xlink:title=" ">
<path fill="none" stroke="#63b8ff" d="M197.38,-168.1C190.18,-155.6 179.98,-137.88 172.08,-124.17"/>
<polygon fill="none" stroke="#63b8ff" points="172.08,-124.16 165.62,-120.96 166.09,-113.76 172.55,-116.97 172.08,-124.16"/>
</a>
</g>
<text xml:space="preserve" text-anchor="start" x="189" y="-137.25" font-family="Helvetica,sans-Serif" font-size="10.00" fill="grey">+root</text>
</g>
<!-- Node6&#45;&gt;Node5 -->
<g id="edge6_Node000005_Node000006" class="edge">
<title>Node6&#45;&gt;Node5</title>
<g id="a_edge6_Node000005_Node000006"><a xlink:title=" ">
<path fill="none" stroke="#63b8ff" d="M206.25,-264.64C206.25,-252.82 206.25,-231.66 206.25,-214.19"/>
<polygon fill="none" stroke="#63b8ff" points="206.25,-214.12 202.25,-208.12 206.25,-202.12 210.25,-208.12 206.25,-214.12"/>
</a>
</g>
<text xml:space="preserve" text-anchor="start" x="209.25" y="-226.5" font-family="Helvetica,sans-Serif" font-size="10.00" fill="grey">+ptr</text>
</g>
<!-- Node7&#45;&gt;Node1 -->
<g id="edge8_Node000001_Node000007" class="edge">
<title>Node7&#45;&gt;Node1</title>
<g id="a_edge8_Node000001_Node000007"><a xlink:title=" ">
<path fill="none" stroke="#63b8ff" d="M281.53,-92.45C269.98,-79.18 246.99,-54.49 223.25,-38.75 215.84,-33.83 207.4,-29.46 199.16,-25.73"/>
<polygon fill="none" stroke="#63b8ff" points="199.25,-25.77 192.16,-27.11 188.2,-21.08 195.29,-19.74 199.25,-25.77"/>
</a>
</g>
<text xml:space="preserve" text-anchor="start" x="267.32" y="-61.75" font-family="Helvetica,sans-Serif" font-size="10.00" fill="grey">+body</text>
<text xml:space="preserve" text-anchor="start" x="267.32" y="-45" font-family="Helvetica,sans-Serif" font-size="10.00" fill="grey">+parent</text>
</g>
<!-- Node8 -->
<g id="Node000008" class="node">
<title>Node8</title>
<g id="a_Node000008"><a xlink:title=" ">
<polygon fill="white" stroke="none" points="443.12,-201.25 317.38,-201.25 317.38,-167.75 443.12,-167.75 443.12,-201.25"/>
<text xml:space="preserve" text-anchor="start" x="321.38" y="-187.75" font-family="Helvetica,sans-Serif" font-size="10.00">std::vector&lt; std::shared</text>
<text xml:space="preserve" text-anchor="start" x="321.38" y="-175" font-family="Helvetica,sans-Serif" font-size="10.00">_ptr&lt; inja::AstNode &gt; &gt;</text>
<polygon fill="none" stroke="#666666" points="317.38,-167.75 317.38,-201.25 443.12,-201.25 443.12,-167.75 317.38,-167.75"/>
</a>
</g>
</g>
<!-- Node8&#45;&gt;Node7 -->
<g id="edge10_Node000007_Node000008" class="edge">
<title>Node8&#45;&gt;Node7</title>
<g id="a_edge10_Node000007_Node000008"><a xlink:title=" ">
<path fill="none" stroke="#63b8ff" d="M362.7,-168.1C347.45,-154.71 325.36,-135.32 309.39,-121.3"/>
<polygon fill="none" stroke="#63b8ff" points="309.61,-121.49 302.46,-120.54 300.59,-113.58 307.74,-114.53 309.61,-121.49"/>
</a>
</g>
<text xml:space="preserve" text-anchor="start" x="343.2" y="-137.25" font-family="Helvetica,sans-Serif" font-size="10.00" fill="grey">+nodes</text>
</g>
<!-- Node9&#45;&gt;Node8 -->
<g id="edge11_Node000008_Node000009" class="edge">
<title>Node9&#45;&gt;Node8</title>
<g id="a_edge11_Node000008_Node000009"><a xlink:title=" ">
<path fill="none" stroke="#63b8ff" d="M376.95,-258.38C377.51,-246.05 378.3,-228.42 378.98,-213.59"/>
<polygon fill="none" stroke="#63b8ff" points="378.96,-213.88 375.24,-207.71 379.51,-201.89 383.23,-208.07 378.96,-213.88"/>
</a>
</g>
<text xml:space="preserve" text-anchor="start" x="381.61" y="-226.5" font-family="Helvetica,sans-Serif" font-size="10.00" fill="grey">+elements</text>
</g>
</g>
</svg>
</svg>

<style type='text/css'>
<![CDATA[
[data-mouse-over-selected='false'] { opacity: 0.7; }
[data-mouse-over-selected='true']  { opacity: 1.0; }
]]>
</style>
<script type="application/ecmascript"><![CDATA[
document.addEventListener('DOMContentLoaded', (event) => {
  highlightEdges();
  highlightAdjacentNodes();
});
]]></script>
</svg>
