<?xml version="1.0" encoding="UTF-8" standalone="no"?>
<!DOCTYPE svg PUBLIC "-//W3C//DTD SVG 1.1//EN"
 "http://www.w3.org/Graphics/SVG/1.1/DTD/svg11.dtd">
<!-- Generated by graphviz version 14.1.2 (0)
 -->
<!-- Title: mqtt::bridge::lib::SSEDistributor::bridgesStarting Pages: 1 -->
<svg width="523pt" height="68pt"
 viewBox="0.00 0.00 523.00 68.00" xmlns="http://www.w3.org/2000/svg" xmlns:xlink="http://www.w3.org/1999/xlink">
<g id="graph0" class="graph" transform="scale(1 1) rotate(0) translate(4 63.75)">
<title>mqtt::bridge::lib::SSEDistributor::bridgesStarting</title>
<!-- Node1 -->
<g id="Node000001" class="node">
<title>Node1</title>
<g id="a_Node000001"><a xlink:title=" ">
<polygon fill="#999999" stroke="#666666" points="514.75,-46.12 348.75,-46.12 348.75,-12.62 514.75,-12.62 514.75,-46.12"/>
<text xml:space="preserve" text-anchor="start" x="356.75" y="-32.62" font-family="Helvetica,sans-Serif" font-size="10.00">mqtt::bridge::lib::</text>
<text xml:space="preserve" text-anchor="middle" x="431.75" y="-19.88" font-family="Helvetica,sans-Serif" font-size="10.00">SSEDistributor::bridgesStarting</text>
</a>
</g>
</g>
<!-- Node2 -->
<g id="Node000002" class="node">
<title>Node2</title>
<g id="a_Node000002"><a xlink:href="mqttbridge_8cpp.html#ac4db1bc049804762ae0893100ec95dec" target="_top" xlink:title=" ">
<polygon fill="white" stroke="#666666" points="312.75,-39.75 237.5,-39.75 237.5,-19 312.75,-19 312.75,-39.75"/>
<text xml:space="preserve" text-anchor="middle" x="275.12" y="-26.25" font-family="Helvetica,sans-Serif" font-size="10.00">startBridges</text>
</a>
</g>
</g>
<!-- Node1&#45;&gt;Node2 -->
<g id="edge1_Node000001_Node000002" class="edge">
<title>Node1&#45;&gt;Node2</title>
<g id="a_edge1_Node000001_Node000002"><a xlink:title=" ">
<path fill="none" stroke="#63b8ff" d="M337.2,-29.38C328.73,-29.38 320.54,-29.38 313.04,-29.38"/>
<polygon fill="#63b8ff" stroke="#63b8ff" points="336.94,-32.88 346.94,-29.38 336.94,-25.88 336.94,-32.88"/>
</a>
</g>
</g>
<!-- Node3 -->
<g id="Node000003" class="node">
<title>Node3</title>
<g id="a_Node000003"><a xlink:href="mqttbridge_8cpp.html#a0ddf1224851353fc92bfbff6f499fa97" target="_top" xlink:title=" ">
<polygon fill="white" stroke="#666666" points="179.38,-59.75 138.62,-59.75 138.62,-39 179.38,-39 179.38,-59.75"/>
<text xml:space="preserve" text-anchor="middle" x="159" y="-46.25" font-family="Helvetica,sans-Serif" font-size="10.00">main</text>
</a>
</g>
</g>
<!-- Node2&#45;&gt;Node3 -->
<g id="edge2_Node000002_Node000003" class="edge">
<title>Node2&#45;&gt;Node3</title>
<g id="a_edge2_Node000002_Node000003"><a xlink:title=" ">
<path fill="none" stroke="#63b8ff" d="M226.01,-37.81C209.71,-40.66 192.41,-43.7 179.61,-45.94"/>
<polygon fill="#63b8ff" stroke="#63b8ff" points="226.34,-41.3 235.58,-36.13 225.13,-34.41 226.34,-41.3"/>
</a>
</g>
</g>
<!-- Node4 -->
<g id="Node000004" class="node">
<title>Node4</title>
<g id="a_Node000004"><a xlink:href="mqttbridge_8cpp.html#ad55d86bc4a27f17b5ccd51659519f60d" target="_top" xlink:title=" ">
<polygon fill="white" stroke="#666666" points="201.5,-20.75 116.5,-20.75 116.5,0 201.5,0 201.5,-20.75"/>
<text xml:space="preserve" text-anchor="middle" x="159" y="-7.25" font-family="Helvetica,sans-Serif" font-size="10.00">restartBridges</text>
</a>
</g>
</g>
<!-- Node2&#45;&gt;Node4 -->
<g id="edge3_Node000002_Node000004" class="edge">
<title>Node2&#45;&gt;Node4</title>
<g id="a_edge3_Node000002_Node000004"><a xlink:title=" ">
<path fill="none" stroke="#63b8ff" d="M225.89,-21.34C217.82,-20 209.5,-18.62 201.61,-17.3"/>
<polygon fill="#63b8ff" stroke="#63b8ff" points="225.14,-24.77 235.58,-22.96 226.29,-17.86 225.14,-24.77"/>
</a>
</g>
</g>
<!-- Node5 -->
<g id="Node000005" class="node">
<title>Node5</title>
<g id="a_Node000005"><a xlink:href="mqttbridge_8cpp.html#a950144f64b7a01a366fb06aecf986214" target="_top" xlink:title=" ">
<polygon fill="white" stroke="#666666" points="80.5,-20.75 0,-20.75 0,0 80.5,0 80.5,-20.75"/>
<text xml:space="preserve" text-anchor="middle" x="40.25" y="-7.25" font-family="Helvetica,sans-Serif" font-size="10.00">handleConfig</text>
</a>
</g>
</g>
<!-- Node4&#45;&gt;Node5 -->
<g id="edge4_Node000004_Node000005" class="edge">
<title>Node4&#45;&gt;Node5</title>
<g id="a_edge4_Node000004_Node000005"><a xlink:title=" ">
<path fill="none" stroke="#63b8ff" d="M104.89,-10.38C96.8,-10.38 88.57,-10.38 80.83,-10.38"/>
<polygon fill="#63b8ff" stroke="#63b8ff" points="104.67,-13.88 114.67,-10.38 104.67,-6.88 104.67,-13.88"/>
</a>
</g>
</g>
</g>
</svg>
