<?xml version="1.0" encoding="UTF-8" standalone="no"?>
<!DOCTYPE svg PUBLIC "-//W3C//DTD SVG 1.1//EN"
 "http://www.w3.org/Graphics/SVG/1.1/DTD/svg11.dtd">
<!-- Generated by graphviz version 14.1.2 (0)
 -->
<!-- Title: inja::Parser::parse_filename Pages: 1 -->
<svg width="1976pt" height="359pt"
 viewBox="0.00 0.00 1976.00 359.00" xmlns="http://www.w3.org/2000/svg" xmlns:xlink="http://www.w3.org/1999/xlink">
<g id="graph0" class="graph" transform="scale(1 1) rotate(0) translate(4 354.88)">
<title>inja::Parser::parse_filename</title>
<!-- Node1 -->
<g id="Node000001" class="node">
<title>Node1</title>
<g id="a_Node000001"><a xlink:title=" ">
<polygon fill="#999999" stroke="#666666" points="1967.5,-84.5 1863.75,-84.5 1863.75,-51 1967.5,-51 1967.5,-84.5"/>
<text xml:space="preserve" text-anchor="start" x="1871.75" y="-71" font-family="Helvetica,sans-Serif" font-size="10.00">inja::Parser::parse</text>
<text xml:space="preserve" text-anchor="middle" x="1915.62" y="-58.25" font-family="Helvetica,sans-Serif" font-size="10.00">_filename</text>
</a>
</g>
</g>
<!-- Node2 -->
<g id="Node000002" class="node">
<title>Node2</title>
<g id="a_Node000002"><a xlink:href="classinja_1_1Parser.html#afdea619b58c4db677d49c0481d6a9a4b" target="_top" xlink:title=" ">
<polygon fill="white" stroke="#666666" points="1827.75,-84.5 1724,-84.5 1724,-51 1827.75,-51 1827.75,-84.5"/>
<text xml:space="preserve" text-anchor="start" x="1732" y="-71" font-family="Helvetica,sans-Serif" font-size="10.00">inja::Parser::parse</text>
<text xml:space="preserve" text-anchor="middle" x="1775.88" y="-58.25" font-family="Helvetica,sans-Serif" font-size="10.00">_statement</text>
</a>
</g>
</g>
<!-- Node1&#45;&gt;Node2 -->
<g id="edge1_Node000001_Node000002" class="edge">
<title>Node1&#45;&gt;Node2</title>
<g id="a_edge1_Node000001_Node000002"><a xlink:title=" ">
<path fill="none" stroke="#63b8ff" d="M1851.86,-67.75C1843.95,-67.75 1835.92,-67.75 1828.21,-67.75"/>
<polygon fill="#63b8ff" stroke="#63b8ff" points="1851.82,-71.25 1861.82,-67.75 1851.82,-64.25 1851.82,-71.25"/>
</a>
</g>
</g>
<!-- Node3 -->
<g id="Node000003" class="node">
<title>Node3</title>
<g id="a_Node000003"><a xlink:href="classinja_1_1Parser.html#a325c55a6c060f76d0d83b4d187b1ef33" target="_top" xlink:title=" ">
<polygon fill="white" stroke="#666666" points="1688,-103.12 1560.25,-103.12 1560.25,-82.38 1688,-82.38 1688,-103.12"/>
<text xml:space="preserve" text-anchor="middle" x="1624.12" y="-89.62" font-family="Helvetica,sans-Serif" font-size="10.00">inja::Parser::parse_into</text>
</a>
</g>
</g>
<!-- Node2&#45;&gt;Node3 -->
<g id="edge2_Node000002_Node000003" class="edge">
<title>Node2&#45;&gt;Node3</title>
<g id="a_edge2_Node000002_Node000003"><a xlink:title=" ">
<path fill="none" stroke="#63b8ff" d="M1712.64,-78.14C1704.65,-79.47 1696.47,-80.84 1688.46,-82.18"/>
<polygon fill="#63b8ff" stroke="#63b8ff" points="1712.98,-81.63 1722.27,-76.53 1711.83,-74.73 1712.98,-81.63"/>
</a>
</g>
</g>
<!-- Node4 -->
<g id="Node000004" class="node">
<title>Node4</title>
<g id="a_Node000004"><a xlink:href="classinja_1_1Parser.html#ae9cf060e992d2a12b7fd47b346d8bd64" target="_top" xlink:title=" ">
<polygon fill="white" stroke="#666666" points="1524.25,-162.12 1420.5,-162.12 1420.5,-141.38 1524.25,-141.38 1524.25,-162.12"/>
<text xml:space="preserve" text-anchor="middle" x="1472.38" y="-148.62" font-family="Helvetica,sans-Serif" font-size="10.00">inja::Parser::parse</text>
</a>
</g>
</g>
<!-- Node3&#45;&gt;Node4 -->
<g id="edge3_Node000003_Node000004" class="edge">
<title>Node3&#45;&gt;Node4</title>
<g id="a_edge3_Node000003_Node000004"><a xlink:title=" ">
<path fill="none" stroke="#63b8ff" d="M1584.96,-107.79C1558.73,-118.12 1524.51,-131.6 1500.92,-140.9"/>
<polygon fill="#63b8ff" stroke="#63b8ff" points="1586.23,-111.05 1594.25,-104.13 1583.66,-104.54 1586.23,-111.05"/>
</a>
</g>
</g>
<!-- Node18 -->
<g id="Node000018" class="node">
<title>Node18</title>
<g id="a_Node000018"><a xlink:href="classinja_1_1Parser.html#af2b8ee63877e6b685f30c87d204bbe8b" target="_top" xlink:title=" ">
<polygon fill="white" stroke="#666666" points="1524.25,-109.5 1420.5,-109.5 1420.5,-76 1524.25,-76 1524.25,-109.5"/>
<text xml:space="preserve" text-anchor="start" x="1428.5" y="-96" font-family="Helvetica,sans-Serif" font-size="10.00">inja::Parser::parse</text>
<text xml:space="preserve" text-anchor="middle" x="1472.38" y="-83.25" font-family="Helvetica,sans-Serif" font-size="10.00">_into_template</text>
</a>
</g>
</g>
<!-- Node3&#45;&gt;Node18 -->
<g id="edge20_Node000003_Node000018" class="edge">
<title>Node3&#45;&gt;Node18</title>
<g id="a_edge20_Node000003_Node000018"><a xlink:title=" ">
<path fill="none" stroke="#63b8ff" d="M1548.6,-92.75C1540.47,-92.75 1532.33,-92.75 1524.57,-92.75"/>
<polygon fill="#63b8ff" stroke="#63b8ff" points="1548.54,-96.25 1558.54,-92.75 1548.54,-89.25 1548.54,-96.25"/>
</a>
</g>
</g>
<!-- Node5 -->
<g id="Node000005" class="node">
<title>Node5</title>
<g id="a_Node000005"><a xlink:href="classinja_1_1Environment.html#a8421b8d61fc4de15f29c909bd7154f92" target="_top" xlink:title=" ">
<polygon fill="white" stroke="#666666" points="1383.75,-182.5 1275.5,-182.5 1275.5,-149 1383.75,-149 1383.75,-182.5"/>
<text xml:space="preserve" text-anchor="start" x="1283.5" y="-169" font-family="Helvetica,sans-Serif" font-size="10.00">inja::Environment::</text>
<text xml:space="preserve" text-anchor="middle" x="1329.62" y="-156.25" font-family="Helvetica,sans-Serif" font-size="10.00">parse</text>
</a>
</g>
</g>
<!-- Node4&#45;&gt;Node5 -->
<g id="edge4_Node000004_Node000005" class="edge">
<title>Node4&#45;&gt;Node5</title>
<g id="a_edge4_Node000004_Node000005"><a xlink:title=" ">
<path fill="none" stroke="#63b8ff" d="M1408.93,-157.96C1400.59,-158.79 1392.09,-159.64 1383.93,-160.45"/>
<polygon fill="#63b8ff" stroke="#63b8ff" points="1409.05,-161.47 1418.66,-156.99 1408.36,-154.5 1409.05,-161.47"/>
</a>
</g>
</g>
<!-- Node6 -->
<g id="Node000006" class="node">
<title>Node6</title>
<g id="a_Node000006"><a xlink:href="classinja_1_1Environment.html#aac36e0cfdc9e7926914e46c0cd1caada" target="_top" xlink:title=" ">
<polygon fill="white" stroke="#666666" points="1238.75,-253.5 1130.5,-253.5 1130.5,-220 1238.75,-220 1238.75,-253.5"/>
<text xml:space="preserve" text-anchor="start" x="1138.5" y="-240" font-family="Helvetica,sans-Serif" font-size="10.00">inja::Environment::</text>
<text xml:space="preserve" text-anchor="middle" x="1184.62" y="-227.25" font-family="Helvetica,sans-Serif" font-size="10.00">render</text>
</a>
</g>
</g>
<!-- Node5&#45;&gt;Node6 -->
<g id="edge5_Node000005_Node000006" class="edge">
<title>Node5&#45;&gt;Node6</title>
<g id="a_edge5_Node000005_Node000006"><a xlink:title=" ">
<path fill="none" stroke="#63b8ff" d="M1284.3,-188.04C1269.8,-195.31 1253.6,-203.4 1238.75,-210.75 1232.95,-213.62 1226.79,-216.65 1220.8,-219.59"/>
<polygon fill="#63b8ff" stroke="#63b8ff" points="1285.8,-191.21 1293.17,-183.6 1282.66,-184.95 1285.8,-191.21"/>
</a>
</g>
</g>
<!-- Node16 -->
<g id="Node000016" class="node">
<title>Node16</title>
<g id="a_Node000016"><a xlink:href="classinja_1_1Environment.html#ad00da8b535e5c5633ed2adec622e6cf4" target="_top" xlink:title=" ">
<polygon fill="white" stroke="#666666" points="1238.75,-201.5 1130.5,-201.5 1130.5,-168 1238.75,-168 1238.75,-201.5"/>
<text xml:space="preserve" text-anchor="start" x="1138.5" y="-188" font-family="Helvetica,sans-Serif" font-size="10.00">inja::Environment::</text>
<text xml:space="preserve" text-anchor="middle" x="1184.62" y="-175.25" font-family="Helvetica,sans-Serif" font-size="10.00">render_to</text>
</a>
</g>
</g>
<!-- Node5&#45;&gt;Node16 -->
<g id="edge18_Node000005_Node000016" class="edge">
<title>Node5&#45;&gt;Node16</title>
<g id="a_edge18_Node000005_Node000016"><a xlink:title=" ">
<path fill="none" stroke="#63b8ff" d="M1264.04,-174.33C1255.64,-175.45 1247.11,-176.58 1238.92,-177.67"/>
<polygon fill="#63b8ff" stroke="#63b8ff" points="1264.42,-177.81 1273.88,-173.02 1263.5,-170.87 1264.42,-177.81"/>
</a>
</g>
</g>
<!-- Node17 -->
<g id="Node000017" class="node">
<title>Node17</title>
<g id="a_Node000017"><a xlink:href="namespaceinja.html#a996f16f78b37d05e19cf44ac74d83e7e" target="_top" xlink:title="render with default settings to the given output stream">
<polygon fill="white" stroke="#666666" points="1227.88,-150.12 1141.38,-150.12 1141.38,-129.38 1227.88,-129.38 1227.88,-150.12"/>
<text xml:space="preserve" text-anchor="middle" x="1184.62" y="-136.62" font-family="Helvetica,sans-Serif" font-size="10.00">inja::render_to</text>
</a>
</g>
</g>
<!-- Node5&#45;&gt;Node17 -->
<g id="edge19_Node000005_Node000017" class="edge">
<title>Node5&#45;&gt;Node17</title>
<g id="a_edge19_Node000005_Node000017"><a xlink:title=" ">
<path fill="none" stroke="#63b8ff" d="M1264.27,-154.05C1252.05,-151.83 1239.54,-149.55 1228.2,-147.49"/>
<polygon fill="#63b8ff" stroke="#63b8ff" points="1263.42,-157.45 1273.89,-155.8 1264.68,-150.57 1263.42,-157.45"/>
</a>
</g>
</g>
<!-- Node7 -->
<g id="Node000007" class="node">
<title>Node7</title>
<g id="a_Node000007"><a xlink:href="classmqtt_1_1lib_1_1MqttMapper.html#acf8390856383106d469d448b358d3f17" target="_top" xlink:title=" ">
<polygon fill="white" stroke="#666666" points="1085.12,-275.5 962.62,-275.5 962.62,-242 1085.12,-242 1085.12,-275.5"/>
<text xml:space="preserve" text-anchor="start" x="970.62" y="-262" font-family="Helvetica,sans-Serif" font-size="10.00">mqtt::lib::MqttMapper</text>
<text xml:space="preserve" text-anchor="middle" x="1023.88" y="-249.25" font-family="Helvetica,sans-Serif" font-size="10.00">::getMappedTemplate</text>
</a>
</g>
</g>
<!-- Node6&#45;&gt;Node7 -->
<g id="edge6_Node000006_Node000007" class="edge">
<title>Node6&#45;&gt;Node7</title>
<g id="a_edge6_Node000006_Node000007"><a xlink:title=" ">
<path fill="none" stroke="#63b8ff" d="M1118.96,-245.71C1107.87,-247.25 1096.4,-248.84 1085.43,-250.36"/>
<polygon fill="#63b8ff" stroke="#63b8ff" points="1119.4,-249.18 1128.82,-244.34 1118.44,-242.25 1119.4,-249.18"/>
</a>
</g>
</g>
<!-- Node15 -->
<g id="Node000015" class="node">
<title>Node15</title>
<g id="a_Node000015"><a xlink:href="namespaceinja.html#a539106781b52cc6117fc132f927a9dec" target="_top" xlink:title="render with default settings to a string">
<polygon fill="white" stroke="#666666" points="1059.62,-224.12 988.12,-224.12 988.12,-203.38 1059.62,-203.38 1059.62,-224.12"/>
<text xml:space="preserve" text-anchor="middle" x="1023.88" y="-210.62" font-family="Helvetica,sans-Serif" font-size="10.00">inja::render</text>
</a>
</g>
</g>
<!-- Node6&#45;&gt;Node15 -->
<g id="edge17_Node000006_Node000015" class="edge">
<title>Node6&#45;&gt;Node15</title>
<g id="a_edge17_Node000006_Node000015"><a xlink:title=" ">
<path fill="none" stroke="#63b8ff" d="M1118.94,-227.38C1098.72,-224.45 1077.18,-221.33 1059.82,-218.81"/>
<polygon fill="#63b8ff" stroke="#63b8ff" points="1118.43,-230.84 1128.82,-228.81 1119.43,-223.91 1118.43,-230.84"/>
</a>
</g>
</g>
<!-- Node8 -->
<g id="Node000008" class="node">
<title>Node8</title>
<g id="a_Node000008"><a xlink:href="classmqtt_1_1lib_1_1MqttMapper.html#a120ac05abf400a4f1c4a5758ecd99f74" target="_top" xlink:title=" ">
<polygon fill="white" stroke="#666666" points="917.25,-275.5 787.25,-275.5 787.25,-242 917.25,-242 917.25,-275.5"/>
<text xml:space="preserve" text-anchor="start" x="795.25" y="-262" font-family="Helvetica,sans-Serif" font-size="10.00">mqtt::lib::MqttMapper</text>
<text xml:space="preserve" text-anchor="middle" x="852.25" y="-249.25" font-family="Helvetica,sans-Serif" font-size="10.00">::getTemplateMappings</text>
</a>
</g>
</g>
<!-- Node7&#45;&gt;Node8 -->
<g id="edge7_Node000007_Node000008" class="edge">
<title>Node7&#45;&gt;Node8</title>
<g id="a_edge7_Node000007_Node000008"><a xlink:title=" ">
<path fill="none" stroke="#63b8ff" d="M951.15,-258.75C940.03,-258.75 928.6,-258.75 917.65,-258.75"/>
<polygon fill="#63b8ff" stroke="#63b8ff" points="951.08,-262.25 961.08,-258.75 951.08,-255.25 951.08,-262.25"/>
</a>
</g>
</g>
<!-- Node9 -->
<g id="Node000009" class="node">
<title>Node9</title>
<g id="a_Node000009"><a xlink:href="classmqtt_1_1lib_1_1MqttMapper.html#a542c86edf273308138357e4773c55d3c" target="_top" xlink:title=" ">
<polygon fill="white" stroke="#666666" points="751.25,-275.5 628.75,-275.5 628.75,-242 751.25,-242 751.25,-275.5"/>
<text xml:space="preserve" text-anchor="start" x="636.75" y="-262" font-family="Helvetica,sans-Serif" font-size="10.00">mqtt::lib::MqttMapper</text>
<text xml:space="preserve" text-anchor="middle" x="690" y="-249.25" font-family="Helvetica,sans-Serif" font-size="10.00">::getMappings</text>
</a>
</g>
</g>
<!-- Node8&#45;&gt;Node9 -->
<g id="edge8_Node000008_Node000009" class="edge">
<title>Node8&#45;&gt;Node9</title>
<g id="a_edge8_Node000008_Node000009"><a xlink:title=" ">
<path fill="none" stroke="#63b8ff" d="M775.67,-258.75C767.61,-258.75 759.49,-258.75 751.63,-258.75"/>
<polygon fill="#63b8ff" stroke="#63b8ff" points="775.48,-262.25 785.48,-258.75 775.48,-255.25 775.48,-262.25"/>
</a>
</g>
</g>
<!-- Node10 -->
<g id="Node000010" class="node">
<title>Node10</title>
<g id="a_Node000010"><a xlink:href="classmqtt_1_1mqttbroker_1_1lib_1_1Mqtt.html#a35dd670ca3b7d67cffbbce1cf7c71ffb" target="_top" xlink:title=" ">
<polygon fill="white" stroke="#666666" points="592.75,-301.5 475.5,-301.5 475.5,-268 592.75,-268 592.75,-301.5"/>
<text xml:space="preserve" text-anchor="start" x="483.5" y="-288" font-family="Helvetica,sans-Serif" font-size="10.00">mqtt::mqttbroker::lib</text>
<text xml:space="preserve" text-anchor="middle" x="534.12" y="-275.25" font-family="Helvetica,sans-Serif" font-size="10.00">::Mqtt::onPublish</text>
</a>
</g>
</g>
<!-- Node9&#45;&gt;Node10 -->
<g id="edge9_Node000009_Node000010" class="edge">
<title>Node9&#45;&gt;Node10</title>
<g id="a_edge9_Node000009_Node000010"><a xlink:title=" ">
<path fill="none" stroke="#63b8ff" d="M617.53,-270.83C609.33,-272.21 601.05,-273.61 593.06,-274.96"/>
<polygon fill="#63b8ff" stroke="#63b8ff" points="617.86,-274.32 627.13,-269.2 616.69,-267.42 617.86,-274.32"/>
</a>
</g>
</g>
<!-- Node14 -->
<g id="Node000014" class="node">
<title>Node14</title>
<g id="a_Node000014"><a xlink:href="classmqtt_1_1mqttintegrator_1_1lib_1_1Mqtt.html#a211408365844787ce77340f454b9cbd0" target="_top" xlink:title=" ">
<polygon fill="white" stroke="#666666" points="592.38,-249.5 475.88,-249.5 475.88,-216 592.38,-216 592.38,-249.5"/>
<text xml:space="preserve" text-anchor="start" x="483.88" y="-236" font-family="Helvetica,sans-Serif" font-size="10.00">mqtt::mqttintegrator</text>
<text xml:space="preserve" text-anchor="middle" x="534.12" y="-223.25" font-family="Helvetica,sans-Serif" font-size="10.00">::lib::Mqtt::onPublish</text>
</a>
</g>
</g>
<!-- Node9&#45;&gt;Node14 -->
<g id="edge16_Node000009_Node000014" class="edge">
<title>Node9&#45;&gt;Node14</title>
<g id="a_edge16_Node000009_Node000014"><a xlink:title=" ">
<path fill="none" stroke="#63b8ff" d="M617.45,-246.66C609.19,-245.27 600.85,-243.86 592.81,-242.5"/>
<polygon fill="#63b8ff" stroke="#63b8ff" points="616.69,-250.08 627.13,-248.3 617.86,-243.18 616.69,-250.08"/>
</a>
</g>
</g>
<!-- Node10&#45;&gt;Node10 -->
<g id="edge10_Node000010_Node000010" class="edge">
<title>Node10&#45;&gt;Node10</title>
<g id="a_edge10_Node000010_Node000010"><a xlink:title=" ">
<path fill="none" stroke="#63b8ff" d="M560.3,-312.89C556.04,-316.85 547.31,-319.5 534.12,-319.5 510.68,-319.5 501.34,-311.12 506.1,-301.91"/>
<polygon fill="#63b8ff" stroke="#63b8ff" points="563.69,-313.85 561.89,-303.41 556.78,-312.69 563.69,-313.85"/>
</a>
</g>
</g>
<!-- Node11 -->
<g id="Node000011" class="node">
<title>Node11</title>
<g id="a_Node000011"><a xlink:href="classmqtt_1_1mqttbroker_1_1lib_1_1Mqtt_1_1DelayedQueue.html#abe935c28141087ad3eadf41acab44702" target="_top" xlink:title=" ">
<polygon fill="white" stroke="#666666" points="439.5,-332.88 317,-332.88 317,-286.62 439.5,-286.62 439.5,-332.88"/>
<text xml:space="preserve" text-anchor="start" x="325" y="-319.38" font-family="Helvetica,sans-Serif" font-size="10.00">mqtt::mqttbroker::lib</text>
<text xml:space="preserve" text-anchor="start" x="325" y="-306.62" font-family="Helvetica,sans-Serif" font-size="10.00">::Mqtt::DelayedQueue</text>
<text xml:space="preserve" text-anchor="middle" x="378.25" y="-293.88" font-family="Helvetica,sans-Serif" font-size="10.00">::processDue</text>
</a>
</g>
</g>
<!-- Node10&#45;&gt;Node11 -->
<g id="edge11_Node000010_Node000011" class="edge">
<title>Node10&#45;&gt;Node11</title>
<g id="a_edge11_Node000010_Node000011"><a xlink:title=" ">
<path fill="none" stroke="#63b8ff" d="M464.09,-295.97C456.02,-297.28 447.83,-298.61 439.88,-299.9"/>
<polygon fill="#63b8ff" stroke="#63b8ff" points="464.59,-299.43 473.9,-294.37 463.46,-292.52 464.59,-299.43"/>
</a>
</g>
</g>
<!-- Node12 -->
<g id="Node000012" class="node">
<title>Node12</title>
<g id="a_Node000012"><a xlink:href="classmqtt_1_1mqttbroker_1_1lib_1_1Mqtt_1_1DelayedQueue.html#a8becf2d97fc0f71a12ae5e84ea8b2a66" target="_top" xlink:title=" ">
<polygon fill="white" stroke="#666666" points="281,-332.88 158.5,-332.88 158.5,-286.62 281,-286.62 281,-332.88"/>
<text xml:space="preserve" text-anchor="start" x="166.5" y="-319.38" font-family="Helvetica,sans-Serif" font-size="10.00">mqtt::mqttbroker::lib</text>
<text xml:space="preserve" text-anchor="start" x="166.5" y="-306.62" font-family="Helvetica,sans-Serif" font-size="10.00">::Mqtt::DelayedQueue</text>
<text xml:space="preserve" text-anchor="middle" x="219.75" y="-293.88" font-family="Helvetica,sans-Serif" font-size="10.00">::armDelayTimer</text>
</a>
</g>
</g>
<!-- Node11&#45;&gt;Node12 -->
<g id="edge12_Node000011_Node000012" class="edge">
<title>Node11&#45;&gt;Node12</title>
<g id="a_edge12_Node000011_Node000012"><a xlink:title=" ">
<path fill="none" stroke="#63b8ff" d="M305.45,-309.75C297.4,-309.75 289.25,-309.75 281.35,-309.75"/>
<polygon fill="#63b8ff" stroke="#63b8ff" points="305.23,-313.25 315.23,-309.75 305.23,-306.25 305.23,-313.25"/>
</a>
</g>
</g>
<!-- Node12&#45;&gt;Node12 -->
<g id="edge13_Node000012_Node000012" class="edge">
<title>Node12&#45;&gt;Node12</title>
<g id="a_edge13_Node000012_Node000012"><a xlink:title=" ">
<path fill="none" stroke="#63b8ff" d="M245.82,-343.61C241.31,-347.98 232.62,-350.88 219.75,-350.88 198.08,-350.88 188.26,-342.68 190.29,-333"/>
<polygon fill="#63b8ff" stroke="#63b8ff" points="249.04,-345.04 248.75,-334.44 242.37,-342.9 249.04,-345.04"/>
</a>
</g>
</g>
<!-- Node13 -->
<g id="Node000013" class="node">
<title>Node13</title>
<g id="a_Node000013"><a xlink:href="classmqtt_1_1mqttbroker_1_1lib_1_1Mqtt_1_1DelayedQueue.html#a0cea5b90a1434e82da43bd2f4c6dd47c" target="_top" xlink:title=" ">
<polygon fill="white" stroke="#666666" points="122.5,-306.88 0,-306.88 0,-260.62 122.5,-260.62 122.5,-306.88"/>
<text xml:space="preserve" text-anchor="start" x="8" y="-293.38" font-family="Helvetica,sans-Serif" font-size="10.00">mqtt::mqttbroker::lib</text>
<text xml:space="preserve" text-anchor="start" x="8" y="-280.62" font-family="Helvetica,sans-Serif" font-size="10.00">::Mqtt::DelayedQueue</text>
<text xml:space="preserve" text-anchor="middle" x="61.25" y="-267.88" font-family="Helvetica,sans-Serif" font-size="10.00">::delayPublish</text>
</a>
</g>
</g>
<!-- Node12&#45;&gt;Node13 -->
<g id="edge14_Node000012_Node000013" class="edge">
<title>Node12&#45;&gt;Node13</title>
<g id="a_edge14_Node000012_Node000013"><a xlink:title=" ">
<path fill="none" stroke="#63b8ff" d="M146.95,-297.82C138.9,-296.48 130.75,-295.13 122.85,-293.82"/>
<polygon fill="#63b8ff" stroke="#63b8ff" points="146.31,-301.26 156.75,-299.45 147.46,-294.36 146.31,-301.26"/>
</a>
</g>
</g>
<!-- Node13&#45;&gt;Node10 -->
<g id="edge15_Node000013_Node000010" class="edge">
<title>Node13&#45;&gt;Node10</title>
<g id="a_edge15_Node000013_Node000010"><a xlink:title=" ">
<path fill="none" stroke="#63b8ff" d="M134.28,-278.77C142.45,-278.35 150.65,-277.99 158.5,-277.75 283.33,-273.86 314.7,-273.09 439.5,-277.75 451.06,-278.18 463.42,-278.91 475.23,-279.74"/>
<polygon fill="#63b8ff" stroke="#63b8ff" points="134.11,-275.27 124.32,-279.32 134.5,-282.26 134.11,-275.27"/>
</a>
</g>
</g>
<!-- Node19 -->
<g id="Node000019" class="node">
<title>Node19</title>
<g id="a_Node000019"><a xlink:href="classinja_1_1Parser.html#aa756be380c1083f47c6bd774eb3c8c38" target="_top" xlink:title=" ">
<polygon fill="white" stroke="#666666" points="1384.5,-59.5 1274.75,-59.5 1274.75,-26 1384.5,-26 1384.5,-59.5"/>
<text xml:space="preserve" text-anchor="start" x="1282.75" y="-46" font-family="Helvetica,sans-Serif" font-size="10.00">inja::Parser::add_to</text>
<text xml:space="preserve" text-anchor="middle" x="1329.62" y="-33.25" font-family="Helvetica,sans-Serif" font-size="10.00">_template_storage</text>
</a>
</g>
</g>
<!-- Node18&#45;&gt;Node19 -->
<g id="edge21_Node000018_Node000019" class="edge">
<title>Node18&#45;&gt;Node19</title>
<g id="a_edge21_Node000018_Node000019"><a xlink:title=" ">
<path fill="none" stroke="#63b8ff" d="M1412.12,-71.7C1401.13,-67.8 1389.77,-63.76 1379.15,-59.99"/>
<polygon fill="#63b8ff" stroke="#63b8ff" points="1410.92,-74.99 1421.51,-75.04 1413.26,-68.39 1410.92,-74.99"/>
</a>
</g>
</g>
<!-- Node20 -->
<g id="Node000020" class="node">
<title>Node20</title>
<g id="a_Node000020"><a xlink:href="classinja_1_1Environment.html#a85717fc369572292cce46e42a32e38f5" target="_top" xlink:title=" ">
<polygon fill="white" stroke="#666666" points="1383.75,-111.5 1275.5,-111.5 1275.5,-78 1383.75,-78 1383.75,-111.5"/>
<text xml:space="preserve" text-anchor="start" x="1283.5" y="-98" font-family="Helvetica,sans-Serif" font-size="10.00">inja::Environment::</text>
<text xml:space="preserve" text-anchor="middle" x="1329.62" y="-85.25" font-family="Helvetica,sans-Serif" font-size="10.00">parse_template</text>
</a>
</g>
</g>
<!-- Node18&#45;&gt;Node20 -->
<g id="edge23_Node000018_Node000020" class="edge">
<title>Node18&#45;&gt;Node20</title>
<g id="a_edge23_Node000018_Node000020"><a xlink:title=" ">
<path fill="none" stroke="#63b8ff" d="M1408.93,-93.64C1400.59,-93.76 1392.09,-93.88 1383.93,-93.99"/>
<polygon fill="#63b8ff" stroke="#63b8ff" points="1408.7,-97.14 1418.65,-93.5 1408.6,-90.14 1408.7,-97.14"/>
</a>
</g>
</g>
<!-- Node19&#45;&gt;Node2 -->
<g id="edge22_Node000019_Node000002" class="edge">
<title>Node19&#45;&gt;Node2</title>
<g id="a_edge22_Node000019_Node000002"><a xlink:title=" ">
<path fill="none" stroke="#63b8ff" d="M1396.11,-46.44C1485.27,-51.45 1643.02,-60.33 1723.91,-64.88"/>
<polygon fill="#63b8ff" stroke="#63b8ff" points="1396.48,-42.95 1386.3,-45.88 1396.09,-49.94 1396.48,-42.95"/>
</a>
</g>
</g>
<!-- Node21 -->
<g id="Node000021" class="node">
<title>Node21</title>
<g id="a_Node000021"><a xlink:href="classinja_1_1Environment.html#aec4165117f8d7242f813bb7859b86d18" target="_top" xlink:title=" ">
<polygon fill="white" stroke="#666666" points="1238.75,-111.5 1130.5,-111.5 1130.5,-78 1238.75,-78 1238.75,-111.5"/>
<text xml:space="preserve" text-anchor="start" x="1138.5" y="-98" font-family="Helvetica,sans-Serif" font-size="10.00">inja::Environment::</text>
<text xml:space="preserve" text-anchor="middle" x="1184.62" y="-85.25" font-family="Helvetica,sans-Serif" font-size="10.00">parse_file</text>
</a>
</g>
</g>
<!-- Node20&#45;&gt;Node21 -->
<g id="edge24_Node000020_Node000021" class="edge">
<title>Node20&#45;&gt;Node21</title>
<g id="a_edge24_Node000020_Node000021"><a xlink:title=" ">
<path fill="none" stroke="#63b8ff" d="M1264.04,-94.75C1255.64,-94.75 1247.11,-94.75 1238.92,-94.75"/>
<polygon fill="#63b8ff" stroke="#63b8ff" points="1263.86,-98.25 1273.86,-94.75 1263.86,-91.25 1263.86,-98.25"/>
</a>
</g>
</g>
<!-- Node22 -->
<g id="Node000022" class="node">
<title>Node22</title>
<g id="a_Node000022"><a xlink:href="classinja_1_1Environment.html#a3e30972fab0a5962c232f4c0f7002845" target="_top" xlink:title=" ">
<polygon fill="white" stroke="#666666" points="1238.75,-59.5 1130.5,-59.5 1130.5,-26 1238.75,-26 1238.75,-59.5"/>
<text xml:space="preserve" text-anchor="start" x="1138.5" y="-46" font-family="Helvetica,sans-Serif" font-size="10.00">inja::Environment::</text>
<text xml:space="preserve" text-anchor="middle" x="1184.62" y="-33.25" font-family="Helvetica,sans-Serif" font-size="10.00">render_file</text>
</a>
</g>
</g>
<!-- Node20&#45;&gt;Node22 -->
<g id="edge25_Node000020_Node000022" class="edge">
<title>Node20&#45;&gt;Node22</title>
<g id="a_edge25_Node000020_Node000022"><a xlink:title=" ">
<path fill="none" stroke="#63b8ff" d="M1270.94,-73.77C1258.27,-69.17 1245,-64.34 1232.8,-59.9"/>
<polygon fill="#63b8ff" stroke="#63b8ff" points="1269.39,-76.93 1279.98,-77.06 1271.78,-70.36 1269.39,-76.93"/>
</a>
</g>
</g>
<!-- Node23 -->
<g id="Node000023" class="node">
<title>Node23</title>
<g id="a_Node000023"><a xlink:href="classinja_1_1Environment.html#a815d87f3fb622a7639691803ff9a123b" target="_top" xlink:title=" ">
<polygon fill="white" stroke="#666666" points="1094.5,-85.5 953.25,-85.5 953.25,-52 1094.5,-52 1094.5,-85.5"/>
<text xml:space="preserve" text-anchor="start" x="961.25" y="-72" font-family="Helvetica,sans-Serif" font-size="10.00">inja::Environment::</text>
<text xml:space="preserve" text-anchor="middle" x="1023.88" y="-59.25" font-family="Helvetica,sans-Serif" font-size="10.00">render_file_with_json_file</text>
</a>
</g>
</g>
<!-- Node22&#45;&gt;Node23 -->
<g id="edge26_Node000022_Node000023" class="edge">
<title>Node22&#45;&gt;Node23</title>
<g id="a_edge26_Node000022_Node000023"><a xlink:title=" ">
<path fill="none" stroke="#63b8ff" d="M1119.21,-53.3C1111.22,-54.61 1103.02,-55.95 1094.95,-57.27"/>
<polygon fill="#63b8ff" stroke="#63b8ff" points="1119.53,-56.79 1128.83,-51.72 1118.39,-49.89 1119.53,-56.79"/>
</a>
</g>
</g>
<!-- Node24 -->
<g id="Node000024" class="node">
<title>Node24</title>
<g id="a_Node000024"><a xlink:href="classinja_1_1Environment.html#ae64c18f23f81e8ee787d406ccd4d35dc" target="_top" xlink:title=" ">
<polygon fill="white" stroke="#666666" points="1078,-33.5 969.75,-33.5 969.75,0 1078,0 1078,-33.5"/>
<text xml:space="preserve" text-anchor="start" x="977.75" y="-20" font-family="Helvetica,sans-Serif" font-size="10.00">inja::Environment::</text>
<text xml:space="preserve" text-anchor="middle" x="1023.88" y="-7.25" font-family="Helvetica,sans-Serif" font-size="10.00">write</text>
</a>
</g>
</g>
<!-- Node22&#45;&gt;Node24 -->
<g id="edge27_Node000022_Node000024" class="edge">
<title>Node22&#45;&gt;Node24</title>
<g id="a_edge27_Node000022_Node000024"><a xlink:title=" ">
<path fill="none" stroke="#63b8ff" d="M1119.11,-32.18C1105.56,-29.96 1091.4,-27.65 1078.31,-25.5"/>
<polygon fill="#63b8ff" stroke="#63b8ff" points="1118.39,-35.61 1128.83,-33.78 1119.53,-28.71 1118.39,-35.61"/>
</a>
</g>
</g>
<!-- Node25 -->
<g id="Node000025" class="node">
<title>Node25</title>
<g id="a_Node000025"><a xlink:href="classinja_1_1Environment.html#ad6a6b713e78516f4f6fd68c58f309f3c" target="_top" xlink:title=" ">
<polygon fill="white" stroke="#666666" points="909,-33.5 795.5,-33.5 795.5,0 909,0 909,-33.5"/>
<text xml:space="preserve" text-anchor="start" x="803.5" y="-20" font-family="Helvetica,sans-Serif" font-size="10.00">inja::Environment::</text>
<text xml:space="preserve" text-anchor="middle" x="852.25" y="-7.25" font-family="Helvetica,sans-Serif" font-size="10.00">write_with_json_file</text>
</a>
</g>
</g>
<!-- Node24&#45;&gt;Node25 -->
<g id="edge28_Node000024_Node000025" class="edge">
<title>Node24&#45;&gt;Node25</title>
<g id="a_edge28_Node000024_Node000025"><a xlink:title=" ">
<path fill="none" stroke="#63b8ff" d="M958.2,-16.75C942.16,-16.75 925.1,-16.75 909.49,-16.75"/>
<polygon fill="#63b8ff" stroke="#63b8ff" points="958.16,-20.25 968.16,-16.75 958.16,-13.25 958.16,-20.25"/>
</a>
</g>
</g>
</g>
</svg>
