<?xml version="1.0" encoding="UTF-8" standalone="no"?>
<!DOCTYPE svg PUBLIC "-//W3C//DTD SVG 1.1//EN"
 "http://www.w3.org/Graphics/SVG/1.1/DTD/svg11.dtd">
<!-- Generated by graphviz version 2.42.4 (0)
 -->
<!-- Title: anonymous_namespace{issue&#45;105&#45;verbose&#45;combination&#45;errors.cpp}::MyErrorHandler Pages: 1 -->
<svg width="307pt" height="132pt"
 viewBox="0.00 0.00 307.00 132.00" xmlns="http://www.w3.org/2000/svg" xmlns:xlink="http://www.w3.org/1999/xlink">

<svg id="main" version="1.1" xmlns="http://www.w3.org/2000/svg" xmlns:xlink="http://www.w3.org/1999/xlink" xml:space="preserve">

<style type="text/css"><![CDATA[
.node, .edge {opacity: 0.7;}
.node.selected, .edge.selected {opacity: 1;}
.edge:hover path { stroke: red; }
.edge:hover polygon { stroke: red; fill: red; }
]]></style>
<script type="application/ecmascript" xlink:href="svg.min.js"/>
<svg id="graph" class="graph">
<g id="graph0" class="graph" transform="scale(1 1) rotate(0) translate(4 128)">
<title>anonymous_namespace{issue&#45;105&#45;verbose&#45;combination&#45;errors.cpp}::MyErrorHandler</title>
<!-- Node1 -->
<g id="Node000001" class="node">
<title>Node1</title>
<g id="a_Node000001"><a xlink:title=" ">
<polygon fill="#999999" stroke="transparent" points="170,-41 0,-41 0,0 170,0 170,-41"/>
<text text-anchor="start" x="4.5" y="-28.5" font-family="Helvetica,sans-Serif" font-size="10.00">anonymous_namespace</text>
<text text-anchor="start" x="4.5" y="-17.5" font-family="Helvetica,sans-Serif" font-size="10.00">{issue&#45;105&#45;verbose&#45;combination</text>
<text text-anchor="start" x="14" y="-6.5" font-family="Helvetica,sans-Serif" font-size="10.00">&#45;errors.cpp}::MyErrorHandler</text>
<polygon fill="none" stroke="#666666" points="0,0 0,-41 170,-41 170,0 0,0"/>
</a>
</g>
</g>
<!-- Node2 -->
<g id="Node000002" class="node">
<title>Node2</title>
<g id="a_Node000002"><a xlink:href="classnlohmann_1_1json__schema_1_1error__handler.html" target="_top" xlink:title=" ">
<polygon fill="white" stroke="transparent" points="149,-124 21,-124 21,-94 149,-94 149,-124"/>
<text text-anchor="start" x="25.5" y="-112" font-family="Helvetica,sans-Serif" font-size="10.00">nlohmann::json_schema</text>
<text text-anchor="start" x="49" y="-101" font-family="Helvetica,sans-Serif" font-size="10.00">::error_handler</text>
<polygon fill="none" stroke="#666666" points="21,-94 21,-124 149,-124 149,-94 21,-94"/>
</a>
</g>
</g>
<!-- Node2&#45;&gt;Node1 -->
<g id="edge1_Node000001_Node000002" class="edge">
<title>Node2&#45;&gt;Node1</title>
<g id="a_edge1_Node000001_Node000002"><a xlink:title=" ">
<path fill="none" stroke="#63b8ff" d="M78.87,-83.75C77.94,-70.36 78.06,-53.93 79.22,-41.31"/>
<polygon fill="none" stroke="#63b8ff" points="75.38,-84.1 79.83,-93.72 82.35,-83.42 75.38,-84.1"/>
</a>
</g>
</g>
<!-- Node2&#45;&gt;Node1 -->
<g id="edge2_Node000001_Node000002" class="edge">
<title>Node2&#45;&gt;Node1</title>
<g id="a_edge2_Node000001_Node000002"><a xlink:title=" ">
<path fill="none" stroke="#63b8ff" d="M91.13,-83.75C92.06,-70.36 91.94,-53.93 90.78,-41.31"/>
<polygon fill="none" stroke="#63b8ff" points="87.65,-83.42 90.17,-93.72 94.62,-84.1 87.65,-83.42"/>
</a>
</g>
</g>
<!-- Node3 -->
<g id="Node000003" class="node">
<title>Node3</title>
<g id="a_Node000003"><a xlink:title=" ">
<polygon fill="white" stroke="transparent" points="299,-118.5 167,-118.5 167,-99.5 299,-99.5 299,-118.5"/>
<text text-anchor="start" x="171" y="-106" font-family="Helvetica,sans-Serif" font-size="10.00">std::vector&lt; ErrorEntry &gt;</text>
<polygon fill="none" stroke="#666666" points="167,-99.5 167,-118.5 299,-118.5 299,-99.5 167,-99.5"/>
</a>
</g>
</g>
<!-- Node3&#45;&gt;Node1 -->
<g id="edge3_Node000001_Node000003" class="edge">
<title>Node3&#45;&gt;Node1</title>
<g id="a_edge3_Node000001_Node000003"><a xlink:title=" ">
<path fill="none" stroke="#63b8ff" d="M218.27,-99.39C197.69,-87.36 159.47,-65.02 129.22,-47.34"/>
<polygon fill="none" stroke="#63b8ff" points="128.84,-47.12 121.64,-47.55 118.48,-41.07 125.68,-40.64 128.84,-47.12"/>
</a>
</g>
<text text-anchor="start" x="180.5" y="-64.5" font-family="Helvetica,sans-Serif" font-size="10.00" fill="grey">&#45;m_error_list</text>
</g>
</g>
</svg>
</svg>

<style type='text/css'>
<![CDATA[
[data-mouse-over-selected='false'] { opacity: 0.7; }
[data-mouse-over-selected='true']  { opacity: 1.0; }
]]>
</style>
<script type="application/ecmascript"><![CDATA[
document.addEventListener('DOMContentLoaded', (event) => {
  highlightEdges();
  highlightAdjacentNodes();
});
]]></script>
</svg>
