<?xml version="1.0" encoding="UTF-8" standalone="no"?>
<!DOCTYPE svg PUBLIC "-//W3C//DTD SVG 1.1//EN"
 "http://www.w3.org/Graphics/SVG/1.1/DTD/svg11.dtd">
<!-- Generated by graphviz version 2.42.4 (0)
 -->
<!-- Title: inja::Environment::parse_template Pages: 1 -->
<svg width="1889pt" height="566pt"
 viewBox="0.00 0.00 1889.00 566.40" xmlns="http://www.w3.org/2000/svg" xmlns:xlink="http://www.w3.org/1999/xlink">
<g id="graph0" class="graph" transform="scale(1 1) rotate(0) translate(4 562.4)">
<title>inja::Environment::parse_template</title>
<!-- Node1 -->
<g id="Node000001" class="node">
<title>Node1</title>
<g id="a_Node000001"><a xlink:title=" ">
<polygon fill="#999999" stroke="#666666" points="109,-81.5 0,-81.5 0,-51.5 109,-51.5 109,-81.5"/>
<text text-anchor="start" x="8" y="-69.5" font-family="Helvetica,sans-Serif" font-size="10.00">inja::Environment::</text>
<text text-anchor="middle" x="54.5" y="-58.5" font-family="Helvetica,sans-Serif" font-size="10.00">parse_template</text>
</a>
</g>
</g>
<!-- Node2 -->
<g id="Node000002" class="node">
<title>Node2</title>
<g id="a_Node000002"><a xlink:href="classinja_1_1Parser.html#a08f9845245e383ab99e73b200c3cdb5f" target="_top" xlink:title=" ">
<polygon fill="white" stroke="#666666" points="264,-19 145,-19 145,0 264,0 264,-19"/>
<text text-anchor="middle" x="204.5" y="-7" font-family="Helvetica,sans-Serif" font-size="10.00">inja::Parser::load_file</text>
</a>
</g>
</g>
<!-- Node1&#45;&gt;Node2 -->
<g id="edge1_Node000001_Node000002" class="edge">
<title>Node1&#45;&gt;Node2</title>
<g id="a_edge1_Node000001_Node000002"><a xlink:title=" ">
<path fill="none" stroke="#63b8ff" d="M94.77,-51.37C117.9,-42.47 146.87,-31.31 169.1,-22.75"/>
<polygon fill="#63b8ff" stroke="#63b8ff" points="170.4,-26 178.48,-19.14 167.89,-19.46 170.4,-26"/>
</a>
</g>
</g>
<!-- Node5 -->
<g id="Node000005" class="node">
<title>Node5</title>
<g id="a_Node000005"><a xlink:href="classinja_1_1Parser.html#a8c6a03b6665745f216ba86f5e514a913" target="_top" xlink:title=" ">
<polygon fill="white" stroke="#666666" points="256.5,-81.5 152.5,-81.5 152.5,-51.5 256.5,-51.5 256.5,-81.5"/>
<text text-anchor="start" x="160.5" y="-69.5" font-family="Helvetica,sans-Serif" font-size="10.00">inja::Parser::parse</text>
<text text-anchor="middle" x="204.5" y="-58.5" font-family="Helvetica,sans-Serif" font-size="10.00">_into_template</text>
</a>
</g>
</g>
<!-- Node1&#45;&gt;Node5 -->
<g id="edge4_Node000001_Node000005" class="edge">
<title>Node1&#45;&gt;Node5</title>
<g id="a_edge4_Node000001_Node000005"><a xlink:title=" ">
<path fill="none" stroke="#63b8ff" d="M109.35,-66.5C120,-66.5 131.25,-66.5 142.12,-66.5"/>
<polygon fill="#63b8ff" stroke="#63b8ff" points="142.4,-70 152.4,-66.5 142.4,-63 142.4,-70"/>
</a>
</g>
</g>
<!-- Node33 -->
<g id="Node000033" class="node">
<title>Node33</title>
<g id="a_Node000033"><a xlink:href="structinja_1_1Template.html#a0f073d8168095f8ce86d0c7ac9060948" target="_top" xlink:title=" ">
<polygon fill="white" stroke="#666666" points="887,-116 750,-116 750,-97 887,-97 887,-116"/>
<text text-anchor="middle" x="818.5" y="-104" font-family="Helvetica,sans-Serif" font-size="10.00">inja::Template::Template</text>
</a>
</g>
</g>
<!-- Node1&#45;&gt;Node33 -->
<g id="edge58_Node000001_Node000033" class="edge">
<title>Node1&#45;&gt;Node33</title>
<g id="a_edge58_Node000001_Node000033"><a xlink:title=" ">
<path fill="none" stroke="#63b8ff" d="M105.33,-81.52C118.16,-84.92 132.01,-88.21 145,-90.5 240.78,-107.38 265.74,-109.5 363,-109.5 363,-109.5 363,-109.5 517,-109.5 592.58,-109.5 678.85,-108.54 739.51,-107.71"/>
<polygon fill="#63b8ff" stroke="#63b8ff" points="739.82,-111.2 749.77,-107.56 739.73,-104.2 739.82,-111.2"/>
</a>
</g>
</g>
<!-- Node3 -->
<g id="Node000003" class="node">
<title>Node3</title>
<g id="a_Node000003"><a xlink:href="structinja_1_1FileError.html#a0912694cd232d6cd688f0f68336145c9" target="_top" xlink:title=" ">
<polygon fill="white" stroke="#666666" points="881.5,-41 755.5,-41 755.5,-22 881.5,-22 881.5,-41"/>
<text text-anchor="middle" x="818.5" y="-29" font-family="Helvetica,sans-Serif" font-size="10.00">inja::FileError::FileError</text>
</a>
</g>
</g>
<!-- Node2&#45;&gt;Node3 -->
<g id="edge2_Node000002_Node000003" class="edge">
<title>Node2&#45;&gt;Node3</title>
<g id="a_edge2_Node000002_Node000003"><a xlink:title=" ">
<path fill="none" stroke="#63b8ff" d="M264.07,-10.48C308.94,-11.31 372.39,-12.66 428,-14.5 538.71,-18.16 667.05,-24.09 745.23,-27.89"/>
<polygon fill="#63b8ff" stroke="#63b8ff" points="745.29,-31.4 755.45,-28.39 745.64,-24.4 745.29,-31.4"/>
</a>
</g>
</g>
<!-- Node4 -->
<g id="Node000004" class="node">
<title>Node4</title>
<g id="a_Node000004"><a xlink:href="structinja_1_1InjaError.html#a0b31b1a26674ec73a9702f41155608da" target="_top" xlink:title=" ">
<polygon fill="white" stroke="#666666" points="1052,-41 923,-41 923,-22 1052,-22 1052,-41"/>
<text text-anchor="middle" x="987.5" y="-29" font-family="Helvetica,sans-Serif" font-size="10.00">inja::InjaError::InjaError</text>
</a>
</g>
</g>
<!-- Node3&#45;&gt;Node4 -->
<g id="edge3_Node000003_Node000004" class="edge">
<title>Node3&#45;&gt;Node4</title>
<g id="a_edge3_Node000003_Node000004"><a xlink:title=" ">
<path fill="none" stroke="#63b8ff" d="M881.68,-31.5C891.77,-31.5 902.3,-31.5 912.63,-31.5"/>
<polygon fill="#63b8ff" stroke="#63b8ff" points="912.87,-35 922.87,-31.5 912.87,-28 912.87,-35"/>
</a>
</g>
</g>
<!-- Node6 -->
<g id="Node000006" class="node">
<title>Node6</title>
<g id="a_Node000006"><a xlink:href="classinja_1_1Lexer.html#a2db4f5d064131f1205960c11de0ea5aa" target="_top" xlink:title=" ">
<polygon fill="white" stroke="#666666" points="426.5,-43 301.5,-43 301.5,-24 426.5,-24 426.5,-43"/>
<text text-anchor="middle" x="364" y="-31" font-family="Helvetica,sans-Serif" font-size="10.00">inja::Lexer::get_config</text>
</a>
</g>
</g>
<!-- Node5&#45;&gt;Node6 -->
<g id="edge5_Node000005_Node000006" class="edge">
<title>Node5&#45;&gt;Node6</title>
<g id="a_edge5_Node000005_Node000006"><a xlink:title=" ">
<path fill="none" stroke="#63b8ff" d="M256.64,-55.79C272.85,-52.39 290.86,-48.62 307.37,-45.16"/>
<polygon fill="#63b8ff" stroke="#63b8ff" points="308.36,-48.52 317.43,-43.05 306.93,-41.67 308.36,-48.52"/>
</a>
</g>
</g>
<!-- Node7 -->
<g id="Node000007" class="node">
<title>Node7</title>
<g id="a_Node000007"><a xlink:href="classinja_1_1Parser.html#a9a561141f71073df671b2b7ecb4608ba" target="_top" xlink:title=" ">
<polygon fill="white" stroke="#666666" points="428,-355 300,-355 300,-336 428,-336 428,-355"/>
<text text-anchor="middle" x="364" y="-343" font-family="Helvetica,sans-Serif" font-size="10.00">inja::Parser::parse_into</text>
</a>
</g>
</g>
<!-- Node5&#45;&gt;Node7 -->
<g id="edge6_Node000005_Node000007" class="edge">
<title>Node5&#45;&gt;Node7</title>
<g id="a_edge6_Node000005_Node000007"><a xlink:title=" ">
<path fill="none" stroke="#63b8ff" d="M213.97,-81.5C240.74,-128.92 323.5,-275.53 352.68,-327.23"/>
<polygon fill="#63b8ff" stroke="#63b8ff" points="349.67,-329 357.63,-335.99 355.76,-325.56 349.67,-329"/>
</a>
</g>
</g>
<!-- Node8 -->
<g id="Node000008" class="node">
<title>Node8</title>
<g id="a_Node000008"><a xlink:href="structinja_1_1Token.html#adc8c0a84e2d4ce0a3625c399bd259f1f" target="_top" xlink:title=" ">
<polygon fill="white" stroke="#666666" points="1045.5,-282 929.5,-282 929.5,-263 1045.5,-263 1045.5,-282"/>
<text text-anchor="middle" x="987.5" y="-270" font-family="Helvetica,sans-Serif" font-size="10.00">inja::Token::describe</text>
</a>
</g>
</g>
<!-- Node7&#45;&gt;Node8 -->
<g id="edge7_Node000007_Node000008" class="edge">
<title>Node7&#45;&gt;Node8</title>
<g id="a_edge7_Node000007_Node000008"><a xlink:title=" ">
<path fill="none" stroke="#63b8ff" d="M428.09,-338.2C526.23,-326.84 721.42,-304.16 887,-284.5 897.41,-283.26 908.43,-281.95 919.2,-280.65"/>
<polygon fill="#63b8ff" stroke="#63b8ff" points="919.91,-284.09 929.42,-279.42 919.07,-277.14 919.91,-284.09"/>
</a>
</g>
</g>
<!-- Node9 -->
<g id="Node000009" class="node">
<title>Node9</title>
<g id="a_Node000009"><a xlink:href="classinja_1_1Parser.html#ab8bb45bc1eeead74f630efa420ee6212" target="_top" xlink:title=" ">
<polygon fill="white" stroke="#666666" points="1047.5,-428.5 927.5,-428.5 927.5,-398.5 1047.5,-398.5 1047.5,-428.5"/>
<text text-anchor="start" x="935.5" y="-416.5" font-family="Helvetica,sans-Serif" font-size="10.00">inja::Parser::get_next</text>
<text text-anchor="middle" x="987.5" y="-405.5" font-family="Helvetica,sans-Serif" font-size="10.00">_token</text>
</a>
</g>
</g>
<!-- Node7&#45;&gt;Node9 -->
<g id="edge8_Node000007_Node000009" class="edge">
<title>Node7&#45;&gt;Node9</title>
<g id="a_edge8_Node000007_Node000009"><a xlink:title=" ">
<path fill="none" stroke="#63b8ff" d="M388.72,-355.12C408.59,-362.94 437.84,-373.88 464,-381.5 645.27,-434.28 698.32,-427.13 887,-420.5 896.8,-420.16 907.13,-419.62 917.28,-419"/>
<polygon fill="#63b8ff" stroke="#63b8ff" points="917.59,-422.49 927.35,-418.35 917.14,-415.5 917.59,-422.49"/>
</a>
</g>
</g>
<!-- Node22 -->
<g id="Node000022" class="node">
<title>Node22</title>
<g id="a_Node000022"><a xlink:href="classinja_1_1Parser.html#aeb66164c89e8c71cae3c93c24d7c7be2" target="_top" xlink:title=" ">
<polygon fill="white" stroke="#666666" points="711,-403.5 607,-403.5 607,-373.5 711,-373.5 711,-403.5"/>
<text text-anchor="start" x="615" y="-391.5" font-family="Helvetica,sans-Serif" font-size="10.00">inja::Parser::parse</text>
<text text-anchor="middle" x="659" y="-380.5" font-family="Helvetica,sans-Serif" font-size="10.00">_expression</text>
</a>
</g>
</g>
<!-- Node7&#45;&gt;Node22 -->
<g id="edge29_Node000007_Node000022" class="edge">
<title>Node7&#45;&gt;Node22</title>
<g id="a_edge29_Node000007_Node000022"><a xlink:title=" ">
<path fill="none" stroke="#63b8ff" d="M428.22,-354.78C478.11,-362.1 547.3,-372.25 596.69,-379.5"/>
<polygon fill="#63b8ff" stroke="#63b8ff" points="596.2,-382.97 606.6,-380.96 597.22,-376.04 596.2,-382.97"/>
</a>
</g>
</g>
<!-- Node26 -->
<g id="Node000026" class="node">
<title>Node26</title>
<g id="a_Node000026"><a xlink:href="classinja_1_1Parser.html#a1b11e4984c1934c4e670a609f728ceee" target="_top" xlink:title=" ">
<polygon fill="white" stroke="#666666" points="1040,-200.5 935,-200.5 935,-170.5 1040,-170.5 1040,-200.5"/>
<text text-anchor="start" x="943" y="-188.5" font-family="Helvetica,sans-Serif" font-size="10.00">inja::Parser::throw</text>
<text text-anchor="middle" x="987.5" y="-177.5" font-family="Helvetica,sans-Serif" font-size="10.00">_parser_error</text>
</a>
</g>
</g>
<!-- Node7&#45;&gt;Node26 -->
<g id="edge57_Node000007_Node000026" class="edge">
<title>Node7&#45;&gt;Node26</title>
<g id="a_edge57_Node000007_Node000026"><a xlink:title=" ">
<path fill="none" stroke="#63b8ff" d="M371.75,-335.92C386.28,-316.02 422.58,-270.01 464,-245.5 610.77,-158.64 821.51,-166.59 924.75,-177.24"/>
<polygon fill="#63b8ff" stroke="#63b8ff" points="924.38,-180.72 934.7,-178.31 925.13,-173.76 924.38,-180.72"/>
</a>
</g>
</g>
<!-- Node31 -->
<g id="Node000031" class="node">
<title>Node31</title>
<g id="a_Node000031"><a xlink:href="classinja_1_1Parser.html#a5a26bdcce0ae076bf010ee7442d8928e" target="_top" xlink:title=" ">
<polygon fill="white" stroke="#666666" points="568,-284.5 464,-284.5 464,-254.5 568,-254.5 568,-284.5"/>
<text text-anchor="start" x="472" y="-272.5" font-family="Helvetica,sans-Serif" font-size="10.00">inja::Parser::parse</text>
<text text-anchor="middle" x="516" y="-261.5" font-family="Helvetica,sans-Serif" font-size="10.00">_statement</text>
</a>
</g>
</g>
<!-- Node7&#45;&gt;Node31 -->
<g id="edge43_Node000007_Node000031" class="edge">
<title>Node7&#45;&gt;Node31</title>
<g id="a_edge43_Node000007_Node000031"><a xlink:title=" ">
<path fill="none" stroke="#63b8ff" d="M384,-335.87C407.05,-324.2 446.49,-304.21 476.08,-289.22"/>
<polygon fill="#63b8ff" stroke="#63b8ff" points="477.98,-292.18 485.31,-284.54 474.81,-285.94 477.98,-292.18"/>
</a>
</g>
</g>
<!-- Node35 -->
<g id="Node000035" class="node">
<title>Node35</title>
<g id="a_Node000035"><a xlink:href="classinja_1_1Lexer.html#afab5a4a53539d89c7441f249a751da01" target="_top" xlink:title=" ">
<polygon fill="white" stroke="#666666" points="564,-530 468,-530 468,-511 564,-511 564,-530"/>
<text text-anchor="middle" x="516" y="-518" font-family="Helvetica,sans-Serif" font-size="10.00">inja::Lexer::start</text>
</a>
</g>
</g>
<!-- Node7&#45;&gt;Node35 -->
<g id="edge55_Node000007_Node000035" class="edge">
<title>Node7&#45;&gt;Node35</title>
<g id="a_edge55_Node000007_Node000035"><a xlink:title=" ">
<path fill="none" stroke="#63b8ff" d="M372.77,-355.3C389.23,-375.98 428.97,-425.46 464,-465.5 475.34,-478.46 488.58,-492.72 498.73,-503.46"/>
<polygon fill="#63b8ff" stroke="#63b8ff" points="496.38,-506.07 505.8,-510.92 501.46,-501.26 496.38,-506.07"/>
</a>
</g>
</g>
<!-- Node10 -->
<g id="Node000010" class="node">
<title>Node10</title>
<g id="a_Node000010"><a xlink:href="classinja_1_1Lexer.html#a8c85efa9536869c371b8afb609e0d8d2" target="_top" xlink:title=" ">
<polygon fill="white" stroke="#666666" points="1190,-412 1094,-412 1094,-393 1190,-393 1190,-412"/>
<text text-anchor="middle" x="1142" y="-400" font-family="Helvetica,sans-Serif" font-size="10.00">inja::Lexer::scan</text>
</a>
</g>
</g>
<!-- Node9&#45;&gt;Node10 -->
<g id="edge9_Node000009_Node000010" class="edge">
<title>Node9&#45;&gt;Node10</title>
<g id="a_edge9_Node000009_Node000010"><a xlink:title=" ">
<path fill="none" stroke="#63b8ff" d="M1047.9,-409.22C1059.67,-408.37 1072.01,-407.48 1083.71,-406.63"/>
<polygon fill="#63b8ff" stroke="#63b8ff" points="1084.07,-410.12 1093.8,-405.9 1083.57,-403.13 1084.07,-410.12"/>
</a>
</g>
</g>
<!-- Node11 -->
<g id="Node000011" class="node">
<title>Node11</title>
<g id="a_Node000011"><a xlink:href="classinja_1_1Lexer.html#a0f4034e3151f72f121fb4f2b63374ce1" target="_top" xlink:title=" ">
<polygon fill="white" stroke="#666666" points="1372,-374.5 1232,-374.5 1232,-344.5 1372,-344.5 1372,-374.5"/>
<text text-anchor="start" x="1240" y="-362.5" font-family="Helvetica,sans-Serif" font-size="10.00">inja::Lexer::clear</text>
<text text-anchor="middle" x="1302" y="-351.5" font-family="Helvetica,sans-Serif" font-size="10.00">_final_line_if_whitespace</text>
</a>
</g>
</g>
<!-- Node10&#45;&gt;Node11 -->
<g id="edge10_Node000010_Node000011" class="edge">
<title>Node10&#45;&gt;Node11</title>
<g id="a_edge10_Node000010_Node000011"><a xlink:title=" ">
<path fill="none" stroke="#63b8ff" d="M1178.07,-392.96C1195.1,-388.32 1216.13,-382.6 1235.94,-377.21"/>
<polygon fill="#63b8ff" stroke="#63b8ff" points="1237.13,-380.51 1245.86,-374.51 1235.29,-373.76 1237.13,-380.51"/>
</a>
</g>
</g>
<!-- Node12 -->
<g id="Node000012" class="node">
<title>Node12</title>
<g id="a_Node000012"><a xlink:href="classinja_1_1Lexer.html#a6088871283d1a03087b325b88c9396f4" target="_top" xlink:title=" ">
<polygon fill="white" stroke="#666666" points="1739.5,-438 1606.5,-438 1606.5,-419 1739.5,-419 1739.5,-438"/>
<text text-anchor="middle" x="1673" y="-426" font-family="Helvetica,sans-Serif" font-size="10.00">inja::Lexer::make_token</text>
</a>
</g>
</g>
<!-- Node10&#45;&gt;Node12 -->
<g id="edge11_Node000010_Node000012" class="edge">
<title>Node10&#45;&gt;Node12</title>
<g id="a_edge11_Node000010_Node000012"><a xlink:title=" ">
<path fill="none" stroke="#63b8ff" d="M1154.16,-412.03C1170.42,-425.55 1201.96,-450.43 1232,-466.5 1305.67,-505.9 1325.8,-517.59 1408,-532.5 1477.97,-545.19 1502.3,-559.71 1568,-532.5 1610.05,-515.08 1643.96,-471.51 1660.68,-446.64"/>
<polygon fill="#63b8ff" stroke="#63b8ff" points="1663.7,-448.41 1666.23,-438.12 1657.84,-444.59 1663.7,-448.41"/>
</a>
</g>
</g>
<!-- Node13 -->
<g id="Node000013" class="node">
<title>Node13</title>
<g id="a_Node000013"><a xlink:href="namespaceinja_1_1string__view.html#a898871016595d8f34d1b4ea55b3e8684" target="_top" xlink:title=" ">
<polygon fill="white" stroke="#666666" points="1881,-233.5 1778,-233.5 1778,-203.5 1881,-203.5 1881,-233.5"/>
<text text-anchor="start" x="1786" y="-221.5" font-family="Helvetica,sans-Serif" font-size="10.00">inja::string_view::</text>
<text text-anchor="middle" x="1829.5" y="-210.5" font-family="Helvetica,sans-Serif" font-size="10.00">slice</text>
</a>
</g>
</g>
<!-- Node10&#45;&gt;Node13 -->
<g id="edge26_Node000010_Node000013" class="edge">
<title>Node10&#45;&gt;Node13</title>
<g id="a_edge26_Node000010_Node000013"><a xlink:title=" ">
<path fill="none" stroke="#63b8ff" d="M1147.24,-392.97C1157.94,-370.11 1188.29,-311.86 1232,-282.5 1318.48,-224.41 1634.02,-218.03 1767.85,-218.01"/>
<polygon fill="#63b8ff" stroke="#63b8ff" points="1767.92,-221.51 1777.93,-218.02 1767.93,-214.51 1767.92,-221.51"/>
</a>
</g>
</g>
<!-- Node14 -->
<g id="Node000014" class="node">
<title>Node14</title>
<g id="a_Node000014"><a xlink:href="structinja_1_1Token.html#ae215b2b1e365fc7c4060895b604e2430" target="_top" xlink:title=" ">
<polygon fill="white" stroke="#666666" points="1880.5,-518 1778.5,-518 1778.5,-499 1880.5,-499 1880.5,-518"/>
<text text-anchor="middle" x="1829.5" y="-506" font-family="Helvetica,sans-Serif" font-size="10.00">inja::Token::Token</text>
</a>
</g>
</g>
<!-- Node10&#45;&gt;Node14 -->
<g id="edge28_Node000010_Node000014" class="edge">
<title>Node10&#45;&gt;Node14</title>
<g id="a_edge28_Node000010_Node000014"><a xlink:title=" ">
<path fill="none" stroke="#63b8ff" d="M1148.22,-412.25C1160.09,-433.45 1191.29,-483.92 1232,-509.5 1300.27,-552.4 1327.97,-543.65 1408,-553.5 1543.64,-570.2 1704.35,-538.82 1781.95,-520.45"/>
<polygon fill="#63b8ff" stroke="#63b8ff" points="1782.99,-523.8 1791.89,-518.06 1781.35,-517 1782.99,-523.8"/>
</a>
</g>
</g>
<!-- Node15 -->
<g id="Node000015" class="node">
<title>Node15</title>
<g id="a_Node000015"><a xlink:href="classinja_1_1Lexer.html#aa342980e23b7a9fa633e82cf38c3c682" target="_top" xlink:title=" ">
<polygon fill="white" stroke="#666666" points="1364.5,-412 1239.5,-412 1239.5,-393 1364.5,-393 1364.5,-412"/>
<text text-anchor="middle" x="1302" y="-400" font-family="Helvetica,sans-Serif" font-size="10.00">inja::Lexer::scan_body</text>
</a>
</g>
</g>
<!-- Node10&#45;&gt;Node15 -->
<g id="edge14_Node000010_Node000015" class="edge">
<title>Node10&#45;&gt;Node15</title>
<g id="a_edge14_Node000010_Node000015"><a xlink:title=" ">
<path fill="none" stroke="#63b8ff" d="M1190.41,-402.5C1202.65,-402.5 1216.1,-402.5 1229.28,-402.5"/>
<polygon fill="#63b8ff" stroke="#63b8ff" points="1229.28,-406 1239.28,-402.5 1229.28,-399 1229.28,-406"/>
</a>
</g>
</g>
<!-- Node19 -->
<g id="Node000019" class="node">
<title>Node19</title>
<g id="a_Node000019"><a xlink:href="classinja_1_1Lexer.html#ae4dcb266522442d430dcb8d381b5fdb1" target="_top" xlink:title=" ">
<polygon fill="white" stroke="#666666" points="1568,-276.5 1408,-276.5 1408,-246.5 1568,-246.5 1568,-276.5"/>
<text text-anchor="start" x="1416" y="-264.5" font-family="Helvetica,sans-Serif" font-size="10.00">inja::Lexer::skip_whitespaces</text>
<text text-anchor="middle" x="1488" y="-253.5" font-family="Helvetica,sans-Serif" font-size="10.00">_and_first_newline</text>
</a>
</g>
</g>
<!-- Node10&#45;&gt;Node19 -->
<g id="edge25_Node000010_Node000019" class="edge">
<title>Node10&#45;&gt;Node19</title>
<g id="a_edge25_Node000010_Node000019"><a xlink:title=" ">
<path fill="none" stroke="#63b8ff" d="M1153.12,-392.89C1168.82,-378.47 1200.52,-351.25 1232,-335.5 1284.56,-309.2 1348.02,-290.75 1398.48,-278.84"/>
<polygon fill="#63b8ff" stroke="#63b8ff" points="1399.44,-282.21 1408.4,-276.55 1397.86,-275.39 1399.44,-282.21"/>
</a>
</g>
</g>
<!-- Node21 -->
<g id="Node000021" class="node">
<title>Node21</title>
<g id="a_Node000021"><a xlink:href="namespaceinja_1_1string__view.html#a78e9922c080101c22e54419f7caa83d8" target="_top" xlink:title=" ">
<polygon fill="white" stroke="#666666" points="1539.5,-523.5 1436.5,-523.5 1436.5,-493.5 1539.5,-493.5 1539.5,-523.5"/>
<text text-anchor="start" x="1444.5" y="-511.5" font-family="Helvetica,sans-Serif" font-size="10.00">inja::string_view::</text>
<text text-anchor="middle" x="1488" y="-500.5" font-family="Helvetica,sans-Serif" font-size="10.00">starts_with</text>
</a>
</g>
</g>
<!-- Node10&#45;&gt;Node21 -->
<g id="edge27_Node000010_Node000021" class="edge">
<title>Node10&#45;&gt;Node21</title>
<g id="a_edge27_Node000010_Node000021"><a xlink:title=" ">
<path fill="none" stroke="#63b8ff" d="M1173.59,-412.02C1222.9,-427.36 1323.05,-458.45 1408,-484.5 1414.35,-486.45 1421,-488.48 1427.62,-490.5"/>
<polygon fill="#63b8ff" stroke="#63b8ff" points="1426.67,-493.87 1437.26,-493.43 1428.71,-487.17 1426.67,-493.87"/>
</a>
</g>
</g>
<!-- Node12&#45;&gt;Node13 -->
<g id="edge12_Node000012_Node000013" class="edge">
<title>Node12&#45;&gt;Node13</title>
<g id="a_edge12_Node000012_Node000013"><a xlink:title=" ">
<path fill="none" stroke="#63b8ff" d="M1681.04,-418.93C1704.06,-387.65 1777.52,-287.79 1811.26,-241.93"/>
<polygon fill="#63b8ff" stroke="#63b8ff" points="1814.16,-243.9 1817.27,-233.77 1808.52,-239.75 1814.16,-243.9"/>
</a>
</g>
</g>
<!-- Node12&#45;&gt;Node14 -->
<g id="edge13_Node000012_Node000014" class="edge">
<title>Node12&#45;&gt;Node14</title>
<g id="a_edge13_Node000012_Node000014"><a xlink:title=" ">
<path fill="none" stroke="#63b8ff" d="M1692.64,-438.15C1719.55,-452.08 1769.48,-477.94 1800.74,-494.13"/>
<polygon fill="#63b8ff" stroke="#63b8ff" points="1799.31,-497.33 1809.8,-498.82 1802.53,-491.11 1799.31,-497.33"/>
</a>
</g>
</g>
<!-- Node15&#45;&gt;Node12 -->
<g id="edge15_Node000015_Node000012" class="edge">
<title>Node15&#45;&gt;Node12</title>
<g id="a_edge15_Node000015_Node000012"><a xlink:title=" ">
<path fill="none" stroke="#63b8ff" d="M1364.74,-401.9C1418.55,-401.97 1498.62,-403.48 1568,-410.5 1583.48,-412.07 1600.13,-414.57 1615.47,-417.22"/>
<polygon fill="#63b8ff" stroke="#63b8ff" points="1614.88,-420.67 1625.34,-418.98 1616.11,-413.78 1614.88,-420.67"/>
</a>
</g>
</g>
<!-- Node16 -->
<g id="Node000016" class="node">
<title>Node16</title>
<g id="a_Node000016"><a xlink:href="classinja_1_1Lexer.html#acb4ddc9702038530f73db97c701a60a5" target="_top" xlink:title=" ">
<polygon fill="white" stroke="#666666" points="1543,-314 1433,-314 1433,-295 1543,-295 1543,-314"/>
<text text-anchor="middle" x="1488" y="-302" font-family="Helvetica,sans-Serif" font-size="10.00">inja::Lexer::scan_id</text>
</a>
</g>
</g>
<!-- Node15&#45;&gt;Node16 -->
<g id="edge16_Node000015_Node000016" class="edge">
<title>Node15&#45;&gt;Node16</title>
<g id="a_edge16_Node000015_Node000016"><a xlink:title=" ">
<path fill="none" stroke="#63b8ff" d="M1354.81,-392.98C1360.95,-390.51 1366.85,-387.41 1372,-383.5 1396.77,-364.69 1382.93,-341.9 1408,-323.5 1412.55,-320.16 1417.6,-317.4 1422.9,-315.12"/>
<polygon fill="#63b8ff" stroke="#63b8ff" points="1424.47,-318.27 1432.63,-311.52 1422.03,-311.71 1424.47,-318.27"/>
</a>
</g>
</g>
<!-- Node17 -->
<g id="Node000017" class="node">
<title>Node17</title>
<g id="a_Node000017"><a xlink:href="classinja_1_1Lexer.html#ab9aa4522a541720d58268d7d3e27e63f" target="_top" xlink:title=" ">
<polygon fill="white" stroke="#666666" points="1557.5,-475 1418.5,-475 1418.5,-456 1557.5,-456 1557.5,-475"/>
<text text-anchor="middle" x="1488" y="-463" font-family="Helvetica,sans-Serif" font-size="10.00">inja::Lexer::scan_number</text>
</a>
</g>
</g>
<!-- Node15&#45;&gt;Node17 -->
<g id="edge18_Node000015_Node000017" class="edge">
<title>Node15&#45;&gt;Node17</title>
<g id="a_edge18_Node000015_Node000017"><a xlink:title=" ">
<path fill="none" stroke="#63b8ff" d="M1322.33,-412.04C1343.1,-421.99 1377.26,-437.5 1408,-447.5 1414.56,-449.63 1421.51,-451.61 1428.45,-453.41"/>
<polygon fill="#63b8ff" stroke="#63b8ff" points="1428.03,-456.91 1438.58,-455.93 1429.72,-450.12 1428.03,-456.91"/>
</a>
</g>
</g>
<!-- Node18 -->
<g id="Node000018" class="node">
<title>Node18</title>
<g id="a_Node000018"><a xlink:href="classinja_1_1Lexer.html#a3e8f3f7d8569fa5d781633b57a6bdcca" target="_top" xlink:title=" ">
<polygon fill="white" stroke="#666666" points="1552.5,-438 1423.5,-438 1423.5,-419 1552.5,-419 1552.5,-438"/>
<text text-anchor="middle" x="1488" y="-426" font-family="Helvetica,sans-Serif" font-size="10.00">inja::Lexer::scan_string</text>
</a>
</g>
</g>
<!-- Node15&#45;&gt;Node18 -->
<g id="edge20_Node000015_Node000018" class="edge">
<title>Node15&#45;&gt;Node18</title>
<g id="a_edge20_Node000015_Node000018"><a xlink:title=" ">
<path fill="none" stroke="#63b8ff" d="M1364.53,-411.19C1380.18,-413.41 1397.17,-415.81 1413.37,-418.1"/>
<polygon fill="#63b8ff" stroke="#63b8ff" points="1412.94,-421.57 1423.33,-419.5 1413.92,-414.64 1412.94,-421.57"/>
</a>
</g>
</g>
<!-- Node15&#45;&gt;Node19 -->
<g id="edge22_Node000015_Node000019" class="edge">
<title>Node15&#45;&gt;Node19</title>
<g id="a_edge22_Node000015_Node000019"><a xlink:title=" ">
<path fill="none" stroke="#63b8ff" d="M1357.61,-392.92C1362.86,-390.45 1367.79,-387.36 1372,-383.5 1405.89,-352.42 1374.7,-318.21 1408,-286.5 1409.65,-284.93 1411.4,-283.46 1413.23,-282.07"/>
<polygon fill="#63b8ff" stroke="#63b8ff" points="1415.2,-284.97 1421.7,-276.6 1411.4,-279.09 1415.2,-284.97"/>
</a>
</g>
</g>
<!-- Node20 -->
<g id="Node000020" class="node">
<title>Node20</title>
<g id="a_Node000020"><a xlink:href="classinja_1_1Lexer.html#a50d21b69bfa1cd5e6d2e9b5c1bd53c53" target="_top" xlink:title=" ">
<polygon fill="white" stroke="#666666" points="1568,-362.5 1408,-362.5 1408,-332.5 1568,-332.5 1568,-362.5"/>
<text text-anchor="start" x="1416" y="-350.5" font-family="Helvetica,sans-Serif" font-size="10.00">inja::Lexer::skip_whitespaces</text>
<text text-anchor="middle" x="1488" y="-339.5" font-family="Helvetica,sans-Serif" font-size="10.00">_and_newlines</text>
</a>
</g>
</g>
<!-- Node15&#45;&gt;Node20 -->
<g id="edge23_Node000015_Node000020" class="edge">
<title>Node15&#45;&gt;Node20</title>
<g id="a_edge23_Node000015_Node000020"><a xlink:title=" ">
<path fill="none" stroke="#63b8ff" d="M1338.52,-392.97C1349.3,-390.01 1361.15,-386.69 1372,-383.5 1391.05,-377.9 1411.79,-371.5 1430.34,-365.66"/>
<polygon fill="#63b8ff" stroke="#63b8ff" points="1431.63,-368.93 1440.11,-362.58 1429.52,-362.25 1431.63,-368.93"/>
</a>
</g>
</g>
<!-- Node15&#45;&gt;Node21 -->
<g id="edge24_Node000015_Node000021" class="edge">
<title>Node15&#45;&gt;Node21</title>
<g id="a_edge24_Node000015_Node000021"><a xlink:title=" ">
<path fill="none" stroke="#63b8ff" d="M1321.84,-412.02C1336.29,-419.77 1356.35,-431.52 1372,-444.5 1390.41,-459.77 1387.82,-471.66 1408,-484.5 1413.77,-488.17 1420.13,-491.3 1426.67,-493.98"/>
<polygon fill="#63b8ff" stroke="#63b8ff" points="1425.72,-497.36 1436.31,-497.57 1428.16,-490.8 1425.72,-497.36"/>
</a>
</g>
</g>
<!-- Node16&#45;&gt;Node12 -->
<g id="edge17_Node000016_Node000012" class="edge">
<title>Node16&#45;&gt;Node12</title>
<g id="a_edge17_Node000016_Node000012"><a xlink:title=" ">
<path fill="none" stroke="#63b8ff" d="M1543.22,-313.3C1551.82,-315.88 1560.38,-319.21 1568,-323.5 1607.44,-345.72 1641.92,-387.2 1659.54,-410.83"/>
<polygon fill="#63b8ff" stroke="#63b8ff" points="1656.73,-412.91 1665.44,-418.93 1662.39,-408.79 1656.73,-412.91"/>
</a>
</g>
</g>
<!-- Node17&#45;&gt;Node12 -->
<g id="edge19_Node000017_Node000012" class="edge">
<title>Node17&#45;&gt;Node12</title>
<g id="a_edge19_Node000017_Node000012"><a xlink:title=" ">
<path fill="none" stroke="#63b8ff" d="M1536.13,-455.97C1560.15,-451.11 1589.57,-445.17 1614.88,-440.05"/>
<polygon fill="#63b8ff" stroke="#63b8ff" points="1615.61,-443.47 1624.71,-438.06 1614.22,-436.61 1615.61,-443.47"/>
</a>
</g>
</g>
<!-- Node18&#45;&gt;Node12 -->
<g id="edge21_Node000018_Node000012" class="edge">
<title>Node18&#45;&gt;Node12</title>
<g id="a_edge21_Node000018_Node000012"><a xlink:title=" ">
<path fill="none" stroke="#63b8ff" d="M1552.75,-428.5C1566.69,-428.5 1581.59,-428.5 1595.96,-428.5"/>
<polygon fill="#63b8ff" stroke="#63b8ff" points="1596.31,-432 1606.31,-428.5 1596.31,-425 1596.31,-432"/>
</a>
</g>
</g>
<!-- Node23 -->
<g id="Node000023" class="node">
<title>Node23</title>
<g id="a_Node000023"><a xlink:href="classinja_1_1Parser.html#a7dda6b9f4295c215e097f45d573d8d69" target="_top" xlink:title=" ">
<polygon fill="white" stroke="#666666" points="870.5,-367.5 766.5,-367.5 766.5,-337.5 870.5,-337.5 870.5,-367.5"/>
<text text-anchor="start" x="774.5" y="-355.5" font-family="Helvetica,sans-Serif" font-size="10.00">inja::Parser::parse</text>
<text text-anchor="middle" x="818.5" y="-344.5" font-family="Helvetica,sans-Serif" font-size="10.00">_expression</text>
</a>
</g>
</g>
<!-- Node22&#45;&gt;Node23 -->
<g id="edge30_Node000022_Node000023" class="edge">
<title>Node22&#45;&gt;Node23</title>
<g id="a_edge30_Node000022_Node000023"><a xlink:title=" ">
<path fill="none" stroke="#63b8ff" d="M711.14,-376.81C725.51,-373.53 741.3,-369.92 756.2,-366.51"/>
<polygon fill="#63b8ff" stroke="#63b8ff" points="757.38,-369.83 766.35,-364.19 755.82,-363.01 757.38,-369.83"/>
</a>
</g>
</g>
<!-- Node23&#45;&gt;Node8 -->
<g id="edge31_Node000023_Node000008" class="edge">
<title>Node23&#45;&gt;Node8</title>
<g id="a_edge31_Node000023_Node000008"><a xlink:title=" ">
<path fill="none" stroke="#63b8ff" d="M859.72,-337.48C868.94,-333.43 878.52,-328.7 887,-323.5 904.75,-312.61 904.79,-303.61 923,-293.5 928.46,-290.47 934.43,-287.78 940.46,-285.43"/>
<polygon fill="#63b8ff" stroke="#63b8ff" points="941.7,-288.7 949.91,-282.01 939.31,-282.12 941.7,-288.7"/>
</a>
</g>
</g>
<!-- Node23&#45;&gt;Node9 -->
<g id="edge33_Node000023_Node000009" class="edge">
<title>Node23&#45;&gt;Node9</title>
<g id="a_edge33_Node000023_Node000009"><a xlink:title=" ">
<path fill="none" stroke="#63b8ff" d="M860.78,-367.58C883.45,-375.86 911.75,-386.19 935.75,-394.96"/>
<polygon fill="#63b8ff" stroke="#63b8ff" points="934.81,-398.35 945.4,-398.49 937.21,-391.77 934.81,-398.35"/>
</a>
</g>
</g>
<!-- Node23&#45;&gt;Node23 -->
<g id="edge36_Node000023_Node000023" class="edge">
<title>Node23&#45;&gt;Node23</title>
<g id="a_edge36_Node000023_Node000023"><a xlink:title=" ">
<path fill="none" stroke="#63b8ff" d="M790.73,-367.78C784.55,-376.91 793.81,-385.5 818.5,-385.5 833.16,-385.5 842.38,-382.47 846.16,-378.1"/>
<polygon fill="#63b8ff" stroke="#63b8ff" points="849.66,-377.81 846.27,-367.78 842.66,-377.73 849.66,-377.81"/>
</a>
</g>
</g>
<!-- Node24 -->
<g id="Node000024" class="node">
<title>Node24</title>
<g id="a_Node000024"><a xlink:href="classinja_1_1FunctionStorage.html#af382c6fe227c69fa5cc36703a655912c" target="_top" xlink:title=" ">
<polygon fill="white" stroke="#666666" points="1047,-380.5 928,-380.5 928,-350.5 1047,-350.5 1047,-380.5"/>
<text text-anchor="start" x="936" y="-368.5" font-family="Helvetica,sans-Serif" font-size="10.00">inja::FunctionStorage</text>
<text text-anchor="middle" x="987.5" y="-357.5" font-family="Helvetica,sans-Serif" font-size="10.00">::find_function</text>
</a>
</g>
</g>
<!-- Node23&#45;&gt;Node24 -->
<g id="edge32_Node000023_Node000024" class="edge">
<title>Node23&#45;&gt;Node24</title>
<g id="a_edge32_Node000023_Node000024"><a xlink:title=" ">
<path fill="none" stroke="#63b8ff" d="M870.51,-356.47C885.38,-357.63 901.88,-358.91 917.66,-360.14"/>
<polygon fill="#63b8ff" stroke="#63b8ff" points="917.66,-363.65 927.9,-360.94 918.21,-356.67 917.66,-363.65"/>
</a>
</g>
</g>
<!-- Node25 -->
<g id="Node000025" class="node">
<title>Node25</title>
<g id="a_Node000025"><a xlink:href="classinja_1_1Parser.html#a16b5b7d40ed3e6a536194d1367626fd9" target="_top" xlink:title=" ">
<polygon fill="white" stroke="#666666" points="1048.5,-332.5 926.5,-332.5 926.5,-302.5 1048.5,-302.5 1048.5,-332.5"/>
<text text-anchor="start" x="934.5" y="-320.5" font-family="Helvetica,sans-Serif" font-size="10.00">inja::Parser::get_peek</text>
<text text-anchor="middle" x="987.5" y="-309.5" font-family="Helvetica,sans-Serif" font-size="10.00">_token</text>
</a>
</g>
</g>
<!-- Node23&#45;&gt;Node25 -->
<g id="edge34_Node000023_Node000025" class="edge">
<title>Node23&#45;&gt;Node25</title>
<g id="a_edge34_Node000023_Node000025"><a xlink:title=" ">
<path fill="none" stroke="#63b8ff" d="M870.51,-341.81C884.99,-338.77 901.01,-335.42 916.41,-332.19"/>
<polygon fill="#63b8ff" stroke="#63b8ff" points="917.35,-335.57 926.42,-330.09 915.91,-328.72 917.35,-335.57"/>
</a>
</g>
</g>
<!-- Node23&#45;&gt;Node26 -->
<g id="edge37_Node000023_Node000026" class="edge">
<title>Node23&#45;&gt;Node26</title>
<g id="a_edge37_Node000023_Node000026"><a xlink:title=" ">
<path fill="none" stroke="#63b8ff" d="M834.61,-337.39C864.02,-307.98 929.09,-242.91 963.75,-208.25"/>
<polygon fill="#63b8ff" stroke="#63b8ff" points="966.46,-210.49 971.06,-200.94 961.51,-205.54 966.46,-210.49"/>
</a>
</g>
</g>
<!-- Node25&#45;&gt;Node10 -->
<g id="edge35_Node000025_Node000010" class="edge">
<title>Node25&#45;&gt;Node10</title>
<g id="a_edge35_Node000025_Node000010"><a xlink:title=" ">
<path fill="none" stroke="#63b8ff" d="M1032.49,-332.55C1039.14,-335.27 1045.84,-338.28 1052,-341.5 1076.89,-354.49 1103.14,-373.18 1120.63,-386.44"/>
<polygon fill="#63b8ff" stroke="#63b8ff" points="1118.86,-389.5 1128.92,-392.82 1123.13,-383.95 1118.86,-389.5"/>
</a>
</g>
</g>
<!-- Node27 -->
<g id="Node000027" class="node">
<title>Node27</title>
<g id="a_Node000027"><a xlink:href="classinja_1_1Lexer.html#a0ec13f470ddcf0c1fb7466f6168451b2" target="_top" xlink:title=" ">
<polygon fill="white" stroke="#666666" points="1196,-200.5 1088,-200.5 1088,-170.5 1196,-170.5 1196,-200.5"/>
<text text-anchor="start" x="1096" y="-188.5" font-family="Helvetica,sans-Serif" font-size="10.00">inja::Lexer::current</text>
<text text-anchor="middle" x="1142" y="-177.5" font-family="Helvetica,sans-Serif" font-size="10.00">_position</text>
</a>
</g>
</g>
<!-- Node26&#45;&gt;Node27 -->
<g id="edge38_Node000026_Node000027" class="edge">
<title>Node26&#45;&gt;Node27</title>
<g id="a_edge38_Node000026_Node000027"><a xlink:title=" ">
<path fill="none" stroke="#63b8ff" d="M1040.13,-185.5C1052.15,-185.5 1065.08,-185.5 1077.54,-185.5"/>
<polygon fill="#63b8ff" stroke="#63b8ff" points="1077.86,-189 1087.86,-185.5 1077.86,-182 1077.86,-189"/>
</a>
</g>
</g>
<!-- Node29 -->
<g id="Node000029" class="node">
<title>Node29</title>
<g id="a_Node000029"><a xlink:href="structinja_1_1ParserError.html#aa76b83dd1badd3fcf64aff6feee7583c" target="_top" xlink:title=" ">
<polygon fill="white" stroke="#666666" points="1192.5,-152.5 1091.5,-152.5 1091.5,-122.5 1192.5,-122.5 1192.5,-152.5"/>
<text text-anchor="start" x="1099.5" y="-140.5" font-family="Helvetica,sans-Serif" font-size="10.00">inja::ParserError::</text>
<text text-anchor="middle" x="1142" y="-129.5" font-family="Helvetica,sans-Serif" font-size="10.00">ParserError</text>
</a>
</g>
</g>
<!-- Node26&#45;&gt;Node29 -->
<g id="edge41_Node000026_Node000029" class="edge">
<title>Node26&#45;&gt;Node29</title>
<g id="a_edge41_Node000026_Node000029"><a xlink:title=" ">
<path fill="none" stroke="#63b8ff" d="M1036.33,-170.44C1051.38,-165.71 1068.15,-160.43 1083.78,-155.51"/>
<polygon fill="#63b8ff" stroke="#63b8ff" points="1084.85,-158.84 1093.34,-152.5 1082.75,-152.17 1084.85,-158.84"/>
</a>
</g>
</g>
<!-- Node28 -->
<g id="Node000028" class="node">
<title>Node28</title>
<g id="a_Node000028"><a xlink:href="namespaceinja.html#ab7c8c54f2caeb72095cd78a7ff7b6c37" target="_top" xlink:title=" ">
<polygon fill="white" stroke="#666666" points="1742,-190 1604,-190 1604,-171 1742,-171 1742,-190"/>
<text text-anchor="middle" x="1673" y="-178" font-family="Helvetica,sans-Serif" font-size="10.00">inja::get_source_location</text>
</a>
</g>
</g>
<!-- Node27&#45;&gt;Node28 -->
<g id="edge39_Node000027_Node000028" class="edge">
<title>Node27&#45;&gt;Node28</title>
<g id="a_edge39_Node000027_Node000028"><a xlink:title=" ">
<path fill="none" stroke="#63b8ff" d="M1196.14,-185C1289.68,-184.11 1484.11,-182.28 1593.27,-181.24"/>
<polygon fill="#63b8ff" stroke="#63b8ff" points="1593.6,-184.74 1603.57,-181.15 1593.53,-177.74 1593.6,-184.74"/>
</a>
</g>
</g>
<!-- Node28&#45;&gt;Node13 -->
<g id="edge40_Node000028_Node000013" class="edge">
<title>Node28&#45;&gt;Node13</title>
<g id="a_edge40_Node000028_Node000013"><a xlink:title=" ">
<path fill="none" stroke="#63b8ff" d="M1712.99,-190.09C1729.66,-194.19 1749.51,-199.07 1768.01,-203.62"/>
<polygon fill="#63b8ff" stroke="#63b8ff" points="1767.28,-207.05 1777.83,-206.04 1768.96,-200.25 1767.28,-207.05"/>
</a>
</g>
</g>
<!-- Node30 -->
<g id="Node000030" class="node">
<title>Node30</title>
<g id="a_Node000030"><a xlink:href="structinja_1_1InjaError.html#a399b7d2f7c824c24b7794694711bafb7" target="_top" xlink:title=" ">
<polygon fill="white" stroke="#666666" points="1366.5,-147 1237.5,-147 1237.5,-128 1366.5,-128 1366.5,-147"/>
<text text-anchor="middle" x="1302" y="-135" font-family="Helvetica,sans-Serif" font-size="10.00">inja::InjaError::InjaError</text>
</a>
</g>
</g>
<!-- Node29&#45;&gt;Node30 -->
<g id="edge42_Node000029_Node000030" class="edge">
<title>Node29&#45;&gt;Node30</title>
<g id="a_edge42_Node000029_Node000030"><a xlink:title=" ">
<path fill="none" stroke="#63b8ff" d="M1192.56,-137.5C1203.55,-137.5 1215.42,-137.5 1227.15,-137.5"/>
<polygon fill="#63b8ff" stroke="#63b8ff" points="1227.39,-141 1237.39,-137.5 1227.39,-134 1227.39,-141"/>
</a>
</g>
</g>
<!-- Node31&#45;&gt;Node8 -->
<g id="edge48_Node000031_Node000008" class="edge">
<title>Node31&#45;&gt;Node8</title>
<g id="a_edge48_Node000031_Node000008"><a xlink:title=" ">
<path fill="none" stroke="#63b8ff" d="M568.14,-269.83C653.33,-270.37 824.28,-271.46 919.16,-272.07"/>
<polygon fill="#63b8ff" stroke="#63b8ff" points="919.2,-275.57 929.22,-272.13 919.25,-268.57 919.2,-275.57"/>
</a>
</g>
</g>
<!-- Node31&#45;&gt;Node9 -->
<g id="edge49_Node000031_Node000009" class="edge">
<title>Node31&#45;&gt;Node9</title>
<g id="a_edge49_Node000031_Node000009"><a xlink:title=" ">
<path fill="none" stroke="#63b8ff" d="M555.13,-284.58C595.92,-301.46 661.8,-330.89 714,-364.5 731.51,-375.77 730.72,-386.63 750,-394.5 803.23,-416.22 868.72,-419.91 917.27,-418.76"/>
<polygon fill="#63b8ff" stroke="#63b8ff" points="917.48,-422.26 927.37,-418.45 917.26,-415.26 917.48,-422.26"/>
</a>
</g>
</g>
<!-- Node31&#45;&gt;Node22 -->
<g id="edge50_Node000031_Node000022" class="edge">
<title>Node31&#45;&gt;Node22</title>
<g id="a_edge50_Node000031_Node000022"><a xlink:title=" ">
<path fill="none" stroke="#63b8ff" d="M534.86,-284.57C559.41,-305.29 603.75,-342.71 631.98,-366.54"/>
<polygon fill="#63b8ff" stroke="#63b8ff" points="629.94,-369.4 639.84,-373.18 634.46,-364.05 629.94,-369.4"/>
</a>
</g>
</g>
<!-- Node31&#45;&gt;Node26 -->
<g id="edge54_Node000031_Node000026" class="edge">
<title>Node31&#45;&gt;Node26</title>
<g id="a_edge54_Node000031_Node000026"><a xlink:title=" ">
<path fill="none" stroke="#63b8ff" d="M554.75,-254.4C569.91,-248.65 587.64,-242.34 604,-237.5 667.8,-218.64 684.23,-214.52 750,-204.5 808.8,-195.54 876.52,-190.64 924.38,-188.08"/>
<polygon fill="#63b8ff" stroke="#63b8ff" points="924.78,-191.56 934.58,-187.55 924.42,-184.57 924.78,-191.56"/>
</a>
</g>
</g>
<!-- Node32 -->
<g id="Node000032" class="node">
<title>Node32</title>
<g id="a_Node000032"><a xlink:href="classinja_1_1Parser.html#ae1cebbe51ef6a93fc3d448263f9bf1e3" target="_top" xlink:title=" ">
<polygon fill="white" stroke="#666666" points="714,-81.5 604,-81.5 604,-51.5 714,-51.5 714,-81.5"/>
<text text-anchor="start" x="612" y="-69.5" font-family="Helvetica,sans-Serif" font-size="10.00">inja::Parser::add_to</text>
<text text-anchor="middle" x="659" y="-58.5" font-family="Helvetica,sans-Serif" font-size="10.00">_template_storage</text>
</a>
</g>
</g>
<!-- Node31&#45;&gt;Node32 -->
<g id="edge44_Node000031_Node000032" class="edge">
<title>Node31&#45;&gt;Node32</title>
<g id="a_edge44_Node000031_Node000032"><a xlink:title=" ">
<path fill="none" stroke="#63b8ff" d="M527.6,-254.24C552.05,-219.03 612.56,-131.92 641.74,-89.9"/>
<polygon fill="#63b8ff" stroke="#63b8ff" points="644.64,-91.87 647.47,-81.66 638.89,-87.87 644.64,-91.87"/>
</a>
</g>
</g>
<!-- Node34 -->
<g id="Node000034" class="node">
<title>Node34</title>
<g id="a_Node000034"><a xlink:href="classinja_1_1Parser.html#a1bd2c3127357715521ec111c39a7e823" target="_top" xlink:title=" ">
<polygon fill="white" stroke="#666666" points="870.5,-243.5 766.5,-243.5 766.5,-213.5 870.5,-213.5 870.5,-243.5"/>
<text text-anchor="start" x="774.5" y="-231.5" font-family="Helvetica,sans-Serif" font-size="10.00">inja::Parser::parse</text>
<text text-anchor="middle" x="818.5" y="-220.5" font-family="Helvetica,sans-Serif" font-size="10.00">_filename</text>
</a>
</g>
</g>
<!-- Node31&#45;&gt;Node34 -->
<g id="edge51_Node000031_Node000034" class="edge">
<title>Node31&#45;&gt;Node34</title>
<g id="a_edge51_Node000031_Node000034"><a xlink:title=" ">
<path fill="none" stroke="#63b8ff" d="M568.02,-260.99C579.82,-259.11 592.34,-257.17 604,-255.5 655.18,-248.15 713.43,-240.85 756.14,-235.7"/>
<polygon fill="#63b8ff" stroke="#63b8ff" points="756.59,-239.17 766.1,-234.51 755.75,-232.22 756.59,-239.17"/>
</a>
</g>
</g>
<!-- Node32&#45;&gt;Node3 -->
<g id="edge45_Node000032_Node000003" class="edge">
<title>Node32&#45;&gt;Node3</title>
<g id="a_edge45_Node000032_Node000003"><a xlink:title=" ">
<path fill="none" stroke="#63b8ff" d="M714.2,-54.45C730.56,-50.82 748.49,-46.84 764.75,-43.22"/>
<polygon fill="#63b8ff" stroke="#63b8ff" points="765.63,-46.61 774.63,-41.03 764.11,-39.78 765.63,-46.61"/>
</a>
</g>
</g>
<!-- Node32&#45;&gt;Node5 -->
<g id="edge46_Node000032_Node000005" class="edge">
<title>Node32&#45;&gt;Node5</title>
<g id="a_edge46_Node000032_Node000005"><a xlink:title=" ">
<path fill="none" stroke="#63b8ff" d="M603.65,-66.5C518.84,-66.5 355.56,-66.5 266.72,-66.5"/>
<polygon fill="#63b8ff" stroke="#63b8ff" points="266.53,-63 256.53,-66.5 266.53,-70 266.53,-63"/>
</a>
</g>
</g>
<!-- Node32&#45;&gt;Node33 -->
<g id="edge47_Node000032_Node000033" class="edge">
<title>Node32&#45;&gt;Node33</title>
<g id="a_edge47_Node000032_Node000033"><a xlink:title=" ">
<path fill="none" stroke="#63b8ff" d="M714.2,-80.27C732.35,-84.88 752.43,-89.98 770.03,-94.44"/>
<polygon fill="#63b8ff" stroke="#63b8ff" points="769.51,-97.92 780.07,-96.99 771.24,-91.14 769.51,-97.92"/>
</a>
</g>
</g>
<!-- Node34&#45;&gt;Node8 -->
<g id="edge52_Node000034_Node000008" class="edge">
<title>Node34&#45;&gt;Node8</title>
<g id="a_edge52_Node000034_Node000008"><a xlink:title=" ">
<path fill="none" stroke="#63b8ff" d="M870.51,-241.94C892.79,-247.81 918.72,-254.64 940.4,-260.35"/>
<polygon fill="#63b8ff" stroke="#63b8ff" points="939.79,-263.81 950.36,-262.98 941.58,-257.04 939.79,-263.81"/>
</a>
</g>
</g>
<!-- Node34&#45;&gt;Node26 -->
<g id="edge53_Node000034_Node000026" class="edge">
<title>Node34&#45;&gt;Node26</title>
<g id="a_edge53_Node000034_Node000026"><a xlink:title=" ">
<path fill="none" stroke="#63b8ff" d="M870.51,-215.36C887.75,-210.93 907.18,-205.92 925.13,-201.3"/>
<polygon fill="#63b8ff" stroke="#63b8ff" points="926.12,-204.66 934.94,-198.78 924.38,-197.88 926.12,-204.66"/>
</a>
</g>
</g>
<!-- Node35&#45;&gt;Node21 -->
<g id="edge56_Node000035_Node000021" class="edge">
<title>Node35&#45;&gt;Node21</title>
<g id="a_edge56_Node000035_Node000021"><a xlink:title=" ">
<path fill="none" stroke="#63b8ff" d="M564.21,-528.4C623.26,-537.59 727.55,-551.5 817.5,-551.5 817.5,-551.5 817.5,-551.5 1143,-551.5 1242.75,-551.5 1357.53,-533.48 1426.07,-520.77"/>
<polygon fill="#63b8ff" stroke="#63b8ff" points="1427.07,-524.14 1436.25,-518.85 1425.78,-517.26 1427.07,-524.14"/>
</a>
</g>
</g>
</g>
</svg>
