<?xml version="1.0" encoding="UTF-8" standalone="no"?>
<!DOCTYPE svg PUBLIC "-//W3C//DTD SVG 1.1//EN"
 "http://www.w3.org/Graphics/SVG/1.1/DTD/svg11.dtd">
<!-- Generated by graphviz version 14.1.2 (0)
 -->
<!-- Title: mqtt::mqttbroker::lib::Mqtt::DelayedQueue::empty Pages: 1 -->
<svg width="759pt" height="127pt"
 viewBox="0.00 0.00 759.00 127.00" xmlns="http://www.w3.org/2000/svg" xmlns:xlink="http://www.w3.org/1999/xlink">
<g id="graph0" class="graph" transform="scale(1 1) rotate(0) translate(4 122.88)">
<title>mqtt::mqttbroker::lib::Mqtt::DelayedQueue::empty</title>
<!-- Node1 -->
<g id="Node000001" class="node">
<title>Node1</title>
<g id="a_Node000001"><a xlink:title=" ">
<polygon fill="#999999" stroke="#666666" points="751.25,-46.25 628.75,-46.25 628.75,0 751.25,0 751.25,-46.25"/>
<text xml:space="preserve" text-anchor="start" x="636.75" y="-32.75" font-family="Helvetica,sans-Serif" font-size="10.00">mqtt::mqttbroker::lib</text>
<text xml:space="preserve" text-anchor="start" x="636.75" y="-20" font-family="Helvetica,sans-Serif" font-size="10.00">::Mqtt::DelayedQueue</text>
<text xml:space="preserve" text-anchor="middle" x="690" y="-7.25" font-family="Helvetica,sans-Serif" font-size="10.00">::empty</text>
</a>
</g>
</g>
<!-- Node2 -->
<g id="Node000002" class="node">
<title>Node2</title>
<g id="a_Node000002"><a xlink:href="classmqtt_1_1mqttbroker_1_1lib_1_1Mqtt_1_1DelayedQueue.html#a8becf2d97fc0f71a12ae5e84ea8b2a66" target="_top" xlink:title=" ">
<polygon fill="white" stroke="#666666" points="592.75,-72.25 470.25,-72.25 470.25,-26 592.75,-26 592.75,-72.25"/>
<text xml:space="preserve" text-anchor="start" x="478.25" y="-58.75" font-family="Helvetica,sans-Serif" font-size="10.00">mqtt::mqttbroker::lib</text>
<text xml:space="preserve" text-anchor="start" x="478.25" y="-46" font-family="Helvetica,sans-Serif" font-size="10.00">::Mqtt::DelayedQueue</text>
<text xml:space="preserve" text-anchor="middle" x="531.5" y="-33.25" font-family="Helvetica,sans-Serif" font-size="10.00">::armDelayTimer</text>
</a>
</g>
</g>
<!-- Node1&#45;&gt;Node2 -->
<g id="edge1_Node000001_Node000002" class="edge">
<title>Node1&#45;&gt;Node2</title>
<g id="a_edge1_Node000001_Node000002"><a xlink:title=" ">
<path fill="none" stroke="#63b8ff" d="M617.2,-35.05C609.15,-36.39 601,-37.75 593.1,-39.06"/>
<polygon fill="#63b8ff" stroke="#63b8ff" points="617.71,-38.52 627,-33.43 616.56,-31.61 617.71,-38.52"/>
</a>
</g>
</g>
<!-- Node5 -->
<g id="Node000005" class="node">
<title>Node5</title>
<g id="a_Node000005"><a xlink:href="classmqtt_1_1mqttbroker_1_1lib_1_1Mqtt_1_1DelayedQueue.html#abe935c28141087ad3eadf41acab44702" target="_top" xlink:title=" ">
<polygon fill="white" stroke="#666666" points="122.5,-59.25 0,-59.25 0,-13 122.5,-13 122.5,-59.25"/>
<text xml:space="preserve" text-anchor="start" x="8" y="-45.75" font-family="Helvetica,sans-Serif" font-size="10.00">mqtt::mqttbroker::lib</text>
<text xml:space="preserve" text-anchor="start" x="8" y="-33" font-family="Helvetica,sans-Serif" font-size="10.00">::Mqtt::DelayedQueue</text>
<text xml:space="preserve" text-anchor="middle" x="61.25" y="-20.25" font-family="Helvetica,sans-Serif" font-size="10.00">::processDue</text>
</a>
</g>
</g>
<!-- Node1&#45;&gt;Node5 -->
<g id="edge8_Node000001_Node000005" class="edge">
<title>Node1&#45;&gt;Node5</title>
<g id="a_edge8_Node000001_Node000005"><a xlink:title=" ">
<path fill="none" stroke="#63b8ff" d="M616.97,-18.14C608.8,-17.73 600.6,-17.37 592.75,-17.12 422.34,-11.82 221.18,-24.1 122.71,-31.33"/>
<polygon fill="#63b8ff" stroke="#63b8ff" points="616.75,-21.64 626.93,-18.69 617.14,-14.65 616.75,-21.64"/>
</a>
</g>
</g>
<!-- Node2&#45;&gt;Node2 -->
<g id="edge2_Node000002_Node000002" class="edge">
<title>Node2&#45;&gt;Node2</title>
<g id="a_edge2_Node000002_Node000002"><a xlink:title=" ">
<path fill="none" stroke="#63b8ff" d="M557.57,-82.99C553.06,-87.36 544.37,-90.25 531.5,-90.25 509.83,-90.25 500.01,-82.05 502.04,-72.38"/>
<polygon fill="#63b8ff" stroke="#63b8ff" points="560.79,-84.41 560.5,-73.82 554.12,-82.28 560.79,-84.41"/>
</a>
</g>
</g>
<!-- Node3 -->
<g id="Node000003" class="node">
<title>Node3</title>
<g id="a_Node000003"><a xlink:href="classmqtt_1_1mqttbroker_1_1lib_1_1Mqtt_1_1DelayedQueue.html#a0cea5b90a1434e82da43bd2f4c6dd47c" target="_top" xlink:title=" ">
<polygon fill="white" stroke="#666666" points="434.25,-110.25 311.75,-110.25 311.75,-64 434.25,-64 434.25,-110.25"/>
<text xml:space="preserve" text-anchor="start" x="319.75" y="-96.75" font-family="Helvetica,sans-Serif" font-size="10.00">mqtt::mqttbroker::lib</text>
<text xml:space="preserve" text-anchor="start" x="319.75" y="-84" font-family="Helvetica,sans-Serif" font-size="10.00">::Mqtt::DelayedQueue</text>
<text xml:space="preserve" text-anchor="middle" x="373" y="-71.25" font-family="Helvetica,sans-Serif" font-size="10.00">::delayPublish</text>
</a>
</g>
</g>
<!-- Node2&#45;&gt;Node3 -->
<g id="edge3_Node000002_Node000003" class="edge">
<title>Node2&#45;&gt;Node3</title>
<g id="a_edge3_Node000002_Node000003"><a xlink:title=" ">
<path fill="none" stroke="#63b8ff" d="M458.98,-66.49C450.83,-68.47 442.59,-70.47 434.6,-72.41"/>
<polygon fill="#63b8ff" stroke="#63b8ff" points="459.63,-69.93 468.52,-64.17 457.98,-63.13 459.63,-69.93"/>
</a>
</g>
</g>
<!-- Node4 -->
<g id="Node000004" class="node">
<title>Node4</title>
<g id="a_Node000004"><a xlink:href="classmqtt_1_1mqttbroker_1_1lib_1_1Mqtt.html#a35dd670ca3b7d67cffbbce1cf7c71ffb" target="_top" xlink:title=" ">
<polygon fill="white" stroke="#666666" points="275.75,-100.88 158.5,-100.88 158.5,-67.38 275.75,-67.38 275.75,-100.88"/>
<text xml:space="preserve" text-anchor="start" x="166.5" y="-87.38" font-family="Helvetica,sans-Serif" font-size="10.00">mqtt::mqttbroker::lib</text>
<text xml:space="preserve" text-anchor="middle" x="217.12" y="-74.62" font-family="Helvetica,sans-Serif" font-size="10.00">::Mqtt::onPublish</text>
</a>
</g>
</g>
<!-- Node3&#45;&gt;Node4 -->
<g id="edge4_Node000003_Node000004" class="edge">
<title>Node3&#45;&gt;Node4</title>
<g id="a_edge4_Node000003_Node000004"><a xlink:title=" ">
<path fill="none" stroke="#63b8ff" d="M300.25,-85.73C292.14,-85.57 283.96,-85.41 276.06,-85.25"/>
<polygon fill="#63b8ff" stroke="#63b8ff" points="300.05,-89.22 310.11,-85.92 300.18,-82.22 300.05,-89.22"/>
</a>
</g>
</g>
<!-- Node4&#45;&gt;Node4 -->
<g id="edge5_Node000004_Node000004" class="edge">
<title>Node4&#45;&gt;Node4</title>
<g id="a_edge5_Node000004_Node000004"><a xlink:title=" ">
<path fill="none" stroke="#63b8ff" d="M243.3,-112.26C239.04,-116.22 230.31,-118.88 217.12,-118.88 193.68,-118.88 184.34,-110.49 189.1,-101.29"/>
<polygon fill="#63b8ff" stroke="#63b8ff" points="246.69,-113.22 244.89,-102.78 239.78,-112.06 246.69,-113.22"/>
</a>
</g>
</g>
<!-- Node4&#45;&gt;Node5 -->
<g id="edge6_Node000004_Node000005" class="edge">
<title>Node4&#45;&gt;Node5</title>
<g id="a_edge6_Node000004_Node000005"><a xlink:title=" ">
<path fill="none" stroke="#63b8ff" d="M150.14,-63.54C141.13,-60.73 131.9,-57.85 122.98,-55.07"/>
<polygon fill="#63b8ff" stroke="#63b8ff" points="148.97,-66.84 159.56,-66.48 151.06,-60.16 148.97,-66.84"/>
</a>
</g>
</g>
<!-- Node5&#45;&gt;Node2 -->
<g id="edge7_Node000005_Node000002" class="edge">
<title>Node5&#45;&gt;Node2</title>
<g id="a_edge7_Node000005_Node000002"><a xlink:title=" ">
<path fill="none" stroke="#63b8ff" d="M134.3,-38.13C226.24,-40.68 383.62,-45.05 469.76,-47.44"/>
<polygon fill="#63b8ff" stroke="#63b8ff" points="134.48,-34.63 124.39,-37.85 134.29,-41.63 134.48,-34.63"/>
</a>
</g>
</g>
</g>
</svg>
