<?xml version="1.0" encoding="UTF-8" standalone="no"?>
<!DOCTYPE svg PUBLIC "-//W3C//DTD SVG 1.1//EN"
 "http://www.w3.org/Graphics/SVG/1.1/DTD/svg11.dtd">
<!-- Generated by graphviz version 14.1.1 (0)
 -->
<!-- Title: inja::Environment::parse Pages: 1 -->
<svg width="261pt" height="80pt"
 viewBox="0.00 0.00 261.00 80.00" xmlns="http://www.w3.org/2000/svg" xmlns:xlink="http://www.w3.org/1999/xlink">
<g id="graph0" class="graph" transform="scale(1 1) rotate(0) translate(4 76.12)">
<title>inja::Environment::parse</title>
<!-- Node1 -->
<g id="Node000001" class="node">
<title>Node1</title>
<g id="a_Node000001"><a xlink:title=" ">
<polygon fill="#999999" stroke="#666666" points="252.5,-49.12 144.25,-49.12 144.25,-15.62 252.5,-15.62 252.5,-49.12"/>
<text xml:space="preserve" text-anchor="start" x="152.25" y="-35.62" font-family="Helvetica,sans-Serif" font-size="10.00">inja::Environment::</text>
<text xml:space="preserve" text-anchor="middle" x="198.38" y="-22.88" font-family="Helvetica,sans-Serif" font-size="10.00">parse</text>
</a>
</g>
</g>
<!-- Node2 -->
<g id="Node000002" class="node">
<title>Node2</title>
<g id="a_Node000002"><a xlink:href="classinja_1_1Environment.html#aac36e0cfdc9e7926914e46c0cd1caada" target="_top" xlink:title=" ">
<polygon fill="white" stroke="#666666" points="108.25,-72.12 0,-72.12 0,-38.62 108.25,-38.62 108.25,-72.12"/>
<text xml:space="preserve" text-anchor="start" x="8" y="-58.62" font-family="Helvetica,sans-Serif" font-size="10.00">inja::Environment::</text>
<text xml:space="preserve" text-anchor="middle" x="54.12" y="-45.88" font-family="Helvetica,sans-Serif" font-size="10.00">render</text>
</a>
</g>
</g>
<!-- Node1&#45;&gt;Node2 -->
<g id="edge1_Node000001_Node000002" class="edge">
<title>Node1&#45;&gt;Node2</title>
<g id="a_edge1_Node000001_Node000002"><a xlink:title=" ">
<path fill="none" stroke="#63b8ff" d="M132.91,-42.8C124.68,-44.13 116.34,-45.48 108.32,-46.77"/>
<polygon fill="#63b8ff" stroke="#63b8ff" points="133.19,-46.3 142.51,-41.25 132.08,-39.39 133.19,-46.3"/>
</a>
</g>
</g>
<!-- Node3 -->
<g id="Node000003" class="node">
<title>Node3</title>
<g id="a_Node000003"><a xlink:href="namespaceinja.html#a996f16f78b37d05e19cf44ac74d83e7e" target="_top" xlink:title="render with default settings to the given output stream">
<polygon fill="white" stroke="#666666" points="97.38,-20.75 10.88,-20.75 10.88,0 97.38,0 97.38,-20.75"/>
<text xml:space="preserve" text-anchor="middle" x="54.12" y="-7.25" font-family="Helvetica,sans-Serif" font-size="10.00">inja::render_to</text>
</a>
</g>
</g>
<!-- Node1&#45;&gt;Node3 -->
<g id="edge2_Node000001_Node000003" class="edge">
<title>Node1&#45;&gt;Node3</title>
<g id="a_edge2_Node000001_Node000003"><a xlink:title=" ">
<path fill="none" stroke="#63b8ff" d="M132.73,-22.38C120.84,-20.54 108.72,-18.66 97.69,-16.96"/>
<polygon fill="#63b8ff" stroke="#63b8ff" points="132.09,-25.82 142.51,-23.89 133.16,-18.9 132.09,-25.82"/>
</a>
</g>
</g>
</g>
</svg>
