<?xml version="1.0" encoding="UTF-8" standalone="no"?>
<!DOCTYPE svg PUBLIC "-//W3C//DTD SVG 1.1//EN"
 "http://www.w3.org/Graphics/SVG/1.1/DTD/svg11.dtd">
<!-- Generated by graphviz version 14.1.1 (0)
 -->
<!-- Title: inja::Lexer::clear_final_line_if_whitespace Pages: 1 -->
<svg width="1309pt" height="330pt"
 viewBox="0.00 0.00 1309.00 330.00" xmlns="http://www.w3.org/2000/svg" xmlns:xlink="http://www.w3.org/1999/xlink">
<g id="graph0" class="graph" transform="scale(1 1) rotate(0) translate(4 326.12)">
<title>inja::Lexer::clear_final_line_if_whitespace</title>
<!-- Node1 -->
<g id="Node000001" class="node">
<title>Node1</title>
<g id="a_Node000001"><a xlink:title=" ">
<polygon fill="#999999" stroke="#666666" points="1301.25,-281.12 1162.25,-281.12 1162.25,-247.62 1301.25,-247.62 1301.25,-281.12"/>
<text xml:space="preserve" text-anchor="start" x="1170.25" y="-267.62" font-family="Helvetica,sans-Serif" font-size="10.00">inja::Lexer::clear</text>
<text xml:space="preserve" text-anchor="middle" x="1231.75" y="-254.88" font-family="Helvetica,sans-Serif" font-size="10.00">_final_line_if_whitespace</text>
</a>
</g>
</g>
<!-- Node2 -->
<g id="Node000002" class="node">
<title>Node2</title>
<g id="a_Node000002"><a xlink:href="classinja_1_1Lexer.html#a8c85efa9536869c371b8afb609e0d8d2" target="_top" xlink:title=" ">
<polygon fill="white" stroke="#666666" points="1126.25,-274.75 1030.75,-274.75 1030.75,-254 1126.25,-254 1126.25,-274.75"/>
<text xml:space="preserve" text-anchor="middle" x="1078.5" y="-261.25" font-family="Helvetica,sans-Serif" font-size="10.00">inja::Lexer::scan</text>
</a>
</g>
</g>
<!-- Node1&#45;&gt;Node2 -->
<g id="edge1_Node000001_Node000002" class="edge">
<title>Node1&#45;&gt;Node2</title>
<g id="a_edge1_Node000001_Node000002"><a xlink:title=" ">
<path fill="none" stroke="#63b8ff" d="M1150.49,-264.38C1142.22,-264.38 1134.03,-264.38 1126.32,-264.38"/>
<polygon fill="#63b8ff" stroke="#63b8ff" points="1150.25,-267.88 1160.25,-264.38 1150.25,-260.88 1150.25,-267.88"/>
</a>
</g>
</g>
<!-- Node3 -->
<g id="Node000003" class="node">
<title>Node3</title>
<g id="a_Node000003"><a xlink:href="classinja_1_1Parser.html#ab8bb45bc1eeead74f630efa420ee6212" target="_top" xlink:title=" ">
<polygon fill="white" stroke="#666666" points="993.62,-255.12 874.12,-255.12 874.12,-221.62 993.62,-221.62 993.62,-255.12"/>
<text xml:space="preserve" text-anchor="start" x="882.12" y="-241.62" font-family="Helvetica,sans-Serif" font-size="10.00">inja::Parser::get_next</text>
<text xml:space="preserve" text-anchor="middle" x="933.88" y="-228.88" font-family="Helvetica,sans-Serif" font-size="10.00">_token</text>
</a>
</g>
</g>
<!-- Node2&#45;&gt;Node3 -->
<g id="edge2_Node000002_Node000003" class="edge">
<title>Node2&#45;&gt;Node3</title>
<g id="a_edge2_Node000002_Node000003"><a xlink:title=" ">
<path fill="none" stroke="#63b8ff" d="M1019.21,-253.75C1010.85,-252.23 1002.25,-250.66 993.88,-249.13"/>
<polygon fill="#63b8ff" stroke="#63b8ff" points="1018.45,-257.17 1028.91,-255.52 1019.7,-250.28 1018.45,-257.17"/>
</a>
</g>
</g>
<!-- Node17 -->
<g id="Node000017" class="node">
<title>Node17</title>
<g id="a_Node000017"><a xlink:href="classinja_1_1Parser.html#a16b5b7d40ed3e6a536194d1367626fd9" target="_top" xlink:title=" ">
<polygon fill="white" stroke="#666666" points="994.75,-307.12 873,-307.12 873,-273.62 994.75,-273.62 994.75,-307.12"/>
<text xml:space="preserve" text-anchor="start" x="881" y="-293.62" font-family="Helvetica,sans-Serif" font-size="10.00">inja::Parser::get_peek</text>
<text xml:space="preserve" text-anchor="middle" x="933.88" y="-280.88" font-family="Helvetica,sans-Serif" font-size="10.00">_token</text>
</a>
</g>
</g>
<!-- Node2&#45;&gt;Node17 -->
<g id="edge21_Node000002_Node000017" class="edge">
<title>Node2&#45;&gt;Node17</title>
<g id="a_edge21_Node000002_Node000017"><a xlink:title=" ">
<path fill="none" stroke="#63b8ff" d="M1019.33,-274.98C1011.36,-276.43 1003.16,-277.93 995.15,-279.39"/>
<polygon fill="#63b8ff" stroke="#63b8ff" points="1019.7,-278.47 1028.91,-273.23 1018.45,-271.58 1019.7,-278.47"/>
</a>
</g>
</g>
<!-- Node4 -->
<g id="Node000004" class="node">
<title>Node4</title>
<g id="a_Node000004"><a xlink:href="classinja_1_1Parser.html#a7dda6b9f4295c215e097f45d573d8d69" target="_top" xlink:title=" ">
<polygon fill="white" stroke="#666666" points="837,-304.12 733.25,-304.12 733.25,-270.62 837,-270.62 837,-304.12"/>
<text xml:space="preserve" text-anchor="start" x="741.25" y="-290.62" font-family="Helvetica,sans-Serif" font-size="10.00">inja::Parser::parse</text>
<text xml:space="preserve" text-anchor="middle" x="785.12" y="-277.88" font-family="Helvetica,sans-Serif" font-size="10.00">_expression</text>
</a>
</g>
</g>
<!-- Node3&#45;&gt;Node4 -->
<g id="edge3_Node000003_Node000004" class="edge">
<title>Node3&#45;&gt;Node4</title>
<g id="a_edge3_Node000003_Node000004"><a xlink:title=" ">
<path fill="none" stroke="#63b8ff" d="M870.92,-259.06C859.67,-262.82 848.06,-266.69 837.17,-270.33"/>
<polygon fill="#63b8ff" stroke="#63b8ff" points="871.74,-262.48 880.11,-255.99 869.52,-255.84 871.74,-262.48"/>
</a>
</g>
</g>
<!-- Node6 -->
<g id="Node000006" class="node">
<title>Node6</title>
<g id="a_Node000006"><a xlink:href="classinja_1_1Parser.html#a9a561141f71073df671b2b7ecb4608ba" target="_top" xlink:title=" ">
<polygon fill="white" stroke="#666666" points="557.5,-214.75 429.75,-214.75 429.75,-194 557.5,-194 557.5,-214.75"/>
<text xml:space="preserve" text-anchor="middle" x="493.62" y="-201.25" font-family="Helvetica,sans-Serif" font-size="10.00">inja::Parser::parse_into</text>
</a>
</g>
</g>
<!-- Node3&#45;&gt;Node6 -->
<g id="edge19_Node000003_Node000006" class="edge">
<title>Node3&#45;&gt;Node6</title>
<g id="a_edge19_Node000003_Node000006"><a xlink:title=" ">
<path fill="none" stroke="#63b8ff" d="M862.59,-230.77C853.97,-229.92 845.29,-229.1 837,-228.38 739.65,-219.89 626.52,-212.43 557.78,-208.16"/>
<polygon fill="#63b8ff" stroke="#63b8ff" points="862.03,-234.23 872.33,-231.75 862.73,-227.26 862.03,-234.23"/>
</a>
</g>
</g>
<!-- Node13 -->
<g id="Node000013" class="node">
<title>Node13</title>
<g id="a_Node000013"><a xlink:href="classinja_1_1Parser.html#a5a26bdcce0ae076bf010ee7442d8928e" target="_top" xlink:title=" ">
<polygon fill="white" stroke="#666666" points="106,-244.12 2.25,-244.12 2.25,-210.62 106,-210.62 106,-244.12"/>
<text xml:space="preserve" text-anchor="start" x="10.25" y="-230.62" font-family="Helvetica,sans-Serif" font-size="10.00">inja::Parser::parse</text>
<text xml:space="preserve" text-anchor="middle" x="54.12" y="-217.88" font-family="Helvetica,sans-Serif" font-size="10.00">_statement</text>
</a>
</g>
</g>
<!-- Node3&#45;&gt;Node13 -->
<g id="edge20_Node000003_Node000013" class="edge">
<title>Node3&#45;&gt;Node13</title>
<g id="a_edge20_Node000003_Node000013"><a xlink:title=" ">
<path fill="none" stroke="#63b8ff" d="M862.66,-239.9C804.66,-241.03 720.18,-242.38 646.38,-242.38 646.38,-242.38 646.38,-242.38 340.88,-242.38 258.78,-242.38 163.61,-236.12 106.44,-231.69"/>
<polygon fill="#63b8ff" stroke="#63b8ff" points="862.45,-243.41 872.38,-239.71 862.31,-236.41 862.45,-243.41"/>
</a>
</g>
</g>
<!-- Node4&#45;&gt;Node4 -->
<g id="edge4_Node000004_Node000004" class="edge">
<title>Node4&#45;&gt;Node4</title>
<g id="a_edge4_Node000004_Node000004"><a xlink:title=" ">
<path fill="none" stroke="#63b8ff" d="M808.26,-315.84C804.33,-319.62 796.62,-322.12 785.12,-322.12 764.11,-322.12 755.73,-313.74 760,-304.54"/>
<polygon fill="#63b8ff" stroke="#63b8ff" points="811.7,-316.48 809.99,-306.03 804.81,-315.27 811.7,-316.48"/>
</a>
</g>
</g>
<!-- Node5 -->
<g id="Node000005" class="node">
<title>Node5</title>
<g id="a_Node000005"><a xlink:href="classinja_1_1Parser.html#aeb66164c89e8c71cae3c93c24d7c7be2" target="_top" xlink:title=" ">
<polygon fill="white" stroke="#666666" points="697.25,-304.12 593.5,-304.12 593.5,-270.62 697.25,-270.62 697.25,-304.12"/>
<text xml:space="preserve" text-anchor="start" x="601.5" y="-290.62" font-family="Helvetica,sans-Serif" font-size="10.00">inja::Parser::parse</text>
<text xml:space="preserve" text-anchor="middle" x="645.38" y="-277.88" font-family="Helvetica,sans-Serif" font-size="10.00">_expression</text>
</a>
</g>
</g>
<!-- Node4&#45;&gt;Node5 -->
<g id="edge5_Node000004_Node000005" class="edge">
<title>Node4&#45;&gt;Node5</title>
<g id="a_edge5_Node000004_Node000005"><a xlink:title=" ">
<path fill="none" stroke="#63b8ff" d="M721.36,-287.38C713.45,-287.38 705.42,-287.38 697.71,-287.38"/>
<polygon fill="#63b8ff" stroke="#63b8ff" points="721.32,-290.88 731.32,-287.38 721.32,-283.88 721.32,-290.88"/>
</a>
</g>
</g>
<!-- Node5&#45;&gt;Node6 -->
<g id="edge6_Node000005_Node000006" class="edge">
<title>Node5&#45;&gt;Node6</title>
<g id="a_edge6_Node000005_Node000006"><a xlink:title=" ">
<path fill="none" stroke="#63b8ff" d="M603.47,-264.71C574.44,-248.61 536.74,-227.72 514.19,-215.22"/>
<polygon fill="#63b8ff" stroke="#63b8ff" points="601.58,-267.66 612.02,-269.44 604.97,-261.53 601.58,-267.66"/>
</a>
</g>
</g>
<!-- Node5&#45;&gt;Node13 -->
<g id="edge18_Node000005_Node000013" class="edge">
<title>Node5&#45;&gt;Node13</title>
<g id="a_edge18_Node000005_Node000013"><a xlink:title=" ">
<path fill="none" stroke="#63b8ff" d="M581.64,-288.53C486.27,-289.16 299.5,-285.95 144.25,-256.38 129.7,-253.6 114.24,-249.14 100.34,-244.53"/>
<polygon fill="#63b8ff" stroke="#63b8ff" points="581.6,-292.03 591.57,-288.45 581.54,-285.03 581.6,-292.03"/>
</a>
</g>
</g>
<!-- Node7 -->
<g id="Node000007" class="node">
<title>Node7</title>
<g id="a_Node000007"><a xlink:href="classinja_1_1Parser.html#a0f1312b0bf8691aba6cc4590169902fc" target="_top" xlink:title=" ">
<polygon fill="white" stroke="#666666" points="393.75,-95.75 290,-95.75 290,-75 393.75,-75 393.75,-95.75"/>
<text xml:space="preserve" text-anchor="middle" x="341.88" y="-82.25" font-family="Helvetica,sans-Serif" font-size="10.00">inja::Parser::parse</text>
</a>
</g>
</g>
<!-- Node6&#45;&gt;Node7 -->
<g id="edge7_Node000006_Node000007" class="edge">
<title>Node6&#45;&gt;Node7</title>
<g id="a_edge7_Node000006_Node000007"><a xlink:title=" ">
<path fill="none" stroke="#63b8ff" d="M470.13,-186.5C438.54,-161.39 382.02,-116.48 356.29,-96.04"/>
<polygon fill="#63b8ff" stroke="#63b8ff" points="467.88,-189.18 477.89,-192.66 472.24,-183.7 467.88,-189.18"/>
</a>
</g>
</g>
<!-- Node11 -->
<g id="Node000011" class="node">
<title>Node11</title>
<g id="a_Node000011"><a xlink:href="classinja_1_1Parser.html#a8c6a03b6665745f216ba86f5e514a913" target="_top" xlink:title=" ">
<polygon fill="white" stroke="#666666" points="393.75,-176.12 290,-176.12 290,-142.62 393.75,-142.62 393.75,-176.12"/>
<text xml:space="preserve" text-anchor="start" x="298" y="-162.62" font-family="Helvetica,sans-Serif" font-size="10.00">inja::Parser::parse</text>
<text xml:space="preserve" text-anchor="middle" x="341.88" y="-149.88" font-family="Helvetica,sans-Serif" font-size="10.00">_into_template</text>
</a>
</g>
</g>
<!-- Node6&#45;&gt;Node11 -->
<g id="edge11_Node000006_Node000011" class="edge">
<title>Node6&#45;&gt;Node11</title>
<g id="a_edge11_Node000006_Node000011"><a xlink:title=" ">
<path fill="none" stroke="#63b8ff" d="M445.76,-190.29C429.33,-185.35 410.79,-179.78 394.03,-174.75"/>
<polygon fill="#63b8ff" stroke="#63b8ff" points="444.72,-193.63 455.31,-193.16 446.74,-186.93 444.72,-193.63"/>
</a>
</g>
</g>
<!-- Node8 -->
<g id="Node000008" class="node">
<title>Node8</title>
<g id="a_Node000008"><a xlink:href="classinja_1_1Environment.html#a8421b8d61fc4de15f29c909bd7154f92" target="_top" xlink:title=" ">
<polygon fill="white" stroke="#666666" points="253.25,-72.12 145,-72.12 145,-38.62 253.25,-38.62 253.25,-72.12"/>
<text xml:space="preserve" text-anchor="start" x="153" y="-58.62" font-family="Helvetica,sans-Serif" font-size="10.00">inja::Environment::</text>
<text xml:space="preserve" text-anchor="middle" x="199.12" y="-45.88" font-family="Helvetica,sans-Serif" font-size="10.00">parse</text>
</a>
</g>
</g>
<!-- Node7&#45;&gt;Node8 -->
<g id="edge8_Node000007_Node000008" class="edge">
<title>Node7&#45;&gt;Node8</title>
<g id="a_edge8_Node000007_Node000008"><a xlink:title=" ">
<path fill="none" stroke="#63b8ff" d="M279.08,-72.2C270.63,-70.4 262.01,-68.56 253.71,-66.8"/>
<polygon fill="#63b8ff" stroke="#63b8ff" points="278.07,-75.57 288.58,-74.23 279.53,-68.72 278.07,-75.57"/>
</a>
</g>
</g>
<!-- Node9 -->
<g id="Node000009" class="node">
<title>Node9</title>
<g id="a_Node000009"><a xlink:href="classinja_1_1Environment.html#aac36e0cfdc9e7926914e46c0cd1caada" target="_top" xlink:title=" ">
<polygon fill="white" stroke="#666666" points="108.25,-72.12 0,-72.12 0,-38.62 108.25,-38.62 108.25,-72.12"/>
<text xml:space="preserve" text-anchor="start" x="8" y="-58.62" font-family="Helvetica,sans-Serif" font-size="10.00">inja::Environment::</text>
<text xml:space="preserve" text-anchor="middle" x="54.12" y="-45.88" font-family="Helvetica,sans-Serif" font-size="10.00">render</text>
</a>
</g>
</g>
<!-- Node8&#45;&gt;Node9 -->
<g id="edge9_Node000008_Node000009" class="edge">
<title>Node8&#45;&gt;Node9</title>
<g id="a_edge9_Node000008_Node000009"><a xlink:title=" ">
<path fill="none" stroke="#63b8ff" d="M133.54,-55.38C125.14,-55.38 116.61,-55.38 108.42,-55.38"/>
<polygon fill="#63b8ff" stroke="#63b8ff" points="133.36,-58.88 143.36,-55.38 133.36,-51.88 133.36,-58.88"/>
</a>
</g>
</g>
<!-- Node10 -->
<g id="Node000010" class="node">
<title>Node10</title>
<g id="a_Node000010"><a xlink:href="namespaceinja.html#a996f16f78b37d05e19cf44ac74d83e7e" target="_top" xlink:title="render with default settings to the given output stream">
<polygon fill="white" stroke="#666666" points="97.38,-20.75 10.88,-20.75 10.88,0 97.38,0 97.38,-20.75"/>
<text xml:space="preserve" text-anchor="middle" x="54.12" y="-7.25" font-family="Helvetica,sans-Serif" font-size="10.00">inja::render_to</text>
</a>
</g>
</g>
<!-- Node8&#45;&gt;Node10 -->
<g id="edge10_Node000008_Node000010" class="edge">
<title>Node8&#45;&gt;Node10</title>
<g id="a_edge10_Node000008_Node000010"><a xlink:title=" ">
<path fill="none" stroke="#63b8ff" d="M134.28,-35.28C118.8,-30.41 102.84,-25.39 89.34,-21.14"/>
<polygon fill="#63b8ff" stroke="#63b8ff" points="132.84,-38.5 143.43,-38.16 134.95,-31.82 132.84,-38.5"/>
</a>
</g>
</g>
<!-- Node12 -->
<g id="Node000012" class="node">
<title>Node12</title>
<g id="a_Node000012"><a xlink:href="classinja_1_1Parser.html#ae1cebbe51ef6a93fc3d448263f9bf1e3" target="_top" xlink:title=" ">
<polygon fill="white" stroke="#666666" points="254,-176.12 144.25,-176.12 144.25,-142.62 254,-142.62 254,-176.12"/>
<text xml:space="preserve" text-anchor="start" x="152.25" y="-162.62" font-family="Helvetica,sans-Serif" font-size="10.00">inja::Parser::add_to</text>
<text xml:space="preserve" text-anchor="middle" x="199.12" y="-149.88" font-family="Helvetica,sans-Serif" font-size="10.00">_template_storage</text>
</a>
</g>
</g>
<!-- Node11&#45;&gt;Node12 -->
<g id="edge12_Node000011_Node000012" class="edge">
<title>Node11&#45;&gt;Node12</title>
<g id="a_edge12_Node000011_Node000012"><a xlink:title=" ">
<path fill="none" stroke="#63b8ff" d="M278.18,-159.38C270.24,-159.38 262.17,-159.38 254.38,-159.38"/>
<polygon fill="#63b8ff" stroke="#63b8ff" points="278.15,-162.88 288.15,-159.38 278.15,-155.88 278.15,-162.88"/>
</a>
</g>
</g>
<!-- Node14 -->
<g id="Node000014" class="node">
<title>Node14</title>
<g id="a_Node000014"><a xlink:href="classinja_1_1Environment.html#aa46ccc27cc803933e0bfc9f58bba389c" target="_top" xlink:title=" ">
<polygon fill="white" stroke="#666666" points="253.25,-124.12 145,-124.12 145,-90.62 253.25,-90.62 253.25,-124.12"/>
<text xml:space="preserve" text-anchor="start" x="153" y="-110.62" font-family="Helvetica,sans-Serif" font-size="10.00">inja::Environment::</text>
<text xml:space="preserve" text-anchor="middle" x="199.12" y="-97.88" font-family="Helvetica,sans-Serif" font-size="10.00">parse_template</text>
</a>
</g>
</g>
<!-- Node11&#45;&gt;Node14 -->
<g id="edge15_Node000011_Node000014" class="edge">
<title>Node11&#45;&gt;Node14</title>
<g id="a_edge15_Node000011_Node000014"><a xlink:title=" ">
<path fill="none" stroke="#63b8ff" d="M283.72,-138.26C271.36,-133.69 258.44,-128.92 246.55,-124.53"/>
<polygon fill="#63b8ff" stroke="#63b8ff" points="282.39,-141.5 292.98,-141.68 284.81,-134.93 282.39,-141.5"/>
</a>
</g>
</g>
<!-- Node12&#45;&gt;Node13 -->
<g id="edge13_Node000012_Node000013" class="edge">
<title>Node12&#45;&gt;Node13</title>
<g id="a_edge13_Node000012_Node000013"><a xlink:title=" ">
<path fill="none" stroke="#63b8ff" d="M151.77,-181.42C132.12,-190.76 109.57,-201.48 91.2,-210.22"/>
<polygon fill="#63b8ff" stroke="#63b8ff" points="153.15,-184.64 160.67,-177.18 150.14,-178.32 153.15,-184.64"/>
</a>
</g>
</g>
<!-- Node13&#45;&gt;Node6 -->
<g id="edge14_Node000013_Node000006" class="edge">
<title>Node13&#45;&gt;Node6</title>
<g id="a_edge14_Node000013_Node000006"><a xlink:title=" ">
<path fill="none" stroke="#63b8ff" d="M117.58,-224.09C200.52,-219.73 346.19,-212.07 429.48,-207.69"/>
<polygon fill="#63b8ff" stroke="#63b8ff" points="117.63,-220.58 107.82,-224.6 117.99,-227.57 117.63,-220.58"/>
</a>
</g>
</g>
<!-- Node15 -->
<g id="Node000015" class="node">
<title>Node15</title>
<g id="a_Node000015"><a xlink:href="classinja_1_1Environment.html#a988701e4eb7fef51f2a3bd5ec74dd156" target="_top" xlink:title=" ">
<polygon fill="white" stroke="#666666" points="108.25,-124.12 0,-124.12 0,-90.62 108.25,-90.62 108.25,-124.12"/>
<text xml:space="preserve" text-anchor="start" x="8" y="-110.62" font-family="Helvetica,sans-Serif" font-size="10.00">inja::Environment::</text>
<text xml:space="preserve" text-anchor="middle" x="54.12" y="-97.88" font-family="Helvetica,sans-Serif" font-size="10.00">parse_file</text>
</a>
</g>
</g>
<!-- Node14&#45;&gt;Node15 -->
<g id="edge16_Node000014_Node000015" class="edge">
<title>Node14&#45;&gt;Node15</title>
<g id="a_edge16_Node000014_Node000015"><a xlink:title=" ">
<path fill="none" stroke="#63b8ff" d="M133.54,-107.38C125.14,-107.38 116.61,-107.38 108.42,-107.38"/>
<polygon fill="#63b8ff" stroke="#63b8ff" points="133.36,-110.88 143.36,-107.38 133.36,-103.88 133.36,-110.88"/>
</a>
</g>
</g>
<!-- Node16 -->
<g id="Node000016" class="node">
<title>Node16</title>
<g id="a_Node000016"><a xlink:href="classinja_1_1Environment.html#aaefdd9061b23f1764056689fe8c31e30" target="_top" xlink:title=" ">
<polygon fill="white" stroke="#666666" points="108.25,-176.12 0,-176.12 0,-142.62 108.25,-142.62 108.25,-176.12"/>
<text xml:space="preserve" text-anchor="start" x="8" y="-162.62" font-family="Helvetica,sans-Serif" font-size="10.00">inja::Environment::</text>
<text xml:space="preserve" text-anchor="middle" x="54.12" y="-149.88" font-family="Helvetica,sans-Serif" font-size="10.00">render_file</text>
</a>
</g>
</g>
<!-- Node14&#45;&gt;Node16 -->
<g id="edge17_Node000014_Node000016" class="edge">
<title>Node14&#45;&gt;Node16</title>
<g id="a_edge17_Node000014_Node000016"><a xlink:title=" ">
<path fill="none" stroke="#63b8ff" d="M140.44,-128.35C127.77,-132.96 114.5,-137.79 102.3,-142.22"/>
<polygon fill="#63b8ff" stroke="#63b8ff" points="141.28,-131.77 149.48,-125.06 138.89,-125.19 141.28,-131.77"/>
</a>
</g>
</g>
<!-- Node17&#45;&gt;Node4 -->
<g id="edge22_Node000017_Node000004" class="edge">
<title>Node17&#45;&gt;Node4</title>
<g id="a_edge22_Node000017_Node000004"><a xlink:title=" ">
<path fill="none" stroke="#63b8ff" d="M861.4,-288.91C853.32,-288.75 845.22,-288.58 837.47,-288.42"/>
<polygon fill="#63b8ff" stroke="#63b8ff" points="861.18,-292.41 871.25,-289.12 861.32,-285.41 861.18,-292.41"/>
</a>
</g>
</g>
</g>
</svg>
