<?xml version="1.0" encoding="UTF-8" standalone="no"?>
<!DOCTYPE svg PUBLIC "-//W3C//DTD SVG 1.1//EN"
 "http://www.w3.org/Graphics/SVG/1.1/DTD/svg11.dtd">
<!-- Generated by graphviz version 14.1.2 (0)
 -->
<!-- Title: anonymous_namespace{json&#45;validator.cpp}::first_error_handler Pages: 1 -->
<svg width="229pt" height="213pt"
 viewBox="0.00 0.00 229.00 213.00" xmlns="http://www.w3.org/2000/svg" xmlns:xlink="http://www.w3.org/1999/xlink">

<svg id="main" version="1.1" xmlns="http://www.w3.org/2000/svg" xmlns:xlink="http://www.w3.org/1999/xlink" xml:space="preserve">

<style type="text/css"><![CDATA[
.node, .edge {opacity: 0.7;}
.node.selected, .edge.selected {opacity: 1;}
.edge:hover path { stroke: red; }
.edge:hover polygon { stroke: red; fill: red; }
]]></style>
<script type="application/ecmascript" xlink:href="svg.min.js"/>
<svg id="graph" class="graph">
<g id="graph0" class="graph" transform="scale(1 1) rotate(0) translate(4 209)">
<title>anonymous_namespace{json&#45;validator.cpp}::first_error_handler</title>
<!-- Node1 -->
<g id="Node000001" class="node">
<title>Node1</title>
<g id="a_Node000001"><a xlink:title=" ">
<polygon fill="#999999" stroke="none" points="126.5,-46.25 0,-46.25 0,0 126.5,0 126.5,-46.25"/>
<text xml:space="preserve" text-anchor="start" x="4" y="-32.75" font-family="Helvetica,sans-Serif" font-size="10.00">anonymous_namespace</text>
<text xml:space="preserve" text-anchor="start" x="4" y="-20" font-family="Helvetica,sans-Serif" font-size="10.00">{json&#45;validator.cpp}</text>
<text xml:space="preserve" text-anchor="start" x="15.25" y="-7.25" font-family="Helvetica,sans-Serif" font-size="10.00">::first_error_handler</text>
<polygon fill="none" stroke="#666666" points="0,0 0,-46.25 126.5,-46.25 126.5,0 0,0"/>
</a>
</g>
</g>
<!-- Node2 -->
<g id="Node000002" class="node">
<title>Node2</title>
<g id="a_Node000002"><a xlink:href="classnlohmann_1_1json__schema_1_1error__handler.html" target="_top" xlink:title=" ">
<polygon fill="white" stroke="none" points="126.5,-134.5 0,-134.5 0,-101 126.5,-101 126.5,-134.5"/>
<text xml:space="preserve" text-anchor="start" x="4" y="-121" font-family="Helvetica,sans-Serif" font-size="10.00">nlohmann::json_schema</text>
<text xml:space="preserve" text-anchor="start" x="27.62" y="-108.25" font-family="Helvetica,sans-Serif" font-size="10.00">::error_handler</text>
<polygon fill="none" stroke="#666666" points="0,-101 0,-134.5 126.5,-134.5 126.5,-101 0,-101"/>
</a>
</g>
</g>
<!-- Node2&#45;&gt;Node1 -->
<g id="edge1_Node000001_Node000002" class="edge">
<title>Node2&#45;&gt;Node1</title>
<g id="a_edge1_Node000001_Node000002"><a xlink:title=" ">
<path fill="none" stroke="#63b8ff" d="M57.05,-89.75C56.21,-75.9 56.33,-59.24 57.4,-46.17"/>
<polygon fill="none" stroke="#63b8ff" points="53.55,-89.87 57.9,-99.53 60.52,-89.26 53.55,-89.87"/>
</a>
</g>
</g>
<!-- Node2&#45;&gt;Node1 -->
<g id="edge2_Node000001_Node000002" class="edge">
<title>Node2&#45;&gt;Node1</title>
<g id="a_edge2_Node000001_Node000002"><a xlink:title=" ">
<path fill="none" stroke="#63b8ff" d="M69.45,-89.75C70.29,-75.9 70.17,-59.24 69.1,-46.17"/>
<polygon fill="none" stroke="#63b8ff" points="65.98,-89.26 68.6,-99.53 72.95,-89.87 65.98,-89.26"/>
</a>
</g>
</g>
<!-- Node3 -->
<g id="Node000003" class="node">
<title>Node3</title>
<g id="a_Node000003"><a xlink:title=" ">
<polygon fill="white" stroke="none" points="201.62,-128.12 144.88,-128.12 144.88,-107.38 201.62,-107.38 201.62,-128.12"/>
<text xml:space="preserve" text-anchor="start" x="148.88" y="-114.62" font-family="Helvetica,sans-Serif" font-size="10.00">std::string</text>
<polygon fill="none" stroke="#666666" points="144.88,-107.38 144.88,-128.12 201.62,-128.12 201.62,-107.38 144.88,-107.38"/>
</a>
</g>
</g>
<!-- Node3&#45;&gt;Node1 -->
<g id="edge3_Node000001_Node000003" class="edge">
<title>Node3&#45;&gt;Node1</title>
<g id="a_edge3_Node000001_Node000003"><a xlink:title=" ">
<path fill="none" stroke="#63b8ff" d="M162.3,-107.53C147.69,-95.23 121.12,-72.85 99.17,-54.37"/>
<polygon fill="none" stroke="#63b8ff" points="99.34,-54.51 92.17,-53.71 90.16,-46.78 97.33,-47.59 99.34,-54.51"/>
</a>
</g>
<text xml:space="preserve" text-anchor="start" x="134.34" y="-70.5" font-family="Helvetica,sans-Serif" font-size="10.00" fill="grey">+message_</text>
</g>
<!-- Node4 -->
<g id="Node000004" class="node">
<title>Node4</title>
<g id="a_Node000004"><a xlink:title=" ">
<polygon fill="white" stroke="none" points="221.12,-205 125.38,-205 125.38,-171.5 221.12,-171.5 221.12,-205"/>
<text xml:space="preserve" text-anchor="start" x="129.38" y="-191.5" font-family="Helvetica,sans-Serif" font-size="10.00">std::basic_string&lt;</text>
<text xml:space="preserve" text-anchor="start" x="154.88" y="-178.75" font-family="Helvetica,sans-Serif" font-size="10.00"> Char &gt;</text>
<polygon fill="none" stroke="#666666" points="125.38,-171.5 125.38,-205 221.12,-205 221.12,-171.5 125.38,-171.5"/>
</a>
</g>
</g>
<!-- Node4&#45;&gt;Node3 -->
<g id="edge4_Node000003_Node000004" class="edge">
<title>Node4&#45;&gt;Node3</title>
<g id="a_edge4_Node000003_Node000004"><a xlink:title=" ">
<path fill="none" stroke="#63b8ff" d="M173.25,-160.45C173.25,-149.03 173.25,-136.44 173.25,-128.12"/>
<polygon fill="none" stroke="#63b8ff" points="169.75,-160.19 173.25,-170.19 176.75,-160.19 169.75,-160.19"/>
</a>
</g>
</g>
</g>
</svg>
</svg>

<style type='text/css'>
<![CDATA[
[data-mouse-over-selected='false'] { opacity: 0.7; }
[data-mouse-over-selected='true']  { opacity: 1.0; }
]]>
</style>
<script type="application/ecmascript"><![CDATA[
document.addEventListener('DOMContentLoaded', (event) => {
  highlightEdges();
  highlightAdjacentNodes();
});
]]></script>
</svg>
