<?xml version="1.0" encoding="UTF-8" standalone="no"?>
<!DOCTYPE svg PUBLIC "-//W3C//DTD SVG 1.1//EN"
 "http://www.w3.org/Graphics/SVG/1.1/DTD/svg11.dtd">
<!-- Generated by graphviz version 2.42.4 (0)
 -->
<!-- Title: inja::Renderer::throw_renderer_error Pages: 1 -->
<svg width="423pt" height="352pt"
 viewBox="0.00 0.00 423.00 352.00" xmlns="http://www.w3.org/2000/svg" xmlns:xlink="http://www.w3.org/1999/xlink">

<svg id="main" version="1.1" xmlns="http://www.w3.org/2000/svg" xmlns:xlink="http://www.w3.org/1999/xlink" xml:space="preserve">

<style type="text/css"><![CDATA[
.node, .edge {opacity: 0.7;}
.node.selected, .edge.selected {opacity: 1;}
.edge:hover path { stroke: red; }
.edge:hover polygon { stroke: red; fill: red; }
]]></style>
<script type="application/ecmascript" xlink:href="svg.min.js"/>
<svg id="graph" class="graph">
<g id="graph0" class="graph" transform="scale(1 1) rotate(0) translate(4 348)">
<title>inja::Renderer::throw_renderer_error</title>
<!-- Node1 -->
<g id="Node000001" class="node">
<title>Node1</title>
<g id="a_Node000001"><a xlink:title=" ">
<polygon fill="#999999" stroke="#666666" points="415,-165.5 296,-165.5 296,-135.5 415,-135.5 415,-165.5"/>
<text text-anchor="start" x="304" y="-153.5" font-family="Helvetica,sans-Serif" font-size="10.00">inja::Renderer::throw</text>
<text text-anchor="middle" x="355.5" y="-142.5" font-family="Helvetica,sans-Serif" font-size="10.00">_renderer_error</text>
</a>
</g>
</g>
<!-- Node2 -->
<g id="Node000002" class="node">
<title>Node2</title>
<g id="a_Node000002"><a xlink:href="classinja_1_1Renderer.html#a1f914ffa16fd02743b3700b1390b41ab" target="_top" xlink:title=" ">
<polygon fill="white" stroke="#666666" points="260,-275.5 148,-275.5 148,-245.5 260,-245.5 260,-275.5"/>
<text text-anchor="start" x="156" y="-263.5" font-family="Helvetica,sans-Serif" font-size="10.00">inja::Renderer::eval</text>
<text text-anchor="middle" x="204" y="-252.5" font-family="Helvetica,sans-Serif" font-size="10.00">_expression_list</text>
</a>
</g>
</g>
<!-- Node1&#45;&gt;Node2 -->
<g id="edge1_Node000001_Node000002" class="edge">
<title>Node1&#45;&gt;Node2</title>
<g id="a_edge1_Node000001_Node000002"><a xlink:title=" ">
<path fill="none" stroke="#63b8ff" d="M331.65,-172.65C313.21,-189.87 286.11,-213.75 260,-231.5 252.68,-236.48 244.41,-241.24 236.54,-245.42"/>
<polygon fill="#63b8ff" stroke="#63b8ff" points="334.13,-175.12 339,-165.71 329.32,-170.03 334.13,-175.12"/>
</a>
</g>
</g>
<!-- Node4 -->
<g id="Node000004" class="node">
<title>Node4</title>
<g id="a_Node000004"><a xlink:href="classinja_1_1Renderer.html#abcbf6282e8229df9163c06687d57a5d1" target="_top" xlink:title=" ">
<polygon fill="white" stroke="#666666" points="112,-344 0,-344 0,-325 112,-325 112,-344"/>
<text text-anchor="middle" x="56" y="-332" font-family="Helvetica,sans-Serif" font-size="10.00">inja::Renderer::visit</text>
</a>
</g>
</g>
<!-- Node1&#45;&gt;Node4 -->
<g id="edge10_Node000001_Node000004" class="edge">
<title>Node1&#45;&gt;Node4</title>
<g id="a_edge10_Node000001_Node000004"><a xlink:title=" ">
<path fill="none" stroke="#63b8ff" d="M343.84,-175.13C329.36,-205.6 300.56,-256.81 260,-284.5 215.93,-314.58 155.54,-326.61 112.1,-331.39"/>
<polygon fill="#63b8ff" stroke="#63b8ff" points="347.2,-176.21 348.2,-165.66 340.84,-173.28 347.2,-176.21"/>
</a>
</g>
</g>
<!-- Node5 -->
<g id="Node000005" class="node">
<title>Node5</title>
<g id="a_Node000005"><a xlink:href="classinja_1_1Renderer.html#aeea5720f92af93c088719a981769db3b" target="_top" xlink:title=" ">
<polygon fill="white" stroke="#666666" points="112,-196 0,-196 0,-177 112,-177 112,-196"/>
<text text-anchor="middle" x="56" y="-184" font-family="Helvetica,sans-Serif" font-size="10.00">inja::Renderer::visit</text>
</a>
</g>
</g>
<!-- Node1&#45;&gt;Node5 -->
<g id="edge11_Node000001_Node000005" class="edge">
<title>Node1&#45;&gt;Node5</title>
<g id="a_edge11_Node000001_Node000005"><a xlink:title=" ">
<path fill="none" stroke="#63b8ff" d="M323.6,-170.88C305.8,-181.38 282.55,-193.1 260,-198.5 205.58,-211.53 140.73,-203.82 99.23,-196.07"/>
<polygon fill="#63b8ff" stroke="#63b8ff" points="325.65,-173.73 332.38,-165.54 322.01,-167.75 325.65,-173.73"/>
</a>
</g>
</g>
<!-- Node8 -->
<g id="Node000008" class="node">
<title>Node8</title>
<g id="a_Node000008"><a xlink:href="classinja_1_1Renderer.html#a6c3a1b74c1447dcd9f523e84599aa0f3" target="_top" xlink:title=" ">
<polygon fill="white" stroke="#666666" points="257.5,-189.5 150.5,-189.5 150.5,-159.5 257.5,-159.5 257.5,-189.5"/>
<text text-anchor="start" x="158.5" y="-177.5" font-family="Helvetica,sans-Serif" font-size="10.00">inja::Renderer::get</text>
<text text-anchor="middle" x="204" y="-166.5" font-family="Helvetica,sans-Serif" font-size="10.00">_argument_vector</text>
</a>
</g>
</g>
<!-- Node1&#45;&gt;Node8 -->
<g id="edge7_Node000001_Node000008" class="edge">
<title>Node1&#45;&gt;Node8</title>
<g id="a_edge7_Node000001_Node000008"><a xlink:title=" ">
<path fill="none" stroke="#63b8ff" d="M285.7,-161.55C276.27,-163.06 266.73,-164.59 257.65,-166.05"/>
<polygon fill="#63b8ff" stroke="#63b8ff" points="286.52,-164.96 295.84,-159.92 285.41,-158.05 286.52,-164.96"/>
</a>
</g>
</g>
<!-- Node9 -->
<g id="Node000009" class="node">
<title>Node9</title>
<g id="a_Node000009"><a xlink:href="classinja_1_1Renderer.html#a0e987388b203150124999425ae05b35e" target="_top" xlink:title=" ">
<polygon fill="white" stroke="#666666" points="257.5,-141.5 150.5,-141.5 150.5,-111.5 257.5,-111.5 257.5,-141.5"/>
<text text-anchor="start" x="158.5" y="-129.5" font-family="Helvetica,sans-Serif" font-size="10.00">inja::Renderer::get</text>
<text text-anchor="middle" x="204" y="-118.5" font-family="Helvetica,sans-Serif" font-size="10.00">_arguments</text>
</a>
</g>
</g>
<!-- Node1&#45;&gt;Node9 -->
<g id="edge8_Node000001_Node000009" class="edge">
<title>Node1&#45;&gt;Node9</title>
<g id="a_edge8_Node000001_Node000009"><a xlink:title=" ">
<path fill="none" stroke="#63b8ff" d="M285.7,-139.45C276.27,-137.94 266.73,-136.41 257.65,-134.95"/>
<polygon fill="#63b8ff" stroke="#63b8ff" points="285.41,-142.95 295.84,-141.08 286.52,-136.04 285.41,-142.95"/>
</a>
</g>
</g>
<!-- Node10 -->
<g id="Node000010" class="node">
<title>Node10</title>
<g id="a_Node000010"><a xlink:href="classinja_1_1Renderer.html#aed5d4de516e9aad1801df4ccb53fd52c" target="_top" xlink:title=" ">
<polygon fill="white" stroke="#666666" points="260,-93 148,-93 148,-74 260,-74 260,-93"/>
<text text-anchor="middle" x="204" y="-81" font-family="Helvetica,sans-Serif" font-size="10.00">inja::Renderer::visit</text>
</a>
</g>
</g>
<!-- Node1&#45;&gt;Node10 -->
<g id="edge9_Node000001_Node000010" class="edge">
<title>Node1&#45;&gt;Node10</title>
<g id="a_edge9_Node000001_Node000010"><a xlink:title=" ">
<path fill="none" stroke="#63b8ff" d="M318.07,-130.52C300.75,-121.4 279.58,-110.81 260,-102.5 252,-99.11 243.17,-95.85 234.97,-93.02"/>
<polygon fill="#63b8ff" stroke="#63b8ff" points="316.8,-133.81 327.27,-135.41 320.08,-127.62 316.8,-133.81"/>
</a>
</g>
</g>
<!-- Node11 -->
<g id="Node000011" class="node">
<title>Node11</title>
<g id="a_Node000011"><a xlink:href="classinja_1_1Renderer.html#a14531f0d69386b4494646f8680fdd905" target="_top" xlink:title=" ">
<polygon fill="white" stroke="#666666" points="260,-56 148,-56 148,-37 260,-37 260,-56"/>
<text text-anchor="middle" x="204" y="-44" font-family="Helvetica,sans-Serif" font-size="10.00">inja::Renderer::visit</text>
</a>
</g>
</g>
<!-- Node1&#45;&gt;Node11 -->
<g id="edge12_Node000001_Node000011" class="edge">
<title>Node1&#45;&gt;Node11</title>
<g id="a_edge12_Node000001_Node000011"><a xlink:title=" ">
<path fill="none" stroke="#63b8ff" d="M334.83,-127.87C317.01,-108.62 289.15,-81.47 260,-64.5 254.27,-61.16 247.84,-58.35 241.45,-56.01"/>
<polygon fill="#63b8ff" stroke="#63b8ff" points="332.29,-130.28 341.6,-135.33 337.47,-125.57 332.29,-130.28"/>
</a>
</g>
</g>
<!-- Node12 -->
<g id="Node000012" class="node">
<title>Node12</title>
<g id="a_Node000012"><a xlink:href="classinja_1_1Renderer.html#a997785e97e17d8c3d6ce3015382adfb6" target="_top" xlink:title=" ">
<polygon fill="white" stroke="#666666" points="260,-19 148,-19 148,0 260,0 260,-19"/>
<text text-anchor="middle" x="204" y="-7" font-family="Helvetica,sans-Serif" font-size="10.00">inja::Renderer::visit</text>
</a>
</g>
</g>
<!-- Node1&#45;&gt;Node12 -->
<g id="edge13_Node000001_Node000012" class="edge">
<title>Node1&#45;&gt;Node12</title>
<g id="a_edge13_Node000001_Node000012"><a xlink:title=" ">
<path fill="none" stroke="#63b8ff" d="M341.82,-126.24C326.14,-98.53 296.96,-53.67 260,-27.5 255.24,-24.13 249.82,-21.37 244.27,-19.1"/>
<polygon fill="#63b8ff" stroke="#63b8ff" points="338.9,-128.2 346.79,-135.27 345.03,-124.82 338.9,-128.2"/>
</a>
</g>
</g>
<!-- Node3 -->
<g id="Node000003" class="node">
<title>Node3</title>
<g id="a_Node000003"><a xlink:href="classinja_1_1Renderer.html#a19afdf618cdc320d4387906208cdabe4" target="_top" xlink:title=" ">
<polygon fill="white" stroke="#666666" points="112,-307 0,-307 0,-288 112,-288 112,-307"/>
<text text-anchor="middle" x="56" y="-295" font-family="Helvetica,sans-Serif" font-size="10.00">inja::Renderer::visit</text>
</a>
</g>
</g>
<!-- Node2&#45;&gt;Node3 -->
<g id="edge2_Node000002_Node000003" class="edge">
<title>Node2&#45;&gt;Node3</title>
<g id="a_edge2_Node000002_Node000003"><a xlink:title=" ">
<path fill="none" stroke="#63b8ff" d="M138.11,-276.95C123.21,-280.72 107.87,-284.61 94.58,-287.98"/>
<polygon fill="#63b8ff" stroke="#63b8ff" points="138.97,-280.34 147.8,-274.49 137.25,-273.55 138.97,-280.34"/>
</a>
</g>
</g>
<!-- Node2&#45;&gt;Node4 -->
<g id="edge3_Node000002_Node000004" class="edge">
<title>Node2&#45;&gt;Node4</title>
<g id="a_edge3_Node000002_Node000004"><a xlink:title=" ">
<path fill="none" stroke="#63b8ff" d="M173.2,-281.31C155.9,-292.76 133.36,-306.6 112,-316.5 105.16,-319.67 97.61,-322.53 90.35,-324.98"/>
<polygon fill="#63b8ff" stroke="#63b8ff" points="175.39,-284.06 181.74,-275.58 171.49,-278.25 175.39,-284.06"/>
</a>
</g>
</g>
<!-- Node2&#45;&gt;Node5 -->
<g id="edge4_Node000002_Node000005" class="edge">
<title>Node2&#45;&gt;Node5</title>
<g id="a_edge4_Node000002_Node000005"><a xlink:title=" ">
<path fill="none" stroke="#63b8ff" d="M163.45,-240.62C158.18,-237.69 152.91,-234.61 148,-231.5 131.1,-220.8 129.74,-213.73 112,-204.5 105.76,-201.25 98.82,-198.44 92.03,-196.06"/>
<polygon fill="#63b8ff" stroke="#63b8ff" points="161.79,-243.7 172.25,-245.39 165.13,-237.55 161.79,-243.7"/>
</a>
</g>
</g>
<!-- Node6 -->
<g id="Node000006" class="node">
<title>Node6</title>
<g id="a_Node000006"><a xlink:href="classinja_1_1Renderer.html#ac3e86b9ee2504155fddc1cf3d64f7398" target="_top" xlink:title=" ">
<polygon fill="white" stroke="#666666" points="112,-270 0,-270 0,-251 112,-251 112,-270"/>
<text text-anchor="middle" x="56" y="-258" font-family="Helvetica,sans-Serif" font-size="10.00">inja::Renderer::visit</text>
</a>
</g>
</g>
<!-- Node2&#45;&gt;Node6 -->
<g id="edge5_Node000002_Node000006" class="edge">
<title>Node2&#45;&gt;Node6</title>
<g id="a_edge5_Node000002_Node000006"><a xlink:title=" ">
<path fill="none" stroke="#63b8ff" d="M137.59,-260.5C129.14,-260.5 120.54,-260.5 112.27,-260.5"/>
<polygon fill="#63b8ff" stroke="#63b8ff" points="137.8,-264 147.8,-260.5 137.8,-257 137.8,-264"/>
</a>
</g>
</g>
<!-- Node7 -->
<g id="Node000007" class="node">
<title>Node7</title>
<g id="a_Node000007"><a xlink:href="classinja_1_1Renderer.html#a95814879e559a673bfb01c5e80abdabf" target="_top" xlink:title=" ">
<polygon fill="white" stroke="#666666" points="112,-233 0,-233 0,-214 112,-214 112,-233"/>
<text text-anchor="middle" x="56" y="-221" font-family="Helvetica,sans-Serif" font-size="10.00">inja::Renderer::visit</text>
</a>
</g>
</g>
<!-- Node2&#45;&gt;Node7 -->
<g id="edge6_Node000002_Node000007" class="edge">
<title>Node2&#45;&gt;Node7</title>
<g id="a_edge6_Node000002_Node000007"><a xlink:title=" ">
<path fill="none" stroke="#63b8ff" d="M138.11,-244.05C123.21,-240.28 107.87,-236.39 94.58,-233.02"/>
<polygon fill="#63b8ff" stroke="#63b8ff" points="137.25,-247.45 147.8,-246.51 138.97,-240.66 137.25,-247.45"/>
</a>
</g>
</g>
</g>
</svg>
</svg>

<style type='text/css'>
<![CDATA[
[data-mouse-over-selected='false'] { opacity: 0.7; }
[data-mouse-over-selected='true']  { opacity: 1.0; }
]]>
</style>
<script type="application/ecmascript"><![CDATA[
document.addEventListener('DOMContentLoaded', (event) => {
  highlightEdges();
  highlightAdjacentNodes();
});
]]></script>
</svg>
