<?xml version="1.0" encoding="UTF-8" standalone="no"?>
<!DOCTYPE svg PUBLIC "-//W3C//DTD SVG 1.1//EN"
 "http://www.w3.org/Graphics/SVG/1.1/DTD/svg11.dtd">
<!-- Generated by graphviz version 2.42.4 (0)
 -->
<!-- Title: mqtt::mqttbroker::SocketContextFactory::create Pages: 1 -->
<svg width="1558pt" height="517pt"
 viewBox="0.00 0.00 1558.00 516.57" xmlns="http://www.w3.org/2000/svg" xmlns:xlink="http://www.w3.org/1999/xlink">
<g id="graph0" class="graph" transform="scale(1 1) rotate(0) translate(4 512.57)">
<title>mqtt::mqttbroker::SocketContextFactory::create</title>
<!-- Node1 -->
<g id="Node000001" class="node">
<title>Node1</title>
<g id="a_Node000001"><a xlink:title=" ">
<polygon fill="#999999" stroke="#666666" points="138,-395.92 0,-395.92 0,-365.92 138,-365.92 138,-395.92"/>
<text text-anchor="start" x="8" y="-383.92" font-family="Helvetica,sans-Serif" font-size="10.00">mqtt::mqttbroker::Socket</text>
<text text-anchor="middle" x="69" y="-372.92" font-family="Helvetica,sans-Serif" font-size="10.00">ContextFactory::create</text>
</a>
</g>
</g>
<!-- Node2 -->
<g id="Node000002" class="node">
<title>Node2</title>
<g id="a_Node000002"><a xlink:href="classmqtt_1_1mqttbroker_1_1lib_1_1Mqtt.html#a183033437406ea7be6c978ab3153bad5" target="_top" xlink:title=" ">
<polygon fill="white" stroke="#666666" points="313.5,-431.92 195.5,-431.92 195.5,-401.92 313.5,-401.92 313.5,-431.92"/>
<text text-anchor="start" x="203.5" y="-419.92" font-family="Helvetica,sans-Serif" font-size="10.00">mqtt::mqttbroker::lib</text>
<text text-anchor="middle" x="254.5" y="-408.92" font-family="Helvetica,sans-Serif" font-size="10.00">::Mqtt::Mqtt</text>
</a>
</g>
</g>
<!-- Node1&#45;&gt;Node2 -->
<g id="edge1_Node000001_Node000002" class="edge">
<title>Node1&#45;&gt;Node2</title>
<g id="a_edge1_Node000001_Node000002"><a xlink:title=" ">
<path fill="none" stroke="#63b8ff" d="M138.07,-394.27C153.55,-397.31 169.99,-400.53 185.47,-403.57"/>
<polygon fill="#63b8ff" stroke="#63b8ff" points="184.99,-407.04 195.48,-405.53 186.34,-400.17 184.99,-407.04"/>
</a>
</g>
</g>
<!-- Node10 -->
<g id="Node000010" class="node">
<title>Node10</title>
<g id="a_Node000010"><a xlink:href="classmqtt_1_1lib_1_1JsonMappingReader.html#a77231994bd3ef854feb2db79dd71746b" target="_top" xlink:title=" ">
<polygon fill="white" stroke="#666666" points="335,-371.92 174,-371.92 174,-341.92 335,-341.92 335,-371.92"/>
<text text-anchor="start" x="182" y="-359.92" font-family="Helvetica,sans-Serif" font-size="10.00">mqtt::lib::JsonMappingReader</text>
<text text-anchor="middle" x="254.5" y="-348.92" font-family="Helvetica,sans-Serif" font-size="10.00">::readMappingFromFile</text>
</a>
</g>
</g>
<!-- Node1&#45;&gt;Node10 -->
<g id="edge12_Node000001_Node000010" class="edge">
<title>Node1&#45;&gt;Node10</title>
<g id="a_edge12_Node000001_Node000010"><a xlink:title=" ">
<path fill="none" stroke="#63b8ff" d="M138.07,-372.01C146.43,-370.92 155.06,-369.79 163.68,-368.66"/>
<polygon fill="#63b8ff" stroke="#63b8ff" points="164.3,-372.11 173.77,-367.35 163.4,-365.17 164.3,-372.11"/>
</a>
</g>
</g>
<!-- Node3 -->
<g id="Node000003" class="node">
<title>Node3</title>
<g id="a_Node000003"><a xlink:href="classmqtt_1_1lib_1_1MqttMapper.html#ae244e3745588740bf513016cb0f06a74" target="_top" xlink:title=" ">
<polygon fill="white" stroke="#666666" points="500,-445.92 377,-445.92 377,-415.92 500,-415.92 500,-445.92"/>
<text text-anchor="start" x="385" y="-433.92" font-family="Helvetica,sans-Serif" font-size="10.00">mqtt::lib::MqttMapper</text>
<text text-anchor="middle" x="438.5" y="-422.92" font-family="Helvetica,sans-Serif" font-size="10.00">::MqttMapper</text>
</a>
</g>
</g>
<!-- Node2&#45;&gt;Node3 -->
<g id="edge2_Node000002_Node000003" class="edge">
<title>Node2&#45;&gt;Node3</title>
<g id="a_edge2_Node000002_Node000003"><a xlink:title=" ">
<path fill="none" stroke="#63b8ff" d="M313.59,-421.39C330.46,-422.68 349.07,-424.12 366.63,-425.47"/>
<polygon fill="#63b8ff" stroke="#63b8ff" points="366.59,-428.97 376.83,-426.25 367.13,-421.99 366.59,-428.97"/>
</a>
</g>
</g>
<!-- Node4 -->
<g id="Node000004" class="node">
<title>Node4</title>
<g id="a_Node000004"><a xlink:href="classinja_1_1Environment.html#aacf2afb515ec7efb0b844174093fed6d" target="_top" xlink:title="Adds a variadic callback.">
<polygon fill="white" stroke="#666666" points="664,-402.92 555,-402.92 555,-372.92 664,-372.92 664,-402.92"/>
<text text-anchor="start" x="563" y="-390.92" font-family="Helvetica,sans-Serif" font-size="10.00">inja::Environment::</text>
<text text-anchor="middle" x="609.5" y="-379.92" font-family="Helvetica,sans-Serif" font-size="10.00">add_callback</text>
</a>
</g>
</g>
<!-- Node3&#45;&gt;Node4 -->
<g id="edge3_Node000003_Node000004" class="edge">
<title>Node3&#45;&gt;Node4</title>
<g id="a_edge3_Node000003_Node000004"><a xlink:title=" ">
<path fill="none" stroke="#63b8ff" d="M498.61,-415.88C513.6,-412.06 529.77,-407.95 544.97,-404.08"/>
<polygon fill="#63b8ff" stroke="#63b8ff" points="545.97,-407.44 554.8,-401.58 544.24,-400.66 545.97,-407.44"/>
</a>
</g>
</g>
<!-- Node5 -->
<g id="Node000005" class="node">
<title>Node5</title>
<g id="a_Node000005"><a xlink:href="classinja_1_1Environment.html#accda3196054131f8e8cd484ef92c0627" target="_top" xlink:title="Adds a callback with given number or arguments.">
<polygon fill="white" stroke="#666666" points="845,-445.92 736,-445.92 736,-415.92 845,-415.92 845,-445.92"/>
<text text-anchor="start" x="744" y="-433.92" font-family="Helvetica,sans-Serif" font-size="10.00">inja::Environment::</text>
<text text-anchor="middle" x="790.5" y="-422.92" font-family="Helvetica,sans-Serif" font-size="10.00">add_callback</text>
</a>
</g>
</g>
<!-- Node3&#45;&gt;Node5 -->
<g id="edge7_Node000003_Node000005" class="edge">
<title>Node3&#45;&gt;Node5</title>
<g id="a_edge7_Node000003_Node000005"><a xlink:title=" ">
<path fill="none" stroke="#63b8ff" d="M500.07,-430.92C563.21,-430.92 661.75,-430.92 725.97,-430.92"/>
<polygon fill="#63b8ff" stroke="#63b8ff" points="725.98,-434.42 735.98,-430.92 725.98,-427.42 725.98,-434.42"/>
</a>
</g>
</g>
<!-- Node8 -->
<g id="Node000008" class="node">
<title>Node8</title>
<g id="a_Node000008"><a xlink:href="classinja_1_1Environment.html#abf3676db94a59534d715e83f4d5e4940" target="_top" xlink:title="Adds a variadic void callback.">
<polygon fill="white" stroke="#666666" points="664,-488.92 555,-488.92 555,-458.92 664,-458.92 664,-488.92"/>
<text text-anchor="start" x="563" y="-476.92" font-family="Helvetica,sans-Serif" font-size="10.00">inja::Environment::</text>
<text text-anchor="middle" x="609.5" y="-465.92" font-family="Helvetica,sans-Serif" font-size="10.00">add_void_callback</text>
</a>
</g>
</g>
<!-- Node3&#45;&gt;Node8 -->
<g id="edge8_Node000003_Node000008" class="edge">
<title>Node3&#45;&gt;Node8</title>
<g id="a_edge8_Node000003_Node000008"><a xlink:title=" ">
<path fill="none" stroke="#63b8ff" d="M498.61,-445.96C513.6,-449.77 529.77,-453.88 544.97,-457.75"/>
<polygon fill="#63b8ff" stroke="#63b8ff" points="544.24,-461.18 554.8,-460.25 545.97,-454.39 544.24,-461.18"/>
</a>
</g>
</g>
<!-- Node9 -->
<g id="Node000009" class="node">
<title>Node9</title>
<g id="a_Node000009"><a xlink:href="classinja_1_1Environment.html#a3467986ae633a7c546a62c387b6c613f" target="_top" xlink:title="Adds a void callback with given number or arguments.">
<polygon fill="white" stroke="#666666" points="845,-493.92 736,-493.92 736,-463.92 845,-463.92 845,-493.92"/>
<text text-anchor="start" x="744" y="-481.92" font-family="Helvetica,sans-Serif" font-size="10.00">inja::Environment::</text>
<text text-anchor="middle" x="790.5" y="-470.92" font-family="Helvetica,sans-Serif" font-size="10.00">add_void_callback</text>
</a>
</g>
</g>
<!-- Node3&#45;&gt;Node9 -->
<g id="edge11_Node000003_Node000009" class="edge">
<title>Node3&#45;&gt;Node9</title>
<g id="a_edge11_Node000003_Node000009"><a xlink:title=" ">
<path fill="none" stroke="#63b8ff" d="M456.06,-446.2C475.12,-462.66 508.18,-487.84 542,-497.92 602.6,-515.97 675.03,-507.09 725.83,-496.21"/>
<polygon fill="#63b8ff" stroke="#63b8ff" points="726.69,-499.61 735.69,-494.02 725.17,-492.78 726.69,-499.61"/>
</a>
</g>
</g>
<!-- Node4&#45;&gt;Node5 -->
<g id="edge4_Node000004_Node000005" class="edge">
<title>Node4&#45;&gt;Node5</title>
<g id="a_edge4_Node000004_Node000005"><a xlink:title=" ">
<path fill="none" stroke="#63b8ff" d="M664.21,-400.82C683.68,-405.5 705.85,-410.82 726.08,-415.68"/>
<polygon fill="#63b8ff" stroke="#63b8ff" points="725.29,-419.09 735.83,-418.02 726.93,-412.29 725.29,-419.09"/>
</a>
</g>
</g>
<!-- Node6 -->
<g id="Node000006" class="node">
<title>Node6</title>
<g id="a_Node000006"><a xlink:href="classinja_1_1FunctionStorage.html#ae6060e88dacd550e8b48992fd6f0500f" target="_top" xlink:title=" ">
<polygon fill="white" stroke="#666666" points="1031,-493.92 912,-493.92 912,-463.92 1031,-463.92 1031,-493.92"/>
<text text-anchor="start" x="920" y="-481.92" font-family="Helvetica,sans-Serif" font-size="10.00">inja::FunctionStorage</text>
<text text-anchor="middle" x="971.5" y="-470.92" font-family="Helvetica,sans-Serif" font-size="10.00">::add_callback</text>
</a>
</g>
</g>
<!-- Node5&#45;&gt;Node6 -->
<g id="edge5_Node000005_Node000006" class="edge">
<title>Node5&#45;&gt;Node6</title>
<g id="a_edge5_Node000005_Node000006"><a xlink:title=" ">
<path fill="none" stroke="#63b8ff" d="M845.21,-445.32C863.88,-450.33 885.05,-456 904.6,-461.24"/>
<polygon fill="#63b8ff" stroke="#63b8ff" points="903.78,-464.65 914.35,-463.86 905.59,-457.89 903.78,-464.65"/>
</a>
</g>
</g>
<!-- Node7 -->
<g id="Node000007" class="node">
<title>Node7</title>
<g id="a_Node000007"><a xlink:href="structinja_1_1FunctionStorage_1_1FunctionData.html#a7e038999d61d736eb2868f64e4820ad7" target="_top" xlink:title=" ">
<polygon fill="white" stroke="#666666" points="1233,-494.92 1075,-494.92 1075,-464.92 1233,-464.92 1233,-494.92"/>
<text text-anchor="start" x="1083" y="-482.92" font-family="Helvetica,sans-Serif" font-size="10.00">inja::FunctionStorage</text>
<text text-anchor="middle" x="1154" y="-471.92" font-family="Helvetica,sans-Serif" font-size="10.00">::FunctionData::FunctionData</text>
</a>
</g>
</g>
<!-- Node6&#45;&gt;Node7 -->
<g id="edge6_Node000006_Node000007" class="edge">
<title>Node6&#45;&gt;Node7</title>
<g id="a_edge6_Node000006_Node000007"><a xlink:title=" ">
<path fill="none" stroke="#63b8ff" d="M1031.1,-479.24C1041.93,-479.3 1053.45,-479.37 1064.93,-479.43"/>
<polygon fill="#63b8ff" stroke="#63b8ff" points="1064.97,-482.93 1074.99,-479.48 1065.01,-475.93 1064.97,-482.93"/>
</a>
</g>
</g>
<!-- Node8&#45;&gt;Node9 -->
<g id="edge9_Node000008_Node000009" class="edge">
<title>Node8&#45;&gt;Node9</title>
<g id="a_edge9_Node000008_Node000009"><a xlink:title=" ">
<path fill="none" stroke="#63b8ff" d="M664.21,-475.42C683.59,-475.96 705.65,-476.57 725.8,-477.14"/>
<polygon fill="#63b8ff" stroke="#63b8ff" points="725.74,-480.64 735.83,-477.42 725.93,-473.64 725.74,-480.64"/>
</a>
</g>
</g>
<!-- Node9&#45;&gt;Node6 -->
<g id="edge10_Node000009_Node000006" class="edge">
<title>Node9&#45;&gt;Node6</title>
<g id="a_edge10_Node000009_Node000006"><a xlink:title=" ">
<path fill="none" stroke="#63b8ff" d="M845.21,-478.92C862.93,-478.92 882.9,-478.92 901.6,-478.92"/>
<polygon fill="#63b8ff" stroke="#63b8ff" points="901.83,-482.42 911.83,-478.92 901.83,-475.42 901.83,-482.42"/>
</a>
</g>
</g>
<!-- Node11 -->
<g id="Node000011" class="node">
<title>Node11</title>
<g id="a_Node000011"><a xlink:href="classnlohmann_1_1json__schema_1_1json__validator.html#ad8f46dfed69afe463732ae335879dabb" target="_top" xlink:title=" ">
<polygon fill="white" stroke="#666666" points="506,-353.42 371,-353.42 371,-312.42 506,-312.42 506,-353.42"/>
<text text-anchor="start" x="379" y="-341.42" font-family="Helvetica,sans-Serif" font-size="10.00">nlohmann::json_schema</text>
<text text-anchor="start" x="379" y="-330.42" font-family="Helvetica,sans-Serif" font-size="10.00">::json_validator::json</text>
<text text-anchor="middle" x="438.5" y="-319.42" font-family="Helvetica,sans-Serif" font-size="10.00">_validator</text>
</a>
</g>
</g>
<!-- Node10&#45;&gt;Node11 -->
<g id="edge13_Node000010_Node000011" class="edge">
<title>Node10&#45;&gt;Node11</title>
<g id="a_edge13_Node000010_Node000011"><a xlink:title=" ">
<path fill="none" stroke="#63b8ff" d="M335.06,-346.43C343.66,-345.29 352.39,-344.14 360.95,-343.01"/>
<polygon fill="#63b8ff" stroke="#63b8ff" points="361.44,-346.48 370.89,-341.7 360.52,-339.54 361.44,-346.48"/>
</a>
</g>
</g>
<!-- Node12 -->
<g id="Node000012" class="node">
<title>Node12</title>
<g id="a_Node000012"><a xlink:href="classnlohmann_1_1json__schema_1_1json__validator.html#aa0aea93f3507f78008cba94fb7e81799" target="_top" xlink:title=" ">
<polygon fill="white" stroke="#666666" points="677,-353.42 542,-353.42 542,-312.42 677,-312.42 677,-353.42"/>
<text text-anchor="start" x="550" y="-341.42" font-family="Helvetica,sans-Serif" font-size="10.00">nlohmann::json_schema</text>
<text text-anchor="start" x="550" y="-330.42" font-family="Helvetica,sans-Serif" font-size="10.00">::json_validator::json</text>
<text text-anchor="middle" x="609.5" y="-319.42" font-family="Helvetica,sans-Serif" font-size="10.00">_validator</text>
</a>
</g>
</g>
<!-- Node11&#45;&gt;Node12 -->
<g id="edge14_Node000011_Node000012" class="edge">
<title>Node11&#45;&gt;Node12</title>
<g id="a_edge14_Node000011_Node000012"><a xlink:title=" ">
<path fill="none" stroke="#63b8ff" d="M506.29,-332.92C514.62,-332.92 523.19,-332.92 531.66,-332.92"/>
<polygon fill="#63b8ff" stroke="#63b8ff" points="531.92,-336.42 541.92,-332.92 531.92,-329.42 531.92,-336.42"/>
</a>
</g>
</g>
<!-- Node14 -->
<g id="Node000014" class="node">
<title>Node14</title>
<g id="a_Node000014"><a xlink:href="classnlohmann_1_1json__schema_1_1json__validator.html#a13e1d3029c8953bb9c7d1879382edb03" target="_top" xlink:title=" ">
<polygon fill="white" stroke="#666666" points="677,-292.42 542,-292.42 542,-251.42 677,-251.42 677,-292.42"/>
<text text-anchor="start" x="550" y="-280.42" font-family="Helvetica,sans-Serif" font-size="10.00">nlohmann::json_schema</text>
<text text-anchor="start" x="550" y="-269.42" font-family="Helvetica,sans-Serif" font-size="10.00">::json_validator::set</text>
<text text-anchor="middle" x="609.5" y="-258.42" font-family="Helvetica,sans-Serif" font-size="10.00">_root_schema</text>
</a>
</g>
</g>
<!-- Node11&#45;&gt;Node14 -->
<g id="edge16_Node000011_Node000014" class="edge">
<title>Node11&#45;&gt;Node14</title>
<g id="a_edge16_Node000011_Node000014"><a xlink:title=" ">
<path fill="none" stroke="#63b8ff" d="M496.72,-312.27C511.25,-307.02 526.99,-301.34 541.94,-295.94"/>
<polygon fill="#63b8ff" stroke="#63b8ff" points="543.41,-299.13 551.63,-292.44 541.04,-292.55 543.41,-299.13"/>
</a>
</g>
</g>
<!-- Node13 -->
<g id="Node000013" class="node">
<title>Node13</title>
<g id="a_Node000013"><a xlink:href="classnlohmann_1_1json__schema_1_1root__schema.html#a704eaa54aca1f78a311687562421829f" target="_top" xlink:title=" ">
<polygon fill="white" stroke="#666666" points="868,-347.92 713,-347.92 713,-317.92 868,-317.92 868,-347.92"/>
<text text-anchor="start" x="721" y="-335.92" font-family="Helvetica,sans-Serif" font-size="10.00">nlohmann::json_schema</text>
<text text-anchor="middle" x="790.5" y="-324.92" font-family="Helvetica,sans-Serif" font-size="10.00">::root_schema::root_schema</text>
</a>
</g>
</g>
<!-- Node12&#45;&gt;Node13 -->
<g id="edge15_Node000012_Node000013" class="edge">
<title>Node12&#45;&gt;Node13</title>
<g id="a_edge15_Node000012_Node000013"><a xlink:title=" ">
<path fill="none" stroke="#63b8ff" d="M677.15,-332.92C685.51,-332.92 694.16,-332.92 702.77,-332.92"/>
<polygon fill="#63b8ff" stroke="#63b8ff" points="702.84,-336.42 712.84,-332.92 702.84,-329.42 702.84,-336.42"/>
</a>
</g>
</g>
<!-- Node15 -->
<g id="Node000015" class="node">
<title>Node15</title>
<g id="a_Node000015"><a xlink:href="classnlohmann_1_1json__schema_1_1root__schema.html#aa92bf9509db49548416a244fb4528e3c" target="_top" xlink:title=" ">
<polygon fill="white" stroke="#666666" points="858,-289.42 723,-289.42 723,-248.42 858,-248.42 858,-289.42"/>
<text text-anchor="start" x="731" y="-277.42" font-family="Helvetica,sans-Serif" font-size="10.00">nlohmann::json_schema</text>
<text text-anchor="start" x="731" y="-266.42" font-family="Helvetica,sans-Serif" font-size="10.00">::root_schema::set_root</text>
<text text-anchor="middle" x="790.5" y="-255.42" font-family="Helvetica,sans-Serif" font-size="10.00">_schema</text>
</a>
</g>
</g>
<!-- Node14&#45;&gt;Node15 -->
<g id="edge17_Node000014_Node000015" class="edge">
<title>Node14&#45;&gt;Node15</title>
<g id="a_edge17_Node000014_Node000015"><a xlink:title=" ">
<path fill="none" stroke="#63b8ff" d="M677.15,-270.8C688.68,-270.61 700.76,-270.4 712.54,-270.21"/>
<polygon fill="#63b8ff" stroke="#63b8ff" points="712.85,-273.7 722.79,-270.04 712.73,-266.7 712.85,-273.7"/>
</a>
</g>
</g>
<!-- Node16 -->
<g id="Node000016" class="node">
<title>Node16</title>
<g id="a_Node000016"><a xlink:href="classanonymous__namespace_02json-validator_8cpp_03_1_1schema.html#aafee860997369c77204d5b1a7d095c3f" target="_top" xlink:title=" ">
<polygon fill="white" stroke="#666666" points="1039,-283.42 904,-283.42 904,-242.42 1039,-242.42 1039,-283.42"/>
<text text-anchor="start" x="912" y="-271.42" font-family="Helvetica,sans-Serif" font-size="10.00">anonymous_namespace</text>
<text text-anchor="start" x="912" y="-260.42" font-family="Helvetica,sans-Serif" font-size="10.00">{json&#45;validator::cpp}</text>
<text text-anchor="middle" x="971.5" y="-249.42" font-family="Helvetica,sans-Serif" font-size="10.00">::schema::make</text>
</a>
</g>
</g>
<!-- Node15&#45;&gt;Node16 -->
<g id="edge18_Node000015_Node000016" class="edge">
<title>Node15&#45;&gt;Node16</title>
<g id="a_edge18_Node000015_Node000016"><a xlink:title=" ">
<path fill="none" stroke="#63b8ff" d="M858.15,-266.68C869.68,-266.3 881.76,-265.89 893.54,-265.5"/>
<polygon fill="#63b8ff" stroke="#63b8ff" points="893.91,-268.99 903.79,-265.15 893.68,-261.99 893.91,-268.99"/>
</a>
</g>
</g>
<!-- Node16&#45;&gt;Node16 -->
<g id="edge43_Node000016_Node000016" class="edge">
<title>Node16&#45;&gt;Node16</title>
<g id="a_edge43_Node000016_Node000016"><a xlink:title=" ">
<path fill="none" stroke="#63b8ff" d="M938.42,-283.51C934.81,-293.07 945.84,-301.42 971.5,-301.42 987.54,-301.42 997.86,-298.16 1002.47,-293.38"/>
<polygon fill="#63b8ff" stroke="#63b8ff" points="1005.91,-294.03 1004.58,-283.51 999.06,-292.56 1005.91,-294.03"/>
</a>
</g>
</g>
<!-- Node17 -->
<g id="Node000017" class="node">
<title>Node17</title>
<g id="a_Node000017"><a xlink:href="classnlohmann_1_1json__uri.html#acef9db8f1ac5317e1f124453d9587938" target="_top" xlink:title=" ">
<polygon fill="white" stroke="#666666" points="1391.5,-398.92 1281.5,-398.92 1281.5,-368.92 1391.5,-368.92 1391.5,-398.92"/>
<text text-anchor="start" x="1289.5" y="-386.92" font-family="Helvetica,sans-Serif" font-size="10.00">nlohmann::json_uri</text>
<text text-anchor="middle" x="1336.5" y="-375.92" font-family="Helvetica,sans-Serif" font-size="10.00">::append</text>
</a>
</g>
</g>
<!-- Node16&#45;&gt;Node17 -->
<g id="edge19_Node000016_Node000017" class="edge">
<title>Node16&#45;&gt;Node17</title>
<g id="a_edge19_Node000016_Node000017"><a xlink:title=" ">
<path fill="none" stroke="#63b8ff" d="M985.08,-283.51C1001.96,-309.02 1034.55,-351.35 1075,-369.92 1137.07,-398.4 1216.39,-398.19 1271.11,-393.2"/>
<polygon fill="#63b8ff" stroke="#63b8ff" points="1271.77,-396.65 1281.37,-392.18 1271.08,-389.69 1271.77,-396.65"/>
</a>
</g>
</g>
<!-- Node18 -->
<g id="Node000018" class="node">
<title>Node18</title>
<g id="a_Node000018"><a xlink:href="classnlohmann_1_1json__uri.html#ab601a9e32d487e9484f12c57ec1befc1" target="_top" xlink:title=" ">
<polygon fill="white" stroke="#666666" points="1209,-446.92 1099,-446.92 1099,-416.92 1209,-416.92 1209,-446.92"/>
<text text-anchor="start" x="1107" y="-434.92" font-family="Helvetica,sans-Serif" font-size="10.00">nlohmann::json_uri</text>
<text text-anchor="middle" x="1154" y="-423.92" font-family="Helvetica,sans-Serif" font-size="10.00">::derive</text>
</a>
</g>
</g>
<!-- Node16&#45;&gt;Node18 -->
<g id="edge20_Node000016_Node000018" class="edge">
<title>Node16&#45;&gt;Node18</title>
<g id="a_edge20_Node000016_Node000018"><a xlink:title=" ">
<path fill="none" stroke="#63b8ff" d="M982.54,-283.46C998.28,-313.66 1031.51,-370.03 1075,-402.92 1079.72,-406.49 1084.94,-409.66 1090.36,-412.47"/>
<polygon fill="#63b8ff" stroke="#63b8ff" points="1089.1,-415.74 1099.63,-416.86 1092.09,-409.42 1089.1,-415.74"/>
</a>
</g>
</g>
<!-- Node20 -->
<g id="Node000020" class="node">
<title>Node20</title>
<g id="a_Node000020"><a xlink:href="classnlohmann_1_1json__schema_1_1root__schema.html#a7e890c03f941280b76fbdb4d5bb73065" target="_top" xlink:title=" ">
<polygon fill="white" stroke="#666666" points="1221.5,-224.42 1086.5,-224.42 1086.5,-183.42 1221.5,-183.42 1221.5,-224.42"/>
<text text-anchor="start" x="1094.5" y="-212.42" font-family="Helvetica,sans-Serif" font-size="10.00">nlohmann::json_schema</text>
<text text-anchor="start" x="1094.5" y="-201.42" font-family="Helvetica,sans-Serif" font-size="10.00">::root_schema::get_or</text>
<text text-anchor="middle" x="1154" y="-190.42" font-family="Helvetica,sans-Serif" font-size="10.00">_create_ref</text>
</a>
</g>
</g>
<!-- Node16&#45;&gt;Node20 -->
<g id="edge22_Node000016_Node000020" class="edge">
<title>Node16&#45;&gt;Node20</title>
<g id="a_edge22_Node000016_Node000020"><a xlink:title=" ">
<path fill="none" stroke="#63b8ff" d="M1017.58,-242.25C1035.44,-235.71 1056.48,-228.58 1076.57,-222.22"/>
<polygon fill="#63b8ff" stroke="#63b8ff" points="1077.85,-225.49 1086.35,-219.16 1075.76,-218.81 1077.85,-225.49"/>
</a>
</g>
</g>
<!-- Node25 -->
<g id="Node000025" class="node">
<title>Node25</title>
<g id="a_Node000025"><a xlink:href="classnlohmann_1_1json__uri.html#a416eb06b53676b215761f43200da309f" target="_top" xlink:title=" ">
<polygon fill="white" stroke="#666666" points="1391.5,-57.92 1281.5,-57.92 1281.5,-27.92 1391.5,-27.92 1391.5,-57.92"/>
<text text-anchor="start" x="1289.5" y="-45.92" font-family="Helvetica,sans-Serif" font-size="10.00">nlohmann::json_uri</text>
<text text-anchor="middle" x="1336.5" y="-34.92" font-family="Helvetica,sans-Serif" font-size="10.00">::to_string</text>
</a>
</g>
</g>
<!-- Node16&#45;&gt;Node25 -->
<g id="edge45_Node000016_Node000025" class="edge">
<title>Node16&#45;&gt;Node25</title>
<g id="a_edge45_Node000016_Node000025"><a xlink:title=" ">
<path fill="none" stroke="#63b8ff" d="M979.32,-242.31C992.11,-207.01 1023.2,-135.28 1075,-98.92 1132.92,-58.26 1214.64,-46.2 1271.03,-43.07"/>
<polygon fill="#63b8ff" stroke="#63b8ff" points="1271.43,-46.56 1281.26,-42.59 1271.1,-39.57 1271.43,-46.56"/>
</a>
</g>
</g>
<!-- Node26 -->
<g id="Node000026" class="node">
<title>Node26</title>
<g id="a_Node000026"><a xlink:href="classnlohmann_1_1json__schema_1_1root__schema.html#a685904131f0693e56f14a9e9db5f044e" target="_top" xlink:title=" ">
<polygon fill="white" stroke="#666666" points="1221.5,-137.92 1086.5,-137.92 1086.5,-107.92 1221.5,-107.92 1221.5,-137.92"/>
<text text-anchor="start" x="1094.5" y="-125.92" font-family="Helvetica,sans-Serif" font-size="10.00">nlohmann::json_schema</text>
<text text-anchor="middle" x="1154" y="-114.92" font-family="Helvetica,sans-Serif" font-size="10.00">::root_schema::insert</text>
</a>
</g>
</g>
<!-- Node16&#45;&gt;Node26 -->
<g id="edge30_Node000016_Node000026" class="edge">
<title>Node16&#45;&gt;Node26</title>
<g id="a_edge30_Node000016_Node000026"><a xlink:title=" ">
<path fill="none" stroke="#63b8ff" d="M995.04,-242.17C1015.38,-223.8 1046.41,-196.6 1075,-174.92 1089.39,-164.01 1105.96,-152.78 1120.12,-143.57"/>
<polygon fill="#63b8ff" stroke="#63b8ff" points="1122.07,-146.47 1128.58,-138.11 1118.28,-140.59 1122.07,-146.47"/>
</a>
</g>
</g>
<!-- Node28 -->
<g id="Node000028" class="node">
<title>Node28</title>
<g id="a_Node000028"><a xlink:href="classnlohmann_1_1json__schema_1_1root__schema.html#a4c543fe7b89e76b3fdd17a6883696238" target="_top" xlink:title=" ">
<polygon fill="white" stroke="#666666" points="1221.5,-283.42 1086.5,-283.42 1086.5,-242.42 1221.5,-242.42 1221.5,-283.42"/>
<text text-anchor="start" x="1094.5" y="-271.42" font-family="Helvetica,sans-Serif" font-size="10.00">nlohmann::json_schema</text>
<text text-anchor="start" x="1094.5" y="-260.42" font-family="Helvetica,sans-Serif" font-size="10.00">::root_schema::insert</text>
<text text-anchor="middle" x="1154" y="-249.42" font-family="Helvetica,sans-Serif" font-size="10.00">_unknown_keyword</text>
</a>
</g>
</g>
<!-- Node16&#45;&gt;Node28 -->
<g id="edge36_Node000016_Node000028" class="edge">
<title>Node16&#45;&gt;Node28</title>
<g id="a_edge36_Node000016_Node000028"><a xlink:title=" ">
<path fill="none" stroke="#63b8ff" d="M1039.2,-256.38C1051.2,-256.16 1063.8,-256.11 1076.07,-256.23"/>
<polygon fill="#63b8ff" stroke="#63b8ff" points="1076.23,-259.74 1086.27,-256.38 1076.32,-252.74 1076.23,-259.74"/>
</a>
</g>
</g>
<!-- Node29 -->
<g id="Node000029" class="node">
<title>Node29</title>
<g id="a_Node000029"><a xlink:href="classanonymous__namespace_02json-validator_8cpp_03_1_1schema.html#a6ba2d224dd0a4372ac03f679de8316bd" target="_top" xlink:title=" ">
<polygon fill="white" stroke="#666666" points="1233,-360.42 1075,-360.42 1075,-319.42 1233,-319.42 1233,-360.42"/>
<text text-anchor="start" x="1083" y="-348.42" font-family="Helvetica,sans-Serif" font-size="10.00">anonymous_namespace</text>
<text text-anchor="start" x="1083" y="-337.42" font-family="Helvetica,sans-Serif" font-size="10.00">{json&#45;validator::cpp}</text>
<text text-anchor="middle" x="1154" y="-326.42" font-family="Helvetica,sans-Serif" font-size="10.00">::schema::make_for_default_</text>
</a>
</g>
</g>
<!-- Node16&#45;&gt;Node29 -->
<g id="edge44_Node000016_Node000029" class="edge">
<title>Node16&#45;&gt;Node29</title>
<g id="a_edge44_Node000016_Node000029"><a xlink:title=" ">
<path fill="none" stroke="#63b8ff" d="M1014.54,-283.55C1032.94,-292.34 1054.88,-302.48 1075,-310.92 1078.82,-312.52 1082.77,-314.13 1086.76,-315.72"/>
<polygon fill="#63b8ff" stroke="#63b8ff" points="1085.54,-319 1096.13,-319.39 1088.09,-312.48 1085.54,-319"/>
</a>
</g>
</g>
<!-- Node19 -->
<g id="Node000019" class="node">
<title>Node19</title>
<g id="a_Node000019"><a xlink:href="classnlohmann_1_1json__uri.html#a6a73807e46532b22e02ae6602cdedcdc" target="_top" xlink:title=" ">
<polygon fill="white" stroke="#666666" points="1391.5,-446.92 1281.5,-446.92 1281.5,-416.92 1391.5,-416.92 1391.5,-446.92"/>
<text text-anchor="start" x="1289.5" y="-434.92" font-family="Helvetica,sans-Serif" font-size="10.00">nlohmann::json_uri</text>
<text text-anchor="middle" x="1336.5" y="-423.92" font-family="Helvetica,sans-Serif" font-size="10.00">::update</text>
</a>
</g>
</g>
<!-- Node18&#45;&gt;Node19 -->
<g id="edge21_Node000018_Node000019" class="edge">
<title>Node18&#45;&gt;Node19</title>
<g id="a_edge21_Node000018_Node000019"><a xlink:title=" ">
<path fill="none" stroke="#63b8ff" d="M1209.16,-431.92C1228.7,-431.92 1250.95,-431.92 1271.27,-431.92"/>
<polygon fill="#63b8ff" stroke="#63b8ff" points="1271.38,-435.42 1281.38,-431.92 1271.38,-428.42 1271.38,-435.42"/>
</a>
</g>
</g>
<!-- Node20&#45;&gt;Node16 -->
<g id="edge26_Node000020_Node000016" class="edge">
<title>Node20&#45;&gt;Node16</title>
<g id="a_edge26_Node000020_Node000016"><a xlink:title=" ">
<path fill="none" stroke="#63b8ff" d="M1108.21,-224.48C1090.32,-231.04 1069.19,-238.2 1049.01,-244.59"/>
<polygon fill="#63b8ff" stroke="#63b8ff" points="1047.7,-241.33 1039.2,-247.66 1049.79,-248.01 1047.7,-241.33"/>
</a>
</g>
</g>
<!-- Node21 -->
<g id="Node000021" class="node">
<title>Node21</title>
<g id="a_Node000021"><a xlink:href="classnlohmann_1_1json__uri.html#a21ba5d6a76804eabd867a2d03370c945" target="_top" xlink:title=" ">
<polygon fill="white" stroke="#666666" points="1391.5,-165.92 1281.5,-165.92 1281.5,-135.92 1391.5,-135.92 1391.5,-165.92"/>
<text text-anchor="start" x="1289.5" y="-153.92" font-family="Helvetica,sans-Serif" font-size="10.00">nlohmann::json_uri</text>
<text text-anchor="middle" x="1336.5" y="-142.92" font-family="Helvetica,sans-Serif" font-size="10.00">::fragment</text>
</a>
</g>
</g>
<!-- Node20&#45;&gt;Node21 -->
<g id="edge23_Node000020_Node000021" class="edge">
<title>Node20&#45;&gt;Node21</title>
<g id="a_edge23_Node000020_Node000021"><a xlink:title=" ">
<path fill="none" stroke="#63b8ff" d="M1221.7,-184.33C1238.99,-179.25 1257.53,-173.81 1274.51,-168.83"/>
<polygon fill="#63b8ff" stroke="#63b8ff" points="1275.7,-172.12 1284.31,-165.95 1273.73,-165.41 1275.7,-172.12"/>
</a>
</g>
</g>
<!-- Node22 -->
<g id="Node000022" class="node">
<title>Node22</title>
<g id="a_Node000022"><a xlink:href="classnlohmann_1_1json__schema_1_1root__schema.html#a4e3471b8e7c245a72c469b7695d2d327" target="_top" xlink:title=" ">
<polygon fill="white" stroke="#666666" points="1404,-225.42 1269,-225.42 1269,-184.42 1404,-184.42 1404,-225.42"/>
<text text-anchor="start" x="1277" y="-213.42" font-family="Helvetica,sans-Serif" font-size="10.00">nlohmann::json_schema</text>
<text text-anchor="start" x="1277" y="-202.42" font-family="Helvetica,sans-Serif" font-size="10.00">::root_schema::get_or</text>
<text text-anchor="middle" x="1336.5" y="-191.42" font-family="Helvetica,sans-Serif" font-size="10.00">_create_file</text>
</a>
</g>
</g>
<!-- Node20&#45;&gt;Node22 -->
<g id="edge24_Node000020_Node000022" class="edge">
<title>Node20&#45;&gt;Node22</title>
<g id="a_edge24_Node000020_Node000022"><a xlink:title=" ">
<path fill="none" stroke="#63b8ff" d="M1221.7,-204.29C1233.7,-204.35 1246.3,-204.42 1258.57,-204.49"/>
<polygon fill="#63b8ff" stroke="#63b8ff" points="1258.75,-207.99 1268.77,-204.55 1258.79,-200.99 1258.75,-207.99"/>
</a>
</g>
</g>
<!-- Node23 -->
<g id="Node000023" class="node">
<title>Node23</title>
<g id="a_Node000023"><a xlink:href="classnlohmann_1_1json__uri.html#a63674f908919cb2496e772e864be35de" target="_top" xlink:title=" ">
<polygon fill="white" stroke="#666666" points="1550,-162.92 1440,-162.92 1440,-132.92 1550,-132.92 1550,-162.92"/>
<text text-anchor="start" x="1448" y="-150.92" font-family="Helvetica,sans-Serif" font-size="10.00">nlohmann::json_uri</text>
<text text-anchor="middle" x="1495" y="-139.92" font-family="Helvetica,sans-Serif" font-size="10.00">::location</text>
</a>
</g>
</g>
<!-- Node20&#45;&gt;Node23 -->
<g id="edge25_Node000020_Node000023" class="edge">
<title>Node20&#45;&gt;Node23</title>
<g id="a_edge25_Node000020_Node000023"><a xlink:title=" ">
<path fill="none" stroke="#63b8ff" d="M1206.04,-224.58C1257.76,-242.29 1339.18,-261.13 1404,-234.92 1435.52,-222.17 1462.13,-192.51 1478.05,-171.37"/>
<polygon fill="#63b8ff" stroke="#63b8ff" points="1480.96,-173.33 1484.01,-163.19 1475.3,-169.21 1480.96,-173.33"/>
</a>
</g>
</g>
<!-- Node24 -->
<g id="Node000024" class="node">
<title>Node24</title>
<g id="a_Node000024"><a xlink:href="classnlohmann_1_1json__uri.html#ab01bdcb8bf65ee07703d1ccb69c9f3ee" target="_top" xlink:title=" ">
<polygon fill="white" stroke="#666666" points="1391.5,-311.92 1281.5,-311.92 1281.5,-281.92 1391.5,-281.92 1391.5,-311.92"/>
<text text-anchor="start" x="1289.5" y="-299.92" font-family="Helvetica,sans-Serif" font-size="10.00">nlohmann::json_uri</text>
<text text-anchor="middle" x="1336.5" y="-288.92" font-family="Helvetica,sans-Serif" font-size="10.00">::pointer</text>
</a>
</g>
</g>
<!-- Node20&#45;&gt;Node24 -->
<g id="edge27_Node000020_Node000024" class="edge">
<title>Node20&#45;&gt;Node24</title>
<g id="a_edge27_Node000020_Node000024"><a xlink:title=" ">
<path fill="none" stroke="#63b8ff" d="M1215.77,-224.56C1221.75,-227.4 1227.6,-230.52 1233,-233.92 1251.62,-245.64 1250.64,-255.78 1269,-267.92 1274.24,-271.38 1279.96,-274.6 1285.78,-277.53"/>
<polygon fill="#63b8ff" stroke="#63b8ff" points="1284.41,-280.75 1294.95,-281.9 1287.43,-274.43 1284.41,-280.75"/>
</a>
</g>
</g>
<!-- Node20&#45;&gt;Node25 -->
<g id="edge28_Node000020_Node000025" class="edge">
<title>Node20&#45;&gt;Node25</title>
<g id="a_edge28_Node000020_Node000025"><a xlink:title=" ">
<path fill="none" stroke="#63b8ff" d="M1191.23,-183.16C1205.64,-173.56 1221.49,-161.12 1233,-146.92 1257.56,-116.63 1240.4,-93.41 1269,-66.92 1270.27,-65.74 1271.6,-64.62 1272.98,-63.56"/>
<polygon fill="#63b8ff" stroke="#63b8ff" points="1274.95,-66.45 1281.38,-58.03 1271.1,-60.6 1274.95,-66.45"/>
</a>
</g>
</g>
<!-- Node25&#45;&gt;Node23 -->
<g id="edge29_Node000025_Node000023" class="edge">
<title>Node25&#45;&gt;Node23</title>
<g id="a_edge29_Node000025_Node000023"><a xlink:title=" ">
<path fill="none" stroke="#63b8ff" d="M1386.1,-57.95C1392.3,-60.59 1398.42,-63.57 1404,-66.92 1430.59,-82.84 1456.4,-107.28 1473.51,-125.16"/>
<polygon fill="#63b8ff" stroke="#63b8ff" points="1471.34,-127.96 1480.73,-132.85 1476.44,-123.16 1471.34,-127.96"/>
</a>
</g>
</g>
<!-- Node26&#45;&gt;Node21 -->
<g id="edge31_Node000026_Node000021" class="edge">
<title>Node26&#45;&gt;Node21</title>
<g id="a_edge31_Node000026_Node000021"><a xlink:title=" ">
<path fill="none" stroke="#63b8ff" d="M1221.7,-133.26C1238,-135.79 1255.4,-138.49 1271.57,-141"/>
<polygon fill="#63b8ff" stroke="#63b8ff" points="1271.04,-144.46 1281.45,-142.53 1272.11,-137.54 1271.04,-144.46"/>
</a>
</g>
</g>
<!-- Node26&#45;&gt;Node22 -->
<g id="edge32_Node000026_Node000022" class="edge">
<title>Node26&#45;&gt;Node22</title>
<g id="a_edge32_Node000026_Node000022"><a xlink:title=" ">
<path fill="none" stroke="#63b8ff" d="M1187.91,-137.97C1210.67,-148.37 1241.66,-162.52 1269,-174.92 1272.76,-176.62 1276.65,-178.38 1280.56,-180.15"/>
<polygon fill="#63b8ff" stroke="#63b8ff" points="1279.15,-183.36 1289.7,-184.29 1282.03,-176.98 1279.15,-183.36"/>
</a>
</g>
</g>
<!-- Node26&#45;&gt;Node23 -->
<g id="edge33_Node000026_Node000023" class="edge">
<title>Node26&#45;&gt;Node23</title>
<g id="a_edge33_Node000026_Node000023"><a xlink:title=" ">
<path fill="none" stroke="#63b8ff" d="M1165.49,-107.88C1183.41,-83.67 1222.54,-36.93 1269,-18.92 1324.94,2.77 1350.8,8.83 1404,-18.92 1445.98,-40.82 1472.38,-92.23 1485.05,-123.13"/>
<polygon fill="#63b8ff" stroke="#63b8ff" points="1481.91,-124.72 1488.82,-132.75 1488.43,-122.17 1481.91,-124.72"/>
</a>
</g>
</g>
<!-- Node26&#45;&gt;Node25 -->
<g id="edge35_Node000026_Node000025" class="edge">
<title>Node26&#45;&gt;Node25</title>
<g id="a_edge35_Node000026_Node000025"><a xlink:title=" ">
<path fill="none" stroke="#63b8ff" d="M1192.39,-107.86C1205.42,-102.28 1220.03,-95.67 1233,-88.92 1249.63,-80.26 1252.09,-75.03 1269,-66.92 1272.73,-65.12 1276.64,-63.39 1280.61,-61.72"/>
<polygon fill="#63b8ff" stroke="#63b8ff" points="1281.95,-64.96 1289.92,-57.98 1279.34,-58.46 1281.95,-64.96"/>
</a>
</g>
</g>
<!-- Node27 -->
<g id="Node000027" class="node">
<title>Node27</title>
<g id="a_Node000027"><a xlink:href="classanonymous__namespace_02json-validator_8cpp_03_1_1schema__ref.html#ae191a0c47357ebad5942fbab77135375" target="_top" xlink:title=" ">
<polygon fill="white" stroke="#666666" points="1404,-117.42 1269,-117.42 1269,-76.42 1404,-76.42 1404,-117.42"/>
<text text-anchor="start" x="1277" y="-105.42" font-family="Helvetica,sans-Serif" font-size="10.00">anonymous_namespace</text>
<text text-anchor="start" x="1277" y="-94.42" font-family="Helvetica,sans-Serif" font-size="10.00">{json&#45;validator::cpp}</text>
<text text-anchor="middle" x="1336.5" y="-83.42" font-family="Helvetica,sans-Serif" font-size="10.00">::schema_ref::set_target</text>
</a>
</g>
</g>
<!-- Node26&#45;&gt;Node27 -->
<g id="edge34_Node000026_Node000027" class="edge">
<title>Node26&#45;&gt;Node27</title>
<g id="a_edge34_Node000026_Node000027"><a xlink:title=" ">
<path fill="none" stroke="#63b8ff" d="M1221.7,-113.31C1233.7,-111.58 1246.3,-109.77 1258.57,-108"/>
<polygon fill="#63b8ff" stroke="#63b8ff" points="1259.38,-111.42 1268.77,-106.53 1258.38,-104.49 1259.38,-111.42"/>
</a>
</g>
</g>
<!-- Node28&#45;&gt;Node16 -->
<g id="edge41_Node000028_Node000016" class="edge">
<title>Node28&#45;&gt;Node16</title>
<g id="a_edge41_Node000028_Node000016"><a xlink:title=" ">
<path fill="none" stroke="#63b8ff" d="M1086.27,-269.46C1074.27,-269.68 1061.67,-269.72 1049.4,-269.6"/>
<polygon fill="#63b8ff" stroke="#63b8ff" points="1049.25,-266.1 1039.2,-269.46 1049.15,-273.1 1049.25,-266.1"/>
</a>
</g>
</g>
<!-- Node28&#45;&gt;Node17 -->
<g id="edge37_Node000028_Node000017" class="edge">
<title>Node28&#45;&gt;Node17</title>
<g id="a_edge37_Node000028_Node000017"><a xlink:title=" ">
<path fill="none" stroke="#63b8ff" d="M1193.99,-283.56C1207.02,-291.31 1221.21,-300.73 1233,-310.92 1251.86,-327.22 1249.14,-338.86 1269,-353.92 1274.03,-357.73 1279.63,-361.2 1285.38,-364.31"/>
<polygon fill="#63b8ff" stroke="#63b8ff" points="1283.97,-367.52 1294.48,-368.91 1287.13,-361.28 1283.97,-367.52"/>
</a>
</g>
</g>
<!-- Node28&#45;&gt;Node22 -->
<g id="edge38_Node000028_Node000022" class="edge">
<title>Node28&#45;&gt;Node22</title>
<g id="a_edge38_Node000028_Node000022"><a xlink:title=" ">
<path fill="none" stroke="#63b8ff" d="M1218.89,-242.39C1232.82,-237.91 1247.66,-233.14 1261.93,-228.56"/>
<polygon fill="#63b8ff" stroke="#63b8ff" points="1263.24,-231.81 1271.69,-225.42 1261.1,-225.15 1263.24,-231.81"/>
</a>
</g>
</g>
<!-- Node28&#45;&gt;Node23 -->
<g id="edge40_Node000028_Node000023" class="edge">
<title>Node28&#45;&gt;Node23</title>
<g id="a_edge40_Node000028_Node000023"><a xlink:title=" ">
<path fill="none" stroke="#63b8ff" d="M1185.64,-283.66C1235.03,-314.26 1333.8,-363.53 1404,-320.92 1457.55,-288.41 1480.71,-212.52 1489.43,-172.93"/>
<polygon fill="#63b8ff" stroke="#63b8ff" points="1492.88,-173.53 1491.48,-163.03 1486.03,-172.11 1492.88,-173.53"/>
</a>
</g>
</g>
<!-- Node28&#45;&gt;Node24 -->
<g id="edge42_Node000028_Node000024" class="edge">
<title>Node28&#45;&gt;Node24</title>
<g id="a_edge42_Node000028_Node000024"><a xlink:title=" ">
<path fill="none" stroke="#63b8ff" d="M1221.7,-275.48C1238,-278.55 1255.4,-281.83 1271.57,-284.87"/>
<polygon fill="#63b8ff" stroke="#63b8ff" points="1270.98,-288.33 1281.45,-286.74 1272.28,-281.45 1270.98,-288.33"/>
</a>
</g>
</g>
<!-- Node28&#45;&gt;Node28 -->
<g id="edge39_Node000028_Node000028" class="edge">
<title>Node28&#45;&gt;Node28</title>
<g id="a_edge39_Node000028_Node000028"><a xlink:title=" ">
<path fill="none" stroke="#63b8ff" d="M1120.55,-283.51C1116.9,-293.07 1128.05,-301.42 1154,-301.42 1170.22,-301.42 1180.66,-298.16 1185.31,-293.38"/>
<polygon fill="#63b8ff" stroke="#63b8ff" points="1188.75,-294.03 1187.45,-283.51 1181.91,-292.55 1188.75,-294.03"/>
</a>
</g>
</g>
</g>
</svg>
