<?xml version="1.0" encoding="UTF-8" standalone="no"?>
<!DOCTYPE svg PUBLIC "-//W3C//DTD SVG 1.1//EN"
 "http://www.w3.org/Graphics/SVG/1.1/DTD/svg11.dtd">
<!-- Generated by graphviz version 14.1.2 (0)
 -->
<!-- Title: mqtt::bridge::lib::Bridge::addMqtt Pages: 1 -->
<svg width="894pt" height="184pt"
 viewBox="0.00 0.00 894.00 184.00" xmlns="http://www.w3.org/2000/svg" xmlns:xlink="http://www.w3.org/1999/xlink">
<g id="graph0" class="graph" transform="scale(1 1) rotate(0) translate(4 179.88)">
<title>mqtt::bridge::lib::Bridge::addMqtt</title>
<!-- Node1 -->
<g id="Node000001" class="node">
<title>Node1</title>
<g id="a_Node000001"><a xlink:title=" ">
<polygon fill="#999999" stroke="#666666" points="100,-85.5 0,-85.5 0,-52 100,-52 100,-85.5"/>
<text xml:space="preserve" text-anchor="start" x="8" y="-72" font-family="Helvetica,sans-Serif" font-size="10.00">mqtt::bridge::lib::</text>
<text xml:space="preserve" text-anchor="middle" x="50" y="-59.25" font-family="Helvetica,sans-Serif" font-size="10.00">Bridge::addMqtt</text>
</a>
</g>
</g>
<!-- Node2 -->
<g id="Node000002" class="node">
<title>Node2</title>
<g id="a_Node000002"><a xlink:href="classmqtt_1_1bridge_1_1lib_1_1SSEDistributor.html#ab3ae5e9780ecb99eb541615b86c28bce" target="_top" xlink:title=" ">
<polygon fill="white" stroke="#666666" points="302,-85.5 144.25,-85.5 144.25,-52 302,-52 302,-85.5"/>
<text xml:space="preserve" text-anchor="start" x="152.25" y="-72" font-family="Helvetica,sans-Serif" font-size="10.00">mqtt::bridge::lib::</text>
<text xml:space="preserve" text-anchor="middle" x="223.12" y="-59.25" font-family="Helvetica,sans-Serif" font-size="10.00">SSEDistributor::bridgeStarted</text>
</a>
</g>
</g>
<!-- Node1&#45;&gt;Node2 -->
<g id="edge1_Node000001_Node000002" class="edge">
<title>Node1&#45;&gt;Node2</title>
<g id="a_edge1_Node000001_Node000002"><a xlink:title=" ">
<path fill="none" stroke="#63b8ff" d="M100.5,-68.75C110.61,-68.75 121.54,-68.75 132.56,-68.75"/>
<polygon fill="#63b8ff" stroke="#63b8ff" points="132.53,-72.25 142.53,-68.75 132.53,-65.25 132.53,-72.25"/>
</a>
</g>
</g>
<!-- Node8 -->
<g id="Node000008" class="node">
<title>Node8</title>
<g id="a_Node000008"><a xlink:href="classmqtt_1_1bridge_1_1lib_1_1SSEDistributor.html#a65e615fcf8a78daab16cd91f5c219374" target="_top" xlink:title=" ">
<polygon fill="white" stroke="#666666" points="310.25,-137.5 136,-137.5 136,-104 310.25,-104 310.25,-137.5"/>
<text xml:space="preserve" text-anchor="start" x="144" y="-124" font-family="Helvetica,sans-Serif" font-size="10.00">mqtt::bridge::lib::</text>
<text xml:space="preserve" text-anchor="middle" x="223.12" y="-111.25" font-family="Helvetica,sans-Serif" font-size="10.00">SSEDistributor::brokerConnected</text>
</a>
</g>
</g>
<!-- Node1&#45;&gt;Node8 -->
<g id="edge7_Node000001_Node000008" class="edge">
<title>Node1&#45;&gt;Node8</title>
<g id="a_edge7_Node000001_Node000008"><a xlink:title=" ">
<path fill="none" stroke="#63b8ff" d="M100.43,-83.9C112.09,-87.47 124.48,-91.25 136,-94.75 141.88,-96.54 148,-98.39 154.13,-100.25"/>
<polygon fill="#63b8ff" stroke="#63b8ff" points="153.1,-103.59 163.69,-103.14 155.13,-96.89 153.1,-103.59"/>
</a>
</g>
</g>
<!-- Node9 -->
<g id="Node000009" class="node">
<title>Node9</title>
<g id="a_Node000009"><a xlink:href="classmqtt_1_1bridge_1_1lib_1_1SSEDistributor.html#ab6cc33c1c26ccfbd738a5ec2700f0896" target="_top" xlink:title=" ">
<polygon fill="white" stroke="#666666" points="289.62,-33.5 156.62,-33.5 156.62,0 289.62,0 289.62,-33.5"/>
<text xml:space="preserve" text-anchor="start" x="164.62" y="-20" font-family="Helvetica,sans-Serif" font-size="10.00">mqtt::bridge::lib::</text>
<text xml:space="preserve" text-anchor="middle" x="223.12" y="-7.25" font-family="Helvetica,sans-Serif" font-size="10.00">SSEDistributor::instance</text>
</a>
</g>
</g>
<!-- Node1&#45;&gt;Node9 -->
<g id="edge10_Node000001_Node000009" class="edge">
<title>Node1&#45;&gt;Node9</title>
<g id="a_edge10_Node000001_Node000009"><a xlink:title=" ">
<path fill="none" stroke="#63b8ff" d="M100.43,-53.6C112.09,-50.03 124.48,-46.25 136,-42.75 141.88,-40.96 148,-39.11 154.13,-37.25"/>
<polygon fill="#63b8ff" stroke="#63b8ff" points="155.13,-40.61 163.69,-34.36 153.1,-33.91 155.13,-40.61"/>
</a>
</g>
</g>
<!-- Node3 -->
<g id="Node000003" class="node">
<title>Node3</title>
<g id="a_Node000003"><a xlink:href="classmqtt_1_1bridge_1_1lib_1_1SSEDistributor.html#ae352efe457441f0669d10132f46b514e" target="_top" xlink:title=" ">
<polygon fill="white" stroke="#666666" points="509.25,-140.5 346.25,-140.5 346.25,-107 509.25,-107 509.25,-140.5"/>
<text xml:space="preserve" text-anchor="start" x="354.25" y="-127" font-family="Helvetica,sans-Serif" font-size="10.00">mqtt::bridge::lib::</text>
<text xml:space="preserve" text-anchor="middle" x="427.75" y="-114.25" font-family="Helvetica,sans-Serif" font-size="10.00">SSEDistributor::sendJsonEvent</text>
</a>
</g>
</g>
<!-- Node2&#45;&gt;Node3 -->
<g id="edge2_Node000002_Node000003" class="edge">
<title>Node2&#45;&gt;Node3</title>
<g id="a_edge2_Node000002_Node000003"><a xlink:title=" ">
<path fill="none" stroke="#63b8ff" d="M287.4,-85.93C307.97,-91.51 330.98,-97.76 352.29,-103.54"/>
<polygon fill="#63b8ff" stroke="#63b8ff" points="351.23,-106.88 361.79,-106.12 353.06,-100.12 351.23,-106.88"/>
</a>
</g>
</g>
<!-- Node7 -->
<g id="Node000007" class="node">
<title>Node7</title>
<g id="a_Node000007"><a xlink:href="classmqtt_1_1bridge_1_1lib_1_1SSEDistributor.html#ae175f78eb030a996687f4606171418f6" target="_top" xlink:title=" ">
<polygon fill="white" stroke="#666666" points="502.5,-88.88 353,-88.88 353,-42.62 502.5,-42.62 502.5,-88.88"/>
<text xml:space="preserve" text-anchor="start" x="361" y="-75.38" font-family="Helvetica,sans-Serif" font-size="10.00">mqtt::bridge::lib::</text>
<text xml:space="preserve" text-anchor="start" x="361" y="-62.62" font-family="Helvetica,sans-Serif" font-size="10.00">SSEDistributor::timePointTo</text>
<text xml:space="preserve" text-anchor="middle" x="427.75" y="-49.88" font-family="Helvetica,sans-Serif" font-size="10.00">String</text>
</a>
</g>
</g>
<!-- Node2&#45;&gt;Node7 -->
<g id="edge6_Node000002_Node000007" class="edge">
<title>Node2&#45;&gt;Node7</title>
<g id="a_edge6_Node000002_Node000007"><a xlink:title=" ">
<path fill="none" stroke="#63b8ff" d="M302.47,-67.59C315.21,-67.4 328.47,-67.21 341.38,-67.01"/>
<polygon fill="#63b8ff" stroke="#63b8ff" points="341.15,-70.52 351.09,-66.87 341.04,-63.52 341.15,-70.52"/>
</a>
</g>
</g>
<!-- Node4 -->
<g id="Node000004" class="node">
<title>Node4</title>
<g id="a_Node000004"><a xlink:href="classmqtt_1_1bridge_1_1lib_1_1SSEDistributor.html#a33c28a238f0853d09effb76ed6c49d45" target="_top" xlink:title=" ">
<polygon fill="white" stroke="#666666" points="688,-140.5 545.25,-140.5 545.25,-107 688,-107 688,-140.5"/>
<text xml:space="preserve" text-anchor="start" x="553.25" y="-127" font-family="Helvetica,sans-Serif" font-size="10.00">mqtt::bridge::lib::</text>
<text xml:space="preserve" text-anchor="middle" x="616.62" y="-114.25" font-family="Helvetica,sans-Serif" font-size="10.00">SSEDistributor::sendEvent</text>
</a>
</g>
</g>
<!-- Node3&#45;&gt;Node4 -->
<g id="edge3_Node000003_Node000004" class="edge">
<title>Node3&#45;&gt;Node4</title>
<g id="a_edge3_Node000003_Node000004"><a xlink:title=" ">
<path fill="none" stroke="#63b8ff" d="M509.63,-123.75C517.52,-123.75 525.52,-123.75 533.42,-123.75"/>
<polygon fill="#63b8ff" stroke="#63b8ff" points="533.38,-127.25 543.38,-123.75 533.38,-120.25 533.38,-127.25"/>
</a>
</g>
</g>
<!-- Node5 -->
<g id="Node000005" class="node">
<title>Node5</title>
<g id="a_Node000005"><a xlink:href="classmqtt_1_1bridge_1_1lib_1_1SSEDistributor_1_1EventReceiver.html#ab7cf8f80c46f3ef696bf07dcb779255c" target="_top" xlink:title=" ">
<polygon fill="white" stroke="#666666" points="886.25,-175.88 724,-175.88 724,-129.62 886.25,-129.62 886.25,-175.88"/>
<text xml:space="preserve" text-anchor="start" x="732" y="-162.38" font-family="Helvetica,sans-Serif" font-size="10.00">mqtt::bridge::lib::</text>
<text xml:space="preserve" text-anchor="start" x="732" y="-149.62" font-family="Helvetica,sans-Serif" font-size="10.00">SSEDistributor::EventReceiver</text>
<text xml:space="preserve" text-anchor="middle" x="805.12" y="-136.88" font-family="Helvetica,sans-Serif" font-size="10.00">::getResponse</text>
</a>
</g>
</g>
<!-- Node4&#45;&gt;Node5 -->
<g id="edge4_Node000004_Node000005" class="edge">
<title>Node4&#45;&gt;Node5</title>
<g id="a_edge4_Node000004_Node000005"><a xlink:title=" ">
<path fill="none" stroke="#63b8ff" d="M688.4,-134.76C696.24,-135.97 704.31,-137.23 712.37,-138.48"/>
<polygon fill="#63b8ff" stroke="#63b8ff" points="711.81,-141.94 722.23,-140.01 712.88,-135.02 711.81,-141.94"/>
</a>
</g>
</g>
<!-- Node6 -->
<g id="Node000006" class="node">
<title>Node6</title>
<g id="a_Node000006"><a xlink:href="classmqtt_1_1bridge_1_1lib_1_1SSEDistributor.html#a9f5043f5f0189719413e23c74b3a55c2" target="_top" xlink:title=" ">
<polygon fill="white" stroke="#666666" points="876.5,-111.5 733.75,-111.5 733.75,-78 876.5,-78 876.5,-111.5"/>
<text xml:space="preserve" text-anchor="start" x="741.75" y="-98" font-family="Helvetica,sans-Serif" font-size="10.00">mqtt::bridge::lib::</text>
<text xml:space="preserve" text-anchor="middle" x="805.12" y="-85.25" font-family="Helvetica,sans-Serif" font-size="10.00">SSEDistributor::sendEvent</text>
</a>
</g>
</g>
<!-- Node4&#45;&gt;Node6 -->
<g id="edge5_Node000004_Node000006" class="edge">
<title>Node4&#45;&gt;Node6</title>
<g id="a_edge5_Node000004_Node000006"><a xlink:title=" ">
<path fill="none" stroke="#63b8ff" d="M688.4,-112.74C699.45,-111.03 710.95,-109.24 722.22,-107.49"/>
<polygon fill="#63b8ff" stroke="#63b8ff" points="722.56,-110.98 731.9,-105.98 721.49,-104.06 722.56,-110.98"/>
</a>
</g>
</g>
<!-- Node8&#45;&gt;Node3 -->
<g id="edge8_Node000008_Node000003" class="edge">
<title>Node8&#45;&gt;Node3</title>
<g id="a_edge8_Node000008_Node000003"><a xlink:title=" ">
<path fill="none" stroke="#63b8ff" d="M310.64,-122.03C318.61,-122.15 326.71,-122.27 334.72,-122.39"/>
<polygon fill="#63b8ff" stroke="#63b8ff" points="334.42,-125.88 344.47,-122.53 334.52,-118.88 334.42,-125.88"/>
</a>
</g>
</g>
<!-- Node8&#45;&gt;Node7 -->
<g id="edge9_Node000008_Node000007" class="edge">
<title>Node8&#45;&gt;Node7</title>
<g id="a_edge9_Node000008_Node000007"><a xlink:title=" ">
<path fill="none" stroke="#63b8ff" d="M287.4,-103.57C304.6,-98.91 323.51,-93.77 341.7,-88.84"/>
<polygon fill="#63b8ff" stroke="#63b8ff" points="342.41,-92.27 351.15,-86.27 340.58,-85.51 342.41,-92.27"/>
</a>
</g>
</g>
</g>
</svg>
