<?xml version="1.0" encoding="UTF-8" standalone="no"?>
<!DOCTYPE svg PUBLIC "-//W3C//DTD SVG 1.1//EN"
 "http://www.w3.org/Graphics/SVG/1.1/DTD/svg11.dtd">
<!-- Generated by graphviz version 2.42.4 (0)
 -->
<!-- Title: mqtt::lib::MqttMapper::publishMapping Pages: 1 -->
<!--zoomable 134 -->

<svg id="main" version="1.1" xmlns="http://www.w3.org/2000/svg" xmlns:xlink="http://www.w3.org/1999/xlink" xml:space="preserve" onload="init(evt)">
<style type="text/css"><![CDATA[
.node, .edge {opacity: 0.7;}
.node.selected, .edge.selected {opacity: 1;}
.edge:hover path { stroke: red; }
.edge:hover polygon { stroke: red; fill: red; }
]]></style>

<defs>
  <circle id="rim" cx="0" cy="0" r="7"/>
  <circle id="rim2" cx="0" cy="0" r="3.5"/>
  <g id="zoomPlus">
    <use xlink:href="#rim" fill="#404040"><set attributeName="fill" to="#808080" begin="zoomplus.mouseover" end="zoomplus.mouseout"/></use>
    <path d="M-4,0h8M0,-4v8" fill="none" stroke="white" stroke-width="1.5" pointer-events="none"/>
  </g>
  <g id="zoomMin">
    <use xlink:href="#rim" fill="#404040"><set attributeName="fill" to="#808080" begin="zoomminus.mouseover" end="zoomminus.mouseout"/></use>
    <path d="M-4,0h8" fill="none" stroke="white" stroke-width="1.5" pointer-events="none"/>
  </g>
  <g id="arrowUp" transform="translate(30 24)">
    <use xlink:href="#rim"/>
    <path pointer-events="none" fill="none" stroke="white" stroke-width="1.5" d="M0,-3.0v7 M-2.5,-0.5L0,-3.0L2.5,-0.5"/>
  </g>
  <g id="arrowRight" transform="rotate(90) translate(36 -43)">
    <use xlink:href="#rim"/>
    <path pointer-events="none" fill="none" stroke="white" stroke-width="1.5" d="M0,-3.0v7 M-2.5,-0.5L0,-3.0L2.5,-0.5"/>
  </g>
  <g id="arrowDown" transform="rotate(180) translate(-30 -48)">
    <use xlink:href="#rim"/>
    <path pointer-events="none" fill="none" stroke="white" stroke-width="1.5" d="M0,-3.0v7 M-2.5,-0.5L0,-3.0L2.5,-0.5"/>
  </g>
  <g id="arrowLeft" transform="rotate(270) translate(-36 17)">
    <use xlink:href="#rim"/>
    <path pointer-events="none" fill="none" stroke="white" stroke-width="1.5" d="M0,-3.0v7 M-2.5,-0.5L0,-3.0L2.5,-0.5"/>
  </g>
  <g id="resetDef">
    <use xlink:href="#rim2" fill="#404040"><set attributeName="fill" to="#808080" begin="reset.mouseover" end="reset.mouseout"/></use>
  </g>
</defs>
<script type="application/ecmascript">
var viewWidth = 991;
var viewHeight = 134;
var sectionId = 'dynsection-21';
</script>
<script type="application/ecmascript" xlink:href="svg.min.js"/>
<svg id="graph" class="graph">
<g id="viewport">
<title>mqtt::lib::MqttMapper::publishMapping</title>
<!-- Node1 -->
<g id="Node000001" class="node">
<title>Node1</title>
<g id="a_Node000001"><a xlink:title=" ">
<polygon fill="#999999" stroke="#666666" points="983,-78 860,-78 860,-48 983,-48 983,-78"/>
<text text-anchor="start" x="868" y="-66" font-family="Helvetica,sans-Serif" font-size="10.00">mqtt::lib::MqttMapper</text>
<text text-anchor="middle" x="921.5" y="-55" font-family="Helvetica,sans-Serif" font-size="10.00">::publishMapping</text>
</a>
</g>
</g>
<!-- Node2 -->
<g id="Node000002" class="node">
<title>Node2</title>
<g id="a_Node000002"><a xlink:href="classmqtt_1_1lib_1_1MqttMapper.html#a510c9f6435a9a660cdaa24dc1157ccd1" target="_top" xlink:title=" ">
<polygon fill="white" stroke="#666666" points="823,-102 683,-102 683,-72 823,-72 823,-102"/>
<text text-anchor="start" x="691" y="-90" font-family="Helvetica,sans-Serif" font-size="10.00">mqtt::lib::MqttMapper</text>
<text text-anchor="middle" x="753" y="-79" font-family="Helvetica,sans-Serif" font-size="10.00">::publishMappedMessage</text>
</a>
</g>
</g>
<!-- Node1&#45;&gt;Node2 -->
<g id="edge1_Node000001_Node000002" class="edge">
<title>Node1&#45;&gt;Node2</title>
<g id="a_edge1_Node000001_Node000002"><a xlink:title=" ">
<path fill="none" stroke="#63b8ff" d="M849.74,-73.2C840.98,-74.46 832.03,-75.75 823.28,-77.01"/>
<polygon fill="#63b8ff" stroke="#63b8ff" points="850.52,-76.62 859.92,-71.73 849.52,-69.7 850.52,-76.62"/>
</a>
</g>
</g>
<!-- Node9 -->
<g id="Node000009" class="node">
<title>Node9</title>
<g id="a_Node000009"><a xlink:href="classmqtt_1_1lib_1_1MqttMapper.html#a04261a968a945934ebf3518733c62b7d" target="_top" xlink:title=" ">
<polygon fill="white" stroke="#666666" points="824,-54 682,-54 682,-24 824,-24 824,-54"/>
<text text-anchor="start" x="690" y="-42" font-family="Helvetica,sans-Serif" font-size="10.00">mqtt::lib::MqttMapper</text>
<text text-anchor="middle" x="753" y="-31" font-family="Helvetica,sans-Serif" font-size="10.00">::publishMappedTemplate</text>
</a>
</g>
</g>
<!-- Node1&#45;&gt;Node9 -->
<g id="edge8_Node000001_Node000009" class="edge">
<title>Node1&#45;&gt;Node9</title>
<g id="a_edge8_Node000001_Node000009"><a xlink:title=" ">
<path fill="none" stroke="#63b8ff" d="M849.98,-52.84C841.43,-51.6 832.69,-50.34 824.14,-49.11"/>
<polygon fill="#63b8ff" stroke="#63b8ff" points="849.52,-56.3 859.92,-54.27 850.52,-49.38 849.52,-56.3"/>
</a>
</g>
</g>
<!-- Node3 -->
<g id="Node000003" class="node">
<title>Node3</title>
<g id="a_Node000003"><a xlink:href="classmqtt_1_1lib_1_1MqttMapper.html#a1f9a18345aa7b2b8fc5745ce4aea9e7a" target="_top" xlink:title=" ">
<polygon fill="white" stroke="#666666" points="646,-102 506,-102 506,-72 646,-72 646,-102"/>
<text text-anchor="start" x="514" y="-90" font-family="Helvetica,sans-Serif" font-size="10.00">mqtt::lib::MqttMapper</text>
<text text-anchor="middle" x="576" y="-79" font-family="Helvetica,sans-Serif" font-size="10.00">::publishMappedMessage</text>
</a>
</g>
</g>
<!-- Node2&#45;&gt;Node3 -->
<g id="edge2_Node000002_Node000003" class="edge">
<title>Node2&#45;&gt;Node3</title>
<g id="a_edge2_Node000002_Node000003"><a xlink:title=" ">
<path fill="none" stroke="#63b8ff" d="M672.58,-87C663.79,-87 654.89,-87 646.24,-87"/>
<polygon fill="#63b8ff" stroke="#63b8ff" points="672.84,-90.5 682.84,-87 672.84,-83.5 672.84,-90.5"/>
</a>
</g>
</g>
<!-- Node4 -->
<g id="Node000004" class="node">
<title>Node4</title>
<g id="a_Node000004"><a xlink:href="classmqtt_1_1lib_1_1MqttMapper.html#a5c22589cf651d660d38bf23d0b4e0706" target="_top" xlink:title=" ">
<polygon fill="white" stroke="#666666" points="469.5,-102 323.5,-102 323.5,-72 469.5,-72 469.5,-102"/>
<text text-anchor="start" x="331.5" y="-90" font-family="Helvetica,sans-Serif" font-size="10.00">mqtt::lib::MqttMapper</text>
<text text-anchor="middle" x="396.5" y="-79" font-family="Helvetica,sans-Serif" font-size="10.00">::publishMappedMessages</text>
</a>
</g>
</g>
<!-- Node3&#45;&gt;Node4 -->
<g id="edge3_Node000003_Node000004" class="edge">
<title>Node3&#45;&gt;Node4</title>
<g id="a_edge3_Node000003_Node000004"><a xlink:title=" ">
<path fill="none" stroke="#63b8ff" d="M495.75,-87C487.07,-87 478.26,-87 469.67,-87"/>
<polygon fill="#63b8ff" stroke="#63b8ff" points="495.87,-90.5 505.87,-87 495.87,-83.5 495.87,-90.5"/>
</a>
</g>
</g>
<!-- Node5 -->
<g id="Node000005" class="node">
<title>Node5</title>
<g id="a_Node000005"><a xlink:href="classmqtt_1_1lib_1_1MqttMapper.html#a279b13d33784be36c0b524a8796e194a" target="_top" xlink:title=" ">
<polygon fill="white" stroke="#666666" points="287,-78 164,-78 164,-48 287,-48 287,-78"/>
<text text-anchor="start" x="172" y="-66" font-family="Helvetica,sans-Serif" font-size="10.00">mqtt::lib::MqttMapper</text>
<text text-anchor="middle" x="225.5" y="-55" font-family="Helvetica,sans-Serif" font-size="10.00">::publishMappings</text>
</a>
</g>
</g>
<!-- Node4&#45;&gt;Node5 -->
<g id="edge4_Node000004_Node000005" class="edge">
<title>Node4&#45;&gt;Node5</title>
<g id="a_edge4_Node000004_Node000005"><a xlink:title=" ">
<path fill="none" stroke="#63b8ff" d="M313.42,-75.34C304.61,-74.09 295.76,-72.84 287.25,-71.63"/>
<polygon fill="#63b8ff" stroke="#63b8ff" points="312.95,-78.81 323.34,-76.75 313.93,-71.88 312.95,-78.81"/>
</a>
</g>
</g>
<!-- Node6 -->
<g id="Node000006" class="node">
<title>Node6</title>
<g id="a_Node000006"><a xlink:href="classmqtt_1_1mqttbroker_1_1lib_1_1Mqtt.html#a35dd670ca3b7d67cffbbce1cf7c71ffb" target="_top" xlink:title=" ">
<polygon fill="white" stroke="#666666" points="123,-126 5,-126 5,-96 123,-96 123,-126"/>
<text text-anchor="start" x="13" y="-114" font-family="Helvetica,sans-Serif" font-size="10.00">mqtt::mqttbroker::lib</text>
<text text-anchor="middle" x="64" y="-103" font-family="Helvetica,sans-Serif" font-size="10.00">::Mqtt::onPublish</text>
</a>
</g>
</g>
<!-- Node5&#45;&gt;Node6 -->
<g id="edge5_Node000005_Node000006" class="edge">
<title>Node5&#45;&gt;Node6</title>
<g id="a_edge5_Node000005_Node000006"><a xlink:title=" ">
<path fill="none" stroke="#63b8ff" d="M164.47,-81.07C148.11,-85.99 130.57,-91.27 114.85,-96"/>
<polygon fill="#63b8ff" stroke="#63b8ff" points="165.9,-84.29 174.47,-78.06 163.89,-77.59 165.9,-84.29"/>
</a>
</g>
</g>
<!-- Node7 -->
<g id="Node000007" class="node">
<title>Node7</title>
<g id="a_Node000007"><a xlink:href="classmqtt_1_1mqttintegrator_1_1lib_1_1Mqtt.html#a211408365844787ce77340f454b9cbd0" target="_top" xlink:title=" ">
<polygon fill="white" stroke="#666666" points="122.5,-78 5.5,-78 5.5,-48 122.5,-48 122.5,-78"/>
<text text-anchor="start" x="13.5" y="-66" font-family="Helvetica,sans-Serif" font-size="10.00">mqtt::mqttintegrator</text>
<text text-anchor="middle" x="64" y="-55" font-family="Helvetica,sans-Serif" font-size="10.00">::lib::Mqtt::onPublish</text>
</a>
</g>
</g>
<!-- Node5&#45;&gt;Node7 -->
<g id="edge6_Node000005_Node000007" class="edge">
<title>Node5&#45;&gt;Node7</title>
<g id="a_edge6_Node000005_Node000007"><a xlink:title=" ">
<path fill="none" stroke="#63b8ff" d="M153.52,-63C143.21,-63 132.7,-63 122.7,-63"/>
<polygon fill="#63b8ff" stroke="#63b8ff" points="153.74,-66.5 163.74,-63 153.74,-59.5 153.74,-66.5"/>
</a>
</g>
</g>
<!-- Node8 -->
<g id="Node000008" class="node">
<title>Node8</title>
<g id="a_Node000008"><a xlink:href="classmqtt_1_1mqttbroker_1_1lib_1_1Mqtt.html#a3426a2c9d850ad17f0134580a09d9527" target="_top" xlink:title=" ">
<polygon fill="white" stroke="#666666" points="128,-30 0,-30 0,0 128,0 128,-30"/>
<text text-anchor="start" x="8" y="-18" font-family="Helvetica,sans-Serif" font-size="10.00">mqtt::mqttbroker::lib</text>
<text text-anchor="middle" x="64" y="-7" font-family="Helvetica,sans-Serif" font-size="10.00">::Mqtt::publishMapping</text>
</a>
</g>
</g>
<!-- Node5&#45;&gt;Node8 -->
<g id="edge7_Node000005_Node000008" class="edge">
<title>Node5&#45;&gt;Node8</title>
<g id="a_edge7_Node000005_Node000008"><a xlink:title=" ">
<path fill="none" stroke="#63b8ff" d="M164.47,-44.93C148.11,-40.01 130.57,-34.73 114.85,-30"/>
<polygon fill="#63b8ff" stroke="#63b8ff" points="163.89,-48.41 174.47,-47.94 165.9,-41.71 163.89,-48.41"/>
</a>
</g>
</g>
<!-- Node10 -->
<g id="Node000010" class="node">
<title>Node10</title>
<g id="a_Node000010"><a xlink:href="classmqtt_1_1lib_1_1MqttMapper.html#aae1c8da19646ae1ada8d497fef0df12d" target="_top" xlink:title=" ">
<polygon fill="white" stroke="#666666" points="470,-54 323,-54 323,-24 470,-24 470,-54"/>
<text text-anchor="start" x="331" y="-42" font-family="Helvetica,sans-Serif" font-size="10.00">mqtt::lib::MqttMapper</text>
<text text-anchor="middle" x="396.5" y="-31" font-family="Helvetica,sans-Serif" font-size="10.00">::publishMappedTemplates</text>
</a>
</g>
</g>
<!-- Node9&#45;&gt;Node10 -->
<g id="edge9_Node000009_Node000010" class="edge">
<title>Node9&#45;&gt;Node10</title>
<g id="a_edge9_Node000009_Node000010"><a xlink:title=" ">
<path fill="none" stroke="#63b8ff" d="M671.68,-39C611.11,-39 528.74,-39 470.13,-39"/>
<polygon fill="#63b8ff" stroke="#63b8ff" points="671.96,-42.5 681.96,-39 671.96,-35.5 671.96,-42.5"/>
</a>
</g>
</g>
<!-- Node10&#45;&gt;Node5 -->
<g id="edge10_Node000010_Node000005" class="edge">
<title>Node10&#45;&gt;Node5</title>
<g id="a_edge10_Node000010_Node000005"><a xlink:title=" ">
<path fill="none" stroke="#63b8ff" d="M312.75,-50.75C304.13,-51.98 295.48,-53.2 287.16,-54.39"/>
<polygon fill="#63b8ff" stroke="#63b8ff" points="313.44,-54.19 322.85,-49.32 312.46,-47.26 313.44,-54.19"/>
</a>
</g>
</g>
</g>
</svg>

<g id="navigator" transform="translate(0 0)" fill="#404254">
  <rect fill="#f2f5e9" fill-opacity="0.5" stroke="#606060" stroke-width=".5" x="0" y="0" width="60" height="60"/>
  <use id="zoomplus" xlink:href="#zoomPlus" x="17" y="9" onmousedown="handleZoom(evt,'in')"/>
  <use id="zoomminus" xlink:href="#zoomMin" x="42" y="9" onmousedown="handleZoom(evt,'out')"/>
  <use id="reset" xlink:href="#resetDef" x="30" y="36" onmousedown="handleReset()"/>
   <use id="arrowup" xlink:href="#arrowUp" x="0" y="0" onmousedown="handlePan(0,-1)"/>
  <use id="arrowright" xlink:href="#arrowRight" x="0" y="0" onmousedown="handlePan(1,0)"/>
  <use id="arrowdown" xlink:href="#arrowDown" x="0" y="0" onmousedown="handlePan(0,1)"/>
  <use id="arrowleft" xlink:href="#arrowLeft" x="0" y="0" onmousedown="handlePan(-1,0)"/>
</g>
<svg viewBox="0 0 15 15" width="100%" height="30px" preserveAspectRatio="xMaxYMin meet">
 <g id="arrow_out" transform="scale(0.3 0.3)">
  <a xlink:href="classmqtt_1_1lib_1_1MqttMapper_a621835aa27e24b3893052ef5227f6deb_icgraph_org.svg" target="_base">
   <rect id="button" ry="5" rx="5" y="6" x="6" height="38" width="38"
        fill="#f2f5e9" fill-opacity="0.5" stroke="#606060" stroke-width="1.0"/>
   <path id="arrow"
     d="M 11.500037,31.436501 C 11.940474,20.09759 22.043105,11.32322 32.158766,21.979434 L 37.068811,17.246167 C 37.068811,17.246167 37.088388,32 37.088388,32 L 22.160133,31.978069 C 22.160133,31.978069 26.997745,27.140456 26.997745,27.140456 C 18.528582,18.264221 13.291696,25.230495 11.500037,31.436501 z"
     style="fill:#404040;"/>
  </a>
 </g>
</svg>

<style type='text/css'>
<![CDATA[
[data-mouse-over-selected='false'] { opacity: 0.7; }
[data-mouse-over-selected='true']  { opacity: 1.0; }
]]>
</style>
<script type="application/ecmascript"><![CDATA[
document.addEventListener('DOMContentLoaded', (event) => {
  highlightEdges();
  highlightAdjacentNodes();
});
]]></script>
</svg>
