<?xml version="1.0" encoding="UTF-8" standalone="no"?>
<!DOCTYPE svg PUBLIC "-//W3C//DTD SVG 1.1//EN"
 "http://www.w3.org/Graphics/SVG/1.1/DTD/svg11.dtd">
<!-- Generated by graphviz version 14.1.2 (0)
 -->
<!-- Title: mqtt::lib::MqttMapper Pages: 1 -->
<!--zoomable 1005 -->

<svg id="main" version="1.1" xmlns="http://www.w3.org/2000/svg" xmlns:xlink="http://www.w3.org/1999/xlink" xml:space="preserve" onload="init(evt)">

<style type="text/css"><![CDATA[
.node, .edge {opacity: 0.7;}
.node.selected, .edge.selected {opacity: 1;}
.edge:hover path { stroke: red; }
.edge:hover polygon { stroke: red; fill: red; }
]]></style>

<defs>
  <circle id="rim" cx="0" cy="0" r="7"/>
  <circle id="rim2" cx="0" cy="0" r="3.5"/>
  <g id="zoomPlus">
    <use xlink:href="#rim" fill="#404040"><set attributeName="fill" to="#808080" begin="zoomplus.mouseover" end="zoomplus.mouseout"/></use>
    <path d="M-4,0h8M0,-4v8" fill="none" stroke="white" stroke-width="1.5" pointer-events="none"/>
  </g>
  <g id="zoomMin">
    <use xlink:href="#rim" fill="#404040"><set attributeName="fill" to="#808080" begin="zoomminus.mouseover" end="zoomminus.mouseout"/></use>
    <path d="M-4,0h8" fill="none" stroke="white" stroke-width="1.5" pointer-events="none"/>
  </g>
  <g id="arrowUp" transform="translate(30 24)">
    <use xlink:href="#rim"/>
    <path pointer-events="none" fill="none" stroke="white" stroke-width="1.5" d="M0,-3.0v7 M-2.5,-0.5L0,-3.0L2.5,-0.5"/>
  </g>
  <g id="arrowRight" transform="rotate(90) translate(36 -43)">
    <use xlink:href="#rim"/>
    <path pointer-events="none" fill="none" stroke="white" stroke-width="1.5" d="M0,-3.0v7 M-2.5,-0.5L0,-3.0L2.5,-0.5"/>
  </g>
  <g id="arrowDown" transform="rotate(180) translate(-30 -48)">
    <use xlink:href="#rim"/>
    <path pointer-events="none" fill="none" stroke="white" stroke-width="1.5" d="M0,-3.0v7 M-2.5,-0.5L0,-3.0L2.5,-0.5"/>
  </g>
  <g id="arrowLeft" transform="rotate(270) translate(-36 17)">
    <use xlink:href="#rim"/>
    <path pointer-events="none" fill="none" stroke="white" stroke-width="1.5" d="M0,-3.0v7 M-2.5,-0.5L0,-3.0L2.5,-0.5"/>
  </g>
  <g id="resetDef">
    <use xlink:href="#rim2" fill="#404040"><set attributeName="fill" to="#808080" begin="reset.mouseover" end="reset.mouseout"/></use>
  </g>
</defs>
<script type="application/ecmascript">
var viewWidth = 1164;
var viewHeight = 1005;
var sectionId = 'dynsection-0';
</script>
<script type="application/ecmascript" xlink:href="svg.min.js"/>
<svg id="graph" class="graph">
<g id="viewport">
<title>mqtt::lib::MqttMapper</title>
<!-- Node1 -->
<g id="Node000001" class="node">
<title>Node1</title>
<g id="a_Node000001"><a xlink:title=" ">
<polygon fill="#999999" stroke="none" points="551,-20.75 436.5,-20.75 436.5,0 551,0 551,-20.75"/>
<text xml:space="preserve" text-anchor="start" x="440.5" y="-7.25" font-family="Helvetica,sans-Serif" font-size="10.00">mqtt::lib::MqttMapper</text>
<polygon fill="none" stroke="#666666" points="436.5,0 436.5,-20.75 551,-20.75 551,0 436.5,0"/>
</a>
</g>
</g>
<!-- Node2 -->
<g id="Node000002" class="node">
<title>Node2</title>
<g id="a_Node000002"><a xlink:title=" ">
<polygon fill="white" stroke="none" points="356.62,-102.62 260.88,-102.62 260.88,-81.88 356.62,-81.88 356.62,-102.62"/>
<text xml:space="preserve" text-anchor="start" x="264.88" y="-89.12" font-family="Helvetica,sans-Serif" font-size="10.00">std::list&lt; void * &gt;</text>
<polygon fill="none" stroke="#666666" points="260.88,-81.88 260.88,-102.62 356.62,-102.62 356.62,-81.88 260.88,-81.88"/>
</a>
</g>
</g>
<!-- Node2&#45;&gt;Node1 -->
<g id="edge1_Node000001_Node000002" class="edge">
<title>Node2&#45;&gt;Node1</title>
<g id="a_edge1_Node000001_Node000002"><a xlink:title=" ">
<path fill="none" stroke="#63b8ff" d="M316.05,-82.27C326.23,-70.39 345.86,-49.68 367.25,-38.75 384.65,-29.86 404.82,-23.85 423.88,-19.79"/>
<polygon fill="none" stroke="#63b8ff" points="423.85,-19.8 428.98,-14.73 435.63,-17.51 430.51,-22.58 423.85,-19.8"/>
</a>
</g>
<text xml:space="preserve" text-anchor="start" x="370.25" y="-45" font-family="Helvetica,sans-Serif" font-size="10.00" fill="grey">&#45;pluginHandles</text>
</g>
<!-- Node3 -->
<g id="Node000003" class="node">
<title>Node3</title>
<g id="a_Node000003"><a xlink:href="classinja_1_1Environment.html" target="_top" xlink:title="Class for changing the configuration.">
<polygon fill="white" stroke="none" points="889.88,-279.12 795.62,-279.12 795.62,-258.38 889.88,-258.38 889.88,-279.12"/>
<text xml:space="preserve" text-anchor="start" x="799.62" y="-265.62" font-family="Helvetica,sans-Serif" font-size="10.00">inja::Environment</text>
<polygon fill="none" stroke="#666666" points="795.62,-258.38 795.62,-279.12 889.88,-279.12 889.88,-258.38 795.62,-258.38"/>
</a>
</g>
</g>
<!-- Node3&#45;&gt;Node1 -->
<g id="edge2_Node000001_Node000003" class="edge">
<title>Node3&#45;&gt;Node1</title>
<g id="a_edge2_Node000001_Node000003"><a xlink:title=" ">
<path fill="none" stroke="#63b8ff" d="M831.73,-258.41C793.3,-226.04 661.08,-116.4 542.75,-38.75 536.54,-34.67 529.68,-30.6 523.11,-26.88"/>
<polygon fill="none" stroke="#63b8ff" points="523.11,-26.88 515.92,-27.49 512.59,-21.1 519.78,-20.48 523.11,-26.88"/>
</a>
</g>
<text xml:space="preserve" text-anchor="start" x="694.01" y="-133.25" font-family="Helvetica,sans-Serif" font-size="10.00" fill="grey">&#45;injaEnvironment</text>
</g>
<!-- Node4 -->
<g id="Node000004" class="node">
<title>Node4</title>
<g id="a_Node000004"><a xlink:href="classinja_1_1FunctionStorage.html" target="_top" xlink:title="Class for builtin functions and user&#45;defined callbacks.">
<polygon fill="white" stroke="none" points="1024.12,-373.75 913.38,-373.75 913.38,-353 1024.12,-353 1024.12,-373.75"/>
<text xml:space="preserve" text-anchor="start" x="917.38" y="-360.25" font-family="Helvetica,sans-Serif" font-size="10.00">inja::FunctionStorage</text>
<polygon fill="none" stroke="#666666" points="913.38,-353 913.38,-373.75 1024.12,-373.75 1024.12,-353 913.38,-353"/>
</a>
</g>
</g>
<!-- Node4&#45;&gt;Node3 -->
<g id="edge3_Node000003_Node000004" class="edge">
<title>Node4&#45;&gt;Node3</title>
<g id="a_edge3_Node000003_Node000004"><a xlink:title=" ">
<path fill="none" stroke="#63b8ff" d="M960.24,-353.25C948.51,-340.99 926.36,-318.96 904.75,-303.5 895.22,-296.68 884.17,-290.25 874.05,-284.87"/>
<polygon fill="none" stroke="#63b8ff" points="874.23,-284.96 867.07,-285.78 863.56,-279.48 870.72,-278.66 874.23,-284.96"/>
</a>
</g>
<text xml:space="preserve" text-anchor="start" x="930.11" y="-309.75" font-family="Helvetica,sans-Serif" font-size="10.00" fill="grey">&#45;function_storage</text>
</g>
<!-- Node5 -->
<g id="Node000005" class="node">
<title>Node5</title>
<g id="a_Node000005"><a xlink:title=" ">
<polygon fill="white" stroke="none" points="1036.12,-500.25 919.38,-500.25 919.38,-441.25 1036.12,-441.25 1036.12,-500.25"/>
<text xml:space="preserve" text-anchor="start" x="923.38" y="-486.75" font-family="Helvetica,sans-Serif" font-size="10.00">std::map&lt; std::pair</text>
<text xml:space="preserve" text-anchor="start" x="923.38" y="-474" font-family="Helvetica,sans-Serif" font-size="10.00">&lt; std::string, int &gt;</text>
<text xml:space="preserve" text-anchor="start" x="923.38" y="-461.25" font-family="Helvetica,sans-Serif" font-size="10.00">, inja::FunctionStorage</text>
<text xml:space="preserve" text-anchor="start" x="936.88" y="-448.5" font-family="Helvetica,sans-Serif" font-size="10.00">::FunctionData &gt;</text>
<polygon fill="none" stroke="#666666" points="919.38,-441.25 919.38,-500.25 1036.12,-500.25 1036.12,-441.25 919.38,-441.25"/>
</a>
</g>
</g>
<!-- Node5&#45;&gt;Node4 -->
<g id="edge4_Node000004_Node000005" class="edge">
<title>Node5&#45;&gt;Node4</title>
<g id="a_edge4_Node000004_Node000005"><a xlink:title=" ">
<path fill="none" stroke="#63b8ff" d="M975.34,-441.51C973.86,-424.15 971.98,-402.23 970.61,-386.2"/>
<polygon fill="none" stroke="#63b8ff" points="970.62,-386.29 966.13,-380.65 969.6,-374.33 974.1,-379.97 970.62,-386.29"/>
</a>
</g>
<text xml:space="preserve" text-anchor="start" x="976.52" y="-410.75" font-family="Helvetica,sans-Serif" font-size="10.00" fill="grey">&#45;function_storage</text>
</g>
<!-- Node6 -->
<g id="Node000006" class="node">
<title>Node6</title>
<g id="a_Node000006"><a xlink:title=" ">
<polygon fill="white" stroke="none" points="851.12,-596.88 740.38,-596.88 740.38,-563.38 851.12,-563.38 851.12,-596.88"/>
<text xml:space="preserve" text-anchor="start" x="744.38" y="-583.38" font-family="Helvetica,sans-Serif" font-size="10.00">std::pair&lt; std::string,</text>
<text xml:space="preserve" text-anchor="start" x="782.25" y="-570.62" font-family="Helvetica,sans-Serif" font-size="10.00"> int &gt;</text>
<polygon fill="none" stroke="#666666" points="740.38,-563.38 740.38,-596.88 851.12,-596.88 851.12,-563.38 740.38,-563.38"/>
</a>
</g>
</g>
<!-- Node6&#45;&gt;Node5 -->
<g id="edge5_Node000005_Node000006" class="edge">
<title>Node6&#45;&gt;Node5</title>
<g id="a_edge5_Node000005_Node000006"><a xlink:title=" ">
<path fill="none" stroke="#63b8ff" d="M822.21,-563.51C847.35,-548.68 886.02,-525.87 918.51,-506.7"/>
<polygon fill="none" stroke="#63b8ff" points="918.6,-506.65 921.73,-500.15 928.93,-500.55 925.8,-507.04 918.6,-506.65"/>
</a>
</g>
<text xml:space="preserve" text-anchor="start" x="900.65" y="-525.5" font-family="Helvetica,sans-Serif" font-size="10.00" fill="grey">+keys</text>
</g>
<!-- Node7 -->
<g id="Node000007" class="node">
<title>Node7</title>
<g id="a_Node000007"><a xlink:title=" ">
<polygon fill="white" stroke="none" points="540.12,-919.62 483.38,-919.62 483.38,-898.88 540.12,-898.88 540.12,-919.62"/>
<text xml:space="preserve" text-anchor="start" x="487.38" y="-906.12" font-family="Helvetica,sans-Serif" font-size="10.00">std::string</text>
<polygon fill="none" stroke="#666666" points="483.38,-898.88 483.38,-919.62 540.12,-919.62 540.12,-898.88 483.38,-898.88"/>
</a>
</g>
</g>
<!-- Node7&#45;&gt;Node1 -->
<g id="edge27_Node000001_Node000007" class="edge">
<title>Node7&#45;&gt;Node1</title>
<g id="a_edge27_Node000001_Node000007"><a xlink:title=" ">
<path fill="none" stroke="#63b8ff" d="M512.59,-898.89C516.02,-859.97 528.75,-707.09 528.75,-581.12 528.75,-581.12 528.75,-581.12 528.75,-91.25 528.75,-67.1 525.42,-60.42 514.75,-38.75 513.42,-36.04 511.8,-33.34 510.05,-30.75"/>
<polygon fill="none" stroke="#63b8ff" points="509.97,-30.64 503.14,-28.3 502.67,-21.1 509.5,-23.44 509.97,-30.64"/>
</a>
</g>
<text xml:space="preserve" text-anchor="start" x="531.75" y="-309.75" font-family="Helvetica,sans-Serif" font-size="10.00" fill="grey">&#45;mappingJsonSchemaString</text>
</g>
<!-- Node7&#45;&gt;Node6 -->
<g id="edge6_Node000006_Node000007" class="edge">
<title>Node7&#45;&gt;Node6</title>
<g id="a_edge6_Node000006_Node000007"><a xlink:title=" ">
<path fill="none" stroke="#63b8ff" d="M539.78,-907.95C593.88,-906.78 709.84,-901.13 737.75,-874.5 811.67,-803.97 806.22,-668.53 799.74,-609.64"/>
<polygon fill="none" stroke="#63b8ff" points="799.73,-609.52 795.03,-604.05 798.27,-597.61 802.97,-603.08 799.73,-609.52"/>
</a>
</g>
<text xml:space="preserve" text-anchor="start" x="806.22" y="-744.75" font-family="Helvetica,sans-Serif" font-size="10.00" fill="grey">+first_type</text>
</g>
<!-- Node11 -->
<g id="Node000011" class="node">
<title>Node11</title>
<g id="a_Node000011"><a xlink:href="structinja_1_1LexerConfig.html" target="_top" xlink:title="Class for lexer configuration.">
<polygon fill="white" stroke="none" points="759,-539 668.5,-539 668.5,-518.25 759,-518.25 759,-539"/>
<text xml:space="preserve" text-anchor="start" x="672.5" y="-525.5" font-family="Helvetica,sans-Serif" font-size="10.00">inja::LexerConfig</text>
<polygon fill="none" stroke="#666666" points="668.5,-518.25 668.5,-539 759,-539 759,-518.25 668.5,-518.25"/>
</a>
</g>
</g>
<!-- Node7&#45;&gt;Node11 -->
<g id="edge11_Node000011_Node000007" class="edge">
<title>Node7&#45;&gt;Node11</title>
<g id="a_edge11_Node000011_Node000007"><a xlink:title=" ">
<path fill="none" stroke="#63b8ff" d="M522.64,-898.92C529.34,-892.64 537.59,-883.83 542.75,-874.5 599.26,-772.37 551.03,-720.62 612.25,-621.25 631.64,-589.78 664.99,-562.7 688.14,-546.31"/>
<polygon fill="none" stroke="#63b8ff" points="688.25,-546.24 690.94,-539.55 698.15,-539.46 695.46,-546.15 688.25,-546.24"/>
</a>
</g>
<text xml:space="preserve" text-anchor="start" x="615.25" y="-862" font-family="Helvetica,sans-Serif" font-size="10.00" fill="grey">+comment_close</text>
<text xml:space="preserve" text-anchor="start" x="615.25" y="-845.25" font-family="Helvetica,sans-Serif" font-size="10.00" fill="grey">+comment_close_force</text>
<text xml:space="preserve" text-anchor="start" x="615.25" y="-828.5" font-family="Helvetica,sans-Serif" font-size="10.00" fill="grey">  _rstrip</text>
<text xml:space="preserve" text-anchor="start" x="615.25" y="-811.75" font-family="Helvetica,sans-Serif" font-size="10.00" fill="grey">+comment_open</text>
<text xml:space="preserve" text-anchor="start" x="615.25" y="-795" font-family="Helvetica,sans-Serif" font-size="10.00" fill="grey">+comment_open_force</text>
<text xml:space="preserve" text-anchor="start" x="615.25" y="-778.25" font-family="Helvetica,sans-Serif" font-size="10.00" fill="grey">  _lstrip</text>
<text xml:space="preserve" text-anchor="start" x="615.25" y="-761.5" font-family="Helvetica,sans-Serif" font-size="10.00" fill="grey">+expression_close</text>
<text xml:space="preserve" text-anchor="start" x="615.25" y="-744.75" font-family="Helvetica,sans-Serif" font-size="10.00" fill="grey">+expression_close</text>
<text xml:space="preserve" text-anchor="start" x="615.25" y="-728" font-family="Helvetica,sans-Serif" font-size="10.00" fill="grey">  _force_rstrip</text>
<text xml:space="preserve" text-anchor="start" x="615.25" y="-711.25" font-family="Helvetica,sans-Serif" font-size="10.00" fill="grey">+expression_open</text>
<text xml:space="preserve" text-anchor="start" x="615.25" y="-694.5" font-family="Helvetica,sans-Serif" font-size="10.00" fill="grey">+expression_open</text>
<text xml:space="preserve" text-anchor="start" x="615.25" y="-677.75" font-family="Helvetica,sans-Serif" font-size="10.00" fill="grey">  _force_lstrip</text>
<text xml:space="preserve" text-anchor="start" x="615.25" y="-661" font-family="Helvetica,sans-Serif" font-size="10.00" fill="grey">+line_statement</text>
<text xml:space="preserve" text-anchor="start" x="615.25" y="-644.25" font-family="Helvetica,sans-Serif" font-size="10.00" fill="grey">+open_chars</text>
<text xml:space="preserve" text-anchor="start" x="615.25" y="-627.5" font-family="Helvetica,sans-Serif" font-size="10.00" fill="grey"> &#160;...</text>
</g>
<!-- Node18 -->
<g id="Node000018" class="node">
<title>Node18</title>
<g id="a_Node000018"><a xlink:title=" ">
<polygon fill="white" stroke="none" points="462.5,-386.5 309,-386.5 309,-340.25 462.5,-340.25 462.5,-386.5"/>
<text xml:space="preserve" text-anchor="start" x="313" y="-373" font-family="Helvetica,sans-Serif" font-size="10.00">std::map&lt; std::string,</text>
<text xml:space="preserve" text-anchor="start" x="313" y="-360.25" font-family="Helvetica,sans-Serif" font-size="10.00"> nlohmann::json_schema</text>
<text xml:space="preserve" text-anchor="start" x="313" y="-347.5" font-family="Helvetica,sans-Serif" font-size="10.00">::root_schema::schema_file &gt;</text>
<polygon fill="none" stroke="#666666" points="309,-340.25 309,-386.5 462.5,-386.5 462.5,-340.25 309,-340.25"/>
</a>
</g>
</g>
<!-- Node7&#45;&gt;Node18 -->
<g id="edge19_Node000018_Node000007" class="edge">
<title>Node7&#45;&gt;Node18</title>
<g id="a_edge19_Node000018_Node000007"><a xlink:title=" ">
<path fill="none" stroke="#63b8ff" d="M511.28,-898.94C508.73,-850.55 495.18,-623.12 457.75,-441.25 454.31,-424.55 456.93,-418.18 446.75,-404.5 444.1,-400.93 441.02,-397.59 437.7,-394.48"/>
<polygon fill="none" stroke="#63b8ff" points="437.76,-394.53 430.58,-393.8 428.49,-386.9 435.67,-387.62 437.76,-394.53"/>
</a>
</g>
<text xml:space="preserve" text-anchor="start" x="478.11" y="-525.5" font-family="Helvetica,sans-Serif" font-size="10.00" fill="grey">+keys</text>
</g>
<!-- Node20 -->
<g id="Node000020" class="node">
<title>Node20</title>
<g id="a_Node000020"><a xlink:title=" ">
<polygon fill="white" stroke="none" points="457.62,-596.88 301.88,-596.88 301.88,-563.38 457.62,-563.38 457.62,-596.88"/>
<text xml:space="preserve" text-anchor="start" x="305.88" y="-583.38" font-family="Helvetica,sans-Serif" font-size="10.00">std::map&lt; std::string,</text>
<text xml:space="preserve" text-anchor="start" x="305.88" y="-570.62" font-family="Helvetica,sans-Serif" font-size="10.00"> std::shared_ptr&lt; schema &gt; &gt;</text>
<polygon fill="none" stroke="#666666" points="301.88,-563.38 301.88,-596.88 457.62,-596.88 457.62,-563.38 301.88,-563.38"/>
</a>
</g>
</g>
<!-- Node7&#45;&gt;Node20 -->
<g id="edge22_Node000020_Node000007" class="edge">
<title>Node7&#45;&gt;Node20</title>
<g id="a_edge22_Node000020_Node000007"><a xlink:title=" ">
<path fill="none" stroke="#63b8ff" d="M483.49,-901.98C468.37,-897.1 450.88,-888.68 441,-874.5 408.69,-828.13 441.05,-672.74 417.75,-621.25 415.33,-615.89 411.89,-610.8 408.05,-606.16"/>
<polygon fill="none" stroke="#63b8ff" points="408.09,-606.19 401.07,-604.54 399.9,-597.42 406.92,-599.08 408.09,-606.19"/>
</a>
</g>
<text xml:space="preserve" text-anchor="start" x="444" y="-744.75" font-family="Helvetica,sans-Serif" font-size="10.00" fill="grey">+keys</text>
</g>
<!-- Node21 -->
<g id="Node000021" class="node">
<title>Node21</title>
<g id="a_Node000021"><a xlink:title=" ">
<polygon fill="white" stroke="none" points="283.38,-603.25 150.12,-603.25 150.12,-557 283.38,-557 283.38,-603.25"/>
<text xml:space="preserve" text-anchor="start" x="154.12" y="-589.75" font-family="Helvetica,sans-Serif" font-size="10.00">std::map&lt; std::string,</text>
<text xml:space="preserve" text-anchor="start" x="154.12" y="-577" font-family="Helvetica,sans-Serif" font-size="10.00"> std::shared_ptr&lt; schema</text>
<text xml:space="preserve" text-anchor="start" x="196.12" y="-564.25" font-family="Helvetica,sans-Serif" font-size="10.00">_ref &gt; &gt;</text>
<polygon fill="none" stroke="#666666" points="150.12,-557 150.12,-603.25 283.38,-603.25 283.38,-557 150.12,-557"/>
</a>
</g>
</g>
<!-- Node7&#45;&gt;Node21 -->
<g id="edge25_Node000021_Node000007" class="edge">
<title>Node7&#45;&gt;Node21</title>
<g id="a_edge25_Node000021_Node000007"><a xlink:title=" ">
<path fill="none" stroke="#63b8ff" d="M483.6,-905.06C448.25,-900.42 390.57,-890.59 377,-874.5 340.61,-831.35 393.6,-664.84 357.75,-621.25 340.94,-600.81 325.63,-608.81 295.76,-603.43"/>
<polygon fill="none" stroke="#63b8ff" points="295.62,-603.4 288.87,-605.94 283.93,-600.69 290.68,-598.15 295.62,-603.4"/>
</a>
</g>
<text xml:space="preserve" text-anchor="start" x="380" y="-744.75" font-family="Helvetica,sans-Serif" font-size="10.00" fill="grey">+keys</text>
</g>
<!-- Node8 -->
<g id="Node000008" class="node">
<title>Node8</title>
<g id="a_Node000008"><a xlink:title=" ">
<polygon fill="white" stroke="none" points="559.62,-996.5 463.88,-996.5 463.88,-963 559.62,-963 559.62,-996.5"/>
<text xml:space="preserve" text-anchor="start" x="467.88" y="-983" font-family="Helvetica,sans-Serif" font-size="10.00">std::basic_string&lt;</text>
<text xml:space="preserve" text-anchor="start" x="493.38" y="-970.25" font-family="Helvetica,sans-Serif" font-size="10.00"> Char &gt;</text>
<polygon fill="none" stroke="#666666" points="463.88,-963 463.88,-996.5 559.62,-996.5 559.62,-963 463.88,-963"/>
</a>
</g>
</g>
<!-- Node8&#45;&gt;Node7 -->
<g id="edge7_Node000007_Node000008" class="edge">
<title>Node8&#45;&gt;Node7</title>
<g id="a_edge7_Node000007_Node000008"><a xlink:title=" ">
<path fill="none" stroke="#63b8ff" d="M511.75,-951.95C511.75,-940.53 511.75,-927.94 511.75,-919.62"/>
<polygon fill="none" stroke="#63b8ff" points="508.25,-951.69 511.75,-961.69 515.25,-951.69 508.25,-951.69"/>
</a>
</g>
</g>
<!-- Node9 -->
<g id="Node000009" class="node">
<title>Node9</title>
<g id="a_Node000009"><a xlink:href="structinja_1_1FunctionStorage_1_1FunctionData.html" target="_top" xlink:title=" ">
<polygon fill="white" stroke="none" points="1033.12,-596.88 922.38,-596.88 922.38,-563.38 1033.12,-563.38 1033.12,-596.88"/>
<text xml:space="preserve" text-anchor="start" x="926.38" y="-583.38" font-family="Helvetica,sans-Serif" font-size="10.00">inja::FunctionStorage</text>
<text xml:space="preserve" text-anchor="start" x="942.5" y="-570.62" font-family="Helvetica,sans-Serif" font-size="10.00">::FunctionData</text>
<polygon fill="none" stroke="#666666" points="922.38,-563.38 922.38,-596.88 1033.12,-596.88 1033.12,-563.38 922.38,-563.38"/>
</a>
</g>
</g>
<!-- Node9&#45;&gt;Node5 -->
<g id="edge8_Node000005_Node000009" class="edge">
<title>Node9&#45;&gt;Node5</title>
<g id="a_edge8_Node000005_Node000009"><a xlink:title=" ">
<path fill="none" stroke="#63b8ff" d="M977.75,-563.74C977.75,-550.46 977.75,-530.65 977.75,-512.82"/>
<polygon fill="none" stroke="#63b8ff" points="977.75,-512.9 973.75,-506.9 977.75,-500.9 981.75,-506.9 977.75,-512.9"/>
</a>
</g>
<text xml:space="preserve" text-anchor="start" x="980.75" y="-525.5" font-family="Helvetica,sans-Serif" font-size="10.00" fill="grey">+elements</text>
</g>
<!-- Node10 -->
<g id="Node000010" class="node">
<title>Node10</title>
<g id="a_Node000010"><a xlink:title=" ">
<polygon fill="white" stroke="none" points="1155.62,-380.12 1041.88,-380.12 1041.88,-346.62 1155.62,-346.62 1155.62,-380.12"/>
<text xml:space="preserve" text-anchor="start" x="1045.88" y="-366.62" font-family="Helvetica,sans-Serif" font-size="10.00">std::map&lt; std::string,</text>
<text xml:space="preserve" text-anchor="start" x="1069.12" y="-353.88" font-family="Helvetica,sans-Serif" font-size="10.00"> Template &gt;</text>
<polygon fill="none" stroke="#666666" points="1041.88,-346.62 1041.88,-380.12 1155.62,-380.12 1155.62,-346.62 1041.88,-346.62"/>
</a>
</g>
</g>
<!-- Node10&#45;&gt;Node3 -->
<g id="edge9_Node000003_Node000010" class="edge">
<title>Node10&#45;&gt;Node3</title>
<g id="a_edge9_Node000003_Node000010"><a xlink:title=" ">
<path fill="none" stroke="#63b8ff" d="M1083.34,-346.8C1068.94,-333.2 1046.2,-314.03 1022.75,-303.5 984.78,-286.44 938.57,-278 902.48,-273.83"/>
<polygon fill="none" stroke="#63b8ff" points="902.5,-273.83 896.11,-277.18 890.57,-272.57 896.95,-269.23 902.5,-273.83"/>
</a>
</g>
<text xml:space="preserve" text-anchor="start" x="1055.14" y="-309.75" font-family="Helvetica,sans-Serif" font-size="10.00" fill="grey">&#45;template_storage</text>
</g>
<!-- Node11&#45;&gt;Node3 -->
<g id="edge10_Node000003_Node000011" class="edge">
<title>Node11&#45;&gt;Node3</title>
<g id="a_edge10_Node000003_Node000011"><a xlink:title=" ">
<path fill="none" stroke="#63b8ff" d="M727.07,-518.32C755.42,-497.83 822.03,-445.89 857.75,-386.5 877.26,-354.07 891.3,-338.44 876.75,-303.5 874.28,-297.57 870.21,-292.15 865.73,-287.47"/>
<polygon fill="none" stroke="#63b8ff" points="865.9,-287.63 858.77,-286.57 857,-279.58 864.13,-280.64 865.9,-287.63"/>
</a>
</g>
<text xml:space="preserve" text-anchor="start" x="848.46" y="-410.75" font-family="Helvetica,sans-Serif" font-size="10.00" fill="grey">#lexer_config</text>
</g>
<!-- Node12 -->
<g id="Node000012" class="node">
<title>Node12</title>
<g id="a_Node000012"><a xlink:href="structinja_1_1ParserConfig.html" target="_top" xlink:title="Class for parser configuration.">
<polygon fill="white" stroke="none" points="732.88,-373.75 638.62,-373.75 638.62,-353 732.88,-353 732.88,-373.75"/>
<text xml:space="preserve" text-anchor="start" x="642.62" y="-360.25" font-family="Helvetica,sans-Serif" font-size="10.00">inja::ParserConfig</text>
<polygon fill="none" stroke="#666666" points="638.62,-353 638.62,-373.75 732.88,-373.75 732.88,-353 638.62,-353"/>
</a>
</g>
</g>
<!-- Node12&#45;&gt;Node3 -->
<g id="edge12_Node000003_Node000012" class="edge">
<title>Node12&#45;&gt;Node3</title>
<g id="a_edge12_Node000003_Node000012"><a xlink:title=" ">
<path fill="none" stroke="#63b8ff" d="M686.5,-353.35C688.07,-340.38 692.89,-316.59 707.5,-303.5 728.01,-285.12 757,-276.41 782.89,-272.41"/>
<polygon fill="none" stroke="#63b8ff" points="782.89,-272.41 788.33,-267.67 794.79,-270.87 789.35,-275.61 782.89,-272.41"/>
</a>
</g>
<text xml:space="preserve" text-anchor="start" x="710.5" y="-309.75" font-family="Helvetica,sans-Serif" font-size="10.00" fill="grey">#parser_config</text>
</g>
<!-- Node13 -->
<g id="Node000013" class="node">
<title>Node13</title>
<g id="a_Node000013"><a xlink:href="structinja_1_1RenderConfig.html" target="_top" xlink:title="Class for render configuration.">
<polygon fill="white" stroke="none" points="848.75,-373.75 750.75,-373.75 750.75,-353 848.75,-353 848.75,-373.75"/>
<text xml:space="preserve" text-anchor="start" x="754.75" y="-360.25" font-family="Helvetica,sans-Serif" font-size="10.00">inja::RenderConfig</text>
<polygon fill="none" stroke="#666666" points="750.75,-353 750.75,-373.75 848.75,-373.75 848.75,-353 750.75,-353"/>
</a>
</g>
</g>
<!-- Node13&#45;&gt;Node3 -->
<g id="edge13_Node000003_Node000013" class="edge">
<title>Node13&#45;&gt;Node3</title>
<g id="a_edge13_Node000003_Node000013"><a xlink:title=" ">
<path fill="none" stroke="#63b8ff" d="M796.28,-353C792.39,-340.86 787.61,-319.36 795.75,-303.5 799.28,-296.63 804.92,-290.84 811.1,-286.11"/>
<polygon fill="none" stroke="#63b8ff" points="810.93,-286.21 813.74,-279.58 820.96,-279.62 818.14,-286.26 810.93,-286.21"/>
</a>
</g>
<text xml:space="preserve" text-anchor="start" x="798.75" y="-309.75" font-family="Helvetica,sans-Serif" font-size="10.00" fill="grey">#render_config</text>
</g>
<!-- Node14 -->
<g id="Node000014" class="node">
<title>Node14</title>
<g id="a_Node000014"><a xlink:href="classnlohmann_1_1json__schema_1_1json__validator.html" target="_top" xlink:title=" ">
<polygon fill="white" stroke="none" points="501,-109 374.5,-109 374.5,-75.5 501,-75.5 501,-109"/>
<text xml:space="preserve" text-anchor="start" x="378.5" y="-95.5" font-family="Helvetica,sans-Serif" font-size="10.00">nlohmann::json_schema</text>
<text xml:space="preserve" text-anchor="start" x="400.25" y="-82.75" font-family="Helvetica,sans-Serif" font-size="10.00">::json_validator</text>
<polygon fill="none" stroke="#666666" points="374.5,-75.5 374.5,-109 501,-109 501,-75.5 374.5,-75.5"/>
</a>
</g>
</g>
<!-- Node14&#45;&gt;Node1 -->
<g id="edge14_Node000001_Node000014" class="edge">
<title>Node14&#45;&gt;Node1</title>
<g id="a_edge14_Node000001_Node000014"><a xlink:title=" ">
<path fill="none" stroke="#63b8ff" d="M442.77,-75.57C446.76,-64.59 453.07,-49.93 461.5,-38.75 464.11,-35.29 467.23,-31.97 470.48,-28.91"/>
<polygon fill="none" stroke="#63b8ff" points="470.43,-28.96 472.43,-22.03 479.6,-21.21 477.6,-28.14 470.43,-28.96"/>
</a>
</g>
<text xml:space="preserve" text-anchor="start" x="464.5" y="-45" font-family="Helvetica,sans-Serif" font-size="10.00" fill="grey">&#45;validator</text>
</g>
<!-- Node15 -->
<g id="Node000015" class="node">
<title>Node15</title>
<g id="a_Node000015"><a xlink:title=" ">
<polygon fill="white" stroke="none" points="489.75,-197.25 331.75,-197.25 331.75,-163.75 489.75,-163.75 489.75,-197.25"/>
<text xml:space="preserve" text-anchor="start" x="335.75" y="-183.75" font-family="Helvetica,sans-Serif" font-size="10.00">std::unique_ptr&lt; nlohmann</text>
<text xml:space="preserve" text-anchor="start" x="335.75" y="-171" font-family="Helvetica,sans-Serif" font-size="10.00">::json_schema::root_schema &gt;</text>
<polygon fill="none" stroke="#666666" points="331.75,-163.75 331.75,-197.25 489.75,-197.25 489.75,-163.75 331.75,-163.75"/>
</a>
</g>
</g>
<!-- Node15&#45;&gt;Node14 -->
<g id="edge15_Node000014_Node000015" class="edge">
<title>Node15&#45;&gt;Node14</title>
<g id="a_edge15_Node000014_Node000015"><a xlink:title=" ">
<path fill="none" stroke="#63b8ff" d="M415.58,-164.08C419.32,-152.13 424.6,-135.27 429.06,-120.99"/>
<polygon fill="none" stroke="#63b8ff" points="429.02,-121.14 426.99,-114.22 432.6,-109.69 434.63,-116.61 429.02,-121.14"/>
</a>
</g>
<text xml:space="preserve" text-anchor="start" x="429.67" y="-133.25" font-family="Helvetica,sans-Serif" font-size="10.00" fill="grey">&#45;root_</text>
</g>
<!-- Node16 -->
<g id="Node000016" class="node">
<title>Node16</title>
<g id="a_Node000016"><a xlink:href="classnlohmann_1_1json__schema_1_1root__schema.html" target="_top" xlink:title=" ">
<polygon fill="white" stroke="none" points="449,-285.5 322.5,-285.5 322.5,-252 449,-252 449,-285.5"/>
<text xml:space="preserve" text-anchor="start" x="326.5" y="-272" font-family="Helvetica,sans-Serif" font-size="10.00">nlohmann::json_schema</text>
<text xml:space="preserve" text-anchor="start" x="351.25" y="-259.25" font-family="Helvetica,sans-Serif" font-size="10.00">::root_schema</text>
<polygon fill="none" stroke="#666666" points="322.5,-252 322.5,-285.5 449,-285.5 449,-252 322.5,-252"/>
</a>
</g>
</g>
<!-- Node16&#45;&gt;Node15 -->
<g id="edge16_Node000015_Node000016" class="edge">
<title>Node16&#45;&gt;Node15</title>
<g id="a_edge16_Node000015_Node000016"><a xlink:title=" ">
<path fill="none" stroke="#63b8ff" d="M390.22,-252.33C393.68,-240.38 398.57,-223.52 402.71,-209.24"/>
<polygon fill="none" stroke="#63b8ff" points="402.64,-209.47 400.47,-202.59 405.98,-197.94 408.16,-204.82 402.64,-209.47"/>
</a>
</g>
<text xml:space="preserve" text-anchor="start" x="403.49" y="-221.5" font-family="Helvetica,sans-Serif" font-size="10.00" fill="grey">+ptr</text>
</g>
<!-- Node17 -->
<g id="Node000017" class="node">
<title>Node17</title>
<g id="a_Node000017"><a xlink:title=" ">
<polygon fill="white" stroke="none" points="141.5,-919.62 0,-919.62 0,-898.88 141.5,-898.88 141.5,-919.62"/>
<text xml:space="preserve" text-anchor="start" x="4" y="-906.12" font-family="Helvetica,sans-Serif" font-size="10.00">std::shared_ptr&lt; schema &gt;</text>
<polygon fill="none" stroke="#666666" points="0,-898.88 0,-919.62 141.5,-919.62 141.5,-898.88 0,-898.88"/>
</a>
</g>
</g>
<!-- Node17&#45;&gt;Node16 -->
<g id="edge17_Node000016_Node000017" class="edge">
<title>Node17&#45;&gt;Node16</title>
<g id="a_edge17_Node000016_Node000017"><a xlink:title=" ">
<path fill="none" stroke="#63b8ff" d="M72.44,-898.92C79.3,-860.11 104.75,-707.6 104.75,-581.12 104.75,-581.12 104.75,-581.12 104.75,-362.38 104.75,-319.06 226.72,-292.61 309.94,-279.61"/>
<polygon fill="none" stroke="#63b8ff" points="309.93,-279.61 315.26,-274.76 321.8,-277.81 316.47,-282.67 309.93,-279.61"/>
</a>
</g>
<text xml:space="preserve" text-anchor="start" x="107.75" y="-467.62" font-family="Helvetica,sans-Serif" font-size="10.00" fill="grey">&#45;root_</text>
</g>
<!-- Node17&#45;&gt;Node20 -->
<g id="edge23_Node000020_Node000017" class="edge">
<title>Node17&#45;&gt;Node20</title>
<g id="a_edge23_Node000020_Node000017"><a xlink:title=" ">
<path fill="none" stroke="#63b8ff" d="M115.95,-898.94C127.29,-896.72 139.45,-894.43 150.75,-892.5 178.2,-887.81 255.75,-894.86 274.75,-874.5 313.25,-833.24 261.67,-667.68 293.75,-621.25 298.72,-614.06 305.33,-608.12 312.68,-603.23"/>
<polygon fill="none" stroke="#63b8ff" points="312.69,-603.22 315.9,-596.76 323.09,-597.24 319.89,-603.7 312.69,-603.22"/>
</a>
</g>
<text xml:space="preserve" text-anchor="start" x="296.75" y="-744.75" font-family="Helvetica,sans-Serif" font-size="10.00" fill="grey">+elements</text>
</g>
<!-- Node18&#45;&gt;Node16 -->
<g id="edge18_Node000016_Node000018" class="edge">
<title>Node18&#45;&gt;Node16</title>
<g id="a_edge18_Node000016_Node000018"><a xlink:title=" ">
<path fill="none" stroke="#63b8ff" d="M385.75,-340.42C385.75,-327.88 385.75,-312 385.75,-298.47"/>
<polygon fill="none" stroke="#63b8ff" points="385.75,-298.36 381.75,-292.36 385.75,-286.36 389.75,-292.36 385.75,-298.36"/>
</a>
</g>
<text xml:space="preserve" text-anchor="start" x="388.75" y="-309.75" font-family="Helvetica,sans-Serif" font-size="10.00" fill="grey">&#45;files_</text>
</g>
<!-- Node19 -->
<g id="Node000019" class="node">
<title>Node19</title>
<g id="a_Node000019"><a xlink:href="structnlohmann_1_1json__schema_1_1root__schema_1_1schema__file.html" target="_top" xlink:title=" ">
<polygon fill="white" stroke="none" points="448.88,-487.5 306.62,-487.5 306.62,-454 448.88,-454 448.88,-487.5"/>
<text xml:space="preserve" text-anchor="start" x="310.62" y="-474" font-family="Helvetica,sans-Serif" font-size="10.00">nlohmann::json_schema</text>
<text xml:space="preserve" text-anchor="start" x="310.62" y="-461.25" font-family="Helvetica,sans-Serif" font-size="10.00">::root_schema::schema_file</text>
<polygon fill="none" stroke="#666666" points="306.62,-454 306.62,-487.5 448.88,-487.5 448.88,-454 306.62,-454"/>
</a>
</g>
</g>
<!-- Node19&#45;&gt;Node18 -->
<g id="edge20_Node000018_Node000019" class="edge">
<title>Node19&#45;&gt;Node18</title>
<g id="a_edge20_Node000018_Node000019"><a xlink:title=" ">
<path fill="none" stroke="#63b8ff" d="M378.93,-454.2C380.03,-439.74 381.7,-417.67 383.12,-399.03"/>
<polygon fill="none" stroke="#63b8ff" points="383.11,-399.09 379.58,-392.8 384.02,-387.12 387.56,-393.41 383.11,-399.09"/>
</a>
</g>
<text xml:space="preserve" text-anchor="start" x="385.7" y="-410.75" font-family="Helvetica,sans-Serif" font-size="10.00" fill="grey">+elements</text>
</g>
<!-- Node20&#45;&gt;Node19 -->
<g id="edge21_Node000019_Node000020" class="edge">
<title>Node20&#45;&gt;Node19</title>
<g id="a_edge21_Node000019_Node000020"><a xlink:title=" ">
<path fill="none" stroke="#63b8ff" d="M379.46,-563.74C379.16,-547.25 378.66,-520.7 378.28,-500.35"/>
<polygon fill="none" stroke="#63b8ff" points="378.28,-500.35 374.17,-494.43 378.06,-488.36 382.17,-494.28 378.28,-500.35"/>
</a>
</g>
<text xml:space="preserve" text-anchor="start" x="381.99" y="-525.5" font-family="Helvetica,sans-Serif" font-size="10.00" fill="grey">+schemas</text>
</g>
<!-- Node21&#45;&gt;Node19 -->
<g id="edge24_Node000019_Node000021" class="edge">
<title>Node21&#45;&gt;Node19</title>
<g id="a_edge24_Node000019_Node000021"><a xlink:title=" ">
<path fill="none" stroke="#63b8ff" d="M249.06,-557.01C266.1,-545.4 287.38,-530.97 306.5,-518.25 318.34,-510.37 331.34,-501.85 342.97,-494.27"/>
<polygon fill="none" stroke="#63b8ff" points="342.79,-494.39 345.64,-487.77 352.85,-487.85 350,-494.47 342.79,-494.39"/>
</a>
</g>
<text xml:space="preserve" text-anchor="start" x="309.5" y="-525.5" font-family="Helvetica,sans-Serif" font-size="10.00" fill="grey">+unresolved</text>
</g>
<!-- Node22 -->
<g id="Node000022" class="node">
<title>Node22</title>
<g id="a_Node000022"><a xlink:title=" ">
<polygon fill="white" stroke="none" points="289.88,-926 159.62,-926 159.62,-892.5 289.88,-892.5 289.88,-926"/>
<text xml:space="preserve" text-anchor="start" x="163.62" y="-912.5" font-family="Helvetica,sans-Serif" font-size="10.00">std::shared_ptr&lt; schema</text>
<text xml:space="preserve" text-anchor="start" x="209.75" y="-899.75" font-family="Helvetica,sans-Serif" font-size="10.00">_ref &gt;</text>
<polygon fill="none" stroke="#666666" points="159.62,-892.5 159.62,-926 289.88,-926 289.88,-892.5 159.62,-892.5"/>
</a>
</g>
</g>
<!-- Node22&#45;&gt;Node21 -->
<g id="edge26_Node000021_Node000022" class="edge">
<title>Node22&#45;&gt;Node21</title>
<g id="a_edge26_Node000021_Node000022"><a xlink:title=" ">
<path fill="none" stroke="#63b8ff" d="M219.11,-892.66C217.34,-887.02 215.63,-880.55 214.75,-874.5 198.59,-763.11 211.95,-733.77 214.75,-621.25 214.79,-619.6 214.84,-617.92 214.9,-616.22"/>
<polygon fill="none" stroke="#63b8ff" points="214.9,-616.08 211.16,-609.92 215.41,-604.09 219.16,-610.26 214.9,-616.08"/>
</a>
</g>
<text xml:space="preserve" text-anchor="start" x="217.75" y="-744.75" font-family="Helvetica,sans-Serif" font-size="10.00" fill="grey">+elements</text>
</g>
</g>
</svg>

<g id="navigator" transform="translate(0 0)" fill="#404254">
  <rect fill="#f2f5e9" fill-opacity="0.5" stroke="#606060" stroke-width=".5" x="0" y="0" width="60" height="60"/>
  <use id="zoomplus" xlink:href="#zoomPlus" x="17" y="9" onmousedown="handleZoom(evt,'in')"/>
  <use id="zoomminus" xlink:href="#zoomMin" x="42" y="9" onmousedown="handleZoom(evt,'out')"/>
  <use id="reset" xlink:href="#resetDef" x="30" y="36" onmousedown="handleReset()"/>
   <use id="arrowup" xlink:href="#arrowUp" x="0" y="0" onmousedown="handlePan(0,-1)"/>
  <use id="arrowright" xlink:href="#arrowRight" x="0" y="0" onmousedown="handlePan(1,0)"/>
  <use id="arrowdown" xlink:href="#arrowDown" x="0" y="0" onmousedown="handlePan(0,1)"/>
  <use id="arrowleft" xlink:href="#arrowLeft" x="0" y="0" onmousedown="handlePan(-1,0)"/>
</g>
<svg viewBox="0 0 15 15" width="100%" height="30px" preserveAspectRatio="xMaxYMin meet">
 <g id="arrow_out" transform="scale(0.3 0.3)">
  <a xlink:href="classmqtt_1_1lib_1_1MqttMapper__coll__graph_org.svg" target="_base">
   <rect id="button" ry="5" rx="5" y="6" x="6" height="38" width="38"
        fill="#f2f5e9" fill-opacity="0.5" stroke="#606060" stroke-width="1.0"/>
   <path id="arrow"
     d="M 11.500037,31.436501 C 11.940474,20.09759 22.043105,11.32322 32.158766,21.979434 L 37.068811,17.246167 C 37.068811,17.246167 37.088388,32 37.088388,32 L 22.160133,31.978069 C 22.160133,31.978069 26.997745,27.140456 26.997745,27.140456 C 18.528582,18.264221 13.291696,25.230495 11.500037,31.436501 z"
     style="fill:#404040;"/>
  </a>
 </g>
</svg>

<style type='text/css'>
<![CDATA[
[data-mouse-over-selected='false'] { opacity: 0.7; }
[data-mouse-over-selected='true']  { opacity: 1.0; }
]]>
</style>
<script type="application/ecmascript"><![CDATA[
document.addEventListener('DOMContentLoaded', (event) => {
  highlightEdges();
  highlightAdjacentNodes();
});
]]></script>
</svg>
