<?xml version="1.0" encoding="UTF-8" standalone="no"?>
<!DOCTYPE svg PUBLIC "-//W3C//DTD SVG 1.1//EN"
 "http://www.w3.org/Graphics/SVG/1.1/DTD/svg11.dtd">
<!-- Generated by graphviz version 14.1.2 (0)
 -->
<!-- Title: nlohmann::json_schema::json_validator::validate Pages: 1 -->
<svg width="775pt" height="507pt"
 viewBox="0.00 0.00 775.00 507.00" xmlns="http://www.w3.org/2000/svg" xmlns:xlink="http://www.w3.org/1999/xlink">
<g id="graph0" class="graph" transform="scale(1 1) rotate(0) translate(4 502.5)">
<title>nlohmann::json_schema::json_validator::validate</title>
<!-- Node1 -->
<g id="Node000001" class="node">
<title>Node1</title>
<g id="a_Node000001"><a xlink:title=" ">
<polygon fill="#999999" stroke="#666666" points="766.75,-343.5 630,-343.5 630,-310 766.75,-310 766.75,-343.5"/>
<text xml:space="preserve" text-anchor="start" x="638" y="-330" font-family="Helvetica,sans-Serif" font-size="10.00">nlohmann::json_schema</text>
<text xml:space="preserve" text-anchor="middle" x="698.38" y="-317.25" font-family="Helvetica,sans-Serif" font-size="10.00">::json_validator::validate</text>
</a>
</g>
</g>
<!-- Node2 -->
<g id="Node000002" class="node">
<title>Node2</title>
<g id="a_Node000002"><a xlink:href="classmqtt_1_1bridge_1_1lib_1_1BridgeStore.html#ab8ade196caaa4d233f8dc1625619ed9a" target="_top" xlink:title=" ">
<polygon fill="white" stroke="#666666" points="585.38,-498.5 426.12,-498.5 426.12,-465 585.38,-465 585.38,-498.5"/>
<text xml:space="preserve" text-anchor="start" x="434.12" y="-485" font-family="Helvetica,sans-Serif" font-size="10.00">mqtt::bridge::lib::</text>
<text xml:space="preserve" text-anchor="middle" x="505.75" y="-472.25" font-family="Helvetica,sans-Serif" font-size="10.00">BridgeStore::loadAndValidate</text>
</a>
</g>
</g>
<!-- Node1&#45;&gt;Node2 -->
<g id="edge1_Node000001_Node000002" class="edge">
<title>Node1&#45;&gt;Node2</title>
<g id="a_edge1_Node000001_Node000002"><a xlink:title=" ">
<path fill="none" stroke="#63b8ff" d="M682.8,-353.31C665.4,-382.59 633.61,-429.09 594,-455.75 589.02,-459.1 583.59,-462.03 577.96,-464.59"/>
<polygon fill="#63b8ff" stroke="#63b8ff" points="685.61,-355.44 687.59,-345.03 679.55,-351.94 685.61,-355.44"/>
</a>
</g>
</g>
<!-- Node4 -->
<g id="Node000004" class="node">
<title>Node4</title>
<g id="a_Node000004"><a xlink:href="format_8cpp.html#ae66f6b31b5ad750f1fe042a706a4e3d4" target="_top" xlink:title=" ">
<polygon fill="white" stroke="#666666" points="526.12,-447.12 485.38,-447.12 485.38,-426.38 526.12,-426.38 526.12,-447.12"/>
<text xml:space="preserve" text-anchor="middle" x="505.75" y="-433.62" font-family="Helvetica,sans-Serif" font-size="10.00">main</text>
</a>
</g>
</g>
<!-- Node1&#45;&gt;Node4 -->
<g id="edge3_Node000001_Node000004" class="edge">
<title>Node1&#45;&gt;Node4</title>
<g id="a_edge3_Node000001_Node000004"><a xlink:title=" ">
<path fill="none" stroke="#63b8ff" d="M675.1,-352.09C655.68,-372.58 625.73,-400.6 594,-416.75 572.39,-427.75 544.72,-432.77 526.4,-435.01"/>
<polygon fill="#63b8ff" stroke="#63b8ff" points="677.5,-354.65 681.72,-344.93 672.36,-349.9 677.5,-354.65"/>
</a>
</g>
</g>
<!-- Node5 -->
<g id="Node000005" class="node">
<title>Node5</title>
<g id="a_Node000005"><a xlink:href="issue-189-default-values_8cpp.html#a840291bc02cba5474a4cb46a9b9566fe" target="_top" xlink:title=" ">
<polygon fill="white" stroke="#666666" points="526.12,-408.12 485.38,-408.12 485.38,-387.38 526.12,-387.38 526.12,-408.12"/>
<text xml:space="preserve" text-anchor="middle" x="505.75" y="-394.62" font-family="Helvetica,sans-Serif" font-size="10.00">main</text>
</a>
</g>
</g>
<!-- Node1&#45;&gt;Node5 -->
<g id="edge4_Node000001_Node000005" class="edge">
<title>Node1&#45;&gt;Node5</title>
<g id="a_edge4_Node000001_Node000005"><a xlink:title=" ">
<path fill="none" stroke="#63b8ff" d="M658.36,-349.3C639.43,-359.48 616.05,-370.94 594,-378.75 571.49,-386.72 544.49,-391.97 526.55,-394.9"/>
<polygon fill="#63b8ff" stroke="#63b8ff" points="659.97,-352.41 667.06,-344.54 656.61,-346.27 659.97,-352.41"/>
</a>
</g>
</g>
<!-- Node6 -->
<g id="Node000006" class="node">
<title>Node6</title>
<g id="a_Node000006"><a xlink:href="classmqtt_1_1bridge_1_1lib_1_1BridgeStore.html#ae879b81da1e243039e2354f65553c07c" target="_top" xlink:title=" ">
<polygon fill="white" stroke="#666666" points="558.75,-369.5 452.75,-369.5 452.75,-336 558.75,-336 558.75,-369.5"/>
<text xml:space="preserve" text-anchor="start" x="460.75" y="-356" font-family="Helvetica,sans-Serif" font-size="10.00">mqtt::bridge::lib::</text>
<text xml:space="preserve" text-anchor="middle" x="505.75" y="-343.25" font-family="Helvetica,sans-Serif" font-size="10.00">BridgeStore::patch</text>
</a>
</g>
</g>
<!-- Node1&#45;&gt;Node6 -->
<g id="edge5_Node000001_Node000006" class="edge">
<title>Node1&#45;&gt;Node6</title>
<g id="a_edge5_Node000001_Node000006"><a xlink:title=" ">
<path fill="none" stroke="#63b8ff" d="M618.32,-337.53C598.3,-340.26 577.31,-343.13 558.99,-345.62"/>
<polygon fill="#63b8ff" stroke="#63b8ff" points="618.7,-341.01 628.13,-336.19 617.75,-334.08 618.7,-341.01"/>
</a>
</g>
</g>
<!-- Node7 -->
<g id="Node000007" class="node">
<title>Node7</title>
<g id="a_Node000007"><a xlink:href="classmqtt_1_1lib_1_1MqttMapper.html#a75a86af3b01f2e4b88ab29c1770a25bb" target="_top" xlink:title=" ">
<polygon fill="white" stroke="#666666" points="567,-317.5 444.5,-317.5 444.5,-284 567,-284 567,-317.5"/>
<text xml:space="preserve" text-anchor="start" x="452.5" y="-304" font-family="Helvetica,sans-Serif" font-size="10.00">mqtt::lib::MqttMapper</text>
<text xml:space="preserve" text-anchor="middle" x="505.75" y="-291.25" font-family="Helvetica,sans-Serif" font-size="10.00">::setMapping</text>
</a>
</g>
</g>
<!-- Node1&#45;&gt;Node7 -->
<g id="edge6_Node000001_Node000007" class="edge">
<title>Node1&#45;&gt;Node7</title>
<g id="a_edge6_Node000001_Node000007"><a xlink:title=" ">
<path fill="none" stroke="#63b8ff" d="M618.52,-315.99C601.41,-313.66 583.57,-311.23 567.3,-309.01"/>
<polygon fill="#63b8ff" stroke="#63b8ff" points="617.75,-319.42 628.13,-317.31 618.7,-312.49 617.75,-319.42"/>
</a>
</g>
</g>
<!-- Node12 -->
<g id="Node000012" class="node">
<title>Node12</title>
<g id="a_Node000012"><a xlink:href="namespaceanonymous__namespace_02issue-105-verbose-combination-errors_8cpp_03.html#a5d2fa2fa048e5520dbcbad50438526ad" target="_top" xlink:title=" ">
<polygon fill="white" stroke="#666666" points="594,-213.88 417.5,-213.88 417.5,-167.62 594,-167.62 594,-213.88"/>
<text xml:space="preserve" text-anchor="start" x="425.5" y="-200.38" font-family="Helvetica,sans-Serif" font-size="10.00">anonymous_namespace</text>
<text xml:space="preserve" text-anchor="start" x="425.5" y="-187.62" font-family="Helvetica,sans-Serif" font-size="10.00">{issue&#45;105&#45;verbose&#45;combination</text>
<text xml:space="preserve" text-anchor="middle" x="505.75" y="-174.88" font-family="Helvetica,sans-Serif" font-size="10.00">&#45;errors::cpp}::validate</text>
</a>
</g>
</g>
<!-- Node1&#45;&gt;Node12 -->
<g id="edge11_Node000001_Node000012" class="edge">
<title>Node1&#45;&gt;Node12</title>
<g id="a_edge11_Node000001_Node000012"><a xlink:title=" ">
<path fill="none" stroke="#63b8ff" d="M677.45,-301.07C658.26,-277.84 627.3,-244.09 594,-222.75 589.25,-219.7 584.16,-216.89 578.92,-214.31"/>
<polygon fill="#63b8ff" stroke="#63b8ff" points="674.48,-302.97 683.5,-308.54 679.92,-298.56 674.48,-302.97"/>
</a>
</g>
</g>
<!-- Node16 -->
<g id="Node000016" class="node">
<title>Node16</title>
<g id="a_Node000016"><a xlink:href="classmqtt_1_1lib_1_1MqttMapper.html#a801514c624b0467df9018502f3dca46e" target="_top" xlink:title=" ">
<polygon fill="white" stroke="#666666" points="567,-265.5 444.5,-265.5 444.5,-232 567,-232 567,-265.5"/>
<text xml:space="preserve" text-anchor="start" x="452.5" y="-252" font-family="Helvetica,sans-Serif" font-size="10.00">mqtt::lib::MqttMapper</text>
<text xml:space="preserve" text-anchor="middle" x="505.75" y="-239.25" font-family="Helvetica,sans-Serif" font-size="10.00">::validate</text>
</a>
</g>
</g>
<!-- Node1&#45;&gt;Node16 -->
<g id="edge16_Node000001_Node000016" class="edge">
<title>Node1&#45;&gt;Node16</title>
<g id="a_edge16_Node000001_Node000016"><a xlink:title=" ">
<path fill="none" stroke="#63b8ff" d="M656.84,-304.28C638.08,-294.42 615.27,-283.19 594,-274.75 585.48,-271.37 576.34,-268.18 567.3,-265.28"/>
<polygon fill="#63b8ff" stroke="#63b8ff" points="655.01,-307.26 665.48,-308.88 658.3,-301.09 655.01,-307.26"/>
</a>
</g>
</g>
<!-- Node18 -->
<g id="Node000018" class="node">
<title>Node18</title>
<g id="a_Node000018"><a xlink:href="classnlohmann_1_1json__patch.html#ac7aea9496e07beb821fb9e5423fb76f5" target="_top" xlink:title=" ">
<polygon fill="white" stroke="#666666" points="567.38,-85.5 444.12,-85.5 444.12,-52 567.38,-52 567.38,-85.5"/>
<text xml:space="preserve" text-anchor="start" x="452.12" y="-72" font-family="Helvetica,sans-Serif" font-size="10.00">nlohmann::json_patch</text>
<text xml:space="preserve" text-anchor="middle" x="505.75" y="-59.25" font-family="Helvetica,sans-Serif" font-size="10.00">::validateJsonPatch</text>
</a>
</g>
</g>
<!-- Node1&#45;&gt;Node18 -->
<g id="edge19_Node000001_Node000018" class="edge">
<title>Node1&#45;&gt;Node18</title>
<g id="a_edge19_Node000001_Node000018"><a xlink:title=" ">
<path fill="none" stroke="#63b8ff" d="M683.32,-300.03C664.82,-265.87 630.38,-205.55 594,-158.75 572.76,-131.43 544.25,-103.33 525.69,-85.96"/>
<polygon fill="#63b8ff" stroke="#63b8ff" points="680,-301.25 687.81,-308.41 686.17,-297.95 680,-301.25"/>
</a>
</g>
</g>
<!-- Node3 -->
<g id="Node000003" class="node">
<title>Node3</title>
<g id="a_Node000003"><a xlink:href="mqttbridge_8cpp.html#a0ddf1224851353fc92bfbff6f499fa97" target="_top" xlink:title=" ">
<polygon fill="white" stroke="#666666" points="313.62,-492.12 272.88,-492.12 272.88,-471.38 313.62,-471.38 313.62,-492.12"/>
<text xml:space="preserve" text-anchor="middle" x="293.25" y="-478.62" font-family="Helvetica,sans-Serif" font-size="10.00">main</text>
</a>
</g>
</g>
<!-- Node2&#45;&gt;Node3 -->
<g id="edge2_Node000002_Node000003" class="edge">
<title>Node2&#45;&gt;Node3</title>
<g id="a_edge2_Node000002_Node000003"><a xlink:title=" ">
<path fill="none" stroke="#63b8ff" d="M414.29,-481.75C376.98,-481.75 337.14,-481.75 314.03,-481.75"/>
<polygon fill="#63b8ff" stroke="#63b8ff" points="414.26,-485.25 424.26,-481.75 414.26,-478.25 414.26,-485.25"/>
</a>
</g>
</g>
<!-- Node8 -->
<g id="Node000008" class="node">
<title>Node8</title>
<g id="a_Node000008"><a xlink:href="classmqtt_1_1lib_1_1ConfigApplication.html#a03af16ca63647b5696ac6ff1e803e201" target="_top" xlink:title=" ">
<polygon fill="white" stroke="#666666" points="368,-369.5 218.5,-369.5 218.5,-336 368,-336 368,-369.5"/>
<text xml:space="preserve" text-anchor="start" x="226.5" y="-356" font-family="Helvetica,sans-Serif" font-size="10.00">mqtt::lib::ConfigApplication</text>
<text xml:space="preserve" text-anchor="middle" x="293.25" y="-343.25" font-family="Helvetica,sans-Serif" font-size="10.00">::ConfigApplication</text>
</a>
</g>
</g>
<!-- Node7&#45;&gt;Node8 -->
<g id="edge7_Node000007_Node000008" class="edge">
<title>Node7&#45;&gt;Node8</title>
<g id="a_edge7_Node000007_Node000008"><a xlink:title=" ">
<path fill="none" stroke="#63b8ff" d="M433.06,-318.46C410.77,-323.97 386.23,-330.03 364.07,-335.5"/>
<polygon fill="#63b8ff" stroke="#63b8ff" points="433.81,-321.88 442.68,-316.08 432.13,-315.08 433.81,-321.88"/>
</a>
</g>
</g>
<!-- Node9 -->
<g id="Node000009" class="node">
<title>Node9</title>
<g id="a_Node000009"><a xlink:href="classmqtt_1_1lib_1_1ConfigApplication.html#acc4e1282f8a60972f892a8bf9c7259fe" target="_top" xlink:title=" ">
<polygon fill="white" stroke="#666666" points="368,-317.5 218.5,-317.5 218.5,-284 368,-284 368,-317.5"/>
<text xml:space="preserve" text-anchor="start" x="226.5" y="-304" font-family="Helvetica,sans-Serif" font-size="10.00">mqtt::lib::ConfigApplication</text>
<text xml:space="preserve" text-anchor="middle" x="293.25" y="-291.25" font-family="Helvetica,sans-Serif" font-size="10.00">::setMapping</text>
</a>
</g>
</g>
<!-- Node7&#45;&gt;Node9 -->
<g id="edge8_Node000007_Node000009" class="edge">
<title>Node7&#45;&gt;Node9</title>
<g id="a_edge8_Node000007_Node000009"><a xlink:title=" ">
<path fill="none" stroke="#63b8ff" d="M432.8,-300.75C411.97,-300.75 389.2,-300.75 368.24,-300.75"/>
<polygon fill="#63b8ff" stroke="#63b8ff" points="432.63,-304.25 442.63,-300.75 432.63,-297.25 432.63,-304.25"/>
</a>
</g>
</g>
<!-- Node10 -->
<g id="Node000010" class="node">
<title>Node10</title>
<g id="a_Node000010"><a xlink:href="namespacemqtt_1_1lib_1_1admin.html#a4f7e70f5f0447050e4a1f47eff271811" target="_top" xlink:title=" ">
<polygon fill="white" stroke="#666666" points="169,-265.5 0,-265.5 0,-232 169,-232 169,-265.5"/>
<text xml:space="preserve" text-anchor="start" x="8" y="-252" font-family="Helvetica,sans-Serif" font-size="10.00">mqtt::lib::admin::makeMapping</text>
<text xml:space="preserve" text-anchor="middle" x="84.5" y="-239.25" font-family="Helvetica,sans-Serif" font-size="10.00">AdminRouter</text>
</a>
</g>
</g>
<!-- Node9&#45;&gt;Node10 -->
<g id="edge9_Node000009_Node000010" class="edge">
<title>Node9&#45;&gt;Node10</title>
<g id="a_edge9_Node000009_Node000010"><a xlink:title=" ">
<path fill="none" stroke="#63b8ff" d="M212.73,-280.75C193.32,-275.87 172.72,-270.69 153.87,-265.95"/>
<polygon fill="#63b8ff" stroke="#63b8ff" points="211.67,-284.09 222.22,-283.14 213.38,-277.3 211.67,-284.09"/>
</a>
</g>
</g>
<!-- Node11 -->
<g id="Node000011" class="node">
<title>Node11</title>
<g id="a_Node000011"><a xlink:href="classmqtt_1_1lib_1_1ConfigApplication.html#a6efe0870e795237bb9a142ce388626f7" target="_top" xlink:title=" ">
<polygon fill="white" stroke="#666666" points="159.25,-317.5 9.75,-317.5 9.75,-284 159.25,-284 159.25,-317.5"/>
<text xml:space="preserve" text-anchor="start" x="17.75" y="-304" font-family="Helvetica,sans-Serif" font-size="10.00">mqtt::lib::ConfigApplication</text>
<text xml:space="preserve" text-anchor="middle" x="84.5" y="-291.25" font-family="Helvetica,sans-Serif" font-size="10.00">::setMappingFile</text>
</a>
</g>
</g>
<!-- Node9&#45;&gt;Node11 -->
<g id="edge10_Node000009_Node000011" class="edge">
<title>Node9&#45;&gt;Node11</title>
<g id="a_edge10_Node000009_Node000011"><a xlink:title=" ">
<path fill="none" stroke="#63b8ff" d="M206.91,-300.75C191.26,-300.75 175.03,-300.75 159.74,-300.75"/>
<polygon fill="#63b8ff" stroke="#63b8ff" points="206.68,-304.25 216.68,-300.75 206.68,-297.25 206.68,-304.25"/>
</a>
</g>
</g>
<!-- Node13 -->
<g id="Node000013" class="node">
<title>Node13</title>
<g id="a_Node000013"><a xlink:href="namespaceanonymous__namespace_02issue-105-verbose-combination-errors_8cpp_03.html#a4b7578a08dda4165bf9c386de4bc2bed" target="_top" xlink:title=" ">
<polygon fill="white" stroke="#666666" points="381.5,-149.88 205,-149.88 205,-103.62 381.5,-103.62 381.5,-149.88"/>
<text xml:space="preserve" text-anchor="start" x="213" y="-136.38" font-family="Helvetica,sans-Serif" font-size="10.00">anonymous_namespace</text>
<text xml:space="preserve" text-anchor="start" x="213" y="-123.62" font-family="Helvetica,sans-Serif" font-size="10.00">{issue&#45;105&#45;verbose&#45;combination</text>
<text xml:space="preserve" text-anchor="middle" x="293.25" y="-110.88" font-family="Helvetica,sans-Serif" font-size="10.00">&#45;errors::cpp}::simpleTest</text>
</a>
</g>
</g>
<!-- Node12&#45;&gt;Node13 -->
<g id="edge12_Node000012_Node000013" class="edge">
<title>Node12&#45;&gt;Node13</title>
<g id="a_edge12_Node000012_Node000013"><a xlink:title=" ">
<path fill="none" stroke="#63b8ff" d="M416.57,-163.94C401.75,-159.43 386.46,-154.78 371.92,-150.37"/>
<polygon fill="#63b8ff" stroke="#63b8ff" points="415.23,-167.19 425.82,-166.75 417.27,-160.49 415.23,-167.19"/>
</a>
</g>
</g>
<!-- Node15 -->
<g id="Node000015" class="node">
<title>Node15</title>
<g id="a_Node000015"><a xlink:href="namespaceanonymous__namespace_02issue-105-verbose-combination-errors_8cpp_03.html#a6c5072c56623259eab0124fc223a4bfc" target="_top" xlink:title=" ">
<polygon fill="white" stroke="#666666" points="381.5,-213.88 205,-213.88 205,-167.62 381.5,-167.62 381.5,-213.88"/>
<text xml:space="preserve" text-anchor="start" x="213" y="-200.38" font-family="Helvetica,sans-Serif" font-size="10.00">anonymous_namespace</text>
<text xml:space="preserve" text-anchor="start" x="213" y="-187.62" font-family="Helvetica,sans-Serif" font-size="10.00">{issue&#45;105&#45;verbose&#45;combination</text>
<text xml:space="preserve" text-anchor="middle" x="293.25" y="-174.88" font-family="Helvetica,sans-Serif" font-size="10.00">&#45;errors::cpp}::verboseTest</text>
</a>
</g>
</g>
<!-- Node12&#45;&gt;Node15 -->
<g id="edge14_Node000012_Node000015" class="edge">
<title>Node12&#45;&gt;Node15</title>
<g id="a_edge14_Node000012_Node000015"><a xlink:title=" ">
<path fill="none" stroke="#63b8ff" d="M405.49,-190.75C397.6,-190.75 389.66,-190.75 381.85,-190.75"/>
<polygon fill="#63b8ff" stroke="#63b8ff" points="405.49,-194.25 415.49,-190.75 405.49,-187.25 405.49,-194.25"/>
</a>
</g>
</g>
<!-- Node14 -->
<g id="Node000014" class="node">
<title>Node14</title>
<g id="a_Node000014"><a xlink:href="issue-105-verbose-combination-errors_8cpp.html#a8216c1645620cdb2f629cde3ac02ffef" target="_top" xlink:title=" ">
<polygon fill="white" stroke="#666666" points="104.88,-169.12 64.12,-169.12 64.12,-148.38 104.88,-148.38 104.88,-169.12"/>
<text xml:space="preserve" text-anchor="middle" x="84.5" y="-155.62" font-family="Helvetica,sans-Serif" font-size="10.00">main</text>
</a>
</g>
</g>
<!-- Node13&#45;&gt;Node14 -->
<g id="edge13_Node000013_Node000014" class="edge">
<title>Node13&#45;&gt;Node14</title>
<g id="a_edge13_Node000013_Node000014"><a xlink:title=" ">
<path fill="none" stroke="#63b8ff" d="M193.31,-142.06C159.96,-147.22 126,-152.48 105.34,-155.68"/>
<polygon fill="#63b8ff" stroke="#63b8ff" points="193.73,-145.54 203.07,-140.55 192.66,-138.62 193.73,-145.54"/>
</a>
</g>
</g>
<!-- Node15&#45;&gt;Node14 -->
<g id="edge15_Node000015_Node000014" class="edge">
<title>Node15&#45;&gt;Node14</title>
<g id="a_edge15_Node000015_Node000014"><a xlink:title=" ">
<path fill="none" stroke="#63b8ff" d="M193.31,-175.44C159.96,-170.28 126,-165.02 105.34,-161.82"/>
<polygon fill="#63b8ff" stroke="#63b8ff" points="192.66,-178.88 203.07,-176.95 193.73,-171.96 192.66,-178.88"/>
</a>
</g>
</g>
<!-- Node17 -->
<g id="Node000017" class="node">
<title>Node17</title>
<g id="a_Node000017"><a xlink:href="classmqtt_1_1lib_1_1JsonMappingReader.html#a0af761ff8c2b92bdd3111c573f633e99" target="_top" xlink:title=" ">
<polygon fill="white" stroke="#666666" points="373.25,-265.5 213.25,-265.5 213.25,-232 373.25,-232 373.25,-265.5"/>
<text xml:space="preserve" text-anchor="start" x="221.25" y="-252" font-family="Helvetica,sans-Serif" font-size="10.00">mqtt::lib::JsonMappingReader</text>
<text xml:space="preserve" text-anchor="middle" x="293.25" y="-239.25" font-family="Helvetica,sans-Serif" font-size="10.00">::rollbackTo</text>
</a>
</g>
</g>
<!-- Node16&#45;&gt;Node17 -->
<g id="edge17_Node000016_Node000017" class="edge">
<title>Node16&#45;&gt;Node17</title>
<g id="a_edge17_Node000016_Node000017"><a xlink:title=" ">
<path fill="none" stroke="#63b8ff" d="M432.82,-248.75C413.76,-248.75 393.07,-248.75 373.63,-248.75"/>
<polygon fill="#63b8ff" stroke="#63b8ff" points="432.63,-252.25 442.63,-248.75 432.63,-245.25 432.63,-252.25"/>
</a>
</g>
</g>
<!-- Node17&#45;&gt;Node10 -->
<g id="edge18_Node000017_Node000010" class="edge">
<title>Node17&#45;&gt;Node10</title>
<g id="a_edge18_Node000017_Node000010"><a xlink:title=" ">
<path fill="none" stroke="#63b8ff" d="M201.45,-248.75C190.8,-248.75 179.98,-248.75 169.43,-248.75"/>
<polygon fill="#63b8ff" stroke="#63b8ff" points="201.39,-252.25 211.39,-248.75 201.39,-245.25 201.39,-252.25"/>
</a>
</g>
</g>
<!-- Node19 -->
<g id="Node000019" class="node">
<title>Node19</title>
<g id="a_Node000019"><a xlink:href="classnlohmann_1_1json__patch.html#ae61d410c3afe7cf9b7a9589819e8f94a" target="_top" xlink:title=" ">
<polygon fill="white" stroke="#666666" points="354.88,-85.5 231.62,-85.5 231.62,-52 354.88,-52 354.88,-85.5"/>
<text xml:space="preserve" text-anchor="start" x="239.62" y="-72" font-family="Helvetica,sans-Serif" font-size="10.00">nlohmann::json_patch</text>
<text xml:space="preserve" text-anchor="middle" x="293.25" y="-59.25" font-family="Helvetica,sans-Serif" font-size="10.00">::json_patch</text>
</a>
</g>
</g>
<!-- Node18&#45;&gt;Node19 -->
<g id="edge20_Node000018_Node000019" class="edge">
<title>Node18&#45;&gt;Node19</title>
<g id="a_edge20_Node000018_Node000019"><a xlink:title=" ">
<path fill="none" stroke="#63b8ff" d="M432.54,-68.75C407.42,-68.75 379.5,-68.75 355.36,-68.75"/>
<polygon fill="#63b8ff" stroke="#63b8ff" points="432.35,-72.25 442.35,-68.75 432.35,-65.25 432.35,-72.25"/>
</a>
</g>
</g>
<!-- Node20 -->
<g id="Node000020" class="node">
<title>Node20</title>
<g id="a_Node000020"><a xlink:href="classnlohmann_1_1json__patch.html#a9ed4f8e610b70b973f9fd59696d5c10b" target="_top" xlink:title=" ">
<polygon fill="white" stroke="#666666" points="354.88,-33.5 231.62,-33.5 231.62,0 354.88,0 354.88,-33.5"/>
<text xml:space="preserve" text-anchor="start" x="239.62" y="-20" font-family="Helvetica,sans-Serif" font-size="10.00">nlohmann::json_patch</text>
<text xml:space="preserve" text-anchor="middle" x="293.25" y="-7.25" font-family="Helvetica,sans-Serif" font-size="10.00">::json_patch</text>
</a>
</g>
</g>
<!-- Node18&#45;&gt;Node20 -->
<g id="edge21_Node000018_Node000020" class="edge">
<title>Node18&#45;&gt;Node20</title>
<g id="a_edge21_Node000018_Node000020"><a xlink:title=" ">
<path fill="none" stroke="#63b8ff" d="M432.88,-51C407.67,-44.77 379.61,-37.84 355.36,-31.85"/>
<polygon fill="#63b8ff" stroke="#63b8ff" points="431.85,-54.35 442.4,-53.35 433.53,-47.55 431.85,-54.35"/>
</a>
</g>
</g>
<!-- Node21 -->
<g id="Node000021" class="node">
<title>Node21</title>
<g id="a_Node000021"><a xlink:href="test_2json-patch_8cpp.html#a840291bc02cba5474a4cb46a9b9566fe" target="_top" xlink:title=" ">
<polygon fill="white" stroke="#666666" points="104.88,-27.12 64.12,-27.12 64.12,-6.38 104.88,-6.38 104.88,-27.12"/>
<text xml:space="preserve" text-anchor="middle" x="84.5" y="-13.62" font-family="Helvetica,sans-Serif" font-size="10.00">main</text>
</a>
</g>
</g>
<!-- Node20&#45;&gt;Node21 -->
<g id="edge22_Node000020_Node000021" class="edge">
<title>Node20&#45;&gt;Node21</title>
<g id="a_edge22_Node000020_Node000021"><a xlink:title=" ">
<path fill="none" stroke="#63b8ff" d="M220.04,-16.75C179.25,-16.75 131.31,-16.75 105.09,-16.75"/>
<polygon fill="#63b8ff" stroke="#63b8ff" points="219.82,-20.25 229.82,-16.75 219.82,-13.25 219.82,-20.25"/>
</a>
</g>
</g>
</g>
</svg>
