<?xml version="1.0" encoding="UTF-8" standalone="no"?>
<!DOCTYPE svg PUBLIC "-//W3C//DTD SVG 1.1//EN"
 "http://www.w3.org/Graphics/SVG/1.1/DTD/svg11.dtd">
<!-- Generated by graphviz version 14.1.2 (0)
 -->
<!-- Title: mqtt::bridge::lib::SSEDistributor::bridgesStarting Pages: 1 -->
<!--zoomable 141 -->

<svg id="main" version="1.1" xmlns="http://www.w3.org/2000/svg" xmlns:xlink="http://www.w3.org/1999/xlink" xml:space="preserve" onload="init(evt)">

<style type="text/css"><![CDATA[
.node, .edge {opacity: 0.7;}
.node.selected, .edge.selected {opacity: 1;}
.edge:hover path { stroke: red; }
.edge:hover polygon { stroke: red; fill: red; }
]]></style>

<defs>
  <circle id="rim" cx="0" cy="0" r="7"/>
  <circle id="rim2" cx="0" cy="0" r="3.5"/>
  <g id="zoomPlus">
    <use xlink:href="#rim" fill="#404040"><set attributeName="fill" to="#808080" begin="zoomplus.mouseover" end="zoomplus.mouseout"/></use>
    <path d="M-4,0h8M0,-4v8" fill="none" stroke="white" stroke-width="1.5" pointer-events="none"/>
  </g>
  <g id="zoomMin">
    <use xlink:href="#rim" fill="#404040"><set attributeName="fill" to="#808080" begin="zoomminus.mouseover" end="zoomminus.mouseout"/></use>
    <path d="M-4,0h8" fill="none" stroke="white" stroke-width="1.5" pointer-events="none"/>
  </g>
  <g id="arrowUp" transform="translate(30 24)">
    <use xlink:href="#rim"/>
    <path pointer-events="none" fill="none" stroke="white" stroke-width="1.5" d="M0,-3.0v7 M-2.5,-0.5L0,-3.0L2.5,-0.5"/>
  </g>
  <g id="arrowRight" transform="rotate(90) translate(36 -43)">
    <use xlink:href="#rim"/>
    <path pointer-events="none" fill="none" stroke="white" stroke-width="1.5" d="M0,-3.0v7 M-2.5,-0.5L0,-3.0L2.5,-0.5"/>
  </g>
  <g id="arrowDown" transform="rotate(180) translate(-30 -48)">
    <use xlink:href="#rim"/>
    <path pointer-events="none" fill="none" stroke="white" stroke-width="1.5" d="M0,-3.0v7 M-2.5,-0.5L0,-3.0L2.5,-0.5"/>
  </g>
  <g id="arrowLeft" transform="rotate(270) translate(-36 17)">
    <use xlink:href="#rim"/>
    <path pointer-events="none" fill="none" stroke="white" stroke-width="1.5" d="M0,-3.0v7 M-2.5,-0.5L0,-3.0L2.5,-0.5"/>
  </g>
  <g id="resetDef">
    <use xlink:href="#rim2" fill="#404040"><set attributeName="fill" to="#808080" begin="reset.mouseover" end="reset.mouseout"/></use>
  </g>
</defs>
<script type="application/ecmascript">
var viewWidth = 750;
var viewHeight = 141;
var sectionId = 'dynsection-7';
</script>
<script type="application/ecmascript" xlink:href="svg.min.js"/>
<svg id="graph" class="graph">
<g id="viewport">
<title>mqtt::bridge::lib::SSEDistributor::bridgesStarting</title>
<!-- Node1 -->
<g id="Node000001" class="node">
<title>Node1</title>
<g id="a_Node000001"><a xlink:title=" ">
<polygon fill="#999999" stroke="#666666" points="166,-68.88 0,-68.88 0,-35.38 166,-35.38 166,-68.88"/>
<text xml:space="preserve" text-anchor="start" x="8" y="-55.38" font-family="Helvetica,sans-Serif" font-size="10.00">mqtt::bridge::lib::</text>
<text xml:space="preserve" text-anchor="middle" x="83" y="-42.62" font-family="Helvetica,sans-Serif" font-size="10.00">SSEDistributor::bridgesStarting</text>
</a>
</g>
</g>
<!-- Node2 -->
<g id="Node000002" class="node">
<title>Node2</title>
<g id="a_Node000002"><a xlink:href="classmqtt_1_1bridge_1_1lib_1_1SSEDistributor.html#ae352efe457441f0669d10132f46b514e" target="_top" xlink:title=" ">
<polygon fill="white" stroke="#666666" points="365,-97.88 202,-97.88 202,-64.38 365,-64.38 365,-97.88"/>
<text xml:space="preserve" text-anchor="start" x="210" y="-84.38" font-family="Helvetica,sans-Serif" font-size="10.00">mqtt::bridge::lib::</text>
<text xml:space="preserve" text-anchor="middle" x="283.5" y="-71.62" font-family="Helvetica,sans-Serif" font-size="10.00">SSEDistributor::sendJsonEvent</text>
</a>
</g>
</g>
<!-- Node1&#45;&gt;Node2 -->
<g id="edge1_Node000001_Node000002" class="edge">
<title>Node1&#45;&gt;Node2</title>
<g id="a_edge1_Node000001_Node000002"><a xlink:title=" ">
<path fill="none" stroke="#63b8ff" d="M166.46,-64.17C174.35,-65.32 182.39,-66.5 190.36,-67.66"/>
<polygon fill="#63b8ff" stroke="#63b8ff" points="189.68,-71.1 200.08,-69.08 190.69,-64.17 189.68,-71.1"/>
</a>
</g>
</g>
<!-- Node6 -->
<g id="Node000006" class="node">
<title>Node6</title>
<g id="a_Node000006"><a xlink:href="classmqtt_1_1bridge_1_1lib_1_1SSEDistributor.html#ae175f78eb030a996687f4606171418f6" target="_top" xlink:title=" ">
<polygon fill="white" stroke="#666666" points="358.25,-46.25 208.75,-46.25 208.75,0 358.25,0 358.25,-46.25"/>
<text xml:space="preserve" text-anchor="start" x="216.75" y="-32.75" font-family="Helvetica,sans-Serif" font-size="10.00">mqtt::bridge::lib::</text>
<text xml:space="preserve" text-anchor="start" x="216.75" y="-20" font-family="Helvetica,sans-Serif" font-size="10.00">SSEDistributor::timePointTo</text>
<text xml:space="preserve" text-anchor="middle" x="283.5" y="-7.25" font-family="Helvetica,sans-Serif" font-size="10.00">String</text>
</a>
</g>
</g>
<!-- Node1&#45;&gt;Node6 -->
<g id="edge5_Node000001_Node000006" class="edge">
<title>Node1&#45;&gt;Node6</title>
<g id="a_edge5_Node000001_Node000006"><a xlink:title=" ">
<path fill="none" stroke="#63b8ff" d="M166.46,-40.08C176.6,-38.6 186.98,-37.08 197.16,-35.59"/>
<polygon fill="#63b8ff" stroke="#63b8ff" points="197.65,-39.06 207.04,-34.15 196.64,-32.13 197.65,-39.06"/>
</a>
</g>
</g>
<!-- Node3 -->
<g id="Node000003" class="node">
<title>Node3</title>
<g id="a_Node000003"><a xlink:href="classmqtt_1_1bridge_1_1lib_1_1SSEDistributor.html#a33c28a238f0853d09effb76ed6c49d45" target="_top" xlink:title=" ">
<polygon fill="white" stroke="#666666" points="543.75,-97.88 401,-97.88 401,-64.38 543.75,-64.38 543.75,-97.88"/>
<text xml:space="preserve" text-anchor="start" x="409" y="-84.38" font-family="Helvetica,sans-Serif" font-size="10.00">mqtt::bridge::lib::</text>
<text xml:space="preserve" text-anchor="middle" x="472.38" y="-71.62" font-family="Helvetica,sans-Serif" font-size="10.00">SSEDistributor::sendEvent</text>
</a>
</g>
</g>
<!-- Node2&#45;&gt;Node3 -->
<g id="edge2_Node000002_Node000003" class="edge">
<title>Node2&#45;&gt;Node3</title>
<g id="a_edge2_Node000002_Node000003"><a xlink:title=" ">
<path fill="none" stroke="#63b8ff" d="M365.38,-81.12C373.27,-81.12 381.27,-81.12 389.17,-81.12"/>
<polygon fill="#63b8ff" stroke="#63b8ff" points="389.13,-84.63 399.13,-81.13 389.13,-77.63 389.13,-84.63"/>
</a>
</g>
</g>
<!-- Node4 -->
<g id="Node000004" class="node">
<title>Node4</title>
<g id="a_Node000004"><a xlink:href="classmqtt_1_1bridge_1_1lib_1_1SSEDistributor_1_1EventReceiver.html#ab7cf8f80c46f3ef696bf07dcb779255c" target="_top" xlink:title=" ">
<polygon fill="white" stroke="#666666" points="742,-133.25 579.75,-133.25 579.75,-87 742,-87 742,-133.25"/>
<text xml:space="preserve" text-anchor="start" x="587.75" y="-119.75" font-family="Helvetica,sans-Serif" font-size="10.00">mqtt::bridge::lib::</text>
<text xml:space="preserve" text-anchor="start" x="587.75" y="-107" font-family="Helvetica,sans-Serif" font-size="10.00">SSEDistributor::EventReceiver</text>
<text xml:space="preserve" text-anchor="middle" x="660.88" y="-94.25" font-family="Helvetica,sans-Serif" font-size="10.00">::getResponse</text>
</a>
</g>
</g>
<!-- Node3&#45;&gt;Node4 -->
<g id="edge3_Node000003_Node000004" class="edge">
<title>Node3&#45;&gt;Node4</title>
<g id="a_edge3_Node000003_Node000004"><a xlink:title=" ">
<path fill="none" stroke="#63b8ff" d="M544.15,-92.13C551.99,-93.35 560.06,-94.6 568.12,-95.86"/>
<polygon fill="#63b8ff" stroke="#63b8ff" points="567.56,-99.31 577.98,-97.39 568.63,-92.39 567.56,-99.31"/>
</a>
</g>
</g>
<!-- Node5 -->
<g id="Node000005" class="node">
<title>Node5</title>
<g id="a_Node000005"><a xlink:href="classmqtt_1_1bridge_1_1lib_1_1SSEDistributor.html#a9f5043f5f0189719413e23c74b3a55c2" target="_top" xlink:title=" ">
<polygon fill="white" stroke="#666666" points="732.25,-68.88 589.5,-68.88 589.5,-35.38 732.25,-35.38 732.25,-68.88"/>
<text xml:space="preserve" text-anchor="start" x="597.5" y="-55.38" font-family="Helvetica,sans-Serif" font-size="10.00">mqtt::bridge::lib::</text>
<text xml:space="preserve" text-anchor="middle" x="660.88" y="-42.62" font-family="Helvetica,sans-Serif" font-size="10.00">SSEDistributor::sendEvent</text>
</a>
</g>
</g>
<!-- Node3&#45;&gt;Node5 -->
<g id="edge4_Node000003_Node000005" class="edge">
<title>Node3&#45;&gt;Node5</title>
<g id="a_edge4_Node000003_Node000005"><a xlink:title=" ">
<path fill="none" stroke="#63b8ff" d="M544.15,-70.12C555.2,-68.4 566.7,-66.61 577.97,-64.86"/>
<polygon fill="#63b8ff" stroke="#63b8ff" points="578.31,-68.35 587.65,-63.36 577.24,-61.43 578.31,-68.35"/>
</a>
</g>
</g>
</g>
</svg>

<g id="navigator" transform="translate(0 0)" fill="#404254">
  <rect fill="#f2f5e9" fill-opacity="0.5" stroke="#606060" stroke-width=".5" x="0" y="0" width="60" height="60"/>
  <use id="zoomplus" xlink:href="#zoomPlus" x="17" y="9" onmousedown="handleZoom(evt,'in')"/>
  <use id="zoomminus" xlink:href="#zoomMin" x="42" y="9" onmousedown="handleZoom(evt,'out')"/>
  <use id="reset" xlink:href="#resetDef" x="30" y="36" onmousedown="handleReset()"/>
   <use id="arrowup" xlink:href="#arrowUp" x="0" y="0" onmousedown="handlePan(0,-1)"/>
  <use id="arrowright" xlink:href="#arrowRight" x="0" y="0" onmousedown="handlePan(1,0)"/>
  <use id="arrowdown" xlink:href="#arrowDown" x="0" y="0" onmousedown="handlePan(0,1)"/>
  <use id="arrowleft" xlink:href="#arrowLeft" x="0" y="0" onmousedown="handlePan(-1,0)"/>
</g>
<svg viewBox="0 0 15 15" width="100%" height="30px" preserveAspectRatio="xMaxYMin meet">
 <g id="arrow_out" transform="scale(0.3 0.3)">
  <a xlink:href="classmqtt_1_1bridge_1_1lib_1_1SSEDistributor_a2b97b3e1b7139a536dc1d9a7192bb9de_cgraph_org.svg" target="_base">
   <rect id="button" ry="5" rx="5" y="6" x="6" height="38" width="38"
        fill="#f2f5e9" fill-opacity="0.5" stroke="#606060" stroke-width="1.0"/>
   <path id="arrow"
     d="M 11.500037,31.436501 C 11.940474,20.09759 22.043105,11.32322 32.158766,21.979434 L 37.068811,17.246167 C 37.068811,17.246167 37.088388,32 37.088388,32 L 22.160133,31.978069 C 22.160133,31.978069 26.997745,27.140456 26.997745,27.140456 C 18.528582,18.264221 13.291696,25.230495 11.500037,31.436501 z"
     style="fill:#404040;"/>
  </a>
 </g>
</svg>

<style type='text/css'>
<![CDATA[
[data-mouse-over-selected='false'] { opacity: 0.7; }
[data-mouse-over-selected='true']  { opacity: 1.0; }
]]>
</style>
<script type="application/ecmascript"><![CDATA[
document.addEventListener('DOMContentLoaded', (event) => {
  highlightEdges();
  highlightAdjacentNodes();
});
]]></script>
</svg>
