<?xml version="1.0" encoding="UTF-8" standalone="no"?>
<!DOCTYPE svg PUBLIC "-//W3C//DTD SVG 1.1//EN"
 "http://www.w3.org/Graphics/SVG/1.1/DTD/svg11.dtd">
<!-- Generated by graphviz version 14.1.2 (0)
 -->
<!-- Title: mqtt::bridge::lib::SSEDistributor::bridgesStopping Pages: 1 -->
<svg width="755pt" height="141pt"
 viewBox="0.00 0.00 755.00 141.00" xmlns="http://www.w3.org/2000/svg" xmlns:xlink="http://www.w3.org/1999/xlink">
<g id="graph0" class="graph" transform="scale(1 1) rotate(0) translate(4 137.25)">
<title>mqtt::bridge::lib::SSEDistributor::bridgesStopping</title>
<!-- Node1 -->
<g id="Node000001" class="node">
<title>Node1</title>
<g id="a_Node000001"><a xlink:title=" ">
<polygon fill="#999999" stroke="#666666" points="170.5,-68.88 0,-68.88 0,-35.38 170.5,-35.38 170.5,-68.88"/>
<text xml:space="preserve" text-anchor="start" x="8" y="-55.38" font-family="Helvetica,sans-Serif" font-size="10.00">mqtt::bridge::lib::</text>
<text xml:space="preserve" text-anchor="middle" x="85.25" y="-42.62" font-family="Helvetica,sans-Serif" font-size="10.00">SSEDistributor::bridgesStopping</text>
</a>
</g>
</g>
<!-- Node2 -->
<g id="Node000002" class="node">
<title>Node2</title>
<g id="a_Node000002"><a xlink:href="classmqtt_1_1bridge_1_1lib_1_1SSEDistributor.html#ae352efe457441f0669d10132f46b514e" target="_top" xlink:title=" ">
<polygon fill="white" stroke="#666666" points="369.5,-97.88 206.5,-97.88 206.5,-64.38 369.5,-64.38 369.5,-97.88"/>
<text xml:space="preserve" text-anchor="start" x="214.5" y="-84.38" font-family="Helvetica,sans-Serif" font-size="10.00">mqtt::bridge::lib::</text>
<text xml:space="preserve" text-anchor="middle" x="288" y="-71.62" font-family="Helvetica,sans-Serif" font-size="10.00">SSEDistributor::sendJsonEvent</text>
</a>
</g>
</g>
<!-- Node1&#45;&gt;Node2 -->
<g id="edge1_Node000001_Node000002" class="edge">
<title>Node1&#45;&gt;Node2</title>
<g id="a_edge1_Node000001_Node000002"><a xlink:title=" ">
<path fill="none" stroke="#63b8ff" d="M170.8,-64.34C178.74,-65.49 186.82,-66.65 194.82,-67.81"/>
<polygon fill="#63b8ff" stroke="#63b8ff" points="194.17,-71.25 204.57,-69.22 195.17,-64.32 194.17,-71.25"/>
</a>
</g>
</g>
<!-- Node6 -->
<g id="Node000006" class="node">
<title>Node6</title>
<g id="a_Node000006"><a xlink:href="classmqtt_1_1bridge_1_1lib_1_1SSEDistributor.html#ae175f78eb030a996687f4606171418f6" target="_top" xlink:title=" ">
<polygon fill="white" stroke="#666666" points="362.75,-46.25 213.25,-46.25 213.25,0 362.75,0 362.75,-46.25"/>
<text xml:space="preserve" text-anchor="start" x="221.25" y="-32.75" font-family="Helvetica,sans-Serif" font-size="10.00">mqtt::bridge::lib::</text>
<text xml:space="preserve" text-anchor="start" x="221.25" y="-20" font-family="Helvetica,sans-Serif" font-size="10.00">SSEDistributor::timePointTo</text>
<text xml:space="preserve" text-anchor="middle" x="288" y="-7.25" font-family="Helvetica,sans-Serif" font-size="10.00">String</text>
</a>
</g>
</g>
<!-- Node1&#45;&gt;Node6 -->
<g id="edge5_Node000001_Node000006" class="edge">
<title>Node1&#45;&gt;Node6</title>
<g id="a_edge5_Node000001_Node000006"><a xlink:title=" ">
<path fill="none" stroke="#63b8ff" d="M170.8,-39.91C181.11,-38.42 191.65,-36.9 201.97,-35.41"/>
<polygon fill="#63b8ff" stroke="#63b8ff" points="202.16,-38.92 211.55,-34.02 201.16,-31.99 202.16,-38.92"/>
</a>
</g>
</g>
<!-- Node3 -->
<g id="Node000003" class="node">
<title>Node3</title>
<g id="a_Node000003"><a xlink:href="classmqtt_1_1bridge_1_1lib_1_1SSEDistributor.html#a33c28a238f0853d09effb76ed6c49d45" target="_top" xlink:title=" ">
<polygon fill="white" stroke="#666666" points="548.25,-97.88 405.5,-97.88 405.5,-64.38 548.25,-64.38 548.25,-97.88"/>
<text xml:space="preserve" text-anchor="start" x="413.5" y="-84.38" font-family="Helvetica,sans-Serif" font-size="10.00">mqtt::bridge::lib::</text>
<text xml:space="preserve" text-anchor="middle" x="476.88" y="-71.62" font-family="Helvetica,sans-Serif" font-size="10.00">SSEDistributor::sendEvent</text>
</a>
</g>
</g>
<!-- Node2&#45;&gt;Node3 -->
<g id="edge2_Node000002_Node000003" class="edge">
<title>Node2&#45;&gt;Node3</title>
<g id="a_edge2_Node000002_Node000003"><a xlink:title=" ">
<path fill="none" stroke="#63b8ff" d="M369.88,-81.12C377.77,-81.12 385.77,-81.12 393.67,-81.12"/>
<polygon fill="#63b8ff" stroke="#63b8ff" points="393.63,-84.63 403.63,-81.13 393.63,-77.63 393.63,-84.63"/>
</a>
</g>
</g>
<!-- Node4 -->
<g id="Node000004" class="node">
<title>Node4</title>
<g id="a_Node000004"><a xlink:href="classmqtt_1_1bridge_1_1lib_1_1SSEDistributor_1_1EventReceiver.html#ab7cf8f80c46f3ef696bf07dcb779255c" target="_top" xlink:title=" ">
<polygon fill="white" stroke="#666666" points="746.5,-133.25 584.25,-133.25 584.25,-87 746.5,-87 746.5,-133.25"/>
<text xml:space="preserve" text-anchor="start" x="592.25" y="-119.75" font-family="Helvetica,sans-Serif" font-size="10.00">mqtt::bridge::lib::</text>
<text xml:space="preserve" text-anchor="start" x="592.25" y="-107" font-family="Helvetica,sans-Serif" font-size="10.00">SSEDistributor::EventReceiver</text>
<text xml:space="preserve" text-anchor="middle" x="665.38" y="-94.25" font-family="Helvetica,sans-Serif" font-size="10.00">::getResponse</text>
</a>
</g>
</g>
<!-- Node3&#45;&gt;Node4 -->
<g id="edge3_Node000003_Node000004" class="edge">
<title>Node3&#45;&gt;Node4</title>
<g id="a_edge3_Node000003_Node000004"><a xlink:title=" ">
<path fill="none" stroke="#63b8ff" d="M548.65,-92.13C556.49,-93.35 564.56,-94.6 572.62,-95.86"/>
<polygon fill="#63b8ff" stroke="#63b8ff" points="572.06,-99.31 582.48,-97.39 573.13,-92.39 572.06,-99.31"/>
</a>
</g>
</g>
<!-- Node5 -->
<g id="Node000005" class="node">
<title>Node5</title>
<g id="a_Node000005"><a xlink:href="classmqtt_1_1bridge_1_1lib_1_1SSEDistributor.html#a9f5043f5f0189719413e23c74b3a55c2" target="_top" xlink:title=" ">
<polygon fill="white" stroke="#666666" points="736.75,-68.88 594,-68.88 594,-35.38 736.75,-35.38 736.75,-68.88"/>
<text xml:space="preserve" text-anchor="start" x="602" y="-55.38" font-family="Helvetica,sans-Serif" font-size="10.00">mqtt::bridge::lib::</text>
<text xml:space="preserve" text-anchor="middle" x="665.38" y="-42.62" font-family="Helvetica,sans-Serif" font-size="10.00">SSEDistributor::sendEvent</text>
</a>
</g>
</g>
<!-- Node3&#45;&gt;Node5 -->
<g id="edge4_Node000003_Node000005" class="edge">
<title>Node3&#45;&gt;Node5</title>
<g id="a_edge4_Node000003_Node000005"><a xlink:title=" ">
<path fill="none" stroke="#63b8ff" d="M548.65,-70.12C559.7,-68.4 571.2,-66.61 582.47,-64.86"/>
<polygon fill="#63b8ff" stroke="#63b8ff" points="582.81,-68.35 592.15,-63.36 581.74,-61.43 582.81,-68.35"/>
</a>
</g>
</g>
</g>
</svg>
