<?xml version="1.0" encoding="UTF-8" standalone="no"?>
<!DOCTYPE svg PUBLIC "-//W3C//DTD SVG 1.1//EN"
 "http://www.w3.org/Graphics/SVG/1.1/DTD/svg11.dtd">
<!-- Generated by graphviz version 2.42.4 (0)
 -->
<!-- Title: mqtt::lib::plugins::storage_plugin::Storage Pages: 1 -->
<svg width="138pt" height="275pt"
 viewBox="0.00 0.00 138.00 275.00" xmlns="http://www.w3.org/2000/svg" xmlns:xlink="http://www.w3.org/1999/xlink">
<g id="graph0" class="graph" transform="scale(1 1) rotate(0) translate(4 271)">
<title>mqtt::lib::plugins::storage_plugin::Storage</title>
<!-- Node1 -->
<g id="Node000001" class="node">
<title>Node1</title>
<g id="a_Node000001"><a xlink:title=" ">
<polygon fill="#999999" stroke="transparent" points="130,-30 0,-30 0,0 130,0 130,-30"/>
<text text-anchor="start" x="4" y="-18" font-family="Helvetica,sans-Serif" font-size="10.00">mqtt::lib::plugins</text>
<text text-anchor="start" x="4" y="-7" font-family="Helvetica,sans-Serif" font-size="10.00">::storage_plugin::Storage</text>
<polygon fill="none" stroke="#666666" points="0,0 0,-30 130,-30 130,0 0,0"/>
</a>
</g>
</g>
<!-- Node2 -->
<g id="Node000002" class="node">
<title>Node2</title>
<g id="a_Node000002"><a xlink:title=" ">
<polygon fill="white" stroke="transparent" points="122,-113 8,-113 8,-83 122,-83 122,-113"/>
<text text-anchor="start" x="12" y="-101" font-family="Helvetica,sans-Serif" font-size="10.00">std::map&lt; std::string,</text>
<text text-anchor="start" x="33" y="-90" font-family="Helvetica,sans-Serif" font-size="10.00"> std::string &gt;</text>
<polygon fill="none" stroke="#666666" points="8,-83 8,-113 122,-113 122,-83 8,-83"/>
</a>
</g>
</g>
<!-- Node2&#45;&gt;Node1 -->
<g id="edge1_Node000001_Node000002" class="edge">
<title>Node2&#45;&gt;Node1</title>
<g id="a_edge1_Node000001_Node000002"><a xlink:title=" ">
<path fill="none" stroke="#63b8ff" d="M65,-82.89C65,-71.81 65,-56.06 65,-42.62"/>
<polygon fill="none" stroke="#63b8ff" points="65,-42.22 61,-36.22 65,-30.22 69,-36.22 65,-42.22"/>
</a>
</g>
<text text-anchor="start" x="68.5" y="-53.5" font-family="Helvetica,sans-Serif" font-size="10.00" fill="grey">&#45;storage</text>
</g>
<!-- Node3 -->
<g id="Node000003" class="node">
<title>Node3</title>
<g id="a_Node000003"><a xlink:title=" ">
<polygon fill="white" stroke="transparent" points="94,-200 36,-200 36,-181 94,-181 94,-200"/>
<text text-anchor="start" x="40.5" y="-187.5" font-family="Helvetica,sans-Serif" font-size="10.00">std::string</text>
<polygon fill="none" stroke="#666666" points="36,-181 36,-200 94,-200 94,-181 36,-181"/>
</a>
</g>
</g>
<!-- Node3&#45;&gt;Node2 -->
<g id="edge2_Node000002_Node000003" class="edge">
<title>Node3&#45;&gt;Node2</title>
<g id="a_edge2_Node000002_Node000003"><a xlink:title=" ">
<path fill="none" stroke="#63b8ff" d="M65,-180.82C65,-168.16 65,-144.08 65,-125.31"/>
<polygon fill="none" stroke="#63b8ff" points="65,-125.09 61,-119.09 65,-113.09 69,-119.09 65,-125.09"/>
</a>
</g>
<text text-anchor="start" x="68.5" y="-152" font-family="Helvetica,sans-Serif" font-size="10.00" fill="grey">+elements</text>
<text text-anchor="start" x="68.5" y="-137" font-family="Helvetica,sans-Serif" font-size="10.00" fill="grey">+keys</text>
</g>
<!-- Node4 -->
<g id="Node000004" class="node">
<title>Node4</title>
<g id="a_Node000004"><a xlink:title=" ">
<polygon fill="white" stroke="transparent" points="113,-267 17,-267 17,-237 113,-237 113,-267"/>
<text text-anchor="start" x="21" y="-255" font-family="Helvetica,sans-Serif" font-size="10.00">std::basic_string&lt;</text>
<text text-anchor="start" x="46.5" y="-244" font-family="Helvetica,sans-Serif" font-size="10.00"> Char &gt;</text>
<polygon fill="none" stroke="#666666" points="17,-237 17,-267 113,-267 113,-237 17,-237"/>
</a>
</g>
</g>
<!-- Node4&#45;&gt;Node3 -->
<g id="edge3_Node000003_Node000004" class="edge">
<title>Node4&#45;&gt;Node3</title>
<g id="a_edge3_Node000003_Node000004"><a xlink:title=" ">
<path fill="none" stroke="#63b8ff" d="M65,-226.79C65,-217.36 65,-207.15 65,-200.16"/>
<polygon fill="none" stroke="#63b8ff" points="61.5,-226.9 65,-236.9 68.5,-226.9 61.5,-226.9"/>
</a>
</g>
</g>
</g>
</svg>
