<?xml version="1.0" encoding="UTF-8" standalone="no"?>
<!DOCTYPE svg PUBLIC "-//W3C//DTD SVG 1.1//EN"
 "http://www.w3.org/Graphics/SVG/1.1/DTD/svg11.dtd">
<!-- Generated by graphviz version 14.1.1 (0)
 -->
<!-- Title: nlohmann::json_schema::root_schema::get_or_create_file Pages: 1 -->
<svg width="1560pt" height="537pt"
 viewBox="0.00 0.00 1560.00 537.00" xmlns="http://www.w3.org/2000/svg" xmlns:xlink="http://www.w3.org/1999/xlink">
<g id="graph0" class="graph" transform="scale(1 1) rotate(0) translate(4 533.25)">
<title>nlohmann::json_schema::root_schema::get_or_create_file</title>
<!-- Node1 -->
<g id="Node000001" class="node">
<title>Node1</title>
<g id="a_Node000001"><a xlink:title=" ">
<polygon fill="#999999" stroke="#666666" points="1551.75,-416.25 1417.25,-416.25 1417.25,-370 1551.75,-370 1551.75,-416.25"/>
<text xml:space="preserve" text-anchor="start" x="1425.25" y="-402.75" font-family="Helvetica,sans-Serif" font-size="10.00">nlohmann::json_schema</text>
<text xml:space="preserve" text-anchor="start" x="1425.25" y="-390" font-family="Helvetica,sans-Serif" font-size="10.00">::root_schema::get_or</text>
<text xml:space="preserve" text-anchor="middle" x="1484.5" y="-377.25" font-family="Helvetica,sans-Serif" font-size="10.00">_create_file</text>
</a>
</g>
</g>
<!-- Node2 -->
<g id="Node000002" class="node">
<title>Node2</title>
<g id="a_Node000002"><a xlink:href="classnlohmann_1_1json__schema_1_1root__schema.html#a7e890c03f941280b76fbdb4d5bb73065" target="_top" xlink:title=" ">
<polygon fill="white" stroke="#666666" points="1381.25,-416.25 1246.75,-416.25 1246.75,-370 1381.25,-370 1381.25,-416.25"/>
<text xml:space="preserve" text-anchor="start" x="1254.75" y="-402.75" font-family="Helvetica,sans-Serif" font-size="10.00">nlohmann::json_schema</text>
<text xml:space="preserve" text-anchor="start" x="1254.75" y="-390" font-family="Helvetica,sans-Serif" font-size="10.00">::root_schema::get_or</text>
<text xml:space="preserve" text-anchor="middle" x="1314" y="-377.25" font-family="Helvetica,sans-Serif" font-size="10.00">_create_ref</text>
</a>
</g>
</g>
<!-- Node1&#45;&gt;Node2 -->
<g id="edge1_Node000001_Node000002" class="edge">
<title>Node1&#45;&gt;Node2</title>
<g id="a_edge1_Node000001_Node000002"><a xlink:title=" ">
<path fill="none" stroke="#63b8ff" d="M1405.65,-393.12C1397.64,-393.12 1389.54,-393.12 1381.66,-393.12"/>
<polygon fill="#63b8ff" stroke="#63b8ff" points="1405.39,-396.63 1415.39,-393.13 1405.39,-389.63 1405.39,-396.63"/>
</a>
</g>
</g>
<!-- Node5 -->
<g id="Node000005" class="node">
<title>Node5</title>
<g id="a_Node000005"><a xlink:href="classnlohmann_1_1json__schema_1_1root__schema.html#a4c543fe7b89e76b3fdd17a6883696238" target="_top" xlink:title=" ">
<polygon fill="white" stroke="#666666" points="1028.25,-511.25 893.75,-511.25 893.75,-465 1028.25,-465 1028.25,-511.25"/>
<text xml:space="preserve" text-anchor="start" x="901.75" y="-497.75" font-family="Helvetica,sans-Serif" font-size="10.00">nlohmann::json_schema</text>
<text xml:space="preserve" text-anchor="start" x="901.75" y="-485" font-family="Helvetica,sans-Serif" font-size="10.00">::root_schema::insert</text>
<text xml:space="preserve" text-anchor="middle" x="961" y="-472.25" font-family="Helvetica,sans-Serif" font-size="10.00">_unknown_keyword</text>
</a>
</g>
</g>
<!-- Node1&#45;&gt;Node5 -->
<g id="edge41_Node000001_Node000005" class="edge">
<title>Node1&#45;&gt;Node5</title>
<g id="a_edge41_Node000001_Node000005"><a xlink:title=" ">
<path fill="none" stroke="#63b8ff" d="M1405.96,-418.76C1397.67,-421.09 1389.32,-423.27 1381.25,-425.12 1258.24,-453.44 1111.88,-472.09 1028.67,-481.32"/>
<polygon fill="#63b8ff" stroke="#63b8ff" points="1406.72,-422.18 1415.35,-416.04 1404.77,-415.46 1406.72,-422.18"/>
</a>
</g>
</g>
<!-- Node34 -->
<g id="Node000034" class="node">
<title>Node34</title>
<g id="a_Node000034"><a xlink:href="classnlohmann_1_1json__schema_1_1root__schema.html#a685904131f0693e56f14a9e9db5f044e" target="_top" xlink:title=" ">
<polygon fill="white" stroke="#666666" points="1381.25,-351.88 1246.75,-351.88 1246.75,-318.38 1381.25,-318.38 1381.25,-351.88"/>
<text xml:space="preserve" text-anchor="start" x="1254.75" y="-338.38" font-family="Helvetica,sans-Serif" font-size="10.00">nlohmann::json_schema</text>
<text xml:space="preserve" text-anchor="middle" x="1314" y="-325.62" font-family="Helvetica,sans-Serif" font-size="10.00">::root_schema::insert</text>
</a>
</g>
</g>
<!-- Node1&#45;&gt;Node34 -->
<g id="edge39_Node000001_Node000034" class="edge">
<title>Node1&#45;&gt;Node34</title>
<g id="a_edge39_Node000001_Node000034"><a xlink:title=" ">
<path fill="none" stroke="#63b8ff" d="M1406.26,-366.54C1392.25,-361.71 1377.97,-356.8 1365,-352.34"/>
<polygon fill="#63b8ff" stroke="#63b8ff" points="1404.88,-369.76 1415.47,-369.71 1407.16,-363.15 1404.88,-369.76"/>
</a>
</g>
</g>
<!-- Node3 -->
<g id="Node000003" class="node">
<title>Node3</title>
<g id="a_Node000003"><a xlink:href="classanonymous__namespace_02json-validator_8cpp_03_1_1schema.html#aafee860997369c77204d5b1a7d095c3f" target="_top" xlink:title=" ">
<polygon fill="white" stroke="#666666" points="1210.75,-383.25 1076.25,-383.25 1076.25,-337 1210.75,-337 1210.75,-383.25"/>
<text xml:space="preserve" text-anchor="start" x="1084.25" y="-369.75" font-family="Helvetica,sans-Serif" font-size="10.00">anonymous_namespace</text>
<text xml:space="preserve" text-anchor="start" x="1084.25" y="-357" font-family="Helvetica,sans-Serif" font-size="10.00">{json&#45;validator::cpp}</text>
<text xml:space="preserve" text-anchor="middle" x="1143.5" y="-344.25" font-family="Helvetica,sans-Serif" font-size="10.00">::schema::make</text>
</a>
</g>
</g>
<!-- Node2&#45;&gt;Node3 -->
<g id="edge2_Node000002_Node000003" class="edge">
<title>Node2&#45;&gt;Node3</title>
<g id="a_edge2_Node000002_Node000003"><a xlink:title=" ">
<path fill="none" stroke="#63b8ff" d="M1235.15,-371.15C1227.14,-369.53 1219.04,-367.99 1211.16,-366.56"/>
<polygon fill="#63b8ff" stroke="#63b8ff" points="1234.42,-374.57 1244.92,-373.16 1235.83,-367.71 1234.42,-374.57"/>
</a>
</g>
</g>
<!-- Node3&#45;&gt;Node2 -->
<g id="edge4_Node000003_Node000002" class="edge">
<title>Node3&#45;&gt;Node2</title>
<g id="a_edge4_Node000003_Node000002"><a xlink:title=" ">
<path fill="none" stroke="#63b8ff" d="M1222.42,-382.12C1230.43,-383.73 1238.53,-385.28 1246.4,-386.7"/>
<polygon fill="#63b8ff" stroke="#63b8ff" points="1223.15,-378.69 1212.65,-380.1 1221.73,-385.55 1223.15,-378.69"/>
</a>
</g>
</g>
<!-- Node3&#45;&gt;Node3 -->
<g id="edge10_Node000003_Node000003" class="edge">
<title>Node3&#45;&gt;Node3</title>
<g id="a_edge10_Node000003_Node000003"><a xlink:title=" ">
<path fill="none" stroke="#63b8ff" d="M1171.54,-393.99C1166.69,-398.36 1157.34,-401.25 1143.5,-401.25 1120.19,-401.25 1109.63,-393.05 1111.81,-383.38"/>
<polygon fill="#63b8ff" stroke="#63b8ff" points="1174.75,-395.4 1174.7,-384.81 1168.13,-393.13 1174.75,-395.4"/>
</a>
</g>
</g>
<!-- Node4 -->
<g id="Node000004" class="node">
<title>Node4</title>
<g id="a_Node000004"><a xlink:href="classanonymous__namespace_02json-validator_8cpp_03_1_1array.html#ad16bb35faff550ae0c7014de82822e71" target="_top" xlink:title=" ">
<polygon fill="white" stroke="#666666" points="1028.25,-383.25 893.75,-383.25 893.75,-337 1028.25,-337 1028.25,-383.25"/>
<text xml:space="preserve" text-anchor="start" x="901.75" y="-369.75" font-family="Helvetica,sans-Serif" font-size="10.00">anonymous_namespace</text>
<text xml:space="preserve" text-anchor="start" x="901.75" y="-357" font-family="Helvetica,sans-Serif" font-size="10.00">{json&#45;validator::cpp}</text>
<text xml:space="preserve" text-anchor="middle" x="961" y="-344.25" font-family="Helvetica,sans-Serif" font-size="10.00">::array::array</text>
</a>
</g>
</g>
<!-- Node3&#45;&gt;Node4 -->
<g id="edge3_Node000003_Node000004" class="edge">
<title>Node3&#45;&gt;Node4</title>
<g id="a_edge3_Node000003_Node000004"><a xlink:title=" ">
<path fill="none" stroke="#63b8ff" d="M1064.49,-360.12C1052.58,-360.12 1040.37,-360.12 1028.73,-360.12"/>
<polygon fill="#63b8ff" stroke="#63b8ff" points="1064.29,-363.63 1074.29,-360.13 1064.29,-356.63 1064.29,-363.63"/>
</a>
</g>
</g>
<!-- Node3&#45;&gt;Node5 -->
<g id="edge5_Node000003_Node000005" class="edge">
<title>Node3&#45;&gt;Node5</title>
<g id="a_edge5_Node000003_Node000005"><a xlink:title=" ">
<path fill="none" stroke="#63b8ff" d="M1107.25,-391.32C1088.71,-409.37 1064.77,-431.37 1040.25,-447.12 1029.88,-453.79 1017.89,-459.52 1006.46,-464.54"/>
<polygon fill="#63b8ff" stroke="#63b8ff" points="1109.61,-393.91 1114.29,-384.41 1104.71,-388.91 1109.61,-393.91"/>
</a>
</g>
</g>
<!-- Node6 -->
<g id="Node000006" class="node">
<title>Node6</title>
<g id="a_Node000006"><a xlink:href="classanonymous__namespace_02json-validator_8cpp_03_1_1logical__combination.html#af6e410a20a726f16733df11cfa9f8ff5" target="_top" xlink:title=" ">
<polygon fill="white" stroke="#666666" points="1028.25,-318.62 893.75,-318.62 893.75,-259.62 1028.25,-259.62 1028.25,-318.62"/>
<text xml:space="preserve" text-anchor="start" x="901.75" y="-305.12" font-family="Helvetica,sans-Serif" font-size="10.00">anonymous_namespace</text>
<text xml:space="preserve" text-anchor="start" x="901.75" y="-292.38" font-family="Helvetica,sans-Serif" font-size="10.00">{json&#45;validator::cpp}</text>
<text xml:space="preserve" text-anchor="start" x="901.75" y="-279.62" font-family="Helvetica,sans-Serif" font-size="10.00">::logical_combination</text>
<text xml:space="preserve" text-anchor="middle" x="961" y="-266.88" font-family="Helvetica,sans-Serif" font-size="10.00">::logical_combination</text>
</a>
</g>
</g>
<!-- Node3&#45;&gt;Node6 -->
<g id="edge8_Node000003_Node000006" class="edge">
<title>Node3&#45;&gt;Node6</title>
<g id="a_edge8_Node000003_Node000006"><a xlink:title=" ">
<path fill="none" stroke="#63b8ff" d="M1072.31,-332.52C1057.92,-326.85 1042.8,-320.91 1028.54,-315.3"/>
<polygon fill="#63b8ff" stroke="#63b8ff" points="1070.65,-335.62 1081.24,-336.03 1073.21,-329.11 1070.65,-335.62"/>
</a>
</g>
</g>
<!-- Node7 -->
<g id="Node000007" class="node">
<title>Node7</title>
<g id="a_Node000007"><a xlink:href="classanonymous__namespace_02json-validator_8cpp_03_1_1logical__not.html#a5ac57fd40f4d28a3def56b84a8e8cd4f" target="_top" xlink:title=" ">
<polygon fill="white" stroke="#666666" points="1028.25,-241.25 893.75,-241.25 893.75,-195 1028.25,-195 1028.25,-241.25"/>
<text xml:space="preserve" text-anchor="start" x="901.75" y="-227.75" font-family="Helvetica,sans-Serif" font-size="10.00">anonymous_namespace</text>
<text xml:space="preserve" text-anchor="start" x="901.75" y="-215" font-family="Helvetica,sans-Serif" font-size="10.00">{json&#45;validator::cpp}</text>
<text xml:space="preserve" text-anchor="middle" x="961" y="-202.25" font-family="Helvetica,sans-Serif" font-size="10.00">::logical_not::logical_not</text>
</a>
</g>
</g>
<!-- Node3&#45;&gt;Node7 -->
<g id="edge9_Node000003_Node000007" class="edge">
<title>Node3&#45;&gt;Node7</title>
<g id="a_edge9_Node000003_Node000007"><a xlink:title=" ">
<path fill="none" stroke="#63b8ff" d="M1118.6,-327.6C1099.58,-303.57 1071.11,-271.47 1040.25,-250.12 1035.9,-247.12 1031.23,-244.33 1026.41,-241.75"/>
<polygon fill="#63b8ff" stroke="#63b8ff" points="1115.84,-329.74 1124.73,-335.5 1121.37,-325.45 1115.84,-329.74"/>
</a>
</g>
</g>
<!-- Node8 -->
<g id="Node000008" class="node">
<title>Node8</title>
<g id="a_Node000008"><a xlink:href="classanonymous__namespace_02json-validator_8cpp_03_1_1object.html#a51137ac019fc30c7ab57f839cd9a3638" target="_top" xlink:title=" ">
<polygon fill="white" stroke="#666666" points="1028.25,-177.25 893.75,-177.25 893.75,-131 1028.25,-131 1028.25,-177.25"/>
<text xml:space="preserve" text-anchor="start" x="901.75" y="-163.75" font-family="Helvetica,sans-Serif" font-size="10.00">anonymous_namespace</text>
<text xml:space="preserve" text-anchor="start" x="901.75" y="-151" font-family="Helvetica,sans-Serif" font-size="10.00">{json&#45;validator::cpp}</text>
<text xml:space="preserve" text-anchor="middle" x="961" y="-138.25" font-family="Helvetica,sans-Serif" font-size="10.00">::object::object</text>
</a>
</g>
</g>
<!-- Node3&#45;&gt;Node8 -->
<g id="edge11_Node000003_Node000008" class="edge">
<title>Node3&#45;&gt;Node8</title>
<g id="a_edge11_Node000003_Node000008"><a xlink:title=" ">
<path fill="none" stroke="#63b8ff" d="M1130.18,-325.87C1114.68,-287.16 1084.6,-224.54 1040.25,-186.12 1036.7,-183.05 1032.81,-180.24 1028.73,-177.69"/>
<polygon fill="#63b8ff" stroke="#63b8ff" points="1126.92,-327.13 1133.8,-335.18 1133.44,-324.59 1126.92,-327.13"/>
</a>
</g>
</g>
<!-- Node9 -->
<g id="Node000009" class="node">
<title>Node9</title>
<g id="a_Node000009"><a xlink:href="classnlohmann_1_1json__schema_1_1root__schema.html#aa92bf9509db49548416a244fb4528e3c" target="_top" xlink:title=" ">
<polygon fill="white" stroke="#666666" points="1028.25,-113.25 893.75,-113.25 893.75,-67 1028.25,-67 1028.25,-113.25"/>
<text xml:space="preserve" text-anchor="start" x="901.75" y="-99.75" font-family="Helvetica,sans-Serif" font-size="10.00">nlohmann::json_schema</text>
<text xml:space="preserve" text-anchor="start" x="901.75" y="-87" font-family="Helvetica,sans-Serif" font-size="10.00">::root_schema::set_root</text>
<text xml:space="preserve" text-anchor="middle" x="961" y="-74.25" font-family="Helvetica,sans-Serif" font-size="10.00">_schema</text>
</a>
</g>
</g>
<!-- Node3&#45;&gt;Node9 -->
<g id="edge12_Node000003_Node000009" class="edge">
<title>Node3&#45;&gt;Node9</title>
<g id="a_edge12_Node000003_Node000009"><a xlink:title=" ">
<path fill="none" stroke="#63b8ff" d="M1136.33,-325.81C1125.5,-274.92 1098.43,-179.29 1040.25,-122.12 1036.69,-118.63 1032.7,-115.49 1028.45,-112.69"/>
<polygon fill="#63b8ff" stroke="#63b8ff" points="1132.85,-326.27 1138.27,-335.37 1139.71,-324.87 1132.85,-326.27"/>
</a>
</g>
</g>
<!-- Node33 -->
<g id="Node000033" class="node">
<title>Node33</title>
<g id="a_Node000033"><a xlink:href="classanonymous__namespace_02json-validator_8cpp_03_1_1type__schema.html#a72ff3c13768d129592b9d088316d0d99" target="_top" xlink:title=" ">
<polygon fill="white" stroke="#666666" points="1040.25,-447.25 881.75,-447.25 881.75,-401 1040.25,-401 1040.25,-447.25"/>
<text xml:space="preserve" text-anchor="start" x="889.75" y="-433.75" font-family="Helvetica,sans-Serif" font-size="10.00">anonymous_namespace</text>
<text xml:space="preserve" text-anchor="start" x="889.75" y="-421" font-family="Helvetica,sans-Serif" font-size="10.00">{json&#45;validator::cpp}</text>
<text xml:space="preserve" text-anchor="middle" x="961" y="-408.25" font-family="Helvetica,sans-Serif" font-size="10.00">::type_schema::type_schema</text>
</a>
</g>
</g>
<!-- Node3&#45;&gt;Node33 -->
<g id="edge38_Node000003_Node000033" class="edge">
<title>Node3&#45;&gt;Node33</title>
<g id="a_edge38_Node000003_Node000033"><a xlink:title=" ">
<path fill="none" stroke="#63b8ff" d="M1065.4,-387.46C1053.16,-391.8 1040.58,-396.26 1028.6,-400.51"/>
<polygon fill="#63b8ff" stroke="#63b8ff" points="1066.38,-390.83 1074.63,-384.19 1064.04,-384.23 1066.38,-390.83"/>
</a>
</g>
</g>
<!-- Node5&#45;&gt;Node3 -->
<g id="edge7_Node000005_Node000003" class="edge">
<title>Node5&#45;&gt;Node3</title>
<g id="a_edge7_Node000005_Node000003"><a xlink:title=" ">
<path fill="none" stroke="#63b8ff" d="M1038.5,-466.23C1039.09,-465.87 1039.67,-465.5 1040.25,-465.12 1075.28,-442.62 1109.14,-407.35 1127.75,-383.72"/>
<polygon fill="#63b8ff" stroke="#63b8ff" points="1036.87,-463.13 1029.93,-471.14 1040.35,-469.21 1036.87,-463.13"/>
</a>
</g>
</g>
<!-- Node5&#45;&gt;Node5 -->
<g id="edge6_Node000005_Node000005" class="edge">
<title>Node5&#45;&gt;Node5</title>
<g id="a_edge6_Node000005_Node000005"><a xlink:title=" ">
<path fill="none" stroke="#63b8ff" d="M991.01,-521.99C985.82,-526.36 975.81,-529.25 961,-529.25 936.05,-529.25 924.74,-521.05 927.08,-511.38"/>
<polygon fill="#63b8ff" stroke="#63b8ff" points="994.23,-523.39 994.4,-512.8 987.66,-520.97 994.23,-523.39"/>
</a>
</g>
</g>
<!-- Node10 -->
<g id="Node000010" class="node">
<title>Node10</title>
<g id="a_Node000010"><a xlink:href="classnlohmann_1_1json__schema_1_1json__validator.html#a13e1d3029c8953bb9c7d1879382edb03" target="_top" xlink:title=" ">
<polygon fill="white" stroke="#666666" points="845.75,-160.25 711.25,-160.25 711.25,-114 845.75,-114 845.75,-160.25"/>
<text xml:space="preserve" text-anchor="start" x="719.25" y="-146.75" font-family="Helvetica,sans-Serif" font-size="10.00">nlohmann::json_schema</text>
<text xml:space="preserve" text-anchor="start" x="719.25" y="-134" font-family="Helvetica,sans-Serif" font-size="10.00">::json_validator::set</text>
<text xml:space="preserve" text-anchor="middle" x="778.5" y="-121.25" font-family="Helvetica,sans-Serif" font-size="10.00">_root_schema</text>
</a>
</g>
</g>
<!-- Node9&#45;&gt;Node10 -->
<g id="edge13_Node000009_Node000010" class="edge">
<title>Node9&#45;&gt;Node10</title>
<g id="a_edge13_Node000009_Node000010"><a xlink:title=" ">
<path fill="none" stroke="#63b8ff" d="M882.36,-110.34C870.33,-113.47 857.99,-116.69 846.23,-119.75"/>
<polygon fill="#63b8ff" stroke="#63b8ff" points="883.04,-113.78 891.84,-107.87 881.28,-107.01 883.04,-113.78"/>
</a>
</g>
</g>
<!-- Node31 -->
<g id="Node000031" class="node">
<title>Node31</title>
<g id="a_Node000031"><a xlink:href="classnlohmann_1_1json__schema_1_1json__validator.html#a48f742fda328ff2dc2de223e9452c4d1" target="_top" xlink:title=" ">
<polygon fill="white" stroke="#666666" points="845.75,-81.25 711.25,-81.25 711.25,-35 845.75,-35 845.75,-81.25"/>
<text xml:space="preserve" text-anchor="start" x="719.25" y="-67.75" font-family="Helvetica,sans-Serif" font-size="10.00">nlohmann::json_schema</text>
<text xml:space="preserve" text-anchor="start" x="719.25" y="-55" font-family="Helvetica,sans-Serif" font-size="10.00">::json_validator::set</text>
<text xml:space="preserve" text-anchor="middle" x="778.5" y="-42.25" font-family="Helvetica,sans-Serif" font-size="10.00">_root_schema</text>
</a>
</g>
</g>
<!-- Node9&#45;&gt;Node31 -->
<g id="edge35_Node000009_Node000031" class="edge">
<title>Node9&#45;&gt;Node31</title>
<g id="a_edge35_Node000009_Node000031"><a xlink:title=" ">
<path fill="none" stroke="#63b8ff" d="M881.99,-76.3C870.08,-74.18 857.87,-72.02 846.23,-69.95"/>
<polygon fill="#63b8ff" stroke="#63b8ff" points="881.35,-79.74 891.81,-78.04 882.58,-72.84 881.35,-79.74"/>
</a>
</g>
</g>
<!-- Node11 -->
<g id="Node000011" class="node">
<title>Node11</title>
<g id="a_Node000011"><a xlink:href="classnlohmann_1_1json__schema_1_1json__validator.html#ad8f46dfed69afe463732ae335879dabb" target="_top" xlink:title=" ">
<polygon fill="white" stroke="#666666" points="654.25,-232.25 519.75,-232.25 519.75,-186 654.25,-186 654.25,-232.25"/>
<text xml:space="preserve" text-anchor="start" x="527.75" y="-218.75" font-family="Helvetica,sans-Serif" font-size="10.00">nlohmann::json_schema</text>
<text xml:space="preserve" text-anchor="start" x="527.75" y="-206" font-family="Helvetica,sans-Serif" font-size="10.00">::json_validator::json</text>
<text xml:space="preserve" text-anchor="middle" x="587" y="-193.25" font-family="Helvetica,sans-Serif" font-size="10.00">_validator</text>
</a>
</g>
</g>
<!-- Node10&#45;&gt;Node11 -->
<g id="edge14_Node000010_Node000011" class="edge">
<title>Node10&#45;&gt;Node11</title>
<g id="a_edge14_Node000010_Node000011"><a xlink:title=" ">
<path fill="none" stroke="#63b8ff" d="M705.4,-164.65C695.28,-168.51 685,-172.42 675.25,-176.12 667.23,-179.17 658.78,-182.37 650.44,-185.53"/>
<polygon fill="#63b8ff" stroke="#63b8ff" points="706.36,-168.03 714.46,-161.2 703.87,-161.49 706.36,-168.03"/>
</a>
</g>
</g>
<!-- Node24 -->
<g id="Node000024" class="node">
<title>Node24</title>
<g id="a_Node000024"><a xlink:href="format_8cpp.html#ae66f6b31b5ad750f1fe042a706a4e3d4" target="_top" xlink:title=" ">
<polygon fill="white" stroke="#666666" points="607.38,-167.5 566.62,-167.5 566.62,-146.75 607.38,-146.75 607.38,-167.5"/>
<text xml:space="preserve" text-anchor="middle" x="587" y="-154" font-family="Helvetica,sans-Serif" font-size="10.00">main</text>
</a>
</g>
</g>
<!-- Node10&#45;&gt;Node24 -->
<g id="edge27_Node000010_Node000024" class="edge">
<title>Node10&#45;&gt;Node24</title>
<g id="a_edge27_Node000010_Node000024"><a xlink:title=" ">
<path fill="none" stroke="#63b8ff" d="M699.68,-145.34C666.02,-148.89 629.41,-152.75 607.6,-155.06"/>
<polygon fill="#63b8ff" stroke="#63b8ff" points="699.87,-148.84 709.45,-144.31 699.14,-141.88 699.87,-148.84"/>
</a>
</g>
</g>
<!-- Node25 -->
<g id="Node000025" class="node">
<title>Node25</title>
<g id="a_Node000025"><a xlink:href="json-schema-validate_8cpp.html#a0ddf1224851353fc92bfbff6f499fa97" target="_top" xlink:title=" ">
<polygon fill="white" stroke="#666666" points="607.38,-128.5 566.62,-128.5 566.62,-107.75 607.38,-107.75 607.38,-128.5"/>
<text xml:space="preserve" text-anchor="middle" x="587" y="-115" font-family="Helvetica,sans-Serif" font-size="10.00">main</text>
</a>
</g>
</g>
<!-- Node10&#45;&gt;Node25 -->
<g id="edge28_Node000010_Node000025" class="edge">
<title>Node10&#45;&gt;Node25</title>
<g id="a_edge28_Node000010_Node000025"><a xlink:title=" ">
<path fill="none" stroke="#63b8ff" d="M699.68,-129.32C666.02,-125.95 629.41,-122.28 607.6,-120.09"/>
<polygon fill="#63b8ff" stroke="#63b8ff" points="699.15,-132.79 709.45,-130.3 699.85,-125.82 699.15,-132.79"/>
</a>
</g>
</g>
<!-- Node26 -->
<g id="Node000026" class="node">
<title>Node26</title>
<g id="a_Node000026"><a xlink:href="errors_8cpp.html#a840291bc02cba5474a4cb46a9b9566fe" target="_top" xlink:title=" ">
<polygon fill="white" stroke="#666666" points="607.38,-89.5 566.62,-89.5 566.62,-68.75 607.38,-68.75 607.38,-89.5"/>
<text xml:space="preserve" text-anchor="middle" x="587" y="-76" font-family="Helvetica,sans-Serif" font-size="10.00">main</text>
</a>
</g>
</g>
<!-- Node10&#45;&gt;Node26 -->
<g id="edge29_Node000010_Node000026" class="edge">
<title>Node10&#45;&gt;Node26</title>
<g id="a_edge29_Node000010_Node000026"><a xlink:title=" ">
<path fill="none" stroke="#63b8ff" d="M707.57,-109.77C696.82,-105.96 685.8,-102.28 675.25,-99.12 652.32,-92.27 625.4,-86.42 607.6,-82.85"/>
<polygon fill="#63b8ff" stroke="#63b8ff" points="706.18,-112.98 716.77,-113.08 708.56,-106.4 706.18,-112.98"/>
</a>
</g>
</g>
<!-- Node27 -->
<g id="Node000027" class="node">
<title>Node27</title>
<g id="a_Node000027"><a xlink:href="namespaceanonymous__namespace_02issue-105-verbose-combination-errors_8cpp_03.html#a5d2fa2fa048e5520dbcbad50438526ad" target="_top" xlink:title=" ">
<polygon fill="white" stroke="#666666" points="675.25,-354.25 498.75,-354.25 498.75,-308 675.25,-308 675.25,-354.25"/>
<text xml:space="preserve" text-anchor="start" x="506.75" y="-340.75" font-family="Helvetica,sans-Serif" font-size="10.00">anonymous_namespace</text>
<text xml:space="preserve" text-anchor="start" x="506.75" y="-328" font-family="Helvetica,sans-Serif" font-size="10.00">{issue&#45;105&#45;verbose&#45;combination</text>
<text xml:space="preserve" text-anchor="middle" x="587" y="-315.25" font-family="Helvetica,sans-Serif" font-size="10.00">&#45;errors::cpp}::validate</text>
</a>
</g>
</g>
<!-- Node10&#45;&gt;Node27 -->
<g id="edge30_Node000010_Node000027" class="edge">
<title>Node10&#45;&gt;Node27</title>
<g id="a_edge30_Node000010_Node000027"><a xlink:title=" ">
<path fill="none" stroke="#63b8ff" d="M746.95,-168.4C708.97,-207.29 644.99,-272.78 610.94,-307.64"/>
<polygon fill="#63b8ff" stroke="#63b8ff" points="749.1,-171.21 753.58,-161.61 744.09,-166.32 749.1,-171.21"/>
</a>
</g>
</g>
<!-- Node12 -->
<g id="Node000012" class="node">
<title>Node12</title>
<g id="a_Node000012"><a xlink:href="classmqtt_1_1bridge_1_1lib_1_1BridgeStore.html#ab8ade196caaa4d233f8dc1625619ed9a" target="_top" xlink:title=" ">
<polygon fill="white" stroke="#666666" points="454.12,-230.88 294.88,-230.88 294.88,-197.38 454.12,-197.38 454.12,-230.88"/>
<text xml:space="preserve" text-anchor="start" x="302.88" y="-217.38" font-family="Helvetica,sans-Serif" font-size="10.00">mqtt::bridge::lib::</text>
<text xml:space="preserve" text-anchor="middle" x="374.5" y="-204.62" font-family="Helvetica,sans-Serif" font-size="10.00">BridgeStore::loadAndValidate</text>
</a>
</g>
</g>
<!-- Node11&#45;&gt;Node12 -->
<g id="edge15_Node000011_Node000012" class="edge">
<title>Node11&#45;&gt;Node12</title>
<g id="a_edge15_Node000011_Node000012"><a xlink:title=" ">
<path fill="none" stroke="#63b8ff" d="M508.09,-210.98C490.62,-211.39 472.07,-211.83 454.56,-212.25"/>
<polygon fill="#63b8ff" stroke="#63b8ff" points="507.97,-214.48 517.88,-210.74 507.8,-207.48 507.97,-214.48"/>
</a>
</g>
</g>
<!-- Node14 -->
<g id="Node000014" class="node">
<title>Node14</title>
<g id="a_Node000014"><a xlink:href="classmqtt_1_1lib_1_1JsonMappingReader.html#a77231994bd3ef854feb2db79dd71746b" target="_top" xlink:title=" ">
<polygon fill="white" stroke="#666666" points="454.5,-156.88 294.5,-156.88 294.5,-123.38 454.5,-123.38 454.5,-156.88"/>
<text xml:space="preserve" text-anchor="start" x="302.5" y="-143.38" font-family="Helvetica,sans-Serif" font-size="10.00">mqtt::lib::JsonMappingReader</text>
<text xml:space="preserve" text-anchor="middle" x="374.5" y="-130.62" font-family="Helvetica,sans-Serif" font-size="10.00">::readMappingFromFile</text>
</a>
</g>
</g>
<!-- Node11&#45;&gt;Node14 -->
<g id="edge17_Node000011_Node000014" class="edge">
<title>Node11&#45;&gt;Node14</title>
<g id="a_edge17_Node000011_Node000014"><a xlink:title=" ">
<path fill="none" stroke="#63b8ff" d="M508.49,-183.72C481.7,-174.93 452.32,-165.31 428.01,-157.34"/>
<polygon fill="#63b8ff" stroke="#63b8ff" points="507.37,-187.03 517.96,-186.82 509.55,-180.38 507.37,-187.03"/>
</a>
</g>
</g>
<!-- Node18 -->
<g id="Node000018" class="node">
<title>Node18</title>
<g id="a_Node000018"><a xlink:href="issue-293_8cpp.html#a8ee39622edc153e58dfa5711984ac185" target="_top" xlink:title=" ">
<polygon fill="white" stroke="#666666" points="415.12,-96.5 333.88,-96.5 333.88,-75.75 415.12,-75.75 415.12,-96.5"/>
<text xml:space="preserve" text-anchor="middle" x="374.5" y="-83" font-family="Helvetica,sans-Serif" font-size="10.00">should_throw</text>
</a>
</g>
</g>
<!-- Node11&#45;&gt;Node18 -->
<g id="edge21_Node000011_Node000018" class="edge">
<title>Node11&#45;&gt;Node18</title>
<g id="a_edge21_Node000011_Node000018"><a xlink:title=" ">
<path fill="none" stroke="#63b8ff" d="M509.61,-184.03C505.78,-181.62 502.13,-178.99 498.75,-176.12 474.44,-155.52 487.57,-134.1 462.75,-114.12 449.24,-103.25 431.42,-96.56 415.4,-92.47"/>
<polygon fill="#63b8ff" stroke="#63b8ff" points="507.69,-186.96 518.12,-188.84 511.13,-180.87 507.69,-186.96"/>
</a>
</g>
</g>
<!-- Node20 -->
<g id="Node000020" class="node">
<title>Node20</title>
<g id="a_Node000020"><a xlink:href="classnlohmann_1_1json__patch.html#ac7aea9496e07beb821fb9e5423fb76f5" target="_top" xlink:title=" ">
<polygon fill="white" stroke="#666666" points="436.12,-289.88 312.88,-289.88 312.88,-256.38 436.12,-256.38 436.12,-289.88"/>
<text xml:space="preserve" text-anchor="start" x="320.88" y="-276.38" font-family="Helvetica,sans-Serif" font-size="10.00">nlohmann::json_patch</text>
<text xml:space="preserve" text-anchor="middle" x="374.5" y="-263.62" font-family="Helvetica,sans-Serif" font-size="10.00">::validateJsonPatch</text>
</a>
</g>
</g>
<!-- Node11&#45;&gt;Node20 -->
<g id="edge23_Node000011_Node000020" class="edge">
<title>Node11&#45;&gt;Node20</title>
<g id="a_edge23_Node000011_Node000020"><a xlink:title=" ">
<path fill="none" stroke="#63b8ff" d="M508.69,-232.63C483.34,-240.34 455.65,-248.76 432.12,-255.91"/>
<polygon fill="#63b8ff" stroke="#63b8ff" points="509.4,-236.07 517.95,-229.82 507.36,-229.38 509.4,-236.07"/>
</a>
</g>
</g>
<!-- Node13 -->
<g id="Node000013" class="node">
<title>Node13</title>
<g id="a_Node000013"><a xlink:href="mqttbridge_8cpp.html#a0ddf1224851353fc92bfbff6f499fa97" target="_top" xlink:title=" ">
<polygon fill="white" stroke="#666666" points="183.88,-245.5 143.12,-245.5 143.12,-224.75 183.88,-224.75 183.88,-245.5"/>
<text xml:space="preserve" text-anchor="middle" x="163.5" y="-232" font-family="Helvetica,sans-Serif" font-size="10.00">main</text>
</a>
</g>
</g>
<!-- Node12&#45;&gt;Node13 -->
<g id="edge16_Node000012_Node000013" class="edge">
<title>Node12&#45;&gt;Node13</title>
<g id="a_edge16_Node000012_Node000013"><a xlink:title=" ">
<path fill="none" stroke="#63b8ff" d="M283.12,-223.21C246.17,-226.92 206.83,-230.87 184.02,-233.16"/>
<polygon fill="#63b8ff" stroke="#63b8ff" points="283.38,-226.7 292.98,-222.22 282.68,-219.73 283.38,-226.7"/>
</a>
</g>
</g>
<!-- Node15 -->
<g id="Node000015" class="node">
<title>Node15</title>
<g id="a_Node000015"><a xlink:href="classmqtt_1_1mqttbroker_1_1SocketContextFactory.html#a84a300c6ea4e8fc1e0370f5460a64e9a" target="_top" xlink:title=" ">
<polygon fill="white" stroke="#666666" points="232.25,-77.88 94.75,-77.88 94.75,-44.38 232.25,-44.38 232.25,-77.88"/>
<text xml:space="preserve" text-anchor="start" x="102.75" y="-64.38" font-family="Helvetica,sans-Serif" font-size="10.00">mqtt::mqttbroker::Socket</text>
<text xml:space="preserve" text-anchor="middle" x="163.5" y="-51.62" font-family="Helvetica,sans-Serif" font-size="10.00">ContextFactory::create</text>
</a>
</g>
</g>
<!-- Node14&#45;&gt;Node15 -->
<g id="edge18_Node000014_Node000015" class="edge">
<title>Node14&#45;&gt;Node15</title>
<g id="a_edge18_Node000014_Node000015"><a xlink:title=" ">
<path fill="none" stroke="#63b8ff" d="M318.29,-118.78C307.59,-114.41 296.52,-109.74 286.25,-105.12 269.93,-97.79 266.87,-93.74 250.25,-87.12 242.45,-84.02 234.12,-81.06 225.84,-78.34"/>
<polygon fill="#63b8ff" stroke="#63b8ff" points="316.83,-121.96 327.41,-122.45 319.45,-115.47 316.83,-121.96"/>
</a>
</g>
</g>
<!-- Node16 -->
<g id="Node000016" class="node">
<title>Node16</title>
<g id="a_Node000016"><a xlink:href="classmqtt_1_1mqttintegrator_1_1SocketContextFactory.html#a0667981d3feaa8d66a6ba2ecb81dc900" target="_top" xlink:title=" ">
<polygon fill="white" stroke="#666666" points="227.75,-206.25 99.25,-206.25 99.25,-160 227.75,-160 227.75,-206.25"/>
<text xml:space="preserve" text-anchor="start" x="107.25" y="-192.75" font-family="Helvetica,sans-Serif" font-size="10.00">mqtt::mqttintegrator</text>
<text xml:space="preserve" text-anchor="start" x="107.25" y="-180" font-family="Helvetica,sans-Serif" font-size="10.00">::SocketContextFactory</text>
<text xml:space="preserve" text-anchor="middle" x="163.5" y="-167.25" font-family="Helvetica,sans-Serif" font-size="10.00">::create</text>
</a>
</g>
</g>
<!-- Node14&#45;&gt;Node16 -->
<g id="edge19_Node000014_Node000016" class="edge">
<title>Node14&#45;&gt;Node16</title>
<g id="a_edge19_Node000014_Node000016"><a xlink:title=" ">
<path fill="none" stroke="#63b8ff" d="M283.08,-158.73C264.58,-162.53 245.48,-166.46 228.16,-170.03"/>
<polygon fill="#63b8ff" stroke="#63b8ff" points="283.62,-162.19 292.71,-156.75 282.21,-155.33 283.62,-162.19"/>
</a>
</g>
</g>
<!-- Node17 -->
<g id="Node000017" class="node">
<title>Node17</title>
<g id="a_Node000017"><a xlink:href="classmqtt_1_1mqttintegrator_1_1websocket_1_1SubProtocolFactory.html#ae88373a69cdee4d08cf58c4c618041d6" target="_top" xlink:title=" ">
<polygon fill="white" stroke="#666666" points="250.25,-142.25 76.75,-142.25 76.75,-96 250.25,-96 250.25,-142.25"/>
<text xml:space="preserve" text-anchor="start" x="84.75" y="-128.75" font-family="Helvetica,sans-Serif" font-size="10.00">mqtt::mqttintegrator</text>
<text xml:space="preserve" text-anchor="start" x="84.75" y="-116" font-family="Helvetica,sans-Serif" font-size="10.00">::websocket::SubProtocolFactory</text>
<text xml:space="preserve" text-anchor="middle" x="163.5" y="-103.25" font-family="Helvetica,sans-Serif" font-size="10.00">::create</text>
</a>
</g>
</g>
<!-- Node14&#45;&gt;Node17 -->
<g id="edge20_Node000014_Node000017" class="edge">
<title>Node14&#45;&gt;Node17</title>
<g id="a_edge20_Node000014_Node000017"><a xlink:title=" ">
<path fill="none" stroke="#63b8ff" d="M282.75,-131.01C272.12,-129.94 261.3,-128.85 250.73,-127.79"/>
<polygon fill="#63b8ff" stroke="#63b8ff" points="282.38,-134.49 292.68,-132 283.08,-127.52 282.38,-134.49"/>
</a>
</g>
</g>
<!-- Node19 -->
<g id="Node000019" class="node">
<title>Node19</title>
<g id="a_Node000019"><a xlink:href="issue-293_8cpp.html#a840291bc02cba5474a4cb46a9b9566fe" target="_top" xlink:title=" ">
<polygon fill="white" stroke="#666666" points="183.88,-26.5 143.12,-26.5 143.12,-5.75 183.88,-5.75 183.88,-26.5"/>
<text xml:space="preserve" text-anchor="middle" x="163.5" y="-13" font-family="Helvetica,sans-Serif" font-size="10.00">main</text>
</a>
</g>
</g>
<!-- Node18&#45;&gt;Node19 -->
<g id="edge22_Node000018_Node000019" class="edge">
<title>Node18&#45;&gt;Node19</title>
<g id="a_edge22_Node000018_Node000019"><a xlink:title=" ">
<path fill="none" stroke="#63b8ff" d="M340.6,-70.67C316.1,-59.61 281.61,-45 250.25,-35.12 228,-28.11 201.72,-22.7 184.17,-19.47"/>
<polygon fill="#63b8ff" stroke="#63b8ff" points="338.85,-73.72 349.4,-74.69 341.75,-67.35 338.85,-73.72"/>
</a>
</g>
</g>
<!-- Node21 -->
<g id="Node000021" class="node">
<title>Node21</title>
<g id="a_Node000021"><a xlink:href="classnlohmann_1_1json__patch.html#ae61d410c3afe7cf9b7a9589819e8f94a" target="_top" xlink:title=" ">
<polygon fill="white" stroke="#666666" points="225.12,-296.88 101.88,-296.88 101.88,-263.38 225.12,-263.38 225.12,-296.88"/>
<text xml:space="preserve" text-anchor="start" x="109.88" y="-283.38" font-family="Helvetica,sans-Serif" font-size="10.00">nlohmann::json_patch</text>
<text xml:space="preserve" text-anchor="middle" x="163.5" y="-270.62" font-family="Helvetica,sans-Serif" font-size="10.00">::json_patch</text>
</a>
</g>
</g>
<!-- Node20&#45;&gt;Node21 -->
<g id="edge24_Node000020_Node000021" class="edge">
<title>Node20&#45;&gt;Node21</title>
<g id="a_edge24_Node000020_Node000021"><a xlink:title=" ">
<path fill="none" stroke="#63b8ff" d="M301.02,-275.55C276.43,-276.38 249.21,-277.29 225.59,-278.08"/>
<polygon fill="#63b8ff" stroke="#63b8ff" points="301.1,-279.05 310.97,-275.22 300.86,-272.06 301.1,-279.05"/>
</a>
</g>
</g>
<!-- Node22 -->
<g id="Node000022" class="node">
<title>Node22</title>
<g id="a_Node000022"><a xlink:href="classnlohmann_1_1json__patch.html#a9ed4f8e610b70b973f9fd59696d5c10b" target="_top" xlink:title=" ">
<polygon fill="white" stroke="#666666" points="225.12,-348.88 101.88,-348.88 101.88,-315.38 225.12,-315.38 225.12,-348.88"/>
<text xml:space="preserve" text-anchor="start" x="109.88" y="-335.38" font-family="Helvetica,sans-Serif" font-size="10.00">nlohmann::json_patch</text>
<text xml:space="preserve" text-anchor="middle" x="163.5" y="-322.62" font-family="Helvetica,sans-Serif" font-size="10.00">::json_patch</text>
</a>
</g>
</g>
<!-- Node20&#45;&gt;Node22 -->
<g id="edge25_Node000020_Node000022" class="edge">
<title>Node20&#45;&gt;Node22</title>
<g id="a_edge25_Node000020_Node000022"><a xlink:title=" ">
<path fill="none" stroke="#63b8ff" d="M301.69,-293.4C276.92,-300.39 249.42,-308.15 225.59,-314.88"/>
<polygon fill="#63b8ff" stroke="#63b8ff" points="302.36,-296.85 311.03,-290.76 300.46,-290.11 302.36,-296.85"/>
</a>
</g>
</g>
<!-- Node23 -->
<g id="Node000023" class="node">
<title>Node23</title>
<g id="a_Node000023"><a xlink:href="test_2json-patch_8cpp.html#a840291bc02cba5474a4cb46a9b9566fe" target="_top" xlink:title=" ">
<polygon fill="white" stroke="#666666" points="40.75,-342.5 0,-342.5 0,-321.75 40.75,-321.75 40.75,-342.5"/>
<text xml:space="preserve" text-anchor="middle" x="20.38" y="-329" font-family="Helvetica,sans-Serif" font-size="10.00">main</text>
</a>
</g>
</g>
<!-- Node22&#45;&gt;Node23 -->
<g id="edge26_Node000022_Node000023" class="edge">
<title>Node22&#45;&gt;Node23</title>
<g id="a_edge26_Node000022_Node000023"><a xlink:title=" ">
<path fill="none" stroke="#63b8ff" d="M90.14,-332.12C71.99,-332.12 53.99,-332.12 40.96,-332.12"/>
<polygon fill="#63b8ff" stroke="#63b8ff" points="89.91,-335.63 99.91,-332.13 89.91,-328.63 89.91,-335.63"/>
</a>
</g>
</g>
<!-- Node28 -->
<g id="Node000028" class="node">
<title>Node28</title>
<g id="a_Node000028"><a xlink:href="namespaceanonymous__namespace_02issue-105-verbose-combination-errors_8cpp_03.html#a4b7578a08dda4165bf9c386de4bc2bed" target="_top" xlink:title=" ">
<polygon fill="white" stroke="#666666" points="462.75,-354.25 286.25,-354.25 286.25,-308 462.75,-308 462.75,-354.25"/>
<text xml:space="preserve" text-anchor="start" x="294.25" y="-340.75" font-family="Helvetica,sans-Serif" font-size="10.00">anonymous_namespace</text>
<text xml:space="preserve" text-anchor="start" x="294.25" y="-328" font-family="Helvetica,sans-Serif" font-size="10.00">{issue&#45;105&#45;verbose&#45;combination</text>
<text xml:space="preserve" text-anchor="middle" x="374.5" y="-315.25" font-family="Helvetica,sans-Serif" font-size="10.00">&#45;errors::cpp}::simpleTest</text>
</a>
</g>
</g>
<!-- Node27&#45;&gt;Node28 -->
<g id="edge31_Node000027_Node000028" class="edge">
<title>Node27&#45;&gt;Node28</title>
<g id="a_edge31_Node000027_Node000028"><a xlink:title=" ">
<path fill="none" stroke="#63b8ff" d="M486.74,-331.12C478.85,-331.12 470.91,-331.12 463.1,-331.12"/>
<polygon fill="#63b8ff" stroke="#63b8ff" points="486.74,-334.63 496.74,-331.13 486.74,-327.63 486.74,-334.63"/>
</a>
</g>
</g>
<!-- Node30 -->
<g id="Node000030" class="node">
<title>Node30</title>
<g id="a_Node000030"><a xlink:href="namespaceanonymous__namespace_02issue-105-verbose-combination-errors_8cpp_03.html#a6c5072c56623259eab0124fc223a4bfc" target="_top" xlink:title=" ">
<polygon fill="white" stroke="#666666" points="462.75,-418.25 286.25,-418.25 286.25,-372 462.75,-372 462.75,-418.25"/>
<text xml:space="preserve" text-anchor="start" x="294.25" y="-404.75" font-family="Helvetica,sans-Serif" font-size="10.00">anonymous_namespace</text>
<text xml:space="preserve" text-anchor="start" x="294.25" y="-392" font-family="Helvetica,sans-Serif" font-size="10.00">{issue&#45;105&#45;verbose&#45;combination</text>
<text xml:space="preserve" text-anchor="middle" x="374.5" y="-379.25" font-family="Helvetica,sans-Serif" font-size="10.00">&#45;errors::cpp}::verboseTest</text>
</a>
</g>
</g>
<!-- Node27&#45;&gt;Node30 -->
<g id="edge33_Node000027_Node000030" class="edge">
<title>Node27&#45;&gt;Node30</title>
<g id="a_edge33_Node000027_Node000030"><a xlink:title=" ">
<path fill="none" stroke="#63b8ff" d="M497.82,-357.94C483,-362.44 467.71,-367.09 453.17,-371.51"/>
<polygon fill="#63b8ff" stroke="#63b8ff" points="498.52,-361.38 507.07,-355.12 496.48,-354.68 498.52,-361.38"/>
</a>
</g>
</g>
<!-- Node29 -->
<g id="Node000029" class="node">
<title>Node29</title>
<g id="a_Node000029"><a xlink:href="issue-105-verbose-combination-errors_8cpp.html#a8216c1645620cdb2f629cde3ac02ffef" target="_top" xlink:title=" ">
<polygon fill="white" stroke="#666666" points="183.88,-399.5 143.12,-399.5 143.12,-378.75 183.88,-378.75 183.88,-399.5"/>
<text xml:space="preserve" text-anchor="middle" x="163.5" y="-386" font-family="Helvetica,sans-Serif" font-size="10.00">main</text>
</a>
</g>
</g>
<!-- Node28&#45;&gt;Node29 -->
<g id="edge32_Node000028_Node000029" class="edge">
<title>Node28&#45;&gt;Node29</title>
<g id="a_edge32_Node000028_Node000029"><a xlink:title=" ">
<path fill="none" stroke="#63b8ff" d="M277.61,-357.74C242.34,-367.52 205.75,-377.68 184.07,-383.69"/>
<polygon fill="#63b8ff" stroke="#63b8ff" points="278.33,-361.17 287.03,-355.12 276.46,-354.42 278.33,-361.17"/>
</a>
</g>
</g>
<!-- Node30&#45;&gt;Node29 -->
<g id="edge34_Node000030_Node000029" class="edge">
<title>Node30&#45;&gt;Node29</title>
<g id="a_edge34_Node000030_Node000029"><a xlink:title=" ">
<path fill="none" stroke="#63b8ff" d="M274.27,-392.28C240.19,-391.3 205.36,-390.3 184.33,-389.69"/>
<polygon fill="#63b8ff" stroke="#63b8ff" points="274.16,-395.77 284.26,-392.56 274.37,-388.78 274.16,-395.77"/>
</a>
</g>
</g>
<!-- Node32 -->
<g id="Node000032" class="node">
<title>Node32</title>
<g id="a_Node000032"><a xlink:href="classnlohmann_1_1json__schema_1_1json__validator.html#a9b658ef82ef777074679e2a60d539821" target="_top" xlink:title=" ">
<polygon fill="white" stroke="#666666" points="654.25,-46.25 519.75,-46.25 519.75,0 654.25,0 654.25,-46.25"/>
<text xml:space="preserve" text-anchor="start" x="527.75" y="-32.75" font-family="Helvetica,sans-Serif" font-size="10.00">nlohmann::json_schema</text>
<text xml:space="preserve" text-anchor="start" x="527.75" y="-20" font-family="Helvetica,sans-Serif" font-size="10.00">::json_validator::json</text>
<text xml:space="preserve" text-anchor="middle" x="587" y="-7.25" font-family="Helvetica,sans-Serif" font-size="10.00">_validator</text>
</a>
</g>
</g>
<!-- Node31&#45;&gt;Node32 -->
<g id="edge36_Node000031_Node000032" class="edge">
<title>Node31&#45;&gt;Node32</title>
<g id="a_edge36_Node000031_Node000032"><a xlink:title=" ">
<path fill="none" stroke="#63b8ff" d="M699.68,-43.75C684.75,-40.99 669.24,-38.13 654.7,-35.44"/>
<polygon fill="#63b8ff" stroke="#63b8ff" points="699,-47.19 709.47,-45.56 700.27,-40.3 699,-47.19"/>
</a>
</g>
</g>
<!-- Node32&#45;&gt;Node19 -->
<g id="edge37_Node000032_Node000019" class="edge">
<title>Node32&#45;&gt;Node19</title>
<g id="a_edge37_Node000032_Node000019"><a xlink:title=" ">
<path fill="none" stroke="#63b8ff" d="M508.44,-21.84C408.53,-20.18 240.96,-17.39 184.08,-16.45"/>
<polygon fill="#63b8ff" stroke="#63b8ff" points="508.11,-25.33 518.16,-22 508.22,-18.33 508.11,-25.33"/>
</a>
</g>
</g>
<!-- Node34&#45;&gt;Node3 -->
<g id="edge40_Node000034_Node000003" class="edge">
<title>Node34&#45;&gt;Node3</title>
<g id="a_edge40_Node000034_Node000003"><a xlink:title=" ">
<path fill="none" stroke="#63b8ff" d="M1235.15,-346.67C1227.14,-347.86 1219.04,-349.07 1211.16,-350.23"/>
<polygon fill="#63b8ff" stroke="#63b8ff" points="1235.53,-350.16 1244.91,-345.23 1234.5,-343.23 1235.53,-350.16"/>
</a>
</g>
</g>
</g>
</svg>
