<?xml version="1.0" encoding="UTF-8" standalone="no"?>
<!DOCTYPE svg PUBLIC "-//W3C//DTD SVG 1.1//EN"
 "http://www.w3.org/Graphics/SVG/1.1/DTD/svg11.dtd">
<!-- Generated by graphviz version 14.1.2 (0)
 -->
<!-- Title: anonymous_namespace{json&#45;validator.cpp}::string Pages: 1 -->
<!--zoomable 724 -->

<svg id="main" version="1.1" xmlns="http://www.w3.org/2000/svg" xmlns:xlink="http://www.w3.org/1999/xlink" xml:space="preserve" onload="init(evt)">

<style type="text/css"><![CDATA[
.node, .edge {opacity: 0.7;}
.node.selected, .edge.selected {opacity: 1;}
.edge:hover path { stroke: red; }
.edge:hover polygon { stroke: red; fill: red; }
]]></style>

<defs>
  <circle id="rim" cx="0" cy="0" r="7"/>
  <circle id="rim2" cx="0" cy="0" r="3.5"/>
  <g id="zoomPlus">
    <use xlink:href="#rim" fill="#404040"><set attributeName="fill" to="#808080" begin="zoomplus.mouseover" end="zoomplus.mouseout"/></use>
    <path d="M-4,0h8M0,-4v8" fill="none" stroke="white" stroke-width="1.5" pointer-events="none"/>
  </g>
  <g id="zoomMin">
    <use xlink:href="#rim" fill="#404040"><set attributeName="fill" to="#808080" begin="zoomminus.mouseover" end="zoomminus.mouseout"/></use>
    <path d="M-4,0h8" fill="none" stroke="white" stroke-width="1.5" pointer-events="none"/>
  </g>
  <g id="arrowUp" transform="translate(30 24)">
    <use xlink:href="#rim"/>
    <path pointer-events="none" fill="none" stroke="white" stroke-width="1.5" d="M0,-3.0v7 M-2.5,-0.5L0,-3.0L2.5,-0.5"/>
  </g>
  <g id="arrowRight" transform="rotate(90) translate(36 -43)">
    <use xlink:href="#rim"/>
    <path pointer-events="none" fill="none" stroke="white" stroke-width="1.5" d="M0,-3.0v7 M-2.5,-0.5L0,-3.0L2.5,-0.5"/>
  </g>
  <g id="arrowDown" transform="rotate(180) translate(-30 -48)">
    <use xlink:href="#rim"/>
    <path pointer-events="none" fill="none" stroke="white" stroke-width="1.5" d="M0,-3.0v7 M-2.5,-0.5L0,-3.0L2.5,-0.5"/>
  </g>
  <g id="arrowLeft" transform="rotate(270) translate(-36 17)">
    <use xlink:href="#rim"/>
    <path pointer-events="none" fill="none" stroke="white" stroke-width="1.5" d="M0,-3.0v7 M-2.5,-0.5L0,-3.0L2.5,-0.5"/>
  </g>
  <g id="resetDef">
    <use xlink:href="#rim2" fill="#404040"><set attributeName="fill" to="#808080" begin="reset.mouseover" end="reset.mouseout"/></use>
  </g>
</defs>
<script type="application/ecmascript">
var viewWidth = 865;
var viewHeight = 724;
var sectionId = 'dynsection-1';
</script>
<script type="application/ecmascript" xlink:href="svg.min.js"/>
<svg id="graph" class="graph">
<g id="viewport">
<title>anonymous_namespace{json&#45;validator.cpp}::string</title>
<!-- Node1 -->
<g id="Node000001" class="node">
<title>Node1</title>
<g id="a_Node000001"><a xlink:title=" ">
<polygon fill="#999999" stroke="none" points="616,-46.25 489.5,-46.25 489.5,0 616,0 616,-46.25"/>
<text xml:space="preserve" text-anchor="start" x="493.5" y="-32.75" font-family="Helvetica,sans-Serif" font-size="10.00">anonymous_namespace</text>
<text xml:space="preserve" text-anchor="start" x="493.5" y="-20" font-family="Helvetica,sans-Serif" font-size="10.00">{json&#45;validator.cpp}</text>
<text xml:space="preserve" text-anchor="start" x="535.88" y="-7.25" font-family="Helvetica,sans-Serif" font-size="10.00">::string</text>
<polygon fill="none" stroke="#666666" points="489.5,0 489.5,-46.25 616,-46.25 616,0 489.5,0"/>
</a>
</g>
</g>
<!-- Node2 -->
<g id="Node000002" class="node">
<title>Node2</title>
<g id="a_Node000002"><a xlink:href="classanonymous__namespace_02json-validator_8cpp_03_1_1schema.html" target="_top" xlink:title=" ">
<polygon fill="white" stroke="none" points="494,-164 367.5,-164 367.5,-117.75 494,-117.75 494,-164"/>
<text xml:space="preserve" text-anchor="start" x="371.5" y="-150.5" font-family="Helvetica,sans-Serif" font-size="10.00">anonymous_namespace</text>
<text xml:space="preserve" text-anchor="start" x="371.5" y="-137.75" font-family="Helvetica,sans-Serif" font-size="10.00">{json&#45;validator.cpp}</text>
<text xml:space="preserve" text-anchor="start" x="408.62" y="-125" font-family="Helvetica,sans-Serif" font-size="10.00">::schema</text>
<polygon fill="none" stroke="#666666" points="367.5,-117.75 367.5,-164 494,-164 494,-117.75 367.5,-117.75"/>
</a>
</g>
</g>
<!-- Node2&#45;&gt;Node1 -->
<g id="edge1_Node000001_Node000002" class="edge">
<title>Node2&#45;&gt;Node1</title>
<g id="a_edge1_Node000001_Node000002"><a xlink:title=" ">
<path fill="none" stroke="#63b8ff" d="M452.56,-109.76C465.85,-95.76 483,-78.99 498.75,-64.25 505.17,-58.24 512.22,-51.86 519.12,-45.99"/>
<polygon fill="none" stroke="#63b8ff" points="450.1,-107.26 445.85,-116.97 455.23,-112.03 450.1,-107.26"/>
</a>
</g>
</g>
<!-- Node2&#45;&gt;Node1 -->
<g id="edge14_Node000001_Node000002" class="edge">
<title>Node2&#45;&gt;Node1</title>
<g id="a_edge14_Node000001_Node000002"><a xlink:title=" ">
<path fill="none" stroke="#63b8ff" d="M468.08,-110.55C483.2,-96.4 500.71,-79.27 516.75,-64.25 523.17,-58.24 530.22,-51.86 536.48,-45.99"/>
<polygon fill="none" stroke="#63b8ff" points="466.02,-107.69 461.05,-117.05 470.77,-112.83 466.02,-107.69"/>
</a>
</g>
</g>
<!-- Node3 -->
<g id="Node000003" class="node">
<title>Node3</title>
<g id="a_Node000003"><a xlink:href="classnlohmann_1_1json__schema_1_1root__schema.html" target="_top" xlink:title=" ">
<polygon fill="white" stroke="none" points="429,-252.25 302.5,-252.25 302.5,-218.75 429,-218.75 429,-252.25"/>
<text xml:space="preserve" text-anchor="start" x="306.5" y="-238.75" font-family="Helvetica,sans-Serif" font-size="10.00">nlohmann::json_schema</text>
<text xml:space="preserve" text-anchor="start" x="331.25" y="-226" font-family="Helvetica,sans-Serif" font-size="10.00">::root_schema</text>
<polygon fill="none" stroke="#666666" points="302.5,-218.75 302.5,-252.25 429,-252.25 429,-218.75 302.5,-218.75"/>
</a>
</g>
</g>
<!-- Node3&#45;&gt;Node2 -->
<g id="edge2_Node000002_Node000003" class="edge">
<title>Node3&#45;&gt;Node2</title>
<g id="a_edge2_Node000002_Node000003"><a xlink:title=" ">
<path fill="none" stroke="#63b8ff" d="M376.78,-218.79C385.29,-206.66 397.35,-189.46 407.92,-174.41"/>
<polygon fill="none" stroke="#63b8ff" points="407.87,-174.49 408.04,-167.28 414.76,-164.66 414.59,-171.87 407.87,-174.49"/>
</a>
</g>
<text xml:space="preserve" text-anchor="start" x="405.14" y="-188.25" font-family="Helvetica,sans-Serif" font-size="10.00" fill="grey">#root_</text>
</g>
<!-- Node4 -->
<g id="Node000004" class="node">
<title>Node4</title>
<g id="a_Node000004"><a xlink:title=" ">
<polygon fill="white" stroke="none" points="141.5,-639.12 0,-639.12 0,-618.38 141.5,-618.38 141.5,-639.12"/>
<text xml:space="preserve" text-anchor="start" x="4" y="-625.62" font-family="Helvetica,sans-Serif" font-size="10.00">std::shared_ptr&lt; schema &gt;</text>
<polygon fill="none" stroke="#666666" points="0,-618.38 0,-639.12 141.5,-639.12 141.5,-618.38 0,-618.38"/>
</a>
</g>
</g>
<!-- Node4&#45;&gt;Node3 -->
<g id="edge3_Node000003_Node000004" class="edge">
<title>Node4&#45;&gt;Node3</title>
<g id="a_edge3_Node000003_Node000004"><a xlink:title=" ">
<path fill="none" stroke="#63b8ff" d="M69.43,-618.57C67.16,-601.96 62.75,-565.79 62.75,-535.12 62.75,-535.12 62.75,-535.12 62.75,-329.12 62.75,-281.74 199.97,-256.19 289.72,-244.54"/>
<polygon fill="none" stroke="#63b8ff" points="289.8,-244.53 295.25,-239.81 301.71,-243.03 296.25,-247.75 289.8,-244.53"/>
</a>
</g>
<text xml:space="preserve" text-anchor="start" x="65.75" y="-421.62" font-family="Helvetica,sans-Serif" font-size="10.00" fill="grey">&#45;root_</text>
</g>
<!-- Node9 -->
<g id="Node000009" class="node">
<title>Node9</title>
<g id="a_Node000009"><a xlink:title=" ">
<polygon fill="white" stroke="none" points="246.62,-550.88 90.88,-550.88 90.88,-517.38 246.62,-517.38 246.62,-550.88"/>
<text xml:space="preserve" text-anchor="start" x="94.88" y="-537.38" font-family="Helvetica,sans-Serif" font-size="10.00">std::map&lt; std::string,</text>
<text xml:space="preserve" text-anchor="start" x="94.88" y="-524.62" font-family="Helvetica,sans-Serif" font-size="10.00"> std::shared_ptr&lt; schema &gt; &gt;</text>
<polygon fill="none" stroke="#666666" points="90.88,-517.38 90.88,-550.88 246.62,-550.88 246.62,-517.38 90.88,-517.38"/>
</a>
</g>
</g>
<!-- Node4&#45;&gt;Node9 -->
<g id="edge10_Node000009_Node000004" class="edge">
<title>Node4&#45;&gt;Node9</title>
<g id="a_edge10_Node000009_Node000004"><a xlink:title=" ">
<path fill="none" stroke="#63b8ff" d="M80.5,-618.53C94.9,-604.92 122.34,-578.99 142.81,-559.64"/>
<polygon fill="none" stroke="#63b8ff" points="142.84,-559.61 144.46,-552.58 151.56,-551.37 149.95,-558.4 142.84,-559.61"/>
</a>
</g>
<text xml:space="preserve" text-anchor="start" x="128.62" y="-581.5" font-family="Helvetica,sans-Serif" font-size="10.00" fill="grey">+elements</text>
</g>
<!-- Node5 -->
<g id="Node000005" class="node">
<title>Node5</title>
<g id="a_Node000005"><a xlink:title=" ">
<polygon fill="white" stroke="none" points="442.5,-353.25 289,-353.25 289,-307 442.5,-307 442.5,-353.25"/>
<text xml:space="preserve" text-anchor="start" x="293" y="-339.75" font-family="Helvetica,sans-Serif" font-size="10.00">std::map&lt; std::string,</text>
<text xml:space="preserve" text-anchor="start" x="293" y="-327" font-family="Helvetica,sans-Serif" font-size="10.00"> nlohmann::json_schema</text>
<text xml:space="preserve" text-anchor="start" x="293" y="-314.25" font-family="Helvetica,sans-Serif" font-size="10.00">::root_schema::schema_file &gt;</text>
<polygon fill="none" stroke="#666666" points="289,-307 289,-353.25 442.5,-353.25 442.5,-307 289,-307"/>
</a>
</g>
</g>
<!-- Node5&#45;&gt;Node3 -->
<g id="edge4_Node000003_Node000005" class="edge">
<title>Node5&#45;&gt;Node3</title>
<g id="a_edge4_Node000003_Node000005"><a xlink:title=" ">
<path fill="none" stroke="#63b8ff" d="M365.75,-307.17C365.75,-294.63 365.75,-278.75 365.75,-265.22"/>
<polygon fill="none" stroke="#63b8ff" points="365.75,-265.11 361.75,-259.11 365.75,-253.11 369.75,-259.11 365.75,-265.11"/>
</a>
</g>
<text xml:space="preserve" text-anchor="start" x="368.75" y="-276.5" font-family="Helvetica,sans-Serif" font-size="10.00" fill="grey">&#45;files_</text>
</g>
<!-- Node6 -->
<g id="Node000006" class="node">
<title>Node6</title>
<g id="a_Node000006"><a xlink:title=" ">
<polygon fill="white" stroke="none" points="455.12,-639.12 398.38,-639.12 398.38,-618.38 455.12,-618.38 455.12,-639.12"/>
<text xml:space="preserve" text-anchor="start" x="402.38" y="-625.62" font-family="Helvetica,sans-Serif" font-size="10.00">std::string</text>
<polygon fill="none" stroke="#666666" points="398.38,-618.38 398.38,-639.12 455.12,-639.12 455.12,-618.38 398.38,-618.38"/>
</a>
</g>
</g>
<!-- Node6&#45;&gt;Node1 -->
<g id="edge17_Node000001_Node000006" class="edge">
<title>Node6&#45;&gt;Node1</title>
<g id="a_edge17_Node000001_Node000006"><a xlink:title=" ">
<path fill="none" stroke="#63b8ff" d="M455,-624.15C500.44,-616.6 584.75,-594.58 584.75,-535.12 584.75,-535.12 584.75,-535.12 584.75,-139.88 584.75,-111.68 575.82,-80.98 567.4,-58.28"/>
<polygon fill="none" stroke="#63b8ff" points="567.39,-58.26 561.48,-54.13 563.03,-47.09 568.94,-51.22 567.39,-58.26"/>
</a>
</g>
<text xml:space="preserve" text-anchor="start" x="587.75" y="-327" font-family="Helvetica,sans-Serif" font-size="10.00" fill="grey">&#45;patternString_</text>
</g>
<!-- Node6&#45;&gt;Node5 -->
<g id="edge5_Node000005_Node000006" class="edge">
<title>Node6&#45;&gt;Node5</title>
<g id="a_edge5_Node000005_Node000006"><a xlink:title=" ">
<path fill="none" stroke="#63b8ff" d="M426.45,-618.47C424.97,-573.8 418.34,-382.54 412.75,-371.25 411.29,-368.3 409.51,-365.49 407.51,-362.82"/>
<polygon fill="none" stroke="#63b8ff" points="407.5,-362.81 400.51,-361.03 399.46,-353.9 406.45,-355.67 407.5,-362.81"/>
</a>
</g>
<text xml:space="preserve" text-anchor="start" x="424.61" y="-473.12" font-family="Helvetica,sans-Serif" font-size="10.00" fill="grey">+keys</text>
</g>
<!-- Node6&#45;&gt;Node9 -->
<g id="edge9_Node000009_Node000006" class="edge">
<title>Node6&#45;&gt;Node9</title>
<g id="a_edge9_Node000009_Node000006"><a xlink:title=" ">
<path fill="none" stroke="#63b8ff" d="M398.81,-621.59C376.5,-616.06 344.8,-606.84 319,-594 306.17,-587.61 305.55,-581.7 292.75,-575.25 276.9,-567.26 259.11,-560.4 242.07,-554.73"/>
<polygon fill="none" stroke="#63b8ff" points="242.12,-554.75 235.18,-556.72 230.69,-551.08 237.63,-549.11 242.12,-554.75"/>
</a>
</g>
<text xml:space="preserve" text-anchor="start" x="322" y="-581.5" font-family="Helvetica,sans-Serif" font-size="10.00" fill="grey">+keys</text>
</g>
<!-- Node10 -->
<g id="Node000010" class="node">
<title>Node10</title>
<g id="a_Node000010"><a xlink:title=" ">
<polygon fill="white" stroke="none" points="398.38,-557.25 265.12,-557.25 265.12,-511 398.38,-511 398.38,-557.25"/>
<text xml:space="preserve" text-anchor="start" x="269.12" y="-543.75" font-family="Helvetica,sans-Serif" font-size="10.00">std::map&lt; std::string,</text>
<text xml:space="preserve" text-anchor="start" x="269.12" y="-531" font-family="Helvetica,sans-Serif" font-size="10.00"> std::shared_ptr&lt; schema</text>
<text xml:space="preserve" text-anchor="start" x="311.12" y="-518.25" font-family="Helvetica,sans-Serif" font-size="10.00">_ref &gt; &gt;</text>
<polygon fill="none" stroke="#666666" points="265.12,-511 265.12,-557.25 398.38,-557.25 398.38,-511 265.12,-511"/>
</a>
</g>
</g>
<!-- Node6&#45;&gt;Node10 -->
<g id="edge12_Node000010_Node000006" class="edge">
<title>Node6&#45;&gt;Node10</title>
<g id="a_edge12_Node000010_Node000006"><a xlink:title=" ">
<path fill="none" stroke="#63b8ff" d="M409.71,-618.41C399.33,-612.26 386.16,-603.59 376,-594 367.65,-586.11 359.71,-576.51 352.92,-567.37"/>
<polygon fill="none" stroke="#63b8ff" points="353,-567.49 346.26,-564.92 346.04,-557.71 352.78,-560.28 353,-567.49"/>
</a>
</g>
<text xml:space="preserve" text-anchor="start" x="379" y="-581.5" font-family="Helvetica,sans-Serif" font-size="10.00" fill="grey">+keys</text>
</g>
<!-- Node14 -->
<g id="Node000014" class="node">
<title>Node14</title>
<g id="a_Node000014"><a xlink:title=" ">
<polygon fill="white" stroke="none" points="569.25,-493 468.25,-493 468.25,-459.5 569.25,-459.5 569.25,-493"/>
<text xml:space="preserve" text-anchor="start" x="472.25" y="-479.5" font-family="Helvetica,sans-Serif" font-size="10.00">std::pair&lt; bool, std</text>
<text xml:space="preserve" text-anchor="start" x="496.25" y="-466.75" font-family="Helvetica,sans-Serif" font-size="10.00">::string &gt;</text>
<polygon fill="none" stroke="#666666" points="468.25,-459.5 468.25,-493 569.25,-493 569.25,-459.5 468.25,-459.5"/>
</a>
</g>
</g>
<!-- Node6&#45;&gt;Node14 -->
<g id="edge19_Node000014_Node000006" class="edge">
<title>Node6&#45;&gt;Node14</title>
<g id="a_edge19_Node000014_Node000006"><a xlink:title=" ">
<path fill="none" stroke="#63b8ff" d="M432.23,-618.79C445.79,-596.6 481.36,-538.41 502.43,-503.95"/>
<polygon fill="none" stroke="#63b8ff" points="502.49,-503.85 502.21,-496.64 508.75,-493.61 509.03,-500.82 502.49,-503.85"/>
</a>
</g>
<text xml:space="preserve" text-anchor="start" x="460.25" y="-581.5" font-family="Helvetica,sans-Serif" font-size="10.00" fill="grey">+second_type</text>
</g>
<!-- Node7 -->
<g id="Node000007" class="node">
<title>Node7</title>
<g id="a_Node000007"><a xlink:title=" ">
<polygon fill="white" stroke="none" points="474.62,-716 378.88,-716 378.88,-682.5 474.62,-682.5 474.62,-716"/>
<text xml:space="preserve" text-anchor="start" x="382.88" y="-702.5" font-family="Helvetica,sans-Serif" font-size="10.00">std::basic_string&lt;</text>
<text xml:space="preserve" text-anchor="start" x="408.38" y="-689.75" font-family="Helvetica,sans-Serif" font-size="10.00"> Char &gt;</text>
<polygon fill="none" stroke="#666666" points="378.88,-682.5 378.88,-716 474.62,-716 474.62,-682.5 378.88,-682.5"/>
</a>
</g>
</g>
<!-- Node7&#45;&gt;Node6 -->
<g id="edge6_Node000006_Node000007" class="edge">
<title>Node7&#45;&gt;Node6</title>
<g id="a_edge6_Node000006_Node000007"><a xlink:title=" ">
<path fill="none" stroke="#63b8ff" d="M426.75,-671.45C426.75,-660.03 426.75,-647.44 426.75,-639.12"/>
<polygon fill="none" stroke="#63b8ff" points="423.25,-671.19 426.75,-681.19 430.25,-671.19 423.25,-671.19"/>
</a>
</g>
</g>
<!-- Node8 -->
<g id="Node000008" class="node">
<title>Node8</title>
<g id="a_Node000008"><a xlink:href="structnlohmann_1_1json__schema_1_1root__schema_1_1schema__file.html" target="_top" xlink:title=" ">
<polygon fill="white" stroke="none" points="398.88,-441.5 256.62,-441.5 256.62,-408 398.88,-408 398.88,-441.5"/>
<text xml:space="preserve" text-anchor="start" x="260.62" y="-428" font-family="Helvetica,sans-Serif" font-size="10.00">nlohmann::json_schema</text>
<text xml:space="preserve" text-anchor="start" x="260.62" y="-415.25" font-family="Helvetica,sans-Serif" font-size="10.00">::root_schema::schema_file</text>
<polygon fill="none" stroke="#666666" points="256.62,-408 256.62,-441.5 398.88,-441.5 398.88,-408 256.62,-408"/>
</a>
</g>
</g>
<!-- Node8&#45;&gt;Node5 -->
<g id="edge7_Node000005_Node000008" class="edge">
<title>Node8&#45;&gt;Node5</title>
<g id="a_edge7_Node000005_Node000008"><a xlink:title=" ">
<path fill="none" stroke="#63b8ff" d="M334.2,-408.04C339.03,-396.26 345.82,-379.71 351.86,-364.98"/>
<polygon fill="none" stroke="#63b8ff" points="351.81,-365.11 350.38,-358.04 356.36,-354.01 357.79,-361.08 351.81,-365.11"/>
</a>
</g>
<text xml:space="preserve" text-anchor="start" x="352.03" y="-377.5" font-family="Helvetica,sans-Serif" font-size="10.00" fill="grey">+elements</text>
</g>
<!-- Node9&#45;&gt;Node8 -->
<g id="edge8_Node000008_Node000009" class="edge">
<title>Node9&#45;&gt;Node8</title>
<g id="a_edge8_Node000008_Node000009"><a xlink:title=" ">
<path fill="none" stroke="#63b8ff" d="M187.76,-517.66C207.16,-502.17 238.38,-478.05 267,-459.5 273.23,-455.46 279.97,-451.42 286.62,-447.6"/>
<polygon fill="none" stroke="#63b8ff" points="286.36,-447.75 289.64,-441.32 296.83,-441.88 293.55,-448.3 286.36,-447.75"/>
</a>
</g>
<text xml:space="preserve" text-anchor="start" x="270" y="-473.12" font-family="Helvetica,sans-Serif" font-size="10.00" fill="grey">+schemas</text>
</g>
<!-- Node10&#45;&gt;Node8 -->
<g id="edge11_Node000008_Node000010" class="edge">
<title>Node10&#45;&gt;Node8</title>
<g id="a_edge11_Node000008_Node000010"><a xlink:title=" ">
<path fill="none" stroke="#63b8ff" d="M330.93,-511.14C330.32,-494.69 329.48,-472.07 328.81,-454.24"/>
<polygon fill="none" stroke="#63b8ff" points="328.82,-454.34 324.59,-448.49 328.37,-442.35 332.59,-448.19 328.82,-454.34"/>
</a>
</g>
<text xml:space="preserve" text-anchor="start" x="333.23" y="-473.12" font-family="Helvetica,sans-Serif" font-size="10.00" fill="grey">+unresolved</text>
</g>
<!-- Node11 -->
<g id="Node000011" class="node">
<title>Node11</title>
<g id="a_Node000011"><a xlink:title=" ">
<polygon fill="white" stroke="none" points="296.88,-645.5 166.62,-645.5 166.62,-612 296.88,-612 296.88,-645.5"/>
<text xml:space="preserve" text-anchor="start" x="170.62" y="-632" font-family="Helvetica,sans-Serif" font-size="10.00">std::shared_ptr&lt; schema</text>
<text xml:space="preserve" text-anchor="start" x="216.75" y="-619.25" font-family="Helvetica,sans-Serif" font-size="10.00">_ref &gt;</text>
<polygon fill="none" stroke="#666666" points="166.62,-612 166.62,-645.5 296.88,-645.5 296.88,-612 166.62,-612"/>
</a>
</g>
</g>
<!-- Node11&#45;&gt;Node10 -->
<g id="edge13_Node000010_Node000011" class="edge">
<title>Node11&#45;&gt;Node10</title>
<g id="a_edge13_Node000010_Node000011"><a xlink:title=" ">
<path fill="none" stroke="#63b8ff" d="M227.8,-612.14C225.91,-600.9 225.42,-585.92 232.75,-575.25 236.07,-570.42 243.79,-565.53 253.53,-560.9"/>
<polygon fill="none" stroke="#63b8ff" points="253.42,-560.95 257.33,-554.89 264.43,-556.17 260.52,-562.23 253.42,-560.95"/>
</a>
</g>
<text xml:space="preserve" text-anchor="start" x="235.75" y="-581.5" font-family="Helvetica,sans-Serif" font-size="10.00" fill="grey">+elements</text>
</g>
<!-- Node12 -->
<g id="Node000012" class="node">
<title>Node12</title>
<g id="a_Node000012"><a xlink:title=" ">
<polygon fill="white" stroke="none" points="738.62,-151.25 612.88,-151.25 612.88,-130.5 738.62,-130.5 738.62,-151.25"/>
<text xml:space="preserve" text-anchor="start" x="616.88" y="-137.75" font-family="Helvetica,sans-Serif" font-size="10.00">std::pair&lt; bool, size_t &gt;</text>
<polygon fill="none" stroke="#666666" points="612.88,-130.5 612.88,-151.25 738.62,-151.25 738.62,-130.5 612.88,-130.5"/>
</a>
</g>
</g>
<!-- Node12&#45;&gt;Node1 -->
<g id="edge15_Node000001_Node000012" class="edge">
<title>Node12&#45;&gt;Node1</title>
<g id="a_edge15_Node000001_Node000012"><a xlink:title=" ">
<path fill="none" stroke="#63b8ff" d="M666.91,-130.85C652.76,-116.49 624.05,-87.67 598.75,-64.25 595.28,-61.04 591.62,-57.73 587.95,-54.45"/>
<polygon fill="none" stroke="#63b8ff" points="587.97,-54.47 580.83,-53.5 578.97,-46.53 586.12,-47.5 587.97,-54.47"/>
</a>
</g>
<text xml:space="preserve" text-anchor="start" x="638.04" y="-87.25" font-family="Helvetica,sans-Serif" font-size="10.00" fill="grey">&#45;maxLength_</text>
<text xml:space="preserve" text-anchor="start" x="638.04" y="-70.5" font-family="Helvetica,sans-Serif" font-size="10.00" fill="grey">&#45;minLength_</text>
</g>
<!-- Node13 -->
<g id="Node000013" class="node">
<title>Node13</title>
<g id="a_Node000013"><a xlink:title=" ">
<polygon fill="white" stroke="none" points="857.25,-157.62 756.25,-157.62 756.25,-124.12 857.25,-124.12 857.25,-157.62"/>
<text xml:space="preserve" text-anchor="start" x="760.25" y="-144.12" font-family="Helvetica,sans-Serif" font-size="10.00">std::pair&lt; bool, std</text>
<text xml:space="preserve" text-anchor="start" x="784.25" y="-131.38" font-family="Helvetica,sans-Serif" font-size="10.00">::regex &gt;</text>
<polygon fill="none" stroke="#666666" points="756.25,-124.12 756.25,-157.62 857.25,-157.62 857.25,-124.12 756.25,-124.12"/>
</a>
</g>
</g>
<!-- Node13&#45;&gt;Node1 -->
<g id="edge16_Node000001_Node000013" class="edge">
<title>Node13&#45;&gt;Node1</title>
<g id="a_edge16_Node000001_Node000013"><a xlink:title=" ">
<path fill="none" stroke="#63b8ff" d="M790.81,-124.21C772.49,-107.06 740.8,-79.91 708.75,-64.25 683.81,-52.06 654.76,-43.3 628.53,-37.13"/>
<polygon fill="none" stroke="#63b8ff" points="628.51,-37.12 621.78,-39.71 616.8,-34.5 623.52,-31.91 628.51,-37.12"/>
</a>
</g>
<text xml:space="preserve" text-anchor="start" x="765.11" y="-78.88" font-family="Helvetica,sans-Serif" font-size="10.00" fill="grey">&#45;pattern_</text>
</g>
<!-- Node14&#45;&gt;Node1 -->
<g id="edge18_Node000001_Node000014" class="edge">
<title>Node14&#45;&gt;Node1</title>
<g id="a_edge18_Node000001_Node000014"><a xlink:title=" ">
<path fill="none" stroke="#63b8ff" d="M519.55,-459.68C520.44,-441.11 521.75,-409.11 521.75,-381.62 521.75,-381.62 521.75,-381.62 521.75,-139.88 521.75,-111.57 530.51,-80.66 538.71,-57.9"/>
<polygon fill="none" stroke="#63b8ff" points="538.71,-57.91 537.09,-50.89 542.96,-46.69 544.57,-53.72 538.71,-57.91"/>
</a>
</g>
<text xml:space="preserve" text-anchor="start" x="524.75" y="-276.5" font-family="Helvetica,sans-Serif" font-size="10.00" fill="grey">&#45;format_</text>
</g>
</g>
</svg>

<g id="navigator" transform="translate(0 0)" fill="#404254">
  <rect fill="#f2f5e9" fill-opacity="0.5" stroke="#606060" stroke-width=".5" x="0" y="0" width="60" height="60"/>
  <use id="zoomplus" xlink:href="#zoomPlus" x="17" y="9" onmousedown="handleZoom(evt,'in')"/>
  <use id="zoomminus" xlink:href="#zoomMin" x="42" y="9" onmousedown="handleZoom(evt,'out')"/>
  <use id="reset" xlink:href="#resetDef" x="30" y="36" onmousedown="handleReset()"/>
   <use id="arrowup" xlink:href="#arrowUp" x="0" y="0" onmousedown="handlePan(0,-1)"/>
  <use id="arrowright" xlink:href="#arrowRight" x="0" y="0" onmousedown="handlePan(1,0)"/>
  <use id="arrowdown" xlink:href="#arrowDown" x="0" y="0" onmousedown="handlePan(0,1)"/>
  <use id="arrowleft" xlink:href="#arrowLeft" x="0" y="0" onmousedown="handlePan(-1,0)"/>
</g>
<svg viewBox="0 0 15 15" width="100%" height="30px" preserveAspectRatio="xMaxYMin meet">
 <g id="arrow_out" transform="scale(0.3 0.3)">
  <a xlink:href="classanonymous__namespace_02json-validator_8cpp_03_1_1string__coll__graph_org.svg" target="_base">
   <rect id="button" ry="5" rx="5" y="6" x="6" height="38" width="38"
        fill="#f2f5e9" fill-opacity="0.5" stroke="#606060" stroke-width="1.0"/>
   <path id="arrow"
     d="M 11.500037,31.436501 C 11.940474,20.09759 22.043105,11.32322 32.158766,21.979434 L 37.068811,17.246167 C 37.068811,17.246167 37.088388,32 37.088388,32 L 22.160133,31.978069 C 22.160133,31.978069 26.997745,27.140456 26.997745,27.140456 C 18.528582,18.264221 13.291696,25.230495 11.500037,31.436501 z"
     style="fill:#404040;"/>
  </a>
 </g>
</svg>

<style type='text/css'>
<![CDATA[
[data-mouse-over-selected='false'] { opacity: 0.7; }
[data-mouse-over-selected='true']  { opacity: 1.0; }
]]>
</style>
<script type="application/ecmascript"><![CDATA[
document.addEventListener('DOMContentLoaded', (event) => {
  highlightEdges();
  highlightAdjacentNodes();
});
]]></script>
</svg>
