<?xml version="1.0" encoding="UTF-8" standalone="no"?>
<!DOCTYPE svg PUBLIC "-//W3C//DTD SVG 1.1//EN"
 "http://www.w3.org/Graphics/SVG/1.1/DTD/svg11.dtd">
<!-- Generated by graphviz version 2.42.4 (0)
 -->
<!-- Title: inja::Parser::add_to_template_storage Pages: 1 -->
<!--zoomable 344 -->

<svg id="main" version="1.1" xmlns="http://www.w3.org/2000/svg" xmlns:xlink="http://www.w3.org/1999/xlink" xml:space="preserve" onload="init(evt)">
<style type="text/css"><![CDATA[
.node, .edge {opacity: 0.7;}
.node.selected, .edge.selected {opacity: 1;}
.edge:hover path { stroke: red; }
.edge:hover polygon { stroke: red; fill: red; }
]]></style>

<defs>
  <circle id="rim" cx="0" cy="0" r="7"/>
  <circle id="rim2" cx="0" cy="0" r="3.5"/>
  <g id="zoomPlus">
    <use xlink:href="#rim" fill="#404040"><set attributeName="fill" to="#808080" begin="zoomplus.mouseover" end="zoomplus.mouseout"/></use>
    <path d="M-4,0h8M0,-4v8" fill="none" stroke="white" stroke-width="1.5" pointer-events="none"/>
  </g>
  <g id="zoomMin">
    <use xlink:href="#rim" fill="#404040"><set attributeName="fill" to="#808080" begin="zoomminus.mouseover" end="zoomminus.mouseout"/></use>
    <path d="M-4,0h8" fill="none" stroke="white" stroke-width="1.5" pointer-events="none"/>
  </g>
  <g id="arrowUp" transform="translate(30 24)">
    <use xlink:href="#rim"/>
    <path pointer-events="none" fill="none" stroke="white" stroke-width="1.5" d="M0,-3.0v7 M-2.5,-0.5L0,-3.0L2.5,-0.5"/>
  </g>
  <g id="arrowRight" transform="rotate(90) translate(36 -43)">
    <use xlink:href="#rim"/>
    <path pointer-events="none" fill="none" stroke="white" stroke-width="1.5" d="M0,-3.0v7 M-2.5,-0.5L0,-3.0L2.5,-0.5"/>
  </g>
  <g id="arrowDown" transform="rotate(180) translate(-30 -48)">
    <use xlink:href="#rim"/>
    <path pointer-events="none" fill="none" stroke="white" stroke-width="1.5" d="M0,-3.0v7 M-2.5,-0.5L0,-3.0L2.5,-0.5"/>
  </g>
  <g id="arrowLeft" transform="rotate(270) translate(-36 17)">
    <use xlink:href="#rim"/>
    <path pointer-events="none" fill="none" stroke="white" stroke-width="1.5" d="M0,-3.0v7 M-2.5,-0.5L0,-3.0L2.5,-0.5"/>
  </g>
  <g id="resetDef">
    <use xlink:href="#rim2" fill="#404040"><set attributeName="fill" to="#808080" begin="reset.mouseover" end="reset.mouseout"/></use>
  </g>
</defs>
<script type="application/ecmascript">
var viewWidth = 1536;
var viewHeight = 344;
var sectionId = 'dynsection-7';
</script>
<script type="application/ecmascript" xlink:href="svg.min.js"/>
<svg id="graph" class="graph">
<g id="viewport">
<title>inja::Parser::add_to_template_storage</title>
<!-- Node1 -->
<g id="Node000001" class="node">
<title>Node1</title>
<g id="a_Node000001"><a xlink:title=" ">
<polygon fill="#999999" stroke="#666666" points="1528,-190 1418,-190 1418,-160 1528,-160 1528,-190"/>
<text text-anchor="start" x="1426" y="-178" font-family="Helvetica,sans-Serif" font-size="10.00">inja::Parser::add_to</text>
<text text-anchor="middle" x="1473" y="-167" font-family="Helvetica,sans-Serif" font-size="10.00">_template_storage</text>
</a>
</g>
</g>
<!-- Node2 -->
<g id="Node000002" class="node">
<title>Node2</title>
<g id="a_Node000002"><a xlink:href="classinja_1_1Parser.html#a5a26bdcce0ae076bf010ee7442d8928e" target="_top" xlink:title=" ">
<polygon fill="white" stroke="#666666" points="1382,-212 1278,-212 1278,-182 1382,-182 1382,-212"/>
<text text-anchor="start" x="1286" y="-200" font-family="Helvetica,sans-Serif" font-size="10.00">inja::Parser::parse</text>
<text text-anchor="middle" x="1330" y="-189" font-family="Helvetica,sans-Serif" font-size="10.00">_statement</text>
</a>
</g>
</g>
<!-- Node1&#45;&gt;Node2 -->
<g id="edge1_Node000001_Node000002" class="edge">
<title>Node1&#45;&gt;Node2</title>
<g id="a_edge1_Node000001_Node000002"><a xlink:title=" ">
<path fill="none" stroke="#63b8ff" d="M1407.94,-185C1399.39,-186.33 1390.71,-187.68 1382.42,-188.98"/>
<polygon fill="#63b8ff" stroke="#63b8ff" points="1408.55,-188.44 1417.89,-183.44 1407.47,-181.53 1408.55,-188.44"/>
</a>
</g>
</g>
<!-- Node3 -->
<g id="Node000003" class="node">
<title>Node3</title>
<g id="a_Node000003"><a xlink:href="classinja_1_1Parser.html#a9a561141f71073df671b2b7ecb4608ba" target="_top" xlink:title=" ">
<polygon fill="white" stroke="#666666" points="1242,-206.5 1114,-206.5 1114,-187.5 1242,-187.5 1242,-206.5"/>
<text text-anchor="middle" x="1178" y="-194.5" font-family="Helvetica,sans-Serif" font-size="10.00">inja::Parser::parse_into</text>
</a>
</g>
</g>
<!-- Node2&#45;&gt;Node3 -->
<g id="edge2_Node000002_Node000003" class="edge">
<title>Node2&#45;&gt;Node3</title>
<g id="a_edge2_Node000002_Node000003"><a xlink:title=" ">
<path fill="none" stroke="#63b8ff" d="M1267.68,-197C1259.27,-197 1250.62,-197 1242.18,-197"/>
<polygon fill="#63b8ff" stroke="#63b8ff" points="1267.8,-200.5 1277.8,-197 1267.8,-193.5 1267.8,-200.5"/>
</a>
</g>
</g>
<!-- Node4 -->
<g id="Node000004" class="node">
<title>Node4</title>
<g id="a_Node000004"><a xlink:href="classinja_1_1Parser.html#a0f1312b0bf8691aba6cc4590169902fc" target="_top" xlink:title=" ">
<polygon fill="white" stroke="#666666" points="1078,-207.5 974,-207.5 974,-188.5 1078,-188.5 1078,-207.5"/>
<text text-anchor="middle" x="1026" y="-195.5" font-family="Helvetica,sans-Serif" font-size="10.00">inja::Parser::parse</text>
</a>
</g>
</g>
<!-- Node3&#45;&gt;Node4 -->
<g id="edge3_Node000003_Node000004" class="edge">
<title>Node3&#45;&gt;Node4</title>
<g id="a_edge3_Node000003_Node000004"><a xlink:title=" ">
<path fill="none" stroke="#63b8ff" d="M1103.75,-197.49C1095.14,-197.55 1086.5,-197.6 1078.28,-197.66"/>
<polygon fill="#63b8ff" stroke="#63b8ff" points="1103.84,-200.99 1113.82,-197.42 1103.8,-193.99 1103.84,-200.99"/>
</a>
</g>
</g>
<!-- Node15 -->
<g id="Node000015" class="node">
<title>Node15</title>
<g id="a_Node000015"><a xlink:href="classinja_1_1Parser.html#a8c6a03b6665745f216ba86f5e514a913" target="_top" xlink:title=" ">
<polygon fill="white" stroke="#666666" points="1078,-169 974,-169 974,-139 1078,-139 1078,-169"/>
<text text-anchor="start" x="982" y="-157" font-family="Helvetica,sans-Serif" font-size="10.00">inja::Parser::parse</text>
<text text-anchor="middle" x="1026" y="-146" font-family="Helvetica,sans-Serif" font-size="10.00">_into_template</text>
</a>
</g>
</g>
<!-- Node3&#45;&gt;Node15 -->
<g id="edge14_Node000003_Node000015" class="edge">
<title>Node3&#45;&gt;Node15</title>
<g id="a_edge14_Node000003_Node000015"><a xlink:title=" ">
<path fill="none" stroke="#63b8ff" d="M1133.84,-184.63C1116.46,-179.65 1096.29,-173.86 1078.18,-168.67"/>
<polygon fill="#63b8ff" stroke="#63b8ff" points="1133.13,-188.07 1143.71,-187.46 1135.06,-181.34 1133.13,-188.07"/>
</a>
</g>
</g>
<!-- Node5 -->
<g id="Node000005" class="node">
<title>Node5</title>
<g id="a_Node000005"><a xlink:href="classinja_1_1Environment.html#a8421b8d61fc4de15f29c909bd7154f92" target="_top" xlink:title=" ">
<polygon fill="white" stroke="#666666" points="938,-215 829,-215 829,-185 938,-185 938,-215"/>
<text text-anchor="start" x="837" y="-203" font-family="Helvetica,sans-Serif" font-size="10.00">inja::Environment::</text>
<text text-anchor="middle" x="883.5" y="-192" font-family="Helvetica,sans-Serif" font-size="10.00">parse</text>
</a>
</g>
</g>
<!-- Node4&#45;&gt;Node5 -->
<g id="edge4_Node000004_Node000005" class="edge">
<title>Node4&#45;&gt;Node5</title>
<g id="a_edge4_Node000004_Node000005"><a xlink:title=" ">
<path fill="none" stroke="#63b8ff" d="M963.65,-198.87C955.17,-198.99 946.51,-199.12 938.18,-199.24"/>
<polygon fill="#63b8ff" stroke="#63b8ff" points="963.93,-202.37 973.88,-198.73 963.83,-195.37 963.93,-202.37"/>
</a>
</g>
</g>
<!-- Node6 -->
<g id="Node000006" class="node">
<title>Node6</title>
<g id="a_Node000006"><a xlink:href="classinja_1_1Environment.html#aac36e0cfdc9e7926914e46c0cd1caada" target="_top" xlink:title=" ">
<polygon fill="white" stroke="#666666" points="793,-257 684,-257 684,-227 793,-227 793,-257"/>
<text text-anchor="start" x="692" y="-245" font-family="Helvetica,sans-Serif" font-size="10.00">inja::Environment::</text>
<text text-anchor="middle" x="738.5" y="-234" font-family="Helvetica,sans-Serif" font-size="10.00">render</text>
</a>
</g>
</g>
<!-- Node5&#45;&gt;Node6 -->
<g id="edge5_Node000005_Node000006" class="edge">
<title>Node5&#45;&gt;Node6</title>
<g id="a_edge5_Node000005_Node000006"><a xlink:title=" ">
<path fill="none" stroke="#63b8ff" d="M821.58,-217.89C811.34,-220.9 800.81,-223.99 790.85,-226.92"/>
<polygon fill="#63b8ff" stroke="#63b8ff" points="822.67,-221.22 831.28,-215.04 820.7,-214.5 822.67,-221.22"/>
</a>
</g>
</g>
<!-- Node14 -->
<g id="Node000014" class="node">
<title>Node14</title>
<g id="a_Node000014"><a xlink:href="namespaceinja.html#a996f16f78b37d05e19cf44ac74d83e7e" target="_top" xlink:title="render with default settings to the given output stream">
<polygon fill="white" stroke="#666666" points="782,-208.5 695,-208.5 695,-189.5 782,-189.5 782,-208.5"/>
<text text-anchor="middle" x="738.5" y="-196.5" font-family="Helvetica,sans-Serif" font-size="10.00">inja::render_to</text>
</a>
</g>
</g>
<!-- Node5&#45;&gt;Node14 -->
<g id="edge13_Node000005_Node000014" class="edge">
<title>Node5&#45;&gt;Node14</title>
<g id="a_edge13_Node000005_Node000014"><a xlink:title=" ">
<path fill="none" stroke="#63b8ff" d="M818.62,-199.55C806.32,-199.47 793.72,-199.38 782.29,-199.3"/>
<polygon fill="#63b8ff" stroke="#63b8ff" points="818.82,-203.05 828.85,-199.62 818.87,-196.05 818.82,-203.05"/>
</a>
</g>
</g>
<!-- Node7 -->
<g id="Node000007" class="node">
<title>Node7</title>
<g id="a_Node000007"><a xlink:href="classmqtt_1_1lib_1_1MqttMapper.html#a04261a968a945934ebf3518733c62b7d" target="_top" xlink:title=" ">
<polygon fill="white" stroke="#666666" points="648,-288 506,-288 506,-258 648,-258 648,-288"/>
<text text-anchor="start" x="514" y="-276" font-family="Helvetica,sans-Serif" font-size="10.00">mqtt::lib::MqttMapper</text>
<text text-anchor="middle" x="577" y="-265" font-family="Helvetica,sans-Serif" font-size="10.00">::publishMappedTemplate</text>
</a>
</g>
</g>
<!-- Node6&#45;&gt;Node7 -->
<g id="edge6_Node000006_Node000007" class="edge">
<title>Node6&#45;&gt;Node7</title>
<g id="a_edge6_Node000006_Node000007"><a xlink:title=" ">
<path fill="none" stroke="#63b8ff" d="M674.08,-254.33C665.55,-255.98 656.76,-257.69 648.13,-259.37"/>
<polygon fill="#63b8ff" stroke="#63b8ff" points="674.8,-257.75 683.95,-252.41 673.46,-250.88 674.8,-257.75"/>
</a>
</g>
</g>
<!-- Node13 -->
<g id="Node000013" class="node">
<title>Node13</title>
<g id="a_Node000013"><a xlink:href="namespaceinja.html#a539106781b52cc6117fc132f927a9dec" target="_top" xlink:title="render with default settings to a string">
<polygon fill="white" stroke="#666666" points="613,-239.5 541,-239.5 541,-220.5 613,-220.5 613,-239.5"/>
<text text-anchor="middle" x="577" y="-227.5" font-family="Helvetica,sans-Serif" font-size="10.00">inja::render</text>
</a>
</g>
</g>
<!-- Node6&#45;&gt;Node13 -->
<g id="edge12_Node000006_Node000013" class="edge">
<title>Node6&#45;&gt;Node13</title>
<g id="a_edge12_Node000006_Node000013"><a xlink:title=" ">
<path fill="none" stroke="#63b8ff" d="M673.92,-237.22C653.2,-235.66 630.96,-233.98 613.11,-232.64"/>
<polygon fill="#63b8ff" stroke="#63b8ff" points="673.71,-240.71 683.95,-237.97 674.24,-233.73 673.71,-240.71"/>
</a>
</g>
</g>
<!-- Node8 -->
<g id="Node000008" class="node">
<title>Node8</title>
<g id="a_Node000008"><a xlink:href="classmqtt_1_1lib_1_1MqttMapper.html#aae1c8da19646ae1ada8d497fef0df12d" target="_top" xlink:title=" ">
<polygon fill="white" stroke="#666666" points="470,-288 323,-288 323,-258 470,-258 470,-288"/>
<text text-anchor="start" x="331" y="-276" font-family="Helvetica,sans-Serif" font-size="10.00">mqtt::lib::MqttMapper</text>
<text text-anchor="middle" x="396.5" y="-265" font-family="Helvetica,sans-Serif" font-size="10.00">::publishMappedTemplates</text>
</a>
</g>
</g>
<!-- Node7&#45;&gt;Node8 -->
<g id="edge7_Node000007_Node000008" class="edge">
<title>Node7&#45;&gt;Node8</title>
<g id="a_edge7_Node000007_Node000008"><a xlink:title=" ">
<path fill="none" stroke="#63b8ff" d="M495.7,-273C487.23,-273 478.65,-273 470.27,-273"/>
<polygon fill="#63b8ff" stroke="#63b8ff" points="495.96,-276.5 505.96,-273 495.96,-269.5 495.96,-276.5"/>
</a>
</g>
</g>
<!-- Node9 -->
<g id="Node000009" class="node">
<title>Node9</title>
<g id="a_Node000009"><a xlink:href="classmqtt_1_1lib_1_1MqttMapper.html#a279b13d33784be36c0b524a8796e194a" target="_top" xlink:title=" ">
<polygon fill="white" stroke="#666666" points="287,-288 164,-288 164,-258 287,-258 287,-288"/>
<text text-anchor="start" x="172" y="-276" font-family="Helvetica,sans-Serif" font-size="10.00">mqtt::lib::MqttMapper</text>
<text text-anchor="middle" x="225.5" y="-265" font-family="Helvetica,sans-Serif" font-size="10.00">::publishMappings</text>
</a>
</g>
</g>
<!-- Node8&#45;&gt;Node9 -->
<g id="edge8_Node000008_Node000009" class="edge">
<title>Node8&#45;&gt;Node9</title>
<g id="a_edge8_Node000008_Node000009"><a xlink:title=" ">
<path fill="none" stroke="#63b8ff" d="M312.75,-273C304.13,-273 295.48,-273 287.16,-273"/>
<polygon fill="#63b8ff" stroke="#63b8ff" points="312.85,-276.5 322.85,-273 312.85,-269.5 312.85,-276.5"/>
</a>
</g>
</g>
<!-- Node10 -->
<g id="Node000010" class="node">
<title>Node10</title>
<g id="a_Node000010"><a xlink:href="classmqtt_1_1mqttbroker_1_1lib_1_1Mqtt.html#a35dd670ca3b7d67cffbbce1cf7c71ffb" target="_top" xlink:title=" ">
<polygon fill="white" stroke="#666666" points="123,-336 5,-336 5,-306 123,-306 123,-336"/>
<text text-anchor="start" x="13" y="-324" font-family="Helvetica,sans-Serif" font-size="10.00">mqtt::mqttbroker::lib</text>
<text text-anchor="middle" x="64" y="-313" font-family="Helvetica,sans-Serif" font-size="10.00">::Mqtt::onPublish</text>
</a>
</g>
</g>
<!-- Node9&#45;&gt;Node10 -->
<g id="edge9_Node000009_Node000010" class="edge">
<title>Node9&#45;&gt;Node10</title>
<g id="a_edge9_Node000009_Node000010"><a xlink:title=" ">
<path fill="none" stroke="#63b8ff" d="M164.47,-291.07C148.11,-295.99 130.57,-301.27 114.85,-306"/>
<polygon fill="#63b8ff" stroke="#63b8ff" points="165.9,-294.29 174.47,-288.06 163.89,-287.59 165.9,-294.29"/>
</a>
</g>
</g>
<!-- Node11 -->
<g id="Node000011" class="node">
<title>Node11</title>
<g id="a_Node000011"><a xlink:href="classmqtt_1_1mqttintegrator_1_1lib_1_1Mqtt.html#a211408365844787ce77340f454b9cbd0" target="_top" xlink:title=" ">
<polygon fill="white" stroke="#666666" points="122.5,-288 5.5,-288 5.5,-258 122.5,-258 122.5,-288"/>
<text text-anchor="start" x="13.5" y="-276" font-family="Helvetica,sans-Serif" font-size="10.00">mqtt::mqttintegrator</text>
<text text-anchor="middle" x="64" y="-265" font-family="Helvetica,sans-Serif" font-size="10.00">::lib::Mqtt::onPublish</text>
</a>
</g>
</g>
<!-- Node9&#45;&gt;Node11 -->
<g id="edge10_Node000009_Node000011" class="edge">
<title>Node9&#45;&gt;Node11</title>
<g id="a_edge10_Node000009_Node000011"><a xlink:title=" ">
<path fill="none" stroke="#63b8ff" d="M153.52,-273C143.21,-273 132.7,-273 122.7,-273"/>
<polygon fill="#63b8ff" stroke="#63b8ff" points="153.74,-276.5 163.74,-273 153.74,-269.5 153.74,-276.5"/>
</a>
</g>
</g>
<!-- Node12 -->
<g id="Node000012" class="node">
<title>Node12</title>
<g id="a_Node000012"><a xlink:href="classmqtt_1_1mqttbroker_1_1lib_1_1Mqtt.html#a3426a2c9d850ad17f0134580a09d9527" target="_top" xlink:title=" ">
<polygon fill="white" stroke="#666666" points="128,-240 0,-240 0,-210 128,-210 128,-240"/>
<text text-anchor="start" x="8" y="-228" font-family="Helvetica,sans-Serif" font-size="10.00">mqtt::mqttbroker::lib</text>
<text text-anchor="middle" x="64" y="-217" font-family="Helvetica,sans-Serif" font-size="10.00">::Mqtt::publishMapping</text>
</a>
</g>
</g>
<!-- Node9&#45;&gt;Node12 -->
<g id="edge11_Node000009_Node000012" class="edge">
<title>Node9&#45;&gt;Node12</title>
<g id="a_edge11_Node000009_Node000012"><a xlink:title=" ">
<path fill="none" stroke="#63b8ff" d="M164.47,-254.93C148.11,-250.01 130.57,-244.73 114.85,-240"/>
<polygon fill="#63b8ff" stroke="#63b8ff" points="163.89,-258.41 174.47,-257.94 165.9,-251.71 163.89,-258.41"/>
</a>
</g>
</g>
<!-- Node15&#45;&gt;Node1 -->
<g id="edge15_Node000015_Node000001" class="edge">
<title>Node15&#45;&gt;Node1</title>
<g id="a_edge15_Node000015_Node000001"><a xlink:title=" ">
<path fill="none" stroke="#63b8ff" d="M1088.03,-156.88C1175.34,-161 1334.55,-168.51 1417.88,-172.45"/>
<polygon fill="#63b8ff" stroke="#63b8ff" points="1088.16,-153.38 1078,-156.41 1087.83,-160.37 1088.16,-153.38"/>
</a>
</g>
</g>
<!-- Node16 -->
<g id="Node000016" class="node">
<title>Node16</title>
<g id="a_Node000016"><a xlink:href="classinja_1_1Environment.html#aa46ccc27cc803933e0bfc9f58bba389c" target="_top" xlink:title=" ">
<polygon fill="white" stroke="#666666" points="938,-167 829,-167 829,-137 938,-137 938,-167"/>
<text text-anchor="start" x="837" y="-155" font-family="Helvetica,sans-Serif" font-size="10.00">inja::Environment::</text>
<text text-anchor="middle" x="883.5" y="-144" font-family="Helvetica,sans-Serif" font-size="10.00">parse_template</text>
</a>
</g>
</g>
<!-- Node15&#45;&gt;Node16 -->
<g id="edge16_Node000015_Node000016" class="edge">
<title>Node15&#45;&gt;Node16</title>
<g id="a_edge16_Node000015_Node000016"><a xlink:title=" ">
<path fill="none" stroke="#63b8ff" d="M963.65,-153.13C955.17,-153.01 946.51,-152.88 938.18,-152.76"/>
<polygon fill="#63b8ff" stroke="#63b8ff" points="963.83,-156.63 973.88,-153.27 963.93,-149.63 963.83,-156.63"/>
</a>
</g>
</g>
<!-- Node17 -->
<g id="Node000017" class="node">
<title>Node17</title>
<g id="a_Node000017"><a xlink:href="classinja_1_1Environment.html#a988701e4eb7fef51f2a3bd5ec74dd156" target="_top" xlink:title=" ">
<polygon fill="white" stroke="#666666" points="793,-169 684,-169 684,-139 793,-139 793,-169"/>
<text text-anchor="start" x="692" y="-157" font-family="Helvetica,sans-Serif" font-size="10.00">inja::Environment::</text>
<text text-anchor="middle" x="738.5" y="-146" font-family="Helvetica,sans-Serif" font-size="10.00">parse_file</text>
</a>
</g>
</g>
<!-- Node16&#45;&gt;Node17 -->
<g id="edge17_Node000016_Node000017" class="edge">
<title>Node16&#45;&gt;Node17</title>
<g id="a_edge17_Node000016_Node000017"><a xlink:title=" ">
<path fill="none" stroke="#63b8ff" d="M818.68,-152.89C810.25,-153.01 801.69,-153.13 793.46,-153.25"/>
<polygon fill="#63b8ff" stroke="#63b8ff" points="818.9,-156.39 828.85,-152.75 818.8,-149.39 818.9,-156.39"/>
</a>
</g>
</g>
<!-- Node18 -->
<g id="Node000018" class="node">
<title>Node18</title>
<g id="a_Node000018"><a xlink:href="classinja_1_1Environment.html#aaefdd9061b23f1764056689fe8c31e30" target="_top" xlink:title=" ">
<polygon fill="white" stroke="#666666" points="793,-121 684,-121 684,-91 793,-91 793,-121"/>
<text text-anchor="start" x="692" y="-109" font-family="Helvetica,sans-Serif" font-size="10.00">inja::Environment::</text>
<text text-anchor="middle" x="738.5" y="-98" font-family="Helvetica,sans-Serif" font-size="10.00">render_file</text>
</a>
</g>
</g>
<!-- Node16&#45;&gt;Node18 -->
<g id="edge18_Node000016_Node000018" class="edge">
<title>Node16&#45;&gt;Node18</title>
<g id="a_edge18_Node000016_Node000018"><a xlink:title=" ">
<path fill="none" stroke="#63b8ff" d="M825.85,-133.78C812.79,-129.57 799.03,-125.15 786.43,-121.1"/>
<polygon fill="#63b8ff" stroke="#63b8ff" points="825.09,-137.21 835.68,-136.94 827.23,-130.54 825.09,-137.21"/>
</a>
</g>
</g>
<!-- Node19 -->
<g id="Node000019" class="node">
<title>Node19</title>
<g id="a_Node000019"><a xlink:href="mqttbroker_8cpp.html#a049b5c955e78f60110433ce59da71607" target="_top" xlink:title=" ">
<polygon fill="white" stroke="#666666" points="626,-189.5 528,-189.5 528,-170.5 626,-170.5 626,-189.5"/>
<text text-anchor="middle" x="577" y="-177.5" font-family="Helvetica,sans-Serif" font-size="10.00">getDetailedPage</text>
</a>
</g>
</g>
<!-- Node18&#45;&gt;Node19 -->
<g id="edge19_Node000018_Node000019" class="edge">
<title>Node18&#45;&gt;Node19</title>
<g id="a_edge19_Node000018_Node000019"><a xlink:title=" ">
<path fill="none" stroke="#63b8ff" d="M691.15,-125.76C688.7,-127.12 686.3,-128.54 684,-130 666.18,-141.33 666.65,-151.1 648,-161 640.77,-164.84 632.7,-167.95 624.68,-170.46"/>
<polygon fill="#63b8ff" stroke="#63b8ff" points="692.96,-128.76 700.22,-121.04 689.73,-122.55 692.96,-128.76"/>
</a>
</g>
</g>
<!-- Node22 -->
<g id="Node000022" class="node">
<title>Node22</title>
<g id="a_Node000022"><a xlink:href="mqttbroker_8cpp.html#ad9d315824898337732fd1b67f05846c9" target="_top" xlink:title=" ">
<polygon fill="white" stroke="#666666" points="628.5,-152.5 525.5,-152.5 525.5,-133.5 628.5,-133.5 628.5,-152.5"/>
<text text-anchor="middle" x="577" y="-140.5" font-family="Helvetica,sans-Serif" font-size="10.00">getOverviewPage</text>
</a>
</g>
</g>
<!-- Node18&#45;&gt;Node22 -->
<g id="edge22_Node000018_Node000022" class="edge">
<title>Node18&#45;&gt;Node22</title>
<g id="a_edge22_Node000018_Node000022"><a xlink:title=" ">
<path fill="none" stroke="#63b8ff" d="M674.1,-120.71C655.57,-125.01 635.81,-129.59 619.05,-133.48"/>
<polygon fill="#63b8ff" stroke="#63b8ff" points="674.99,-124.09 683.95,-118.42 673.41,-117.27 674.99,-124.09"/>
</a>
</g>
</g>
<!-- Node23 -->
<g id="Node000023" class="node">
<title>Node23</title>
<g id="a_Node000023"><a xlink:href="mqttbroker_8cpp.html#adaabce72814f1277ee38fab80aaa1f34" target="_top" xlink:title=" ">
<polygon fill="white" stroke="#666666" points="644,-115.5 510,-115.5 510,-96.5 644,-96.5 644,-115.5"/>
<text text-anchor="middle" x="577" y="-103.5" font-family="Helvetica,sans-Serif" font-size="10.00">getRedirectSpinnerPage</text>
</a>
</g>
</g>
<!-- Node18&#45;&gt;Node23 -->
<g id="edge24_Node000018_Node000023" class="edge">
<title>Node18&#45;&gt;Node23</title>
<g id="a_edge24_Node000018_Node000023"><a xlink:title=" ">
<path fill="none" stroke="#63b8ff" d="M673.9,-106C664.12,-106 654,-106 644.17,-106"/>
<polygon fill="#63b8ff" stroke="#63b8ff" points="673.95,-109.5 683.95,-106 673.95,-102.5 673.95,-109.5"/>
</a>
</g>
</g>
<!-- Node24 -->
<g id="Node000024" class="node">
<title>Node24</title>
<g id="a_Node000024"><a xlink:href="classinja_1_1Environment.html#a6e6c345cd66ebdfe8a9d47d59efb5e84" target="_top" xlink:title=" ">
<polygon fill="white" stroke="#666666" points="648,-78 506,-78 506,-48 648,-48 648,-78"/>
<text text-anchor="start" x="514" y="-66" font-family="Helvetica,sans-Serif" font-size="10.00">inja::Environment::</text>
<text text-anchor="middle" x="577" y="-55" font-family="Helvetica,sans-Serif" font-size="10.00">render_file_with_json_file</text>
</a>
</g>
</g>
<!-- Node18&#45;&gt;Node24 -->
<g id="edge26_Node000018_Node000024" class="edge">
<title>Node18&#45;&gt;Node24</title>
<g id="a_edge26_Node000018_Node000024"><a xlink:title=" ">
<path fill="none" stroke="#63b8ff" d="M673.96,-88.87C660.7,-85.3 646.82,-81.55 633.87,-78.06"/>
<polygon fill="#63b8ff" stroke="#63b8ff" points="673.38,-92.34 683.95,-91.56 675.2,-85.58 673.38,-92.34"/>
</a>
</g>
</g>
<!-- Node25 -->
<g id="Node000025" class="node">
<title>Node25</title>
<g id="a_Node000025"><a xlink:href="classinja_1_1Environment.html#ab9334d7f4ebb85f36dcc27e1ecae2f3d" target="_top" xlink:title=" ">
<polygon fill="white" stroke="#666666" points="631.5,-30 522.5,-30 522.5,0 631.5,0 631.5,-30"/>
<text text-anchor="start" x="530.5" y="-18" font-family="Helvetica,sans-Serif" font-size="10.00">inja::Environment::</text>
<text text-anchor="middle" x="577" y="-7" font-family="Helvetica,sans-Serif" font-size="10.00">write</text>
</a>
</g>
</g>
<!-- Node18&#45;&gt;Node25 -->
<g id="edge27_Node000018_Node000025" class="edge">
<title>Node18&#45;&gt;Node25</title>
<g id="a_edge27_Node000018_Node000025"><a xlink:title=" ">
<path fill="none" stroke="#63b8ff" d="M712.89,-84.24C695.66,-69.88 671.59,-51.48 648,-39 641.75,-35.7 634.96,-32.71 628.14,-30.04"/>
<polygon fill="#63b8ff" stroke="#63b8ff" points="710.87,-87.12 720.76,-90.93 715.4,-81.79 710.87,-87.12"/>
</a>
</g>
</g>
<!-- Node20 -->
<g id="Node000020" class="node">
<title>Node20</title>
<g id="a_Node000020"><a xlink:href="mqttbroker_8cpp.html#a6a886a53c0261b1fa115609c34e8e607" target="_top" xlink:title=" ">
<polygon fill="white" stroke="#666666" points="429,-152.5 364,-152.5 364,-133.5 429,-133.5 429,-152.5"/>
<text text-anchor="middle" x="396.5" y="-140.5" font-family="Helvetica,sans-Serif" font-size="10.00">getRouter</text>
</a>
</g>
</g>
<!-- Node19&#45;&gt;Node20 -->
<g id="edge20_Node000019_Node000020" class="edge">
<title>Node19&#45;&gt;Node20</title>
<g id="a_edge20_Node000019_Node000020"><a xlink:title=" ">
<path fill="none" stroke="#63b8ff" d="M520.13,-168.42C490.2,-162.21 454.41,-154.8 429.25,-149.58"/>
<polygon fill="#63b8ff" stroke="#63b8ff" points="519.53,-171.87 530.03,-170.47 520.95,-165.01 519.53,-171.87"/>
</a>
</g>
</g>
<!-- Node21 -->
<g id="Node000021" class="node">
<title>Node21</title>
<g id="a_Node000021"><a xlink:href="mqttbroker_8cpp.html#a0ddf1224851353fc92bfbff6f499fa97" target="_top" xlink:title=" ">
<polygon fill="white" stroke="#666666" points="246,-152.5 205,-152.5 205,-133.5 246,-133.5 246,-152.5"/>
<text text-anchor="middle" x="225.5" y="-140.5" font-family="Helvetica,sans-Serif" font-size="10.00">main</text>
</a>
</g>
</g>
<!-- Node20&#45;&gt;Node21 -->
<g id="edge21_Node000020_Node000021" class="edge">
<title>Node20&#45;&gt;Node21</title>
<g id="a_edge21_Node000020_Node000021"><a xlink:title=" ">
<path fill="none" stroke="#63b8ff" d="M353.5,-143C319.15,-143 272.14,-143 246.02,-143"/>
<polygon fill="#63b8ff" stroke="#63b8ff" points="353.71,-146.5 363.71,-143 353.71,-139.5 353.71,-146.5"/>
</a>
</g>
</g>
<!-- Node22&#45;&gt;Node20 -->
<g id="edge23_Node000022_Node000020" class="edge">
<title>Node22&#45;&gt;Node20</title>
<g id="a_edge23_Node000022_Node000020"><a xlink:title=" ">
<path fill="none" stroke="#63b8ff" d="M515.31,-143C486.4,-143 453.02,-143 429.19,-143"/>
<polygon fill="#63b8ff" stroke="#63b8ff" points="515.33,-146.5 525.33,-143 515.33,-139.5 515.33,-146.5"/>
</a>
</g>
</g>
<!-- Node23&#45;&gt;Node20 -->
<g id="edge25_Node000023_Node000020" class="edge">
<title>Node23&#45;&gt;Node20</title>
<g id="a_edge25_Node000023_Node000020"><a xlink:title=" ">
<path fill="none" stroke="#63b8ff" d="M520.13,-117.58C490.2,-123.79 454.41,-131.2 429.25,-136.42"/>
<polygon fill="#63b8ff" stroke="#63b8ff" points="520.95,-120.99 530.03,-115.53 519.53,-114.13 520.95,-120.99"/>
</a>
</g>
</g>
<!-- Node26 -->
<g id="Node000026" class="node">
<title>Node26</title>
<g id="a_Node000026"><a xlink:href="classinja_1_1Environment.html#ad3e8c39b341641a872e62010693c27c3" target="_top" xlink:title=" ">
<polygon fill="white" stroke="#666666" points="453.5,-30 339.5,-30 339.5,0 453.5,0 453.5,-30"/>
<text text-anchor="start" x="347.5" y="-18" font-family="Helvetica,sans-Serif" font-size="10.00">inja::Environment::</text>
<text text-anchor="middle" x="396.5" y="-7" font-family="Helvetica,sans-Serif" font-size="10.00">write_with_json_file</text>
</a>
</g>
</g>
<!-- Node25&#45;&gt;Node26 -->
<g id="edge28_Node000025_Node000026" class="edge">
<title>Node25&#45;&gt;Node26</title>
<g id="a_edge28_Node000025_Node000026"><a xlink:title=" ">
<path fill="none" stroke="#63b8ff" d="M512.33,-15C493.22,-15 472.41,-15 453.81,-15"/>
<polygon fill="#63b8ff" stroke="#63b8ff" points="512.44,-18.5 522.44,-15 512.44,-11.5 512.44,-18.5"/>
</a>
</g>
</g>
</g>
</svg>

<g id="navigator" transform="translate(0 0)" fill="#404254">
  <rect fill="#f2f5e9" fill-opacity="0.5" stroke="#606060" stroke-width=".5" x="0" y="0" width="60" height="60"/>
  <use id="zoomplus" xlink:href="#zoomPlus" x="17" y="9" onmousedown="handleZoom(evt,'in')"/>
  <use id="zoomminus" xlink:href="#zoomMin" x="42" y="9" onmousedown="handleZoom(evt,'out')"/>
  <use id="reset" xlink:href="#resetDef" x="30" y="36" onmousedown="handleReset()"/>
   <use id="arrowup" xlink:href="#arrowUp" x="0" y="0" onmousedown="handlePan(0,-1)"/>
  <use id="arrowright" xlink:href="#arrowRight" x="0" y="0" onmousedown="handlePan(1,0)"/>
  <use id="arrowdown" xlink:href="#arrowDown" x="0" y="0" onmousedown="handlePan(0,1)"/>
  <use id="arrowleft" xlink:href="#arrowLeft" x="0" y="0" onmousedown="handlePan(-1,0)"/>
</g>
<svg viewBox="0 0 15 15" width="100%" height="30px" preserveAspectRatio="xMaxYMin meet">
 <g id="arrow_out" transform="scale(0.3 0.3)">
  <a xlink:href="classinja_1_1Parser_ae1cebbe51ef6a93fc3d448263f9bf1e3_icgraph_org.svg" target="_base">
   <rect id="button" ry="5" rx="5" y="6" x="6" height="38" width="38"
        fill="#f2f5e9" fill-opacity="0.5" stroke="#606060" stroke-width="1.0"/>
   <path id="arrow"
     d="M 11.500037,31.436501 C 11.940474,20.09759 22.043105,11.32322 32.158766,21.979434 L 37.068811,17.246167 C 37.068811,17.246167 37.088388,32 37.088388,32 L 22.160133,31.978069 C 22.160133,31.978069 26.997745,27.140456 26.997745,27.140456 C 18.528582,18.264221 13.291696,25.230495 11.500037,31.436501 z"
     style="fill:#404040;"/>
  </a>
 </g>
</svg>

<style type='text/css'>
<![CDATA[
[data-mouse-over-selected='false'] { opacity: 0.7; }
[data-mouse-over-selected='true']  { opacity: 1.0; }
]]>
</style>
<script type="application/ecmascript"><![CDATA[
document.addEventListener('DOMContentLoaded', (event) => {
  highlightEdges();
  highlightAdjacentNodes();
});
]]></script>
</svg>
