<?xml version="1.0" encoding="UTF-8" standalone="no"?>
<!DOCTYPE svg PUBLIC "-//W3C//DTD SVG 1.1//EN"
 "http://www.w3.org/Graphics/SVG/1.1/DTD/svg11.dtd">
<!-- Generated by graphviz version 14.1.2 (0)
 -->
<!-- Title: mqtt::bridge::lib::SSEDistributor::sendEvent Pages: 1 -->
<!--zoomable 725 -->

<svg id="main" version="1.1" xmlns="http://www.w3.org/2000/svg" xmlns:xlink="http://www.w3.org/1999/xlink" xml:space="preserve" onload="init(evt)">

<style type="text/css"><![CDATA[
.node, .edge {opacity: 0.7;}
.node.selected, .edge.selected {opacity: 1;}
.edge:hover path { stroke: red; }
.edge:hover polygon { stroke: red; fill: red; }
]]></style>

<defs>
  <circle id="rim" cx="0" cy="0" r="7"/>
  <circle id="rim2" cx="0" cy="0" r="3.5"/>
  <g id="zoomPlus">
    <use xlink:href="#rim" fill="#404040"><set attributeName="fill" to="#808080" begin="zoomplus.mouseover" end="zoomplus.mouseout"/></use>
    <path d="M-4,0h8M0,-4v8" fill="none" stroke="white" stroke-width="1.5" pointer-events="none"/>
  </g>
  <g id="zoomMin">
    <use xlink:href="#rim" fill="#404040"><set attributeName="fill" to="#808080" begin="zoomminus.mouseover" end="zoomminus.mouseout"/></use>
    <path d="M-4,0h8" fill="none" stroke="white" stroke-width="1.5" pointer-events="none"/>
  </g>
  <g id="arrowUp" transform="translate(30 24)">
    <use xlink:href="#rim"/>
    <path pointer-events="none" fill="none" stroke="white" stroke-width="1.5" d="M0,-3.0v7 M-2.5,-0.5L0,-3.0L2.5,-0.5"/>
  </g>
  <g id="arrowRight" transform="rotate(90) translate(36 -43)">
    <use xlink:href="#rim"/>
    <path pointer-events="none" fill="none" stroke="white" stroke-width="1.5" d="M0,-3.0v7 M-2.5,-0.5L0,-3.0L2.5,-0.5"/>
  </g>
  <g id="arrowDown" transform="rotate(180) translate(-30 -48)">
    <use xlink:href="#rim"/>
    <path pointer-events="none" fill="none" stroke="white" stroke-width="1.5" d="M0,-3.0v7 M-2.5,-0.5L0,-3.0L2.5,-0.5"/>
  </g>
  <g id="arrowLeft" transform="rotate(270) translate(-36 17)">
    <use xlink:href="#rim"/>
    <path pointer-events="none" fill="none" stroke="white" stroke-width="1.5" d="M0,-3.0v7 M-2.5,-0.5L0,-3.0L2.5,-0.5"/>
  </g>
  <g id="resetDef">
    <use xlink:href="#rim2" fill="#404040"><set attributeName="fill" to="#808080" begin="reset.mouseover" end="reset.mouseout"/></use>
  </g>
</defs>
<script type="application/ecmascript">
var viewWidth = 1489;
var viewHeight = 725;
var sectionId = 'dynsection-27';
</script>
<script type="application/ecmascript" xlink:href="svg.min.js"/>
<svg id="graph" class="graph">
<g id="viewport">
<title>mqtt::bridge::lib::SSEDistributor::sendEvent</title>
<!-- Node1 -->
<g id="Node000001" class="node">
<title>Node1</title>
<g id="a_Node000001"><a xlink:title=" ">
<polygon fill="#999999" stroke="#666666" points="1481,-421.5 1338.25,-421.5 1338.25,-388 1481,-388 1481,-421.5"/>
<text xml:space="preserve" text-anchor="start" x="1346.25" y="-408" font-family="Helvetica,sans-Serif" font-size="10.00">mqtt::bridge::lib::</text>
<text xml:space="preserve" text-anchor="middle" x="1409.62" y="-395.25" font-family="Helvetica,sans-Serif" font-size="10.00">SSEDistributor::sendEvent</text>
</a>
</g>
</g>
<!-- Node2 -->
<g id="Node000002" class="node">
<title>Node2</title>
<g id="a_Node000002"><a xlink:href="classmqtt_1_1bridge_1_1lib_1_1SSEDistributor.html#a5f477f1ef99152b7d2cb547ac4cec934" target="_top" xlink:title=" ">
<polygon fill="white" stroke="#666666" points="1103.25,-580.5 923,-580.5 923,-547 1103.25,-547 1103.25,-580.5"/>
<text xml:space="preserve" text-anchor="start" x="931" y="-567" font-family="Helvetica,sans-Serif" font-size="10.00">mqtt::bridge::lib::</text>
<text xml:space="preserve" text-anchor="middle" x="1013.12" y="-554.25" font-family="Helvetica,sans-Serif" font-size="10.00">SSEDistributor::addEventReceiver</text>
</a>
</g>
</g>
<!-- Node1&#45;&gt;Node2 -->
<g id="edge1_Node000001_Node000002" class="edge">
<title>Node1&#45;&gt;Node2</title>
<g id="a_edge1_Node000001_Node000002"><a xlink:title=" ">
<path fill="none" stroke="#63b8ff" d="M1355.82,-426.03C1276.84,-457.87 1129.47,-517.26 1056.84,-546.53"/>
<polygon fill="#63b8ff" stroke="#63b8ff" points="1356.66,-429.47 1364.63,-422.48 1354.04,-422.97 1356.66,-429.47"/>
</a>
</g>
</g>
<!-- Node4 -->
<g id="Node000004" class="node">
<title>Node4</title>
<g id="a_Node000004"><a xlink:href="classmqtt_1_1bridge_1_1lib_1_1SSEDistributor.html#a33c28a238f0853d09effb76ed6c49d45" target="_top" xlink:title=" ">
<polygon fill="white" stroke="#666666" points="1292.12,-421.5 1149.38,-421.5 1149.38,-388 1292.12,-388 1292.12,-421.5"/>
<text xml:space="preserve" text-anchor="start" x="1157.38" y="-408" font-family="Helvetica,sans-Serif" font-size="10.00">mqtt::bridge::lib::</text>
<text xml:space="preserve" text-anchor="middle" x="1220.75" y="-395.25" font-family="Helvetica,sans-Serif" font-size="10.00">SSEDistributor::sendEvent</text>
</a>
</g>
</g>
<!-- Node1&#45;&gt;Node4 -->
<g id="edge3_Node000001_Node000004" class="edge">
<title>Node1&#45;&gt;Node4</title>
<g id="a_edge3_Node000001_Node000004"><a xlink:title=" ">
<path fill="none" stroke="#63b8ff" d="M1326.68,-404.75C1315.29,-404.75 1303.66,-404.75 1292.5,-404.75"/>
<polygon fill="#63b8ff" stroke="#63b8ff" points="1326.46,-408.25 1336.46,-404.75 1326.46,-401.25 1326.46,-408.25"/>
</a>
</g>
</g>
<!-- Node33 -->
<g id="Node000033" class="node">
<title>Node33</title>
<g id="a_Node000033"><a xlink:href="classmqtt_1_1bridge_1_1lib_1_1SSEDistributor.html#a8ee49146118a6d1016311f388061ecc3" target="_top" xlink:title=" ">
<polygon fill="white" stroke="#666666" points="1302.25,-369.5 1139.25,-369.5 1139.25,-336 1302.25,-336 1302.25,-369.5"/>
<text xml:space="preserve" text-anchor="start" x="1147.25" y="-356" font-family="Helvetica,sans-Serif" font-size="10.00">mqtt::bridge::lib::</text>
<text xml:space="preserve" text-anchor="middle" x="1220.75" y="-343.25" font-family="Helvetica,sans-Serif" font-size="10.00">SSEDistributor::sendJsonEvent</text>
</a>
</g>
</g>
<!-- Node1&#45;&gt;Node33 -->
<g id="edge39_Node000001_Node000033" class="edge">
<title>Node1&#45;&gt;Node33</title>
<g id="a_edge39_Node000001_Node000033"><a xlink:title=" ">
<path fill="none" stroke="#63b8ff" d="M1336.02,-384.55C1318.69,-379.72 1300.34,-374.62 1283.55,-369.95"/>
<polygon fill="#63b8ff" stroke="#63b8ff" points="1334.63,-387.79 1345.2,-387.1 1336.5,-381.05 1334.63,-387.79"/>
</a>
</g>
</g>
<!-- Node3 -->
<g id="Node000003" class="node">
<title>Node3</title>
<g id="a_Node000003"><a xlink:href="mqttbridge_8cpp.html#a0ddf1224851353fc92bfbff6f499fa97" target="_top" xlink:title=" ">
<polygon fill="white" stroke="#666666" points="392.25,-619.12 351.5,-619.12 351.5,-598.38 392.25,-598.38 392.25,-619.12"/>
<text xml:space="preserve" text-anchor="middle" x="371.88" y="-605.62" font-family="Helvetica,sans-Serif" font-size="10.00">main</text>
</a>
</g>
</g>
<!-- Node2&#45;&gt;Node3 -->
<g id="edge2_Node000002_Node000003" class="edge">
<title>Node2&#45;&gt;Node3</title>
<g id="a_edge2_Node000002_Node000003"><a xlink:title=" ">
<path fill="none" stroke="#63b8ff" d="M995.88,-589.94C975.04,-620.78 935.69,-670.37 887,-690.75 706.07,-766.48 462.46,-654.91 392.44,-619.15"/>
<polygon fill="#63b8ff" stroke="#63b8ff" points="998.59,-592.2 1001.16,-581.92 992.74,-588.35 998.59,-592.2"/>
</a>
</g>
</g>
<!-- Node5 -->
<g id="Node000005" class="node">
<title>Node5</title>
<g id="a_Node000005"><a xlink:href="classmqtt_1_1bridge_1_1lib_1_1SSEDistributor.html#ae352efe457441f0669d10132f46b514e" target="_top" xlink:title=" ">
<polygon fill="white" stroke="#666666" points="1094.62,-383.5 931.62,-383.5 931.62,-350 1094.62,-350 1094.62,-383.5"/>
<text xml:space="preserve" text-anchor="start" x="939.62" y="-370" font-family="Helvetica,sans-Serif" font-size="10.00">mqtt::bridge::lib::</text>
<text xml:space="preserve" text-anchor="middle" x="1013.12" y="-357.25" font-family="Helvetica,sans-Serif" font-size="10.00">SSEDistributor::sendJsonEvent</text>
</a>
</g>
</g>
<!-- Node4&#45;&gt;Node5 -->
<g id="edge4_Node000004_Node000005" class="edge">
<title>Node4&#45;&gt;Node5</title>
<g id="a_edge4_Node000004_Node000005"><a xlink:title=" ">
<path fill="none" stroke="#63b8ff" d="M1137.8,-389.61C1123.67,-386.99 1109,-384.28 1094.91,-381.68"/>
<polygon fill="#63b8ff" stroke="#63b8ff" points="1137.03,-393.02 1147.5,-391.4 1138.3,-386.14 1137.03,-393.02"/>
</a>
</g>
</g>
<!-- Node6 -->
<g id="Node000006" class="node">
<title>Node6</title>
<g id="a_Node000006"><a xlink:href="classmqtt_1_1bridge_1_1lib_1_1SSEDistributor.html#a92417b5c17494511d8e64c8f8c122ebf" target="_top" xlink:title=" ">
<polygon fill="white" stroke="#666666" points="873.88,-435.5 708.62,-435.5 708.62,-402 873.88,-402 873.88,-435.5"/>
<text xml:space="preserve" text-anchor="start" x="716.62" y="-422" font-family="Helvetica,sans-Serif" font-size="10.00">mqtt::bridge::lib::</text>
<text xml:space="preserve" text-anchor="middle" x="791.25" y="-409.25" font-family="Helvetica,sans-Serif" font-size="10.00">SSEDistributor::bridgeDisabled</text>
</a>
</g>
</g>
<!-- Node5&#45;&gt;Node6 -->
<g id="edge5_Node000005_Node000006" class="edge">
<title>Node5&#45;&gt;Node6</title>
<g id="a_edge5_Node000005_Node000006"><a xlink:title=" ">
<path fill="none" stroke="#63b8ff" d="M928.14,-386.61C907.32,-391.54 885.19,-396.77 864.96,-401.55"/>
<polygon fill="#63b8ff" stroke="#63b8ff" points="928.82,-390.05 937.74,-384.34 927.21,-383.24 928.82,-390.05"/>
</a>
</g>
</g>
<!-- Node7 -->
<g id="Node000007" class="node">
<title>Node7</title>
<g id="a_Node000007"><a xlink:href="classmqtt_1_1bridge_1_1lib_1_1SSEDistributor.html#a92c4668cbdeebc4aecf11bbfed1f8228" target="_top" xlink:title=" ">
<polygon fill="white" stroke="#666666" points="657.25,-286.5 494.25,-286.5 494.25,-253 657.25,-253 657.25,-286.5"/>
<text xml:space="preserve" text-anchor="start" x="502.25" y="-273" font-family="Helvetica,sans-Serif" font-size="10.00">mqtt::bridge::lib::</text>
<text xml:space="preserve" text-anchor="middle" x="575.75" y="-260.25" font-family="Helvetica,sans-Serif" font-size="10.00">SSEDistributor::bridgesStarted</text>
</a>
</g>
</g>
<!-- Node5&#45;&gt;Node7 -->
<g id="edge6_Node000005_Node000007" class="edge">
<title>Node5&#45;&gt;Node7</title>
<g id="a_edge6_Node000005_Node000007"><a xlink:title=" ">
<path fill="none" stroke="#63b8ff" d="M983.1,-342.76C958.99,-324.36 922.95,-300.24 887,-288.75 811.82,-264.73 721.28,-261.95 657.47,-263.99"/>
<polygon fill="#63b8ff" stroke="#63b8ff" points="980.81,-345.41 990.84,-348.81 985.11,-339.9 980.81,-345.41"/>
</a>
</g>
</g>
<!-- Node10 -->
<g id="Node000010" class="node">
<title>Node10</title>
<g id="a_Node000010"><a xlink:href="classmqtt_1_1bridge_1_1lib_1_1SSEDistributor.html#a2b97b3e1b7139a536dc1d9a7192bb9de" target="_top" xlink:title=" ">
<polygon fill="white" stroke="#666666" points="874.25,-525.5 708.25,-525.5 708.25,-492 874.25,-492 874.25,-525.5"/>
<text xml:space="preserve" text-anchor="start" x="716.25" y="-512" font-family="Helvetica,sans-Serif" font-size="10.00">mqtt::bridge::lib::</text>
<text xml:space="preserve" text-anchor="middle" x="791.25" y="-499.25" font-family="Helvetica,sans-Serif" font-size="10.00">SSEDistributor::bridgesStarting</text>
</a>
</g>
</g>
<!-- Node5&#45;&gt;Node10 -->
<g id="edge9_Node000005_Node000010" class="edge">
<title>Node5&#45;&gt;Node10</title>
<g id="a_edge9_Node000005_Node000010"><a xlink:title=" ">
<path fill="none" stroke="#63b8ff" d="M989.59,-392.06C966.16,-416.99 927.33,-454.61 887,-477.75 877.69,-483.09 867.34,-487.66 856.98,-491.53"/>
<polygon fill="#63b8ff" stroke="#63b8ff" points="991.97,-394.64 996.18,-384.93 986.83,-389.89 991.97,-394.64"/>
</a>
</g>
</g>
<!-- Node17 -->
<g id="Node000017" class="node">
<title>Node17</title>
<g id="a_Node000017"><a xlink:href="classmqtt_1_1bridge_1_1lib_1_1SSEDistributor.html#a6163c6302162edf63fbfb851cf995bb0" target="_top" xlink:title=" ">
<polygon fill="white" stroke="#666666" points="659.5,-480.5 492,-480.5 492,-447 659.5,-447 659.5,-480.5"/>
<text xml:space="preserve" text-anchor="start" x="500" y="-467" font-family="Helvetica,sans-Serif" font-size="10.00">mqtt::bridge::lib::</text>
<text xml:space="preserve" text-anchor="middle" x="575.75" y="-454.25" font-family="Helvetica,sans-Serif" font-size="10.00">SSEDistributor::bridgesStopped</text>
</a>
</g>
</g>
<!-- Node5&#45;&gt;Node17 -->
<g id="edge19_Node000005_Node000017" class="edge">
<title>Node5&#45;&gt;Node17</title>
<g id="a_edge19_Node000005_Node000017"><a xlink:title=" ">
<path fill="none" stroke="#63b8ff" d="M983.1,-390.74C958.99,-409.14 922.95,-433.26 887,-444.75 812.72,-468.49 723.45,-471.48 659.77,-469.58"/>
<polygon fill="#63b8ff" stroke="#63b8ff" points="985.11,-393.6 990.84,-384.69 980.81,-388.09 985.11,-393.6"/>
</a>
</g>
</g>
<!-- Node18 -->
<g id="Node000018" class="node">
<title>Node18</title>
<g id="a_Node000018"><a xlink:href="classmqtt_1_1bridge_1_1lib_1_1SSEDistributor.html#a15b52ed6fe4ca6d0b94d15ec3a4cacb8" target="_top" xlink:title=" ">
<polygon fill="white" stroke="#666666" points="876.5,-241.5 706,-241.5 706,-208 876.5,-208 876.5,-241.5"/>
<text xml:space="preserve" text-anchor="start" x="714" y="-228" font-family="Helvetica,sans-Serif" font-size="10.00">mqtt::bridge::lib::</text>
<text xml:space="preserve" text-anchor="middle" x="791.25" y="-215.25" font-family="Helvetica,sans-Serif" font-size="10.00">SSEDistributor::bridgesStopping</text>
</a>
</g>
</g>
<!-- Node5&#45;&gt;Node18 -->
<g id="edge21_Node000005_Node000018" class="edge">
<title>Node5&#45;&gt;Node18</title>
<g id="a_edge21_Node000005_Node000018"><a xlink:title=" ">
<path fill="none" stroke="#63b8ff" d="M989.59,-341.44C966.16,-316.51 927.33,-278.89 887,-255.75 877.69,-250.41 867.34,-245.84 856.98,-241.97"/>
<polygon fill="#63b8ff" stroke="#63b8ff" points="986.83,-343.61 996.18,-348.57 991.97,-338.86 986.83,-343.61"/>
</a>
</g>
</g>
<!-- Node20 -->
<g id="Node000020" class="node">
<title>Node20</title>
<g id="a_Node000020"><a xlink:href="classmqtt_1_1bridge_1_1lib_1_1SSEDistributor.html#ab3ae5e9780ecb99eb541615b86c28bce" target="_top" xlink:title=" ">
<polygon fill="white" stroke="#666666" points="870.12,-383.5 712.38,-383.5 712.38,-350 870.12,-350 870.12,-383.5"/>
<text xml:space="preserve" text-anchor="start" x="720.38" y="-370" font-family="Helvetica,sans-Serif" font-size="10.00">mqtt::bridge::lib::</text>
<text xml:space="preserve" text-anchor="middle" x="791.25" y="-357.25" font-family="Helvetica,sans-Serif" font-size="10.00">SSEDistributor::bridgeStarted</text>
</a>
</g>
</g>
<!-- Node5&#45;&gt;Node20 -->
<g id="edge23_Node000005_Node000020" class="edge">
<title>Node5&#45;&gt;Node20</title>
<g id="a_edge23_Node000005_Node000020"><a xlink:title=" ">
<path fill="none" stroke="#63b8ff" d="M919.91,-366.75C903.46,-366.75 886.46,-366.75 870.45,-366.75"/>
<polygon fill="#63b8ff" stroke="#63b8ff" points="919.67,-370.25 929.67,-366.75 919.67,-363.25 919.67,-370.25"/>
</a>
</g>
</g>
<!-- Node22 -->
<g id="Node000022" class="node">
<title>Node22</title>
<g id="a_Node000022"><a xlink:href="classmqtt_1_1bridge_1_1lib_1_1SSEDistributor.html#aa3ec6c12c179ba7a9dcdf08da6e6e353" target="_top" xlink:title=" ">
<polygon fill="white" stroke="#666666" points="871.62,-189.5 710.88,-189.5 710.88,-156 871.62,-156 871.62,-189.5"/>
<text xml:space="preserve" text-anchor="start" x="718.88" y="-176" font-family="Helvetica,sans-Serif" font-size="10.00">mqtt::bridge::lib::</text>
<text xml:space="preserve" text-anchor="middle" x="791.25" y="-163.25" font-family="Helvetica,sans-Serif" font-size="10.00">SSEDistributor::bridgeStarting</text>
</a>
</g>
</g>
<!-- Node5&#45;&gt;Node22 -->
<g id="edge26_Node000005_Node000022" class="edge">
<title>Node5&#45;&gt;Node22</title>
<g id="a_edge26_Node000005_Node000022"><a xlink:title=" ">
<path fill="none" stroke="#63b8ff" d="M999.22,-339.59C980.04,-302.17 940.44,-235.25 887,-198.75 882.07,-195.38 876.72,-192.45 871.15,-189.9"/>
<polygon fill="#63b8ff" stroke="#63b8ff" points="996.02,-341.02 1003.62,-348.4 1002.28,-337.89 996.02,-341.02"/>
</a>
</g>
</g>
<!-- Node23 -->
<g id="Node000023" class="node">
<title>Node23</title>
<g id="a_Node000023"><a xlink:href="classmqtt_1_1bridge_1_1lib_1_1SSEDistributor.html#a5b12dc07a03ac23f4cb046b00a06e0c7" target="_top" xlink:title=" ">
<polygon fill="white" stroke="#666666" points="872.38,-85.5 710.12,-85.5 710.12,-52 872.38,-52 872.38,-85.5"/>
<text xml:space="preserve" text-anchor="start" x="718.12" y="-72" font-family="Helvetica,sans-Serif" font-size="10.00">mqtt::bridge::lib::</text>
<text xml:space="preserve" text-anchor="middle" x="791.25" y="-59.25" font-family="Helvetica,sans-Serif" font-size="10.00">SSEDistributor::bridgeStopped</text>
</a>
</g>
</g>
<!-- Node5&#45;&gt;Node23 -->
<g id="edge27_Node000005_Node000023" class="edge">
<title>Node5&#45;&gt;Node23</title>
<g id="a_edge27_Node000005_Node000023"><a xlink:title=" ">
<path fill="none" stroke="#63b8ff" d="M1007.31,-338.71C996.33,-283.46 964.17,-160.24 887,-94.75 882.58,-91 877.66,-87.78 872.45,-85.03"/>
<polygon fill="#63b8ff" stroke="#63b8ff" points="1003.82,-339.06 1009.12,-348.23 1010.69,-337.76 1003.82,-339.06"/>
</a>
</g>
</g>
<!-- Node27 -->
<g id="Node000027" class="node">
<title>Node27</title>
<g id="a_Node000027"><a xlink:href="classmqtt_1_1bridge_1_1lib_1_1SSEDistributor.html#aed21f539876af580bab05eb9d131256f" target="_top" xlink:title=" ">
<polygon fill="white" stroke="#666666" points="873.88,-33.5 708.62,-33.5 708.62,0 873.88,0 873.88,-33.5"/>
<text xml:space="preserve" text-anchor="start" x="716.62" y="-20" font-family="Helvetica,sans-Serif" font-size="10.00">mqtt::bridge::lib::</text>
<text xml:space="preserve" text-anchor="middle" x="791.25" y="-7.25" font-family="Helvetica,sans-Serif" font-size="10.00">SSEDistributor::bridgeStopping</text>
</a>
</g>
</g>
<!-- Node5&#45;&gt;Node27 -->
<g id="edge31_Node000005_Node000027" class="edge">
<title>Node5&#45;&gt;Node27</title>
<g id="a_edge31_Node000005_Node000027"><a xlink:title=" ">
<path fill="none" stroke="#63b8ff" d="M1009.59,-338.34C1002.43,-275.41 976.32,-123.5 887,-42.75 883.08,-39.2 878.72,-36.14 874.08,-33.48"/>
<polygon fill="#63b8ff" stroke="#63b8ff" points="1006.1,-338.6 1010.63,-348.18 1013.06,-337.87 1006.1,-338.6"/>
</a>
</g>
</g>
<!-- Node28 -->
<g id="Node000028" class="node">
<title>Node28</title>
<g id="a_Node000028"><a xlink:href="classmqtt_1_1bridge_1_1lib_1_1SSEDistributor.html#a65e615fcf8a78daab16cd91f5c219374" target="_top" xlink:title=" ">
<polygon fill="white" stroke="#666666" points="878.38,-331.5 704.12,-331.5 704.12,-298 878.38,-298 878.38,-331.5"/>
<text xml:space="preserve" text-anchor="start" x="712.12" y="-318" font-family="Helvetica,sans-Serif" font-size="10.00">mqtt::bridge::lib::</text>
<text xml:space="preserve" text-anchor="middle" x="791.25" y="-305.25" font-family="Helvetica,sans-Serif" font-size="10.00">SSEDistributor::brokerConnected</text>
</a>
</g>
</g>
<!-- Node5&#45;&gt;Node28 -->
<g id="edge32_Node000005_Node000028" class="edge">
<title>Node5&#45;&gt;Node28</title>
<g id="a_edge32_Node000005_Node000028"><a xlink:title=" ">
<path fill="none" stroke="#63b8ff" d="M928.14,-346.89C907.32,-341.96 885.19,-336.73 864.96,-331.95"/>
<polygon fill="#63b8ff" stroke="#63b8ff" points="927.21,-350.26 937.74,-349.16 928.82,-343.45 927.21,-350.26"/>
</a>
</g>
</g>
<!-- Node29 -->
<g id="Node000029" class="node">
<title>Node29</title>
<g id="a_Node000029"><a xlink:href="classmqtt_1_1bridge_1_1lib_1_1SSEDistributor.html#a85e18d38f96cdd2ece8f48917dd8bfa7" target="_top" xlink:title=" ">
<polygon fill="white" stroke="#666666" points="879.88,-681.5 702.62,-681.5 702.62,-648 879.88,-648 879.88,-681.5"/>
<text xml:space="preserve" text-anchor="start" x="710.62" y="-668" font-family="Helvetica,sans-Serif" font-size="10.00">mqtt::bridge::lib::</text>
<text xml:space="preserve" text-anchor="middle" x="791.25" y="-655.25" font-family="Helvetica,sans-Serif" font-size="10.00">SSEDistributor::brokerConnecting</text>
</a>
</g>
</g>
<!-- Node5&#45;&gt;Node29 -->
<g id="edge34_Node000005_Node000029" class="edge">
<title>Node5&#45;&gt;Node29</title>
<g id="a_edge34_Node000005_Node000029"><a xlink:title=" ">
<path fill="none" stroke="#63b8ff" d="M996.59,-393.7C977.8,-426.92 945.83,-485.42 923,-537.75 903.94,-581.43 921.93,-606.33 887,-638.75 883.37,-642.12 879.35,-645.05 875.08,-647.61"/>
<polygon fill="#63b8ff" stroke="#63b8ff" points="999.55,-395.58 1001.46,-385.16 993.47,-392.12 999.55,-395.58"/>
</a>
</g>
</g>
<!-- Node30 -->
<g id="Node000030" class="node">
<title>Node30</title>
<g id="a_Node000030"><a xlink:href="classmqtt_1_1bridge_1_1lib_1_1SSEDistributor.html#a8b5d90f4d9ae6fa213aba6469f795f80" target="_top" xlink:title=" ">
<polygon fill="white" stroke="#666666" points="873.88,-629.5 708.62,-629.5 708.62,-596 873.88,-596 873.88,-629.5"/>
<text xml:space="preserve" text-anchor="start" x="716.62" y="-616" font-family="Helvetica,sans-Serif" font-size="10.00">mqtt::bridge::lib::</text>
<text xml:space="preserve" text-anchor="middle" x="791.25" y="-603.25" font-family="Helvetica,sans-Serif" font-size="10.00">SSEDistributor::brokerDisabled</text>
</a>
</g>
</g>
<!-- Node5&#45;&gt;Node30 -->
<g id="edge35_Node000005_Node000030" class="edge">
<title>Node5&#45;&gt;Node30</title>
<g id="a_edge35_Node000005_Node000030"><a xlink:title=" ">
<path fill="none" stroke="#63b8ff" d="M998.12,-394.01C969.2,-449.92 904.12,-573.45 887,-586.75 882.69,-590.1 877.98,-593.02 873.03,-595.56"/>
<polygon fill="#63b8ff" stroke="#63b8ff" points="1001.23,-395.62 1002.71,-385.13 995.01,-392.41 1001.23,-395.62"/>
</a>
</g>
</g>
<!-- Node31 -->
<g id="Node000031" class="node">
<title>Node31</title>
<g id="a_Node000031"><a xlink:href="classmqtt_1_1bridge_1_1lib_1_1SSEDistributor.html#adcd994f13bb46f04949cd1e08db44f36" target="_top" xlink:title=" ">
<polygon fill="white" stroke="#666666" points="885.5,-137.5 697,-137.5 697,-104 885.5,-104 885.5,-137.5"/>
<text xml:space="preserve" text-anchor="start" x="705" y="-124" font-family="Helvetica,sans-Serif" font-size="10.00">mqtt::bridge::lib::</text>
<text xml:space="preserve" text-anchor="middle" x="791.25" y="-111.25" font-family="Helvetica,sans-Serif" font-size="10.00">SSEDistributor::brokerDisconnected</text>
</a>
</g>
</g>
<!-- Node5&#45;&gt;Node31 -->
<g id="edge36_Node000005_Node000031" class="edge">
<title>Node5&#45;&gt;Node31</title>
<g id="a_edge36_Node000005_Node000031"><a xlink:title=" ">
<path fill="none" stroke="#63b8ff" d="M1004.04,-338.86C988.97,-291.93 952.08,-197.34 887,-146.75 882.69,-143.4 877.98,-140.48 873.03,-137.94"/>
<polygon fill="#63b8ff" stroke="#63b8ff" points="1000.65,-339.75 1006.96,-348.27 1007.34,-337.68 1000.65,-339.75"/>
</a>
</g>
</g>
<!-- Node32 -->
<g id="Node000032" class="node">
<title>Node32</title>
<g id="a_Node000032"><a xlink:href="classmqtt_1_1bridge_1_1lib_1_1SSEDistributor.html#adf0a983dc18c4aa42c477a3a295ce6fb" target="_top" xlink:title=" ">
<polygon fill="white" stroke="#666666" points="887,-577.5 695.5,-577.5 695.5,-544 887,-544 887,-577.5"/>
<text xml:space="preserve" text-anchor="start" x="703.5" y="-564" font-family="Helvetica,sans-Serif" font-size="10.00">mqtt::bridge::lib::</text>
<text xml:space="preserve" text-anchor="middle" x="791.25" y="-551.25" font-family="Helvetica,sans-Serif" font-size="10.00">SSEDistributor::brokerDisconnecting</text>
</a>
</g>
</g>
<!-- Node5&#45;&gt;Node32 -->
<g id="edge38_Node000005_Node000032" class="edge">
<title>Node5&#45;&gt;Node32</title>
<g id="a_edge38_Node000005_Node000032"><a xlink:title=" ">
<path fill="none" stroke="#63b8ff" d="M999.22,-393.91C980.04,-431.33 940.44,-498.25 887,-534.75 882.07,-538.12 876.72,-541.05 871.15,-543.6"/>
<polygon fill="#63b8ff" stroke="#63b8ff" points="1002.28,-395.61 1003.62,-385.1 996.02,-392.48 1002.28,-395.61"/>
</a>
</g>
</g>
<!-- Node8 -->
<g id="Node000008" class="node">
<title>Node8</title>
<g id="a_Node000008"><a xlink:href="classmqtt_1_1bridge_1_1lib_1_1BridgeStore.html#a3e74b309f1d8aa60e4487e35abc1a8b1" target="_top" xlink:title=" ">
<polygon fill="white" stroke="#666666" points="448.88,-312.5 294.88,-312.5 294.88,-279 448.88,-279 448.88,-312.5"/>
<text xml:space="preserve" text-anchor="start" x="302.88" y="-299" font-family="Helvetica,sans-Serif" font-size="10.00">mqtt::bridge::lib::</text>
<text xml:space="preserve" text-anchor="middle" x="371.88" y="-286.25" font-family="Helvetica,sans-Serif" font-size="10.00">BridgeStore::mqttConnected</text>
</a>
</g>
</g>
<!-- Node7&#45;&gt;Node8 -->
<g id="edge7_Node000007_Node000008" class="edge">
<title>Node7&#45;&gt;Node8</title>
<g id="a_edge7_Node000007_Node000008"><a xlink:title=" ">
<path fill="none" stroke="#63b8ff" d="M482.69,-281.61C471.51,-283.05 460.18,-284.51 449.25,-285.91"/>
<polygon fill="#63b8ff" stroke="#63b8ff" points="482.83,-285.12 492.3,-280.37 481.94,-278.17 482.83,-285.12"/>
</a>
</g>
</g>
<!-- Node9 -->
<g id="Node000009" class="node">
<title>Node9</title>
<g id="a_Node000009"><a xlink:href="classmqtt_1_1bridge_1_1lib_1_1Mqtt.html#a695ccafca764022552d51da3faccbdac" target="_top" xlink:title=" ">
<polygon fill="white" stroke="#666666" points="227.38,-312.5 127.38,-312.5 127.38,-279 227.38,-279 227.38,-312.5"/>
<text xml:space="preserve" text-anchor="start" x="135.38" y="-299" font-family="Helvetica,sans-Serif" font-size="10.00">mqtt::bridge::lib::</text>
<text xml:space="preserve" text-anchor="middle" x="177.38" y="-286.25" font-family="Helvetica,sans-Serif" font-size="10.00">Mqtt::onConnack</text>
</a>
</g>
</g>
<!-- Node8&#45;&gt;Node9 -->
<g id="edge8_Node000008_Node000009" class="edge">
<title>Node8&#45;&gt;Node9</title>
<g id="a_edge8_Node000008_Node000009"><a xlink:title=" ">
<path fill="none" stroke="#63b8ff" d="M283.09,-295.75C264.1,-295.75 244.67,-295.75 227.78,-295.75"/>
<polygon fill="#63b8ff" stroke="#63b8ff" points="283,-299.25 293,-295.75 283,-292.25 283,-299.25"/>
</a>
</g>
</g>
<!-- Node11 -->
<g id="Node000011" class="node">
<title>Node11</title>
<g id="a_Node000011"><a xlink:href="mqttbridge_8cpp.html#ac4db1bc049804762ae0893100ec95dec" target="_top" xlink:title=" ">
<polygon fill="white" stroke="#666666" points="613.38,-519.12 538.12,-519.12 538.12,-498.38 613.38,-498.38 613.38,-519.12"/>
<text xml:space="preserve" text-anchor="middle" x="575.75" y="-505.62" font-family="Helvetica,sans-Serif" font-size="10.00">startBridges</text>
</a>
</g>
</g>
<!-- Node10&#45;&gt;Node11 -->
<g id="edge10_Node000010_Node000011" class="edge">
<title>Node10&#45;&gt;Node11</title>
<g id="a_edge10_Node000010_Node000011"><a xlink:title=" ">
<path fill="none" stroke="#63b8ff" d="M696.85,-508.75C667.5,-508.75 636.78,-508.75 613.76,-508.75"/>
<polygon fill="#63b8ff" stroke="#63b8ff" points="696.5,-512.25 706.5,-508.75 696.5,-505.25 696.5,-512.25"/>
</a>
</g>
</g>
<!-- Node11&#45;&gt;Node3 -->
<g id="edge11_Node000011_Node000003" class="edge">
<title>Node11&#45;&gt;Node3</title>
<g id="a_edge11_Node000011_Node000003"><a xlink:title=" ">
<path fill="none" stroke="#63b8ff" d="M542.87,-524.54C500.65,-545.46 427.46,-581.71 392.53,-599.01"/>
<polygon fill="#63b8ff" stroke="#63b8ff" points="544.38,-527.7 551.79,-520.12 541.28,-521.43 544.38,-527.7"/>
</a>
</g>
</g>
<!-- Node12 -->
<g id="Node000012" class="node">
<title>Node12</title>
<g id="a_Node000012"><a xlink:href="mqttbridge_8cpp.html#a90732e510a2e6efcd8d0ab7912f5b043" target="_top" xlink:title=" ">
<polygon fill="white" stroke="#666666" points="422.62,-496.12 321.12,-496.12 321.12,-475.38 422.62,-475.38 422.62,-496.12"/>
<text xml:space="preserve" text-anchor="middle" x="371.88" y="-482.62" font-family="Helvetica,sans-Serif" font-size="10.00">tryRestartBridges</text>
</a>
</g>
</g>
<!-- Node11&#45;&gt;Node12 -->
<g id="edge12_Node000011_Node000012" class="edge">
<title>Node11&#45;&gt;Node12</title>
<g id="a_edge12_Node000011_Node000012"><a xlink:title=" ">
<path fill="none" stroke="#63b8ff" d="M526.66,-503.27C495.37,-499.71 454.65,-495.07 422.98,-491.46"/>
<polygon fill="#63b8ff" stroke="#63b8ff" points="525.89,-506.71 536.22,-504.36 526.68,-499.75 525.89,-506.71"/>
</a>
</g>
</g>
<!-- Node13 -->
<g id="Node000013" class="node">
<title>Node13</title>
<g id="a_Node000013"><a xlink:href="mqttbridge_8cpp.html#abaecb3a278e25c3770ab0ae7253e04a7" target="_top" xlink:title=" ">
<polygon fill="white" stroke="#666666" points="251.75,-516.12 103,-516.12 103,-495.38 251.75,-495.38 251.75,-516.12"/>
<text xml:space="preserve" text-anchor="middle" x="177.38" y="-502.62" font-family="Helvetica,sans-Serif" font-size="10.00">delBridgeBrokerConnection</text>
</a>
</g>
</g>
<!-- Node12&#45;&gt;Node13 -->
<g id="edge13_Node000012_Node000013" class="edge">
<title>Node12&#45;&gt;Node13</title>
<g id="a_edge13_Node000012_Node000013"><a xlink:title=" ">
<path fill="none" stroke="#63b8ff" d="M309.43,-492.13C291.21,-494.03 271.06,-496.12 252.13,-498.09"/>
<polygon fill="#63b8ff" stroke="#63b8ff" points="309.71,-495.62 319.29,-491.11 308.99,-488.66 309.71,-495.62"/>
</a>
</g>
</g>
<!-- Node16 -->
<g id="Node000016" class="node">
<title>Node16</title>
<g id="a_Node000016"><a xlink:href="mqttbridge_8cpp.html#a0d29fd238d0a229ef0f176e1159f8b1a" target="_top" xlink:title=" ">
<polygon fill="white" stroke="#666666" points="226.62,-477.12 128.12,-477.12 128.12,-456.38 226.62,-456.38 226.62,-477.12"/>
<text xml:space="preserve" text-anchor="middle" x="177.38" y="-463.62" font-family="Helvetica,sans-Serif" font-size="10.00">handleConnector</text>
</a>
</g>
</g>
<!-- Node12&#45;&gt;Node16 -->
<g id="edge16_Node000012_Node000016" class="edge">
<title>Node12&#45;&gt;Node16</title>
<g id="a_edge16_Node000012_Node000016"><a xlink:title=" ">
<path fill="none" stroke="#63b8ff" d="M309.63,-479.7C282.89,-477.07 251.97,-474.01 226.87,-471.54"/>
<polygon fill="#63b8ff" stroke="#63b8ff" points="309,-483.16 319.29,-480.66 309.69,-476.19 309,-483.16"/>
</a>
</g>
</g>
<!-- Node14 -->
<g id="Node000014" class="node">
<title>Node14</title>
<g id="a_Node000014"><a xlink:href="mqttbridge_8cpp.html#ad84302247d911fde5d3ec263d3b757f9" target="_top" xlink:title=" ">
<polygon fill="white" stroke="#666666" points="67,-516.12 0,-516.12 0,-495.38 67,-495.38 67,-516.12"/>
<text xml:space="preserve" text-anchor="middle" x="33.5" y="-502.62" font-family="Helvetica,sans-Serif" font-size="10.00">startClient</text>
</a>
</g>
</g>
<!-- Node13&#45;&gt;Node14 -->
<g id="edge14_Node000013_Node000014" class="edge">
<title>Node13&#45;&gt;Node14</title>
<g id="a_edge14_Node000013_Node000014"><a xlink:title=" ">
<path fill="none" stroke="#63b8ff" d="M91.28,-505.75C82.81,-505.75 74.63,-505.75 67.23,-505.75"/>
<polygon fill="#63b8ff" stroke="#63b8ff" points="91.02,-509.25 101.02,-505.75 91.02,-502.25 91.02,-509.25"/>
</a>
</g>
</g>
<!-- Node15 -->
<g id="Node000015" class="node">
<title>Node15</title>
<g id="a_Node000015"><a xlink:href="mqttbridge_8cpp.html#a1c2878ce9e95e211ae0fd04d12ea43f7" target="_top" xlink:title=" ">
<polygon fill="white" stroke="#666666" points="67,-477.12 0,-477.12 0,-456.38 67,-456.38 67,-477.12"/>
<text xml:space="preserve" text-anchor="middle" x="33.5" y="-463.62" font-family="Helvetica,sans-Serif" font-size="10.00">startClient</text>
</a>
</g>
</g>
<!-- Node13&#45;&gt;Node15 -->
<g id="edge15_Node000013_Node000015" class="edge">
<title>Node13&#45;&gt;Node15</title>
<g id="a_edge15_Node000013_Node000015"><a xlink:title=" ">
<path fill="none" stroke="#63b8ff" d="M125.49,-491.91C117.95,-489.85 110.27,-487.75 103,-485.75 91.34,-482.54 78.57,-479.01 67.24,-475.86"/>
<polygon fill="#63b8ff" stroke="#63b8ff" points="124.35,-495.23 134.92,-494.48 126.19,-488.48 124.35,-495.23"/>
</a>
</g>
</g>
<!-- Node16&#45;&gt;Node14 -->
<g id="edge17_Node000016_Node000014" class="edge">
<title>Node16&#45;&gt;Node14</title>
<g id="a_edge17_Node000016_Node000014"><a xlink:title=" ">
<path fill="none" stroke="#63b8ff" d="M125.49,-480.59C117.95,-482.65 110.27,-484.75 103,-486.75 91.34,-489.96 78.57,-493.49 67.24,-496.64"/>
<polygon fill="#63b8ff" stroke="#63b8ff" points="126.19,-484.02 134.92,-478.02 124.35,-477.27 126.19,-484.02"/>
</a>
</g>
</g>
<!-- Node16&#45;&gt;Node15 -->
<g id="edge18_Node000016_Node000015" class="edge">
<title>Node16&#45;&gt;Node15</title>
<g id="a_edge18_Node000016_Node000015"><a xlink:title=" ">
<path fill="none" stroke="#63b8ff" d="M116.91,-466.75C99.85,-466.75 81.89,-466.75 67.1,-466.75"/>
<polygon fill="#63b8ff" stroke="#63b8ff" points="116.43,-470.25 126.43,-466.75 116.43,-463.25 116.43,-470.25"/>
</a>
</g>
</g>
<!-- Node17&#45;&gt;Node12 -->
<g id="edge20_Node000017_Node000012" class="edge">
<title>Node17&#45;&gt;Node12</title>
<g id="a_edge20_Node000017_Node000012"><a xlink:title=" ">
<path fill="none" stroke="#63b8ff" d="M480.45,-474.03C460.57,-476.19 440.34,-478.4 422.88,-480.3"/>
<polygon fill="#63b8ff" stroke="#63b8ff" points="480.7,-477.52 490.26,-472.96 479.94,-470.56 480.7,-477.52"/>
</a>
</g>
</g>
<!-- Node19 -->
<g id="Node000019" class="node">
<title>Node19</title>
<g id="a_Node000019"><a xlink:href="mqttbridge_8cpp.html#ac0dd8cd8684c94ee9b34a82905b2fbd3" target="_top" xlink:title=" ">
<polygon fill="white" stroke="#666666" points="614.88,-235.12 536.62,-235.12 536.62,-214.38 614.88,-214.38 614.88,-235.12"/>
<text xml:space="preserve" text-anchor="middle" x="575.75" y="-221.62" font-family="Helvetica,sans-Serif" font-size="10.00">closeBridges</text>
</a>
</g>
</g>
<!-- Node18&#45;&gt;Node19 -->
<g id="edge22_Node000018_Node000019" class="edge">
<title>Node18&#45;&gt;Node19</title>
<g id="a_edge22_Node000018_Node000019"><a xlink:title=" ">
<path fill="none" stroke="#63b8ff" d="M694.13,-224.75C666.3,-224.75 637.48,-224.75 615.37,-224.75"/>
<polygon fill="#63b8ff" stroke="#63b8ff" points="694.05,-228.25 704.05,-224.75 694.05,-221.25 694.05,-228.25"/>
</a>
</g>
</g>
<!-- Node21 -->
<g id="Node000021" class="node">
<title>Node21</title>
<g id="a_Node000021"><a xlink:href="classmqtt_1_1bridge_1_1lib_1_1Bridge.html#a3a4293a660369d5d5976c303eb5e7262" target="_top" xlink:title=" ">
<polygon fill="white" stroke="#666666" points="625.75,-338.5 525.75,-338.5 525.75,-305 625.75,-305 625.75,-338.5"/>
<text xml:space="preserve" text-anchor="start" x="533.75" y="-325" font-family="Helvetica,sans-Serif" font-size="10.00">mqtt::bridge::lib::</text>
<text xml:space="preserve" text-anchor="middle" x="575.75" y="-312.25" font-family="Helvetica,sans-Serif" font-size="10.00">Bridge::addMqtt</text>
</a>
</g>
</g>
<!-- Node20&#45;&gt;Node21 -->
<g id="edge24_Node000020_Node000021" class="edge">
<title>Node20&#45;&gt;Node21</title>
<g id="a_edge24_Node000020_Node000021"><a xlink:title=" ">
<path fill="none" stroke="#63b8ff" d="M700.74,-347.88C675.23,-342.51 648.36,-336.84 626.19,-332.17"/>
<polygon fill="#63b8ff" stroke="#63b8ff" points="699.97,-351.3 710.48,-349.94 701.42,-344.45 699.97,-351.3"/>
</a>
</g>
</g>
<!-- Node21&#45;&gt;Node8 -->
<g id="edge25_Node000021_Node000008" class="edge">
<title>Node21&#45;&gt;Node8</title>
<g id="a_edge25_Node000021_Node000008"><a xlink:title=" ">
<path fill="none" stroke="#63b8ff" d="M514.03,-313.93C493.67,-311.31 470.7,-308.35 449.29,-305.59"/>
<polygon fill="#63b8ff" stroke="#63b8ff" points="513.5,-317.39 523.86,-315.2 514.39,-310.45 513.5,-317.39"/>
</a>
</g>
</g>
<!-- Node24 -->
<g id="Node000024" class="node">
<title>Node24</title>
<g id="a_Node000024"><a xlink:href="classmqtt_1_1bridge_1_1lib_1_1Bridge.html#afa30b1de86ead152082545890c307400" target="_top" xlink:title=" ">
<polygon fill="white" stroke="#666666" points="632.5,-111.5 519,-111.5 519,-78 632.5,-78 632.5,-111.5"/>
<text xml:space="preserve" text-anchor="start" x="527" y="-98" font-family="Helvetica,sans-Serif" font-size="10.00">mqtt::bridge::lib::</text>
<text xml:space="preserve" text-anchor="middle" x="575.75" y="-85.25" font-family="Helvetica,sans-Serif" font-size="10.00">Bridge::removeMqtt</text>
</a>
</g>
</g>
<!-- Node23&#45;&gt;Node24 -->
<g id="edge28_Node000023_Node000024" class="edge">
<title>Node23&#45;&gt;Node24</title>
<g id="a_edge28_Node000023_Node000024"><a xlink:title=" ">
<path fill="none" stroke="#63b8ff" d="M698.6,-79.91C676.24,-82.63 652.97,-85.47 632.84,-87.92"/>
<polygon fill="#63b8ff" stroke="#63b8ff" points="698.83,-83.41 708.34,-78.73 697.99,-76.46 698.83,-83.41"/>
</a>
</g>
</g>
<!-- Node25 -->
<g id="Node000025" class="node">
<title>Node25</title>
<g id="a_Node000025"><a xlink:href="classmqtt_1_1bridge_1_1lib_1_1BridgeStore.html#a9384b7d7ef7214dbe923d445e3201156" target="_top" xlink:title=" ">
<polygon fill="white" stroke="#666666" points="456,-111.5 287.75,-111.5 287.75,-78 456,-78 456,-111.5"/>
<text xml:space="preserve" text-anchor="start" x="295.75" y="-98" font-family="Helvetica,sans-Serif" font-size="10.00">mqtt::bridge::lib::</text>
<text xml:space="preserve" text-anchor="middle" x="371.88" y="-85.25" font-family="Helvetica,sans-Serif" font-size="10.00">BridgeStore::mqttDisconnected</text>
</a>
</g>
</g>
<!-- Node24&#45;&gt;Node25 -->
<g id="edge29_Node000024_Node000025" class="edge">
<title>Node24&#45;&gt;Node25</title>
<g id="a_edge29_Node000024_Node000025"><a xlink:title=" ">
<path fill="none" stroke="#63b8ff" d="M507.43,-94.75C491.06,-94.75 473.37,-94.75 456.36,-94.75"/>
<polygon fill="#63b8ff" stroke="#63b8ff" points="507,-98.25 517,-94.75 507,-91.25 507,-98.25"/>
</a>
</g>
</g>
<!-- Node26 -->
<g id="Node000026" class="node">
<title>Node26</title>
<g id="a_Node000026"><a xlink:href="classmqtt_1_1bridge_1_1lib_1_1Mqtt.html#a0628e4ad221204e943cdb08061c99e94" target="_top" xlink:title=" ">
<polygon fill="white" stroke="#666666" points="238.62,-111.5 116.12,-111.5 116.12,-78 238.62,-78 238.62,-111.5"/>
<text xml:space="preserve" text-anchor="start" x="124.12" y="-98" font-family="Helvetica,sans-Serif" font-size="10.00">mqtt::bridge::lib::</text>
<text xml:space="preserve" text-anchor="middle" x="177.38" y="-85.25" font-family="Helvetica,sans-Serif" font-size="10.00">Mqtt::onDisconnected</text>
</a>
</g>
</g>
<!-- Node25&#45;&gt;Node26 -->
<g id="edge30_Node000025_Node000026" class="edge">
<title>Node25&#45;&gt;Node26</title>
<g id="a_edge30_Node000025_Node000026"><a xlink:title=" ">
<path fill="none" stroke="#63b8ff" d="M275.81,-94.75C263.29,-94.75 250.73,-94.75 239,-94.75"/>
<polygon fill="#63b8ff" stroke="#63b8ff" points="275.77,-98.25 285.77,-94.75 275.77,-91.25 275.77,-98.25"/>
</a>
</g>
</g>
<!-- Node28&#45;&gt;Node21 -->
<g id="edge33_Node000028_Node000021" class="edge">
<title>Node28&#45;&gt;Node21</title>
<g id="a_edge33_Node000028_Node000021"><a xlink:title=" ">
<path fill="none" stroke="#63b8ff" d="M692.47,-317.96C669.42,-318.71 645.81,-319.49 625.98,-320.14"/>
<polygon fill="#63b8ff" stroke="#63b8ff" points="692.33,-321.46 702.21,-317.64 692.1,-314.47 692.33,-321.46"/>
</a>
</g>
</g>
<!-- Node31&#45;&gt;Node24 -->
<g id="edge37_Node000031_Node000024" class="edge">
<title>Node31&#45;&gt;Node24</title>
<g id="a_edge37_Node000031_Node000024"><a xlink:title=" ">
<path fill="none" stroke="#63b8ff" d="M685.35,-107.98C667.23,-105.77 649.04,-103.55 632.87,-101.58"/>
<polygon fill="#63b8ff" stroke="#63b8ff" points="684.75,-111.43 695.1,-109.16 685.6,-104.48 684.75,-111.43"/>
</a>
</g>
</g>
</g>
</svg>

<g id="navigator" transform="translate(0 0)" fill="#404254">
  <rect fill="#f2f5e9" fill-opacity="0.5" stroke="#606060" stroke-width=".5" x="0" y="0" width="60" height="60"/>
  <use id="zoomplus" xlink:href="#zoomPlus" x="17" y="9" onmousedown="handleZoom(evt,'in')"/>
  <use id="zoomminus" xlink:href="#zoomMin" x="42" y="9" onmousedown="handleZoom(evt,'out')"/>
  <use id="reset" xlink:href="#resetDef" x="30" y="36" onmousedown="handleReset()"/>
   <use id="arrowup" xlink:href="#arrowUp" x="0" y="0" onmousedown="handlePan(0,-1)"/>
  <use id="arrowright" xlink:href="#arrowRight" x="0" y="0" onmousedown="handlePan(1,0)"/>
  <use id="arrowdown" xlink:href="#arrowDown" x="0" y="0" onmousedown="handlePan(0,1)"/>
  <use id="arrowleft" xlink:href="#arrowLeft" x="0" y="0" onmousedown="handlePan(-1,0)"/>
</g>
<svg viewBox="0 0 15 15" width="100%" height="30px" preserveAspectRatio="xMaxYMin meet">
 <g id="arrow_out" transform="scale(0.3 0.3)">
  <a xlink:href="classmqtt_1_1bridge_1_1lib_1_1SSEDistributor_a9f5043f5f0189719413e23c74b3a55c2_icgraph_org.svg" target="_base">
   <rect id="button" ry="5" rx="5" y="6" x="6" height="38" width="38"
        fill="#f2f5e9" fill-opacity="0.5" stroke="#606060" stroke-width="1.0"/>
   <path id="arrow"
     d="M 11.500037,31.436501 C 11.940474,20.09759 22.043105,11.32322 32.158766,21.979434 L 37.068811,17.246167 C 37.068811,17.246167 37.088388,32 37.088388,32 L 22.160133,31.978069 C 22.160133,31.978069 26.997745,27.140456 26.997745,27.140456 C 18.528582,18.264221 13.291696,25.230495 11.500037,31.436501 z"
     style="fill:#404040;"/>
  </a>
 </g>
</svg>

<style type='text/css'>
<![CDATA[
[data-mouse-over-selected='false'] { opacity: 0.7; }
[data-mouse-over-selected='true']  { opacity: 1.0; }
]]>
</style>
<script type="application/ecmascript"><![CDATA[
document.addEventListener('DOMContentLoaded', (event) => {
  highlightEdges();
  highlightAdjacentNodes();
});
]]></script>
</svg>
