<?xml version="1.0" encoding="UTF-8" standalone="no"?>
<!DOCTYPE svg PUBLIC "-//W3C//DTD SVG 1.1//EN"
 "http://www.w3.org/Graphics/SVG/1.1/DTD/svg11.dtd">
<!-- Generated by graphviz version 2.42.4 (0)
 -->
<!-- Title: inja::ExpressionNode::ExpressionNode Pages: 1 -->
<svg width="307pt" height="172pt"
 viewBox="0.00 0.00 307.00 171.50" xmlns="http://www.w3.org/2000/svg" xmlns:xlink="http://www.w3.org/1999/xlink">

<svg id="main" version="1.1" xmlns="http://www.w3.org/2000/svg" xmlns:xlink="http://www.w3.org/1999/xlink" xml:space="preserve" onload="init(evt)">
<style type="text/css"><![CDATA[
.node, .edge {opacity: 0.7;}
.node.selected, .edge.selected {opacity: 1;}
.edge:hover path { stroke: red; }
.edge:hover polygon { stroke: red; fill: red; }
]]></style>
<script type="application/ecmascript" xlink:href="svg.min.js"/>
<svg id="graph" class="graph">
<g id="graph0" class="graph" transform="scale(1 1) rotate(0) translate(4 167.5)">
<title>inja::ExpressionNode::ExpressionNode</title>
<!-- Node1 -->
<g id="Node000001" class="node">
<title>Node1</title>
<g id="a_Node000001"><a xlink:title=" ">
<polygon fill="#999999" stroke="#666666" points="299,-102 180,-102 180,-72 299,-72 299,-102"/>
<text text-anchor="start" x="188" y="-90" font-family="Helvetica,sans-Serif" font-size="10.00">inja::ExpressionNode</text>
<text text-anchor="middle" x="239.5" y="-79" font-family="Helvetica,sans-Serif" font-size="10.00">::ExpressionNode</text>
</a>
</g>
</g>
<!-- Node2 -->
<g id="Node000002" class="node">
<title>Node2</title>
<g id="a_Node000002"><a xlink:href="classinja_1_1DataNode.html#aa397d4b64e7e766f06dee78b2f0944e5" target="_top" xlink:title=" ">
<polygon fill="white" stroke="#666666" points="144,-163.5 0,-163.5 0,-144.5 144,-144.5 144,-163.5"/>
<text text-anchor="middle" x="72" y="-151.5" font-family="Helvetica,sans-Serif" font-size="10.00">inja::DataNode::DataNode</text>
</a>
</g>
</g>
<!-- Node1&#45;&gt;Node2 -->
<g id="edge1_Node000001_Node000002" class="edge">
<title>Node1&#45;&gt;Node2</title>
<g id="a_edge1_Node000001_Node000002"><a xlink:title=" ">
<path fill="none" stroke="#63b8ff" d="M203.08,-107.21C185.68,-116.56 164.15,-127.28 144,-135 134.59,-138.61 124.22,-141.79 114.39,-144.48"/>
<polygon fill="#63b8ff" stroke="#63b8ff" points="205.19,-110.04 212.29,-102.18 201.84,-103.9 205.19,-110.04"/>
</a>
</g>
</g>
<!-- Node3 -->
<g id="Node000003" class="node">
<title>Node3</title>
<g id="a_Node000003"><a xlink:href="classinja_1_1FunctionNode.html#a87c89f3d6e76d71b52bcb6199e0833de" target="_top" xlink:title=" ">
<polygon fill="white" stroke="#666666" points="125.5,-126 18.5,-126 18.5,-96 125.5,-96 125.5,-126"/>
<text text-anchor="start" x="26.5" y="-114" font-family="Helvetica,sans-Serif" font-size="10.00">inja::FunctionNode</text>
<text text-anchor="middle" x="72" y="-103" font-family="Helvetica,sans-Serif" font-size="10.00">::FunctionNode</text>
</a>
</g>
</g>
<!-- Node1&#45;&gt;Node3 -->
<g id="edge2_Node000001_Node000003" class="edge">
<title>Node1&#45;&gt;Node3</title>
<g id="a_edge2_Node000001_Node000003"><a xlink:title=" ">
<path fill="none" stroke="#63b8ff" d="M169.61,-96.99C154.89,-99.13 139.56,-101.35 125.57,-103.38"/>
<polygon fill="#63b8ff" stroke="#63b8ff" points="170.29,-100.43 179.68,-95.53 169.29,-93.5 170.29,-100.43"/>
</a>
</g>
</g>
<!-- Node4 -->
<g id="Node000004" class="node">
<title>Node4</title>
<g id="a_Node000004"><a xlink:href="classinja_1_1FunctionNode.html#ab5f2f151cdcdba53eb560526e733f417" target="_top" xlink:title=" ">
<polygon fill="white" stroke="#666666" points="125.5,-78 18.5,-78 18.5,-48 125.5,-48 125.5,-78"/>
<text text-anchor="start" x="26.5" y="-66" font-family="Helvetica,sans-Serif" font-size="10.00">inja::FunctionNode</text>
<text text-anchor="middle" x="72" y="-55" font-family="Helvetica,sans-Serif" font-size="10.00">::FunctionNode</text>
</a>
</g>
</g>
<!-- Node1&#45;&gt;Node4 -->
<g id="edge3_Node000001_Node000004" class="edge">
<title>Node1&#45;&gt;Node4</title>
<g id="a_edge3_Node000001_Node000004"><a xlink:title=" ">
<path fill="none" stroke="#63b8ff" d="M169.61,-77.01C154.89,-74.87 139.56,-72.65 125.57,-70.62"/>
<polygon fill="#63b8ff" stroke="#63b8ff" points="169.29,-80.5 179.68,-78.47 170.29,-73.57 169.29,-80.5"/>
</a>
</g>
</g>
<!-- Node5 -->
<g id="Node000005" class="node">
<title>Node5</title>
<g id="a_Node000005"><a xlink:href="classinja_1_1LiteralNode.html#a370a68da9d0e67a88f41a528197eeac0" target="_top" xlink:title=" ">
<polygon fill="white" stroke="#666666" points="123.5,-30 20.5,-30 20.5,0 123.5,0 123.5,-30"/>
<text text-anchor="start" x="28.5" y="-18" font-family="Helvetica,sans-Serif" font-size="10.00">inja::LiteralNode::</text>
<text text-anchor="middle" x="72" y="-7" font-family="Helvetica,sans-Serif" font-size="10.00">LiteralNode</text>
</a>
</g>
</g>
<!-- Node1&#45;&gt;Node5 -->
<g id="edge4_Node000001_Node000005" class="edge">
<title>Node1&#45;&gt;Node5</title>
<g id="a_edge4_Node000001_Node000005"><a xlink:title=" ">
<path fill="none" stroke="#63b8ff" d="M202.1,-66.96C184.78,-57.83 163.61,-47.24 144,-39 136.56,-35.87 128.56,-32.85 120.71,-30.07"/>
<polygon fill="#63b8ff" stroke="#63b8ff" points="200.82,-70.25 211.29,-71.86 204.11,-64.07 200.82,-70.25"/>
</a>
</g>
</g>
</g>
</svg>
</svg>

<style type='text/css'>
<![CDATA[
[data-mouse-over-selected='false'] { opacity: 0.7; }
[data-mouse-over-selected='true']  { opacity: 1.0; }
]]>
</style>
<script type="application/ecmascript"><![CDATA[
document.addEventListener('DOMContentLoaded', (event) => {
  highlightEdges();
  highlightAdjacentNodes();
});
]]></script>
</svg>
