<?xml version="1.0" encoding="UTF-8" standalone="no"?>
<!DOCTYPE svg PUBLIC "-//W3C//DTD SVG 1.1//EN"
 "http://www.w3.org/Graphics/SVG/1.1/DTD/svg11.dtd">
<!-- Generated by graphviz version 2.42.4 (0)
 -->
<!-- Title: mqtt::bridge::lib::Broker::getLoopPrevention Pages: 1 -->
<svg width="488pt" height="86pt"
 viewBox="0.00 0.00 488.00 86.00" xmlns="http://www.w3.org/2000/svg" xmlns:xlink="http://www.w3.org/1999/xlink">
<g id="graph0" class="graph" transform="scale(1 1) rotate(0) translate(4 82)">
<title>mqtt::bridge::lib::Broker::getLoopPrevention</title>
<!-- Node1 -->
<g id="Node000001" class="node">
<title>Node1</title>
<g id="a_Node000001"><a xlink:title=" ">
<polygon fill="#999999" stroke="#666666" points="480,-54 334,-54 334,-24 480,-24 480,-54"/>
<text text-anchor="start" x="342" y="-42" font-family="Helvetica,sans-Serif" font-size="10.00">mqtt::bridge::lib::</text>
<text text-anchor="middle" x="407" y="-31" font-family="Helvetica,sans-Serif" font-size="10.00">Broker::getLoopPrevention</text>
</a>
</g>
</g>
<!-- Node2 -->
<g id="Node000002" class="node">
<title>Node2</title>
<g id="a_Node000002"><a xlink:href="classmqtt_1_1bridge_1_1lib_1_1Mqtt.html#a6e485f1bb766fbeffdd53a23fc3ced4f" target="_top" xlink:title=" ">
<polygon fill="white" stroke="#666666" points="294,-78 193,-78 193,-48 294,-48 294,-78"/>
<text text-anchor="start" x="201" y="-66" font-family="Helvetica,sans-Serif" font-size="10.00">mqtt::bridge::lib::</text>
<text text-anchor="middle" x="243.5" y="-55" font-family="Helvetica,sans-Serif" font-size="10.00">Mqtt::Mqtt</text>
</a>
</g>
</g>
<!-- Node1&#45;&gt;Node2 -->
<g id="edge1_Node000001_Node000002" class="edge">
<title>Node1&#45;&gt;Node2</title>
<g id="a_edge1_Node000001_Node000002"><a xlink:title=" ">
<path fill="none" stroke="#63b8ff" d="M323.77,-51.22C313.76,-52.71 303.8,-54.19 294.47,-55.57"/>
<polygon fill="#63b8ff" stroke="#63b8ff" points="324.38,-54.67 333.75,-49.74 323.35,-47.74 324.38,-54.67"/>
</a>
</g>
</g>
<!-- Node4 -->
<g id="Node000004" class="node">
<title>Node4</title>
<g id="a_Node000004"><a xlink:href="classmqtt_1_1bridge_1_1lib_1_1Mqtt.html#a5847611e17b94be67e5cf9743fb03a58" target="_top" xlink:title=" ">
<polygon fill="white" stroke="#666666" points="298,-30 189,-30 189,0 298,0 298,-30"/>
<text text-anchor="start" x="197" y="-18" font-family="Helvetica,sans-Serif" font-size="10.00">mqtt::bridge::lib::</text>
<text text-anchor="middle" x="243.5" y="-7" font-family="Helvetica,sans-Serif" font-size="10.00">Mqtt::onConnected</text>
</a>
</g>
</g>
<!-- Node1&#45;&gt;Node4 -->
<g id="edge3_Node000001_Node000004" class="edge">
<title>Node1&#45;&gt;Node4</title>
<g id="a_edge3_Node000001_Node000004"><a xlink:title=" ">
<path fill="none" stroke="#63b8ff" d="M323.65,-26.76C315.04,-25.48 306.45,-24.21 298.28,-22.99"/>
<polygon fill="#63b8ff" stroke="#63b8ff" points="323.35,-30.26 333.75,-28.26 324.38,-23.33 323.35,-30.26"/>
</a>
</g>
</g>
<!-- Node3 -->
<g id="Node000003" class="node">
<title>Node3</title>
<g id="a_Node000003"><a xlink:href="classmqtt_1_1bridge_1_1SocketContextFactory.html#a1f9ab899e4c3205913ba2841ae69dc33" target="_top" xlink:title=" ">
<polygon fill="white" stroke="#666666" points="153,-78 0,-78 0,-48 153,-48 153,-78"/>
<text text-anchor="start" x="8" y="-66" font-family="Helvetica,sans-Serif" font-size="10.00">mqtt::bridge::SocketContext</text>
<text text-anchor="middle" x="76.5" y="-55" font-family="Helvetica,sans-Serif" font-size="10.00">Factory::create</text>
</a>
</g>
</g>
<!-- Node2&#45;&gt;Node3 -->
<g id="edge2_Node000002_Node000003" class="edge">
<title>Node2&#45;&gt;Node3</title>
<g id="a_edge2_Node000002_Node000003"><a xlink:title=" ">
<path fill="none" stroke="#63b8ff" d="M182.78,-63C173.18,-63 163.13,-63 153.22,-63"/>
<polygon fill="#63b8ff" stroke="#63b8ff" points="182.99,-66.5 192.99,-63 182.99,-59.5 182.99,-66.5"/>
</a>
</g>
</g>
</g>
</svg>
