<?xml version="1.0" encoding="UTF-8" standalone="no"?>
<!DOCTYPE svg PUBLIC "-//W3C//DTD SVG 1.1//EN"
 "http://www.w3.org/Graphics/SVG/1.1/DTD/svg11.dtd">
<!-- Generated by graphviz version 14.1.2 (0)
 -->
<!-- Title: json_schema_validator::insert_schema Pages: 1 -->
<svg width="427pt" height="198pt"
 viewBox="0.00 0.00 427.00 198.00" xmlns="http://www.w3.org/2000/svg" xmlns:xlink="http://www.w3.org/1999/xlink">

<svg id="main" version="1.1" xmlns="http://www.w3.org/2000/svg" xmlns:xlink="http://www.w3.org/1999/xlink" xml:space="preserve">

<style type="text/css"><![CDATA[
.node, .edge {opacity: 0.7;}
.node.selected, .edge.selected {opacity: 1;}
.edge:hover path { stroke: red; }
.edge:hover polygon { stroke: red; fill: red; }
]]></style>
<script type="application/ecmascript" xlink:href="svg.min.js"/>
<svg id="graph" class="graph">
<g id="graph0" class="graph" transform="scale(1 1) rotate(0) translate(4 193.5)">
<title>json_schema_validator::insert_schema</title>
<!-- Node1 -->
<g id="Node000001" class="node">
<title>Node1</title>
<g id="a_Node000001"><a xlink:title=" ">
<polygon fill="#999999" stroke="#666666" points="128.5,-111.5 0,-111.5 0,-78 128.5,-78 128.5,-111.5"/>
<text xml:space="preserve" text-anchor="start" x="8" y="-98" font-family="Helvetica,sans-Serif" font-size="10.00">json_schema_validator</text>
<text xml:space="preserve" text-anchor="middle" x="64.25" y="-85.25" font-family="Helvetica,sans-Serif" font-size="10.00">::insert_schema</text>
</a>
</g>
</g>
<!-- Node1&#45;&gt;Node1 -->
<g id="edge5_Node000001_Node000001" class="edge">
<title>Node1&#45;&gt;Node1</title>
<g id="a_edge5_Node000001_Node000001"><a xlink:title=" ">
<path fill="none" stroke="#63b8ff" d="M36.43,-111.91C31.7,-121.12 40.98,-129.5 64.25,-129.5 76.98,-129.5 85.52,-126.99 89.87,-123.22"/>
<polygon fill="#63b8ff" stroke="#63b8ff" points="93.31,-123.88 91.78,-113.4 86.44,-122.55 93.31,-123.88"/>
</a>
</g>
</g>
<!-- Node2 -->
<g id="Node000002" class="node">
<title>Node2</title>
<g id="a_Node000002"><a xlink:href="classnlohmann_1_1json__uri.html#acef9db8f1ac5317e1f124453d9587938" target="_top" xlink:title=" ">
<polygon fill="white" stroke="#666666" points="273.5,-189.5 164.5,-189.5 164.5,-156 273.5,-156 273.5,-189.5"/>
<text xml:space="preserve" text-anchor="start" x="172.5" y="-176" font-family="Helvetica,sans-Serif" font-size="10.00">nlohmann::json_uri</text>
<text xml:space="preserve" text-anchor="middle" x="219" y="-163.25" font-family="Helvetica,sans-Serif" font-size="10.00">::append</text>
</a>
</g>
</g>
<!-- Node1&#45;&gt;Node2 -->
<g id="edge1_Node000001_Node000002" class="edge">
<title>Node1&#45;&gt;Node2</title>
<g id="a_edge1_Node000001_Node000002"><a xlink:title=" ">
<path fill="none" stroke="#63b8ff" d="M97.31,-111.86C116.68,-122.12 141.92,-135.35 164.5,-146.75 167,-148.01 169.57,-149.3 172.17,-150.59"/>
<polygon fill="#63b8ff" stroke="#63b8ff" points="170.37,-153.6 180.88,-154.89 173.46,-147.33 170.37,-153.6"/>
</a>
</g>
</g>
<!-- Node3 -->
<g id="Node000003" class="node">
<title>Node3</title>
<g id="a_Node000003"><a xlink:href="classnlohmann_1_1json__uri.html#ab601a9e32d487e9484f12c57ec1befc1" target="_top" xlink:title=" ">
<polygon fill="white" stroke="#666666" points="273.5,-137.5 164.5,-137.5 164.5,-104 273.5,-104 273.5,-137.5"/>
<text xml:space="preserve" text-anchor="start" x="172.5" y="-124" font-family="Helvetica,sans-Serif" font-size="10.00">nlohmann::json_uri</text>
<text xml:space="preserve" text-anchor="middle" x="219" y="-111.25" font-family="Helvetica,sans-Serif" font-size="10.00">::derive</text>
</a>
</g>
</g>
<!-- Node1&#45;&gt;Node3 -->
<g id="edge2_Node000001_Node000003" class="edge">
<title>Node1&#45;&gt;Node3</title>
<g id="a_edge2_Node000001_Node000003"><a xlink:title=" ">
<path fill="none" stroke="#63b8ff" d="M128.7,-105.55C136.73,-106.92 144.94,-108.31 152.99,-109.68"/>
<polygon fill="#63b8ff" stroke="#63b8ff" points="152.28,-113.11 162.72,-111.34 153.45,-106.21 152.28,-113.11"/>
</a>
</g>
</g>
<!-- Node5 -->
<g id="Node000005" class="node">
<title>Node5</title>
<g id="a_Node000005"><a xlink:href="classnlohmann_1_1json__uri.html#a757ed9f8e57e57b09f7e15761bf1abc9" target="_top" xlink:title=" ">
<polygon fill="white" stroke="#666666" points="273.5,-85.5 164.5,-85.5 164.5,-52 273.5,-52 273.5,-85.5"/>
<text xml:space="preserve" text-anchor="start" x="172.5" y="-72" font-family="Helvetica,sans-Serif" font-size="10.00">nlohmann::json_uri</text>
<text xml:space="preserve" text-anchor="middle" x="219" y="-59.25" font-family="Helvetica,sans-Serif" font-size="10.00">::escape</text>
</a>
</g>
</g>
<!-- Node1&#45;&gt;Node5 -->
<g id="edge4_Node000001_Node000005" class="edge">
<title>Node1&#45;&gt;Node5</title>
<g id="a_edge4_Node000001_Node000005"><a xlink:title=" ">
<path fill="none" stroke="#63b8ff" d="M128.7,-83.95C136.73,-82.58 144.94,-81.19 152.99,-79.82"/>
<polygon fill="#63b8ff" stroke="#63b8ff" points="153.45,-83.29 162.72,-78.16 152.28,-76.39 153.45,-83.29"/>
</a>
</g>
</g>
<!-- Node6 -->
<g id="Node000006" class="node">
<title>Node6</title>
<g id="a_Node000006"><a xlink:href="classnlohmann_1_1json__uri.html#a416eb06b53676b215761f43200da309f" target="_top" xlink:title=" ">
<polygon fill="white" stroke="#666666" points="273.5,-33.5 164.5,-33.5 164.5,0 273.5,0 273.5,-33.5"/>
<text xml:space="preserve" text-anchor="start" x="172.5" y="-20" font-family="Helvetica,sans-Serif" font-size="10.00">nlohmann::json_uri</text>
<text xml:space="preserve" text-anchor="middle" x="219" y="-7.25" font-family="Helvetica,sans-Serif" font-size="10.00">::to_string</text>
</a>
</g>
</g>
<!-- Node1&#45;&gt;Node6 -->
<g id="edge6_Node000001_Node000006" class="edge">
<title>Node1&#45;&gt;Node6</title>
<g id="a_edge6_Node000001_Node000006"><a xlink:title=" ">
<path fill="none" stroke="#63b8ff" d="M97.31,-77.64C116.68,-67.38 141.92,-54.15 164.5,-42.75 167,-41.49 169.57,-40.2 172.17,-38.91"/>
<polygon fill="#63b8ff" stroke="#63b8ff" points="173.46,-42.17 180.88,-34.61 170.37,-35.9 173.46,-42.17"/>
</a>
</g>
</g>
<!-- Node4 -->
<g id="Node000004" class="node">
<title>Node4</title>
<g id="a_Node000004"><a xlink:href="classnlohmann_1_1json__uri.html#a6a73807e46532b22e02ae6602cdedcdc" target="_top" xlink:title=" ">
<polygon fill="white" stroke="#666666" points="418.5,-137.5 309.5,-137.5 309.5,-104 418.5,-104 418.5,-137.5"/>
<text xml:space="preserve" text-anchor="start" x="317.5" y="-124" font-family="Helvetica,sans-Serif" font-size="10.00">nlohmann::json_uri</text>
<text xml:space="preserve" text-anchor="middle" x="364" y="-111.25" font-family="Helvetica,sans-Serif" font-size="10.00">::update</text>
</a>
</g>
</g>
<!-- Node3&#45;&gt;Node4 -->
<g id="edge3_Node000003_Node000004" class="edge">
<title>Node3&#45;&gt;Node4</title>
<g id="a_edge3_Node000003_Node000004"><a xlink:title=" ">
<path fill="none" stroke="#63b8ff" d="M273.65,-120.75C281.52,-120.75 289.69,-120.75 297.76,-120.75"/>
<polygon fill="#63b8ff" stroke="#63b8ff" points="297.53,-124.25 307.53,-120.75 297.53,-117.25 297.53,-124.25"/>
</a>
</g>
</g>
<!-- Node7 -->
<g id="Node000007" class="node">
<title>Node7</title>
<g id="a_Node000007"><a xlink:href="classnlohmann_1_1json__uri.html#a63674f908919cb2496e772e864be35de" target="_top" xlink:title=" ">
<polygon fill="white" stroke="#666666" points="418.5,-33.5 309.5,-33.5 309.5,0 418.5,0 418.5,-33.5"/>
<text xml:space="preserve" text-anchor="start" x="317.5" y="-20" font-family="Helvetica,sans-Serif" font-size="10.00">nlohmann::json_uri</text>
<text xml:space="preserve" text-anchor="middle" x="364" y="-7.25" font-family="Helvetica,sans-Serif" font-size="10.00">::location</text>
</a>
</g>
</g>
<!-- Node6&#45;&gt;Node7 -->
<g id="edge7_Node000006_Node000007" class="edge">
<title>Node6&#45;&gt;Node7</title>
<g id="a_edge7_Node000006_Node000007"><a xlink:title=" ">
<path fill="none" stroke="#63b8ff" d="M273.65,-16.75C281.52,-16.75 289.69,-16.75 297.76,-16.75"/>
<polygon fill="#63b8ff" stroke="#63b8ff" points="297.53,-20.25 307.53,-16.75 297.53,-13.25 297.53,-20.25"/>
</a>
</g>
</g>
</g>
</svg>
</svg>

<style type='text/css'>
<![CDATA[
[data-mouse-over-selected='false'] { opacity: 0.7; }
[data-mouse-over-selected='true']  { opacity: 1.0; }
]]>
</style>
<script type="application/ecmascript"><![CDATA[
document.addEventListener('DOMContentLoaded', (event) => {
  highlightEdges();
  highlightAdjacentNodes();
});
]]></script>
</svg>
