<?xml version="1.0" encoding="UTF-8" standalone="no"?>
<!DOCTYPE svg PUBLIC "-//W3C//DTD SVG 1.1//EN"
 "http://www.w3.org/Graphics/SVG/1.1/DTD/svg11.dtd">
<!-- Generated by graphviz version 2.42.4 (0)
 -->
<!-- Title: nlohmann::json_schema::json_validator::validate Pages: 1 -->
<svg width="821pt" height="329pt"
 viewBox="0.00 0.00 821.00 328.50" xmlns="http://www.w3.org/2000/svg" xmlns:xlink="http://www.w3.org/1999/xlink">
<g id="graph0" class="graph" transform="scale(1 1) rotate(0) translate(4 324.5)">
<title>nlohmann::json_schema::json_validator::validate</title>
<!-- Node1 -->
<g id="Node000001" class="node">
<title>Node1</title>
<g id="a_Node000001"><a xlink:title=" ">
<polygon fill="#999999" stroke="#666666" points="813,-252 676,-252 676,-222 813,-222 813,-252"/>
<text text-anchor="start" x="684" y="-240" font-family="Helvetica,sans-Serif" font-size="10.00">nlohmann::json_schema</text>
<text text-anchor="middle" x="744.5" y="-229" font-family="Helvetica,sans-Serif" font-size="10.00">::json_validator::validate</text>
</a>
</g>
</g>
<!-- Node2 -->
<g id="Node000002" class="node">
<title>Node2</title>
<g id="a_Node000002"><a xlink:href="readme_8cpp.html#ae66f6b31b5ad750f1fe042a706a4e3d4" target="_top" xlink:title=" ">
<polygon fill="white" stroke="#666666" points="592,-320.5 551,-320.5 551,-301.5 592,-301.5 592,-320.5"/>
<text text-anchor="middle" x="571.5" y="-308.5" font-family="Helvetica,sans-Serif" font-size="10.00">main</text>
</a>
</g>
</g>
<!-- Node1&#45;&gt;Node2 -->
<g id="edge1_Node000001_Node000002" class="edge">
<title>Node1&#45;&gt;Node2</title>
<g id="a_edge1_Node000001_Node000002"><a xlink:title=" ">
<path fill="none" stroke="#63b8ff" d="M710.94,-257.19C691.02,-268.89 664.7,-283.19 640,-293 624.33,-299.23 605.78,-304 592.09,-307.06"/>
<polygon fill="#63b8ff" stroke="#63b8ff" points="712.81,-260.15 719.61,-252.03 709.23,-254.14 712.81,-260.15"/>
</a>
</g>
</g>
<!-- Node3 -->
<g id="Node000003" class="node">
<title>Node3</title>
<g id="a_Node000003"><a xlink:href="json-schema-validate_8cpp.html#a0ddf1224851353fc92bfbff6f499fa97" target="_top" xlink:title=" ">
<polygon fill="white" stroke="#666666" points="592,-283.5 551,-283.5 551,-264.5 592,-264.5 592,-283.5"/>
<text text-anchor="middle" x="571.5" y="-271.5" font-family="Helvetica,sans-Serif" font-size="10.00">main</text>
</a>
</g>
</g>
<!-- Node1&#45;&gt;Node3 -->
<g id="edge2_Node000001_Node000003" class="edge">
<title>Node1&#45;&gt;Node3</title>
<g id="a_edge2_Node000001_Node000003"><a xlink:title=" ">
<path fill="none" stroke="#63b8ff" d="M665.96,-253.78C638.76,-259.66 610.46,-265.79 592.24,-269.73"/>
<polygon fill="#63b8ff" stroke="#63b8ff" points="666.88,-257.16 675.92,-251.62 665.4,-250.32 666.88,-257.16"/>
</a>
</g>
</g>
<!-- Node4 -->
<g id="Node000004" class="node">
<title>Node4</title>
<g id="a_Node000004"><a xlink:href="errors_8cpp.html#a840291bc02cba5474a4cb46a9b9566fe" target="_top" xlink:title=" ">
<polygon fill="white" stroke="#666666" points="592,-246.5 551,-246.5 551,-227.5 592,-227.5 592,-246.5"/>
<text text-anchor="middle" x="571.5" y="-234.5" font-family="Helvetica,sans-Serif" font-size="10.00">main</text>
</a>
</g>
</g>
<!-- Node1&#45;&gt;Node4 -->
<g id="edge3_Node000001_Node000004" class="edge">
<title>Node1&#45;&gt;Node4</title>
<g id="a_edge3_Node000001_Node000004"><a xlink:title=" ">
<path fill="none" stroke="#63b8ff" d="M665.6,-237C638.51,-237 610.38,-237 592.24,-237"/>
<polygon fill="#63b8ff" stroke="#63b8ff" points="665.92,-240.5 675.92,-237 665.92,-233.5 665.92,-240.5"/>
</a>
</g>
</g>
<!-- Node5 -->
<g id="Node000005" class="node">
<title>Node5</title>
<g id="a_Node000005"><a xlink:href="namespaceanonymous__namespace_02issue-105-verbose-combination-errors_8cpp_03.html#a5d2fa2fa048e5520dbcbad50438526ad" target="_top" xlink:title=" ">
<polygon fill="white" stroke="#666666" points="467,-236.5 290,-236.5 290,-195.5 467,-195.5 467,-236.5"/>
<text text-anchor="start" x="298" y="-224.5" font-family="Helvetica,sans-Serif" font-size="10.00">anonymous_namespace</text>
<text text-anchor="start" x="298" y="-213.5" font-family="Helvetica,sans-Serif" font-size="10.00">{issue&#45;105&#45;verbose&#45;combination</text>
<text text-anchor="middle" x="378.5" y="-202.5" font-family="Helvetica,sans-Serif" font-size="10.00">&#45;errors::cpp}::validate</text>
</a>
</g>
</g>
<!-- Node1&#45;&gt;Node5 -->
<g id="edge4_Node000001_Node000005" class="edge">
<title>Node1&#45;&gt;Node5</title>
<g id="a_edge4_Node000001_Node000005"><a xlink:title=" ">
<path fill="none" stroke="#63b8ff" d="M665.69,-222.09C657.05,-220.84 648.35,-219.77 640,-219 582.58,-213.71 517.73,-212.95 467.11,-213.51"/>
<polygon fill="#63b8ff" stroke="#63b8ff" points="665.37,-225.58 675.79,-223.62 666.42,-218.66 665.37,-225.58"/>
</a>
</g>
</g>
<!-- Node9 -->
<g id="Node000009" class="node">
<title>Node9</title>
<g id="a_Node000009"><a xlink:href="classnlohmann_1_1json__schema_1_1json__validator.html#affff379ae30b7ab48c81d5b65e34f613" target="_top" xlink:title=" ">
<polygon fill="white" stroke="#666666" points="640,-155 503,-155 503,-125 640,-125 640,-155"/>
<text text-anchor="start" x="511" y="-143" font-family="Helvetica,sans-Serif" font-size="10.00">nlohmann::json_schema</text>
<text text-anchor="middle" x="571.5" y="-132" font-family="Helvetica,sans-Serif" font-size="10.00">::json_validator::validate</text>
</a>
</g>
</g>
<!-- Node1&#45;&gt;Node9 -->
<g id="edge9_Node000001_Node000009" class="edge">
<title>Node1&#45;&gt;Node9</title>
<g id="a_edge9_Node000001_Node000009"><a xlink:title=" ">
<path fill="none" stroke="#63b8ff" d="M708.05,-216.89C675.61,-198.49 628.32,-171.66 599.03,-155.05"/>
<polygon fill="#63b8ff" stroke="#63b8ff" points="706.36,-219.95 716.78,-221.84 709.81,-213.87 706.36,-219.95"/>
</a>
</g>
</g>
<!-- Node6 -->
<g id="Node000006" class="node">
<title>Node6</title>
<g id="a_Node000006"><a xlink:href="namespaceanonymous__namespace_02issue-105-verbose-combination-errors_8cpp_03.html#a4b7578a08dda4165bf9c386de4bc2bed" target="_top" xlink:title=" ">
<polygon fill="white" stroke="#666666" points="254,-265.5 77,-265.5 77,-224.5 254,-224.5 254,-265.5"/>
<text text-anchor="start" x="85" y="-253.5" font-family="Helvetica,sans-Serif" font-size="10.00">anonymous_namespace</text>
<text text-anchor="start" x="85" y="-242.5" font-family="Helvetica,sans-Serif" font-size="10.00">{issue&#45;105&#45;verbose&#45;combination</text>
<text text-anchor="middle" x="165.5" y="-231.5" font-family="Helvetica,sans-Serif" font-size="10.00">&#45;errors::cpp}::simpleTest</text>
</a>
</g>
</g>
<!-- Node5&#45;&gt;Node6 -->
<g id="edge5_Node000005_Node000006" class="edge">
<title>Node5&#45;&gt;Node6</title>
<g id="a_edge5_Node000005_Node000006"><a xlink:title=" ">
<path fill="none" stroke="#63b8ff" d="M279.86,-229.42C271.3,-230.6 262.68,-231.78 254.22,-232.94"/>
<polygon fill="#63b8ff" stroke="#63b8ff" points="280.42,-232.88 289.85,-228.05 279.47,-225.94 280.42,-232.88"/>
</a>
</g>
</g>
<!-- Node8 -->
<g id="Node000008" class="node">
<title>Node8</title>
<g id="a_Node000008"><a xlink:href="namespaceanonymous__namespace_02issue-105-verbose-combination-errors_8cpp_03.html#a6c5072c56623259eab0124fc223a4bfc" target="_top" xlink:title=" ">
<polygon fill="white" stroke="#666666" points="254,-206.5 77,-206.5 77,-165.5 254,-165.5 254,-206.5"/>
<text text-anchor="start" x="85" y="-194.5" font-family="Helvetica,sans-Serif" font-size="10.00">anonymous_namespace</text>
<text text-anchor="start" x="85" y="-183.5" font-family="Helvetica,sans-Serif" font-size="10.00">{issue&#45;105&#45;verbose&#45;combination</text>
<text text-anchor="middle" x="165.5" y="-172.5" font-family="Helvetica,sans-Serif" font-size="10.00">&#45;errors::cpp}::verboseTest</text>
</a>
</g>
</g>
<!-- Node5&#45;&gt;Node8 -->
<g id="edge7_Node000005_Node000008" class="edge">
<title>Node5&#45;&gt;Node8</title>
<g id="a_edge7_Node000005_Node000008"><a xlink:title=" ">
<path fill="none" stroke="#63b8ff" d="M279.86,-202.12C271.3,-200.9 262.68,-199.68 254.22,-198.47"/>
<polygon fill="#63b8ff" stroke="#63b8ff" points="279.46,-205.6 289.85,-203.54 280.44,-198.67 279.46,-205.6"/>
</a>
</g>
</g>
<!-- Node7 -->
<g id="Node000007" class="node">
<title>Node7</title>
<g id="a_Node000007"><a xlink:href="issue-105-verbose-combination-errors_8cpp.html#a8216c1645620cdb2f629cde3ac02ffef" target="_top" xlink:title=" ">
<polygon fill="white" stroke="#666666" points="41,-224.5 0,-224.5 0,-205.5 41,-205.5 41,-224.5"/>
<text text-anchor="middle" x="20.5" y="-212.5" font-family="Helvetica,sans-Serif" font-size="10.00">main</text>
</a>
</g>
</g>
<!-- Node6&#45;&gt;Node7 -->
<g id="edge6_Node000006_Node000007" class="edge">
<title>Node6&#45;&gt;Node7</title>
<g id="a_edge6_Node000006_Node000007"><a xlink:title=" ">
<path fill="none" stroke="#63b8ff" d="M66.99,-224.54C57.41,-222.53 48.55,-220.67 41.24,-219.14"/>
<polygon fill="#63b8ff" stroke="#63b8ff" points="66.28,-227.97 76.79,-226.6 67.72,-221.12 66.28,-227.97"/>
</a>
</g>
</g>
<!-- Node8&#45;&gt;Node7 -->
<g id="edge8_Node000008_Node000007" class="edge">
<title>Node8&#45;&gt;Node7</title>
<g id="a_edge8_Node000008_Node000007"><a xlink:title=" ">
<path fill="none" stroke="#63b8ff" d="M66.69,-205.83C57.23,-207.76 48.47,-209.53 41.24,-211"/>
<polygon fill="#63b8ff" stroke="#63b8ff" points="67.68,-209.21 76.79,-203.79 66.29,-202.35 67.68,-209.21"/>
</a>
</g>
</g>
<!-- Node9&#45;&gt;Node5 -->
<g id="edge13_Node000009_Node000005" class="edge">
<title>Node9&#45;&gt;Node5</title>
<g id="a_edge13_Node000009_Node000005"><a xlink:title=" ">
<path fill="none" stroke="#63b8ff" d="M529.44,-159.24C510.58,-167.83 487.82,-177.82 467,-186 458.93,-189.17 450.37,-192.34 441.89,-195.36"/>
<polygon fill="#63b8ff" stroke="#63b8ff" points="531,-162.38 538.64,-155.03 528.09,-156.01 531,-162.38"/>
</a>
</g>
</g>
<!-- Node10 -->
<g id="Node000010" class="node">
<title>Node10</title>
<g id="a_Node000010"><a xlink:href="classmqtt_1_1bridge_1_1lib_1_1BridgeStore.html#ab8ade196caaa4d233f8dc1625619ed9a" target="_top" xlink:title=" ">
<polygon fill="white" stroke="#666666" points="458.5,-177 298.5,-177 298.5,-147 458.5,-147 458.5,-177"/>
<text text-anchor="start" x="306.5" y="-165" font-family="Helvetica,sans-Serif" font-size="10.00">mqtt::bridge::lib::</text>
<text text-anchor="middle" x="378.5" y="-154" font-family="Helvetica,sans-Serif" font-size="10.00">BridgeStore::loadAndValidate</text>
</a>
</g>
</g>
<!-- Node9&#45;&gt;Node10 -->
<g id="edge10_Node000009_Node000010" class="edge">
<title>Node9&#45;&gt;Node10</title>
<g id="a_edge10_Node000009_Node000010"><a xlink:title=" ">
<path fill="none" stroke="#63b8ff" d="M492.72,-148.96C481.53,-150.25 470,-151.58 458.78,-152.87"/>
<polygon fill="#63b8ff" stroke="#63b8ff" points="493.36,-152.41 502.89,-147.79 492.56,-145.45 493.36,-152.41"/>
</a>
</g>
</g>
<!-- Node11 -->
<g id="Node000011" class="node">
<title>Node11</title>
<g id="a_Node000011"><a xlink:href="format_8cpp.html#ae66f6b31b5ad750f1fe042a706a4e3d4" target="_top" xlink:title=" ">
<polygon fill="white" stroke="#666666" points="399,-128.5 358,-128.5 358,-109.5 399,-109.5 399,-128.5"/>
<text text-anchor="middle" x="378.5" y="-116.5" font-family="Helvetica,sans-Serif" font-size="10.00">main</text>
</a>
</g>
</g>
<!-- Node9&#45;&gt;Node11 -->
<g id="edge11_Node000009_Node000011" class="edge">
<title>Node9&#45;&gt;Node11</title>
<g id="a_edge11_Node000009_Node000011"><a xlink:title=" ">
<path fill="none" stroke="#63b8ff" d="M492.87,-131.46C458.66,-127.7 421.28,-123.59 399.14,-121.16"/>
<polygon fill="#63b8ff" stroke="#63b8ff" points="492.57,-134.95 502.89,-132.57 493.33,-127.99 492.57,-134.95"/>
</a>
</g>
</g>
<!-- Node12 -->
<g id="Node000012" class="node">
<title>Node12</title>
<g id="a_Node000012"><a xlink:href="issue-189-default-values_8cpp.html#a840291bc02cba5474a4cb46a9b9566fe" target="_top" xlink:title=" ">
<polygon fill="white" stroke="#666666" points="399,-91.5 358,-91.5 358,-72.5 399,-72.5 399,-91.5"/>
<text text-anchor="middle" x="378.5" y="-79.5" font-family="Helvetica,sans-Serif" font-size="10.00">main</text>
</a>
</g>
</g>
<!-- Node9&#45;&gt;Node12 -->
<g id="edge12_Node000009_Node000012" class="edge">
<title>Node9&#45;&gt;Node12</title>
<g id="a_edge12_Node000009_Node000012"><a xlink:title=" ">
<path fill="none" stroke="#63b8ff" d="M524.94,-121.19C507.07,-114.24 486.27,-106.69 467,-101 444.04,-94.22 417.04,-88.72 399.17,-85.42"/>
<polygon fill="#63b8ff" stroke="#63b8ff" points="523.95,-124.56 534.54,-124.96 526.52,-118.04 523.95,-124.56"/>
</a>
</g>
</g>
<!-- Node13 -->
<g id="Node000013" class="node">
<title>Node13</title>
<g id="a_Node000013"><a xlink:href="classnlohmann_1_1json__patch.html#ac7aea9496e07beb821fb9e5423fb76f5" target="_top" xlink:title=" ">
<polygon fill="white" stroke="#666666" points="440.5,-54 316.5,-54 316.5,-24 440.5,-24 440.5,-54"/>
<text text-anchor="start" x="324.5" y="-42" font-family="Helvetica,sans-Serif" font-size="10.00">nlohmann::json_patch</text>
<text text-anchor="middle" x="378.5" y="-31" font-family="Helvetica,sans-Serif" font-size="10.00">::validateJsonPatch</text>
</a>
</g>
</g>
<!-- Node9&#45;&gt;Node13 -->
<g id="edge14_Node000009_Node000013" class="edge">
<title>Node9&#45;&gt;Node13</title>
<g id="a_edge14_Node000009_Node000013"><a xlink:title=" ">
<path fill="none" stroke="#63b8ff" d="M546.1,-118.17C526.09,-101.27 496.38,-78.4 467,-64 458.77,-59.97 449.78,-56.48 440.8,-53.49"/>
<polygon fill="#63b8ff" stroke="#63b8ff" points="543.92,-120.91 553.79,-124.77 548.48,-115.6 543.92,-120.91"/>
</a>
</g>
</g>
<!-- Node14 -->
<g id="Node000014" class="node">
<title>Node14</title>
<g id="a_Node000014"><a xlink:href="classnlohmann_1_1json__patch.html#ae61d410c3afe7cf9b7a9589819e8f94a" target="_top" xlink:title=" ">
<polygon fill="white" stroke="#666666" points="227.5,-78 103.5,-78 103.5,-48 227.5,-48 227.5,-78"/>
<text text-anchor="start" x="111.5" y="-66" font-family="Helvetica,sans-Serif" font-size="10.00">nlohmann::json_patch</text>
<text text-anchor="middle" x="165.5" y="-55" font-family="Helvetica,sans-Serif" font-size="10.00">::json_patch</text>
</a>
</g>
</g>
<!-- Node13&#45;&gt;Node14 -->
<g id="edge15_Node000013_Node000014" class="edge">
<title>Node13&#45;&gt;Node14</title>
<g id="a_edge15_Node000013_Node000014"><a xlink:title=" ">
<path fill="none" stroke="#63b8ff" d="M306.48,-47.08C280.95,-49.98 252.39,-53.23 227.76,-56.03"/>
<polygon fill="#63b8ff" stroke="#63b8ff" points="306.93,-50.55 316.47,-45.94 306.14,-43.59 306.93,-50.55"/>
</a>
</g>
</g>
<!-- Node15 -->
<g id="Node000015" class="node">
<title>Node15</title>
<g id="a_Node000015"><a xlink:href="classnlohmann_1_1json__patch.html#a9ed4f8e610b70b973f9fd59696d5c10b" target="_top" xlink:title=" ">
<polygon fill="white" stroke="#666666" points="227.5,-30 103.5,-30 103.5,0 227.5,0 227.5,-30"/>
<text text-anchor="start" x="111.5" y="-18" font-family="Helvetica,sans-Serif" font-size="10.00">nlohmann::json_patch</text>
<text text-anchor="middle" x="165.5" y="-7" font-family="Helvetica,sans-Serif" font-size="10.00">::json_patch</text>
</a>
</g>
</g>
<!-- Node13&#45;&gt;Node15 -->
<g id="edge16_Node000013_Node000015" class="edge">
<title>Node13&#45;&gt;Node15</title>
<g id="a_edge16_Node000013_Node000015"><a xlink:title=" ">
<path fill="none" stroke="#63b8ff" d="M306.48,-30.92C280.95,-28.02 252.39,-24.77 227.76,-21.97"/>
<polygon fill="#63b8ff" stroke="#63b8ff" points="306.14,-34.41 316.47,-32.06 306.93,-27.45 306.14,-34.41"/>
</a>
</g>
</g>
<!-- Node16 -->
<g id="Node000016" class="node">
<title>Node16</title>
<g id="a_Node000016"><a xlink:href="test_2json-patch_8cpp.html#a840291bc02cba5474a4cb46a9b9566fe" target="_top" xlink:title=" ">
<polygon fill="white" stroke="#666666" points="41,-24.5 0,-24.5 0,-5.5 41,-5.5 41,-24.5"/>
<text text-anchor="middle" x="20.5" y="-12.5" font-family="Helvetica,sans-Serif" font-size="10.00">main</text>
</a>
</g>
</g>
<!-- Node15&#45;&gt;Node16 -->
<g id="edge17_Node000015_Node000016" class="edge">
<title>Node15&#45;&gt;Node16</title>
<g id="a_edge17_Node000015_Node000016"><a xlink:title=" ">
<path fill="none" stroke="#63b8ff" d="M93.44,-15C74.25,-15 55.02,-15 41.28,-15"/>
<polygon fill="#63b8ff" stroke="#63b8ff" points="93.44,-18.5 103.44,-15 93.44,-11.5 93.44,-18.5"/>
</a>
</g>
</g>
</g>
</svg>
