<?xml version="1.0" encoding="UTF-8" standalone="no"?>
<!DOCTYPE svg PUBLIC "-//W3C//DTD SVG 1.1//EN"
 "http://www.w3.org/Graphics/SVG/1.1/DTD/svg11.dtd">
<!-- Generated by graphviz version 14.1.2 (0)
 -->
<!-- Title: mqtt::lib::MqttMapper::setMapping Pages: 1 -->
<svg width="707pt" height="172pt"
 viewBox="0.00 0.00 707.00 172.00" xmlns="http://www.w3.org/2000/svg" xmlns:xlink="http://www.w3.org/1999/xlink">
<g id="graph0" class="graph" transform="scale(1 1) rotate(0) translate(4 167.5)">
<title>mqtt::lib::MqttMapper::setMapping</title>
<!-- Node1 -->
<g id="Node000001" class="node">
<title>Node1</title>
<g id="a_Node000001"><a xlink:title=" ">
<polygon fill="#999999" stroke="#666666" points="698.5,-111.5 576,-111.5 576,-78 698.5,-78 698.5,-111.5"/>
<text xml:space="preserve" text-anchor="start" x="584" y="-98" font-family="Helvetica,sans-Serif" font-size="10.00">mqtt::lib::MqttMapper</text>
<text xml:space="preserve" text-anchor="middle" x="637.25" y="-85.25" font-family="Helvetica,sans-Serif" font-size="10.00">::setMapping</text>
</a>
</g>
</g>
<!-- Node2 -->
<g id="Node000002" class="node">
<title>Node2</title>
<g id="a_Node000002"><a xlink:href="namespacemqtt_1_1lib_1_1admin.html#a4f7e70f5f0447050e4a1f47eff271811" target="_top" xlink:title=" ">
<polygon fill="white" stroke="#666666" points="540,-163.5 371,-163.5 371,-130 540,-130 540,-163.5"/>
<text xml:space="preserve" text-anchor="start" x="379" y="-150" font-family="Helvetica,sans-Serif" font-size="10.00">mqtt::lib::admin::makeMapping</text>
<text xml:space="preserve" text-anchor="middle" x="455.5" y="-137.25" font-family="Helvetica,sans-Serif" font-size="10.00">AdminRouter</text>
</a>
</g>
</g>
<!-- Node1&#45;&gt;Node2 -->
<g id="edge1_Node000001_Node000002" class="edge">
<title>Node1&#45;&gt;Node2</title>
<g id="a_edge1_Node000001_Node000002"><a xlink:title=" ">
<path fill="none" stroke="#63b8ff" d="M566.18,-115.02C549.63,-119.81 532.14,-124.87 516.1,-129.51"/>
<polygon fill="#63b8ff" stroke="#63b8ff" points="566.81,-118.48 575.44,-112.34 564.86,-111.76 566.81,-118.48"/>
</a>
</g>
</g>
<!-- Node3 -->
<g id="Node000003" class="node">
<title>Node3</title>
<g id="a_Node000003"><a xlink:href="classmqtt_1_1lib_1_1MqttMapper.html#a5f1e17b0d9efec0ec96aca4603ff7bca" target="_top" xlink:title=" ">
<polygon fill="white" stroke="#666666" points="516.75,-111.5 394.25,-111.5 394.25,-78 516.75,-78 516.75,-111.5"/>
<text xml:space="preserve" text-anchor="start" x="402.25" y="-98" font-family="Helvetica,sans-Serif" font-size="10.00">mqtt::lib::MqttMapper</text>
<text xml:space="preserve" text-anchor="middle" x="455.5" y="-85.25" font-family="Helvetica,sans-Serif" font-size="10.00">::MqttMapper</text>
</a>
</g>
</g>
<!-- Node1&#45;&gt;Node3 -->
<g id="edge2_Node000001_Node000003" class="edge">
<title>Node1&#45;&gt;Node3</title>
<g id="a_edge2_Node000001_Node000003"><a xlink:title=" ">
<path fill="none" stroke="#63b8ff" d="M564.41,-94.75C548.74,-94.75 532.32,-94.75 517.15,-94.75"/>
<polygon fill="#63b8ff" stroke="#63b8ff" points="564.13,-98.25 574.13,-94.75 564.13,-91.25 564.13,-98.25"/>
</a>
</g>
</g>
<!-- Node4 -->
<g id="Node000004" class="node">
<title>Node4</title>
<g id="a_Node000004"><a xlink:href="classmqtt_1_1lib_1_1ConfigApplication.html#a47d2012a0d29ba4851e2fd53daeb8ee3" target="_top" xlink:title=" ">
<polygon fill="white" stroke="#666666" points="530.25,-59.5 380.75,-59.5 380.75,-26 530.25,-26 530.25,-59.5"/>
<text xml:space="preserve" text-anchor="start" x="388.75" y="-46" font-family="Helvetica,sans-Serif" font-size="10.00">mqtt::lib::ConfigApplication</text>
<text xml:space="preserve" text-anchor="middle" x="455.5" y="-33.25" font-family="Helvetica,sans-Serif" font-size="10.00">::setMapping</text>
</a>
</g>
</g>
<!-- Node1&#45;&gt;Node4 -->
<g id="edge3_Node000001_Node000004" class="edge">
<title>Node1&#45;&gt;Node4</title>
<g id="a_edge3_Node000001_Node000004"><a xlink:title=" ">
<path fill="none" stroke="#63b8ff" d="M566.18,-74.48C549.63,-69.69 532.14,-64.63 516.1,-59.99"/>
<polygon fill="#63b8ff" stroke="#63b8ff" points="564.86,-77.74 575.44,-77.16 566.81,-71.02 564.86,-77.74"/>
</a>
</g>
</g>
<!-- Node5 -->
<g id="Node000005" class="node">
<title>Node5</title>
<g id="a_Node000005"><a xlink:href="classmqtt_1_1lib_1_1ConfigApplication.html#a3268b5a375d1324ffecb8dc7293ce838" target="_top" xlink:title=" ">
<polygon fill="white" stroke="#666666" points="335,-59.5 185.5,-59.5 185.5,-26 335,-26 335,-59.5"/>
<text xml:space="preserve" text-anchor="start" x="193.5" y="-46" font-family="Helvetica,sans-Serif" font-size="10.00">mqtt::lib::ConfigApplication</text>
<text xml:space="preserve" text-anchor="middle" x="260.25" y="-33.25" font-family="Helvetica,sans-Serif" font-size="10.00">::loadMapping</text>
</a>
</g>
</g>
<!-- Node4&#45;&gt;Node5 -->
<g id="edge4_Node000004_Node000005" class="edge">
<title>Node4&#45;&gt;Node5</title>
<g id="a_edge4_Node000004_Node000005"><a xlink:title=" ">
<path fill="none" stroke="#63b8ff" d="M369.12,-42.75C357.82,-42.75 346.31,-42.75 335.21,-42.75"/>
<polygon fill="#63b8ff" stroke="#63b8ff" points="368.82,-46.25 378.82,-42.75 368.82,-39.25 368.82,-46.25"/>
</a>
</g>
</g>
<!-- Node6 -->
<g id="Node000006" class="node">
<title>Node6</title>
<g id="a_Node000006"><a xlink:href="classmqtt_1_1lib_1_1ConfigApplication.html#a03af16ca63647b5696ac6ff1e803e201" target="_top" xlink:title=" ">
<polygon fill="white" stroke="#666666" points="149.5,-85.5 0,-85.5 0,-52 149.5,-52 149.5,-85.5"/>
<text xml:space="preserve" text-anchor="start" x="8" y="-72" font-family="Helvetica,sans-Serif" font-size="10.00">mqtt::lib::ConfigApplication</text>
<text xml:space="preserve" text-anchor="middle" x="74.75" y="-59.25" font-family="Helvetica,sans-Serif" font-size="10.00">::ConfigApplication</text>
</a>
</g>
</g>
<!-- Node5&#45;&gt;Node6 -->
<g id="edge5_Node000005_Node000006" class="edge">
<title>Node5&#45;&gt;Node6</title>
<g id="a_edge5_Node000005_Node000006"><a xlink:title=" ">
<path fill="none" stroke="#63b8ff" d="M173.86,-54.85C165.84,-55.99 157.75,-57.13 149.84,-58.25"/>
<polygon fill="#63b8ff" stroke="#63b8ff" points="174.23,-58.33 183.64,-53.46 173.25,-51.4 174.23,-58.33"/>
</a>
</g>
</g>
<!-- Node7 -->
<g id="Node000007" class="node">
<title>Node7</title>
<g id="a_Node000007"><a xlink:href="classmqtt_1_1lib_1_1ConfigApplication.html#a8f18adbc047bfb12e7ea05bd87db4855" target="_top" xlink:title=" ">
<polygon fill="white" stroke="#666666" points="149.5,-33.5 0,-33.5 0,0 149.5,0 149.5,-33.5"/>
<text xml:space="preserve" text-anchor="start" x="8" y="-20" font-family="Helvetica,sans-Serif" font-size="10.00">mqtt::lib::ConfigApplication</text>
<text xml:space="preserve" text-anchor="middle" x="74.75" y="-7.25" font-family="Helvetica,sans-Serif" font-size="10.00">::setMappingFile</text>
</a>
</g>
</g>
<!-- Node5&#45;&gt;Node7 -->
<g id="edge6_Node000005_Node000007" class="edge">
<title>Node5&#45;&gt;Node7</title>
<g id="a_edge6_Node000005_Node000007"><a xlink:title=" ">
<path fill="none" stroke="#63b8ff" d="M173.86,-30.65C165.84,-29.51 157.75,-28.37 149.84,-27.25"/>
<polygon fill="#63b8ff" stroke="#63b8ff" points="173.25,-34.1 183.64,-32.04 174.23,-27.17 173.25,-34.1"/>
</a>
</g>
</g>
</g>
</svg>
