<?xml version="1.0" encoding="UTF-8" standalone="no"?>
<!DOCTYPE svg PUBLIC "-//W3C//DTD SVG 1.1//EN"
 "http://www.w3.org/Graphics/SVG/1.1/DTD/svg11.dtd">
<!-- Generated by graphviz version 14.1.2 (0)
 -->
<!-- Title: mqtt::mqttstore::websocket::SubProtocolFactory::create Pages: 1 -->
<!--zoomable 367 -->

<svg id="main" version="1.1" xmlns="http://www.w3.org/2000/svg" xmlns:xlink="http://www.w3.org/1999/xlink" xml:space="preserve" onload="init(evt)">

<style type="text/css"><![CDATA[
.node, .edge {opacity: 0.7;}
.node.selected, .edge.selected {opacity: 1;}
.edge:hover path { stroke: red; }
.edge:hover polygon { stroke: red; fill: red; }
]]></style>

<defs>
  <circle id="rim" cx="0" cy="0" r="7"/>
  <circle id="rim2" cx="0" cy="0" r="3.5"/>
  <g id="zoomPlus">
    <use xlink:href="#rim" fill="#404040"><set attributeName="fill" to="#808080" begin="zoomplus.mouseover" end="zoomplus.mouseout"/></use>
    <path d="M-4,0h8M0,-4v8" fill="none" stroke="white" stroke-width="1.5" pointer-events="none"/>
  </g>
  <g id="zoomMin">
    <use xlink:href="#rim" fill="#404040"><set attributeName="fill" to="#808080" begin="zoomminus.mouseover" end="zoomminus.mouseout"/></use>
    <path d="M-4,0h8" fill="none" stroke="white" stroke-width="1.5" pointer-events="none"/>
  </g>
  <g id="arrowUp" transform="translate(30 24)">
    <use xlink:href="#rim"/>
    <path pointer-events="none" fill="none" stroke="white" stroke-width="1.5" d="M0,-3.0v7 M-2.5,-0.5L0,-3.0L2.5,-0.5"/>
  </g>
  <g id="arrowRight" transform="rotate(90) translate(36 -43)">
    <use xlink:href="#rim"/>
    <path pointer-events="none" fill="none" stroke="white" stroke-width="1.5" d="M0,-3.0v7 M-2.5,-0.5L0,-3.0L2.5,-0.5"/>
  </g>
  <g id="arrowDown" transform="rotate(180) translate(-30 -48)">
    <use xlink:href="#rim"/>
    <path pointer-events="none" fill="none" stroke="white" stroke-width="1.5" d="M0,-3.0v7 M-2.5,-0.5L0,-3.0L2.5,-0.5"/>
  </g>
  <g id="arrowLeft" transform="rotate(270) translate(-36 17)">
    <use xlink:href="#rim"/>
    <path pointer-events="none" fill="none" stroke="white" stroke-width="1.5" d="M0,-3.0v7 M-2.5,-0.5L0,-3.0L2.5,-0.5"/>
  </g>
  <g id="resetDef">
    <use xlink:href="#rim2" fill="#404040"><set attributeName="fill" to="#808080" begin="reset.mouseover" end="reset.mouseout"/></use>
  </g>
</defs>
<script type="application/ecmascript">
var viewWidth = 1488;
var viewHeight = 367;
var sectionId = 'dynsection-3';
</script>
<script type="application/ecmascript" xlink:href="svg.min.js"/>
<svg id="graph" class="graph">
<g id="viewport">
<title>mqtt::mqttstore::websocket::SubProtocolFactory::create</title>
<!-- Node1 -->
<g id="Node000001" class="node">
<title>Node1</title>
<g id="a_Node000001"><a xlink:title=" ">
<polygon fill="#999999" stroke="#666666" points="151.75,-143.5 0,-143.5 0,-110 151.75,-110 151.75,-143.5"/>
<text xml:space="preserve" text-anchor="start" x="8" y="-130" font-family="Helvetica,sans-Serif" font-size="10.00">mqtt::mqttstore::websocket</text>
<text xml:space="preserve" text-anchor="middle" x="75.88" y="-117.25" font-family="Helvetica,sans-Serif" font-size="10.00">::SubProtocolFactory::create</text>
</a>
</g>
</g>
<!-- Node2 -->
<g id="Node000002" class="node">
<title>Node2</title>
<g id="a_Node000002"><a xlink:href="classmqtt_1_1mqttstore_1_1lib_1_1StoragePlan.html#aac1af49efec9324c432cf80950ca71c2" target="_top" xlink:title=" ">
<polygon fill="white" stroke="#666666" points="321.88,-186.5 195.62,-186.5 195.62,-153 321.88,-153 321.88,-186.5"/>
<text xml:space="preserve" text-anchor="start" x="203.62" y="-173" font-family="Helvetica,sans-Serif" font-size="10.00">mqtt::mqttstore::lib</text>
<text xml:space="preserve" text-anchor="middle" x="258.75" y="-160.25" font-family="Helvetica,sans-Serif" font-size="10.00">::StoragePlan::fromFile</text>
</a>
</g>
</g>
<!-- Node1&#45;&gt;Node2 -->
<g id="edge1_Node000001_Node000002" class="edge">
<title>Node1&#45;&gt;Node2</title>
<g id="a_edge1_Node000001_Node000002"><a xlink:title=" ">
<path fill="none" stroke="#63b8ff" d="M149.4,-143.99C160.95,-146.74 172.9,-149.58 184.46,-152.33"/>
<polygon fill="#63b8ff" stroke="#63b8ff" points="183.39,-155.67 193.93,-154.58 185.01,-148.86 183.39,-155.67"/>
</a>
</g>
</g>
<!-- Node14 -->
<g id="Node000014" class="node">
<title>Node14</title>
<g id="a_Node000014"><a xlink:href="namespaceanonymous__namespace_02SubProtocolFactory_8cpp_03.html#a0520bc264748c774d74a1f71a0f3fb39" target="_top" xlink:title=" ">
<polygon fill="white" stroke="#666666" points="329.75,-120.88 187.75,-120.88 187.75,-74.62 329.75,-74.62 329.75,-120.88"/>
<text xml:space="preserve" text-anchor="start" x="195.75" y="-107.38" font-family="Helvetica,sans-Serif" font-size="10.00">anonymous_namespace</text>
<text xml:space="preserve" text-anchor="start" x="195.75" y="-94.62" font-family="Helvetica,sans-Serif" font-size="10.00">{SubProtocolFactory</text>
<text xml:space="preserve" text-anchor="middle" x="258.75" y="-81.88" font-family="Helvetica,sans-Serif" font-size="10.00">::cpp}::getStorageOptions</text>
</a>
</g>
</g>
<!-- Node1&#45;&gt;Node14 -->
<g id="edge16_Node000001_Node000014" class="edge">
<title>Node1&#45;&gt;Node14</title>
<g id="a_edge16_Node000001_Node000014"><a xlink:title=" ">
<path fill="none" stroke="#63b8ff" d="M152.01,-114.7C159.99,-113.42 168.14,-112.12 176.19,-110.83"/>
<polygon fill="#63b8ff" stroke="#63b8ff" points="176.67,-114.29 185.99,-109.26 175.56,-107.38 176.67,-114.29"/>
</a>
</g>
</g>
<!-- Node3 -->
<g id="Node000003" class="node">
<title>Node3</title>
<g id="a_Node000003"><a xlink:href="classmqtt_1_1mqttstore_1_1lib_1_1StoragePlan.html#a7c43d857a7aec16b02864f80f80dda05" target="_top" xlink:title=" ">
<polygon fill="white" stroke="#666666" points="519.75,-201.5 389.75,-201.5 389.75,-168 519.75,-168 519.75,-201.5"/>
<text xml:space="preserve" text-anchor="start" x="397.75" y="-188" font-family="Helvetica,sans-Serif" font-size="10.00">mqtt::mqttstore::lib</text>
<text xml:space="preserve" text-anchor="middle" x="454.75" y="-175.25" font-family="Helvetica,sans-Serif" font-size="10.00">::StoragePlan::fromJson</text>
</a>
</g>
</g>
<!-- Node2&#45;&gt;Node3 -->
<g id="edge2_Node000002_Node000003" class="edge">
<title>Node2&#45;&gt;Node3</title>
<g id="a_edge2_Node000002_Node000003"><a xlink:title=" ">
<path fill="none" stroke="#63b8ff" d="M322.2,-174.58C340,-175.95 359.58,-177.47 378.07,-178.9"/>
<polygon fill="#63b8ff" stroke="#63b8ff" points="377.67,-182.38 387.91,-179.66 378.21,-175.4 377.67,-182.38"/>
</a>
</g>
</g>
<!-- Node4 -->
<g id="Node000004" class="node">
<title>Node4</title>
<g id="a_Node000004"><a xlink:href="namespacemqtt_1_1mqttstore_1_1lib_1_1anonymous__namespace_02StoragePlan_8cpp_03.html#a98bde28ee9174aba6a9f109fd2918b87" target="_top" xlink:title=" ">
<polygon fill="white" stroke="#666666" points="735.25,-214.25 579.75,-214.25 579.75,-155.25 735.25,-155.25 735.25,-214.25"/>
<text xml:space="preserve" text-anchor="start" x="587.75" y="-200.75" font-family="Helvetica,sans-Serif" font-size="10.00">mqtt::mqttstore::lib</text>
<text xml:space="preserve" text-anchor="start" x="587.75" y="-188" font-family="Helvetica,sans-Serif" font-size="10.00">::anonymous_namespace</text>
<text xml:space="preserve" text-anchor="start" x="587.75" y="-175.25" font-family="Helvetica,sans-Serif" font-size="10.00">{StoragePlan::cpp}::validate</text>
<text xml:space="preserve" text-anchor="middle" x="657.5" y="-162.5" font-family="Helvetica,sans-Serif" font-size="10.00">ProjectionConfiguration</text>
</a>
</g>
</g>
<!-- Node3&#45;&gt;Node4 -->
<g id="edge3_Node000003_Node000004" class="edge">
<title>Node3&#45;&gt;Node4</title>
<g id="a_edge3_Node000003_Node000004"><a xlink:title=" ">
<path fill="none" stroke="#63b8ff" d="M520.1,-184.75C535.47,-184.75 552.15,-184.75 568.39,-184.75"/>
<polygon fill="#63b8ff" stroke="#63b8ff" points="568.03,-188.25 578.03,-184.75 568.03,-181.25 568.03,-188.25"/>
</a>
</g>
</g>
<!-- Node5 -->
<g id="Node000005" class="node">
<title>Node5</title>
<g id="a_Node000005"><a xlink:href="namespacenlohmann_1_1json__schema.html#aa85e264f222e36fe1108824f0699db71" target="_top" xlink:title=" ">
<polygon fill="white" stroke="#666666" points="940.62,-233.5 779.12,-233.5 779.12,-200 940.62,-200 940.62,-233.5"/>
<text xml:space="preserve" text-anchor="start" x="787.12" y="-220" font-family="Helvetica,sans-Serif" font-size="10.00">nlohmann::json_schema</text>
<text xml:space="preserve" text-anchor="middle" x="859.88" y="-207.25" font-family="Helvetica,sans-Serif" font-size="10.00">::default_string_format_check</text>
</a>
</g>
</g>
<!-- Node4&#45;&gt;Node5 -->
<g id="edge4_Node000004_Node000005" class="edge">
<title>Node4&#45;&gt;Node5</title>
<g id="a_edge4_Node000004_Node000005"><a xlink:title=" ">
<path fill="none" stroke="#63b8ff" d="M735.68,-197.08C746.16,-198.75 756.99,-200.48 767.68,-202.19"/>
<polygon fill="#63b8ff" stroke="#63b8ff" points="766.82,-205.59 777.25,-203.71 767.93,-198.68 766.82,-205.59"/>
</a>
</g>
</g>
<!-- Node13 -->
<g id="Node000013" class="node">
<title>Node13</title>
<g id="a_Node000013"><a xlink:href="classmqtt_1_1mqttstore_1_1lib_1_1anonymous__namespace_02StoragePlan_8cpp_03_1_1ProjectionValidationErrorHandler.html#a4ad111655d47dba4f064a22b83e119e4" target="_top" xlink:title=" ">
<polygon fill="white" stroke="#666666" points="948.5,-182.25 771.25,-182.25 771.25,-123.25 948.5,-123.25 948.5,-182.25"/>
<text xml:space="preserve" text-anchor="start" x="779.25" y="-168.75" font-family="Helvetica,sans-Serif" font-size="10.00">mqtt::mqttstore::lib</text>
<text xml:space="preserve" text-anchor="start" x="779.25" y="-156" font-family="Helvetica,sans-Serif" font-size="10.00">::anonymous_namespace</text>
<text xml:space="preserve" text-anchor="start" x="779.25" y="-143.25" font-family="Helvetica,sans-Serif" font-size="10.00">{StoragePlan::cpp}::Projection</text>
<text xml:space="preserve" text-anchor="middle" x="859.88" y="-130.5" font-family="Helvetica,sans-Serif" font-size="10.00">ValidationErrorHandler::message</text>
</a>
</g>
</g>
<!-- Node4&#45;&gt;Node13 -->
<g id="edge15_Node000004_Node000013" class="edge">
<title>Node4&#45;&gt;Node13</title>
<g id="a_edge15_Node000004_Node000013"><a xlink:title=" ">
<path fill="none" stroke="#63b8ff" d="M735.68,-172.42C743.55,-171.17 751.62,-169.88 759.68,-168.59"/>
<polygon fill="#63b8ff" stroke="#63b8ff" points="760.23,-172.05 769.55,-167.01 759.12,-165.14 760.23,-172.05"/>
</a>
</g>
</g>
<!-- Node6 -->
<g id="Node000006" class="node">
<title>Node6</title>
<g id="a_Node000006"><a xlink:href="smtp-address-validator_8cpp.html#a53806bb45aaea546415c64f8612328bf" target="_top" xlink:title=" ">
<polygon fill="white" stroke="#666666" points="1088.25,-359.12 1020.5,-359.12 1020.5,-338.38 1088.25,-338.38 1088.25,-359.12"/>
<text xml:space="preserve" text-anchor="middle" x="1054.38" y="-345.62" font-family="Helvetica,sans-Serif" font-size="10.00">is_address</text>
</a>
</g>
</g>
<!-- Node5&#45;&gt;Node6 -->
<g id="edge5_Node000005_Node000006" class="edge">
<title>Node5&#45;&gt;Node6</title>
<g id="a_edge5_Node000005_Node000006"><a xlink:title=" ">
<path fill="none" stroke="#63b8ff" d="M875.06,-233.78C896.36,-258.29 938.99,-303.33 984.5,-328.75 992.13,-333.01 1000.76,-336.44 1009.27,-339.18"/>
<polygon fill="#63b8ff" stroke="#63b8ff" points="1008.24,-342.52 1018.82,-341.95 1010.2,-335.8 1008.24,-342.52"/>
</a>
</g>
</g>
<!-- Node7 -->
<g id="Node000007" class="node">
<title>Node7</title>
<g id="a_Node000007"><a xlink:href="namespaceanonymous__namespace_02string-format-check_8cpp_03.html#a63b1fb98ca5a11d6c9c782a5f117d8bb" target="_top" xlink:title=" ">
<polygon fill="white" stroke="#666666" points="1121.62,-319.88 987.12,-319.88 987.12,-273.62 1121.62,-273.62 1121.62,-319.88"/>
<text xml:space="preserve" text-anchor="start" x="995.12" y="-306.38" font-family="Helvetica,sans-Serif" font-size="10.00">anonymous_namespace</text>
<text xml:space="preserve" text-anchor="start" x="995.12" y="-293.62" font-family="Helvetica,sans-Serif" font-size="10.00">{string&#45;format&#45;check</text>
<text xml:space="preserve" text-anchor="middle" x="1054.38" y="-280.88" font-family="Helvetica,sans-Serif" font-size="10.00">::cpp}::is_ascii</text>
</a>
</g>
</g>
<!-- Node5&#45;&gt;Node7 -->
<g id="edge6_Node000005_Node000007" class="edge">
<title>Node5&#45;&gt;Node7</title>
<g id="a_edge6_Node000005_Node000007"><a xlink:title=" ">
<path fill="none" stroke="#63b8ff" d="M902.17,-233.91C926.66,-244.09 958.29,-257.23 986.28,-268.87"/>
<polygon fill="#63b8ff" stroke="#63b8ff" points="984.84,-272.06 995.41,-272.66 987.52,-265.59 984.84,-272.06"/>
</a>
</g>
</g>
<!-- Node8 -->
<g id="Node000008" class="node">
<title>Node8</title>
<g id="a_Node000008"><a xlink:href="namespaceanonymous__namespace_02string-format-check_8cpp_03.html#abc6a6f514b36ca48ec57a49552b4a7ff" target="_top" xlink:title=" ">
<polygon fill="white" stroke="#666666" points="1309.38,-242.88 1160.62,-242.88 1160.62,-196.62 1309.38,-196.62 1309.38,-242.88"/>
<text xml:space="preserve" text-anchor="start" x="1168.62" y="-229.38" font-family="Helvetica,sans-Serif" font-size="10.00">anonymous_namespace</text>
<text xml:space="preserve" text-anchor="start" x="1168.62" y="-216.62" font-family="Helvetica,sans-Serif" font-size="10.00">{string&#45;format&#45;check</text>
<text xml:space="preserve" text-anchor="middle" x="1235" y="-203.88" font-family="Helvetica,sans-Serif" font-size="10.00">::cpp}::rfc3339_date_check</text>
</a>
</g>
</g>
<!-- Node5&#45;&gt;Node8 -->
<g id="edge7_Node000005_Node000008" class="edge">
<title>Node5&#45;&gt;Node8</title>
<g id="a_edge7_Node000005_Node000008"><a xlink:title=" ">
<path fill="none" stroke="#63b8ff" d="M940.95,-224.18C955.43,-225.25 970.41,-226.18 984.5,-226.75 1046.56,-229.26 1062.17,-228.73 1124.25,-226.75 1132.25,-226.5 1140.58,-226.14 1148.91,-225.71"/>
<polygon fill="#63b8ff" stroke="#63b8ff" points="1148.93,-229.22 1158.73,-225.18 1148.55,-222.23 1148.93,-229.22"/>
</a>
</g>
</g>
<!-- Node10 -->
<g id="Node000010" class="node">
<title>Node10</title>
<g id="a_Node000010"><a xlink:href="namespaceanonymous__namespace_02string-format-check_8cpp_03.html#a75d27cfe891533a99a33c21e2fcc8089" target="_top" xlink:title=" ">
<polygon fill="white" stroke="#666666" points="1121.62,-217.25 987.12,-217.25 987.12,-158.25 1121.62,-158.25 1121.62,-217.25"/>
<text xml:space="preserve" text-anchor="start" x="995.12" y="-203.75" font-family="Helvetica,sans-Serif" font-size="10.00">anonymous_namespace</text>
<text xml:space="preserve" text-anchor="start" x="995.12" y="-191" font-family="Helvetica,sans-Serif" font-size="10.00">{string&#45;format&#45;check</text>
<text xml:space="preserve" text-anchor="start" x="995.12" y="-178.25" font-family="Helvetica,sans-Serif" font-size="10.00">::cpp}::rfc3339_date</text>
<text xml:space="preserve" text-anchor="middle" x="1054.38" y="-165.5" font-family="Helvetica,sans-Serif" font-size="10.00">_time_check</text>
</a>
</g>
</g>
<!-- Node5&#45;&gt;Node10 -->
<g id="edge9_Node000005_Node000010" class="edge">
<title>Node5&#45;&gt;Node10</title>
<g id="a_edge9_Node000005_Node000010"><a xlink:title=" ">
<path fill="none" stroke="#63b8ff" d="M941.12,-204.66C952.49,-202.95 964.17,-201.19 975.5,-199.48"/>
<polygon fill="#63b8ff" stroke="#63b8ff" points="975.82,-202.97 985.19,-198.02 974.78,-196.05 975.82,-202.97"/>
</a>
</g>
</g>
<!-- Node11 -->
<g id="Node000011" class="node">
<title>Node11</title>
<g id="a_Node000011"><a xlink:href="namespaceanonymous__namespace_02string-format-check_8cpp_03.html#a94b42f28f7bbba3d1292744b2d3c4760" target="_top" xlink:title=" ">
<polygon fill="white" stroke="#666666" points="1309.75,-178.88 1160.25,-178.88 1160.25,-132.62 1309.75,-132.62 1309.75,-178.88"/>
<text xml:space="preserve" text-anchor="start" x="1168.25" y="-165.38" font-family="Helvetica,sans-Serif" font-size="10.00">anonymous_namespace</text>
<text xml:space="preserve" text-anchor="start" x="1168.25" y="-152.62" font-family="Helvetica,sans-Serif" font-size="10.00">{string&#45;format&#45;check</text>
<text xml:space="preserve" text-anchor="middle" x="1235" y="-139.88" font-family="Helvetica,sans-Serif" font-size="10.00">::cpp}::rfc3339_time_check</text>
</a>
</g>
</g>
<!-- Node5&#45;&gt;Node11 -->
<g id="edge13_Node000005_Node000011" class="edge">
<title>Node5&#45;&gt;Node11</title>
<g id="a_edge13_Node000005_Node000011"><a xlink:title=" ">
<path fill="none" stroke="#63b8ff" d="M934.1,-199.56C939.13,-197.27 943.99,-194.68 948.5,-191.75 969.4,-178.18 961.92,-159.3 984.5,-148.75 1035.33,-125.01 1098.55,-127.07 1148.64,-134.91"/>
<polygon fill="#63b8ff" stroke="#63b8ff" points="1147.83,-138.32 1158.28,-136.53 1148.99,-131.42 1147.83,-138.32"/>
</a>
</g>
</g>
<!-- Node12 -->
<g id="Node000012" class="node">
<title>Node12</title>
<g id="a_Node000012"><a xlink:href="namespaceanonymous__namespace_02string-format-check_8cpp_03.html#ad0a9f022f6535a5a8b5357b284a039a9" target="_top" xlink:title=" ">
<polygon fill="white" stroke="#666666" points="1124.25,-101.88 984.5,-101.88 984.5,-55.62 1124.25,-55.62 1124.25,-101.88"/>
<text xml:space="preserve" text-anchor="start" x="992.5" y="-88.38" font-family="Helvetica,sans-Serif" font-size="10.00">anonymous_namespace</text>
<text xml:space="preserve" text-anchor="start" x="992.5" y="-75.62" font-family="Helvetica,sans-Serif" font-size="10.00">{string&#45;format&#45;check</text>
<text xml:space="preserve" text-anchor="middle" x="1054.38" y="-62.88" font-family="Helvetica,sans-Serif" font-size="10.00">::cpp}::rfc3986_uri_check</text>
</a>
</g>
</g>
<!-- Node5&#45;&gt;Node12 -->
<g id="edge14_Node000005_Node000012" class="edge">
<title>Node5&#45;&gt;Node12</title>
<g id="a_edge14_Node000005_Node000012"><a xlink:title=" ">
<path fill="none" stroke="#63b8ff" d="M937.13,-199.64C941.17,-197.33 945,-194.72 948.5,-191.75 977.01,-167.58 958.75,-142.84 984.5,-115.75 986.74,-113.4 989.15,-111.16 991.7,-109.04"/>
<polygon fill="#63b8ff" stroke="#63b8ff" points="993.64,-111.96 999.57,-103.18 989.46,-106.35 993.64,-111.96"/>
</a>
</g>
</g>
<!-- Node9 -->
<g id="Node000009" class="node">
<title>Node9</title>
<g id="a_Node000009"><a xlink:href="namespaceanonymous__namespace_02string-format-check_8cpp_03.html#a6340a152b415fab84af156f3afff080b" target="_top" xlink:title=" ">
<polygon fill="white" stroke="#666666" points="1480.25,-210.88 1345.75,-210.88 1345.75,-164.62 1480.25,-164.62 1480.25,-210.88"/>
<text xml:space="preserve" text-anchor="start" x="1353.75" y="-197.38" font-family="Helvetica,sans-Serif" font-size="10.00">anonymous_namespace</text>
<text xml:space="preserve" text-anchor="start" x="1353.75" y="-184.62" font-family="Helvetica,sans-Serif" font-size="10.00">{string&#45;format&#45;check</text>
<text xml:space="preserve" text-anchor="middle" x="1413" y="-171.88" font-family="Helvetica,sans-Serif" font-size="10.00">::cpp}::range_check</text>
</a>
</g>
</g>
<!-- Node8&#45;&gt;Node9 -->
<g id="edge8_Node000008_Node000009" class="edge">
<title>Node8&#45;&gt;Node9</title>
<g id="a_edge8_Node000008_Node000009"><a xlink:title=" ">
<path fill="none" stroke="#63b8ff" d="M1309.87,-206.32C1317.87,-204.87 1326.02,-203.38 1334.06,-201.92"/>
<polygon fill="#63b8ff" stroke="#63b8ff" points="1334.62,-205.38 1343.83,-200.14 1333.36,-198.49 1334.62,-205.38"/>
</a>
</g>
</g>
<!-- Node10&#45;&gt;Node8 -->
<g id="edge10_Node000010_Node000008" class="edge">
<title>Node10&#45;&gt;Node8</title>
<g id="a_edge10_Node000010_Node000008"><a xlink:title=" ">
<path fill="none" stroke="#63b8ff" d="M1121.89,-199.67C1130.77,-201.26 1139.98,-202.91 1149.13,-204.55"/>
<polygon fill="#63b8ff" stroke="#63b8ff" points="1148.28,-207.95 1158.74,-206.27 1149.51,-201.06 1148.28,-207.95"/>
</a>
</g>
</g>
<!-- Node10&#45;&gt;Node11 -->
<g id="edge11_Node000010_Node000011" class="edge">
<title>Node10&#45;&gt;Node11</title>
<g id="a_edge11_Node000010_Node000011"><a xlink:title=" ">
<path fill="none" stroke="#63b8ff" d="M1121.89,-175.83C1130.61,-174.27 1139.63,-172.66 1148.61,-171.05"/>
<polygon fill="#63b8ff" stroke="#63b8ff" points="1149.21,-174.5 1158.43,-169.29 1147.97,-167.61 1149.21,-174.5"/>
</a>
</g>
</g>
<!-- Node11&#45;&gt;Node9 -->
<g id="edge12_Node000011_Node000009" class="edge">
<title>Node11&#45;&gt;Node9</title>
<g id="a_edge12_Node000011_Node000009"><a xlink:title=" ">
<path fill="none" stroke="#63b8ff" d="M1310.13,-169.23C1318.11,-170.68 1326.25,-172.16 1334.27,-173.62"/>
<polygon fill="#63b8ff" stroke="#63b8ff" points="1333.55,-177.04 1344.02,-175.39 1334.81,-170.16 1333.55,-177.04"/>
</a>
</g>
</g>
<!-- Node15 -->
<g id="Node000015" class="node">
<title>Node15</title>
<g id="a_Node000015"><a xlink:href="classmqtt_1_1mqttstore_1_1lib_1_1ConfigStorage.html#a152e7536b3644717ba8bffa312bb2632" target="_top" xlink:title=" ">
<polygon fill="white" stroke="#666666" points="538.5,-149.88 371,-149.88 371,-103.62 538.5,-103.62 538.5,-149.88"/>
<text xml:space="preserve" text-anchor="start" x="379" y="-136.38" font-family="Helvetica,sans-Serif" font-size="10.00">mqtt::mqttstore::lib</text>
<text xml:space="preserve" text-anchor="start" x="379" y="-123.62" font-family="Helvetica,sans-Serif" font-size="10.00">::ConfigStorage::getAutoCreate</text>
<text xml:space="preserve" text-anchor="middle" x="454.75" y="-110.88" font-family="Helvetica,sans-Serif" font-size="10.00">RawTable</text>
</a>
</g>
</g>
<!-- Node14&#45;&gt;Node15 -->
<g id="edge17_Node000014_Node000015" class="edge">
<title>Node14&#45;&gt;Node15</title>
<g id="a_edge17_Node000014_Node000015"><a xlink:title=" ">
<path fill="none" stroke="#63b8ff" d="M330.06,-108.26C339.67,-109.7 349.67,-111.19 359.62,-112.68"/>
<polygon fill="#63b8ff" stroke="#63b8ff" points="358.91,-116.11 369.31,-114.13 359.94,-109.19 358.91,-116.11"/>
</a>
</g>
</g>
<!-- Node16 -->
<g id="Node000016" class="node">
<title>Node16</title>
<g id="a_Node000016"><a xlink:href="classmqtt_1_1mqttstore_1_1lib_1_1ConfigStorage.html#a051c2a1bc2516215fab8423ad6e6aca4" target="_top" xlink:title=" ">
<polygon fill="white" stroke="#666666" points="543.75,-85.5 365.75,-85.5 365.75,-52 543.75,-52 543.75,-85.5"/>
<text xml:space="preserve" text-anchor="start" x="373.75" y="-72" font-family="Helvetica,sans-Serif" font-size="10.00">mqtt::mqttstore::lib</text>
<text xml:space="preserve" text-anchor="middle" x="454.75" y="-59.25" font-family="Helvetica,sans-Serif" font-size="10.00">::ConfigStorage::getProjectionFile</text>
</a>
</g>
</g>
<!-- Node14&#45;&gt;Node16 -->
<g id="edge18_Node000014_Node000016" class="edge">
<title>Node14&#45;&gt;Node16</title>
<g id="a_edge18_Node000014_Node000016"><a xlink:title=" ">
<path fill="none" stroke="#63b8ff" d="M330.06,-87.24C337.97,-86.06 346.12,-84.84 354.31,-83.62"/>
<polygon fill="#63b8ff" stroke="#63b8ff" points="354.59,-87.11 363.96,-82.17 353.55,-80.19 354.59,-87.11"/>
</a>
</g>
</g>
<!-- Node17 -->
<g id="Node000017" class="node">
<title>Node17</title>
<g id="a_Node000017"><a xlink:href="classmqtt_1_1mqttstore_1_1lib_1_1ConfigStorage.html#a1fa6bc45528e4e0bb0b48199b1e99172" target="_top" xlink:title=" ">
<polygon fill="white" stroke="#666666" points="534.38,-33.5 375.12,-33.5 375.12,0 534.38,0 534.38,-33.5"/>
<text xml:space="preserve" text-anchor="start" x="383.12" y="-20" font-family="Helvetica,sans-Serif" font-size="10.00">mqtt::mqttstore::lib</text>
<text xml:space="preserve" text-anchor="middle" x="454.75" y="-7.25" font-family="Helvetica,sans-Serif" font-size="10.00">::ConfigStorage::getRawTable</text>
</a>
</g>
</g>
<!-- Node14&#45;&gt;Node17 -->
<g id="edge19_Node000014_Node000017" class="edge">
<title>Node14&#45;&gt;Node17</title>
<g id="a_edge19_Node000014_Node000017"><a xlink:title=" ">
<path fill="none" stroke="#63b8ff" d="M300.67,-74.18C320,-63.66 343.63,-51.66 365.75,-42.75 370.28,-40.93 374.98,-39.17 379.76,-37.48"/>
<polygon fill="#63b8ff" stroke="#63b8ff" points="380.5,-40.93 388.84,-34.4 378.25,-34.3 380.5,-40.93"/>
</a>
</g>
</g>
</g>
</svg>

<g id="navigator" transform="translate(0 0)" fill="#404254">
  <rect fill="#f2f5e9" fill-opacity="0.5" stroke="#606060" stroke-width=".5" x="0" y="0" width="60" height="60"/>
  <use id="zoomplus" xlink:href="#zoomPlus" x="17" y="9" onmousedown="handleZoom(evt,'in')"/>
  <use id="zoomminus" xlink:href="#zoomMin" x="42" y="9" onmousedown="handleZoom(evt,'out')"/>
  <use id="reset" xlink:href="#resetDef" x="30" y="36" onmousedown="handleReset()"/>
   <use id="arrowup" xlink:href="#arrowUp" x="0" y="0" onmousedown="handlePan(0,-1)"/>
  <use id="arrowright" xlink:href="#arrowRight" x="0" y="0" onmousedown="handlePan(1,0)"/>
  <use id="arrowdown" xlink:href="#arrowDown" x="0" y="0" onmousedown="handlePan(0,1)"/>
  <use id="arrowleft" xlink:href="#arrowLeft" x="0" y="0" onmousedown="handlePan(-1,0)"/>
</g>
<svg viewBox="0 0 15 15" width="100%" height="30px" preserveAspectRatio="xMaxYMin meet">
 <g id="arrow_out" transform="scale(0.3 0.3)">
  <a xlink:href="classmqtt_1_1mqttstore_1_1websocket_1_1SubProtocolFactory_a273bb98403dccd31612a9353cdbe791d_cgraph_org.svg" target="_base">
   <rect id="button" ry="5" rx="5" y="6" x="6" height="38" width="38"
        fill="#f2f5e9" fill-opacity="0.5" stroke="#606060" stroke-width="1.0"/>
   <path id="arrow"
     d="M 11.500037,31.436501 C 11.940474,20.09759 22.043105,11.32322 32.158766,21.979434 L 37.068811,17.246167 C 37.068811,17.246167 37.088388,32 37.088388,32 L 22.160133,31.978069 C 22.160133,31.978069 26.997745,27.140456 26.997745,27.140456 C 18.528582,18.264221 13.291696,25.230495 11.500037,31.436501 z"
     style="fill:#404040;"/>
  </a>
 </g>
</svg>

<style type='text/css'>
<![CDATA[
[data-mouse-over-selected='false'] { opacity: 0.7; }
[data-mouse-over-selected='true']  { opacity: 1.0; }
]]>
</style>
<script type="application/ecmascript"><![CDATA[
document.addEventListener('DOMContentLoaded', (event) => {
  highlightEdges();
  highlightAdjacentNodes();
});
]]></script>
</svg>
