<?xml version="1.0" encoding="UTF-8" standalone="no"?>
<!DOCTYPE svg PUBLIC "-//W3C//DTD SVG 1.1//EN"
 "http://www.w3.org/Graphics/SVG/1.1/DTD/svg11.dtd">
<!-- Generated by graphviz version 14.1.1 (0)
 -->
<!-- Title: mqtt::mqttbroker::lib::MqttModel::sendEvent Pages: 1 -->
<svg width="586pt" height="146pt"
 viewBox="0.00 0.00 586.00 146.00" xmlns="http://www.w3.org/2000/svg" xmlns:xlink="http://www.w3.org/1999/xlink">
<g id="graph0" class="graph" transform="scale(1 1) rotate(0) translate(4 141.5)">
<title>mqtt::mqttbroker::lib::MqttModel::sendEvent</title>
<!-- Node1 -->
<g id="Node000001" class="node">
<title>Node1</title>
<g id="a_Node000001"><a xlink:title=" ">
<polygon fill="#999999" stroke="#666666" points="577.75,-85.5 446.25,-85.5 446.25,-52 577.75,-52 577.75,-85.5"/>
<text xml:space="preserve" text-anchor="start" x="454.25" y="-72" font-family="Helvetica,sans-Serif" font-size="10.00">mqtt::mqttbroker::lib</text>
<text xml:space="preserve" text-anchor="middle" x="512" y="-59.25" font-family="Helvetica,sans-Serif" font-size="10.00">::MqttModel::sendEvent</text>
</a>
</g>
</g>
<!-- Node2 -->
<g id="Node000002" class="node">
<title>Node2</title>
<g id="a_Node000002"><a xlink:href="classmqtt_1_1mqttbroker_1_1lib_1_1MqttModel.html#a25c771d5e71dea6657633466a4845174" target="_top" xlink:title=" ">
<polygon fill="white" stroke="#666666" points="389.25,-137.5 262.25,-137.5 262.25,-104 389.25,-104 389.25,-137.5"/>
<text xml:space="preserve" text-anchor="start" x="270.25" y="-124" font-family="Helvetica,sans-Serif" font-size="10.00">mqtt::mqttbroker::lib</text>
<text xml:space="preserve" text-anchor="middle" x="325.75" y="-111.25" font-family="Helvetica,sans-Serif" font-size="10.00">::MqttModel::addClient</text>
</a>
</g>
</g>
<!-- Node1&#45;&gt;Node2 -->
<g id="edge1_Node000001_Node000002" class="edge">
<title>Node1&#45;&gt;Node2</title>
<g id="a_edge1_Node000001_Node000002"><a xlink:title=" ">
<path fill="none" stroke="#63b8ff" d="M438.93,-89.09C421.98,-93.87 404.08,-98.92 387.68,-103.55"/>
<polygon fill="#63b8ff" stroke="#63b8ff" points="439.77,-92.49 448.45,-86.4 437.87,-85.75 439.77,-92.49"/>
</a>
</g>
</g>
<!-- Node4 -->
<g id="Node000004" class="node">
<title>Node4</title>
<g id="a_Node000004"><a xlink:href="classmqtt_1_1mqttbroker_1_1lib_1_1MqttModel.html#a860c900fe750b32b6cc66111f4e20125" target="_top" xlink:title=" ">
<polygon fill="white" stroke="#666666" points="410.25,-85.5 241.25,-85.5 241.25,-52 410.25,-52 410.25,-85.5"/>
<text xml:space="preserve" text-anchor="start" x="249.25" y="-72" font-family="Helvetica,sans-Serif" font-size="10.00">mqtt::mqttbroker::lib</text>
<text xml:space="preserve" text-anchor="middle" x="325.75" y="-59.25" font-family="Helvetica,sans-Serif" font-size="10.00">::MqttModel::addEventReceiver</text>
</a>
</g>
</g>
<!-- Node1&#45;&gt;Node4 -->
<g id="edge3_Node000001_Node000004" class="edge">
<title>Node1&#45;&gt;Node4</title>
<g id="a_edge3_Node000001_Node000004"><a xlink:title=" ">
<path fill="none" stroke="#63b8ff" d="M434.41,-68.75C426.55,-68.75 418.53,-68.75 410.6,-68.75"/>
<polygon fill="#63b8ff" stroke="#63b8ff" points="434.27,-72.25 444.27,-68.75 434.27,-65.25 434.27,-72.25"/>
</a>
</g>
</g>
<!-- Node7 -->
<g id="Node000007" class="node">
<title>Node7</title>
<g id="a_Node000007"><a xlink:href="classmqtt_1_1mqttbroker_1_1lib_1_1MqttModel.html#a141dedccc7faab0f7fd3f1107030864d" target="_top" xlink:title=" ">
<polygon fill="white" stroke="#666666" points="387.75,-33.5 263.75,-33.5 263.75,0 387.75,0 387.75,-33.5"/>
<text xml:space="preserve" text-anchor="start" x="271.75" y="-20" font-family="Helvetica,sans-Serif" font-size="10.00">mqtt::mqttbroker::lib</text>
<text xml:space="preserve" text-anchor="middle" x="325.75" y="-7.25" font-family="Helvetica,sans-Serif" font-size="10.00">::MqttModel::delClient</text>
</a>
</g>
</g>
<!-- Node1&#45;&gt;Node7 -->
<g id="edge6_Node000001_Node000007" class="edge">
<title>Node1&#45;&gt;Node7</title>
<g id="a_edge6_Node000001_Node000007"><a xlink:title=" ">
<path fill="none" stroke="#63b8ff" d="M438.93,-48.41C421.98,-43.63 404.08,-38.58 387.68,-33.95"/>
<polygon fill="#63b8ff" stroke="#63b8ff" points="437.87,-51.75 448.45,-51.1 439.77,-45.01 437.87,-51.75"/>
</a>
</g>
</g>
<!-- Node3 -->
<g id="Node000003" class="node">
<title>Node3</title>
<g id="a_Node000003"><a xlink:href="classmqtt_1_1mqttbroker_1_1lib_1_1Mqtt.html#a381e51fa3f75d81dc2501403b83d96f2" target="_top" xlink:title=" ">
<polygon fill="white" stroke="#666666" points="199.62,-137.5 82.38,-137.5 82.38,-104 199.62,-104 199.62,-137.5"/>
<text xml:space="preserve" text-anchor="start" x="90.38" y="-124" font-family="Helvetica,sans-Serif" font-size="10.00">mqtt::mqttbroker::lib</text>
<text xml:space="preserve" text-anchor="middle" x="141" y="-111.25" font-family="Helvetica,sans-Serif" font-size="10.00">::Mqtt::onConnect</text>
</a>
</g>
</g>
<!-- Node2&#45;&gt;Node3 -->
<g id="edge2_Node000002_Node000003" class="edge">
<title>Node2&#45;&gt;Node3</title>
<g id="a_edge2_Node000002_Node000003"><a xlink:title=" ">
<path fill="none" stroke="#63b8ff" d="M250.41,-120.75C233.64,-120.75 216.08,-120.75 200.09,-120.75"/>
<polygon fill="#63b8ff" stroke="#63b8ff" points="250.34,-124.25 260.34,-120.75 250.34,-117.25 250.34,-124.25"/>
</a>
</g>
</g>
<!-- Node5 -->
<g id="Node000005" class="node">
<title>Node5</title>
<g id="a_Node000005"><a xlink:href="mqttbroker_8cpp.html#a6a886a53c0261b1fa115609c34e8e607" target="_top" xlink:title=" ">
<polygon fill="white" stroke="#666666" points="173,-79.12 109,-79.12 109,-58.38 173,-58.38 173,-79.12"/>
<text xml:space="preserve" text-anchor="middle" x="141" y="-65.62" font-family="Helvetica,sans-Serif" font-size="10.00">getRouter</text>
</a>
</g>
</g>
<!-- Node4&#45;&gt;Node5 -->
<g id="edge4_Node000004_Node000005" class="edge">
<title>Node4&#45;&gt;Node5</title>
<g id="a_edge4_Node000004_Node000005"><a xlink:title=" ">
<path fill="none" stroke="#63b8ff" d="M229.58,-68.75C209.27,-68.75 189.2,-68.75 173.42,-68.75"/>
<polygon fill="#63b8ff" stroke="#63b8ff" points="229.35,-72.25 239.35,-68.75 229.35,-65.25 229.35,-72.25"/>
</a>
</g>
</g>
<!-- Node6 -->
<g id="Node000006" class="node">
<title>Node6</title>
<g id="a_Node000006"><a xlink:href="mqttbroker_8cpp.html#a0ddf1224851353fc92bfbff6f499fa97" target="_top" xlink:title=" ">
<polygon fill="white" stroke="#666666" points="40.75,-79.12 0,-79.12 0,-58.38 40.75,-58.38 40.75,-79.12"/>
<text xml:space="preserve" text-anchor="middle" x="20.38" y="-65.62" font-family="Helvetica,sans-Serif" font-size="10.00">main</text>
</a>
</g>
</g>
<!-- Node5&#45;&gt;Node6 -->
<g id="edge5_Node000005_Node000006" class="edge">
<title>Node5&#45;&gt;Node6</title>
<g id="a_edge5_Node000005_Node000006"><a xlink:title=" ">
<path fill="none" stroke="#63b8ff" d="M97.27,-68.75C78.07,-68.75 56.35,-68.75 41.08,-68.75"/>
<polygon fill="#63b8ff" stroke="#63b8ff" points="97.01,-72.25 107.01,-68.75 97.01,-65.25 97.01,-72.25"/>
</a>
</g>
</g>
<!-- Node8 -->
<g id="Node000008" class="node">
<title>Node8</title>
<g id="a_Node000008"><a xlink:href="classmqtt_1_1mqttbroker_1_1lib_1_1Mqtt.html#a701d087aedd4cd329ba80f26a99d4f17" target="_top" xlink:title=" ">
<polygon fill="white" stroke="#666666" points="205.25,-33.5 76.75,-33.5 76.75,0 205.25,0 205.25,-33.5"/>
<text xml:space="preserve" text-anchor="start" x="84.75" y="-20" font-family="Helvetica,sans-Serif" font-size="10.00">mqtt::mqttbroker::lib</text>
<text xml:space="preserve" text-anchor="middle" x="141" y="-7.25" font-family="Helvetica,sans-Serif" font-size="10.00">::Mqtt::onDisconnected</text>
</a>
</g>
</g>
<!-- Node7&#45;&gt;Node8 -->
<g id="edge7_Node000007_Node000008" class="edge">
<title>Node7&#45;&gt;Node8</title>
<g id="a_edge7_Node000007_Node000008"><a xlink:title=" ">
<path fill="none" stroke="#63b8ff" d="M251.88,-16.75C236.6,-16.75 220.61,-16.75 205.7,-16.75"/>
<polygon fill="#63b8ff" stroke="#63b8ff" points="251.87,-20.25 261.87,-16.75 251.87,-13.25 251.87,-20.25"/>
</a>
</g>
</g>
</g>
</svg>
