<?xml version="1.0" encoding="UTF-8" standalone="no"?>
<!DOCTYPE svg PUBLIC "-//W3C//DTD SVG 1.1//EN"
 "http://www.w3.org/Graphics/SVG/1.1/DTD/svg11.dtd">
<!-- Generated by graphviz version 2.42.4 (0)
 -->
<!-- Title: inja::FunctionStorage Pages: 1 -->
<svg width="253pt" height="354pt"
 viewBox="0.00 0.00 253.00 354.00" xmlns="http://www.w3.org/2000/svg" xmlns:xlink="http://www.w3.org/1999/xlink">
<g id="graph0" class="graph" transform="scale(1 1) rotate(0) translate(4 350)">
<title>inja::FunctionStorage</title>
<!-- Node1 -->
<g id="Node000001" class="node">
<title>Node1</title>
<g id="a_Node000001"><a xlink:title="Class for builtin functions and user&#45;defined callbacks.">
<polygon fill="#999999" stroke="transparent" points="209,-19 97,-19 97,0 209,0 209,-19"/>
<text text-anchor="start" x="101.5" y="-6.5" font-family="Helvetica,sans-Serif" font-size="10.00">inja::FunctionStorage</text>
<polygon fill="none" stroke="#666666" points="97,0 97,-19 209,-19 209,0 97,0"/>
</a>
</g>
</g>
<!-- Node2 -->
<g id="Node000002" class="node">
<title>Node2</title>
<g id="a_Node000002"><a xlink:title=" ">
<polygon fill="white" stroke="transparent" points="212,-124 94,-124 94,-72 212,-72 212,-124"/>
<text text-anchor="start" x="98.5" y="-112" font-family="Helvetica,sans-Serif" font-size="10.00">std::map&lt; std::pair</text>
<text text-anchor="start" x="98.5" y="-101" font-family="Helvetica,sans-Serif" font-size="10.00">&lt; std::string, int &gt;</text>
<text text-anchor="start" x="98.5" y="-90" font-family="Helvetica,sans-Serif" font-size="10.00">, inja::FunctionStorage</text>
<text text-anchor="start" x="112" y="-79" font-family="Helvetica,sans-Serif" font-size="10.00">::FunctionData &gt;</text>
<polygon fill="none" stroke="#666666" points="94,-72 94,-124 212,-124 212,-72 94,-72"/>
</a>
</g>
</g>
<!-- Node2&#45;&gt;Node1 -->
<g id="edge1_Node000001_Node000002" class="edge">
<title>Node2&#45;&gt;Node1</title>
<g id="a_edge1_Node000001_Node000002"><a xlink:title=" ">
<path fill="none" stroke="#63b8ff" d="M153,-71.98C153,-59.07 153,-43.52 153,-31.28"/>
<polygon fill="none" stroke="#63b8ff" points="153,-31.2 149,-25.2 153,-19.2 157,-25.2 153,-31.2"/>
</a>
</g>
<text text-anchor="start" x="156" y="-42.5" font-family="Helvetica,sans-Serif" font-size="10.00" fill="grey">&#45;function_storage</text>
</g>
<!-- Node3 -->
<g id="Node000003" class="node">
<title>Node3</title>
<g id="a_Node000003"><a xlink:title=" ">
<polygon fill="white" stroke="transparent" points="112,-207 0,-207 0,-177 112,-177 112,-207"/>
<text text-anchor="start" x="4.5" y="-195" font-family="Helvetica,sans-Serif" font-size="10.00">std::pair&lt; std::string,</text>
<text text-anchor="start" x="42" y="-184" font-family="Helvetica,sans-Serif" font-size="10.00"> int &gt;</text>
<polygon fill="none" stroke="#666666" points="0,-177 0,-207 112,-207 112,-177 0,-177"/>
</a>
</g>
</g>
<!-- Node3&#45;&gt;Node2 -->
<g id="edge2_Node000002_Node000003" class="edge">
<title>Node3&#45;&gt;Node2</title>
<g id="a_edge2_Node000002_Node000003"><a xlink:title=" ">
<path fill="none" stroke="#63b8ff" d="M71.16,-176.62C83.54,-164.88 101.54,-147.81 117.51,-132.66"/>
<polygon fill="none" stroke="#63b8ff" points="117.92,-132.28 119.52,-125.24 126.62,-124.02 125.02,-131.05 117.92,-132.28"/>
</a>
</g>
<text text-anchor="start" x="111.5" y="-147.5" font-family="Helvetica,sans-Serif" font-size="10.00" fill="grey">+keys</text>
</g>
<!-- Node4 -->
<g id="Node000004" class="node">
<title>Node4</title>
<g id="a_Node000004"><a xlink:title=" ">
<polygon fill="white" stroke="transparent" points="85,-279 27,-279 27,-260 85,-260 85,-279"/>
<text text-anchor="start" x="31.5" y="-266.5" font-family="Helvetica,sans-Serif" font-size="10.00">std::string</text>
<polygon fill="none" stroke="#666666" points="27,-260 27,-279 85,-279 85,-260 27,-260"/>
</a>
</g>
</g>
<!-- Node4&#45;&gt;Node3 -->
<g id="edge3_Node000003_Node000004" class="edge">
<title>Node4&#45;&gt;Node3</title>
<g id="a_edge3_Node000003_Node000004"><a xlink:title=" ">
<path fill="none" stroke="#63b8ff" d="M56,-259.84C56,-249.99 56,-233.45 56,-219.29"/>
<polygon fill="none" stroke="#63b8ff" points="56,-219.21 52,-213.21 56,-207.21 60,-213.21 56,-219.21"/>
</a>
</g>
<text text-anchor="start" x="59.5" y="-230.5" font-family="Helvetica,sans-Serif" font-size="10.00" fill="grey">+first_type</text>
</g>
<!-- Node5 -->
<g id="Node000005" class="node">
<title>Node5</title>
<g id="a_Node000005"><a xlink:title=" ">
<polygon fill="white" stroke="transparent" points="104,-346 8,-346 8,-316 104,-316 104,-346"/>
<text text-anchor="start" x="12" y="-334" font-family="Helvetica,sans-Serif" font-size="10.00">std::basic_string&lt;</text>
<text text-anchor="start" x="37.5" y="-323" font-family="Helvetica,sans-Serif" font-size="10.00"> Char &gt;</text>
<polygon fill="none" stroke="#666666" points="8,-316 8,-346 104,-346 104,-316 8,-316"/>
</a>
</g>
</g>
<!-- Node5&#45;&gt;Node4 -->
<g id="edge4_Node000004_Node000005" class="edge">
<title>Node5&#45;&gt;Node4</title>
<g id="a_edge4_Node000004_Node000005"><a xlink:title=" ">
<path fill="none" stroke="#63b8ff" d="M56,-305.79C56,-296.36 56,-286.15 56,-279.16"/>
<polygon fill="none" stroke="#63b8ff" points="52.5,-305.9 56,-315.9 59.5,-305.9 52.5,-305.9"/>
</a>
</g>
</g>
<!-- Node6 -->
<g id="Node000006" class="node">
<title>Node6</title>
<g id="a_Node000006"><a xlink:href="structinja_1_1FunctionStorage_1_1FunctionData.html" target="_top" xlink:title=" ">
<polygon fill="white" stroke="transparent" points="242,-207 130,-207 130,-177 242,-177 242,-207"/>
<text text-anchor="start" x="134.5" y="-195" font-family="Helvetica,sans-Serif" font-size="10.00">inja::FunctionStorage</text>
<text text-anchor="start" x="150.5" y="-184" font-family="Helvetica,sans-Serif" font-size="10.00">::FunctionData</text>
<polygon fill="none" stroke="#666666" points="130,-177 130,-207 242,-207 242,-177 130,-177"/>
</a>
</g>
</g>
<!-- Node6&#45;&gt;Node2 -->
<g id="edge5_Node000002_Node000006" class="edge">
<title>Node6&#45;&gt;Node2</title>
<g id="a_edge5_Node000002_Node000006"><a xlink:title=" ">
<path fill="none" stroke="#63b8ff" d="M180.84,-176.62C176.91,-165.65 171.3,-150.02 166.15,-135.65"/>
<polygon fill="none" stroke="#63b8ff" points="166.03,-135.31 160.23,-131.02 161.97,-124.02 167.76,-128.32 166.03,-135.31"/>
</a>
</g>
<text text-anchor="start" x="177.5" y="-147.5" font-family="Helvetica,sans-Serif" font-size="10.00" fill="grey">+elements</text>
</g>
</g>
</svg>
