<?xml version="1.0" encoding="UTF-8" standalone="no"?>
<!DOCTYPE svg PUBLIC "-//W3C//DTD SVG 1.1//EN"
 "http://www.w3.org/Graphics/SVG/1.1/DTD/svg11.dtd">
<!-- Generated by graphviz version 2.42.4 (0)
 -->
<!-- Title: inja::SetStatementNode Pages: 1 -->
<svg width="387pt" height="300pt"
 viewBox="0.00 0.00 387.00 300.00" xmlns="http://www.w3.org/2000/svg" xmlns:xlink="http://www.w3.org/1999/xlink">

<svg id="main" version="1.1" xmlns="http://www.w3.org/2000/svg" xmlns:xlink="http://www.w3.org/1999/xlink" xml:space="preserve" onload="init(evt)">
<style type="text/css"><![CDATA[
.node, .edge {opacity: 0.7;}
.node.selected, .edge.selected {opacity: 1;}
.edge:hover path { stroke: red; }
.edge:hover polygon { stroke: red; fill: red; }
]]></style>
<script type="application/ecmascript" xlink:href="svg.min.js"/>
<svg id="graph" class="graph">
<g id="graph0" class="graph" transform="scale(1 1) rotate(0) translate(4 296)">
<title>inja::SetStatementNode</title>
<!-- Node1 -->
<g id="Node000001" class="node">
<title>Node1</title>
<g id="a_Node000001"><a xlink:title=" ">
<polygon fill="#999999" stroke="transparent" points="229,-19 103,-19 103,0 229,0 229,-19"/>
<text text-anchor="start" x="107.5" y="-6.5" font-family="Helvetica,sans-Serif" font-size="10.00">inja::SetStatementNode</text>
<polygon fill="none" stroke="#666666" points="103,0 103,-19 229,-19 229,0 103,0"/>
</a>
</g>
</g>
<!-- Node2 -->
<g id="Node000002" class="node">
<title>Node2</title>
<g id="a_Node000002"><a xlink:href="classinja_1_1StatementNode.html" target="_top" xlink:title=" ">
<polygon fill="white" stroke="transparent" points="110,-199 0,-199 0,-180 110,-180 110,-199"/>
<text text-anchor="start" x="4.5" y="-186.5" font-family="Helvetica,sans-Serif" font-size="10.00">inja::StatementNode</text>
<polygon fill="none" stroke="#666666" points="0,-180 0,-199 110,-199 110,-180 0,-180"/>
</a>
</g>
</g>
<!-- Node2&#45;&gt;Node1 -->
<g id="edge1_Node000001_Node000002" class="edge">
<title>Node2&#45;&gt;Node1</title>
<g id="a_edge1_Node000001_Node000002"><a xlink:title=" ">
<path fill="none" stroke="#63b8ff" d="M56.96,-169.87C60.41,-144.4 69.48,-98.21 92,-66 106.82,-44.81 132.27,-28.32 149.11,-19"/>
<polygon fill="none" stroke="#63b8ff" points="53.47,-169.64 55.74,-179.99 60.41,-170.48 53.47,-169.64"/>
</a>
</g>
</g>
<!-- Node3 -->
<g id="Node000003" class="node">
<title>Node3</title>
<g id="a_Node000003"><a xlink:href="classinja_1_1AstNode.html" target="_top" xlink:title="Base node class for the abstract syntax tree (AST).">
<polygon fill="white" stroke="transparent" points="162,-292 88,-292 88,-273 162,-273 162,-292"/>
<text text-anchor="start" x="92" y="-279.5" font-family="Helvetica,sans-Serif" font-size="10.00">inja::AstNode</text>
<polygon fill="none" stroke="#666666" points="88,-273 88,-292 162,-292 162,-273 88,-273"/>
</a>
</g>
</g>
<!-- Node3&#45;&gt;Node2 -->
<g id="edge2_Node000002_Node000003" class="edge">
<title>Node3&#45;&gt;Node2</title>
<g id="a_edge2_Node000002_Node000003"><a xlink:title=" ">
<path fill="none" stroke="#63b8ff" d="M112.15,-264.79C97.21,-245.37 73.13,-214.07 61.59,-199.07"/>
<polygon fill="none" stroke="#63b8ff" points="109.42,-266.98 118.29,-272.77 114.97,-262.71 109.42,-266.98"/>
</a>
</g>
</g>
<!-- Node6 -->
<g id="Node000006" class="node">
<title>Node6</title>
<g id="a_Node000006"><a xlink:href="classinja_1_1ExpressionListNode.html" target="_top" xlink:title=" ">
<polygon fill="white" stroke="transparent" points="231,-85 101,-85 101,-66 231,-66 231,-85"/>
<text text-anchor="start" x="105.5" y="-72.5" font-family="Helvetica,sans-Serif" font-size="10.00">inja::ExpressionListNode</text>
<polygon fill="none" stroke="#666666" points="101,-66 101,-85 231,-85 231,-66 101,-66"/>
</a>
</g>
</g>
<!-- Node3&#45;&gt;Node6 -->
<g id="edge6_Node000006_Node000003" class="edge">
<title>Node3&#45;&gt;Node6</title>
<g id="a_edge6_Node000006_Node000003"><a xlink:title=" ">
<path fill="none" stroke="#63b8ff" d="M125.87,-262.77C127.54,-234.18 132.14,-178.1 144,-132 148.39,-114.94 156.65,-96.06 161.71,-85.3"/>
<polygon fill="none" stroke="#63b8ff" points="122.37,-262.76 125.34,-272.93 129.36,-263.13 122.37,-262.76"/>
</a>
</g>
</g>
<!-- Node8 -->
<g id="Node000008" class="node">
<title>Node8</title>
<g id="a_Node000008"><a xlink:href="classinja_1_1ExpressionNode.html" target="_top" xlink:title=" ">
<polygon fill="white" stroke="transparent" points="265,-236 153,-236 153,-217 265,-217 265,-236"/>
<text text-anchor="start" x="157.5" y="-223.5" font-family="Helvetica,sans-Serif" font-size="10.00">inja::ExpressionNode</text>
<polygon fill="none" stroke="#666666" points="153,-217 153,-236 265,-236 265,-217 153,-217"/>
</a>
</g>
</g>
<!-- Node3&#45;&gt;Node8 -->
<g id="edge9_Node000008_Node000003" class="edge">
<title>Node3&#45;&gt;Node8</title>
<g id="a_edge9_Node000008_Node000003"><a xlink:title=" ">
<path fill="none" stroke="#63b8ff" d="M146.93,-267.4C162.34,-257.5 182.45,-244.57 195.54,-236.15"/>
<polygon fill="none" stroke="#63b8ff" points="145.02,-264.47 138.5,-272.82 148.8,-270.36 145.02,-264.47"/>
</a>
</g>
</g>
<!-- Node4 -->
<g id="Node000004" class="node">
<title>Node4</title>
<g id="a_Node000004"><a xlink:title=" ">
<polygon fill="white" stroke="transparent" points="336,-85 278,-85 278,-66 336,-66 336,-85"/>
<text text-anchor="start" x="282.5" y="-72.5" font-family="Helvetica,sans-Serif" font-size="10.00">std::string</text>
<polygon fill="none" stroke="#666666" points="278,-66 278,-85 336,-85 336,-66 278,-66"/>
</a>
</g>
</g>
<!-- Node4&#45;&gt;Node1 -->
<g id="edge3_Node000001_Node000004" class="edge">
<title>Node4&#45;&gt;Node1</title>
<g id="a_edge3_Node000001_Node000004"><a xlink:title=" ">
<path fill="none" stroke="#63b8ff" d="M291.8,-65.94C277.4,-57.98 255.04,-46.03 235,-37 224.26,-32.16 212.35,-27.38 201.49,-23.25"/>
<polygon fill="none" stroke="#63b8ff" points="201.47,-23.24 194.45,-24.89 190.22,-19.04 197.25,-17.39 201.47,-23.24"/>
</a>
</g>
<text text-anchor="middle" x="271.5" y="-40" font-family="Helvetica,sans-Serif" font-size="10.00" fill="grey"> +key</text>
</g>
<!-- Node5 -->
<g id="Node000005" class="node">
<title>Node5</title>
<g id="a_Node000005"><a xlink:title=" ">
<polygon fill="white" stroke="transparent" points="379,-162 283,-162 283,-132 379,-132 379,-162"/>
<text text-anchor="start" x="287" y="-150" font-family="Helvetica,sans-Serif" font-size="10.00">std::basic_string&lt;</text>
<text text-anchor="start" x="312.5" y="-139" font-family="Helvetica,sans-Serif" font-size="10.00"> Char &gt;</text>
<polygon fill="none" stroke="#666666" points="283,-132 283,-162 379,-162 379,-132 283,-132"/>
</a>
</g>
</g>
<!-- Node5&#45;&gt;Node4 -->
<g id="edge4_Node000004_Node000005" class="edge">
<title>Node5&#45;&gt;Node4</title>
<g id="a_edge4_Node000004_Node000005"><a xlink:title=" ">
<path fill="none" stroke="#63b8ff" d="M322.82,-122.32C318.41,-109.54 313.23,-94.53 310.03,-85.27"/>
<polygon fill="none" stroke="#63b8ff" points="319.57,-123.63 326.14,-131.94 326.19,-121.34 319.57,-123.63"/>
</a>
</g>
</g>
<!-- Node6&#45;&gt;Node1 -->
<g id="edge5_Node000001_Node000006" class="edge">
<title>Node6&#45;&gt;Node1</title>
<g id="a_edge5_Node000001_Node000006"><a xlink:title=" ">
<path fill="none" stroke="#63b8ff" d="M166,-65.87C166,-57.14 166,-43.31 166,-31.65"/>
<polygon fill="none" stroke="#63b8ff" points="166,-31.41 162,-25.41 166,-19.41 170,-25.41 166,-31.41"/>
</a>
</g>
<text text-anchor="middle" x="198.5" y="-40" font-family="Helvetica,sans-Serif" font-size="10.00" fill="grey"> +expression</text>
</g>
<!-- Node7 -->
<g id="Node000007" class="node">
<title>Node7</title>
<g id="a_Node000007"><a xlink:title=" ">
<polygon fill="white" stroke="transparent" points="265,-162 153,-162 153,-132 265,-132 265,-162"/>
<text text-anchor="start" x="157.5" y="-150" font-family="Helvetica,sans-Serif" font-size="10.00">std::shared_ptr&lt; inja</text>
<text text-anchor="start" x="160.5" y="-139" font-family="Helvetica,sans-Serif" font-size="10.00">::ExpressionNode &gt;</text>
<polygon fill="none" stroke="#666666" points="153,-132 153,-162 265,-162 265,-132 153,-132"/>
</a>
</g>
</g>
<!-- Node7&#45;&gt;Node6 -->
<g id="edge7_Node000006_Node000007" class="edge">
<title>Node7&#45;&gt;Node6</title>
<g id="a_edge7_Node000006_Node000007"><a xlink:title=" ">
<path fill="none" stroke="#63b8ff" d="M200.3,-131.94C193.82,-121.46 184.9,-107.05 177.79,-95.55"/>
<polygon fill="none" stroke="#63b8ff" points="177.74,-95.47 171.18,-92.47 171.42,-85.27 177.98,-88.26 177.74,-95.47"/>
</a>
</g>
<text text-anchor="middle" x="204.5" y="-106" font-family="Helvetica,sans-Serif" font-size="10.00" fill="grey"> +root</text>
</g>
<!-- Node8&#45;&gt;Node7 -->
<g id="edge8_Node000007_Node000008" class="edge">
<title>Node8&#45;&gt;Node7</title>
<g id="a_edge8_Node000007_Node000008"><a xlink:title=" ">
<path fill="none" stroke="#63b8ff" d="M209,-216.91C209,-206.67 209,-189.07 209,-174.22"/>
<polygon fill="none" stroke="#63b8ff" points="209,-174.14 205,-168.14 209,-162.14 213,-168.14 209,-174.14"/>
</a>
</g>
<text text-anchor="middle" x="221.5" y="-187" font-family="Helvetica,sans-Serif" font-size="10.00" fill="grey"> +ptr</text>
</g>
</g>
</svg>
</svg>

<style type='text/css'>
<![CDATA[
[data-mouse-over-selected='false'] { opacity: 0.7; }
[data-mouse-over-selected='true']  { opacity: 1.0; }
]]>
</style>
<script type="application/ecmascript"><![CDATA[
document.addEventListener('DOMContentLoaded', (event) => {
  highlightEdges();
  highlightAdjacentNodes();
});
]]></script>
</svg>
