<?xml version="1.0" encoding="UTF-8" standalone="no"?>
<!DOCTYPE svg PUBLIC "-//W3C//DTD SVG 1.1//EN"
 "http://www.w3.org/Graphics/SVG/1.1/DTD/svg11.dtd">
<!-- Generated by graphviz version 2.42.4 (0)
 -->
<!-- Title: mqtt::mqttintegrator::SocketContextFactory::create Pages: 1 -->
<svg width="1549pt" height="517pt"
 viewBox="0.00 0.00 1549.00 516.57" xmlns="http://www.w3.org/2000/svg" xmlns:xlink="http://www.w3.org/1999/xlink">
<g id="graph0" class="graph" transform="scale(1 1) rotate(0) translate(4 512.57)">
<title>mqtt::mqttintegrator::SocketContextFactory::create</title>
<!-- Node1 -->
<g id="Node000001" class="node">
<title>Node1</title>
<g id="a_Node000001"><a xlink:title=" ">
<polygon fill="#999999" stroke="#666666" points="129,-401.42 0,-401.42 0,-360.42 129,-360.42 129,-401.42"/>
<text text-anchor="start" x="8" y="-389.42" font-family="Helvetica,sans-Serif" font-size="10.00">mqtt::mqttintegrator</text>
<text text-anchor="start" x="8" y="-378.42" font-family="Helvetica,sans-Serif" font-size="10.00">::SocketContextFactory</text>
<text text-anchor="middle" x="64.5" y="-367.42" font-family="Helvetica,sans-Serif" font-size="10.00">::create</text>
</a>
</g>
</g>
<!-- Node2 -->
<g id="Node000002" class="node">
<title>Node2</title>
<g id="a_Node000002"><a xlink:href="classmqtt_1_1mqttintegrator_1_1lib_1_1Mqtt.html#ad8c0b5a8b1ecd0e2eb8e54a2d186a5ae" target="_top" xlink:title=" ">
<polygon fill="white" stroke="#666666" points="304,-431.92 187,-431.92 187,-401.92 304,-401.92 304,-431.92"/>
<text text-anchor="start" x="195" y="-419.92" font-family="Helvetica,sans-Serif" font-size="10.00">mqtt::mqttintegrator</text>
<text text-anchor="middle" x="245.5" y="-408.92" font-family="Helvetica,sans-Serif" font-size="10.00">::lib::Mqtt::Mqtt</text>
</a>
</g>
</g>
<!-- Node1&#45;&gt;Node2 -->
<g id="edge1_Node000001_Node000002" class="edge">
<title>Node1&#45;&gt;Node2</title>
<g id="a_edge1_Node000001_Node000002"><a xlink:title=" ">
<path fill="none" stroke="#63b8ff" d="M129.11,-393.71C144.53,-396.81 161.06,-400.14 176.66,-403.27"/>
<polygon fill="#63b8ff" stroke="#63b8ff" points="176.27,-406.76 186.76,-405.3 177.65,-399.9 176.27,-406.76"/>
</a>
</g>
</g>
<!-- Node10 -->
<g id="Node000010" class="node">
<title>Node10</title>
<g id="a_Node000010"><a xlink:href="classmqtt_1_1lib_1_1JsonMappingReader.html#a77231994bd3ef854feb2db79dd71746b" target="_top" xlink:title=" ">
<polygon fill="white" stroke="#666666" points="326,-371.92 165,-371.92 165,-341.92 326,-341.92 326,-371.92"/>
<text text-anchor="start" x="173" y="-359.92" font-family="Helvetica,sans-Serif" font-size="10.00">mqtt::lib::JsonMappingReader</text>
<text text-anchor="middle" x="245.5" y="-348.92" font-family="Helvetica,sans-Serif" font-size="10.00">::readMappingFromFile</text>
</a>
</g>
</g>
<!-- Node1&#45;&gt;Node10 -->
<g id="edge12_Node000001_Node000010" class="edge">
<title>Node1&#45;&gt;Node10</title>
<g id="a_edge12_Node000001_Node000010"><a xlink:title=" ">
<path fill="none" stroke="#63b8ff" d="M129.11,-372.39C137.42,-371.27 146.05,-370.12 154.69,-368.96"/>
<polygon fill="#63b8ff" stroke="#63b8ff" points="155.36,-372.4 164.8,-367.6 154.43,-365.46 155.36,-372.4"/>
</a>
</g>
</g>
<!-- Node3 -->
<g id="Node000003" class="node">
<title>Node3</title>
<g id="a_Node000003"><a xlink:href="classmqtt_1_1lib_1_1MqttMapper.html#ae244e3745588740bf513016cb0f06a74" target="_top" xlink:title=" ">
<polygon fill="white" stroke="#666666" points="491,-445.92 368,-445.92 368,-415.92 491,-415.92 491,-445.92"/>
<text text-anchor="start" x="376" y="-433.92" font-family="Helvetica,sans-Serif" font-size="10.00">mqtt::lib::MqttMapper</text>
<text text-anchor="middle" x="429.5" y="-422.92" font-family="Helvetica,sans-Serif" font-size="10.00">::MqttMapper</text>
</a>
</g>
</g>
<!-- Node2&#45;&gt;Node3 -->
<g id="edge2_Node000002_Node000003" class="edge">
<title>Node2&#45;&gt;Node3</title>
<g id="a_edge2_Node000002_Node000003"><a xlink:title=" ">
<path fill="none" stroke="#63b8ff" d="M304.09,-421.35C321.06,-422.65 339.84,-424.1 357.55,-425.46"/>
<polygon fill="#63b8ff" stroke="#63b8ff" points="357.59,-428.97 367.83,-426.25 358.13,-421.99 357.59,-428.97"/>
</a>
</g>
</g>
<!-- Node4 -->
<g id="Node000004" class="node">
<title>Node4</title>
<g id="a_Node000004"><a xlink:href="classinja_1_1Environment.html#aacf2afb515ec7efb0b844174093fed6d" target="_top" xlink:title="Adds a variadic callback.">
<polygon fill="white" stroke="#666666" points="655,-402.92 546,-402.92 546,-372.92 655,-372.92 655,-402.92"/>
<text text-anchor="start" x="554" y="-390.92" font-family="Helvetica,sans-Serif" font-size="10.00">inja::Environment::</text>
<text text-anchor="middle" x="600.5" y="-379.92" font-family="Helvetica,sans-Serif" font-size="10.00">add_callback</text>
</a>
</g>
</g>
<!-- Node3&#45;&gt;Node4 -->
<g id="edge3_Node000003_Node000004" class="edge">
<title>Node3&#45;&gt;Node4</title>
<g id="a_edge3_Node000003_Node000004"><a xlink:title=" ">
<path fill="none" stroke="#63b8ff" d="M489.61,-415.88C504.6,-412.06 520.77,-407.95 535.97,-404.08"/>
<polygon fill="#63b8ff" stroke="#63b8ff" points="536.97,-407.44 545.8,-401.58 535.24,-400.66 536.97,-407.44"/>
</a>
</g>
</g>
<!-- Node5 -->
<g id="Node000005" class="node">
<title>Node5</title>
<g id="a_Node000005"><a xlink:href="classinja_1_1Environment.html#accda3196054131f8e8cd484ef92c0627" target="_top" xlink:title="Adds a callback with given number or arguments.">
<polygon fill="white" stroke="#666666" points="836,-445.92 727,-445.92 727,-415.92 836,-415.92 836,-445.92"/>
<text text-anchor="start" x="735" y="-433.92" font-family="Helvetica,sans-Serif" font-size="10.00">inja::Environment::</text>
<text text-anchor="middle" x="781.5" y="-422.92" font-family="Helvetica,sans-Serif" font-size="10.00">add_callback</text>
</a>
</g>
</g>
<!-- Node3&#45;&gt;Node5 -->
<g id="edge7_Node000003_Node000005" class="edge">
<title>Node3&#45;&gt;Node5</title>
<g id="a_edge7_Node000003_Node000005"><a xlink:title=" ">
<path fill="none" stroke="#63b8ff" d="M491.07,-430.92C554.21,-430.92 652.75,-430.92 716.97,-430.92"/>
<polygon fill="#63b8ff" stroke="#63b8ff" points="716.98,-434.42 726.98,-430.92 716.98,-427.42 716.98,-434.42"/>
</a>
</g>
</g>
<!-- Node8 -->
<g id="Node000008" class="node">
<title>Node8</title>
<g id="a_Node000008"><a xlink:href="classinja_1_1Environment.html#abf3676db94a59534d715e83f4d5e4940" target="_top" xlink:title="Adds a variadic void callback.">
<polygon fill="white" stroke="#666666" points="655,-488.92 546,-488.92 546,-458.92 655,-458.92 655,-488.92"/>
<text text-anchor="start" x="554" y="-476.92" font-family="Helvetica,sans-Serif" font-size="10.00">inja::Environment::</text>
<text text-anchor="middle" x="600.5" y="-465.92" font-family="Helvetica,sans-Serif" font-size="10.00">add_void_callback</text>
</a>
</g>
</g>
<!-- Node3&#45;&gt;Node8 -->
<g id="edge8_Node000003_Node000008" class="edge">
<title>Node3&#45;&gt;Node8</title>
<g id="a_edge8_Node000003_Node000008"><a xlink:title=" ">
<path fill="none" stroke="#63b8ff" d="M489.61,-445.96C504.6,-449.77 520.77,-453.88 535.97,-457.75"/>
<polygon fill="#63b8ff" stroke="#63b8ff" points="535.24,-461.18 545.8,-460.25 536.97,-454.39 535.24,-461.18"/>
</a>
</g>
</g>
<!-- Node9 -->
<g id="Node000009" class="node">
<title>Node9</title>
<g id="a_Node000009"><a xlink:href="classinja_1_1Environment.html#a3467986ae633a7c546a62c387b6c613f" target="_top" xlink:title="Adds a void callback with given number or arguments.">
<polygon fill="white" stroke="#666666" points="836,-493.92 727,-493.92 727,-463.92 836,-463.92 836,-493.92"/>
<text text-anchor="start" x="735" y="-481.92" font-family="Helvetica,sans-Serif" font-size="10.00">inja::Environment::</text>
<text text-anchor="middle" x="781.5" y="-470.92" font-family="Helvetica,sans-Serif" font-size="10.00">add_void_callback</text>
</a>
</g>
</g>
<!-- Node3&#45;&gt;Node9 -->
<g id="edge11_Node000003_Node000009" class="edge">
<title>Node3&#45;&gt;Node9</title>
<g id="a_edge11_Node000003_Node000009"><a xlink:title=" ">
<path fill="none" stroke="#63b8ff" d="M447.06,-446.2C466.12,-462.66 499.18,-487.84 533,-497.92 593.6,-515.97 666.03,-507.09 716.83,-496.21"/>
<polygon fill="#63b8ff" stroke="#63b8ff" points="717.69,-499.61 726.69,-494.02 716.17,-492.78 717.69,-499.61"/>
</a>
</g>
</g>
<!-- Node4&#45;&gt;Node5 -->
<g id="edge4_Node000004_Node000005" class="edge">
<title>Node4&#45;&gt;Node5</title>
<g id="a_edge4_Node000004_Node000005"><a xlink:title=" ">
<path fill="none" stroke="#63b8ff" d="M655.21,-400.82C674.68,-405.5 696.85,-410.82 717.08,-415.68"/>
<polygon fill="#63b8ff" stroke="#63b8ff" points="716.29,-419.09 726.83,-418.02 717.93,-412.29 716.29,-419.09"/>
</a>
</g>
</g>
<!-- Node6 -->
<g id="Node000006" class="node">
<title>Node6</title>
<g id="a_Node000006"><a xlink:href="classinja_1_1FunctionStorage.html#ae6060e88dacd550e8b48992fd6f0500f" target="_top" xlink:title=" ">
<polygon fill="white" stroke="#666666" points="1022,-493.92 903,-493.92 903,-463.92 1022,-463.92 1022,-493.92"/>
<text text-anchor="start" x="911" y="-481.92" font-family="Helvetica,sans-Serif" font-size="10.00">inja::FunctionStorage</text>
<text text-anchor="middle" x="962.5" y="-470.92" font-family="Helvetica,sans-Serif" font-size="10.00">::add_callback</text>
</a>
</g>
</g>
<!-- Node5&#45;&gt;Node6 -->
<g id="edge5_Node000005_Node000006" class="edge">
<title>Node5&#45;&gt;Node6</title>
<g id="a_edge5_Node000005_Node000006"><a xlink:title=" ">
<path fill="none" stroke="#63b8ff" d="M836.21,-445.32C854.88,-450.33 876.05,-456 895.6,-461.24"/>
<polygon fill="#63b8ff" stroke="#63b8ff" points="894.78,-464.65 905.35,-463.86 896.59,-457.89 894.78,-464.65"/>
</a>
</g>
</g>
<!-- Node7 -->
<g id="Node000007" class="node">
<title>Node7</title>
<g id="a_Node000007"><a xlink:href="structinja_1_1FunctionStorage_1_1FunctionData.html#a7e038999d61d736eb2868f64e4820ad7" target="_top" xlink:title=" ">
<polygon fill="white" stroke="#666666" points="1224,-494.92 1066,-494.92 1066,-464.92 1224,-464.92 1224,-494.92"/>
<text text-anchor="start" x="1074" y="-482.92" font-family="Helvetica,sans-Serif" font-size="10.00">inja::FunctionStorage</text>
<text text-anchor="middle" x="1145" y="-471.92" font-family="Helvetica,sans-Serif" font-size="10.00">::FunctionData::FunctionData</text>
</a>
</g>
</g>
<!-- Node6&#45;&gt;Node7 -->
<g id="edge6_Node000006_Node000007" class="edge">
<title>Node6&#45;&gt;Node7</title>
<g id="a_edge6_Node000006_Node000007"><a xlink:title=" ">
<path fill="none" stroke="#63b8ff" d="M1022.1,-479.24C1032.93,-479.3 1044.45,-479.37 1055.93,-479.43"/>
<polygon fill="#63b8ff" stroke="#63b8ff" points="1055.97,-482.93 1065.99,-479.48 1056.01,-475.93 1055.97,-482.93"/>
</a>
</g>
</g>
<!-- Node8&#45;&gt;Node9 -->
<g id="edge9_Node000008_Node000009" class="edge">
<title>Node8&#45;&gt;Node9</title>
<g id="a_edge9_Node000008_Node000009"><a xlink:title=" ">
<path fill="none" stroke="#63b8ff" d="M655.21,-475.42C674.59,-475.96 696.65,-476.57 716.8,-477.14"/>
<polygon fill="#63b8ff" stroke="#63b8ff" points="716.74,-480.64 726.83,-477.42 716.93,-473.64 716.74,-480.64"/>
</a>
</g>
</g>
<!-- Node9&#45;&gt;Node6 -->
<g id="edge10_Node000009_Node000006" class="edge">
<title>Node9&#45;&gt;Node6</title>
<g id="a_edge10_Node000009_Node000006"><a xlink:title=" ">
<path fill="none" stroke="#63b8ff" d="M836.21,-478.92C853.93,-478.92 873.9,-478.92 892.6,-478.92"/>
<polygon fill="#63b8ff" stroke="#63b8ff" points="892.83,-482.42 902.83,-478.92 892.83,-475.42 892.83,-482.42"/>
</a>
</g>
</g>
<!-- Node11 -->
<g id="Node000011" class="node">
<title>Node11</title>
<g id="a_Node000011"><a xlink:href="classnlohmann_1_1json__schema_1_1json__validator.html#ad8f46dfed69afe463732ae335879dabb" target="_top" xlink:title=" ">
<polygon fill="white" stroke="#666666" points="497,-353.42 362,-353.42 362,-312.42 497,-312.42 497,-353.42"/>
<text text-anchor="start" x="370" y="-341.42" font-family="Helvetica,sans-Serif" font-size="10.00">nlohmann::json_schema</text>
<text text-anchor="start" x="370" y="-330.42" font-family="Helvetica,sans-Serif" font-size="10.00">::json_validator::json</text>
<text text-anchor="middle" x="429.5" y="-319.42" font-family="Helvetica,sans-Serif" font-size="10.00">_validator</text>
</a>
</g>
</g>
<!-- Node10&#45;&gt;Node11 -->
<g id="edge13_Node000010_Node000011" class="edge">
<title>Node10&#45;&gt;Node11</title>
<g id="a_edge13_Node000010_Node000011"><a xlink:title=" ">
<path fill="none" stroke="#63b8ff" d="M326.06,-346.43C334.66,-345.29 343.39,-344.14 351.95,-343.01"/>
<polygon fill="#63b8ff" stroke="#63b8ff" points="352.44,-346.48 361.89,-341.7 351.52,-339.54 352.44,-346.48"/>
</a>
</g>
</g>
<!-- Node12 -->
<g id="Node000012" class="node">
<title>Node12</title>
<g id="a_Node000012"><a xlink:href="classnlohmann_1_1json__schema_1_1json__validator.html#aa0aea93f3507f78008cba94fb7e81799" target="_top" xlink:title=" ">
<polygon fill="white" stroke="#666666" points="668,-353.42 533,-353.42 533,-312.42 668,-312.42 668,-353.42"/>
<text text-anchor="start" x="541" y="-341.42" font-family="Helvetica,sans-Serif" font-size="10.00">nlohmann::json_schema</text>
<text text-anchor="start" x="541" y="-330.42" font-family="Helvetica,sans-Serif" font-size="10.00">::json_validator::json</text>
<text text-anchor="middle" x="600.5" y="-319.42" font-family="Helvetica,sans-Serif" font-size="10.00">_validator</text>
</a>
</g>
</g>
<!-- Node11&#45;&gt;Node12 -->
<g id="edge14_Node000011_Node000012" class="edge">
<title>Node11&#45;&gt;Node12</title>
<g id="a_edge14_Node000011_Node000012"><a xlink:title=" ">
<path fill="none" stroke="#63b8ff" d="M497.29,-332.92C505.62,-332.92 514.19,-332.92 522.66,-332.92"/>
<polygon fill="#63b8ff" stroke="#63b8ff" points="522.92,-336.42 532.92,-332.92 522.92,-329.42 522.92,-336.42"/>
</a>
</g>
</g>
<!-- Node14 -->
<g id="Node000014" class="node">
<title>Node14</title>
<g id="a_Node000014"><a xlink:href="classnlohmann_1_1json__schema_1_1json__validator.html#a13e1d3029c8953bb9c7d1879382edb03" target="_top" xlink:title=" ">
<polygon fill="white" stroke="#666666" points="668,-292.42 533,-292.42 533,-251.42 668,-251.42 668,-292.42"/>
<text text-anchor="start" x="541" y="-280.42" font-family="Helvetica,sans-Serif" font-size="10.00">nlohmann::json_schema</text>
<text text-anchor="start" x="541" y="-269.42" font-family="Helvetica,sans-Serif" font-size="10.00">::json_validator::set</text>
<text text-anchor="middle" x="600.5" y="-258.42" font-family="Helvetica,sans-Serif" font-size="10.00">_root_schema</text>
</a>
</g>
</g>
<!-- Node11&#45;&gt;Node14 -->
<g id="edge16_Node000011_Node000014" class="edge">
<title>Node11&#45;&gt;Node14</title>
<g id="a_edge16_Node000011_Node000014"><a xlink:title=" ">
<path fill="none" stroke="#63b8ff" d="M487.72,-312.27C502.25,-307.02 517.99,-301.34 532.94,-295.94"/>
<polygon fill="#63b8ff" stroke="#63b8ff" points="534.41,-299.13 542.63,-292.44 532.04,-292.55 534.41,-299.13"/>
</a>
</g>
</g>
<!-- Node13 -->
<g id="Node000013" class="node">
<title>Node13</title>
<g id="a_Node000013"><a xlink:href="classnlohmann_1_1json__schema_1_1root__schema.html#a704eaa54aca1f78a311687562421829f" target="_top" xlink:title=" ">
<polygon fill="white" stroke="#666666" points="859,-347.92 704,-347.92 704,-317.92 859,-317.92 859,-347.92"/>
<text text-anchor="start" x="712" y="-335.92" font-family="Helvetica,sans-Serif" font-size="10.00">nlohmann::json_schema</text>
<text text-anchor="middle" x="781.5" y="-324.92" font-family="Helvetica,sans-Serif" font-size="10.00">::root_schema::root_schema</text>
</a>
</g>
</g>
<!-- Node12&#45;&gt;Node13 -->
<g id="edge15_Node000012_Node000013" class="edge">
<title>Node12&#45;&gt;Node13</title>
<g id="a_edge15_Node000012_Node000013"><a xlink:title=" ">
<path fill="none" stroke="#63b8ff" d="M668.15,-332.92C676.51,-332.92 685.16,-332.92 693.77,-332.92"/>
<polygon fill="#63b8ff" stroke="#63b8ff" points="693.84,-336.42 703.84,-332.92 693.84,-329.42 693.84,-336.42"/>
</a>
</g>
</g>
<!-- Node15 -->
<g id="Node000015" class="node">
<title>Node15</title>
<g id="a_Node000015"><a xlink:href="classnlohmann_1_1json__schema_1_1root__schema.html#aa92bf9509db49548416a244fb4528e3c" target="_top" xlink:title=" ">
<polygon fill="white" stroke="#666666" points="849,-289.42 714,-289.42 714,-248.42 849,-248.42 849,-289.42"/>
<text text-anchor="start" x="722" y="-277.42" font-family="Helvetica,sans-Serif" font-size="10.00">nlohmann::json_schema</text>
<text text-anchor="start" x="722" y="-266.42" font-family="Helvetica,sans-Serif" font-size="10.00">::root_schema::set_root</text>
<text text-anchor="middle" x="781.5" y="-255.42" font-family="Helvetica,sans-Serif" font-size="10.00">_schema</text>
</a>
</g>
</g>
<!-- Node14&#45;&gt;Node15 -->
<g id="edge17_Node000014_Node000015" class="edge">
<title>Node14&#45;&gt;Node15</title>
<g id="a_edge17_Node000014_Node000015"><a xlink:title=" ">
<path fill="none" stroke="#63b8ff" d="M668.15,-270.8C679.68,-270.61 691.76,-270.4 703.54,-270.21"/>
<polygon fill="#63b8ff" stroke="#63b8ff" points="703.85,-273.7 713.79,-270.04 703.73,-266.7 703.85,-273.7"/>
</a>
</g>
</g>
<!-- Node16 -->
<g id="Node000016" class="node">
<title>Node16</title>
<g id="a_Node000016"><a xlink:href="classanonymous__namespace_02json-validator_8cpp_03_1_1schema.html#aafee860997369c77204d5b1a7d095c3f" target="_top" xlink:title=" ">
<polygon fill="white" stroke="#666666" points="1030,-283.42 895,-283.42 895,-242.42 1030,-242.42 1030,-283.42"/>
<text text-anchor="start" x="903" y="-271.42" font-family="Helvetica,sans-Serif" font-size="10.00">anonymous_namespace</text>
<text text-anchor="start" x="903" y="-260.42" font-family="Helvetica,sans-Serif" font-size="10.00">{json&#45;validator::cpp}</text>
<text text-anchor="middle" x="962.5" y="-249.42" font-family="Helvetica,sans-Serif" font-size="10.00">::schema::make</text>
</a>
</g>
</g>
<!-- Node15&#45;&gt;Node16 -->
<g id="edge18_Node000015_Node000016" class="edge">
<title>Node15&#45;&gt;Node16</title>
<g id="a_edge18_Node000015_Node000016"><a xlink:title=" ">
<path fill="none" stroke="#63b8ff" d="M849.15,-266.68C860.68,-266.3 872.76,-265.89 884.54,-265.5"/>
<polygon fill="#63b8ff" stroke="#63b8ff" points="884.91,-268.99 894.79,-265.15 884.68,-261.99 884.91,-268.99"/>
</a>
</g>
</g>
<!-- Node16&#45;&gt;Node16 -->
<g id="edge43_Node000016_Node000016" class="edge">
<title>Node16&#45;&gt;Node16</title>
<g id="a_edge43_Node000016_Node000016"><a xlink:title=" ">
<path fill="none" stroke="#63b8ff" d="M929.42,-283.51C925.81,-293.07 936.84,-301.42 962.5,-301.42 978.54,-301.42 988.86,-298.16 993.47,-293.38"/>
<polygon fill="#63b8ff" stroke="#63b8ff" points="996.91,-294.03 995.58,-283.51 990.06,-292.56 996.91,-294.03"/>
</a>
</g>
</g>
<!-- Node17 -->
<g id="Node000017" class="node">
<title>Node17</title>
<g id="a_Node000017"><a xlink:href="classnlohmann_1_1json__uri.html#acef9db8f1ac5317e1f124453d9587938" target="_top" xlink:title=" ">
<polygon fill="white" stroke="#666666" points="1382.5,-398.92 1272.5,-398.92 1272.5,-368.92 1382.5,-368.92 1382.5,-398.92"/>
<text text-anchor="start" x="1280.5" y="-386.92" font-family="Helvetica,sans-Serif" font-size="10.00">nlohmann::json_uri</text>
<text text-anchor="middle" x="1327.5" y="-375.92" font-family="Helvetica,sans-Serif" font-size="10.00">::append</text>
</a>
</g>
</g>
<!-- Node16&#45;&gt;Node17 -->
<g id="edge19_Node000016_Node000017" class="edge">
<title>Node16&#45;&gt;Node17</title>
<g id="a_edge19_Node000016_Node000017"><a xlink:title=" ">
<path fill="none" stroke="#63b8ff" d="M976.08,-283.51C992.96,-309.02 1025.55,-351.35 1066,-369.92 1128.07,-398.4 1207.39,-398.19 1262.11,-393.2"/>
<polygon fill="#63b8ff" stroke="#63b8ff" points="1262.77,-396.65 1272.37,-392.18 1262.08,-389.69 1262.77,-396.65"/>
</a>
</g>
</g>
<!-- Node18 -->
<g id="Node000018" class="node">
<title>Node18</title>
<g id="a_Node000018"><a xlink:href="classnlohmann_1_1json__uri.html#ab601a9e32d487e9484f12c57ec1befc1" target="_top" xlink:title=" ">
<polygon fill="white" stroke="#666666" points="1200,-446.92 1090,-446.92 1090,-416.92 1200,-416.92 1200,-446.92"/>
<text text-anchor="start" x="1098" y="-434.92" font-family="Helvetica,sans-Serif" font-size="10.00">nlohmann::json_uri</text>
<text text-anchor="middle" x="1145" y="-423.92" font-family="Helvetica,sans-Serif" font-size="10.00">::derive</text>
</a>
</g>
</g>
<!-- Node16&#45;&gt;Node18 -->
<g id="edge20_Node000016_Node000018" class="edge">
<title>Node16&#45;&gt;Node18</title>
<g id="a_edge20_Node000016_Node000018"><a xlink:title=" ">
<path fill="none" stroke="#63b8ff" d="M973.54,-283.46C989.28,-313.66 1022.51,-370.03 1066,-402.92 1070.72,-406.49 1075.94,-409.66 1081.36,-412.47"/>
<polygon fill="#63b8ff" stroke="#63b8ff" points="1080.1,-415.74 1090.63,-416.86 1083.09,-409.42 1080.1,-415.74"/>
</a>
</g>
</g>
<!-- Node20 -->
<g id="Node000020" class="node">
<title>Node20</title>
<g id="a_Node000020"><a xlink:href="classnlohmann_1_1json__schema_1_1root__schema.html#a7e890c03f941280b76fbdb4d5bb73065" target="_top" xlink:title=" ">
<polygon fill="white" stroke="#666666" points="1212.5,-224.42 1077.5,-224.42 1077.5,-183.42 1212.5,-183.42 1212.5,-224.42"/>
<text text-anchor="start" x="1085.5" y="-212.42" font-family="Helvetica,sans-Serif" font-size="10.00">nlohmann::json_schema</text>
<text text-anchor="start" x="1085.5" y="-201.42" font-family="Helvetica,sans-Serif" font-size="10.00">::root_schema::get_or</text>
<text text-anchor="middle" x="1145" y="-190.42" font-family="Helvetica,sans-Serif" font-size="10.00">_create_ref</text>
</a>
</g>
</g>
<!-- Node16&#45;&gt;Node20 -->
<g id="edge22_Node000016_Node000020" class="edge">
<title>Node16&#45;&gt;Node20</title>
<g id="a_edge22_Node000016_Node000020"><a xlink:title=" ">
<path fill="none" stroke="#63b8ff" d="M1008.58,-242.25C1026.44,-235.71 1047.48,-228.58 1067.57,-222.22"/>
<polygon fill="#63b8ff" stroke="#63b8ff" points="1068.85,-225.49 1077.35,-219.16 1066.76,-218.81 1068.85,-225.49"/>
</a>
</g>
</g>
<!-- Node25 -->
<g id="Node000025" class="node">
<title>Node25</title>
<g id="a_Node000025"><a xlink:href="classnlohmann_1_1json__uri.html#a416eb06b53676b215761f43200da309f" target="_top" xlink:title=" ">
<polygon fill="white" stroke="#666666" points="1382.5,-57.92 1272.5,-57.92 1272.5,-27.92 1382.5,-27.92 1382.5,-57.92"/>
<text text-anchor="start" x="1280.5" y="-45.92" font-family="Helvetica,sans-Serif" font-size="10.00">nlohmann::json_uri</text>
<text text-anchor="middle" x="1327.5" y="-34.92" font-family="Helvetica,sans-Serif" font-size="10.00">::to_string</text>
</a>
</g>
</g>
<!-- Node16&#45;&gt;Node25 -->
<g id="edge45_Node000016_Node000025" class="edge">
<title>Node16&#45;&gt;Node25</title>
<g id="a_edge45_Node000016_Node000025"><a xlink:title=" ">
<path fill="none" stroke="#63b8ff" d="M970.32,-242.31C983.11,-207.01 1014.2,-135.28 1066,-98.92 1123.92,-58.26 1205.64,-46.2 1262.03,-43.07"/>
<polygon fill="#63b8ff" stroke="#63b8ff" points="1262.43,-46.56 1272.26,-42.59 1262.1,-39.57 1262.43,-46.56"/>
</a>
</g>
</g>
<!-- Node26 -->
<g id="Node000026" class="node">
<title>Node26</title>
<g id="a_Node000026"><a xlink:href="classnlohmann_1_1json__schema_1_1root__schema.html#a685904131f0693e56f14a9e9db5f044e" target="_top" xlink:title=" ">
<polygon fill="white" stroke="#666666" points="1212.5,-137.92 1077.5,-137.92 1077.5,-107.92 1212.5,-107.92 1212.5,-137.92"/>
<text text-anchor="start" x="1085.5" y="-125.92" font-family="Helvetica,sans-Serif" font-size="10.00">nlohmann::json_schema</text>
<text text-anchor="middle" x="1145" y="-114.92" font-family="Helvetica,sans-Serif" font-size="10.00">::root_schema::insert</text>
</a>
</g>
</g>
<!-- Node16&#45;&gt;Node26 -->
<g id="edge30_Node000016_Node000026" class="edge">
<title>Node16&#45;&gt;Node26</title>
<g id="a_edge30_Node000016_Node000026"><a xlink:title=" ">
<path fill="none" stroke="#63b8ff" d="M986.04,-242.17C1006.38,-223.8 1037.41,-196.6 1066,-174.92 1080.39,-164.01 1096.96,-152.78 1111.12,-143.57"/>
<polygon fill="#63b8ff" stroke="#63b8ff" points="1113.07,-146.47 1119.58,-138.11 1109.28,-140.59 1113.07,-146.47"/>
</a>
</g>
</g>
<!-- Node28 -->
<g id="Node000028" class="node">
<title>Node28</title>
<g id="a_Node000028"><a xlink:href="classnlohmann_1_1json__schema_1_1root__schema.html#a4c543fe7b89e76b3fdd17a6883696238" target="_top" xlink:title=" ">
<polygon fill="white" stroke="#666666" points="1212.5,-283.42 1077.5,-283.42 1077.5,-242.42 1212.5,-242.42 1212.5,-283.42"/>
<text text-anchor="start" x="1085.5" y="-271.42" font-family="Helvetica,sans-Serif" font-size="10.00">nlohmann::json_schema</text>
<text text-anchor="start" x="1085.5" y="-260.42" font-family="Helvetica,sans-Serif" font-size="10.00">::root_schema::insert</text>
<text text-anchor="middle" x="1145" y="-249.42" font-family="Helvetica,sans-Serif" font-size="10.00">_unknown_keyword</text>
</a>
</g>
</g>
<!-- Node16&#45;&gt;Node28 -->
<g id="edge36_Node000016_Node000028" class="edge">
<title>Node16&#45;&gt;Node28</title>
<g id="a_edge36_Node000016_Node000028"><a xlink:title=" ">
<path fill="none" stroke="#63b8ff" d="M1030.2,-256.38C1042.2,-256.16 1054.8,-256.11 1067.07,-256.23"/>
<polygon fill="#63b8ff" stroke="#63b8ff" points="1067.23,-259.74 1077.27,-256.38 1067.32,-252.74 1067.23,-259.74"/>
</a>
</g>
</g>
<!-- Node29 -->
<g id="Node000029" class="node">
<title>Node29</title>
<g id="a_Node000029"><a xlink:href="classanonymous__namespace_02json-validator_8cpp_03_1_1schema.html#a6ba2d224dd0a4372ac03f679de8316bd" target="_top" xlink:title=" ">
<polygon fill="white" stroke="#666666" points="1224,-360.42 1066,-360.42 1066,-319.42 1224,-319.42 1224,-360.42"/>
<text text-anchor="start" x="1074" y="-348.42" font-family="Helvetica,sans-Serif" font-size="10.00">anonymous_namespace</text>
<text text-anchor="start" x="1074" y="-337.42" font-family="Helvetica,sans-Serif" font-size="10.00">{json&#45;validator::cpp}</text>
<text text-anchor="middle" x="1145" y="-326.42" font-family="Helvetica,sans-Serif" font-size="10.00">::schema::make_for_default_</text>
</a>
</g>
</g>
<!-- Node16&#45;&gt;Node29 -->
<g id="edge44_Node000016_Node000029" class="edge">
<title>Node16&#45;&gt;Node29</title>
<g id="a_edge44_Node000016_Node000029"><a xlink:title=" ">
<path fill="none" stroke="#63b8ff" d="M1005.54,-283.55C1023.94,-292.34 1045.88,-302.48 1066,-310.92 1069.82,-312.52 1073.77,-314.13 1077.76,-315.72"/>
<polygon fill="#63b8ff" stroke="#63b8ff" points="1076.54,-319 1087.13,-319.39 1079.09,-312.48 1076.54,-319"/>
</a>
</g>
</g>
<!-- Node19 -->
<g id="Node000019" class="node">
<title>Node19</title>
<g id="a_Node000019"><a xlink:href="classnlohmann_1_1json__uri.html#a6a73807e46532b22e02ae6602cdedcdc" target="_top" xlink:title=" ">
<polygon fill="white" stroke="#666666" points="1382.5,-446.92 1272.5,-446.92 1272.5,-416.92 1382.5,-416.92 1382.5,-446.92"/>
<text text-anchor="start" x="1280.5" y="-434.92" font-family="Helvetica,sans-Serif" font-size="10.00">nlohmann::json_uri</text>
<text text-anchor="middle" x="1327.5" y="-423.92" font-family="Helvetica,sans-Serif" font-size="10.00">::update</text>
</a>
</g>
</g>
<!-- Node18&#45;&gt;Node19 -->
<g id="edge21_Node000018_Node000019" class="edge">
<title>Node18&#45;&gt;Node19</title>
<g id="a_edge21_Node000018_Node000019"><a xlink:title=" ">
<path fill="none" stroke="#63b8ff" d="M1200.16,-431.92C1219.7,-431.92 1241.95,-431.92 1262.27,-431.92"/>
<polygon fill="#63b8ff" stroke="#63b8ff" points="1262.38,-435.42 1272.38,-431.92 1262.38,-428.42 1262.38,-435.42"/>
</a>
</g>
</g>
<!-- Node20&#45;&gt;Node16 -->
<g id="edge26_Node000020_Node000016" class="edge">
<title>Node20&#45;&gt;Node16</title>
<g id="a_edge26_Node000020_Node000016"><a xlink:title=" ">
<path fill="none" stroke="#63b8ff" d="M1099.21,-224.48C1081.32,-231.04 1060.19,-238.2 1040.01,-244.59"/>
<polygon fill="#63b8ff" stroke="#63b8ff" points="1038.7,-241.33 1030.2,-247.66 1040.79,-248.01 1038.7,-241.33"/>
</a>
</g>
</g>
<!-- Node21 -->
<g id="Node000021" class="node">
<title>Node21</title>
<g id="a_Node000021"><a xlink:href="classnlohmann_1_1json__uri.html#a21ba5d6a76804eabd867a2d03370c945" target="_top" xlink:title=" ">
<polygon fill="white" stroke="#666666" points="1382.5,-165.92 1272.5,-165.92 1272.5,-135.92 1382.5,-135.92 1382.5,-165.92"/>
<text text-anchor="start" x="1280.5" y="-153.92" font-family="Helvetica,sans-Serif" font-size="10.00">nlohmann::json_uri</text>
<text text-anchor="middle" x="1327.5" y="-142.92" font-family="Helvetica,sans-Serif" font-size="10.00">::fragment</text>
</a>
</g>
</g>
<!-- Node20&#45;&gt;Node21 -->
<g id="edge23_Node000020_Node000021" class="edge">
<title>Node20&#45;&gt;Node21</title>
<g id="a_edge23_Node000020_Node000021"><a xlink:title=" ">
<path fill="none" stroke="#63b8ff" d="M1212.7,-184.33C1229.99,-179.25 1248.53,-173.81 1265.51,-168.83"/>
<polygon fill="#63b8ff" stroke="#63b8ff" points="1266.7,-172.12 1275.31,-165.95 1264.73,-165.41 1266.7,-172.12"/>
</a>
</g>
</g>
<!-- Node22 -->
<g id="Node000022" class="node">
<title>Node22</title>
<g id="a_Node000022"><a xlink:href="classnlohmann_1_1json__schema_1_1root__schema.html#a4e3471b8e7c245a72c469b7695d2d327" target="_top" xlink:title=" ">
<polygon fill="white" stroke="#666666" points="1395,-225.42 1260,-225.42 1260,-184.42 1395,-184.42 1395,-225.42"/>
<text text-anchor="start" x="1268" y="-213.42" font-family="Helvetica,sans-Serif" font-size="10.00">nlohmann::json_schema</text>
<text text-anchor="start" x="1268" y="-202.42" font-family="Helvetica,sans-Serif" font-size="10.00">::root_schema::get_or</text>
<text text-anchor="middle" x="1327.5" y="-191.42" font-family="Helvetica,sans-Serif" font-size="10.00">_create_file</text>
</a>
</g>
</g>
<!-- Node20&#45;&gt;Node22 -->
<g id="edge24_Node000020_Node000022" class="edge">
<title>Node20&#45;&gt;Node22</title>
<g id="a_edge24_Node000020_Node000022"><a xlink:title=" ">
<path fill="none" stroke="#63b8ff" d="M1212.7,-204.29C1224.7,-204.35 1237.3,-204.42 1249.57,-204.49"/>
<polygon fill="#63b8ff" stroke="#63b8ff" points="1249.75,-207.99 1259.77,-204.55 1249.79,-200.99 1249.75,-207.99"/>
</a>
</g>
</g>
<!-- Node23 -->
<g id="Node000023" class="node">
<title>Node23</title>
<g id="a_Node000023"><a xlink:href="classnlohmann_1_1json__uri.html#a63674f908919cb2496e772e864be35de" target="_top" xlink:title=" ">
<polygon fill="white" stroke="#666666" points="1541,-162.92 1431,-162.92 1431,-132.92 1541,-132.92 1541,-162.92"/>
<text text-anchor="start" x="1439" y="-150.92" font-family="Helvetica,sans-Serif" font-size="10.00">nlohmann::json_uri</text>
<text text-anchor="middle" x="1486" y="-139.92" font-family="Helvetica,sans-Serif" font-size="10.00">::location</text>
</a>
</g>
</g>
<!-- Node20&#45;&gt;Node23 -->
<g id="edge25_Node000020_Node000023" class="edge">
<title>Node20&#45;&gt;Node23</title>
<g id="a_edge25_Node000020_Node000023"><a xlink:title=" ">
<path fill="none" stroke="#63b8ff" d="M1197.04,-224.58C1248.76,-242.29 1330.18,-261.13 1395,-234.92 1426.52,-222.17 1453.13,-192.51 1469.05,-171.37"/>
<polygon fill="#63b8ff" stroke="#63b8ff" points="1471.96,-173.33 1475.01,-163.19 1466.3,-169.21 1471.96,-173.33"/>
</a>
</g>
</g>
<!-- Node24 -->
<g id="Node000024" class="node">
<title>Node24</title>
<g id="a_Node000024"><a xlink:href="classnlohmann_1_1json__uri.html#ab01bdcb8bf65ee07703d1ccb69c9f3ee" target="_top" xlink:title=" ">
<polygon fill="white" stroke="#666666" points="1382.5,-311.92 1272.5,-311.92 1272.5,-281.92 1382.5,-281.92 1382.5,-311.92"/>
<text text-anchor="start" x="1280.5" y="-299.92" font-family="Helvetica,sans-Serif" font-size="10.00">nlohmann::json_uri</text>
<text text-anchor="middle" x="1327.5" y="-288.92" font-family="Helvetica,sans-Serif" font-size="10.00">::pointer</text>
</a>
</g>
</g>
<!-- Node20&#45;&gt;Node24 -->
<g id="edge27_Node000020_Node000024" class="edge">
<title>Node20&#45;&gt;Node24</title>
<g id="a_edge27_Node000020_Node000024"><a xlink:title=" ">
<path fill="none" stroke="#63b8ff" d="M1206.77,-224.56C1212.75,-227.4 1218.6,-230.52 1224,-233.92 1242.62,-245.64 1241.64,-255.78 1260,-267.92 1265.24,-271.38 1270.96,-274.6 1276.78,-277.53"/>
<polygon fill="#63b8ff" stroke="#63b8ff" points="1275.41,-280.75 1285.95,-281.9 1278.43,-274.43 1275.41,-280.75"/>
</a>
</g>
</g>
<!-- Node20&#45;&gt;Node25 -->
<g id="edge28_Node000020_Node000025" class="edge">
<title>Node20&#45;&gt;Node25</title>
<g id="a_edge28_Node000020_Node000025"><a xlink:title=" ">
<path fill="none" stroke="#63b8ff" d="M1182.23,-183.16C1196.64,-173.56 1212.49,-161.12 1224,-146.92 1248.56,-116.63 1231.4,-93.41 1260,-66.92 1261.27,-65.74 1262.6,-64.62 1263.98,-63.56"/>
<polygon fill="#63b8ff" stroke="#63b8ff" points="1265.95,-66.45 1272.38,-58.03 1262.1,-60.6 1265.95,-66.45"/>
</a>
</g>
</g>
<!-- Node25&#45;&gt;Node23 -->
<g id="edge29_Node000025_Node000023" class="edge">
<title>Node25&#45;&gt;Node23</title>
<g id="a_edge29_Node000025_Node000023"><a xlink:title=" ">
<path fill="none" stroke="#63b8ff" d="M1377.1,-57.95C1383.3,-60.59 1389.42,-63.57 1395,-66.92 1421.59,-82.84 1447.4,-107.28 1464.51,-125.16"/>
<polygon fill="#63b8ff" stroke="#63b8ff" points="1462.34,-127.96 1471.73,-132.85 1467.44,-123.16 1462.34,-127.96"/>
</a>
</g>
</g>
<!-- Node26&#45;&gt;Node21 -->
<g id="edge31_Node000026_Node000021" class="edge">
<title>Node26&#45;&gt;Node21</title>
<g id="a_edge31_Node000026_Node000021"><a xlink:title=" ">
<path fill="none" stroke="#63b8ff" d="M1212.7,-133.26C1229,-135.79 1246.4,-138.49 1262.57,-141"/>
<polygon fill="#63b8ff" stroke="#63b8ff" points="1262.04,-144.46 1272.45,-142.53 1263.11,-137.54 1262.04,-144.46"/>
</a>
</g>
</g>
<!-- Node26&#45;&gt;Node22 -->
<g id="edge32_Node000026_Node000022" class="edge">
<title>Node26&#45;&gt;Node22</title>
<g id="a_edge32_Node000026_Node000022"><a xlink:title=" ">
<path fill="none" stroke="#63b8ff" d="M1178.91,-137.97C1201.67,-148.37 1232.66,-162.52 1260,-174.92 1263.76,-176.62 1267.65,-178.38 1271.56,-180.15"/>
<polygon fill="#63b8ff" stroke="#63b8ff" points="1270.15,-183.36 1280.7,-184.29 1273.03,-176.98 1270.15,-183.36"/>
</a>
</g>
</g>
<!-- Node26&#45;&gt;Node23 -->
<g id="edge33_Node000026_Node000023" class="edge">
<title>Node26&#45;&gt;Node23</title>
<g id="a_edge33_Node000026_Node000023"><a xlink:title=" ">
<path fill="none" stroke="#63b8ff" d="M1156.49,-107.88C1174.41,-83.67 1213.54,-36.93 1260,-18.92 1315.94,2.77 1341.8,8.83 1395,-18.92 1436.98,-40.82 1463.38,-92.23 1476.05,-123.13"/>
<polygon fill="#63b8ff" stroke="#63b8ff" points="1472.91,-124.72 1479.82,-132.75 1479.43,-122.17 1472.91,-124.72"/>
</a>
</g>
</g>
<!-- Node26&#45;&gt;Node25 -->
<g id="edge35_Node000026_Node000025" class="edge">
<title>Node26&#45;&gt;Node25</title>
<g id="a_edge35_Node000026_Node000025"><a xlink:title=" ">
<path fill="none" stroke="#63b8ff" d="M1183.39,-107.86C1196.42,-102.28 1211.03,-95.67 1224,-88.92 1240.63,-80.26 1243.09,-75.03 1260,-66.92 1263.73,-65.12 1267.64,-63.39 1271.61,-61.72"/>
<polygon fill="#63b8ff" stroke="#63b8ff" points="1272.95,-64.96 1280.92,-57.98 1270.34,-58.46 1272.95,-64.96"/>
</a>
</g>
</g>
<!-- Node27 -->
<g id="Node000027" class="node">
<title>Node27</title>
<g id="a_Node000027"><a xlink:href="classanonymous__namespace_02json-validator_8cpp_03_1_1schema__ref.html#ae191a0c47357ebad5942fbab77135375" target="_top" xlink:title=" ">
<polygon fill="white" stroke="#666666" points="1395,-117.42 1260,-117.42 1260,-76.42 1395,-76.42 1395,-117.42"/>
<text text-anchor="start" x="1268" y="-105.42" font-family="Helvetica,sans-Serif" font-size="10.00">anonymous_namespace</text>
<text text-anchor="start" x="1268" y="-94.42" font-family="Helvetica,sans-Serif" font-size="10.00">{json&#45;validator::cpp}</text>
<text text-anchor="middle" x="1327.5" y="-83.42" font-family="Helvetica,sans-Serif" font-size="10.00">::schema_ref::set_target</text>
</a>
</g>
</g>
<!-- Node26&#45;&gt;Node27 -->
<g id="edge34_Node000026_Node000027" class="edge">
<title>Node26&#45;&gt;Node27</title>
<g id="a_edge34_Node000026_Node000027"><a xlink:title=" ">
<path fill="none" stroke="#63b8ff" d="M1212.7,-113.31C1224.7,-111.58 1237.3,-109.77 1249.57,-108"/>
<polygon fill="#63b8ff" stroke="#63b8ff" points="1250.38,-111.42 1259.77,-106.53 1249.38,-104.49 1250.38,-111.42"/>
</a>
</g>
</g>
<!-- Node28&#45;&gt;Node16 -->
<g id="edge41_Node000028_Node000016" class="edge">
<title>Node28&#45;&gt;Node16</title>
<g id="a_edge41_Node000028_Node000016"><a xlink:title=" ">
<path fill="none" stroke="#63b8ff" d="M1077.27,-269.46C1065.27,-269.68 1052.67,-269.72 1040.4,-269.6"/>
<polygon fill="#63b8ff" stroke="#63b8ff" points="1040.25,-266.1 1030.2,-269.46 1040.15,-273.1 1040.25,-266.1"/>
</a>
</g>
</g>
<!-- Node28&#45;&gt;Node17 -->
<g id="edge37_Node000028_Node000017" class="edge">
<title>Node28&#45;&gt;Node17</title>
<g id="a_edge37_Node000028_Node000017"><a xlink:title=" ">
<path fill="none" stroke="#63b8ff" d="M1184.99,-283.56C1198.02,-291.31 1212.21,-300.73 1224,-310.92 1242.86,-327.22 1240.14,-338.86 1260,-353.92 1265.03,-357.73 1270.63,-361.2 1276.38,-364.31"/>
<polygon fill="#63b8ff" stroke="#63b8ff" points="1274.97,-367.52 1285.48,-368.91 1278.13,-361.28 1274.97,-367.52"/>
</a>
</g>
</g>
<!-- Node28&#45;&gt;Node22 -->
<g id="edge38_Node000028_Node000022" class="edge">
<title>Node28&#45;&gt;Node22</title>
<g id="a_edge38_Node000028_Node000022"><a xlink:title=" ">
<path fill="none" stroke="#63b8ff" d="M1209.89,-242.39C1223.82,-237.91 1238.66,-233.14 1252.93,-228.56"/>
<polygon fill="#63b8ff" stroke="#63b8ff" points="1254.24,-231.81 1262.69,-225.42 1252.1,-225.15 1254.24,-231.81"/>
</a>
</g>
</g>
<!-- Node28&#45;&gt;Node23 -->
<g id="edge40_Node000028_Node000023" class="edge">
<title>Node28&#45;&gt;Node23</title>
<g id="a_edge40_Node000028_Node000023"><a xlink:title=" ">
<path fill="none" stroke="#63b8ff" d="M1176.64,-283.66C1226.03,-314.26 1324.8,-363.53 1395,-320.92 1448.55,-288.41 1471.71,-212.52 1480.43,-172.93"/>
<polygon fill="#63b8ff" stroke="#63b8ff" points="1483.88,-173.53 1482.48,-163.03 1477.03,-172.11 1483.88,-173.53"/>
</a>
</g>
</g>
<!-- Node28&#45;&gt;Node24 -->
<g id="edge42_Node000028_Node000024" class="edge">
<title>Node28&#45;&gt;Node24</title>
<g id="a_edge42_Node000028_Node000024"><a xlink:title=" ">
<path fill="none" stroke="#63b8ff" d="M1212.7,-275.48C1229,-278.55 1246.4,-281.83 1262.57,-284.87"/>
<polygon fill="#63b8ff" stroke="#63b8ff" points="1261.98,-288.33 1272.45,-286.74 1263.28,-281.45 1261.98,-288.33"/>
</a>
</g>
</g>
<!-- Node28&#45;&gt;Node28 -->
<g id="edge39_Node000028_Node000028" class="edge">
<title>Node28&#45;&gt;Node28</title>
<g id="a_edge39_Node000028_Node000028"><a xlink:title=" ">
<path fill="none" stroke="#63b8ff" d="M1111.55,-283.51C1107.9,-293.07 1119.05,-301.42 1145,-301.42 1161.22,-301.42 1171.66,-298.16 1176.31,-293.38"/>
<polygon fill="#63b8ff" stroke="#63b8ff" points="1179.75,-294.03 1178.45,-283.51 1172.91,-292.55 1179.75,-294.03"/>
</a>
</g>
</g>
</g>
</svg>
