<?xml version="1.0" encoding="UTF-8" standalone="no"?>
<!DOCTYPE svg PUBLIC "-//W3C//DTD SVG 1.1//EN"
 "http://www.w3.org/Graphics/SVG/1.1/DTD/svg11.dtd">
<!-- Generated by graphviz version 14.1.2 (0)
 -->
<!-- Title: lib/ConfigApplication.cpp Pages: 1 -->
<svg width="446pt" height="142pt"
 viewBox="0.00 0.00 446.00 142.00" xmlns="http://www.w3.org/2000/svg" xmlns:xlink="http://www.w3.org/1999/xlink">
<g id="graph0" class="graph" transform="scale(1 1) rotate(0) translate(4 138.25)">
<title>lib/ConfigApplication.cpp</title>
<!-- Node1 -->
<g id="Node000001" class="node">
<title>Node1</title>
<g id="a_Node000001"><a xlink:title=" ">
<polygon fill="#999999" stroke="#666666" points="262.38,-134.25 124.88,-134.25 124.88,-113.5 262.38,-113.5 262.38,-134.25"/>
<text xml:space="preserve" text-anchor="middle" x="193.62" y="-120.75" font-family="Helvetica,sans-Serif" font-size="10.00">lib/ConfigApplication.cpp</text>
</a>
</g>
</g>
<!-- Node2 -->
<g id="Node000002" class="node">
<title>Node2</title>
<g id="a_Node000002"><a xlink:href="ConfigApplication_8h.html" target="_top" xlink:title=" ">
<polygon fill="white" stroke="#666666" points="114.25,-77.5 3,-77.5 3,-56.75 114.25,-56.75 114.25,-77.5"/>
<text xml:space="preserve" text-anchor="middle" x="58.62" y="-64" font-family="Helvetica,sans-Serif" font-size="10.00">ConfigApplication.h</text>
</a>
</g>
</g>
<!-- Node1&#45;&gt;Node2 -->
<g id="edge1_Node000001_Node000002" class="edge">
<title>Node1&#45;&gt;Node2</title>
<g id="a_edge1_Node000001_Node000002"><a xlink:title=" ">
<path fill="none" stroke="#63b8ff" d="M169.49,-113.09C148.18,-104.44 116.87,-91.75 92.96,-82.05"/>
<polygon fill="#63b8ff" stroke="#63b8ff" points="94.54,-78.91 83.95,-78.4 91.91,-85.4 94.54,-78.91"/>
</a>
</g>
</g>
<!-- Node4 -->
<g id="Node000004" class="node">
<title>Node4</title>
<g id="a_Node000004"><a xlink:href="JsonMappingReader_8h.html" target="_top" xlink:title=" ">
<polygon fill="white" stroke="#666666" points="254.5,-77.5 132.75,-77.5 132.75,-56.75 254.5,-56.75 254.5,-77.5"/>
<text xml:space="preserve" text-anchor="middle" x="193.62" y="-64" font-family="Helvetica,sans-Serif" font-size="10.00">JsonMappingReader.h</text>
</a>
</g>
</g>
<!-- Node1&#45;&gt;Node4 -->
<g id="edge3_Node000001_Node000004" class="edge">
<title>Node1&#45;&gt;Node4</title>
<g id="a_edge3_Node000001_Node000004"><a xlink:title=" ">
<path fill="none" stroke="#63b8ff" d="M193.62,-113.09C193.62,-106.47 193.62,-97.47 193.62,-89.27"/>
<polygon fill="#63b8ff" stroke="#63b8ff" points="197.13,-89.34 193.63,-79.34 190.13,-89.34 197.13,-89.34"/>
</a>
</g>
</g>
<!-- Node5 -->
<g id="Node000005" class="node">
<title>Node5</title>
<g id="a_Node000005"><a xlink:href="MqttMapper_8h.html" target="_top" xlink:title=" ">
<polygon fill="white" stroke="#666666" points="356.75,-77.5 272.5,-77.5 272.5,-56.75 356.75,-56.75 356.75,-77.5"/>
<text xml:space="preserve" text-anchor="middle" x="314.62" y="-64" font-family="Helvetica,sans-Serif" font-size="10.00">MqttMapper.h</text>
</a>
</g>
</g>
<!-- Node1&#45;&gt;Node5 -->
<g id="edge4_Node000001_Node000005" class="edge">
<title>Node1&#45;&gt;Node5</title>
<g id="a_edge4_Node000001_Node000005"><a xlink:title=" ">
<path fill="none" stroke="#63b8ff" d="M215.26,-113.09C234.1,-104.56 261.66,-92.09 282.98,-82.44"/>
<polygon fill="#63b8ff" stroke="#63b8ff" points="284.13,-85.76 291.8,-78.45 281.25,-79.39 284.13,-85.76"/>
</a>
</g>
</g>
<!-- Node3 -->
<g id="Node000003" class="node">
<title>Node3</title>
<g id="a_Node000003"><a xlink:title=" ">
<polygon fill="#e0e0e0" stroke="#999999" points="117.25,-20.75 0,-20.75 0,0 117.25,0 117.25,-20.75"/>
<text xml:space="preserve" text-anchor="middle" x="58.62" y="-7.25" font-family="Helvetica,sans-Serif" font-size="10.00">utils/SubCommand.h</text>
</a>
</g>
</g>
<!-- Node2&#45;&gt;Node3 -->
<g id="edge2_Node000002_Node000003" class="edge">
<title>Node2&#45;&gt;Node3</title>
<g id="a_edge2_Node000002_Node000003"><a xlink:title=" ">
<path fill="none" stroke="#63b8ff" d="M58.62,-56.34C58.62,-49.72 58.62,-40.72 58.62,-32.52"/>
<polygon fill="#63b8ff" stroke="#63b8ff" points="62.13,-32.59 58.63,-22.59 55.13,-32.59 62.13,-32.59"/>
</a>
</g>
</g>
<!-- Node6 -->
<g id="Node000006" class="node">
<title>Node6</title>
<g id="a_Node000006"><a xlink:title=" ">
<polygon fill="#e0e0e0" stroke="#999999" points="332,-20.75 189.25,-20.75 189.25,0 332,0 332,-20.75"/>
<text xml:space="preserve" text-anchor="middle" x="260.62" y="-7.25" font-family="Helvetica,sans-Serif" font-size="10.00">iot/mqtt/packets/Publish.h</text>
</a>
</g>
</g>
<!-- Node5&#45;&gt;Node6 -->
<g id="edge5_Node000005_Node000006" class="edge">
<title>Node5&#45;&gt;Node6</title>
<g id="a_edge5_Node000005_Node000006"><a xlink:title=" ">
<path fill="none" stroke="#63b8ff" d="M304.97,-56.34C297.52,-48.78 287.02,-38.14 278.1,-29.1"/>
<polygon fill="#63b8ff" stroke="#63b8ff" points="280.77,-26.82 271.26,-22.16 275.79,-31.73 280.77,-26.82"/>
</a>
</g>
</g>
<!-- Node7 -->
<g id="Node000007" class="node">
<title>Node7</title>
<g id="a_Node000007"><a xlink:title=" ">
<polygon fill="#e0e0e0" stroke="#999999" points="437.62,-20.75 349.62,-20.75 349.62,0 437.62,0 437.62,-20.75"/>
<text xml:space="preserve" text-anchor="middle" x="393.62" y="-7.25" font-family="Helvetica,sans-Serif" font-size="10.00">utils/Timeval.h</text>
</a>
</g>
</g>
<!-- Node5&#45;&gt;Node7 -->
<g id="edge6_Node000005_Node000007" class="edge">
<title>Node5&#45;&gt;Node7</title>
<g id="a_edge6_Node000005_Node000007"><a xlink:title=" ">
<path fill="none" stroke="#63b8ff" d="M328.75,-56.34C340.32,-48.32 356.93,-36.81 370.44,-27.44"/>
<polygon fill="#63b8ff" stroke="#63b8ff" points="372.15,-30.51 378.38,-21.94 368.17,-24.76 372.15,-30.51"/>
</a>
</g>
</g>
</g>
</svg>
