<?xml version="1.0" encoding="UTF-8" standalone="no"?>
<!DOCTYPE svg PUBLIC "-//W3C//DTD SVG 1.1//EN"
 "http://www.w3.org/Graphics/SVG/1.1/DTD/svg11.dtd">
<!-- Generated by graphviz version 14.1.2 (0)
 -->
<!-- Title: mqttcli/lib/ConfigSections.cpp Pages: 1 -->
<svg width="170pt" height="142pt"
 viewBox="0.00 0.00 170.00 142.00" xmlns="http://www.w3.org/2000/svg" xmlns:xlink="http://www.w3.org/1999/xlink">
<g id="graph0" class="graph" transform="scale(1 1) rotate(0) translate(4 138.25)">
<title>mqttcli/lib/ConfigSections.cpp</title>
<!-- Node1 -->
<g id="Node000001" class="node">
<title>Node1</title>
<g id="a_Node000001"><a xlink:title=" ">
<polygon fill="#999999" stroke="#666666" points="161.5,-134.25 0,-134.25 0,-113.5 161.5,-113.5 161.5,-134.25"/>
<text xml:space="preserve" text-anchor="middle" x="80.75" y="-120.75" font-family="Helvetica,sans-Serif" font-size="10.00">mqttcli/lib/ConfigSections.cpp</text>
</a>
</g>
</g>
<!-- Node2 -->
<g id="Node000002" class="node">
<title>Node2</title>
<g id="a_Node000002"><a xlink:href="ConfigSections_8h.html" target="_top" xlink:title=" ">
<polygon fill="white" stroke="#666666" points="129.62,-77.5 31.88,-77.5 31.88,-56.75 129.62,-56.75 129.62,-77.5"/>
<text xml:space="preserve" text-anchor="middle" x="80.75" y="-64" font-family="Helvetica,sans-Serif" font-size="10.00">ConfigSections.h</text>
</a>
</g>
</g>
<!-- Node1&#45;&gt;Node2 -->
<g id="edge1_Node000001_Node000002" class="edge">
<title>Node1&#45;&gt;Node2</title>
<g id="a_edge1_Node000001_Node000002"><a xlink:title=" ">
<path fill="none" stroke="#63b8ff" d="M80.75,-113.09C80.75,-106.47 80.75,-97.47 80.75,-89.27"/>
<polygon fill="#63b8ff" stroke="#63b8ff" points="84.25,-89.34 80.75,-79.34 77.25,-89.34 84.25,-89.34"/>
</a>
</g>
</g>
<!-- Node3 -->
<g id="Node000003" class="node">
<title>Node3</title>
<g id="a_Node000003"><a xlink:title=" ">
<polygon fill="#e0e0e0" stroke="#999999" points="152.88,-20.75 8.62,-20.75 8.62,0 152.88,0 152.88,-20.75"/>
<text xml:space="preserve" text-anchor="middle" x="80.75" y="-7.25" font-family="Helvetica,sans-Serif" font-size="10.00">net/config/ConfigSection.h</text>
</a>
</g>
</g>
<!-- Node2&#45;&gt;Node3 -->
<g id="edge2_Node000002_Node000003" class="edge">
<title>Node2&#45;&gt;Node3</title>
<g id="a_edge2_Node000002_Node000003"><a xlink:title=" ">
<path fill="none" stroke="#63b8ff" d="M80.75,-56.34C80.75,-49.72 80.75,-40.72 80.75,-32.52"/>
<polygon fill="#63b8ff" stroke="#63b8ff" points="84.25,-32.59 80.75,-22.59 77.25,-32.59 84.25,-32.59"/>
</a>
</g>
</g>
</g>
</svg>
