<?xml version="1.0" encoding="UTF-8" standalone="no"?>
<!DOCTYPE svg PUBLIC "-//W3C//DTD SVG 1.1//EN"
 "http://www.w3.org/Graphics/SVG/1.1/DTD/svg11.dtd">
<!-- Generated by graphviz version 14.1.2 (0)
 -->
<!-- Title: Graphical Class Hierarchy Pages: 1 -->
<svg width="375pt" height="250pt"
 viewBox="0.00 0.00 375.00 250.00" xmlns="http://www.w3.org/2000/svg" xmlns:xlink="http://www.w3.org/1999/xlink">
<g id="graph0" class="graph" transform="scale(1 1) rotate(0) translate(4 245.5)">
<title>Graphical Class Hierarchy</title>
<!-- Node0 -->
<g id="Node000000" class="node">
<title>Node0</title>
<g id="a_Node000000"><a xlink:title=" ">
<polygon fill="#e0e0e0" stroke="#999999" points="157.75,-137.5 0,-137.5 0,-104 157.75,-104 157.75,-137.5"/>
<text xml:space="preserve" text-anchor="start" x="8" y="-124" font-family="Helvetica,sans-Serif" font-size="10.00">web::websocket::SubProtocol</text>
<text xml:space="preserve" text-anchor="middle" x="78.88" y="-111.25" font-family="Helvetica,sans-Serif" font-size="10.00">Factory</text>
</a>
</g>
</g>
<!-- Node1 -->
<g id="Node000001" class="node">
<title>Node1</title>
<g id="a_Node000001"><a xlink:href="classmqtt_1_1mqttbridge_1_1websocket_1_1SubProtocolFactory.html" target="_top" xlink:title=" ">
<polygon fill="white" stroke="#666666" points="359,-241.5 202,-241.5 202,-208 359,-208 359,-241.5"/>
<text xml:space="preserve" text-anchor="start" x="210" y="-228" font-family="Helvetica,sans-Serif" font-size="10.00">mqtt::mqttbridge::websocket</text>
<text xml:space="preserve" text-anchor="middle" x="280.5" y="-215.25" font-family="Helvetica,sans-Serif" font-size="10.00">::SubProtocolFactory</text>
</a>
</g>
</g>
<!-- Node0&#45;&gt;Node1 -->
<g id="edge73_Node000000_Node000001" class="edge">
<title>Node0&#45;&gt;Node1</title>
<g id="a_edge73_Node000000_Node000001"><a xlink:title=" ">
<path fill="none" stroke="#63b8ff" d="M109.38,-144.71C131.5,-161.72 163.13,-184.05 193.75,-198.75 200.48,-201.98 207.7,-204.91 215,-207.55"/>
<polygon fill="#63b8ff" stroke="#63b8ff" points="111.73,-142.11 101.7,-138.71 107.43,-147.63 111.73,-142.11"/>
</a>
</g>
</g>
<!-- Node2 -->
<g id="Node000002" class="node">
<title>Node2</title>
<g id="a_Node000002"><a xlink:href="classmqtt_1_1mqttbroker_1_1websocket_1_1SubProtocolFactory.html" target="_top" xlink:title=" ">
<polygon fill="white" stroke="#666666" points="359,-189.5 202,-189.5 202,-156 359,-156 359,-189.5"/>
<text xml:space="preserve" text-anchor="start" x="210" y="-176" font-family="Helvetica,sans-Serif" font-size="10.00">mqtt::mqttbroker::websocket</text>
<text xml:space="preserve" text-anchor="middle" x="280.5" y="-163.25" font-family="Helvetica,sans-Serif" font-size="10.00">::SubProtocolFactory</text>
</a>
</g>
</g>
<!-- Node0&#45;&gt;Node2 -->
<g id="edge74_Node000000_Node000002" class="edge">
<title>Node0&#45;&gt;Node2</title>
<g id="a_edge74_Node000000_Node000002"><a xlink:title=" ">
<path fill="none" stroke="#63b8ff" d="M157.17,-140.89C175.77,-145.73 195.46,-150.86 213.48,-155.55"/>
<polygon fill="#63b8ff" stroke="#63b8ff" points="158.09,-137.51 147.53,-138.37 156.33,-144.28 158.09,-137.51"/>
</a>
</g>
</g>
<!-- Node3 -->
<g id="Node000003" class="node">
<title>Node3</title>
<g id="a_Node000003"><a xlink:href="classmqtt_1_1mqttcli_1_1websocket_1_1SubProtocolFactory.html" target="_top" xlink:title=" ">
<polygon fill="white" stroke="#666666" points="349.25,-137.5 211.75,-137.5 211.75,-104 349.25,-104 349.25,-137.5"/>
<text xml:space="preserve" text-anchor="start" x="219.75" y="-124" font-family="Helvetica,sans-Serif" font-size="10.00">mqtt::mqttcli::websocket</text>
<text xml:space="preserve" text-anchor="middle" x="280.5" y="-111.25" font-family="Helvetica,sans-Serif" font-size="10.00">::SubProtocolFactory</text>
</a>
</g>
</g>
<!-- Node0&#45;&gt;Node3 -->
<g id="edge75_Node000000_Node000003" class="edge">
<title>Node0&#45;&gt;Node3</title>
<g id="a_edge75_Node000000_Node000003"><a xlink:title=" ">
<path fill="none" stroke="#63b8ff" d="M169.43,-120.75C183.54,-120.75 197.92,-120.75 211.43,-120.75"/>
<polygon fill="#63b8ff" stroke="#63b8ff" points="169.71,-117.25 159.71,-120.75 169.71,-124.25 169.71,-117.25"/>
</a>
</g>
</g>
<!-- Node4 -->
<g id="Node000004" class="node">
<title>Node4</title>
<g id="a_Node000004"><a xlink:href="classmqtt_1_1mqttintegrator_1_1websocket_1_1SubProtocolFactory.html" target="_top" xlink:title=" ">
<polygon fill="white" stroke="#666666" points="367.25,-85.5 193.75,-85.5 193.75,-52 367.25,-52 367.25,-85.5"/>
<text xml:space="preserve" text-anchor="start" x="201.75" y="-72" font-family="Helvetica,sans-Serif" font-size="10.00">mqtt::mqttintegrator</text>
<text xml:space="preserve" text-anchor="middle" x="280.5" y="-59.25" font-family="Helvetica,sans-Serif" font-size="10.00">::websocket::SubProtocolFactory</text>
</a>
</g>
</g>
<!-- Node0&#45;&gt;Node4 -->
<g id="edge76_Node000000_Node000004" class="edge">
<title>Node0&#45;&gt;Node4</title>
<g id="a_edge76_Node000000_Node000004"><a xlink:title=" ">
<path fill="none" stroke="#63b8ff" d="M157.17,-100.61C175.77,-95.77 195.46,-90.64 213.48,-85.95"/>
<polygon fill="#63b8ff" stroke="#63b8ff" points="156.33,-97.22 147.53,-103.13 158.09,-103.99 156.33,-97.22"/>
</a>
</g>
</g>
<!-- Node5 -->
<g id="Node000005" class="node">
<title>Node5</title>
<g id="a_Node000005"><a xlink:href="classmqtt_1_1mqttstore_1_1websocket_1_1SubProtocolFactory.html" target="_top" xlink:title=" ">
<polygon fill="white" stroke="#666666" points="356,-33.5 205,-33.5 205,0 356,0 356,-33.5"/>
<text xml:space="preserve" text-anchor="start" x="213" y="-20" font-family="Helvetica,sans-Serif" font-size="10.00">mqtt::mqttstore::websocket</text>
<text xml:space="preserve" text-anchor="middle" x="280.5" y="-7.25" font-family="Helvetica,sans-Serif" font-size="10.00">::SubProtocolFactory</text>
</a>
</g>
</g>
<!-- Node0&#45;&gt;Node5 -->
<g id="edge77_Node000000_Node000005" class="edge">
<title>Node0&#45;&gt;Node5</title>
<g id="a_edge77_Node000000_Node000005"><a xlink:title=" ">
<path fill="none" stroke="#63b8ff" d="M109.38,-96.79C131.5,-79.78 163.13,-57.45 193.75,-42.75 200.48,-39.52 207.7,-36.59 215,-33.95"/>
<polygon fill="#63b8ff" stroke="#63b8ff" points="107.43,-93.87 101.7,-102.79 111.73,-99.39 107.43,-93.87"/>
</a>
</g>
</g>
</g>
</svg>
