<?xml version="1.0" encoding="UTF-8" standalone="no"?>
<!DOCTYPE svg PUBLIC "-//W3C//DTD SVG 1.1//EN"
 "http://www.w3.org/Graphics/SVG/1.1/DTD/svg11.dtd">
<!-- Generated by graphviz version 14.1.2 (0)
 -->
<!-- Title: Graphical Class Hierarchy Pages: 1 -->
<svg width="533pt" height="146pt"
 viewBox="0.00 0.00 533.00 146.00" xmlns="http://www.w3.org/2000/svg" xmlns:xlink="http://www.w3.org/1999/xlink">
<g id="graph0" class="graph" transform="scale(1 1) rotate(0) translate(4 141.75)">
<title>Graphical Class Hierarchy</title>
<!-- Node0 -->
<g id="Node000000" class="node">
<title>Node0</title>
<g id="a_Node000000"><a xlink:title=" ">
<polygon fill="#e0e0e0" stroke="#999999" points="85,-100.75 0,-100.75 0,-80 85,-80 85,-100.75"/>
<text xml:space="preserve" text-anchor="middle" x="42.5" y="-87.25" font-family="Helvetica,sans-Serif" font-size="10.00">std::exception</text>
</a>
</g>
</g>
<!-- Node1 -->
<g id="Node000001" class="node">
<title>Node1</title>
<g id="a_Node000001"><a xlink:href="classnlohmann_1_1JsonPatchFormatException.html" target="_top" xlink:title=" ">
<polygon fill="white" stroke="#666666" points="273.5,-130.12 121,-130.12 121,-96.62 273.5,-96.62 273.5,-130.12"/>
<text xml:space="preserve" text-anchor="start" x="129" y="-116.62" font-family="Helvetica,sans-Serif" font-size="10.00">nlohmann::JsonPatchFormat</text>
<text xml:space="preserve" text-anchor="middle" x="197.25" y="-103.88" font-family="Helvetica,sans-Serif" font-size="10.00">Exception</text>
</a>
</g>
</g>
<!-- Node0&#45;&gt;Node1 -->
<g id="edge59_Node000000_Node000001" class="edge">
<title>Node0&#45;&gt;Node1</title>
<g id="a_edge59_Node000000_Node000001"><a xlink:title=" ">
<path fill="none" stroke="#63b8ff" d="M96.46,-98.35C104.33,-99.53 112.56,-100.77 120.78,-102.01"/>
<polygon fill="#63b8ff" stroke="#63b8ff" points="97.15,-94.91 86.74,-96.89 96.1,-101.84 97.15,-94.91"/>
</a>
</g>
</g>
<!-- Node2 -->
<g id="Node000002" class="node">
<title>Node2</title>
<g id="a_Node000002"><a xlink:title=" ">
<polygon fill="#e0e0e0" stroke="#999999" points="249.12,-78.75 145.38,-78.75 145.38,-58 249.12,-58 249.12,-78.75"/>
<text xml:space="preserve" text-anchor="middle" x="197.25" y="-65.25" font-family="Helvetica,sans-Serif" font-size="10.00">std::runtime_error</text>
</a>
</g>
</g>
<!-- Node0&#45;&gt;Node2 -->
<g id="edge60_Node000000_Node000002" class="edge">
<title>Node0&#45;&gt;Node2</title>
<g id="a_edge60_Node000000_Node000002"><a xlink:title=" ">
<path fill="none" stroke="#63b8ff" d="M96.41,-82.76C112.16,-80.49 129.39,-78.01 145.03,-75.75"/>
<polygon fill="#63b8ff" stroke="#63b8ff" points="96.14,-79.26 86.74,-84.15 97.13,-86.19 96.14,-79.26"/>
</a>
</g>
</g>
<!-- Node3 -->
<g id="Node000003" class="node">
<title>Node3</title>
<g id="a_Node000003"><a xlink:href="structinja_1_1InjaError.html" target="_top" xlink:title=" ">
<polygon fill="white" stroke="#666666" points="390.75,-78.75 309.5,-78.75 309.5,-58 390.75,-58 390.75,-78.75"/>
<text xml:space="preserve" text-anchor="middle" x="350.12" y="-65.25" font-family="Helvetica,sans-Serif" font-size="10.00">inja::InjaError</text>
</a>
</g>
</g>
<!-- Node2&#45;&gt;Node3 -->
<g id="edge61_Node000002_Node000003" class="edge">
<title>Node2&#45;&gt;Node3</title>
<g id="a_edge61_Node000002_Node000003"><a xlink:title=" ">
<path fill="none" stroke="#63b8ff" d="M260.51,-68.38C276.91,-68.38 294.18,-68.38 309.06,-68.38"/>
<polygon fill="#63b8ff" stroke="#63b8ff" points="260.84,-64.88 250.84,-68.38 260.84,-71.88 260.84,-64.88"/>
</a>
</g>
</g>
<!-- Node4 -->
<g id="Node000004" class="node">
<title>Node4</title>
<g id="a_Node000004"><a xlink:href="structinja_1_1DataError.html" target="_top" xlink:title=" ">
<polygon fill="white" stroke="#666666" points="518.88,-137.75 432.38,-137.75 432.38,-117 518.88,-117 518.88,-137.75"/>
<text xml:space="preserve" text-anchor="middle" x="475.62" y="-124.25" font-family="Helvetica,sans-Serif" font-size="10.00">inja::DataError</text>
</a>
</g>
</g>
<!-- Node3&#45;&gt;Node4 -->
<g id="edge62_Node000003_Node000004" class="edge">
<title>Node3&#45;&gt;Node4</title>
<g id="a_edge62_Node000003_Node000004"><a xlink:title=" ">
<path fill="none" stroke="#63b8ff" d="M381.04,-84.51C394.83,-91.76 411.49,-100.27 426.75,-107.38 433.45,-110.49 440.76,-113.67 447.62,-116.54"/>
<polygon fill="#63b8ff" stroke="#63b8ff" points="382.94,-81.55 372.47,-79.96 379.66,-87.74 382.94,-81.55"/>
</a>
</g>
</g>
<!-- Node5 -->
<g id="Node000005" class="node">
<title>Node5</title>
<g id="a_Node000005"><a xlink:href="structinja_1_1FileError.html" target="_top" xlink:title=" ">
<polygon fill="white" stroke="#666666" points="515.5,-98.75 435.75,-98.75 435.75,-78 515.5,-78 515.5,-98.75"/>
<text xml:space="preserve" text-anchor="middle" x="475.62" y="-85.25" font-family="Helvetica,sans-Serif" font-size="10.00">inja::FileError</text>
</a>
</g>
</g>
<!-- Node3&#45;&gt;Node5 -->
<g id="edge63_Node000003_Node000005" class="edge">
<title>Node3&#45;&gt;Node5</title>
<g id="a_edge63_Node000003_Node000005"><a xlink:title=" ">
<path fill="none" stroke="#63b8ff" d="M402.51,-76.7C413.57,-78.49 425.08,-80.35 435.57,-82.05"/>
<polygon fill="#63b8ff" stroke="#63b8ff" points="403.15,-73.25 392.72,-75.11 402.03,-80.16 403.15,-73.25"/>
</a>
</g>
</g>
<!-- Node6 -->
<g id="Node000006" class="node">
<title>Node6</title>
<g id="a_Node000006"><a xlink:href="structinja_1_1ParserError.html" target="_top" xlink:title=" ">
<polygon fill="white" stroke="#666666" points="522.62,-59.75 428.62,-59.75 428.62,-39 522.62,-39 522.62,-59.75"/>
<text xml:space="preserve" text-anchor="middle" x="475.62" y="-46.25" font-family="Helvetica,sans-Serif" font-size="10.00">inja::ParserError</text>
</a>
</g>
</g>
<!-- Node3&#45;&gt;Node6 -->
<g id="edge64_Node000003_Node000006" class="edge">
<title>Node3&#45;&gt;Node6</title>
<g id="a_edge64_Node000003_Node000006"><a xlink:title=" ">
<path fill="none" stroke="#63b8ff" d="M402.32,-60.5C410.93,-59.17 419.82,-57.81 428.29,-56.5"/>
<polygon fill="#63b8ff" stroke="#63b8ff" points="402.07,-57 392.72,-61.98 403.13,-63.91 402.07,-57"/>
</a>
</g>
</g>
<!-- Node7 -->
<g id="Node000007" class="node">
<title>Node7</title>
<g id="a_Node000007"><a xlink:href="structinja_1_1RenderError.html" target="_top" xlink:title=" ">
<polygon fill="white" stroke="#666666" points="524.5,-20.75 426.75,-20.75 426.75,0 524.5,0 524.5,-20.75"/>
<text xml:space="preserve" text-anchor="middle" x="475.62" y="-7.25" font-family="Helvetica,sans-Serif" font-size="10.00">inja::RenderError</text>
</a>
</g>
</g>
<!-- Node3&#45;&gt;Node7 -->
<g id="edge65_Node000003_Node000007" class="edge">
<title>Node3&#45;&gt;Node7</title>
<g id="a_edge65_Node000003_Node000007"><a xlink:title=" ">
<path fill="none" stroke="#63b8ff" d="M381.37,-52.57C395.11,-45.55 411.64,-37.32 426.75,-30.38 433.54,-27.25 440.96,-24.05 447.89,-21.15"/>
<polygon fill="#63b8ff" stroke="#63b8ff" points="380.11,-49.28 372.83,-56.97 383.32,-55.5 380.11,-49.28"/>
</a>
</g>
</g>
</g>
</svg>
