<?xml version="1.0" encoding="UTF-8" standalone="no"?>
<!DOCTYPE svg PUBLIC "-//W3C//DTD SVG 1.1//EN"
 "http://www.w3.org/Graphics/SVG/1.1/DTD/svg11.dtd">
<!-- Generated by graphviz version 2.42.4 (0)
 -->
<!-- Title: Graphical Class Hierarchy Pages: 1 -->
<svg width="535pt" height="138pt"
 viewBox="0.00 0.00 535.00 138.00" xmlns="http://www.w3.org/2000/svg" xmlns:xlink="http://www.w3.org/1999/xlink">
<g id="graph0" class="graph" transform="scale(1 1) rotate(0) translate(4 134)">
<title>Graphical Class Hierarchy</title>
<!-- Node0 -->
<g id="Node000000" class="node">
<title>Node0</title>
<g id="a_Node000000"><a xlink:title=" ">
<polygon fill="#e0e0e0" stroke="#999999" points="86,-95 0,-95 0,-76 86,-76 86,-95"/>
<text text-anchor="middle" x="43" y="-83" font-family="Helvetica,sans-Serif" font-size="10.00">std::exception</text>
</a>
</g>
</g>
<!-- Node1 -->
<g id="Node000001" class="node">
<title>Node1</title>
<g id="a_Node000001"><a xlink:href="classnlohmann_1_1JsonPatchFormatException.html" target="_top" xlink:title=" ">
<polygon fill="white" stroke="#666666" points="275,-122.5 122,-122.5 122,-92.5 275,-92.5 275,-122.5"/>
<text text-anchor="start" x="130" y="-110.5" font-family="Helvetica,sans-Serif" font-size="10.00">nlohmann::JsonPatchFormat</text>
<text text-anchor="middle" x="198.5" y="-99.5" font-family="Helvetica,sans-Serif" font-size="10.00">Exception</text>
</a>
</g>
</g>
<!-- Node0&#45;&gt;Node1 -->
<g id="edge54_Node000000_Node000001" class="edge">
<title>Node0&#45;&gt;Node1</title>
<g id="a_edge54_Node000000_Node000001"><a xlink:title=" ">
<path fill="none" stroke="#63b8ff" d="M96.43,-93.01C104.59,-94.18 113.16,-95.41 121.71,-96.64"/>
<polygon fill="#63b8ff" stroke="#63b8ff" points="96.75,-89.52 86.35,-91.57 95.75,-96.45 96.75,-89.52"/>
</a>
</g>
</g>
<!-- Node2 -->
<g id="Node000002" class="node">
<title>Node2</title>
<g id="a_Node000002"><a xlink:title=" ">
<polygon fill="#e0e0e0" stroke="#999999" points="250.5,-74 146.5,-74 146.5,-55 250.5,-55 250.5,-74"/>
<text text-anchor="middle" x="198.5" y="-62" font-family="Helvetica,sans-Serif" font-size="10.00">std::runtime_error</text>
</a>
</g>
</g>
<!-- Node0&#45;&gt;Node2 -->
<g id="edge55_Node000000_Node000002" class="edge">
<title>Node0&#45;&gt;Node2</title>
<g id="a_edge55_Node000000_Node000002"><a xlink:title=" ">
<path fill="none" stroke="#63b8ff" d="M96.64,-78.3C112.7,-76.1 130.32,-73.69 146.28,-71.51"/>
<polygon fill="#63b8ff" stroke="#63b8ff" points="95.78,-74.88 86.35,-79.71 96.73,-81.82 95.78,-74.88"/>
</a>
</g>
</g>
<!-- Node3 -->
<g id="Node000003" class="node">
<title>Node3</title>
<g id="a_Node000003"><a xlink:href="structinja_1_1InjaError.html" target="_top" xlink:title=" ">
<polygon fill="white" stroke="#666666" points="393,-74 311,-74 311,-55 393,-55 393,-74"/>
<text text-anchor="middle" x="352" y="-62" font-family="Helvetica,sans-Serif" font-size="10.00">inja::InjaError</text>
</a>
</g>
</g>
<!-- Node2&#45;&gt;Node3 -->
<g id="edge56_Node000002_Node000003" class="edge">
<title>Node2&#45;&gt;Node3</title>
<g id="a_edge56_Node000002_Node000003"><a xlink:title=" ">
<path fill="none" stroke="#63b8ff" d="M261.07,-64.5C277.82,-64.5 295.54,-64.5 310.77,-64.5"/>
<polygon fill="#63b8ff" stroke="#63b8ff" points="260.79,-61 250.79,-64.5 260.79,-68 260.79,-61"/>
</a>
</g>
</g>
<!-- Node4 -->
<g id="Node000004" class="node">
<title>Node4</title>
<g id="a_Node000004"><a xlink:href="structinja_1_1DataError.html" target="_top" xlink:title=" ">
<polygon fill="white" stroke="#666666" points="521.5,-130 434.5,-130 434.5,-111 521.5,-111 521.5,-130"/>
<text text-anchor="middle" x="478" y="-118" font-family="Helvetica,sans-Serif" font-size="10.00">inja::DataError</text>
</a>
</g>
</g>
<!-- Node3&#45;&gt;Node4 -->
<g id="edge57_Node000003_Node000004" class="edge">
<title>Node3&#45;&gt;Node4</title>
<g id="a_edge57_Node000003_Node000004"><a xlink:title=" ">
<path fill="none" stroke="#63b8ff" d="M379.74,-78.73C394.16,-86.18 412.36,-95.24 429,-102.5 435.77,-105.45 443.2,-108.38 450.14,-110.99"/>
<polygon fill="#63b8ff" stroke="#63b8ff" points="381.35,-75.62 370.87,-74.1 378.11,-81.83 381.35,-75.62"/>
</a>
</g>
</g>
<!-- Node5 -->
<g id="Node000005" class="node">
<title>Node5</title>
<g id="a_Node000005"><a xlink:href="structinja_1_1FileError.html" target="_top" xlink:title=" ">
<polygon fill="white" stroke="#666666" points="518,-93 438,-93 438,-74 518,-74 518,-93"/>
<text text-anchor="middle" x="478" y="-81" font-family="Helvetica,sans-Serif" font-size="10.00">inja::FileError</text>
</a>
</g>
</g>
<!-- Node3&#45;&gt;Node5 -->
<g id="edge58_Node000003_Node000005" class="edge">
<title>Node3&#45;&gt;Node5</title>
<g id="a_edge58_Node000003_Node000005"><a xlink:title=" ">
<path fill="none" stroke="#63b8ff" d="M403.2,-72.19C414.72,-73.96 426.81,-75.81 437.79,-77.49"/>
<polygon fill="#63b8ff" stroke="#63b8ff" points="403.67,-68.72 393.26,-70.67 402.61,-75.64 403.67,-68.72"/>
</a>
</g>
</g>
<!-- Node6 -->
<g id="Node000006" class="node">
<title>Node6</title>
<g id="a_Node000006"><a xlink:href="structinja_1_1ParserError.html" target="_top" xlink:title=" ">
<polygon fill="white" stroke="#666666" points="525.5,-56 430.5,-56 430.5,-37 525.5,-37 525.5,-56"/>
<text text-anchor="middle" x="478" y="-44" font-family="Helvetica,sans-Serif" font-size="10.00">inja::ParserError</text>
</a>
</g>
</g>
<!-- Node3&#45;&gt;Node6 -->
<g id="edge59_Node000003_Node000006" class="edge">
<title>Node3&#45;&gt;Node6</title>
<g id="a_edge59_Node000003_Node000006"><a xlink:title=" ">
<path fill="none" stroke="#63b8ff" d="M403.24,-57.21C412.24,-55.9 421.59,-54.54 430.48,-53.25"/>
<polygon fill="#63b8ff" stroke="#63b8ff" points="402.65,-53.76 393.26,-58.66 403.66,-60.68 402.65,-53.76"/>
</a>
</g>
</g>
<!-- Node7 -->
<g id="Node000007" class="node">
<title>Node7</title>
<g id="a_Node000007"><a xlink:href="structinja_1_1RenderError.html" target="_top" xlink:title=" ">
<polygon fill="white" stroke="#666666" points="527,-19 429,-19 429,0 527,0 527,-19"/>
<text text-anchor="middle" x="478" y="-7" font-family="Helvetica,sans-Serif" font-size="10.00">inja::RenderError</text>
</a>
</g>
</g>
<!-- Node3&#45;&gt;Node7 -->
<g id="edge60_Node000003_Node000007" class="edge">
<title>Node3&#45;&gt;Node7</title>
<g id="a_edge60_Node000003_Node000007"><a xlink:title=" ">
<path fill="none" stroke="#63b8ff" d="M381.44,-50.48C395.63,-43.63 413.11,-35.4 429,-28.5 436.4,-25.29 444.53,-21.99 451.96,-19.05"/>
<polygon fill="#63b8ff" stroke="#63b8ff" points="379.67,-47.45 372.21,-54.97 382.73,-53.75 379.67,-47.45"/>
</a>
</g>
</g>
</g>
</svg>
