<?xml version="1.0" encoding="UTF-8" standalone="no"?>
<!DOCTYPE svg PUBLIC "-//W3C//DTD SVG 1.1//EN"
 "http://www.w3.org/Graphics/SVG/1.1/DTD/svg11.dtd">
<!-- Generated by graphviz version 14.1.2 (0)
 -->
<!-- Title: Graphical Class Hierarchy Pages: 1 -->
<svg width="652pt" height="341pt"
 viewBox="0.00 0.00 652.00 341.00" xmlns="http://www.w3.org/2000/svg" xmlns:xlink="http://www.w3.org/1999/xlink">
<g id="graph0" class="graph" transform="scale(1 1) rotate(0) translate(4 336.75)">
<title>Graphical Class Hierarchy</title>
<!-- Node0 -->
<g id="Node000000" class="node">
<title>Node0</title>
<g id="a_Node000000"><a xlink:href="classinja_1_1AstNode.html" target="_top" xlink:title="Base node class for the abstract syntax tree (AST).">
<polygon fill="white" stroke="#666666" points="81.25,-254.75 0,-254.75 0,-234 81.25,-234 81.25,-254.75"/>
<text xml:space="preserve" text-anchor="middle" x="40.62" y="-241.25" font-family="Helvetica,sans-Serif" font-size="10.00">inja::AstNode</text>
</a>
</g>
</g>
<!-- Node1 -->
<g id="Node000001" class="node">
<title>Node1</title>
<g id="a_Node000001"><a xlink:href="classinja_1_1BlockNode.html" target="_top" xlink:title=" ">
<polygon fill="white" stroke="#666666" points="231.5,-332.75 139,-332.75 139,-312 231.5,-312 231.5,-332.75"/>
<text xml:space="preserve" text-anchor="middle" x="185.25" y="-319.25" font-family="Helvetica,sans-Serif" font-size="10.00">inja::BlockNode</text>
</a>
</g>
</g>
<!-- Node0&#45;&gt;Node1 -->
<g id="edge18_Node000000_Node000001" class="edge">
<title>Node0&#45;&gt;Node1</title>
<g id="a_edge18_Node000000_Node000001"><a xlink:title=" ">
<path fill="none" stroke="#63b8ff" d="M60.68,-262.16C75.22,-274.91 96.26,-291.66 117.25,-302.38 124.28,-305.96 132.06,-309.02 139.75,-311.58"/>
<polygon fill="#63b8ff" stroke="#63b8ff" points="63.42,-259.93 53.65,-255.84 58.74,-265.13 63.42,-259.93"/>
</a>
</g>
</g>
<!-- Node2 -->
<g id="Node000002" class="node">
<title>Node2</title>
<g id="a_Node000002"><a xlink:href="classinja_1_1ExpressionListNode.html" target="_top" xlink:title=" ">
<polygon fill="white" stroke="#666666" points="253.25,-293.75 117.25,-293.75 117.25,-273 253.25,-273 253.25,-293.75"/>
<text xml:space="preserve" text-anchor="middle" x="185.25" y="-280.25" font-family="Helvetica,sans-Serif" font-size="10.00">inja::ExpressionListNode</text>
</a>
</g>
</g>
<!-- Node0&#45;&gt;Node2 -->
<g id="edge19_Node000000_Node000002" class="edge">
<title>Node0&#45;&gt;Node2</title>
<g id="a_edge19_Node000000_Node000002"><a xlink:title=" ">
<path fill="none" stroke="#63b8ff" d="M92.36,-258.25C109.57,-262.96 128.53,-268.14 144.73,-272.57"/>
<polygon fill="#63b8ff" stroke="#63b8ff" points="93.38,-254.9 82.81,-255.64 91.54,-261.65 93.38,-254.9"/>
</a>
</g>
</g>
<!-- Node3 -->
<g id="Node000003" class="node">
<title>Node3</title>
<g id="a_Node000003"><a xlink:href="classinja_1_1ExpressionNode.html" target="_top" xlink:title=" ">
<polygon fill="white" stroke="#666666" points="244.62,-254.75 125.88,-254.75 125.88,-234 244.62,-234 244.62,-254.75"/>
<text xml:space="preserve" text-anchor="middle" x="185.25" y="-241.25" font-family="Helvetica,sans-Serif" font-size="10.00">inja::ExpressionNode</text>
</a>
</g>
</g>
<!-- Node0&#45;&gt;Node3 -->
<g id="edge20_Node000000_Node000003" class="edge">
<title>Node0&#45;&gt;Node3</title>
<g id="a_edge20_Node000000_Node000003"><a xlink:title=" ">
<path fill="none" stroke="#63b8ff" d="M92.92,-244.38C103.5,-244.38 114.72,-244.38 125.55,-244.38"/>
<polygon fill="#63b8ff" stroke="#63b8ff" points="93.25,-240.88 83.25,-244.38 93.25,-247.88 93.25,-240.88"/>
</a>
</g>
</g>
<!-- Node7 -->
<g id="Node000007" class="node">
<title>Node7</title>
<g id="a_Node000007"><a xlink:href="classinja_1_1StatementNode.html" target="_top" xlink:title=" ">
<polygon fill="white" stroke="#666666" points="243.5,-156.75 127,-156.75 127,-136 243.5,-136 243.5,-156.75"/>
<text xml:space="preserve" text-anchor="middle" x="185.25" y="-143.25" font-family="Helvetica,sans-Serif" font-size="10.00">inja::StatementNode</text>
</a>
</g>
</g>
<!-- Node0&#45;&gt;Node7 -->
<g id="edge24_Node000000_Node000007" class="edge">
<title>Node0&#45;&gt;Node7</title>
<g id="a_edge24_Node000000_Node000007"><a xlink:title=" ">
<path fill="none" stroke="#63b8ff" d="M66.67,-227.17C96.17,-206.9 144.27,-173.84 168.8,-156.99"/>
<polygon fill="#63b8ff" stroke="#63b8ff" points="64.94,-224.11 58.68,-232.66 68.9,-229.88 64.94,-224.11"/>
</a>
</g>
</g>
<!-- Node16 -->
<g id="Node000016" class="node">
<title>Node16</title>
<g id="a_Node000016"><a xlink:href="classinja_1_1TextNode.html" target="_top" xlink:title=" ">
<polygon fill="white" stroke="#666666" points="228.12,-117.75 142.38,-117.75 142.38,-97 228.12,-97 228.12,-117.75"/>
<text xml:space="preserve" text-anchor="middle" x="185.25" y="-104.25" font-family="Helvetica,sans-Serif" font-size="10.00">inja::TextNode</text>
</a>
</g>
</g>
<!-- Node0&#45;&gt;Node16 -->
<g id="edge33_Node000000_Node000016" class="edge">
<title>Node0&#45;&gt;Node16</title>
<g id="a_edge33_Node000000_Node000016"><a xlink:title=" ">
<path fill="none" stroke="#63b8ff" d="M49.87,-223.13C61.15,-196.82 83.88,-152.41 117.25,-127.38 124.53,-121.91 133.3,-117.93 142.06,-115.04"/>
<polygon fill="#63b8ff" stroke="#63b8ff" points="46.74,-221.52 46.19,-232.1 53.22,-224.18 46.74,-221.52"/>
</a>
</g>
</g>
<!-- Node4 -->
<g id="Node000004" class="node">
<title>Node4</title>
<g id="a_Node000004"><a xlink:href="classinja_1_1DataNode.html" target="_top" xlink:title=" ">
<polygon fill="white" stroke="#666666" points="411.38,-332.75 322.62,-332.75 322.62,-312 411.38,-312 411.38,-332.75"/>
<text xml:space="preserve" text-anchor="middle" x="367" y="-319.25" font-family="Helvetica,sans-Serif" font-size="10.00">inja::DataNode</text>
</a>
</g>
</g>
<!-- Node3&#45;&gt;Node4 -->
<g id="edge21_Node000003_Node000004" class="edge">
<title>Node3&#45;&gt;Node4</title>
<g id="a_edge21_Node000003_Node000004"><a xlink:title=" ">
<path fill="none" stroke="#63b8ff" d="M244.1,-259.46C247.27,-260.95 250.34,-262.59 253.25,-264.38 273.07,-276.56 269.22,-290.54 289.25,-302.38 299.33,-308.33 311.17,-312.53 322.5,-315.5"/>
<polygon fill="#63b8ff" stroke="#63b8ff" points="245.7,-256.33 235.12,-255.72 243.01,-262.8 245.7,-256.33"/>
</a>
</g>
</g>
<!-- Node5 -->
<g id="Node000005" class="node">
<title>Node5</title>
<g id="a_Node000005"><a xlink:href="classinja_1_1FunctionNode.html" target="_top" xlink:title=" ">
<polygon fill="white" stroke="#666666" points="420.38,-293.75 313.62,-293.75 313.62,-273 420.38,-273 420.38,-293.75"/>
<text xml:space="preserve" text-anchor="middle" x="367" y="-280.25" font-family="Helvetica,sans-Serif" font-size="10.00">inja::FunctionNode</text>
</a>
</g>
</g>
<!-- Node3&#45;&gt;Node5 -->
<g id="edge22_Node000003_Node000005" class="edge">
<title>Node3&#45;&gt;Node5</title>
<g id="a_edge22_Node000003_Node000005"><a xlink:title=" ">
<path fill="none" stroke="#63b8ff" d="M247.37,-257.64C269.69,-262.48 294.64,-267.89 315.89,-272.5"/>
<polygon fill="#63b8ff" stroke="#63b8ff" points="248.31,-254.26 237.8,-255.56 246.83,-261.1 248.31,-254.26"/>
</a>
</g>
</g>
<!-- Node6 -->
<g id="Node000006" class="node">
<title>Node6</title>
<g id="a_Node000006"><a xlink:href="classinja_1_1LiteralNode.html" target="_top" xlink:title=" ">
<polygon fill="white" stroke="#666666" points="415.12,-254.75 318.88,-254.75 318.88,-234 415.12,-234 415.12,-254.75"/>
<text xml:space="preserve" text-anchor="middle" x="367" y="-241.25" font-family="Helvetica,sans-Serif" font-size="10.00">inja::LiteralNode</text>
</a>
</g>
</g>
<!-- Node3&#45;&gt;Node6 -->
<g id="edge23_Node000003_Node000006" class="edge">
<title>Node3&#45;&gt;Node6</title>
<g id="a_edge23_Node000003_Node000006"><a xlink:title=" ">
<path fill="none" stroke="#63b8ff" d="M256.45,-244.38C277.2,-244.38 299.42,-244.38 318.39,-244.38"/>
<polygon fill="#63b8ff" stroke="#63b8ff" points="256.62,-240.88 246.62,-244.38 256.62,-247.88 256.62,-240.88"/>
</a>
</g>
</g>
<!-- Node8 -->
<g id="Node000008" class="node">
<title>Node8</title>
<g id="a_Node000008"><a xlink:href="classinja_1_1BlockStatementNode.html" target="_top" xlink:title=" ">
<polygon fill="white" stroke="#666666" points="438.75,-215.75 295.25,-215.75 295.25,-195 438.75,-195 438.75,-215.75"/>
<text xml:space="preserve" text-anchor="middle" x="367" y="-202.25" font-family="Helvetica,sans-Serif" font-size="10.00">inja::BlockStatementNode</text>
</a>
</g>
</g>
<!-- Node7&#45;&gt;Node8 -->
<g id="edge25_Node000007_Node000008" class="edge">
<title>Node7&#45;&gt;Node8</title>
<g id="a_edge25_Node000007_Node000008"><a xlink:title=" ">
<path fill="none" stroke="#63b8ff" d="M222.8,-161.31C242.34,-169.01 266.91,-178.26 289.25,-185.38 299.48,-188.64 310.61,-191.77 321.13,-194.54"/>
<polygon fill="#63b8ff" stroke="#63b8ff" points="224.22,-158.1 213.63,-157.65 221.63,-164.61 224.22,-158.1"/>
</a>
</g>
</g>
<!-- Node9 -->
<g id="Node000009" class="node">
<title>Node9</title>
<g id="a_Node000009"><a xlink:href="classinja_1_1ExtendsStatementNode.html" target="_top" xlink:title=" ">
<polygon fill="white" stroke="#666666" points="444.75,-176.75 289.25,-176.75 289.25,-156 444.75,-156 444.75,-176.75"/>
<text xml:space="preserve" text-anchor="middle" x="367" y="-163.25" font-family="Helvetica,sans-Serif" font-size="10.00">inja::ExtendsStatementNode</text>
</a>
</g>
</g>
<!-- Node7&#45;&gt;Node9 -->
<g id="edge26_Node000007_Node000009" class="edge">
<title>Node7&#45;&gt;Node9</title>
<g id="a_edge26_Node000007_Node000009"><a xlink:title=" ">
<path fill="none" stroke="#63b8ff" d="M254.97,-154.02C266.05,-155.25 277.58,-156.54 288.84,-157.79"/>
<polygon fill="#63b8ff" stroke="#63b8ff" points="255.45,-150.55 245.12,-152.93 254.67,-157.51 255.45,-150.55"/>
</a>
</g>
</g>
<!-- Node10 -->
<g id="Node000010" class="node">
<title>Node10</title>
<g id="a_Node000010"><a xlink:href="classinja_1_1ForStatementNode.html" target="_top" xlink:title=" ">
<polygon fill="white" stroke="#666666" points="432.75,-137.75 301.25,-137.75 301.25,-117 432.75,-117 432.75,-137.75"/>
<text xml:space="preserve" text-anchor="middle" x="367" y="-124.25" font-family="Helvetica,sans-Serif" font-size="10.00">inja::ForStatementNode</text>
</a>
</g>
</g>
<!-- Node7&#45;&gt;Node10 -->
<g id="edge27_Node000007_Node000010" class="edge">
<title>Node7&#45;&gt;Node10</title>
<g id="a_edge27_Node000007_Node000010"><a xlink:title=" ">
<path fill="none" stroke="#63b8ff" d="M254.99,-139.11C270.11,-137.51 286.09,-135.82 301.06,-134.24"/>
<polygon fill="#63b8ff" stroke="#63b8ff" points="254.7,-135.62 245.12,-140.15 255.44,-142.58 254.7,-135.62"/>
</a>
</g>
</g>
<!-- Node13 -->
<g id="Node000013" class="node">
<title>Node13</title>
<g id="a_Node000013"><a xlink:href="classinja_1_1IfStatementNode.html" target="_top" xlink:title=" ">
<polygon fill="white" stroke="#666666" points="428.62,-98.75 305.38,-98.75 305.38,-78 428.62,-78 428.62,-98.75"/>
<text xml:space="preserve" text-anchor="middle" x="367" y="-85.25" font-family="Helvetica,sans-Serif" font-size="10.00">inja::IfStatementNode</text>
</a>
</g>
</g>
<!-- Node7&#45;&gt;Node13 -->
<g id="edge30_Node000007_Node000013" class="edge">
<title>Node7&#45;&gt;Node13</title>
<g id="a_edge30_Node000007_Node000013"><a xlink:title=" ">
<path fill="none" stroke="#63b8ff" d="M237.58,-132.05C242.92,-130.27 248.22,-128.36 253.25,-126.38 269.88,-119.79 272.5,-114.66 289.25,-108.38 298.4,-104.94 308.38,-101.87 318.02,-99.23"/>
<polygon fill="#63b8ff" stroke="#63b8ff" points="236.57,-128.7 228.11,-135.08 238.7,-135.37 236.57,-128.7"/>
</a>
</g>
</g>
<!-- Node14 -->
<g id="Node000014" class="node">
<title>Node14</title>
<g id="a_Node000014"><a xlink:href="classinja_1_1IncludeStatementNode.html" target="_top" xlink:title=" ">
<polygon fill="white" stroke="#666666" points="442.88,-59.75 291.12,-59.75 291.12,-39 442.88,-39 442.88,-59.75"/>
<text xml:space="preserve" text-anchor="middle" x="367" y="-46.25" font-family="Helvetica,sans-Serif" font-size="10.00">inja::IncludeStatementNode</text>
</a>
</g>
</g>
<!-- Node7&#45;&gt;Node14 -->
<g id="edge31_Node000007_Node000014" class="edge">
<title>Node7&#45;&gt;Node14</title>
<g id="a_edge31_Node000007_Node000014"><a xlink:title=" ">
<path fill="none" stroke="#63b8ff" d="M246.93,-130.6C249.13,-129.3 251.25,-127.89 253.25,-126.38 277.13,-108.27 265.06,-87.06 289.25,-69.38 294.36,-65.64 300.12,-62.6 306.12,-60.12"/>
<polygon fill="#63b8ff" stroke="#63b8ff" points="245.58,-127.36 238.2,-134.96 248.71,-133.62 245.58,-127.36"/>
</a>
</g>
</g>
<!-- Node15 -->
<g id="Node000015" class="node">
<title>Node15</title>
<g id="a_Node000015"><a xlink:href="classinja_1_1SetStatementNode.html" target="_top" xlink:title=" ">
<polygon fill="white" stroke="#666666" points="433.12,-20.75 300.88,-20.75 300.88,0 433.12,0 433.12,-20.75"/>
<text xml:space="preserve" text-anchor="middle" x="367" y="-7.25" font-family="Helvetica,sans-Serif" font-size="10.00">inja::SetStatementNode</text>
</a>
</g>
</g>
<!-- Node7&#45;&gt;Node15 -->
<g id="edge32_Node000007_Node000015" class="edge">
<title>Node7&#45;&gt;Node15</title>
<g id="a_edge32_Node000007_Node000015"><a xlink:title=" ">
<path fill="none" stroke="#63b8ff" d="M249.32,-129.67C250.69,-128.64 252,-127.54 253.25,-126.38 286.56,-95.28 255.4,-60.88 289.25,-30.38 293.34,-26.69 298.03,-23.66 303.02,-21.19"/>
<polygon fill="#63b8ff" stroke="#63b8ff" points="247.62,-126.61 240.92,-134.82 251.28,-132.58 247.62,-126.61"/>
</a>
</g>
</g>
<!-- Node11 -->
<g id="Node000011" class="node">
<title>Node11</title>
<g id="a_Node000011"><a xlink:href="classinja_1_1ForArrayStatementNode.html" target="_top" xlink:title=" ">
<polygon fill="white" stroke="#666666" points="641.12,-156.75 483.38,-156.75 483.38,-136 641.12,-136 641.12,-156.75"/>
<text xml:space="preserve" text-anchor="middle" x="562.25" y="-143.25" font-family="Helvetica,sans-Serif" font-size="10.00">inja::ForArrayStatementNode</text>
</a>
</g>
</g>
<!-- Node10&#45;&gt;Node11 -->
<g id="edge28_Node000010_Node000011" class="edge">
<title>Node10&#45;&gt;Node11</title>
<g id="a_edge28_Node000010_Node000011"><a xlink:title=" ">
<path fill="none" stroke="#63b8ff" d="M444.59,-134.91C457.22,-136.15 470.32,-137.44 482.99,-138.68"/>
<polygon fill="#63b8ff" stroke="#63b8ff" points="444.96,-131.42 434.66,-133.93 444.27,-138.39 444.96,-131.42"/>
</a>
</g>
</g>
<!-- Node12 -->
<g id="Node000012" class="node">
<title>Node12</title>
<g id="a_Node000012"><a xlink:href="classinja_1_1ForObjectStatementNode.html" target="_top" xlink:title=" ">
<polygon fill="white" stroke="#666666" points="643.75,-117.75 480.75,-117.75 480.75,-97 643.75,-97 643.75,-117.75"/>
<text xml:space="preserve" text-anchor="middle" x="562.25" y="-104.25" font-family="Helvetica,sans-Serif" font-size="10.00">inja::ForObjectStatementNode</text>
</a>
</g>
</g>
<!-- Node10&#45;&gt;Node12 -->
<g id="edge29_Node000010_Node000012" class="edge">
<title>Node10&#45;&gt;Node12</title>
<g id="a_edge29_Node000010_Node000012"><a xlink:title=" ">
<path fill="none" stroke="#63b8ff" d="M444.32,-119.48C456.13,-118.25 468.36,-116.99 480.26,-115.76"/>
<polygon fill="#63b8ff" stroke="#63b8ff" points="444.25,-115.97 434.66,-120.48 444.97,-122.93 444.25,-115.97"/>
</a>
</g>
</g>
</g>
</svg>
