<?xml version="1.0" encoding="UTF-8" standalone="no"?>
<!DOCTYPE svg PUBLIC "-//W3C//DTD SVG 1.1//EN"
 "http://www.w3.org/Graphics/SVG/1.1/DTD/svg11.dtd">
<!-- Generated by graphviz version 2.42.4 (0)
 -->
<!-- Title: Graphical Class Hierarchy Pages: 1 -->
<svg width="330pt" height="182pt"
 viewBox="0.00 0.00 330.00 182.00" xmlns="http://www.w3.org/2000/svg" xmlns:xlink="http://www.w3.org/1999/xlink">
<g id="graph0" class="graph" transform="scale(1 1) rotate(0) translate(4 178)">
<title>Graphical Class Hierarchy</title>
<!-- Node0 -->
<g id="Node000000" class="node">
<title>Node0</title>
<g id="a_Node000000"><a xlink:title=" ">
<polygon fill="#e0e0e0" stroke="#999999" points="129,-102 0,-102 0,-72 129,-72 129,-102"/>
<text text-anchor="start" x="8" y="-90" font-family="Helvetica,sans-Serif" font-size="10.00">core::socket::stream</text>
<text text-anchor="middle" x="64.5" y="-79" font-family="Helvetica,sans-Serif" font-size="10.00">::SocketContextFactory</text>
</a>
</g>
</g>
<!-- Node1 -->
<g id="Node000001" class="node">
<title>Node1</title>
<g id="a_Node000001"><a xlink:href="classmqtt_1_1bridge_1_1SocketContextFactory.html" target="_top" xlink:title=" ">
<polygon fill="white" stroke="#666666" points="320,-174 167,-174 167,-144 320,-144 320,-174"/>
<text text-anchor="start" x="175" y="-162" font-family="Helvetica,sans-Serif" font-size="10.00">mqtt::bridge::SocketContext</text>
<text text-anchor="middle" x="243.5" y="-151" font-family="Helvetica,sans-Serif" font-size="10.00">Factory</text>
</a>
</g>
</g>
<!-- Node0&#45;&gt;Node1 -->
<g id="edge14_Node000000_Node000001" class="edge">
<title>Node0&#45;&gt;Node1</title>
<g id="a_edge14_Node000000_Node000001"><a xlink:title=" ">
<path fill="none" stroke="#63b8ff" d="M102.68,-106.57C121.13,-115.86 143.93,-126.71 165,-135 173,-138.15 181.58,-141.16 190.02,-143.91"/>
<polygon fill="#63b8ff" stroke="#63b8ff" points="104.23,-103.43 93.73,-102.02 101.06,-109.67 104.23,-103.43"/>
</a>
</g>
</g>
<!-- Node2 -->
<g id="Node000002" class="node">
<title>Node2</title>
<g id="a_Node000002"><a xlink:href="classmqtt_1_1mqttbroker_1_1SocketContextFactory.html" target="_top" xlink:title=" ">
<polygon fill="white" stroke="#666666" points="312.5,-126 174.5,-126 174.5,-96 312.5,-96 312.5,-126"/>
<text text-anchor="start" x="182.5" y="-114" font-family="Helvetica,sans-Serif" font-size="10.00">mqtt::mqttbroker::Socket</text>
<text text-anchor="middle" x="243.5" y="-103" font-family="Helvetica,sans-Serif" font-size="10.00">ContextFactory</text>
</a>
</g>
</g>
<!-- Node0&#45;&gt;Node2 -->
<g id="edge15_Node000000_Node000002" class="edge">
<title>Node0&#45;&gt;Node2</title>
<g id="a_edge15_Node000000_Node000002"><a xlink:title=" ">
<path fill="none" stroke="#63b8ff" d="M139.42,-97.02C150.95,-98.59 162.82,-100.2 174.21,-101.74"/>
<polygon fill="#63b8ff" stroke="#63b8ff" points="139.78,-93.54 129.4,-95.66 138.84,-100.48 139.78,-93.54"/>
</a>
</g>
</g>
<!-- Node3 -->
<g id="Node000003" class="node">
<title>Node3</title>
<g id="a_Node000003"><a xlink:href="classmqtt_1_1mqttcli_1_1SocketContextFactory.html" target="_top" xlink:title=" ">
<polygon fill="white" stroke="#666666" points="322,-78 165,-78 165,-48 322,-48 322,-78"/>
<text text-anchor="start" x="173" y="-66" font-family="Helvetica,sans-Serif" font-size="10.00">mqtt::mqttcli::SocketContext</text>
<text text-anchor="middle" x="243.5" y="-55" font-family="Helvetica,sans-Serif" font-size="10.00">Factory</text>
</a>
</g>
</g>
<!-- Node0&#45;&gt;Node3 -->
<g id="edge16_Node000000_Node000003" class="edge">
<title>Node0&#45;&gt;Node3</title>
<g id="a_edge16_Node000000_Node000003"><a xlink:title=" ">
<path fill="none" stroke="#63b8ff" d="M139.49,-76.97C147.85,-75.83 156.39,-74.68 164.8,-73.54"/>
<polygon fill="#63b8ff" stroke="#63b8ff" points="138.84,-73.52 129.4,-78.34 139.78,-80.46 138.84,-73.52"/>
</a>
</g>
</g>
<!-- Node4 -->
<g id="Node000004" class="node">
<title>Node4</title>
<g id="a_Node000004"><a xlink:href="classmqtt_1_1mqttintegrator_1_1SocketContextFactory.html" target="_top" xlink:title=" ">
<polygon fill="white" stroke="#666666" points="308,-30 179,-30 179,0 308,0 308,-30"/>
<text text-anchor="start" x="187" y="-18" font-family="Helvetica,sans-Serif" font-size="10.00">mqtt::mqttintegrator</text>
<text text-anchor="middle" x="243.5" y="-7" font-family="Helvetica,sans-Serif" font-size="10.00">::SocketContextFactory</text>
</a>
</g>
</g>
<!-- Node0&#45;&gt;Node4 -->
<g id="edge17_Node000000_Node000004" class="edge">
<title>Node0&#45;&gt;Node4</title>
<g id="a_edge17_Node000000_Node000004"><a xlink:title=" ">
<path fill="none" stroke="#63b8ff" d="M102.68,-67.43C121.13,-58.14 143.93,-47.29 165,-39 173,-35.85 181.58,-32.84 190.02,-30.09"/>
<polygon fill="#63b8ff" stroke="#63b8ff" points="101.06,-64.33 93.73,-71.98 104.23,-70.57 101.06,-64.33"/>
</a>
</g>
</g>
</g>
</svg>
