<?xml version="1.0" encoding="UTF-8" standalone="no"?>
<!DOCTYPE svg PUBLIC "-//W3C//DTD SVG 1.1//EN"
 "http://www.w3.org/Graphics/SVG/1.1/DTD/svg11.dtd">
<!-- Generated by graphviz version 14.1.1 (0)
 -->
<!-- Title: Graphical Class Hierarchy Pages: 1 -->
<svg width="299pt" height="68pt"
 viewBox="0.00 0.00 299.00 68.00" xmlns="http://www.w3.org/2000/svg" xmlns:xlink="http://www.w3.org/1999/xlink">
<g id="graph0" class="graph" transform="scale(1 1) rotate(0) translate(4 63.75)">
<title>Graphical Class Hierarchy</title>
<!-- Node0 -->
<g id="Node000000" class="node">
<title>Node0</title>
<g id="a_Node000000"><a xlink:href="structmqtt_1_1lib_1_1FunctionBase.html" target="_top" xlink:title=" ">
<polygon fill="white" stroke="#666666" points="128.5,-39.75 0,-39.75 0,-19 128.5,-19 128.5,-39.75"/>
<text xml:space="preserve" text-anchor="middle" x="64.25" y="-26.25" font-family="Helvetica,sans-Serif" font-size="10.00">mqtt::lib::FunctionBase</text>
</a>
</g>
</g>
<!-- Node1 -->
<g id="Node000001" class="node">
<title>Node1</title>
<g id="a_Node000001"><a xlink:href="structmqtt_1_1lib_1_1Function.html" target="_top" xlink:title=" ">
<polygon fill="white" stroke="#666666" points="279.88,-59.75 175.38,-59.75 175.38,-39 279.88,-39 279.88,-59.75"/>
<text xml:space="preserve" text-anchor="middle" x="227.62" y="-46.25" font-family="Helvetica,sans-Serif" font-size="10.00">mqtt::lib::Function</text>
</a>
</g>
</g>
<!-- Node0&#45;&gt;Node1 -->
<g id="edge42_Node000000_Node000001" class="edge">
<title>Node0&#45;&gt;Node1</title>
<g id="a_edge42_Node000000_Node000001"><a xlink:title=" ">
<path fill="none" stroke="#63b8ff" d="M139.85,-38.62C151.71,-40.09 163.75,-41.58 174.93,-42.97"/>
<polygon fill="#63b8ff" stroke="#63b8ff" points="140.42,-35.16 130.07,-37.41 139.56,-42.11 140.42,-35.16"/>
</a>
</g>
</g>
<!-- Node2 -->
<g id="Node000002" class="node">
<title>Node2</title>
<g id="a_Node000002"><a xlink:href="structmqtt_1_1lib_1_1VoidFunction.html" target="_top" xlink:title=" ">
<polygon fill="white" stroke="#666666" points="290.75,-20.75 164.5,-20.75 164.5,0 290.75,0 290.75,-20.75"/>
<text xml:space="preserve" text-anchor="middle" x="227.62" y="-7.25" font-family="Helvetica,sans-Serif" font-size="10.00">mqtt::lib::VoidFunction</text>
</a>
</g>
</g>
<!-- Node0&#45;&gt;Node2 -->
<g id="edge43_Node000000_Node000002" class="edge">
<title>Node0&#45;&gt;Node2</title>
<g id="a_edge43_Node000000_Node000002"><a xlink:title=" ">
<path fill="none" stroke="#63b8ff" d="M139.89,-20.59C147.96,-19.64 156.11,-18.68 164.02,-17.75"/>
<polygon fill="#63b8ff" stroke="#63b8ff" points="139.59,-17.1 130.07,-21.74 140.41,-24.05 139.59,-17.1"/>
</a>
</g>
</g>
</g>
</svg>
