<?xml version="1.0" encoding="UTF-8" standalone="no"?>
<!DOCTYPE svg PUBLIC "-//W3C//DTD SVG 1.1//EN"
 "http://www.w3.org/Graphics/SVG/1.1/DTD/svg11.dtd">
<!-- Generated by graphviz version 14.1.2 (0)
 -->
<!-- Title: Graphical Class Hierarchy Pages: 1 -->
<svg width="258pt" height="68pt"
 viewBox="0.00 0.00 258.00 68.00" xmlns="http://www.w3.org/2000/svg" xmlns:xlink="http://www.w3.org/1999/xlink">
<g id="graph0" class="graph" transform="scale(1 1) rotate(0) translate(4 63.75)">
<title>Graphical Class Hierarchy</title>
<!-- Node0 -->
<g id="Node000000" class="node">
<title>Node0</title>
<g id="a_Node000000"><a xlink:href="classinja_1_1NodeVisitor.html" target="_top" xlink:title=" ">
<polygon fill="white" stroke="#666666" points="97,-39.75 0,-39.75 0,-19 97,-19 97,-39.75"/>
<text xml:space="preserve" text-anchor="middle" x="48.5" y="-26.25" font-family="Helvetica,sans-Serif" font-size="10.00">inja::NodeVisitor</text>
</a>
</g>
</g>
<!-- Node1 -->
<g id="Node000001" class="node">
<title>Node1</title>
<g id="a_Node000001"><a xlink:href="classinja_1_1Renderer.html" target="_top" xlink:title="Class for rendering a Template with data.">
<polygon fill="white" stroke="#666666" points="233.38,-59.75 149.12,-59.75 149.12,-39 233.38,-39 233.38,-59.75"/>
<text xml:space="preserve" text-anchor="middle" x="191.25" y="-46.25" font-family="Helvetica,sans-Serif" font-size="10.00">inja::Renderer</text>
</a>
</g>
</g>
<!-- Node0&#45;&gt;Node1 -->
<g id="edge34_Node000000_Node000001" class="edge">
<title>Node0&#45;&gt;Node1</title>
<g id="a_edge34_Node000000_Node000001"><a xlink:title=" ">
<path fill="none" stroke="#63b8ff" d="M108.37,-37.74C121.95,-39.67 136.11,-41.68 148.77,-43.48"/>
<polygon fill="#63b8ff" stroke="#63b8ff" points="109.04,-34.3 98.65,-36.36 108.06,-41.23 109.04,-34.3"/>
</a>
</g>
</g>
<!-- Node2 -->
<g id="Node000002" class="node">
<title>Node2</title>
<g id="a_Node000002"><a xlink:href="classinja_1_1StatisticsVisitor.html" target="_top" xlink:title="A class for counting statistics on a Template.">
<polygon fill="white" stroke="#666666" points="249.5,-20.75 133,-20.75 133,0 249.5,0 249.5,-20.75"/>
<text xml:space="preserve" text-anchor="middle" x="191.25" y="-7.25" font-family="Helvetica,sans-Serif" font-size="10.00">inja::StatisticsVisitor</text>
</a>
</g>
</g>
<!-- Node0&#45;&gt;Node2 -->
<g id="edge35_Node000000_Node000002" class="edge">
<title>Node0&#45;&gt;Node2</title>
<g id="a_edge35_Node000000_Node000002"><a xlink:title=" ">
<path fill="none" stroke="#63b8ff" d="M108.42,-21.42C116.52,-20.33 124.83,-19.21 132.9,-18.12"/>
<polygon fill="#63b8ff" stroke="#63b8ff" points="108.09,-17.93 98.65,-22.74 109.03,-24.87 108.09,-17.93"/>
</a>
</g>
</g>
</g>
</svg>
