<?xml version="1.0" encoding="UTF-8" standalone="no"?>
<!DOCTYPE svg PUBLIC "-//W3C//DTD SVG 1.1//EN"
 "http://www.w3.org/Graphics/SVG/1.1/DTD/svg11.dtd">
<!-- Generated by graphviz version 14.1.1 (0)
 -->
<!-- Title: lib/inja.hpp Pages: 1 -->
<svg width="280pt" height="168pt"
 viewBox="0.00 0.00 280.00 168.00" xmlns="http://www.w3.org/2000/svg" xmlns:xlink="http://www.w3.org/1999/xlink">
<g id="graph0" class="graph" transform="scale(1 1) rotate(0) translate(4 163.75)">
<title>lib/inja.hpp</title>
<!-- Node1 -->
<g id="Node000001" class="node">
<title>Node1</title>
<g id="a_Node000001"><a xlink:title=" ">
<polygon fill="#999999" stroke="#666666" points="160,-159.75 90,-159.75 90,-139 160,-139 160,-159.75"/>
<text xml:space="preserve" text-anchor="middle" x="125" y="-146.25" font-family="Helvetica,sans-Serif" font-size="10.00">lib/inja.hpp</text>
</a>
</g>
</g>
<!-- Node2 -->
<g id="Node000002" class="node">
<title>Node2</title>
<g id="a_Node000002"><a xlink:href="Storage_8h.html" target="_top" xlink:title=" ">
<polygon fill="white" stroke="#666666" points="106,-103 0,-103 0,-69.5 106,-69.5 106,-103"/>
<text xml:space="preserve" text-anchor="start" x="8" y="-89.5" font-family="Helvetica,sans-Serif" font-size="10.00">lib/plugins/storage</text>
<text xml:space="preserve" text-anchor="middle" x="53" y="-76.75" font-family="Helvetica,sans-Serif" font-size="10.00">/Storage.h</text>
</a>
</g>
</g>
<!-- Node1&#45;&gt;Node2 -->
<g id="edge1_Node000001_Node000002" class="edge">
<title>Node1&#45;&gt;Node2</title>
<g id="a_edge1_Node000001_Node000002"><a xlink:title=" ">
<path fill="none" stroke="#63b8ff" d="M104.76,-131.19C94.53,-122.51 82.19,-112.03 72.12,-103.48"/>
<polygon fill="#63b8ff" stroke="#63b8ff" points="102.39,-133.77 112.28,-137.57 106.92,-128.43 102.39,-133.77"/>
</a>
</g>
</g>
<!-- Node4 -->
<g id="Node000004" class="node">
<title>Node4</title>
<g id="a_Node000004"><a xlink:href="mqttbroker_8cpp.html" target="_top" xlink:title=" ">
<polygon fill="white" stroke="#666666" points="271.62,-96.62 124.38,-96.62 124.38,-75.88 271.62,-75.88 271.62,-96.62"/>
<text xml:space="preserve" text-anchor="middle" x="198" y="-83.12" font-family="Helvetica,sans-Serif" font-size="10.00">mqttbroker/mqttbroker.cpp</text>
</a>
</g>
</g>
<!-- Node1&#45;&gt;Node4 -->
<g id="edge3_Node000001_Node000004" class="edge">
<title>Node1&#45;&gt;Node4</title>
<g id="a_edge3_Node000001_Node000004"><a xlink:title=" ">
<path fill="none" stroke="#63b8ff" d="M145.25,-131.42C158.56,-120.27 175.5,-106.09 186.54,-96.84"/>
<polygon fill="#63b8ff" stroke="#63b8ff" points="143.31,-128.48 137.89,-137.58 147.8,-133.85 143.31,-128.48"/>
</a>
</g>
</g>
<!-- Node3 -->
<g id="Node000003" class="node">
<title>Node3</title>
<g id="a_Node000003"><a xlink:href="Storage_8cpp.html" target="_top" xlink:title=" ">
<polygon fill="white" stroke="#666666" points="106,-33.5 0,-33.5 0,0 106,0 106,-33.5"/>
<text xml:space="preserve" text-anchor="start" x="8" y="-20" font-family="Helvetica,sans-Serif" font-size="10.00">lib/plugins/storage</text>
<text xml:space="preserve" text-anchor="middle" x="53" y="-7.25" font-family="Helvetica,sans-Serif" font-size="10.00">/Storage.cpp</text>
</a>
</g>
</g>
<!-- Node2&#45;&gt;Node3 -->
<g id="edge2_Node000002_Node000003" class="edge">
<title>Node2&#45;&gt;Node3</title>
<g id="a_edge2_Node000002_Node000003"><a xlink:title=" ">
<path fill="none" stroke="#63b8ff" d="M53,-57.81C53,-49.59 53,-40.84 53,-33.63"/>
<polygon fill="#63b8ff" stroke="#63b8ff" points="49.5,-57.74 53,-67.74 56.5,-57.74 49.5,-57.74"/>
</a>
</g>
</g>
</g>
</svg>
