<?xml version="1.0" encoding="UTF-8" standalone="no"?>
<!DOCTYPE svg PUBLIC "-//W3C//DTD SVG 1.1//EN"
 "http://www.w3.org/Graphics/SVG/1.1/DTD/svg11.dtd">
<!-- Generated by graphviz version 14.1.2 (0)
 -->
<!-- Title: main Pages: 1 -->
<svg width="708pt" height="248pt"
 viewBox="0.00 0.00 708.00 248.00" xmlns="http://www.w3.org/2000/svg" xmlns:xlink="http://www.w3.org/1999/xlink">
<g id="graph0" class="graph" transform="scale(1 1) rotate(0) translate(4 243.88)">
<title>main</title>
<!-- Node1 -->
<g id="Node000001" class="node">
<title>Node1</title>
<g id="a_Node000001"><a xlink:title=" ">
<polygon fill="#999999" stroke="#666666" points="40.75,-168.5 0,-168.5 0,-147.75 40.75,-147.75 40.75,-168.5"/>
<text xml:space="preserve" text-anchor="middle" x="20.38" y="-155" font-family="Helvetica,sans-Serif" font-size="10.00">main</text>
</a>
</g>
</g>
<!-- Node2 -->
<g id="Node000002" class="node">
<title>Node2</title>
<g id="a_Node000002"><a xlink:href="classanonymous__namespace_02issue-70-root-schema-constructor_8cpp_03_1_1store__ptr__err__handler.html#a3c865eb04befc464fa20800f42b5845d" target="_top" xlink:title=" ">
<polygon fill="white" stroke="#666666" points="212.38,-219.62 77.88,-219.62 77.88,-160.62 212.38,-160.62 212.38,-219.62"/>
<text xml:space="preserve" text-anchor="start" x="85.88" y="-206.12" font-family="Helvetica,sans-Serif" font-size="10.00">anonymous_namespace</text>
<text xml:space="preserve" text-anchor="start" x="85.88" y="-193.38" font-family="Helvetica,sans-Serif" font-size="10.00">{issue&#45;70&#45;root&#45;schema</text>
<text xml:space="preserve" text-anchor="start" x="85.88" y="-180.62" font-family="Helvetica,sans-Serif" font-size="10.00">&#45;constructor::cpp}::store</text>
<text xml:space="preserve" text-anchor="middle" x="145.12" y="-167.88" font-family="Helvetica,sans-Serif" font-size="10.00">_ptr_err_handler::reset</text>
</a>
</g>
</g>
<!-- Node1&#45;&gt;Node2 -->
<g id="edge1_Node000001_Node000002" class="edge">
<title>Node1&#45;&gt;Node2</title>
<g id="a_edge1_Node000001_Node000002"><a xlink:title=" ">
<path fill="none" stroke="#63b8ff" d="M41.1,-163.27C48.35,-165.16 57.08,-167.43 66.35,-169.85"/>
<polygon fill="#63b8ff" stroke="#63b8ff" points="65.4,-173.22 75.96,-172.35 67.16,-166.44 65.4,-173.22"/>
</a>
</g>
</g>
<!-- Node4 -->
<g id="Node000004" class="node">
<title>Node4</title>
<g id="a_Node000004"><a xlink:href="classnlohmann_1_1json__schema_1_1json__validator.html#ae330a21f43f257fec1d8109f51827706" target="_top" xlink:title=" ">
<polygon fill="white" stroke="#666666" points="213.5,-142.88 76.75,-142.88 76.75,-109.38 213.5,-109.38 213.5,-142.88"/>
<text xml:space="preserve" text-anchor="start" x="84.75" y="-129.38" font-family="Helvetica,sans-Serif" font-size="10.00">nlohmann::json_schema</text>
<text xml:space="preserve" text-anchor="middle" x="145.12" y="-116.62" font-family="Helvetica,sans-Serif" font-size="10.00">::json_validator::validate</text>
</a>
</g>
</g>
<!-- Node1&#45;&gt;Node4 -->
<g id="edge3_Node000001_Node000004" class="edge">
<title>Node1&#45;&gt;Node4</title>
<g id="a_edge3_Node000001_Node000004"><a xlink:title=" ">
<path fill="none" stroke="#63b8ff" d="M41.1,-152.98C48.53,-151.05 57.51,-148.7 67.03,-146.22"/>
<polygon fill="#63b8ff" stroke="#63b8ff" points="67.7,-149.67 76.49,-143.76 65.93,-142.89 67.7,-149.67"/>
</a>
</g>
</g>
<!-- Node3 -->
<g id="Node000003" class="node">
<title>Node3</title>
<g id="a_Node000003"><a xlink:href="classnlohmann_1_1json__schema_1_1basic__error__handler.html#ac174744b79e01d843276b3c47d5b62ad" target="_top" xlink:title=" ">
<polygon fill="white" stroke="#666666" points="384,-213.25 249.5,-213.25 249.5,-167 384,-167 384,-213.25"/>
<text xml:space="preserve" text-anchor="start" x="257.5" y="-199.75" font-family="Helvetica,sans-Serif" font-size="10.00">nlohmann::json_schema</text>
<text xml:space="preserve" text-anchor="start" x="257.5" y="-187" font-family="Helvetica,sans-Serif" font-size="10.00">::basic_error_handler</text>
<text xml:space="preserve" text-anchor="middle" x="316.75" y="-174.25" font-family="Helvetica,sans-Serif" font-size="10.00">::reset</text>
</a>
</g>
</g>
<!-- Node2&#45;&gt;Node3 -->
<g id="edge2_Node000002_Node000003" class="edge">
<title>Node2&#45;&gt;Node3</title>
<g id="a_edge2_Node000002_Node000003"><a xlink:title=" ">
<path fill="none" stroke="#63b8ff" d="M212.68,-190.12C220.91,-190.12 229.38,-190.12 237.77,-190.12"/>
<polygon fill="#63b8ff" stroke="#63b8ff" points="237.6,-193.63 247.6,-190.13 237.6,-186.63 237.6,-193.63"/>
</a>
</g>
</g>
<!-- Node5 -->
<g id="Node000005" class="node">
<title>Node5</title>
<g id="a_Node000005"><a xlink:href="classnlohmann_1_1json__schema_1_1root__schema.html#a32f6012c2d81f29ca16e4409dd2b5ea3" target="_top" xlink:title=" ">
<polygon fill="white" stroke="#666666" points="384,-142.88 249.5,-142.88 249.5,-109.38 384,-109.38 384,-142.88"/>
<text xml:space="preserve" text-anchor="start" x="257.5" y="-129.38" font-family="Helvetica,sans-Serif" font-size="10.00">nlohmann::json_schema</text>
<text xml:space="preserve" text-anchor="middle" x="316.75" y="-116.62" font-family="Helvetica,sans-Serif" font-size="10.00">::root_schema::validate</text>
</a>
</g>
</g>
<!-- Node4&#45;&gt;Node5 -->
<g id="edge4_Node000004_Node000005" class="edge">
<title>Node4&#45;&gt;Node5</title>
<g id="a_edge4_Node000004_Node000005"><a xlink:title=" ">
<path fill="none" stroke="#63b8ff" d="M213.65,-126.12C221.56,-126.12 229.69,-126.12 237.73,-126.12"/>
<polygon fill="#63b8ff" stroke="#63b8ff" points="237.49,-129.63 247.49,-126.13 237.49,-122.63 237.49,-129.63"/>
</a>
</g>
</g>
<!-- Node6 -->
<g id="Node000006" class="node">
<title>Node6</title>
<g id="a_Node000006"><a xlink:href="classnlohmann_1_1json__schema_1_1error__handler.html#a6518c4580b8dd8063000e183f1541650" target="_top" xlink:title=" ">
<polygon fill="white" stroke="#666666" points="554.5,-239.88 420,-239.88 420,-206.38 554.5,-206.38 554.5,-239.88"/>
<text xml:space="preserve" text-anchor="start" x="428" y="-226.38" font-family="Helvetica,sans-Serif" font-size="10.00">nlohmann::json_schema</text>
<text xml:space="preserve" text-anchor="middle" x="487.25" y="-213.62" font-family="Helvetica,sans-Serif" font-size="10.00">::error_handler::error</text>
</a>
</g>
</g>
<!-- Node5&#45;&gt;Node6 -->
<g id="edge5_Node000005_Node000006" class="edge">
<title>Node5&#45;&gt;Node6</title>
<g id="a_edge5_Node000005_Node000006"><a xlink:title=" ">
<path fill="none" stroke="#63b8ff" d="M359.43,-143.29C367.9,-147.59 376.51,-152.57 384,-158.12 402.95,-172.17 400.53,-183.81 420,-197.12 421.8,-198.35 423.66,-199.54 425.57,-200.67"/>
<polygon fill="#63b8ff" stroke="#63b8ff" points="423.67,-203.62 434.13,-205.27 426.98,-197.46 423.67,-203.62"/>
</a>
</g>
</g>
<!-- Node7 -->
<g id="Node000007" class="node">
<title>Node7</title>
<g id="a_Node000007"><a xlink:href="classnlohmann_1_1json__uri.html#a21ba5d6a76804eabd867a2d03370c945" target="_top" xlink:title=" ">
<polygon fill="white" stroke="#666666" points="541.75,-187.88 432.75,-187.88 432.75,-154.38 541.75,-154.38 541.75,-187.88"/>
<text xml:space="preserve" text-anchor="start" x="440.75" y="-174.38" font-family="Helvetica,sans-Serif" font-size="10.00">nlohmann::json_uri</text>
<text xml:space="preserve" text-anchor="middle" x="487.25" y="-161.62" font-family="Helvetica,sans-Serif" font-size="10.00">::fragment</text>
</a>
</g>
</g>
<!-- Node5&#45;&gt;Node7 -->
<g id="edge6_Node000005_Node000007" class="edge">
<title>Node5&#45;&gt;Node7</title>
<g id="a_edge6_Node000005_Node000007"><a xlink:title=" ">
<path fill="none" stroke="#63b8ff" d="M381.93,-143.27C394.94,-146.74 408.62,-150.39 421.64,-153.87"/>
<polygon fill="#63b8ff" stroke="#63b8ff" points="420.37,-157.15 430.93,-156.35 422.17,-150.39 420.37,-157.15"/>
</a>
</g>
</g>
<!-- Node8 -->
<g id="Node000008" class="node">
<title>Node8</title>
<g id="a_Node000008"><a xlink:href="classnlohmann_1_1json__uri.html#a63674f908919cb2496e772e864be35de" target="_top" xlink:title=" ">
<polygon fill="white" stroke="#666666" points="699.5,-119.88 590.5,-119.88 590.5,-86.38 699.5,-86.38 699.5,-119.88"/>
<text xml:space="preserve" text-anchor="start" x="598.5" y="-106.38" font-family="Helvetica,sans-Serif" font-size="10.00">nlohmann::json_uri</text>
<text xml:space="preserve" text-anchor="middle" x="645" y="-93.62" font-family="Helvetica,sans-Serif" font-size="10.00">::location</text>
</a>
</g>
</g>
<!-- Node5&#45;&gt;Node8 -->
<g id="edge7_Node000005_Node000008" class="edge">
<title>Node5&#45;&gt;Node8</title>
<g id="a_edge7_Node000005_Node000008"><a xlink:title=" ">
<path fill="none" stroke="#63b8ff" d="M384.16,-121.44C440.99,-117.44 522.31,-111.7 578.79,-107.72"/>
<polygon fill="#63b8ff" stroke="#63b8ff" points="578.85,-111.23 588.58,-107.03 578.36,-104.24 578.85,-111.23"/>
</a>
</g>
</g>
<!-- Node9 -->
<g id="Node000009" class="node">
<title>Node9</title>
<g id="a_Node000009"><a xlink:href="classnlohmann_1_1json__uri.html#a416eb06b53676b215761f43200da309f" target="_top" xlink:title=" ">
<polygon fill="white" stroke="#666666" points="541.75,-97.88 432.75,-97.88 432.75,-64.38 541.75,-64.38 541.75,-97.88"/>
<text xml:space="preserve" text-anchor="start" x="440.75" y="-84.38" font-family="Helvetica,sans-Serif" font-size="10.00">nlohmann::json_uri</text>
<text xml:space="preserve" text-anchor="middle" x="487.25" y="-71.62" font-family="Helvetica,sans-Serif" font-size="10.00">::to_string</text>
</a>
</g>
</g>
<!-- Node5&#45;&gt;Node9 -->
<g id="edge8_Node000005_Node000009" class="edge">
<title>Node5&#45;&gt;Node9</title>
<g id="a_edge8_Node000005_Node000009"><a xlink:title=" ">
<path fill="none" stroke="#63b8ff" d="M381.93,-108.98C394.94,-105.51 408.62,-101.86 421.64,-98.38"/>
<polygon fill="#63b8ff" stroke="#63b8ff" points="422.17,-101.86 430.93,-95.9 420.37,-95.1 422.17,-101.86"/>
</a>
</g>
</g>
<!-- Node10 -->
<g id="Node000010" class="node">
<title>Node10</title>
<g id="a_Node000010"><a xlink:href="classanonymous__namespace_02json-validator_8cpp_03_1_1schema.html#a2509ace246d9dcec607e75377753a5ea" target="_top" xlink:title=" ">
<polygon fill="white" stroke="#666666" points="554.5,-46.25 420,-46.25 420,0 554.5,0 554.5,-46.25"/>
<text xml:space="preserve" text-anchor="start" x="428" y="-32.75" font-family="Helvetica,sans-Serif" font-size="10.00">anonymous_namespace</text>
<text xml:space="preserve" text-anchor="start" x="428" y="-20" font-family="Helvetica,sans-Serif" font-size="10.00">{json&#45;validator::cpp}</text>
<text xml:space="preserve" text-anchor="middle" x="487.25" y="-7.25" font-family="Helvetica,sans-Serif" font-size="10.00">::schema::validate</text>
</a>
</g>
</g>
<!-- Node5&#45;&gt;Node10 -->
<g id="edge10_Node000005_Node000010" class="edge">
<title>Node5&#45;&gt;Node10</title>
<g id="a_edge10_Node000005_Node000010"><a xlink:title=" ">
<path fill="none" stroke="#63b8ff" d="M340.22,-108.99C360.5,-93.9 391.44,-71.8 420,-55.12 421.86,-54.04 423.77,-52.96 425.7,-51.88"/>
<polygon fill="#63b8ff" stroke="#63b8ff" points="427.05,-55.13 434.2,-47.32 423.74,-48.96 427.05,-55.13"/>
</a>
</g>
</g>
<!-- Node9&#45;&gt;Node8 -->
<g id="edge9_Node000009_Node000008" class="edge">
<title>Node9&#45;&gt;Node8</title>
<g id="a_edge9_Node000009_Node000008"><a xlink:title=" ">
<path fill="none" stroke="#63b8ff" d="M541.85,-88.7C553.77,-90.38 566.54,-92.18 578.87,-93.93"/>
<polygon fill="#63b8ff" stroke="#63b8ff" points="578.15,-97.36 588.54,-95.29 579.13,-90.43 578.15,-97.36"/>
</a>
</g>
</g>
</g>
</svg>
