<?xml version="1.0" encoding="UTF-8" standalone="no"?>
<!DOCTYPE svg PUBLIC "-//W3C//DTD SVG 1.1//EN"
 "http://www.w3.org/Graphics/SVG/1.1/DTD/svg11.dtd">
<!-- Generated by graphviz version 14.1.1 (0)
 -->
<!-- Title: main Pages: 1 -->
<svg width="1498pt" height="696pt"
 viewBox="0.00 0.00 1498.00 696.00" xmlns="http://www.w3.org/2000/svg" xmlns:xlink="http://www.w3.org/1999/xlink">
<g id="graph0" class="graph" transform="scale(1 1) rotate(0) translate(4 691.88)">
<title>main</title>
<!-- Node1 -->
<g id="Node000001" class="node">
<title>Node1</title>
<g id="a_Node000001"><a xlink:title=" ">
<polygon fill="#999999" stroke="#666666" points="40.75,-271.5 0,-271.5 0,-250.75 40.75,-250.75 40.75,-271.5"/>
<text xml:space="preserve" text-anchor="middle" x="20.38" y="-258" font-family="Helvetica,sans-Serif" font-size="10.00">main</text>
</a>
</g>
</g>
<!-- Node2 -->
<g id="Node000002" class="node">
<title>Node2</title>
<g id="a_Node000002"><a xlink:href="namespaceanonymous__namespace_02issue-105-verbose-combination-errors_8cpp_03.html#a4b7578a08dda4165bf9c386de4bc2bed" target="_top" xlink:title=" ">
<polygon fill="white" stroke="#666666" points="253.25,-316.25 76.75,-316.25 76.75,-270 253.25,-270 253.25,-316.25"/>
<text xml:space="preserve" text-anchor="start" x="84.75" y="-302.75" font-family="Helvetica,sans-Serif" font-size="10.00">anonymous_namespace</text>
<text xml:space="preserve" text-anchor="start" x="84.75" y="-290" font-family="Helvetica,sans-Serif" font-size="10.00">{issue&#45;105&#45;verbose&#45;combination</text>
<text xml:space="preserve" text-anchor="middle" x="165" y="-277.25" font-family="Helvetica,sans-Serif" font-size="10.00">&#45;errors::cpp}::simpleTest</text>
</a>
</g>
</g>
<!-- Node1&#45;&gt;Node2 -->
<g id="edge1_Node000001_Node000002" class="edge">
<title>Node1&#45;&gt;Node2</title>
<g id="a_edge1_Node000001_Node000002"><a xlink:title=" ">
<path fill="none" stroke="#63b8ff" d="M41.21,-265.57C48.06,-267.11 56.28,-268.96 65.17,-270.95"/>
<polygon fill="#63b8ff" stroke="#63b8ff" points="64.3,-274.34 74.82,-273.12 65.83,-267.51 64.3,-274.34"/>
</a>
</g>
</g>
<!-- Node27 -->
<g id="Node000027" class="node">
<title>Node27</title>
<g id="a_Node000027"><a xlink:href="namespaceanonymous__namespace_02issue-105-verbose-combination-errors_8cpp_03.html#a6c5072c56623259eab0124fc223a4bfc" target="_top" xlink:title=" ">
<polygon fill="white" stroke="#666666" points="253.25,-252.25 76.75,-252.25 76.75,-206 253.25,-206 253.25,-252.25"/>
<text xml:space="preserve" text-anchor="start" x="84.75" y="-238.75" font-family="Helvetica,sans-Serif" font-size="10.00">anonymous_namespace</text>
<text xml:space="preserve" text-anchor="start" x="84.75" y="-226" font-family="Helvetica,sans-Serif" font-size="10.00">{issue&#45;105&#45;verbose&#45;combination</text>
<text xml:space="preserve" text-anchor="middle" x="165" y="-213.25" font-family="Helvetica,sans-Serif" font-size="10.00">&#45;errors::cpp}::verboseTest</text>
</a>
</g>
</g>
<!-- Node1&#45;&gt;Node27 -->
<g id="edge44_Node000001_Node000027" class="edge">
<title>Node1&#45;&gt;Node27</title>
<g id="a_edge44_Node000001_Node000027"><a xlink:title=" ">
<path fill="none" stroke="#63b8ff" d="M41.21,-256.68C48.06,-255.14 56.28,-253.29 65.17,-251.3"/>
<polygon fill="#63b8ff" stroke="#63b8ff" points="65.83,-254.74 74.82,-249.13 64.3,-247.91 65.83,-254.74"/>
</a>
</g>
</g>
<!-- Node3 -->
<g id="Node000003" class="node">
<title>Node3</title>
<g id="a_Node000003"><a xlink:href="namespaceanonymous__namespace_02issue-105-verbose-combination-errors_8cpp_03.html#adfbd7ec30d423e477bb7ebbc5b622e57" target="_top" xlink:title=" ">
<polygon fill="white" stroke="#666666" points="465.75,-252.25 289.25,-252.25 289.25,-206 465.75,-206 465.75,-252.25"/>
<text xml:space="preserve" text-anchor="start" x="297.25" y="-238.75" font-family="Helvetica,sans-Serif" font-size="10.00">anonymous_namespace</text>
<text xml:space="preserve" text-anchor="start" x="297.25" y="-226" font-family="Helvetica,sans-Serif" font-size="10.00">{issue&#45;105&#45;verbose&#45;combination</text>
<text xml:space="preserve" text-anchor="middle" x="377.5" y="-213.25" font-family="Helvetica,sans-Serif" font-size="10.00">&#45;errors::cpp}::generateSchema</text>
</a>
</g>
</g>
<!-- Node2&#45;&gt;Node3 -->
<g id="edge2_Node000002_Node000003" class="edge">
<title>Node2&#45;&gt;Node3</title>
<g id="a_edge2_Node000002_Node000003"><a xlink:title=" ">
<path fill="none" stroke="#63b8ff" d="M243.49,-269.57C258.01,-265.15 273.3,-260.5 288.13,-255.99"/>
<polygon fill="#63b8ff" stroke="#63b8ff" points="288.83,-259.44 297.38,-253.18 286.79,-252.74 288.83,-259.44"/>
</a>
</g>
</g>
<!-- Node4 -->
<g id="Node000004" class="node">
<title>Node4</title>
<g id="a_Node000004"><a xlink:href="namespaceanonymous__namespace_02issue-105-verbose-combination-errors_8cpp_03.html#aac01a47f2fba02b0abf2b01abd983dc6" target="_top" xlink:title=" ">
<polygon fill="white" stroke="#666666" points="465.75,-380.25 289.25,-380.25 289.25,-334 465.75,-334 465.75,-380.25"/>
<text xml:space="preserve" text-anchor="start" x="297.25" y="-366.75" font-family="Helvetica,sans-Serif" font-size="10.00">anonymous_namespace</text>
<text xml:space="preserve" text-anchor="start" x="297.25" y="-354" font-family="Helvetica,sans-Serif" font-size="10.00">{issue&#45;105&#45;verbose&#45;combination</text>
<text xml:space="preserve" text-anchor="middle" x="377.5" y="-341.25" font-family="Helvetica,sans-Serif" font-size="10.00">&#45;errors::cpp}::rootError</text>
</a>
</g>
</g>
<!-- Node2&#45;&gt;Node4 -->
<g id="edge3_Node000002_Node000004" class="edge">
<title>Node2&#45;&gt;Node4</title>
<g id="a_edge3_Node000002_Node000004"><a xlink:title=" ">
<path fill="none" stroke="#63b8ff" d="M243.49,-316.68C258.01,-321.1 273.3,-325.75 288.13,-330.26"/>
<polygon fill="#63b8ff" stroke="#63b8ff" points="286.79,-333.51 297.38,-333.07 288.83,-326.81 286.79,-333.51"/>
</a>
</g>
</g>
<!-- Node5 -->
<g id="Node000005" class="node">
<title>Node5</title>
<g id="a_Node000005"><a xlink:href="namespaceanonymous__namespace_02issue-105-verbose-combination-errors_8cpp_03.html#a5d2fa2fa048e5520dbcbad50438526ad" target="_top" xlink:title=" ">
<polygon fill="white" stroke="#666666" points="465.75,-316.25 289.25,-316.25 289.25,-270 465.75,-270 465.75,-316.25"/>
<text xml:space="preserve" text-anchor="start" x="297.25" y="-302.75" font-family="Helvetica,sans-Serif" font-size="10.00">anonymous_namespace</text>
<text xml:space="preserve" text-anchor="start" x="297.25" y="-290" font-family="Helvetica,sans-Serif" font-size="10.00">{issue&#45;105&#45;verbose&#45;combination</text>
<text xml:space="preserve" text-anchor="middle" x="377.5" y="-277.25" font-family="Helvetica,sans-Serif" font-size="10.00">&#45;errors::cpp}::validate</text>
</a>
</g>
</g>
<!-- Node2&#45;&gt;Node5 -->
<g id="edge4_Node000002_Node000005" class="edge">
<title>Node2&#45;&gt;Node5</title>
<g id="a_edge4_Node000002_Node000005"><a xlink:title=" ">
<path fill="none" stroke="#63b8ff" d="M253.75,-293.12C261.55,-293.12 269.49,-293.12 277.39,-293.12"/>
<polygon fill="#63b8ff" stroke="#63b8ff" points="277.38,-296.63 287.38,-293.13 277.38,-289.63 277.38,-296.63"/>
</a>
</g>
</g>
<!-- Node6 -->
<g id="Node000006" class="node">
<title>Node6</title>
<g id="a_Node000006"><a xlink:href="classnlohmann_1_1json__schema_1_1json__validator.html#a13e1d3029c8953bb9c7d1879382edb03" target="_top" xlink:title=" ">
<polygon fill="white" stroke="#666666" points="637.38,-447.25 502.88,-447.25 502.88,-401 637.38,-401 637.38,-447.25"/>
<text xml:space="preserve" text-anchor="start" x="510.88" y="-433.75" font-family="Helvetica,sans-Serif" font-size="10.00">nlohmann::json_schema</text>
<text xml:space="preserve" text-anchor="start" x="510.88" y="-421" font-family="Helvetica,sans-Serif" font-size="10.00">::json_validator::set</text>
<text xml:space="preserve" text-anchor="middle" x="570.12" y="-408.25" font-family="Helvetica,sans-Serif" font-size="10.00">_root_schema</text>
</a>
</g>
</g>
<!-- Node5&#45;&gt;Node6 -->
<g id="edge5_Node000005_Node000006" class="edge">
<title>Node5&#45;&gt;Node6</title>
<g id="a_edge5_Node000005_Node000006"><a xlink:title=" ">
<path fill="none" stroke="#63b8ff" d="M450.14,-316.59C455.55,-319.21 460.82,-322.05 465.75,-325.12 495.03,-343.39 522.96,-370.97 542.39,-392.38"/>
<polygon fill="#63b8ff" stroke="#63b8ff" points="539.65,-394.57 548.92,-399.71 544.88,-389.92 539.65,-394.57"/>
</a>
</g>
</g>
<!-- Node22 -->
<g id="Node000022" class="node">
<title>Node22</title>
<g id="a_Node000022"><a xlink:href="classnlohmann_1_1json__schema_1_1json__validator.html#affff379ae30b7ab48c81d5b65e34f613" target="_top" xlink:title=" ">
<polygon fill="white" stroke="#666666" points="638.5,-264.88 501.75,-264.88 501.75,-231.38 638.5,-231.38 638.5,-264.88"/>
<text xml:space="preserve" text-anchor="start" x="509.75" y="-251.38" font-family="Helvetica,sans-Serif" font-size="10.00">nlohmann::json_schema</text>
<text xml:space="preserve" text-anchor="middle" x="570.12" y="-238.62" font-family="Helvetica,sans-Serif" font-size="10.00">::json_validator::validate</text>
</a>
</g>
</g>
<!-- Node5&#45;&gt;Node22 -->
<g id="edge35_Node000005_Node000022" class="edge">
<title>Node5&#45;&gt;Node22</title>
<g id="a_edge35_Node000005_Node000022"><a xlink:title=" ">
<path fill="none" stroke="#63b8ff" d="M466,-272.47C474.05,-270.57 482.18,-268.65 490.14,-266.77"/>
<polygon fill="#63b8ff" stroke="#63b8ff" points="490.88,-270.19 499.81,-264.49 489.27,-263.38 490.88,-270.19"/>
</a>
</g>
</g>
<!-- Node23 -->
<g id="Node000023" class="node">
<title>Node23</title>
<g id="a_Node000023"><a xlink:href="classnlohmann_1_1json__schema_1_1json__validator.html#ae330a21f43f257fec1d8109f51827706" target="_top" xlink:title=" ">
<polygon fill="white" stroke="#666666" points="811.25,-264.88 674.5,-264.88 674.5,-231.38 811.25,-231.38 811.25,-264.88"/>
<text xml:space="preserve" text-anchor="start" x="682.5" y="-251.38" font-family="Helvetica,sans-Serif" font-size="10.00">nlohmann::json_schema</text>
<text xml:space="preserve" text-anchor="middle" x="742.88" y="-238.62" font-family="Helvetica,sans-Serif" font-size="10.00">::json_validator::validate</text>
</a>
</g>
</g>
<!-- Node5&#45;&gt;Node23 -->
<g id="edge43_Node000005_Node000023" class="edge">
<title>Node5&#45;&gt;Node23</title>
<g id="a_edge43_Node000005_Node000023"><a xlink:title=" ">
<path fill="none" stroke="#63b8ff" d="M466.2,-290.5C516.81,-288.05 581.53,-283.3 638.5,-274.12 648.63,-272.49 659.22,-270.35 669.6,-267.99"/>
<polygon fill="#63b8ff" stroke="#63b8ff" points="670.34,-271.41 679.27,-265.71 668.73,-264.6 670.34,-271.41"/>
</a>
</g>
</g>
<!-- Node7 -->
<g id="Node000007" class="node">
<title>Node7</title>
<g id="a_Node000007"><a xlink:href="classnlohmann_1_1json__schema_1_1root__schema.html#aa92bf9509db49548416a244fb4528e3c" target="_top" xlink:title=" ">
<polygon fill="white" stroke="#666666" points="810.12,-457.25 675.62,-457.25 675.62,-411 810.12,-411 810.12,-457.25"/>
<text xml:space="preserve" text-anchor="start" x="683.62" y="-443.75" font-family="Helvetica,sans-Serif" font-size="10.00">nlohmann::json_schema</text>
<text xml:space="preserve" text-anchor="start" x="683.62" y="-431" font-family="Helvetica,sans-Serif" font-size="10.00">::root_schema::set_root</text>
<text xml:space="preserve" text-anchor="middle" x="742.88" y="-418.25" font-family="Helvetica,sans-Serif" font-size="10.00">_schema</text>
</a>
</g>
</g>
<!-- Node6&#45;&gt;Node7 -->
<g id="edge6_Node000006_Node000007" class="edge">
<title>Node6&#45;&gt;Node7</title>
<g id="a_edge6_Node000006_Node000007"><a xlink:title=" ">
<path fill="none" stroke="#63b8ff" d="M637.63,-428.02C646.22,-428.52 655.09,-429.04 663.85,-429.56"/>
<polygon fill="#63b8ff" stroke="#63b8ff" points="663.57,-433.05 673.76,-430.14 663.98,-426.06 663.57,-433.05"/>
</a>
</g>
</g>
<!-- Node8 -->
<g id="Node000008" class="node">
<title>Node8</title>
<g id="a_Node000008"><a xlink:href="classanonymous__namespace_02json-validator_8cpp_03_1_1schema.html#aafee860997369c77204d5b1a7d095c3f" target="_top" xlink:title=" ">
<polygon fill="white" stroke="#666666" points="981.75,-462.25 847.25,-462.25 847.25,-416 981.75,-416 981.75,-462.25"/>
<text xml:space="preserve" text-anchor="start" x="855.25" y="-448.75" font-family="Helvetica,sans-Serif" font-size="10.00">anonymous_namespace</text>
<text xml:space="preserve" text-anchor="start" x="855.25" y="-436" font-family="Helvetica,sans-Serif" font-size="10.00">{json&#45;validator::cpp}</text>
<text xml:space="preserve" text-anchor="middle" x="914.5" y="-423.25" font-family="Helvetica,sans-Serif" font-size="10.00">::schema::make</text>
</a>
</g>
</g>
<!-- Node7&#45;&gt;Node8 -->
<g id="edge7_Node000007_Node000008" class="edge">
<title>Node7&#45;&gt;Node8</title>
<g id="a_edge7_Node000007_Node000008"><a xlink:title=" ">
<path fill="none" stroke="#63b8ff" d="M810.43,-436.09C818.66,-436.33 827.13,-436.58 835.52,-436.83"/>
<polygon fill="#63b8ff" stroke="#63b8ff" points="835.25,-440.32 845.35,-437.12 835.45,-433.32 835.25,-440.32"/>
</a>
</g>
</g>
<!-- Node8&#45;&gt;Node8 -->
<g id="edge32_Node000008_Node000008" class="edge">
<title>Node8&#45;&gt;Node8</title>
<g id="a_edge32_Node000008_Node000008"><a xlink:title=" ">
<path fill="none" stroke="#63b8ff" d="M882.6,-462.38C880.4,-472.05 891.04,-480.25 914.5,-480.25 928.43,-480.25 937.84,-477.36 942.72,-472.99"/>
<polygon fill="#63b8ff" stroke="#63b8ff" points="945.94,-474.4 945.9,-463.81 939.32,-472.11 945.94,-474.4"/>
</a>
</g>
</g>
<!-- Node9 -->
<g id="Node000009" class="node">
<title>Node9</title>
<g id="a_Node000009"><a xlink:href="classnlohmann_1_1json__uri.html#acef9db8f1ac5317e1f124453d9587938" target="_top" xlink:title=" ">
<polygon fill="white" stroke="#666666" points="1332.5,-635.88 1223.5,-635.88 1223.5,-602.38 1332.5,-602.38 1332.5,-635.88"/>
<text xml:space="preserve" text-anchor="start" x="1231.5" y="-622.38" font-family="Helvetica,sans-Serif" font-size="10.00">nlohmann::json_uri</text>
<text xml:space="preserve" text-anchor="middle" x="1278" y="-609.62" font-family="Helvetica,sans-Serif" font-size="10.00">::append</text>
</a>
</g>
</g>
<!-- Node8&#45;&gt;Node9 -->
<g id="edge8_Node000008_Node000009" class="edge">
<title>Node8&#45;&gt;Node9</title>
<g id="a_edge8_Node000008_Node000009"><a xlink:title=" ">
<path fill="none" stroke="#63b8ff" d="M927.12,-462.59C943.18,-492.41 975.09,-543.12 1017.75,-569.12 1076.85,-605.15 1156.44,-616.07 1211.77,-618.97"/>
<polygon fill="#63b8ff" stroke="#63b8ff" points="1211.54,-622.47 1221.69,-619.41 1211.85,-615.47 1211.54,-622.47"/>
</a>
</g>
</g>
<!-- Node10 -->
<g id="Node000010" class="node">
<title>Node10</title>
<g id="a_Node000010"><a xlink:href="classnlohmann_1_1json__uri.html#ab601a9e32d487e9484f12c57ec1befc1" target="_top" xlink:title=" ">
<polygon fill="white" stroke="#666666" points="1150.75,-680.88 1041.75,-680.88 1041.75,-647.38 1150.75,-647.38 1150.75,-680.88"/>
<text xml:space="preserve" text-anchor="start" x="1049.75" y="-667.38" font-family="Helvetica,sans-Serif" font-size="10.00">nlohmann::json_uri</text>
<text xml:space="preserve" text-anchor="middle" x="1096.25" y="-654.62" font-family="Helvetica,sans-Serif" font-size="10.00">::derive</text>
</a>
</g>
</g>
<!-- Node8&#45;&gt;Node10 -->
<g id="edge9_Node000008_Node000010" class="edge">
<title>Node8&#45;&gt;Node10</title>
<g id="a_edge9_Node000008_Node000010"><a xlink:title=" ">
<path fill="none" stroke="#63b8ff" d="M923.97,-462.57C938.37,-499.78 970.72,-572.99 1017.75,-620.12 1025.86,-628.26 1035.79,-635.37 1045.8,-641.38"/>
<polygon fill="#63b8ff" stroke="#63b8ff" points="1044.02,-644.39 1054.45,-646.27 1047.46,-638.3 1044.02,-644.39"/>
</a>
</g>
</g>
<!-- Node12 -->
<g id="Node000012" class="node">
<title>Node12</title>
<g id="a_Node000012"><a xlink:href="classnlohmann_1_1json__schema_1_1root__schema.html#a7e890c03f941280b76fbdb4d5bb73065" target="_top" xlink:title=" ">
<polygon fill="white" stroke="#666666" points="1163.5,-462.25 1029,-462.25 1029,-416 1163.5,-416 1163.5,-462.25"/>
<text xml:space="preserve" text-anchor="start" x="1037" y="-448.75" font-family="Helvetica,sans-Serif" font-size="10.00">nlohmann::json_schema</text>
<text xml:space="preserve" text-anchor="start" x="1037" y="-436" font-family="Helvetica,sans-Serif" font-size="10.00">::root_schema::get_or</text>
<text xml:space="preserve" text-anchor="middle" x="1096.25" y="-423.25" font-family="Helvetica,sans-Serif" font-size="10.00">_create_ref</text>
</a>
</g>
</g>
<!-- Node8&#45;&gt;Node12 -->
<g id="edge11_Node000008_Node000012" class="edge">
<title>Node8&#45;&gt;Node12</title>
<g id="a_edge11_Node000008_Node000012"><a xlink:title=" ">
<path fill="none" stroke="#63b8ff" d="M982.18,-432.58C993.69,-432.37 1005.74,-432.32 1017.51,-432.43"/>
<polygon fill="#63b8ff" stroke="#63b8ff" points="1017.12,-435.92 1027.17,-432.56 1017.22,-428.93 1017.12,-435.92"/>
</a>
</g>
</g>
<!-- Node17 -->
<g id="Node000017" class="node">
<title>Node17</title>
<g id="a_Node000017"><a xlink:href="classnlohmann_1_1json__uri.html#a416eb06b53676b215761f43200da309f" target="_top" xlink:title=" ">
<polygon fill="white" stroke="#666666" points="1332.5,-237.88 1223.5,-237.88 1223.5,-204.38 1332.5,-204.38 1332.5,-237.88"/>
<text xml:space="preserve" text-anchor="start" x="1231.5" y="-224.38" font-family="Helvetica,sans-Serif" font-size="10.00">nlohmann::json_uri</text>
<text xml:space="preserve" text-anchor="middle" x="1278" y="-211.62" font-family="Helvetica,sans-Serif" font-size="10.00">::to_string</text>
</a>
</g>
</g>
<!-- Node8&#45;&gt;Node17 -->
<g id="edge34_Node000008_Node000017" class="edge">
<title>Node8&#45;&gt;Node17</title>
<g id="a_edge34_Node000008_Node000017"><a xlink:title=" ">
<path fill="none" stroke="#63b8ff" d="M924.99,-415.51C939.72,-381.94 971.31,-320.88 1017.75,-288.12 1075.51,-247.39 1156.09,-231.41 1212.02,-225.15"/>
<polygon fill="#63b8ff" stroke="#63b8ff" points="1212.13,-228.66 1221.71,-224.14 1211.4,-221.69 1212.13,-228.66"/>
</a>
</g>
</g>
<!-- Node18 -->
<g id="Node000018" class="node">
<title>Node18</title>
<g id="a_Node000018"><a xlink:href="classnlohmann_1_1json__schema_1_1root__schema.html#a685904131f0693e56f14a9e9db5f044e" target="_top" xlink:title=" ">
<polygon fill="white" stroke="#666666" points="1163.5,-330.88 1029,-330.88 1029,-297.38 1163.5,-297.38 1163.5,-330.88"/>
<text xml:space="preserve" text-anchor="start" x="1037" y="-317.38" font-family="Helvetica,sans-Serif" font-size="10.00">nlohmann::json_schema</text>
<text xml:space="preserve" text-anchor="middle" x="1096.25" y="-304.62" font-family="Helvetica,sans-Serif" font-size="10.00">::root_schema::insert</text>
</a>
</g>
</g>
<!-- Node8&#45;&gt;Node18 -->
<g id="edge19_Node000008_Node000018" class="edge">
<title>Node8&#45;&gt;Node18</title>
<g id="a_edge19_Node000008_Node000018"><a xlink:title=" ">
<path fill="none" stroke="#63b8ff" d="M935.35,-415.8C954.57,-394.44 985.49,-363.17 1017.75,-343.12 1021.91,-340.54 1026.34,-338.13 1030.89,-335.89"/>
<polygon fill="#63b8ff" stroke="#63b8ff" points="1031.98,-339.24 1039.62,-331.9 1029.07,-332.88 1031.98,-339.24"/>
</a>
</g>
</g>
<!-- Node20 -->
<g id="Node000020" class="node">
<title>Node20</title>
<g id="a_Node000020"><a xlink:href="classnlohmann_1_1json__schema_1_1root__schema.html#a4c543fe7b89e76b3fdd17a6883696238" target="_top" xlink:title=" ">
<polygon fill="white" stroke="#666666" points="1163.5,-542.25 1029,-542.25 1029,-496 1163.5,-496 1163.5,-542.25"/>
<text xml:space="preserve" text-anchor="start" x="1037" y="-528.75" font-family="Helvetica,sans-Serif" font-size="10.00">nlohmann::json_schema</text>
<text xml:space="preserve" text-anchor="start" x="1037" y="-516" font-family="Helvetica,sans-Serif" font-size="10.00">::root_schema::insert</text>
<text xml:space="preserve" text-anchor="middle" x="1096.25" y="-503.25" font-family="Helvetica,sans-Serif" font-size="10.00">_unknown_keyword</text>
</a>
</g>
</g>
<!-- Node8&#45;&gt;Node20 -->
<g id="edge25_Node000008_Node000020" class="edge">
<title>Node8&#45;&gt;Node20</title>
<g id="a_edge25_Node000008_Node000020"><a xlink:title=" ">
<path fill="none" stroke="#63b8ff" d="M982.18,-462.25C1003.01,-471.15 1025.63,-481.36 1045.12,-490.69"/>
<polygon fill="#63b8ff" stroke="#63b8ff" points="1043.42,-493.75 1053.94,-494.96 1046.47,-487.45 1043.42,-493.75"/>
</a>
</g>
</g>
<!-- Node21 -->
<g id="Node000021" class="node">
<title>Node21</title>
<g id="a_Node000021"><a xlink:href="classanonymous__namespace_02json-validator_8cpp_03_1_1schema.html#a6ba2d224dd0a4372ac03f679de8316bd" target="_top" xlink:title=" ">
<polygon fill="white" stroke="#666666" points="1174.75,-398.25 1017.75,-398.25 1017.75,-352 1174.75,-352 1174.75,-398.25"/>
<text xml:space="preserve" text-anchor="start" x="1025.75" y="-384.75" font-family="Helvetica,sans-Serif" font-size="10.00">anonymous_namespace</text>
<text xml:space="preserve" text-anchor="start" x="1025.75" y="-372" font-family="Helvetica,sans-Serif" font-size="10.00">{json&#45;validator::cpp}</text>
<text xml:space="preserve" text-anchor="middle" x="1096.25" y="-359.25" font-family="Helvetica,sans-Serif" font-size="10.00">::schema::make_for_default_</text>
</a>
</g>
</g>
<!-- Node8&#45;&gt;Node21 -->
<g id="edge33_Node000008_Node000021" class="edge">
<title>Node8&#45;&gt;Node21</title>
<g id="a_edge33_Node000008_Node000021"><a xlink:title=" ">
<path fill="none" stroke="#63b8ff" d="M981.67,-415.57C993.59,-411.32 1006.11,-406.86 1018.31,-402.52"/>
<polygon fill="#63b8ff" stroke="#63b8ff" points="1019.25,-405.9 1027.5,-399.25 1016.9,-399.31 1019.25,-405.9"/>
</a>
</g>
</g>
<!-- Node11 -->
<g id="Node000011" class="node">
<title>Node11</title>
<g id="a_Node000011"><a xlink:href="classnlohmann_1_1json__uri.html#a6a73807e46532b22e02ae6602cdedcdc" target="_top" xlink:title=" ">
<polygon fill="white" stroke="#666666" points="1332.5,-687.88 1223.5,-687.88 1223.5,-654.38 1332.5,-654.38 1332.5,-687.88"/>
<text xml:space="preserve" text-anchor="start" x="1231.5" y="-674.38" font-family="Helvetica,sans-Serif" font-size="10.00">nlohmann::json_uri</text>
<text xml:space="preserve" text-anchor="middle" x="1278" y="-661.62" font-family="Helvetica,sans-Serif" font-size="10.00">::update</text>
</a>
</g>
</g>
<!-- Node10&#45;&gt;Node11 -->
<g id="edge10_Node000010_Node000011" class="edge">
<title>Node10&#45;&gt;Node11</title>
<g id="a_edge10_Node000010_Node000011"><a xlink:title=" ">
<path fill="none" stroke="#63b8ff" d="M1151.18,-666.23C1170.2,-666.97 1191.79,-667.81 1211.65,-668.58"/>
<polygon fill="#63b8ff" stroke="#63b8ff" points="1211.47,-672.08 1221.59,-668.97 1211.74,-665.08 1211.47,-672.08"/>
</a>
</g>
</g>
<!-- Node12&#45;&gt;Node8 -->
<g id="edge15_Node000012_Node000008" class="edge">
<title>Node12&#45;&gt;Node8</title>
<g id="a_edge15_Node000012_Node000008"><a xlink:title=" ">
<path fill="none" stroke="#63b8ff" d="M1028.68,-445.67C1017.18,-445.88 1005.12,-445.93 993.35,-445.82"/>
<polygon fill="#63b8ff" stroke="#63b8ff" points="993.74,-442.33 983.69,-445.69 993.64,-449.33 993.74,-442.33"/>
</a>
</g>
</g>
<!-- Node13 -->
<g id="Node000013" class="node">
<title>Node13</title>
<g id="a_Node000013"><a xlink:href="classnlohmann_1_1json__uri.html#a21ba5d6a76804eabd867a2d03370c945" target="_top" xlink:title=" ">
<polygon fill="white" stroke="#666666" points="1332.5,-327.88 1223.5,-327.88 1223.5,-294.38 1332.5,-294.38 1332.5,-327.88"/>
<text xml:space="preserve" text-anchor="start" x="1231.5" y="-314.38" font-family="Helvetica,sans-Serif" font-size="10.00">nlohmann::json_uri</text>
<text xml:space="preserve" text-anchor="middle" x="1278" y="-301.62" font-family="Helvetica,sans-Serif" font-size="10.00">::fragment</text>
</a>
</g>
</g>
<!-- Node12&#45;&gt;Node13 -->
<g id="edge12_Node000012_Node000013" class="edge">
<title>Node12&#45;&gt;Node13</title>
<g id="a_edge12_Node000012_Node000013"><a xlink:title=" ">
<path fill="none" stroke="#63b8ff" d="M1163.55,-415.74C1167.54,-413.14 1171.32,-410.28 1174.75,-407.12 1200.5,-383.44 1184.79,-360.58 1210.75,-337.12 1211.81,-336.17 1212.9,-335.25 1214.03,-334.36"/>
<polygon fill="#63b8ff" stroke="#63b8ff" points="1215.66,-337.48 1222,-329 1211.75,-331.68 1215.66,-337.48"/>
</a>
</g>
</g>
<!-- Node14 -->
<g id="Node000014" class="node">
<title>Node14</title>
<g id="a_Node000014"><a xlink:href="classnlohmann_1_1json__schema_1_1root__schema.html#a4e3471b8e7c245a72c469b7695d2d327" target="_top" xlink:title=" ">
<polygon fill="white" stroke="#666666" points="1345.25,-456.25 1210.75,-456.25 1210.75,-410 1345.25,-410 1345.25,-456.25"/>
<text xml:space="preserve" text-anchor="start" x="1218.75" y="-442.75" font-family="Helvetica,sans-Serif" font-size="10.00">nlohmann::json_schema</text>
<text xml:space="preserve" text-anchor="start" x="1218.75" y="-430" font-family="Helvetica,sans-Serif" font-size="10.00">::root_schema::get_or</text>
<text xml:space="preserve" text-anchor="middle" x="1278" y="-417.25" font-family="Helvetica,sans-Serif" font-size="10.00">_create_file</text>
</a>
</g>
</g>
<!-- Node12&#45;&gt;Node14 -->
<g id="edge13_Node000012_Node000014" class="edge">
<title>Node12&#45;&gt;Node14</title>
<g id="a_edge13_Node000012_Node000014"><a xlink:title=" ">
<path fill="none" stroke="#63b8ff" d="M1163.93,-436.9C1175.44,-436.52 1187.49,-436.11 1199.26,-435.72"/>
<polygon fill="#63b8ff" stroke="#63b8ff" points="1199.04,-439.23 1208.92,-435.4 1198.81,-432.23 1199.04,-439.23"/>
</a>
</g>
</g>
<!-- Node15 -->
<g id="Node000015" class="node">
<title>Node15</title>
<g id="a_Node000015"><a xlink:href="classnlohmann_1_1json__uri.html#a63674f908919cb2496e772e864be35de" target="_top" xlink:title=" ">
<polygon fill="white" stroke="#666666" points="1490.25,-282.88 1381.25,-282.88 1381.25,-249.38 1490.25,-249.38 1490.25,-282.88"/>
<text xml:space="preserve" text-anchor="start" x="1389.25" y="-269.38" font-family="Helvetica,sans-Serif" font-size="10.00">nlohmann::json_uri</text>
<text xml:space="preserve" text-anchor="middle" x="1435.75" y="-256.62" font-family="Helvetica,sans-Serif" font-size="10.00">::location</text>
</a>
</g>
</g>
<!-- Node12&#45;&gt;Node15 -->
<g id="edge14_Node000012_Node000015" class="edge">
<title>Node12&#45;&gt;Node15</title>
<g id="a_edge14_Node000012_Node000015"><a xlink:title=" ">
<path fill="none" stroke="#63b8ff" d="M1149.68,-462.66C1203.21,-482.81 1286.54,-503.09 1345.25,-465.12 1404.25,-426.97 1424.74,-339.63 1431.55,-294.41"/>
<polygon fill="#63b8ff" stroke="#63b8ff" points="1435,-294.99 1432.89,-284.61 1428.07,-294.04 1435,-294.99"/>
</a>
</g>
</g>
<!-- Node16 -->
<g id="Node000016" class="node">
<title>Node16</title>
<g id="a_Node000016"><a xlink:href="classnlohmann_1_1json__uri.html#ab01bdcb8bf65ee07703d1ccb69c9f3ee" target="_top" xlink:title=" ">
<polygon fill="white" stroke="#666666" points="1332.5,-545.88 1223.5,-545.88 1223.5,-512.38 1332.5,-512.38 1332.5,-545.88"/>
<text xml:space="preserve" text-anchor="start" x="1231.5" y="-532.38" font-family="Helvetica,sans-Serif" font-size="10.00">nlohmann::json_uri</text>
<text xml:space="preserve" text-anchor="middle" x="1278" y="-519.62" font-family="Helvetica,sans-Serif" font-size="10.00">::pointer</text>
</a>
</g>
</g>
<!-- Node12&#45;&gt;Node16 -->
<g id="edge16_Node000012_Node000016" class="edge">
<title>Node12&#45;&gt;Node16</title>
<g id="a_edge16_Node000012_Node000016"><a xlink:title=" ">
<path fill="none" stroke="#63b8ff" d="M1141.5,-462.67C1162.4,-473.65 1187.75,-486.77 1210.75,-498.12 1216.88,-501.15 1223.36,-504.27 1229.77,-507.32"/>
<polygon fill="#63b8ff" stroke="#63b8ff" points="1227.82,-510.27 1238.36,-511.37 1230.81,-503.94 1227.82,-510.27"/>
</a>
</g>
</g>
<!-- Node12&#45;&gt;Node17 -->
<g id="edge17_Node000012_Node000017" class="edge">
<title>Node12&#45;&gt;Node17</title>
<g id="a_edge17_Node000012_Node000017"><a xlink:title=" ">
<path fill="none" stroke="#63b8ff" d="M1163.9,-416.71C1167.86,-413.88 1171.54,-410.69 1174.75,-407.12 1212.58,-365.11 1181.45,-333.47 1210.75,-285.12 1219.75,-270.27 1233.05,-256.49 1245.36,-245.56"/>
<polygon fill="#63b8ff" stroke="#63b8ff" points="1247.6,-248.26 1252.94,-239.11 1243.05,-242.93 1247.6,-248.26"/>
</a>
</g>
</g>
<!-- Node17&#45;&gt;Node15 -->
<g id="edge18_Node000017_Node000015" class="edge">
<title>Node17&#45;&gt;Node15</title>
<g id="a_edge18_Node000017_Node000015"><a xlink:title=" ">
<path fill="none" stroke="#63b8ff" d="M1332.6,-236.61C1344.65,-240.09 1357.55,-243.82 1370,-247.42"/>
<polygon fill="#63b8ff" stroke="#63b8ff" points="1368.75,-250.7 1379.33,-250.11 1370.7,-243.98 1368.75,-250.7"/>
</a>
</g>
</g>
<!-- Node18&#45;&gt;Node13 -->
<g id="edge20_Node000018_Node000013" class="edge">
<title>Node18&#45;&gt;Node13</title>
<g id="a_edge20_Node000018_Node000013"><a xlink:title=" ">
<path fill="none" stroke="#63b8ff" d="M1163.93,-313.01C1179.6,-312.75 1196.29,-312.47 1211.9,-312.21"/>
<polygon fill="#63b8ff" stroke="#63b8ff" points="1211.59,-315.72 1221.53,-312.05 1211.47,-308.72 1211.59,-315.72"/>
</a>
</g>
</g>
<!-- Node18&#45;&gt;Node14 -->
<g id="edge21_Node000018_Node000014" class="edge">
<title>Node18&#45;&gt;Node14</title>
<g id="a_edge21_Node000018_Node000014"><a xlink:title=" ">
<path fill="none" stroke="#63b8ff" d="M1155.85,-331.2C1162.6,-334.53 1169.08,-338.48 1174.75,-343.12 1198.21,-362.36 1188.2,-380.83 1210.75,-401.12 1211.39,-401.7 1212.04,-402.27 1212.71,-402.83"/>
<polygon fill="#63b8ff" stroke="#63b8ff" points="1210.56,-405.59 1220.67,-408.76 1214.74,-399.98 1210.56,-405.59"/>
</a>
</g>
</g>
<!-- Node18&#45;&gt;Node15 -->
<g id="edge22_Node000018_Node000015" class="edge">
<title>Node18&#45;&gt;Node15</title>
<g id="a_edge22_Node000018_Node000015"><a xlink:title=" ">
<path fill="none" stroke="#63b8ff" d="M1156.94,-296.9C1174.18,-292.47 1193.1,-288.11 1210.75,-285.12 1263.85,-276.15 1324.79,-271.33 1369.69,-268.8"/>
<polygon fill="#63b8ff" stroke="#63b8ff" points="1369.72,-272.3 1379.52,-268.26 1369.35,-265.31 1369.72,-272.3"/>
</a>
</g>
</g>
<!-- Node18&#45;&gt;Node17 -->
<g id="edge24_Node000018_Node000017" class="edge">
<title>Node18&#45;&gt;Node17</title>
<g id="a_edge24_Node000018_Node000017"><a xlink:title=" ">
<path fill="none" stroke="#63b8ff" d="M1127.33,-297.03C1150.05,-284.28 1182.11,-266.63 1210.75,-252.12 1216.63,-249.15 1222.85,-246.1 1229.02,-243.14"/>
<polygon fill="#63b8ff" stroke="#63b8ff" points="1230.41,-246.36 1237.95,-238.91 1227.41,-240.03 1230.41,-246.36"/>
</a>
</g>
</g>
<!-- Node19 -->
<g id="Node000019" class="node">
<title>Node19</title>
<g id="a_Node000019"><a xlink:href="classanonymous__namespace_02json-validator_8cpp_03_1_1schema__ref.html#ae191a0c47357ebad5942fbab77135375" target="_top" xlink:title=" ">
<polygon fill="white" stroke="#666666" points="1345.25,-392.25 1210.75,-392.25 1210.75,-346 1345.25,-346 1345.25,-392.25"/>
<text xml:space="preserve" text-anchor="start" x="1218.75" y="-378.75" font-family="Helvetica,sans-Serif" font-size="10.00">anonymous_namespace</text>
<text xml:space="preserve" text-anchor="start" x="1218.75" y="-366" font-family="Helvetica,sans-Serif" font-size="10.00">{json&#45;validator::cpp}</text>
<text xml:space="preserve" text-anchor="middle" x="1278" y="-353.25" font-family="Helvetica,sans-Serif" font-size="10.00">::schema_ref::set_target</text>
</a>
</g>
</g>
<!-- Node18&#45;&gt;Node19 -->
<g id="edge23_Node000018_Node000019" class="edge">
<title>Node18&#45;&gt;Node19</title>
<g id="a_edge23_Node000018_Node000019"><a xlink:title=" ">
<path fill="none" stroke="#63b8ff" d="M1153.14,-331.23C1167.88,-335.74 1184.04,-340.68 1199.69,-345.47"/>
<polygon fill="#63b8ff" stroke="#63b8ff" points="1198.39,-348.73 1208.97,-348.31 1200.43,-342.04 1198.39,-348.73"/>
</a>
</g>
</g>
<!-- Node20&#45;&gt;Node8 -->
<g id="edge30_Node000020_Node000008" class="edge">
<title>Node20&#45;&gt;Node8</title>
<g id="a_edge30_Node000020_Node000008"><a xlink:title=" ">
<path fill="none" stroke="#63b8ff" d="M1028.64,-496.02C1007.77,-487.11 985.11,-476.89 965.59,-467.54"/>
<polygon fill="#63b8ff" stroke="#63b8ff" points="967.28,-464.47 956.75,-463.26 964.23,-470.77 967.28,-464.47"/>
</a>
</g>
</g>
<!-- Node20&#45;&gt;Node9 -->
<g id="edge26_Node000020_Node000009" class="edge">
<title>Node20&#45;&gt;Node9</title>
<g id="a_edge26_Node000020_Node000009"><a xlink:title=" ">
<path fill="none" stroke="#63b8ff" d="M1133.72,-542.69C1155.69,-556.53 1184.43,-574.02 1210.75,-588.12 1216.41,-591.16 1222.43,-594.21 1228.43,-597.14"/>
<polygon fill="#63b8ff" stroke="#63b8ff" points="1226.57,-600.13 1237.1,-601.3 1229.6,-593.82 1226.57,-600.13"/>
</a>
</g>
</g>
<!-- Node20&#45;&gt;Node14 -->
<g id="edge27_Node000020_Node000014" class="edge">
<title>Node20&#45;&gt;Node14</title>
<g id="a_edge27_Node000020_Node000014"><a xlink:title=" ">
<path fill="none" stroke="#63b8ff" d="M1146.37,-495.63C1168.27,-485.15 1194.27,-472.7 1217.29,-461.69"/>
<polygon fill="#63b8ff" stroke="#63b8ff" points="1218.75,-464.87 1226.26,-457.4 1215.73,-458.56 1218.75,-464.87"/>
</a>
</g>
</g>
<!-- Node20&#45;&gt;Node15 -->
<g id="edge29_Node000020_Node000015" class="edge">
<title>Node20&#45;&gt;Node15</title>
<g id="a_edge29_Node000020_Node000015"><a xlink:title=" ">
<path fill="none" stroke="#63b8ff" d="M1140.38,-542.55C1193.77,-568.01 1285.02,-599.53 1345.25,-555.12 1388.14,-523.51 1419.26,-360.51 1430.33,-294.21"/>
<polygon fill="#63b8ff" stroke="#63b8ff" points="1433.75,-294.94 1431.91,-284.51 1426.85,-293.81 1433.75,-294.94"/>
</a>
</g>
</g>
<!-- Node20&#45;&gt;Node16 -->
<g id="edge31_Node000020_Node000016" class="edge">
<title>Node20&#45;&gt;Node16</title>
<g id="a_edge31_Node000020_Node000016"><a xlink:title=" ">
<path fill="none" stroke="#63b8ff" d="M1163.93,-522.83C1179.6,-523.71 1196.29,-524.64 1211.9,-525.5"/>
<polygon fill="#63b8ff" stroke="#63b8ff" points="1211.35,-528.98 1221.53,-526.04 1211.74,-521.99 1211.35,-528.98"/>
</a>
</g>
</g>
<!-- Node20&#45;&gt;Node20 -->
<g id="edge28_Node000020_Node000020" class="edge">
<title>Node20&#45;&gt;Node20</title>
<g id="a_edge28_Node000020_Node000020"><a xlink:title=" ">
<path fill="none" stroke="#63b8ff" d="M1062.47,-542.38C1060.14,-552.05 1071.4,-560.25 1096.25,-560.25 1111,-560.25 1120.97,-557.36 1126.14,-552.99"/>
<polygon fill="#63b8ff" stroke="#63b8ff" points="1129.35,-554.39 1129.51,-543.8 1122.78,-551.98 1129.35,-554.39"/>
</a>
</g>
</g>
<!-- Node22&#45;&gt;Node23 -->
<g id="edge36_Node000022_Node000023" class="edge">
<title>Node22&#45;&gt;Node23</title>
<g id="a_edge36_Node000022_Node000023"><a xlink:title=" ">
<path fill="none" stroke="#63b8ff" d="M638.61,-248.12C646.53,-248.12 654.66,-248.12 662.73,-248.12"/>
<polygon fill="#63b8ff" stroke="#63b8ff" points="662.53,-251.63 672.53,-248.13 662.53,-244.63 662.53,-251.63"/>
</a>
</g>
</g>
<!-- Node24 -->
<g id="Node000024" class="node">
<title>Node24</title>
<g id="a_Node000024"><a xlink:href="classnlohmann_1_1json__schema_1_1root__schema.html#a32f6012c2d81f29ca16e4409dd2b5ea3" target="_top" xlink:title=" ">
<polygon fill="white" stroke="#666666" points="1163.5,-212.88 1029,-212.88 1029,-179.38 1163.5,-179.38 1163.5,-212.88"/>
<text xml:space="preserve" text-anchor="start" x="1037" y="-199.38" font-family="Helvetica,sans-Serif" font-size="10.00">nlohmann::json_schema</text>
<text xml:space="preserve" text-anchor="middle" x="1096.25" y="-186.62" font-family="Helvetica,sans-Serif" font-size="10.00">::root_schema::validate</text>
</a>
</g>
</g>
<!-- Node23&#45;&gt;Node24 -->
<g id="edge37_Node000023_Node000024" class="edge">
<title>Node23&#45;&gt;Node24</title>
<g id="a_edge37_Node000023_Node000024"><a xlink:title=" ">
<path fill="none" stroke="#63b8ff" d="M811.62,-238.1C870.48,-229.39 955.72,-216.77 1017.38,-207.65"/>
<polygon fill="#63b8ff" stroke="#63b8ff" points="1017.73,-211.14 1027.11,-206.21 1016.7,-204.21 1017.73,-211.14"/>
</a>
</g>
</g>
<!-- Node24&#45;&gt;Node13 -->
<g id="edge39_Node000024_Node000013" class="edge">
<title>Node24&#45;&gt;Node13</title>
<g id="a_edge39_Node000024_Node000013"><a xlink:title=" ">
<path fill="none" stroke="#63b8ff" d="M1124.16,-213.34C1155.09,-233.13 1206.02,-265.71 1240.5,-287.78"/>
<polygon fill="#63b8ff" stroke="#63b8ff" points="1238.61,-290.72 1248.92,-293.16 1242.39,-284.83 1238.61,-290.72"/>
</a>
</g>
</g>
<!-- Node24&#45;&gt;Node15 -->
<g id="edge40_Node000024_Node000015" class="edge">
<title>Node24&#45;&gt;Node15</title>
<g id="a_edge40_Node000024_Node000015"><a xlink:title=" ">
<path fill="none" stroke="#63b8ff" d="M1163.97,-184.07C1215.06,-177.61 1286.5,-174.65 1345.25,-195.12 1371.25,-204.18 1395.36,-224.29 1412,-240.81"/>
<polygon fill="#63b8ff" stroke="#63b8ff" points="1409.45,-243.21 1418.93,-247.95 1414.48,-238.33 1409.45,-243.21"/>
</a>
</g>
</g>
<!-- Node24&#45;&gt;Node17 -->
<g id="edge41_Node000024_Node000017" class="edge">
<title>Node24&#45;&gt;Node17</title>
<g id="a_edge41_Node000024_Node000017"><a xlink:title=" ">
<path fill="none" stroke="#63b8ff" d="M1163.93,-205.4C1179.6,-207.58 1196.29,-209.9 1211.9,-212.07"/>
<polygon fill="#63b8ff" stroke="#63b8ff" points="1211.16,-215.5 1221.54,-213.41 1212.12,-208.57 1211.16,-215.5"/>
</a>
</g>
</g>
<!-- Node25 -->
<g id="Node000025" class="node">
<title>Node25</title>
<g id="a_Node000025"><a xlink:href="classnlohmann_1_1json__schema_1_1error__handler.html#a6518c4580b8dd8063000e183f1541650" target="_top" xlink:title=" ">
<polygon fill="white" stroke="#666666" points="1345.25,-83.88 1210.75,-83.88 1210.75,-50.38 1345.25,-50.38 1345.25,-83.88"/>
<text xml:space="preserve" text-anchor="start" x="1218.75" y="-70.38" font-family="Helvetica,sans-Serif" font-size="10.00">nlohmann::json_schema</text>
<text xml:space="preserve" text-anchor="middle" x="1278" y="-57.62" font-family="Helvetica,sans-Serif" font-size="10.00">::error_handler::error</text>
</a>
</g>
</g>
<!-- Node24&#45;&gt;Node25 -->
<g id="edge38_Node000024_Node000025" class="edge">
<title>Node24&#45;&gt;Node25</title>
<g id="a_edge38_Node000024_Node000025"><a xlink:title=" ">
<path fill="none" stroke="#63b8ff" d="M1112.26,-179.09C1132.67,-156.8 1171.18,-117.68 1210.75,-93.12 1212.76,-91.88 1214.84,-90.67 1216.97,-89.51"/>
<polygon fill="#63b8ff" stroke="#63b8ff" points="1218.48,-92.67 1225.84,-85.05 1215.33,-86.41 1218.48,-92.67"/>
</a>
</g>
</g>
<!-- Node26 -->
<g id="Node000026" class="node">
<title>Node26</title>
<g id="a_Node000026"><a xlink:href="classanonymous__namespace_02json-validator_8cpp_03_1_1schema.html#a2509ace246d9dcec607e75377753a5ea" target="_top" xlink:title=" ">
<polygon fill="white" stroke="#666666" points="1345.25,-148.25 1210.75,-148.25 1210.75,-102 1345.25,-102 1345.25,-148.25"/>
<text xml:space="preserve" text-anchor="start" x="1218.75" y="-134.75" font-family="Helvetica,sans-Serif" font-size="10.00">anonymous_namespace</text>
<text xml:space="preserve" text-anchor="start" x="1218.75" y="-122" font-family="Helvetica,sans-Serif" font-size="10.00">{json&#45;validator::cpp}</text>
<text xml:space="preserve" text-anchor="middle" x="1278" y="-109.25" font-family="Helvetica,sans-Serif" font-size="10.00">::schema::validate</text>
</a>
</g>
</g>
<!-- Node24&#45;&gt;Node26 -->
<g id="edge42_Node000024_Node000026" class="edge">
<title>Node24&#45;&gt;Node26</title>
<g id="a_edge42_Node000024_Node000026"><a xlink:title=" ">
<path fill="none" stroke="#63b8ff" d="M1140.76,-178.94C1160.59,-171.11 1184.55,-161.64 1206.82,-152.85"/>
<polygon fill="#63b8ff" stroke="#63b8ff" points="1207.83,-156.21 1215.84,-149.28 1205.26,-149.7 1207.83,-156.21"/>
</a>
</g>
</g>
<!-- Node27&#45;&gt;Node3 -->
<g id="edge46_Node000027_Node000003" class="edge">
<title>Node27&#45;&gt;Node3</title>
<g id="a_edge46_Node000027_Node000003"><a xlink:title=" ">
<path fill="none" stroke="#63b8ff" d="M253.75,-229.12C261.55,-229.12 269.49,-229.12 277.39,-229.12"/>
<polygon fill="#63b8ff" stroke="#63b8ff" points="277.38,-232.63 287.38,-229.13 277.38,-225.63 277.38,-232.63"/>
</a>
</g>
</g>
<!-- Node27&#45;&gt;Node4 -->
<g id="edge49_Node000027_Node000004" class="edge">
<title>Node27&#45;&gt;Node4</title>
<g id="a_edge49_Node000027_Node000004"><a xlink:title=" ">
<path fill="none" stroke="#63b8ff" d="M241.32,-252.58C245.54,-255.15 249.56,-257.99 253.25,-261.12 278.11,-282.27 264.39,-303.98 289.25,-325.12 290.06,-325.81 290.88,-326.48 291.72,-327.14"/>
<polygon fill="#63b8ff" stroke="#63b8ff" points="289.72,-330.02 299.94,-332.81 293.69,-324.25 289.72,-330.02"/>
</a>
</g>
</g>
<!-- Node27&#45;&gt;Node5 -->
<g id="edge50_Node000027_Node000005" class="edge">
<title>Node27&#45;&gt;Node5</title>
<g id="a_edge50_Node000027_Node000005"><a xlink:title=" ">
<path fill="none" stroke="#63b8ff" d="M243.49,-252.68C258.01,-257.1 273.3,-261.75 288.13,-266.26"/>
<polygon fill="#63b8ff" stroke="#63b8ff" points="286.79,-269.51 297.38,-269.07 288.83,-262.81 286.79,-269.51"/>
</a>
</g>
</g>
<!-- Node28 -->
<g id="Node000028" class="node">
<title>Node28</title>
<g id="a_Node000028"><a xlink:href="namespaceanonymous__namespace_02issue-105-verbose-combination-errors_8cpp_03.html#a17d4bc0992546605e73e9d67b6044829" target="_top" xlink:title=" ">
<polygon fill="white" stroke="#666666" points="465.75,-188.25 289.25,-188.25 289.25,-142 465.75,-142 465.75,-188.25"/>
<text xml:space="preserve" text-anchor="start" x="297.25" y="-174.75" font-family="Helvetica,sans-Serif" font-size="10.00">anonymous_namespace</text>
<text xml:space="preserve" text-anchor="start" x="297.25" y="-162" font-family="Helvetica,sans-Serif" font-size="10.00">{issue&#45;105&#45;verbose&#45;combination</text>
<text xml:space="preserve" text-anchor="middle" x="377.5" y="-149.25" font-family="Helvetica,sans-Serif" font-size="10.00">&#45;errors::cpp}::combinationError</text>
</a>
</g>
</g>
<!-- Node27&#45;&gt;Node28 -->
<g id="edge45_Node000027_Node000028" class="edge">
<title>Node27&#45;&gt;Node28</title>
<g id="a_edge45_Node000027_Node000028"><a xlink:title=" ">
<path fill="none" stroke="#63b8ff" d="M243.49,-205.57C258.01,-201.15 273.3,-196.5 288.13,-191.99"/>
<polygon fill="#63b8ff" stroke="#63b8ff" points="288.83,-195.44 297.38,-189.18 286.79,-188.74 288.83,-195.44"/>
</a>
</g>
</g>
<!-- Node29 -->
<g id="Node000029" class="node">
<title>Node29</title>
<g id="a_Node000029"><a xlink:href="classanonymous__namespace_02issue-105-verbose-combination-errors_8cpp_03_1_1MyErrorHandler.html#afb67b23775a04da4c2606ba2f60b483d" target="_top" xlink:title=" ">
<polygon fill="white" stroke="#666666" points="465.75,-123.62 289.25,-123.62 289.25,-64.62 465.75,-64.62 465.75,-123.62"/>
<text xml:space="preserve" text-anchor="start" x="297.25" y="-110.12" font-family="Helvetica,sans-Serif" font-size="10.00">anonymous_namespace</text>
<text xml:space="preserve" text-anchor="start" x="297.25" y="-97.38" font-family="Helvetica,sans-Serif" font-size="10.00">{issue&#45;105&#45;verbose&#45;combination</text>
<text xml:space="preserve" text-anchor="start" x="297.25" y="-84.62" font-family="Helvetica,sans-Serif" font-size="10.00">&#45;errors::cpp}::MyErrorHandler</text>
<text xml:space="preserve" text-anchor="middle" x="377.5" y="-71.88" font-family="Helvetica,sans-Serif" font-size="10.00">::getErrors</text>
</a>
</g>
</g>
<!-- Node27&#45;&gt;Node29 -->
<g id="edge47_Node000027_Node000029" class="edge">
<title>Node27&#45;&gt;Node29</title>
<g id="a_edge47_Node000027_Node000029"><a xlink:title=" ">
<path fill="none" stroke="#63b8ff" d="M192.06,-205.79C216.12,-185.01 253.45,-154.64 289.25,-133.12 291.39,-131.84 293.58,-130.57 295.8,-129.32"/>
<polygon fill="#63b8ff" stroke="#63b8ff" points="297.26,-132.51 304.41,-124.69 293.95,-126.35 297.26,-132.51"/>
</a>
</g>
</g>
<!-- Node30 -->
<g id="Node000030" class="node">
<title>Node30</title>
<g id="a_Node000030"><a xlink:href="namespaceanonymous__namespace_02issue-105-verbose-combination-errors_8cpp_03.html#aaab95dada9449d5e0ddde36c65d413a2" target="_top" xlink:title=" ">
<polygon fill="white" stroke="#666666" points="465.75,-46.25 289.25,-46.25 289.25,0 465.75,0 465.75,-46.25"/>
<text xml:space="preserve" text-anchor="start" x="297.25" y="-32.75" font-family="Helvetica,sans-Serif" font-size="10.00">anonymous_namespace</text>
<text xml:space="preserve" text-anchor="start" x="297.25" y="-20" font-family="Helvetica,sans-Serif" font-size="10.00">{issue&#45;105&#45;verbose&#45;combination</text>
<text xml:space="preserve" text-anchor="middle" x="377.5" y="-7.25" font-family="Helvetica,sans-Serif" font-size="10.00">&#45;errors.cpp}::operator&lt;&lt;</text>
</a>
</g>
</g>
<!-- Node27&#45;&gt;Node30 -->
<g id="edge48_Node000027_Node000030" class="edge">
<title>Node27&#45;&gt;Node30</title>
<g id="a_edge48_Node000027_Node000030"><a xlink:title=" ">
<path fill="none" stroke="#63b8ff" d="M176.78,-205.7C194.93,-168.68 235,-96.62 289.25,-55.12 290.4,-54.24 291.58,-53.38 292.79,-52.55"/>
<polygon fill="#63b8ff" stroke="#63b8ff" points="294.5,-55.6 301.13,-47.35 290.79,-49.66 294.5,-55.6"/>
</a>
</g>
</g>
</g>
</svg>
