<?xml version="1.0" encoding="UTF-8" standalone="no"?>
<!DOCTYPE svg PUBLIC "-//W3C//DTD SVG 1.1//EN"
 "http://www.w3.org/Graphics/SVG/1.1/DTD/svg11.dtd">
<!-- Generated by graphviz version 14.1.2 (0)
 -->
<!-- Title: lib/MappingAdminRouter.h Pages: 1 -->
<svg width="364pt" height="86pt"
 viewBox="0.00 0.00 364.00 86.00" xmlns="http://www.w3.org/2000/svg" xmlns:xlink="http://www.w3.org/1999/xlink">
<g id="graph0" class="graph" transform="scale(1 1) rotate(0) translate(4 81.5)">
<title>lib/MappingAdminRouter.h</title>
<!-- Node1 -->
<g id="Node000001" class="node">
<title>Node1</title>
<g id="a_Node000001"><a xlink:title=" ">
<polygon fill="#999999" stroke="#666666" points="244.38,-77.5 98.62,-77.5 98.62,-56.75 244.38,-56.75 244.38,-77.5"/>
<text xml:space="preserve" text-anchor="middle" x="171.5" y="-64" font-family="Helvetica,sans-Serif" font-size="10.00">lib/MappingAdminRouter.h</text>
</a>
</g>
</g>
<!-- Node2 -->
<g id="Node000002" class="node">
<title>Node2</title>
<g id="a_Node000002"><a xlink:href="MappingAdminRouter_8cpp.html" target="_top" xlink:title=" ">
<polygon fill="white" stroke="#666666" points="157,-20.75 0,-20.75 0,0 157,0 157,-20.75"/>
<text xml:space="preserve" text-anchor="middle" x="78.5" y="-7.25" font-family="Helvetica,sans-Serif" font-size="10.00">lib/MappingAdminRouter.cpp</text>
</a>
</g>
</g>
<!-- Node1&#45;&gt;Node2 -->
<g id="edge1_Node000001_Node000002" class="edge">
<title>Node1&#45;&gt;Node2</title>
<g id="a_edge1_Node000001_Node000002"><a xlink:title=" ">
<path fill="none" stroke="#63b8ff" d="M144.97,-50.51C128.87,-41.03 108.83,-29.23 94.98,-21.08"/>
<polygon fill="#63b8ff" stroke="#63b8ff" points="143.18,-53.51 153.57,-55.57 146.73,-47.48 143.18,-53.51"/>
</a>
</g>
</g>
<!-- Node3 -->
<g id="Node000003" class="node">
<title>Node3</title>
<g id="a_Node000003"><a xlink:href="mqttintegrator_8cpp.html" target="_top" xlink:title=" ">
<polygon fill="white" stroke="#666666" points="356.38,-20.75 174.62,-20.75 174.62,0 356.38,0 356.38,-20.75"/>
<text xml:space="preserve" text-anchor="middle" x="265.5" y="-7.25" font-family="Helvetica,sans-Serif" font-size="10.00">mqttintegrator/mqttintegrator.cpp</text>
</a>
</g>
</g>
<!-- Node1&#45;&gt;Node3 -->
<g id="edge2_Node000001_Node000003" class="edge">
<title>Node1&#45;&gt;Node3</title>
<g id="a_edge2_Node000001_Node000003"><a xlink:title=" ">
<path fill="none" stroke="#63b8ff" d="M197.85,-50.78C214.2,-41.25 234.71,-29.31 248.84,-21.08"/>
<polygon fill="#63b8ff" stroke="#63b8ff" points="196.49,-47.52 189.61,-55.58 200.02,-53.57 196.49,-47.52"/>
</a>
</g>
</g>
</g>
</svg>
