<?xml version="1.0" encoding="UTF-8" standalone="no"?>
<!DOCTYPE svg PUBLIC "-//W3C//DTD SVG 1.1//EN"
 "http://www.w3.org/Graphics/SVG/1.1/DTD/svg11.dtd">
<!-- Generated by graphviz version 14.1.2 (0)
 -->
<!-- Title: lib/MqttMapper.cpp Pages: 1 -->
<svg width="649pt" height="142pt"
 viewBox="0.00 0.00 649.00 142.00" xmlns="http://www.w3.org/2000/svg" xmlns:xlink="http://www.w3.org/1999/xlink">
<g id="graph0" class="graph" transform="scale(1 1) rotate(0) translate(4 138.25)">
<title>lib/MqttMapper.cpp</title>
<!-- Node1 -->
<g id="Node000001" class="node">
<title>Node1</title>
<g id="a_Node000001"><a xlink:title=" ">
<polygon fill="#999999" stroke="#666666" points="363.25,-134.25 252.75,-134.25 252.75,-113.5 363.25,-113.5 363.25,-134.25"/>
<text xml:space="preserve" text-anchor="middle" x="308" y="-120.75" font-family="Helvetica,sans-Serif" font-size="10.00">lib/MqttMapper.cpp</text>
</a>
</g>
</g>
<!-- Node2 -->
<g id="Node000002" class="node">
<title>Node2</title>
<g id="a_Node000002"><a xlink:href="MqttMapper_8h.html" target="_top" xlink:title=" ">
<polygon fill="white" stroke="#666666" points="95.12,-77.5 10.88,-77.5 10.88,-56.75 95.12,-56.75 95.12,-77.5"/>
<text xml:space="preserve" text-anchor="middle" x="53" y="-64" font-family="Helvetica,sans-Serif" font-size="10.00">MqttMapper.h</text>
</a>
</g>
</g>
<!-- Node1&#45;&gt;Node2 -->
<g id="edge1_Node000001_Node000002" class="edge">
<title>Node1&#45;&gt;Node2</title>
<g id="a_edge1_Node000001_Node000002"><a xlink:title=" ">
<path fill="none" stroke="#63b8ff" d="M262.12,-113.02C218.4,-103.64 152.6,-89.51 106.52,-79.62"/>
<polygon fill="#63b8ff" stroke="#63b8ff" points="107.54,-76.26 97.03,-77.58 106.07,-83.1 107.54,-76.26"/>
</a>
</g>
</g>
<!-- Node4 -->
<g id="Node000004" class="node">
<title>Node4</title>
<g id="a_Node000004"><a xlink:href="MqttMapperPlugin_8h.html" target="_top" xlink:title=" ">
<polygon fill="white" stroke="#666666" points="227.12,-77.5 112.88,-77.5 112.88,-56.75 227.12,-56.75 227.12,-77.5"/>
<text xml:space="preserve" text-anchor="middle" x="170" y="-64" font-family="Helvetica,sans-Serif" font-size="10.00">MqttMapperPlugin.h</text>
</a>
</g>
</g>
<!-- Node1&#45;&gt;Node4 -->
<g id="edge3_Node000001_Node000004" class="edge">
<title>Node1&#45;&gt;Node4</title>
<g id="a_edge3_Node000001_Node000004"><a xlink:title=" ">
<path fill="none" stroke="#63b8ff" d="M283.33,-113.09C261.55,-104.44 229.54,-91.75 205.09,-82.05"/>
<polygon fill="#63b8ff" stroke="#63b8ff" points="206.45,-78.82 195.86,-78.39 203.87,-85.33 206.45,-78.82"/>
</a>
</g>
</g>
<!-- Node5 -->
<g id="Node000005" class="node">
<title>Node5</title>
<g id="a_Node000005"><a xlink:title=" ">
<polygon fill="#e0e0e0" stroke="#999999" points="370.75,-77.5 245.25,-77.5 245.25,-56.75 370.75,-56.75 370.75,-77.5"/>
<text xml:space="preserve" text-anchor="middle" x="308" y="-64" font-family="Helvetica,sans-Serif" font-size="10.00">core/DynamicLoader.h</text>
</a>
</g>
</g>
<!-- Node1&#45;&gt;Node5 -->
<g id="edge4_Node000001_Node000005" class="edge">
<title>Node1&#45;&gt;Node5</title>
<g id="a_edge4_Node000001_Node000005"><a xlink:title=" ">
<path fill="none" stroke="#63b8ff" d="M308,-113.09C308,-106.47 308,-97.47 308,-89.27"/>
<polygon fill="#63b8ff" stroke="#63b8ff" points="311.5,-89.34 308,-79.34 304.5,-89.34 311.5,-89.34"/>
</a>
</g>
</g>
<!-- Node6 -->
<g id="Node000006" class="node">
<title>Node6</title>
<g id="a_Node000006"><a xlink:title=" ">
<polygon fill="#e0e0e0" stroke="#999999" points="480.88,-77.5 389.12,-77.5 389.12,-56.75 480.88,-56.75 480.88,-77.5"/>
<text xml:space="preserve" text-anchor="middle" x="435" y="-64" font-family="Helvetica,sans-Serif" font-size="10.00">iot/mqtt/Topic.h</text>
</a>
</g>
</g>
<!-- Node1&#45;&gt;Node6 -->
<g id="edge5_Node000001_Node000006" class="edge">
<title>Node1&#45;&gt;Node6</title>
<g id="a_edge5_Node000001_Node000006"><a xlink:title=" ">
<path fill="none" stroke="#63b8ff" d="M330.71,-113.09C350.57,-104.52 379.67,-91.98 402.09,-82.31"/>
<polygon fill="#63b8ff" stroke="#63b8ff" points="403.3,-85.6 411.1,-78.43 400.53,-79.17 403.3,-85.6"/>
</a>
</g>
</g>
<!-- Node7 -->
<g id="Node000007" class="node">
<title>Node7</title>
<g id="a_Node000007"><a xlink:title=" ">
<polygon fill="#e0e0e0" stroke="#999999" points="641.38,-77.5 498.62,-77.5 498.62,-56.75 641.38,-56.75 641.38,-77.5"/>
<text xml:space="preserve" text-anchor="middle" x="570" y="-64" font-family="Helvetica,sans-Serif" font-size="10.00">iot/mqtt/packets/Publish.h</text>
</a>
</g>
</g>
<!-- Node1&#45;&gt;Node7 -->
<g id="edge6_Node000001_Node000007" class="edge">
<title>Node1&#45;&gt;Node7</title>
<g id="a_edge6_Node000001_Node000007"><a xlink:title=" ">
<path fill="none" stroke="#63b8ff" d="M355.14,-113.02C398.97,-103.87 464.4,-90.19 511.53,-80.34"/>
<polygon fill="#63b8ff" stroke="#63b8ff" points="512.24,-83.77 521.31,-78.3 510.81,-76.92 512.24,-83.77"/>
</a>
</g>
</g>
<!-- Node3 -->
<g id="Node000003" class="node">
<title>Node3</title>
<g id="a_Node000003"><a xlink:title=" ">
<polygon fill="#e0e0e0" stroke="#999999" points="106,-20.75 0,-20.75 0,0 106,0 106,-20.75"/>
<text xml:space="preserve" text-anchor="middle" x="53" y="-7.25" font-family="Helvetica,sans-Serif" font-size="10.00">core/timer/Timer.h</text>
</a>
</g>
</g>
<!-- Node2&#45;&gt;Node3 -->
<g id="edge2_Node000002_Node000003" class="edge">
<title>Node2&#45;&gt;Node3</title>
<g id="a_edge2_Node000002_Node000003"><a xlink:title=" ">
<path fill="none" stroke="#63b8ff" d="M53,-56.34C53,-49.72 53,-40.72 53,-32.52"/>
<polygon fill="#63b8ff" stroke="#63b8ff" points="56.5,-32.59 53,-22.59 49.5,-32.59 56.5,-32.59"/>
</a>
</g>
</g>
</g>
</svg>
