<?xml version="1.0" encoding="UTF-8" standalone="no"?>
<!DOCTYPE svg PUBLIC "-//W3C//DTD SVG 1.1//EN"
 "http://www.w3.org/Graphics/SVG/1.1/DTD/svg11.dtd">
<!-- Generated by graphviz version 14.1.2 (0)
 -->
<!-- Title: startClient Pages: 1 -->
<svg width="806pt" height="243pt"
 viewBox="0.00 0.00 806.00 243.00" xmlns="http://www.w3.org/2000/svg" xmlns:xlink="http://www.w3.org/1999/xlink">
<g id="graph0" class="graph" transform="scale(1 1) rotate(0) translate(4 238.5)">
<title>startClient</title>
<!-- Node1 -->
<g id="Node000001" class="node">
<title>Node1</title>
<g id="a_Node000001"><a xlink:title=" ">
<polygon fill="#999999" stroke="#666666" points="67,-144.12 0,-144.12 0,-123.38 67,-123.38 67,-144.12"/>
<text xml:space="preserve" text-anchor="middle" x="33.5" y="-130.62" font-family="Helvetica,sans-Serif" font-size="10.00">startClient</text>
</a>
</g>
</g>
<!-- Node2 -->
<g id="Node000002" class="node">
<title>Node2</title>
<g id="a_Node000002"><a xlink:href="mqttbridge_8cpp.html#a2745fb224831971afc6030723f46c169" target="_top" xlink:title=" ">
<polygon fill="white" stroke="#666666" points="254.75,-183.12 103,-183.12 103,-162.38 254.75,-162.38 254.75,-183.12"/>
<text xml:space="preserve" text-anchor="middle" x="178.88" y="-169.62" font-family="Helvetica,sans-Serif" font-size="10.00">addBridgeBrokerConnection</text>
</a>
</g>
</g>
<!-- Node1&#45;&gt;Node2 -->
<g id="edge1_Node000001_Node000002" class="edge">
<title>Node1&#45;&gt;Node2</title>
<g id="a_edge1_Node000001_Node000002"><a xlink:title=" ">
<path fill="none" stroke="#63b8ff" d="M67.23,-142.9C78.56,-146.04 91.33,-149.57 103,-152.75 110.41,-154.77 118.25,-156.88 125.94,-158.95"/>
<polygon fill="#63b8ff" stroke="#63b8ff" points="125.03,-162.32 135.59,-161.53 126.84,-155.56 125.03,-162.32"/>
</a>
</g>
</g>
<!-- Node3 -->
<g id="Node000003" class="node">
<title>Node3</title>
<g id="a_Node000003"><a xlink:href="mqttbridge_8cpp.html#abaecb3a278e25c3770ab0ae7253e04a7" target="_top" xlink:title=" ">
<polygon fill="white" stroke="#666666" points="253.25,-144.12 104.5,-144.12 104.5,-123.38 253.25,-123.38 253.25,-144.12"/>
<text xml:space="preserve" text-anchor="middle" x="178.88" y="-130.62" font-family="Helvetica,sans-Serif" font-size="10.00">delBridgeBrokerConnection</text>
</a>
</g>
</g>
<!-- Node1&#45;&gt;Node3 -->
<g id="edge2_Node000001_Node000003" class="edge">
<title>Node1&#45;&gt;Node3</title>
<g id="a_edge2_Node000001_Node000003"><a xlink:title=" ">
<path fill="none" stroke="#63b8ff" d="M67.39,-133.75C75.18,-133.75 83.85,-133.75 92.8,-133.75"/>
<polygon fill="#63b8ff" stroke="#63b8ff" points="92.74,-137.25 102.74,-133.75 92.74,-130.25 92.74,-137.25"/>
</a>
</g>
</g>
<!-- Node11 -->
<g id="Node000011" class="node">
<title>Node11</title>
<g id="a_Node000011"><a xlink:href="mqttbridge_8cpp.html#a0d29fd238d0a229ef0f176e1159f8b1a" target="_top" xlink:title=" ">
<polygon fill="white" stroke="#666666" points="228.12,-105.12 129.62,-105.12 129.62,-84.38 228.12,-84.38 228.12,-105.12"/>
<text xml:space="preserve" text-anchor="middle" x="178.88" y="-91.62" font-family="Helvetica,sans-Serif" font-size="10.00">handleConnector</text>
</a>
</g>
</g>
<!-- Node1&#45;&gt;Node11 -->
<g id="edge11_Node000001_Node000011" class="edge">
<title>Node1&#45;&gt;Node11</title>
<g id="a_edge11_Node000001_Node000011"><a xlink:title=" ">
<path fill="none" stroke="#63b8ff" d="M67.23,-124.6C78.56,-121.46 91.33,-117.93 103,-114.75 110.41,-112.73 118.25,-110.62 125.94,-108.55"/>
<polygon fill="#63b8ff" stroke="#63b8ff" points="126.84,-111.94 135.59,-105.97 125.03,-105.18 126.84,-111.94"/>
</a>
</g>
</g>
<!-- Node4 -->
<g id="Node000004" class="node">
<title>Node4</title>
<g id="a_Node000004"><a xlink:href="mqttbridge_8cpp.html#a90732e510a2e6efcd8d0ab7912f5b043" target="_top" xlink:title=" ">
<polygon fill="white" stroke="#666666" points="392.25,-124.12 290.75,-124.12 290.75,-103.38 392.25,-103.38 392.25,-124.12"/>
<text xml:space="preserve" text-anchor="middle" x="341.5" y="-110.62" font-family="Helvetica,sans-Serif" font-size="10.00">tryRestartBridges</text>
</a>
</g>
</g>
<!-- Node3&#45;&gt;Node4 -->
<g id="edge3_Node000003_Node000004" class="edge">
<title>Node3&#45;&gt;Node4</title>
<g id="a_edge3_Node000003_Node000004"><a xlink:title=" ">
<path fill="none" stroke="#63b8ff" d="M253.61,-124.57C262.22,-123.5 270.94,-122.41 279.37,-121.36"/>
<polygon fill="#63b8ff" stroke="#63b8ff" points="279.63,-124.86 289.12,-120.15 278.77,-117.91 279.63,-124.86"/>
</a>
</g>
</g>
<!-- Node5 -->
<g id="Node000005" class="node">
<title>Node5</title>
<g id="a_Node000005"><a xlink:href="classmqtt_1_1bridge_1_1lib_1_1BridgeStore.html#a94cc67c07a763979a3625d806474a972" target="_top" xlink:title=" ">
<polygon fill="white" stroke="#666666" points="588.25,-234.5 435.75,-234.5 435.75,-201 588.25,-201 588.25,-234.5"/>
<text xml:space="preserve" text-anchor="start" x="443.75" y="-221" font-family="Helvetica,sans-Serif" font-size="10.00">mqtt::bridge::lib::</text>
<text xml:space="preserve" text-anchor="middle" x="512" y="-208.25" font-family="Helvetica,sans-Serif" font-size="10.00">BridgeStore::activateStaged</text>
</a>
</g>
</g>
<!-- Node4&#45;&gt;Node5 -->
<g id="edge4_Node000004_Node000005" class="edge">
<title>Node4&#45;&gt;Node5</title>
<g id="a_edge4_Node000004_Node000005"><a xlink:title=" ">
<path fill="none" stroke="#63b8ff" d="M351.41,-124.41C365.89,-141.08 396.14,-173.31 428.25,-191.75 430.85,-193.25 433.55,-194.67 436.32,-196.01"/>
<polygon fill="#63b8ff" stroke="#63b8ff" points="434.62,-199.09 445.18,-199.96 437.47,-192.69 434.62,-199.09"/>
</a>
</g>
</g>
<!-- Node6 -->
<g id="Node000006" class="node">
<title>Node6</title>
<g id="a_Node000006"><a xlink:href="classmqtt_1_1bridge_1_1lib_1_1SSEDistributor.html#a6163c6302162edf63fbfb851cf995bb0" target="_top" xlink:title=" ">
<polygon fill="white" stroke="#666666" points="595.75,-182.5 428.25,-182.5 428.25,-149 595.75,-149 595.75,-182.5"/>
<text xml:space="preserve" text-anchor="start" x="436.25" y="-169" font-family="Helvetica,sans-Serif" font-size="10.00">mqtt::bridge::lib::</text>
<text xml:space="preserve" text-anchor="middle" x="512" y="-156.25" font-family="Helvetica,sans-Serif" font-size="10.00">SSEDistributor::bridgesStopped</text>
</a>
</g>
</g>
<!-- Node4&#45;&gt;Node6 -->
<g id="edge5_Node000004_Node000006" class="edge">
<title>Node4&#45;&gt;Node6</title>
<g id="a_edge5_Node000004_Node000006"><a xlink:title=" ">
<path fill="none" stroke="#63b8ff" d="M377.41,-124.52C396.8,-130.51 421.58,-138.15 444.51,-145.23"/>
<polygon fill="#63b8ff" stroke="#63b8ff" points="443.2,-148.49 453.79,-148.1 445.27,-141.8 443.2,-148.49"/>
</a>
</g>
</g>
<!-- Node7 -->
<g id="Node000007" class="node">
<title>Node7</title>
<g id="a_Node000007"><a xlink:href="classmqtt_1_1bridge_1_1lib_1_1BridgeStore.html#a7b35204686d51d46798ecae6918527e1" target="_top" xlink:title=" ">
<polygon fill="white" stroke="#666666" points="572.12,-130.5 451.88,-130.5 451.88,-97 572.12,-97 572.12,-130.5"/>
<text xml:space="preserve" text-anchor="start" x="459.88" y="-117" font-family="Helvetica,sans-Serif" font-size="10.00">mqtt::bridge::lib::</text>
<text xml:space="preserve" text-anchor="middle" x="512" y="-104.25" font-family="Helvetica,sans-Serif" font-size="10.00">BridgeStore::instance</text>
</a>
</g>
</g>
<!-- Node4&#45;&gt;Node7 -->
<g id="edge6_Node000004_Node000007" class="edge">
<title>Node4&#45;&gt;Node7</title>
<g id="a_edge6_Node000004_Node000007"><a xlink:title=" ">
<path fill="none" stroke="#63b8ff" d="M392.6,-113.75C407.51,-113.75 424.14,-113.75 440.11,-113.75"/>
<polygon fill="#63b8ff" stroke="#63b8ff" points="440.07,-117.25 450.07,-113.75 440.07,-110.25 440.07,-117.25"/>
</a>
</g>
</g>
<!-- Node8 -->
<g id="Node000008" class="node">
<title>Node8</title>
<g id="a_Node000008"><a xlink:href="classmqtt_1_1bridge_1_1lib_1_1SSEDistributor.html#ab6cc33c1c26ccfbd738a5ec2700f0896" target="_top" xlink:title=" ">
<polygon fill="white" stroke="#666666" points="781.25,-85.5 648.25,-85.5 648.25,-52 781.25,-52 781.25,-85.5"/>
<text xml:space="preserve" text-anchor="start" x="656.25" y="-72" font-family="Helvetica,sans-Serif" font-size="10.00">mqtt::bridge::lib::</text>
<text xml:space="preserve" text-anchor="middle" x="714.75" y="-59.25" font-family="Helvetica,sans-Serif" font-size="10.00">SSEDistributor::instance</text>
</a>
</g>
</g>
<!-- Node4&#45;&gt;Node8 -->
<g id="edge7_Node000004_Node000008" class="edge">
<title>Node4&#45;&gt;Node8</title>
<g id="a_edge7_Node000004_Node000008"><a xlink:title=" ">
<path fill="none" stroke="#63b8ff" d="M372.25,-102.9C388.56,-97.42 409.27,-91.21 428.25,-87.75 498.12,-75.01 578.99,-70.57 636.79,-69.14"/>
<polygon fill="#63b8ff" stroke="#63b8ff" points="636.6,-72.64 646.52,-68.92 636.44,-65.64 636.6,-72.64"/>
</a>
</g>
</g>
<!-- Node9 -->
<g id="Node000009" class="node">
<title>Node9</title>
<g id="a_Node000009"><a xlink:href="mqttbridge_8cpp.html#ac4db1bc049804762ae0893100ec95dec" target="_top" xlink:title=" ">
<polygon fill="white" stroke="#666666" points="549.62,-41.12 474.38,-41.12 474.38,-20.38 549.62,-20.38 549.62,-41.12"/>
<text xml:space="preserve" text-anchor="middle" x="512" y="-27.62" font-family="Helvetica,sans-Serif" font-size="10.00">startBridges</text>
</a>
</g>
</g>
<!-- Node4&#45;&gt;Node9 -->
<g id="edge8_Node000004_Node000009" class="edge">
<title>Node4&#45;&gt;Node9</title>
<g id="a_edge8_Node000004_Node000009"><a xlink:title=" ">
<path fill="none" stroke="#63b8ff" d="M355.35,-102.93C371.45,-89.86 400.33,-67.98 428.25,-54.75 439.21,-49.56 451.53,-45.25 463.25,-41.78"/>
<polygon fill="#63b8ff" stroke="#63b8ff" points="464.09,-45.18 472.78,-39.12 462.2,-38.44 464.09,-45.18"/>
</a>
</g>
</g>
<!-- Node9&#45;&gt;Node8 -->
<g id="edge10_Node000009_Node000008" class="edge">
<title>Node9&#45;&gt;Node8</title>
<g id="a_edge10_Node000009_Node000008"><a xlink:title=" ">
<path fill="none" stroke="#63b8ff" d="M549.82,-37.72C574.11,-42.32 606.83,-48.51 636.66,-54.16"/>
<polygon fill="#63b8ff" stroke="#63b8ff" points="635.96,-57.59 646.43,-56.01 637.26,-50.71 635.96,-57.59"/>
</a>
</g>
</g>
<!-- Node10 -->
<g id="Node000010" class="node">
<title>Node10</title>
<g id="a_Node000010"><a xlink:href="classmqtt_1_1bridge_1_1lib_1_1SSEDistributor.html#a2b97b3e1b7139a536dc1d9a7192bb9de" target="_top" xlink:title=" ">
<polygon fill="white" stroke="#666666" points="797.75,-33.5 631.75,-33.5 631.75,0 797.75,0 797.75,-33.5"/>
<text xml:space="preserve" text-anchor="start" x="639.75" y="-20" font-family="Helvetica,sans-Serif" font-size="10.00">mqtt::bridge::lib::</text>
<text xml:space="preserve" text-anchor="middle" x="714.75" y="-7.25" font-family="Helvetica,sans-Serif" font-size="10.00">SSEDistributor::bridgesStarting</text>
</a>
</g>
</g>
<!-- Node9&#45;&gt;Node10 -->
<g id="edge9_Node000009_Node000010" class="edge">
<title>Node9&#45;&gt;Node10</title>
<g id="a_edge9_Node000009_Node000010"><a xlink:title=" ">
<path fill="none" stroke="#63b8ff" d="M549.82,-28.18C569.65,-26.8 595.1,-25.02 620,-23.29"/>
<polygon fill="#63b8ff" stroke="#63b8ff" points="620.14,-26.79 629.87,-22.6 619.65,-19.8 620.14,-26.79"/>
</a>
</g>
</g>
<!-- Node11&#45;&gt;Node4 -->
<g id="edge12_Node000011_Node000004" class="edge">
<title>Node11&#45;&gt;Node4</title>
<g id="a_edge12_Node000011_Node000004"><a xlink:title=" ">
<path fill="none" stroke="#63b8ff" d="M228.5,-100.5C244.41,-102.38 262.29,-104.5 279.01,-106.48"/>
<polygon fill="#63b8ff" stroke="#63b8ff" points="278.52,-109.94 288.87,-107.64 279.35,-102.99 278.52,-109.94"/>
</a>
</g>
</g>
</g>
</svg>
