<?xml version="1.0" encoding="UTF-8" standalone="no"?>
<!DOCTYPE svg PUBLIC "-//W3C//DTD SVG 1.1//EN"
 "http://www.w3.org/Graphics/SVG/1.1/DTD/svg11.dtd">
<!-- Generated by graphviz version 14.1.2 (0)
 -->
<!-- Title: mqttcli/lib/ConfigSections.h Pages: 1 -->
<svg width="493pt" height="86pt"
 viewBox="0.00 0.00 493.00 86.00" xmlns="http://www.w3.org/2000/svg" xmlns:xlink="http://www.w3.org/1999/xlink">
<g id="graph0" class="graph" transform="scale(1 1) rotate(0) translate(4 81.5)">
<title>mqttcli/lib/ConfigSections.h</title>
<!-- Node1 -->
<g id="Node000001" class="node">
<title>Node1</title>
<g id="a_Node000001"><a xlink:title=" ">
<polygon fill="#999999" stroke="#666666" points="352.5,-77.5 202.25,-77.5 202.25,-56.75 352.5,-56.75 352.5,-77.5"/>
<text xml:space="preserve" text-anchor="middle" x="277.38" y="-64" font-family="Helvetica,sans-Serif" font-size="10.00">mqttcli/lib/ConfigSections.h</text>
</a>
</g>
</g>
<!-- Node2 -->
<g id="Node000002" class="node">
<title>Node2</title>
<g id="a_Node000002"><a xlink:href="mqttcli_2SocketContextFactory_8cpp.html" target="_top" xlink:title=" ">
<polygon fill="white" stroke="#666666" points="178.75,-20.75 0,-20.75 0,0 178.75,0 178.75,-20.75"/>
<text xml:space="preserve" text-anchor="middle" x="89.38" y="-7.25" font-family="Helvetica,sans-Serif" font-size="10.00">mqttcli/SocketContextFactory.cpp</text>
</a>
</g>
</g>
<!-- Node1&#45;&gt;Node2 -->
<g id="edge1_Node000001_Node000002" class="edge">
<title>Node1&#45;&gt;Node2</title>
<g id="a_edge1_Node000001_Node000002"><a xlink:title=" ">
<path fill="none" stroke="#63b8ff" d="M232.84,-53.16C199.17,-43.35 153.67,-30.1 123.01,-21.17"/>
<polygon fill="#63b8ff" stroke="#63b8ff" points="231.73,-56.48 242.31,-55.91 233.69,-49.76 231.73,-56.48"/>
</a>
</g>
</g>
<!-- Node3 -->
<g id="Node000003" class="node">
<title>Node3</title>
<g id="a_Node000003"><a xlink:href="mqttcli_2lib_2ConfigSections_8cpp.html" target="_top" xlink:title=" ">
<polygon fill="white" stroke="#666666" points="358.12,-20.75 196.62,-20.75 196.62,0 358.12,0 358.12,-20.75"/>
<text xml:space="preserve" text-anchor="middle" x="277.38" y="-7.25" font-family="Helvetica,sans-Serif" font-size="10.00">mqttcli/lib/ConfigSections.cpp</text>
</a>
</g>
</g>
<!-- Node1&#45;&gt;Node3 -->
<g id="edge2_Node000001_Node000003" class="edge">
<title>Node1&#45;&gt;Node3</title>
<g id="a_edge2_Node000001_Node000003"><a xlink:title=" ">
<path fill="none" stroke="#63b8ff" d="M277.38,-44.88C277.38,-36.66 277.38,-27.68 277.38,-21.08"/>
<polygon fill="#63b8ff" stroke="#63b8ff" points="273.88,-44.82 277.38,-54.82 280.88,-44.82 273.88,-44.82"/>
</a>
</g>
</g>
<!-- Node4 -->
<g id="Node000004" class="node">
<title>Node4</title>
<g id="a_Node000004"><a xlink:href="mqttcli_8cpp.html" target="_top" xlink:title=" ">
<polygon fill="white" stroke="#666666" points="484.5,-20.75 376.25,-20.75 376.25,0 484.5,0 484.5,-20.75"/>
<text xml:space="preserve" text-anchor="middle" x="430.38" y="-7.25" font-family="Helvetica,sans-Serif" font-size="10.00">mqttcli/mqttcli.cpp</text>
</a>
</g>
</g>
<!-- Node1&#45;&gt;Node4 -->
<g id="edge3_Node000001_Node000004" class="edge">
<title>Node1&#45;&gt;Node4</title>
<g id="a_edge3_Node000001_Node000004"><a xlink:title=" ">
<path fill="none" stroke="#63b8ff" d="M315.42,-52.51C342.62,-42.78 378.59,-29.9 403,-21.17"/>
<polygon fill="#63b8ff" stroke="#63b8ff" points="314.39,-49.16 306.15,-55.83 316.75,-55.75 314.39,-49.16"/>
</a>
</g>
</g>
</g>
</svg>
