<?xml version="1.0" encoding="UTF-8" standalone="no"?>
<!DOCTYPE svg PUBLIC "-//W3C//DTD SVG 1.1//EN"
 "http://www.w3.org/Graphics/SVG/1.1/DTD/svg11.dtd">
<!-- Generated by graphviz version 14.1.2 (0)
 -->
<!-- Title: mqttstore/lib/Mqtt.h Pages: 1 -->
<svg width="344pt" height="86pt"
 viewBox="0.00 0.00 344.00 86.00" xmlns="http://www.w3.org/2000/svg" xmlns:xlink="http://www.w3.org/1999/xlink">
<g id="graph0" class="graph" transform="scale(1 1) rotate(0) translate(4 81.5)">
<title>mqttstore/lib/Mqtt.h</title>
<!-- Node1 -->
<g id="Node000001" class="node">
<title>Node1</title>
<g id="a_Node000001"><a xlink:title=" ">
<polygon fill="#999999" stroke="#666666" points="240.88,-77.5 127.38,-77.5 127.38,-56.75 240.88,-56.75 240.88,-77.5"/>
<text xml:space="preserve" text-anchor="middle" x="184.12" y="-64" font-family="Helvetica,sans-Serif" font-size="10.00">mqttstore/lib/Mqtt.h</text>
</a>
</g>
</g>
<!-- Node2 -->
<g id="Node000002" class="node">
<title>Node2</title>
<g id="a_Node000002"><a xlink:href="mqttstore_2SocketContextFactory_8cpp.html" target="_top" xlink:title=" ">
<polygon fill="white" stroke="#666666" points="192.25,-20.75 0,-20.75 0,0 192.25,0 192.25,-20.75"/>
<text xml:space="preserve" text-anchor="middle" x="96.12" y="-7.25" font-family="Helvetica,sans-Serif" font-size="10.00">mqttstore/SocketContextFactory.cpp</text>
</a>
</g>
</g>
<!-- Node1&#45;&gt;Node2 -->
<g id="edge1_Node000001_Node000002" class="edge">
<title>Node1&#45;&gt;Node2</title>
<g id="a_edge1_Node000001_Node000002"><a xlink:title=" ">
<path fill="none" stroke="#63b8ff" d="M159.02,-50.51C143.78,-41.03 124.82,-29.23 111.72,-21.08"/>
<polygon fill="#63b8ff" stroke="#63b8ff" points="156.77,-53.23 167.11,-55.54 160.47,-47.28 156.77,-53.23"/>
</a>
</g>
</g>
<!-- Node3 -->
<g id="Node000003" class="node">
<title>Node3</title>
<g id="a_Node000003"><a xlink:href="mqttstore_2lib_2Mqtt_8cpp.html" target="_top" xlink:title=" ">
<polygon fill="white" stroke="#666666" points="335.5,-20.75 210.75,-20.75 210.75,0 335.5,0 335.5,-20.75"/>
<text xml:space="preserve" text-anchor="middle" x="273.12" y="-7.25" font-family="Helvetica,sans-Serif" font-size="10.00">mqttstore/lib/Mqtt.cpp</text>
</a>
</g>
</g>
<!-- Node1&#45;&gt;Node3 -->
<g id="edge2_Node000001_Node000003" class="edge">
<title>Node1&#45;&gt;Node3</title>
<g id="a_edge2_Node000001_Node000003"><a xlink:title=" ">
<path fill="none" stroke="#63b8ff" d="M209.52,-50.51C224.92,-41.03 244.1,-29.23 257.35,-21.08"/>
<polygon fill="#63b8ff" stroke="#63b8ff" points="208.01,-47.32 201.33,-55.54 211.68,-53.29 208.01,-47.32"/>
</a>
</g>
</g>
</g>
</svg>
