<?xml version="1.0" encoding="UTF-8" standalone="no"?>
<!DOCTYPE svg PUBLIC "-//W3C//DTD SVG 1.1//EN"
 "http://www.w3.org/Graphics/SVG/1.1/DTD/svg11.dtd">
<!-- Generated by graphviz version 14.1.2 (0)
 -->
<!-- Title: mqttintegrator/mqttintegrator.cpp Pages: 1 -->
<svg width="746pt" height="155pt"
 viewBox="0.00 0.00 746.00 155.00" xmlns="http://www.w3.org/2000/svg" xmlns:xlink="http://www.w3.org/1999/xlink">
<g id="graph0" class="graph" transform="scale(1 1) rotate(0) translate(4 151)">
<title>mqttintegrator/mqttintegrator.cpp</title>
<!-- Node1 -->
<g id="Node000001" class="node">
<title>Node1</title>
<g id="a_Node000001"><a xlink:title=" ">
<polygon fill="#999999" stroke="#666666" points="430.38,-147 248.62,-147 248.62,-126.25 430.38,-126.25 430.38,-147"/>
<text xml:space="preserve" text-anchor="middle" x="339.5" y="-133.5" font-family="Helvetica,sans-Serif" font-size="10.00">mqttintegrator/mqttintegrator.cpp</text>
</a>
</g>
</g>
<!-- Node2 -->
<g id="Node000002" class="node">
<title>Node2</title>
<g id="a_Node000002"><a xlink:href="mqttintegrator_2SocketContextFactory_8h.html" target="_top" xlink:title=" ">
<polygon fill="white" stroke="#666666" points="184.5,-90.25 54.5,-90.25 54.5,-69.5 184.5,-69.5 184.5,-90.25"/>
<text xml:space="preserve" text-anchor="middle" x="119.5" y="-76.75" font-family="Helvetica,sans-Serif" font-size="10.00">SocketContextFactory.h</text>
</a>
</g>
</g>
<!-- Node1&#45;&gt;Node2 -->
<g id="edge1_Node000001_Node000002" class="edge">
<title>Node1&#45;&gt;Node2</title>
<g id="a_edge1_Node000001_Node000002"><a xlink:title=" ">
<path fill="none" stroke="#63b8ff" d="M299.91,-125.77C263.58,-116.73 209.57,-103.29 170.11,-93.47"/>
<polygon fill="#63b8ff" stroke="#63b8ff" points="171.16,-90.12 160.61,-91.11 169.47,-96.92 171.16,-90.12"/>
</a>
</g>
</g>
<!-- Node5 -->
<g id="Node000005" class="node">
<title>Node5</title>
<g id="a_Node000005"><a xlink:title=" ">
<polygon fill="#e0e0e0" stroke="#999999" points="258,-90.25 203,-90.25 203,-69.5 258,-69.5 258,-90.25"/>
<text xml:space="preserve" text-anchor="middle" x="230.5" y="-76.75" font-family="Helvetica,sans-Serif" font-size="10.00">config.h</text>
</a>
</g>
</g>
<!-- Node1&#45;&gt;Node5 -->
<g id="edge4_Node000001_Node000005" class="edge">
<title>Node1&#45;&gt;Node5</title>
<g id="a_edge4_Node000001_Node000005"><a xlink:title=" ">
<path fill="none" stroke="#63b8ff" d="M320.01,-125.84C303.35,-117.47 279.12,-105.29 260.06,-95.72"/>
<polygon fill="#63b8ff" stroke="#63b8ff" points="261.68,-92.62 251.17,-91.26 258.54,-98.87 261.68,-92.62"/>
</a>
</g>
</g>
<!-- Node6 -->
<g id="Node000006" class="node">
<title>Node6</title>
<g id="a_Node000006"><a xlink:href="ConfigApplication_8h.html" target="_top" xlink:title=" ">
<polygon fill="white" stroke="#666666" points="402.62,-90.25 276.38,-90.25 276.38,-69.5 402.62,-69.5 402.62,-90.25"/>
<text xml:space="preserve" text-anchor="middle" x="339.5" y="-76.75" font-family="Helvetica,sans-Serif" font-size="10.00">lib/ConfigApplication.h</text>
</a>
</g>
</g>
<!-- Node1&#45;&gt;Node6 -->
<g id="edge5_Node000001_Node000006" class="edge">
<title>Node1&#45;&gt;Node6</title>
<g id="a_edge5_Node000001_Node000006"><a xlink:title=" ">
<path fill="none" stroke="#63b8ff" d="M339.5,-125.84C339.5,-119.22 339.5,-110.22 339.5,-102.02"/>
<polygon fill="#63b8ff" stroke="#63b8ff" points="343,-102.09 339.5,-92.09 336,-102.09 343,-102.09"/>
</a>
</g>
</g>
<!-- Node7 -->
<g id="Node000007" class="node">
<title>Node7</title>
<g id="a_Node000007"><a xlink:href="MappingAdminRouter_8h.html" target="_top" xlink:title=" ">
<polygon fill="white" stroke="#666666" points="566.38,-90.25 420.62,-90.25 420.62,-69.5 566.38,-69.5 566.38,-90.25"/>
<text xml:space="preserve" text-anchor="middle" x="493.5" y="-76.75" font-family="Helvetica,sans-Serif" font-size="10.00">lib/MappingAdminRouter.h</text>
</a>
</g>
</g>
<!-- Node1&#45;&gt;Node7 -->
<g id="edge6_Node000001_Node000007" class="edge">
<title>Node1&#45;&gt;Node7</title>
<g id="a_edge6_Node000001_Node000007"><a xlink:title=" ">
<path fill="none" stroke="#63b8ff" d="M367.03,-125.84C391.59,-117.11 427.8,-104.23 455.18,-94.5"/>
<polygon fill="#63b8ff" stroke="#63b8ff" points="456.27,-97.83 464.52,-91.18 453.93,-91.23 456.27,-97.83"/>
</a>
</g>
</g>
<!-- Node8 -->
<g id="Node000008" class="node">
<title>Node8</title>
<g id="a_Node000008"><a xlink:href="mqttintegrator_2lib_2Mqtt_8h.html" target="_top" xlink:title=" ">
<polygon fill="white" stroke="#666666" points="646.75,-90.25 584.25,-90.25 584.25,-69.5 646.75,-69.5 646.75,-90.25"/>
<text xml:space="preserve" text-anchor="middle" x="615.5" y="-76.75" font-family="Helvetica,sans-Serif" font-size="10.00">lib/Mqtt.h</text>
</a>
</g>
</g>
<!-- Node1&#45;&gt;Node8 -->
<g id="edge7_Node000001_Node000008" class="edge">
<title>Node1&#45;&gt;Node8</title>
<g id="a_edge7_Node000001_Node000008"><a xlink:title=" ">
<path fill="none" stroke="#63b8ff" d="M393.99,-125.79C439.38,-117.46 505.99,-104.89 572.91,-90.74"/>
<polygon fill="#63b8ff" stroke="#63b8ff" points="573.55,-94.18 582.6,-88.68 572.09,-87.34 573.55,-94.18"/>
</a>
</g>
</g>
<!-- Node3 -->
<g id="Node000003" class="node">
<title>Node3</title>
<g id="a_Node000003"><a xlink:title=" ">
<polygon fill="#e0e0e0" stroke="#999999" points="133,-33.5 0,-33.5 0,0 133,0 133,-33.5"/>
<text xml:space="preserve" text-anchor="start" x="8" y="-20" font-family="Helvetica,sans-Serif" font-size="10.00">core/socket/stream</text>
<text xml:space="preserve" text-anchor="middle" x="66.5" y="-7.25" font-family="Helvetica,sans-Serif" font-size="10.00">/SocketContextFactory.h</text>
</a>
</g>
</g>
<!-- Node2&#45;&gt;Node3 -->
<g id="edge2_Node000002_Node000003" class="edge">
<title>Node2&#45;&gt;Node3</title>
<g id="a_edge2_Node000002_Node000003"><a xlink:title=" ">
<path fill="none" stroke="#63b8ff" d="M110.98,-69.05C104.78,-61.89 96.07,-51.86 88.01,-42.56"/>
<polygon fill="#63b8ff" stroke="#63b8ff" points="90.76,-40.39 81.57,-35.13 85.48,-44.98 90.76,-40.39"/>
</a>
</g>
</g>
<!-- Node4 -->
<g id="Node000004" class="node">
<title>Node4</title>
<g id="a_Node000004"><a xlink:title=" ">
<polygon fill="#e0e0e0" stroke="#999999" points="194.38,-27.12 150.62,-27.12 150.62,-6.38 194.38,-6.38 194.38,-27.12"/>
<text xml:space="preserve" text-anchor="middle" x="172.5" y="-13.62" font-family="Helvetica,sans-Serif" font-size="10.00">string</text>
</a>
</g>
</g>
<!-- Node2&#45;&gt;Node4 -->
<g id="edge3_Node000002_Node000004" class="edge">
<title>Node2&#45;&gt;Node4</title>
<g id="a_edge3_Node000002_Node000004"><a xlink:title=" ">
<path fill="none" stroke="#63b8ff" d="M128.02,-69.05C135.79,-60.09 147.47,-46.62 156.91,-35.73"/>
<polygon fill="#63b8ff" stroke="#63b8ff" points="159.28,-38.34 163.19,-28.49 153.99,-33.75 159.28,-38.34"/>
</a>
</g>
</g>
<!-- Node9 -->
<g id="Node000009" class="node">
<title>Node9</title>
<g id="a_Node000009"><a xlink:href="MqttMapper_8h.html" target="_top" xlink:title=" ">
<polygon fill="white" stroke="#666666" points="601.12,-27.12 501.88,-27.12 501.88,-6.38 601.12,-6.38 601.12,-27.12"/>
<text xml:space="preserve" text-anchor="middle" x="551.5" y="-13.62" font-family="Helvetica,sans-Serif" font-size="10.00">lib/MqttMapper.h</text>
</a>
</g>
</g>
<!-- Node8&#45;&gt;Node9 -->
<g id="edge8_Node000008_Node000009" class="edge">
<title>Node8&#45;&gt;Node9</title>
<g id="a_edge8_Node000008_Node000009"><a xlink:title=" ">
<path fill="none" stroke="#63b8ff" d="M605.22,-69.05C595.64,-59.91 581.16,-46.08 569.64,-35.08"/>
<polygon fill="#63b8ff" stroke="#63b8ff" points="572.29,-32.77 562.64,-28.39 567.45,-37.83 572.29,-32.77"/>
</a>
</g>
</g>
<!-- Node10 -->
<g id="Node000010" class="node">
<title>Node10</title>
<g id="a_Node000010"><a xlink:title=" ">
<polygon fill="#e0e0e0" stroke="#999999" points="738.25,-27.12 618.75,-27.12 618.75,-6.38 738.25,-6.38 738.25,-27.12"/>
<text xml:space="preserve" text-anchor="middle" x="678.5" y="-13.62" font-family="Helvetica,sans-Serif" font-size="10.00">iot/mqtt/client/Mqtt.h</text>
</a>
</g>
</g>
<!-- Node8&#45;&gt;Node10 -->
<g id="edge9_Node000008_Node000010" class="edge">
<title>Node8&#45;&gt;Node10</title>
<g id="a_edge9_Node000008_Node000010"><a xlink:title=" ">
<path fill="none" stroke="#63b8ff" d="M625.62,-69.05C635.05,-59.91 649.3,-46.08 660.64,-35.08"/>
<polygon fill="#63b8ff" stroke="#63b8ff" points="662.78,-37.87 667.52,-28.4 657.91,-32.85 662.78,-37.87"/>
</a>
</g>
</g>
</g>
</svg>
