<?xml version="1.0" encoding="UTF-8" standalone="no"?>
<!DOCTYPE svg PUBLIC "-//W3C//DTD SVG 1.1//EN"
 "http://www.w3.org/Graphics/SVG/1.1/DTD/svg11.dtd">
<!-- Generated by graphviz version 14.1.2 (0)
 -->
<!-- Title: getRouter Pages: 1 -->
<svg width="466pt" height="120pt"
 viewBox="0.00 0.00 466.00 120.00" xmlns="http://www.w3.org/2000/svg" xmlns:xlink="http://www.w3.org/1999/xlink">
<g id="graph0" class="graph" transform="scale(1 1) rotate(0) translate(4 115.5)">
<title>getRouter</title>
<!-- Node1 -->
<g id="Node000001" class="node">
<title>Node1</title>
<g id="a_Node000001"><a xlink:title=" ">
<polygon fill="#999999" stroke="#666666" points="64,-53.12 0,-53.12 0,-32.38 64,-32.38 64,-53.12"/>
<text xml:space="preserve" text-anchor="middle" x="32" y="-39.62" font-family="Helvetica,sans-Serif" font-size="10.00">getRouter</text>
</a>
</g>
</g>
<!-- Node2 -->
<g id="Node000002" class="node">
<title>Node2</title>
<g id="a_Node000002"><a xlink:href="classmqtt_1_1mqttbroker_1_1lib_1_1MqttModel.html#a40a2fab52e479c480337550a4515ff52" target="_top" xlink:title=" ">
<polygon fill="white" stroke="#666666" points="269,-85.5 100,-85.5 100,-52 269,-52 269,-85.5"/>
<text xml:space="preserve" text-anchor="start" x="108" y="-72" font-family="Helvetica,sans-Serif" font-size="10.00">mqtt::mqttbroker::lib</text>
<text xml:space="preserve" text-anchor="middle" x="184.5" y="-59.25" font-family="Helvetica,sans-Serif" font-size="10.00">::MqttModel::addEventReceiver</text>
</a>
</g>
</g>
<!-- Node1&#45;&gt;Node2 -->
<g id="edge1_Node000001_Node000002" class="edge">
<title>Node1&#45;&gt;Node2</title>
<g id="a_edge1_Node000001_Node000002"><a xlink:title=" ">
<path fill="none" stroke="#63b8ff" d="M64.18,-48.14C71.57,-49.41 79.83,-50.84 88.46,-52.33"/>
<polygon fill="#63b8ff" stroke="#63b8ff" points="87.62,-55.74 98.07,-53.99 88.81,-48.84 87.62,-55.74"/>
</a>
</g>
</g>
<!-- Node5 -->
<g id="Node000005" class="node">
<title>Node5</title>
<g id="a_Node000005"><a xlink:href="classmqtt_1_1mqttbroker_1_1lib_1_1MqttModel.html#a472d48d30d9626c722b64ddce4002e5f" target="_top" xlink:title=" ">
<polygon fill="white" stroke="#666666" points="245.38,-33.5 123.62,-33.5 123.62,0 245.38,0 245.38,-33.5"/>
<text xml:space="preserve" text-anchor="start" x="131.62" y="-20" font-family="Helvetica,sans-Serif" font-size="10.00">mqtt::mqttbroker::lib</text>
<text xml:space="preserve" text-anchor="middle" x="184.5" y="-7.25" font-family="Helvetica,sans-Serif" font-size="10.00">::MqttModel::instance</text>
</a>
</g>
</g>
<!-- Node1&#45;&gt;Node5 -->
<g id="edge4_Node000001_Node000005" class="edge">
<title>Node1&#45;&gt;Node5</title>
<g id="a_edge4_Node000001_Node000005"><a xlink:title=" ">
<path fill="none" stroke="#63b8ff" d="M64.18,-37.36C78.17,-34.95 95.29,-31.99 112.14,-29.08"/>
<polygon fill="#63b8ff" stroke="#63b8ff" points="112.4,-32.58 121.66,-27.43 111.21,-25.69 112.4,-32.58"/>
</a>
</g>
</g>
<!-- Node3 -->
<g id="Node000003" class="node">
<title>Node3</title>
<g id="a_Node000003"><a xlink:href="classmqtt_1_1mqttbroker_1_1lib_1_1MqttModel.html#acca53577f6014b5d170b4badfd675f53" target="_top" xlink:title=" ">
<polygon fill="white" stroke="#666666" points="457.5,-111.5 305,-111.5 305,-78 457.5,-78 457.5,-111.5"/>
<text xml:space="preserve" text-anchor="start" x="313" y="-98" font-family="Helvetica,sans-Serif" font-size="10.00">mqtt::mqttbroker::lib</text>
<text xml:space="preserve" text-anchor="middle" x="381.25" y="-85.25" font-family="Helvetica,sans-Serif" font-size="10.00">::MqttModel::onlineDuration</text>
</a>
</g>
</g>
<!-- Node2&#45;&gt;Node3 -->
<g id="edge2_Node000002_Node000003" class="edge">
<title>Node2&#45;&gt;Node3</title>
<g id="a_edge2_Node000002_Node000003"><a xlink:title=" ">
<path fill="none" stroke="#63b8ff" d="M269.22,-79.93C277.21,-80.99 285.32,-82.08 293.34,-83.15"/>
<polygon fill="#63b8ff" stroke="#63b8ff" points="292.71,-86.59 303.09,-84.45 293.64,-79.66 292.71,-86.59"/>
</a>
</g>
</g>
<!-- Node4 -->
<g id="Node000004" class="node">
<title>Node4</title>
<g id="a_Node000004"><a xlink:href="classmqtt_1_1mqttbroker_1_1lib_1_1MqttModel.html#adee9c82d70f6ea30bbc0217efc16d440" target="_top" xlink:title=" ">
<polygon fill="white" stroke="#666666" points="449.62,-59.5 312.88,-59.5 312.88,-26 449.62,-26 449.62,-59.5"/>
<text xml:space="preserve" text-anchor="start" x="320.88" y="-46" font-family="Helvetica,sans-Serif" font-size="10.00">mqtt::mqttbroker::lib</text>
<text xml:space="preserve" text-anchor="middle" x="381.25" y="-33.25" font-family="Helvetica,sans-Serif" font-size="10.00">::MqttModel::onlineSince</text>
</a>
</g>
</g>
<!-- Node2&#45;&gt;Node4 -->
<g id="edge3_Node000002_Node000004" class="edge">
<title>Node2&#45;&gt;Node4</title>
<g id="a_edge3_Node000002_Node000004"><a xlink:title=" ">
<path fill="none" stroke="#63b8ff" d="M269.22,-57.57C279.82,-56.16 290.64,-54.71 301.16,-53.31"/>
<polygon fill="#63b8ff" stroke="#63b8ff" points="301.49,-56.8 310.94,-52 300.57,-49.86 301.49,-56.8"/>
</a>
</g>
</g>
</g>
</svg>
