<?xml version="1.0" encoding="UTF-8" standalone="no"?>
<!DOCTYPE svg PUBLIC "-//W3C//DTD SVG 1.1//EN"
 "http://www.w3.org/Graphics/SVG/1.1/DTD/svg11.dtd">
<!-- Generated by graphviz version 14.1.1 (0)
 -->
<!-- Title: mqttbroker/lib/Mqtt.h Pages: 1 -->
<svg width="248pt" height="86pt"
 viewBox="0.00 0.00 248.00 86.00" xmlns="http://www.w3.org/2000/svg" xmlns:xlink="http://www.w3.org/1999/xlink">
<g id="graph0" class="graph" transform="scale(1 1) rotate(0) translate(4 81.5)">
<title>mqttbroker/lib/Mqtt.h</title>
<!-- Node1 -->
<g id="Node000001" class="node">
<title>Node1</title>
<g id="a_Node000001"><a xlink:title=" ">
<polygon fill="#999999" stroke="#666666" points="173.38,-77.5 53.87,-77.5 53.87,-56.75 173.38,-56.75 173.38,-77.5"/>
<text xml:space="preserve" text-anchor="middle" x="113.62" y="-64" font-family="Helvetica,sans-Serif" font-size="10.00">mqttbroker/lib/Mqtt.h</text>
</a>
</g>
</g>
<!-- Node2 -->
<g id="Node000002" class="node">
<title>Node2</title>
<g id="a_Node000002"><a xlink:href="MqttMapper_8h.html" target="_top" xlink:title=" ">
<polygon fill="white" stroke="#666666" points="99.25,-20.75 0,-20.75 0,0 99.25,0 99.25,-20.75"/>
<text xml:space="preserve" text-anchor="middle" x="49.62" y="-7.25" font-family="Helvetica,sans-Serif" font-size="10.00">lib/MqttMapper.h</text>
</a>
</g>
</g>
<!-- Node1&#45;&gt;Node2 -->
<g id="edge1_Node000001_Node000002" class="edge">
<title>Node1&#45;&gt;Node2</title>
<g id="a_edge1_Node000001_Node000002"><a xlink:title=" ">
<path fill="none" stroke="#63b8ff" d="M102.18,-56.34C93.17,-48.63 80.39,-37.7 69.69,-28.54"/>
<polygon fill="#63b8ff" stroke="#63b8ff" points="71.99,-25.9 62.12,-22.06 67.44,-31.22 71.99,-25.9"/>
</a>
</g>
</g>
<!-- Node3 -->
<g id="Node000003" class="node">
<title>Node3</title>
<g id="a_Node000003"><a xlink:title=" ">
<polygon fill="#e0e0e0" stroke="#999999" points="240.25,-20.75 117,-20.75 117,0 240.25,0 240.25,-20.75"/>
<text xml:space="preserve" text-anchor="middle" x="178.62" y="-7.25" font-family="Helvetica,sans-Serif" font-size="10.00">iot/mqtt/server/Mqtt.h</text>
</a>
</g>
</g>
<!-- Node1&#45;&gt;Node3 -->
<g id="edge2_Node000001_Node000003" class="edge">
<title>Node1&#45;&gt;Node3</title>
<g id="a_edge2_Node000001_Node000003"><a xlink:title=" ">
<path fill="none" stroke="#63b8ff" d="M125.25,-56.34C134.49,-48.55 147.64,-37.47 158.57,-28.26"/>
<polygon fill="#63b8ff" stroke="#63b8ff" points="160.55,-31.17 165.95,-22.05 156.04,-25.82 160.55,-31.17"/>
</a>
</g>
</g>
</g>
</svg>
