<?xml version="1.0" encoding="UTF-8" standalone="no"?>
<!DOCTYPE svg PUBLIC "-//W3C//DTD SVG 1.1//EN"
 "http://www.w3.org/Graphics/SVG/1.1/DTD/svg11.dtd">
<!-- Generated by graphviz version 14.1.2 (0)
 -->
<!-- Title: mqttintegrator/websocket/SubProtocolFactory.cpp Pages: 1 -->
<!--zoomable 181 -->

<svg id="main" version="1.1" xmlns="http://www.w3.org/2000/svg" xmlns:xlink="http://www.w3.org/1999/xlink" xml:space="preserve" onload="init(evt)">

<style type="text/css"><![CDATA[
.node, .edge {opacity: 0.7;}
.node.selected, .edge.selected {opacity: 1;}
.edge:hover path { stroke: red; }
.edge:hover polygon { stroke: red; fill: red; }
]]></style>

<defs>
  <circle id="rim" cx="0" cy="0" r="7"/>
  <circle id="rim2" cx="0" cy="0" r="3.5"/>
  <g id="zoomPlus">
    <use xlink:href="#rim" fill="#404040"><set attributeName="fill" to="#808080" begin="zoomplus.mouseover" end="zoomplus.mouseout"/></use>
    <path d="M-4,0h8M0,-4v8" fill="none" stroke="white" stroke-width="1.5" pointer-events="none"/>
  </g>
  <g id="zoomMin">
    <use xlink:href="#rim" fill="#404040"><set attributeName="fill" to="#808080" begin="zoomminus.mouseover" end="zoomminus.mouseout"/></use>
    <path d="M-4,0h8" fill="none" stroke="white" stroke-width="1.5" pointer-events="none"/>
  </g>
  <g id="arrowUp" transform="translate(30 24)">
    <use xlink:href="#rim"/>
    <path pointer-events="none" fill="none" stroke="white" stroke-width="1.5" d="M0,-3.0v7 M-2.5,-0.5L0,-3.0L2.5,-0.5"/>
  </g>
  <g id="arrowRight" transform="rotate(90) translate(36 -43)">
    <use xlink:href="#rim"/>
    <path pointer-events="none" fill="none" stroke="white" stroke-width="1.5" d="M0,-3.0v7 M-2.5,-0.5L0,-3.0L2.5,-0.5"/>
  </g>
  <g id="arrowDown" transform="rotate(180) translate(-30 -48)">
    <use xlink:href="#rim"/>
    <path pointer-events="none" fill="none" stroke="white" stroke-width="1.5" d="M0,-3.0v7 M-2.5,-0.5L0,-3.0L2.5,-0.5"/>
  </g>
  <g id="arrowLeft" transform="rotate(270) translate(-36 17)">
    <use xlink:href="#rim"/>
    <path pointer-events="none" fill="none" stroke="white" stroke-width="1.5" d="M0,-3.0v7 M-2.5,-0.5L0,-3.0L2.5,-0.5"/>
  </g>
  <g id="resetDef">
    <use xlink:href="#rim2" fill="#404040"><set attributeName="fill" to="#808080" begin="reset.mouseover" end="reset.mouseout"/></use>
  </g>
</defs>
<script type="application/ecmascript">
var viewWidth = 1054;
var viewHeight = 181;
var sectionId = 'dynsection-0';
</script>
<script type="application/ecmascript" xlink:href="svg.min.js"/>
<svg id="graph" class="graph">
<g id="viewport">
<title>mqttintegrator/websocket/SubProtocolFactory.cpp</title>
<!-- Node1 -->
<g id="Node000001" class="node">
<title>Node1</title>
<g id="a_Node000001"><a xlink:title=" ">
<polygon fill="#999999" stroke="#666666" points="737.38,-172.5 595.38,-172.5 595.38,-139 737.38,-139 737.38,-172.5"/>
<text xml:space="preserve" text-anchor="start" x="603.38" y="-159" font-family="Helvetica,sans-Serif" font-size="10.00">mqttintegrator/websocket</text>
<text xml:space="preserve" text-anchor="middle" x="666.38" y="-146.25" font-family="Helvetica,sans-Serif" font-size="10.00">/SubProtocolFactory.cpp</text>
</a>
</g>
</g>
<!-- Node2 -->
<g id="Node000002" class="node">
<title>Node2</title>
<g id="a_Node000002"><a xlink:href="mqttintegrator_2websocket_2SubProtocolFactory_8h.html" target="_top" xlink:title=" ">
<polygon fill="white" stroke="#666666" points="382,-96.62 264.75,-96.62 264.75,-75.88 382,-75.88 382,-96.62"/>
<text xml:space="preserve" text-anchor="middle" x="323.38" y="-83.12" font-family="Helvetica,sans-Serif" font-size="10.00">SubProtocolFactory.h</text>
</a>
</g>
</g>
<!-- Node1&#45;&gt;Node2 -->
<g id="edge1_Node000001_Node000002" class="edge">
<title>Node1&#45;&gt;Node2</title>
<g id="a_edge1_Node000001_Node000002"><a xlink:title=" ">
<path fill="none" stroke="#63b8ff" d="M594.89,-140.68C532.64,-128.43 443.36,-110.86 384.41,-99.26"/>
<polygon fill="#63b8ff" stroke="#63b8ff" points="385.37,-95.88 374.89,-97.39 384.02,-102.75 385.37,-95.88"/>
</a>
</g>
</g>
<!-- Node6 -->
<g id="Node000006" class="node">
<title>Node6</title>
<g id="a_Node000006"><a xlink:href="ConfigApplication_8h.html" target="_top" xlink:title=" ">
<polygon fill="white" stroke="#666666" points="564.5,-96.62 438.25,-96.62 438.25,-75.88 564.5,-75.88 564.5,-96.62"/>
<text xml:space="preserve" text-anchor="middle" x="501.38" y="-83.12" font-family="Helvetica,sans-Serif" font-size="10.00">lib/ConfigApplication.h</text>
</a>
</g>
</g>
<!-- Node1&#45;&gt;Node6 -->
<g id="edge5_Node000001_Node000006" class="edge">
<title>Node1&#45;&gt;Node6</title>
<g id="a_edge5_Node000001_Node000006"><a xlink:title=" ">
<path fill="none" stroke="#63b8ff" d="M626.85,-138.58C599.03,-127.2 562.17,-112.12 535.6,-101.25"/>
<polygon fill="#63b8ff" stroke="#63b8ff" points="537.24,-98.14 526.66,-97.59 534.59,-104.62 537.24,-98.14"/>
</a>
</g>
</g>
<!-- Node8 -->
<g id="Node000008" class="node">
<title>Node8</title>
<g id="a_Node000008"><a xlink:title=" ">
<polygon fill="#e0e0e0" stroke="#999999" points="644.62,-96.62 582.12,-96.62 582.12,-75.88 644.62,-75.88 644.62,-96.62"/>
<text xml:space="preserve" text-anchor="middle" x="613.38" y="-83.12" font-family="Helvetica,sans-Serif" font-size="10.00">lib/Mqtt.h</text>
</a>
</g>
</g>
<!-- Node1&#45;&gt;Node8 -->
<g id="edge7_Node000001_Node000008" class="edge">
<title>Node1&#45;&gt;Node8</title>
<g id="a_edge7_Node000001_Node000008"><a xlink:title=" ">
<path fill="none" stroke="#63b8ff" d="M653.81,-138.75C646.11,-128.94 636.22,-116.34 628.14,-106.05"/>
<polygon fill="#63b8ff" stroke="#63b8ff" points="630.95,-103.97 622.02,-98.26 625.44,-108.29 630.95,-103.97"/>
</a>
</g>
</g>
<!-- Node9 -->
<g id="Node000009" class="node">
<title>Node9</title>
<g id="a_Node000009"><a xlink:title=" ">
<polygon fill="#e0e0e0" stroke="#999999" points="777.88,-103 662.88,-103 662.88,-69.5 777.88,-69.5 777.88,-103"/>
<text xml:space="preserve" text-anchor="start" x="670.88" y="-89.5" font-family="Helvetica,sans-Serif" font-size="10.00">core/socket/stream</text>
<text xml:space="preserve" text-anchor="middle" x="720.38" y="-76.75" font-family="Helvetica,sans-Serif" font-size="10.00">/SocketConnection.h</text>
</a>
</g>
</g>
<!-- Node1&#45;&gt;Node9 -->
<g id="edge8_Node000001_Node000009" class="edge">
<title>Node1&#45;&gt;Node9</title>
<g id="a_edge8_Node000001_Node000009"><a xlink:title=" ">
<path fill="none" stroke="#63b8ff" d="M679.17,-138.75C685.56,-130.77 693.43,-120.93 700.58,-112"/>
<polygon fill="#63b8ff" stroke="#63b8ff" points="703.21,-114.31 706.72,-104.31 697.74,-109.94 703.21,-114.31"/>
</a>
</g>
</g>
<!-- Node10 -->
<g id="Node000010" class="node">
<title>Node10</title>
<g id="a_Node000010"><a xlink:title=" ">
<polygon fill="#e0e0e0" stroke="#999999" points="876.62,-96.62 796.12,-96.62 796.12,-75.88 876.62,-75.88 876.62,-96.62"/>
<text xml:space="preserve" text-anchor="middle" x="836.38" y="-83.12" font-family="Helvetica,sans-Serif" font-size="10.00">utils/Config.h</text>
</a>
</g>
</g>
<!-- Node1&#45;&gt;Node10 -->
<g id="edge9_Node000001_Node000010" class="edge">
<title>Node1&#45;&gt;Node10</title>
<g id="a_edge9_Node000001_Node000010"><a xlink:title=" ">
<path fill="none" stroke="#63b8ff" d="M707.09,-138.58C735.76,-127.2 773.74,-112.12 801.11,-101.25"/>
<polygon fill="#63b8ff" stroke="#63b8ff" points="802.36,-104.52 810.36,-97.58 799.77,-98.02 802.36,-104.52"/>
</a>
</g>
</g>
<!-- Node11 -->
<g id="Node000011" class="node">
<title>Node11</title>
<g id="a_Node000011"><a xlink:title=" ">
<polygon fill="#e0e0e0" stroke="#999999" points="1046.25,-103 894.5,-103 894.5,-69.5 1046.25,-69.5 1046.25,-103"/>
<text xml:space="preserve" text-anchor="start" x="902.5" y="-89.5" font-family="Helvetica,sans-Serif" font-size="10.00">web/websocket/SubProtocol</text>
<text xml:space="preserve" text-anchor="middle" x="970.38" y="-76.75" font-family="Helvetica,sans-Serif" font-size="10.00">Context.h</text>
</a>
</g>
</g>
<!-- Node1&#45;&gt;Node11 -->
<g id="edge10_Node000001_Node000011" class="edge">
<title>Node1&#45;&gt;Node11</title>
<g id="a_edge10_Node000001_Node000011"><a xlink:title=" ">
<path fill="none" stroke="#63b8ff" d="M737.65,-138.92C782.17,-129.04 839.7,-116.27 886.42,-105.89"/>
<polygon fill="#63b8ff" stroke="#63b8ff" points="886.95,-109.36 895.96,-103.77 885.44,-102.52 886.95,-109.36"/>
</a>
</g>
</g>
<!-- Node3 -->
<g id="Node000003" class="node">
<title>Node3</title>
<g id="a_Node000003"><a xlink:title=" ">
<polygon fill="#e0e0e0" stroke="#999999" points="154.75,-27.12 0,-27.12 0,-6.38 154.75,-6.38 154.75,-27.12"/>
<text xml:space="preserve" text-anchor="middle" x="77.38" y="-13.62" font-family="Helvetica,sans-Serif" font-size="10.00">iot/mqtt/client/SubProtocol.h</text>
</a>
</g>
</g>
<!-- Node2&#45;&gt;Node3 -->
<g id="edge2_Node000002_Node000003" class="edge">
<title>Node2&#45;&gt;Node3</title>
<g id="a_edge2_Node000002_Node000003"><a xlink:title=" ">
<path fill="none" stroke="#63b8ff" d="M287.6,-75.43C244.43,-63.59 171.7,-43.63 124.12,-30.58"/>
<polygon fill="#63b8ff" stroke="#63b8ff" points="125.22,-27.25 114.65,-27.98 123.37,-34 125.22,-27.25"/>
</a>
</g>
</g>
<!-- Node4 -->
<g id="Node000004" class="node">
<title>Node4</title>
<g id="a_Node000004"><a xlink:title=" ">
<polygon fill="#e0e0e0" stroke="#999999" points="324.25,-33.5 172.5,-33.5 172.5,0 324.25,0 324.25,-33.5"/>
<text xml:space="preserve" text-anchor="start" x="180.5" y="-20" font-family="Helvetica,sans-Serif" font-size="10.00">web/websocket/SubProtocol</text>
<text xml:space="preserve" text-anchor="middle" x="248.38" y="-7.25" font-family="Helvetica,sans-Serif" font-size="10.00">Factory.h</text>
</a>
</g>
</g>
<!-- Node2&#45;&gt;Node4 -->
<g id="edge3_Node000002_Node000004" class="edge">
<title>Node2&#45;&gt;Node4</title>
<g id="a_edge3_Node000002_Node000004"><a xlink:title=" ">
<path fill="none" stroke="#63b8ff" d="M312.63,-75.58C302.73,-66.67 287.63,-53.08 274.56,-41.32"/>
<polygon fill="#63b8ff" stroke="#63b8ff" points="277.24,-39.02 267.47,-34.93 272.56,-44.22 277.24,-39.02"/>
</a>
</g>
</g>
<!-- Node5 -->
<g id="Node000005" class="node">
<title>Node5</title>
<g id="a_Node000005"><a xlink:title=" ">
<polygon fill="#e0e0e0" stroke="#999999" points="462.88,-33.5 341.88,-33.5 341.88,0 462.88,0 462.88,-33.5"/>
<text xml:space="preserve" text-anchor="start" x="349.88" y="-20" font-family="Helvetica,sans-Serif" font-size="10.00">web/websocket/client</text>
<text xml:space="preserve" text-anchor="middle" x="402.38" y="-7.25" font-family="Helvetica,sans-Serif" font-size="10.00">/SubProtocol.h</text>
</a>
</g>
</g>
<!-- Node2&#45;&gt;Node5 -->
<g id="edge4_Node000002_Node000005" class="edge">
<title>Node2&#45;&gt;Node5</title>
<g id="a_edge4_Node000002_Node000005"><a xlink:title=" ">
<path fill="none" stroke="#63b8ff" d="M334.69,-75.58C345.12,-66.67 361.02,-53.08 374.79,-41.32"/>
<polygon fill="#63b8ff" stroke="#63b8ff" points="376.97,-44.06 382.3,-34.9 372.42,-38.74 376.97,-44.06"/>
</a>
</g>
</g>
<!-- Node7 -->
<g id="Node000007" class="node">
<title>Node7</title>
<g id="a_Node000007"><a xlink:title=" ">
<polygon fill="#e0e0e0" stroke="#999999" points="598,-27.12 480.75,-27.12 480.75,-6.38 598,-6.38 598,-27.12"/>
<text xml:space="preserve" text-anchor="middle" x="539.38" y="-13.62" font-family="Helvetica,sans-Serif" font-size="10.00">utils/SubCommand.h</text>
</a>
</g>
</g>
<!-- Node6&#45;&gt;Node7 -->
<g id="edge6_Node000006_Node000007" class="edge">
<title>Node6&#45;&gt;Node7</title>
<g id="a_edge6_Node000006_Node000007"><a xlink:title=" ">
<path fill="none" stroke="#63b8ff" d="M506.82,-75.58C512.41,-65.65 521.26,-49.93 528.32,-37.39"/>
<polygon fill="#63b8ff" stroke="#63b8ff" points="531.34,-39.15 533.2,-28.72 525.24,-35.72 531.34,-39.15"/>
</a>
</g>
</g>
</g>
</svg>

<g id="navigator" transform="translate(0 0)" fill="#404254">
  <rect fill="#f2f5e9" fill-opacity="0.5" stroke="#606060" stroke-width=".5" x="0" y="0" width="60" height="60"/>
  <use id="zoomplus" xlink:href="#zoomPlus" x="17" y="9" onmousedown="handleZoom(evt,'in')"/>
  <use id="zoomminus" xlink:href="#zoomMin" x="42" y="9" onmousedown="handleZoom(evt,'out')"/>
  <use id="reset" xlink:href="#resetDef" x="30" y="36" onmousedown="handleReset()"/>
   <use id="arrowup" xlink:href="#arrowUp" x="0" y="0" onmousedown="handlePan(0,-1)"/>
  <use id="arrowright" xlink:href="#arrowRight" x="0" y="0" onmousedown="handlePan(1,0)"/>
  <use id="arrowdown" xlink:href="#arrowDown" x="0" y="0" onmousedown="handlePan(0,1)"/>
  <use id="arrowleft" xlink:href="#arrowLeft" x="0" y="0" onmousedown="handlePan(-1,0)"/>
</g>
<svg viewBox="0 0 15 15" width="100%" height="30px" preserveAspectRatio="xMaxYMin meet">
 <g id="arrow_out" transform="scale(0.3 0.3)">
  <a xlink:href="mqttintegrator_2websocket_2SubProtocolFactory_8cpp__incl_org.svg" target="_base">
   <rect id="button" ry="5" rx="5" y="6" x="6" height="38" width="38"
        fill="#f2f5e9" fill-opacity="0.5" stroke="#606060" stroke-width="1.0"/>
   <path id="arrow"
     d="M 11.500037,31.436501 C 11.940474,20.09759 22.043105,11.32322 32.158766,21.979434 L 37.068811,17.246167 C 37.068811,17.246167 37.088388,32 37.088388,32 L 22.160133,31.978069 C 22.160133,31.978069 26.997745,27.140456 26.997745,27.140456 C 18.528582,18.264221 13.291696,25.230495 11.500037,31.436501 z"
     style="fill:#404040;"/>
  </a>
 </g>
</svg>

<style type='text/css'>
<![CDATA[
[data-mouse-over-selected='false'] { opacity: 0.7; }
[data-mouse-over-selected='true']  { opacity: 1.0; }
]]>
</style>
<script type="application/ecmascript"><![CDATA[
document.addEventListener('DOMContentLoaded', (event) => {
  highlightEdges();
  highlightAdjacentNodes();
});
]]></script>
</svg>
