<?xml version="1.0" encoding="UTF-8" standalone="no"?>
<!DOCTYPE svg PUBLIC "-//W3C//DTD SVG 1.1//EN"
 "http://www.w3.org/Graphics/SVG/1.1/DTD/svg11.dtd">
<!-- Generated by graphviz version 14.1.2 (0)
 -->
<!-- Title: mqttstore/lib/MqttMessage.h Pages: 1 -->
<svg width="332pt" height="86pt"
 viewBox="0.00 0.00 332.00 86.00" xmlns="http://www.w3.org/2000/svg" xmlns:xlink="http://www.w3.org/1999/xlink">
<g id="graph0" class="graph" transform="scale(1 1) rotate(0) translate(4 81.5)">
<title>mqttstore/lib/MqttMessage.h</title>
<!-- Node1 -->
<g id="Node000001" class="node">
<title>Node1</title>
<g id="a_Node000001"><a xlink:title=" ">
<polygon fill="#999999" stroke="#666666" points="254,-77.5 97,-77.5 97,-56.75 254,-56.75 254,-77.5"/>
<text xml:space="preserve" text-anchor="middle" x="175.5" y="-64" font-family="Helvetica,sans-Serif" font-size="10.00">mqttstore/lib/MqttMessage.h</text>
</a>
</g>
</g>
<!-- Node2 -->
<g id="Node000002" class="node">
<title>Node2</title>
<g id="a_Node000002"><a xlink:href="MariaDbStorage_8cpp.html" target="_top" xlink:title=" ">
<polygon fill="white" stroke="#666666" points="181,-20.75 0,-20.75 0,0 181,0 181,-20.75"/>
<text xml:space="preserve" text-anchor="middle" x="90.5" y="-7.25" font-family="Helvetica,sans-Serif" font-size="10.00">mqttstore/lib/MariaDbStorage.cpp</text>
</a>
</g>
</g>
<!-- Node1&#45;&gt;Node2 -->
<g id="edge1_Node000001_Node000002" class="edge">
<title>Node1&#45;&gt;Node2</title>
<g id="a_edge1_Node000001_Node000002"><a xlink:title=" ">
<path fill="none" stroke="#63b8ff" d="M150.83,-50.23C136.19,-40.8 118.1,-29.15 105.56,-21.08"/>
<polygon fill="#63b8ff" stroke="#63b8ff" points="148.73,-53.04 159.03,-55.52 152.52,-47.16 148.73,-53.04"/>
</a>
</g>
</g>
<!-- Node3 -->
<g id="Node000003" class="node">
<title>Node3</title>
<g id="a_Node000003"><a xlink:href="mqttstore_2lib_2Mqtt_8cpp.html" target="_top" xlink:title=" ">
<polygon fill="white" stroke="#666666" points="323.88,-20.75 199.12,-20.75 199.12,0 323.88,0 323.88,-20.75"/>
<text xml:space="preserve" text-anchor="middle" x="261.5" y="-7.25" font-family="Helvetica,sans-Serif" font-size="10.00">mqttstore/lib/Mqtt.cpp</text>
</a>
</g>
</g>
<!-- Node1&#45;&gt;Node3 -->
<g id="edge2_Node000001_Node000003" class="edge">
<title>Node1&#45;&gt;Node3</title>
<g id="a_edge2_Node000001_Node000003"><a xlink:title=" ">
<path fill="none" stroke="#63b8ff" d="M200.46,-50.23C215.28,-40.8 233.58,-29.15 246.26,-21.08"/>
<polygon fill="#63b8ff" stroke="#63b8ff" points="198.71,-47.2 192.15,-55.52 202.47,-53.11 198.71,-47.2"/>
</a>
</g>
</g>
</g>
</svg>
