<?xml version="1.0" encoding="UTF-8" standalone="no"?>
<!DOCTYPE svg PUBLIC "-//W3C//DTD SVG 1.1//EN"
 "http://www.w3.org/Graphics/SVG/1.1/DTD/svg11.dtd">
<!-- Generated by graphviz version 14.1.1 (0)
 -->
<!-- Title: mqttbridge/mqttbridge.cpp Pages: 1 -->
<svg width="359pt" height="142pt"
 viewBox="0.00 0.00 359.00 142.00" xmlns="http://www.w3.org/2000/svg" xmlns:xlink="http://www.w3.org/1999/xlink">
<g id="graph0" class="graph" transform="scale(1 1) rotate(0) translate(4 138.25)">
<title>mqttbridge/mqttbridge.cpp</title>
<!-- Node1 -->
<g id="Node000001" class="node">
<title>Node1</title>
<g id="a_Node000001"><a xlink:title=" ">
<polygon fill="#999999" stroke="#666666" points="249.62,-134.25 102.38,-134.25 102.38,-113.5 249.62,-113.5 249.62,-134.25"/>
<text xml:space="preserve" text-anchor="middle" x="176" y="-120.75" font-family="Helvetica,sans-Serif" font-size="10.00">mqttbridge/mqttbridge.cpp</text>
</a>
</g>
</g>
<!-- Node2 -->
<g id="Node000002" class="node">
<title>Node2</title>
<g id="a_Node000002"><a xlink:href="mqttbridge_2SocketContextFactory_8h.html" target="_top" xlink:title=" ">
<polygon fill="white" stroke="#666666" points="130,-77.5 0,-77.5 0,-56.75 130,-56.75 130,-77.5"/>
<text xml:space="preserve" text-anchor="middle" x="65" y="-64" font-family="Helvetica,sans-Serif" font-size="10.00">SocketContextFactory.h</text>
</a>
</g>
</g>
<!-- Node1&#45;&gt;Node2 -->
<g id="edge1_Node000001_Node000002" class="edge">
<title>Node1&#45;&gt;Node2</title>
<g id="a_edge1_Node000001_Node000002"><a xlink:title=" ">
<path fill="none" stroke="#63b8ff" d="M156.16,-113.09C139.11,-104.68 114.28,-92.43 94.84,-82.84"/>
<polygon fill="#63b8ff" stroke="#63b8ff" points="96.55,-79.78 86.03,-78.5 93.45,-86.06 96.55,-79.78"/>
</a>
</g>
</g>
<!-- Node3 -->
<g id="Node000003" class="node">
<title>Node3</title>
<g id="a_Node000003"><a xlink:title=" ">
<polygon fill="#e0e0e0" stroke="#999999" points="203.5,-77.5 148.5,-77.5 148.5,-56.75 203.5,-56.75 203.5,-77.5"/>
<text xml:space="preserve" text-anchor="middle" x="176" y="-64" font-family="Helvetica,sans-Serif" font-size="10.00">config.h</text>
</a>
</g>
</g>
<!-- Node1&#45;&gt;Node3 -->
<g id="edge2_Node000001_Node000003" class="edge">
<title>Node1&#45;&gt;Node3</title>
<g id="a_edge2_Node000001_Node000003"><a xlink:title=" ">
<path fill="none" stroke="#63b8ff" d="M176,-113.09C176,-106.47 176,-97.47 176,-89.27"/>
<polygon fill="#63b8ff" stroke="#63b8ff" points="179.5,-89.34 176,-79.34 172.5,-89.34 179.5,-89.34"/>
</a>
</g>
</g>
<!-- Node4 -->
<g id="Node000004" class="node">
<title>Node4</title>
<g id="a_Node000004"><a xlink:href="BridgeStore_8h.html" target="_top" xlink:title=" ">
<polygon fill="white" stroke="#666666" points="318.5,-77.5 221.5,-77.5 221.5,-56.75 318.5,-56.75 318.5,-77.5"/>
<text xml:space="preserve" text-anchor="middle" x="270" y="-64" font-family="Helvetica,sans-Serif" font-size="10.00">lib/BridgeStore.h</text>
</a>
</g>
</g>
<!-- Node1&#45;&gt;Node4 -->
<g id="edge3_Node000001_Node000004" class="edge">
<title>Node1&#45;&gt;Node4</title>
<g id="a_edge3_Node000001_Node000004"><a xlink:title=" ">
<path fill="none" stroke="#63b8ff" d="M192.81,-113.09C206.97,-104.83 227.49,-92.88 243.81,-83.38"/>
<polygon fill="#63b8ff" stroke="#63b8ff" points="245.15,-86.65 252.03,-78.59 241.63,-80.6 245.15,-86.65"/>
</a>
</g>
</g>
<!-- Node5 -->
<g id="Node000005" class="node">
<title>Node5</title>
<g id="a_Node000005"><a xlink:href="Bridge_8h.html" target="_top" xlink:title=" ">
<polygon fill="white" stroke="#666666" points="260.75,-20.75 189.25,-20.75 189.25,0 260.75,0 260.75,-20.75"/>
<text xml:space="preserve" text-anchor="middle" x="225" y="-7.25" font-family="Helvetica,sans-Serif" font-size="10.00">lib/Bridge.h</text>
</a>
</g>
</g>
<!-- Node4&#45;&gt;Node5 -->
<g id="edge4_Node000004_Node000005" class="edge">
<title>Node4&#45;&gt;Node5</title>
<g id="a_edge4_Node000004_Node000005"><a xlink:title=" ">
<path fill="none" stroke="#63b8ff" d="M261.95,-56.34C255.94,-49.02 247.53,-38.79 240.26,-29.94"/>
<polygon fill="#63b8ff" stroke="#63b8ff" points="242.99,-27.75 233.94,-22.25 237.58,-32.2 242.99,-27.75"/>
</a>
</g>
</g>
<!-- Node6 -->
<g id="Node000006" class="node">
<title>Node6</title>
<g id="a_Node000006"><a xlink:href="Broker_8h.html" target="_top" xlink:title=" ">
<polygon fill="white" stroke="#666666" points="350.75,-20.75 279.25,-20.75 279.25,0 350.75,0 350.75,-20.75"/>
<text xml:space="preserve" text-anchor="middle" x="315" y="-7.25" font-family="Helvetica,sans-Serif" font-size="10.00">lib/Broker.h</text>
</a>
</g>
</g>
<!-- Node4&#45;&gt;Node6 -->
<g id="edge5_Node000004_Node000006" class="edge">
<title>Node4&#45;&gt;Node6</title>
<g id="a_edge5_Node000004_Node000006"><a xlink:title=" ">
<path fill="none" stroke="#63b8ff" d="M278.05,-56.34C284.06,-49.02 292.47,-38.79 299.74,-29.94"/>
<polygon fill="#63b8ff" stroke="#63b8ff" points="302.42,-32.2 306.06,-22.25 297.01,-27.75 302.42,-32.2"/>
</a>
</g>
</g>
</g>
</svg>
