<?xml version="1.0" encoding="UTF-8" standalone="no"?>
<!DOCTYPE svg PUBLIC "-//W3C//DTD SVG 1.1//EN"
 "http://www.w3.org/Graphics/SVG/1.1/DTD/svg11.dtd">
<!-- Generated by graphviz version 14.1.2 (0)
 -->
<!-- Title: mqttbroker/lib/Mqtt.cpp Pages: 1 -->
<svg width="959pt" height="212pt"
 viewBox="0.00 0.00 959.00 212.00" xmlns="http://www.w3.org/2000/svg" xmlns:xlink="http://www.w3.org/1999/xlink">
<g id="graph0" class="graph" transform="scale(1 1) rotate(0) translate(4 207.75)">
<title>mqttbroker/lib/Mqtt.cpp</title>
<!-- Node1 -->
<g id="Node000001" class="node">
<title>Node1</title>
<g id="a_Node000001"><a xlink:title=" ">
<polygon fill="#999999" stroke="#666666" points="529,-203.75 398.25,-203.75 398.25,-183 529,-183 529,-203.75"/>
<text xml:space="preserve" text-anchor="middle" x="463.62" y="-190.25" font-family="Helvetica,sans-Serif" font-size="10.00">mqttbroker/lib/Mqtt.cpp</text>
</a>
</g>
</g>
<!-- Node2 -->
<g id="Node000002" class="node">
<title>Node2</title>
<g id="a_Node000002"><a xlink:href="mqttbroker_2lib_2Mqtt_8h.html" target="_top" xlink:title=" ">
<polygon fill="white" stroke="#666666" points="202.38,-140.62 154.88,-140.62 154.88,-119.88 202.38,-119.88 202.38,-140.62"/>
<text xml:space="preserve" text-anchor="middle" x="178.62" y="-127.12" font-family="Helvetica,sans-Serif" font-size="10.00">Mqtt.h</text>
</a>
</g>
</g>
<!-- Node1&#45;&gt;Node2 -->
<g id="edge1_Node000001_Node000002" class="edge">
<title>Node1&#45;&gt;Node2</title>
<g id="a_edge1_Node000001_Node000002"><a xlink:title=" ">
<path fill="none" stroke="#63b8ff" d="M417.83,-182.55C361.05,-170.38 265.47,-149.88 214,-138.84"/>
<polygon fill="#63b8ff" stroke="#63b8ff" points="214.8,-135.43 204.29,-136.75 213.33,-142.27 214.8,-135.43"/>
</a>
</g>
</g>
<!-- Node6 -->
<g id="Node000006" class="node">
<title>Node6</title>
<g id="a_Node000006"><a xlink:href="MqttModel_8h.html" target="_top" xlink:title=" ">
<polygon fill="white" stroke="#666666" points="407.38,-77.5 257.88,-77.5 257.88,-56.75 407.38,-56.75 407.38,-77.5"/>
<text xml:space="preserve" text-anchor="middle" x="332.62" y="-64" font-family="Helvetica,sans-Serif" font-size="10.00">mqttbroker/lib/MqttModel.h</text>
</a>
</g>
</g>
<!-- Node1&#45;&gt;Node6 -->
<g id="edge5_Node000001_Node000006" class="edge">
<title>Node1&#45;&gt;Node6</title>
<g id="a_edge5_Node000001_Node000006"><a xlink:title=" ">
<path fill="none" stroke="#63b8ff" d="M399.03,-182.55C358.96,-174.98 312.84,-163.08 300.62,-147 286.67,-128.63 301.63,-103.34 315.43,-86.39"/>
<polygon fill="#63b8ff" stroke="#63b8ff" points="317.87,-88.92 321.8,-79.08 312.59,-84.33 317.87,-88.92"/>
</a>
</g>
</g>
<!-- Node7 -->
<g id="Node000007" class="node">
<title>Node7</title>
<g id="a_Node000007"><a xlink:title=" ">
<polygon fill="#e0e0e0" stroke="#999999" points="452,-140.62 309.25,-140.62 309.25,-119.88 452,-119.88 452,-140.62"/>
<text xml:space="preserve" text-anchor="middle" x="380.62" y="-127.12" font-family="Helvetica,sans-Serif" font-size="10.00">iot/mqtt/packets/Publish.h</text>
</a>
</g>
</g>
<!-- Node1&#45;&gt;Node7 -->
<g id="edge7_Node000001_Node000007" class="edge">
<title>Node1&#45;&gt;Node7</title>
<g id="a_edge7_Node000001_Node000007"><a xlink:title=" ">
<path fill="none" stroke="#63b8ff" d="M450.29,-182.55C437.58,-173.2 418.21,-158.93 403.12,-147.81"/>
<polygon fill="#63b8ff" stroke="#63b8ff" points="405.27,-145.06 395.15,-141.94 401.12,-150.69 405.27,-145.06"/>
</a>
</g>
</g>
<!-- Node8 -->
<g id="Node000008" class="node">
<title>Node8</title>
<g id="a_Node000008"><a xlink:title=" ">
<polygon fill="#e0e0e0" stroke="#999999" points="625,-140.62 470.25,-140.62 470.25,-119.88 625,-119.88 625,-140.62"/>
<text xml:space="preserve" text-anchor="middle" x="547.62" y="-127.12" font-family="Helvetica,sans-Serif" font-size="10.00">iot/mqtt/packets/Subscribe.h</text>
</a>
</g>
</g>
<!-- Node1&#45;&gt;Node8 -->
<g id="edge8_Node000001_Node000008" class="edge">
<title>Node1&#45;&gt;Node8</title>
<g id="a_edge8_Node000001_Node000008"><a xlink:title=" ">
<path fill="none" stroke="#63b8ff" d="M477.12,-182.55C489.98,-173.2 509.59,-158.93 524.86,-147.81"/>
<polygon fill="#63b8ff" stroke="#63b8ff" points="526.91,-150.65 532.94,-141.94 522.79,-144.99 526.91,-150.65"/>
</a>
</g>
</g>
<!-- Node9 -->
<g id="Node000009" class="node">
<title>Node9</title>
<g id="a_Node000009"><a xlink:title=" ">
<polygon fill="#e0e0e0" stroke="#999999" points="810.38,-140.62 642.88,-140.62 642.88,-119.88 810.38,-119.88 810.38,-140.62"/>
<text xml:space="preserve" text-anchor="middle" x="726.62" y="-127.12" font-family="Helvetica,sans-Serif" font-size="10.00">iot/mqtt/packets/Unsubscribe.h</text>
</a>
</g>
</g>
<!-- Node1&#45;&gt;Node9 -->
<g id="edge9_Node000001_Node000009" class="edge">
<title>Node1&#45;&gt;Node9</title>
<g id="a_edge9_Node000001_Node000009"><a xlink:title=" ">
<path fill="none" stroke="#63b8ff" d="M505.88,-182.55C551.41,-171.97 623.97,-155.11 673.38,-143.63"/>
<polygon fill="#63b8ff" stroke="#63b8ff" points="674.05,-147.06 683,-141.39 672.47,-140.24 674.05,-147.06"/>
</a>
</g>
</g>
<!-- Node10 -->
<g id="Node000010" class="node">
<title>Node10</title>
<g id="a_Node000010"><a xlink:title=" ">
<polygon fill="#e0e0e0" stroke="#999999" points="950.88,-147 828.38,-147 828.38,-113.5 950.88,-113.5 950.88,-147"/>
<text xml:space="preserve" text-anchor="start" x="836.38" y="-133.5" font-family="Helvetica,sans-Serif" font-size="10.00">iot/mqtt/server/broker</text>
<text xml:space="preserve" text-anchor="middle" x="889.62" y="-120.75" font-family="Helvetica,sans-Serif" font-size="10.00">/Broker.h</text>
</a>
</g>
</g>
<!-- Node1&#45;&gt;Node10 -->
<g id="edge10_Node000001_Node000010" class="edge">
<title>Node1&#45;&gt;Node10</title>
<g id="a_edge10_Node000001_Node000010"><a xlink:title=" ">
<path fill="none" stroke="#63b8ff" d="M529.19,-185.9C598.38,-178.64 710.82,-165.65 816.99,-147.37"/>
<polygon fill="#63b8ff" stroke="#63b8ff" points="817.49,-150.83 826.74,-145.67 816.29,-143.94 817.49,-150.83"/>
</a>
</g>
</g>
<!-- Node3 -->
<g id="Node000003" class="node">
<title>Node3</title>
<g id="a_Node000003"><a xlink:href="MqttMapper_8h.html" target="_top" xlink:title=" ">
<polygon fill="white" stroke="#666666" points="99.25,-77.5 0,-77.5 0,-56.75 99.25,-56.75 99.25,-77.5"/>
<text xml:space="preserve" text-anchor="middle" x="49.62" y="-64" font-family="Helvetica,sans-Serif" font-size="10.00">lib/MqttMapper.h</text>
</a>
</g>
</g>
<!-- Node2&#45;&gt;Node3 -->
<g id="edge2_Node000002_Node000003" class="edge">
<title>Node2&#45;&gt;Node3</title>
<g id="a_edge2_Node000002_Node000003"><a xlink:title=" ">
<path fill="none" stroke="#63b8ff" d="M157.9,-119.43C137.02,-109.54 104.56,-94.16 80.63,-82.81"/>
<polygon fill="#63b8ff" stroke="#63b8ff" points="82.2,-79.69 71.67,-78.57 79.21,-86.01 82.2,-79.69"/>
</a>
</g>
</g>
<!-- Node5 -->
<g id="Node000005" class="node">
<title>Node5</title>
<g id="a_Node000005"><a xlink:title=" ">
<polygon fill="#e0e0e0" stroke="#999999" points="240.25,-77.5 117,-77.5 117,-56.75 240.25,-56.75 240.25,-77.5"/>
<text xml:space="preserve" text-anchor="middle" x="178.62" y="-64" font-family="Helvetica,sans-Serif" font-size="10.00">iot/mqtt/server/Mqtt.h</text>
</a>
</g>
</g>
<!-- Node2&#45;&gt;Node5 -->
<g id="edge4_Node000002_Node000005" class="edge">
<title>Node2&#45;&gt;Node5</title>
<g id="a_edge4_Node000002_Node000005"><a xlink:title=" ">
<path fill="none" stroke="#63b8ff" d="M178.62,-119.43C178.62,-111.27 178.62,-99.38 178.62,-89.1"/>
<polygon fill="#63b8ff" stroke="#63b8ff" points="182.13,-89.23 178.63,-79.23 175.13,-89.23 182.13,-89.23"/>
</a>
</g>
</g>
<!-- Node4 -->
<g id="Node000004" class="node">
<title>Node4</title>
<g id="a_Node000004"><a xlink:title=" ">
<polygon fill="#e0e0e0" stroke="#999999" points="243.62,-20.75 137.62,-20.75 137.62,0 243.62,0 243.62,-20.75"/>
<text xml:space="preserve" text-anchor="middle" x="190.62" y="-7.25" font-family="Helvetica,sans-Serif" font-size="10.00">core/timer/Timer.h</text>
</a>
</g>
</g>
<!-- Node3&#45;&gt;Node4 -->
<g id="edge3_Node000003_Node000004" class="edge">
<title>Node3&#45;&gt;Node4</title>
<g id="a_edge3_Node000003_Node000004"><a xlink:title=" ">
<path fill="none" stroke="#63b8ff" d="M74.83,-56.34C97.19,-47.66 130.08,-34.88 155.1,-25.17"/>
<polygon fill="#63b8ff" stroke="#63b8ff" points="156.17,-28.51 164.22,-21.63 153.64,-21.98 156.17,-28.51"/>
</a>
</g>
</g>
<!-- Node6&#45;&gt;Node4 -->
<g id="edge6_Node000006_Node000004" class="edge">
<title>Node6&#45;&gt;Node4</title>
<g id="a_edge6_Node000006_Node000004"><a xlink:title=" ">
<path fill="none" stroke="#63b8ff" d="M307.24,-56.34C284.72,-47.66 251.6,-34.88 226.4,-25.17"/>
<polygon fill="#63b8ff" stroke="#63b8ff" points="227.79,-21.95 217.2,-21.62 225.28,-28.49 227.79,-21.95"/>
</a>
</g>
</g>
</g>
</svg>
