<?xml version="1.0" encoding="UTF-8" standalone="no"?>
<!DOCTYPE svg PUBLIC "-//W3C//DTD SVG 1.1//EN"
 "http://www.w3.org/Graphics/SVG/1.1/DTD/svg11.dtd">
<!-- Generated by graphviz version 14.1.2 (0)
 -->
<!-- Title: mqttbroker/SocketContextFactory.cpp Pages: 1 -->
<svg width="642pt" height="168pt"
 viewBox="0.00 0.00 642.00 168.00" xmlns="http://www.w3.org/2000/svg" xmlns:xlink="http://www.w3.org/1999/xlink">
<g id="graph0" class="graph" transform="scale(1 1) rotate(0) translate(4 163.75)">
<title>mqttbroker/SocketContextFactory.cpp</title>
<!-- Node1 -->
<g id="Node000001" class="node">
<title>Node1</title>
<g id="a_Node000001"><a xlink:title=" ">
<polygon fill="#999999" stroke="#666666" points="359.25,-159.75 215.75,-159.75 215.75,-126.25 359.25,-126.25 359.25,-159.75"/>
<text xml:space="preserve" text-anchor="start" x="223.75" y="-146.25" font-family="Helvetica,sans-Serif" font-size="10.00">mqttbroker/SocketContext</text>
<text xml:space="preserve" text-anchor="middle" x="287.5" y="-133.5" font-family="Helvetica,sans-Serif" font-size="10.00">Factory.cpp</text>
</a>
</g>
</g>
<!-- Node2 -->
<g id="Node000002" class="node">
<title>Node2</title>
<g id="a_Node000002"><a xlink:href="mqttbroker_2SocketContextFactory_8h.html" target="_top" xlink:title=" ">
<polygon fill="white" stroke="#666666" points="131.5,-90.25 1.5,-90.25 1.5,-69.5 131.5,-69.5 131.5,-90.25"/>
<text xml:space="preserve" text-anchor="middle" x="66.5" y="-76.75" font-family="Helvetica,sans-Serif" font-size="10.00">SocketContextFactory.h</text>
</a>
</g>
</g>
<!-- Node1&#45;&gt;Node2 -->
<g id="edge1_Node000001_Node000002" class="edge">
<title>Node1&#45;&gt;Node2</title>
<g id="a_edge1_Node000001_Node000002"><a xlink:title=" ">
<path fill="none" stroke="#63b8ff" d="M228.86,-125.78C192.55,-115.74 146.59,-103.03 112.84,-93.69"/>
<polygon fill="#63b8ff" stroke="#63b8ff" points="113.93,-90.36 103.36,-91.07 112.06,-97.11 113.93,-90.36"/>
</a>
</g>
</g>
<!-- Node4 -->
<g id="Node000004" class="node">
<title>Node4</title>
<g id="a_Node000004"><a xlink:href="ConfigApplication_8h.html" target="_top" xlink:title=" ">
<polygon fill="white" stroke="#666666" points="275.62,-90.25 149.38,-90.25 149.38,-69.5 275.62,-69.5 275.62,-90.25"/>
<text xml:space="preserve" text-anchor="middle" x="212.5" y="-76.75" font-family="Helvetica,sans-Serif" font-size="10.00">lib/ConfigApplication.h</text>
</a>
</g>
</g>
<!-- Node1&#45;&gt;Node4 -->
<g id="edge3_Node000001_Node000004" class="edge">
<title>Node1&#45;&gt;Node4</title>
<g id="a_edge3_Node000001_Node000004"><a xlink:title=" ">
<path fill="none" stroke="#63b8ff" d="M267.79,-125.94C257.19,-117.3 244.11,-106.63 233.33,-97.85"/>
<polygon fill="#63b8ff" stroke="#63b8ff" points="235.71,-95.28 225.75,-91.67 231.29,-100.7 235.71,-95.28"/>
</a>
</g>
</g>
<!-- Node5 -->
<g id="Node000005" class="node">
<title>Node5</title>
<g id="a_Node000005"><a xlink:href="JsonMappingReader_8h.html" target="_top" xlink:title=" ">
<polygon fill="white" stroke="#666666" points="430.88,-90.25 294.12,-90.25 294.12,-69.5 430.88,-69.5 430.88,-90.25"/>
<text xml:space="preserve" text-anchor="middle" x="362.5" y="-76.75" font-family="Helvetica,sans-Serif" font-size="10.00">lib/JsonMappingReader.h</text>
</a>
</g>
</g>
<!-- Node1&#45;&gt;Node5 -->
<g id="edge4_Node000001_Node000005" class="edge">
<title>Node1&#45;&gt;Node5</title>
<g id="a_edge4_Node000001_Node000005"><a xlink:title=" ">
<path fill="none" stroke="#63b8ff" d="M307.21,-125.94C317.81,-117.3 330.89,-106.63 341.67,-97.85"/>
<polygon fill="#63b8ff" stroke="#63b8ff" points="343.71,-100.7 349.25,-91.67 339.29,-95.28 343.71,-100.7"/>
</a>
</g>
</g>
<!-- Node6 -->
<g id="Node000006" class="node">
<title>Node6</title>
<g id="a_Node000006"><a xlink:href="mqttbroker_2lib_2Mqtt_8h.html" target="_top" xlink:title=" ">
<polygon fill="white" stroke="#666666" points="568.25,-90.25 448.75,-90.25 448.75,-69.5 568.25,-69.5 568.25,-90.25"/>
<text xml:space="preserve" text-anchor="middle" x="508.5" y="-76.75" font-family="Helvetica,sans-Serif" font-size="10.00">mqttbroker/lib/Mqtt.h</text>
</a>
</g>
</g>
<!-- Node1&#45;&gt;Node6 -->
<g id="edge5_Node000001_Node000006" class="edge">
<title>Node1&#45;&gt;Node6</title>
<g id="a_edge5_Node000001_Node000006"><a xlink:title=" ">
<path fill="none" stroke="#63b8ff" d="M346.14,-125.78C382.45,-115.74 428.41,-103.03 462.16,-93.69"/>
<polygon fill="#63b8ff" stroke="#63b8ff" points="462.94,-97.11 471.64,-91.07 461.07,-90.36 462.94,-97.11"/>
</a>
</g>
</g>
<!-- Node3 -->
<g id="Node000003" class="node">
<title>Node3</title>
<g id="a_Node000003"><a xlink:title=" ">
<polygon fill="#e0e0e0" stroke="#999999" points="133,-33.5 0,-33.5 0,0 133,0 133,-33.5"/>
<text xml:space="preserve" text-anchor="start" x="8" y="-20" font-family="Helvetica,sans-Serif" font-size="10.00">core/socket/stream</text>
<text xml:space="preserve" text-anchor="middle" x="66.5" y="-7.25" font-family="Helvetica,sans-Serif" font-size="10.00">/SocketContextFactory.h</text>
</a>
</g>
</g>
<!-- Node2&#45;&gt;Node3 -->
<g id="edge2_Node000002_Node000003" class="edge">
<title>Node2&#45;&gt;Node3</title>
<g id="a_edge2_Node000002_Node000003"><a xlink:title=" ">
<path fill="none" stroke="#63b8ff" d="M66.5,-69.05C66.5,-62.63 66.5,-53.9 66.5,-45.45"/>
<polygon fill="#63b8ff" stroke="#63b8ff" points="70,-45.5 66.5,-35.5 63,-45.5 70,-45.5"/>
</a>
</g>
</g>
<!-- Node7 -->
<g id="Node000007" class="node">
<title>Node7</title>
<g id="a_Node000007"><a xlink:href="MqttMapper_8h.html" target="_top" xlink:title=" ">
<polygon fill="white" stroke="#666666" points="493.12,-27.12 393.88,-27.12 393.88,-6.38 493.12,-6.38 493.12,-27.12"/>
<text xml:space="preserve" text-anchor="middle" x="443.5" y="-13.62" font-family="Helvetica,sans-Serif" font-size="10.00">lib/MqttMapper.h</text>
</a>
</g>
</g>
<!-- Node6&#45;&gt;Node7 -->
<g id="edge6_Node000006_Node000007" class="edge">
<title>Node6&#45;&gt;Node7</title>
<g id="a_edge6_Node000006_Node000007"><a xlink:title=" ">
<path fill="none" stroke="#63b8ff" d="M498.06,-69.05C488.33,-59.91 473.62,-46.08 461.93,-35.08"/>
<polygon fill="#63b8ff" stroke="#63b8ff" points="464.49,-32.68 454.81,-28.38 459.69,-37.78 464.49,-32.68"/>
</a>
</g>
</g>
<!-- Node8 -->
<g id="Node000008" class="node">
<title>Node8</title>
<g id="a_Node000008"><a xlink:title=" ">
<polygon fill="#e0e0e0" stroke="#999999" points="634.12,-27.12 510.88,-27.12 510.88,-6.38 634.12,-6.38 634.12,-27.12"/>
<text xml:space="preserve" text-anchor="middle" x="572.5" y="-13.62" font-family="Helvetica,sans-Serif" font-size="10.00">iot/mqtt/server/Mqtt.h</text>
</a>
</g>
</g>
<!-- Node6&#45;&gt;Node8 -->
<g id="edge7_Node000006_Node000008" class="edge">
<title>Node6&#45;&gt;Node8</title>
<g id="a_edge7_Node000006_Node000008"><a xlink:title=" ">
<path fill="none" stroke="#63b8ff" d="M518.78,-69.05C528.36,-59.91 542.84,-46.08 554.36,-35.08"/>
<polygon fill="#63b8ff" stroke="#63b8ff" points="556.55,-37.83 561.36,-28.39 551.71,-32.77 556.55,-37.83"/>
</a>
</g>
</g>
</g>
</svg>
