<?xml version="1.0" encoding="UTF-8" standalone="no"?>
<!DOCTYPE svg PUBLIC "-//W3C//DTD SVG 1.1//EN"
 "http://www.w3.org/Graphics/SVG/1.1/DTD/svg11.dtd">
<!-- Generated by graphviz version 14.1.2 (0)
 -->
<!-- Title: mqttbroker/SocketContextFactory.cpp Pages: 1 -->
<!--zoomable 237 -->

<svg id="main" version="1.1" xmlns="http://www.w3.org/2000/svg" xmlns:xlink="http://www.w3.org/1999/xlink" xml:space="preserve" onload="init(evt)">

<style type="text/css"><![CDATA[
.node, .edge {opacity: 0.7;}
.node.selected, .edge.selected {opacity: 1;}
.edge:hover path { stroke: red; }
.edge:hover polygon { stroke: red; fill: red; }
]]></style>

<defs>
  <circle id="rim" cx="0" cy="0" r="7"/>
  <circle id="rim2" cx="0" cy="0" r="3.5"/>
  <g id="zoomPlus">
    <use xlink:href="#rim" fill="#404040"><set attributeName="fill" to="#808080" begin="zoomplus.mouseover" end="zoomplus.mouseout"/></use>
    <path d="M-4,0h8M0,-4v8" fill="none" stroke="white" stroke-width="1.5" pointer-events="none"/>
  </g>
  <g id="zoomMin">
    <use xlink:href="#rim" fill="#404040"><set attributeName="fill" to="#808080" begin="zoomminus.mouseover" end="zoomminus.mouseout"/></use>
    <path d="M-4,0h8" fill="none" stroke="white" stroke-width="1.5" pointer-events="none"/>
  </g>
  <g id="arrowUp" transform="translate(30 24)">
    <use xlink:href="#rim"/>
    <path pointer-events="none" fill="none" stroke="white" stroke-width="1.5" d="M0,-3.0v7 M-2.5,-0.5L0,-3.0L2.5,-0.5"/>
  </g>
  <g id="arrowRight" transform="rotate(90) translate(36 -43)">
    <use xlink:href="#rim"/>
    <path pointer-events="none" fill="none" stroke="white" stroke-width="1.5" d="M0,-3.0v7 M-2.5,-0.5L0,-3.0L2.5,-0.5"/>
  </g>
  <g id="arrowDown" transform="rotate(180) translate(-30 -48)">
    <use xlink:href="#rim"/>
    <path pointer-events="none" fill="none" stroke="white" stroke-width="1.5" d="M0,-3.0v7 M-2.5,-0.5L0,-3.0L2.5,-0.5"/>
  </g>
  <g id="arrowLeft" transform="rotate(270) translate(-36 17)">
    <use xlink:href="#rim"/>
    <path pointer-events="none" fill="none" stroke="white" stroke-width="1.5" d="M0,-3.0v7 M-2.5,-0.5L0,-3.0L2.5,-0.5"/>
  </g>
  <g id="resetDef">
    <use xlink:href="#rim2" fill="#404040"><set attributeName="fill" to="#808080" begin="reset.mouseover" end="reset.mouseout"/></use>
  </g>
</defs>
<script type="application/ecmascript">
var viewWidth = 1023;
var viewHeight = 237;
var sectionId = 'dynsection-0';
</script>
<script type="application/ecmascript" xlink:href="svg.min.js"/>
<svg id="graph" class="graph">
<g id="viewport">
<title>mqttbroker/SocketContextFactory.cpp</title>
<!-- Node1 -->
<g id="Node000001" class="node">
<title>Node1</title>
<g id="a_Node000001"><a xlink:title=" ">
<polygon fill="#999999" stroke="#666666" points="580.25,-229.25 436.75,-229.25 436.75,-195.75 580.25,-195.75 580.25,-229.25"/>
<text xml:space="preserve" text-anchor="start" x="444.75" y="-215.75" font-family="Helvetica,sans-Serif" font-size="10.00">mqttbroker/SocketContext</text>
<text xml:space="preserve" text-anchor="middle" x="508.5" y="-203" font-family="Helvetica,sans-Serif" font-size="10.00">Factory.cpp</text>
</a>
</g>
</g>
<!-- Node2 -->
<g id="Node000002" class="node">
<title>Node2</title>
<g id="a_Node000002"><a xlink:href="mqttbroker_2SocketContextFactory_8h.html" target="_top" xlink:title=" ">
<polygon fill="white" stroke="#666666" points="131.5,-153.38 1.5,-153.38 1.5,-132.62 131.5,-132.62 131.5,-153.38"/>
<text xml:space="preserve" text-anchor="middle" x="66.5" y="-139.88" font-family="Helvetica,sans-Serif" font-size="10.00">SocketContextFactory.h</text>
</a>
</g>
</g>
<!-- Node1&#45;&gt;Node2 -->
<g id="edge1_Node000001_Node000002" class="edge">
<title>Node1&#45;&gt;Node2</title>
<g id="a_edge1_Node000001_Node000002"><a xlink:title=" ">
<path fill="none" stroke="#63b8ff" d="M436.34,-202.87C361.97,-193.62 242.79,-177.81 140.5,-159.75 134.2,-158.64 127.62,-157.38 121.1,-156.07"/>
<polygon fill="#63b8ff" stroke="#63b8ff" points="122.21,-152.73 111.71,-154.14 120.8,-159.58 122.21,-152.73"/>
</a>
</g>
</g>
<!-- Node4 -->
<g id="Node000004" class="node">
<title>Node4</title>
<g id="a_Node000004"><a xlink:href="ConfigApplication_8h.html" target="_top" xlink:title=" ">
<polygon fill="white" stroke="#666666" points="275.62,-153.38 149.38,-153.38 149.38,-132.62 275.62,-132.62 275.62,-153.38"/>
<text xml:space="preserve" text-anchor="middle" x="212.5" y="-139.88" font-family="Helvetica,sans-Serif" font-size="10.00">lib/ConfigApplication.h</text>
</a>
</g>
</g>
<!-- Node1&#45;&gt;Node4 -->
<g id="edge3_Node000001_Node000004" class="edge">
<title>Node1&#45;&gt;Node4</title>
<g id="a_edge3_Node000001_Node000004"><a xlink:title=" ">
<path fill="none" stroke="#63b8ff" d="M437.6,-195.33C385.19,-183.38 314.88,-167.35 266.88,-156.4"/>
<polygon fill="#63b8ff" stroke="#63b8ff" points="267.78,-153.02 257.26,-154.21 266.23,-159.84 267.78,-153.02"/>
</a>
</g>
</g>
<!-- Node5 -->
<g id="Node000005" class="node">
<title>Node5</title>
<g id="a_Node000005"><a xlink:href="JsonMappingReader_8h.html" target="_top" xlink:title=" ">
<polygon fill="white" stroke="#666666" points="430.88,-153.38 294.12,-153.38 294.12,-132.62 430.88,-132.62 430.88,-153.38"/>
<text xml:space="preserve" text-anchor="middle" x="362.5" y="-139.88" font-family="Helvetica,sans-Serif" font-size="10.00">lib/JsonMappingReader.h</text>
</a>
</g>
</g>
<!-- Node1&#45;&gt;Node5 -->
<g id="edge4_Node000001_Node000005" class="edge">
<title>Node1&#45;&gt;Node5</title>
<g id="a_edge4_Node000001_Node000005"><a xlink:title=" ">
<path fill="none" stroke="#63b8ff" d="M473.53,-195.33C449.35,-184.15 417.45,-169.4 394.05,-158.59"/>
<polygon fill="#63b8ff" stroke="#63b8ff" points="395.55,-155.43 385.01,-154.41 392.62,-161.78 395.55,-155.43"/>
</a>
</g>
</g>
<!-- Node6 -->
<g id="Node000006" class="node">
<title>Node6</title>
<g id="a_Node000006"><a xlink:href="mqttbroker_2lib_2Mqtt_8h.html" target="_top" xlink:title=" ">
<polygon fill="white" stroke="#666666" points="568.25,-153.38 448.75,-153.38 448.75,-132.62 568.25,-132.62 568.25,-153.38"/>
<text xml:space="preserve" text-anchor="middle" x="508.5" y="-139.88" font-family="Helvetica,sans-Serif" font-size="10.00">mqttbroker/lib/Mqtt.h</text>
</a>
</g>
</g>
<!-- Node1&#45;&gt;Node6 -->
<g id="edge5_Node000001_Node000006" class="edge">
<title>Node1&#45;&gt;Node6</title>
<g id="a_edge5_Node000001_Node000006"><a xlink:title=" ">
<path fill="none" stroke="#63b8ff" d="M508.5,-195.5C508.5,-186.4 508.5,-174.89 508.5,-165.07"/>
<polygon fill="#63b8ff" stroke="#63b8ff" points="512,-165.34 508.5,-155.34 505,-165.34 512,-165.34"/>
</a>
</g>
</g>
<!-- Node10 -->
<g id="Node000010" class="node">
<title>Node10</title>
<g id="a_Node000010"><a xlink:title=" ">
<polygon fill="#e0e0e0" stroke="#999999" points="701,-159.75 586,-159.75 586,-126.25 701,-126.25 701,-159.75"/>
<text xml:space="preserve" text-anchor="start" x="594" y="-146.25" font-family="Helvetica,sans-Serif" font-size="10.00">core/socket/stream</text>
<text xml:space="preserve" text-anchor="middle" x="643.5" y="-133.5" font-family="Helvetica,sans-Serif" font-size="10.00">/SocketConnection.h</text>
</a>
</g>
</g>
<!-- Node1&#45;&gt;Node10 -->
<g id="edge9_Node000001_Node000010" class="edge">
<title>Node1&#45;&gt;Node10</title>
<g id="a_edge9_Node000001_Node000010"><a xlink:title=" ">
<path fill="none" stroke="#63b8ff" d="M540.84,-195.33C558.95,-186.27 581.76,-174.87 601.27,-165.11"/>
<polygon fill="#63b8ff" stroke="#63b8ff" points="602.7,-168.32 610.07,-160.71 599.56,-162.05 602.7,-168.32"/>
</a>
</g>
</g>
<!-- Node11 -->
<g id="Node000011" class="node">
<title>Node11</title>
<g id="a_Node000011"><a xlink:title=" ">
<polygon fill="#e0e0e0" stroke="#999999" points="856.25,-153.38 718.75,-153.38 718.75,-132.62 856.25,-132.62 856.25,-153.38"/>
<text xml:space="preserve" text-anchor="middle" x="787.5" y="-139.88" font-family="Helvetica,sans-Serif" font-size="10.00">iot/mqtt/SocketContext.h</text>
</a>
</g>
</g>
<!-- Node1&#45;&gt;Node11 -->
<g id="edge10_Node000001_Node000011" class="edge">
<title>Node1&#45;&gt;Node11</title>
<g id="a_edge10_Node000001_Node000011"><a xlink:title=" ">
<path fill="none" stroke="#63b8ff" d="M575.33,-195.33C624.52,-183.43 690.44,-167.48 735.67,-156.54"/>
<polygon fill="#63b8ff" stroke="#63b8ff" points="736.34,-159.98 745.23,-154.23 734.69,-153.18 736.34,-159.98"/>
</a>
</g>
</g>
<!-- Node12 -->
<g id="Node000012" class="node">
<title>Node12</title>
<g id="a_Node000012"><a xlink:title=" ">
<polygon fill="#e0e0e0" stroke="#999999" points="1014.75,-159.75 874.25,-159.75 874.25,-126.25 1014.75,-126.25 1014.75,-159.75"/>
<text xml:space="preserve" text-anchor="start" x="882.25" y="-146.25" font-family="Helvetica,sans-Serif" font-size="10.00">net/config/ConfigInstance</text>
<text xml:space="preserve" text-anchor="middle" x="944.5" y="-133.5" font-family="Helvetica,sans-Serif" font-size="10.00">API.hpp</text>
</a>
</g>
</g>
<!-- Node1&#45;&gt;Node12 -->
<g id="edge11_Node000001_Node000012" class="edge">
<title>Node1&#45;&gt;Node12</title>
<g id="a_edge11_Node000001_Node000012"><a xlink:title=" ">
<path fill="none" stroke="#63b8ff" d="M580.47,-202.2C650.16,-192.94 759.07,-177.8 862.6,-160.2"/>
<polygon fill="#63b8ff" stroke="#63b8ff" points="863.14,-163.66 872.41,-158.52 861.96,-156.76 863.14,-163.66"/>
</a>
</g>
</g>
<!-- Node3 -->
<g id="Node000003" class="node">
<title>Node3</title>
<g id="a_Node000003"><a xlink:title=" ">
<polygon fill="#e0e0e0" stroke="#999999" points="133,-90.25 0,-90.25 0,-56.75 133,-56.75 133,-90.25"/>
<text xml:space="preserve" text-anchor="start" x="8" y="-76.75" font-family="Helvetica,sans-Serif" font-size="10.00">core/socket/stream</text>
<text xml:space="preserve" text-anchor="middle" x="66.5" y="-64" font-family="Helvetica,sans-Serif" font-size="10.00">/SocketContextFactory.h</text>
</a>
</g>
</g>
<!-- Node2&#45;&gt;Node3 -->
<g id="edge2_Node000002_Node000003" class="edge">
<title>Node2&#45;&gt;Node3</title>
<g id="a_edge2_Node000002_Node000003"><a xlink:title=" ">
<path fill="none" stroke="#63b8ff" d="M66.5,-132.33C66.5,-124.44 66.5,-112.88 66.5,-102.16"/>
<polygon fill="#63b8ff" stroke="#63b8ff" points="70,-102.18 66.5,-92.18 63,-102.18 70,-102.18"/>
</a>
</g>
</g>
<!-- Node7 -->
<g id="Node000007" class="node">
<title>Node7</title>
<g id="a_Node000007"><a xlink:href="MqttMapper_8h.html" target="_top" xlink:title=" ">
<polygon fill="white" stroke="#666666" points="493.12,-83.88 393.88,-83.88 393.88,-63.12 493.12,-63.12 493.12,-83.88"/>
<text xml:space="preserve" text-anchor="middle" x="443.5" y="-70.38" font-family="Helvetica,sans-Serif" font-size="10.00">lib/MqttMapper.h</text>
</a>
</g>
</g>
<!-- Node6&#45;&gt;Node7 -->
<g id="edge6_Node000006_Node000007" class="edge">
<title>Node6&#45;&gt;Node7</title>
<g id="a_edge6_Node000006_Node000007"><a xlink:title=" ">
<path fill="none" stroke="#63b8ff" d="M499.19,-132.33C489.15,-121.9 472.95,-105.08 460.6,-92.26"/>
<polygon fill="#63b8ff" stroke="#63b8ff" points="463.3,-90.02 453.85,-85.24 458.26,-94.87 463.3,-90.02"/>
</a>
</g>
</g>
<!-- Node9 -->
<g id="Node000009" class="node">
<title>Node9</title>
<g id="a_Node000009"><a xlink:title=" ">
<polygon fill="#e0e0e0" stroke="#999999" points="634.12,-83.88 510.88,-83.88 510.88,-63.12 634.12,-63.12 634.12,-83.88"/>
<text xml:space="preserve" text-anchor="middle" x="572.5" y="-70.38" font-family="Helvetica,sans-Serif" font-size="10.00">iot/mqtt/server/Mqtt.h</text>
</a>
</g>
</g>
<!-- Node6&#45;&gt;Node9 -->
<g id="edge8_Node000006_Node000009" class="edge">
<title>Node6&#45;&gt;Node9</title>
<g id="a_edge8_Node000006_Node000009"><a xlink:title=" ">
<path fill="none" stroke="#63b8ff" d="M517.67,-132.33C527.55,-121.9 543.5,-105.08 555.66,-92.26"/>
<polygon fill="#63b8ff" stroke="#63b8ff" points="557.97,-94.92 562.31,-85.25 552.89,-90.1 557.97,-94.92"/>
</a>
</g>
</g>
<!-- Node8 -->
<g id="Node000008" class="node">
<title>Node8</title>
<g id="a_Node000008"><a xlink:title=" ">
<polygon fill="#e0e0e0" stroke="#999999" points="496.5,-20.75 390.5,-20.75 390.5,0 496.5,0 496.5,-20.75"/>
<text xml:space="preserve" text-anchor="middle" x="443.5" y="-7.25" font-family="Helvetica,sans-Serif" font-size="10.00">core/timer/Timer.h</text>
</a>
</g>
</g>
<!-- Node7&#45;&gt;Node8 -->
<g id="edge7_Node000007_Node000008" class="edge">
<title>Node7&#45;&gt;Node8</title>
<g id="a_edge7_Node000007_Node000008"><a xlink:title=" ">
<path fill="none" stroke="#63b8ff" d="M443.5,-62.68C443.5,-54.52 443.5,-42.63 443.5,-32.35"/>
<polygon fill="#63b8ff" stroke="#63b8ff" points="447,-32.48 443.5,-22.48 440,-32.48 447,-32.48"/>
</a>
</g>
</g>
</g>
</svg>

<g id="navigator" transform="translate(0 0)" fill="#404254">
  <rect fill="#f2f5e9" fill-opacity="0.5" stroke="#606060" stroke-width=".5" x="0" y="0" width="60" height="60"/>
  <use id="zoomplus" xlink:href="#zoomPlus" x="17" y="9" onmousedown="handleZoom(evt,'in')"/>
  <use id="zoomminus" xlink:href="#zoomMin" x="42" y="9" onmousedown="handleZoom(evt,'out')"/>
  <use id="reset" xlink:href="#resetDef" x="30" y="36" onmousedown="handleReset()"/>
   <use id="arrowup" xlink:href="#arrowUp" x="0" y="0" onmousedown="handlePan(0,-1)"/>
  <use id="arrowright" xlink:href="#arrowRight" x="0" y="0" onmousedown="handlePan(1,0)"/>
  <use id="arrowdown" xlink:href="#arrowDown" x="0" y="0" onmousedown="handlePan(0,1)"/>
  <use id="arrowleft" xlink:href="#arrowLeft" x="0" y="0" onmousedown="handlePan(-1,0)"/>
</g>
<svg viewBox="0 0 15 15" width="100%" height="30px" preserveAspectRatio="xMaxYMin meet">
 <g id="arrow_out" transform="scale(0.3 0.3)">
  <a xlink:href="mqttbroker_2SocketContextFactory_8cpp__incl_org.svg" target="_base">
   <rect id="button" ry="5" rx="5" y="6" x="6" height="38" width="38"
        fill="#f2f5e9" fill-opacity="0.5" stroke="#606060" stroke-width="1.0"/>
   <path id="arrow"
     d="M 11.500037,31.436501 C 11.940474,20.09759 22.043105,11.32322 32.158766,21.979434 L 37.068811,17.246167 C 37.068811,17.246167 37.088388,32 37.088388,32 L 22.160133,31.978069 C 22.160133,31.978069 26.997745,27.140456 26.997745,27.140456 C 18.528582,18.264221 13.291696,25.230495 11.500037,31.436501 z"
     style="fill:#404040;"/>
  </a>
 </g>
</svg>

<style type='text/css'>
<![CDATA[
[data-mouse-over-selected='false'] { opacity: 0.7; }
[data-mouse-over-selected='true']  { opacity: 1.0; }
]]>
</style>
<script type="application/ecmascript"><![CDATA[
document.addEventListener('DOMContentLoaded', (event) => {
  highlightEdges();
  highlightAdjacentNodes();
});
]]></script>
</svg>
