<?xml version="1.0" encoding="UTF-8" standalone="no"?>
<!DOCTYPE svg PUBLIC "-//W3C//DTD SVG 1.1//EN"
 "http://www.w3.org/Graphics/SVG/1.1/DTD/svg11.dtd">
<!-- Generated by graphviz version 14.1.2 (0)
 -->
<!-- Title: mqttintegrator/SocketContextFactory.cpp Pages: 1 -->
<svg width="769pt" height="181pt"
 viewBox="0.00 0.00 769.00 181.00" xmlns="http://www.w3.org/2000/svg" xmlns:xlink="http://www.w3.org/1999/xlink">
<g id="graph0" class="graph" transform="scale(1 1) rotate(0) translate(4 176.5)">
<title>mqttintegrator/SocketContextFactory.cpp</title>
<!-- Node1 -->
<g id="Node000001" class="node">
<title>Node1</title>
<g id="a_Node000001"><a xlink:title=" ">
<polygon fill="#999999" stroke="#666666" points="475.88,-172.5 315.12,-172.5 315.12,-139 475.88,-139 475.88,-172.5"/>
<text xml:space="preserve" text-anchor="start" x="323.12" y="-159" font-family="Helvetica,sans-Serif" font-size="10.00">mqttintegrator/SocketContext</text>
<text xml:space="preserve" text-anchor="middle" x="395.5" y="-146.25" font-family="Helvetica,sans-Serif" font-size="10.00">Factory.cpp</text>
</a>
</g>
</g>
<!-- Node2 -->
<g id="Node000002" class="node">
<title>Node2</title>
<g id="a_Node000002"><a xlink:href="mqttintegrator_2SocketContextFactory_8h.html" target="_top" xlink:title=" ">
<polygon fill="white" stroke="#666666" points="141.5,-96.62 11.5,-96.62 11.5,-75.88 141.5,-75.88 141.5,-96.62"/>
<text xml:space="preserve" text-anchor="middle" x="76.5" y="-83.12" font-family="Helvetica,sans-Serif" font-size="10.00">SocketContextFactory.h</text>
</a>
</g>
</g>
<!-- Node1&#45;&gt;Node2 -->
<g id="edge1_Node000001_Node000002" class="edge">
<title>Node1&#45;&gt;Node2</title>
<g id="a_edge1_Node000001_Node000002"><a xlink:title=" ">
<path fill="none" stroke="#63b8ff" d="M319.09,-138.58C262.25,-126.55 185.88,-110.39 134.12,-99.44"/>
<polygon fill="#63b8ff" stroke="#63b8ff" points="135.13,-96.08 124.62,-97.43 133.68,-102.93 135.13,-96.08"/>
</a>
</g>
</g>
<!-- Node4 -->
<g id="Node000004" class="node">
<title>Node4</title>
<g id="a_Node000004"><a xlink:href="ConfigApplication_8h.html" target="_top" xlink:title=" ">
<polygon fill="white" stroke="#666666" points="290.62,-96.62 164.38,-96.62 164.38,-75.88 290.62,-75.88 290.62,-96.62"/>
<text xml:space="preserve" text-anchor="middle" x="227.5" y="-83.12" font-family="Helvetica,sans-Serif" font-size="10.00">lib/ConfigApplication.h</text>
</a>
</g>
</g>
<!-- Node1&#45;&gt;Node4 -->
<g id="edge3_Node000001_Node000004" class="edge">
<title>Node1&#45;&gt;Node4</title>
<g id="a_edge3_Node000001_Node000004"><a xlink:title=" ">
<path fill="none" stroke="#63b8ff" d="M355.26,-138.58C326.93,-127.2 289.4,-112.12 262.35,-101.25"/>
<polygon fill="#63b8ff" stroke="#63b8ff" points="263.81,-98.07 253.22,-97.59 261.2,-104.56 263.81,-98.07"/>
</a>
</g>
</g>
<!-- Node6 -->
<g id="Node000006" class="node">
<title>Node6</title>
<g id="a_Node000006"><a xlink:href="mqttintegrator_2lib_2Mqtt_8h.html" target="_top" xlink:title=" ">
<polygon fill="white" stroke="#666666" points="373.75,-96.62 311.25,-96.62 311.25,-75.88 373.75,-75.88 373.75,-96.62"/>
<text xml:space="preserve" text-anchor="middle" x="342.5" y="-83.12" font-family="Helvetica,sans-Serif" font-size="10.00">lib/Mqtt.h</text>
</a>
</g>
</g>
<!-- Node1&#45;&gt;Node6 -->
<g id="edge5_Node000001_Node000006" class="edge">
<title>Node1&#45;&gt;Node6</title>
<g id="a_edge5_Node000001_Node000006"><a xlink:title=" ">
<path fill="none" stroke="#63b8ff" d="M382.94,-138.75C375.24,-128.94 365.34,-116.34 357.27,-106.05"/>
<polygon fill="#63b8ff" stroke="#63b8ff" points="360.08,-103.97 351.15,-98.26 354.57,-108.29 360.08,-103.97"/>
</a>
</g>
</g>
<!-- Node9 -->
<g id="Node000009" class="node">
<title>Node9</title>
<g id="a_Node000009"><a xlink:title=" ">
<polygon fill="#e0e0e0" stroke="#999999" points="507,-103 392,-103 392,-69.5 507,-69.5 507,-103"/>
<text xml:space="preserve" text-anchor="start" x="400" y="-89.5" font-family="Helvetica,sans-Serif" font-size="10.00">core/socket/stream</text>
<text xml:space="preserve" text-anchor="middle" x="449.5" y="-76.75" font-family="Helvetica,sans-Serif" font-size="10.00">/SocketConnection.h</text>
</a>
</g>
</g>
<!-- Node1&#45;&gt;Node9 -->
<g id="edge8_Node000001_Node000009" class="edge">
<title>Node1&#45;&gt;Node9</title>
<g id="a_edge8_Node000001_Node000009"><a xlink:title=" ">
<path fill="none" stroke="#63b8ff" d="M408.3,-138.75C414.69,-130.77 422.56,-120.93 429.7,-112"/>
<polygon fill="#63b8ff" stroke="#63b8ff" points="432.34,-114.31 435.85,-104.31 426.87,-109.94 432.34,-114.31"/>
</a>
</g>
</g>
<!-- Node10 -->
<g id="Node000010" class="node">
<title>Node10</title>
<g id="a_Node000010"><a xlink:title=" ">
<polygon fill="#e0e0e0" stroke="#999999" points="662.25,-96.62 524.75,-96.62 524.75,-75.88 662.25,-75.88 662.25,-96.62"/>
<text xml:space="preserve" text-anchor="middle" x="593.5" y="-83.12" font-family="Helvetica,sans-Serif" font-size="10.00">iot/mqtt/SocketContext.h</text>
</a>
</g>
</g>
<!-- Node1&#45;&gt;Node10 -->
<g id="edge9_Node000001_Node000010" class="edge">
<title>Node1&#45;&gt;Node10</title>
<g id="a_edge9_Node000001_Node000010"><a xlink:title=" ">
<path fill="none" stroke="#63b8ff" d="M442.93,-138.58C476.8,-127.03 521.85,-111.68 553.83,-100.78"/>
<polygon fill="#63b8ff" stroke="#63b8ff" points="554.78,-104.15 563.12,-97.61 552.52,-97.52 554.78,-104.15"/>
</a>
</g>
</g>
<!-- Node11 -->
<g id="Node000011" class="node">
<title>Node11</title>
<g id="a_Node000011"><a xlink:title=" ">
<polygon fill="#e0e0e0" stroke="#999999" points="760.75,-96.62 680.25,-96.62 680.25,-75.88 760.75,-75.88 760.75,-96.62"/>
<text xml:space="preserve" text-anchor="middle" x="720.5" y="-83.12" font-family="Helvetica,sans-Serif" font-size="10.00">utils/Config.h</text>
</a>
</g>
</g>
<!-- Node1&#45;&gt;Node11 -->
<g id="edge10_Node000001_Node000011" class="edge">
<title>Node1&#45;&gt;Node11</title>
<g id="a_edge10_Node000001_Node000011"><a xlink:title=" ">
<path fill="none" stroke="#63b8ff" d="M476.09,-142.38C531.45,-133.22 606.4,-119.5 671.5,-103 674.63,-102.21 677.85,-101.33 681.07,-100.4"/>
<polygon fill="#63b8ff" stroke="#63b8ff" points="681.91,-103.8 690.47,-97.54 679.88,-97.1 681.91,-103.8"/>
</a>
</g>
</g>
<!-- Node3 -->
<g id="Node000003" class="node">
<title>Node3</title>
<g id="a_Node000003"><a xlink:title=" ">
<polygon fill="#e0e0e0" stroke="#999999" points="133,-33.5 0,-33.5 0,0 133,0 133,-33.5"/>
<text xml:space="preserve" text-anchor="start" x="8" y="-20" font-family="Helvetica,sans-Serif" font-size="10.00">core/socket/stream</text>
<text xml:space="preserve" text-anchor="middle" x="66.5" y="-7.25" font-family="Helvetica,sans-Serif" font-size="10.00">/SocketContextFactory.h</text>
</a>
</g>
</g>
<!-- Node2&#45;&gt;Node3 -->
<g id="edge2_Node000002_Node000003" class="edge">
<title>Node2&#45;&gt;Node3</title>
<g id="a_edge2_Node000002_Node000003"><a xlink:title=" ">
<path fill="none" stroke="#63b8ff" d="M75.07,-75.58C73.89,-67.6 72.15,-55.88 70.55,-45.07"/>
<polygon fill="#63b8ff" stroke="#63b8ff" points="74.05,-44.8 69.12,-35.42 67.12,-45.82 74.05,-44.8"/>
</a>
</g>
</g>
<!-- Node5 -->
<g id="Node000005" class="node">
<title>Node5</title>
<g id="a_Node000005"><a xlink:title=" ">
<polygon fill="#e0e0e0" stroke="#999999" points="268.12,-27.12 150.88,-27.12 150.88,-6.38 268.12,-6.38 268.12,-27.12"/>
<text xml:space="preserve" text-anchor="middle" x="209.5" y="-13.62" font-family="Helvetica,sans-Serif" font-size="10.00">utils/SubCommand.h</text>
</a>
</g>
</g>
<!-- Node4&#45;&gt;Node5 -->
<g id="edge4_Node000004_Node000005" class="edge">
<title>Node4&#45;&gt;Node5</title>
<g id="a_edge4_Node000004_Node000005"><a xlink:title=" ">
<path fill="none" stroke="#63b8ff" d="M224.92,-75.58C222.33,-65.85 218.25,-50.57 214.94,-38.15"/>
<polygon fill="#63b8ff" stroke="#63b8ff" points="218.42,-37.63 212.46,-28.87 211.66,-39.43 218.42,-37.63"/>
</a>
</g>
</g>
<!-- Node7 -->
<g id="Node000007" class="node">
<title>Node7</title>
<g id="a_Node000007"><a xlink:title=" ">
<polygon fill="#e0e0e0" stroke="#999999" points="405.25,-27.12 285.75,-27.12 285.75,-6.38 405.25,-6.38 405.25,-27.12"/>
<text xml:space="preserve" text-anchor="middle" x="345.5" y="-13.62" font-family="Helvetica,sans-Serif" font-size="10.00">iot/mqtt/client/Mqtt.h</text>
</a>
</g>
</g>
<!-- Node6&#45;&gt;Node7 -->
<g id="edge6_Node000006_Node000007" class="edge">
<title>Node6&#45;&gt;Node7</title>
<g id="a_edge6_Node000006_Node000007"><a xlink:title=" ">
<path fill="none" stroke="#63b8ff" d="M342.93,-75.58C343.36,-65.96 344.03,-50.88 344.58,-38.54"/>
<polygon fill="#63b8ff" stroke="#63b8ff" points="348.06,-39.06 345,-28.92 341.06,-38.75 348.06,-39.06"/>
</a>
</g>
</g>
<!-- Node8 -->
<g id="Node000008" class="node">
<title>Node8</title>
<g id="a_Node000008"><a xlink:title=" ">
<polygon fill="#e0e0e0" stroke="#999999" points="565.88,-27.12 423.12,-27.12 423.12,-6.38 565.88,-6.38 565.88,-27.12"/>
<text xml:space="preserve" text-anchor="middle" x="494.5" y="-13.62" font-family="Helvetica,sans-Serif" font-size="10.00">iot/mqtt/packets/Publish.h</text>
</a>
</g>
</g>
<!-- Node6&#45;&gt;Node8 -->
<g id="edge7_Node000006_Node000008" class="edge">
<title>Node6&#45;&gt;Node8</title>
<g id="a_edge7_Node000006_Node000008"><a xlink:title=" ">
<path fill="none" stroke="#63b8ff" d="M364.6,-75.43C390.27,-64.04 432.83,-45.14 462.2,-32.09"/>
<polygon fill="#63b8ff" stroke="#63b8ff" points="463.27,-35.45 470.99,-28.19 460.43,-29.05 463.27,-35.45"/>
</a>
</g>
</g>
</g>
</svg>
