<?xml version="1.0" encoding="UTF-8" standalone="no"?>
<!DOCTYPE svg PUBLIC "-//W3C//DTD SVG 1.1//EN"
 "http://www.w3.org/Graphics/SVG/1.1/DTD/svg11.dtd">
<!-- Generated by graphviz version 14.1.2 (0)
 -->
<!-- Title: mqttintegrator/SocketContextFactory.cpp Pages: 1 -->
<svg width="1020pt" height="237pt"
 viewBox="0.00 0.00 1020.00 237.00" xmlns="http://www.w3.org/2000/svg" xmlns:xlink="http://www.w3.org/1999/xlink">
<g id="graph0" class="graph" transform="scale(1 1) rotate(0) translate(4 233.25)">
<title>mqttintegrator/SocketContextFactory.cpp</title>
<!-- Node1 -->
<g id="Node000001" class="node">
<title>Node1</title>
<g id="a_Node000001"><a xlink:title=" ">
<polygon fill="#999999" stroke="#666666" points="613.88,-229.25 453.12,-229.25 453.12,-195.75 613.88,-195.75 613.88,-229.25"/>
<text xml:space="preserve" text-anchor="start" x="461.12" y="-215.75" font-family="Helvetica,sans-Serif" font-size="10.00">mqttintegrator/SocketContext</text>
<text xml:space="preserve" text-anchor="middle" x="533.5" y="-203" font-family="Helvetica,sans-Serif" font-size="10.00">Factory.cpp</text>
</a>
</g>
</g>
<!-- Node2 -->
<g id="Node000002" class="node">
<title>Node2</title>
<g id="a_Node000002"><a xlink:href="mqttintegrator_2SocketContextFactory_8h.html" target="_top" xlink:title=" ">
<polygon fill="white" stroke="#666666" points="184.5,-153.38 54.5,-153.38 54.5,-132.62 184.5,-132.62 184.5,-153.38"/>
<text xml:space="preserve" text-anchor="middle" x="119.5" y="-139.88" font-family="Helvetica,sans-Serif" font-size="10.00">SocketContextFactory.h</text>
</a>
</g>
</g>
<!-- Node1&#45;&gt;Node2 -->
<g id="edge1_Node000001_Node000002" class="edge">
<title>Node1&#45;&gt;Node2</title>
<g id="a_edge1_Node000001_Node000002"><a xlink:title=" ">
<path fill="none" stroke="#63b8ff" d="M452.9,-200.59C383.87,-190.92 281.9,-175.87 193.5,-159.75 187.44,-158.65 181.12,-157.42 174.84,-156.15"/>
<polygon fill="#63b8ff" stroke="#63b8ff" points="175.62,-152.73 165.12,-154.14 174.2,-159.59 175.62,-152.73"/>
</a>
</g>
</g>
<!-- Node5 -->
<g id="Node000005" class="node">
<title>Node5</title>
<g id="a_Node000005"><a xlink:href="ConfigApplication_8h.html" target="_top" xlink:title=" ">
<polygon fill="white" stroke="#666666" points="328.62,-153.38 202.38,-153.38 202.38,-132.62 328.62,-132.62 328.62,-153.38"/>
<text xml:space="preserve" text-anchor="middle" x="265.5" y="-139.88" font-family="Helvetica,sans-Serif" font-size="10.00">lib/ConfigApplication.h</text>
</a>
</g>
</g>
<!-- Node1&#45;&gt;Node5 -->
<g id="edge4_Node000001_Node000005" class="edge">
<title>Node1&#45;&gt;Node5</title>
<g id="a_edge4_Node000001_Node000005"><a xlink:title=" ">
<path fill="none" stroke="#63b8ff" d="M469.31,-195.33C422.26,-183.48 359.27,-167.62 315.84,-156.68"/>
<polygon fill="#63b8ff" stroke="#63b8ff" points="316.71,-153.29 306.15,-154.24 315,-160.08 316.71,-153.29"/>
</a>
</g>
</g>
<!-- Node6 -->
<g id="Node000006" class="node">
<title>Node6</title>
<g id="a_Node000006"><a xlink:href="JsonMappingReader_8h.html" target="_top" xlink:title=" ">
<polygon fill="white" stroke="#666666" points="483.88,-153.38 347.12,-153.38 347.12,-132.62 483.88,-132.62 483.88,-153.38"/>
<text xml:space="preserve" text-anchor="middle" x="415.5" y="-139.88" font-family="Helvetica,sans-Serif" font-size="10.00">lib/JsonMappingReader.h</text>
</a>
</g>
</g>
<!-- Node1&#45;&gt;Node6 -->
<g id="edge5_Node000001_Node000006" class="edge">
<title>Node1&#45;&gt;Node6</title>
<g id="a_edge5_Node000001_Node000006"><a xlink:title=" ">
<path fill="none" stroke="#63b8ff" d="M505.24,-195.33C486.22,-184.46 461.31,-170.2 442.55,-159.48"/>
<polygon fill="#63b8ff" stroke="#63b8ff" points="444.31,-156.45 433.9,-154.52 440.84,-162.53 444.31,-156.45"/>
</a>
</g>
</g>
<!-- Node7 -->
<g id="Node000007" class="node">
<title>Node7</title>
<g id="a_Node000007"><a xlink:href="mqttintegrator_2lib_2Mqtt_8h.html" target="_top" xlink:title=" ">
<polygon fill="white" stroke="#666666" points="564.75,-153.38 502.25,-153.38 502.25,-132.62 564.75,-132.62 564.75,-153.38"/>
<text xml:space="preserve" text-anchor="middle" x="533.5" y="-139.88" font-family="Helvetica,sans-Serif" font-size="10.00">lib/Mqtt.h</text>
</a>
</g>
</g>
<!-- Node1&#45;&gt;Node7 -->
<g id="edge6_Node000001_Node000007" class="edge">
<title>Node1&#45;&gt;Node7</title>
<g id="a_edge6_Node000001_Node000007"><a xlink:title=" ">
<path fill="none" stroke="#63b8ff" d="M533.5,-195.5C533.5,-186.4 533.5,-174.89 533.5,-165.07"/>
<polygon fill="#63b8ff" stroke="#63b8ff" points="537,-165.34 533.5,-155.34 530,-165.34 537,-165.34"/>
</a>
</g>
</g>
<!-- Node11 -->
<g id="Node000011" class="node">
<title>Node11</title>
<g id="a_Node000011"><a xlink:title=" ">
<polygon fill="#e0e0e0" stroke="#999999" points="698,-159.75 583,-159.75 583,-126.25 698,-126.25 698,-159.75"/>
<text xml:space="preserve" text-anchor="start" x="591" y="-146.25" font-family="Helvetica,sans-Serif" font-size="10.00">core/socket/stream</text>
<text xml:space="preserve" text-anchor="middle" x="640.5" y="-133.5" font-family="Helvetica,sans-Serif" font-size="10.00">/SocketConnection.h</text>
</a>
</g>
</g>
<!-- Node1&#45;&gt;Node11 -->
<g id="edge10_Node000001_Node000011" class="edge">
<title>Node1&#45;&gt;Node11</title>
<g id="a_edge10_Node000001_Node000011"><a xlink:title=" ">
<path fill="none" stroke="#63b8ff" d="M559.13,-195.33C573.03,-186.57 590.4,-175.6 605.53,-166.06"/>
<polygon fill="#63b8ff" stroke="#63b8ff" points="607.21,-169.14 613.8,-160.84 603.47,-163.22 607.21,-169.14"/>
</a>
</g>
</g>
<!-- Node12 -->
<g id="Node000012" class="node">
<title>Node12</title>
<g id="a_Node000012"><a xlink:title=" ">
<polygon fill="#e0e0e0" stroke="#999999" points="853.25,-153.38 715.75,-153.38 715.75,-132.62 853.25,-132.62 853.25,-153.38"/>
<text xml:space="preserve" text-anchor="middle" x="784.5" y="-139.88" font-family="Helvetica,sans-Serif" font-size="10.00">iot/mqtt/SocketContext.h</text>
</a>
</g>
</g>
<!-- Node1&#45;&gt;Node12 -->
<g id="edge11_Node000001_Node000012" class="edge">
<title>Node1&#45;&gt;Node12</title>
<g id="a_edge11_Node000001_Node000012"><a xlink:title=" ">
<path fill="none" stroke="#63b8ff" d="M593.62,-195.33C637.5,-183.53 696.18,-167.75 736.84,-156.82"/>
<polygon fill="#63b8ff" stroke="#63b8ff" points="737.59,-160.24 746.34,-154.26 735.77,-153.48 737.59,-160.24"/>
</a>
</g>
</g>
<!-- Node13 -->
<g id="Node000013" class="node">
<title>Node13</title>
<g id="a_Node000013"><a xlink:title=" ">
<polygon fill="#e0e0e0" stroke="#999999" points="1011.75,-159.75 871.25,-159.75 871.25,-126.25 1011.75,-126.25 1011.75,-159.75"/>
<text xml:space="preserve" text-anchor="start" x="879.25" y="-146.25" font-family="Helvetica,sans-Serif" font-size="10.00">net/config/ConfigInstance</text>
<text xml:space="preserve" text-anchor="middle" x="941.5" y="-133.5" font-family="Helvetica,sans-Serif" font-size="10.00">API.hpp</text>
</a>
</g>
</g>
<!-- Node1&#45;&gt;Node13 -->
<g id="edge12_Node000001_Node000013" class="edge">
<title>Node1&#45;&gt;Node13</title>
<g id="a_edge12_Node000001_Node000013"><a xlink:title=" ">
<path fill="none" stroke="#63b8ff" d="M614.1,-199.76C678.13,-190.22 770.24,-176.01 859.71,-160.21"/>
<polygon fill="#63b8ff" stroke="#63b8ff" points="860.17,-163.68 869.4,-158.49 858.94,-156.79 860.17,-163.68"/>
</a>
</g>
</g>
<!-- Node3 -->
<g id="Node000003" class="node">
<title>Node3</title>
<g id="a_Node000003"><a xlink:title=" ">
<polygon fill="#e0e0e0" stroke="#999999" points="133,-90.25 0,-90.25 0,-56.75 133,-56.75 133,-90.25"/>
<text xml:space="preserve" text-anchor="start" x="8" y="-76.75" font-family="Helvetica,sans-Serif" font-size="10.00">core/socket/stream</text>
<text xml:space="preserve" text-anchor="middle" x="66.5" y="-64" font-family="Helvetica,sans-Serif" font-size="10.00">/SocketContextFactory.h</text>
</a>
</g>
</g>
<!-- Node2&#45;&gt;Node3 -->
<g id="edge2_Node000002_Node000003" class="edge">
<title>Node2&#45;&gt;Node3</title>
<g id="a_edge2_Node000002_Node000003"><a xlink:title=" ">
<path fill="none" stroke="#63b8ff" d="M111.91,-132.33C105.18,-123.76 95.05,-110.86 86.07,-99.42"/>
<polygon fill="#63b8ff" stroke="#63b8ff" points="89.06,-97.56 80.13,-91.86 83.55,-101.89 89.06,-97.56"/>
</a>
</g>
</g>
<!-- Node4 -->
<g id="Node000004" class="node">
<title>Node4</title>
<g id="a_Node000004"><a xlink:title=" ">
<polygon fill="#e0e0e0" stroke="#999999" points="194.38,-83.88 150.62,-83.88 150.62,-63.12 194.38,-63.12 194.38,-83.88"/>
<text xml:space="preserve" text-anchor="middle" x="172.5" y="-70.38" font-family="Helvetica,sans-Serif" font-size="10.00">string</text>
</a>
</g>
</g>
<!-- Node2&#45;&gt;Node4 -->
<g id="edge3_Node000002_Node000004" class="edge">
<title>Node2&#45;&gt;Node4</title>
<g id="a_edge3_Node000002_Node000004"><a xlink:title=" ">
<path fill="none" stroke="#63b8ff" d="M127.09,-132.33C135.12,-122.1 147.98,-105.73 157.97,-93"/>
<polygon fill="#63b8ff" stroke="#63b8ff" points="160.56,-95.37 163.99,-85.34 155.06,-91.05 160.56,-95.37"/>
</a>
</g>
</g>
<!-- Node8 -->
<g id="Node000008" class="node">
<title>Node8</title>
<g id="a_Node000008"><a xlink:href="MqttMapper_8h.html" target="_top" xlink:title=" ">
<polygon fill="white" stroke="#666666" points="519.12,-83.88 419.88,-83.88 419.88,-63.12 519.12,-63.12 519.12,-83.88"/>
<text xml:space="preserve" text-anchor="middle" x="469.5" y="-70.38" font-family="Helvetica,sans-Serif" font-size="10.00">lib/MqttMapper.h</text>
</a>
</g>
</g>
<!-- Node7&#45;&gt;Node8 -->
<g id="edge7_Node000007_Node000008" class="edge">
<title>Node7&#45;&gt;Node8</title>
<g id="a_edge7_Node000007_Node000008"><a xlink:title=" ">
<path fill="none" stroke="#63b8ff" d="M524.33,-132.33C514.45,-121.9 498.5,-105.08 486.34,-92.26"/>
<polygon fill="#63b8ff" stroke="#63b8ff" points="489.11,-90.1 479.69,-85.25 484.03,-94.92 489.11,-90.1"/>
</a>
</g>
</g>
<!-- Node10 -->
<g id="Node000010" class="node">
<title>Node10</title>
<g id="a_Node000010"><a xlink:title=" ">
<polygon fill="#e0e0e0" stroke="#999999" points="656.25,-83.88 536.75,-83.88 536.75,-63.12 656.25,-63.12 656.25,-83.88"/>
<text xml:space="preserve" text-anchor="middle" x="596.5" y="-70.38" font-family="Helvetica,sans-Serif" font-size="10.00">iot/mqtt/client/Mqtt.h</text>
</a>
</g>
</g>
<!-- Node7&#45;&gt;Node10 -->
<g id="edge9_Node000007_Node000010" class="edge">
<title>Node7&#45;&gt;Node10</title>
<g id="a_edge9_Node000007_Node000010"><a xlink:title=" ">
<path fill="none" stroke="#63b8ff" d="M542.53,-132.33C552.26,-121.9 567.96,-105.08 579.92,-92.26"/>
<polygon fill="#63b8ff" stroke="#63b8ff" points="582.19,-94.96 586.46,-85.26 577.08,-90.18 582.19,-94.96"/>
</a>
</g>
</g>
<!-- Node9 -->
<g id="Node000009" class="node">
<title>Node9</title>
<g id="a_Node000009"><a xlink:title=" ">
<polygon fill="#e0e0e0" stroke="#999999" points="522.5,-20.75 416.5,-20.75 416.5,0 522.5,0 522.5,-20.75"/>
<text xml:space="preserve" text-anchor="middle" x="469.5" y="-7.25" font-family="Helvetica,sans-Serif" font-size="10.00">core/timer/Timer.h</text>
</a>
</g>
</g>
<!-- Node8&#45;&gt;Node9 -->
<g id="edge8_Node000008_Node000009" class="edge">
<title>Node8&#45;&gt;Node9</title>
<g id="a_edge8_Node000008_Node000009"><a xlink:title=" ">
<path fill="none" stroke="#63b8ff" d="M469.5,-62.68C469.5,-54.52 469.5,-42.63 469.5,-32.35"/>
<polygon fill="#63b8ff" stroke="#63b8ff" points="473,-32.48 469.5,-22.48 466,-32.48 473,-32.48"/>
</a>
</g>
</g>
</g>
</svg>
