<?xml version="1.0" encoding="UTF-8" standalone="no"?>
<!DOCTYPE svg PUBLIC "-//W3C//DTD SVG 1.1//EN"
 "http://www.w3.org/Graphics/SVG/1.1/DTD/svg11.dtd">
<!-- Generated by graphviz version 14.1.1 (0)
 -->
<!-- Title: main Pages: 1 -->
<!--zoomable 646 -->

<svg id="main" version="1.1" xmlns="http://www.w3.org/2000/svg" xmlns:xlink="http://www.w3.org/1999/xlink" xml:space="preserve" onload="init(evt)">

<style type="text/css"><![CDATA[
.node, .edge {opacity: 0.7;}
.node.selected, .edge.selected {opacity: 1;}
.edge:hover path { stroke: red; }
.edge:hover polygon { stroke: red; fill: red; }
]]></style>

<defs>
  <circle id="rim" cx="0" cy="0" r="7"/>
  <circle id="rim2" cx="0" cy="0" r="3.5"/>
  <g id="zoomPlus">
    <use xlink:href="#rim" fill="#404040"><set attributeName="fill" to="#808080" begin="zoomplus.mouseover" end="zoomplus.mouseout"/></use>
    <path d="M-4,0h8M0,-4v8" fill="none" stroke="white" stroke-width="1.5" pointer-events="none"/>
  </g>
  <g id="zoomMin">
    <use xlink:href="#rim" fill="#404040"><set attributeName="fill" to="#808080" begin="zoomminus.mouseover" end="zoomminus.mouseout"/></use>
    <path d="M-4,0h8" fill="none" stroke="white" stroke-width="1.5" pointer-events="none"/>
  </g>
  <g id="arrowUp" transform="translate(30 24)">
    <use xlink:href="#rim"/>
    <path pointer-events="none" fill="none" stroke="white" stroke-width="1.5" d="M0,-3.0v7 M-2.5,-0.5L0,-3.0L2.5,-0.5"/>
  </g>
  <g id="arrowRight" transform="rotate(90) translate(36 -43)">
    <use xlink:href="#rim"/>
    <path pointer-events="none" fill="none" stroke="white" stroke-width="1.5" d="M0,-3.0v7 M-2.5,-0.5L0,-3.0L2.5,-0.5"/>
  </g>
  <g id="arrowDown" transform="rotate(180) translate(-30 -48)">
    <use xlink:href="#rim"/>
    <path pointer-events="none" fill="none" stroke="white" stroke-width="1.5" d="M0,-3.0v7 M-2.5,-0.5L0,-3.0L2.5,-0.5"/>
  </g>
  <g id="arrowLeft" transform="rotate(270) translate(-36 17)">
    <use xlink:href="#rim"/>
    <path pointer-events="none" fill="none" stroke="white" stroke-width="1.5" d="M0,-3.0v7 M-2.5,-0.5L0,-3.0L2.5,-0.5"/>
  </g>
  <g id="resetDef">
    <use xlink:href="#rim2" fill="#404040"><set attributeName="fill" to="#808080" begin="reset.mouseover" end="reset.mouseout"/></use>
  </g>
</defs>
<script type="application/ecmascript">
var viewWidth = 1459;
var viewHeight = 646;
var sectionId = 'dynsection-6';
</script>
<script type="application/ecmascript" xlink:href="svg.min.js"/>
<svg id="graph" class="graph">
<g id="viewport">
<title>main</title>
<!-- Node1 -->
<g id="Node000001" class="node">
<title>Node1</title>
<g id="a_Node000001"><a xlink:title=" ">
<polygon fill="#999999" stroke="#666666" points="40.75,-312.12 0,-312.12 0,-291.38 40.75,-291.38 40.75,-312.12"/>
<text xml:space="preserve" text-anchor="middle" x="20.38" y="-298.62" font-family="Helvetica,sans-Serif" font-size="10.00">main</text>
</a>
</g>
</g>
<!-- Node2 -->
<g id="Node000002" class="node">
<title>Node2</title>
<g id="a_Node000002"><a xlink:href="classmqtt_1_1bridge_1_1lib_1_1BridgeStore.html#a7b35204686d51d46798ecae6918527e1" target="_top" xlink:title=" ">
<polygon fill="white" stroke="#666666" points="216.5,-344.5 96.25,-344.5 96.25,-311 216.5,-311 216.5,-344.5"/>
<text xml:space="preserve" text-anchor="start" x="104.25" y="-331" font-family="Helvetica,sans-Serif" font-size="10.00">mqtt::bridge::lib::</text>
<text xml:space="preserve" text-anchor="middle" x="156.38" y="-318.25" font-family="Helvetica,sans-Serif" font-size="10.00">BridgeStore::instance</text>
</a>
</g>
</g>
<!-- Node1&#45;&gt;Node2 -->
<g id="edge1_Node000001_Node000002" class="edge">
<title>Node1&#45;&gt;Node2</title>
<g id="a_edge1_Node000001_Node000002"><a xlink:title=" ">
<path fill="none" stroke="#63b8ff" d="M41.15,-305.59C52.98,-307.88 68.8,-310.95 84.9,-314.08"/>
<polygon fill="#63b8ff" stroke="#63b8ff" points="84.07,-317.48 94.55,-315.95 85.4,-310.61 84.07,-317.48"/>
</a>
</g>
</g>
<!-- Node3 -->
<g id="Node000003" class="node">
<title>Node3</title>
<g id="a_Node000003"><a xlink:href="classmqtt_1_1bridge_1_1lib_1_1BridgeStore.html#ab8ade196caaa4d233f8dc1625619ed9a" target="_top" xlink:title=" ">
<polygon fill="white" stroke="#666666" points="236,-292.5 76.75,-292.5 76.75,-259 236,-259 236,-292.5"/>
<text xml:space="preserve" text-anchor="start" x="84.75" y="-279" font-family="Helvetica,sans-Serif" font-size="10.00">mqtt::bridge::lib::</text>
<text xml:space="preserve" text-anchor="middle" x="156.38" y="-266.25" font-family="Helvetica,sans-Serif" font-size="10.00">BridgeStore::loadAndValidate</text>
</a>
</g>
</g>
<!-- Node1&#45;&gt;Node3 -->
<g id="edge2_Node000001_Node000003" class="edge">
<title>Node1&#45;&gt;Node3</title>
<g id="a_edge2_Node000001_Node000003"><a xlink:title=" ">
<path fill="none" stroke="#63b8ff" d="M41.15,-297.91C48.08,-296.57 56.39,-294.96 65.32,-293.22"/>
<polygon fill="#63b8ff" stroke="#63b8ff" points="65.84,-296.69 74.99,-291.35 64.51,-289.82 65.84,-296.69"/>
</a>
</g>
</g>
<!-- Node4 -->
<g id="Node000004" class="node">
<title>Node4</title>
<g id="a_Node000004"><a xlink:href="classnlohmann_1_1json__schema_1_1json__validator.html#ad8f46dfed69afe463732ae335879dabb" target="_top" xlink:title=" ">
<polygon fill="white" stroke="#666666" points="407.62,-327.88 273.12,-327.88 273.12,-281.62 407.62,-281.62 407.62,-327.88"/>
<text xml:space="preserve" text-anchor="start" x="281.12" y="-314.38" font-family="Helvetica,sans-Serif" font-size="10.00">nlohmann::json_schema</text>
<text xml:space="preserve" text-anchor="start" x="281.12" y="-301.62" font-family="Helvetica,sans-Serif" font-size="10.00">::json_validator::json</text>
<text xml:space="preserve" text-anchor="middle" x="340.38" y="-288.88" font-family="Helvetica,sans-Serif" font-size="10.00">_validator</text>
</a>
</g>
</g>
<!-- Node3&#45;&gt;Node4 -->
<g id="edge3_Node000003_Node000004" class="edge">
<title>Node3&#45;&gt;Node4</title>
<g id="a_edge3_Node000003_Node000004"><a xlink:title=" ">
<path fill="none" stroke="#63b8ff" d="M236.41,-288.34C244.72,-289.67 253.16,-291.01 261.46,-292.34"/>
<polygon fill="#63b8ff" stroke="#63b8ff" points="260.74,-295.76 271.16,-293.88 261.84,-288.85 260.74,-295.76"/>
</a>
</g>
</g>
<!-- Node23 -->
<g id="Node000023" class="node">
<title>Node23</title>
<g id="a_Node000023"><a xlink:href="classnlohmann_1_1json__schema_1_1json__validator.html#affff379ae30b7ab48c81d5b65e34f613" target="_top" xlink:title=" ">
<polygon fill="white" stroke="#666666" points="408.75,-263.5 272,-263.5 272,-230 408.75,-230 408.75,-263.5"/>
<text xml:space="preserve" text-anchor="start" x="280" y="-250" font-family="Helvetica,sans-Serif" font-size="10.00">nlohmann::json_schema</text>
<text xml:space="preserve" text-anchor="middle" x="340.38" y="-237.25" font-family="Helvetica,sans-Serif" font-size="10.00">::json_validator::validate</text>
</a>
</g>
</g>
<!-- Node3&#45;&gt;Node23 -->
<g id="edge36_Node000003_Node000023" class="edge">
<title>Node3&#45;&gt;Node23</title>
<g id="a_edge36_Node000003_Node000023"><a xlink:title=" ">
<path fill="none" stroke="#63b8ff" d="M236.41,-263.16C244.36,-261.89 252.44,-260.6 260.4,-259.33"/>
<polygon fill="#63b8ff" stroke="#63b8ff" points="260.71,-262.83 270.04,-257.8 259.61,-255.92 260.71,-262.83"/>
</a>
</g>
</g>
<!-- Node5 -->
<g id="Node000005" class="node">
<title>Node5</title>
<g id="a_Node000005"><a xlink:href="classnlohmann_1_1json__schema_1_1json__validator.html#aa0aea93f3507f78008cba94fb7e81799" target="_top" xlink:title=" ">
<polygon fill="white" stroke="#666666" points="580.38,-327.88 445.88,-327.88 445.88,-281.62 580.38,-281.62 580.38,-327.88"/>
<text xml:space="preserve" text-anchor="start" x="453.88" y="-314.38" font-family="Helvetica,sans-Serif" font-size="10.00">nlohmann::json_schema</text>
<text xml:space="preserve" text-anchor="start" x="453.88" y="-301.62" font-family="Helvetica,sans-Serif" font-size="10.00">::json_validator::json</text>
<text xml:space="preserve" text-anchor="middle" x="513.12" y="-288.88" font-family="Helvetica,sans-Serif" font-size="10.00">_validator</text>
</a>
</g>
</g>
<!-- Node4&#45;&gt;Node5 -->
<g id="edge4_Node000004_Node000005" class="edge">
<title>Node4&#45;&gt;Node5</title>
<g id="a_edge4_Node000004_Node000005"><a xlink:title=" ">
<path fill="none" stroke="#63b8ff" d="M407.88,-304.75C416.47,-304.75 425.34,-304.75 434.1,-304.75"/>
<polygon fill="#63b8ff" stroke="#63b8ff" points="434.01,-308.25 444.01,-304.75 434.01,-301.25 434.01,-308.25"/>
</a>
</g>
</g>
<!-- Node7 -->
<g id="Node000007" class="node">
<title>Node7</title>
<g id="a_Node000007"><a xlink:href="classnlohmann_1_1json__schema_1_1json__validator.html#a13e1d3029c8953bb9c7d1879382edb03" target="_top" xlink:title=" ">
<polygon fill="white" stroke="#666666" points="580.38,-402.88 445.88,-402.88 445.88,-356.62 580.38,-356.62 580.38,-402.88"/>
<text xml:space="preserve" text-anchor="start" x="453.88" y="-389.38" font-family="Helvetica,sans-Serif" font-size="10.00">nlohmann::json_schema</text>
<text xml:space="preserve" text-anchor="start" x="453.88" y="-376.62" font-family="Helvetica,sans-Serif" font-size="10.00">::json_validator::set</text>
<text xml:space="preserve" text-anchor="middle" x="513.12" y="-363.88" font-family="Helvetica,sans-Serif" font-size="10.00">_root_schema</text>
</a>
</g>
</g>
<!-- Node4&#45;&gt;Node7 -->
<g id="edge6_Node000004_Node000007" class="edge">
<title>Node4&#45;&gt;Node7</title>
<g id="a_edge6_Node000004_Node000007"><a xlink:title=" ">
<path fill="none" stroke="#63b8ff" d="M394.93,-328.27C411.86,-335.71 430.73,-344 448.3,-351.71"/>
<polygon fill="#63b8ff" stroke="#63b8ff" points="446.51,-354.75 457.08,-355.57 449.33,-348.35 446.51,-354.75"/>
</a>
</g>
</g>
<!-- Node6 -->
<g id="Node000006" class="node">
<title>Node6</title>
<g id="a_Node000006"><a xlink:href="classnlohmann_1_1json__schema_1_1root__schema.html#a704eaa54aca1f78a311687562421829f" target="_top" xlink:title=" ">
<polygon fill="white" stroke="#666666" points="771.5,-321.5 617.5,-321.5 617.5,-288 771.5,-288 771.5,-321.5"/>
<text xml:space="preserve" text-anchor="start" x="625.5" y="-308" font-family="Helvetica,sans-Serif" font-size="10.00">nlohmann::json_schema</text>
<text xml:space="preserve" text-anchor="middle" x="694.5" y="-295.25" font-family="Helvetica,sans-Serif" font-size="10.00">::root_schema::root_schema</text>
</a>
</g>
</g>
<!-- Node5&#45;&gt;Node6 -->
<g id="edge5_Node000005_Node000006" class="edge">
<title>Node5&#45;&gt;Node6</title>
<g id="a_edge5_Node000005_Node000006"><a xlink:title=" ">
<path fill="none" stroke="#63b8ff" d="M580.66,-304.75C588.82,-304.75 597.25,-304.75 605.66,-304.75"/>
<polygon fill="#63b8ff" stroke="#63b8ff" points="605.57,-308.25 615.57,-304.75 605.57,-301.25 605.57,-308.25"/>
</a>
</g>
</g>
<!-- Node8 -->
<g id="Node000008" class="node">
<title>Node8</title>
<g id="a_Node000008"><a xlink:href="classnlohmann_1_1json__schema_1_1root__schema.html#aa92bf9509db49548416a244fb4528e3c" target="_top" xlink:title=" ">
<polygon fill="white" stroke="#666666" points="761.75,-408.88 627.25,-408.88 627.25,-362.62 761.75,-362.62 761.75,-408.88"/>
<text xml:space="preserve" text-anchor="start" x="635.25" y="-395.38" font-family="Helvetica,sans-Serif" font-size="10.00">nlohmann::json_schema</text>
<text xml:space="preserve" text-anchor="start" x="635.25" y="-382.62" font-family="Helvetica,sans-Serif" font-size="10.00">::root_schema::set_root</text>
<text xml:space="preserve" text-anchor="middle" x="694.5" y="-369.88" font-family="Helvetica,sans-Serif" font-size="10.00">_schema</text>
</a>
</g>
</g>
<!-- Node7&#45;&gt;Node8 -->
<g id="edge7_Node000007_Node000008" class="edge">
<title>Node7&#45;&gt;Node8</title>
<g id="a_edge7_Node000007_Node000008"><a xlink:title=" ">
<path fill="none" stroke="#63b8ff" d="M580.66,-381.98C591.95,-382.35 603.77,-382.75 615.33,-383.14"/>
<polygon fill="#63b8ff" stroke="#63b8ff" points="615.15,-386.63 625.26,-383.47 615.38,-379.63 615.15,-386.63"/>
</a>
</g>
</g>
<!-- Node9 -->
<g id="Node000009" class="node">
<title>Node9</title>
<g id="a_Node000009"><a xlink:href="classanonymous__namespace_02json-validator_8cpp_03_1_1schema.html#aafee860997369c77204d5b1a7d095c3f" target="_top" xlink:title=" ">
<polygon fill="white" stroke="#666666" points="942,-411.88 807.5,-411.88 807.5,-365.62 942,-365.62 942,-411.88"/>
<text xml:space="preserve" text-anchor="start" x="815.5" y="-398.38" font-family="Helvetica,sans-Serif" font-size="10.00">anonymous_namespace</text>
<text xml:space="preserve" text-anchor="start" x="815.5" y="-385.62" font-family="Helvetica,sans-Serif" font-size="10.00">{json&#45;validator::cpp}</text>
<text xml:space="preserve" text-anchor="middle" x="874.75" y="-372.88" font-family="Helvetica,sans-Serif" font-size="10.00">::schema::make</text>
</a>
</g>
</g>
<!-- Node8&#45;&gt;Node9 -->
<g id="edge8_Node000008_Node000009" class="edge">
<title>Node8&#45;&gt;Node9</title>
<g id="a_edge8_Node000008_Node000009"><a xlink:title=" ">
<path fill="none" stroke="#63b8ff" d="M762.13,-386.87C773.18,-387.06 784.72,-387.25 796.02,-387.44"/>
<polygon fill="#63b8ff" stroke="#63b8ff" points="795.63,-390.94 805.69,-387.6 795.75,-383.94 795.63,-390.94"/>
</a>
</g>
</g>
<!-- Node9&#45;&gt;Node9 -->
<g id="edge33_Node000009_Node000009" class="edge">
<title>Node9&#45;&gt;Node9</title>
<g id="a_edge33_Node000009_Node000009"><a xlink:title=" ">
<path fill="none" stroke="#63b8ff" d="M841.25,-412C838.94,-421.68 850.11,-429.88 874.75,-429.88 889.38,-429.88 899.26,-426.98 904.39,-422.61"/>
<polygon fill="#63b8ff" stroke="#63b8ff" points="907.61,-424.02 907.73,-413.42 901.03,-421.63 907.61,-424.02"/>
</a>
</g>
</g>
<!-- Node10 -->
<g id="Node000010" class="node">
<title>Node10</title>
<g id="a_Node000010"><a xlink:href="classnlohmann_1_1json__uri.html#acef9db8f1ac5317e1f124453d9587938" target="_top" xlink:title=" ">
<polygon fill="white" stroke="#666666" points="1292.75,-585.5 1183.75,-585.5 1183.75,-552 1292.75,-552 1292.75,-585.5"/>
<text xml:space="preserve" text-anchor="start" x="1191.75" y="-572" font-family="Helvetica,sans-Serif" font-size="10.00">nlohmann::json_uri</text>
<text xml:space="preserve" text-anchor="middle" x="1238.25" y="-559.25" font-family="Helvetica,sans-Serif" font-size="10.00">::append</text>
</a>
</g>
</g>
<!-- Node9&#45;&gt;Node10 -->
<g id="edge9_Node000009_Node000010" class="edge">
<title>Node9&#45;&gt;Node10</title>
<g id="a_edge9_Node000009_Node000010"><a xlink:title=" ">
<path fill="none" stroke="#63b8ff" d="M887.37,-412.22C903.43,-442.03 935.34,-492.75 978,-518.75 1037.1,-554.78 1116.69,-565.7 1172.02,-568.6"/>
<polygon fill="#63b8ff" stroke="#63b8ff" points="1171.79,-572.09 1181.94,-569.03 1172.1,-565.1 1171.79,-572.09"/>
</a>
</g>
</g>
<!-- Node11 -->
<g id="Node000011" class="node">
<title>Node11</title>
<g id="a_Node000011"><a xlink:href="classnlohmann_1_1json__uri.html#ab601a9e32d487e9484f12c57ec1befc1" target="_top" xlink:title=" ">
<polygon fill="white" stroke="#666666" points="1111,-630.5 1002,-630.5 1002,-597 1111,-597 1111,-630.5"/>
<text xml:space="preserve" text-anchor="start" x="1010" y="-617" font-family="Helvetica,sans-Serif" font-size="10.00">nlohmann::json_uri</text>
<text xml:space="preserve" text-anchor="middle" x="1056.5" y="-604.25" font-family="Helvetica,sans-Serif" font-size="10.00">::derive</text>
</a>
</g>
</g>
<!-- Node9&#45;&gt;Node11 -->
<g id="edge10_Node000009_Node000011" class="edge">
<title>Node9&#45;&gt;Node11</title>
<g id="a_edge10_Node000009_Node000011"><a xlink:title=" ">
<path fill="none" stroke="#63b8ff" d="M884.22,-412.19C898.62,-449.41 930.97,-522.61 978,-569.75 986.11,-577.88 996.04,-585 1006.05,-591"/>
<polygon fill="#63b8ff" stroke="#63b8ff" points="1004.27,-594.02 1014.7,-595.89 1007.71,-587.92 1004.27,-594.02"/>
</a>
</g>
</g>
<!-- Node13 -->
<g id="Node000013" class="node">
<title>Node13</title>
<g id="a_Node000013"><a xlink:href="classnlohmann_1_1json__schema_1_1root__schema.html#a7e890c03f941280b76fbdb4d5bb73065" target="_top" xlink:title=" ">
<polygon fill="white" stroke="#666666" points="1123.75,-411.88 989.25,-411.88 989.25,-365.62 1123.75,-365.62 1123.75,-411.88"/>
<text xml:space="preserve" text-anchor="start" x="997.25" y="-398.38" font-family="Helvetica,sans-Serif" font-size="10.00">nlohmann::json_schema</text>
<text xml:space="preserve" text-anchor="start" x="997.25" y="-385.62" font-family="Helvetica,sans-Serif" font-size="10.00">::root_schema::get_or</text>
<text xml:space="preserve" text-anchor="middle" x="1056.5" y="-372.88" font-family="Helvetica,sans-Serif" font-size="10.00">_create_ref</text>
</a>
</g>
</g>
<!-- Node9&#45;&gt;Node13 -->
<g id="edge12_Node000009_Node000013" class="edge">
<title>Node9&#45;&gt;Node13</title>
<g id="a_edge12_Node000009_Node000013"><a xlink:title=" ">
<path fill="none" stroke="#63b8ff" d="M942.43,-382.2C953.94,-382 965.99,-381.95 977.76,-382.05"/>
<polygon fill="#63b8ff" stroke="#63b8ff" points="977.37,-385.55 987.42,-382.19 977.47,-378.55 977.37,-385.55"/>
</a>
</g>
</g>
<!-- Node18 -->
<g id="Node000018" class="node">
<title>Node18</title>
<g id="a_Node000018"><a xlink:href="classnlohmann_1_1json__uri.html#a416eb06b53676b215761f43200da309f" target="_top" xlink:title=" ">
<polygon fill="white" stroke="#666666" points="1292.75,-187.5 1183.75,-187.5 1183.75,-154 1292.75,-154 1292.75,-187.5"/>
<text xml:space="preserve" text-anchor="start" x="1191.75" y="-174" font-family="Helvetica,sans-Serif" font-size="10.00">nlohmann::json_uri</text>
<text xml:space="preserve" text-anchor="middle" x="1238.25" y="-161.25" font-family="Helvetica,sans-Serif" font-size="10.00">::to_string</text>
</a>
</g>
</g>
<!-- Node9&#45;&gt;Node18 -->
<g id="edge35_Node000009_Node000018" class="edge">
<title>Node9&#45;&gt;Node18</title>
<g id="a_edge35_Node000009_Node000018"><a xlink:title=" ">
<path fill="none" stroke="#63b8ff" d="M885.24,-365.13C899.97,-331.56 931.56,-270.5 978,-237.75 1035.76,-197.02 1116.34,-181.04 1172.27,-174.77"/>
<polygon fill="#63b8ff" stroke="#63b8ff" points="1172.38,-178.28 1181.96,-173.77 1171.65,-171.32 1172.38,-178.28"/>
</a>
</g>
</g>
<!-- Node19 -->
<g id="Node000019" class="node">
<title>Node19</title>
<g id="a_Node000019"><a xlink:href="classnlohmann_1_1json__schema_1_1root__schema.html#a685904131f0693e56f14a9e9db5f044e" target="_top" xlink:title=" ">
<polygon fill="white" stroke="#666666" points="1123.75,-280.5 989.25,-280.5 989.25,-247 1123.75,-247 1123.75,-280.5"/>
<text xml:space="preserve" text-anchor="start" x="997.25" y="-267" font-family="Helvetica,sans-Serif" font-size="10.00">nlohmann::json_schema</text>
<text xml:space="preserve" text-anchor="middle" x="1056.5" y="-254.25" font-family="Helvetica,sans-Serif" font-size="10.00">::root_schema::insert</text>
</a>
</g>
</g>
<!-- Node9&#45;&gt;Node19 -->
<g id="edge20_Node000009_Node000019" class="edge">
<title>Node9&#45;&gt;Node19</title>
<g id="a_edge20_Node000009_Node000019"><a xlink:title=" ">
<path fill="none" stroke="#63b8ff" d="M895.6,-365.43C914.82,-344.06 945.74,-312.8 978,-292.75 982.16,-290.16 986.59,-287.75 991.14,-285.51"/>
<polygon fill="#63b8ff" stroke="#63b8ff" points="992.23,-288.87 999.87,-281.52 989.32,-282.5 992.23,-288.87"/>
</a>
</g>
</g>
<!-- Node21 -->
<g id="Node000021" class="node">
<title>Node21</title>
<g id="a_Node000021"><a xlink:href="classnlohmann_1_1json__schema_1_1root__schema.html#a4c543fe7b89e76b3fdd17a6883696238" target="_top" xlink:title=" ">
<polygon fill="white" stroke="#666666" points="1123.75,-491.88 989.25,-491.88 989.25,-445.62 1123.75,-445.62 1123.75,-491.88"/>
<text xml:space="preserve" text-anchor="start" x="997.25" y="-478.38" font-family="Helvetica,sans-Serif" font-size="10.00">nlohmann::json_schema</text>
<text xml:space="preserve" text-anchor="start" x="997.25" y="-465.62" font-family="Helvetica,sans-Serif" font-size="10.00">::root_schema::insert</text>
<text xml:space="preserve" text-anchor="middle" x="1056.5" y="-452.88" font-family="Helvetica,sans-Serif" font-size="10.00">_unknown_keyword</text>
</a>
</g>
</g>
<!-- Node9&#45;&gt;Node21 -->
<g id="edge26_Node000009_Node000021" class="edge">
<title>Node9&#45;&gt;Node21</title>
<g id="a_edge26_Node000009_Node000021"><a xlink:title=" ">
<path fill="none" stroke="#63b8ff" d="M942.43,-411.88C963.26,-420.78 985.88,-430.99 1005.37,-440.32"/>
<polygon fill="#63b8ff" stroke="#63b8ff" points="1003.67,-443.38 1014.19,-444.59 1006.72,-437.08 1003.67,-443.38"/>
</a>
</g>
</g>
<!-- Node22 -->
<g id="Node000022" class="node">
<title>Node22</title>
<g id="a_Node000022"><a xlink:href="classanonymous__namespace_02json-validator_8cpp_03_1_1schema.html#a6ba2d224dd0a4372ac03f679de8316bd" target="_top" xlink:title=" ">
<polygon fill="white" stroke="#666666" points="1135,-347.88 978,-347.88 978,-301.62 1135,-301.62 1135,-347.88"/>
<text xml:space="preserve" text-anchor="start" x="986" y="-334.38" font-family="Helvetica,sans-Serif" font-size="10.00">anonymous_namespace</text>
<text xml:space="preserve" text-anchor="start" x="986" y="-321.62" font-family="Helvetica,sans-Serif" font-size="10.00">{json&#45;validator::cpp}</text>
<text xml:space="preserve" text-anchor="middle" x="1056.5" y="-308.88" font-family="Helvetica,sans-Serif" font-size="10.00">::schema::make_for_default_</text>
</a>
</g>
</g>
<!-- Node9&#45;&gt;Node22 -->
<g id="edge34_Node000009_Node000022" class="edge">
<title>Node9&#45;&gt;Node22</title>
<g id="a_edge34_Node000009_Node000022"><a xlink:title=" ">
<path fill="none" stroke="#63b8ff" d="M941.92,-365.19C953.84,-360.95 966.36,-356.49 978.56,-352.14"/>
<polygon fill="#63b8ff" stroke="#63b8ff" points="979.5,-355.52 987.75,-348.87 977.15,-348.93 979.5,-355.52"/>
</a>
</g>
</g>
<!-- Node12 -->
<g id="Node000012" class="node">
<title>Node12</title>
<g id="a_Node000012"><a xlink:href="classnlohmann_1_1json__uri.html#a6a73807e46532b22e02ae6602cdedcdc" target="_top" xlink:title=" ">
<polygon fill="white" stroke="#666666" points="1292.75,-637.5 1183.75,-637.5 1183.75,-604 1292.75,-604 1292.75,-637.5"/>
<text xml:space="preserve" text-anchor="start" x="1191.75" y="-624" font-family="Helvetica,sans-Serif" font-size="10.00">nlohmann::json_uri</text>
<text xml:space="preserve" text-anchor="middle" x="1238.25" y="-611.25" font-family="Helvetica,sans-Serif" font-size="10.00">::update</text>
</a>
</g>
</g>
<!-- Node11&#45;&gt;Node12 -->
<g id="edge11_Node000011_Node000012" class="edge">
<title>Node11&#45;&gt;Node12</title>
<g id="a_edge11_Node000011_Node000012"><a xlink:title=" ">
<path fill="none" stroke="#63b8ff" d="M1111.43,-615.85C1130.45,-616.59 1152.04,-617.43 1171.9,-618.2"/>
<polygon fill="#63b8ff" stroke="#63b8ff" points="1171.72,-621.7 1181.84,-618.59 1171.99,-614.71 1171.72,-621.7"/>
</a>
</g>
</g>
<!-- Node13&#45;&gt;Node9 -->
<g id="edge16_Node000013_Node000009" class="edge">
<title>Node13&#45;&gt;Node9</title>
<g id="a_edge16_Node000013_Node000009"><a xlink:title=" ">
<path fill="none" stroke="#63b8ff" d="M988.93,-395.29C977.43,-395.5 965.37,-395.55 953.6,-395.45"/>
<polygon fill="#63b8ff" stroke="#63b8ff" points="953.99,-391.95 943.94,-395.32 953.89,-398.95 953.99,-391.95"/>
</a>
</g>
</g>
<!-- Node14 -->
<g id="Node000014" class="node">
<title>Node14</title>
<g id="a_Node000014"><a xlink:href="classnlohmann_1_1json__uri.html#a21ba5d6a76804eabd867a2d03370c945" target="_top" xlink:title=" ">
<polygon fill="white" stroke="#666666" points="1292.75,-277.5 1183.75,-277.5 1183.75,-244 1292.75,-244 1292.75,-277.5"/>
<text xml:space="preserve" text-anchor="start" x="1191.75" y="-264" font-family="Helvetica,sans-Serif" font-size="10.00">nlohmann::json_uri</text>
<text xml:space="preserve" text-anchor="middle" x="1238.25" y="-251.25" font-family="Helvetica,sans-Serif" font-size="10.00">::fragment</text>
</a>
</g>
</g>
<!-- Node13&#45;&gt;Node14 -->
<g id="edge13_Node000013_Node000014" class="edge">
<title>Node13&#45;&gt;Node14</title>
<g id="a_edge13_Node000013_Node000014"><a xlink:title=" ">
<path fill="none" stroke="#63b8ff" d="M1123.8,-365.37C1127.79,-362.77 1131.57,-359.9 1135,-356.75 1160.75,-333.07 1145.04,-310.21 1171,-286.75 1172.06,-285.79 1173.15,-284.87 1174.28,-283.98"/>
<polygon fill="#63b8ff" stroke="#63b8ff" points="1175.91,-287.11 1182.25,-278.62 1172,-281.3 1175.91,-287.11"/>
</a>
</g>
</g>
<!-- Node15 -->
<g id="Node000015" class="node">
<title>Node15</title>
<g id="a_Node000015"><a xlink:href="classnlohmann_1_1json__schema_1_1root__schema.html#a4e3471b8e7c245a72c469b7695d2d327" target="_top" xlink:title=" ">
<polygon fill="white" stroke="#666666" points="1305.5,-405.88 1171,-405.88 1171,-359.62 1305.5,-359.62 1305.5,-405.88"/>
<text xml:space="preserve" text-anchor="start" x="1179" y="-392.38" font-family="Helvetica,sans-Serif" font-size="10.00">nlohmann::json_schema</text>
<text xml:space="preserve" text-anchor="start" x="1179" y="-379.62" font-family="Helvetica,sans-Serif" font-size="10.00">::root_schema::get_or</text>
<text xml:space="preserve" text-anchor="middle" x="1238.25" y="-366.88" font-family="Helvetica,sans-Serif" font-size="10.00">_create_file</text>
</a>
</g>
</g>
<!-- Node13&#45;&gt;Node15 -->
<g id="edge14_Node000013_Node000015" class="edge">
<title>Node13&#45;&gt;Node15</title>
<g id="a_edge14_Node000013_Node000015"><a xlink:title=" ">
<path fill="none" stroke="#63b8ff" d="M1124.18,-386.52C1135.69,-386.14 1147.74,-385.74 1159.51,-385.34"/>
<polygon fill="#63b8ff" stroke="#63b8ff" points="1159.29,-388.85 1169.17,-385.02 1159.06,-381.86 1159.29,-388.85"/>
</a>
</g>
</g>
<!-- Node16 -->
<g id="Node000016" class="node">
<title>Node16</title>
<g id="a_Node000016"><a xlink:href="classnlohmann_1_1json__uri.html#a63674f908919cb2496e772e864be35de" target="_top" xlink:title=" ">
<polygon fill="white" stroke="#666666" points="1450.5,-232.5 1341.5,-232.5 1341.5,-199 1450.5,-199 1450.5,-232.5"/>
<text xml:space="preserve" text-anchor="start" x="1349.5" y="-219" font-family="Helvetica,sans-Serif" font-size="10.00">nlohmann::json_uri</text>
<text xml:space="preserve" text-anchor="middle" x="1396" y="-206.25" font-family="Helvetica,sans-Serif" font-size="10.00">::location</text>
</a>
</g>
</g>
<!-- Node13&#45;&gt;Node16 -->
<g id="edge15_Node000013_Node000016" class="edge">
<title>Node13&#45;&gt;Node16</title>
<g id="a_edge15_Node000013_Node000016"><a xlink:title=" ">
<path fill="none" stroke="#63b8ff" d="M1109.93,-412.28C1163.46,-432.43 1246.79,-452.72 1305.5,-414.75 1364.5,-376.59 1384.99,-289.25 1391.8,-244.04"/>
<polygon fill="#63b8ff" stroke="#63b8ff" points="1395.25,-244.61 1393.14,-234.23 1388.32,-243.67 1395.25,-244.61"/>
</a>
</g>
</g>
<!-- Node17 -->
<g id="Node000017" class="node">
<title>Node17</title>
<g id="a_Node000017"><a xlink:href="classnlohmann_1_1json__uri.html#ab01bdcb8bf65ee07703d1ccb69c9f3ee" target="_top" xlink:title=" ">
<polygon fill="white" stroke="#666666" points="1292.75,-495.5 1183.75,-495.5 1183.75,-462 1292.75,-462 1292.75,-495.5"/>
<text xml:space="preserve" text-anchor="start" x="1191.75" y="-482" font-family="Helvetica,sans-Serif" font-size="10.00">nlohmann::json_uri</text>
<text xml:space="preserve" text-anchor="middle" x="1238.25" y="-469.25" font-family="Helvetica,sans-Serif" font-size="10.00">::pointer</text>
</a>
</g>
</g>
<!-- Node13&#45;&gt;Node17 -->
<g id="edge17_Node000013_Node000017" class="edge">
<title>Node13&#45;&gt;Node17</title>
<g id="a_edge17_Node000013_Node000017"><a xlink:title=" ">
<path fill="none" stroke="#63b8ff" d="M1101.75,-412.3C1122.65,-423.28 1148,-436.4 1171,-447.75 1177.13,-450.77 1183.61,-453.9 1190.02,-456.94"/>
<polygon fill="#63b8ff" stroke="#63b8ff" points="1188.07,-459.9 1198.61,-461 1191.06,-453.56 1188.07,-459.9"/>
</a>
</g>
</g>
<!-- Node13&#45;&gt;Node18 -->
<g id="edge18_Node000013_Node000018" class="edge">
<title>Node13&#45;&gt;Node18</title>
<g id="a_edge18_Node000013_Node000018"><a xlink:title=" ">
<path fill="none" stroke="#63b8ff" d="M1124.15,-366.33C1128.11,-363.5 1131.79,-360.32 1135,-356.75 1172.83,-314.74 1141.7,-283.1 1171,-234.75 1180,-219.89 1193.3,-206.12 1205.61,-195.19"/>
<polygon fill="#63b8ff" stroke="#63b8ff" points="1207.85,-197.88 1213.19,-188.73 1203.3,-192.56 1207.85,-197.88"/>
</a>
</g>
</g>
<!-- Node18&#45;&gt;Node16 -->
<g id="edge19_Node000018_Node000016" class="edge">
<title>Node18&#45;&gt;Node16</title>
<g id="a_edge19_Node000018_Node000016"><a xlink:title=" ">
<path fill="none" stroke="#63b8ff" d="M1292.85,-186.24C1304.9,-189.72 1317.8,-193.45 1330.25,-197.04"/>
<polygon fill="#63b8ff" stroke="#63b8ff" points="1329,-200.33 1339.58,-199.74 1330.95,-193.6 1329,-200.33"/>
</a>
</g>
</g>
<!-- Node19&#45;&gt;Node14 -->
<g id="edge21_Node000019_Node000014" class="edge">
<title>Node19&#45;&gt;Node14</title>
<g id="a_edge21_Node000019_Node000014"><a xlink:title=" ">
<path fill="none" stroke="#63b8ff" d="M1124.18,-262.64C1139.85,-262.38 1156.54,-262.1 1172.15,-261.84"/>
<polygon fill="#63b8ff" stroke="#63b8ff" points="1171.84,-265.34 1181.78,-261.68 1171.72,-258.34 1171.84,-265.34"/>
</a>
</g>
</g>
<!-- Node19&#45;&gt;Node15 -->
<g id="edge22_Node000019_Node000015" class="edge">
<title>Node19&#45;&gt;Node15</title>
<g id="a_edge22_Node000019_Node000015"><a xlink:title=" ">
<path fill="none" stroke="#63b8ff" d="M1116.1,-280.82C1122.85,-284.16 1129.33,-288.11 1135,-292.75 1158.46,-311.98 1148.45,-330.46 1171,-350.75 1171.64,-351.33 1172.29,-351.9 1172.96,-352.46"/>
<polygon fill="#63b8ff" stroke="#63b8ff" points="1170.81,-355.22 1180.92,-358.38 1174.99,-349.6 1170.81,-355.22"/>
</a>
</g>
</g>
<!-- Node19&#45;&gt;Node16 -->
<g id="edge23_Node000019_Node000016" class="edge">
<title>Node19&#45;&gt;Node16</title>
<g id="a_edge23_Node000019_Node000016"><a xlink:title=" ">
<path fill="none" stroke="#63b8ff" d="M1117.19,-246.53C1134.43,-242.09 1153.35,-237.73 1171,-234.75 1224.1,-225.78 1285.04,-220.96 1329.94,-218.42"/>
<polygon fill="#63b8ff" stroke="#63b8ff" points="1329.97,-221.92 1339.77,-217.89 1329.6,-214.93 1329.97,-221.92"/>
</a>
</g>
</g>
<!-- Node19&#45;&gt;Node18 -->
<g id="edge25_Node000019_Node000018" class="edge">
<title>Node19&#45;&gt;Node18</title>
<g id="a_edge25_Node000019_Node000018"><a xlink:title=" ">
<path fill="none" stroke="#63b8ff" d="M1087.58,-246.65C1110.3,-233.9 1142.36,-216.26 1171,-201.75 1176.88,-198.77 1183.1,-195.73 1189.27,-192.77"/>
<polygon fill="#63b8ff" stroke="#63b8ff" points="1190.66,-195.98 1198.2,-188.54 1187.66,-189.66 1190.66,-195.98"/>
</a>
</g>
</g>
<!-- Node20 -->
<g id="Node000020" class="node">
<title>Node20</title>
<g id="a_Node000020"><a xlink:href="classanonymous__namespace_02json-validator_8cpp_03_1_1schema__ref.html#ae191a0c47357ebad5942fbab77135375" target="_top" xlink:title=" ">
<polygon fill="white" stroke="#666666" points="1305.5,-341.88 1171,-341.88 1171,-295.62 1305.5,-295.62 1305.5,-341.88"/>
<text xml:space="preserve" text-anchor="start" x="1179" y="-328.38" font-family="Helvetica,sans-Serif" font-size="10.00">anonymous_namespace</text>
<text xml:space="preserve" text-anchor="start" x="1179" y="-315.62" font-family="Helvetica,sans-Serif" font-size="10.00">{json&#45;validator::cpp}</text>
<text xml:space="preserve" text-anchor="middle" x="1238.25" y="-302.88" font-family="Helvetica,sans-Serif" font-size="10.00">::schema_ref::set_target</text>
</a>
</g>
</g>
<!-- Node19&#45;&gt;Node20 -->
<g id="edge24_Node000019_Node000020" class="edge">
<title>Node19&#45;&gt;Node20</title>
<g id="a_edge24_Node000019_Node000020"><a xlink:title=" ">
<path fill="none" stroke="#63b8ff" d="M1113.39,-280.85C1128.13,-285.36 1144.29,-290.31 1159.94,-295.1"/>
<polygon fill="#63b8ff" stroke="#63b8ff" points="1158.64,-298.36 1169.22,-297.93 1160.68,-291.66 1158.64,-298.36"/>
</a>
</g>
</g>
<!-- Node21&#45;&gt;Node9 -->
<g id="edge31_Node000021_Node000009" class="edge">
<title>Node21&#45;&gt;Node9</title>
<g id="a_edge31_Node000021_Node000009"><a xlink:title=" ">
<path fill="none" stroke="#63b8ff" d="M988.89,-445.65C968.02,-436.74 945.36,-426.51 925.84,-417.17"/>
<polygon fill="#63b8ff" stroke="#63b8ff" points="927.53,-414.1 917,-412.88 924.48,-420.4 927.53,-414.1"/>
</a>
</g>
</g>
<!-- Node21&#45;&gt;Node10 -->
<g id="edge27_Node000021_Node000010" class="edge">
<title>Node21&#45;&gt;Node10</title>
<g id="a_edge27_Node000021_Node000010"><a xlink:title=" ">
<path fill="none" stroke="#63b8ff" d="M1093.97,-492.31C1115.94,-506.15 1144.68,-523.64 1171,-537.75 1176.66,-540.79 1182.68,-543.83 1188.68,-546.77"/>
<polygon fill="#63b8ff" stroke="#63b8ff" points="1186.82,-549.76 1197.35,-550.93 1189.85,-543.44 1186.82,-549.76"/>
</a>
</g>
</g>
<!-- Node21&#45;&gt;Node15 -->
<g id="edge28_Node000021_Node000015" class="edge">
<title>Node21&#45;&gt;Node15</title>
<g id="a_edge28_Node000021_Node000015"><a xlink:title=" ">
<path fill="none" stroke="#63b8ff" d="M1106.62,-445.25C1128.52,-434.77 1154.52,-422.33 1177.54,-411.32"/>
<polygon fill="#63b8ff" stroke="#63b8ff" points="1179,-414.5 1186.51,-407.02 1175.98,-408.18 1179,-414.5"/>
</a>
</g>
</g>
<!-- Node21&#45;&gt;Node16 -->
<g id="edge30_Node000021_Node000016" class="edge">
<title>Node21&#45;&gt;Node16</title>
<g id="a_edge30_Node000021_Node000016"><a xlink:title=" ">
<path fill="none" stroke="#63b8ff" d="M1100.63,-492.18C1154.02,-517.64 1245.27,-549.15 1305.5,-504.75 1348.39,-473.14 1379.51,-310.13 1390.58,-243.84"/>
<polygon fill="#63b8ff" stroke="#63b8ff" points="1394,-244.57 1392.16,-234.13 1387.1,-243.44 1394,-244.57"/>
</a>
</g>
</g>
<!-- Node21&#45;&gt;Node17 -->
<g id="edge32_Node000021_Node000017" class="edge">
<title>Node21&#45;&gt;Node17</title>
<g id="a_edge32_Node000021_Node000017"><a xlink:title=" ">
<path fill="none" stroke="#63b8ff" d="M1124.18,-472.46C1139.85,-473.33 1156.54,-474.26 1172.15,-475.13"/>
<polygon fill="#63b8ff" stroke="#63b8ff" points="1171.6,-478.6 1181.78,-475.66 1171.99,-471.61 1171.6,-478.6"/>
</a>
</g>
</g>
<!-- Node21&#45;&gt;Node21 -->
<g id="edge29_Node000021_Node000021" class="edge">
<title>Node21&#45;&gt;Node21</title>
<g id="a_edge29_Node000021_Node000021"><a xlink:title=" ">
<path fill="none" stroke="#63b8ff" d="M1022.72,-492C1020.39,-501.68 1031.65,-509.88 1056.5,-509.88 1071.25,-509.88 1081.22,-506.98 1086.39,-502.61"/>
<polygon fill="#63b8ff" stroke="#63b8ff" points="1089.6,-504.02 1089.76,-493.42 1083.03,-501.61 1089.6,-504.02"/>
</a>
</g>
</g>
<!-- Node24 -->
<g id="Node000024" class="node">
<title>Node24</title>
<g id="a_Node000024"><a xlink:href="classnlohmann_1_1json__schema_1_1json__validator.html#ae330a21f43f257fec1d8109f51827706" target="_top" xlink:title=" ">
<polygon fill="white" stroke="#666666" points="581.5,-240.5 444.75,-240.5 444.75,-207 581.5,-207 581.5,-240.5"/>
<text xml:space="preserve" text-anchor="start" x="452.75" y="-227" font-family="Helvetica,sans-Serif" font-size="10.00">nlohmann::json_schema</text>
<text xml:space="preserve" text-anchor="middle" x="513.12" y="-214.25" font-family="Helvetica,sans-Serif" font-size="10.00">::json_validator::validate</text>
</a>
</g>
</g>
<!-- Node23&#45;&gt;Node24 -->
<g id="edge37_Node000023_Node000024" class="edge">
<title>Node23&#45;&gt;Node24</title>
<g id="a_edge37_Node000023_Node000024"><a xlink:title=" ">
<path fill="none" stroke="#63b8ff" d="M408.86,-237.66C416.78,-236.59 424.91,-235.5 432.98,-234.41"/>
<polygon fill="#63b8ff" stroke="#63b8ff" points="433.35,-237.89 442.79,-233.09 432.41,-230.96 433.35,-237.89"/>
</a>
</g>
</g>
<!-- Node25 -->
<g id="Node000025" class="node">
<title>Node25</title>
<g id="a_Node000025"><a xlink:href="classnlohmann_1_1json__schema_1_1root__schema.html#a32f6012c2d81f29ca16e4409dd2b5ea3" target="_top" xlink:title=" ">
<polygon fill="white" stroke="#666666" points="1123.75,-164.5 989.25,-164.5 989.25,-131 1123.75,-131 1123.75,-164.5"/>
<text xml:space="preserve" text-anchor="start" x="997.25" y="-151" font-family="Helvetica,sans-Serif" font-size="10.00">nlohmann::json_schema</text>
<text xml:space="preserve" text-anchor="middle" x="1056.5" y="-138.25" font-family="Helvetica,sans-Serif" font-size="10.00">::root_schema::validate</text>
</a>
</g>
</g>
<!-- Node24&#45;&gt;Node25 -->
<g id="edge38_Node000024_Node000025" class="edge">
<title>Node24&#45;&gt;Node25</title>
<g id="a_edge38_Node000024_Node000025"><a xlink:title=" ">
<path fill="none" stroke="#63b8ff" d="M581.87,-214.24C682.61,-200.1 871.4,-173.59 977.68,-158.68"/>
<polygon fill="#63b8ff" stroke="#63b8ff" points="978.04,-162.16 987.46,-157.3 977.07,-155.23 978.04,-162.16"/>
</a>
</g>
</g>
<!-- Node25&#45;&gt;Node14 -->
<g id="edge40_Node000025_Node000014" class="edge">
<title>Node25&#45;&gt;Node14</title>
<g id="a_edge40_Node000025_Node000014"><a xlink:title=" ">
<path fill="none" stroke="#63b8ff" d="M1084.8,-164.91C1115.64,-184.3 1165.99,-215.95 1200.32,-237.54"/>
<polygon fill="#63b8ff" stroke="#63b8ff" points="1198.38,-240.45 1208.71,-242.81 1202.1,-234.52 1198.38,-240.45"/>
</a>
</g>
</g>
<!-- Node25&#45;&gt;Node16 -->
<g id="edge41_Node000025_Node000016" class="edge">
<title>Node25&#45;&gt;Node16</title>
<g id="a_edge41_Node000025_Node000016"><a xlink:title=" ">
<path fill="none" stroke="#63b8ff" d="M1124.22,-134.89C1175.3,-127.87 1246.75,-124.28 1305.5,-144.75 1331.5,-153.81 1355.61,-173.92 1372.25,-190.43"/>
<polygon fill="#63b8ff" stroke="#63b8ff" points="1369.7,-192.83 1379.18,-197.57 1374.73,-187.96 1369.7,-192.83"/>
</a>
</g>
</g>
<!-- Node25&#45;&gt;Node18 -->
<g id="edge42_Node000025_Node000018" class="edge">
<title>Node25&#45;&gt;Node18</title>
<g id="a_edge42_Node000025_Node000018"><a xlink:title=" ">
<path fill="none" stroke="#63b8ff" d="M1124.18,-156.28C1139.85,-158.29 1156.54,-160.42 1172.15,-162.42"/>
<polygon fill="#63b8ff" stroke="#63b8ff" points="1171.43,-165.86 1181.79,-163.65 1172.32,-158.91 1171.43,-165.86"/>
</a>
</g>
</g>
<!-- Node26 -->
<g id="Node000026" class="node">
<title>Node26</title>
<g id="a_Node000026"><a xlink:href="classnlohmann_1_1json__schema_1_1error__handler.html#a6518c4580b8dd8063000e183f1541650" target="_top" xlink:title=" ">
<polygon fill="white" stroke="#666666" points="1305.5,-33.5 1171,-33.5 1171,0 1305.5,0 1305.5,-33.5"/>
<text xml:space="preserve" text-anchor="start" x="1179" y="-20" font-family="Helvetica,sans-Serif" font-size="10.00">nlohmann::json_schema</text>
<text xml:space="preserve" text-anchor="middle" x="1238.25" y="-7.25" font-family="Helvetica,sans-Serif" font-size="10.00">::error_handler::error</text>
</a>
</g>
</g>
<!-- Node25&#45;&gt;Node26 -->
<g id="edge39_Node000025_Node000026" class="edge">
<title>Node25&#45;&gt;Node26</title>
<g id="a_edge39_Node000025_Node000026"><a xlink:title=" ">
<path fill="none" stroke="#63b8ff" d="M1072.1,-130.75C1092.34,-108.07 1130.98,-67.86 1171,-42.75 1173,-41.49 1175.08,-40.28 1177.2,-39.11"/>
<polygon fill="#63b8ff" stroke="#63b8ff" points="1178.72,-42.26 1186.06,-34.63 1175.56,-36.02 1178.72,-42.26"/>
</a>
</g>
</g>
<!-- Node27 -->
<g id="Node000027" class="node">
<title>Node27</title>
<g id="a_Node000027"><a xlink:href="classanonymous__namespace_02json-validator_8cpp_03_1_1schema.html#a2509ace246d9dcec607e75377753a5ea" target="_top" xlink:title=" ">
<polygon fill="white" stroke="#666666" points="1305.5,-97.88 1171,-97.88 1171,-51.62 1305.5,-51.62 1305.5,-97.88"/>
<text xml:space="preserve" text-anchor="start" x="1179" y="-84.38" font-family="Helvetica,sans-Serif" font-size="10.00">anonymous_namespace</text>
<text xml:space="preserve" text-anchor="start" x="1179" y="-71.62" font-family="Helvetica,sans-Serif" font-size="10.00">{json&#45;validator::cpp}</text>
<text xml:space="preserve" text-anchor="middle" x="1238.25" y="-58.88" font-family="Helvetica,sans-Serif" font-size="10.00">::schema::validate</text>
</a>
</g>
</g>
<!-- Node25&#45;&gt;Node27 -->
<g id="edge43_Node000025_Node000027" class="edge">
<title>Node25&#45;&gt;Node27</title>
<g id="a_edge43_Node000025_Node000027"><a xlink:title=" ">
<path fill="none" stroke="#63b8ff" d="M1099.64,-130.63C1120.25,-122.27 1145.57,-111.98 1168.85,-102.53"/>
<polygon fill="#63b8ff" stroke="#63b8ff" points="1170.03,-105.83 1177.98,-98.82 1167.4,-99.34 1170.03,-105.83"/>
</a>
</g>
</g>
</g>
</svg>

<g id="navigator" transform="translate(0 0)" fill="#404254">
  <rect fill="#f2f5e9" fill-opacity="0.5" stroke="#606060" stroke-width=".5" x="0" y="0" width="60" height="60"/>
  <use id="zoomplus" xlink:href="#zoomPlus" x="17" y="9" onmousedown="handleZoom(evt,'in')"/>
  <use id="zoomminus" xlink:href="#zoomMin" x="42" y="9" onmousedown="handleZoom(evt,'out')"/>
  <use id="reset" xlink:href="#resetDef" x="30" y="36" onmousedown="handleReset()"/>
   <use id="arrowup" xlink:href="#arrowUp" x="0" y="0" onmousedown="handlePan(0,-1)"/>
  <use id="arrowright" xlink:href="#arrowRight" x="0" y="0" onmousedown="handlePan(1,0)"/>
  <use id="arrowdown" xlink:href="#arrowDown" x="0" y="0" onmousedown="handlePan(0,1)"/>
  <use id="arrowleft" xlink:href="#arrowLeft" x="0" y="0" onmousedown="handlePan(-1,0)"/>
</g>
<svg viewBox="0 0 15 15" width="100%" height="30px" preserveAspectRatio="xMaxYMin meet">
 <g id="arrow_out" transform="scale(0.3 0.3)">
  <a xlink:href="mqttbridge_8cpp_a0ddf1224851353fc92bfbff6f499fa97_cgraph_org.svg" target="_base">
   <rect id="button" ry="5" rx="5" y="6" x="6" height="38" width="38"
        fill="#f2f5e9" fill-opacity="0.5" stroke="#606060" stroke-width="1.0"/>
   <path id="arrow"
     d="M 11.500037,31.436501 C 11.940474,20.09759 22.043105,11.32322 32.158766,21.979434 L 37.068811,17.246167 C 37.068811,17.246167 37.088388,32 37.088388,32 L 22.160133,31.978069 C 22.160133,31.978069 26.997745,27.140456 26.997745,27.140456 C 18.528582,18.264221 13.291696,25.230495 11.500037,31.436501 z"
     style="fill:#404040;"/>
  </a>
 </g>
</svg>

<style type='text/css'>
<![CDATA[
[data-mouse-over-selected='false'] { opacity: 0.7; }
[data-mouse-over-selected='true']  { opacity: 1.0; }
]]>
</style>
<script type="application/ecmascript"><![CDATA[
document.addEventListener('DOMContentLoaded', (event) => {
  highlightEdges();
  highlightAdjacentNodes();
});
]]></script>
</svg>
