<?xml version="1.0" encoding="UTF-8" standalone="no"?>
<!DOCTYPE svg PUBLIC "-//W3C//DTD SVG 1.1//EN"
 "http://www.w3.org/Graphics/SVG/1.1/DTD/svg11.dtd">
<!-- Generated by graphviz version 14.1.1 (0)
 -->
<!-- Title: main Pages: 1 -->
<svg width="548pt" height="442pt"
 viewBox="0.00 0.00 548.00 442.00" xmlns="http://www.w3.org/2000/svg" xmlns:xlink="http://www.w3.org/1999/xlink">
<g id="graph0" class="graph" transform="scale(1 1) rotate(0) translate(4 437.5)">
<title>main</title>
<!-- Node1 -->
<g id="Node000001" class="node">
<title>Node1</title>
<g id="a_Node000001"><a xlink:title=" ">
<polygon fill="#999999" stroke="#666666" points="40.75,-131.12 0,-131.12 0,-110.38 40.75,-110.38 40.75,-131.12"/>
<text xml:space="preserve" text-anchor="middle" x="20.38" y="-117.62" font-family="Helvetica,sans-Serif" font-size="10.00">main</text>
</a>
</g>
</g>
<!-- Node2 -->
<g id="Node000002" class="node">
<title>Node2</title>
<g id="a_Node000002"><a xlink:href="mqttbroker_8cpp.html#a6a886a53c0261b1fa115609c34e8e607" target="_top" xlink:title=" ">
<polygon fill="white" stroke="#666666" points="140.75,-131.12 76.75,-131.12 76.75,-110.38 140.75,-110.38 140.75,-131.12"/>
<text xml:space="preserve" text-anchor="middle" x="108.75" y="-117.62" font-family="Helvetica,sans-Serif" font-size="10.00">getRouter</text>
</a>
</g>
</g>
<!-- Node1&#45;&gt;Node2 -->
<g id="edge1_Node000001_Node000002" class="edge">
<title>Node1&#45;&gt;Node2</title>
<g id="a_edge1_Node000001_Node000002"><a xlink:title=" ">
<path fill="none" stroke="#63b8ff" d="M40.97,-120.75C48.16,-120.75 56.6,-120.75 65.02,-120.75"/>
<polygon fill="#63b8ff" stroke="#63b8ff" points="64.86,-124.25 74.86,-120.75 64.86,-117.25 64.86,-124.25"/>
</a>
</g>
</g>
<!-- Node3 -->
<g id="Node000003" class="node">
<title>Node3</title>
<g id="a_Node000003"><a xlink:href="classmqtt_1_1mqttbroker_1_1lib_1_1MqttModel.html#a860c900fe750b32b6cc66111f4e20125" target="_top" xlink:title=" ">
<polygon fill="white" stroke="#666666" points="345.75,-253.5 176.75,-253.5 176.75,-220 345.75,-220 345.75,-253.5"/>
<text xml:space="preserve" text-anchor="start" x="184.75" y="-240" font-family="Helvetica,sans-Serif" font-size="10.00">mqtt::mqttbroker::lib</text>
<text xml:space="preserve" text-anchor="middle" x="261.25" y="-227.25" font-family="Helvetica,sans-Serif" font-size="10.00">::MqttModel::addEventReceiver</text>
</a>
</g>
</g>
<!-- Node2&#45;&gt;Node3 -->
<g id="edge2_Node000002_Node000003" class="edge">
<title>Node2&#45;&gt;Node3</title>
<g id="a_edge2_Node000002_Node000003"><a xlink:title=" ">
<path fill="none" stroke="#63b8ff" d="M119.6,-131.42C132.16,-144.73 154.89,-167.79 176.75,-184.75 190.11,-195.11 205.62,-205.23 219.62,-213.75"/>
<polygon fill="#63b8ff" stroke="#63b8ff" points="217.82,-216.75 228.2,-218.88 221.41,-210.74 217.82,-216.75"/>
</a>
</g>
</g>
<!-- Node10 -->
<g id="Node000010" class="node">
<title>Node10</title>
<g id="a_Node000010"><a xlink:href="mqttbroker_8cpp.html#a049b5c955e78f60110433ce59da71607" target="_top" xlink:title=" ">
<polygon fill="white" stroke="#666666" points="309.75,-176.12 212.75,-176.12 212.75,-155.38 309.75,-155.38 309.75,-176.12"/>
<text xml:space="preserve" text-anchor="middle" x="261.25" y="-162.62" font-family="Helvetica,sans-Serif" font-size="10.00">getDetailedPage</text>
</a>
</g>
</g>
<!-- Node2&#45;&gt;Node10 -->
<g id="edge9_Node000002_Node000010" class="edge">
<title>Node2&#45;&gt;Node10</title>
<g id="a_edge9_Node000002_Node000010"><a xlink:title=" ">
<path fill="none" stroke="#63b8ff" d="M134.89,-131.51C147.34,-136.58 162.67,-142.44 176.75,-146.75 184.76,-149.2 193.28,-151.49 201.71,-153.58"/>
<polygon fill="#63b8ff" stroke="#63b8ff" points="200.67,-156.93 211.21,-155.84 202.29,-150.12 200.67,-156.93"/>
</a>
</g>
</g>
<!-- Node11 -->
<g id="Node000011" class="node">
<title>Node11</title>
<g id="a_Node000011"><a xlink:href="classmqtt_1_1mqttbroker_1_1lib_1_1MqttModel.html#ab7589b5b3019346fa6c381b2dbde42bf" target="_top" xlink:title=" ">
<polygon fill="white" stroke="#666666" points="320.62,-137.5 201.88,-137.5 201.88,-104 320.62,-104 320.62,-137.5"/>
<text xml:space="preserve" text-anchor="start" x="209.88" y="-124" font-family="Helvetica,sans-Serif" font-size="10.00">mqtt::mqttbroker::lib</text>
<text xml:space="preserve" text-anchor="middle" x="261.25" y="-111.25" font-family="Helvetica,sans-Serif" font-size="10.00">::MqttModel::getMqtt</text>
</a>
</g>
</g>
<!-- Node2&#45;&gt;Node11 -->
<g id="edge10_Node000002_Node000011" class="edge">
<title>Node2&#45;&gt;Node11</title>
<g id="a_edge10_Node000002_Node000011"><a xlink:title=" ">
<path fill="none" stroke="#63b8ff" d="M140.93,-120.75C155.27,-120.75 172.9,-120.75 190.17,-120.75"/>
<polygon fill="#63b8ff" stroke="#63b8ff" points="189.91,-124.25 199.91,-120.75 189.91,-117.25 189.91,-124.25"/>
</a>
</g>
</g>
<!-- Node12 -->
<g id="Node000012" class="node">
<title>Node12</title>
<g id="a_Node000012"><a xlink:href="mqttbroker_8cpp.html#ad9d315824898337732fd1b67f05846c9" target="_top" xlink:title=" ">
<polygon fill="white" stroke="#666666" points="312.38,-82.12 210.12,-82.12 210.12,-61.38 312.38,-61.38 312.38,-82.12"/>
<text xml:space="preserve" text-anchor="middle" x="261.25" y="-68.62" font-family="Helvetica,sans-Serif" font-size="10.00">getOverviewPage</text>
</a>
</g>
</g>
<!-- Node2&#45;&gt;Node12 -->
<g id="edge12_Node000002_Node000012" class="edge">
<title>Node2&#45;&gt;Node12</title>
<g id="a_edge12_Node000002_Node000012"><a xlink:title=" ">
<path fill="none" stroke="#63b8ff" d="M135.94,-109.88C148.22,-104.96 163.13,-99.26 176.75,-94.75 186.29,-91.59 196.54,-88.52 206.48,-85.69"/>
<polygon fill="#63b8ff" stroke="#63b8ff" points="207.37,-89.08 216.06,-83.03 205.49,-82.34 207.37,-89.08"/>
</a>
</g>
</g>
<!-- Node15 -->
<g id="Node000015" class="node">
<title>Node15</title>
<g id="a_Node000015"><a xlink:href="classmqtt_1_1mqttbroker_1_1lib_1_1MqttModel.html#a472d48d30d9626c722b64ddce4002e5f" target="_top" xlink:title=" ">
<polygon fill="white" stroke="#666666" points="322.12,-43.5 200.38,-43.5 200.38,-10 322.12,-10 322.12,-43.5"/>
<text xml:space="preserve" text-anchor="start" x="208.38" y="-30" font-family="Helvetica,sans-Serif" font-size="10.00">mqtt::mqttbroker::lib</text>
<text xml:space="preserve" text-anchor="middle" x="261.25" y="-17.25" font-family="Helvetica,sans-Serif" font-size="10.00">::MqttModel::instance</text>
</a>
</g>
</g>
<!-- Node2&#45;&gt;Node15 -->
<g id="edge15_Node000002_Node000015" class="edge">
<title>Node2&#45;&gt;Node15</title>
<g id="a_edge15_Node000002_Node000015"><a xlink:title=" ">
<path fill="none" stroke="#63b8ff" d="M117.6,-109.93C129.01,-94.98 151.56,-68.1 176.75,-52.75 180.95,-50.19 185.42,-47.87 190.03,-45.75"/>
<polygon fill="#63b8ff" stroke="#63b8ff" points="191.01,-49.13 198.89,-42.04 188.31,-42.68 191.01,-49.13"/>
</a>
</g>
</g>
<!-- Node4 -->
<g id="Node000004" class="node">
<title>Node4</title>
<g id="a_Node000004"><a xlink:href="classmqtt_1_1mqttbroker_1_1lib_1_1MqttModel_1_1MqttModelEntry.html#acb76370fc32ae314bd522c270327c6b1" target="_top" xlink:title=" ">
<polygon fill="white" stroke="#666666" points="540.25,-149.88 381.75,-149.88 381.75,-103.62 540.25,-103.62 540.25,-149.88"/>
<text xml:space="preserve" text-anchor="start" x="389.75" y="-136.38" font-family="Helvetica,sans-Serif" font-size="10.00">mqtt::mqttbroker::lib</text>
<text xml:space="preserve" text-anchor="start" x="389.75" y="-123.62" font-family="Helvetica,sans-Serif" font-size="10.00">::MqttModel::MqttModelEntry</text>
<text xml:space="preserve" text-anchor="middle" x="461" y="-110.88" font-family="Helvetica,sans-Serif" font-size="10.00">::getMqtt</text>
</a>
</g>
</g>
<!-- Node3&#45;&gt;Node4 -->
<g id="edge3_Node000003_Node000004" class="edge">
<title>Node3&#45;&gt;Node4</title>
<g id="a_edge3_Node000003_Node000004"><a xlink:title=" ">
<path fill="none" stroke="#63b8ff" d="M290.77,-219.65C307.05,-209.73 327.74,-196.84 345.75,-184.75 362.14,-173.75 364.49,-168.33 381.75,-158.75 383.81,-157.61 385.91,-156.49 388.05,-155.38"/>
<polygon fill="#63b8ff" stroke="#63b8ff" points="389.47,-158.58 396.9,-151.04 386.38,-152.3 389.47,-158.58"/>
</a>
</g>
</g>
<!-- Node5 -->
<g id="Node000005" class="node">
<title>Node5</title>
<g id="a_Node000005"><a xlink:href="namespacemqtt_1_1mqttbroker_1_1lib.html#a02d5d1cde3771e3752ad77b18c0e2095" target="_top" xlink:title=" ">
<polygon fill="white" stroke="#666666" points="519.62,-433.5 402.38,-433.5 402.38,-400 519.62,-400 519.62,-433.5"/>
<text xml:space="preserve" text-anchor="start" x="410.38" y="-420" font-family="Helvetica,sans-Serif" font-size="10.00">mqtt::mqttbroker::lib</text>
<text xml:space="preserve" text-anchor="middle" x="461" y="-407.25" font-family="Helvetica,sans-Serif" font-size="10.00">::href</text>
</a>
</g>
</g>
<!-- Node3&#45;&gt;Node5 -->
<g id="edge4_Node000003_Node000005" class="edge">
<title>Node3&#45;&gt;Node5</title>
<g id="a_edge4_Node000003_Node000005"><a xlink:title=" ">
<path fill="none" stroke="#63b8ff" d="M270.98,-253.78C288.01,-285.36 328.71,-353.22 381.75,-390.75 384.94,-393.01 388.35,-395.08 391.88,-396.98"/>
<polygon fill="#63b8ff" stroke="#63b8ff" points="390.21,-400.07 400.74,-401.24 393.24,-393.76 390.21,-400.07"/>
</a>
</g>
</g>
<!-- Node6 -->
<g id="Node000006" class="node">
<title>Node6</title>
<g id="a_Node000006"><a xlink:href="classmqtt_1_1mqttbroker_1_1lib_1_1MqttModel_1_1MqttModelEntry.html#ad5176b21cbb0e6fbcbf06adbbd8e0ef5" target="_top" xlink:title=" ">
<polygon fill="white" stroke="#666666" points="540.25,-381.88 381.75,-381.88 381.75,-335.62 540.25,-335.62 540.25,-381.88"/>
<text xml:space="preserve" text-anchor="start" x="389.75" y="-368.38" font-family="Helvetica,sans-Serif" font-size="10.00">mqtt::mqttbroker::lib</text>
<text xml:space="preserve" text-anchor="start" x="389.75" y="-355.62" font-family="Helvetica,sans-Serif" font-size="10.00">::MqttModel::MqttModelEntry</text>
<text xml:space="preserve" text-anchor="middle" x="461" y="-342.88" font-family="Helvetica,sans-Serif" font-size="10.00">::onlineDuration</text>
</a>
</g>
</g>
<!-- Node3&#45;&gt;Node6 -->
<g id="edge5_Node000003_Node000006" class="edge">
<title>Node3&#45;&gt;Node6</title>
<g id="a_edge5_Node000003_Node000006"><a xlink:title=" ">
<path fill="none" stroke="#63b8ff" d="M281.46,-253.7C304.21,-273.17 343.82,-305.19 381.75,-326.75 383.79,-327.91 385.89,-329.05 388.02,-330.17"/>
<polygon fill="#63b8ff" stroke="#63b8ff" points="386.33,-333.24 396.84,-334.57 389.45,-326.98 386.33,-333.24"/>
</a>
</g>
</g>
<!-- Node7 -->
<g id="Node000007" class="node">
<title>Node7</title>
<g id="a_Node000007"><a xlink:href="classmqtt_1_1mqttbroker_1_1lib_1_1MqttModel_1_1MqttModelEntry.html#aa1e16191c7815af56c3986dd7eaf0394" target="_top" xlink:title=" ">
<polygon fill="white" stroke="#666666" points="540.25,-317.88 381.75,-317.88 381.75,-271.62 540.25,-271.62 540.25,-317.88"/>
<text xml:space="preserve" text-anchor="start" x="389.75" y="-304.38" font-family="Helvetica,sans-Serif" font-size="10.00">mqtt::mqttbroker::lib</text>
<text xml:space="preserve" text-anchor="start" x="389.75" y="-291.62" font-family="Helvetica,sans-Serif" font-size="10.00">::MqttModel::MqttModelEntry</text>
<text xml:space="preserve" text-anchor="middle" x="461" y="-278.88" font-family="Helvetica,sans-Serif" font-size="10.00">::onlineSince</text>
</a>
</g>
</g>
<!-- Node3&#45;&gt;Node7 -->
<g id="edge6_Node000003_Node000007" class="edge">
<title>Node3&#45;&gt;Node7</title>
<g id="a_edge6_Node000003_Node000007"><a xlink:title=" ">
<path fill="none" stroke="#63b8ff" d="M321.05,-253.99C336.55,-258.54 353.63,-263.55 370.36,-268.46"/>
<polygon fill="#63b8ff" stroke="#63b8ff" points="369.25,-271.78 379.83,-271.24 371.22,-265.06 369.25,-271.78"/>
</a>
</g>
</g>
<!-- Node8 -->
<g id="Node000008" class="node">
<title>Node8</title>
<g id="a_Node000008"><a xlink:href="classmqtt_1_1mqttbroker_1_1lib_1_1MqttModel.html#a07170b2273f528a0498479600ad2a95b" target="_top" xlink:title=" ">
<polygon fill="white" stroke="#666666" points="526.75,-253.5 395.25,-253.5 395.25,-220 526.75,-220 526.75,-253.5"/>
<text xml:space="preserve" text-anchor="start" x="403.25" y="-240" font-family="Helvetica,sans-Serif" font-size="10.00">mqtt::mqttbroker::lib</text>
<text xml:space="preserve" text-anchor="middle" x="461" y="-227.25" font-family="Helvetica,sans-Serif" font-size="10.00">::MqttModel::sendEvent</text>
</a>
</g>
</g>
<!-- Node3&#45;&gt;Node8 -->
<g id="edge7_Node000003_Node000008" class="edge">
<title>Node3&#45;&gt;Node8</title>
<g id="a_edge7_Node000003_Node000008"><a xlink:title=" ">
<path fill="none" stroke="#63b8ff" d="M346.11,-236.75C358.61,-236.75 371.43,-236.75 383.75,-236.75"/>
<polygon fill="#63b8ff" stroke="#63b8ff" points="383.39,-240.25 393.39,-236.75 383.39,-233.25 383.39,-240.25"/>
</a>
</g>
</g>
<!-- Node9 -->
<g id="Node000009" class="node">
<title>Node9</title>
<g id="a_Node000009"><a xlink:href="namespacemqtt_1_1mqttbroker_1_1lib.html#a84d9d071543d085c7a76251f47fc7f31" target="_top" xlink:title=" ">
<polygon fill="white" stroke="#666666" points="519.62,-201.5 402.38,-201.5 402.38,-168 519.62,-168 519.62,-201.5"/>
<text xml:space="preserve" text-anchor="start" x="410.38" y="-188" font-family="Helvetica,sans-Serif" font-size="10.00">mqtt::mqttbroker::lib</text>
<text xml:space="preserve" text-anchor="middle" x="461" y="-175.25" font-family="Helvetica,sans-Serif" font-size="10.00">::windowId</text>
</a>
</g>
</g>
<!-- Node3&#45;&gt;Node9 -->
<g id="edge8_Node000003_Node000009" class="edge">
<title>Node3&#45;&gt;Node9</title>
<g id="a_edge8_Node000003_Node000009"><a xlink:title=" ">
<path fill="none" stroke="#63b8ff" d="M327.82,-219.51C348.12,-214.17 370.54,-208.27 391.06,-202.88"/>
<polygon fill="#63b8ff" stroke="#63b8ff" points="391.67,-206.34 400.45,-200.41 389.89,-199.57 391.67,-206.34"/>
</a>
</g>
</g>
<!-- Node11&#45;&gt;Node4 -->
<g id="edge11_Node000011_Node000004" class="edge">
<title>Node11&#45;&gt;Node4</title>
<g id="a_edge11_Node000011_Node000004"><a xlink:title=" ">
<path fill="none" stroke="#63b8ff" d="M321.05,-122.53C336.4,-123 353.31,-123.51 369.89,-124.02"/>
<polygon fill="#63b8ff" stroke="#63b8ff" points="369.67,-127.51 379.77,-124.32 369.88,-120.51 369.67,-127.51"/>
</a>
</g>
</g>
<!-- Node13 -->
<g id="Node000013" class="node">
<title>Node13</title>
<g id="a_Node000013"><a xlink:href="classmqtt_1_1mqttbroker_1_1lib_1_1MqttModel.html#a9423a3d458e7642931e54069583ac30d" target="_top" xlink:title=" ">
<polygon fill="white" stroke="#666666" points="537.25,-85.5 384.75,-85.5 384.75,-52 537.25,-52 537.25,-85.5"/>
<text xml:space="preserve" text-anchor="start" x="392.75" y="-72" font-family="Helvetica,sans-Serif" font-size="10.00">mqtt::mqttbroker::lib</text>
<text xml:space="preserve" text-anchor="middle" x="461" y="-59.25" font-family="Helvetica,sans-Serif" font-size="10.00">::MqttModel::onlineDuration</text>
</a>
</g>
</g>
<!-- Node12&#45;&gt;Node13 -->
<g id="edge13_Node000012_Node000013" class="edge">
<title>Node12&#45;&gt;Node13</title>
<g id="a_edge13_Node000012_Node000013"><a xlink:title=" ">
<path fill="none" stroke="#63b8ff" d="M312.66,-70.99C331.01,-70.71 352.31,-70.38 372.92,-70.07"/>
<polygon fill="#63b8ff" stroke="#63b8ff" points="372.81,-73.57 382.76,-69.92 372.71,-66.57 372.81,-73.57"/>
</a>
</g>
</g>
<!-- Node14 -->
<g id="Node000014" class="node">
<title>Node14</title>
<g id="a_Node000014"><a xlink:href="classmqtt_1_1mqttbroker_1_1lib_1_1MqttModel.html#a91fc1ed46bf75fded412034533ea60ce" target="_top" xlink:title=" ">
<polygon fill="white" stroke="#666666" points="529.38,-33.5 392.62,-33.5 392.62,0 529.38,0 529.38,-33.5"/>
<text xml:space="preserve" text-anchor="start" x="400.62" y="-20" font-family="Helvetica,sans-Serif" font-size="10.00">mqtt::mqttbroker::lib</text>
<text xml:space="preserve" text-anchor="middle" x="461" y="-7.25" font-family="Helvetica,sans-Serif" font-size="10.00">::MqttModel::onlineSince</text>
</a>
</g>
</g>
<!-- Node12&#45;&gt;Node14 -->
<g id="edge14_Node000012_Node000014" class="edge">
<title>Node12&#45;&gt;Node14</title>
<g id="a_edge14_Node000012_Node000014"><a xlink:title=" ">
<path fill="none" stroke="#63b8ff" d="M312.75,-60.96C323.67,-58.43 335.13,-55.63 345.75,-52.75 362.71,-48.16 380.92,-42.67 397.71,-37.39"/>
<polygon fill="#63b8ff" stroke="#63b8ff" points="398.6,-40.78 407.06,-34.41 396.47,-34.11 398.6,-40.78"/>
</a>
</g>
</g>
</g>
</svg>
