<?xml version="1.0" encoding="UTF-8" standalone="no"?>
<!DOCTYPE svg PUBLIC "-//W3C//DTD SVG 1.1//EN"
 "http://www.w3.org/Graphics/SVG/1.1/DTD/svg11.dtd">
<!-- Generated by graphviz version 14.1.2 (0)
 -->
<!-- Title: handleConnector Pages: 1 -->
<!--zoomable 243 -->

<svg id="main" version="1.1" xmlns="http://www.w3.org/2000/svg" xmlns:xlink="http://www.w3.org/1999/xlink" xml:space="preserve" onload="init(evt)">

<style type="text/css"><![CDATA[
.node, .edge {opacity: 0.7;}
.node.selected, .edge.selected {opacity: 1;}
.edge:hover path { stroke: red; }
.edge:hover polygon { stroke: red; fill: red; }
]]></style>

<defs>
  <circle id="rim" cx="0" cy="0" r="7"/>
  <circle id="rim2" cx="0" cy="0" r="3.5"/>
  <g id="zoomPlus">
    <use xlink:href="#rim" fill="#404040"><set attributeName="fill" to="#808080" begin="zoomplus.mouseover" end="zoomplus.mouseout"/></use>
    <path d="M-4,0h8M0,-4v8" fill="none" stroke="white" stroke-width="1.5" pointer-events="none"/>
  </g>
  <g id="zoomMin">
    <use xlink:href="#rim" fill="#404040"><set attributeName="fill" to="#808080" begin="zoomminus.mouseover" end="zoomminus.mouseout"/></use>
    <path d="M-4,0h8" fill="none" stroke="white" stroke-width="1.5" pointer-events="none"/>
  </g>
  <g id="arrowUp" transform="translate(30 24)">
    <use xlink:href="#rim"/>
    <path pointer-events="none" fill="none" stroke="white" stroke-width="1.5" d="M0,-3.0v7 M-2.5,-0.5L0,-3.0L2.5,-0.5"/>
  </g>
  <g id="arrowRight" transform="rotate(90) translate(36 -43)">
    <use xlink:href="#rim"/>
    <path pointer-events="none" fill="none" stroke="white" stroke-width="1.5" d="M0,-3.0v7 M-2.5,-0.5L0,-3.0L2.5,-0.5"/>
  </g>
  <g id="arrowDown" transform="rotate(180) translate(-30 -48)">
    <use xlink:href="#rim"/>
    <path pointer-events="none" fill="none" stroke="white" stroke-width="1.5" d="M0,-3.0v7 M-2.5,-0.5L0,-3.0L2.5,-0.5"/>
  </g>
  <g id="arrowLeft" transform="rotate(270) translate(-36 17)">
    <use xlink:href="#rim"/>
    <path pointer-events="none" fill="none" stroke="white" stroke-width="1.5" d="M0,-3.0v7 M-2.5,-0.5L0,-3.0L2.5,-0.5"/>
  </g>
  <g id="resetDef">
    <use xlink:href="#rim2" fill="#404040"><set attributeName="fill" to="#808080" begin="reset.mouseover" end="reset.mouseout"/></use>
  </g>
</defs>
<script type="application/ecmascript">
var viewWidth = 650;
var viewHeight = 243;
var sectionId = 'dynsection-5';
</script>
<script type="application/ecmascript" xlink:href="svg.min.js"/>
<svg id="graph" class="graph">
<g id="viewport">
<title>handleConnector</title>
<!-- Node1 -->
<g id="Node000001" class="node">
<title>Node1</title>
<g id="a_Node000001"><a xlink:title=" ">
<polygon fill="#999999" stroke="#666666" points="98.5,-124.12 0,-124.12 0,-103.38 98.5,-103.38 98.5,-124.12"/>
<text xml:space="preserve" text-anchor="middle" x="49.25" y="-110.62" font-family="Helvetica,sans-Serif" font-size="10.00">handleConnector</text>
</a>
</g>
</g>
<!-- Node2 -->
<g id="Node000002" class="node">
<title>Node2</title>
<g id="a_Node000002"><a xlink:href="mqttbridge_8cpp.html#a90732e510a2e6efcd8d0ab7912f5b043" target="_top" xlink:title=" ">
<polygon fill="white" stroke="#666666" points="236,-124.12 134.5,-124.12 134.5,-103.38 236,-103.38 236,-124.12"/>
<text xml:space="preserve" text-anchor="middle" x="185.25" y="-110.62" font-family="Helvetica,sans-Serif" font-size="10.00">tryRestartBridges</text>
</a>
</g>
</g>
<!-- Node1&#45;&gt;Node2 -->
<g id="edge1_Node000001_Node000002" class="edge">
<title>Node1&#45;&gt;Node2</title>
<g id="a_edge1_Node000001_Node000002"><a xlink:title=" ">
<path fill="none" stroke="#63b8ff" d="M98.63,-113.75C106.47,-113.75 114.69,-113.75 122.8,-113.75"/>
<polygon fill="#63b8ff" stroke="#63b8ff" points="122.63,-117.25 132.63,-113.75 122.63,-110.25 122.63,-117.25"/>
</a>
</g>
</g>
<!-- Node3 -->
<g id="Node000003" class="node">
<title>Node3</title>
<g id="a_Node000003"><a xlink:href="classmqtt_1_1bridge_1_1lib_1_1BridgeStore.html#a94cc67c07a763979a3625d806474a972" target="_top" xlink:title=" ">
<polygon fill="white" stroke="#666666" points="432,-234.5 279.5,-234.5 279.5,-201 432,-201 432,-234.5"/>
<text xml:space="preserve" text-anchor="start" x="287.5" y="-221" font-family="Helvetica,sans-Serif" font-size="10.00">mqtt::bridge::lib::</text>
<text xml:space="preserve" text-anchor="middle" x="355.75" y="-208.25" font-family="Helvetica,sans-Serif" font-size="10.00">BridgeStore::activateStaged</text>
</a>
</g>
</g>
<!-- Node2&#45;&gt;Node3 -->
<g id="edge2_Node000002_Node000003" class="edge">
<title>Node2&#45;&gt;Node3</title>
<g id="a_edge2_Node000002_Node000003"><a xlink:title=" ">
<path fill="none" stroke="#63b8ff" d="M195.16,-124.41C209.64,-141.08 239.89,-173.31 272,-191.75 274.6,-193.25 277.3,-194.67 280.07,-196.01"/>
<polygon fill="#63b8ff" stroke="#63b8ff" points="278.37,-199.09 288.93,-199.96 281.22,-192.69 278.37,-199.09"/>
</a>
</g>
</g>
<!-- Node4 -->
<g id="Node000004" class="node">
<title>Node4</title>
<g id="a_Node000004"><a xlink:href="classmqtt_1_1bridge_1_1lib_1_1SSEDistributor.html#a6163c6302162edf63fbfb851cf995bb0" target="_top" xlink:title=" ">
<polygon fill="white" stroke="#666666" points="439.5,-182.5 272,-182.5 272,-149 439.5,-149 439.5,-182.5"/>
<text xml:space="preserve" text-anchor="start" x="280" y="-169" font-family="Helvetica,sans-Serif" font-size="10.00">mqtt::bridge::lib::</text>
<text xml:space="preserve" text-anchor="middle" x="355.75" y="-156.25" font-family="Helvetica,sans-Serif" font-size="10.00">SSEDistributor::bridgesStopped</text>
</a>
</g>
</g>
<!-- Node2&#45;&gt;Node4 -->
<g id="edge3_Node000002_Node000004" class="edge">
<title>Node2&#45;&gt;Node4</title>
<g id="a_edge3_Node000002_Node000004"><a xlink:title=" ">
<path fill="none" stroke="#63b8ff" d="M221.16,-124.52C240.55,-130.51 265.33,-138.15 288.26,-145.23"/>
<polygon fill="#63b8ff" stroke="#63b8ff" points="286.95,-148.49 297.54,-148.1 289.02,-141.8 286.95,-148.49"/>
</a>
</g>
</g>
<!-- Node5 -->
<g id="Node000005" class="node">
<title>Node5</title>
<g id="a_Node000005"><a xlink:href="classmqtt_1_1bridge_1_1lib_1_1BridgeStore.html#a7b35204686d51d46798ecae6918527e1" target="_top" xlink:title=" ">
<polygon fill="white" stroke="#666666" points="415.88,-130.5 295.62,-130.5 295.62,-97 415.88,-97 415.88,-130.5"/>
<text xml:space="preserve" text-anchor="start" x="303.62" y="-117" font-family="Helvetica,sans-Serif" font-size="10.00">mqtt::bridge::lib::</text>
<text xml:space="preserve" text-anchor="middle" x="355.75" y="-104.25" font-family="Helvetica,sans-Serif" font-size="10.00">BridgeStore::instance</text>
</a>
</g>
</g>
<!-- Node2&#45;&gt;Node5 -->
<g id="edge4_Node000002_Node000005" class="edge">
<title>Node2&#45;&gt;Node5</title>
<g id="a_edge4_Node000002_Node000005"><a xlink:title=" ">
<path fill="none" stroke="#63b8ff" d="M236.35,-113.75C251.26,-113.75 267.89,-113.75 283.86,-113.75"/>
<polygon fill="#63b8ff" stroke="#63b8ff" points="283.82,-117.25 293.82,-113.75 283.82,-110.25 283.82,-117.25"/>
</a>
</g>
</g>
<!-- Node6 -->
<g id="Node000006" class="node">
<title>Node6</title>
<g id="a_Node000006"><a xlink:href="classmqtt_1_1bridge_1_1lib_1_1SSEDistributor.html#ab6cc33c1c26ccfbd738a5ec2700f0896" target="_top" xlink:title=" ">
<polygon fill="white" stroke="#666666" points="625,-85.5 492,-85.5 492,-52 625,-52 625,-85.5"/>
<text xml:space="preserve" text-anchor="start" x="500" y="-72" font-family="Helvetica,sans-Serif" font-size="10.00">mqtt::bridge::lib::</text>
<text xml:space="preserve" text-anchor="middle" x="558.5" y="-59.25" font-family="Helvetica,sans-Serif" font-size="10.00">SSEDistributor::instance</text>
</a>
</g>
</g>
<!-- Node2&#45;&gt;Node6 -->
<g id="edge5_Node000002_Node000006" class="edge">
<title>Node2&#45;&gt;Node6</title>
<g id="a_edge5_Node000002_Node000006"><a xlink:title=" ">
<path fill="none" stroke="#63b8ff" d="M216,-102.9C232.31,-97.42 253.02,-91.21 272,-87.75 341.87,-75.01 422.74,-70.57 480.54,-69.14"/>
<polygon fill="#63b8ff" stroke="#63b8ff" points="480.35,-72.64 490.27,-68.92 480.19,-65.64 480.35,-72.64"/>
</a>
</g>
</g>
<!-- Node7 -->
<g id="Node000007" class="node">
<title>Node7</title>
<g id="a_Node000007"><a xlink:href="mqttbridge_8cpp.html#ac4db1bc049804762ae0893100ec95dec" target="_top" xlink:title=" ">
<polygon fill="white" stroke="#666666" points="393.38,-41.12 318.12,-41.12 318.12,-20.38 393.38,-20.38 393.38,-41.12"/>
<text xml:space="preserve" text-anchor="middle" x="355.75" y="-27.62" font-family="Helvetica,sans-Serif" font-size="10.00">startBridges</text>
</a>
</g>
</g>
<!-- Node2&#45;&gt;Node7 -->
<g id="edge6_Node000002_Node000007" class="edge">
<title>Node2&#45;&gt;Node7</title>
<g id="a_edge6_Node000002_Node000007"><a xlink:title=" ">
<path fill="none" stroke="#63b8ff" d="M199.1,-102.93C215.2,-89.86 244.08,-67.98 272,-54.75 282.96,-49.56 295.28,-45.25 307,-41.78"/>
<polygon fill="#63b8ff" stroke="#63b8ff" points="307.84,-45.18 316.53,-39.12 305.95,-38.44 307.84,-45.18"/>
</a>
</g>
</g>
<!-- Node7&#45;&gt;Node6 -->
<g id="edge8_Node000007_Node000006" class="edge">
<title>Node7&#45;&gt;Node6</title>
<g id="a_edge8_Node000007_Node000006"><a xlink:title=" ">
<path fill="none" stroke="#63b8ff" d="M393.57,-37.72C417.86,-42.32 450.58,-48.51 480.41,-54.16"/>
<polygon fill="#63b8ff" stroke="#63b8ff" points="479.71,-57.59 490.18,-56.01 481.01,-50.71 479.71,-57.59"/>
</a>
</g>
</g>
<!-- Node8 -->
<g id="Node000008" class="node">
<title>Node8</title>
<g id="a_Node000008"><a xlink:href="classmqtt_1_1bridge_1_1lib_1_1SSEDistributor.html#a2b97b3e1b7139a536dc1d9a7192bb9de" target="_top" xlink:title=" ">
<polygon fill="white" stroke="#666666" points="641.5,-33.5 475.5,-33.5 475.5,0 641.5,0 641.5,-33.5"/>
<text xml:space="preserve" text-anchor="start" x="483.5" y="-20" font-family="Helvetica,sans-Serif" font-size="10.00">mqtt::bridge::lib::</text>
<text xml:space="preserve" text-anchor="middle" x="558.5" y="-7.25" font-family="Helvetica,sans-Serif" font-size="10.00">SSEDistributor::bridgesStarting</text>
</a>
</g>
</g>
<!-- Node7&#45;&gt;Node8 -->
<g id="edge7_Node000007_Node000008" class="edge">
<title>Node7&#45;&gt;Node8</title>
<g id="a_edge7_Node000007_Node000008"><a xlink:title=" ">
<path fill="none" stroke="#63b8ff" d="M393.57,-28.18C413.4,-26.8 438.85,-25.02 463.75,-23.29"/>
<polygon fill="#63b8ff" stroke="#63b8ff" points="463.89,-26.79 473.62,-22.6 463.4,-19.8 463.89,-26.79"/>
</a>
</g>
</g>
</g>
</svg>

<g id="navigator" transform="translate(0 0)" fill="#404254">
  <rect fill="#f2f5e9" fill-opacity="0.5" stroke="#606060" stroke-width=".5" x="0" y="0" width="60" height="60"/>
  <use id="zoomplus" xlink:href="#zoomPlus" x="17" y="9" onmousedown="handleZoom(evt,'in')"/>
  <use id="zoomminus" xlink:href="#zoomMin" x="42" y="9" onmousedown="handleZoom(evt,'out')"/>
  <use id="reset" xlink:href="#resetDef" x="30" y="36" onmousedown="handleReset()"/>
   <use id="arrowup" xlink:href="#arrowUp" x="0" y="0" onmousedown="handlePan(0,-1)"/>
  <use id="arrowright" xlink:href="#arrowRight" x="0" y="0" onmousedown="handlePan(1,0)"/>
  <use id="arrowdown" xlink:href="#arrowDown" x="0" y="0" onmousedown="handlePan(0,1)"/>
  <use id="arrowleft" xlink:href="#arrowLeft" x="0" y="0" onmousedown="handlePan(-1,0)"/>
</g>
<svg viewBox="0 0 15 15" width="100%" height="30px" preserveAspectRatio="xMaxYMin meet">
 <g id="arrow_out" transform="scale(0.3 0.3)">
  <a xlink:href="mqttbridge_8cpp_a0d29fd238d0a229ef0f176e1159f8b1a_cgraph_org.svg" target="_base">
   <rect id="button" ry="5" rx="5" y="6" x="6" height="38" width="38"
        fill="#f2f5e9" fill-opacity="0.5" stroke="#606060" stroke-width="1.0"/>
   <path id="arrow"
     d="M 11.500037,31.436501 C 11.940474,20.09759 22.043105,11.32322 32.158766,21.979434 L 37.068811,17.246167 C 37.068811,17.246167 37.088388,32 37.088388,32 L 22.160133,31.978069 C 22.160133,31.978069 26.997745,27.140456 26.997745,27.140456 C 18.528582,18.264221 13.291696,25.230495 11.500037,31.436501 z"
     style="fill:#404040;"/>
  </a>
 </g>
</svg>

<style type='text/css'>
<![CDATA[
[data-mouse-over-selected='false'] { opacity: 0.7; }
[data-mouse-over-selected='true']  { opacity: 1.0; }
]]>
</style>
<script type="application/ecmascript"><![CDATA[
document.addEventListener('DOMContentLoaded', (event) => {
  highlightEdges();
  highlightAdjacentNodes();
});
]]></script>
</svg>
