<?xml version="1.0" encoding="UTF-8" standalone="no"?>
<!DOCTYPE svg PUBLIC "-//W3C//DTD SVG 1.1//EN"
 "http://www.w3.org/Graphics/SVG/1.1/DTD/svg11.dtd">
<!-- Generated by graphviz version 14.1.1 (0)
 -->
<!-- Title: mqttbroker/websocket/SubProtocolFactory.h Pages: 1 -->
<svg width="479pt" height="111pt"
 viewBox="0.00 0.00 479.00 111.00" xmlns="http://www.w3.org/2000/svg" xmlns:xlink="http://www.w3.org/1999/xlink">
<g id="graph0" class="graph" transform="scale(1 1) rotate(0) translate(4 107)">
<title>mqttbroker/websocket/SubProtocolFactory.h</title>
<!-- Node1 -->
<g id="Node000001" class="node">
<title>Node1</title>
<g id="a_Node000001"><a xlink:title=" ">
<polygon fill="#999999" stroke="#666666" points="314.62,-103 189.88,-103 189.88,-69.5 314.62,-69.5 314.62,-103"/>
<text xml:space="preserve" text-anchor="start" x="197.88" y="-89.5" font-family="Helvetica,sans-Serif" font-size="10.00">mqttbroker/websocket</text>
<text xml:space="preserve" text-anchor="middle" x="252.25" y="-76.75" font-family="Helvetica,sans-Serif" font-size="10.00">/SubProtocolFactory.h</text>
</a>
</g>
</g>
<!-- Node2 -->
<g id="Node000002" class="node">
<title>Node2</title>
<g id="a_Node000002"><a xlink:title=" ">
<polygon fill="#e0e0e0" stroke="#999999" points="158.5,-27.12 0,-27.12 0,-6.38 158.5,-6.38 158.5,-27.12"/>
<text xml:space="preserve" text-anchor="middle" x="79.25" y="-13.62" font-family="Helvetica,sans-Serif" font-size="10.00">iot/mqtt/server/SubProtocol.h</text>
</a>
</g>
</g>
<!-- Node1&#45;&gt;Node2 -->
<g id="edge1_Node000001_Node000002" class="edge">
<title>Node1&#45;&gt;Node2</title>
<g id="a_edge1_Node000001_Node000002"><a xlink:title=" ">
<path fill="none" stroke="#63b8ff" d="M210.81,-69.08C181.6,-57.69 142.88,-42.58 115.02,-31.71"/>
<polygon fill="#63b8ff" stroke="#63b8ff" points="116.54,-28.54 105.96,-28.17 114,-35.07 116.54,-28.54"/>
</a>
</g>
</g>
<!-- Node3 -->
<g id="Node000003" class="node">
<title>Node3</title>
<g id="a_Node000003"><a xlink:title=" ">
<polygon fill="#e0e0e0" stroke="#999999" points="328.12,-33.5 176.38,-33.5 176.38,0 328.12,0 328.12,-33.5"/>
<text xml:space="preserve" text-anchor="start" x="184.38" y="-20" font-family="Helvetica,sans-Serif" font-size="10.00">web/websocket/SubProtocol</text>
<text xml:space="preserve" text-anchor="middle" x="252.25" y="-7.25" font-family="Helvetica,sans-Serif" font-size="10.00">Factory.h</text>
</a>
</g>
</g>
<!-- Node1&#45;&gt;Node3 -->
<g id="edge2_Node000001_Node000003" class="edge">
<title>Node1&#45;&gt;Node3</title>
<g id="a_edge2_Node000001_Node000003"><a xlink:title=" ">
<path fill="none" stroke="#63b8ff" d="M252.25,-69.25C252.25,-62.02 252.25,-53.28 252.25,-45.06"/>
<polygon fill="#63b8ff" stroke="#63b8ff" points="255.75,-45.15 252.25,-35.15 248.75,-45.15 255.75,-45.15"/>
</a>
</g>
</g>
<!-- Node4 -->
<g id="Node000004" class="node">
<title>Node4</title>
<g id="a_Node000004"><a xlink:title=" ">
<polygon fill="#e0e0e0" stroke="#999999" points="470.62,-33.5 345.88,-33.5 345.88,0 470.62,0 470.62,-33.5"/>
<text xml:space="preserve" text-anchor="start" x="353.88" y="-20" font-family="Helvetica,sans-Serif" font-size="10.00">web/websocket/server</text>
<text xml:space="preserve" text-anchor="middle" x="408.25" y="-7.25" font-family="Helvetica,sans-Serif" font-size="10.00">/SubProtocol.h</text>
</a>
</g>
</g>
<!-- Node1&#45;&gt;Node4 -->
<g id="edge3_Node000001_Node000004" class="edge">
<title>Node1&#45;&gt;Node4</title>
<g id="a_edge3_Node000001_Node000004"><a xlink:title=" ">
<path fill="none" stroke="#63b8ff" d="M289.62,-69.08C310.86,-59.89 337.68,-48.28 360.45,-38.43"/>
<polygon fill="#63b8ff" stroke="#63b8ff" points="361.74,-41.69 369.53,-34.5 358.96,-35.26 361.74,-41.69"/>
</a>
</g>
</g>
</g>
</svg>
