<?xml version="1.0" encoding="UTF-8" standalone="no"?>
<!DOCTYPE svg PUBLIC "-//W3C//DTD SVG 1.1//EN"
 "http://www.w3.org/Graphics/SVG/1.1/DTD/svg11.dtd">
<!-- Generated by graphviz version 14.1.2 (0)
 -->
<!-- Title: mqttbridge/websocket/SubProtocolFactory.cpp Pages: 1 -->
<!--zoomable 294 -->

<svg id="main" version="1.1" xmlns="http://www.w3.org/2000/svg" xmlns:xlink="http://www.w3.org/1999/xlink" xml:space="preserve" onload="init(evt)">

<style type="text/css"><![CDATA[
.node, .edge {opacity: 0.7;}
.node.selected, .edge.selected {opacity: 1;}
.edge:hover path { stroke: red; }
.edge:hover polygon { stroke: red; fill: red; }
]]></style>

<defs>
  <circle id="rim" cx="0" cy="0" r="7"/>
  <circle id="rim2" cx="0" cy="0" r="3.5"/>
  <g id="zoomPlus">
    <use xlink:href="#rim" fill="#404040"><set attributeName="fill" to="#808080" begin="zoomplus.mouseover" end="zoomplus.mouseout"/></use>
    <path d="M-4,0h8M0,-4v8" fill="none" stroke="white" stroke-width="1.5" pointer-events="none"/>
  </g>
  <g id="zoomMin">
    <use xlink:href="#rim" fill="#404040"><set attributeName="fill" to="#808080" begin="zoomminus.mouseover" end="zoomminus.mouseout"/></use>
    <path d="M-4,0h8" fill="none" stroke="white" stroke-width="1.5" pointer-events="none"/>
  </g>
  <g id="arrowUp" transform="translate(30 24)">
    <use xlink:href="#rim"/>
    <path pointer-events="none" fill="none" stroke="white" stroke-width="1.5" d="M0,-3.0v7 M-2.5,-0.5L0,-3.0L2.5,-0.5"/>
  </g>
  <g id="arrowRight" transform="rotate(90) translate(36 -43)">
    <use xlink:href="#rim"/>
    <path pointer-events="none" fill="none" stroke="white" stroke-width="1.5" d="M0,-3.0v7 M-2.5,-0.5L0,-3.0L2.5,-0.5"/>
  </g>
  <g id="arrowDown" transform="rotate(180) translate(-30 -48)">
    <use xlink:href="#rim"/>
    <path pointer-events="none" fill="none" stroke="white" stroke-width="1.5" d="M0,-3.0v7 M-2.5,-0.5L0,-3.0L2.5,-0.5"/>
  </g>
  <g id="arrowLeft" transform="rotate(270) translate(-36 17)">
    <use xlink:href="#rim"/>
    <path pointer-events="none" fill="none" stroke="white" stroke-width="1.5" d="M0,-3.0v7 M-2.5,-0.5L0,-3.0L2.5,-0.5"/>
  </g>
  <g id="resetDef">
    <use xlink:href="#rim2" fill="#404040"><set attributeName="fill" to="#808080" begin="reset.mouseover" end="reset.mouseout"/></use>
  </g>
</defs>
<script type="application/ecmascript">
var viewWidth = 920;
var viewHeight = 294;
var sectionId = 'dynsection-0';
</script>
<script type="application/ecmascript" xlink:href="svg.min.js"/>
<svg id="graph" class="graph">
<g id="viewport">
<title>mqttbridge/websocket/SubProtocolFactory.cpp</title>
<!-- Node1 -->
<g id="Node000001" class="node">
<title>Node1</title>
<g id="a_Node000001"><a xlink:title=" ">
<polygon fill="#999999" stroke="#666666" points="644.12,-286 512.62,-286 512.62,-252.5 644.12,-252.5 644.12,-286"/>
<text xml:space="preserve" text-anchor="start" x="520.62" y="-272.5" font-family="Helvetica,sans-Serif" font-size="10.00">mqttbridge/websocket</text>
<text xml:space="preserve" text-anchor="middle" x="578.38" y="-259.75" font-family="Helvetica,sans-Serif" font-size="10.00">/SubProtocolFactory.cpp</text>
</a>
</g>
</g>
<!-- Node2 -->
<g id="Node000002" class="node">
<title>Node2</title>
<g id="a_Node000002"><a xlink:href="mqttbridge_2websocket_2SubProtocolFactory_8h.html" target="_top" xlink:title=" ">
<polygon fill="white" stroke="#666666" points="378,-210.12 260.75,-210.12 260.75,-189.38 378,-189.38 378,-210.12"/>
<text xml:space="preserve" text-anchor="middle" x="319.38" y="-196.62" font-family="Helvetica,sans-Serif" font-size="10.00">SubProtocolFactory.h</text>
</a>
</g>
</g>
<!-- Node1&#45;&gt;Node2 -->
<g id="edge1_Node000001_Node000002" class="edge">
<title>Node1&#45;&gt;Node2</title>
<g id="a_edge1_Node000001_Node000002"><a xlink:title=" ">
<path fill="none" stroke="#63b8ff" d="M516.34,-252.08C470.96,-240.26 410.26,-224.44 368.29,-213.5"/>
<polygon fill="#63b8ff" stroke="#63b8ff" points="369.27,-210.14 358.71,-211 367.5,-216.91 369.27,-210.14"/>
</a>
</g>
</g>
<!-- Node6 -->
<g id="Node000006" class="node">
<title>Node6</title>
<g id="a_Node000006"><a xlink:href="BridgeStore_8h.html" target="_top" xlink:title=" ">
<polygon fill="white" stroke="#666666" points="528.88,-210.12 431.88,-210.12 431.88,-189.38 528.88,-189.38 528.88,-210.12"/>
<text xml:space="preserve" text-anchor="middle" x="480.38" y="-196.62" font-family="Helvetica,sans-Serif" font-size="10.00">lib/BridgeStore.h</text>
</a>
</g>
</g>
<!-- Node1&#45;&gt;Node6 -->
<g id="edge5_Node000001_Node000006" class="edge">
<title>Node1&#45;&gt;Node6</title>
<g id="a_edge5_Node000001_Node000006"><a xlink:title=" ">
<path fill="none" stroke="#63b8ff" d="M555.15,-252.25C539.74,-241.64 519.56,-227.74 504.05,-217.06"/>
<polygon fill="#63b8ff" stroke="#63b8ff" points="506.1,-214.22 495.88,-211.43 502.13,-219.99 506.1,-214.22"/>
</a>
</g>
</g>
<!-- Node10 -->
<g id="Node000010" class="node">
<title>Node10</title>
<g id="a_Node000010"><a xlink:title=" ">
<polygon fill="#e0e0e0" stroke="#999999" points="609.62,-210.12 547.12,-210.12 547.12,-189.38 609.62,-189.38 609.62,-210.12"/>
<text xml:space="preserve" text-anchor="middle" x="578.38" y="-196.62" font-family="Helvetica,sans-Serif" font-size="10.00">lib/Mqtt.h</text>
</a>
</g>
</g>
<!-- Node1&#45;&gt;Node10 -->
<g id="edge9_Node000001_Node000010" class="edge">
<title>Node1&#45;&gt;Node10</title>
<g id="a_edge9_Node000001_Node000010"><a xlink:title=" ">
<path fill="none" stroke="#63b8ff" d="M578.38,-252.25C578.38,-243.15 578.38,-231.64 578.38,-221.82"/>
<polygon fill="#63b8ff" stroke="#63b8ff" points="581.88,-222.09 578.38,-212.09 574.88,-222.09 581.88,-222.09"/>
</a>
</g>
</g>
<!-- Node11 -->
<g id="Node000011" class="node">
<title>Node11</title>
<g id="a_Node000011"><a xlink:title=" ">
<polygon fill="#e0e0e0" stroke="#999999" points="742.88,-216.5 627.88,-216.5 627.88,-183 742.88,-183 742.88,-216.5"/>
<text xml:space="preserve" text-anchor="start" x="635.88" y="-203" font-family="Helvetica,sans-Serif" font-size="10.00">core/socket/stream</text>
<text xml:space="preserve" text-anchor="middle" x="685.38" y="-190.25" font-family="Helvetica,sans-Serif" font-size="10.00">/SocketConnection.h</text>
</a>
</g>
</g>
<!-- Node1&#45;&gt;Node11 -->
<g id="edge10_Node000001_Node000011" class="edge">
<title>Node1&#45;&gt;Node11</title>
<g id="a_edge10_Node000001_Node000011"><a xlink:title=" ">
<path fill="none" stroke="#63b8ff" d="M604,-252.08C617.9,-243.32 635.28,-232.35 650.4,-222.81"/>
<polygon fill="#63b8ff" stroke="#63b8ff" points="652.08,-225.89 658.67,-217.59 648.35,-219.97 652.08,-225.89"/>
</a>
</g>
</g>
<!-- Node12 -->
<g id="Node000012" class="node">
<title>Node12</title>
<g id="a_Node000012"><a xlink:title=" ">
<polygon fill="#e0e0e0" stroke="#999999" points="912.25,-216.5 760.5,-216.5 760.5,-183 912.25,-183 912.25,-216.5"/>
<text xml:space="preserve" text-anchor="start" x="768.5" y="-203" font-family="Helvetica,sans-Serif" font-size="10.00">web/websocket/SubProtocol</text>
<text xml:space="preserve" text-anchor="middle" x="836.38" y="-190.25" font-family="Helvetica,sans-Serif" font-size="10.00">Context.h</text>
</a>
</g>
</g>
<!-- Node1&#45;&gt;Node12 -->
<g id="edge11_Node000001_Node000012" class="edge">
<title>Node1&#45;&gt;Node12</title>
<g id="a_edge11_Node000001_Node000012"><a xlink:title=" ">
<path fill="none" stroke="#63b8ff" d="M640.17,-252.08C677.29,-242.37 724.71,-229.96 763.64,-219.78"/>
<polygon fill="#63b8ff" stroke="#63b8ff" points="764.38,-223.2 773.17,-217.29 762.61,-216.43 764.38,-223.2"/>
</a>
</g>
</g>
<!-- Node3 -->
<g id="Node000003" class="node">
<title>Node3</title>
<g id="a_Node000003"><a xlink:title=" ">
<polygon fill="#e0e0e0" stroke="#999999" points="154.75,-140.62 0,-140.62 0,-119.88 154.75,-119.88 154.75,-140.62"/>
<text xml:space="preserve" text-anchor="middle" x="77.38" y="-127.12" font-family="Helvetica,sans-Serif" font-size="10.00">iot/mqtt/client/SubProtocol.h</text>
</a>
</g>
</g>
<!-- Node2&#45;&gt;Node3 -->
<g id="edge2_Node000002_Node000003" class="edge">
<title>Node2&#45;&gt;Node3</title>
<g id="a_edge2_Node000002_Node000003"><a xlink:title=" ">
<path fill="none" stroke="#63b8ff" d="M284.19,-188.93C241.8,-177.11 170.47,-157.22 123.66,-144.16"/>
<polygon fill="#63b8ff" stroke="#63b8ff" points="124.64,-140.8 114.06,-141.48 122.76,-147.54 124.64,-140.8"/>
</a>
</g>
</g>
<!-- Node4 -->
<g id="Node000004" class="node">
<title>Node4</title>
<g id="a_Node000004"><a xlink:title=" ">
<polygon fill="#e0e0e0" stroke="#999999" points="324.25,-147 172.5,-147 172.5,-113.5 324.25,-113.5 324.25,-147"/>
<text xml:space="preserve" text-anchor="start" x="180.5" y="-133.5" font-family="Helvetica,sans-Serif" font-size="10.00">web/websocket/SubProtocol</text>
<text xml:space="preserve" text-anchor="middle" x="248.38" y="-120.75" font-family="Helvetica,sans-Serif" font-size="10.00">Factory.h</text>
</a>
</g>
</g>
<!-- Node2&#45;&gt;Node4 -->
<g id="edge3_Node000002_Node000004" class="edge">
<title>Node2&#45;&gt;Node4</title>
<g id="a_edge3_Node000002_Node000004"><a xlink:title=" ">
<path fill="none" stroke="#63b8ff" d="M309.2,-189.08C299.92,-180.25 285.81,-166.84 273.52,-155.16"/>
<polygon fill="#63b8ff" stroke="#63b8ff" points="276.14,-152.82 266.48,-148.46 271.32,-157.89 276.14,-152.82"/>
</a>
</g>
</g>
<!-- Node5 -->
<g id="Node000005" class="node">
<title>Node5</title>
<g id="a_Node000005"><a xlink:title=" ">
<polygon fill="#e0e0e0" stroke="#999999" points="462.88,-147 341.88,-147 341.88,-113.5 462.88,-113.5 462.88,-147"/>
<text xml:space="preserve" text-anchor="start" x="349.88" y="-133.5" font-family="Helvetica,sans-Serif" font-size="10.00">web/websocket/client</text>
<text xml:space="preserve" text-anchor="middle" x="402.38" y="-120.75" font-family="Helvetica,sans-Serif" font-size="10.00">/SubProtocol.h</text>
</a>
</g>
</g>
<!-- Node2&#45;&gt;Node5 -->
<g id="edge4_Node000002_Node000005" class="edge">
<title>Node2&#45;&gt;Node5</title>
<g id="a_edge4_Node000002_Node000005"><a xlink:title=" ">
<path fill="none" stroke="#63b8ff" d="M331.27,-189.08C342.33,-180.08 359.25,-166.32 373.81,-154.48"/>
<polygon fill="#63b8ff" stroke="#63b8ff" points="375.77,-157.4 381.32,-148.37 371.35,-151.97 375.77,-157.4"/>
</a>
</g>
</g>
<!-- Node7 -->
<g id="Node000007" class="node">
<title>Node7</title>
<g id="a_Node000007"><a xlink:href="Bridge_8h.html" target="_top" xlink:title=" ">
<polygon fill="white" stroke="#666666" points="552.12,-140.62 480.62,-140.62 480.62,-119.88 552.12,-119.88 552.12,-140.62"/>
<text xml:space="preserve" text-anchor="middle" x="516.38" y="-127.12" font-family="Helvetica,sans-Serif" font-size="10.00">lib/Bridge.h</text>
</a>
</g>
</g>
<!-- Node6&#45;&gt;Node7 -->
<g id="edge6_Node000006_Node000007" class="edge">
<title>Node6&#45;&gt;Node7</title>
<g id="a_edge6_Node000006_Node000007"><a xlink:title=" ">
<path fill="none" stroke="#63b8ff" d="M485.53,-189.08C490.83,-179.15 499.21,-163.43 505.9,-150.89"/>
<polygon fill="#63b8ff" stroke="#63b8ff" points="508.9,-152.71 510.51,-142.24 502.72,-149.42 508.9,-152.71"/>
</a>
</g>
</g>
<!-- Node8 -->
<g id="Node000008" class="node">
<title>Node8</title>
<g id="a_Node000008"><a xlink:href="Broker_8h.html" target="_top" xlink:title=" ">
<polygon fill="white" stroke="#666666" points="552.12,-77.5 480.62,-77.5 480.62,-56.75 552.12,-56.75 552.12,-77.5"/>
<text xml:space="preserve" text-anchor="middle" x="516.38" y="-64" font-family="Helvetica,sans-Serif" font-size="10.00">lib/Broker.h</text>
</a>
</g>
</g>
<!-- Node7&#45;&gt;Node8 -->
<g id="edge7_Node000007_Node000008" class="edge">
<title>Node7&#45;&gt;Node8</title>
<g id="a_edge7_Node000007_Node000008"><a xlink:title=" ">
<path fill="none" stroke="#63b8ff" d="M516.38,-119.43C516.38,-111.27 516.38,-99.38 516.38,-89.1"/>
<polygon fill="#63b8ff" stroke="#63b8ff" points="519.88,-89.23 516.38,-79.23 512.88,-89.23 519.88,-89.23"/>
</a>
</g>
</g>
<!-- Node9 -->
<g id="Node000009" class="node">
<title>Node9</title>
<g id="a_Node000009"><a xlink:title=" ">
<polygon fill="#e0e0e0" stroke="#999999" points="562.25,-20.75 470.5,-20.75 470.5,0 562.25,0 562.25,-20.75"/>
<text xml:space="preserve" text-anchor="middle" x="516.38" y="-7.25" font-family="Helvetica,sans-Serif" font-size="10.00">iot/mqtt/Topic.h</text>
</a>
</g>
</g>
<!-- Node8&#45;&gt;Node9 -->
<g id="edge8_Node000008_Node000009" class="edge">
<title>Node8&#45;&gt;Node9</title>
<g id="a_edge8_Node000008_Node000009"><a xlink:title=" ">
<path fill="none" stroke="#63b8ff" d="M516.38,-56.34C516.38,-49.72 516.38,-40.72 516.38,-32.52"/>
<polygon fill="#63b8ff" stroke="#63b8ff" points="519.88,-32.59 516.38,-22.59 512.88,-32.59 519.88,-32.59"/>
</a>
</g>
</g>
</g>
</svg>

<g id="navigator" transform="translate(0 0)" fill="#404254">
  <rect fill="#f2f5e9" fill-opacity="0.5" stroke="#606060" stroke-width=".5" x="0" y="0" width="60" height="60"/>
  <use id="zoomplus" xlink:href="#zoomPlus" x="17" y="9" onmousedown="handleZoom(evt,'in')"/>
  <use id="zoomminus" xlink:href="#zoomMin" x="42" y="9" onmousedown="handleZoom(evt,'out')"/>
  <use id="reset" xlink:href="#resetDef" x="30" y="36" onmousedown="handleReset()"/>
   <use id="arrowup" xlink:href="#arrowUp" x="0" y="0" onmousedown="handlePan(0,-1)"/>
  <use id="arrowright" xlink:href="#arrowRight" x="0" y="0" onmousedown="handlePan(1,0)"/>
  <use id="arrowdown" xlink:href="#arrowDown" x="0" y="0" onmousedown="handlePan(0,1)"/>
  <use id="arrowleft" xlink:href="#arrowLeft" x="0" y="0" onmousedown="handlePan(-1,0)"/>
</g>
<svg viewBox="0 0 15 15" width="100%" height="30px" preserveAspectRatio="xMaxYMin meet">
 <g id="arrow_out" transform="scale(0.3 0.3)">
  <a xlink:href="mqttbridge_2websocket_2SubProtocolFactory_8cpp__incl_org.svg" target="_base">
   <rect id="button" ry="5" rx="5" y="6" x="6" height="38" width="38"
        fill="#f2f5e9" fill-opacity="0.5" stroke="#606060" stroke-width="1.0"/>
   <path id="arrow"
     d="M 11.500037,31.436501 C 11.940474,20.09759 22.043105,11.32322 32.158766,21.979434 L 37.068811,17.246167 C 37.068811,17.246167 37.088388,32 37.088388,32 L 22.160133,31.978069 C 22.160133,31.978069 26.997745,27.140456 26.997745,27.140456 C 18.528582,18.264221 13.291696,25.230495 11.500037,31.436501 z"
     style="fill:#404040;"/>
  </a>
 </g>
</svg>

<style type='text/css'>
<![CDATA[
[data-mouse-over-selected='false'] { opacity: 0.7; }
[data-mouse-over-selected='true']  { opacity: 1.0; }
]]>
</style>
<script type="application/ecmascript"><![CDATA[
document.addEventListener('DOMContentLoaded', (event) => {
  highlightEdges();
  highlightAdjacentNodes();
});
]]></script>
</svg>
