<?xml version="1.0" encoding="UTF-8" standalone="no"?>
<!DOCTYPE svg PUBLIC "-//W3C//DTD SVG 1.1//EN"
 "http://www.w3.org/Graphics/SVG/1.1/DTD/svg11.dtd">
<!-- Generated by graphviz version 2.42.4 (0)
 -->
<!-- Title: mqttbroker/websocket/SubProtocolFactory.cpp Pages: 1 -->
<svg width="917pt" height="170pt"
 viewBox="0.00 0.00 916.50 170.00" xmlns="http://www.w3.org/2000/svg" xmlns:xlink="http://www.w3.org/1999/xlink">
<g id="graph0" class="graph" transform="scale(1 1) rotate(0) translate(4 166)">
<title>mqttbroker/websocket/SubProtocolFactory.cpp</title>
<!-- Node1 -->
<g id="Node000001" class="node">
<title>Node1</title>
<g id="a_Node000001"><a xlink:title=" ">
<polygon fill="#999999" stroke="#666666" points="550.5,-162 418.5,-162 418.5,-132 550.5,-132 550.5,-162"/>
<text text-anchor="start" x="426.5" y="-150" font-family="Helvetica,sans-Serif" font-size="10.00">mqttbroker/websocket</text>
<text text-anchor="middle" x="484.5" y="-139" font-family="Helvetica,sans-Serif" font-size="10.00">/SubProtocolFactory.cpp</text>
</a>
</g>
</g>
<!-- Node2 -->
<g id="Node000002" class="node">
<title>Node2</title>
<g id="a_Node000002"><a xlink:href="mqttbroker_2websocket_2SubProtocolFactory_8h.html" target="_top" xlink:title=" ">
<polygon fill="white" stroke="#666666" points="225.5,-90.5 107.5,-90.5 107.5,-71.5 225.5,-71.5 225.5,-90.5"/>
<text text-anchor="middle" x="166.5" y="-78.5" font-family="Helvetica,sans-Serif" font-size="10.00">SubProtocolFactory.h</text>
</a>
</g>
</g>
<!-- Node1&#45;&gt;Node2 -->
<g id="edge1_Node000001_Node000002" class="edge">
<title>Node1&#45;&gt;Node2</title>
<g id="a_edge1_Node000001_Node000002"><a xlink:title=" ">
<path fill="none" stroke="#63b8ff" d="M418.44,-132.77C368.25,-122.71 297.52,-108.52 235.5,-96 230.03,-94.9 224.32,-93.74 218.63,-92.59"/>
<polygon fill="#63b8ff" stroke="#63b8ff" points="218.96,-89.08 208.46,-90.53 217.56,-95.94 218.96,-89.08"/>
</a>
</g>
</g>
<!-- Node5 -->
<g id="Node000005" class="node">
<title>Node5</title>
<g id="a_Node000005"><a xlink:href="JsonMappingReader_8h.html" target="_top" xlink:title=" ">
<polygon fill="white" stroke="#666666" points="381,-90.5 244,-90.5 244,-71.5 381,-71.5 381,-90.5"/>
<text text-anchor="middle" x="312.5" y="-78.5" font-family="Helvetica,sans-Serif" font-size="10.00">lib/JsonMappingReader.h</text>
</a>
</g>
</g>
<!-- Node1&#45;&gt;Node5 -->
<g id="edge4_Node000001_Node000005" class="edge">
<title>Node1&#45;&gt;Node5</title>
<g id="a_edge4_Node000001_Node000005"><a xlink:title=" ">
<path fill="none" stroke="#63b8ff" d="M446.75,-131.95C416.32,-120.63 373.98,-104.88 345.03,-94.1"/>
<polygon fill="#63b8ff" stroke="#63b8ff" points="345.98,-90.72 335.39,-90.52 343.54,-97.28 345.98,-90.72"/>
</a>
</g>
</g>
<!-- Node6 -->
<g id="Node000006" class="node">
<title>Node6</title>
<g id="a_Node000006"><a xlink:title=" ">
<polygon fill="#e0e0e0" stroke="#999999" points="462,-90.5 399,-90.5 399,-71.5 462,-71.5 462,-90.5"/>
<text text-anchor="middle" x="430.5" y="-78.5" font-family="Helvetica,sans-Serif" font-size="10.00">lib/Mqtt.h</text>
</a>
</g>
</g>
<!-- Node1&#45;&gt;Node6 -->
<g id="edge5_Node000001_Node000006" class="edge">
<title>Node1&#45;&gt;Node6</title>
<g id="a_edge5_Node000001_Node000006"><a xlink:title=" ">
<path fill="none" stroke="#63b8ff" d="M472.52,-131.8C464.26,-122.01 453.26,-108.98 444.59,-98.7"/>
<polygon fill="#63b8ff" stroke="#63b8ff" points="447.09,-96.23 437.96,-90.84 441.74,-100.74 447.09,-96.23"/>
</a>
</g>
</g>
<!-- Node7 -->
<g id="Node000007" class="node">
<title>Node7</title>
<g id="a_Node000007"><a xlink:title=" ">
<polygon fill="#e0e0e0" stroke="#999999" points="596.5,-96 480.5,-96 480.5,-66 596.5,-66 596.5,-96"/>
<text text-anchor="start" x="488.5" y="-84" font-family="Helvetica,sans-Serif" font-size="10.00">core/socket/stream</text>
<text text-anchor="middle" x="538.5" y="-73" font-family="Helvetica,sans-Serif" font-size="10.00">/SocketConnection.h</text>
</a>
</g>
</g>
<!-- Node1&#45;&gt;Node7 -->
<g id="edge6_Node000001_Node000007" class="edge">
<title>Node1&#45;&gt;Node7</title>
<g id="a_edge6_Node000001_Node000007"><a xlink:title=" ">
<path fill="none" stroke="#63b8ff" d="M496.48,-131.8C503.41,-123.59 512.26,-113.1 520.05,-103.87"/>
<polygon fill="#63b8ff" stroke="#63b8ff" points="522.78,-106.06 526.55,-96.16 517.43,-101.55 522.78,-106.06"/>
</a>
</g>
</g>
<!-- Node8 -->
<g id="Node000008" class="node">
<title>Node8</title>
<g id="a_Node000008"><a xlink:title=" ">
<polygon fill="#e0e0e0" stroke="#999999" points="738,-96 615,-96 615,-66 738,-66 738,-96"/>
<text text-anchor="start" x="623" y="-84" font-family="Helvetica,sans-Serif" font-size="10.00">iot/mqtt/server/broker</text>
<text text-anchor="middle" x="676.5" y="-73" font-family="Helvetica,sans-Serif" font-size="10.00">/Broker.h</text>
</a>
</g>
</g>
<!-- Node1&#45;&gt;Node8 -->
<g id="edge7_Node000001_Node000008" class="edge">
<title>Node1&#45;&gt;Node8</title>
<g id="a_edge7_Node000001_Node000008"><a xlink:title=" ">
<path fill="none" stroke="#63b8ff" d="M526.64,-131.95C555.52,-122.33 594.03,-109.49 624.77,-99.24"/>
<polygon fill="#63b8ff" stroke="#63b8ff" points="626.08,-102.5 634.46,-96.01 623.87,-95.85 626.08,-102.5"/>
</a>
</g>
</g>
<!-- Node9 -->
<g id="Node000009" class="node">
<title>Node9</title>
<g id="a_Node000009"><a xlink:title=" ">
<polygon fill="#e0e0e0" stroke="#999999" points="908.5,-96 756.5,-96 756.5,-66 908.5,-66 908.5,-96"/>
<text text-anchor="start" x="764.5" y="-84" font-family="Helvetica,sans-Serif" font-size="10.00">web/websocket/SubProtocol</text>
<text text-anchor="middle" x="832.5" y="-73" font-family="Helvetica,sans-Serif" font-size="10.00">Context.h</text>
</a>
</g>
</g>
<!-- Node1&#45;&gt;Node9 -->
<g id="edge8_Node000001_Node000009" class="edge">
<title>Node1&#45;&gt;Node9</title>
<g id="a_edge8_Node000001_Node000009"><a xlink:title=" ">
<path fill="none" stroke="#63b8ff" d="M550.78,-133.81C606.35,-123.59 686.1,-108.92 746.57,-97.8"/>
<polygon fill="#63b8ff" stroke="#63b8ff" points="747.28,-101.23 756.48,-95.98 746.01,-94.35 747.28,-101.23"/>
</a>
</g>
</g>
<!-- Node3 -->
<g id="Node000003" class="node">
<title>Node3</title>
<g id="a_Node000003"><a xlink:title=" ">
<polygon fill="#e0e0e0" stroke="#999999" points="159,-24.5 0,-24.5 0,-5.5 159,-5.5 159,-24.5"/>
<text text-anchor="middle" x="79.5" y="-12.5" font-family="Helvetica,sans-Serif" font-size="10.00">iot/mqtt/server/SubProtocol.h</text>
</a>
</g>
</g>
<!-- Node2&#45;&gt;Node3 -->
<g id="edge2_Node000002_Node000003" class="edge">
<title>Node2&#45;&gt;Node3</title>
<g id="a_edge2_Node000002_Node000003"><a xlink:title=" ">
<path fill="none" stroke="#63b8ff" d="M154.77,-71.37C140.63,-60.97 116.64,-43.32 99.55,-30.75"/>
<polygon fill="#63b8ff" stroke="#63b8ff" points="101.45,-27.81 91.33,-24.7 97.31,-33.44 101.45,-27.81"/>
</a>
</g>
</g>
<!-- Node4 -->
<g id="Node000004" class="node">
<title>Node4</title>
<g id="a_Node000004"><a xlink:title=" ">
<polygon fill="#e0e0e0" stroke="#999999" points="329.5,-30 177.5,-30 177.5,0 329.5,0 329.5,-30"/>
<text text-anchor="start" x="185.5" y="-18" font-family="Helvetica,sans-Serif" font-size="10.00">web/websocket/SubProtocol</text>
<text text-anchor="middle" x="253.5" y="-7" font-family="Helvetica,sans-Serif" font-size="10.00">Factory.h</text>
</a>
</g>
</g>
<!-- Node2&#45;&gt;Node4 -->
<g id="edge3_Node000002_Node000004" class="edge">
<title>Node2&#45;&gt;Node4</title>
<g id="a_edge3_Node000002_Node000004"><a xlink:title=" ">
<path fill="none" stroke="#63b8ff" d="M178.23,-71.37C190.48,-62.36 210.1,-47.92 226.25,-36.05"/>
<polygon fill="#63b8ff" stroke="#63b8ff" points="228.33,-38.86 234.31,-30.12 224.18,-33.22 228.33,-38.86"/>
</a>
</g>
</g>
</g>
</svg>
