<?xml version="1.0" encoding="UTF-8" standalone="no"?>
<!DOCTYPE svg PUBLIC "-//W3C//DTD SVG 1.1//EN"
 "http://www.w3.org/Graphics/SVG/1.1/DTD/svg11.dtd">
<!-- Generated by graphviz version 14.1.2 (0)
 -->
<!-- Title: mqttintegrator/SocketContextFactory.cpp Pages: 1 -->
<svg width="989pt" height="237pt"
 viewBox="0.00 0.00 989.00 237.00" xmlns="http://www.w3.org/2000/svg" xmlns:xlink="http://www.w3.org/1999/xlink">
<g id="graph0" class="graph" transform="scale(1 1) rotate(0) translate(4 233.25)">
<title>mqttintegrator/SocketContextFactory.cpp</title>
<!-- Node1 -->
<g id="Node000001" class="node">
<title>Node1</title>
<g id="a_Node000001"><a xlink:title=" ">
<polygon fill="#999999" stroke="#666666" points="642.88,-229.25 482.12,-229.25 482.12,-195.75 642.88,-195.75 642.88,-229.25"/>
<text xml:space="preserve" text-anchor="start" x="490.12" y="-215.75" font-family="Helvetica,sans-Serif" font-size="10.00">mqttintegrator/SocketContext</text>
<text xml:space="preserve" text-anchor="middle" x="562.5" y="-203" font-family="Helvetica,sans-Serif" font-size="10.00">Factory.cpp</text>
</a>
</g>
</g>
<!-- Node2 -->
<g id="Node000002" class="node">
<title>Node2</title>
<g id="a_Node000002"><a xlink:href="mqttintegrator_2SocketContextFactory_8h.html" target="_top" xlink:title=" ">
<polygon fill="white" stroke="#666666" points="213.5,-153.38 83.5,-153.38 83.5,-132.62 213.5,-132.62 213.5,-153.38"/>
<text xml:space="preserve" text-anchor="middle" x="148.5" y="-139.88" font-family="Helvetica,sans-Serif" font-size="10.00">SocketContextFactory.h</text>
</a>
</g>
</g>
<!-- Node1&#45;&gt;Node2 -->
<g id="edge1_Node000001_Node000002" class="edge">
<title>Node1&#45;&gt;Node2</title>
<g id="a_edge1_Node000001_Node000002"><a xlink:title=" ">
<path fill="none" stroke="#63b8ff" d="M481.9,-200.59C412.87,-190.92 310.9,-175.87 222.5,-159.75 216.44,-158.65 210.12,-157.42 203.84,-156.15"/>
<polygon fill="#63b8ff" stroke="#63b8ff" points="204.62,-152.73 194.12,-154.14 203.2,-159.59 204.62,-152.73"/>
</a>
</g>
</g>
<!-- Node5 -->
<g id="Node000005" class="node">
<title>Node5</title>
<g id="a_Node000005"><a xlink:href="ConfigApplication_8h.html" target="_top" xlink:title=" ">
<polygon fill="white" stroke="#666666" points="357.62,-153.38 231.38,-153.38 231.38,-132.62 357.62,-132.62 357.62,-153.38"/>
<text xml:space="preserve" text-anchor="middle" x="294.5" y="-139.88" font-family="Helvetica,sans-Serif" font-size="10.00">lib/ConfigApplication.h</text>
</a>
</g>
</g>
<!-- Node1&#45;&gt;Node5 -->
<g id="edge4_Node000001_Node000005" class="edge">
<title>Node1&#45;&gt;Node5</title>
<g id="a_edge4_Node000001_Node000005"><a xlink:title=" ">
<path fill="none" stroke="#63b8ff" d="M498.31,-195.33C451.26,-183.48 388.27,-167.62 344.84,-156.68"/>
<polygon fill="#63b8ff" stroke="#63b8ff" points="345.71,-153.29 335.15,-154.24 344,-160.08 345.71,-153.29"/>
</a>
</g>
</g>
<!-- Node7 -->
<g id="Node000007" class="node">
<title>Node7</title>
<g id="a_Node000007"><a xlink:href="JsonMappingReader_8h.html" target="_top" xlink:title=" ">
<polygon fill="white" stroke="#666666" points="512.88,-153.38 376.12,-153.38 376.12,-132.62 512.88,-132.62 512.88,-153.38"/>
<text xml:space="preserve" text-anchor="middle" x="444.5" y="-139.88" font-family="Helvetica,sans-Serif" font-size="10.00">lib/JsonMappingReader.h</text>
</a>
</g>
</g>
<!-- Node1&#45;&gt;Node7 -->
<g id="edge6_Node000001_Node000007" class="edge">
<title>Node1&#45;&gt;Node7</title>
<g id="a_edge6_Node000001_Node000007"><a xlink:title=" ">
<path fill="none" stroke="#63b8ff" d="M534.24,-195.33C515.22,-184.46 490.31,-170.2 471.55,-159.48"/>
<polygon fill="#63b8ff" stroke="#63b8ff" points="473.31,-156.45 462.9,-154.52 469.84,-162.53 473.31,-156.45"/>
</a>
</g>
</g>
<!-- Node8 -->
<g id="Node000008" class="node">
<title>Node8</title>
<g id="a_Node000008"><a xlink:href="mqttintegrator_2lib_2Mqtt_8h.html" target="_top" xlink:title=" ">
<polygon fill="white" stroke="#666666" points="593.75,-153.38 531.25,-153.38 531.25,-132.62 593.75,-132.62 593.75,-153.38"/>
<text xml:space="preserve" text-anchor="middle" x="562.5" y="-139.88" font-family="Helvetica,sans-Serif" font-size="10.00">lib/Mqtt.h</text>
</a>
</g>
</g>
<!-- Node1&#45;&gt;Node8 -->
<g id="edge7_Node000001_Node000008" class="edge">
<title>Node1&#45;&gt;Node8</title>
<g id="a_edge7_Node000001_Node000008"><a xlink:title=" ">
<path fill="none" stroke="#63b8ff" d="M562.5,-195.5C562.5,-186.4 562.5,-174.89 562.5,-165.07"/>
<polygon fill="#63b8ff" stroke="#63b8ff" points="566,-165.34 562.5,-155.34 559,-165.34 566,-165.34"/>
</a>
</g>
</g>
<!-- Node12 -->
<g id="Node000012" class="node">
<title>Node12</title>
<g id="a_Node000012"><a xlink:title=" ">
<polygon fill="#e0e0e0" stroke="#999999" points="727,-159.75 612,-159.75 612,-126.25 727,-126.25 727,-159.75"/>
<text xml:space="preserve" text-anchor="start" x="620" y="-146.25" font-family="Helvetica,sans-Serif" font-size="10.00">core/socket/stream</text>
<text xml:space="preserve" text-anchor="middle" x="669.5" y="-133.5" font-family="Helvetica,sans-Serif" font-size="10.00">/SocketConnection.h</text>
</a>
</g>
</g>
<!-- Node1&#45;&gt;Node12 -->
<g id="edge11_Node000001_Node000012" class="edge">
<title>Node1&#45;&gt;Node12</title>
<g id="a_edge11_Node000001_Node000012"><a xlink:title=" ">
<path fill="none" stroke="#63b8ff" d="M588.13,-195.33C602.03,-186.57 619.4,-175.6 634.53,-166.06"/>
<polygon fill="#63b8ff" stroke="#63b8ff" points="636.21,-169.14 642.8,-160.84 632.47,-163.22 636.21,-169.14"/>
</a>
</g>
</g>
<!-- Node13 -->
<g id="Node000013" class="node">
<title>Node13</title>
<g id="a_Node000013"><a xlink:title=" ">
<polygon fill="#e0e0e0" stroke="#999999" points="882.25,-153.38 744.75,-153.38 744.75,-132.62 882.25,-132.62 882.25,-153.38"/>
<text xml:space="preserve" text-anchor="middle" x="813.5" y="-139.88" font-family="Helvetica,sans-Serif" font-size="10.00">iot/mqtt/SocketContext.h</text>
</a>
</g>
</g>
<!-- Node1&#45;&gt;Node13 -->
<g id="edge12_Node000001_Node000013" class="edge">
<title>Node1&#45;&gt;Node13</title>
<g id="a_edge12_Node000001_Node000013"><a xlink:title=" ">
<path fill="none" stroke="#63b8ff" d="M622.62,-195.33C666.5,-183.53 725.18,-167.75 765.84,-156.82"/>
<polygon fill="#63b8ff" stroke="#63b8ff" points="766.59,-160.24 775.34,-154.26 764.77,-153.48 766.59,-160.24"/>
</a>
</g>
</g>
<!-- Node14 -->
<g id="Node000014" class="node">
<title>Node14</title>
<g id="a_Node000014"><a xlink:title=" ">
<polygon fill="#e0e0e0" stroke="#999999" points="980.75,-153.38 900.25,-153.38 900.25,-132.62 980.75,-132.62 980.75,-153.38"/>
<text xml:space="preserve" text-anchor="middle" x="940.5" y="-139.88" font-family="Helvetica,sans-Serif" font-size="10.00">utils/Config.h</text>
</a>
</g>
</g>
<!-- Node1&#45;&gt;Node14 -->
<g id="edge13_Node000001_Node000014" class="edge">
<title>Node1&#45;&gt;Node14</title>
<g id="a_edge13_Node000001_Node000014"><a xlink:title=" ">
<path fill="none" stroke="#63b8ff" d="M643.29,-202.34C710.31,-193.9 807.83,-179.65 891.5,-159.75 894.83,-158.96 898.25,-158.05 901.68,-157.08"/>
<polygon fill="#63b8ff" stroke="#63b8ff" points="902.45,-160.5 911.02,-154.27 900.43,-153.8 902.45,-160.5"/>
</a>
</g>
</g>
<!-- Node3 -->
<g id="Node000003" class="node">
<title>Node3</title>
<g id="a_Node000003"><a xlink:title=" ">
<polygon fill="#e0e0e0" stroke="#999999" points="133,-90.25 0,-90.25 0,-56.75 133,-56.75 133,-90.25"/>
<text xml:space="preserve" text-anchor="start" x="8" y="-76.75" font-family="Helvetica,sans-Serif" font-size="10.00">core/socket/stream</text>
<text xml:space="preserve" text-anchor="middle" x="66.5" y="-64" font-family="Helvetica,sans-Serif" font-size="10.00">/SocketContextFactory.h</text>
</a>
</g>
</g>
<!-- Node2&#45;&gt;Node3 -->
<g id="edge2_Node000002_Node000003" class="edge">
<title>Node2&#45;&gt;Node3</title>
<g id="a_edge2_Node000002_Node000003"><a xlink:title=" ">
<path fill="none" stroke="#63b8ff" d="M136.75,-132.33C125.82,-123.33 109.11,-109.57 94.72,-97.73"/>
<polygon fill="#63b8ff" stroke="#63b8ff" points="97.26,-95.28 87.31,-91.63 92.81,-100.69 97.26,-95.28"/>
</a>
</g>
</g>
<!-- Node4 -->
<g id="Node000004" class="node">
<title>Node4</title>
<g id="a_Node000004"><a xlink:title=" ">
<polygon fill="#e0e0e0" stroke="#999999" points="194.38,-83.88 150.62,-83.88 150.62,-63.12 194.38,-63.12 194.38,-83.88"/>
<text xml:space="preserve" text-anchor="middle" x="172.5" y="-70.38" font-family="Helvetica,sans-Serif" font-size="10.00">string</text>
</a>
</g>
</g>
<!-- Node2&#45;&gt;Node4 -->
<g id="edge3_Node000002_Node000004" class="edge">
<title>Node2&#45;&gt;Node4</title>
<g id="a_edge3_Node000002_Node000004"><a xlink:title=" ">
<path fill="none" stroke="#63b8ff" d="M151.94,-132.33C155.4,-122.6 160.83,-107.32 165.25,-94.9"/>
<polygon fill="#63b8ff" stroke="#63b8ff" points="168.51,-96.17 168.56,-85.58 161.91,-93.83 168.51,-96.17"/>
</a>
</g>
</g>
<!-- Node6 -->
<g id="Node000006" class="node">
<title>Node6</title>
<g id="a_Node000006"><a xlink:title=" ">
<polygon fill="#e0e0e0" stroke="#999999" points="353.12,-83.88 235.88,-83.88 235.88,-63.12 353.12,-63.12 353.12,-83.88"/>
<text xml:space="preserve" text-anchor="middle" x="294.5" y="-70.38" font-family="Helvetica,sans-Serif" font-size="10.00">utils/SubCommand.h</text>
</a>
</g>
</g>
<!-- Node5&#45;&gt;Node6 -->
<g id="edge5_Node000005_Node000006" class="edge">
<title>Node5&#45;&gt;Node6</title>
<g id="a_edge5_Node000005_Node000006"><a xlink:title=" ">
<path fill="none" stroke="#63b8ff" d="M294.5,-132.33C294.5,-122.71 294.5,-107.63 294.5,-95.29"/>
<polygon fill="#63b8ff" stroke="#63b8ff" points="298,-95.67 294.5,-85.67 291,-95.67 298,-95.67"/>
</a>
</g>
</g>
<!-- Node9 -->
<g id="Node000009" class="node">
<title>Node9</title>
<g id="a_Node000009"><a xlink:href="MqttMapper_8h.html" target="_top" xlink:title=" ">
<polygon fill="white" stroke="#666666" points="548.12,-83.88 448.88,-83.88 448.88,-63.12 548.12,-63.12 548.12,-83.88"/>
<text xml:space="preserve" text-anchor="middle" x="498.5" y="-70.38" font-family="Helvetica,sans-Serif" font-size="10.00">lib/MqttMapper.h</text>
</a>
</g>
</g>
<!-- Node8&#45;&gt;Node9 -->
<g id="edge8_Node000008_Node000009" class="edge">
<title>Node8&#45;&gt;Node9</title>
<g id="a_edge8_Node000008_Node000009"><a xlink:title=" ">
<path fill="none" stroke="#63b8ff" d="M553.33,-132.33C543.45,-121.9 527.5,-105.08 515.34,-92.26"/>
<polygon fill="#63b8ff" stroke="#63b8ff" points="518.11,-90.1 508.69,-85.25 513.03,-94.92 518.11,-90.1"/>
</a>
</g>
</g>
<!-- Node11 -->
<g id="Node000011" class="node">
<title>Node11</title>
<g id="a_Node000011"><a xlink:title=" ">
<polygon fill="#e0e0e0" stroke="#999999" points="685.25,-83.88 565.75,-83.88 565.75,-63.12 685.25,-63.12 685.25,-83.88"/>
<text xml:space="preserve" text-anchor="middle" x="625.5" y="-70.38" font-family="Helvetica,sans-Serif" font-size="10.00">iot/mqtt/client/Mqtt.h</text>
</a>
</g>
</g>
<!-- Node8&#45;&gt;Node11 -->
<g id="edge10_Node000008_Node000011" class="edge">
<title>Node8&#45;&gt;Node11</title>
<g id="a_edge10_Node000008_Node000011"><a xlink:title=" ">
<path fill="none" stroke="#63b8ff" d="M571.53,-132.33C581.26,-121.9 596.96,-105.08 608.92,-92.26"/>
<polygon fill="#63b8ff" stroke="#63b8ff" points="611.19,-94.96 615.46,-85.26 606.08,-90.18 611.19,-94.96"/>
</a>
</g>
</g>
<!-- Node10 -->
<g id="Node000010" class="node">
<title>Node10</title>
<g id="a_Node000010"><a xlink:title=" ">
<polygon fill="#e0e0e0" stroke="#999999" points="551.5,-20.75 445.5,-20.75 445.5,0 551.5,0 551.5,-20.75"/>
<text xml:space="preserve" text-anchor="middle" x="498.5" y="-7.25" font-family="Helvetica,sans-Serif" font-size="10.00">core/timer/Timer.h</text>
</a>
</g>
</g>
<!-- Node9&#45;&gt;Node10 -->
<g id="edge9_Node000009_Node000010" class="edge">
<title>Node9&#45;&gt;Node10</title>
<g id="a_edge9_Node000009_Node000010"><a xlink:title=" ">
<path fill="none" stroke="#63b8ff" d="M498.5,-62.68C498.5,-54.52 498.5,-42.63 498.5,-32.35"/>
<polygon fill="#63b8ff" stroke="#63b8ff" points="502,-32.48 498.5,-22.48 495,-32.48 502,-32.48"/>
</a>
</g>
</g>
</g>
</svg>
