<?xml version="1.0" encoding="UTF-8" standalone="no"?>
<!DOCTYPE svg PUBLIC "-//W3C//DTD SVG 1.1//EN"
 "http://www.w3.org/Graphics/SVG/1.1/DTD/svg11.dtd">
<!-- Generated by graphviz version 14.1.2 (0)
 -->
<!-- Title: startBridges Pages: 1 -->
<svg width="285pt" height="94pt"
 viewBox="0.00 0.00 285.00 94.00" xmlns="http://www.w3.org/2000/svg" xmlns:xlink="http://www.w3.org/1999/xlink">
<g id="graph0" class="graph" transform="scale(1 1) rotate(0) translate(4 89.5)">
<title>startBridges</title>
<!-- Node1 -->
<g id="Node000001" class="node">
<title>Node1</title>
<g id="a_Node000001"><a xlink:title=" ">
<polygon fill="#999999" stroke="#666666" points="75.25,-53.12 0,-53.12 0,-32.38 75.25,-32.38 75.25,-53.12"/>
<text xml:space="preserve" text-anchor="middle" x="37.62" y="-39.62" font-family="Helvetica,sans-Serif" font-size="10.00">startBridges</text>
</a>
</g>
</g>
<!-- Node2 -->
<g id="Node000002" class="node">
<title>Node2</title>
<g id="a_Node000002"><a xlink:href="classmqtt_1_1bridge_1_1lib_1_1SSEDistributor.html#a2b97b3e1b7139a536dc1d9a7192bb9de" target="_top" xlink:title=" ">
<polygon fill="white" stroke="#666666" points="277.25,-85.5 111.25,-85.5 111.25,-52 277.25,-52 277.25,-85.5"/>
<text xml:space="preserve" text-anchor="start" x="119.25" y="-72" font-family="Helvetica,sans-Serif" font-size="10.00">mqtt::bridge::lib::</text>
<text xml:space="preserve" text-anchor="middle" x="194.25" y="-59.25" font-family="Helvetica,sans-Serif" font-size="10.00">SSEDistributor::bridgesStarting</text>
</a>
</g>
</g>
<!-- Node1&#45;&gt;Node2 -->
<g id="edge1_Node000001_Node000002" class="edge">
<title>Node1&#45;&gt;Node2</title>
<g id="a_edge1_Node000001_Node000002"><a xlink:title=" ">
<path fill="none" stroke="#63b8ff" d="M75.66,-48.98C83.12,-50.23 91.26,-51.6 99.68,-53.02"/>
<polygon fill="#63b8ff" stroke="#63b8ff" points="98.93,-56.44 109.37,-54.65 100.09,-49.54 98.93,-56.44"/>
</a>
</g>
</g>
<!-- Node3 -->
<g id="Node000003" class="node">
<title>Node3</title>
<g id="a_Node000003"><a xlink:href="classmqtt_1_1bridge_1_1lib_1_1SSEDistributor.html#ab6cc33c1c26ccfbd738a5ec2700f0896" target="_top" xlink:title=" ">
<polygon fill="white" stroke="#666666" points="260.75,-33.5 127.75,-33.5 127.75,0 260.75,0 260.75,-33.5"/>
<text xml:space="preserve" text-anchor="start" x="135.75" y="-20" font-family="Helvetica,sans-Serif" font-size="10.00">mqtt::bridge::lib::</text>
<text xml:space="preserve" text-anchor="middle" x="194.25" y="-7.25" font-family="Helvetica,sans-Serif" font-size="10.00">SSEDistributor::instance</text>
</a>
</g>
</g>
<!-- Node1&#45;&gt;Node3 -->
<g id="edge2_Node000001_Node000003" class="edge">
<title>Node1&#45;&gt;Node3</title>
<g id="a_edge2_Node000001_Node000003"><a xlink:title=" ">
<path fill="none" stroke="#63b8ff" d="M75.66,-36.52C87.93,-34.46 102.07,-32.08 116.2,-29.71"/>
<polygon fill="#63b8ff" stroke="#63b8ff" points="116.72,-33.17 126.01,-28.06 115.56,-26.26 116.72,-33.17"/>
</a>
</g>
</g>
</g>
</svg>
