<?xml version="1.0" encoding="UTF-8" standalone="no"?>
<!DOCTYPE svg PUBLIC "-//W3C//DTD SVG 1.1//EN"
 "http://www.w3.org/Graphics/SVG/1.1/DTD/svg11.dtd">
<!-- Generated by graphviz version 14.1.2 (0)
 -->
<!-- Title: mqttbridge/lib/Mqtt.cpp Pages: 1 -->
<svg width="170pt" height="199pt"
 viewBox="0.00 0.00 170.00 199.00" xmlns="http://www.w3.org/2000/svg" xmlns:xlink="http://www.w3.org/1999/xlink">

<svg id="main" version="1.1" xmlns="http://www.w3.org/2000/svg" xmlns:xlink="http://www.w3.org/1999/xlink" xml:space="preserve">

<style type="text/css"><![CDATA[
.node, .edge {opacity: 0.7;}
.node.selected, .edge.selected {opacity: 1;}
.edge:hover path { stroke: red; }
.edge:hover polygon { stroke: red; fill: red; }
]]></style>
<script type="application/ecmascript" xlink:href="svg.min.js"/>
<svg id="graph" class="graph">
<g id="graph0" class="graph" transform="scale(1 1) rotate(0) translate(4 195)">
<title>mqttbridge/lib/Mqtt.cpp</title>
<!-- Node1 -->
<g id="Node000001" class="node">
<title>Node1</title>
<g id="a_Node000001"><a xlink:title=" ">
<polygon fill="#999999" stroke="#666666" points="134.12,-191 3.38,-191 3.38,-170.25 134.12,-170.25 134.12,-191"/>
<text xml:space="preserve" text-anchor="middle" x="68.75" y="-177.5" font-family="Helvetica,sans-Serif" font-size="10.00">mqttbridge/lib/Mqtt.cpp</text>
</a>
</g>
</g>
<!-- Node2 -->
<g id="Node000002" class="node">
<title>Node2</title>
<g id="a_Node000002"><a xlink:href="mqttbridge_2lib_2Mqtt_8h.html" target="_top" xlink:title=" ">
<polygon fill="white" stroke="#666666" points="47.5,-134.25 0,-134.25 0,-113.5 47.5,-113.5 47.5,-134.25"/>
<text xml:space="preserve" text-anchor="middle" x="23.75" y="-120.75" font-family="Helvetica,sans-Serif" font-size="10.00">Mqtt.h</text>
</a>
</g>
</g>
<!-- Node1&#45;&gt;Node2 -->
<g id="edge1_Node000001_Node000002" class="edge">
<title>Node1&#45;&gt;Node2</title>
<g id="a_edge1_Node000001_Node000002"><a xlink:title=" ">
<path fill="none" stroke="#63b8ff" d="M60.7,-169.84C54.69,-162.52 46.28,-152.29 39.01,-143.44"/>
<polygon fill="#63b8ff" stroke="#63b8ff" points="41.74,-141.25 32.69,-135.75 36.33,-145.7 41.74,-141.25"/>
</a>
</g>
</g>
<!-- Node3 -->
<g id="Node000003" class="node">
<title>Node3</title>
<g id="a_Node000003"><a xlink:href="BridgeStore_8h.html" target="_top" xlink:title=" ">
<polygon fill="white" stroke="#666666" points="162.25,-134.25 65.25,-134.25 65.25,-113.5 162.25,-113.5 162.25,-134.25"/>
<text xml:space="preserve" text-anchor="middle" x="113.75" y="-120.75" font-family="Helvetica,sans-Serif" font-size="10.00">lib/BridgeStore.h</text>
</a>
</g>
</g>
<!-- Node1&#45;&gt;Node3 -->
<g id="edge2_Node000001_Node000003" class="edge">
<title>Node1&#45;&gt;Node3</title>
<g id="a_edge2_Node000001_Node000003"><a xlink:title=" ">
<path fill="none" stroke="#63b8ff" d="M76.8,-169.84C82.81,-162.52 91.22,-152.29 98.49,-143.44"/>
<polygon fill="#63b8ff" stroke="#63b8ff" points="101.17,-145.7 104.81,-135.75 95.76,-141.25 101.17,-145.7"/>
</a>
</g>
</g>
<!-- Node4 -->
<g id="Node000004" class="node">
<title>Node4</title>
<g id="a_Node000004"><a xlink:href="Bridge_8h.html" target="_top" xlink:title=" ">
<polygon fill="white" stroke="#666666" points="117.5,-77.5 46,-77.5 46,-56.75 117.5,-56.75 117.5,-77.5"/>
<text xml:space="preserve" text-anchor="middle" x="81.75" y="-64" font-family="Helvetica,sans-Serif" font-size="10.00">lib/Bridge.h</text>
</a>
</g>
</g>
<!-- Node3&#45;&gt;Node4 -->
<g id="edge3_Node000003_Node000004" class="edge">
<title>Node3&#45;&gt;Node4</title>
<g id="a_edge3_Node000003_Node000004"><a xlink:title=" ">
<path fill="none" stroke="#63b8ff" d="M108.03,-113.09C103.89,-106 98.15,-96.19 93.1,-87.54"/>
<polygon fill="#63b8ff" stroke="#63b8ff" points="96.25,-86 88.19,-79.14 90.21,-89.53 96.25,-86"/>
</a>
</g>
</g>
<!-- Node5 -->
<g id="Node000005" class="node">
<title>Node5</title>
<g id="a_Node000005"><a xlink:href="Broker_8h.html" target="_top" xlink:title=" ">
<polygon fill="white" stroke="#666666" points="149.5,-20.75 78,-20.75 78,0 149.5,0 149.5,-20.75"/>
<text xml:space="preserve" text-anchor="middle" x="113.75" y="-7.25" font-family="Helvetica,sans-Serif" font-size="10.00">lib/Broker.h</text>
</a>
</g>
</g>
<!-- Node3&#45;&gt;Node5 -->
<g id="edge5_Node000003_Node000005" class="edge">
<title>Node3&#45;&gt;Node5</title>
<g id="a_edge5_Node000003_Node000005"><a xlink:title=" ">
<path fill="none" stroke="#63b8ff" d="M117.34,-113.31C120.53,-104.24 124.97,-90.16 126.75,-77.5 128.03,-68.37 128.03,-65.88 126.75,-56.75 125.58,-48.44 123.27,-39.52 120.92,-31.81"/>
<polygon fill="#63b8ff" stroke="#63b8ff" points="124.26,-30.78 117.81,-22.38 117.61,-32.97 124.26,-30.78"/>
</a>
</g>
</g>
<!-- Node4&#45;&gt;Node5 -->
<g id="edge4_Node000004_Node000005" class="edge">
<title>Node4&#45;&gt;Node5</title>
<g id="a_edge4_Node000004_Node000005"><a xlink:title=" ">
<path fill="none" stroke="#63b8ff" d="M87.47,-56.34C91.61,-49.25 97.35,-39.44 102.4,-30.79"/>
<polygon fill="#63b8ff" stroke="#63b8ff" points="105.29,-32.78 107.31,-22.39 99.25,-29.25 105.29,-32.78"/>
</a>
</g>
</g>
</g>
</svg>
</svg>

<style type='text/css'>
<![CDATA[
[data-mouse-over-selected='false'] { opacity: 0.7; }
[data-mouse-over-selected='true']  { opacity: 1.0; }
]]>
</style>
<script type="application/ecmascript"><![CDATA[
document.addEventListener('DOMContentLoaded', (event) => {
  highlightEdges();
  highlightAdjacentNodes();
});
]]></script>
</svg>
