<?xml version="1.0" encoding="UTF-8" standalone="no"?>
<!DOCTYPE svg PUBLIC "-//W3C//DTD SVG 1.1//EN"
 "http://www.w3.org/Graphics/SVG/1.1/DTD/svg11.dtd">
<!-- Generated by graphviz version 14.1.2 (0)
 -->
<!-- Title: getRouter Pages: 1 -->
<svg width="466pt" height="197pt"
 viewBox="0.00 0.00 466.00 197.00" xmlns="http://www.w3.org/2000/svg" xmlns:xlink="http://www.w3.org/1999/xlink">
<g id="graph0" class="graph" transform="scale(1 1) rotate(0) translate(4 192.5)">
<title>getRouter</title>
<!-- Node1 -->
<g id="Node000001" class="node">
<title>Node1</title>
<g id="a_Node000001"><a xlink:title=" ">
<polygon fill="#999999" stroke="#666666" points="64,-65.75 0,-65.75 0,-45 64,-45 64,-65.75"/>
<text xml:space="preserve" text-anchor="middle" x="32" y="-52.25" font-family="Helvetica,sans-Serif" font-size="10.00">getRouter</text>
</a>
</g>
</g>
<!-- Node2 -->
<g id="Node000002" class="node">
<title>Node2</title>
<g id="a_Node000002"><a xlink:href="classmqtt_1_1mqttbroker_1_1lib_1_1MqttModel.html#a40a2fab52e479c480337550a4515ff52" target="_top" xlink:title=" ">
<polygon fill="white" stroke="#666666" points="269,-124.12 100,-124.12 100,-90.62 269,-90.62 269,-124.12"/>
<text xml:space="preserve" text-anchor="start" x="108" y="-110.62" font-family="Helvetica,sans-Serif" font-size="10.00">mqtt::mqttbroker::lib</text>
<text xml:space="preserve" text-anchor="middle" x="184.5" y="-97.88" font-family="Helvetica,sans-Serif" font-size="10.00">::MqttModel::addEventReceiver</text>
</a>
</g>
</g>
<!-- Node1&#45;&gt;Node2 -->
<g id="edge1_Node000001_Node000002" class="edge">
<title>Node1&#45;&gt;Node2</title>
<g id="a_edge1_Node000001_Node000002"><a xlink:title=" ">
<path fill="none" stroke="#63b8ff" d="M59.58,-66.17C71.82,-71.02 86.57,-76.68 100,-81.38 105.02,-83.13 110.23,-84.89 115.49,-86.62"/>
<polygon fill="#63b8ff" stroke="#63b8ff" points="114.25,-89.9 124.85,-89.66 116.42,-83.24 114.25,-89.9"/>
</a>
</g>
</g>
<!-- Node6 -->
<g id="Node000006" class="node">
<title>Node6</title>
<g id="a_Node000006"><a xlink:href="classmqtt_1_1mqttbroker_1_1lib_1_1MqttModel.html#a472d48d30d9626c722b64ddce4002e5f" target="_top" xlink:title=" ">
<polygon fill="white" stroke="#666666" points="245.38,-72.12 123.62,-72.12 123.62,-38.62 245.38,-38.62 245.38,-72.12"/>
<text xml:space="preserve" text-anchor="start" x="131.62" y="-58.62" font-family="Helvetica,sans-Serif" font-size="10.00">mqtt::mqttbroker::lib</text>
<text xml:space="preserve" text-anchor="middle" x="184.5" y="-45.88" font-family="Helvetica,sans-Serif" font-size="10.00">::MqttModel::instance</text>
</a>
</g>
</g>
<!-- Node1&#45;&gt;Node6 -->
<g id="edge5_Node000001_Node000006" class="edge">
<title>Node1&#45;&gt;Node6</title>
<g id="a_edge5_Node000001_Node000006"><a xlink:title=" ">
<path fill="none" stroke="#63b8ff" d="M64.18,-55.38C78.03,-55.38 94.96,-55.38 111.66,-55.38"/>
<polygon fill="#63b8ff" stroke="#63b8ff" points="111.64,-58.88 121.64,-55.38 111.64,-51.88 111.64,-58.88"/>
</a>
</g>
</g>
<!-- Node7 -->
<g id="Node000007" class="node">
<title>Node7</title>
<g id="a_Node000007"><a xlink:href="mqttbroker_8cpp.html#aa9363d0fb23c5579b9c054c18881d9bd" target="_top" xlink:title=" ">
<polygon fill="white" stroke="#666666" points="212.38,-20.75 156.62,-20.75 156.62,0 212.38,0 212.38,-20.75"/>
<text xml:space="preserve" text-anchor="middle" x="184.5" y="-7.25" font-family="Helvetica,sans-Serif" font-size="10.00">upgrade</text>
</a>
</g>
</g>
<!-- Node1&#45;&gt;Node7 -->
<g id="edge6_Node000001_Node000007" class="edge">
<title>Node1&#45;&gt;Node7</title>
<g id="a_edge6_Node000001_Node000007"><a xlink:title=" ">
<path fill="none" stroke="#63b8ff" d="M58.14,-44.61C70.59,-39.54 85.92,-33.68 100,-29.38 114.58,-24.91 130.89,-20.98 145.19,-17.86"/>
<polygon fill="#63b8ff" stroke="#63b8ff" points="145.62,-21.35 154.68,-15.86 144.17,-14.5 145.62,-21.35"/>
</a>
</g>
</g>
<!-- Node3 -->
<g id="Node000003" class="node">
<title>Node3</title>
<g id="a_Node000003"><a xlink:href="classmqtt_1_1mqttbroker_1_1lib_1_1MqttModel_1_1EventReceiver.html#af43d1bf9f3b994c70d4f6ab419c9092e" target="_top" xlink:title=" ">
<polygon fill="white" stroke="#666666" points="456.75,-188.5 305.75,-188.5 305.75,-142.25 456.75,-142.25 456.75,-188.5"/>
<text xml:space="preserve" text-anchor="start" x="313.75" y="-175" font-family="Helvetica,sans-Serif" font-size="10.00">mqtt::mqttbroker::lib</text>
<text xml:space="preserve" text-anchor="start" x="313.75" y="-162.25" font-family="Helvetica,sans-Serif" font-size="10.00">::MqttModel::EventReceiver</text>
<text xml:space="preserve" text-anchor="middle" x="381.25" y="-149.5" font-family="Helvetica,sans-Serif" font-size="10.00">::getId</text>
</a>
</g>
</g>
<!-- Node2&#45;&gt;Node3 -->
<g id="edge2_Node000002_Node000003" class="edge">
<title>Node2&#45;&gt;Node3</title>
<g id="a_edge2_Node000002_Node000003"><a xlink:title=" ">
<path fill="none" stroke="#63b8ff" d="M243.4,-124.62C259.56,-129.43 277.46,-134.76 294.85,-139.94"/>
<polygon fill="#63b8ff" stroke="#63b8ff" points="293.55,-143.21 304.13,-142.71 295.55,-136.5 293.55,-143.21"/>
</a>
</g>
</g>
<!-- Node4 -->
<g id="Node000004" class="node">
<title>Node4</title>
<g id="a_Node000004"><a xlink:href="classmqtt_1_1mqttbroker_1_1lib_1_1MqttModel.html#acca53577f6014b5d170b4badfd675f53" target="_top" xlink:title=" ">
<polygon fill="white" stroke="#666666" points="457.5,-124.12 305,-124.12 305,-90.62 457.5,-90.62 457.5,-124.12"/>
<text xml:space="preserve" text-anchor="start" x="313" y="-110.62" font-family="Helvetica,sans-Serif" font-size="10.00">mqtt::mqttbroker::lib</text>
<text xml:space="preserve" text-anchor="middle" x="381.25" y="-97.88" font-family="Helvetica,sans-Serif" font-size="10.00">::MqttModel::onlineDuration</text>
</a>
</g>
</g>
<!-- Node2&#45;&gt;Node4 -->
<g id="edge3_Node000002_Node000004" class="edge">
<title>Node2&#45;&gt;Node4</title>
<g id="a_edge3_Node000002_Node000004"><a xlink:title=" ">
<path fill="none" stroke="#63b8ff" d="M269.22,-107.38C277.21,-107.38 285.32,-107.38 293.34,-107.38"/>
<polygon fill="#63b8ff" stroke="#63b8ff" points="293.08,-110.88 303.08,-107.38 293.08,-103.88 293.08,-110.88"/>
</a>
</g>
</g>
<!-- Node5 -->
<g id="Node000005" class="node">
<title>Node5</title>
<g id="a_Node000005"><a xlink:href="classmqtt_1_1mqttbroker_1_1lib_1_1MqttModel.html#adee9c82d70f6ea30bbc0217efc16d440" target="_top" xlink:title=" ">
<polygon fill="white" stroke="#666666" points="449.62,-72.12 312.88,-72.12 312.88,-38.62 449.62,-38.62 449.62,-72.12"/>
<text xml:space="preserve" text-anchor="start" x="320.88" y="-58.62" font-family="Helvetica,sans-Serif" font-size="10.00">mqtt::mqttbroker::lib</text>
<text xml:space="preserve" text-anchor="middle" x="381.25" y="-45.88" font-family="Helvetica,sans-Serif" font-size="10.00">::MqttModel::onlineSince</text>
</a>
</g>
</g>
<!-- Node2&#45;&gt;Node5 -->
<g id="edge4_Node000002_Node000005" class="edge">
<title>Node2&#45;&gt;Node5</title>
<g id="a_edge4_Node000002_Node000005"><a xlink:title=" ">
<path fill="none" stroke="#63b8ff" d="M250.08,-90.13C267.59,-85.46 286.71,-80.35 304.76,-75.53"/>
<polygon fill="#63b8ff" stroke="#63b8ff" points="305.63,-78.92 314.38,-72.96 303.82,-72.16 305.63,-78.92"/>
</a>
</g>
</g>
</g>
</svg>
