<?xml version="1.0" encoding="UTF-8" standalone="no"?>
<!DOCTYPE svg PUBLIC "-//W3C//DTD SVG 1.1//EN"
 "http://www.w3.org/Graphics/SVG/1.1/DTD/svg11.dtd">
<!-- Generated by graphviz version 14.1.2 (0)
 -->
<!-- Title: mqttbroker/mqttbroker.cpp Pages: 1 -->
<!--zoomable 168 -->

<svg id="main" version="1.1" xmlns="http://www.w3.org/2000/svg" xmlns:xlink="http://www.w3.org/1999/xlink" xml:space="preserve" onload="init(evt)">

<style type="text/css"><![CDATA[
.node, .edge {opacity: 0.7;}
.node.selected, .edge.selected {opacity: 1;}
.edge:hover path { stroke: red; }
.edge:hover polygon { stroke: red; fill: red; }
]]></style>

<defs>
  <circle id="rim" cx="0" cy="0" r="7"/>
  <circle id="rim2" cx="0" cy="0" r="3.5"/>
  <g id="zoomPlus">
    <use xlink:href="#rim" fill="#404040"><set attributeName="fill" to="#808080" begin="zoomplus.mouseover" end="zoomplus.mouseout"/></use>
    <path d="M-4,0h8M0,-4v8" fill="none" stroke="white" stroke-width="1.5" pointer-events="none"/>
  </g>
  <g id="zoomMin">
    <use xlink:href="#rim" fill="#404040"><set attributeName="fill" to="#808080" begin="zoomminus.mouseover" end="zoomminus.mouseout"/></use>
    <path d="M-4,0h8" fill="none" stroke="white" stroke-width="1.5" pointer-events="none"/>
  </g>
  <g id="arrowUp" transform="translate(30 24)">
    <use xlink:href="#rim"/>
    <path pointer-events="none" fill="none" stroke="white" stroke-width="1.5" d="M0,-3.0v7 M-2.5,-0.5L0,-3.0L2.5,-0.5"/>
  </g>
  <g id="arrowRight" transform="rotate(90) translate(36 -43)">
    <use xlink:href="#rim"/>
    <path pointer-events="none" fill="none" stroke="white" stroke-width="1.5" d="M0,-3.0v7 M-2.5,-0.5L0,-3.0L2.5,-0.5"/>
  </g>
  <g id="arrowDown" transform="rotate(180) translate(-30 -48)">
    <use xlink:href="#rim"/>
    <path pointer-events="none" fill="none" stroke="white" stroke-width="1.5" d="M0,-3.0v7 M-2.5,-0.5L0,-3.0L2.5,-0.5"/>
  </g>
  <g id="arrowLeft" transform="rotate(270) translate(-36 17)">
    <use xlink:href="#rim"/>
    <path pointer-events="none" fill="none" stroke="white" stroke-width="1.5" d="M0,-3.0v7 M-2.5,-0.5L0,-3.0L2.5,-0.5"/>
  </g>
  <g id="resetDef">
    <use xlink:href="#rim2" fill="#404040"><set attributeName="fill" to="#808080" begin="reset.mouseover" end="reset.mouseout"/></use>
  </g>
</defs>
<script type="application/ecmascript">
var viewWidth = 1305;
var viewHeight = 168;
var sectionId = 'dynsection-0';
</script>
<script type="application/ecmascript" xlink:href="svg.min.js"/>
<svg id="graph" class="graph">
<g id="viewport">
<title>mqttbroker/mqttbroker.cpp</title>
<!-- Node1 -->
<g id="Node000001" class="node">
<title>Node1</title>
<g id="a_Node000001"><a xlink:title=" ">
<polygon fill="#999999" stroke="#666666" points="676.12,-159.75 528.88,-159.75 528.88,-139 676.12,-139 676.12,-159.75"/>
<text xml:space="preserve" text-anchor="middle" x="602.5" y="-146.25" font-family="Helvetica,sans-Serif" font-size="10.00">mqttbroker/mqttbroker.cpp</text>
</a>
</g>
</g>
<!-- Node2 -->
<g id="Node000002" class="node">
<title>Node2</title>
<g id="a_Node000002"><a xlink:href="mqttbroker_2SocketContextFactory_8h.html" target="_top" xlink:title=" ">
<polygon fill="white" stroke="#666666" points="131.5,-96.62 1.5,-96.62 1.5,-75.88 131.5,-75.88 131.5,-96.62"/>
<text xml:space="preserve" text-anchor="middle" x="66.5" y="-83.12" font-family="Helvetica,sans-Serif" font-size="10.00">SocketContextFactory.h</text>
</a>
</g>
</g>
<!-- Node1&#45;&gt;Node2 -->
<g id="edge1_Node000001_Node000002" class="edge">
<title>Node1&#45;&gt;Node2</title>
<g id="a_edge1_Node000001_Node000002"><a xlink:title=" ">
<path fill="none" stroke="#63b8ff" d="M528.74,-143.6C437.45,-137.12 277.42,-123.9 141.5,-103 134.6,-101.94 127.37,-100.65 120.24,-99.27"/>
<polygon fill="#63b8ff" stroke="#63b8ff" points="121.16,-95.89 110.67,-97.35 119.79,-102.75 121.16,-95.89"/>
</a>
</g>
</g>
<!-- Node4 -->
<g id="Node000004" class="node">
<title>Node4</title>
<g id="a_Node000004"><a xlink:title=" ">
<polygon fill="#e0e0e0" stroke="#999999" points="205,-96.62 150,-96.62 150,-75.88 205,-75.88 205,-96.62"/>
<text xml:space="preserve" text-anchor="middle" x="177.5" y="-83.12" font-family="Helvetica,sans-Serif" font-size="10.00">config.h</text>
</a>
</g>
</g>
<!-- Node1&#45;&gt;Node4 -->
<g id="edge3_Node000001_Node000004" class="edge">
<title>Node1&#45;&gt;Node4</title>
<g id="a_edge3_Node000001_Node000004"><a xlink:title=" ">
<path fill="none" stroke="#63b8ff" d="M528.39,-145.99C449.43,-142 321.35,-131.36 214.5,-103 212.37,-102.44 210.21,-101.77 208.05,-101.04"/>
<polygon fill="#63b8ff" stroke="#63b8ff" points="209.49,-97.84 198.9,-97.53 206.98,-104.38 209.49,-97.84"/>
</a>
</g>
</g>
<!-- Node5 -->
<g id="Node000005" class="node">
<title>Node5</title>
<g id="a_Node000005"><a xlink:href="ConfigApplication_8h.html" target="_top" xlink:title=" ">
<polygon fill="white" stroke="#666666" points="349.62,-96.62 223.38,-96.62 223.38,-75.88 349.62,-75.88 349.62,-96.62"/>
<text xml:space="preserve" text-anchor="middle" x="286.5" y="-83.12" font-family="Helvetica,sans-Serif" font-size="10.00">lib/ConfigApplication.h</text>
</a>
</g>
</g>
<!-- Node1&#45;&gt;Node5 -->
<g id="edge4_Node000001_Node000005" class="edge">
<title>Node1&#45;&gt;Node5</title>
<g id="a_edge4_Node000001_Node000005"><a xlink:title=" ">
<path fill="none" stroke="#63b8ff" d="M546.68,-138.51C497.16,-129.64 422.9,-116.03 358.5,-103 352.92,-101.87 347.11,-100.66 341.31,-99.43"/>
<polygon fill="#63b8ff" stroke="#63b8ff" points="342.23,-96.05 331.72,-97.37 340.76,-102.89 342.23,-96.05"/>
</a>
</g>
</g>
<!-- Node7 -->
<g id="Node000007" class="node">
<title>Node7</title>
<g id="a_Node000007"><a xlink:href="mqttbroker_2lib_2Mqtt_8h.html" target="_top" xlink:title=" ">
<polygon fill="white" stroke="#666666" points="429.75,-96.62 367.25,-96.62 367.25,-75.88 429.75,-75.88 429.75,-96.62"/>
<text xml:space="preserve" text-anchor="middle" x="398.5" y="-83.12" font-family="Helvetica,sans-Serif" font-size="10.00">lib/Mqtt.h</text>
</a>
</g>
</g>
<!-- Node1&#45;&gt;Node7 -->
<g id="edge6_Node000001_Node000007" class="edge">
<title>Node1&#45;&gt;Node7</title>
<g id="a_edge6_Node000001_Node000007"><a xlink:title=" ">
<path fill="none" stroke="#63b8ff" d="M562.99,-138.5C529.78,-129.94 481.2,-116.78 439.5,-103 437.44,-102.32 435.32,-101.59 433.2,-100.84"/>
<polygon fill="#63b8ff" stroke="#63b8ff" points="434.66,-97.65 424.06,-97.49 432.24,-104.22 434.66,-97.65"/>
</a>
</g>
</g>
<!-- Node9 -->
<g id="Node000009" class="node">
<title>Node9</title>
<g id="a_Node000009"><a xlink:href="MqttModel_8h.html" target="_top" xlink:title=" ">
<polygon fill="white" stroke="#666666" points="540.75,-96.62 448.25,-96.62 448.25,-75.88 540.75,-75.88 540.75,-96.62"/>
<text xml:space="preserve" text-anchor="middle" x="494.5" y="-83.12" font-family="Helvetica,sans-Serif" font-size="10.00">lib/MqttModel.h</text>
</a>
</g>
</g>
<!-- Node1&#45;&gt;Node9 -->
<g id="edge8_Node000001_Node000009" class="edge">
<title>Node1&#45;&gt;Node9</title>
<g id="a_edge8_Node000001_Node000009"><a xlink:title=" ">
<path fill="none" stroke="#63b8ff" d="M585.15,-138.55C568.06,-128.89 541.72,-113.97 521.82,-102.71"/>
<polygon fill="#63b8ff" stroke="#63b8ff" points="523.55,-99.67 513.13,-97.79 520.11,-105.76 523.55,-99.67"/>
</a>
</g>
</g>
<!-- Node11 -->
<g id="Node000011" class="node">
<title>Node11</title>
<g id="a_Node000011"><a xlink:title=" ">
<polygon fill="#e0e0e0" stroke="#999999" points="646.12,-96.62 558.88,-96.62 558.88,-75.88 646.12,-75.88 646.12,-96.62"/>
<text xml:space="preserve" text-anchor="middle" x="602.5" y="-83.12" font-family="Helvetica,sans-Serif" font-size="10.00">core/SNodeC.h</text>
</a>
</g>
</g>
<!-- Node1&#45;&gt;Node11 -->
<g id="edge10_Node000001_Node000011" class="edge">
<title>Node1&#45;&gt;Node11</title>
<g id="a_edge10_Node000001_Node000011"><a xlink:title=" ">
<path fill="none" stroke="#63b8ff" d="M602.5,-138.55C602.5,-130.4 602.5,-118.51 602.5,-108.23"/>
<polygon fill="#63b8ff" stroke="#63b8ff" points="606,-108.36 602.5,-98.36 599,-108.36 606,-108.36"/>
</a>
</g>
</g>
<!-- Node12 -->
<g id="Node000012" class="node">
<title>Node12</title>
<g id="a_Node000012"><a xlink:title=" ">
<polygon fill="#e0e0e0" stroke="#999999" points="744.75,-96.62 664.25,-96.62 664.25,-75.88 744.75,-75.88 744.75,-96.62"/>
<text xml:space="preserve" text-anchor="middle" x="704.5" y="-83.12" font-family="Helvetica,sans-Serif" font-size="10.00">utils/Config.h</text>
</a>
</g>
</g>
<!-- Node1&#45;&gt;Node12 -->
<g id="edge11_Node000001_Node000012" class="edge">
<title>Node1&#45;&gt;Node12</title>
<g id="a_edge11_Node000001_Node000012"><a xlink:title=" ">
<path fill="none" stroke="#63b8ff" d="M618.89,-138.55C634.95,-128.93 659.68,-114.11 678.44,-102.87"/>
<polygon fill="#63b8ff" stroke="#63b8ff" points="680.08,-105.97 686.85,-97.82 676.48,-99.96 680.08,-105.97"/>
</a>
</g>
</g>
<!-- Node13 -->
<g id="Node000013" class="node">
<title>Node13</title>
<g id="a_Node000013"><a xlink:title=" ">
<polygon fill="#e0e0e0" stroke="#999999" points="878,-103 763,-103 763,-69.5 878,-69.5 878,-103"/>
<text xml:space="preserve" text-anchor="start" x="771" y="-89.5" font-family="Helvetica,sans-Serif" font-size="10.00">express/middleware</text>
<text xml:space="preserve" text-anchor="middle" x="820.5" y="-76.75" font-family="Helvetica,sans-Serif" font-size="10.00">/JsonMiddleware.h</text>
</a>
</g>
</g>
<!-- Node1&#45;&gt;Node13 -->
<g id="edge12_Node000001_Node000013" class="edge">
<title>Node1&#45;&gt;Node13</title>
<g id="a_edge12_Node000001_Node000013"><a xlink:title=" ">
<path fill="none" stroke="#63b8ff" d="M637.53,-138.55C668.2,-129.95 713.67,-117.2 751.61,-106.57"/>
<polygon fill="#63b8ff" stroke="#63b8ff" points="752.46,-109.96 761.14,-103.89 750.57,-103.22 752.46,-109.96"/>
</a>
</g>
</g>
<!-- Node14 -->
<g id="Node000014" class="node">
<title>Node14</title>
<g id="a_Node000014"><a xlink:title=" ">
<polygon fill="#e0e0e0" stroke="#999999" points="1011,-103 896,-103 896,-69.5 1011,-69.5 1011,-103"/>
<text xml:space="preserve" text-anchor="start" x="904" y="-89.5" font-family="Helvetica,sans-Serif" font-size="10.00">express/middleware</text>
<text xml:space="preserve" text-anchor="middle" x="953.5" y="-76.75" font-family="Helvetica,sans-Serif" font-size="10.00">/StaticMiddleware.h</text>
</a>
</g>
</g>
<!-- Node1&#45;&gt;Node14 -->
<g id="edge13_Node000001_Node000014" class="edge">
<title>Node1&#45;&gt;Node14</title>
<g id="a_edge13_Node000001_Node000014"><a xlink:title=" ">
<path fill="none" stroke="#63b8ff" d="M674.22,-138.51C729.42,-130.55 807.83,-118.49 884.76,-103.47"/>
<polygon fill="#63b8ff" stroke="#63b8ff" points="884.99,-106.99 894.12,-101.62 883.63,-100.12 884.99,-106.99"/>
</a>
</g>
</g>
<!-- Node15 -->
<g id="Node000015" class="node">
<title>Node15</title>
<g id="a_Node000015"><a xlink:title=" ">
<polygon fill="#e0e0e0" stroke="#999999" points="1156.38,-96.62 1028.62,-96.62 1028.62,-75.88 1156.38,-75.88 1156.38,-96.62"/>
<text xml:space="preserve" text-anchor="middle" x="1092.5" y="-83.12" font-family="Helvetica,sans-Serif" font-size="10.00">iot/mqtt/MqttContext.h</text>
</a>
</g>
</g>
<!-- Node1&#45;&gt;Node15 -->
<g id="edge14_Node000001_Node000015" class="edge">
<title>Node1&#45;&gt;Node15</title>
<g id="a_edge14_Node000001_Node000015"><a xlink:title=" ">
<path fill="none" stroke="#63b8ff" d="M676.44,-142.76C760.23,-135.84 900.73,-122.54 1020.5,-103 1026.89,-101.96 1033.57,-100.71 1040.17,-99.38"/>
<polygon fill="#63b8ff" stroke="#63b8ff" points="1040.59,-102.87 1049.66,-97.4 1039.16,-96.02 1040.59,-102.87"/>
</a>
</g>
</g>
<!-- Node16 -->
<g id="Node000016" class="node">
<title>Node16</title>
<g id="a_Node000016"><a xlink:title=" ">
<polygon fill="#e0e0e0" stroke="#999999" points="1296.75,-103 1174.25,-103 1174.25,-69.5 1296.75,-69.5 1296.75,-103"/>
<text xml:space="preserve" text-anchor="start" x="1182.25" y="-89.5" font-family="Helvetica,sans-Serif" font-size="10.00">iot/mqtt/server/broker</text>
<text xml:space="preserve" text-anchor="middle" x="1235.5" y="-76.75" font-family="Helvetica,sans-Serif" font-size="10.00">/Broker.h</text>
</a>
</g>
</g>
<!-- Node1&#45;&gt;Node16 -->
<g id="edge15_Node000001_Node000016" class="edge">
<title>Node1&#45;&gt;Node16</title>
<g id="a_edge15_Node000001_Node000016"><a xlink:title=" ">
<path fill="none" stroke="#63b8ff" d="M676.21,-145.75C781.91,-141.25 982.79,-129.97 1162.49,-103.33"/>
<polygon fill="#63b8ff" stroke="#63b8ff" points="1162.89,-106.81 1172.26,-101.86 1161.85,-99.89 1162.89,-106.81"/>
</a>
</g>
</g>
<!-- Node3 -->
<g id="Node000003" class="node">
<title>Node3</title>
<g id="a_Node000003"><a xlink:title=" ">
<polygon fill="#e0e0e0" stroke="#999999" points="133,-33.5 0,-33.5 0,0 133,0 133,-33.5"/>
<text xml:space="preserve" text-anchor="start" x="8" y="-20" font-family="Helvetica,sans-Serif" font-size="10.00">core/socket/stream</text>
<text xml:space="preserve" text-anchor="middle" x="66.5" y="-7.25" font-family="Helvetica,sans-Serif" font-size="10.00">/SocketContextFactory.h</text>
</a>
</g>
</g>
<!-- Node2&#45;&gt;Node3 -->
<g id="edge2_Node000002_Node000003" class="edge">
<title>Node2&#45;&gt;Node3</title>
<g id="a_edge2_Node000002_Node000003"><a xlink:title=" ">
<path fill="none" stroke="#63b8ff" d="M66.5,-75.58C66.5,-67.69 66.5,-56.13 66.5,-45.41"/>
<polygon fill="#63b8ff" stroke="#63b8ff" points="70,-45.43 66.5,-35.43 63,-45.43 70,-45.43"/>
</a>
</g>
</g>
<!-- Node6 -->
<g id="Node000006" class="node">
<title>Node6</title>
<g id="a_Node000006"><a xlink:title=" ">
<polygon fill="#e0e0e0" stroke="#999999" points="319.12,-27.12 201.88,-27.12 201.88,-6.38 319.12,-6.38 319.12,-27.12"/>
<text xml:space="preserve" text-anchor="middle" x="260.5" y="-13.62" font-family="Helvetica,sans-Serif" font-size="10.00">utils/SubCommand.h</text>
</a>
</g>
</g>
<!-- Node5&#45;&gt;Node6 -->
<g id="edge5_Node000005_Node000006" class="edge">
<title>Node5&#45;&gt;Node6</title>
<g id="a_edge5_Node000005_Node000006"><a xlink:title=" ">
<path fill="none" stroke="#63b8ff" d="M282.77,-75.58C278.99,-65.75 273.02,-50.25 268.21,-37.77"/>
<polygon fill="#63b8ff" stroke="#63b8ff" points="271.62,-36.89 264.76,-28.82 265.09,-39.41 271.62,-36.89"/>
</a>
</g>
</g>
<!-- Node8 -->
<g id="Node000008" class="node">
<title>Node8</title>
<g id="a_Node000008"><a xlink:title=" ">
<polygon fill="#e0e0e0" stroke="#999999" points="460.12,-27.12 336.88,-27.12 336.88,-6.38 460.12,-6.38 460.12,-27.12"/>
<text xml:space="preserve" text-anchor="middle" x="398.5" y="-13.62" font-family="Helvetica,sans-Serif" font-size="10.00">iot/mqtt/server/Mqtt.h</text>
</a>
</g>
</g>
<!-- Node7&#45;&gt;Node8 -->
<g id="edge7_Node000007_Node000008" class="edge">
<title>Node7&#45;&gt;Node8</title>
<g id="a_edge7_Node000007_Node000008"><a xlink:title=" ">
<path fill="none" stroke="#63b8ff" d="M398.5,-75.58C398.5,-65.96 398.5,-50.88 398.5,-38.54"/>
<polygon fill="#63b8ff" stroke="#63b8ff" points="402,-38.92 398.5,-28.92 395,-38.92 402,-38.92"/>
</a>
</g>
</g>
<!-- Node10 -->
<g id="Node000010" class="node">
<title>Node10</title>
<g id="a_Node000010"><a xlink:title=" ">
<polygon fill="#e0e0e0" stroke="#999999" points="584.5,-27.12 478.5,-27.12 478.5,-6.38 584.5,-6.38 584.5,-27.12"/>
<text xml:space="preserve" text-anchor="middle" x="531.5" y="-13.62" font-family="Helvetica,sans-Serif" font-size="10.00">core/timer/Timer.h</text>
</a>
</g>
</g>
<!-- Node9&#45;&gt;Node10 -->
<g id="edge9_Node000009_Node000010" class="edge">
<title>Node9&#45;&gt;Node10</title>
<g id="a_edge9_Node000009_Node000010"><a xlink:title=" ">
<path fill="none" stroke="#63b8ff" d="M499.8,-75.58C505.24,-65.65 513.86,-49.93 520.74,-37.39"/>
<polygon fill="#63b8ff" stroke="#63b8ff" points="523.74,-39.18 525.48,-28.73 517.61,-35.82 523.74,-39.18"/>
</a>
</g>
</g>
</g>
</svg>

<g id="navigator" transform="translate(0 0)" fill="#404254">
  <rect fill="#f2f5e9" fill-opacity="0.5" stroke="#606060" stroke-width=".5" x="0" y="0" width="60" height="60"/>
  <use id="zoomplus" xlink:href="#zoomPlus" x="17" y="9" onmousedown="handleZoom(evt,'in')"/>
  <use id="zoomminus" xlink:href="#zoomMin" x="42" y="9" onmousedown="handleZoom(evt,'out')"/>
  <use id="reset" xlink:href="#resetDef" x="30" y="36" onmousedown="handleReset()"/>
   <use id="arrowup" xlink:href="#arrowUp" x="0" y="0" onmousedown="handlePan(0,-1)"/>
  <use id="arrowright" xlink:href="#arrowRight" x="0" y="0" onmousedown="handlePan(1,0)"/>
  <use id="arrowdown" xlink:href="#arrowDown" x="0" y="0" onmousedown="handlePan(0,1)"/>
  <use id="arrowleft" xlink:href="#arrowLeft" x="0" y="0" onmousedown="handlePan(-1,0)"/>
</g>
<svg viewBox="0 0 15 15" width="100%" height="30px" preserveAspectRatio="xMaxYMin meet">
 <g id="arrow_out" transform="scale(0.3 0.3)">
  <a xlink:href="mqttbroker_8cpp__incl_org.svg" target="_base">
   <rect id="button" ry="5" rx="5" y="6" x="6" height="38" width="38"
        fill="#f2f5e9" fill-opacity="0.5" stroke="#606060" stroke-width="1.0"/>
   <path id="arrow"
     d="M 11.500037,31.436501 C 11.940474,20.09759 22.043105,11.32322 32.158766,21.979434 L 37.068811,17.246167 C 37.068811,17.246167 37.088388,32 37.088388,32 L 22.160133,31.978069 C 22.160133,31.978069 26.997745,27.140456 26.997745,27.140456 C 18.528582,18.264221 13.291696,25.230495 11.500037,31.436501 z"
     style="fill:#404040;"/>
  </a>
 </g>
</svg>

<style type='text/css'>
<![CDATA[
[data-mouse-over-selected='false'] { opacity: 0.7; }
[data-mouse-over-selected='true']  { opacity: 1.0; }
]]>
</style>
<script type="application/ecmascript"><![CDATA[
document.addEventListener('DOMContentLoaded', (event) => {
  highlightEdges();
  highlightAdjacentNodes();
});
]]></script>
</svg>
