<?xml version="1.0" encoding="UTF-8" standalone="no"?>
<!DOCTYPE svg PUBLIC "-//W3C//DTD SVG 1.1//EN"
 "http://www.w3.org/Graphics/SVG/1.1/DTD/svg11.dtd">
<!-- Generated by graphviz version 14.1.2 (0)
 -->
<!-- Title: mqttbroker/SocketContextFactory.cpp Pages: 1 -->
<svg width="808pt" height="181pt"
 viewBox="0.00 0.00 808.00 181.00" xmlns="http://www.w3.org/2000/svg" xmlns:xlink="http://www.w3.org/1999/xlink">
<g id="graph0" class="graph" transform="scale(1 1) rotate(0) translate(4 176.5)">
<title>mqttbroker/SocketContextFactory.cpp</title>
<!-- Node1 -->
<g id="Node000001" class="node">
<title>Node1</title>
<g id="a_Node000001"><a xlink:title=" ">
<polygon fill="#999999" stroke="#666666" points="492.25,-172.5 348.75,-172.5 348.75,-139 492.25,-139 492.25,-172.5"/>
<text xml:space="preserve" text-anchor="start" x="356.75" y="-159" font-family="Helvetica,sans-Serif" font-size="10.00">mqttbroker/SocketContext</text>
<text xml:space="preserve" text-anchor="middle" x="420.5" y="-146.25" font-family="Helvetica,sans-Serif" font-size="10.00">Factory.cpp</text>
</a>
</g>
</g>
<!-- Node2 -->
<g id="Node000002" class="node">
<title>Node2</title>
<g id="a_Node000002"><a xlink:href="mqttbroker_2SocketContextFactory_8h.html" target="_top" xlink:title=" ">
<polygon fill="white" stroke="#666666" points="131.5,-96.62 1.5,-96.62 1.5,-75.88 131.5,-75.88 131.5,-96.62"/>
<text xml:space="preserve" text-anchor="middle" x="66.5" y="-83.12" font-family="Helvetica,sans-Serif" font-size="10.00">SocketContextFactory.h</text>
</a>
</g>
</g>
<!-- Node1&#45;&gt;Node2 -->
<g id="edge1_Node000001_Node000002" class="edge">
<title>Node1&#45;&gt;Node2</title>
<g id="a_edge1_Node000001_Node000002"><a xlink:title=" ">
<path fill="none" stroke="#63b8ff" d="M348.46,-141.99C291.85,-131.82 211.05,-117.02 140.5,-103 134.85,-101.88 128.96,-100.68 123.08,-99.46"/>
<polygon fill="#63b8ff" stroke="#63b8ff" points="123.84,-96.04 113.34,-97.42 122.41,-102.89 123.84,-96.04"/>
</a>
</g>
</g>
<!-- Node4 -->
<g id="Node000004" class="node">
<title>Node4</title>
<g id="a_Node000004"><a xlink:href="ConfigApplication_8h.html" target="_top" xlink:title=" ">
<polygon fill="white" stroke="#666666" points="275.62,-96.62 149.38,-96.62 149.38,-75.88 275.62,-75.88 275.62,-96.62"/>
<text xml:space="preserve" text-anchor="middle" x="212.5" y="-83.12" font-family="Helvetica,sans-Serif" font-size="10.00">lib/ConfigApplication.h</text>
</a>
</g>
</g>
<!-- Node1&#45;&gt;Node4 -->
<g id="edge3_Node000001_Node000004" class="edge">
<title>Node1&#45;&gt;Node4</title>
<g id="a_edge3_Node000001_Node000004"><a xlink:title=" ">
<path fill="none" stroke="#63b8ff" d="M370.68,-138.58C334.94,-126.98 287.35,-111.54 253.74,-100.63"/>
<polygon fill="#63b8ff" stroke="#63b8ff" points="254.94,-97.34 244.35,-97.59 252.78,-104 254.94,-97.34"/>
</a>
</g>
</g>
<!-- Node6 -->
<g id="Node000006" class="node">
<title>Node6</title>
<g id="a_Node000006"><a xlink:href="mqttbroker_2lib_2Mqtt_8h.html" target="_top" xlink:title=" ">
<polygon fill="white" stroke="#666666" points="413.25,-96.62 293.75,-96.62 293.75,-75.88 413.25,-75.88 413.25,-96.62"/>
<text xml:space="preserve" text-anchor="middle" x="353.5" y="-83.12" font-family="Helvetica,sans-Serif" font-size="10.00">mqttbroker/lib/Mqtt.h</text>
</a>
</g>
</g>
<!-- Node1&#45;&gt;Node6 -->
<g id="edge5_Node000001_Node000006" class="edge">
<title>Node1&#45;&gt;Node6</title>
<g id="a_edge5_Node000001_Node000006"><a xlink:title=" ">
<path fill="none" stroke="#63b8ff" d="M404.62,-138.75C394.58,-128.64 381.6,-115.56 371.22,-105.11"/>
<polygon fill="#63b8ff" stroke="#63b8ff" points="373.84,-102.78 364.32,-98.15 368.88,-107.71 373.84,-102.78"/>
</a>
</g>
</g>
<!-- Node8 -->
<g id="Node000008" class="node">
<title>Node8</title>
<g id="a_Node000008"><a xlink:title=" ">
<polygon fill="#e0e0e0" stroke="#999999" points="546,-103 431,-103 431,-69.5 546,-69.5 546,-103"/>
<text xml:space="preserve" text-anchor="start" x="439" y="-89.5" font-family="Helvetica,sans-Serif" font-size="10.00">core/socket/stream</text>
<text xml:space="preserve" text-anchor="middle" x="488.5" y="-76.75" font-family="Helvetica,sans-Serif" font-size="10.00">/SocketConnection.h</text>
</a>
</g>
</g>
<!-- Node1&#45;&gt;Node8 -->
<g id="edge7_Node000001_Node000008" class="edge">
<title>Node1&#45;&gt;Node8</title>
<g id="a_edge7_Node000001_Node000008"><a xlink:title=" ">
<path fill="none" stroke="#63b8ff" d="M436.62,-138.75C444.91,-130.52 455.2,-120.3 464.42,-111.15"/>
<polygon fill="#63b8ff" stroke="#63b8ff" points="466.8,-113.73 471.43,-104.2 461.86,-108.76 466.8,-113.73"/>
</a>
</g>
</g>
<!-- Node9 -->
<g id="Node000009" class="node">
<title>Node9</title>
<g id="a_Node000009"><a xlink:title=" ">
<polygon fill="#e0e0e0" stroke="#999999" points="701.25,-96.62 563.75,-96.62 563.75,-75.88 701.25,-75.88 701.25,-96.62"/>
<text xml:space="preserve" text-anchor="middle" x="632.5" y="-83.12" font-family="Helvetica,sans-Serif" font-size="10.00">iot/mqtt/SocketContext.h</text>
</a>
</g>
</g>
<!-- Node1&#45;&gt;Node9 -->
<g id="edge8_Node000001_Node000009" class="edge">
<title>Node1&#45;&gt;Node9</title>
<g id="a_edge8_Node000001_Node000009"><a xlink:title=" ">
<path fill="none" stroke="#63b8ff" d="M471.28,-138.58C507.87,-126.93 556.63,-111.41 590.91,-100.49"/>
<polygon fill="#63b8ff" stroke="#63b8ff" points="591.59,-103.95 600.06,-97.58 589.47,-97.28 591.59,-103.95"/>
</a>
</g>
</g>
<!-- Node10 -->
<g id="Node000010" class="node">
<title>Node10</title>
<g id="a_Node000010"><a xlink:title=" ">
<polygon fill="#e0e0e0" stroke="#999999" points="799.75,-96.62 719.25,-96.62 719.25,-75.88 799.75,-75.88 799.75,-96.62"/>
<text xml:space="preserve" text-anchor="middle" x="759.5" y="-83.12" font-family="Helvetica,sans-Serif" font-size="10.00">utils/Config.h</text>
</a>
</g>
</g>
<!-- Node1&#45;&gt;Node10 -->
<g id="edge9_Node000001_Node000010" class="edge">
<title>Node1&#45;&gt;Node10</title>
<g id="a_edge9_Node000001_Node000010"><a xlink:title=" ">
<path fill="none" stroke="#63b8ff" d="M492.57,-144.65C551.6,-135.71 637.05,-121.27 710.5,-103 713.67,-102.21 716.93,-101.33 720.2,-100.39"/>
<polygon fill="#63b8ff" stroke="#63b8ff" points="721.18,-103.75 729.74,-97.5 719.15,-97.05 721.18,-103.75"/>
</a>
</g>
</g>
<!-- Node3 -->
<g id="Node000003" class="node">
<title>Node3</title>
<g id="a_Node000003"><a xlink:title=" ">
<polygon fill="#e0e0e0" stroke="#999999" points="133,-33.5 0,-33.5 0,0 133,0 133,-33.5"/>
<text xml:space="preserve" text-anchor="start" x="8" y="-20" font-family="Helvetica,sans-Serif" font-size="10.00">core/socket/stream</text>
<text xml:space="preserve" text-anchor="middle" x="66.5" y="-7.25" font-family="Helvetica,sans-Serif" font-size="10.00">/SocketContextFactory.h</text>
</a>
</g>
</g>
<!-- Node2&#45;&gt;Node3 -->
<g id="edge2_Node000002_Node000003" class="edge">
<title>Node2&#45;&gt;Node3</title>
<g id="a_edge2_Node000002_Node000003"><a xlink:title=" ">
<path fill="none" stroke="#63b8ff" d="M66.5,-75.58C66.5,-67.69 66.5,-56.13 66.5,-45.41"/>
<polygon fill="#63b8ff" stroke="#63b8ff" points="70,-45.43 66.5,-35.43 63,-45.43 70,-45.43"/>
</a>
</g>
</g>
<!-- Node5 -->
<g id="Node000005" class="node">
<title>Node5</title>
<g id="a_Node000005"><a xlink:title=" ">
<polygon fill="#e0e0e0" stroke="#999999" points="271.12,-27.12 153.88,-27.12 153.88,-6.38 271.12,-6.38 271.12,-27.12"/>
<text xml:space="preserve" text-anchor="middle" x="212.5" y="-13.62" font-family="Helvetica,sans-Serif" font-size="10.00">utils/SubCommand.h</text>
</a>
</g>
</g>
<!-- Node4&#45;&gt;Node5 -->
<g id="edge4_Node000004_Node000005" class="edge">
<title>Node4&#45;&gt;Node5</title>
<g id="a_edge4_Node000004_Node000005"><a xlink:title=" ">
<path fill="none" stroke="#63b8ff" d="M212.5,-75.58C212.5,-65.96 212.5,-50.88 212.5,-38.54"/>
<polygon fill="#63b8ff" stroke="#63b8ff" points="216,-38.92 212.5,-28.92 209,-38.92 216,-38.92"/>
</a>
</g>
</g>
<!-- Node7 -->
<g id="Node000007" class="node">
<title>Node7</title>
<g id="a_Node000007"><a xlink:title=" ">
<polygon fill="#e0e0e0" stroke="#999999" points="415.12,-27.12 291.88,-27.12 291.88,-6.38 415.12,-6.38 415.12,-27.12"/>
<text xml:space="preserve" text-anchor="middle" x="353.5" y="-13.62" font-family="Helvetica,sans-Serif" font-size="10.00">iot/mqtt/server/Mqtt.h</text>
</a>
</g>
</g>
<!-- Node6&#45;&gt;Node7 -->
<g id="edge6_Node000006_Node000007" class="edge">
<title>Node6&#45;&gt;Node7</title>
<g id="a_edge6_Node000006_Node000007"><a xlink:title=" ">
<path fill="none" stroke="#63b8ff" d="M353.5,-75.58C353.5,-65.96 353.5,-50.88 353.5,-38.54"/>
<polygon fill="#63b8ff" stroke="#63b8ff" points="357,-38.92 353.5,-28.92 350,-38.92 357,-38.92"/>
</a>
</g>
</g>
</g>
</svg>
