<?xml version="1.0" encoding="UTF-8" standalone="no"?>
<!DOCTYPE svg PUBLIC "-//W3C//DTD SVG 1.1//EN"
 "http://www.w3.org/Graphics/SVG/1.1/DTD/svg11.dtd">
<!-- Generated by graphviz version 14.1.2 (0)
 -->
<!-- Title: mqttbroker/lib/Mqtt.cpp Pages: 1 -->
<svg width="973pt" height="155pt"
 viewBox="0.00 0.00 973.00 155.00" xmlns="http://www.w3.org/2000/svg" xmlns:xlink="http://www.w3.org/1999/xlink">
<g id="graph0" class="graph" transform="scale(1 1) rotate(0) translate(4 151)">
<title>mqttbroker/lib/Mqtt.cpp</title>
<!-- Node1 -->
<g id="Node000001" class="node">
<title>Node1</title>
<g id="a_Node000001"><a xlink:title=" ">
<polygon fill="#999999" stroke="#666666" points="543,-147 412.25,-147 412.25,-126.25 543,-126.25 543,-147"/>
<text xml:space="preserve" text-anchor="middle" x="477.62" y="-133.5" font-family="Helvetica,sans-Serif" font-size="10.00">mqttbroker/lib/Mqtt.cpp</text>
</a>
</g>
</g>
<!-- Node2 -->
<g id="Node000002" class="node">
<title>Node2</title>
<g id="a_Node000002"><a xlink:href="mqttbroker_2lib_2Mqtt_8h.html" target="_top" xlink:title=" ">
<polygon fill="white" stroke="#666666" points="137.38,-83.88 89.88,-83.88 89.88,-63.12 137.38,-63.12 137.38,-83.88"/>
<text xml:space="preserve" text-anchor="middle" x="113.62" y="-70.38" font-family="Helvetica,sans-Serif" font-size="10.00">Mqtt.h</text>
</a>
</g>
</g>
<!-- Node1&#45;&gt;Node2 -->
<g id="edge1_Node000001_Node000002" class="edge">
<title>Node1&#45;&gt;Node2</title>
<g id="a_edge1_Node000001_Node000002"><a xlink:title=" ">
<path fill="none" stroke="#63b8ff" d="M411.98,-132.6C344.28,-128.1 236.23,-117.06 146.62,-90.25 145.07,-89.78 143.49,-89.25 141.91,-88.68"/>
<polygon fill="#63b8ff" stroke="#63b8ff" points="143.69,-85.63 133.12,-84.96 140.97,-92.08 143.69,-85.63"/>
</a>
</g>
</g>
<!-- Node5 -->
<g id="Node000005" class="node">
<title>Node5</title>
<g id="a_Node000005"><a xlink:href="MqttModel_8h.html" target="_top" xlink:title=" ">
<polygon fill="white" stroke="#666666" points="305.38,-83.88 155.88,-83.88 155.88,-63.12 305.38,-63.12 305.38,-83.88"/>
<text xml:space="preserve" text-anchor="middle" x="230.62" y="-70.38" font-family="Helvetica,sans-Serif" font-size="10.00">mqttbroker/lib/MqttModel.h</text>
</a>
</g>
</g>
<!-- Node1&#45;&gt;Node5 -->
<g id="edge4_Node000001_Node000005" class="edge">
<title>Node1&#45;&gt;Node5</title>
<g id="a_edge4_Node000001_Node000005"><a xlink:title=" ">
<path fill="none" stroke="#63b8ff" d="M437.94,-125.8C395.36,-115.27 327.61,-98.5 281.22,-87.02"/>
<polygon fill="#63b8ff" stroke="#63b8ff" points="282.23,-83.66 271.68,-84.66 280.55,-90.46 282.23,-83.66"/>
</a>
</g>
</g>
<!-- Node6 -->
<g id="Node000006" class="node">
<title>Node6</title>
<g id="a_Node000006"><a xlink:title=" ">
<polygon fill="#e0e0e0" stroke="#999999" points="466,-83.88 323.25,-83.88 323.25,-63.12 466,-63.12 466,-83.88"/>
<text xml:space="preserve" text-anchor="middle" x="394.62" y="-70.38" font-family="Helvetica,sans-Serif" font-size="10.00">iot/mqtt/packets/Publish.h</text>
</a>
</g>
</g>
<!-- Node1&#45;&gt;Node6 -->
<g id="edge5_Node000001_Node000006" class="edge">
<title>Node1&#45;&gt;Node6</title>
<g id="a_edge5_Node000001_Node000006"><a xlink:title=" ">
<path fill="none" stroke="#63b8ff" d="M464.29,-125.8C451.58,-116.45 432.21,-102.18 417.12,-91.06"/>
<polygon fill="#63b8ff" stroke="#63b8ff" points="419.27,-88.31 409.15,-85.19 415.12,-93.94 419.27,-88.31"/>
</a>
</g>
</g>
<!-- Node7 -->
<g id="Node000007" class="node">
<title>Node7</title>
<g id="a_Node000007"><a xlink:title=" ">
<polygon fill="#e0e0e0" stroke="#999999" points="639,-83.88 484.25,-83.88 484.25,-63.12 639,-63.12 639,-83.88"/>
<text xml:space="preserve" text-anchor="middle" x="561.62" y="-70.38" font-family="Helvetica,sans-Serif" font-size="10.00">iot/mqtt/packets/Subscribe.h</text>
</a>
</g>
</g>
<!-- Node1&#45;&gt;Node7 -->
<g id="edge6_Node000001_Node000007" class="edge">
<title>Node1&#45;&gt;Node7</title>
<g id="a_edge6_Node000001_Node000007"><a xlink:title=" ">
<path fill="none" stroke="#63b8ff" d="M491.12,-125.8C503.98,-116.45 523.59,-102.18 538.86,-91.06"/>
<polygon fill="#63b8ff" stroke="#63b8ff" points="540.91,-93.9 546.94,-85.19 536.79,-88.24 540.91,-93.9"/>
</a>
</g>
</g>
<!-- Node8 -->
<g id="Node000008" class="node">
<title>Node8</title>
<g id="a_Node000008"><a xlink:title=" ">
<polygon fill="#e0e0e0" stroke="#999999" points="824.38,-83.88 656.88,-83.88 656.88,-63.12 824.38,-63.12 824.38,-83.88"/>
<text xml:space="preserve" text-anchor="middle" x="740.62" y="-70.38" font-family="Helvetica,sans-Serif" font-size="10.00">iot/mqtt/packets/Unsubscribe.h</text>
</a>
</g>
</g>
<!-- Node1&#45;&gt;Node8 -->
<g id="edge7_Node000001_Node000008" class="edge">
<title>Node1&#45;&gt;Node8</title>
<g id="a_edge7_Node000001_Node000008"><a xlink:title=" ">
<path fill="none" stroke="#63b8ff" d="M519.88,-125.8C565.41,-115.22 637.97,-98.36 687.38,-86.88"/>
<polygon fill="#63b8ff" stroke="#63b8ff" points="688.05,-90.31 697,-84.64 686.47,-83.49 688.05,-90.31"/>
</a>
</g>
</g>
<!-- Node9 -->
<g id="Node000009" class="node">
<title>Node9</title>
<g id="a_Node000009"><a xlink:title=" ">
<polygon fill="#e0e0e0" stroke="#999999" points="964.88,-90.25 842.38,-90.25 842.38,-56.75 964.88,-56.75 964.88,-90.25"/>
<text xml:space="preserve" text-anchor="start" x="850.38" y="-76.75" font-family="Helvetica,sans-Serif" font-size="10.00">iot/mqtt/server/broker</text>
<text xml:space="preserve" text-anchor="middle" x="903.62" y="-64" font-family="Helvetica,sans-Serif" font-size="10.00">/Broker.h</text>
</a>
</g>
</g>
<!-- Node1&#45;&gt;Node9 -->
<g id="edge8_Node000001_Node000009" class="edge">
<title>Node1&#45;&gt;Node9</title>
<g id="a_edge8_Node000001_Node000009"><a xlink:title=" ">
<path fill="none" stroke="#63b8ff" d="M543.19,-129.15C612.38,-121.89 724.82,-108.9 830.99,-90.62"/>
<polygon fill="#63b8ff" stroke="#63b8ff" points="831.49,-94.08 840.74,-88.92 830.29,-87.19 831.49,-94.08"/>
</a>
</g>
</g>
<!-- Node3 -->
<g id="Node000003" class="node">
<title>Node3</title>
<g id="a_Node000003"><a xlink:href="MqttMapper_8h.html" target="_top" xlink:title=" ">
<polygon fill="white" stroke="#666666" points="99.25,-20.75 0,-20.75 0,0 99.25,0 99.25,-20.75"/>
<text xml:space="preserve" text-anchor="middle" x="49.62" y="-7.25" font-family="Helvetica,sans-Serif" font-size="10.00">lib/MqttMapper.h</text>
</a>
</g>
</g>
<!-- Node2&#45;&gt;Node3 -->
<g id="edge2_Node000002_Node000003" class="edge">
<title>Node2&#45;&gt;Node3</title>
<g id="a_edge2_Node000002_Node000003"><a xlink:title=" ">
<path fill="none" stroke="#63b8ff" d="M103.34,-62.68C93.77,-53.54 79.29,-39.7 67.77,-28.7"/>
<polygon fill="#63b8ff" stroke="#63b8ff" points="70.41,-26.39 60.77,-22.02 65.58,-31.45 70.41,-26.39"/>
</a>
</g>
</g>
<!-- Node4 -->
<g id="Node000004" class="node">
<title>Node4</title>
<g id="a_Node000004"><a xlink:title=" ">
<polygon fill="#e0e0e0" stroke="#999999" points="240.25,-20.75 117,-20.75 117,0 240.25,0 240.25,-20.75"/>
<text xml:space="preserve" text-anchor="middle" x="178.62" y="-7.25" font-family="Helvetica,sans-Serif" font-size="10.00">iot/mqtt/server/Mqtt.h</text>
</a>
</g>
</g>
<!-- Node2&#45;&gt;Node4 -->
<g id="edge3_Node000002_Node000004" class="edge">
<title>Node2&#45;&gt;Node4</title>
<g id="a_edge3_Node000002_Node000004"><a xlink:title=" ">
<path fill="none" stroke="#63b8ff" d="M124.07,-62.68C133.79,-53.54 148.5,-39.7 160.2,-28.7"/>
<polygon fill="#63b8ff" stroke="#63b8ff" points="162.43,-31.41 167.32,-22.01 157.64,-26.31 162.43,-31.41"/>
</a>
</g>
</g>
</g>
</svg>
