<?xml version="1.0" encoding="UTF-8" standalone="no"?>
<!DOCTYPE svg PUBLIC "-//W3C//DTD SVG 1.1//EN"
 "http://www.w3.org/Graphics/SVG/1.1/DTD/svg11.dtd">
<!-- Generated by graphviz version 14.1.2 (0)
 -->
<!-- Title: mqttstore/lib/ConfigSections.cpp Pages: 1 -->
<svg width="183pt" height="142pt"
 viewBox="0.00 0.00 183.00 142.00" xmlns="http://www.w3.org/2000/svg" xmlns:xlink="http://www.w3.org/1999/xlink">
<g id="graph0" class="graph" transform="scale(1 1) rotate(0) translate(4 138.25)">
<title>mqttstore/lib/ConfigSections.cpp</title>
<!-- Node1 -->
<g id="Node000001" class="node">
<title>Node1</title>
<g id="a_Node000001"><a xlink:title=" ">
<polygon fill="#999999" stroke="#666666" points="175,-134.25 0,-134.25 0,-113.5 175,-113.5 175,-134.25"/>
<text xml:space="preserve" text-anchor="middle" x="87.5" y="-120.75" font-family="Helvetica,sans-Serif" font-size="10.00">mqttstore/lib/ConfigSections.cpp</text>
</a>
</g>
</g>
<!-- Node2 -->
<g id="Node000002" class="node">
<title>Node2</title>
<g id="a_Node000002"><a xlink:href="mqttstore_2lib_2ConfigSections_8h.html" target="_top" xlink:title=" ">
<polygon fill="white" stroke="#666666" points="136.38,-77.5 38.62,-77.5 38.62,-56.75 136.38,-56.75 136.38,-77.5"/>
<text xml:space="preserve" text-anchor="middle" x="87.5" y="-64" font-family="Helvetica,sans-Serif" font-size="10.00">ConfigSections.h</text>
</a>
</g>
</g>
<!-- Node1&#45;&gt;Node2 -->
<g id="edge1_Node000001_Node000002" class="edge">
<title>Node1&#45;&gt;Node2</title>
<g id="a_edge1_Node000001_Node000002"><a xlink:title=" ">
<path fill="none" stroke="#63b8ff" d="M87.5,-113.09C87.5,-106.47 87.5,-97.47 87.5,-89.27"/>
<polygon fill="#63b8ff" stroke="#63b8ff" points="91,-89.34 87.5,-79.34 84,-89.34 91,-89.34"/>
</a>
</g>
</g>
<!-- Node3 -->
<g id="Node000003" class="node">
<title>Node3</title>
<g id="a_Node000003"><a xlink:title=" ">
<polygon fill="#e0e0e0" stroke="#999999" points="159.62,-20.75 15.38,-20.75 15.38,0 159.62,0 159.62,-20.75"/>
<text xml:space="preserve" text-anchor="middle" x="87.5" y="-7.25" font-family="Helvetica,sans-Serif" font-size="10.00">net/config/ConfigSection.h</text>
</a>
</g>
</g>
<!-- Node2&#45;&gt;Node3 -->
<g id="edge2_Node000002_Node000003" class="edge">
<title>Node2&#45;&gt;Node3</title>
<g id="a_edge2_Node000002_Node000003"><a xlink:title=" ">
<path fill="none" stroke="#63b8ff" d="M87.5,-56.34C87.5,-49.72 87.5,-40.72 87.5,-32.52"/>
<polygon fill="#63b8ff" stroke="#63b8ff" points="91,-32.59 87.5,-22.59 84,-32.59 91,-32.59"/>
</a>
</g>
</g>
</g>
</svg>
