<?xml version="1.0" encoding="UTF-8" standalone="no"?>
<!DOCTYPE svg PUBLIC "-//W3C//DTD SVG 1.1//EN"
 "http://www.w3.org/Graphics/SVG/1.1/DTD/svg11.dtd">
<!-- Generated by graphviz version 2.42.4 (0)
 -->
<!-- Title: main Pages: 1 -->
<svg width="164pt" height="64pt"
 viewBox="0.00 0.00 164.00 64.00" xmlns="http://www.w3.org/2000/svg" xmlns:xlink="http://www.w3.org/1999/xlink">
<g id="graph0" class="graph" transform="scale(1 1) rotate(0) translate(4 60)">
<title>main</title>
<!-- Node1 -->
<g id="Node000001" class="node">
<title>Node1</title>
<g id="a_Node000001"><a xlink:title=" ">
<polygon fill="#999999" stroke="#666666" points="41,-37 0,-37 0,-18 41,-18 41,-37"/>
<text text-anchor="middle" x="20.5" y="-25" font-family="Helvetica,sans-Serif" font-size="10.00">main</text>
</a>
</g>
</g>
<!-- Node2 -->
<g id="Node000002" class="node">
<title>Node2</title>
<g id="a_Node000002"><a xlink:href="mqtt_8cpp.html#a1a3ce017fa07c5f5b5119294f888672f" target="_top" xlink:title=" ">
<polygon fill="white" stroke="#666666" points="156,-56 77,-56 77,-37 156,-37 156,-56"/>
<text text-anchor="middle" x="116.5" y="-44" font-family="Helvetica,sans-Serif" font-size="10.00">createConfig</text>
</a>
</g>
</g>
<!-- Node1&#45;&gt;Node2 -->
<g id="edge1_Node000001_Node000002" class="edge">
<title>Node1&#45;&gt;Node2</title>
<g id="a_edge1_Node000001_Node000002"><a xlink:title=" ">
<path fill="none" stroke="#63b8ff" d="M41.43,-31.53C49.03,-33.07 58.06,-34.89 67.16,-36.73"/>
<polygon fill="#63b8ff" stroke="#63b8ff" points="66.5,-40.17 77,-38.72 67.89,-33.31 66.5,-40.17"/>
</a>
</g>
</g>
<!-- Node3 -->
<g id="Node000003" class="node">
<title>Node3</title>
<g id="a_Node000003"><a xlink:href="mqtt_8cpp.html#a3778dc96e8661f52ab44dfb543b2edca" target="_top" xlink:title=" ">
<polygon fill="white" stroke="#666666" points="150.5,-19 82.5,-19 82.5,0 150.5,0 150.5,-19"/>
<text text-anchor="middle" x="116.5" y="-7" font-family="Helvetica,sans-Serif" font-size="10.00">startClient</text>
</a>
</g>
</g>
<!-- Node1&#45;&gt;Node3 -->
<g id="edge2_Node000001_Node000003" class="edge">
<title>Node1&#45;&gt;Node3</title>
<g id="a_edge2_Node000001_Node000003"><a xlink:title=" ">
<path fill="none" stroke="#63b8ff" d="M41.43,-23.68C50.42,-21.96 61.41,-19.86 72.14,-17.8"/>
<polygon fill="#63b8ff" stroke="#63b8ff" points="73.11,-21.18 82.28,-15.86 71.8,-14.31 73.11,-21.18"/>
</a>
</g>
</g>
</g>
</svg>
