<?xml version="1.0" encoding="UTF-8" standalone="no"?>
<!DOCTYPE svg PUBLIC "-//W3C//DTD SVG 1.1//EN"
 "http://www.w3.org/Graphics/SVG/1.1/DTD/svg11.dtd">
<!-- Generated by graphviz version 14.1.2 (0)
 -->
<!-- Title: mqttcli/mqttcli.cpp Pages: 1 -->
<!--zoomable 168 -->

<svg id="main" version="1.1" xmlns="http://www.w3.org/2000/svg" xmlns:xlink="http://www.w3.org/1999/xlink" xml:space="preserve" onload="init(evt)">

<style type="text/css"><![CDATA[
.node, .edge {opacity: 0.7;}
.node.selected, .edge.selected {opacity: 1;}
.edge:hover path { stroke: red; }
.edge:hover polygon { stroke: red; fill: red; }
]]></style>

<defs>
  <circle id="rim" cx="0" cy="0" r="7"/>
  <circle id="rim2" cx="0" cy="0" r="3.5"/>
  <g id="zoomPlus">
    <use xlink:href="#rim" fill="#404040"><set attributeName="fill" to="#808080" begin="zoomplus.mouseover" end="zoomplus.mouseout"/></use>
    <path d="M-4,0h8M0,-4v8" fill="none" stroke="white" stroke-width="1.5" pointer-events="none"/>
  </g>
  <g id="zoomMin">
    <use xlink:href="#rim" fill="#404040"><set attributeName="fill" to="#808080" begin="zoomminus.mouseover" end="zoomminus.mouseout"/></use>
    <path d="M-4,0h8" fill="none" stroke="white" stroke-width="1.5" pointer-events="none"/>
  </g>
  <g id="arrowUp" transform="translate(30 24)">
    <use xlink:href="#rim"/>
    <path pointer-events="none" fill="none" stroke="white" stroke-width="1.5" d="M0,-3.0v7 M-2.5,-0.5L0,-3.0L2.5,-0.5"/>
  </g>
  <g id="arrowRight" transform="rotate(90) translate(36 -43)">
    <use xlink:href="#rim"/>
    <path pointer-events="none" fill="none" stroke="white" stroke-width="1.5" d="M0,-3.0v7 M-2.5,-0.5L0,-3.0L2.5,-0.5"/>
  </g>
  <g id="arrowDown" transform="rotate(180) translate(-30 -48)">
    <use xlink:href="#rim"/>
    <path pointer-events="none" fill="none" stroke="white" stroke-width="1.5" d="M0,-3.0v7 M-2.5,-0.5L0,-3.0L2.5,-0.5"/>
  </g>
  <g id="arrowLeft" transform="rotate(270) translate(-36 17)">
    <use xlink:href="#rim"/>
    <path pointer-events="none" fill="none" stroke="white" stroke-width="1.5" d="M0,-3.0v7 M-2.5,-0.5L0,-3.0L2.5,-0.5"/>
  </g>
  <g id="resetDef">
    <use xlink:href="#rim2" fill="#404040"><set attributeName="fill" to="#808080" begin="reset.mouseover" end="reset.mouseout"/></use>
  </g>
</defs>
<script type="application/ecmascript">
var viewWidth = 2681;
var viewHeight = 168;
var sectionId = 'dynsection-0';
</script>
<script type="application/ecmascript" xlink:href="svg.min.js"/>
<svg id="graph" class="graph">
<g id="viewport">
<title>mqttcli/mqttcli.cpp</title>
<!-- Node1 -->
<g id="Node000001" class="node">
<title>Node1</title>
<g id="a_Node000001"><a xlink:title=" ">
<polygon fill="#999999" stroke="#666666" points="1318.62,-159.75 1210.38,-159.75 1210.38,-139 1318.62,-139 1318.62,-159.75"/>
<text xml:space="preserve" text-anchor="middle" x="1264.5" y="-146.25" font-family="Helvetica,sans-Serif" font-size="10.00">mqttcli/mqttcli.cpp</text>
</a>
</g>
</g>
<!-- Node2 -->
<g id="Node000002" class="node">
<title>Node2</title>
<g id="a_Node000002"><a xlink:href="mqttcli_2SocketContextFactory_8h.html" target="_top" xlink:title=" ">
<polygon fill="white" stroke="#666666" points="131.5,-96.62 1.5,-96.62 1.5,-75.88 131.5,-75.88 131.5,-96.62"/>
<text xml:space="preserve" text-anchor="middle" x="66.5" y="-83.12" font-family="Helvetica,sans-Serif" font-size="10.00">SocketContextFactory.h</text>
</a>
</g>
</g>
<!-- Node1&#45;&gt;Node2 -->
<g id="edge1_Node000001_Node000002" class="edge">
<title>Node1&#45;&gt;Node2</title>
<g id="a_edge1_Node000001_Node000002"><a xlink:title=" ">
<path fill="none" stroke="#63b8ff" d="M1209.89,-147.37C1014.7,-143.61 351.96,-129.16 141.5,-103 133.96,-102.06 126.05,-100.76 118.31,-99.3"/>
<polygon fill="#63b8ff" stroke="#63b8ff" points="119.14,-95.9 108.65,-97.37 117.77,-102.76 119.14,-95.9"/>
</a>
</g>
</g>
<!-- Node4 -->
<g id="Node000004" class="node">
<title>Node4</title>
<g id="a_Node000004"><a xlink:title=" ">
<polygon fill="#e0e0e0" stroke="#999999" points="205,-96.62 150,-96.62 150,-75.88 205,-75.88 205,-96.62"/>
<text xml:space="preserve" text-anchor="middle" x="177.5" y="-83.12" font-family="Helvetica,sans-Serif" font-size="10.00">config.h</text>
</a>
</g>
</g>
<!-- Node1&#45;&gt;Node4 -->
<g id="edge3_Node000001_Node000004" class="edge">
<title>Node1&#45;&gt;Node4</title>
<g id="a_edge3_Node000001_Node000004"><a xlink:title=" ">
<path fill="none" stroke="#63b8ff" d="M1210.01,-148.59C1022.78,-148.91 406.8,-146.57 214.5,-103 212.21,-102.48 209.89,-101.83 207.58,-101.08"/>
<polygon fill="#63b8ff" stroke="#63b8ff" points="209.04,-97.9 198.45,-97.64 206.57,-104.44 209.04,-97.9"/>
</a>
</g>
</g>
<!-- Node5 -->
<g id="Node000005" class="node">
<title>Node5</title>
<g id="a_Node000005"><a xlink:href="ConfigSections_8h.html" target="_top" xlink:title=" ">
<polygon fill="white" stroke="#666666" points="335.88,-96.62 223.12,-96.62 223.12,-75.88 335.88,-75.88 335.88,-96.62"/>
<text xml:space="preserve" text-anchor="middle" x="279.5" y="-83.12" font-family="Helvetica,sans-Serif" font-size="10.00">lib/ConfigSections.h</text>
</a>
</g>
</g>
<!-- Node1&#45;&gt;Node5 -->
<g id="edge4_Node000001_Node000005" class="edge">
<title>Node1&#45;&gt;Node5</title>
<g id="a_edge4_Node000001_Node000005"><a xlink:title=" ">
<path fill="none" stroke="#63b8ff" d="M1209.92,-147.03C1038.64,-142.61 513.16,-127.37 344.5,-103 338.39,-102.12 332.02,-100.92 325.76,-99.58"/>
<polygon fill="#63b8ff" stroke="#63b8ff" points="326.69,-96.21 316.16,-97.39 325.13,-103.03 326.69,-96.21"/>
</a>
</g>
</g>
<!-- Node7 -->
<g id="Node000007" class="node">
<title>Node7</title>
<g id="a_Node000007"><a xlink:title=" ">
<polygon fill="#e0e0e0" stroke="#999999" points="441.12,-96.62 353.88,-96.62 353.88,-75.88 441.12,-75.88 441.12,-96.62"/>
<text xml:space="preserve" text-anchor="middle" x="397.5" y="-83.12" font-family="Helvetica,sans-Serif" font-size="10.00">core/SNodeC.h</text>
</a>
</g>
</g>
<!-- Node1&#45;&gt;Node7 -->
<g id="edge6_Node000001_Node000007" class="edge">
<title>Node1&#45;&gt;Node7</title>
<g id="a_edge6_Node000001_Node000007"><a xlink:title=" ">
<path fill="none" stroke="#63b8ff" d="M1210.05,-147.04C1052.21,-142.89 596.29,-128.93 449.5,-103 445.18,-102.24 440.72,-101.23 436.3,-100.1"/>
<polygon fill="#63b8ff" stroke="#63b8ff" points="437.57,-96.82 427,-97.49 435.68,-103.56 437.57,-96.82"/>
</a>
</g>
</g>
<!-- Node8 -->
<g id="Node000008" class="node">
<title>Node8</title>
<g id="a_Node000008"><a xlink:title=" ">
<polygon fill="#e0e0e0" stroke="#999999" points="608.25,-96.62 458.75,-96.62 458.75,-75.88 608.25,-75.88 608.25,-96.62"/>
<text xml:space="preserve" text-anchor="middle" x="533.5" y="-83.12" font-family="Helvetica,sans-Serif" font-size="10.00">net/config/ConfigInstance.h</text>
</a>
</g>
</g>
<!-- Node1&#45;&gt;Node8 -->
<g id="edge7_Node000001_Node000008" class="edge">
<title>Node1&#45;&gt;Node8</title>
<g id="a_edge7_Node000001_Node000008"><a xlink:title=" ">
<path fill="none" stroke="#63b8ff" d="M1210.19,-146.68C1098.7,-142.74 836.12,-131.07 617.5,-103 609.21,-101.94 600.5,-100.58 591.96,-99.11"/>
<polygon fill="#63b8ff" stroke="#63b8ff" points="592.83,-95.71 582.37,-97.39 591.6,-102.6 592.83,-95.71"/>
</a>
</g>
</g>
<!-- Node9 -->
<g id="Node000009" class="node">
<title>Node9</title>
<g id="a_Node000009"><a xlink:title=" ">
<polygon fill="#e0e0e0" stroke="#999999" points="706.75,-96.62 626.25,-96.62 626.25,-75.88 706.75,-75.88 706.75,-96.62"/>
<text xml:space="preserve" text-anchor="middle" x="666.5" y="-83.12" font-family="Helvetica,sans-Serif" font-size="10.00">utils/Config.h</text>
</a>
</g>
</g>
<!-- Node1&#45;&gt;Node9 -->
<g id="edge8_Node000001_Node000009" class="edge">
<title>Node1&#45;&gt;Node9</title>
<g id="a_edge8_Node000001_Node000009"><a xlink:title=" ">
<path fill="none" stroke="#63b8ff" d="M1209.89,-147.86C1110.7,-146.04 894.72,-137.99 716.5,-103 712.68,-102.25 708.74,-101.31 704.82,-100.27"/>
<polygon fill="#63b8ff" stroke="#63b8ff" points="706.02,-96.97 695.44,-97.54 704.06,-103.69 706.02,-96.97"/>
</a>
</g>
</g>
<!-- Node10 -->
<g id="Node000010" class="node">
<title>Node10</title>
<g id="a_Node000010"><a xlink:title=" ">
<polygon fill="#e0e0e0" stroke="#999999" points="841.75,-103 725.25,-103 725.25,-69.5 841.75,-69.5 841.75,-103"/>
<text xml:space="preserve" text-anchor="start" x="733.25" y="-89.5" font-family="Helvetica,sans-Serif" font-size="10.00">net/in/stream/legacy</text>
<text xml:space="preserve" text-anchor="middle" x="783.5" y="-76.75" font-family="Helvetica,sans-Serif" font-size="10.00">/SocketClient.h</text>
</a>
</g>
</g>
<!-- Node1&#45;&gt;Node10 -->
<g id="edge9_Node000001_Node000010" class="edge">
<title>Node1&#45;&gt;Node10</title>
<g id="a_edge9_Node000001_Node000010"><a xlink:title=" ">
<path fill="none" stroke="#63b8ff" d="M1209.95,-144.52C1132.66,-138.6 986.68,-125.69 853.45,-103.39"/>
<polygon fill="#63b8ff" stroke="#63b8ff" points="854.18,-99.96 843.74,-101.74 853.01,-106.86 854.18,-99.96"/>
</a>
</g>
</g>
<!-- Node11 -->
<g id="Node000011" class="node">
<title>Node11</title>
<g id="a_Node000011"><a xlink:title=" ">
<polygon fill="#e0e0e0" stroke="#999999" points="991.25,-103 859.75,-103 859.75,-69.5 991.25,-69.5 991.25,-103"/>
<text xml:space="preserve" text-anchor="start" x="867.75" y="-89.5" font-family="Helvetica,sans-Serif" font-size="10.00">net/in/stream/tls/Socket</text>
<text xml:space="preserve" text-anchor="middle" x="925.5" y="-76.75" font-family="Helvetica,sans-Serif" font-size="10.00">Client.h</text>
</a>
</g>
</g>
<!-- Node1&#45;&gt;Node11 -->
<g id="edge10_Node000001_Node000011" class="edge">
<title>Node1&#45;&gt;Node11</title>
<g id="a_edge10_Node000001_Node000011"><a xlink:title=" ">
<path fill="none" stroke="#63b8ff" d="M1210.04,-139.62C1158.99,-131.27 1080.26,-118.05 1002.66,-103.38"/>
<polygon fill="#63b8ff" stroke="#63b8ff" points="1003.69,-100.01 993.21,-101.58 1002.38,-106.89 1003.69,-100.01"/>
</a>
</g>
</g>
<!-- Node12 -->
<g id="Node000012" class="node">
<title>Node12</title>
<g id="a_Node000012"><a xlink:title=" ">
<polygon fill="#e0e0e0" stroke="#999999" points="1131.75,-103 1009.25,-103 1009.25,-69.5 1131.75,-69.5 1131.75,-103"/>
<text xml:space="preserve" text-anchor="start" x="1017.25" y="-89.5" font-family="Helvetica,sans-Serif" font-size="10.00">net/in6/stream/legacy</text>
<text xml:space="preserve" text-anchor="middle" x="1070.5" y="-76.75" font-family="Helvetica,sans-Serif" font-size="10.00">/SocketClient.h</text>
</a>
</g>
</g>
<!-- Node1&#45;&gt;Node12 -->
<g id="edge11_Node000001_Node000012" class="edge">
<title>Node1&#45;&gt;Node12</title>
<g id="a_edge11_Node000001_Node000012"><a xlink:title=" ">
<path fill="none" stroke="#63b8ff" d="M1233.33,-138.55C1206.27,-130.03 1166.26,-117.42 1132.68,-106.84"/>
<polygon fill="#63b8ff" stroke="#63b8ff" points="1134.06,-103.61 1123.47,-103.94 1131.96,-110.28 1134.06,-103.61"/>
</a>
</g>
</g>
<!-- Node13 -->
<g id="Node000013" class="node">
<title>Node13</title>
<g id="a_Node000013"><a xlink:title=" ">
<polygon fill="#e0e0e0" stroke="#999999" points="1251.62,-103 1149.38,-103 1149.38,-69.5 1251.62,-69.5 1251.62,-103"/>
<text xml:space="preserve" text-anchor="start" x="1157.38" y="-89.5" font-family="Helvetica,sans-Serif" font-size="10.00">net/in6/stream/tls</text>
<text xml:space="preserve" text-anchor="middle" x="1200.5" y="-76.75" font-family="Helvetica,sans-Serif" font-size="10.00">/SocketClient.h</text>
</a>
</g>
</g>
<!-- Node1&#45;&gt;Node13 -->
<g id="edge12_Node000001_Node000013" class="edge">
<title>Node1&#45;&gt;Node13</title>
<g id="a_edge12_Node000001_Node000013"><a xlink:title=" ">
<path fill="none" stroke="#63b8ff" d="M1254.22,-138.55C1246.49,-131.17 1235.56,-120.73 1225.57,-111.2"/>
<polygon fill="#63b8ff" stroke="#63b8ff" points="1228.24,-108.91 1218.59,-104.53 1223.41,-113.97 1228.24,-108.91"/>
</a>
</g>
</g>
<!-- Node14 -->
<g id="Node000014" class="node">
<title>Node14</title>
<g id="a_Node000014"><a xlink:title=" ">
<polygon fill="#e0e0e0" stroke="#999999" points="1389.25,-103 1269.75,-103 1269.75,-69.5 1389.25,-69.5 1389.25,-103"/>
<text xml:space="preserve" text-anchor="start" x="1277.75" y="-89.5" font-family="Helvetica,sans-Serif" font-size="10.00">net/un/stream/legacy</text>
<text xml:space="preserve" text-anchor="middle" x="1329.5" y="-76.75" font-family="Helvetica,sans-Serif" font-size="10.00">/SocketClient.h</text>
</a>
</g>
</g>
<!-- Node1&#45;&gt;Node14 -->
<g id="edge13_Node000001_Node000014" class="edge">
<title>Node1&#45;&gt;Node14</title>
<g id="a_edge13_Node000001_Node000014"><a xlink:title=" ">
<path fill="none" stroke="#63b8ff" d="M1274.94,-138.55C1282.79,-131.17 1293.89,-120.73 1304.04,-111.2"/>
<polygon fill="#63b8ff" stroke="#63b8ff" points="1306.25,-113.92 1311.13,-104.52 1301.45,-108.82 1306.25,-113.92"/>
</a>
</g>
</g>
<!-- Node15 -->
<g id="Node000015" class="node">
<title>Node15</title>
<g id="a_Node000015"><a xlink:title=" ">
<polygon fill="#e0e0e0" stroke="#999999" points="1541.75,-103 1407.25,-103 1407.25,-69.5 1541.75,-69.5 1541.75,-103"/>
<text xml:space="preserve" text-anchor="start" x="1415.25" y="-89.5" font-family="Helvetica,sans-Serif" font-size="10.00">net/un/stream/tls/Socket</text>
<text xml:space="preserve" text-anchor="middle" x="1474.5" y="-76.75" font-family="Helvetica,sans-Serif" font-size="10.00">Client.h</text>
</a>
</g>
</g>
<!-- Node1&#45;&gt;Node15 -->
<g id="edge14_Node000001_Node000015" class="edge">
<title>Node1&#45;&gt;Node15</title>
<g id="a_edge14_Node000001_Node000015"><a xlink:title=" ">
<path fill="none" stroke="#63b8ff" d="M1298.24,-138.55C1327.79,-129.95 1371.59,-117.2 1408.13,-106.57"/>
<polygon fill="#63b8ff" stroke="#63b8ff" points="1408.65,-110.06 1417.27,-103.91 1406.69,-103.34 1408.65,-110.06"/>
</a>
</g>
</g>
<!-- Node16 -->
<g id="Node000016" class="node">
<title>Node16</title>
<g id="a_Node000016"><a xlink:title=" ">
<polygon fill="#e0e0e0" stroke="#999999" points="1715.62,-96.62 1559.38,-96.62 1559.38,-75.88 1715.62,-75.88 1715.62,-96.62"/>
<text xml:space="preserve" text-anchor="middle" x="1637.5" y="-83.12" font-family="Helvetica,sans-Serif" font-size="10.00">web/http/client/ConfigHTTP.h</text>
</a>
</g>
</g>
<!-- Node1&#45;&gt;Node16 -->
<g id="edge15_Node000001_Node000016" class="edge">
<title>Node1&#45;&gt;Node16</title>
<g id="a_edge15_Node000001_Node000016"><a xlink:title=" ">
<path fill="none" stroke="#63b8ff" d="M1319.12,-140.07C1376.72,-131.23 1470.08,-116.66 1550.5,-103 1557.82,-101.76 1565.48,-100.42 1573.09,-99.07"/>
<polygon fill="#63b8ff" stroke="#63b8ff" points="1573.44,-102.57 1582.67,-97.36 1572.21,-95.67 1573.44,-102.57"/>
</a>
</g>
</g>
<!-- Node17 -->
<g id="Node000017" class="node">
<title>Node17</title>
<g id="a_Node000017"><a xlink:title=" ">
<polygon fill="#e0e0e0" stroke="#999999" points="1849.75,-96.62 1733.25,-96.62 1733.25,-75.88 1849.75,-75.88 1849.75,-96.62"/>
<text xml:space="preserve" text-anchor="middle" x="1791.5" y="-83.12" font-family="Helvetica,sans-Serif" font-size="10.00">web/http/http_utils.h</text>
</a>
</g>
</g>
<!-- Node1&#45;&gt;Node17 -->
<g id="edge16_Node000001_Node000017" class="edge">
<title>Node1&#45;&gt;Node17</title>
<g id="a_edge16_Node000001_Node000017"><a xlink:title=" ">
<path fill="none" stroke="#63b8ff" d="M1318.98,-145.35C1405.4,-140.02 1579.04,-127.16 1724.5,-103 1730.47,-102.01 1736.69,-100.79 1742.85,-99.48"/>
<polygon fill="#63b8ff" stroke="#63b8ff" points="1743.29,-102.97 1752.29,-97.37 1741.76,-96.14 1743.29,-102.97"/>
</a>
</g>
</g>
<!-- Node18 -->
<g id="Node000018" class="node">
<title>Node18</title>
<g id="a_Node000018"><a xlink:title=" ">
<polygon fill="#e0e0e0" stroke="#999999" points="1973.5,-103 1867.5,-103 1867.5,-69.5 1973.5,-69.5 1973.5,-103"/>
<text xml:space="preserve" text-anchor="start" x="1875.5" y="-89.5" font-family="Helvetica,sans-Serif" font-size="10.00">web/http/legacy/in</text>
<text xml:space="preserve" text-anchor="middle" x="1920.5" y="-76.75" font-family="Helvetica,sans-Serif" font-size="10.00">/Client.h</text>
</a>
</g>
</g>
<!-- Node1&#45;&gt;Node18 -->
<g id="edge17_Node000001_Node000018" class="edge">
<title>Node1&#45;&gt;Node18</title>
<g id="a_edge17_Node000001_Node000018"><a xlink:title=" ">
<path fill="none" stroke="#63b8ff" d="M1318.93,-147.35C1422.04,-144.73 1652.98,-135.63 1856.01,-103.23"/>
<polygon fill="#63b8ff" stroke="#63b8ff" points="1856.38,-106.71 1865.69,-101.66 1855.26,-99.8 1856.38,-106.71"/>
</a>
</g>
</g>
<!-- Node19 -->
<g id="Node000019" class="node">
<title>Node19</title>
<g id="a_Node000019"><a xlink:title=" ">
<polygon fill="#e0e0e0" stroke="#999999" points="2103.5,-103 1991.5,-103 1991.5,-69.5 2103.5,-69.5 2103.5,-103"/>
<text xml:space="preserve" text-anchor="start" x="1999.5" y="-89.5" font-family="Helvetica,sans-Serif" font-size="10.00">web/http/legacy/in6</text>
<text xml:space="preserve" text-anchor="middle" x="2047.5" y="-76.75" font-family="Helvetica,sans-Serif" font-size="10.00">/Client.h</text>
</a>
</g>
</g>
<!-- Node1&#45;&gt;Node19 -->
<g id="edge18_Node000001_Node000019" class="edge">
<title>Node1&#45;&gt;Node19</title>
<g id="a_edge18_Node000001_Node000019"><a xlink:title=" ">
<path fill="none" stroke="#63b8ff" d="M1318.89,-148.17C1437.44,-147.02 1728.07,-140.44 1980.04,-103.2"/>
<polygon fill="#63b8ff" stroke="#63b8ff" points="1980.38,-106.69 1989.75,-101.74 1979.34,-99.76 1980.38,-106.69"/>
</a>
</g>
</g>
<!-- Node20 -->
<g id="Node000020" class="node">
<title>Node20</title>
<g id="a_Node000020"><a xlink:title=" ">
<polygon fill="#e0e0e0" stroke="#999999" points="2231,-103 2122,-103 2122,-69.5 2231,-69.5 2231,-103"/>
<text xml:space="preserve" text-anchor="start" x="2130" y="-89.5" font-family="Helvetica,sans-Serif" font-size="10.00">web/http/legacy/un</text>
<text xml:space="preserve" text-anchor="middle" x="2176.5" y="-76.75" font-family="Helvetica,sans-Serif" font-size="10.00">/Client.h</text>
</a>
</g>
</g>
<!-- Node1&#45;&gt;Node20 -->
<g id="edge19_Node000001_Node000020" class="edge">
<title>Node1&#45;&gt;Node20</title>
<g id="a_edge19_Node000001_Node000020"><a xlink:title=" ">
<path fill="none" stroke="#63b8ff" d="M1318.92,-148.99C1452.39,-149.74 1806.57,-147.18 2110.57,-103.08"/>
<polygon fill="#63b8ff" stroke="#63b8ff" points="2110.94,-106.56 2120.32,-101.64 2109.92,-99.63 2110.94,-106.56"/>
</a>
</g>
</g>
<!-- Node21 -->
<g id="Node000021" class="node">
<title>Node21</title>
<g id="a_Node000021"><a xlink:title=" ">
<polygon fill="#e0e0e0" stroke="#999999" points="2375.62,-96.62 2249.38,-96.62 2249.38,-75.88 2375.62,-75.88 2375.62,-96.62"/>
<text xml:space="preserve" text-anchor="middle" x="2312.5" y="-83.12" font-family="Helvetica,sans-Serif" font-size="10.00">web/http/tls/in/Client.h</text>
</a>
</g>
</g>
<!-- Node1&#45;&gt;Node21 -->
<g id="edge20_Node000001_Node000021" class="edge">
<title>Node1&#45;&gt;Node21</title>
<g id="a_edge20_Node000001_Node000021"><a xlink:title=" ">
<path fill="none" stroke="#63b8ff" d="M1319.01,-149.06C1467.57,-150.22 1891.74,-148.92 2240.5,-103 2247.58,-102.07 2254.99,-100.79 2262.25,-99.37"/>
<polygon fill="#63b8ff" stroke="#63b8ff" points="2262.91,-102.81 2271.99,-97.35 2261.49,-95.96 2262.91,-102.81"/>
</a>
</g>
</g>
<!-- Node22 -->
<g id="Node000022" class="node">
<title>Node22</title>
<g id="a_Node000022"><a xlink:title=" ">
<polygon fill="#e0e0e0" stroke="#999999" points="2525.62,-96.62 2393.38,-96.62 2393.38,-75.88 2525.62,-75.88 2525.62,-96.62"/>
<text xml:space="preserve" text-anchor="middle" x="2459.5" y="-83.12" font-family="Helvetica,sans-Serif" font-size="10.00">web/http/tls/in6/Client.h</text>
</a>
</g>
</g>
<!-- Node1&#45;&gt;Node22 -->
<g id="edge21_Node000001_Node000022" class="edge">
<title>Node1&#45;&gt;Node22</title>
<g id="a_edge21_Node000001_Node000022"><a xlink:title=" ">
<path fill="none" stroke="#63b8ff" d="M1318.96,-147.37C1513.64,-143.59 2174.61,-129.11 2384.5,-103 2392.04,-102.06 2399.95,-100.76 2407.69,-99.3"/>
<polygon fill="#63b8ff" stroke="#63b8ff" points="2408.23,-102.76 2417.35,-97.37 2406.86,-95.9 2408.23,-102.76"/>
</a>
</g>
</g>
<!-- Node23 -->
<g id="Node000023" class="node">
<title>Node23</title>
<g id="a_Node000023"><a xlink:title=" ">
<polygon fill="#e0e0e0" stroke="#999999" points="2673.12,-96.62 2543.88,-96.62 2543.88,-75.88 2673.12,-75.88 2673.12,-96.62"/>
<text xml:space="preserve" text-anchor="middle" x="2608.5" y="-83.12" font-family="Helvetica,sans-Serif" font-size="10.00">web/http/tls/un/Client.h</text>
</a>
</g>
</g>
<!-- Node1&#45;&gt;Node23 -->
<g id="edge22_Node000001_Node000023" class="edge">
<title>Node1&#45;&gt;Node23</title>
<g id="a_edge22_Node000001_Node000023"><a xlink:title=" ">
<path fill="none" stroke="#63b8ff" d="M1318.85,-147.69C1529.7,-144.85 2293.77,-132.69 2534.5,-103 2541.86,-102.09 2549.57,-100.82 2557.12,-99.39"/>
<polygon fill="#63b8ff" stroke="#63b8ff" points="2557.79,-102.82 2566.91,-97.41 2556.41,-95.96 2557.79,-102.82"/>
</a>
</g>
</g>
<!-- Node3 -->
<g id="Node000003" class="node">
<title>Node3</title>
<g id="a_Node000003"><a xlink:title=" ">
<polygon fill="#e0e0e0" stroke="#999999" points="133,-33.5 0,-33.5 0,0 133,0 133,-33.5"/>
<text xml:space="preserve" text-anchor="start" x="8" y="-20" font-family="Helvetica,sans-Serif" font-size="10.00">core/socket/stream</text>
<text xml:space="preserve" text-anchor="middle" x="66.5" y="-7.25" font-family="Helvetica,sans-Serif" font-size="10.00">/SocketContextFactory.h</text>
</a>
</g>
</g>
<!-- Node2&#45;&gt;Node3 -->
<g id="edge2_Node000002_Node000003" class="edge">
<title>Node2&#45;&gt;Node3</title>
<g id="a_edge2_Node000002_Node000003"><a xlink:title=" ">
<path fill="none" stroke="#63b8ff" d="M66.5,-75.58C66.5,-67.69 66.5,-56.13 66.5,-45.41"/>
<polygon fill="#63b8ff" stroke="#63b8ff" points="70,-45.43 66.5,-35.43 63,-45.43 70,-45.43"/>
</a>
</g>
</g>
<!-- Node6 -->
<g id="Node000006" class="node">
<title>Node6</title>
<g id="a_Node000006"><a xlink:title=" ">
<polygon fill="#e0e0e0" stroke="#999999" points="351.62,-27.12 207.38,-27.12 207.38,-6.38 351.62,-6.38 351.62,-27.12"/>
<text xml:space="preserve" text-anchor="middle" x="279.5" y="-13.62" font-family="Helvetica,sans-Serif" font-size="10.00">net/config/ConfigSection.h</text>
</a>
</g>
</g>
<!-- Node5&#45;&gt;Node6 -->
<g id="edge5_Node000005_Node000006" class="edge">
<title>Node5&#45;&gt;Node6</title>
<g id="a_edge5_Node000005_Node000006"><a xlink:title=" ">
<path fill="none" stroke="#63b8ff" d="M279.5,-75.58C279.5,-65.96 279.5,-50.88 279.5,-38.54"/>
<polygon fill="#63b8ff" stroke="#63b8ff" points="283,-38.92 279.5,-28.92 276,-38.92 283,-38.92"/>
</a>
</g>
</g>
</g>
</svg>

<g id="navigator" transform="translate(0 0)" fill="#404254">
  <rect fill="#f2f5e9" fill-opacity="0.5" stroke="#606060" stroke-width=".5" x="0" y="0" width="60" height="60"/>
  <use id="zoomplus" xlink:href="#zoomPlus" x="17" y="9" onmousedown="handleZoom(evt,'in')"/>
  <use id="zoomminus" xlink:href="#zoomMin" x="42" y="9" onmousedown="handleZoom(evt,'out')"/>
  <use id="reset" xlink:href="#resetDef" x="30" y="36" onmousedown="handleReset()"/>
   <use id="arrowup" xlink:href="#arrowUp" x="0" y="0" onmousedown="handlePan(0,-1)"/>
  <use id="arrowright" xlink:href="#arrowRight" x="0" y="0" onmousedown="handlePan(1,0)"/>
  <use id="arrowdown" xlink:href="#arrowDown" x="0" y="0" onmousedown="handlePan(0,1)"/>
  <use id="arrowleft" xlink:href="#arrowLeft" x="0" y="0" onmousedown="handlePan(-1,0)"/>
</g>
<svg viewBox="0 0 15 15" width="100%" height="30px" preserveAspectRatio="xMaxYMin meet">
 <g id="arrow_out" transform="scale(0.3 0.3)">
  <a xlink:href="mqttcli_8cpp__incl_org.svg" target="_base">
   <rect id="button" ry="5" rx="5" y="6" x="6" height="38" width="38"
        fill="#f2f5e9" fill-opacity="0.5" stroke="#606060" stroke-width="1.0"/>
   <path id="arrow"
     d="M 11.500037,31.436501 C 11.940474,20.09759 22.043105,11.32322 32.158766,21.979434 L 37.068811,17.246167 C 37.068811,17.246167 37.088388,32 37.088388,32 L 22.160133,31.978069 C 22.160133,31.978069 26.997745,27.140456 26.997745,27.140456 C 18.528582,18.264221 13.291696,25.230495 11.500037,31.436501 z"
     style="fill:#404040;"/>
  </a>
 </g>
</svg>

<style type='text/css'>
<![CDATA[
[data-mouse-over-selected='false'] { opacity: 0.7; }
[data-mouse-over-selected='true']  { opacity: 1.0; }
]]>
</style>
<script type="application/ecmascript"><![CDATA[
document.addEventListener('DOMContentLoaded', (event) => {
  highlightEdges();
  highlightAdjacentNodes();
});
]]></script>
</svg>
