<?xml version="1.0" encoding="UTF-8" standalone="no"?>
<!DOCTYPE svg PUBLIC "-//W3C//DTD SVG 1.1//EN"
 "http://www.w3.org/Graphics/SVG/1.1/DTD/svg11.dtd">
<!-- Generated by graphviz version 14.1.2 (0)
 -->
<!-- Title: mqttintegrator/websocket/SubProtocolFactory.cpp Pages: 1 -->
<svg width="1210pt" height="181pt"
 viewBox="0.00 0.00 1210.00 181.00" xmlns="http://www.w3.org/2000/svg" xmlns:xlink="http://www.w3.org/1999/xlink">
<g id="graph0" class="graph" transform="scale(1 1) rotate(0) translate(4 176.5)">
<title>mqttintegrator/websocket/SubProtocolFactory.cpp</title>
<!-- Node1 -->
<g id="Node000001" class="node">
<title>Node1</title>
<g id="a_Node000001"><a xlink:title=" ">
<polygon fill="#999999" stroke="#666666" points="840.38,-172.5 698.38,-172.5 698.38,-139 840.38,-139 840.38,-172.5"/>
<text xml:space="preserve" text-anchor="start" x="706.38" y="-159" font-family="Helvetica,sans-Serif" font-size="10.00">mqttintegrator/websocket</text>
<text xml:space="preserve" text-anchor="middle" x="769.38" y="-146.25" font-family="Helvetica,sans-Serif" font-size="10.00">/SubProtocolFactory.cpp</text>
</a>
</g>
</g>
<!-- Node2 -->
<g id="Node000002" class="node">
<title>Node2</title>
<g id="a_Node000002"><a xlink:href="mqttintegrator_2websocket_2SubProtocolFactory_8h.html" target="_top" xlink:title=" ">
<polygon fill="white" stroke="#666666" points="382,-96.62 264.75,-96.62 264.75,-75.88 382,-75.88 382,-96.62"/>
<text xml:space="preserve" text-anchor="middle" x="323.38" y="-83.12" font-family="Helvetica,sans-Serif" font-size="10.00">SubProtocolFactory.h</text>
</a>
</g>
</g>
<!-- Node1&#45;&gt;Node2 -->
<g id="edge1_Node000001_Node000002" class="edge">
<title>Node1&#45;&gt;Node2</title>
<g id="a_edge1_Node000001_Node000002"><a xlink:title=" ">
<path fill="none" stroke="#63b8ff" d="M698.21,-143.98C614.59,-131.32 476.73,-110.46 393.54,-97.87"/>
<polygon fill="#63b8ff" stroke="#63b8ff" points="394.09,-94.41 383.68,-96.38 393.04,-101.33 394.09,-94.41"/>
</a>
</g>
</g>
<!-- Node6 -->
<g id="Node000006" class="node">
<title>Node6</title>
<g id="a_Node000006"><a xlink:href="ConfigApplication_8h.html" target="_top" xlink:title=" ">
<polygon fill="white" stroke="#666666" points="564.5,-96.62 438.25,-96.62 438.25,-75.88 564.5,-75.88 564.5,-96.62"/>
<text xml:space="preserve" text-anchor="middle" x="501.38" y="-83.12" font-family="Helvetica,sans-Serif" font-size="10.00">lib/ConfigApplication.h</text>
</a>
</g>
</g>
<!-- Node1&#45;&gt;Node6 -->
<g id="edge5_Node000001_Node000006" class="edge">
<title>Node1&#45;&gt;Node6</title>
<g id="a_edge5_Node000001_Node000006"><a xlink:title=" ">
<path fill="none" stroke="#63b8ff" d="M705.18,-138.58C658.13,-126.73 595.15,-110.87 551.71,-99.93"/>
<polygon fill="#63b8ff" stroke="#63b8ff" points="552.58,-96.54 542.03,-97.49 550.87,-103.33 552.58,-96.54"/>
</a>
</g>
</g>
<!-- Node8 -->
<g id="Node000008" class="node">
<title>Node8</title>
<g id="a_Node000008"><a xlink:href="JsonMappingReader_8h.html" target="_top" xlink:title=" ">
<polygon fill="white" stroke="#666666" points="719.75,-96.62 583,-96.62 583,-75.88 719.75,-75.88 719.75,-96.62"/>
<text xml:space="preserve" text-anchor="middle" x="651.38" y="-83.12" font-family="Helvetica,sans-Serif" font-size="10.00">lib/JsonMappingReader.h</text>
</a>
</g>
</g>
<!-- Node1&#45;&gt;Node8 -->
<g id="edge7_Node000001_Node000008" class="edge">
<title>Node1&#45;&gt;Node8</title>
<g id="a_edge7_Node000001_Node000008"><a xlink:title=" ">
<path fill="none" stroke="#63b8ff" d="M741.11,-138.58C722.1,-127.71 697.18,-113.45 678.43,-102.73"/>
<polygon fill="#63b8ff" stroke="#63b8ff" points="680.19,-99.7 669.77,-97.77 676.71,-105.78 680.19,-99.7"/>
</a>
</g>
</g>
<!-- Node9 -->
<g id="Node000009" class="node">
<title>Node9</title>
<g id="a_Node000009"><a xlink:title=" ">
<polygon fill="#e0e0e0" stroke="#999999" points="800.62,-96.62 738.12,-96.62 738.12,-75.88 800.62,-75.88 800.62,-96.62"/>
<text xml:space="preserve" text-anchor="middle" x="769.38" y="-83.12" font-family="Helvetica,sans-Serif" font-size="10.00">lib/Mqtt.h</text>
</a>
</g>
</g>
<!-- Node1&#45;&gt;Node9 -->
<g id="edge8_Node000001_Node000009" class="edge">
<title>Node1&#45;&gt;Node9</title>
<g id="a_edge8_Node000001_Node000009"><a xlink:title=" ">
<path fill="none" stroke="#63b8ff" d="M769.38,-138.75C769.38,-129.65 769.38,-118.14 769.38,-108.32"/>
<polygon fill="#63b8ff" stroke="#63b8ff" points="772.88,-108.59 769.38,-98.59 765.88,-108.59 772.88,-108.59"/>
</a>
</g>
</g>
<!-- Node10 -->
<g id="Node000010" class="node">
<title>Node10</title>
<g id="a_Node000010"><a xlink:title=" ">
<polygon fill="#e0e0e0" stroke="#999999" points="933.88,-103 818.88,-103 818.88,-69.5 933.88,-69.5 933.88,-103"/>
<text xml:space="preserve" text-anchor="start" x="826.88" y="-89.5" font-family="Helvetica,sans-Serif" font-size="10.00">core/socket/stream</text>
<text xml:space="preserve" text-anchor="middle" x="876.38" y="-76.75" font-family="Helvetica,sans-Serif" font-size="10.00">/SocketConnection.h</text>
</a>
</g>
</g>
<!-- Node1&#45;&gt;Node10 -->
<g id="edge9_Node000001_Node000010" class="edge">
<title>Node1&#45;&gt;Node10</title>
<g id="a_edge9_Node000001_Node000010"><a xlink:title=" ">
<path fill="none" stroke="#63b8ff" d="M795,-138.58C808.9,-129.82 826.28,-118.85 841.4,-109.31"/>
<polygon fill="#63b8ff" stroke="#63b8ff" points="843.08,-112.39 849.67,-104.09 839.35,-106.47 843.08,-112.39"/>
</a>
</g>
</g>
<!-- Node11 -->
<g id="Node000011" class="node">
<title>Node11</title>
<g id="a_Node000011"><a xlink:title=" ">
<polygon fill="#e0e0e0" stroke="#999999" points="1032.62,-96.62 952.12,-96.62 952.12,-75.88 1032.62,-75.88 1032.62,-96.62"/>
<text xml:space="preserve" text-anchor="middle" x="992.38" y="-83.12" font-family="Helvetica,sans-Serif" font-size="10.00">utils/Config.h</text>
</a>
</g>
</g>
<!-- Node1&#45;&gt;Node11 -->
<g id="edge10_Node000001_Node000011" class="edge">
<title>Node1&#45;&gt;Node11</title>
<g id="a_edge10_Node000001_Node000011"><a xlink:title=" ">
<path fill="none" stroke="#63b8ff" d="M825.11,-138.51C859.29,-128.47 903.93,-115.2 943.38,-103 945.93,-102.21 948.56,-101.39 951.21,-100.55"/>
<polygon fill="#63b8ff" stroke="#63b8ff" points="952.17,-103.92 960.64,-97.56 950.05,-97.25 952.17,-103.92"/>
</a>
</g>
</g>
<!-- Node12 -->
<g id="Node000012" class="node">
<title>Node12</title>
<g id="a_Node000012"><a xlink:title=" ">
<polygon fill="#e0e0e0" stroke="#999999" points="1202.25,-103 1050.5,-103 1050.5,-69.5 1202.25,-69.5 1202.25,-103"/>
<text xml:space="preserve" text-anchor="start" x="1058.5" y="-89.5" font-family="Helvetica,sans-Serif" font-size="10.00">web/websocket/SubProtocol</text>
<text xml:space="preserve" text-anchor="middle" x="1126.38" y="-76.75" font-family="Helvetica,sans-Serif" font-size="10.00">Context.h</text>
</a>
</g>
</g>
<!-- Node1&#45;&gt;Node12 -->
<g id="edge11_Node000001_Node000012" class="edge">
<title>Node1&#45;&gt;Node12</title>
<g id="a_edge11_Node000001_Node000012"><a xlink:title=" ">
<path fill="none" stroke="#63b8ff" d="M840.76,-141.25C897.85,-130.46 978.12,-115.28 1039.04,-103.76"/>
<polygon fill="#63b8ff" stroke="#63b8ff" points="1039.51,-107.24 1048.69,-101.94 1038.21,-100.36 1039.51,-107.24"/>
</a>
</g>
</g>
<!-- Node3 -->
<g id="Node000003" class="node">
<title>Node3</title>
<g id="a_Node000003"><a xlink:title=" ">
<polygon fill="#e0e0e0" stroke="#999999" points="154.75,-27.12 0,-27.12 0,-6.38 154.75,-6.38 154.75,-27.12"/>
<text xml:space="preserve" text-anchor="middle" x="77.38" y="-13.62" font-family="Helvetica,sans-Serif" font-size="10.00">iot/mqtt/client/SubProtocol.h</text>
</a>
</g>
</g>
<!-- Node2&#45;&gt;Node3 -->
<g id="edge2_Node000002_Node000003" class="edge">
<title>Node2&#45;&gt;Node3</title>
<g id="a_edge2_Node000002_Node000003"><a xlink:title=" ">
<path fill="none" stroke="#63b8ff" d="M287.6,-75.43C244.43,-63.59 171.7,-43.63 124.12,-30.58"/>
<polygon fill="#63b8ff" stroke="#63b8ff" points="125.22,-27.25 114.65,-27.98 123.37,-34 125.22,-27.25"/>
</a>
</g>
</g>
<!-- Node4 -->
<g id="Node000004" class="node">
<title>Node4</title>
<g id="a_Node000004"><a xlink:title=" ">
<polygon fill="#e0e0e0" stroke="#999999" points="324.25,-33.5 172.5,-33.5 172.5,0 324.25,0 324.25,-33.5"/>
<text xml:space="preserve" text-anchor="start" x="180.5" y="-20" font-family="Helvetica,sans-Serif" font-size="10.00">web/websocket/SubProtocol</text>
<text xml:space="preserve" text-anchor="middle" x="248.38" y="-7.25" font-family="Helvetica,sans-Serif" font-size="10.00">Factory.h</text>
</a>
</g>
</g>
<!-- Node2&#45;&gt;Node4 -->
<g id="edge3_Node000002_Node000004" class="edge">
<title>Node2&#45;&gt;Node4</title>
<g id="a_edge3_Node000002_Node000004"><a xlink:title=" ">
<path fill="none" stroke="#63b8ff" d="M312.63,-75.58C302.73,-66.67 287.63,-53.08 274.56,-41.32"/>
<polygon fill="#63b8ff" stroke="#63b8ff" points="277.24,-39.02 267.47,-34.93 272.56,-44.22 277.24,-39.02"/>
</a>
</g>
</g>
<!-- Node5 -->
<g id="Node000005" class="node">
<title>Node5</title>
<g id="a_Node000005"><a xlink:title=" ">
<polygon fill="#e0e0e0" stroke="#999999" points="462.88,-33.5 341.88,-33.5 341.88,0 462.88,0 462.88,-33.5"/>
<text xml:space="preserve" text-anchor="start" x="349.88" y="-20" font-family="Helvetica,sans-Serif" font-size="10.00">web/websocket/client</text>
<text xml:space="preserve" text-anchor="middle" x="402.38" y="-7.25" font-family="Helvetica,sans-Serif" font-size="10.00">/SubProtocol.h</text>
</a>
</g>
</g>
<!-- Node2&#45;&gt;Node5 -->
<g id="edge4_Node000002_Node000005" class="edge">
<title>Node2&#45;&gt;Node5</title>
<g id="a_edge4_Node000002_Node000005"><a xlink:title=" ">
<path fill="none" stroke="#63b8ff" d="M334.69,-75.58C345.12,-66.67 361.02,-53.08 374.79,-41.32"/>
<polygon fill="#63b8ff" stroke="#63b8ff" points="376.97,-44.06 382.3,-34.9 372.42,-38.74 376.97,-44.06"/>
</a>
</g>
</g>
<!-- Node7 -->
<g id="Node000007" class="node">
<title>Node7</title>
<g id="a_Node000007"><a xlink:title=" ">
<polygon fill="#e0e0e0" stroke="#999999" points="598,-27.12 480.75,-27.12 480.75,-6.38 598,-6.38 598,-27.12"/>
<text xml:space="preserve" text-anchor="middle" x="539.38" y="-13.62" font-family="Helvetica,sans-Serif" font-size="10.00">utils/SubCommand.h</text>
</a>
</g>
</g>
<!-- Node6&#45;&gt;Node7 -->
<g id="edge6_Node000006_Node000007" class="edge">
<title>Node6&#45;&gt;Node7</title>
<g id="a_edge6_Node000006_Node000007"><a xlink:title=" ">
<path fill="none" stroke="#63b8ff" d="M506.82,-75.58C512.41,-65.65 521.26,-49.93 528.32,-37.39"/>
<polygon fill="#63b8ff" stroke="#63b8ff" points="531.34,-39.15 533.2,-28.72 525.24,-35.72 531.34,-39.15"/>
</a>
</g>
</g>
</g>
</svg>
