<?xml version="1.0" encoding="UTF-8" standalone="no"?>
<!DOCTYPE svg PUBLIC "-//W3C//DTD SVG 1.1//EN"
 "http://www.w3.org/Graphics/SVG/1.1/DTD/svg11.dtd">
<!-- Generated by graphviz version 14.1.2 (0)
 -->
<!-- Title: handleConnector Pages: 1 -->
<svg width="1212pt" height="208pt"
 viewBox="0.00 0.00 1212.00 208.00" xmlns="http://www.w3.org/2000/svg" xmlns:xlink="http://www.w3.org/1999/xlink">
<g id="graph0" class="graph" transform="scale(1 1) rotate(0) translate(4 203.5)">
<title>handleConnector</title>
<!-- Node1 -->
<g id="Node000001" class="node">
<title>Node1</title>
<g id="a_Node000001"><a xlink:title=" ">
<polygon fill="#999999" stroke="#666666" points="98.5,-110.12 0,-110.12 0,-89.38 98.5,-89.38 98.5,-110.12"/>
<text xml:space="preserve" text-anchor="middle" x="49.25" y="-96.62" font-family="Helvetica,sans-Serif" font-size="10.00">handleConnector</text>
</a>
</g>
</g>
<!-- Node2 -->
<g id="Node000002" class="node">
<title>Node2</title>
<g id="a_Node000002"><a xlink:href="mqttbridge_8cpp.html#a90732e510a2e6efcd8d0ab7912f5b043" target="_top" xlink:title=" ">
<polygon fill="white" stroke="#666666" points="236,-110.12 134.5,-110.12 134.5,-89.38 236,-89.38 236,-110.12"/>
<text xml:space="preserve" text-anchor="middle" x="185.25" y="-96.62" font-family="Helvetica,sans-Serif" font-size="10.00">tryRestartBridges</text>
</a>
</g>
</g>
<!-- Node1&#45;&gt;Node2 -->
<g id="edge1_Node000001_Node000002" class="edge">
<title>Node1&#45;&gt;Node2</title>
<g id="a_edge1_Node000001_Node000002"><a xlink:title=" ">
<path fill="none" stroke="#63b8ff" d="M98.63,-99.75C106.47,-99.75 114.69,-99.75 122.8,-99.75"/>
<polygon fill="#63b8ff" stroke="#63b8ff" points="122.63,-103.25 132.63,-99.75 122.63,-96.25 122.63,-103.25"/>
</a>
</g>
</g>
<!-- Node3 -->
<g id="Node000003" class="node">
<title>Node3</title>
<g id="a_Node000003"><a xlink:href="classmqtt_1_1bridge_1_1lib_1_1BridgeStore.html#a94cc67c07a763979a3625d806474a972" target="_top" xlink:title=" ">
<polygon fill="white" stroke="#666666" points="424.5,-199.5 272,-199.5 272,-166 424.5,-166 424.5,-199.5"/>
<text xml:space="preserve" text-anchor="start" x="280" y="-186" font-family="Helvetica,sans-Serif" font-size="10.00">mqtt::bridge::lib::</text>
<text xml:space="preserve" text-anchor="middle" x="348.25" y="-173.25" font-family="Helvetica,sans-Serif" font-size="10.00">BridgeStore::activateStaged</text>
</a>
</g>
</g>
<!-- Node2&#45;&gt;Node3 -->
<g id="edge2_Node000002_Node000003" class="edge">
<title>Node2&#45;&gt;Node3</title>
<g id="a_edge2_Node000002_Node000003"><a xlink:title=" ">
<path fill="none" stroke="#63b8ff" d="M202.26,-110.49C219.17,-121.58 246.83,-139.03 272,-151.75 278.29,-154.93 284.98,-158.05 291.69,-161"/>
<polygon fill="#63b8ff" stroke="#63b8ff" points="290.21,-164.18 300.78,-164.91 292.98,-157.75 290.21,-164.18"/>
</a>
</g>
</g>
<!-- Node4 -->
<g id="Node000004" class="node">
<title>Node4</title>
<g id="a_Node000004"><a xlink:href="classmqtt_1_1bridge_1_1lib_1_1SSEDistributor.html#a6163c6302162edf63fbfb851cf995bb0" target="_top" xlink:title=" ">
<polygon fill="white" stroke="#666666" points="628,-175.5 460.5,-175.5 460.5,-142 628,-142 628,-175.5"/>
<text xml:space="preserve" text-anchor="start" x="468.5" y="-162" font-family="Helvetica,sans-Serif" font-size="10.00">mqtt::bridge::lib::</text>
<text xml:space="preserve" text-anchor="middle" x="544.25" y="-149.25" font-family="Helvetica,sans-Serif" font-size="10.00">SSEDistributor::bridgesStopped</text>
</a>
</g>
</g>
<!-- Node2&#45;&gt;Node4 -->
<g id="edge3_Node000002_Node000004" class="edge">
<title>Node2&#45;&gt;Node4</title>
<g id="a_edge3_Node000002_Node000004"><a xlink:title=" ">
<path fill="none" stroke="#63b8ff" d="M232.41,-110.61C245.19,-113.45 259.1,-116.37 272,-118.75 330.55,-129.54 396.64,-139.33 448.92,-146.53"/>
<polygon fill="#63b8ff" stroke="#63b8ff" points="448.31,-149.98 458.7,-147.87 449.26,-143.04 448.31,-149.98"/>
</a>
</g>
</g>
<!-- Node10 -->
<g id="Node000010" class="node">
<title>Node10</title>
<g id="a_Node000010"><a xlink:href="classmqtt_1_1bridge_1_1lib_1_1BridgeStore.html#a7b35204686d51d46798ecae6918527e1" target="_top" xlink:title=" ">
<polygon fill="white" stroke="#666666" points="408.38,-33.5 288.12,-33.5 288.12,0 408.38,0 408.38,-33.5"/>
<text xml:space="preserve" text-anchor="start" x="296.12" y="-20" font-family="Helvetica,sans-Serif" font-size="10.00">mqtt::bridge::lib::</text>
<text xml:space="preserve" text-anchor="middle" x="348.25" y="-7.25" font-family="Helvetica,sans-Serif" font-size="10.00">BridgeStore::instance</text>
</a>
</g>
</g>
<!-- Node2&#45;&gt;Node10 -->
<g id="edge9_Node000002_Node000010" class="edge">
<title>Node2&#45;&gt;Node10</title>
<g id="a_edge9_Node000002_Node000010"><a xlink:title=" ">
<path fill="none" stroke="#63b8ff" d="M202.26,-89.01C219.17,-77.92 246.83,-60.47 272,-47.75 278.29,-44.57 284.98,-41.45 291.69,-38.5"/>
<polygon fill="#63b8ff" stroke="#63b8ff" points="292.98,-41.75 300.78,-34.59 290.21,-35.32 292.98,-41.75"/>
</a>
</g>
</g>
<!-- Node11 -->
<g id="Node000011" class="node">
<title>Node11</title>
<g id="a_Node000011"><a xlink:href="classmqtt_1_1bridge_1_1lib_1_1SSEDistributor.html#ab6cc33c1c26ccfbd738a5ec2700f0896" target="_top" xlink:title=" ">
<polygon fill="white" stroke="#666666" points="610.75,-71.5 477.75,-71.5 477.75,-38 610.75,-38 610.75,-71.5"/>
<text xml:space="preserve" text-anchor="start" x="485.75" y="-58" font-family="Helvetica,sans-Serif" font-size="10.00">mqtt::bridge::lib::</text>
<text xml:space="preserve" text-anchor="middle" x="544.25" y="-45.25" font-family="Helvetica,sans-Serif" font-size="10.00">SSEDistributor::instance</text>
</a>
</g>
</g>
<!-- Node2&#45;&gt;Node11 -->
<g id="edge10_Node000002_Node000011" class="edge">
<title>Node2&#45;&gt;Node11</title>
<g id="a_edge10_Node000002_Node000011"><a xlink:title=" ">
<path fill="none" stroke="#63b8ff" d="M230.12,-88.95C243.5,-85.94 258.29,-82.92 272,-80.75 337.11,-70.46 411.7,-63.67 466.16,-59.61"/>
<polygon fill="#63b8ff" stroke="#63b8ff" points="466.24,-63.12 475.96,-58.9 465.73,-56.14 466.24,-63.12"/>
</a>
</g>
</g>
<!-- Node12 -->
<g id="Node000012" class="node">
<title>Node12</title>
<g id="a_Node000012"><a xlink:href="mqttbridge_8cpp.html#ac4db1bc049804762ae0893100ec95dec" target="_top" xlink:title=" ">
<polygon fill="white" stroke="#666666" points="385.88,-110.12 310.62,-110.12 310.62,-89.38 385.88,-89.38 385.88,-110.12"/>
<text xml:space="preserve" text-anchor="middle" x="348.25" y="-96.62" font-family="Helvetica,sans-Serif" font-size="10.00">startBridges</text>
</a>
</g>
</g>
<!-- Node2&#45;&gt;Node12 -->
<g id="edge11_Node000002_Node000012" class="edge">
<title>Node2&#45;&gt;Node12</title>
<g id="a_edge11_Node000002_Node000012"><a xlink:title=" ">
<path fill="none" stroke="#63b8ff" d="M236.31,-99.75C256.29,-99.75 279.22,-99.75 299.02,-99.75"/>
<polygon fill="#63b8ff" stroke="#63b8ff" points="298.75,-103.25 308.75,-99.75 298.75,-96.25 298.75,-103.25"/>
</a>
</g>
</g>
<!-- Node5 -->
<g id="Node000005" class="node">
<title>Node5</title>
<g id="a_Node000005"><a xlink:href="classmqtt_1_1bridge_1_1lib_1_1SSEDistributor.html#ae352efe457441f0669d10132f46b514e" target="_top" xlink:title=" ">
<polygon fill="white" stroke="#666666" points="827,-120.5 664,-120.5 664,-87 827,-87 827,-120.5"/>
<text xml:space="preserve" text-anchor="start" x="672" y="-107" font-family="Helvetica,sans-Serif" font-size="10.00">mqtt::bridge::lib::</text>
<text xml:space="preserve" text-anchor="middle" x="745.5" y="-94.25" font-family="Helvetica,sans-Serif" font-size="10.00">SSEDistributor::sendJsonEvent</text>
</a>
</g>
</g>
<!-- Node4&#45;&gt;Node5 -->
<g id="edge4_Node000004_Node000005" class="edge">
<title>Node4&#45;&gt;Node5</title>
<g id="a_edge4_Node000004_Node000005"><a xlink:title=" ">
<path fill="none" stroke="#63b8ff" d="M607.47,-141.57C627.61,-136.02 650.12,-129.8 670.99,-124.04"/>
<polygon fill="#63b8ff" stroke="#63b8ff" points="671.9,-127.42 680.6,-121.39 670.03,-120.67 671.9,-127.42"/>
</a>
</g>
</g>
<!-- Node9 -->
<g id="Node000009" class="node">
<title>Node9</title>
<g id="a_Node000009"><a xlink:href="classmqtt_1_1bridge_1_1lib_1_1SSEDistributor.html#ae175f78eb030a996687f4606171418f6" target="_top" xlink:title=" ">
<polygon fill="white" stroke="#666666" points="820.25,-184.88 670.75,-184.88 670.75,-138.62 820.25,-138.62 820.25,-184.88"/>
<text xml:space="preserve" text-anchor="start" x="678.75" y="-171.38" font-family="Helvetica,sans-Serif" font-size="10.00">mqtt::bridge::lib::</text>
<text xml:space="preserve" text-anchor="start" x="678.75" y="-158.62" font-family="Helvetica,sans-Serif" font-size="10.00">SSEDistributor::timePointTo</text>
<text xml:space="preserve" text-anchor="middle" x="745.5" y="-145.88" font-family="Helvetica,sans-Serif" font-size="10.00">String</text>
</a>
</g>
</g>
<!-- Node4&#45;&gt;Node9 -->
<g id="edge8_Node000004_Node000009" class="edge">
<title>Node4&#45;&gt;Node9</title>
<g id="a_edge8_Node000004_Node000009"><a xlink:title=" ">
<path fill="none" stroke="#63b8ff" d="M628.31,-160C638.47,-160.15 648.87,-160.31 659.07,-160.46"/>
<polygon fill="#63b8ff" stroke="#63b8ff" points="658.91,-163.96 668.96,-160.61 659.01,-156.96 658.91,-163.96"/>
</a>
</g>
</g>
<!-- Node6 -->
<g id="Node000006" class="node">
<title>Node6</title>
<g id="a_Node000006"><a xlink:href="classmqtt_1_1bridge_1_1lib_1_1SSEDistributor.html#a33c28a238f0853d09effb76ed6c49d45" target="_top" xlink:title=" ">
<polygon fill="white" stroke="#666666" points="1005.75,-120.5 863,-120.5 863,-87 1005.75,-87 1005.75,-120.5"/>
<text xml:space="preserve" text-anchor="start" x="871" y="-107" font-family="Helvetica,sans-Serif" font-size="10.00">mqtt::bridge::lib::</text>
<text xml:space="preserve" text-anchor="middle" x="934.38" y="-94.25" font-family="Helvetica,sans-Serif" font-size="10.00">SSEDistributor::sendEvent</text>
</a>
</g>
</g>
<!-- Node5&#45;&gt;Node6 -->
<g id="edge5_Node000005_Node000006" class="edge">
<title>Node5&#45;&gt;Node6</title>
<g id="a_edge5_Node000005_Node000006"><a xlink:title=" ">
<path fill="none" stroke="#63b8ff" d="M827.38,-103.75C835.27,-103.75 843.27,-103.75 851.17,-103.75"/>
<polygon fill="#63b8ff" stroke="#63b8ff" points="851.13,-107.25 861.13,-103.75 851.13,-100.25 851.13,-107.25"/>
</a>
</g>
</g>
<!-- Node7 -->
<g id="Node000007" class="node">
<title>Node7</title>
<g id="a_Node000007"><a xlink:href="classmqtt_1_1bridge_1_1lib_1_1SSEDistributor_1_1EventReceiver.html#ab7cf8f80c46f3ef696bf07dcb779255c" target="_top" xlink:title=" ">
<polygon fill="white" stroke="#666666" points="1204,-155.88 1041.75,-155.88 1041.75,-109.62 1204,-109.62 1204,-155.88"/>
<text xml:space="preserve" text-anchor="start" x="1049.75" y="-142.38" font-family="Helvetica,sans-Serif" font-size="10.00">mqtt::bridge::lib::</text>
<text xml:space="preserve" text-anchor="start" x="1049.75" y="-129.62" font-family="Helvetica,sans-Serif" font-size="10.00">SSEDistributor::EventReceiver</text>
<text xml:space="preserve" text-anchor="middle" x="1122.88" y="-116.88" font-family="Helvetica,sans-Serif" font-size="10.00">::getResponse</text>
</a>
</g>
</g>
<!-- Node6&#45;&gt;Node7 -->
<g id="edge6_Node000006_Node000007" class="edge">
<title>Node6&#45;&gt;Node7</title>
<g id="a_edge6_Node000006_Node000007"><a xlink:title=" ">
<path fill="none" stroke="#63b8ff" d="M1006.15,-114.76C1013.99,-115.97 1022.06,-117.23 1030.12,-118.48"/>
<polygon fill="#63b8ff" stroke="#63b8ff" points="1029.56,-121.94 1039.98,-120.01 1030.63,-115.02 1029.56,-121.94"/>
</a>
</g>
</g>
<!-- Node8 -->
<g id="Node000008" class="node">
<title>Node8</title>
<g id="a_Node000008"><a xlink:href="classmqtt_1_1bridge_1_1lib_1_1SSEDistributor.html#a9f5043f5f0189719413e23c74b3a55c2" target="_top" xlink:title=" ">
<polygon fill="white" stroke="#666666" points="1194.25,-91.5 1051.5,-91.5 1051.5,-58 1194.25,-58 1194.25,-91.5"/>
<text xml:space="preserve" text-anchor="start" x="1059.5" y="-78" font-family="Helvetica,sans-Serif" font-size="10.00">mqtt::bridge::lib::</text>
<text xml:space="preserve" text-anchor="middle" x="1122.88" y="-65.25" font-family="Helvetica,sans-Serif" font-size="10.00">SSEDistributor::sendEvent</text>
</a>
</g>
</g>
<!-- Node6&#45;&gt;Node8 -->
<g id="edge7_Node000006_Node000008" class="edge">
<title>Node6&#45;&gt;Node8</title>
<g id="a_edge7_Node000006_Node000008"><a xlink:title=" ">
<path fill="none" stroke="#63b8ff" d="M1006.15,-92.74C1017.2,-91.03 1028.7,-89.24 1039.97,-87.49"/>
<polygon fill="#63b8ff" stroke="#63b8ff" points="1040.31,-90.98 1049.65,-85.98 1039.24,-84.06 1040.31,-90.98"/>
</a>
</g>
</g>
<!-- Node12&#45;&gt;Node11 -->
<g id="edge15_Node000012_Node000011" class="edge">
<title>Node12&#45;&gt;Node11</title>
<g id="a_edge15_Node000012_Node000011"><a xlink:title=" ">
<path fill="none" stroke="#63b8ff" d="M386.2,-91.18C408.91,-85.91 438.86,-78.96 466.51,-72.55"/>
<polygon fill="#63b8ff" stroke="#63b8ff" points="466.95,-76.04 475.9,-70.37 465.37,-69.22 466.95,-76.04"/>
</a>
</g>
</g>
<!-- Node13 -->
<g id="Node000013" class="node">
<title>Node13</title>
<g id="a_Node000013"><a xlink:href="classmqtt_1_1bridge_1_1lib_1_1SSEDistributor.html#a2b97b3e1b7139a536dc1d9a7192bb9de" target="_top" xlink:title=" ">
<polygon fill="white" stroke="#666666" points="627.25,-123.5 461.25,-123.5 461.25,-90 627.25,-90 627.25,-123.5"/>
<text xml:space="preserve" text-anchor="start" x="469.25" y="-110" font-family="Helvetica,sans-Serif" font-size="10.00">mqtt::bridge::lib::</text>
<text xml:space="preserve" text-anchor="middle" x="544.25" y="-97.25" font-family="Helvetica,sans-Serif" font-size="10.00">SSEDistributor::bridgesStarting</text>
</a>
</g>
</g>
<!-- Node12&#45;&gt;Node13 -->
<g id="edge12_Node000012_Node000013" class="edge">
<title>Node12&#45;&gt;Node13</title>
<g id="a_edge12_Node000012_Node000013"><a xlink:title=" ">
<path fill="none" stroke="#63b8ff" d="M386.2,-101.08C404.35,-101.74 427.12,-102.56 449.66,-103.37"/>
<polygon fill="#63b8ff" stroke="#63b8ff" points="449.4,-106.87 459.52,-103.73 449.65,-99.87 449.4,-106.87"/>
</a>
</g>
</g>
<!-- Node13&#45;&gt;Node5 -->
<g id="edge13_Node000013_Node000005" class="edge">
<title>Node13&#45;&gt;Node5</title>
<g id="a_edge13_Node000013_Node000005"><a xlink:title=" ">
<path fill="none" stroke="#63b8ff" d="M627.73,-105.51C635.81,-105.39 644.04,-105.26 652.21,-105.14"/>
<polygon fill="#63b8ff" stroke="#63b8ff" points="652.23,-108.64 662.17,-104.99 652.12,-101.64 652.23,-108.64"/>
</a>
</g>
</g>
<!-- Node13&#45;&gt;Node9 -->
<g id="edge14_Node000013_Node000009" class="edge">
<title>Node13&#45;&gt;Node9</title>
<g id="a_edge14_Node000013_Node000009"><a xlink:title=" ">
<path fill="none" stroke="#63b8ff" d="M607.47,-123.93C624.02,-128.49 642.18,-133.51 659.71,-138.35"/>
<polygon fill="#63b8ff" stroke="#63b8ff" points="658.5,-141.64 669.07,-140.93 660.36,-134.89 658.5,-141.64"/>
</a>
</g>
</g>
</g>
</svg>
