<?xml version="1.0" encoding="UTF-8" standalone="no"?>
<!DOCTYPE svg PUBLIC "-//W3C//DTD SVG 1.1//EN"
 "http://www.w3.org/Graphics/SVG/1.1/DTD/svg11.dtd">
<!-- Generated by graphviz version 14.1.2 (0)
 -->
<!-- Title: delBridgeBrokerConnection Pages: 1 -->
<svg width="700pt" height="243pt"
 viewBox="0.00 0.00 700.00 243.00" xmlns="http://www.w3.org/2000/svg" xmlns:xlink="http://www.w3.org/1999/xlink">
<g id="graph0" class="graph" transform="scale(1 1) rotate(0) translate(4 238.5)">
<title>delBridgeBrokerConnection</title>
<!-- Node1 -->
<g id="Node000001" class="node">
<title>Node1</title>
<g id="a_Node000001"><a xlink:title=" ">
<polygon fill="#999999" stroke="#666666" points="148.75,-124.12 0,-124.12 0,-103.38 148.75,-103.38 148.75,-124.12"/>
<text xml:space="preserve" text-anchor="middle" x="74.38" y="-110.62" font-family="Helvetica,sans-Serif" font-size="10.00">delBridgeBrokerConnection</text>
</a>
</g>
</g>
<!-- Node2 -->
<g id="Node000002" class="node">
<title>Node2</title>
<g id="a_Node000002"><a xlink:href="mqttbridge_8cpp.html#a90732e510a2e6efcd8d0ab7912f5b043" target="_top" xlink:title=" ">
<polygon fill="white" stroke="#666666" points="286.25,-124.12 184.75,-124.12 184.75,-103.38 286.25,-103.38 286.25,-124.12"/>
<text xml:space="preserve" text-anchor="middle" x="235.5" y="-110.62" font-family="Helvetica,sans-Serif" font-size="10.00">tryRestartBridges</text>
</a>
</g>
</g>
<!-- Node1&#45;&gt;Node2 -->
<g id="edge1_Node000001_Node000002" class="edge">
<title>Node1&#45;&gt;Node2</title>
<g id="a_edge1_Node000001_Node000002"><a xlink:title=" ">
<path fill="none" stroke="#63b8ff" d="M148.88,-113.75C156.98,-113.75 165.16,-113.75 173.09,-113.75"/>
<polygon fill="#63b8ff" stroke="#63b8ff" points="172.97,-117.25 182.97,-113.75 172.97,-110.25 172.97,-117.25"/>
</a>
</g>
</g>
<!-- Node3 -->
<g id="Node000003" class="node">
<title>Node3</title>
<g id="a_Node000003"><a xlink:href="classmqtt_1_1bridge_1_1lib_1_1BridgeStore.html#a94cc67c07a763979a3625d806474a972" target="_top" xlink:title=" ">
<polygon fill="white" stroke="#666666" points="482.25,-234.5 329.75,-234.5 329.75,-201 482.25,-201 482.25,-234.5"/>
<text xml:space="preserve" text-anchor="start" x="337.75" y="-221" font-family="Helvetica,sans-Serif" font-size="10.00">mqtt::bridge::lib::</text>
<text xml:space="preserve" text-anchor="middle" x="406" y="-208.25" font-family="Helvetica,sans-Serif" font-size="10.00">BridgeStore::activateStaged</text>
</a>
</g>
</g>
<!-- Node2&#45;&gt;Node3 -->
<g id="edge2_Node000002_Node000003" class="edge">
<title>Node2&#45;&gt;Node3</title>
<g id="a_edge2_Node000002_Node000003"><a xlink:title=" ">
<path fill="none" stroke="#63b8ff" d="M245.41,-124.41C259.89,-141.08 290.14,-173.31 322.25,-191.75 324.85,-193.25 327.55,-194.67 330.32,-196.01"/>
<polygon fill="#63b8ff" stroke="#63b8ff" points="328.62,-199.09 339.18,-199.96 331.47,-192.69 328.62,-199.09"/>
</a>
</g>
</g>
<!-- Node4 -->
<g id="Node000004" class="node">
<title>Node4</title>
<g id="a_Node000004"><a xlink:href="classmqtt_1_1bridge_1_1lib_1_1SSEDistributor.html#a6163c6302162edf63fbfb851cf995bb0" target="_top" xlink:title=" ">
<polygon fill="white" stroke="#666666" points="489.75,-182.5 322.25,-182.5 322.25,-149 489.75,-149 489.75,-182.5"/>
<text xml:space="preserve" text-anchor="start" x="330.25" y="-169" font-family="Helvetica,sans-Serif" font-size="10.00">mqtt::bridge::lib::</text>
<text xml:space="preserve" text-anchor="middle" x="406" y="-156.25" font-family="Helvetica,sans-Serif" font-size="10.00">SSEDistributor::bridgesStopped</text>
</a>
</g>
</g>
<!-- Node2&#45;&gt;Node4 -->
<g id="edge3_Node000002_Node000004" class="edge">
<title>Node2&#45;&gt;Node4</title>
<g id="a_edge3_Node000002_Node000004"><a xlink:title=" ">
<path fill="none" stroke="#63b8ff" d="M271.41,-124.52C290.8,-130.51 315.58,-138.15 338.51,-145.23"/>
<polygon fill="#63b8ff" stroke="#63b8ff" points="337.2,-148.49 347.79,-148.1 339.27,-141.8 337.2,-148.49"/>
</a>
</g>
</g>
<!-- Node5 -->
<g id="Node000005" class="node">
<title>Node5</title>
<g id="a_Node000005"><a xlink:href="classmqtt_1_1bridge_1_1lib_1_1BridgeStore.html#a7b35204686d51d46798ecae6918527e1" target="_top" xlink:title=" ">
<polygon fill="white" stroke="#666666" points="466.12,-130.5 345.88,-130.5 345.88,-97 466.12,-97 466.12,-130.5"/>
<text xml:space="preserve" text-anchor="start" x="353.88" y="-117" font-family="Helvetica,sans-Serif" font-size="10.00">mqtt::bridge::lib::</text>
<text xml:space="preserve" text-anchor="middle" x="406" y="-104.25" font-family="Helvetica,sans-Serif" font-size="10.00">BridgeStore::instance</text>
</a>
</g>
</g>
<!-- Node2&#45;&gt;Node5 -->
<g id="edge4_Node000002_Node000005" class="edge">
<title>Node2&#45;&gt;Node5</title>
<g id="a_edge4_Node000002_Node000005"><a xlink:title=" ">
<path fill="none" stroke="#63b8ff" d="M286.6,-113.75C301.51,-113.75 318.14,-113.75 334.11,-113.75"/>
<polygon fill="#63b8ff" stroke="#63b8ff" points="334.07,-117.25 344.07,-113.75 334.07,-110.25 334.07,-117.25"/>
</a>
</g>
</g>
<!-- Node6 -->
<g id="Node000006" class="node">
<title>Node6</title>
<g id="a_Node000006"><a xlink:href="classmqtt_1_1bridge_1_1lib_1_1SSEDistributor.html#ab6cc33c1c26ccfbd738a5ec2700f0896" target="_top" xlink:title=" ">
<polygon fill="white" stroke="#666666" points="675.25,-85.5 542.25,-85.5 542.25,-52 675.25,-52 675.25,-85.5"/>
<text xml:space="preserve" text-anchor="start" x="550.25" y="-72" font-family="Helvetica,sans-Serif" font-size="10.00">mqtt::bridge::lib::</text>
<text xml:space="preserve" text-anchor="middle" x="608.75" y="-59.25" font-family="Helvetica,sans-Serif" font-size="10.00">SSEDistributor::instance</text>
</a>
</g>
</g>
<!-- Node2&#45;&gt;Node6 -->
<g id="edge5_Node000002_Node000006" class="edge">
<title>Node2&#45;&gt;Node6</title>
<g id="a_edge5_Node000002_Node000006"><a xlink:title=" ">
<path fill="none" stroke="#63b8ff" d="M266.25,-102.9C282.56,-97.42 303.27,-91.21 322.25,-87.75 392.12,-75.01 472.99,-70.57 530.79,-69.14"/>
<polygon fill="#63b8ff" stroke="#63b8ff" points="530.6,-72.64 540.52,-68.92 530.44,-65.64 530.6,-72.64"/>
</a>
</g>
</g>
<!-- Node7 -->
<g id="Node000007" class="node">
<title>Node7</title>
<g id="a_Node000007"><a xlink:href="mqttbridge_8cpp.html#ac4db1bc049804762ae0893100ec95dec" target="_top" xlink:title=" ">
<polygon fill="white" stroke="#666666" points="443.62,-41.12 368.38,-41.12 368.38,-20.38 443.62,-20.38 443.62,-41.12"/>
<text xml:space="preserve" text-anchor="middle" x="406" y="-27.62" font-family="Helvetica,sans-Serif" font-size="10.00">startBridges</text>
</a>
</g>
</g>
<!-- Node2&#45;&gt;Node7 -->
<g id="edge6_Node000002_Node000007" class="edge">
<title>Node2&#45;&gt;Node7</title>
<g id="a_edge6_Node000002_Node000007"><a xlink:title=" ">
<path fill="none" stroke="#63b8ff" d="M249.35,-102.93C265.45,-89.86 294.33,-67.98 322.25,-54.75 333.21,-49.56 345.53,-45.25 357.25,-41.78"/>
<polygon fill="#63b8ff" stroke="#63b8ff" points="358.09,-45.18 366.78,-39.12 356.2,-38.44 358.09,-45.18"/>
</a>
</g>
</g>
<!-- Node7&#45;&gt;Node6 -->
<g id="edge8_Node000007_Node000006" class="edge">
<title>Node7&#45;&gt;Node6</title>
<g id="a_edge8_Node000007_Node000006"><a xlink:title=" ">
<path fill="none" stroke="#63b8ff" d="M443.82,-37.72C468.11,-42.32 500.83,-48.51 530.66,-54.16"/>
<polygon fill="#63b8ff" stroke="#63b8ff" points="529.96,-57.59 540.43,-56.01 531.26,-50.71 529.96,-57.59"/>
</a>
</g>
</g>
<!-- Node8 -->
<g id="Node000008" class="node">
<title>Node8</title>
<g id="a_Node000008"><a xlink:href="classmqtt_1_1bridge_1_1lib_1_1SSEDistributor.html#a2b97b3e1b7139a536dc1d9a7192bb9de" target="_top" xlink:title=" ">
<polygon fill="white" stroke="#666666" points="691.75,-33.5 525.75,-33.5 525.75,0 691.75,0 691.75,-33.5"/>
<text xml:space="preserve" text-anchor="start" x="533.75" y="-20" font-family="Helvetica,sans-Serif" font-size="10.00">mqtt::bridge::lib::</text>
<text xml:space="preserve" text-anchor="middle" x="608.75" y="-7.25" font-family="Helvetica,sans-Serif" font-size="10.00">SSEDistributor::bridgesStarting</text>
</a>
</g>
</g>
<!-- Node7&#45;&gt;Node8 -->
<g id="edge7_Node000007_Node000008" class="edge">
<title>Node7&#45;&gt;Node8</title>
<g id="a_edge7_Node000007_Node000008"><a xlink:title=" ">
<path fill="none" stroke="#63b8ff" d="M443.82,-28.18C463.65,-26.8 489.1,-25.02 514,-23.29"/>
<polygon fill="#63b8ff" stroke="#63b8ff" points="514.14,-26.79 523.87,-22.6 513.65,-19.8 514.14,-26.79"/>
</a>
</g>
</g>
</g>
</svg>
