<?xml version="1.0" encoding="UTF-8" standalone="no"?>
<!DOCTYPE svg PUBLIC "-//W3C//DTD SVG 1.1//EN"
 "http://www.w3.org/Graphics/SVG/1.1/DTD/svg11.dtd">
<!-- Generated by graphviz version 14.1.2 (0)
 -->
<!-- Title: mqttintegrator/mqttintegrator.cpp Pages: 1 -->
<!--zoomable 225 -->

<svg id="main" version="1.1" xmlns="http://www.w3.org/2000/svg" xmlns:xlink="http://www.w3.org/1999/xlink" xml:space="preserve" onload="init(evt)">

<style type="text/css"><![CDATA[
.node, .edge {opacity: 0.7;}
.node.selected, .edge.selected {opacity: 1;}
.edge:hover path { stroke: red; }
.edge:hover polygon { stroke: red; fill: red; }
]]></style>

<defs>
  <circle id="rim" cx="0" cy="0" r="7"/>
  <circle id="rim2" cx="0" cy="0" r="3.5"/>
  <g id="zoomPlus">
    <use xlink:href="#rim" fill="#404040"><set attributeName="fill" to="#808080" begin="zoomplus.mouseover" end="zoomplus.mouseout"/></use>
    <path d="M-4,0h8M0,-4v8" fill="none" stroke="white" stroke-width="1.5" pointer-events="none"/>
  </g>
  <g id="zoomMin">
    <use xlink:href="#rim" fill="#404040"><set attributeName="fill" to="#808080" begin="zoomminus.mouseover" end="zoomminus.mouseout"/></use>
    <path d="M-4,0h8" fill="none" stroke="white" stroke-width="1.5" pointer-events="none"/>
  </g>
  <g id="arrowUp" transform="translate(30 24)">
    <use xlink:href="#rim"/>
    <path pointer-events="none" fill="none" stroke="white" stroke-width="1.5" d="M0,-3.0v7 M-2.5,-0.5L0,-3.0L2.5,-0.5"/>
  </g>
  <g id="arrowRight" transform="rotate(90) translate(36 -43)">
    <use xlink:href="#rim"/>
    <path pointer-events="none" fill="none" stroke="white" stroke-width="1.5" d="M0,-3.0v7 M-2.5,-0.5L0,-3.0L2.5,-0.5"/>
  </g>
  <g id="arrowDown" transform="rotate(180) translate(-30 -48)">
    <use xlink:href="#rim"/>
    <path pointer-events="none" fill="none" stroke="white" stroke-width="1.5" d="M0,-3.0v7 M-2.5,-0.5L0,-3.0L2.5,-0.5"/>
  </g>
  <g id="arrowLeft" transform="rotate(270) translate(-36 17)">
    <use xlink:href="#rim"/>
    <path pointer-events="none" fill="none" stroke="white" stroke-width="1.5" d="M0,-3.0v7 M-2.5,-0.5L0,-3.0L2.5,-0.5"/>
  </g>
  <g id="resetDef">
    <use xlink:href="#rim2" fill="#404040"><set attributeName="fill" to="#808080" begin="reset.mouseover" end="reset.mouseout"/></use>
  </g>
</defs>
<script type="application/ecmascript">
var viewWidth = 2975;
var viewHeight = 225;
var sectionId = 'dynsection-0';
</script>
<script type="application/ecmascript" xlink:href="svg.min.js"/>
<svg id="graph" class="graph">
<g id="viewport">
<title>mqttintegrator/mqttintegrator.cpp</title>
<!-- Node1 -->
<g id="Node000001" class="node">
<title>Node1</title>
<g id="a_Node000001"><a xlink:title=" ">
<polygon fill="#999999" stroke="#666666" points="1465.38,-216.5 1283.62,-216.5 1283.62,-195.75 1465.38,-195.75 1465.38,-216.5"/>
<text xml:space="preserve" text-anchor="middle" x="1374.5" y="-203" font-family="Helvetica,sans-Serif" font-size="10.00">mqttintegrator/mqttintegrator.cpp</text>
</a>
</g>
</g>
<!-- Node2 -->
<g id="Node000002" class="node">
<title>Node2</title>
<g id="a_Node000002"><a xlink:href="mqttintegrator_2SocketContextFactory_8h.html" target="_top" xlink:title=" ">
<polygon fill="white" stroke="#666666" points="184.5,-153.38 54.5,-153.38 54.5,-132.62 184.5,-132.62 184.5,-153.38"/>
<text xml:space="preserve" text-anchor="middle" x="119.5" y="-139.88" font-family="Helvetica,sans-Serif" font-size="10.00">SocketContextFactory.h</text>
</a>
</g>
</g>
<!-- Node1&#45;&gt;Node2 -->
<g id="edge1_Node000001_Node000002" class="edge">
<title>Node1&#45;&gt;Node2</title>
<g id="a_edge1_Node000001_Node000002"><a xlink:title=" ">
<path fill="none" stroke="#63b8ff" d="M1283.56,-203.65C1044.79,-199.44 403.98,-186 193.5,-159.75 186.14,-158.83 178.43,-157.55 170.88,-156.12"/>
<polygon fill="#63b8ff" stroke="#63b8ff" points="171.59,-152.69 161.1,-154.14 170.21,-159.55 171.59,-152.69"/>
</a>
</g>
</g>
<!-- Node5 -->
<g id="Node000005" class="node">
<title>Node5</title>
<g id="a_Node000005"><a xlink:title=" ">
<polygon fill="#e0e0e0" stroke="#999999" points="258,-153.38 203,-153.38 203,-132.62 258,-132.62 258,-153.38"/>
<text xml:space="preserve" text-anchor="middle" x="230.5" y="-139.88" font-family="Helvetica,sans-Serif" font-size="10.00">config.h</text>
</a>
</g>
</g>
<!-- Node1&#45;&gt;Node5 -->
<g id="edge4_Node000001_Node000005" class="edge">
<title>Node1&#45;&gt;Node5</title>
<g id="a_edge4_Node000001_Node000005"><a xlink:title=" ">
<path fill="none" stroke="#63b8ff" d="M1283.52,-205.6C1054.72,-206.12 459.95,-203.13 267.5,-159.75 265.21,-159.23 262.89,-158.58 260.58,-157.84"/>
<polygon fill="#63b8ff" stroke="#63b8ff" points="262.04,-154.65 251.45,-154.4 259.57,-161.2 262.04,-154.65"/>
</a>
</g>
</g>
<!-- Node6 -->
<g id="Node000006" class="node">
<title>Node6</title>
<g id="a_Node000006"><a xlink:href="ConfigApplication_8h.html" target="_top" xlink:title=" ">
<polygon fill="white" stroke="#666666" points="402.62,-153.38 276.38,-153.38 276.38,-132.62 402.62,-132.62 402.62,-153.38"/>
<text xml:space="preserve" text-anchor="middle" x="339.5" y="-139.88" font-family="Helvetica,sans-Serif" font-size="10.00">lib/ConfigApplication.h</text>
</a>
</g>
</g>
<!-- Node1&#45;&gt;Node6 -->
<g id="edge5_Node000001_Node000006" class="edge">
<title>Node1&#45;&gt;Node6</title>
<g id="a_edge5_Node000001_Node000006"><a xlink:title=" ">
<path fill="none" stroke="#63b8ff" d="M1283.43,-205.92C1111.99,-206.29 729.89,-201.77 411.5,-159.75 404.51,-158.83 397.19,-157.57 390.01,-156.17"/>
<polygon fill="#63b8ff" stroke="#63b8ff" points="390.88,-152.78 380.38,-154.18 389.47,-159.63 390.88,-152.78"/>
</a>
</g>
</g>
<!-- Node8 -->
<g id="Node000008" class="node">
<title>Node8</title>
<g id="a_Node000008"><a xlink:title=" ">
<polygon fill="#e0e0e0" stroke="#999999" points="508.12,-153.38 420.88,-153.38 420.88,-132.62 508.12,-132.62 508.12,-153.38"/>
<text xml:space="preserve" text-anchor="middle" x="464.5" y="-139.88" font-family="Helvetica,sans-Serif" font-size="10.00">core/SNodeC.h</text>
</a>
</g>
</g>
<!-- Node1&#45;&gt;Node8 -->
<g id="edge7_Node000001_Node000008" class="edge">
<title>Node1&#45;&gt;Node8</title>
<g id="a_edge7_Node000001_Node000008"><a xlink:title=" ">
<path fill="none" stroke="#63b8ff" d="M1283.41,-203.02C1093.84,-198.19 662.49,-184.77 517.5,-159.75 513.1,-158.99 508.56,-157.99 504.06,-156.86"/>
<polygon fill="#63b8ff" stroke="#63b8ff" points="505.12,-153.52 494.55,-154.24 503.26,-160.27 505.12,-153.52"/>
</a>
</g>
</g>
<!-- Node9 -->
<g id="Node000009" class="node">
<title>Node9</title>
<g id="a_Node000009"><a xlink:title=" ">
<polygon fill="#e0e0e0" stroke="#999999" points="606.75,-153.38 526.25,-153.38 526.25,-132.62 606.75,-132.62 606.75,-153.38"/>
<text xml:space="preserve" text-anchor="middle" x="566.5" y="-139.88" font-family="Helvetica,sans-Serif" font-size="10.00">utils/Config.h</text>
</a>
</g>
</g>
<!-- Node1&#45;&gt;Node9 -->
<g id="edge8_Node000001_Node000009" class="edge">
<title>Node1&#45;&gt;Node9</title>
<g id="a_edge8_Node000001_Node000009"><a xlink:title=" ">
<path fill="none" stroke="#63b8ff" d="M1283.45,-202.47C1110.81,-196.98 741.93,-182.9 616.5,-159.75 612.46,-159 608.29,-158.03 604.16,-156.94"/>
<polygon fill="#63b8ff" stroke="#63b8ff" points="605.47,-153.67 594.89,-154.24 603.52,-160.39 605.47,-153.67"/>
</a>
</g>
</g>
<!-- Node10 -->
<g id="Node000010" class="node">
<title>Node10</title>
<g id="a_Node000010"><a xlink:title=" ">
<polygon fill="#e0e0e0" stroke="#999999" points="741.75,-159.75 625.25,-159.75 625.25,-126.25 741.75,-126.25 741.75,-159.75"/>
<text xml:space="preserve" text-anchor="start" x="633.25" y="-146.25" font-family="Helvetica,sans-Serif" font-size="10.00">net/in/stream/legacy</text>
<text xml:space="preserve" text-anchor="middle" x="683.5" y="-133.5" font-family="Helvetica,sans-Serif" font-size="10.00">/SocketClient.h</text>
</a>
</g>
</g>
<!-- Node1&#45;&gt;Node10 -->
<g id="edge9_Node000001_Node000010" class="edge">
<title>Node1&#45;&gt;Node10</title>
<g id="a_edge9_Node000001_Node000010"><a xlink:title=" ">
<path fill="none" stroke="#63b8ff" d="M1283.32,-203.01C1163.64,-199.22 946.98,-188.91 753.47,-160.06"/>
<polygon fill="#63b8ff" stroke="#63b8ff" points="754.13,-156.62 743.72,-158.59 753.08,-163.54 754.13,-156.62"/>
</a>
</g>
</g>
<!-- Node11 -->
<g id="Node000011" class="node">
<title>Node11</title>
<g id="a_Node000011"><a xlink:title=" ">
<polygon fill="#e0e0e0" stroke="#999999" points="891.25,-159.75 759.75,-159.75 759.75,-126.25 891.25,-126.25 891.25,-159.75"/>
<text xml:space="preserve" text-anchor="start" x="767.75" y="-146.25" font-family="Helvetica,sans-Serif" font-size="10.00">net/in/stream/tls/Socket</text>
<text xml:space="preserve" text-anchor="middle" x="825.5" y="-133.5" font-family="Helvetica,sans-Serif" font-size="10.00">Client.h</text>
</a>
</g>
</g>
<!-- Node1&#45;&gt;Node11 -->
<g id="edge10_Node000001_Node000011" class="edge">
<title>Node1&#45;&gt;Node11</title>
<g id="a_edge10_Node000001_Node000011"><a xlink:title=" ">
<path fill="none" stroke="#63b8ff" d="M1283.26,-199.42C1190.06,-192.91 1041.01,-180.6 902.88,-160.01"/>
<polygon fill="#63b8ff" stroke="#63b8ff" points="903.59,-156.57 893.18,-158.54 902.54,-163.5 903.59,-156.57"/>
</a>
</g>
</g>
<!-- Node12 -->
<g id="Node000012" class="node">
<title>Node12</title>
<g id="a_Node000012"><a xlink:title=" ">
<polygon fill="#e0e0e0" stroke="#999999" points="1031.75,-159.75 909.25,-159.75 909.25,-126.25 1031.75,-126.25 1031.75,-159.75"/>
<text xml:space="preserve" text-anchor="start" x="917.25" y="-146.25" font-family="Helvetica,sans-Serif" font-size="10.00">net/in6/stream/legacy</text>
<text xml:space="preserve" text-anchor="middle" x="970.5" y="-133.5" font-family="Helvetica,sans-Serif" font-size="10.00">/SocketClient.h</text>
</a>
</g>
</g>
<!-- Node1&#45;&gt;Node12 -->
<g id="edge11_Node000001_Node000012" class="edge">
<title>Node1&#45;&gt;Node12</title>
<g id="a_edge11_Node000001_Node000012"><a xlink:title=" ">
<path fill="none" stroke="#63b8ff" d="M1286.62,-195.29C1221.85,-187.55 1131.36,-175.73 1043.2,-160.15"/>
<polygon fill="#63b8ff" stroke="#63b8ff" points="1043.85,-156.71 1033.39,-158.4 1042.62,-163.6 1043.85,-156.71"/>
</a>
</g>
</g>
<!-- Node13 -->
<g id="Node000013" class="node">
<title>Node13</title>
<g id="a_Node000013"><a xlink:title=" ">
<polygon fill="#e0e0e0" stroke="#999999" points="1151.62,-159.75 1049.38,-159.75 1049.38,-126.25 1151.62,-126.25 1151.62,-159.75"/>
<text xml:space="preserve" text-anchor="start" x="1057.38" y="-146.25" font-family="Helvetica,sans-Serif" font-size="10.00">net/in6/stream/tls</text>
<text xml:space="preserve" text-anchor="middle" x="1100.5" y="-133.5" font-family="Helvetica,sans-Serif" font-size="10.00">/SocketClient.h</text>
</a>
</g>
</g>
<!-- Node1&#45;&gt;Node13 -->
<g id="edge12_Node000001_Node000013" class="edge">
<title>Node1&#45;&gt;Node13</title>
<g id="a_edge12_Node000001_Node000013"><a xlink:title=" ">
<path fill="none" stroke="#63b8ff" d="M1324.62,-195.25C1283.62,-186.98 1223.74,-174.53 1162.83,-160.24"/>
<polygon fill="#63b8ff" stroke="#63b8ff" points="1163.86,-156.89 1153.32,-158 1162.25,-163.7 1163.86,-156.89"/>
</a>
</g>
</g>
<!-- Node14 -->
<g id="Node000014" class="node">
<title>Node14</title>
<g id="a_Node000014"><a xlink:title=" ">
<polygon fill="#e0e0e0" stroke="#999999" points="1289.25,-159.75 1169.75,-159.75 1169.75,-126.25 1289.25,-126.25 1289.25,-159.75"/>
<text xml:space="preserve" text-anchor="start" x="1177.75" y="-146.25" font-family="Helvetica,sans-Serif" font-size="10.00">net/un/stream/legacy</text>
<text xml:space="preserve" text-anchor="middle" x="1229.5" y="-133.5" font-family="Helvetica,sans-Serif" font-size="10.00">/SocketClient.h</text>
</a>
</g>
</g>
<!-- Node1&#45;&gt;Node14 -->
<g id="edge13_Node000001_Node000014" class="edge">
<title>Node1&#45;&gt;Node14</title>
<g id="a_edge13_Node000001_Node000014"><a xlink:title=" ">
<path fill="none" stroke="#63b8ff" d="M1351.2,-195.3C1331.68,-187.07 1303.14,-175.04 1278.6,-164.7"/>
<polygon fill="#63b8ff" stroke="#63b8ff" points="1279.98,-161.48 1269.41,-160.82 1277.26,-167.93 1279.98,-161.48"/>
</a>
</g>
</g>
<!-- Node15 -->
<g id="Node000015" class="node">
<title>Node15</title>
<g id="a_Node000015"><a xlink:title=" ">
<polygon fill="#e0e0e0" stroke="#999999" points="1441.75,-159.75 1307.25,-159.75 1307.25,-126.25 1441.75,-126.25 1441.75,-159.75"/>
<text xml:space="preserve" text-anchor="start" x="1315.25" y="-146.25" font-family="Helvetica,sans-Serif" font-size="10.00">net/un/stream/tls/Socket</text>
<text xml:space="preserve" text-anchor="middle" x="1374.5" y="-133.5" font-family="Helvetica,sans-Serif" font-size="10.00">Client.h</text>
</a>
</g>
</g>
<!-- Node1&#45;&gt;Node15 -->
<g id="edge14_Node000001_Node000015" class="edge">
<title>Node1&#45;&gt;Node15</title>
<g id="a_edge14_Node000001_Node000015"><a xlink:title=" ">
<path fill="none" stroke="#63b8ff" d="M1374.5,-195.3C1374.5,-188.88 1374.5,-180.15 1374.5,-171.7"/>
<polygon fill="#63b8ff" stroke="#63b8ff" points="1378,-171.75 1374.5,-161.75 1371,-171.75 1378,-171.75"/>
</a>
</g>
</g>
<!-- Node16 -->
<g id="Node000016" class="node">
<title>Node16</title>
<g id="a_Node000016"><a xlink:title=" ">
<polygon fill="#e0e0e0" stroke="#999999" points="1565.5,-159.75 1459.5,-159.75 1459.5,-126.25 1565.5,-126.25 1565.5,-159.75"/>
<text xml:space="preserve" text-anchor="start" x="1467.5" y="-146.25" font-family="Helvetica,sans-Serif" font-size="10.00">web/http/legacy/in</text>
<text xml:space="preserve" text-anchor="middle" x="1512.5" y="-133.5" font-family="Helvetica,sans-Serif" font-size="10.00">/Client.h</text>
</a>
</g>
</g>
<!-- Node1&#45;&gt;Node16 -->
<g id="edge15_Node000001_Node000016" class="edge">
<title>Node1&#45;&gt;Node16</title>
<g id="a_edge15_Node000001_Node000016"><a xlink:title=" ">
<path fill="none" stroke="#63b8ff" d="M1396.67,-195.3C1415.17,-187.11 1442.18,-175.15 1465.46,-164.84"/>
<polygon fill="#63b8ff" stroke="#63b8ff" points="1466.74,-168.1 1474.46,-160.85 1463.9,-161.7 1466.74,-168.1"/>
</a>
</g>
</g>
<!-- Node17 -->
<g id="Node000017" class="node">
<title>Node17</title>
<g id="a_Node000017"><a xlink:title=" ">
<polygon fill="#e0e0e0" stroke="#999999" points="1695.5,-159.75 1583.5,-159.75 1583.5,-126.25 1695.5,-126.25 1695.5,-159.75"/>
<text xml:space="preserve" text-anchor="start" x="1591.5" y="-146.25" font-family="Helvetica,sans-Serif" font-size="10.00">web/http/legacy/in6</text>
<text xml:space="preserve" text-anchor="middle" x="1639.5" y="-133.5" font-family="Helvetica,sans-Serif" font-size="10.00">/Client.h</text>
</a>
</g>
</g>
<!-- Node1&#45;&gt;Node17 -->
<g id="edge16_Node000001_Node000017" class="edge">
<title>Node1&#45;&gt;Node17</title>
<g id="a_edge16_Node000001_Node000017"><a xlink:title=" ">
<path fill="none" stroke="#63b8ff" d="M1418.63,-195.31C1456.81,-186.77 1513.78,-173.93 1572.22,-160.27"/>
<polygon fill="#63b8ff" stroke="#63b8ff" points="1572.73,-163.74 1581.67,-158.05 1571.13,-156.93 1572.73,-163.74"/>
</a>
</g>
</g>
<!-- Node18 -->
<g id="Node000018" class="node">
<title>Node18</title>
<g id="a_Node000018"><a xlink:title=" ">
<polygon fill="#e0e0e0" stroke="#999999" points="1823,-159.75 1714,-159.75 1714,-126.25 1823,-126.25 1823,-159.75"/>
<text xml:space="preserve" text-anchor="start" x="1722" y="-146.25" font-family="Helvetica,sans-Serif" font-size="10.00">web/http/legacy/un</text>
<text xml:space="preserve" text-anchor="middle" x="1768.5" y="-133.5" font-family="Helvetica,sans-Serif" font-size="10.00">/Client.h</text>
</a>
</g>
</g>
<!-- Node1&#45;&gt;Node18 -->
<g id="edge17_Node000001_Node000018" class="edge">
<title>Node1&#45;&gt;Node18</title>
<g id="a_edge17_Node000001_Node000018"><a xlink:title=" ">
<path fill="none" stroke="#63b8ff" d="M1464.91,-195.28C1528.73,-187.73 1616.44,-176.15 1702.71,-159.97"/>
<polygon fill="#63b8ff" stroke="#63b8ff" points="1703.11,-163.46 1712.28,-158.15 1701.81,-156.58 1703.11,-163.46"/>
</a>
</g>
</g>
<!-- Node19 -->
<g id="Node000019" class="node">
<title>Node19</title>
<g id="a_Node000019"><a xlink:title=" ">
<polygon fill="#e0e0e0" stroke="#999999" points="1967.62,-153.38 1841.38,-153.38 1841.38,-132.62 1967.62,-132.62 1967.62,-153.38"/>
<text xml:space="preserve" text-anchor="middle" x="1904.5" y="-139.88" font-family="Helvetica,sans-Serif" font-size="10.00">web/http/tls/in/Client.h</text>
</a>
</g>
</g>
<!-- Node1&#45;&gt;Node19 -->
<g id="edge18_Node000001_Node000019" class="edge">
<title>Node1&#45;&gt;Node19</title>
<g id="a_edge18_Node000001_Node000019"><a xlink:title=" ">
<path fill="none" stroke="#63b8ff" d="M1465.5,-199.15C1558.01,-192.35 1705.28,-179.57 1831.5,-159.75 1838.06,-158.72 1844.93,-157.47 1851.7,-156.13"/>
<polygon fill="#63b8ff" stroke="#63b8ff" points="1852.39,-159.56 1861.48,-154.12 1850.98,-152.71 1852.39,-159.56"/>
</a>
</g>
</g>
<!-- Node20 -->
<g id="Node000020" class="node">
<title>Node20</title>
<g id="a_Node000020"><a xlink:title=" ">
<polygon fill="#e0e0e0" stroke="#999999" points="2117.62,-153.38 1985.38,-153.38 1985.38,-132.62 2117.62,-132.62 2117.62,-153.38"/>
<text xml:space="preserve" text-anchor="middle" x="2051.5" y="-139.88" font-family="Helvetica,sans-Serif" font-size="10.00">web/http/tls/in6/Client.h</text>
</a>
</g>
</g>
<!-- Node1&#45;&gt;Node20 -->
<g id="edge19_Node000001_Node000020" class="edge">
<title>Node1&#45;&gt;Node20</title>
<g id="a_edge19_Node000001_Node000020"><a xlink:title=" ">
<path fill="none" stroke="#63b8ff" d="M1465.67,-201.99C1583.95,-197.08 1796.46,-185.33 1976.5,-159.75 1983.67,-158.73 1991.19,-157.43 1998.57,-156.02"/>
<polygon fill="#63b8ff" stroke="#63b8ff" points="1999.02,-159.5 2008.14,-154.11 1997.65,-152.64 1999.02,-159.5"/>
</a>
</g>
</g>
<!-- Node21 -->
<g id="Node000021" class="node">
<title>Node21</title>
<g id="a_Node000021"><a xlink:title=" ">
<polygon fill="#e0e0e0" stroke="#999999" points="2265.12,-153.38 2135.88,-153.38 2135.88,-132.62 2265.12,-132.62 2265.12,-153.38"/>
<text xml:space="preserve" text-anchor="middle" x="2200.5" y="-139.88" font-family="Helvetica,sans-Serif" font-size="10.00">web/http/tls/un/Client.h</text>
</a>
</g>
</g>
<!-- Node1&#45;&gt;Node21 -->
<g id="edge20_Node000001_Node000021" class="edge">
<title>Node1&#45;&gt;Node21</title>
<g id="a_edge20_Node000001_Node000021"><a xlink:title=" ">
<path fill="none" stroke="#63b8ff" d="M1465.8,-204.01C1607.74,-201.28 1889.65,-191.92 2126.5,-159.75 2133.67,-158.78 2141.19,-157.49 2148.57,-156.07"/>
<polygon fill="#63b8ff" stroke="#63b8ff" points="2149,-159.56 2158.11,-154.15 2147.61,-152.7 2149,-159.56"/>
</a>
</g>
</g>
<!-- Node22 -->
<g id="Node000022" class="node">
<title>Node22</title>
<g id="a_Node000022"><a xlink:title=" ">
<polygon fill="#e0e0e0" stroke="#999999" points="2428,-153.38 2283,-153.38 2283,-132.62 2428,-132.62 2428,-153.38"/>
<text xml:space="preserve" text-anchor="middle" x="2355.5" y="-139.88" font-family="Helvetica,sans-Serif" font-size="10.00">express/legacy/in/Server.h</text>
</a>
</g>
</g>
<!-- Node1&#45;&gt;Node22 -->
<g id="edge21_Node000001_Node000022" class="edge">
<title>Node1&#45;&gt;Node22</title>
<g id="a_edge21_Node000001_Node000022"><a xlink:title=" ">
<path fill="none" stroke="#63b8ff" d="M1465.56,-204.79C1628.45,-203.24 1980.21,-195.6 2274.5,-159.75 2282.81,-158.74 2291.54,-157.37 2300.07,-155.86"/>
<polygon fill="#63b8ff" stroke="#63b8ff" points="2300.44,-159.35 2309.63,-154.08 2299.16,-152.47 2300.44,-159.35"/>
</a>
</g>
</g>
<!-- Node23 -->
<g id="Node000023" class="node">
<title>Node23</title>
<g id="a_Node000023"><a xlink:title=" ">
<polygon fill="#e0e0e0" stroke="#999999" points="2570.88,-153.38 2446.12,-153.38 2446.12,-132.62 2570.88,-132.62 2570.88,-153.38"/>
<text xml:space="preserve" text-anchor="middle" x="2508.5" y="-139.88" font-family="Helvetica,sans-Serif" font-size="10.00">express/tls/in/Server.h</text>
</a>
</g>
</g>
<!-- Node1&#45;&gt;Node23 -->
<g id="edge22_Node000001_Node000023" class="edge">
<title>Node1&#45;&gt;Node23</title>
<g id="a_edge22_Node000001_Node000023"><a xlink:title=" ">
<path fill="none" stroke="#63b8ff" d="M1465.54,-203.29C1687.28,-198.5 2250.8,-184.25 2437.5,-159.75 2444.48,-158.83 2451.79,-157.57 2458.96,-156.15"/>
<polygon fill="#63b8ff" stroke="#63b8ff" points="2459.48,-159.62 2468.55,-154.14 2458.04,-152.77 2459.48,-159.62"/>
</a>
</g>
</g>
<!-- Node24 -->
<g id="Node000024" class="node">
<title>Node24</title>
<g id="a_Node000024"><a xlink:href="MappingAdminRouter_8h.html" target="_top" xlink:title=" ">
<polygon fill="white" stroke="#666666" points="2734.38,-153.38 2588.62,-153.38 2588.62,-132.62 2734.38,-132.62 2734.38,-153.38"/>
<text xml:space="preserve" text-anchor="middle" x="2661.5" y="-139.88" font-family="Helvetica,sans-Serif" font-size="10.00">lib/MappingAdminRouter.h</text>
</a>
</g>
</g>
<!-- Node1&#45;&gt;Node24 -->
<g id="edge23_Node000001_Node000024" class="edge">
<title>Node1&#45;&gt;Node24</title>
<g id="a_edge23_Node000001_Node000024"><a xlink:title=" ">
<path fill="none" stroke="#63b8ff" d="M1465.5,-203.49C1707.65,-198.86 2363.96,-184.36 2579.5,-159.75 2588.01,-158.78 2596.96,-157.42 2605.7,-155.89"/>
<polygon fill="#63b8ff" stroke="#63b8ff" points="2606.31,-159.34 2615.52,-154.1 2605.05,-152.46 2606.31,-159.34"/>
</a>
</g>
</g>
<!-- Node26 -->
<g id="Node000026" class="node">
<title>Node26</title>
<g id="a_Node000026"><a xlink:href="mqttintegrator_2lib_2Mqtt_8h.html" target="_top" xlink:title=" ">
<polygon fill="white" stroke="#666666" points="2814.75,-153.38 2752.25,-153.38 2752.25,-132.62 2814.75,-132.62 2814.75,-153.38"/>
<text xml:space="preserve" text-anchor="middle" x="2783.5" y="-139.88" font-family="Helvetica,sans-Serif" font-size="10.00">lib/Mqtt.h</text>
</a>
</g>
</g>
<!-- Node1&#45;&gt;Node26 -->
<g id="edge25_Node000001_Node000026" class="edge">
<title>Node1&#45;&gt;Node26</title>
<g id="a_edge25_Node000001_Node000026"><a xlink:title=" ">
<path fill="none" stroke="#63b8ff" d="M1465.64,-203.91C1751.58,-199.83 2619.32,-185.46 2743.5,-159.75 2746.31,-159.17 2749.19,-158.4 2752.04,-157.53"/>
<polygon fill="#63b8ff" stroke="#63b8ff" points="2753.06,-160.88 2761.31,-154.23 2750.72,-154.28 2753.06,-160.88"/>
</a>
</g>
</g>
<!-- Node3 -->
<g id="Node000003" class="node">
<title>Node3</title>
<g id="a_Node000003"><a xlink:title=" ">
<polygon fill="#e0e0e0" stroke="#999999" points="133,-90.25 0,-90.25 0,-56.75 133,-56.75 133,-90.25"/>
<text xml:space="preserve" text-anchor="start" x="8" y="-76.75" font-family="Helvetica,sans-Serif" font-size="10.00">core/socket/stream</text>
<text xml:space="preserve" text-anchor="middle" x="66.5" y="-64" font-family="Helvetica,sans-Serif" font-size="10.00">/SocketContextFactory.h</text>
</a>
</g>
</g>
<!-- Node2&#45;&gt;Node3 -->
<g id="edge2_Node000002_Node000003" class="edge">
<title>Node2&#45;&gt;Node3</title>
<g id="a_edge2_Node000002_Node000003"><a xlink:title=" ">
<path fill="none" stroke="#63b8ff" d="M111.91,-132.33C105.18,-123.76 95.05,-110.86 86.07,-99.42"/>
<polygon fill="#63b8ff" stroke="#63b8ff" points="89.06,-97.56 80.13,-91.86 83.55,-101.89 89.06,-97.56"/>
</a>
</g>
</g>
<!-- Node4 -->
<g id="Node000004" class="node">
<title>Node4</title>
<g id="a_Node000004"><a xlink:title=" ">
<polygon fill="#e0e0e0" stroke="#999999" points="194.38,-83.88 150.62,-83.88 150.62,-63.12 194.38,-63.12 194.38,-83.88"/>
<text xml:space="preserve" text-anchor="middle" x="172.5" y="-70.38" font-family="Helvetica,sans-Serif" font-size="10.00">string</text>
</a>
</g>
</g>
<!-- Node2&#45;&gt;Node4 -->
<g id="edge3_Node000002_Node000004" class="edge">
<title>Node2&#45;&gt;Node4</title>
<g id="a_edge3_Node000002_Node000004"><a xlink:title=" ">
<path fill="none" stroke="#63b8ff" d="M127.09,-132.33C135.12,-122.1 147.98,-105.73 157.97,-93"/>
<polygon fill="#63b8ff" stroke="#63b8ff" points="160.56,-95.37 163.99,-85.34 155.06,-91.05 160.56,-95.37"/>
</a>
</g>
</g>
<!-- Node7 -->
<g id="Node000007" class="node">
<title>Node7</title>
<g id="a_Node000007"><a xlink:title=" ">
<polygon fill="#e0e0e0" stroke="#999999" points="398.12,-83.88 280.88,-83.88 280.88,-63.12 398.12,-63.12 398.12,-83.88"/>
<text xml:space="preserve" text-anchor="middle" x="339.5" y="-70.38" font-family="Helvetica,sans-Serif" font-size="10.00">utils/SubCommand.h</text>
</a>
</g>
</g>
<!-- Node6&#45;&gt;Node7 -->
<g id="edge6_Node000006_Node000007" class="edge">
<title>Node6&#45;&gt;Node7</title>
<g id="a_edge6_Node000006_Node000007"><a xlink:title=" ">
<path fill="none" stroke="#63b8ff" d="M339.5,-132.33C339.5,-122.71 339.5,-107.63 339.5,-95.29"/>
<polygon fill="#63b8ff" stroke="#63b8ff" points="343,-95.67 339.5,-85.67 336,-95.67 343,-95.67"/>
</a>
</g>
</g>
<!-- Node25 -->
<g id="Node000025" class="node">
<title>Node25</title>
<g id="a_Node000025"><a xlink:title=" ">
<polygon fill="#e0e0e0" stroke="#999999" points="2710.75,-83.88 2612.25,-83.88 2612.25,-63.12 2710.75,-63.12 2710.75,-83.88"/>
<text xml:space="preserve" text-anchor="middle" x="2661.5" y="-70.38" font-family="Helvetica,sans-Serif" font-size="10.00">express/Router.h</text>
</a>
</g>
</g>
<!-- Node24&#45;&gt;Node25 -->
<g id="edge24_Node000024_Node000025" class="edge">
<title>Node24&#45;&gt;Node25</title>
<g id="a_edge24_Node000024_Node000025"><a xlink:title=" ">
<path fill="none" stroke="#63b8ff" d="M2661.5,-132.33C2661.5,-122.71 2661.5,-107.63 2661.5,-95.29"/>
<polygon fill="#63b8ff" stroke="#63b8ff" points="2665,-95.67 2661.5,-85.67 2658,-95.67 2665,-95.67"/>
</a>
</g>
</g>
<!-- Node27 -->
<g id="Node000027" class="node">
<title>Node27</title>
<g id="a_Node000027"><a xlink:href="MqttMapper_8h.html" target="_top" xlink:title=" ">
<polygon fill="white" stroke="#666666" points="2830.12,-83.88 2730.88,-83.88 2730.88,-63.12 2830.12,-63.12 2830.12,-83.88"/>
<text xml:space="preserve" text-anchor="middle" x="2780.5" y="-70.38" font-family="Helvetica,sans-Serif" font-size="10.00">lib/MqttMapper.h</text>
</a>
</g>
</g>
<!-- Node26&#45;&gt;Node27 -->
<g id="edge26_Node000026_Node000027" class="edge">
<title>Node26&#45;&gt;Node27</title>
<g id="a_edge26_Node000026_Node000027"><a xlink:title=" ">
<path fill="none" stroke="#63b8ff" d="M2783.07,-132.33C2782.64,-122.71 2781.97,-107.63 2781.42,-95.29"/>
<polygon fill="#63b8ff" stroke="#63b8ff" points="2784.94,-95.5 2781,-85.67 2777.94,-95.81 2784.94,-95.5"/>
</a>
</g>
</g>
<!-- Node29 -->
<g id="Node000029" class="node">
<title>Node29</title>
<g id="a_Node000029"><a xlink:title=" ">
<polygon fill="#e0e0e0" stroke="#999999" points="2967.25,-83.88 2847.75,-83.88 2847.75,-63.12 2967.25,-63.12 2967.25,-83.88"/>
<text xml:space="preserve" text-anchor="middle" x="2907.5" y="-70.38" font-family="Helvetica,sans-Serif" font-size="10.00">iot/mqtt/client/Mqtt.h</text>
</a>
</g>
</g>
<!-- Node26&#45;&gt;Node29 -->
<g id="edge28_Node000026_Node000029" class="edge">
<title>Node26&#45;&gt;Node29</title>
<g id="a_edge28_Node000026_Node000029"><a xlink:title=" ">
<path fill="none" stroke="#63b8ff" d="M2801.53,-132.18C2822.01,-121.04 2855.67,-102.71 2879.56,-89.71"/>
<polygon fill="#63b8ff" stroke="#63b8ff" points="2881.01,-92.91 2888.12,-85.05 2877.66,-86.76 2881.01,-92.91"/>
</a>
</g>
</g>
<!-- Node28 -->
<g id="Node000028" class="node">
<title>Node28</title>
<g id="a_Node000028"><a xlink:title=" ">
<polygon fill="#e0e0e0" stroke="#999999" points="2833.5,-20.75 2727.5,-20.75 2727.5,0 2833.5,0 2833.5,-20.75"/>
<text xml:space="preserve" text-anchor="middle" x="2780.5" y="-7.25" font-family="Helvetica,sans-Serif" font-size="10.00">core/timer/Timer.h</text>
</a>
</g>
</g>
<!-- Node27&#45;&gt;Node28 -->
<g id="edge27_Node000027_Node000028" class="edge">
<title>Node27&#45;&gt;Node28</title>
<g id="a_edge27_Node000027_Node000028"><a xlink:title=" ">
<path fill="none" stroke="#63b8ff" d="M2780.5,-62.68C2780.5,-54.52 2780.5,-42.63 2780.5,-32.35"/>
<polygon fill="#63b8ff" stroke="#63b8ff" points="2784,-32.48 2780.5,-22.48 2777,-32.48 2784,-32.48"/>
</a>
</g>
</g>
</g>
</svg>

<g id="navigator" transform="translate(0 0)" fill="#404254">
  <rect fill="#f2f5e9" fill-opacity="0.5" stroke="#606060" stroke-width=".5" x="0" y="0" width="60" height="60"/>
  <use id="zoomplus" xlink:href="#zoomPlus" x="17" y="9" onmousedown="handleZoom(evt,'in')"/>
  <use id="zoomminus" xlink:href="#zoomMin" x="42" y="9" onmousedown="handleZoom(evt,'out')"/>
  <use id="reset" xlink:href="#resetDef" x="30" y="36" onmousedown="handleReset()"/>
   <use id="arrowup" xlink:href="#arrowUp" x="0" y="0" onmousedown="handlePan(0,-1)"/>
  <use id="arrowright" xlink:href="#arrowRight" x="0" y="0" onmousedown="handlePan(1,0)"/>
  <use id="arrowdown" xlink:href="#arrowDown" x="0" y="0" onmousedown="handlePan(0,1)"/>
  <use id="arrowleft" xlink:href="#arrowLeft" x="0" y="0" onmousedown="handlePan(-1,0)"/>
</g>
<svg viewBox="0 0 15 15" width="100%" height="30px" preserveAspectRatio="xMaxYMin meet">
 <g id="arrow_out" transform="scale(0.3 0.3)">
  <a xlink:href="mqttintegrator_8cpp__incl_org.svg" target="_base">
   <rect id="button" ry="5" rx="5" y="6" x="6" height="38" width="38"
        fill="#f2f5e9" fill-opacity="0.5" stroke="#606060" stroke-width="1.0"/>
   <path id="arrow"
     d="M 11.500037,31.436501 C 11.940474,20.09759 22.043105,11.32322 32.158766,21.979434 L 37.068811,17.246167 C 37.068811,17.246167 37.088388,32 37.088388,32 L 22.160133,31.978069 C 22.160133,31.978069 26.997745,27.140456 26.997745,27.140456 C 18.528582,18.264221 13.291696,25.230495 11.500037,31.436501 z"
     style="fill:#404040;"/>
  </a>
 </g>
</svg>

<style type='text/css'>
<![CDATA[
[data-mouse-over-selected='false'] { opacity: 0.7; }
[data-mouse-over-selected='true']  { opacity: 1.0; }
]]>
</style>
<script type="application/ecmascript"><![CDATA[
document.addEventListener('DOMContentLoaded', (event) => {
  highlightEdges();
  highlightAdjacentNodes();
});
]]></script>
</svg>
