<?xml version="1.0" encoding="UTF-8" standalone="no"?>
<!DOCTYPE svg PUBLIC "-//W3C//DTD SVG 1.1//EN"
 "http://www.w3.org/Graphics/SVG/1.1/DTD/svg11.dtd">
<!-- Generated by graphviz version 14.1.1 (0)
 -->
<!-- Title: getRouter Pages: 1 -->
<svg width="472pt" height="442pt"
 viewBox="0.00 0.00 472.00 442.00" xmlns="http://www.w3.org/2000/svg" xmlns:xlink="http://www.w3.org/1999/xlink">
<g id="graph0" class="graph" transform="scale(1 1) rotate(0) translate(4 437.5)">
<title>getRouter</title>
<!-- Node1 -->
<g id="Node000001" class="node">
<title>Node1</title>
<g id="a_Node000001"><a xlink:title=" ">
<polygon fill="#999999" stroke="#666666" points="64,-131.12 0,-131.12 0,-110.38 64,-110.38 64,-131.12"/>
<text xml:space="preserve" text-anchor="middle" x="32" y="-117.62" font-family="Helvetica,sans-Serif" font-size="10.00">getRouter</text>
</a>
</g>
</g>
<!-- Node2 -->
<g id="Node000002" class="node">
<title>Node2</title>
<g id="a_Node000002"><a xlink:href="classmqtt_1_1mqttbroker_1_1lib_1_1MqttModel.html#a860c900fe750b32b6cc66111f4e20125" target="_top" xlink:title=" ">
<polygon fill="white" stroke="#666666" points="269,-253.5 100,-253.5 100,-220 269,-220 269,-253.5"/>
<text xml:space="preserve" text-anchor="start" x="108" y="-240" font-family="Helvetica,sans-Serif" font-size="10.00">mqtt::mqttbroker::lib</text>
<text xml:space="preserve" text-anchor="middle" x="184.5" y="-227.25" font-family="Helvetica,sans-Serif" font-size="10.00">::MqttModel::addEventReceiver</text>
</a>
</g>
</g>
<!-- Node1&#45;&gt;Node2 -->
<g id="edge1_Node000001_Node000002" class="edge">
<title>Node1&#45;&gt;Node2</title>
<g id="a_edge1_Node000001_Node000002"><a xlink:title=" ">
<path fill="none" stroke="#63b8ff" d="M42.85,-131.42C55.41,-144.73 78.14,-167.79 100,-184.75 113.36,-195.11 128.87,-205.23 142.87,-213.75"/>
<polygon fill="#63b8ff" stroke="#63b8ff" points="141.07,-216.75 151.45,-218.88 144.66,-210.74 141.07,-216.75"/>
</a>
</g>
</g>
<!-- Node9 -->
<g id="Node000009" class="node">
<title>Node9</title>
<g id="a_Node000009"><a xlink:href="mqttbroker_8cpp.html#a049b5c955e78f60110433ce59da71607" target="_top" xlink:title=" ">
<polygon fill="white" stroke="#666666" points="233,-176.12 136,-176.12 136,-155.38 233,-155.38 233,-176.12"/>
<text xml:space="preserve" text-anchor="middle" x="184.5" y="-162.62" font-family="Helvetica,sans-Serif" font-size="10.00">getDetailedPage</text>
</a>
</g>
</g>
<!-- Node1&#45;&gt;Node9 -->
<g id="edge8_Node000001_Node000009" class="edge">
<title>Node1&#45;&gt;Node9</title>
<g id="a_edge8_Node000001_Node000009"><a xlink:title=" ">
<path fill="none" stroke="#63b8ff" d="M58.14,-131.51C70.59,-136.58 85.92,-142.44 100,-146.75 108.01,-149.2 116.53,-151.49 124.96,-153.58"/>
<polygon fill="#63b8ff" stroke="#63b8ff" points="123.92,-156.93 134.46,-155.84 125.54,-150.12 123.92,-156.93"/>
</a>
</g>
</g>
<!-- Node10 -->
<g id="Node000010" class="node">
<title>Node10</title>
<g id="a_Node000010"><a xlink:href="classmqtt_1_1mqttbroker_1_1lib_1_1MqttModel.html#ab7589b5b3019346fa6c381b2dbde42bf" target="_top" xlink:title=" ">
<polygon fill="white" stroke="#666666" points="243.88,-137.5 125.12,-137.5 125.12,-104 243.88,-104 243.88,-137.5"/>
<text xml:space="preserve" text-anchor="start" x="133.12" y="-124" font-family="Helvetica,sans-Serif" font-size="10.00">mqtt::mqttbroker::lib</text>
<text xml:space="preserve" text-anchor="middle" x="184.5" y="-111.25" font-family="Helvetica,sans-Serif" font-size="10.00">::MqttModel::getMqtt</text>
</a>
</g>
</g>
<!-- Node1&#45;&gt;Node10 -->
<g id="edge9_Node000001_Node000010" class="edge">
<title>Node1&#45;&gt;Node10</title>
<g id="a_edge9_Node000001_Node000010"><a xlink:title=" ">
<path fill="none" stroke="#63b8ff" d="M64.18,-120.75C78.52,-120.75 96.15,-120.75 113.42,-120.75"/>
<polygon fill="#63b8ff" stroke="#63b8ff" points="113.16,-124.25 123.16,-120.75 113.16,-117.25 113.16,-124.25"/>
</a>
</g>
</g>
<!-- Node11 -->
<g id="Node000011" class="node">
<title>Node11</title>
<g id="a_Node000011"><a xlink:href="mqttbroker_8cpp.html#ad9d315824898337732fd1b67f05846c9" target="_top" xlink:title=" ">
<polygon fill="white" stroke="#666666" points="235.62,-82.12 133.38,-82.12 133.38,-61.38 235.62,-61.38 235.62,-82.12"/>
<text xml:space="preserve" text-anchor="middle" x="184.5" y="-68.62" font-family="Helvetica,sans-Serif" font-size="10.00">getOverviewPage</text>
</a>
</g>
</g>
<!-- Node1&#45;&gt;Node11 -->
<g id="edge11_Node000001_Node000011" class="edge">
<title>Node1&#45;&gt;Node11</title>
<g id="a_edge11_Node000001_Node000011"><a xlink:title=" ">
<path fill="none" stroke="#63b8ff" d="M59.19,-109.88C71.47,-104.96 86.38,-99.26 100,-94.75 109.54,-91.59 119.79,-88.52 129.73,-85.69"/>
<polygon fill="#63b8ff" stroke="#63b8ff" points="130.62,-89.08 139.31,-83.03 128.74,-82.34 130.62,-89.08"/>
</a>
</g>
</g>
<!-- Node14 -->
<g id="Node000014" class="node">
<title>Node14</title>
<g id="a_Node000014"><a xlink:href="classmqtt_1_1mqttbroker_1_1lib_1_1MqttModel.html#a472d48d30d9626c722b64ddce4002e5f" target="_top" xlink:title=" ">
<polygon fill="white" stroke="#666666" points="245.38,-43.5 123.62,-43.5 123.62,-10 245.38,-10 245.38,-43.5"/>
<text xml:space="preserve" text-anchor="start" x="131.62" y="-30" font-family="Helvetica,sans-Serif" font-size="10.00">mqtt::mqttbroker::lib</text>
<text xml:space="preserve" text-anchor="middle" x="184.5" y="-17.25" font-family="Helvetica,sans-Serif" font-size="10.00">::MqttModel::instance</text>
</a>
</g>
</g>
<!-- Node1&#45;&gt;Node14 -->
<g id="edge14_Node000001_Node000014" class="edge">
<title>Node1&#45;&gt;Node14</title>
<g id="a_edge14_Node000001_Node000014"><a xlink:title=" ">
<path fill="none" stroke="#63b8ff" d="M40.85,-109.93C52.26,-94.98 74.81,-68.1 100,-52.75 104.2,-50.19 108.67,-47.87 113.28,-45.75"/>
<polygon fill="#63b8ff" stroke="#63b8ff" points="114.26,-49.13 122.14,-42.04 111.56,-42.68 114.26,-49.13"/>
</a>
</g>
</g>
<!-- Node3 -->
<g id="Node000003" class="node">
<title>Node3</title>
<g id="a_Node000003"><a xlink:href="classmqtt_1_1mqttbroker_1_1lib_1_1MqttModel_1_1MqttModelEntry.html#acb76370fc32ae314bd522c270327c6b1" target="_top" xlink:title=" ">
<polygon fill="white" stroke="#666666" points="463.5,-149.88 305,-149.88 305,-103.62 463.5,-103.62 463.5,-149.88"/>
<text xml:space="preserve" text-anchor="start" x="313" y="-136.38" font-family="Helvetica,sans-Serif" font-size="10.00">mqtt::mqttbroker::lib</text>
<text xml:space="preserve" text-anchor="start" x="313" y="-123.62" font-family="Helvetica,sans-Serif" font-size="10.00">::MqttModel::MqttModelEntry</text>
<text xml:space="preserve" text-anchor="middle" x="384.25" y="-110.88" font-family="Helvetica,sans-Serif" font-size="10.00">::getMqtt</text>
</a>
</g>
</g>
<!-- Node2&#45;&gt;Node3 -->
<g id="edge2_Node000002_Node000003" class="edge">
<title>Node2&#45;&gt;Node3</title>
<g id="a_edge2_Node000002_Node000003"><a xlink:title=" ">
<path fill="none" stroke="#63b8ff" d="M214.02,-219.65C230.3,-209.73 250.99,-196.84 269,-184.75 285.39,-173.75 287.74,-168.33 305,-158.75 307.06,-157.61 309.16,-156.49 311.3,-155.38"/>
<polygon fill="#63b8ff" stroke="#63b8ff" points="312.72,-158.58 320.15,-151.04 309.63,-152.3 312.72,-158.58"/>
</a>
</g>
</g>
<!-- Node4 -->
<g id="Node000004" class="node">
<title>Node4</title>
<g id="a_Node000004"><a xlink:href="namespacemqtt_1_1mqttbroker_1_1lib.html#a02d5d1cde3771e3752ad77b18c0e2095" target="_top" xlink:title=" ">
<polygon fill="white" stroke="#666666" points="442.88,-433.5 325.62,-433.5 325.62,-400 442.88,-400 442.88,-433.5"/>
<text xml:space="preserve" text-anchor="start" x="333.62" y="-420" font-family="Helvetica,sans-Serif" font-size="10.00">mqtt::mqttbroker::lib</text>
<text xml:space="preserve" text-anchor="middle" x="384.25" y="-407.25" font-family="Helvetica,sans-Serif" font-size="10.00">::href</text>
</a>
</g>
</g>
<!-- Node2&#45;&gt;Node4 -->
<g id="edge3_Node000002_Node000004" class="edge">
<title>Node2&#45;&gt;Node4</title>
<g id="a_edge3_Node000002_Node000004"><a xlink:title=" ">
<path fill="none" stroke="#63b8ff" d="M194.23,-253.78C211.26,-285.36 251.96,-353.22 305,-390.75 308.19,-393.01 311.6,-395.08 315.13,-396.98"/>
<polygon fill="#63b8ff" stroke="#63b8ff" points="313.46,-400.07 323.99,-401.24 316.49,-393.76 313.46,-400.07"/>
</a>
</g>
</g>
<!-- Node5 -->
<g id="Node000005" class="node">
<title>Node5</title>
<g id="a_Node000005"><a xlink:href="classmqtt_1_1mqttbroker_1_1lib_1_1MqttModel_1_1MqttModelEntry.html#ad5176b21cbb0e6fbcbf06adbbd8e0ef5" target="_top" xlink:title=" ">
<polygon fill="white" stroke="#666666" points="463.5,-381.88 305,-381.88 305,-335.62 463.5,-335.62 463.5,-381.88"/>
<text xml:space="preserve" text-anchor="start" x="313" y="-368.38" font-family="Helvetica,sans-Serif" font-size="10.00">mqtt::mqttbroker::lib</text>
<text xml:space="preserve" text-anchor="start" x="313" y="-355.62" font-family="Helvetica,sans-Serif" font-size="10.00">::MqttModel::MqttModelEntry</text>
<text xml:space="preserve" text-anchor="middle" x="384.25" y="-342.88" font-family="Helvetica,sans-Serif" font-size="10.00">::onlineDuration</text>
</a>
</g>
</g>
<!-- Node2&#45;&gt;Node5 -->
<g id="edge4_Node000002_Node000005" class="edge">
<title>Node2&#45;&gt;Node5</title>
<g id="a_edge4_Node000002_Node000005"><a xlink:title=" ">
<path fill="none" stroke="#63b8ff" d="M204.71,-253.7C227.46,-273.17 267.07,-305.19 305,-326.75 307.04,-327.91 309.14,-329.05 311.27,-330.17"/>
<polygon fill="#63b8ff" stroke="#63b8ff" points="309.58,-333.24 320.09,-334.57 312.7,-326.98 309.58,-333.24"/>
</a>
</g>
</g>
<!-- Node6 -->
<g id="Node000006" class="node">
<title>Node6</title>
<g id="a_Node000006"><a xlink:href="classmqtt_1_1mqttbroker_1_1lib_1_1MqttModel_1_1MqttModelEntry.html#aa1e16191c7815af56c3986dd7eaf0394" target="_top" xlink:title=" ">
<polygon fill="white" stroke="#666666" points="463.5,-317.88 305,-317.88 305,-271.62 463.5,-271.62 463.5,-317.88"/>
<text xml:space="preserve" text-anchor="start" x="313" y="-304.38" font-family="Helvetica,sans-Serif" font-size="10.00">mqtt::mqttbroker::lib</text>
<text xml:space="preserve" text-anchor="start" x="313" y="-291.62" font-family="Helvetica,sans-Serif" font-size="10.00">::MqttModel::MqttModelEntry</text>
<text xml:space="preserve" text-anchor="middle" x="384.25" y="-278.88" font-family="Helvetica,sans-Serif" font-size="10.00">::onlineSince</text>
</a>
</g>
</g>
<!-- Node2&#45;&gt;Node6 -->
<g id="edge5_Node000002_Node000006" class="edge">
<title>Node2&#45;&gt;Node6</title>
<g id="a_edge5_Node000002_Node000006"><a xlink:title=" ">
<path fill="none" stroke="#63b8ff" d="M244.3,-253.99C259.8,-258.54 276.88,-263.55 293.61,-268.46"/>
<polygon fill="#63b8ff" stroke="#63b8ff" points="292.5,-271.78 303.08,-271.24 294.47,-265.06 292.5,-271.78"/>
</a>
</g>
</g>
<!-- Node7 -->
<g id="Node000007" class="node">
<title>Node7</title>
<g id="a_Node000007"><a xlink:href="classmqtt_1_1mqttbroker_1_1lib_1_1MqttModel.html#a07170b2273f528a0498479600ad2a95b" target="_top" xlink:title=" ">
<polygon fill="white" stroke="#666666" points="450,-253.5 318.5,-253.5 318.5,-220 450,-220 450,-253.5"/>
<text xml:space="preserve" text-anchor="start" x="326.5" y="-240" font-family="Helvetica,sans-Serif" font-size="10.00">mqtt::mqttbroker::lib</text>
<text xml:space="preserve" text-anchor="middle" x="384.25" y="-227.25" font-family="Helvetica,sans-Serif" font-size="10.00">::MqttModel::sendEvent</text>
</a>
</g>
</g>
<!-- Node2&#45;&gt;Node7 -->
<g id="edge6_Node000002_Node000007" class="edge">
<title>Node2&#45;&gt;Node7</title>
<g id="a_edge6_Node000002_Node000007"><a xlink:title=" ">
<path fill="none" stroke="#63b8ff" d="M269.36,-236.75C281.86,-236.75 294.68,-236.75 307,-236.75"/>
<polygon fill="#63b8ff" stroke="#63b8ff" points="306.64,-240.25 316.64,-236.75 306.64,-233.25 306.64,-240.25"/>
</a>
</g>
</g>
<!-- Node8 -->
<g id="Node000008" class="node">
<title>Node8</title>
<g id="a_Node000008"><a xlink:href="namespacemqtt_1_1mqttbroker_1_1lib.html#a84d9d071543d085c7a76251f47fc7f31" target="_top" xlink:title=" ">
<polygon fill="white" stroke="#666666" points="442.88,-201.5 325.62,-201.5 325.62,-168 442.88,-168 442.88,-201.5"/>
<text xml:space="preserve" text-anchor="start" x="333.62" y="-188" font-family="Helvetica,sans-Serif" font-size="10.00">mqtt::mqttbroker::lib</text>
<text xml:space="preserve" text-anchor="middle" x="384.25" y="-175.25" font-family="Helvetica,sans-Serif" font-size="10.00">::windowId</text>
</a>
</g>
</g>
<!-- Node2&#45;&gt;Node8 -->
<g id="edge7_Node000002_Node000008" class="edge">
<title>Node2&#45;&gt;Node8</title>
<g id="a_edge7_Node000002_Node000008"><a xlink:title=" ">
<path fill="none" stroke="#63b8ff" d="M251.07,-219.51C271.37,-214.17 293.79,-208.27 314.31,-202.88"/>
<polygon fill="#63b8ff" stroke="#63b8ff" points="314.92,-206.34 323.7,-200.41 313.14,-199.57 314.92,-206.34"/>
</a>
</g>
</g>
<!-- Node10&#45;&gt;Node3 -->
<g id="edge10_Node000010_Node000003" class="edge">
<title>Node10&#45;&gt;Node3</title>
<g id="a_edge10_Node000010_Node000003"><a xlink:title=" ">
<path fill="none" stroke="#63b8ff" d="M244.3,-122.53C259.65,-123 276.56,-123.51 293.14,-124.02"/>
<polygon fill="#63b8ff" stroke="#63b8ff" points="292.92,-127.51 303.02,-124.32 293.13,-120.51 292.92,-127.51"/>
</a>
</g>
</g>
<!-- Node12 -->
<g id="Node000012" class="node">
<title>Node12</title>
<g id="a_Node000012"><a xlink:href="classmqtt_1_1mqttbroker_1_1lib_1_1MqttModel.html#a9423a3d458e7642931e54069583ac30d" target="_top" xlink:title=" ">
<polygon fill="white" stroke="#666666" points="460.5,-85.5 308,-85.5 308,-52 460.5,-52 460.5,-85.5"/>
<text xml:space="preserve" text-anchor="start" x="316" y="-72" font-family="Helvetica,sans-Serif" font-size="10.00">mqtt::mqttbroker::lib</text>
<text xml:space="preserve" text-anchor="middle" x="384.25" y="-59.25" font-family="Helvetica,sans-Serif" font-size="10.00">::MqttModel::onlineDuration</text>
</a>
</g>
</g>
<!-- Node11&#45;&gt;Node12 -->
<g id="edge12_Node000011_Node000012" class="edge">
<title>Node11&#45;&gt;Node12</title>
<g id="a_edge12_Node000011_Node000012"><a xlink:title=" ">
<path fill="none" stroke="#63b8ff" d="M235.91,-70.99C254.26,-70.71 275.56,-70.38 296.17,-70.07"/>
<polygon fill="#63b8ff" stroke="#63b8ff" points="296.06,-73.57 306.01,-69.92 295.96,-66.57 296.06,-73.57"/>
</a>
</g>
</g>
<!-- Node13 -->
<g id="Node000013" class="node">
<title>Node13</title>
<g id="a_Node000013"><a xlink:href="classmqtt_1_1mqttbroker_1_1lib_1_1MqttModel.html#a91fc1ed46bf75fded412034533ea60ce" target="_top" xlink:title=" ">
<polygon fill="white" stroke="#666666" points="452.62,-33.5 315.88,-33.5 315.88,0 452.62,0 452.62,-33.5"/>
<text xml:space="preserve" text-anchor="start" x="323.88" y="-20" font-family="Helvetica,sans-Serif" font-size="10.00">mqtt::mqttbroker::lib</text>
<text xml:space="preserve" text-anchor="middle" x="384.25" y="-7.25" font-family="Helvetica,sans-Serif" font-size="10.00">::MqttModel::onlineSince</text>
</a>
</g>
</g>
<!-- Node11&#45;&gt;Node13 -->
<g id="edge13_Node000011_Node000013" class="edge">
<title>Node11&#45;&gt;Node13</title>
<g id="a_edge13_Node000011_Node000013"><a xlink:title=" ">
<path fill="none" stroke="#63b8ff" d="M236,-60.96C246.92,-58.43 258.38,-55.63 269,-52.75 285.96,-48.16 304.17,-42.67 320.96,-37.39"/>
<polygon fill="#63b8ff" stroke="#63b8ff" points="321.85,-40.78 330.31,-34.41 319.72,-34.11 321.85,-40.78"/>
</a>
</g>
</g>
</g>
</svg>
