<?xml version="1.0" encoding="UTF-8" standalone="no"?>
<!DOCTYPE svg PUBLIC "-//W3C//DTD SVG 1.1//EN"
 "http://www.w3.org/Graphics/SVG/1.1/DTD/svg11.dtd">
<!-- Generated by graphviz version 14.1.2 (0)
 -->
<!-- Title: mqttbroker/lib/MqttModel.cpp Pages: 1 -->
<svg width="1209pt" height="155pt"
 viewBox="0.00 0.00 1209.00 155.00" xmlns="http://www.w3.org/2000/svg" xmlns:xlink="http://www.w3.org/1999/xlink">
<g id="graph0" class="graph" transform="scale(1 1) rotate(0) translate(4 151)">
<title>mqttbroker/lib/MqttModel.cpp</title>
<!-- Node1 -->
<g id="Node000001" class="node">
<title>Node1</title>
<g id="a_Node000001"><a xlink:title=" ">
<polygon fill="#999999" stroke="#666666" points="623.38,-147 462.62,-147 462.62,-126.25 623.38,-126.25 623.38,-147"/>
<text xml:space="preserve" text-anchor="middle" x="543" y="-133.5" font-family="Helvetica,sans-Serif" font-size="10.00">mqttbroker/lib/MqttModel.cpp</text>
</a>
</g>
</g>
<!-- Node2 -->
<g id="Node000002" class="node">
<title>Node2</title>
<g id="a_Node000002"><a xlink:href="MqttModel_8h.html" target="_top" xlink:title=" ">
<polygon fill="white" stroke="#666666" points="117.75,-83.88 40.25,-83.88 40.25,-63.12 117.75,-63.12 117.75,-83.88"/>
<text xml:space="preserve" text-anchor="middle" x="79" y="-70.38" font-family="Helvetica,sans-Serif" font-size="10.00">MqttModel.h</text>
</a>
</g>
</g>
<!-- Node1&#45;&gt;Node2 -->
<g id="edge1_Node000001_Node000002" class="edge">
<title>Node1&#45;&gt;Node2</title>
<g id="a_edge1_Node000001_Node000002"><a xlink:title=" ">
<path fill="none" stroke="#63b8ff" d="M462.22,-129.89C380.51,-123.3 250.78,-110.68 140,-90.25 135.03,-89.33 129.86,-88.23 124.73,-87.05"/>
<polygon fill="#63b8ff" stroke="#63b8ff" points="125.67,-83.67 115.12,-84.7 124.01,-90.47 125.67,-83.67"/>
</a>
</g>
</g>
<!-- Node4 -->
<g id="Node000004" class="node">
<title>Node4</title>
<g id="a_Node000004"><a xlink:href="mqttbroker_2lib_2Mqtt_8h.html" target="_top" xlink:title=" ">
<polygon fill="white" stroke="#666666" points="196.75,-83.88 149.25,-83.88 149.25,-63.12 196.75,-63.12 196.75,-83.88"/>
<text xml:space="preserve" text-anchor="middle" x="173" y="-70.38" font-family="Helvetica,sans-Serif" font-size="10.00">Mqtt.h</text>
</a>
</g>
</g>
<!-- Node1&#45;&gt;Node4 -->
<g id="edge3_Node000001_Node000004" class="edge">
<title>Node1&#45;&gt;Node4</title>
<g id="a_edge3_Node000001_Node000004"><a xlink:title=" ">
<path fill="none" stroke="#63b8ff" d="M462.2,-131.81C392.99,-126.88 291.29,-115.66 206,-90.25 204.4,-89.77 202.79,-89.23 201.17,-88.64"/>
<polygon fill="#63b8ff" stroke="#63b8ff" points="202.72,-85.49 192.14,-84.81 199.98,-91.93 202.72,-85.49"/>
</a>
</g>
</g>
<!-- Node6 -->
<g id="Node000006" class="node">
<title>Node6</title>
<g id="a_Node000006"><a xlink:title=" ">
<polygon fill="#e0e0e0" stroke="#999999" points="329.5,-90.25 214.5,-90.25 214.5,-56.75 329.5,-56.75 329.5,-90.25"/>
<text xml:space="preserve" text-anchor="start" x="222.5" y="-76.75" font-family="Helvetica,sans-Serif" font-size="10.00">core/socket/stream</text>
<text xml:space="preserve" text-anchor="middle" x="272" y="-64" font-family="Helvetica,sans-Serif" font-size="10.00">/SocketConnection.h</text>
</a>
</g>
</g>
<!-- Node1&#45;&gt;Node6 -->
<g id="edge5_Node000001_Node000006" class="edge">
<title>Node1&#45;&gt;Node6</title>
<g id="a_edge5_Node000001_Node000006"><a xlink:title=" ">
<path fill="none" stroke="#63b8ff" d="M497.76,-125.83C458.63,-117.32 400.23,-104.49 341,-90.92"/>
<polygon fill="#63b8ff" stroke="#63b8ff" points="341.94,-87.55 331.41,-88.72 340.37,-94.37 341.94,-87.55"/>
</a>
</g>
</g>
<!-- Node7 -->
<g id="Node000007" class="node">
<title>Node7</title>
<g id="a_Node000007"><a xlink:title=" ">
<polygon fill="#e0e0e0" stroke="#999999" points="460.75,-83.88 347.25,-83.88 347.25,-63.12 460.75,-63.12 460.75,-83.88"/>
<text xml:space="preserve" text-anchor="middle" x="404" y="-70.38" font-family="Helvetica,sans-Serif" font-size="10.00">express/Response.h</text>
</a>
</g>
</g>
<!-- Node1&#45;&gt;Node7 -->
<g id="edge6_Node000001_Node000007" class="edge">
<title>Node1&#45;&gt;Node7</title>
<g id="a_edge6_Node000001_Node000007"><a xlink:title=" ">
<path fill="none" stroke="#63b8ff" d="M520.67,-125.8C497.97,-115.82 462.57,-100.25 436.71,-88.88"/>
<polygon fill="#63b8ff" stroke="#63b8ff" points="438.23,-85.73 427.66,-84.91 435.41,-92.14 438.23,-85.73"/>
</a>
</g>
</g>
<!-- Node8 -->
<g id="Node000008" class="node">
<title>Node8</title>
<g id="a_Node000008"><a xlink:title=" ">
<polygon fill="#e0e0e0" stroke="#999999" points="606.88,-83.88 479.12,-83.88 479.12,-63.12 606.88,-63.12 606.88,-83.88"/>
<text xml:space="preserve" text-anchor="middle" x="543" y="-70.38" font-family="Helvetica,sans-Serif" font-size="10.00">iot/mqtt/MqttContext.h</text>
</a>
</g>
</g>
<!-- Node1&#45;&gt;Node8 -->
<g id="edge7_Node000001_Node000008" class="edge">
<title>Node1&#45;&gt;Node8</title>
<g id="a_edge7_Node000001_Node000008"><a xlink:title=" ">
<path fill="none" stroke="#63b8ff" d="M543,-125.8C543,-117.65 543,-105.76 543,-95.48"/>
<polygon fill="#63b8ff" stroke="#63b8ff" points="546.5,-95.61 543,-85.61 539.5,-95.61 546.5,-95.61"/>
</a>
</g>
</g>
<!-- Node9 -->
<g id="Node000009" class="node">
<title>Node9</title>
<g id="a_Node000009"><a xlink:title=" ">
<polygon fill="#e0e0e0" stroke="#999999" points="747.25,-90.25 624.75,-90.25 624.75,-56.75 747.25,-56.75 747.25,-90.25"/>
<text xml:space="preserve" text-anchor="start" x="632.75" y="-76.75" font-family="Helvetica,sans-Serif" font-size="10.00">iot/mqtt/server/broker</text>
<text xml:space="preserve" text-anchor="middle" x="686" y="-64" font-family="Helvetica,sans-Serif" font-size="10.00">/Broker.h</text>
</a>
</g>
</g>
<!-- Node1&#45;&gt;Node9 -->
<g id="edge8_Node000001_Node000009" class="edge">
<title>Node1&#45;&gt;Node9</title>
<g id="a_edge8_Node000001_Node000009"><a xlink:title=" ">
<path fill="none" stroke="#63b8ff" d="M565.98,-125.8C585.23,-117.57 613.38,-105.54 637.58,-95.2"/>
<polygon fill="#63b8ff" stroke="#63b8ff" points="638.81,-98.48 646.63,-91.33 636.06,-92.04 638.81,-98.48"/>
</a>
</g>
</g>
<!-- Node10 -->
<g id="Node000010" class="node">
<title>Node10</title>
<g id="a_Node000010"><a xlink:title=" ">
<polygon fill="#e0e0e0" stroke="#999999" points="880.5,-83.88 765.5,-83.88 765.5,-63.12 880.5,-63.12 880.5,-83.88"/>
<text xml:space="preserve" text-anchor="middle" x="823" y="-70.38" font-family="Helvetica,sans-Serif" font-size="10.00">net/SocketAddress.h</text>
</a>
</g>
</g>
<!-- Node1&#45;&gt;Node10 -->
<g id="edge9_Node000001_Node000010" class="edge">
<title>Node1&#45;&gt;Node10</title>
<g id="a_edge9_Node000001_Node000010"><a xlink:title=" ">
<path fill="none" stroke="#63b8ff" d="M590.44,-125.82C633.64,-116.81 699.18,-102.98 756,-90.25 760.85,-89.16 765.9,-88.01 770.95,-86.85"/>
<polygon fill="#63b8ff" stroke="#63b8ff" points="771.51,-90.31 780.45,-84.64 769.92,-83.49 771.51,-90.31"/>
</a>
</g>
</g>
<!-- Node11 -->
<g id="Node000011" class="node">
<title>Node11</title>
<g id="a_Node000011"><a xlink:title=" ">
<polygon fill="#e0e0e0" stroke="#999999" points="1007.5,-83.88 898.5,-83.88 898.5,-63.12 1007.5,-63.12 1007.5,-83.88"/>
<text xml:space="preserve" text-anchor="middle" x="953" y="-70.38" font-family="Helvetica,sans-Serif" font-size="10.00">nlohmann/json.hpp</text>
</a>
</g>
</g>
<!-- Node1&#45;&gt;Node11 -->
<g id="edge10_Node000001_Node000011" class="edge">
<title>Node1&#45;&gt;Node11</title>
<g id="a_edge10_Node000001_Node000011"><a xlink:title=" ">
<path fill="none" stroke="#63b8ff" d="M623.7,-127.73C694.3,-120.19 799.42,-107.44 890,-90.25 895.2,-89.26 900.6,-88.11 905.97,-86.88"/>
<polygon fill="#63b8ff" stroke="#63b8ff" points="906.46,-90.37 915.37,-84.65 904.83,-83.56 906.46,-90.37"/>
</a>
</g>
</g>
<!-- Node12 -->
<g id="Node000012" class="node">
<title>Node12</title>
<g id="a_Node000012"><a xlink:title=" ">
<polygon fill="#e0e0e0" stroke="#999999" points="1200.5,-83.88 1025.5,-83.88 1025.5,-63.12 1200.5,-63.12 1200.5,-83.88"/>
<text xml:space="preserve" text-anchor="middle" x="1113" y="-70.38" font-family="Helvetica,sans-Serif" font-size="10.00">web/http/server/SocketContext.h</text>
</a>
</g>
</g>
<!-- Node1&#45;&gt;Node12 -->
<g id="edge11_Node000001_Node000012" class="edge">
<title>Node1&#45;&gt;Node12</title>
<g id="a_edge11_Node000001_Node000012"><a xlink:title=" ">
<path fill="none" stroke="#63b8ff" d="M623.7,-129.56C718.18,-122.08 879.27,-108.12 1017,-90.25 1026.33,-89.04 1036.14,-87.61 1045.79,-86.11"/>
<polygon fill="#63b8ff" stroke="#63b8ff" points="1046.18,-89.6 1055.51,-84.57 1045.08,-82.68 1046.18,-89.6"/>
</a>
</g>
</g>
<!-- Node3 -->
<g id="Node000003" class="node">
<title>Node3</title>
<g id="a_Node000003"><a xlink:title=" ">
<polygon fill="#e0e0e0" stroke="#999999" points="106,-20.75 0,-20.75 0,0 106,0 106,-20.75"/>
<text xml:space="preserve" text-anchor="middle" x="53" y="-7.25" font-family="Helvetica,sans-Serif" font-size="10.00">core/timer/Timer.h</text>
</a>
</g>
</g>
<!-- Node2&#45;&gt;Node3 -->
<g id="edge2_Node000002_Node000003" class="edge">
<title>Node2&#45;&gt;Node3</title>
<g id="a_edge2_Node000002_Node000003"><a xlink:title=" ">
<path fill="none" stroke="#63b8ff" d="M74.82,-62.68C71.24,-54.25 65.96,-41.84 61.49,-31.34"/>
<polygon fill="#63b8ff" stroke="#63b8ff" points="64.81,-30.19 57.67,-22.36 58.37,-32.93 64.81,-30.19"/>
</a>
</g>
</g>
<!-- Node5 -->
<g id="Node000005" class="node">
<title>Node5</title>
<g id="a_Node000005"><a xlink:title=" ">
<polygon fill="#e0e0e0" stroke="#999999" points="247.62,-20.75 124.38,-20.75 124.38,0 247.62,0 247.62,-20.75"/>
<text xml:space="preserve" text-anchor="middle" x="186" y="-7.25" font-family="Helvetica,sans-Serif" font-size="10.00">iot/mqtt/server/Mqtt.h</text>
</a>
</g>
</g>
<!-- Node4&#45;&gt;Node5 -->
<g id="edge4_Node000004_Node000005" class="edge">
<title>Node4&#45;&gt;Node5</title>
<g id="a_edge4_Node000004_Node000005"><a xlink:title=" ">
<path fill="none" stroke="#63b8ff" d="M175.09,-62.68C176.84,-54.43 179.41,-42.37 181.61,-32.01"/>
<polygon fill="#63b8ff" stroke="#63b8ff" points="184.99,-32.96 183.64,-22.45 178.14,-31.5 184.99,-32.96"/>
</a>
</g>
</g>
</g>
</svg>
