<?xml version="1.0" encoding="UTF-8" standalone="no"?>
<!DOCTYPE svg PUBLIC "-//W3C//DTD SVG 1.1//EN"
 "http://www.w3.org/Graphics/SVG/1.1/DTD/svg11.dtd">
<!-- Generated by graphviz version 14.1.1 (0)
 -->
<!-- Title: mqttcli/lib/Mqtt.h Pages: 1 -->
<svg width="316pt" height="86pt"
 viewBox="0.00 0.00 316.00 86.00" xmlns="http://www.w3.org/2000/svg" xmlns:xlink="http://www.w3.org/1999/xlink">
<g id="graph0" class="graph" transform="scale(1 1) rotate(0) translate(4 81.5)">
<title>mqttcli/lib/Mqtt.h</title>
<!-- Node1 -->
<g id="Node000001" class="node">
<title>Node1</title>
<g id="a_Node000001"><a xlink:title=" ">
<polygon fill="#999999" stroke="#666666" points="220.38,-77.5 120.38,-77.5 120.38,-56.75 220.38,-56.75 220.38,-77.5"/>
<text xml:space="preserve" text-anchor="middle" x="170.38" y="-64" font-family="Helvetica,sans-Serif" font-size="10.00">mqttcli/lib/Mqtt.h</text>
</a>
</g>
</g>
<!-- Node2 -->
<g id="Node000002" class="node">
<title>Node2</title>
<g id="a_Node000002"><a xlink:href="mqttcli_2SocketContextFactory_8cpp.html" target="_top" xlink:title=" ">
<polygon fill="white" stroke="#666666" points="178.75,-20.75 0,-20.75 0,0 178.75,0 178.75,-20.75"/>
<text xml:space="preserve" text-anchor="middle" x="89.38" y="-7.25" font-family="Helvetica,sans-Serif" font-size="10.00">mqttcli/SocketContextFactory.cpp</text>
</a>
</g>
</g>
<!-- Node1&#45;&gt;Node2 -->
<g id="edge1_Node000001_Node000002" class="edge">
<title>Node1&#45;&gt;Node2</title>
<g id="a_edge1_Node000001_Node000002"><a xlink:title=" ">
<path fill="none" stroke="#63b8ff" d="M146.46,-49.96C132.58,-40.58 115.56,-29.07 103.73,-21.08"/>
<polygon fill="#63b8ff" stroke="#63b8ff" points="144.39,-52.79 154.64,-55.49 148.31,-46.99 144.39,-52.79"/>
</a>
</g>
</g>
<!-- Node3 -->
<g id="Node000003" class="node">
<title>Node3</title>
<g id="a_Node000003"><a xlink:href="mqttcli_2lib_2Mqtt_8cpp.html" target="_top" xlink:title=" ">
<polygon fill="white" stroke="#666666" points="308,-20.75 196.75,-20.75 196.75,0 308,0 308,-20.75"/>
<text xml:space="preserve" text-anchor="middle" x="252.38" y="-7.25" font-family="Helvetica,sans-Serif" font-size="10.00">mqttcli/lib/Mqtt.cpp</text>
</a>
</g>
</g>
<!-- Node1&#45;&gt;Node3 -->
<g id="edge2_Node000001_Node000003" class="edge">
<title>Node1&#45;&gt;Node3</title>
<g id="a_edge2_Node000001_Node000003"><a xlink:title=" ">
<path fill="none" stroke="#63b8ff" d="M194.58,-49.96C208.64,-40.58 225.87,-29.07 237.84,-21.08"/>
<polygon fill="#63b8ff" stroke="#63b8ff" points="192.67,-47.03 186.29,-55.5 196.55,-52.85 192.67,-47.03"/>
</a>
</g>
</g>
</g>
</svg>
