<?xml version="1.0" encoding="UTF-8" standalone="no"?>
<!DOCTYPE svg PUBLIC "-//W3C//DTD SVG 1.1//EN"
 "http://www.w3.org/Graphics/SVG/1.1/DTD/svg11.dtd">
<!-- Generated by graphviz version 14.1.2 (0)
 -->
<!-- Title: mqttbroker/websocket/SubProtocolFactory.cpp Pages: 1 -->
<!--zoomable 181 -->

<svg id="main" version="1.1" xmlns="http://www.w3.org/2000/svg" xmlns:xlink="http://www.w3.org/1999/xlink" xml:space="preserve" onload="init(evt)">

<style type="text/css"><![CDATA[
.node, .edge {opacity: 0.7;}
.node.selected, .edge.selected {opacity: 1;}
.edge:hover path { stroke: red; }
.edge:hover polygon { stroke: red; fill: red; }
]]></style>

<defs>
  <circle id="rim" cx="0" cy="0" r="7"/>
  <circle id="rim2" cx="0" cy="0" r="3.5"/>
  <g id="zoomPlus">
    <use xlink:href="#rim" fill="#404040"><set attributeName="fill" to="#808080" begin="zoomplus.mouseover" end="zoomplus.mouseout"/></use>
    <path d="M-4,0h8M0,-4v8" fill="none" stroke="white" stroke-width="1.5" pointer-events="none"/>
  </g>
  <g id="zoomMin">
    <use xlink:href="#rim" fill="#404040"><set attributeName="fill" to="#808080" begin="zoomminus.mouseover" end="zoomminus.mouseout"/></use>
    <path d="M-4,0h8" fill="none" stroke="white" stroke-width="1.5" pointer-events="none"/>
  </g>
  <g id="arrowUp" transform="translate(30 24)">
    <use xlink:href="#rim"/>
    <path pointer-events="none" fill="none" stroke="white" stroke-width="1.5" d="M0,-3.0v7 M-2.5,-0.5L0,-3.0L2.5,-0.5"/>
  </g>
  <g id="arrowRight" transform="rotate(90) translate(36 -43)">
    <use xlink:href="#rim"/>
    <path pointer-events="none" fill="none" stroke="white" stroke-width="1.5" d="M0,-3.0v7 M-2.5,-0.5L0,-3.0L2.5,-0.5"/>
  </g>
  <g id="arrowDown" transform="rotate(180) translate(-30 -48)">
    <use xlink:href="#rim"/>
    <path pointer-events="none" fill="none" stroke="white" stroke-width="1.5" d="M0,-3.0v7 M-2.5,-0.5L0,-3.0L2.5,-0.5"/>
  </g>
  <g id="arrowLeft" transform="rotate(270) translate(-36 17)">
    <use xlink:href="#rim"/>
    <path pointer-events="none" fill="none" stroke="white" stroke-width="1.5" d="M0,-3.0v7 M-2.5,-0.5L0,-3.0L2.5,-0.5"/>
  </g>
  <g id="resetDef">
    <use xlink:href="#rim2" fill="#404040"><set attributeName="fill" to="#808080" begin="reset.mouseover" end="reset.mouseout"/></use>
  </g>
</defs>
<script type="application/ecmascript">
var viewWidth = 1358;
var viewHeight = 181;
var sectionId = 'dynsection-0';
</script>
<script type="application/ecmascript" xlink:href="svg.min.js"/>
<svg id="graph" class="graph">
<g id="viewport">
<title>mqttbroker/websocket/SubProtocolFactory.cpp</title>
<!-- Node1 -->
<g id="Node000001" class="node">
<title>Node1</title>
<g id="a_Node000001"><a xlink:title=" ">
<polygon fill="#999999" stroke="#666666" points="895,-172.5 763.5,-172.5 763.5,-139 895,-139 895,-172.5"/>
<text xml:space="preserve" text-anchor="start" x="771.5" y="-159" font-family="Helvetica,sans-Serif" font-size="10.00">mqttbroker/websocket</text>
<text xml:space="preserve" text-anchor="middle" x="829.25" y="-146.25" font-family="Helvetica,sans-Serif" font-size="10.00">/SubProtocolFactory.cpp</text>
</a>
</g>
</g>
<!-- Node2 -->
<g id="Node000002" class="node">
<title>Node2</title>
<g id="a_Node000002"><a xlink:href="mqttbroker_2websocket_2SubProtocolFactory_8h.html" target="_top" xlink:title=" ">
<polygon fill="white" stroke="#666666" points="387.88,-96.62 270.62,-96.62 270.62,-75.88 387.88,-75.88 387.88,-96.62"/>
<text xml:space="preserve" text-anchor="middle" x="329.25" y="-83.12" font-family="Helvetica,sans-Serif" font-size="10.00">SubProtocolFactory.h</text>
</a>
</g>
</g>
<!-- Node1&#45;&gt;Node2 -->
<g id="edge1_Node000001_Node000002" class="edge">
<title>Node1&#45;&gt;Node2</title>
<g id="a_edge1_Node000001_Node000002"><a xlink:title=" ">
<path fill="none" stroke="#63b8ff" d="M763.15,-146.36C685.02,-136.37 551.1,-119.01 436.25,-103 424.36,-101.34 411.74,-99.53 399.49,-97.74"/>
<polygon fill="#63b8ff" stroke="#63b8ff" points="400.27,-94.32 389.87,-96.34 399.26,-101.25 400.27,-94.32"/>
</a>
</g>
</g>
<!-- Node6 -->
<g id="Node000006" class="node">
<title>Node6</title>
<g id="a_Node000006"><a xlink:href="ConfigApplication_8h.html" target="_top" xlink:title=" ">
<polygon fill="white" stroke="#666666" points="571.38,-96.62 445.12,-96.62 445.12,-75.88 571.38,-75.88 571.38,-96.62"/>
<text xml:space="preserve" text-anchor="middle" x="508.25" y="-83.12" font-family="Helvetica,sans-Serif" font-size="10.00">lib/ConfigApplication.h</text>
</a>
</g>
</g>
<!-- Node1&#45;&gt;Node6 -->
<g id="edge5_Node000001_Node000006" class="edge">
<title>Node1&#45;&gt;Node6</title>
<g id="a_edge5_Node000001_Node000006"><a xlink:title=" ">
<path fill="none" stroke="#63b8ff" d="M763.17,-141.09C713.19,-130.72 642.88,-116.08 581.25,-103 575.76,-101.84 570.05,-100.61 564.33,-99.39"/>
<polygon fill="#63b8ff" stroke="#63b8ff" points="565.4,-96.04 554.89,-97.36 563.93,-102.88 565.4,-96.04"/>
</a>
</g>
</g>
<!-- Node8 -->
<g id="Node000008" class="node">
<title>Node8</title>
<g id="a_Node000008"><a xlink:href="JsonMappingReader_8h.html" target="_top" xlink:title=" ">
<polygon fill="white" stroke="#666666" points="726.62,-96.62 589.88,-96.62 589.88,-75.88 726.62,-75.88 726.62,-96.62"/>
<text xml:space="preserve" text-anchor="middle" x="658.25" y="-83.12" font-family="Helvetica,sans-Serif" font-size="10.00">lib/JsonMappingReader.h</text>
</a>
</g>
</g>
<!-- Node1&#45;&gt;Node8 -->
<g id="edge7_Node000001_Node000008" class="edge">
<title>Node1&#45;&gt;Node8</title>
<g id="a_edge7_Node000001_Node000008"><a xlink:title=" ">
<path fill="none" stroke="#63b8ff" d="M788.29,-138.58C759.33,-127.15 720.91,-111.99 693.36,-101.11"/>
<polygon fill="#63b8ff" stroke="#63b8ff" points="695,-97.99 684.41,-97.58 692.43,-104.5 695,-97.99"/>
</a>
</g>
</g>
<!-- Node9 -->
<g id="Node000009" class="node">
<title>Node9</title>
<g id="a_Node000009"><a xlink:title=" ">
<polygon fill="#e0e0e0" stroke="#999999" points="807.5,-96.62 745,-96.62 745,-75.88 807.5,-75.88 807.5,-96.62"/>
<text xml:space="preserve" text-anchor="middle" x="776.25" y="-83.12" font-family="Helvetica,sans-Serif" font-size="10.00">lib/Mqtt.h</text>
</a>
</g>
</g>
<!-- Node1&#45;&gt;Node9 -->
<g id="edge8_Node000001_Node000009" class="edge">
<title>Node1&#45;&gt;Node9</title>
<g id="a_edge8_Node000001_Node000009"><a xlink:title=" ">
<path fill="none" stroke="#63b8ff" d="M816.69,-138.75C808.99,-128.94 799.09,-116.34 791.02,-106.05"/>
<polygon fill="#63b8ff" stroke="#63b8ff" points="793.83,-103.97 784.9,-98.26 788.32,-108.29 793.83,-103.97"/>
</a>
</g>
</g>
<!-- Node10 -->
<g id="Node000010" class="node">
<title>Node10</title>
<g id="a_Node000010"><a xlink:title=" ">
<polygon fill="#e0e0e0" stroke="#999999" points="940.75,-103 825.75,-103 825.75,-69.5 940.75,-69.5 940.75,-103"/>
<text xml:space="preserve" text-anchor="start" x="833.75" y="-89.5" font-family="Helvetica,sans-Serif" font-size="10.00">core/socket/stream</text>
<text xml:space="preserve" text-anchor="middle" x="883.25" y="-76.75" font-family="Helvetica,sans-Serif" font-size="10.00">/SocketConnection.h</text>
</a>
</g>
</g>
<!-- Node1&#45;&gt;Node10 -->
<g id="edge9_Node000001_Node000010" class="edge">
<title>Node1&#45;&gt;Node10</title>
<g id="a_edge9_Node000001_Node000010"><a xlink:title=" ">
<path fill="none" stroke="#63b8ff" d="M842.05,-138.75C848.44,-130.77 856.31,-120.93 863.45,-112"/>
<polygon fill="#63b8ff" stroke="#63b8ff" points="866.09,-114.31 869.6,-104.31 860.62,-109.94 866.09,-114.31"/>
</a>
</g>
</g>
<!-- Node11 -->
<g id="Node000011" class="node">
<title>Node11</title>
<g id="a_Node000011"><a xlink:title=" ">
<polygon fill="#e0e0e0" stroke="#999999" points="1081.5,-103 959,-103 959,-69.5 1081.5,-69.5 1081.5,-103"/>
<text xml:space="preserve" text-anchor="start" x="967" y="-89.5" font-family="Helvetica,sans-Serif" font-size="10.00">iot/mqtt/server/broker</text>
<text xml:space="preserve" text-anchor="middle" x="1020.25" y="-76.75" font-family="Helvetica,sans-Serif" font-size="10.00">/Broker.h</text>
</a>
</g>
</g>
<!-- Node1&#45;&gt;Node11 -->
<g id="edge10_Node000001_Node000011" class="edge">
<title>Node1&#45;&gt;Node11</title>
<g id="a_edge10_Node000001_Node000011"><a xlink:title=" ">
<path fill="none" stroke="#63b8ff" d="M875,-138.58C901.72,-129.14 935.64,-117.15 963.98,-107.14"/>
<polygon fill="#63b8ff" stroke="#63b8ff" points="964.85,-110.54 973.12,-103.91 962.52,-103.94 964.85,-110.54"/>
</a>
</g>
</g>
<!-- Node12 -->
<g id="Node000012" class="node">
<title>Node12</title>
<g id="a_Node000012"><a xlink:title=" ">
<polygon fill="#e0e0e0" stroke="#999999" points="1180.5,-96.62 1100,-96.62 1100,-75.88 1180.5,-75.88 1180.5,-96.62"/>
<text xml:space="preserve" text-anchor="middle" x="1140.25" y="-83.12" font-family="Helvetica,sans-Serif" font-size="10.00">utils/Config.h</text>
</a>
</g>
</g>
<!-- Node1&#45;&gt;Node12 -->
<g id="edge11_Node000001_Node000012" class="edge">
<title>Node1&#45;&gt;Node12</title>
<g id="a_edge11_Node000001_Node000012"><a xlink:title=" ">
<path fill="none" stroke="#63b8ff" d="M895.4,-143.7C948.43,-134.35 1024.57,-119.8 1090.25,-103 1093.39,-102.2 1096.63,-101.31 1099.87,-100.38"/>
<polygon fill="#63b8ff" stroke="#63b8ff" points="1100.76,-103.77 1109.34,-97.55 1098.76,-97.06 1100.76,-103.77"/>
</a>
</g>
</g>
<!-- Node13 -->
<g id="Node000013" class="node">
<title>Node13</title>
<g id="a_Node000013"><a xlink:title=" ">
<polygon fill="#e0e0e0" stroke="#999999" points="1350.12,-103 1198.38,-103 1198.38,-69.5 1350.12,-69.5 1350.12,-103"/>
<text xml:space="preserve" text-anchor="start" x="1206.38" y="-89.5" font-family="Helvetica,sans-Serif" font-size="10.00">web/websocket/SubProtocol</text>
<text xml:space="preserve" text-anchor="middle" x="1274.25" y="-76.75" font-family="Helvetica,sans-Serif" font-size="10.00">Context.h</text>
</a>
</g>
</g>
<!-- Node1&#45;&gt;Node13 -->
<g id="edge12_Node000001_Node000013" class="edge">
<title>Node1&#45;&gt;Node13</title>
<g id="a_edge12_Node000001_Node000013"><a xlink:title=" ">
<path fill="none" stroke="#63b8ff" d="M895.39,-146.06C965.3,-136.69 1079.05,-120.92 1187.16,-103.31"/>
<polygon fill="#63b8ff" stroke="#63b8ff" points="1187.48,-106.8 1196.78,-101.73 1186.35,-99.89 1187.48,-106.8"/>
</a>
</g>
</g>
<!-- Node3 -->
<g id="Node000003" class="node">
<title>Node3</title>
<g id="a_Node000003"><a xlink:title=" ">
<polygon fill="#e0e0e0" stroke="#999999" points="158.5,-27.12 0,-27.12 0,-6.38 158.5,-6.38 158.5,-27.12"/>
<text xml:space="preserve" text-anchor="middle" x="79.25" y="-13.62" font-family="Helvetica,sans-Serif" font-size="10.00">iot/mqtt/server/SubProtocol.h</text>
</a>
</g>
</g>
<!-- Node2&#45;&gt;Node3 -->
<g id="edge2_Node000002_Node000003" class="edge">
<title>Node2&#45;&gt;Node3</title>
<g id="a_edge2_Node000002_Node000003"><a xlink:title=" ">
<path fill="none" stroke="#63b8ff" d="M292.9,-75.43C249.02,-63.59 175.11,-43.63 126.75,-30.58"/>
<polygon fill="#63b8ff" stroke="#63b8ff" points="127.67,-27.2 117.11,-27.97 125.85,-33.96 127.67,-27.2"/>
</a>
</g>
</g>
<!-- Node4 -->
<g id="Node000004" class="node">
<title>Node4</title>
<g id="a_Node000004"><a xlink:title=" ">
<polygon fill="#e0e0e0" stroke="#999999" points="328.12,-33.5 176.38,-33.5 176.38,0 328.12,0 328.12,-33.5"/>
<text xml:space="preserve" text-anchor="start" x="184.38" y="-20" font-family="Helvetica,sans-Serif" font-size="10.00">web/websocket/SubProtocol</text>
<text xml:space="preserve" text-anchor="middle" x="252.25" y="-7.25" font-family="Helvetica,sans-Serif" font-size="10.00">Factory.h</text>
</a>
</g>
</g>
<!-- Node2&#45;&gt;Node4 -->
<g id="edge3_Node000002_Node000004" class="edge">
<title>Node2&#45;&gt;Node4</title>
<g id="a_edge3_Node000002_Node000004"><a xlink:title=" ">
<path fill="none" stroke="#63b8ff" d="M318.22,-75.58C308.05,-66.67 292.56,-53.08 279.14,-41.32"/>
<polygon fill="#63b8ff" stroke="#63b8ff" points="281.66,-38.88 271.83,-34.92 277.05,-44.14 281.66,-38.88"/>
</a>
</g>
</g>
<!-- Node5 -->
<g id="Node000005" class="node">
<title>Node5</title>
<g id="a_Node000005"><a xlink:title=" ">
<polygon fill="#e0e0e0" stroke="#999999" points="470.62,-33.5 345.88,-33.5 345.88,0 470.62,0 470.62,-33.5"/>
<text xml:space="preserve" text-anchor="start" x="353.88" y="-20" font-family="Helvetica,sans-Serif" font-size="10.00">web/websocket/server</text>
<text xml:space="preserve" text-anchor="middle" x="408.25" y="-7.25" font-family="Helvetica,sans-Serif" font-size="10.00">/SubProtocol.h</text>
</a>
</g>
</g>
<!-- Node2&#45;&gt;Node5 -->
<g id="edge4_Node000002_Node000005" class="edge">
<title>Node2&#45;&gt;Node5</title>
<g id="a_edge4_Node000002_Node000005"><a xlink:title=" ">
<path fill="none" stroke="#63b8ff" d="M340.57,-75.58C351,-66.67 366.9,-53.08 380.67,-41.32"/>
<polygon fill="#63b8ff" stroke="#63b8ff" points="382.85,-44.06 388.18,-34.9 378.3,-38.74 382.85,-44.06"/>
</a>
</g>
</g>
<!-- Node7 -->
<g id="Node000007" class="node">
<title>Node7</title>
<g id="a_Node000007"><a xlink:title=" ">
<polygon fill="#e0e0e0" stroke="#999999" points="605.88,-27.12 488.62,-27.12 488.62,-6.38 605.88,-6.38 605.88,-27.12"/>
<text xml:space="preserve" text-anchor="middle" x="547.25" y="-13.62" font-family="Helvetica,sans-Serif" font-size="10.00">utils/SubCommand.h</text>
</a>
</g>
</g>
<!-- Node6&#45;&gt;Node7 -->
<g id="edge6_Node000006_Node000007" class="edge">
<title>Node6&#45;&gt;Node7</title>
<g id="a_edge6_Node000006_Node000007"><a xlink:title=" ">
<path fill="none" stroke="#63b8ff" d="M513.84,-75.58C519.63,-65.55 528.84,-49.62 536.12,-37.01"/>
<polygon fill="#63b8ff" stroke="#63b8ff" points="538.94,-39.12 540.92,-28.71 532.88,-35.62 538.94,-39.12"/>
</a>
</g>
</g>
</g>
</svg>

<g id="navigator" transform="translate(0 0)" fill="#404254">
  <rect fill="#f2f5e9" fill-opacity="0.5" stroke="#606060" stroke-width=".5" x="0" y="0" width="60" height="60"/>
  <use id="zoomplus" xlink:href="#zoomPlus" x="17" y="9" onmousedown="handleZoom(evt,'in')"/>
  <use id="zoomminus" xlink:href="#zoomMin" x="42" y="9" onmousedown="handleZoom(evt,'out')"/>
  <use id="reset" xlink:href="#resetDef" x="30" y="36" onmousedown="handleReset()"/>
   <use id="arrowup" xlink:href="#arrowUp" x="0" y="0" onmousedown="handlePan(0,-1)"/>
  <use id="arrowright" xlink:href="#arrowRight" x="0" y="0" onmousedown="handlePan(1,0)"/>
  <use id="arrowdown" xlink:href="#arrowDown" x="0" y="0" onmousedown="handlePan(0,1)"/>
  <use id="arrowleft" xlink:href="#arrowLeft" x="0" y="0" onmousedown="handlePan(-1,0)"/>
</g>
<svg viewBox="0 0 15 15" width="100%" height="30px" preserveAspectRatio="xMaxYMin meet">
 <g id="arrow_out" transform="scale(0.3 0.3)">
  <a xlink:href="mqttbroker_2websocket_2SubProtocolFactory_8cpp__incl_org.svg" target="_base">
   <rect id="button" ry="5" rx="5" y="6" x="6" height="38" width="38"
        fill="#f2f5e9" fill-opacity="0.5" stroke="#606060" stroke-width="1.0"/>
   <path id="arrow"
     d="M 11.500037,31.436501 C 11.940474,20.09759 22.043105,11.32322 32.158766,21.979434 L 37.068811,17.246167 C 37.068811,17.246167 37.088388,32 37.088388,32 L 22.160133,31.978069 C 22.160133,31.978069 26.997745,27.140456 26.997745,27.140456 C 18.528582,18.264221 13.291696,25.230495 11.500037,31.436501 z"
     style="fill:#404040;"/>
  </a>
 </g>
</svg>

<style type='text/css'>
<![CDATA[
[data-mouse-over-selected='false'] { opacity: 0.7; }
[data-mouse-over-selected='true']  { opacity: 1.0; }
]]>
</style>
<script type="application/ecmascript"><![CDATA[
document.addEventListener('DOMContentLoaded', (event) => {
  highlightEdges();
  highlightAdjacentNodes();
});
]]></script>
</svg>
