<?xml version="1.0" encoding="UTF-8" standalone="no"?>
<!DOCTYPE svg PUBLIC "-//W3C//DTD SVG 1.1//EN"
 "http://www.w3.org/Graphics/SVG/1.1/DTD/svg11.dtd">
<!-- Generated by graphviz version 14.1.2 (0)
 -->
<!-- Title: mqttintegrator/SocketContextFactory.cpp Pages: 1 -->
<svg width="751pt" height="181pt"
 viewBox="0.00 0.00 751.00 181.00" xmlns="http://www.w3.org/2000/svg" xmlns:xlink="http://www.w3.org/1999/xlink">
<g id="graph0" class="graph" transform="scale(1 1) rotate(0) translate(4 176.5)">
<title>mqttintegrator/SocketContextFactory.cpp</title>
<!-- Node1 -->
<g id="Node000001" class="node">
<title>Node1</title>
<g id="a_Node000001"><a xlink:title=" ">
<polygon fill="#999999" stroke="#666666" points="457.88,-172.5 297.12,-172.5 297.12,-139 457.88,-139 457.88,-172.5"/>
<text xml:space="preserve" text-anchor="start" x="305.12" y="-159" font-family="Helvetica,sans-Serif" font-size="10.00">mqttintegrator/SocketContext</text>
<text xml:space="preserve" text-anchor="middle" x="377.5" y="-146.25" font-family="Helvetica,sans-Serif" font-size="10.00">Factory.cpp</text>
</a>
</g>
</g>
<!-- Node2 -->
<g id="Node000002" class="node">
<title>Node2</title>
<g id="a_Node000002"><a xlink:href="mqttintegrator_2SocketContextFactory_8h.html" target="_top" xlink:title=" ">
<polygon fill="white" stroke="#666666" points="131.5,-96.62 1.5,-96.62 1.5,-75.88 131.5,-75.88 131.5,-96.62"/>
<text xml:space="preserve" text-anchor="middle" x="66.5" y="-83.12" font-family="Helvetica,sans-Serif" font-size="10.00">SocketContextFactory.h</text>
</a>
</g>
</g>
<!-- Node1&#45;&gt;Node2 -->
<g id="edge1_Node000001_Node000002" class="edge">
<title>Node1&#45;&gt;Node2</title>
<g id="a_edge1_Node000001_Node000002"><a xlink:title=" ">
<path fill="none" stroke="#63b8ff" d="M303.01,-138.58C247.71,-126.58 173.45,-110.46 122.99,-99.51"/>
<polygon fill="#63b8ff" stroke="#63b8ff" points="123.97,-96.14 113.45,-97.44 122.48,-102.98 123.97,-96.14"/>
</a>
</g>
</g>
<!-- Node4 -->
<g id="Node000004" class="node">
<title>Node4</title>
<g id="a_Node000004"><a xlink:href="ConfigApplication_8h.html" target="_top" xlink:title=" ">
<polygon fill="white" stroke="#666666" points="275.62,-96.62 149.38,-96.62 149.38,-75.88 275.62,-75.88 275.62,-96.62"/>
<text xml:space="preserve" text-anchor="middle" x="212.5" y="-83.12" font-family="Helvetica,sans-Serif" font-size="10.00">lib/ConfigApplication.h</text>
</a>
</g>
</g>
<!-- Node1&#45;&gt;Node4 -->
<g id="edge3_Node000001_Node000004" class="edge">
<title>Node1&#45;&gt;Node4</title>
<g id="a_edge3_Node000001_Node000004"><a xlink:title=" ">
<path fill="none" stroke="#63b8ff" d="M337.98,-138.58C310.16,-127.2 273.29,-112.12 246.73,-101.25"/>
<polygon fill="#63b8ff" stroke="#63b8ff" points="248.37,-98.14 237.79,-97.59 245.72,-104.62 248.37,-98.14"/>
</a>
</g>
</g>
<!-- Node6 -->
<g id="Node000006" class="node">
<title>Node6</title>
<g id="a_Node000006"><a xlink:href="mqttintegrator_2lib_2Mqtt_8h.html" target="_top" xlink:title=" ">
<polygon fill="white" stroke="#666666" points="355.75,-96.62 293.25,-96.62 293.25,-75.88 355.75,-75.88 355.75,-96.62"/>
<text xml:space="preserve" text-anchor="middle" x="324.5" y="-83.12" font-family="Helvetica,sans-Serif" font-size="10.00">lib/Mqtt.h</text>
</a>
</g>
</g>
<!-- Node1&#45;&gt;Node6 -->
<g id="edge5_Node000001_Node000006" class="edge">
<title>Node1&#45;&gt;Node6</title>
<g id="a_edge5_Node000001_Node000006"><a xlink:title=" ">
<path fill="none" stroke="#63b8ff" d="M364.94,-138.75C357.24,-128.94 347.34,-116.34 339.27,-106.05"/>
<polygon fill="#63b8ff" stroke="#63b8ff" points="342.08,-103.97 333.15,-98.26 336.57,-108.29 342.08,-103.97"/>
</a>
</g>
</g>
<!-- Node8 -->
<g id="Node000008" class="node">
<title>Node8</title>
<g id="a_Node000008"><a xlink:title=" ">
<polygon fill="#e0e0e0" stroke="#999999" points="489,-103 374,-103 374,-69.5 489,-69.5 489,-103"/>
<text xml:space="preserve" text-anchor="start" x="382" y="-89.5" font-family="Helvetica,sans-Serif" font-size="10.00">core/socket/stream</text>
<text xml:space="preserve" text-anchor="middle" x="431.5" y="-76.75" font-family="Helvetica,sans-Serif" font-size="10.00">/SocketConnection.h</text>
</a>
</g>
</g>
<!-- Node1&#45;&gt;Node8 -->
<g id="edge7_Node000001_Node000008" class="edge">
<title>Node1&#45;&gt;Node8</title>
<g id="a_edge7_Node000001_Node000008"><a xlink:title=" ">
<path fill="none" stroke="#63b8ff" d="M390.3,-138.75C396.69,-130.77 404.56,-120.93 411.7,-112"/>
<polygon fill="#63b8ff" stroke="#63b8ff" points="414.34,-114.31 417.85,-104.31 408.87,-109.94 414.34,-114.31"/>
</a>
</g>
</g>
<!-- Node9 -->
<g id="Node000009" class="node">
<title>Node9</title>
<g id="a_Node000009"><a xlink:title=" ">
<polygon fill="#e0e0e0" stroke="#999999" points="644.25,-96.62 506.75,-96.62 506.75,-75.88 644.25,-75.88 644.25,-96.62"/>
<text xml:space="preserve" text-anchor="middle" x="575.5" y="-83.12" font-family="Helvetica,sans-Serif" font-size="10.00">iot/mqtt/SocketContext.h</text>
</a>
</g>
</g>
<!-- Node1&#45;&gt;Node9 -->
<g id="edge8_Node000001_Node000009" class="edge">
<title>Node1&#45;&gt;Node9</title>
<g id="a_edge8_Node000001_Node000009"><a xlink:title=" ">
<path fill="none" stroke="#63b8ff" d="M424.93,-138.58C458.8,-127.03 503.85,-111.68 535.83,-100.78"/>
<polygon fill="#63b8ff" stroke="#63b8ff" points="536.78,-104.15 545.12,-97.61 534.52,-97.52 536.78,-104.15"/>
</a>
</g>
</g>
<!-- Node10 -->
<g id="Node000010" class="node">
<title>Node10</title>
<g id="a_Node000010"><a xlink:title=" ">
<polygon fill="#e0e0e0" stroke="#999999" points="742.75,-96.62 662.25,-96.62 662.25,-75.88 742.75,-75.88 742.75,-96.62"/>
<text xml:space="preserve" text-anchor="middle" x="702.5" y="-83.12" font-family="Helvetica,sans-Serif" font-size="10.00">utils/Config.h</text>
</a>
</g>
</g>
<!-- Node1&#45;&gt;Node10 -->
<g id="edge9_Node000001_Node000010" class="edge">
<title>Node1&#45;&gt;Node10</title>
<g id="a_edge9_Node000001_Node000010"><a xlink:title=" ">
<path fill="none" stroke="#63b8ff" d="M458.09,-142.38C513.45,-133.22 588.4,-119.5 653.5,-103 656.63,-102.21 659.85,-101.33 663.07,-100.4"/>
<polygon fill="#63b8ff" stroke="#63b8ff" points="663.91,-103.8 672.47,-97.54 661.88,-97.1 663.91,-103.8"/>
</a>
</g>
</g>
<!-- Node3 -->
<g id="Node000003" class="node">
<title>Node3</title>
<g id="a_Node000003"><a xlink:title=" ">
<polygon fill="#e0e0e0" stroke="#999999" points="133,-33.5 0,-33.5 0,0 133,0 133,-33.5"/>
<text xml:space="preserve" text-anchor="start" x="8" y="-20" font-family="Helvetica,sans-Serif" font-size="10.00">core/socket/stream</text>
<text xml:space="preserve" text-anchor="middle" x="66.5" y="-7.25" font-family="Helvetica,sans-Serif" font-size="10.00">/SocketContextFactory.h</text>
</a>
</g>
</g>
<!-- Node2&#45;&gt;Node3 -->
<g id="edge2_Node000002_Node000003" class="edge">
<title>Node2&#45;&gt;Node3</title>
<g id="a_edge2_Node000002_Node000003"><a xlink:title=" ">
<path fill="none" stroke="#63b8ff" d="M66.5,-75.58C66.5,-67.69 66.5,-56.13 66.5,-45.41"/>
<polygon fill="#63b8ff" stroke="#63b8ff" points="70,-45.43 66.5,-35.43 63,-45.43 70,-45.43"/>
</a>
</g>
</g>
<!-- Node5 -->
<g id="Node000005" class="node">
<title>Node5</title>
<g id="a_Node000005"><a xlink:title=" ">
<polygon fill="#e0e0e0" stroke="#999999" points="269.12,-27.12 151.88,-27.12 151.88,-6.38 269.12,-6.38 269.12,-27.12"/>
<text xml:space="preserve" text-anchor="middle" x="210.5" y="-13.62" font-family="Helvetica,sans-Serif" font-size="10.00">utils/SubCommand.h</text>
</a>
</g>
</g>
<!-- Node4&#45;&gt;Node5 -->
<g id="edge4_Node000004_Node000005" class="edge">
<title>Node4&#45;&gt;Node5</title>
<g id="a_edge4_Node000004_Node000005"><a xlink:title=" ">
<path fill="none" stroke="#63b8ff" d="M212.21,-75.58C211.93,-65.96 211.48,-50.88 211.12,-38.54"/>
<polygon fill="#63b8ff" stroke="#63b8ff" points="214.63,-38.81 210.83,-28.92 207.63,-39.02 214.63,-38.81"/>
</a>
</g>
</g>
<!-- Node7 -->
<g id="Node000007" class="node">
<title>Node7</title>
<g id="a_Node000007"><a xlink:title=" ">
<polygon fill="#e0e0e0" stroke="#999999" points="406.25,-27.12 286.75,-27.12 286.75,-6.38 406.25,-6.38 406.25,-27.12"/>
<text xml:space="preserve" text-anchor="middle" x="346.5" y="-13.62" font-family="Helvetica,sans-Serif" font-size="10.00">iot/mqtt/client/Mqtt.h</text>
</a>
</g>
</g>
<!-- Node6&#45;&gt;Node7 -->
<g id="edge6_Node000006_Node000007" class="edge">
<title>Node6&#45;&gt;Node7</title>
<g id="a_edge6_Node000006_Node000007"><a xlink:title=" ">
<path fill="none" stroke="#63b8ff" d="M327.65,-75.58C330.82,-65.85 335.8,-50.57 339.85,-38.15"/>
<polygon fill="#63b8ff" stroke="#63b8ff" points="343.11,-39.43 342.88,-28.84 336.46,-37.27 343.11,-39.43"/>
</a>
</g>
</g>
</g>
</svg>
