<?xml version="1.0" encoding="UTF-8" standalone="no"?>
<!DOCTYPE svg PUBLIC "-//W3C//DTD SVG 1.1//EN"
 "http://www.w3.org/Graphics/SVG/1.1/DTD/svg11.dtd">
<!-- Generated by graphviz version 2.42.4 (0)
 -->
<!-- Title: anonymous_namespace{issue&#45;105&#45;verbose&#45;combination&#45;errors::cpp}::simpleTest Pages: 1 -->
<!--zoomable 609 -->

<svg id="main" version="1.1" xmlns="http://www.w3.org/2000/svg" xmlns:xlink="http://www.w3.org/1999/xlink" xml:space="preserve" onload="init(evt)">
<style type="text/css"><![CDATA[
.node, .edge {opacity: 0.7;}
.node.selected, .edge.selected {opacity: 1;}
.edge:hover path { stroke: red; }
.edge:hover polygon { stroke: red; fill: red; }
]]></style>

<defs>
  <circle id="rim" cx="0" cy="0" r="7"/>
  <circle id="rim2" cx="0" cy="0" r="3.5"/>
  <g id="zoomPlus">
    <use xlink:href="#rim" fill="#404040"><set attributeName="fill" to="#808080" begin="zoomplus.mouseover" end="zoomplus.mouseout"/></use>
    <path d="M-4,0h8M0,-4v8" fill="none" stroke="white" stroke-width="1.5" pointer-events="none"/>
  </g>
  <g id="zoomMin">
    <use xlink:href="#rim" fill="#404040"><set attributeName="fill" to="#808080" begin="zoomminus.mouseover" end="zoomminus.mouseout"/></use>
    <path d="M-4,0h8" fill="none" stroke="white" stroke-width="1.5" pointer-events="none"/>
  </g>
  <g id="arrowUp" transform="translate(30 24)">
    <use xlink:href="#rim"/>
    <path pointer-events="none" fill="none" stroke="white" stroke-width="1.5" d="M0,-3.0v7 M-2.5,-0.5L0,-3.0L2.5,-0.5"/>
  </g>
  <g id="arrowRight" transform="rotate(90) translate(36 -43)">
    <use xlink:href="#rim"/>
    <path pointer-events="none" fill="none" stroke="white" stroke-width="1.5" d="M0,-3.0v7 M-2.5,-0.5L0,-3.0L2.5,-0.5"/>
  </g>
  <g id="arrowDown" transform="rotate(180) translate(-30 -48)">
    <use xlink:href="#rim"/>
    <path pointer-events="none" fill="none" stroke="white" stroke-width="1.5" d="M0,-3.0v7 M-2.5,-0.5L0,-3.0L2.5,-0.5"/>
  </g>
  <g id="arrowLeft" transform="rotate(270) translate(-36 17)">
    <use xlink:href="#rim"/>
    <path pointer-events="none" fill="none" stroke="white" stroke-width="1.5" d="M0,-3.0v7 M-2.5,-0.5L0,-3.0L2.5,-0.5"/>
  </g>
  <g id="resetDef">
    <use xlink:href="#rim2" fill="#404040"><set attributeName="fill" to="#808080" begin="reset.mouseover" end="reset.mouseout"/></use>
  </g>
</defs>
<script type="application/ecmascript">
var viewWidth = 1426;
var viewHeight = 609;
var sectionId = 'dynsection-4';
</script>
<script type="application/ecmascript" xlink:href="svg.min.js"/>
<svg id="graph" class="graph">
<g id="viewport">
<title>anonymous_namespace{issue&#45;105&#45;verbose&#45;combination&#45;errors::cpp}::simpleTest</title>
<!-- Node1 -->
<g id="Node000001" class="node">
<title>Node1</title>
<g id="a_Node000001"><a xlink:title=" ">
<polygon fill="#999999" stroke="#666666" points="177,-360.5 0,-360.5 0,-319.5 177,-319.5 177,-360.5"/>
<text text-anchor="start" x="8" y="-348.5" font-family="Helvetica,sans-Serif" font-size="10.00">anonymous_namespace</text>
<text text-anchor="start" x="8" y="-337.5" font-family="Helvetica,sans-Serif" font-size="10.00">{issue&#45;105&#45;verbose&#45;combination</text>
<text text-anchor="middle" x="88.5" y="-326.5" font-family="Helvetica,sans-Serif" font-size="10.00">&#45;errors::cpp}::simpleTest</text>
</a>
</g>
</g>
<!-- Node2 -->
<g id="Node000002" class="node">
<title>Node2</title>
<g id="a_Node000002"><a xlink:href="namespaceanonymous__namespace_02issue-105-verbose-combination-errors_8cpp_03.html#adfbd7ec30d423e477bb7ebbc5b622e57" target="_top" xlink:title=" ">
<polygon fill="white" stroke="#666666" points="390,-419.5 213,-419.5 213,-378.5 390,-378.5 390,-419.5"/>
<text text-anchor="start" x="221" y="-407.5" font-family="Helvetica,sans-Serif" font-size="10.00">anonymous_namespace</text>
<text text-anchor="start" x="221" y="-396.5" font-family="Helvetica,sans-Serif" font-size="10.00">{issue&#45;105&#45;verbose&#45;combination</text>
<text text-anchor="middle" x="301.5" y="-385.5" font-family="Helvetica,sans-Serif" font-size="10.00">&#45;errors::cpp}::generateSchema</text>
</a>
</g>
</g>
<!-- Node1&#45;&gt;Node2 -->
<g id="edge1_Node000001_Node000002" class="edge">
<title>Node1&#45;&gt;Node2</title>
<g id="a_edge1_Node000001_Node000002"><a xlink:title=" ">
<path fill="none" stroke="#63b8ff" d="M163,-360.55C180.46,-365.43 199.22,-370.68 217.08,-375.67"/>
<polygon fill="#63b8ff" stroke="#63b8ff" points="216.33,-379.1 226.9,-378.42 218.22,-372.36 216.33,-379.1"/>
</a>
</g>
</g>
<!-- Node3 -->
<g id="Node000003" class="node">
<title>Node3</title>
<g id="a_Node000003"><a xlink:href="namespaceanonymous__namespace_02issue-105-verbose-combination-errors_8cpp_03.html#aac01a47f2fba02b0abf2b01abd983dc6" target="_top" xlink:title=" ">
<polygon fill="white" stroke="#666666" points="390,-360.5 213,-360.5 213,-319.5 390,-319.5 390,-360.5"/>
<text text-anchor="start" x="221" y="-348.5" font-family="Helvetica,sans-Serif" font-size="10.00">anonymous_namespace</text>
<text text-anchor="start" x="221" y="-337.5" font-family="Helvetica,sans-Serif" font-size="10.00">{issue&#45;105&#45;verbose&#45;combination</text>
<text text-anchor="middle" x="301.5" y="-326.5" font-family="Helvetica,sans-Serif" font-size="10.00">&#45;errors::cpp}::rootError</text>
</a>
</g>
</g>
<!-- Node1&#45;&gt;Node3 -->
<g id="edge2_Node000001_Node000003" class="edge">
<title>Node1&#45;&gt;Node3</title>
<g id="a_edge2_Node000001_Node000003"><a xlink:title=" ">
<path fill="none" stroke="#63b8ff" d="M177.15,-340C185.52,-340 194.05,-340 202.51,-340"/>
<polygon fill="#63b8ff" stroke="#63b8ff" points="202.78,-343.5 212.78,-340 202.78,-336.5 202.78,-343.5"/>
</a>
</g>
</g>
<!-- Node4 -->
<g id="Node000004" class="node">
<title>Node4</title>
<g id="a_Node000004"><a xlink:href="namespaceanonymous__namespace_02issue-105-verbose-combination-errors_8cpp_03.html#a5d2fa2fa048e5520dbcbad50438526ad" target="_top" xlink:title=" ">
<polygon fill="white" stroke="#666666" points="390,-301.5 213,-301.5 213,-260.5 390,-260.5 390,-301.5"/>
<text text-anchor="start" x="221" y="-289.5" font-family="Helvetica,sans-Serif" font-size="10.00">anonymous_namespace</text>
<text text-anchor="start" x="221" y="-278.5" font-family="Helvetica,sans-Serif" font-size="10.00">{issue&#45;105&#45;verbose&#45;combination</text>
<text text-anchor="middle" x="301.5" y="-267.5" font-family="Helvetica,sans-Serif" font-size="10.00">&#45;errors::cpp}::validate</text>
</a>
</g>
</g>
<!-- Node1&#45;&gt;Node4 -->
<g id="edge3_Node000001_Node000004" class="edge">
<title>Node1&#45;&gt;Node4</title>
<g id="a_edge3_Node000001_Node000004"><a xlink:title=" ">
<path fill="none" stroke="#63b8ff" d="M163,-319.45C180.46,-314.57 199.22,-309.32 217.08,-304.33"/>
<polygon fill="#63b8ff" stroke="#63b8ff" points="218.22,-307.64 226.9,-301.58 216.33,-300.9 218.22,-307.64"/>
</a>
</g>
</g>
<!-- Node5 -->
<g id="Node000005" class="node">
<title>Node5</title>
<g id="a_Node000005"><a xlink:href="classnlohmann_1_1json__schema_1_1json__validator.html#a13e1d3029c8953bb9c7d1879382edb03" target="_top" xlink:title=" ">
<polygon fill="white" stroke="#666666" points="562,-358.5 427,-358.5 427,-317.5 562,-317.5 562,-358.5"/>
<text text-anchor="start" x="435" y="-346.5" font-family="Helvetica,sans-Serif" font-size="10.00">nlohmann::json_schema</text>
<text text-anchor="start" x="435" y="-335.5" font-family="Helvetica,sans-Serif" font-size="10.00">::json_validator::set</text>
<text text-anchor="middle" x="494.5" y="-324.5" font-family="Helvetica,sans-Serif" font-size="10.00">_root_schema</text>
</a>
</g>
</g>
<!-- Node4&#45;&gt;Node5 -->
<g id="edge4_Node000004_Node000005" class="edge">
<title>Node4&#45;&gt;Node5</title>
<g id="a_edge4_Node000004_Node000005"><a xlink:title=" ">
<path fill="none" stroke="#63b8ff" d="M371.46,-301.58C386.27,-306 402.01,-310.7 417.09,-315.2"/>
<polygon fill="#63b8ff" stroke="#63b8ff" points="416.3,-318.61 426.88,-318.12 418.3,-311.91 416.3,-318.61"/>
</a>
</g>
</g>
<!-- Node21 -->
<g id="Node000021" class="node">
<title>Node21</title>
<g id="a_Node000021"><a xlink:href="classnlohmann_1_1json__schema_1_1json__validator.html#affff379ae30b7ab48c81d5b65e34f613" target="_top" xlink:title=" ">
<polygon fill="white" stroke="#666666" points="563,-253 426,-253 426,-223 563,-223 563,-253"/>
<text text-anchor="start" x="434" y="-241" font-family="Helvetica,sans-Serif" font-size="10.00">nlohmann::json_schema</text>
<text text-anchor="middle" x="494.5" y="-230" font-family="Helvetica,sans-Serif" font-size="10.00">::json_validator::validate</text>
</a>
</g>
</g>
<!-- Node4&#45;&gt;Node21 -->
<g id="edge34_Node000004_Node000021" class="edge">
<title>Node4&#45;&gt;Node21</title>
<g id="a_edge34_Node000004_Node000021"><a xlink:title=" ">
<path fill="none" stroke="#63b8ff" d="M390.17,-261.26C399.08,-259.26 408.08,-257.23 416.85,-255.26"/>
<polygon fill="#63b8ff" stroke="#63b8ff" points="417.67,-258.66 426.65,-253.05 416.13,-251.83 417.67,-258.66"/>
</a>
</g>
</g>
<!-- Node22 -->
<g id="Node000022" class="node">
<title>Node22</title>
<g id="a_Node000022"><a xlink:href="classnlohmann_1_1json__schema_1_1json__validator.html#ae330a21f43f257fec1d8109f51827706" target="_top" xlink:title=" ">
<polygon fill="white" stroke="#666666" points="736,-253 599,-253 599,-223 736,-223 736,-253"/>
<text text-anchor="start" x="607" y="-241" font-family="Helvetica,sans-Serif" font-size="10.00">nlohmann::json_schema</text>
<text text-anchor="middle" x="667.5" y="-230" font-family="Helvetica,sans-Serif" font-size="10.00">::json_validator::validate</text>
</a>
</g>
</g>
<!-- Node4&#45;&gt;Node22 -->
<g id="edge42_Node000004_Node000022" class="edge">
<title>Node4&#45;&gt;Node22</title>
<g id="a_edge42_Node000004_Node000022"><a xlink:title=" ">
<path fill="none" stroke="#63b8ff" d="M390.01,-278C440.74,-275.42 505.72,-270.68 563,-262 574.68,-260.23 587,-257.84 598.9,-255.26"/>
<polygon fill="#63b8ff" stroke="#63b8ff" points="599.79,-258.65 608.78,-253.05 598.26,-251.82 599.79,-258.65"/>
</a>
</g>
</g>
<!-- Node6 -->
<g id="Node000006" class="node">
<title>Node6</title>
<g id="a_Node000006"><a xlink:href="classnlohmann_1_1json__schema_1_1root__schema.html#aa92bf9509db49548416a244fb4528e3c" target="_top" xlink:title=" ">
<polygon fill="white" stroke="#666666" points="735,-377.5 600,-377.5 600,-336.5 735,-336.5 735,-377.5"/>
<text text-anchor="start" x="608" y="-365.5" font-family="Helvetica,sans-Serif" font-size="10.00">nlohmann::json_schema</text>
<text text-anchor="start" x="608" y="-354.5" font-family="Helvetica,sans-Serif" font-size="10.00">::root_schema::set_root</text>
<text text-anchor="middle" x="667.5" y="-343.5" font-family="Helvetica,sans-Serif" font-size="10.00">_schema</text>
</a>
</g>
</g>
<!-- Node5&#45;&gt;Node6 -->
<g id="edge5_Node000005_Node000006" class="edge">
<title>Node5&#45;&gt;Node6</title>
<g id="a_edge5_Node000005_Node000006"><a xlink:title=" ">
<path fill="none" stroke="#63b8ff" d="M562.1,-345.4C571.19,-346.41 580.58,-347.45 589.83,-348.48"/>
<polygon fill="#63b8ff" stroke="#63b8ff" points="589.47,-351.96 599.8,-349.59 590.25,-345.01 589.47,-351.96"/>
</a>
</g>
</g>
<!-- Node7 -->
<g id="Node000007" class="node">
<title>Node7</title>
<g id="a_Node000007"><a xlink:href="classanonymous__namespace_02json-validator_8cpp_03_1_1schema.html#aafee860997369c77204d5b1a7d095c3f" target="_top" xlink:title=" ">
<polygon fill="white" stroke="#666666" points="907,-386.5 772,-386.5 772,-345.5 907,-345.5 907,-386.5"/>
<text text-anchor="start" x="780" y="-374.5" font-family="Helvetica,sans-Serif" font-size="10.00">anonymous_namespace</text>
<text text-anchor="start" x="780" y="-363.5" font-family="Helvetica,sans-Serif" font-size="10.00">{json&#45;validator::cpp}</text>
<text text-anchor="middle" x="839.5" y="-352.5" font-family="Helvetica,sans-Serif" font-size="10.00">::schema::make</text>
</a>
</g>
</g>
<!-- Node6&#45;&gt;Node7 -->
<g id="edge6_Node000006_Node000007" class="edge">
<title>Node6&#45;&gt;Node7</title>
<g id="a_edge6_Node000006_Node000007"><a xlink:title=" ">
<path fill="none" stroke="#63b8ff" d="M735.2,-360.53C743.99,-361 753.05,-361.48 761.98,-361.95"/>
<polygon fill="#63b8ff" stroke="#63b8ff" points="761.82,-365.45 771.99,-362.48 762.19,-358.46 761.82,-365.45"/>
</a>
</g>
</g>
<!-- Node7&#45;&gt;Node7 -->
<g id="edge31_Node000007_Node000007" class="edge">
<title>Node7&#45;&gt;Node7</title>
<g id="a_edge31_Node000007_Node000007"><a xlink:title=" ">
<path fill="none" stroke="#63b8ff" d="M807.89,-386.6C804.44,-396.15 814.98,-404.5 839.5,-404.5 854.83,-404.5 864.69,-401.24 869.09,-396.46"/>
<polygon fill="#63b8ff" stroke="#63b8ff" points="872.53,-397.1 871.11,-386.6 865.68,-395.69 872.53,-397.1"/>
</a>
</g>
</g>
<!-- Node8 -->
<g id="Node000008" class="node">
<title>Node8</title>
<g id="a_Node000008"><a xlink:href="classnlohmann_1_1json__uri.html#acef9db8f1ac5317e1f124453d9587938" target="_top" xlink:title=" ">
<polygon fill="white" stroke="#666666" points="1259.5,-553 1149.5,-553 1149.5,-523 1259.5,-523 1259.5,-553"/>
<text text-anchor="start" x="1157.5" y="-541" font-family="Helvetica,sans-Serif" font-size="10.00">nlohmann::json_uri</text>
<text text-anchor="middle" x="1204.5" y="-530" font-family="Helvetica,sans-Serif" font-size="10.00">::append</text>
</a>
</g>
</g>
<!-- Node7&#45;&gt;Node8 -->
<g id="edge7_Node000007_Node000008" class="edge">
<title>Node7&#45;&gt;Node8</title>
<g id="a_edge7_Node000007_Node000008"><a xlink:title=" ">
<path fill="none" stroke="#63b8ff" d="M851.64,-386.79C867.82,-414.82 900.57,-464.09 943,-489 1003.33,-524.43 1083.88,-535.06 1139.36,-537.85"/>
<polygon fill="#63b8ff" stroke="#63b8ff" points="1139.27,-541.35 1149.41,-538.28 1139.57,-534.36 1139.27,-541.35"/>
</a>
</g>
</g>
<!-- Node9 -->
<g id="Node000009" class="node">
<title>Node9</title>
<g id="a_Node000009"><a xlink:href="classnlohmann_1_1json__uri.html#ab601a9e32d487e9484f12c57ec1befc1" target="_top" xlink:title=" ">
<polygon fill="white" stroke="#666666" points="1077,-595 967,-595 967,-565 1077,-565 1077,-595"/>
<text text-anchor="start" x="975" y="-583" font-family="Helvetica,sans-Serif" font-size="10.00">nlohmann::json_uri</text>
<text text-anchor="middle" x="1022" y="-572" font-family="Helvetica,sans-Serif" font-size="10.00">::derive</text>
</a>
</g>
</g>
<!-- Node7&#45;&gt;Node9 -->
<g id="edge8_Node000007_Node000009" class="edge">
<title>Node7&#45;&gt;Node9</title>
<g id="a_edge8_Node000007_Node000009"><a xlink:title=" ">
<path fill="none" stroke="#63b8ff" d="M848.2,-386.74C862.25,-422.14 895.05,-494.78 943,-540 951.48,-548 961.86,-554.79 972.25,-560.38"/>
<polygon fill="#63b8ff" stroke="#63b8ff" points="970.84,-563.58 981.34,-564.98 974,-557.34 970.84,-563.58"/>
</a>
</g>
</g>
<!-- Node11 -->
<g id="Node000011" class="node">
<title>Node11</title>
<g id="a_Node000011"><a xlink:href="classnlohmann_1_1json__schema_1_1root__schema.html#a7e890c03f941280b76fbdb4d5bb73065" target="_top" xlink:title=" ">
<polygon fill="white" stroke="#666666" points="1089.5,-386.5 954.5,-386.5 954.5,-345.5 1089.5,-345.5 1089.5,-386.5"/>
<text text-anchor="start" x="962.5" y="-374.5" font-family="Helvetica,sans-Serif" font-size="10.00">nlohmann::json_schema</text>
<text text-anchor="start" x="962.5" y="-363.5" font-family="Helvetica,sans-Serif" font-size="10.00">::root_schema::get_or</text>
<text text-anchor="middle" x="1022" y="-352.5" font-family="Helvetica,sans-Serif" font-size="10.00">_create_ref</text>
</a>
</g>
</g>
<!-- Node7&#45;&gt;Node11 -->
<g id="edge10_Node000007_Node000011" class="edge">
<title>Node7&#45;&gt;Node11</title>
<g id="a_edge10_Node000007_Node000011"><a xlink:title=" ">
<path fill="none" stroke="#63b8ff" d="M907.2,-359.46C919.2,-359.24 931.8,-359.19 944.07,-359.32"/>
<polygon fill="#63b8ff" stroke="#63b8ff" points="944.23,-362.82 954.27,-359.46 944.32,-355.82 944.23,-362.82"/>
</a>
</g>
</g>
<!-- Node16 -->
<g id="Node000016" class="node">
<title>Node16</title>
<g id="a_Node000016"><a xlink:href="classnlohmann_1_1json__uri.html#a416eb06b53676b215761f43200da309f" target="_top" xlink:title=" ">
<polygon fill="white" stroke="#666666" points="1259.5,-176 1149.5,-176 1149.5,-146 1259.5,-146 1259.5,-176"/>
<text text-anchor="start" x="1157.5" y="-164" font-family="Helvetica,sans-Serif" font-size="10.00">nlohmann::json_uri</text>
<text text-anchor="middle" x="1204.5" y="-153" font-family="Helvetica,sans-Serif" font-size="10.00">::to_string</text>
</a>
</g>
</g>
<!-- Node7&#45;&gt;Node16 -->
<g id="edge33_Node000007_Node000016" class="edge">
<title>Node7&#45;&gt;Node16</title>
<g id="a_edge33_Node000007_Node000016"><a xlink:title=" ">
<path fill="none" stroke="#63b8ff" d="M849.84,-345.33C864.89,-314.44 897.49,-256.58 943,-226 1002,-186.35 1083.16,-170.87 1139.13,-164.84"/>
<polygon fill="#63b8ff" stroke="#63b8ff" points="1139.68,-168.3 1149.28,-163.82 1138.98,-161.34 1139.68,-168.3"/>
</a>
</g>
</g>
<!-- Node17 -->
<g id="Node000017" class="node">
<title>Node17</title>
<g id="a_Node000017"><a xlink:href="classnlohmann_1_1json__schema_1_1root__schema.html#a685904131f0693e56f14a9e9db5f044e" target="_top" xlink:title=" ">
<polygon fill="white" stroke="#666666" points="1089.5,-265 954.5,-265 954.5,-235 1089.5,-235 1089.5,-265"/>
<text text-anchor="start" x="962.5" y="-253" font-family="Helvetica,sans-Serif" font-size="10.00">nlohmann::json_schema</text>
<text text-anchor="middle" x="1022" y="-242" font-family="Helvetica,sans-Serif" font-size="10.00">::root_schema::insert</text>
</a>
</g>
</g>
<!-- Node7&#45;&gt;Node17 -->
<g id="edge18_Node000007_Node000017" class="edge">
<title>Node7&#45;&gt;Node17</title>
<g id="a_edge18_Node000007_Node000017"><a xlink:title=" ">
<path fill="none" stroke="#63b8ff" d="M859.52,-345.43C878.88,-325.54 910.56,-295.75 943,-277 948.09,-274.06 953.54,-271.37 959.12,-268.92"/>
<polygon fill="#63b8ff" stroke="#63b8ff" points="960.67,-272.07 968.59,-265.04 958.01,-265.6 960.67,-272.07"/>
</a>
</g>
</g>
<!-- Node19 -->
<g id="Node000019" class="node">
<title>Node19</title>
<g id="a_Node000019"><a xlink:href="classnlohmann_1_1json__schema_1_1root__schema.html#a4c543fe7b89e76b3fdd17a6883696238" target="_top" xlink:title=" ">
<polygon fill="white" stroke="#666666" points="1089.5,-461.5 954.5,-461.5 954.5,-420.5 1089.5,-420.5 1089.5,-461.5"/>
<text text-anchor="start" x="962.5" y="-449.5" font-family="Helvetica,sans-Serif" font-size="10.00">nlohmann::json_schema</text>
<text text-anchor="start" x="962.5" y="-438.5" font-family="Helvetica,sans-Serif" font-size="10.00">::root_schema::insert</text>
<text text-anchor="middle" x="1022" y="-427.5" font-family="Helvetica,sans-Serif" font-size="10.00">_unknown_keyword</text>
</a>
</g>
</g>
<!-- Node7&#45;&gt;Node19 -->
<g id="edge24_Node000007_Node000019" class="edge">
<title>Node7&#45;&gt;Node19</title>
<g id="a_edge24_Node000007_Node000019"><a xlink:title=" ">
<path fill="none" stroke="#63b8ff" d="M905.66,-386.56C928.89,-395.76 954.52,-406.6 975.71,-416.24"/>
<polygon fill="#63b8ff" stroke="#63b8ff" points="974.25,-419.42 984.8,-420.43 977.18,-413.06 974.25,-419.42"/>
</a>
</g>
</g>
<!-- Node20 -->
<g id="Node000020" class="node">
<title>Node20</title>
<g id="a_Node000020"><a xlink:href="classanonymous__namespace_02json-validator_8cpp_03_1_1schema.html#a6ba2d224dd0a4372ac03f679de8316bd" target="_top" xlink:title=" ">
<polygon fill="white" stroke="#666666" points="1101,-327.5 943,-327.5 943,-286.5 1101,-286.5 1101,-327.5"/>
<text text-anchor="start" x="951" y="-315.5" font-family="Helvetica,sans-Serif" font-size="10.00">anonymous_namespace</text>
<text text-anchor="start" x="951" y="-304.5" font-family="Helvetica,sans-Serif" font-size="10.00">{json&#45;validator::cpp}</text>
<text text-anchor="middle" x="1022" y="-293.5" font-family="Helvetica,sans-Serif" font-size="10.00">::schema::make_for_default_</text>
</a>
</g>
</g>
<!-- Node7&#45;&gt;Node20 -->
<g id="edge32_Node000007_Node000020" class="edge">
<title>Node7&#45;&gt;Node20</title>
<g id="a_edge32_Node000007_Node000020"><a xlink:title=" ">
<path fill="none" stroke="#63b8ff" d="M903.38,-345.45C917.9,-340.7 933.47,-335.61 948.37,-330.74"/>
<polygon fill="#63b8ff" stroke="#63b8ff" points="949.63,-334.01 958.04,-327.58 947.45,-327.36 949.63,-334.01"/>
</a>
</g>
</g>
<!-- Node10 -->
<g id="Node000010" class="node">
<title>Node10</title>
<g id="a_Node000010"><a xlink:href="classnlohmann_1_1json__uri.html#a6a73807e46532b22e02ae6602cdedcdc" target="_top" xlink:title=" ">
<polygon fill="white" stroke="#666666" points="1259.5,-601 1149.5,-601 1149.5,-571 1259.5,-571 1259.5,-601"/>
<text text-anchor="start" x="1157.5" y="-589" font-family="Helvetica,sans-Serif" font-size="10.00">nlohmann::json_uri</text>
<text text-anchor="middle" x="1204.5" y="-578" font-family="Helvetica,sans-Serif" font-size="10.00">::update</text>
</a>
</g>
</g>
<!-- Node9&#45;&gt;Node10 -->
<g id="edge9_Node000009_Node000010" class="edge">
<title>Node9&#45;&gt;Node10</title>
<g id="a_edge9_Node000009_Node000010"><a xlink:title=" ">
<path fill="none" stroke="#63b8ff" d="M1077.16,-581.8C1096.7,-582.45 1118.95,-583.19 1139.27,-583.86"/>
<polygon fill="#63b8ff" stroke="#63b8ff" points="1139.27,-587.37 1149.38,-584.2 1139.5,-580.37 1139.27,-587.37"/>
</a>
</g>
</g>
<!-- Node11&#45;&gt;Node7 -->
<g id="edge14_Node000011_Node000007" class="edge">
<title>Node11&#45;&gt;Node7</title>
<g id="a_edge14_Node000011_Node000007"><a xlink:title=" ">
<path fill="none" stroke="#63b8ff" d="M954.27,-372.54C942.27,-372.76 929.67,-372.81 917.4,-372.68"/>
<polygon fill="#63b8ff" stroke="#63b8ff" points="917.25,-369.18 907.2,-372.54 917.15,-376.18 917.25,-369.18"/>
</a>
</g>
</g>
<!-- Node12 -->
<g id="Node000012" class="node">
<title>Node12</title>
<g id="a_Node000012"><a xlink:href="classnlohmann_1_1json__uri.html#a21ba5d6a76804eabd867a2d03370c945" target="_top" xlink:title=" ">
<polygon fill="white" stroke="#666666" points="1259.5,-262 1149.5,-262 1149.5,-232 1259.5,-232 1259.5,-262"/>
<text text-anchor="start" x="1157.5" y="-250" font-family="Helvetica,sans-Serif" font-size="10.00">nlohmann::json_uri</text>
<text text-anchor="middle" x="1204.5" y="-239" font-family="Helvetica,sans-Serif" font-size="10.00">::fragment</text>
</a>
</g>
</g>
<!-- Node11&#45;&gt;Node12 -->
<g id="edge11_Node000011_Node000012" class="edge">
<title>Node11&#45;&gt;Node12</title>
<g id="a_edge11_Node000011_Node000012"><a xlink:title=" ">
<path fill="none" stroke="#63b8ff" d="M1089.24,-345.43C1093.42,-342.92 1097.4,-340.12 1101,-337 1126.26,-315.13 1111.64,-292.75 1137,-271 1138.5,-269.71 1140.08,-268.49 1141.72,-267.33"/>
<polygon fill="#63b8ff" stroke="#63b8ff" points="1143.62,-270.27 1150.32,-262.06 1139.96,-264.3 1143.62,-270.27"/>
</a>
</g>
</g>
<!-- Node13 -->
<g id="Node000013" class="node">
<title>Node13</title>
<g id="a_Node000013"><a xlink:href="classnlohmann_1_1json__schema_1_1root__schema.html#a4e3471b8e7c245a72c469b7695d2d327" target="_top" xlink:title=" ">
<polygon fill="white" stroke="#666666" points="1272,-380.5 1137,-380.5 1137,-339.5 1272,-339.5 1272,-380.5"/>
<text text-anchor="start" x="1145" y="-368.5" font-family="Helvetica,sans-Serif" font-size="10.00">nlohmann::json_schema</text>
<text text-anchor="start" x="1145" y="-357.5" font-family="Helvetica,sans-Serif" font-size="10.00">::root_schema::get_or</text>
<text text-anchor="middle" x="1204.5" y="-346.5" font-family="Helvetica,sans-Serif" font-size="10.00">_create_file</text>
</a>
</g>
</g>
<!-- Node11&#45;&gt;Node13 -->
<g id="edge12_Node000011_Node000013" class="edge">
<title>Node11&#45;&gt;Node13</title>
<g id="a_edge12_Node000011_Node000013"><a xlink:title=" ">
<path fill="none" stroke="#63b8ff" d="M1089.7,-363.78C1101.7,-363.38 1114.3,-362.96 1126.57,-362.56"/>
<polygon fill="#63b8ff" stroke="#63b8ff" points="1126.9,-366.05 1136.77,-362.22 1126.66,-359.05 1126.9,-366.05"/>
</a>
</g>
</g>
<!-- Node14 -->
<g id="Node000014" class="node">
<title>Node14</title>
<g id="a_Node000014"><a xlink:href="classnlohmann_1_1json__uri.html#a63674f908919cb2496e772e864be35de" target="_top" xlink:title=" ">
<polygon fill="white" stroke="#666666" points="1418,-219 1308,-219 1308,-189 1418,-189 1418,-219"/>
<text text-anchor="start" x="1316" y="-207" font-family="Helvetica,sans-Serif" font-size="10.00">nlohmann::json_uri</text>
<text text-anchor="middle" x="1363" y="-196" font-family="Helvetica,sans-Serif" font-size="10.00">::location</text>
</a>
</g>
</g>
<!-- Node11&#45;&gt;Node14 -->
<g id="edge13_Node000011_Node000014" class="edge">
<title>Node11&#45;&gt;Node14</title>
<g id="a_edge13_Node000011_Node000014"><a xlink:title=" ">
<path fill="none" stroke="#63b8ff" d="M1070.08,-386.66C1123.31,-406.58 1210.55,-428.53 1272,-390 1329.04,-354.24 1350.81,-270.95 1358.38,-229.04"/>
<polygon fill="#63b8ff" stroke="#63b8ff" points="1361.84,-229.53 1360.04,-219.09 1354.94,-228.38 1361.84,-229.53"/>
</a>
</g>
</g>
<!-- Node15 -->
<g id="Node000015" class="node">
<title>Node15</title>
<g id="a_Node000015"><a xlink:href="classnlohmann_1_1json__uri.html#ab01bdcb8bf65ee07703d1ccb69c9f3ee" target="_top" xlink:title=" ">
<polygon fill="white" stroke="#666666" points="1259.5,-467 1149.5,-467 1149.5,-437 1259.5,-437 1259.5,-467"/>
<text text-anchor="start" x="1157.5" y="-455" font-family="Helvetica,sans-Serif" font-size="10.00">nlohmann::json_uri</text>
<text text-anchor="middle" x="1204.5" y="-444" font-family="Helvetica,sans-Serif" font-size="10.00">::pointer</text>
</a>
</g>
</g>
<!-- Node11&#45;&gt;Node15 -->
<g id="edge15_Node000011_Node000015" class="edge">
<title>Node11&#45;&gt;Node15</title>
<g id="a_edge15_Node000011_Node000015"><a xlink:title=" ">
<path fill="none" stroke="#63b8ff" d="M1062.85,-386.56C1084.62,-397.64 1112.15,-411.38 1137,-423 1144.06,-426.3 1151.59,-429.7 1158.95,-432.96"/>
<polygon fill="#63b8ff" stroke="#63b8ff" points="1157.58,-436.18 1168.14,-436.99 1160.39,-429.77 1157.58,-436.18"/>
</a>
</g>
</g>
<!-- Node11&#45;&gt;Node16 -->
<g id="edge16_Node000011_Node000016" class="edge">
<title>Node11&#45;&gt;Node16</title>
<g id="a_edge16_Node000011_Node000016"><a xlink:title=" ">
<path fill="none" stroke="#63b8ff" d="M1089.6,-346.43C1093.75,-343.68 1097.61,-340.56 1101,-337 1137.62,-298.5 1108.64,-267.93 1137,-223 1146.77,-207.53 1161.33,-193.35 1174.34,-182.47"/>
<polygon fill="#63b8ff" stroke="#63b8ff" points="1176.6,-185.15 1182.18,-176.14 1172.2,-179.7 1176.6,-185.15"/>
</a>
</g>
</g>
<!-- Node16&#45;&gt;Node14 -->
<g id="edge17_Node000016_Node000014" class="edge">
<title>Node16&#45;&gt;Node14</title>
<g id="a_edge17_Node000016_Node000014"><a xlink:title=" ">
<path fill="none" stroke="#63b8ff" d="M1259.8,-175.92C1272.06,-179.29 1285.19,-182.89 1297.81,-186.36"/>
<polygon fill="#63b8ff" stroke="#63b8ff" points="1297.23,-189.83 1307.8,-189.11 1299.08,-183.08 1297.23,-189.83"/>
</a>
</g>
</g>
<!-- Node17&#45;&gt;Node12 -->
<g id="edge19_Node000017_Node000012" class="edge">
<title>Node17&#45;&gt;Node12</title>
<g id="a_edge19_Node000017_Node000012"><a xlink:title=" ">
<path fill="none" stroke="#63b8ff" d="M1089.7,-248.89C1105.85,-248.62 1123.07,-248.34 1139.11,-248.07"/>
<polygon fill="#63b8ff" stroke="#63b8ff" points="1139.51,-251.56 1149.45,-247.9 1139.4,-244.57 1139.51,-251.56"/>
</a>
</g>
</g>
<!-- Node17&#45;&gt;Node13 -->
<g id="edge20_Node000017_Node000013" class="edge">
<title>Node17&#45;&gt;Node13</title>
<g id="a_edge20_Node000017_Node000013"><a xlink:title=" ">
<path fill="none" stroke="#63b8ff" d="M1080.62,-265.06C1087.87,-268.33 1094.88,-272.27 1101,-277 1123.82,-294.64 1114.88,-312.48 1137,-331 1138.15,-331.96 1139.33,-332.89 1140.54,-333.8"/>
<polygon fill="#63b8ff" stroke="#63b8ff" points="1138.68,-336.77 1148.94,-339.41 1142.57,-330.95 1138.68,-336.77"/>
</a>
</g>
</g>
<!-- Node17&#45;&gt;Node14 -->
<g id="edge21_Node000017_Node000014" class="edge">
<title>Node17&#45;&gt;Node14</title>
<g id="a_edge21_Node000017_Node000014"><a xlink:title=" ">
<path fill="none" stroke="#63b8ff" d="M1079.2,-234.94C1097.52,-230.5 1118.02,-226.03 1137,-223 1190.69,-214.42 1252.25,-209.56 1297.39,-206.91"/>
<polygon fill="#63b8ff" stroke="#63b8ff" points="1297.84,-210.39 1307.63,-206.33 1297.44,-203.4 1297.84,-210.39"/>
</a>
</g>
</g>
<!-- Node17&#45;&gt;Node16 -->
<g id="edge23_Node000017_Node000016" class="edge">
<title>Node17&#45;&gt;Node16</title>
<g id="a_edge23_Node000017_Node000016"><a xlink:title=" ">
<path fill="none" stroke="#63b8ff" d="M1050.36,-234.88C1073.27,-222.39 1106.96,-204.43 1137,-190 1143.79,-186.74 1151.04,-183.42 1158.16,-180.24"/>
<polygon fill="#63b8ff" stroke="#63b8ff" points="1159.99,-183.26 1167.73,-176.02 1157.17,-176.85 1159.99,-183.26"/>
</a>
</g>
</g>
<!-- Node18 -->
<g id="Node000018" class="node">
<title>Node18</title>
<g id="a_Node000018"><a xlink:href="classanonymous__namespace_02json-validator_8cpp_03_1_1schema__ref.html#ae191a0c47357ebad5942fbab77135375" target="_top" xlink:title=" ">
<polygon fill="white" stroke="#666666" points="1272,-321.5 1137,-321.5 1137,-280.5 1272,-280.5 1272,-321.5"/>
<text text-anchor="start" x="1145" y="-309.5" font-family="Helvetica,sans-Serif" font-size="10.00">anonymous_namespace</text>
<text text-anchor="start" x="1145" y="-298.5" font-family="Helvetica,sans-Serif" font-size="10.00">{json&#45;validator::cpp}</text>
<text text-anchor="middle" x="1204.5" y="-287.5" font-family="Helvetica,sans-Serif" font-size="10.00">::schema_ref::set_target</text>
</a>
</g>
</g>
<!-- Node17&#45;&gt;Node18 -->
<g id="edge22_Node000017_Node000018" class="edge">
<title>Node17&#45;&gt;Node18</title>
<g id="a_edge22_Node000017_Node000018"><a xlink:title=" ">
<path fill="none" stroke="#63b8ff" d="M1076.18,-265.03C1092.09,-269.52 1109.86,-274.54 1126.95,-279.37"/>
<polygon fill="#63b8ff" stroke="#63b8ff" points="1126.35,-282.84 1136.92,-282.19 1128.25,-276.1 1126.35,-282.84"/>
</a>
</g>
</g>
<!-- Node19&#45;&gt;Node7 -->
<g id="edge29_Node000019_Node000007" class="edge">
<title>Node19&#45;&gt;Node7</title>
<g id="a_edge29_Node000019_Node000007"><a xlink:title=" ">
<path fill="none" stroke="#63b8ff" d="M955.75,-420.4C932.51,-411.19 906.87,-400.35 885.68,-390.71"/>
<polygon fill="#63b8ff" stroke="#63b8ff" points="887.14,-387.53 876.59,-386.52 884.21,-393.89 887.14,-387.53"/>
</a>
</g>
</g>
<!-- Node19&#45;&gt;Node8 -->
<g id="edge25_Node000019_Node000008" class="edge">
<title>Node19&#45;&gt;Node8</title>
<g id="a_edge25_Node000019_Node000008"><a xlink:title=" ">
<path fill="none" stroke="#63b8ff" d="M1055.3,-461.76C1077.79,-475.84 1108.71,-494.47 1137,-509 1143.47,-512.32 1150.41,-515.62 1157.27,-518.74"/>
<polygon fill="#63b8ff" stroke="#63b8ff" points="1155.97,-521.99 1166.53,-522.86 1158.81,-515.6 1155.97,-521.99"/>
</a>
</g>
</g>
<!-- Node19&#45;&gt;Node13 -->
<g id="edge26_Node000019_Node000013" class="edge">
<title>Node19&#45;&gt;Node13</title>
<g id="a_edge26_Node000019_Node000013"><a xlink:title=" ">
<path fill="none" stroke="#63b8ff" d="M1069.01,-420.35C1093.2,-409.5 1123.02,-396.12 1148.43,-384.71"/>
<polygon fill="#63b8ff" stroke="#63b8ff" points="1149.88,-387.9 1157.57,-380.61 1147.01,-381.51 1149.88,-387.9"/>
</a>
</g>
</g>
<!-- Node19&#45;&gt;Node14 -->
<g id="edge28_Node000019_Node000014" class="edge">
<title>Node19&#45;&gt;Node14</title>
<g id="a_edge28_Node000019_Node000014"><a xlink:title=" ">
<path fill="none" stroke="#63b8ff" d="M1061.16,-461.65C1113.77,-487 1209.19,-521.38 1272,-476 1352.51,-417.83 1362.18,-284.91 1362.54,-229.25"/>
<polygon fill="#63b8ff" stroke="#63b8ff" points="1366.04,-229.18 1362.5,-219.19 1359.04,-229.2 1366.04,-229.18"/>
</a>
</g>
</g>
<!-- Node19&#45;&gt;Node15 -->
<g id="edge30_Node000019_Node000015" class="edge">
<title>Node19&#45;&gt;Node15</title>
<g id="a_edge30_Node000019_Node000015"><a xlink:title=" ">
<path fill="none" stroke="#63b8ff" d="M1089.7,-445.06C1105.85,-446.05 1123.07,-447.1 1139.11,-448.08"/>
<polygon fill="#63b8ff" stroke="#63b8ff" points="1139.26,-451.59 1149.45,-448.71 1139.69,-444.6 1139.26,-451.59"/>
</a>
</g>
</g>
<!-- Node19&#45;&gt;Node19 -->
<g id="edge27_Node000019_Node000019" class="edge">
<title>Node19&#45;&gt;Node19</title>
<g id="a_edge27_Node000019_Node000019"><a xlink:title=" ">
<path fill="none" stroke="#63b8ff" d="M988.55,-461.6C984.9,-471.15 996.05,-479.5 1022,-479.5 1038.22,-479.5 1048.66,-476.24 1053.31,-471.46"/>
<polygon fill="#63b8ff" stroke="#63b8ff" points="1056.75,-472.11 1055.45,-461.6 1049.91,-470.63 1056.75,-472.11"/>
</a>
</g>
</g>
<!-- Node21&#45;&gt;Node22 -->
<g id="edge35_Node000021_Node000022" class="edge">
<title>Node21&#45;&gt;Node22</title>
<g id="a_edge35_Node000021_Node000022"><a xlink:title=" ">
<path fill="none" stroke="#63b8ff" d="M563.08,-238C571.54,-238 580.24,-238 588.83,-238"/>
<polygon fill="#63b8ff" stroke="#63b8ff" points="588.85,-241.5 598.85,-238 588.85,-234.5 588.85,-241.5"/>
</a>
</g>
</g>
<!-- Node23 -->
<g id="Node000023" class="node">
<title>Node23</title>
<g id="a_Node000023"><a xlink:href="classnlohmann_1_1json__schema_1_1root__schema.html#a32f6012c2d81f29ca16e4409dd2b5ea3" target="_top" xlink:title=" ">
<polygon fill="white" stroke="#666666" points="1089.5,-141 954.5,-141 954.5,-111 1089.5,-111 1089.5,-141"/>
<text text-anchor="start" x="962.5" y="-129" font-family="Helvetica,sans-Serif" font-size="10.00">nlohmann::json_schema</text>
<text text-anchor="middle" x="1022" y="-118" font-family="Helvetica,sans-Serif" font-size="10.00">::root_schema::validate</text>
</a>
</g>
</g>
<!-- Node22&#45;&gt;Node23 -->
<g id="edge36_Node000022_Node000023" class="edge">
<title>Node22&#45;&gt;Node23</title>
<g id="a_edge36_Node000022_Node000023"><a xlink:title=" ">
<path fill="none" stroke="#63b8ff" d="M716.04,-222.9C780.34,-202.46 894.9,-166.07 963.83,-144.17"/>
<polygon fill="#63b8ff" stroke="#63b8ff" points="965.18,-147.41 973.65,-141.04 963.06,-140.74 965.18,-147.41"/>
</a>
</g>
</g>
<!-- Node23&#45;&gt;Node12 -->
<g id="edge38_Node000023_Node000012" class="edge">
<title>Node23&#45;&gt;Node12</title>
<g id="a_edge38_Node000023_Node000012"><a xlink:title=" ">
<path fill="none" stroke="#63b8ff" d="M1045.5,-141.08C1077.47,-162.51 1136.18,-201.87 1172.33,-226.11"/>
<polygon fill="#63b8ff" stroke="#63b8ff" points="1170.75,-229.26 1181.01,-231.92 1174.65,-223.44 1170.75,-229.26"/>
</a>
</g>
</g>
<!-- Node23&#45;&gt;Node14 -->
<g id="edge39_Node000023_Node000014" class="edge">
<title>Node23&#45;&gt;Node14</title>
<g id="a_edge39_Node000023_Node000014"><a xlink:title=" ">
<path fill="none" stroke="#63b8ff" d="M1089.51,-118.54C1140.86,-115.22 1212.89,-115.96 1272,-137 1298.02,-146.26 1322.83,-165.82 1339.78,-181.43"/>
<polygon fill="#63b8ff" stroke="#63b8ff" points="1337.79,-184.36 1347.45,-188.71 1342.61,-179.28 1337.79,-184.36"/>
</a>
</g>
</g>
<!-- Node23&#45;&gt;Node16 -->
<g id="edge40_Node000023_Node000016" class="edge">
<title>Node23&#45;&gt;Node16</title>
<g id="a_edge40_Node000023_Node000016"><a xlink:title=" ">
<path fill="none" stroke="#63b8ff" d="M1089.7,-138.93C1106,-142.09 1123.4,-145.47 1139.57,-148.6"/>
<polygon fill="#63b8ff" stroke="#63b8ff" points="1138.97,-152.05 1149.45,-150.52 1140.3,-145.18 1138.97,-152.05"/>
</a>
</g>
</g>
<!-- Node24 -->
<g id="Node000024" class="node">
<title>Node24</title>
<g id="a_Node000024"><a xlink:href="classnlohmann_1_1json__schema_1_1error__handler.html#a6518c4580b8dd8063000e183f1541650" target="_top" xlink:title=" ">
<polygon fill="white" stroke="#666666" points="1272,-30 1137,-30 1137,0 1272,0 1272,-30"/>
<text text-anchor="start" x="1145" y="-18" font-family="Helvetica,sans-Serif" font-size="10.00">nlohmann::json_schema</text>
<text text-anchor="middle" x="1204.5" y="-7" font-family="Helvetica,sans-Serif" font-size="10.00">::error_handler::error</text>
</a>
</g>
</g>
<!-- Node23&#45;&gt;Node24 -->
<g id="edge37_Node000023_Node000024" class="edge">
<title>Node23&#45;&gt;Node24</title>
<g id="a_edge37_Node000023_Node000024"><a xlink:title=" ">
<path fill="none" stroke="#63b8ff" d="M1039.25,-111C1060.42,-92.1 1099.18,-59.62 1137,-39 1140.21,-37.25 1143.57,-35.59 1147,-34.01"/>
<polygon fill="#63b8ff" stroke="#63b8ff" points="1148.41,-37.21 1156.2,-30.03 1145.64,-30.78 1148.41,-37.21"/>
</a>
</g>
</g>
<!-- Node25 -->
<g id="Node000025" class="node">
<title>Node25</title>
<g id="a_Node000025"><a xlink:href="classanonymous__namespace_02json-validator_8cpp_03_1_1schema.html#a2509ace246d9dcec607e75377753a5ea" target="_top" xlink:title=" ">
<polygon fill="white" stroke="#666666" points="1272,-89.5 1137,-89.5 1137,-48.5 1272,-48.5 1272,-89.5"/>
<text text-anchor="start" x="1145" y="-77.5" font-family="Helvetica,sans-Serif" font-size="10.00">anonymous_namespace</text>
<text text-anchor="start" x="1145" y="-66.5" font-family="Helvetica,sans-Serif" font-size="10.00">{json&#45;validator::cpp}</text>
<text text-anchor="middle" x="1204.5" y="-55.5" font-family="Helvetica,sans-Serif" font-size="10.00">::schema::validate</text>
</a>
</g>
</g>
<!-- Node23&#45;&gt;Node25 -->
<g id="edge41_Node000023_Node000025" class="edge">
<title>Node23&#45;&gt;Node25</title>
<g id="a_edge41_Node000023_Node000025"><a xlink:title=" ">
<path fill="none" stroke="#63b8ff" d="M1070.9,-110.87C1088.59,-105.29 1109.09,-98.82 1128.6,-92.65"/>
<polygon fill="#63b8ff" stroke="#63b8ff" points="1129.9,-95.91 1138.39,-89.56 1127.8,-89.24 1129.9,-95.91"/>
</a>
</g>
</g>
</g>
</svg>

<g id="navigator" transform="translate(0 0)" fill="#404254">
  <rect fill="#f2f5e9" fill-opacity="0.5" stroke="#606060" stroke-width=".5" x="0" y="0" width="60" height="60"/>
  <use id="zoomplus" xlink:href="#zoomPlus" x="17" y="9" onmousedown="handleZoom(evt,'in')"/>
  <use id="zoomminus" xlink:href="#zoomMin" x="42" y="9" onmousedown="handleZoom(evt,'out')"/>
  <use id="reset" xlink:href="#resetDef" x="30" y="36" onmousedown="handleReset()"/>
   <use id="arrowup" xlink:href="#arrowUp" x="0" y="0" onmousedown="handlePan(0,-1)"/>
  <use id="arrowright" xlink:href="#arrowRight" x="0" y="0" onmousedown="handlePan(1,0)"/>
  <use id="arrowdown" xlink:href="#arrowDown" x="0" y="0" onmousedown="handlePan(0,1)"/>
  <use id="arrowleft" xlink:href="#arrowLeft" x="0" y="0" onmousedown="handlePan(-1,0)"/>
</g>
<svg viewBox="0 0 15 15" width="100%" height="30px" preserveAspectRatio="xMaxYMin meet">
 <g id="arrow_out" transform="scale(0.3 0.3)">
  <a xlink:href="namespaceanonymous__namespace_02issue-105-verbose-combination-errors_8cpp_03_a4b7578a08dda4165bf9c386de4bc2bed_cgraph_org.svg" target="_base">
   <rect id="button" ry="5" rx="5" y="6" x="6" height="38" width="38"
        fill="#f2f5e9" fill-opacity="0.5" stroke="#606060" stroke-width="1.0"/>
   <path id="arrow"
     d="M 11.500037,31.436501 C 11.940474,20.09759 22.043105,11.32322 32.158766,21.979434 L 37.068811,17.246167 C 37.068811,17.246167 37.088388,32 37.088388,32 L 22.160133,31.978069 C 22.160133,31.978069 26.997745,27.140456 26.997745,27.140456 C 18.528582,18.264221 13.291696,25.230495 11.500037,31.436501 z"
     style="fill:#404040;"/>
  </a>
 </g>
</svg>

<style type='text/css'>
<![CDATA[
[data-mouse-over-selected='false'] { opacity: 0.7; }
[data-mouse-over-selected='true']  { opacity: 1.0; }
]]>
</style>
<script type="application/ecmascript"><![CDATA[
document.addEventListener('DOMContentLoaded', (event) => {
  highlightEdges();
  highlightAdjacentNodes();
});
]]></script>
</svg>
