<?xml version="1.0" encoding="UTF-8" standalone="no"?>
<!DOCTYPE svg PUBLIC "-//W3C//DTD SVG 1.1//EN"
 "http://www.w3.org/Graphics/SVG/1.1/DTD/svg11.dtd">
<!-- Generated by graphviz version 14.1.2 (0)
 -->
<!-- Title: inja::string_view::starts_with Pages: 1 -->
<!--zoomable 405 -->

<svg id="main" version="1.1" xmlns="http://www.w3.org/2000/svg" xmlns:xlink="http://www.w3.org/1999/xlink" xml:space="preserve" onload="init(evt)">

<style type="text/css"><![CDATA[
.node, .edge {opacity: 0.7;}
.node.selected, .edge.selected {opacity: 1;}
.edge:hover path { stroke: red; }
.edge:hover polygon { stroke: red; fill: red; }
]]></style>

<defs>
  <circle id="rim" cx="0" cy="0" r="7"/>
  <circle id="rim2" cx="0" cy="0" r="3.5"/>
  <g id="zoomPlus">
    <use xlink:href="#rim" fill="#404040"><set attributeName="fill" to="#808080" begin="zoomplus.mouseover" end="zoomplus.mouseout"/></use>
    <path d="M-4,0h8M0,-4v8" fill="none" stroke="white" stroke-width="1.5" pointer-events="none"/>
  </g>
  <g id="zoomMin">
    <use xlink:href="#rim" fill="#404040"><set attributeName="fill" to="#808080" begin="zoomminus.mouseover" end="zoomminus.mouseout"/></use>
    <path d="M-4,0h8" fill="none" stroke="white" stroke-width="1.5" pointer-events="none"/>
  </g>
  <g id="arrowUp" transform="translate(30 24)">
    <use xlink:href="#rim"/>
    <path pointer-events="none" fill="none" stroke="white" stroke-width="1.5" d="M0,-3.0v7 M-2.5,-0.5L0,-3.0L2.5,-0.5"/>
  </g>
  <g id="arrowRight" transform="rotate(90) translate(36 -43)">
    <use xlink:href="#rim"/>
    <path pointer-events="none" fill="none" stroke="white" stroke-width="1.5" d="M0,-3.0v7 M-2.5,-0.5L0,-3.0L2.5,-0.5"/>
  </g>
  <g id="arrowDown" transform="rotate(180) translate(-30 -48)">
    <use xlink:href="#rim"/>
    <path pointer-events="none" fill="none" stroke="white" stroke-width="1.5" d="M0,-3.0v7 M-2.5,-0.5L0,-3.0L2.5,-0.5"/>
  </g>
  <g id="arrowLeft" transform="rotate(270) translate(-36 17)">
    <use xlink:href="#rim"/>
    <path pointer-events="none" fill="none" stroke="white" stroke-width="1.5" d="M0,-3.0v7 M-2.5,-0.5L0,-3.0L2.5,-0.5"/>
  </g>
  <g id="resetDef">
    <use xlink:href="#rim2" fill="#404040"><set attributeName="fill" to="#808080" begin="reset.mouseover" end="reset.mouseout"/></use>
  </g>
</defs>
<script type="application/ecmascript">
var viewWidth = 2618;
var viewHeight = 405;
var sectionId = 'dynsection-3';
</script>
<script type="application/ecmascript" xlink:href="svg.min.js"/>
<svg id="graph" class="graph">
<g id="viewport">
<title>inja::string_view::starts_with</title>
<!-- Node1 -->
<g id="Node000001" class="node">
<title>Node1</title>
<g id="a_Node000001"><a xlink:title=" ">
<polygon fill="#999999" stroke="#666666" points="2609.75,-295.88 2507.5,-295.88 2507.5,-262.38 2609.75,-262.38 2609.75,-295.88"/>
<text xml:space="preserve" text-anchor="start" x="2515.5" y="-282.38" font-family="Helvetica,sans-Serif" font-size="10.00">inja::string_view::</text>
<text xml:space="preserve" text-anchor="middle" x="2558.62" y="-269.62" font-family="Helvetica,sans-Serif" font-size="10.00">starts_with</text>
</a>
</g>
</g>
<!-- Node2 -->
<g id="Node000002" class="node">
<title>Node2</title>
<g id="a_Node000002"><a xlink:href="classinja_1_1Lexer.html#a8c85efa9536869c371b8afb609e0d8d2" target="_top" xlink:title=" ">
<polygon fill="white" stroke="#666666" points="2310.75,-325.5 2215.25,-325.5 2215.25,-304.75 2310.75,-304.75 2310.75,-325.5"/>
<text xml:space="preserve" text-anchor="middle" x="2263" y="-312" font-family="Helvetica,sans-Serif" font-size="10.00">inja::Lexer::scan</text>
</a>
</g>
</g>
<!-- Node1&#45;&gt;Node2 -->
<g id="edge1_Node000001_Node000002" class="edge">
<title>Node1&#45;&gt;Node2</title>
<g id="a_edge1_Node000001_Node000002"><a xlink:title=" ">
<path fill="none" stroke="#63b8ff" d="M2495.69,-282.86C2453.55,-285.85 2396.61,-290.78 2346.75,-298.12 2335.14,-299.83 2322.71,-302.14 2311.1,-304.49"/>
<polygon fill="#63b8ff" stroke="#63b8ff" points="2495.92,-286.35 2505.65,-282.17 2495.43,-279.37 2495.92,-286.35"/>
</a>
</g>
</g>
<!-- Node34 -->
<g id="Node000034" class="node">
<title>Node34</title>
<g id="a_Node000034"><a xlink:href="classinja_1_1Lexer.html#aa342980e23b7a9fa633e82cf38c3c682" target="_top" xlink:title=" ">
<polygon fill="white" stroke="#666666" points="2471.5,-327.5 2346.75,-327.5 2346.75,-306.75 2471.5,-306.75 2471.5,-327.5"/>
<text xml:space="preserve" text-anchor="middle" x="2409.12" y="-314" font-family="Helvetica,sans-Serif" font-size="10.00">inja::Lexer::scan_body</text>
</a>
</g>
</g>
<!-- Node1&#45;&gt;Node34 -->
<g id="edge45_Node000001_Node000034" class="edge">
<title>Node1&#45;&gt;Node34</title>
<g id="a_edge45_Node000001_Node000034"><a xlink:title=" ">
<path fill="none" stroke="#63b8ff" d="M2496.51,-294.87C2481.51,-298.74 2465.78,-302.79 2451.92,-306.36"/>
<polygon fill="#63b8ff" stroke="#63b8ff" points="2497,-298.36 2505.81,-292.47 2495.25,-291.58 2497,-298.36"/>
</a>
</g>
</g>
<!-- Node35 -->
<g id="Node000035" class="node">
<title>Node35</title>
<g id="a_Node000035"><a xlink:href="classinja_1_1Lexer.html#afab5a4a53539d89c7441f249a751da01" target="_top" xlink:title=" ">
<polygon fill="white" stroke="#666666" points="2310.75,-251.5 2215.25,-251.5 2215.25,-230.75 2310.75,-230.75 2310.75,-251.5"/>
<text xml:space="preserve" text-anchor="middle" x="2263" y="-238" font-family="Helvetica,sans-Serif" font-size="10.00">inja::Lexer::start</text>
</a>
</g>
</g>
<!-- Node1&#45;&gt;Node35 -->
<g id="edge47_Node000001_Node000035" class="edge">
<title>Node1&#45;&gt;Node35</title>
<g id="a_edge47_Node000001_Node000035"><a xlink:title=" ">
<path fill="none" stroke="#63b8ff" d="M2495.76,-271.12C2440.58,-263.98 2360.99,-253.68 2310.91,-247.2"/>
<polygon fill="#63b8ff" stroke="#63b8ff" points="2495.28,-274.59 2505.65,-272.4 2496.18,-267.64 2495.28,-274.59"/>
</a>
</g>
</g>
<!-- Node3 -->
<g id="Node000003" class="node">
<title>Node3</title>
<g id="a_Node000003"><a xlink:href="classinja_1_1Parser.html#ab8bb45bc1eeead74f630efa420ee6212" target="_top" xlink:title=" ">
<polygon fill="white" stroke="#666666" points="2178.12,-328.88 2058.62,-328.88 2058.62,-295.38 2178.12,-295.38 2178.12,-328.88"/>
<text xml:space="preserve" text-anchor="start" x="2066.62" y="-315.38" font-family="Helvetica,sans-Serif" font-size="10.00">inja::Parser::get_next</text>
<text xml:space="preserve" text-anchor="middle" x="2118.38" y="-302.62" font-family="Helvetica,sans-Serif" font-size="10.00">_token</text>
</a>
</g>
</g>
<!-- Node2&#45;&gt;Node3 -->
<g id="edge2_Node000002_Node000003" class="edge">
<title>Node2&#45;&gt;Node3</title>
<g id="a_edge2_Node000002_Node000003"><a xlink:title=" ">
<path fill="none" stroke="#63b8ff" d="M2203.42,-313.89C2195.15,-313.72 2186.65,-313.54 2178.38,-313.37"/>
<polygon fill="#63b8ff" stroke="#63b8ff" points="2203.32,-317.39 2213.39,-314.1 2203.47,-310.39 2203.32,-317.39"/>
</a>
</g>
</g>
<!-- Node33 -->
<g id="Node000033" class="node">
<title>Node33</title>
<g id="a_Node000033"><a xlink:href="classinja_1_1Parser.html#a16b5b7d40ed3e6a536194d1367626fd9" target="_top" xlink:title=" ">
<polygon fill="white" stroke="#666666" points="2179.25,-380.88 2057.5,-380.88 2057.5,-347.38 2179.25,-347.38 2179.25,-380.88"/>
<text xml:space="preserve" text-anchor="start" x="2065.5" y="-367.38" font-family="Helvetica,sans-Serif" font-size="10.00">inja::Parser::get_peek</text>
<text xml:space="preserve" text-anchor="middle" x="2118.38" y="-354.62" font-family="Helvetica,sans-Serif" font-size="10.00">_token</text>
</a>
</g>
</g>
<!-- Node2&#45;&gt;Node33 -->
<g id="edge43_Node000002_Node000033" class="edge">
<title>Node2&#45;&gt;Node33</title>
<g id="a_edge43_Node000002_Node000033"><a xlink:title=" ">
<path fill="none" stroke="#63b8ff" d="M2219.82,-329.62C2204,-335.05 2185.88,-341.28 2169.43,-346.93"/>
<polygon fill="#63b8ff" stroke="#63b8ff" points="2220.6,-333.05 2228.92,-326.49 2218.32,-326.43 2220.6,-333.05"/>
</a>
</g>
</g>
<!-- Node4 -->
<g id="Node000004" class="node">
<title>Node4</title>
<g id="a_Node000004"><a xlink:href="classinja_1_1Parser.html#a7dda6b9f4295c215e097f45d573d8d69" target="_top" xlink:title=" ">
<polygon fill="white" stroke="#666666" points="2021.5,-378.88 1917.75,-378.88 1917.75,-345.38 2021.5,-345.38 2021.5,-378.88"/>
<text xml:space="preserve" text-anchor="start" x="1925.75" y="-365.38" font-family="Helvetica,sans-Serif" font-size="10.00">inja::Parser::parse</text>
<text xml:space="preserve" text-anchor="middle" x="1969.62" y="-352.62" font-family="Helvetica,sans-Serif" font-size="10.00">_expression</text>
</a>
</g>
</g>
<!-- Node3&#45;&gt;Node4 -->
<g id="edge3_Node000003_Node000004" class="edge">
<title>Node3&#45;&gt;Node4</title>
<g id="a_edge3_Node000003_Node000004"><a xlink:title=" ">
<path fill="none" stroke="#63b8ff" d="M2056.3,-332.93C2044.63,-336.91 2032.52,-341.03 2021.22,-344.89"/>
<polygon fill="#63b8ff" stroke="#63b8ff" points="2057.1,-336.36 2065.44,-329.82 2054.84,-329.73 2057.1,-336.36"/>
</a>
</g>
</g>
<!-- Node6 -->
<g id="Node000006" class="node">
<title>Node6</title>
<g id="a_Node000006"><a xlink:href="classinja_1_1Parser.html#a325c55a6c060f76d0d83b4d187b1ef33" target="_top" xlink:title=" ">
<polygon fill="white" stroke="#666666" points="1742,-270.5 1614.25,-270.5 1614.25,-249.75 1742,-249.75 1742,-270.5"/>
<text xml:space="preserve" text-anchor="middle" x="1678.12" y="-257" font-family="Helvetica,sans-Serif" font-size="10.00">inja::Parser::parse_into</text>
</a>
</g>
</g>
<!-- Node3&#45;&gt;Node6 -->
<g id="edge41_Node000003_Node000006" class="edge">
<title>Node3&#45;&gt;Node6</title>
<g id="a_edge41_Node000003_Node000006"><a xlink:title=" ">
<path fill="none" stroke="#63b8ff" d="M2047.02,-303.78C1962.83,-293.79 1823.1,-277.21 1742.25,-267.61"/>
<polygon fill="#63b8ff" stroke="#63b8ff" points="2046.42,-307.23 2056.77,-304.93 2047.25,-300.28 2046.42,-307.23"/>
</a>
</g>
</g>
<!-- Node26 -->
<g id="Node000026" class="node">
<title>Node26</title>
<g id="a_Node000026"><a xlink:href="classinja_1_1Parser.html#afdea619b58c4db677d49c0481d6a9a4b" target="_top" xlink:title=" ">
<polygon fill="white" stroke="#666666" points="1290.5,-318.88 1186.75,-318.88 1186.75,-285.38 1290.5,-285.38 1290.5,-318.88"/>
<text xml:space="preserve" text-anchor="start" x="1194.75" y="-305.38" font-family="Helvetica,sans-Serif" font-size="10.00">inja::Parser::parse</text>
<text xml:space="preserve" text-anchor="middle" x="1238.62" y="-292.62" font-family="Helvetica,sans-Serif" font-size="10.00">_statement</text>
</a>
</g>
</g>
<!-- Node3&#45;&gt;Node26 -->
<g id="edge42_Node000003_Node000026" class="edge">
<title>Node3&#45;&gt;Node26</title>
<g id="a_edge42_Node000003_Node000026"><a xlink:title=" ">
<path fill="none" stroke="#63b8ff" d="M2047.16,-314.03C1989.16,-315.45 1904.68,-317.12 1830.88,-317.12 1830.88,-317.12 1830.88,-317.12 1525.38,-317.12 1443.28,-317.12 1348.11,-310.87 1290.94,-306.44"/>
<polygon fill="#63b8ff" stroke="#63b8ff" points="2046.97,-317.54 2056.88,-313.79 2046.8,-310.54 2046.97,-317.54"/>
</a>
</g>
</g>
<!-- Node4&#45;&gt;Node4 -->
<g id="edge4_Node000004_Node000004" class="edge">
<title>Node4&#45;&gt;Node4</title>
<g id="a_edge4_Node000004_Node000004"><a xlink:title=" ">
<path fill="none" stroke="#63b8ff" d="M1992.76,-390.59C1988.83,-394.37 1981.12,-396.88 1969.62,-396.88 1948.61,-396.88 1940.23,-388.49 1944.5,-379.29"/>
<polygon fill="#63b8ff" stroke="#63b8ff" points="1996.2,-391.23 1994.49,-380.78 1989.31,-390.02 1996.2,-391.23"/>
</a>
</g>
</g>
<!-- Node5 -->
<g id="Node000005" class="node">
<title>Node5</title>
<g id="a_Node000005"><a xlink:href="classinja_1_1Parser.html#aeb66164c89e8c71cae3c93c24d7c7be2" target="_top" xlink:title=" ">
<polygon fill="white" stroke="#666666" points="1881.75,-378.88 1778,-378.88 1778,-345.38 1881.75,-345.38 1881.75,-378.88"/>
<text xml:space="preserve" text-anchor="start" x="1786" y="-365.38" font-family="Helvetica,sans-Serif" font-size="10.00">inja::Parser::parse</text>
<text xml:space="preserve" text-anchor="middle" x="1829.88" y="-352.62" font-family="Helvetica,sans-Serif" font-size="10.00">_expression</text>
</a>
</g>
</g>
<!-- Node4&#45;&gt;Node5 -->
<g id="edge5_Node000004_Node000005" class="edge">
<title>Node4&#45;&gt;Node5</title>
<g id="a_edge5_Node000004_Node000005"><a xlink:title=" ">
<path fill="none" stroke="#63b8ff" d="M1905.86,-362.12C1897.95,-362.12 1889.92,-362.12 1882.21,-362.12"/>
<polygon fill="#63b8ff" stroke="#63b8ff" points="1905.82,-365.63 1915.82,-362.13 1905.82,-358.63 1905.82,-365.63"/>
</a>
</g>
</g>
<!-- Node5&#45;&gt;Node6 -->
<g id="edge6_Node000005_Node000006" class="edge">
<title>Node5&#45;&gt;Node6</title>
<g id="a_edge6_Node000005_Node000006"><a xlink:title=" ">
<path fill="none" stroke="#63b8ff" d="M1794.59,-338.77C1763.35,-317.5 1718.61,-287.02 1695.05,-270.97"/>
<polygon fill="#63b8ff" stroke="#63b8ff" points="1792.32,-341.46 1802.56,-344.2 1796.26,-335.68 1792.32,-341.46"/>
</a>
</g>
</g>
<!-- Node5&#45;&gt;Node26 -->
<g id="edge40_Node000005_Node000026" class="edge">
<title>Node5&#45;&gt;Node26</title>
<g id="a_edge40_Node000005_Node000026"><a xlink:title=" ">
<path fill="none" stroke="#63b8ff" d="M1766.14,-363.28C1670.77,-363.91 1484,-360.7 1328.75,-331.12 1314.2,-328.35 1298.74,-323.89 1284.84,-319.28"/>
<polygon fill="#63b8ff" stroke="#63b8ff" points="1766.1,-366.78 1776.07,-363.2 1766.04,-359.78 1766.1,-366.78"/>
</a>
</g>
</g>
<!-- Node7 -->
<g id="Node000007" class="node">
<title>Node7</title>
<g id="a_Node000007"><a xlink:href="classinja_1_1Parser.html#ae9cf060e992d2a12b7fd47b346d8bd64" target="_top" xlink:title=" ">
<polygon fill="white" stroke="#666666" points="1578.25,-159.5 1474.5,-159.5 1474.5,-138.75 1578.25,-138.75 1578.25,-159.5"/>
<text xml:space="preserve" text-anchor="middle" x="1526.38" y="-146" font-family="Helvetica,sans-Serif" font-size="10.00">inja::Parser::parse</text>
</a>
</g>
</g>
<!-- Node6&#45;&gt;Node7 -->
<g id="edge7_Node000006_Node000007" class="edge">
<title>Node6&#45;&gt;Node7</title>
<g id="a_edge7_Node000006_Node000007"><a xlink:title=" ">
<path fill="none" stroke="#63b8ff" d="M1653.56,-242.66C1622.21,-219.42 1567.74,-179.04 1541.85,-159.85"/>
<polygon fill="#63b8ff" stroke="#63b8ff" points="1651.16,-245.24 1661.28,-248.38 1655.33,-239.61 1651.16,-245.24"/>
</a>
</g>
</g>
<!-- Node24 -->
<g id="Node000024" class="node">
<title>Node24</title>
<g id="a_Node000024"><a xlink:href="classinja_1_1Parser.html#af2b8ee63877e6b685f30c87d204bbe8b" target="_top" xlink:title=" ">
<polygon fill="white" stroke="#666666" points="1578.25,-250.88 1474.5,-250.88 1474.5,-217.38 1578.25,-217.38 1578.25,-250.88"/>
<text xml:space="preserve" text-anchor="start" x="1482.5" y="-237.38" font-family="Helvetica,sans-Serif" font-size="10.00">inja::Parser::parse</text>
<text xml:space="preserve" text-anchor="middle" x="1526.38" y="-224.62" font-family="Helvetica,sans-Serif" font-size="10.00">_into_template</text>
</a>
</g>
</g>
<!-- Node6&#45;&gt;Node24 -->
<g id="edge30_Node000006_Node000024" class="edge">
<title>Node6&#45;&gt;Node24</title>
<g id="a_edge30_Node000006_Node000024"><a xlink:title=" ">
<path fill="none" stroke="#63b8ff" d="M1603.81,-247.4C1595.32,-245.92 1586.81,-244.44 1578.7,-243.04"/>
<polygon fill="#63b8ff" stroke="#63b8ff" points="1602.98,-250.8 1613.43,-249.07 1604.17,-243.91 1602.98,-250.8"/>
</a>
</g>
</g>
<!-- Node8 -->
<g id="Node000008" class="node">
<title>Node8</title>
<g id="a_Node000008"><a xlink:href="classinja_1_1Environment.html#a8421b8d61fc4de15f29c909bd7154f92" target="_top" xlink:title=" ">
<polygon fill="white" stroke="#666666" points="1437.75,-124.88 1329.5,-124.88 1329.5,-91.38 1437.75,-91.38 1437.75,-124.88"/>
<text xml:space="preserve" text-anchor="start" x="1337.5" y="-111.38" font-family="Helvetica,sans-Serif" font-size="10.00">inja::Environment::</text>
<text xml:space="preserve" text-anchor="middle" x="1383.62" y="-98.62" font-family="Helvetica,sans-Serif" font-size="10.00">parse</text>
</a>
</g>
</g>
<!-- Node7&#45;&gt;Node8 -->
<g id="edge8_Node000007_Node000008" class="edge">
<title>Node7&#45;&gt;Node8</title>
<g id="a_edge8_Node000007_Node000008"><a xlink:title=" ">
<path fill="none" stroke="#63b8ff" d="M1477.55,-135.19C1464.84,-131.49 1451.03,-127.47 1438.03,-123.68"/>
<polygon fill="#63b8ff" stroke="#63b8ff" points="1476.36,-138.49 1486.94,-137.93 1478.32,-131.77 1476.36,-138.49"/>
</a>
</g>
</g>
<!-- Node9 -->
<g id="Node000009" class="node">
<title>Node9</title>
<g id="a_Node000009"><a xlink:href="classinja_1_1Environment.html#aac36e0cfdc9e7926914e46c0cd1caada" target="_top" xlink:title=" ">
<polygon fill="white" stroke="#666666" points="1292.75,-56.88 1184.5,-56.88 1184.5,-23.38 1292.75,-23.38 1292.75,-56.88"/>
<text xml:space="preserve" text-anchor="start" x="1192.5" y="-43.38" font-family="Helvetica,sans-Serif" font-size="10.00">inja::Environment::</text>
<text xml:space="preserve" text-anchor="middle" x="1238.62" y="-30.62" font-family="Helvetica,sans-Serif" font-size="10.00">render</text>
</a>
</g>
</g>
<!-- Node8&#45;&gt;Node9 -->
<g id="edge9_Node000008_Node000009" class="edge">
<title>Node8&#45;&gt;Node9</title>
<g id="a_edge9_Node000008_Node000009"><a xlink:title=" ">
<path fill="none" stroke="#63b8ff" d="M1336.27,-86.08C1316.62,-76.74 1294.07,-66.02 1275.7,-57.28"/>
<polygon fill="#63b8ff" stroke="#63b8ff" points="1334.64,-89.18 1345.17,-90.32 1337.65,-82.86 1334.64,-89.18"/>
</a>
</g>
</g>
<!-- Node22 -->
<g id="Node000022" class="node">
<title>Node22</title>
<g id="a_Node000022"><a xlink:href="classinja_1_1Environment.html#ad00da8b535e5c5633ed2adec622e6cf4" target="_top" xlink:title=" ">
<polygon fill="white" stroke="#666666" points="1292.75,-146.88 1184.5,-146.88 1184.5,-113.38 1292.75,-113.38 1292.75,-146.88"/>
<text xml:space="preserve" text-anchor="start" x="1192.5" y="-133.38" font-family="Helvetica,sans-Serif" font-size="10.00">inja::Environment::</text>
<text xml:space="preserve" text-anchor="middle" x="1238.62" y="-120.62" font-family="Helvetica,sans-Serif" font-size="10.00">render_to</text>
</a>
</g>
</g>
<!-- Node8&#45;&gt;Node22 -->
<g id="edge28_Node000008_Node000022" class="edge">
<title>Node8&#45;&gt;Node22</title>
<g id="a_edge28_Node000008_Node000022"><a xlink:title=" ">
<path fill="none" stroke="#63b8ff" d="M1318.04,-118.06C1309.64,-119.35 1301.11,-120.67 1292.92,-121.93"/>
<polygon fill="#63b8ff" stroke="#63b8ff" points="1318.53,-121.53 1327.88,-116.55 1317.47,-114.61 1318.53,-121.53"/>
</a>
</g>
</g>
<!-- Node23 -->
<g id="Node000023" class="node">
<title>Node23</title>
<g id="a_Node000023"><a xlink:href="namespaceinja.html#a996f16f78b37d05e19cf44ac74d83e7e" target="_top" xlink:title="render with default settings to the given output stream">
<polygon fill="white" stroke="#666666" points="1281.88,-95.5 1195.38,-95.5 1195.38,-74.75 1281.88,-74.75 1281.88,-95.5"/>
<text xml:space="preserve" text-anchor="middle" x="1238.62" y="-82" font-family="Helvetica,sans-Serif" font-size="10.00">inja::render_to</text>
</a>
</g>
</g>
<!-- Node8&#45;&gt;Node23 -->
<g id="edge29_Node000008_Node000023" class="edge">
<title>Node8&#45;&gt;Node23</title>
<g id="a_edge29_Node000008_Node000023"><a xlink:title=" ">
<path fill="none" stroke="#63b8ff" d="M1318.27,-97.77C1306.05,-95.81 1293.54,-93.8 1282.2,-91.97"/>
<polygon fill="#63b8ff" stroke="#63b8ff" points="1317.45,-101.19 1327.88,-99.32 1318.57,-94.28 1317.45,-101.19"/>
</a>
</g>
</g>
<!-- Node10 -->
<g id="Node000010" class="node">
<title>Node10</title>
<g id="a_Node000010"><a xlink:href="classmqtt_1_1lib_1_1MqttMapper.html#af9adb23cc42f2128abccb8edd5ad6396" target="_top" xlink:title=" ">
<polygon fill="white" stroke="#666666" points="1148.5,-98.88 1007.25,-98.88 1007.25,-65.38 1148.5,-65.38 1148.5,-98.88"/>
<text xml:space="preserve" text-anchor="start" x="1015.25" y="-85.38" font-family="Helvetica,sans-Serif" font-size="10.00">mqtt::lib::MqttMapper</text>
<text xml:space="preserve" text-anchor="middle" x="1077.88" y="-72.62" font-family="Helvetica,sans-Serif" font-size="10.00">::publishMappedTemplate</text>
</a>
</g>
</g>
<!-- Node9&#45;&gt;Node10 -->
<g id="edge10_Node000009_Node000010" class="edge">
<title>Node9&#45;&gt;Node10</title>
<g id="a_edge10_Node000009_Node000010"><a xlink:title=" ">
<path fill="none" stroke="#63b8ff" d="M1173.48,-57.1C1163.73,-59.68 1153.66,-62.34 1143.89,-64.92"/>
<polygon fill="#63b8ff" stroke="#63b8ff" points="1174.09,-60.56 1182.86,-54.61 1172.3,-53.79 1174.09,-60.56"/>
</a>
</g>
</g>
<!-- Node21 -->
<g id="Node000021" class="node">
<title>Node21</title>
<g id="a_Node000021"><a xlink:href="namespaceinja.html#a539106781b52cc6117fc132f927a9dec" target="_top" xlink:title="render with default settings to a string">
<polygon fill="white" stroke="#666666" points="1113.62,-47.5 1042.12,-47.5 1042.12,-26.75 1113.62,-26.75 1113.62,-47.5"/>
<text xml:space="preserve" text-anchor="middle" x="1077.88" y="-34" font-family="Helvetica,sans-Serif" font-size="10.00">inja::render</text>
</a>
</g>
</g>
<!-- Node9&#45;&gt;Node21 -->
<g id="edge27_Node000009_Node000021" class="edge">
<title>Node9&#45;&gt;Node21</title>
<g id="a_edge27_Node000009_Node000021"><a xlink:title=" ">
<path fill="none" stroke="#63b8ff" d="M1172.94,-38.9C1152.72,-38.52 1131.18,-38.11 1113.82,-37.79"/>
<polygon fill="#63b8ff" stroke="#63b8ff" points="1172.74,-42.4 1182.81,-39.09 1172.88,-35.4 1172.74,-42.4"/>
</a>
</g>
</g>
<!-- Node11 -->
<g id="Node000011" class="node">
<title>Node11</title>
<g id="a_Node000011"><a xlink:href="classmqtt_1_1lib_1_1MqttMapper.html#a87fc6345c899ea6a7e58069daa666306" target="_top" xlink:title=" ">
<polygon fill="white" stroke="#666666" points="971.25,-98.88 841.25,-98.88 841.25,-65.38 971.25,-65.38 971.25,-98.88"/>
<text xml:space="preserve" text-anchor="start" x="849.25" y="-85.38" font-family="Helvetica,sans-Serif" font-size="10.00">mqtt::lib::MqttMapper</text>
<text xml:space="preserve" text-anchor="middle" x="906.25" y="-72.62" font-family="Helvetica,sans-Serif" font-size="10.00">::getTemplateMappings</text>
</a>
</g>
</g>
<!-- Node10&#45;&gt;Node11 -->
<g id="edge11_Node000010_Node000011" class="edge">
<title>Node10&#45;&gt;Node11</title>
<g id="a_edge11_Node000010_Node000011"><a xlink:title=" ">
<path fill="none" stroke="#63b8ff" d="M995.59,-82.12C987.54,-82.12 979.46,-82.12 971.62,-82.12"/>
<polygon fill="#63b8ff" stroke="#63b8ff" points="995.39,-85.63 1005.39,-82.13 995.39,-78.63 995.39,-85.63"/>
</a>
</g>
</g>
<!-- Node12 -->
<g id="Node000012" class="node">
<title>Node12</title>
<g id="a_Node000012"><a xlink:href="classmqtt_1_1lib_1_1MqttMapper.html#a542c86edf273308138357e4773c55d3c" target="_top" xlink:title=" ">
<polygon fill="white" stroke="#666666" points="805.25,-98.88 682.75,-98.88 682.75,-65.38 805.25,-65.38 805.25,-98.88"/>
<text xml:space="preserve" text-anchor="start" x="690.75" y="-85.38" font-family="Helvetica,sans-Serif" font-size="10.00">mqtt::lib::MqttMapper</text>
<text xml:space="preserve" text-anchor="middle" x="744" y="-72.62" font-family="Helvetica,sans-Serif" font-size="10.00">::getMappings</text>
</a>
</g>
</g>
<!-- Node11&#45;&gt;Node12 -->
<g id="edge12_Node000011_Node000012" class="edge">
<title>Node11&#45;&gt;Node12</title>
<g id="a_edge12_Node000011_Node000012"><a xlink:title=" ">
<path fill="none" stroke="#63b8ff" d="M829.67,-82.12C821.61,-82.12 813.49,-82.12 805.63,-82.12"/>
<polygon fill="#63b8ff" stroke="#63b8ff" points="829.48,-85.63 839.48,-82.13 829.48,-78.63 829.48,-85.63"/>
</a>
</g>
</g>
<!-- Node13 -->
<g id="Node000013" class="node">
<title>Node13</title>
<g id="a_Node000013"><a xlink:href="classmqtt_1_1mqttbroker_1_1lib_1_1Mqtt.html#a35dd670ca3b7d67cffbbce1cf7c71ffb" target="_top" xlink:title=" ">
<polygon fill="white" stroke="#666666" points="646.75,-133.88 529.5,-133.88 529.5,-100.38 646.75,-100.38 646.75,-133.88"/>
<text xml:space="preserve" text-anchor="start" x="537.5" y="-120.38" font-family="Helvetica,sans-Serif" font-size="10.00">mqtt::mqttbroker::lib</text>
<text xml:space="preserve" text-anchor="middle" x="588.12" y="-107.62" font-family="Helvetica,sans-Serif" font-size="10.00">::Mqtt::onPublish</text>
</a>
</g>
</g>
<!-- Node12&#45;&gt;Node13 -->
<g id="edge13_Node000012_Node000013" class="edge">
<title>Node12&#45;&gt;Node13</title>
<g id="a_edge13_Node000012_Node000013"><a xlink:title=" ">
<path fill="none" stroke="#63b8ff" d="M671.53,-98.38C663.33,-100.25 655.05,-102.13 647.06,-103.95"/>
<polygon fill="#63b8ff" stroke="#63b8ff" points="672.18,-101.82 681.15,-96.19 670.62,-95 672.18,-101.82"/>
</a>
</g>
</g>
<!-- Node17 -->
<g id="Node000017" class="node">
<title>Node17</title>
<g id="a_Node000017"><a xlink:href="classmqtt_1_1mqttintegrator_1_1lib_1_1Mqtt.html#a211408365844787ce77340f454b9cbd0" target="_top" xlink:title=" ">
<polygon fill="white" stroke="#666666" points="646.38,-63.88 529.88,-63.88 529.88,-30.38 646.38,-30.38 646.38,-63.88"/>
<text xml:space="preserve" text-anchor="start" x="537.88" y="-50.38" font-family="Helvetica,sans-Serif" font-size="10.00">mqtt::mqttintegrator</text>
<text xml:space="preserve" text-anchor="middle" x="588.12" y="-37.62" font-family="Helvetica,sans-Serif" font-size="10.00">::lib::Mqtt::onPublish</text>
</a>
</g>
</g>
<!-- Node12&#45;&gt;Node17 -->
<g id="edge20_Node000012_Node000017" class="edge">
<title>Node12&#45;&gt;Node17</title>
<g id="a_edge20_Node000012_Node000017"><a xlink:title=" ">
<path fill="none" stroke="#63b8ff" d="M671.45,-65.85C663.19,-63.97 654.85,-62.07 646.81,-60.25"/>
<polygon fill="#63b8ff" stroke="#63b8ff" points="670.62,-69.25 681.15,-68.06 672.18,-62.43 670.62,-69.25"/>
</a>
</g>
</g>
<!-- Node13&#45;&gt;Node13 -->
<g id="edge14_Node000013_Node000013" class="edge">
<title>Node13&#45;&gt;Node13</title>
<g id="a_edge14_Node000013_Node000013"><a xlink:title=" ">
<path fill="none" stroke="#63b8ff" d="M614.3,-145.26C610.04,-149.22 601.31,-151.88 588.12,-151.88 564.68,-151.88 555.34,-143.49 560.1,-134.29"/>
<polygon fill="#63b8ff" stroke="#63b8ff" points="617.69,-146.22 615.89,-135.78 610.78,-145.06 617.69,-146.22"/>
</a>
</g>
</g>
<!-- Node14 -->
<g id="Node000014" class="node">
<title>Node14</title>
<g id="a_Node000014"><a xlink:href="classmqtt_1_1mqttbroker_1_1lib_1_1Mqtt_1_1DelayedQueue.html#abe935c28141087ad3eadf41acab44702" target="_top" xlink:title=" ">
<polygon fill="white" stroke="#666666" points="484.5,-191.25 362,-191.25 362,-145 484.5,-145 484.5,-191.25"/>
<text xml:space="preserve" text-anchor="start" x="370" y="-177.75" font-family="Helvetica,sans-Serif" font-size="10.00">mqtt::mqttbroker::lib</text>
<text xml:space="preserve" text-anchor="start" x="370" y="-165" font-family="Helvetica,sans-Serif" font-size="10.00">::Mqtt::DelayedQueue</text>
<text xml:space="preserve" text-anchor="middle" x="423.25" y="-152.25" font-family="Helvetica,sans-Serif" font-size="10.00">::processDue</text>
</a>
</g>
</g>
<!-- Node13&#45;&gt;Node14 -->
<g id="edge15_Node000013_Node000014" class="edge">
<title>Node13&#45;&gt;Node14</title>
<g id="a_edge15_Node000013_Node000014"><a xlink:title=" ">
<path fill="none" stroke="#63b8ff" d="M521.52,-137.67C509.44,-141.45 496.88,-145.38 484.96,-149.12"/>
<polygon fill="#63b8ff" stroke="#63b8ff" points="522.5,-141.03 530.99,-134.7 520.4,-134.35 522.5,-141.03"/>
</a>
</g>
</g>
<!-- Node15 -->
<g id="Node000015" class="node">
<title>Node15</title>
<g id="a_Node000015"><a xlink:href="classmqtt_1_1mqttbroker_1_1lib_1_1Mqtt_1_1DelayedQueue.html#a8becf2d97fc0f71a12ae5e84ea8b2a66" target="_top" xlink:title=" ">
<polygon fill="white" stroke="#666666" points="308,-191.25 185.5,-191.25 185.5,-145 308,-145 308,-191.25"/>
<text xml:space="preserve" text-anchor="start" x="193.5" y="-177.75" font-family="Helvetica,sans-Serif" font-size="10.00">mqtt::mqttbroker::lib</text>
<text xml:space="preserve" text-anchor="start" x="193.5" y="-165" font-family="Helvetica,sans-Serif" font-size="10.00">::Mqtt::DelayedQueue</text>
<text xml:space="preserve" text-anchor="middle" x="246.75" y="-152.25" font-family="Helvetica,sans-Serif" font-size="10.00">::armDelayTimer</text>
</a>
</g>
</g>
<!-- Node14&#45;&gt;Node15 -->
<g id="edge16_Node000014_Node000015" class="edge">
<title>Node14&#45;&gt;Node15</title>
<g id="a_edge16_Node000014_Node000015"><a xlink:title=" ">
<path fill="none" stroke="#63b8ff" d="M350.21,-168.12C336.35,-168.12 321.95,-168.12 308.48,-168.12"/>
<polygon fill="#63b8ff" stroke="#63b8ff" points="350.19,-171.63 360.19,-168.13 350.19,-164.63 350.19,-171.63"/>
</a>
</g>
</g>
<!-- Node15&#45;&gt;Node15 -->
<g id="edge17_Node000015_Node000015" class="edge">
<title>Node15&#45;&gt;Node15</title>
<g id="a_edge17_Node000015_Node000015"><a xlink:title=" ">
<path fill="none" stroke="#63b8ff" d="M275.78,-201.99C270.75,-206.36 261.08,-209.25 246.75,-209.25 222.62,-209.25 211.68,-201.05 213.95,-191.38"/>
<polygon fill="#63b8ff" stroke="#63b8ff" points="278.99,-203.4 279.05,-192.8 272.39,-201.05 278.99,-203.4"/>
</a>
</g>
</g>
<!-- Node16 -->
<g id="Node000016" class="node">
<title>Node16</title>
<g id="a_Node000016"><a xlink:href="classmqtt_1_1mqttbroker_1_1lib_1_1Mqtt_1_1DelayedQueue.html#a0cea5b90a1434e82da43bd2f4c6dd47c" target="_top" xlink:title=" ">
<polygon fill="white" stroke="#666666" points="131.5,-165.25 9,-165.25 9,-119 131.5,-119 131.5,-165.25"/>
<text xml:space="preserve" text-anchor="start" x="17" y="-151.75" font-family="Helvetica,sans-Serif" font-size="10.00">mqtt::mqttbroker::lib</text>
<text xml:space="preserve" text-anchor="start" x="17" y="-139" font-family="Helvetica,sans-Serif" font-size="10.00">::Mqtt::DelayedQueue</text>
<text xml:space="preserve" text-anchor="middle" x="70.25" y="-126.25" font-family="Helvetica,sans-Serif" font-size="10.00">::delayPublish</text>
</a>
</g>
</g>
<!-- Node15&#45;&gt;Node16 -->
<g id="edge18_Node000015_Node000016" class="edge">
<title>Node15&#45;&gt;Node16</title>
<g id="a_edge18_Node000015_Node000016"><a xlink:title=" ">
<path fill="none" stroke="#63b8ff" d="M174.13,-157.45C160.13,-155.37 145.58,-153.2 131.98,-151.17"/>
<polygon fill="#63b8ff" stroke="#63b8ff" points="173.3,-160.87 183.71,-158.88 174.34,-153.95 173.3,-160.87"/>
</a>
</g>
</g>
<!-- Node16&#45;&gt;Node13 -->
<g id="edge19_Node000016_Node000013" class="edge">
<title>Node16&#45;&gt;Node13</title>
<g id="a_edge19_Node000016_Node000013"><a xlink:title=" ">
<path fill="none" stroke="#63b8ff" d="M143.36,-137.91C154.45,-137.29 165.78,-136.68 176.5,-136.12 302.29,-129.63 449.82,-123.06 529.31,-119.6"/>
<polygon fill="#63b8ff" stroke="#63b8ff" points="143.21,-134.41 133.42,-138.47 143.6,-141.4 143.21,-134.41"/>
</a>
</g>
</g>
<!-- Node17&#45;&gt;Node17 -->
<g id="edge21_Node000017_Node000017" class="edge">
<title>Node17&#45;&gt;Node17</title>
<g id="a_edge21_Node000017_Node000017"><a xlink:title=" ">
<path fill="none" stroke="#63b8ff" d="M614.3,-75.26C610.04,-79.22 601.31,-81.88 588.12,-81.88 564.68,-81.88 555.34,-73.49 560.1,-64.29"/>
<polygon fill="#63b8ff" stroke="#63b8ff" points="617.69,-76.22 615.89,-65.78 610.78,-75.06 617.69,-76.22"/>
</a>
</g>
</g>
<!-- Node18 -->
<g id="Node000018" class="node">
<title>Node18</title>
<g id="a_Node000018"><a xlink:href="classmqtt_1_1mqttintegrator_1_1lib_1_1Mqtt_1_1DelayedQueue.html#ad8803a587bf94d106c9a501c01ac8ea8" target="_top" xlink:title=" ">
<polygon fill="white" stroke="#666666" points="493.5,-71.25 353,-71.25 353,-25 493.5,-25 493.5,-71.25"/>
<text xml:space="preserve" text-anchor="start" x="361" y="-57.75" font-family="Helvetica,sans-Serif" font-size="10.00">mqtt::mqttintegrator</text>
<text xml:space="preserve" text-anchor="start" x="361" y="-45" font-family="Helvetica,sans-Serif" font-size="10.00">::lib::Mqtt::DelayedQueue</text>
<text xml:space="preserve" text-anchor="middle" x="423.25" y="-32.25" font-family="Helvetica,sans-Serif" font-size="10.00">::processDue</text>
</a>
</g>
</g>
<!-- Node17&#45;&gt;Node18 -->
<g id="edge22_Node000017_Node000018" class="edge">
<title>Node17&#45;&gt;Node18</title>
<g id="a_edge22_Node000017_Node000018"><a xlink:title=" ">
<path fill="none" stroke="#63b8ff" d="M518.34,-47.55C510.19,-47.6 501.88,-47.65 493.73,-47.7"/>
<polygon fill="#63b8ff" stroke="#63b8ff" points="518.21,-51.05 528.19,-47.49 518.17,-44.05 518.21,-51.05"/>
</a>
</g>
</g>
<!-- Node19 -->
<g id="Node000019" class="node">
<title>Node19</title>
<g id="a_Node000019"><a xlink:href="classmqtt_1_1mqttintegrator_1_1lib_1_1Mqtt_1_1DelayedQueue.html#a110f0813ded3a278c42dab9337c2a723" target="_top" xlink:title=" ">
<polygon fill="white" stroke="#666666" points="317,-71.25 176.5,-71.25 176.5,-25 317,-25 317,-71.25"/>
<text xml:space="preserve" text-anchor="start" x="184.5" y="-57.75" font-family="Helvetica,sans-Serif" font-size="10.00">mqtt::mqttintegrator</text>
<text xml:space="preserve" text-anchor="start" x="184.5" y="-45" font-family="Helvetica,sans-Serif" font-size="10.00">::lib::Mqtt::DelayedQueue</text>
<text xml:space="preserve" text-anchor="middle" x="246.75" y="-32.25" font-family="Helvetica,sans-Serif" font-size="10.00">::armDelayTimer</text>
</a>
</g>
</g>
<!-- Node18&#45;&gt;Node19 -->
<g id="edge23_Node000018_Node000019" class="edge">
<title>Node18&#45;&gt;Node19</title>
<g id="a_edge23_Node000018_Node000019"><a xlink:title=" ">
<path fill="none" stroke="#63b8ff" d="M341.02,-48.12C333.11,-48.12 325.14,-48.12 317.36,-48.12"/>
<polygon fill="#63b8ff" stroke="#63b8ff" points="341.02,-51.63 351.02,-48.13 341.02,-44.63 341.02,-51.63"/>
</a>
</g>
</g>
<!-- Node19&#45;&gt;Node19 -->
<g id="edge24_Node000019_Node000019" class="edge">
<title>Node19&#45;&gt;Node19</title>
<g id="a_edge24_Node000019_Node000019"><a xlink:title=" ">
<path fill="none" stroke="#63b8ff" d="M275.78,-81.99C270.75,-86.36 261.08,-89.25 246.75,-89.25 222.62,-89.25 211.68,-81.05 213.95,-71.38"/>
<polygon fill="#63b8ff" stroke="#63b8ff" points="278.99,-83.4 279.05,-72.8 272.39,-81.05 278.99,-83.4"/>
</a>
</g>
</g>
<!-- Node20 -->
<g id="Node000020" class="node">
<title>Node20</title>
<g id="a_Node000020"><a xlink:href="classmqtt_1_1mqttintegrator_1_1lib_1_1Mqtt_1_1DelayedQueue.html#a95c8667b0cef676e6edcb1760ed4a7f9" target="_top" xlink:title=" ">
<polygon fill="white" stroke="#666666" points="140.5,-46.25 0,-46.25 0,0 140.5,0 140.5,-46.25"/>
<text xml:space="preserve" text-anchor="start" x="8" y="-32.75" font-family="Helvetica,sans-Serif" font-size="10.00">mqtt::mqttintegrator</text>
<text xml:space="preserve" text-anchor="start" x="8" y="-20" font-family="Helvetica,sans-Serif" font-size="10.00">::lib::Mqtt::DelayedQueue</text>
<text xml:space="preserve" text-anchor="middle" x="70.25" y="-7.25" font-family="Helvetica,sans-Serif" font-size="10.00">::delayPublish</text>
</a>
</g>
</g>
<!-- Node19&#45;&gt;Node20 -->
<g id="edge25_Node000019_Node000020" class="edge">
<title>Node19&#45;&gt;Node20</title>
<g id="a_edge25_Node000019_Node000020"><a xlink:title=" ">
<path fill="none" stroke="#63b8ff" d="M164.8,-36.53C156.8,-35.38 148.73,-34.23 140.86,-33.1"/>
<polygon fill="#63b8ff" stroke="#63b8ff" points="164.14,-39.97 174.53,-37.92 165.13,-33.04 164.14,-39.97"/>
</a>
</g>
</g>
<!-- Node20&#45;&gt;Node17 -->
<g id="edge26_Node000020_Node000017" class="edge">
<title>Node20&#45;&gt;Node17</title>
<g id="a_edge26_Node000020_Node000017"><a xlink:title=" ">
<path fill="none" stroke="#63b8ff" d="M152.35,-13.38C237.8,-5.07 376.03,2.82 493.5,-16.12 510.74,-18.91 529.11,-24.39 544.96,-29.99"/>
<polygon fill="#63b8ff" stroke="#63b8ff" points="152.01,-9.9 142.41,-14.38 152.71,-16.86 152.01,-9.9"/>
</a>
</g>
</g>
<!-- Node25 -->
<g id="Node000025" class="node">
<title>Node25</title>
<g id="a_Node000025"><a xlink:href="classinja_1_1Parser.html#aa756be380c1083f47c6bd774eb3c8c38" target="_top" xlink:title=" ">
<polygon fill="white" stroke="#666666" points="1438.5,-250.88 1328.75,-250.88 1328.75,-217.38 1438.5,-217.38 1438.5,-250.88"/>
<text xml:space="preserve" text-anchor="start" x="1336.75" y="-237.38" font-family="Helvetica,sans-Serif" font-size="10.00">inja::Parser::add_to</text>
<text xml:space="preserve" text-anchor="middle" x="1383.62" y="-224.62" font-family="Helvetica,sans-Serif" font-size="10.00">_template_storage</text>
</a>
</g>
</g>
<!-- Node24&#45;&gt;Node25 -->
<g id="edge31_Node000024_Node000025" class="edge">
<title>Node24&#45;&gt;Node25</title>
<g id="a_edge31_Node000024_Node000025"><a xlink:title=" ">
<path fill="none" stroke="#63b8ff" d="M1462.68,-234.12C1454.74,-234.12 1446.67,-234.12 1438.88,-234.12"/>
<polygon fill="#63b8ff" stroke="#63b8ff" points="1462.65,-237.63 1472.65,-234.13 1462.65,-230.63 1462.65,-237.63"/>
</a>
</g>
</g>
<!-- Node27 -->
<g id="Node000027" class="node">
<title>Node27</title>
<g id="a_Node000027"><a xlink:href="classinja_1_1Environment.html#a85717fc369572292cce46e42a32e38f5" target="_top" xlink:title=" ">
<polygon fill="white" stroke="#666666" points="1437.75,-198.88 1329.5,-198.88 1329.5,-165.38 1437.75,-165.38 1437.75,-198.88"/>
<text xml:space="preserve" text-anchor="start" x="1337.5" y="-185.38" font-family="Helvetica,sans-Serif" font-size="10.00">inja::Environment::</text>
<text xml:space="preserve" text-anchor="middle" x="1383.62" y="-172.62" font-family="Helvetica,sans-Serif" font-size="10.00">parse_template</text>
</a>
</g>
</g>
<!-- Node24&#45;&gt;Node27 -->
<g id="edge34_Node000024_Node000027" class="edge">
<title>Node24&#45;&gt;Node27</title>
<g id="a_edge34_Node000024_Node000027"><a xlink:title=" ">
<path fill="none" stroke="#63b8ff" d="M1468.22,-213.01C1455.86,-208.44 1442.94,-203.67 1431.05,-199.28"/>
<polygon fill="#63b8ff" stroke="#63b8ff" points="1466.89,-216.25 1477.48,-216.43 1469.31,-209.68 1466.89,-216.25"/>
</a>
</g>
</g>
<!-- Node25&#45;&gt;Node26 -->
<g id="edge32_Node000025_Node000026" class="edge">
<title>Node25&#45;&gt;Node26</title>
<g id="a_edge32_Node000025_Node000026"><a xlink:title=" ">
<path fill="none" stroke="#63b8ff" d="M1336.27,-256.17C1316.62,-265.51 1294.07,-276.23 1275.7,-284.97"/>
<polygon fill="#63b8ff" stroke="#63b8ff" points="1337.65,-259.39 1345.17,-251.93 1334.64,-253.07 1337.65,-259.39"/>
</a>
</g>
</g>
<!-- Node26&#45;&gt;Node6 -->
<g id="edge33_Node000026_Node000006" class="edge">
<title>Node26&#45;&gt;Node6</title>
<g id="a_edge33_Node000026_Node000006"><a xlink:title=" ">
<path fill="none" stroke="#63b8ff" d="M1302.08,-296.13C1385.02,-288.17 1530.69,-274.18 1613.98,-266.19"/>
<polygon fill="#63b8ff" stroke="#63b8ff" points="1301.94,-292.63 1292.32,-297.07 1302.61,-299.59 1301.94,-292.63"/>
</a>
</g>
</g>
<!-- Node28 -->
<g id="Node000028" class="node">
<title>Node28</title>
<g id="a_Node000028"><a xlink:href="classinja_1_1Environment.html#aec4165117f8d7242f813bb7859b86d18" target="_top" xlink:title=" ">
<polygon fill="white" stroke="#666666" points="1292.75,-250.88 1184.5,-250.88 1184.5,-217.38 1292.75,-217.38 1292.75,-250.88"/>
<text xml:space="preserve" text-anchor="start" x="1192.5" y="-237.38" font-family="Helvetica,sans-Serif" font-size="10.00">inja::Environment::</text>
<text xml:space="preserve" text-anchor="middle" x="1238.62" y="-224.62" font-family="Helvetica,sans-Serif" font-size="10.00">parse_file</text>
</a>
</g>
</g>
<!-- Node27&#45;&gt;Node28 -->
<g id="edge35_Node000027_Node000028" class="edge">
<title>Node27&#45;&gt;Node28</title>
<g id="a_edge35_Node000027_Node000028"><a xlink:title=" ">
<path fill="none" stroke="#63b8ff" d="M1324.94,-203.1C1312.27,-207.71 1299,-212.54 1286.8,-216.97"/>
<polygon fill="#63b8ff" stroke="#63b8ff" points="1325.78,-206.52 1333.98,-199.81 1323.39,-199.94 1325.78,-206.52"/>
</a>
</g>
</g>
<!-- Node29 -->
<g id="Node000029" class="node">
<title>Node29</title>
<g id="a_Node000029"><a xlink:href="classinja_1_1Environment.html#a3e30972fab0a5962c232f4c0f7002845" target="_top" xlink:title=" ">
<polygon fill="white" stroke="#666666" points="1292.75,-198.88 1184.5,-198.88 1184.5,-165.38 1292.75,-165.38 1292.75,-198.88"/>
<text xml:space="preserve" text-anchor="start" x="1192.5" y="-185.38" font-family="Helvetica,sans-Serif" font-size="10.00">inja::Environment::</text>
<text xml:space="preserve" text-anchor="middle" x="1238.62" y="-172.62" font-family="Helvetica,sans-Serif" font-size="10.00">render_file</text>
</a>
</g>
</g>
<!-- Node27&#45;&gt;Node29 -->
<g id="edge36_Node000027_Node000029" class="edge">
<title>Node27&#45;&gt;Node29</title>
<g id="a_edge36_Node000027_Node000029"><a xlink:title=" ">
<path fill="none" stroke="#63b8ff" d="M1318.04,-182.12C1309.64,-182.12 1301.11,-182.12 1292.92,-182.12"/>
<polygon fill="#63b8ff" stroke="#63b8ff" points="1317.86,-185.63 1327.86,-182.13 1317.86,-178.63 1317.86,-185.63"/>
</a>
</g>
</g>
<!-- Node30 -->
<g id="Node000030" class="node">
<title>Node30</title>
<g id="a_Node000030"><a xlink:href="classinja_1_1Environment.html#a815d87f3fb622a7639691803ff9a123b" target="_top" xlink:title=" ">
<polygon fill="white" stroke="#666666" points="1148.5,-226.88 1007.25,-226.88 1007.25,-193.38 1148.5,-193.38 1148.5,-226.88"/>
<text xml:space="preserve" text-anchor="start" x="1015.25" y="-213.38" font-family="Helvetica,sans-Serif" font-size="10.00">inja::Environment::</text>
<text xml:space="preserve" text-anchor="middle" x="1077.88" y="-200.62" font-family="Helvetica,sans-Serif" font-size="10.00">render_file_with_json_file</text>
</a>
</g>
</g>
<!-- Node29&#45;&gt;Node30 -->
<g id="edge37_Node000029_Node000030" class="edge">
<title>Node29&#45;&gt;Node30</title>
<g id="a_edge37_Node000029_Node000030"><a xlink:title=" ">
<path fill="none" stroke="#63b8ff" d="M1173.21,-193.49C1165.22,-194.9 1157.02,-196.34 1148.95,-197.76"/>
<polygon fill="#63b8ff" stroke="#63b8ff" points="1173.59,-196.97 1182.83,-191.79 1172.38,-190.08 1173.59,-196.97"/>
</a>
</g>
</g>
<!-- Node31 -->
<g id="Node000031" class="node">
<title>Node31</title>
<g id="a_Node000031"><a xlink:href="classinja_1_1Environment.html#ae64c18f23f81e8ee787d406ccd4d35dc" target="_top" xlink:title=" ">
<polygon fill="white" stroke="#666666" points="1132,-174.88 1023.75,-174.88 1023.75,-141.38 1132,-141.38 1132,-174.88"/>
<text xml:space="preserve" text-anchor="start" x="1031.75" y="-161.38" font-family="Helvetica,sans-Serif" font-size="10.00">inja::Environment::</text>
<text xml:space="preserve" text-anchor="middle" x="1077.88" y="-148.62" font-family="Helvetica,sans-Serif" font-size="10.00">write</text>
</a>
</g>
</g>
<!-- Node29&#45;&gt;Node31 -->
<g id="edge38_Node000029_Node000031" class="edge">
<title>Node29&#45;&gt;Node31</title>
<g id="a_edge38_Node000029_Node000031"><a xlink:title=" ">
<path fill="none" stroke="#63b8ff" d="M1173.11,-172.37C1159.56,-170.32 1145.4,-168.18 1132.31,-166.2"/>
<polygon fill="#63b8ff" stroke="#63b8ff" points="1172.41,-175.81 1182.83,-173.84 1173.46,-168.88 1172.41,-175.81"/>
</a>
</g>
</g>
<!-- Node32 -->
<g id="Node000032" class="node">
<title>Node32</title>
<g id="a_Node000032"><a xlink:href="classinja_1_1Environment.html#ad6a6b713e78516f4f6fd68c58f309f3c" target="_top" xlink:title=" ">
<polygon fill="white" stroke="#666666" points="963,-174.88 849.5,-174.88 849.5,-141.38 963,-141.38 963,-174.88"/>
<text xml:space="preserve" text-anchor="start" x="857.5" y="-161.38" font-family="Helvetica,sans-Serif" font-size="10.00">inja::Environment::</text>
<text xml:space="preserve" text-anchor="middle" x="906.25" y="-148.62" font-family="Helvetica,sans-Serif" font-size="10.00">write_with_json_file</text>
</a>
</g>
</g>
<!-- Node31&#45;&gt;Node32 -->
<g id="edge39_Node000031_Node000032" class="edge">
<title>Node31&#45;&gt;Node32</title>
<g id="a_edge39_Node000031_Node000032"><a xlink:title=" ">
<path fill="none" stroke="#63b8ff" d="M1012.2,-158.12C996.16,-158.12 979.1,-158.12 963.49,-158.12"/>
<polygon fill="#63b8ff" stroke="#63b8ff" points="1012.16,-161.63 1022.16,-158.13 1012.16,-154.63 1012.16,-161.63"/>
</a>
</g>
</g>
<!-- Node33&#45;&gt;Node4 -->
<g id="edge44_Node000033_Node000004" class="edge">
<title>Node33&#45;&gt;Node4</title>
<g id="a_edge44_Node000033_Node000004"><a xlink:title=" ">
<path fill="none" stroke="#63b8ff" d="M2045.9,-363.15C2037.82,-363.04 2029.72,-362.93 2021.97,-362.82"/>
<polygon fill="#63b8ff" stroke="#63b8ff" points="2045.7,-366.65 2055.75,-363.29 2045.8,-359.65 2045.7,-366.65"/>
</a>
</g>
</g>
<!-- Node34&#45;&gt;Node2 -->
<g id="edge46_Node000034_Node000002" class="edge">
<title>Node34&#45;&gt;Node2</title>
<g id="a_edge46_Node000034_Node000002"><a xlink:title=" ">
<path fill="none" stroke="#63b8ff" d="M2335.32,-316.11C2327.04,-316 2318.77,-315.88 2310.95,-315.78"/>
<polygon fill="#63b8ff" stroke="#63b8ff" points="2335.02,-319.61 2345.07,-316.25 2335.12,-312.61 2335.02,-319.61"/>
</a>
</g>
</g>
<!-- Node35&#45;&gt;Node6 -->
<g id="edge48_Node000035_Node000006" class="edge">
<title>Node35&#45;&gt;Node6</title>
<g id="a_edge48_Node000035_Node000006"><a xlink:title=" ">
<path fill="none" stroke="#63b8ff" d="M2203.59,-243.03C2093.5,-246.62 1856.12,-254.36 1742.39,-258.06"/>
<polygon fill="#63b8ff" stroke="#63b8ff" points="2203.4,-246.54 2213.28,-242.71 2203.17,-239.54 2203.4,-246.54"/>
</a>
</g>
</g>
</g>
</svg>

<g id="navigator" transform="translate(0 0)" fill="#404254">
  <rect fill="#f2f5e9" fill-opacity="0.5" stroke="#606060" stroke-width=".5" x="0" y="0" width="60" height="60"/>
  <use id="zoomplus" xlink:href="#zoomPlus" x="17" y="9" onmousedown="handleZoom(evt,'in')"/>
  <use id="zoomminus" xlink:href="#zoomMin" x="42" y="9" onmousedown="handleZoom(evt,'out')"/>
  <use id="reset" xlink:href="#resetDef" x="30" y="36" onmousedown="handleReset()"/>
   <use id="arrowup" xlink:href="#arrowUp" x="0" y="0" onmousedown="handlePan(0,-1)"/>
  <use id="arrowright" xlink:href="#arrowRight" x="0" y="0" onmousedown="handlePan(1,0)"/>
  <use id="arrowdown" xlink:href="#arrowDown" x="0" y="0" onmousedown="handlePan(0,1)"/>
  <use id="arrowleft" xlink:href="#arrowLeft" x="0" y="0" onmousedown="handlePan(-1,0)"/>
</g>
<svg viewBox="0 0 15 15" width="100%" height="30px" preserveAspectRatio="xMaxYMin meet">
 <g id="arrow_out" transform="scale(0.3 0.3)">
  <a xlink:href="namespaceinja_1_1string__view_a78e9922c080101c22e54419f7caa83d8_icgraph_org.svg" target="_base">
   <rect id="button" ry="5" rx="5" y="6" x="6" height="38" width="38"
        fill="#f2f5e9" fill-opacity="0.5" stroke="#606060" stroke-width="1.0"/>
   <path id="arrow"
     d="M 11.500037,31.436501 C 11.940474,20.09759 22.043105,11.32322 32.158766,21.979434 L 37.068811,17.246167 C 37.068811,17.246167 37.088388,32 37.088388,32 L 22.160133,31.978069 C 22.160133,31.978069 26.997745,27.140456 26.997745,27.140456 C 18.528582,18.264221 13.291696,25.230495 11.500037,31.436501 z"
     style="fill:#404040;"/>
  </a>
 </g>
</svg>

<style type='text/css'>
<![CDATA[
[data-mouse-over-selected='false'] { opacity: 0.7; }
[data-mouse-over-selected='true']  { opacity: 1.0; }
]]>
</style>
<script type="application/ecmascript"><![CDATA[
document.addEventListener('DOMContentLoaded', (event) => {
  highlightEdges();
  highlightAdjacentNodes();
});
]]></script>
</svg>
