<?xml version="1.0" encoding="UTF-8" standalone="no"?>
<!DOCTYPE svg PUBLIC "-//W3C//DTD SVG 1.1//EN"
 "http://www.w3.org/Graphics/SVG/1.1/DTD/svg11.dtd">
<!-- Generated by graphviz version 14.1.1 (0)
 -->
<!-- Title: inja::render_to Pages: 1 -->
<svg width="1990pt" height="636pt"
 viewBox="0.00 0.00 1990.00 636.00" xmlns="http://www.w3.org/2000/svg" xmlns:xlink="http://www.w3.org/1999/xlink">
<g id="graph0" class="graph" transform="scale(1 1) rotate(0) translate(4 632.38)">
<title>inja::render_to</title>
<!-- Node1 -->
<g id="Node000001" class="node">
<title>Node1</title>
<g id="a_Node000001"><a xlink:title="render with default settings to the given output stream">
<polygon fill="#999999" stroke="#666666" points="86.5,-144.75 0,-144.75 0,-124 86.5,-124 86.5,-144.75"/>
<text xml:space="preserve" text-anchor="middle" x="43.25" y="-131.25" font-family="Helvetica,sans-Serif" font-size="10.00">inja::render_to</text>
</a>
</g>
</g>
<!-- Node2 -->
<g id="Node000002" class="node">
<title>Node2</title>
<g id="a_Node000002"><a xlink:href="classinja_1_1Environment.html#a8421b8d61fc4de15f29c909bd7154f92" target="_top" xlink:title=" ">
<polygon fill="white" stroke="#666666" points="230.75,-151.12 122.5,-151.12 122.5,-117.62 230.75,-117.62 230.75,-151.12"/>
<text xml:space="preserve" text-anchor="start" x="130.5" y="-137.62" font-family="Helvetica,sans-Serif" font-size="10.00">inja::Environment::</text>
<text xml:space="preserve" text-anchor="middle" x="176.62" y="-124.88" font-family="Helvetica,sans-Serif" font-size="10.00">parse</text>
</a>
</g>
</g>
<!-- Node1&#45;&gt;Node2 -->
<g id="edge1_Node000001_Node000002" class="edge">
<title>Node1&#45;&gt;Node2</title>
<g id="a_edge1_Node000001_Node000002"><a xlink:title=" ">
<path fill="none" stroke="#63b8ff" d="M86.9,-134.38C94.54,-134.38 102.66,-134.38 110.75,-134.38"/>
<polygon fill="#63b8ff" stroke="#63b8ff" points="110.63,-137.88 120.63,-134.38 110.63,-130.88 110.63,-137.88"/>
</a>
</g>
</g>
<!-- Node3 -->
<g id="Node000003" class="node">
<title>Node3</title>
<g id="a_Node000003"><a xlink:href="classinja_1_1Parser.html#a0f1312b0bf8691aba6cc4590169902fc" target="_top" xlink:title=" ">
<polygon fill="white" stroke="#666666" points="370.5,-144.75 266.75,-144.75 266.75,-124 370.5,-124 370.5,-144.75"/>
<text xml:space="preserve" text-anchor="middle" x="318.62" y="-131.25" font-family="Helvetica,sans-Serif" font-size="10.00">inja::Parser::parse</text>
</a>
</g>
</g>
<!-- Node2&#45;&gt;Node3 -->
<g id="edge2_Node000002_Node000003" class="edge">
<title>Node2&#45;&gt;Node3</title>
<g id="a_edge2_Node000002_Node000003"><a xlink:title=" ">
<path fill="none" stroke="#63b8ff" d="M230.95,-134.38C238.83,-134.38 247.01,-134.38 255.05,-134.38"/>
<polygon fill="#63b8ff" stroke="#63b8ff" points="254.78,-137.88 264.78,-134.38 254.78,-130.88 254.78,-137.88"/>
</a>
</g>
</g>
<!-- Node4 -->
<g id="Node000004" class="node">
<title>Node4</title>
<g id="a_Node000004"><a xlink:href="classinja_1_1Parser.html#a9a561141f71073df671b2b7ecb4608ba" target="_top" xlink:title=" ">
<polygon fill="white" stroke="#666666" points="534.25,-291.75 406.5,-291.75 406.5,-271 534.25,-271 534.25,-291.75"/>
<text xml:space="preserve" text-anchor="middle" x="470.38" y="-278.25" font-family="Helvetica,sans-Serif" font-size="10.00">inja::Parser::parse_into</text>
</a>
</g>
</g>
<!-- Node3&#45;&gt;Node4 -->
<g id="edge3_Node000003_Node000004" class="edge">
<title>Node3&#45;&gt;Node4</title>
<g id="a_edge3_Node000003_Node000004"><a xlink:title=" ">
<path fill="none" stroke="#63b8ff" d="M330.39,-144.95C355.53,-169.62 418.33,-231.27 450.19,-262.54"/>
<polygon fill="#63b8ff" stroke="#63b8ff" points="447.63,-264.93 457.22,-269.44 452.53,-259.94 447.63,-264.93"/>
</a>
</g>
</g>
<!-- Node34 -->
<g id="Node000034" class="node">
<title>Node34</title>
<g id="a_Node000034"><a xlink:href="structinja_1_1Template.html#a0f073d8168095f8ce86d0c7ac9060948" target="_top" xlink:title=" ">
<polygon fill="white" stroke="#666666" points="991.75,-20.75 855.75,-20.75 855.75,0 991.75,0 991.75,-20.75"/>
<text xml:space="preserve" text-anchor="middle" x="923.75" y="-7.25" font-family="Helvetica,sans-Serif" font-size="10.00">inja::Template::Template</text>
</a>
</g>
</g>
<!-- Node3&#45;&gt;Node34 -->
<g id="edge58_Node000003_Node000034" class="edge">
<title>Node3&#45;&gt;Node34</title>
<g id="a_edge58_Node000003_Node000034"><a xlink:title=" ">
<path fill="none" stroke="#63b8ff" d="M355.46,-123.57C403.85,-109.26 492.96,-83.91 570.25,-67.38 663.76,-47.37 772.55,-30.78 844.27,-20.75"/>
<polygon fill="#63b8ff" stroke="#63b8ff" points="844.53,-24.25 853.95,-19.41 843.57,-17.31 844.53,-24.25"/>
</a>
</g>
</g>
<!-- Node5 -->
<g id="Node000005" class="node">
<title>Node5</title>
<g id="a_Node000005"><a xlink:href="structinja_1_1Token.html#adc8c0a84e2d4ce0a3625c399bd259f1f" target="_top" xlink:title=" ">
<polygon fill="white" stroke="#666666" points="1149.5,-200.75 1034.5,-200.75 1034.5,-180 1149.5,-180 1149.5,-200.75"/>
<text xml:space="preserve" text-anchor="middle" x="1092" y="-187.25" font-family="Helvetica,sans-Serif" font-size="10.00">inja::Token::describe</text>
</a>
</g>
</g>
<!-- Node4&#45;&gt;Node5 -->
<g id="edge4_Node000004_Node000005" class="edge">
<title>Node4&#45;&gt;Node5</title>
<g id="a_edge4_Node000004_Node000005"><a xlink:title=" ">
<path fill="none" stroke="#63b8ff" d="M490.57,-270.63C510.13,-260.02 541.59,-243.9 570.25,-233.38 747.33,-168.33 803.22,-176.73 991.75,-183.38 1001.83,-183.73 1012.47,-184.29 1022.9,-184.94"/>
<polygon fill="#63b8ff" stroke="#63b8ff" points="1022.37,-188.41 1032.58,-185.57 1022.83,-181.42 1022.37,-188.41"/>
</a>
</g>
</g>
<!-- Node6 -->
<g id="Node000006" class="node">
<title>Node6</title>
<g id="a_Node000006"><a xlink:href="classinja_1_1Parser.html#ab8bb45bc1eeead74f630efa420ee6212" target="_top" xlink:title=" ">
<polygon fill="white" stroke="#666666" points="1151.75,-448.12 1032.25,-448.12 1032.25,-414.62 1151.75,-414.62 1151.75,-448.12"/>
<text xml:space="preserve" text-anchor="start" x="1040.25" y="-434.62" font-family="Helvetica,sans-Serif" font-size="10.00">inja::Parser::get_next</text>
<text xml:space="preserve" text-anchor="middle" x="1092" y="-421.88" font-family="Helvetica,sans-Serif" font-size="10.00">_token</text>
</a>
</g>
</g>
<!-- Node4&#45;&gt;Node6 -->
<g id="edge5_Node000004_Node000006" class="edge">
<title>Node4&#45;&gt;Node6</title>
<g id="a_edge5_Node000004_Node000006"><a xlink:title=" ">
<path fill="none" stroke="#63b8ff" d="M483.14,-291.9C516,-320.44 612.74,-398.76 710,-422.38 816.02,-448.12 943.53,-444.43 1020.86,-438.55"/>
<polygon fill="#63b8ff" stroke="#63b8ff" points="1020.7,-442.07 1030.39,-437.79 1020.14,-435.1 1020.7,-442.07"/>
</a>
</g>
</g>
<!-- Node19 -->
<g id="Node000019" class="node">
<title>Node19</title>
<g id="a_Node000019"><a xlink:href="classinja_1_1Parser.html#aeb66164c89e8c71cae3c93c24d7c7be2" target="_top" xlink:title=" ">
<polygon fill="white" stroke="#666666" points="816.75,-413.12 713,-413.12 713,-379.62 816.75,-379.62 816.75,-413.12"/>
<text xml:space="preserve" text-anchor="start" x="721" y="-399.62" font-family="Helvetica,sans-Serif" font-size="10.00">inja::Parser::parse</text>
<text xml:space="preserve" text-anchor="middle" x="764.88" y="-386.88" font-family="Helvetica,sans-Serif" font-size="10.00">_expression</text>
</a>
</g>
</g>
<!-- Node4&#45;&gt;Node19 -->
<g id="edge26_Node000004_Node000019" class="edge">
<title>Node4&#45;&gt;Node19</title>
<g id="a_edge26_Node000004_Node000019"><a xlink:title=" ">
<path fill="none" stroke="#63b8ff" d="M498.89,-292.19C547.02,-311.12 647.3,-350.54 709.75,-375.1"/>
<polygon fill="#63b8ff" stroke="#63b8ff" points="708.2,-378.25 718.79,-378.65 710.76,-371.73 708.2,-378.25"/>
</a>
</g>
</g>
<!-- Node23 -->
<g id="Node000023" class="node">
<title>Node23</title>
<g id="a_Node000023"><a xlink:href="classinja_1_1Parser.html#a1b11e4984c1934c4e670a609f728ceee" target="_top" xlink:title=" ">
<polygon fill="white" stroke="#666666" points="1144.25,-269.12 1039.75,-269.12 1039.75,-235.62 1144.25,-235.62 1144.25,-269.12"/>
<text xml:space="preserve" text-anchor="start" x="1047.75" y="-255.62" font-family="Helvetica,sans-Serif" font-size="10.00">inja::Parser::throw</text>
<text xml:space="preserve" text-anchor="middle" x="1092" y="-242.88" font-family="Helvetica,sans-Serif" font-size="10.00">_parser_error</text>
</a>
</g>
</g>
<!-- Node4&#45;&gt;Node23 -->
<g id="edge57_Node000004_Node000023" class="edge">
<title>Node4&#45;&gt;Node23</title>
<g id="a_edge57_Node000004_Node000023"><a xlink:title=" ">
<path fill="none" stroke="#63b8ff" d="M534.66,-284.32C546.48,-284.76 558.74,-285.14 570.25,-285.38 757.68,-289.16 805.41,-289.95 991.75,-269.38 1003.54,-268.07 1016.04,-266.27 1028.06,-264.32"/>
<polygon fill="#63b8ff" stroke="#63b8ff" points="1028.62,-267.77 1037.9,-262.67 1027.46,-260.87 1028.62,-267.77"/>
</a>
</g>
</g>
<!-- Node28 -->
<g id="Node000028" class="node">
<title>Node28</title>
<g id="a_Node000028"><a xlink:href="classinja_1_1Parser.html#a5a26bdcce0ae076bf010ee7442d8928e" target="_top" xlink:title=" ">
<polygon fill="white" stroke="#666666" points="674,-276.12 570.25,-276.12 570.25,-242.62 674,-242.62 674,-276.12"/>
<text xml:space="preserve" text-anchor="start" x="578.25" y="-262.62" font-family="Helvetica,sans-Serif" font-size="10.00">inja::Parser::parse</text>
<text xml:space="preserve" text-anchor="middle" x="622.12" y="-249.88" font-family="Helvetica,sans-Serif" font-size="10.00">_statement</text>
</a>
</g>
</g>
<!-- Node4&#45;&gt;Node28 -->
<g id="edge40_Node000004_Node000028" class="edge">
<title>Node4&#45;&gt;Node28</title>
<g id="a_edge40_Node000004_Node000028"><a xlink:title=" ">
<path fill="none" stroke="#63b8ff" d="M534.45,-272.11C542.49,-270.93 550.72,-269.72 558.75,-268.54"/>
<polygon fill="#63b8ff" stroke="#63b8ff" points="559.04,-272.03 568.43,-267.12 558.03,-265.11 559.04,-272.03"/>
</a>
</g>
</g>
<!-- Node36 -->
<g id="Node000036" class="node">
<title>Node36</title>
<g id="a_Node000036"><a xlink:href="classinja_1_1Lexer.html#afab5a4a53539d89c7441f249a751da01" target="_top" xlink:title=" ">
<polygon fill="white" stroke="#666666" points="669.88,-569.75 574.38,-569.75 574.38,-549 669.88,-549 669.88,-569.75"/>
<text xml:space="preserve" text-anchor="middle" x="622.12" y="-556.25" font-family="Helvetica,sans-Serif" font-size="10.00">inja::Lexer::start</text>
</a>
</g>
</g>
<!-- Node4&#45;&gt;Node36 -->
<g id="edge55_Node000004_Node000036" class="edge">
<title>Node4&#45;&gt;Node36</title>
<g id="a_edge55_Node000004_Node000036"><a xlink:title=" ">
<path fill="none" stroke="#63b8ff" d="M477.06,-291.93C499.2,-333.04 579.9,-482.83 609.84,-538.42"/>
<polygon fill="#63b8ff" stroke="#63b8ff" points="606.73,-540.03 614.55,-547.17 612.89,-536.71 606.73,-540.03"/>
</a>
</g>
</g>
<!-- Node7 -->
<g id="Node000007" class="node">
<title>Node7</title>
<g id="a_Node000007"><a xlink:href="classinja_1_1Lexer.html#a8c85efa9536869c371b8afb609e0d8d2" target="_top" xlink:title=" ">
<polygon fill="white" stroke="#666666" points="1293.75,-441.75 1198.25,-441.75 1198.25,-421 1293.75,-421 1293.75,-441.75"/>
<text xml:space="preserve" text-anchor="middle" x="1246" y="-428.25" font-family="Helvetica,sans-Serif" font-size="10.00">inja::Lexer::scan</text>
</a>
</g>
</g>
<!-- Node6&#45;&gt;Node7 -->
<g id="edge6_Node000006_Node000007" class="edge">
<title>Node6&#45;&gt;Node7</title>
<g id="a_edge6_Node000006_Node000007"><a xlink:title=" ">
<path fill="none" stroke="#63b8ff" d="M1152.2,-431.38C1163.46,-431.38 1175.24,-431.38 1186.48,-431.38"/>
<polygon fill="#63b8ff" stroke="#63b8ff" points="1186.44,-434.88 1196.44,-431.38 1186.44,-427.88 1186.44,-434.88"/>
</a>
</g>
</g>
<!-- Node8 -->
<g id="Node000008" class="node">
<title>Node8</title>
<g id="a_Node000008"><a xlink:href="classinja_1_1Lexer.html#a0f4034e3151f72f121fb4f2b63374ce1" target="_top" xlink:title=" ">
<polygon fill="white" stroke="#666666" points="1474.75,-382.12 1335.75,-382.12 1335.75,-348.62 1474.75,-348.62 1474.75,-382.12"/>
<text xml:space="preserve" text-anchor="start" x="1343.75" y="-368.62" font-family="Helvetica,sans-Serif" font-size="10.00">inja::Lexer::clear</text>
<text xml:space="preserve" text-anchor="middle" x="1405.25" y="-355.88" font-family="Helvetica,sans-Serif" font-size="10.00">_final_line_if_whitespace</text>
</a>
</g>
</g>
<!-- Node7&#45;&gt;Node8 -->
<g id="edge7_Node000007_Node000008" class="edge">
<title>Node7&#45;&gt;Node8</title>
<g id="a_edge7_Node000007_Node000008"><a xlink:title=" ">
<path fill="none" stroke="#63b8ff" d="M1269.82,-420.63C1287.65,-412.35 1313.11,-400.76 1335.75,-391.38 1339.5,-389.82 1343.37,-388.25 1347.28,-386.69"/>
<polygon fill="#63b8ff" stroke="#63b8ff" points="1348.23,-390.08 1356.26,-383.17 1345.68,-383.57 1348.23,-390.08"/>
</a>
</g>
</g>
<!-- Node9 -->
<g id="Node000009" class="node">
<title>Node9</title>
<g id="a_Node000009"><a xlink:href="classinja_1_1Lexer.html#a6088871283d1a03087b325b88c9396f4" target="_top" xlink:title=" ">
<polygon fill="white" stroke="#666666" points="1840.88,-382.75 1708.62,-382.75 1708.62,-362 1840.88,-362 1840.88,-382.75"/>
<text xml:space="preserve" text-anchor="middle" x="1774.75" y="-369.25" font-family="Helvetica,sans-Serif" font-size="10.00">inja::Lexer::make_token</text>
</a>
</g>
</g>
<!-- Node7&#45;&gt;Node9 -->
<g id="edge8_Node000007_Node000009" class="edge">
<title>Node7&#45;&gt;Node9</title>
<g id="a_edge8_Node000007_Node000009"><a xlink:title=" ">
<path fill="none" stroke="#63b8ff" d="M1261.85,-442.11C1318.45,-481.62 1524.75,-612.57 1670,-533.38 1725.08,-503.34 1755.33,-430.13 1767.43,-393.69"/>
<polygon fill="#63b8ff" stroke="#63b8ff" points="1770.72,-394.9 1770.39,-384.31 1764.04,-392.79 1770.72,-394.9"/>
</a>
</g>
</g>
<!-- Node10 -->
<g id="Node000010" class="node">
<title>Node10</title>
<g id="a_Node000010"><a xlink:href="namespaceinja_1_1string__view.html#a898871016595d8f34d1b4ea55b3e8684" target="_top" xlink:title=" ">
<polygon fill="white" stroke="#666666" points="1981.75,-221.12 1879.5,-221.12 1879.5,-187.62 1981.75,-187.62 1981.75,-221.12"/>
<text xml:space="preserve" text-anchor="start" x="1887.5" y="-207.62" font-family="Helvetica,sans-Serif" font-size="10.00">inja::string_view::</text>
<text xml:space="preserve" text-anchor="middle" x="1930.62" y="-194.88" font-family="Helvetica,sans-Serif" font-size="10.00">slice</text>
</a>
</g>
</g>
<!-- Node7&#45;&gt;Node10 -->
<g id="edge23_Node000007_Node000010" class="edge">
<title>Node7&#45;&gt;Node10</title>
<g id="a_edge23_Node000007_Node000010"><a xlink:title=" ">
<path fill="none" stroke="#63b8ff" d="M1255.53,-420.59C1285.56,-383.66 1391,-262.44 1510.75,-223.38 1632.37,-183.7 1784.4,-189.54 1867.78,-197.11"/>
<polygon fill="#63b8ff" stroke="#63b8ff" points="1867.29,-200.57 1877.57,-198.04 1867.95,-193.61 1867.29,-200.57"/>
</a>
</g>
</g>
<!-- Node11 -->
<g id="Node000011" class="node">
<title>Node11</title>
<g id="a_Node000011"><a xlink:href="structinja_1_1Token.html#ae215b2b1e365fc7c4060895b604e2430" target="_top" xlink:title=" ">
<polygon fill="white" stroke="#666666" points="1981.38,-491.75 1879.88,-491.75 1879.88,-471 1981.38,-471 1981.38,-491.75"/>
<text xml:space="preserve" text-anchor="middle" x="1930.62" y="-478.25" font-family="Helvetica,sans-Serif" font-size="10.00">inja::Token::Token</text>
</a>
</g>
</g>
<!-- Node7&#45;&gt;Node11 -->
<g id="edge25_Node000007_Node000011" class="edge">
<title>Node7&#45;&gt;Node11</title>
<g id="a_edge25_Node000007_Node000011"><a xlink:title=" ">
<path fill="none" stroke="#63b8ff" d="M1252.96,-441.99C1265.34,-462.98 1296.07,-509.6 1335.75,-531.38 1404.81,-569.26 1432.23,-553.13 1510.75,-559.38 1581.31,-564.98 1599.97,-569.67 1670,-559.38 1751.38,-547.41 1842.66,-515.43 1892.38,-496.33"/>
<polygon fill="#63b8ff" stroke="#63b8ff" points="1893.47,-499.67 1901.52,-492.79 1890.93,-493.14 1893.47,-499.67"/>
</a>
</g>
</g>
<!-- Node12 -->
<g id="Node000012" class="node">
<title>Node12</title>
<g id="a_Node000012"><a xlink:href="classinja_1_1Lexer.html#aa342980e23b7a9fa633e82cf38c3c682" target="_top" xlink:title=" ">
<polygon fill="white" stroke="#666666" points="1467.62,-420.75 1342.88,-420.75 1342.88,-400 1467.62,-400 1467.62,-420.75"/>
<text xml:space="preserve" text-anchor="middle" x="1405.25" y="-407.25" font-family="Helvetica,sans-Serif" font-size="10.00">inja::Lexer::scan_body</text>
</a>
</g>
</g>
<!-- Node7&#45;&gt;Node12 -->
<g id="edge11_Node000007_Node000012" class="edge">
<title>Node7&#45;&gt;Node12</title>
<g id="a_edge11_Node000007_Node000012"><a xlink:title=" ">
<path fill="none" stroke="#63b8ff" d="M1294.18,-425.07C1305.94,-423.5 1318.81,-421.78 1331.49,-420.09"/>
<polygon fill="#63b8ff" stroke="#63b8ff" points="1331.59,-423.61 1341.04,-418.82 1330.66,-416.67 1331.59,-423.61"/>
</a>
</g>
</g>
<!-- Node16 -->
<g id="Node000016" class="node">
<title>Node16</title>
<g id="a_Node000016"><a xlink:href="classinja_1_1Lexer.html#ae4dcb266522442d430dcb8d381b5fdb1" target="_top" xlink:title=" ">
<polygon fill="white" stroke="#666666" points="1670,-472.12 1510.75,-472.12 1510.75,-438.62 1670,-438.62 1670,-472.12"/>
<text xml:space="preserve" text-anchor="start" x="1518.75" y="-458.62" font-family="Helvetica,sans-Serif" font-size="10.00">inja::Lexer::skip_whitespaces</text>
<text xml:space="preserve" text-anchor="middle" x="1590.38" y="-445.88" font-family="Helvetica,sans-Serif" font-size="10.00">_and_first_newline</text>
</a>
</g>
</g>
<!-- Node7&#45;&gt;Node16 -->
<g id="edge22_Node000007_Node000016" class="edge">
<title>Node7&#45;&gt;Node16</title>
<g id="a_edge22_Node000007_Node000016"><a xlink:title=" ">
<path fill="none" stroke="#63b8ff" d="M1294.25,-434.69C1346.96,-438.38 1433.48,-444.45 1499.24,-449.06"/>
<polygon fill="#63b8ff" stroke="#63b8ff" points="1498.71,-452.53 1508.93,-449.74 1499.2,-445.54 1498.71,-452.53"/>
</a>
</g>
</g>
<!-- Node18 -->
<g id="Node000018" class="node">
<title>Node18</title>
<g id="a_Node000018"><a xlink:href="namespaceinja_1_1string__view.html#a78e9922c080101c22e54419f7caa83d8" target="_top" xlink:title=" ">
<polygon fill="white" stroke="#666666" points="1641.5,-524.12 1539.25,-524.12 1539.25,-490.62 1641.5,-490.62 1641.5,-524.12"/>
<text xml:space="preserve" text-anchor="start" x="1547.25" y="-510.62" font-family="Helvetica,sans-Serif" font-size="10.00">inja::string_view::</text>
<text xml:space="preserve" text-anchor="middle" x="1590.38" y="-497.88" font-family="Helvetica,sans-Serif" font-size="10.00">starts_with</text>
</a>
</g>
</g>
<!-- Node7&#45;&gt;Node18 -->
<g id="edge24_Node000007_Node000018" class="edge">
<title>Node7&#45;&gt;Node18</title>
<g id="a_edge24_Node000007_Node000018"><a xlink:title=" ">
<path fill="none" stroke="#63b8ff" d="M1283.11,-442.22C1299.15,-446.86 1318.32,-452.17 1335.75,-456.38 1400.9,-472.08 1476.27,-486.8 1527.81,-496.35"/>
<polygon fill="#63b8ff" stroke="#63b8ff" points="1527.12,-499.79 1537.59,-498.16 1528.39,-492.9 1527.12,-499.79"/>
</a>
</g>
</g>
<!-- Node9&#45;&gt;Node10 -->
<g id="edge9_Node000009_Node000010" class="edge">
<title>Node9&#45;&gt;Node10</title>
<g id="a_edge9_Node000009_Node000010"><a xlink:title=" ">
<path fill="none" stroke="#63b8ff" d="M1785.61,-361.61C1809.68,-335.33 1871.98,-267.31 1906.22,-229.92"/>
<polygon fill="#63b8ff" stroke="#63b8ff" points="1908.69,-232.41 1912.86,-222.68 1903.53,-227.69 1908.69,-232.41"/>
</a>
</g>
</g>
<!-- Node9&#45;&gt;Node11 -->
<g id="edge10_Node000009_Node000011" class="edge">
<title>Node9&#45;&gt;Node11</title>
<g id="a_edge10_Node000009_Node000011"><a xlink:title=" ">
<path fill="none" stroke="#63b8ff" d="M1791.07,-383.22C1817.8,-402.16 1873.16,-441.38 1905.23,-464.09"/>
<polygon fill="#63b8ff" stroke="#63b8ff" points="1902.95,-466.77 1913.14,-469.69 1907,-461.06 1902.95,-466.77"/>
</a>
</g>
</g>
<!-- Node12&#45;&gt;Node9 -->
<g id="edge12_Node000012_Node000009" class="edge">
<title>Node12&#45;&gt;Node9</title>
<g id="a_edge12_Node000012_Node000009"><a xlink:title=" ">
<path fill="none" stroke="#63b8ff" d="M1467.99,-407.84C1521.56,-405.18 1601.12,-400.14 1670,-391.38 1682.86,-389.74 1696.53,-387.56 1709.59,-385.25"/>
<polygon fill="#63b8ff" stroke="#63b8ff" points="1710.17,-388.71 1719.39,-383.48 1708.92,-381.82 1710.17,-388.71"/>
</a>
</g>
</g>
<!-- Node13 -->
<g id="Node000013" class="node">
<title>Node13</title>
<g id="a_Node000013"><a xlink:href="classinja_1_1Lexer.html#acb4ddc9702038530f73db97c701a60a5" target="_top" xlink:title=" ">
<polygon fill="white" stroke="#666666" points="1645.25,-382.75 1535.5,-382.75 1535.5,-362 1645.25,-362 1645.25,-382.75"/>
<text xml:space="preserve" text-anchor="middle" x="1590.38" y="-369.25" font-family="Helvetica,sans-Serif" font-size="10.00">inja::Lexer::scan_id</text>
</a>
</g>
</g>
<!-- Node12&#45;&gt;Node13 -->
<g id="edge13_Node000012_Node000013" class="edge">
<title>Node12&#45;&gt;Node13</title>
<g id="a_edge13_Node000012_Node000013"><a xlink:title=" ">
<path fill="none" stroke="#63b8ff" d="M1458.24,-399.59C1479.4,-395.19 1504.07,-390.08 1526.25,-385.47"/>
<polygon fill="#63b8ff" stroke="#63b8ff" points="1526.7,-388.96 1535.78,-383.5 1525.27,-382.1 1526.7,-388.96"/>
</a>
</g>
</g>
<!-- Node14 -->
<g id="Node000014" class="node">
<title>Node14</title>
<g id="a_Node000014"><a xlink:href="classinja_1_1Lexer.html#ab9aa4522a541720d58268d7d3e27e63f" target="_top" xlink:title=" ">
<polygon fill="white" stroke="#666666" points="1659.5,-343.75 1521.25,-343.75 1521.25,-323 1659.5,-323 1659.5,-343.75"/>
<text xml:space="preserve" text-anchor="middle" x="1590.38" y="-330.25" font-family="Helvetica,sans-Serif" font-size="10.00">inja::Lexer::scan_number</text>
</a>
</g>
</g>
<!-- Node12&#45;&gt;Node14 -->
<g id="edge15_Node000012_Node000014" class="edge">
<title>Node12&#45;&gt;Node14</title>
<g id="a_edge15_Node000012_Node000014"><a xlink:title=" ">
<path fill="none" stroke="#63b8ff" d="M1457.3,-399.58C1463.39,-397.32 1469.36,-394.62 1474.75,-391.38 1494.69,-379.38 1490.69,-365.15 1510.75,-353.38 1513.91,-351.52 1517.24,-349.84 1520.67,-348.31"/>
<polygon fill="#63b8ff" stroke="#63b8ff" points="1521.76,-351.64 1529.79,-344.73 1519.2,-345.12 1521.76,-351.64"/>
</a>
</g>
</g>
<!-- Node15 -->
<g id="Node000015" class="node">
<title>Node15</title>
<g id="a_Node000015"><a xlink:href="classinja_1_1Lexer.html#a3e8f3f7d8569fa5d781633b57a6bdcca" target="_top" xlink:title=" ">
<polygon fill="white" stroke="#666666" points="1654.62,-304.75 1526.12,-304.75 1526.12,-284 1654.62,-284 1654.62,-304.75"/>
<text xml:space="preserve" text-anchor="middle" x="1590.38" y="-291.25" font-family="Helvetica,sans-Serif" font-size="10.00">inja::Lexer::scan_string</text>
</a>
</g>
</g>
<!-- Node12&#45;&gt;Node15 -->
<g id="edge17_Node000012_Node000015" class="edge">
<title>Node12&#45;&gt;Node15</title>
<g id="a_edge17_Node000012_Node000015"><a xlink:title=" ">
<path fill="none" stroke="#63b8ff" d="M1461.87,-399.6C1466.5,-397.35 1470.89,-394.64 1474.75,-391.38 1503.59,-366.98 1481.64,-338.46 1510.75,-314.38 1512.46,-312.96 1514.26,-311.64 1516.12,-310.42"/>
<polygon fill="#63b8ff" stroke="#63b8ff" points="1517.54,-313.63 1524.63,-305.76 1514.18,-307.49 1517.54,-313.63"/>
</a>
</g>
</g>
<!-- Node12&#45;&gt;Node16 -->
<g id="edge19_Node000012_Node000016" class="edge">
<title>Node12&#45;&gt;Node16</title>
<g id="a_edge19_Node000012_Node000016"><a xlink:title=" ">
<path fill="none" stroke="#63b8ff" d="M1450.11,-421.15C1467.61,-425.45 1488.34,-430.55 1508.37,-435.47"/>
<polygon fill="#63b8ff" stroke="#63b8ff" points="1507.4,-438.83 1517.94,-437.82 1509.07,-432.04 1507.4,-438.83"/>
</a>
</g>
</g>
<!-- Node17 -->
<g id="Node000017" class="node">
<title>Node17</title>
<g id="a_Node000017"><a xlink:href="classinja_1_1Lexer.html#a50d21b69bfa1cd5e6d2e9b5c1bd53c53" target="_top" xlink:title=" ">
<polygon fill="white" stroke="#666666" points="1670,-266.12 1510.75,-266.12 1510.75,-232.62 1670,-232.62 1670,-266.12"/>
<text xml:space="preserve" text-anchor="start" x="1518.75" y="-252.62" font-family="Helvetica,sans-Serif" font-size="10.00">inja::Lexer::skip_whitespaces</text>
<text xml:space="preserve" text-anchor="middle" x="1590.38" y="-239.88" font-family="Helvetica,sans-Serif" font-size="10.00">_and_newlines</text>
</a>
</g>
</g>
<!-- Node12&#45;&gt;Node17 -->
<g id="edge20_Node000012_Node000017" class="edge">
<title>Node12&#45;&gt;Node17</title>
<g id="a_edge20_Node000012_Node000017"><a xlink:title=" ">
<path fill="none" stroke="#63b8ff" d="M1463.35,-399.61C1467.51,-397.36 1471.38,-394.64 1474.75,-391.38 1513.5,-353.79 1472.93,-313.9 1510.75,-275.38 1511.48,-274.63 1512.23,-273.91 1512.99,-273.22"/>
<polygon fill="#63b8ff" stroke="#63b8ff" points="1514.83,-276.22 1520.69,-267.4 1510.6,-270.64 1514.83,-276.22"/>
</a>
</g>
</g>
<!-- Node12&#45;&gt;Node18 -->
<g id="edge21_Node000012_Node000018" class="edge">
<title>Node12&#45;&gt;Node18</title>
<g id="a_edge21_Node000012_Node000018"><a xlink:title=" ">
<path fill="none" stroke="#63b8ff" d="M1419.37,-421.07C1438.48,-436.22 1475.54,-464.01 1510.75,-481.38 1516.45,-484.19 1522.53,-486.8 1528.68,-489.2"/>
<polygon fill="#63b8ff" stroke="#63b8ff" points="1527.04,-492.33 1537.63,-492.52 1529.47,-485.76 1527.04,-492.33"/>
</a>
</g>
</g>
<!-- Node13&#45;&gt;Node9 -->
<g id="edge14_Node000013_Node000009" class="edge">
<title>Node13&#45;&gt;Node9</title>
<g id="a_edge14_Node000013_Node000009"><a xlink:title=" ">
<path fill="none" stroke="#63b8ff" d="M1645.6,-372.38C1661.71,-372.38 1679.66,-372.38 1696.92,-372.38"/>
<polygon fill="#63b8ff" stroke="#63b8ff" points="1696.62,-375.88 1706.62,-372.38 1696.62,-368.88 1696.62,-375.88"/>
</a>
</g>
</g>
<!-- Node14&#45;&gt;Node9 -->
<g id="edge16_Node000014_Node000009" class="edge">
<title>Node14&#45;&gt;Node9</title>
<g id="a_edge16_Node000014_Node000009"><a xlink:title=" ">
<path fill="none" stroke="#63b8ff" d="M1642.18,-344.24C1663.73,-348.85 1689.05,-354.26 1711.69,-359.1"/>
<polygon fill="#63b8ff" stroke="#63b8ff" points="1710.91,-362.52 1721.42,-361.19 1712.38,-355.67 1710.91,-362.52"/>
</a>
</g>
</g>
<!-- Node15&#45;&gt;Node9 -->
<g id="edge18_Node000015_Node000009" class="edge">
<title>Node15&#45;&gt;Node9</title>
<g id="a_edge18_Node000015_Node000009"><a xlink:title=" ">
<path fill="none" stroke="#63b8ff" d="M1641.91,-305.15C1651.39,-307.75 1661.1,-310.83 1670,-314.38 1697.88,-325.49 1727.56,-342.69 1748.01,-355.48"/>
<polygon fill="#63b8ff" stroke="#63b8ff" points="1745.93,-358.31 1756.25,-360.72 1749.69,-352.4 1745.93,-358.31"/>
</a>
</g>
</g>
<!-- Node20 -->
<g id="Node000020" class="node">
<title>Node20</title>
<g id="a_Node000020"><a xlink:href="classinja_1_1Parser.html#a7dda6b9f4295c215e097f45d573d8d69" target="_top" xlink:title=" ">
<polygon fill="white" stroke="#666666" points="975.62,-366.12 871.88,-366.12 871.88,-332.62 975.62,-332.62 975.62,-366.12"/>
<text xml:space="preserve" text-anchor="start" x="879.88" y="-352.62" font-family="Helvetica,sans-Serif" font-size="10.00">inja::Parser::parse</text>
<text xml:space="preserve" text-anchor="middle" x="923.75" y="-339.88" font-family="Helvetica,sans-Serif" font-size="10.00">_expression</text>
</a>
</g>
</g>
<!-- Node19&#45;&gt;Node20 -->
<g id="edge27_Node000019_Node000020" class="edge">
<title>Node19&#45;&gt;Node20</title>
<g id="a_edge27_Node000019_Node000020"><a xlink:title=" ">
<path fill="none" stroke="#63b8ff" d="M817.24,-380.99C831.13,-376.83 846.3,-372.28 860.71,-367.96"/>
<polygon fill="#63b8ff" stroke="#63b8ff" points="861.51,-371.38 870.09,-365.15 859.5,-364.67 861.51,-371.38"/>
</a>
</g>
</g>
<!-- Node20&#45;&gt;Node5 -->
<g id="edge28_Node000020_Node000005" class="edge">
<title>Node20&#45;&gt;Node5</title>
<g id="a_edge28_Node000020_Node000005"><a xlink:title=" ">
<path fill="none" stroke="#63b8ff" d="M936.13,-332.21C953.58,-306.79 989.05,-258.68 1027.75,-226.38 1036.68,-218.92 1047.36,-212.18 1057.38,-206.59"/>
<polygon fill="#63b8ff" stroke="#63b8ff" points="1058.97,-209.71 1066.15,-201.92 1055.68,-203.53 1058.97,-209.71"/>
</a>
</g>
</g>
<!-- Node20&#45;&gt;Node6 -->
<g id="edge30_Node000020_Node000006" class="edge">
<title>Node20&#45;&gt;Node6</title>
<g id="a_edge30_Node000020_Node000006"><a xlink:title=" ">
<path fill="none" stroke="#63b8ff" d="M954.06,-366.41C974.44,-377.98 1002.38,-393.31 1027.75,-405.38 1030.81,-406.83 1033.98,-408.29 1037.19,-409.73"/>
<polygon fill="#63b8ff" stroke="#63b8ff" points="1035.56,-412.83 1046.13,-413.62 1038.36,-406.42 1035.56,-412.83"/>
</a>
</g>
</g>
<!-- Node20&#45;&gt;Node20 -->
<g id="edge33_Node000020_Node000020" class="edge">
<title>Node20&#45;&gt;Node20</title>
<g id="a_edge33_Node000020_Node000020"><a xlink:title=" ">
<path fill="none" stroke="#63b8ff" d="M895.19,-366.54C890.34,-375.74 899.86,-384.12 923.75,-384.12 937.19,-384.12 946.08,-381.47 950.43,-377.51"/>
<polygon fill="#63b8ff" stroke="#63b8ff" points="953.81,-378.48 952.05,-368.03 946.91,-377.29 953.81,-378.48"/>
</a>
</g>
</g>
<!-- Node21 -->
<g id="Node000021" class="node">
<title>Node21</title>
<g id="a_Node000021"><a xlink:href="classinja_1_1FunctionStorage.html#af382c6fe227c69fa5cc36703a655912c" target="_top" xlink:title=" ">
<polygon fill="white" stroke="#666666" points="1151.38,-344.12 1032.62,-344.12 1032.62,-310.62 1151.38,-310.62 1151.38,-344.12"/>
<text xml:space="preserve" text-anchor="start" x="1040.62" y="-330.62" font-family="Helvetica,sans-Serif" font-size="10.00">inja::FunctionStorage</text>
<text xml:space="preserve" text-anchor="middle" x="1092" y="-317.88" font-family="Helvetica,sans-Serif" font-size="10.00">::find_function</text>
</a>
</g>
</g>
<!-- Node20&#45;&gt;Node21 -->
<g id="edge29_Node000020_Node000021" class="edge">
<title>Node20&#45;&gt;Node21</title>
<g id="a_edge29_Node000020_Node000021"><a xlink:title=" ">
<path fill="none" stroke="#63b8ff" d="M975.99,-342.59C990.2,-340.71 1005.89,-338.64 1020.98,-336.64"/>
<polygon fill="#63b8ff" stroke="#63b8ff" points="1021.42,-340.11 1030.87,-335.33 1020.5,-333.17 1021.42,-340.11"/>
</a>
</g>
</g>
<!-- Node22 -->
<g id="Node000022" class="node">
<title>Node22</title>
<g id="a_Node000022"><a xlink:href="classinja_1_1Parser.html#a16b5b7d40ed3e6a536194d1367626fd9" target="_top" xlink:title=" ">
<polygon fill="white" stroke="#666666" points="1152.88,-396.12 1031.12,-396.12 1031.12,-362.62 1152.88,-362.62 1152.88,-396.12"/>
<text xml:space="preserve" text-anchor="start" x="1039.12" y="-382.62" font-family="Helvetica,sans-Serif" font-size="10.00">inja::Parser::get_peek</text>
<text xml:space="preserve" text-anchor="middle" x="1092" y="-369.88" font-family="Helvetica,sans-Serif" font-size="10.00">_token</text>
</a>
</g>
</g>
<!-- Node20&#45;&gt;Node22 -->
<g id="edge31_Node000020_Node000022" class="edge">
<title>Node20&#45;&gt;Node22</title>
<g id="a_edge31_Node000020_Node000022"><a xlink:title=" ">
<path fill="none" stroke="#63b8ff" d="M975.99,-358.62C989.82,-361.12 1005.05,-363.87 1019.77,-366.52"/>
<polygon fill="#63b8ff" stroke="#63b8ff" points="1018.94,-369.93 1029.4,-368.26 1020.18,-363.04 1018.94,-369.93"/>
</a>
</g>
</g>
<!-- Node20&#45;&gt;Node23 -->
<g id="edge34_Node000020_Node000023" class="edge">
<title>Node20&#45;&gt;Node23</title>
<g id="a_edge34_Node000020_Node000023"><a xlink:title=" ">
<path fill="none" stroke="#63b8ff" d="M964.58,-332.17C973.64,-327.92 983.14,-323.19 991.75,-318.38 1014.66,-305.56 1039.24,-289.23 1058.21,-276.02"/>
<polygon fill="#63b8ff" stroke="#63b8ff" points="1060.17,-278.92 1066.34,-270.31 1056.15,-273.2 1060.17,-278.92"/>
</a>
</g>
</g>
<!-- Node22&#45;&gt;Node7 -->
<g id="edge32_Node000022_Node000007" class="edge">
<title>Node22&#45;&gt;Node7</title>
<g id="a_edge32_Node000022_Node000007"><a xlink:title=" ">
<path fill="none" stroke="#63b8ff" d="M1143.19,-396.55C1162.47,-403.14 1184.27,-410.6 1202.74,-416.92"/>
<polygon fill="#63b8ff" stroke="#63b8ff" points="1201.44,-420.17 1212.03,-420.1 1203.7,-413.55 1201.44,-420.17"/>
</a>
</g>
</g>
<!-- Node24 -->
<g id="Node000024" class="node">
<title>Node24</title>
<g id="a_Node000024"><a xlink:href="classinja_1_1Lexer.html#a0ec13f470ddcf0c1fb7466f6168451b2" target="_top" xlink:title=" ">
<polygon fill="white" stroke="#666666" points="1299.75,-242.12 1192.25,-242.12 1192.25,-208.62 1299.75,-208.62 1299.75,-242.12"/>
<text xml:space="preserve" text-anchor="start" x="1200.25" y="-228.62" font-family="Helvetica,sans-Serif" font-size="10.00">inja::Lexer::current</text>
<text xml:space="preserve" text-anchor="middle" x="1246" y="-215.88" font-family="Helvetica,sans-Serif" font-size="10.00">_position</text>
</a>
</g>
</g>
<!-- Node23&#45;&gt;Node24 -->
<g id="edge35_Node000023_Node000024" class="edge">
<title>Node23&#45;&gt;Node24</title>
<g id="a_edge35_Node000023_Node000024"><a xlink:title=" ">
<path fill="none" stroke="#63b8ff" d="M1144.46,-243.23C1156.13,-241.16 1168.67,-238.93 1180.79,-236.78"/>
<polygon fill="#63b8ff" stroke="#63b8ff" points="1181.05,-240.29 1190.29,-235.09 1179.83,-233.4 1181.05,-240.29"/>
</a>
</g>
</g>
<!-- Node26 -->
<g id="Node000026" class="node">
<title>Node26</title>
<g id="a_Node000026"><a xlink:href="structinja_1_1ParserError.html#aa76b83dd1badd3fcf64aff6feee7583c" target="_top" xlink:title=" ">
<polygon fill="white" stroke="#666666" points="1296,-172.12 1196,-172.12 1196,-138.62 1296,-138.62 1296,-172.12"/>
<text xml:space="preserve" text-anchor="start" x="1204" y="-158.62" font-family="Helvetica,sans-Serif" font-size="10.00">inja::ParserError::</text>
<text xml:space="preserve" text-anchor="middle" x="1246" y="-145.88" font-family="Helvetica,sans-Serif" font-size="10.00">ParserError</text>
</a>
</g>
</g>
<!-- Node23&#45;&gt;Node26 -->
<g id="edge38_Node000023_Node000026" class="edge">
<title>Node23&#45;&gt;Node26</title>
<g id="a_edge38_Node000023_Node000026"><a xlink:title=" ">
<path fill="none" stroke="#63b8ff" d="M1119.82,-235.26C1144.49,-219.51 1181.28,-196.04 1208.59,-178.61"/>
<polygon fill="#63b8ff" stroke="#63b8ff" points="1210.37,-181.63 1216.91,-173.3 1206.6,-175.73 1210.37,-181.63"/>
</a>
</g>
</g>
<!-- Node25 -->
<g id="Node000025" class="node">
<title>Node25</title>
<g id="a_Node000025"><a xlink:href="namespaceinja.html#ab7c8c54f2caeb72095cd78a7ff7b6c37" target="_top" xlink:title=" ">
<polygon fill="white" stroke="#666666" points="1843.5,-176.75 1706,-176.75 1706,-156 1843.5,-156 1843.5,-176.75"/>
<text xml:space="preserve" text-anchor="middle" x="1774.75" y="-163.25" font-family="Helvetica,sans-Serif" font-size="10.00">inja::get_source_location</text>
</a>
</g>
</g>
<!-- Node24&#45;&gt;Node25 -->
<g id="edge36_Node000024_Node000025" class="edge">
<title>Node24&#45;&gt;Node25</title>
<g id="a_edge36_Node000024_Node000025"><a xlink:title=" ">
<path fill="none" stroke="#63b8ff" d="M1282.88,-208.19C1298.72,-201.4 1317.79,-194.3 1335.75,-190.38 1458.88,-163.46 1605.86,-161.32 1694.39,-163.16"/>
<polygon fill="#63b8ff" stroke="#63b8ff" points="1694.1,-166.66 1704.18,-163.39 1694.26,-159.66 1694.1,-166.66"/>
</a>
</g>
</g>
<!-- Node25&#45;&gt;Node10 -->
<g id="edge37_Node000025_Node000010" class="edge">
<title>Node25&#45;&gt;Node10</title>
<g id="a_edge37_Node000025_Node000010"><a xlink:title=" ">
<path fill="none" stroke="#63b8ff" d="M1819.43,-177.16C1834.52,-180.89 1851.72,-185.14 1867.97,-189.15"/>
<polygon fill="#63b8ff" stroke="#63b8ff" points="1867.02,-192.52 1877.57,-191.52 1868.7,-185.72 1867.02,-192.52"/>
</a>
</g>
</g>
<!-- Node27 -->
<g id="Node000027" class="node">
<title>Node27</title>
<g id="a_Node000027"><a xlink:href="structinja_1_1InjaError.html#a399b7d2f7c824c24b7794694711bafb7" target="_top" xlink:title=" ">
<polygon fill="white" stroke="#666666" points="1469.5,-138.75 1341,-138.75 1341,-118 1469.5,-118 1469.5,-138.75"/>
<text xml:space="preserve" text-anchor="middle" x="1405.25" y="-125.25" font-family="Helvetica,sans-Serif" font-size="10.00">inja::InjaError::InjaError</text>
</a>
</g>
</g>
<!-- Node26&#45;&gt;Node27 -->
<g id="edge39_Node000026_Node000027" class="edge">
<title>Node26&#45;&gt;Node27</title>
<g id="a_edge39_Node000026_Node000027"><a xlink:title=" ">
<path fill="none" stroke="#63b8ff" d="M1296.32,-146.91C1306.93,-145.09 1318.37,-143.12 1329.69,-141.18"/>
<polygon fill="#63b8ff" stroke="#63b8ff" points="1330.18,-144.64 1339.45,-139.5 1329,-137.74 1330.18,-144.64"/>
</a>
</g>
</g>
<!-- Node28&#45;&gt;Node5 -->
<g id="edge48_Node000028_Node000005" class="edge">
<title>Node28&#45;&gt;Node5</title>
<g id="a_edge48_Node000028_Node000005"><a xlink:title=" ">
<path fill="none" stroke="#63b8ff" d="M672.05,-242.22C684.37,-238.13 697.62,-233.92 710,-230.38 774.04,-212.03 789.68,-203.91 855.75,-195.38 911.71,-188.15 975.76,-187.26 1022.88,-187.98"/>
<polygon fill="#63b8ff" stroke="#63b8ff" points="1022.6,-191.48 1032.67,-188.16 1022.73,-184.48 1022.6,-191.48"/>
</a>
</g>
</g>
<!-- Node28&#45;&gt;Node6 -->
<g id="edge49_Node000028_Node000006" class="edge">
<title>Node28&#45;&gt;Node6</title>
<g id="a_edge49_Node000028_Node000006"><a xlink:title=" ">
<path fill="none" stroke="#63b8ff" d="M654.76,-276.54C693.87,-297.92 762.3,-335.84 819.75,-370.38 836.02,-380.16 838.01,-386.61 855.75,-393.38 908.89,-413.64 972.8,-423.1 1020.59,-427.51"/>
<polygon fill="#63b8ff" stroke="#63b8ff" points="1019.99,-430.97 1030.25,-428.35 1020.59,-424 1019.99,-430.97"/>
</a>
</g>
</g>
<!-- Node28&#45;&gt;Node19 -->
<g id="edge50_Node000028_Node000019" class="edge">
<title>Node28&#45;&gt;Node19</title>
<g id="a_edge50_Node000028_Node000019"><a xlink:title=" ">
<path fill="none" stroke="#63b8ff" d="M634.17,-276.41C649.3,-298.8 678.24,-338.45 710,-365.38 713.15,-368.04 716.56,-370.61 720.08,-373.04"/>
<polygon fill="#63b8ff" stroke="#63b8ff" points="718,-375.86 728.3,-378.32 721.78,-369.97 718,-375.86"/>
</a>
</g>
</g>
<!-- Node28&#45;&gt;Node23 -->
<g id="edge54_Node000028_Node000023" class="edge">
<title>Node28&#45;&gt;Node23</title>
<g id="a_edge54_Node000028_Node000023"><a xlink:title=" ">
<path fill="none" stroke="#63b8ff" d="M674.09,-258.61C760.26,-257.32 934.48,-254.72 1028.11,-253.32"/>
<polygon fill="#63b8ff" stroke="#63b8ff" points="1027.93,-256.82 1037.88,-253.17 1027.82,-249.82 1027.93,-256.82"/>
</a>
</g>
</g>
<!-- Node29 -->
<g id="Node000029" class="node">
<title>Node29</title>
<g id="a_Node000029"><a xlink:href="classinja_1_1Parser.html#ae1cebbe51ef6a93fc3d448263f9bf1e3" target="_top" xlink:title=" ">
<polygon fill="white" stroke="#666666" points="819.75,-110.12 710,-110.12 710,-76.62 819.75,-76.62 819.75,-110.12"/>
<text xml:space="preserve" text-anchor="start" x="718" y="-96.62" font-family="Helvetica,sans-Serif" font-size="10.00">inja::Parser::add_to</text>
<text xml:space="preserve" text-anchor="middle" x="764.88" y="-83.88" font-family="Helvetica,sans-Serif" font-size="10.00">_template_storage</text>
</a>
</g>
</g>
<!-- Node28&#45;&gt;Node29 -->
<g id="edge41_Node000028_Node000029" class="edge">
<title>Node28&#45;&gt;Node29</title>
<g id="a_edge41_Node000028_Node000029"><a xlink:title=" ">
<path fill="none" stroke="#63b8ff" d="M637.66,-242.24C662.55,-212.88 713.44,-152.86 742.42,-118.68"/>
<polygon fill="#63b8ff" stroke="#63b8ff" points="744.85,-121.22 748.65,-111.33 739.52,-116.69 744.85,-121.22"/>
</a>
</g>
</g>
<!-- Node35 -->
<g id="Node000035" class="node">
<title>Node35</title>
<g id="a_Node000035"><a xlink:href="classinja_1_1Parser.html#a1bd2c3127357715521ec111c39a7e823" target="_top" xlink:title=" ">
<polygon fill="white" stroke="#666666" points="975.62,-238.12 871.88,-238.12 871.88,-204.62 975.62,-204.62 975.62,-238.12"/>
<text xml:space="preserve" text-anchor="start" x="879.88" y="-224.62" font-family="Helvetica,sans-Serif" font-size="10.00">inja::Parser::parse</text>
<text xml:space="preserve" text-anchor="middle" x="923.75" y="-211.88" font-family="Helvetica,sans-Serif" font-size="10.00">_filename</text>
</a>
</g>
</g>
<!-- Node28&#45;&gt;Node35 -->
<g id="edge51_Node000028_Node000035" class="edge">
<title>Node28&#45;&gt;Node35</title>
<g id="a_edge51_Node000028_Node000035"><a xlink:title=" ">
<path fill="none" stroke="#63b8ff" d="M674.29,-252.89C725.71,-246.36 805.03,-236.3 860.16,-229.31"/>
<polygon fill="#63b8ff" stroke="#63b8ff" points="860.56,-232.79 870.04,-228.06 859.68,-225.85 860.56,-232.79"/>
</a>
</g>
</g>
<!-- Node30 -->
<g id="Node000030" class="node">
<title>Node30</title>
<g id="a_Node000030"><a xlink:href="structinja_1_1FileError.html#a0912694cd232d6cd688f0f68336145c9" target="_top" xlink:title=" ">
<polygon fill="white" stroke="#666666" points="986.5,-110.75 861,-110.75 861,-90 986.5,-90 986.5,-110.75"/>
<text xml:space="preserve" text-anchor="middle" x="923.75" y="-97.25" font-family="Helvetica,sans-Serif" font-size="10.00">inja::FileError::FileError</text>
</a>
</g>
</g>
<!-- Node29&#45;&gt;Node30 -->
<g id="edge42_Node000029_Node000030" class="edge">
<title>Node29&#45;&gt;Node30</title>
<g id="a_edge42_Node000029_Node000030"><a xlink:title=" ">
<path fill="none" stroke="#63b8ff" d="M819.86,-95.78C829.29,-96.2 839.24,-96.65 849.09,-97.09"/>
<polygon fill="#63b8ff" stroke="#63b8ff" points="848.91,-100.58 859.06,-97.53 849.23,-93.59 848.91,-100.58"/>
</a>
</g>
</g>
<!-- Node32 -->
<g id="Node000032" class="node">
<title>Node32</title>
<g id="a_Node000032"><a xlink:href="classinja_1_1Parser.html#a8c6a03b6665745f216ba86f5e514a913" target="_top" xlink:title=" ">
<polygon fill="white" stroke="#666666" points="975.62,-72.12 871.88,-72.12 871.88,-38.62 975.62,-38.62 975.62,-72.12"/>
<text xml:space="preserve" text-anchor="start" x="879.88" y="-58.62" font-family="Helvetica,sans-Serif" font-size="10.00">inja::Parser::parse</text>
<text xml:space="preserve" text-anchor="middle" x="923.75" y="-45.88" font-family="Helvetica,sans-Serif" font-size="10.00">_into_template</text>
</a>
</g>
</g>
<!-- Node29&#45;&gt;Node32 -->
<g id="edge44_Node000029_Node000032" class="edge">
<title>Node29&#45;&gt;Node32</title>
<g id="a_edge44_Node000029_Node000032"><a xlink:title=" ">
<path fill="none" stroke="#63b8ff" d="M819.86,-80.3C832.95,-77.13 847.04,-73.71 860.48,-70.46"/>
<polygon fill="#63b8ff" stroke="#63b8ff" points="861.21,-73.88 870.1,-68.13 859.56,-67.08 861.21,-73.88"/>
</a>
</g>
</g>
<!-- Node29&#45;&gt;Node34 -->
<g id="edge47_Node000029_Node000034" class="edge">
<title>Node29&#45;&gt;Node34</title>
<g id="a_edge47_Node000029_Node000034"><a xlink:title=" ">
<path fill="none" stroke="#63b8ff" d="M785.67,-76.22C803.09,-61.91 829.67,-41.89 855.75,-29.38 859.02,-27.81 862.44,-26.34 865.94,-24.98"/>
<polygon fill="#63b8ff" stroke="#63b8ff" points="866.89,-28.36 875.14,-21.72 864.55,-21.76 866.89,-28.36"/>
</a>
</g>
</g>
<!-- Node31 -->
<g id="Node000031" class="node">
<title>Node31</title>
<g id="a_Node000031"><a xlink:href="structinja_1_1InjaError.html#a0b31b1a26674ec73a9702f41155608da" target="_top" xlink:title=" ">
<polygon fill="white" stroke="#666666" points="1156.25,-110.75 1027.75,-110.75 1027.75,-90 1156.25,-90 1156.25,-110.75"/>
<text xml:space="preserve" text-anchor="middle" x="1092" y="-97.25" font-family="Helvetica,sans-Serif" font-size="10.00">inja::InjaError::InjaError</text>
</a>
</g>
</g>
<!-- Node30&#45;&gt;Node31 -->
<g id="edge43_Node000030_Node000031" class="edge">
<title>Node30&#45;&gt;Node31</title>
<g id="a_edge43_Node000030_Node000031"><a xlink:title=" ">
<path fill="none" stroke="#63b8ff" d="M986.66,-100.38C996.21,-100.38 1006.17,-100.38 1015.97,-100.38"/>
<polygon fill="#63b8ff" stroke="#63b8ff" points="1015.86,-103.88 1025.86,-100.38 1015.86,-96.88 1015.86,-103.88"/>
</a>
</g>
</g>
<!-- Node32&#45;&gt;Node4 -->
<g id="edge46_Node000032_Node000004" class="edge">
<title>Node32&#45;&gt;Node4</title>
<g id="a_edge46_Node000032_Node000004"><a xlink:title=" ">
<path fill="none" stroke="#63b8ff" d="M871.67,-50.98C796.74,-47.39 656.6,-51.93 570.25,-124.38 524.77,-162.52 493.54,-227.1 479.6,-260.29"/>
<polygon fill="#63b8ff" stroke="#63b8ff" points="476.49,-258.64 475.97,-269.23 482.98,-261.28 476.49,-258.64"/>
</a>
</g>
</g>
<!-- Node33 -->
<g id="Node000033" class="node">
<title>Node33</title>
<g id="a_Node000033"><a xlink:href="classinja_1_1Lexer.html#a2db4f5d064131f1205960c11de0ea5aa" target="_top" xlink:title=" ">
<polygon fill="white" stroke="#666666" points="1154,-65.75 1030,-65.75 1030,-45 1154,-45 1154,-65.75"/>
<text xml:space="preserve" text-anchor="middle" x="1092" y="-52.25" font-family="Helvetica,sans-Serif" font-size="10.00">inja::Lexer::get_config</text>
</a>
</g>
</g>
<!-- Node32&#45;&gt;Node33 -->
<g id="edge45_Node000032_Node000033" class="edge">
<title>Node32&#45;&gt;Node33</title>
<g id="a_edge45_Node000032_Node000033"><a xlink:title=" ">
<path fill="none" stroke="#63b8ff" d="M975.99,-55.38C989.39,-55.38 1004.09,-55.38 1018.37,-55.38"/>
<polygon fill="#63b8ff" stroke="#63b8ff" points="1018.19,-58.88 1028.19,-55.38 1018.19,-51.88 1018.19,-58.88"/>
</a>
</g>
</g>
<!-- Node35&#45;&gt;Node5 -->
<g id="edge52_Node000035_Node000005" class="edge">
<title>Node35&#45;&gt;Node5</title>
<g id="a_edge52_Node000035_Node000005"><a xlink:title=" ">
<path fill="none" stroke="#63b8ff" d="M975.99,-211.82C990.8,-209.06 1007.21,-206 1022.89,-203.08"/>
<polygon fill="#63b8ff" stroke="#63b8ff" points="1023.46,-206.53 1032.65,-201.26 1022.18,-199.65 1023.46,-206.53"/>
</a>
</g>
</g>
<!-- Node35&#45;&gt;Node23 -->
<g id="edge53_Node000035_Node000023" class="edge">
<title>Node35&#45;&gt;Node23</title>
<g id="a_edge53_Node000035_Node000023"><a xlink:title=" ">
<path fill="none" stroke="#63b8ff" d="M975.99,-230.93C992.5,-234.01 1010.99,-237.46 1028.24,-240.67"/>
<polygon fill="#63b8ff" stroke="#63b8ff" points="1027.4,-244.08 1037.87,-242.47 1028.68,-237.19 1027.4,-244.08"/>
</a>
</g>
</g>
<!-- Node36&#45;&gt;Node18 -->
<g id="edge56_Node000036_Node000018" class="edge">
<title>Node36&#45;&gt;Node18</title>
<g id="a_edge56_Node000036_Node000018"><a xlink:title=" ">
<path fill="none" stroke="#63b8ff" d="M650.72,-570.16C702.97,-589.56 820.26,-628.38 922.75,-628.38 922.75,-628.38 922.75,-628.38 1247,-628.38 1363.75,-628.38 1490.75,-565.05 1552.08,-530.03"/>
<polygon fill="#63b8ff" stroke="#63b8ff" points="1553.49,-533.25 1560.39,-525.21 1549.98,-527.2 1553.49,-533.25"/>
</a>
</g>
</g>
</g>
</svg>
