<?xml version="1.0" encoding="UTF-8" standalone="no"?>
<!DOCTYPE svg PUBLIC "-//W3C//DTD SVG 1.1//EN"
 "http://www.w3.org/Graphics/SVG/1.1/DTD/svg11.dtd">
<!-- Generated by graphviz version 14.1.2 (0)
 -->
<!-- Title: anonymous_namespace{string&#45;format&#45;check::cpp}::rfc3339_date_check Pages: 1 -->
<svg width="1250pt" height="197pt"
 viewBox="0.00 0.00 1250.00 197.00" xmlns="http://www.w3.org/2000/svg" xmlns:xlink="http://www.w3.org/1999/xlink">
<g id="graph0" class="graph" transform="scale(1 1) rotate(0) translate(4 193.12)">
<title>anonymous_namespace{string&#45;format&#45;check::cpp}::rfc3339_date_check</title>
<!-- Node1 -->
<g id="Node000001" class="node">
<title>Node1</title>
<g id="a_Node000001"><a xlink:title=" ">
<polygon fill="#999999" stroke="#666666" points="1242.25,-142.88 1093.5,-142.88 1093.5,-96.62 1242.25,-96.62 1242.25,-142.88"/>
<text xml:space="preserve" text-anchor="start" x="1101.5" y="-129.38" font-family="Helvetica,sans-Serif" font-size="10.00">anonymous_namespace</text>
<text xml:space="preserve" text-anchor="start" x="1101.5" y="-116.62" font-family="Helvetica,sans-Serif" font-size="10.00">{string&#45;format&#45;check</text>
<text xml:space="preserve" text-anchor="middle" x="1167.88" y="-103.88" font-family="Helvetica,sans-Serif" font-size="10.00">::cpp}::rfc3339_date_check</text>
</a>
</g>
</g>
<!-- Node2 -->
<g id="Node000002" class="node">
<title>Node2</title>
<g id="a_Node000002"><a xlink:href="namespacenlohmann_1_1json__schema.html#aa85e264f222e36fe1108824f0699db71" target="_top" xlink:title=" ">
<polygon fill="white" stroke="#666666" points="887,-136.5 725.5,-136.5 725.5,-103 887,-103 887,-136.5"/>
<text xml:space="preserve" text-anchor="start" x="733.5" y="-123" font-family="Helvetica,sans-Serif" font-size="10.00">nlohmann::json_schema</text>
<text xml:space="preserve" text-anchor="middle" x="806.25" y="-110.25" font-family="Helvetica,sans-Serif" font-size="10.00">::default_string_format_check</text>
</a>
</g>
</g>
<!-- Node1&#45;&gt;Node2 -->
<g id="edge1_Node000001_Node000002" class="edge">
<title>Node1&#45;&gt;Node2</title>
<g id="a_edge1_Node000001_Node000002"><a xlink:title=" ">
<path fill="none" stroke="#63b8ff" d="M1081.9,-128.28C1073.66,-128.88 1065.42,-129.39 1057.5,-129.75 997.78,-132.47 982.72,-132.33 923,-129.75 911.41,-129.25 899.19,-128.47 887.2,-127.56"/>
<polygon fill="#63b8ff" stroke="#63b8ff" points="1081.89,-131.79 1091.59,-127.54 1081.35,-124.81 1081.89,-131.79"/>
</a>
</g>
</g>
<!-- Node12 -->
<g id="Node000012" class="node">
<title>Node12</title>
<g id="a_Node000012"><a xlink:href="namespaceanonymous__namespace_02string-format-check_8cpp_03.html#a75d27cfe891533a99a33c21e2fcc8089" target="_top" xlink:title=" ">
<polygon fill="white" stroke="#666666" points="1057.5,-120.25 923,-120.25 923,-61.25 1057.5,-61.25 1057.5,-120.25"/>
<text xml:space="preserve" text-anchor="start" x="931" y="-106.75" font-family="Helvetica,sans-Serif" font-size="10.00">anonymous_namespace</text>
<text xml:space="preserve" text-anchor="start" x="931" y="-94" font-family="Helvetica,sans-Serif" font-size="10.00">{string&#45;format&#45;check</text>
<text xml:space="preserve" text-anchor="start" x="931" y="-81.25" font-family="Helvetica,sans-Serif" font-size="10.00">::cpp}::rfc3339_date</text>
<text xml:space="preserve" text-anchor="middle" x="990.25" y="-68.5" font-family="Helvetica,sans-Serif" font-size="10.00">_time_check</text>
</a>
</g>
</g>
<!-- Node1&#45;&gt;Node12 -->
<g id="edge11_Node000001_Node000012" class="edge">
<title>Node1&#45;&gt;Node12</title>
<g id="a_edge11_Node000001_Node000012"><a xlink:title=" ">
<path fill="none" stroke="#63b8ff" d="M1081.8,-105.7C1073.74,-104.37 1065.64,-103.03 1057.79,-101.74"/>
<polygon fill="#63b8ff" stroke="#63b8ff" points="1081.23,-109.15 1091.66,-107.33 1082.37,-102.25 1081.23,-109.15"/>
</a>
</g>
</g>
<!-- Node3 -->
<g id="Node000003" class="node">
<title>Node3</title>
<g id="a_Node000003"><a xlink:href="json-schema-validate_8cpp.html#a0ddf1224851353fc92bfbff6f499fa97" target="_top" xlink:title=" ">
<polygon fill="white" stroke="#666666" points="632.12,-189.12 591.38,-189.12 591.38,-168.38 632.12,-168.38 632.12,-189.12"/>
<text xml:space="preserve" text-anchor="middle" x="611.75" y="-175.62" font-family="Helvetica,sans-Serif" font-size="10.00">main</text>
</a>
</g>
</g>
<!-- Node2&#45;&gt;Node3 -->
<g id="edge2_Node000002_Node000003" class="edge">
<title>Node2&#45;&gt;Node3</title>
<g id="a_edge2_Node000002_Node000003"><a xlink:title=" ">
<path fill="none" stroke="#63b8ff" d="M746.09,-140.57C728.01,-146.69 708.01,-153.23 689.5,-158.75 670.24,-164.5 647.98,-170.19 632.41,-174.03"/>
<polygon fill="#63b8ff" stroke="#63b8ff" points="747.01,-143.96 755.34,-137.41 744.75,-137.33 747.01,-143.96"/>
</a>
</g>
</g>
<!-- Node4 -->
<g id="Node000004" class="node">
<title>Node4</title>
<g id="a_Node000004"><a xlink:href="json-schema-test_8cpp.html#a840291bc02cba5474a4cb46a9b9566fe" target="_top" xlink:title=" ">
<polygon fill="white" stroke="#666666" points="632.12,-150.12 591.38,-150.12 591.38,-129.38 632.12,-129.38 632.12,-150.12"/>
<text xml:space="preserve" text-anchor="middle" x="611.75" y="-136.62" font-family="Helvetica,sans-Serif" font-size="10.00">main</text>
</a>
</g>
</g>
<!-- Node2&#45;&gt;Node4 -->
<g id="edge3_Node000002_Node000004" class="edge">
<title>Node2&#45;&gt;Node4</title>
<g id="a_edge3_Node000002_Node000004"><a xlink:title=" ">
<path fill="none" stroke="#63b8ff" d="M713.76,-129.26C683.09,-132.44 651.78,-135.7 632.31,-137.72"/>
<polygon fill="#63b8ff" stroke="#63b8ff" points="713.92,-132.76 723.5,-128.24 713.19,-125.8 713.92,-132.76"/>
</a>
</g>
</g>
<!-- Node5 -->
<g id="Node000005" class="node">
<title>Node5</title>
<g id="a_Node000005"><a xlink:href="string-format-check-test_8cpp.html#afe40af42db26d75202b5c3d504b7a441" target="_top" xlink:title=" ">
<polygon fill="white" stroke="#666666" points="660.62,-111.12 562.88,-111.12 562.88,-90.38 660.62,-90.38 660.62,-111.12"/>
<text xml:space="preserve" text-anchor="middle" x="611.75" y="-97.62" font-family="Helvetica,sans-Serif" font-size="10.00">testStringFormat</text>
</a>
</g>
</g>
<!-- Node2&#45;&gt;Node5 -->
<g id="edge4_Node000002_Node000005" class="edge">
<title>Node2&#45;&gt;Node5</title>
<g id="a_edge4_Node000002_Node000005"><a xlink:title=" ">
<path fill="none" stroke="#63b8ff" d="M713.71,-110.71C695.47,-108.91 677.01,-107.09 660.96,-105.51"/>
<polygon fill="#63b8ff" stroke="#63b8ff" points="713.2,-114.18 723.5,-111.68 713.89,-107.22 713.2,-114.18"/>
</a>
</g>
</g>
<!-- Node7 -->
<g id="Node000007" class="node">
<title>Node7</title>
<g id="a_Node000007"><a xlink:href="namespacemqtt_1_1mqttstore_1_1lib_1_1anonymous__namespace_02StoragePlan_8cpp_03.html#a98bde28ee9174aba6a9f109fd2918b87" target="_top" xlink:title=" ">
<polygon fill="white" stroke="#666666" points="689.5,-72.25 534,-72.25 534,-13.25 689.5,-13.25 689.5,-72.25"/>
<text xml:space="preserve" text-anchor="start" x="542" y="-58.75" font-family="Helvetica,sans-Serif" font-size="10.00">mqtt::mqttstore::lib</text>
<text xml:space="preserve" text-anchor="start" x="542" y="-46" font-family="Helvetica,sans-Serif" font-size="10.00">::anonymous_namespace</text>
<text xml:space="preserve" text-anchor="start" x="542" y="-33.25" font-family="Helvetica,sans-Serif" font-size="10.00">{StoragePlan::cpp}::validate</text>
<text xml:space="preserve" text-anchor="middle" x="611.75" y="-20.5" font-family="Helvetica,sans-Serif" font-size="10.00">ProjectionConfiguration</text>
</a>
</g>
</g>
<!-- Node2&#45;&gt;Node7 -->
<g id="edge6_Node000002_Node000007" class="edge">
<title>Node2&#45;&gt;Node7</title>
<g id="a_edge6_Node000002_Node000007"><a xlink:title=" ">
<path fill="none" stroke="#63b8ff" d="M752.1,-98.49C732.15,-90.51 709.08,-81.28 687.52,-72.66"/>
<polygon fill="#63b8ff" stroke="#63b8ff" points="750.54,-101.63 761.12,-102.1 753.14,-95.14 750.54,-101.63"/>
</a>
</g>
</g>
<!-- Node6 -->
<g id="Node000006" class="node">
<title>Node6</title>
<g id="a_Node000006"><a xlink:href="string-format-check-test_8cpp.html#ae66f6b31b5ad750f1fe042a706a4e3d4" target="_top" xlink:title=" ">
<polygon fill="white" stroke="#666666" points="453.38,-111.12 412.62,-111.12 412.62,-90.38 453.38,-90.38 453.38,-111.12"/>
<text xml:space="preserve" text-anchor="middle" x="433" y="-97.62" font-family="Helvetica,sans-Serif" font-size="10.00">main</text>
</a>
</g>
</g>
<!-- Node5&#45;&gt;Node6 -->
<g id="edge5_Node000005_Node000006" class="edge">
<title>Node5&#45;&gt;Node6</title>
<g id="a_edge5_Node000005_Node000006"><a xlink:title=" ">
<path fill="none" stroke="#63b8ff" d="M551.24,-100.75C517.37,-100.75 477.14,-100.75 453.7,-100.75"/>
<polygon fill="#63b8ff" stroke="#63b8ff" points="550.94,-104.25 560.94,-100.75 550.94,-97.25 550.94,-104.25"/>
</a>
</g>
</g>
<!-- Node8 -->
<g id="Node000008" class="node">
<title>Node8</title>
<g id="a_Node000008"><a xlink:href="classmqtt_1_1mqttstore_1_1lib_1_1StoragePlan.html#a7c43d857a7aec16b02864f80f80dda05" target="_top" xlink:title=" ">
<polygon fill="white" stroke="#666666" points="498,-59.5 368,-59.5 368,-26 498,-26 498,-59.5"/>
<text xml:space="preserve" text-anchor="start" x="376" y="-46" font-family="Helvetica,sans-Serif" font-size="10.00">mqtt::mqttstore::lib</text>
<text xml:space="preserve" text-anchor="middle" x="433" y="-33.25" font-family="Helvetica,sans-Serif" font-size="10.00">::StoragePlan::fromJson</text>
</a>
</g>
</g>
<!-- Node7&#45;&gt;Node8 -->
<g id="edge7_Node000007_Node000008" class="edge">
<title>Node7&#45;&gt;Node8</title>
<g id="a_edge7_Node000007_Node000008"><a xlink:title=" ">
<path fill="none" stroke="#63b8ff" d="M522.33,-42.75C514.24,-42.75 506.15,-42.75 498.33,-42.75"/>
<polygon fill="#63b8ff" stroke="#63b8ff" points="522.23,-46.25 532.23,-42.75 522.23,-39.25 522.23,-46.25"/>
</a>
</g>
</g>
<!-- Node9 -->
<g id="Node000009" class="node">
<title>Node9</title>
<g id="a_Node000009"><a xlink:href="classmqtt_1_1mqttstore_1_1lib_1_1StoragePlan.html#aac1af49efec9324c432cf80950ca71c2" target="_top" xlink:title=" ">
<polygon fill="white" stroke="#666666" points="332,-59.5 205.75,-59.5 205.75,-26 332,-26 332,-59.5"/>
<text xml:space="preserve" text-anchor="start" x="213.75" y="-46" font-family="Helvetica,sans-Serif" font-size="10.00">mqtt::mqttstore::lib</text>
<text xml:space="preserve" text-anchor="middle" x="268.88" y="-33.25" font-family="Helvetica,sans-Serif" font-size="10.00">::StoragePlan::fromFile</text>
</a>
</g>
</g>
<!-- Node8&#45;&gt;Node9 -->
<g id="edge8_Node000008_Node000009" class="edge">
<title>Node8&#45;&gt;Node9</title>
<g id="a_edge8_Node000008_Node000009"><a xlink:title=" ">
<path fill="none" stroke="#63b8ff" d="M356.58,-42.75C348.5,-42.75 340.34,-42.75 332.43,-42.75"/>
<polygon fill="#63b8ff" stroke="#63b8ff" points="356.41,-46.25 366.41,-42.75 356.41,-39.25 356.41,-46.25"/>
</a>
</g>
</g>
<!-- Node10 -->
<g id="Node000010" class="node">
<title>Node10</title>
<g id="a_Node000010"><a xlink:href="classmqtt_1_1mqttstore_1_1SocketContextFactory.html#acea1ba58636286273c0dcbecbb37046e" target="_top" xlink:title=" ">
<polygon fill="white" stroke="#666666" points="169.75,-85.5 0,-85.5 0,-52 169.75,-52 169.75,-85.5"/>
<text xml:space="preserve" text-anchor="start" x="8" y="-72" font-family="Helvetica,sans-Serif" font-size="10.00">mqtt::mqttstore::SocketContext</text>
<text xml:space="preserve" text-anchor="middle" x="84.88" y="-59.25" font-family="Helvetica,sans-Serif" font-size="10.00">Factory::create</text>
</a>
</g>
</g>
<!-- Node9&#45;&gt;Node10 -->
<g id="edge9_Node000009_Node000010" class="edge">
<title>Node9&#45;&gt;Node10</title>
<g id="a_edge9_Node000009_Node000010"><a xlink:title=" ">
<path fill="none" stroke="#63b8ff" d="M194.34,-53.25C186.34,-54.4 178.16,-55.57 170.05,-56.73"/>
<polygon fill="#63b8ff" stroke="#63b8ff" points="194.59,-56.75 204,-51.88 193.6,-49.82 194.59,-56.75"/>
</a>
</g>
</g>
<!-- Node11 -->
<g id="Node000011" class="node">
<title>Node11</title>
<g id="a_Node000011"><a xlink:href="classmqtt_1_1mqttstore_1_1websocket_1_1SubProtocolFactory.html#a273bb98403dccd31612a9353cdbe791d" target="_top" xlink:title=" ">
<polygon fill="white" stroke="#666666" points="160.75,-33.5 9,-33.5 9,0 160.75,0 160.75,-33.5"/>
<text xml:space="preserve" text-anchor="start" x="17" y="-20" font-family="Helvetica,sans-Serif" font-size="10.00">mqtt::mqttstore::websocket</text>
<text xml:space="preserve" text-anchor="middle" x="84.88" y="-7.25" font-family="Helvetica,sans-Serif" font-size="10.00">::SubProtocolFactory::create</text>
</a>
</g>
</g>
<!-- Node9&#45;&gt;Node11 -->
<g id="edge10_Node000009_Node000011" class="edge">
<title>Node9&#45;&gt;Node11</title>
<g id="a_edge10_Node000009_Node000011"><a xlink:title=" ">
<path fill="none" stroke="#63b8ff" d="M194.25,-32.23C183.31,-30.67 172.03,-29.06 161.06,-27.49"/>
<polygon fill="#63b8ff" stroke="#63b8ff" points="193.6,-35.68 204,-33.62 194.59,-28.75 193.6,-35.68"/>
</a>
</g>
</g>
<!-- Node12&#45;&gt;Node2 -->
<g id="edge12_Node000012_Node000002" class="edge">
<title>Node12&#45;&gt;Node2</title>
<g id="a_edge12_Node000012_Node000002"><a xlink:title=" ">
<path fill="none" stroke="#63b8ff" d="M911.35,-103.16C903.38,-104.43 895.26,-105.73 887.26,-107"/>
<polygon fill="#63b8ff" stroke="#63b8ff" points="911.69,-106.65 921.02,-101.62 910.59,-99.74 911.69,-106.65"/>
</a>
</g>
</g>
</g>
</svg>
