<?xml version="1.0" encoding="UTF-8" standalone="no"?>
<!DOCTYPE svg PUBLIC "-//W3C//DTD SVG 1.1//EN"
 "http://www.w3.org/Graphics/SVG/1.1/DTD/svg11.dtd">
<!-- Generated by graphviz version 14.1.1 (0)
 -->
<!-- Title: anonymous_namespace{string&#45;format&#45;check::cpp}::rfc3339_time_check Pages: 1 -->
<svg width="736pt" height="116pt"
 viewBox="0.00 0.00 736.00 116.00" xmlns="http://www.w3.org/2000/svg" xmlns:xlink="http://www.w3.org/1999/xlink">
<g id="graph0" class="graph" transform="scale(1 1) rotate(0) translate(4 111.88)">
<title>anonymous_namespace{string&#45;format&#45;check::cpp}::rfc3339_time_check</title>
<!-- Node1 -->
<g id="Node000001" class="node">
<title>Node1</title>
<g id="a_Node000001"><a xlink:title=" ">
<polygon fill="#999999" stroke="#666666" points="728,-81.62 578.5,-81.62 578.5,-35.38 728,-35.38 728,-81.62"/>
<text xml:space="preserve" text-anchor="start" x="586.5" y="-68.12" font-family="Helvetica,sans-Serif" font-size="10.00">anonymous_namespace</text>
<text xml:space="preserve" text-anchor="start" x="586.5" y="-55.38" font-family="Helvetica,sans-Serif" font-size="10.00">{string&#45;format&#45;check</text>
<text xml:space="preserve" text-anchor="middle" x="653.25" y="-42.62" font-family="Helvetica,sans-Serif" font-size="10.00">::cpp}::rfc3339_time_check</text>
</a>
</g>
</g>
<!-- Node2 -->
<g id="Node000002" class="node">
<title>Node2</title>
<g id="a_Node000002"><a xlink:href="namespacenlohmann_1_1json__schema.html#aa85e264f222e36fe1108824f0699db71" target="_top" xlink:title=" ">
<polygon fill="white" stroke="#666666" points="372,-75.25 210.5,-75.25 210.5,-41.75 372,-41.75 372,-75.25"/>
<text xml:space="preserve" text-anchor="start" x="218.5" y="-61.75" font-family="Helvetica,sans-Serif" font-size="10.00">nlohmann::json_schema</text>
<text xml:space="preserve" text-anchor="middle" x="291.25" y="-49" font-family="Helvetica,sans-Serif" font-size="10.00">::default_string_format_check</text>
</a>
</g>
</g>
<!-- Node1&#45;&gt;Node2 -->
<g id="edge1_Node000001_Node000002" class="edge">
<title>Node1&#45;&gt;Node2</title>
<g id="a_edge1_Node000001_Node000002"><a xlink:title=" ">
<path fill="none" stroke="#63b8ff" d="M566.98,-67.03C558.71,-67.63 550.45,-68.14 542.5,-68.5 482.78,-71.21 467.72,-71.08 408,-68.5 396.41,-68 384.19,-67.22 372.2,-66.31"/>
<polygon fill="#63b8ff" stroke="#63b8ff" points="567.01,-70.54 576.71,-66.28 566.47,-63.56 567.01,-70.54"/>
</a>
</g>
</g>
<!-- Node7 -->
<g id="Node000007" class="node">
<title>Node7</title>
<g id="a_Node000007"><a xlink:href="namespaceanonymous__namespace_02string-format-check_8cpp_03.html#a75d27cfe891533a99a33c21e2fcc8089" target="_top" xlink:title=" ">
<polygon fill="white" stroke="#666666" points="542.5,-59 408,-59 408,0 542.5,0 542.5,-59"/>
<text xml:space="preserve" text-anchor="start" x="416" y="-45.5" font-family="Helvetica,sans-Serif" font-size="10.00">anonymous_namespace</text>
<text xml:space="preserve" text-anchor="start" x="416" y="-32.75" font-family="Helvetica,sans-Serif" font-size="10.00">{string&#45;format&#45;check</text>
<text xml:space="preserve" text-anchor="start" x="416" y="-20" font-family="Helvetica,sans-Serif" font-size="10.00">::cpp}::rfc3339_date</text>
<text xml:space="preserve" text-anchor="middle" x="475.25" y="-7.25" font-family="Helvetica,sans-Serif" font-size="10.00">_time_check</text>
</a>
</g>
</g>
<!-- Node1&#45;&gt;Node7 -->
<g id="edge6_Node000001_Node000007" class="edge">
<title>Node1&#45;&gt;Node7</title>
<g id="a_edge6_Node000001_Node000007"><a xlink:title=" ">
<path fill="none" stroke="#63b8ff" d="M566.76,-44.41C558.69,-43.08 550.6,-41.75 542.74,-40.46"/>
<polygon fill="#63b8ff" stroke="#63b8ff" points="566.19,-47.87 576.63,-46.04 567.33,-40.96 566.19,-47.87"/>
</a>
</g>
</g>
<!-- Node3 -->
<g id="Node000003" class="node">
<title>Node3</title>
<g id="a_Node000003"><a xlink:href="json-schema-validate_8cpp.html#a0ddf1224851353fc92bfbff6f499fa97" target="_top" xlink:title=" ">
<polygon fill="white" stroke="#666666" points="146,-107.88 105.25,-107.88 105.25,-87.12 146,-87.12 146,-107.88"/>
<text xml:space="preserve" text-anchor="middle" x="125.62" y="-94.38" font-family="Helvetica,sans-Serif" font-size="10.00">main</text>
</a>
</g>
</g>
<!-- Node2&#45;&gt;Node3 -->
<g id="edge2_Node000002_Node000003" class="edge">
<title>Node2&#45;&gt;Node3</title>
<g id="a_edge2_Node000002_Node000003"><a xlink:title=" ">
<path fill="none" stroke="#63b8ff" d="M206.91,-78.37C184.26,-83.76 161.77,-89.12 146.38,-92.79"/>
<polygon fill="#63b8ff" stroke="#63b8ff" points="207.62,-81.79 216.53,-76.07 205.99,-74.98 207.62,-81.79"/>
</a>
</g>
</g>
<!-- Node4 -->
<g id="Node000004" class="node">
<title>Node4</title>
<g id="a_Node000004"><a xlink:href="json-schema-test_8cpp.html#a840291bc02cba5474a4cb46a9b9566fe" target="_top" xlink:title=" ">
<polygon fill="white" stroke="#666666" points="146,-68.88 105.25,-68.88 105.25,-48.12 146,-48.12 146,-68.88"/>
<text xml:space="preserve" text-anchor="middle" x="125.62" y="-55.38" font-family="Helvetica,sans-Serif" font-size="10.00">main</text>
</a>
</g>
</g>
<!-- Node2&#45;&gt;Node4 -->
<g id="edge3_Node000002_Node000004" class="edge">
<title>Node2&#45;&gt;Node4</title>
<g id="a_edge3_Node000002_Node000004"><a xlink:title=" ">
<path fill="none" stroke="#63b8ff" d="M198.91,-58.5C179,-58.5 159.85,-58.5 146.27,-58.5"/>
<polygon fill="#63b8ff" stroke="#63b8ff" points="198.84,-62 208.84,-58.5 198.84,-55 198.84,-62"/>
</a>
</g>
</g>
<!-- Node5 -->
<g id="Node000005" class="node">
<title>Node5</title>
<g id="a_Node000005"><a xlink:href="string-format-check-test_8cpp.html#afe40af42db26d75202b5c3d504b7a441" target="_top" xlink:title=" ">
<polygon fill="white" stroke="#666666" points="174.5,-29.88 76.75,-29.88 76.75,-9.12 174.5,-9.12 174.5,-29.88"/>
<text xml:space="preserve" text-anchor="middle" x="125.62" y="-16.38" font-family="Helvetica,sans-Serif" font-size="10.00">testStringFormat</text>
</a>
</g>
</g>
<!-- Node2&#45;&gt;Node5 -->
<g id="edge4_Node000002_Node000005" class="edge">
<title>Node2&#45;&gt;Node5</title>
<g id="a_edge4_Node000002_Node000005"><a xlink:title=" ">
<path fill="none" stroke="#63b8ff" d="M207,-38.66C195,-35.8 183.04,-32.95 172.16,-30.35"/>
<polygon fill="#63b8ff" stroke="#63b8ff" points="205.99,-42.02 216.53,-40.93 207.62,-35.21 205.99,-42.02"/>
</a>
</g>
</g>
<!-- Node6 -->
<g id="Node000006" class="node">
<title>Node6</title>
<g id="a_Node000006"><a xlink:href="string-format-check-test_8cpp.html#ae66f6b31b5ad750f1fe042a706a4e3d4" target="_top" xlink:title=" ">
<polygon fill="white" stroke="#666666" points="40.75,-29.88 0,-29.88 0,-9.12 40.75,-9.12 40.75,-29.88"/>
<text xml:space="preserve" text-anchor="middle" x="20.38" y="-16.38" font-family="Helvetica,sans-Serif" font-size="10.00">main</text>
</a>
</g>
</g>
<!-- Node5&#45;&gt;Node6 -->
<g id="edge5_Node000005_Node000006" class="edge">
<title>Node5&#45;&gt;Node6</title>
<g id="a_edge5_Node000005_Node000006"><a xlink:title=" ">
<path fill="none" stroke="#63b8ff" d="M64.92,-19.5C56.31,-19.5 48.01,-19.5 41.01,-19.5"/>
<polygon fill="#63b8ff" stroke="#63b8ff" points="64.81,-23 74.81,-19.5 64.81,-16 64.81,-23"/>
</a>
</g>
</g>
<!-- Node7&#45;&gt;Node2 -->
<g id="edge7_Node000007_Node000002" class="edge">
<title>Node7&#45;&gt;Node2</title>
<g id="a_edge7_Node000007_Node000002"><a xlink:title=" ">
<path fill="none" stroke="#63b8ff" d="M396.35,-41.91C388.38,-43.18 380.26,-44.48 372.26,-45.75"/>
<polygon fill="#63b8ff" stroke="#63b8ff" points="396.69,-45.4 406.02,-40.37 395.59,-38.49 396.69,-45.4"/>
</a>
</g>
</g>
</g>
</svg>
