<?xml version="1.0" encoding="UTF-8" standalone="no"?>
<!DOCTYPE svg PUBLIC "-//W3C//DTD SVG 1.1//EN"
 "http://www.w3.org/Graphics/SVG/1.1/DTD/svg11.dtd">
<!-- Generated by graphviz version 2.42.4 (0)
 -->
<!-- Title: mqttClientSubProtocolFactory Pages: 1 -->
<svg width="385pt" height="167pt"
 viewBox="0.00 0.00 385.00 167.00" xmlns="http://www.w3.org/2000/svg" xmlns:xlink="http://www.w3.org/1999/xlink">
<g id="graph0" class="graph" transform="scale(1 1) rotate(0) translate(4 163)">
<title>mqttClientSubProtocolFactory</title>
<!-- Node1 -->
<g id="Node000001" class="node">
<title>Node1</title>
<g id="a_Node000001"><a xlink:title=" ">
<polygon fill="#999999" stroke="#666666" points="162,-89 0,-89 0,-70 162,-70 162,-89"/>
<text text-anchor="middle" x="81" y="-77" font-family="Helvetica,sans-Serif" font-size="10.00">mqttClientSubProtocolFactory</text>
</a>
</g>
</g>
<!-- Node2 -->
<g id="Node000002" class="node">
<title>Node2</title>
<g id="a_Node000002"><a xlink:href="classmqtt_1_1mqtt_1_1websocket_1_1SubProtocolFactory.html#a032c47dbac0361c62b75003f4f8537f9" target="_top" xlink:title=" ">
<polygon fill="white" stroke="#666666" points="351,-159 224,-159 224,-118 351,-118 351,-159"/>
<text text-anchor="start" x="232" y="-147" font-family="Helvetica,sans-Serif" font-size="10.00">mqtt::mqtt::websocket</text>
<text text-anchor="start" x="232" y="-136" font-family="Helvetica,sans-Serif" font-size="10.00">::SubProtocolFactory</text>
<text text-anchor="middle" x="287.5" y="-125" font-family="Helvetica,sans-Serif" font-size="10.00">::SubProtocolFactory</text>
</a>
</g>
</g>
<!-- Node1&#45;&gt;Node2 -->
<g id="edge1_Node000001_Node000002" class="edge">
<title>Node1&#45;&gt;Node2</title>
<g id="a_edge1_Node000001_Node000002"><a xlink:title=" ">
<path fill="none" stroke="#63b8ff" d="M115.31,-89.11C141.99,-96.81 180.39,-107.89 214.07,-117.6"/>
<polygon fill="#63b8ff" stroke="#63b8ff" points="213.3,-121.03 223.88,-120.43 215.25,-114.3 213.3,-121.03"/>
</a>
</g>
</g>
<!-- Node3 -->
<g id="Node000003" class="node">
<title>Node3</title>
<g id="a_Node000003"><a xlink:href="classmqtt_1_1mqttbridge_1_1websocket_1_1SubProtocolFactory.html#ade7db7c88aa941a79c804e5812ce6170" target="_top" xlink:title=" ">
<polygon fill="white" stroke="#666666" points="377,-100 198,-100 198,-59 377,-59 377,-100"/>
<text text-anchor="start" x="206" y="-88" font-family="Helvetica,sans-Serif" font-size="10.00">mqtt::mqttbridge::websocket</text>
<text text-anchor="start" x="206" y="-77" font-family="Helvetica,sans-Serif" font-size="10.00">::SubProtocolFactory::SubProtocol</text>
<text text-anchor="middle" x="287.5" y="-66" font-family="Helvetica,sans-Serif" font-size="10.00">Factory</text>
</a>
</g>
</g>
<!-- Node1&#45;&gt;Node3 -->
<g id="edge2_Node000001_Node000003" class="edge">
<title>Node1&#45;&gt;Node3</title>
<g id="a_edge2_Node000001_Node000003"><a xlink:title=" ">
<path fill="none" stroke="#63b8ff" d="M162.24,-79.5C170.51,-79.5 178.99,-79.5 187.43,-79.5"/>
<polygon fill="#63b8ff" stroke="#63b8ff" points="187.7,-83 197.7,-79.5 187.7,-76 187.7,-83"/>
</a>
</g>
</g>
<!-- Node4 -->
<g id="Node000004" class="node">
<title>Node4</title>
<g id="a_Node000004"><a xlink:href="classmqtt_1_1mqttintegrator_1_1websocket_1_1SubProtocolFactory.html#aaf0d96b9d91cd579fe4c68d4884b22c0" target="_top" xlink:title=" ">
<polygon fill="white" stroke="#666666" points="374.5,-41 200.5,-41 200.5,0 374.5,0 374.5,-41"/>
<text text-anchor="start" x="208.5" y="-29" font-family="Helvetica,sans-Serif" font-size="10.00">mqtt::mqttintegrator</text>
<text text-anchor="start" x="208.5" y="-18" font-family="Helvetica,sans-Serif" font-size="10.00">::websocket::SubProtocolFactory</text>
<text text-anchor="middle" x="287.5" y="-7" font-family="Helvetica,sans-Serif" font-size="10.00">::SubProtocolFactory</text>
</a>
</g>
</g>
<!-- Node1&#45;&gt;Node4 -->
<g id="edge3_Node000001_Node000004" class="edge">
<title>Node1&#45;&gt;Node4</title>
<g id="a_edge3_Node000001_Node000004"><a xlink:title=" ">
<path fill="none" stroke="#63b8ff" d="M115.31,-69.89C139.72,-62.85 173.95,-52.97 205.38,-43.9"/>
<polygon fill="#63b8ff" stroke="#63b8ff" points="206.4,-47.25 215.04,-41.12 204.46,-40.53 206.4,-47.25"/>
</a>
</g>
</g>
</g>
</svg>
