<?xml version="1.0" encoding="UTF-8" standalone="no"?>
<!DOCTYPE svg PUBLIC "-//W3C//DTD SVG 1.1//EN"
 "http://www.w3.org/Graphics/SVG/1.1/DTD/svg11.dtd">
<!-- Generated by graphviz version 14.1.1 (0)
 -->
<!-- Title: main Pages: 1 -->
<!--zoomable 646 -->

<svg id="main" version="1.1" xmlns="http://www.w3.org/2000/svg" xmlns:xlink="http://www.w3.org/1999/xlink" xml:space="preserve" onload="init(evt)">

<style type="text/css"><![CDATA[
.node, .edge {opacity: 0.7;}
.node.selected, .edge.selected {opacity: 1;}
.edge:hover path { stroke: red; }
.edge:hover polygon { stroke: red; fill: red; }
]]></style>

<defs>
  <circle id="rim" cx="0" cy="0" r="7"/>
  <circle id="rim2" cx="0" cy="0" r="3.5"/>
  <g id="zoomPlus">
    <use xlink:href="#rim" fill="#404040"><set attributeName="fill" to="#808080" begin="zoomplus.mouseover" end="zoomplus.mouseout"/></use>
    <path d="M-4,0h8M0,-4v8" fill="none" stroke="white" stroke-width="1.5" pointer-events="none"/>
  </g>
  <g id="zoomMin">
    <use xlink:href="#rim" fill="#404040"><set attributeName="fill" to="#808080" begin="zoomminus.mouseover" end="zoomminus.mouseout"/></use>
    <path d="M-4,0h8" fill="none" stroke="white" stroke-width="1.5" pointer-events="none"/>
  </g>
  <g id="arrowUp" transform="translate(30 24)">
    <use xlink:href="#rim"/>
    <path pointer-events="none" fill="none" stroke="white" stroke-width="1.5" d="M0,-3.0v7 M-2.5,-0.5L0,-3.0L2.5,-0.5"/>
  </g>
  <g id="arrowRight" transform="rotate(90) translate(36 -43)">
    <use xlink:href="#rim"/>
    <path pointer-events="none" fill="none" stroke="white" stroke-width="1.5" d="M0,-3.0v7 M-2.5,-0.5L0,-3.0L2.5,-0.5"/>
  </g>
  <g id="arrowDown" transform="rotate(180) translate(-30 -48)">
    <use xlink:href="#rim"/>
    <path pointer-events="none" fill="none" stroke="white" stroke-width="1.5" d="M0,-3.0v7 M-2.5,-0.5L0,-3.0L2.5,-0.5"/>
  </g>
  <g id="arrowLeft" transform="rotate(270) translate(-36 17)">
    <use xlink:href="#rim"/>
    <path pointer-events="none" fill="none" stroke="white" stroke-width="1.5" d="M0,-3.0v7 M-2.5,-0.5L0,-3.0L2.5,-0.5"/>
  </g>
  <g id="resetDef">
    <use xlink:href="#rim2" fill="#404040"><set attributeName="fill" to="#808080" begin="reset.mouseover" end="reset.mouseout"/></use>
  </g>
</defs>
<script type="application/ecmascript">
var viewWidth = 1073;
var viewHeight = 646;
var sectionId = 'dynsection-1';
</script>
<script type="application/ecmascript" xlink:href="svg.min.js"/>
<svg id="graph" class="graph">
<g id="viewport">
<title>main</title>
<!-- Node1 -->
<g id="Node000001" class="node">
<title>Node1</title>
<g id="a_Node000001"><a xlink:title=" ">
<polygon fill="#999999" stroke="#666666" points="40.75,-329.12 0,-329.12 0,-308.38 40.75,-308.38 40.75,-329.12"/>
<text xml:space="preserve" text-anchor="middle" x="20.38" y="-315.62" font-family="Helvetica,sans-Serif" font-size="10.00">main</text>
</a>
</g>
</g>
<!-- Node2 -->
<g id="Node000002" class="node">
<title>Node2</title>
<g id="a_Node000002"><a xlink:href="classnlohmann_1_1json__schema_1_1basic__error__handler.html#aae3ec3dc728023b158bb23d11b593927" target="_top" xlink:title=" ">
<polygon fill="white" stroke="#666666" points="212.38,-434.88 77.88,-434.88 77.88,-388.62 212.38,-388.62 212.38,-434.88"/>
<text xml:space="preserve" text-anchor="start" x="85.88" y="-421.38" font-family="Helvetica,sans-Serif" font-size="10.00">nlohmann::json_schema</text>
<text xml:space="preserve" text-anchor="start" x="85.88" y="-408.62" font-family="Helvetica,sans-Serif" font-size="10.00">::basic_error_handler</text>
<text xml:space="preserve" text-anchor="middle" x="145.12" y="-395.88" font-family="Helvetica,sans-Serif" font-size="10.00">::error</text>
</a>
</g>
</g>
<!-- Node1&#45;&gt;Node2 -->
<g id="edge1_Node000001_Node000002" class="edge">
<title>Node1&#45;&gt;Node2</title>
<g id="a_edge1_Node000001_Node000002"><a xlink:title=" ">
<path fill="none" stroke="#63b8ff" d="M28.97,-329.41C38.79,-342.59 57,-365.09 76.75,-379.75 77.89,-380.6 79.06,-381.43 80.25,-382.25"/>
<polygon fill="#63b8ff" stroke="#63b8ff" points="78.11,-385.04 88.43,-387.43 81.85,-379.12 78.11,-385.04"/>
</a>
</g>
</g>
<!-- Node3 -->
<g id="Node000003" class="node">
<title>Node3</title>
<g id="a_Node000003"><a xlink:href="classnlohmann_1_1json__schema_1_1json__validator.html#a13e1d3029c8953bb9c7d1879382edb03" target="_top" xlink:title=" ">
<polygon fill="white" stroke="#666666" points="212.38,-370.88 77.88,-370.88 77.88,-324.62 212.38,-324.62 212.38,-370.88"/>
<text xml:space="preserve" text-anchor="start" x="85.88" y="-357.38" font-family="Helvetica,sans-Serif" font-size="10.00">nlohmann::json_schema</text>
<text xml:space="preserve" text-anchor="start" x="85.88" y="-344.62" font-family="Helvetica,sans-Serif" font-size="10.00">::json_validator::set</text>
<text xml:space="preserve" text-anchor="middle" x="145.12" y="-331.88" font-family="Helvetica,sans-Serif" font-size="10.00">_root_schema</text>
</a>
</g>
</g>
<!-- Node1&#45;&gt;Node3 -->
<g id="edge2_Node000001_Node000003" class="edge">
<title>Node1&#45;&gt;Node3</title>
<g id="a_edge2_Node000001_Node000003"><a xlink:title=" ">
<path fill="none" stroke="#63b8ff" d="M41.1,-323.41C48.35,-325.12 57.08,-327.19 66.35,-329.38"/>
<polygon fill="#63b8ff" stroke="#63b8ff" points="65.41,-332.75 75.95,-331.64 67.02,-325.94 65.41,-332.75"/>
</a>
</g>
</g>
<!-- Node19 -->
<g id="Node000019" class="node">
<title>Node19</title>
<g id="a_Node000019"><a xlink:href="classnlohmann_1_1json__schema_1_1json__validator.html#affff379ae30b7ab48c81d5b65e34f613" target="_top" xlink:title=" ">
<polygon fill="white" stroke="#666666" points="213.5,-306.5 76.75,-306.5 76.75,-273 213.5,-273 213.5,-306.5"/>
<text xml:space="preserve" text-anchor="start" x="84.75" y="-293" font-family="Helvetica,sans-Serif" font-size="10.00">nlohmann::json_schema</text>
<text xml:space="preserve" text-anchor="middle" x="145.12" y="-280.25" font-family="Helvetica,sans-Serif" font-size="10.00">::json_validator::validate</text>
</a>
</g>
</g>
<!-- Node1&#45;&gt;Node19 -->
<g id="edge32_Node000001_Node000019" class="edge">
<title>Node1&#45;&gt;Node19</title>
<g id="a_edge32_Node000001_Node000019"><a xlink:title=" ">
<path fill="none" stroke="#63b8ff" d="M41.1,-314.09C48.08,-312.44 56.43,-310.47 65.31,-308.37"/>
<polygon fill="#63b8ff" stroke="#63b8ff" points="65.95,-311.81 74.88,-306.11 64.34,-305 65.95,-311.81"/>
</a>
</g>
</g>
<!-- Node20 -->
<g id="Node000020" class="node">
<title>Node20</title>
<g id="a_Node000020"><a xlink:href="classnlohmann_1_1json__schema_1_1json__validator.html#ae330a21f43f257fec1d8109f51827706" target="_top" xlink:title=" ">
<polygon fill="white" stroke="#666666" points="386.25,-261.5 249.5,-261.5 249.5,-228 386.25,-228 386.25,-261.5"/>
<text xml:space="preserve" text-anchor="start" x="257.5" y="-248" font-family="Helvetica,sans-Serif" font-size="10.00">nlohmann::json_schema</text>
<text xml:space="preserve" text-anchor="middle" x="317.88" y="-235.25" font-family="Helvetica,sans-Serif" font-size="10.00">::json_validator::validate</text>
</a>
</g>
</g>
<!-- Node1&#45;&gt;Node20 -->
<g id="edge40_Node000001_Node000020" class="edge">
<title>Node1&#45;&gt;Node20</title>
<g id="a_edge40_Node000001_Node000020"><a xlink:title=" ">
<path fill="none" stroke="#63b8ff" d="M28.51,-308.01C37.85,-294.96 55.57,-273.48 76.75,-263.75 126.89,-240.73 189.12,-236.39 237.66,-237.59"/>
<polygon fill="#63b8ff" stroke="#63b8ff" points="237.44,-241.08 247.55,-237.93 237.67,-234.09 237.44,-241.08"/>
</a>
</g>
</g>
<!-- Node4 -->
<g id="Node000004" class="node">
<title>Node4</title>
<g id="a_Node000004"><a xlink:href="classnlohmann_1_1json__schema_1_1root__schema.html#aa92bf9509db49548416a244fb4528e3c" target="_top" xlink:title=" ">
<polygon fill="white" stroke="#666666" points="385.12,-397.88 250.62,-397.88 250.62,-351.62 385.12,-351.62 385.12,-397.88"/>
<text xml:space="preserve" text-anchor="start" x="258.62" y="-384.38" font-family="Helvetica,sans-Serif" font-size="10.00">nlohmann::json_schema</text>
<text xml:space="preserve" text-anchor="start" x="258.62" y="-371.62" font-family="Helvetica,sans-Serif" font-size="10.00">::root_schema::set_root</text>
<text xml:space="preserve" text-anchor="middle" x="317.88" y="-358.88" font-family="Helvetica,sans-Serif" font-size="10.00">_schema</text>
</a>
</g>
</g>
<!-- Node3&#45;&gt;Node4 -->
<g id="edge3_Node000003_Node000004" class="edge">
<title>Node3&#45;&gt;Node4</title>
<g id="a_edge3_Node000003_Node000004"><a xlink:title=" ">
<path fill="none" stroke="#63b8ff" d="M212.63,-358.27C221.32,-359.64 230.29,-361.06 239.14,-362.46"/>
<polygon fill="#63b8ff" stroke="#63b8ff" points="238.35,-365.88 248.78,-363.98 239.44,-358.96 238.35,-365.88"/>
</a>
</g>
</g>
<!-- Node5 -->
<g id="Node000005" class="node">
<title>Node5</title>
<g id="a_Node000005"><a xlink:href="classanonymous__namespace_02json-validator_8cpp_03_1_1schema.html#aafee860997369c77204d5b1a7d095c3f" target="_top" xlink:title=" ">
<polygon fill="white" stroke="#666666" points="556.75,-411.88 422.25,-411.88 422.25,-365.62 556.75,-365.62 556.75,-411.88"/>
<text xml:space="preserve" text-anchor="start" x="430.25" y="-398.38" font-family="Helvetica,sans-Serif" font-size="10.00">anonymous_namespace</text>
<text xml:space="preserve" text-anchor="start" x="430.25" y="-385.62" font-family="Helvetica,sans-Serif" font-size="10.00">{json&#45;validator::cpp}</text>
<text xml:space="preserve" text-anchor="middle" x="489.5" y="-372.88" font-family="Helvetica,sans-Serif" font-size="10.00">::schema::make</text>
</a>
</g>
</g>
<!-- Node4&#45;&gt;Node5 -->
<g id="edge4_Node000004_Node000005" class="edge">
<title>Node4&#45;&gt;Node5</title>
<g id="a_edge4_Node000004_Node000005"><a xlink:title=" ">
<path fill="none" stroke="#63b8ff" d="M385.43,-380.24C393.66,-380.92 402.13,-381.62 410.52,-382.31"/>
<polygon fill="#63b8ff" stroke="#63b8ff" points="410.1,-385.79 420.35,-383.13 410.67,-378.81 410.1,-385.79"/>
</a>
</g>
</g>
<!-- Node5&#45;&gt;Node5 -->
<g id="edge29_Node000005_Node000005" class="edge">
<title>Node5&#45;&gt;Node5</title>
<g id="a_edge29_Node000005_Node000005"><a xlink:title=" ">
<path fill="none" stroke="#63b8ff" d="M457.6,-412C455.4,-421.68 466.04,-429.88 489.5,-429.88 503.43,-429.88 512.84,-426.98 517.72,-422.61"/>
<polygon fill="#63b8ff" stroke="#63b8ff" points="520.94,-424.03 520.9,-413.43 514.32,-421.74 520.94,-424.03"/>
</a>
</g>
</g>
<!-- Node6 -->
<g id="Node000006" class="node">
<title>Node6</title>
<g id="a_Node000006"><a xlink:href="classnlohmann_1_1json__uri.html#acef9db8f1ac5317e1f124453d9587938" target="_top" xlink:title=" ">
<polygon fill="white" stroke="#666666" points="907.5,-585.5 798.5,-585.5 798.5,-552 907.5,-552 907.5,-585.5"/>
<text xml:space="preserve" text-anchor="start" x="806.5" y="-572" font-family="Helvetica,sans-Serif" font-size="10.00">nlohmann::json_uri</text>
<text xml:space="preserve" text-anchor="middle" x="853" y="-559.25" font-family="Helvetica,sans-Serif" font-size="10.00">::append</text>
</a>
</g>
</g>
<!-- Node5&#45;&gt;Node6 -->
<g id="edge5_Node000005_Node000006" class="edge">
<title>Node5&#45;&gt;Node6</title>
<g id="a_edge5_Node000005_Node000006"><a xlink:title=" ">
<path fill="none" stroke="#63b8ff" d="M502.12,-412.22C518.18,-442.03 550.09,-492.75 592.75,-518.75 651.85,-554.78 731.44,-565.7 786.77,-568.6"/>
<polygon fill="#63b8ff" stroke="#63b8ff" points="786.54,-572.09 796.69,-569.03 786.85,-565.1 786.54,-572.09"/>
</a>
</g>
</g>
<!-- Node7 -->
<g id="Node000007" class="node">
<title>Node7</title>
<g id="a_Node000007"><a xlink:href="classnlohmann_1_1json__uri.html#ab601a9e32d487e9484f12c57ec1befc1" target="_top" xlink:title=" ">
<polygon fill="white" stroke="#666666" points="725.75,-630.5 616.75,-630.5 616.75,-597 725.75,-597 725.75,-630.5"/>
<text xml:space="preserve" text-anchor="start" x="624.75" y="-617" font-family="Helvetica,sans-Serif" font-size="10.00">nlohmann::json_uri</text>
<text xml:space="preserve" text-anchor="middle" x="671.25" y="-604.25" font-family="Helvetica,sans-Serif" font-size="10.00">::derive</text>
</a>
</g>
</g>
<!-- Node5&#45;&gt;Node7 -->
<g id="edge6_Node000005_Node000007" class="edge">
<title>Node5&#45;&gt;Node7</title>
<g id="a_edge6_Node000005_Node000007"><a xlink:title=" ">
<path fill="none" stroke="#63b8ff" d="M498.97,-412.19C513.37,-449.41 545.72,-522.61 592.75,-569.75 600.86,-577.88 610.79,-585 620.8,-591"/>
<polygon fill="#63b8ff" stroke="#63b8ff" points="619.02,-594.02 629.45,-595.89 622.46,-587.92 619.02,-594.02"/>
</a>
</g>
</g>
<!-- Node9 -->
<g id="Node000009" class="node">
<title>Node9</title>
<g id="a_Node000009"><a xlink:href="classnlohmann_1_1json__schema_1_1root__schema.html#a7e890c03f941280b76fbdb4d5bb73065" target="_top" xlink:title=" ">
<polygon fill="white" stroke="#666666" points="738.5,-411.88 604,-411.88 604,-365.62 738.5,-365.62 738.5,-411.88"/>
<text xml:space="preserve" text-anchor="start" x="612" y="-398.38" font-family="Helvetica,sans-Serif" font-size="10.00">nlohmann::json_schema</text>
<text xml:space="preserve" text-anchor="start" x="612" y="-385.62" font-family="Helvetica,sans-Serif" font-size="10.00">::root_schema::get_or</text>
<text xml:space="preserve" text-anchor="middle" x="671.25" y="-372.88" font-family="Helvetica,sans-Serif" font-size="10.00">_create_ref</text>
</a>
</g>
</g>
<!-- Node5&#45;&gt;Node9 -->
<g id="edge8_Node000005_Node000009" class="edge">
<title>Node5&#45;&gt;Node9</title>
<g id="a_edge8_Node000005_Node000009"><a xlink:title=" ">
<path fill="none" stroke="#63b8ff" d="M557.18,-382.2C568.69,-382 580.74,-381.95 592.51,-382.05"/>
<polygon fill="#63b8ff" stroke="#63b8ff" points="592.12,-385.55 602.17,-382.19 592.22,-378.55 592.12,-385.55"/>
</a>
</g>
</g>
<!-- Node14 -->
<g id="Node000014" class="node">
<title>Node14</title>
<g id="a_Node000014"><a xlink:href="classnlohmann_1_1json__uri.html#a416eb06b53676b215761f43200da309f" target="_top" xlink:title=" ">
<polygon fill="white" stroke="#666666" points="907.5,-187.5 798.5,-187.5 798.5,-154 907.5,-154 907.5,-187.5"/>
<text xml:space="preserve" text-anchor="start" x="806.5" y="-174" font-family="Helvetica,sans-Serif" font-size="10.00">nlohmann::json_uri</text>
<text xml:space="preserve" text-anchor="middle" x="853" y="-161.25" font-family="Helvetica,sans-Serif" font-size="10.00">::to_string</text>
</a>
</g>
</g>
<!-- Node5&#45;&gt;Node14 -->
<g id="edge31_Node000005_Node000014" class="edge">
<title>Node5&#45;&gt;Node14</title>
<g id="a_edge31_Node000005_Node000014"><a xlink:title=" ">
<path fill="none" stroke="#63b8ff" d="M499.99,-365.13C514.72,-331.56 546.31,-270.5 592.75,-237.75 650.51,-197.02 731.09,-181.04 787.02,-174.77"/>
<polygon fill="#63b8ff" stroke="#63b8ff" points="787.13,-178.28 796.71,-173.77 786.4,-171.32 787.13,-178.28"/>
</a>
</g>
</g>
<!-- Node15 -->
<g id="Node000015" class="node">
<title>Node15</title>
<g id="a_Node000015"><a xlink:href="classnlohmann_1_1json__schema_1_1root__schema.html#a685904131f0693e56f14a9e9db5f044e" target="_top" xlink:title=" ">
<polygon fill="white" stroke="#666666" points="738.5,-280.5 604,-280.5 604,-247 738.5,-247 738.5,-280.5"/>
<text xml:space="preserve" text-anchor="start" x="612" y="-267" font-family="Helvetica,sans-Serif" font-size="10.00">nlohmann::json_schema</text>
<text xml:space="preserve" text-anchor="middle" x="671.25" y="-254.25" font-family="Helvetica,sans-Serif" font-size="10.00">::root_schema::insert</text>
</a>
</g>
</g>
<!-- Node5&#45;&gt;Node15 -->
<g id="edge16_Node000005_Node000015" class="edge">
<title>Node5&#45;&gt;Node15</title>
<g id="a_edge16_Node000005_Node000015"><a xlink:title=" ">
<path fill="none" stroke="#63b8ff" d="M510.35,-365.43C529.57,-344.06 560.49,-312.8 592.75,-292.75 596.91,-290.16 601.34,-287.75 605.89,-285.51"/>
<polygon fill="#63b8ff" stroke="#63b8ff" points="606.98,-288.87 614.62,-281.52 604.07,-282.5 606.98,-288.87"/>
</a>
</g>
</g>
<!-- Node17 -->
<g id="Node000017" class="node">
<title>Node17</title>
<g id="a_Node000017"><a xlink:href="classnlohmann_1_1json__schema_1_1root__schema.html#a4c543fe7b89e76b3fdd17a6883696238" target="_top" xlink:title=" ">
<polygon fill="white" stroke="#666666" points="738.5,-491.88 604,-491.88 604,-445.62 738.5,-445.62 738.5,-491.88"/>
<text xml:space="preserve" text-anchor="start" x="612" y="-478.38" font-family="Helvetica,sans-Serif" font-size="10.00">nlohmann::json_schema</text>
<text xml:space="preserve" text-anchor="start" x="612" y="-465.62" font-family="Helvetica,sans-Serif" font-size="10.00">::root_schema::insert</text>
<text xml:space="preserve" text-anchor="middle" x="671.25" y="-452.88" font-family="Helvetica,sans-Serif" font-size="10.00">_unknown_keyword</text>
</a>
</g>
</g>
<!-- Node5&#45;&gt;Node17 -->
<g id="edge22_Node000005_Node000017" class="edge">
<title>Node5&#45;&gt;Node17</title>
<g id="a_edge22_Node000005_Node000017"><a xlink:title=" ">
<path fill="none" stroke="#63b8ff" d="M557.18,-411.88C578.01,-420.78 600.63,-430.99 620.12,-440.32"/>
<polygon fill="#63b8ff" stroke="#63b8ff" points="618.42,-443.38 628.94,-444.59 621.47,-437.08 618.42,-443.38"/>
</a>
</g>
</g>
<!-- Node18 -->
<g id="Node000018" class="node">
<title>Node18</title>
<g id="a_Node000018"><a xlink:href="classanonymous__namespace_02json-validator_8cpp_03_1_1schema.html#a6ba2d224dd0a4372ac03f679de8316bd" target="_top" xlink:title=" ">
<polygon fill="white" stroke="#666666" points="749.75,-347.88 592.75,-347.88 592.75,-301.62 749.75,-301.62 749.75,-347.88"/>
<text xml:space="preserve" text-anchor="start" x="600.75" y="-334.38" font-family="Helvetica,sans-Serif" font-size="10.00">anonymous_namespace</text>
<text xml:space="preserve" text-anchor="start" x="600.75" y="-321.62" font-family="Helvetica,sans-Serif" font-size="10.00">{json&#45;validator::cpp}</text>
<text xml:space="preserve" text-anchor="middle" x="671.25" y="-308.88" font-family="Helvetica,sans-Serif" font-size="10.00">::schema::make_for_default_</text>
</a>
</g>
</g>
<!-- Node5&#45;&gt;Node18 -->
<g id="edge30_Node000005_Node000018" class="edge">
<title>Node5&#45;&gt;Node18</title>
<g id="a_edge30_Node000005_Node000018"><a xlink:title=" ">
<path fill="none" stroke="#63b8ff" d="M556.67,-365.19C568.59,-360.95 581.11,-356.49 593.31,-352.14"/>
<polygon fill="#63b8ff" stroke="#63b8ff" points="594.25,-355.52 602.5,-348.87 591.9,-348.93 594.25,-355.52"/>
</a>
</g>
</g>
<!-- Node8 -->
<g id="Node000008" class="node">
<title>Node8</title>
<g id="a_Node000008"><a xlink:href="classnlohmann_1_1json__uri.html#a6a73807e46532b22e02ae6602cdedcdc" target="_top" xlink:title=" ">
<polygon fill="white" stroke="#666666" points="907.5,-637.5 798.5,-637.5 798.5,-604 907.5,-604 907.5,-637.5"/>
<text xml:space="preserve" text-anchor="start" x="806.5" y="-624" font-family="Helvetica,sans-Serif" font-size="10.00">nlohmann::json_uri</text>
<text xml:space="preserve" text-anchor="middle" x="853" y="-611.25" font-family="Helvetica,sans-Serif" font-size="10.00">::update</text>
</a>
</g>
</g>
<!-- Node7&#45;&gt;Node8 -->
<g id="edge7_Node000007_Node000008" class="edge">
<title>Node7&#45;&gt;Node8</title>
<g id="a_edge7_Node000007_Node000008"><a xlink:title=" ">
<path fill="none" stroke="#63b8ff" d="M726.18,-615.85C745.2,-616.59 766.79,-617.43 786.65,-618.2"/>
<polygon fill="#63b8ff" stroke="#63b8ff" points="786.47,-621.7 796.59,-618.59 786.74,-614.71 786.47,-621.7"/>
</a>
</g>
</g>
<!-- Node9&#45;&gt;Node5 -->
<g id="edge12_Node000009_Node000005" class="edge">
<title>Node9&#45;&gt;Node5</title>
<g id="a_edge12_Node000009_Node000005"><a xlink:title=" ">
<path fill="none" stroke="#63b8ff" d="M603.68,-395.29C592.18,-395.5 580.12,-395.55 568.35,-395.45"/>
<polygon fill="#63b8ff" stroke="#63b8ff" points="568.74,-391.95 558.69,-395.32 568.64,-398.95 568.74,-391.95"/>
</a>
</g>
</g>
<!-- Node10 -->
<g id="Node000010" class="node">
<title>Node10</title>
<g id="a_Node000010"><a xlink:href="classnlohmann_1_1json__uri.html#a21ba5d6a76804eabd867a2d03370c945" target="_top" xlink:title=" ">
<polygon fill="white" stroke="#666666" points="907.5,-277.5 798.5,-277.5 798.5,-244 907.5,-244 907.5,-277.5"/>
<text xml:space="preserve" text-anchor="start" x="806.5" y="-264" font-family="Helvetica,sans-Serif" font-size="10.00">nlohmann::json_uri</text>
<text xml:space="preserve" text-anchor="middle" x="853" y="-251.25" font-family="Helvetica,sans-Serif" font-size="10.00">::fragment</text>
</a>
</g>
</g>
<!-- Node9&#45;&gt;Node10 -->
<g id="edge9_Node000009_Node000010" class="edge">
<title>Node9&#45;&gt;Node10</title>
<g id="a_edge9_Node000009_Node000010"><a xlink:title=" ">
<path fill="none" stroke="#63b8ff" d="M738.55,-365.37C742.54,-362.77 746.32,-359.9 749.75,-356.75 775.5,-333.07 759.79,-310.21 785.75,-286.75 786.81,-285.79 787.9,-284.87 789.03,-283.98"/>
<polygon fill="#63b8ff" stroke="#63b8ff" points="790.66,-287.11 797,-278.62 786.75,-281.3 790.66,-287.11"/>
</a>
</g>
</g>
<!-- Node11 -->
<g id="Node000011" class="node">
<title>Node11</title>
<g id="a_Node000011"><a xlink:href="classnlohmann_1_1json__schema_1_1root__schema.html#a4e3471b8e7c245a72c469b7695d2d327" target="_top" xlink:title=" ">
<polygon fill="white" stroke="#666666" points="920.25,-405.88 785.75,-405.88 785.75,-359.62 920.25,-359.62 920.25,-405.88"/>
<text xml:space="preserve" text-anchor="start" x="793.75" y="-392.38" font-family="Helvetica,sans-Serif" font-size="10.00">nlohmann::json_schema</text>
<text xml:space="preserve" text-anchor="start" x="793.75" y="-379.62" font-family="Helvetica,sans-Serif" font-size="10.00">::root_schema::get_or</text>
<text xml:space="preserve" text-anchor="middle" x="853" y="-366.88" font-family="Helvetica,sans-Serif" font-size="10.00">_create_file</text>
</a>
</g>
</g>
<!-- Node9&#45;&gt;Node11 -->
<g id="edge10_Node000009_Node000011" class="edge">
<title>Node9&#45;&gt;Node11</title>
<g id="a_edge10_Node000009_Node000011"><a xlink:title=" ">
<path fill="none" stroke="#63b8ff" d="M738.93,-386.52C750.44,-386.14 762.49,-385.74 774.26,-385.34"/>
<polygon fill="#63b8ff" stroke="#63b8ff" points="774.04,-388.85 783.92,-385.02 773.81,-381.86 774.04,-388.85"/>
</a>
</g>
</g>
<!-- Node12 -->
<g id="Node000012" class="node">
<title>Node12</title>
<g id="a_Node000012"><a xlink:href="classnlohmann_1_1json__uri.html#a63674f908919cb2496e772e864be35de" target="_top" xlink:title=" ">
<polygon fill="white" stroke="#666666" points="1065.25,-232.5 956.25,-232.5 956.25,-199 1065.25,-199 1065.25,-232.5"/>
<text xml:space="preserve" text-anchor="start" x="964.25" y="-219" font-family="Helvetica,sans-Serif" font-size="10.00">nlohmann::json_uri</text>
<text xml:space="preserve" text-anchor="middle" x="1010.75" y="-206.25" font-family="Helvetica,sans-Serif" font-size="10.00">::location</text>
</a>
</g>
</g>
<!-- Node9&#45;&gt;Node12 -->
<g id="edge11_Node000009_Node000012" class="edge">
<title>Node9&#45;&gt;Node12</title>
<g id="a_edge11_Node000009_Node000012"><a xlink:title=" ">
<path fill="none" stroke="#63b8ff" d="M724.68,-412.28C778.21,-432.43 861.54,-452.72 920.25,-414.75 979.25,-376.59 999.74,-289.25 1006.55,-244.04"/>
<polygon fill="#63b8ff" stroke="#63b8ff" points="1010,-244.61 1007.89,-234.23 1003.07,-243.67 1010,-244.61"/>
</a>
</g>
</g>
<!-- Node13 -->
<g id="Node000013" class="node">
<title>Node13</title>
<g id="a_Node000013"><a xlink:href="classnlohmann_1_1json__uri.html#ab01bdcb8bf65ee07703d1ccb69c9f3ee" target="_top" xlink:title=" ">
<polygon fill="white" stroke="#666666" points="907.5,-495.5 798.5,-495.5 798.5,-462 907.5,-462 907.5,-495.5"/>
<text xml:space="preserve" text-anchor="start" x="806.5" y="-482" font-family="Helvetica,sans-Serif" font-size="10.00">nlohmann::json_uri</text>
<text xml:space="preserve" text-anchor="middle" x="853" y="-469.25" font-family="Helvetica,sans-Serif" font-size="10.00">::pointer</text>
</a>
</g>
</g>
<!-- Node9&#45;&gt;Node13 -->
<g id="edge13_Node000009_Node000013" class="edge">
<title>Node9&#45;&gt;Node13</title>
<g id="a_edge13_Node000009_Node000013"><a xlink:title=" ">
<path fill="none" stroke="#63b8ff" d="M716.5,-412.3C737.4,-423.28 762.75,-436.4 785.75,-447.75 791.88,-450.77 798.36,-453.9 804.77,-456.94"/>
<polygon fill="#63b8ff" stroke="#63b8ff" points="802.82,-459.9 813.36,-461 805.81,-453.56 802.82,-459.9"/>
</a>
</g>
</g>
<!-- Node9&#45;&gt;Node14 -->
<g id="edge14_Node000009_Node000014" class="edge">
<title>Node9&#45;&gt;Node14</title>
<g id="a_edge14_Node000009_Node000014"><a xlink:title=" ">
<path fill="none" stroke="#63b8ff" d="M738.9,-366.33C742.86,-363.5 746.54,-360.32 749.75,-356.75 787.58,-314.74 756.45,-283.1 785.75,-234.75 794.75,-219.89 808.05,-206.12 820.36,-195.19"/>
<polygon fill="#63b8ff" stroke="#63b8ff" points="822.6,-197.88 827.94,-188.73 818.05,-192.56 822.6,-197.88"/>
</a>
</g>
</g>
<!-- Node14&#45;&gt;Node12 -->
<g id="edge15_Node000014_Node000012" class="edge">
<title>Node14&#45;&gt;Node12</title>
<g id="a_edge15_Node000014_Node000012"><a xlink:title=" ">
<path fill="none" stroke="#63b8ff" d="M907.6,-186.24C919.65,-189.72 932.55,-193.45 945,-197.04"/>
<polygon fill="#63b8ff" stroke="#63b8ff" points="943.75,-200.33 954.33,-199.74 945.7,-193.6 943.75,-200.33"/>
</a>
</g>
</g>
<!-- Node15&#45;&gt;Node10 -->
<g id="edge17_Node000015_Node000010" class="edge">
<title>Node15&#45;&gt;Node10</title>
<g id="a_edge17_Node000015_Node000010"><a xlink:title=" ">
<path fill="none" stroke="#63b8ff" d="M738.93,-262.64C754.6,-262.38 771.29,-262.1 786.9,-261.84"/>
<polygon fill="#63b8ff" stroke="#63b8ff" points="786.59,-265.34 796.53,-261.68 786.47,-258.34 786.59,-265.34"/>
</a>
</g>
</g>
<!-- Node15&#45;&gt;Node11 -->
<g id="edge18_Node000015_Node000011" class="edge">
<title>Node15&#45;&gt;Node11</title>
<g id="a_edge18_Node000015_Node000011"><a xlink:title=" ">
<path fill="none" stroke="#63b8ff" d="M730.85,-280.82C737.6,-284.16 744.08,-288.11 749.75,-292.75 773.21,-311.98 763.2,-330.46 785.75,-350.75 786.39,-351.33 787.04,-351.9 787.71,-352.46"/>
<polygon fill="#63b8ff" stroke="#63b8ff" points="785.56,-355.22 795.67,-358.38 789.74,-349.6 785.56,-355.22"/>
</a>
</g>
</g>
<!-- Node15&#45;&gt;Node12 -->
<g id="edge19_Node000015_Node000012" class="edge">
<title>Node15&#45;&gt;Node12</title>
<g id="a_edge19_Node000015_Node000012"><a xlink:title=" ">
<path fill="none" stroke="#63b8ff" d="M731.94,-246.53C749.18,-242.09 768.1,-237.73 785.75,-234.75 838.85,-225.78 899.79,-220.96 944.69,-218.42"/>
<polygon fill="#63b8ff" stroke="#63b8ff" points="944.72,-221.92 954.52,-217.89 944.35,-214.93 944.72,-221.92"/>
</a>
</g>
</g>
<!-- Node15&#45;&gt;Node14 -->
<g id="edge21_Node000015_Node000014" class="edge">
<title>Node15&#45;&gt;Node14</title>
<g id="a_edge21_Node000015_Node000014"><a xlink:title=" ">
<path fill="none" stroke="#63b8ff" d="M702.33,-246.65C725.05,-233.9 757.11,-216.26 785.75,-201.75 791.63,-198.77 797.85,-195.73 804.02,-192.77"/>
<polygon fill="#63b8ff" stroke="#63b8ff" points="805.41,-195.98 812.95,-188.54 802.41,-189.66 805.41,-195.98"/>
</a>
</g>
</g>
<!-- Node16 -->
<g id="Node000016" class="node">
<title>Node16</title>
<g id="a_Node000016"><a xlink:href="classanonymous__namespace_02json-validator_8cpp_03_1_1schema__ref.html#ae191a0c47357ebad5942fbab77135375" target="_top" xlink:title=" ">
<polygon fill="white" stroke="#666666" points="920.25,-341.88 785.75,-341.88 785.75,-295.62 920.25,-295.62 920.25,-341.88"/>
<text xml:space="preserve" text-anchor="start" x="793.75" y="-328.38" font-family="Helvetica,sans-Serif" font-size="10.00">anonymous_namespace</text>
<text xml:space="preserve" text-anchor="start" x="793.75" y="-315.62" font-family="Helvetica,sans-Serif" font-size="10.00">{json&#45;validator::cpp}</text>
<text xml:space="preserve" text-anchor="middle" x="853" y="-302.88" font-family="Helvetica,sans-Serif" font-size="10.00">::schema_ref::set_target</text>
</a>
</g>
</g>
<!-- Node15&#45;&gt;Node16 -->
<g id="edge20_Node000015_Node000016" class="edge">
<title>Node15&#45;&gt;Node16</title>
<g id="a_edge20_Node000015_Node000016"><a xlink:title=" ">
<path fill="none" stroke="#63b8ff" d="M728.14,-280.85C742.88,-285.36 759.04,-290.31 774.69,-295.1"/>
<polygon fill="#63b8ff" stroke="#63b8ff" points="773.39,-298.36 783.97,-297.93 775.43,-291.66 773.39,-298.36"/>
</a>
</g>
</g>
<!-- Node17&#45;&gt;Node5 -->
<g id="edge27_Node000017_Node000005" class="edge">
<title>Node17&#45;&gt;Node5</title>
<g id="a_edge27_Node000017_Node000005"><a xlink:title=" ">
<path fill="none" stroke="#63b8ff" d="M603.64,-445.65C582.77,-436.74 560.11,-426.51 540.59,-417.17"/>
<polygon fill="#63b8ff" stroke="#63b8ff" points="542.28,-414.1 531.75,-412.88 539.23,-420.4 542.28,-414.1"/>
</a>
</g>
</g>
<!-- Node17&#45;&gt;Node6 -->
<g id="edge23_Node000017_Node000006" class="edge">
<title>Node17&#45;&gt;Node6</title>
<g id="a_edge23_Node000017_Node000006"><a xlink:title=" ">
<path fill="none" stroke="#63b8ff" d="M708.72,-492.31C730.69,-506.15 759.43,-523.64 785.75,-537.75 791.41,-540.79 797.43,-543.83 803.43,-546.77"/>
<polygon fill="#63b8ff" stroke="#63b8ff" points="801.57,-549.76 812.1,-550.93 804.6,-543.44 801.57,-549.76"/>
</a>
</g>
</g>
<!-- Node17&#45;&gt;Node11 -->
<g id="edge24_Node000017_Node000011" class="edge">
<title>Node17&#45;&gt;Node11</title>
<g id="a_edge24_Node000017_Node000011"><a xlink:title=" ">
<path fill="none" stroke="#63b8ff" d="M721.37,-445.25C743.27,-434.77 769.27,-422.33 792.29,-411.32"/>
<polygon fill="#63b8ff" stroke="#63b8ff" points="793.75,-414.5 801.26,-407.02 790.73,-408.18 793.75,-414.5"/>
</a>
</g>
</g>
<!-- Node17&#45;&gt;Node12 -->
<g id="edge26_Node000017_Node000012" class="edge">
<title>Node17&#45;&gt;Node12</title>
<g id="a_edge26_Node000017_Node000012"><a xlink:title=" ">
<path fill="none" stroke="#63b8ff" d="M715.38,-492.18C768.77,-517.64 860.02,-549.15 920.25,-504.75 963.14,-473.14 994.26,-310.13 1005.33,-243.84"/>
<polygon fill="#63b8ff" stroke="#63b8ff" points="1008.75,-244.57 1006.91,-234.13 1001.85,-243.44 1008.75,-244.57"/>
</a>
</g>
</g>
<!-- Node17&#45;&gt;Node13 -->
<g id="edge28_Node000017_Node000013" class="edge">
<title>Node17&#45;&gt;Node13</title>
<g id="a_edge28_Node000017_Node000013"><a xlink:title=" ">
<path fill="none" stroke="#63b8ff" d="M738.93,-472.46C754.6,-473.33 771.29,-474.26 786.9,-475.13"/>
<polygon fill="#63b8ff" stroke="#63b8ff" points="786.35,-478.6 796.53,-475.66 786.74,-471.61 786.35,-478.6"/>
</a>
</g>
</g>
<!-- Node17&#45;&gt;Node17 -->
<g id="edge25_Node000017_Node000017" class="edge">
<title>Node17&#45;&gt;Node17</title>
<g id="a_edge25_Node000017_Node000017"><a xlink:title=" ">
<path fill="none" stroke="#63b8ff" d="M637.47,-492C635.14,-501.68 646.4,-509.88 671.25,-509.88 686,-509.88 695.97,-506.98 701.14,-502.61"/>
<polygon fill="#63b8ff" stroke="#63b8ff" points="704.35,-504.02 704.51,-493.42 697.78,-501.61 704.35,-504.02"/>
</a>
</g>
</g>
<!-- Node19&#45;&gt;Node20 -->
<g id="edge33_Node000019_Node000020" class="edge">
<title>Node19&#45;&gt;Node20</title>
<g id="a_edge33_Node000019_Node000020"><a xlink:title=" ">
<path fill="none" stroke="#63b8ff" d="M211.17,-272.61C220.75,-270.08 230.7,-267.46 240.49,-264.88"/>
<polygon fill="#63b8ff" stroke="#63b8ff" points="241.21,-268.31 249.99,-262.38 239.42,-261.54 241.21,-268.31"/>
</a>
</g>
</g>
<!-- Node21 -->
<g id="Node000021" class="node">
<title>Node21</title>
<g id="a_Node000021"><a xlink:href="classnlohmann_1_1json__schema_1_1root__schema.html#a32f6012c2d81f29ca16e4409dd2b5ea3" target="_top" xlink:title=" ">
<polygon fill="white" stroke="#666666" points="738.5,-164.5 604,-164.5 604,-131 738.5,-131 738.5,-164.5"/>
<text xml:space="preserve" text-anchor="start" x="612" y="-151" font-family="Helvetica,sans-Serif" font-size="10.00">nlohmann::json_schema</text>
<text xml:space="preserve" text-anchor="middle" x="671.25" y="-138.25" font-family="Helvetica,sans-Serif" font-size="10.00">::root_schema::validate</text>
</a>
</g>
</g>
<!-- Node20&#45;&gt;Node21 -->
<g id="edge34_Node000020_Node000021" class="edge">
<title>Node20&#45;&gt;Node21</title>
<g id="a_edge34_Node000020_Node000021"><a xlink:title=" ">
<path fill="none" stroke="#63b8ff" d="M381.29,-227.52C441.69,-210.85 533.23,-185.58 597.04,-167.96"/>
<polygon fill="#63b8ff" stroke="#63b8ff" points="597.66,-171.42 606.37,-165.39 595.8,-164.67 597.66,-171.42"/>
</a>
</g>
</g>
<!-- Node21&#45;&gt;Node10 -->
<g id="edge36_Node000021_Node000010" class="edge">
<title>Node21&#45;&gt;Node10</title>
<g id="a_edge36_Node000021_Node000010"><a xlink:title=" ">
<path fill="none" stroke="#63b8ff" d="M699.55,-164.91C730.39,-184.3 780.74,-215.95 815.07,-237.54"/>
<polygon fill="#63b8ff" stroke="#63b8ff" points="813.13,-240.45 823.46,-242.81 816.85,-234.52 813.13,-240.45"/>
</a>
</g>
</g>
<!-- Node21&#45;&gt;Node12 -->
<g id="edge37_Node000021_Node000012" class="edge">
<title>Node21&#45;&gt;Node12</title>
<g id="a_edge37_Node000021_Node000012"><a xlink:title=" ">
<path fill="none" stroke="#63b8ff" d="M738.97,-134.89C790.05,-127.87 861.5,-124.28 920.25,-144.75 946.25,-153.81 970.36,-173.92 987,-190.43"/>
<polygon fill="#63b8ff" stroke="#63b8ff" points="984.45,-192.83 993.93,-197.57 989.48,-187.96 984.45,-192.83"/>
</a>
</g>
</g>
<!-- Node21&#45;&gt;Node14 -->
<g id="edge38_Node000021_Node000014" class="edge">
<title>Node21&#45;&gt;Node14</title>
<g id="a_edge38_Node000021_Node000014"><a xlink:title=" ">
<path fill="none" stroke="#63b8ff" d="M738.93,-156.28C754.6,-158.29 771.29,-160.42 786.9,-162.42"/>
<polygon fill="#63b8ff" stroke="#63b8ff" points="786.18,-165.86 796.54,-163.65 787.07,-158.91 786.18,-165.86"/>
</a>
</g>
</g>
<!-- Node22 -->
<g id="Node000022" class="node">
<title>Node22</title>
<g id="a_Node000022"><a xlink:href="classnlohmann_1_1json__schema_1_1error__handler.html#a6518c4580b8dd8063000e183f1541650" target="_top" xlink:title=" ">
<polygon fill="white" stroke="#666666" points="920.25,-33.5 785.75,-33.5 785.75,0 920.25,0 920.25,-33.5"/>
<text xml:space="preserve" text-anchor="start" x="793.75" y="-20" font-family="Helvetica,sans-Serif" font-size="10.00">nlohmann::json_schema</text>
<text xml:space="preserve" text-anchor="middle" x="853" y="-7.25" font-family="Helvetica,sans-Serif" font-size="10.00">::error_handler::error</text>
</a>
</g>
</g>
<!-- Node21&#45;&gt;Node22 -->
<g id="edge35_Node000021_Node000022" class="edge">
<title>Node21&#45;&gt;Node22</title>
<g id="a_edge35_Node000021_Node000022"><a xlink:title=" ">
<path fill="none" stroke="#63b8ff" d="M686.85,-130.75C707.09,-108.07 745.73,-67.86 785.75,-42.75 787.75,-41.49 789.83,-40.28 791.95,-39.11"/>
<polygon fill="#63b8ff" stroke="#63b8ff" points="793.47,-42.26 800.81,-34.63 790.31,-36.02 793.47,-42.26"/>
</a>
</g>
</g>
<!-- Node23 -->
<g id="Node000023" class="node">
<title>Node23</title>
<g id="a_Node000023"><a xlink:href="classanonymous__namespace_02json-validator_8cpp_03_1_1schema.html#a2509ace246d9dcec607e75377753a5ea" target="_top" xlink:title=" ">
<polygon fill="white" stroke="#666666" points="920.25,-97.88 785.75,-97.88 785.75,-51.62 920.25,-51.62 920.25,-97.88"/>
<text xml:space="preserve" text-anchor="start" x="793.75" y="-84.38" font-family="Helvetica,sans-Serif" font-size="10.00">anonymous_namespace</text>
<text xml:space="preserve" text-anchor="start" x="793.75" y="-71.62" font-family="Helvetica,sans-Serif" font-size="10.00">{json&#45;validator::cpp}</text>
<text xml:space="preserve" text-anchor="middle" x="853" y="-58.88" font-family="Helvetica,sans-Serif" font-size="10.00">::schema::validate</text>
</a>
</g>
</g>
<!-- Node21&#45;&gt;Node23 -->
<g id="edge39_Node000021_Node000023" class="edge">
<title>Node21&#45;&gt;Node23</title>
<g id="a_edge39_Node000021_Node000023"><a xlink:title=" ">
<path fill="none" stroke="#63b8ff" d="M714.39,-130.63C735,-122.27 760.32,-111.98 783.6,-102.53"/>
<polygon fill="#63b8ff" stroke="#63b8ff" points="784.78,-105.83 792.73,-98.82 782.15,-99.34 784.78,-105.83"/>
</a>
</g>
</g>
</g>
</svg>

<g id="navigator" transform="translate(0 0)" fill="#404254">
  <rect fill="#f2f5e9" fill-opacity="0.5" stroke="#606060" stroke-width=".5" x="0" y="0" width="60" height="60"/>
  <use id="zoomplus" xlink:href="#zoomPlus" x="17" y="9" onmousedown="handleZoom(evt,'in')"/>
  <use id="zoomminus" xlink:href="#zoomMin" x="42" y="9" onmousedown="handleZoom(evt,'out')"/>
  <use id="reset" xlink:href="#resetDef" x="30" y="36" onmousedown="handleReset()"/>
   <use id="arrowup" xlink:href="#arrowUp" x="0" y="0" onmousedown="handlePan(0,-1)"/>
  <use id="arrowright" xlink:href="#arrowRight" x="0" y="0" onmousedown="handlePan(1,0)"/>
  <use id="arrowdown" xlink:href="#arrowDown" x="0" y="0" onmousedown="handlePan(0,1)"/>
  <use id="arrowleft" xlink:href="#arrowLeft" x="0" y="0" onmousedown="handlePan(-1,0)"/>
</g>
<svg viewBox="0 0 15 15" width="100%" height="30px" preserveAspectRatio="xMaxYMin meet">
 <g id="arrow_out" transform="scale(0.3 0.3)">
  <a xlink:href="readme_8cpp_ae66f6b31b5ad750f1fe042a706a4e3d4_cgraph_org.svg" target="_base">
   <rect id="button" ry="5" rx="5" y="6" x="6" height="38" width="38"
        fill="#f2f5e9" fill-opacity="0.5" stroke="#606060" stroke-width="1.0"/>
   <path id="arrow"
     d="M 11.500037,31.436501 C 11.940474,20.09759 22.043105,11.32322 32.158766,21.979434 L 37.068811,17.246167 C 37.068811,17.246167 37.088388,32 37.088388,32 L 22.160133,31.978069 C 22.160133,31.978069 26.997745,27.140456 26.997745,27.140456 C 18.528582,18.264221 13.291696,25.230495 11.500037,31.436501 z"
     style="fill:#404040;"/>
  </a>
 </g>
</svg>

<style type='text/css'>
<![CDATA[
[data-mouse-over-selected='false'] { opacity: 0.7; }
[data-mouse-over-selected='true']  { opacity: 1.0; }
]]>
</style>
<script type="application/ecmascript"><![CDATA[
document.addEventListener('DOMContentLoaded', (event) => {
  highlightEdges();
  highlightAdjacentNodes();
});
]]></script>
</svg>
