<?xml version="1.0" encoding="UTF-8" standalone="no"?>
<!DOCTYPE svg PUBLIC "-//W3C//DTD SVG 1.1//EN"
 "http://www.w3.org/Graphics/SVG/1.1/DTD/svg11.dtd">
<!-- Generated by graphviz version 2.42.4 (0)
 -->
<!-- Title: mqttbridge/websocket/SubProtocolFactory.cpp Pages: 1 -->
<svg width="823pt" height="170pt"
 viewBox="0.00 0.00 822.50 170.00" xmlns="http://www.w3.org/2000/svg" xmlns:xlink="http://www.w3.org/1999/xlink">
<g id="graph0" class="graph" transform="scale(1 1) rotate(0) translate(4 166)">
<title>mqttbridge/websocket/SubProtocolFactory.cpp</title>
<!-- Node1 -->
<g id="Node000001" class="node">
<title>Node1</title>
<g id="a_Node000001"><a xlink:title=" ">
<polygon fill="#999999" stroke="#666666" points="544.5,-162 412.5,-162 412.5,-132 544.5,-132 544.5,-162"/>
<text text-anchor="start" x="420.5" y="-150" font-family="Helvetica,sans-Serif" font-size="10.00">mqttbridge/websocket</text>
<text text-anchor="middle" x="478.5" y="-139" font-family="Helvetica,sans-Serif" font-size="10.00">/SubProtocolFactory.cpp</text>
</a>
</g>
</g>
<!-- Node2 -->
<g id="Node000002" class="node">
<title>Node2</title>
<g id="a_Node000002"><a xlink:href="ridge_2websocket_2SubProtocolFactory_8h.html" target="_top" xlink:title=" ">
<polygon fill="white" stroke="#666666" points="308.5,-90.5 190.5,-90.5 190.5,-71.5 308.5,-71.5 308.5,-90.5"/>
<text text-anchor="middle" x="249.5" y="-78.5" font-family="Helvetica,sans-Serif" font-size="10.00">SubProtocolFactory.h</text>
</a>
</g>
</g>
<!-- Node1&#45;&gt;Node2 -->
<g id="edge1_Node000001_Node000002" class="edge">
<title>Node1&#45;&gt;Node2</title>
<g id="a_edge1_Node000001_Node000002"><a xlink:title=" ">
<path fill="none" stroke="#63b8ff" d="M428.24,-131.95C386.67,-120.34 328.38,-104.05 289.82,-93.27"/>
<polygon fill="#63b8ff" stroke="#63b8ff" points="290.55,-89.84 279.98,-90.52 288.66,-96.58 290.55,-89.84"/>
</a>
</g>
</g>
<!-- Node5 -->
<g id="Node000005" class="node">
<title>Node5</title>
<g id="a_Node000005"><a xlink:href="BridgeStore_8h.html" target="_top" xlink:title=" ">
<polygon fill="white" stroke="#666666" points="428.5,-90.5 330.5,-90.5 330.5,-71.5 428.5,-71.5 428.5,-90.5"/>
<text text-anchor="middle" x="379.5" y="-78.5" font-family="Helvetica,sans-Serif" font-size="10.00">lib/BridgeStore.h</text>
</a>
</g>
</g>
<!-- Node1&#45;&gt;Node5 -->
<g id="edge4_Node000001_Node000005" class="edge">
<title>Node1&#45;&gt;Node5</title>
<g id="a_edge4_Node000001_Node000005"><a xlink:title=" ">
<path fill="none" stroke="#63b8ff" d="M456.53,-131.8C440.09,-121.17 417.71,-106.7 401.31,-96.1"/>
<polygon fill="#63b8ff" stroke="#63b8ff" points="403.19,-93.15 392.89,-90.66 399.39,-99.03 403.19,-93.15"/>
</a>
</g>
</g>
<!-- Node8 -->
<g id="Node000008" class="node">
<title>Node8</title>
<g id="a_Node000008"><a xlink:title=" ">
<polygon fill="#e0e0e0" stroke="#999999" points="510,-90.5 447,-90.5 447,-71.5 510,-71.5 510,-90.5"/>
<text text-anchor="middle" x="478.5" y="-78.5" font-family="Helvetica,sans-Serif" font-size="10.00">lib/Mqtt.h</text>
</a>
</g>
</g>
<!-- Node1&#45;&gt;Node8 -->
<g id="edge7_Node000001_Node000008" class="edge">
<title>Node1&#45;&gt;Node8</title>
<g id="a_edge7_Node000001_Node000008"><a xlink:title=" ">
<path fill="none" stroke="#63b8ff" d="M478.5,-131.8C478.5,-122.7 478.5,-110.79 478.5,-100.9"/>
<polygon fill="#63b8ff" stroke="#63b8ff" points="482,-100.84 478.5,-90.84 475,-100.84 482,-100.84"/>
</a>
</g>
</g>
<!-- Node9 -->
<g id="Node000009" class="node">
<title>Node9</title>
<g id="a_Node000009"><a xlink:title=" ">
<polygon fill="#e0e0e0" stroke="#999999" points="644.5,-96 528.5,-96 528.5,-66 644.5,-66 644.5,-96"/>
<text text-anchor="start" x="536.5" y="-84" font-family="Helvetica,sans-Serif" font-size="10.00">core/socket/stream</text>
<text text-anchor="middle" x="586.5" y="-73" font-family="Helvetica,sans-Serif" font-size="10.00">/SocketConnection.h</text>
</a>
</g>
</g>
<!-- Node1&#45;&gt;Node9 -->
<g id="edge8_Node000001_Node000009" class="edge">
<title>Node1&#45;&gt;Node9</title>
<g id="a_edge8_Node000001_Node000009"><a xlink:title=" ">
<path fill="none" stroke="#63b8ff" d="M502.2,-131.95C517.39,-122.95 537.32,-111.14 553.98,-101.27"/>
<polygon fill="#63b8ff" stroke="#63b8ff" points="556.04,-104.12 562.85,-96.01 552.47,-98.1 556.04,-104.12"/>
</a>
</g>
</g>
<!-- Node10 -->
<g id="Node000010" class="node">
<title>Node10</title>
<g id="a_Node000010"><a xlink:title=" ">
<polygon fill="#e0e0e0" stroke="#999999" points="814.5,-96 662.5,-96 662.5,-66 814.5,-66 814.5,-96"/>
<text text-anchor="start" x="670.5" y="-84" font-family="Helvetica,sans-Serif" font-size="10.00">web/websocket/SubProtocol</text>
<text text-anchor="middle" x="738.5" y="-73" font-family="Helvetica,sans-Serif" font-size="10.00">Context.h</text>
</a>
</g>
</g>
<!-- Node1&#45;&gt;Node10 -->
<g id="edge9_Node000001_Node000010" class="edge">
<title>Node1&#45;&gt;Node10</title>
<g id="a_edge9_Node000001_Node000010"><a xlink:title=" ">
<path fill="none" stroke="#63b8ff" d="M535.56,-131.95C575.69,-122.08 629.54,-108.82 671.68,-98.45"/>
<polygon fill="#63b8ff" stroke="#63b8ff" points="672.7,-101.8 681.57,-96.01 671.03,-95 672.7,-101.8"/>
</a>
</g>
</g>
<!-- Node3 -->
<g id="Node000003" class="node">
<title>Node3</title>
<g id="a_Node000003"><a xlink:title=" ">
<polygon fill="#e0e0e0" stroke="#999999" points="155,-24.5 0,-24.5 0,-5.5 155,-5.5 155,-24.5"/>
<text text-anchor="middle" x="77.5" y="-12.5" font-family="Helvetica,sans-Serif" font-size="10.00">iot/mqtt/client/SubProtocol.h</text>
</a>
</g>
</g>
<!-- Node2&#45;&gt;Node3 -->
<g id="edge2_Node000002_Node000003" class="edge">
<title>Node2&#45;&gt;Node3</title>
<g id="a_edge2_Node000002_Node000003"><a xlink:title=" ">
<path fill="none" stroke="#63b8ff" d="M226.3,-71.37C196.34,-60.22 144.02,-40.75 110.08,-28.12"/>
<polygon fill="#63b8ff" stroke="#63b8ff" points="111.2,-24.8 100.6,-24.6 108.75,-31.36 111.2,-24.8"/>
</a>
</g>
</g>
<!-- Node4 -->
<g id="Node000004" class="node">
<title>Node4</title>
<g id="a_Node000004"><a xlink:title=" ">
<polygon fill="#e0e0e0" stroke="#999999" points="325.5,-30 173.5,-30 173.5,0 325.5,0 325.5,-30"/>
<text text-anchor="start" x="181.5" y="-18" font-family="Helvetica,sans-Serif" font-size="10.00">web/websocket/SubProtocol</text>
<text text-anchor="middle" x="249.5" y="-7" font-family="Helvetica,sans-Serif" font-size="10.00">Factory.h</text>
</a>
</g>
</g>
<!-- Node2&#45;&gt;Node4 -->
<g id="edge3_Node000002_Node000004" class="edge">
<title>Node2&#45;&gt;Node4</title>
<g id="a_edge3_Node000002_Node000004"><a xlink:title=" ">
<path fill="none" stroke="#63b8ff" d="M249.5,-71.37C249.5,-63.49 249.5,-51.45 249.5,-40.6"/>
<polygon fill="#63b8ff" stroke="#63b8ff" points="253,-40.36 249.5,-30.36 246,-40.36 253,-40.36"/>
</a>
</g>
</g>
<!-- Node6 -->
<g id="Node000006" class="node">
<title>Node6</title>
<g id="a_Node000006"><a xlink:href="Bridge_8h.html" target="_top" xlink:title=" ">
<polygon fill="white" stroke="#666666" points="415.5,-24.5 343.5,-24.5 343.5,-5.5 415.5,-5.5 415.5,-24.5"/>
<text text-anchor="middle" x="379.5" y="-12.5" font-family="Helvetica,sans-Serif" font-size="10.00">lib/Bridge.h</text>
</a>
</g>
</g>
<!-- Node5&#45;&gt;Node6 -->
<g id="edge5_Node000005_Node000006" class="edge">
<title>Node5&#45;&gt;Node6</title>
<g id="a_edge5_Node000005_Node000006"><a xlink:title=" ">
<path fill="none" stroke="#63b8ff" d="M379.5,-71.37C379.5,-62.16 379.5,-47.29 379.5,-35.27"/>
<polygon fill="#63b8ff" stroke="#63b8ff" points="383,-34.91 379.5,-24.91 376,-34.91 383,-34.91"/>
</a>
</g>
</g>
<!-- Node7 -->
<g id="Node000007" class="node">
<title>Node7</title>
<g id="a_Node000007"><a xlink:href="Broker_8h.html" target="_top" xlink:title=" ">
<polygon fill="white" stroke="#666666" points="505.5,-24.5 433.5,-24.5 433.5,-5.5 505.5,-5.5 505.5,-24.5"/>
<text text-anchor="middle" x="469.5" y="-12.5" font-family="Helvetica,sans-Serif" font-size="10.00">lib/Broker.h</text>
</a>
</g>
</g>
<!-- Node5&#45;&gt;Node7 -->
<g id="edge6_Node000005_Node000007" class="edge">
<title>Node5&#45;&gt;Node7</title>
<g id="a_edge6_Node000005_Node000007"><a xlink:title=" ">
<path fill="none" stroke="#63b8ff" d="M391.64,-71.37C406.27,-60.97 431.08,-43.32 448.76,-30.75"/>
<polygon fill="#63b8ff" stroke="#63b8ff" points="451.15,-33.35 457.27,-24.7 447.09,-27.64 451.15,-33.35"/>
</a>
</g>
</g>
</g>
</svg>
