<?xml version="1.0" encoding="UTF-8" standalone="no"?>
<!DOCTYPE svg PUBLIC "-//W3C//DTD SVG 1.1//EN"
 "http://www.w3.org/Graphics/SVG/1.1/DTD/svg11.dtd">
<!-- Generated by graphviz version 14.1.1 (0)
 -->
<!-- Title: lib/json&#45;schema&#45;validator/src/smtp&#45;address&#45;validator.hpp Pages: 1 -->
<svg width="350pt" height="111pt"
 viewBox="0.00 0.00 350.00 111.00" xmlns="http://www.w3.org/2000/svg" xmlns:xlink="http://www.w3.org/1999/xlink">
<g id="graph0" class="graph" transform="scale(1 1) rotate(0) translate(4 107)">
<title>lib/json&#45;schema&#45;validator/src/smtp&#45;address&#45;validator.hpp</title>
<!-- Node1 -->
<g id="Node000001" class="node">
<title>Node1</title>
<g id="a_Node000001"><a xlink:title=" ">
<polygon fill="#999999" stroke="#666666" points="260.88,-103 89.62,-103 89.62,-69.5 260.88,-69.5 260.88,-103"/>
<text xml:space="preserve" text-anchor="start" x="97.62" y="-89.5" font-family="Helvetica,sans-Serif" font-size="10.00">lib/json&#45;schema&#45;validator</text>
<text xml:space="preserve" text-anchor="middle" x="175.25" y="-76.75" font-family="Helvetica,sans-Serif" font-size="10.00">/src/smtp&#45;address&#45;validator.hpp</text>
</a>
</g>
</g>
<!-- Node2 -->
<g id="Node000002" class="node">
<title>Node2</title>
<g id="a_Node000002"><a xlink:href="smtp-address-validator_8cpp.html" target="_top" xlink:title=" ">
<polygon fill="white" stroke="#666666" points="170.5,-33.5 0,-33.5 0,0 170.5,0 170.5,-33.5"/>
<text xml:space="preserve" text-anchor="start" x="8" y="-20" font-family="Helvetica,sans-Serif" font-size="10.00">lib/json&#45;schema&#45;validator</text>
<text xml:space="preserve" text-anchor="middle" x="85.25" y="-7.25" font-family="Helvetica,sans-Serif" font-size="10.00">/src/smtp&#45;address&#45;validator.cpp</text>
</a>
</g>
</g>
<!-- Node1&#45;&gt;Node2 -->
<g id="edge1_Node000001_Node000002" class="edge">
<title>Node1&#45;&gt;Node2</title>
<g id="a_edge1_Node000001_Node000002"><a xlink:title=" ">
<path fill="none" stroke="#63b8ff" d="M144.77,-62.39C132.28,-53.02 118.11,-42.4 106.74,-33.87"/>
<polygon fill="#63b8ff" stroke="#63b8ff" points="142.61,-65.15 152.71,-68.35 146.81,-59.55 142.61,-65.15"/>
</a>
</g>
</g>
<!-- Node3 -->
<g id="Node000003" class="node">
<title>Node3</title>
<g id="a_Node000003"><a xlink:href="string-format-check_8cpp.html" target="_top" xlink:title=" ">
<polygon fill="white" stroke="#666666" points="341.88,-33.5 188.62,-33.5 188.62,0 341.88,0 341.88,-33.5"/>
<text xml:space="preserve" text-anchor="start" x="196.62" y="-20" font-family="Helvetica,sans-Serif" font-size="10.00">lib/json&#45;schema&#45;validator</text>
<text xml:space="preserve" text-anchor="middle" x="265.25" y="-7.25" font-family="Helvetica,sans-Serif" font-size="10.00">/src/string&#45;format&#45;check.cpp</text>
</a>
</g>
</g>
<!-- Node1&#45;&gt;Node3 -->
<g id="edge2_Node000001_Node000003" class="edge">
<title>Node1&#45;&gt;Node3</title>
<g id="a_edge2_Node000001_Node000003"><a xlink:title=" ">
<path fill="none" stroke="#63b8ff" d="M205.73,-62.39C218.22,-53.02 232.39,-42.4 243.76,-33.87"/>
<polygon fill="#63b8ff" stroke="#63b8ff" points="203.69,-59.55 197.79,-68.35 207.89,-65.15 203.69,-59.55"/>
</a>
</g>
</g>
</g>
</svg>
