<?xml version="1.0" encoding="UTF-8" standalone="no"?>
<!DOCTYPE svg PUBLIC "-//W3C//DTD SVG 1.1//EN"
 "http://www.w3.org/Graphics/SVG/1.1/DTD/svg11.dtd">
<!-- Generated by graphviz version 14.1.2 (0)
 -->
<!-- Title: lib/plugins/storage/Storage.cpp Pages: 1 -->
<!--zoomable 212 -->

<svg id="main" version="1.1" xmlns="http://www.w3.org/2000/svg" xmlns:xlink="http://www.w3.org/1999/xlink" xml:space="preserve" onload="init(evt)">

<style type="text/css"><![CDATA[
.node, .edge {opacity: 0.7;}
.node.selected, .edge.selected {opacity: 1;}
.edge:hover path { stroke: red; }
.edge:hover polygon { stroke: red; fill: red; }
]]></style>

<defs>
  <circle id="rim" cx="0" cy="0" r="7"/>
  <circle id="rim2" cx="0" cy="0" r="3.5"/>
  <g id="zoomPlus">
    <use xlink:href="#rim" fill="#404040"><set attributeName="fill" to="#808080" begin="zoomplus.mouseover" end="zoomplus.mouseout"/></use>
    <path d="M-4,0h8M0,-4v8" fill="none" stroke="white" stroke-width="1.5" pointer-events="none"/>
  </g>
  <g id="zoomMin">
    <use xlink:href="#rim" fill="#404040"><set attributeName="fill" to="#808080" begin="zoomminus.mouseover" end="zoomminus.mouseout"/></use>
    <path d="M-4,0h8" fill="none" stroke="white" stroke-width="1.5" pointer-events="none"/>
  </g>
  <g id="arrowUp" transform="translate(30 24)">
    <use xlink:href="#rim"/>
    <path pointer-events="none" fill="none" stroke="white" stroke-width="1.5" d="M0,-3.0v7 M-2.5,-0.5L0,-3.0L2.5,-0.5"/>
  </g>
  <g id="arrowRight" transform="rotate(90) translate(36 -43)">
    <use xlink:href="#rim"/>
    <path pointer-events="none" fill="none" stroke="white" stroke-width="1.5" d="M0,-3.0v7 M-2.5,-0.5L0,-3.0L2.5,-0.5"/>
  </g>
  <g id="arrowDown" transform="rotate(180) translate(-30 -48)">
    <use xlink:href="#rim"/>
    <path pointer-events="none" fill="none" stroke="white" stroke-width="1.5" d="M0,-3.0v7 M-2.5,-0.5L0,-3.0L2.5,-0.5"/>
  </g>
  <g id="arrowLeft" transform="rotate(270) translate(-36 17)">
    <use xlink:href="#rim"/>
    <path pointer-events="none" fill="none" stroke="white" stroke-width="1.5" d="M0,-3.0v7 M-2.5,-0.5L0,-3.0L2.5,-0.5"/>
  </g>
  <g id="resetDef">
    <use xlink:href="#rim2" fill="#404040"><set attributeName="fill" to="#808080" begin="reset.mouseover" end="reset.mouseout"/></use>
  </g>
</defs>
<script type="application/ecmascript">
var viewWidth = 1748;
var viewHeight = 212;
var sectionId = 'dynsection-0';
</script>
<script type="application/ecmascript" xlink:href="svg.min.js"/>
<svg id="graph" class="graph">
<g id="viewport">
<title>lib/plugins/storage/Storage.cpp</title>
<!-- Node1 -->
<g id="Node000001" class="node">
<title>Node1</title>
<g id="a_Node000001"><a xlink:title=" ">
<polygon fill="#999999" stroke="#666666" points="1037.5,-203.75 931.5,-203.75 931.5,-170.25 1037.5,-170.25 1037.5,-203.75"/>
<text xml:space="preserve" text-anchor="start" x="939.5" y="-190.25" font-family="Helvetica,sans-Serif" font-size="10.00">lib/plugins/storage</text>
<text xml:space="preserve" text-anchor="middle" x="984.5" y="-177.5" font-family="Helvetica,sans-Serif" font-size="10.00">/Storage.cpp</text>
</a>
</g>
</g>
<!-- Node2 -->
<g id="Node000002" class="node">
<title>Node2</title>
<g id="a_Node000002"><a xlink:href="Storage_8h.html" target="_top" xlink:title=" ">
<polygon fill="white" stroke="#666666" points="958.75,-134.25 896.25,-134.25 896.25,-113.5 958.75,-113.5 958.75,-134.25"/>
<text xml:space="preserve" text-anchor="middle" x="927.5" y="-120.75" font-family="Helvetica,sans-Serif" font-size="10.00">Storage.h</text>
</a>
</g>
</g>
<!-- Node1&#45;&gt;Node2 -->
<g id="edge1_Node000001_Node000002" class="edge">
<title>Node1&#45;&gt;Node2</title>
<g id="a_edge1_Node000001_Node000002"><a xlink:title=" ">
<path fill="none" stroke="#63b8ff" d="M969.52,-169.94C961.79,-161.64 952.32,-151.49 944.33,-142.93"/>
<polygon fill="#63b8ff" stroke="#63b8ff" points="947.09,-140.75 937.71,-135.82 941.97,-145.52 947.09,-140.75"/>
</a>
</g>
</g>
<!-- Node28 -->
<g id="Node000028" class="node">
<title>Node28</title>
<g id="a_Node000028"><a xlink:href="MqttMapperPlugin_8h.html" target="_top" xlink:title=" ">
<polygon fill="white" stroke="#666666" points="1106.12,-134.25 976.88,-134.25 976.88,-113.5 1106.12,-113.5 1106.12,-134.25"/>
<text xml:space="preserve" text-anchor="middle" x="1041.5" y="-120.75" font-family="Helvetica,sans-Serif" font-size="10.00">lib/MqttMapperPlugin.h</text>
</a>
</g>
</g>
<!-- Node1&#45;&gt;Node28 -->
<g id="edge27_Node000001_Node000028" class="edge">
<title>Node1&#45;&gt;Node28</title>
<g id="a_edge27_Node000001_Node000028"><a xlink:title=" ">
<path fill="none" stroke="#63b8ff" d="M999.48,-169.94C1007.21,-161.64 1016.68,-151.49 1024.67,-142.93"/>
<polygon fill="#63b8ff" stroke="#63b8ff" points="1027.03,-145.52 1031.29,-135.82 1021.91,-140.75 1027.03,-145.52"/>
</a>
</g>
</g>
<!-- Node3 -->
<g id="Node000003" class="node">
<title>Node3</title>
<g id="a_Node000003"><a xlink:href="inja_8hpp.html" target="_top" xlink:title=" ">
<polygon fill="white" stroke="#666666" points="962.5,-77.5 892.5,-77.5 892.5,-56.75 962.5,-56.75 962.5,-77.5"/>
<text xml:space="preserve" text-anchor="middle" x="927.5" y="-64" font-family="Helvetica,sans-Serif" font-size="10.00">lib/inja.hpp</text>
</a>
</g>
</g>
<!-- Node2&#45;&gt;Node3 -->
<g id="edge2_Node000002_Node000003" class="edge">
<title>Node2&#45;&gt;Node3</title>
<g id="a_edge2_Node000002_Node000003"><a xlink:title=" ">
<path fill="none" stroke="#63b8ff" d="M927.5,-113.09C927.5,-106.47 927.5,-97.47 927.5,-89.27"/>
<polygon fill="#63b8ff" stroke="#63b8ff" points="931,-89.34 927.5,-79.34 924,-89.34 931,-89.34"/>
</a>
</g>
</g>
<!-- Node4 -->
<g id="Node000004" class="node">
<title>Node4</title>
<g id="a_Node000004"><a xlink:title=" ">
<polygon fill="#e0e0e0" stroke="#999999" points="109,-20.75 0,-20.75 0,0 109,0 109,-20.75"/>
<text xml:space="preserve" text-anchor="middle" x="54.5" y="-7.25" font-family="Helvetica,sans-Serif" font-size="10.00">nlohmann/json.hpp</text>
</a>
</g>
</g>
<!-- Node3&#45;&gt;Node4 -->
<g id="edge3_Node000003_Node000004" class="edge">
<title>Node3&#45;&gt;Node4</title>
<g id="a_edge3_Node000003_Node000004"><a xlink:title=" ">
<path fill="none" stroke="#63b8ff" d="M892.32,-65.28C780.93,-62.35 425.78,-51.2 120.56,-20.86"/>
<polygon fill="#63b8ff" stroke="#63b8ff" points="121.08,-17.39 110.78,-19.88 120.38,-24.36 121.08,-17.39"/>
</a>
</g>
</g>
<!-- Node5 -->
<g id="Node000005" class="node">
<title>Node5</title>
<g id="a_Node000005"><a xlink:title=" ">
<polygon fill="#e0e0e0" stroke="#999999" points="175.62,-20.75 127.38,-20.75 127.38,0 175.62,0 175.62,-20.75"/>
<text xml:space="preserve" text-anchor="middle" x="151.5" y="-7.25" font-family="Helvetica,sans-Serif" font-size="10.00">cstdlib</text>
</a>
</g>
</g>
<!-- Node3&#45;&gt;Node5 -->
<g id="edge4_Node000003_Node000005" class="edge">
<title>Node3&#45;&gt;Node5</title>
<g id="a_edge4_Node000003_Node000005"><a xlink:title=" ">
<path fill="none" stroke="#63b8ff" d="M892.38,-66.65C786.73,-67.68 462.64,-66.72 186.9,-20.8"/>
<polygon fill="#63b8ff" stroke="#63b8ff" points="187.81,-17.4 177.37,-19.19 186.64,-24.3 187.81,-17.4"/>
</a>
</g>
</g>
<!-- Node6 -->
<g id="Node000006" class="node">
<title>Node6</title>
<g id="a_Node000006"><a xlink:title=" ">
<polygon fill="#e0e0e0" stroke="#999999" points="247.62,-20.75 193.38,-20.75 193.38,0 247.62,0 247.62,-20.75"/>
<text xml:space="preserve" text-anchor="middle" x="220.5" y="-7.25" font-family="Helvetica,sans-Serif" font-size="10.00">fstream</text>
</a>
</g>
</g>
<!-- Node3&#45;&gt;Node6 -->
<g id="edge5_Node000003_Node000006" class="edge">
<title>Node3&#45;&gt;Node6</title>
<g id="a_edge5_Node000003_Node000006"><a xlink:title=" ">
<path fill="none" stroke="#63b8ff" d="M892.31,-66.06C793.69,-65.38 506.25,-60.07 259.26,-20.91"/>
<polygon fill="#63b8ff" stroke="#63b8ff" points="259.83,-17.45 249.4,-19.32 258.71,-24.36 259.83,-17.45"/>
</a>
</g>
</g>
<!-- Node7 -->
<g id="Node000007" class="node">
<title>Node7</title>
<g id="a_Node000007"><a xlink:title=" ">
<polygon fill="#e0e0e0" stroke="#999999" points="325.25,-20.75 265.75,-20.75 265.75,0 325.25,0 325.25,-20.75"/>
<text xml:space="preserve" text-anchor="middle" x="295.5" y="-7.25" font-family="Helvetica,sans-Serif" font-size="10.00">iostream</text>
</a>
</g>
</g>
<!-- Node3&#45;&gt;Node7 -->
<g id="edge6_Node000003_Node000007" class="edge">
<title>Node3&#45;&gt;Node7</title>
<g id="a_edge6_Node000003_Node000007"><a xlink:title=" ">
<path fill="none" stroke="#63b8ff" d="M892.18,-65.39C801.51,-63.07 553.05,-54.1 336.88,-20.88"/>
<polygon fill="#63b8ff" stroke="#63b8ff" points="337.55,-17.44 327.13,-19.36 336.47,-24.36 337.55,-17.44"/>
</a>
</g>
</g>
<!-- Node8 -->
<g id="Node000008" class="node">
<title>Node8</title>
<g id="a_Node000008"><a xlink:title=" ">
<polygon fill="#e0e0e0" stroke="#999999" points="399.38,-20.75 343.62,-20.75 343.62,0 399.38,0 399.38,-20.75"/>
<text xml:space="preserve" text-anchor="middle" x="371.5" y="-7.25" font-family="Helvetica,sans-Serif" font-size="10.00">sstream</text>
</a>
</g>
</g>
<!-- Node3&#45;&gt;Node8 -->
<g id="edge7_Node000003_Node000008" class="edge">
<title>Node3&#45;&gt;Node8</title>
<g id="a_edge7_Node000003_Node000008"><a xlink:title=" ">
<path fill="none" stroke="#63b8ff" d="M892.01,-64.99C809.28,-61.93 597.15,-51.65 410.79,-20.88"/>
<polygon fill="#63b8ff" stroke="#63b8ff" points="411.62,-17.47 401.17,-19.26 410.46,-24.37 411.62,-17.47"/>
</a>
</g>
</g>
<!-- Node9 -->
<g id="Node000009" class="node">
<title>Node9</title>
<g id="a_Node000009"><a xlink:title=" ">
<polygon fill="#e0e0e0" stroke="#999999" points="461.38,-20.75 417.62,-20.75 417.62,0 461.38,0 461.38,-20.75"/>
<text xml:space="preserve" text-anchor="middle" x="439.5" y="-7.25" font-family="Helvetica,sans-Serif" font-size="10.00">string</text>
</a>
</g>
</g>
<!-- Node3&#45;&gt;Node9 -->
<g id="edge8_Node000003_Node000009" class="edge">
<title>Node3&#45;&gt;Node9</title>
<g id="a_edge8_Node000003_Node000009"><a xlink:title=" ">
<path fill="none" stroke="#63b8ff" d="M892.18,-64.96C816.73,-61.97 634.17,-52.08 472.81,-20.85"/>
<polygon fill="#63b8ff" stroke="#63b8ff" points="473.69,-17.45 463.2,-18.95 472.34,-24.32 473.69,-17.45"/>
</a>
</g>
</g>
<!-- Node10 -->
<g id="Node000010" class="node">
<title>Node10</title>
<g id="a_Node000010"><a xlink:title=" ">
<polygon fill="#e0e0e0" stroke="#999999" points="551.62,-20.75 479.38,-20.75 479.38,0 551.62,0 551.62,-20.75"/>
<text xml:space="preserve" text-anchor="middle" x="515.5" y="-7.25" font-family="Helvetica,sans-Serif" font-size="10.00">string_view</text>
</a>
</g>
</g>
<!-- Node3&#45;&gt;Node10 -->
<g id="edge9_Node000003_Node000010" class="edge">
<title>Node3&#45;&gt;Node10</title>
<g id="a_edge9_Node000003_Node000010"><a xlink:title=" ">
<path fill="none" stroke="#63b8ff" d="M892.19,-62.74C828.46,-56.41 689.78,-41.69 562.87,-21.03"/>
<polygon fill="#63b8ff" stroke="#63b8ff" points="563.73,-17.62 553.29,-19.45 562.59,-24.53 563.73,-17.62"/>
</a>
</g>
</g>
<!-- Node11 -->
<g id="Node000011" class="node">
<title>Node11</title>
<g id="a_Node000011"><a xlink:title=" ">
<polygon fill="#e0e0e0" stroke="#999999" points="637.38,-20.75 569.62,-20.75 569.62,0 637.38,0 637.38,-20.75"/>
<text xml:space="preserve" text-anchor="middle" x="603.5" y="-7.25" font-family="Helvetica,sans-Serif" font-size="10.00">filesystem</text>
</a>
</g>
</g>
<!-- Node3&#45;&gt;Node11 -->
<g id="edge10_Node000003_Node000011" class="edge">
<title>Node3&#45;&gt;Node11</title>
<g id="a_edge10_Node000003_Node000011"><a xlink:title=" ">
<path fill="none" stroke="#63b8ff" d="M892.35,-61.08C841.07,-53.58 742.5,-38.65 648.83,-21.11"/>
<polygon fill="#63b8ff" stroke="#63b8ff" points="649.7,-17.71 639.22,-19.3 648.4,-24.59 649.7,-17.71"/>
</a>
</g>
</g>
<!-- Node12 -->
<g id="Node000012" class="node">
<title>Node12</title>
<g id="a_Node000012"><a xlink:title=" ">
<polygon fill="#e0e0e0" stroke="#999999" points="719.88,-20.75 655.12,-20.75 655.12,0 719.88,0 719.88,-20.75"/>
<text xml:space="preserve" text-anchor="middle" x="687.5" y="-7.25" font-family="Helvetica,sans-Serif" font-size="10.00">functional</text>
</a>
</g>
</g>
<!-- Node3&#45;&gt;Node12 -->
<g id="edge11_Node000003_Node000012" class="edge">
<title>Node3&#45;&gt;Node12</title>
<g id="a_edge11_Node000003_Node000012"><a xlink:title=" ">
<path fill="none" stroke="#63b8ff" d="M892.27,-58.1C854.75,-49.55 793.31,-35.55 731.34,-21.4"/>
<polygon fill="#63b8ff" stroke="#63b8ff" points="732.18,-18 721.65,-19.18 730.62,-24.82 732.18,-18"/>
</a>
</g>
</g>
<!-- Node13 -->
<g id="Node000013" class="node">
<title>Node13</title>
<g id="a_Node000013"><a xlink:title=" ">
<polygon fill="#e0e0e0" stroke="#999999" points="775.38,-20.75 737.62,-20.75 737.62,0 775.38,0 775.38,-20.75"/>
<text xml:space="preserve" text-anchor="middle" x="756.5" y="-7.25" font-family="Helvetica,sans-Serif" font-size="10.00">map</text>
</a>
</g>
</g>
<!-- Node3&#45;&gt;Node13 -->
<g id="edge12_Node000003_Node000013" class="edge">
<title>Node3&#45;&gt;Node13</title>
<g id="a_edge12_Node000003_Node000013"><a xlink:title=" ">
<path fill="none" stroke="#63b8ff" d="M895.93,-56.27C869.13,-47.86 829.4,-35.32 786.45,-21.35"/>
<polygon fill="#63b8ff" stroke="#63b8ff" points="787.8,-18.11 777.21,-18.34 785.63,-24.77 787.8,-18.11"/>
</a>
</g>
</g>
<!-- Node14 -->
<g id="Node000014" class="node">
<title>Node14</title>
<g id="a_Node000014"><a xlink:title=" ">
<polygon fill="#e0e0e0" stroke="#999999" points="851.12,-20.75 793.88,-20.75 793.88,0 851.12,0 851.12,-20.75"/>
<text xml:space="preserve" text-anchor="middle" x="822.5" y="-7.25" font-family="Helvetica,sans-Serif" font-size="10.00">memory</text>
</a>
</g>
</g>
<!-- Node3&#45;&gt;Node14 -->
<g id="edge13_Node000003_Node000014" class="edge">
<title>Node3&#45;&gt;Node14</title>
<g id="a_edge13_Node000003_Node000014"><a xlink:title=" ">
<path fill="none" stroke="#63b8ff" d="M908.73,-56.34C892.75,-48.01 869.55,-35.91 851.24,-26.36"/>
<polygon fill="#63b8ff" stroke="#63b8ff" points="852.94,-23.3 842.45,-21.78 849.7,-29.51 852.94,-23.3"/>
</a>
</g>
</g>
<!-- Node15 -->
<g id="Node000015" class="node">
<title>Node15</title>
<g id="a_Node000015"><a xlink:title=" ">
<polygon fill="#e0e0e0" stroke="#999999" points="921.5,-20.75 869.5,-20.75 869.5,0 921.5,0 921.5,-20.75"/>
<text xml:space="preserve" text-anchor="middle" x="895.5" y="-7.25" font-family="Helvetica,sans-Serif" font-size="10.00">cstddef</text>
</a>
</g>
</g>
<!-- Node3&#45;&gt;Node15 -->
<g id="edge14_Node000003_Node000015" class="edge">
<title>Node3&#45;&gt;Node15</title>
<g id="a_edge14_Node000003_Node000015"><a xlink:title=" ">
<path fill="none" stroke="#63b8ff" d="M921.78,-56.34C917.64,-49.25 911.9,-39.44 906.85,-30.79"/>
<polygon fill="#63b8ff" stroke="#63b8ff" points="910,-29.25 901.94,-22.39 903.96,-32.78 910,-29.25"/>
</a>
</g>
</g>
<!-- Node16 -->
<g id="Node000016" class="node">
<title>Node16</title>
<g id="a_Node000016"><a xlink:title=" ">
<polygon fill="#e0e0e0" stroke="#999999" points="979.88,-20.75 939.12,-20.75 939.12,0 979.88,0 979.88,-20.75"/>
<text xml:space="preserve" text-anchor="middle" x="959.5" y="-7.25" font-family="Helvetica,sans-Serif" font-size="10.00">tuple</text>
</a>
</g>
</g>
<!-- Node3&#45;&gt;Node16 -->
<g id="edge15_Node000003_Node000016" class="edge">
<title>Node3&#45;&gt;Node16</title>
<g id="a_edge15_Node000003_Node000016"><a xlink:title=" ">
<path fill="none" stroke="#63b8ff" d="M933.22,-56.34C937.36,-49.25 943.1,-39.44 948.15,-30.79"/>
<polygon fill="#63b8ff" stroke="#63b8ff" points="951.04,-32.78 953.06,-22.39 945,-29.25 951.04,-32.78"/>
</a>
</g>
</g>
<!-- Node17 -->
<g id="Node000017" class="node">
<title>Node17</title>
<g id="a_Node000017"><a xlink:title=" ">
<polygon fill="#e0e0e0" stroke="#999999" points="1044.88,-20.75 998.12,-20.75 998.12,0 1044.88,0 1044.88,-20.75"/>
<text xml:space="preserve" text-anchor="middle" x="1021.5" y="-7.25" font-family="Helvetica,sans-Serif" font-size="10.00">vector</text>
</a>
</g>
</g>
<!-- Node3&#45;&gt;Node17 -->
<g id="edge16_Node000003_Node000017" class="edge">
<title>Node3&#45;&gt;Node17</title>
<g id="a_edge16_Node000003_Node000017"><a xlink:title=" ">
<path fill="none" stroke="#63b8ff" d="M944.31,-56.34C958.47,-48.08 978.99,-36.13 995.31,-26.63"/>
<polygon fill="#63b8ff" stroke="#63b8ff" points="996.65,-29.9 1003.53,-21.84 993.13,-23.85 996.65,-29.9"/>
</a>
</g>
</g>
<!-- Node18 -->
<g id="Node000018" class="node">
<title>Node18</title>
<g id="a_Node000018"><a xlink:title=" ">
<polygon fill="#e0e0e0" stroke="#999999" points="1107.75,-20.75 1063.25,-20.75 1063.25,0 1107.75,0 1107.75,-20.75"/>
<text xml:space="preserve" text-anchor="middle" x="1085.5" y="-7.25" font-family="Helvetica,sans-Serif" font-size="10.00">utility</text>
</a>
</g>
</g>
<!-- Node3&#45;&gt;Node18 -->
<g id="edge17_Node000003_Node000018" class="edge">
<title>Node3&#45;&gt;Node18</title>
<g id="a_edge17_Node000003_Node000018"><a xlink:title=" ">
<path fill="none" stroke="#63b8ff" d="M955.75,-56.34C982.86,-46.94 1023.8,-32.75 1052.43,-22.84"/>
<polygon fill="#63b8ff" stroke="#63b8ff" points="1053.38,-26.21 1061.68,-19.63 1051.09,-19.6 1053.38,-26.21"/>
</a>
</g>
</g>
<!-- Node19 -->
<g id="Node000019" class="node">
<title>Node19</title>
<g id="a_Node000019"><a xlink:title=" ">
<polygon fill="#e0e0e0" stroke="#999999" points="1189.12,-20.75 1125.88,-20.75 1125.88,0 1189.12,0 1189.12,-20.75"/>
<text xml:space="preserve" text-anchor="middle" x="1157.5" y="-7.25" font-family="Helvetica,sans-Serif" font-size="10.00">algorithm</text>
</a>
</g>
</g>
<!-- Node3&#45;&gt;Node19 -->
<g id="edge18_Node000003_Node000019" class="edge">
<title>Node3&#45;&gt;Node19</title>
<g id="a_edge18_Node000003_Node000019"><a xlink:title=" ">
<path fill="none" stroke="#63b8ff" d="M962.93,-57.69C1003.77,-47.97 1070.85,-32 1114.6,-21.59"/>
<polygon fill="#63b8ff" stroke="#63b8ff" points="1115.34,-25.01 1124.26,-19.29 1113.72,-18.2 1115.34,-25.01"/>
</a>
</g>
</g>
<!-- Node20 -->
<g id="Node000020" class="node">
<title>Node20</title>
<g id="a_Node000020"><a xlink:title=" ">
<polygon fill="#e0e0e0" stroke="#999999" points="1271.5,-20.75 1207.5,-20.75 1207.5,0 1271.5,0 1271.5,-20.75"/>
<text xml:space="preserve" text-anchor="middle" x="1239.5" y="-7.25" font-family="Helvetica,sans-Serif" font-size="10.00">stdexcept</text>
</a>
</g>
</g>
<!-- Node3&#45;&gt;Node20 -->
<g id="edge19_Node000003_Node000020" class="edge">
<title>Node3&#45;&gt;Node20</title>
<g id="a_edge19_Node000003_Node000020"><a xlink:title=" ">
<path fill="none" stroke="#63b8ff" d="M962.7,-60.91C1012.43,-53.39 1106.36,-38.66 1196.1,-21.13"/>
<polygon fill="#63b8ff" stroke="#63b8ff" points="1196.69,-24.58 1205.82,-19.22 1195.34,-17.72 1196.69,-24.58"/>
</a>
</g>
</g>
<!-- Node21 -->
<g id="Node000021" class="node">
<title>Node21</title>
<g id="a_Node000021"><a xlink:title=" ">
<polygon fill="#e0e0e0" stroke="#999999" points="1341.5,-20.75 1289.5,-20.75 1289.5,0 1341.5,0 1341.5,-20.75"/>
<text xml:space="preserve" text-anchor="middle" x="1315.5" y="-7.25" font-family="Helvetica,sans-Serif" font-size="10.00">iterator</text>
</a>
</g>
</g>
<!-- Node3&#45;&gt;Node21 -->
<g id="edge20_Node000003_Node000021" class="edge">
<title>Node3&#45;&gt;Node21</title>
<g id="a_edge20_Node000003_Node000021"><a xlink:title=" ">
<path fill="none" stroke="#63b8ff" d="M962.82,-63.16C1024.73,-57.63 1156.99,-44.31 1277.92,-21.03"/>
<polygon fill="#63b8ff" stroke="#63b8ff" points="1278.59,-24.47 1287.73,-19.11 1277.24,-17.6 1278.59,-24.47"/>
</a>
</g>
</g>
<!-- Node22 -->
<g id="Node000022" class="node">
<title>Node22</title>
<g id="a_Node000022"><a xlink:title=" ">
<polygon fill="#e0e0e0" stroke="#999999" points="1401.62,-20.75 1359.38,-20.75 1359.38,0 1401.62,0 1401.62,-20.75"/>
<text xml:space="preserve" text-anchor="middle" x="1380.5" y="-7.25" font-family="Helvetica,sans-Serif" font-size="10.00">stack</text>
</a>
</g>
</g>
<!-- Node3&#45;&gt;Node22 -->
<g id="edge21_Node000003_Node000022" class="edge">
<title>Node3&#45;&gt;Node22</title>
<g id="a_edge21_Node000003_Node000022"><a xlink:title=" ">
<path fill="none" stroke="#63b8ff" d="M962.96,-64.67C1034.32,-61.24 1200.39,-50.73 1347.96,-20.92"/>
<polygon fill="#63b8ff" stroke="#63b8ff" points="1348.43,-24.4 1357.52,-18.95 1347.02,-17.54 1348.43,-24.4"/>
</a>
</g>
</g>
<!-- Node23 -->
<g id="Node000023" class="node">
<title>Node23</title>
<g id="a_Node000023"><a xlink:title=" ">
<polygon fill="#e0e0e0" stroke="#999999" points="1467.62,-20.75 1419.38,-20.75 1419.38,0 1467.62,0 1467.62,-20.75"/>
<text xml:space="preserve" text-anchor="middle" x="1443.5" y="-7.25" font-family="Helvetica,sans-Serif" font-size="10.00">cctype</text>
</a>
</g>
</g>
<!-- Node3&#45;&gt;Node23 -->
<g id="edge22_Node000003_Node000023" class="edge">
<title>Node3&#45;&gt;Node23</title>
<g id="a_edge22_Node000003_Node000023"><a xlink:title=" ">
<path fill="none" stroke="#63b8ff" d="M962.96,-65.01C1041.54,-62.08 1236.33,-52.21 1407.85,-20.93"/>
<polygon fill="#63b8ff" stroke="#63b8ff" points="1408.43,-24.39 1417.62,-19.12 1407.15,-17.5 1408.43,-24.39"/>
</a>
</g>
</g>
<!-- Node24 -->
<g id="Node000024" class="node">
<title>Node24</title>
<g id="a_Node000024"><a xlink:title=" ">
<polygon fill="#e0e0e0" stroke="#999999" points="1527.25,-20.75 1485.75,-20.75 1485.75,0 1527.25,0 1527.25,-20.75"/>
<text xml:space="preserve" text-anchor="middle" x="1506.5" y="-7.25" font-family="Helvetica,sans-Serif" font-size="10.00">array</text>
</a>
</g>
</g>
<!-- Node3&#45;&gt;Node24 -->
<g id="edge23_Node000003_Node000024" class="edge">
<title>Node3&#45;&gt;Node24</title>
<g id="a_edge23_Node000003_Node000024"><a xlink:title=" ">
<path fill="none" stroke="#63b8ff" d="M962.87,-65.89C1049.03,-64.75 1276.59,-58.31 1474.17,-20.78"/>
<polygon fill="#63b8ff" stroke="#63b8ff" points="1474.7,-24.24 1483.86,-18.91 1473.37,-17.37 1474.7,-24.24"/>
</a>
</g>
</g>
<!-- Node25 -->
<g id="Node000025" class="node">
<title>Node25</title>
<g id="a_Node000025"><a xlink:title=" ">
<polygon fill="#e0e0e0" stroke="#999999" points="1591.88,-20.75 1545.12,-20.75 1545.12,0 1591.88,0 1591.88,-20.75"/>
<text xml:space="preserve" text-anchor="middle" x="1568.5" y="-7.25" font-family="Helvetica,sans-Serif" font-size="10.00">cmath</text>
</a>
</g>
</g>
<!-- Node3&#45;&gt;Node25 -->
<g id="edge24_Node000003_Node000025" class="edge">
<title>Node3&#45;&gt;Node25</title>
<g id="a_edge24_Node000003_Node000025"><a xlink:title=" ">
<path fill="none" stroke="#63b8ff" d="M962.84,-66.08C1055.38,-65.42 1312.37,-60.06 1533.69,-20.91"/>
<polygon fill="#63b8ff" stroke="#63b8ff" points="1534.16,-24.39 1543.38,-19.17 1532.92,-17.5 1534.16,-24.39"/>
</a>
</g>
</g>
<!-- Node26 -->
<g id="Node000026" class="node">
<title>Node26</title>
<g id="a_Node000026"><a xlink:title=" ">
<polygon fill="#e0e0e0" stroke="#999999" points="1665.38,-20.75 1609.62,-20.75 1609.62,0 1665.38,0 1665.38,-20.75"/>
<text xml:space="preserve" text-anchor="middle" x="1637.5" y="-7.25" font-family="Helvetica,sans-Serif" font-size="10.00">numeric</text>
</a>
</g>
</g>
<!-- Node3&#45;&gt;Node26 -->
<g id="edge25_Node000003_Node000026" class="edge">
<title>Node3&#45;&gt;Node26</title>
<g id="a_edge25_Node000003_Node000026"><a xlink:title=" ">
<path fill="none" stroke="#63b8ff" d="M962.78,-65.99C1061.71,-65.12 1350.17,-59.37 1598.29,-20.81"/>
<polygon fill="#63b8ff" stroke="#63b8ff" points="1598.5,-24.32 1607.83,-19.31 1597.41,-17.41 1598.5,-24.32"/>
</a>
</g>
</g>
<!-- Node27 -->
<g id="Node000027" class="node">
<title>Node27</title>
<g id="a_Node000027"><a xlink:title=" ">
<polygon fill="#e0e0e0" stroke="#999999" points="1739.75,-20.75 1683.25,-20.75 1683.25,0 1739.75,0 1739.75,-20.75"/>
<text xml:space="preserve" text-anchor="middle" x="1711.5" y="-7.25" font-family="Helvetica,sans-Serif" font-size="10.00">ostream</text>
</a>
</g>
</g>
<!-- Node3&#45;&gt;Node27 -->
<g id="edge26_Node000003_Node000027" class="edge">
<title>Node3&#45;&gt;Node27</title>
<g id="a_edge26_Node000003_Node000027"><a xlink:title=" ">
<path fill="none" stroke="#63b8ff" d="M962.75,-66.32C1068.81,-66.41 1394.24,-63.1 1671.83,-20.89"/>
<polygon fill="#63b8ff" stroke="#63b8ff" points="1672.08,-24.39 1681.43,-19.41 1671.01,-17.48 1672.08,-24.39"/>
</a>
</g>
</g>
</g>
</svg>

<g id="navigator" transform="translate(0 0)" fill="#404254">
  <rect fill="#f2f5e9" fill-opacity="0.5" stroke="#606060" stroke-width=".5" x="0" y="0" width="60" height="60"/>
  <use id="zoomplus" xlink:href="#zoomPlus" x="17" y="9" onmousedown="handleZoom(evt,'in')"/>
  <use id="zoomminus" xlink:href="#zoomMin" x="42" y="9" onmousedown="handleZoom(evt,'out')"/>
  <use id="reset" xlink:href="#resetDef" x="30" y="36" onmousedown="handleReset()"/>
   <use id="arrowup" xlink:href="#arrowUp" x="0" y="0" onmousedown="handlePan(0,-1)"/>
  <use id="arrowright" xlink:href="#arrowRight" x="0" y="0" onmousedown="handlePan(1,0)"/>
  <use id="arrowdown" xlink:href="#arrowDown" x="0" y="0" onmousedown="handlePan(0,1)"/>
  <use id="arrowleft" xlink:href="#arrowLeft" x="0" y="0" onmousedown="handlePan(-1,0)"/>
</g>
<svg viewBox="0 0 15 15" width="100%" height="30px" preserveAspectRatio="xMaxYMin meet">
 <g id="arrow_out" transform="scale(0.3 0.3)">
  <a xlink:href="Storage_8cpp__incl_org.svg" target="_base">
   <rect id="button" ry="5" rx="5" y="6" x="6" height="38" width="38"
        fill="#f2f5e9" fill-opacity="0.5" stroke="#606060" stroke-width="1.0"/>
   <path id="arrow"
     d="M 11.500037,31.436501 C 11.940474,20.09759 22.043105,11.32322 32.158766,21.979434 L 37.068811,17.246167 C 37.068811,17.246167 37.088388,32 37.088388,32 L 22.160133,31.978069 C 22.160133,31.978069 26.997745,27.140456 26.997745,27.140456 C 18.528582,18.264221 13.291696,25.230495 11.500037,31.436501 z"
     style="fill:#404040;"/>
  </a>
 </g>
</svg>

<style type='text/css'>
<![CDATA[
[data-mouse-over-selected='false'] { opacity: 0.7; }
[data-mouse-over-selected='true']  { opacity: 1.0; }
]]>
</style>
<script type="application/ecmascript"><![CDATA[
document.addEventListener('DOMContentLoaded', (event) => {
  highlightEdges();
  highlightAdjacentNodes();
});
]]></script>
</svg>
