<?xml version="1.0" encoding="UTF-8" standalone="no"?>
<!DOCTYPE svg PUBLIC "-//W3C//DTD SVG 1.1//EN"
 "http://www.w3.org/Graphics/SVG/1.1/DTD/svg11.dtd">
<!-- Generated by graphviz version 14.1.2 (0)
 -->
<!-- Title: mqttstore/lib/StoragePlan.cpp Pages: 1 -->
<svg width="273pt" height="142pt"
 viewBox="0.00 0.00 273.00 142.00" xmlns="http://www.w3.org/2000/svg" xmlns:xlink="http://www.w3.org/1999/xlink">
<g id="graph0" class="graph" transform="scale(1 1) rotate(0) translate(4 138.25)">
<title>mqttstore/lib/StoragePlan.cpp</title>
<!-- Node1 -->
<g id="Node000001" class="node">
<title>Node1</title>
<g id="a_Node000001"><a xlink:title=" ">
<polygon fill="#999999" stroke="#666666" points="210.5,-134.25 49.75,-134.25 49.75,-113.5 210.5,-113.5 210.5,-134.25"/>
<text xml:space="preserve" text-anchor="middle" x="130.12" y="-120.75" font-family="Helvetica,sans-Serif" font-size="10.00">mqttstore/lib/StoragePlan.cpp</text>
</a>
</g>
</g>
<!-- Node2 -->
<g id="Node000002" class="node">
<title>Node2</title>
<g id="a_Node000002"><a xlink:href="StoragePlan_8h.html" target="_top" xlink:title=" ">
<polygon fill="white" stroke="#666666" points="107.88,-77.5 24.38,-77.5 24.38,-56.75 107.88,-56.75 107.88,-77.5"/>
<text xml:space="preserve" text-anchor="middle" x="66.12" y="-64" font-family="Helvetica,sans-Serif" font-size="10.00">StoragePlan.h</text>
</a>
</g>
</g>
<!-- Node1&#45;&gt;Node2 -->
<g id="edge1_Node000001_Node000002" class="edge">
<title>Node1&#45;&gt;Node2</title>
<g id="a_edge1_Node000001_Node000002"><a xlink:title=" ">
<path fill="none" stroke="#63b8ff" d="M118.68,-113.09C109.67,-105.38 96.89,-94.45 86.19,-85.29"/>
<polygon fill="#63b8ff" stroke="#63b8ff" points="88.49,-82.65 78.62,-78.81 83.94,-87.97 88.49,-82.65"/>
</a>
</g>
</g>
<!-- Node4 -->
<g id="Node000004" class="node">
<title>Node4</title>
<g id="a_Node000004"><a xlink:title=" ">
<polygon fill="#e0e0e0" stroke="#999999" points="264.62,-77.5 125.62,-77.5 125.62,-56.75 264.62,-56.75 264.62,-77.5"/>
<text xml:space="preserve" text-anchor="middle" x="195.12" y="-64" font-family="Helvetica,sans-Serif" font-size="10.00">projection&#45;schema.json.h</text>
</a>
</g>
</g>
<!-- Node1&#45;&gt;Node4 -->
<g id="edge3_Node000001_Node000004" class="edge">
<title>Node1&#45;&gt;Node4</title>
<g id="a_edge3_Node000001_Node000004"><a xlink:title=" ">
<path fill="none" stroke="#63b8ff" d="M141.75,-113.09C150.99,-105.3 164.14,-94.22 175.07,-85.01"/>
<polygon fill="#63b8ff" stroke="#63b8ff" points="177.05,-87.92 182.45,-78.8 172.54,-82.57 177.05,-87.92"/>
</a>
</g>
</g>
<!-- Node3 -->
<g id="Node000003" class="node">
<title>Node3</title>
<g id="a_Node000003"><a xlink:title=" ">
<polygon fill="#e0e0e0" stroke="#999999" points="132.25,-20.75 0,-20.75 0,0 132.25,0 132.25,-20.75"/>
<text xml:space="preserve" text-anchor="middle" x="66.12" y="-7.25" font-family="Helvetica,sans-Serif" font-size="10.00">nlohmann/json_fwd.hpp</text>
</a>
</g>
</g>
<!-- Node2&#45;&gt;Node3 -->
<g id="edge2_Node000002_Node000003" class="edge">
<title>Node2&#45;&gt;Node3</title>
<g id="a_edge2_Node000002_Node000003"><a xlink:title=" ">
<path fill="none" stroke="#63b8ff" d="M66.12,-56.34C66.12,-49.72 66.12,-40.72 66.12,-32.52"/>
<polygon fill="#63b8ff" stroke="#63b8ff" points="69.63,-32.59 66.13,-22.59 62.63,-32.59 69.63,-32.59"/>
</a>
</g>
</g>
</g>
</svg>
