<?xml version="1.0" encoding="UTF-8" standalone="no"?>
<!DOCTYPE svg PUBLIC "-//W3C//DTD SVG 1.1//EN"
 "http://www.w3.org/Graphics/SVG/1.1/DTD/svg11.dtd">
<!-- Generated by graphviz version 14.1.1 (0)
 -->
<!-- Title: inja::FileError::FileError Pages: 1 -->
<svg width="1058pt" height="372pt"
 viewBox="0.00 0.00 1058.00 372.00" xmlns="http://www.w3.org/2000/svg" xmlns:xlink="http://www.w3.org/1999/xlink">
<g id="graph0" class="graph" transform="scale(1 1) rotate(0) translate(4 367.5)">
<title>inja::FileError::FileError</title>
<!-- Node1 -->
<g id="Node000001" class="node">
<title>Node1</title>
<g id="a_Node000001"><a xlink:title=" ">
<polygon fill="#999999" stroke="#666666" points="1049.5,-203.12 924,-203.12 924,-182.38 1049.5,-182.38 1049.5,-203.12"/>
<text xml:space="preserve" text-anchor="middle" x="986.75" y="-189.62" font-family="Helvetica,sans-Serif" font-size="10.00">inja::FileError::FileError</text>
</a>
</g>
</g>
<!-- Node2 -->
<g id="Node000002" class="node">
<title>Node2</title>
<g id="a_Node000002"><a xlink:href="classinja_1_1Parser.html#ae1cebbe51ef6a93fc3d448263f9bf1e3" target="_top" xlink:title=" ">
<polygon fill="white" stroke="#666666" points="883.5,-275.5 773.75,-275.5 773.75,-242 883.5,-242 883.5,-275.5"/>
<text xml:space="preserve" text-anchor="start" x="781.75" y="-262" font-family="Helvetica,sans-Serif" font-size="10.00">inja::Parser::add_to</text>
<text xml:space="preserve" text-anchor="middle" x="828.62" y="-249.25" font-family="Helvetica,sans-Serif" font-size="10.00">_template_storage</text>
</a>
</g>
</g>
<!-- Node1&#45;&gt;Node2 -->
<g id="edge1_Node000001_Node000002" class="edge">
<title>Node1&#45;&gt;Node2</title>
<g id="a_edge1_Node000001_Node000002"><a xlink:title=" ">
<path fill="none" stroke="#63b8ff" d="M949.98,-207.87C926.23,-217.91 895,-231.11 870.3,-241.56"/>
<polygon fill="#63b8ff" stroke="#63b8ff" points="951.08,-211.21 958.92,-204.09 948.35,-204.76 951.08,-211.21"/>
</a>
</g>
</g>
<!-- Node13 -->
<g id="Node000013" class="node">
<title>Node13</title>
<g id="a_Node000013"><a xlink:href="classinja_1_1Parser.html#a08f9845245e383ab99e73b200c3cdb5f" target="_top" xlink:title=" ">
<polygon fill="white" stroke="#666666" points="888,-203.12 769.25,-203.12 769.25,-182.38 888,-182.38 888,-203.12"/>
<text xml:space="preserve" text-anchor="middle" x="828.62" y="-189.62" font-family="Helvetica,sans-Serif" font-size="10.00">inja::Parser::load_file</text>
</a>
</g>
</g>
<!-- Node1&#45;&gt;Node13 -->
<g id="edge13_Node000001_Node000013" class="edge">
<title>Node1&#45;&gt;Node13</title>
<g id="a_edge13_Node000001_Node000013"><a xlink:title=" ">
<path fill="none" stroke="#63b8ff" d="M912.29,-192.75C904.23,-192.75 896.11,-192.75 888.26,-192.75"/>
<polygon fill="#63b8ff" stroke="#63b8ff" points="912.08,-196.25 922.08,-192.75 912.08,-189.25 912.08,-196.25"/>
</a>
</g>
</g>
<!-- Node15 -->
<g id="Node000015" class="node">
<title>Node15</title>
<g id="a_Node000015"><a xlink:href="classinja_1_1Environment.html#a63883423839a4c9651997e14ee9bd10b" target="_top" xlink:title=" ">
<polygon fill="white" stroke="#666666" points="882.75,-111.5 774.5,-111.5 774.5,-78 882.75,-78 882.75,-111.5"/>
<text xml:space="preserve" text-anchor="start" x="782.5" y="-98" font-family="Helvetica,sans-Serif" font-size="10.00">inja::Environment::</text>
<text xml:space="preserve" text-anchor="middle" x="828.62" y="-85.25" font-family="Helvetica,sans-Serif" font-size="10.00">load_json</text>
</a>
</g>
</g>
<!-- Node1&#45;&gt;Node15 -->
<g id="edge16_Node000001_Node000015" class="edge">
<title>Node1&#45;&gt;Node15</title>
<g id="a_edge16_Node000001_Node000015"><a xlink:title=" ">
<path fill="none" stroke="#63b8ff" d="M958.74,-175.79C930.24,-157.91 885.58,-129.87 856.96,-111.91"/>
<polygon fill="#63b8ff" stroke="#63b8ff" points="956.83,-178.73 967.16,-181.08 960.55,-172.8 956.83,-178.73"/>
</a>
</g>
</g>
<!-- Node3 -->
<g id="Node000003" class="node">
<title>Node3</title>
<g id="a_Node000003"><a xlink:href="classinja_1_1Parser.html#a5a26bdcce0ae076bf010ee7442d8928e" target="_top" xlink:title=" ">
<polygon fill="white" stroke="#666666" points="714.5,-320.5 610.75,-320.5 610.75,-287 714.5,-287 714.5,-320.5"/>
<text xml:space="preserve" text-anchor="start" x="618.75" y="-307" font-family="Helvetica,sans-Serif" font-size="10.00">inja::Parser::parse</text>
<text xml:space="preserve" text-anchor="middle" x="662.62" y="-294.25" font-family="Helvetica,sans-Serif" font-size="10.00">_statement</text>
</a>
</g>
</g>
<!-- Node2&#45;&gt;Node3 -->
<g id="edge2_Node000002_Node000003" class="edge">
<title>Node2&#45;&gt;Node3</title>
<g id="a_edge2_Node000002_Node000003"><a xlink:title=" ">
<path fill="none" stroke="#63b8ff" d="M762.67,-276.57C746.81,-280.93 730.06,-285.52 714.94,-289.67"/>
<polygon fill="#63b8ff" stroke="#63b8ff" points="763.29,-280.03 772.01,-274.01 761.44,-273.28 763.29,-280.03"/>
</a>
</g>
</g>
<!-- Node4 -->
<g id="Node000004" class="node">
<title>Node4</title>
<g id="a_Node000004"><a xlink:href="classinja_1_1Parser.html#a9a561141f71073df671b2b7ecb4608ba" target="_top" xlink:title=" ">
<polygon fill="white" stroke="#666666" points="556,-314.12 428.25,-314.12 428.25,-293.38 556,-293.38 556,-314.12"/>
<text xml:space="preserve" text-anchor="middle" x="492.12" y="-300.62" font-family="Helvetica,sans-Serif" font-size="10.00">inja::Parser::parse_into</text>
</a>
</g>
</g>
<!-- Node3&#45;&gt;Node4 -->
<g id="edge3_Node000003_Node000004" class="edge">
<title>Node3&#45;&gt;Node4</title>
<g id="a_edge3_Node000003_Node000004"><a xlink:title=" ">
<path fill="none" stroke="#63b8ff" d="M599.15,-303.75C585.22,-303.75 570.44,-303.75 556.48,-303.75"/>
<polygon fill="#63b8ff" stroke="#63b8ff" points="599.1,-307.25 609.1,-303.75 599.1,-300.25 599.1,-307.25"/>
</a>
</g>
</g>
<!-- Node5 -->
<g id="Node000005" class="node">
<title>Node5</title>
<g id="a_Node000005"><a xlink:href="classinja_1_1Parser.html#a0f1312b0bf8691aba6cc4590169902fc" target="_top" xlink:title=" ">
<polygon fill="white" stroke="#666666" points="392.25,-318.12 288.5,-318.12 288.5,-297.38 392.25,-297.38 392.25,-318.12"/>
<text xml:space="preserve" text-anchor="middle" x="340.38" y="-304.62" font-family="Helvetica,sans-Serif" font-size="10.00">inja::Parser::parse</text>
</a>
</g>
</g>
<!-- Node4&#45;&gt;Node5 -->
<g id="edge4_Node000004_Node000005" class="edge">
<title>Node4&#45;&gt;Node5</title>
<g id="a_edge4_Node000004_Node000005"><a xlink:title=" ">
<path fill="none" stroke="#63b8ff" d="M416.6,-305.74C408.47,-305.96 400.33,-306.18 392.57,-306.38"/>
<polygon fill="#63b8ff" stroke="#63b8ff" points="416.64,-309.24 426.54,-305.48 416.45,-302.24 416.64,-309.24"/>
</a>
</g>
</g>
<!-- Node9 -->
<g id="Node000009" class="node">
<title>Node9</title>
<g id="a_Node000009"><a xlink:href="classinja_1_1Parser.html#a8c6a03b6665745f216ba86f5e514a913" target="_top" xlink:title=" ">
<polygon fill="white" stroke="#666666" points="392.25,-279.5 288.5,-279.5 288.5,-246 392.25,-246 392.25,-279.5"/>
<text xml:space="preserve" text-anchor="start" x="296.5" y="-266" font-family="Helvetica,sans-Serif" font-size="10.00">inja::Parser::parse</text>
<text xml:space="preserve" text-anchor="middle" x="340.38" y="-253.25" font-family="Helvetica,sans-Serif" font-size="10.00">_into_template</text>
</a>
</g>
</g>
<!-- Node4&#45;&gt;Node9 -->
<g id="edge8_Node000004_Node000009" class="edge">
<title>Node4&#45;&gt;Node9</title>
<g id="a_edge8_Node000004_Node000009"><a xlink:title=" ">
<path fill="none" stroke="#63b8ff" d="M440.8,-289.97C425.27,-285.72 408.16,-281.04 392.58,-276.77"/>
<polygon fill="#63b8ff" stroke="#63b8ff" points="439.75,-293.31 450.32,-292.58 441.6,-286.56 439.75,-293.31"/>
</a>
</g>
</g>
<!-- Node6 -->
<g id="Node000006" class="node">
<title>Node6</title>
<g id="a_Node000006"><a xlink:href="classinja_1_1Environment.html#a8421b8d61fc4de15f29c909bd7154f92" target="_top" xlink:title=" ">
<polygon fill="white" stroke="#666666" points="252.5,-324.5 144.25,-324.5 144.25,-291 252.5,-291 252.5,-324.5"/>
<text xml:space="preserve" text-anchor="start" x="152.25" y="-311" font-family="Helvetica,sans-Serif" font-size="10.00">inja::Environment::</text>
<text xml:space="preserve" text-anchor="middle" x="198.38" y="-298.25" font-family="Helvetica,sans-Serif" font-size="10.00">parse</text>
</a>
</g>
</g>
<!-- Node5&#45;&gt;Node6 -->
<g id="edge5_Node000005_Node000006" class="edge">
<title>Node5&#45;&gt;Node6</title>
<g id="a_edge5_Node000005_Node000006"><a xlink:title=" ">
<path fill="none" stroke="#63b8ff" d="M276.76,-307.75C268.69,-307.75 260.48,-307.75 252.58,-307.75"/>
<polygon fill="#63b8ff" stroke="#63b8ff" points="276.53,-311.25 286.53,-307.75 276.53,-304.25 276.53,-311.25"/>
</a>
</g>
</g>
<!-- Node7 -->
<g id="Node000007" class="node">
<title>Node7</title>
<g id="a_Node000007"><a xlink:href="classinja_1_1Environment.html#aac36e0cfdc9e7926914e46c0cd1caada" target="_top" xlink:title=" ">
<polygon fill="white" stroke="#666666" points="108.25,-363.5 0,-363.5 0,-330 108.25,-330 108.25,-363.5"/>
<text xml:space="preserve" text-anchor="start" x="8" y="-350" font-family="Helvetica,sans-Serif" font-size="10.00">inja::Environment::</text>
<text xml:space="preserve" text-anchor="middle" x="54.12" y="-337.25" font-family="Helvetica,sans-Serif" font-size="10.00">render</text>
</a>
</g>
</g>
<!-- Node6&#45;&gt;Node7 -->
<g id="edge6_Node000006_Node000007" class="edge">
<title>Node6&#45;&gt;Node7</title>
<g id="a_edge6_Node000006_Node000007"><a xlink:title=" ">
<path fill="none" stroke="#63b8ff" d="M132.91,-325.43C124.68,-327.68 116.34,-329.97 108.32,-332.16"/>
<polygon fill="#63b8ff" stroke="#63b8ff" points="133.82,-328.8 142.54,-322.78 131.97,-322.05 133.82,-328.8"/>
</a>
</g>
</g>
<!-- Node8 -->
<g id="Node000008" class="node">
<title>Node8</title>
<g id="a_Node000008"><a xlink:href="namespaceinja.html#a996f16f78b37d05e19cf44ac74d83e7e" target="_top" xlink:title="render with default settings to the given output stream">
<polygon fill="white" stroke="#666666" points="97.38,-312.12 10.88,-312.12 10.88,-291.38 97.38,-291.38 97.38,-312.12"/>
<text xml:space="preserve" text-anchor="middle" x="54.12" y="-298.62" font-family="Helvetica,sans-Serif" font-size="10.00">inja::render_to</text>
</a>
</g>
</g>
<!-- Node6&#45;&gt;Node8 -->
<g id="edge7_Node000006_Node000008" class="edge">
<title>Node6&#45;&gt;Node8</title>
<g id="a_edge7_Node000006_Node000008"><a xlink:title=" ">
<path fill="none" stroke="#63b8ff" d="M132.73,-305.02C120.84,-304.52 108.72,-304.01 97.69,-303.55"/>
<polygon fill="#63b8ff" stroke="#63b8ff" points="132.35,-308.51 142.49,-305.43 132.65,-301.52 132.35,-308.51"/>
</a>
</g>
</g>
<!-- Node9&#45;&gt;Node2 -->
<g id="edge9_Node000009_Node000002" class="edge">
<title>Node9&#45;&gt;Node2</title>
<g id="a_edge9_Node000009_Node000002"><a xlink:title=" ">
<path fill="none" stroke="#63b8ff" d="M403.73,-262.24C499.77,-261.45 682.29,-259.95 773.26,-259.2"/>
<polygon fill="#63b8ff" stroke="#63b8ff" points="403.94,-258.74 393.97,-262.32 404,-265.73 403.94,-258.74"/>
</a>
</g>
</g>
<!-- Node10 -->
<g id="Node000010" class="node">
<title>Node10</title>
<g id="a_Node000010"><a xlink:href="classinja_1_1Environment.html#aa46ccc27cc803933e0bfc9f58bba389c" target="_top" xlink:title=" ">
<polygon fill="white" stroke="#666666" points="252.5,-253.5 144.25,-253.5 144.25,-220 252.5,-220 252.5,-253.5"/>
<text xml:space="preserve" text-anchor="start" x="152.25" y="-240" font-family="Helvetica,sans-Serif" font-size="10.00">inja::Environment::</text>
<text xml:space="preserve" text-anchor="middle" x="198.38" y="-227.25" font-family="Helvetica,sans-Serif" font-size="10.00">parse_template</text>
</a>
</g>
</g>
<!-- Node9&#45;&gt;Node10 -->
<g id="edge10_Node000009_Node000010" class="edge">
<title>Node9&#45;&gt;Node10</title>
<g id="a_edge10_Node000009_Node000010"><a xlink:title=" ">
<path fill="none" stroke="#63b8ff" d="M276.76,-251.12C268.69,-249.62 260.48,-248.1 252.58,-246.63"/>
<polygon fill="#63b8ff" stroke="#63b8ff" points="276.08,-254.55 286.55,-252.94 277.36,-247.67 276.08,-254.55"/>
</a>
</g>
</g>
<!-- Node11 -->
<g id="Node000011" class="node">
<title>Node11</title>
<g id="a_Node000011"><a xlink:href="classinja_1_1Environment.html#a988701e4eb7fef51f2a3bd5ec74dd156" target="_top" xlink:title=" ">
<polygon fill="white" stroke="#666666" points="108.25,-260.5 0,-260.5 0,-227 108.25,-227 108.25,-260.5"/>
<text xml:space="preserve" text-anchor="start" x="8" y="-247" font-family="Helvetica,sans-Serif" font-size="10.00">inja::Environment::</text>
<text xml:space="preserve" text-anchor="middle" x="54.12" y="-234.25" font-family="Helvetica,sans-Serif" font-size="10.00">parse_file</text>
</a>
</g>
</g>
<!-- Node10&#45;&gt;Node11 -->
<g id="edge11_Node000010_Node000011" class="edge">
<title>Node10&#45;&gt;Node11</title>
<g id="a_edge11_Node000010_Node000011"><a xlink:title=" ">
<path fill="none" stroke="#63b8ff" d="M132.63,-239.94C124.49,-240.34 116.25,-240.74 108.32,-241.13"/>
<polygon fill="#63b8ff" stroke="#63b8ff" points="132.67,-243.44 142.49,-239.45 132.33,-236.45 132.67,-243.44"/>
</a>
</g>
</g>
<!-- Node12 -->
<g id="Node000012" class="node">
<title>Node12</title>
<g id="a_Node000012"><a xlink:href="classinja_1_1Environment.html#aaefdd9061b23f1764056689fe8c31e30" target="_top" xlink:title=" ">
<polygon fill="white" stroke="#666666" points="108.25,-208.5 0,-208.5 0,-175 108.25,-175 108.25,-208.5"/>
<text xml:space="preserve" text-anchor="start" x="8" y="-195" font-family="Helvetica,sans-Serif" font-size="10.00">inja::Environment::</text>
<text xml:space="preserve" text-anchor="middle" x="54.12" y="-182.25" font-family="Helvetica,sans-Serif" font-size="10.00">render_file</text>
</a>
</g>
</g>
<!-- Node10&#45;&gt;Node12 -->
<g id="edge12_Node000010_Node000012" class="edge">
<title>Node10&#45;&gt;Node12</title>
<g id="a_edge12_Node000010_Node000012"><a xlink:title=" ">
<path fill="none" stroke="#63b8ff" d="M133.19,-216.44C124.87,-213.81 116.43,-211.14 108.32,-208.58"/>
<polygon fill="#63b8ff" stroke="#63b8ff" points="131.97,-219.73 142.56,-219.41 134.08,-213.06 131.97,-219.73"/>
</a>
</g>
</g>
<!-- Node13&#45;&gt;Node10 -->
<g id="edge15_Node000013_Node000010" class="edge">
<title>Node13&#45;&gt;Node10</title>
<g id="a_edge15_Node000013_Node000010"><a xlink:title=" ">
<path fill="none" stroke="#63b8ff" d="M757.34,-197.67C630.6,-206.55 366.42,-225.05 253,-232.99"/>
<polygon fill="#63b8ff" stroke="#63b8ff" points="757.56,-201.17 767.29,-196.98 757.07,-194.18 757.56,-201.17"/>
</a>
</g>
</g>
<!-- Node14 -->
<g id="Node000014" class="node">
<title>Node14</title>
<g id="a_Node000014"><a xlink:href="classinja_1_1Environment.html#a686f69e3cb4f91d439aadadfc60e1ebb" target="_top" xlink:title=" ">
<polygon fill="white" stroke="#666666" points="716.75,-189.5 608.5,-189.5 608.5,-156 716.75,-156 716.75,-189.5"/>
<text xml:space="preserve" text-anchor="start" x="616.5" y="-176" font-family="Helvetica,sans-Serif" font-size="10.00">inja::Environment::</text>
<text xml:space="preserve" text-anchor="middle" x="662.62" y="-163.25" font-family="Helvetica,sans-Serif" font-size="10.00">load_file</text>
</a>
</g>
</g>
<!-- Node13&#45;&gt;Node14 -->
<g id="edge14_Node000013_Node000014" class="edge">
<title>Node13&#45;&gt;Node14</title>
<g id="a_edge14_Node000013_Node000014"><a xlink:title=" ">
<path fill="none" stroke="#63b8ff" d="M757.61,-184.21C744.03,-182.55 729.99,-180.84 717.05,-179.27"/>
<polygon fill="#63b8ff" stroke="#63b8ff" points="757.03,-187.67 767.38,-185.4 757.88,-180.72 757.03,-187.67"/>
</a>
</g>
</g>
<!-- Node16 -->
<g id="Node000016" class="node">
<title>Node16</title>
<g id="a_Node000016"><a xlink:href="classinja_1_1Environment.html#a6e6c345cd66ebdfe8a9d47d59efb5e84" target="_top" xlink:title=" ">
<polygon fill="white" stroke="#666666" points="733.25,-137.5 592,-137.5 592,-104 733.25,-104 733.25,-137.5"/>
<text xml:space="preserve" text-anchor="start" x="600" y="-124" font-family="Helvetica,sans-Serif" font-size="10.00">inja::Environment::</text>
<text xml:space="preserve" text-anchor="middle" x="662.62" y="-111.25" font-family="Helvetica,sans-Serif" font-size="10.00">render_file_with_json_file</text>
</a>
</g>
</g>
<!-- Node15&#45;&gt;Node16 -->
<g id="edge17_Node000015_Node000016" class="edge">
<title>Node15&#45;&gt;Node16</title>
<g id="a_edge17_Node000015_Node000016"><a xlink:title=" ">
<path fill="none" stroke="#63b8ff" d="M763.18,-104.97C753.48,-106.5 743.43,-108.1 733.62,-109.65"/>
<polygon fill="#63b8ff" stroke="#63b8ff" points="763.56,-108.45 772.88,-103.43 762.46,-101.54 763.56,-108.45"/>
</a>
</g>
</g>
<!-- Node17 -->
<g id="Node000017" class="node">
<title>Node17</title>
<g id="a_Node000017"><a xlink:href="classinja_1_1Environment.html#ad3e8c39b341641a872e62010693c27c3" target="_top" xlink:title=" ">
<polygon fill="white" stroke="#666666" points="719.38,-85.5 605.88,-85.5 605.88,-52 719.38,-52 719.38,-85.5"/>
<text xml:space="preserve" text-anchor="start" x="613.88" y="-72" font-family="Helvetica,sans-Serif" font-size="10.00">inja::Environment::</text>
<text xml:space="preserve" text-anchor="middle" x="662.62" y="-59.25" font-family="Helvetica,sans-Serif" font-size="10.00">write_with_json_file</text>
</a>
</g>
</g>
<!-- Node15&#45;&gt;Node17 -->
<g id="edge18_Node000015_Node000017" class="edge">
<title>Node15&#45;&gt;Node17</title>
<g id="a_edge18_Node000015_Node000017"><a xlink:title=" ">
<path fill="none" stroke="#63b8ff" d="M763.08,-84.52C748.75,-82.24 733.67,-79.85 719.71,-77.64"/>
<polygon fill="#63b8ff" stroke="#63b8ff" points="762.46,-87.96 772.88,-86.07 763.56,-81.05 762.46,-87.96"/>
</a>
</g>
</g>
<!-- Node18 -->
<g id="Node000018" class="node">
<title>Node18</title>
<g id="a_Node000018"><a xlink:href="classinja_1_1Environment.html#a9c6eb9a291cf99615991f999128248a7" target="_top" xlink:title=" ">
<polygon fill="white" stroke="#666666" points="719.38,-33.5 605.88,-33.5 605.88,0 719.38,0 719.38,-33.5"/>
<text xml:space="preserve" text-anchor="start" x="613.88" y="-20" font-family="Helvetica,sans-Serif" font-size="10.00">inja::Environment::</text>
<text xml:space="preserve" text-anchor="middle" x="662.62" y="-7.25" font-family="Helvetica,sans-Serif" font-size="10.00">write_with_json_file</text>
</a>
</g>
</g>
<!-- Node15&#45;&gt;Node18 -->
<g id="edge19_Node000015_Node000018" class="edge">
<title>Node15&#45;&gt;Node18</title>
<g id="a_edge19_Node000015_Node000018"><a xlink:title=" ">
<path fill="none" stroke="#63b8ff" d="M789.72,-72.2C772.74,-62.54 752.29,-51.49 733.25,-42.75 726.57,-39.68 719.41,-36.69 712.32,-33.89"/>
<polygon fill="#63b8ff" stroke="#63b8ff" points="787.55,-75 797.96,-76.95 791.04,-68.93 787.55,-75"/>
</a>
</g>
</g>
</g>
</svg>
