<?xml version="1.0" encoding="UTF-8" standalone="no"?>
<!DOCTYPE svg PUBLIC "-//W3C//DTD SVG 1.1//EN"
 "http://www.w3.org/Graphics/SVG/1.1/DTD/svg11.dtd">
<!-- Generated by graphviz version 14.1.2 (0)
 -->
<!-- Title: inja::Token::describe Pages: 1 -->
<svg width="2127pt" height="381pt"
 viewBox="0.00 0.00 2127.00 381.00" xmlns="http://www.w3.org/2000/svg" xmlns:xlink="http://www.w3.org/1999/xlink">
<g id="graph0" class="graph" transform="scale(1 1) rotate(0) translate(4 377.38)">
<title>inja::Token::describe</title>
<!-- Node1 -->
<g id="Node000001" class="node">
<title>Node1</title>
<g id="a_Node000001"><a xlink:title=" ">
<polygon fill="#999999" stroke="#666666" points="2118.5,-309.75 2003.5,-309.75 2003.5,-289 2118.5,-289 2118.5,-309.75"/>
<text xml:space="preserve" text-anchor="middle" x="2061" y="-296.25" font-family="Helvetica,sans-Serif" font-size="10.00">inja::Token::describe</text>
</a>
</g>
</g>
<!-- Node2 -->
<g id="Node000002" class="node">
<title>Node2</title>
<g id="a_Node000002"><a xlink:href="classinja_1_1Parser.html#a7dda6b9f4295c215e097f45d573d8d69" target="_top" xlink:title=" ">
<polygon fill="white" stroke="#666666" points="1967.5,-285.12 1863.75,-285.12 1863.75,-251.62 1967.5,-251.62 1967.5,-285.12"/>
<text xml:space="preserve" text-anchor="start" x="1871.75" y="-271.62" font-family="Helvetica,sans-Serif" font-size="10.00">inja::Parser::parse</text>
<text xml:space="preserve" text-anchor="middle" x="1915.62" y="-258.88" font-family="Helvetica,sans-Serif" font-size="10.00">_expression</text>
</a>
</g>
</g>
<!-- Node1&#45;&gt;Node2 -->
<g id="edge1_Node000001_Node000002" class="edge">
<title>Node1&#45;&gt;Node2</title>
<g id="a_edge1_Node000001_Node000002"><a xlink:title=" ">
<path fill="none" stroke="#63b8ff" d="M1998.84,-286.15C1988.55,-283.93 1977.97,-281.64 1967.96,-279.47"/>
<polygon fill="#63b8ff" stroke="#63b8ff" points="1997.86,-289.52 2008.38,-288.21 1999.34,-282.68 1997.86,-289.52"/>
</a>
</g>
</g>
<!-- Node4 -->
<g id="Node000004" class="node">
<title>Node4</title>
<g id="a_Node000004"><a xlink:href="classinja_1_1Parser.html#a325c55a6c060f76d0d83b4d187b1ef33" target="_top" xlink:title=" ">
<polygon fill="white" stroke="#666666" points="1688,-233.75 1560.25,-233.75 1560.25,-213 1688,-213 1688,-233.75"/>
<text xml:space="preserve" text-anchor="middle" x="1624.12" y="-220.25" font-family="Helvetica,sans-Serif" font-size="10.00">inja::Parser::parse_into</text>
</a>
</g>
</g>
<!-- Node1&#45;&gt;Node4 -->
<g id="edge35_Node000001_Node000004" class="edge">
<title>Node1&#45;&gt;Node4</title>
<g id="a_edge35_Node000001_Node000004"><a xlink:title=" ">
<path fill="none" stroke="#63b8ff" d="M2038.29,-281.63C2020.46,-268.19 1993.92,-250.66 1967.5,-242.38 1873.63,-212.94 1758.29,-213.59 1688.31,-217.75"/>
<polygon fill="#63b8ff" stroke="#63b8ff" points="2036.01,-284.29 2046.05,-287.67 2040.31,-278.77 2036.01,-284.29"/>
</a>
</g>
</g>
<!-- Node21 -->
<g id="Node000021" class="node">
<title>Node21</title>
<g id="a_Node000021"><a xlink:href="classinja_1_1Parser.html#afdea619b58c4db677d49c0481d6a9a4b" target="_top" xlink:title=" ">
<polygon fill="white" stroke="#666666" points="1236.5,-311.12 1132.75,-311.12 1132.75,-277.62 1236.5,-277.62 1236.5,-311.12"/>
<text xml:space="preserve" text-anchor="start" x="1140.75" y="-297.62" font-family="Helvetica,sans-Serif" font-size="10.00">inja::Parser::parse</text>
<text xml:space="preserve" text-anchor="middle" x="1184.62" y="-284.88" font-family="Helvetica,sans-Serif" font-size="10.00">_statement</text>
</a>
</g>
</g>
<!-- Node1&#45;&gt;Node21 -->
<g id="edge36_Node000001_Node000021" class="edge">
<title>Node1&#45;&gt;Node21</title>
<g id="a_edge36_Node000001_Node000021"><a xlink:title=" ">
<path fill="none" stroke="#63b8ff" d="M2025.52,-314.5C1972.96,-336.14 1869.13,-373.38 1776.88,-373.38 1776.88,-373.38 1776.88,-373.38 1471.38,-373.38 1379.24,-373.38 1276.25,-334.75 1222.62,-311.52"/>
<polygon fill="#63b8ff" stroke="#63b8ff" points="2026.67,-317.81 2034.54,-310.72 2023.97,-311.36 2026.67,-317.81"/>
</a>
</g>
</g>
<!-- Node28 -->
<g id="Node000028" class="node">
<title>Node28</title>
<g id="a_Node000028"><a xlink:href="classinja_1_1Parser.html#a1bd2c3127357715521ec111c39a7e823" target="_top" xlink:title=" ">
<polygon fill="white" stroke="#666666" points="1827.75,-345.12 1724,-345.12 1724,-311.62 1827.75,-311.62 1827.75,-345.12"/>
<text xml:space="preserve" text-anchor="start" x="1732" y="-331.62" font-family="Helvetica,sans-Serif" font-size="10.00">inja::Parser::parse</text>
<text xml:space="preserve" text-anchor="middle" x="1775.88" y="-318.88" font-family="Helvetica,sans-Serif" font-size="10.00">_filename</text>
</a>
</g>
</g>
<!-- Node1&#45;&gt;Node28 -->
<g id="edge33_Node000001_Node000028" class="edge">
<title>Node1&#45;&gt;Node28</title>
<g id="a_edge33_Node000001_Node000028"><a xlink:title=" ">
<path fill="none" stroke="#63b8ff" d="M1992.11,-309.36C1983.83,-310.45 1975.48,-311.48 1967.5,-312.38 1920.3,-317.67 1866.35,-322.04 1827.92,-324.87"/>
<polygon fill="#63b8ff" stroke="#63b8ff" points="1992.37,-312.85 2001.82,-308.05 1991.44,-305.92 1992.37,-312.85"/>
</a>
</g>
</g>
<!-- Node2&#45;&gt;Node2 -->
<g id="edge2_Node000002_Node000002" class="edge">
<title>Node2&#45;&gt;Node2</title>
<g id="a_edge2_Node000002_Node000002"><a xlink:title=" ">
<path fill="none" stroke="#63b8ff" d="M1938.76,-296.84C1934.83,-300.62 1927.12,-303.12 1915.62,-303.12 1894.61,-303.12 1886.23,-294.74 1890.5,-285.54"/>
<polygon fill="#63b8ff" stroke="#63b8ff" points="1942.2,-297.48 1940.49,-287.03 1935.31,-296.27 1942.2,-297.48"/>
</a>
</g>
</g>
<!-- Node3 -->
<g id="Node000003" class="node">
<title>Node3</title>
<g id="a_Node000003"><a xlink:href="classinja_1_1Parser.html#aeb66164c89e8c71cae3c93c24d7c7be2" target="_top" xlink:title=" ">
<polygon fill="white" stroke="#666666" points="1827.75,-285.12 1724,-285.12 1724,-251.62 1827.75,-251.62 1827.75,-285.12"/>
<text xml:space="preserve" text-anchor="start" x="1732" y="-271.62" font-family="Helvetica,sans-Serif" font-size="10.00">inja::Parser::parse</text>
<text xml:space="preserve" text-anchor="middle" x="1775.88" y="-258.88" font-family="Helvetica,sans-Serif" font-size="10.00">_expression</text>
</a>
</g>
</g>
<!-- Node2&#45;&gt;Node3 -->
<g id="edge3_Node000002_Node000003" class="edge">
<title>Node2&#45;&gt;Node3</title>
<g id="a_edge3_Node000002_Node000003"><a xlink:title=" ">
<path fill="none" stroke="#63b8ff" d="M1851.86,-268.38C1843.95,-268.38 1835.92,-268.38 1828.21,-268.38"/>
<polygon fill="#63b8ff" stroke="#63b8ff" points="1851.82,-271.88 1861.82,-268.38 1851.82,-264.88 1851.82,-271.88"/>
</a>
</g>
</g>
<!-- Node3&#45;&gt;Node4 -->
<g id="edge4_Node000003_Node000004" class="edge">
<title>Node3&#45;&gt;Node4</title>
<g id="a_edge4_Node000003_Node000004"><a xlink:title=" ">
<path fill="none" stroke="#63b8ff" d="M1712.9,-249.75C1695.19,-244.43 1676.48,-238.81 1660.91,-234.13"/>
<polygon fill="#63b8ff" stroke="#63b8ff" points="1711.72,-253.05 1722.31,-252.58 1713.74,-246.35 1711.72,-253.05"/>
</a>
</g>
</g>
<!-- Node3&#45;&gt;Node21 -->
<g id="edge32_Node000003_Node000021" class="edge">
<title>Node3&#45;&gt;Node21</title>
<g id="a_edge32_Node000003_Node000021"><a xlink:title=" ">
<path fill="none" stroke="#63b8ff" d="M1712.36,-271.13C1595.19,-276.3 1344.65,-287.36 1236.77,-292.12"/>
<polygon fill="#63b8ff" stroke="#63b8ff" points="1712.27,-274.64 1722.1,-270.7 1711.96,-267.65 1712.27,-274.64"/>
</a>
</g>
</g>
<!-- Node5 -->
<g id="Node000005" class="node">
<title>Node5</title>
<g id="a_Node000005"><a xlink:href="classinja_1_1Parser.html#ae9cf060e992d2a12b7fd47b346d8bd64" target="_top" xlink:title=" ">
<polygon fill="white" stroke="#666666" points="1524.25,-134.75 1420.5,-134.75 1420.5,-114 1524.25,-114 1524.25,-134.75"/>
<text xml:space="preserve" text-anchor="middle" x="1472.38" y="-121.25" font-family="Helvetica,sans-Serif" font-size="10.00">inja::Parser::parse</text>
</a>
</g>
</g>
<!-- Node4&#45;&gt;Node5 -->
<g id="edge5_Node000004_Node000005" class="edge">
<title>Node4&#45;&gt;Node5</title>
<g id="a_edge5_Node000004_Node000005"><a xlink:title=" ">
<path fill="none" stroke="#63b8ff" d="M1597.55,-206.47C1566.67,-186.05 1515.65,-152.32 1489.67,-135.14"/>
<polygon fill="#63b8ff" stroke="#63b8ff" points="1595.28,-209.16 1605.55,-211.76 1599.14,-203.32 1595.28,-209.16"/>
</a>
</g>
</g>
<!-- Node19 -->
<g id="Node000019" class="node">
<title>Node19</title>
<g id="a_Node000019"><a xlink:href="classinja_1_1Parser.html#af2b8ee63877e6b685f30c87d204bbe8b" target="_top" xlink:title=" ">
<polygon fill="white" stroke="#666666" points="1524.25,-228.12 1420.5,-228.12 1420.5,-194.62 1524.25,-194.62 1524.25,-228.12"/>
<text xml:space="preserve" text-anchor="start" x="1428.5" y="-214.62" font-family="Helvetica,sans-Serif" font-size="10.00">inja::Parser::parse</text>
<text xml:space="preserve" text-anchor="middle" x="1472.38" y="-201.88" font-family="Helvetica,sans-Serif" font-size="10.00">_into_template</text>
</a>
</g>
</g>
<!-- Node4&#45;&gt;Node19 -->
<g id="edge22_Node000004_Node000019" class="edge">
<title>Node4&#45;&gt;Node19</title>
<g id="a_edge22_Node000004_Node000019"><a xlink:title=" ">
<path fill="none" stroke="#63b8ff" d="M1548.6,-217.4C1540.47,-216.75 1532.33,-216.1 1524.57,-215.48"/>
<polygon fill="#63b8ff" stroke="#63b8ff" points="1548.3,-220.89 1558.54,-218.2 1548.85,-213.91 1548.3,-220.89"/>
</a>
</g>
</g>
<!-- Node6 -->
<g id="Node000006" class="node">
<title>Node6</title>
<g id="a_Node000006"><a xlink:href="classinja_1_1Environment.html#a8421b8d61fc4de15f29c909bd7154f92" target="_top" xlink:title=" ">
<polygon fill="white" stroke="#666666" points="1383.75,-98.12 1275.5,-98.12 1275.5,-64.62 1383.75,-64.62 1383.75,-98.12"/>
<text xml:space="preserve" text-anchor="start" x="1283.5" y="-84.62" font-family="Helvetica,sans-Serif" font-size="10.00">inja::Environment::</text>
<text xml:space="preserve" text-anchor="middle" x="1329.62" y="-71.88" font-family="Helvetica,sans-Serif" font-size="10.00">parse</text>
</a>
</g>
</g>
<!-- Node5&#45;&gt;Node6 -->
<g id="edge6_Node000005_Node000006" class="edge">
<title>Node5&#45;&gt;Node6</title>
<g id="a_edge6_Node000005_Node000006"><a xlink:title=" ">
<path fill="none" stroke="#63b8ff" d="M1425.2,-110.27C1412.11,-106.27 1397.74,-101.88 1384.24,-97.75"/>
<polygon fill="#63b8ff" stroke="#63b8ff" points="1423.82,-113.51 1434.41,-113.08 1425.87,-106.81 1423.82,-113.51"/>
</a>
</g>
</g>
<!-- Node7 -->
<g id="Node000007" class="node">
<title>Node7</title>
<g id="a_Node000007"><a xlink:href="classinja_1_1Environment.html#aac36e0cfdc9e7926914e46c0cd1caada" target="_top" xlink:title=" ">
<polygon fill="white" stroke="#666666" points="1238.75,-124.12 1130.5,-124.12 1130.5,-90.62 1238.75,-90.62 1238.75,-124.12"/>
<text xml:space="preserve" text-anchor="start" x="1138.5" y="-110.62" font-family="Helvetica,sans-Serif" font-size="10.00">inja::Environment::</text>
<text xml:space="preserve" text-anchor="middle" x="1184.62" y="-97.88" font-family="Helvetica,sans-Serif" font-size="10.00">render</text>
</a>
</g>
</g>
<!-- Node6&#45;&gt;Node7 -->
<g id="edge7_Node000006_Node000007" class="edge">
<title>Node6&#45;&gt;Node7</title>
<g id="a_edge7_Node000006_Node000007"><a xlink:title=" ">
<path fill="none" stroke="#63b8ff" d="M1264.33,-93.07C1255.83,-94.61 1247.2,-96.18 1238.92,-97.69"/>
<polygon fill="#63b8ff" stroke="#63b8ff" points="1264.68,-96.56 1273.89,-91.33 1263.42,-89.67 1264.68,-96.56"/>
</a>
</g>
</g>
<!-- Node17 -->
<g id="Node000017" class="node">
<title>Node17</title>
<g id="a_Node000017"><a xlink:href="classinja_1_1Environment.html#ad00da8b535e5c5633ed2adec622e6cf4" target="_top" xlink:title=" ">
<polygon fill="white" stroke="#666666" points="1238.75,-72.12 1130.5,-72.12 1130.5,-38.62 1238.75,-38.62 1238.75,-72.12"/>
<text xml:space="preserve" text-anchor="start" x="1138.5" y="-58.62" font-family="Helvetica,sans-Serif" font-size="10.00">inja::Environment::</text>
<text xml:space="preserve" text-anchor="middle" x="1184.62" y="-45.88" font-family="Helvetica,sans-Serif" font-size="10.00">render_to</text>
</a>
</g>
</g>
<!-- Node6&#45;&gt;Node17 -->
<g id="edge20_Node000006_Node000017" class="edge">
<title>Node6&#45;&gt;Node17</title>
<g id="a_edge20_Node000006_Node000017"><a xlink:title=" ">
<path fill="none" stroke="#63b8ff" d="M1264.33,-69.68C1255.83,-68.14 1247.2,-66.57 1238.92,-65.06"/>
<polygon fill="#63b8ff" stroke="#63b8ff" points="1263.42,-73.08 1273.89,-71.42 1264.68,-66.19 1263.42,-73.08"/>
</a>
</g>
</g>
<!-- Node18 -->
<g id="Node000018" class="node">
<title>Node18</title>
<g id="a_Node000018"><a xlink:href="namespaceinja.html#a996f16f78b37d05e19cf44ac74d83e7e" target="_top" xlink:title="render with default settings to the given output stream">
<polygon fill="white" stroke="#666666" points="1227.88,-20.75 1141.38,-20.75 1141.38,0 1227.88,0 1227.88,-20.75"/>
<text xml:space="preserve" text-anchor="middle" x="1184.62" y="-7.25" font-family="Helvetica,sans-Serif" font-size="10.00">inja::render_to</text>
</a>
</g>
</g>
<!-- Node6&#45;&gt;Node18 -->
<g id="edge21_Node000006_Node000018" class="edge">
<title>Node6&#45;&gt;Node18</title>
<g id="a_edge21_Node000006_Node000018"><a xlink:title=" ">
<path fill="none" stroke="#63b8ff" d="M1292.61,-58.53C1276.49,-48.84 1257.03,-37.85 1238.75,-29.38 1232.44,-26.45 1225.54,-23.69 1218.87,-21.22"/>
<polygon fill="#63b8ff" stroke="#63b8ff" points="1290.52,-61.36 1300.88,-63.58 1294.16,-55.38 1290.52,-61.36"/>
</a>
</g>
</g>
<!-- Node8 -->
<g id="Node000008" class="node">
<title>Node8</title>
<g id="a_Node000008"><a xlink:href="classmqtt_1_1lib_1_1MqttMapper.html#acf8390856383106d469d448b358d3f17" target="_top" xlink:title=" ">
<polygon fill="white" stroke="#666666" points="1085.12,-124.12 962.62,-124.12 962.62,-90.62 1085.12,-90.62 1085.12,-124.12"/>
<text xml:space="preserve" text-anchor="start" x="970.62" y="-110.62" font-family="Helvetica,sans-Serif" font-size="10.00">mqtt::lib::MqttMapper</text>
<text xml:space="preserve" text-anchor="middle" x="1023.88" y="-97.88" font-family="Helvetica,sans-Serif" font-size="10.00">::getMappedTemplate</text>
</a>
</g>
</g>
<!-- Node7&#45;&gt;Node8 -->
<g id="edge8_Node000007_Node000008" class="edge">
<title>Node7&#45;&gt;Node8</title>
<g id="a_edge8_Node000007_Node000008"><a xlink:title=" ">
<path fill="none" stroke="#63b8ff" d="M1118.96,-107.38C1107.87,-107.38 1096.4,-107.38 1085.43,-107.38"/>
<polygon fill="#63b8ff" stroke="#63b8ff" points="1118.81,-110.88 1128.81,-107.38 1118.81,-103.88 1118.81,-110.88"/>
</a>
</g>
</g>
<!-- Node16 -->
<g id="Node000016" class="node">
<title>Node16</title>
<g id="a_Node000016"><a xlink:href="namespaceinja.html#a539106781b52cc6117fc132f927a9dec" target="_top" xlink:title="render with default settings to a string">
<polygon fill="white" stroke="#666666" points="1059.62,-72.75 988.12,-72.75 988.12,-52 1059.62,-52 1059.62,-72.75"/>
<text xml:space="preserve" text-anchor="middle" x="1023.88" y="-59.25" font-family="Helvetica,sans-Serif" font-size="10.00">inja::render</text>
</a>
</g>
</g>
<!-- Node7&#45;&gt;Node16 -->
<g id="edge19_Node000007_Node000016" class="edge">
<title>Node7&#45;&gt;Node16</title>
<g id="a_edge19_Node000007_Node000016"><a xlink:title=" ">
<path fill="none" stroke="#63b8ff" d="M1119.48,-88.52C1111.08,-86.09 1102.59,-83.66 1094.5,-81.38 1083.29,-78.21 1071.03,-74.84 1059.97,-71.82"/>
<polygon fill="#63b8ff" stroke="#63b8ff" points="1118.38,-91.84 1128.96,-91.27 1120.33,-85.12 1118.38,-91.84"/>
</a>
</g>
</g>
<!-- Node9 -->
<g id="Node000009" class="node">
<title>Node9</title>
<g id="a_Node000009"><a xlink:href="classmqtt_1_1lib_1_1MqttMapper.html#a120ac05abf400a4f1c4a5758ecd99f74" target="_top" xlink:title=" ">
<polygon fill="white" stroke="#666666" points="917.25,-124.12 787.25,-124.12 787.25,-90.62 917.25,-90.62 917.25,-124.12"/>
<text xml:space="preserve" text-anchor="start" x="795.25" y="-110.62" font-family="Helvetica,sans-Serif" font-size="10.00">mqtt::lib::MqttMapper</text>
<text xml:space="preserve" text-anchor="middle" x="852.25" y="-97.88" font-family="Helvetica,sans-Serif" font-size="10.00">::getTemplateMappings</text>
</a>
</g>
</g>
<!-- Node8&#45;&gt;Node9 -->
<g id="edge9_Node000008_Node000009" class="edge">
<title>Node8&#45;&gt;Node9</title>
<g id="a_edge9_Node000008_Node000009"><a xlink:title=" ">
<path fill="none" stroke="#63b8ff" d="M951.15,-107.38C940.03,-107.38 928.6,-107.38 917.65,-107.38"/>
<polygon fill="#63b8ff" stroke="#63b8ff" points="951.08,-110.88 961.08,-107.38 951.08,-103.88 951.08,-110.88"/>
</a>
</g>
</g>
<!-- Node10 -->
<g id="Node000010" class="node">
<title>Node10</title>
<g id="a_Node000010"><a xlink:href="classmqtt_1_1lib_1_1MqttMapper.html#a542c86edf273308138357e4773c55d3c" target="_top" xlink:title=" ">
<polygon fill="white" stroke="#666666" points="751.25,-124.12 628.75,-124.12 628.75,-90.62 751.25,-90.62 751.25,-124.12"/>
<text xml:space="preserve" text-anchor="start" x="636.75" y="-110.62" font-family="Helvetica,sans-Serif" font-size="10.00">mqtt::lib::MqttMapper</text>
<text xml:space="preserve" text-anchor="middle" x="690" y="-97.88" font-family="Helvetica,sans-Serif" font-size="10.00">::getMappings</text>
</a>
</g>
</g>
<!-- Node9&#45;&gt;Node10 -->
<g id="edge10_Node000009_Node000010" class="edge">
<title>Node9&#45;&gt;Node10</title>
<g id="a_edge10_Node000009_Node000010"><a xlink:title=" ">
<path fill="none" stroke="#63b8ff" d="M775.67,-107.38C767.61,-107.38 759.49,-107.38 751.63,-107.38"/>
<polygon fill="#63b8ff" stroke="#63b8ff" points="775.48,-110.88 785.48,-107.38 775.48,-103.88 775.48,-110.88"/>
</a>
</g>
</g>
<!-- Node11 -->
<g id="Node000011" class="node">
<title>Node11</title>
<g id="a_Node000011"><a xlink:href="classmqtt_1_1mqttbroker_1_1lib_1_1Mqtt.html#a35dd670ca3b7d67cffbbce1cf7c71ffb" target="_top" xlink:title=" ">
<polygon fill="white" stroke="#666666" points="592.75,-150.12 475.5,-150.12 475.5,-116.62 592.75,-116.62 592.75,-150.12"/>
<text xml:space="preserve" text-anchor="start" x="483.5" y="-136.62" font-family="Helvetica,sans-Serif" font-size="10.00">mqtt::mqttbroker::lib</text>
<text xml:space="preserve" text-anchor="middle" x="534.12" y="-123.88" font-family="Helvetica,sans-Serif" font-size="10.00">::Mqtt::onPublish</text>
</a>
</g>
</g>
<!-- Node10&#45;&gt;Node11 -->
<g id="edge11_Node000010_Node000011" class="edge">
<title>Node10&#45;&gt;Node11</title>
<g id="a_edge11_Node000010_Node000011"><a xlink:title=" ">
<path fill="none" stroke="#63b8ff" d="M617.53,-119.45C609.33,-120.84 601.05,-122.24 593.06,-123.59"/>
<polygon fill="#63b8ff" stroke="#63b8ff" points="617.86,-122.95 627.13,-117.83 616.69,-116.04 617.86,-122.95"/>
</a>
</g>
</g>
<!-- Node15 -->
<g id="Node000015" class="node">
<title>Node15</title>
<g id="a_Node000015"><a xlink:href="classmqtt_1_1mqttintegrator_1_1lib_1_1Mqtt.html#a211408365844787ce77340f454b9cbd0" target="_top" xlink:title=" ">
<polygon fill="white" stroke="#666666" points="592.38,-98.12 475.88,-98.12 475.88,-64.62 592.38,-64.62 592.38,-98.12"/>
<text xml:space="preserve" text-anchor="start" x="483.88" y="-84.62" font-family="Helvetica,sans-Serif" font-size="10.00">mqtt::mqttintegrator</text>
<text xml:space="preserve" text-anchor="middle" x="534.12" y="-71.88" font-family="Helvetica,sans-Serif" font-size="10.00">::lib::Mqtt::onPublish</text>
</a>
</g>
</g>
<!-- Node10&#45;&gt;Node15 -->
<g id="edge18_Node000010_Node000015" class="edge">
<title>Node10&#45;&gt;Node15</title>
<g id="a_edge18_Node000010_Node000015"><a xlink:title=" ">
<path fill="none" stroke="#63b8ff" d="M617.45,-95.29C609.19,-93.89 600.85,-92.48 592.81,-91.12"/>
<polygon fill="#63b8ff" stroke="#63b8ff" points="616.69,-98.71 627.13,-96.92 617.86,-91.8 616.69,-98.71"/>
</a>
</g>
</g>
<!-- Node11&#45;&gt;Node11 -->
<g id="edge12_Node000011_Node000011" class="edge">
<title>Node11&#45;&gt;Node11</title>
<g id="a_edge12_Node000011_Node000011"><a xlink:title=" ">
<path fill="none" stroke="#63b8ff" d="M560.3,-161.51C556.04,-165.47 547.31,-168.12 534.12,-168.12 510.68,-168.12 501.34,-159.74 506.1,-150.54"/>
<polygon fill="#63b8ff" stroke="#63b8ff" points="563.69,-162.47 561.89,-152.03 556.78,-161.31 563.69,-162.47"/>
</a>
</g>
</g>
<!-- Node12 -->
<g id="Node000012" class="node">
<title>Node12</title>
<g id="a_Node000012"><a xlink:href="classmqtt_1_1mqttbroker_1_1lib_1_1Mqtt_1_1DelayedQueue.html#abe935c28141087ad3eadf41acab44702" target="_top" xlink:title=" ">
<polygon fill="white" stroke="#666666" points="439.5,-181.5 317,-181.5 317,-135.25 439.5,-135.25 439.5,-181.5"/>
<text xml:space="preserve" text-anchor="start" x="325" y="-168" font-family="Helvetica,sans-Serif" font-size="10.00">mqtt::mqttbroker::lib</text>
<text xml:space="preserve" text-anchor="start" x="325" y="-155.25" font-family="Helvetica,sans-Serif" font-size="10.00">::Mqtt::DelayedQueue</text>
<text xml:space="preserve" text-anchor="middle" x="378.25" y="-142.5" font-family="Helvetica,sans-Serif" font-size="10.00">::processDue</text>
</a>
</g>
</g>
<!-- Node11&#45;&gt;Node12 -->
<g id="edge13_Node000011_Node000012" class="edge">
<title>Node11&#45;&gt;Node12</title>
<g id="a_edge13_Node000011_Node000012"><a xlink:title=" ">
<path fill="none" stroke="#63b8ff" d="M464.09,-144.59C456.02,-145.9 447.83,-147.23 439.88,-148.52"/>
<polygon fill="#63b8ff" stroke="#63b8ff" points="464.59,-148.06 473.9,-143 463.46,-141.15 464.59,-148.06"/>
</a>
</g>
</g>
<!-- Node13 -->
<g id="Node000013" class="node">
<title>Node13</title>
<g id="a_Node000013"><a xlink:href="classmqtt_1_1mqttbroker_1_1lib_1_1Mqtt_1_1DelayedQueue.html#a8becf2d97fc0f71a12ae5e84ea8b2a66" target="_top" xlink:title=" ">
<polygon fill="white" stroke="#666666" points="281,-181.5 158.5,-181.5 158.5,-135.25 281,-135.25 281,-181.5"/>
<text xml:space="preserve" text-anchor="start" x="166.5" y="-168" font-family="Helvetica,sans-Serif" font-size="10.00">mqtt::mqttbroker::lib</text>
<text xml:space="preserve" text-anchor="start" x="166.5" y="-155.25" font-family="Helvetica,sans-Serif" font-size="10.00">::Mqtt::DelayedQueue</text>
<text xml:space="preserve" text-anchor="middle" x="219.75" y="-142.5" font-family="Helvetica,sans-Serif" font-size="10.00">::armDelayTimer</text>
</a>
</g>
</g>
<!-- Node12&#45;&gt;Node13 -->
<g id="edge14_Node000012_Node000013" class="edge">
<title>Node12&#45;&gt;Node13</title>
<g id="a_edge14_Node000012_Node000013"><a xlink:title=" ">
<path fill="none" stroke="#63b8ff" d="M305.45,-158.38C297.4,-158.38 289.25,-158.38 281.35,-158.38"/>
<polygon fill="#63b8ff" stroke="#63b8ff" points="305.23,-161.88 315.23,-158.38 305.23,-154.88 305.23,-161.88"/>
</a>
</g>
</g>
<!-- Node13&#45;&gt;Node13 -->
<g id="edge15_Node000013_Node000013" class="edge">
<title>Node13&#45;&gt;Node13</title>
<g id="a_edge15_Node000013_Node000013"><a xlink:title=" ">
<path fill="none" stroke="#63b8ff" d="M245.82,-192.24C241.31,-196.61 232.62,-199.5 219.75,-199.5 198.08,-199.5 188.26,-191.3 190.29,-181.63"/>
<polygon fill="#63b8ff" stroke="#63b8ff" points="249.04,-193.66 248.75,-183.07 242.37,-191.53 249.04,-193.66"/>
</a>
</g>
</g>
<!-- Node14 -->
<g id="Node000014" class="node">
<title>Node14</title>
<g id="a_Node000014"><a xlink:href="classmqtt_1_1mqttbroker_1_1lib_1_1Mqtt_1_1DelayedQueue.html#a0cea5b90a1434e82da43bd2f4c6dd47c" target="_top" xlink:title=" ">
<polygon fill="white" stroke="#666666" points="122.5,-155.5 0,-155.5 0,-109.25 122.5,-109.25 122.5,-155.5"/>
<text xml:space="preserve" text-anchor="start" x="8" y="-142" font-family="Helvetica,sans-Serif" font-size="10.00">mqtt::mqttbroker::lib</text>
<text xml:space="preserve" text-anchor="start" x="8" y="-129.25" font-family="Helvetica,sans-Serif" font-size="10.00">::Mqtt::DelayedQueue</text>
<text xml:space="preserve" text-anchor="middle" x="61.25" y="-116.5" font-family="Helvetica,sans-Serif" font-size="10.00">::delayPublish</text>
</a>
</g>
</g>
<!-- Node13&#45;&gt;Node14 -->
<g id="edge16_Node000013_Node000014" class="edge">
<title>Node13&#45;&gt;Node14</title>
<g id="a_edge16_Node000013_Node000014"><a xlink:title=" ">
<path fill="none" stroke="#63b8ff" d="M146.95,-146.45C138.9,-145.11 130.75,-143.75 122.85,-142.44"/>
<polygon fill="#63b8ff" stroke="#63b8ff" points="146.31,-149.89 156.75,-148.07 147.46,-142.98 146.31,-149.89"/>
</a>
</g>
</g>
<!-- Node14&#45;&gt;Node11 -->
<g id="edge17_Node000014_Node000011" class="edge">
<title>Node14&#45;&gt;Node11</title>
<g id="a_edge17_Node000014_Node000011"><a xlink:title=" ">
<path fill="none" stroke="#63b8ff" d="M134.28,-127.39C142.45,-126.98 150.65,-126.62 158.5,-126.38 283.33,-122.49 314.7,-121.72 439.5,-126.38 451.06,-126.81 463.42,-127.54 475.23,-128.37"/>
<polygon fill="#63b8ff" stroke="#63b8ff" points="134.11,-123.9 124.32,-127.94 134.5,-130.89 134.11,-123.9"/>
</a>
</g>
</g>
<!-- Node20 -->
<g id="Node000020" class="node">
<title>Node20</title>
<g id="a_Node000020"><a xlink:href="classinja_1_1Parser.html#aa756be380c1083f47c6bd774eb3c8c38" target="_top" xlink:title=" ">
<polygon fill="white" stroke="#666666" points="1384.5,-228.12 1274.75,-228.12 1274.75,-194.62 1384.5,-194.62 1384.5,-228.12"/>
<text xml:space="preserve" text-anchor="start" x="1282.75" y="-214.62" font-family="Helvetica,sans-Serif" font-size="10.00">inja::Parser::add_to</text>
<text xml:space="preserve" text-anchor="middle" x="1329.62" y="-201.88" font-family="Helvetica,sans-Serif" font-size="10.00">_template_storage</text>
</a>
</g>
</g>
<!-- Node19&#45;&gt;Node20 -->
<g id="edge23_Node000019_Node000020" class="edge">
<title>Node19&#45;&gt;Node20</title>
<g id="a_edge23_Node000019_Node000020"><a xlink:title=" ">
<path fill="none" stroke="#63b8ff" d="M1408.68,-211.38C1400.74,-211.38 1392.67,-211.38 1384.88,-211.38"/>
<polygon fill="#63b8ff" stroke="#63b8ff" points="1408.65,-214.88 1418.65,-211.38 1408.65,-207.88 1408.65,-214.88"/>
</a>
</g>
</g>
<!-- Node22 -->
<g id="Node000022" class="node">
<title>Node22</title>
<g id="a_Node000022"><a xlink:href="classinja_1_1Environment.html#a85717fc369572292cce46e42a32e38f5" target="_top" xlink:title=" ">
<polygon fill="white" stroke="#666666" points="1383.75,-176.12 1275.5,-176.12 1275.5,-142.62 1383.75,-142.62 1383.75,-176.12"/>
<text xml:space="preserve" text-anchor="start" x="1283.5" y="-162.62" font-family="Helvetica,sans-Serif" font-size="10.00">inja::Environment::</text>
<text xml:space="preserve" text-anchor="middle" x="1329.62" y="-149.88" font-family="Helvetica,sans-Serif" font-size="10.00">parse_template</text>
</a>
</g>
</g>
<!-- Node19&#45;&gt;Node22 -->
<g id="edge26_Node000019_Node000022" class="edge">
<title>Node19&#45;&gt;Node22</title>
<g id="a_edge26_Node000019_Node000022"><a xlink:title=" ">
<path fill="none" stroke="#63b8ff" d="M1414.22,-190.26C1401.86,-185.69 1388.94,-180.92 1377.05,-176.53"/>
<polygon fill="#63b8ff" stroke="#63b8ff" points="1412.89,-193.5 1423.48,-193.68 1415.31,-186.93 1412.89,-193.5"/>
</a>
</g>
</g>
<!-- Node20&#45;&gt;Node21 -->
<g id="edge24_Node000020_Node000021" class="edge">
<title>Node20&#45;&gt;Node21</title>
<g id="a_edge24_Node000020_Node000021"><a xlink:title=" ">
<path fill="none" stroke="#63b8ff" d="M1288.97,-234.16C1284.18,-236.92 1279.35,-239.71 1274.75,-242.38 1254.75,-253.96 1232.28,-267.07 1214.9,-277.23"/>
<polygon fill="#63b8ff" stroke="#63b8ff" points="1290.46,-237.34 1297.37,-229.32 1286.96,-231.27 1290.46,-237.34"/>
</a>
</g>
</g>
<!-- Node21&#45;&gt;Node4 -->
<g id="edge25_Node000021_Node000004" class="edge">
<title>Node21&#45;&gt;Node4</title>
<g id="a_edge25_Node000021_Node000004"><a xlink:title=" ">
<path fill="none" stroke="#63b8ff" d="M1248.08,-284.24C1331.02,-270.78 1476.69,-247.14 1559.98,-233.62"/>
<polygon fill="#63b8ff" stroke="#63b8ff" points="1247.62,-280.77 1238.31,-285.83 1248.74,-287.68 1247.62,-280.77"/>
</a>
</g>
</g>
<!-- Node23 -->
<g id="Node000023" class="node">
<title>Node23</title>
<g id="a_Node000023"><a xlink:href="classinja_1_1Environment.html#aec4165117f8d7242f813bb7859b86d18" target="_top" xlink:title=" ">
<polygon fill="white" stroke="#666666" points="1238.75,-228.12 1130.5,-228.12 1130.5,-194.62 1238.75,-194.62 1238.75,-228.12"/>
<text xml:space="preserve" text-anchor="start" x="1138.5" y="-214.62" font-family="Helvetica,sans-Serif" font-size="10.00">inja::Environment::</text>
<text xml:space="preserve" text-anchor="middle" x="1184.62" y="-201.88" font-family="Helvetica,sans-Serif" font-size="10.00">parse_file</text>
</a>
</g>
</g>
<!-- Node22&#45;&gt;Node23 -->
<g id="edge27_Node000022_Node000023" class="edge">
<title>Node22&#45;&gt;Node23</title>
<g id="a_edge27_Node000022_Node000023"><a xlink:title=" ">
<path fill="none" stroke="#63b8ff" d="M1270.94,-180.35C1258.27,-184.96 1245,-189.79 1232.8,-194.22"/>
<polygon fill="#63b8ff" stroke="#63b8ff" points="1271.78,-183.77 1279.98,-177.06 1269.39,-177.19 1271.78,-183.77"/>
</a>
</g>
</g>
<!-- Node24 -->
<g id="Node000024" class="node">
<title>Node24</title>
<g id="a_Node000024"><a xlink:href="classinja_1_1Environment.html#a3e30972fab0a5962c232f4c0f7002845" target="_top" xlink:title=" ">
<polygon fill="white" stroke="#666666" points="1238.75,-176.12 1130.5,-176.12 1130.5,-142.62 1238.75,-142.62 1238.75,-176.12"/>
<text xml:space="preserve" text-anchor="start" x="1138.5" y="-162.62" font-family="Helvetica,sans-Serif" font-size="10.00">inja::Environment::</text>
<text xml:space="preserve" text-anchor="middle" x="1184.62" y="-149.88" font-family="Helvetica,sans-Serif" font-size="10.00">render_file</text>
</a>
</g>
</g>
<!-- Node22&#45;&gt;Node24 -->
<g id="edge28_Node000022_Node000024" class="edge">
<title>Node22&#45;&gt;Node24</title>
<g id="a_edge28_Node000022_Node000024"><a xlink:title=" ">
<path fill="none" stroke="#63b8ff" d="M1264.04,-159.38C1255.64,-159.38 1247.11,-159.38 1238.92,-159.38"/>
<polygon fill="#63b8ff" stroke="#63b8ff" points="1263.86,-162.88 1273.86,-159.38 1263.86,-155.88 1263.86,-162.88"/>
</a>
</g>
</g>
<!-- Node25 -->
<g id="Node000025" class="node">
<title>Node25</title>
<g id="a_Node000025"><a xlink:href="classinja_1_1Environment.html#a815d87f3fb622a7639691803ff9a123b" target="_top" xlink:title=" ">
<polygon fill="white" stroke="#666666" points="1094.5,-228.12 953.25,-228.12 953.25,-194.62 1094.5,-194.62 1094.5,-228.12"/>
<text xml:space="preserve" text-anchor="start" x="961.25" y="-214.62" font-family="Helvetica,sans-Serif" font-size="10.00">inja::Environment::</text>
<text xml:space="preserve" text-anchor="middle" x="1023.88" y="-201.88" font-family="Helvetica,sans-Serif" font-size="10.00">render_file_with_json_file</text>
</a>
</g>
</g>
<!-- Node24&#45;&gt;Node25 -->
<g id="edge29_Node000024_Node000025" class="edge">
<title>Node24&#45;&gt;Node25</title>
<g id="a_edge29_Node000024_Node000025"><a xlink:title=" ">
<path fill="none" stroke="#63b8ff" d="M1120.49,-180.06C1106.24,-184.72 1091.27,-189.63 1077.51,-194.13"/>
<polygon fill="#63b8ff" stroke="#63b8ff" points="1121.35,-183.46 1129.77,-177.02 1119.17,-176.8 1121.35,-183.46"/>
</a>
</g>
</g>
<!-- Node26 -->
<g id="Node000026" class="node">
<title>Node26</title>
<g id="a_Node000026"><a xlink:href="classinja_1_1Environment.html#ae64c18f23f81e8ee787d406ccd4d35dc" target="_top" xlink:title=" ">
<polygon fill="white" stroke="#666666" points="1078,-176.12 969.75,-176.12 969.75,-142.62 1078,-142.62 1078,-176.12"/>
<text xml:space="preserve" text-anchor="start" x="977.75" y="-162.62" font-family="Helvetica,sans-Serif" font-size="10.00">inja::Environment::</text>
<text xml:space="preserve" text-anchor="middle" x="1023.88" y="-149.88" font-family="Helvetica,sans-Serif" font-size="10.00">write</text>
</a>
</g>
</g>
<!-- Node24&#45;&gt;Node26 -->
<g id="edge30_Node000024_Node000026" class="edge">
<title>Node24&#45;&gt;Node26</title>
<g id="a_edge30_Node000024_Node000026"><a xlink:title=" ">
<path fill="none" stroke="#63b8ff" d="M1119.11,-159.38C1105.56,-159.38 1091.4,-159.38 1078.31,-159.38"/>
<polygon fill="#63b8ff" stroke="#63b8ff" points="1118.81,-162.88 1128.81,-159.38 1118.81,-155.88 1118.81,-162.88"/>
</a>
</g>
</g>
<!-- Node27 -->
<g id="Node000027" class="node">
<title>Node27</title>
<g id="a_Node000027"><a xlink:href="classinja_1_1Environment.html#ad6a6b713e78516f4f6fd68c58f309f3c" target="_top" xlink:title=" ">
<polygon fill="white" stroke="#666666" points="909,-176.12 795.5,-176.12 795.5,-142.62 909,-142.62 909,-176.12"/>
<text xml:space="preserve" text-anchor="start" x="803.5" y="-162.62" font-family="Helvetica,sans-Serif" font-size="10.00">inja::Environment::</text>
<text xml:space="preserve" text-anchor="middle" x="852.25" y="-149.88" font-family="Helvetica,sans-Serif" font-size="10.00">write_with_json_file</text>
</a>
</g>
</g>
<!-- Node26&#45;&gt;Node27 -->
<g id="edge31_Node000026_Node000027" class="edge">
<title>Node26&#45;&gt;Node27</title>
<g id="a_edge31_Node000026_Node000027"><a xlink:title=" ">
<path fill="none" stroke="#63b8ff" d="M958.2,-159.38C942.16,-159.38 925.1,-159.38 909.49,-159.38"/>
<polygon fill="#63b8ff" stroke="#63b8ff" points="958.16,-162.88 968.16,-159.38 958.16,-155.88 958.16,-162.88"/>
</a>
</g>
</g>
<!-- Node28&#45;&gt;Node21 -->
<g id="edge34_Node000028_Node000021" class="edge">
<title>Node28&#45;&gt;Node21</title>
<g id="a_edge34_Node000028_Node000021"><a xlink:title=" ">
<path fill="none" stroke="#63b8ff" d="M1712.35,-325.88C1617.62,-321.93 1432.1,-313.52 1274.75,-302.38 1262.51,-301.51 1249.33,-300.41 1236.97,-299.32"/>
<polygon fill="#63b8ff" stroke="#63b8ff" points="1712.07,-329.37 1722.21,-326.29 1712.36,-322.38 1712.07,-329.37"/>
</a>
</g>
</g>
</g>
</svg>
