<?xml version="1.0" encoding="UTF-8" standalone="no"?>
<!DOCTYPE svg PUBLIC "-//W3C//DTD SVG 1.1//EN"
 "http://www.w3.org/Graphics/SVG/1.1/DTD/svg11.dtd">
<!-- Generated by graphviz version 2.42.4 (0)
 -->
<!-- Title: inja::FunctionStorage::FunctionData::FunctionData Pages: 1 -->
<!--zoomable 401 -->

<svg id="main" version="1.1" xmlns="http://www.w3.org/2000/svg" xmlns:xlink="http://www.w3.org/1999/xlink" xml:space="preserve" onload="init(evt)">
<style type="text/css"><![CDATA[
.node, .edge {opacity: 0.7;}
.node.selected, .edge.selected {opacity: 1;}
.edge:hover path { stroke: red; }
.edge:hover polygon { stroke: red; fill: red; }
]]></style>

<defs>
  <circle id="rim" cx="0" cy="0" r="7"/>
  <circle id="rim2" cx="0" cy="0" r="3.5"/>
  <g id="zoomPlus">
    <use xlink:href="#rim" fill="#404040"><set attributeName="fill" to="#808080" begin="zoomplus.mouseover" end="zoomplus.mouseout"/></use>
    <path d="M-4,0h8M0,-4v8" fill="none" stroke="white" stroke-width="1.5" pointer-events="none"/>
  </g>
  <g id="zoomMin">
    <use xlink:href="#rim" fill="#404040"><set attributeName="fill" to="#808080" begin="zoomminus.mouseover" end="zoomminus.mouseout"/></use>
    <path d="M-4,0h8" fill="none" stroke="white" stroke-width="1.5" pointer-events="none"/>
  </g>
  <g id="arrowUp" transform="translate(30 24)">
    <use xlink:href="#rim"/>
    <path pointer-events="none" fill="none" stroke="white" stroke-width="1.5" d="M0,-3.0v7 M-2.5,-0.5L0,-3.0L2.5,-0.5"/>
  </g>
  <g id="arrowRight" transform="rotate(90) translate(36 -43)">
    <use xlink:href="#rim"/>
    <path pointer-events="none" fill="none" stroke="white" stroke-width="1.5" d="M0,-3.0v7 M-2.5,-0.5L0,-3.0L2.5,-0.5"/>
  </g>
  <g id="arrowDown" transform="rotate(180) translate(-30 -48)">
    <use xlink:href="#rim"/>
    <path pointer-events="none" fill="none" stroke="white" stroke-width="1.5" d="M0,-3.0v7 M-2.5,-0.5L0,-3.0L2.5,-0.5"/>
  </g>
  <g id="arrowLeft" transform="rotate(270) translate(-36 17)">
    <use xlink:href="#rim"/>
    <path pointer-events="none" fill="none" stroke="white" stroke-width="1.5" d="M0,-3.0v7 M-2.5,-0.5L0,-3.0L2.5,-0.5"/>
  </g>
  <g id="resetDef">
    <use xlink:href="#rim2" fill="#404040"><set attributeName="fill" to="#808080" begin="reset.mouseover" end="reset.mouseout"/></use>
  </g>
</defs>
<script type="application/ecmascript">
var viewWidth = 1935;
var viewHeight = 401;
var sectionId = 'dynsection-1';
</script>
<script type="application/ecmascript" xlink:href="svg.min.js"/>
<svg id="graph" class="graph">
<g id="viewport">
<title>inja::FunctionStorage::FunctionData::FunctionData</title>
<!-- Node1 -->
<g id="Node000001" class="node">
<title>Node1</title>
<g id="a_Node000001"><a xlink:title=" ">
<polygon fill="#999999" stroke="#666666" points="1927,-315 1769,-315 1769,-285 1927,-285 1927,-315"/>
<text text-anchor="start" x="1777" y="-303" font-family="Helvetica,sans-Serif" font-size="10.00">inja::FunctionStorage</text>
<text text-anchor="middle" x="1848" y="-292" font-family="Helvetica,sans-Serif" font-size="10.00">::FunctionData::FunctionData</text>
</a>
</g>
</g>
<!-- Node2 -->
<g id="Node000002" class="node">
<title>Node2</title>
<g id="a_Node000002"><a xlink:href="classinja_1_1FunctionStorage.html#a31a9d4781cb5d9ab4df544b1a22ea9e7" target="_top" xlink:title=" ">
<polygon fill="white" stroke="#666666" points="1733,-363 1614,-363 1614,-333 1733,-333 1733,-363"/>
<text text-anchor="start" x="1622" y="-351" font-family="Helvetica,sans-Serif" font-size="10.00">inja::FunctionStorage</text>
<text text-anchor="middle" x="1673.5" y="-340" font-family="Helvetica,sans-Serif" font-size="10.00">::add_builtin</text>
</a>
</g>
</g>
<!-- Node1&#45;&gt;Node2 -->
<g id="edge1_Node000001_Node000002" class="edge">
<title>Node1&#45;&gt;Node2</title>
<g id="a_edge1_Node000001_Node000002"><a xlink:title=" ">
<path fill="none" stroke="#63b8ff" d="M1783.07,-317.79C1765.1,-322.79 1745.74,-328.18 1728.41,-333"/>
<polygon fill="#63b8ff" stroke="#63b8ff" points="1784.2,-321.11 1792.89,-315.06 1782.32,-314.36 1784.2,-321.11"/>
</a>
</g>
</g>
<!-- Node3 -->
<g id="Node000003" class="node">
<title>Node3</title>
<g id="a_Node000003"><a xlink:href="classinja_1_1FunctionStorage.html#ae6060e88dacd550e8b48992fd6f0500f" target="_top" xlink:title=" ">
<polygon fill="white" stroke="#666666" points="1733,-315 1614,-315 1614,-285 1733,-285 1733,-315"/>
<text text-anchor="start" x="1622" y="-303" font-family="Helvetica,sans-Serif" font-size="10.00">inja::FunctionStorage</text>
<text text-anchor="middle" x="1673.5" y="-292" font-family="Helvetica,sans-Serif" font-size="10.00">::add_callback</text>
</a>
</g>
</g>
<!-- Node1&#45;&gt;Node3 -->
<g id="edge2_Node000001_Node000003" class="edge">
<title>Node1&#45;&gt;Node3</title>
<g id="a_edge2_Node000001_Node000003"><a xlink:title=" ">
<path fill="none" stroke="#63b8ff" d="M1758.64,-300C1749.96,-300 1741.31,-300 1733.04,-300"/>
<polygon fill="#63b8ff" stroke="#63b8ff" points="1758.83,-303.5 1768.83,-300 1758.83,-296.5 1758.83,-303.5"/>
</a>
</g>
</g>
<!-- Node13 -->
<g id="Node000013" class="node">
<title>Node13</title>
<g id="a_Node000013"><a xlink:href="classinja_1_1FunctionStorage.html#af382c6fe227c69fa5cc36703a655912c" target="_top" xlink:title=" ">
<polygon fill="white" stroke="#666666" points="1733,-239 1614,-239 1614,-209 1733,-209 1733,-239"/>
<text text-anchor="start" x="1622" y="-227" font-family="Helvetica,sans-Serif" font-size="10.00">inja::FunctionStorage</text>
<text text-anchor="middle" x="1673.5" y="-216" font-family="Helvetica,sans-Serif" font-size="10.00">::find_function</text>
</a>
</g>
</g>
<!-- Node1&#45;&gt;Node13 -->
<g id="edge15_Node000001_Node000013" class="edge">
<title>Node1&#45;&gt;Node13</title>
<g id="a_edge15_Node000001_Node000013"><a xlink:title=" ">
<path fill="none" stroke="#63b8ff" d="M1803.72,-280.93C1774.36,-268 1736.06,-251.12 1708.8,-239.11"/>
<polygon fill="#63b8ff" stroke="#63b8ff" points="1802.36,-284.16 1812.92,-284.98 1805.18,-277.75 1802.36,-284.16"/>
</a>
</g>
</g>
<!-- Node4 -->
<g id="Node000004" class="node">
<title>Node4</title>
<g id="a_Node000004"><a xlink:href="classinja_1_1Environment.html#accda3196054131f8e8cd484ef92c0627" target="_top" xlink:title="Adds a callback with given number or arguments.">
<polygon fill="white" stroke="#666666" points="1576.5,-368 1467.5,-368 1467.5,-338 1576.5,-338 1576.5,-368"/>
<text text-anchor="start" x="1475.5" y="-356" font-family="Helvetica,sans-Serif" font-size="10.00">inja::Environment::</text>
<text text-anchor="middle" x="1522" y="-345" font-family="Helvetica,sans-Serif" font-size="10.00">add_callback</text>
</a>
</g>
</g>
<!-- Node3&#45;&gt;Node4 -->
<g id="edge3_Node000003_Node000004" class="edge">
<title>Node3&#45;&gt;Node4</title>
<g id="a_edge3_Node000003_Node000004"><a xlink:title=" ">
<path fill="none" stroke="#63b8ff" d="M1620.33,-318.49C1602.42,-324.84 1582.6,-331.87 1565.55,-337.92"/>
<polygon fill="#63b8ff" stroke="#63b8ff" points="1621.8,-321.69 1630.06,-315.05 1619.46,-315.09 1621.8,-321.69"/>
</a>
</g>
</g>
<!-- Node11 -->
<g id="Node000011" class="node">
<title>Node11</title>
<g id="a_Node000011"><a xlink:href="classinja_1_1Environment.html#a3467986ae633a7c546a62c387b6c613f" target="_top" xlink:title="Adds a void callback with given number or arguments.">
<polygon fill="white" stroke="#666666" points="1576.5,-315 1467.5,-315 1467.5,-285 1576.5,-285 1576.5,-315"/>
<text text-anchor="start" x="1475.5" y="-303" font-family="Helvetica,sans-Serif" font-size="10.00">inja::Environment::</text>
<text text-anchor="middle" x="1522" y="-292" font-family="Helvetica,sans-Serif" font-size="10.00">add_void_callback</text>
</a>
</g>
</g>
<!-- Node3&#45;&gt;Node11 -->
<g id="edge11_Node000003_Node000011" class="edge">
<title>Node3&#45;&gt;Node11</title>
<g id="a_edge11_Node000003_Node000011"><a xlink:title=" ">
<path fill="none" stroke="#63b8ff" d="M1603.67,-300C1594.59,-300 1585.39,-300 1576.62,-300"/>
<polygon fill="#63b8ff" stroke="#63b8ff" points="1603.84,-303.5 1613.84,-300 1603.84,-296.5 1603.84,-303.5"/>
</a>
</g>
</g>
<!-- Node5 -->
<g id="Node000005" class="node">
<title>Node5</title>
<g id="a_Node000005"><a xlink:href="classinja_1_1Environment.html#aacf2afb515ec7efb0b844174093fed6d" target="_top" xlink:title="Adds a variadic callback.">
<polygon fill="white" stroke="#666666" points="1430,-368 1321,-368 1321,-338 1430,-338 1430,-368"/>
<text text-anchor="start" x="1329" y="-356" font-family="Helvetica,sans-Serif" font-size="10.00">inja::Environment::</text>
<text text-anchor="middle" x="1375.5" y="-345" font-family="Helvetica,sans-Serif" font-size="10.00">add_callback</text>
</a>
</g>
</g>
<!-- Node4&#45;&gt;Node5 -->
<g id="edge4_Node000004_Node000005" class="edge">
<title>Node4&#45;&gt;Node5</title>
<g id="a_edge4_Node000004_Node000005"><a xlink:title=" ">
<path fill="none" stroke="#63b8ff" d="M1457.19,-353C1448.23,-353 1439.1,-353 1430.35,-353"/>
<polygon fill="#63b8ff" stroke="#63b8ff" points="1457.19,-356.5 1467.19,-353 1457.19,-349.5 1457.19,-356.5"/>
</a>
</g>
</g>
<!-- Node6 -->
<g id="Node000006" class="node">
<title>Node6</title>
<g id="a_Node000006"><a xlink:href="classmqtt_1_1lib_1_1MqttMapper.html#ae244e3745588740bf513016cb0f06a74" target="_top" xlink:title=" ">
<polygon fill="white" stroke="#666666" points="1282.5,-346 1159.5,-346 1159.5,-316 1282.5,-316 1282.5,-346"/>
<text text-anchor="start" x="1167.5" y="-334" font-family="Helvetica,sans-Serif" font-size="10.00">mqtt::lib::MqttMapper</text>
<text text-anchor="middle" x="1221" y="-323" font-family="Helvetica,sans-Serif" font-size="10.00">::MqttMapper</text>
</a>
</g>
</g>
<!-- Node4&#45;&gt;Node6 -->
<g id="edge10_Node000004_Node000006" class="edge">
<title>Node4&#45;&gt;Node6</title>
<g id="a_edge10_Node000004_Node000006"><a xlink:title=" ">
<path fill="none" stroke="#63b8ff" d="M1463.37,-370.58C1452.39,-373.25 1440.92,-375.58 1430,-377 1381.96,-383.23 1368.3,-387.45 1321,-377 1294.17,-371.07 1265.97,-357.1 1246.56,-346.1"/>
<polygon fill="#63b8ff" stroke="#63b8ff" points="1464.46,-373.92 1473.29,-368.05 1462.73,-367.13 1464.46,-373.92"/>
</a>
</g>
</g>
<!-- Node5&#45;&gt;Node6 -->
<g id="edge5_Node000005_Node000006" class="edge">
<title>Node5&#45;&gt;Node6</title>
<g id="a_edge5_Node000005_Node000006"><a xlink:title=" ">
<path fill="none" stroke="#63b8ff" d="M1310.74,-343.8C1301.41,-342.46 1291.82,-341.07 1282.56,-339.74"/>
<polygon fill="#63b8ff" stroke="#63b8ff" points="1310.34,-347.28 1320.73,-345.24 1311.34,-340.35 1310.34,-347.28"/>
</a>
</g>
</g>
<!-- Node7 -->
<g id="Node000007" class="node">
<title>Node7</title>
<g id="a_Node000007"><a xlink:href="classmqtt_1_1mqttintegrator_1_1lib_1_1Mqtt.html#ad8c0b5a8b1ecd0e2eb8e54a2d186a5ae" target="_top" xlink:title=" ">
<polygon fill="white" stroke="#666666" points="1120.5,-385 1003.5,-385 1003.5,-355 1120.5,-355 1120.5,-385"/>
<text text-anchor="start" x="1011.5" y="-373" font-family="Helvetica,sans-Serif" font-size="10.00">mqtt::mqttintegrator</text>
<text text-anchor="middle" x="1062" y="-362" font-family="Helvetica,sans-Serif" font-size="10.00">::lib::Mqtt::Mqtt</text>
</a>
</g>
</g>
<!-- Node6&#45;&gt;Node7 -->
<g id="edge6_Node000006_Node000007" class="edge">
<title>Node6&#45;&gt;Node7</title>
<g id="a_edge6_Node000006_Node000007"><a xlink:title=" ">
<path fill="none" stroke="#63b8ff" d="M1149.38,-348.54C1139.79,-350.93 1130.04,-353.35 1120.7,-355.67"/>
<polygon fill="#63b8ff" stroke="#63b8ff" points="1150.44,-351.89 1159.3,-346.08 1148.75,-345.09 1150.44,-351.89"/>
</a>
</g>
</g>
<!-- Node9 -->
<g id="Node000009" class="node">
<title>Node9</title>
<g id="a_Node000009"><a xlink:href="classmqtt_1_1mqttbroker_1_1lib_1_1Mqtt.html#a183033437406ea7be6c978ab3153bad5" target="_top" xlink:title=" ">
<polygon fill="white" stroke="#666666" points="1121,-334 1003,-334 1003,-304 1121,-304 1121,-334"/>
<text text-anchor="start" x="1011" y="-322" font-family="Helvetica,sans-Serif" font-size="10.00">mqtt::mqttbroker::lib</text>
<text text-anchor="middle" x="1062" y="-311" font-family="Helvetica,sans-Serif" font-size="10.00">::Mqtt::Mqtt</text>
</a>
</g>
</g>
<!-- Node6&#45;&gt;Node9 -->
<g id="edge8_Node000006_Node000009" class="edge">
<title>Node6&#45;&gt;Node9</title>
<g id="a_edge8_Node000006_Node000009"><a xlink:title=" ">
<path fill="none" stroke="#63b8ff" d="M1149.22,-325.59C1139.85,-324.87 1130.34,-324.15 1121.22,-323.45"/>
<polygon fill="#63b8ff" stroke="#63b8ff" points="1149.06,-329.09 1159.3,-326.36 1149.6,-322.11 1149.06,-329.09"/>
</a>
</g>
</g>
<!-- Node8 -->
<g id="Node000008" class="node">
<title>Node8</title>
<g id="a_Node000008"><a xlink:href="classmqtt_1_1mqttintegrator_1_1SocketContextFactory.html#a0667981d3feaa8d66a6ba2ecb81dc900" target="_top" xlink:title=" ">
<polygon fill="white" stroke="#666666" points="962.5,-392.5 833.5,-392.5 833.5,-351.5 962.5,-351.5 962.5,-392.5"/>
<text text-anchor="start" x="841.5" y="-380.5" font-family="Helvetica,sans-Serif" font-size="10.00">mqtt::mqttintegrator</text>
<text text-anchor="start" x="841.5" y="-369.5" font-family="Helvetica,sans-Serif" font-size="10.00">::SocketContextFactory</text>
<text text-anchor="middle" x="898" y="-358.5" font-family="Helvetica,sans-Serif" font-size="10.00">::create</text>
</a>
</g>
</g>
<!-- Node7&#45;&gt;Node8 -->
<g id="edge7_Node000007_Node000008" class="edge">
<title>Node7&#45;&gt;Node8</title>
<g id="a_edge7_Node000007_Node000008"><a xlink:title=" ">
<path fill="none" stroke="#63b8ff" d="M993.39,-370.83C983.24,-370.96 972.79,-371.09 962.72,-371.21"/>
<polygon fill="#63b8ff" stroke="#63b8ff" points="993.47,-374.33 1003.43,-370.71 993.39,-367.33 993.47,-374.33"/>
</a>
</g>
</g>
<!-- Node10 -->
<g id="Node000010" class="node">
<title>Node10</title>
<g id="a_Node000010"><a xlink:href="classmqtt_1_1mqttbroker_1_1SocketContextFactory.html#a84a300c6ea4e8fc1e0370f5460a64e9a" target="_top" xlink:title=" ">
<polygon fill="white" stroke="#666666" points="967,-333 829,-333 829,-303 967,-303 967,-333"/>
<text text-anchor="start" x="837" y="-321" font-family="Helvetica,sans-Serif" font-size="10.00">mqtt::mqttbroker::Socket</text>
<text text-anchor="middle" x="898" y="-310" font-family="Helvetica,sans-Serif" font-size="10.00">ContextFactory::create</text>
</a>
</g>
</g>
<!-- Node9&#45;&gt;Node10 -->
<g id="edge9_Node000009_Node000010" class="edge">
<title>Node9&#45;&gt;Node10</title>
<g id="a_edge9_Node000009_Node000010"><a xlink:title=" ">
<path fill="none" stroke="#63b8ff" d="M992.75,-318.58C984.27,-318.53 975.59,-318.47 967.12,-318.42"/>
<polygon fill="#63b8ff" stroke="#63b8ff" points="992.95,-322.08 1002.97,-318.64 992.99,-315.08 992.95,-322.08"/>
</a>
</g>
</g>
<!-- Node11&#45;&gt;Node6 -->
<g id="edge14_Node000011_Node000006" class="edge">
<title>Node11&#45;&gt;Node6</title>
<g id="a_edge14_Node000011_Node000006"><a xlink:title=" ">
<path fill="none" stroke="#63b8ff" d="M1457.16,-306.62C1405.52,-311.97 1333.31,-319.46 1282.57,-324.72"/>
<polygon fill="#63b8ff" stroke="#63b8ff" points="1457.61,-310.09 1467.2,-305.58 1456.89,-303.13 1457.61,-310.09"/>
</a>
</g>
</g>
<!-- Node12 -->
<g id="Node000012" class="node">
<title>Node12</title>
<g id="a_Node000012"><a xlink:href="classinja_1_1Environment.html#abf3676db94a59534d715e83f4d5e4940" target="_top" xlink:title="Adds a variadic void callback.">
<polygon fill="white" stroke="#666666" points="1430,-282 1321,-282 1321,-252 1430,-252 1430,-282"/>
<text text-anchor="start" x="1329" y="-270" font-family="Helvetica,sans-Serif" font-size="10.00">inja::Environment::</text>
<text text-anchor="middle" x="1375.5" y="-259" font-family="Helvetica,sans-Serif" font-size="10.00">add_void_callback</text>
</a>
</g>
</g>
<!-- Node11&#45;&gt;Node12 -->
<g id="edge12_Node000011_Node000012" class="edge">
<title>Node11&#45;&gt;Node12</title>
<g id="a_edge12_Node000011_Node000012"><a xlink:title=" ">
<path fill="none" stroke="#63b8ff" d="M1457.19,-285.43C1448.23,-283.38 1439.1,-281.3 1430.35,-279.3"/>
<polygon fill="#63b8ff" stroke="#63b8ff" points="1456.67,-288.9 1467.19,-287.71 1458.22,-282.07 1456.67,-288.9"/>
</a>
</g>
</g>
<!-- Node12&#45;&gt;Node6 -->
<g id="edge13_Node000012_Node000006" class="edge">
<title>Node12&#45;&gt;Node6</title>
<g id="a_edge13_Node000012_Node000006"><a xlink:title=" ">
<path fill="none" stroke="#63b8ff" d="M1329.27,-285.98C1306.44,-295.56 1279.14,-307.02 1257.79,-315.98"/>
<polygon fill="#63b8ff" stroke="#63b8ff" points="1330.88,-289.1 1338.75,-282.01 1328.17,-282.65 1330.88,-289.1"/>
</a>
</g>
</g>
<!-- Node14 -->
<g id="Node000014" class="node">
<title>Node14</title>
<g id="a_Node000014"><a xlink:href="classinja_1_1Parser.html#a7dda6b9f4295c215e097f45d573d8d69" target="_top" xlink:title=" ">
<polygon fill="white" stroke="#666666" points="1574,-239 1470,-239 1470,-209 1574,-209 1574,-239"/>
<text text-anchor="start" x="1478" y="-227" font-family="Helvetica,sans-Serif" font-size="10.00">inja::Parser::parse</text>
<text text-anchor="middle" x="1522" y="-216" font-family="Helvetica,sans-Serif" font-size="10.00">_expression</text>
</a>
</g>
</g>
<!-- Node13&#45;&gt;Node14 -->
<g id="edge16_Node000013_Node000014" class="edge">
<title>Node13&#45;&gt;Node14</title>
<g id="a_edge16_Node000013_Node000014"><a xlink:title=" ">
<path fill="none" stroke="#63b8ff" d="M1603.61,-224C1593.72,-224 1583.68,-224 1574.21,-224"/>
<polygon fill="#63b8ff" stroke="#63b8ff" points="1603.84,-227.5 1613.84,-224 1603.84,-220.5 1603.84,-227.5"/>
</a>
</g>
</g>
<!-- Node42 -->
<g id="Node000042" class="node">
<title>Node42</title>
<g id="a_Node000042"><a xlink:href="classinja_1_1Renderer.html#a27d4b44bb4ff03a84b1a86b6fcc0d9e5" target="_top" xlink:title=" ">
<polygon fill="white" stroke="#666666" points="1578,-190.5 1466,-190.5 1466,-171.5 1578,-171.5 1578,-190.5"/>
<text text-anchor="middle" x="1522" y="-178.5" font-family="Helvetica,sans-Serif" font-size="10.00">inja::Renderer::visit</text>
</a>
</g>
</g>
<!-- Node13&#45;&gt;Node42 -->
<g id="edge49_Node000013_Node000042" class="edge">
<title>Node13&#45;&gt;Node42</title>
<g id="a_edge49_Node000013_Node000042"><a xlink:title=" ">
<path fill="none" stroke="#63b8ff" d="M1610.36,-206.13C1591.84,-200.8 1572.25,-195.17 1556.33,-190.59"/>
<polygon fill="#63b8ff" stroke="#63b8ff" points="1609.63,-209.56 1620.21,-208.96 1611.57,-202.83 1609.63,-209.56"/>
</a>
</g>
</g>
<!-- Node14&#45;&gt;Node14 -->
<g id="edge17_Node000014_Node000014" class="edge">
<title>Node14&#45;&gt;Node14</title>
<g id="a_edge17_Node000014_Node000014"><a xlink:title=" ">
<path fill="none" stroke="#63b8ff" d="M1547.56,-249.6C1544.06,-253.97 1535.54,-257 1522,-257 1499.19,-257 1490.63,-248.41 1496.34,-239.28"/>
<polygon fill="#63b8ff" stroke="#63b8ff" points="1551.06,-249.31 1547.66,-239.28 1544.06,-249.24 1551.06,-249.31"/>
</a>
</g>
</g>
<!-- Node15 -->
<g id="Node000015" class="node">
<title>Node15</title>
<g id="a_Node000015"><a xlink:href="classinja_1_1Parser.html#aeb66164c89e8c71cae3c93c24d7c7be2" target="_top" xlink:title=" ">
<polygon fill="white" stroke="#666666" points="1427.5,-234 1323.5,-234 1323.5,-204 1427.5,-204 1427.5,-234"/>
<text text-anchor="start" x="1331.5" y="-222" font-family="Helvetica,sans-Serif" font-size="10.00">inja::Parser::parse</text>
<text text-anchor="middle" x="1375.5" y="-211" font-family="Helvetica,sans-Serif" font-size="10.00">_expression</text>
</a>
</g>
</g>
<!-- Node14&#45;&gt;Node15 -->
<g id="edge18_Node000014_Node000015" class="edge">
<title>Node14&#45;&gt;Node15</title>
<g id="a_edge18_Node000014_Node000015"><a xlink:title=" ">
<path fill="none" stroke="#63b8ff" d="M1459.59,-221.87C1448.96,-221.51 1438.01,-221.13 1427.69,-220.77"/>
<polygon fill="#63b8ff" stroke="#63b8ff" points="1459.53,-225.38 1469.65,-222.22 1459.77,-218.38 1459.53,-225.38"/>
</a>
</g>
</g>
<!-- Node16 -->
<g id="Node000016" class="node">
<title>Node16</title>
<g id="a_Node000016"><a xlink:href="classinja_1_1Parser.html#a9a561141f71073df671b2b7ecb4608ba" target="_top" xlink:title=" ">
<polygon fill="white" stroke="#666666" points="1285,-196.5 1157,-196.5 1157,-177.5 1285,-177.5 1285,-196.5"/>
<text text-anchor="middle" x="1221" y="-184.5" font-family="Helvetica,sans-Serif" font-size="10.00">inja::Parser::parse_into</text>
</a>
</g>
</g>
<!-- Node15&#45;&gt;Node16 -->
<g id="edge19_Node000015_Node000016" class="edge">
<title>Node15&#45;&gt;Node16</title>
<g id="a_edge19_Node000015_Node000016"><a xlink:title=" ">
<path fill="none" stroke="#63b8ff" d="M1313.37,-206.17C1298.04,-202.96 1281.85,-199.56 1267.44,-196.53"/>
<polygon fill="#63b8ff" stroke="#63b8ff" points="1312.79,-209.63 1323.3,-208.26 1314.23,-202.78 1312.79,-209.63"/>
</a>
</g>
</g>
<!-- Node30 -->
<g id="Node000030" class="node">
<title>Node30</title>
<g id="a_Node000030"><a xlink:href="classinja_1_1Parser.html#a5a26bdcce0ae076bf010ee7442d8928e" target="_top" xlink:title=" ">
<polygon fill="white" stroke="#666666" points="790.5,-232 686.5,-232 686.5,-202 790.5,-202 790.5,-232"/>
<text text-anchor="start" x="694.5" y="-220" font-family="Helvetica,sans-Serif" font-size="10.00">inja::Parser::parse</text>
<text text-anchor="middle" x="738.5" y="-209" font-family="Helvetica,sans-Serif" font-size="10.00">_statement</text>
</a>
</g>
</g>
<!-- Node15&#45;&gt;Node30 -->
<g id="edge48_Node000015_Node000030" class="edge">
<title>Node15&#45;&gt;Node30</title>
<g id="a_edge48_Node000015_Node000030"><a xlink:title=" ">
<path fill="none" stroke="#63b8ff" d="M1313.33,-220.67C1212.42,-223.12 1004.73,-226.9 829,-222 816.55,-221.65 803.15,-221.03 790.6,-220.35"/>
<polygon fill="#63b8ff" stroke="#63b8ff" points="1313.44,-224.17 1323.35,-220.42 1313.26,-217.17 1313.44,-224.17"/>
</a>
</g>
</g>
<!-- Node17 -->
<g id="Node000017" class="node">
<title>Node17</title>
<g id="a_Node000017"><a xlink:href="classinja_1_1Parser.html#a0f1312b0bf8691aba6cc4590169902fc" target="_top" xlink:title=" ">
<polygon fill="white" stroke="#666666" points="1114,-111.5 1010,-111.5 1010,-92.5 1114,-92.5 1114,-111.5"/>
<text text-anchor="middle" x="1062" y="-99.5" font-family="Helvetica,sans-Serif" font-size="10.00">inja::Parser::parse</text>
</a>
</g>
</g>
<!-- Node16&#45;&gt;Node17 -->
<g id="edge20_Node000016_Node000017" class="edge">
<title>Node16&#45;&gt;Node17</title>
<g id="a_edge20_Node000016_Node000017"><a xlink:title=" ">
<path fill="none" stroke="#63b8ff" d="M1193.47,-172.63C1161.43,-155.29 1108.43,-126.6 1080.88,-111.68"/>
<polygon fill="#63b8ff" stroke="#63b8ff" points="1191.84,-175.73 1202.3,-177.41 1195.17,-169.58 1191.84,-175.73"/>
</a>
</g>
</g>
<!-- Node28 -->
<g id="Node000028" class="node">
<title>Node28</title>
<g id="a_Node000028"><a xlink:href="classinja_1_1Parser.html#a8c6a03b6665745f216ba86f5e514a913" target="_top" xlink:title=" ">
<polygon fill="white" stroke="#666666" points="1114,-186 1010,-186 1010,-156 1114,-156 1114,-186"/>
<text text-anchor="start" x="1018" y="-174" font-family="Helvetica,sans-Serif" font-size="10.00">inja::Parser::parse</text>
<text text-anchor="middle" x="1062" y="-163" font-family="Helvetica,sans-Serif" font-size="10.00">_into_template</text>
</a>
</g>
</g>
<!-- Node16&#45;&gt;Node28 -->
<g id="edge31_Node000016_Node000028" class="edge">
<title>Node16&#45;&gt;Node28</title>
<g id="a_edge31_Node000016_Node000028"><a xlink:title=" ">
<path fill="none" stroke="#63b8ff" d="M1146.57,-179.52C1135.6,-178.4 1124.48,-177.27 1114.1,-176.21"/>
<polygon fill="#63b8ff" stroke="#63b8ff" points="1146.29,-183.01 1156.59,-180.54 1147,-176.04 1146.29,-183.01"/>
</a>
</g>
</g>
<!-- Node18 -->
<g id="Node000018" class="node">
<title>Node18</title>
<g id="a_Node000018"><a xlink:href="classinja_1_1Environment.html#a8421b8d61fc4de15f29c909bd7154f92" target="_top" xlink:title=" ">
<polygon fill="white" stroke="#666666" points="952.5,-78 843.5,-78 843.5,-48 952.5,-48 952.5,-78"/>
<text text-anchor="start" x="851.5" y="-66" font-family="Helvetica,sans-Serif" font-size="10.00">inja::Environment::</text>
<text text-anchor="middle" x="898" y="-55" font-family="Helvetica,sans-Serif" font-size="10.00">parse</text>
</a>
</g>
</g>
<!-- Node17&#45;&gt;Node18 -->
<g id="edge21_Node000017_Node000018" class="edge">
<title>Node17&#45;&gt;Node18</title>
<g id="a_edge21_Node000017_Node000018"><a xlink:title=" ">
<path fill="none" stroke="#63b8ff" d="M1011.59,-90.11C992.93,-85.61 971.62,-80.48 952.59,-75.9"/>
<polygon fill="#63b8ff" stroke="#63b8ff" points="1010.83,-93.52 1021.37,-92.46 1012.47,-86.72 1010.83,-93.52"/>
</a>
</g>
</g>
<!-- Node19 -->
<g id="Node000019" class="node">
<title>Node19</title>
<g id="a_Node000019"><a xlink:href="classinja_1_1Environment.html#aac36e0cfdc9e7926914e46c0cd1caada" target="_top" xlink:title=" ">
<polygon fill="white" stroke="#666666" points="793,-78 684,-78 684,-48 793,-48 793,-78"/>
<text text-anchor="start" x="692" y="-66" font-family="Helvetica,sans-Serif" font-size="10.00">inja::Environment::</text>
<text text-anchor="middle" x="738.5" y="-55" font-family="Helvetica,sans-Serif" font-size="10.00">render</text>
</a>
</g>
</g>
<!-- Node18&#45;&gt;Node19 -->
<g id="edge22_Node000018_Node000019" class="edge">
<title>Node18&#45;&gt;Node19</title>
<g id="a_edge22_Node000018_Node000019"><a xlink:title=" ">
<path fill="none" stroke="#63b8ff" d="M833.19,-63C819.86,-63 805.93,-63 793.02,-63"/>
<polygon fill="#63b8ff" stroke="#63b8ff" points="833.24,-66.5 843.24,-63 833.24,-59.5 833.24,-66.5"/>
</a>
</g>
</g>
<!-- Node27 -->
<g id="Node000027" class="node">
<title>Node27</title>
<g id="a_Node000027"><a xlink:href="namespaceinja.html#a996f16f78b37d05e19cf44ac74d83e7e" target="_top" xlink:title="render with default settings to the given output stream">
<polygon fill="white" stroke="#666666" points="782,-29.5 695,-29.5 695,-10.5 782,-10.5 782,-29.5"/>
<text text-anchor="middle" x="738.5" y="-17.5" font-family="Helvetica,sans-Serif" font-size="10.00">inja::render_to</text>
</a>
</g>
</g>
<!-- Node18&#45;&gt;Node27 -->
<g id="edge30_Node000018_Node000027" class="edge">
<title>Node18&#45;&gt;Node27</title>
<g id="a_edge30_Node000018_Node000027"><a xlink:title=" ">
<path fill="none" stroke="#63b8ff" d="M833.53,-45.67C813.48,-40.2 792.06,-34.35 774.73,-29.62"/>
<polygon fill="#63b8ff" stroke="#63b8ff" points="832.67,-49.06 843.24,-48.32 834.51,-42.31 832.67,-49.06"/>
</a>
</g>
</g>
<!-- Node20 -->
<g id="Node000020" class="node">
<title>Node20</title>
<g id="a_Node000020"><a xlink:href="classmqtt_1_1lib_1_1MqttMapper.html#a04261a968a945934ebf3518733c62b7d" target="_top" xlink:title=" ">
<polygon fill="white" stroke="#666666" points="648,-78 506,-78 506,-48 648,-48 648,-78"/>
<text text-anchor="start" x="514" y="-66" font-family="Helvetica,sans-Serif" font-size="10.00">mqtt::lib::MqttMapper</text>
<text text-anchor="middle" x="577" y="-55" font-family="Helvetica,sans-Serif" font-size="10.00">::publishMappedTemplate</text>
</a>
</g>
</g>
<!-- Node19&#45;&gt;Node20 -->
<g id="edge23_Node000019_Node000020" class="edge">
<title>Node19&#45;&gt;Node20</title>
<g id="a_edge23_Node000019_Node000020"><a xlink:title=" ">
<path fill="none" stroke="#63b8ff" d="M673.8,-63C665.36,-63 656.67,-63 648.13,-63"/>
<polygon fill="#63b8ff" stroke="#63b8ff" points="673.95,-66.5 683.95,-63 673.95,-59.5 673.95,-66.5"/>
</a>
</g>
</g>
<!-- Node26 -->
<g id="Node000026" class="node">
<title>Node26</title>
<g id="a_Node000026"><a xlink:href="namespaceinja.html#a539106781b52cc6117fc132f927a9dec" target="_top" xlink:title="render with default settings to a string">
<polygon fill="white" stroke="#666666" points="613,-29.5 541,-29.5 541,-10.5 613,-10.5 613,-29.5"/>
<text text-anchor="middle" x="577" y="-17.5" font-family="Helvetica,sans-Serif" font-size="10.00">inja::render</text>
</a>
</g>
</g>
<!-- Node19&#45;&gt;Node26 -->
<g id="edge29_Node000019_Node000026" class="edge">
<title>Node19&#45;&gt;Node26</title>
<g id="a_edge29_Node000019_Node000026"><a xlink:title=" ">
<path fill="none" stroke="#63b8ff" d="M674.2,-45.94C653.4,-40.33 631.04,-34.3 613.11,-29.47"/>
<polygon fill="#63b8ff" stroke="#63b8ff" points="673.38,-49.34 683.95,-48.56 675.2,-42.58 673.38,-49.34"/>
</a>
</g>
</g>
<!-- Node21 -->
<g id="Node000021" class="node">
<title>Node21</title>
<g id="a_Node000021"><a xlink:href="classmqtt_1_1lib_1_1MqttMapper.html#aae1c8da19646ae1ada8d497fef0df12d" target="_top" xlink:title=" ">
<polygon fill="white" stroke="#666666" points="470,-78 323,-78 323,-48 470,-48 470,-78"/>
<text text-anchor="start" x="331" y="-66" font-family="Helvetica,sans-Serif" font-size="10.00">mqtt::lib::MqttMapper</text>
<text text-anchor="middle" x="396.5" y="-55" font-family="Helvetica,sans-Serif" font-size="10.00">::publishMappedTemplates</text>
</a>
</g>
</g>
<!-- Node20&#45;&gt;Node21 -->
<g id="edge24_Node000020_Node000021" class="edge">
<title>Node20&#45;&gt;Node21</title>
<g id="a_edge24_Node000020_Node000021"><a xlink:title=" ">
<path fill="none" stroke="#63b8ff" d="M495.7,-63C487.23,-63 478.65,-63 470.27,-63"/>
<polygon fill="#63b8ff" stroke="#63b8ff" points="495.96,-66.5 505.96,-63 495.96,-59.5 495.96,-66.5"/>
</a>
</g>
</g>
<!-- Node22 -->
<g id="Node000022" class="node">
<title>Node22</title>
<g id="a_Node000022"><a xlink:href="classmqtt_1_1lib_1_1MqttMapper.html#a279b13d33784be36c0b524a8796e194a" target="_top" xlink:title=" ">
<polygon fill="white" stroke="#666666" points="287,-78 164,-78 164,-48 287,-48 287,-78"/>
<text text-anchor="start" x="172" y="-66" font-family="Helvetica,sans-Serif" font-size="10.00">mqtt::lib::MqttMapper</text>
<text text-anchor="middle" x="225.5" y="-55" font-family="Helvetica,sans-Serif" font-size="10.00">::publishMappings</text>
</a>
</g>
</g>
<!-- Node21&#45;&gt;Node22 -->
<g id="edge25_Node000021_Node000022" class="edge">
<title>Node21&#45;&gt;Node22</title>
<g id="a_edge25_Node000021_Node000022"><a xlink:title=" ">
<path fill="none" stroke="#63b8ff" d="M312.75,-63C304.13,-63 295.48,-63 287.16,-63"/>
<polygon fill="#63b8ff" stroke="#63b8ff" points="312.85,-66.5 322.85,-63 312.85,-59.5 312.85,-66.5"/>
</a>
</g>
</g>
<!-- Node23 -->
<g id="Node000023" class="node">
<title>Node23</title>
<g id="a_Node000023"><a xlink:href="classmqtt_1_1mqttbroker_1_1lib_1_1Mqtt.html#a35dd670ca3b7d67cffbbce1cf7c71ffb" target="_top" xlink:title=" ">
<polygon fill="white" stroke="#666666" points="123,-126 5,-126 5,-96 123,-96 123,-126"/>
<text text-anchor="start" x="13" y="-114" font-family="Helvetica,sans-Serif" font-size="10.00">mqtt::mqttbroker::lib</text>
<text text-anchor="middle" x="64" y="-103" font-family="Helvetica,sans-Serif" font-size="10.00">::Mqtt::onPublish</text>
</a>
</g>
</g>
<!-- Node22&#45;&gt;Node23 -->
<g id="edge26_Node000022_Node000023" class="edge">
<title>Node22&#45;&gt;Node23</title>
<g id="a_edge26_Node000022_Node000023"><a xlink:title=" ">
<path fill="none" stroke="#63b8ff" d="M164.47,-81.07C148.11,-85.99 130.57,-91.27 114.85,-96"/>
<polygon fill="#63b8ff" stroke="#63b8ff" points="165.9,-84.29 174.47,-78.06 163.89,-77.59 165.9,-84.29"/>
</a>
</g>
</g>
<!-- Node24 -->
<g id="Node000024" class="node">
<title>Node24</title>
<g id="a_Node000024"><a xlink:href="classmqtt_1_1mqttintegrator_1_1lib_1_1Mqtt.html#a211408365844787ce77340f454b9cbd0" target="_top" xlink:title=" ">
<polygon fill="white" stroke="#666666" points="122.5,-78 5.5,-78 5.5,-48 122.5,-48 122.5,-78"/>
<text text-anchor="start" x="13.5" y="-66" font-family="Helvetica,sans-Serif" font-size="10.00">mqtt::mqttintegrator</text>
<text text-anchor="middle" x="64" y="-55" font-family="Helvetica,sans-Serif" font-size="10.00">::lib::Mqtt::onPublish</text>
</a>
</g>
</g>
<!-- Node22&#45;&gt;Node24 -->
<g id="edge27_Node000022_Node000024" class="edge">
<title>Node22&#45;&gt;Node24</title>
<g id="a_edge27_Node000022_Node000024"><a xlink:title=" ">
<path fill="none" stroke="#63b8ff" d="M153.52,-63C143.21,-63 132.7,-63 122.7,-63"/>
<polygon fill="#63b8ff" stroke="#63b8ff" points="153.74,-66.5 163.74,-63 153.74,-59.5 153.74,-66.5"/>
</a>
</g>
</g>
<!-- Node25 -->
<g id="Node000025" class="node">
<title>Node25</title>
<g id="a_Node000025"><a xlink:href="classmqtt_1_1mqttbroker_1_1lib_1_1Mqtt.html#a3426a2c9d850ad17f0134580a09d9527" target="_top" xlink:title=" ">
<polygon fill="white" stroke="#666666" points="128,-30 0,-30 0,0 128,0 128,-30"/>
<text text-anchor="start" x="8" y="-18" font-family="Helvetica,sans-Serif" font-size="10.00">mqtt::mqttbroker::lib</text>
<text text-anchor="middle" x="64" y="-7" font-family="Helvetica,sans-Serif" font-size="10.00">::Mqtt::publishMapping</text>
</a>
</g>
</g>
<!-- Node22&#45;&gt;Node25 -->
<g id="edge28_Node000022_Node000025" class="edge">
<title>Node22&#45;&gt;Node25</title>
<g id="a_edge28_Node000022_Node000025"><a xlink:title=" ">
<path fill="none" stroke="#63b8ff" d="M164.47,-44.93C148.11,-40.01 130.57,-34.73 114.85,-30"/>
<polygon fill="#63b8ff" stroke="#63b8ff" points="163.89,-48.41 174.47,-47.94 165.9,-41.71 163.89,-48.41"/>
</a>
</g>
</g>
<!-- Node29 -->
<g id="Node000029" class="node">
<title>Node29</title>
<g id="a_Node000029"><a xlink:href="classinja_1_1Parser.html#ae1cebbe51ef6a93fc3d448263f9bf1e3" target="_top" xlink:title=" ">
<polygon fill="white" stroke="#666666" points="953,-186 843,-186 843,-156 953,-156 953,-186"/>
<text text-anchor="start" x="851" y="-174" font-family="Helvetica,sans-Serif" font-size="10.00">inja::Parser::add_to</text>
<text text-anchor="middle" x="898" y="-163" font-family="Helvetica,sans-Serif" font-size="10.00">_template_storage</text>
</a>
</g>
</g>
<!-- Node28&#45;&gt;Node29 -->
<g id="edge32_Node000028_Node000029" class="edge">
<title>Node28&#45;&gt;Node29</title>
<g id="a_edge32_Node000028_Node000029"><a xlink:title=" ">
<path fill="none" stroke="#63b8ff" d="M999.42,-171C984.23,-171 968.09,-171 953.28,-171"/>
<polygon fill="#63b8ff" stroke="#63b8ff" points="999.74,-174.5 1009.74,-171 999.74,-167.5 999.74,-174.5"/>
</a>
</g>
</g>
<!-- Node31 -->
<g id="Node000031" class="node">
<title>Node31</title>
<g id="a_Node000031"><a xlink:href="classinja_1_1Environment.html#aa46ccc27cc803933e0bfc9f58bba389c" target="_top" xlink:title=" ">
<polygon fill="white" stroke="#666666" points="952.5,-138 843.5,-138 843.5,-108 952.5,-108 952.5,-138"/>
<text text-anchor="start" x="851.5" y="-126" font-family="Helvetica,sans-Serif" font-size="10.00">inja::Environment::</text>
<text text-anchor="middle" x="898" y="-115" font-family="Helvetica,sans-Serif" font-size="10.00">parse_template</text>
</a>
</g>
</g>
<!-- Node28&#45;&gt;Node31 -->
<g id="edge35_Node000028_Node000031" class="edge">
<title>Node28&#45;&gt;Node31</title>
<g id="a_edge35_Node000028_Node000031"><a xlink:title=" ">
<path fill="none" stroke="#63b8ff" d="M1000.5,-153.07C983.75,-148.11 965.75,-142.78 949.63,-138"/>
<polygon fill="#63b8ff" stroke="#63b8ff" points="999.6,-156.46 1010.19,-155.94 1001.59,-149.75 999.6,-156.46"/>
</a>
</g>
</g>
<!-- Node29&#45;&gt;Node30 -->
<g id="edge33_Node000029_Node000030" class="edge">
<title>Node29&#45;&gt;Node30</title>
<g id="a_edge33_Node000029_Node000030"><a xlink:title=" ">
<path fill="none" stroke="#63b8ff" d="M835.77,-188.88C820.85,-193.24 805.05,-197.86 790.65,-202.06"/>
<polygon fill="#63b8ff" stroke="#63b8ff" points="836.81,-192.23 845.43,-186.06 834.85,-185.51 836.81,-192.23"/>
</a>
</g>
</g>
<!-- Node30&#45;&gt;Node16 -->
<g id="edge34_Node000030_Node000016" class="edge">
<title>Node30&#45;&gt;Node16</title>
<g id="a_edge34_Node000030_Node000016"><a xlink:title=" ">
<path fill="none" stroke="#63b8ff" d="M801,-213.89C876.43,-209.98 1008.17,-202.81 1121,-195 1132.61,-194.2 1144.98,-193.26 1156.91,-192.32"/>
<polygon fill="#63b8ff" stroke="#63b8ff" points="800.55,-210.41 790.74,-214.42 800.91,-217.4 800.55,-210.41"/>
</a>
</g>
</g>
<!-- Node32 -->
<g id="Node000032" class="node">
<title>Node32</title>
<g id="a_Node000032"><a xlink:href="classinja_1_1Environment.html#a988701e4eb7fef51f2a3bd5ec74dd156" target="_top" xlink:title=" ">
<polygon fill="white" stroke="#666666" points="793,-136 684,-136 684,-106 793,-106 793,-136"/>
<text text-anchor="start" x="692" y="-124" font-family="Helvetica,sans-Serif" font-size="10.00">inja::Environment::</text>
<text text-anchor="middle" x="738.5" y="-113" font-family="Helvetica,sans-Serif" font-size="10.00">parse_file</text>
</a>
</g>
</g>
<!-- Node31&#45;&gt;Node32 -->
<g id="edge36_Node000031_Node000032" class="edge">
<title>Node31&#45;&gt;Node32</title>
<g id="a_edge36_Node000031_Node000032"><a xlink:title=" ">
<path fill="none" stroke="#63b8ff" d="M833.19,-122.19C819.86,-122.02 805.93,-121.84 793.02,-121.68"/>
<polygon fill="#63b8ff" stroke="#63b8ff" points="833.19,-125.69 843.24,-122.32 833.28,-118.69 833.19,-125.69"/>
</a>
</g>
</g>
<!-- Node33 -->
<g id="Node000033" class="node">
<title>Node33</title>
<g id="a_Node000033"><a xlink:href="classinja_1_1Environment.html#aaefdd9061b23f1764056689fe8c31e30" target="_top" xlink:title=" ">
<polygon fill="white" stroke="#666666" points="793,-184 684,-184 684,-154 793,-154 793,-184"/>
<text text-anchor="start" x="692" y="-172" font-family="Helvetica,sans-Serif" font-size="10.00">inja::Environment::</text>
<text text-anchor="middle" x="738.5" y="-161" font-family="Helvetica,sans-Serif" font-size="10.00">render_file</text>
</a>
</g>
</g>
<!-- Node31&#45;&gt;Node33 -->
<g id="edge37_Node000031_Node000033" class="edge">
<title>Node31&#45;&gt;Node33</title>
<g id="a_edge37_Node000031_Node000033"><a xlink:title=" ">
<path fill="none" stroke="#63b8ff" d="M835.82,-140.87C820.98,-145.2 805.26,-149.79 790.92,-153.98"/>
<polygon fill="#63b8ff" stroke="#63b8ff" points="836.81,-144.23 845.43,-138.06 834.85,-137.51 836.81,-144.23"/>
</a>
</g>
</g>
<!-- Node34 -->
<g id="Node000034" class="node">
<title>Node34</title>
<g id="a_Node000034"><a xlink:href="mqttbroker_8cpp.html#a049b5c955e78f60110433ce59da71607" target="_top" xlink:title=" ">
<polygon fill="white" stroke="#666666" points="626,-152.5 528,-152.5 528,-133.5 626,-133.5 626,-152.5"/>
<text text-anchor="middle" x="577" y="-140.5" font-family="Helvetica,sans-Serif" font-size="10.00">getDetailedPage</text>
</a>
</g>
</g>
<!-- Node33&#45;&gt;Node34 -->
<g id="edge38_Node000033_Node000034" class="edge">
<title>Node33&#45;&gt;Node34</title>
<g id="a_edge38_Node000033_Node000034"><a xlink:title=" ">
<path fill="none" stroke="#63b8ff" d="M673.66,-158.59C657.78,-156.01 641.03,-153.27 626.05,-150.83"/>
<polygon fill="#63b8ff" stroke="#63b8ff" points="673.51,-162.12 683.95,-160.27 674.64,-155.21 673.51,-162.12"/>
</a>
</g>
</g>
<!-- Node37 -->
<g id="Node000037" class="node">
<title>Node37</title>
<g id="a_Node000037"><a xlink:href="mqttbroker_8cpp.html#ad9d315824898337732fd1b67f05846c9" target="_top" xlink:title=" ">
<polygon fill="white" stroke="#666666" points="628.5,-115.5 525.5,-115.5 525.5,-96.5 628.5,-96.5 628.5,-115.5"/>
<text text-anchor="middle" x="577" y="-103.5" font-family="Helvetica,sans-Serif" font-size="10.00">getOverviewPage</text>
</a>
</g>
</g>
<!-- Node33&#45;&gt;Node37 -->
<g id="edge41_Node000033_Node000037" class="edge">
<title>Node33&#45;&gt;Node37</title>
<g id="a_edge41_Node000033_Node000037"><a xlink:title=" ">
<path fill="none" stroke="#63b8ff" d="M693.1,-149.52C690,-148.03 686.94,-146.51 684,-145 667.53,-136.53 665.13,-131.04 648,-124 639.99,-120.71 631.21,-117.88 622.67,-115.51"/>
<polygon fill="#63b8ff" stroke="#63b8ff" points="691.88,-152.82 702.42,-153.91 694.86,-146.48 691.88,-152.82"/>
</a>
</g>
</g>
<!-- Node38 -->
<g id="Node000038" class="node">
<title>Node38</title>
<g id="a_Node000038"><a xlink:href="mqttbroker_8cpp.html#adaabce72814f1277ee38fab80aaa1f34" target="_top" xlink:title=" ">
<polygon fill="white" stroke="#666666" points="644,-189.5 510,-189.5 510,-170.5 644,-170.5 644,-189.5"/>
<text text-anchor="middle" x="577" y="-177.5" font-family="Helvetica,sans-Serif" font-size="10.00">getRedirectSpinnerPage</text>
</a>
</g>
</g>
<!-- Node33&#45;&gt;Node38 -->
<g id="edge43_Node000033_Node000038" class="edge">
<title>Node33&#45;&gt;Node38</title>
<g id="a_edge43_Node000033_Node000038"><a xlink:title=" ">
<path fill="none" stroke="#63b8ff" d="M673.9,-173.39C664.12,-174.06 654,-174.76 644.17,-175.44"/>
<polygon fill="#63b8ff" stroke="#63b8ff" points="674.21,-176.87 683.95,-172.69 673.73,-169.89 674.21,-176.87"/>
</a>
</g>
</g>
<!-- Node39 -->
<g id="Node000039" class="node">
<title>Node39</title>
<g id="a_Node000039"><a xlink:href="classinja_1_1Environment.html#a6e6c345cd66ebdfe8a9d47d59efb5e84" target="_top" xlink:title=" ">
<polygon fill="white" stroke="#666666" points="648,-286 506,-286 506,-256 648,-256 648,-286"/>
<text text-anchor="start" x="514" y="-274" font-family="Helvetica,sans-Serif" font-size="10.00">inja::Environment::</text>
<text text-anchor="middle" x="577" y="-263" font-family="Helvetica,sans-Serif" font-size="10.00">render_file_with_json_file</text>
</a>
</g>
</g>
<!-- Node33&#45;&gt;Node39 -->
<g id="edge45_Node000033_Node000039" class="edge">
<title>Node33&#45;&gt;Node39</title>
<g id="a_edge45_Node000033_Node000039"><a xlink:title=" ">
<path fill="none" stroke="#63b8ff" d="M688.67,-189.39C687.05,-190.54 685.49,-191.74 684,-193 661.98,-211.63 670.85,-229.39 648,-247 643.52,-250.45 638.52,-253.42 633.3,-255.98"/>
<polygon fill="#63b8ff" stroke="#63b8ff" points="690.54,-192.35 697.15,-184.07 686.82,-186.42 690.54,-192.35"/>
</a>
</g>
</g>
<!-- Node40 -->
<g id="Node000040" class="node">
<title>Node40</title>
<g id="a_Node000040"><a xlink:href="classinja_1_1Environment.html#ab9334d7f4ebb85f36dcc27e1ecae2f3d" target="_top" xlink:title=" ">
<polygon fill="white" stroke="#666666" points="631.5,-238 522.5,-238 522.5,-208 631.5,-208 631.5,-238"/>
<text text-anchor="start" x="530.5" y="-226" font-family="Helvetica,sans-Serif" font-size="10.00">inja::Environment::</text>
<text text-anchor="middle" x="577" y="-215" font-family="Helvetica,sans-Serif" font-size="10.00">write</text>
</a>
</g>
</g>
<!-- Node33&#45;&gt;Node40 -->
<g id="edge46_Node000033_Node000040" class="edge">
<title>Node33&#45;&gt;Node40</title>
<g id="a_edge46_Node000033_Node000040"><a xlink:title=" ">
<path fill="none" stroke="#63b8ff" d="M683.53,-187.27C663.67,-194 641.4,-201.53 622.47,-207.95"/>
<polygon fill="#63b8ff" stroke="#63b8ff" points="684.72,-190.56 693.07,-184.04 682.48,-183.93 684.72,-190.56"/>
</a>
</g>
</g>
<!-- Node35 -->
<g id="Node000035" class="node">
<title>Node35</title>
<g id="a_Node000035"><a xlink:href="mqttbroker_8cpp.html#a6a886a53c0261b1fa115609c34e8e607" target="_top" xlink:title=" ">
<polygon fill="white" stroke="#666666" points="429,-152.5 364,-152.5 364,-133.5 429,-133.5 429,-152.5"/>
<text text-anchor="middle" x="396.5" y="-140.5" font-family="Helvetica,sans-Serif" font-size="10.00">getRouter</text>
</a>
</g>
</g>
<!-- Node34&#45;&gt;Node35 -->
<g id="edge39_Node000034_Node000035" class="edge">
<title>Node34&#45;&gt;Node35</title>
<g id="a_edge39_Node000034_Node000035"><a xlink:title=" ">
<path fill="none" stroke="#63b8ff" d="M517.54,-143C488.14,-143 453.68,-143 429.23,-143"/>
<polygon fill="#63b8ff" stroke="#63b8ff" points="517.7,-146.5 527.7,-143 517.7,-139.5 517.7,-146.5"/>
</a>
</g>
</g>
<!-- Node36 -->
<g id="Node000036" class="node">
<title>Node36</title>
<g id="a_Node000036"><a xlink:href="mqttbroker_8cpp.html#a0ddf1224851353fc92bfbff6f499fa97" target="_top" xlink:title=" ">
<polygon fill="white" stroke="#666666" points="246,-152.5 205,-152.5 205,-133.5 246,-133.5 246,-152.5"/>
<text text-anchor="middle" x="225.5" y="-140.5" font-family="Helvetica,sans-Serif" font-size="10.00">main</text>
</a>
</g>
</g>
<!-- Node35&#45;&gt;Node36 -->
<g id="edge40_Node000035_Node000036" class="edge">
<title>Node35&#45;&gt;Node36</title>
<g id="a_edge40_Node000035_Node000036"><a xlink:title=" ">
<path fill="none" stroke="#63b8ff" d="M353.5,-143C319.15,-143 272.14,-143 246.02,-143"/>
<polygon fill="#63b8ff" stroke="#63b8ff" points="353.71,-146.5 363.71,-143 353.71,-139.5 353.71,-146.5"/>
</a>
</g>
</g>
<!-- Node37&#45;&gt;Node35 -->
<g id="edge42_Node000037_Node000035" class="edge">
<title>Node37&#45;&gt;Node35</title>
<g id="a_edge42_Node000037_Node000035"><a xlink:title=" ">
<path fill="none" stroke="#63b8ff" d="M520.13,-117.58C490.2,-123.79 454.41,-131.2 429.25,-136.42"/>
<polygon fill="#63b8ff" stroke="#63b8ff" points="520.95,-120.99 530.03,-115.53 519.53,-114.13 520.95,-120.99"/>
</a>
</g>
</g>
<!-- Node38&#45;&gt;Node35 -->
<g id="edge44_Node000038_Node000035" class="edge">
<title>Node38&#45;&gt;Node35</title>
<g id="a_edge44_Node000038_Node000035"><a xlink:title=" ">
<path fill="none" stroke="#63b8ff" d="M520.13,-168.42C490.2,-162.21 454.41,-154.8 429.25,-149.58"/>
<polygon fill="#63b8ff" stroke="#63b8ff" points="519.53,-171.87 530.03,-170.47 520.95,-165.01 519.53,-171.87"/>
</a>
</g>
</g>
<!-- Node41 -->
<g id="Node000041" class="node">
<title>Node41</title>
<g id="a_Node000041"><a xlink:href="classinja_1_1Environment.html#ad3e8c39b341641a872e62010693c27c3" target="_top" xlink:title=" ">
<polygon fill="white" stroke="#666666" points="453.5,-238 339.5,-238 339.5,-208 453.5,-208 453.5,-238"/>
<text text-anchor="start" x="347.5" y="-226" font-family="Helvetica,sans-Serif" font-size="10.00">inja::Environment::</text>
<text text-anchor="middle" x="396.5" y="-215" font-family="Helvetica,sans-Serif" font-size="10.00">write_with_json_file</text>
</a>
</g>
</g>
<!-- Node40&#45;&gt;Node41 -->
<g id="edge47_Node000040_Node000041" class="edge">
<title>Node40&#45;&gt;Node41</title>
<g id="a_edge47_Node000040_Node000041"><a xlink:title=" ">
<path fill="none" stroke="#63b8ff" d="M512.33,-223C493.22,-223 472.41,-223 453.81,-223"/>
<polygon fill="#63b8ff" stroke="#63b8ff" points="512.44,-226.5 522.44,-223 512.44,-219.5 512.44,-226.5"/>
</a>
</g>
</g>
</g>
</svg>

<g id="navigator" transform="translate(0 0)" fill="#404254">
  <rect fill="#f2f5e9" fill-opacity="0.5" stroke="#606060" stroke-width=".5" x="0" y="0" width="60" height="60"/>
  <use id="zoomplus" xlink:href="#zoomPlus" x="17" y="9" onmousedown="handleZoom(evt,'in')"/>
  <use id="zoomminus" xlink:href="#zoomMin" x="42" y="9" onmousedown="handleZoom(evt,'out')"/>
  <use id="reset" xlink:href="#resetDef" x="30" y="36" onmousedown="handleReset()"/>
   <use id="arrowup" xlink:href="#arrowUp" x="0" y="0" onmousedown="handlePan(0,-1)"/>
  <use id="arrowright" xlink:href="#arrowRight" x="0" y="0" onmousedown="handlePan(1,0)"/>
  <use id="arrowdown" xlink:href="#arrowDown" x="0" y="0" onmousedown="handlePan(0,1)"/>
  <use id="arrowleft" xlink:href="#arrowLeft" x="0" y="0" onmousedown="handlePan(-1,0)"/>
</g>
<svg viewBox="0 0 15 15" width="100%" height="30px" preserveAspectRatio="xMaxYMin meet">
 <g id="arrow_out" transform="scale(0.3 0.3)">
  <a xlink:href="structinja_1_1FunctionStorage_1_1FunctionData_a7e038999d61d736eb2868f64e4820ad7_icgraph_org.svg" target="_base">
   <rect id="button" ry="5" rx="5" y="6" x="6" height="38" width="38"
        fill="#f2f5e9" fill-opacity="0.5" stroke="#606060" stroke-width="1.0"/>
   <path id="arrow"
     d="M 11.500037,31.436501 C 11.940474,20.09759 22.043105,11.32322 32.158766,21.979434 L 37.068811,17.246167 C 37.068811,17.246167 37.088388,32 37.088388,32 L 22.160133,31.978069 C 22.160133,31.978069 26.997745,27.140456 26.997745,27.140456 C 18.528582,18.264221 13.291696,25.230495 11.500037,31.436501 z"
     style="fill:#404040;"/>
  </a>
 </g>
</svg>

<style type='text/css'>
<![CDATA[
[data-mouse-over-selected='false'] { opacity: 0.7; }
[data-mouse-over-selected='true']  { opacity: 1.0; }
]]>
</style>
<script type="application/ecmascript"><![CDATA[
document.addEventListener('DOMContentLoaded', (event) => {
  highlightEdges();
  highlightAdjacentNodes();
});
]]></script>
</svg>
