<?xml version="1.0" encoding="UTF-8" standalone="no"?>
<!DOCTYPE svg PUBLIC "-//W3C//DTD SVG 1.1//EN"
 "http://www.w3.org/Graphics/SVG/1.1/DTD/svg11.dtd">
<!-- Generated by graphviz version 2.42.4 (0)
 -->
<!-- Title: inja::LexerConfig Pages: 1 -->
<svg width="172pt" height="314pt"
 viewBox="0.00 0.00 172.00 314.00" xmlns="http://www.w3.org/2000/svg" xmlns:xlink="http://www.w3.org/1999/xlink">
<g id="graph0" class="graph" transform="scale(1 1) rotate(0) translate(4 310)">
<title>inja::LexerConfig</title>
<!-- Node1 -->
<g id="Node000001" class="node">
<title>Node1</title>
<g id="a_Node000001"><a xlink:title="Class for lexer configuration.">
<polygon fill="#999999" stroke="transparent" points="94,-19 2,-19 2,0 94,0 94,-19"/>
<text text-anchor="start" x="6.5" y="-6.5" font-family="Helvetica,sans-Serif" font-size="10.00">inja::LexerConfig</text>
<polygon fill="none" stroke="#666666" points="2,0 2,-19 94,-19 94,0 2,0"/>
</a>
</g>
</g>
<!-- Node2 -->
<g id="Node000002" class="node">
<title>Node2</title>
<g id="a_Node000002"><a xlink:title=" ">
<polygon fill="white" stroke="transparent" points="77,-239 19,-239 19,-220 77,-220 77,-239"/>
<text text-anchor="start" x="23.5" y="-226.5" font-family="Helvetica,sans-Serif" font-size="10.00">std::string</text>
<polygon fill="none" stroke="#666666" points="19,-220 19,-239 77,-239 77,-220 19,-220"/>
</a>
</g>
</g>
<!-- Node2&#45;&gt;Node1 -->
<g id="edge1_Node000001_Node000002" class="edge">
<title>Node2&#45;&gt;Node1</title>
<g id="a_edge1_Node000001_Node000002"><a xlink:title=" ">
<path fill="none" stroke="#63b8ff" d="M48,-219.95C48,-188.42 48,-78.03 48,-31.47"/>
<polygon fill="none" stroke="#63b8ff" points="48,-31.22 44,-25.22 48,-19.22 52,-25.22 48,-31.22"/>
</a>
</g>
<text text-anchor="middle" x="106" y="-194" font-family="Helvetica,sans-Serif" font-size="10.00" fill="grey"> +comment_close</text>
<text text-anchor="start" x="48" y="-183" font-family="Helvetica,sans-Serif" font-size="10.00" fill="grey">+comment_close_force</text>
<text text-anchor="middle" x="106" y="-172" font-family="Helvetica,sans-Serif" font-size="10.00" fill="grey">_rstrip</text>
<text text-anchor="middle" x="106" y="-161" font-family="Helvetica,sans-Serif" font-size="10.00" fill="grey">+comment_open</text>
<text text-anchor="start" x="48" y="-150" font-family="Helvetica,sans-Serif" font-size="10.00" fill="grey">+comment_open_force</text>
<text text-anchor="middle" x="106" y="-139" font-family="Helvetica,sans-Serif" font-size="10.00" fill="grey">_lstrip</text>
<text text-anchor="middle" x="106" y="-128" font-family="Helvetica,sans-Serif" font-size="10.00" fill="grey">+expression_close</text>
<text text-anchor="start" x="48" y="-117" font-family="Helvetica,sans-Serif" font-size="10.00" fill="grey">+expression_close</text>
<text text-anchor="middle" x="106" y="-106" font-family="Helvetica,sans-Serif" font-size="10.00" fill="grey">_force_rstrip</text>
<text text-anchor="middle" x="106" y="-95" font-family="Helvetica,sans-Serif" font-size="10.00" fill="grey">+expression_open</text>
<text text-anchor="start" x="48" y="-84" font-family="Helvetica,sans-Serif" font-size="10.00" fill="grey">+expression_open</text>
<text text-anchor="middle" x="106" y="-73" font-family="Helvetica,sans-Serif" font-size="10.00" fill="grey">_force_lstrip</text>
<text text-anchor="middle" x="106" y="-62" font-family="Helvetica,sans-Serif" font-size="10.00" fill="grey">+line_statement</text>
<text text-anchor="middle" x="106" y="-51" font-family="Helvetica,sans-Serif" font-size="10.00" fill="grey">+open_chars</text>
<text text-anchor="middle" x="106" y="-40" font-family="Helvetica,sans-Serif" font-size="10.00" fill="grey">...</text>
</g>
<!-- Node3 -->
<g id="Node000003" class="node">
<title>Node3</title>
<g id="a_Node000003"><a xlink:title=" ">
<polygon fill="white" stroke="transparent" points="96,-306 0,-306 0,-276 96,-276 96,-306"/>
<text text-anchor="start" x="4" y="-294" font-family="Helvetica,sans-Serif" font-size="10.00">std::basic_string&lt;</text>
<text text-anchor="start" x="29.5" y="-283" font-family="Helvetica,sans-Serif" font-size="10.00"> Char &gt;</text>
<polygon fill="none" stroke="#666666" points="0,-276 0,-306 96,-306 96,-276 0,-276"/>
</a>
</g>
</g>
<!-- Node3&#45;&gt;Node2 -->
<g id="edge2_Node000002_Node000003" class="edge">
<title>Node3&#45;&gt;Node2</title>
<g id="a_edge2_Node000002_Node000003"><a xlink:title=" ">
<path fill="none" stroke="#63b8ff" d="M48,-265.79C48,-256.36 48,-246.15 48,-239.16"/>
<polygon fill="none" stroke="#63b8ff" points="44.5,-265.9 48,-275.9 51.5,-265.9 44.5,-265.9"/>
</a>
</g>
</g>
</g>
</svg>
