<?xml version="1.0" encoding="UTF-8" standalone="no"?>
<!DOCTYPE svg PUBLIC "-//W3C//DTD SVG 1.1//EN"
 "http://www.w3.org/Graphics/SVG/1.1/DTD/svg11.dtd">
<!-- Generated by graphviz version 14.1.2 (0)
 -->
<!-- Title: root_schema::schema_file Pages: 1 -->
<svg width="373pt" height="289pt"
 viewBox="0.00 0.00 373.00 289.00" xmlns="http://www.w3.org/2000/svg" xmlns:xlink="http://www.w3.org/1999/xlink">
<g id="graph0" class="graph" transform="scale(1 1) rotate(0) translate(4 284.5)">
<title>root_schema::schema_file</title>
<!-- Node1 -->
<g id="Node000001" class="node">
<title>Node1</title>
<g id="a_Node000001"><a xlink:title=" ">
<polygon fill="#999999" stroke="none" points="244.25,-20.75 108,-20.75 108,0 244.25,0 244.25,-20.75"/>
<text xml:space="preserve" text-anchor="start" x="112" y="-7.25" font-family="Helvetica,sans-Serif" font-size="10.00">root_schema::schema_file</text>
<polygon fill="none" stroke="#666666" points="108,0 108,-20.75 244.25,-20.75 244.25,0 108,0"/>
</a>
</g>
</g>
<!-- Node2 -->
<g id="Node000002" class="node">
<title>Node2</title>
<g id="a_Node000002"><a xlink:title=" ">
<polygon fill="white" stroke="none" points="336,-115.38 180.25,-115.38 180.25,-81.88 336,-81.88 336,-115.38"/>
<text xml:space="preserve" text-anchor="start" x="184.25" y="-101.88" font-family="Helvetica,sans-Serif" font-size="10.00">std::map&lt; std::string,</text>
<text xml:space="preserve" text-anchor="start" x="184.25" y="-89.12" font-family="Helvetica,sans-Serif" font-size="10.00"> std::shared_ptr&lt; schema &gt; &gt;</text>
<polygon fill="none" stroke="#666666" points="180.25,-81.88 180.25,-115.38 336,-115.38 336,-81.88 180.25,-81.88"/>
</a>
</g>
</g>
<!-- Node2&#45;&gt;Node1 -->
<g id="edge1_Node000001_Node000002" class="edge">
<title>Node2&#45;&gt;Node1</title>
<g id="a_edge1_Node000001_Node000002"><a xlink:title=" ">
<path fill="none" stroke="#63b8ff" d="M249.89,-82.12C242.66,-69.47 231.27,-51.64 218.12,-38.75 214.07,-34.77 209.35,-31.04 204.58,-27.7"/>
<polygon fill="none" stroke="#63b8ff" points="204.45,-27.62 197.24,-27.74 194.36,-21.13 201.57,-21.01 204.45,-27.62"/>
</a>
</g>
<text xml:space="preserve" text-anchor="start" x="236.32" y="-45" font-family="Helvetica,sans-Serif" font-size="10.00" fill="grey">+schemas</text>
</g>
<!-- Node3 -->
<g id="Node000003" class="node">
<title>Node3</title>
<g id="a_Node000003"><a xlink:title=" ">
<polygon fill="white" stroke="none" points="205.5,-203.62 148.75,-203.62 148.75,-182.88 205.5,-182.88 205.5,-203.62"/>
<text xml:space="preserve" text-anchor="start" x="152.75" y="-190.12" font-family="Helvetica,sans-Serif" font-size="10.00">std::string</text>
<polygon fill="none" stroke="#666666" points="148.75,-182.88 148.75,-203.62 205.5,-203.62 205.5,-182.88 148.75,-182.88"/>
</a>
</g>
</g>
<!-- Node3&#45;&gt;Node2 -->
<g id="edge2_Node000002_Node000003" class="edge">
<title>Node3&#45;&gt;Node2</title>
<g id="a_edge2_Node000002_Node000003"><a xlink:title=" ">
<path fill="none" stroke="#63b8ff" d="M185.19,-183.03C196.92,-169.61 219.15,-144.2 235.99,-124.93"/>
<polygon fill="none" stroke="#63b8ff" points="235.97,-124.96 236.91,-117.81 243.87,-115.93 242.93,-123.08 235.97,-124.96"/>
</a>
</g>
<text xml:space="preserve" text-anchor="start" x="225.47" y="-146" font-family="Helvetica,sans-Serif" font-size="10.00" fill="grey">+keys</text>
</g>
<!-- Node6 -->
<g id="Node000006" class="node">
<title>Node6</title>
<g id="a_Node000006"><a xlink:title=" ">
<polygon fill="white" stroke="none" points="161.75,-121.75 28.5,-121.75 28.5,-75.5 161.75,-75.5 161.75,-121.75"/>
<text xml:space="preserve" text-anchor="start" x="32.5" y="-108.25" font-family="Helvetica,sans-Serif" font-size="10.00">std::map&lt; std::string,</text>
<text xml:space="preserve" text-anchor="start" x="32.5" y="-95.5" font-family="Helvetica,sans-Serif" font-size="10.00"> std::shared_ptr&lt; schema</text>
<text xml:space="preserve" text-anchor="start" x="74.5" y="-82.75" font-family="Helvetica,sans-Serif" font-size="10.00">_ref &gt; &gt;</text>
<polygon fill="none" stroke="#666666" points="28.5,-75.5 28.5,-121.75 161.75,-121.75 161.75,-75.5 28.5,-75.5"/>
</a>
</g>
</g>
<!-- Node3&#45;&gt;Node6 -->
<g id="edge6_Node000006_Node000003" class="edge">
<title>Node3&#45;&gt;Node6</title>
<g id="a_edge6_Node000006_Node000003"><a xlink:title=" ">
<path fill="none" stroke="#63b8ff" d="M169.81,-183.19C161.21,-172.61 146.42,-154.67 133.12,-139.75 130.53,-136.84 127.8,-133.83 125.04,-130.85"/>
<polygon fill="none" stroke="#63b8ff" points="125.09,-130.9 118.07,-129.25 116.89,-122.13 123.91,-123.78 125.09,-130.9"/>
</a>
</g>
<text xml:space="preserve" text-anchor="start" x="152.15" y="-146" font-family="Helvetica,sans-Serif" font-size="10.00" fill="grey">+keys</text>
</g>
<!-- Node4 -->
<g id="Node000004" class="node">
<title>Node4</title>
<g id="a_Node000004"><a xlink:title=" ">
<polygon fill="white" stroke="none" points="225,-280.5 129.25,-280.5 129.25,-247 225,-247 225,-280.5"/>
<text xml:space="preserve" text-anchor="start" x="133.25" y="-267" font-family="Helvetica,sans-Serif" font-size="10.00">std::basic_string&lt;</text>
<text xml:space="preserve" text-anchor="start" x="158.75" y="-254.25" font-family="Helvetica,sans-Serif" font-size="10.00"> Char &gt;</text>
<polygon fill="none" stroke="#666666" points="129.25,-247 129.25,-280.5 225,-280.5 225,-247 129.25,-247"/>
</a>
</g>
</g>
<!-- Node4&#45;&gt;Node3 -->
<g id="edge3_Node000003_Node000004" class="edge">
<title>Node4&#45;&gt;Node3</title>
<g id="a_edge3_Node000003_Node000004"><a xlink:title=" ">
<path fill="none" stroke="#63b8ff" d="M177.12,-235.95C177.12,-224.53 177.12,-211.94 177.12,-203.62"/>
<polygon fill="none" stroke="#63b8ff" points="173.63,-235.69 177.13,-245.69 180.63,-235.69 173.63,-235.69"/>
</a>
</g>
</g>
<!-- Node5 -->
<g id="Node000005" class="node">
<title>Node5</title>
<g id="a_Node000005"><a xlink:title=" ">
<polygon fill="white" stroke="none" points="364.88,-203.62 223.38,-203.62 223.38,-182.88 364.88,-182.88 364.88,-203.62"/>
<text xml:space="preserve" text-anchor="start" x="227.38" y="-190.12" font-family="Helvetica,sans-Serif" font-size="10.00">std::shared_ptr&lt; schema &gt;</text>
<polygon fill="none" stroke="#666666" points="223.38,-182.88 223.38,-203.62 364.88,-203.62 364.88,-182.88 223.38,-182.88"/>
</a>
</g>
</g>
<!-- Node5&#45;&gt;Node2 -->
<g id="edge4_Node000002_Node000005" class="edge">
<title>Node5&#45;&gt;Node2</title>
<g id="a_edge4_Node000002_Node000005"><a xlink:title=" ">
<path fill="none" stroke="#63b8ff" d="M290.54,-183.03C285.54,-170.17 276.26,-146.28 268.9,-127.36"/>
<polygon fill="none" stroke="#63b8ff" points="268.87,-127.27 262.97,-123.13 264.52,-116.09 270.43,-120.23 268.87,-127.27"/>
</a>
</g>
<text xml:space="preserve" text-anchor="start" x="283.41" y="-146" font-family="Helvetica,sans-Serif" font-size="10.00" fill="grey">+elements</text>
</g>
<!-- Node6&#45;&gt;Node1 -->
<g id="edge5_Node000001_Node000006" class="edge">
<title>Node6&#45;&gt;Node1</title>
<g id="a_edge5_Node000001_Node000006"><a xlink:title=" ">
<path fill="none" stroke="#63b8ff" d="M115.33,-75.74C125.63,-64.63 138.38,-50.93 149.88,-38.75 152.55,-35.92 155.38,-32.94 158.16,-30.03"/>
<polygon fill="none" stroke="#63b8ff" points="158.17,-30.03 159.43,-22.93 166.48,-21.37 165.21,-28.47 158.17,-30.03"/>
</a>
</g>
<text xml:space="preserve" text-anchor="start" x="152.88" y="-45" font-family="Helvetica,sans-Serif" font-size="10.00" fill="grey">+unresolved</text>
</g>
<!-- Node7 -->
<g id="Node000007" class="node">
<title>Node7</title>
<g id="a_Node000007"><a xlink:title=" ">
<polygon fill="white" stroke="none" points="130.25,-210 0,-210 0,-176.5 130.25,-176.5 130.25,-210"/>
<text xml:space="preserve" text-anchor="start" x="4" y="-196.5" font-family="Helvetica,sans-Serif" font-size="10.00">std::shared_ptr&lt; schema</text>
<text xml:space="preserve" text-anchor="start" x="50.12" y="-183.75" font-family="Helvetica,sans-Serif" font-size="10.00">_ref &gt;</text>
<polygon fill="none" stroke="#666666" points="0,-176.5 0,-210 130.25,-210 130.25,-176.5 0,-176.5"/>
</a>
</g>
</g>
<!-- Node7&#45;&gt;Node6 -->
<g id="edge7_Node000006_Node000007" class="edge">
<title>Node7&#45;&gt;Node6</title>
<g id="a_edge7_Node000006_Node000007"><a xlink:title=" ">
<path fill="none" stroke="#63b8ff" d="M66.06,-176.75C67.04,-166.12 69.05,-151.8 73.12,-139.75 73.88,-137.53 74.74,-135.29 75.7,-133.07"/>
<polygon fill="none" stroke="#63b8ff" points="75.69,-133.08 74.72,-125.93 80.95,-122.3 81.91,-129.44 75.69,-133.08"/>
</a>
</g>
<text xml:space="preserve" text-anchor="start" x="76.12" y="-146" font-family="Helvetica,sans-Serif" font-size="10.00" fill="grey">+elements</text>
</g>
</g>
</svg>
