<?xml version="1.0" encoding="UTF-8" standalone="no"?>
<!DOCTYPE svg PUBLIC "-//W3C//DTD SVG 1.1//EN"
 "http://www.w3.org/Graphics/SVG/1.1/DTD/svg11.dtd">
<!-- Generated by graphviz version 14.1.2 (0)
 -->
<!-- Title: inja::Template::Template Pages: 1 -->
<svg width="2152pt" height="270pt"
 viewBox="0.00 0.00 2152.00 270.00" xmlns="http://www.w3.org/2000/svg" xmlns:xlink="http://www.w3.org/1999/xlink">
<g id="graph0" class="graph" transform="scale(1 1) rotate(0) translate(4 265.88)">
<title>inja::Template::Template</title>
<!-- Node1 -->
<g id="Node000001" class="node">
<title>Node1</title>
<g id="a_Node000001"><a xlink:title=" ">
<polygon fill="#999999" stroke="#666666" points="2144,-124.12 2008,-124.12 2008,-103.38 2144,-103.38 2144,-124.12"/>
<text xml:space="preserve" text-anchor="middle" x="2076" y="-110.62" font-family="Helvetica,sans-Serif" font-size="10.00">inja::Template::Template</text>
</a>
</g>
</g>
<!-- Node2 -->
<g id="Node000002" class="node">
<title>Node2</title>
<g id="a_Node000002"><a xlink:href="classinja_1_1Parser.html#aa756be380c1083f47c6bd774eb3c8c38" target="_top" xlink:title=" ">
<polygon fill="white" stroke="#666666" points="1972,-130.5 1862.25,-130.5 1862.25,-97 1972,-97 1972,-130.5"/>
<text xml:space="preserve" text-anchor="start" x="1870.25" y="-117" font-family="Helvetica,sans-Serif" font-size="10.00">inja::Parser::add_to</text>
<text xml:space="preserve" text-anchor="middle" x="1917.12" y="-104.25" font-family="Helvetica,sans-Serif" font-size="10.00">_template_storage</text>
</a>
</g>
</g>
<!-- Node1&#45;&gt;Node2 -->
<g id="edge1_Node000001_Node000002" class="edge">
<title>Node1&#45;&gt;Node2</title>
<g id="a_edge1_Node000001_Node000002"><a xlink:title=" ">
<path fill="none" stroke="#63b8ff" d="M1996.16,-113.75C1988.07,-113.75 1979.99,-113.75 1972.26,-113.75"/>
<polygon fill="#63b8ff" stroke="#63b8ff" points="1996.05,-117.25 2006.05,-113.75 1996.05,-110.25 1996.05,-117.25"/>
</a>
</g>
</g>
<!-- Node5 -->
<g id="Node000005" class="node">
<title>Node5</title>
<g id="a_Node000005"><a xlink:href="classinja_1_1Parser.html#ae9cf060e992d2a12b7fd47b346d8bd64" target="_top" xlink:title=" ">
<polygon fill="white" stroke="#666666" points="1522.75,-184.12 1419,-184.12 1419,-163.38 1522.75,-163.38 1522.75,-184.12"/>
<text xml:space="preserve" text-anchor="middle" x="1470.88" y="-170.62" font-family="Helvetica,sans-Serif" font-size="10.00">inja::Parser::parse</text>
</a>
</g>
</g>
<!-- Node1&#45;&gt;Node5 -->
<g id="edge29_Node000001_Node000005" class="edge">
<title>Node1&#45;&gt;Node5</title>
<g id="a_edge29_Node000001_Node000005"><a xlink:title=" ">
<path fill="none" stroke="#63b8ff" d="M2025.82,-127.42C2008.86,-131.8 1989.68,-136.38 1972,-139.75 1810.22,-170.6 1614.31,-174.42 1523.15,-174.31"/>
<polygon fill="#63b8ff" stroke="#63b8ff" points="2026.35,-130.9 2035.14,-124.97 2024.57,-124.13 2026.35,-130.9"/>
</a>
</g>
</g>
<!-- Node20 -->
<g id="Node000020" class="node">
<title>Node20</title>
<g id="a_Node000020"><a xlink:href="classinja_1_1Environment.html#a85717fc369572292cce46e42a32e38f5" target="_top" xlink:title=" ">
<polygon fill="white" stroke="#666666" points="1383,-81.5 1274.75,-81.5 1274.75,-48 1383,-48 1383,-81.5"/>
<text xml:space="preserve" text-anchor="start" x="1282.75" y="-68" font-family="Helvetica,sans-Serif" font-size="10.00">inja::Environment::</text>
<text xml:space="preserve" text-anchor="middle" x="1328.88" y="-55.25" font-family="Helvetica,sans-Serif" font-size="10.00">parse_template</text>
</a>
</g>
</g>
<!-- Node1&#45;&gt;Node20 -->
<g id="edge30_Node000001_Node000020" class="edge">
<title>Node1&#45;&gt;Node20</title>
<g id="a_edge30_Node000001_Node000020"><a xlink:title=" ">
<path fill="none" stroke="#63b8ff" d="M2034.09,-99.29C1976.94,-80.41 1869.62,-49.75 1775.38,-49.75 1775.38,-49.75 1775.38,-49.75 1621.62,-49.75 1538.32,-49.75 1441.81,-55.92 1383.34,-60.35"/>
<polygon fill="#63b8ff" stroke="#63b8ff" points="2032.8,-102.55 2043.4,-102.41 2035.03,-95.91 2032.8,-102.55"/>
</a>
</g>
</g>
<!-- Node3 -->
<g id="Node000003" class="node">
<title>Node3</title>
<g id="a_Node000003"><a xlink:href="classinja_1_1Parser.html#afdea619b58c4db677d49c0481d6a9a4b" target="_top" xlink:title=" ">
<polygon fill="white" stroke="#666666" points="1826.25,-149.5 1722.5,-149.5 1722.5,-116 1826.25,-116 1826.25,-149.5"/>
<text xml:space="preserve" text-anchor="start" x="1730.5" y="-136" font-family="Helvetica,sans-Serif" font-size="10.00">inja::Parser::parse</text>
<text xml:space="preserve" text-anchor="middle" x="1774.38" y="-123.25" font-family="Helvetica,sans-Serif" font-size="10.00">_statement</text>
</a>
</g>
</g>
<!-- Node2&#45;&gt;Node3 -->
<g id="edge2_Node000002_Node000003" class="edge">
<title>Node2&#45;&gt;Node3</title>
<g id="a_edge2_Node000002_Node000003"><a xlink:title=" ">
<path fill="none" stroke="#63b8ff" d="M1850.79,-122.57C1842.7,-123.66 1834.53,-124.76 1826.7,-125.82"/>
<polygon fill="#63b8ff" stroke="#63b8ff" points="1851.17,-126.05 1860.61,-121.24 1850.23,-119.11 1851.17,-126.05"/>
</a>
</g>
</g>
<!-- Node4 -->
<g id="Node000004" class="node">
<title>Node4</title>
<g id="a_Node000004"><a xlink:href="classinja_1_1Parser.html#a325c55a6c060f76d0d83b4d187b1ef33" target="_top" xlink:title=" ">
<polygon fill="white" stroke="#666666" points="1686.5,-143.12 1558.75,-143.12 1558.75,-122.38 1686.5,-122.38 1686.5,-143.12"/>
<text xml:space="preserve" text-anchor="middle" x="1622.62" y="-129.62" font-family="Helvetica,sans-Serif" font-size="10.00">inja::Parser::parse_into</text>
</a>
</g>
</g>
<!-- Node3&#45;&gt;Node4 -->
<g id="edge3_Node000003_Node000004" class="edge">
<title>Node3&#45;&gt;Node4</title>
<g id="a_edge3_Node000003_Node000004"><a xlink:title=" ">
<path fill="none" stroke="#63b8ff" d="M1710.86,-132.75C1702.96,-132.75 1694.87,-132.75 1686.96,-132.75"/>
<polygon fill="#63b8ff" stroke="#63b8ff" points="1710.74,-136.25 1720.74,-132.75 1710.74,-129.25 1710.74,-136.25"/>
</a>
</g>
</g>
<!-- Node4&#45;&gt;Node5 -->
<g id="edge4_Node000004_Node000005" class="edge">
<title>Node4&#45;&gt;Node5</title>
<g id="a_edge4_Node000004_Node000005"><a xlink:title=" ">
<path fill="none" stroke="#63b8ff" d="M1571.43,-146.49C1551.9,-151.84 1529.85,-157.88 1511.48,-162.91"/>
<polygon fill="#63b8ff" stroke="#63b8ff" points="1572.1,-149.94 1580.82,-143.92 1570.25,-143.19 1572.1,-149.94"/>
</a>
</g>
</g>
<!-- Node19 -->
<g id="Node000019" class="node">
<title>Node19</title>
<g id="a_Node000019"><a xlink:href="classinja_1_1Parser.html#af2b8ee63877e6b685f30c87d204bbe8b" target="_top" xlink:title=" ">
<polygon fill="white" stroke="#666666" points="1522.75,-111.5 1419,-111.5 1419,-78 1522.75,-78 1522.75,-111.5"/>
<text xml:space="preserve" text-anchor="start" x="1427" y="-98" font-family="Helvetica,sans-Serif" font-size="10.00">inja::Parser::parse</text>
<text xml:space="preserve" text-anchor="middle" x="1470.88" y="-85.25" font-family="Helvetica,sans-Serif" font-size="10.00">_into_template</text>
</a>
</g>
</g>
<!-- Node4&#45;&gt;Node19 -->
<g id="edge21_Node000004_Node000019" class="edge">
<title>Node4&#45;&gt;Node19</title>
<g id="a_edge21_Node000004_Node000019"><a xlink:title=" ">
<path fill="none" stroke="#63b8ff" d="M1568.15,-119.18C1553.46,-115.45 1537.56,-111.42 1523,-107.72"/>
<polygon fill="#63b8ff" stroke="#63b8ff" points="1567.09,-122.52 1577.65,-121.59 1568.81,-115.74 1567.09,-122.52"/>
</a>
</g>
</g>
<!-- Node6 -->
<g id="Node000006" class="node">
<title>Node6</title>
<g id="a_Node000006"><a xlink:href="classinja_1_1Environment.html#a8421b8d61fc4de15f29c909bd7154f92" target="_top" xlink:title=" ">
<polygon fill="white" stroke="#666666" points="1383,-190.5 1274.75,-190.5 1274.75,-157 1383,-157 1383,-190.5"/>
<text xml:space="preserve" text-anchor="start" x="1282.75" y="-177" font-family="Helvetica,sans-Serif" font-size="10.00">inja::Environment::</text>
<text xml:space="preserve" text-anchor="middle" x="1328.88" y="-164.25" font-family="Helvetica,sans-Serif" font-size="10.00">parse</text>
</a>
</g>
</g>
<!-- Node5&#45;&gt;Node6 -->
<g id="edge5_Node000005_Node000006" class="edge">
<title>Node5&#45;&gt;Node6</title>
<g id="a_edge5_Node000005_Node000006"><a xlink:title=" ">
<path fill="none" stroke="#63b8ff" d="M1407.26,-173.75C1399.19,-173.75 1390.98,-173.75 1383.08,-173.75"/>
<polygon fill="#63b8ff" stroke="#63b8ff" points="1407.03,-177.25 1417.03,-173.75 1407.03,-170.25 1407.03,-177.25"/>
</a>
</g>
</g>
<!-- Node7 -->
<g id="Node000007" class="node">
<title>Node7</title>
<g id="a_Node000007"><a xlink:href="classinja_1_1Environment.html#aac36e0cfdc9e7926914e46c0cd1caada" target="_top" xlink:title=" ">
<polygon fill="white" stroke="#666666" points="1238.75,-145.5 1130.5,-145.5 1130.5,-112 1238.75,-112 1238.75,-145.5"/>
<text xml:space="preserve" text-anchor="start" x="1138.5" y="-132" font-family="Helvetica,sans-Serif" font-size="10.00">inja::Environment::</text>
<text xml:space="preserve" text-anchor="middle" x="1184.62" y="-119.25" font-family="Helvetica,sans-Serif" font-size="10.00">render</text>
</a>
</g>
</g>
<!-- Node6&#45;&gt;Node7 -->
<g id="edge6_Node000006_Node000007" class="edge">
<title>Node6&#45;&gt;Node7</title>
<g id="a_edge6_Node000006_Node000007"><a xlink:title=" ">
<path fill="none" stroke="#63b8ff" d="M1263.69,-153.44C1255.37,-150.81 1246.93,-148.14 1238.82,-145.58"/>
<polygon fill="#63b8ff" stroke="#63b8ff" points="1262.47,-156.73 1273.06,-156.41 1264.58,-150.06 1262.47,-156.73"/>
</a>
</g>
</g>
<!-- Node17 -->
<g id="Node000017" class="node">
<title>Node17</title>
<g id="a_Node000017"><a xlink:href="classinja_1_1Environment.html#ad00da8b535e5c5633ed2adec622e6cf4" target="_top" xlink:title=" ">
<polygon fill="white" stroke="#666666" points="1238.75,-235.5 1130.5,-235.5 1130.5,-202 1238.75,-202 1238.75,-235.5"/>
<text xml:space="preserve" text-anchor="start" x="1138.5" y="-222" font-family="Helvetica,sans-Serif" font-size="10.00">inja::Environment::</text>
<text xml:space="preserve" text-anchor="middle" x="1184.62" y="-209.25" font-family="Helvetica,sans-Serif" font-size="10.00">render_to</text>
</a>
</g>
</g>
<!-- Node6&#45;&gt;Node17 -->
<g id="edge19_Node000006_Node000017" class="edge">
<title>Node6&#45;&gt;Node17</title>
<g id="a_edge19_Node000006_Node000017"><a xlink:title=" ">
<path fill="none" stroke="#63b8ff" d="M1263.69,-194.06C1255.37,-196.69 1246.93,-199.36 1238.82,-201.92"/>
<polygon fill="#63b8ff" stroke="#63b8ff" points="1264.58,-197.44 1273.06,-191.09 1262.47,-190.77 1264.58,-197.44"/>
</a>
</g>
</g>
<!-- Node18 -->
<g id="Node000018" class="node">
<title>Node18</title>
<g id="a_Node000018"><a xlink:href="namespaceinja.html#a996f16f78b37d05e19cf44ac74d83e7e" target="_top" xlink:title="render with default settings to the given output stream">
<polygon fill="white" stroke="#666666" points="1227.88,-184.12 1141.38,-184.12 1141.38,-163.38 1227.88,-163.38 1227.88,-184.12"/>
<text xml:space="preserve" text-anchor="middle" x="1184.62" y="-170.62" font-family="Helvetica,sans-Serif" font-size="10.00">inja::render_to</text>
</a>
</g>
</g>
<!-- Node6&#45;&gt;Node18 -->
<g id="edge20_Node000006_Node000018" class="edge">
<title>Node6&#45;&gt;Node18</title>
<g id="a_edge20_Node000006_Node000018"><a xlink:title=" ">
<path fill="none" stroke="#63b8ff" d="M1263.23,-173.75C1251.34,-173.75 1239.22,-173.75 1228.19,-173.75"/>
<polygon fill="#63b8ff" stroke="#63b8ff" points="1262.99,-177.25 1272.99,-173.75 1262.99,-170.25 1262.99,-177.25"/>
</a>
</g>
</g>
<!-- Node8 -->
<g id="Node000008" class="node">
<title>Node8</title>
<g id="a_Node000008"><a xlink:href="classmqtt_1_1lib_1_1MqttMapper.html#acf8390856383106d469d448b358d3f17" target="_top" xlink:title=" ">
<polygon fill="white" stroke="#666666" points="1085.12,-186.5 962.62,-186.5 962.62,-153 1085.12,-153 1085.12,-186.5"/>
<text xml:space="preserve" text-anchor="start" x="970.62" y="-173" font-family="Helvetica,sans-Serif" font-size="10.00">mqtt::lib::MqttMapper</text>
<text xml:space="preserve" text-anchor="middle" x="1023.88" y="-160.25" font-family="Helvetica,sans-Serif" font-size="10.00">::getMappedTemplate</text>
</a>
</g>
</g>
<!-- Node7&#45;&gt;Node8 -->
<g id="edge7_Node000007_Node000008" class="edge">
<title>Node7&#45;&gt;Node8</title>
<g id="a_edge7_Node000007_Node000008"><a xlink:title=" ">
<path fill="none" stroke="#63b8ff" d="M1119.31,-145.36C1108.12,-148.25 1096.51,-151.25 1085.43,-154.11"/>
<polygon fill="#63b8ff" stroke="#63b8ff" points="1120.05,-148.78 1128.86,-142.89 1118.3,-142.01 1120.05,-148.78"/>
</a>
</g>
</g>
<!-- Node16 -->
<g id="Node000016" class="node">
<title>Node16</title>
<g id="a_Node000016"><a xlink:href="namespaceinja.html#a539106781b52cc6117fc132f927a9dec" target="_top" xlink:title="render with default settings to a string">
<polygon fill="white" stroke="#666666" points="1059.62,-135.12 988.12,-135.12 988.12,-114.38 1059.62,-114.38 1059.62,-135.12"/>
<text xml:space="preserve" text-anchor="middle" x="1023.88" y="-121.62" font-family="Helvetica,sans-Serif" font-size="10.00">inja::render</text>
</a>
</g>
</g>
<!-- Node7&#45;&gt;Node16 -->
<g id="edge18_Node000007_Node000016" class="edge">
<title>Node7&#45;&gt;Node16</title>
<g id="a_edge18_Node000007_Node000016"><a xlink:title=" ">
<path fill="none" stroke="#63b8ff" d="M1118.94,-127.12C1098.72,-126.61 1077.18,-126.07 1059.82,-125.63"/>
<polygon fill="#63b8ff" stroke="#63b8ff" points="1118.72,-130.62 1128.81,-127.37 1118.9,-123.62 1118.72,-130.62"/>
</a>
</g>
</g>
<!-- Node9 -->
<g id="Node000009" class="node">
<title>Node9</title>
<g id="a_Node000009"><a xlink:href="classmqtt_1_1lib_1_1MqttMapper.html#a120ac05abf400a4f1c4a5758ecd99f74" target="_top" xlink:title=" ">
<polygon fill="white" stroke="#666666" points="917.25,-186.5 787.25,-186.5 787.25,-153 917.25,-153 917.25,-186.5"/>
<text xml:space="preserve" text-anchor="start" x="795.25" y="-173" font-family="Helvetica,sans-Serif" font-size="10.00">mqtt::lib::MqttMapper</text>
<text xml:space="preserve" text-anchor="middle" x="852.25" y="-160.25" font-family="Helvetica,sans-Serif" font-size="10.00">::getTemplateMappings</text>
</a>
</g>
</g>
<!-- Node8&#45;&gt;Node9 -->
<g id="edge8_Node000008_Node000009" class="edge">
<title>Node8&#45;&gt;Node9</title>
<g id="a_edge8_Node000008_Node000009"><a xlink:title=" ">
<path fill="none" stroke="#63b8ff" d="M951.15,-169.75C940.03,-169.75 928.6,-169.75 917.65,-169.75"/>
<polygon fill="#63b8ff" stroke="#63b8ff" points="951.08,-173.25 961.08,-169.75 951.08,-166.25 951.08,-173.25"/>
</a>
</g>
</g>
<!-- Node10 -->
<g id="Node000010" class="node">
<title>Node10</title>
<g id="a_Node000010"><a xlink:href="classmqtt_1_1lib_1_1MqttMapper.html#a542c86edf273308138357e4773c55d3c" target="_top" xlink:title=" ">
<polygon fill="white" stroke="#666666" points="751.25,-186.5 628.75,-186.5 628.75,-153 751.25,-153 751.25,-186.5"/>
<text xml:space="preserve" text-anchor="start" x="636.75" y="-173" font-family="Helvetica,sans-Serif" font-size="10.00">mqtt::lib::MqttMapper</text>
<text xml:space="preserve" text-anchor="middle" x="690" y="-160.25" font-family="Helvetica,sans-Serif" font-size="10.00">::getMappings</text>
</a>
</g>
</g>
<!-- Node9&#45;&gt;Node10 -->
<g id="edge9_Node000009_Node000010" class="edge">
<title>Node9&#45;&gt;Node10</title>
<g id="a_edge9_Node000009_Node000010"><a xlink:title=" ">
<path fill="none" stroke="#63b8ff" d="M775.67,-169.75C767.61,-169.75 759.49,-169.75 751.63,-169.75"/>
<polygon fill="#63b8ff" stroke="#63b8ff" points="775.48,-173.25 785.48,-169.75 775.48,-166.25 775.48,-173.25"/>
</a>
</g>
</g>
<!-- Node11 -->
<g id="Node000011" class="node">
<title>Node11</title>
<g id="a_Node000011"><a xlink:href="classmqtt_1_1mqttbroker_1_1lib_1_1Mqtt.html#a35dd670ca3b7d67cffbbce1cf7c71ffb" target="_top" xlink:title=" ">
<polygon fill="white" stroke="#666666" points="592.75,-212.5 475.5,-212.5 475.5,-179 592.75,-179 592.75,-212.5"/>
<text xml:space="preserve" text-anchor="start" x="483.5" y="-199" font-family="Helvetica,sans-Serif" font-size="10.00">mqtt::mqttbroker::lib</text>
<text xml:space="preserve" text-anchor="middle" x="534.12" y="-186.25" font-family="Helvetica,sans-Serif" font-size="10.00">::Mqtt::onPublish</text>
</a>
</g>
</g>
<!-- Node10&#45;&gt;Node11 -->
<g id="edge10_Node000010_Node000011" class="edge">
<title>Node10&#45;&gt;Node11</title>
<g id="a_edge10_Node000010_Node000011"><a xlink:title=" ">
<path fill="none" stroke="#63b8ff" d="M617.53,-181.83C609.33,-183.21 601.05,-184.61 593.06,-185.96"/>
<polygon fill="#63b8ff" stroke="#63b8ff" points="617.86,-185.32 627.13,-180.2 616.69,-178.42 617.86,-185.32"/>
</a>
</g>
</g>
<!-- Node15 -->
<g id="Node000015" class="node">
<title>Node15</title>
<g id="a_Node000015"><a xlink:href="classmqtt_1_1mqttintegrator_1_1lib_1_1Mqtt.html#a211408365844787ce77340f454b9cbd0" target="_top" xlink:title=" ">
<polygon fill="white" stroke="#666666" points="592.38,-160.5 475.88,-160.5 475.88,-127 592.38,-127 592.38,-160.5"/>
<text xml:space="preserve" text-anchor="start" x="483.88" y="-147" font-family="Helvetica,sans-Serif" font-size="10.00">mqtt::mqttintegrator</text>
<text xml:space="preserve" text-anchor="middle" x="534.12" y="-134.25" font-family="Helvetica,sans-Serif" font-size="10.00">::lib::Mqtt::onPublish</text>
</a>
</g>
</g>
<!-- Node10&#45;&gt;Node15 -->
<g id="edge17_Node000010_Node000015" class="edge">
<title>Node10&#45;&gt;Node15</title>
<g id="a_edge17_Node000010_Node000015"><a xlink:title=" ">
<path fill="none" stroke="#63b8ff" d="M617.45,-157.66C609.19,-156.27 600.85,-154.86 592.81,-153.5"/>
<polygon fill="#63b8ff" stroke="#63b8ff" points="616.69,-161.08 627.13,-159.3 617.86,-154.18 616.69,-161.08"/>
</a>
</g>
</g>
<!-- Node11&#45;&gt;Node11 -->
<g id="edge11_Node000011_Node000011" class="edge">
<title>Node11&#45;&gt;Node11</title>
<g id="a_edge11_Node000011_Node000011"><a xlink:title=" ">
<path fill="none" stroke="#63b8ff" d="M560.3,-223.89C556.04,-227.85 547.31,-230.5 534.12,-230.5 510.68,-230.5 501.34,-222.12 506.1,-212.91"/>
<polygon fill="#63b8ff" stroke="#63b8ff" points="563.69,-224.85 561.89,-214.41 556.78,-223.69 563.69,-224.85"/>
</a>
</g>
</g>
<!-- Node12 -->
<g id="Node000012" class="node">
<title>Node12</title>
<g id="a_Node000012"><a xlink:href="classmqtt_1_1mqttbroker_1_1lib_1_1Mqtt_1_1DelayedQueue.html#abe935c28141087ad3eadf41acab44702" target="_top" xlink:title=" ">
<polygon fill="white" stroke="#666666" points="439.5,-243.88 317,-243.88 317,-197.62 439.5,-197.62 439.5,-243.88"/>
<text xml:space="preserve" text-anchor="start" x="325" y="-230.38" font-family="Helvetica,sans-Serif" font-size="10.00">mqtt::mqttbroker::lib</text>
<text xml:space="preserve" text-anchor="start" x="325" y="-217.62" font-family="Helvetica,sans-Serif" font-size="10.00">::Mqtt::DelayedQueue</text>
<text xml:space="preserve" text-anchor="middle" x="378.25" y="-204.88" font-family="Helvetica,sans-Serif" font-size="10.00">::processDue</text>
</a>
</g>
</g>
<!-- Node11&#45;&gt;Node12 -->
<g id="edge12_Node000011_Node000012" class="edge">
<title>Node11&#45;&gt;Node12</title>
<g id="a_edge12_Node000011_Node000012"><a xlink:title=" ">
<path fill="none" stroke="#63b8ff" d="M464.09,-206.97C456.02,-208.28 447.83,-209.61 439.88,-210.9"/>
<polygon fill="#63b8ff" stroke="#63b8ff" points="464.59,-210.43 473.9,-205.37 463.46,-203.52 464.59,-210.43"/>
</a>
</g>
</g>
<!-- Node13 -->
<g id="Node000013" class="node">
<title>Node13</title>
<g id="a_Node000013"><a xlink:href="classmqtt_1_1mqttbroker_1_1lib_1_1Mqtt_1_1DelayedQueue.html#a8becf2d97fc0f71a12ae5e84ea8b2a66" target="_top" xlink:title=" ">
<polygon fill="white" stroke="#666666" points="281,-243.88 158.5,-243.88 158.5,-197.62 281,-197.62 281,-243.88"/>
<text xml:space="preserve" text-anchor="start" x="166.5" y="-230.38" font-family="Helvetica,sans-Serif" font-size="10.00">mqtt::mqttbroker::lib</text>
<text xml:space="preserve" text-anchor="start" x="166.5" y="-217.62" font-family="Helvetica,sans-Serif" font-size="10.00">::Mqtt::DelayedQueue</text>
<text xml:space="preserve" text-anchor="middle" x="219.75" y="-204.88" font-family="Helvetica,sans-Serif" font-size="10.00">::armDelayTimer</text>
</a>
</g>
</g>
<!-- Node12&#45;&gt;Node13 -->
<g id="edge13_Node000012_Node000013" class="edge">
<title>Node12&#45;&gt;Node13</title>
<g id="a_edge13_Node000012_Node000013"><a xlink:title=" ">
<path fill="none" stroke="#63b8ff" d="M305.45,-220.75C297.4,-220.75 289.25,-220.75 281.35,-220.75"/>
<polygon fill="#63b8ff" stroke="#63b8ff" points="305.23,-224.25 315.23,-220.75 305.23,-217.25 305.23,-224.25"/>
</a>
</g>
</g>
<!-- Node13&#45;&gt;Node13 -->
<g id="edge14_Node000013_Node000013" class="edge">
<title>Node13&#45;&gt;Node13</title>
<g id="a_edge14_Node000013_Node000013"><a xlink:title=" ">
<path fill="none" stroke="#63b8ff" d="M245.82,-254.61C241.31,-258.98 232.62,-261.88 219.75,-261.88 198.08,-261.88 188.26,-253.68 190.29,-244"/>
<polygon fill="#63b8ff" stroke="#63b8ff" points="249.04,-256.04 248.75,-245.44 242.37,-253.9 249.04,-256.04"/>
</a>
</g>
</g>
<!-- Node14 -->
<g id="Node000014" class="node">
<title>Node14</title>
<g id="a_Node000014"><a xlink:href="classmqtt_1_1mqttbroker_1_1lib_1_1Mqtt_1_1DelayedQueue.html#a0cea5b90a1434e82da43bd2f4c6dd47c" target="_top" xlink:title=" ">
<polygon fill="white" stroke="#666666" points="122.5,-217.88 0,-217.88 0,-171.62 122.5,-171.62 122.5,-217.88"/>
<text xml:space="preserve" text-anchor="start" x="8" y="-204.38" font-family="Helvetica,sans-Serif" font-size="10.00">mqtt::mqttbroker::lib</text>
<text xml:space="preserve" text-anchor="start" x="8" y="-191.62" font-family="Helvetica,sans-Serif" font-size="10.00">::Mqtt::DelayedQueue</text>
<text xml:space="preserve" text-anchor="middle" x="61.25" y="-178.88" font-family="Helvetica,sans-Serif" font-size="10.00">::delayPublish</text>
</a>
</g>
</g>
<!-- Node13&#45;&gt;Node14 -->
<g id="edge15_Node000013_Node000014" class="edge">
<title>Node13&#45;&gt;Node14</title>
<g id="a_edge15_Node000013_Node000014"><a xlink:title=" ">
<path fill="none" stroke="#63b8ff" d="M146.95,-208.82C138.9,-207.48 130.75,-206.13 122.85,-204.82"/>
<polygon fill="#63b8ff" stroke="#63b8ff" points="146.31,-212.26 156.75,-210.45 147.46,-205.36 146.31,-212.26"/>
</a>
</g>
</g>
<!-- Node14&#45;&gt;Node11 -->
<g id="edge16_Node000014_Node000011" class="edge">
<title>Node14&#45;&gt;Node11</title>
<g id="a_edge16_Node000014_Node000011"><a xlink:title=" ">
<path fill="none" stroke="#63b8ff" d="M134.28,-189.77C142.45,-189.35 150.65,-188.99 158.5,-188.75 283.33,-184.86 314.7,-184.09 439.5,-188.75 451.06,-189.18 463.42,-189.91 475.23,-190.74"/>
<polygon fill="#63b8ff" stroke="#63b8ff" points="134.11,-186.27 124.32,-190.32 134.5,-193.26 134.11,-186.27"/>
</a>
</g>
</g>
<!-- Node19&#45;&gt;Node2 -->
<g id="edge22_Node000019_Node000002" class="edge">
<title>Node19&#45;&gt;Node2</title>
<g id="a_edge22_Node000019_Node000002"><a xlink:title=" ">
<path fill="none" stroke="#63b8ff" d="M1534.33,-96.04C1605.16,-97.69 1724.07,-101.04 1826.25,-106.75 1837.81,-107.4 1850.2,-108.25 1861.97,-109.15"/>
<polygon fill="#63b8ff" stroke="#63b8ff" points="1534.55,-92.54 1524.48,-95.81 1534.39,-99.54 1534.55,-92.54"/>
</a>
</g>
</g>
<!-- Node19&#45;&gt;Node20 -->
<g id="edge23_Node000019_Node000020" class="edge">
<title>Node19&#45;&gt;Node20</title>
<g id="a_edge23_Node000019_Node000020"><a xlink:title=" ">
<path fill="none" stroke="#63b8ff" d="M1407.54,-81.39C1399.38,-79.64 1391.08,-77.86 1383.08,-76.15"/>
<polygon fill="#63b8ff" stroke="#63b8ff" points="1406.55,-84.76 1417.06,-83.43 1408.01,-77.91 1406.55,-84.76"/>
</a>
</g>
</g>
<!-- Node21 -->
<g id="Node000021" class="node">
<title>Node21</title>
<g id="a_Node000021"><a xlink:href="classinja_1_1Environment.html#aec4165117f8d7242f813bb7859b86d18" target="_top" xlink:title=" ">
<polygon fill="white" stroke="#666666" points="1238.75,-33.5 1130.5,-33.5 1130.5,0 1238.75,0 1238.75,-33.5"/>
<text xml:space="preserve" text-anchor="start" x="1138.5" y="-20" font-family="Helvetica,sans-Serif" font-size="10.00">inja::Environment::</text>
<text xml:space="preserve" text-anchor="middle" x="1184.62" y="-7.25" font-family="Helvetica,sans-Serif" font-size="10.00">parse_file</text>
</a>
</g>
</g>
<!-- Node20&#45;&gt;Node21 -->
<g id="edge24_Node000020_Node000021" class="edge">
<title>Node20&#45;&gt;Node21</title>
<g id="a_edge24_Node000020_Node000021"><a xlink:title=" ">
<path fill="none" stroke="#63b8ff" d="M1266.01,-43.88C1256.23,-40.57 1246.2,-37.19 1236.7,-33.98"/>
<polygon fill="#63b8ff" stroke="#63b8ff" points="1264.89,-47.19 1275.49,-47.07 1267.13,-40.56 1264.89,-47.19"/>
</a>
</g>
</g>
<!-- Node22 -->
<g id="Node000022" class="node">
<title>Node22</title>
<g id="a_Node000022"><a xlink:href="classinja_1_1Environment.html#a3e30972fab0a5962c232f4c0f7002845" target="_top" xlink:title=" ">
<polygon fill="white" stroke="#666666" points="1238.75,-85.5 1130.5,-85.5 1130.5,-52 1238.75,-52 1238.75,-85.5"/>
<text xml:space="preserve" text-anchor="start" x="1138.5" y="-72" font-family="Helvetica,sans-Serif" font-size="10.00">inja::Environment::</text>
<text xml:space="preserve" text-anchor="middle" x="1184.62" y="-59.25" font-family="Helvetica,sans-Serif" font-size="10.00">render_file</text>
</a>
</g>
</g>
<!-- Node20&#45;&gt;Node22 -->
<g id="edge25_Node000020_Node000022" class="edge">
<title>Node20&#45;&gt;Node22</title>
<g id="a_edge25_Node000020_Node000022"><a xlink:title=" ">
<path fill="none" stroke="#63b8ff" d="M1263.13,-66.57C1254.99,-66.8 1246.75,-67.03 1238.82,-67.25"/>
<polygon fill="#63b8ff" stroke="#63b8ff" points="1263.09,-70.07 1272.99,-66.29 1262.89,-63.08 1263.09,-70.07"/>
</a>
</g>
</g>
<!-- Node23 -->
<g id="Node000023" class="node">
<title>Node23</title>
<g id="a_Node000023"><a xlink:href="classinja_1_1Environment.html#a815d87f3fb622a7639691803ff9a123b" target="_top" xlink:title=" ">
<polygon fill="white" stroke="#666666" points="1094.5,-89.5 953.25,-89.5 953.25,-56 1094.5,-56 1094.5,-89.5"/>
<text xml:space="preserve" text-anchor="start" x="961.25" y="-76" font-family="Helvetica,sans-Serif" font-size="10.00">inja::Environment::</text>
<text xml:space="preserve" text-anchor="middle" x="1023.88" y="-63.25" font-family="Helvetica,sans-Serif" font-size="10.00">render_file_with_json_file</text>
</a>
</g>
</g>
<!-- Node22&#45;&gt;Node23 -->
<g id="edge26_Node000022_Node000023" class="edge">
<title>Node22&#45;&gt;Node23</title>
<g id="a_edge26_Node000022_Node000023"><a xlink:title=" ">
<path fill="none" stroke="#63b8ff" d="M1118.93,-70.38C1111.03,-70.58 1102.93,-70.78 1094.95,-70.98"/>
<polygon fill="#63b8ff" stroke="#63b8ff" points="1118.9,-73.88 1128.81,-70.13 1118.72,-66.88 1118.9,-73.88"/>
</a>
</g>
</g>
<!-- Node24 -->
<g id="Node000024" class="node">
<title>Node24</title>
<g id="a_Node000024"><a xlink:href="classinja_1_1Environment.html#ae64c18f23f81e8ee787d406ccd4d35dc" target="_top" xlink:title=" ">
<polygon fill="white" stroke="#666666" points="1078,-37.5 969.75,-37.5 969.75,-4 1078,-4 1078,-37.5"/>
<text xml:space="preserve" text-anchor="start" x="977.75" y="-24" font-family="Helvetica,sans-Serif" font-size="10.00">inja::Environment::</text>
<text xml:space="preserve" text-anchor="middle" x="1023.88" y="-11.25" font-family="Helvetica,sans-Serif" font-size="10.00">write</text>
</a>
</g>
</g>
<!-- Node22&#45;&gt;Node24 -->
<g id="edge27_Node000022_Node000024" class="edge">
<title>Node22&#45;&gt;Node24</title>
<g id="a_edge27_Node000022_Node000024"><a xlink:title=" ">
<path fill="none" stroke="#63b8ff" d="M1119.52,-49.37C1105.84,-45.23 1091.53,-40.91 1078.31,-36.91"/>
<polygon fill="#63b8ff" stroke="#63b8ff" points="1118.29,-52.65 1128.87,-52.2 1120.31,-45.95 1118.29,-52.65"/>
</a>
</g>
</g>
<!-- Node25 -->
<g id="Node000025" class="node">
<title>Node25</title>
<g id="a_Node000025"><a xlink:href="classinja_1_1Environment.html#ad6a6b713e78516f4f6fd68c58f309f3c" target="_top" xlink:title=" ">
<polygon fill="white" stroke="#666666" points="909,-37.5 795.5,-37.5 795.5,-4 909,-4 909,-37.5"/>
<text xml:space="preserve" text-anchor="start" x="803.5" y="-24" font-family="Helvetica,sans-Serif" font-size="10.00">inja::Environment::</text>
<text xml:space="preserve" text-anchor="middle" x="852.25" y="-11.25" font-family="Helvetica,sans-Serif" font-size="10.00">write_with_json_file</text>
</a>
</g>
</g>
<!-- Node24&#45;&gt;Node25 -->
<g id="edge28_Node000024_Node000025" class="edge">
<title>Node24&#45;&gt;Node25</title>
<g id="a_edge28_Node000024_Node000025"><a xlink:title=" ">
<path fill="none" stroke="#63b8ff" d="M958.2,-20.75C942.16,-20.75 925.1,-20.75 909.49,-20.75"/>
<polygon fill="#63b8ff" stroke="#63b8ff" points="958.16,-24.25 968.16,-20.75 958.16,-17.25 958.16,-24.25"/>
</a>
</g>
</g>
</g>
</svg>
