<?xml version="1.0" encoding="UTF-8" standalone="no"?>
<!DOCTYPE svg PUBLIC "-//W3C//DTD SVG 1.1//EN"
 "http://www.w3.org/Graphics/SVG/1.1/DTD/svg11.dtd">
<!-- Generated by graphviz version 2.42.4 (0)
 -->
<!-- Title: mqtt::lib::FunctionBase Pages: 1 -->
<svg width="130pt" height="160pt"
 viewBox="0.00 0.00 130.00 160.00" xmlns="http://www.w3.org/2000/svg" xmlns:xlink="http://www.w3.org/1999/xlink">
<g id="graph0" class="graph" transform="scale(1 1) rotate(0) translate(4 156)">
<title>mqtt::lib::FunctionBase</title>
<!-- Node1 -->
<g id="Node000001" class="node">
<title>Node1</title>
<g id="a_Node000001"><a xlink:title=" ">
<polygon fill="#999999" stroke="transparent" points="122,-19 0,-19 0,0 122,0 122,-19"/>
<text text-anchor="start" x="4.5" y="-6.5" font-family="Helvetica,sans-Serif" font-size="10.00">mqtt::lib::FunctionBase</text>
<polygon fill="none" stroke="#666666" points="0,0 0,-19 122,-19 122,0 0,0"/>
</a>
</g>
</g>
<!-- Node2 -->
<g id="Node000002" class="node">
<title>Node2</title>
<g id="a_Node000002"><a xlink:title=" ">
<polygon fill="white" stroke="transparent" points="90,-85 32,-85 32,-66 90,-66 90,-85"/>
<text text-anchor="start" x="36.5" y="-72.5" font-family="Helvetica,sans-Serif" font-size="10.00">std::string</text>
<polygon fill="none" stroke="#666666" points="32,-66 32,-85 90,-85 90,-66 32,-66"/>
</a>
</g>
</g>
<!-- Node2&#45;&gt;Node1 -->
<g id="edge1_Node000001_Node000002" class="edge">
<title>Node2&#45;&gt;Node1</title>
<g id="a_edge1_Node000001_Node000002"><a xlink:title=" ">
<path fill="none" stroke="#63b8ff" d="M61,-65.87C61,-57.14 61,-43.31 61,-31.65"/>
<polygon fill="none" stroke="#63b8ff" points="61,-31.41 57,-25.41 61,-19.41 65,-25.41 61,-31.41"/>
</a>
</g>
<text text-anchor="middle" x="81" y="-40" font-family="Helvetica,sans-Serif" font-size="10.00" fill="grey"> +name</text>
</g>
<!-- Node3 -->
<g id="Node000003" class="node">
<title>Node3</title>
<g id="a_Node000003"><a xlink:title=" ">
<polygon fill="white" stroke="transparent" points="109,-152 13,-152 13,-122 109,-122 109,-152"/>
<text text-anchor="start" x="17" y="-140" font-family="Helvetica,sans-Serif" font-size="10.00">std::basic_string&lt;</text>
<text text-anchor="start" x="42.5" y="-129" font-family="Helvetica,sans-Serif" font-size="10.00"> Char &gt;</text>
<polygon fill="none" stroke="#666666" points="13,-122 13,-152 109,-152 109,-122 13,-122"/>
</a>
</g>
</g>
<!-- Node3&#45;&gt;Node2 -->
<g id="edge2_Node000002_Node000003" class="edge">
<title>Node3&#45;&gt;Node2</title>
<g id="a_edge2_Node000002_Node000003"><a xlink:title=" ">
<path fill="none" stroke="#63b8ff" d="M61,-111.79C61,-102.36 61,-92.15 61,-85.16"/>
<polygon fill="none" stroke="#63b8ff" points="57.5,-111.9 61,-121.9 64.5,-111.9 57.5,-111.9"/>
</a>
</g>
</g>
</g>
</svg>
