<?xml version="1.0" encoding="UTF-8" standalone="no"?>
<!DOCTYPE svg PUBLIC "-//W3C//DTD SVG 1.1//EN"
 "http://www.w3.org/Graphics/SVG/1.1/DTD/svg11.dtd">
<!-- Generated by graphviz version 14.1.2 (0)
 -->
<!-- Title: mqtt::lib::FunctionBase Pages: 1 -->
<svg width="240pt" height="86pt"
 viewBox="0.00 0.00 240.00 86.00" xmlns="http://www.w3.org/2000/svg" xmlns:xlink="http://www.w3.org/1999/xlink">

<svg id="main" version="1.1" xmlns="http://www.w3.org/2000/svg" xmlns:xlink="http://www.w3.org/1999/xlink" xml:space="preserve">

<style type="text/css"><![CDATA[
.node, .edge {opacity: 0.7;}
.node.selected, .edge.selected {opacity: 1;}
.edge:hover path { stroke: red; }
.edge:hover polygon { stroke: red; fill: red; }
]]></style>
<script type="application/ecmascript" xlink:href="svg.min.js"/>
<svg id="graph" class="graph">
<g id="graph0" class="graph" transform="scale(1 1) rotate(0) translate(4 81.5)">
<title>mqtt::lib::FunctionBase</title>
<!-- Node1 -->
<g id="Node000001" class="node">
<title>Node1</title>
<g id="a_Node000001"><a xlink:title=" ">
<polygon fill="#999999" stroke="none" points="170.5,-77.5 50,-77.5 50,-56.75 170.5,-56.75 170.5,-77.5"/>
<text xml:space="preserve" text-anchor="start" x="54" y="-64" font-family="Helvetica,sans-Serif" font-size="10.00">mqtt::lib::FunctionBase</text>
<polygon fill="none" stroke="#666666" points="50,-56.75 50,-77.5 170.5,-77.5 170.5,-56.75 50,-56.75"/>
</a>
</g>
</g>
<!-- Node2 -->
<g id="Node000002" class="node">
<title>Node2</title>
<g id="a_Node000002"><a xlink:href="structmqtt_1_1lib_1_1Function.html" target="_top" xlink:title=" ">
<polygon fill="white" stroke="none" points="96.5,-20.75 0,-20.75 0,0 96.5,0 96.5,-20.75"/>
<text xml:space="preserve" text-anchor="start" x="4" y="-7.25" font-family="Helvetica,sans-Serif" font-size="10.00">mqtt::lib::Function</text>
<polygon fill="none" stroke="#666666" points="0,0 0,-20.75 96.5,-20.75 96.5,0 0,0"/>
</a>
</g>
</g>
<!-- Node1&#45;&gt;Node2 -->
<g id="edge1_Node000001_Node000002" class="edge">
<title>Node1&#45;&gt;Node2</title>
<g id="a_edge1_Node000001_Node000002"><a xlink:title=" ">
<path fill="none" stroke="#63b8ff" d="M91.38,-49.46C80.61,-39.95 67.53,-28.4 58.61,-20.53"/>
<polygon fill="none" stroke="#63b8ff" points="88.79,-51.84 98.6,-55.84 93.42,-46.59 88.79,-51.84"/>
</a>
</g>
</g>
<!-- Node3 -->
<g id="Node000003" class="node">
<title>Node3</title>
<g id="a_Node000003"><a xlink:href="structmqtt_1_1lib_1_1VoidFunction.html" target="_top" xlink:title=" ">
<polygon fill="white" stroke="none" points="232.38,-20.75 114.12,-20.75 114.12,0 232.38,0 232.38,-20.75"/>
<text xml:space="preserve" text-anchor="start" x="118.12" y="-7.25" font-family="Helvetica,sans-Serif" font-size="10.00">mqtt::lib::VoidFunction</text>
<polygon fill="none" stroke="#666666" points="114.12,0 114.12,-20.75 232.38,-20.75 232.38,0 114.12,0"/>
</a>
</g>
</g>
<!-- Node1&#45;&gt;Node3 -->
<g id="edge2_Node000001_Node000003" class="edge">
<title>Node1&#45;&gt;Node3</title>
<g id="a_edge2_Node000001_Node000003"><a xlink:title=" ">
<path fill="none" stroke="#63b8ff" d="M129.43,-49.46C140.37,-39.95 153.66,-28.4 162.72,-20.53"/>
<polygon fill="none" stroke="#63b8ff" points="127.33,-46.64 122.08,-55.84 131.92,-51.93 127.33,-46.64"/>
</a>
</g>
</g>
</g>
</svg>
</svg>

<style type='text/css'>
<![CDATA[
[data-mouse-over-selected='false'] { opacity: 0.7; }
[data-mouse-over-selected='true']  { opacity: 1.0; }
]]>
</style>
<script type="application/ecmascript"><![CDATA[
document.addEventListener('DOMContentLoaded', (event) => {
  highlightEdges();
  highlightAdjacentNodes();
});
]]></script>
</svg>
