<?xml version="1.0" encoding="UTF-8" standalone="no"?>
<!DOCTYPE svg PUBLIC "-//W3C//DTD SVG 1.1//EN"
 "http://www.w3.org/Graphics/SVG/1.1/DTD/svg11.dtd">
<!-- Generated by graphviz version 14.1.2 (0)
 -->
<!-- Title: inja::Template Pages: 1 -->
<!--zoomable 640 -->

<svg id="main" version="1.1" xmlns="http://www.w3.org/2000/svg" xmlns:xlink="http://www.w3.org/1999/xlink" xml:space="preserve" onload="init(evt)">

<style type="text/css"><![CDATA[
.node, .edge {opacity: 0.7;}
.node.selected, .edge.selected {opacity: 1;}
.edge:hover path { stroke: red; }
.edge:hover polygon { stroke: red; fill: red; }
]]></style>

<defs>
  <circle id="rim" cx="0" cy="0" r="7"/>
  <circle id="rim2" cx="0" cy="0" r="3.5"/>
  <g id="zoomPlus">
    <use xlink:href="#rim" fill="#404040"><set attributeName="fill" to="#808080" begin="zoomplus.mouseover" end="zoomplus.mouseout"/></use>
    <path d="M-4,0h8M0,-4v8" fill="none" stroke="white" stroke-width="1.5" pointer-events="none"/>
  </g>
  <g id="zoomMin">
    <use xlink:href="#rim" fill="#404040"><set attributeName="fill" to="#808080" begin="zoomminus.mouseover" end="zoomminus.mouseout"/></use>
    <path d="M-4,0h8" fill="none" stroke="white" stroke-width="1.5" pointer-events="none"/>
  </g>
  <g id="arrowUp" transform="translate(30 24)">
    <use xlink:href="#rim"/>
    <path pointer-events="none" fill="none" stroke="white" stroke-width="1.5" d="M0,-3.0v7 M-2.5,-0.5L0,-3.0L2.5,-0.5"/>
  </g>
  <g id="arrowRight" transform="rotate(90) translate(36 -43)">
    <use xlink:href="#rim"/>
    <path pointer-events="none" fill="none" stroke="white" stroke-width="1.5" d="M0,-3.0v7 M-2.5,-0.5L0,-3.0L2.5,-0.5"/>
  </g>
  <g id="arrowDown" transform="rotate(180) translate(-30 -48)">
    <use xlink:href="#rim"/>
    <path pointer-events="none" fill="none" stroke="white" stroke-width="1.5" d="M0,-3.0v7 M-2.5,-0.5L0,-3.0L2.5,-0.5"/>
  </g>
  <g id="arrowLeft" transform="rotate(270) translate(-36 17)">
    <use xlink:href="#rim"/>
    <path pointer-events="none" fill="none" stroke="white" stroke-width="1.5" d="M0,-3.0v7 M-2.5,-0.5L0,-3.0L2.5,-0.5"/>
  </g>
  <g id="resetDef">
    <use xlink:href="#rim2" fill="#404040"><set attributeName="fill" to="#808080" begin="reset.mouseover" end="reset.mouseout"/></use>
  </g>
</defs>
<script type="application/ecmascript">
var viewWidth = 406;
var viewHeight = 640;
var sectionId = 'dynsection-0';
</script>
<script type="application/ecmascript" xlink:href="svg.min.js"/>
<svg id="graph" class="graph">
<g id="viewport">
<title>inja::Template</title>
<!-- Node1 -->
<g id="Node000001" class="node">
<title>Node1</title>
<g id="a_Node000001"><a xlink:title="The main inja Template.">
<polygon fill="#999999" stroke="none" points="172.5,-20.75 95.5,-20.75 95.5,0 172.5,0 172.5,-20.75"/>
<text xml:space="preserve" text-anchor="start" x="99.5" y="-7.25" font-family="Helvetica,sans-Serif" font-size="10.00">inja::Template</text>
<polygon fill="none" stroke="#666666" points="95.5,0 95.5,-20.75 172.5,-20.75 172.5,0 95.5,0"/>
</a>
</g>
</g>
<!-- Node2 -->
<g id="Node000002" class="node">
<title>Node2</title>
<g id="a_Node000002"><a xlink:href="classinja_1_1BlockNode.html" target="_top" xlink:title=" ">
<polygon fill="white" stroke="none" points="300.25,-377.75 215.75,-377.75 215.75,-357 300.25,-357 300.25,-377.75"/>
<text xml:space="preserve" text-anchor="start" x="219.75" y="-364.25" font-family="Helvetica,sans-Serif" font-size="10.00">inja::BlockNode</text>
<polygon fill="none" stroke="#666666" points="215.75,-357 215.75,-377.75 300.25,-377.75 300.25,-357 215.75,-357"/>
</a>
</g>
</g>
<!-- Node2&#45;&gt;Node1 -->
<g id="edge1_Node000001_Node000002" class="edge">
<title>Node2&#45;&gt;Node1</title>
<g id="a_edge1_Node000001_Node000002"><a xlink:title=" ">
<path fill="none" stroke="#63b8ff" d="M260.21,-357.21C263.91,-340.98 271,-306.04 271,-276.12 271,-276.12 271,-276.12 271,-97.62 271,-55.36 223.74,-32.99 184.73,-21.73"/>
<polygon fill="none" stroke="#63b8ff" points="184.63,-21.7 177.8,-24.02 173.03,-18.61 179.86,-16.29 184.63,-21.7"/>
</a>
</g>
<text xml:space="preserve" text-anchor="start" x="274" y="-190.12" font-family="Helvetica,sans-Serif" font-size="10.00" fill="grey">+root</text>
</g>
<!-- Node10 -->
<g id="Node000010" class="node">
<title>Node10</title>
<g id="a_Node000010"><a xlink:href="classinja_1_1BlockStatementNode.html" target="_top" xlink:title=" ">
<polygon fill="white" stroke="none" points="242.75,-285.5 107.25,-285.5 107.25,-264.75 242.75,-264.75 242.75,-285.5"/>
<text xml:space="preserve" text-anchor="start" x="111.25" y="-272" font-family="Helvetica,sans-Serif" font-size="10.00">inja::BlockStatementNode</text>
<polygon fill="none" stroke="#666666" points="107.25,-264.75 107.25,-285.5 242.75,-285.5 242.75,-264.75 107.25,-264.75"/>
</a>
</g>
</g>
<!-- Node2&#45;&gt;Node10 -->
<g id="edge15_Node000010_Node000002" class="edge">
<title>Node2&#45;&gt;Node10</title>
<g id="a_edge15_Node000010_Node000002"><a xlink:title=" ">
<path fill="none" stroke="#63b8ff" d="M237.31,-357.23C228.55,-352.65 218.67,-346.47 211.25,-339 204.66,-332.37 193.54,-312.31 185.35,-296.61"/>
<polygon fill="none" stroke="#63b8ff" points="185.43,-296.78 179.14,-293.26 179.96,-286.1 186.25,-289.62 185.43,-296.78"/>
</a>
</g>
<text xml:space="preserve" text-anchor="start" x="214.25" y="-326.5" font-family="Helvetica,sans-Serif" font-size="10.00" fill="grey">+block</text>
<text xml:space="preserve" text-anchor="start" x="214.25" y="-309.75" font-family="Helvetica,sans-Serif" font-size="10.00" fill="grey">+parent</text>
</g>
<!-- Node3 -->
<g id="Node000003" class="node">
<title>Node3</title>
<g id="a_Node000003"><a xlink:href="classinja_1_1AstNode.html" target="_top" xlink:title="Base node class for the abstract syntax tree (AST).">
<polygon fill="white" stroke="none" points="280.62,-631.75 207.38,-631.75 207.38,-611 280.62,-611 280.62,-631.75"/>
<text xml:space="preserve" text-anchor="start" x="211.38" y="-618.25" font-family="Helvetica,sans-Serif" font-size="10.00">inja::AstNode</text>
<polygon fill="none" stroke="#666666" points="207.38,-611 207.38,-631.75 280.62,-631.75 280.62,-611 207.38,-611"/>
</a>
</g>
</g>
<!-- Node3&#45;&gt;Node2 -->
<g id="edge2_Node000002_Node000003" class="edge">
<title>Node3&#45;&gt;Node2</title>
<g id="a_edge2_Node000002_Node000003"><a xlink:title=" ">
<path fill="none" stroke="#63b8ff" d="M245.14,-599.86C248.01,-548.2 255.45,-414.3 257.48,-377.73"/>
<polygon fill="none" stroke="#63b8ff" points="241.66,-599.42 244.6,-609.6 248.65,-599.81 241.66,-599.42"/>
</a>
</g>
</g>
<!-- Node5 -->
<g id="Node000005" class="node">
<title>Node5</title>
<g id="a_Node000005"><a xlink:title=" ">
<polygon fill="white" stroke="none" points="386,-556.25 276,-556.25 276,-522.75 386,-522.75 386,-556.25"/>
<text xml:space="preserve" text-anchor="start" x="280" y="-542.75" font-family="Helvetica,sans-Serif" font-size="10.00">std::shared_ptr&lt; inja</text>
<text xml:space="preserve" text-anchor="start" x="301.75" y="-530" font-family="Helvetica,sans-Serif" font-size="10.00">::AstNode &gt;</text>
<polygon fill="none" stroke="#666666" points="276,-522.75 276,-556.25 386,-556.25 386,-522.75 276,-522.75"/>
</a>
</g>
</g>
<!-- Node3&#45;&gt;Node5 -->
<g id="edge5_Node000005_Node000003" class="edge">
<title>Node3&#45;&gt;Node5</title>
<g id="a_edge5_Node000005_Node000003"><a xlink:title=" ">
<path fill="none" stroke="#63b8ff" d="M253.98,-611.21C266.22,-599.98 287.44,-580.5 304.51,-564.82"/>
<polygon fill="none" stroke="#63b8ff" points="304.48,-564.85 306.19,-557.85 313.32,-556.74 311.6,-563.74 304.48,-564.85"/>
</a>
</g>
<text xml:space="preserve" text-anchor="start" x="295.71" y="-580.5" font-family="Helvetica,sans-Serif" font-size="10.00" fill="grey">+ptr</text>
</g>
<!-- Node11 -->
<g id="Node000011" class="node">
<title>Node11</title>
<g id="a_Node000011"><a xlink:href="classinja_1_1StatementNode.html" target="_top" xlink:title=" ">
<polygon fill="white" stroke="none" points="229.25,-504.75 120.75,-504.75 120.75,-484 229.25,-484 229.25,-504.75"/>
<text xml:space="preserve" text-anchor="start" x="124.75" y="-491.25" font-family="Helvetica,sans-Serif" font-size="10.00">inja::StatementNode</text>
<polygon fill="none" stroke="#666666" points="120.75,-484 120.75,-504.75 229.25,-504.75 229.25,-484 120.75,-484"/>
</a>
</g>
</g>
<!-- Node3&#45;&gt;Node11 -->
<g id="edge13_Node000011_Node000003" class="edge">
<title>Node3&#45;&gt;Node11</title>
<g id="a_edge13_Node000011_Node000003"><a xlink:title=" ">
<path fill="none" stroke="#63b8ff" d="M233.59,-601.53C218.57,-574.31 191.37,-525.04 180.1,-504.62"/>
<polygon fill="none" stroke="#63b8ff" points="230.41,-603 238.31,-610.06 236.54,-599.61 230.41,-603"/>
</a>
</g>
</g>
<!-- Node4 -->
<g id="Node000004" class="node">
<title>Node4</title>
<g id="a_Node000004"><a xlink:title=" ">
<polygon fill="white" stroke="none" points="397.88,-466 272.12,-466 272.12,-432.5 397.88,-432.5 397.88,-466"/>
<text xml:space="preserve" text-anchor="start" x="276.12" y="-452.5" font-family="Helvetica,sans-Serif" font-size="10.00">std::vector&lt; std::shared</text>
<text xml:space="preserve" text-anchor="start" x="276.12" y="-439.75" font-family="Helvetica,sans-Serif" font-size="10.00">_ptr&lt; inja::AstNode &gt; &gt;</text>
<polygon fill="none" stroke="#666666" points="272.12,-432.5 272.12,-466 397.88,-466 397.88,-432.5 272.12,-432.5"/>
</a>
</g>
</g>
<!-- Node4&#45;&gt;Node2 -->
<g id="edge3_Node000002_Node000004" class="edge">
<title>Node4&#45;&gt;Node2</title>
<g id="a_edge3_Node000002_Node000004"><a xlink:title=" ">
<path fill="none" stroke="#63b8ff" d="M320.15,-432.85C307.49,-419.72 289.26,-400.81 275.82,-386.86"/>
<polygon fill="none" stroke="#63b8ff" points="275.98,-387.02 268.93,-385.48 267.65,-378.38 274.69,-379.93 275.98,-387.02"/>
</a>
</g>
<text xml:space="preserve" text-anchor="start" x="304.11" y="-402" font-family="Helvetica,sans-Serif" font-size="10.00" fill="grey">+nodes</text>
</g>
<!-- Node5&#45;&gt;Node4 -->
<g id="edge4_Node000004_Node000005" class="edge">
<title>Node5&#45;&gt;Node4</title>
<g id="a_edge4_Node000004_Node000005"><a xlink:title=" ">
<path fill="none" stroke="#63b8ff" d="M331.7,-523.13C332.26,-510.8 333.05,-493.17 333.73,-478.34"/>
<polygon fill="none" stroke="#63b8ff" points="333.71,-478.63 329.99,-472.46 334.26,-466.64 337.98,-472.82 333.71,-478.63"/>
</a>
</g>
<text xml:space="preserve" text-anchor="start" x="336.36" y="-491.25" font-family="Helvetica,sans-Serif" font-size="10.00" fill="grey">+elements</text>
</g>
<!-- Node6 -->
<g id="Node000006" class="node">
<title>Node6</title>
<g id="a_Node000006"><a xlink:title=" ">
<polygon fill="white" stroke="none" points="107.38,-377.75 50.62,-377.75 50.62,-357 107.38,-357 107.38,-377.75"/>
<text xml:space="preserve" text-anchor="start" x="54.62" y="-364.25" font-family="Helvetica,sans-Serif" font-size="10.00">std::string</text>
<polygon fill="none" stroke="#666666" points="50.62,-357 50.62,-377.75 107.38,-377.75 107.38,-357 50.62,-357"/>
</a>
</g>
</g>
<!-- Node6&#45;&gt;Node1 -->
<g id="edge6_Node000001_Node000006" class="edge">
<title>Node6&#45;&gt;Node1</title>
<g id="a_edge6_Node000001_Node000006"><a xlink:title=" ">
<path fill="none" stroke="#63b8ff" d="M62.25,-357.15C39.06,-343 0,-313.61 0,-276.12 0,-276.12 0,-276.12 0,-97.62 0,-56.49 45.21,-34.04 83.1,-22.45"/>
<polygon fill="none" stroke="#63b8ff" points="83.18,-22.43 87.87,-16.95 94.73,-19.17 90.05,-24.65 83.18,-22.43"/>
</a>
</g>
<text xml:space="preserve" text-anchor="start" x="3" y="-190.12" font-family="Helvetica,sans-Serif" font-size="10.00" fill="grey">+content</text>
</g>
<!-- Node8 -->
<g id="Node000008" class="node">
<title>Node8</title>
<g id="a_Node000008"><a xlink:title=" ">
<polygon fill="white" stroke="none" points="204,-121.75 64,-121.75 64,-75.5 204,-75.5 204,-121.75"/>
<text xml:space="preserve" text-anchor="start" x="68" y="-108.25" font-family="Helvetica,sans-Serif" font-size="10.00">std::map&lt; std::string,</text>
<text xml:space="preserve" text-anchor="start" x="68" y="-95.5" font-family="Helvetica,sans-Serif" font-size="10.00"> std::shared_ptr&lt; inja</text>
<text xml:space="preserve" text-anchor="start" x="68" y="-82.75" font-family="Helvetica,sans-Serif" font-size="10.00">::BlockStatementNode &gt; &gt;</text>
<polygon fill="none" stroke="#666666" points="64,-75.5 64,-121.75 204,-121.75 204,-75.5 64,-75.5"/>
</a>
</g>
</g>
<!-- Node6&#45;&gt;Node8 -->
<g id="edge9_Node000008_Node000006" class="edge">
<title>Node6&#45;&gt;Node8</title>
<g id="a_edge9_Node000008_Node000006"><a xlink:title=" ">
<path fill="none" stroke="#63b8ff" d="M78.83,-357.08C78.56,-329.18 79.43,-243.89 98,-176.5 102.08,-161.71 108.79,-146.23 115.33,-133.07"/>
<polygon fill="none" stroke="#63b8ff" points="115.27,-133.19 114.47,-126.02 120.78,-122.53 121.58,-129.69 115.27,-133.19"/>
</a>
</g>
<text xml:space="preserve" text-anchor="start" x="90.07" y="-234.25" font-family="Helvetica,sans-Serif" font-size="10.00" fill="grey">+keys</text>
</g>
<!-- Node6&#45;&gt;Node10 -->
<g id="edge14_Node000010_Node000006" class="edge">
<title>Node6&#45;&gt;Node10</title>
<g id="a_edge14_Node000010_Node000006"><a xlink:title=" ">
<path fill="none" stroke="#63b8ff" d="M84.05,-357.14C92.61,-341.71 109.93,-311.6 119,-303.5 124.35,-298.72 130.67,-294.58 137.12,-291.07"/>
<polygon fill="none" stroke="#63b8ff" points="137.07,-291.1 140.7,-284.87 147.85,-285.83 144.22,-292.06 137.07,-291.1"/>
</a>
</g>
<text xml:space="preserve" text-anchor="start" x="122" y="-318.12" font-family="Helvetica,sans-Serif" font-size="10.00" fill="grey">+name</text>
</g>
<!-- Node7 -->
<g id="Node000007" class="node">
<title>Node7</title>
<g id="a_Node000007"><a xlink:title=" ">
<polygon fill="white" stroke="none" points="126.88,-466 31.12,-466 31.12,-432.5 126.88,-432.5 126.88,-466"/>
<text xml:space="preserve" text-anchor="start" x="35.12" y="-452.5" font-family="Helvetica,sans-Serif" font-size="10.00">std::basic_string&lt;</text>
<text xml:space="preserve" text-anchor="start" x="60.62" y="-439.75" font-family="Helvetica,sans-Serif" font-size="10.00"> Char &gt;</text>
<polygon fill="none" stroke="#666666" points="31.12,-432.5 31.12,-466 126.88,-466 126.88,-432.5 31.12,-432.5"/>
</a>
</g>
</g>
<!-- Node7&#45;&gt;Node6 -->
<g id="edge7_Node000006_Node000007" class="edge">
<title>Node7&#45;&gt;Node6</title>
<g id="a_edge7_Node000006_Node000007"><a xlink:title=" ">
<path fill="none" stroke="#63b8ff" d="M79,-421.52C79,-406.4 79,-388.43 79,-377.73"/>
<polygon fill="none" stroke="#63b8ff" points="75.5,-421.34 79,-431.34 82.5,-421.34 75.5,-421.34"/>
</a>
</g>
</g>
<!-- Node8&#45;&gt;Node1 -->
<g id="edge8_Node000001_Node000008" class="edge">
<title>Node8&#45;&gt;Node1</title>
<g id="a_edge8_Node000001_Node000008"><a xlink:title=" ">
<path fill="none" stroke="#63b8ff" d="M134,-75.86C134,-62.95 134,-46.63 134,-33.63"/>
<polygon fill="none" stroke="#63b8ff" points="134,-33.64 130,-27.64 134,-21.64 138,-27.64 134,-33.64"/>
</a>
</g>
<text xml:space="preserve" text-anchor="start" x="137" y="-45" font-family="Helvetica,sans-Serif" font-size="10.00" fill="grey">+block_storage</text>
</g>
<!-- Node9 -->
<g id="Node000009" class="node">
<title>Node9</title>
<g id="a_Node000009"><a xlink:title=" ">
<polygon fill="white" stroke="none" points="235.38,-210 106.62,-210 106.62,-176.5 235.38,-176.5 235.38,-210"/>
<text xml:space="preserve" text-anchor="start" x="110.62" y="-196.5" font-family="Helvetica,sans-Serif" font-size="10.00">std::shared_ptr&lt; inja</text>
<text xml:space="preserve" text-anchor="start" x="110.62" y="-183.75" font-family="Helvetica,sans-Serif" font-size="10.00">::BlockStatementNode &gt;</text>
<polygon fill="none" stroke="#666666" points="106.62,-176.5 106.62,-210 235.38,-210 235.38,-176.5 106.62,-176.5"/>
</a>
</g>
</g>
<!-- Node9&#45;&gt;Node8 -->
<g id="edge10_Node000008_Node000009" class="edge">
<title>Node9&#45;&gt;Node8</title>
<g id="a_edge10_Node000008_Node000009"><a xlink:title=" ">
<path fill="none" stroke="#63b8ff" d="M164.72,-176.54C160.02,-164.76 153.41,-148.21 147.52,-133.48"/>
<polygon fill="none" stroke="#63b8ff" points="147.59,-133.66 141.65,-129.57 143.14,-122.51 149.08,-126.6 147.59,-133.66"/>
</a>
</g>
<text xml:space="preserve" text-anchor="start" x="159.9" y="-146" font-family="Helvetica,sans-Serif" font-size="10.00" fill="grey">+elements</text>
</g>
<!-- Node10&#45;&gt;Node9 -->
<g id="edge11_Node000009_Node000010" class="edge">
<title>Node10&#45;&gt;Node9</title>
<g id="a_edge11_Node000009_Node000010"><a xlink:title=" ">
<path fill="none" stroke="#63b8ff" d="M174.54,-264.96C174.03,-254.67 173.16,-237.46 172.42,-222.6"/>
<polygon fill="none" stroke="#63b8ff" points="172.43,-222.76 168.13,-216.97 171.83,-210.78 176.12,-216.57 172.43,-222.76"/>
</a>
</g>
<text xml:space="preserve" text-anchor="start" x="176.59" y="-234.25" font-family="Helvetica,sans-Serif" font-size="10.00" fill="grey">+ptr</text>
</g>
<!-- Node11&#45;&gt;Node10 -->
<g id="edge12_Node000010_Node000011" class="edge">
<title>Node11&#45;&gt;Node10</title>
<g id="a_edge12_Node000010_Node000011"><a xlink:title=" ">
<path fill="none" stroke="#63b8ff" d="M175,-472.61C175,-426.54 175,-317.34 175,-285.18"/>
<polygon fill="none" stroke="#63b8ff" points="171.5,-472.53 175,-482.53 178.5,-472.53 171.5,-472.53"/>
</a>
</g>
</g>
</g>
</svg>

<g id="navigator" transform="translate(0 0)" fill="#404254">
  <rect fill="#f2f5e9" fill-opacity="0.5" stroke="#606060" stroke-width=".5" x="0" y="0" width="60" height="60"/>
  <use id="zoomplus" xlink:href="#zoomPlus" x="17" y="9" onmousedown="handleZoom(evt,'in')"/>
  <use id="zoomminus" xlink:href="#zoomMin" x="42" y="9" onmousedown="handleZoom(evt,'out')"/>
  <use id="reset" xlink:href="#resetDef" x="30" y="36" onmousedown="handleReset()"/>
   <use id="arrowup" xlink:href="#arrowUp" x="0" y="0" onmousedown="handlePan(0,-1)"/>
  <use id="arrowright" xlink:href="#arrowRight" x="0" y="0" onmousedown="handlePan(1,0)"/>
  <use id="arrowdown" xlink:href="#arrowDown" x="0" y="0" onmousedown="handlePan(0,1)"/>
  <use id="arrowleft" xlink:href="#arrowLeft" x="0" y="0" onmousedown="handlePan(-1,0)"/>
</g>
<svg viewBox="0 0 15 15" width="100%" height="30px" preserveAspectRatio="xMaxYMin meet">
 <g id="arrow_out" transform="scale(0.3 0.3)">
  <a xlink:href="structinja_1_1Template__coll__graph_org.svg" target="_base">
   <rect id="button" ry="5" rx="5" y="6" x="6" height="38" width="38"
        fill="#f2f5e9" fill-opacity="0.5" stroke="#606060" stroke-width="1.0"/>
   <path id="arrow"
     d="M 11.500037,31.436501 C 11.940474,20.09759 22.043105,11.32322 32.158766,21.979434 L 37.068811,17.246167 C 37.068811,17.246167 37.088388,32 37.088388,32 L 22.160133,31.978069 C 22.160133,31.978069 26.997745,27.140456 26.997745,27.140456 C 18.528582,18.264221 13.291696,25.230495 11.500037,31.436501 z"
     style="fill:#404040;"/>
  </a>
 </g>
</svg>

<style type='text/css'>
<![CDATA[
[data-mouse-over-selected='false'] { opacity: 0.7; }
[data-mouse-over-selected='true']  { opacity: 1.0; }
]]>
</style>
<script type="application/ecmascript"><![CDATA[
document.addEventListener('DOMContentLoaded', (event) => {
  highlightEdges();
  highlightAdjacentNodes();
});
]]></script>
</svg>
