<?xml version="1.0" encoding="UTF-8" standalone="no"?>
<!DOCTYPE svg PUBLIC "-//W3C//DTD SVG 1.1//EN"
 "http://www.w3.org/Graphics/SVG/1.1/DTD/svg11.dtd">
<!-- Generated by graphviz version 14.1.1 (0)
 -->
<!-- Title: inja::Token::describe Pages: 1 -->
<svg width="996pt" height="329pt"
 viewBox="0.00 0.00 996.00 329.00" xmlns="http://www.w3.org/2000/svg" xmlns:xlink="http://www.w3.org/1999/xlink">
<g id="graph0" class="graph" transform="scale(1 1) rotate(0) translate(4 325.38)">
<title>inja::Token::describe</title>
<!-- Node1 -->
<g id="Node000001" class="node">
<title>Node1</title>
<g id="a_Node000001"><a xlink:title=" ">
<polygon fill="#999999" stroke="#666666" points="988,-257.75 873,-257.75 873,-237 988,-237 988,-257.75"/>
<text xml:space="preserve" text-anchor="middle" x="930.5" y="-244.25" font-family="Helvetica,sans-Serif" font-size="10.00">inja::Token::describe</text>
</a>
</g>
</g>
<!-- Node2 -->
<g id="Node000002" class="node">
<title>Node2</title>
<g id="a_Node000002"><a xlink:href="classinja_1_1Parser.html#a7dda6b9f4295c215e097f45d573d8d69" target="_top" xlink:title=" ">
<polygon fill="white" stroke="#666666" points="837,-233.12 733.25,-233.12 733.25,-199.62 837,-199.62 837,-233.12"/>
<text xml:space="preserve" text-anchor="start" x="741.25" y="-219.62" font-family="Helvetica,sans-Serif" font-size="10.00">inja::Parser::parse</text>
<text xml:space="preserve" text-anchor="middle" x="785.12" y="-206.88" font-family="Helvetica,sans-Serif" font-size="10.00">_expression</text>
</a>
</g>
</g>
<!-- Node1&#45;&gt;Node2 -->
<g id="edge1_Node000001_Node000002" class="edge">
<title>Node1&#45;&gt;Node2</title>
<g id="a_edge1_Node000001_Node000002"><a xlink:title=" ">
<path fill="none" stroke="#63b8ff" d="M868.34,-234.15C858.05,-231.93 847.47,-229.64 837.46,-227.47"/>
<polygon fill="#63b8ff" stroke="#63b8ff" points="867.36,-237.52 877.88,-236.21 868.84,-230.68 867.36,-237.52"/>
</a>
</g>
</g>
<!-- Node4 -->
<g id="Node000004" class="node">
<title>Node4</title>
<g id="a_Node000004"><a xlink:href="classinja_1_1Parser.html#a9a561141f71073df671b2b7ecb4608ba" target="_top" xlink:title=" ">
<polygon fill="white" stroke="#666666" points="557.5,-181.75 429.75,-181.75 429.75,-161 557.5,-161 557.5,-181.75"/>
<text xml:space="preserve" text-anchor="middle" x="493.62" y="-168.25" font-family="Helvetica,sans-Serif" font-size="10.00">inja::Parser::parse_into</text>
</a>
</g>
</g>
<!-- Node1&#45;&gt;Node4 -->
<g id="edge19_Node000001_Node000004" class="edge">
<title>Node1&#45;&gt;Node4</title>
<g id="a_edge19_Node000001_Node000004"><a xlink:title=" ">
<path fill="none" stroke="#63b8ff" d="M907.79,-229.63C889.96,-216.19 863.42,-198.66 837,-190.38 743.13,-160.94 627.79,-161.59 557.81,-165.75"/>
<polygon fill="#63b8ff" stroke="#63b8ff" points="905.51,-232.29 915.55,-235.67 909.81,-226.77 905.51,-232.29"/>
</a>
</g>
</g>
<!-- Node11 -->
<g id="Node000011" class="node">
<title>Node11</title>
<g id="a_Node000011"><a xlink:href="classinja_1_1Parser.html#a5a26bdcce0ae076bf010ee7442d8928e" target="_top" xlink:title=" ">
<polygon fill="white" stroke="#666666" points="106,-259.12 2.25,-259.12 2.25,-225.62 106,-225.62 106,-259.12"/>
<text xml:space="preserve" text-anchor="start" x="10.25" y="-245.62" font-family="Helvetica,sans-Serif" font-size="10.00">inja::Parser::parse</text>
<text xml:space="preserve" text-anchor="middle" x="54.12" y="-232.88" font-family="Helvetica,sans-Serif" font-size="10.00">_statement</text>
</a>
</g>
</g>
<!-- Node1&#45;&gt;Node11 -->
<g id="edge20_Node000001_Node000011" class="edge">
<title>Node1&#45;&gt;Node11</title>
<g id="a_edge20_Node000001_Node000011"><a xlink:title=" ">
<path fill="none" stroke="#63b8ff" d="M895.02,-262.5C842.46,-284.14 738.63,-321.38 646.38,-321.38 646.38,-321.38 646.38,-321.38 340.88,-321.38 248.74,-321.38 145.75,-282.75 92.12,-259.52"/>
<polygon fill="#63b8ff" stroke="#63b8ff" points="896.17,-265.81 904.04,-258.72 893.47,-259.36 896.17,-265.81"/>
</a>
</g>
</g>
<!-- Node15 -->
<g id="Node000015" class="node">
<title>Node15</title>
<g id="a_Node000015"><a xlink:href="classinja_1_1Parser.html#a1bd2c3127357715521ec111c39a7e823" target="_top" xlink:title=" ">
<polygon fill="white" stroke="#666666" points="697.25,-293.12 593.5,-293.12 593.5,-259.62 697.25,-259.62 697.25,-293.12"/>
<text xml:space="preserve" text-anchor="start" x="601.5" y="-279.62" font-family="Helvetica,sans-Serif" font-size="10.00">inja::Parser::parse</text>
<text xml:space="preserve" text-anchor="middle" x="645.38" y="-266.88" font-family="Helvetica,sans-Serif" font-size="10.00">_filename</text>
</a>
</g>
</g>
<!-- Node1&#45;&gt;Node15 -->
<g id="edge17_Node000001_Node000015" class="edge">
<title>Node1&#45;&gt;Node15</title>
<g id="a_edge17_Node000001_Node000015"><a xlink:title=" ">
<path fill="none" stroke="#63b8ff" d="M861.61,-257.36C853.33,-258.45 844.98,-259.48 837,-260.38 789.8,-265.67 735.85,-270.04 697.42,-272.87"/>
<polygon fill="#63b8ff" stroke="#63b8ff" points="861.87,-260.85 871.32,-256.05 860.94,-253.92 861.87,-260.85"/>
</a>
</g>
</g>
<!-- Node2&#45;&gt;Node2 -->
<g id="edge2_Node000002_Node000002" class="edge">
<title>Node2&#45;&gt;Node2</title>
<g id="a_edge2_Node000002_Node000002"><a xlink:title=" ">
<path fill="none" stroke="#63b8ff" d="M808.26,-244.84C804.33,-248.62 796.62,-251.12 785.12,-251.12 764.11,-251.12 755.73,-242.74 760,-233.54"/>
<polygon fill="#63b8ff" stroke="#63b8ff" points="811.7,-245.48 809.99,-235.03 804.81,-244.27 811.7,-245.48"/>
</a>
</g>
</g>
<!-- Node3 -->
<g id="Node000003" class="node">
<title>Node3</title>
<g id="a_Node000003"><a xlink:href="classinja_1_1Parser.html#aeb66164c89e8c71cae3c93c24d7c7be2" target="_top" xlink:title=" ">
<polygon fill="white" stroke="#666666" points="697.25,-233.12 593.5,-233.12 593.5,-199.62 697.25,-199.62 697.25,-233.12"/>
<text xml:space="preserve" text-anchor="start" x="601.5" y="-219.62" font-family="Helvetica,sans-Serif" font-size="10.00">inja::Parser::parse</text>
<text xml:space="preserve" text-anchor="middle" x="645.38" y="-206.88" font-family="Helvetica,sans-Serif" font-size="10.00">_expression</text>
</a>
</g>
</g>
<!-- Node2&#45;&gt;Node3 -->
<g id="edge3_Node000002_Node000003" class="edge">
<title>Node2&#45;&gt;Node3</title>
<g id="a_edge3_Node000002_Node000003"><a xlink:title=" ">
<path fill="none" stroke="#63b8ff" d="M721.36,-216.38C713.45,-216.38 705.42,-216.38 697.71,-216.38"/>
<polygon fill="#63b8ff" stroke="#63b8ff" points="721.32,-219.88 731.32,-216.38 721.32,-212.88 721.32,-219.88"/>
</a>
</g>
</g>
<!-- Node3&#45;&gt;Node4 -->
<g id="edge4_Node000003_Node000004" class="edge">
<title>Node3&#45;&gt;Node4</title>
<g id="a_edge4_Node000003_Node000004"><a xlink:title=" ">
<path fill="none" stroke="#63b8ff" d="M582.4,-197.75C564.69,-192.43 545.98,-186.81 530.41,-182.13"/>
<polygon fill="#63b8ff" stroke="#63b8ff" points="581.22,-201.05 591.81,-200.58 583.24,-194.35 581.22,-201.05"/>
</a>
</g>
</g>
<!-- Node3&#45;&gt;Node11 -->
<g id="edge16_Node000003_Node000011" class="edge">
<title>Node3&#45;&gt;Node11</title>
<g id="a_edge16_Node000003_Node000011"><a xlink:title=" ">
<path fill="none" stroke="#63b8ff" d="M581.86,-219.13C464.69,-224.3 214.15,-235.36 106.27,-240.12"/>
<polygon fill="#63b8ff" stroke="#63b8ff" points="581.77,-222.64 591.6,-218.7 581.46,-215.65 581.77,-222.64"/>
</a>
</g>
</g>
<!-- Node5 -->
<g id="Node000005" class="node">
<title>Node5</title>
<g id="a_Node000005"><a xlink:href="classinja_1_1Parser.html#a0f1312b0bf8691aba6cc4590169902fc" target="_top" xlink:title=" ">
<polygon fill="white" stroke="#666666" points="393.75,-95.75 290,-95.75 290,-75 393.75,-75 393.75,-95.75"/>
<text xml:space="preserve" text-anchor="middle" x="341.88" y="-82.25" font-family="Helvetica,sans-Serif" font-size="10.00">inja::Parser::parse</text>
</a>
</g>
</g>
<!-- Node4&#45;&gt;Node5 -->
<g id="edge5_Node000004_Node000005" class="edge">
<title>Node4&#45;&gt;Node5</title>
<g id="a_edge5_Node000004_Node000005"><a xlink:title=" ">
<path fill="none" stroke="#63b8ff" d="M464.08,-154.98C434.02,-137.72 387.57,-111.04 361.77,-96.23"/>
<polygon fill="#63b8ff" stroke="#63b8ff" points="462.23,-157.96 472.65,-159.9 465.72,-151.89 462.23,-157.96"/>
</a>
</g>
</g>
<!-- Node9 -->
<g id="Node000009" class="node">
<title>Node9</title>
<g id="a_Node000009"><a xlink:href="classinja_1_1Parser.html#a8c6a03b6665745f216ba86f5e514a913" target="_top" xlink:title=" ">
<polygon fill="white" stroke="#666666" points="393.75,-176.12 290,-176.12 290,-142.62 393.75,-142.62 393.75,-176.12"/>
<text xml:space="preserve" text-anchor="start" x="298" y="-162.62" font-family="Helvetica,sans-Serif" font-size="10.00">inja::Parser::parse</text>
<text xml:space="preserve" text-anchor="middle" x="341.88" y="-149.88" font-family="Helvetica,sans-Serif" font-size="10.00">_into_template</text>
</a>
</g>
</g>
<!-- Node4&#45;&gt;Node9 -->
<g id="edge9_Node000004_Node000009" class="edge">
<title>Node4&#45;&gt;Node9</title>
<g id="a_edge9_Node000004_Node000009"><a xlink:title=" ">
<path fill="none" stroke="#63b8ff" d="M418.1,-165.4C409.97,-164.75 401.83,-164.1 394.07,-163.48"/>
<polygon fill="#63b8ff" stroke="#63b8ff" points="417.8,-168.89 428.04,-166.2 418.35,-161.91 417.8,-168.89"/>
</a>
</g>
</g>
<!-- Node6 -->
<g id="Node000006" class="node">
<title>Node6</title>
<g id="a_Node000006"><a xlink:href="classinja_1_1Environment.html#a8421b8d61fc4de15f29c909bd7154f92" target="_top" xlink:title=" ">
<polygon fill="white" stroke="#666666" points="253.25,-72.12 145,-72.12 145,-38.62 253.25,-38.62 253.25,-72.12"/>
<text xml:space="preserve" text-anchor="start" x="153" y="-58.62" font-family="Helvetica,sans-Serif" font-size="10.00">inja::Environment::</text>
<text xml:space="preserve" text-anchor="middle" x="199.12" y="-45.88" font-family="Helvetica,sans-Serif" font-size="10.00">parse</text>
</a>
</g>
</g>
<!-- Node5&#45;&gt;Node6 -->
<g id="edge6_Node000005_Node000006" class="edge">
<title>Node5&#45;&gt;Node6</title>
<g id="a_edge6_Node000005_Node000006"><a xlink:title=" ">
<path fill="none" stroke="#63b8ff" d="M279.08,-72.2C270.63,-70.4 262.01,-68.56 253.71,-66.8"/>
<polygon fill="#63b8ff" stroke="#63b8ff" points="278.07,-75.57 288.58,-74.23 279.53,-68.72 278.07,-75.57"/>
</a>
</g>
</g>
<!-- Node7 -->
<g id="Node000007" class="node">
<title>Node7</title>
<g id="a_Node000007"><a xlink:href="classinja_1_1Environment.html#aac36e0cfdc9e7926914e46c0cd1caada" target="_top" xlink:title=" ">
<polygon fill="white" stroke="#666666" points="108.25,-72.12 0,-72.12 0,-38.62 108.25,-38.62 108.25,-72.12"/>
<text xml:space="preserve" text-anchor="start" x="8" y="-58.62" font-family="Helvetica,sans-Serif" font-size="10.00">inja::Environment::</text>
<text xml:space="preserve" text-anchor="middle" x="54.12" y="-45.88" font-family="Helvetica,sans-Serif" font-size="10.00">render</text>
</a>
</g>
</g>
<!-- Node6&#45;&gt;Node7 -->
<g id="edge7_Node000006_Node000007" class="edge">
<title>Node6&#45;&gt;Node7</title>
<g id="a_edge7_Node000006_Node000007"><a xlink:title=" ">
<path fill="none" stroke="#63b8ff" d="M133.54,-55.38C125.14,-55.38 116.61,-55.38 108.42,-55.38"/>
<polygon fill="#63b8ff" stroke="#63b8ff" points="133.36,-58.88 143.36,-55.38 133.36,-51.88 133.36,-58.88"/>
</a>
</g>
</g>
<!-- Node8 -->
<g id="Node000008" class="node">
<title>Node8</title>
<g id="a_Node000008"><a xlink:href="namespaceinja.html#a996f16f78b37d05e19cf44ac74d83e7e" target="_top" xlink:title="render with default settings to the given output stream">
<polygon fill="white" stroke="#666666" points="97.38,-20.75 10.88,-20.75 10.88,0 97.38,0 97.38,-20.75"/>
<text xml:space="preserve" text-anchor="middle" x="54.12" y="-7.25" font-family="Helvetica,sans-Serif" font-size="10.00">inja::render_to</text>
</a>
</g>
</g>
<!-- Node6&#45;&gt;Node8 -->
<g id="edge8_Node000006_Node000008" class="edge">
<title>Node6&#45;&gt;Node8</title>
<g id="a_edge8_Node000006_Node000008"><a xlink:title=" ">
<path fill="none" stroke="#63b8ff" d="M134.28,-35.28C118.8,-30.41 102.84,-25.39 89.34,-21.14"/>
<polygon fill="#63b8ff" stroke="#63b8ff" points="132.84,-38.5 143.43,-38.16 134.95,-31.82 132.84,-38.5"/>
</a>
</g>
</g>
<!-- Node10 -->
<g id="Node000010" class="node">
<title>Node10</title>
<g id="a_Node000010"><a xlink:href="classinja_1_1Parser.html#ae1cebbe51ef6a93fc3d448263f9bf1e3" target="_top" xlink:title=" ">
<polygon fill="white" stroke="#666666" points="254,-176.12 144.25,-176.12 144.25,-142.62 254,-142.62 254,-176.12"/>
<text xml:space="preserve" text-anchor="start" x="152.25" y="-162.62" font-family="Helvetica,sans-Serif" font-size="10.00">inja::Parser::add_to</text>
<text xml:space="preserve" text-anchor="middle" x="199.12" y="-149.88" font-family="Helvetica,sans-Serif" font-size="10.00">_template_storage</text>
</a>
</g>
</g>
<!-- Node9&#45;&gt;Node10 -->
<g id="edge10_Node000009_Node000010" class="edge">
<title>Node9&#45;&gt;Node10</title>
<g id="a_edge10_Node000009_Node000010"><a xlink:title=" ">
<path fill="none" stroke="#63b8ff" d="M278.18,-159.38C270.24,-159.38 262.17,-159.38 254.38,-159.38"/>
<polygon fill="#63b8ff" stroke="#63b8ff" points="278.15,-162.88 288.15,-159.38 278.15,-155.88 278.15,-162.88"/>
</a>
</g>
</g>
<!-- Node12 -->
<g id="Node000012" class="node">
<title>Node12</title>
<g id="a_Node000012"><a xlink:href="classinja_1_1Environment.html#aa46ccc27cc803933e0bfc9f58bba389c" target="_top" xlink:title=" ">
<polygon fill="white" stroke="#666666" points="253.25,-124.12 145,-124.12 145,-90.62 253.25,-90.62 253.25,-124.12"/>
<text xml:space="preserve" text-anchor="start" x="153" y="-110.62" font-family="Helvetica,sans-Serif" font-size="10.00">inja::Environment::</text>
<text xml:space="preserve" text-anchor="middle" x="199.12" y="-97.88" font-family="Helvetica,sans-Serif" font-size="10.00">parse_template</text>
</a>
</g>
</g>
<!-- Node9&#45;&gt;Node12 -->
<g id="edge13_Node000009_Node000012" class="edge">
<title>Node9&#45;&gt;Node12</title>
<g id="a_edge13_Node000009_Node000012"><a xlink:title=" ">
<path fill="none" stroke="#63b8ff" d="M283.72,-138.26C271.36,-133.69 258.44,-128.92 246.55,-124.53"/>
<polygon fill="#63b8ff" stroke="#63b8ff" points="282.39,-141.5 292.98,-141.68 284.81,-134.93 282.39,-141.5"/>
</a>
</g>
</g>
<!-- Node10&#45;&gt;Node11 -->
<g id="edge11_Node000010_Node000011" class="edge">
<title>Node10&#45;&gt;Node11</title>
<g id="a_edge11_Node000010_Node000011"><a xlink:title=" ">
<path fill="none" stroke="#63b8ff" d="M158.47,-182.16C153.68,-184.92 148.85,-187.71 144.25,-190.38 124.25,-201.96 101.78,-215.07 84.4,-225.23"/>
<polygon fill="#63b8ff" stroke="#63b8ff" points="159.96,-185.34 166.87,-177.32 156.46,-179.27 159.96,-185.34"/>
</a>
</g>
</g>
<!-- Node11&#45;&gt;Node4 -->
<g id="edge12_Node000011_Node000004" class="edge">
<title>Node11&#45;&gt;Node4</title>
<g id="a_edge12_Node000011_Node000004"><a xlink:title=" ">
<path fill="none" stroke="#63b8ff" d="M117.58,-232.24C200.52,-218.78 346.19,-195.14 429.48,-181.62"/>
<polygon fill="#63b8ff" stroke="#63b8ff" points="117.12,-228.77 107.81,-233.83 118.24,-235.68 117.12,-228.77"/>
</a>
</g>
</g>
<!-- Node13 -->
<g id="Node000013" class="node">
<title>Node13</title>
<g id="a_Node000013"><a xlink:href="classinja_1_1Environment.html#a988701e4eb7fef51f2a3bd5ec74dd156" target="_top" xlink:title=" ">
<polygon fill="white" stroke="#666666" points="108.25,-124.12 0,-124.12 0,-90.62 108.25,-90.62 108.25,-124.12"/>
<text xml:space="preserve" text-anchor="start" x="8" y="-110.62" font-family="Helvetica,sans-Serif" font-size="10.00">inja::Environment::</text>
<text xml:space="preserve" text-anchor="middle" x="54.12" y="-97.88" font-family="Helvetica,sans-Serif" font-size="10.00">parse_file</text>
</a>
</g>
</g>
<!-- Node12&#45;&gt;Node13 -->
<g id="edge14_Node000012_Node000013" class="edge">
<title>Node12&#45;&gt;Node13</title>
<g id="a_edge14_Node000012_Node000013"><a xlink:title=" ">
<path fill="none" stroke="#63b8ff" d="M133.54,-107.38C125.14,-107.38 116.61,-107.38 108.42,-107.38"/>
<polygon fill="#63b8ff" stroke="#63b8ff" points="133.36,-110.88 143.36,-107.38 133.36,-103.88 133.36,-110.88"/>
</a>
</g>
</g>
<!-- Node14 -->
<g id="Node000014" class="node">
<title>Node14</title>
<g id="a_Node000014"><a xlink:href="classinja_1_1Environment.html#aaefdd9061b23f1764056689fe8c31e30" target="_top" xlink:title=" ">
<polygon fill="white" stroke="#666666" points="108.25,-176.12 0,-176.12 0,-142.62 108.25,-142.62 108.25,-176.12"/>
<text xml:space="preserve" text-anchor="start" x="8" y="-162.62" font-family="Helvetica,sans-Serif" font-size="10.00">inja::Environment::</text>
<text xml:space="preserve" text-anchor="middle" x="54.12" y="-149.88" font-family="Helvetica,sans-Serif" font-size="10.00">render_file</text>
</a>
</g>
</g>
<!-- Node12&#45;&gt;Node14 -->
<g id="edge15_Node000012_Node000014" class="edge">
<title>Node12&#45;&gt;Node14</title>
<g id="a_edge15_Node000012_Node000014"><a xlink:title=" ">
<path fill="none" stroke="#63b8ff" d="M140.44,-128.35C127.77,-132.96 114.5,-137.79 102.3,-142.22"/>
<polygon fill="#63b8ff" stroke="#63b8ff" points="141.28,-131.77 149.48,-125.06 138.89,-125.19 141.28,-131.77"/>
</a>
</g>
</g>
<!-- Node15&#45;&gt;Node11 -->
<g id="edge18_Node000015_Node000011" class="edge">
<title>Node15&#45;&gt;Node11</title>
<g id="a_edge18_Node000015_Node000011"><a xlink:title=" ">
<path fill="none" stroke="#63b8ff" d="M581.85,-273.88C487.12,-269.93 301.6,-261.52 144.25,-250.38 132.01,-249.51 118.83,-248.41 106.47,-247.32"/>
<polygon fill="#63b8ff" stroke="#63b8ff" points="581.57,-277.37 591.71,-274.29 581.86,-270.38 581.57,-277.37"/>
</a>
</g>
</g>
</g>
</svg>
