<?xml version="1.0" encoding="UTF-8" standalone="no"?>
<!DOCTYPE svg PUBLIC "-//W3C//DTD SVG 1.1//EN"
 "http://www.w3.org/Graphics/SVG/1.1/DTD/svg11.dtd">
<!-- Generated by graphviz version 2.42.4 (0)
 -->
<!-- Title: inja::FileError::FileError Pages: 1 -->
<svg width="1061pt" height="348pt"
 viewBox="0.00 0.00 1061.00 348.00" xmlns="http://www.w3.org/2000/svg" xmlns:xlink="http://www.w3.org/1999/xlink">
<g id="graph0" class="graph" transform="scale(1 1) rotate(0) translate(4 344)">
<title>inja::FileError::FileError</title>
<!-- Node1 -->
<g id="Node000001" class="node">
<title>Node1</title>
<g id="a_Node000001"><a xlink:title=" ">
<polygon fill="#999999" stroke="#666666" points="1053,-188.5 927,-188.5 927,-169.5 1053,-169.5 1053,-188.5"/>
<text text-anchor="middle" x="990" y="-176.5" font-family="Helvetica,sans-Serif" font-size="10.00">inja::FileError::FileError</text>
</a>
</g>
</g>
<!-- Node2 -->
<g id="Node000002" class="node">
<title>Node2</title>
<g id="a_Node000002"><a xlink:href="classinja_1_1Parser.html#ae1cebbe51ef6a93fc3d448263f9bf1e3" target="_top" xlink:title=" ">
<polygon fill="white" stroke="#666666" points="886.5,-257 776.5,-257 776.5,-227 886.5,-227 886.5,-257"/>
<text text-anchor="start" x="784.5" y="-245" font-family="Helvetica,sans-Serif" font-size="10.00">inja::Parser::add_to</text>
<text text-anchor="middle" x="831.5" y="-234" font-family="Helvetica,sans-Serif" font-size="10.00">_template_storage</text>
</a>
</g>
</g>
<!-- Node1&#45;&gt;Node2 -->
<g id="edge1_Node000001_Node000002" class="edge">
<title>Node1&#45;&gt;Node2</title>
<g id="a_edge1_Node000001_Node000002"><a xlink:title=" ">
<path fill="none" stroke="#63b8ff" d="M955.75,-192.38C930.6,-202.51 896.05,-216.42 869.92,-226.93"/>
<polygon fill="#63b8ff" stroke="#63b8ff" points="957.26,-195.55 965.23,-188.57 954.65,-189.06 957.26,-195.55"/>
</a>
</g>
</g>
<!-- Node13 -->
<g id="Node000013" class="node">
<title>Node13</title>
<g id="a_Node000013"><a xlink:href="classinja_1_1Parser.html#a08f9845245e383ab99e73b200c3cdb5f" target="_top" xlink:title=" ">
<polygon fill="white" stroke="#666666" points="891,-188.5 772,-188.5 772,-169.5 891,-169.5 891,-188.5"/>
<text text-anchor="middle" x="831.5" y="-176.5" font-family="Helvetica,sans-Serif" font-size="10.00">inja::Parser::load_file</text>
</a>
</g>
</g>
<!-- Node1&#45;&gt;Node13 -->
<g id="edge13_Node000001_Node000013" class="edge">
<title>Node1&#45;&gt;Node13</title>
<g id="a_edge13_Node000001_Node000013"><a xlink:title=" ">
<path fill="none" stroke="#63b8ff" d="M916.68,-179C908.08,-179 899.39,-179 891.03,-179"/>
<polygon fill="#63b8ff" stroke="#63b8ff" points="916.7,-182.5 926.7,-179 916.7,-175.5 916.7,-182.5"/>
</a>
</g>
</g>
<!-- Node15 -->
<g id="Node000015" class="node">
<title>Node15</title>
<g id="a_Node000015"><a xlink:href="classinja_1_1Environment.html#a63883423839a4c9651997e14ee9bd10b" target="_top" xlink:title=" ">
<polygon fill="white" stroke="#666666" points="886,-102 777,-102 777,-72 886,-72 886,-102"/>
<text text-anchor="start" x="785" y="-90" font-family="Helvetica,sans-Serif" font-size="10.00">inja::Environment::</text>
<text text-anchor="middle" x="831.5" y="-79" font-family="Helvetica,sans-Serif" font-size="10.00">load_json</text>
</a>
</g>
</g>
<!-- Node1&#45;&gt;Node15 -->
<g id="edge16_Node000001_Node000015" class="edge">
<title>Node1&#45;&gt;Node15</title>
<g id="a_edge16_Node000001_Node000015"><a xlink:title=" ">
<path fill="none" stroke="#63b8ff" d="M963.83,-164.2C934.85,-147.17 887.51,-119.34 858.27,-102.15"/>
<polygon fill="#63b8ff" stroke="#63b8ff" points="962.15,-167.28 972.55,-169.33 965.7,-161.24 962.15,-167.28"/>
</a>
</g>
</g>
<!-- Node3 -->
<g id="Node000003" class="node">
<title>Node3</title>
<g id="a_Node000003"><a xlink:href="classinja_1_1Parser.html#a5a26bdcce0ae076bf010ee7442d8928e" target="_top" xlink:title=" ">
<polygon fill="white" stroke="#666666" points="717,-300 613,-300 613,-270 717,-270 717,-300"/>
<text text-anchor="start" x="621" y="-288" font-family="Helvetica,sans-Serif" font-size="10.00">inja::Parser::parse</text>
<text text-anchor="middle" x="665" y="-277" font-family="Helvetica,sans-Serif" font-size="10.00">_statement</text>
</a>
</g>
</g>
<!-- Node2&#45;&gt;Node3 -->
<g id="edge2_Node000002_Node000003" class="edge">
<title>Node2&#45;&gt;Node3</title>
<g id="a_edge2_Node000002_Node000003"><a xlink:title=" ">
<path fill="none" stroke="#63b8ff" d="M766.21,-258.81C749.95,-263.06 732.71,-267.56 717.2,-271.62"/>
<polygon fill="#63b8ff" stroke="#63b8ff" points="767.39,-262.11 776.18,-256.2 765.62,-255.34 767.39,-262.11"/>
</a>
</g>
</g>
<!-- Node4 -->
<g id="Node000004" class="node">
<title>Node4</title>
<g id="a_Node000004"><a xlink:href="classinja_1_1Parser.html#a9a561141f71073df671b2b7ecb4608ba" target="_top" xlink:title=" ">
<polygon fill="white" stroke="#666666" points="558,-294.5 430,-294.5 430,-275.5 558,-275.5 558,-294.5"/>
<text text-anchor="middle" x="494" y="-282.5" font-family="Helvetica,sans-Serif" font-size="10.00">inja::Parser::parse_into</text>
</a>
</g>
</g>
<!-- Node3&#45;&gt;Node4 -->
<g id="edge3_Node000003_Node000004" class="edge">
<title>Node3&#45;&gt;Node4</title>
<g id="a_edge3_Node000003_Node000004"><a xlink:title=" ">
<path fill="none" stroke="#63b8ff" d="M602.54,-285C588.12,-285 572.73,-285 558.24,-285"/>
<polygon fill="#63b8ff" stroke="#63b8ff" points="602.84,-288.5 612.84,-285 602.84,-281.5 602.84,-288.5"/>
</a>
</g>
</g>
<!-- Node5 -->
<g id="Node000005" class="node">
<title>Node5</title>
<g id="a_Node000005"><a xlink:href="classinja_1_1Parser.html#a0f1312b0bf8691aba6cc4590169902fc" target="_top" xlink:title=" ">
<polygon fill="white" stroke="#666666" points="394,-297.5 290,-297.5 290,-278.5 394,-278.5 394,-297.5"/>
<text text-anchor="middle" x="342" y="-285.5" font-family="Helvetica,sans-Serif" font-size="10.00">inja::Parser::parse</text>
</a>
</g>
</g>
<!-- Node4&#45;&gt;Node5 -->
<g id="edge4_Node000004_Node000005" class="edge">
<title>Node4&#45;&gt;Node5</title>
<g id="a_edge4_Node000004_Node000005"><a xlink:title=" ">
<path fill="none" stroke="#63b8ff" d="M419.75,-286.46C411.14,-286.64 402.5,-286.81 394.28,-286.97"/>
<polygon fill="#63b8ff" stroke="#63b8ff" points="419.89,-289.96 429.82,-286.26 419.75,-282.96 419.89,-289.96"/>
</a>
</g>
</g>
<!-- Node9 -->
<g id="Node000009" class="node">
<title>Node9</title>
<g id="a_Node000009"><a xlink:href="classinja_1_1Parser.html#a8c6a03b6665745f216ba86f5e514a913" target="_top" xlink:title=" ">
<polygon fill="white" stroke="#666666" points="394,-260 290,-260 290,-230 394,-230 394,-260"/>
<text text-anchor="start" x="298" y="-248" font-family="Helvetica,sans-Serif" font-size="10.00">inja::Parser::parse</text>
<text text-anchor="middle" x="342" y="-237" font-family="Helvetica,sans-Serif" font-size="10.00">_into_template</text>
</a>
</g>
</g>
<!-- Node4&#45;&gt;Node9 -->
<g id="edge8_Node000004_Node000009" class="edge">
<title>Node4&#45;&gt;Node9</title>
<g id="a_edge8_Node000004_Node000009"><a xlink:title=" ">
<path fill="none" stroke="#63b8ff" d="M447.01,-272.74C430.31,-268.28 411.35,-263.23 394.24,-258.66"/>
<polygon fill="#63b8ff" stroke="#63b8ff" points="446.51,-276.22 457.07,-275.42 448.31,-269.46 446.51,-276.22"/>
</a>
</g>
</g>
<!-- Node6 -->
<g id="Node000006" class="node">
<title>Node6</title>
<g id="a_Node000006"><a xlink:href="classinja_1_1Environment.html#a8421b8d61fc4de15f29c909bd7154f92" target="_top" xlink:title=" ">
<polygon fill="white" stroke="#666666" points="254,-303 145,-303 145,-273 254,-273 254,-303"/>
<text text-anchor="start" x="153" y="-291" font-family="Helvetica,sans-Serif" font-size="10.00">inja::Environment::</text>
<text text-anchor="middle" x="199.5" y="-280" font-family="Helvetica,sans-Serif" font-size="10.00">parse</text>
</a>
</g>
</g>
<!-- Node5&#45;&gt;Node6 -->
<g id="edge5_Node000005_Node000006" class="edge">
<title>Node5&#45;&gt;Node6</title>
<g id="a_edge5_Node000005_Node000006"><a xlink:title=" ">
<path fill="none" stroke="#63b8ff" d="M279.65,-288C271.17,-288 262.51,-288 254.18,-288"/>
<polygon fill="#63b8ff" stroke="#63b8ff" points="279.88,-291.5 289.88,-288 279.88,-284.5 279.88,-291.5"/>
</a>
</g>
</g>
<!-- Node7 -->
<g id="Node000007" class="node">
<title>Node7</title>
<g id="a_Node000007"><a xlink:href="classinja_1_1Environment.html#aac36e0cfdc9e7926914e46c0cd1caada" target="_top" xlink:title=" ">
<polygon fill="white" stroke="#666666" points="109,-340 0,-340 0,-310 109,-310 109,-340"/>
<text text-anchor="start" x="8" y="-328" font-family="Helvetica,sans-Serif" font-size="10.00">inja::Environment::</text>
<text text-anchor="middle" x="54.5" y="-317" font-family="Helvetica,sans-Serif" font-size="10.00">render</text>
</a>
</g>
</g>
<!-- Node6&#45;&gt;Node7 -->
<g id="edge6_Node000006_Node000007" class="edge">
<title>Node6&#45;&gt;Node7</title>
<g id="a_edge6_Node000006_Node000007"><a xlink:title=" ">
<path fill="none" stroke="#63b8ff" d="M134.95,-304.44C126.44,-306.64 117.78,-308.89 109.46,-311.04"/>
<polygon fill="#63b8ff" stroke="#63b8ff" points="136.04,-307.78 144.85,-301.88 134.29,-301 136.04,-307.78"/>
</a>
</g>
</g>
<!-- Node8 -->
<g id="Node000008" class="node">
<title>Node8</title>
<g id="a_Node000008"><a xlink:href="namespaceinja.html#a996f16f78b37d05e19cf44ac74d83e7e" target="_top" xlink:title="render with default settings to the given output stream">
<polygon fill="white" stroke="#666666" points="98,-291.5 11,-291.5 11,-272.5 98,-272.5 98,-291.5"/>
<text text-anchor="middle" x="54.5" y="-279.5" font-family="Helvetica,sans-Serif" font-size="10.00">inja::render_to</text>
</a>
</g>
</g>
<!-- Node6&#45;&gt;Node8 -->
<g id="edge7_Node000006_Node000008" class="edge">
<title>Node6&#45;&gt;Node8</title>
<g id="a_edge7_Node000006_Node000008"><a xlink:title=" ">
<path fill="none" stroke="#63b8ff" d="M134.62,-285.32C122.32,-284.8 109.72,-284.27 98.29,-283.8"/>
<polygon fill="#63b8ff" stroke="#63b8ff" points="134.71,-288.83 144.85,-285.75 135,-281.83 134.71,-288.83"/>
</a>
</g>
</g>
<!-- Node9&#45;&gt;Node2 -->
<g id="edge9_Node000009_Node000002" class="edge">
<title>Node9&#45;&gt;Node2</title>
<g id="a_edge9_Node000009_Node000002"><a xlink:title=" ">
<path fill="none" stroke="#63b8ff" d="M404.48,-244.62C500.65,-244.03 685.1,-242.89 776.47,-242.33"/>
<polygon fill="#63b8ff" stroke="#63b8ff" points="404.31,-241.12 394.33,-244.68 404.35,-248.12 404.31,-241.12"/>
</a>
</g>
</g>
<!-- Node10 -->
<g id="Node000010" class="node">
<title>Node10</title>
<g id="a_Node000010"><a xlink:href="classinja_1_1Environment.html#aa46ccc27cc803933e0bfc9f58bba389c" target="_top" xlink:title=" ">
<polygon fill="white" stroke="#666666" points="254,-236 145,-236 145,-206 254,-206 254,-236"/>
<text text-anchor="start" x="153" y="-224" font-family="Helvetica,sans-Serif" font-size="10.00">inja::Environment::</text>
<text text-anchor="middle" x="199.5" y="-213" font-family="Helvetica,sans-Serif" font-size="10.00">parse_template</text>
</a>
</g>
</g>
<!-- Node9&#45;&gt;Node10 -->
<g id="edge10_Node000009_Node000010" class="edge">
<title>Node9&#45;&gt;Node10</title>
<g id="a_edge10_Node000009_Node000010"><a xlink:title=" ">
<path fill="none" stroke="#63b8ff" d="M279.93,-234.57C271.36,-233.1 262.6,-231.61 254.18,-230.17"/>
<polygon fill="#63b8ff" stroke="#63b8ff" points="279.43,-238.03 289.88,-236.27 280.61,-231.13 279.43,-238.03"/>
</a>
</g>
</g>
<!-- Node11 -->
<g id="Node000011" class="node">
<title>Node11</title>
<g id="a_Node000011"><a xlink:href="classinja_1_1Environment.html#a988701e4eb7fef51f2a3bd5ec74dd156" target="_top" xlink:title=" ">
<polygon fill="white" stroke="#666666" points="109,-242 0,-242 0,-212 109,-212 109,-242"/>
<text text-anchor="start" x="8" y="-230" font-family="Helvetica,sans-Serif" font-size="10.00">inja::Environment::</text>
<text text-anchor="middle" x="54.5" y="-219" font-family="Helvetica,sans-Serif" font-size="10.00">parse_file</text>
</a>
</g>
</g>
<!-- Node10&#45;&gt;Node11 -->
<g id="edge11_Node000010_Node000011" class="edge">
<title>Node10&#45;&gt;Node11</title>
<g id="a_edge11_Node000010_Node000011"><a xlink:title=" ">
<path fill="none" stroke="#63b8ff" d="M134.68,-223.68C126.25,-224.03 117.69,-224.39 109.46,-224.74"/>
<polygon fill="#63b8ff" stroke="#63b8ff" points="135,-227.17 144.85,-223.25 134.71,-220.17 135,-227.17"/>
</a>
</g>
</g>
<!-- Node12 -->
<g id="Node000012" class="node">
<title>Node12</title>
<g id="a_Node000012"><a xlink:href="classinja_1_1Environment.html#aaefdd9061b23f1764056689fe8c31e30" target="_top" xlink:title=" ">
<polygon fill="white" stroke="#666666" points="109,-194 0,-194 0,-164 109,-164 109,-194"/>
<text text-anchor="start" x="8" y="-182" font-family="Helvetica,sans-Serif" font-size="10.00">inja::Environment::</text>
<text text-anchor="middle" x="54.5" y="-171" font-family="Helvetica,sans-Serif" font-size="10.00">render_file</text>
</a>
</g>
</g>
<!-- Node10&#45;&gt;Node12 -->
<g id="edge12_Node000010_Node000012" class="edge">
<title>Node10&#45;&gt;Node12</title>
<g id="a_edge12_Node000010_Node000012"><a xlink:title=" ">
<path fill="none" stroke="#63b8ff" d="M137.58,-203.11C127.34,-200.1 116.81,-197.01 106.85,-194.08"/>
<polygon fill="#63b8ff" stroke="#63b8ff" points="136.7,-206.5 147.28,-205.96 138.67,-199.78 136.7,-206.5"/>
</a>
</g>
</g>
<!-- Node13&#45;&gt;Node10 -->
<g id="edge15_Node000013_Node000010" class="edge">
<title>Node13&#45;&gt;Node10</title>
<g id="a_edge15_Node000013_Node000010"><a xlink:title=" ">
<path fill="none" stroke="#63b8ff" d="M761.47,-183.6C634.97,-192.04 368.54,-209.8 254.33,-217.41"/>
<polygon fill="#63b8ff" stroke="#63b8ff" points="762.05,-187.07 771.8,-182.91 761.59,-180.09 762.05,-187.07"/>
</a>
</g>
</g>
<!-- Node14 -->
<g id="Node000014" class="node">
<title>Node14</title>
<g id="a_Node000014"><a xlink:href="classinja_1_1Environment.html#a686f69e3cb4f91d439aadadfc60e1ebb" target="_top" xlink:title=" ">
<polygon fill="white" stroke="#666666" points="719.5,-174 610.5,-174 610.5,-144 719.5,-144 719.5,-174"/>
<text text-anchor="start" x="618.5" y="-162" font-family="Helvetica,sans-Serif" font-size="10.00">inja::Environment::</text>
<text text-anchor="middle" x="665" y="-151" font-family="Helvetica,sans-Serif" font-size="10.00">load_file</text>
</a>
</g>
</g>
<!-- Node13&#45;&gt;Node14 -->
<g id="edge14_Node000013_Node000014" class="edge">
<title>Node13&#45;&gt;Node14</title>
<g id="a_edge14_Node000013_Node000014"><a xlink:title=" ">
<path fill="none" stroke="#63b8ff" d="M761.5,-170.61C747.49,-168.91 732.96,-167.14 719.59,-165.52"/>
<polygon fill="#63b8ff" stroke="#63b8ff" points="761.23,-174.1 771.58,-171.84 762.07,-167.15 761.23,-174.1"/>
</a>
</g>
</g>
<!-- Node16 -->
<g id="Node000016" class="node">
<title>Node16</title>
<g id="a_Node000016"><a xlink:href="classinja_1_1Environment.html#a6e6c345cd66ebdfe8a9d47d59efb5e84" target="_top" xlink:title=" ">
<polygon fill="white" stroke="#666666" points="736,-126 594,-126 594,-96 736,-96 736,-126"/>
<text text-anchor="start" x="602" y="-114" font-family="Helvetica,sans-Serif" font-size="10.00">inja::Environment::</text>
<text text-anchor="middle" x="665" y="-103" font-family="Helvetica,sans-Serif" font-size="10.00">render_file_with_json_file</text>
</a>
</g>
</g>
<!-- Node15&#45;&gt;Node16 -->
<g id="edge17_Node000015_Node000016" class="edge">
<title>Node15&#45;&gt;Node16</title>
<g id="a_edge17_Node000015_Node000016"><a xlink:title=" ">
<path fill="none" stroke="#63b8ff" d="M766.45,-96.34C756.52,-97.79 746.21,-99.3 736.16,-100.76"/>
<polygon fill="#63b8ff" stroke="#63b8ff" points="767.25,-99.77 776.64,-94.86 766.24,-92.84 767.25,-99.77"/>
</a>
</g>
</g>
<!-- Node17 -->
<g id="Node000017" class="node">
<title>Node17</title>
<g id="a_Node000017"><a xlink:href="classinja_1_1Environment.html#ad3e8c39b341641a872e62010693c27c3" target="_top" xlink:title=" ">
<polygon fill="white" stroke="#666666" points="722,-78 608,-78 608,-48 722,-48 722,-78"/>
<text text-anchor="start" x="616" y="-66" font-family="Helvetica,sans-Serif" font-size="10.00">inja::Environment::</text>
<text text-anchor="middle" x="665" y="-55" font-family="Helvetica,sans-Serif" font-size="10.00">write_with_json_file</text>
</a>
</g>
</g>
<!-- Node15&#45;&gt;Node17 -->
<g id="edge18_Node000015_Node000017" class="edge">
<title>Node15&#45;&gt;Node17</title>
<g id="a_edge18_Node000015_Node000017"><a xlink:title=" ">
<path fill="none" stroke="#63b8ff" d="M766.65,-77.68C752.01,-75.55 736.54,-73.29 722.24,-71.21"/>
<polygon fill="#63b8ff" stroke="#63b8ff" points="766.24,-81.16 776.64,-79.14 767.25,-74.23 766.24,-81.16"/>
</a>
</g>
</g>
<!-- Node18 -->
<g id="Node000018" class="node">
<title>Node18</title>
<g id="a_Node000018"><a xlink:href="classinja_1_1Environment.html#a9c6eb9a291cf99615991f999128248a7" target="_top" xlink:title=" ">
<polygon fill="white" stroke="#666666" points="722,-30 608,-30 608,0 722,0 722,-30"/>
<text text-anchor="start" x="616" y="-18" font-family="Helvetica,sans-Serif" font-size="10.00">inja::Environment::</text>
<text text-anchor="middle" x="665" y="-7" font-family="Helvetica,sans-Serif" font-size="10.00">write_with_json_file</text>
</a>
</g>
</g>
<!-- Node15&#45;&gt;Node18 -->
<g id="edge19_Node000015_Node000018" class="edge">
<title>Node15&#45;&gt;Node18</title>
<g id="a_edge19_Node000015_Node000018"><a xlink:title=" ">
<path fill="none" stroke="#63b8ff" d="M794.08,-67C776.76,-57.88 755.59,-47.29 736,-39 728.66,-35.9 720.78,-32.89 713.03,-30.11"/>
<polygon fill="#63b8ff" stroke="#63b8ff" points="792.8,-70.28 803.28,-71.89 796.09,-64.11 792.8,-70.28"/>
</a>
</g>
</g>
</g>
</svg>
