<?xml version="1.0" encoding="UTF-8" standalone="no"?>
<!DOCTYPE svg PUBLIC "-//W3C//DTD SVG 1.1//EN"
 "http://www.w3.org/Graphics/SVG/1.1/DTD/svg11.dtd">
<!-- Generated by graphviz version 2.42.4 (0)
 -->
<!-- Title: inja::Template Pages: 1 -->
<svg width="408pt" height="603pt"
 viewBox="0.00 0.00 408.00 603.00" xmlns="http://www.w3.org/2000/svg" xmlns:xlink="http://www.w3.org/1999/xlink">
<g id="graph0" class="graph" transform="scale(1 1) rotate(0) translate(4 599)">
<title>inja::Template</title>
<!-- Node1 -->
<g id="Node000001" class="node">
<title>Node1</title>
<g id="a_Node000001"><a xlink:title="The main inja Template.">
<polygon fill="#999999" stroke="transparent" points="175,-19 97,-19 97,0 175,0 175,-19"/>
<text text-anchor="start" x="101" y="-6.5" font-family="Helvetica,sans-Serif" font-size="10.00">inja::Template</text>
<polygon fill="none" stroke="#666666" points="97,0 97,-19 175,-19 175,0 97,0"/>
</a>
</g>
</g>
<!-- Node2 -->
<g id="Node000002" class="node">
<title>Node2</title>
<g id="a_Node000002"><a xlink:href="classinja_1_1BlockNode.html" target="_top" xlink:title=" ">
<polygon fill="white" stroke="transparent" points="303,-355 217,-355 217,-336 303,-336 303,-355"/>
<text text-anchor="start" x="221.5" y="-342.5" font-family="Helvetica,sans-Serif" font-size="10.00">inja::BlockNode</text>
<polygon fill="none" stroke="#666666" points="217,-336 217,-355 303,-355 303,-336 217,-336"/>
</a>
</g>
</g>
<!-- Node2&#45;&gt;Node1 -->
<g id="edge1_Node000001_Node000002" class="edge">
<title>Node2&#45;&gt;Node1</title>
<g id="a_edge1_Node000001_Node000002"><a xlink:title=" ">
<path fill="none" stroke="#63b8ff" d="M262.44,-335.65C266.45,-320.28 274,-287.62 274,-259.5 274,-259.5 274,-259.5 274,-91.5 274,-49.71 226.34,-29.06 187.04,-19.14"/>
<polygon fill="none" stroke="#63b8ff" points="186.87,-19.1 180.12,-21.65 175.18,-16.4 181.92,-13.85 186.87,-19.1"/>
</a>
</g>
<text text-anchor="start" x="277" y="-178" font-family="Helvetica,sans-Serif" font-size="10.00" fill="grey">+root</text>
</g>
<!-- Node10 -->
<g id="Node000010" class="node">
<title>Node10</title>
<g id="a_Node000010"><a xlink:href="classinja_1_1BlockStatementNode.html" target="_top" xlink:title=" ">
<polygon fill="white" stroke="transparent" points="244,-268 108,-268 108,-249 244,-249 244,-268"/>
<text text-anchor="start" x="112" y="-255.5" font-family="Helvetica,sans-Serif" font-size="10.00">inja::BlockStatementNode</text>
<polygon fill="none" stroke="#666666" points="108,-249 108,-268 244,-268 244,-249 108,-249"/>
</a>
</g>
</g>
<!-- Node2&#45;&gt;Node10 -->
<g id="edge15_Node000010_Node000002" class="edge">
<title>Node2&#45;&gt;Node10</title>
<g id="a_edge15_Node000010_Node000002"><a xlink:title=" ">
<path fill="none" stroke="#63b8ff" d="M240.74,-335.99C231.93,-331.49 221.76,-325.36 214,-318 202.27,-306.88 192.44,-291.45 185.72,-279.23"/>
<polygon fill="none" stroke="#63b8ff" points="185.6,-279 179.29,-275.52 180.08,-268.35 186.39,-271.84 185.6,-279"/>
</a>
</g>
<text text-anchor="start" x="217" y="-307" font-family="Helvetica,sans-Serif" font-size="10.00" fill="grey">+block</text>
<text text-anchor="start" x="217" y="-292" font-family="Helvetica,sans-Serif" font-size="10.00" fill="grey">+parent</text>
</g>
<!-- Node3 -->
<g id="Node000003" class="node">
<title>Node3</title>
<g id="a_Node000003"><a xlink:href="classinja_1_1AstNode.html" target="_top" xlink:title="Base node class for the abstract syntax tree (AST).">
<polygon fill="white" stroke="transparent" points="283,-595 209,-595 209,-576 283,-576 283,-595"/>
<text text-anchor="start" x="213" y="-582.5" font-family="Helvetica,sans-Serif" font-size="10.00">inja::AstNode</text>
<polygon fill="none" stroke="#666666" points="209,-576 209,-595 283,-595 283,-576 209,-576"/>
</a>
</g>
</g>
<!-- Node3&#45;&gt;Node2 -->
<g id="edge2_Node000002_Node000003" class="edge">
<title>Node3&#45;&gt;Node2</title>
<g id="a_edge2_Node000002_Node000003"><a xlink:title=" ">
<path fill="none" stroke="#63b8ff" d="M247.11,-565.71C249.96,-517.24 257.48,-389.4 259.5,-355.08"/>
<polygon fill="none" stroke="#63b8ff" points="243.61,-565.56 246.51,-575.75 250.6,-565.97 243.61,-565.56"/>
</a>
</g>
</g>
<!-- Node5 -->
<g id="Node000005" class="node">
<title>Node5</title>
<g id="a_Node000005"><a xlink:title=" ">
<polygon fill="white" stroke="transparent" points="389,-523 277,-523 277,-493 389,-493 389,-523"/>
<text text-anchor="start" x="281.5" y="-511" font-family="Helvetica,sans-Serif" font-size="10.00">std::shared_ptr&lt; inja</text>
<text text-anchor="start" x="303.5" y="-500" font-family="Helvetica,sans-Serif" font-size="10.00">::AstNode &gt;</text>
<polygon fill="none" stroke="#666666" points="277,-493 277,-523 389,-523 389,-493 277,-493"/>
</a>
</g>
</g>
<!-- Node3&#45;&gt;Node5 -->
<g id="edge5_Node000005_Node000003" class="edge">
<title>Node3&#45;&gt;Node5</title>
<g id="a_edge5_Node000005_Node000003"><a xlink:title=" ">
<path fill="none" stroke="#63b8ff" d="M255.98,-575.84C268.37,-565.09 289.96,-546.35 307.13,-531.45"/>
<polygon fill="none" stroke="#63b8ff" points="307.57,-531.07 309.48,-524.12 316.63,-523.21 314.72,-530.16 307.57,-531.07"/>
</a>
</g>
<text text-anchor="start" x="297" y="-546.5" font-family="Helvetica,sans-Serif" font-size="10.00" fill="grey">+ptr</text>
</g>
<!-- Node11 -->
<g id="Node000011" class="node">
<title>Node11</title>
<g id="a_Node000011"><a xlink:href="classinja_1_1StatementNode.html" target="_top" xlink:title=" ">
<polygon fill="white" stroke="transparent" points="231,-475 121,-475 121,-456 231,-456 231,-475"/>
<text text-anchor="start" x="125.5" y="-462.5" font-family="Helvetica,sans-Serif" font-size="10.00">inja::StatementNode</text>
<polygon fill="none" stroke="#666666" points="121,-456 121,-475 231,-475 231,-456 121,-456"/>
</a>
</g>
</g>
<!-- Node3&#45;&gt;Node11 -->
<g id="edge13_Node000011_Node000003" class="edge">
<title>Node3&#45;&gt;Node11</title>
<g id="a_edge13_Node000011_Node000003"><a xlink:title=" ">
<path fill="none" stroke="#63b8ff" d="M235.57,-566.92C220.34,-541.25 192.57,-494.43 181.13,-475.15"/>
<polygon fill="none" stroke="#63b8ff" points="232.63,-568.82 240.74,-575.63 238.65,-565.24 232.63,-568.82"/>
</a>
</g>
</g>
<!-- Node4 -->
<g id="Node000004" class="node">
<title>Node4</title>
<g id="a_Node000004"><a xlink:title=" ">
<polygon fill="white" stroke="transparent" points="400,-438 274,-438 274,-408 400,-408 400,-438"/>
<text text-anchor="start" x="278" y="-426" font-family="Helvetica,sans-Serif" font-size="10.00">std::vector&lt; std::shared</text>
<text text-anchor="start" x="278" y="-415" font-family="Helvetica,sans-Serif" font-size="10.00">_ptr&lt; inja::AstNode &gt; &gt;</text>
<polygon fill="none" stroke="#666666" points="274,-408 274,-438 400,-438 400,-408 274,-408"/>
</a>
</g>
</g>
<!-- Node4&#45;&gt;Node2 -->
<g id="edge3_Node000002_Node000004" class="edge">
<title>Node4&#45;&gt;Node2</title>
<g id="a_edge3_Node000002_Node000004"><a xlink:title=" ">
<path fill="none" stroke="#63b8ff" d="M322.52,-407.8C309.76,-395.29 291.14,-377.03 277.54,-363.69"/>
<polygon fill="none" stroke="#63b8ff" points="277.24,-363.41 270.16,-362.06 268.68,-355.01 275.76,-356.35 277.24,-363.41"/>
</a>
</g>
<text text-anchor="start" x="306" y="-378.5" font-family="Helvetica,sans-Serif" font-size="10.00" fill="grey">+nodes</text>
</g>
<!-- Node5&#45;&gt;Node4 -->
<g id="edge4_Node000004_Node000005" class="edge">
<title>Node5&#45;&gt;Node4</title>
<g id="a_edge4_Node000004_Node000005"><a xlink:title=" ">
<path fill="none" stroke="#63b8ff" d="M333.68,-492.92C334.24,-481.23 335.06,-464.3 335.74,-450.14"/>
<polygon fill="none" stroke="#63b8ff" points="335.74,-450.13 332.03,-443.95 336.32,-438.15 340.02,-444.33 335.74,-450.13"/>
</a>
</g>
<text text-anchor="start" x="338.5" y="-462.5" font-family="Helvetica,sans-Serif" font-size="10.00" fill="grey">+elements</text>
</g>
<!-- Node6 -->
<g id="Node000006" class="node">
<title>Node6</title>
<g id="a_Node000006"><a xlink:title=" ">
<polygon fill="white" stroke="transparent" points="109,-355 51,-355 51,-336 109,-336 109,-355"/>
<text text-anchor="start" x="55.5" y="-342.5" font-family="Helvetica,sans-Serif" font-size="10.00">std::string</text>
<polygon fill="none" stroke="#666666" points="51,-336 51,-355 109,-355 109,-336 51,-336"/>
</a>
</g>
</g>
<!-- Node6&#45;&gt;Node1 -->
<g id="edge6_Node000001_Node000006" class="edge">
<title>Node6&#45;&gt;Node1</title>
<g id="a_edge6_Node000001_Node000006"><a xlink:title=" ">
<path fill="none" stroke="#63b8ff" d="M62.64,-335.9C39.11,-322.88 0,-295.77 0,-259.5 0,-259.5 0,-259.5 0,-91.5 0,-50.41 46.4,-29.68 85,-19.55"/>
<polygon fill="none" stroke="#63b8ff" points="85,-19.55 89.89,-14.26 96.66,-16.74 91.77,-22.04 85,-19.55"/>
</a>
</g>
<text text-anchor="start" x="3" y="-178" font-family="Helvetica,sans-Serif" font-size="10.00" fill="grey">+content</text>
</g>
<!-- Node8 -->
<g id="Node000008" class="node">
<title>Node8</title>
<g id="a_Node000008"><a xlink:title=" ">
<polygon fill="white" stroke="transparent" points="207,-113 65,-113 65,-72 207,-72 207,-113"/>
<text text-anchor="start" x="69.5" y="-100.5" font-family="Helvetica,sans-Serif" font-size="10.00">std::map&lt; std::string,</text>
<text text-anchor="start" x="69.5" y="-89.5" font-family="Helvetica,sans-Serif" font-size="10.00"> std::shared_ptr&lt; inja</text>
<text text-anchor="start" x="69.5" y="-78.5" font-family="Helvetica,sans-Serif" font-size="10.00">::BlockStatementNode &gt; &gt;</text>
<polygon fill="none" stroke="#666666" points="65,-72 65,-113 207,-113 207,-72 65,-72"/>
</a>
</g>
</g>
<!-- Node6&#45;&gt;Node8 -->
<g id="edge9_Node000008_Node000006" class="edge">
<title>Node6&#45;&gt;Node8</title>
<g id="a_edge9_Node000008_Node000006"><a xlink:title=" ">
<path fill="none" stroke="#63b8ff" d="M79.82,-335.74C79.5,-309.42 80.26,-229.03 99,-166 103.29,-151.58 110.4,-136.63 117.26,-124.07"/>
<polygon fill="none" stroke="#63b8ff" points="117.45,-123.72 116.94,-116.53 123.39,-113.29 123.9,-120.48 117.45,-123.72"/>
</a>
</g>
<text text-anchor="start" x="91.5" y="-219.5" font-family="Helvetica,sans-Serif" font-size="10.00" fill="grey">+keys</text>
</g>
<!-- Node6&#45;&gt;Node10 -->
<g id="edge14_Node000010_Node000006" class="edge">
<title>Node6&#45;&gt;Node10</title>
<g id="a_edge14_Node000010_Node000006"><a xlink:title=" ">
<path fill="none" stroke="#63b8ff" d="M84.95,-335.89C93.34,-321.52 110.29,-293.47 119,-286 124.93,-280.92 131.99,-276.61 139.09,-273.03"/>
<polygon fill="none" stroke="#63b8ff" points="139.21,-272.98 143.01,-266.86 150.13,-268.02 146.32,-274.14 139.21,-272.98"/>
</a>
</g>
<text text-anchor="start" x="122.5" y="-299" font-family="Helvetica,sans-Serif" font-size="10.00" fill="grey">+name</text>
</g>
<!-- Node7 -->
<g id="Node000007" class="node">
<title>Node7</title>
<g id="a_Node000007"><a xlink:title=" ">
<polygon fill="white" stroke="transparent" points="128,-438 32,-438 32,-408 128,-408 128,-438"/>
<text text-anchor="start" x="36" y="-426" font-family="Helvetica,sans-Serif" font-size="10.00">std::basic_string&lt;</text>
<text text-anchor="start" x="61.5" y="-415" font-family="Helvetica,sans-Serif" font-size="10.00"> Char &gt;</text>
<polygon fill="none" stroke="#666666" points="32,-408 32,-438 128,-438 128,-408 32,-408"/>
</a>
</g>
</g>
<!-- Node7&#45;&gt;Node6 -->
<g id="edge7_Node000006_Node000007" class="edge">
<title>Node7&#45;&gt;Node6</title>
<g id="a_edge7_Node000006_Node000007"><a xlink:title=" ">
<path fill="none" stroke="#63b8ff" d="M80,-397.4C80,-382.81 80,-365.22 80,-355.01"/>
<polygon fill="none" stroke="#63b8ff" points="76.5,-397.8 80,-407.8 83.5,-397.8 76.5,-397.8"/>
</a>
</g>
</g>
<!-- Node8&#45;&gt;Node1 -->
<g id="edge8_Node000001_Node000008" class="edge">
<title>Node8&#45;&gt;Node1</title>
<g id="a_edge8_Node000001_Node000008"><a xlink:title=" ">
<path fill="none" stroke="#63b8ff" d="M136,-71.89C136,-59.65 136,-43.89 136,-31.41"/>
<polygon fill="none" stroke="#63b8ff" points="136,-31.06 132,-25.06 136,-19.06 140,-25.06 136,-31.06"/>
</a>
</g>
<text text-anchor="start" x="139.5" y="-42.5" font-family="Helvetica,sans-Serif" font-size="10.00" fill="grey">+block_storage</text>
</g>
<!-- Node9 -->
<g id="Node000009" class="node">
<title>Node9</title>
<g id="a_Node000009"><a xlink:title=" ">
<polygon fill="white" stroke="transparent" points="238,-196 108,-196 108,-166 238,-166 238,-196"/>
<text text-anchor="start" x="112.5" y="-184" font-family="Helvetica,sans-Serif" font-size="10.00">std::shared_ptr&lt; inja</text>
<text text-anchor="start" x="112.5" y="-173" font-family="Helvetica,sans-Serif" font-size="10.00">::BlockStatementNode &gt;</text>
<polygon fill="none" stroke="#666666" points="108,-166 108,-196 238,-196 238,-166 108,-166"/>
</a>
</g>
</g>
<!-- Node9&#45;&gt;Node8 -->
<g id="edge10_Node000008_Node000009" class="edge">
<title>Node9&#45;&gt;Node8</title>
<g id="a_edge10_Node000008_Node000009"><a xlink:title=" ">
<path fill="none" stroke="#63b8ff" d="M166.89,-165.72C162.11,-154.54 155.29,-138.6 149.28,-124.54"/>
<polygon fill="none" stroke="#63b8ff" points="149.19,-124.34 143.15,-120.4 144.47,-113.31 150.51,-117.25 149.19,-124.34"/>
</a>
</g>
<text text-anchor="start" x="162.5" y="-136.5" font-family="Helvetica,sans-Serif" font-size="10.00" fill="grey">+elements</text>
</g>
<!-- Node10&#45;&gt;Node9 -->
<g id="edge11_Node000009_Node000010" class="edge">
<title>Node10&#45;&gt;Node9</title>
<g id="a_edge11_Node000009_Node000010"><a xlink:title=" ">
<path fill="none" stroke="#63b8ff" d="M175.66,-248.84C175.26,-238.99 174.61,-222.45 174.04,-208.29"/>
<polygon fill="none" stroke="#63b8ff" points="174.04,-208.2 169.81,-202.36 173.56,-196.21 177.8,-202.04 174.04,-208.2"/>
</a>
</g>
<text text-anchor="start" x="178" y="-219.5" font-family="Helvetica,sans-Serif" font-size="10.00" fill="grey">+ptr</text>
</g>
<!-- Node11&#45;&gt;Node10 -->
<g id="edge12_Node000010_Node000011" class="edge">
<title>Node11&#45;&gt;Node10</title>
<g id="a_edge12_Node000010_Node000011"><a xlink:title=" ">
<path fill="none" stroke="#63b8ff" d="M176,-445.8C176,-402.88 176,-298.68 176,-268.08"/>
<polygon fill="none" stroke="#63b8ff" points="172.5,-445.95 176,-455.95 179.5,-445.95 172.5,-445.95"/>
</a>
</g>
</g>
</g>
</svg>
