<?xml version="1.0" encoding="UTF-8" standalone="no"?>
<!DOCTYPE svg PUBLIC "-//W3C//DTD SVG 1.1//EN"
 "http://www.w3.org/Graphics/SVG/1.1/DTD/svg11.dtd">
<!-- Generated by graphviz version 14.1.2 (0)
 -->
<!-- Title: inja::InjaError::InjaError Pages: 1 -->
<svg width="1871pt" height="407pt"
 viewBox="0.00 0.00 1871.00 407.00" xmlns="http://www.w3.org/2000/svg" xmlns:xlink="http://www.w3.org/1999/xlink">
<g id="graph0" class="graph" transform="scale(1 1) rotate(0) translate(4 402.5)">
<title>inja::InjaError::InjaError</title>
<!-- Node1 -->
<g id="Node000001" class="node">
<title>Node1</title>
<g id="a_Node000001"><a xlink:title=" ">
<polygon fill="#999999" stroke="#666666" points="1863,-146.12 1734.5,-146.12 1734.5,-125.38 1863,-125.38 1863,-146.12"/>
<text xml:space="preserve" text-anchor="middle" x="1798.75" y="-132.62" font-family="Helvetica,sans-Serif" font-size="10.00">inja::InjaError::InjaError</text>
</a>
</g>
</g>
<!-- Node2 -->
<g id="Node000002" class="node">
<title>Node2</title>
<g id="a_Node000002"><a xlink:href="structinja_1_1FileError.html#a0912694cd232d6cd688f0f68336145c9" target="_top" xlink:title=" ">
<polygon fill="white" stroke="#666666" points="1698.5,-146.12 1573,-146.12 1573,-125.38 1698.5,-125.38 1698.5,-146.12"/>
<text xml:space="preserve" text-anchor="middle" x="1635.75" y="-132.62" font-family="Helvetica,sans-Serif" font-size="10.00">inja::FileError::FileError</text>
</a>
</g>
</g>
<!-- Node1&#45;&gt;Node2 -->
<g id="edge1_Node000001_Node000002" class="edge">
<title>Node1&#45;&gt;Node2</title>
<g id="a_edge1_Node000001_Node000002"><a xlink:title=" ">
<path fill="none" stroke="#63b8ff" d="M1722.85,-135.75C1714.82,-135.75 1706.72,-135.75 1698.87,-135.75"/>
<polygon fill="#63b8ff" stroke="#63b8ff" points="1722.61,-139.25 1732.6,-135.75 1722.6,-132.25 1722.61,-139.25"/>
</a>
</g>
</g>
<!-- Node3 -->
<g id="Node000003" class="node">
<title>Node3</title>
<g id="a_Node000003"><a xlink:href="classinja_1_1Parser.html#aa756be380c1083f47c6bd774eb3c8c38" target="_top" xlink:title=" ">
<polygon fill="white" stroke="#666666" points="1532.5,-218.5 1422.75,-218.5 1422.75,-185 1532.5,-185 1532.5,-218.5"/>
<text xml:space="preserve" text-anchor="start" x="1430.75" y="-205" font-family="Helvetica,sans-Serif" font-size="10.00">inja::Parser::add_to</text>
<text xml:space="preserve" text-anchor="middle" x="1477.62" y="-192.25" font-family="Helvetica,sans-Serif" font-size="10.00">_template_storage</text>
</a>
</g>
</g>
<!-- Node2&#45;&gt;Node3 -->
<g id="edge2_Node000002_Node000003" class="edge">
<title>Node2&#45;&gt;Node3</title>
<g id="a_edge2_Node000002_Node000003"><a xlink:title=" ">
<path fill="none" stroke="#63b8ff" d="M1598.98,-150.87C1575.23,-160.91 1544,-174.11 1519.3,-184.56"/>
<polygon fill="#63b8ff" stroke="#63b8ff" points="1600.08,-154.21 1607.92,-147.09 1597.35,-147.76 1600.08,-154.21"/>
</a>
</g>
</g>
<!-- Node25 -->
<g id="Node000025" class="node">
<title>Node25</title>
<g id="a_Node000025"><a xlink:href="classinja_1_1Parser.html#ab256584c508f34b282f9c802ba4bc095" target="_top" xlink:title=" ">
<polygon fill="white" stroke="#666666" points="1537,-146.12 1418.25,-146.12 1418.25,-125.38 1537,-125.38 1537,-146.12"/>
<text xml:space="preserve" text-anchor="middle" x="1477.62" y="-132.62" font-family="Helvetica,sans-Serif" font-size="10.00">inja::Parser::load_file</text>
</a>
</g>
</g>
<!-- Node2&#45;&gt;Node25 -->
<g id="edge25_Node000002_Node000025" class="edge">
<title>Node2&#45;&gt;Node25</title>
<g id="a_edge25_Node000002_Node000025"><a xlink:title=" ">
<path fill="none" stroke="#63b8ff" d="M1561.29,-135.75C1553.23,-135.75 1545.11,-135.75 1537.26,-135.75"/>
<polygon fill="#63b8ff" stroke="#63b8ff" points="1561.08,-139.25 1571.08,-135.75 1561.08,-132.25 1561.08,-139.25"/>
</a>
</g>
</g>
<!-- Node27 -->
<g id="Node000027" class="node">
<title>Node27</title>
<g id="a_Node000027"><a xlink:href="classinja_1_1Environment.html#a63883423839a4c9651997e14ee9bd10b" target="_top" xlink:title=" ">
<polygon fill="white" stroke="#666666" points="790.25,-78.5 682,-78.5 682,-45 790.25,-45 790.25,-78.5"/>
<text xml:space="preserve" text-anchor="start" x="690" y="-65" font-family="Helvetica,sans-Serif" font-size="10.00">inja::Environment::</text>
<text xml:space="preserve" text-anchor="middle" x="736.12" y="-52.25" font-family="Helvetica,sans-Serif" font-size="10.00">load_json</text>
</a>
</g>
</g>
<!-- Node2&#45;&gt;Node27 -->
<g id="edge28_Node000002_Node000027" class="edge">
<title>Node2&#45;&gt;Node27</title>
<g id="a_edge28_Node000002_Node000027"><a xlink:title=" ">
<path fill="none" stroke="#63b8ff" d="M1594.88,-121.23C1537.12,-101.53 1426.39,-68.75 1329.12,-68.75 1329.12,-68.75 1329.12,-68.75 1021.38,-68.75 940.91,-68.75 847.68,-65.91 790.55,-63.85"/>
<polygon fill="#63b8ff" stroke="#63b8ff" points="1593.69,-124.52 1604.28,-124.49 1595.98,-117.91 1593.69,-124.52"/>
</a>
</g>
</g>
<!-- Node4 -->
<g id="Node000004" class="node">
<title>Node4</title>
<g id="a_Node000004"><a xlink:href="classinja_1_1Parser.html#afdea619b58c4db677d49c0481d6a9a4b" target="_top" xlink:title=" ">
<polygon fill="white" stroke="#666666" points="1380,-263.5 1276.25,-263.5 1276.25,-230 1380,-230 1380,-263.5"/>
<text xml:space="preserve" text-anchor="start" x="1284.25" y="-250" font-family="Helvetica,sans-Serif" font-size="10.00">inja::Parser::parse</text>
<text xml:space="preserve" text-anchor="middle" x="1328.12" y="-237.25" font-family="Helvetica,sans-Serif" font-size="10.00">_statement</text>
</a>
</g>
</g>
<!-- Node3&#45;&gt;Node4 -->
<g id="edge3_Node000003_Node000004" class="edge">
<title>Node3&#45;&gt;Node4</title>
<g id="a_edge3_Node000003_Node000004"><a xlink:title=" ">
<path fill="none" stroke="#63b8ff" d="M1411.69,-221.56C1401.17,-224.77 1390.4,-228.06 1380.26,-231.15"/>
<polygon fill="#63b8ff" stroke="#63b8ff" points="1412.55,-224.96 1421.09,-218.69 1410.51,-218.26 1412.55,-224.96"/>
</a>
</g>
</g>
<!-- Node5 -->
<g id="Node000005" class="node">
<title>Node5</title>
<g id="a_Node000005"><a xlink:href="classinja_1_1Parser.html#a325c55a6c060f76d0d83b4d187b1ef33" target="_top" xlink:title=" ">
<polygon fill="white" stroke="#666666" points="1238,-257.12 1110.25,-257.12 1110.25,-236.38 1238,-236.38 1238,-257.12"/>
<text xml:space="preserve" text-anchor="middle" x="1174.12" y="-243.62" font-family="Helvetica,sans-Serif" font-size="10.00">inja::Parser::parse_into</text>
</a>
</g>
</g>
<!-- Node4&#45;&gt;Node5 -->
<g id="edge4_Node000004_Node000005" class="edge">
<title>Node4&#45;&gt;Node5</title>
<g id="a_edge4_Node000004_Node000005"><a xlink:title=" ">
<path fill="none" stroke="#63b8ff" d="M1264.83,-246.75C1256.12,-246.75 1247.17,-246.75 1238.45,-246.75"/>
<polygon fill="#63b8ff" stroke="#63b8ff" points="1264.57,-250.25 1274.57,-246.75 1264.57,-243.25 1264.57,-250.25"/>
</a>
</g>
</g>
<!-- Node6 -->
<g id="Node000006" class="node">
<title>Node6</title>
<g id="a_Node000006"><a xlink:href="classinja_1_1Parser.html#ae9cf060e992d2a12b7fd47b346d8bd64" target="_top" xlink:title=" ">
<polygon fill="white" stroke="#666666" points="1074.25,-264.12 970.5,-264.12 970.5,-243.38 1074.25,-243.38 1074.25,-264.12"/>
<text xml:space="preserve" text-anchor="middle" x="1022.38" y="-250.62" font-family="Helvetica,sans-Serif" font-size="10.00">inja::Parser::parse</text>
</a>
</g>
</g>
<!-- Node5&#45;&gt;Node6 -->
<g id="edge5_Node000005_Node000006" class="edge">
<title>Node5&#45;&gt;Node6</title>
<g id="a_edge5_Node000005_Node000006"><a xlink:title=" ">
<path fill="none" stroke="#63b8ff" d="M1098.6,-250.23C1090.47,-250.61 1082.33,-250.99 1074.57,-251.36"/>
<polygon fill="#63b8ff" stroke="#63b8ff" points="1098.71,-253.73 1108.54,-249.77 1098.39,-246.74 1098.71,-253.73"/>
</a>
</g>
</g>
<!-- Node18 -->
<g id="Node000018" class="node">
<title>Node18</title>
<g id="a_Node000018"><a xlink:href="classinja_1_1Parser.html#af2b8ee63877e6b685f30c87d204bbe8b" target="_top" xlink:title=" ">
<polygon fill="white" stroke="#666666" points="1074.25,-222.5 970.5,-222.5 970.5,-189 1074.25,-189 1074.25,-222.5"/>
<text xml:space="preserve" text-anchor="start" x="978.5" y="-209" font-family="Helvetica,sans-Serif" font-size="10.00">inja::Parser::parse</text>
<text xml:space="preserve" text-anchor="middle" x="1022.38" y="-196.25" font-family="Helvetica,sans-Serif" font-size="10.00">_into_template</text>
</a>
</g>
</g>
<!-- Node5&#45;&gt;Node18 -->
<g id="edge17_Node000005_Node000018" class="edge">
<title>Node5&#45;&gt;Node18</title>
<g id="a_edge17_Node000005_Node000018"><a xlink:title=" ">
<path fill="none" stroke="#63b8ff" d="M1122.8,-232.97C1107.27,-228.72 1090.16,-224.04 1074.58,-219.77"/>
<polygon fill="#63b8ff" stroke="#63b8ff" points="1121.75,-236.31 1132.32,-235.58 1123.6,-229.56 1121.75,-236.31"/>
</a>
</g>
</g>
<!-- Node7 -->
<g id="Node000007" class="node">
<title>Node7</title>
<g id="a_Node000007"><a xlink:href="classinja_1_1Environment.html#a8421b8d61fc4de15f29c909bd7154f92" target="_top" xlink:title=" ">
<polygon fill="white" stroke="#666666" points="934.5,-271.5 826.25,-271.5 826.25,-238 934.5,-238 934.5,-271.5"/>
<text xml:space="preserve" text-anchor="start" x="834.25" y="-258" font-family="Helvetica,sans-Serif" font-size="10.00">inja::Environment::</text>
<text xml:space="preserve" text-anchor="middle" x="880.38" y="-245.25" font-family="Helvetica,sans-Serif" font-size="10.00">parse</text>
</a>
</g>
</g>
<!-- Node6&#45;&gt;Node7 -->
<g id="edge6_Node000006_Node000007" class="edge">
<title>Node6&#45;&gt;Node7</title>
<g id="a_edge6_Node000006_Node000007"><a xlink:title=" ">
<path fill="none" stroke="#63b8ff" d="M958.76,-254.2C950.69,-254.25 942.48,-254.31 934.58,-254.37"/>
<polygon fill="#63b8ff" stroke="#63b8ff" points="958.55,-257.7 968.53,-254.13 958.5,-250.7 958.55,-257.7"/>
</a>
</g>
</g>
<!-- Node8 -->
<g id="Node000008" class="node">
<title>Node8</title>
<g id="a_Node000008"><a xlink:href="classinja_1_1Environment.html#aac36e0cfdc9e7926914e46c0cd1caada" target="_top" xlink:title=" ">
<polygon fill="white" stroke="#666666" points="790.25,-324.5 682,-324.5 682,-291 790.25,-291 790.25,-324.5"/>
<text xml:space="preserve" text-anchor="start" x="690" y="-311" font-family="Helvetica,sans-Serif" font-size="10.00">inja::Environment::</text>
<text xml:space="preserve" text-anchor="middle" x="736.12" y="-298.25" font-family="Helvetica,sans-Serif" font-size="10.00">render</text>
</a>
</g>
</g>
<!-- Node7&#45;&gt;Node8 -->
<g id="edge7_Node000007_Node000008" class="edge">
<title>Node7&#45;&gt;Node8</title>
<g id="a_edge7_Node000007_Node000008"><a xlink:title=" ">
<path fill="none" stroke="#63b8ff" d="M822.41,-275.97C809.34,-280.84 795.61,-285.96 783.08,-290.63"/>
<polygon fill="#63b8ff" stroke="#63b8ff" points="823.62,-279.26 831.77,-272.49 821.18,-272.7 823.62,-279.26"/>
</a>
</g>
</g>
<!-- Node16 -->
<g id="Node000016" class="node">
<title>Node16</title>
<g id="a_Node000016"><a xlink:href="classinja_1_1Environment.html#ad00da8b535e5c5633ed2adec622e6cf4" target="_top" xlink:title=" ">
<polygon fill="white" stroke="#666666" points="790.25,-272.5 682,-272.5 682,-239 790.25,-239 790.25,-272.5"/>
<text xml:space="preserve" text-anchor="start" x="690" y="-259" font-family="Helvetica,sans-Serif" font-size="10.00">inja::Environment::</text>
<text xml:space="preserve" text-anchor="middle" x="736.12" y="-246.25" font-family="Helvetica,sans-Serif" font-size="10.00">render_to</text>
</a>
</g>
</g>
<!-- Node7&#45;&gt;Node16 -->
<g id="edge15_Node000007_Node000016" class="edge">
<title>Node7&#45;&gt;Node16</title>
<g id="a_edge15_Node000007_Node000016"><a xlink:title=" ">
<path fill="none" stroke="#63b8ff" d="M814.63,-255.21C806.49,-255.26 798.25,-255.32 790.32,-255.38"/>
<polygon fill="#63b8ff" stroke="#63b8ff" points="814.51,-258.71 824.49,-255.14 814.46,-251.71 814.51,-258.71"/>
</a>
</g>
</g>
<!-- Node17 -->
<g id="Node000017" class="node">
<title>Node17</title>
<g id="a_Node000017"><a xlink:href="namespaceinja.html#a996f16f78b37d05e19cf44ac74d83e7e" target="_top" xlink:title="render with default settings to the given output stream">
<polygon fill="white" stroke="#666666" points="779.38,-221.12 692.88,-221.12 692.88,-200.38 779.38,-200.38 779.38,-221.12"/>
<text xml:space="preserve" text-anchor="middle" x="736.12" y="-207.62" font-family="Helvetica,sans-Serif" font-size="10.00">inja::render_to</text>
</a>
</g>
</g>
<!-- Node7&#45;&gt;Node17 -->
<g id="edge16_Node000007_Node000017" class="edge">
<title>Node7&#45;&gt;Node17</title>
<g id="a_edge16_Node000007_Node000017"><a xlink:title=" ">
<path fill="none" stroke="#63b8ff" d="M815.32,-234.94C800.5,-230.35 785.27,-225.64 772.23,-221.61"/>
<polygon fill="#63b8ff" stroke="#63b8ff" points="813.97,-238.18 824.56,-237.79 816.04,-231.49 813.97,-238.18"/>
</a>
</g>
</g>
<!-- Node9 -->
<g id="Node000009" class="node">
<title>Node9</title>
<g id="a_Node000009"><a xlink:href="classmqtt_1_1lib_1_1MqttMapper.html#a04261a968a945934ebf3518733c62b7d" target="_top" xlink:title=" ">
<polygon fill="white" stroke="#666666" points="646,-346.5 504.75,-346.5 504.75,-313 646,-313 646,-346.5"/>
<text xml:space="preserve" text-anchor="start" x="512.75" y="-333" font-family="Helvetica,sans-Serif" font-size="10.00">mqtt::lib::MqttMapper</text>
<text xml:space="preserve" text-anchor="middle" x="575.38" y="-320.25" font-family="Helvetica,sans-Serif" font-size="10.00">::publishMappedTemplate</text>
</a>
</g>
</g>
<!-- Node8&#45;&gt;Node9 -->
<g id="edge8_Node000008_Node000009" class="edge">
<title>Node8&#45;&gt;Node9</title>
<g id="a_edge8_Node000008_Node000009"><a xlink:title=" ">
<path fill="none" stroke="#63b8ff" d="M670.43,-316.72C662.53,-317.81 654.43,-318.93 646.45,-320.04"/>
<polygon fill="#63b8ff" stroke="#63b8ff" points="670.9,-320.18 680.32,-315.34 669.94,-313.25 670.9,-320.18"/>
</a>
</g>
</g>
<!-- Node15 -->
<g id="Node000015" class="node">
<title>Node15</title>
<g id="a_Node000015"><a xlink:href="namespaceinja.html#a539106781b52cc6117fc132f927a9dec" target="_top" xlink:title="render with default settings to a string">
<polygon fill="white" stroke="#666666" points="611.12,-295.12 539.62,-295.12 539.62,-274.38 611.12,-274.38 611.12,-295.12"/>
<text xml:space="preserve" text-anchor="middle" x="575.38" y="-281.62" font-family="Helvetica,sans-Serif" font-size="10.00">inja::render</text>
</a>
</g>
</g>
<!-- Node8&#45;&gt;Node15 -->
<g id="edge14_Node000008_Node000015" class="edge">
<title>Node8&#45;&gt;Node15</title>
<g id="a_edge14_Node000008_Node000015"><a xlink:title=" ">
<path fill="none" stroke="#63b8ff" d="M670.44,-298.38C650.22,-295.45 628.68,-292.33 611.32,-289.81"/>
<polygon fill="#63b8ff" stroke="#63b8ff" points="669.93,-301.84 680.32,-299.81 670.93,-294.91 669.93,-301.84"/>
</a>
</g>
</g>
<!-- Node10 -->
<g id="Node000010" class="node">
<title>Node10</title>
<g id="a_Node000010"><a xlink:href="classmqtt_1_1lib_1_1MqttMapper.html#aae1c8da19646ae1ada8d497fef0df12d" target="_top" xlink:title=" ">
<polygon fill="white" stroke="#666666" points="468.75,-346.5 322.25,-346.5 322.25,-313 468.75,-313 468.75,-346.5"/>
<text xml:space="preserve" text-anchor="start" x="330.25" y="-333" font-family="Helvetica,sans-Serif" font-size="10.00">mqtt::lib::MqttMapper</text>
<text xml:space="preserve" text-anchor="middle" x="395.5" y="-320.25" font-family="Helvetica,sans-Serif" font-size="10.00">::publishMappedTemplates</text>
</a>
</g>
</g>
<!-- Node9&#45;&gt;Node10 -->
<g id="edge9_Node000009_Node000010" class="edge">
<title>Node9&#45;&gt;Node10</title>
<g id="a_edge9_Node000009_Node000010"><a xlink:title=" ">
<path fill="none" stroke="#63b8ff" d="M492.83,-329.75C484.92,-329.75 476.93,-329.75 469.11,-329.75"/>
<polygon fill="#63b8ff" stroke="#63b8ff" points="492.82,-333.25 502.82,-329.75 492.82,-326.25 492.82,-333.25"/>
</a>
</g>
</g>
<!-- Node11 -->
<g id="Node000011" class="node">
<title>Node11</title>
<g id="a_Node000011"><a xlink:href="classmqtt_1_1lib_1_1MqttMapper.html#a279b13d33784be36c0b524a8796e194a" target="_top" xlink:title=" ">
<polygon fill="white" stroke="#666666" points="286.25,-346.5 163.75,-346.5 163.75,-313 286.25,-313 286.25,-346.5"/>
<text xml:space="preserve" text-anchor="start" x="171.75" y="-333" font-family="Helvetica,sans-Serif" font-size="10.00">mqtt::lib::MqttMapper</text>
<text xml:space="preserve" text-anchor="middle" x="225" y="-320.25" font-family="Helvetica,sans-Serif" font-size="10.00">::publishMappings</text>
</a>
</g>
</g>
<!-- Node10&#45;&gt;Node11 -->
<g id="edge10_Node000010_Node000011" class="edge">
<title>Node10&#45;&gt;Node11</title>
<g id="a_edge10_Node000010_Node000011"><a xlink:title=" ">
<path fill="none" stroke="#63b8ff" d="M310.68,-329.75C302.61,-329.75 294.53,-329.75 286.74,-329.75"/>
<polygon fill="#63b8ff" stroke="#63b8ff" points="310.55,-333.25 320.55,-329.75 310.55,-326.25 310.55,-333.25"/>
</a>
</g>
</g>
<!-- Node12 -->
<g id="Node000012" class="node">
<title>Node12</title>
<g id="a_Node000012"><a xlink:href="classmqtt_1_1mqttbroker_1_1lib_1_1Mqtt.html#a35dd670ca3b7d67cffbbce1cf7c71ffb" target="_top" xlink:title=" ">
<polygon fill="white" stroke="#666666" points="122.5,-398.5 5.25,-398.5 5.25,-365 122.5,-365 122.5,-398.5"/>
<text xml:space="preserve" text-anchor="start" x="13.25" y="-385" font-family="Helvetica,sans-Serif" font-size="10.00">mqtt::mqttbroker::lib</text>
<text xml:space="preserve" text-anchor="middle" x="63.88" y="-372.25" font-family="Helvetica,sans-Serif" font-size="10.00">::Mqtt::onPublish</text>
</a>
</g>
</g>
<!-- Node11&#45;&gt;Node12 -->
<g id="edge11_Node000011_Node000012" class="edge">
<title>Node11&#45;&gt;Node12</title>
<g id="a_edge11_Node000011_Node000012"><a xlink:title=" ">
<path fill="none" stroke="#63b8ff" d="M160.71,-350.43C146.43,-355.1 131.43,-360 117.64,-364.51"/>
<polygon fill="#63b8ff" stroke="#63b8ff" points="161.6,-353.82 170.02,-347.39 159.42,-347.17 161.6,-353.82"/>
</a>
</g>
</g>
<!-- Node13 -->
<g id="Node000013" class="node">
<title>Node13</title>
<g id="a_Node000013"><a xlink:href="classmqtt_1_1mqttintegrator_1_1lib_1_1Mqtt.html#a211408365844787ce77340f454b9cbd0" target="_top" xlink:title=" ">
<polygon fill="white" stroke="#666666" points="122.12,-346.5 5.62,-346.5 5.62,-313 122.12,-313 122.12,-346.5"/>
<text xml:space="preserve" text-anchor="start" x="13.62" y="-333" font-family="Helvetica,sans-Serif" font-size="10.00">mqtt::mqttintegrator</text>
<text xml:space="preserve" text-anchor="middle" x="63.88" y="-320.25" font-family="Helvetica,sans-Serif" font-size="10.00">::lib::Mqtt::onPublish</text>
</a>
</g>
</g>
<!-- Node11&#45;&gt;Node13 -->
<g id="edge12_Node000011_Node000013" class="edge">
<title>Node11&#45;&gt;Node13</title>
<g id="a_edge12_Node000011_Node000013"><a xlink:title=" ">
<path fill="none" stroke="#63b8ff" d="M151.9,-329.75C142.03,-329.75 132,-329.75 122.43,-329.75"/>
<polygon fill="#63b8ff" stroke="#63b8ff" points="151.87,-333.25 161.87,-329.75 151.87,-326.25 151.87,-333.25"/>
</a>
</g>
</g>
<!-- Node14 -->
<g id="Node000014" class="node">
<title>Node14</title>
<g id="a_Node000014"><a xlink:href="classmqtt_1_1mqttbroker_1_1lib_1_1Mqtt.html#a3426a2c9d850ad17f0134580a09d9527" target="_top" xlink:title=" ">
<polygon fill="white" stroke="#666666" points="127.75,-294.5 0,-294.5 0,-261 127.75,-261 127.75,-294.5"/>
<text xml:space="preserve" text-anchor="start" x="8" y="-281" font-family="Helvetica,sans-Serif" font-size="10.00">mqtt::mqttbroker::lib</text>
<text xml:space="preserve" text-anchor="middle" x="63.88" y="-268.25" font-family="Helvetica,sans-Serif" font-size="10.00">::Mqtt::publishMapping</text>
</a>
</g>
</g>
<!-- Node11&#45;&gt;Node14 -->
<g id="edge13_Node000011_Node000014" class="edge">
<title>Node11&#45;&gt;Node14</title>
<g id="a_edge13_Node000011_Node000014"><a xlink:title=" ">
<path fill="none" stroke="#63b8ff" d="M160.71,-309.07C146.43,-304.4 131.43,-299.5 117.64,-294.99"/>
<polygon fill="#63b8ff" stroke="#63b8ff" points="159.42,-312.33 170.02,-312.11 161.6,-305.68 159.42,-312.33"/>
</a>
</g>
</g>
<!-- Node18&#45;&gt;Node3 -->
<g id="edge18_Node000018_Node000003" class="edge">
<title>Node18&#45;&gt;Node3</title>
<g id="a_edge18_Node000018_Node000003"><a xlink:title=" ">
<path fill="none" stroke="#63b8ff" d="M1085.83,-205.2C1175.15,-204.41 1337.87,-202.97 1422.4,-202.23"/>
<polygon fill="#63b8ff" stroke="#63b8ff" points="1086.01,-201.7 1076.04,-205.29 1086.07,-208.7 1086.01,-201.7"/>
</a>
</g>
</g>
<!-- Node19 -->
<g id="Node000019" class="node">
<title>Node19</title>
<g id="a_Node000019"><a xlink:href="classinja_1_1Environment.html#a85717fc369572292cce46e42a32e38f5" target="_top" xlink:title=" ">
<polygon fill="white" stroke="#666666" points="934.5,-180.5 826.25,-180.5 826.25,-147 934.5,-147 934.5,-180.5"/>
<text xml:space="preserve" text-anchor="start" x="834.25" y="-167" font-family="Helvetica,sans-Serif" font-size="10.00">inja::Environment::</text>
<text xml:space="preserve" text-anchor="middle" x="880.38" y="-154.25" font-family="Helvetica,sans-Serif" font-size="10.00">parse_template</text>
</a>
</g>
</g>
<!-- Node18&#45;&gt;Node19 -->
<g id="edge19_Node000018_Node000019" class="edge">
<title>Node18&#45;&gt;Node19</title>
<g id="a_edge19_Node000018_Node000019"><a xlink:title=" ">
<path fill="none" stroke="#63b8ff" d="M959.04,-187.05C950.88,-184.6 942.58,-182.11 934.58,-179.71"/>
<polygon fill="#63b8ff" stroke="#63b8ff" points="958.01,-190.39 968.59,-189.91 960.02,-183.69 958.01,-190.39"/>
</a>
</g>
</g>
<!-- Node20 -->
<g id="Node000020" class="node">
<title>Node20</title>
<g id="a_Node000020"><a xlink:href="classinja_1_1Environment.html#aec4165117f8d7242f813bb7859b86d18" target="_top" xlink:title=" ">
<polygon fill="white" stroke="#666666" points="790.25,-182.5 682,-182.5 682,-149 790.25,-149 790.25,-182.5"/>
<text xml:space="preserve" text-anchor="start" x="690" y="-169" font-family="Helvetica,sans-Serif" font-size="10.00">inja::Environment::</text>
<text xml:space="preserve" text-anchor="middle" x="736.12" y="-156.25" font-family="Helvetica,sans-Serif" font-size="10.00">parse_file</text>
</a>
</g>
</g>
<!-- Node19&#45;&gt;Node20 -->
<g id="edge20_Node000019_Node000020" class="edge">
<title>Node19&#45;&gt;Node20</title>
<g id="a_edge20_Node000019_Node000020"><a xlink:title=" ">
<path fill="none" stroke="#63b8ff" d="M814.63,-164.66C806.49,-164.77 798.25,-164.89 790.32,-165"/>
<polygon fill="#63b8ff" stroke="#63b8ff" points="814.54,-168.16 824.49,-164.52 814.44,-161.16 814.54,-168.16"/>
</a>
</g>
</g>
<!-- Node21 -->
<g id="Node000021" class="node">
<title>Node21</title>
<g id="a_Node000021"><a xlink:href="classinja_1_1Environment.html#a3e30972fab0a5962c232f4c0f7002845" target="_top" xlink:title=" ">
<polygon fill="white" stroke="#666666" points="790.25,-130.5 682,-130.5 682,-97 790.25,-97 790.25,-130.5"/>
<text xml:space="preserve" text-anchor="start" x="690" y="-117" font-family="Helvetica,sans-Serif" font-size="10.00">inja::Environment::</text>
<text xml:space="preserve" text-anchor="middle" x="736.12" y="-104.25" font-family="Helvetica,sans-Serif" font-size="10.00">render_file</text>
</a>
</g>
</g>
<!-- Node19&#45;&gt;Node21 -->
<g id="edge21_Node000019_Node000021" class="edge">
<title>Node19&#45;&gt;Node21</title>
<g id="a_edge21_Node000019_Node000021"><a xlink:title=" ">
<path fill="none" stroke="#63b8ff" d="M819.83,-142.82C808.62,-138.88 797.01,-134.8 786.17,-130.99"/>
<polygon fill="#63b8ff" stroke="#63b8ff" points="818.4,-146.03 828.99,-146.04 820.72,-139.42 818.4,-146.03"/>
</a>
</g>
</g>
<!-- Node22 -->
<g id="Node000022" class="node">
<title>Node22</title>
<g id="a_Node000022"><a xlink:href="classinja_1_1Environment.html#a815d87f3fb622a7639691803ff9a123b" target="_top" xlink:title=" ">
<polygon fill="white" stroke="#666666" points="646,-123.5 504.75,-123.5 504.75,-90 646,-90 646,-123.5"/>
<text xml:space="preserve" text-anchor="start" x="512.75" y="-110" font-family="Helvetica,sans-Serif" font-size="10.00">inja::Environment::</text>
<text xml:space="preserve" text-anchor="middle" x="575.38" y="-97.25" font-family="Helvetica,sans-Serif" font-size="10.00">render_file_with_json_file</text>
</a>
</g>
</g>
<!-- Node21&#45;&gt;Node22 -->
<g id="edge22_Node000021_Node000022" class="edge">
<title>Node21&#45;&gt;Node22</title>
<g id="a_edge22_Node000021_Node000022"><a xlink:title=" ">
<path fill="none" stroke="#63b8ff" d="M670.43,-110.9C662.53,-110.55 654.43,-110.19 646.45,-109.84"/>
<polygon fill="#63b8ff" stroke="#63b8ff" points="670.17,-114.39 680.31,-111.33 670.47,-107.4 670.17,-114.39"/>
</a>
</g>
</g>
<!-- Node23 -->
<g id="Node000023" class="node">
<title>Node23</title>
<g id="a_Node000023"><a xlink:href="classinja_1_1Environment.html#ae64c18f23f81e8ee787d406ccd4d35dc" target="_top" xlink:title=" ">
<polygon fill="white" stroke="#666666" points="629.5,-175.5 521.25,-175.5 521.25,-142 629.5,-142 629.5,-175.5"/>
<text xml:space="preserve" text-anchor="start" x="529.25" y="-162" font-family="Helvetica,sans-Serif" font-size="10.00">inja::Environment::</text>
<text xml:space="preserve" text-anchor="middle" x="575.38" y="-149.25" font-family="Helvetica,sans-Serif" font-size="10.00">write</text>
</a>
</g>
</g>
<!-- Node21&#45;&gt;Node23 -->
<g id="edge23_Node000021_Node000023" class="edge">
<title>Node21&#45;&gt;Node23</title>
<g id="a_edge23_Node000021_Node000023"><a xlink:title=" ">
<path fill="none" stroke="#63b8ff" d="M671.02,-131.92C657.34,-135.8 643.03,-139.85 629.81,-143.6"/>
<polygon fill="#63b8ff" stroke="#63b8ff" points="671.7,-135.37 680.37,-129.27 669.79,-128.63 671.7,-135.37"/>
</a>
</g>
</g>
<!-- Node24 -->
<g id="Node000024" class="node">
<title>Node24</title>
<g id="a_Node000024"><a xlink:href="classinja_1_1Environment.html#ad6a6b713e78516f4f6fd68c58f309f3c" target="_top" xlink:title=" ">
<polygon fill="white" stroke="#666666" points="452.25,-127.5 338.75,-127.5 338.75,-94 452.25,-94 452.25,-127.5"/>
<text xml:space="preserve" text-anchor="start" x="346.75" y="-114" font-family="Helvetica,sans-Serif" font-size="10.00">inja::Environment::</text>
<text xml:space="preserve" text-anchor="middle" x="395.5" y="-101.25" font-family="Helvetica,sans-Serif" font-size="10.00">write_with_json_file</text>
</a>
</g>
</g>
<!-- Node23&#45;&gt;Node24 -->
<g id="edge24_Node000023_Node000024" class="edge">
<title>Node23&#45;&gt;Node24</title>
<g id="a_edge24_Node000023_Node000024"><a xlink:title=" ">
<path fill="none" stroke="#63b8ff" d="M510.14,-141.42C491.31,-136.34 470.89,-130.82 452.61,-125.89"/>
<polygon fill="#63b8ff" stroke="#63b8ff" points="508.98,-144.73 519.55,-143.95 510.8,-137.97 508.98,-144.73"/>
</a>
</g>
</g>
<!-- Node25&#45;&gt;Node19 -->
<g id="edge27_Node000025_Node000019" class="edge">
<title>Node25&#45;&gt;Node19</title>
<g id="a_edge27_Node000025_Node000019"><a xlink:title=" ">
<path fill="none" stroke="#63b8ff" d="M1406.5,-140.36C1398.33,-140.85 1390.11,-141.33 1382.25,-141.75 1219.28,-150.51 1026.35,-158.24 934.76,-161.75"/>
<polygon fill="#63b8ff" stroke="#63b8ff" points="1406.71,-143.86 1416.47,-139.75 1406.28,-136.87 1406.71,-143.86"/>
</a>
</g>
</g>
<!-- Node26 -->
<g id="Node000026" class="node">
<title>Node26</title>
<g id="a_Node000026"><a xlink:href="classinja_1_1Environment.html#a686f69e3cb4f91d439aadadfc60e1ebb" target="_top" xlink:title=" ">
<polygon fill="white" stroke="#666666" points="1382.25,-132.5 1274,-132.5 1274,-99 1382.25,-99 1382.25,-132.5"/>
<text xml:space="preserve" text-anchor="start" x="1282" y="-119" font-family="Helvetica,sans-Serif" font-size="10.00">inja::Environment::</text>
<text xml:space="preserve" text-anchor="middle" x="1328.12" y="-106.25" font-family="Helvetica,sans-Serif" font-size="10.00">load_file</text>
</a>
</g>
</g>
<!-- Node25&#45;&gt;Node26 -->
<g id="edge26_Node000025_Node000026" class="edge">
<title>Node25&#45;&gt;Node26</title>
<g id="a_edge26_Node000025_Node000026"><a xlink:title=" ">
<path fill="none" stroke="#63b8ff" d="M1406.51,-126.24C1398.4,-125.14 1390.22,-124.03 1382.38,-122.97"/>
<polygon fill="#63b8ff" stroke="#63b8ff" points="1406.03,-129.71 1416.41,-127.58 1406.97,-122.77 1406.03,-129.71"/>
</a>
</g>
</g>
<!-- Node27&#45;&gt;Node22 -->
<g id="edge29_Node000027_Node000022" class="edge">
<title>Node27&#45;&gt;Node22</title>
<g id="a_edge29_Node000027_Node000022"><a xlink:title=" ">
<path fill="none" stroke="#63b8ff" d="M670.88,-79.96C659.76,-83.11 648.23,-86.38 637.21,-89.51"/>
<polygon fill="#63b8ff" stroke="#63b8ff" points="671.7,-83.37 680.37,-77.27 669.79,-76.63 671.7,-83.37"/>
</a>
</g>
</g>
<!-- Node27&#45;&gt;Node24 -->
<g id="edge30_Node000027_Node000024" class="edge">
<title>Node27&#45;&gt;Node24</title>
<g id="a_edge30_Node000027_Node000024"><a xlink:title=" ">
<path fill="none" stroke="#63b8ff" d="M670.28,-63.84C623.89,-66.13 560.11,-70.89 504.75,-80.75 486.99,-83.91 467.93,-88.71 450.83,-93.54"/>
<polygon fill="#63b8ff" stroke="#63b8ff" points="670.35,-67.34 680.18,-63.38 670.02,-60.35 670.35,-67.34"/>
</a>
</g>
</g>
<!-- Node28 -->
<g id="Node000028" class="node">
<title>Node28</title>
<g id="a_Node000028"><a xlink:href="classinja_1_1Environment.html#a9c6eb9a291cf99615991f999128248a7" target="_top" xlink:title=" ">
<polygon fill="white" stroke="#666666" points="632.12,-33.5 518.62,-33.5 518.62,0 632.12,0 632.12,-33.5"/>
<text xml:space="preserve" text-anchor="start" x="526.62" y="-20" font-family="Helvetica,sans-Serif" font-size="10.00">inja::Environment::</text>
<text xml:space="preserve" text-anchor="middle" x="575.38" y="-7.25" font-family="Helvetica,sans-Serif" font-size="10.00">write_with_json_file</text>
</a>
</g>
</g>
<!-- Node27&#45;&gt;Node28 -->
<g id="edge31_Node000027_Node000028" class="edge">
<title>Node27&#45;&gt;Node28</title>
<g id="a_edge31_Node000027_Node000028"><a xlink:title=" ">
<path fill="none" stroke="#63b8ff" d="M670.84,-43.53C658.15,-39.93 644.92,-36.18 632.53,-32.67"/>
<polygon fill="#63b8ff" stroke="#63b8ff" points="669.79,-46.87 680.37,-46.23 671.7,-40.13 669.79,-46.87"/>
</a>
</g>
</g>
</g>
</svg>
