<?xml version="1.0" encoding="UTF-8" standalone="no"?>
<!DOCTYPE svg PUBLIC "-//W3C//DTD SVG 1.1//EN"
 "http://www.w3.org/Graphics/SVG/1.1/DTD/svg11.dtd">
<!-- Generated by graphviz version 14.1.1 (0)
 -->
<!-- Title: inja::DataError Pages: 1 -->
<svg width="104pt" height="199pt"
 viewBox="0.00 0.00 104.00 199.00" xmlns="http://www.w3.org/2000/svg" xmlns:xlink="http://www.w3.org/1999/xlink">

<svg id="main" version="1.1" xmlns="http://www.w3.org/2000/svg" xmlns:xlink="http://www.w3.org/1999/xlink" xml:space="preserve">

<style type="text/css"><![CDATA[
.node, .edge {opacity: 0.7;}
.node.selected, .edge.selected {opacity: 1;}
.edge:hover path { stroke: red; }
.edge:hover polygon { stroke: red; fill: red; }
]]></style>
<script type="application/ecmascript" xlink:href="svg.min.js"/>
<svg id="graph" class="graph">
<g id="graph0" class="graph" transform="scale(1 1) rotate(0) translate(4 195)">
<title>inja::DataError</title>
<!-- Node1 -->
<g id="Node000001" class="node">
<title>Node1</title>
<g id="a_Node000001"><a xlink:title=" ">
<polygon fill="#999999" stroke="none" points="87.12,-20.75 8.62,-20.75 8.62,0 87.12,0 87.12,-20.75"/>
<text xml:space="preserve" text-anchor="start" x="12.62" y="-7.25" font-family="Helvetica,sans-Serif" font-size="10.00">inja::DataError</text>
<polygon fill="none" stroke="#666666" points="8.62,0 8.62,-20.75 87.12,-20.75 87.12,0 8.62,0"/>
</a>
</g>
</g>
<!-- Node2 -->
<g id="Node000002" class="node">
<title>Node2</title>
<g id="a_Node000002"><a xlink:href="structinja_1_1InjaError.html" target="_top" xlink:title=" ">
<polygon fill="white" stroke="none" points="84.5,-77.5 11.25,-77.5 11.25,-56.75 84.5,-56.75 84.5,-77.5"/>
<text xml:space="preserve" text-anchor="start" x="15.25" y="-64" font-family="Helvetica,sans-Serif" font-size="10.00">inja::InjaError</text>
<polygon fill="none" stroke="#666666" points="11.25,-56.75 11.25,-77.5 84.5,-77.5 84.5,-56.75 11.25,-56.75"/>
</a>
</g>
</g>
<!-- Node2&#45;&gt;Node1 -->
<g id="edge1_Node000001_Node000002" class="edge">
<title>Node2&#45;&gt;Node1</title>
<g id="a_edge1_Node000001_Node000002"><a xlink:title=" ">
<path fill="none" stroke="#63b8ff" d="M47.88,-45.61C47.88,-37.01 47.88,-27.44 47.88,-20.61"/>
<polygon fill="none" stroke="#63b8ff" points="44.38,-45.57 47.88,-55.57 51.38,-45.57 44.38,-45.57"/>
</a>
</g>
</g>
<!-- Node3 -->
<g id="Node000003" class="node">
<title>Node3</title>
<g id="a_Node000003"><a xlink:title=" ">
<polygon fill="white" stroke="none" points="95.75,-134.25 0,-134.25 0,-113.5 95.75,-113.5 95.75,-134.25"/>
<text xml:space="preserve" text-anchor="start" x="4" y="-120.75" font-family="Helvetica,sans-Serif" font-size="10.00">std::runtime_error</text>
<polygon fill="none" stroke="#666666" points="0,-113.5 0,-134.25 95.75,-134.25 95.75,-113.5 0,-113.5"/>
</a>
</g>
</g>
<!-- Node3&#45;&gt;Node2 -->
<g id="edge2_Node000002_Node000003" class="edge">
<title>Node3&#45;&gt;Node2</title>
<g id="a_edge2_Node000002_Node000003"><a xlink:title=" ">
<path fill="none" stroke="#63b8ff" d="M47.88,-102.36C47.88,-93.76 47.88,-84.19 47.88,-77.36"/>
<polygon fill="none" stroke="#63b8ff" points="44.38,-102.32 47.88,-112.32 51.38,-102.32 44.38,-102.32"/>
</a>
</g>
</g>
<!-- Node4 -->
<g id="Node000004" class="node">
<title>Node4</title>
<g id="a_Node000004"><a xlink:title=" ">
<polygon fill="white" stroke="none" points="86.38,-191 9.38,-191 9.38,-170.25 86.38,-170.25 86.38,-191"/>
<text xml:space="preserve" text-anchor="start" x="13.38" y="-177.5" font-family="Helvetica,sans-Serif" font-size="10.00">std::exception</text>
<polygon fill="none" stroke="#666666" points="9.38,-170.25 9.38,-191 86.38,-191 86.38,-170.25 9.38,-170.25"/>
</a>
</g>
</g>
<!-- Node4&#45;&gt;Node3 -->
<g id="edge3_Node000003_Node000004" class="edge">
<title>Node4&#45;&gt;Node3</title>
<g id="a_edge3_Node000003_Node000004"><a xlink:title=" ">
<path fill="none" stroke="#63b8ff" d="M47.88,-159.11C47.88,-150.51 47.88,-140.94 47.88,-134.11"/>
<polygon fill="none" stroke="#63b8ff" points="44.38,-159.07 47.88,-169.07 51.38,-159.07 44.38,-159.07"/>
</a>
</g>
</g>
</g>
</svg>
</svg>

<style type='text/css'>
<![CDATA[
[data-mouse-over-selected='false'] { opacity: 0.7; }
[data-mouse-over-selected='true']  { opacity: 1.0; }
]]>
</style>
<script type="application/ecmascript"><![CDATA[
document.addEventListener('DOMContentLoaded', (event) => {
  highlightEdges();
  highlightAdjacentNodes();
});
]]></script>
</svg>
