<?xml version="1.0" encoding="UTF-8" standalone="no"?>
<!DOCTYPE svg PUBLIC "-//W3C//DTD SVG 1.1//EN"
 "http://www.w3.org/Graphics/SVG/1.1/DTD/svg11.dtd">
<!-- Generated by graphviz version 14.1.2 (0)
 -->
<!-- Title: inja::InjaError::InjaError Pages: 1 -->
<!--zoomable 465 -->

<svg id="main" version="1.1" xmlns="http://www.w3.org/2000/svg" xmlns:xlink="http://www.w3.org/1999/xlink" xml:space="preserve" onload="init(evt)">

<style type="text/css"><![CDATA[
.node, .edge {opacity: 0.7;}
.node.selected, .edge.selected {opacity: 1;}
.edge:hover path { stroke: red; }
.edge:hover polygon { stroke: red; fill: red; }
]]></style>

<defs>
  <circle id="rim" cx="0" cy="0" r="7"/>
  <circle id="rim2" cx="0" cy="0" r="3.5"/>
  <g id="zoomPlus">
    <use xlink:href="#rim" fill="#404040"><set attributeName="fill" to="#808080" begin="zoomplus.mouseover" end="zoomplus.mouseout"/></use>
    <path d="M-4,0h8M0,-4v8" fill="none" stroke="white" stroke-width="1.5" pointer-events="none"/>
  </g>
  <g id="zoomMin">
    <use xlink:href="#rim" fill="#404040"><set attributeName="fill" to="#808080" begin="zoomminus.mouseover" end="zoomminus.mouseout"/></use>
    <path d="M-4,0h8" fill="none" stroke="white" stroke-width="1.5" pointer-events="none"/>
  </g>
  <g id="arrowUp" transform="translate(30 24)">
    <use xlink:href="#rim"/>
    <path pointer-events="none" fill="none" stroke="white" stroke-width="1.5" d="M0,-3.0v7 M-2.5,-0.5L0,-3.0L2.5,-0.5"/>
  </g>
  <g id="arrowRight" transform="rotate(90) translate(36 -43)">
    <use xlink:href="#rim"/>
    <path pointer-events="none" fill="none" stroke="white" stroke-width="1.5" d="M0,-3.0v7 M-2.5,-0.5L0,-3.0L2.5,-0.5"/>
  </g>
  <g id="arrowDown" transform="rotate(180) translate(-30 -48)">
    <use xlink:href="#rim"/>
    <path pointer-events="none" fill="none" stroke="white" stroke-width="1.5" d="M0,-3.0v7 M-2.5,-0.5L0,-3.0L2.5,-0.5"/>
  </g>
  <g id="arrowLeft" transform="rotate(270) translate(-36 17)">
    <use xlink:href="#rim"/>
    <path pointer-events="none" fill="none" stroke="white" stroke-width="1.5" d="M0,-3.0v7 M-2.5,-0.5L0,-3.0L2.5,-0.5"/>
  </g>
  <g id="resetDef">
    <use xlink:href="#rim2" fill="#404040"><set attributeName="fill" to="#808080" begin="reset.mouseover" end="reset.mouseout"/></use>
  </g>
</defs>
<script type="application/ecmascript">
var viewWidth = 2374;
var viewHeight = 465;
var sectionId = 'dynsection-2';
</script>
<script type="application/ecmascript" xlink:href="svg.min.js"/>
<svg id="graph" class="graph">
<g id="viewport">
<title>inja::InjaError::InjaError</title>
<!-- Node1 -->
<g id="Node000001" class="node">
<title>Node1</title>
<g id="a_Node000001"><a xlink:title=" ">
<polygon fill="#999999" stroke="#666666" points="2365.5,-146.12 2237,-146.12 2237,-125.38 2365.5,-125.38 2365.5,-146.12"/>
<text xml:space="preserve" text-anchor="middle" x="2301.25" y="-132.62" font-family="Helvetica,sans-Serif" font-size="10.00">inja::InjaError::InjaError</text>
</a>
</g>
</g>
<!-- Node2 -->
<g id="Node000002" class="node">
<title>Node2</title>
<g id="a_Node000002"><a xlink:href="structinja_1_1FileError.html#a0912694cd232d6cd688f0f68336145c9" target="_top" xlink:title=" ">
<polygon fill="white" stroke="#666666" points="2201,-146.12 2075.5,-146.12 2075.5,-125.38 2201,-125.38 2201,-146.12"/>
<text xml:space="preserve" text-anchor="middle" x="2138.25" y="-132.62" font-family="Helvetica,sans-Serif" font-size="10.00">inja::FileError::FileError</text>
</a>
</g>
</g>
<!-- Node1&#45;&gt;Node2 -->
<g id="edge1_Node000001_Node000002" class="edge">
<title>Node1&#45;&gt;Node2</title>
<g id="a_edge1_Node000001_Node000002"><a xlink:title=" ">
<path fill="none" stroke="#63b8ff" d="M2225.35,-135.75C2217.32,-135.75 2209.22,-135.75 2201.37,-135.75"/>
<polygon fill="#63b8ff" stroke="#63b8ff" points="2225.11,-139.25 2235.1,-135.75 2225.1,-132.25 2225.11,-139.25"/>
</a>
</g>
</g>
<!-- Node3 -->
<g id="Node000003" class="node">
<title>Node3</title>
<g id="a_Node000003"><a xlink:href="classinja_1_1Parser.html#aa756be380c1083f47c6bd774eb3c8c38" target="_top" xlink:title=" ">
<polygon fill="white" stroke="#666666" points="2035,-218.5 1925.25,-218.5 1925.25,-185 2035,-185 2035,-218.5"/>
<text xml:space="preserve" text-anchor="start" x="1933.25" y="-205" font-family="Helvetica,sans-Serif" font-size="10.00">inja::Parser::add_to</text>
<text xml:space="preserve" text-anchor="middle" x="1980.12" y="-192.25" font-family="Helvetica,sans-Serif" font-size="10.00">_template_storage</text>
</a>
</g>
</g>
<!-- Node2&#45;&gt;Node3 -->
<g id="edge2_Node000002_Node000003" class="edge">
<title>Node2&#45;&gt;Node3</title>
<g id="a_edge2_Node000002_Node000003"><a xlink:title=" ">
<path fill="none" stroke="#63b8ff" d="M2101.48,-150.87C2077.73,-160.91 2046.5,-174.11 2021.8,-184.56"/>
<polygon fill="#63b8ff" stroke="#63b8ff" points="2102.58,-154.21 2110.42,-147.09 2099.85,-147.76 2102.58,-154.21"/>
</a>
</g>
</g>
<!-- Node30 -->
<g id="Node000030" class="node">
<title>Node30</title>
<g id="a_Node000030"><a xlink:href="classinja_1_1Parser.html#ab256584c508f34b282f9c802ba4bc095" target="_top" xlink:title=" ">
<polygon fill="white" stroke="#666666" points="2039.5,-146.12 1920.75,-146.12 1920.75,-125.38 2039.5,-125.38 2039.5,-146.12"/>
<text xml:space="preserve" text-anchor="middle" x="1980.12" y="-132.62" font-family="Helvetica,sans-Serif" font-size="10.00">inja::Parser::load_file</text>
</a>
</g>
</g>
<!-- Node2&#45;&gt;Node30 -->
<g id="edge36_Node000002_Node000030" class="edge">
<title>Node2&#45;&gt;Node30</title>
<g id="a_edge36_Node000002_Node000030"><a xlink:title=" ">
<path fill="none" stroke="#63b8ff" d="M2063.79,-135.75C2055.73,-135.75 2047.61,-135.75 2039.76,-135.75"/>
<polygon fill="#63b8ff" stroke="#63b8ff" points="2063.58,-139.25 2073.58,-135.75 2063.58,-132.25 2063.58,-139.25"/>
</a>
</g>
</g>
<!-- Node32 -->
<g id="Node000032" class="node">
<title>Node32</title>
<g id="a_Node000032"><a xlink:href="classinja_1_1Environment.html#a63883423839a4c9651997e14ee9bd10b" target="_top" xlink:title=" ">
<polygon fill="white" stroke="#666666" points="1292.75,-78.5 1184.5,-78.5 1184.5,-45 1292.75,-45 1292.75,-78.5"/>
<text xml:space="preserve" text-anchor="start" x="1192.5" y="-65" font-family="Helvetica,sans-Serif" font-size="10.00">inja::Environment::</text>
<text xml:space="preserve" text-anchor="middle" x="1238.62" y="-52.25" font-family="Helvetica,sans-Serif" font-size="10.00">load_json</text>
</a>
</g>
</g>
<!-- Node2&#45;&gt;Node32 -->
<g id="edge39_Node000002_Node000032" class="edge">
<title>Node2&#45;&gt;Node32</title>
<g id="a_edge39_Node000002_Node000032"><a xlink:title=" ">
<path fill="none" stroke="#63b8ff" d="M2097.38,-121.23C2039.62,-101.53 1928.89,-68.75 1831.62,-68.75 1831.62,-68.75 1831.62,-68.75 1523.88,-68.75 1443.41,-68.75 1350.18,-65.91 1293.05,-63.85"/>
<polygon fill="#63b8ff" stroke="#63b8ff" points="2096.19,-124.52 2106.78,-124.49 2098.48,-117.91 2096.19,-124.52"/>
</a>
</g>
</g>
<!-- Node4 -->
<g id="Node000004" class="node">
<title>Node4</title>
<g id="a_Node000004"><a xlink:href="classinja_1_1Parser.html#afdea619b58c4db677d49c0481d6a9a4b" target="_top" xlink:title=" ">
<polygon fill="white" stroke="#666666" points="1882.5,-263.5 1778.75,-263.5 1778.75,-230 1882.5,-230 1882.5,-263.5"/>
<text xml:space="preserve" text-anchor="start" x="1786.75" y="-250" font-family="Helvetica,sans-Serif" font-size="10.00">inja::Parser::parse</text>
<text xml:space="preserve" text-anchor="middle" x="1830.62" y="-237.25" font-family="Helvetica,sans-Serif" font-size="10.00">_statement</text>
</a>
</g>
</g>
<!-- Node3&#45;&gt;Node4 -->
<g id="edge3_Node000003_Node000004" class="edge">
<title>Node3&#45;&gt;Node4</title>
<g id="a_edge3_Node000003_Node000004"><a xlink:title=" ">
<path fill="none" stroke="#63b8ff" d="M1914.19,-221.56C1903.67,-224.77 1892.9,-228.06 1882.76,-231.15"/>
<polygon fill="#63b8ff" stroke="#63b8ff" points="1915.05,-224.96 1923.59,-218.69 1913.01,-218.26 1915.05,-224.96"/>
</a>
</g>
</g>
<!-- Node5 -->
<g id="Node000005" class="node">
<title>Node5</title>
<g id="a_Node000005"><a xlink:href="classinja_1_1Parser.html#a325c55a6c060f76d0d83b4d187b1ef33" target="_top" xlink:title=" ">
<polygon fill="white" stroke="#666666" points="1740.5,-257.12 1612.75,-257.12 1612.75,-236.38 1740.5,-236.38 1740.5,-257.12"/>
<text xml:space="preserve" text-anchor="middle" x="1676.62" y="-243.62" font-family="Helvetica,sans-Serif" font-size="10.00">inja::Parser::parse_into</text>
</a>
</g>
</g>
<!-- Node4&#45;&gt;Node5 -->
<g id="edge4_Node000004_Node000005" class="edge">
<title>Node4&#45;&gt;Node5</title>
<g id="a_edge4_Node000004_Node000005"><a xlink:title=" ">
<path fill="none" stroke="#63b8ff" d="M1767.33,-246.75C1758.62,-246.75 1749.67,-246.75 1740.95,-246.75"/>
<polygon fill="#63b8ff" stroke="#63b8ff" points="1767.07,-250.25 1777.07,-246.75 1767.07,-243.25 1767.07,-250.25"/>
</a>
</g>
</g>
<!-- Node6 -->
<g id="Node000006" class="node">
<title>Node6</title>
<g id="a_Node000006"><a xlink:href="classinja_1_1Parser.html#ae9cf060e992d2a12b7fd47b346d8bd64" target="_top" xlink:title=" ">
<polygon fill="white" stroke="#666666" points="1576.75,-264.12 1473,-264.12 1473,-243.38 1576.75,-243.38 1576.75,-264.12"/>
<text xml:space="preserve" text-anchor="middle" x="1524.88" y="-250.62" font-family="Helvetica,sans-Serif" font-size="10.00">inja::Parser::parse</text>
</a>
</g>
</g>
<!-- Node5&#45;&gt;Node6 -->
<g id="edge5_Node000005_Node000006" class="edge">
<title>Node5&#45;&gt;Node6</title>
<g id="a_edge5_Node000005_Node000006"><a xlink:title=" ">
<path fill="none" stroke="#63b8ff" d="M1601.1,-250.23C1592.97,-250.61 1584.83,-250.99 1577.07,-251.36"/>
<polygon fill="#63b8ff" stroke="#63b8ff" points="1601.21,-253.73 1611.04,-249.77 1600.89,-246.74 1601.21,-253.73"/>
</a>
</g>
</g>
<!-- Node23 -->
<g id="Node000023" class="node">
<title>Node23</title>
<g id="a_Node000023"><a xlink:href="classinja_1_1Parser.html#af2b8ee63877e6b685f30c87d204bbe8b" target="_top" xlink:title=" ">
<polygon fill="white" stroke="#666666" points="1576.75,-222.5 1473,-222.5 1473,-189 1576.75,-189 1576.75,-222.5"/>
<text xml:space="preserve" text-anchor="start" x="1481" y="-209" font-family="Helvetica,sans-Serif" font-size="10.00">inja::Parser::parse</text>
<text xml:space="preserve" text-anchor="middle" x="1524.88" y="-196.25" font-family="Helvetica,sans-Serif" font-size="10.00">_into_template</text>
</a>
</g>
</g>
<!-- Node5&#45;&gt;Node23 -->
<g id="edge28_Node000005_Node000023" class="edge">
<title>Node5&#45;&gt;Node23</title>
<g id="a_edge28_Node000005_Node000023"><a xlink:title=" ">
<path fill="none" stroke="#63b8ff" d="M1625.3,-232.97C1609.77,-228.72 1592.66,-224.04 1577.08,-219.77"/>
<polygon fill="#63b8ff" stroke="#63b8ff" points="1624.25,-236.31 1634.82,-235.58 1626.1,-229.56 1624.25,-236.31"/>
</a>
</g>
</g>
<!-- Node7 -->
<g id="Node000007" class="node">
<title>Node7</title>
<g id="a_Node000007"><a xlink:href="classinja_1_1Environment.html#a8421b8d61fc4de15f29c909bd7154f92" target="_top" xlink:title=" ">
<polygon fill="white" stroke="#666666" points="1437,-271.5 1328.75,-271.5 1328.75,-238 1437,-238 1437,-271.5"/>
<text xml:space="preserve" text-anchor="start" x="1336.75" y="-258" font-family="Helvetica,sans-Serif" font-size="10.00">inja::Environment::</text>
<text xml:space="preserve" text-anchor="middle" x="1382.88" y="-245.25" font-family="Helvetica,sans-Serif" font-size="10.00">parse</text>
</a>
</g>
</g>
<!-- Node6&#45;&gt;Node7 -->
<g id="edge6_Node000006_Node000007" class="edge">
<title>Node6&#45;&gt;Node7</title>
<g id="a_edge6_Node000006_Node000007"><a xlink:title=" ">
<path fill="none" stroke="#63b8ff" d="M1461.26,-254.2C1453.19,-254.25 1444.98,-254.31 1437.08,-254.37"/>
<polygon fill="#63b8ff" stroke="#63b8ff" points="1461.05,-257.7 1471.03,-254.13 1461,-250.7 1461.05,-257.7"/>
</a>
</g>
</g>
<!-- Node8 -->
<g id="Node000008" class="node">
<title>Node8</title>
<g id="a_Node000008"><a xlink:href="classinja_1_1Environment.html#aac36e0cfdc9e7926914e46c0cd1caada" target="_top" xlink:title=" ">
<polygon fill="white" stroke="#666666" points="1292.75,-324.5 1184.5,-324.5 1184.5,-291 1292.75,-291 1292.75,-324.5"/>
<text xml:space="preserve" text-anchor="start" x="1192.5" y="-311" font-family="Helvetica,sans-Serif" font-size="10.00">inja::Environment::</text>
<text xml:space="preserve" text-anchor="middle" x="1238.62" y="-298.25" font-family="Helvetica,sans-Serif" font-size="10.00">render</text>
</a>
</g>
</g>
<!-- Node7&#45;&gt;Node8 -->
<g id="edge7_Node000007_Node000008" class="edge">
<title>Node7&#45;&gt;Node8</title>
<g id="a_edge7_Node000007_Node000008"><a xlink:title=" ">
<path fill="none" stroke="#63b8ff" d="M1324.91,-275.97C1311.84,-280.84 1298.11,-285.96 1285.58,-290.63"/>
<polygon fill="#63b8ff" stroke="#63b8ff" points="1326.12,-279.26 1334.27,-272.49 1323.68,-272.7 1326.12,-279.26"/>
</a>
</g>
</g>
<!-- Node21 -->
<g id="Node000021" class="node">
<title>Node21</title>
<g id="a_Node000021"><a xlink:href="classinja_1_1Environment.html#ad00da8b535e5c5633ed2adec622e6cf4" target="_top" xlink:title=" ">
<polygon fill="white" stroke="#666666" points="1292.75,-272.5 1184.5,-272.5 1184.5,-239 1292.75,-239 1292.75,-272.5"/>
<text xml:space="preserve" text-anchor="start" x="1192.5" y="-259" font-family="Helvetica,sans-Serif" font-size="10.00">inja::Environment::</text>
<text xml:space="preserve" text-anchor="middle" x="1238.62" y="-246.25" font-family="Helvetica,sans-Serif" font-size="10.00">render_to</text>
</a>
</g>
</g>
<!-- Node7&#45;&gt;Node21 -->
<g id="edge26_Node000007_Node000021" class="edge">
<title>Node7&#45;&gt;Node21</title>
<g id="a_edge26_Node000007_Node000021"><a xlink:title=" ">
<path fill="none" stroke="#63b8ff" d="M1317.13,-255.21C1308.99,-255.26 1300.75,-255.32 1292.82,-255.38"/>
<polygon fill="#63b8ff" stroke="#63b8ff" points="1317.01,-258.71 1326.99,-255.14 1316.96,-251.71 1317.01,-258.71"/>
</a>
</g>
</g>
<!-- Node22 -->
<g id="Node000022" class="node">
<title>Node22</title>
<g id="a_Node000022"><a xlink:href="namespaceinja.html#a996f16f78b37d05e19cf44ac74d83e7e" target="_top" xlink:title="render with default settings to the given output stream">
<polygon fill="white" stroke="#666666" points="1281.88,-221.12 1195.38,-221.12 1195.38,-200.38 1281.88,-200.38 1281.88,-221.12"/>
<text xml:space="preserve" text-anchor="middle" x="1238.62" y="-207.62" font-family="Helvetica,sans-Serif" font-size="10.00">inja::render_to</text>
</a>
</g>
</g>
<!-- Node7&#45;&gt;Node22 -->
<g id="edge27_Node000007_Node000022" class="edge">
<title>Node7&#45;&gt;Node22</title>
<g id="a_edge27_Node000007_Node000022"><a xlink:title=" ">
<path fill="none" stroke="#63b8ff" d="M1317.82,-234.94C1303,-230.35 1287.77,-225.64 1274.73,-221.61"/>
<polygon fill="#63b8ff" stroke="#63b8ff" points="1316.47,-238.18 1327.06,-237.79 1318.54,-231.49 1316.47,-238.18"/>
</a>
</g>
</g>
<!-- Node9 -->
<g id="Node000009" class="node">
<title>Node9</title>
<g id="a_Node000009"><a xlink:href="classmqtt_1_1lib_1_1MqttMapper.html#af9adb23cc42f2128abccb8edd5ad6396" target="_top" xlink:title=" ">
<polygon fill="white" stroke="#666666" points="1148.5,-346.5 1007.25,-346.5 1007.25,-313 1148.5,-313 1148.5,-346.5"/>
<text xml:space="preserve" text-anchor="start" x="1015.25" y="-333" font-family="Helvetica,sans-Serif" font-size="10.00">mqtt::lib::MqttMapper</text>
<text xml:space="preserve" text-anchor="middle" x="1077.88" y="-320.25" font-family="Helvetica,sans-Serif" font-size="10.00">::publishMappedTemplate</text>
</a>
</g>
</g>
<!-- Node8&#45;&gt;Node9 -->
<g id="edge8_Node000008_Node000009" class="edge">
<title>Node8&#45;&gt;Node9</title>
<g id="a_edge8_Node000008_Node000009"><a xlink:title=" ">
<path fill="none" stroke="#63b8ff" d="M1172.93,-316.72C1165.03,-317.81 1156.93,-318.93 1148.95,-320.04"/>
<polygon fill="#63b8ff" stroke="#63b8ff" points="1173.4,-320.18 1182.82,-315.34 1172.44,-313.25 1173.4,-320.18"/>
</a>
</g>
</g>
<!-- Node20 -->
<g id="Node000020" class="node">
<title>Node20</title>
<g id="a_Node000020"><a xlink:href="namespaceinja.html#a539106781b52cc6117fc132f927a9dec" target="_top" xlink:title="render with default settings to a string">
<polygon fill="white" stroke="#666666" points="1113.62,-295.12 1042.12,-295.12 1042.12,-274.38 1113.62,-274.38 1113.62,-295.12"/>
<text xml:space="preserve" text-anchor="middle" x="1077.88" y="-281.62" font-family="Helvetica,sans-Serif" font-size="10.00">inja::render</text>
</a>
</g>
</g>
<!-- Node8&#45;&gt;Node20 -->
<g id="edge25_Node000008_Node000020" class="edge">
<title>Node8&#45;&gt;Node20</title>
<g id="a_edge25_Node000008_Node000020"><a xlink:title=" ">
<path fill="none" stroke="#63b8ff" d="M1172.94,-298.38C1152.72,-295.45 1131.18,-292.33 1113.82,-289.81"/>
<polygon fill="#63b8ff" stroke="#63b8ff" points="1172.43,-301.84 1182.82,-299.81 1173.43,-294.91 1172.43,-301.84"/>
</a>
</g>
</g>
<!-- Node10 -->
<g id="Node000010" class="node">
<title>Node10</title>
<g id="a_Node000010"><a xlink:href="classmqtt_1_1lib_1_1MqttMapper.html#a87fc6345c899ea6a7e58069daa666306" target="_top" xlink:title=" ">
<polygon fill="white" stroke="#666666" points="971.25,-346.5 841.25,-346.5 841.25,-313 971.25,-313 971.25,-346.5"/>
<text xml:space="preserve" text-anchor="start" x="849.25" y="-333" font-family="Helvetica,sans-Serif" font-size="10.00">mqtt::lib::MqttMapper</text>
<text xml:space="preserve" text-anchor="middle" x="906.25" y="-320.25" font-family="Helvetica,sans-Serif" font-size="10.00">::getTemplateMappings</text>
</a>
</g>
</g>
<!-- Node9&#45;&gt;Node10 -->
<g id="edge9_Node000009_Node000010" class="edge">
<title>Node9&#45;&gt;Node10</title>
<g id="a_edge9_Node000009_Node000010"><a xlink:title=" ">
<path fill="none" stroke="#63b8ff" d="M995.59,-329.75C987.54,-329.75 979.46,-329.75 971.62,-329.75"/>
<polygon fill="#63b8ff" stroke="#63b8ff" points="995.39,-333.25 1005.39,-329.75 995.39,-326.25 995.39,-333.25"/>
</a>
</g>
</g>
<!-- Node11 -->
<g id="Node000011" class="node">
<title>Node11</title>
<g id="a_Node000011"><a xlink:href="classmqtt_1_1lib_1_1MqttMapper.html#a542c86edf273308138357e4773c55d3c" target="_top" xlink:title=" ">
<polygon fill="white" stroke="#666666" points="805.25,-346.5 682.75,-346.5 682.75,-313 805.25,-313 805.25,-346.5"/>
<text xml:space="preserve" text-anchor="start" x="690.75" y="-333" font-family="Helvetica,sans-Serif" font-size="10.00">mqtt::lib::MqttMapper</text>
<text xml:space="preserve" text-anchor="middle" x="744" y="-320.25" font-family="Helvetica,sans-Serif" font-size="10.00">::getMappings</text>
</a>
</g>
</g>
<!-- Node10&#45;&gt;Node11 -->
<g id="edge10_Node000010_Node000011" class="edge">
<title>Node10&#45;&gt;Node11</title>
<g id="a_edge10_Node000010_Node000011"><a xlink:title=" ">
<path fill="none" stroke="#63b8ff" d="M829.67,-329.75C821.61,-329.75 813.49,-329.75 805.63,-329.75"/>
<polygon fill="#63b8ff" stroke="#63b8ff" points="829.48,-333.25 839.48,-329.75 829.48,-326.25 829.48,-333.25"/>
</a>
</g>
</g>
<!-- Node12 -->
<g id="Node000012" class="node">
<title>Node12</title>
<g id="a_Node000012"><a xlink:href="classmqtt_1_1mqttbroker_1_1lib_1_1Mqtt.html#a35dd670ca3b7d67cffbbce1cf7c71ffb" target="_top" xlink:title=" ">
<polygon fill="white" stroke="#666666" points="646.75,-381.5 529.5,-381.5 529.5,-348 646.75,-348 646.75,-381.5"/>
<text xml:space="preserve" text-anchor="start" x="537.5" y="-368" font-family="Helvetica,sans-Serif" font-size="10.00">mqtt::mqttbroker::lib</text>
<text xml:space="preserve" text-anchor="middle" x="588.12" y="-355.25" font-family="Helvetica,sans-Serif" font-size="10.00">::Mqtt::onPublish</text>
</a>
</g>
</g>
<!-- Node11&#45;&gt;Node12 -->
<g id="edge11_Node000011_Node000012" class="edge">
<title>Node11&#45;&gt;Node12</title>
<g id="a_edge11_Node000011_Node000012"><a xlink:title=" ">
<path fill="none" stroke="#63b8ff" d="M671.53,-346.01C663.33,-347.87 655.05,-349.75 647.06,-351.57"/>
<polygon fill="#63b8ff" stroke="#63b8ff" points="672.18,-349.45 681.15,-343.82 670.62,-342.62 672.18,-349.45"/>
</a>
</g>
</g>
<!-- Node16 -->
<g id="Node000016" class="node">
<title>Node16</title>
<g id="a_Node000016"><a xlink:href="classmqtt_1_1mqttintegrator_1_1lib_1_1Mqtt.html#a211408365844787ce77340f454b9cbd0" target="_top" xlink:title=" ">
<polygon fill="white" stroke="#666666" points="646.38,-311.5 529.88,-311.5 529.88,-278 646.38,-278 646.38,-311.5"/>
<text xml:space="preserve" text-anchor="start" x="537.88" y="-298" font-family="Helvetica,sans-Serif" font-size="10.00">mqtt::mqttintegrator</text>
<text xml:space="preserve" text-anchor="middle" x="588.12" y="-285.25" font-family="Helvetica,sans-Serif" font-size="10.00">::lib::Mqtt::onPublish</text>
</a>
</g>
</g>
<!-- Node11&#45;&gt;Node16 -->
<g id="edge18_Node000011_Node000016" class="edge">
<title>Node11&#45;&gt;Node16</title>
<g id="a_edge18_Node000011_Node000016"><a xlink:title=" ">
<path fill="none" stroke="#63b8ff" d="M671.45,-313.48C663.19,-311.6 654.85,-309.7 646.81,-307.87"/>
<polygon fill="#63b8ff" stroke="#63b8ff" points="670.62,-316.88 681.15,-315.68 672.18,-310.05 670.62,-316.88"/>
</a>
</g>
</g>
<!-- Node12&#45;&gt;Node12 -->
<g id="edge12_Node000012_Node000012" class="edge">
<title>Node12&#45;&gt;Node12</title>
<g id="a_edge12_Node000012_Node000012"><a xlink:title=" ">
<path fill="none" stroke="#63b8ff" d="M614.3,-392.89C610.04,-396.85 601.31,-399.5 588.12,-399.5 564.68,-399.5 555.34,-391.12 560.1,-381.91"/>
<polygon fill="#63b8ff" stroke="#63b8ff" points="617.69,-393.85 615.89,-383.41 610.78,-392.69 617.69,-393.85"/>
</a>
</g>
</g>
<!-- Node13 -->
<g id="Node000013" class="node">
<title>Node13</title>
<g id="a_Node000013"><a xlink:href="classmqtt_1_1mqttbroker_1_1lib_1_1Mqtt_1_1DelayedQueue.html#abe935c28141087ad3eadf41acab44702" target="_top" xlink:title=" ">
<polygon fill="white" stroke="#666666" points="484.5,-438.88 362,-438.88 362,-392.62 484.5,-392.62 484.5,-438.88"/>
<text xml:space="preserve" text-anchor="start" x="370" y="-425.38" font-family="Helvetica,sans-Serif" font-size="10.00">mqtt::mqttbroker::lib</text>
<text xml:space="preserve" text-anchor="start" x="370" y="-412.62" font-family="Helvetica,sans-Serif" font-size="10.00">::Mqtt::DelayedQueue</text>
<text xml:space="preserve" text-anchor="middle" x="423.25" y="-399.88" font-family="Helvetica,sans-Serif" font-size="10.00">::processDue</text>
</a>
</g>
</g>
<!-- Node12&#45;&gt;Node13 -->
<g id="edge13_Node000012_Node000013" class="edge">
<title>Node12&#45;&gt;Node13</title>
<g id="a_edge13_Node000012_Node000013"><a xlink:title=" ">
<path fill="none" stroke="#63b8ff" d="M521.52,-385.29C509.44,-389.07 496.88,-393.01 484.96,-396.74"/>
<polygon fill="#63b8ff" stroke="#63b8ff" points="522.5,-388.65 530.99,-382.33 520.4,-381.97 522.5,-388.65"/>
</a>
</g>
</g>
<!-- Node14 -->
<g id="Node000014" class="node">
<title>Node14</title>
<g id="a_Node000014"><a xlink:href="classmqtt_1_1mqttbroker_1_1lib_1_1Mqtt_1_1DelayedQueue.html#a8becf2d97fc0f71a12ae5e84ea8b2a66" target="_top" xlink:title=" ">
<polygon fill="white" stroke="#666666" points="308,-438.88 185.5,-438.88 185.5,-392.62 308,-392.62 308,-438.88"/>
<text xml:space="preserve" text-anchor="start" x="193.5" y="-425.38" font-family="Helvetica,sans-Serif" font-size="10.00">mqtt::mqttbroker::lib</text>
<text xml:space="preserve" text-anchor="start" x="193.5" y="-412.62" font-family="Helvetica,sans-Serif" font-size="10.00">::Mqtt::DelayedQueue</text>
<text xml:space="preserve" text-anchor="middle" x="246.75" y="-399.88" font-family="Helvetica,sans-Serif" font-size="10.00">::armDelayTimer</text>
</a>
</g>
</g>
<!-- Node13&#45;&gt;Node14 -->
<g id="edge14_Node000013_Node000014" class="edge">
<title>Node13&#45;&gt;Node14</title>
<g id="a_edge14_Node000013_Node000014"><a xlink:title=" ">
<path fill="none" stroke="#63b8ff" d="M350.21,-415.75C336.35,-415.75 321.95,-415.75 308.48,-415.75"/>
<polygon fill="#63b8ff" stroke="#63b8ff" points="350.19,-419.25 360.19,-415.75 350.19,-412.25 350.19,-419.25"/>
</a>
</g>
</g>
<!-- Node14&#45;&gt;Node14 -->
<g id="edge15_Node000014_Node000014" class="edge">
<title>Node14&#45;&gt;Node14</title>
<g id="a_edge15_Node000014_Node000014"><a xlink:title=" ">
<path fill="none" stroke="#63b8ff" d="M275.78,-449.61C270.75,-453.98 261.08,-456.88 246.75,-456.88 222.62,-456.88 211.68,-448.68 213.95,-439"/>
<polygon fill="#63b8ff" stroke="#63b8ff" points="278.99,-451.02 279.05,-440.43 272.39,-448.68 278.99,-451.02"/>
</a>
</g>
</g>
<!-- Node15 -->
<g id="Node000015" class="node">
<title>Node15</title>
<g id="a_Node000015"><a xlink:href="classmqtt_1_1mqttbroker_1_1lib_1_1Mqtt_1_1DelayedQueue.html#a0cea5b90a1434e82da43bd2f4c6dd47c" target="_top" xlink:title=" ">
<polygon fill="white" stroke="#666666" points="131.5,-412.88 9,-412.88 9,-366.62 131.5,-366.62 131.5,-412.88"/>
<text xml:space="preserve" text-anchor="start" x="17" y="-399.38" font-family="Helvetica,sans-Serif" font-size="10.00">mqtt::mqttbroker::lib</text>
<text xml:space="preserve" text-anchor="start" x="17" y="-386.62" font-family="Helvetica,sans-Serif" font-size="10.00">::Mqtt::DelayedQueue</text>
<text xml:space="preserve" text-anchor="middle" x="70.25" y="-373.88" font-family="Helvetica,sans-Serif" font-size="10.00">::delayPublish</text>
</a>
</g>
</g>
<!-- Node14&#45;&gt;Node15 -->
<g id="edge16_Node000014_Node000015" class="edge">
<title>Node14&#45;&gt;Node15</title>
<g id="a_edge16_Node000014_Node000015"><a xlink:title=" ">
<path fill="none" stroke="#63b8ff" d="M174.13,-405.08C160.13,-402.99 145.58,-400.83 131.98,-398.8"/>
<polygon fill="#63b8ff" stroke="#63b8ff" points="173.3,-408.49 183.71,-406.51 174.34,-401.57 173.3,-408.49"/>
</a>
</g>
</g>
<!-- Node15&#45;&gt;Node12 -->
<g id="edge17_Node000015_Node000012" class="edge">
<title>Node15&#45;&gt;Node12</title>
<g id="a_edge17_Node000015_Node000012"><a xlink:title=" ">
<path fill="none" stroke="#63b8ff" d="M143.36,-385.54C154.45,-384.92 165.78,-384.3 176.5,-383.75 302.29,-377.25 449.82,-370.68 529.31,-367.23"/>
<polygon fill="#63b8ff" stroke="#63b8ff" points="143.21,-382.04 133.42,-386.1 143.6,-389.03 143.21,-382.04"/>
</a>
</g>
</g>
<!-- Node16&#45;&gt;Node16 -->
<g id="edge19_Node000016_Node000016" class="edge">
<title>Node16&#45;&gt;Node16</title>
<g id="a_edge19_Node000016_Node000016"><a xlink:title=" ">
<path fill="none" stroke="#63b8ff" d="M614.3,-322.89C610.04,-326.85 601.31,-329.5 588.12,-329.5 564.68,-329.5 555.34,-321.12 560.1,-311.91"/>
<polygon fill="#63b8ff" stroke="#63b8ff" points="617.69,-323.85 615.89,-313.41 610.78,-322.69 617.69,-323.85"/>
</a>
</g>
</g>
<!-- Node17 -->
<g id="Node000017" class="node">
<title>Node17</title>
<g id="a_Node000017"><a xlink:href="classmqtt_1_1mqttintegrator_1_1lib_1_1Mqtt_1_1DelayedQueue.html#ad8803a587bf94d106c9a501c01ac8ea8" target="_top" xlink:title=" ">
<polygon fill="white" stroke="#666666" points="493.5,-318.88 353,-318.88 353,-272.62 493.5,-272.62 493.5,-318.88"/>
<text xml:space="preserve" text-anchor="start" x="361" y="-305.38" font-family="Helvetica,sans-Serif" font-size="10.00">mqtt::mqttintegrator</text>
<text xml:space="preserve" text-anchor="start" x="361" y="-292.62" font-family="Helvetica,sans-Serif" font-size="10.00">::lib::Mqtt::DelayedQueue</text>
<text xml:space="preserve" text-anchor="middle" x="423.25" y="-279.88" font-family="Helvetica,sans-Serif" font-size="10.00">::processDue</text>
</a>
</g>
</g>
<!-- Node16&#45;&gt;Node17 -->
<g id="edge20_Node000016_Node000017" class="edge">
<title>Node16&#45;&gt;Node17</title>
<g id="a_edge20_Node000016_Node000017"><a xlink:title=" ">
<path fill="none" stroke="#63b8ff" d="M518.34,-295.17C510.19,-295.22 501.88,-295.27 493.73,-295.32"/>
<polygon fill="#63b8ff" stroke="#63b8ff" points="518.21,-298.67 528.19,-295.11 518.17,-291.67 518.21,-298.67"/>
</a>
</g>
</g>
<!-- Node18 -->
<g id="Node000018" class="node">
<title>Node18</title>
<g id="a_Node000018"><a xlink:href="classmqtt_1_1mqttintegrator_1_1lib_1_1Mqtt_1_1DelayedQueue.html#a110f0813ded3a278c42dab9337c2a723" target="_top" xlink:title=" ">
<polygon fill="white" stroke="#666666" points="317,-318.88 176.5,-318.88 176.5,-272.62 317,-272.62 317,-318.88"/>
<text xml:space="preserve" text-anchor="start" x="184.5" y="-305.38" font-family="Helvetica,sans-Serif" font-size="10.00">mqtt::mqttintegrator</text>
<text xml:space="preserve" text-anchor="start" x="184.5" y="-292.62" font-family="Helvetica,sans-Serif" font-size="10.00">::lib::Mqtt::DelayedQueue</text>
<text xml:space="preserve" text-anchor="middle" x="246.75" y="-279.88" font-family="Helvetica,sans-Serif" font-size="10.00">::armDelayTimer</text>
</a>
</g>
</g>
<!-- Node17&#45;&gt;Node18 -->
<g id="edge21_Node000017_Node000018" class="edge">
<title>Node17&#45;&gt;Node18</title>
<g id="a_edge21_Node000017_Node000018"><a xlink:title=" ">
<path fill="none" stroke="#63b8ff" d="M341.02,-295.75C333.11,-295.75 325.14,-295.75 317.36,-295.75"/>
<polygon fill="#63b8ff" stroke="#63b8ff" points="341.02,-299.25 351.02,-295.75 341.02,-292.25 341.02,-299.25"/>
</a>
</g>
</g>
<!-- Node18&#45;&gt;Node18 -->
<g id="edge22_Node000018_Node000018" class="edge">
<title>Node18&#45;&gt;Node18</title>
<g id="a_edge22_Node000018_Node000018"><a xlink:title=" ">
<path fill="none" stroke="#63b8ff" d="M275.78,-329.61C270.75,-333.98 261.08,-336.88 246.75,-336.88 222.62,-336.88 211.68,-328.68 213.95,-319"/>
<polygon fill="#63b8ff" stroke="#63b8ff" points="278.99,-331.02 279.05,-320.43 272.39,-328.68 278.99,-331.02"/>
</a>
</g>
</g>
<!-- Node19 -->
<g id="Node000019" class="node">
<title>Node19</title>
<g id="a_Node000019"><a xlink:href="classmqtt_1_1mqttintegrator_1_1lib_1_1Mqtt_1_1DelayedQueue.html#a95c8667b0cef676e6edcb1760ed4a7f9" target="_top" xlink:title=" ">
<polygon fill="white" stroke="#666666" points="140.5,-293.88 0,-293.88 0,-247.62 140.5,-247.62 140.5,-293.88"/>
<text xml:space="preserve" text-anchor="start" x="8" y="-280.38" font-family="Helvetica,sans-Serif" font-size="10.00">mqtt::mqttintegrator</text>
<text xml:space="preserve" text-anchor="start" x="8" y="-267.62" font-family="Helvetica,sans-Serif" font-size="10.00">::lib::Mqtt::DelayedQueue</text>
<text xml:space="preserve" text-anchor="middle" x="70.25" y="-254.88" font-family="Helvetica,sans-Serif" font-size="10.00">::delayPublish</text>
</a>
</g>
</g>
<!-- Node18&#45;&gt;Node19 -->
<g id="edge23_Node000018_Node000019" class="edge">
<title>Node18&#45;&gt;Node19</title>
<g id="a_edge23_Node000018_Node000019"><a xlink:title=" ">
<path fill="none" stroke="#63b8ff" d="M164.8,-284.15C156.8,-283.01 148.73,-281.85 140.86,-280.72"/>
<polygon fill="#63b8ff" stroke="#63b8ff" points="164.14,-287.59 174.53,-285.55 165.13,-280.66 164.14,-287.59"/>
</a>
</g>
</g>
<!-- Node19&#45;&gt;Node16 -->
<g id="edge24_Node000019_Node000016" class="edge">
<title>Node19&#45;&gt;Node16</title>
<g id="a_edge24_Node000019_Node000016"><a xlink:title=" ">
<path fill="none" stroke="#63b8ff" d="M152.35,-261.01C237.8,-252.7 376.03,-244.81 493.5,-263.75 510.74,-266.53 529.11,-272.02 544.96,-277.61"/>
<polygon fill="#63b8ff" stroke="#63b8ff" points="152.01,-257.52 142.41,-262 152.71,-264.49 152.01,-257.52"/>
</a>
</g>
</g>
<!-- Node23&#45;&gt;Node3 -->
<g id="edge29_Node000023_Node000003" class="edge">
<title>Node23&#45;&gt;Node3</title>
<g id="a_edge29_Node000023_Node000003"><a xlink:title=" ">
<path fill="none" stroke="#63b8ff" d="M1588.33,-205.2C1677.65,-204.41 1840.37,-202.97 1924.9,-202.23"/>
<polygon fill="#63b8ff" stroke="#63b8ff" points="1588.51,-201.7 1578.54,-205.29 1588.57,-208.7 1588.51,-201.7"/>
</a>
</g>
</g>
<!-- Node24 -->
<g id="Node000024" class="node">
<title>Node24</title>
<g id="a_Node000024"><a xlink:href="classinja_1_1Environment.html#a85717fc369572292cce46e42a32e38f5" target="_top" xlink:title=" ">
<polygon fill="white" stroke="#666666" points="1437,-180.5 1328.75,-180.5 1328.75,-147 1437,-147 1437,-180.5"/>
<text xml:space="preserve" text-anchor="start" x="1336.75" y="-167" font-family="Helvetica,sans-Serif" font-size="10.00">inja::Environment::</text>
<text xml:space="preserve" text-anchor="middle" x="1382.88" y="-154.25" font-family="Helvetica,sans-Serif" font-size="10.00">parse_template</text>
</a>
</g>
</g>
<!-- Node23&#45;&gt;Node24 -->
<g id="edge30_Node000023_Node000024" class="edge">
<title>Node23&#45;&gt;Node24</title>
<g id="a_edge30_Node000023_Node000024"><a xlink:title=" ">
<path fill="none" stroke="#63b8ff" d="M1461.54,-187.05C1453.38,-184.6 1445.08,-182.11 1437.08,-179.71"/>
<polygon fill="#63b8ff" stroke="#63b8ff" points="1460.51,-190.39 1471.09,-189.91 1462.52,-183.69 1460.51,-190.39"/>
</a>
</g>
</g>
<!-- Node25 -->
<g id="Node000025" class="node">
<title>Node25</title>
<g id="a_Node000025"><a xlink:href="classinja_1_1Environment.html#aec4165117f8d7242f813bb7859b86d18" target="_top" xlink:title=" ">
<polygon fill="white" stroke="#666666" points="1292.75,-182.5 1184.5,-182.5 1184.5,-149 1292.75,-149 1292.75,-182.5"/>
<text xml:space="preserve" text-anchor="start" x="1192.5" y="-169" font-family="Helvetica,sans-Serif" font-size="10.00">inja::Environment::</text>
<text xml:space="preserve" text-anchor="middle" x="1238.62" y="-156.25" font-family="Helvetica,sans-Serif" font-size="10.00">parse_file</text>
</a>
</g>
</g>
<!-- Node24&#45;&gt;Node25 -->
<g id="edge31_Node000024_Node000025" class="edge">
<title>Node24&#45;&gt;Node25</title>
<g id="a_edge31_Node000024_Node000025"><a xlink:title=" ">
<path fill="none" stroke="#63b8ff" d="M1317.13,-164.66C1308.99,-164.77 1300.75,-164.89 1292.82,-165"/>
<polygon fill="#63b8ff" stroke="#63b8ff" points="1317.04,-168.16 1326.99,-164.52 1316.94,-161.16 1317.04,-168.16"/>
</a>
</g>
</g>
<!-- Node26 -->
<g id="Node000026" class="node">
<title>Node26</title>
<g id="a_Node000026"><a xlink:href="classinja_1_1Environment.html#a3e30972fab0a5962c232f4c0f7002845" target="_top" xlink:title=" ">
<polygon fill="white" stroke="#666666" points="1292.75,-130.5 1184.5,-130.5 1184.5,-97 1292.75,-97 1292.75,-130.5"/>
<text xml:space="preserve" text-anchor="start" x="1192.5" y="-117" font-family="Helvetica,sans-Serif" font-size="10.00">inja::Environment::</text>
<text xml:space="preserve" text-anchor="middle" x="1238.62" y="-104.25" font-family="Helvetica,sans-Serif" font-size="10.00">render_file</text>
</a>
</g>
</g>
<!-- Node24&#45;&gt;Node26 -->
<g id="edge32_Node000024_Node000026" class="edge">
<title>Node24&#45;&gt;Node26</title>
<g id="a_edge32_Node000024_Node000026"><a xlink:title=" ">
<path fill="none" stroke="#63b8ff" d="M1322.33,-142.82C1311.12,-138.88 1299.51,-134.8 1288.67,-130.99"/>
<polygon fill="#63b8ff" stroke="#63b8ff" points="1320.9,-146.03 1331.49,-146.04 1323.22,-139.42 1320.9,-146.03"/>
</a>
</g>
</g>
<!-- Node27 -->
<g id="Node000027" class="node">
<title>Node27</title>
<g id="a_Node000027"><a xlink:href="classinja_1_1Environment.html#a815d87f3fb622a7639691803ff9a123b" target="_top" xlink:title=" ">
<polygon fill="white" stroke="#666666" points="1148.5,-123.5 1007.25,-123.5 1007.25,-90 1148.5,-90 1148.5,-123.5"/>
<text xml:space="preserve" text-anchor="start" x="1015.25" y="-110" font-family="Helvetica,sans-Serif" font-size="10.00">inja::Environment::</text>
<text xml:space="preserve" text-anchor="middle" x="1077.88" y="-97.25" font-family="Helvetica,sans-Serif" font-size="10.00">render_file_with_json_file</text>
</a>
</g>
</g>
<!-- Node26&#45;&gt;Node27 -->
<g id="edge33_Node000026_Node000027" class="edge">
<title>Node26&#45;&gt;Node27</title>
<g id="a_edge33_Node000026_Node000027"><a xlink:title=" ">
<path fill="none" stroke="#63b8ff" d="M1172.93,-110.9C1165.03,-110.55 1156.93,-110.19 1148.95,-109.84"/>
<polygon fill="#63b8ff" stroke="#63b8ff" points="1172.67,-114.39 1182.81,-111.33 1172.97,-107.4 1172.67,-114.39"/>
</a>
</g>
</g>
<!-- Node28 -->
<g id="Node000028" class="node">
<title>Node28</title>
<g id="a_Node000028"><a xlink:href="classinja_1_1Environment.html#ae64c18f23f81e8ee787d406ccd4d35dc" target="_top" xlink:title=" ">
<polygon fill="white" stroke="#666666" points="1132,-175.5 1023.75,-175.5 1023.75,-142 1132,-142 1132,-175.5"/>
<text xml:space="preserve" text-anchor="start" x="1031.75" y="-162" font-family="Helvetica,sans-Serif" font-size="10.00">inja::Environment::</text>
<text xml:space="preserve" text-anchor="middle" x="1077.88" y="-149.25" font-family="Helvetica,sans-Serif" font-size="10.00">write</text>
</a>
</g>
</g>
<!-- Node26&#45;&gt;Node28 -->
<g id="edge34_Node000026_Node000028" class="edge">
<title>Node26&#45;&gt;Node28</title>
<g id="a_edge34_Node000026_Node000028"><a xlink:title=" ">
<path fill="none" stroke="#63b8ff" d="M1173.52,-131.92C1159.84,-135.8 1145.53,-139.85 1132.31,-143.6"/>
<polygon fill="#63b8ff" stroke="#63b8ff" points="1174.2,-135.37 1182.87,-129.27 1172.29,-128.63 1174.2,-135.37"/>
</a>
</g>
</g>
<!-- Node29 -->
<g id="Node000029" class="node">
<title>Node29</title>
<g id="a_Node000029"><a xlink:href="classinja_1_1Environment.html#ad6a6b713e78516f4f6fd68c58f309f3c" target="_top" xlink:title=" ">
<polygon fill="white" stroke="#666666" points="963,-127.5 849.5,-127.5 849.5,-94 963,-94 963,-127.5"/>
<text xml:space="preserve" text-anchor="start" x="857.5" y="-114" font-family="Helvetica,sans-Serif" font-size="10.00">inja::Environment::</text>
<text xml:space="preserve" text-anchor="middle" x="906.25" y="-101.25" font-family="Helvetica,sans-Serif" font-size="10.00">write_with_json_file</text>
</a>
</g>
</g>
<!-- Node28&#45;&gt;Node29 -->
<g id="edge35_Node000028_Node000029" class="edge">
<title>Node28&#45;&gt;Node29</title>
<g id="a_edge35_Node000028_Node000029"><a xlink:title=" ">
<path fill="none" stroke="#63b8ff" d="M1012.67,-140.58C996.49,-136 979.25,-131.12 963.49,-126.67"/>
<polygon fill="#63b8ff" stroke="#63b8ff" points="1011.64,-143.93 1022.21,-143.28 1013.54,-137.19 1011.64,-143.93"/>
</a>
</g>
</g>
<!-- Node30&#45;&gt;Node24 -->
<g id="edge38_Node000030_Node000024" class="edge">
<title>Node30&#45;&gt;Node24</title>
<g id="a_edge38_Node000030_Node000024"><a xlink:title=" ">
<path fill="none" stroke="#63b8ff" d="M1909,-140.36C1900.83,-140.85 1892.61,-141.33 1884.75,-141.75 1721.78,-150.51 1528.85,-158.24 1437.26,-161.75"/>
<polygon fill="#63b8ff" stroke="#63b8ff" points="1909.21,-143.86 1918.97,-139.75 1908.78,-136.87 1909.21,-143.86"/>
</a>
</g>
</g>
<!-- Node31 -->
<g id="Node000031" class="node">
<title>Node31</title>
<g id="a_Node000031"><a xlink:href="classinja_1_1Environment.html#a686f69e3cb4f91d439aadadfc60e1ebb" target="_top" xlink:title=" ">
<polygon fill="white" stroke="#666666" points="1884.75,-132.5 1776.5,-132.5 1776.5,-99 1884.75,-99 1884.75,-132.5"/>
<text xml:space="preserve" text-anchor="start" x="1784.5" y="-119" font-family="Helvetica,sans-Serif" font-size="10.00">inja::Environment::</text>
<text xml:space="preserve" text-anchor="middle" x="1830.62" y="-106.25" font-family="Helvetica,sans-Serif" font-size="10.00">load_file</text>
</a>
</g>
</g>
<!-- Node30&#45;&gt;Node31 -->
<g id="edge37_Node000030_Node000031" class="edge">
<title>Node30&#45;&gt;Node31</title>
<g id="a_edge37_Node000030_Node000031"><a xlink:title=" ">
<path fill="none" stroke="#63b8ff" d="M1909.01,-126.24C1900.9,-125.14 1892.72,-124.03 1884.88,-122.97"/>
<polygon fill="#63b8ff" stroke="#63b8ff" points="1908.53,-129.71 1918.91,-127.58 1909.47,-122.77 1908.53,-129.71"/>
</a>
</g>
</g>
<!-- Node32&#45;&gt;Node27 -->
<g id="edge40_Node000032_Node000027" class="edge">
<title>Node32&#45;&gt;Node27</title>
<g id="a_edge40_Node000032_Node000027"><a xlink:title=" ">
<path fill="none" stroke="#63b8ff" d="M1173.38,-79.96C1162.26,-83.11 1150.73,-86.38 1139.71,-89.51"/>
<polygon fill="#63b8ff" stroke="#63b8ff" points="1174.2,-83.37 1182.87,-77.27 1172.29,-76.63 1174.2,-83.37"/>
</a>
</g>
</g>
<!-- Node32&#45;&gt;Node29 -->
<g id="edge41_Node000032_Node000029" class="edge">
<title>Node32&#45;&gt;Node29</title>
<g id="a_edge41_Node000032_Node000029"><a xlink:title=" ">
<path fill="none" stroke="#63b8ff" d="M1172.72,-63.48C1126.29,-65.6 1062.51,-70.3 1007.25,-80.75 990.69,-83.88 972.96,-88.7 957.1,-93.56"/>
<polygon fill="#63b8ff" stroke="#63b8ff" points="1172.78,-66.98 1182.62,-63.06 1172.48,-59.99 1172.78,-66.98"/>
</a>
</g>
</g>
<!-- Node33 -->
<g id="Node000033" class="node">
<title>Node33</title>
<g id="a_Node000033"><a xlink:href="classinja_1_1Environment.html#a9c6eb9a291cf99615991f999128248a7" target="_top" xlink:title=" ">
<polygon fill="white" stroke="#666666" points="1134.62,-33.5 1021.12,-33.5 1021.12,0 1134.62,0 1134.62,-33.5"/>
<text xml:space="preserve" text-anchor="start" x="1029.12" y="-20" font-family="Helvetica,sans-Serif" font-size="10.00">inja::Environment::</text>
<text xml:space="preserve" text-anchor="middle" x="1077.88" y="-7.25" font-family="Helvetica,sans-Serif" font-size="10.00">write_with_json_file</text>
</a>
</g>
</g>
<!-- Node32&#45;&gt;Node33 -->
<g id="edge42_Node000032_Node000033" class="edge">
<title>Node32&#45;&gt;Node33</title>
<g id="a_edge42_Node000032_Node000033"><a xlink:title=" ">
<path fill="none" stroke="#63b8ff" d="M1173.34,-43.53C1160.65,-39.93 1147.42,-36.18 1135.03,-32.67"/>
<polygon fill="#63b8ff" stroke="#63b8ff" points="1172.29,-46.87 1182.87,-46.23 1174.2,-40.13 1172.29,-46.87"/>
</a>
</g>
</g>
</g>
</svg>

<g id="navigator" transform="translate(0 0)" fill="#404254">
  <rect fill="#f2f5e9" fill-opacity="0.5" stroke="#606060" stroke-width=".5" x="0" y="0" width="60" height="60"/>
  <use id="zoomplus" xlink:href="#zoomPlus" x="17" y="9" onmousedown="handleZoom(evt,'in')"/>
  <use id="zoomminus" xlink:href="#zoomMin" x="42" y="9" onmousedown="handleZoom(evt,'out')"/>
  <use id="reset" xlink:href="#resetDef" x="30" y="36" onmousedown="handleReset()"/>
   <use id="arrowup" xlink:href="#arrowUp" x="0" y="0" onmousedown="handlePan(0,-1)"/>
  <use id="arrowright" xlink:href="#arrowRight" x="0" y="0" onmousedown="handlePan(1,0)"/>
  <use id="arrowdown" xlink:href="#arrowDown" x="0" y="0" onmousedown="handlePan(0,1)"/>
  <use id="arrowleft" xlink:href="#arrowLeft" x="0" y="0" onmousedown="handlePan(-1,0)"/>
</g>
<svg viewBox="0 0 15 15" width="100%" height="30px" preserveAspectRatio="xMaxYMin meet">
 <g id="arrow_out" transform="scale(0.3 0.3)">
  <a xlink:href="structinja_1_1InjaError_a0b31b1a26674ec73a9702f41155608da_icgraph_org.svg" target="_base">
   <rect id="button" ry="5" rx="5" y="6" x="6" height="38" width="38"
        fill="#f2f5e9" fill-opacity="0.5" stroke="#606060" stroke-width="1.0"/>
   <path id="arrow"
     d="M 11.500037,31.436501 C 11.940474,20.09759 22.043105,11.32322 32.158766,21.979434 L 37.068811,17.246167 C 37.068811,17.246167 37.088388,32 37.088388,32 L 22.160133,31.978069 C 22.160133,31.978069 26.997745,27.140456 26.997745,27.140456 C 18.528582,18.264221 13.291696,25.230495 11.500037,31.436501 z"
     style="fill:#404040;"/>
  </a>
 </g>
</svg>

<style type='text/css'>
<![CDATA[
[data-mouse-over-selected='false'] { opacity: 0.7; }
[data-mouse-over-selected='true']  { opacity: 1.0; }
]]>
</style>
<script type="application/ecmascript"><![CDATA[
document.addEventListener('DOMContentLoaded', (event) => {
  highlightEdges();
  highlightAdjacentNodes();
});
]]></script>
</svg>
