<?xml version="1.0" encoding="UTF-8" standalone="no"?>
<!DOCTYPE svg PUBLIC "-//W3C//DTD SVG 1.1//EN"
 "http://www.w3.org/Graphics/SVG/1.1/DTD/svg11.dtd">
<!-- Generated by graphviz version 2.42.4 (0)
 -->
<!-- Title: formatAsLogString Pages: 1 -->
<svg width="355pt" height="64pt"
 viewBox="0.00 0.00 355.00 64.00" xmlns="http://www.w3.org/2000/svg" xmlns:xlink="http://www.w3.org/1999/xlink">
<g id="graph0" class="graph" transform="scale(1 1) rotate(0) translate(4 60)">
<title>formatAsLogString</title>
<!-- Node1 -->
<g id="Node000001" class="node">
<title>Node1</title>
<g id="a_Node000001"><a xlink:title=" ">
<polygon fill="#999999" stroke="#666666" points="107,-37 0,-37 0,-18 107,-18 107,-37"/>
<text text-anchor="middle" x="53.5" y="-25" font-family="Helvetica,sans-Serif" font-size="10.00">formatAsLogString</text>
</a>
</g>
</g>
<!-- Node2 -->
<g id="Node000002" class="node">
<title>Node2</title>
<g id="a_Node000002"><a xlink:href="lib_2Mqtt_8cpp.html#a37ddab91e49593b85ab2a449ebe31926" target="_top" xlink:title=" ">
<polygon fill="white" stroke="#666666" points="208,-37 143,-37 143,-18 208,-18 208,-37"/>
<text text-anchor="middle" x="175.5" y="-25" font-family="Helvetica,sans-Serif" font-size="10.00">myformat</text>
</a>
</g>
</g>
<!-- Node1&#45;&gt;Node2 -->
<g id="edge1_Node000001_Node000002" class="edge">
<title>Node1&#45;&gt;Node2</title>
<g id="a_edge1_Node000001_Node000002"><a xlink:title=" ">
<path fill="none" stroke="#63b8ff" d="M107.13,-27.5C115.72,-27.5 124.52,-27.5 132.8,-27.5"/>
<polygon fill="#63b8ff" stroke="#63b8ff" points="132.96,-31 142.96,-27.5 132.96,-24 132.96,-31"/>
</a>
</g>
</g>
<!-- Node3 -->
<g id="Node000003" class="node">
<title>Node3</title>
<g id="a_Node000003"><a xlink:href="lib_2Mqtt_8cpp.html#aeef618bbcfabda2b3bc7b08f8de636b7" target="_top" xlink:title=" ">
<polygon fill="white" stroke="#666666" points="347,-56 244,-56 244,-37 347,-37 347,-56"/>
<text text-anchor="middle" x="295.5" y="-44" font-family="Helvetica,sans-Serif" font-size="10.00">getTerminalWidth</text>
</a>
</g>
</g>
<!-- Node2&#45;&gt;Node3 -->
<g id="edge2_Node000002_Node000003" class="edge">
<title>Node2&#45;&gt;Node3</title>
<g id="a_edge2_Node000002_Node000003"><a xlink:title=" ">
<path fill="none" stroke="#63b8ff" d="M208.12,-32.59C216.06,-33.87 224.84,-35.28 233.68,-36.71"/>
<polygon fill="#63b8ff" stroke="#63b8ff" points="233.21,-40.18 243.64,-38.31 234.33,-33.27 233.21,-40.18"/>
</a>
</g>
</g>
<!-- Node4 -->
<g id="Node000004" class="node">
<title>Node4</title>
<g id="a_Node000004"><a xlink:href="lib_2Mqtt_8cpp.html#af65432cee33a80f84b065ea6e060d702" target="_top" xlink:title=" ">
<polygon fill="white" stroke="#666666" points="340.5,-19 250.5,-19 250.5,0 340.5,0 340.5,-19"/>
<text text-anchor="middle" x="295.5" y="-7" font-family="Helvetica,sans-Serif" font-size="10.00">wrapParagraph</text>
</a>
</g>
</g>
<!-- Node2&#45;&gt;Node4 -->
<g id="edge3_Node000002_Node000004" class="edge">
<title>Node2&#45;&gt;Node4</title>
<g id="a_edge3_Node000002_Node000004"><a xlink:title=" ">
<path fill="none" stroke="#63b8ff" d="M208.12,-22.68C218.05,-21.16 229.31,-19.44 240.35,-17.76"/>
<polygon fill="#63b8ff" stroke="#63b8ff" points="241.01,-21.2 250.37,-16.23 239.96,-14.28 241.01,-21.2"/>
</a>
</g>
</g>
</g>
</svg>
