<?xml version="1.0" encoding="UTF-8" standalone="no"?>
<!DOCTYPE svg PUBLIC "-//W3C//DTD SVG 1.1//EN"
 "http://www.w3.org/Graphics/SVG/1.1/DTD/svg11.dtd">
<!-- Generated by graphviz version 14.1.1 (0)
 -->
<!-- Title: pointer_plain_name Pages: 1 -->
<!--zoomable 222 -->

<svg id="main" version="1.1" xmlns="http://www.w3.org/2000/svg" xmlns:xlink="http://www.w3.org/1999/xlink" xml:space="preserve" onload="init(evt)">

<style type="text/css"><![CDATA[
.node, .edge {opacity: 0.7;}
.node.selected, .edge.selected {opacity: 1;}
.edge:hover path { stroke: red; }
.edge:hover polygon { stroke: red; fill: red; }
]]></style>

<defs>
  <circle id="rim" cx="0" cy="0" r="7"/>
  <circle id="rim2" cx="0" cy="0" r="3.5"/>
  <g id="zoomPlus">
    <use xlink:href="#rim" fill="#404040"><set attributeName="fill" to="#808080" begin="zoomplus.mouseover" end="zoomplus.mouseout"/></use>
    <path d="M-4,0h8M0,-4v8" fill="none" stroke="white" stroke-width="1.5" pointer-events="none"/>
  </g>
  <g id="zoomMin">
    <use xlink:href="#rim" fill="#404040"><set attributeName="fill" to="#808080" begin="zoomminus.mouseover" end="zoomminus.mouseout"/></use>
    <path d="M-4,0h8" fill="none" stroke="white" stroke-width="1.5" pointer-events="none"/>
  </g>
  <g id="arrowUp" transform="translate(30 24)">
    <use xlink:href="#rim"/>
    <path pointer-events="none" fill="none" stroke="white" stroke-width="1.5" d="M0,-3.0v7 M-2.5,-0.5L0,-3.0L2.5,-0.5"/>
  </g>
  <g id="arrowRight" transform="rotate(90) translate(36 -43)">
    <use xlink:href="#rim"/>
    <path pointer-events="none" fill="none" stroke="white" stroke-width="1.5" d="M0,-3.0v7 M-2.5,-0.5L0,-3.0L2.5,-0.5"/>
  </g>
  <g id="arrowDown" transform="rotate(180) translate(-30 -48)">
    <use xlink:href="#rim"/>
    <path pointer-events="none" fill="none" stroke="white" stroke-width="1.5" d="M0,-3.0v7 M-2.5,-0.5L0,-3.0L2.5,-0.5"/>
  </g>
  <g id="arrowLeft" transform="rotate(270) translate(-36 17)">
    <use xlink:href="#rim"/>
    <path pointer-events="none" fill="none" stroke="white" stroke-width="1.5" d="M0,-3.0v7 M-2.5,-0.5L0,-3.0L2.5,-0.5"/>
  </g>
  <g id="resetDef">
    <use xlink:href="#rim2" fill="#404040"><set attributeName="fill" to="#808080" begin="reset.mouseover" end="reset.mouseout"/></use>
  </g>
</defs>
<script type="application/ecmascript">
var viewWidth = 556;
var viewHeight = 222;
var sectionId = 'dynsection-7';
</script>
<script type="application/ecmascript" xlink:href="svg.min.js"/>
<svg id="graph" class="graph">
<g id="viewport">
<title>pointer_plain_name</title>
<!-- Node1 -->
<g id="Node000001" class="node">
<title>Node1</title>
<g id="a_Node000001"><a xlink:title=" ">
<polygon fill="#999999" stroke="#666666" points="112.75,-124.12 0,-124.12 0,-103.38 112.75,-103.38 112.75,-124.12"/>
<text xml:space="preserve" text-anchor="middle" x="56.38" y="-110.62" font-family="Helvetica,sans-Serif" font-size="10.00">pointer_plain_name</text>
</a>
</g>
</g>
<!-- Node2 -->
<g id="Node000002" class="node">
<title>Node2</title>
<g id="a_Node000002"><a xlink:href="classnlohmann_1_1json__uri.html#ab601a9e32d487e9484f12c57ec1befc1" target="_top" xlink:title=" ">
<polygon fill="white" stroke="#666666" points="257.75,-213.5 148.75,-213.5 148.75,-180 257.75,-180 257.75,-213.5"/>
<text xml:space="preserve" text-anchor="start" x="156.75" y="-200" font-family="Helvetica,sans-Serif" font-size="10.00">nlohmann::json_uri</text>
<text xml:space="preserve" text-anchor="middle" x="203.25" y="-187.25" font-family="Helvetica,sans-Serif" font-size="10.00">::derive</text>
</a>
</g>
</g>
<!-- Node1&#45;&gt;Node2 -->
<g id="edge1_Node000001_Node000002" class="edge">
<title>Node1&#45;&gt;Node2</title>
<g id="a_edge1_Node000001_Node000002"><a xlink:title=" ">
<path fill="none" stroke="#63b8ff" d="M76.31,-124.6C98.04,-137.05 134.26,-157.8 162.3,-173.86"/>
<polygon fill="#63b8ff" stroke="#63b8ff" points="160.49,-176.86 170.9,-178.79 163.97,-170.78 160.49,-176.86"/>
</a>
</g>
</g>
<!-- Node4 -->
<g id="Node000004" class="node">
<title>Node4</title>
<g id="a_Node000004"><a xlink:href="uri_8cpp.html#a135bd7aca49d128467d0cb09305a69f2" target="_top" xlink:title=" ">
<polygon fill="white" stroke="#666666" points="239.38,-124.12 167.12,-124.12 167.12,-103.38 239.38,-103.38 239.38,-124.12"/>
<text xml:space="preserve" text-anchor="middle" x="203.25" y="-110.62" font-family="Helvetica,sans-Serif" font-size="10.00">EXPECT_EQ</text>
</a>
</g>
</g>
<!-- Node1&#45;&gt;Node4 -->
<g id="edge3_Node000001_Node000004" class="edge">
<title>Node1&#45;&gt;Node4</title>
<g id="a_edge3_Node000001_Node000004"><a xlink:title=" ">
<path fill="none" stroke="#63b8ff" d="M112.97,-113.75C126.92,-113.75 141.75,-113.75 155.24,-113.75"/>
<polygon fill="#63b8ff" stroke="#63b8ff" points="155.17,-117.25 165.17,-113.75 155.17,-110.25 155.17,-117.25"/>
</a>
</g>
</g>
<!-- Node5 -->
<g id="Node000005" class="node">
<title>Node5</title>
<g id="a_Node000005"><a xlink:href="uri_8cpp.html#ac73a0721d9400b0ab972fbe070316586" target="_top" xlink:title=" ">
<polygon fill="white" stroke="#666666" points="384.38,-162.12 312.12,-162.12 312.12,-141.38 384.38,-141.38 384.38,-162.12"/>
<text xml:space="preserve" text-anchor="middle" x="348.25" y="-148.62" font-family="Helvetica,sans-Serif" font-size="10.00">EXPECT_EQ</text>
</a>
</g>
</g>
<!-- Node1&#45;&gt;Node5 -->
<g id="edge7_Node000001_Node000005" class="edge">
<title>Node1&#45;&gt;Node5</title>
<g id="a_edge7_Node000001_Node000005"><a xlink:title=" ">
<path fill="none" stroke="#63b8ff" d="M104.62,-124.6C118.76,-127.57 134.33,-130.57 148.75,-132.75 200.47,-140.58 260.28,-145.78 300.62,-148.74"/>
<polygon fill="#63b8ff" stroke="#63b8ff" points="300.23,-152.22 310.46,-149.44 300.73,-145.24 300.23,-152.22"/>
</a>
</g>
</g>
<!-- Node8 -->
<g id="Node000008" class="node">
<title>Node8</title>
<g id="a_Node000008"><a xlink:href="classnlohmann_1_1json__uri.html#a0f3b1d248d3c1e73095138093be73f22" target="_top" xlink:title=" ">
<polygon fill="white" stroke="#666666" points="257.75,-85.5 148.75,-85.5 148.75,-52 257.75,-52 257.75,-85.5"/>
<text xml:space="preserve" text-anchor="start" x="156.75" y="-72" font-family="Helvetica,sans-Serif" font-size="10.00">nlohmann::json_uri</text>
<text xml:space="preserve" text-anchor="middle" x="203.25" y="-59.25" font-family="Helvetica,sans-Serif" font-size="10.00">::identifier</text>
</a>
</g>
</g>
<!-- Node1&#45;&gt;Node8 -->
<g id="edge8_Node000001_Node000008" class="edge">
<title>Node1&#45;&gt;Node8</title>
<g id="a_edge8_Node000001_Node000008"><a xlink:title=" ">
<path fill="none" stroke="#63b8ff" d="M92.08,-102.97C105.75,-98.72 121.91,-93.71 137.58,-88.84"/>
<polygon fill="#63b8ff" stroke="#63b8ff" points="138.35,-92.26 146.86,-85.95 136.27,-85.58 138.35,-92.26"/>
</a>
</g>
</g>
<!-- Node9 -->
<g id="Node000009" class="node">
<title>Node9</title>
<g id="a_Node000009"><a xlink:href="classnlohmann_1_1json__uri.html#ab01bdcb8bf65ee07703d1ccb69c9f3ee" target="_top" xlink:title=" ">
<polygon fill="white" stroke="#666666" points="257.75,-33.5 148.75,-33.5 148.75,0 257.75,0 257.75,-33.5"/>
<text xml:space="preserve" text-anchor="start" x="156.75" y="-20" font-family="Helvetica,sans-Serif" font-size="10.00">nlohmann::json_uri</text>
<text xml:space="preserve" text-anchor="middle" x="203.25" y="-7.25" font-family="Helvetica,sans-Serif" font-size="10.00">::pointer</text>
</a>
</g>
</g>
<!-- Node1&#45;&gt;Node9 -->
<g id="edge9_Node000001_Node000009" class="edge">
<title>Node1&#45;&gt;Node9</title>
<g id="a_edge9_Node000001_Node000009"><a xlink:title=" ">
<path fill="none" stroke="#63b8ff" d="M69.48,-103C86.43,-88.28 118.56,-61.53 148.75,-42.75 150.59,-41.6 152.49,-40.47 154.43,-39.36"/>
<polygon fill="#63b8ff" stroke="#63b8ff" points="155.87,-42.56 162.97,-34.69 152.52,-36.41 155.87,-42.56"/>
</a>
</g>
</g>
<!-- Node3 -->
<g id="Node000003" class="node">
<title>Node3</title>
<g id="a_Node000003"><a xlink:href="classnlohmann_1_1json__uri.html#a6a73807e46532b22e02ae6602cdedcdc" target="_top" xlink:title=" ">
<polygon fill="white" stroke="#666666" points="402.75,-213.5 293.75,-213.5 293.75,-180 402.75,-180 402.75,-213.5"/>
<text xml:space="preserve" text-anchor="start" x="301.75" y="-200" font-family="Helvetica,sans-Serif" font-size="10.00">nlohmann::json_uri</text>
<text xml:space="preserve" text-anchor="middle" x="348.25" y="-187.25" font-family="Helvetica,sans-Serif" font-size="10.00">::update</text>
</a>
</g>
</g>
<!-- Node2&#45;&gt;Node3 -->
<g id="edge2_Node000002_Node000003" class="edge">
<title>Node2&#45;&gt;Node3</title>
<g id="a_edge2_Node000002_Node000003"><a xlink:title=" ">
<path fill="none" stroke="#63b8ff" d="M257.9,-196.75C265.77,-196.75 273.94,-196.75 282.01,-196.75"/>
<polygon fill="#63b8ff" stroke="#63b8ff" points="281.78,-200.25 291.78,-196.75 281.78,-193.25 281.78,-200.25"/>
</a>
</g>
</g>
<!-- Node4&#45;&gt;Node5 -->
<g id="edge4_Node000004_Node000005" class="edge">
<title>Node4&#45;&gt;Node5</title>
<g id="a_edge4_Node000004_Node000005"><a xlink:title=" ">
<path fill="none" stroke="#63b8ff" d="M239.6,-123.14C258.08,-128.05 280.92,-134.12 300.81,-139.41"/>
<polygon fill="#63b8ff" stroke="#63b8ff" points="299.79,-142.76 310.35,-141.94 301.58,-135.99 299.79,-142.76"/>
</a>
</g>
</g>
<!-- Node6 -->
<g id="Node000006" class="node">
<title>Node6</title>
<g id="a_Node000006"><a xlink:href="classnlohmann_1_1json__uri.html#a416eb06b53676b215761f43200da309f" target="_top" xlink:title=" ">
<polygon fill="white" stroke="#666666" points="402.75,-123.5 293.75,-123.5 293.75,-90 402.75,-90 402.75,-123.5"/>
<text xml:space="preserve" text-anchor="start" x="301.75" y="-110" font-family="Helvetica,sans-Serif" font-size="10.00">nlohmann::json_uri</text>
<text xml:space="preserve" text-anchor="middle" x="348.25" y="-97.25" font-family="Helvetica,sans-Serif" font-size="10.00">::to_string</text>
</a>
</g>
</g>
<!-- Node4&#45;&gt;Node6 -->
<g id="edge5_Node000004_Node000006" class="edge">
<title>Node4&#45;&gt;Node6</title>
<g id="a_edge5_Node000004_Node000006"><a xlink:title=" ">
<path fill="none" stroke="#63b8ff" d="M239.6,-112.02C252.52,-111.39 267.57,-110.65 282.26,-109.93"/>
<polygon fill="#63b8ff" stroke="#63b8ff" points="282.04,-113.45 291.86,-109.46 281.7,-106.45 282.04,-113.45"/>
</a>
</g>
</g>
<!-- Node7 -->
<g id="Node000007" class="node">
<title>Node7</title>
<g id="a_Node000007"><a xlink:href="classnlohmann_1_1json__uri.html#a63674f908919cb2496e772e864be35de" target="_top" xlink:title=" ">
<polygon fill="white" stroke="#666666" points="547.75,-123.5 438.75,-123.5 438.75,-90 547.75,-90 547.75,-123.5"/>
<text xml:space="preserve" text-anchor="start" x="446.75" y="-110" font-family="Helvetica,sans-Serif" font-size="10.00">nlohmann::json_uri</text>
<text xml:space="preserve" text-anchor="middle" x="493.25" y="-97.25" font-family="Helvetica,sans-Serif" font-size="10.00">::location</text>
</a>
</g>
</g>
<!-- Node6&#45;&gt;Node7 -->
<g id="edge6_Node000006_Node000007" class="edge">
<title>Node6&#45;&gt;Node7</title>
<g id="a_edge6_Node000006_Node000007"><a xlink:title=" ">
<path fill="none" stroke="#63b8ff" d="M402.9,-106.75C410.77,-106.75 418.94,-106.75 427.01,-106.75"/>
<polygon fill="#63b8ff" stroke="#63b8ff" points="426.78,-110.25 436.78,-106.75 426.78,-103.25 426.78,-110.25"/>
</a>
</g>
</g>
</g>
</svg>

<g id="navigator" transform="translate(0 0)" fill="#404254">
  <rect fill="#f2f5e9" fill-opacity="0.5" stroke="#606060" stroke-width=".5" x="0" y="0" width="60" height="60"/>
  <use id="zoomplus" xlink:href="#zoomPlus" x="17" y="9" onmousedown="handleZoom(evt,'in')"/>
  <use id="zoomminus" xlink:href="#zoomMin" x="42" y="9" onmousedown="handleZoom(evt,'out')"/>
  <use id="reset" xlink:href="#resetDef" x="30" y="36" onmousedown="handleReset()"/>
   <use id="arrowup" xlink:href="#arrowUp" x="0" y="0" onmousedown="handlePan(0,-1)"/>
  <use id="arrowright" xlink:href="#arrowRight" x="0" y="0" onmousedown="handlePan(1,0)"/>
  <use id="arrowdown" xlink:href="#arrowDown" x="0" y="0" onmousedown="handlePan(0,1)"/>
  <use id="arrowleft" xlink:href="#arrowLeft" x="0" y="0" onmousedown="handlePan(-1,0)"/>
</g>
<svg viewBox="0 0 15 15" width="100%" height="30px" preserveAspectRatio="xMaxYMin meet">
 <g id="arrow_out" transform="scale(0.3 0.3)">
  <a xlink:href="uri_8cpp_a1ecfb5d7d0d6c83e0cb94d84c1a7bc72_cgraph_org.svg" target="_base">
   <rect id="button" ry="5" rx="5" y="6" x="6" height="38" width="38"
        fill="#f2f5e9" fill-opacity="0.5" stroke="#606060" stroke-width="1.0"/>
   <path id="arrow"
     d="M 11.500037,31.436501 C 11.940474,20.09759 22.043105,11.32322 32.158766,21.979434 L 37.068811,17.246167 C 37.068811,17.246167 37.088388,32 37.088388,32 L 22.160133,31.978069 C 22.160133,31.978069 26.997745,27.140456 26.997745,27.140456 C 18.528582,18.264221 13.291696,25.230495 11.500037,31.436501 z"
     style="fill:#404040;"/>
  </a>
 </g>
</svg>

<style type='text/css'>
<![CDATA[
[data-mouse-over-selected='false'] { opacity: 0.7; }
[data-mouse-over-selected='true']  { opacity: 1.0; }
]]>
</style>
<script type="application/ecmascript"><![CDATA[
document.addEventListener('DOMContentLoaded', (event) => {
  highlightEdges();
  highlightAdjacentNodes();
});
]]></script>
</svg>
