<?xml version="1.0" encoding="UTF-8" standalone="no"?>
<!DOCTYPE svg PUBLIC "-//W3C//DTD SVG 1.1//EN"
 "http://www.w3.org/Graphics/SVG/1.1/DTD/svg11.dtd">
<!-- Generated by graphviz version 2.42.4 (0)
 -->
<!-- Title: main Pages: 1 -->
<svg width="636pt" height="242pt"
 viewBox="0.00 0.00 636.00 242.00" xmlns="http://www.w3.org/2000/svg" xmlns:xlink="http://www.w3.org/1999/xlink">
<g id="graph0" class="graph" transform="scale(1 1) rotate(0) translate(4 238)">
<title>main</title>
<!-- Node1 -->
<g id="Node000001" class="node">
<title>Node1</title>
<g id="a_Node000001"><a xlink:title=" ">
<polygon fill="#999999" stroke="#666666" points="41,-164.5 0,-164.5 0,-145.5 41,-145.5 41,-164.5"/>
<text text-anchor="middle" x="20.5" y="-152.5" font-family="Helvetica,sans-Serif" font-size="10.00">main</text>
</a>
</g>
</g>
<!-- Node2 -->
<g id="Node000002" class="node">
<title>Node2</title>
<g id="a_Node000002"><a xlink:href="classnlohmann_1_1json__uri.html#a6d8a05d8f7dd020a28359224cdf90b33" target="_top" xlink:title=" ">
<polygon fill="white" stroke="#666666" points="188.5,-234 78.5,-234 78.5,-204 188.5,-204 188.5,-234"/>
<text text-anchor="start" x="86.5" y="-222" font-family="Helvetica,sans-Serif" font-size="10.00">nlohmann::json_uri</text>
<text text-anchor="middle" x="133.5" y="-211" font-family="Helvetica,sans-Serif" font-size="10.00">::json_uri</text>
</a>
</g>
</g>
<!-- Node1&#45;&gt;Node2 -->
<g id="edge1_Node000001_Node000002" class="edge">
<title>Node1&#45;&gt;Node2</title>
<g id="a_edge1_Node000001_Node000002"><a xlink:title=" ">
<path fill="none" stroke="#63b8ff" d="M38.36,-164.72C54.03,-173.76 77.87,-187.5 97.63,-198.9"/>
<polygon fill="#63b8ff" stroke="#63b8ff" points="95.97,-201.98 106.38,-203.94 99.47,-195.91 95.97,-201.98"/>
</a>
</g>
</g>
<!-- Node4 -->
<g id="Node000004" class="node">
<title>Node4</title>
<g id="a_Node000004"><a xlink:href="uri_8cpp.html#a5a5a93b3f285bf959b33eb95a576afa3" target="_top" xlink:title=" ">
<polygon fill="white" stroke="#666666" points="155.5,-164.5 111.5,-164.5 111.5,-145.5 155.5,-145.5 155.5,-164.5"/>
<text text-anchor="middle" x="133.5" y="-152.5" font-family="Helvetica,sans-Serif" font-size="10.00">paths</text>
</a>
</g>
</g>
<!-- Node1&#45;&gt;Node4 -->
<g id="edge3_Node000001_Node000004" class="edge">
<title>Node1&#45;&gt;Node4</title>
<g id="a_edge3_Node000001_Node000004"><a xlink:title=" ">
<path fill="none" stroke="#63b8ff" d="M41.09,-155C57.68,-155 81.78,-155 101.07,-155"/>
<polygon fill="#63b8ff" stroke="#63b8ff" points="101.22,-158.5 111.22,-155 101.22,-151.5 101.22,-158.5"/>
</a>
</g>
</g>
<!-- Node10 -->
<g id="Node000010" class="node">
<title>Node10</title>
<g id="a_Node000010"><a xlink:href="uri_8cpp.html#a1ecfb5d7d0d6c83e0cb94d84c1a7bc72" target="_top" xlink:title=" ">
<polygon fill="white" stroke="#666666" points="190,-127.5 77,-127.5 77,-108.5 190,-108.5 190,-127.5"/>
<text text-anchor="middle" x="133.5" y="-115.5" font-family="Helvetica,sans-Serif" font-size="10.00">pointer_plain_name</text>
</a>
</g>
</g>
<!-- Node1&#45;&gt;Node10 -->
<g id="edge10_Node000001_Node000010" class="edge">
<title>Node1&#45;&gt;Node10</title>
<g id="a_edge10_Node000001_Node000010"><a xlink:title=" ">
<path fill="none" stroke="#63b8ff" d="M41.09,-148.47C55.79,-143.57 76.39,-136.7 94.31,-130.73"/>
<polygon fill="#63b8ff" stroke="#63b8ff" points="95.56,-134 103.94,-127.52 93.34,-127.36 95.56,-134"/>
</a>
</g>
</g>
<!-- Node3 -->
<g id="Node000003" class="node">
<title>Node3</title>
<g id="a_Node000003"><a xlink:href="classnlohmann_1_1json__uri.html#a6a73807e46532b22e02ae6602cdedcdc" target="_top" xlink:title=" ">
<polygon fill="white" stroke="#666666" points="482,-228 372,-228 372,-198 482,-198 482,-228"/>
<text text-anchor="start" x="380" y="-216" font-family="Helvetica,sans-Serif" font-size="10.00">nlohmann::json_uri</text>
<text text-anchor="middle" x="427" y="-205" font-family="Helvetica,sans-Serif" font-size="10.00">::update</text>
</a>
</g>
</g>
<!-- Node2&#45;&gt;Node3 -->
<g id="edge2_Node000002_Node000003" class="edge">
<title>Node2&#45;&gt;Node3</title>
<g id="a_edge2_Node000002_Node000003"><a xlink:title=" ">
<path fill="none" stroke="#63b8ff" d="M188.65,-217.89C237.58,-216.88 309.67,-215.39 361.56,-214.33"/>
<polygon fill="#63b8ff" stroke="#63b8ff" points="361.72,-217.82 371.65,-214.12 361.58,-210.83 361.72,-217.82"/>
</a>
</g>
</g>
<!-- Node5 -->
<g id="Node000005" class="node">
<title>Node5</title>
<g id="a_Node000005"><a xlink:href="classnlohmann_1_1json__uri.html#ab601a9e32d487e9484f12c57ec1befc1" target="_top" xlink:title=" ">
<polygon fill="white" stroke="#666666" points="336,-202 226,-202 226,-172 336,-172 336,-202"/>
<text text-anchor="start" x="234" y="-190" font-family="Helvetica,sans-Serif" font-size="10.00">nlohmann::json_uri</text>
<text text-anchor="middle" x="281" y="-179" font-family="Helvetica,sans-Serif" font-size="10.00">::derive</text>
</a>
</g>
</g>
<!-- Node4&#45;&gt;Node5 -->
<g id="edge4_Node000004_Node000005" class="edge">
<title>Node4&#45;&gt;Node5</title>
<g id="a_edge4_Node000004_Node000005"><a xlink:title=" ">
<path fill="none" stroke="#63b8ff" d="M155.66,-159.65C171.58,-163.16 194.3,-168.15 215.98,-172.92"/>
<polygon fill="#63b8ff" stroke="#63b8ff" points="215.31,-176.36 225.83,-175.09 216.82,-169.52 215.31,-176.36"/>
</a>
</g>
</g>
<!-- Node6 -->
<g id="Node000006" class="node">
<title>Node6</title>
<g id="a_Node000006"><a xlink:href="uri_8cpp.html#a135bd7aca49d128467d0cb09305a69f2" target="_top" xlink:title=" ">
<polygon fill="white" stroke="#666666" points="317.5,-153.5 244.5,-153.5 244.5,-134.5 317.5,-134.5 317.5,-153.5"/>
<text text-anchor="middle" x="281" y="-141.5" font-family="Helvetica,sans-Serif" font-size="10.00">EXPECT_EQ</text>
</a>
</g>
</g>
<!-- Node4&#45;&gt;Node6 -->
<g id="edge6_Node000004_Node000006" class="edge">
<title>Node4&#45;&gt;Node6</title>
<g id="a_edge6_Node000004_Node000006"><a xlink:title=" ">
<path fill="none" stroke="#63b8ff" d="M155.66,-153.4C176.18,-151.85 208,-149.44 234.31,-147.45"/>
<polygon fill="#63b8ff" stroke="#63b8ff" points="234.75,-150.93 244.46,-146.69 234.22,-143.95 234.75,-150.93"/>
</a>
</g>
</g>
<!-- Node5&#45;&gt;Node3 -->
<g id="edge5_Node000005_Node000003" class="edge">
<title>Node5&#45;&gt;Node3</title>
<g id="a_edge5_Node000005_Node000003"><a xlink:title=" ">
<path fill="none" stroke="#63b8ff" d="M336.03,-196.76C344.4,-198.27 353.13,-199.84 361.7,-201.39"/>
<polygon fill="#63b8ff" stroke="#63b8ff" points="361.2,-204.86 371.67,-203.19 362.45,-197.97 361.2,-204.86"/>
</a>
</g>
</g>
<!-- Node7 -->
<g id="Node000007" class="node">
<title>Node7</title>
<g id="a_Node000007"><a xlink:href="uri_8cpp.html#ac73a0721d9400b0ab972fbe070316586" target="_top" xlink:title=" ">
<polygon fill="white" stroke="#666666" points="463.5,-115.5 390.5,-115.5 390.5,-96.5 463.5,-96.5 463.5,-115.5"/>
<text text-anchor="middle" x="427" y="-103.5" font-family="Helvetica,sans-Serif" font-size="10.00">EXPECT_EQ</text>
</a>
</g>
</g>
<!-- Node6&#45;&gt;Node7 -->
<g id="edge7_Node000006_Node000007" class="edge">
<title>Node6&#45;&gt;Node7</title>
<g id="a_edge7_Node000006_Node000007"><a xlink:title=" ">
<path fill="none" stroke="#63b8ff" d="M317.6,-134.61C336.63,-129.58 360.28,-123.34 380.63,-117.97"/>
<polygon fill="#63b8ff" stroke="#63b8ff" points="381.54,-121.35 390.31,-115.42 379.75,-114.58 381.54,-121.35"/>
</a>
</g>
</g>
<!-- Node8 -->
<g id="Node000008" class="node">
<title>Node8</title>
<g id="a_Node000008"><a xlink:href="classnlohmann_1_1json__uri.html#a416eb06b53676b215761f43200da309f" target="_top" xlink:title=" ">
<polygon fill="white" stroke="#666666" points="482,-164 372,-164 372,-134 482,-134 482,-164"/>
<text text-anchor="start" x="380" y="-152" font-family="Helvetica,sans-Serif" font-size="10.00">nlohmann::json_uri</text>
<text text-anchor="middle" x="427" y="-141" font-family="Helvetica,sans-Serif" font-size="10.00">::to_string</text>
</a>
</g>
</g>
<!-- Node6&#45;&gt;Node8 -->
<g id="edge8_Node000006_Node000008" class="edge">
<title>Node6&#45;&gt;Node8</title>
<g id="a_edge8_Node000006_Node000008"><a xlink:title=" ">
<path fill="none" stroke="#63b8ff" d="M317.6,-145.24C330.86,-145.7 346.36,-146.23 361.42,-146.76"/>
<polygon fill="#63b8ff" stroke="#63b8ff" points="361.63,-150.27 371.75,-147.12 361.87,-143.27 361.63,-150.27"/>
</a>
</g>
</g>
<!-- Node9 -->
<g id="Node000009" class="node">
<title>Node9</title>
<g id="a_Node000009"><a xlink:href="classnlohmann_1_1json__uri.html#a63674f908919cb2496e772e864be35de" target="_top" xlink:title=" ">
<polygon fill="white" stroke="#666666" points="628,-164 518,-164 518,-134 628,-134 628,-164"/>
<text text-anchor="start" x="526" y="-152" font-family="Helvetica,sans-Serif" font-size="10.00">nlohmann::json_uri</text>
<text text-anchor="middle" x="573" y="-141" font-family="Helvetica,sans-Serif" font-size="10.00">::location</text>
</a>
</g>
</g>
<!-- Node8&#45;&gt;Node9 -->
<g id="edge9_Node000008_Node000009" class="edge">
<title>Node8&#45;&gt;Node9</title>
<g id="a_edge9_Node000008_Node000009"><a xlink:title=" ">
<path fill="none" stroke="#63b8ff" d="M482.03,-149C490.31,-149 498.94,-149 507.42,-149"/>
<polygon fill="#63b8ff" stroke="#63b8ff" points="507.67,-152.5 517.67,-149 507.67,-145.5 507.67,-152.5"/>
</a>
</g>
</g>
<!-- Node10&#45;&gt;Node5 -->
<g id="edge11_Node000010_Node000005" class="edge">
<title>Node10&#45;&gt;Node5</title>
<g id="a_edge11_Node000010_Node000005"><a xlink:title=" ">
<path fill="none" stroke="#63b8ff" d="M167.74,-127.59C175.24,-130.24 183.04,-133.4 190,-137 207.53,-146.07 208.89,-153.16 226,-163 228.63,-164.51 231.37,-165.99 234.16,-167.43"/>
<polygon fill="#63b8ff" stroke="#63b8ff" points="232.66,-170.6 243.18,-171.87 235.75,-164.31 232.66,-170.6"/>
</a>
</g>
</g>
<!-- Node10&#45;&gt;Node6 -->
<g id="edge12_Node000010_Node000006" class="edge">
<title>Node10&#45;&gt;Node6</title>
<g id="a_edge12_Node000010_Node000006"><a xlink:title=" ">
<path fill="none" stroke="#63b8ff" d="M187.85,-127.53C203.14,-130.27 219.66,-133.22 234.44,-135.86"/>
<polygon fill="#63b8ff" stroke="#63b8ff" points="233.89,-139.32 244.35,-137.63 235.12,-132.42 233.89,-139.32"/>
</a>
</g>
</g>
<!-- Node10&#45;&gt;Node7 -->
<g id="edge13_Node000010_Node000007" class="edge">
<title>Node10&#45;&gt;Node7</title>
<g id="a_edge13_Node000010_Node000007"><a xlink:title=" ">
<path fill="none" stroke="#63b8ff" d="M190.02,-115.71C245.19,-113.44 328.8,-110 380.27,-107.88"/>
<polygon fill="#63b8ff" stroke="#63b8ff" points="380.58,-111.37 390.43,-107.46 380.29,-104.38 380.58,-111.37"/>
</a>
</g>
</g>
<!-- Node11 -->
<g id="Node000011" class="node">
<title>Node11</title>
<g id="a_Node000011"><a xlink:href="classnlohmann_1_1json__uri.html#a0f3b1d248d3c1e73095138093be73f22" target="_top" xlink:title=" ">
<polygon fill="white" stroke="#666666" points="336,-78 226,-78 226,-48 336,-48 336,-78"/>
<text text-anchor="start" x="234" y="-66" font-family="Helvetica,sans-Serif" font-size="10.00">nlohmann::json_uri</text>
<text text-anchor="middle" x="281" y="-55" font-family="Helvetica,sans-Serif" font-size="10.00">::identifier</text>
</a>
</g>
</g>
<!-- Node10&#45;&gt;Node11 -->
<g id="edge14_Node000010_Node000011" class="edge">
<title>Node10&#45;&gt;Node11</title>
<g id="a_edge14_Node000010_Node000011"><a xlink:title=" ">
<path fill="none" stroke="#63b8ff" d="M159.84,-108.42C179.31,-101.06 206.79,-90.67 230.56,-81.69"/>
<polygon fill="#63b8ff" stroke="#63b8ff" points="232.03,-84.88 240.15,-78.07 229.55,-78.33 232.03,-84.88"/>
</a>
</g>
</g>
<!-- Node12 -->
<g id="Node000012" class="node">
<title>Node12</title>
<g id="a_Node000012"><a xlink:href="classnlohmann_1_1json__uri.html#ab01bdcb8bf65ee07703d1ccb69c9f3ee" target="_top" xlink:title=" ">
<polygon fill="white" stroke="#666666" points="336,-30 226,-30 226,0 336,0 336,-30"/>
<text text-anchor="start" x="234" y="-18" font-family="Helvetica,sans-Serif" font-size="10.00">nlohmann::json_uri</text>
<text text-anchor="middle" x="281" y="-7" font-family="Helvetica,sans-Serif" font-size="10.00">::pointer</text>
</a>
</g>
</g>
<!-- Node10&#45;&gt;Node12 -->
<g id="edge15_Node000010_Node000012" class="edge">
<title>Node10&#45;&gt;Node12</title>
<g id="a_edge15_Node000010_Node000012"><a xlink:title=" ">
<path fill="none" stroke="#63b8ff" d="M143.64,-108.46C159.31,-92.48 192.86,-60.02 226,-39 228.4,-37.48 230.9,-36.01 233.47,-34.59"/>
<polygon fill="#63b8ff" stroke="#63b8ff" points="235.08,-37.7 242.36,-30 231.87,-31.48 235.08,-37.7"/>
</a>
</g>
</g>
</g>
</svg>
