<?xml version="1.0" encoding="UTF-8" standalone="no"?>
<!DOCTYPE svg PUBLIC "-//W3C//DTD SVG 1.1//EN"
 "http://www.w3.org/Graphics/SVG/1.1/DTD/svg11.dtd">
<!-- Generated by graphviz version 14.1.2 (0)
 -->
<!-- Title: main Pages: 1 -->
<!--zoomable 260 -->

<svg id="main" version="1.1" xmlns="http://www.w3.org/2000/svg" xmlns:xlink="http://www.w3.org/1999/xlink" xml:space="preserve" onload="init(evt)">

<style type="text/css"><![CDATA[
.node, .edge {opacity: 0.7;}
.node.selected, .edge.selected {opacity: 1;}
.edge:hover path { stroke: red; }
.edge:hover polygon { stroke: red; fill: red; }
]]></style>

<defs>
  <circle id="rim" cx="0" cy="0" r="7"/>
  <circle id="rim2" cx="0" cy="0" r="3.5"/>
  <g id="zoomPlus">
    <use xlink:href="#rim" fill="#404040"><set attributeName="fill" to="#808080" begin="zoomplus.mouseover" end="zoomplus.mouseout"/></use>
    <path d="M-4,0h8M0,-4v8" fill="none" stroke="white" stroke-width="1.5" pointer-events="none"/>
  </g>
  <g id="zoomMin">
    <use xlink:href="#rim" fill="#404040"><set attributeName="fill" to="#808080" begin="zoomminus.mouseover" end="zoomminus.mouseout"/></use>
    <path d="M-4,0h8" fill="none" stroke="white" stroke-width="1.5" pointer-events="none"/>
  </g>
  <g id="arrowUp" transform="translate(30 24)">
    <use xlink:href="#rim"/>
    <path pointer-events="none" fill="none" stroke="white" stroke-width="1.5" d="M0,-3.0v7 M-2.5,-0.5L0,-3.0L2.5,-0.5"/>
  </g>
  <g id="arrowRight" transform="rotate(90) translate(36 -43)">
    <use xlink:href="#rim"/>
    <path pointer-events="none" fill="none" stroke="white" stroke-width="1.5" d="M0,-3.0v7 M-2.5,-0.5L0,-3.0L2.5,-0.5"/>
  </g>
  <g id="arrowDown" transform="rotate(180) translate(-30 -48)">
    <use xlink:href="#rim"/>
    <path pointer-events="none" fill="none" stroke="white" stroke-width="1.5" d="M0,-3.0v7 M-2.5,-0.5L0,-3.0L2.5,-0.5"/>
  </g>
  <g id="arrowLeft" transform="rotate(270) translate(-36 17)">
    <use xlink:href="#rim"/>
    <path pointer-events="none" fill="none" stroke="white" stroke-width="1.5" d="M0,-3.0v7 M-2.5,-0.5L0,-3.0L2.5,-0.5"/>
  </g>
  <g id="resetDef">
    <use xlink:href="#rim2" fill="#404040"><set attributeName="fill" to="#808080" begin="reset.mouseover" end="reset.mouseout"/></use>
  </g>
</defs>
<script type="application/ecmascript">
var viewWidth = 633;
var viewHeight = 260;
var sectionId = 'dynsection-4';
</script>
<script type="application/ecmascript" xlink:href="svg.min.js"/>
<svg id="graph" class="graph">
<g id="viewport">
<title>main</title>
<!-- Node1 -->
<g id="Node000001" class="node">
<title>Node1</title>
<g id="a_Node000001"><a xlink:title=" ">
<polygon fill="#999999" stroke="#666666" points="40.75,-194.12 0,-194.12 0,-173.38 40.75,-173.38 40.75,-194.12"/>
<text xml:space="preserve" text-anchor="middle" x="20.38" y="-180.62" font-family="Helvetica,sans-Serif" font-size="10.00">main</text>
</a>
</g>
</g>
<!-- Node2 -->
<g id="Node000002" class="node">
<title>Node2</title>
<g id="a_Node000002"><a xlink:href="classnlohmann_1_1json__uri.html#a6d8a05d8f7dd020a28359224cdf90b33" target="_top" xlink:title=" ">
<polygon fill="white" stroke="#666666" points="187.62,-251.5 78.62,-251.5 78.62,-218 187.62,-218 187.62,-251.5"/>
<text xml:space="preserve" text-anchor="start" x="86.62" y="-238" font-family="Helvetica,sans-Serif" font-size="10.00">nlohmann::json_uri</text>
<text xml:space="preserve" text-anchor="middle" x="133.12" y="-225.25" font-family="Helvetica,sans-Serif" font-size="10.00">::json_uri</text>
</a>
</g>
</g>
<!-- Node1&#45;&gt;Node2 -->
<g id="edge1_Node000001_Node000002" class="edge">
<title>Node1&#45;&gt;Node2</title>
<g id="a_edge1_Node000001_Node000002"><a xlink:title=" ">
<path fill="none" stroke="#63b8ff" d="M41.17,-192.87C53.31,-198.45 69.39,-205.86 84.66,-212.89"/>
<polygon fill="#63b8ff" stroke="#63b8ff" points="83.11,-216.03 93.66,-217.04 86.04,-209.68 83.11,-216.03"/>
</a>
</g>
</g>
<!-- Node4 -->
<g id="Node000004" class="node">
<title>Node4</title>
<g id="a_Node000004"><a xlink:href="uri_8cpp.html#a5a5a93b3f285bf959b33eb95a576afa3" target="_top" xlink:title=" ">
<polygon fill="white" stroke="#666666" points="154.62,-194.12 111.62,-194.12 111.62,-173.38 154.62,-173.38 154.62,-194.12"/>
<text xml:space="preserve" text-anchor="middle" x="133.12" y="-180.62" font-family="Helvetica,sans-Serif" font-size="10.00">paths</text>
</a>
</g>
</g>
<!-- Node1&#45;&gt;Node4 -->
<g id="edge3_Node000001_Node000004" class="edge">
<title>Node1&#45;&gt;Node4</title>
<g id="a_edge3_Node000001_Node000004"><a xlink:title=" ">
<path fill="none" stroke="#63b8ff" d="M41.17,-183.75C57.48,-183.75 80.93,-183.75 99.93,-183.75"/>
<polygon fill="#63b8ff" stroke="#63b8ff" points="99.86,-187.25 109.86,-183.75 99.86,-180.25 99.86,-187.25"/>
</a>
</g>
</g>
<!-- Node10 -->
<g id="Node000010" class="node">
<title>Node10</title>
<g id="a_Node000010"><a xlink:href="uri_8cpp.html#a1ecfb5d7d0d6c83e0cb94d84c1a7bc72" target="_top" xlink:title=" ">
<polygon fill="white" stroke="#666666" points="189.5,-143.12 76.75,-143.12 76.75,-122.38 189.5,-122.38 189.5,-143.12"/>
<text xml:space="preserve" text-anchor="middle" x="133.12" y="-129.62" font-family="Helvetica,sans-Serif" font-size="10.00">pointer_plain_name</text>
</a>
</g>
</g>
<!-- Node1&#45;&gt;Node10 -->
<g id="edge10_Node000001_Node000010" class="edge">
<title>Node1&#45;&gt;Node10</title>
<g id="a_edge10_Node000001_Node000010"><a xlink:title=" ">
<path fill="none" stroke="#63b8ff" d="M41.17,-174.63C57.06,-167.32 79.72,-156.88 98.44,-148.26"/>
<polygon fill="#63b8ff" stroke="#63b8ff" points="99.66,-151.55 107.28,-144.19 96.73,-145.19 99.66,-151.55"/>
</a>
</g>
</g>
<!-- Node3 -->
<g id="Node000003" class="node">
<title>Node3</title>
<g id="a_Node000003"><a xlink:href="classnlohmann_1_1json__uri.html#a6a73807e46532b22e02ae6602cdedcdc" target="_top" xlink:title=" ">
<polygon fill="white" stroke="#666666" points="479.5,-242.5 370.5,-242.5 370.5,-209 479.5,-209 479.5,-242.5"/>
<text xml:space="preserve" text-anchor="start" x="378.5" y="-229" font-family="Helvetica,sans-Serif" font-size="10.00">nlohmann::json_uri</text>
<text xml:space="preserve" text-anchor="middle" x="425" y="-216.25" font-family="Helvetica,sans-Serif" font-size="10.00">::update</text>
</a>
</g>
</g>
<!-- Node2&#45;&gt;Node3 -->
<g id="edge2_Node000002_Node000003" class="edge">
<title>Node2&#45;&gt;Node3</title>
<g id="a_edge2_Node000002_Node000003"><a xlink:title=" ">
<path fill="none" stroke="#63b8ff" d="M187.97,-233.08C236.37,-231.58 307.58,-229.36 359.11,-227.76"/>
<polygon fill="#63b8ff" stroke="#63b8ff" points="359.05,-231.27 368.93,-227.46 358.83,-224.27 359.05,-231.27"/>
</a>
</g>
</g>
<!-- Node5 -->
<g id="Node000005" class="node">
<title>Node5</title>
<g id="a_Node000005"><a xlink:href="classnlohmann_1_1json__uri.html#ab601a9e32d487e9484f12c57ec1befc1" target="_top" xlink:title=" ">
<polygon fill="white" stroke="#666666" points="334.5,-213.5 225.5,-213.5 225.5,-180 334.5,-180 334.5,-213.5"/>
<text xml:space="preserve" text-anchor="start" x="233.5" y="-200" font-family="Helvetica,sans-Serif" font-size="10.00">nlohmann::json_uri</text>
<text xml:space="preserve" text-anchor="middle" x="280" y="-187.25" font-family="Helvetica,sans-Serif" font-size="10.00">::derive</text>
</a>
</g>
</g>
<!-- Node4&#45;&gt;Node5 -->
<g id="edge4_Node000004_Node000005" class="edge">
<title>Node4&#45;&gt;Node5</title>
<g id="a_edge4_Node000004_Node000005"><a xlink:title=" ">
<path fill="none" stroke="#63b8ff" d="M154.88,-185.61C170.4,-187.01 192.52,-188.99 213.8,-190.9"/>
<polygon fill="#63b8ff" stroke="#63b8ff" points="213.37,-194.38 223.65,-191.78 214,-187.4 213.37,-194.38"/>
</a>
</g>
</g>
<!-- Node6 -->
<g id="Node000006" class="node">
<title>Node6</title>
<g id="a_Node000006"><a xlink:href="uri_8cpp.html#a135bd7aca49d128467d0cb09305a69f2" target="_top" xlink:title=" ">
<polygon fill="white" stroke="#666666" points="316.12,-162.12 243.88,-162.12 243.88,-141.38 316.12,-141.38 316.12,-162.12"/>
<text xml:space="preserve" text-anchor="middle" x="280" y="-148.62" font-family="Helvetica,sans-Serif" font-size="10.00">EXPECT_EQ</text>
</a>
</g>
</g>
<!-- Node4&#45;&gt;Node6 -->
<g id="edge6_Node000004_Node000006" class="edge">
<title>Node4&#45;&gt;Node6</title>
<g id="a_edge6_Node000004_Node000006"><a xlink:title=" ">
<path fill="none" stroke="#63b8ff" d="M154.88,-179.17C174.99,-174.72 206.18,-167.84 232.26,-162.07"/>
<polygon fill="#63b8ff" stroke="#63b8ff" points="232.96,-165.5 241.97,-159.93 231.45,-158.67 232.96,-165.5"/>
</a>
</g>
</g>
<!-- Node5&#45;&gt;Node3 -->
<g id="edge5_Node000005_Node000003" class="edge">
<title>Node5&#45;&gt;Node3</title>
<g id="a_edge5_Node000005_Node000003"><a xlink:title=" ">
<path fill="none" stroke="#63b8ff" d="M334.65,-207.63C342.61,-209.24 350.88,-210.92 359.03,-212.58"/>
<polygon fill="#63b8ff" stroke="#63b8ff" points="358.07,-215.95 368.56,-214.51 359.46,-209.09 358.07,-215.95"/>
</a>
</g>
</g>
<!-- Node7 -->
<g id="Node000007" class="node">
<title>Node7</title>
<g id="a_Node000007"><a xlink:href="uri_8cpp.html#ac73a0721d9400b0ab972fbe070316586" target="_top" xlink:title=" ">
<polygon fill="white" stroke="#666666" points="461.12,-124.12 388.88,-124.12 388.88,-103.38 461.12,-103.38 461.12,-124.12"/>
<text xml:space="preserve" text-anchor="middle" x="425" y="-110.62" font-family="Helvetica,sans-Serif" font-size="10.00">EXPECT_EQ</text>
</a>
</g>
</g>
<!-- Node6&#45;&gt;Node7 -->
<g id="edge7_Node000006_Node000007" class="edge">
<title>Node6&#45;&gt;Node7</title>
<g id="a_edge7_Node000006_Node000007"><a xlink:title=" ">
<path fill="none" stroke="#63b8ff" d="M316.35,-142.36C334.83,-137.45 357.67,-131.38 377.56,-126.09"/>
<polygon fill="#63b8ff" stroke="#63b8ff" points="378.33,-129.51 387.1,-123.56 376.54,-122.74 378.33,-129.51"/>
</a>
</g>
</g>
<!-- Node8 -->
<g id="Node000008" class="node">
<title>Node8</title>
<g id="a_Node000008"><a xlink:href="classnlohmann_1_1json__uri.html#a416eb06b53676b215761f43200da309f" target="_top" xlink:title=" ">
<polygon fill="white" stroke="#666666" points="479.5,-175.5 370.5,-175.5 370.5,-142 479.5,-142 479.5,-175.5"/>
<text xml:space="preserve" text-anchor="start" x="378.5" y="-162" font-family="Helvetica,sans-Serif" font-size="10.00">nlohmann::json_uri</text>
<text xml:space="preserve" text-anchor="middle" x="425" y="-149.25" font-family="Helvetica,sans-Serif" font-size="10.00">::to_string</text>
</a>
</g>
</g>
<!-- Node6&#45;&gt;Node8 -->
<g id="edge8_Node000006_Node000008" class="edge">
<title>Node6&#45;&gt;Node8</title>
<g id="a_edge8_Node000006_Node000008"><a xlink:title=" ">
<path fill="none" stroke="#63b8ff" d="M316.35,-153.48C329.27,-154.11 344.32,-154.85 359.01,-155.57"/>
<polygon fill="#63b8ff" stroke="#63b8ff" points="358.45,-159.05 368.61,-156.04 358.79,-152.05 358.45,-159.05"/>
</a>
</g>
</g>
<!-- Node9 -->
<g id="Node000009" class="node">
<title>Node9</title>
<g id="a_Node000009"><a xlink:href="classnlohmann_1_1json__uri.html#a63674f908919cb2496e772e864be35de" target="_top" xlink:title=" ">
<polygon fill="white" stroke="#666666" points="624.5,-175.5 515.5,-175.5 515.5,-142 624.5,-142 624.5,-175.5"/>
<text xml:space="preserve" text-anchor="start" x="523.5" y="-162" font-family="Helvetica,sans-Serif" font-size="10.00">nlohmann::json_uri</text>
<text xml:space="preserve" text-anchor="middle" x="570" y="-149.25" font-family="Helvetica,sans-Serif" font-size="10.00">::location</text>
</a>
</g>
</g>
<!-- Node8&#45;&gt;Node9 -->
<g id="edge9_Node000008_Node000009" class="edge">
<title>Node8&#45;&gt;Node9</title>
<g id="a_edge9_Node000008_Node000009"><a xlink:title=" ">
<path fill="none" stroke="#63b8ff" d="M479.65,-158.75C487.52,-158.75 495.69,-158.75 503.76,-158.75"/>
<polygon fill="#63b8ff" stroke="#63b8ff" points="503.53,-162.25 513.53,-158.75 503.53,-155.25 503.53,-162.25"/>
</a>
</g>
</g>
<!-- Node10&#45;&gt;Node5 -->
<g id="edge11_Node000010_Node000005" class="edge">
<title>Node10&#45;&gt;Node5</title>
<g id="a_edge11_Node000010_Node000005"><a xlink:title=" ">
<path fill="none" stroke="#63b8ff" d="M158.7,-143.61C178.11,-152.18 205.82,-164.42 229.75,-174.99"/>
<polygon fill="#63b8ff" stroke="#63b8ff" points="228.14,-178.11 238.7,-178.95 230.97,-171.71 228.14,-178.11"/>
</a>
</g>
</g>
<!-- Node10&#45;&gt;Node6 -->
<g id="edge12_Node000010_Node000006" class="edge">
<title>Node10&#45;&gt;Node6</title>
<g id="a_edge12_Node000010_Node000006"><a xlink:title=" ">
<path fill="none" stroke="#63b8ff" d="M189.72,-140.04C203.81,-141.89 218.8,-143.86 232.39,-145.64"/>
<polygon fill="#63b8ff" stroke="#63b8ff" points="231.56,-149.06 241.93,-146.89 232.47,-142.12 231.56,-149.06"/>
</a>
</g>
</g>
<!-- Node10&#45;&gt;Node7 -->
<g id="edge13_Node000010_Node000007" class="edge">
<title>Node10&#45;&gt;Node7</title>
<g id="a_edge13_Node000010_Node000007"><a xlink:title=" ">
<path fill="none" stroke="#63b8ff" d="M189.67,-129.11C244.12,-125.54 326.18,-120.16 377.35,-116.81"/>
<polygon fill="#63b8ff" stroke="#63b8ff" points="377.45,-120.31 387.2,-116.16 376.99,-113.32 377.45,-120.31"/>
</a>
</g>
</g>
<!-- Node11 -->
<g id="Node000011" class="node">
<title>Node11</title>
<g id="a_Node000011"><a xlink:href="classnlohmann_1_1json__uri.html#a0f3b1d248d3c1e73095138093be73f22" target="_top" xlink:title=" ">
<polygon fill="white" stroke="#666666" points="334.5,-85.5 225.5,-85.5 225.5,-52 334.5,-52 334.5,-85.5"/>
<text xml:space="preserve" text-anchor="start" x="233.5" y="-72" font-family="Helvetica,sans-Serif" font-size="10.00">nlohmann::json_uri</text>
<text xml:space="preserve" text-anchor="middle" x="280" y="-59.25" font-family="Helvetica,sans-Serif" font-size="10.00">::identifier</text>
</a>
</g>
</g>
<!-- Node10&#45;&gt;Node11 -->
<g id="edge14_Node000010_Node000011" class="edge">
<title>Node10&#45;&gt;Node11</title>
<g id="a_edge14_Node000010_Node000011"><a xlink:title=" ">
<path fill="none" stroke="#63b8ff" d="M158.7,-121.89C178.11,-113.32 205.82,-101.08 229.75,-90.51"/>
<polygon fill="#63b8ff" stroke="#63b8ff" points="230.97,-93.79 238.7,-86.55 228.14,-87.39 230.97,-93.79"/>
</a>
</g>
</g>
<!-- Node12 -->
<g id="Node000012" class="node">
<title>Node12</title>
<g id="a_Node000012"><a xlink:href="classnlohmann_1_1json__uri.html#ab01bdcb8bf65ee07703d1ccb69c9f3ee" target="_top" xlink:title=" ">
<polygon fill="white" stroke="#666666" points="334.5,-33.5 225.5,-33.5 225.5,0 334.5,0 334.5,-33.5"/>
<text xml:space="preserve" text-anchor="start" x="233.5" y="-20" font-family="Helvetica,sans-Serif" font-size="10.00">nlohmann::json_uri</text>
<text xml:space="preserve" text-anchor="middle" x="280" y="-7.25" font-family="Helvetica,sans-Serif" font-size="10.00">::pointer</text>
</a>
</g>
</g>
<!-- Node10&#45;&gt;Node12 -->
<g id="edge15_Node000010_Node000012" class="edge">
<title>Node10&#45;&gt;Node12</title>
<g id="a_edge15_Node000010_Node000012"><a xlink:title=" ">
<path fill="none" stroke="#63b8ff" d="M143.05,-121.9C158.41,-103.72 191.49,-66.78 225.5,-42.75 227.04,-41.66 228.63,-40.6 230.25,-39.56"/>
<polygon fill="#63b8ff" stroke="#63b8ff" points="231.71,-42.76 238.56,-34.68 228.16,-36.73 231.71,-42.76"/>
</a>
</g>
</g>
</g>
</svg>

<g id="navigator" transform="translate(0 0)" fill="#404254">
  <rect fill="#f2f5e9" fill-opacity="0.5" stroke="#606060" stroke-width=".5" x="0" y="0" width="60" height="60"/>
  <use id="zoomplus" xlink:href="#zoomPlus" x="17" y="9" onmousedown="handleZoom(evt,'in')"/>
  <use id="zoomminus" xlink:href="#zoomMin" x="42" y="9" onmousedown="handleZoom(evt,'out')"/>
  <use id="reset" xlink:href="#resetDef" x="30" y="36" onmousedown="handleReset()"/>
   <use id="arrowup" xlink:href="#arrowUp" x="0" y="0" onmousedown="handlePan(0,-1)"/>
  <use id="arrowright" xlink:href="#arrowRight" x="0" y="0" onmousedown="handlePan(1,0)"/>
  <use id="arrowdown" xlink:href="#arrowDown" x="0" y="0" onmousedown="handlePan(0,1)"/>
  <use id="arrowleft" xlink:href="#arrowLeft" x="0" y="0" onmousedown="handlePan(-1,0)"/>
</g>
<svg viewBox="0 0 15 15" width="100%" height="30px" preserveAspectRatio="xMaxYMin meet">
 <g id="arrow_out" transform="scale(0.3 0.3)">
  <a xlink:href="uri_8cpp_a840291bc02cba5474a4cb46a9b9566fe_cgraph_org.svg" target="_base">
   <rect id="button" ry="5" rx="5" y="6" x="6" height="38" width="38"
        fill="#f2f5e9" fill-opacity="0.5" stroke="#606060" stroke-width="1.0"/>
   <path id="arrow"
     d="M 11.500037,31.436501 C 11.940474,20.09759 22.043105,11.32322 32.158766,21.979434 L 37.068811,17.246167 C 37.068811,17.246167 37.088388,32 37.088388,32 L 22.160133,31.978069 C 22.160133,31.978069 26.997745,27.140456 26.997745,27.140456 C 18.528582,18.264221 13.291696,25.230495 11.500037,31.436501 z"
     style="fill:#404040;"/>
  </a>
 </g>
</svg>

<style type='text/css'>
<![CDATA[
[data-mouse-over-selected='false'] { opacity: 0.7; }
[data-mouse-over-selected='true']  { opacity: 1.0; }
]]>
</style>
<script type="application/ecmascript"><![CDATA[
document.addEventListener('DOMContentLoaded', (event) => {
  highlightEdges();
  highlightAdjacentNodes();
});
]]></script>
</svg>
